<?xml version="1.0" encoding="utf-8"?>
<svg xmlns="http://www.w3.org/2000/svg" xmlns:xlink="http://www.w3.org/1999/xlink" width="600" height="400" viewBox="0 0 2400 1600">
<defs>
  <clipPath id="clip160">
    <rect x="0" y="0" width="2400" height="1600"/>
  </clipPath>
</defs>
<path clip-path="url(#clip160)" d="M0 1600 L2400 1600 L2400 0 L0 0  Z" fill="#ffffff" fill-rule="evenodd" fill-opacity="1"/>
<defs>
  <clipPath id="clip161">
    <rect x="480" y="0" width="1681" height="1600"/>
  </clipPath>
</defs>
<path clip-path="url(#clip160)" d="M186.274 1423.18 L2352.76 1423.18 L2352.76 47.2441 L186.274 47.2441  Z" fill="#ffffff" fill-rule="evenodd" fill-opacity="1"/>
<defs>
  <clipPath id="clip162">
    <rect x="186" y="47" width="2167" height="1377"/>
  </clipPath>
</defs>
<polyline clip-path="url(#clip162)" style="stroke:#000000; stroke-linecap:round; stroke-linejoin:round; stroke-width:2; stroke-opacity:0.1; fill:none" points="186.274,1423.18 186.274,47.2441 "/>
<polyline clip-path="url(#clip162)" style="stroke:#000000; stroke-linecap:round; stroke-linejoin:round; stroke-width:2; stroke-opacity:0.1; fill:none" points="619.57,1423.18 619.57,47.2441 "/>
<polyline clip-path="url(#clip162)" style="stroke:#000000; stroke-linecap:round; stroke-linejoin:round; stroke-width:2; stroke-opacity:0.1; fill:none" points="1052.87,1423.18 1052.87,47.2441 "/>
<polyline clip-path="url(#clip162)" style="stroke:#000000; stroke-linecap:round; stroke-linejoin:round; stroke-width:2; stroke-opacity:0.1; fill:none" points="1486.16,1423.18 1486.16,47.2441 "/>
<polyline clip-path="url(#clip162)" style="stroke:#000000; stroke-linecap:round; stroke-linejoin:round; stroke-width:2; stroke-opacity:0.1; fill:none" points="1919.46,1423.18 1919.46,47.2441 "/>
<polyline clip-path="url(#clip162)" style="stroke:#000000; stroke-linecap:round; stroke-linejoin:round; stroke-width:2; stroke-opacity:0.1; fill:none" points="2352.76,1423.18 2352.76,47.2441 "/>
<polyline clip-path="url(#clip160)" style="stroke:#000000; stroke-linecap:round; stroke-linejoin:round; stroke-width:4; stroke-opacity:1; fill:none" points="186.274,1423.18 2352.76,1423.18 "/>
<polyline clip-path="url(#clip160)" style="stroke:#000000; stroke-linecap:round; stroke-linejoin:round; stroke-width:4; stroke-opacity:1; fill:none" points="186.274,1423.18 186.274,1404.28 "/>
<polyline clip-path="url(#clip160)" style="stroke:#000000; stroke-linecap:round; stroke-linejoin:round; stroke-width:4; stroke-opacity:1; fill:none" points="619.57,1423.18 619.57,1404.28 "/>
<polyline clip-path="url(#clip160)" style="stroke:#000000; stroke-linecap:round; stroke-linejoin:round; stroke-width:4; stroke-opacity:1; fill:none" points="1052.87,1423.18 1052.87,1404.28 "/>
<polyline clip-path="url(#clip160)" style="stroke:#000000; stroke-linecap:round; stroke-linejoin:round; stroke-width:4; stroke-opacity:1; fill:none" points="1486.16,1423.18 1486.16,1404.28 "/>
<polyline clip-path="url(#clip160)" style="stroke:#000000; stroke-linecap:round; stroke-linejoin:round; stroke-width:4; stroke-opacity:1; fill:none" points="1919.46,1423.18 1919.46,1404.28 "/>
<polyline clip-path="url(#clip160)" style="stroke:#000000; stroke-linecap:round; stroke-linejoin:round; stroke-width:4; stroke-opacity:1; fill:none" points="2352.76,1423.18 2352.76,1404.28 "/>
<path clip-path="url(#clip160)" d="M186.274 1454.1 Q182.663 1454.1 180.834 1457.66 Q179.029 1461.2 179.029 1468.33 Q179.029 1475.44 180.834 1479.01 Q182.663 1482.55 186.274 1482.55 Q189.908 1482.55 191.714 1479.01 Q193.542 1475.44 193.542 1468.33 Q193.542 1461.2 191.714 1457.66 Q189.908 1454.1 186.274 1454.1 M186.274 1450.39 Q192.084 1450.39 195.14 1455 Q198.218 1459.58 198.218 1468.33 Q198.218 1477.06 195.14 1481.67 Q192.084 1486.25 186.274 1486.25 Q180.464 1486.25 177.385 1481.67 Q174.33 1477.06 174.33 1468.33 Q174.33 1459.58 177.385 1455 Q180.464 1450.39 186.274 1450.39 Z" fill="#000000" fill-rule="nonzero" fill-opacity="1" /><path clip-path="url(#clip160)" d="M614.223 1481.64 L630.543 1481.64 L630.543 1485.58 L608.598 1485.58 L608.598 1481.64 Q611.26 1478.89 615.844 1474.26 Q620.45 1469.61 621.631 1468.27 Q623.876 1465.74 624.756 1464.01 Q625.658 1462.25 625.658 1460.56 Q625.658 1457.8 623.714 1456.07 Q621.793 1454.33 618.691 1454.33 Q616.492 1454.33 614.038 1455.09 Q611.607 1455.86 608.83 1457.41 L608.83 1452.69 Q611.654 1451.55 614.107 1450.97 Q616.561 1450.39 618.598 1450.39 Q623.969 1450.39 627.163 1453.08 Q630.357 1455.77 630.357 1460.26 Q630.357 1462.39 629.547 1464.31 Q628.76 1466.2 626.654 1468.8 Q626.075 1469.47 622.973 1472.69 Q619.871 1475.88 614.223 1481.64 Z" fill="#000000" fill-rule="nonzero" fill-opacity="1" /><path clip-path="url(#clip160)" d="M1055.88 1455.09 L1044.07 1473.54 L1055.88 1473.54 L1055.88 1455.09 M1054.65 1451.02 L1060.53 1451.02 L1060.53 1473.54 L1065.46 1473.54 L1065.46 1477.43 L1060.53 1477.43 L1060.53 1485.58 L1055.88 1485.58 L1055.88 1477.43 L1040.27 1477.43 L1040.27 1472.92 L1054.65 1451.02 Z" fill="#000000" fill-rule="nonzero" fill-opacity="1" /><path clip-path="url(#clip160)" d="M1486.57 1466.44 Q1483.42 1466.44 1481.57 1468.59 Q1479.74 1470.74 1479.74 1474.49 Q1479.74 1478.22 1481.57 1480.39 Q1483.42 1482.55 1486.57 1482.55 Q1489.72 1482.55 1491.55 1480.39 Q1493.4 1478.22 1493.4 1474.49 Q1493.4 1470.74 1491.55 1468.59 Q1489.72 1466.44 1486.57 1466.44 M1495.85 1451.78 L1495.85 1456.04 Q1494.09 1455.21 1492.29 1454.77 Q1490.5 1454.33 1488.74 1454.33 Q1484.11 1454.33 1481.66 1457.45 Q1479.23 1460.58 1478.88 1466.9 Q1480.25 1464.89 1482.31 1463.82 Q1484.37 1462.73 1486.85 1462.73 Q1492.05 1462.73 1495.06 1465.9 Q1498.1 1469.05 1498.1 1474.49 Q1498.1 1479.82 1494.95 1483.03 Q1491.8 1486.25 1486.57 1486.25 Q1480.57 1486.25 1477.4 1481.67 Q1474.23 1477.06 1474.23 1468.33 Q1474.23 1460.14 1478.12 1455.28 Q1482.01 1450.39 1488.56 1450.39 Q1490.32 1450.39 1492.1 1450.74 Q1493.91 1451.09 1495.85 1451.78 Z" fill="#000000" fill-rule="nonzero" fill-opacity="1" /><path clip-path="url(#clip160)" d="M1919.46 1469.17 Q1916.13 1469.17 1914.2 1470.95 Q1912.31 1472.73 1912.31 1475.86 Q1912.31 1478.98 1914.2 1480.77 Q1916.13 1482.55 1919.46 1482.55 Q1922.79 1482.55 1924.71 1480.77 Q1926.64 1478.96 1926.64 1475.86 Q1926.64 1472.73 1924.71 1470.95 Q1922.82 1469.17 1919.46 1469.17 M1914.78 1467.18 Q1911.77 1466.44 1910.08 1464.38 Q1908.42 1462.32 1908.42 1459.35 Q1908.42 1455.21 1911.36 1452.8 Q1914.32 1450.39 1919.46 1450.39 Q1924.62 1450.39 1927.56 1452.8 Q1930.5 1455.21 1930.5 1459.35 Q1930.5 1462.32 1928.81 1464.38 Q1927.14 1466.44 1924.16 1467.18 Q1927.54 1467.96 1929.41 1470.26 Q1931.31 1472.55 1931.31 1475.86 Q1931.31 1480.88 1928.23 1483.57 Q1925.18 1486.25 1919.46 1486.25 Q1913.74 1486.25 1910.66 1483.57 Q1907.61 1480.88 1907.61 1475.86 Q1907.61 1472.55 1909.51 1470.26 Q1911.4 1467.96 1914.78 1467.18 M1913.07 1459.79 Q1913.07 1462.48 1914.74 1463.98 Q1916.43 1465.49 1919.46 1465.49 Q1922.47 1465.49 1924.16 1463.98 Q1925.87 1462.48 1925.87 1459.79 Q1925.87 1457.11 1924.16 1455.6 Q1922.47 1454.1 1919.46 1454.1 Q1916.43 1454.1 1914.74 1455.6 Q1913.07 1457.11 1913.07 1459.79 Z" fill="#000000" fill-rule="nonzero" fill-opacity="1" /><path clip-path="url(#clip160)" d="M2327.44 1481.64 L2335.08 1481.64 L2335.08 1455.28 L2326.77 1456.95 L2326.77 1452.69 L2335.04 1451.02 L2339.71 1451.02 L2339.71 1481.64 L2347.35 1481.64 L2347.35 1485.58 L2327.44 1485.58 L2327.44 1481.64 Z" fill="#000000" fill-rule="nonzero" fill-opacity="1" /><path clip-path="url(#clip160)" d="M2366.8 1454.1 Q2363.18 1454.1 2361.36 1457.66 Q2359.55 1461.2 2359.55 1468.33 Q2359.55 1475.44 2361.36 1479.01 Q2363.18 1482.55 2366.8 1482.55 Q2370.43 1482.55 2372.23 1479.01 Q2374.06 1475.44 2374.06 1468.33 Q2374.06 1461.2 2372.23 1457.66 Q2370.43 1454.1 2366.8 1454.1 M2366.8 1450.39 Q2372.61 1450.39 2375.66 1455 Q2378.74 1459.58 2378.74 1468.33 Q2378.74 1477.06 2375.66 1481.67 Q2372.61 1486.25 2366.8 1486.25 Q2360.99 1486.25 2357.91 1481.67 Q2354.85 1477.06 2354.85 1468.33 Q2354.85 1459.58 2357.91 1455 Q2360.99 1450.39 2366.8 1450.39 Z" fill="#000000" fill-rule="nonzero" fill-opacity="1" /><path clip-path="url(#clip160)" d="M1268.58 1522.27 L1268.58 1532.4 L1280.64 1532.4 L1280.64 1536.95 L1268.58 1536.95 L1268.58 1556.3 Q1268.58 1560.66 1269.75 1561.9 Q1270.96 1563.14 1274.62 1563.14 L1280.64 1563.14 L1280.64 1568.04 L1274.62 1568.04 Q1267.84 1568.04 1265.27 1565.53 Q1262.69 1562.98 1262.69 1556.3 L1262.69 1536.95 L1258.39 1536.95 L1258.39 1532.4 L1262.69 1532.4 L1262.69 1522.27 L1268.58 1522.27 Z" fill="#000000" fill-rule="nonzero" fill-opacity="1" /><polyline clip-path="url(#clip162)" style="stroke:#000000; stroke-linecap:round; stroke-linejoin:round; stroke-width:2; stroke-opacity:0.1; fill:none" points="186.274,1207.33 2352.76,1207.33 "/>
<polyline clip-path="url(#clip162)" style="stroke:#000000; stroke-linecap:round; stroke-linejoin:round; stroke-width:2; stroke-opacity:0.1; fill:none" points="186.274,971.426 2352.76,971.426 "/>
<polyline clip-path="url(#clip162)" style="stroke:#000000; stroke-linecap:round; stroke-linejoin:round; stroke-width:2; stroke-opacity:0.1; fill:none" points="186.274,735.528 2352.76,735.528 "/>
<polyline clip-path="url(#clip162)" style="stroke:#000000; stroke-linecap:round; stroke-linejoin:round; stroke-width:2; stroke-opacity:0.1; fill:none" points="186.274,499.629 2352.76,499.629 "/>
<polyline clip-path="url(#clip162)" style="stroke:#000000; stroke-linecap:round; stroke-linejoin:round; stroke-width:2; stroke-opacity:0.1; fill:none" points="186.274,263.73 2352.76,263.73 "/>
<polyline clip-path="url(#clip160)" style="stroke:#000000; stroke-linecap:round; stroke-linejoin:round; stroke-width:4; stroke-opacity:1; fill:none" points="186.274,1423.18 186.274,47.2441 "/>
<polyline clip-path="url(#clip160)" style="stroke:#000000; stroke-linecap:round; stroke-linejoin:round; stroke-width:4; stroke-opacity:1; fill:none" points="186.274,1207.33 205.172,1207.33 "/>
<polyline clip-path="url(#clip160)" style="stroke:#000000; stroke-linecap:round; stroke-linejoin:round; stroke-width:4; stroke-opacity:1; fill:none" points="186.274,971.426 205.172,971.426 "/>
<polyline clip-path="url(#clip160)" style="stroke:#000000; stroke-linecap:round; stroke-linejoin:round; stroke-width:4; stroke-opacity:1; fill:none" points="186.274,735.528 205.172,735.528 "/>
<polyline clip-path="url(#clip160)" style="stroke:#000000; stroke-linecap:round; stroke-linejoin:round; stroke-width:4; stroke-opacity:1; fill:none" points="186.274,499.629 205.172,499.629 "/>
<polyline clip-path="url(#clip160)" style="stroke:#000000; stroke-linecap:round; stroke-linejoin:round; stroke-width:4; stroke-opacity:1; fill:none" points="186.274,263.73 205.172,263.73 "/>
<path clip-path="url(#clip160)" d="M63.9319 1193.12 Q60.3208 1193.12 58.4921 1196.69 Q56.6865 1200.23 56.6865 1207.36 Q56.6865 1214.47 58.4921 1218.03 Q60.3208 1221.57 63.9319 1221.57 Q67.5661 1221.57 69.3717 1218.03 Q71.2004 1214.47 71.2004 1207.36 Q71.2004 1200.23 69.3717 1196.69 Q67.5661 1193.12 63.9319 1193.12 M63.9319 1189.42 Q69.742 1189.42 72.7976 1194.03 Q75.8763 1198.61 75.8763 1207.36 Q75.8763 1216.09 72.7976 1220.69 Q69.742 1225.28 63.9319 1225.28 Q58.1217 1225.28 55.043 1220.69 Q51.9875 1216.09 51.9875 1207.36 Q51.9875 1198.61 55.043 1194.03 Q58.1217 1189.42 63.9319 1189.42 Z" fill="#000000" fill-rule="nonzero" fill-opacity="1" /><path clip-path="url(#clip160)" d="M84.0938 1218.73 L88.978 1218.73 L88.978 1224.61 L84.0938 1224.61 L84.0938 1218.73 Z" fill="#000000" fill-rule="nonzero" fill-opacity="1" /><path clip-path="url(#clip160)" d="M109.163 1193.12 Q105.552 1193.12 103.723 1196.69 Q101.918 1200.23 101.918 1207.36 Q101.918 1214.47 103.723 1218.03 Q105.552 1221.57 109.163 1221.57 Q112.797 1221.57 114.603 1218.03 Q116.432 1214.47 116.432 1207.36 Q116.432 1200.23 114.603 1196.69 Q112.797 1193.12 109.163 1193.12 M109.163 1189.42 Q114.973 1189.42 118.029 1194.03 Q121.107 1198.61 121.107 1207.36 Q121.107 1216.09 118.029 1220.69 Q114.973 1225.28 109.163 1225.28 Q103.353 1225.28 100.274 1220.69 Q97.2187 1216.09 97.2187 1207.36 Q97.2187 1198.61 100.274 1194.03 Q103.353 1189.42 109.163 1189.42 Z" fill="#000000" fill-rule="nonzero" fill-opacity="1" /><path clip-path="url(#clip160)" d="M129.371 1190.05 L147.728 1190.05 L147.728 1193.98 L133.654 1193.98 L133.654 1202.45 Q134.672 1202.11 135.691 1201.94 Q136.709 1201.76 137.728 1201.76 Q143.515 1201.76 146.894 1204.93 Q150.274 1208.1 150.274 1213.52 Q150.274 1219.1 146.802 1222.2 Q143.33 1225.28 137.01 1225.28 Q134.834 1225.28 132.566 1224.91 Q130.32 1224.54 127.913 1223.79 L127.913 1219.1 Q129.996 1220.23 132.219 1220.79 Q134.441 1221.34 136.918 1221.34 Q140.922 1221.34 143.26 1219.23 Q145.598 1217.13 145.598 1213.52 Q145.598 1209.91 143.26 1207.8 Q140.922 1205.69 136.918 1205.69 Q135.043 1205.69 133.168 1206.11 Q131.316 1206.53 129.371 1207.41 L129.371 1190.05 Z" fill="#000000" fill-rule="nonzero" fill-opacity="1" /><path clip-path="url(#clip160)" d="M62.9365 957.225 Q59.3254 957.225 57.4967 960.79 Q55.6912 964.331 55.6912 971.461 Q55.6912 978.567 57.4967 982.132 Q59.3254 985.674 62.9365 985.674 Q66.5707 985.674 68.3763 982.132 Q70.205 978.567 70.205 971.461 Q70.205 964.331 68.3763 960.79 Q66.5707 957.225 62.9365 957.225 M62.9365 953.521 Q68.7467 953.521 71.8022 958.128 Q74.8809 962.711 74.8809 971.461 Q74.8809 980.188 71.8022 984.794 Q68.7467 989.378 62.9365 989.378 Q57.1264 989.378 54.0477 984.794 Q50.9921 980.188 50.9921 971.461 Q50.9921 962.711 54.0477 958.128 Q57.1264 953.521 62.9365 953.521 Z" fill="#000000" fill-rule="nonzero" fill-opacity="1" /><path clip-path="url(#clip160)" d="M83.0984 982.827 L87.9827 982.827 L87.9827 988.706 L83.0984 988.706 L83.0984 982.827 Z" fill="#000000" fill-rule="nonzero" fill-opacity="1" /><path clip-path="url(#clip160)" d="M98.978 984.771 L106.617 984.771 L106.617 958.406 L98.3067 960.072 L98.3067 955.813 L106.571 954.146 L111.246 954.146 L111.246 984.771 L118.885 984.771 L118.885 988.706 L98.978 988.706 L98.978 984.771 Z" fill="#000000" fill-rule="nonzero" fill-opacity="1" /><path clip-path="url(#clip160)" d="M138.33 957.225 Q134.719 957.225 132.89 960.79 Q131.084 964.331 131.084 971.461 Q131.084 978.567 132.89 982.132 Q134.719 985.674 138.33 985.674 Q141.964 985.674 143.769 982.132 Q145.598 978.567 145.598 971.461 Q145.598 964.331 143.769 960.79 Q141.964 957.225 138.33 957.225 M138.33 953.521 Q144.14 953.521 147.195 958.128 Q150.274 962.711 150.274 971.461 Q150.274 980.188 147.195 984.794 Q144.14 989.378 138.33 989.378 Q132.519 989.378 129.441 984.794 Q126.385 980.188 126.385 971.461 Q126.385 962.711 129.441 958.128 Q132.519 953.521 138.33 953.521 Z" fill="#000000" fill-rule="nonzero" fill-opacity="1" /><path clip-path="url(#clip160)" d="M63.9319 721.326 Q60.3208 721.326 58.4921 724.891 Q56.6865 728.433 56.6865 735.562 Q56.6865 742.669 58.4921 746.233 Q60.3208 749.775 63.9319 749.775 Q67.5661 749.775 69.3717 746.233 Q71.2004 742.669 71.2004 735.562 Q71.2004 728.433 69.3717 724.891 Q67.5661 721.326 63.9319 721.326 M63.9319 717.623 Q69.742 717.623 72.7976 722.229 Q75.8763 726.812 75.8763 735.562 Q75.8763 744.289 72.7976 748.895 Q69.742 753.479 63.9319 753.479 Q58.1217 753.479 55.043 748.895 Q51.9875 744.289 51.9875 735.562 Q51.9875 726.812 55.043 722.229 Q58.1217 717.623 63.9319 717.623 Z" fill="#000000" fill-rule="nonzero" fill-opacity="1" /><path clip-path="url(#clip160)" d="M84.0938 746.928 L88.978 746.928 L88.978 752.808 L84.0938 752.808 L84.0938 746.928 Z" fill="#000000" fill-rule="nonzero" fill-opacity="1" /><path clip-path="url(#clip160)" d="M99.9733 748.872 L107.612 748.872 L107.612 722.507 L99.3021 724.173 L99.3021 719.914 L107.566 718.248 L112.242 718.248 L112.242 748.872 L119.881 748.872 L119.881 752.808 L99.9733 752.808 L99.9733 748.872 Z" fill="#000000" fill-rule="nonzero" fill-opacity="1" /><path clip-path="url(#clip160)" d="M129.371 718.248 L147.728 718.248 L147.728 722.183 L133.654 722.183 L133.654 730.655 Q134.672 730.308 135.691 730.146 Q136.709 729.96 137.728 729.96 Q143.515 729.96 146.894 733.132 Q150.274 736.303 150.274 741.72 Q150.274 747.298 146.802 750.4 Q143.33 753.479 137.01 753.479 Q134.834 753.479 132.566 753.108 Q130.32 752.738 127.913 751.997 L127.913 747.298 Q129.996 748.433 132.219 748.988 Q134.441 749.544 136.918 749.544 Q140.922 749.544 143.26 747.437 Q145.598 745.331 145.598 741.72 Q145.598 738.109 143.26 736.002 Q140.922 733.896 136.918 733.896 Q135.043 733.896 133.168 734.312 Q131.316 734.729 129.371 735.609 L129.371 718.248 Z" fill="#000000" fill-rule="nonzero" fill-opacity="1" /><path clip-path="url(#clip160)" d="M62.9365 485.427 Q59.3254 485.427 57.4967 488.992 Q55.6912 492.534 55.6912 499.663 Q55.6912 506.77 57.4967 510.335 Q59.3254 513.876 62.9365 513.876 Q66.5707 513.876 68.3763 510.335 Q70.205 506.77 70.205 499.663 Q70.205 492.534 68.3763 488.992 Q66.5707 485.427 62.9365 485.427 M62.9365 481.724 Q68.7467 481.724 71.8022 486.33 Q74.8809 490.914 74.8809 499.663 Q74.8809 508.39 71.8022 512.997 Q68.7467 517.58 62.9365 517.58 Q57.1264 517.58 54.0477 512.997 Q50.9921 508.39 50.9921 499.663 Q50.9921 490.914 54.0477 486.33 Q57.1264 481.724 62.9365 481.724 Z" fill="#000000" fill-rule="nonzero" fill-opacity="1" /><path clip-path="url(#clip160)" d="M83.0984 511.029 L87.9827 511.029 L87.9827 516.909 L83.0984 516.909 L83.0984 511.029 Z" fill="#000000" fill-rule="nonzero" fill-opacity="1" /><path clip-path="url(#clip160)" d="M102.196 512.974 L118.515 512.974 L118.515 516.909 L96.5706 516.909 L96.5706 512.974 Q99.2326 510.219 103.816 505.589 Q108.422 500.937 109.603 499.594 Q111.848 497.071 112.728 495.335 Q113.631 493.576 113.631 491.886 Q113.631 489.131 111.686 487.395 Q109.765 485.659 106.663 485.659 Q104.464 485.659 102.01 486.423 Q99.5798 487.187 96.8021 488.738 L96.8021 484.015 Q99.6261 482.881 102.08 482.302 Q104.534 481.724 106.571 481.724 Q111.941 481.724 115.135 484.409 Q118.33 487.094 118.33 491.585 Q118.33 493.714 117.52 495.636 Q116.733 497.534 114.626 500.126 Q114.047 500.798 110.946 504.015 Q107.844 507.21 102.196 512.974 Z" fill="#000000" fill-rule="nonzero" fill-opacity="1" /><path clip-path="url(#clip160)" d="M138.33 485.427 Q134.719 485.427 132.89 488.992 Q131.084 492.534 131.084 499.663 Q131.084 506.77 132.89 510.335 Q134.719 513.876 138.33 513.876 Q141.964 513.876 143.769 510.335 Q145.598 506.77 145.598 499.663 Q145.598 492.534 143.769 488.992 Q141.964 485.427 138.33 485.427 M138.33 481.724 Q144.14 481.724 147.195 486.33 Q150.274 490.914 150.274 499.663 Q150.274 508.39 147.195 512.997 Q144.14 517.58 138.33 517.58 Q132.519 517.58 129.441 512.997 Q126.385 508.39 126.385 499.663 Q126.385 490.914 129.441 486.33 Q132.519 481.724 138.33 481.724 Z" fill="#000000" fill-rule="nonzero" fill-opacity="1" /><path clip-path="url(#clip160)" d="M63.9319 249.529 Q60.3208 249.529 58.4921 253.093 Q56.6865 256.635 56.6865 263.765 Q56.6865 270.871 58.4921 274.436 Q60.3208 277.978 63.9319 277.978 Q67.5661 277.978 69.3717 274.436 Q71.2004 270.871 71.2004 263.765 Q71.2004 256.635 69.3717 253.093 Q67.5661 249.529 63.9319 249.529 M63.9319 245.825 Q69.742 245.825 72.7976 250.431 Q75.8763 255.015 75.8763 263.765 Q75.8763 272.492 72.7976 277.098 Q69.742 281.681 63.9319 281.681 Q58.1217 281.681 55.043 277.098 Q51.9875 272.492 51.9875 263.765 Q51.9875 255.015 55.043 250.431 Q58.1217 245.825 63.9319 245.825 Z" fill="#000000" fill-rule="nonzero" fill-opacity="1" /><path clip-path="url(#clip160)" d="M84.0938 275.13 L88.978 275.13 L88.978 281.01 L84.0938 281.01 L84.0938 275.13 Z" fill="#000000" fill-rule="nonzero" fill-opacity="1" /><path clip-path="url(#clip160)" d="M103.191 277.075 L119.51 277.075 L119.51 281.01 L97.566 281.01 L97.566 277.075 Q100.228 274.32 104.811 269.691 Q109.418 265.038 110.598 263.695 Q112.844 261.172 113.723 259.436 Q114.626 257.677 114.626 255.987 Q114.626 253.232 112.682 251.496 Q110.76 249.76 107.658 249.76 Q105.459 249.76 103.006 250.524 Q100.575 251.288 97.7974 252.839 L97.7974 248.117 Q100.621 246.982 103.075 246.404 Q105.529 245.825 107.566 245.825 Q112.936 245.825 116.131 248.51 Q119.325 251.195 119.325 255.686 Q119.325 257.816 118.515 259.737 Q117.728 261.635 115.621 264.228 Q115.043 264.899 111.941 268.117 Q108.839 271.311 103.191 277.075 Z" fill="#000000" fill-rule="nonzero" fill-opacity="1" /><path clip-path="url(#clip160)" d="M129.371 246.45 L147.728 246.45 L147.728 250.385 L133.654 250.385 L133.654 258.857 Q134.672 258.51 135.691 258.348 Q136.709 258.163 137.728 258.163 Q143.515 258.163 146.894 261.334 Q150.274 264.505 150.274 269.922 Q150.274 275.501 146.802 278.603 Q143.33 281.681 137.01 281.681 Q134.834 281.681 132.566 281.311 Q130.32 280.941 127.913 280.2 L127.913 275.501 Q129.996 276.635 132.219 277.191 Q134.441 277.746 136.918 277.746 Q140.922 277.746 143.26 275.64 Q145.598 273.533 145.598 269.922 Q145.598 266.311 143.26 264.205 Q140.922 262.098 136.918 262.098 Q135.043 262.098 133.168 262.515 Q131.316 262.931 129.371 263.811 L129.371 246.45 Z" fill="#000000" fill-rule="nonzero" fill-opacity="1" /><polyline clip-path="url(#clip162)" style="stroke:#009af9; stroke-linecap:round; stroke-linejoin:round; stroke-width:8; stroke-opacity:1; fill:none" points="186.274,499.629 188.443,490.136 190.611,480.548 192.78,470.863 194.949,461.081 197.117,451.2 199.286,441.22 201.455,431.139 203.623,420.958 205.792,410.673 207.961,400.286 210.129,389.793 212.298,379.196 214.466,368.491 216.635,357.679 218.804,894.991 220.972,889.476 223.141,883.905 225.31,878.278 227.478,872.594 229.647,866.854 231.816,1152.14 233.984,1149.21 236.153,1146.25 238.322,1143.27 240.49,1140.25 242.659,1137.2 244.828,1134.12 246.996,1131.01 249.165,1127.87 251.334,1124.7 253.502,1121.49 255.671,1118.26 257.839,1114.99 260.008,1111.69 262.177,1108.35 264.345,1104.98 266.514,1101.58 268.683,1098.14 270.851,1094.67 273.02,1091.16 275.189,1087.62 277.357,1084.04 279.526,1080.43 281.695,1076.78 283.863,1073.09 286.032,1069.37 288.201,1065.61 290.369,1061.81 292.538,1057.97 294.707,1054.1 296.875,1050.18 299.044,1046.23 301.212,1042.24 303.381,1038.2 305.55,1034.13 307.718,1030.01 309.887,1025.85 312.056,1021.65 314.224,1017.41 316.393,1013.13 318.562,1008.8 320.73,1004.43 322.899,1000.02 325.068,995.56 327.236,991.056 329.405,986.507 331.574,981.912 333.742,977.272 335.911,972.584 338.08,967.849 340.248,963.067 342.417,958.236 344.585,953.357 346.754,948.429 348.923,943.451 351.091,938.423 353.26,933.345 355.429,928.215 357.597,923.034 359.766,917.801 361.935,912.515 364.103,907.176 366.272,901.783 368.441,896.336 370.609,890.834 372.778,885.277 374.947,879.664 377.115,873.994 379.284,868.268 381.453,862.484 383.621,1149.93 385.79,1146.98 387.959,1144 390.127,1140.99 392.296,1137.95 394.464,1134.88 396.633,1131.78 398.802,1128.64 400.97,1125.48 403.139,1122.28 405.308,1119.05 407.476,1115.79 409.645,1112.5 411.814,1109.17 413.982,1105.81 416.151,1102.42 418.32,1098.99 420.488,1095.53 422.657,1092.03 424.826,1088.49 426.994,1084.93 429.163,1081.32 431.332,1077.68 433.5,1074 435.669,1070.29 437.837,1066.54 440.006,1062.75 442.175,1058.92 444.343,1055.05 446.512,1051.15 448.681,1047.2 450.849,1043.22 453.018,1039.19 455.187,1035.13 457.355,1031.02 459.524,1026.88 461.693,1022.69 463.861,1018.46 466.03,1014.19 468.199,1009.87 470.367,1005.51 472.536,1001.11 474.705,996.658 476.873,992.165 479.042,987.628 481.21,983.044 483.379,978.415 485.548,973.739 487.716,969.015 489.885,964.245 492.054,959.426 494.222,954.559 496.391,949.643 498.56,944.677 500.728,1191.44 502.897,1188.91 505.066,1186.35 507.234,1183.77 509.403,1181.16 511.572,1178.52 513.74,1175.86 515.909,1173.17 518.078,1170.45 520.246,1167.71 522.415,1164.93 524.583,1162.14 526.752,1159.31 528.921,1156.45 531.089,1153.57 533.258,1150.65 535.427,1147.71 537.595,1144.74 539.764,1141.73 541.933,1138.7 544.101,1135.64 546.27,1132.54 548.439,1129.42 550.607,1126.26 552.776,1123.07 554.945,1119.85 557.113,1116.6 559.282,1113.31 561.451,1109.99 563.619,1106.64 565.788,1103.25 567.956,1099.83 570.125,1096.38 572.294,1092.89 574.462,1089.36 576.631,1085.8 578.8,1082.21 580.968,1078.58 583.137,1074.91 585.306,1071.2 587.474,1067.46 589.643,1063.68 591.812,1059.86 593.98,1056 596.149,1052.11 598.318,1048.17 600.486,1044.2 602.655,1040.19 604.824,1036.13 606.992,1032.04 609.161,1027.9 611.33,1023.72 613.498,1019.5 615.667,1015.24 617.835,1010.93 620.004,1006.58 622.173,1002.19 624.341,997.754 626.51,993.272 628.679,988.746 630.847,984.174 633.016,979.555 635.185,974.891 637.353,970.179 639.522,965.42 641.691,960.614 643.859,955.758 646.028,950.854 648.197,945.901 650.365,940.898 652.534,935.844 654.703,930.74 656.871,925.584 659.04,920.376 661.208,915.116 663.377,909.803 665.546,904.437 667.714,899.016 669.883,893.542 672.052,888.012 674.22,882.426 676.389,876.784 678.558,871.086 680.726,865.33 682.895,859.516 685.064,853.644 687.232,847.712 689.401,841.721 691.57,835.67 693.738,829.558 695.907,823.384 698.076,817.149 700.244,810.85 702.413,804.488 704.581,798.062 706.75,791.572 708.919,785.016 711.087,778.394 713.256,1107.46 715.425,1104.09 717.593,1100.68 719.762,1097.23 721.931,1093.75 724.099,1090.23 726.268,1086.68 728.437,1083.09 730.605,1079.47 732.774,1075.81 734.943,1072.12 737.111,1068.38 739.28,1064.61 741.449,1060.8 743.617,1056.95 745.786,1053.07 747.954,1049.14 750.123,1045.18 752.292,1041.17 754.46,1037.13 756.629,1033.04 758.798,1028.92 760.966,1024.75 763.135,1020.54 765.304,1229.76 767.472,1227.61 769.641,1225.44 771.81,1333.24 773.978,1332.13 776.147,1331.01 778.316,1329.88 780.484,1328.74 782.653,1327.59 784.822,1326.43 786.99,1384.24 789.159,1383.64 791.328,1383.05 793.496,1382.44 795.665,1381.83 797.833,1381.21 800.002,1380.59 802.171,1379.96 804.339,1379.32 806.508,1378.68 808.677,1378.03 810.845,1377.37 813.014,1376.71 815.183,1376.04 817.351,1375.36 819.52,1374.68 821.689,1373.99 823.857,1373.3 826.026,1372.59 828.195,1371.88 830.363,1371.16 832.532,1370.44 834.701,1369.71 836.869,1368.97 839.038,1368.22 841.206,1367.47 843.375,1366.7 845.544,1365.93 847.712,1365.16 849.881,1364.37 852.05,1363.58 854.218,1362.78 856.387,1361.97 858.556,1361.15 860.724,1360.32 862.893,1359.49 865.062,1358.65 867.23,1357.8 869.399,1356.94 871.568,1356.07 873.736,1355.19 875.905,1354.31 878.074,1353.41 880.242,1352.51 882.411,1351.6 884.579,1350.67 886.748,1349.74 888.917,1348.8 891.085,1347.85 893.254,1346.89 895.423,1345.92 897.591,1344.95 899.76,1343.96 901.929,1342.96 904.097,1341.95 906.266,1340.93 908.435,1339.9 910.603,1338.86 912.772,1337.81 914.941,1336.75 917.109,1335.68 919.278,1334.6 921.447,1333.51 923.615,1332.4 925.784,1331.29 927.952,1330.16 930.121,1329.02 932.29,1327.87 934.458,1326.71 936.627,1325.54 938.796,1324.36 940.964,1323.16 943.133,1321.95 945.302,1320.73 947.47,1319.5 949.639,1318.26 951.808,1317 953.976,1315.73 956.145,1314.45 958.314,1313.15 960.482,1311.84 962.651,1310.52 964.82,1309.19 966.988,1307.84 969.157,1306.48 971.326,1305.1 973.494,1303.71 975.663,1302.31 977.831,1300.89 980,1299.46 982.169,1298.01 984.337,1296.55 986.506,1295.08 988.675,1293.59 990.843,1292.08 993.012,1290.56 995.181,1289.02 997.349,1287.47 999.518,1285.91 1001.69,1284.32 1003.86,1282.72 1006.02,1281.11 1008.19,1279.48 1010.36,1277.83 1012.53,1276.17 1014.7,1274.49 1016.87,1272.79 1019.04,1271.07 1021.2,1269.34 1023.37,1267.59 1025.54,1265.83 1027.71,1264.04 1029.88,1262.24 1032.05,1260.42 1034.22,1258.58 1036.39,1256.72 1038.55,1254.85 1040.72,1252.95 1042.89,1251.04 1045.06,1249.1 1047.23,1247.15 1049.4,1245.18 1051.57,1243.19 1053.73,1241.17 1055.9,1239.14 1058.07,1237.09 1060.24,1235.01 1062.41,1232.92 1064.58,1230.8 1066.75,1228.67 1068.91,1226.51 1071.08,1224.33 1073.25,1222.12 1075.42,1219.9 1077.59,1217.65 1079.76,1215.38 1081.93,1213.09 1084.1,1210.78 1086.26,1208.44 1088.43,1206.08 1090.6,1203.69 1092.77,1201.28 1094.94,1198.85 1097.11,1196.39 1099.28,1193.9 1101.44,1191.4 1103.61,1188.86 1105.78,1186.3 1107.95,1183.72 1110.12,1181.11 1112.29,1178.47 1114.46,1175.81 1116.63,1173.12 1118.79,1170.4 1120.96,1167.66 1123.13,1164.88 1125.3,1162.08 1127.47,1159.26 1129.64,1156.4 1131.81,1153.51 1133.97,1150.6 1136.14,1147.65 1138.31,1144.68 1140.48,1141.68 1142.65,1138.64 1144.82,1135.58 1146.99,1132.49 1149.15,1129.36 1151.32,1126.2 1153.49,1123.01 1155.66,1119.79 1157.83,1116.54 1160,1113.25 1162.17,1109.93 1164.34,1106.58 1166.5,1103.19 1168.67,1099.77 1170.84,1096.32 1173.01,1092.83 1175.18,1089.3 1177.35,1085.74 1179.52,1082.14 1181.68,1078.51 1183.85,1074.84 1186.02,1071.14 1188.19,1067.39 1190.36,1063.61 1192.53,1059.79 1194.7,1055.93 1196.87,1052.04 1199.03,1048.1 1201.2,1044.13 1203.37,1040.11 1205.54,1036.06 1207.71,1031.96 1209.88,1027.82 1212.05,1023.64 1214.21,1019.42 1216.38,1015.16 1218.55,1010.85 1220.72,1006.5 1222.89,1002.11 1225.06,997.672 1227.23,993.19 1229.39,988.663 1231.56,984.09 1233.73,979.471 1235.9,974.805 1238.07,970.093 1240.24,1204.28 1242.41,1201.87 1244.58,1199.45 1246.74,1196.99 1248.91,1194.52 1251.08,1192.01 1253.25,1189.49 1255.42,1186.93 1257.59,1184.36 1259.76,1181.75 1261.92,1179.12 1264.09,1176.46 1266.26,1173.78 1268.43,1171.07 1270.6,1168.33 1272.77,1165.57 1274.94,1162.77 1277.11,1159.95 1279.27,1157.1 1281.44,1154.22 1283.61,1151.32 1285.78,1148.38 1287.95,1145.41 1290.12,1142.42 1292.29,1139.39 1294.45,1136.34 1296.62,1133.25 1298.79,1130.13 1300.96,1126.98 1303.13,1123.8 1305.3,1120.58 1307.47,1117.34 1309.63,1114.06 1311.8,1110.75 1313.97,1107.4 1316.14,1104.03 1318.31,1100.61 1320.48,1097.17 1322.65,1093.68 1324.82,1090.17 1326.98,1086.62 1329.15,1083.03 1331.32,1079.4 1333.49,1075.74 1335.66,1072.05 1337.83,1068.31 1340,1064.54 1342.16,1060.73 1344.33,1056.88 1346.5,1053 1348.67,1049.07 1350.84,1045.11 1353.01,1041.1 1355.18,1037.06 1357.35,1032.97 1359.51,1028.84 1361.68,1024.67 1363.85,1020.46 1366.02,1016.21 1368.19,1011.91 1370.36,1007.58 1372.53,1003.19 1374.69,998.766 1376.86,994.295 1379.03,989.778 1381.2,985.216 1383.37,980.609 1385.54,975.955 1387.71,971.254 1389.88,966.506 1392.04,961.71 1394.21,956.866 1396.38,951.973 1398.55,947.03 1400.72,942.039 1402.89,936.996 1405.06,931.904 1407.22,926.76 1409.39,1182.39 1411.56,1179.77 1413.73,1177.12 1415.9,1174.44 1418.07,1171.74 1420.24,1169.01 1422.4,1166.25 1424.57,1163.46 1426.74,1160.65 1428.91,1157.8 1431.08,1154.93 1433.25,1152.03 1435.42,1149.1 1437.59,1146.14 1439.75,1143.16 1441.92,1140.14 1444.09,1137.09 1446.26,1134.01 1448.43,1130.9 1450.6,1127.76 1452.77,1124.58 1454.93,1121.38 1457.1,1118.14 1459.27,1114.87 1461.44,1111.56 1463.61,1108.23 1465.78,1104.86 1467.95,1101.45 1470.12,1098.02 1472.28,1094.54 1474.45,1091.03 1476.62,1087.49 1478.79,1083.91 1480.96,1080.3 1483.13,1076.65 1485.3,1072.96 1487.46,1256.23 1489.63,1254.35 1491.8,1252.45 1493.97,1250.53 1496.14,1248.59 1498.31,1246.63 1500.48,1244.65 1502.64,1242.66 1504.81,1240.64 1506.98,1238.6 1509.15,1236.54 1511.32,1234.46 1513.49,1232.36 1515.66,1230.24 1517.83,1228.1 1519.99,1225.93 1522.16,1223.75 1524.33,1221.54 1526.5,1219.31 1528.67,1217.06 1530.84,1214.78 1533.01,1212.48 1535.17,1210.16 1537.34,1207.82 1539.51,1205.45 1541.68,1203.06 1543.85,1200.64 1546.02,1198.2 1548.19,1195.74 1550.36,1193.25 1552.52,1190.73 1554.69,1188.19 1556.86,1185.63 1559.03,1183.03 1561.2,1180.42 1563.37,1177.77 1565.54,1175.1 1567.7,1172.41 1569.87,1169.68 1572.04,1166.93 1574.21,1164.15 1576.38,1161.34 1578.55,1158.51 1580.72,1155.64 1582.88,1152.75 1585.05,1149.83 1587.22,1146.87 1589.39,1143.89 1591.56,1140.88 1593.73,1137.84 1595.9,1134.77 1598.07,1131.66 1600.23,1128.53 1602.4,1125.36 1604.57,1122.17 1606.74,1118.94 1608.91,1115.67 1611.08,1112.38 1613.25,1109.05 1615.41,1105.69 1617.58,1102.29 1619.75,1098.86 1621.92,1095.4 1624.09,1091.9 1626.26,1088.36 1628.43,1084.79 1630.6,1081.19 1632.76,1077.55 1634.93,1073.87 1637.1,1070.15 1639.27,1066.4 1641.44,1062.61 1643.61,1058.78 1645.78,1054.91 1647.94,1051.01 1650.11,1047.06 1652.28,1043.07 1654.45,1039.05 1656.62,1034.98 1658.79,1030.88 1660.96,1026.73 1663.13,1022.54 1665.29,1018.31 1667.46,1014.03 1669.63,1009.71 1671.8,1005.35 1673.97,1000.95 1676.14,996.497 1678.31,992.003 1680.47,987.463 1682.64,982.878 1684.81,978.247 1686.98,973.569 1689.15,968.844 1691.32,964.071 1693.49,959.251 1695.65,954.382 1697.82,949.463 1699.99,944.496 1702.16,939.478 1704.33,934.41 1706.5,929.292 1708.67,924.121 1710.84,918.899 1713,913.624 1715.17,908.296 1717.34,902.914 1719.51,897.478 1721.68,891.988 1723.85,886.442 1726.02,880.84 1728.18,875.183 1730.35,869.468 1732.52,863.696 1734.69,857.865 1736.86,851.977 1739.03,846.029 1741.2,840.021 1743.37,833.953 1745.53,827.823 1747.7,821.633 1749.87,815.38 1752.04,809.064 1754.21,802.684 1756.38,796.241 1758.55,789.733 1760.71,783.159 1762.88,776.519 1765.05,769.812 1767.22,763.038 1769.39,756.196 1771.56,749.285 1773.73,742.304 1775.89,735.253 1778.06,728.131 1780.23,720.938 1782.4,713.672 1784.57,706.333 1786.74,698.92 1788.91,691.432 1791.08,683.869 1793.24,676.23 1795.41,668.514 1797.58,660.72 1799.75,652.848 1801.92,644.897 1804.09,636.865 1806.26,628.753 1808.42,620.559 1810.59,612.282 1812.76,603.922 1814.93,595.478 1817.1,586.949 1819.27,578.334 1821.44,569.632 1823.61,560.843 1825.77,551.965 1827.94,542.998 1830.11,533.941 1832.28,524.792 1834.45,515.552 1836.62,506.219 1838.79,496.792 1840.95,487.27 1843.12,477.653 1845.29,467.939 1847.46,458.127 1849.63,448.217 1851.8,438.207 1853.97,428.096 1856.13,417.884 1858.3,407.568 1860.47,397.149 1862.64,386.626 1864.81,375.996 1866.98,365.259 1869.15,354.415 1871.32,343.461 1873.48,332.397 1875.65,321.222 1877.82,309.935 1879.99,298.533 1882.16,287.018 1884.33,275.386 1886.5,263.637 1888.66,251.77 1890.83,239.784 1893,227.677 1895.17,215.448 1897.34,203.097 1899.51,190.621 1901.68,178.019 1903.85,165.291 1906.01,152.434 1908.18,139.448 1910.35,126.332 1912.52,113.084 1914.69,99.7019 1916.86,86.1857 1919.03,757.879 1921.19,750.984 1923.36,744.02 1925.53,736.985 1927.7,729.881 1929.87,722.704 1932.04,715.455 1934.21,708.134 1936.37,700.739 1938.54,693.269 1940.71,685.724 1942.88,678.104 1945.05,670.406 1947.22,662.632 1949.39,654.779 1951.56,646.847 1953.72,638.835 1955.89,630.743 1958.06,622.569 1960.23,614.313 1962.4,605.974 1964.57,597.551 1966.74,589.043 1968.9,580.45 1971.07,571.77 1973.24,563.003 1975.41,554.148 1977.58,545.204 1979.75,536.169 1981.92,527.044 1984.09,517.827 1986.25,508.517 1988.42,499.114 1990.59,489.616 1992.76,961.623 1994.93,956.778 1997.1,951.884 1999.27,946.941 2001.43,941.948 2003.6,936.905 2005.77,931.812 2007.94,926.667 2010.11,921.47 2012.28,916.221 2014.45,910.919 2016.62,905.564 2018.78,900.155 2020.95,894.692 2023.12,889.173 2025.29,1163.41 2027.46,1160.6 2029.63,1157.75 2031.8,1154.88 2033.96,1151.98 2036.13,1149.05 2038.3,1146.09 2040.47,1143.1 2042.64,1140.08 2044.81,1137.03 2046.98,1133.95 2049.14,1130.84 2051.31,1127.7 2053.48,1124.52 2055.65,1121.32 2057.82,1118.08 2059.99,1114.81 2062.16,1111.5 2064.33,1108.17 2066.49,1104.8 2068.66,1101.39 2070.83,1097.95 2073,1094.48 2075.17,1090.97 2077.34,1087.43 2079.51,1083.85 2081.67,1080.23 2083.84,1076.58 2086.01,1072.89 2088.18,1069.17 2090.35,1065.4 2092.52,1061.6 2094.69,1057.76 2096.86,1053.89 2099.02,1049.97 2101.19,1046.01 2103.36,1042.02 2105.53,1037.98 2107.7,1033.9 2109.87,1029.79 2112.04,1025.63 2114.2,1021.42 2116.37,1017.18 2118.54,1012.9 2120.71,1008.57 2122.88,1004.19 2125.05,999.776 2127.22,995.315 2129.38,990.809 2131.55,986.258 2133.72,981.661 2135.89,977.017 2138.06,972.327 2140.23,967.59 2142.4,962.805 2144.57,957.972 2146.73,953.09 2148.9,948.159 2151.07,943.179 2153.24,938.148 2155.41,933.067 2157.58,927.935 2159.75,922.751 2161.91,917.514 2164.08,912.226 2166.25,906.884 2168.42,901.488 2170.59,896.038 2172.76,890.533 2174.93,884.973 2177.1,879.356 2179.26,873.684 2181.43,867.954 2183.6,862.167 2185.77,856.321 2187.94,850.417 2190.11,844.453 2192.28,838.429 2194.44,832.345 2196.61,826.199 2198.78,819.991 2200.95,813.722 2203.12,807.389 2205.29,800.992 2207.46,794.531 2209.62,788.005 2211.79,781.413 2213.96,1108.99 2216.13,1105.63 2218.3,1102.23 2220.47,1098.8 2222.64,1095.34 2224.81,1091.84 2226.97,1088.3 2229.14,1084.73 2231.31,1081.12 2233.48,1077.48 2235.65,1073.8 2237.82,1070.08 2239.99,1066.33 2242.15,1062.54 2244.32,1058.71 2246.49,1054.84 2248.66,1050.93 2250.83,1245.11 2253,1243.11 2255.17,1241.1 2257.34,1239.07 2259.5,1237.01 2261.67,1234.94 2263.84,1232.84 2266.01,1230.73 2268.18,1228.59 2270.35,1226.43 2272.52,1333.74 2274.68,1332.63 2276.85,1331.52 2279.02,1330.4 2281.19,1329.26 2283.36,1328.12 2285.53,1326.96 2287.7,1325.79 2289.87,1324.61 2292.03,1323.41 2294.2,1322.21 2296.37,1320.99 2298.54,1319.76 2300.71,1318.52 2302.88,1317.26 2305.05,1316 2307.21,1314.72 2309.38,1313.42 2311.55,1312.12 2313.72,1310.8 2315.89,1309.47 2318.06,1308.12 2320.23,1306.76 2322.39,1305.39 2324.56,1304 2326.73,1302.6 2328.9,1301.19 2331.07,1299.76 2333.24,1298.32 2335.41,1296.86 2337.58,1295.39 2339.74,1293.9 2341.91,1292.4 2344.08,1290.88 2346.25,1289.35 2348.42,1287.8 2350.59,1286.23 2352.76,1284.66 "/>
<path clip-path="url(#clip160)" d="M258.49 196.789 L564.235 196.789 L564.235 93.1086 L258.49 93.1086  Z" fill="#ffffff" fill-rule="evenodd" fill-opacity="1"/>
<polyline clip-path="url(#clip160)" style="stroke:#000000; stroke-linecap:round; stroke-linejoin:round; stroke-width:4; stroke-opacity:1; fill:none" points="258.49,196.789 564.235,196.789 564.235,93.1086 258.49,93.1086 258.49,196.789 "/>
<polyline clip-path="url(#clip160)" style="stroke:#009af9; stroke-linecap:round; stroke-linejoin:round; stroke-width:8; stroke-opacity:1; fill:none" points="282.562,144.949 426.994,144.949 "/>
<path clip-path="url(#clip160)" d="M451.066 151.997 L451.066 136.303 L455.325 136.303 L455.325 151.835 Q455.325 155.516 456.761 157.368 Q458.196 159.196 461.066 159.196 Q464.515 159.196 466.506 156.997 Q468.52 154.798 468.52 151.002 L468.52 136.303 L472.779 136.303 L472.779 162.229 L468.52 162.229 L468.52 158.247 Q466.969 160.608 464.909 161.766 Q462.872 162.9 460.163 162.9 Q455.696 162.9 453.381 160.122 Q451.066 157.344 451.066 151.997 M461.784 135.678 L461.784 135.678 Z" fill="#000000" fill-rule="nonzero" fill-opacity="1" /><path clip-path="url(#clip160)" d="M481.159 126.21 L490.973 126.21 L490.973 129.52 L485.418 129.52 L485.418 165.168 L490.973 165.168 L490.973 168.479 L481.159 168.479 L481.159 126.21 Z" fill="#000000" fill-rule="nonzero" fill-opacity="1" /><path clip-path="url(#clip160)" d="M501.459 158.293 L509.098 158.293 L509.098 131.928 L500.788 133.595 L500.788 129.335 L509.052 127.669 L513.728 127.669 L513.728 158.293 L521.367 158.293 L521.367 162.229 L501.459 162.229 L501.459 158.293 Z" fill="#000000" fill-rule="nonzero" fill-opacity="1" /><path clip-path="url(#clip160)" d="M540.163 126.21 L540.163 168.479 L530.348 168.479 L530.348 165.168 L535.881 165.168 L535.881 129.52 L530.348 129.52 L530.348 126.21 L540.163 126.21 Z" fill="#000000" fill-rule="nonzero" fill-opacity="1" /></svg>
