<?xml version="1.0" encoding="utf-8"?>
<svg xmlns="http://www.w3.org/2000/svg" xmlns:xlink="http://www.w3.org/1999/xlink" width="600" height="400" viewBox="0 0 2400 1600">
<defs>
  <clipPath id="clip340">
    <rect x="0" y="0" width="2400" height="1600"/>
  </clipPath>
</defs>
<path clip-path="url(#clip340)" d="M0 1600 L2400 1600 L2400 0 L0 0  Z" fill="#ffffff" fill-rule="evenodd" fill-opacity="1"/>
<defs>
  <clipPath id="clip341">
    <rect x="480" y="0" width="1681" height="1600"/>
  </clipPath>
</defs>
<path clip-path="url(#clip340)" d="M147.478 1423.18 L2352.76 1423.18 L2352.76 47.2441 L147.478 47.2441  Z" fill="#ffffff" fill-rule="evenodd" fill-opacity="1"/>
<defs>
  <clipPath id="clip342">
    <rect x="147" y="47" width="2206" height="1377"/>
  </clipPath>
</defs>
<polyline clip-path="url(#clip342)" style="stroke:#000000; stroke-linecap:round; stroke-linejoin:round; stroke-width:2; stroke-opacity:0.1; fill:none" points="147.478,1423.18 147.478,47.2441 "/>
<polyline clip-path="url(#clip342)" style="stroke:#000000; stroke-linecap:round; stroke-linejoin:round; stroke-width:2; stroke-opacity:0.1; fill:none" points="588.534,1423.18 588.534,47.2441 "/>
<polyline clip-path="url(#clip342)" style="stroke:#000000; stroke-linecap:round; stroke-linejoin:round; stroke-width:2; stroke-opacity:0.1; fill:none" points="1029.59,1423.18 1029.59,47.2441 "/>
<polyline clip-path="url(#clip342)" style="stroke:#000000; stroke-linecap:round; stroke-linejoin:round; stroke-width:2; stroke-opacity:0.1; fill:none" points="1470.64,1423.18 1470.64,47.2441 "/>
<polyline clip-path="url(#clip342)" style="stroke:#000000; stroke-linecap:round; stroke-linejoin:round; stroke-width:2; stroke-opacity:0.1; fill:none" points="1911.7,1423.18 1911.7,47.2441 "/>
<polyline clip-path="url(#clip342)" style="stroke:#000000; stroke-linecap:round; stroke-linejoin:round; stroke-width:2; stroke-opacity:0.1; fill:none" points="2352.76,1423.18 2352.76,47.2441 "/>
<polyline clip-path="url(#clip340)" style="stroke:#000000; stroke-linecap:round; stroke-linejoin:round; stroke-width:4; stroke-opacity:1; fill:none" points="147.478,1423.18 2352.76,1423.18 "/>
<polyline clip-path="url(#clip340)" style="stroke:#000000; stroke-linecap:round; stroke-linejoin:round; stroke-width:4; stroke-opacity:1; fill:none" points="147.478,1423.18 147.478,1404.28 "/>
<polyline clip-path="url(#clip340)" style="stroke:#000000; stroke-linecap:round; stroke-linejoin:round; stroke-width:4; stroke-opacity:1; fill:none" points="588.534,1423.18 588.534,1404.28 "/>
<polyline clip-path="url(#clip340)" style="stroke:#000000; stroke-linecap:round; stroke-linejoin:round; stroke-width:4; stroke-opacity:1; fill:none" points="1029.59,1423.18 1029.59,1404.28 "/>
<polyline clip-path="url(#clip340)" style="stroke:#000000; stroke-linecap:round; stroke-linejoin:round; stroke-width:4; stroke-opacity:1; fill:none" points="1470.64,1423.18 1470.64,1404.28 "/>
<polyline clip-path="url(#clip340)" style="stroke:#000000; stroke-linecap:round; stroke-linejoin:round; stroke-width:4; stroke-opacity:1; fill:none" points="1911.7,1423.18 1911.7,1404.28 "/>
<polyline clip-path="url(#clip340)" style="stroke:#000000; stroke-linecap:round; stroke-linejoin:round; stroke-width:4; stroke-opacity:1; fill:none" points="2352.76,1423.18 2352.76,1404.28 "/>
<path clip-path="url(#clip340)" d="M147.478 1454.1 Q143.867 1454.1 142.038 1457.66 Q140.233 1461.2 140.233 1468.33 Q140.233 1475.44 142.038 1479.01 Q143.867 1482.55 147.478 1482.55 Q151.112 1482.55 152.918 1479.01 Q154.746 1475.44 154.746 1468.33 Q154.746 1461.2 152.918 1457.66 Q151.112 1454.1 147.478 1454.1 M147.478 1450.39 Q153.288 1450.39 156.344 1455 Q159.422 1459.58 159.422 1468.33 Q159.422 1477.06 156.344 1481.67 Q153.288 1486.25 147.478 1486.25 Q141.668 1486.25 138.589 1481.67 Q135.534 1477.06 135.534 1468.33 Q135.534 1459.58 138.589 1455 Q141.668 1450.39 147.478 1450.39 Z" fill="#000000" fill-rule="nonzero" fill-opacity="1" /><path clip-path="url(#clip340)" d="M583.186 1481.64 L599.506 1481.64 L599.506 1485.58 L577.561 1485.58 L577.561 1481.64 Q580.223 1478.89 584.807 1474.26 Q589.413 1469.61 590.594 1468.27 Q592.839 1465.74 593.719 1464.01 Q594.621 1462.25 594.621 1460.56 Q594.621 1457.8 592.677 1456.07 Q590.756 1454.33 587.654 1454.33 Q585.455 1454.33 583.001 1455.09 Q580.571 1455.86 577.793 1457.41 L577.793 1452.69 Q580.617 1451.55 583.071 1450.97 Q585.524 1450.39 587.561 1450.39 Q592.932 1450.39 596.126 1453.08 Q599.32 1455.77 599.32 1460.26 Q599.32 1462.39 598.51 1464.31 Q597.723 1466.2 595.617 1468.8 Q595.038 1469.47 591.936 1472.69 Q588.834 1475.88 583.186 1481.64 Z" fill="#000000" fill-rule="nonzero" fill-opacity="1" /><path clip-path="url(#clip340)" d="M1032.6 1455.09 L1020.79 1473.54 L1032.6 1473.54 L1032.6 1455.09 M1031.37 1451.02 L1037.25 1451.02 L1037.25 1473.54 L1042.18 1473.54 L1042.18 1477.43 L1037.25 1477.43 L1037.25 1485.58 L1032.6 1485.58 L1032.6 1477.43 L1017 1477.43 L1017 1472.92 L1031.37 1451.02 Z" fill="#000000" fill-rule="nonzero" fill-opacity="1" /><path clip-path="url(#clip340)" d="M1471.05 1466.44 Q1467.9 1466.44 1466.05 1468.59 Q1464.22 1470.74 1464.22 1474.49 Q1464.22 1478.22 1466.05 1480.39 Q1467.9 1482.55 1471.05 1482.55 Q1474.2 1482.55 1476.03 1480.39 Q1477.88 1478.22 1477.88 1474.49 Q1477.88 1470.74 1476.03 1468.59 Q1474.2 1466.44 1471.05 1466.44 M1480.33 1451.78 L1480.33 1456.04 Q1478.57 1455.21 1476.77 1454.77 Q1474.98 1454.33 1473.23 1454.33 Q1468.6 1454.33 1466.14 1457.45 Q1463.71 1460.58 1463.36 1466.9 Q1464.73 1464.89 1466.79 1463.82 Q1468.85 1462.73 1471.33 1462.73 Q1476.54 1462.73 1479.55 1465.9 Q1482.58 1469.05 1482.58 1474.49 Q1482.58 1479.82 1479.43 1483.03 Q1476.28 1486.25 1471.05 1486.25 Q1465.05 1486.25 1461.88 1481.67 Q1458.71 1477.06 1458.71 1468.33 Q1458.71 1460.14 1462.6 1455.28 Q1466.49 1450.39 1473.04 1450.39 Q1474.8 1450.39 1476.58 1450.74 Q1478.39 1451.09 1480.33 1451.78 Z" fill="#000000" fill-rule="nonzero" fill-opacity="1" /><path clip-path="url(#clip340)" d="M1911.7 1469.17 Q1908.37 1469.17 1906.45 1470.95 Q1904.55 1472.73 1904.55 1475.86 Q1904.55 1478.98 1906.45 1480.77 Q1908.37 1482.55 1911.7 1482.55 Q1915.03 1482.55 1916.95 1480.77 Q1918.88 1478.96 1918.88 1475.86 Q1918.88 1472.73 1916.95 1470.95 Q1915.06 1469.17 1911.7 1469.17 M1907.02 1467.18 Q1904.02 1466.44 1902.33 1464.38 Q1900.66 1462.32 1900.66 1459.35 Q1900.66 1455.21 1903.6 1452.8 Q1906.56 1450.39 1911.7 1450.39 Q1916.86 1450.39 1919.8 1452.8 Q1922.74 1455.21 1922.74 1459.35 Q1922.74 1462.32 1921.05 1464.38 Q1919.39 1466.44 1916.4 1467.18 Q1919.78 1467.96 1921.65 1470.26 Q1923.55 1472.55 1923.55 1475.86 Q1923.55 1480.88 1920.47 1483.57 Q1917.42 1486.25 1911.7 1486.25 Q1905.98 1486.25 1902.9 1483.57 Q1899.85 1480.88 1899.85 1475.86 Q1899.85 1472.55 1901.75 1470.26 Q1903.64 1467.96 1907.02 1467.18 M1905.31 1459.79 Q1905.31 1462.48 1906.98 1463.98 Q1908.67 1465.49 1911.7 1465.49 Q1914.71 1465.49 1916.4 1463.98 Q1918.11 1462.48 1918.11 1459.79 Q1918.11 1457.11 1916.4 1455.6 Q1914.71 1454.1 1911.7 1454.1 Q1908.67 1454.1 1906.98 1455.6 Q1905.31 1457.11 1905.31 1459.79 Z" fill="#000000" fill-rule="nonzero" fill-opacity="1" /><path clip-path="url(#clip340)" d="M2327.44 1481.64 L2335.08 1481.64 L2335.08 1455.28 L2326.77 1456.95 L2326.77 1452.69 L2335.04 1451.02 L2339.71 1451.02 L2339.71 1481.64 L2347.35 1481.64 L2347.35 1485.58 L2327.44 1485.58 L2327.44 1481.64 Z" fill="#000000" fill-rule="nonzero" fill-opacity="1" /><path clip-path="url(#clip340)" d="M2366.8 1454.1 Q2363.18 1454.1 2361.36 1457.66 Q2359.55 1461.2 2359.55 1468.33 Q2359.55 1475.44 2361.36 1479.01 Q2363.18 1482.55 2366.8 1482.55 Q2370.43 1482.55 2372.23 1479.01 Q2374.06 1475.44 2374.06 1468.33 Q2374.06 1461.2 2372.23 1457.66 Q2370.43 1454.1 2366.8 1454.1 M2366.8 1450.39 Q2372.61 1450.39 2375.66 1455 Q2378.74 1459.58 2378.74 1468.33 Q2378.74 1477.06 2375.66 1481.67 Q2372.61 1486.25 2366.8 1486.25 Q2360.99 1486.25 2357.91 1481.67 Q2354.85 1477.06 2354.85 1468.33 Q2354.85 1459.58 2357.91 1455 Q2360.99 1450.39 2366.8 1450.39 Z" fill="#000000" fill-rule="nonzero" fill-opacity="1" /><path clip-path="url(#clip340)" d="M1249.18 1522.27 L1249.18 1532.4 L1261.24 1532.4 L1261.24 1536.95 L1249.18 1536.95 L1249.18 1556.3 Q1249.18 1560.66 1250.36 1561.9 Q1251.57 1563.14 1255.23 1563.14 L1261.24 1563.14 L1261.24 1568.04 L1255.23 1568.04 Q1248.45 1568.04 1245.87 1565.53 Q1243.29 1562.98 1243.29 1556.3 L1243.29 1536.95 L1238.99 1536.95 L1238.99 1532.4 L1243.29 1532.4 L1243.29 1522.27 L1249.18 1522.27 Z" fill="#000000" fill-rule="nonzero" fill-opacity="1" /><polyline clip-path="url(#clip342)" style="stroke:#000000; stroke-linecap:round; stroke-linejoin:round; stroke-width:2; stroke-opacity:0.1; fill:none" points="147.478,1277.03 2352.76,1277.03 "/>
<polyline clip-path="url(#clip342)" style="stroke:#000000; stroke-linecap:round; stroke-linejoin:round; stroke-width:2; stroke-opacity:0.1; fill:none" points="147.478,947.212 2352.76,947.212 "/>
<polyline clip-path="url(#clip342)" style="stroke:#000000; stroke-linecap:round; stroke-linejoin:round; stroke-width:2; stroke-opacity:0.1; fill:none" points="147.478,617.393 2352.76,617.393 "/>
<polyline clip-path="url(#clip342)" style="stroke:#000000; stroke-linecap:round; stroke-linejoin:round; stroke-width:2; stroke-opacity:0.1; fill:none" points="147.478,287.575 2352.76,287.575 "/>
<polyline clip-path="url(#clip340)" style="stroke:#000000; stroke-linecap:round; stroke-linejoin:round; stroke-width:4; stroke-opacity:1; fill:none" points="147.478,1423.18 147.478,47.2441 "/>
<polyline clip-path="url(#clip340)" style="stroke:#000000; stroke-linecap:round; stroke-linejoin:round; stroke-width:4; stroke-opacity:1; fill:none" points="147.478,1277.03 166.376,1277.03 "/>
<polyline clip-path="url(#clip340)" style="stroke:#000000; stroke-linecap:round; stroke-linejoin:round; stroke-width:4; stroke-opacity:1; fill:none" points="147.478,947.212 166.376,947.212 "/>
<polyline clip-path="url(#clip340)" style="stroke:#000000; stroke-linecap:round; stroke-linejoin:round; stroke-width:4; stroke-opacity:1; fill:none" points="147.478,617.393 166.376,617.393 "/>
<polyline clip-path="url(#clip340)" style="stroke:#000000; stroke-linecap:round; stroke-linejoin:round; stroke-width:4; stroke-opacity:1; fill:none" points="147.478,287.575 166.376,287.575 "/>
<path clip-path="url(#clip340)" d="M51.3625 1277.48 L81.0383 1277.48 L81.0383 1281.42 L51.3625 1281.42 L51.3625 1277.48 Z" fill="#000000" fill-rule="nonzero" fill-opacity="1" /><path clip-path="url(#clip340)" d="M95.1586 1290.38 L111.478 1290.38 L111.478 1294.31 L89.5336 1294.31 L89.5336 1290.38 Q92.1956 1287.62 96.7789 1282.99 Q101.385 1278.34 102.566 1277 Q104.811 1274.47 105.691 1272.74 Q106.594 1270.98 106.594 1269.29 Q106.594 1266.53 104.649 1264.8 Q102.728 1263.06 99.6261 1263.06 Q97.4271 1263.06 94.9734 1263.82 Q92.5428 1264.59 89.7651 1266.14 L89.7651 1261.42 Q92.5891 1260.28 95.0428 1259.7 Q97.4965 1259.13 99.5335 1259.13 Q104.904 1259.13 108.098 1261.81 Q111.293 1264.5 111.293 1268.99 Q111.293 1271.12 110.483 1273.04 Q109.696 1274.94 107.589 1277.53 Q107.01 1278.2 103.909 1281.42 Q100.807 1284.61 95.1586 1290.38 Z" fill="#000000" fill-rule="nonzero" fill-opacity="1" /><path clip-path="url(#clip340)" d="M50.9921 947.663 L80.6679 947.663 L80.6679 951.598 L50.9921 951.598 L50.9921 947.663 Z" fill="#000000" fill-rule="nonzero" fill-opacity="1" /><path clip-path="url(#clip340)" d="M91.5706 960.557 L99.2095 960.557 L99.2095 934.191 L90.8993 935.858 L90.8993 931.598 L99.1632 929.932 L103.839 929.932 L103.839 960.557 L111.478 960.557 L111.478 964.492 L91.5706 964.492 L91.5706 960.557 Z" fill="#000000" fill-rule="nonzero" fill-opacity="1" /><path clip-path="url(#clip340)" d="M99.5335 603.192 Q95.9224 603.192 94.0937 606.757 Q92.2882 610.298 92.2882 617.428 Q92.2882 624.534 94.0937 628.099 Q95.9224 631.641 99.5335 631.641 Q103.168 631.641 104.973 628.099 Q106.802 624.534 106.802 617.428 Q106.802 610.298 104.973 606.757 Q103.168 603.192 99.5335 603.192 M99.5335 599.488 Q105.344 599.488 108.399 604.095 Q111.478 608.678 111.478 617.428 Q111.478 626.155 108.399 630.761 Q105.344 635.344 99.5335 635.344 Q93.7234 635.344 90.6447 630.761 Q87.5892 626.155 87.5892 617.428 Q87.5892 608.678 90.6447 604.095 Q93.7234 599.488 99.5335 599.488 Z" fill="#000000" fill-rule="nonzero" fill-opacity="1" /><path clip-path="url(#clip340)" d="M91.5706 300.919 L99.2095 300.919 L99.2095 274.554 L90.8993 276.22 L90.8993 271.961 L99.1632 270.295 L103.839 270.295 L103.839 300.919 L111.478 300.919 L111.478 304.855 L91.5706 304.855 L91.5706 300.919 Z" fill="#000000" fill-rule="nonzero" fill-opacity="1" /><polyline clip-path="url(#clip342)" style="stroke:#009af9; stroke-linecap:round; stroke-linejoin:round; stroke-width:8; stroke-opacity:1; fill:none" points="147.478,551.429 147.665,549.628 147.85,548.621 148.058,553.181 148.292,551.15 148.555,545.763 148.851,544.704 149.184,542.161 149.559,542.01 149.98,534.852 150.455,538.289 150.988,538.629 151.589,540.244 152.264,535.539 153.024,530.639 153.878,518.785 154.84,508.481 155.922,506.94 157.139,514.893 158.508,529.671 160.048,535.291 161.781,538.179 163.73,528.654 165.923,526.674 168.39,521.702 171.166,510.473 174.288,525.272 177.801,526.664 181.753,523.829 186.199,509.838 191.2,491.218 196.827,449.336 203.157,513.806 210.278,510.136 218.29,532.163 225.968,546.524 234.605,518.263 244.322,515.32 253.618,520.566 263.619,541.85 273.418,523.982 284.442,516.89 295.455,552.2 306.696,525.635 319.341,529.173 330.561,487.503 343.182,502.64 353.247,482.776 364.57,506.174 373.937,495.776 384.475,463.563 395.141,433.46 405.26,446.922 414.038,460.544 423.378,382.171 425.801,381.553 435.276,503.697 445.936,508.341 456.963,506.15 469.354,505.883 481.625,492.19 495.43,472.811 510.451,488.423 522.819,463.456 536.734,386.134 550.313,231.949 561.775,166.389 570.635,86.1857 579.121,249.27 586.395,298.028 593.88,303.933 601.692,331.911 608.733,363.94 616.035,332.286 624.238,236.347 632.056,182.759 639.067,210.019 645.327,216.716 651.692,255.822 657.597,154.467 663.997,171.715 669.355,230.305 674.727,237.373 680.213,337.252 685.709,247.667 691.769,105.26 696.994,180.523 701.642,172.637 706.501,193.046 711.049,250.594 715.57,234.455 716.603,235.561 721.324,414.224 726.636,461.709 731.836,429.433 737.687,320.131 742.82,371.051 748.001,381.27 753.829,393.34 760.288,316.064 767.555,355.563 773.438,370.731 780.056,359.357 787.502,388.352 794.077,393.04 801.474,376.788 809.796,405.168 816.682,408.125 824.429,444.309 832.502,398.837 841.583,343.134 851.131,357.394 858.827,382.668 866.904,369.914 875.99,357.398 884.839,306.821 894.794,330.933 902.473,262.842 911.111,260.908 918.148,251.296 926.066,365.788 933.391,374.553 935.461,346.376 937.79,457.154 940.409,468.663 943.357,464.668 946.672,474.787 950.403,502.18 954.599,507.709 959.32,506.354 964.631,521.831 970.606,516.921 977.328,488.515 984.89,480.224 992.479,475.538 1001.02,477.046 1009.79,454.047 1019.67,450.354 1029.43,430.065 1040.42,398.238 1051.6,276.884 1063.03,295.659 1072.22,335.52 1080.8,340.433 1090.12,364.484 1098.48,403.154 1106.95,376.936 1116.49,382.762 1124.96,344.32 1134.49,407.128 1141.77,429.765 1149.97,435.507 1158.88,403.317 1168.91,385.727 1178.14,405.313 1186.92,366.509 1196.8,364.828 1205.33,366.514 1214.02,279.355 1223.67,263.425 1231.63,204.055 1239.99,288.58 1246.68,215.676 1254.2,141.673 1260.87,239.196 1266.63,250.458 1273.07,278.451 1279.08,291.779 1285.41,208.769 1291.92,327.499 1297.86,362.061 1304.25,357.883 1311.07,391.065 1317.45,410.573 1324.41,355.992 1332.1,349.939 1338.97,389.995 1345.54,362.048 1352.94,423.696 1359.5,384.194 1366.88,379.32 1373.56,310.118 1380.59,261.09 1386.81,320.842 1392.5,296.062 1393.84,299.932 1399.99,435.956 1406.9,421.238 1414.2,333.204 1422.12,421.941 1428.82,382.155 1436.35,386.474 1442.96,369.164 1450.39,379.968 1457.27,280.507 1465,300.668 1471.59,382.512 1478.71,419.724 1486.03,427.486 1494.26,463.311 1501.98,463.897 1510.67,436.133 1520.44,462.166 1528.58,453.517 1537.75,454.405 1547.06,472.974 1555.69,498.383 1565,482.234 1575.46,501.896 1584.42,496.737 1594.5,499.147 1604.73,491.505 1615.81,504.32 1626.42,495.132 1638.37,501.163 1648.68,514.247 1659.95,503.181 1672.63,496.637 1684.9,514.815 1696.05,513.612 1708.59,509.959 1721.63,509.466 1723.27,512.051 1725.11,563.091 1727.19,566.415 1729.52,568.362 1732.14,578.33 1735.1,577.993 1738.42,573.089 1742.16,577.099 1746.36,583.873 1751.09,588.492 1756.41,588.934 1762.4,579.738 1769.13,575.065 1776.71,579.477 1785.23,571.45 1786.12,574.07 1787.12,595.771 1788.24,598.386 1789.51,595.971 1790.93,598.837 1792.53,598.656 1794.33,598.51 1796.36,596.421 1798.64,597.333 1801.21,596.092 1804.09,596.483 1807.34,597.998 1810.99,598.577 1815.1,601.476 1819.72,598.998 1824.92,601.994 1830.77,603.801 1837.35,600.744 1844.75,599.339 1853.08,600.687 1862.45,596.824 1873,596.95 1884.85,599.605 1898.2,599.898 1913.21,601.048 1930.09,606.306 1949.09,595.609 1970.46,594.942 1991.87,595.572 2015.95,600.479 2039.27,595.194 2065.51,586.866 2095.02,589.34 2121.92,576.07 2152.19,567.356 2180.48,574.083 2202.03,571.66 2226.29,549.485 2253.28,486.709 2258.96,428.357 2265.36,438.039 2271.3,421.552 2277.98,454.925 2284.22,476.735 2291.24,480.962 2299.13,456.555 2307.82,369.561 2315.77,286.129 2320.69,295.612 2327.95,473.508 2336.12,501.99 2342.65,517.601 2351.02,570.783 2352.76,570.822 "/>
<polyline clip-path="url(#clip342)" style="stroke:#e26f46; stroke-linecap:round; stroke-linejoin:round; stroke-width:8; stroke-opacity:1; fill:none" points="147.478,761.008 147.665,760.951 147.85,760.894 148.058,760.832 148.292,760.762 148.555,760.678 148.851,760.582 149.184,760.47 149.559,760.342 149.98,760.194 150.455,760.017 150.988,759.824 151.589,759.607 152.264,759.368 153.024,759.07 153.878,758.714 154.84,758.245 155.922,757.699 157.139,757.107 158.508,756.505 160.048,755.918 161.781,755.304 163.73,754.568 165.923,753.65 168.39,752.622 171.166,751.34 174.288,749.934 177.801,748.461 181.753,746.789 186.199,744.795 191.2,741.864 196.827,737.876 203.157,734.095 210.278,730.519 218.29,727.282 225.968,724.704 234.605,721.499 244.322,717.074 253.618,712.804 263.619,709.278 273.418,705.973 284.442,701.148 295.455,697.28 306.696,693.261 319.341,687.641 330.561,682.359 343.182,675.05 353.247,669.12 364.57,662.961 373.937,657.847 384.475,650.814 395.141,643.076 405.26,635.595 414.038,628.722 423.378,620.084 425.801,617.393 435.276,990.459 445.936,985.087 456.963,979.693 469.354,973.737 481.625,966.825 495.43,956.805 510.451,945.776 522.819,936.938 536.734,924.632 550.313,906.391 561.775,884.113 570.635,864.635 579.121,846.965 586.395,835.379 593.88,823.684 601.692,813.902 608.733,805.513 616.035,797.174 624.238,784.869 632.056,771.856 639.067,758.906 645.327,747.047 651.692,736.493 657.597,726.108 663.997,712.584 669.355,702.035 674.727,692.738 680.213,684.662 685.709,676.534 691.769,664.589 696.994,653.698 701.642,644.124 706.501,634.567 711.049,626.932 715.57,619.162 716.603,617.393 721.324,1384.24 726.636,1380.25 731.836,1376.42 737.687,1370.43 742.82,1364.77 748.001,1359.07 753.829,1352.75 760.288,1345 767.555,1335.19 773.438,1328.81 780.056,1321.45 787.502,1313.79 794.077,1307.29 801.474,1299.11 809.796,1291.01 816.682,1284.87 824.429,1277.31 832.502,1270.04 841.583,1259.85 851.131,1248.06 858.827,1239.68 866.904,1231.01 875.99,1221.1 884.839,1209.96 894.794,1196.88 902.473,1184.62 911.111,1170.98 918.148,1158.68 926.066,1147.93 933.391,1139.59 935.461,1137.18 937.79,1135.68 940.409,1133.92 943.357,1131.83 946.672,1129.62 950.403,1127.62 954.599,1125.41 959.32,1123.08 964.631,1120.54 970.606,1117.95 977.328,1114.87 984.89,1110.77 992.479,1105.97 1001.02,1100.6 1009.79,1095.18 1019.67,1087.56 1029.43,1079.77 1040.42,1070.12 1051.6,1056.1 1063.03,1035.84 1072.22,1023.6 1080.8,1012.78 1090.12,1002.14 1098.48,993.488 1106.95,984.605 1116.49,973.946 1124.96,964.434 1134.49,954.794 1141.77,948.111 1149.97,941.02 1158.88,932.276 1168.91,921.997 1178.14,911.916 1186.92,902.841 1196.8,891.495 1205.33,882.108 1214.02,869.897 1223.67,854.987 1231.63,841.742 1239.99,828.233 1246.68,817.002 1254.2,802.011 1260.87,790.525 1266.63,780.543 1273.07,770.301 1279.08,760.635 1285.41,749.565 1291.92,739.054 1297.86,731.328 1304.25,723.706 1311.07,716.319 1317.45,710.003 1324.41,702.053 1332.1,692.297 1338.97,685.09 1345.54,677.724 1352.94,669.959 1359.5,663.431 1366.88,655.743 1373.56,647.59 1380.59,636.771 1386.81,627.395 1392.5,619.262 1393.84,617.393 1399.99,988.035 1406.9,982.264 1414.2,974.973 1422.12,967.673 1428.82,961.474 1436.35,954.105 1442.96,947.106 1450.39,939.21 1457.27,930.68 1465,918.226 1471.59,909.48 1478.71,902.306 1486.03,895.553 1494.26,889.2 1501.98,883.618 1510.67,876.668 1520.44,868.72 1528.58,862.857 1537.75,855.492 1547.06,849.409 1555.69,844.462 1565,838.988 1575.46,832.929 1584.42,827.992 1594.5,822.238 1604.73,817.073 1615.81,810.788 1626.42,805.158 1638.37,799.566 1648.68,794.671 1659.95,788.961 1672.63,782.166 1684.9,776.009 1696.05,770.605 1708.59,764.364 1721.63,758.53 1723.27,757.708 1725.11,757.265 1727.19,756.78 1729.52,756.253 1732.14,755.771 1735.1,755.212 1738.42,754.578 1742.16,753.864 1746.36,753.191 1751.09,752.576 1756.41,751.902 1762.4,751.032 1769.13,749.79 1776.71,748.413 1785.23,746.879 1786.12,746.702 1787.12,746.607 1788.24,746.504 1789.51,746.384 1790.93,746.255 1792.53,746.12 1794.33,745.964 1796.36,745.785 1798.64,745.581 1801.21,745.339 1804.09,745.066 1807.34,744.761 1810.99,744.449 1815.1,744.126 1819.72,743.771 1824.92,743.395 1830.77,742.99 1837.35,742.512 1844.75,741.888 1853.08,741.232 1862.45,740.466 1873,739.362 1884.85,738.357 1898.2,737.316 1913.21,736.307 1930.09,735.23 1949.09,733.871 1970.46,731.739 1991.87,729.203 2015.95,727.151 2039.27,725.172 2065.51,722.109 2095.02,716.791 2121.92,712.347 2152.19,705.289 2180.48,699.868 2202.03,694.887 2226.29,688.981 2253.28,677.183 2258.96,672.643 2265.36,667.343 2271.3,662.217 2277.98,656.625 2284.22,652.441 2291.24,647.778 2299.13,642.61 2307.82,634.453 2315.77,624.576 2320.69,617.393 2327.95,625.133 2336.12,620.257 2342.65,617.393 2351.02,1353.32 2352.76,1352.95 "/>
<path clip-path="url(#clip340)" d="M220.987 1377.32 L530.612 1377.32 L530.612 1221.8 L220.987 1221.8  Z" fill="#ffffff" fill-rule="evenodd" fill-opacity="1"/>
<polyline clip-path="url(#clip340)" style="stroke:#000000; stroke-linecap:round; stroke-linejoin:round; stroke-width:4; stroke-opacity:1; fill:none" points="220.987,1377.32 530.612,1377.32 530.612,1221.8 220.987,1221.8 220.987,1377.32 "/>
<polyline clip-path="url(#clip340)" style="stroke:#009af9; stroke-linecap:round; stroke-linejoin:round; stroke-width:8; stroke-opacity:1; fill:none" points="245.49,1273.64 392.509,1273.64 "/>
<path clip-path="url(#clip340)" d="M417.012 1280.68 L417.012 1264.99 L421.271 1264.99 L421.271 1280.52 Q421.271 1284.2 422.706 1286.05 Q424.141 1287.88 427.012 1287.88 Q430.461 1287.88 432.452 1285.68 Q434.466 1283.48 434.466 1279.69 L434.466 1264.99 L438.725 1264.99 L438.725 1290.92 L434.466 1290.92 L434.466 1286.93 Q432.915 1289.29 430.854 1290.45 Q428.817 1291.59 426.109 1291.59 Q421.641 1291.59 419.327 1288.81 Q417.012 1286.03 417.012 1280.68 M427.729 1264.36 L427.729 1264.36 Z" fill="#000000" fill-rule="nonzero" fill-opacity="1" /><path clip-path="url(#clip340)" d="M447.104 1254.9 L456.919 1254.9 L456.919 1258.21 L451.364 1258.21 L451.364 1293.86 L456.919 1293.86 L456.919 1297.17 L447.104 1297.17 L447.104 1254.9 Z" fill="#000000" fill-rule="nonzero" fill-opacity="1" /><path clip-path="url(#clip340)" d="M467.405 1286.98 L475.044 1286.98 L475.044 1260.61 L466.734 1262.28 L466.734 1258.02 L474.998 1256.36 L479.674 1256.36 L479.674 1286.98 L487.312 1286.98 L487.312 1290.92 L467.405 1290.92 L467.405 1286.98 Z" fill="#000000" fill-rule="nonzero" fill-opacity="1" /><path clip-path="url(#clip340)" d="M506.109 1254.9 L506.109 1297.17 L496.294 1297.17 L496.294 1293.86 L501.826 1293.86 L501.826 1258.21 L496.294 1258.21 L496.294 1254.9 L506.109 1254.9 Z" fill="#000000" fill-rule="nonzero" fill-opacity="1" /><polyline clip-path="url(#clip340)" style="stroke:#e26f46; stroke-linecap:round; stroke-linejoin:round; stroke-width:8; stroke-opacity:1; fill:none" points="245.49,1325.48 392.509,1325.48 "/>
<path clip-path="url(#clip340)" d="M417.012 1332.52 L417.012 1316.83 L421.271 1316.83 L421.271 1332.36 Q421.271 1336.04 422.706 1337.89 Q424.141 1339.72 427.012 1339.72 Q430.461 1339.72 432.452 1337.52 Q434.466 1335.32 434.466 1331.53 L434.466 1316.83 L438.725 1316.83 L438.725 1342.76 L434.466 1342.76 L434.466 1338.77 Q432.915 1341.13 430.854 1342.29 Q428.817 1343.43 426.109 1343.43 Q421.641 1343.43 419.327 1340.65 Q417.012 1337.87 417.012 1332.52 M427.729 1316.2 L427.729 1316.2 Z" fill="#000000" fill-rule="nonzero" fill-opacity="1" /><path clip-path="url(#clip340)" d="M447.104 1306.74 L456.919 1306.74 L456.919 1310.05 L451.364 1310.05 L451.364 1345.7 L456.919 1345.7 L456.919 1349.01 L447.104 1349.01 L447.104 1306.74 Z" fill="#000000" fill-rule="nonzero" fill-opacity="1" /><path clip-path="url(#clip340)" d="M470.623 1338.82 L486.942 1338.82 L486.942 1342.76 L464.998 1342.76 L464.998 1338.82 Q467.66 1336.07 472.243 1331.44 Q476.85 1326.78 478.03 1325.44 Q480.275 1322.92 481.155 1321.18 Q482.058 1319.42 482.058 1317.73 Q482.058 1314.98 480.113 1313.24 Q478.192 1311.51 475.09 1311.51 Q472.891 1311.51 470.438 1312.27 Q468.007 1313.03 465.229 1314.58 L465.229 1309.86 Q468.053 1308.73 470.507 1308.15 Q472.961 1307.57 474.998 1307.57 Q480.368 1307.57 483.562 1310.26 Q486.757 1312.94 486.757 1317.43 Q486.757 1319.56 485.947 1321.48 Q485.16 1323.38 483.053 1325.97 Q482.475 1326.64 479.373 1329.86 Q476.271 1333.06 470.623 1338.82 Z" fill="#000000" fill-rule="nonzero" fill-opacity="1" /><path clip-path="url(#clip340)" d="M506.109 1306.74 L506.109 1349.01 L496.294 1349.01 L496.294 1345.7 L501.826 1345.7 L501.826 1310.05 L496.294 1310.05 L496.294 1306.74 L506.109 1306.74 Z" fill="#000000" fill-rule="nonzero" fill-opacity="1" /></svg>
