<?xml version="1.0" encoding="utf-8"?>
<svg xmlns="http://www.w3.org/2000/svg" xmlns:xlink="http://www.w3.org/1999/xlink" width="600" height="400" viewBox="0 0 2400 1600">
<defs>
  <clipPath id="clip800">
    <rect x="0" y="0" width="2400" height="1600"/>
  </clipPath>
</defs>
<path clip-path="url(#clip800)" d="M0 1600 L2400 1600 L2400 0 L0 0  Z" fill="#ffffff" fill-rule="evenodd" fill-opacity="1"/>
<defs>
  <clipPath id="clip801">
    <rect x="480" y="0" width="1681" height="1600"/>
  </clipPath>
</defs>
<path clip-path="url(#clip800)" d="M140.696 1423.18 L2352.76 1423.18 L2352.76 47.2441 L140.696 47.2441  Z" fill="#ffffff" fill-rule="evenodd" fill-opacity="1"/>
<defs>
  <clipPath id="clip802">
    <rect x="140" y="47" width="2213" height="1377"/>
  </clipPath>
</defs>
<polyline clip-path="url(#clip802)" style="stroke:#000000; stroke-linecap:round; stroke-linejoin:round; stroke-width:2; stroke-opacity:0.1; fill:none" points="140.696,1423.18 140.696,47.2441 "/>
<polyline clip-path="url(#clip802)" style="stroke:#000000; stroke-linecap:round; stroke-linejoin:round; stroke-width:2; stroke-opacity:0.1; fill:none" points="583.108,1423.18 583.108,47.2441 "/>
<polyline clip-path="url(#clip802)" style="stroke:#000000; stroke-linecap:round; stroke-linejoin:round; stroke-width:2; stroke-opacity:0.1; fill:none" points="1025.52,1423.18 1025.52,47.2441 "/>
<polyline clip-path="url(#clip802)" style="stroke:#000000; stroke-linecap:round; stroke-linejoin:round; stroke-width:2; stroke-opacity:0.1; fill:none" points="1467.93,1423.18 1467.93,47.2441 "/>
<polyline clip-path="url(#clip802)" style="stroke:#000000; stroke-linecap:round; stroke-linejoin:round; stroke-width:2; stroke-opacity:0.1; fill:none" points="1910.34,1423.18 1910.34,47.2441 "/>
<polyline clip-path="url(#clip802)" style="stroke:#000000; stroke-linecap:round; stroke-linejoin:round; stroke-width:2; stroke-opacity:0.1; fill:none" points="2352.76,1423.18 2352.76,47.2441 "/>
<polyline clip-path="url(#clip800)" style="stroke:#000000; stroke-linecap:round; stroke-linejoin:round; stroke-width:4; stroke-opacity:1; fill:none" points="140.696,1423.18 2352.76,1423.18 "/>
<polyline clip-path="url(#clip800)" style="stroke:#000000; stroke-linecap:round; stroke-linejoin:round; stroke-width:4; stroke-opacity:1; fill:none" points="140.696,1423.18 140.696,1404.28 "/>
<polyline clip-path="url(#clip800)" style="stroke:#000000; stroke-linecap:round; stroke-linejoin:round; stroke-width:4; stroke-opacity:1; fill:none" points="583.108,1423.18 583.108,1404.28 "/>
<polyline clip-path="url(#clip800)" style="stroke:#000000; stroke-linecap:round; stroke-linejoin:round; stroke-width:4; stroke-opacity:1; fill:none" points="1025.52,1423.18 1025.52,1404.28 "/>
<polyline clip-path="url(#clip800)" style="stroke:#000000; stroke-linecap:round; stroke-linejoin:round; stroke-width:4; stroke-opacity:1; fill:none" points="1467.93,1423.18 1467.93,1404.28 "/>
<polyline clip-path="url(#clip800)" style="stroke:#000000; stroke-linecap:round; stroke-linejoin:round; stroke-width:4; stroke-opacity:1; fill:none" points="1910.34,1423.18 1910.34,1404.28 "/>
<polyline clip-path="url(#clip800)" style="stroke:#000000; stroke-linecap:round; stroke-linejoin:round; stroke-width:4; stroke-opacity:1; fill:none" points="2352.76,1423.18 2352.76,1404.28 "/>
<path clip-path="url(#clip800)" d="M140.696 1454.1 Q137.084 1454.1 135.256 1457.66 Q133.45 1461.2 133.45 1468.33 Q133.45 1475.44 135.256 1479.01 Q137.084 1482.55 140.696 1482.55 Q144.33 1482.55 146.135 1479.01 Q147.964 1475.44 147.964 1468.33 Q147.964 1461.2 146.135 1457.66 Q144.33 1454.1 140.696 1454.1 M140.696 1450.39 Q146.506 1450.39 149.561 1455 Q152.64 1459.58 152.64 1468.33 Q152.64 1477.06 149.561 1481.67 Q146.506 1486.25 140.696 1486.25 Q134.885 1486.25 131.807 1481.67 Q128.751 1477.06 128.751 1468.33 Q128.751 1459.58 131.807 1455 Q134.885 1450.39 140.696 1450.39 Z" fill="#000000" fill-rule="nonzero" fill-opacity="1" /><path clip-path="url(#clip800)" d="M577.76 1481.64 L594.08 1481.64 L594.08 1485.58 L572.135 1485.58 L572.135 1481.64 Q574.797 1478.89 579.381 1474.26 Q583.987 1469.61 585.168 1468.27 Q587.413 1465.74 588.293 1464.01 Q589.196 1462.25 589.196 1460.56 Q589.196 1457.8 587.251 1456.07 Q585.33 1454.33 582.228 1454.33 Q580.029 1454.33 577.575 1455.09 Q575.145 1455.86 572.367 1457.41 L572.367 1452.69 Q575.191 1451.55 577.645 1450.97 Q580.098 1450.39 582.135 1450.39 Q587.506 1450.39 590.7 1453.08 Q593.895 1455.77 593.895 1460.26 Q593.895 1462.39 593.084 1464.31 Q592.297 1466.2 590.191 1468.8 Q589.612 1469.47 586.51 1472.69 Q583.409 1475.88 577.76 1481.64 Z" fill="#000000" fill-rule="nonzero" fill-opacity="1" /><path clip-path="url(#clip800)" d="M1028.53 1455.09 L1016.72 1473.54 L1028.53 1473.54 L1028.53 1455.09 M1027.3 1451.02 L1033.18 1451.02 L1033.18 1473.54 L1038.11 1473.54 L1038.11 1477.43 L1033.18 1477.43 L1033.18 1485.58 L1028.53 1485.58 L1028.53 1477.43 L1012.93 1477.43 L1012.93 1472.92 L1027.3 1451.02 Z" fill="#000000" fill-rule="nonzero" fill-opacity="1" /><path clip-path="url(#clip800)" d="M1468.34 1466.44 Q1465.19 1466.44 1463.34 1468.59 Q1461.51 1470.74 1461.51 1474.49 Q1461.51 1478.22 1463.34 1480.39 Q1465.19 1482.55 1468.34 1482.55 Q1471.48 1482.55 1473.31 1480.39 Q1475.17 1478.22 1475.17 1474.49 Q1475.17 1470.74 1473.31 1468.59 Q1471.48 1466.44 1468.34 1466.44 M1477.62 1451.78 L1477.62 1456.04 Q1475.86 1455.21 1474.05 1454.77 Q1472.27 1454.33 1470.51 1454.33 Q1465.88 1454.33 1463.43 1457.45 Q1461 1460.58 1460.65 1466.9 Q1462.02 1464.89 1464.08 1463.82 Q1466.14 1462.73 1468.61 1462.73 Q1473.82 1462.73 1476.83 1465.9 Q1479.86 1469.05 1479.86 1474.49 Q1479.86 1479.82 1476.72 1483.03 Q1473.57 1486.25 1468.34 1486.25 Q1462.34 1486.25 1459.17 1481.67 Q1456 1477.06 1456 1468.33 Q1456 1460.14 1459.89 1455.28 Q1463.78 1450.39 1470.33 1450.39 Q1472.09 1450.39 1473.87 1450.74 Q1475.67 1451.09 1477.62 1451.78 Z" fill="#000000" fill-rule="nonzero" fill-opacity="1" /><path clip-path="url(#clip800)" d="M1910.34 1469.17 Q1907.01 1469.17 1905.09 1470.95 Q1903.19 1472.73 1903.19 1475.86 Q1903.19 1478.98 1905.09 1480.77 Q1907.01 1482.55 1910.34 1482.55 Q1913.68 1482.55 1915.6 1480.77 Q1917.52 1478.96 1917.52 1475.86 Q1917.52 1472.73 1915.6 1470.95 Q1913.7 1469.17 1910.34 1469.17 M1905.67 1467.18 Q1902.66 1466.44 1900.97 1464.38 Q1899.3 1462.32 1899.3 1459.35 Q1899.3 1455.21 1902.24 1452.8 Q1905.2 1450.39 1910.34 1450.39 Q1915.51 1450.39 1918.45 1452.8 Q1921.39 1455.21 1921.39 1459.35 Q1921.39 1462.32 1919.7 1464.38 Q1918.03 1466.44 1915.04 1467.18 Q1918.42 1467.96 1920.3 1470.26 Q1922.2 1472.55 1922.2 1475.86 Q1922.2 1480.88 1919.12 1483.57 Q1916.06 1486.25 1910.34 1486.25 Q1904.63 1486.25 1901.55 1483.57 Q1898.49 1480.88 1898.49 1475.86 Q1898.49 1472.55 1900.39 1470.26 Q1902.29 1467.96 1905.67 1467.18 M1903.95 1459.79 Q1903.95 1462.48 1905.62 1463.98 Q1907.31 1465.49 1910.34 1465.49 Q1913.35 1465.49 1915.04 1463.98 Q1916.76 1462.48 1916.76 1459.79 Q1916.76 1457.11 1915.04 1455.6 Q1913.35 1454.1 1910.34 1454.1 Q1907.31 1454.1 1905.62 1455.6 Q1903.95 1457.11 1903.95 1459.79 Z" fill="#000000" fill-rule="nonzero" fill-opacity="1" /><path clip-path="url(#clip800)" d="M2327.44 1481.64 L2335.08 1481.64 L2335.08 1455.28 L2326.77 1456.95 L2326.77 1452.69 L2335.04 1451.02 L2339.71 1451.02 L2339.71 1481.64 L2347.35 1481.64 L2347.35 1485.58 L2327.44 1485.58 L2327.44 1481.64 Z" fill="#000000" fill-rule="nonzero" fill-opacity="1" /><path clip-path="url(#clip800)" d="M2366.8 1454.1 Q2363.18 1454.1 2361.36 1457.66 Q2359.55 1461.2 2359.55 1468.33 Q2359.55 1475.44 2361.36 1479.01 Q2363.18 1482.55 2366.8 1482.55 Q2370.43 1482.55 2372.23 1479.01 Q2374.06 1475.44 2374.06 1468.33 Q2374.06 1461.2 2372.23 1457.66 Q2370.43 1454.1 2366.8 1454.1 M2366.8 1450.39 Q2372.61 1450.39 2375.66 1455 Q2378.74 1459.58 2378.74 1468.33 Q2378.74 1477.06 2375.66 1481.67 Q2372.61 1486.25 2366.8 1486.25 Q2360.99 1486.25 2357.91 1481.67 Q2354.85 1477.06 2354.85 1468.33 Q2354.85 1459.58 2357.91 1455 Q2360.99 1450.39 2366.8 1450.39 Z" fill="#000000" fill-rule="nonzero" fill-opacity="1" /><path clip-path="url(#clip800)" d="M1245.79 1522.27 L1245.79 1532.4 L1257.85 1532.4 L1257.85 1536.95 L1245.79 1536.95 L1245.79 1556.3 Q1245.79 1560.66 1246.96 1561.9 Q1248.17 1563.14 1251.83 1563.14 L1257.85 1563.14 L1257.85 1568.04 L1251.83 1568.04 Q1245.05 1568.04 1242.48 1565.53 Q1239.9 1562.98 1239.9 1556.3 L1239.9 1536.95 L1235.6 1536.95 L1235.6 1532.4 L1239.9 1532.4 L1239.9 1522.27 L1245.79 1522.27 Z" fill="#000000" fill-rule="nonzero" fill-opacity="1" /><polyline clip-path="url(#clip802)" style="stroke:#000000; stroke-linecap:round; stroke-linejoin:round; stroke-width:2; stroke-opacity:0.1; fill:none" points="140.696,1384.24 2352.76,1384.24 "/>
<polyline clip-path="url(#clip802)" style="stroke:#000000; stroke-linecap:round; stroke-linejoin:round; stroke-width:2; stroke-opacity:0.1; fill:none" points="140.696,1075.18 2352.76,1075.18 "/>
<polyline clip-path="url(#clip802)" style="stroke:#000000; stroke-linecap:round; stroke-linejoin:round; stroke-width:2; stroke-opacity:0.1; fill:none" points="140.696,766.118 2352.76,766.118 "/>
<polyline clip-path="url(#clip802)" style="stroke:#000000; stroke-linecap:round; stroke-linejoin:round; stroke-width:2; stroke-opacity:0.1; fill:none" points="140.696,457.058 2352.76,457.058 "/>
<polyline clip-path="url(#clip802)" style="stroke:#000000; stroke-linecap:round; stroke-linejoin:round; stroke-width:2; stroke-opacity:0.1; fill:none" points="140.696,147.998 2352.76,147.998 "/>
<polyline clip-path="url(#clip800)" style="stroke:#000000; stroke-linecap:round; stroke-linejoin:round; stroke-width:4; stroke-opacity:1; fill:none" points="140.696,1423.18 140.696,47.2441 "/>
<polyline clip-path="url(#clip800)" style="stroke:#000000; stroke-linecap:round; stroke-linejoin:round; stroke-width:4; stroke-opacity:1; fill:none" points="140.696,1384.24 159.593,1384.24 "/>
<polyline clip-path="url(#clip800)" style="stroke:#000000; stroke-linecap:round; stroke-linejoin:round; stroke-width:4; stroke-opacity:1; fill:none" points="140.696,1075.18 159.593,1075.18 "/>
<polyline clip-path="url(#clip800)" style="stroke:#000000; stroke-linecap:round; stroke-linejoin:round; stroke-width:4; stroke-opacity:1; fill:none" points="140.696,766.118 159.593,766.118 "/>
<polyline clip-path="url(#clip800)" style="stroke:#000000; stroke-linecap:round; stroke-linejoin:round; stroke-width:4; stroke-opacity:1; fill:none" points="140.696,457.058 159.593,457.058 "/>
<polyline clip-path="url(#clip800)" style="stroke:#000000; stroke-linecap:round; stroke-linejoin:round; stroke-width:4; stroke-opacity:1; fill:none" points="140.696,147.998 159.593,147.998 "/>
<path clip-path="url(#clip800)" d="M92.7512 1370.04 Q89.1401 1370.04 87.3114 1373.6 Q85.5058 1377.14 85.5058 1384.27 Q85.5058 1391.38 87.3114 1394.94 Q89.1401 1398.49 92.7512 1398.49 Q96.3854 1398.49 98.1909 1394.94 Q100.02 1391.38 100.02 1384.27 Q100.02 1377.14 98.1909 1373.6 Q96.3854 1370.04 92.7512 1370.04 M92.7512 1366.33 Q98.5613 1366.33 101.617 1370.94 Q104.696 1375.52 104.696 1384.27 Q104.696 1393 101.617 1397.61 Q98.5613 1402.19 92.7512 1402.19 Q86.941 1402.19 83.8623 1397.61 Q80.8068 1393 80.8068 1384.27 Q80.8068 1375.52 83.8623 1370.94 Q86.941 1366.33 92.7512 1366.33 Z" fill="#000000" fill-rule="nonzero" fill-opacity="1" /><path clip-path="url(#clip800)" d="M83.7929 1057.9 L102.149 1057.9 L102.149 1061.83 L88.0753 1061.83 L88.0753 1070.31 Q89.0938 1069.96 90.1123 1069.8 Q91.1308 1069.61 92.1493 1069.61 Q97.9363 1069.61 101.316 1072.78 Q104.696 1075.95 104.696 1081.37 Q104.696 1086.95 101.223 1090.05 Q97.7511 1093.13 91.4317 1093.13 Q89.2558 1093.13 86.9873 1092.76 Q84.7419 1092.39 82.3346 1091.65 L82.3346 1086.95 Q84.4179 1088.08 86.6401 1088.64 Q88.8623 1089.19 91.3391 1089.19 Q95.3437 1089.19 97.6817 1087.09 Q100.02 1084.98 100.02 1081.37 Q100.02 1077.76 97.6817 1075.65 Q95.3437 1073.55 91.3391 1073.55 Q89.4641 1073.55 87.5892 1073.96 Q85.7373 1074.38 83.7929 1075.26 L83.7929 1057.9 Z" fill="#000000" fill-rule="nonzero" fill-opacity="1" /><path clip-path="url(#clip800)" d="M53.3995 779.463 L61.0384 779.463 L61.0384 753.097 L52.7282 754.764 L52.7282 750.505 L60.9921 748.838 L65.668 748.838 L65.668 779.463 L73.3068 779.463 L73.3068 783.398 L53.3995 783.398 L53.3995 779.463 Z" fill="#000000" fill-rule="nonzero" fill-opacity="1" /><path clip-path="url(#clip800)" d="M92.7512 751.917 Q89.1401 751.917 87.3114 755.481 Q85.5058 759.023 85.5058 766.153 Q85.5058 773.259 87.3114 776.824 Q89.1401 780.366 92.7512 780.366 Q96.3854 780.366 98.1909 776.824 Q100.02 773.259 100.02 766.153 Q100.02 759.023 98.1909 755.481 Q96.3854 751.917 92.7512 751.917 M92.7512 748.213 Q98.5613 748.213 101.617 752.819 Q104.696 757.403 104.696 766.153 Q104.696 774.88 101.617 779.486 Q98.5613 784.069 92.7512 784.069 Q86.941 784.069 83.8623 779.486 Q80.8068 774.88 80.8068 766.153 Q80.8068 757.403 83.8623 752.819 Q86.941 748.213 92.7512 748.213 Z" fill="#000000" fill-rule="nonzero" fill-opacity="1" /><path clip-path="url(#clip800)" d="M54.3949 470.403 L62.0337 470.403 L62.0337 444.037 L53.7236 445.704 L53.7236 441.444 L61.9874 439.778 L66.6633 439.778 L66.6633 470.403 L74.3022 470.403 L74.3022 474.338 L54.3949 474.338 L54.3949 470.403 Z" fill="#000000" fill-rule="nonzero" fill-opacity="1" /><path clip-path="url(#clip800)" d="M83.7929 439.778 L102.149 439.778 L102.149 443.713 L88.0753 443.713 L88.0753 452.185 Q89.0938 451.838 90.1123 451.676 Q91.1308 451.491 92.1493 451.491 Q97.9363 451.491 101.316 454.662 Q104.696 457.833 104.696 463.25 Q104.696 468.829 101.223 471.93 Q97.7511 475.009 91.4317 475.009 Q89.2558 475.009 86.9873 474.639 Q84.7419 474.268 82.3346 473.528 L82.3346 468.829 Q84.4179 469.963 86.6401 470.518 Q88.8623 471.074 91.3391 471.074 Q95.3437 471.074 97.6817 468.967 Q100.02 466.861 100.02 463.25 Q100.02 459.639 97.6817 457.532 Q95.3437 455.426 91.3391 455.426 Q89.4641 455.426 87.5892 455.843 Q85.7373 456.259 83.7929 457.139 L83.7929 439.778 Z" fill="#000000" fill-rule="nonzero" fill-opacity="1" /><path clip-path="url(#clip800)" d="M56.6171 161.343 L72.9365 161.343 L72.9365 165.278 L50.9921 165.278 L50.9921 161.343 Q53.6541 158.588 58.2375 153.958 Q62.8439 149.306 64.0245 147.963 Q66.2698 145.44 67.1494 143.704 Q68.0522 141.944 68.0522 140.255 Q68.0522 137.5 66.1078 135.764 Q64.1865 134.028 61.0847 134.028 Q58.8856 134.028 56.4319 134.792 Q54.0014 135.556 51.2236 137.107 L51.2236 132.384 Q54.0477 131.25 56.5014 130.671 Q58.955 130.093 60.9921 130.093 Q66.3624 130.093 69.5568 132.778 Q72.7513 135.463 72.7513 139.954 Q72.7513 142.083 71.9411 144.005 Q71.1541 145.903 69.0476 148.495 Q68.4689 149.167 65.367 152.384 Q62.2652 155.579 56.6171 161.343 Z" fill="#000000" fill-rule="nonzero" fill-opacity="1" /><path clip-path="url(#clip800)" d="M92.7512 133.796 Q89.1401 133.796 87.3114 137.361 Q85.5058 140.903 85.5058 148.032 Q85.5058 155.139 87.3114 158.704 Q89.1401 162.245 92.7512 162.245 Q96.3854 162.245 98.1909 158.704 Q100.02 155.139 100.02 148.032 Q100.02 140.903 98.1909 137.361 Q96.3854 133.796 92.7512 133.796 M92.7512 130.093 Q98.5613 130.093 101.617 134.699 Q104.696 139.282 104.696 148.032 Q104.696 156.759 101.617 161.366 Q98.5613 165.949 92.7512 165.949 Q86.941 165.949 83.8623 161.366 Q80.8068 156.759 80.8068 148.032 Q80.8068 139.282 83.8623 134.699 Q86.941 130.093 92.7512 130.093 Z" fill="#000000" fill-rule="nonzero" fill-opacity="1" /><polyline clip-path="url(#clip802)" style="stroke:#009af9; stroke-linecap:round; stroke-linejoin:round; stroke-width:8; stroke-opacity:1; fill:none" points="140.696,1384.24 141.658,1384.24 142.62,1384.24 143.582,1384.24 144.544,1384.24 145.506,1384.24 146.469,1384.24 147.431,1384.24 148.393,1384.24 149.355,1384.24 150.317,1384.24 151.28,1384.24 152.242,1384.24 153.204,1384.24 154.166,1384.24 155.128,1384.24 156.09,1384.24 157.053,1384.24 158.015,1384.24 158.977,1384.24 159.939,1384.24 160.901,1384.24 161.864,1384.24 162.826,1384.24 163.788,1322.43 164.75,1322.43 165.712,1322.43 166.675,1322.43 167.637,1322.43 168.599,1322.43 169.561,1322.43 170.523,1322.43 171.485,1322.43 172.448,1322.43 173.41,1322.43 174.372,1322.43 175.334,1322.43 176.296,1322.43 177.259,1322.43 178.221,1322.43 179.183,1322.43 180.145,1322.43 181.107,1322.43 182.069,1322.43 183.032,1322.43 183.994,1322.43 184.956,1322.43 185.918,1322.43 186.88,1322.43 187.843,1322.43 188.805,1322.43 189.767,1322.43 190.729,1322.43 191.691,1322.43 192.653,1322.43 193.616,1322.43 194.578,1322.43 195.54,1322.43 196.502,1322.43 197.464,1322.43 198.427,1322.43 199.389,1322.43 200.351,1322.43 201.313,1322.43 202.275,1322.43 203.237,1322.43 204.2,1322.43 205.162,1322.43 206.124,1322.43 207.086,1322.43 208.048,1322.43 209.011,1322.43 209.973,1322.43 210.935,1322.43 211.897,1322.43 212.859,1322.43 213.822,1322.43 214.784,1322.43 215.746,1322.43 216.708,1322.43 217.67,1322.43 218.632,1322.43 219.595,1322.43 220.557,1322.43 221.519,1322.43 222.481,1322.43 223.443,1322.43 224.406,1322.43 225.368,1322.43 226.33,1322.43 227.292,1322.43 228.254,1260.61 229.216,1260.61 230.179,1260.61 231.141,1260.61 232.103,1260.61 233.065,1260.61 234.027,1260.61 234.99,1260.61 235.952,1260.61 236.914,1260.61 237.876,1260.61 238.838,1260.61 239.8,1260.61 240.763,1260.61 241.725,1260.61 242.687,1260.61 243.649,1260.61 244.611,1260.61 245.574,1260.61 246.536,1260.61 247.498,1260.61 248.46,1260.61 249.422,1260.61 250.384,1260.61 251.347,1260.61 252.309,1198.8 253.271,1198.8 254.233,1198.8 255.195,1198.8 256.158,1198.8 257.12,1198.8 258.082,1198.8 259.044,1198.8 260.006,1198.8 260.969,1198.8 261.931,1198.8 262.893,1198.8 263.855,1198.8 264.817,1198.8 265.779,1198.8 266.742,1198.8 267.704,1198.8 268.666,1198.8 269.628,1198.8 270.59,1198.8 271.553,1198.8 272.515,1198.8 273.477,1198.8 274.439,1198.8 275.401,1198.8 276.363,1198.8 277.326,1198.8 278.288,1198.8 279.25,1198.8 280.212,1198.8 281.174,1198.8 282.137,1198.8 283.099,1198.8 284.061,1198.8 285.023,1198.8 285.985,1198.8 286.947,1198.8 287.91,1198.8 288.872,1198.8 289.834,1198.8 290.796,1198.8 291.758,1198.8 292.721,1198.8 293.683,1198.8 294.645,1198.8 295.607,1198.8 296.569,1198.8 297.531,1198.8 298.494,1198.8 299.456,1198.8 300.418,1198.8 301.38,1198.8 302.342,1198.8 303.305,1198.8 304.267,1198.8 305.229,1198.8 306.191,1198.8 307.153,1198.8 308.116,1198.8 309.078,1198.8 310.04,1198.8 311.002,1198.8 311.964,1198.8 312.926,1198.8 313.889,1198.8 314.851,1198.8 315.813,1198.8 316.775,1198.8 317.737,1198.8 318.7,1198.8 319.662,1198.8 320.624,1198.8 321.586,1198.8 322.548,1198.8 323.51,1198.8 324.473,1198.8 325.435,1198.8 326.397,1198.8 327.359,1198.8 328.321,1198.8 329.284,1198.8 330.246,1198.8 331.208,1198.8 332.17,1198.8 333.132,1198.8 334.094,1198.8 335.057,1198.8 336.019,1198.8 336.981,1198.8 337.943,1198.8 338.905,1198.8 339.868,1198.8 340.83,1136.99 341.792,1136.99 342.754,1136.99 343.716,1136.99 344.678,1136.99 345.641,1136.99 346.603,1136.99 347.565,1136.99 348.527,1136.99 349.489,1136.99 350.452,1136.99 351.414,1136.99 352.376,1136.99 353.338,1136.99 354.3,1136.99 355.263,1136.99 356.225,1136.99 357.187,1136.99 358.149,1136.99 359.111,1136.99 360.073,1136.99 361.036,1136.99 361.998,1136.99 362.96,1136.99 363.922,1136.99 364.884,1136.99 365.847,1136.99 366.809,1136.99 367.771,1136.99 368.733,1136.99 369.695,1136.99 370.657,1136.99 371.62,1136.99 372.582,1136.99 373.544,1136.99 374.506,1136.99 375.468,1136.99 376.431,1136.99 377.393,1136.99 378.355,1136.99 379.317,1136.99 380.279,1136.99 381.241,1136.99 382.204,1136.99 383.166,1136.99 384.128,1136.99 385.09,1136.99 386.052,1136.99 387.015,1136.99 387.977,1136.99 388.939,1136.99 389.901,1136.99 390.863,1136.99 391.825,1136.99 392.788,1136.99 393.75,1136.99 394.712,1136.99 395.674,1136.99 396.636,1136.99 397.599,1136.99 398.561,1136.99 399.523,1136.99 400.485,1136.99 401.447,1136.99 402.41,1136.99 403.372,1136.99 404.334,1136.99 405.296,1136.99 406.258,1136.99 407.22,1136.99 408.183,1136.99 409.145,1136.99 410.107,1136.99 411.069,1136.99 412.031,1136.99 412.994,1136.99 413.956,1136.99 414.918,1136.99 415.88,1136.99 416.842,1136.99 417.804,1136.99 418.767,1136.99 419.729,1136.99 420.691,1136.99 421.653,1136.99 422.615,1075.18 423.578,1075.18 424.54,1075.18 425.502,1075.18 426.464,1075.18 427.426,1075.18 428.388,1075.18 429.351,1075.18 430.313,1075.18 431.275,1075.18 432.237,1075.18 433.199,1075.18 434.162,1075.18 435.124,1075.18 436.086,1075.18 437.048,1075.18 438.01,1075.18 438.972,1075.18 439.935,1075.18 440.897,1075.18 441.859,1075.18 442.821,1075.18 443.783,1075.18 444.746,1075.18 445.708,1075.18 446.67,1075.18 447.632,1075.18 448.594,1075.18 449.557,1075.18 450.519,1075.18 451.481,1075.18 452.443,1075.18 453.405,1075.18 454.367,1075.18 455.33,1075.18 456.292,1075.18 457.254,1075.18 458.216,1075.18 459.178,1075.18 460.141,1075.18 461.103,1075.18 462.065,1075.18 463.027,1075.18 463.989,1075.18 464.951,1075.18 465.914,1075.18 466.876,1075.18 467.838,1075.18 468.8,1075.18 469.762,1075.18 470.725,1075.18 471.687,1075.18 472.649,1075.18 473.611,1075.18 474.573,1075.18 475.535,1075.18 476.498,1075.18 477.46,1075.18 478.422,1075.18 479.384,1075.18 480.346,1075.18 481.309,1075.18 482.271,1075.18 483.233,1075.18 484.195,1075.18 485.157,1075.18 486.119,1075.18 487.082,1075.18 488.044,1075.18 489.006,1075.18 489.968,1075.18 490.93,1075.18 491.893,1075.18 492.855,1075.18 493.817,1075.18 494.779,1075.18 495.741,1075.18 496.704,1075.18 497.666,1075.18 498.628,1075.18 499.59,1075.18 500.552,1075.18 501.514,1075.18 502.477,1075.18 503.439,1075.18 504.401,1075.18 505.363,1075.18 506.325,1075.18 507.288,1075.18 508.25,1075.18 509.212,1075.18 510.174,1075.18 511.136,1075.18 512.098,1075.18 513.061,1075.18 514.023,1075.18 514.985,1075.18 515.947,1075.18 516.909,1075.18 517.872,1075.18 518.834,1075.18 519.796,1075.18 520.758,1075.18 521.72,1075.18 522.682,1075.18 523.645,1075.18 524.607,1075.18 525.569,1075.18 526.531,1075.18 527.493,1075.18 528.456,1075.18 529.418,1075.18 530.38,1075.18 531.342,1075.18 532.304,1075.18 533.266,1075.18 534.229,1075.18 535.191,1075.18 536.153,1075.18 537.115,1075.18 538.077,1075.18 539.04,1075.18 540.002,1075.18 540.964,1075.18 541.926,1075.18 542.888,1075.18 543.851,1075.18 544.813,1075.18 545.775,1075.18 546.737,1075.18 547.699,1075.18 548.661,1075.18 549.624,1075.18 550.586,1075.18 551.548,1075.18 552.51,1075.18 553.472,1075.18 554.435,1075.18 555.397,1075.18 556.359,1075.18 557.321,1013.37 558.283,1013.37 559.245,1013.37 560.208,1013.37 561.17,1013.37 562.132,1013.37 563.094,1013.37 564.056,951.554 565.019,951.554 565.981,951.554 566.943,951.554 567.905,951.554 568.867,951.554 569.829,951.554 570.792,951.554 571.754,951.554 572.716,951.554 573.678,951.554 574.64,951.554 575.603,951.554 576.565,951.554 577.527,951.554 578.489,951.554 579.451,951.554 580.414,951.554 581.376,951.554 582.338,951.554 583.3,951.554 584.262,951.554 585.224,951.554 586.187,951.554 587.149,951.554 588.111,951.554 589.073,951.554 590.035,951.554 590.998,951.554 591.96,951.554 592.922,951.554 593.884,951.554 594.846,951.554 595.808,951.554 596.771,951.554 597.733,951.554 598.695,951.554 599.657,951.554 600.619,951.554 601.582,951.554 602.544,951.554 603.506,951.554 604.468,951.554 605.43,951.554 606.392,951.554 607.355,951.554 608.317,951.554 609.279,951.554 610.241,951.554 611.203,951.554 612.166,889.742 613.128,889.742 614.09,827.93 615.052,827.93 616.014,766.118 616.976,766.118 617.939,766.118 618.901,766.118 619.863,766.118 620.825,766.118 621.787,766.118 622.75,766.118 623.712,766.118 624.674,766.118 625.636,766.118 626.598,766.118 627.561,766.118 628.523,766.118 629.485,766.118 630.447,766.118 631.409,766.118 632.371,766.118 633.334,766.118 634.296,766.118 635.258,766.118 636.22,766.118 637.182,766.118 638.145,766.118 639.107,766.118 640.069,766.118 641.031,766.118 641.993,766.118 642.955,766.118 643.918,766.118 644.88,766.118 645.842,766.118 646.804,766.118 647.766,766.118 648.729,766.118 649.691,766.118 650.653,766.118 651.615,766.118 652.577,766.118 653.539,766.118 654.502,766.118 655.464,766.118 656.426,766.118 657.388,766.118 658.35,766.118 659.313,766.118 660.275,766.118 661.237,766.118 662.199,766.118 663.161,766.118 664.123,766.118 665.086,766.118 666.048,766.118 667.01,766.118 667.972,766.118 668.934,766.118 669.897,766.118 670.859,766.118 671.821,766.118 672.783,766.118 673.745,766.118 674.708,766.118 675.67,766.118 676.632,766.118 677.594,766.118 678.556,766.118 679.518,766.118 680.481,766.118 681.443,766.118 682.405,766.118 683.367,766.118 684.329,766.118 685.292,766.118 686.254,766.118 687.216,766.118 688.178,766.118 689.14,766.118 690.102,766.118 691.065,766.118 692.027,766.118 692.989,766.118 693.951,766.118 694.913,766.118 695.876,766.118 696.838,766.118 697.8,766.118 698.762,766.118 699.724,766.118 700.686,766.118 701.649,766.118 702.611,766.118 703.573,766.118 704.535,766.118 705.497,766.118 706.46,766.118 707.422,704.306 708.384,704.306 709.346,704.306 710.308,704.306 711.27,704.306 712.233,704.306 713.195,704.306 714.157,704.306 715.119,704.306 716.081,704.306 717.044,704.306 718.006,704.306 718.968,704.306 719.93,704.306 720.892,704.306 721.855,704.306 722.817,704.306 723.779,704.306 724.741,704.306 725.703,704.306 726.665,704.306 727.628,704.306 728.59,704.306 729.552,704.306 730.514,704.306 731.476,704.306 732.439,704.306 733.401,704.306 734.363,704.306 735.325,704.306 736.287,704.306 737.249,704.306 738.212,704.306 739.174,704.306 740.136,642.494 741.098,642.494 742.06,642.494 743.023,642.494 743.985,642.494 744.947,642.494 745.909,642.494 746.871,642.494 747.833,642.494 748.796,642.494 749.758,642.494 750.72,642.494 751.682,642.494 752.644,642.494 753.607,642.494 754.569,642.494 755.531,642.494 756.493,642.494 757.455,642.494 758.417,642.494 759.38,642.494 760.342,642.494 761.304,642.494 762.266,642.494 763.228,642.494 764.191,642.494 765.153,642.494 766.115,642.494 767.077,642.494 768.039,642.494 769.002,642.494 769.964,642.494 770.926,642.494 771.888,642.494 772.85,642.494 773.812,642.494 774.775,642.494 775.737,642.494 776.699,642.494 777.661,642.494 778.623,642.494 779.586,642.494 780.548,642.494 781.51,642.494 782.472,642.494 783.434,642.494 784.396,642.494 785.359,642.494 786.321,642.494 787.283,642.494 788.245,642.494 789.207,642.494 790.17,642.494 791.132,642.494 792.094,642.494 793.056,642.494 794.018,642.494 794.98,642.494 795.943,642.494 796.905,642.494 797.867,642.494 798.829,642.494 799.791,642.494 800.754,642.494 801.716,642.494 802.678,642.494 803.64,642.494 804.602,642.494 805.564,642.494 806.527,642.494 807.489,642.494 808.451,642.494 809.413,642.494 810.375,642.494 811.338,642.494 812.3,642.494 813.262,642.494 814.224,642.494 815.186,642.494 816.149,642.494 817.111,642.494 818.073,642.494 819.035,642.494 819.997,642.494 820.959,642.494 821.922,642.494 822.884,642.494 823.846,642.494 824.808,642.494 825.77,642.494 826.733,642.494 827.695,642.494 828.657,642.494 829.619,642.494 830.581,642.494 831.543,642.494 832.506,642.494 833.468,642.494 834.43,642.494 835.392,642.494 836.354,642.494 837.317,642.494 838.279,642.494 839.241,642.494 840.203,642.494 841.165,642.494 842.127,642.494 843.09,642.494 844.052,642.494 845.014,642.494 845.976,642.494 846.938,642.494 847.901,642.494 848.863,642.494 849.825,642.494 850.787,642.494 851.749,642.494 852.711,642.494 853.674,642.494 854.636,642.494 855.598,642.494 856.56,642.494 857.522,642.494 858.485,642.494 859.447,642.494 860.409,642.494 861.371,642.494 862.333,642.494 863.296,642.494 864.258,642.494 865.22,642.494 866.182,642.494 867.144,642.494 868.106,642.494 869.069,642.494 870.031,642.494 870.993,642.494 871.955,642.494 872.917,642.494 873.88,642.494 874.842,642.494 875.804,642.494 876.766,642.494 877.728,642.494 878.69,642.494 879.653,642.494 880.615,642.494 881.577,642.494 882.539,642.494 883.501,642.494 884.464,642.494 885.426,642.494 886.388,642.494 887.35,642.494 888.312,642.494 889.274,642.494 890.237,642.494 891.199,642.494 892.161,642.494 893.123,642.494 894.085,642.494 895.048,642.494 896.01,642.494 896.972,642.494 897.934,642.494 898.896,642.494 899.858,642.494 900.821,642.494 901.783,642.494 902.745,642.494 903.707,642.494 904.669,642.494 905.632,642.494 906.594,642.494 907.556,642.494 908.518,642.494 909.48,642.494 910.443,642.494 911.405,642.494 912.367,642.494 913.329,642.494 914.291,642.494 915.253,642.494 916.216,642.494 917.178,642.494 918.14,642.494 919.102,642.494 920.064,642.494 921.027,642.494 921.989,642.494 922.951,642.494 923.913,642.494 924.875,642.494 925.837,642.494 926.8,642.494 927.762,642.494 928.724,642.494 929.686,642.494 930.648,642.494 931.611,642.494 932.573,642.494 933.535,642.494 934.497,642.494 935.459,642.494 936.421,642.494 937.384,642.494 938.346,642.494 939.308,642.494 940.27,642.494 941.232,642.494 942.195,642.494 943.157,642.494 944.119,642.494 945.081,642.494 946.043,642.494 947.005,642.494 947.968,642.494 948.93,642.494 949.892,642.494 950.854,642.494 951.816,642.494 952.779,642.494 953.741,642.494 954.703,642.494 955.665,642.494 956.627,642.494 957.59,642.494 958.552,642.494 959.514,642.494 960.476,642.494 961.438,642.494 962.4,642.494 963.363,642.494 964.325,642.494 965.287,642.494 966.249,642.494 967.211,642.494 968.174,642.494 969.136,642.494 970.098,642.494 971.06,642.494 972.022,642.494 972.984,642.494 973.947,642.494 974.909,642.494 975.871,642.494 976.833,642.494 977.795,642.494 978.758,642.494 979.72,642.494 980.682,642.494 981.644,642.494 982.606,642.494 983.568,642.494 984.531,642.494 985.493,642.494 986.455,642.494 987.417,642.494 988.379,642.494 989.342,642.494 990.304,642.494 991.266,642.494 992.228,642.494 993.19,642.494 994.152,642.494 995.115,642.494 996.077,642.494 997.039,642.494 998.001,642.494 998.963,642.494 999.926,642.494 1000.89,642.494 1001.85,642.494 1002.81,642.494 1003.77,642.494 1004.74,642.494 1005.7,642.494 1006.66,642.494 1007.62,642.494 1008.59,642.494 1009.55,642.494 1010.51,642.494 1011.47,642.494 1012.43,642.494 1013.4,642.494 1014.36,642.494 1015.32,580.682 1016.28,580.682 1017.24,580.682 1018.21,580.682 1019.17,580.682 1020.13,580.682 1021.09,580.682 1022.06,580.682 1023.02,580.682 1023.98,580.682 1024.94,580.682 1025.9,580.682 1026.87,580.682 1027.83,580.682 1028.79,580.682 1029.75,580.682 1030.72,580.682 1031.68,580.682 1032.64,580.682 1033.6,580.682 1034.56,580.682 1035.53,580.682 1036.49,580.682 1037.45,580.682 1038.41,580.682 1039.38,580.682 1040.34,580.682 1041.3,580.682 1042.26,580.682 1043.22,580.682 1044.19,580.682 1045.15,580.682 1046.11,580.682 1047.07,580.682 1048.03,580.682 1049,580.682 1049.96,580.682 1050.92,580.682 1051.88,580.682 1052.85,580.682 1053.81,580.682 1054.77,580.682 1055.73,580.682 1056.69,580.682 1057.66,580.682 1058.62,580.682 1059.58,580.682 1060.54,580.682 1061.51,580.682 1062.47,580.682 1063.43,580.682 1064.39,580.682 1065.35,580.682 1066.32,580.682 1067.28,580.682 1068.24,580.682 1069.2,580.682 1070.17,580.682 1071.13,580.682 1072.09,580.682 1073.05,580.682 1074.01,580.682 1074.98,580.682 1075.94,580.682 1076.9,580.682 1077.86,580.682 1078.82,580.682 1079.79,580.682 1080.75,580.682 1081.71,580.682 1082.67,580.682 1083.64,580.682 1084.6,580.682 1085.56,580.682 1086.52,580.682 1087.48,580.682 1088.45,580.682 1089.41,580.682 1090.37,580.682 1091.33,580.682 1092.3,580.682 1093.26,580.682 1094.22,580.682 1095.18,580.682 1096.14,580.682 1097.11,580.682 1098.07,580.682 1099.03,580.682 1099.99,580.682 1100.95,580.682 1101.92,580.682 1102.88,580.682 1103.84,518.87 1104.8,518.87 1105.77,518.87 1106.73,518.87 1107.69,518.87 1108.65,518.87 1109.61,518.87 1110.58,518.87 1111.54,518.87 1112.5,518.87 1113.46,518.87 1114.43,518.87 1115.39,518.87 1116.35,518.87 1117.31,518.87 1118.27,518.87 1119.24,518.87 1120.2,518.87 1121.16,518.87 1122.12,518.87 1123.09,518.87 1124.05,518.87 1125.01,518.87 1125.97,518.87 1126.93,518.87 1127.9,518.87 1128.86,518.87 1129.82,518.87 1130.78,518.87 1131.74,518.87 1132.71,518.87 1133.67,518.87 1134.63,518.87 1135.59,518.87 1136.56,518.87 1137.52,518.87 1138.48,518.87 1139.44,518.87 1140.4,518.87 1141.37,518.87 1142.33,518.87 1143.29,518.87 1144.25,518.87 1145.22,518.87 1146.18,518.87 1147.14,518.87 1148.1,518.87 1149.06,518.87 1150.03,518.87 1150.99,518.87 1151.95,518.87 1152.91,518.87 1153.87,518.87 1154.84,518.87 1155.8,518.87 1156.76,518.87 1157.72,518.87 1158.69,518.87 1159.65,518.87 1160.61,518.87 1161.57,518.87 1162.53,518.87 1163.5,518.87 1164.46,518.87 1165.42,518.87 1166.38,518.87 1167.35,518.87 1168.31,518.87 1169.27,518.87 1170.23,518.87 1171.19,518.87 1172.16,518.87 1173.12,518.87 1174.08,518.87 1175.04,518.87 1176.01,518.87 1176.97,518.87 1177.93,518.87 1178.89,518.87 1179.85,518.87 1180.82,518.87 1181.78,518.87 1182.74,518.87 1183.7,518.87 1184.66,518.87 1185.63,518.87 1186.59,518.87 1187.55,518.87 1188.51,518.87 1189.48,518.87 1190.44,518.87 1191.4,518.87 1192.36,518.87 1193.32,518.87 1194.29,518.87 1195.25,518.87 1196.21,518.87 1197.17,518.87 1198.14,518.87 1199.1,518.87 1200.06,518.87 1201.02,518.87 1201.98,518.87 1202.95,518.87 1203.91,518.87 1204.87,518.87 1205.83,518.87 1206.8,518.87 1207.76,518.87 1208.72,518.87 1209.68,518.87 1210.64,518.87 1211.61,518.87 1212.57,518.87 1213.53,518.87 1214.49,518.87 1215.45,518.87 1216.42,518.87 1217.38,518.87 1218.34,518.87 1219.3,518.87 1220.27,518.87 1221.23,518.87 1222.19,518.87 1223.15,518.87 1224.11,518.87 1225.08,518.87 1226.04,518.87 1227,518.87 1227.96,518.87 1228.93,518.87 1229.89,518.87 1230.85,518.87 1231.81,518.87 1232.77,518.87 1233.74,518.87 1234.7,518.87 1235.66,518.87 1236.62,518.87 1237.58,518.87 1238.55,518.87 1239.51,518.87 1240.47,518.87 1241.43,518.87 1242.4,518.87 1243.36,518.87 1244.32,518.87 1245.28,518.87 1246.24,518.87 1247.21,518.87 1248.17,518.87 1249.13,518.87 1250.09,518.87 1251.06,518.87 1252.02,518.87 1252.98,518.87 1253.94,518.87 1254.9,518.87 1255.87,518.87 1256.83,518.87 1257.79,518.87 1258.75,518.87 1259.72,518.87 1260.68,518.87 1261.64,518.87 1262.6,518.87 1263.56,518.87 1264.53,518.87 1265.49,518.87 1266.45,518.87 1267.41,518.87 1268.37,518.87 1269.34,518.87 1270.3,518.87 1271.26,518.87 1272.22,518.87 1273.19,518.87 1274.15,518.87 1275.11,518.87 1276.07,518.87 1277.03,518.87 1278,518.87 1278.96,518.87 1279.92,518.87 1280.88,518.87 1281.85,518.87 1282.81,518.87 1283.77,518.87 1284.73,518.87 1285.69,518.87 1286.66,518.87 1287.62,518.87 1288.58,518.87 1289.54,518.87 1290.51,518.87 1291.47,518.87 1292.43,518.87 1293.39,518.87 1294.35,518.87 1295.32,518.87 1296.28,518.87 1297.24,518.87 1298.2,518.87 1299.16,518.87 1300.13,518.87 1301.09,518.87 1302.05,518.87 1303.01,518.87 1303.98,518.87 1304.94,518.87 1305.9,518.87 1306.86,518.87 1307.82,518.87 1308.79,518.87 1309.75,518.87 1310.71,518.87 1311.67,518.87 1312.64,518.87 1313.6,518.87 1314.56,518.87 1315.52,518.87 1316.48,518.87 1317.45,518.87 1318.41,518.87 1319.37,518.87 1320.33,518.87 1321.29,518.87 1322.26,518.87 1323.22,518.87 1324.18,518.87 1325.14,518.87 1326.11,518.87 1327.07,518.87 1328.03,518.87 1328.99,518.87 1329.95,518.87 1330.92,518.87 1331.88,518.87 1332.84,518.87 1333.8,518.87 1334.77,518.87 1335.73,518.87 1336.69,518.87 1337.65,518.87 1338.61,518.87 1339.58,518.87 1340.54,518.87 1341.5,518.87 1342.46,518.87 1343.43,518.87 1344.39,518.87 1345.35,518.87 1346.31,518.87 1347.27,518.87 1348.24,518.87 1349.2,518.87 1350.16,518.87 1351.12,518.87 1352.08,518.87 1353.05,518.87 1354.01,518.87 1354.97,518.87 1355.93,518.87 1356.9,518.87 1357.86,457.058 1358.82,457.058 1359.78,457.058 1360.74,457.058 1361.71,457.058 1362.67,457.058 1363.63,457.058 1364.59,457.058 1365.56,457.058 1366.52,457.058 1367.48,457.058 1368.44,457.058 1369.4,457.058 1370.37,457.058 1371.33,457.058 1372.29,457.058 1373.25,457.058 1374.22,457.058 1375.18,457.058 1376.14,457.058 1377.1,457.058 1378.06,457.058 1379.03,457.058 1379.99,457.058 1380.95,457.058 1381.91,457.058 1382.87,457.058 1383.84,457.058 1384.8,457.058 1385.76,457.058 1386.72,457.058 1387.69,457.058 1388.65,457.058 1389.61,457.058 1390.57,457.058 1391.53,457.058 1392.5,457.058 1393.46,457.058 1394.42,457.058 1395.38,457.058 1396.35,457.058 1397.31,457.058 1398.27,457.058 1399.23,457.058 1400.19,457.058 1401.16,457.058 1402.12,457.058 1403.08,457.058 1404.04,457.058 1405,457.058 1405.97,457.058 1406.93,457.058 1407.89,457.058 1408.85,457.058 1409.82,457.058 1410.78,457.058 1411.74,457.058 1412.7,457.058 1413.66,395.246 1414.63,395.246 1415.59,395.246 1416.55,395.246 1417.51,395.246 1418.48,395.246 1419.44,395.246 1420.4,395.246 1421.36,395.246 1422.32,395.246 1423.29,395.246 1424.25,395.246 1425.21,395.246 1426.17,395.246 1427.14,395.246 1428.1,395.246 1429.06,395.246 1430.02,395.246 1430.98,395.246 1431.95,395.246 1432.91,395.246 1433.87,395.246 1434.83,395.246 1435.79,395.246 1436.76,395.246 1437.72,395.246 1438.68,395.246 1439.64,395.246 1440.61,395.246 1441.57,395.246 1442.53,395.246 1443.49,395.246 1444.45,395.246 1445.42,395.246 1446.38,395.246 1447.34,395.246 1448.3,395.246 1449.27,395.246 1450.23,395.246 1451.19,395.246 1452.15,395.246 1453.11,395.246 1454.08,395.246 1455.04,395.246 1456,395.246 1456.96,395.246 1457.93,395.246 1458.89,395.246 1459.85,395.246 1460.81,395.246 1461.77,395.246 1462.74,395.246 1463.7,395.246 1464.66,395.246 1465.62,395.246 1466.58,395.246 1467.55,395.246 1468.51,395.246 1469.47,395.246 1470.43,395.246 1471.4,395.246 1472.36,395.246 1473.32,395.246 1474.28,395.246 1475.24,395.246 1476.21,395.246 1477.17,395.246 1478.13,395.246 1479.09,395.246 1480.06,395.246 1481.02,395.246 1481.98,395.246 1482.94,395.246 1483.9,395.246 1484.87,395.246 1485.83,395.246 1486.79,395.246 1487.75,395.246 1488.71,395.246 1489.68,395.246 1490.64,395.246 1491.6,395.246 1492.56,395.246 1493.53,395.246 1494.49,395.246 1495.45,395.246 1496.41,395.246 1497.37,395.246 1498.34,395.246 1499.3,395.246 1500.26,395.246 1501.22,395.246 1502.19,395.246 1503.15,395.246 1504.11,395.246 1505.07,395.246 1506.03,395.246 1507,395.246 1507.96,395.246 1508.92,395.246 1509.88,395.246 1510.85,395.246 1511.81,395.246 1512.77,395.246 1513.73,395.246 1514.69,395.246 1515.66,395.246 1516.62,395.246 1517.58,395.246 1518.54,395.246 1519.5,395.246 1520.47,395.246 1521.43,395.246 1522.39,395.246 1523.35,395.246 1524.32,395.246 1525.28,395.246 1526.24,395.246 1527.2,395.246 1528.16,395.246 1529.13,395.246 1530.09,395.246 1531.05,395.246 1532.01,395.246 1532.98,395.246 1533.94,395.246 1534.9,395.246 1535.86,395.246 1536.82,395.246 1537.79,395.246 1538.75,395.246 1539.71,395.246 1540.67,395.246 1541.64,395.246 1542.6,395.246 1543.56,395.246 1544.52,395.246 1545.48,395.246 1546.45,395.246 1547.41,395.246 1548.37,395.246 1549.33,395.246 1550.29,395.246 1551.26,395.246 1552.22,395.246 1553.18,395.246 1554.14,395.246 1555.11,395.246 1556.07,395.246 1557.03,395.246 1557.99,395.246 1558.95,395.246 1559.92,395.246 1560.88,395.246 1561.84,395.246 1562.8,395.246 1563.77,395.246 1564.73,395.246 1565.69,395.246 1566.65,395.246 1567.61,395.246 1568.58,395.246 1569.54,395.246 1570.5,395.246 1571.46,395.246 1572.42,395.246 1573.39,395.246 1574.35,395.246 1575.31,395.246 1576.27,395.246 1577.24,395.246 1578.2,395.246 1579.16,395.246 1580.12,395.246 1581.08,395.246 1582.05,395.246 1583.01,395.246 1583.97,395.246 1584.93,395.246 1585.9,395.246 1586.86,395.246 1587.82,395.246 1588.78,395.246 1589.74,395.246 1590.71,395.246 1591.67,395.246 1592.63,395.246 1593.59,395.246 1594.56,395.246 1595.52,395.246 1596.48,395.246 1597.44,395.246 1598.4,395.246 1599.37,395.246 1600.33,395.246 1601.29,395.246 1602.25,395.246 1603.21,395.246 1604.18,395.246 1605.14,395.246 1606.1,395.246 1607.06,395.246 1608.03,395.246 1608.99,395.246 1609.95,395.246 1610.91,395.246 1611.87,395.246 1612.84,395.246 1613.8,395.246 1614.76,395.246 1615.72,395.246 1616.69,395.246 1617.65,395.246 1618.61,395.246 1619.57,395.246 1620.53,395.246 1621.5,395.246 1622.46,395.246 1623.42,395.246 1624.38,395.246 1625.35,395.246 1626.31,395.246 1627.27,395.246 1628.23,395.246 1629.19,395.246 1630.16,395.246 1631.12,395.246 1632.08,395.246 1633.04,395.246 1634,395.246 1634.97,395.246 1635.93,395.246 1636.89,395.246 1637.85,395.246 1638.82,395.246 1639.78,395.246 1640.74,395.246 1641.7,395.246 1642.66,395.246 1643.63,395.246 1644.59,395.246 1645.55,395.246 1646.51,395.246 1647.48,395.246 1648.44,395.246 1649.4,395.246 1650.36,333.434 1651.32,333.434 1652.29,333.434 1653.25,333.434 1654.21,333.434 1655.17,333.434 1656.13,333.434 1657.1,333.434 1658.06,333.434 1659.02,333.434 1659.98,333.434 1660.95,333.434 1661.91,333.434 1662.87,333.434 1663.83,333.434 1664.79,333.434 1665.76,333.434 1666.72,333.434 1667.68,333.434 1668.64,333.434 1669.61,333.434 1670.57,333.434 1671.53,333.434 1672.49,333.434 1673.45,333.434 1674.42,333.434 1675.38,333.434 1676.34,333.434 1677.3,333.434 1678.27,333.434 1679.23,333.434 1680.19,333.434 1681.15,333.434 1682.11,333.434 1683.08,333.434 1684.04,333.434 1685,333.434 1685.96,333.434 1686.92,333.434 1687.89,333.434 1688.85,333.434 1689.81,333.434 1690.77,333.434 1691.74,333.434 1692.7,333.434 1693.66,333.434 1694.62,333.434 1695.58,333.434 1696.55,333.434 1697.51,333.434 1698.47,333.434 1699.43,333.434 1700.4,333.434 1701.36,333.434 1702.32,333.434 1703.28,333.434 1704.24,333.434 1705.21,333.434 1706.17,333.434 1707.13,333.434 1708.09,333.434 1709.05,333.434 1710.02,333.434 1710.98,333.434 1711.94,333.434 1712.9,333.434 1713.87,333.434 1714.83,333.434 1715.79,333.434 1716.75,333.434 1717.71,333.434 1718.68,333.434 1719.64,333.434 1720.6,333.434 1721.56,333.434 1722.53,333.434 1723.49,333.434 1724.45,271.622 1725.41,271.622 1726.37,271.622 1727.34,271.622 1728.3,271.622 1729.26,271.622 1730.22,271.622 1731.19,209.81 1732.15,209.81 1733.11,209.81 1734.07,209.81 1735.03,209.81 1736,209.81 1736.96,209.81 1737.92,209.81 1738.88,209.81 1739.84,209.81 1740.81,209.81 1741.77,209.81 1742.73,209.81 1743.69,209.81 1744.66,209.81 1745.62,209.81 1746.58,209.81 1747.54,209.81 1748.5,209.81 1749.47,209.81 1750.43,209.81 1751.39,209.81 1752.35,209.81 1753.32,209.81 1754.28,209.81 1755.24,209.81 1756.2,209.81 1757.16,209.81 1758.13,209.81 1759.09,209.81 1760.05,209.81 1761.01,209.81 1761.98,209.81 1762.94,209.81 1763.9,209.81 1764.86,209.81 1765.82,209.81 1766.79,209.81 1767.75,209.81 1768.71,209.81 1769.67,209.81 1770.63,209.81 1771.6,209.81 1772.56,209.81 1773.52,209.81 1774.48,209.81 1775.45,209.81 1776.41,209.81 1777.37,209.81 1778.33,209.81 1779.29,209.81 1780.26,209.81 1781.22,209.81 1782.18,209.81 1783.14,209.81 1784.11,209.81 1785.07,209.81 1786.03,209.81 1786.99,209.81 1787.95,209.81 1788.92,209.81 1789.88,209.81 1790.84,209.81 1791.8,209.81 1792.76,209.81 1793.73,209.81 1794.69,209.81 1795.65,209.81 1796.61,209.81 1797.58,209.81 1798.54,209.81 1799.5,209.81 1800.46,209.81 1801.42,209.81 1802.39,209.81 1803.35,209.81 1804.31,209.81 1805.27,209.81 1806.24,209.81 1807.2,209.81 1808.16,209.81 1809.12,209.81 1810.08,209.81 1811.05,209.81 1812.01,209.81 1812.97,209.81 1813.93,209.81 1814.9,209.81 1815.86,209.81 1816.82,209.81 1817.78,209.81 1818.74,209.81 1819.71,209.81 1820.67,209.81 1821.63,209.81 1822.59,209.81 1823.55,209.81 1824.52,209.81 1825.48,209.81 1826.44,209.81 1827.4,209.81 1828.37,209.81 1829.33,209.81 1830.29,209.81 1831.25,209.81 1832.21,209.81 1833.18,209.81 1834.14,209.81 1835.1,209.81 1836.06,209.81 1837.03,209.81 1837.99,209.81 1838.95,209.81 1839.91,209.81 1840.87,209.81 1841.84,209.81 1842.8,209.81 1843.76,209.81 1844.72,209.81 1845.69,209.81 1846.65,209.81 1847.61,209.81 1848.57,209.81 1849.53,209.81 1850.5,209.81 1851.46,209.81 1852.42,209.81 1853.38,209.81 1854.34,209.81 1855.31,209.81 1856.27,209.81 1857.23,209.81 1858.19,209.81 1859.16,209.81 1860.12,209.81 1861.08,209.81 1862.04,209.81 1863,209.81 1863.97,209.81 1864.93,209.81 1865.89,209.81 1866.85,209.81 1867.82,209.81 1868.78,209.81 1869.74,209.81 1870.7,209.81 1871.66,209.81 1872.63,209.81 1873.59,209.81 1874.55,209.81 1875.51,209.81 1876.47,209.81 1877.44,209.81 1878.4,209.81 1879.36,209.81 1880.32,209.81 1881.29,209.81 1882.25,209.81 1883.21,209.81 1884.17,209.81 1885.13,209.81 1886.1,209.81 1887.06,209.81 1888.02,209.81 1888.98,209.81 1889.95,209.81 1890.91,209.81 1891.87,209.81 1892.83,209.81 1893.79,209.81 1894.76,209.81 1895.72,209.81 1896.68,209.81 1897.64,209.81 1898.61,209.81 1899.57,209.81 1900.53,209.81 1901.49,209.81 1902.45,209.81 1903.42,209.81 1904.38,209.81 1905.34,209.81 1906.3,209.81 1907.26,209.81 1908.23,209.81 1909.19,209.81 1910.15,209.81 1911.11,209.81 1912.08,209.81 1913.04,209.81 1914,209.81 1914.96,209.81 1915.92,209.81 1916.89,209.81 1917.85,209.81 1918.81,209.81 1919.77,209.81 1920.74,209.81 1921.7,209.81 1922.66,209.81 1923.62,209.81 1924.58,209.81 1925.55,209.81 1926.51,209.81 1927.47,209.81 1928.43,209.81 1929.4,209.81 1930.36,209.81 1931.32,209.81 1932.28,209.81 1933.24,209.81 1934.21,209.81 1935.17,209.81 1936.13,209.81 1937.09,209.81 1938.05,209.81 1939.02,209.81 1939.98,209.81 1940.94,209.81 1941.9,209.81 1942.87,209.81 1943.83,209.81 1944.79,209.81 1945.75,209.81 1946.71,209.81 1947.68,209.81 1948.64,209.81 1949.6,209.81 1950.56,209.81 1951.53,209.81 1952.49,209.81 1953.45,209.81 1954.41,209.81 1955.37,209.81 1956.34,209.81 1957.3,209.81 1958.26,209.81 1959.22,209.81 1960.18,209.81 1961.15,209.81 1962.11,209.81 1963.07,209.81 1964.03,209.81 1965,209.81 1965.96,209.81 1966.92,209.81 1967.88,209.81 1968.84,209.81 1969.81,209.81 1970.77,209.81 1971.73,209.81 1972.69,209.81 1973.66,209.81 1974.62,209.81 1975.58,209.81 1976.54,209.81 1977.5,209.81 1978.47,209.81 1979.43,209.81 1980.39,209.81 1981.35,209.81 1982.32,209.81 1983.28,209.81 1984.24,209.81 1985.2,209.81 1986.16,209.81 1987.13,209.81 1988.09,209.81 1989.05,209.81 1990.01,209.81 1990.97,209.81 1991.94,209.81 1992.9,209.81 1993.86,209.81 1994.82,209.81 1995.79,209.81 1996.75,209.81 1997.71,209.81 1998.67,209.81 1999.63,209.81 2000.6,209.81 2001.56,209.81 2002.52,209.81 2003.48,209.81 2004.45,209.81 2005.41,209.81 2006.37,209.81 2007.33,209.81 2008.29,209.81 2009.26,209.81 2010.22,209.81 2011.18,209.81 2012.14,209.81 2013.11,209.81 2014.07,209.81 2015.03,209.81 2015.99,209.81 2016.95,209.81 2017.92,209.81 2018.88,209.81 2019.84,209.81 2020.8,209.81 2021.76,209.81 2022.73,209.81 2023.69,209.81 2024.65,209.81 2025.61,209.81 2026.58,209.81 2027.54,209.81 2028.5,209.81 2029.46,209.81 2030.42,209.81 2031.39,209.81 2032.35,209.81 2033.31,209.81 2034.27,209.81 2035.24,209.81 2036.2,209.81 2037.16,209.81 2038.12,209.81 2039.08,209.81 2040.05,209.81 2041.01,209.81 2041.97,209.81 2042.93,209.81 2043.89,209.81 2044.86,209.81 2045.82,209.81 2046.78,209.81 2047.74,209.81 2048.71,209.81 2049.67,209.81 2050.63,209.81 2051.59,209.81 2052.55,209.81 2053.52,209.81 2054.48,209.81 2055.44,209.81 2056.4,209.81 2057.37,209.81 2058.33,209.81 2059.29,209.81 2060.25,209.81 2061.21,209.81 2062.18,209.81 2063.14,209.81 2064.1,209.81 2065.06,209.81 2066.03,209.81 2066.99,209.81 2067.95,209.81 2068.91,209.81 2069.87,209.81 2070.84,209.81 2071.8,209.81 2072.76,209.81 2073.72,209.81 2074.68,209.81 2075.65,209.81 2076.61,209.81 2077.57,209.81 2078.53,209.81 2079.5,209.81 2080.46,209.81 2081.42,209.81 2082.38,209.81 2083.34,209.81 2084.31,209.81 2085.27,209.81 2086.23,209.81 2087.19,209.81 2088.16,209.81 2089.12,209.81 2090.08,209.81 2091.04,209.81 2092,209.81 2092.97,209.81 2093.93,209.81 2094.89,209.81 2095.85,209.81 2096.82,209.81 2097.78,209.81 2098.74,209.81 2099.7,209.81 2100.66,209.81 2101.63,209.81 2102.59,209.81 2103.55,209.81 2104.51,209.81 2105.47,209.81 2106.44,209.81 2107.4,209.81 2108.36,147.998 2109.32,147.998 2110.29,147.998 2111.25,147.998 2112.21,147.998 2113.17,147.998 2114.13,147.998 2115.1,147.998 2116.06,147.998 2117.02,147.998 2117.98,147.998 2118.95,147.998 2119.91,147.998 2120.87,147.998 2121.83,147.998 2122.79,147.998 2123.76,147.998 2124.72,147.998 2125.68,147.998 2126.64,147.998 2127.6,147.998 2128.57,147.998 2129.53,147.998 2130.49,147.998 2131.45,147.998 2132.42,147.998 2133.38,147.998 2134.34,147.998 2135.3,147.998 2136.26,147.998 2137.23,147.998 2138.19,147.998 2139.15,147.998 2140.11,147.998 2141.08,147.998 2142.04,147.998 2143,147.998 2143.96,147.998 2144.92,147.998 2145.89,147.998 2146.85,147.998 2147.81,147.998 2148.77,147.998 2149.74,147.998 2150.7,147.998 2151.66,147.998 2152.62,147.998 2153.58,147.998 2154.55,147.998 2155.51,147.998 2156.47,147.998 2157.43,147.998 2158.39,147.998 2159.36,147.998 2160.32,147.998 2161.28,147.998 2162.24,147.998 2163.21,147.998 2164.17,147.998 2165.13,147.998 2166.09,147.998 2167.05,147.998 2168.02,147.998 2168.98,147.998 2169.94,147.998 2170.9,147.998 2171.87,147.998 2172.83,147.998 2173.79,147.998 2174.75,147.998 2175.71,147.998 2176.68,147.998 2177.64,147.998 2178.6,147.998 2179.56,147.998 2180.53,147.998 2181.49,147.998 2182.45,147.998 2183.41,147.998 2184.37,147.998 2185.34,147.998 2186.3,147.998 2187.26,147.998 2188.22,147.998 2189.18,147.998 2190.15,147.998 2191.11,147.998 2192.07,147.998 2193.03,147.998 2194,147.998 2194.96,147.998 2195.92,147.998 2196.88,147.998 2197.84,147.998 2198.81,147.998 2199.77,147.998 2200.73,147.998 2201.69,147.998 2202.66,147.998 2203.62,147.998 2204.58,147.998 2205.54,147.998 2206.5,147.998 2207.47,147.998 2208.43,147.998 2209.39,147.998 2210.35,147.998 2211.31,147.998 2212.28,147.998 2213.24,147.998 2214.2,147.998 2215.16,147.998 2216.13,147.998 2217.09,147.998 2218.05,147.998 2219.01,147.998 2219.97,147.998 2220.94,147.998 2221.9,147.998 2222.86,147.998 2223.82,147.998 2224.79,147.998 2225.75,147.998 2226.71,147.998 2227.67,147.998 2228.63,147.998 2229.6,147.998 2230.56,147.998 2231.52,147.998 2232.48,147.998 2233.45,147.998 2234.41,147.998 2235.37,147.998 2236.33,147.998 2237.29,147.998 2238.26,147.998 2239.22,147.998 2240.18,147.998 2241.14,147.998 2242.1,147.998 2243.07,147.998 2244.03,147.998 2244.99,147.998 2245.95,147.998 2246.92,147.998 2247.88,147.998 2248.84,147.998 2249.8,147.998 2250.76,147.998 2251.73,147.998 2252.69,147.998 2253.65,147.998 2254.61,147.998 2255.58,147.998 2256.54,147.998 2257.5,147.998 2258.46,147.998 2259.42,147.998 2260.39,147.998 2261.35,147.998 2262.31,147.998 2263.27,147.998 2264.24,147.998 2265.2,147.998 2266.16,147.998 2267.12,147.998 2268.08,147.998 2269.05,147.998 2270.01,147.998 2270.97,147.998 2271.93,147.998 2272.89,147.998 2273.86,147.998 2274.82,147.998 2275.78,147.998 2276.74,147.998 2277.71,147.998 2278.67,147.998 2279.63,147.998 2280.59,147.998 2281.55,147.998 2282.52,147.998 2283.48,147.998 2284.44,147.998 2285.4,147.998 2286.37,147.998 2287.33,147.998 2288.29,147.998 2289.25,147.998 2290.21,147.998 2291.18,147.998 2292.14,147.998 2293.1,147.998 2294.06,147.998 2295.02,147.998 2295.99,147.998 2296.95,147.998 2297.91,147.998 2298.87,147.998 2299.84,147.998 2300.8,147.998 2301.76,147.998 2302.72,147.998 2303.68,147.998 2304.65,147.998 2305.61,147.998 2306.57,147.998 2307.53,147.998 2308.5,147.998 2309.46,147.998 2310.42,147.998 2311.38,147.998 2312.34,147.998 2313.31,147.998 2314.27,147.998 2315.23,147.998 2316.19,147.998 2317.16,147.998 2318.12,147.998 2319.08,147.998 2320.04,147.998 2321,147.998 2321.97,147.998 2322.93,147.998 2323.89,147.998 2324.85,147.998 2325.81,147.998 2326.78,147.998 2327.74,147.998 2328.7,147.998 2329.66,147.998 2330.63,147.998 2331.59,147.998 2332.55,147.998 2333.51,147.998 2334.47,147.998 2335.44,147.998 2336.4,147.998 2337.36,147.998 2338.32,147.998 2339.29,147.998 2340.25,147.998 2341.21,147.998 2342.17,147.998 2343.13,147.998 2344.1,147.998 2345.06,147.998 2346.02,147.998 2346.98,147.998 2347.94,147.998 2348.91,147.998 2349.87,86.1857 2350.83,86.1857 2351.79,86.1857 2352.76,86.1857 "/>
<path clip-path="url(#clip800)" d="M1975.5 1377.32 L2279.02 1377.32 L2279.02 1273.64 L1975.5 1273.64  Z" fill="#ffffff" fill-rule="evenodd" fill-opacity="1"/>
<polyline clip-path="url(#clip800)" style="stroke:#000000; stroke-linecap:round; stroke-linejoin:round; stroke-width:4; stroke-opacity:1; fill:none" points="1975.5,1377.32 2279.02,1377.32 2279.02,1273.64 1975.5,1273.64 1975.5,1377.32 "/>
<polyline clip-path="url(#clip800)" style="stroke:#009af9; stroke-linecap:round; stroke-linejoin:round; stroke-width:8; stroke-opacity:1; fill:none" points="2000.08,1325.48 2147.55,1325.48 "/>
<path clip-path="url(#clip800)" d="M2172.13 1308.2 L2178.42 1308.2 L2193.75 1337.11 L2193.75 1308.2 L2198.29 1308.2 L2198.29 1342.76 L2191.99 1342.76 L2176.66 1313.84 L2176.66 1342.76 L2172.13 1342.76 L2172.13 1308.2 Z" fill="#000000" fill-rule="nonzero" fill-opacity="1" /><path clip-path="url(#clip800)" d="M2217.64 1306.78 Q2214.53 1312.11 2213.03 1317.32 Q2211.53 1322.52 2211.53 1327.87 Q2211.53 1333.22 2213.03 1338.47 Q2214.56 1343.7 2217.64 1349.01 L2213.93 1349.01 Q2210.46 1343.57 2208.72 1338.31 Q2207.01 1333.06 2207.01 1327.87 Q2207.01 1322.71 2208.72 1317.48 Q2210.44 1312.25 2213.93 1306.78 L2217.64 1306.78 Z" fill="#000000" fill-rule="nonzero" fill-opacity="1" /><path clip-path="url(#clip800)" d="M2230.11 1309.47 L2230.11 1316.83 L2238.89 1316.83 L2238.89 1320.14 L2230.11 1320.14 L2230.11 1334.21 Q2230.11 1337.38 2230.97 1338.29 Q2231.85 1339.19 2234.51 1339.19 L2238.89 1339.19 L2238.89 1342.76 L2234.51 1342.76 Q2229.58 1342.76 2227.71 1340.93 Q2225.83 1339.07 2225.83 1334.21 L2225.83 1320.14 L2222.71 1320.14 L2222.71 1316.83 L2225.83 1316.83 L2225.83 1309.47 L2230.11 1309.47 Z" fill="#000000" fill-rule="nonzero" fill-opacity="1" /><path clip-path="url(#clip800)" d="M2243.82 1306.78 L2247.52 1306.78 Q2250.99 1312.25 2252.71 1317.48 Q2254.44 1322.71 2254.44 1327.87 Q2254.44 1333.06 2252.71 1338.31 Q2250.99 1343.57 2247.52 1349.01 L2243.82 1349.01 Q2246.9 1343.7 2248.4 1338.47 Q2249.93 1333.22 2249.93 1327.87 Q2249.93 1322.52 2248.4 1317.32 Q2246.9 1312.11 2243.82 1306.78 Z" fill="#000000" fill-rule="nonzero" fill-opacity="1" /></svg>
