<?xml version="1.0" encoding="utf-8"?>
<svg xmlns="http://www.w3.org/2000/svg" xmlns:xlink="http://www.w3.org/1999/xlink" width="600" height="400" viewBox="0 0 2400 1600">
<defs>
  <clipPath id="clip210">
    <rect x="0" y="0" width="2400" height="1600"/>
  </clipPath>
</defs>
<path clip-path="url(#clip210)" d="M0 1600 L2400 1600 L2400 0 L0 0  Z" fill="#ffffff" fill-rule="evenodd" fill-opacity="1"/>
<defs>
  <clipPath id="clip211">
    <rect x="480" y="0" width="1681" height="1600"/>
  </clipPath>
</defs>
<path clip-path="url(#clip210)" d="M148.057 1423.18 L2352.76 1423.18 L2352.76 47.2441 L148.057 47.2441  Z" fill="#ffffff" fill-rule="evenodd" fill-opacity="1"/>
<defs>
  <clipPath id="clip212">
    <rect x="148" y="47" width="2206" height="1377"/>
  </clipPath>
</defs>
<polyline clip-path="url(#clip212)" style="stroke:#000000; stroke-linecap:round; stroke-linejoin:round; stroke-width:2; stroke-opacity:0.1; fill:none" points="148.057,1423.18 148.057,47.2441 "/>
<polyline clip-path="url(#clip212)" style="stroke:#000000; stroke-linecap:round; stroke-linejoin:round; stroke-width:2; stroke-opacity:0.1; fill:none" points="588.996,1423.18 588.996,47.2441 "/>
<polyline clip-path="url(#clip212)" style="stroke:#000000; stroke-linecap:round; stroke-linejoin:round; stroke-width:2; stroke-opacity:0.1; fill:none" points="1029.94,1423.18 1029.94,47.2441 "/>
<polyline clip-path="url(#clip212)" style="stroke:#000000; stroke-linecap:round; stroke-linejoin:round; stroke-width:2; stroke-opacity:0.1; fill:none" points="1470.88,1423.18 1470.88,47.2441 "/>
<polyline clip-path="url(#clip212)" style="stroke:#000000; stroke-linecap:round; stroke-linejoin:round; stroke-width:2; stroke-opacity:0.1; fill:none" points="1911.82,1423.18 1911.82,47.2441 "/>
<polyline clip-path="url(#clip212)" style="stroke:#000000; stroke-linecap:round; stroke-linejoin:round; stroke-width:2; stroke-opacity:0.1; fill:none" points="2352.76,1423.18 2352.76,47.2441 "/>
<polyline clip-path="url(#clip212)" style="stroke:#000000; stroke-linecap:round; stroke-linejoin:round; stroke-width:2; stroke-opacity:0.1; fill:none" points="148.057,1289.73 2352.76,1289.73 "/>
<polyline clip-path="url(#clip212)" style="stroke:#000000; stroke-linecap:round; stroke-linejoin:round; stroke-width:2; stroke-opacity:0.1; fill:none" points="148.057,1005.64 2352.76,1005.64 "/>
<polyline clip-path="url(#clip212)" style="stroke:#000000; stroke-linecap:round; stroke-linejoin:round; stroke-width:2; stroke-opacity:0.1; fill:none" points="148.057,721.555 2352.76,721.555 "/>
<polyline clip-path="url(#clip212)" style="stroke:#000000; stroke-linecap:round; stroke-linejoin:round; stroke-width:2; stroke-opacity:0.1; fill:none" points="148.057,437.468 2352.76,437.468 "/>
<polyline clip-path="url(#clip212)" style="stroke:#000000; stroke-linecap:round; stroke-linejoin:round; stroke-width:2; stroke-opacity:0.1; fill:none" points="148.057,153.381 2352.76,153.381 "/>
<polyline clip-path="url(#clip210)" style="stroke:#000000; stroke-linecap:round; stroke-linejoin:round; stroke-width:4; stroke-opacity:1; fill:none" points="148.057,1423.18 2352.76,1423.18 "/>
<polyline clip-path="url(#clip210)" style="stroke:#000000; stroke-linecap:round; stroke-linejoin:round; stroke-width:4; stroke-opacity:1; fill:none" points="148.057,1423.18 148.057,1404.28 "/>
<polyline clip-path="url(#clip210)" style="stroke:#000000; stroke-linecap:round; stroke-linejoin:round; stroke-width:4; stroke-opacity:1; fill:none" points="588.996,1423.18 588.996,1404.28 "/>
<polyline clip-path="url(#clip210)" style="stroke:#000000; stroke-linecap:round; stroke-linejoin:round; stroke-width:4; stroke-opacity:1; fill:none" points="1029.94,1423.18 1029.94,1404.28 "/>
<polyline clip-path="url(#clip210)" style="stroke:#000000; stroke-linecap:round; stroke-linejoin:round; stroke-width:4; stroke-opacity:1; fill:none" points="1470.88,1423.18 1470.88,1404.28 "/>
<polyline clip-path="url(#clip210)" style="stroke:#000000; stroke-linecap:round; stroke-linejoin:round; stroke-width:4; stroke-opacity:1; fill:none" points="1911.82,1423.18 1911.82,1404.28 "/>
<polyline clip-path="url(#clip210)" style="stroke:#000000; stroke-linecap:round; stroke-linejoin:round; stroke-width:4; stroke-opacity:1; fill:none" points="2352.76,1423.18 2352.76,1404.28 "/>
<path clip-path="url(#clip210)" d="M148.057 1454.1 Q144.446 1454.1 142.617 1457.66 Q140.811 1461.2 140.811 1468.33 Q140.811 1475.44 142.617 1479.01 Q144.446 1482.55 148.057 1482.55 Q151.691 1482.55 153.496 1479.01 Q155.325 1475.44 155.325 1468.33 Q155.325 1461.2 153.496 1457.66 Q151.691 1454.1 148.057 1454.1 M148.057 1450.39 Q153.867 1450.39 156.922 1455 Q160.001 1459.58 160.001 1468.33 Q160.001 1477.06 156.922 1481.67 Q153.867 1486.25 148.057 1486.25 Q142.246 1486.25 139.168 1481.67 Q136.112 1477.06 136.112 1468.33 Q136.112 1459.58 139.168 1455 Q142.246 1450.39 148.057 1450.39 Z" fill="#000000" fill-rule="nonzero" fill-opacity="1" /><path clip-path="url(#clip210)" d="M583.649 1481.64 L599.969 1481.64 L599.969 1485.58 L578.024 1485.58 L578.024 1481.64 Q580.686 1478.89 585.27 1474.26 Q589.876 1469.61 591.057 1468.27 Q593.302 1465.74 594.182 1464.01 Q595.084 1462.25 595.084 1460.56 Q595.084 1457.8 593.14 1456.07 Q591.219 1454.33 588.117 1454.33 Q585.918 1454.33 583.464 1455.09 Q581.034 1455.86 578.256 1457.41 L578.256 1452.69 Q581.08 1451.55 583.534 1450.97 Q585.987 1450.39 588.024 1450.39 Q593.395 1450.39 596.589 1453.08 Q599.783 1455.77 599.783 1460.26 Q599.783 1462.39 598.973 1464.31 Q598.186 1466.2 596.08 1468.8 Q595.501 1469.47 592.399 1472.69 Q589.297 1475.88 583.649 1481.64 Z" fill="#000000" fill-rule="nonzero" fill-opacity="1" /><path clip-path="url(#clip210)" d="M1032.95 1455.09 L1021.14 1473.54 L1032.95 1473.54 L1032.95 1455.09 M1031.72 1451.02 L1037.6 1451.02 L1037.6 1473.54 L1042.53 1473.54 L1042.53 1477.43 L1037.6 1477.43 L1037.6 1485.58 L1032.95 1485.58 L1032.95 1477.43 L1017.34 1477.43 L1017.34 1472.92 L1031.72 1451.02 Z" fill="#000000" fill-rule="nonzero" fill-opacity="1" /><path clip-path="url(#clip210)" d="M1471.28 1466.44 Q1468.13 1466.44 1466.28 1468.59 Q1464.45 1470.74 1464.45 1474.49 Q1464.45 1478.22 1466.28 1480.39 Q1468.13 1482.55 1471.28 1482.55 Q1474.43 1482.55 1476.26 1480.39 Q1478.11 1478.22 1478.11 1474.49 Q1478.11 1470.74 1476.26 1468.59 Q1474.43 1466.44 1471.28 1466.44 M1480.56 1451.78 L1480.56 1456.04 Q1478.8 1455.21 1477 1454.77 Q1475.22 1454.33 1473.46 1454.33 Q1468.83 1454.33 1466.37 1457.45 Q1463.94 1460.58 1463.6 1466.9 Q1464.96 1464.89 1467.02 1463.82 Q1469.08 1462.73 1471.56 1462.73 Q1476.77 1462.73 1479.78 1465.9 Q1482.81 1469.05 1482.81 1474.49 Q1482.81 1479.82 1479.66 1483.03 Q1476.51 1486.25 1471.28 1486.25 Q1465.29 1486.25 1462.11 1481.67 Q1458.94 1477.06 1458.94 1468.33 Q1458.94 1460.14 1462.83 1455.28 Q1466.72 1450.39 1473.27 1450.39 Q1475.03 1450.39 1476.81 1450.74 Q1478.62 1451.09 1480.56 1451.78 Z" fill="#000000" fill-rule="nonzero" fill-opacity="1" /><path clip-path="url(#clip210)" d="M1911.82 1469.17 Q1908.48 1469.17 1906.56 1470.95 Q1904.66 1472.73 1904.66 1475.86 Q1904.66 1478.98 1906.56 1480.77 Q1908.48 1482.55 1911.82 1482.55 Q1915.15 1482.55 1917.07 1480.77 Q1918.99 1478.96 1918.99 1475.86 Q1918.99 1472.73 1917.07 1470.95 Q1915.17 1469.17 1911.82 1469.17 M1907.14 1467.18 Q1904.13 1466.44 1902.44 1464.38 Q1900.77 1462.32 1900.77 1459.35 Q1900.77 1455.21 1903.71 1452.8 Q1906.68 1450.39 1911.82 1450.39 Q1916.98 1450.39 1919.92 1452.8 Q1922.86 1455.21 1922.86 1459.35 Q1922.86 1462.32 1921.17 1464.38 Q1919.5 1466.44 1916.52 1467.18 Q1919.89 1467.96 1921.77 1470.26 Q1923.67 1472.55 1923.67 1475.86 Q1923.67 1480.88 1920.59 1483.57 Q1917.53 1486.25 1911.82 1486.25 Q1906.1 1486.25 1903.02 1483.57 Q1899.96 1480.88 1899.96 1475.86 Q1899.96 1472.55 1901.86 1470.26 Q1903.76 1467.96 1907.14 1467.18 M1905.43 1459.79 Q1905.43 1462.48 1907.09 1463.98 Q1908.78 1465.49 1911.82 1465.49 Q1914.83 1465.49 1916.52 1463.98 Q1918.23 1462.48 1918.23 1459.79 Q1918.23 1457.11 1916.52 1455.6 Q1914.83 1454.1 1911.82 1454.1 Q1908.78 1454.1 1907.09 1455.6 Q1905.43 1457.11 1905.43 1459.79 Z" fill="#000000" fill-rule="nonzero" fill-opacity="1" /><path clip-path="url(#clip210)" d="M2327.44 1481.64 L2335.08 1481.64 L2335.08 1455.28 L2326.77 1456.95 L2326.77 1452.69 L2335.04 1451.02 L2339.71 1451.02 L2339.71 1481.64 L2347.35 1481.64 L2347.35 1485.58 L2327.44 1485.58 L2327.44 1481.64 Z" fill="#000000" fill-rule="nonzero" fill-opacity="1" /><path clip-path="url(#clip210)" d="M2366.8 1454.1 Q2363.18 1454.1 2361.36 1457.66 Q2359.55 1461.2 2359.55 1468.33 Q2359.55 1475.44 2361.36 1479.01 Q2363.18 1482.55 2366.8 1482.55 Q2370.43 1482.55 2372.23 1479.01 Q2374.06 1475.44 2374.06 1468.33 Q2374.06 1461.2 2372.23 1457.66 Q2370.43 1454.1 2366.8 1454.1 M2366.8 1450.39 Q2372.61 1450.39 2375.66 1455 Q2378.74 1459.58 2378.74 1468.33 Q2378.74 1477.06 2375.66 1481.67 Q2372.61 1486.25 2366.8 1486.25 Q2360.99 1486.25 2357.91 1481.67 Q2354.85 1477.06 2354.85 1468.33 Q2354.85 1459.58 2357.91 1455 Q2360.99 1450.39 2366.8 1450.39 Z" fill="#000000" fill-rule="nonzero" fill-opacity="1" /><path clip-path="url(#clip210)" d="M1249.47 1522.27 L1249.47 1532.4 L1261.53 1532.4 L1261.53 1536.95 L1249.47 1536.95 L1249.47 1556.3 Q1249.47 1560.66 1250.64 1561.9 Q1251.85 1563.14 1255.51 1563.14 L1261.53 1563.14 L1261.53 1568.04 L1255.51 1568.04 Q1248.74 1568.04 1246.16 1565.53 Q1243.58 1562.98 1243.58 1556.3 L1243.58 1536.95 L1239.28 1536.95 L1239.28 1532.4 L1243.58 1532.4 L1243.58 1522.27 L1249.47 1522.27 Z" fill="#000000" fill-rule="nonzero" fill-opacity="1" /><polyline clip-path="url(#clip210)" style="stroke:#000000; stroke-linecap:round; stroke-linejoin:round; stroke-width:4; stroke-opacity:1; fill:none" points="148.057,1423.18 148.057,47.2441 "/>
<polyline clip-path="url(#clip210)" style="stroke:#000000; stroke-linecap:round; stroke-linejoin:round; stroke-width:4; stroke-opacity:1; fill:none" points="148.057,1289.73 166.954,1289.73 "/>
<polyline clip-path="url(#clip210)" style="stroke:#000000; stroke-linecap:round; stroke-linejoin:round; stroke-width:4; stroke-opacity:1; fill:none" points="148.057,1005.64 166.954,1005.64 "/>
<polyline clip-path="url(#clip210)" style="stroke:#000000; stroke-linecap:round; stroke-linejoin:round; stroke-width:4; stroke-opacity:1; fill:none" points="148.057,721.555 166.954,721.555 "/>
<polyline clip-path="url(#clip210)" style="stroke:#000000; stroke-linecap:round; stroke-linejoin:round; stroke-width:4; stroke-opacity:1; fill:none" points="148.057,437.468 166.954,437.468 "/>
<polyline clip-path="url(#clip210)" style="stroke:#000000; stroke-linecap:round; stroke-linejoin:round; stroke-width:4; stroke-opacity:1; fill:none" points="148.057,153.381 166.954,153.381 "/>
<path clip-path="url(#clip210)" d="M50.9921 1290.18 L80.6679 1290.18 L80.6679 1294.11 L50.9921 1294.11 L50.9921 1290.18 Z" fill="#000000" fill-rule="nonzero" fill-opacity="1" /><path clip-path="url(#clip210)" d="M104.927 1288.37 Q108.283 1289.09 110.158 1291.36 Q112.057 1293.63 112.057 1296.96 Q112.057 1302.08 108.538 1304.88 Q105.02 1307.68 98.5382 1307.68 Q96.3623 1307.68 94.0475 1307.24 Q91.7558 1306.82 89.3021 1305.97 L89.3021 1301.45 Q91.2465 1302.59 93.5613 1303.17 Q95.8761 1303.74 98.3993 1303.74 Q102.797 1303.74 105.089 1302.01 Q107.404 1300.27 107.404 1296.96 Q107.404 1293.91 105.251 1292.19 Q103.121 1290.46 99.3021 1290.46 L95.2743 1290.46 L95.2743 1286.61 L99.4872 1286.61 Q102.936 1286.61 104.765 1285.25 Q106.594 1283.86 106.594 1281.27 Q106.594 1278.61 104.696 1277.19 Q102.821 1275.76 99.3021 1275.76 Q97.3808 1275.76 95.1817 1276.17 Q92.9826 1276.59 90.3438 1277.47 L90.3438 1273.3 Q93.0058 1272.56 95.3206 1272.19 Q97.6585 1271.82 99.7187 1271.82 Q105.043 1271.82 108.145 1274.25 Q111.246 1276.66 111.246 1280.78 Q111.246 1283.65 109.603 1285.64 Q107.959 1287.61 104.927 1288.37 Z" fill="#000000" fill-rule="nonzero" fill-opacity="1" /><path clip-path="url(#clip210)" d="M51.9412 1006.09 L81.617 1006.09 L81.617 1010.03 L51.9412 1010.03 L51.9412 1006.09 Z" fill="#000000" fill-rule="nonzero" fill-opacity="1" /><path clip-path="url(#clip210)" d="M95.7373 1018.99 L112.057 1018.99 L112.057 1022.92 L90.1123 1022.92 L90.1123 1018.99 Q92.7743 1016.23 97.3576 1011.6 Q101.964 1006.95 103.145 1005.61 Q105.39 1003.08 106.27 1001.35 Q107.172 999.588 107.172 997.898 Q107.172 995.144 105.228 993.407 Q103.307 991.671 100.205 991.671 Q98.0058 991.671 95.5521 992.435 Q93.1215 993.199 90.3438 994.75 L90.3438 990.028 Q93.1678 988.894 95.6215 988.315 Q98.0752 987.736 100.112 987.736 Q105.483 987.736 108.677 990.421 Q111.871 993.107 111.871 997.597 Q111.871 999.727 111.061 1001.65 Q110.274 1003.55 108.168 1006.14 Q107.589 1006.81 104.487 1010.03 Q101.385 1013.22 95.7373 1018.99 Z" fill="#000000" fill-rule="nonzero" fill-opacity="1" /><path clip-path="url(#clip210)" d="M51.5708 722.006 L81.2466 722.006 L81.2466 725.941 L51.5708 725.941 L51.5708 722.006 Z" fill="#000000" fill-rule="nonzero" fill-opacity="1" /><path clip-path="url(#clip210)" d="M92.1493 734.899 L99.7882 734.899 L99.7882 708.534 L91.478 710.2 L91.478 705.941 L99.7419 704.275 L104.418 704.275 L104.418 734.899 L112.057 734.899 L112.057 738.835 L92.1493 738.835 L92.1493 734.899 Z" fill="#000000" fill-rule="nonzero" fill-opacity="1" /><path clip-path="url(#clip210)" d="M100.112 423.267 Q96.5011 423.267 94.6724 426.831 Q92.8669 430.373 92.8669 437.503 Q92.8669 444.609 94.6724 448.174 Q96.5011 451.716 100.112 451.716 Q103.746 451.716 105.552 448.174 Q107.381 444.609 107.381 437.503 Q107.381 430.373 105.552 426.831 Q103.746 423.267 100.112 423.267 M100.112 419.563 Q105.922 419.563 108.978 424.169 Q112.057 428.753 112.057 437.503 Q112.057 446.229 108.978 450.836 Q105.922 455.419 100.112 455.419 Q94.3021 455.419 91.2234 450.836 Q88.1679 446.229 88.1679 437.503 Q88.1679 428.753 91.2234 424.169 Q94.3021 419.563 100.112 419.563 Z" fill="#000000" fill-rule="nonzero" fill-opacity="1" /><path clip-path="url(#clip210)" d="M92.1493 166.726 L99.7882 166.726 L99.7882 140.361 L91.478 142.027 L91.478 137.768 L99.7419 136.101 L104.418 136.101 L104.418 166.726 L112.057 166.726 L112.057 170.661 L92.1493 170.661 L92.1493 166.726 Z" fill="#000000" fill-rule="nonzero" fill-opacity="1" /><polyline clip-path="url(#clip212)" style="stroke:#009af9; stroke-linecap:round; stroke-linejoin:round; stroke-width:8; stroke-opacity:1; fill:none" points="148.057,380.651 148.252,381.787 148.439,381.911 148.65,379.75 148.887,381.176 149.153,379.795 149.453,377.966 149.79,376.835 150.169,372.898 150.596,371.298 151.076,380.427 151.616,378.201 152.223,375.414 152.907,378.973 153.676,383.866 154.541,384.113 155.514,384.167 156.609,385.448 157.84,388.709 159.226,392.539 160.785,391.032 162.539,393.98 164.511,394.71 166.731,388.815 169.228,386.658 172.037,391.408 175.197,387.041 178.752,375.668 182.752,367.032 187.251,361.538 192.313,358.884 198.008,370.927 204.414,346.363 211.622,358.441 218.43,358.207 226.09,354.357 234.707,327.556 244.401,321.168 253.154,313.069 258.741,292.445 265.027,349.815 272.098,365.457 278.86,357.599 286.466,355.53 294.768,350.024 304.108,327.325 314.615,318.561 324.56,256.262 334.992,283.85 343.212,264.312 352.46,278.915 360.609,257.172 369.778,203.03 378.141,151.131 385.831,119.515 392.78,114.928 399.092,86.1857 399.369,91.2443 405.449,319.765 407.466,319.555 414.307,377.839 422.003,392.016 430.622,395.371 440.318,386.505 451.226,386.605 461.94,395.612 473.962,394.833 487.486,387.545 502.702,387.529 514.091,377.249 528.464,399.635 544.634,386.941 562.825,392.542 577.324,401.328 593.635,393.229 611.985,393.114 627.79,388.054 645.571,386.455 662.851,381.452 682.29,369.24 702.097,366.276 720.228,377.989 735.982,378.945 753.705,370.645 773.136,324.908 791.685,270.395 796.872,293.369 802.706,294.697 809.21,271.41 816.267,308.125 822.8,305.542 827.763,315.563 835.113,374.52 843.381,356.598 852.684,366.031 859.977,356.456 868.182,368.523 875.838,383.589 884.452,385.553 894.142,365.124 905.044,371.104 914.473,385.112 925.08,388.678 937.014,368.308 950.439,336.365 964.929,281.958 978.766,314.375 987.083,341.262 996.438,362.399 1006.34,367.524 1017.47,370.889 1030,374.053 1042.74,373.74 1057.08,375.493 1072.39,377.993 1089.26,365.205 1108.23,373.65 1121.13,376.963 1135.64,383.14 1150.81,376.828 1167.87,391.491 1183.76,393.783 1201.63,361.41 1221.73,392.858 1233.92,364.831 1247.63,382.725 1251.66,375.335 1256.2,405.127 1261.3,405.337 1267.04,412.166 1273.5,417.215 1280.77,414.877 1288.94,415.079 1298.14,416.835 1308.49,407.049 1320.12,398.274 1333.22,401.275 1343.84,399.187 1355.78,397.578 1369.21,393.275 1384.33,398.121 1399.2,389.318 1415.94,400.498 1430.33,400.638 1446.52,393.709 1464.73,380.053 1485.22,379.169 1501.05,371.568 1518.85,330.24 1536.1,350.875 1546.65,369.799 1558.52,383.799 1571.62,376.159 1586.36,395.274 1597.82,385.339 1610.71,390.309 1623.27,369.312 1637.41,368.694 1648.86,366.953 1661.75,390.699 1674.37,388.935 1688.56,364.314 1704.53,343.023 1721.49,307.429 1738.55,305.218 1750.87,301.422 1764.72,329.498 1776.69,328.529 1790.15,297.005 1805.29,312.623 1814.97,324.27 1825.86,276.92 1838.11,301.75 1847.1,284.637 1857.21,302.405 1865.57,287.589 1874.98,297.605 1883.66,302.299 1893.43,290.512 1904.42,311.626 1913.77,283.757 1924.28,282.124 1933.21,312.976 1941.55,318.826 1950.92,322.738 1960.51,331.755 1970.6,348.245 1981.32,365.463 1992.54,373.604 2005.16,365.759 2019.37,389.602 2032.62,401.407 2047.54,417.072 2064.31,403.282 2083.19,405.397 2097.12,411.383 2112.79,417.718 2130.42,416.183 2150.25,406.452 2172.56,413.993 2187.02,413.09 2203.29,418.612 2219.18,411.145 2237.06,400.933 2257.17,357.314 2270.63,368.927 2284.37,370.131 2299.82,356.452 2317.21,310.874 2332.11,353.756 2341.89,354.519 2352.76,359.546 "/>
<polyline clip-path="url(#clip212)" style="stroke:#e26f46; stroke-linecap:round; stroke-linejoin:round; stroke-width:8; stroke-opacity:1; fill:none" points="148.057,583.851 148.252,583.801 148.439,583.754 148.65,583.7 148.887,583.639 149.153,583.57 149.453,583.49 149.79,583.397 150.169,583.29 150.596,583.163 151.076,583.031 151.616,582.89 152.223,582.727 152.907,582.54 153.676,582.348 154.541,582.137 155.514,581.901 156.609,581.631 157.84,581.355 159.226,581.062 160.785,580.732 162.539,580.363 164.511,579.982 166.731,579.536 169.228,578.96 172.037,578.334 175.197,577.635 178.752,576.693 182.752,575.541 187.251,574.031 192.313,572.234 198.008,570.255 204.414,568.031 211.622,565.201 218.43,562.863 226.09,560.098 234.707,556.088 244.401,551.645 253.154,547.392 258.741,543.976 265.027,541.606 272.098,539.013 278.86,536.847 286.466,534.161 294.768,530.969 304.108,526.956 314.615,521.473 324.56,515.203 334.992,507.241 343.212,501.375 352.46,493.906 360.609,487.414 369.778,477.989 378.141,467.826 385.831,457.483 392.78,447.041 399.092,437.821 399.369,437.468 405.449,438.536 407.466,437.468 414.307,458.66 422.003,456.829 430.622,455.054 440.318,453.006 451.226,450.765 461.94,448.404 473.962,446.226 487.486,443.59 502.702,440.406 514.091,437.468 528.464,533.014 544.634,529.779 562.825,525.921 577.324,523.143 593.635,520.166 611.985,517.002 627.79,513.751 645.571,509.855 662.851,505.532 682.29,500.532 702.097,493.979 720.228,489.057 735.982,485.11 753.705,480.202 773.136,472.075 791.685,461.184 796.872,457.288 802.706,453.386 809.21,448.95 816.267,443.836 822.8,440.02 827.763,437.468 835.113,1384.24 843.381,1381.46 852.684,1378.29 859.977,1375.8 868.182,1372.94 875.838,1370.93 884.452,1368.78 894.142,1366.16 905.044,1362.45 914.473,1359.97 925.08,1357.78 937.014,1354.7 950.439,1350.06 964.929,1341.17 978.766,1332.42 987.083,1328.26 996.438,1324.84 1006.34,1320.91 1017.47,1316.87 1030,1313.12 1042.74,1309.26 1057.08,1304.92 1072.39,1300.36 1089.26,1295.58 1108.23,1290.72 1121.13,1286.94 1135.64,1282.95 1150.81,1278.88 1167.87,1273.48 1183.76,1270.05 1201.63,1265.02 1221.73,1259.8 1233.92,1256.9 1247.63,1252.98 1251.66,1251.93 1256.2,1251.3 1261.3,1250.54 1267.04,1249.86 1273.5,1249.2 1280.77,1248.48 1288.94,1247.65 1298.14,1246.68 1308.49,1245.43 1320.12,1243.53 1333.22,1241.35 1343.84,1239.46 1355.78,1237.29 1369.21,1234.68 1384.33,1231.47 1399.2,1228.55 1415.94,1224.55 1430.33,1221.87 1446.52,1218.89 1464.73,1214.79 1485.22,1209.43 1501.05,1205.03 1518.85,1198.19 1536.1,1190.42 1546.65,1186.61 1558.52,1183.25 1571.62,1179.9 1586.36,1176.92 1597.82,1174.56 1610.71,1171.15 1623.27,1168.09 1637.41,1163.91 1648.86,1160.23 1661.75,1156.74 1674.37,1153.9 1688.56,1149.96 1704.53,1143.87 1721.49,1136.21 1738.55,1127.18 1750.87,1119.76 1764.72,1111.26 1776.69,1106.08 1790.15,1098.32 1805.29,1089.86 1814.97,1085.27 1825.86,1078.86 1838.11,1069.74 1847.1,1063.69 1857.21,1056.87 1865.57,1051.37 1874.98,1044.71 1883.66,1038.66 1893.43,1032.27 1904.42,1024.99 1913.77,1018.62 1924.28,1011 1933.21,1005.76 1941.55,1001.13 1950.92,996.504 1960.51,991.88 1970.6,987.228 1981.32,983.353 1992.54,979.755 2005.16,976.136 2019.37,971.912 2032.62,969.282 2047.54,967.581 2064.31,965.48 2083.19,962.73 2097.12,960.892 2112.79,959.369 2130.42,957.513 2150.25,955.183 2172.56,952.486 2187.02,950.871 2203.29,949.357 2219.18,947.935 2237.06,945.303 2257.17,940.87 2270.63,936.123 2284.37,931.832 2299.82,927.45 2317.21,919.836 2332.11,914.137 2341.89,910.376 2352.76,906.181 "/>
<path clip-path="url(#clip210)" d="M221.547 1377.32 L531.113 1377.32 L531.113 1221.8 L221.547 1221.8  Z" fill="#ffffff" fill-rule="evenodd" fill-opacity="1"/>
<polyline clip-path="url(#clip210)" style="stroke:#000000; stroke-linecap:round; stroke-linejoin:round; stroke-width:4; stroke-opacity:1; fill:none" points="221.547,1377.32 531.113,1377.32 531.113,1221.8 221.547,1221.8 221.547,1377.32 "/>
<polyline clip-path="url(#clip210)" style="stroke:#009af9; stroke-linecap:round; stroke-linejoin:round; stroke-width:8; stroke-opacity:1; fill:none" points="246.043,1273.64 393.023,1273.64 "/>
<path clip-path="url(#clip210)" d="M417.52 1280.68 L417.52 1264.99 L421.779 1264.99 L421.779 1280.52 Q421.779 1284.2 423.214 1286.05 Q424.649 1287.88 427.52 1287.88 Q430.969 1287.88 432.96 1285.68 Q434.973 1283.48 434.973 1279.69 L434.973 1264.99 L439.233 1264.99 L439.233 1290.92 L434.973 1290.92 L434.973 1286.93 Q433.423 1289.29 431.362 1290.45 Q429.325 1291.59 426.617 1291.59 Q422.149 1291.59 419.835 1288.81 Q417.52 1286.03 417.52 1280.68 M428.237 1264.36 L428.237 1264.36 Z" fill="#000000" fill-rule="nonzero" fill-opacity="1" /><path clip-path="url(#clip210)" d="M447.612 1254.9 L457.427 1254.9 L457.427 1258.21 L451.872 1258.21 L451.872 1293.86 L457.427 1293.86 L457.427 1297.17 L447.612 1297.17 L447.612 1254.9 Z" fill="#000000" fill-rule="nonzero" fill-opacity="1" /><path clip-path="url(#clip210)" d="M467.913 1286.98 L475.552 1286.98 L475.552 1260.61 L467.242 1262.28 L467.242 1258.02 L475.506 1256.36 L480.182 1256.36 L480.182 1286.98 L487.82 1286.98 L487.82 1290.92 L467.913 1290.92 L467.913 1286.98 Z" fill="#000000" fill-rule="nonzero" fill-opacity="1" /><path clip-path="url(#clip210)" d="M506.617 1254.9 L506.617 1297.17 L496.802 1297.17 L496.802 1293.86 L502.334 1293.86 L502.334 1258.21 L496.802 1258.21 L496.802 1254.9 L506.617 1254.9 Z" fill="#000000" fill-rule="nonzero" fill-opacity="1" /><polyline clip-path="url(#clip210)" style="stroke:#e26f46; stroke-linecap:round; stroke-linejoin:round; stroke-width:8; stroke-opacity:1; fill:none" points="246.043,1325.48 393.023,1325.48 "/>
<path clip-path="url(#clip210)" d="M417.52 1332.52 L417.52 1316.83 L421.779 1316.83 L421.779 1332.36 Q421.779 1336.04 423.214 1337.89 Q424.649 1339.72 427.52 1339.72 Q430.969 1339.72 432.96 1337.52 Q434.973 1335.32 434.973 1331.53 L434.973 1316.83 L439.233 1316.83 L439.233 1342.76 L434.973 1342.76 L434.973 1338.77 Q433.423 1341.13 431.362 1342.29 Q429.325 1343.43 426.617 1343.43 Q422.149 1343.43 419.835 1340.65 Q417.52 1337.87 417.52 1332.52 M428.237 1316.2 L428.237 1316.2 Z" fill="#000000" fill-rule="nonzero" fill-opacity="1" /><path clip-path="url(#clip210)" d="M447.612 1306.74 L457.427 1306.74 L457.427 1310.05 L451.872 1310.05 L451.872 1345.7 L457.427 1345.7 L457.427 1349.01 L447.612 1349.01 L447.612 1306.74 Z" fill="#000000" fill-rule="nonzero" fill-opacity="1" /><path clip-path="url(#clip210)" d="M471.131 1338.82 L487.45 1338.82 L487.45 1342.76 L465.506 1342.76 L465.506 1338.82 Q468.168 1336.07 472.751 1331.44 Q477.358 1326.78 478.538 1325.44 Q480.783 1322.92 481.663 1321.18 Q482.566 1319.42 482.566 1317.73 Q482.566 1314.98 480.621 1313.24 Q478.7 1311.51 475.598 1311.51 Q473.399 1311.51 470.946 1312.27 Q468.515 1313.03 465.737 1314.58 L465.737 1309.86 Q468.561 1308.73 471.015 1308.15 Q473.469 1307.57 475.506 1307.57 Q480.876 1307.57 484.07 1310.26 Q487.265 1312.94 487.265 1317.43 Q487.265 1319.56 486.455 1321.48 Q485.668 1323.38 483.561 1325.97 Q482.982 1326.64 479.881 1329.86 Q476.779 1333.06 471.131 1338.82 Z" fill="#000000" fill-rule="nonzero" fill-opacity="1" /><path clip-path="url(#clip210)" d="M506.617 1306.74 L506.617 1349.01 L496.802 1349.01 L496.802 1345.7 L502.334 1345.7 L502.334 1310.05 L496.802 1310.05 L496.802 1306.74 L506.617 1306.74 Z" fill="#000000" fill-rule="nonzero" fill-opacity="1" /></svg>
