<?xml version="1.0" encoding="utf-8"?>
<svg xmlns="http://www.w3.org/2000/svg" xmlns:xlink="http://www.w3.org/1999/xlink" width="600" height="400" viewBox="0 0 2400 1600">
<defs>
  <clipPath id="clip330">
    <rect x="0" y="0" width="2400" height="1600"/>
  </clipPath>
</defs>
<path clip-path="url(#clip330)" d="M0 1600 L2400 1600 L2400 0 L0 0  Z" fill="#ffffff" fill-rule="evenodd" fill-opacity="1"/>
<defs>
  <clipPath id="clip331">
    <rect x="480" y="0" width="1681" height="1600"/>
  </clipPath>
</defs>
<path clip-path="url(#clip330)" d="M140.696 1423.18 L2352.76 1423.18 L2352.76 47.2441 L140.696 47.2441  Z" fill="#ffffff" fill-rule="evenodd" fill-opacity="1"/>
<defs>
  <clipPath id="clip332">
    <rect x="140" y="47" width="2213" height="1377"/>
  </clipPath>
</defs>
<polyline clip-path="url(#clip332)" style="stroke:#000000; stroke-linecap:round; stroke-linejoin:round; stroke-width:2; stroke-opacity:0.1; fill:none" points="586.522,1423.18 586.522,47.2441 "/>
<polyline clip-path="url(#clip332)" style="stroke:#000000; stroke-linecap:round; stroke-linejoin:round; stroke-width:2; stroke-opacity:0.1; fill:none" points="1035.09,1423.18 1035.09,47.2441 "/>
<polyline clip-path="url(#clip332)" style="stroke:#000000; stroke-linecap:round; stroke-linejoin:round; stroke-width:2; stroke-opacity:0.1; fill:none" points="1483.66,1423.18 1483.66,47.2441 "/>
<polyline clip-path="url(#clip332)" style="stroke:#000000; stroke-linecap:round; stroke-linejoin:round; stroke-width:2; stroke-opacity:0.1; fill:none" points="1932.22,1423.18 1932.22,47.2441 "/>
<polyline clip-path="url(#clip330)" style="stroke:#000000; stroke-linecap:round; stroke-linejoin:round; stroke-width:4; stroke-opacity:1; fill:none" points="140.696,1423.18 2352.76,1423.18 "/>
<polyline clip-path="url(#clip330)" style="stroke:#000000; stroke-linecap:round; stroke-linejoin:round; stroke-width:4; stroke-opacity:1; fill:none" points="586.522,1423.18 586.522,1404.28 "/>
<polyline clip-path="url(#clip330)" style="stroke:#000000; stroke-linecap:round; stroke-linejoin:round; stroke-width:4; stroke-opacity:1; fill:none" points="1035.09,1423.18 1035.09,1404.28 "/>
<polyline clip-path="url(#clip330)" style="stroke:#000000; stroke-linecap:round; stroke-linejoin:round; stroke-width:4; stroke-opacity:1; fill:none" points="1483.66,1423.18 1483.66,1404.28 "/>
<polyline clip-path="url(#clip330)" style="stroke:#000000; stroke-linecap:round; stroke-linejoin:round; stroke-width:4; stroke-opacity:1; fill:none" points="1932.22,1423.18 1932.22,1404.28 "/>
<path clip-path="url(#clip330)" d="M561.209 1481.64 L568.848 1481.64 L568.848 1455.28 L560.538 1456.95 L560.538 1452.69 L568.802 1451.02 L573.478 1451.02 L573.478 1481.64 L581.117 1481.64 L581.117 1485.58 L561.209 1485.58 L561.209 1481.64 Z" fill="#000000" fill-rule="nonzero" fill-opacity="1" /><path clip-path="url(#clip330)" d="M600.561 1454.1 Q596.95 1454.1 595.121 1457.66 Q593.316 1461.2 593.316 1468.33 Q593.316 1475.44 595.121 1479.01 Q596.95 1482.55 600.561 1482.55 Q604.195 1482.55 606.001 1479.01 Q607.829 1475.44 607.829 1468.33 Q607.829 1461.2 606.001 1457.66 Q604.195 1454.1 600.561 1454.1 M600.561 1450.39 Q606.371 1450.39 609.427 1455 Q612.505 1459.58 612.505 1468.33 Q612.505 1477.06 609.427 1481.67 Q606.371 1486.25 600.561 1486.25 Q594.751 1486.25 591.672 1481.67 Q588.617 1477.06 588.617 1468.33 Q588.617 1459.58 591.672 1455 Q594.751 1450.39 600.561 1450.39 Z" fill="#000000" fill-rule="nonzero" fill-opacity="1" /><path clip-path="url(#clip330)" d="M1013.86 1481.64 L1030.18 1481.64 L1030.18 1485.58 L1008.24 1485.58 L1008.24 1481.64 Q1010.9 1478.89 1015.48 1474.26 Q1020.09 1469.61 1021.27 1468.27 Q1023.52 1465.74 1024.39 1464.01 Q1025.3 1462.25 1025.3 1460.56 Q1025.3 1457.8 1023.35 1456.07 Q1021.43 1454.33 1018.33 1454.33 Q1016.13 1454.33 1013.68 1455.09 Q1011.25 1455.86 1008.47 1457.41 L1008.47 1452.69 Q1011.29 1451.55 1013.75 1450.97 Q1016.2 1450.39 1018.24 1450.39 Q1023.61 1450.39 1026.8 1453.08 Q1030 1455.77 1030 1460.26 Q1030 1462.39 1029.19 1464.31 Q1028.4 1466.2 1026.29 1468.8 Q1025.71 1469.47 1022.61 1472.69 Q1019.51 1475.88 1013.86 1481.64 Z" fill="#000000" fill-rule="nonzero" fill-opacity="1" /><path clip-path="url(#clip330)" d="M1050 1454.1 Q1046.39 1454.1 1044.56 1457.66 Q1042.75 1461.2 1042.75 1468.33 Q1042.75 1475.44 1044.56 1479.01 Q1046.39 1482.55 1050 1482.55 Q1053.63 1482.55 1055.44 1479.01 Q1057.26 1475.44 1057.26 1468.33 Q1057.26 1461.2 1055.44 1457.66 Q1053.63 1454.1 1050 1454.1 M1050 1450.39 Q1055.81 1450.39 1058.86 1455 Q1061.94 1459.58 1061.94 1468.33 Q1061.94 1477.06 1058.86 1481.67 Q1055.81 1486.25 1050 1486.25 Q1044.19 1486.25 1041.11 1481.67 Q1038.05 1477.06 1038.05 1468.33 Q1038.05 1459.58 1041.11 1455 Q1044.19 1450.39 1050 1450.39 Z" fill="#000000" fill-rule="nonzero" fill-opacity="1" /><path clip-path="url(#clip330)" d="M1472.5 1466.95 Q1475.86 1467.66 1477.73 1469.93 Q1479.63 1472.2 1479.63 1475.53 Q1479.63 1480.65 1476.11 1483.45 Q1472.59 1486.25 1466.11 1486.25 Q1463.93 1486.25 1461.62 1485.81 Q1459.33 1485.39 1456.87 1484.54 L1456.87 1480.02 Q1458.82 1481.16 1461.13 1481.74 Q1463.45 1482.32 1465.97 1482.32 Q1470.37 1482.32 1472.66 1480.58 Q1474.98 1478.84 1474.98 1475.53 Q1474.98 1472.48 1472.82 1470.77 Q1470.69 1469.03 1466.87 1469.03 L1462.85 1469.03 L1462.85 1465.19 L1467.06 1465.19 Q1470.51 1465.19 1472.34 1463.82 Q1474.17 1462.43 1474.17 1459.84 Q1474.17 1457.18 1472.27 1455.77 Q1470.39 1454.33 1466.87 1454.33 Q1464.95 1454.33 1462.75 1454.75 Q1460.55 1455.16 1457.92 1456.04 L1457.92 1451.88 Q1460.58 1451.14 1462.89 1450.77 Q1465.23 1450.39 1467.29 1450.39 Q1472.61 1450.39 1475.72 1452.83 Q1478.82 1455.23 1478.82 1459.35 Q1478.82 1462.22 1477.17 1464.21 Q1475.53 1466.18 1472.5 1466.95 Z" fill="#000000" fill-rule="nonzero" fill-opacity="1" /><path clip-path="url(#clip330)" d="M1498.49 1454.1 Q1494.88 1454.1 1493.05 1457.66 Q1491.25 1461.2 1491.25 1468.33 Q1491.25 1475.44 1493.05 1479.01 Q1494.88 1482.55 1498.49 1482.55 Q1502.13 1482.55 1503.93 1479.01 Q1505.76 1475.44 1505.76 1468.33 Q1505.76 1461.2 1503.93 1457.66 Q1502.13 1454.1 1498.49 1454.1 M1498.49 1450.39 Q1504.3 1450.39 1507.36 1455 Q1510.44 1459.58 1510.44 1468.33 Q1510.44 1477.06 1507.36 1481.67 Q1504.3 1486.25 1498.49 1486.25 Q1492.68 1486.25 1489.61 1481.67 Q1486.55 1477.06 1486.55 1468.33 Q1486.55 1459.58 1489.61 1455 Q1492.68 1450.39 1498.49 1450.39 Z" fill="#000000" fill-rule="nonzero" fill-opacity="1" /><path clip-path="url(#clip330)" d="M1920.4 1455.09 L1908.59 1473.54 L1920.4 1473.54 L1920.4 1455.09 M1919.17 1451.02 L1925.05 1451.02 L1925.05 1473.54 L1929.98 1473.54 L1929.98 1477.43 L1925.05 1477.43 L1925.05 1485.58 L1920.4 1485.58 L1920.4 1477.43 L1904.79 1477.43 L1904.79 1472.92 L1919.17 1451.02 Z" fill="#000000" fill-rule="nonzero" fill-opacity="1" /><path clip-path="url(#clip330)" d="M1947.71 1454.1 Q1944.1 1454.1 1942.27 1457.66 Q1940.46 1461.2 1940.46 1468.33 Q1940.46 1475.44 1942.27 1479.01 Q1944.1 1482.55 1947.71 1482.55 Q1951.34 1482.55 1953.15 1479.01 Q1954.98 1475.44 1954.98 1468.33 Q1954.98 1461.2 1953.15 1457.66 Q1951.34 1454.1 1947.71 1454.1 M1947.71 1450.39 Q1953.52 1450.39 1956.58 1455 Q1959.65 1459.58 1959.65 1468.33 Q1959.65 1477.06 1956.58 1481.67 Q1953.52 1486.25 1947.71 1486.25 Q1941.9 1486.25 1938.82 1481.67 Q1935.77 1477.06 1935.77 1468.33 Q1935.77 1459.58 1938.82 1455 Q1941.9 1450.39 1947.71 1450.39 Z" fill="#000000" fill-rule="nonzero" fill-opacity="1" /><path clip-path="url(#clip330)" d="M1245.79 1522.27 L1245.79 1532.4 L1257.85 1532.4 L1257.85 1536.95 L1245.79 1536.95 L1245.79 1556.3 Q1245.79 1560.66 1246.96 1561.9 Q1248.17 1563.14 1251.83 1563.14 L1257.85 1563.14 L1257.85 1568.04 L1251.83 1568.04 Q1245.05 1568.04 1242.48 1565.53 Q1239.9 1562.98 1239.9 1556.3 L1239.9 1536.95 L1235.6 1536.95 L1235.6 1532.4 L1239.9 1532.4 L1239.9 1522.27 L1245.79 1522.27 Z" fill="#000000" fill-rule="nonzero" fill-opacity="1" /><polyline clip-path="url(#clip332)" style="stroke:#000000; stroke-linecap:round; stroke-linejoin:round; stroke-width:2; stroke-opacity:0.1; fill:none" points="140.696,1385.46 2352.76,1385.46 "/>
<polyline clip-path="url(#clip332)" style="stroke:#000000; stroke-linecap:round; stroke-linejoin:round; stroke-width:2; stroke-opacity:0.1; fill:none" points="140.696,984.449 2352.76,984.449 "/>
<polyline clip-path="url(#clip332)" style="stroke:#000000; stroke-linecap:round; stroke-linejoin:round; stroke-width:2; stroke-opacity:0.1; fill:none" points="140.696,583.435 2352.76,583.435 "/>
<polyline clip-path="url(#clip332)" style="stroke:#000000; stroke-linecap:round; stroke-linejoin:round; stroke-width:2; stroke-opacity:0.1; fill:none" points="140.696,182.42 2352.76,182.42 "/>
<polyline clip-path="url(#clip330)" style="stroke:#000000; stroke-linecap:round; stroke-linejoin:round; stroke-width:4; stroke-opacity:1; fill:none" points="140.696,1423.18 140.696,47.2441 "/>
<polyline clip-path="url(#clip330)" style="stroke:#000000; stroke-linecap:round; stroke-linejoin:round; stroke-width:4; stroke-opacity:1; fill:none" points="140.696,1385.46 159.593,1385.46 "/>
<polyline clip-path="url(#clip330)" style="stroke:#000000; stroke-linecap:round; stroke-linejoin:round; stroke-width:4; stroke-opacity:1; fill:none" points="140.696,984.449 159.593,984.449 "/>
<polyline clip-path="url(#clip330)" style="stroke:#000000; stroke-linecap:round; stroke-linejoin:round; stroke-width:4; stroke-opacity:1; fill:none" points="140.696,583.435 159.593,583.435 "/>
<polyline clip-path="url(#clip330)" style="stroke:#000000; stroke-linecap:round; stroke-linejoin:round; stroke-width:4; stroke-opacity:1; fill:none" points="140.696,182.42 159.593,182.42 "/>
<path clip-path="url(#clip330)" d="M92.7512 1371.26 Q89.1401 1371.26 87.3114 1374.83 Q85.5058 1378.37 85.5058 1385.5 Q85.5058 1392.6 87.3114 1396.17 Q89.1401 1399.71 92.7512 1399.71 Q96.3854 1399.71 98.1909 1396.17 Q100.02 1392.6 100.02 1385.5 Q100.02 1378.37 98.1909 1374.83 Q96.3854 1371.26 92.7512 1371.26 M92.7512 1367.56 Q98.5613 1367.56 101.617 1372.17 Q104.696 1376.75 104.696 1385.5 Q104.696 1394.23 101.617 1398.83 Q98.5613 1403.41 92.7512 1403.41 Q86.941 1403.41 83.8623 1398.83 Q80.8068 1394.23 80.8068 1385.5 Q80.8068 1376.75 83.8623 1372.17 Q86.941 1367.56 92.7512 1367.56 Z" fill="#000000" fill-rule="nonzero" fill-opacity="1" /><path clip-path="url(#clip330)" d="M53.3995 997.794 L61.0384 997.794 L61.0384 971.428 L52.7282 973.095 L52.7282 968.836 L60.9921 967.169 L65.668 967.169 L65.668 997.794 L73.3068 997.794 L73.3068 1001.73 L53.3995 1001.73 L53.3995 997.794 Z" fill="#000000" fill-rule="nonzero" fill-opacity="1" /><path clip-path="url(#clip330)" d="M92.7512 970.248 Q89.1401 970.248 87.3114 973.813 Q85.5058 977.354 85.5058 984.484 Q85.5058 991.59 87.3114 995.155 Q89.1401 998.697 92.7512 998.697 Q96.3854 998.697 98.1909 995.155 Q100.02 991.59 100.02 984.484 Q100.02 977.354 98.1909 973.813 Q96.3854 970.248 92.7512 970.248 M92.7512 966.544 Q98.5613 966.544 101.617 971.151 Q104.696 975.734 104.696 984.484 Q104.696 993.211 101.617 997.817 Q98.5613 1002.4 92.7512 1002.4 Q86.941 1002.4 83.8623 997.817 Q80.8068 993.211 80.8068 984.484 Q80.8068 975.734 83.8623 971.151 Q86.941 966.544 92.7512 966.544 Z" fill="#000000" fill-rule="nonzero" fill-opacity="1" /><path clip-path="url(#clip330)" d="M56.6171 596.78 L72.9365 596.78 L72.9365 600.715 L50.9921 600.715 L50.9921 596.78 Q53.6541 594.025 58.2375 589.395 Q62.8439 584.743 64.0245 583.4 Q66.2698 580.877 67.1494 579.141 Q68.0522 577.381 68.0522 575.692 Q68.0522 572.937 66.1078 571.201 Q64.1865 569.465 61.0847 569.465 Q58.8856 569.465 56.4319 570.229 Q54.0014 570.993 51.2236 572.544 L51.2236 567.821 Q54.0477 566.687 56.5014 566.108 Q58.955 565.53 60.9921 565.53 Q66.3624 565.53 69.5568 568.215 Q72.7513 570.9 72.7513 575.391 Q72.7513 577.52 71.9411 579.442 Q71.1541 581.34 69.0476 583.932 Q68.4689 584.604 65.367 587.821 Q62.2652 591.016 56.6171 596.78 Z" fill="#000000" fill-rule="nonzero" fill-opacity="1" /><path clip-path="url(#clip330)" d="M92.7512 569.233 Q89.1401 569.233 87.3114 572.798 Q85.5058 576.34 85.5058 583.469 Q85.5058 590.576 87.3114 594.141 Q89.1401 597.682 92.7512 597.682 Q96.3854 597.682 98.1909 594.141 Q100.02 590.576 100.02 583.469 Q100.02 576.34 98.1909 572.798 Q96.3854 569.233 92.7512 569.233 M92.7512 565.53 Q98.5613 565.53 101.617 570.136 Q104.696 574.719 104.696 583.469 Q104.696 592.196 101.617 596.803 Q98.5613 601.386 92.7512 601.386 Q86.941 601.386 83.8623 596.803 Q80.8068 592.196 80.8068 583.469 Q80.8068 574.719 83.8623 570.136 Q86.941 565.53 92.7512 565.53 Z" fill="#000000" fill-rule="nonzero" fill-opacity="1" /><path clip-path="url(#clip330)" d="M66.7559 181.066 Q70.1124 181.784 71.9874 184.052 Q73.8855 186.321 73.8855 189.654 Q73.8855 194.77 70.367 197.571 Q66.8485 200.372 60.3671 200.372 Q58.1912 200.372 55.8764 199.932 Q53.5847 199.515 51.131 198.659 L51.131 194.145 Q53.0754 195.279 55.3903 195.858 Q57.7051 196.436 60.2282 196.436 Q64.6263 196.436 66.918 194.7 Q69.2328 192.964 69.2328 189.654 Q69.2328 186.598 67.08 184.886 Q64.9504 183.149 61.131 183.149 L57.1032 183.149 L57.1032 179.307 L61.3161 179.307 Q64.7652 179.307 66.5939 177.941 Q68.4226 176.552 68.4226 173.96 Q68.4226 171.298 66.5245 169.886 Q64.6495 168.45 61.131 168.45 Q59.2097 168.45 57.0106 168.867 Q54.8115 169.284 52.1727 170.163 L52.1727 165.997 Q54.8347 165.256 57.1495 164.886 Q59.4875 164.515 61.5476 164.515 Q66.8717 164.515 69.9735 166.946 Q73.0753 169.353 73.0753 173.474 Q73.0753 176.344 71.4318 178.335 Q69.7883 180.302 66.7559 181.066 Z" fill="#000000" fill-rule="nonzero" fill-opacity="1" /><path clip-path="url(#clip330)" d="M92.7512 168.219 Q89.1401 168.219 87.3114 171.784 Q85.5058 175.325 85.5058 182.455 Q85.5058 189.561 87.3114 193.126 Q89.1401 196.668 92.7512 196.668 Q96.3854 196.668 98.1909 193.126 Q100.02 189.561 100.02 182.455 Q100.02 175.325 98.1909 171.784 Q96.3854 168.219 92.7512 168.219 M92.7512 164.515 Q98.5613 164.515 101.617 169.122 Q104.696 173.705 104.696 182.455 Q104.696 191.182 101.617 195.788 Q98.5613 200.372 92.7512 200.372 Q86.941 200.372 83.8623 195.788 Q80.8068 191.182 80.8068 182.455 Q80.8068 173.705 83.8623 169.122 Q86.941 164.515 92.7512 164.515 Z" fill="#000000" fill-rule="nonzero" fill-opacity="1" /><polyline clip-path="url(#clip332)" style="stroke:#009af9; stroke-linecap:round; stroke-linejoin:round; stroke-width:4; stroke-opacity:1; fill:none" points="140.696,1384.24 140.696,1384.24 143.413,1383.02 152.013,1379.18 155.54,1377.6 157.522,1376.55 166.581,1371.89 169.37,1370.26 190.142,1359.26 197.609,1355.6 204.37,1352.36 205.548,1351.81 205.833,1351.67 212.318,1348.63 248.127,1332.29 252.093,1330.51 255.748,1328.56 255.827,1328.52 266.804,1322.93 274.548,1319.15 277.566,1317.71 282.1,1315.19 303.258,1304.4 306.431,1302.87 308.97,1301.66 318.089,1297.36 337.546,1288.41 342.334,1286.24 360.56,1276.89 390.28,1262.9 391.582,1262.19 394.691,1260.53 396.781,1259.43 398.407,1258.44 399.161,1257.93 407.454,1252.59 411.276,1250.32 415.222,1247.73 417.453,1246.33 435.955,1235.9 440.719,1233.45 445.03,1231.28 449.81,1228.54 450.666,1227.99 451.164,1227.67 466.964,1218.45 472.839,1215.34 473.327,1215.09 483.402,1210.01 489.537,1206.54 497.787,1201.53 503.366,1198.38 506.904,1196.46 519.69,1189.01 526.435,1185.41 527.039,1185.1 528.224,1184.38 531.025,1182.73 535.448,1180.21 539.297,1178.09 539.573,1177.94 539.826,1177.81 543.392,1175.91 543.536,1175.83 580.855,1157.74 581.062,1157.65 581.366,1157.51 583.637,1156.46 585.633,1155.37 599.579,1147.24 601.259,1146.33 601.728,1146.03 603.251,1145.09 610.45,1140.31 614.335,1137.91 620.84,1134.13 627.435,1130.51 639.267,1124.43 639.3,1124.41 658.832,1113.85 662.414,1112.06 668.965,1108.84 672.951,1106.92 676.892,1105.05 683.346,1102.02 694.891,1096.68 709.3,1090.11 718.894,1085.78 720.685,1084.81 748.259,1071.12 754.571,1067.67 758.857,1065.07 768.452,1059.64 773.841,1056.78 774.082,1056.65 774.11,1056.64 775.361,1055.99 789.267,1049.05 793.134,1047.19 797.393,1045.17 820.907,1034.28 836.5,1027.2 838.041,1026.51 840.272,1025.5 840.851,1025.24 855.278,1018.75 858.082,1017.26 863.186,1014.61 866.36,1013 866.751,1012.8 866.861,1012.74 875.248,1007.98 883.558,1003.58 903.67,993.689 904.251,993.414 925.018,982.553 925.196,982.465 931.092,979.593 934.206,978.098 936.475,977.018 941.602,974.599 948.536,970.836 958.693,964.897 959.633,964.294 959.768,964.209 975.513,955.032 991.501,946.815 991.567,946.777 992.355,946.251 992.673,946.04 1003.79,939.198 1006.88,937.44 1015.4,932.832 1016.58,932.216 1017.83,931.457 1018.14,931.244 1018.7,930.863 1026.03,925.559 1026.98,924.839 1028.71,923.551 1032.17,920.794 1036.79,917.388 1040.79,914.639 1044.94,911.949 1062.51,900.789 1073.46,894.817 1102.65,880.528 1110.57,876.85 1115.63,874.52 1129.32,867.366 1135.06,864.522 1137.17,863.315 1139.17,862.19 1144.3,859.392 1146.05,858.314 1146.11,858.274 1149.81,856.065 1152.32,854.619 1157.05,851.592 1161.2,849.083 1163.64,847.662 1176.18,840.824 1177.65,839.936 1189.57,833.197 1194.02,830.846 1221.6,817.349 1232.46,811.542 1246.03,804.777 1257.21,798.664 1261.25,796.574 1277.83,788.408 1283.32,785.806 1286.12,784.494 1293.42,781.097 1315.13,771.179 1323.66,767.323 1325.21,766.491 1339.86,759.005 1350.85,753.7 1351.13,753.543 1356.94,750.355 1360.62,748.102 1364.5,745.824 1377.87,738.568 1379.87,737.364 1379.93,737.328 1433.78,706.642 1436.29,705.238 1447.59,699.245 1458.35,693.883 1471.15,687.778 1473.62,686.411 1481.08,681.87 1483.68,680.379 1491.68,675.984 1495.78,673.504 1497.04,672.763 1498.07,672.16 1498.39,671.976 1499.69,671.119 1502.67,669.213 1509.27,664.718 1514.92,661.191 1516.77,660.086 1523.03,656.012 1528.06,652.967 1530.43,651.393 1534.59,648.407 1538.11,646.025 1544.36,642.083 1547.66,639.847 1548.6,639.225 1549.04,638.901 1549.35,638.676 1559.95,631.52 1560.28,631.291 1571.6,623.885 1572.87,623.124 1587.03,615.213 1591.61,612.835 1613.62,600.828 1617.39,598.942 1619.24,598.03 1620.81,597.123 1629.34,592.419 1630.65,591.611 1635.28,588.848 1645.99,582.919 1651.2,580.205 1653.01,579.122 1686.53,561.644 1701.8,553.473 1725.01,542.206 1726.9,541.322 1732.49,538.725 1744.84,533.057 1749.13,531.102 1798.97,508.674 1811.46,503.084 1814.45,501.498 1815.42,500.99 1820.77,497.812 1830.37,492.507 1839.34,487.876 1849.73,482.758 1851.03,482.13 1853.84,480.55 1860.16,477.129 1892.5,459.741 1908.96,451.91 1916.64,447.765 1929.69,441.171 1941.91,434.456 1949.77,430.434 1955.86,427.425 1962.24,424.344 1965.28,422.64 1971.17,419.463 1971.7,419.184 1974.14,417.912 1976.76,416.341 1999.98,402.608 2005.49,399.744 2016.97,394.034 2035.7,385.173 2065.09,371.761 2067.77,370.325 2068.48,369.946 2074.91,366.624 2081.45,363.353 2081.86,363.12 2089.37,358.918 2104.92,350.902 2107.61,349.359 2111.8,346.677 2122.25,339.802 2122.71,339.519 2138.54,330.599 2140.54,329.553 2145.62,326.543 2146.39,326.032 2150.24,323.245 2153.14,321.255 2154.05,320.654 2157.04,318.72 2167.42,311.779 2172.25,308.86 2198.21,295.099 2204.46,292.064 2206.9,290.896 2208.77,290.004 2210.51,289.18 2213.55,287.751 2236.95,276.965 2242.71,274.353 2245.77,272.965 2251.58,269.888 2251.63,269.863 2252.34,269.49 2263.51,263.875 2264.23,263.524 2267.11,261.886 2267.38,261.729 2272.09,259.141 2277.26,256.406 2288.71,250.631 2294.16,247.983 2298.1,246.096 2301.2,244.625 2302.79,243.879 2317.97,235.848 2322.2,233.735 2324.06,232.82 2326.03,231.685 2334.99,226.779 2352.76,217.837 "/>
<polyline clip-path="url(#clip332)" style="stroke:#e26f46; stroke-linecap:round; stroke-linejoin:round; stroke-width:4; stroke-opacity:1; fill:none" points="140.696,1384.24 140.696,1384.24 143.413,1382.79 152.013,1378.38 155.54,1376.63 157.522,1375.66 166.581,1371.29 169.37,1369.74 190.142,1359.05 197.609,1355.45 204.37,1351.73 205.548,1351.11 205.833,1350.95 212.318,1347.59 248.127,1330.48 252.093,1328.66 255.748,1326.99 255.827,1326.96 266.804,1321.98 274.548,1318.48 277.566,1317.12 282.1,1315.08 303.258,1305.58 306.431,1304.16 308.97,1302.81 318.089,1298.13 337.546,1288.73 342.334,1286.5 360.56,1277.01 390.28,1262.93 391.582,1262.22 394.691,1260.55 396.781,1259.45 398.407,1258.61 399.161,1258.15 407.454,1253.37 411.276,1251.28 415.222,1248.87 417.453,1247.55 435.955,1237.56 440.719,1235.17 445.03,1233.06 449.81,1230.75 450.666,1230.26 451.164,1229.98 466.964,1221.62 472.839,1218.7 473.327,1218.46 483.402,1213.61 489.537,1210.25 497.787,1205.95 503.366,1203.15 506.904,1201.41 519.69,1194.43 526.435,1190.98 527.039,1190.68 528.224,1190.09 531.025,1188.7 535.448,1186.55 539.297,1184.7 539.573,1184.54 539.826,1184.4 543.392,1182.42 543.536,1182.34 580.855,1163.85 581.062,1163.75 581.366,1163.61 583.637,1162.56 585.633,1161.46 599.579,1153.29 601.259,1152.38 601.728,1152.09 603.251,1151.14 610.45,1146.35 614.335,1143.95 620.84,1139.65 627.435,1135.14 639.267,1127.98 639.3,1127.96 658.832,1116.5 662.414,1114.61 668.965,1111.26 672.951,1109.27 676.892,1107.34 683.346,1104.24 694.891,1098.01 709.3,1090.81 718.894,1086.23 720.685,1085.23 748.259,1069.82 754.571,1066.2 758.857,1063.5 768.452,1057.93 773.841,1054.57 774.082,1054.43 774.11,1054.41 775.361,1053.67 789.267,1045.95 793.134,1043.94 797.393,1041.79 820.907,1029.18 836.5,1021.65 838.041,1020.92 840.272,1019.69 840.851,1019.37 855.278,1011.86 858.082,1010.23 863.186,1007.38 866.36,1005.4 866.751,1005.16 866.861,1005.1 875.248,999.6 883.558,994.692 903.67,984.126 904.251,983.839 925.018,972.706 925.196,972.617 931.092,969.704 934.206,968.191 936.475,966.907 941.602,964.096 948.536,959.926 958.693,953.579 959.633,952.947 959.768,952.857 975.513,943.338 991.501,934.95 991.567,934.911 992.355,934.448 992.673,934.263 1003.79,927.322 1006.88,925.544 1015.4,920.894 1016.58,920.273 1017.83,919.509 1018.14,919.322 1018.7,918.987 1026.03,914.759 1026.98,914.236 1028.71,913.289 1032.17,911.427 1036.79,909.017 1040.79,906.98 1044.94,904.908 1062.51,895.394 1073.46,889.957 1102.65,876.287 1110.57,872.677 1115.63,870.38 1129.32,864.202 1135.06,861.619 1137.17,860.672 1139.17,859.602 1144.3,856.923 1146.05,855.88 1146.11,855.836 1149.81,853.387 1152.32,851.801 1157.05,848.547 1161.2,845.875 1163.64,844.372 1176.18,837.225 1177.65,836.311 1189.57,828.586 1194.02,825.983 1221.6,811.67 1232.46,806.504 1246.03,800.206 1257.21,794.313 1261.25,792.279 1277.83,783.214 1283.32,779.998 1286.12,778.427 1293.42,774.488 1315.13,763.694 1323.66,759.669 1325.21,758.947 1339.86,752.194 1350.85,747.197 1351.13,747.046 1356.94,743.968 1360.62,741.771 1364.5,739.543 1377.87,732.406 1379.87,731.387 1379.93,731.36 1433.78,706.102 1436.29,704.967 1447.59,699.875 1458.35,695.038 1471.15,689.302 1473.62,687.986 1481.08,683.566 1483.68,682.109 1491.68,677.797 1495.78,675.683 1497.04,675.043 1498.07,674.517 1498.39,674.357 1499.69,673.704 1502.67,672.225 1509.27,668.496 1514.92,665.467 1516.77,664.5 1523.03,660.816 1528.06,658.014 1530.43,656.537 1534.59,653.698 1538.11,651.13 1544.36,646.435 1547.66,643.877 1548.6,643.172 1549.04,642.811 1549.35,642.56 1559.95,634.696 1560.28,634.45 1571.6,626.586 1572.87,625.788 1587.03,617.568 1591.61,615.125 1613.62,602.94 1617.39,600.728 1619.24,599.675 1620.81,598.792 1629.34,594.195 1630.65,593.4 1635.28,590.677 1645.99,584.815 1651.2,582.123 1653.01,581.048 1686.53,563.631 1701.8,555.469 1725.01,544.208 1726.9,543.324 1732.49,540.728 1744.84,535.061 1749.13,533.106 1798.97,510.679 1811.46,505.09 1814.45,503.753 1815.42,503.319 1820.77,500.498 1830.37,495.655 1839.34,491.308 1849.73,485.66 1851.03,484.982 1853.84,483.539 1860.16,480.368 1892.5,465.099 1908.96,457.611 1916.64,453.557 1929.69,447.062 1941.91,441.242 1949.77,437.585 1955.86,434.782 1962.24,431.865 1965.28,430.479 1971.17,427.807 1971.7,427.567 1974.14,426.465 1976.76,425.056 1999.98,412.168 2005.49,409.406 2016.97,403.841 2035.7,395.104 2065.09,381.761 2067.77,380.327 2068.48,379.95 2074.91,376.633 2081.45,373.366 2081.86,373.169 2089.37,368.96 2104.92,360.936 2107.61,359.392 2111.8,356.709 2122.25,349.832 2122.71,349.548 2138.54,339.611 2140.54,338.481 2145.62,335.287 2146.39,334.751 2150.24,331.854 2153.14,329.793 2154.05,329.171 2157.04,327.175 2167.42,320.816 2172.25,318.089 2198.21,304.874 2204.46,301.9 2206.9,300.752 2208.77,299.874 2210.51,298.912 2213.55,297.266 2236.95,285.512 2242.71,282.78 2245.77,281.341 2251.58,278.64 2251.63,278.617 2252.34,278.284 2263.51,273.153 2264.23,272.825 2267.11,271.274 2267.38,271.125 2272.09,268.657 2277.26,266.026 2288.71,260.414 2294.16,257.818 2298.1,255.961 2301.2,254.512 2302.79,253.775 2317.97,246.794 2322.2,244.867 2324.06,244.023 2326.03,242.958 2334.99,238.302 2352.76,229.637 "/>
<polyline clip-path="url(#clip332)" style="stroke:#3da44d; stroke-linecap:round; stroke-linejoin:round; stroke-width:4; stroke-opacity:1; fill:none" points="140.696,1384.24 140.696,1384.24 143.413,1383.02 152.013,1378.54 155.54,1376.47 157.522,1375.34 166.581,1370.42 169.37,1368.97 190.142,1357.53 197.609,1353.79 204.37,1350.51 205.548,1349.94 205.833,1349.81 212.318,1346.73 248.127,1330.31 252.093,1328.19 255.748,1326.29 255.827,1326.25 266.804,1319.99 274.548,1315.31 277.566,1313.59 282.1,1311.1 303.258,1300.36 306.431,1298.57 308.97,1297.17 318.089,1291.7 337.546,1281.38 342.334,1278.63 360.56,1267.94 390.28,1251.69 391.582,1250.94 394.691,1248.91 396.781,1247.42 398.407,1246.29 399.161,1245.71 407.454,1239.2 411.276,1236.5 415.222,1233.56 417.453,1231.8 435.955,1218.27 440.719,1214.97 445.03,1211.83 449.81,1208.59 450.666,1208.03 451.164,1207.67 466.964,1196.4 472.839,1192.82 473.327,1192.54 483.402,1186.91 489.537,1183.22 497.787,1178.6 503.366,1175.2 506.904,1173.15 519.69,1166.25 526.435,1162.31 527.039,1161.97 528.224,1161.31 531.025,1159.54 535.448,1156.86 539.297,1154.32 539.573,1154.14 539.826,1153.96 543.392,1151.14 543.536,1151.02 580.855,1125.41 581.062,1125.28 581.366,1125.09 583.637,1123.5 585.633,1122.14 599.579,1113.61 601.259,1112.52 601.728,1112.18 603.251,1110.96 610.45,1105.64 614.335,1102.7 620.84,1098.19 627.435,1094.03 639.267,1086.46 639.3,1086.44 658.832,1074.64 662.414,1072.42 668.965,1068.07 672.951,1065.61 676.892,1063.28 683.346,1059.66 694.891,1053.62 709.3,1046.55 718.894,1041.33 720.685,1040.24 748.259,1025.45 754.571,1022.38 758.857,1020.33 768.452,1015.13 773.841,1012.35 774.082,1012.23 774.11,1012.21 775.361,1011.47 789.267,1003.8 793.134,1001.8 797.393,999.648 820.907,988.368 836.5,980.186 838.041,979.417 840.272,978.313 840.851,977.977 855.278,970.13 858.082,968.458 863.186,965.131 866.36,963.171 866.751,962.935 866.861,962.869 875.248,958.035 883.558,953.58 903.67,942.425 904.251,942.127 925.018,930.756 925.196,930.65 931.092,926.777 934.206,924.851 936.475,923.493 941.602,920.129 948.536,915.921 958.693,909.535 959.633,908.983 959.768,908.892 975.513,899.299 991.501,890.874 991.567,890.841 992.355,890.446 992.673,890.287 1003.79,884.86 1006.88,883.386 1015.4,879.385 1016.58,878.837 1017.83,878.255 1018.14,878.111 1018.7,877.803 1026.03,873.877 1026.98,873.386 1028.71,872.494 1032.17,870.732 1036.79,868.06 1040.79,865.507 1044.94,862.649 1062.51,851.04 1073.46,844.147 1102.65,827.335 1110.57,822.779 1115.63,820.031 1129.32,813.038 1135.06,809.783 1137.17,808.63 1139.17,807.553 1144.3,804.857 1146.05,803.808 1146.11,803.77 1149.81,801.616 1152.32,800.203 1157.05,797.611 1161.2,795.414 1163.64,793.946 1176.18,786.068 1177.65,785.219 1189.57,778.719 1194.02,776.069 1221.6,761.605 1232.46,756.415 1246.03,749.189 1257.21,743.646 1261.25,741.37 1277.83,732.714 1283.32,730.014 1286.12,728.661 1293.42,724.621 1315.13,712.423 1323.66,707.491 1325.21,706.637 1339.86,699.008 1350.85,693.642 1351.13,693.509 1356.94,690.294 1360.62,688.027 1364.5,685.418 1377.87,677.375 1379.87,676.261 1379.93,676.232 1433.78,650.051 1436.29,648.907 1447.59,643.782 1458.35,638.161 1471.15,631.001 1473.62,629.492 1481.08,625.171 1483.68,623.521 1491.68,618.137 1495.78,615.607 1497.04,614.744 1498.07,614.043 1498.39,613.803 1499.69,612.834 1502.67,610.696 1509.27,605.784 1514.92,601.54 1516.77,600.078 1523.03,594.992 1528.06,591.315 1530.43,589.489 1534.59,586.121 1538.11,583.466 1544.36,579.135 1547.66,577.006 1548.6,576.412 1549.04,576.102 1549.35,575.885 1559.95,568.213 1560.28,567.971 1571.6,559.436 1572.87,558.471 1587.03,548.911 1591.61,545.818 1613.62,533.088 1617.39,531.136 1619.24,530.037 1620.81,529.117 1629.34,523.726 1630.65,522.834 1635.28,519.435 1645.99,511.694 1651.2,508.366 1653.01,507.101 1686.53,486.387 1701.8,477.754 1725.01,466.181 1726.9,465.283 1732.49,462.21 1744.84,455.829 1749.13,453.705 1798.97,430.563 1811.46,424.08 1814.45,422.594 1815.42,422.031 1820.77,419.014 1830.37,413.22 1839.34,407.627 1849.73,401.782 1851.03,401.084 1853.84,399.604 1860.16,395.873 1892.5,379.288 1908.96,371.588 1916.64,368.059 1929.69,362.13 1941.91,356.612 1949.77,353.078 1955.86,349.869 1962.24,346.132 1965.28,344.43 1971.17,340.793 1971.7,340.478 1974.14,339.052 1976.76,337.332 1999.98,322.829 2005.49,319.873 2016.97,314.029 2035.7,305.056 2065.09,290.117 2067.77,288.842 2068.48,288.504 2074.91,285.491 2081.45,282.455 2081.86,282.27 2089.37,278.822 2104.92,271.756 2107.61,270.545 2111.8,268.652 2122.25,263.952 2122.71,263.703 2138.54,255.607 2140.54,254.459 2145.62,251.226 2146.39,250.685 2150.24,247.765 2153.14,245.688 2154.05,244.983 2157.04,242.484 2167.42,234.816 2172.25,231.657 2198.21,215.838 2204.46,212.087 2206.9,210.482 2208.77,209.125 2210.51,207.902 2213.55,205.594 2236.95,190.878 2242.71,187.782 2245.77,186.183 2251.58,183.234 2251.63,183.206 2252.34,182.72 2263.51,175.748 2264.23,175.331 2267.11,173.69 2267.38,173.508 2272.09,170.539 2277.26,167.056 2288.71,159.327 2294.16,156.046 2298.1,153.464 2301.2,151.527 2302.79,150.567 2317.97,142.08 2322.2,139.541 2324.06,138.462 2326.03,137.169 2334.99,131.034 2352.76,120.722 "/>
<polyline clip-path="url(#clip332)" style="stroke:#c271d2; stroke-linecap:round; stroke-linejoin:round; stroke-width:4; stroke-opacity:1; fill:none" points="140.696,1384.24 140.696,1384.24 143.413,1383.02 152.013,1378.54 155.54,1376.47 157.522,1375.34 166.581,1369.75 169.37,1368.14 190.142,1355.99 197.609,1352.12 204.37,1348.75 205.548,1348.17 205.833,1348.01 212.318,1344.38 248.127,1326.63 252.093,1324.79 255.748,1323.1 255.827,1323.06 266.804,1318.04 274.548,1313.93 277.566,1312.39 282.1,1310.11 303.258,1298.75 306.431,1297.17 308.97,1295.93 318.089,1290.87 337.546,1281.03 342.334,1278.73 360.56,1270.21 390.28,1255.24 391.582,1254.62 394.691,1252.9 396.781,1251.59 398.407,1250.59 399.161,1250.13 407.454,1245.35 411.276,1242.95 415.222,1240.59 417.453,1239.1 435.955,1227.1 440.719,1224.03 445.03,1221.06 449.81,1217.97 450.666,1217.44 451.164,1217.09 466.964,1206.12 472.839,1202.62 473.327,1202.29 483.402,1195.31 489.537,1191.53 497.787,1186.82 503.366,1183.38 506.904,1181.01 519.69,1173.31 526.435,1169.62 527.039,1169.3 528.224,1168.67 531.025,1166.98 535.448,1164.05 539.297,1161.32 539.573,1161.13 539.826,1160.93 543.392,1157.98 543.536,1157.85 580.855,1131.58 581.062,1131.47 581.366,1131.3 583.637,1129.88 585.633,1128.67 599.579,1120.83 601.259,1119.8 601.728,1119.52 603.251,1118.6 610.45,1114.49 614.335,1112.37 620.84,1108.96 627.435,1105.63 639.267,1099.06 639.3,1099.04 658.832,1088.07 662.414,1085.94 668.965,1081.72 672.951,1079.32 676.892,1076.73 683.346,1072.75 694.891,1066.28 709.3,1058.92 718.894,1054.27 720.685,1053.42 748.259,1040.66 754.571,1037.79 758.857,1035.85 768.452,1030.83 773.841,1028.12 774.082,1028 774.11,1027.99 775.361,1027.15 789.267,1018.72 793.134,1016.26 797.393,1013.34 820.907,999.68 836.5,991.858 838.041,991.113 840.272,990.04 840.851,989.712 855.278,982.005 858.082,980.587 863.186,977.648 866.36,975.889 866.751,975.675 866.861,975.615 875.248,971.184 883.558,967.003 903.67,956.211 904.251,955.92 925.018,945.906 925.196,945.807 931.092,942.138 934.206,940.301 936.475,938.999 941.602,936.154 948.536,932.483 958.693,927.368 959.633,926.907 959.768,926.829 975.513,917.291 991.501,908.893 991.567,908.86 992.355,908.466 992.673,908.279 1003.79,902.09 1006.88,900.205 1015.4,895.325 1016.58,894.679 1017.83,893.998 1018.14,893.831 1018.7,893.531 1026.03,889.692 1026.98,889.21 1028.71,888.335 1032.17,886.601 1036.79,884.334 1040.79,882.071 1044.94,879.463 1062.51,869.612 1073.46,863.29 1102.65,847.139 1110.57,843.253 1115.63,840.419 1129.32,833.272 1135.06,829.976 1137.17,828.81 1139.17,827.722 1144.3,824.591 1146.05,823.567 1146.11,823.529 1149.81,821.115 1152.32,819.337 1157.05,816.156 1161.2,813.197 1163.64,811.343 1176.18,802.026 1177.65,801.055 1189.57,793.813 1194.02,790.972 1221.6,775.895 1232.46,770.607 1246.03,763.31 1257.21,757.733 1261.25,755.449 1277.83,746.77 1283.32,744.066 1286.12,742.711 1293.42,738.667 1315.13,726.462 1323.66,721.529 1325.21,720.676 1339.86,713.045 1350.85,707.679 1351.13,707.545 1356.94,704.788 1360.62,703.058 1364.5,700.929 1377.87,693.124 1379.87,692.035 1379.93,692.006 1433.78,666.068 1436.29,664.926 1447.59,659.81 1458.35,654.194 1471.15,647.037 1473.62,645.738 1481.08,641.926 1483.68,640.418 1491.68,635.981 1495.78,633.818 1497.04,633.055 1498.07,632.343 1498.39,632.099 1499.69,631.116 1502.67,628.7 1509.27,623.798 1514.92,619.562 1516.77,618.101 1523.03,613.509 1528.06,610.14 1530.43,608.638 1534.59,606.101 1538.11,604.04 1544.36,600.556 1547.66,598.789 1548.6,598.206 1549.04,597.939 1549.35,597.726 1559.95,590.89 1560.28,590.696 1571.6,583.486 1572.87,582.741 1587.03,574.023 1591.61,571.475 1613.62,560.255 1617.39,558.442 1619.24,557.403 1620.81,556.532 1629.34,551.348 1630.65,550.595 1635.28,548.003 1645.99,541.595 1651.2,538.719 1653.01,537.744 1686.53,519.701 1701.8,512.439 1725.01,501.773 1726.9,500.916 1732.49,498.386 1744.84,492.819 1749.13,490.538 1798.97,464.947 1811.46,458.337 1814.45,456.83 1815.42,456.345 1820.77,453.706 1830.37,449.098 1839.34,444.235 1849.73,438.942 1851.03,438.297 1853.84,436.921 1860.16,433.382 1892.5,417.246 1908.96,408.575 1916.64,404.786 1929.69,398.577 1941.91,392.91 1949.77,388.722 1955.86,385.143 1962.24,381.112 1965.28,379.296 1971.17,375.942 1971.7,375.602 1974.14,374.07 1976.76,372.469 1999.98,359.874 2005.49,357.147 2016.97,351.633 2035.7,342.938 2065.09,329.62 2067.77,328.413 2068.48,328.029 2074.91,324.66 2081.45,321.352 2081.86,321.153 2089.37,317.482 2104.92,309.131 2107.61,307.775 2111.8,305.688 2122.25,300.637 2122.71,300.416 2138.54,293.021 2140.54,292.102 2145.62,289.773 2146.39,289.421 2150.24,287.665 2153.14,286.344 2154.05,285.933 2157.04,284.328 2167.42,278.986 2172.25,276.594 2198.21,264.334 2204.46,261.467 2206.9,260.353 2208.77,259.338 2210.51,258.408 2213.55,256.813 2236.95,243.988 2242.71,241.124 2245.77,239.627 2251.58,236.836 2251.63,236.809 2252.34,236.34 2263.51,229.571 2264.23,229.101 2267.11,227.263 2267.38,227.062 2272.09,223.445 2277.26,219.39 2288.71,210.779 2294.16,207.212 2298.1,204.786 2301.2,202.695 2302.79,201.527 2317.97,191.645 2322.2,189.202 2324.06,188.161 2326.03,187.072 2334.99,181.671 2352.76,171.08 "/>
<polyline clip-path="url(#clip332)" style="stroke:#ac8d18; stroke-linecap:round; stroke-linejoin:round; stroke-width:4; stroke-opacity:1; fill:none" points="140.696,1384.24 140.696,1384.24 143.413,1382.79 152.013,1378.38 155.54,1376.63 157.522,1375.49 166.581,1369.85 169.37,1367.99 190.142,1355.94 197.609,1352.08 204.37,1348.2 205.548,1347.55 205.833,1347.36 212.318,1343.39 248.127,1324.83 252.093,1322.96 255.748,1320.94 255.827,1320.9 266.804,1315.16 274.548,1311.31 277.566,1309.84 282.1,1307.3 303.258,1295.21 306.431,1293.57 308.97,1292.06 318.089,1286.95 337.546,1277.06 342.334,1274.75 360.56,1266.22 390.28,1252.71 391.582,1252.12 394.691,1250.72 396.781,1249.78 398.407,1248.91 399.161,1248.51 407.454,1244.23 411.276,1242 415.222,1239.79 417.453,1238.57 435.955,1229.12 440.719,1226.82 445.03,1224.76 449.81,1222.12 450.666,1221.58 451.164,1221.27 466.964,1212.25 472.839,1209.18 473.327,1208.88 483.402,1202.42 489.537,1198.85 497.787,1193.74 503.366,1190.54 506.904,1188.3 519.69,1180.04 526.435,1176.17 527.039,1175.83 528.224,1175.08 531.025,1173.34 535.448,1170.34 539.297,1167.89 539.573,1167.69 539.826,1167.51 543.392,1165.07 543.536,1164.97 580.855,1144.31 581.062,1144.21 581.366,1144.06 583.637,1142.96 585.633,1141.82 599.579,1133.46 601.259,1132.53 601.728,1132.28 603.251,1131.45 610.45,1127.11 614.335,1124.9 620.84,1120.86 627.435,1116.54 639.267,1109.61 639.3,1109.59 658.832,1098.32 662.414,1096.45 668.965,1093.13 672.951,1091.15 676.892,1088.91 683.346,1085.4 694.891,1078.68 709.3,1071.14 718.894,1066.43 720.685,1065.57 748.259,1051.3 754.571,1047.79 758.857,1045.16 768.452,1039.69 773.841,1036.38 774.082,1036.23 774.11,1036.21 775.361,1035.37 789.267,1026.84 793.134,1024.37 797.393,1021.44 820.907,1006.42 836.5,998.236 838.041,997.467 840.272,996.173 840.851,995.842 855.278,988.08 858.082,986.656 863.186,984.113 866.36,982.295 866.751,982.075 866.861,982.003 875.248,976.204 883.558,971.09 903.67,960.252 904.251,959.96 925.018,949.928 925.196,949.845 931.092,947.097 934.206,945.656 936.475,944.418 941.602,941.695 948.536,937.617 958.693,932.092 959.633,931.52 959.768,931.438 975.513,921.598 991.501,913.049 991.567,913.009 992.355,912.472 992.673,912.229 1003.79,903.712 1006.88,901.359 1015.4,895.481 1016.58,894.725 1017.83,893.824 1018.14,893.577 1018.7,893.136 1026.03,887.169 1026.98,886.379 1028.71,884.969 1032.17,881.995 1036.79,878.347 1040.79,875.424 1044.94,872.584 1062.51,862.113 1073.46,856.365 1102.65,842.335 1110.57,838.686 1115.63,835.964 1129.32,828.104 1135.06,825.07 1137.17,823.805 1139.17,822.459 1144.3,818.764 1146.05,817.575 1146.11,817.526 1149.81,814.5 1152.32,812.362 1157.05,808.219 1161.2,804.569 1163.64,802.57 1176.18,793.576 1177.65,792.505 1189.57,783.828 1194.02,780.98 1221.6,765.879 1232.46,759.818 1246.03,752.868 1257.21,746.667 1261.25,744.555 1277.83,735.282 1283.32,732.025 1286.12,730.437 1293.42,726.46 1315.13,715.608 1323.66,711.572 1325.21,710.714 1339.86,703.053 1350.85,697.674 1351.13,697.516 1356.94,694.301 1360.62,692.338 1364.5,690.319 1377.87,682.777 1379.87,681.544 1379.93,681.506 1433.78,650.529 1436.29,649.122 1447.59,643.118 1458.35,637.751 1471.15,631.641 1473.62,630.483 1481.08,626.449 1483.68,625.098 1491.68,621.046 1495.78,618.699 1497.04,617.996 1498.07,617.33 1498.39,617.128 1499.69,616.198 1502.67,613.891 1509.27,609.187 1514.92,605.524 1516.77,604.381 1523.03,600.689 1528.06,597.882 1530.43,596.603 1534.59,594.407 1538.11,592.296 1544.36,588.256 1547.66,585.977 1548.6,585.261 1549.04,584.934 1549.35,584.68 1559.95,576.715 1560.28,576.495 1571.6,569.35 1572.87,568.611 1587.03,559.937 1591.61,557.399 1613.62,544.95 1617.39,542.714 1619.24,541.65 1620.81,540.623 1629.34,535.398 1630.65,534.64 1635.28,532.031 1645.99,526.358 1651.2,523.731 1653.01,522.83 1686.53,507.024 1701.8,500.081 1725.01,489.626 1726.9,488.779 1732.49,486.273 1744.84,480.74 1749.13,478.468 1798.97,452.912 1811.46,447.16 1814.45,445.546 1815.42,445.03 1820.77,441.814 1830.37,436.459 1839.34,431.797 1849.73,425.911 1851.03,425.21 1853.84,423.486 1860.16,419.799 1892.5,401.787 1908.96,392.813 1916.64,388.361 1929.69,381.438 1941.91,374.547 1949.77,369.86 1955.86,366.475 1962.24,363.094 1965.28,361.275 1971.17,357.915 1971.7,357.575 1974.14,356.041 1976.76,354.438 1999.98,341.834 2005.49,339.105 2016.97,333.59 2035.7,324.894 2065.09,311.574 2067.77,310.142 2068.48,309.702 2074.91,305.903 2081.45,302.268 2081.86,302.016 2089.37,296.943 2104.92,286.83 2107.61,285.05 2111.8,282.052 2122.25,274.602 2122.71,274.299 2138.54,263.884 2140.54,262.715 2145.62,259.84 2146.39,259.415 2150.24,257.331 2153.14,255.798 2154.05,255.327 2157.04,253.788 2167.42,247.875 2172.25,245.295 2198.21,232.499 2204.46,229.572 2206.9,228.439 2208.77,227.571 2210.51,226.618 2213.55,224.986 2236.95,211.996 2242.71,209.112 2245.77,207.606 2251.58,204.345 2251.63,204.318 2252.34,203.925 2263.51,198.074 2264.23,197.648 2267.11,195.734 2267.38,195.552 2272.09,192.207 2277.26,188.804 2288.71,181.999 2294.16,179.018 2298.1,176.935 2301.2,175.074 2302.79,174.012 2317.97,163.856 2322.2,161.365 2324.06,160.305 2326.03,159.198 2334.99,154.393 2352.76,144.465 "/>
<polyline clip-path="url(#clip332)" style="stroke:#00a9ad; stroke-linecap:round; stroke-linejoin:round; stroke-width:4; stroke-opacity:1; fill:none" points="140.696,1384.24 140.696,1384.24 143.413,1383.02 152.013,1379.18 155.54,1377.6 157.522,1376.72 166.581,1372 169.37,1370.6 190.142,1360.6 197.609,1357.13 204.37,1354.02 205.548,1353.38 205.833,1353.2 212.318,1348.77 248.127,1329.12 252.093,1327.2 255.748,1325.45 255.827,1325.41 266.804,1319.47 274.548,1315.54 277.566,1314.04 282.1,1311.83 303.258,1300.64 306.431,1299.08 308.97,1297.84 318.089,1293.48 337.546,1283.29 342.334,1280.94 360.56,1271.2 390.28,1256.97 391.582,1256.26 394.691,1254.58 396.781,1253.48 398.407,1252.63 399.161,1252.17 407.454,1247.38 411.276,1244.97 415.222,1242.28 417.453,1240.83 435.955,1230.11 440.719,1227.61 445.03,1225.42 449.81,1223.04 450.666,1222.61 451.164,1222.37 466.964,1214.82 472.839,1212.08 473.327,1211.81 483.402,1205.74 489.537,1201.86 497.787,1197.05 503.366,1194.01 506.904,1191.85 519.69,1184.66 526.435,1181.15 527.039,1180.79 528.224,1180.09 531.025,1178.47 535.448,1175.63 539.297,1173.29 539.573,1173.13 539.826,1172.98 543.392,1170.91 543.536,1170.82 580.855,1151.92 581.062,1151.82 581.366,1151.68 583.637,1150.61 585.633,1149.68 599.579,1143.25 601.259,1142.49 601.728,1142.23 603.251,1141.41 610.45,1137.63 614.335,1135.66 620.84,1132.44 627.435,1129.26 639.267,1123.69 639.3,1123.67 658.832,1114.71 662.414,1113.08 668.965,1110.12 672.951,1108.32 676.892,1106.22 683.346,1102.89 694.891,1097.2 709.3,1090.39 718.894,1085.96 720.685,1084.98 748.259,1071.17 754.571,1068.2 758.857,1066.2 768.452,1061.78 773.841,1059.32 774.082,1059.18 774.11,1059.17 775.361,1058.38 789.267,1050.34 793.134,1047.96 797.393,1045.1 820.907,1031.65 836.5,1023.88 838.041,1023.01 840.272,1021.76 840.851,1021.45 855.278,1013.9 858.082,1012.27 863.186,1009.41 866.36,1007.7 866.751,1007.45 866.861,1007.38 875.248,1002.42 883.558,997.263 903.67,986.362 904.251,986.068 925.018,974.8 925.196,974.71 931.092,971.777 934.206,969.995 936.475,968.73 941.602,965.956 948.536,962.358 958.693,956.586 959.633,956.077 959.768,956.005 975.513,946.921 991.501,937.728 991.567,937.693 992.355,937.273 992.673,937.076 1003.79,930.603 1006.88,928.661 1015.4,923.659 1016.58,922.897 1017.83,922.1 1018.14,921.904 1018.7,921.556 1026.03,917.17 1026.98,916.63 1028.71,915.505 1032.17,913.327 1036.79,910.563 1040.79,908.274 1044.94,905.982 1062.51,895.885 1073.46,890.258 1102.65,876.369 1110.57,872.735 1115.63,870.021 1129.32,863.091 1135.06,860.306 1137.17,859.297 1139.17,858.345 1144.3,855.512 1146.05,854.425 1146.11,854.385 1149.81,851.852 1152.32,850.004 1157.05,846.711 1161.2,843.671 1163.64,841.982 1176.18,834.142 1177.65,833.296 1189.57,826.814 1194.02,824.529 1221.6,811.245 1232.46,806.242 1246.03,800.063 1257.21,795.013 1261.25,793.194 1277.83,785.747 1283.32,783.287 1286.12,782.035 1293.42,778.765 1315.13,769.049 1323.66,765.233 1325.21,764.541 1339.86,757.029 1350.85,751.712 1351.13,751.58 1356.94,748.84 1360.62,746.816 1364.5,744.743 1377.87,737.072 1379.87,735.997 1379.93,735.968 1433.78,710.166 1436.29,709.025 1447.59,703.121 1458.35,697.81 1471.15,691.741 1473.62,690.379 1481.08,686.418 1483.68,685.087 1491.68,681.084 1495.78,679.091 1497.04,678.484 1498.07,677.893 1498.39,677.714 1499.69,676.985 1502.67,675.098 1509.27,670.636 1514.92,667.131 1516.77,666.032 1523.03,661.975 1528.06,658.537 1530.43,656.807 1534.59,653.583 1538.11,651.031 1544.36,646.848 1547.66,644.782 1548.6,644.122 1549.04,643.782 1549.35,643.517 1559.95,635.293 1560.28,635.038 1571.6,626.941 1572.87,626.123 1587.03,616.807 1591.61,614.135 1613.62,602.569 1617.39,600.724 1619.24,599.83 1620.81,599.072 1629.34,595.021 1630.65,594.293 1635.28,591.777 1645.99,586.259 1651.2,583.268 1653.01,582.103 1686.53,563.868 1701.8,555.589 1725.01,542.957 1726.9,541.851 1732.49,538.695 1744.84,532.191 1749.13,529.688 1798.97,503.157 1811.46,497.355 1814.45,495.983 1815.42,495.538 1820.77,493.092 1830.37,488.733 1839.34,484.684 1849.73,480.006 1851.03,479.307 1853.84,477.824 1860.16,474.58 1892.5,459.137 1908.96,450.578 1916.64,446.819 1929.69,439.758 1941.91,433.637 1949.77,429.265 1955.86,426.057 1962.24,422.817 1965.28,421.307 1971.17,418.438 1971.7,418.136 1974.14,416.56 1976.76,414.694 1999.98,399.437 2005.49,395.954 2016.97,388.549 2035.7,378.252 2065.09,364.037 2067.77,362.793 2068.48,362.4 2074.91,358.96 2081.45,355.09 2081.86,354.862 2089.37,350.727 2104.92,341.794 2107.61,340.372 2111.8,338.198 2122.25,332.987 2122.71,332.76 2138.54,325.232 2140.54,324.302 2145.62,321.543 2146.39,321.065 2150.24,318.429 2153.14,316.537 2154.05,315.964 2157.04,314.114 2167.42,308.137 2172.25,305.535 2198.21,292.679 2204.46,289.745 2206.9,288.609 2208.77,287.74 2210.51,286.935 2213.55,285.537 2236.95,273.587 2242.71,270.832 2245.77,269.382 2251.58,266.664 2251.63,266.641 2252.34,266.307 2263.51,261.154 2264.23,260.762 2267.11,259.216 2267.38,259.067 2272.09,256.224 2277.26,253.263 2288.71,247.142 2294.16,243.948 2298.1,241.742 2301.2,239.798 2302.79,238.698 2317.97,229.271 2322.2,226.909 2324.06,225.739 2326.03,224.356 2334.99,218.562 2352.76,207.534 "/>
<polyline clip-path="url(#clip332)" style="stroke:#ed5d92; stroke-linecap:round; stroke-linejoin:round; stroke-width:4; stroke-opacity:1; fill:none" points="140.696,1384.24 140.696,1384.24 143.413,1382.79 152.013,1377.75 155.54,1375.5 157.522,1374.12 166.581,1368.27 169.37,1366.6 190.142,1355.38 197.609,1351.69 204.37,1347.9 205.548,1347.17 205.833,1346.99 212.318,1342.61 248.127,1323.08 252.093,1321.16 255.748,1319.11 255.827,1319.07 266.804,1312.48 274.548,1307.66 277.566,1305.89 282.1,1302.97 303.258,1291.07 306.431,1289.45 308.97,1287.96 318.089,1282.21 337.546,1270.42 342.334,1267.85 360.56,1257.58 390.28,1241.58 391.582,1240.83 394.691,1239.07 396.781,1237.92 398.407,1236.9 399.161,1236.36 407.454,1230.88 411.276,1228.55 415.222,1225.92 417.453,1224.3 435.955,1211.6 440.719,1208.43 445.03,1205.38 449.81,1201.84 450.666,1201.24 451.164,1200.85 466.964,1189.98 472.839,1186.5 473.327,1186.22 483.402,1180.7 489.537,1177.05 497.787,1171.86 503.366,1168.62 506.904,1166.66 519.69,1159.96 526.435,1156.62 527.039,1156.27 528.224,1155.49 531.025,1153.46 535.448,1150.43 539.297,1147.95 539.573,1147.76 539.826,1147.58 543.392,1144.82 543.536,1144.71 580.855,1120.97 581.062,1120.86 581.366,1120.7 583.637,1119.53 585.633,1118.51 599.579,1111.66 601.259,1110.72 601.728,1110.41 603.251,1109.44 610.45,1105.08 614.335,1102.87 620.84,1098.82 627.435,1094.5 639.267,1086.74 639.3,1086.72 658.832,1075.92 662.414,1073.81 668.965,1069.62 672.951,1067.23 676.892,1064.97 683.346,1061.43 694.891,1054.67 709.3,1047.11 718.894,1042.39 720.685,1041.37 748.259,1025.78 754.571,1022.63 758.857,1020.54 768.452,1015.26 773.841,1012.03 774.082,1011.87 774.11,1011.85 775.361,1011.02 789.267,1002.63 793.134,1000.5 797.393,998.223 820.907,985.264 836.5,977.632 838.041,976.767 840.272,975.344 840.851,974.931 855.278,965.675 858.082,963.82 863.186,960.62 866.36,958.462 866.751,958.169 866.861,958.077 875.248,950.985 883.558,944.367 903.67,931.544 904.251,931.217 925.018,919.169 925.196,919.059 931.092,915.085 934.206,912.855 936.475,911.107 941.602,907.407 948.536,902.849 958.693,896.112 959.633,895.535 959.768,895.441 975.513,885.553 991.501,875.958 991.567,875.922 992.355,875.419 992.673,875.217 1003.79,867.844 1006.88,865.979 1015.4,861.143 1016.58,860.399 1017.83,859.62 1018.14,859.402 1018.7,859.013 1026.03,853.616 1026.98,852.886 1028.71,851.432 1032.17,848.38 1036.79,844.644 1040.79,841.658 1044.94,838.425 1062.51,825.816 1073.46,818.597 1102.65,801.409 1110.57,797.409 1115.63,794.925 1129.32,787.493 1135.06,784.121 1137.17,782.752 1139.17,781.316 1144.3,777.834 1146.05,776.557 1146.11,776.505 1149.81,773.619 1152.32,771.775 1157.05,768.487 1161.2,765.791 1163.64,764.069 1176.18,755.248 1177.65,754.319 1189.57,746.505 1194.02,743.518 1221.6,727.968 1232.46,721.836 1246.03,713.923 1257.21,708.056 1261.25,706.028 1277.83,696.98 1283.32,693.768 1286.12,692.198 1293.42,687.704 1315.13,676.017 1323.66,671.82 1325.21,670.938 1339.86,662.159 1350.85,656.31 1351.13,656.167 1356.94,653.238 1360.62,651.117 1364.5,648.638 1377.87,640.904 1379.87,639.651 1379.93,639.613 1433.78,608.442 1436.29,607.032 1447.59,600.228 1458.35,594.395 1471.15,587.956 1473.62,586.545 1481.08,582.461 1483.68,581.097 1491.68,577.012 1495.78,574.652 1497.04,573.945 1498.07,573.367 1498.39,573.191 1499.69,572.364 1502.67,570.521 1509.27,566.139 1514.92,562.686 1516.77,561.442 1523.03,556.976 1528.06,553.283 1530.43,551.451 1534.59,548.073 1538.11,545.118 1544.36,539.873 1547.66,537.356 1548.6,536.66 1549.04,536.304 1549.35,536.057 1559.95,528.281 1560.28,528.037 1571.6,520.23 1572.87,519.436 1587.03,511.255 1591.61,508.82 1613.62,497.911 1617.39,495.817 1619.24,494.815 1620.81,493.837 1629.34,488.823 1630.65,487.977 1635.28,485.096 1645.99,478.212 1651.2,474.759 1653.01,473.456 1686.53,453.955 1701.8,445.495 1725.01,432.743 1726.9,431.632 1732.49,428.463 1744.84,421.938 1749.13,419.78 1798.97,396.494 1811.46,390.859 1814.45,389.265 1815.42,388.755 1820.77,385.992 1830.37,381.224 1839.34,376.263 1849.73,370.151 1851.03,369.315 1853.84,367.327 1860.16,362.659 1892.5,342.346 1908.96,334.045 1916.64,330.355 1929.69,323.369 1941.91,316.445 1949.77,312.337 1955.86,309.28 1962.24,306.16 1965.28,304.441 1971.17,301.241 1971.7,300.96 1974.14,299.474 1976.76,297.696 1999.98,282.893 2005.49,279.464 2016.97,272.137 2035.7,261.907 2065.09,247.728 2067.77,246.486 2068.48,246.156 2074.91,243.202 2081.45,239.705 2081.86,239.46 2089.37,234.5 2104.92,225.533 2107.61,224.108 2111.8,221.928 2122.25,216.707 2122.71,216.481 2138.54,207.929 2140.54,206.914 2145.62,203.97 2146.39,203.468 2150.24,200.721 2153.14,198.757 2154.05,198.163 2157.04,196.002 2167.42,188.469 2172.25,185.355 2198.21,171.038 2204.46,167.941 2206.9,166.754 2208.77,165.848 2210.51,164.862 2213.55,163.18 2236.95,151.26 2242.71,148.509 2245.77,147.06 2251.58,143.888 2251.63,143.858 2252.34,143.412 2263.51,136.915 2264.23,136.521 2267.11,134.965 2267.38,134.816 2272.09,132.34 2277.26,129.703 2288.71,123.28 2294.16,119.989 2298.1,117.725 2301.2,116.002 2302.79,115.139 2317.97,106.326 2322.2,104.073 2324.06,102.945 2326.03,101.603 2334.99,95.9552 2352.76,86.1857 "/>
<polyline clip-path="url(#clip332)" style="stroke:#c68125; stroke-linecap:round; stroke-linejoin:round; stroke-width:4; stroke-opacity:1; fill:none" points="140.696,1384.24 140.696,1384.24 143.413,1383.02 152.013,1379.18 155.54,1377.6 157.522,1376.72 166.581,1372 169.37,1370.36 190.142,1358.08 197.609,1354.19 204.37,1350.8 205.548,1350.12 205.833,1349.93 212.318,1345.31 248.127,1325.22 252.093,1323.28 255.748,1321.52 255.827,1321.48 266.804,1315.51 274.548,1311.56 277.566,1310.06 282.1,1307.85 303.258,1296.64 306.431,1295.08 308.97,1293.84 318.089,1289.48 337.546,1279.28 342.334,1276.94 360.56,1268.3 390.28,1254.73 391.582,1254.15 394.691,1252.48 396.781,1251.21 398.407,1250.24 399.161,1249.79 407.454,1245.11 411.276,1242.75 415.222,1240.42 417.453,1239.14 435.955,1229.37 440.719,1227.02 445.03,1224.92 449.81,1222.64 450.666,1222.16 451.164,1221.88 466.964,1212.55 472.839,1209.41 473.327,1209.11 483.402,1202.57 489.537,1198.96 497.787,1194.43 503.366,1191.08 506.904,1188.76 519.69,1180.3 526.435,1176.36 527.039,1175.97 528.224,1175.21 531.025,1173.45 535.448,1170.44 539.297,1167.65 539.573,1167.46 539.826,1167.26 543.392,1164.55 543.536,1164.44 580.855,1140.96 581.062,1140.85 581.366,1140.69 583.637,1139.33 585.633,1138 599.579,1128.62 601.259,1127.61 601.728,1127.33 603.251,1126.43 610.45,1121.82 614.335,1119.49 620.84,1115.8 627.435,1112.26 639.267,1106.26 639.3,1106.24 658.832,1094.59 662.414,1092.67 668.965,1089.29 672.951,1087.29 676.892,1085.03 683.346,1081.49 694.891,1075.53 709.3,1068.54 718.894,1064.03 720.685,1063.2 748.259,1050.61 754.571,1047.27 758.857,1044.73 768.452,1039.41 773.841,1036.58 774.082,1036.44 774.11,1036.42 775.361,1035.45 789.267,1025.96 793.134,1023.31 797.393,1020.21 820.907,1005.99 836.5,998.022 838.041,997.134 840.272,995.872 840.851,995.548 855.278,987.926 858.082,986.52 863.186,983.597 866.36,981.847 866.751,981.6 866.861,981.53 875.248,976.505 883.558,971.297 903.67,959.15 904.251,958.834 925.018,948.272 925.196,948.185 931.092,945.358 934.206,943.622 936.475,942.387 941.602,939.67 948.536,935.597 958.693,930.078 959.633,929.505 959.768,929.424 975.513,919.588 991.501,910.019 991.567,909.977 992.355,909.475 992.673,909.246 1003.79,901.895 1006.88,899.777 1015.4,894.399 1016.58,893.595 1017.83,892.646 1018.14,892.415 1018.7,892.003 1026.03,886.912 1026.98,886.297 1028.71,885.042 1032.17,882.632 1036.79,879.611 1040.79,876.809 1044.94,874.074 1062.51,863.883 1073.46,858.225 1102.65,844.301 1110.57,840.663 1115.63,837.947 1129.32,831.013 1135.06,828.228 1137.17,827.219 1139.17,826.266 1144.3,823.433 1146.05,822.496 1146.11,822.461 1149.81,820.209 1152.32,818.527 1157.05,815.119 1161.2,811.996 1163.64,810.265 1176.18,802.269 1177.65,801.282 1189.57,793.946 1194.02,791.442 1221.6,777.451 1232.46,772.335 1246.03,766.075 1257.21,760.2 1261.25,757.839 1277.83,748.959 1283.32,746.215 1286.12,744.843 1293.42,741.321 1315.13,729.957 1323.66,725.187 1325.21,724.357 1339.86,715.923 1350.85,710.218 1351.13,710.054 1356.94,706.724 1360.62,704.702 1364.5,702.629 1377.87,694.961 1379.87,693.887 1379.93,693.858 1433.78,668.059 1436.29,666.918 1447.59,661.014 1458.35,654.939 1471.15,647.459 1473.62,646.115 1481.08,641.629 1483.68,639.934 1491.68,635.04 1495.78,632.7 1497.04,631.889 1498.07,631.139 1498.39,630.884 1499.69,629.856 1502.67,627.347 1509.27,622.279 1514.92,617.934 1516.77,616.603 1523.03,612.376 1528.06,608.832 1530.43,607.26 1534.59,604.617 1538.11,602.48 1544.36,598.888 1547.66,596.8 1548.6,596.134 1549.04,595.83 1549.35,595.591 1559.95,588.048 1560.28,587.838 1571.6,580.171 1572.87,579.389 1587.03,570.362 1591.61,567.75 1613.62,555.098 1617.39,553.153 1619.24,552.057 1620.81,551.139 1629.34,545.759 1630.65,544.982 1635.28,542.314 1645.99,536.544 1651.2,533.468 1653.01,532.434 1686.53,513.844 1701.8,506.504 1725.01,494.493 1726.9,493.414 1732.49,490.328 1744.84,483.927 1749.13,481.449 1798.97,455.023 1811.46,448.369 1814.45,446.855 1815.42,446.368 1820.77,443.293 1830.37,438.121 1839.34,433.572 1849.73,428.515 1851.03,427.78 1853.84,426.226 1860.16,422.851 1892.5,407.101 1908.96,398.492 1916.64,394.138 1929.69,386.435 1941.91,379.972 1949.77,375.46 1955.86,371.697 1962.24,367.519 1965.28,365.648 1971.17,362.204 1971.7,361.857 1974.14,360.089 1976.76,358.26 1999.98,344.484 2005.49,341.179 2016.97,334.029 2035.7,323.949 2065.09,309.855 2067.77,308.39 2068.48,307.942 2074.91,304.083 2081.45,299.893 2081.86,299.647 2089.37,295.249 2104.92,285.983 2107.61,284.299 2111.8,281.428 2122.25,274.211 2122.71,273.916 2138.54,264.71 2140.54,263.641 2145.62,260.985 2146.39,260.589 2150.24,258.636 2153.14,257.188 2154.05,256.741 2157.04,255.276 2167.42,250.298 2172.25,248.025 2198.21,236.106 2204.46,233.277 2206.9,232.175 2208.77,231.169 2210.51,230.246 2213.55,228.663 2236.95,215.888 2242.71,213.031 2245.77,211.537 2251.58,208.75 2251.63,208.727 2252.34,208.322 2263.51,202.319 2264.23,201.886 2267.11,199.945 2267.38,199.735 2272.09,195.977 2277.26,191.798 2288.71,183.797 2294.16,179.995 2298.1,177.431 2301.2,175.248 2302.79,174.037 2317.97,163.869 2322.2,161.375 2324.06,160.155 2326.03,158.892 2334.99,152.867 2352.76,141.58 "/>
<polyline clip-path="url(#clip332)" style="stroke:#00a98d; stroke-linecap:round; stroke-linejoin:round; stroke-width:4; stroke-opacity:1; fill:none" points="140.696,1384.24 140.696,1384.24 143.413,1383.02 152.013,1379.18 155.54,1377.6 157.522,1376.72 166.581,1372.67 169.37,1371.42 190.142,1362.14 197.609,1358.23 204.37,1354.83 205.548,1354.25 205.833,1354.11 212.318,1350.96 248.127,1332.76 252.093,1330.9 255.748,1329.2 255.827,1329.16 266.804,1324.1 274.548,1320.57 277.566,1318.95 282.1,1316.57 303.258,1306.16 306.431,1304.67 308.97,1303.47 318.089,1299.24 337.546,1290.36 342.334,1288.2 360.56,1279.99 390.28,1266.67 391.582,1266.09 394.691,1264.7 396.781,1263.76 398.407,1263.04 399.161,1262.7 407.454,1258.99 411.276,1257.28 415.222,1255.52 417.453,1254.52 435.955,1246.25 440.719,1244.12 445.03,1242.19 449.81,1240.05 450.666,1239.67 451.164,1239.45 466.964,1232.38 472.839,1229.29 473.327,1229.04 483.402,1223.99 489.537,1221.02 497.787,1217.11 503.366,1214.5 506.904,1212.86 519.69,1207 526.435,1203.94 527.039,1203.66 528.224,1203.13 531.025,1201.86 535.448,1199.86 539.297,1198.13 539.573,1198 539.826,1197.89 543.392,1196.28 543.536,1196.22 580.855,1179.48 581.062,1179.39 581.366,1179.23 583.637,1178.02 585.633,1176.97 599.579,1169.98 601.259,1169.16 601.728,1168.94 603.251,1168.2 610.45,1164.78 614.335,1162.96 620.84,1159.93 627.435,1156.9 639.267,1151.5 639.3,1151.49 658.832,1142.67 662.414,1141.06 668.965,1138.12 672.951,1136 676.892,1133.97 683.346,1130.22 694.891,1124.02 709.3,1115.9 718.894,1110.96 720.685,1110.07 748.259,1096.95 754.571,1094.05 758.857,1092.09 768.452,1087.73 773.841,1085.29 774.082,1085.18 774.11,1085.17 775.361,1084.6 789.267,1077.42 793.134,1075.51 797.393,1073.44 820.907,1062.42 836.5,1055.31 838.041,1054.61 840.272,1053.6 840.851,1053.34 855.278,1045.89 858.082,1044.5 863.186,1042.02 866.36,1040.5 866.751,1040.31 866.861,1040.26 875.248,1036.3 883.558,1032.45 903.67,1023.27 904.251,1022.96 925.018,1012.42 925.196,1012.33 931.092,1009.51 934.206,1008.03 936.475,1006.97 941.602,1004.57 948.536,1001.37 958.693,996.725 959.633,996.298 959.768,996.236 975.513,989.11 991.501,981.919 991.567,981.89 992.355,981.536 992.673,981.393 1003.79,976.407 1006.88,975.022 1015.4,970.576 1016.58,969.979 1017.83,969.347 1018.14,969.191 1018.7,968.912 1026.03,965.299 1026.98,964.842 1028.71,964.008 1032.17,962.349 1036.79,960.164 1040.79,958.288 1044.94,956.355 1062.51,948.302 1073.46,943.339 1102.65,930.219 1110.57,926.67 1115.63,924.403 1129.32,918.276 1135.06,915.708 1137.17,914.765 1139.17,913.87 1144.3,911.575 1146.05,910.793 1146.11,910.764 1149.81,909.11 1152.32,907.991 1157.05,905.874 1161.2,904.018 1163.64,902.928 1176.18,897.323 1177.65,896.667 1189.57,891.338 1194.02,889.349 1221.6,875.6 1232.46,870.523 1246.03,864.29 1257.21,859.215 1261.25,857.389 1277.83,849.925 1283.32,847.462 1286.12,845.974 1293.42,842.208 1315.13,831.695 1323.66,827.725 1325.21,827.01 1339.86,820.31 1350.85,814.558 1351.13,814.417 1356.94,811.522 1360.62,809.722 1364.5,807.849 1377.87,801.552 1379.87,800.621 1379.93,800.596 1433.78,776.194 1436.29,775.068 1447.59,770.006 1458.35,765.187 1471.15,759.463 1473.62,758.358 1481.08,755.019 1483.68,753.86 1491.68,750.28 1495.78,748.45 1497.04,747.887 1498.07,747.423 1498.39,747.281 1499.69,746.699 1502.67,745.368 1509.27,742.417 1514.92,739.894 1516.77,739.066 1523.03,736.267 1528.06,734.017 1530.43,732.96 1534.59,731.101 1538.11,729.524 1544.36,726.731 1547.66,725.257 1548.6,724.834 1549.04,724.639 1549.35,724.502 1559.95,719.761 1560.28,719.617 1571.6,714.555 1572.87,713.99 1587.03,707.658 1591.61,705.611 1613.62,695.772 1617.39,694.088 1619.24,693.263 1620.81,692.56 1629.34,688.746 1630.65,688.16 1635.28,686.089 1645.99,681.304 1651.2,678.977 1653.01,678.165 1686.53,663.182 1701.8,656.357 1725.01,645.98 1726.9,645.136 1732.49,642.638 1744.84,636.27 1749.13,634.149 1798.97,611.019 1811.46,605.393 1814.45,604.05 1815.42,603.615 1820.77,601.211 1830.37,596.906 1839.34,592.891 1849.73,588.238 1851.03,587.655 1853.84,586.399 1860.16,583.573 1892.5,569.113 1908.96,561.755 1916.64,558.318 1929.69,552.488 1941.91,547.022 1949.77,543.51 1955.86,540.789 1962.24,537.937 1965.28,536.576 1971.17,533.944 1971.7,533.707 1974.14,532.618 1976.76,531.444 1999.98,521.066 2005.49,518.604 2016.97,513.473 2035.7,503.967 2065.09,490.194 2067.77,488.969 2068.48,488.643 2074.91,485.222 2081.45,481.875 2081.86,481.674 2089.37,477.97 2104.92,470.582 2107.61,469.334 2111.8,467.393 2122.25,462.605 2122.71,462.393 2138.54,455.218 2140.54,454.317 2145.62,452.029 2146.39,451.681 2150.24,449.949 2153.14,448.4 2154.05,447.925 2157.04,446.372 2167.42,441.167 2172.25,438.43 2198.21,425.19 2204.46,422.214 2206.9,421.065 2208.77,420.186 2210.51,419.373 2213.55,417.961 2236.95,407.253 2242.71,404.197 2245.77,402.359 2251.58,399.038 2251.63,399.011 2252.34,398.613 2263.51,391.899 2264.23,391.494 2267.11,389.899 2267.38,389.746 2272.09,387.216 2277.26,384.532 2288.71,378.837 2294.16,376.215 2298.1,374.343 2301.2,372.883 2302.79,372.141 2317.97,365.128 2322.2,363.195 2324.06,362.349 2326.03,361.451 2334.99,357.392 2352.76,349.392 "/>
<polyline clip-path="url(#clip332)" style="stroke:#8e971d; stroke-linecap:round; stroke-linejoin:round; stroke-width:4; stroke-opacity:1; fill:none" points="140.696,1384.24 140.696,1384.24 143.413,1383.02 152.013,1378.54 155.54,1376.47 157.522,1375.34 166.581,1370.42 169.37,1368.97 190.142,1358.74 197.609,1355.23 204.37,1352.09 205.548,1351.55 205.833,1351.42 212.318,1348.44 248.127,1332.25 252.093,1330.15 255.748,1328.26 255.827,1328.21 266.804,1321.96 274.548,1317.3 277.566,1315.58 282.1,1313.09 303.258,1302.36 306.431,1300.57 308.97,1299.17 318.089,1293.7 337.546,1283.38 342.334,1280.63 360.56,1271.06 390.28,1255.46 391.582,1254.84 394.691,1253.34 396.781,1252.35 398.407,1251.58 399.161,1251.22 407.454,1246.72 411.276,1244.74 415.222,1242.73 417.453,1241.42 435.955,1230.37 440.719,1227.44 445.03,1224.57 449.81,1221.58 450.666,1221.07 451.164,1220.72 466.964,1210.96 472.839,1207.73 473.327,1207.47 483.402,1202.24 489.537,1199.2 497.787,1195.21 503.366,1192.57 506.904,1190.91 519.69,1185.01 526.435,1181.4 527.039,1181.09 528.224,1180.48 531.025,1178.81 535.448,1176.27 539.297,1174.14 539.573,1173.99 539.826,1173.86 543.392,1171.66 543.536,1171.57 580.855,1150.43 581.062,1150.31 581.366,1150.14 583.637,1148.84 585.633,1147.71 599.579,1140.34 601.259,1139.35 601.728,1139.08 603.251,1138.06 610.45,1133.56 614.335,1130.96 620.84,1126.91 627.435,1123.09 639.267,1115.94 639.3,1115.92 658.832,1105.63 662.414,1103.57 668.965,1099.46 672.951,1097.11 676.892,1094.88 683.346,1091.38 694.891,1085.48 709.3,1078.52 718.894,1073.33 720.685,1072.4 748.259,1058.98 754.571,1056.05 758.857,1054.07 768.452,1048.98 773.841,1046.26 774.082,1046.14 774.11,1046.12 775.361,1045.5 789.267,1038.78 793.134,1036.96 797.393,1034.97 820.907,1024.19 836.5,1016.14 838.041,1015.38 840.272,1014.29 840.851,1013.96 855.278,1006.16 858.082,1004.73 863.186,1002.18 866.36,1000.63 866.751,1000.44 866.861,1000.38 875.248,996.357 883.558,992.453 903.67,983.213 904.251,982.949 925.018,973.564 925.196,973.468 931.092,969.895 934.206,968.098 936.475,966.822 941.602,963.619 948.536,959.576 958.693,954.086 959.633,953.598 959.768,953.517 975.513,944.677 991.501,936.628 991.567,936.596 992.355,936.214 992.673,936.06 1003.79,930.768 1006.88,929.321 1015.4,925.377 1016.58,924.835 1017.83,924.259 1018.14,924.117 1018.7,923.812 1026.03,919.916 1026.98,919.428 1028.71,918.542 1032.17,916.79 1036.79,914.128 1040.79,911.912 1044.94,909.344 1062.51,899.599 1073.46,893.311 1102.65,877.2 1110.57,872.722 1115.63,870.011 1129.32,863.085 1135.06,859.849 1137.17,858.701 1139.17,857.628 1144.3,854.943 1146.05,854.048 1146.11,854.015 1149.81,852.148 1152.32,850.904 1157.05,848.585 1161.2,846.584 1163.64,845.214 1176.18,837.707 1177.65,836.889 1189.57,830.579 1194.02,827.978 1221.6,813.672 1232.46,808.507 1246.03,801.299 1257.21,795.764 1261.25,793.821 1277.83,786.046 1283.32,783.521 1286.12,782.242 1293.42,778.357 1315.13,767.651 1323.66,763.643 1325.21,762.922 1339.86,756.186 1350.85,751.196 1351.13,751.07 1356.94,747.989 1360.62,746.094 1364.5,743.816 1377.87,736.561 1379.87,735.53 1379.93,735.502 1433.78,710.124 1436.29,708.988 1447.59,703.891 1458.35,699.052 1471.15,693.314 1473.62,692.207 1481.08,688.863 1483.68,687.703 1491.68,683.517 1495.78,681.452 1497.04,680.826 1498.07,680.311 1498.39,680.154 1499.69,679.513 1502.67,678.06 1509.27,674.888 1514.92,672.221 1516.77,671.195 1523.03,667.834 1528.06,665.234 1530.43,664.037 1534.59,661.966 1538.11,660.236 1544.36,657.227 1547.66,655.661 1548.6,655.214 1549.04,655.008 1549.35,654.864 1559.95,649.164 1560.28,648.997 1571.6,643.315 1572.87,642.589 1587.03,634.952 1591.61,632.261 1613.62,620.645 1617.39,618.795 1619.24,617.899 1620.81,617.14 1629.34,613.081 1630.65,612.466 1635.28,609.927 1645.99,603.608 1651.2,600.761 1653.01,599.796 1686.53,583.39 1701.8,576.362 1725.01,565.851 1726.9,565 1732.49,562.046 1744.84,555.842 1749.13,553.76 1798.97,530.796 1811.46,525.178 1814.45,523.837 1815.42,523.317 1820.77,520.507 1830.37,514.98 1839.34,509.551 1849.73,503.83 1851.03,503.144 1853.84,501.688 1860.16,498 1892.5,481.516 1908.96,473.832 1916.64,470.307 1929.69,464.383 1941.91,458.868 1949.77,455.335 1955.86,452.603 1962.24,449.741 1965.28,448.377 1971.17,445.276 1971.7,445.003 1974.14,443.757 1976.76,442.431 1999.98,431.269 2005.49,428.713 2016.97,423.446 2035.7,414.961 2065.09,400.295 2067.77,399.033 2068.48,398.697 2074.91,395.705 2081.45,392.686 2081.86,392.502 2089.37,389.068 2104.92,382.019 2107.61,380.809 2111.8,378.92 2122.25,374.224 2122.71,373.975 2138.54,365.883 2140.54,364.736 2145.62,361.909 2146.39,361.49 2150.24,359.436 2153.14,357.921 2154.05,357.377 2157.04,355.364 2167.42,348.961 2172.25,346.219 2198.21,331.589 2204.46,327.97 2206.9,326.408 2208.77,325.241 2210.51,324.181 2213.55,322.129 2236.95,308.556 2242.71,305.601 2245.77,304.064 2251.58,301.211 2251.63,301.182 2252.34,300.77 2263.51,294.683 2264.23,294.309 2267.11,292.827 2267.38,292.684 2272.09,290.31 2277.26,287.762 2288.71,281.476 2294.16,278.662 2298.1,276.354 2301.2,274.601 2302.79,273.726 2317.97,265.808 2322.2,263.369 2324.06,262.33 2326.03,261.243 2334.99,256.508 2352.76,247.756 "/>
<path clip-path="url(#clip330)" d="M214.431 663.349 L554.896 663.349 L554.896 93.1086 L214.431 93.1086  Z" fill="#ffffff" fill-rule="evenodd" fill-opacity="1"/>
<polyline clip-path="url(#clip330)" style="stroke:#000000; stroke-linecap:round; stroke-linejoin:round; stroke-width:4; stroke-opacity:1; fill:none" points="214.431,663.349 554.896,663.349 554.896,93.1086 214.431,93.1086 214.431,663.349 "/>
<polyline clip-path="url(#clip330)" style="stroke:#009af9; stroke-linecap:round; stroke-linejoin:round; stroke-width:4; stroke-opacity:1; fill:none" points="239.009,144.949 386.48,144.949 "/>
<path clip-path="url(#clip330)" d="M411.058 151.997 L411.058 136.303 L415.318 136.303 L415.318 151.835 Q415.318 155.516 416.753 157.368 Q418.188 159.196 421.058 159.196 Q424.507 159.196 426.498 156.997 Q428.512 154.798 428.512 151.002 L428.512 136.303 L432.771 136.303 L432.771 162.229 L428.512 162.229 L428.512 158.247 Q426.961 160.608 424.901 161.766 Q422.864 162.9 420.156 162.9 Q415.688 162.9 413.373 160.122 Q411.058 157.344 411.058 151.997 M421.776 135.678 L421.776 135.678 Z" fill="#000000" fill-rule="nonzero" fill-opacity="1" /><path clip-path="url(#clip330)" d="M441.151 126.21 L450.966 126.21 L450.966 129.52 L445.41 129.52 L445.41 165.168 L450.966 165.168 L450.966 168.479 L441.151 168.479 L441.151 126.21 Z" fill="#000000" fill-rule="nonzero" fill-opacity="1" /><path clip-path="url(#clip330)" d="M461.452 158.293 L469.091 158.293 L469.091 131.928 L460.78 133.595 L460.78 129.335 L469.044 127.669 L473.72 127.669 L473.72 158.293 L481.359 158.293 L481.359 162.229 L461.452 162.229 L461.452 158.293 Z" fill="#000000" fill-rule="nonzero" fill-opacity="1" /><path clip-path="url(#clip330)" d="M500.155 126.21 L500.155 168.479 L490.34 168.479 L490.34 165.168 L495.873 165.168 L495.873 129.52 L490.34 129.52 L490.34 126.21 L500.155 126.21 Z" fill="#000000" fill-rule="nonzero" fill-opacity="1" /><polyline clip-path="url(#clip330)" style="stroke:#e26f46; stroke-linecap:round; stroke-linejoin:round; stroke-width:4; stroke-opacity:1; fill:none" points="239.009,196.789 386.48,196.789 "/>
<path clip-path="url(#clip330)" d="M411.058 203.837 L411.058 188.143 L415.318 188.143 L415.318 203.675 Q415.318 207.356 416.753 209.208 Q418.188 211.036 421.058 211.036 Q424.507 211.036 426.498 208.837 Q428.512 206.638 428.512 202.842 L428.512 188.143 L432.771 188.143 L432.771 214.069 L428.512 214.069 L428.512 210.087 Q426.961 212.448 424.901 213.606 Q422.864 214.74 420.156 214.74 Q415.688 214.74 413.373 211.962 Q411.058 209.184 411.058 203.837 M421.776 187.518 L421.776 187.518 Z" fill="#000000" fill-rule="nonzero" fill-opacity="1" /><path clip-path="url(#clip330)" d="M441.151 178.05 L450.966 178.05 L450.966 181.36 L445.41 181.36 L445.41 217.008 L450.966 217.008 L450.966 220.319 L441.151 220.319 L441.151 178.05 Z" fill="#000000" fill-rule="nonzero" fill-opacity="1" /><path clip-path="url(#clip330)" d="M464.669 210.133 L480.989 210.133 L480.989 214.069 L459.044 214.069 L459.044 210.133 Q461.706 207.379 466.29 202.749 Q470.896 198.096 472.077 196.754 Q474.322 194.231 475.202 192.495 Q476.104 190.735 476.104 189.046 Q476.104 186.291 474.16 184.555 Q472.239 182.819 469.137 182.819 Q466.938 182.819 464.484 183.583 Q462.054 184.347 459.276 185.897 L459.276 181.175 Q462.1 180.041 464.554 179.462 Q467.007 178.884 469.044 178.884 Q474.415 178.884 477.609 181.569 Q480.803 184.254 480.803 188.745 Q480.803 190.874 479.993 192.796 Q479.206 194.694 477.1 197.286 Q476.521 197.958 473.419 201.175 Q470.317 204.37 464.669 210.133 Z" fill="#000000" fill-rule="nonzero" fill-opacity="1" /><path clip-path="url(#clip330)" d="M500.155 178.05 L500.155 220.319 L490.34 220.319 L490.34 217.008 L495.873 217.008 L495.873 181.36 L490.34 181.36 L490.34 178.05 L500.155 178.05 Z" fill="#000000" fill-rule="nonzero" fill-opacity="1" /><polyline clip-path="url(#clip330)" style="stroke:#3da44d; stroke-linecap:round; stroke-linejoin:round; stroke-width:4; stroke-opacity:1; fill:none" points="239.009,248.629 386.48,248.629 "/>
<path clip-path="url(#clip330)" d="M411.058 255.677 L411.058 239.983 L415.318 239.983 L415.318 255.515 Q415.318 259.196 416.753 261.048 Q418.188 262.876 421.058 262.876 Q424.507 262.876 426.498 260.677 Q428.512 258.478 428.512 254.682 L428.512 239.983 L432.771 239.983 L432.771 265.909 L428.512 265.909 L428.512 261.927 Q426.961 264.288 424.901 265.446 Q422.864 266.58 420.156 266.58 Q415.688 266.58 413.373 263.802 Q411.058 261.024 411.058 255.677 M421.776 239.358 L421.776 239.358 Z" fill="#000000" fill-rule="nonzero" fill-opacity="1" /><path clip-path="url(#clip330)" d="M441.151 229.89 L450.966 229.89 L450.966 233.2 L445.41 233.2 L445.41 268.848 L450.966 268.848 L450.966 272.159 L441.151 272.159 L441.151 229.89 Z" fill="#000000" fill-rule="nonzero" fill-opacity="1" /><path clip-path="url(#clip330)" d="M474.808 247.274 Q478.165 247.992 480.04 250.261 Q481.938 252.529 481.938 255.862 Q481.938 260.978 478.419 263.779 Q474.901 266.58 468.419 266.58 Q466.243 266.58 463.929 266.14 Q461.637 265.723 459.183 264.867 L459.183 260.353 Q461.128 261.487 463.442 262.066 Q465.757 262.645 468.28 262.645 Q472.679 262.645 474.97 260.909 Q477.285 259.173 477.285 255.862 Q477.285 252.807 475.132 251.094 Q473.003 249.358 469.183 249.358 L465.155 249.358 L465.155 245.515 L469.368 245.515 Q472.817 245.515 474.646 244.149 Q476.475 242.761 476.475 240.168 Q476.475 237.506 474.577 236.094 Q472.702 234.659 469.183 234.659 Q467.262 234.659 465.063 235.075 Q462.864 235.492 460.225 236.372 L460.225 232.205 Q462.887 231.464 465.202 231.094 Q467.54 230.724 469.6 230.724 Q474.924 230.724 478.026 233.154 Q481.128 235.562 481.128 239.682 Q481.128 242.552 479.484 244.543 Q477.841 246.511 474.808 247.274 Z" fill="#000000" fill-rule="nonzero" fill-opacity="1" /><path clip-path="url(#clip330)" d="M500.155 229.89 L500.155 272.159 L490.34 272.159 L490.34 268.848 L495.873 268.848 L495.873 233.2 L490.34 233.2 L490.34 229.89 L500.155 229.89 Z" fill="#000000" fill-rule="nonzero" fill-opacity="1" /><polyline clip-path="url(#clip330)" style="stroke:#c271d2; stroke-linecap:round; stroke-linejoin:round; stroke-width:4; stroke-opacity:1; fill:none" points="239.009,300.469 386.48,300.469 "/>
<path clip-path="url(#clip330)" d="M411.058 307.517 L411.058 291.823 L415.318 291.823 L415.318 307.355 Q415.318 311.036 416.753 312.888 Q418.188 314.716 421.058 314.716 Q424.507 314.716 426.498 312.517 Q428.512 310.318 428.512 306.522 L428.512 291.823 L432.771 291.823 L432.771 317.749 L428.512 317.749 L428.512 313.767 Q426.961 316.128 424.901 317.286 Q422.864 318.42 420.156 318.42 Q415.688 318.42 413.373 315.642 Q411.058 312.864 411.058 307.517 M421.776 291.198 L421.776 291.198 Z" fill="#000000" fill-rule="nonzero" fill-opacity="1" /><path clip-path="url(#clip330)" d="M441.151 281.73 L450.966 281.73 L450.966 285.04 L445.41 285.04 L445.41 320.688 L450.966 320.688 L450.966 323.999 L441.151 323.999 L441.151 281.73 Z" fill="#000000" fill-rule="nonzero" fill-opacity="1" /><path clip-path="url(#clip330)" d="M473.489 287.263 L461.683 305.712 L473.489 305.712 L473.489 287.263 M472.262 283.189 L478.141 283.189 L478.141 305.712 L483.072 305.712 L483.072 309.601 L478.141 309.601 L478.141 317.749 L473.489 317.749 L473.489 309.601 L457.887 309.601 L457.887 305.087 L472.262 283.189 Z" fill="#000000" fill-rule="nonzero" fill-opacity="1" /><path clip-path="url(#clip330)" d="M500.155 281.73 L500.155 323.999 L490.34 323.999 L490.34 320.688 L495.873 320.688 L495.873 285.04 L490.34 285.04 L490.34 281.73 L500.155 281.73 Z" fill="#000000" fill-rule="nonzero" fill-opacity="1" /><polyline clip-path="url(#clip330)" style="stroke:#ac8d18; stroke-linecap:round; stroke-linejoin:round; stroke-width:4; stroke-opacity:1; fill:none" points="239.009,352.309 386.48,352.309 "/>
<path clip-path="url(#clip330)" d="M411.058 359.357 L411.058 343.663 L415.318 343.663 L415.318 359.195 Q415.318 362.876 416.753 364.728 Q418.188 366.556 421.058 366.556 Q424.507 366.556 426.498 364.357 Q428.512 362.158 428.512 358.362 L428.512 343.663 L432.771 343.663 L432.771 369.589 L428.512 369.589 L428.512 365.607 Q426.961 367.968 424.901 369.126 Q422.864 370.26 420.156 370.26 Q415.688 370.26 413.373 367.482 Q411.058 364.704 411.058 359.357 M421.776 343.038 L421.776 343.038 Z" fill="#000000" fill-rule="nonzero" fill-opacity="1" /><path clip-path="url(#clip330)" d="M441.151 333.57 L450.966 333.57 L450.966 336.88 L445.41 336.88 L445.41 372.528 L450.966 372.528 L450.966 375.839 L441.151 375.839 L441.151 333.57 Z" fill="#000000" fill-rule="nonzero" fill-opacity="1" /><path clip-path="url(#clip330)" d="M460.688 335.029 L479.044 335.029 L479.044 338.964 L464.97 338.964 L464.97 347.436 Q465.989 347.089 467.007 346.927 Q468.026 346.742 469.044 346.742 Q474.831 346.742 478.211 349.913 Q481.591 353.084 481.591 358.501 Q481.591 364.079 478.118 367.181 Q474.646 370.26 468.327 370.26 Q466.151 370.26 463.882 369.89 Q461.637 369.519 459.23 368.778 L459.23 364.079 Q461.313 365.214 463.535 365.769 Q465.757 366.325 468.234 366.325 Q472.239 366.325 474.577 364.218 Q476.915 362.112 476.915 358.501 Q476.915 354.89 474.577 352.783 Q472.239 350.677 468.234 350.677 Q466.359 350.677 464.484 351.093 Q462.632 351.51 460.688 352.39 L460.688 335.029 Z" fill="#000000" fill-rule="nonzero" fill-opacity="1" /><path clip-path="url(#clip330)" d="M500.155 333.57 L500.155 375.839 L490.34 375.839 L490.34 372.528 L495.873 372.528 L495.873 336.88 L490.34 336.88 L490.34 333.57 L500.155 333.57 Z" fill="#000000" fill-rule="nonzero" fill-opacity="1" /><polyline clip-path="url(#clip330)" style="stroke:#00a9ad; stroke-linecap:round; stroke-linejoin:round; stroke-width:4; stroke-opacity:1; fill:none" points="239.009,404.149 386.48,404.149 "/>
<path clip-path="url(#clip330)" d="M411.058 411.197 L411.058 395.503 L415.318 395.503 L415.318 411.035 Q415.318 414.716 416.753 416.568 Q418.188 418.396 421.058 418.396 Q424.507 418.396 426.498 416.197 Q428.512 413.998 428.512 410.202 L428.512 395.503 L432.771 395.503 L432.771 421.429 L428.512 421.429 L428.512 417.447 Q426.961 419.808 424.901 420.966 Q422.864 422.1 420.156 422.1 Q415.688 422.1 413.373 419.322 Q411.058 416.544 411.058 411.197 M421.776 394.878 L421.776 394.878 Z" fill="#000000" fill-rule="nonzero" fill-opacity="1" /><path clip-path="url(#clip330)" d="M441.151 385.41 L450.966 385.41 L450.966 388.72 L445.41 388.72 L445.41 424.368 L450.966 424.368 L450.966 427.679 L441.151 427.679 L441.151 385.41 Z" fill="#000000" fill-rule="nonzero" fill-opacity="1" /><path clip-path="url(#clip330)" d="M471.22 402.285 Q468.072 402.285 466.22 404.438 Q464.392 406.591 464.392 410.341 Q464.392 414.068 466.22 416.243 Q468.072 418.396 471.22 418.396 Q474.368 418.396 476.197 416.243 Q478.049 414.068 478.049 410.341 Q478.049 406.591 476.197 404.438 Q474.368 402.285 471.22 402.285 M480.503 387.633 L480.503 391.892 Q478.743 391.058 476.938 390.619 Q475.155 390.179 473.396 390.179 Q468.766 390.179 466.313 393.304 Q463.882 396.429 463.535 402.748 Q464.901 400.734 466.961 399.669 Q469.021 398.582 471.498 398.582 Q476.706 398.582 479.716 401.753 Q482.748 404.901 482.748 410.341 Q482.748 415.665 479.6 418.882 Q476.452 422.1 471.22 422.1 Q465.225 422.1 462.054 417.517 Q458.882 412.91 458.882 404.183 Q458.882 395.989 462.771 391.128 Q466.66 386.244 473.211 386.244 Q474.97 386.244 476.753 386.591 Q478.558 386.938 480.503 387.633 Z" fill="#000000" fill-rule="nonzero" fill-opacity="1" /><path clip-path="url(#clip330)" d="M500.155 385.41 L500.155 427.679 L490.34 427.679 L490.34 424.368 L495.873 424.368 L495.873 388.72 L490.34 388.72 L490.34 385.41 L500.155 385.41 Z" fill="#000000" fill-rule="nonzero" fill-opacity="1" /><polyline clip-path="url(#clip330)" style="stroke:#ed5d92; stroke-linecap:round; stroke-linejoin:round; stroke-width:4; stroke-opacity:1; fill:none" points="239.009,455.989 386.48,455.989 "/>
<path clip-path="url(#clip330)" d="M411.058 463.037 L411.058 447.343 L415.318 447.343 L415.318 462.875 Q415.318 466.556 416.753 468.408 Q418.188 470.236 421.058 470.236 Q424.507 470.236 426.498 468.037 Q428.512 465.838 428.512 462.042 L428.512 447.343 L432.771 447.343 L432.771 473.269 L428.512 473.269 L428.512 469.287 Q426.961 471.648 424.901 472.806 Q422.864 473.94 420.156 473.94 Q415.688 473.94 413.373 471.162 Q411.058 468.384 411.058 463.037 M421.776 446.718 L421.776 446.718 Z" fill="#000000" fill-rule="nonzero" fill-opacity="1" /><path clip-path="url(#clip330)" d="M441.151 437.25 L450.966 437.25 L450.966 440.56 L445.41 440.56 L445.41 476.208 L450.966 476.208 L450.966 479.519 L441.151 479.519 L441.151 437.25 Z" fill="#000000" fill-rule="nonzero" fill-opacity="1" /><path clip-path="url(#clip330)" d="M459.461 438.709 L481.683 438.709 L481.683 440.699 L469.137 473.269 L464.253 473.269 L476.058 442.644 L459.461 442.644 L459.461 438.709 Z" fill="#000000" fill-rule="nonzero" fill-opacity="1" /><path clip-path="url(#clip330)" d="M500.155 437.25 L500.155 479.519 L490.34 479.519 L490.34 476.208 L495.873 476.208 L495.873 440.56 L490.34 440.56 L490.34 437.25 L500.155 437.25 Z" fill="#000000" fill-rule="nonzero" fill-opacity="1" /><polyline clip-path="url(#clip330)" style="stroke:#c68125; stroke-linecap:round; stroke-linejoin:round; stroke-width:4; stroke-opacity:1; fill:none" points="239.009,507.829 386.48,507.829 "/>
<path clip-path="url(#clip330)" d="M411.058 514.877 L411.058 499.183 L415.318 499.183 L415.318 514.715 Q415.318 518.396 416.753 520.248 Q418.188 522.076 421.058 522.076 Q424.507 522.076 426.498 519.877 Q428.512 517.678 428.512 513.882 L428.512 499.183 L432.771 499.183 L432.771 525.109 L428.512 525.109 L428.512 521.127 Q426.961 523.488 424.901 524.646 Q422.864 525.78 420.156 525.78 Q415.688 525.78 413.373 523.002 Q411.058 520.224 411.058 514.877 M421.776 498.558 L421.776 498.558 Z" fill="#000000" fill-rule="nonzero" fill-opacity="1" /><path clip-path="url(#clip330)" d="M441.151 489.09 L450.966 489.09 L450.966 492.4 L445.41 492.4 L445.41 528.048 L450.966 528.048 L450.966 531.359 L441.151 531.359 L441.151 489.09 Z" fill="#000000" fill-rule="nonzero" fill-opacity="1" /><path clip-path="url(#clip330)" d="M470.641 508.697 Q467.308 508.697 465.387 510.479 Q463.489 512.261 463.489 515.386 Q463.489 518.511 465.387 520.294 Q467.308 522.076 470.641 522.076 Q473.975 522.076 475.896 520.294 Q477.817 518.488 477.817 515.386 Q477.817 512.261 475.896 510.479 Q473.998 508.697 470.641 508.697 M465.966 506.706 Q462.956 505.965 461.267 503.905 Q459.6 501.845 459.6 498.882 Q459.6 494.738 462.54 492.331 Q465.503 489.924 470.641 489.924 Q475.803 489.924 478.743 492.331 Q481.683 494.738 481.683 498.882 Q481.683 501.845 479.993 503.905 Q478.327 505.965 475.341 506.706 Q478.72 507.493 480.595 509.785 Q482.493 512.076 482.493 515.386 Q482.493 520.41 479.415 523.095 Q476.359 525.78 470.641 525.78 Q464.924 525.78 461.845 523.095 Q458.79 520.41 458.79 515.386 Q458.79 512.076 460.688 509.785 Q462.586 507.493 465.966 506.706 M464.253 499.322 Q464.253 502.007 465.919 503.512 Q467.609 505.016 470.641 505.016 Q473.651 505.016 475.341 503.512 Q477.053 502.007 477.053 499.322 Q477.053 496.637 475.341 495.132 Q473.651 493.627 470.641 493.627 Q467.609 493.627 465.919 495.132 Q464.253 496.637 464.253 499.322 Z" fill="#000000" fill-rule="nonzero" fill-opacity="1" /><path clip-path="url(#clip330)" d="M500.155 489.09 L500.155 531.359 L490.34 531.359 L490.34 528.048 L495.873 528.048 L495.873 492.4 L490.34 492.4 L490.34 489.09 L500.155 489.09 Z" fill="#000000" fill-rule="nonzero" fill-opacity="1" /><polyline clip-path="url(#clip330)" style="stroke:#00a98d; stroke-linecap:round; stroke-linejoin:round; stroke-width:4; stroke-opacity:1; fill:none" points="239.009,559.669 386.48,559.669 "/>
<path clip-path="url(#clip330)" d="M411.058 566.717 L411.058 551.023 L415.318 551.023 L415.318 566.555 Q415.318 570.236 416.753 572.088 Q418.188 573.916 421.058 573.916 Q424.507 573.916 426.498 571.717 Q428.512 569.518 428.512 565.722 L428.512 551.023 L432.771 551.023 L432.771 576.949 L428.512 576.949 L428.512 572.967 Q426.961 575.328 424.901 576.486 Q422.864 577.62 420.156 577.62 Q415.688 577.62 413.373 574.842 Q411.058 572.064 411.058 566.717 M421.776 550.398 L421.776 550.398 Z" fill="#000000" fill-rule="nonzero" fill-opacity="1" /><path clip-path="url(#clip330)" d="M441.151 540.93 L450.966 540.93 L450.966 544.24 L445.41 544.24 L445.41 579.888 L450.966 579.888 L450.966 583.199 L441.151 583.199 L441.151 540.93 Z" fill="#000000" fill-rule="nonzero" fill-opacity="1" /><path clip-path="url(#clip330)" d="M460.78 576.231 L460.78 571.972 Q462.54 572.805 464.345 573.245 Q466.151 573.685 467.887 573.685 Q472.516 573.685 474.947 570.583 Q477.401 567.458 477.748 561.115 Q476.405 563.106 474.345 564.171 Q472.285 565.236 469.785 565.236 Q464.6 565.236 461.567 562.111 Q458.558 558.963 458.558 553.523 Q458.558 548.199 461.706 544.981 Q464.854 541.764 470.086 541.764 Q476.081 541.764 479.229 546.37 Q482.401 550.953 482.401 559.703 Q482.401 567.875 478.512 572.759 Q474.646 577.62 468.095 577.62 Q466.336 577.62 464.53 577.273 Q462.725 576.925 460.78 576.231 M470.086 561.578 Q473.234 561.578 475.063 559.426 Q476.915 557.273 476.915 553.523 Q476.915 549.796 475.063 547.643 Q473.234 545.467 470.086 545.467 Q466.938 545.467 465.086 547.643 Q463.257 549.796 463.257 553.523 Q463.257 557.273 465.086 559.426 Q466.938 561.578 470.086 561.578 Z" fill="#000000" fill-rule="nonzero" fill-opacity="1" /><path clip-path="url(#clip330)" d="M500.155 540.93 L500.155 583.199 L490.34 583.199 L490.34 579.888 L495.873 579.888 L495.873 544.24 L490.34 544.24 L490.34 540.93 L500.155 540.93 Z" fill="#000000" fill-rule="nonzero" fill-opacity="1" /><polyline clip-path="url(#clip330)" style="stroke:#8e971d; stroke-linecap:round; stroke-linejoin:round; stroke-width:4; stroke-opacity:1; fill:none" points="239.009,611.509 386.48,611.509 "/>
<path clip-path="url(#clip330)" d="M411.058 618.557 L411.058 602.863 L415.318 602.863 L415.318 618.395 Q415.318 622.076 416.753 623.928 Q418.188 625.756 421.058 625.756 Q424.507 625.756 426.498 623.557 Q428.512 621.358 428.512 617.562 L428.512 602.863 L432.771 602.863 L432.771 628.789 L428.512 628.789 L428.512 624.807 Q426.961 627.168 424.901 628.326 Q422.864 629.46 420.156 629.46 Q415.688 629.46 413.373 626.682 Q411.058 623.904 411.058 618.557 M421.776 602.238 L421.776 602.238 Z" fill="#000000" fill-rule="nonzero" fill-opacity="1" /><path clip-path="url(#clip330)" d="M441.151 592.77 L450.966 592.77 L450.966 596.08 L445.41 596.08 L445.41 631.728 L450.966 631.728 L450.966 635.039 L441.151 635.039 L441.151 592.77 Z" fill="#000000" fill-rule="nonzero" fill-opacity="1" /><path clip-path="url(#clip330)" d="M461.452 624.853 L469.091 624.853 L469.091 598.488 L460.78 600.155 L460.78 595.895 L469.044 594.229 L473.72 594.229 L473.72 624.853 L481.359 624.853 L481.359 628.789 L461.452 628.789 L461.452 624.853 Z" fill="#000000" fill-rule="nonzero" fill-opacity="1" /><path clip-path="url(#clip330)" d="M500.803 597.307 Q497.192 597.307 495.364 600.872 Q493.558 604.414 493.558 611.543 Q493.558 618.65 495.364 622.215 Q497.192 625.756 500.803 625.756 Q504.438 625.756 506.243 622.215 Q508.072 618.65 508.072 611.543 Q508.072 604.414 506.243 600.872 Q504.438 597.307 500.803 597.307 M500.803 593.604 Q506.614 593.604 509.669 598.21 Q512.748 602.793 512.748 611.543 Q512.748 620.27 509.669 624.877 Q506.614 629.46 500.803 629.46 Q494.993 629.46 491.915 624.877 Q488.859 620.27 488.859 611.543 Q488.859 602.793 491.915 598.21 Q494.993 593.604 500.803 593.604 Z" fill="#000000" fill-rule="nonzero" fill-opacity="1" /><path clip-path="url(#clip330)" d="M530.317 592.77 L530.317 635.039 L520.502 635.039 L520.502 631.728 L526.035 631.728 L526.035 596.08 L520.502 596.08 L520.502 592.77 L530.317 592.77 Z" fill="#000000" fill-rule="nonzero" fill-opacity="1" /></svg>
