<?xml version="1.0" encoding="utf-8"?>
<svg xmlns="http://www.w3.org/2000/svg" xmlns:xlink="http://www.w3.org/1999/xlink" width="600" height="400" viewBox="0 0 2400 1600">
<defs>
  <clipPath id="clip430">
    <rect x="0" y="0" width="2400" height="1600"/>
  </clipPath>
</defs>
<path clip-path="url(#clip430)" d="M0 1600 L2400 1600 L2400 0 L0 0  Z" fill="#ffffff" fill-rule="evenodd" fill-opacity="1"/>
<defs>
  <clipPath id="clip431">
    <rect x="480" y="0" width="1681" height="1600"/>
  </clipPath>
</defs>
<path clip-path="url(#clip430)" d="M199.283 1423.18 L2352.76 1423.18 L2352.76 47.2441 L199.283 47.2441  Z" fill="#ffffff" fill-rule="evenodd" fill-opacity="1"/>
<defs>
  <clipPath id="clip432">
    <rect x="199" y="47" width="2154" height="1377"/>
  </clipPath>
</defs>
<polyline clip-path="url(#clip432)" style="stroke:#000000; stroke-linecap:round; stroke-linejoin:round; stroke-width:2; stroke-opacity:0.1; fill:none" points="260.231,1423.18 260.231,47.2441 "/>
<polyline clip-path="url(#clip432)" style="stroke:#000000; stroke-linecap:round; stroke-linejoin:round; stroke-width:2; stroke-opacity:0.1; fill:none" points="666.546,1423.18 666.546,47.2441 "/>
<polyline clip-path="url(#clip432)" style="stroke:#000000; stroke-linecap:round; stroke-linejoin:round; stroke-width:2; stroke-opacity:0.1; fill:none" points="1072.86,1423.18 1072.86,47.2441 "/>
<polyline clip-path="url(#clip432)" style="stroke:#000000; stroke-linecap:round; stroke-linejoin:round; stroke-width:2; stroke-opacity:0.1; fill:none" points="1479.18,1423.18 1479.18,47.2441 "/>
<polyline clip-path="url(#clip432)" style="stroke:#000000; stroke-linecap:round; stroke-linejoin:round; stroke-width:2; stroke-opacity:0.1; fill:none" points="1885.49,1423.18 1885.49,47.2441 "/>
<polyline clip-path="url(#clip432)" style="stroke:#000000; stroke-linecap:round; stroke-linejoin:round; stroke-width:2; stroke-opacity:0.1; fill:none" points="2291.81,1423.18 2291.81,47.2441 "/>
<polyline clip-path="url(#clip430)" style="stroke:#000000; stroke-linecap:round; stroke-linejoin:round; stroke-width:4; stroke-opacity:1; fill:none" points="199.283,1423.18 2352.76,1423.18 "/>
<polyline clip-path="url(#clip430)" style="stroke:#000000; stroke-linecap:round; stroke-linejoin:round; stroke-width:4; stroke-opacity:1; fill:none" points="260.231,1423.18 260.231,1404.28 "/>
<polyline clip-path="url(#clip430)" style="stroke:#000000; stroke-linecap:round; stroke-linejoin:round; stroke-width:4; stroke-opacity:1; fill:none" points="666.546,1423.18 666.546,1404.28 "/>
<polyline clip-path="url(#clip430)" style="stroke:#000000; stroke-linecap:round; stroke-linejoin:round; stroke-width:4; stroke-opacity:1; fill:none" points="1072.86,1423.18 1072.86,1404.28 "/>
<polyline clip-path="url(#clip430)" style="stroke:#000000; stroke-linecap:round; stroke-linejoin:round; stroke-width:4; stroke-opacity:1; fill:none" points="1479.18,1423.18 1479.18,1404.28 "/>
<polyline clip-path="url(#clip430)" style="stroke:#000000; stroke-linecap:round; stroke-linejoin:round; stroke-width:4; stroke-opacity:1; fill:none" points="1885.49,1423.18 1885.49,1404.28 "/>
<polyline clip-path="url(#clip430)" style="stroke:#000000; stroke-linecap:round; stroke-linejoin:round; stroke-width:4; stroke-opacity:1; fill:none" points="2291.81,1423.18 2291.81,1404.28 "/>
<path clip-path="url(#clip430)" d="M260.231 1454.1 Q256.619 1454.1 254.791 1457.66 Q252.985 1461.2 252.985 1468.33 Q252.985 1475.44 254.791 1479.01 Q256.619 1482.55 260.231 1482.55 Q263.865 1482.55 265.67 1479.01 Q267.499 1475.44 267.499 1468.33 Q267.499 1461.2 265.67 1457.66 Q263.865 1454.1 260.231 1454.1 M260.231 1450.39 Q266.041 1450.39 269.096 1455 Q272.175 1459.58 272.175 1468.33 Q272.175 1477.06 269.096 1481.67 Q266.041 1486.25 260.231 1486.25 Q254.42 1486.25 251.342 1481.67 Q248.286 1477.06 248.286 1468.33 Q248.286 1459.58 251.342 1455 Q254.42 1450.39 260.231 1450.39 Z" fill="#000000" fill-rule="nonzero" fill-opacity="1" /><path clip-path="url(#clip430)" d="M641.245 1451.02 L659.602 1451.02 L659.602 1454.96 L645.528 1454.96 L645.528 1463.43 Q646.546 1463.08 647.565 1462.92 Q648.583 1462.73 649.602 1462.73 Q655.389 1462.73 658.768 1465.9 Q662.148 1469.08 662.148 1474.49 Q662.148 1480.07 658.676 1483.17 Q655.204 1486.25 648.884 1486.25 Q646.708 1486.25 644.44 1485.88 Q642.194 1485.51 639.787 1484.77 L639.787 1480.07 Q641.87 1481.2 644.093 1481.76 Q646.315 1482.32 648.792 1482.32 Q652.796 1482.32 655.134 1480.21 Q657.472 1478.1 657.472 1474.49 Q657.472 1470.88 655.134 1468.77 Q652.796 1466.67 648.792 1466.67 Q646.917 1466.67 645.042 1467.08 Q643.19 1467.5 641.245 1468.38 L641.245 1451.02 Z" fill="#000000" fill-rule="nonzero" fill-opacity="1" /><path clip-path="url(#clip430)" d="M681.361 1454.1 Q677.75 1454.1 675.921 1457.66 Q674.116 1461.2 674.116 1468.33 Q674.116 1475.44 675.921 1479.01 Q677.75 1482.55 681.361 1482.55 Q684.995 1482.55 686.801 1479.01 Q688.629 1475.44 688.629 1468.33 Q688.629 1461.2 686.801 1457.66 Q684.995 1454.1 681.361 1454.1 M681.361 1450.39 Q687.171 1450.39 690.227 1455 Q693.305 1459.58 693.305 1468.33 Q693.305 1477.06 690.227 1481.67 Q687.171 1486.25 681.361 1486.25 Q675.551 1486.25 672.472 1481.67 Q669.416 1477.06 669.416 1468.33 Q669.416 1459.58 672.472 1455 Q675.551 1450.39 681.361 1450.39 Z" fill="#000000" fill-rule="nonzero" fill-opacity="1" /><path clip-path="url(#clip430)" d="M1032.47 1481.64 L1040.11 1481.64 L1040.11 1455.28 L1031.8 1456.95 L1031.8 1452.69 L1040.06 1451.02 L1044.74 1451.02 L1044.74 1481.64 L1052.38 1481.64 L1052.38 1485.58 L1032.47 1485.58 L1032.47 1481.64 Z" fill="#000000" fill-rule="nonzero" fill-opacity="1" /><path clip-path="url(#clip430)" d="M1071.82 1454.1 Q1068.21 1454.1 1066.38 1457.66 Q1064.57 1461.2 1064.57 1468.33 Q1064.57 1475.44 1066.38 1479.01 Q1068.21 1482.55 1071.82 1482.55 Q1075.45 1482.55 1077.26 1479.01 Q1079.09 1475.44 1079.09 1468.33 Q1079.09 1461.2 1077.26 1457.66 Q1075.45 1454.1 1071.82 1454.1 M1071.82 1450.39 Q1077.63 1450.39 1080.69 1455 Q1083.76 1459.58 1083.76 1468.33 Q1083.76 1477.06 1080.69 1481.67 Q1077.63 1486.25 1071.82 1486.25 Q1066.01 1486.25 1062.93 1481.67 Q1059.88 1477.06 1059.88 1468.33 Q1059.88 1459.58 1062.93 1455 Q1066.01 1450.39 1071.82 1450.39 Z" fill="#000000" fill-rule="nonzero" fill-opacity="1" /><path clip-path="url(#clip430)" d="M1101.98 1454.1 Q1098.37 1454.1 1096.54 1457.66 Q1094.74 1461.2 1094.74 1468.33 Q1094.74 1475.44 1096.54 1479.01 Q1098.37 1482.55 1101.98 1482.55 Q1105.62 1482.55 1107.42 1479.01 Q1109.25 1475.44 1109.25 1468.33 Q1109.25 1461.2 1107.42 1457.66 Q1105.62 1454.1 1101.98 1454.1 M1101.98 1450.39 Q1107.79 1450.39 1110.85 1455 Q1113.93 1459.58 1113.93 1468.33 Q1113.93 1477.06 1110.85 1481.67 Q1107.79 1486.25 1101.98 1486.25 Q1096.17 1486.25 1093.09 1481.67 Q1090.04 1477.06 1090.04 1468.33 Q1090.04 1459.58 1093.09 1455 Q1096.17 1450.39 1101.98 1450.39 Z" fill="#000000" fill-rule="nonzero" fill-opacity="1" /><path clip-path="url(#clip430)" d="M1438.78 1481.64 L1446.42 1481.64 L1446.42 1455.28 L1438.11 1456.95 L1438.11 1452.69 L1446.38 1451.02 L1451.05 1451.02 L1451.05 1481.64 L1458.69 1481.64 L1458.69 1485.58 L1438.78 1485.58 L1438.78 1481.64 Z" fill="#000000" fill-rule="nonzero" fill-opacity="1" /><path clip-path="url(#clip430)" d="M1468.18 1451.02 L1486.54 1451.02 L1486.54 1454.96 L1472.46 1454.96 L1472.46 1463.43 Q1473.48 1463.08 1474.5 1462.92 Q1475.52 1462.73 1476.54 1462.73 Q1482.33 1462.73 1485.71 1465.9 Q1489.08 1469.08 1489.08 1474.49 Q1489.08 1480.07 1485.61 1483.17 Q1482.14 1486.25 1475.82 1486.25 Q1473.64 1486.25 1471.38 1485.88 Q1469.13 1485.51 1466.72 1484.77 L1466.72 1480.07 Q1468.81 1481.2 1471.03 1481.76 Q1473.25 1482.32 1475.73 1482.32 Q1479.73 1482.32 1482.07 1480.21 Q1484.41 1478.1 1484.41 1474.49 Q1484.41 1470.88 1482.07 1468.77 Q1479.73 1466.67 1475.73 1466.67 Q1473.85 1466.67 1471.98 1467.08 Q1470.13 1467.5 1468.18 1468.38 L1468.18 1451.02 Z" fill="#000000" fill-rule="nonzero" fill-opacity="1" /><path clip-path="url(#clip430)" d="M1508.3 1454.1 Q1504.69 1454.1 1502.86 1457.66 Q1501.05 1461.2 1501.05 1468.33 Q1501.05 1475.44 1502.86 1479.01 Q1504.69 1482.55 1508.3 1482.55 Q1511.93 1482.55 1513.74 1479.01 Q1515.57 1475.44 1515.57 1468.33 Q1515.57 1461.2 1513.74 1457.66 Q1511.93 1454.1 1508.3 1454.1 M1508.3 1450.39 Q1514.11 1450.39 1517.16 1455 Q1520.24 1459.58 1520.24 1468.33 Q1520.24 1477.06 1517.16 1481.67 Q1514.11 1486.25 1508.3 1486.25 Q1502.49 1486.25 1499.41 1481.67 Q1496.35 1477.06 1496.35 1468.33 Q1496.35 1459.58 1499.41 1455 Q1502.49 1450.39 1508.3 1450.39 Z" fill="#000000" fill-rule="nonzero" fill-opacity="1" /><path clip-path="url(#clip430)" d="M1849.19 1481.64 L1865.5 1481.64 L1865.5 1485.58 L1843.56 1485.58 L1843.56 1481.64 Q1846.22 1478.89 1850.81 1474.26 Q1855.41 1469.61 1856.59 1468.27 Q1858.84 1465.74 1859.72 1464.01 Q1860.62 1462.25 1860.62 1460.56 Q1860.62 1457.8 1858.68 1456.07 Q1856.75 1454.33 1853.65 1454.33 Q1851.45 1454.33 1849 1455.09 Q1846.57 1455.86 1843.79 1457.41 L1843.79 1452.69 Q1846.62 1451.55 1849.07 1450.97 Q1851.52 1450.39 1853.56 1450.39 Q1858.93 1450.39 1862.13 1453.08 Q1865.32 1455.77 1865.32 1460.26 Q1865.32 1462.39 1864.51 1464.31 Q1863.72 1466.2 1861.62 1468.8 Q1861.04 1469.47 1857.94 1472.69 Q1854.83 1475.88 1849.19 1481.64 Z" fill="#000000" fill-rule="nonzero" fill-opacity="1" /><path clip-path="url(#clip430)" d="M1885.32 1454.1 Q1881.71 1454.1 1879.88 1457.66 Q1878.07 1461.2 1878.07 1468.33 Q1878.07 1475.44 1879.88 1479.01 Q1881.71 1482.55 1885.32 1482.55 Q1888.95 1482.55 1890.76 1479.01 Q1892.59 1475.44 1892.59 1468.33 Q1892.59 1461.2 1890.76 1457.66 Q1888.95 1454.1 1885.32 1454.1 M1885.32 1450.39 Q1891.13 1450.39 1894.19 1455 Q1897.26 1459.58 1897.26 1468.33 Q1897.26 1477.06 1894.19 1481.67 Q1891.13 1486.25 1885.32 1486.25 Q1879.51 1486.25 1876.43 1481.67 Q1873.37 1477.06 1873.37 1468.33 Q1873.37 1459.58 1876.43 1455 Q1879.51 1450.39 1885.32 1450.39 Z" fill="#000000" fill-rule="nonzero" fill-opacity="1" /><path clip-path="url(#clip430)" d="M1915.48 1454.1 Q1911.87 1454.1 1910.04 1457.66 Q1908.24 1461.2 1908.24 1468.33 Q1908.24 1475.44 1910.04 1479.01 Q1911.87 1482.55 1915.48 1482.55 Q1919.12 1482.55 1920.92 1479.01 Q1922.75 1475.44 1922.75 1468.33 Q1922.75 1461.2 1920.92 1457.66 Q1919.12 1454.1 1915.48 1454.1 M1915.48 1450.39 Q1921.29 1450.39 1924.35 1455 Q1927.43 1459.58 1927.43 1468.33 Q1927.43 1477.06 1924.35 1481.67 Q1921.29 1486.25 1915.48 1486.25 Q1909.67 1486.25 1906.59 1481.67 Q1903.54 1477.06 1903.54 1468.33 Q1903.54 1459.58 1906.59 1455 Q1909.67 1450.39 1915.48 1450.39 Z" fill="#000000" fill-rule="nonzero" fill-opacity="1" /><path clip-path="url(#clip430)" d="M2255.5 1481.64 L2271.82 1481.64 L2271.82 1485.58 L2249.88 1485.58 L2249.88 1481.64 Q2252.54 1478.89 2257.12 1474.26 Q2261.73 1469.61 2262.91 1468.27 Q2265.15 1465.74 2266.03 1464.01 Q2266.94 1462.25 2266.94 1460.56 Q2266.94 1457.8 2264.99 1456.07 Q2263.07 1454.33 2259.97 1454.33 Q2257.77 1454.33 2255.32 1455.09 Q2252.89 1455.86 2250.11 1457.41 L2250.11 1452.69 Q2252.93 1451.55 2255.39 1450.97 Q2257.84 1450.39 2259.88 1450.39 Q2265.25 1450.39 2268.44 1453.08 Q2271.64 1455.77 2271.64 1460.26 Q2271.64 1462.39 2270.82 1464.31 Q2270.04 1466.2 2267.93 1468.8 Q2267.35 1469.47 2264.25 1472.69 Q2261.15 1475.88 2255.5 1481.64 Z" fill="#000000" fill-rule="nonzero" fill-opacity="1" /><path clip-path="url(#clip430)" d="M2281.68 1451.02 L2300.04 1451.02 L2300.04 1454.96 L2285.96 1454.96 L2285.96 1463.43 Q2286.98 1463.08 2288 1462.92 Q2289.02 1462.73 2290.04 1462.73 Q2295.82 1462.73 2299.2 1465.9 Q2302.58 1469.08 2302.58 1474.49 Q2302.58 1480.07 2299.11 1483.17 Q2295.64 1486.25 2289.32 1486.25 Q2287.14 1486.25 2284.88 1485.88 Q2282.63 1485.51 2280.22 1484.77 L2280.22 1480.07 Q2282.31 1481.2 2284.53 1481.76 Q2286.75 1482.32 2289.23 1482.32 Q2293.23 1482.32 2295.57 1480.21 Q2297.91 1478.1 2297.91 1474.49 Q2297.91 1470.88 2295.57 1468.77 Q2293.23 1466.67 2289.23 1466.67 Q2287.35 1466.67 2285.48 1467.08 Q2283.63 1467.5 2281.68 1468.38 L2281.68 1451.02 Z" fill="#000000" fill-rule="nonzero" fill-opacity="1" /><path clip-path="url(#clip430)" d="M2321.8 1454.1 Q2318.19 1454.1 2316.36 1457.66 Q2314.55 1461.2 2314.55 1468.33 Q2314.55 1475.44 2316.36 1479.01 Q2318.19 1482.55 2321.8 1482.55 Q2325.43 1482.55 2327.24 1479.01 Q2329.07 1475.44 2329.07 1468.33 Q2329.07 1461.2 2327.24 1457.66 Q2325.43 1454.1 2321.8 1454.1 M2321.8 1450.39 Q2327.61 1450.39 2330.66 1455 Q2333.74 1459.58 2333.74 1468.33 Q2333.74 1477.06 2330.66 1481.67 Q2327.61 1486.25 2321.8 1486.25 Q2315.99 1486.25 2312.91 1481.67 Q2309.85 1477.06 2309.85 1468.33 Q2309.85 1459.58 2312.91 1455 Q2315.99 1450.39 2321.8 1450.39 Z" fill="#000000" fill-rule="nonzero" fill-opacity="1" /><path clip-path="url(#clip430)" d="M1275.08 1522.27 L1275.08 1532.4 L1287.14 1532.4 L1287.14 1536.95 L1275.08 1536.95 L1275.08 1556.3 Q1275.08 1560.66 1276.26 1561.9 Q1277.47 1563.14 1281.13 1563.14 L1287.14 1563.14 L1287.14 1568.04 L1281.13 1568.04 Q1274.35 1568.04 1271.77 1565.53 Q1269.19 1562.98 1269.19 1556.3 L1269.19 1536.95 L1264.9 1536.95 L1264.9 1532.4 L1269.19 1532.4 L1269.19 1522.27 L1275.08 1522.27 Z" fill="#000000" fill-rule="nonzero" fill-opacity="1" /><polyline clip-path="url(#clip432)" style="stroke:#000000; stroke-linecap:round; stroke-linejoin:round; stroke-width:2; stroke-opacity:0.1; fill:none" points="199.283,1384.24 2352.76,1384.24 "/>
<polyline clip-path="url(#clip432)" style="stroke:#000000; stroke-linecap:round; stroke-linejoin:round; stroke-width:2; stroke-opacity:0.1; fill:none" points="199.283,1059.4 2352.76,1059.4 "/>
<polyline clip-path="url(#clip432)" style="stroke:#000000; stroke-linecap:round; stroke-linejoin:round; stroke-width:2; stroke-opacity:0.1; fill:none" points="199.283,734.562 2352.76,734.562 "/>
<polyline clip-path="url(#clip432)" style="stroke:#000000; stroke-linecap:round; stroke-linejoin:round; stroke-width:2; stroke-opacity:0.1; fill:none" points="199.283,409.724 2352.76,409.724 "/>
<polyline clip-path="url(#clip432)" style="stroke:#000000; stroke-linecap:round; stroke-linejoin:round; stroke-width:2; stroke-opacity:0.1; fill:none" points="199.283,84.8863 2352.76,84.8863 "/>
<polyline clip-path="url(#clip430)" style="stroke:#000000; stroke-linecap:round; stroke-linejoin:round; stroke-width:4; stroke-opacity:1; fill:none" points="199.283,1423.18 199.283,47.2441 "/>
<polyline clip-path="url(#clip430)" style="stroke:#000000; stroke-linecap:round; stroke-linejoin:round; stroke-width:4; stroke-opacity:1; fill:none" points="199.283,1384.24 218.181,1384.24 "/>
<polyline clip-path="url(#clip430)" style="stroke:#000000; stroke-linecap:round; stroke-linejoin:round; stroke-width:4; stroke-opacity:1; fill:none" points="199.283,1059.4 218.181,1059.4 "/>
<polyline clip-path="url(#clip430)" style="stroke:#000000; stroke-linecap:round; stroke-linejoin:round; stroke-width:4; stroke-opacity:1; fill:none" points="199.283,734.562 218.181,734.562 "/>
<polyline clip-path="url(#clip430)" style="stroke:#000000; stroke-linecap:round; stroke-linejoin:round; stroke-width:4; stroke-opacity:1; fill:none" points="199.283,409.724 218.181,409.724 "/>
<polyline clip-path="url(#clip430)" style="stroke:#000000; stroke-linecap:round; stroke-linejoin:round; stroke-width:4; stroke-opacity:1; fill:none" points="199.283,84.8863 218.181,84.8863 "/>
<path clip-path="url(#clip430)" d="M151.339 1370.04 Q147.728 1370.04 145.899 1373.6 Q144.093 1377.14 144.093 1384.27 Q144.093 1391.38 145.899 1394.94 Q147.728 1398.49 151.339 1398.49 Q154.973 1398.49 156.779 1394.94 Q158.607 1391.38 158.607 1384.27 Q158.607 1377.14 156.779 1373.6 Q154.973 1370.04 151.339 1370.04 M151.339 1366.33 Q157.149 1366.33 160.205 1370.94 Q163.283 1375.52 163.283 1384.27 Q163.283 1393 160.205 1397.61 Q157.149 1402.19 151.339 1402.19 Q145.529 1402.19 142.45 1397.61 Q139.394 1393 139.394 1384.27 Q139.394 1375.52 142.45 1370.94 Q145.529 1366.33 151.339 1366.33 Z" fill="#000000" fill-rule="nonzero" fill-opacity="1" /><path clip-path="url(#clip430)" d="M85.0429 1072.75 L101.362 1072.75 L101.362 1076.68 L79.4179 1076.68 L79.4179 1072.75 Q82.0799 1069.99 86.6632 1065.36 Q91.2697 1060.71 92.4502 1059.37 Q94.6956 1056.84 95.5752 1055.11 Q96.478 1053.35 96.478 1051.66 Q96.478 1048.9 94.5336 1047.17 Q92.6123 1045.43 89.5104 1045.43 Q87.3114 1045.43 84.8577 1046.19 Q82.4271 1046.96 79.6494 1048.51 L79.6494 1043.79 Q82.4734 1042.65 84.9271 1042.07 Q87.3808 1041.5 89.4178 1041.5 Q94.7882 1041.5 97.9826 1044.18 Q101.177 1046.87 101.177 1051.36 Q101.177 1053.49 100.367 1055.41 Q99.5798 1057.31 97.4734 1059.9 Q96.8947 1060.57 93.7928 1063.79 Q90.691 1066.98 85.0429 1072.75 Z" fill="#000000" fill-rule="nonzero" fill-opacity="1" /><path clip-path="url(#clip430)" d="M111.223 1042.12 L129.58 1042.12 L129.58 1046.06 L115.506 1046.06 L115.506 1054.53 Q116.524 1054.18 117.543 1054.02 Q118.561 1053.83 119.58 1053.83 Q125.367 1053.83 128.746 1057 Q132.126 1060.18 132.126 1065.59 Q132.126 1071.17 128.654 1074.27 Q125.182 1077.35 118.862 1077.35 Q116.686 1077.35 114.418 1076.98 Q112.172 1076.61 109.765 1075.87 L109.765 1071.17 Q111.848 1072.31 114.07 1072.86 Q116.293 1073.42 118.77 1073.42 Q122.774 1073.42 125.112 1071.31 Q127.45 1069.2 127.45 1065.59 Q127.45 1061.98 125.112 1059.87 Q122.774 1057.77 118.77 1057.77 Q116.895 1057.77 115.02 1058.19 Q113.168 1058.6 111.223 1059.48 L111.223 1042.12 Z" fill="#000000" fill-rule="nonzero" fill-opacity="1" /><path clip-path="url(#clip430)" d="M151.339 1045.2 Q147.728 1045.2 145.899 1048.76 Q144.093 1052.31 144.093 1059.44 Q144.093 1066.54 145.899 1070.11 Q147.728 1073.65 151.339 1073.65 Q154.973 1073.65 156.779 1070.11 Q158.607 1066.54 158.607 1059.44 Q158.607 1052.31 156.779 1048.76 Q154.973 1045.2 151.339 1045.2 M151.339 1041.5 Q157.149 1041.5 160.205 1046.1 Q163.283 1050.69 163.283 1059.44 Q163.283 1068.16 160.205 1072.77 Q157.149 1077.35 151.339 1077.35 Q145.529 1077.35 142.45 1072.77 Q139.394 1068.16 139.394 1059.44 Q139.394 1050.69 142.45 1046.1 Q145.529 1041.5 151.339 1041.5 Z" fill="#000000" fill-rule="nonzero" fill-opacity="1" /><path clip-path="url(#clip430)" d="M81.0614 717.282 L99.4178 717.282 L99.4178 721.217 L85.3438 721.217 L85.3438 729.69 Q86.3623 729.342 87.3808 729.18 Q88.3993 728.995 89.4178 728.995 Q95.2049 728.995 98.5845 732.166 Q101.964 735.338 101.964 740.754 Q101.964 746.333 98.4919 749.435 Q95.0197 752.514 88.7003 752.514 Q86.5243 752.514 84.2558 752.143 Q82.0105 751.773 79.6031 751.032 L79.6031 746.333 Q81.6864 747.467 83.9086 748.023 Q86.1308 748.578 88.6077 748.578 Q92.6123 748.578 94.9502 746.472 Q97.2882 744.365 97.2882 740.754 Q97.2882 737.143 94.9502 735.037 Q92.6123 732.93 88.6077 732.93 Q86.7327 732.93 84.8577 733.347 Q83.0058 733.764 81.0614 734.643 L81.0614 717.282 Z" fill="#000000" fill-rule="nonzero" fill-opacity="1" /><path clip-path="url(#clip430)" d="M121.177 720.361 Q117.566 720.361 115.737 723.926 Q113.932 727.467 113.932 734.597 Q113.932 741.703 115.737 745.268 Q117.566 748.81 121.177 748.81 Q124.811 748.81 126.617 745.268 Q128.445 741.703 128.445 734.597 Q128.445 727.467 126.617 723.926 Q124.811 720.361 121.177 720.361 M121.177 716.657 Q126.987 716.657 130.043 721.264 Q133.121 725.847 133.121 734.597 Q133.121 743.324 130.043 747.93 Q126.987 752.514 121.177 752.514 Q115.367 752.514 112.288 747.93 Q109.233 743.324 109.233 734.597 Q109.233 725.847 112.288 721.264 Q115.367 716.657 121.177 716.657 Z" fill="#000000" fill-rule="nonzero" fill-opacity="1" /><path clip-path="url(#clip430)" d="M151.339 720.361 Q147.728 720.361 145.899 723.926 Q144.093 727.467 144.093 734.597 Q144.093 741.703 145.899 745.268 Q147.728 748.81 151.339 748.81 Q154.973 748.81 156.779 745.268 Q158.607 741.703 158.607 734.597 Q158.607 727.467 156.779 723.926 Q154.973 720.361 151.339 720.361 M151.339 716.657 Q157.149 716.657 160.205 721.264 Q163.283 725.847 163.283 734.597 Q163.283 743.324 160.205 747.93 Q157.149 752.514 151.339 752.514 Q145.529 752.514 142.45 747.93 Q139.394 743.324 139.394 734.597 Q139.394 725.847 142.45 721.264 Q145.529 716.657 151.339 716.657 Z" fill="#000000" fill-rule="nonzero" fill-opacity="1" /><path clip-path="url(#clip430)" d="M79.8346 392.444 L102.057 392.444 L102.057 394.435 L89.5104 427.004 L84.6262 427.004 L96.4317 396.379 L79.8346 396.379 L79.8346 392.444 Z" fill="#000000" fill-rule="nonzero" fill-opacity="1" /><path clip-path="url(#clip430)" d="M111.223 392.444 L129.58 392.444 L129.58 396.379 L115.506 396.379 L115.506 404.852 Q116.524 404.504 117.543 404.342 Q118.561 404.157 119.58 404.157 Q125.367 404.157 128.746 407.328 Q132.126 410.5 132.126 415.916 Q132.126 421.495 128.654 424.597 Q125.182 427.676 118.862 427.676 Q116.686 427.676 114.418 427.305 Q112.172 426.935 109.765 426.194 L109.765 421.495 Q111.848 422.629 114.07 423.185 Q116.293 423.74 118.77 423.74 Q122.774 423.74 125.112 421.634 Q127.45 419.527 127.45 415.916 Q127.45 412.305 125.112 410.199 Q122.774 408.092 118.77 408.092 Q116.895 408.092 115.02 408.509 Q113.168 408.926 111.223 409.805 L111.223 392.444 Z" fill="#000000" fill-rule="nonzero" fill-opacity="1" /><path clip-path="url(#clip430)" d="M151.339 395.523 Q147.728 395.523 145.899 399.088 Q144.093 402.629 144.093 409.759 Q144.093 416.865 145.899 420.43 Q147.728 423.972 151.339 423.972 Q154.973 423.972 156.779 420.43 Q158.607 416.865 158.607 409.759 Q158.607 402.629 156.779 399.088 Q154.973 395.523 151.339 395.523 M151.339 391.819 Q157.149 391.819 160.205 396.426 Q163.283 401.009 163.283 409.759 Q163.283 418.486 160.205 423.092 Q157.149 427.676 151.339 427.676 Q145.529 427.676 142.45 423.092 Q139.394 418.486 139.394 409.759 Q139.394 401.009 142.45 396.426 Q145.529 391.819 151.339 391.819 Z" fill="#000000" fill-rule="nonzero" fill-opacity="1" /><path clip-path="url(#clip430)" d="M51.6634 98.2312 L59.3023 98.2312 L59.3023 71.8656 L50.9921 73.5322 L50.9921 69.273 L59.256 67.6063 L63.9319 67.6063 L63.9319 98.2312 L71.5707 98.2312 L71.5707 102.166 L51.6634 102.166 L51.6634 98.2312 Z" fill="#000000" fill-rule="nonzero" fill-opacity="1" /><path clip-path="url(#clip430)" d="M91.0151 70.685 Q87.404 70.685 85.5753 74.2498 Q83.7697 77.7915 83.7697 84.921 Q83.7697 92.0275 85.5753 95.5923 Q87.404 99.1339 91.0151 99.1339 Q94.6493 99.1339 96.4548 95.5923 Q98.2835 92.0275 98.2835 84.921 Q98.2835 77.7915 96.4548 74.2498 Q94.6493 70.685 91.0151 70.685 M91.0151 66.9813 Q96.8252 66.9813 99.8808 71.5878 Q102.959 76.1711 102.959 84.921 Q102.959 93.6478 99.8808 98.2543 Q96.8252 102.838 91.0151 102.838 Q85.2049 102.838 82.1262 98.2543 Q79.0707 93.6478 79.0707 84.921 Q79.0707 76.1711 82.1262 71.5878 Q85.2049 66.9813 91.0151 66.9813 Z" fill="#000000" fill-rule="nonzero" fill-opacity="1" /><path clip-path="url(#clip430)" d="M121.177 70.685 Q117.566 70.685 115.737 74.2498 Q113.932 77.7915 113.932 84.921 Q113.932 92.0275 115.737 95.5923 Q117.566 99.1339 121.177 99.1339 Q124.811 99.1339 126.617 95.5923 Q128.445 92.0275 128.445 84.921 Q128.445 77.7915 126.617 74.2498 Q124.811 70.685 121.177 70.685 M121.177 66.9813 Q126.987 66.9813 130.043 71.5878 Q133.121 76.1711 133.121 84.921 Q133.121 93.6478 130.043 98.2543 Q126.987 102.838 121.177 102.838 Q115.367 102.838 112.288 98.2543 Q109.233 93.6478 109.233 84.921 Q109.233 76.1711 112.288 71.5878 Q115.367 66.9813 121.177 66.9813 Z" fill="#000000" fill-rule="nonzero" fill-opacity="1" /><path clip-path="url(#clip430)" d="M151.339 70.685 Q147.728 70.685 145.899 74.2498 Q144.093 77.7915 144.093 84.921 Q144.093 92.0275 145.899 95.5923 Q147.728 99.1339 151.339 99.1339 Q154.973 99.1339 156.779 95.5923 Q158.607 92.0275 158.607 84.921 Q158.607 77.7915 156.779 74.2498 Q154.973 70.685 151.339 70.685 M151.339 66.9813 Q157.149 66.9813 160.205 71.5878 Q163.283 76.1711 163.283 84.921 Q163.283 93.6478 160.205 98.2543 Q157.149 102.838 151.339 102.838 Q145.529 102.838 142.45 98.2543 Q139.394 93.6478 139.394 84.921 Q139.394 76.1711 142.45 71.5878 Q145.529 66.9813 151.339 66.9813 Z" fill="#000000" fill-rule="nonzero" fill-opacity="1" /><polyline clip-path="url(#clip432)" style="stroke:#009af9; stroke-linecap:round; stroke-linejoin:round; stroke-width:8; stroke-opacity:1; fill:none" points="260.231,86.1857 341.494,100.479 422.757,136.86 504.02,234.312 585.283,437.011 666.546,712.473 747.809,954.153 829.072,1152.95 910.336,1276.39 991.599,1338.76 1072.86,1358.25 1154.12,1367.35 1235.39,1372.54 1316.65,1376.44 1397.91,1379.04 1479.18,1380.34 1560.44,1380.34 1641.7,1380.34 1722.97,1380.34 1804.23,1382.94 1885.49,1382.94 1966.76,1382.94 2048.02,1382.94 2129.28,1382.94 2210.55,1382.94 2291.81,1382.94 "/>
<path clip-path="url(#clip432)" d="M260.231 102.186 L248.919 97.4977 L244.231 86.1857 L248.919 74.8737 L260.231 70.1857 L271.543 74.8737 L276.231 86.1857 L271.543 97.4977 Z" fill="#009af9" fill-rule="evenodd" fill-opacity="1" stroke="#000000" stroke-opacity="1" stroke-width="3.2"/>
<path clip-path="url(#clip432)" d="M341.494 116.479 L330.182 111.791 L325.494 100.479 L330.182 89.1665 L341.494 84.4785 L352.806 89.1665 L357.494 100.479 L352.806 111.791 Z" fill="#009af9" fill-rule="evenodd" fill-opacity="1" stroke="#000000" stroke-opacity="1" stroke-width="3.2"/>
<path clip-path="url(#clip432)" d="M422.757 152.86 L411.445 148.172 L406.757 136.86 L411.445 125.548 L422.757 120.86 L434.069 125.548 L438.757 136.86 L434.069 148.172 Z" fill="#009af9" fill-rule="evenodd" fill-opacity="1" stroke="#000000" stroke-opacity="1" stroke-width="3.2"/>
<path clip-path="url(#clip432)" d="M504.02 250.312 L492.708 245.624 L488.02 234.312 L492.708 223 L504.02 218.312 L515.332 223 L520.02 234.312 L515.332 245.624 Z" fill="#009af9" fill-rule="evenodd" fill-opacity="1" stroke="#000000" stroke-opacity="1" stroke-width="3.2"/>
<path clip-path="url(#clip432)" d="M585.283 453.011 L573.971 448.323 L569.283 437.011 L573.971 425.699 L585.283 421.011 L596.595 425.699 L601.283 437.011 L596.595 448.323 Z" fill="#009af9" fill-rule="evenodd" fill-opacity="1" stroke="#000000" stroke-opacity="1" stroke-width="3.2"/>
<path clip-path="url(#clip432)" d="M666.546 728.473 L655.234 723.785 L650.546 712.473 L655.234 701.161 L666.546 696.473 L677.858 701.161 L682.546 712.473 L677.858 723.785 Z" fill="#009af9" fill-rule="evenodd" fill-opacity="1" stroke="#000000" stroke-opacity="1" stroke-width="3.2"/>
<path clip-path="url(#clip432)" d="M747.809 970.153 L736.497 965.465 L731.809 954.153 L736.497 942.841 L747.809 938.153 L759.121 942.841 L763.809 954.153 L759.121 965.465 Z" fill="#009af9" fill-rule="evenodd" fill-opacity="1" stroke="#000000" stroke-opacity="1" stroke-width="3.2"/>
<path clip-path="url(#clip432)" d="M829.072 1168.95 L817.76 1164.27 L813.072 1152.95 L817.76 1141.64 L829.072 1136.95 L840.384 1141.64 L845.072 1152.95 L840.384 1164.27 Z" fill="#009af9" fill-rule="evenodd" fill-opacity="1" stroke="#000000" stroke-opacity="1" stroke-width="3.2"/>
<path clip-path="url(#clip432)" d="M910.336 1292.39 L899.024 1287.7 L894.336 1276.39 L899.024 1265.08 L910.336 1260.39 L921.648 1265.08 L926.336 1276.39 L921.648 1287.7 Z" fill="#009af9" fill-rule="evenodd" fill-opacity="1" stroke="#000000" stroke-opacity="1" stroke-width="3.2"/>
<path clip-path="url(#clip432)" d="M991.599 1354.76 L980.287 1350.07 L975.599 1338.76 L980.287 1327.45 L991.599 1322.76 L1002.91 1327.45 L1007.6 1338.76 L1002.91 1350.07 Z" fill="#009af9" fill-rule="evenodd" fill-opacity="1" stroke="#000000" stroke-opacity="1" stroke-width="3.2"/>
<path clip-path="url(#clip432)" d="M1072.86 1374.25 L1061.55 1369.56 L1056.86 1358.25 L1061.55 1346.94 L1072.86 1342.25 L1084.17 1346.94 L1088.86 1358.25 L1084.17 1369.56 Z" fill="#009af9" fill-rule="evenodd" fill-opacity="1" stroke="#000000" stroke-opacity="1" stroke-width="3.2"/>
<path clip-path="url(#clip432)" d="M1154.12 1383.35 L1142.81 1378.66 L1138.12 1367.35 L1142.81 1356.03 L1154.12 1351.35 L1165.44 1356.03 L1170.12 1367.35 L1165.44 1378.66 Z" fill="#009af9" fill-rule="evenodd" fill-opacity="1" stroke="#000000" stroke-opacity="1" stroke-width="3.2"/>
<path clip-path="url(#clip432)" d="M1235.39 1388.54 L1224.08 1383.86 L1219.39 1372.54 L1224.08 1361.23 L1235.39 1356.54 L1246.7 1361.23 L1251.39 1372.54 L1246.7 1383.86 Z" fill="#009af9" fill-rule="evenodd" fill-opacity="1" stroke="#000000" stroke-opacity="1" stroke-width="3.2"/>
<path clip-path="url(#clip432)" d="M1316.65 1392.44 L1305.34 1387.75 L1300.65 1376.44 L1305.34 1365.13 L1316.65 1360.44 L1327.96 1365.13 L1332.65 1376.44 L1327.96 1387.75 Z" fill="#009af9" fill-rule="evenodd" fill-opacity="1" stroke="#000000" stroke-opacity="1" stroke-width="3.2"/>
<path clip-path="url(#clip432)" d="M1397.91 1395.04 L1386.6 1390.35 L1381.91 1379.04 L1386.6 1367.73 L1397.91 1363.04 L1409.23 1367.73 L1413.91 1379.04 L1409.23 1390.35 Z" fill="#009af9" fill-rule="evenodd" fill-opacity="1" stroke="#000000" stroke-opacity="1" stroke-width="3.2"/>
<path clip-path="url(#clip432)" d="M1479.18 1396.34 L1467.87 1391.65 L1463.18 1380.34 L1467.87 1369.03 L1479.18 1364.34 L1490.49 1369.03 L1495.18 1380.34 L1490.49 1391.65 Z" fill="#009af9" fill-rule="evenodd" fill-opacity="1" stroke="#000000" stroke-opacity="1" stroke-width="3.2"/>
<path clip-path="url(#clip432)" d="M1560.44 1396.34 L1549.13 1391.65 L1544.44 1380.34 L1549.13 1369.03 L1560.44 1364.34 L1571.75 1369.03 L1576.44 1380.34 L1571.75 1391.65 Z" fill="#009af9" fill-rule="evenodd" fill-opacity="1" stroke="#000000" stroke-opacity="1" stroke-width="3.2"/>
<path clip-path="url(#clip432)" d="M1641.7 1396.34 L1630.39 1391.65 L1625.7 1380.34 L1630.39 1369.03 L1641.7 1364.34 L1653.02 1369.03 L1657.7 1380.34 L1653.02 1391.65 Z" fill="#009af9" fill-rule="evenodd" fill-opacity="1" stroke="#000000" stroke-opacity="1" stroke-width="3.2"/>
<path clip-path="url(#clip432)" d="M1722.97 1396.34 L1711.65 1391.65 L1706.97 1380.34 L1711.65 1369.03 L1722.97 1364.34 L1734.28 1369.03 L1738.97 1380.34 L1734.28 1391.65 Z" fill="#009af9" fill-rule="evenodd" fill-opacity="1" stroke="#000000" stroke-opacity="1" stroke-width="3.2"/>
<path clip-path="url(#clip432)" d="M1804.23 1398.94 L1792.92 1394.25 L1788.23 1382.94 L1792.92 1371.63 L1804.23 1366.94 L1815.54 1371.63 L1820.23 1382.94 L1815.54 1394.25 Z" fill="#009af9" fill-rule="evenodd" fill-opacity="1" stroke="#000000" stroke-opacity="1" stroke-width="3.2"/>
<path clip-path="url(#clip432)" d="M1885.49 1398.94 L1874.18 1394.25 L1869.49 1382.94 L1874.18 1371.63 L1885.49 1366.94 L1896.8 1371.63 L1901.49 1382.94 L1896.8 1394.25 Z" fill="#009af9" fill-rule="evenodd" fill-opacity="1" stroke="#000000" stroke-opacity="1" stroke-width="3.2"/>
<path clip-path="url(#clip432)" d="M1966.76 1398.94 L1955.44 1394.25 L1950.76 1382.94 L1955.44 1371.63 L1966.76 1366.94 L1978.07 1371.63 L1982.76 1382.94 L1978.07 1394.25 Z" fill="#009af9" fill-rule="evenodd" fill-opacity="1" stroke="#000000" stroke-opacity="1" stroke-width="3.2"/>
<path clip-path="url(#clip432)" d="M2048.02 1398.94 L2036.71 1394.25 L2032.02 1382.94 L2036.71 1371.63 L2048.02 1366.94 L2059.33 1371.63 L2064.02 1382.94 L2059.33 1394.25 Z" fill="#009af9" fill-rule="evenodd" fill-opacity="1" stroke="#000000" stroke-opacity="1" stroke-width="3.2"/>
<path clip-path="url(#clip432)" d="M2129.28 1398.94 L2117.97 1394.25 L2113.28 1382.94 L2117.97 1371.63 L2129.28 1366.94 L2140.59 1371.63 L2145.28 1382.94 L2140.59 1394.25 Z" fill="#009af9" fill-rule="evenodd" fill-opacity="1" stroke="#000000" stroke-opacity="1" stroke-width="3.2"/>
<path clip-path="url(#clip432)" d="M2210.55 1398.94 L2199.23 1394.25 L2194.55 1382.94 L2199.23 1371.63 L2210.55 1366.94 L2221.86 1371.63 L2226.55 1382.94 L2221.86 1394.25 Z" fill="#009af9" fill-rule="evenodd" fill-opacity="1" stroke="#000000" stroke-opacity="1" stroke-width="3.2"/>
<path clip-path="url(#clip432)" d="M2291.81 1398.94 L2280.5 1394.25 L2275.81 1382.94 L2280.5 1371.63 L2291.81 1366.94 L2303.12 1371.63 L2307.81 1382.94 L2303.12 1394.25 Z" fill="#009af9" fill-rule="evenodd" fill-opacity="1" stroke="#000000" stroke-opacity="1" stroke-width="3.2"/>
<polyline clip-path="url(#clip432)" style="stroke:#e26f46; stroke-linecap:round; stroke-linejoin:round; stroke-width:8; stroke-opacity:1; fill:none" points="260.231,1371.24 341.494,1356.95 422.757,1325.77 504.02,1233.51 585.283,1051.6 666.546,825.517 747.809,666.996 829.072,543.558 910.336,505.876 991.599,531.863 1072.86,599.43 1154.12,672.193 1235.39,729.365 1316.65,782.638 1397.91,848.905 1479.18,891.784 1560.44,945.057 1641.7,1000.93 1722.97,1032.11 1804.23,1069.8 1885.49,1106.18 1966.76,1134.76 2048.02,1164.65 2129.28,1182.84 2210.55,1199.73 2291.81,1211.42 "/>
<line clip-path="url(#clip432)" x1="260.231" y1="1371.24" x2="244.231" y2="1355.24" style="stroke:#e26f46; stroke-width:8; stroke-opacity:1"/>
<line clip-path="url(#clip432)" x1="260.231" y1="1371.24" x2="244.231" y2="1387.24" style="stroke:#e26f46; stroke-width:8; stroke-opacity:1"/>
<line clip-path="url(#clip432)" x1="260.231" y1="1371.24" x2="276.231" y2="1387.24" style="stroke:#e26f46; stroke-width:8; stroke-opacity:1"/>
<line clip-path="url(#clip432)" x1="260.231" y1="1371.24" x2="276.231" y2="1355.24" style="stroke:#e26f46; stroke-width:8; stroke-opacity:1"/>
<line clip-path="url(#clip432)" x1="341.494" y1="1356.95" x2="325.494" y2="1340.95" style="stroke:#e26f46; stroke-width:8; stroke-opacity:1"/>
<line clip-path="url(#clip432)" x1="341.494" y1="1356.95" x2="325.494" y2="1372.95" style="stroke:#e26f46; stroke-width:8; stroke-opacity:1"/>
<line clip-path="url(#clip432)" x1="341.494" y1="1356.95" x2="357.494" y2="1372.95" style="stroke:#e26f46; stroke-width:8; stroke-opacity:1"/>
<line clip-path="url(#clip432)" x1="341.494" y1="1356.95" x2="357.494" y2="1340.95" style="stroke:#e26f46; stroke-width:8; stroke-opacity:1"/>
<line clip-path="url(#clip432)" x1="422.757" y1="1325.77" x2="406.757" y2="1309.77" style="stroke:#e26f46; stroke-width:8; stroke-opacity:1"/>
<line clip-path="url(#clip432)" x1="422.757" y1="1325.77" x2="406.757" y2="1341.77" style="stroke:#e26f46; stroke-width:8; stroke-opacity:1"/>
<line clip-path="url(#clip432)" x1="422.757" y1="1325.77" x2="438.757" y2="1341.77" style="stroke:#e26f46; stroke-width:8; stroke-opacity:1"/>
<line clip-path="url(#clip432)" x1="422.757" y1="1325.77" x2="438.757" y2="1309.77" style="stroke:#e26f46; stroke-width:8; stroke-opacity:1"/>
<line clip-path="url(#clip432)" x1="504.02" y1="1233.51" x2="488.02" y2="1217.51" style="stroke:#e26f46; stroke-width:8; stroke-opacity:1"/>
<line clip-path="url(#clip432)" x1="504.02" y1="1233.51" x2="488.02" y2="1249.51" style="stroke:#e26f46; stroke-width:8; stroke-opacity:1"/>
<line clip-path="url(#clip432)" x1="504.02" y1="1233.51" x2="520.02" y2="1249.51" style="stroke:#e26f46; stroke-width:8; stroke-opacity:1"/>
<line clip-path="url(#clip432)" x1="504.02" y1="1233.51" x2="520.02" y2="1217.51" style="stroke:#e26f46; stroke-width:8; stroke-opacity:1"/>
<line clip-path="url(#clip432)" x1="585.283" y1="1051.6" x2="569.283" y2="1035.6" style="stroke:#e26f46; stroke-width:8; stroke-opacity:1"/>
<line clip-path="url(#clip432)" x1="585.283" y1="1051.6" x2="569.283" y2="1067.6" style="stroke:#e26f46; stroke-width:8; stroke-opacity:1"/>
<line clip-path="url(#clip432)" x1="585.283" y1="1051.6" x2="601.283" y2="1067.6" style="stroke:#e26f46; stroke-width:8; stroke-opacity:1"/>
<line clip-path="url(#clip432)" x1="585.283" y1="1051.6" x2="601.283" y2="1035.6" style="stroke:#e26f46; stroke-width:8; stroke-opacity:1"/>
<line clip-path="url(#clip432)" x1="666.546" y1="825.517" x2="650.546" y2="809.517" style="stroke:#e26f46; stroke-width:8; stroke-opacity:1"/>
<line clip-path="url(#clip432)" x1="666.546" y1="825.517" x2="650.546" y2="841.517" style="stroke:#e26f46; stroke-width:8; stroke-opacity:1"/>
<line clip-path="url(#clip432)" x1="666.546" y1="825.517" x2="682.546" y2="841.517" style="stroke:#e26f46; stroke-width:8; stroke-opacity:1"/>
<line clip-path="url(#clip432)" x1="666.546" y1="825.517" x2="682.546" y2="809.517" style="stroke:#e26f46; stroke-width:8; stroke-opacity:1"/>
<line clip-path="url(#clip432)" x1="747.809" y1="666.996" x2="731.809" y2="650.996" style="stroke:#e26f46; stroke-width:8; stroke-opacity:1"/>
<line clip-path="url(#clip432)" x1="747.809" y1="666.996" x2="731.809" y2="682.996" style="stroke:#e26f46; stroke-width:8; stroke-opacity:1"/>
<line clip-path="url(#clip432)" x1="747.809" y1="666.996" x2="763.809" y2="682.996" style="stroke:#e26f46; stroke-width:8; stroke-opacity:1"/>
<line clip-path="url(#clip432)" x1="747.809" y1="666.996" x2="763.809" y2="650.996" style="stroke:#e26f46; stroke-width:8; stroke-opacity:1"/>
<line clip-path="url(#clip432)" x1="829.072" y1="543.558" x2="813.072" y2="527.558" style="stroke:#e26f46; stroke-width:8; stroke-opacity:1"/>
<line clip-path="url(#clip432)" x1="829.072" y1="543.558" x2="813.072" y2="559.558" style="stroke:#e26f46; stroke-width:8; stroke-opacity:1"/>
<line clip-path="url(#clip432)" x1="829.072" y1="543.558" x2="845.072" y2="559.558" style="stroke:#e26f46; stroke-width:8; stroke-opacity:1"/>
<line clip-path="url(#clip432)" x1="829.072" y1="543.558" x2="845.072" y2="527.558" style="stroke:#e26f46; stroke-width:8; stroke-opacity:1"/>
<line clip-path="url(#clip432)" x1="910.336" y1="505.876" x2="894.336" y2="489.876" style="stroke:#e26f46; stroke-width:8; stroke-opacity:1"/>
<line clip-path="url(#clip432)" x1="910.336" y1="505.876" x2="894.336" y2="521.876" style="stroke:#e26f46; stroke-width:8; stroke-opacity:1"/>
<line clip-path="url(#clip432)" x1="910.336" y1="505.876" x2="926.336" y2="521.876" style="stroke:#e26f46; stroke-width:8; stroke-opacity:1"/>
<line clip-path="url(#clip432)" x1="910.336" y1="505.876" x2="926.336" y2="489.876" style="stroke:#e26f46; stroke-width:8; stroke-opacity:1"/>
<line clip-path="url(#clip432)" x1="991.599" y1="531.863" x2="975.599" y2="515.863" style="stroke:#e26f46; stroke-width:8; stroke-opacity:1"/>
<line clip-path="url(#clip432)" x1="991.599" y1="531.863" x2="975.599" y2="547.863" style="stroke:#e26f46; stroke-width:8; stroke-opacity:1"/>
<line clip-path="url(#clip432)" x1="991.599" y1="531.863" x2="1007.6" y2="547.863" style="stroke:#e26f46; stroke-width:8; stroke-opacity:1"/>
<line clip-path="url(#clip432)" x1="991.599" y1="531.863" x2="1007.6" y2="515.863" style="stroke:#e26f46; stroke-width:8; stroke-opacity:1"/>
<line clip-path="url(#clip432)" x1="1072.86" y1="599.43" x2="1056.86" y2="583.43" style="stroke:#e26f46; stroke-width:8; stroke-opacity:1"/>
<line clip-path="url(#clip432)" x1="1072.86" y1="599.43" x2="1056.86" y2="615.43" style="stroke:#e26f46; stroke-width:8; stroke-opacity:1"/>
<line clip-path="url(#clip432)" x1="1072.86" y1="599.43" x2="1088.86" y2="615.43" style="stroke:#e26f46; stroke-width:8; stroke-opacity:1"/>
<line clip-path="url(#clip432)" x1="1072.86" y1="599.43" x2="1088.86" y2="583.43" style="stroke:#e26f46; stroke-width:8; stroke-opacity:1"/>
<line clip-path="url(#clip432)" x1="1154.12" y1="672.193" x2="1138.12" y2="656.193" style="stroke:#e26f46; stroke-width:8; stroke-opacity:1"/>
<line clip-path="url(#clip432)" x1="1154.12" y1="672.193" x2="1138.12" y2="688.193" style="stroke:#e26f46; stroke-width:8; stroke-opacity:1"/>
<line clip-path="url(#clip432)" x1="1154.12" y1="672.193" x2="1170.12" y2="688.193" style="stroke:#e26f46; stroke-width:8; stroke-opacity:1"/>
<line clip-path="url(#clip432)" x1="1154.12" y1="672.193" x2="1170.12" y2="656.193" style="stroke:#e26f46; stroke-width:8; stroke-opacity:1"/>
<line clip-path="url(#clip432)" x1="1235.39" y1="729.365" x2="1219.39" y2="713.365" style="stroke:#e26f46; stroke-width:8; stroke-opacity:1"/>
<line clip-path="url(#clip432)" x1="1235.39" y1="729.365" x2="1219.39" y2="745.365" style="stroke:#e26f46; stroke-width:8; stroke-opacity:1"/>
<line clip-path="url(#clip432)" x1="1235.39" y1="729.365" x2="1251.39" y2="745.365" style="stroke:#e26f46; stroke-width:8; stroke-opacity:1"/>
<line clip-path="url(#clip432)" x1="1235.39" y1="729.365" x2="1251.39" y2="713.365" style="stroke:#e26f46; stroke-width:8; stroke-opacity:1"/>
<line clip-path="url(#clip432)" x1="1316.65" y1="782.638" x2="1300.65" y2="766.638" style="stroke:#e26f46; stroke-width:8; stroke-opacity:1"/>
<line clip-path="url(#clip432)" x1="1316.65" y1="782.638" x2="1300.65" y2="798.638" style="stroke:#e26f46; stroke-width:8; stroke-opacity:1"/>
<line clip-path="url(#clip432)" x1="1316.65" y1="782.638" x2="1332.65" y2="798.638" style="stroke:#e26f46; stroke-width:8; stroke-opacity:1"/>
<line clip-path="url(#clip432)" x1="1316.65" y1="782.638" x2="1332.65" y2="766.638" style="stroke:#e26f46; stroke-width:8; stroke-opacity:1"/>
<line clip-path="url(#clip432)" x1="1397.91" y1="848.905" x2="1381.91" y2="832.905" style="stroke:#e26f46; stroke-width:8; stroke-opacity:1"/>
<line clip-path="url(#clip432)" x1="1397.91" y1="848.905" x2="1381.91" y2="864.905" style="stroke:#e26f46; stroke-width:8; stroke-opacity:1"/>
<line clip-path="url(#clip432)" x1="1397.91" y1="848.905" x2="1413.91" y2="864.905" style="stroke:#e26f46; stroke-width:8; stroke-opacity:1"/>
<line clip-path="url(#clip432)" x1="1397.91" y1="848.905" x2="1413.91" y2="832.905" style="stroke:#e26f46; stroke-width:8; stroke-opacity:1"/>
<line clip-path="url(#clip432)" x1="1479.18" y1="891.784" x2="1463.18" y2="875.784" style="stroke:#e26f46; stroke-width:8; stroke-opacity:1"/>
<line clip-path="url(#clip432)" x1="1479.18" y1="891.784" x2="1463.18" y2="907.784" style="stroke:#e26f46; stroke-width:8; stroke-opacity:1"/>
<line clip-path="url(#clip432)" x1="1479.18" y1="891.784" x2="1495.18" y2="907.784" style="stroke:#e26f46; stroke-width:8; stroke-opacity:1"/>
<line clip-path="url(#clip432)" x1="1479.18" y1="891.784" x2="1495.18" y2="875.784" style="stroke:#e26f46; stroke-width:8; stroke-opacity:1"/>
<line clip-path="url(#clip432)" x1="1560.44" y1="945.057" x2="1544.44" y2="929.057" style="stroke:#e26f46; stroke-width:8; stroke-opacity:1"/>
<line clip-path="url(#clip432)" x1="1560.44" y1="945.057" x2="1544.44" y2="961.057" style="stroke:#e26f46; stroke-width:8; stroke-opacity:1"/>
<line clip-path="url(#clip432)" x1="1560.44" y1="945.057" x2="1576.44" y2="961.057" style="stroke:#e26f46; stroke-width:8; stroke-opacity:1"/>
<line clip-path="url(#clip432)" x1="1560.44" y1="945.057" x2="1576.44" y2="929.057" style="stroke:#e26f46; stroke-width:8; stroke-opacity:1"/>
<line clip-path="url(#clip432)" x1="1641.7" y1="1000.93" x2="1625.7" y2="984.929" style="stroke:#e26f46; stroke-width:8; stroke-opacity:1"/>
<line clip-path="url(#clip432)" x1="1641.7" y1="1000.93" x2="1625.7" y2="1016.93" style="stroke:#e26f46; stroke-width:8; stroke-opacity:1"/>
<line clip-path="url(#clip432)" x1="1641.7" y1="1000.93" x2="1657.7" y2="1016.93" style="stroke:#e26f46; stroke-width:8; stroke-opacity:1"/>
<line clip-path="url(#clip432)" x1="1641.7" y1="1000.93" x2="1657.7" y2="984.929" style="stroke:#e26f46; stroke-width:8; stroke-opacity:1"/>
<line clip-path="url(#clip432)" x1="1722.97" y1="1032.11" x2="1706.97" y2="1016.11" style="stroke:#e26f46; stroke-width:8; stroke-opacity:1"/>
<line clip-path="url(#clip432)" x1="1722.97" y1="1032.11" x2="1706.97" y2="1048.11" style="stroke:#e26f46; stroke-width:8; stroke-opacity:1"/>
<line clip-path="url(#clip432)" x1="1722.97" y1="1032.11" x2="1738.97" y2="1048.11" style="stroke:#e26f46; stroke-width:8; stroke-opacity:1"/>
<line clip-path="url(#clip432)" x1="1722.97" y1="1032.11" x2="1738.97" y2="1016.11" style="stroke:#e26f46; stroke-width:8; stroke-opacity:1"/>
<line clip-path="url(#clip432)" x1="1804.23" y1="1069.8" x2="1788.23" y2="1053.8" style="stroke:#e26f46; stroke-width:8; stroke-opacity:1"/>
<line clip-path="url(#clip432)" x1="1804.23" y1="1069.8" x2="1788.23" y2="1085.8" style="stroke:#e26f46; stroke-width:8; stroke-opacity:1"/>
<line clip-path="url(#clip432)" x1="1804.23" y1="1069.8" x2="1820.23" y2="1085.8" style="stroke:#e26f46; stroke-width:8; stroke-opacity:1"/>
<line clip-path="url(#clip432)" x1="1804.23" y1="1069.8" x2="1820.23" y2="1053.8" style="stroke:#e26f46; stroke-width:8; stroke-opacity:1"/>
<line clip-path="url(#clip432)" x1="1885.49" y1="1106.18" x2="1869.49" y2="1090.18" style="stroke:#e26f46; stroke-width:8; stroke-opacity:1"/>
<line clip-path="url(#clip432)" x1="1885.49" y1="1106.18" x2="1869.49" y2="1122.18" style="stroke:#e26f46; stroke-width:8; stroke-opacity:1"/>
<line clip-path="url(#clip432)" x1="1885.49" y1="1106.18" x2="1901.49" y2="1122.18" style="stroke:#e26f46; stroke-width:8; stroke-opacity:1"/>
<line clip-path="url(#clip432)" x1="1885.49" y1="1106.18" x2="1901.49" y2="1090.18" style="stroke:#e26f46; stroke-width:8; stroke-opacity:1"/>
<line clip-path="url(#clip432)" x1="1966.76" y1="1134.76" x2="1950.76" y2="1118.76" style="stroke:#e26f46; stroke-width:8; stroke-opacity:1"/>
<line clip-path="url(#clip432)" x1="1966.76" y1="1134.76" x2="1950.76" y2="1150.76" style="stroke:#e26f46; stroke-width:8; stroke-opacity:1"/>
<line clip-path="url(#clip432)" x1="1966.76" y1="1134.76" x2="1982.76" y2="1150.76" style="stroke:#e26f46; stroke-width:8; stroke-opacity:1"/>
<line clip-path="url(#clip432)" x1="1966.76" y1="1134.76" x2="1982.76" y2="1118.76" style="stroke:#e26f46; stroke-width:8; stroke-opacity:1"/>
<line clip-path="url(#clip432)" x1="2048.02" y1="1164.65" x2="2032.02" y2="1148.65" style="stroke:#e26f46; stroke-width:8; stroke-opacity:1"/>
<line clip-path="url(#clip432)" x1="2048.02" y1="1164.65" x2="2032.02" y2="1180.65" style="stroke:#e26f46; stroke-width:8; stroke-opacity:1"/>
<line clip-path="url(#clip432)" x1="2048.02" y1="1164.65" x2="2064.02" y2="1180.65" style="stroke:#e26f46; stroke-width:8; stroke-opacity:1"/>
<line clip-path="url(#clip432)" x1="2048.02" y1="1164.65" x2="2064.02" y2="1148.65" style="stroke:#e26f46; stroke-width:8; stroke-opacity:1"/>
<line clip-path="url(#clip432)" x1="2129.28" y1="1182.84" x2="2113.28" y2="1166.84" style="stroke:#e26f46; stroke-width:8; stroke-opacity:1"/>
<line clip-path="url(#clip432)" x1="2129.28" y1="1182.84" x2="2113.28" y2="1198.84" style="stroke:#e26f46; stroke-width:8; stroke-opacity:1"/>
<line clip-path="url(#clip432)" x1="2129.28" y1="1182.84" x2="2145.28" y2="1198.84" style="stroke:#e26f46; stroke-width:8; stroke-opacity:1"/>
<line clip-path="url(#clip432)" x1="2129.28" y1="1182.84" x2="2145.28" y2="1166.84" style="stroke:#e26f46; stroke-width:8; stroke-opacity:1"/>
<line clip-path="url(#clip432)" x1="2210.55" y1="1199.73" x2="2194.55" y2="1183.73" style="stroke:#e26f46; stroke-width:8; stroke-opacity:1"/>
<line clip-path="url(#clip432)" x1="2210.55" y1="1199.73" x2="2194.55" y2="1215.73" style="stroke:#e26f46; stroke-width:8; stroke-opacity:1"/>
<line clip-path="url(#clip432)" x1="2210.55" y1="1199.73" x2="2226.55" y2="1215.73" style="stroke:#e26f46; stroke-width:8; stroke-opacity:1"/>
<line clip-path="url(#clip432)" x1="2210.55" y1="1199.73" x2="2226.55" y2="1183.73" style="stroke:#e26f46; stroke-width:8; stroke-opacity:1"/>
<line clip-path="url(#clip432)" x1="2291.81" y1="1211.42" x2="2275.81" y2="1195.42" style="stroke:#e26f46; stroke-width:8; stroke-opacity:1"/>
<line clip-path="url(#clip432)" x1="2291.81" y1="1211.42" x2="2275.81" y2="1227.42" style="stroke:#e26f46; stroke-width:8; stroke-opacity:1"/>
<line clip-path="url(#clip432)" x1="2291.81" y1="1211.42" x2="2307.81" y2="1227.42" style="stroke:#e26f46; stroke-width:8; stroke-opacity:1"/>
<line clip-path="url(#clip432)" x1="2291.81" y1="1211.42" x2="2307.81" y2="1195.42" style="stroke:#e26f46; stroke-width:8; stroke-opacity:1"/>
<polyline clip-path="url(#clip432)" style="stroke:#3da44d; stroke-linecap:round; stroke-linejoin:round; stroke-width:8; stroke-opacity:1; fill:none" points="260.231,1384.24 341.494,1384.24 422.757,1379.04 504.02,1373.84 585.283,1353.05 666.546,1303.68 747.809,1220.52 829.072,1145.16 910.336,1059.4 991.599,971.044 1072.86,883.988 1154.12,802.129 1235.39,739.76 1316.65,682.588 1397.91,613.723 1479.18,569.545 1560.44,516.271 1641.7,460.399 1722.97,429.215 1804.23,388.935 1885.49,352.553 1966.76,323.967 2048.02,294.082 2129.28,275.891 2210.55,258.999 2291.81,247.305 "/>
<path clip-path="url(#clip432)" d="M260.231 1368.24 L244.231 1384.24 L260.231 1400.24 L276.231 1384.24 L260.231 1368.24 Z" fill="#3da44d" fill-rule="evenodd" fill-opacity="1" stroke="#000000" stroke-opacity="1" stroke-width="3.2"/>
<path clip-path="url(#clip432)" d="M341.494 1368.24 L325.494 1384.24 L341.494 1400.24 L357.494 1384.24 L341.494 1368.24 Z" fill="#3da44d" fill-rule="evenodd" fill-opacity="1" stroke="#000000" stroke-opacity="1" stroke-width="3.2"/>
<path clip-path="url(#clip432)" d="M422.757 1363.04 L406.757 1379.04 L422.757 1395.04 L438.757 1379.04 L422.757 1363.04 Z" fill="#3da44d" fill-rule="evenodd" fill-opacity="1" stroke="#000000" stroke-opacity="1" stroke-width="3.2"/>
<path clip-path="url(#clip432)" d="M504.02 1357.84 L488.02 1373.84 L504.02 1389.84 L520.02 1373.84 L504.02 1357.84 Z" fill="#3da44d" fill-rule="evenodd" fill-opacity="1" stroke="#000000" stroke-opacity="1" stroke-width="3.2"/>
<path clip-path="url(#clip432)" d="M585.283 1337.05 L569.283 1353.05 L585.283 1369.05 L601.283 1353.05 L585.283 1337.05 Z" fill="#3da44d" fill-rule="evenodd" fill-opacity="1" stroke="#000000" stroke-opacity="1" stroke-width="3.2"/>
<path clip-path="url(#clip432)" d="M666.546 1287.68 L650.546 1303.68 L666.546 1319.68 L682.546 1303.68 L666.546 1287.68 Z" fill="#3da44d" fill-rule="evenodd" fill-opacity="1" stroke="#000000" stroke-opacity="1" stroke-width="3.2"/>
<path clip-path="url(#clip432)" d="M747.809 1204.52 L731.809 1220.52 L747.809 1236.52 L763.809 1220.52 L747.809 1204.52 Z" fill="#3da44d" fill-rule="evenodd" fill-opacity="1" stroke="#000000" stroke-opacity="1" stroke-width="3.2"/>
<path clip-path="url(#clip432)" d="M829.072 1129.16 L813.072 1145.16 L829.072 1161.16 L845.072 1145.16 L829.072 1129.16 Z" fill="#3da44d" fill-rule="evenodd" fill-opacity="1" stroke="#000000" stroke-opacity="1" stroke-width="3.2"/>
<path clip-path="url(#clip432)" d="M910.336 1043.4 L894.336 1059.4 L910.336 1075.4 L926.336 1059.4 L910.336 1043.4 Z" fill="#3da44d" fill-rule="evenodd" fill-opacity="1" stroke="#000000" stroke-opacity="1" stroke-width="3.2"/>
<path clip-path="url(#clip432)" d="M991.599 955.044 L975.599 971.044 L991.599 987.044 L1007.6 971.044 L991.599 955.044 Z" fill="#3da44d" fill-rule="evenodd" fill-opacity="1" stroke="#000000" stroke-opacity="1" stroke-width="3.2"/>
<path clip-path="url(#clip432)" d="M1072.86 867.988 L1056.86 883.988 L1072.86 899.988 L1088.86 883.988 L1072.86 867.988 Z" fill="#3da44d" fill-rule="evenodd" fill-opacity="1" stroke="#000000" stroke-opacity="1" stroke-width="3.2"/>
<path clip-path="url(#clip432)" d="M1154.12 786.129 L1138.12 802.129 L1154.12 818.129 L1170.12 802.129 L1154.12 786.129 Z" fill="#3da44d" fill-rule="evenodd" fill-opacity="1" stroke="#000000" stroke-opacity="1" stroke-width="3.2"/>
<path clip-path="url(#clip432)" d="M1235.39 723.76 L1219.39 739.76 L1235.39 755.76 L1251.39 739.76 L1235.39 723.76 Z" fill="#3da44d" fill-rule="evenodd" fill-opacity="1" stroke="#000000" stroke-opacity="1" stroke-width="3.2"/>
<path clip-path="url(#clip432)" d="M1316.65 666.588 L1300.65 682.588 L1316.65 698.588 L1332.65 682.588 L1316.65 666.588 Z" fill="#3da44d" fill-rule="evenodd" fill-opacity="1" stroke="#000000" stroke-opacity="1" stroke-width="3.2"/>
<path clip-path="url(#clip432)" d="M1397.91 597.723 L1381.91 613.723 L1397.91 629.723 L1413.91 613.723 L1397.91 597.723 Z" fill="#3da44d" fill-rule="evenodd" fill-opacity="1" stroke="#000000" stroke-opacity="1" stroke-width="3.2"/>
<path clip-path="url(#clip432)" d="M1479.18 553.545 L1463.18 569.545 L1479.18 585.545 L1495.18 569.545 L1479.18 553.545 Z" fill="#3da44d" fill-rule="evenodd" fill-opacity="1" stroke="#000000" stroke-opacity="1" stroke-width="3.2"/>
<path clip-path="url(#clip432)" d="M1560.44 500.271 L1544.44 516.271 L1560.44 532.271 L1576.44 516.271 L1560.44 500.271 Z" fill="#3da44d" fill-rule="evenodd" fill-opacity="1" stroke="#000000" stroke-opacity="1" stroke-width="3.2"/>
<path clip-path="url(#clip432)" d="M1641.7 444.399 L1625.7 460.399 L1641.7 476.399 L1657.7 460.399 L1641.7 444.399 Z" fill="#3da44d" fill-rule="evenodd" fill-opacity="1" stroke="#000000" stroke-opacity="1" stroke-width="3.2"/>
<path clip-path="url(#clip432)" d="M1722.97 413.215 L1706.97 429.215 L1722.97 445.215 L1738.97 429.215 L1722.97 413.215 Z" fill="#3da44d" fill-rule="evenodd" fill-opacity="1" stroke="#000000" stroke-opacity="1" stroke-width="3.2"/>
<path clip-path="url(#clip432)" d="M1804.23 372.935 L1788.23 388.935 L1804.23 404.935 L1820.23 388.935 L1804.23 372.935 Z" fill="#3da44d" fill-rule="evenodd" fill-opacity="1" stroke="#000000" stroke-opacity="1" stroke-width="3.2"/>
<path clip-path="url(#clip432)" d="M1885.49 336.553 L1869.49 352.553 L1885.49 368.553 L1901.49 352.553 L1885.49 336.553 Z" fill="#3da44d" fill-rule="evenodd" fill-opacity="1" stroke="#000000" stroke-opacity="1" stroke-width="3.2"/>
<path clip-path="url(#clip432)" d="M1966.76 307.967 L1950.76 323.967 L1966.76 339.967 L1982.76 323.967 L1966.76 307.967 Z" fill="#3da44d" fill-rule="evenodd" fill-opacity="1" stroke="#000000" stroke-opacity="1" stroke-width="3.2"/>
<path clip-path="url(#clip432)" d="M2048.02 278.082 L2032.02 294.082 L2048.02 310.082 L2064.02 294.082 L2048.02 278.082 Z" fill="#3da44d" fill-rule="evenodd" fill-opacity="1" stroke="#000000" stroke-opacity="1" stroke-width="3.2"/>
<path clip-path="url(#clip432)" d="M2129.28 259.891 L2113.28 275.891 L2129.28 291.891 L2145.28 275.891 L2129.28 259.891 Z" fill="#3da44d" fill-rule="evenodd" fill-opacity="1" stroke="#000000" stroke-opacity="1" stroke-width="3.2"/>
<path clip-path="url(#clip432)" d="M2210.55 242.999 L2194.55 258.999 L2210.55 274.999 L2226.55 258.999 L2210.55 242.999 Z" fill="#3da44d" fill-rule="evenodd" fill-opacity="1" stroke="#000000" stroke-opacity="1" stroke-width="3.2"/>
<path clip-path="url(#clip432)" d="M2291.81 231.305 L2275.81 247.305 L2291.81 263.305 L2307.81 247.305 L2291.81 231.305 Z" fill="#3da44d" fill-rule="evenodd" fill-opacity="1" stroke="#000000" stroke-opacity="1" stroke-width="3.2"/>
<path clip-path="url(#clip430)" d="M1985.83 300.469 L2280.97 300.469 L2280.97 93.1086 L1985.83 93.1086  Z" fill="#ffffff" fill-rule="evenodd" fill-opacity="1"/>
<polyline clip-path="url(#clip430)" style="stroke:#000000; stroke-linecap:round; stroke-linejoin:round; stroke-width:4; stroke-opacity:1; fill:none" points="1985.83,300.469 2280.97,300.469 2280.97,93.1086 1985.83,93.1086 1985.83,300.469 "/>
<polyline clip-path="url(#clip430)" style="stroke:#009af9; stroke-linecap:round; stroke-linejoin:round; stroke-width:8; stroke-opacity:1; fill:none" points="2009.76,144.949 2153.33,144.949 "/>
<path clip-path="url(#clip430)" d="M2081.54 167.104 L2065.88 160.612 L2059.39 144.949 L2065.88 129.285 L2081.54 122.794 L2097.21 129.285 L2103.7 144.949 L2097.21 160.612 Z" fill="#009af9" fill-rule="evenodd" fill-opacity="1" stroke="#000000" stroke-opacity="1" stroke-width="4.55111"/>
<path clip-path="url(#clip430)" d="M2199.5 128.803 L2199.5 133.363 Q2196.84 132.09 2194.48 131.465 Q2192.12 130.84 2189.92 130.84 Q2186.1 130.84 2184.01 132.321 Q2181.95 133.803 2181.95 136.534 Q2181.95 138.826 2183.32 140.007 Q2184.71 141.164 2188.55 141.882 L2191.38 142.46 Q2196.61 143.456 2199.08 145.979 Q2201.58 148.479 2201.58 152.692 Q2201.58 157.715 2198.2 160.307 Q2194.85 162.9 2188.34 162.9 Q2185.89 162.9 2183.11 162.344 Q2180.36 161.789 2177.39 160.701 L2177.39 155.886 Q2180.24 157.483 2182.97 158.293 Q2185.7 159.104 2188.34 159.104 Q2192.35 159.104 2194.52 157.53 Q2196.7 155.956 2196.7 153.039 Q2196.7 150.493 2195.13 149.057 Q2193.57 147.622 2190.01 146.905 L2187.16 146.349 Q2181.93 145.307 2179.59 143.085 Q2177.25 140.863 2177.25 136.905 Q2177.25 132.321 2180.47 129.682 Q2183.71 127.044 2189.38 127.044 Q2191.81 127.044 2194.34 127.483 Q2196.86 127.923 2199.5 128.803 Z" fill="#000000" fill-rule="nonzero" fill-opacity="1" /><path clip-path="url(#clip430)" d="M2218.92 126.257 Q2215.82 131.581 2214.31 136.789 Q2212.81 141.997 2212.81 147.344 Q2212.81 152.692 2214.31 157.946 Q2215.84 163.178 2218.92 168.479 L2215.22 168.479 Q2211.75 163.039 2210.01 157.784 Q2208.3 152.53 2208.3 147.344 Q2208.3 142.182 2210.01 136.951 Q2211.72 131.72 2215.22 126.257 L2218.92 126.257 Z" fill="#000000" fill-rule="nonzero" fill-opacity="1" /><path clip-path="url(#clip430)" d="M2231.4 128.942 L2231.4 136.303 L2240.17 136.303 L2240.17 139.613 L2231.4 139.613 L2231.4 153.687 Q2231.4 156.858 2232.25 157.761 Q2233.13 158.664 2235.8 158.664 L2240.17 158.664 L2240.17 162.229 L2235.8 162.229 Q2230.87 162.229 2228.99 160.4 Q2227.12 158.548 2227.12 153.687 L2227.12 139.613 L2223.99 139.613 L2223.99 136.303 L2227.12 136.303 L2227.12 128.942 L2231.4 128.942 Z" fill="#000000" fill-rule="nonzero" fill-opacity="1" /><path clip-path="url(#clip430)" d="M2245.1 126.257 L2248.81 126.257 Q2252.28 131.72 2253.99 136.951 Q2255.73 142.182 2255.73 147.344 Q2255.73 152.53 2253.99 157.784 Q2252.28 163.039 2248.81 168.479 L2245.1 168.479 Q2248.18 163.178 2249.68 157.946 Q2251.21 152.692 2251.21 147.344 Q2251.21 141.997 2249.68 136.789 Q2248.18 131.581 2245.1 126.257 Z" fill="#000000" fill-rule="nonzero" fill-opacity="1" /><polyline clip-path="url(#clip430)" style="stroke:#e26f46; stroke-linecap:round; stroke-linejoin:round; stroke-width:8; stroke-opacity:1; fill:none" points="2009.76,196.789 2153.33,196.789 "/>
<line clip-path="url(#clip430)" x1="2081.54" y1="196.789" x2="2059.39" y2="174.634" style="stroke:#e26f46; stroke-width:8; stroke-opacity:1"/>
<line clip-path="url(#clip430)" x1="2081.54" y1="196.789" x2="2059.39" y2="218.944" style="stroke:#e26f46; stroke-width:8; stroke-opacity:1"/>
<line clip-path="url(#clip430)" x1="2081.54" y1="196.789" x2="2103.7" y2="218.944" style="stroke:#e26f46; stroke-width:8; stroke-opacity:1"/>
<line clip-path="url(#clip430)" x1="2081.54" y1="196.789" x2="2103.7" y2="174.634" style="stroke:#e26f46; stroke-width:8; stroke-opacity:1"/>
<path clip-path="url(#clip430)" d="M2177.25 179.509 L2181.93 179.509 L2181.93 214.069 L2177.25 214.069 L2177.25 179.509 Z" fill="#000000" fill-rule="nonzero" fill-opacity="1" /><path clip-path="url(#clip430)" d="M2201.28 178.097 Q2198.18 183.421 2196.68 188.629 Q2195.17 193.837 2195.17 199.184 Q2195.17 204.532 2196.68 209.786 Q2198.2 215.018 2201.28 220.319 L2197.58 220.319 Q2194.11 214.879 2192.37 209.624 Q2190.66 204.37 2190.66 199.184 Q2190.66 194.022 2192.37 188.791 Q2194.08 183.56 2197.58 178.097 L2201.28 178.097 Z" fill="#000000" fill-rule="nonzero" fill-opacity="1" /><path clip-path="url(#clip430)" d="M2213.76 180.782 L2213.76 188.143 L2222.53 188.143 L2222.53 191.453 L2213.76 191.453 L2213.76 205.527 Q2213.76 208.698 2214.62 209.601 Q2215.5 210.504 2218.16 210.504 L2222.53 210.504 L2222.53 214.069 L2218.16 214.069 Q2213.23 214.069 2211.35 212.24 Q2209.48 210.388 2209.48 205.527 L2209.48 191.453 L2206.35 191.453 L2206.35 188.143 L2209.48 188.143 L2209.48 180.782 L2213.76 180.782 Z" fill="#000000" fill-rule="nonzero" fill-opacity="1" /><path clip-path="url(#clip430)" d="M2227.46 178.097 L2231.17 178.097 Q2234.64 183.56 2236.35 188.791 Q2238.09 194.022 2238.09 199.184 Q2238.09 204.37 2236.35 209.624 Q2234.64 214.879 2231.17 220.319 L2227.46 220.319 Q2230.54 215.018 2232.05 209.786 Q2233.57 204.532 2233.57 199.184 Q2233.57 193.837 2232.05 188.629 Q2230.54 183.421 2227.46 178.097 Z" fill="#000000" fill-rule="nonzero" fill-opacity="1" /><polyline clip-path="url(#clip430)" style="stroke:#3da44d; stroke-linecap:round; stroke-linejoin:round; stroke-width:8; stroke-opacity:1; fill:none" points="2009.76,248.629 2153.33,248.629 "/>
<path clip-path="url(#clip430)" d="M2081.54 226.474 L2059.39 248.629 L2081.54 270.784 L2103.7 248.629 L2081.54 226.474 Z" fill="#3da44d" fill-rule="evenodd" fill-opacity="1" stroke="#000000" stroke-opacity="1" stroke-width="4.55111"/>
<path clip-path="url(#clip430)" d="M2193.64 249.705 Q2195.15 250.214 2196.56 251.881 Q2198 253.548 2199.43 256.464 L2204.18 265.909 L2199.15 265.909 L2194.73 257.043 Q2193.02 253.571 2191.4 252.436 Q2189.8 251.302 2187.02 251.302 L2181.93 251.302 L2181.93 265.909 L2177.25 265.909 L2177.25 231.349 L2187.81 231.349 Q2193.74 231.349 2196.65 233.825 Q2199.57 236.302 2199.57 241.302 Q2199.57 244.566 2198.04 246.719 Q2196.54 248.872 2193.64 249.705 M2181.93 235.191 L2181.93 247.46 L2187.81 247.46 Q2191.19 247.46 2192.9 245.909 Q2194.64 244.335 2194.64 241.302 Q2194.64 238.27 2192.9 236.742 Q2191.19 235.191 2187.81 235.191 L2181.93 235.191 Z" fill="#000000" fill-rule="nonzero" fill-opacity="1" /><path clip-path="url(#clip430)" d="M2220.24 229.937 Q2217.14 235.261 2215.63 240.469 Q2214.13 245.677 2214.13 251.024 Q2214.13 256.372 2215.63 261.626 Q2217.16 266.858 2220.24 272.159 L2216.54 272.159 Q2213.06 266.719 2211.33 261.464 Q2209.62 256.21 2209.62 251.024 Q2209.62 245.862 2211.33 240.631 Q2213.04 235.4 2216.54 229.937 L2220.24 229.937 Z" fill="#000000" fill-rule="nonzero" fill-opacity="1" /><path clip-path="url(#clip430)" d="M2232.72 232.622 L2232.72 239.983 L2241.49 239.983 L2241.49 243.293 L2232.72 243.293 L2232.72 257.367 Q2232.72 260.538 2233.57 261.441 Q2234.45 262.344 2237.12 262.344 L2241.49 262.344 L2241.49 265.909 L2237.12 265.909 Q2232.19 265.909 2230.31 264.08 Q2228.44 262.228 2228.44 257.367 L2228.44 243.293 L2225.31 243.293 L2225.31 239.983 L2228.44 239.983 L2228.44 232.622 L2232.72 232.622 Z" fill="#000000" fill-rule="nonzero" fill-opacity="1" /><path clip-path="url(#clip430)" d="M2246.42 229.937 L2250.12 229.937 Q2253.6 235.4 2255.31 240.631 Q2257.05 245.862 2257.05 251.024 Q2257.05 256.21 2255.31 261.464 Q2253.6 266.719 2250.12 272.159 L2246.42 272.159 Q2249.5 266.858 2251 261.626 Q2252.53 256.372 2252.53 251.024 Q2252.53 245.677 2251 240.469 Q2249.5 235.261 2246.42 229.937 Z" fill="#000000" fill-rule="nonzero" fill-opacity="1" /></svg>
