<?xml version="1.0" encoding="utf-8"?>
<svg xmlns="http://www.w3.org/2000/svg" xmlns:xlink="http://www.w3.org/1999/xlink" width="600" height="400" viewBox="0 0 2400 1600">
<defs>
  <clipPath id="clip180">
    <rect x="0" y="0" width="2400" height="1600"/>
  </clipPath>
</defs>
<path clip-path="url(#clip180)" d="M0 1600 L2400 1600 L2400 0 L0 0  Z" fill="#ffffff" fill-rule="evenodd" fill-opacity="1"/>
<defs>
  <clipPath id="clip181">
    <rect x="480" y="0" width="1681" height="1600"/>
  </clipPath>
</defs>
<path clip-path="url(#clip180)" d="M138.959 1423.18 L2352.76 1423.18 L2352.76 47.2441 L138.959 47.2441  Z" fill="#ffffff" fill-rule="evenodd" fill-opacity="1"/>
<defs>
  <clipPath id="clip182">
    <rect x="138" y="47" width="2215" height="1377"/>
  </clipPath>
</defs>
<polyline clip-path="url(#clip182)" style="stroke:#000000; stroke-linecap:round; stroke-linejoin:round; stroke-width:2; stroke-opacity:0.1; fill:none" points="138.959,1423.18 138.959,47.2441 "/>
<polyline clip-path="url(#clip182)" style="stroke:#000000; stroke-linecap:round; stroke-linejoin:round; stroke-width:2; stroke-opacity:0.1; fill:none" points="581.719,1423.18 581.719,47.2441 "/>
<polyline clip-path="url(#clip182)" style="stroke:#000000; stroke-linecap:round; stroke-linejoin:round; stroke-width:2; stroke-opacity:0.1; fill:none" points="1024.48,1423.18 1024.48,47.2441 "/>
<polyline clip-path="url(#clip182)" style="stroke:#000000; stroke-linecap:round; stroke-linejoin:round; stroke-width:2; stroke-opacity:0.1; fill:none" points="1467.24,1423.18 1467.24,47.2441 "/>
<polyline clip-path="url(#clip182)" style="stroke:#000000; stroke-linecap:round; stroke-linejoin:round; stroke-width:2; stroke-opacity:0.1; fill:none" points="1910,1423.18 1910,47.2441 "/>
<polyline clip-path="url(#clip182)" style="stroke:#000000; stroke-linecap:round; stroke-linejoin:round; stroke-width:2; stroke-opacity:0.1; fill:none" points="2352.76,1423.18 2352.76,47.2441 "/>
<polyline clip-path="url(#clip180)" style="stroke:#000000; stroke-linecap:round; stroke-linejoin:round; stroke-width:4; stroke-opacity:1; fill:none" points="138.959,1423.18 2352.76,1423.18 "/>
<polyline clip-path="url(#clip180)" style="stroke:#000000; stroke-linecap:round; stroke-linejoin:round; stroke-width:4; stroke-opacity:1; fill:none" points="138.959,1423.18 138.959,1404.28 "/>
<polyline clip-path="url(#clip180)" style="stroke:#000000; stroke-linecap:round; stroke-linejoin:round; stroke-width:4; stroke-opacity:1; fill:none" points="581.719,1423.18 581.719,1404.28 "/>
<polyline clip-path="url(#clip180)" style="stroke:#000000; stroke-linecap:round; stroke-linejoin:round; stroke-width:4; stroke-opacity:1; fill:none" points="1024.48,1423.18 1024.48,1404.28 "/>
<polyline clip-path="url(#clip180)" style="stroke:#000000; stroke-linecap:round; stroke-linejoin:round; stroke-width:4; stroke-opacity:1; fill:none" points="1467.24,1423.18 1467.24,1404.28 "/>
<polyline clip-path="url(#clip180)" style="stroke:#000000; stroke-linecap:round; stroke-linejoin:round; stroke-width:4; stroke-opacity:1; fill:none" points="1910,1423.18 1910,1404.28 "/>
<polyline clip-path="url(#clip180)" style="stroke:#000000; stroke-linecap:round; stroke-linejoin:round; stroke-width:4; stroke-opacity:1; fill:none" points="2352.76,1423.18 2352.76,1404.28 "/>
<path clip-path="url(#clip180)" d="M138.959 1454.1 Q135.348 1454.1 133.52 1457.66 Q131.714 1461.2 131.714 1468.33 Q131.714 1475.44 133.52 1479.01 Q135.348 1482.55 138.959 1482.55 Q142.594 1482.55 144.399 1479.01 Q146.228 1475.44 146.228 1468.33 Q146.228 1461.2 144.399 1457.66 Q142.594 1454.1 138.959 1454.1 M138.959 1450.39 Q144.77 1450.39 147.825 1455 Q150.904 1459.58 150.904 1468.33 Q150.904 1477.06 147.825 1481.67 Q144.77 1486.25 138.959 1486.25 Q133.149 1486.25 130.071 1481.67 Q127.015 1477.06 127.015 1468.33 Q127.015 1459.58 130.071 1455 Q133.149 1450.39 138.959 1450.39 Z" fill="#000000" fill-rule="nonzero" fill-opacity="1" /><path clip-path="url(#clip180)" d="M576.372 1481.64 L592.691 1481.64 L592.691 1485.58 L570.747 1485.58 L570.747 1481.64 Q573.409 1478.89 577.992 1474.26 Q582.598 1469.61 583.779 1468.27 Q586.024 1465.74 586.904 1464.01 Q587.807 1462.25 587.807 1460.56 Q587.807 1457.8 585.862 1456.07 Q583.941 1454.33 580.839 1454.33 Q578.64 1454.33 576.186 1455.09 Q573.756 1455.86 570.978 1457.41 L570.978 1452.69 Q573.802 1451.55 576.256 1450.97 Q578.709 1450.39 580.747 1450.39 Q586.117 1450.39 589.311 1453.08 Q592.506 1455.77 592.506 1460.26 Q592.506 1462.39 591.696 1464.31 Q590.908 1466.2 588.802 1468.8 Q588.223 1469.47 585.121 1472.69 Q582.02 1475.88 576.372 1481.64 Z" fill="#000000" fill-rule="nonzero" fill-opacity="1" /><path clip-path="url(#clip180)" d="M1027.49 1455.09 L1015.68 1473.54 L1027.49 1473.54 L1027.49 1455.09 M1026.26 1451.02 L1032.14 1451.02 L1032.14 1473.54 L1037.07 1473.54 L1037.07 1477.43 L1032.14 1477.43 L1032.14 1485.58 L1027.49 1485.58 L1027.49 1477.43 L1011.89 1477.43 L1011.89 1472.92 L1026.26 1451.02 Z" fill="#000000" fill-rule="nonzero" fill-opacity="1" /><path clip-path="url(#clip180)" d="M1467.64 1466.44 Q1464.49 1466.44 1462.64 1468.59 Q1460.81 1470.74 1460.81 1474.49 Q1460.81 1478.22 1462.64 1480.39 Q1464.49 1482.55 1467.64 1482.55 Q1470.79 1482.55 1472.62 1480.39 Q1474.47 1478.22 1474.47 1474.49 Q1474.47 1470.74 1472.62 1468.59 Q1470.79 1466.44 1467.64 1466.44 M1476.92 1451.78 L1476.92 1456.04 Q1475.17 1455.21 1473.36 1454.77 Q1471.58 1454.33 1469.82 1454.33 Q1465.19 1454.33 1462.74 1457.45 Q1460.3 1460.58 1459.96 1466.9 Q1461.32 1464.89 1463.38 1463.82 Q1465.44 1462.73 1467.92 1462.73 Q1473.13 1462.73 1476.14 1465.9 Q1479.17 1469.05 1479.17 1474.49 Q1479.17 1479.82 1476.02 1483.03 Q1472.87 1486.25 1467.64 1486.25 Q1461.65 1486.25 1458.48 1481.67 Q1455.3 1477.06 1455.3 1468.33 Q1455.3 1460.14 1459.19 1455.28 Q1463.08 1450.39 1469.63 1450.39 Q1471.39 1450.39 1473.17 1450.74 Q1474.98 1451.09 1476.92 1451.78 Z" fill="#000000" fill-rule="nonzero" fill-opacity="1" /><path clip-path="url(#clip180)" d="M1910 1469.17 Q1906.66 1469.17 1904.74 1470.95 Q1902.84 1472.73 1902.84 1475.86 Q1902.84 1478.98 1904.74 1480.77 Q1906.66 1482.55 1910 1482.55 Q1913.33 1482.55 1915.25 1480.77 Q1917.17 1478.96 1917.17 1475.86 Q1917.17 1472.73 1915.25 1470.95 Q1913.35 1469.17 1910 1469.17 M1905.32 1467.18 Q1902.31 1466.44 1900.62 1464.38 Q1898.96 1462.32 1898.96 1459.35 Q1898.96 1455.21 1901.89 1452.8 Q1904.86 1450.39 1910 1450.39 Q1915.16 1450.39 1918.1 1452.8 Q1921.04 1455.21 1921.04 1459.35 Q1921.04 1462.32 1919.35 1464.38 Q1917.68 1466.44 1914.7 1467.18 Q1918.08 1467.96 1919.95 1470.26 Q1921.85 1472.55 1921.85 1475.86 Q1921.85 1480.88 1918.77 1483.57 Q1915.71 1486.25 1910 1486.25 Q1904.28 1486.25 1901.2 1483.57 Q1898.14 1480.88 1898.14 1475.86 Q1898.14 1472.55 1900.04 1470.26 Q1901.94 1467.96 1905.32 1467.18 M1903.61 1459.79 Q1903.61 1462.48 1905.27 1463.98 Q1906.96 1465.49 1910 1465.49 Q1913.01 1465.49 1914.7 1463.98 Q1916.41 1462.48 1916.41 1459.79 Q1916.41 1457.11 1914.7 1455.6 Q1913.01 1454.1 1910 1454.1 Q1906.96 1454.1 1905.27 1455.6 Q1903.61 1457.11 1903.61 1459.79 Z" fill="#000000" fill-rule="nonzero" fill-opacity="1" /><path clip-path="url(#clip180)" d="M2327.44 1481.64 L2335.08 1481.64 L2335.08 1455.28 L2326.77 1456.95 L2326.77 1452.69 L2335.04 1451.02 L2339.71 1451.02 L2339.71 1481.64 L2347.35 1481.64 L2347.35 1485.58 L2327.44 1485.58 L2327.44 1481.64 Z" fill="#000000" fill-rule="nonzero" fill-opacity="1" /><path clip-path="url(#clip180)" d="M2366.8 1454.1 Q2363.18 1454.1 2361.36 1457.66 Q2359.55 1461.2 2359.55 1468.33 Q2359.55 1475.44 2361.36 1479.01 Q2363.18 1482.55 2366.8 1482.55 Q2370.43 1482.55 2372.23 1479.01 Q2374.06 1475.44 2374.06 1468.33 Q2374.06 1461.2 2372.23 1457.66 Q2370.43 1454.1 2366.8 1454.1 M2366.8 1450.39 Q2372.61 1450.39 2375.66 1455 Q2378.74 1459.58 2378.74 1468.33 Q2378.74 1477.06 2375.66 1481.67 Q2372.61 1486.25 2366.8 1486.25 Q2360.99 1486.25 2357.91 1481.67 Q2354.85 1477.06 2354.85 1468.33 Q2354.85 1459.58 2357.91 1455 Q2360.99 1450.39 2366.8 1450.39 Z" fill="#000000" fill-rule="nonzero" fill-opacity="1" /><path clip-path="url(#clip180)" d="M1244.92 1522.27 L1244.92 1532.4 L1256.98 1532.4 L1256.98 1536.95 L1244.92 1536.95 L1244.92 1556.3 Q1244.92 1560.66 1246.1 1561.9 Q1247.31 1563.14 1250.97 1563.14 L1256.98 1563.14 L1256.98 1568.04 L1250.97 1568.04 Q1244.19 1568.04 1241.61 1565.53 Q1239.03 1562.98 1239.03 1556.3 L1239.03 1536.95 L1234.73 1536.95 L1234.73 1532.4 L1239.03 1532.4 L1239.03 1522.27 L1244.92 1522.27 Z" fill="#000000" fill-rule="nonzero" fill-opacity="1" /><polyline clip-path="url(#clip182)" style="stroke:#000000; stroke-linecap:round; stroke-linejoin:round; stroke-width:2; stroke-opacity:0.1; fill:none" points="138.959,1384.24 2352.76,1384.24 "/>
<polyline clip-path="url(#clip182)" style="stroke:#000000; stroke-linecap:round; stroke-linejoin:round; stroke-width:2; stroke-opacity:0.1; fill:none" points="138.959,1023.67 2352.76,1023.67 "/>
<polyline clip-path="url(#clip182)" style="stroke:#000000; stroke-linecap:round; stroke-linejoin:round; stroke-width:2; stroke-opacity:0.1; fill:none" points="138.959,663.098 2352.76,663.098 "/>
<polyline clip-path="url(#clip182)" style="stroke:#000000; stroke-linecap:round; stroke-linejoin:round; stroke-width:2; stroke-opacity:0.1; fill:none" points="138.959,302.528 2352.76,302.528 "/>
<polyline clip-path="url(#clip180)" style="stroke:#000000; stroke-linecap:round; stroke-linejoin:round; stroke-width:4; stroke-opacity:1; fill:none" points="138.959,1423.18 138.959,47.2441 "/>
<polyline clip-path="url(#clip180)" style="stroke:#000000; stroke-linecap:round; stroke-linejoin:round; stroke-width:4; stroke-opacity:1; fill:none" points="138.959,1384.24 157.857,1384.24 "/>
<polyline clip-path="url(#clip180)" style="stroke:#000000; stroke-linecap:round; stroke-linejoin:round; stroke-width:4; stroke-opacity:1; fill:none" points="138.959,1023.67 157.857,1023.67 "/>
<polyline clip-path="url(#clip180)" style="stroke:#000000; stroke-linecap:round; stroke-linejoin:round; stroke-width:4; stroke-opacity:1; fill:none" points="138.959,663.098 157.857,663.098 "/>
<polyline clip-path="url(#clip180)" style="stroke:#000000; stroke-linecap:round; stroke-linejoin:round; stroke-width:4; stroke-opacity:1; fill:none" points="138.959,302.528 157.857,302.528 "/>
<path clip-path="url(#clip180)" d="M91.0151 1370.04 Q87.404 1370.04 85.5753 1373.6 Q83.7697 1377.14 83.7697 1384.27 Q83.7697 1391.38 85.5753 1394.94 Q87.404 1398.49 91.0151 1398.49 Q94.6493 1398.49 96.4548 1394.94 Q98.2835 1391.38 98.2835 1384.27 Q98.2835 1377.14 96.4548 1373.6 Q94.6493 1370.04 91.0151 1370.04 M91.0151 1366.33 Q96.8252 1366.33 99.8808 1370.94 Q102.959 1375.52 102.959 1384.27 Q102.959 1393 99.8808 1397.61 Q96.8252 1402.19 91.0151 1402.19 Q85.2049 1402.19 82.1262 1397.61 Q79.0707 1393 79.0707 1384.27 Q79.0707 1375.52 82.1262 1370.94 Q85.2049 1366.33 91.0151 1366.33 Z" fill="#000000" fill-rule="nonzero" fill-opacity="1" /><path clip-path="url(#clip180)" d="M82.0568 1006.39 L100.413 1006.39 L100.413 1010.32 L86.3392 1010.32 L86.3392 1018.8 Q87.3577 1018.45 88.3762 1018.29 Q89.3947 1018.1 90.4132 1018.1 Q96.2002 1018.1 99.5798 1021.27 Q102.959 1024.44 102.959 1029.86 Q102.959 1035.44 99.4872 1038.54 Q96.015 1041.62 89.6956 1041.62 Q87.5197 1041.62 85.2512 1041.25 Q83.0058 1040.88 80.5984 1040.14 L80.5984 1035.44 Q82.6818 1036.57 84.904 1037.13 Q87.1262 1037.68 89.603 1037.68 Q93.6076 1037.68 95.9456 1035.58 Q98.2835 1033.47 98.2835 1029.86 Q98.2835 1026.25 95.9456 1024.14 Q93.6076 1022.04 89.603 1022.04 Q87.728 1022.04 85.8531 1022.45 Q84.0012 1022.87 82.0568 1023.75 L82.0568 1006.39 Z" fill="#000000" fill-rule="nonzero" fill-opacity="1" /><path clip-path="url(#clip180)" d="M51.6634 676.443 L59.3023 676.443 L59.3023 650.077 L50.9921 651.744 L50.9921 647.485 L59.256 645.818 L63.9319 645.818 L63.9319 676.443 L71.5707 676.443 L71.5707 680.378 L51.6634 680.378 L51.6634 676.443 Z" fill="#000000" fill-rule="nonzero" fill-opacity="1" /><path clip-path="url(#clip180)" d="M91.0151 648.897 Q87.404 648.897 85.5753 652.461 Q83.7697 656.003 83.7697 663.133 Q83.7697 670.239 85.5753 673.804 Q87.404 677.346 91.0151 677.346 Q94.6493 677.346 96.4548 673.804 Q98.2835 670.239 98.2835 663.133 Q98.2835 656.003 96.4548 652.461 Q94.6493 648.897 91.0151 648.897 M91.0151 645.193 Q96.8252 645.193 99.8808 649.799 Q102.959 654.383 102.959 663.133 Q102.959 671.859 99.8808 676.466 Q96.8252 681.049 91.0151 681.049 Q85.2049 681.049 82.1262 676.466 Q79.0707 671.859 79.0707 663.133 Q79.0707 654.383 82.1262 649.799 Q85.2049 645.193 91.0151 645.193 Z" fill="#000000" fill-rule="nonzero" fill-opacity="1" /><path clip-path="url(#clip180)" d="M52.6588 315.873 L60.2976 315.873 L60.2976 289.507 L51.9875 291.174 L51.9875 286.914 L60.2513 285.248 L64.9272 285.248 L64.9272 315.873 L72.5661 315.873 L72.5661 319.808 L52.6588 319.808 L52.6588 315.873 Z" fill="#000000" fill-rule="nonzero" fill-opacity="1" /><path clip-path="url(#clip180)" d="M82.0568 285.248 L100.413 285.248 L100.413 289.183 L86.3392 289.183 L86.3392 297.655 Q87.3577 297.308 88.3762 297.146 Q89.3947 296.961 90.4132 296.961 Q96.2002 296.961 99.5798 300.132 Q102.959 303.303 102.959 308.72 Q102.959 314.299 99.4872 317.4 Q96.015 320.479 89.6956 320.479 Q87.5197 320.479 85.2512 320.109 Q83.0058 319.738 80.5984 318.998 L80.5984 314.299 Q82.6818 315.433 84.904 315.988 Q87.1262 316.544 89.603 316.544 Q93.6076 316.544 95.9456 314.437 Q98.2835 312.331 98.2835 308.72 Q98.2835 305.109 95.9456 303.002 Q93.6076 300.896 89.603 300.896 Q87.728 300.896 85.8531 301.312 Q84.0012 301.729 82.0568 302.609 L82.0568 285.248 Z" fill="#000000" fill-rule="nonzero" fill-opacity="1" /><polyline clip-path="url(#clip182)" style="stroke:#009af9; stroke-linecap:round; stroke-linejoin:round; stroke-width:8; stroke-opacity:1; fill:none" points="138.959,1384.24 141.175,1384.24 143.391,1384.24 145.607,1384.24 147.823,1384.24 150.04,1384.24 152.256,1384.24 154.472,1384.24 156.688,1384.24 158.904,1384.24 161.12,1384.24 163.336,1384.24 165.552,1384.24 167.768,1384.24 169.984,1384.24 172.2,1384.24 174.416,1384.24 176.632,1384.24 178.848,1384.24 181.064,1384.24 183.28,1384.24 185.496,1384.24 187.712,1384.24 189.928,1384.24 192.144,1384.24 194.36,1384.24 196.576,1384.24 198.792,1384.24 201.008,1384.24 203.224,1384.24 205.44,1384.24 207.656,1384.24 209.872,1384.24 212.088,1384.24 214.304,1384.24 216.52,1384.24 218.736,1384.24 220.952,1384.24 223.168,1384.24 225.384,1384.24 227.6,1384.24 229.816,1384.24 232.032,1384.24 234.248,1384.24 236.464,1384.24 238.68,1384.24 240.896,1384.24 243.112,1384.24 245.328,1384.24 247.544,1384.24 249.76,1384.24 251.976,1384.24 254.192,1384.24 256.408,1384.24 258.624,1384.24 260.84,1384.24 263.056,1384.24 265.272,1384.24 267.488,1384.24 269.704,1312.12 271.92,1312.12 274.136,1312.12 276.352,1312.12 278.568,1312.12 280.784,1312.12 283,1312.12 285.216,1312.12 287.432,1312.12 289.648,1312.12 291.864,1312.12 294.08,1312.12 296.296,1312.12 298.512,1312.12 300.728,1312.12 302.944,1312.12 305.16,1312.12 307.376,1312.12 309.592,1312.12 311.808,1312.12 314.024,1312.12 316.24,1312.12 318.456,1312.12 320.672,1312.12 322.888,1312.12 325.104,1312.12 327.321,1312.12 329.537,1312.12 331.753,1312.12 333.969,1312.12 336.185,1312.12 338.401,1312.12 340.617,1240.01 342.833,1240.01 345.049,1240.01 347.265,1167.9 349.481,1167.9 351.697,1167.9 353.913,1167.9 356.129,1167.9 358.345,1167.9 360.561,1167.9 362.777,1167.9 364.993,1167.9 367.209,1167.9 369.425,1167.9 371.641,1167.9 373.857,1167.9 376.073,1167.9 378.289,1167.9 380.505,1167.9 382.721,1167.9 384.937,1167.9 387.153,1167.9 389.369,1167.9 391.585,1167.9 393.801,1095.78 396.017,1095.78 398.233,1095.78 400.449,1167.9 402.665,1167.9 404.881,1167.9 407.097,1167.9 409.313,1167.9 411.529,1167.9 413.745,1167.9 415.961,1167.9 418.177,1167.9 420.393,1167.9 422.609,1167.9 424.825,1167.9 427.041,1167.9 429.257,1167.9 431.473,1167.9 433.689,1167.9 435.905,1167.9 438.121,1167.9 440.337,1167.9 442.553,1167.9 444.769,1167.9 446.985,1167.9 449.201,1167.9 451.417,1167.9 453.633,1167.9 455.849,1167.9 458.065,1167.9 460.281,1167.9 462.497,1240.01 464.713,1312.12 466.929,1240.01 469.145,1240.01 471.361,1240.01 473.577,1240.01 475.793,1240.01 478.009,1240.01 480.225,1240.01 482.441,1240.01 484.657,1240.01 486.873,1240.01 489.089,1240.01 491.305,1240.01 493.521,1240.01 495.737,1240.01 497.953,1240.01 500.169,1240.01 502.385,1240.01 504.601,1240.01 506.818,1240.01 509.034,1240.01 511.25,1240.01 513.466,1240.01 515.682,1240.01 517.898,1240.01 520.114,1240.01 522.33,1240.01 524.546,1240.01 526.762,1240.01 528.978,1240.01 531.194,1240.01 533.41,1240.01 535.626,1240.01 537.842,1167.9 540.058,1167.9 542.274,1167.9 544.49,1167.9 546.706,1095.78 548.922,1095.78 551.138,1095.78 553.354,1095.78 555.57,1095.78 557.786,1095.78 560.002,1095.78 562.218,1095.78 564.434,1095.78 566.65,1095.78 568.866,1095.78 571.082,1095.78 573.298,1095.78 575.514,1095.78 577.73,1095.78 579.946,1095.78 582.162,1095.78 584.378,1095.78 586.594,1095.78 588.81,1095.78 591.026,1095.78 593.242,1095.78 595.458,1167.9 597.674,1167.9 599.89,1167.9 602.106,1167.9 604.322,1167.9 606.538,1167.9 608.754,1167.9 610.97,1167.9 613.186,1167.9 615.402,1167.9 617.618,1167.9 619.834,1167.9 622.05,1167.9 624.266,1167.9 626.482,1167.9 628.698,1167.9 630.914,1167.9 633.13,1167.9 635.346,1167.9 637.562,1167.9 639.778,1167.9 641.994,1167.9 644.21,1167.9 646.426,1167.9 648.642,1167.9 650.858,1167.9 653.074,1167.9 655.29,1167.9 657.506,1167.9 659.722,1167.9 661.938,1167.9 664.154,1167.9 666.37,1167.9 668.586,1167.9 670.802,1167.9 673.018,1167.9 675.234,1167.9 677.45,1167.9 679.666,1167.9 681.882,1167.9 684.099,1167.9 686.315,1167.9 688.531,1167.9 690.747,1167.9 692.963,1167.9 695.179,1167.9 697.395,1167.9 699.611,1240.01 701.827,1312.12 704.043,1312.12 706.259,1312.12 708.475,1312.12 710.691,1312.12 712.907,1312.12 715.123,1384.24 717.339,1384.24 719.555,1384.24 721.771,1384.24 723.987,1384.24 726.203,1384.24 728.419,1384.24 730.635,1384.24 732.851,1384.24 735.067,1384.24 737.283,1384.24 739.499,1384.24 741.715,1384.24 743.931,1384.24 746.147,1384.24 748.363,1384.24 750.579,1384.24 752.795,1384.24 755.011,1384.24 757.227,1384.24 759.443,1384.24 761.659,1384.24 763.875,1384.24 766.091,1384.24 768.307,1384.24 770.523,1384.24 772.739,1384.24 774.955,1384.24 777.171,1384.24 779.387,1384.24 781.603,1384.24 783.819,1384.24 786.035,1384.24 788.251,1384.24 790.467,1384.24 792.683,1384.24 794.899,1384.24 797.115,1384.24 799.331,1384.24 801.547,1384.24 803.763,1384.24 805.979,1384.24 808.195,1384.24 810.411,1384.24 812.627,1384.24 814.843,1384.24 817.059,1384.24 819.275,1384.24 821.491,1384.24 823.707,1384.24 825.923,1384.24 828.139,1384.24 830.355,1384.24 832.571,1384.24 834.787,1384.24 837.003,1384.24 839.219,1384.24 841.435,1384.24 843.651,1384.24 845.867,1384.24 848.083,1384.24 850.299,1384.24 852.515,1384.24 854.731,1384.24 856.947,1384.24 859.163,1384.24 861.38,1384.24 863.596,1384.24 865.812,1384.24 868.028,1384.24 870.244,1384.24 872.46,1384.24 874.676,1384.24 876.892,1384.24 879.108,1384.24 881.324,1384.24 883.54,1384.24 885.756,1384.24 887.972,1384.24 890.188,1384.24 892.404,1384.24 894.62,1384.24 896.836,1384.24 899.052,1384.24 901.268,1384.24 903.484,1384.24 905.7,1384.24 907.916,1384.24 910.132,1384.24 912.348,1384.24 914.564,1384.24 916.78,1384.24 918.996,1384.24 921.212,1384.24 923.428,1384.24 925.644,1384.24 927.86,1384.24 930.076,1384.24 932.292,1384.24 934.508,1384.24 936.724,1384.24 938.94,1384.24 941.156,1384.24 943.372,1384.24 945.588,1384.24 947.804,1384.24 950.02,1384.24 952.236,1384.24 954.452,1384.24 956.668,1384.24 958.884,1384.24 961.1,1384.24 963.316,1384.24 965.532,1384.24 967.748,1384.24 969.964,1384.24 972.18,1384.24 974.396,1384.24 976.612,1384.24 978.828,1384.24 981.044,1384.24 983.26,1384.24 985.476,1384.24 987.692,1384.24 989.908,1384.24 992.124,1384.24 994.34,1384.24 996.556,1384.24 998.772,1384.24 1000.99,1384.24 1003.2,1384.24 1005.42,1384.24 1007.64,1384.24 1009.85,1384.24 1012.07,1384.24 1014.28,1384.24 1016.5,1384.24 1018.72,1384.24 1020.93,1384.24 1023.15,1384.24 1025.36,1384.24 1027.58,1384.24 1029.8,1384.24 1032.01,1384.24 1034.23,1384.24 1036.44,1384.24 1038.66,1384.24 1040.88,1384.24 1043.09,1384.24 1045.31,1384.24 1047.52,1384.24 1049.74,1384.24 1051.96,1384.24 1054.17,1384.24 1056.39,1384.24 1058.6,1384.24 1060.82,1384.24 1063.04,1384.24 1065.25,1384.24 1067.47,1384.24 1069.68,1384.24 1071.9,1384.24 1074.12,1384.24 1076.33,1384.24 1078.55,1384.24 1080.76,1384.24 1082.98,1384.24 1085.2,1384.24 1087.41,1384.24 1089.63,1384.24 1091.84,1384.24 1094.06,1384.24 1096.28,1384.24 1098.49,1384.24 1100.71,1384.24 1102.92,1384.24 1105.14,1384.24 1107.36,1312.12 1109.57,1312.12 1111.79,1312.12 1114,1384.24 1116.22,1384.24 1118.44,1384.24 1120.65,1384.24 1122.87,1384.24 1125.08,1384.24 1127.3,1384.24 1129.52,1384.24 1131.73,1384.24 1133.95,1384.24 1136.17,1312.12 1138.38,1384.24 1140.6,1384.24 1142.81,1384.24 1145.03,1384.24 1147.25,1384.24 1149.46,1384.24 1151.68,1384.24 1153.89,1384.24 1156.11,1384.24 1158.33,1384.24 1160.54,1384.24 1162.76,1384.24 1164.97,1384.24 1167.19,1384.24 1169.41,1384.24 1171.62,1384.24 1173.84,1384.24 1176.05,1384.24 1178.27,1384.24 1180.49,1384.24 1182.7,1384.24 1184.92,1384.24 1187.13,1384.24 1189.35,1384.24 1191.57,1384.24 1193.78,1384.24 1196,1384.24 1198.21,1384.24 1200.43,1384.24 1202.65,1384.24 1204.86,1384.24 1207.08,1384.24 1209.29,1384.24 1211.51,1312.12 1213.73,1312.12 1215.94,1312.12 1218.16,1312.12 1220.37,1312.12 1222.59,1312.12 1224.81,1312.12 1227.02,1312.12 1229.24,1312.12 1231.45,1312.12 1233.67,1312.12 1235.89,1312.12 1238.1,1312.12 1240.32,1312.12 1242.53,1312.12 1244.75,1312.12 1246.97,1312.12 1249.18,1312.12 1251.4,1312.12 1253.61,1312.12 1255.83,1312.12 1258.05,1312.12 1260.26,1312.12 1262.48,1384.24 1264.69,1384.24 1266.91,1384.24 1269.13,1384.24 1271.34,1384.24 1273.56,1384.24 1275.77,1384.24 1277.99,1384.24 1280.21,1384.24 1282.42,1384.24 1284.64,1384.24 1286.85,1384.24 1289.07,1384.24 1291.29,1384.24 1293.5,1384.24 1295.72,1384.24 1297.93,1384.24 1300.15,1384.24 1302.37,1384.24 1304.58,1384.24 1306.8,1384.24 1309.01,1384.24 1311.23,1384.24 1313.45,1384.24 1315.66,1384.24 1317.88,1384.24 1320.09,1384.24 1322.31,1384.24 1324.53,1384.24 1326.74,1240.01 1328.96,1240.01 1331.17,1240.01 1333.39,1240.01 1335.61,1240.01 1337.82,1240.01 1340.04,1240.01 1342.25,1240.01 1344.47,1240.01 1346.69,1240.01 1348.9,1312.12 1351.12,1312.12 1353.33,1312.12 1355.55,1312.12 1357.77,1312.12 1359.98,1312.12 1362.2,1312.12 1364.41,1312.12 1366.63,1312.12 1368.85,1312.12 1371.06,1312.12 1373.28,1312.12 1375.49,1312.12 1377.71,1312.12 1379.93,1312.12 1382.14,1312.12 1384.36,1312.12 1386.57,1312.12 1388.79,1312.12 1391.01,1312.12 1393.22,1312.12 1395.44,1312.12 1397.65,1312.12 1399.87,1312.12 1402.09,1312.12 1404.3,1312.12 1406.52,1312.12 1408.73,1312.12 1410.95,1240.01 1413.17,1240.01 1415.38,1240.01 1417.6,1240.01 1419.81,1240.01 1422.03,1240.01 1424.25,1240.01 1426.46,1240.01 1428.68,1240.01 1430.89,1240.01 1433.11,1240.01 1435.33,1240.01 1437.54,1240.01 1439.76,1240.01 1441.97,1240.01 1444.19,1240.01 1446.41,1240.01 1448.62,1240.01 1450.84,1240.01 1453.05,1240.01 1455.27,1240.01 1457.49,1240.01 1459.7,1240.01 1461.92,1240.01 1464.13,1240.01 1466.35,1240.01 1468.57,1240.01 1470.78,1240.01 1473,1240.01 1475.21,1240.01 1477.43,1240.01 1479.65,1240.01 1481.86,1240.01 1484.08,1240.01 1486.3,1240.01 1488.51,1240.01 1490.73,1240.01 1492.94,1240.01 1495.16,1240.01 1497.38,1240.01 1499.59,1240.01 1501.81,1240.01 1504.02,1240.01 1506.24,1240.01 1508.46,1240.01 1510.67,1240.01 1512.89,1240.01 1515.1,1240.01 1517.32,1240.01 1519.54,1240.01 1521.75,1240.01 1523.97,1240.01 1526.18,1240.01 1528.4,1240.01 1530.62,1240.01 1532.83,1240.01 1535.05,1240.01 1537.26,1240.01 1539.48,1240.01 1541.7,1312.12 1543.91,1312.12 1546.13,1312.12 1548.34,1312.12 1550.56,1312.12 1552.78,1312.12 1554.99,1312.12 1557.21,1312.12 1559.42,1312.12 1561.64,1312.12 1563.86,1312.12 1566.07,1312.12 1568.29,1312.12 1570.5,1312.12 1572.72,1312.12 1574.94,1312.12 1577.15,1312.12 1579.37,1312.12 1581.58,1312.12 1583.8,1312.12 1586.02,1312.12 1588.23,1312.12 1590.45,1312.12 1592.66,1312.12 1594.88,1312.12 1597.1,1312.12 1599.31,1312.12 1601.53,1312.12 1603.74,1312.12 1605.96,1312.12 1608.18,1312.12 1610.39,1312.12 1612.61,1312.12 1614.82,1312.12 1617.04,1312.12 1619.26,1312.12 1621.47,1312.12 1623.69,1312.12 1625.9,1312.12 1628.12,1312.12 1630.34,1312.12 1632.55,1312.12 1634.77,1312.12 1636.98,1312.12 1639.2,1312.12 1641.42,1312.12 1643.63,1312.12 1645.85,1312.12 1648.06,1312.12 1650.28,1312.12 1652.5,1312.12 1654.71,1312.12 1656.93,1312.12 1659.14,1312.12 1661.36,1312.12 1663.58,1312.12 1665.79,1312.12 1668.01,1312.12 1670.22,1312.12 1672.44,1312.12 1674.66,1312.12 1676.87,1312.12 1679.09,1312.12 1681.3,1312.12 1683.52,1312.12 1685.74,1312.12 1687.95,1312.12 1690.17,1312.12 1692.38,1312.12 1694.6,1312.12 1696.82,1312.12 1699.03,1312.12 1701.25,1312.12 1703.46,1312.12 1705.68,1312.12 1707.9,1312.12 1710.11,1312.12 1712.33,1312.12 1714.54,1312.12 1716.76,1312.12 1718.98,1312.12 1721.19,1312.12 1723.41,1312.12 1725.62,1312.12 1727.84,1312.12 1730.06,1312.12 1732.27,1312.12 1734.49,1312.12 1736.7,1312.12 1738.92,1312.12 1741.14,1312.12 1743.35,1312.12 1745.57,1312.12 1747.78,1312.12 1750,1312.12 1752.22,1312.12 1754.43,1312.12 1756.65,1312.12 1758.86,1312.12 1761.08,1312.12 1763.3,1312.12 1765.51,1312.12 1767.73,1312.12 1769.94,1312.12 1772.16,1312.12 1774.38,1312.12 1776.59,1312.12 1778.81,1312.12 1781.02,1312.12 1783.24,1312.12 1785.46,1312.12 1787.67,1312.12 1789.89,1312.12 1792.1,1312.12 1794.32,1312.12 1796.54,1312.12 1798.75,1312.12 1800.97,1384.24 1803.18,1384.24 1805.4,1384.24 1807.62,1384.24 1809.83,1384.24 1812.05,1384.24 1814.26,1384.24 1816.48,1384.24 1818.7,1384.24 1820.91,1384.24 1823.13,1384.24 1825.34,1384.24 1827.56,1384.24 1829.78,1384.24 1831.99,1384.24 1834.21,1384.24 1836.42,1384.24 1838.64,1384.24 1840.86,1384.24 1843.07,1384.24 1845.29,1384.24 1847.51,1384.24 1849.72,1384.24 1851.94,1384.24 1854.15,1384.24 1856.37,1384.24 1858.59,1384.24 1860.8,1384.24 1863.02,1384.24 1865.23,1384.24 1867.45,1384.24 1869.67,1384.24 1871.88,1384.24 1874.1,1384.24 1876.31,1384.24 1878.53,1384.24 1880.75,1384.24 1882.96,1384.24 1885.18,1384.24 1887.39,1384.24 1889.61,1384.24 1891.83,1384.24 1894.04,1384.24 1896.26,1384.24 1898.47,1384.24 1900.69,1384.24 1902.91,1384.24 1905.12,1384.24 1907.34,1384.24 1909.55,1384.24 1911.77,1384.24 1913.99,1384.24 1916.2,1384.24 1918.42,1384.24 1920.63,1312.12 1922.85,1312.12 1925.07,1312.12 1927.28,1312.12 1929.5,1312.12 1931.71,1312.12 1933.93,1312.12 1936.15,1312.12 1938.36,1312.12 1940.58,1312.12 1942.79,1312.12 1945.01,1312.12 1947.23,1312.12 1949.44,1312.12 1951.66,1312.12 1953.87,1312.12 1956.09,1240.01 1958.31,1240.01 1960.52,1240.01 1962.74,1240.01 1964.95,1240.01 1967.17,1240.01 1969.39,1240.01 1971.6,1240.01 1973.82,1240.01 1976.03,1240.01 1978.25,1240.01 1980.47,1240.01 1982.68,1240.01 1984.9,1240.01 1987.11,1240.01 1989.33,1240.01 1991.55,1240.01 1993.76,1240.01 1995.98,1240.01 1998.19,1240.01 2000.41,1240.01 2002.63,1240.01 2004.84,1240.01 2007.06,1240.01 2009.27,1240.01 2011.49,1240.01 2013.71,1312.12 2015.92,1384.24 2018.14,1384.24 2020.35,1384.24 2022.57,1384.24 2024.79,1384.24 2027,1384.24 2029.22,1384.24 2031.43,1384.24 2033.65,1384.24 2035.87,1312.12 2038.08,1312.12 2040.3,1312.12 2042.51,1312.12 2044.73,1312.12 2046.95,1312.12 2049.16,1312.12 2051.38,1312.12 2053.59,1312.12 2055.81,1312.12 2058.03,1312.12 2060.24,1312.12 2062.46,1312.12 2064.67,1240.01 2066.89,1240.01 2069.11,1240.01 2071.32,1240.01 2073.54,1240.01 2075.75,1240.01 2077.97,1240.01 2080.19,1240.01 2082.4,1240.01 2084.62,1240.01 2086.83,1240.01 2089.05,1240.01 2091.27,1240.01 2093.48,1240.01 2095.7,1240.01 2097.91,1240.01 2100.13,1240.01 2102.35,1240.01 2104.56,1240.01 2106.78,1240.01 2108.99,1240.01 2111.21,1240.01 2113.43,1240.01 2115.64,1240.01 2117.86,1240.01 2120.07,1240.01 2122.29,1240.01 2124.51,1240.01 2126.72,1240.01 2128.94,1240.01 2131.15,1240.01 2133.37,1240.01 2135.59,1240.01 2137.8,1167.9 2140.02,1167.9 2142.23,1167.9 2144.45,1167.9 2146.67,1167.9 2148.88,1167.9 2151.1,1167.9 2153.31,1167.9 2155.53,1167.9 2157.75,1167.9 2159.96,1167.9 2162.18,1167.9 2164.39,1167.9 2166.61,1240.01 2168.83,1240.01 2171.04,1167.9 2173.26,1167.9 2175.47,1167.9 2177.69,1167.9 2179.91,1167.9 2182.12,1167.9 2184.34,1167.9 2186.55,1167.9 2188.77,1095.78 2190.99,1095.78 2193.2,1095.78 2195.42,1095.78 2197.64,1095.78 2199.85,1095.78 2202.07,1095.78 2204.28,1023.67 2206.5,1023.67 2208.72,1023.67 2210.93,1023.67 2213.15,1023.67 2215.36,1023.67 2217.58,1023.67 2219.8,1023.67 2222.01,1023.67 2224.23,1023.67 2226.44,1023.67 2228.66,1023.67 2230.88,1023.67 2233.09,1023.67 2235.31,951.554 2237.52,951.554 2239.74,951.554 2241.96,951.554 2244.17,951.554 2246.39,951.554 2248.6,951.554 2250.82,951.554 2253.04,951.554 2255.25,951.554 2257.47,951.554 2259.68,951.554 2261.9,951.554 2264.12,951.554 2266.33,951.554 2268.55,951.554 2270.76,951.554 2272.98,951.554 2275.2,1023.67 2277.41,1023.67 2279.63,1023.67 2281.84,1023.67 2284.06,1023.67 2286.28,1023.67 2288.49,1023.67 2290.71,1023.67 2292.92,1023.67 2295.14,1023.67 2297.36,951.554 2299.57,951.554 2301.79,951.554 2304,951.554 2306.22,951.554 2308.44,951.554 2310.65,951.554 2312.87,951.554 2315.08,951.554 2317.3,951.554 2319.52,951.554 2321.73,951.554 2323.95,951.554 2326.16,951.554 2328.38,951.554 2330.6,951.554 2332.81,951.554 2335.03,951.554 2337.24,951.554 2339.46,951.554 2341.68,951.554 2343.89,951.554 2346.11,951.554 2348.32,951.554 2350.54,951.554 2352.76,1023.67 "/>
<polyline clip-path="url(#clip182)" style="stroke:#e26f46; stroke-linecap:round; stroke-linejoin:round; stroke-width:8; stroke-opacity:1; fill:none" points="138.959,1384.24 141.175,1384.24 143.391,1384.24 145.607,1384.24 147.823,1384.24 150.04,1384.24 152.256,1384.24 154.472,1384.24 156.688,1384.24 158.904,1384.24 161.12,1384.24 163.336,1384.24 165.552,1384.24 167.768,1384.24 169.984,1384.24 172.2,1384.24 174.416,1384.24 176.632,1384.24 178.848,1384.24 181.064,1384.24 183.28,1384.24 185.496,1384.24 187.712,1384.24 189.928,1384.24 192.144,1384.24 194.36,1384.24 196.576,1384.24 198.792,1384.24 201.008,1384.24 203.224,1384.24 205.44,1384.24 207.656,1384.24 209.872,1384.24 212.088,1384.24 214.304,1384.24 216.52,1384.24 218.736,1384.24 220.952,1384.24 223.168,1384.24 225.384,1384.24 227.6,1384.24 229.816,1384.24 232.032,1384.24 234.248,1384.24 236.464,1384.24 238.68,1384.24 240.896,1384.24 243.112,1384.24 245.328,1384.24 247.544,1384.24 249.76,1384.24 251.976,1384.24 254.192,1384.24 256.408,1384.24 258.624,1384.24 260.84,1384.24 263.056,1384.24 265.272,1384.24 267.488,1384.24 269.704,1384.24 271.92,1384.24 274.136,1384.24 276.352,1384.24 278.568,1384.24 280.784,1384.24 283,1384.24 285.216,1384.24 287.432,1384.24 289.648,1384.24 291.864,1384.24 294.08,1384.24 296.296,1384.24 298.512,1384.24 300.728,1384.24 302.944,1384.24 305.16,1384.24 307.376,1384.24 309.592,1384.24 311.808,1384.24 314.024,1384.24 316.24,1384.24 318.456,1384.24 320.672,1384.24 322.888,1384.24 325.104,1384.24 327.321,1384.24 329.537,1384.24 331.753,1384.24 333.969,1384.24 336.185,1384.24 338.401,1384.24 340.617,1384.24 342.833,1384.24 345.049,1384.24 347.265,1384.24 349.481,1384.24 351.697,1384.24 353.913,1384.24 356.129,1384.24 358.345,1384.24 360.561,1384.24 362.777,1384.24 364.993,1384.24 367.209,1384.24 369.425,1384.24 371.641,1384.24 373.857,1384.24 376.073,1384.24 378.289,1384.24 380.505,1384.24 382.721,1384.24 384.937,1384.24 387.153,1384.24 389.369,1384.24 391.585,1384.24 393.801,1384.24 396.017,1384.24 398.233,1384.24 400.449,1312.12 402.665,1312.12 404.881,1312.12 407.097,1312.12 409.313,1312.12 411.529,1312.12 413.745,1312.12 415.961,1312.12 418.177,1312.12 420.393,1312.12 422.609,1312.12 424.825,1312.12 427.041,1312.12 429.257,1312.12 431.473,1312.12 433.689,1312.12 435.905,1312.12 438.121,1312.12 440.337,1312.12 442.553,1312.12 444.769,1312.12 446.985,1312.12 449.201,1312.12 451.417,1312.12 453.633,1312.12 455.849,1312.12 458.065,1312.12 460.281,1312.12 462.497,1240.01 464.713,1167.9 466.929,1167.9 469.145,1167.9 471.361,1167.9 473.577,1167.9 475.793,1167.9 478.009,1167.9 480.225,1167.9 482.441,1167.9 484.657,1167.9 486.873,1167.9 489.089,1167.9 491.305,1167.9 493.521,1167.9 495.737,1167.9 497.953,1167.9 500.169,1167.9 502.385,1167.9 504.601,1167.9 506.818,1167.9 509.034,1167.9 511.25,1167.9 513.466,1167.9 515.682,1167.9 517.898,1167.9 520.114,1167.9 522.33,1167.9 524.546,1167.9 526.762,1167.9 528.978,1167.9 531.194,1167.9 533.41,1167.9 535.626,1167.9 537.842,1167.9 540.058,1167.9 542.274,1167.9 544.49,1167.9 546.706,1167.9 548.922,1167.9 551.138,1167.9 553.354,1167.9 555.57,1167.9 557.786,1167.9 560.002,1167.9 562.218,1167.9 564.434,1167.9 566.65,1167.9 568.866,1167.9 571.082,1167.9 573.298,1167.9 575.514,1167.9 577.73,1167.9 579.946,1167.9 582.162,1167.9 584.378,1167.9 586.594,1167.9 588.81,1167.9 591.026,1167.9 593.242,1167.9 595.458,1095.78 597.674,1095.78 599.89,1095.78 602.106,1095.78 604.322,1095.78 606.538,1095.78 608.754,1095.78 610.97,1095.78 613.186,1095.78 615.402,1095.78 617.618,1095.78 619.834,1095.78 622.05,1095.78 624.266,1095.78 626.482,1095.78 628.698,1095.78 630.914,1095.78 633.13,1095.78 635.346,1095.78 637.562,1095.78 639.778,1095.78 641.994,1095.78 644.21,1095.78 646.426,1095.78 648.642,1095.78 650.858,1095.78 653.074,1095.78 655.29,1095.78 657.506,1095.78 659.722,1095.78 661.938,1095.78 664.154,1095.78 666.37,1095.78 668.586,1095.78 670.802,1095.78 673.018,1095.78 675.234,1095.78 677.45,1095.78 679.666,1095.78 681.882,1095.78 684.099,1095.78 686.315,1095.78 688.531,1095.78 690.747,1095.78 692.963,1095.78 695.179,1095.78 697.395,1095.78 699.611,1023.67 701.827,951.554 704.043,951.554 706.259,951.554 708.475,951.554 710.691,951.554 712.907,951.554 715.123,879.44 717.339,879.44 719.555,879.44 721.771,879.44 723.987,879.44 726.203,879.44 728.419,879.44 730.635,879.44 732.851,879.44 735.067,879.44 737.283,879.44 739.499,879.44 741.715,879.44 743.931,879.44 746.147,879.44 748.363,879.44 750.579,879.44 752.795,879.44 755.011,879.44 757.227,879.44 759.443,879.44 761.659,879.44 763.875,879.44 766.091,879.44 768.307,879.44 770.523,879.44 772.739,879.44 774.955,879.44 777.171,879.44 779.387,879.44 781.603,879.44 783.819,879.44 786.035,879.44 788.251,879.44 790.467,879.44 792.683,879.44 794.899,879.44 797.115,879.44 799.331,879.44 801.547,879.44 803.763,879.44 805.979,879.44 808.195,879.44 810.411,879.44 812.627,879.44 814.843,879.44 817.059,879.44 819.275,879.44 821.491,879.44 823.707,879.44 825.923,879.44 828.139,879.44 830.355,879.44 832.571,879.44 834.787,879.44 837.003,879.44 839.219,879.44 841.435,879.44 843.651,879.44 845.867,879.44 848.083,879.44 850.299,879.44 852.515,879.44 854.731,879.44 856.947,879.44 859.163,879.44 861.38,879.44 863.596,879.44 865.812,879.44 868.028,879.44 870.244,879.44 872.46,879.44 874.676,879.44 876.892,879.44 879.108,879.44 881.324,879.44 883.54,879.44 885.756,879.44 887.972,879.44 890.188,879.44 892.404,879.44 894.62,879.44 896.836,879.44 899.052,879.44 901.268,879.44 903.484,879.44 905.7,879.44 907.916,879.44 910.132,879.44 912.348,879.44 914.564,879.44 916.78,879.44 918.996,879.44 921.212,879.44 923.428,879.44 925.644,879.44 927.86,879.44 930.076,879.44 932.292,879.44 934.508,879.44 936.724,879.44 938.94,879.44 941.156,879.44 943.372,879.44 945.588,879.44 947.804,879.44 950.02,879.44 952.236,879.44 954.452,879.44 956.668,879.44 958.884,879.44 961.1,879.44 963.316,879.44 965.532,879.44 967.748,879.44 969.964,879.44 972.18,879.44 974.396,879.44 976.612,879.44 978.828,879.44 981.044,879.44 983.26,879.44 985.476,879.44 987.692,879.44 989.908,879.44 992.124,879.44 994.34,879.44 996.556,879.44 998.772,879.44 1000.99,879.44 1003.2,879.44 1005.42,879.44 1007.64,879.44 1009.85,879.44 1012.07,879.44 1014.28,879.44 1016.5,879.44 1018.72,879.44 1020.93,879.44 1023.15,879.44 1025.36,879.44 1027.58,879.44 1029.8,879.44 1032.01,879.44 1034.23,879.44 1036.44,879.44 1038.66,879.44 1040.88,879.44 1043.09,879.44 1045.31,879.44 1047.52,879.44 1049.74,879.44 1051.96,879.44 1054.17,879.44 1056.39,879.44 1058.6,879.44 1060.82,879.44 1063.04,879.44 1065.25,879.44 1067.47,879.44 1069.68,879.44 1071.9,879.44 1074.12,879.44 1076.33,879.44 1078.55,879.44 1080.76,879.44 1082.98,879.44 1085.2,879.44 1087.41,879.44 1089.63,879.44 1091.84,879.44 1094.06,879.44 1096.28,879.44 1098.49,879.44 1100.71,879.44 1102.92,879.44 1105.14,879.44 1107.36,879.44 1109.57,879.44 1111.79,879.44 1114,807.326 1116.22,807.326 1118.44,807.326 1120.65,807.326 1122.87,807.326 1125.08,807.326 1127.3,807.326 1129.52,807.326 1131.73,807.326 1133.95,807.326 1136.17,807.326 1138.38,735.212 1140.6,735.212 1142.81,735.212 1145.03,735.212 1147.25,735.212 1149.46,735.212 1151.68,735.212 1153.89,735.212 1156.11,735.212 1158.33,735.212 1160.54,735.212 1162.76,735.212 1164.97,735.212 1167.19,735.212 1169.41,735.212 1171.62,735.212 1173.84,735.212 1176.05,735.212 1178.27,735.212 1180.49,735.212 1182.7,735.212 1184.92,735.212 1187.13,735.212 1189.35,735.212 1191.57,735.212 1193.78,735.212 1196,735.212 1198.21,735.212 1200.43,735.212 1202.65,735.212 1204.86,735.212 1207.08,735.212 1209.29,735.212 1211.51,735.212 1213.73,735.212 1215.94,735.212 1218.16,735.212 1220.37,735.212 1222.59,735.212 1224.81,735.212 1227.02,735.212 1229.24,735.212 1231.45,735.212 1233.67,735.212 1235.89,735.212 1238.1,735.212 1240.32,735.212 1242.53,735.212 1244.75,735.212 1246.97,735.212 1249.18,735.212 1251.4,735.212 1253.61,735.212 1255.83,735.212 1258.05,735.212 1260.26,735.212 1262.48,663.098 1264.69,663.098 1266.91,663.098 1269.13,663.098 1271.34,663.098 1273.56,663.098 1275.77,663.098 1277.99,663.098 1280.21,663.098 1282.42,663.098 1284.64,663.098 1286.85,663.098 1289.07,663.098 1291.29,663.098 1293.5,663.098 1295.72,663.098 1297.93,663.098 1300.15,663.098 1302.37,663.098 1304.58,663.098 1306.8,663.098 1309.01,663.098 1311.23,663.098 1313.45,663.098 1315.66,663.098 1317.88,663.098 1320.09,663.098 1322.31,663.098 1324.53,663.098 1326.74,663.098 1328.96,663.098 1331.17,663.098 1333.39,663.098 1335.61,663.098 1337.82,663.098 1340.04,663.098 1342.25,663.098 1344.47,663.098 1346.69,663.098 1348.9,590.984 1351.12,590.984 1353.33,590.984 1355.55,590.984 1357.77,590.984 1359.98,590.984 1362.2,590.984 1364.41,590.984 1366.63,590.984 1368.85,590.984 1371.06,590.984 1373.28,590.984 1375.49,590.984 1377.71,590.984 1379.93,590.984 1382.14,590.984 1384.36,590.984 1386.57,590.984 1388.79,590.984 1391.01,590.984 1393.22,590.984 1395.44,590.984 1397.65,590.984 1399.87,590.984 1402.09,590.984 1404.3,590.984 1406.52,590.984 1408.73,590.984 1410.95,590.984 1413.17,590.984 1415.38,590.984 1417.6,590.984 1419.81,590.984 1422.03,590.984 1424.25,590.984 1426.46,590.984 1428.68,590.984 1430.89,590.984 1433.11,590.984 1435.33,590.984 1437.54,590.984 1439.76,590.984 1441.97,590.984 1444.19,590.984 1446.41,590.984 1448.62,590.984 1450.84,590.984 1453.05,590.984 1455.27,590.984 1457.49,590.984 1459.7,590.984 1461.92,590.984 1464.13,590.984 1466.35,590.984 1468.57,590.984 1470.78,590.984 1473,590.984 1475.21,590.984 1477.43,590.984 1479.65,590.984 1481.86,590.984 1484.08,590.984 1486.3,590.984 1488.51,590.984 1490.73,590.984 1492.94,590.984 1495.16,590.984 1497.38,590.984 1499.59,590.984 1501.81,590.984 1504.02,590.984 1506.24,590.984 1508.46,590.984 1510.67,590.984 1512.89,590.984 1515.1,590.984 1517.32,590.984 1519.54,590.984 1521.75,590.984 1523.97,590.984 1526.18,590.984 1528.4,590.984 1530.62,590.984 1532.83,590.984 1535.05,590.984 1537.26,590.984 1539.48,590.984 1541.7,518.87 1543.91,518.87 1546.13,518.87 1548.34,518.87 1550.56,518.87 1552.78,518.87 1554.99,518.87 1557.21,518.87 1559.42,518.87 1561.64,518.87 1563.86,518.87 1566.07,518.87 1568.29,518.87 1570.5,518.87 1572.72,518.87 1574.94,518.87 1577.15,518.87 1579.37,518.87 1581.58,518.87 1583.8,518.87 1586.02,518.87 1588.23,518.87 1590.45,518.87 1592.66,518.87 1594.88,518.87 1597.1,518.87 1599.31,518.87 1601.53,518.87 1603.74,518.87 1605.96,518.87 1608.18,518.87 1610.39,518.87 1612.61,518.87 1614.82,518.87 1617.04,518.87 1619.26,518.87 1621.47,518.87 1623.69,518.87 1625.9,518.87 1628.12,518.87 1630.34,518.87 1632.55,518.87 1634.77,518.87 1636.98,518.87 1639.2,518.87 1641.42,518.87 1643.63,518.87 1645.85,518.87 1648.06,518.87 1650.28,518.87 1652.5,518.87 1654.71,518.87 1656.93,518.87 1659.14,518.87 1661.36,518.87 1663.58,518.87 1665.79,518.87 1668.01,518.87 1670.22,518.87 1672.44,518.87 1674.66,518.87 1676.87,518.87 1679.09,518.87 1681.3,518.87 1683.52,518.87 1685.74,518.87 1687.95,518.87 1690.17,518.87 1692.38,518.87 1694.6,518.87 1696.82,518.87 1699.03,518.87 1701.25,518.87 1703.46,518.87 1705.68,518.87 1707.9,518.87 1710.11,518.87 1712.33,518.87 1714.54,518.87 1716.76,518.87 1718.98,518.87 1721.19,518.87 1723.41,518.87 1725.62,518.87 1727.84,518.87 1730.06,518.87 1732.27,518.87 1734.49,518.87 1736.7,518.87 1738.92,518.87 1741.14,518.87 1743.35,518.87 1745.57,518.87 1747.78,518.87 1750,518.87 1752.22,518.87 1754.43,518.87 1756.65,518.87 1758.86,518.87 1761.08,518.87 1763.3,518.87 1765.51,518.87 1767.73,518.87 1769.94,518.87 1772.16,518.87 1774.38,518.87 1776.59,518.87 1778.81,518.87 1781.02,518.87 1783.24,518.87 1785.46,518.87 1787.67,518.87 1789.89,518.87 1792.1,518.87 1794.32,518.87 1796.54,518.87 1798.75,518.87 1800.97,446.756 1803.18,446.756 1805.4,446.756 1807.62,446.756 1809.83,446.756 1812.05,446.756 1814.26,446.756 1816.48,446.756 1818.7,446.756 1820.91,446.756 1823.13,446.756 1825.34,446.756 1827.56,446.756 1829.78,446.756 1831.99,446.756 1834.21,446.756 1836.42,446.756 1838.64,446.756 1840.86,446.756 1843.07,446.756 1845.29,446.756 1847.51,446.756 1849.72,446.756 1851.94,446.756 1854.15,446.756 1856.37,446.756 1858.59,446.756 1860.8,446.756 1863.02,446.756 1865.23,446.756 1867.45,446.756 1869.67,446.756 1871.88,446.756 1874.1,446.756 1876.31,446.756 1878.53,446.756 1880.75,446.756 1882.96,446.756 1885.18,446.756 1887.39,446.756 1889.61,446.756 1891.83,446.756 1894.04,446.756 1896.26,446.756 1898.47,446.756 1900.69,446.756 1902.91,446.756 1905.12,446.756 1907.34,446.756 1909.55,446.756 1911.77,446.756 1913.99,446.756 1916.2,446.756 1918.42,446.756 1920.63,446.756 1922.85,446.756 1925.07,446.756 1927.28,446.756 1929.5,446.756 1931.71,446.756 1933.93,446.756 1936.15,446.756 1938.36,446.756 1940.58,446.756 1942.79,446.756 1945.01,446.756 1947.23,446.756 1949.44,446.756 1951.66,446.756 1953.87,446.756 1956.09,446.756 1958.31,446.756 1960.52,446.756 1962.74,446.756 1964.95,446.756 1967.17,446.756 1969.39,446.756 1971.6,446.756 1973.82,446.756 1976.03,446.756 1978.25,446.756 1980.47,446.756 1982.68,446.756 1984.9,446.756 1987.11,446.756 1989.33,446.756 1991.55,446.756 1993.76,446.756 1995.98,446.756 1998.19,446.756 2000.41,446.756 2002.63,446.756 2004.84,446.756 2007.06,446.756 2009.27,446.756 2011.49,446.756 2013.71,374.642 2015.92,302.528 2018.14,302.528 2020.35,302.528 2022.57,302.528 2024.79,302.528 2027,302.528 2029.22,302.528 2031.43,302.528 2033.65,302.528 2035.87,302.528 2038.08,302.528 2040.3,302.528 2042.51,302.528 2044.73,302.528 2046.95,302.528 2049.16,302.528 2051.38,302.528 2053.59,302.528 2055.81,302.528 2058.03,302.528 2060.24,302.528 2062.46,302.528 2064.67,302.528 2066.89,302.528 2069.11,302.528 2071.32,302.528 2073.54,302.528 2075.75,302.528 2077.97,302.528 2080.19,302.528 2082.4,302.528 2084.62,302.528 2086.83,302.528 2089.05,302.528 2091.27,302.528 2093.48,302.528 2095.7,302.528 2097.91,302.528 2100.13,302.528 2102.35,302.528 2104.56,302.528 2106.78,302.528 2108.99,302.528 2111.21,302.528 2113.43,302.528 2115.64,302.528 2117.86,302.528 2120.07,302.528 2122.29,302.528 2124.51,302.528 2126.72,302.528 2128.94,302.528 2131.15,302.528 2133.37,302.528 2135.59,302.528 2137.8,302.528 2140.02,302.528 2142.23,302.528 2144.45,302.528 2146.67,302.528 2148.88,302.528 2151.1,302.528 2153.31,302.528 2155.53,302.528 2157.75,302.528 2159.96,302.528 2162.18,302.528 2164.39,302.528 2166.61,230.414 2168.83,230.414 2171.04,230.414 2173.26,230.414 2175.47,230.414 2177.69,230.414 2179.91,230.414 2182.12,230.414 2184.34,230.414 2186.55,230.414 2188.77,230.414 2190.99,230.414 2193.2,230.414 2195.42,230.414 2197.64,230.414 2199.85,230.414 2202.07,230.414 2204.28,230.414 2206.5,230.414 2208.72,230.414 2210.93,230.414 2213.15,230.414 2215.36,230.414 2217.58,230.414 2219.8,230.414 2222.01,230.414 2224.23,230.414 2226.44,230.414 2228.66,230.414 2230.88,230.414 2233.09,230.414 2235.31,230.414 2237.52,230.414 2239.74,230.414 2241.96,230.414 2244.17,230.414 2246.39,230.414 2248.6,230.414 2250.82,230.414 2253.04,230.414 2255.25,230.414 2257.47,230.414 2259.68,230.414 2261.9,230.414 2264.12,230.414 2266.33,230.414 2268.55,230.414 2270.76,230.414 2272.98,230.414 2275.2,158.3 2277.41,158.3 2279.63,158.3 2281.84,158.3 2284.06,158.3 2286.28,158.3 2288.49,158.3 2290.71,158.3 2292.92,158.3 2295.14,158.3 2297.36,158.3 2299.57,158.3 2301.79,158.3 2304,158.3 2306.22,158.3 2308.44,158.3 2310.65,158.3 2312.87,158.3 2315.08,158.3 2317.3,158.3 2319.52,158.3 2321.73,158.3 2323.95,158.3 2326.16,158.3 2328.38,158.3 2330.6,158.3 2332.81,158.3 2335.03,158.3 2337.24,158.3 2339.46,158.3 2341.68,158.3 2343.89,158.3 2346.11,158.3 2348.32,158.3 2350.54,158.3 2352.76,86.1857 "/>
<path clip-path="url(#clip180)" d="M212.753 248.629 L517.488 248.629 L517.488 93.1086 L212.753 93.1086  Z" fill="#ffffff" fill-rule="evenodd" fill-opacity="1"/>
<polyline clip-path="url(#clip180)" style="stroke:#000000; stroke-linecap:round; stroke-linejoin:round; stroke-width:4; stroke-opacity:1; fill:none" points="212.753,248.629 517.488,248.629 517.488,93.1086 212.753,93.1086 212.753,248.629 "/>
<polyline clip-path="url(#clip180)" style="stroke:#009af9; stroke-linecap:round; stroke-linejoin:round; stroke-width:8; stroke-opacity:1; fill:none" points="237.35,144.949 384.937,144.949 "/>
<path clip-path="url(#clip180)" d="M409.535 127.669 L415.831 127.669 L431.155 156.581 L431.155 127.669 L435.692 127.669 L435.692 162.229 L429.396 162.229 L414.072 133.317 L414.072 162.229 L409.535 162.229 L409.535 127.669 Z" fill="#000000" fill-rule="nonzero" fill-opacity="1" /><path clip-path="url(#clip180)" d="M455.044 126.257 Q451.942 131.581 450.437 136.789 Q448.933 141.997 448.933 147.344 Q448.933 152.692 450.437 157.946 Q451.965 163.178 455.044 168.479 L451.34 168.479 Q447.868 163.039 446.132 157.784 Q444.419 152.53 444.419 147.344 Q444.419 142.182 446.132 136.951 Q447.845 131.72 451.34 126.257 L455.044 126.257 Z" fill="#000000" fill-rule="nonzero" fill-opacity="1" /><path clip-path="url(#clip180)" d="M467.52 128.942 L467.52 136.303 L476.293 136.303 L476.293 139.613 L467.52 139.613 L467.52 153.687 Q467.52 156.858 468.377 157.761 Q469.256 158.664 471.918 158.664 L476.293 158.664 L476.293 162.229 L471.918 162.229 Q466.988 162.229 465.113 160.4 Q463.238 158.548 463.238 153.687 L463.238 139.613 L460.113 139.613 L460.113 136.303 L463.238 136.303 L463.238 128.942 L467.52 128.942 Z" fill="#000000" fill-rule="nonzero" fill-opacity="1" /><path clip-path="url(#clip180)" d="M481.224 126.257 L484.928 126.257 Q488.4 131.72 490.113 136.951 Q491.849 142.182 491.849 147.344 Q491.849 152.53 490.113 157.784 Q488.4 163.039 484.928 168.479 L481.224 168.479 Q484.303 163.178 485.807 157.946 Q487.335 152.692 487.335 147.344 Q487.335 141.997 485.807 136.789 Q484.303 131.581 481.224 126.257 Z" fill="#000000" fill-rule="nonzero" fill-opacity="1" /><polyline clip-path="url(#clip180)" style="stroke:#e26f46; stroke-linecap:round; stroke-linejoin:round; stroke-width:8; stroke-opacity:1; fill:none" points="237.35,196.789 384.937,196.789 "/>
<path clip-path="url(#clip180)" d="M414.21 183.351 L414.21 210.226 L419.859 210.226 Q427.011 210.226 430.321 206.985 Q433.655 203.745 433.655 196.754 Q433.655 189.809 430.321 186.592 Q427.011 183.351 419.859 183.351 L414.21 183.351 M409.535 179.509 L419.141 179.509 Q429.187 179.509 433.886 183.698 Q438.585 187.865 438.585 196.754 Q438.585 205.689 433.863 209.879 Q429.141 214.069 419.141 214.069 L409.535 214.069 L409.535 179.509 Z" fill="#000000" fill-rule="nonzero" fill-opacity="1" /><path clip-path="url(#clip180)" d="M456.085 178.097 Q452.983 183.421 451.479 188.629 Q449.974 193.837 449.974 199.184 Q449.974 204.532 451.479 209.786 Q453.007 215.018 456.085 220.319 L452.382 220.319 Q448.909 214.879 447.173 209.624 Q445.46 204.37 445.46 199.184 Q445.46 194.022 447.173 188.791 Q448.886 183.56 452.382 178.097 L456.085 178.097 Z" fill="#000000" fill-rule="nonzero" fill-opacity="1" /><path clip-path="url(#clip180)" d="M468.562 180.782 L468.562 188.143 L477.335 188.143 L477.335 191.453 L468.562 191.453 L468.562 205.527 Q468.562 208.698 469.419 209.601 Q470.298 210.504 472.96 210.504 L477.335 210.504 L477.335 214.069 L472.96 214.069 Q468.03 214.069 466.155 212.24 Q464.28 210.388 464.28 205.527 L464.28 191.453 L461.155 191.453 L461.155 188.143 L464.28 188.143 L464.28 180.782 L468.562 180.782 Z" fill="#000000" fill-rule="nonzero" fill-opacity="1" /><path clip-path="url(#clip180)" d="M482.266 178.097 L485.969 178.097 Q489.442 183.56 491.154 188.791 Q492.891 194.022 492.891 199.184 Q492.891 204.37 491.154 209.624 Q489.442 214.879 485.969 220.319 L482.266 220.319 Q485.344 215.018 486.849 209.786 Q488.377 204.532 488.377 199.184 Q488.377 193.837 486.849 188.629 Q485.344 183.421 482.266 178.097 Z" fill="#000000" fill-rule="nonzero" fill-opacity="1" /></svg>
