<?xml version="1.0" encoding="utf-8"?>
<svg xmlns="http://www.w3.org/2000/svg" xmlns:xlink="http://www.w3.org/1999/xlink" width="600" height="400" viewBox="0 0 2400 1600">
<defs>
  <clipPath id="clip230">
    <rect x="0" y="0" width="2400" height="1600"/>
  </clipPath>
</defs>
<path clip-path="url(#clip230)" d="M0 1600 L2400 1600 L2400 0 L0 0  Z" fill="#ffffff" fill-rule="evenodd" fill-opacity="1"/>
<defs>
  <clipPath id="clip231">
    <rect x="480" y="0" width="1681" height="1600"/>
  </clipPath>
</defs>
<path clip-path="url(#clip230)" d="M140.696 1423.18 L2352.76 1423.18 L2352.76 47.2441 L140.696 47.2441  Z" fill="#ffffff" fill-rule="evenodd" fill-opacity="1"/>
<defs>
  <clipPath id="clip232">
    <rect x="140" y="47" width="2213" height="1377"/>
  </clipPath>
</defs>
<polyline clip-path="url(#clip232)" style="stroke:#000000; stroke-linecap:round; stroke-linejoin:round; stroke-width:2; stroke-opacity:0.1; fill:none" points="140.696,1423.18 140.696,47.2441 "/>
<polyline clip-path="url(#clip232)" style="stroke:#000000; stroke-linecap:round; stroke-linejoin:round; stroke-width:2; stroke-opacity:0.1; fill:none" points="583.108,1423.18 583.108,47.2441 "/>
<polyline clip-path="url(#clip232)" style="stroke:#000000; stroke-linecap:round; stroke-linejoin:round; stroke-width:2; stroke-opacity:0.1; fill:none" points="1025.52,1423.18 1025.52,47.2441 "/>
<polyline clip-path="url(#clip232)" style="stroke:#000000; stroke-linecap:round; stroke-linejoin:round; stroke-width:2; stroke-opacity:0.1; fill:none" points="1467.93,1423.18 1467.93,47.2441 "/>
<polyline clip-path="url(#clip232)" style="stroke:#000000; stroke-linecap:round; stroke-linejoin:round; stroke-width:2; stroke-opacity:0.1; fill:none" points="1910.34,1423.18 1910.34,47.2441 "/>
<polyline clip-path="url(#clip232)" style="stroke:#000000; stroke-linecap:round; stroke-linejoin:round; stroke-width:2; stroke-opacity:0.1; fill:none" points="2352.76,1423.18 2352.76,47.2441 "/>
<polyline clip-path="url(#clip230)" style="stroke:#000000; stroke-linecap:round; stroke-linejoin:round; stroke-width:4; stroke-opacity:1; fill:none" points="140.696,1423.18 2352.76,1423.18 "/>
<polyline clip-path="url(#clip230)" style="stroke:#000000; stroke-linecap:round; stroke-linejoin:round; stroke-width:4; stroke-opacity:1; fill:none" points="140.696,1423.18 140.696,1404.28 "/>
<polyline clip-path="url(#clip230)" style="stroke:#000000; stroke-linecap:round; stroke-linejoin:round; stroke-width:4; stroke-opacity:1; fill:none" points="583.108,1423.18 583.108,1404.28 "/>
<polyline clip-path="url(#clip230)" style="stroke:#000000; stroke-linecap:round; stroke-linejoin:round; stroke-width:4; stroke-opacity:1; fill:none" points="1025.52,1423.18 1025.52,1404.28 "/>
<polyline clip-path="url(#clip230)" style="stroke:#000000; stroke-linecap:round; stroke-linejoin:round; stroke-width:4; stroke-opacity:1; fill:none" points="1467.93,1423.18 1467.93,1404.28 "/>
<polyline clip-path="url(#clip230)" style="stroke:#000000; stroke-linecap:round; stroke-linejoin:round; stroke-width:4; stroke-opacity:1; fill:none" points="1910.34,1423.18 1910.34,1404.28 "/>
<polyline clip-path="url(#clip230)" style="stroke:#000000; stroke-linecap:round; stroke-linejoin:round; stroke-width:4; stroke-opacity:1; fill:none" points="2352.76,1423.18 2352.76,1404.28 "/>
<path clip-path="url(#clip230)" d="M140.696 1454.1 Q137.084 1454.1 135.256 1457.66 Q133.45 1461.2 133.45 1468.33 Q133.45 1475.44 135.256 1479.01 Q137.084 1482.55 140.696 1482.55 Q144.33 1482.55 146.135 1479.01 Q147.964 1475.44 147.964 1468.33 Q147.964 1461.2 146.135 1457.66 Q144.33 1454.1 140.696 1454.1 M140.696 1450.39 Q146.506 1450.39 149.561 1455 Q152.64 1459.58 152.64 1468.33 Q152.64 1477.06 149.561 1481.67 Q146.506 1486.25 140.696 1486.25 Q134.885 1486.25 131.807 1481.67 Q128.751 1477.06 128.751 1468.33 Q128.751 1459.58 131.807 1455 Q134.885 1450.39 140.696 1450.39 Z" fill="#000000" fill-rule="nonzero" fill-opacity="1" /><path clip-path="url(#clip230)" d="M577.76 1481.64 L594.08 1481.64 L594.08 1485.58 L572.135 1485.58 L572.135 1481.64 Q574.797 1478.89 579.381 1474.26 Q583.987 1469.61 585.168 1468.27 Q587.413 1465.74 588.293 1464.01 Q589.196 1462.25 589.196 1460.56 Q589.196 1457.8 587.251 1456.07 Q585.33 1454.33 582.228 1454.33 Q580.029 1454.33 577.575 1455.09 Q575.145 1455.86 572.367 1457.41 L572.367 1452.69 Q575.191 1451.55 577.645 1450.97 Q580.098 1450.39 582.135 1450.39 Q587.506 1450.39 590.7 1453.08 Q593.895 1455.77 593.895 1460.26 Q593.895 1462.39 593.084 1464.31 Q592.297 1466.2 590.191 1468.8 Q589.612 1469.47 586.51 1472.69 Q583.409 1475.88 577.76 1481.64 Z" fill="#000000" fill-rule="nonzero" fill-opacity="1" /><path clip-path="url(#clip230)" d="M1028.53 1455.09 L1016.72 1473.54 L1028.53 1473.54 L1028.53 1455.09 M1027.3 1451.02 L1033.18 1451.02 L1033.18 1473.54 L1038.11 1473.54 L1038.11 1477.43 L1033.18 1477.43 L1033.18 1485.58 L1028.53 1485.58 L1028.53 1477.43 L1012.93 1477.43 L1012.93 1472.92 L1027.3 1451.02 Z" fill="#000000" fill-rule="nonzero" fill-opacity="1" /><path clip-path="url(#clip230)" d="M1468.34 1466.44 Q1465.19 1466.44 1463.34 1468.59 Q1461.51 1470.74 1461.51 1474.49 Q1461.51 1478.22 1463.34 1480.39 Q1465.19 1482.55 1468.34 1482.55 Q1471.48 1482.55 1473.31 1480.39 Q1475.17 1478.22 1475.17 1474.49 Q1475.17 1470.74 1473.31 1468.59 Q1471.48 1466.44 1468.34 1466.44 M1477.62 1451.78 L1477.62 1456.04 Q1475.86 1455.21 1474.05 1454.77 Q1472.27 1454.33 1470.51 1454.33 Q1465.88 1454.33 1463.43 1457.45 Q1461 1460.58 1460.65 1466.9 Q1462.02 1464.89 1464.08 1463.82 Q1466.14 1462.73 1468.61 1462.73 Q1473.82 1462.73 1476.83 1465.9 Q1479.86 1469.05 1479.86 1474.49 Q1479.86 1479.82 1476.72 1483.03 Q1473.57 1486.25 1468.34 1486.25 Q1462.34 1486.25 1459.17 1481.67 Q1456 1477.06 1456 1468.33 Q1456 1460.14 1459.89 1455.28 Q1463.78 1450.39 1470.33 1450.39 Q1472.09 1450.39 1473.87 1450.74 Q1475.67 1451.09 1477.62 1451.78 Z" fill="#000000" fill-rule="nonzero" fill-opacity="1" /><path clip-path="url(#clip230)" d="M1910.34 1469.17 Q1907.01 1469.17 1905.09 1470.95 Q1903.19 1472.73 1903.19 1475.86 Q1903.19 1478.98 1905.09 1480.77 Q1907.01 1482.55 1910.34 1482.55 Q1913.68 1482.55 1915.6 1480.77 Q1917.52 1478.96 1917.52 1475.86 Q1917.52 1472.73 1915.6 1470.95 Q1913.7 1469.17 1910.34 1469.17 M1905.67 1467.18 Q1902.66 1466.44 1900.97 1464.38 Q1899.3 1462.32 1899.3 1459.35 Q1899.3 1455.21 1902.24 1452.8 Q1905.2 1450.39 1910.34 1450.39 Q1915.51 1450.39 1918.45 1452.8 Q1921.39 1455.21 1921.39 1459.35 Q1921.39 1462.32 1919.7 1464.38 Q1918.03 1466.44 1915.04 1467.18 Q1918.42 1467.96 1920.3 1470.26 Q1922.2 1472.55 1922.2 1475.86 Q1922.2 1480.88 1919.12 1483.57 Q1916.06 1486.25 1910.34 1486.25 Q1904.63 1486.25 1901.55 1483.57 Q1898.49 1480.88 1898.49 1475.86 Q1898.49 1472.55 1900.39 1470.26 Q1902.29 1467.96 1905.67 1467.18 M1903.95 1459.79 Q1903.95 1462.48 1905.62 1463.98 Q1907.31 1465.49 1910.34 1465.49 Q1913.35 1465.49 1915.04 1463.98 Q1916.76 1462.48 1916.76 1459.79 Q1916.76 1457.11 1915.04 1455.6 Q1913.35 1454.1 1910.34 1454.1 Q1907.31 1454.1 1905.62 1455.6 Q1903.95 1457.11 1903.95 1459.79 Z" fill="#000000" fill-rule="nonzero" fill-opacity="1" /><path clip-path="url(#clip230)" d="M2327.44 1481.64 L2335.08 1481.64 L2335.08 1455.28 L2326.77 1456.95 L2326.77 1452.69 L2335.04 1451.02 L2339.71 1451.02 L2339.71 1481.64 L2347.35 1481.64 L2347.35 1485.58 L2327.44 1485.58 L2327.44 1481.64 Z" fill="#000000" fill-rule="nonzero" fill-opacity="1" /><path clip-path="url(#clip230)" d="M2366.8 1454.1 Q2363.18 1454.1 2361.36 1457.66 Q2359.55 1461.2 2359.55 1468.33 Q2359.55 1475.44 2361.36 1479.01 Q2363.18 1482.55 2366.8 1482.55 Q2370.43 1482.55 2372.23 1479.01 Q2374.06 1475.44 2374.06 1468.33 Q2374.06 1461.2 2372.23 1457.66 Q2370.43 1454.1 2366.8 1454.1 M2366.8 1450.39 Q2372.61 1450.39 2375.66 1455 Q2378.74 1459.58 2378.74 1468.33 Q2378.74 1477.06 2375.66 1481.67 Q2372.61 1486.25 2366.8 1486.25 Q2360.99 1486.25 2357.91 1481.67 Q2354.85 1477.06 2354.85 1468.33 Q2354.85 1459.58 2357.91 1455 Q2360.99 1450.39 2366.8 1450.39 Z" fill="#000000" fill-rule="nonzero" fill-opacity="1" /><path clip-path="url(#clip230)" d="M1245.79 1522.27 L1245.79 1532.4 L1257.85 1532.4 L1257.85 1536.95 L1245.79 1536.95 L1245.79 1556.3 Q1245.79 1560.66 1246.96 1561.9 Q1248.17 1563.14 1251.83 1563.14 L1257.85 1563.14 L1257.85 1568.04 L1251.83 1568.04 Q1245.05 1568.04 1242.48 1565.53 Q1239.9 1562.98 1239.9 1556.3 L1239.9 1536.95 L1235.6 1536.95 L1235.6 1532.4 L1239.9 1532.4 L1239.9 1522.27 L1245.79 1522.27 Z" fill="#000000" fill-rule="nonzero" fill-opacity="1" /><polyline clip-path="url(#clip232)" style="stroke:#000000; stroke-linecap:round; stroke-linejoin:round; stroke-width:2; stroke-opacity:0.1; fill:none" points="140.696,1384.24 2352.76,1384.24 "/>
<polyline clip-path="url(#clip232)" style="stroke:#000000; stroke-linecap:round; stroke-linejoin:round; stroke-width:2; stroke-opacity:0.1; fill:none" points="140.696,1089.23 2352.76,1089.23 "/>
<polyline clip-path="url(#clip232)" style="stroke:#000000; stroke-linecap:round; stroke-linejoin:round; stroke-width:2; stroke-opacity:0.1; fill:none" points="140.696,794.214 2352.76,794.214 "/>
<polyline clip-path="url(#clip232)" style="stroke:#000000; stroke-linecap:round; stroke-linejoin:round; stroke-width:2; stroke-opacity:0.1; fill:none" points="140.696,499.202 2352.76,499.202 "/>
<polyline clip-path="url(#clip232)" style="stroke:#000000; stroke-linecap:round; stroke-linejoin:round; stroke-width:2; stroke-opacity:0.1; fill:none" points="140.696,204.19 2352.76,204.19 "/>
<polyline clip-path="url(#clip230)" style="stroke:#000000; stroke-linecap:round; stroke-linejoin:round; stroke-width:4; stroke-opacity:1; fill:none" points="140.696,1423.18 140.696,47.2441 "/>
<polyline clip-path="url(#clip230)" style="stroke:#000000; stroke-linecap:round; stroke-linejoin:round; stroke-width:4; stroke-opacity:1; fill:none" points="140.696,1384.24 159.593,1384.24 "/>
<polyline clip-path="url(#clip230)" style="stroke:#000000; stroke-linecap:round; stroke-linejoin:round; stroke-width:4; stroke-opacity:1; fill:none" points="140.696,1089.23 159.593,1089.23 "/>
<polyline clip-path="url(#clip230)" style="stroke:#000000; stroke-linecap:round; stroke-linejoin:round; stroke-width:4; stroke-opacity:1; fill:none" points="140.696,794.214 159.593,794.214 "/>
<polyline clip-path="url(#clip230)" style="stroke:#000000; stroke-linecap:round; stroke-linejoin:round; stroke-width:4; stroke-opacity:1; fill:none" points="140.696,499.202 159.593,499.202 "/>
<polyline clip-path="url(#clip230)" style="stroke:#000000; stroke-linecap:round; stroke-linejoin:round; stroke-width:4; stroke-opacity:1; fill:none" points="140.696,204.19 159.593,204.19 "/>
<path clip-path="url(#clip230)" d="M92.7512 1370.04 Q89.1401 1370.04 87.3114 1373.6 Q85.5058 1377.14 85.5058 1384.27 Q85.5058 1391.38 87.3114 1394.94 Q89.1401 1398.49 92.7512 1398.49 Q96.3854 1398.49 98.1909 1394.94 Q100.02 1391.38 100.02 1384.27 Q100.02 1377.14 98.1909 1373.6 Q96.3854 1370.04 92.7512 1370.04 M92.7512 1366.33 Q98.5613 1366.33 101.617 1370.94 Q104.696 1375.52 104.696 1384.27 Q104.696 1393 101.617 1397.61 Q98.5613 1402.19 92.7512 1402.19 Q86.941 1402.19 83.8623 1397.61 Q80.8068 1393 80.8068 1384.27 Q80.8068 1375.52 83.8623 1370.94 Q86.941 1366.33 92.7512 1366.33 Z" fill="#000000" fill-rule="nonzero" fill-opacity="1" /><path clip-path="url(#clip230)" d="M83.7929 1071.95 L102.149 1071.95 L102.149 1075.88 L88.0753 1075.88 L88.0753 1084.35 Q89.0938 1084.01 90.1123 1083.84 Q91.1308 1083.66 92.1493 1083.66 Q97.9363 1083.66 101.316 1086.83 Q104.696 1090 104.696 1095.42 Q104.696 1101 101.223 1104.1 Q97.7511 1107.18 91.4317 1107.18 Q89.2558 1107.18 86.9873 1106.81 Q84.7419 1106.44 82.3346 1105.7 L82.3346 1101 Q84.4179 1102.13 86.6401 1102.69 Q88.8623 1103.24 91.3391 1103.24 Q95.3437 1103.24 97.6817 1101.14 Q100.02 1099.03 100.02 1095.42 Q100.02 1091.81 97.6817 1089.7 Q95.3437 1087.59 91.3391 1087.59 Q89.4641 1087.59 87.5892 1088.01 Q85.7373 1088.43 83.7929 1089.31 L83.7929 1071.95 Z" fill="#000000" fill-rule="nonzero" fill-opacity="1" /><path clip-path="url(#clip230)" d="M53.3995 807.559 L61.0384 807.559 L61.0384 781.194 L52.7282 782.86 L52.7282 778.601 L60.9921 776.934 L65.668 776.934 L65.668 807.559 L73.3068 807.559 L73.3068 811.494 L53.3995 811.494 L53.3995 807.559 Z" fill="#000000" fill-rule="nonzero" fill-opacity="1" /><path clip-path="url(#clip230)" d="M92.7512 780.013 Q89.1401 780.013 87.3114 783.578 Q85.5058 787.119 85.5058 794.249 Q85.5058 801.356 87.3114 804.92 Q89.1401 808.462 92.7512 808.462 Q96.3854 808.462 98.1909 804.92 Q100.02 801.356 100.02 794.249 Q100.02 787.119 98.1909 783.578 Q96.3854 780.013 92.7512 780.013 M92.7512 776.309 Q98.5613 776.309 101.617 780.916 Q104.696 785.499 104.696 794.249 Q104.696 802.976 101.617 807.582 Q98.5613 812.166 92.7512 812.166 Q86.941 812.166 83.8623 807.582 Q80.8068 802.976 80.8068 794.249 Q80.8068 785.499 83.8623 780.916 Q86.941 776.309 92.7512 776.309 Z" fill="#000000" fill-rule="nonzero" fill-opacity="1" /><path clip-path="url(#clip230)" d="M54.3949 512.547 L62.0337 512.547 L62.0337 486.182 L53.7236 487.848 L53.7236 483.589 L61.9874 481.922 L66.6633 481.922 L66.6633 512.547 L74.3022 512.547 L74.3022 516.482 L54.3949 516.482 L54.3949 512.547 Z" fill="#000000" fill-rule="nonzero" fill-opacity="1" /><path clip-path="url(#clip230)" d="M83.7929 481.922 L102.149 481.922 L102.149 485.858 L88.0753 485.858 L88.0753 494.33 Q89.0938 493.983 90.1123 493.82 Q91.1308 493.635 92.1493 493.635 Q97.9363 493.635 101.316 496.807 Q104.696 499.978 104.696 505.395 Q104.696 510.973 101.223 514.075 Q97.7511 517.154 91.4317 517.154 Q89.2558 517.154 86.9873 516.783 Q84.7419 516.413 82.3346 515.672 L82.3346 510.973 Q84.4179 512.107 86.6401 512.663 Q88.8623 513.219 91.3391 513.219 Q95.3437 513.219 97.6817 511.112 Q100.02 509.006 100.02 505.395 Q100.02 501.783 97.6817 499.677 Q95.3437 497.57 91.3391 497.57 Q89.4641 497.57 87.5892 497.987 Q85.7373 498.404 83.7929 499.283 L83.7929 481.922 Z" fill="#000000" fill-rule="nonzero" fill-opacity="1" /><path clip-path="url(#clip230)" d="M56.6171 217.535 L72.9365 217.535 L72.9365 221.47 L50.9921 221.47 L50.9921 217.535 Q53.6541 214.781 58.2375 210.151 Q62.8439 205.498 64.0245 204.156 Q66.2698 201.633 67.1494 199.896 Q68.0522 198.137 68.0522 196.447 Q68.0522 193.693 66.1078 191.957 Q64.1865 190.221 61.0847 190.221 Q58.8856 190.221 56.4319 190.985 Q54.0014 191.748 51.2236 193.299 L51.2236 188.577 Q54.0477 187.443 56.5014 186.864 Q58.955 186.285 60.9921 186.285 Q66.3624 186.285 69.5568 188.971 Q72.7513 191.656 72.7513 196.147 Q72.7513 198.276 71.9411 200.197 Q71.1541 202.096 69.0476 204.688 Q68.4689 205.359 65.367 208.577 Q62.2652 211.771 56.6171 217.535 Z" fill="#000000" fill-rule="nonzero" fill-opacity="1" /><path clip-path="url(#clip230)" d="M92.7512 189.989 Q89.1401 189.989 87.3114 193.554 Q85.5058 197.096 85.5058 204.225 Q85.5058 211.332 87.3114 214.896 Q89.1401 218.438 92.7512 218.438 Q96.3854 218.438 98.1909 214.896 Q100.02 211.332 100.02 204.225 Q100.02 197.096 98.1909 193.554 Q96.3854 189.989 92.7512 189.989 M92.7512 186.285 Q98.5613 186.285 101.617 190.892 Q104.696 195.475 104.696 204.225 Q104.696 212.952 101.617 217.558 Q98.5613 222.142 92.7512 222.142 Q86.941 222.142 83.8623 217.558 Q80.8068 212.952 80.8068 204.225 Q80.8068 195.475 83.8623 190.892 Q86.941 186.285 92.7512 186.285 Z" fill="#000000" fill-rule="nonzero" fill-opacity="1" /><polyline clip-path="url(#clip232)" style="stroke:#009af9; stroke-linecap:round; stroke-linejoin:round; stroke-width:8; stroke-opacity:1; fill:none" points="140.696,1384.24 141.618,1384.24 142.54,1384.24 143.462,1384.24 144.384,1384.24 145.306,1384.24 146.228,1384.24 147.15,1384.24 148.072,1384.24 148.994,1384.24 149.916,1384.24 150.838,1384.24 151.76,1384.24 152.683,1384.24 153.605,1384.24 154.527,1384.24 155.449,1384.24 156.371,1384.24 157.293,1384.24 158.215,1384.24 159.137,1384.24 160.059,1384.24 160.981,1384.24 161.903,1384.24 162.825,1384.24 163.747,1384.24 164.67,1384.24 165.592,1384.24 166.514,1384.24 167.436,1384.24 168.358,1384.24 169.28,1384.24 170.202,1384.24 171.124,1384.24 172.046,1384.24 172.968,1384.24 173.89,1384.24 174.812,1384.24 175.734,1384.24 176.657,1384.24 177.579,1384.24 178.501,1384.24 179.423,1384.24 180.345,1384.24 181.267,1384.24 182.189,1384.24 183.111,1384.24 184.033,1384.24 184.955,1384.24 185.877,1384.24 186.799,1384.24 187.721,1384.24 188.643,1384.24 189.566,1384.24 190.488,1384.24 191.41,1384.24 192.332,1384.24 193.254,1384.24 194.176,1384.24 195.098,1384.24 196.02,1384.24 196.942,1384.24 197.864,1384.24 198.786,1384.24 199.708,1384.24 200.63,1384.24 201.553,1384.24 202.475,1384.24 203.397,1384.24 204.319,1384.24 205.241,1384.24 206.163,1384.24 207.085,1384.24 208.007,1384.24 208.929,1384.24 209.851,1384.24 210.773,1384.24 211.695,1384.24 212.617,1384.24 213.54,1384.24 214.462,1384.24 215.384,1384.24 216.306,1384.24 217.228,1384.24 218.15,1384.24 219.072,1384.24 219.994,1384.24 220.916,1384.24 221.838,1384.24 222.76,1384.24 223.682,1384.24 224.604,1384.24 225.527,1384.24 226.449,1384.24 227.371,1384.24 228.293,1384.24 229.215,1384.24 230.137,1384.24 231.059,1384.24 231.981,1384.24 232.903,1384.24 233.825,1384.24 234.747,1384.24 235.669,1384.24 236.591,1384.24 237.514,1384.24 238.436,1384.24 239.358,1384.24 240.28,1384.24 241.202,1384.24 242.124,1384.24 243.046,1384.24 243.968,1384.24 244.89,1384.24 245.812,1384.24 246.734,1384.24 247.656,1384.24 248.578,1384.24 249.501,1384.24 250.423,1384.24 251.345,1384.24 252.267,1384.24 253.189,1384.24 254.111,1384.24 255.033,1384.24 255.955,1384.24 256.877,1384.24 257.799,1384.24 258.721,1384.24 259.643,1384.24 260.565,1384.24 261.488,1384.24 262.41,1384.24 263.332,1384.24 264.254,1384.24 265.176,1384.24 266.098,1325.24 267.02,1325.24 267.942,1325.24 268.864,1325.24 269.786,1325.24 270.708,1325.24 271.63,1325.24 272.552,1325.24 273.474,1325.24 274.397,1325.24 275.319,1325.24 276.241,1325.24 277.163,1325.24 278.085,1325.24 279.007,1325.24 279.929,1325.24 280.851,1325.24 281.773,1325.24 282.695,1325.24 283.617,1325.24 284.539,1325.24 285.461,1325.24 286.384,1325.24 287.306,1266.23 288.228,1266.23 289.15,1266.23 290.072,1266.23 290.994,1266.23 291.916,1266.23 292.838,1266.23 293.76,1266.23 294.682,1266.23 295.604,1266.23 296.526,1266.23 297.448,1266.23 298.371,1266.23 299.293,1266.23 300.215,1266.23 301.137,1266.23 302.059,1266.23 302.981,1266.23 303.903,1266.23 304.825,1266.23 305.747,1266.23 306.669,1266.23 307.591,1266.23 308.513,1266.23 309.435,1266.23 310.358,1266.23 311.28,1266.23 312.202,1266.23 313.124,1266.23 314.046,1266.23 314.968,1266.23 315.89,1266.23 316.812,1266.23 317.734,1266.23 318.656,1266.23 319.578,1266.23 320.5,1266.23 321.422,1266.23 322.345,1266.23 323.267,1266.23 324.189,1266.23 325.111,1266.23 326.033,1266.23 326.955,1266.23 327.877,1266.23 328.799,1266.23 329.721,1266.23 330.643,1266.23 331.565,1266.23 332.487,1266.23 333.409,1266.23 334.332,1266.23 335.254,1266.23 336.176,1266.23 337.098,1266.23 338.02,1266.23 338.942,1266.23 339.864,1266.23 340.786,1266.23 341.708,1266.23 342.63,1266.23 343.552,1266.23 344.474,1266.23 345.396,1266.23 346.318,1266.23 347.241,1266.23 348.163,1266.23 349.085,1266.23 350.007,1266.23 350.929,1266.23 351.851,1266.23 352.773,1266.23 353.695,1266.23 354.617,1266.23 355.539,1266.23 356.461,1266.23 357.383,1266.23 358.305,1266.23 359.228,1266.23 360.15,1266.23 361.072,1266.23 361.994,1266.23 362.916,1266.23 363.838,1266.23 364.76,1266.23 365.682,1266.23 366.604,1266.23 367.526,1266.23 368.448,1266.23 369.37,1266.23 370.292,1266.23 371.215,1266.23 372.137,1266.23 373.059,1266.23 373.981,1266.23 374.903,1266.23 375.825,1266.23 376.747,1266.23 377.669,1266.23 378.591,1266.23 379.513,1266.23 380.435,1266.23 381.357,1266.23 382.279,1266.23 383.202,1266.23 384.124,1266.23 385.046,1266.23 385.968,1266.23 386.89,1266.23 387.812,1266.23 388.734,1266.23 389.656,1266.23 390.578,1266.23 391.5,1266.23 392.422,1266.23 393.344,1266.23 394.266,1266.23 395.189,1266.23 396.111,1266.23 397.033,1266.23 397.955,1266.23 398.877,1266.23 399.799,1266.23 400.721,1266.23 401.643,1266.23 402.565,1266.23 403.487,1266.23 404.409,1266.23 405.331,1266.23 406.253,1266.23 407.176,1266.23 408.098,1266.23 409.02,1266.23 409.942,1266.23 410.864,1266.23 411.786,1266.23 412.708,1266.23 413.63,1266.23 414.552,1266.23 415.474,1266.23 416.396,1266.23 417.318,1266.23 418.24,1266.23 419.162,1266.23 420.085,1266.23 421.007,1266.23 421.929,1266.23 422.851,1266.23 423.773,1266.23 424.695,1266.23 425.617,1266.23 426.539,1266.23 427.461,1266.23 428.383,1266.23 429.305,1266.23 430.227,1266.23 431.149,1266.23 432.072,1266.23 432.994,1266.23 433.916,1266.23 434.838,1266.23 435.76,1266.23 436.682,1266.23 437.604,1266.23 438.526,1266.23 439.448,1266.23 440.37,1266.23 441.292,1266.23 442.214,1266.23 443.136,1266.23 444.059,1266.23 444.981,1266.23 445.903,1266.23 446.825,1266.23 447.747,1266.23 448.669,1266.23 449.591,1266.23 450.513,1266.23 451.435,1266.23 452.357,1266.23 453.279,1266.23 454.201,1266.23 455.123,1266.23 456.046,1266.23 456.968,1266.23 457.89,1266.23 458.812,1266.23 459.734,1266.23 460.656,1266.23 461.578,1266.23 462.5,1266.23 463.422,1266.23 464.344,1266.23 465.266,1266.23 466.188,1266.23 467.11,1266.23 468.033,1266.23 468.955,1266.23 469.877,1266.23 470.799,1266.23 471.721,1266.23 472.643,1266.23 473.565,1266.23 474.487,1266.23 475.409,1266.23 476.331,1266.23 477.253,1266.23 478.175,1266.23 479.097,1266.23 480.02,1266.23 480.942,1266.23 481.864,1266.23 482.786,1266.23 483.708,1266.23 484.63,1266.23 485.552,1266.23 486.474,1266.23 487.396,1266.23 488.318,1266.23 489.24,1266.23 490.162,1266.23 491.084,1266.23 492.007,1266.23 492.929,1266.23 493.851,1266.23 494.773,1266.23 495.695,1266.23 496.617,1266.23 497.539,1266.23 498.461,1266.23 499.383,1266.23 500.305,1266.23 501.227,1266.23 502.149,1266.23 503.071,1266.23 503.993,1266.23 504.916,1266.23 505.838,1266.23 506.76,1266.23 507.682,1266.23 508.604,1266.23 509.526,1266.23 510.448,1266.23 511.37,1266.23 512.292,1266.23 513.214,1266.23 514.136,1266.23 515.058,1207.23 515.98,1207.23 516.903,1207.23 517.825,1207.23 518.747,1207.23 519.669,1207.23 520.591,1207.23 521.513,1207.23 522.435,1207.23 523.357,1207.23 524.279,1207.23 525.201,1207.23 526.123,1207.23 527.045,1207.23 527.967,1207.23 528.89,1207.23 529.812,1207.23 530.734,1207.23 531.656,1207.23 532.578,1207.23 533.5,1207.23 534.422,1207.23 535.344,1207.23 536.266,1207.23 537.188,1207.23 538.11,1207.23 539.032,1207.23 539.954,1207.23 540.877,1207.23 541.799,1207.23 542.721,1207.23 543.643,1207.23 544.565,1207.23 545.487,1207.23 546.409,1207.23 547.331,1207.23 548.253,1207.23 549.175,1207.23 550.097,1207.23 551.019,1207.23 551.941,1207.23 552.864,1207.23 553.786,1207.23 554.708,1207.23 555.63,1207.23 556.552,1207.23 557.474,1207.23 558.396,1207.23 559.318,1207.23 560.24,1207.23 561.162,1207.23 562.084,1207.23 563.006,1207.23 563.928,1207.23 564.851,1207.23 565.773,1207.23 566.695,1207.23 567.617,1207.23 568.539,1207.23 569.461,1207.23 570.383,1207.23 571.305,1207.23 572.227,1207.23 573.149,1207.23 574.071,1207.23 574.993,1207.23 575.915,1207.23 576.837,1207.23 577.76,1207.23 578.682,1207.23 579.604,1207.23 580.526,1207.23 581.448,1207.23 582.37,1207.23 583.292,1207.23 584.214,1207.23 585.136,1207.23 586.058,1207.23 586.98,1207.23 587.902,1207.23 588.824,1207.23 589.747,1207.23 590.669,1207.23 591.591,1207.23 592.513,1207.23 593.435,1207.23 594.357,1207.23 595.279,1207.23 596.201,1207.23 597.123,1207.23 598.045,1207.23 598.967,1207.23 599.889,1207.23 600.811,1207.23 601.734,1207.23 602.656,1207.23 603.578,1207.23 604.5,1207.23 605.422,1207.23 606.344,1207.23 607.266,1207.23 608.188,1207.23 609.11,1207.23 610.032,1207.23 610.954,1207.23 611.876,1207.23 612.798,1207.23 613.721,1207.23 614.643,1207.23 615.565,1207.23 616.487,1207.23 617.409,1207.23 618.331,1207.23 619.253,1207.23 620.175,1207.23 621.097,1207.23 622.019,1207.23 622.941,1207.23 623.863,1207.23 624.785,1207.23 625.708,1207.23 626.63,1207.23 627.552,1207.23 628.474,1207.23 629.396,1207.23 630.318,1207.23 631.24,1207.23 632.162,1207.23 633.084,1207.23 634.006,1207.23 634.928,1207.23 635.85,1207.23 636.772,1207.23 637.695,1207.23 638.617,1207.23 639.539,1207.23 640.461,1207.23 641.383,1207.23 642.305,1207.23 643.227,1207.23 644.149,1207.23 645.071,1207.23 645.993,1207.23 646.915,1207.23 647.837,1207.23 648.759,1207.23 649.682,1207.23 650.604,1207.23 651.526,1207.23 652.448,1207.23 653.37,1207.23 654.292,1207.23 655.214,1207.23 656.136,1207.23 657.058,1207.23 657.98,1207.23 658.902,1207.23 659.824,1207.23 660.746,1207.23 661.668,1207.23 662.591,1207.23 663.513,1207.23 664.435,1207.23 665.357,1207.23 666.279,1207.23 667.201,1207.23 668.123,1207.23 669.045,1207.23 669.967,1207.23 670.889,1207.23 671.811,1207.23 672.733,1207.23 673.655,1207.23 674.578,1207.23 675.5,1207.23 676.422,1207.23 677.344,1207.23 678.266,1207.23 679.188,1207.23 680.11,1207.23 681.032,1207.23 681.954,1207.23 682.876,1207.23 683.798,1207.23 684.72,1207.23 685.642,1207.23 686.565,1207.23 687.487,1207.23 688.409,1207.23 689.331,1207.23 690.253,1207.23 691.175,1207.23 692.097,1207.23 693.019,1207.23 693.941,1207.23 694.863,1207.23 695.785,1207.23 696.707,1207.23 697.629,1207.23 698.552,1207.23 699.474,1207.23 700.396,1207.23 701.318,1207.23 702.24,1207.23 703.162,1207.23 704.084,1207.23 705.006,1207.23 705.928,1207.23 706.85,1207.23 707.772,1207.23 708.694,1207.23 709.616,1207.23 710.539,1207.23 711.461,1207.23 712.383,1207.23 713.305,1207.23 714.227,1207.23 715.149,1207.23 716.071,1207.23 716.993,1207.23 717.915,1207.23 718.837,1207.23 719.759,1207.23 720.681,1207.23 721.603,1207.23 722.526,1207.23 723.448,1207.23 724.37,1207.23 725.292,1207.23 726.214,1207.23 727.136,1207.23 728.058,1207.23 728.98,1207.23 729.902,1207.23 730.824,1207.23 731.746,1207.23 732.668,1207.23 733.59,1207.23 734.512,1207.23 735.435,1207.23 736.357,1207.23 737.279,1207.23 738.201,1207.23 739.123,1207.23 740.045,1207.23 740.967,1207.23 741.889,1207.23 742.811,1207.23 743.733,1207.23 744.655,1207.23 745.577,1207.23 746.499,1207.23 747.422,1207.23 748.344,1207.23 749.266,1207.23 750.188,1207.23 751.11,1207.23 752.032,1207.23 752.954,1207.23 753.876,1207.23 754.798,1207.23 755.72,1207.23 756.642,1207.23 757.564,1207.23 758.486,1207.23 759.409,1207.23 760.331,1207.23 761.253,1207.23 762.175,1207.23 763.097,1207.23 764.019,1207.23 764.941,1207.23 765.863,1207.23 766.785,1207.23 767.707,1207.23 768.629,1207.23 769.551,1207.23 770.473,1207.23 771.396,1207.23 772.318,1207.23 773.24,1207.23 774.162,1207.23 775.084,1207.23 776.006,1207.23 776.928,1207.23 777.85,1207.23 778.772,1207.23 779.694,1207.23 780.616,1207.23 781.538,1207.23 782.46,1207.23 783.383,1207.23 784.305,1207.23 785.227,1207.23 786.149,1207.23 787.071,1207.23 787.993,1207.23 788.915,1207.23 789.837,1207.23 790.759,1207.23 791.681,1207.23 792.603,1207.23 793.525,1207.23 794.447,1207.23 795.37,1207.23 796.292,1207.23 797.214,1207.23 798.136,1207.23 799.058,1207.23 799.98,1207.23 800.902,1207.23 801.824,1207.23 802.746,1207.23 803.668,1207.23 804.59,1207.23 805.512,1207.23 806.434,1207.23 807.357,1207.23 808.279,1207.23 809.201,1207.23 810.123,1207.23 811.045,1207.23 811.967,1207.23 812.889,1207.23 813.811,1207.23 814.733,1207.23 815.655,1207.23 816.577,1207.23 817.499,1207.23 818.421,1207.23 819.343,1207.23 820.266,1207.23 821.188,1207.23 822.11,1207.23 823.032,1207.23 823.954,1207.23 824.876,1207.23 825.798,1207.23 826.72,1207.23 827.642,1207.23 828.564,1207.23 829.486,1207.23 830.408,1207.23 831.33,1207.23 832.253,1207.23 833.175,1207.23 834.097,1207.23 835.019,1207.23 835.941,1207.23 836.863,1207.23 837.785,1207.23 838.707,1207.23 839.629,1207.23 840.551,1207.23 841.473,1207.23 842.395,1207.23 843.317,1207.23 844.24,1207.23 845.162,1207.23 846.084,1207.23 847.006,1207.23 847.928,1207.23 848.85,1207.23 849.772,1207.23 850.694,1207.23 851.616,1207.23 852.538,1207.23 853.46,1207.23 854.382,1207.23 855.304,1207.23 856.227,1207.23 857.149,1207.23 858.071,1207.23 858.993,1207.23 859.915,1207.23 860.837,1207.23 861.759,1207.23 862.681,1207.23 863.603,1207.23 864.525,1207.23 865.447,1207.23 866.369,1207.23 867.291,1207.23 868.214,1207.23 869.136,1207.23 870.058,1207.23 870.98,1207.23 871.902,1207.23 872.824,1207.23 873.746,1207.23 874.668,1207.23 875.59,1207.23 876.512,1207.23 877.434,1207.23 878.356,1207.23 879.278,1207.23 880.201,1207.23 881.123,1207.23 882.045,1207.23 882.967,1207.23 883.889,1207.23 884.811,1207.23 885.733,1207.23 886.655,1207.23 887.577,1207.23 888.499,1207.23 889.421,1207.23 890.343,1207.23 891.265,1207.23 892.187,1207.23 893.11,1207.23 894.032,1207.23 894.954,1207.23 895.876,1207.23 896.798,1207.23 897.72,1148.23 898.642,1148.23 899.564,1148.23 900.486,1148.23 901.408,1148.23 902.33,1148.23 903.252,1148.23 904.174,1148.23 905.097,1148.23 906.019,1148.23 906.941,1148.23 907.863,1148.23 908.785,1148.23 909.707,1148.23 910.629,1148.23 911.551,1148.23 912.473,1148.23 913.395,1148.23 914.317,1148.23 915.239,1148.23 916.161,1148.23 917.084,1148.23 918.006,1148.23 918.928,1148.23 919.85,1148.23 920.772,1148.23 921.694,1148.23 922.616,1148.23 923.538,1148.23 924.46,1148.23 925.382,1148.23 926.304,1148.23 927.226,1148.23 928.148,1148.23 929.071,1148.23 929.993,1148.23 930.915,1148.23 931.837,1148.23 932.759,1148.23 933.681,1148.23 934.603,1148.23 935.525,1148.23 936.447,1148.23 937.369,1148.23 938.291,1148.23 939.213,1148.23 940.135,1148.23 941.058,1148.23 941.98,1148.23 942.902,1148.23 943.824,1148.23 944.746,1148.23 945.668,1148.23 946.59,1148.23 947.512,1148.23 948.434,1148.23 949.356,1148.23 950.278,1148.23 951.2,1148.23 952.122,1148.23 953.045,1148.23 953.967,1148.23 954.889,1148.23 955.811,1148.23 956.733,1148.23 957.655,1148.23 958.577,1148.23 959.499,1148.23 960.421,1148.23 961.343,1148.23 962.265,1148.23 963.187,1148.23 964.109,1148.23 965.032,1148.23 965.954,1148.23 966.876,1148.23 967.798,1148.23 968.72,1148.23 969.642,1148.23 970.564,1148.23 971.486,1148.23 972.408,1148.23 973.33,1148.23 974.252,1148.23 975.174,1148.23 976.096,1148.23 977.018,1148.23 977.941,1148.23 978.863,1148.23 979.785,1148.23 980.707,1148.23 981.629,1148.23 982.551,1148.23 983.473,1148.23 984.395,1089.23 985.317,1089.23 986.239,1089.23 987.161,1089.23 988.083,1089.23 989.005,1089.23 989.928,1089.23 990.85,1089.23 991.772,1089.23 992.694,1089.23 993.616,1089.23 994.538,1089.23 995.46,1089.23 996.382,1089.23 997.304,1089.23 998.226,1030.22 999.148,1030.22 1000.07,1030.22 1000.99,1030.22 1001.91,1030.22 1002.84,1030.22 1003.76,1030.22 1004.68,1030.22 1005.6,1030.22 1006.52,1030.22 1007.45,1030.22 1008.37,1030.22 1009.29,1030.22 1010.21,1030.22 1011.14,1030.22 1012.06,1030.22 1012.98,1030.22 1013.9,1030.22 1014.82,1030.22 1015.75,1030.22 1016.67,1030.22 1017.59,1030.22 1018.51,1030.22 1019.43,1030.22 1020.36,1030.22 1021.28,1030.22 1022.2,1030.22 1023.12,1030.22 1024.04,1030.22 1024.97,1030.22 1025.89,1030.22 1026.81,1030.22 1027.73,1030.22 1028.65,1030.22 1029.58,1030.22 1030.5,1030.22 1031.42,1030.22 1032.34,1030.22 1033.27,1030.22 1034.19,1030.22 1035.11,1030.22 1036.03,1030.22 1036.95,1030.22 1037.88,1030.22 1038.8,1030.22 1039.72,1030.22 1040.64,1030.22 1041.56,1030.22 1042.49,1030.22 1043.41,1030.22 1044.33,1030.22 1045.25,1030.22 1046.17,1030.22 1047.1,1030.22 1048.02,1030.22 1048.94,1030.22 1049.86,1030.22 1050.78,1030.22 1051.71,1030.22 1052.63,1030.22 1053.55,1030.22 1054.47,1030.22 1055.39,1030.22 1056.32,1030.22 1057.24,1030.22 1058.16,1030.22 1059.08,1030.22 1060.01,1030.22 1060.93,1030.22 1061.85,1030.22 1062.77,1030.22 1063.69,1030.22 1064.62,1030.22 1065.54,1030.22 1066.46,1030.22 1067.38,1030.22 1068.3,1030.22 1069.23,1030.22 1070.15,1030.22 1071.07,1030.22 1071.99,1030.22 1072.91,1030.22 1073.84,1030.22 1074.76,1030.22 1075.68,1030.22 1076.6,1030.22 1077.52,1030.22 1078.45,1030.22 1079.37,1030.22 1080.29,1030.22 1081.21,1030.22 1082.14,1030.22 1083.06,1030.22 1083.98,1030.22 1084.9,1030.22 1085.82,1030.22 1086.75,1030.22 1087.67,1030.22 1088.59,1030.22 1089.51,1030.22 1090.43,1030.22 1091.36,1030.22 1092.28,1030.22 1093.2,1030.22 1094.12,971.222 1095.04,971.222 1095.97,971.222 1096.89,971.222 1097.81,971.222 1098.73,971.222 1099.65,971.222 1100.58,971.222 1101.5,971.222 1102.42,971.222 1103.34,971.222 1104.26,971.222 1105.19,971.222 1106.11,971.222 1107.03,971.222 1107.95,971.222 1108.88,971.222 1109.8,971.222 1110.72,971.222 1111.64,971.222 1112.56,971.222 1113.49,971.222 1114.41,971.222 1115.33,971.222 1116.25,971.222 1117.17,971.222 1118.1,971.222 1119.02,971.222 1119.94,971.222 1120.86,971.222 1121.78,971.222 1122.71,971.222 1123.63,971.222 1124.55,971.222 1125.47,971.222 1126.39,971.222 1127.32,971.222 1128.24,971.222 1129.16,971.222 1130.08,971.222 1131.01,971.222 1131.93,971.222 1132.85,971.222 1133.77,971.222 1134.69,971.222 1135.62,971.222 1136.54,971.222 1137.46,971.222 1138.38,971.222 1139.3,971.222 1140.23,971.222 1141.15,971.222 1142.07,971.222 1142.99,971.222 1143.91,971.222 1144.84,971.222 1145.76,971.222 1146.68,971.222 1147.6,971.222 1148.52,971.222 1149.45,971.222 1150.37,971.222 1151.29,971.222 1152.21,971.222 1153.14,971.222 1154.06,971.222 1154.98,971.222 1155.9,971.222 1156.82,971.222 1157.75,971.222 1158.67,971.222 1159.59,971.222 1160.51,971.222 1161.43,971.222 1162.36,971.222 1163.28,971.222 1164.2,971.222 1165.12,971.222 1166.04,971.222 1166.97,971.222 1167.89,971.222 1168.81,971.222 1169.73,971.222 1170.65,971.222 1171.58,971.222 1172.5,971.222 1173.42,971.222 1174.34,971.222 1175.26,971.222 1176.19,971.222 1177.11,971.222 1178.03,971.222 1178.95,971.222 1179.88,971.222 1180.8,971.222 1181.72,971.222 1182.64,971.222 1183.56,971.222 1184.49,971.222 1185.41,971.222 1186.33,971.222 1187.25,971.222 1188.17,971.222 1189.1,971.222 1190.02,971.222 1190.94,971.222 1191.86,971.222 1192.78,971.222 1193.71,971.222 1194.63,971.222 1195.55,971.222 1196.47,971.222 1197.39,971.222 1198.32,971.222 1199.24,971.222 1200.16,971.222 1201.08,971.222 1202.01,971.222 1202.93,971.222 1203.85,971.222 1204.77,971.222 1205.69,971.222 1206.62,971.222 1207.54,971.222 1208.46,971.222 1209.38,971.222 1210.3,971.222 1211.23,971.222 1212.15,971.222 1213.07,971.222 1213.99,971.222 1214.91,971.222 1215.84,971.222 1216.76,971.222 1217.68,971.222 1218.6,971.222 1219.52,971.222 1220.45,971.222 1221.37,971.222 1222.29,971.222 1223.21,971.222 1224.13,971.222 1225.06,971.222 1225.98,971.222 1226.9,971.222 1227.82,971.222 1228.75,971.222 1229.67,971.222 1230.59,971.222 1231.51,971.222 1232.43,971.222 1233.36,971.222 1234.28,971.222 1235.2,971.222 1236.12,971.222 1237.04,971.222 1237.97,971.222 1238.89,971.222 1239.81,971.222 1240.73,971.222 1241.65,971.222 1242.58,971.222 1243.5,971.222 1244.42,971.222 1245.34,971.222 1246.26,971.222 1247.19,971.222 1248.11,971.222 1249.03,971.222 1249.95,971.222 1250.88,971.222 1251.8,971.222 1252.72,971.222 1253.64,971.222 1254.56,971.222 1255.49,971.222 1256.41,971.222 1257.33,971.222 1258.25,971.222 1259.17,971.222 1260.1,971.222 1261.02,971.222 1261.94,971.222 1262.86,971.222 1263.78,971.222 1264.71,971.222 1265.63,971.222 1266.55,971.222 1267.47,971.222 1268.39,971.222 1269.32,971.222 1270.24,971.222 1271.16,971.222 1272.08,971.222 1273,971.222 1273.93,971.222 1274.85,971.222 1275.77,971.222 1276.69,971.222 1277.62,971.222 1278.54,971.222 1279.46,971.222 1280.38,971.222 1281.3,971.222 1282.23,971.222 1283.15,971.222 1284.07,971.222 1284.99,971.222 1285.91,971.222 1286.84,971.222 1287.76,971.222 1288.68,971.222 1289.6,971.222 1290.52,971.222 1291.45,971.222 1292.37,971.222 1293.29,971.222 1294.21,971.222 1295.13,971.222 1296.06,971.222 1296.98,971.222 1297.9,971.222 1298.82,971.222 1299.75,971.222 1300.67,971.222 1301.59,912.219 1302.51,912.219 1303.43,912.219 1304.36,912.219 1305.28,912.219 1306.2,912.219 1307.12,912.219 1308.04,912.219 1308.97,912.219 1309.89,912.219 1310.81,912.219 1311.73,912.219 1312.65,912.219 1313.58,912.219 1314.5,912.219 1315.42,912.219 1316.34,912.219 1317.26,912.219 1318.19,912.219 1319.11,912.219 1320.03,912.219 1320.95,912.219 1321.87,912.219 1322.8,912.219 1323.72,912.219 1324.64,912.219 1325.56,912.219 1326.49,912.219 1327.41,912.219 1328.33,912.219 1329.25,912.219 1330.17,912.219 1331.1,912.219 1332.02,912.219 1332.94,912.219 1333.86,912.219 1334.78,912.219 1335.71,912.219 1336.63,912.219 1337.55,912.219 1338.47,912.219 1339.39,912.219 1340.32,912.219 1341.24,912.219 1342.16,912.219 1343.08,912.219 1344,912.219 1344.93,912.219 1345.85,912.219 1346.77,912.219 1347.69,912.219 1348.62,912.219 1349.54,912.219 1350.46,912.219 1351.38,912.219 1352.3,912.219 1353.23,912.219 1354.15,912.219 1355.07,912.219 1355.99,912.219 1356.91,912.219 1357.84,912.219 1358.76,912.219 1359.68,912.219 1360.6,912.219 1361.52,912.219 1362.45,912.219 1363.37,912.219 1364.29,912.219 1365.21,912.219 1366.13,912.219 1367.06,912.219 1367.98,912.219 1368.9,912.219 1369.82,912.219 1370.74,912.219 1371.67,912.219 1372.59,912.219 1373.51,912.219 1374.43,912.219 1375.36,912.219 1376.28,912.219 1377.2,912.219 1378.12,912.219 1379.04,912.219 1379.97,912.219 1380.89,912.219 1381.81,912.219 1382.73,912.219 1383.65,912.219 1384.58,853.217 1385.5,853.217 1386.42,853.217 1387.34,853.217 1388.26,853.217 1389.19,853.217 1390.11,853.217 1391.03,853.217 1391.95,853.217 1392.87,853.217 1393.8,853.217 1394.72,853.217 1395.64,853.217 1396.56,853.217 1397.49,853.217 1398.41,853.217 1399.33,853.217 1400.25,853.217 1401.17,853.217 1402.1,853.217 1403.02,853.217 1403.94,853.217 1404.86,853.217 1405.78,853.217 1406.71,853.217 1407.63,853.217 1408.55,853.217 1409.47,853.217 1410.39,853.217 1411.32,853.217 1412.24,853.217 1413.16,853.217 1414.08,853.217 1415,853.217 1415.93,853.217 1416.85,853.217 1417.77,853.217 1418.69,853.217 1419.61,853.217 1420.54,853.217 1421.46,853.217 1422.38,853.217 1423.3,853.217 1424.23,853.217 1425.15,853.217 1426.07,853.217 1426.99,853.217 1427.91,853.217 1428.84,853.217 1429.76,853.217 1430.68,853.217 1431.6,853.217 1432.52,853.217 1433.45,853.217 1434.37,853.217 1435.29,853.217 1436.21,853.217 1437.13,853.217 1438.06,853.217 1438.98,853.217 1439.9,853.217 1440.82,853.217 1441.74,853.217 1442.67,853.217 1443.59,853.217 1444.51,853.217 1445.43,853.217 1446.36,853.217 1447.28,853.217 1448.2,853.217 1449.12,853.217 1450.04,853.217 1450.97,853.217 1451.89,853.217 1452.81,853.217 1453.73,853.217 1454.65,853.217 1455.58,853.217 1456.5,853.217 1457.42,853.217 1458.34,853.217 1459.26,853.217 1460.19,853.217 1461.11,853.217 1462.03,853.217 1462.95,853.217 1463.87,853.217 1464.8,853.217 1465.72,853.217 1466.64,853.217 1467.56,853.217 1468.49,853.217 1469.41,853.217 1470.33,853.217 1471.25,853.217 1472.17,853.217 1473.1,853.217 1474.02,853.217 1474.94,853.217 1475.86,853.217 1476.78,853.217 1477.71,853.217 1478.63,853.217 1479.55,853.217 1480.47,853.217 1481.39,853.217 1482.32,853.217 1483.24,853.217 1484.16,853.217 1485.08,853.217 1486,853.217 1486.93,853.217 1487.85,853.217 1488.77,853.217 1489.69,853.217 1490.61,853.217 1491.54,853.217 1492.46,853.217 1493.38,853.217 1494.3,853.217 1495.23,853.217 1496.15,853.217 1497.07,853.217 1497.99,853.217 1498.91,853.217 1499.84,853.217 1500.76,853.217 1501.68,853.217 1502.6,853.217 1503.52,853.217 1504.45,853.217 1505.37,853.217 1506.29,853.217 1507.21,853.217 1508.13,853.217 1509.06,853.217 1509.98,853.217 1510.9,853.217 1511.82,853.217 1512.74,853.217 1513.67,853.217 1514.59,853.217 1515.51,853.217 1516.43,853.217 1517.36,853.217 1518.28,853.217 1519.2,853.217 1520.12,853.217 1521.04,853.217 1521.97,853.217 1522.89,853.217 1523.81,853.217 1524.73,853.217 1525.65,853.217 1526.58,853.217 1527.5,853.217 1528.42,853.217 1529.34,853.217 1530.26,853.217 1531.19,853.217 1532.11,853.217 1533.03,853.217 1533.95,853.217 1534.87,853.217 1535.8,853.217 1536.72,853.217 1537.64,853.217 1538.56,853.217 1539.48,853.217 1540.41,853.217 1541.33,853.217 1542.25,853.217 1543.17,853.217 1544.1,853.217 1545.02,853.217 1545.94,853.217 1546.86,853.217 1547.78,853.217 1548.71,853.217 1549.63,853.217 1550.55,853.217 1551.47,853.217 1552.39,853.217 1553.32,853.217 1554.24,853.217 1555.16,853.217 1556.08,853.217 1557,853.217 1557.93,794.214 1558.85,794.214 1559.77,794.214 1560.69,794.214 1561.61,794.214 1562.54,794.214 1563.46,794.214 1564.38,794.214 1565.3,794.214 1566.23,794.214 1567.15,794.214 1568.07,794.214 1568.99,794.214 1569.91,735.212 1570.84,735.212 1571.76,735.212 1572.68,735.212 1573.6,735.212 1574.52,735.212 1575.45,735.212 1576.37,735.212 1577.29,735.212 1578.21,735.212 1579.13,735.212 1580.06,735.212 1580.98,735.212 1581.9,735.212 1582.82,735.212 1583.74,735.212 1584.67,735.212 1585.59,735.212 1586.51,735.212 1587.43,735.212 1588.35,735.212 1589.28,735.212 1590.2,735.212 1591.12,735.212 1592.04,735.212 1592.97,735.212 1593.89,735.212 1594.81,735.212 1595.73,735.212 1596.65,735.212 1597.58,735.212 1598.5,735.212 1599.42,735.212 1600.34,735.212 1601.26,735.212 1602.19,735.212 1603.11,735.212 1604.03,735.212 1604.95,735.212 1605.87,735.212 1606.8,735.212 1607.72,735.212 1608.64,735.212 1609.56,735.212 1610.48,735.212 1611.41,735.212 1612.33,735.212 1613.25,735.212 1614.17,735.212 1615.1,735.212 1616.02,735.212 1616.94,735.212 1617.86,735.212 1618.78,735.212 1619.71,735.212 1620.63,735.212 1621.55,735.212 1622.47,676.21 1623.39,676.21 1624.32,676.21 1625.24,676.21 1626.16,676.21 1627.08,676.21 1628,676.21 1628.93,676.21 1629.85,676.21 1630.77,676.21 1631.69,676.21 1632.61,676.21 1633.54,676.21 1634.46,676.21 1635.38,676.21 1636.3,676.21 1637.22,676.21 1638.15,676.21 1639.07,676.21 1639.99,676.21 1640.91,676.21 1641.84,676.21 1642.76,676.21 1643.68,676.21 1644.6,676.21 1645.52,676.21 1646.45,676.21 1647.37,676.21 1648.29,676.21 1649.21,676.21 1650.13,676.21 1651.06,676.21 1651.98,676.21 1652.9,676.21 1653.82,676.21 1654.74,676.21 1655.67,676.21 1656.59,676.21 1657.51,676.21 1658.43,676.21 1659.35,676.21 1660.28,676.21 1661.2,676.21 1662.12,676.21 1663.04,676.21 1663.97,676.21 1664.89,676.21 1665.81,676.21 1666.73,676.21 1667.65,676.21 1668.58,676.21 1669.5,676.21 1670.42,676.21 1671.34,676.21 1672.26,676.21 1673.19,676.21 1674.11,676.21 1675.03,676.21 1675.95,676.21 1676.87,676.21 1677.8,676.21 1678.72,617.207 1679.64,617.207 1680.56,617.207 1681.48,617.207 1682.41,617.207 1683.33,617.207 1684.25,617.207 1685.17,617.207 1686.09,617.207 1687.02,617.207 1687.94,617.207 1688.86,617.207 1689.78,617.207 1690.71,617.207 1691.63,617.207 1692.55,617.207 1693.47,617.207 1694.39,617.207 1695.32,617.207 1696.24,617.207 1697.16,617.207 1698.08,617.207 1699,617.207 1699.93,617.207 1700.85,617.207 1701.77,617.207 1702.69,617.207 1703.61,617.207 1704.54,617.207 1705.46,617.207 1706.38,617.207 1707.3,617.207 1708.22,617.207 1709.15,558.205 1710.07,558.205 1710.99,558.205 1711.91,558.205 1712.84,558.205 1713.76,558.205 1714.68,558.205 1715.6,558.205 1716.52,558.205 1717.45,558.205 1718.37,558.205 1719.29,558.205 1720.21,558.205 1721.13,558.205 1722.06,558.205 1722.98,558.205 1723.9,558.205 1724.82,558.205 1725.74,558.205 1726.67,558.205 1727.59,558.205 1728.51,558.205 1729.43,558.205 1730.35,558.205 1731.28,558.205 1732.2,558.205 1733.12,558.205 1734.04,558.205 1734.96,558.205 1735.89,558.205 1736.81,558.205 1737.73,558.205 1738.65,558.205 1739.58,558.205 1740.5,558.205 1741.42,558.205 1742.34,558.205 1743.26,558.205 1744.19,558.205 1745.11,558.205 1746.03,558.205 1746.95,558.205 1747.87,499.202 1748.8,499.202 1749.72,499.202 1750.64,499.202 1751.56,499.202 1752.48,499.202 1753.41,499.202 1754.33,499.202 1755.25,499.202 1756.17,499.202 1757.09,499.202 1758.02,499.202 1758.94,499.202 1759.86,440.2 1760.78,440.2 1761.71,440.2 1762.63,440.2 1763.55,440.2 1764.47,440.2 1765.39,440.2 1766.32,440.2 1767.24,440.2 1768.16,440.2 1769.08,440.2 1770,440.2 1770.93,440.2 1771.85,440.2 1772.77,440.2 1773.69,440.2 1774.61,440.2 1775.54,440.2 1776.46,440.2 1777.38,440.2 1778.3,440.2 1779.22,440.2 1780.15,440.2 1781.07,440.2 1781.99,440.2 1782.91,440.2 1783.84,440.2 1784.76,440.2 1785.68,440.2 1786.6,440.2 1787.52,440.2 1788.45,440.2 1789.37,440.2 1790.29,440.2 1791.21,440.2 1792.13,440.2 1793.06,440.2 1793.98,440.2 1794.9,440.2 1795.82,440.2 1796.74,440.2 1797.67,440.2 1798.59,440.2 1799.51,440.2 1800.43,440.2 1801.35,440.2 1802.28,440.2 1803.2,440.2 1804.12,440.2 1805.04,440.2 1805.96,440.2 1806.89,440.2 1807.81,440.2 1808.73,440.2 1809.65,440.2 1810.58,440.2 1811.5,440.2 1812.42,440.2 1813.34,440.2 1814.26,440.2 1815.19,440.2 1816.11,440.2 1817.03,440.2 1817.95,440.2 1818.87,440.2 1819.8,440.2 1820.72,440.2 1821.64,440.2 1822.56,440.2 1823.48,440.2 1824.41,440.2 1825.33,440.2 1826.25,440.2 1827.17,440.2 1828.09,440.2 1829.02,440.2 1829.94,440.2 1830.86,440.2 1831.78,440.2 1832.71,440.2 1833.63,440.2 1834.55,440.2 1835.47,440.2 1836.39,440.2 1837.32,440.2 1838.24,440.2 1839.16,440.2 1840.08,440.2 1841,440.2 1841.93,440.2 1842.85,440.2 1843.77,440.2 1844.69,440.2 1845.61,440.2 1846.54,440.2 1847.46,440.2 1848.38,440.2 1849.3,440.2 1850.22,440.2 1851.15,440.2 1852.07,440.2 1852.99,440.2 1853.91,440.2 1854.83,440.2 1855.76,440.2 1856.68,440.2 1857.6,440.2 1858.52,440.2 1859.45,440.2 1860.37,440.2 1861.29,440.2 1862.21,440.2 1863.13,440.2 1864.06,440.2 1864.98,440.2 1865.9,440.2 1866.82,440.2 1867.74,440.2 1868.67,440.2 1869.59,440.2 1870.51,440.2 1871.43,440.2 1872.35,440.2 1873.28,440.2 1874.2,440.2 1875.12,440.2 1876.04,440.2 1876.96,440.2 1877.89,440.2 1878.81,440.2 1879.73,440.2 1880.65,440.2 1881.58,440.2 1882.5,440.2 1883.42,440.2 1884.34,440.2 1885.26,440.2 1886.19,440.2 1887.11,440.2 1888.03,440.2 1888.95,440.2 1889.87,440.2 1890.8,440.2 1891.72,440.2 1892.64,440.2 1893.56,440.2 1894.48,440.2 1895.41,440.2 1896.33,440.2 1897.25,440.2 1898.17,440.2 1899.09,440.2 1900.02,440.2 1900.94,440.2 1901.86,440.2 1902.78,440.2 1903.7,440.2 1904.63,440.2 1905.55,440.2 1906.47,440.2 1907.39,440.2 1908.32,440.2 1909.24,440.2 1910.16,440.2 1911.08,440.2 1912,440.2 1912.93,440.2 1913.85,440.2 1914.77,440.2 1915.69,440.2 1916.61,440.2 1917.54,440.2 1918.46,440.2 1919.38,440.2 1920.3,440.2 1921.22,440.2 1922.15,440.2 1923.07,440.2 1923.99,440.2 1924.91,440.2 1925.83,440.2 1926.76,440.2 1927.68,381.198 1928.6,381.198 1929.52,381.198 1930.45,381.198 1931.37,381.198 1932.29,381.198 1933.21,381.198 1934.13,381.198 1935.06,381.198 1935.98,381.198 1936.9,381.198 1937.82,381.198 1938.74,381.198 1939.67,381.198 1940.59,381.198 1941.51,381.198 1942.43,381.198 1943.35,381.198 1944.28,381.198 1945.2,381.198 1946.12,381.198 1947.04,381.198 1947.96,381.198 1948.89,381.198 1949.81,381.198 1950.73,381.198 1951.65,381.198 1952.57,381.198 1953.5,381.198 1954.42,381.198 1955.34,381.198 1956.26,381.198 1957.19,381.198 1958.11,381.198 1959.03,381.198 1959.95,381.198 1960.87,381.198 1961.8,381.198 1962.72,381.198 1963.64,381.198 1964.56,381.198 1965.48,381.198 1966.41,381.198 1967.33,381.198 1968.25,381.198 1969.17,381.198 1970.09,381.198 1971.02,381.198 1971.94,381.198 1972.86,381.198 1973.78,381.198 1974.7,381.198 1975.63,381.198 1976.55,381.198 1977.47,381.198 1978.39,381.198 1979.32,381.198 1980.24,381.198 1981.16,381.198 1982.08,381.198 1983,381.198 1983.93,381.198 1984.85,381.198 1985.77,381.198 1986.69,381.198 1987.61,381.198 1988.54,381.198 1989.46,381.198 1990.38,381.198 1991.3,381.198 1992.22,381.198 1993.15,381.198 1994.07,381.198 1994.99,381.198 1995.91,381.198 1996.83,381.198 1997.76,381.198 1998.68,381.198 1999.6,381.198 2000.52,381.198 2001.44,381.198 2002.37,381.198 2003.29,322.195 2004.21,322.195 2005.13,322.195 2006.06,322.195 2006.98,322.195 2007.9,322.195 2008.82,322.195 2009.74,322.195 2010.67,322.195 2011.59,322.195 2012.51,322.195 2013.43,322.195 2014.35,322.195 2015.28,322.195 2016.2,322.195 2017.12,322.195 2018.04,322.195 2018.96,322.195 2019.89,322.195 2020.81,322.195 2021.73,322.195 2022.65,322.195 2023.57,322.195 2024.5,322.195 2025.42,322.195 2026.34,322.195 2027.26,322.195 2028.19,322.195 2029.11,322.195 2030.03,322.195 2030.95,322.195 2031.87,322.195 2032.8,322.195 2033.72,322.195 2034.64,322.195 2035.56,322.195 2036.48,322.195 2037.41,322.195 2038.33,322.195 2039.25,322.195 2040.17,322.195 2041.09,322.195 2042.02,322.195 2042.94,322.195 2043.86,322.195 2044.78,322.195 2045.7,322.195 2046.63,263.193 2047.55,263.193 2048.47,263.193 2049.39,263.193 2050.31,263.193 2051.24,263.193 2052.16,263.193 2053.08,263.193 2054,263.193 2054.93,263.193 2055.85,263.193 2056.77,263.193 2057.69,263.193 2058.61,263.193 2059.54,263.193 2060.46,263.193 2061.38,263.193 2062.3,263.193 2063.22,263.193 2064.15,263.193 2065.07,263.193 2065.99,263.193 2066.91,263.193 2067.83,263.193 2068.76,263.193 2069.68,263.193 2070.6,263.193 2071.52,263.193 2072.44,263.193 2073.37,263.193 2074.29,263.193 2075.21,263.193 2076.13,263.193 2077.06,263.193 2077.98,263.193 2078.9,263.193 2079.82,263.193 2080.74,263.193 2081.67,263.193 2082.59,263.193 2083.51,263.193 2084.43,263.193 2085.35,263.193 2086.28,263.193 2087.2,263.193 2088.12,263.193 2089.04,263.193 2089.96,263.193 2090.89,263.193 2091.81,263.193 2092.73,263.193 2093.65,263.193 2094.57,263.193 2095.5,263.193 2096.42,263.193 2097.34,263.193 2098.26,263.193 2099.19,263.193 2100.11,263.193 2101.03,263.193 2101.95,263.193 2102.87,263.193 2103.8,263.193 2104.72,263.193 2105.64,263.193 2106.56,263.193 2107.48,263.193 2108.41,263.193 2109.33,263.193 2110.25,263.193 2111.17,263.193 2112.09,263.193 2113.02,263.193 2113.94,263.193 2114.86,263.193 2115.78,263.193 2116.7,263.193 2117.63,263.193 2118.55,263.193 2119.47,263.193 2120.39,263.193 2121.31,263.193 2122.24,263.193 2123.16,263.193 2124.08,263.193 2125,263.193 2125.93,263.193 2126.85,263.193 2127.77,263.193 2128.69,263.193 2129.61,263.193 2130.54,263.193 2131.46,263.193 2132.38,263.193 2133.3,263.193 2134.22,263.193 2135.15,263.193 2136.07,263.193 2136.99,204.19 2137.91,204.19 2138.83,204.19 2139.76,204.19 2140.68,204.19 2141.6,204.19 2142.52,204.19 2143.44,204.19 2144.37,204.19 2145.29,204.19 2146.21,204.19 2147.13,204.19 2148.06,204.19 2148.98,204.19 2149.9,204.19 2150.82,204.19 2151.74,204.19 2152.67,204.19 2153.59,204.19 2154.51,204.19 2155.43,204.19 2156.35,204.19 2157.28,204.19 2158.2,204.19 2159.12,204.19 2160.04,204.19 2160.96,204.19 2161.89,204.19 2162.81,204.19 2163.73,204.19 2164.65,204.19 2165.57,204.19 2166.5,204.19 2167.42,204.19 2168.34,204.19 2169.26,204.19 2170.18,204.19 2171.11,204.19 2172.03,204.19 2172.95,204.19 2173.87,204.19 2174.8,204.19 2175.72,204.19 2176.64,204.19 2177.56,204.19 2178.48,204.19 2179.41,204.19 2180.33,204.19 2181.25,204.19 2182.17,204.19 2183.09,204.19 2184.02,204.19 2184.94,204.19 2185.86,204.19 2186.78,204.19 2187.7,204.19 2188.63,204.19 2189.55,204.19 2190.47,204.19 2191.39,204.19 2192.31,204.19 2193.24,204.19 2194.16,204.19 2195.08,204.19 2196,204.19 2196.93,204.19 2197.85,145.188 2198.77,145.188 2199.69,145.188 2200.61,145.188 2201.54,145.188 2202.46,145.188 2203.38,145.188 2204.3,145.188 2205.22,145.188 2206.15,145.188 2207.07,145.188 2207.99,145.188 2208.91,145.188 2209.83,145.188 2210.76,145.188 2211.68,145.188 2212.6,145.188 2213.52,145.188 2214.44,145.188 2215.37,145.188 2216.29,145.188 2217.21,145.188 2218.13,145.188 2219.05,145.188 2219.98,145.188 2220.9,145.188 2221.82,145.188 2222.74,145.188 2223.67,145.188 2224.59,145.188 2225.51,145.188 2226.43,145.188 2227.35,145.188 2228.28,145.188 2229.2,145.188 2230.12,145.188 2231.04,145.188 2231.96,145.188 2232.89,145.188 2233.81,145.188 2234.73,145.188 2235.65,145.188 2236.57,145.188 2237.5,145.188 2238.42,145.188 2239.34,145.188 2240.26,145.188 2241.18,145.188 2242.11,145.188 2243.03,145.188 2243.95,145.188 2244.87,145.188 2245.8,145.188 2246.72,145.188 2247.64,145.188 2248.56,145.188 2249.48,145.188 2250.41,145.188 2251.33,145.188 2252.25,145.188 2253.17,145.188 2254.09,145.188 2255.02,145.188 2255.94,145.188 2256.86,145.188 2257.78,145.188 2258.7,145.188 2259.63,145.188 2260.55,145.188 2261.47,145.188 2262.39,145.188 2263.31,145.188 2264.24,145.188 2265.16,145.188 2266.08,145.188 2267,145.188 2267.92,145.188 2268.85,145.188 2269.77,145.188 2270.69,145.188 2271.61,145.188 2272.54,145.188 2273.46,145.188 2274.38,145.188 2275.3,145.188 2276.22,145.188 2277.15,145.188 2278.07,145.188 2278.99,145.188 2279.91,145.188 2280.83,145.188 2281.76,145.188 2282.68,145.188 2283.6,145.188 2284.52,145.188 2285.44,145.188 2286.37,145.188 2287.29,145.188 2288.21,145.188 2289.13,145.188 2290.05,145.188 2290.98,145.188 2291.9,145.188 2292.82,145.188 2293.74,145.188 2294.67,145.188 2295.59,145.188 2296.51,145.188 2297.43,145.188 2298.35,145.188 2299.28,145.188 2300.2,145.188 2301.12,145.188 2302.04,145.188 2302.96,145.188 2303.89,145.188 2304.81,145.188 2305.73,145.188 2306.65,145.188 2307.57,145.188 2308.5,145.188 2309.42,145.188 2310.34,145.188 2311.26,145.188 2312.18,145.188 2313.11,145.188 2314.03,145.188 2314.95,145.188 2315.87,145.188 2316.79,145.188 2317.72,145.188 2318.64,145.188 2319.56,145.188 2320.48,145.188 2321.41,145.188 2322.33,145.188 2323.25,145.188 2324.17,145.188 2325.09,145.188 2326.02,145.188 2326.94,145.188 2327.86,145.188 2328.78,145.188 2329.7,145.188 2330.63,145.188 2331.55,145.188 2332.47,145.188 2333.39,145.188 2334.31,145.188 2335.24,145.188 2336.16,145.188 2337.08,145.188 2338,86.1857 2338.92,86.1857 2339.85,86.1857 2340.77,86.1857 2341.69,86.1857 2342.61,86.1857 2343.54,86.1857 2344.46,86.1857 2345.38,86.1857 2346.3,86.1857 2347.22,86.1857 2348.15,86.1857 2349.07,86.1857 2349.99,86.1857 2350.91,86.1857 2351.83,86.1857 2352.76,86.1857 "/>
<path clip-path="url(#clip230)" d="M1975.5 1377.32 L2279.02 1377.32 L2279.02 1273.64 L1975.5 1273.64  Z" fill="#ffffff" fill-rule="evenodd" fill-opacity="1"/>
<polyline clip-path="url(#clip230)" style="stroke:#000000; stroke-linecap:round; stroke-linejoin:round; stroke-width:4; stroke-opacity:1; fill:none" points="1975.5,1377.32 2279.02,1377.32 2279.02,1273.64 1975.5,1273.64 1975.5,1377.32 "/>
<polyline clip-path="url(#clip230)" style="stroke:#009af9; stroke-linecap:round; stroke-linejoin:round; stroke-width:8; stroke-opacity:1; fill:none" points="2000.08,1325.48 2147.55,1325.48 "/>
<path clip-path="url(#clip230)" d="M2172.13 1308.2 L2178.42 1308.2 L2193.75 1337.11 L2193.75 1308.2 L2198.29 1308.2 L2198.29 1342.76 L2191.99 1342.76 L2176.66 1313.84 L2176.66 1342.76 L2172.13 1342.76 L2172.13 1308.2 Z" fill="#000000" fill-rule="nonzero" fill-opacity="1" /><path clip-path="url(#clip230)" d="M2217.64 1306.78 Q2214.53 1312.11 2213.03 1317.32 Q2211.53 1322.52 2211.53 1327.87 Q2211.53 1333.22 2213.03 1338.47 Q2214.56 1343.7 2217.64 1349.01 L2213.93 1349.01 Q2210.46 1343.57 2208.72 1338.31 Q2207.01 1333.06 2207.01 1327.87 Q2207.01 1322.71 2208.72 1317.48 Q2210.44 1312.25 2213.93 1306.78 L2217.64 1306.78 Z" fill="#000000" fill-rule="nonzero" fill-opacity="1" /><path clip-path="url(#clip230)" d="M2230.11 1309.47 L2230.11 1316.83 L2238.89 1316.83 L2238.89 1320.14 L2230.11 1320.14 L2230.11 1334.21 Q2230.11 1337.38 2230.97 1338.29 Q2231.85 1339.19 2234.51 1339.19 L2238.89 1339.19 L2238.89 1342.76 L2234.51 1342.76 Q2229.58 1342.76 2227.71 1340.93 Q2225.83 1339.07 2225.83 1334.21 L2225.83 1320.14 L2222.71 1320.14 L2222.71 1316.83 L2225.83 1316.83 L2225.83 1309.47 L2230.11 1309.47 Z" fill="#000000" fill-rule="nonzero" fill-opacity="1" /><path clip-path="url(#clip230)" d="M2243.82 1306.78 L2247.52 1306.78 Q2250.99 1312.25 2252.71 1317.48 Q2254.44 1322.71 2254.44 1327.87 Q2254.44 1333.06 2252.71 1338.31 Q2250.99 1343.57 2247.52 1349.01 L2243.82 1349.01 Q2246.9 1343.7 2248.4 1338.47 Q2249.93 1333.22 2249.93 1327.87 Q2249.93 1322.52 2248.4 1317.32 Q2246.9 1312.11 2243.82 1306.78 Z" fill="#000000" fill-rule="nonzero" fill-opacity="1" /></svg>
