<?xml version="1.0" encoding="utf-8"?>
<svg xmlns="http://www.w3.org/2000/svg" xmlns:xlink="http://www.w3.org/1999/xlink" width="600" height="400" viewBox="0 0 2400 1600">
<defs>
  <clipPath id="clip690">
    <rect x="0" y="0" width="2400" height="1600"/>
  </clipPath>
</defs>
<path clip-path="url(#clip690)" d="M0 1600 L2400 1600 L2400 0 L0 0  Z" fill="#ffffff" fill-rule="evenodd" fill-opacity="1"/>
<defs>
  <clipPath id="clip691">
    <rect x="480" y="0" width="1681" height="1600"/>
  </clipPath>
</defs>
<path clip-path="url(#clip690)" d="M148.057 1423.18 L2352.76 1423.18 L2352.76 47.2441 L148.057 47.2441  Z" fill="#ffffff" fill-rule="evenodd" fill-opacity="1"/>
<defs>
  <clipPath id="clip692">
    <rect x="148" y="47" width="2206" height="1377"/>
  </clipPath>
</defs>
<polyline clip-path="url(#clip692)" style="stroke:#000000; stroke-linecap:round; stroke-linejoin:round; stroke-width:2; stroke-opacity:0.1; fill:none" points="148.057,1423.18 148.057,47.2441 "/>
<polyline clip-path="url(#clip692)" style="stroke:#000000; stroke-linecap:round; stroke-linejoin:round; stroke-width:2; stroke-opacity:0.1; fill:none" points="588.996,1423.18 588.996,47.2441 "/>
<polyline clip-path="url(#clip692)" style="stroke:#000000; stroke-linecap:round; stroke-linejoin:round; stroke-width:2; stroke-opacity:0.1; fill:none" points="1029.94,1423.18 1029.94,47.2441 "/>
<polyline clip-path="url(#clip692)" style="stroke:#000000; stroke-linecap:round; stroke-linejoin:round; stroke-width:2; stroke-opacity:0.1; fill:none" points="1470.88,1423.18 1470.88,47.2441 "/>
<polyline clip-path="url(#clip692)" style="stroke:#000000; stroke-linecap:round; stroke-linejoin:round; stroke-width:2; stroke-opacity:0.1; fill:none" points="1911.82,1423.18 1911.82,47.2441 "/>
<polyline clip-path="url(#clip692)" style="stroke:#000000; stroke-linecap:round; stroke-linejoin:round; stroke-width:2; stroke-opacity:0.1; fill:none" points="2352.76,1423.18 2352.76,47.2441 "/>
<polyline clip-path="url(#clip690)" style="stroke:#000000; stroke-linecap:round; stroke-linejoin:round; stroke-width:4; stroke-opacity:1; fill:none" points="148.057,1423.18 2352.76,1423.18 "/>
<polyline clip-path="url(#clip690)" style="stroke:#000000; stroke-linecap:round; stroke-linejoin:round; stroke-width:4; stroke-opacity:1; fill:none" points="148.057,1423.18 148.057,1404.28 "/>
<polyline clip-path="url(#clip690)" style="stroke:#000000; stroke-linecap:round; stroke-linejoin:round; stroke-width:4; stroke-opacity:1; fill:none" points="588.996,1423.18 588.996,1404.28 "/>
<polyline clip-path="url(#clip690)" style="stroke:#000000; stroke-linecap:round; stroke-linejoin:round; stroke-width:4; stroke-opacity:1; fill:none" points="1029.94,1423.18 1029.94,1404.28 "/>
<polyline clip-path="url(#clip690)" style="stroke:#000000; stroke-linecap:round; stroke-linejoin:round; stroke-width:4; stroke-opacity:1; fill:none" points="1470.88,1423.18 1470.88,1404.28 "/>
<polyline clip-path="url(#clip690)" style="stroke:#000000; stroke-linecap:round; stroke-linejoin:round; stroke-width:4; stroke-opacity:1; fill:none" points="1911.82,1423.18 1911.82,1404.28 "/>
<polyline clip-path="url(#clip690)" style="stroke:#000000; stroke-linecap:round; stroke-linejoin:round; stroke-width:4; stroke-opacity:1; fill:none" points="2352.76,1423.18 2352.76,1404.28 "/>
<path clip-path="url(#clip690)" d="M148.057 1454.1 Q144.446 1454.1 142.617 1457.66 Q140.811 1461.2 140.811 1468.33 Q140.811 1475.44 142.617 1479.01 Q144.446 1482.55 148.057 1482.55 Q151.691 1482.55 153.496 1479.01 Q155.325 1475.44 155.325 1468.33 Q155.325 1461.2 153.496 1457.66 Q151.691 1454.1 148.057 1454.1 M148.057 1450.39 Q153.867 1450.39 156.922 1455 Q160.001 1459.58 160.001 1468.33 Q160.001 1477.06 156.922 1481.67 Q153.867 1486.25 148.057 1486.25 Q142.246 1486.25 139.168 1481.67 Q136.112 1477.06 136.112 1468.33 Q136.112 1459.58 139.168 1455 Q142.246 1450.39 148.057 1450.39 Z" fill="#000000" fill-rule="nonzero" fill-opacity="1" /><path clip-path="url(#clip690)" d="M583.649 1481.64 L599.969 1481.64 L599.969 1485.58 L578.024 1485.58 L578.024 1481.64 Q580.686 1478.89 585.27 1474.26 Q589.876 1469.61 591.057 1468.27 Q593.302 1465.74 594.182 1464.01 Q595.084 1462.25 595.084 1460.56 Q595.084 1457.8 593.14 1456.07 Q591.219 1454.33 588.117 1454.33 Q585.918 1454.33 583.464 1455.09 Q581.034 1455.86 578.256 1457.41 L578.256 1452.69 Q581.08 1451.55 583.534 1450.97 Q585.987 1450.39 588.024 1450.39 Q593.395 1450.39 596.589 1453.08 Q599.783 1455.77 599.783 1460.26 Q599.783 1462.39 598.973 1464.31 Q598.186 1466.2 596.08 1468.8 Q595.501 1469.47 592.399 1472.69 Q589.297 1475.88 583.649 1481.64 Z" fill="#000000" fill-rule="nonzero" fill-opacity="1" /><path clip-path="url(#clip690)" d="M1032.95 1455.09 L1021.14 1473.54 L1032.95 1473.54 L1032.95 1455.09 M1031.72 1451.02 L1037.6 1451.02 L1037.6 1473.54 L1042.53 1473.54 L1042.53 1477.43 L1037.6 1477.43 L1037.6 1485.58 L1032.95 1485.58 L1032.95 1477.43 L1017.34 1477.43 L1017.34 1472.92 L1031.72 1451.02 Z" fill="#000000" fill-rule="nonzero" fill-opacity="1" /><path clip-path="url(#clip690)" d="M1471.28 1466.44 Q1468.13 1466.44 1466.28 1468.59 Q1464.45 1470.74 1464.45 1474.49 Q1464.45 1478.22 1466.28 1480.39 Q1468.13 1482.55 1471.28 1482.55 Q1474.43 1482.55 1476.26 1480.39 Q1478.11 1478.22 1478.11 1474.49 Q1478.11 1470.74 1476.26 1468.59 Q1474.43 1466.44 1471.28 1466.44 M1480.56 1451.78 L1480.56 1456.04 Q1478.8 1455.21 1477 1454.77 Q1475.22 1454.33 1473.46 1454.33 Q1468.83 1454.33 1466.37 1457.45 Q1463.94 1460.58 1463.6 1466.9 Q1464.96 1464.89 1467.02 1463.82 Q1469.08 1462.73 1471.56 1462.73 Q1476.77 1462.73 1479.78 1465.9 Q1482.81 1469.05 1482.81 1474.49 Q1482.81 1479.82 1479.66 1483.03 Q1476.51 1486.25 1471.28 1486.25 Q1465.29 1486.25 1462.11 1481.67 Q1458.94 1477.06 1458.94 1468.33 Q1458.94 1460.14 1462.83 1455.28 Q1466.72 1450.39 1473.27 1450.39 Q1475.03 1450.39 1476.81 1450.74 Q1478.62 1451.09 1480.56 1451.78 Z" fill="#000000" fill-rule="nonzero" fill-opacity="1" /><path clip-path="url(#clip690)" d="M1911.82 1469.17 Q1908.48 1469.17 1906.56 1470.95 Q1904.66 1472.73 1904.66 1475.86 Q1904.66 1478.98 1906.56 1480.77 Q1908.48 1482.55 1911.82 1482.55 Q1915.15 1482.55 1917.07 1480.77 Q1918.99 1478.96 1918.99 1475.86 Q1918.99 1472.73 1917.07 1470.95 Q1915.17 1469.17 1911.82 1469.17 M1907.14 1467.18 Q1904.13 1466.44 1902.44 1464.38 Q1900.77 1462.32 1900.77 1459.35 Q1900.77 1455.21 1903.71 1452.8 Q1906.68 1450.39 1911.82 1450.39 Q1916.98 1450.39 1919.92 1452.8 Q1922.86 1455.21 1922.86 1459.35 Q1922.86 1462.32 1921.17 1464.38 Q1919.5 1466.44 1916.52 1467.18 Q1919.89 1467.96 1921.77 1470.26 Q1923.67 1472.55 1923.67 1475.86 Q1923.67 1480.88 1920.59 1483.57 Q1917.53 1486.25 1911.82 1486.25 Q1906.1 1486.25 1903.02 1483.57 Q1899.96 1480.88 1899.96 1475.86 Q1899.96 1472.55 1901.86 1470.26 Q1903.76 1467.96 1907.14 1467.18 M1905.43 1459.79 Q1905.43 1462.48 1907.09 1463.98 Q1908.78 1465.49 1911.82 1465.49 Q1914.83 1465.49 1916.52 1463.98 Q1918.23 1462.48 1918.23 1459.79 Q1918.23 1457.11 1916.52 1455.6 Q1914.83 1454.1 1911.82 1454.1 Q1908.78 1454.1 1907.09 1455.6 Q1905.43 1457.11 1905.43 1459.79 Z" fill="#000000" fill-rule="nonzero" fill-opacity="1" /><path clip-path="url(#clip690)" d="M2327.44 1481.64 L2335.08 1481.64 L2335.08 1455.28 L2326.77 1456.95 L2326.77 1452.69 L2335.04 1451.02 L2339.71 1451.02 L2339.71 1481.64 L2347.35 1481.64 L2347.35 1485.58 L2327.44 1485.58 L2327.44 1481.64 Z" fill="#000000" fill-rule="nonzero" fill-opacity="1" /><path clip-path="url(#clip690)" d="M2366.8 1454.1 Q2363.18 1454.1 2361.36 1457.66 Q2359.55 1461.2 2359.55 1468.33 Q2359.55 1475.44 2361.36 1479.01 Q2363.18 1482.55 2366.8 1482.55 Q2370.43 1482.55 2372.23 1479.01 Q2374.06 1475.44 2374.06 1468.33 Q2374.06 1461.2 2372.23 1457.66 Q2370.43 1454.1 2366.8 1454.1 M2366.8 1450.39 Q2372.61 1450.39 2375.66 1455 Q2378.74 1459.58 2378.74 1468.33 Q2378.74 1477.06 2375.66 1481.67 Q2372.61 1486.25 2366.8 1486.25 Q2360.99 1486.25 2357.91 1481.67 Q2354.85 1477.06 2354.85 1468.33 Q2354.85 1459.58 2357.91 1455 Q2360.99 1450.39 2366.8 1450.39 Z" fill="#000000" fill-rule="nonzero" fill-opacity="1" /><path clip-path="url(#clip690)" d="M1249.47 1522.27 L1249.47 1532.4 L1261.53 1532.4 L1261.53 1536.95 L1249.47 1536.95 L1249.47 1556.3 Q1249.47 1560.66 1250.64 1561.9 Q1251.85 1563.14 1255.51 1563.14 L1261.53 1563.14 L1261.53 1568.04 L1255.51 1568.04 Q1248.74 1568.04 1246.16 1565.53 Q1243.58 1562.98 1243.58 1556.3 L1243.58 1536.95 L1239.28 1536.95 L1239.28 1532.4 L1243.58 1532.4 L1243.58 1522.27 L1249.47 1522.27 Z" fill="#000000" fill-rule="nonzero" fill-opacity="1" /><polyline clip-path="url(#clip692)" style="stroke:#000000; stroke-linecap:round; stroke-linejoin:round; stroke-width:2; stroke-opacity:0.1; fill:none" points="148.057,1217.11 2352.76,1217.11 "/>
<polyline clip-path="url(#clip692)" style="stroke:#000000; stroke-linecap:round; stroke-linejoin:round; stroke-width:2; stroke-opacity:0.1; fill:none" points="148.057,974.77 2352.76,974.77 "/>
<polyline clip-path="url(#clip692)" style="stroke:#000000; stroke-linecap:round; stroke-linejoin:round; stroke-width:2; stroke-opacity:0.1; fill:none" points="148.057,732.429 2352.76,732.429 "/>
<polyline clip-path="url(#clip692)" style="stroke:#000000; stroke-linecap:round; stroke-linejoin:round; stroke-width:2; stroke-opacity:0.1; fill:none" points="148.057,490.088 2352.76,490.088 "/>
<polyline clip-path="url(#clip692)" style="stroke:#000000; stroke-linecap:round; stroke-linejoin:round; stroke-width:2; stroke-opacity:0.1; fill:none" points="148.057,247.747 2352.76,247.747 "/>
<polyline clip-path="url(#clip690)" style="stroke:#000000; stroke-linecap:round; stroke-linejoin:round; stroke-width:4; stroke-opacity:1; fill:none" points="148.057,1423.18 148.057,47.2441 "/>
<polyline clip-path="url(#clip690)" style="stroke:#000000; stroke-linecap:round; stroke-linejoin:round; stroke-width:4; stroke-opacity:1; fill:none" points="148.057,1217.11 166.954,1217.11 "/>
<polyline clip-path="url(#clip690)" style="stroke:#000000; stroke-linecap:round; stroke-linejoin:round; stroke-width:4; stroke-opacity:1; fill:none" points="148.057,974.77 166.954,974.77 "/>
<polyline clip-path="url(#clip690)" style="stroke:#000000; stroke-linecap:round; stroke-linejoin:round; stroke-width:4; stroke-opacity:1; fill:none" points="148.057,732.429 166.954,732.429 "/>
<polyline clip-path="url(#clip690)" style="stroke:#000000; stroke-linecap:round; stroke-linejoin:round; stroke-width:4; stroke-opacity:1; fill:none" points="148.057,490.088 166.954,490.088 "/>
<polyline clip-path="url(#clip690)" style="stroke:#000000; stroke-linecap:round; stroke-linejoin:round; stroke-width:4; stroke-opacity:1; fill:none" points="148.057,247.747 166.954,247.747 "/>
<path clip-path="url(#clip690)" d="M50.9921 1217.56 L80.6679 1217.56 L80.6679 1221.5 L50.9921 1221.5 L50.9921 1217.56 Z" fill="#000000" fill-rule="nonzero" fill-opacity="1" /><path clip-path="url(#clip690)" d="M104.927 1215.76 Q108.283 1216.48 110.158 1218.74 Q112.057 1221.01 112.057 1224.35 Q112.057 1229.46 108.538 1232.26 Q105.02 1235.06 98.5382 1235.06 Q96.3623 1235.06 94.0475 1234.62 Q91.7558 1234.21 89.3021 1233.35 L89.3021 1228.84 Q91.2465 1229.97 93.5613 1230.55 Q95.8761 1231.13 98.3993 1231.13 Q102.797 1231.13 105.089 1229.39 Q107.404 1227.66 107.404 1224.35 Q107.404 1221.29 105.251 1219.58 Q103.121 1217.84 99.3021 1217.84 L95.2743 1217.84 L95.2743 1214 L99.4872 1214 Q102.936 1214 104.765 1212.63 Q106.594 1211.24 106.594 1208.65 Q106.594 1205.99 104.696 1204.58 Q102.821 1203.14 99.3021 1203.14 Q97.3808 1203.14 95.1817 1203.56 Q92.9826 1203.98 90.3438 1204.85 L90.3438 1200.69 Q93.0058 1199.95 95.3206 1199.58 Q97.6585 1199.21 99.7187 1199.21 Q105.043 1199.21 108.145 1201.64 Q111.246 1204.04 111.246 1208.16 Q111.246 1211.04 109.603 1213.03 Q107.959 1214.99 104.927 1215.76 Z" fill="#000000" fill-rule="nonzero" fill-opacity="1" /><path clip-path="url(#clip690)" d="M100.112 960.569 Q96.5011 960.569 94.6724 964.134 Q92.8669 967.676 92.8669 974.805 Q92.8669 981.912 94.6724 985.476 Q96.5011 989.018 100.112 989.018 Q103.746 989.018 105.552 985.476 Q107.381 981.912 107.381 974.805 Q107.381 967.676 105.552 964.134 Q103.746 960.569 100.112 960.569 M100.112 956.865 Q105.922 956.865 108.978 961.472 Q112.057 966.055 112.057 974.805 Q112.057 983.532 108.978 988.138 Q105.922 992.722 100.112 992.722 Q94.3021 992.722 91.2234 988.138 Q88.1679 983.532 88.1679 974.805 Q88.1679 966.055 91.2234 961.472 Q94.3021 956.865 100.112 956.865 Z" fill="#000000" fill-rule="nonzero" fill-opacity="1" /><path clip-path="url(#clip690)" d="M104.927 731.075 Q108.283 731.793 110.158 734.061 Q112.057 736.33 112.057 739.663 Q112.057 744.779 108.538 747.579 Q105.02 750.38 98.5382 750.38 Q96.3623 750.38 94.0475 749.941 Q91.7558 749.524 89.3021 748.667 L89.3021 744.154 Q91.2465 745.288 93.5613 745.867 Q95.8761 746.445 98.3993 746.445 Q102.797 746.445 105.089 744.709 Q107.404 742.973 107.404 739.663 Q107.404 736.607 105.251 734.894 Q103.121 733.158 99.3021 733.158 L95.2743 733.158 L95.2743 729.316 L99.4872 729.316 Q102.936 729.316 104.765 727.95 Q106.594 726.561 106.594 723.968 Q106.594 721.306 104.696 719.894 Q102.821 718.459 99.3021 718.459 Q97.3808 718.459 95.1817 718.876 Q92.9826 719.293 90.3438 720.172 L90.3438 716.006 Q93.0058 715.265 95.3206 714.894 Q97.6585 714.524 99.7187 714.524 Q105.043 714.524 108.145 716.955 Q111.246 719.362 111.246 723.482 Q111.246 726.353 109.603 728.343 Q107.959 730.311 104.927 731.075 Z" fill="#000000" fill-rule="nonzero" fill-opacity="1" /><path clip-path="url(#clip690)" d="M100.529 488.224 Q97.3808 488.224 95.5289 490.377 Q93.7002 492.53 93.7002 496.28 Q93.7002 500.007 95.5289 502.183 Q97.3808 504.335 100.529 504.335 Q103.677 504.335 105.506 502.183 Q107.358 500.007 107.358 496.28 Q107.358 492.53 105.506 490.377 Q103.677 488.224 100.529 488.224 M109.811 473.572 L109.811 477.831 Q108.052 476.998 106.246 476.558 Q104.464 476.118 102.705 476.118 Q98.0752 476.118 95.6215 479.243 Q93.191 482.368 92.8438 488.687 Q94.2095 486.673 96.2697 485.609 Q98.3298 484.521 100.807 484.521 Q106.015 484.521 109.024 487.692 Q112.057 490.84 112.057 496.28 Q112.057 501.604 108.908 504.822 Q105.76 508.039 100.529 508.039 Q94.5336 508.039 91.3623 503.456 Q88.191 498.849 88.191 490.123 Q88.191 481.928 92.0799 477.067 Q95.9687 472.183 102.52 472.183 Q104.279 472.183 106.061 472.53 Q107.867 472.877 109.811 473.572 Z" fill="#000000" fill-rule="nonzero" fill-opacity="1" /><path clip-path="url(#clip690)" d="M90.4364 264.309 L90.4364 260.05 Q92.1956 260.883 94.0012 261.323 Q95.8067 261.763 97.5428 261.763 Q102.172 261.763 104.603 258.661 Q107.057 255.536 107.404 249.193 Q106.061 251.184 104.001 252.249 Q101.941 253.314 99.4409 253.314 Q94.2558 253.314 91.2234 250.189 Q88.2141 247.041 88.2141 241.601 Q88.2141 236.277 91.3623 233.059 Q94.5104 229.842 99.7419 229.842 Q105.737 229.842 108.885 234.448 Q112.057 239.031 112.057 247.781 Q112.057 255.953 108.168 260.837 Q104.302 265.698 97.7511 265.698 Q95.9919 265.698 94.1863 265.351 Q92.3808 265.003 90.4364 264.309 M99.7419 249.656 Q102.89 249.656 104.719 247.503 Q106.571 245.351 106.571 241.601 Q106.571 237.874 104.719 235.721 Q102.89 233.545 99.7419 233.545 Q96.5937 233.545 94.7419 235.721 Q92.9132 237.874 92.9132 241.601 Q92.9132 245.351 94.7419 247.503 Q96.5937 249.656 99.7419 249.656 Z" fill="#000000" fill-rule="nonzero" fill-opacity="1" /><polyline clip-path="url(#clip692)" style="stroke:#009af9; stroke-linecap:round; stroke-linejoin:round; stroke-width:8; stroke-opacity:1; fill:none" points="148.057,974.77 150.264,974.77 152.47,974.77 154.677,974.77 156.884,974.77 159.091,974.77 161.298,974.77 163.505,974.77 165.712,974.77 167.919,974.77 170.126,974.77 172.333,974.77 174.539,974.77 176.746,974.77 178.953,974.77 181.16,974.77 183.367,974.77 185.574,974.77 187.781,974.77 189.988,974.77 192.195,974.77 194.402,974.77 196.609,974.77 198.815,974.77 201.022,974.77 203.229,974.77 205.436,974.77 207.643,974.77 209.85,974.77 212.057,974.77 214.264,974.77 216.471,974.77 218.678,974.77 220.885,974.77 223.091,974.77 225.298,974.77 227.505,974.77 229.712,974.77 231.919,974.77 234.126,974.77 236.333,974.77 238.54,974.77 240.747,974.77 242.954,974.77 245.16,974.77 247.367,974.77 249.574,974.77 251.781,974.77 253.988,974.77 256.195,974.77 258.402,974.77 260.609,974.77 262.816,974.77 265.023,974.77 267.23,974.77 269.436,974.77 271.643,974.77 273.85,974.77 276.057,974.77 278.264,974.77 280.471,974.77 282.678,974.77 284.885,974.77 287.092,974.77 289.299,974.77 291.506,974.77 293.712,893.99 295.919,893.99 298.126,893.99 300.333,893.99 302.54,893.99 304.747,893.99 306.954,893.99 309.161,893.99 311.368,893.99 313.575,893.99 315.781,893.99 317.988,893.99 320.195,893.99 322.402,893.99 324.609,893.99 326.816,893.99 329.023,893.99 331.23,893.99 333.437,893.99 335.644,893.99 337.851,893.99 340.057,893.99 342.264,893.99 344.471,813.21 346.678,813.21 348.885,813.21 351.092,813.21 353.299,813.21 355.506,813.21 357.713,813.21 359.92,813.21 362.127,813.21 364.333,813.21 366.54,813.21 368.747,813.21 370.954,813.21 373.161,813.21 375.368,813.21 377.575,813.21 379.782,813.21 381.989,813.21 384.196,813.21 386.402,813.21 388.609,813.21 390.816,732.429 393.023,732.429 395.23,732.429 397.437,732.429 399.644,732.429 401.851,732.429 404.058,732.429 406.265,732.429 408.472,732.429 410.678,732.429 412.885,732.429 415.092,732.429 417.299,732.429 419.506,732.429 421.713,732.429 423.92,732.429 426.127,732.429 428.334,732.429 430.541,732.429 432.748,732.429 434.954,732.429 437.161,813.21 439.368,813.21 441.575,813.21 443.782,813.21 445.989,813.21 448.196,813.21 450.403,813.21 452.61,813.21 454.817,813.21 457.023,813.21 459.23,813.21 461.437,813.21 463.644,813.21 465.851,813.21 468.058,813.21 470.265,813.21 472.472,813.21 474.679,813.21 476.886,813.21 479.093,813.21 481.299,813.21 483.506,813.21 485.713,813.21 487.92,813.21 490.127,813.21 492.334,813.21 494.541,813.21 496.748,813.21 498.955,813.21 501.162,813.21 503.369,813.21 505.575,813.21 507.782,813.21 509.989,813.21 512.196,813.21 514.403,813.21 516.61,813.21 518.817,813.21 521.024,813.21 523.231,813.21 525.438,813.21 527.644,813.21 529.851,813.21 532.058,813.21 534.265,813.21 536.472,813.21 538.679,813.21 540.886,813.21 543.093,813.21 545.3,813.21 547.507,813.21 549.714,813.21 551.92,813.21 554.127,813.21 556.334,813.21 558.541,813.21 560.748,813.21 562.955,813.21 565.162,813.21 567.369,813.21 569.576,813.21 571.783,813.21 573.99,813.21 576.196,813.21 578.403,813.21 580.61,813.21 582.817,813.21 585.024,813.21 587.231,813.21 589.438,813.21 591.645,813.21 593.852,813.21 596.059,813.21 598.265,813.21 600.472,813.21 602.679,813.21 604.886,813.21 607.093,813.21 609.3,813.21 611.507,813.21 613.714,813.21 615.921,813.21 618.128,813.21 620.335,813.21 622.541,813.21 624.748,813.21 626.955,813.21 629.162,813.21 631.369,813.21 633.576,813.21 635.783,813.21 637.99,813.21 640.197,813.21 642.404,893.99 644.611,893.99 646.817,893.99 649.024,893.99 651.231,893.99 653.438,893.99 655.645,893.99 657.852,893.99 660.059,893.99 662.266,893.99 664.473,893.99 666.68,893.99 668.886,893.99 671.093,893.99 673.3,893.99 675.507,893.99 677.714,893.99 679.921,893.99 682.128,893.99 684.335,893.99 686.542,893.99 688.749,893.99 690.956,893.99 693.162,893.99 695.369,893.99 697.576,893.99 699.783,893.99 701.99,893.99 704.197,893.99 706.404,893.99 708.611,893.99 710.818,893.99 713.025,893.99 715.232,893.99 717.438,893.99 719.645,893.99 721.852,893.99 724.059,893.99 726.266,893.99 728.473,893.99 730.68,893.99 732.887,893.99 735.094,893.99 737.301,893.99 739.507,893.99 741.714,893.99 743.921,893.99 746.128,893.99 748.335,893.99 750.542,893.99 752.749,893.99 754.956,893.99 757.163,893.99 759.37,893.99 761.577,893.99 763.783,893.99 765.99,893.99 768.197,893.99 770.404,893.99 772.611,893.99 774.818,893.99 777.025,893.99 779.232,893.99 781.439,893.99 783.646,893.99 785.853,893.99 788.059,893.99 790.266,893.99 792.473,893.99 794.68,893.99 796.887,893.99 799.094,893.99 801.301,893.99 803.508,893.99 805.715,893.99 807.922,893.99 810.128,893.99 812.335,893.99 814.542,893.99 816.749,893.99 818.956,893.99 821.163,893.99 823.37,893.99 825.577,893.99 827.784,893.99 829.991,893.99 832.198,893.99 834.404,893.99 836.611,893.99 838.818,893.99 841.025,893.99 843.232,893.99 845.439,893.99 847.646,893.99 849.853,893.99 852.06,893.99 854.267,893.99 856.474,893.99 858.68,893.99 860.887,893.99 863.094,893.99 865.301,893.99 867.508,893.99 869.715,893.99 871.922,893.99 874.129,893.99 876.336,893.99 878.543,893.99 880.749,893.99 882.956,893.99 885.163,893.99 887.37,893.99 889.577,893.99 891.784,893.99 893.991,893.99 896.198,893.99 898.405,893.99 900.612,893.99 902.819,893.99 905.025,893.99 907.232,893.99 909.439,893.99 911.646,893.99 913.853,893.99 916.06,893.99 918.267,893.99 920.474,893.99 922.681,893.99 924.888,893.99 927.095,893.99 929.301,893.99 931.508,893.99 933.715,893.99 935.922,893.99 938.129,893.99 940.336,893.99 942.543,893.99 944.75,893.99 946.957,893.99 949.164,893.99 951.37,893.99 953.577,893.99 955.784,893.99 957.991,893.99 960.198,893.99 962.405,893.99 964.612,893.99 966.819,893.99 969.026,893.99 971.233,893.99 973.44,893.99 975.646,893.99 977.853,893.99 980.06,893.99 982.267,893.99 984.474,893.99 986.681,893.99 988.888,893.99 991.095,893.99 993.302,893.99 995.509,893.99 997.715,893.99 999.922,893.99 1002.13,893.99 1004.34,893.99 1006.54,893.99 1008.75,893.99 1010.96,893.99 1013.16,893.99 1015.37,893.99 1017.58,893.99 1019.78,893.99 1021.99,893.99 1024.2,893.99 1026.41,893.99 1028.61,893.99 1030.82,893.99 1033.03,893.99 1035.23,893.99 1037.44,893.99 1039.65,893.99 1041.85,893.99 1044.06,893.99 1046.27,893.99 1048.47,893.99 1050.68,893.99 1052.89,893.99 1055.1,893.99 1057.3,893.99 1059.51,893.99 1061.72,893.99 1063.92,893.99 1066.13,893.99 1068.34,893.99 1070.54,893.99 1072.75,893.99 1074.96,893.99 1077.16,893.99 1079.37,893.99 1081.58,893.99 1083.78,893.99 1085.99,813.21 1088.2,813.21 1090.41,813.21 1092.61,813.21 1094.82,813.21 1097.03,813.21 1099.23,813.21 1101.44,813.21 1103.65,813.21 1105.85,813.21 1108.06,813.21 1110.27,813.21 1112.47,813.21 1114.68,813.21 1116.89,813.21 1119.1,813.21 1121.3,813.21 1123.51,813.21 1125.72,813.21 1127.92,813.21 1130.13,813.21 1132.34,813.21 1134.54,813.21 1136.75,813.21 1138.96,813.21 1141.16,813.21 1143.37,813.21 1145.58,813.21 1147.79,813.21 1149.99,813.21 1152.2,813.21 1154.41,813.21 1156.61,813.21 1158.82,813.21 1161.03,813.21 1163.23,813.21 1165.44,813.21 1167.65,813.21 1169.85,813.21 1172.06,813.21 1174.27,813.21 1176.47,813.21 1178.68,813.21 1180.89,813.21 1183.1,813.21 1185.3,813.21 1187.51,813.21 1189.72,813.21 1191.92,813.21 1194.13,813.21 1196.34,813.21 1198.54,813.21 1200.75,813.21 1202.96,732.429 1205.16,732.429 1207.37,732.429 1209.58,732.429 1211.79,732.429 1213.99,732.429 1216.2,732.429 1218.41,732.429 1220.61,732.429 1222.82,732.429 1225.03,813.21 1227.23,813.21 1229.44,813.21 1231.65,813.21 1233.85,813.21 1236.06,813.21 1238.27,813.21 1240.48,813.21 1242.68,813.21 1244.89,813.21 1247.1,813.21 1249.3,813.21 1251.51,813.21 1253.72,813.21 1255.92,813.21 1258.13,813.21 1260.34,813.21 1262.54,813.21 1264.75,813.21 1266.96,813.21 1269.16,813.21 1271.37,813.21 1273.58,813.21 1275.79,813.21 1277.99,813.21 1280.2,813.21 1282.41,813.21 1284.61,813.21 1286.82,813.21 1289.03,813.21 1291.23,813.21 1293.44,813.21 1295.65,813.21 1297.85,813.21 1300.06,813.21 1302.27,813.21 1304.48,813.21 1306.68,813.21 1308.89,813.21 1311.1,813.21 1313.3,813.21 1315.51,813.21 1317.72,813.21 1319.92,813.21 1322.13,813.21 1324.34,813.21 1326.54,813.21 1328.75,813.21 1330.96,813.21 1333.17,732.429 1335.37,732.429 1337.58,732.429 1339.79,732.429 1341.99,732.429 1344.2,732.429 1346.41,732.429 1348.61,732.429 1350.82,732.429 1353.03,732.429 1355.23,651.649 1357.44,651.649 1359.65,651.649 1361.86,651.649 1364.06,651.649 1366.27,651.649 1368.48,651.649 1370.68,651.649 1372.89,651.649 1375.1,651.649 1377.3,651.649 1379.51,651.649 1381.72,651.649 1383.92,651.649 1386.13,651.649 1388.34,732.429 1390.54,732.429 1392.75,813.21 1394.96,813.21 1397.17,813.21 1399.37,813.21 1401.58,893.99 1403.79,893.99 1405.99,893.99 1408.2,893.99 1410.41,893.99 1412.61,893.99 1414.82,893.99 1417.03,893.99 1419.23,893.99 1421.44,893.99 1423.65,893.99 1425.86,893.99 1428.06,893.99 1430.27,893.99 1432.48,893.99 1434.68,893.99 1436.89,893.99 1439.1,893.99 1441.3,893.99 1443.51,893.99 1445.72,893.99 1447.92,893.99 1450.13,893.99 1452.34,893.99 1454.55,893.99 1456.75,893.99 1458.96,893.99 1461.17,893.99 1463.37,893.99 1465.58,893.99 1467.79,893.99 1469.99,893.99 1472.2,893.99 1474.41,893.99 1476.61,893.99 1478.82,893.99 1481.03,893.99 1483.23,893.99 1485.44,893.99 1487.65,893.99 1489.86,893.99 1492.06,732.429 1494.27,732.429 1496.48,732.429 1498.68,732.429 1500.89,732.429 1503.1,732.429 1505.3,732.429 1507.51,732.429 1509.72,732.429 1511.92,732.429 1514.13,732.429 1516.34,732.429 1518.55,732.429 1520.75,732.429 1522.96,732.429 1525.17,732.429 1527.37,732.429 1529.58,732.429 1531.79,732.429 1533.99,732.429 1536.2,732.429 1538.41,732.429 1540.61,732.429 1542.82,732.429 1545.03,732.429 1547.24,732.429 1549.44,732.429 1551.65,732.429 1553.86,732.429 1556.06,732.429 1558.27,732.429 1560.48,732.429 1562.68,732.429 1564.89,732.429 1567.1,732.429 1569.3,651.649 1571.51,651.649 1573.72,651.649 1575.92,651.649 1578.13,651.649 1580.34,651.649 1582.55,651.649 1584.75,651.649 1586.96,651.649 1589.17,651.649 1591.37,651.649 1593.58,651.649 1595.79,651.649 1597.99,651.649 1600.2,651.649 1602.41,651.649 1604.61,651.649 1606.82,651.649 1609.03,651.649 1611.24,651.649 1613.44,651.649 1615.65,651.649 1617.86,651.649 1620.06,651.649 1622.27,651.649 1624.48,651.649 1626.68,732.429 1628.89,732.429 1631.1,732.429 1633.3,732.429 1635.51,732.429 1637.72,732.429 1639.93,732.429 1642.13,732.429 1644.34,732.429 1646.55,732.429 1648.75,732.429 1650.96,732.429 1653.17,732.429 1655.37,732.429 1657.58,732.429 1659.79,732.429 1661.99,732.429 1664.2,732.429 1666.41,732.429 1668.61,732.429 1670.82,732.429 1673.03,732.429 1675.24,732.429 1677.44,732.429 1679.65,732.429 1681.86,732.429 1684.06,732.429 1686.27,732.429 1688.48,732.429 1690.68,732.429 1692.89,732.429 1695.1,732.429 1697.3,732.429 1699.51,732.429 1701.72,732.429 1703.93,732.429 1706.13,732.429 1708.34,732.429 1710.55,732.429 1712.75,732.429 1714.96,813.21 1717.17,813.21 1719.37,813.21 1721.58,813.21 1723.79,813.21 1725.99,893.99 1728.2,893.99 1730.41,893.99 1732.62,974.77 1734.82,974.77 1737.03,974.77 1739.24,974.77 1741.44,974.77 1743.65,974.77 1745.86,974.77 1748.06,974.77 1750.27,974.77 1752.48,974.77 1754.68,974.77 1756.89,974.77 1759.1,974.77 1761.31,974.77 1763.51,974.77 1765.72,974.77 1767.93,974.77 1770.13,974.77 1772.34,974.77 1774.55,974.77 1776.75,974.77 1778.96,974.77 1781.17,974.77 1783.37,974.77 1785.58,974.77 1787.79,974.77 1789.99,974.77 1792.2,974.77 1794.41,974.77 1796.62,974.77 1798.82,974.77 1801.03,974.77 1803.24,974.77 1805.44,974.77 1807.65,974.77 1809.86,974.77 1812.06,974.77 1814.27,974.77 1816.48,974.77 1818.68,974.77 1820.89,974.77 1823.1,974.77 1825.31,974.77 1827.51,974.77 1829.72,974.77 1831.93,974.77 1834.13,974.77 1836.34,974.77 1838.55,974.77 1840.75,974.77 1842.96,974.77 1845.17,974.77 1847.37,974.77 1849.58,974.77 1851.79,974.77 1854,974.77 1856.2,974.77 1858.41,974.77 1860.62,974.77 1862.82,974.77 1865.03,974.77 1867.24,974.77 1869.44,974.77 1871.65,974.77 1873.86,974.77 1876.06,974.77 1878.27,974.77 1880.48,974.77 1882.68,974.77 1884.89,974.77 1887.1,974.77 1889.31,974.77 1891.51,974.77 1893.72,974.77 1895.93,974.77 1898.13,974.77 1900.34,974.77 1902.55,974.77 1904.75,974.77 1906.96,974.77 1909.17,974.77 1911.37,974.77 1913.58,974.77 1915.79,974.77 1918,974.77 1920.2,974.77 1922.41,974.77 1924.62,974.77 1926.82,974.77 1929.03,974.77 1931.24,974.77 1933.44,974.77 1935.65,974.77 1937.86,974.77 1940.06,974.77 1942.27,974.77 1944.48,974.77 1946.69,974.77 1948.89,974.77 1951.1,974.77 1953.31,974.77 1955.51,974.77 1957.72,974.77 1959.93,974.77 1962.13,974.77 1964.34,974.77 1966.55,974.77 1968.75,974.77 1970.96,974.77 1973.17,974.77 1975.37,974.77 1977.58,974.77 1979.79,974.77 1982,974.77 1984.2,974.77 1986.41,974.77 1988.62,974.77 1990.82,974.77 1993.03,974.77 1995.24,974.77 1997.44,974.77 1999.65,974.77 2001.86,974.77 2004.06,974.77 2006.27,974.77 2008.48,974.77 2010.69,974.77 2012.89,974.77 2015.1,974.77 2017.31,974.77 2019.51,974.77 2021.72,974.77 2023.93,974.77 2026.13,974.77 2028.34,974.77 2030.55,974.77 2032.75,974.77 2034.96,974.77 2037.17,974.77 2039.38,974.77 2041.58,974.77 2043.79,974.77 2046,974.77 2048.2,974.77 2050.41,974.77 2052.62,974.77 2054.82,974.77 2057.03,974.77 2059.24,974.77 2061.44,974.77 2063.65,974.77 2065.86,974.77 2068.07,974.77 2070.27,974.77 2072.48,974.77 2074.69,974.77 2076.89,974.77 2079.1,974.77 2081.31,974.77 2083.51,974.77 2085.72,974.77 2087.93,974.77 2090.13,974.77 2092.34,974.77 2094.55,974.77 2096.75,974.77 2098.96,974.77 2101.17,974.77 2103.38,974.77 2105.58,974.77 2107.79,893.99 2110,893.99 2112.2,893.99 2114.41,893.99 2116.62,893.99 2118.82,893.99 2121.03,893.99 2123.24,893.99 2125.44,893.99 2127.65,893.99 2129.86,893.99 2132.07,893.99 2134.27,893.99 2136.48,893.99 2138.69,893.99 2140.89,893.99 2143.1,893.99 2145.31,893.99 2147.51,893.99 2149.72,893.99 2151.93,893.99 2154.13,893.99 2156.34,893.99 2158.55,893.99 2160.76,893.99 2162.96,893.99 2165.17,893.99 2167.38,893.99 2169.58,893.99 2171.79,893.99 2174,893.99 2176.2,893.99 2178.41,893.99 2180.62,893.99 2182.82,893.99 2185.03,893.99 2187.24,893.99 2189.44,893.99 2191.65,893.99 2193.86,893.99 2196.07,893.99 2198.27,893.99 2200.48,893.99 2202.69,893.99 2204.89,893.99 2207.1,893.99 2209.31,893.99 2211.51,893.99 2213.72,893.99 2215.93,893.99 2218.13,893.99 2220.34,893.99 2222.55,893.99 2224.76,893.99 2226.96,893.99 2229.17,893.99 2231.38,813.21 2233.58,813.21 2235.79,813.21 2238,813.21 2240.2,813.21 2242.41,813.21 2244.62,813.21 2246.82,813.21 2249.03,813.21 2251.24,813.21 2253.45,732.429 2255.65,732.429 2257.86,732.429 2260.07,732.429 2262.27,732.429 2264.48,813.21 2266.69,813.21 2268.89,813.21 2271.1,813.21 2273.31,813.21 2275.51,813.21 2277.72,813.21 2279.93,813.21 2282.13,813.21 2284.34,813.21 2286.55,813.21 2288.76,813.21 2290.96,813.21 2293.17,813.21 2295.38,813.21 2297.58,813.21 2299.79,813.21 2302,813.21 2304.2,813.21 2306.41,813.21 2308.62,813.21 2310.82,813.21 2313.03,813.21 2315.24,813.21 2317.45,813.21 2319.65,813.21 2321.86,813.21 2324.07,813.21 2326.27,813.21 2328.48,813.21 2330.69,813.21 2332.89,813.21 2335.1,813.21 2337.31,813.21 2339.51,813.21 2341.72,813.21 2343.93,813.21 2346.14,813.21 2348.34,813.21 2350.55,813.21 2352.76,813.21 "/>
<polyline clip-path="url(#clip692)" style="stroke:#e26f46; stroke-linecap:round; stroke-linejoin:round; stroke-width:8; stroke-opacity:1; fill:none" points="148.057,974.77 150.264,974.77 152.47,974.77 154.677,974.77 156.884,974.77 159.091,974.77 161.298,974.77 163.505,974.77 165.712,974.77 167.919,974.77 170.126,974.77 172.333,974.77 174.539,974.77 176.746,974.77 178.953,974.77 181.16,974.77 183.367,974.77 185.574,974.77 187.781,974.77 189.988,974.77 192.195,974.77 194.402,974.77 196.609,974.77 198.815,974.77 201.022,974.77 203.229,974.77 205.436,974.77 207.643,974.77 209.85,974.77 212.057,974.77 214.264,974.77 216.471,974.77 218.678,974.77 220.885,974.77 223.091,974.77 225.298,974.77 227.505,974.77 229.712,974.77 231.919,974.77 234.126,974.77 236.333,974.77 238.54,974.77 240.747,974.77 242.954,974.77 245.16,974.77 247.367,974.77 249.574,974.77 251.781,974.77 253.988,974.77 256.195,974.77 258.402,974.77 260.609,974.77 262.816,974.77 265.023,974.77 267.23,974.77 269.436,974.77 271.643,974.77 273.85,974.77 276.057,974.77 278.264,974.77 280.471,974.77 282.678,974.77 284.885,974.77 287.092,974.77 289.299,974.77 291.506,974.77 293.712,974.77 295.919,974.77 298.126,974.77 300.333,974.77 302.54,974.77 304.747,974.77 306.954,974.77 309.161,974.77 311.368,974.77 313.575,974.77 315.781,974.77 317.988,974.77 320.195,974.77 322.402,974.77 324.609,974.77 326.816,974.77 329.023,974.77 331.23,974.77 333.437,974.77 335.644,974.77 337.851,974.77 340.057,974.77 342.264,974.77 344.471,974.77 346.678,974.77 348.885,974.77 351.092,974.77 353.299,974.77 355.506,974.77 357.713,974.77 359.92,974.77 362.127,974.77 364.333,974.77 366.54,974.77 368.747,974.77 370.954,974.77 373.161,974.77 375.368,974.77 377.575,974.77 379.782,974.77 381.989,974.77 384.196,974.77 386.402,974.77 388.609,974.77 390.816,974.77 393.023,974.77 395.23,974.77 397.437,974.77 399.644,974.77 401.851,974.77 404.058,974.77 406.265,974.77 408.472,974.77 410.678,974.77 412.885,974.77 415.092,974.77 417.299,974.77 419.506,974.77 421.713,974.77 423.92,974.77 426.127,974.77 428.334,974.77 430.541,974.77 432.748,974.77 434.954,974.77 437.161,893.99 439.368,893.99 441.575,893.99 443.782,893.99 445.989,893.99 448.196,893.99 450.403,893.99 452.61,893.99 454.817,893.99 457.023,893.99 459.23,893.99 461.437,893.99 463.644,893.99 465.851,893.99 468.058,893.99 470.265,893.99 472.472,893.99 474.679,893.99 476.886,893.99 479.093,893.99 481.299,893.99 483.506,893.99 485.713,893.99 487.92,893.99 490.127,893.99 492.334,893.99 494.541,893.99 496.748,893.99 498.955,893.99 501.162,893.99 503.369,893.99 505.575,893.99 507.782,893.99 509.989,893.99 512.196,893.99 514.403,893.99 516.61,893.99 518.817,893.99 521.024,893.99 523.231,893.99 525.438,893.99 527.644,893.99 529.851,893.99 532.058,893.99 534.265,893.99 536.472,893.99 538.679,893.99 540.886,893.99 543.093,893.99 545.3,893.99 547.507,893.99 549.714,893.99 551.92,893.99 554.127,893.99 556.334,893.99 558.541,893.99 560.748,893.99 562.955,893.99 565.162,893.99 567.369,893.99 569.576,893.99 571.783,893.99 573.99,893.99 576.196,893.99 578.403,893.99 580.61,893.99 582.817,893.99 585.024,893.99 587.231,893.99 589.438,893.99 591.645,893.99 593.852,893.99 596.059,893.99 598.265,893.99 600.472,893.99 602.679,893.99 604.886,893.99 607.093,893.99 609.3,893.99 611.507,893.99 613.714,893.99 615.921,893.99 618.128,893.99 620.335,893.99 622.541,893.99 624.748,893.99 626.955,893.99 629.162,893.99 631.369,893.99 633.576,893.99 635.783,893.99 637.99,893.99 640.197,893.99 642.404,813.21 644.611,813.21 646.817,813.21 649.024,813.21 651.231,813.21 653.438,813.21 655.645,813.21 657.852,813.21 660.059,813.21 662.266,813.21 664.473,813.21 666.68,813.21 668.886,813.21 671.093,813.21 673.3,813.21 675.507,813.21 677.714,813.21 679.921,813.21 682.128,813.21 684.335,813.21 686.542,813.21 688.749,813.21 690.956,813.21 693.162,813.21 695.369,813.21 697.576,813.21 699.783,813.21 701.99,813.21 704.197,813.21 706.404,813.21 708.611,813.21 710.818,813.21 713.025,813.21 715.232,813.21 717.438,813.21 719.645,813.21 721.852,813.21 724.059,813.21 726.266,813.21 728.473,813.21 730.68,813.21 732.887,813.21 735.094,813.21 737.301,813.21 739.507,813.21 741.714,813.21 743.921,813.21 746.128,813.21 748.335,813.21 750.542,813.21 752.749,813.21 754.956,813.21 757.163,813.21 759.37,813.21 761.577,813.21 763.783,813.21 765.99,813.21 768.197,813.21 770.404,813.21 772.611,813.21 774.818,813.21 777.025,813.21 779.232,813.21 781.439,813.21 783.646,813.21 785.853,813.21 788.059,813.21 790.266,813.21 792.473,813.21 794.68,813.21 796.887,813.21 799.094,813.21 801.301,813.21 803.508,813.21 805.715,813.21 807.922,813.21 810.128,813.21 812.335,813.21 814.542,813.21 816.749,813.21 818.956,813.21 821.163,813.21 823.37,813.21 825.577,813.21 827.784,813.21 829.991,813.21 832.198,813.21 834.404,813.21 836.611,813.21 838.818,813.21 841.025,813.21 843.232,813.21 845.439,813.21 847.646,813.21 849.853,813.21 852.06,813.21 854.267,813.21 856.474,813.21 858.68,813.21 860.887,813.21 863.094,813.21 865.301,813.21 867.508,813.21 869.715,813.21 871.922,813.21 874.129,813.21 876.336,813.21 878.543,813.21 880.749,813.21 882.956,813.21 885.163,813.21 887.37,813.21 889.577,813.21 891.784,813.21 893.991,813.21 896.198,813.21 898.405,813.21 900.612,813.21 902.819,813.21 905.025,813.21 907.232,813.21 909.439,813.21 911.646,813.21 913.853,813.21 916.06,813.21 918.267,813.21 920.474,813.21 922.681,813.21 924.888,813.21 927.095,813.21 929.301,813.21 931.508,813.21 933.715,813.21 935.922,813.21 938.129,813.21 940.336,813.21 942.543,813.21 944.75,813.21 946.957,813.21 949.164,813.21 951.37,813.21 953.577,813.21 955.784,813.21 957.991,813.21 960.198,813.21 962.405,813.21 964.612,813.21 966.819,813.21 969.026,813.21 971.233,813.21 973.44,813.21 975.646,813.21 977.853,813.21 980.06,813.21 982.267,813.21 984.474,813.21 986.681,813.21 988.888,813.21 991.095,813.21 993.302,813.21 995.509,813.21 997.715,813.21 999.922,813.21 1002.13,813.21 1004.34,813.21 1006.54,813.21 1008.75,813.21 1010.96,813.21 1013.16,813.21 1015.37,813.21 1017.58,813.21 1019.78,813.21 1021.99,813.21 1024.2,813.21 1026.41,813.21 1028.61,813.21 1030.82,813.21 1033.03,813.21 1035.23,813.21 1037.44,813.21 1039.65,813.21 1041.85,813.21 1044.06,813.21 1046.27,813.21 1048.47,813.21 1050.68,813.21 1052.89,813.21 1055.1,813.21 1057.3,813.21 1059.51,813.21 1061.72,813.21 1063.92,813.21 1066.13,813.21 1068.34,813.21 1070.54,813.21 1072.75,813.21 1074.96,813.21 1077.16,813.21 1079.37,813.21 1081.58,813.21 1083.78,813.21 1085.99,813.21 1088.2,813.21 1090.41,813.21 1092.61,813.21 1094.82,813.21 1097.03,813.21 1099.23,813.21 1101.44,813.21 1103.65,813.21 1105.85,813.21 1108.06,813.21 1110.27,813.21 1112.47,813.21 1114.68,813.21 1116.89,813.21 1119.1,813.21 1121.3,813.21 1123.51,813.21 1125.72,813.21 1127.92,813.21 1130.13,813.21 1132.34,813.21 1134.54,813.21 1136.75,813.21 1138.96,813.21 1141.16,813.21 1143.37,813.21 1145.58,813.21 1147.79,813.21 1149.99,813.21 1152.2,813.21 1154.41,813.21 1156.61,813.21 1158.82,813.21 1161.03,813.21 1163.23,813.21 1165.44,813.21 1167.65,813.21 1169.85,813.21 1172.06,813.21 1174.27,813.21 1176.47,813.21 1178.68,813.21 1180.89,813.21 1183.1,813.21 1185.3,813.21 1187.51,813.21 1189.72,813.21 1191.92,813.21 1194.13,813.21 1196.34,813.21 1198.54,813.21 1200.75,813.21 1202.96,813.21 1205.16,813.21 1207.37,813.21 1209.58,813.21 1211.79,813.21 1213.99,813.21 1216.2,813.21 1218.41,813.21 1220.61,813.21 1222.82,813.21 1225.03,732.429 1227.23,732.429 1229.44,732.429 1231.65,732.429 1233.85,732.429 1236.06,732.429 1238.27,732.429 1240.48,732.429 1242.68,732.429 1244.89,732.429 1247.1,732.429 1249.3,732.429 1251.51,732.429 1253.72,732.429 1255.92,732.429 1258.13,732.429 1260.34,732.429 1262.54,732.429 1264.75,732.429 1266.96,732.429 1269.16,732.429 1271.37,732.429 1273.58,732.429 1275.79,732.429 1277.99,732.429 1280.2,732.429 1282.41,732.429 1284.61,732.429 1286.82,732.429 1289.03,732.429 1291.23,732.429 1293.44,732.429 1295.65,732.429 1297.85,732.429 1300.06,732.429 1302.27,732.429 1304.48,732.429 1306.68,732.429 1308.89,732.429 1311.1,732.429 1313.3,732.429 1315.51,732.429 1317.72,732.429 1319.92,732.429 1322.13,732.429 1324.34,732.429 1326.54,732.429 1328.75,732.429 1330.96,732.429 1333.17,732.429 1335.37,732.429 1337.58,732.429 1339.79,732.429 1341.99,732.429 1344.2,732.429 1346.41,732.429 1348.61,732.429 1350.82,732.429 1353.03,732.429 1355.23,732.429 1357.44,732.429 1359.65,732.429 1361.86,732.429 1364.06,732.429 1366.27,732.429 1368.48,732.429 1370.68,732.429 1372.89,732.429 1375.1,732.429 1377.3,732.429 1379.51,732.429 1381.72,732.429 1383.92,732.429 1386.13,732.429 1388.34,651.649 1390.54,651.649 1392.75,570.868 1394.96,570.868 1397.17,570.868 1399.37,570.868 1401.58,490.088 1403.79,490.088 1405.99,490.088 1408.2,490.088 1410.41,490.088 1412.61,490.088 1414.82,490.088 1417.03,490.088 1419.23,490.088 1421.44,490.088 1423.65,490.088 1425.86,490.088 1428.06,490.088 1430.27,490.088 1432.48,490.088 1434.68,490.088 1436.89,490.088 1439.1,490.088 1441.3,490.088 1443.51,490.088 1445.72,490.088 1447.92,490.088 1450.13,490.088 1452.34,490.088 1454.55,490.088 1456.75,490.088 1458.96,490.088 1461.17,490.088 1463.37,490.088 1465.58,490.088 1467.79,490.088 1469.99,490.088 1472.2,490.088 1474.41,490.088 1476.61,490.088 1478.82,490.088 1481.03,490.088 1483.23,490.088 1485.44,490.088 1487.65,490.088 1489.86,490.088 1492.06,490.088 1494.27,490.088 1496.48,490.088 1498.68,490.088 1500.89,490.088 1503.1,490.088 1505.3,490.088 1507.51,490.088 1509.72,490.088 1511.92,490.088 1514.13,490.088 1516.34,490.088 1518.55,490.088 1520.75,490.088 1522.96,490.088 1525.17,490.088 1527.37,490.088 1529.58,490.088 1531.79,490.088 1533.99,490.088 1536.2,490.088 1538.41,490.088 1540.61,490.088 1542.82,490.088 1545.03,490.088 1547.24,490.088 1549.44,490.088 1551.65,490.088 1553.86,490.088 1556.06,490.088 1558.27,490.088 1560.48,490.088 1562.68,490.088 1564.89,490.088 1567.1,490.088 1569.3,490.088 1571.51,490.088 1573.72,490.088 1575.92,490.088 1578.13,490.088 1580.34,490.088 1582.55,490.088 1584.75,490.088 1586.96,490.088 1589.17,490.088 1591.37,490.088 1593.58,490.088 1595.79,490.088 1597.99,490.088 1600.2,490.088 1602.41,490.088 1604.61,490.088 1606.82,490.088 1609.03,490.088 1611.24,490.088 1613.44,490.088 1615.65,490.088 1617.86,490.088 1620.06,490.088 1622.27,490.088 1624.48,490.088 1626.68,409.307 1628.89,409.307 1631.1,409.307 1633.3,409.307 1635.51,409.307 1637.72,409.307 1639.93,409.307 1642.13,409.307 1644.34,409.307 1646.55,409.307 1648.75,409.307 1650.96,409.307 1653.17,409.307 1655.37,409.307 1657.58,409.307 1659.79,409.307 1661.99,409.307 1664.2,409.307 1666.41,409.307 1668.61,409.307 1670.82,409.307 1673.03,409.307 1675.24,409.307 1677.44,409.307 1679.65,409.307 1681.86,409.307 1684.06,409.307 1686.27,409.307 1688.48,409.307 1690.68,409.307 1692.89,409.307 1695.1,409.307 1697.3,409.307 1699.51,409.307 1701.72,409.307 1703.93,409.307 1706.13,409.307 1708.34,409.307 1710.55,409.307 1712.75,409.307 1714.96,328.527 1717.17,328.527 1719.37,328.527 1721.58,328.527 1723.79,328.527 1725.99,247.747 1728.2,247.747 1730.41,247.747 1732.62,166.966 1734.82,166.966 1737.03,166.966 1739.24,166.966 1741.44,166.966 1743.65,166.966 1745.86,166.966 1748.06,166.966 1750.27,166.966 1752.48,166.966 1754.68,166.966 1756.89,166.966 1759.1,166.966 1761.31,166.966 1763.51,166.966 1765.72,166.966 1767.93,166.966 1770.13,166.966 1772.34,166.966 1774.55,166.966 1776.75,166.966 1778.96,166.966 1781.17,166.966 1783.37,166.966 1785.58,166.966 1787.79,166.966 1789.99,166.966 1792.2,166.966 1794.41,166.966 1796.62,166.966 1798.82,166.966 1801.03,166.966 1803.24,166.966 1805.44,166.966 1807.65,166.966 1809.86,166.966 1812.06,166.966 1814.27,166.966 1816.48,166.966 1818.68,166.966 1820.89,166.966 1823.1,166.966 1825.31,166.966 1827.51,166.966 1829.72,166.966 1831.93,166.966 1834.13,166.966 1836.34,166.966 1838.55,166.966 1840.75,166.966 1842.96,166.966 1845.17,166.966 1847.37,166.966 1849.58,166.966 1851.79,166.966 1854,166.966 1856.2,166.966 1858.41,166.966 1860.62,166.966 1862.82,166.966 1865.03,166.966 1867.24,166.966 1869.44,166.966 1871.65,166.966 1873.86,166.966 1876.06,166.966 1878.27,166.966 1880.48,166.966 1882.68,166.966 1884.89,166.966 1887.1,166.966 1889.31,166.966 1891.51,166.966 1893.72,166.966 1895.93,166.966 1898.13,166.966 1900.34,166.966 1902.55,166.966 1904.75,166.966 1906.96,166.966 1909.17,166.966 1911.37,166.966 1913.58,166.966 1915.79,166.966 1918,166.966 1920.2,166.966 1922.41,166.966 1924.62,166.966 1926.82,166.966 1929.03,166.966 1931.24,166.966 1933.44,166.966 1935.65,166.966 1937.86,166.966 1940.06,166.966 1942.27,166.966 1944.48,166.966 1946.69,166.966 1948.89,166.966 1951.1,166.966 1953.31,166.966 1955.51,166.966 1957.72,166.966 1959.93,166.966 1962.13,166.966 1964.34,166.966 1966.55,166.966 1968.75,166.966 1970.96,166.966 1973.17,166.966 1975.37,166.966 1977.58,166.966 1979.79,166.966 1982,166.966 1984.2,166.966 1986.41,166.966 1988.62,166.966 1990.82,166.966 1993.03,166.966 1995.24,166.966 1997.44,166.966 1999.65,166.966 2001.86,166.966 2004.06,166.966 2006.27,166.966 2008.48,166.966 2010.69,166.966 2012.89,166.966 2015.1,166.966 2017.31,166.966 2019.51,166.966 2021.72,166.966 2023.93,166.966 2026.13,166.966 2028.34,166.966 2030.55,166.966 2032.75,166.966 2034.96,166.966 2037.17,166.966 2039.38,166.966 2041.58,166.966 2043.79,166.966 2046,166.966 2048.2,166.966 2050.41,166.966 2052.62,166.966 2054.82,166.966 2057.03,166.966 2059.24,166.966 2061.44,166.966 2063.65,166.966 2065.86,166.966 2068.07,166.966 2070.27,166.966 2072.48,166.966 2074.69,166.966 2076.89,166.966 2079.1,166.966 2081.31,166.966 2083.51,166.966 2085.72,166.966 2087.93,166.966 2090.13,166.966 2092.34,166.966 2094.55,166.966 2096.75,166.966 2098.96,166.966 2101.17,166.966 2103.38,166.966 2105.58,166.966 2107.79,166.966 2110,166.966 2112.2,166.966 2114.41,166.966 2116.62,166.966 2118.82,166.966 2121.03,166.966 2123.24,166.966 2125.44,166.966 2127.65,166.966 2129.86,166.966 2132.07,166.966 2134.27,166.966 2136.48,166.966 2138.69,166.966 2140.89,166.966 2143.1,166.966 2145.31,166.966 2147.51,166.966 2149.72,166.966 2151.93,166.966 2154.13,166.966 2156.34,166.966 2158.55,166.966 2160.76,166.966 2162.96,166.966 2165.17,166.966 2167.38,166.966 2169.58,166.966 2171.79,166.966 2174,166.966 2176.2,166.966 2178.41,166.966 2180.62,166.966 2182.82,166.966 2185.03,166.966 2187.24,166.966 2189.44,166.966 2191.65,166.966 2193.86,166.966 2196.07,166.966 2198.27,166.966 2200.48,166.966 2202.69,166.966 2204.89,166.966 2207.1,166.966 2209.31,166.966 2211.51,166.966 2213.72,166.966 2215.93,166.966 2218.13,166.966 2220.34,166.966 2222.55,166.966 2224.76,166.966 2226.96,166.966 2229.17,166.966 2231.38,166.966 2233.58,166.966 2235.79,166.966 2238,166.966 2240.2,166.966 2242.41,166.966 2244.62,166.966 2246.82,166.966 2249.03,166.966 2251.24,166.966 2253.45,166.966 2255.65,166.966 2257.86,166.966 2260.07,166.966 2262.27,166.966 2264.48,86.1857 2266.69,86.1857 2268.89,86.1857 2271.1,86.1857 2273.31,86.1857 2275.51,86.1857 2277.72,86.1857 2279.93,86.1857 2282.13,86.1857 2284.34,86.1857 2286.55,86.1857 2288.76,86.1857 2290.96,86.1857 2293.17,86.1857 2295.38,86.1857 2297.58,86.1857 2299.79,86.1857 2302,86.1857 2304.2,86.1857 2306.41,86.1857 2308.62,86.1857 2310.82,86.1857 2313.03,86.1857 2315.24,86.1857 2317.45,86.1857 2319.65,86.1857 2321.86,86.1857 2324.07,86.1857 2326.27,86.1857 2328.48,86.1857 2330.69,86.1857 2332.89,86.1857 2335.1,86.1857 2337.31,86.1857 2339.51,86.1857 2341.72,86.1857 2343.93,86.1857 2346.14,86.1857 2348.34,86.1857 2350.55,86.1857 2352.76,86.1857 "/>
<polyline clip-path="url(#clip692)" style="stroke:#3da44d; stroke-linecap:round; stroke-linejoin:round; stroke-width:8; stroke-opacity:1; fill:none" points="148.057,1130.22 150.264,1128.59 152.47,1126.94 154.677,1125.26 156.884,1123.55 159.091,1121.82 161.298,1120.06 163.505,1118.28 165.712,1116.47 167.919,1114.64 170.126,1112.78 172.333,1110.9 174.539,1108.99 176.746,1107.06 178.953,1105.1 181.16,1103.12 183.367,1101.11 185.574,1099.08 187.781,1097.02 189.988,1094.94 192.195,1092.84 194.402,1090.71 196.609,1088.55 198.815,1086.37 201.022,1084.17 203.229,1081.95 205.436,1079.7 207.643,1077.43 209.85,1075.13 212.057,1072.82 214.264,1070.47 216.471,1068.11 218.678,1065.73 220.885,1063.32 223.091,1060.89 225.298,1058.44 227.505,1055.96 229.712,1053.47 231.919,1050.95 234.126,1048.41 236.333,1045.85 238.54,1043.28 240.747,1040.68 242.954,1038.06 245.16,1035.42 247.367,1032.76 249.574,1030.08 251.781,1027.38 253.988,1024.67 256.195,1021.93 258.402,1019.18 260.609,1016.41 262.816,1013.62 265.023,1010.82 267.23,1007.99 269.436,1005.15 271.643,1002.3 273.85,999.425 276.057,996.537 278.264,993.633 280.471,990.714 282.678,987.781 284.885,984.832 287.092,981.869 289.299,978.893 291.506,975.902 293.712,1044.37 295.919,1041.36 298.126,1038.33 300.333,1035.29 302.54,1032.23 304.747,1029.17 306.954,1026.09 309.161,1023.01 311.368,1019.91 313.575,1016.8 315.781,1013.68 317.988,1010.56 320.195,1007.42 322.402,1004.28 324.609,1001.13 326.816,997.968 329.023,994.8 331.23,991.626 333.437,988.445 335.644,985.258 337.851,982.065 340.057,978.866 342.264,975.662 344.471,1041.99 346.678,1038.77 348.885,1035.56 351.092,1032.34 353.299,1029.11 355.506,1025.89 357.713,1022.66 359.92,1019.43 362.127,1016.2 364.333,1012.96 366.54,1009.73 368.747,1006.49 370.954,1003.26 373.161,1000.03 375.368,996.794 377.575,993.562 379.782,990.332 381.989,987.103 384.196,983.878 386.402,980.655 388.609,977.435 390.816,1371.05 393.023,1367.84 395.23,1364.63 397.437,1361.43 399.644,1358.23 401.851,1355.04 404.058,1351.85 406.265,1348.67 408.472,1345.5 410.678,1342.33 412.885,1339.17 415.092,1336.02 417.299,1332.88 419.506,1329.75 421.713,1326.62 423.92,1323.51 426.127,1320.4 428.334,1317.31 430.541,1314.22 432.748,1311.15 434.954,1308.09 437.161,1305.04 439.368,1302 441.575,1298.97 443.782,1295.96 445.989,1292.96 448.196,1289.97 450.403,1286.99 452.61,1284.03 454.817,1281.09 457.023,1278.16 459.23,1275.24 461.437,1272.34 463.644,1269.45 465.851,1266.58 468.058,1263.73 470.265,1260.9 472.472,1258.08 474.679,1255.27 476.886,1252.49 479.093,1249.72 481.299,1246.97 483.506,1244.24 485.713,1241.53 487.92,1238.84 490.127,1236.16 492.334,1233.51 494.541,1230.87 496.748,1228.26 498.955,1225.66 501.162,1223.09 503.369,1220.54 505.575,1218 507.782,1215.49 509.989,1213 512.196,1210.53 514.403,1208.08 516.61,1205.66 518.817,1203.25 521.024,1200.87 523.231,1198.51 525.438,1196.18 527.644,1193.86 529.851,1191.57 532.058,1189.31 534.265,1187.06 536.472,1184.84 538.679,1182.65 540.886,1180.47 543.093,1178.32 545.3,1176.2 547.507,1174.1 549.714,1172.02 551.92,1169.97 554.127,1167.94 556.334,1165.94 558.541,1163.96 560.748,1162.01 562.955,1160.08 565.162,1158.18 567.369,1156.3 569.576,1154.45 571.783,1152.62 573.99,1150.82 576.196,1149.04 578.403,1147.29 580.61,1145.56 582.817,1143.86 585.024,1142.19 587.231,1140.53 589.438,1138.91 591.645,1137.31 593.852,1135.74 596.059,1134.19 598.265,1132.66 600.472,1131.17 602.679,1129.69 604.886,1128.25 607.093,1126.83 609.3,1125.43 611.507,1124.06 613.714,1122.71 615.921,1121.39 618.128,1120.09 620.335,1118.82 622.541,1117.57 624.748,1116.35 626.955,1115.16 629.162,1113.98 631.369,1112.83 633.576,1111.71 635.783,1110.61 637.99,1109.53 640.197,1108.48 642.404,1107.45 644.611,1106.44 646.817,1105.46 649.024,1104.51 651.231,1103.57 653.438,1102.66 655.645,1101.77 657.852,1100.91 660.059,1100.06 662.266,1099.24 664.473,1098.44 666.68,1097.67 668.886,1096.91 671.093,1096.18 673.3,1095.46 675.507,1094.77 677.714,1094.1 679.921,1093.45 682.128,1092.82 684.335,1092.21 686.542,1091.61 688.749,1091.04 690.956,1090.49 693.162,1089.96 695.369,1089.44 697.576,1088.94 699.783,1088.47 701.99,1088 704.197,1087.56 706.404,1087.14 708.611,1086.73 710.818,1086.33 713.025,1085.96 715.232,1085.6 717.438,1085.25 719.645,1084.92 721.852,1084.61 724.059,1084.31 726.266,1084.03 728.473,1083.76 730.68,1083.5 732.887,1083.26 735.094,1083.03 737.301,1082.81 739.507,1082.61 741.714,1082.42 743.921,1082.24 746.128,1082.07 748.335,1081.91 750.542,1081.77 752.749,1081.63 754.956,1081.51 757.163,1081.39 759.37,1081.28 761.577,1081.19 763.783,1081.1 765.99,1081.02 768.197,1080.94 770.404,1080.88 772.611,1080.82 774.818,1080.77 777.025,1080.72 779.232,1080.68 781.439,1080.65 783.646,1080.62 785.853,1080.6 788.059,1080.58 790.266,1080.56 792.473,1080.55 794.68,1080.54 796.887,1080.53 799.094,1080.53 801.301,1080.52 803.508,1080.52 805.715,1080.52 807.922,1080.52 810.128,1080.52 812.335,1080.52 814.542,1080.52 816.749,1080.52 818.956,1080.52 821.163,1080.52 823.37,1080.51 825.577,1080.51 827.784,1080.49 829.991,1080.48 832.198,1080.46 834.404,1080.44 836.611,1080.41 838.818,1080.38 841.025,1080.34 843.232,1080.3 845.439,1080.25 847.646,1080.2 849.853,1080.13 852.06,1080.06 854.267,1079.99 856.474,1079.9 858.68,1079.81 860.887,1079.7 863.094,1079.59 865.301,1079.47 867.508,1079.33 869.715,1079.19 871.922,1079.04 874.129,1078.87 876.336,1078.7 878.543,1078.51 880.749,1078.31 882.956,1078.1 885.163,1077.88 887.37,1077.64 889.577,1077.39 891.784,1077.12 893.991,1076.84 896.198,1076.55 898.405,1076.24 900.612,1075.92 902.819,1075.58 905.025,1075.23 907.232,1074.86 909.439,1074.47 911.646,1074.07 913.853,1073.65 916.06,1073.21 918.267,1072.76 920.474,1072.29 922.681,1071.8 924.888,1071.29 927.095,1070.77 929.301,1070.22 931.508,1069.66 933.715,1069.07 935.922,1068.47 938.129,1067.85 940.336,1067.21 942.543,1066.54 944.75,1065.86 946.957,1065.16 949.164,1064.43 951.37,1063.68 953.577,1062.91 955.784,1062.12 957.991,1061.31 960.198,1060.48 962.405,1059.62 964.612,1058.74 966.819,1057.84 969.026,1056.91 971.233,1055.96 973.44,1054.99 975.646,1054 977.853,1052.98 980.06,1051.94 982.267,1050.87 984.474,1049.78 986.681,1048.66 988.888,1047.53 991.095,1046.36 993.302,1045.17 995.509,1043.96 997.715,1042.73 999.922,1041.46 1002.13,1040.18 1004.34,1038.87 1006.54,1037.53 1008.75,1036.17 1010.96,1034.78 1013.16,1033.37 1015.37,1031.93 1017.58,1030.47 1019.78,1028.98 1021.99,1027.47 1024.2,1025.93 1026.41,1024.37 1028.61,1022.78 1030.82,1021.16 1033.03,1019.52 1035.23,1017.86 1037.44,1016.17 1039.65,1014.45 1041.85,1012.71 1044.06,1010.94 1046.27,1009.15 1048.47,1007.33 1050.68,1005.49 1052.89,1003.62 1055.1,1001.73 1057.3,999.81 1059.51,997.867 1061.72,995.899 1063.92,993.906 1066.13,991.889 1068.34,989.847 1070.54,987.781 1072.75,985.69 1074.96,983.575 1077.16,981.436 1079.37,979.272 1081.58,977.085 1083.78,974.875 1085.99,1120.27 1088.2,1118.01 1090.41,1115.73 1092.61,1113.43 1094.82,1111.1 1097.03,1108.75 1099.23,1106.38 1101.44,1103.98 1103.65,1101.57 1105.85,1099.13 1108.06,1096.67 1110.27,1094.18 1112.47,1091.68 1114.68,1089.15 1116.89,1086.61 1119.1,1084.04 1121.3,1081.46 1123.51,1078.85 1125.72,1076.22 1127.92,1073.57 1130.13,1070.91 1132.34,1068.22 1134.54,1065.52 1136.75,1062.79 1138.96,1060.05 1141.16,1057.29 1143.37,1054.52 1145.58,1051.72 1147.79,1048.91 1149.99,1046.08 1152.2,1043.23 1154.41,1040.37 1156.61,1037.49 1158.82,1034.6 1161.03,1031.69 1163.23,1028.76 1165.44,1025.83 1167.65,1022.87 1169.85,1019.9 1172.06,1016.92 1174.27,1013.92 1176.47,1010.92 1178.68,1007.89 1180.89,1004.86 1183.1,1001.81 1185.3,998.756 1187.51,995.686 1189.72,992.606 1191.92,989.515 1194.13,986.413 1196.34,983.302 1198.54,980.181 1200.75,977.051 1202.96,1159.41 1205.16,1156.26 1207.37,1153.11 1209.58,1149.94 1211.79,1146.77 1213.99,1143.6 1216.2,1140.41 1218.41,1137.22 1220.61,1134.03 1222.82,1130.83 1225.03,1127.61 1227.23,1124.4 1229.44,1121.18 1231.65,1117.96 1233.85,1114.74 1236.06,1111.52 1238.27,1108.29 1240.48,1105.06 1242.68,1101.83 1244.89,1098.59 1247.1,1095.36 1249.3,1092.13 1251.51,1088.89 1253.72,1085.66 1255.92,1082.42 1258.13,1079.19 1260.34,1075.96 1262.54,1072.73 1264.75,1069.5 1266.96,1066.28 1269.16,1063.06 1271.37,1059.84 1273.58,1056.63 1275.79,1053.42 1277.99,1050.21 1280.2,1047.01 1282.41,1043.81 1284.61,1040.62 1286.82,1037.44 1289.03,1034.26 1291.23,1031.1 1293.44,1027.93 1295.65,1024.78 1297.85,1021.63 1300.06,1018.49 1302.27,1015.36 1304.48,1012.24 1306.68,1009.13 1308.89,1006.03 1311.1,1002.94 1313.3,999.858 1315.51,996.788 1317.72,993.73 1319.92,990.684 1322.13,987.65 1324.34,984.628 1326.54,981.619 1328.75,978.623 1330.96,975.641 1333.17,1001.6 1335.37,998.646 1337.58,995.707 1339.79,992.782 1341.99,989.872 1344.2,986.977 1346.41,984.099 1348.61,981.236 1350.82,978.39 1353.03,975.56 1355.23,1105.62 1357.44,1102.83 1359.65,1100.05 1361.86,1097.29 1364.06,1094.55 1366.27,1091.82 1368.48,1089.12 1370.68,1086.43 1372.89,1083.77 1375.1,1081.12 1377.3,1078.49 1379.51,1075.89 1381.72,1073.3 1383.92,1070.73 1386.13,1068.19 1388.34,1065.65 1390.54,1063.15 1392.75,1060.67 1394.96,1058.21 1397.17,1055.77 1399.37,1053.35 1401.58,1050.96 1403.79,1048.58 1405.99,1046.23 1408.2,1043.91 1410.41,1041.6 1412.61,1039.32 1414.82,1037.06 1417.03,1034.83 1419.23,1032.62 1421.44,1030.43 1423.65,1028.27 1425.86,1026.13 1428.06,1024.01 1430.27,1021.92 1432.48,1019.86 1434.68,1017.81 1436.89,1015.8 1439.1,1013.8 1441.3,1011.84 1443.51,1009.89 1445.72,1007.98 1447.92,1006.08 1450.13,1004.21 1452.34,1002.37 1454.55,1000.55 1456.75,998.762 1458.96,996.995 1461.17,995.253 1463.37,993.537 1465.58,991.846 1467.79,990.18 1469.99,988.54 1472.2,986.926 1474.41,985.336 1476.61,983.773 1478.82,982.234 1481.03,980.721 1483.23,979.233 1485.44,977.771 1487.65,976.334 1489.86,974.922 1492.06,1007.85 1494.27,1006.49 1496.48,1005.16 1498.68,1003.85 1500.89,1002.56 1503.1,1001.3 1505.3,1000.06 1507.51,998.848 1509.72,997.661 1511.92,996.498 1514.13,995.359 1516.34,994.244 1518.55,993.154 1520.75,992.087 1522.96,991.044 1525.17,990.026 1527.37,989.03 1529.58,988.058 1531.79,987.109 1533.99,986.183 1536.2,985.281 1538.41,984.401 1540.61,983.543 1542.82,982.708 1545.03,981.895 1547.24,981.104 1549.44,980.334 1551.65,979.587 1553.86,978.86 1556.06,978.155 1558.27,977.47 1560.48,976.807 1562.68,976.163 1564.89,975.54 1567.1,974.937 1569.3,1272.49 1571.51,1271.92 1573.72,1271.38 1575.92,1270.85 1578.13,1270.35 1580.34,1269.86 1582.55,1269.39 1584.75,1268.93 1586.96,1268.5 1589.17,1268.08 1591.37,1267.68 1593.58,1267.29 1595.79,1266.92 1597.99,1266.57 1600.2,1266.23 1602.41,1265.91 1604.61,1265.61 1606.82,1265.31 1609.03,1265.04 1611.24,1264.77 1613.44,1264.52 1615.65,1264.29 1617.86,1264.07 1620.06,1263.85 1622.27,1263.66 1624.48,1263.47 1626.68,1263.33 1628.89,1263.17 1631.1,1263.01 1633.3,1262.87 1635.51,1262.74 1637.72,1262.62 1639.93,1262.51 1642.13,1262.41 1644.34,1262.31 1646.55,1262.23 1648.75,1262.15 1650.96,1262.08 1653.17,1262.02 1655.37,1261.96 1657.58,1261.91 1659.79,1261.87 1661.99,1261.83 1664.2,1261.79 1666.41,1261.77 1668.61,1261.74 1670.82,1261.72 1673.03,1261.71 1675.24,1261.7 1677.44,1261.69 1679.65,1261.68 1681.86,1261.68 1684.06,1261.67 1686.27,1261.67 1688.48,1261.67 1690.68,1261.67 1692.89,1261.67 1695.1,1261.67 1697.3,1261.67 1699.51,1261.67 1701.72,1261.66 1703.93,1261.66 1706.13,1261.65 1708.34,1261.64 1710.55,1261.63 1712.75,1261.61 1714.96,1261.6 1717.17,1261.58 1719.37,1261.55 1721.58,1261.51 1723.79,1261.47 1725.99,1261.43 1728.2,1261.38 1730.41,1261.32 1732.62,1261.26 1734.82,1261.18 1737.03,1261.1 1739.24,1261.02 1741.44,1260.92 1743.65,1260.81 1745.86,1260.7 1748.06,1260.58 1750.27,1260.44 1752.48,1260.3 1754.68,1260.14 1756.89,1259.98 1759.1,1259.8 1761.31,1259.61 1763.51,1259.41 1765.72,1259.19 1767.93,1258.97 1770.13,1258.73 1772.34,1258.47 1774.55,1258.21 1776.75,1257.92 1778.96,1257.63 1781.17,1257.31 1783.37,1256.99 1785.58,1256.64 1787.79,1256.28 1789.99,1255.91 1792.2,1255.52 1794.41,1255.11 1796.62,1254.68 1798.82,1254.24 1801.03,1253.78 1803.24,1253.3 1805.44,1252.8 1807.65,1252.29 1809.86,1251.75 1812.06,1251.2 1814.27,1250.62 1816.48,1250.03 1818.68,1249.42 1820.89,1248.79 1823.1,1248.13 1825.31,1247.46 1827.51,1246.77 1829.72,1246.05 1831.93,1245.31 1834.13,1244.56 1836.34,1243.78 1838.55,1242.98 1840.75,1242.15 1842.96,1241.31 1845.17,1240.44 1847.37,1239.55 1849.58,1238.64 1851.79,1237.7 1854,1236.74 1856.2,1235.76 1858.41,1234.75 1860.62,1233.73 1862.82,1232.67 1865.03,1231.6 1867.24,1230.5 1869.44,1229.37 1871.65,1228.22 1873.86,1227.05 1876.06,1225.85 1878.27,1224.63 1880.48,1223.38 1882.68,1222.11 1884.89,1220.82 1887.1,1219.5 1889.31,1218.15 1891.51,1216.78 1893.72,1215.38 1895.93,1213.96 1898.13,1212.52 1900.34,1211.04 1902.55,1209.55 1904.75,1208.03 1906.96,1206.48 1909.17,1204.9 1911.37,1203.3 1913.58,1201.68 1915.79,1200.03 1918,1198.35 1920.2,1196.65 1922.41,1194.93 1924.62,1193.17 1926.82,1191.4 1929.03,1189.59 1931.24,1187.76 1933.44,1185.91 1935.65,1184.03 1937.86,1182.13 1940.06,1180.2 1942.27,1178.24 1944.48,1176.26 1946.69,1174.26 1948.89,1172.23 1951.1,1170.18 1953.31,1168.1 1955.51,1166 1957.72,1163.87 1959.93,1161.72 1962.13,1159.55 1964.34,1157.35 1966.55,1155.13 1968.75,1152.89 1970.96,1150.62 1973.17,1148.33 1975.37,1146.02 1977.58,1143.68 1979.79,1141.32 1982,1138.94 1984.2,1136.54 1986.41,1134.12 1988.62,1131.67 1990.82,1129.2 1993.03,1126.71 1995.24,1124.2 1997.44,1121.67 1999.65,1119.12 2001.86,1116.54 2004.06,1113.95 2006.27,1111.34 2008.48,1108.7 2010.69,1106.05 2012.89,1103.38 2015.1,1100.69 2017.31,1097.98 2019.51,1095.25 2021.72,1092.5 2023.93,1089.73 2026.13,1086.95 2028.34,1084.15 2030.55,1081.33 2032.75,1078.5 2034.96,1075.65 2037.17,1072.78 2039.38,1069.9 2041.58,1067 2043.79,1064.08 2046,1061.15 2048.2,1058.21 2050.41,1055.25 2052.62,1052.27 2054.82,1049.29 2057.03,1046.28 2059.24,1043.27 2061.44,1040.24 2063.65,1037.2 2065.86,1034.15 2068.07,1031.09 2070.27,1028.01 2072.48,1024.93 2074.69,1021.83 2076.89,1018.73 2079.1,1015.61 2081.31,1012.48 2083.51,1009.35 2085.72,1006.21 2087.93,1003.05 2090.13,999.894 2092.34,996.727 2094.55,993.552 2096.75,990.371 2098.96,987.184 2101.17,983.991 2103.38,980.793 2105.58,977.59 2107.79,1148.51 2110,1145.3 2112.2,1142.08 2114.41,1138.86 2116.62,1135.64 2118.82,1132.41 2121.03,1129.18 2123.24,1125.95 2125.44,1122.72 2127.65,1119.49 2129.86,1116.25 2132.07,1113.02 2134.27,1109.78 2136.48,1106.55 2138.69,1103.31 2140.89,1100.08 2143.1,1096.85 2145.31,1093.62 2147.51,1090.4 2149.72,1087.17 2151.93,1083.95 2154.13,1080.74 2156.34,1077.52 2158.55,1074.32 2160.76,1071.11 2162.96,1067.91 2165.17,1064.72 2167.38,1061.53 2169.58,1058.35 2171.79,1055.18 2174,1052.01 2176.2,1048.85 2178.41,1045.7 2180.62,1042.56 2182.82,1039.42 2185.03,1036.3 2187.24,1033.18 2189.44,1030.07 2191.65,1026.98 2193.86,1023.89 2196.07,1020.82 2198.27,1017.75 2200.48,1014.7 2202.69,1011.66 2204.89,1008.63 2207.1,1005.61 2209.31,1002.61 2211.51,999.616 2213.72,996.639 2215.93,993.676 2218.13,990.727 2220.34,987.793 2222.55,984.874 2224.76,981.97 2226.96,979.081 2229.17,976.209 2231.38,1002.3 2233.58,999.465 2235.79,996.642 2238,993.837 2240.2,991.048 2242.41,988.278 2244.62,985.525 2246.82,982.791 2249.03,980.075 2251.24,977.378 2253.45,1092.24 2255.65,1089.58 2257.86,1086.94 2260.07,1084.32 2262.27,1081.72 2264.48,1079.14 2266.69,1076.59 2268.89,1074.05 2271.1,1071.53 2273.31,1069.04 2275.51,1066.56 2277.72,1064.11 2279.93,1061.68 2282.13,1059.27 2284.34,1056.89 2286.55,1054.52 2288.76,1052.18 2290.96,1049.86 2293.17,1047.57 2295.38,1045.3 2297.58,1043.05 2299.79,1040.82 2302,1038.62 2304.2,1036.45 2306.41,1034.29 2308.62,1032.16 2310.82,1030.06 2313.03,1027.98 2315.24,1025.92 2317.45,1023.89 2319.65,1021.88 2321.86,1019.9 2324.07,1017.94 2326.27,1016.01 2328.48,1014.1 2330.69,1012.22 2332.89,1010.36 2335.1,1008.52 2337.31,1006.72 2339.51,1004.93 2341.72,1003.18 2343.93,1001.45 2346.14,999.74 2348.34,998.059 2350.55,996.404 2352.76,994.774 "/>
<polyline clip-path="url(#clip692)" style="stroke:#c271d2; stroke-linecap:round; stroke-linejoin:round; stroke-width:8; stroke-opacity:1; fill:none" points="148.057,1130.22 150.264,1130.22 152.47,1130.22 154.677,1130.22 156.884,1130.22 159.091,1130.22 161.298,1130.22 163.505,1130.22 165.712,1130.22 167.919,1130.22 170.126,1130.22 172.333,1130.22 174.539,1130.22 176.746,1130.22 178.953,1130.22 181.16,1130.22 183.367,1130.22 185.574,1130.22 187.781,1130.22 189.988,1130.22 192.195,1130.22 194.402,1130.22 196.609,1130.22 198.815,1130.22 201.022,1130.22 203.229,1130.22 205.436,1130.22 207.643,1130.22 209.85,1130.22 212.057,1130.22 214.264,1130.22 216.471,1130.22 218.678,1130.22 220.885,1130.22 223.091,1130.22 225.298,1130.22 227.505,1130.22 229.712,1130.22 231.919,1130.22 234.126,1130.22 236.333,1130.22 238.54,1130.22 240.747,1130.22 242.954,1130.22 245.16,1130.22 247.367,1130.22 249.574,1130.22 251.781,1130.22 253.988,1130.22 256.195,1130.22 258.402,1130.22 260.609,1130.22 262.816,1130.22 265.023,1130.22 267.23,1130.22 269.436,1130.22 271.643,1130.22 273.85,1130.22 276.057,1130.22 278.264,1130.22 280.471,1130.22 282.678,1130.22 284.885,1130.22 287.092,1130.22 289.299,1130.22 291.506,1130.22 293.712,1129.47 295.919,1128.25 298.126,1127.04 300.333,1125.83 302.54,1124.62 304.747,1123.4 306.954,1122.19 309.161,1120.98 311.368,1119.76 313.575,1118.55 315.781,1117.34 317.988,1116.13 320.195,1114.91 322.402,1113.7 324.609,1112.49 326.816,1111.27 329.023,1110.06 331.23,1108.85 333.437,1107.64 335.644,1106.42 337.851,1105.21 340.057,1104 342.264,1102.78 344.471,1100.69 346.678,1098.27 348.885,1095.84 351.092,1093.42 353.299,1090.99 355.506,1088.57 357.713,1086.14 359.92,1083.71 362.127,1081.29 364.333,1078.86 366.54,1076.44 368.747,1074.01 370.954,1071.58 373.161,1069.16 375.368,1066.73 377.575,1064.31 379.782,1061.88 381.989,1059.46 384.196,1057.03 386.402,1054.6 388.609,1052.18 390.816,1049.54 393.023,1045.9 395.23,1042.27 397.437,1038.63 399.644,1034.99 401.851,1031.35 404.058,1027.71 406.265,1024.07 408.472,1020.43 410.678,1016.79 412.885,1013.16 415.092,1009.52 417.299,1005.88 419.506,1002.24 421.713,998.6 423.92,994.962 426.127,991.323 428.334,987.684 430.541,984.045 432.748,980.407 434.954,976.768 437.161,1199.98 439.368,1197.56 441.575,1195.13 443.782,1192.7 445.989,1190.28 448.196,1187.85 450.403,1185.43 452.61,1183 454.817,1180.58 457.023,1178.15 459.23,1175.72 461.437,1173.3 463.644,1170.87 465.851,1168.45 468.058,1166.02 470.265,1163.59 472.472,1161.17 474.679,1158.74 476.886,1156.32 479.093,1153.89 481.299,1151.47 483.506,1149.04 485.713,1146.61 487.92,1144.19 490.127,1141.76 492.334,1139.34 494.541,1136.91 496.748,1134.48 498.955,1132.06 501.162,1129.63 503.369,1127.21 505.575,1124.78 507.782,1122.36 509.989,1119.93 512.196,1117.5 514.403,1115.08 516.61,1112.65 518.817,1110.23 521.024,1107.8 523.231,1105.37 525.438,1102.95 527.644,1100.52 529.851,1098.1 532.058,1095.67 534.265,1093.25 536.472,1090.82 538.679,1088.39 540.886,1085.97 543.093,1083.54 545.3,1081.12 547.507,1078.69 549.714,1076.26 551.92,1073.84 554.127,1071.41 556.334,1068.99 558.541,1066.56 560.748,1064.14 562.955,1061.71 565.162,1059.28 567.369,1056.86 569.576,1054.43 571.783,1052.01 573.99,1049.58 576.196,1047.15 578.403,1044.73 580.61,1042.3 582.817,1039.88 585.024,1037.45 587.231,1035.02 589.438,1032.6 591.645,1030.17 593.852,1027.75 596.059,1025.32 598.265,1022.9 600.472,1020.47 602.679,1018.04 604.886,1015.62 607.093,1013.19 609.3,1010.77 611.507,1008.34 613.714,1005.91 615.921,1003.49 618.128,1001.06 620.335,998.637 622.541,996.212 624.748,993.786 626.955,991.36 629.162,988.934 631.369,986.508 633.576,984.082 635.783,981.657 637.99,979.231 640.197,976.805 642.404,1384.24 644.611,1383.03 646.817,1381.81 649.024,1380.6 651.231,1379.39 653.438,1378.17 655.645,1376.96 657.852,1375.75 660.059,1374.53 662.266,1373.32 664.473,1372.11 666.68,1370.9 668.886,1369.68 671.093,1368.47 673.3,1367.26 675.507,1366.04 677.714,1364.83 679.921,1363.62 682.128,1362.41 684.335,1361.19 686.542,1359.98 688.749,1358.77 690.956,1357.55 693.162,1356.34 695.369,1355.13 697.576,1353.92 699.783,1352.7 701.99,1351.49 704.197,1350.28 706.404,1349.06 708.611,1347.85 710.818,1346.64 713.025,1345.42 715.232,1344.21 717.438,1343 719.645,1341.79 721.852,1340.57 724.059,1339.36 726.266,1338.15 728.473,1336.93 730.68,1335.72 732.887,1334.51 735.094,1333.3 737.301,1332.08 739.507,1330.87 741.714,1329.66 743.921,1328.44 746.128,1327.23 748.335,1326.02 750.542,1324.81 752.749,1323.59 754.956,1322.38 757.163,1321.17 759.37,1319.95 761.577,1318.74 763.783,1317.53 765.99,1316.31 768.197,1315.1 770.404,1313.89 772.611,1312.68 774.818,1311.46 777.025,1310.25 779.232,1309.04 781.439,1307.82 783.646,1306.61 785.853,1305.4 788.059,1304.19 790.266,1302.97 792.473,1301.76 794.68,1300.55 796.887,1299.33 799.094,1298.12 801.301,1296.91 803.508,1295.7 805.715,1294.48 807.922,1293.27 810.128,1292.06 812.335,1290.84 814.542,1289.63 816.749,1288.42 818.956,1287.2 821.163,1285.99 823.37,1284.78 825.577,1283.57 827.784,1282.35 829.991,1281.14 832.198,1279.93 834.404,1278.71 836.611,1277.5 838.818,1276.29 841.025,1275.08 843.232,1273.86 845.439,1272.65 847.646,1271.44 849.853,1270.22 852.06,1269.01 854.267,1267.8 856.474,1266.59 858.68,1265.37 860.887,1264.16 863.094,1262.95 865.301,1261.73 867.508,1260.52 869.715,1259.31 871.922,1258.09 874.129,1256.88 876.336,1255.67 878.543,1254.46 880.749,1253.24 882.956,1252.03 885.163,1250.82 887.37,1249.6 889.577,1248.39 891.784,1247.18 893.991,1245.97 896.198,1244.75 898.405,1243.54 900.612,1242.33 902.819,1241.11 905.025,1239.9 907.232,1238.69 909.439,1237.48 911.646,1236.26 913.853,1235.05 916.06,1233.84 918.267,1232.62 920.474,1231.41 922.681,1230.2 924.888,1228.98 927.095,1227.77 929.301,1226.56 931.508,1225.35 933.715,1224.13 935.922,1222.92 938.129,1221.71 940.336,1220.49 942.543,1219.28 944.75,1218.07 946.957,1216.86 949.164,1215.64 951.37,1214.43 953.577,1213.22 955.784,1212 957.991,1210.79 960.198,1209.58 962.405,1208.36 964.612,1207.15 966.819,1205.94 969.026,1204.73 971.233,1203.51 973.44,1202.3 975.646,1201.09 977.853,1199.87 980.06,1198.66 982.267,1197.45 984.474,1196.24 986.681,1195.02 988.888,1193.81 991.095,1192.6 993.302,1191.38 995.509,1190.17 997.715,1188.96 999.922,1187.75 1002.13,1186.53 1004.34,1185.32 1006.54,1184.11 1008.75,1182.89 1010.96,1181.68 1013.16,1180.47 1015.37,1179.25 1017.58,1178.04 1019.78,1176.83 1021.99,1175.62 1024.2,1174.4 1026.41,1173.19 1028.61,1171.98 1030.82,1170.76 1033.03,1169.55 1035.23,1168.34 1037.44,1167.13 1039.65,1165.91 1041.85,1164.7 1044.06,1163.49 1046.27,1162.27 1048.47,1161.06 1050.68,1159.85 1052.89,1158.64 1055.1,1157.42 1057.3,1156.21 1059.51,1155 1061.72,1153.78 1063.92,1152.57 1066.13,1151.36 1068.34,1150.14 1070.54,1148.93 1072.75,1147.72 1074.96,1146.51 1077.16,1145.29 1079.37,1144.08 1081.58,1142.87 1083.78,1141.65 1085.99,1139.29 1088.2,1136.87 1090.41,1134.44 1092.61,1132.01 1094.82,1129.59 1097.03,1127.16 1099.23,1124.74 1101.44,1122.31 1103.65,1119.88 1105.85,1117.46 1108.06,1115.03 1110.27,1112.61 1112.47,1110.18 1114.68,1107.76 1116.89,1105.33 1119.1,1102.9 1121.3,1100.48 1123.51,1098.05 1125.72,1095.63 1127.92,1093.2 1130.13,1090.77 1132.34,1088.35 1134.54,1085.92 1136.75,1083.5 1138.96,1081.07 1141.16,1078.65 1143.37,1076.22 1145.58,1073.79 1147.79,1071.37 1149.99,1068.94 1152.2,1066.52 1154.41,1064.09 1156.61,1061.66 1158.82,1059.24 1161.03,1056.81 1163.23,1054.39 1165.44,1051.96 1167.65,1049.54 1169.85,1047.11 1172.06,1044.68 1174.27,1042.26 1176.47,1039.83 1178.68,1037.41 1180.89,1034.98 1183.1,1032.55 1185.3,1030.13 1187.51,1027.7 1189.72,1025.28 1191.92,1022.85 1194.13,1020.43 1196.34,1018 1198.54,1015.57 1200.75,1013.15 1202.96,1010.4 1205.16,1006.76 1207.37,1003.12 1209.58,999.482 1211.79,995.843 1213.99,992.205 1216.2,988.566 1218.41,984.927 1220.61,981.288 1222.82,977.65 1225.03,1201.45 1227.23,1199.03 1229.44,1196.6 1231.65,1194.18 1233.85,1191.75 1236.06,1189.33 1238.27,1186.9 1240.48,1184.47 1242.68,1182.05 1244.89,1179.62 1247.1,1177.2 1249.3,1174.77 1251.51,1172.34 1253.72,1169.92 1255.92,1167.49 1258.13,1165.07 1260.34,1162.64 1262.54,1160.22 1264.75,1157.79 1266.96,1155.36 1269.16,1152.94 1271.37,1150.51 1273.58,1148.09 1275.79,1145.66 1277.99,1143.23 1280.2,1140.81 1282.41,1138.38 1284.61,1135.96 1286.82,1133.53 1289.03,1131.11 1291.23,1128.68 1293.44,1126.25 1295.65,1123.83 1297.85,1121.4 1300.06,1118.98 1302.27,1116.55 1304.48,1114.12 1306.68,1111.7 1308.89,1109.27 1311.1,1106.85 1313.3,1104.42 1315.51,1102 1317.72,1099.57 1319.92,1097.14 1322.13,1094.72 1324.34,1092.29 1326.54,1089.87 1328.75,1087.44 1330.96,1085.01 1333.17,1081.73 1335.37,1078.09 1337.58,1074.46 1339.79,1070.82 1341.99,1067.18 1344.2,1063.54 1346.41,1059.9 1348.61,1056.26 1350.82,1052.62 1353.03,1048.98 1355.23,1044.47 1357.44,1039.62 1359.65,1034.77 1361.86,1029.91 1364.06,1025.06 1366.27,1020.21 1368.48,1015.36 1370.68,1010.51 1372.89,1005.66 1375.1,1000.8 1377.3,995.952 1379.51,991.1 1381.72,986.249 1383.92,981.397 1386.13,976.545 1388.34,980.897 1390.54,977.259 1392.75,984.385 1394.96,981.959 1397.17,979.533 1399.37,977.107 1401.58,1278.57 1403.79,1277.36 1405.99,1276.14 1408.2,1274.93 1410.41,1273.72 1412.61,1272.5 1414.82,1271.29 1417.03,1270.08 1419.23,1268.86 1421.44,1267.65 1423.65,1266.44 1425.86,1265.23 1428.06,1264.01 1430.27,1262.8 1432.48,1261.59 1434.68,1260.37 1436.89,1259.16 1439.1,1257.95 1441.3,1256.74 1443.51,1255.52 1445.72,1254.31 1447.92,1253.1 1450.13,1251.88 1452.34,1250.67 1454.55,1249.46 1456.75,1248.25 1458.96,1247.03 1461.17,1245.82 1463.37,1244.61 1465.58,1243.39 1467.79,1242.18 1469.99,1240.97 1472.2,1239.75 1474.41,1238.54 1476.61,1237.33 1478.82,1236.12 1481.03,1234.9 1483.23,1233.69 1485.44,1232.48 1487.65,1231.26 1489.86,1230.05 1492.06,1227.74 1494.27,1224.1 1496.48,1220.46 1498.68,1216.82 1500.89,1213.18 1503.1,1209.54 1505.3,1205.9 1507.51,1202.26 1509.72,1198.63 1511.92,1194.99 1514.13,1191.35 1516.34,1187.71 1518.55,1184.07 1520.75,1180.43 1522.96,1176.79 1525.17,1173.15 1527.37,1169.52 1529.58,1165.88 1531.79,1162.24 1533.99,1158.6 1536.2,1154.96 1538.41,1151.32 1540.61,1147.68 1542.82,1144.04 1545.03,1140.4 1547.24,1136.77 1549.44,1133.13 1551.65,1129.49 1553.86,1125.85 1556.06,1122.21 1558.27,1118.57 1560.48,1114.93 1562.68,1111.29 1564.89,1107.66 1567.1,1104.02 1569.3,1099.54 1571.51,1094.68 1573.72,1089.83 1575.92,1084.98 1578.13,1080.13 1580.34,1075.28 1582.55,1070.43 1584.75,1065.57 1586.96,1060.72 1589.17,1055.87 1591.37,1051.02 1593.58,1046.17 1595.79,1041.32 1597.99,1036.46 1600.2,1031.61 1602.41,1026.76 1604.61,1021.91 1606.82,1017.06 1609.03,1012.21 1611.24,1007.35 1613.44,1002.5 1615.65,997.65 1617.86,992.799 1620.06,987.947 1622.27,983.095 1624.48,978.244 1626.68,1118.73 1628.89,1115.09 1631.1,1111.45 1633.3,1107.81 1635.51,1104.17 1637.72,1100.53 1639.93,1096.89 1642.13,1093.25 1644.34,1089.61 1646.55,1085.98 1648.75,1082.34 1650.96,1078.7 1653.17,1075.06 1655.37,1071.42 1657.58,1067.78 1659.79,1064.14 1661.99,1060.5 1664.2,1056.87 1666.41,1053.23 1668.61,1049.59 1670.82,1045.95 1673.03,1042.31 1675.24,1038.67 1677.44,1035.03 1679.65,1031.39 1681.86,1027.76 1684.06,1024.12 1686.27,1020.48 1688.48,1016.84 1690.68,1013.2 1692.89,1009.56 1695.1,1005.92 1697.3,1002.28 1699.51,998.646 1701.72,995.007 1703.93,991.369 1706.13,987.73 1708.34,984.091 1710.55,980.452 1712.75,976.813 1714.96,985.863 1717.17,983.437 1719.37,981.011 1721.58,978.585 1723.79,976.16 1725.99,977.833 1728.2,976.62 1730.41,975.407 1732.62,1084.15 1734.82,1084.15 1737.03,1084.15 1739.24,1084.15 1741.44,1084.15 1743.65,1084.15 1745.86,1084.15 1748.06,1084.15 1750.27,1084.15 1752.48,1084.15 1754.68,1084.15 1756.89,1084.15 1759.1,1084.15 1761.31,1084.15 1763.51,1084.15 1765.72,1084.15 1767.93,1084.15 1770.13,1084.15 1772.34,1084.15 1774.55,1084.15 1776.75,1084.15 1778.96,1084.15 1781.17,1084.15 1783.37,1084.15 1785.58,1084.15 1787.79,1084.15 1789.99,1084.15 1792.2,1084.15 1794.41,1084.15 1796.62,1084.15 1798.82,1084.15 1801.03,1084.15 1803.24,1084.15 1805.44,1084.15 1807.65,1084.15 1809.86,1084.15 1812.06,1084.15 1814.27,1084.15 1816.48,1084.15 1818.68,1084.15 1820.89,1084.15 1823.1,1084.15 1825.31,1084.15 1827.51,1084.15 1829.72,1084.15 1831.93,1084.15 1834.13,1084.15 1836.34,1084.15 1838.55,1084.15 1840.75,1084.15 1842.96,1084.15 1845.17,1084.15 1847.37,1084.15 1849.58,1084.15 1851.79,1084.15 1854,1084.15 1856.2,1084.15 1858.41,1084.15 1860.62,1084.15 1862.82,1084.15 1865.03,1084.15 1867.24,1084.15 1869.44,1084.15 1871.65,1084.15 1873.86,1084.15 1876.06,1084.15 1878.27,1084.15 1880.48,1084.15 1882.68,1084.15 1884.89,1084.15 1887.1,1084.15 1889.31,1084.15 1891.51,1084.15 1893.72,1084.15 1895.93,1084.15 1898.13,1084.15 1900.34,1084.15 1902.55,1084.15 1904.75,1084.15 1906.96,1084.15 1909.17,1084.15 1911.37,1084.15 1913.58,1084.15 1915.79,1084.15 1918,1084.15 1920.2,1084.15 1922.41,1084.15 1924.62,1084.15 1926.82,1084.15 1929.03,1084.15 1931.24,1084.15 1933.44,1084.15 1935.65,1084.15 1937.86,1084.15 1940.06,1084.15 1942.27,1084.15 1944.48,1084.15 1946.69,1084.15 1948.89,1084.15 1951.1,1084.15 1953.31,1084.15 1955.51,1084.15 1957.72,1084.15 1959.93,1084.15 1962.13,1084.15 1964.34,1084.15 1966.55,1084.15 1968.75,1084.15 1970.96,1084.15 1973.17,1084.15 1975.37,1084.15 1977.58,1084.15 1979.79,1084.15 1982,1084.15 1984.2,1084.15 1986.41,1084.15 1988.62,1084.15 1990.82,1084.15 1993.03,1084.15 1995.24,1084.15 1997.44,1084.15 1999.65,1084.15 2001.86,1084.15 2004.06,1084.15 2006.27,1084.15 2008.48,1084.15 2010.69,1084.15 2012.89,1084.15 2015.1,1084.15 2017.31,1084.15 2019.51,1084.15 2021.72,1084.15 2023.93,1084.15 2026.13,1084.15 2028.34,1084.15 2030.55,1084.15 2032.75,1084.15 2034.96,1084.15 2037.17,1084.15 2039.38,1084.15 2041.58,1084.15 2043.79,1084.15 2046,1084.15 2048.2,1084.15 2050.41,1084.15 2052.62,1084.15 2054.82,1084.15 2057.03,1084.15 2059.24,1084.15 2061.44,1084.15 2063.65,1084.15 2065.86,1084.15 2068.07,1084.15 2070.27,1084.15 2072.48,1084.15 2074.69,1084.15 2076.89,1084.15 2079.1,1084.15 2081.31,1084.15 2083.51,1084.15 2085.72,1084.15 2087.93,1084.15 2090.13,1084.15 2092.34,1084.15 2094.55,1084.15 2096.75,1084.15 2098.96,1084.15 2101.17,1084.15 2103.38,1084.15 2105.58,1084.15 2107.79,1084.02 2110,1082.8 2112.2,1081.59 2114.41,1080.38 2116.62,1079.17 2118.82,1077.95 2121.03,1076.74 2123.24,1075.53 2125.44,1074.31 2127.65,1073.1 2129.86,1071.89 2132.07,1070.67 2134.27,1069.46 2136.48,1068.25 2138.69,1067.04 2140.89,1065.82 2143.1,1064.61 2145.31,1063.4 2147.51,1062.18 2149.72,1060.97 2151.93,1059.76 2154.13,1058.55 2156.34,1057.33 2158.55,1056.12 2160.76,1054.91 2162.96,1053.69 2165.17,1052.48 2167.38,1051.27 2169.58,1050.06 2171.79,1048.84 2174,1047.63 2176.2,1046.42 2178.41,1045.2 2180.62,1043.99 2182.82,1042.78 2185.03,1041.56 2187.24,1040.35 2189.44,1039.14 2191.65,1037.93 2193.86,1036.71 2196.07,1035.5 2198.27,1034.29 2200.48,1033.07 2202.69,1031.86 2204.89,1030.65 2207.1,1029.44 2209.31,1028.22 2211.51,1027.01 2213.72,1025.8 2215.93,1024.58 2218.13,1023.37 2220.34,1022.16 2222.55,1020.94 2224.76,1019.73 2226.96,1018.52 2229.17,1017.31 2231.38,1015.49 2233.58,1013.06 2235.79,1010.63 2238,1008.21 2240.2,1005.78 2242.41,1003.36 2244.62,1000.93 2246.82,998.505 2249.03,996.079 2251.24,993.653 2253.45,991.194 2255.65,987.556 2257.86,983.917 2260.07,980.278 2262.27,976.639 2264.48,1166.58 2266.69,1164.16 2268.89,1161.73 2271.1,1159.31 2273.31,1156.88 2275.51,1154.45 2277.72,1152.03 2279.93,1149.6 2282.13,1147.18 2284.34,1144.75 2286.55,1142.33 2288.76,1139.9 2290.96,1137.47 2293.17,1135.05 2295.38,1132.62 2297.58,1130.2 2299.79,1127.77 2302,1125.34 2304.2,1122.92 2306.41,1120.49 2308.62,1118.07 2310.82,1115.64 2313.03,1113.22 2315.24,1110.79 2317.45,1108.36 2319.65,1105.94 2321.86,1103.51 2324.07,1101.09 2326.27,1098.66 2328.48,1096.23 2330.69,1093.81 2332.89,1091.38 2335.1,1088.96 2337.31,1086.53 2339.51,1084.11 2341.72,1081.68 2343.93,1079.25 2346.14,1076.83 2348.34,1074.4 2350.55,1071.98 2352.76,1069.55 "/>
<path clip-path="url(#clip690)" d="M221.547 352.309 L525.373 352.309 L525.373 93.1086 L221.547 93.1086  Z" fill="#ffffff" fill-rule="evenodd" fill-opacity="1"/>
<polyline clip-path="url(#clip690)" style="stroke:#000000; stroke-linecap:round; stroke-linejoin:round; stroke-width:4; stroke-opacity:1; fill:none" points="221.547,352.309 525.373,352.309 525.373,93.1086 221.547,93.1086 221.547,352.309 "/>
<polyline clip-path="url(#clip690)" style="stroke:#009af9; stroke-linecap:round; stroke-linejoin:round; stroke-width:8; stroke-opacity:1; fill:none" points="246.043,144.949 393.023,144.949 "/>
<path clip-path="url(#clip690)" d="M417.52 127.669 L423.816 127.669 L439.14 156.581 L439.14 127.669 L443.677 127.669 L443.677 162.229 L437.381 162.229 L422.057 133.317 L422.057 162.229 L417.52 162.229 L417.52 127.669 Z" fill="#000000" fill-rule="nonzero" fill-opacity="1" /><path clip-path="url(#clip690)" d="M463.029 126.257 Q459.927 131.581 458.422 136.789 Q456.918 141.997 456.918 147.344 Q456.918 152.692 458.422 157.946 Q459.95 163.178 463.029 168.479 L459.325 168.479 Q455.853 163.039 454.117 157.784 Q452.404 152.53 452.404 147.344 Q452.404 142.182 454.117 136.951 Q455.83 131.72 459.325 126.257 L463.029 126.257 Z" fill="#000000" fill-rule="nonzero" fill-opacity="1" /><path clip-path="url(#clip690)" d="M475.506 128.942 L475.506 136.303 L484.279 136.303 L484.279 139.613 L475.506 139.613 L475.506 153.687 Q475.506 156.858 476.362 157.761 Q477.242 158.664 479.904 158.664 L484.279 158.664 L484.279 162.229 L479.904 162.229 Q474.973 162.229 473.098 160.4 Q471.223 158.548 471.223 153.687 L471.223 139.613 L468.098 139.613 L468.098 136.303 L471.223 136.303 L471.223 128.942 L475.506 128.942 Z" fill="#000000" fill-rule="nonzero" fill-opacity="1" /><path clip-path="url(#clip690)" d="M489.209 126.257 L492.913 126.257 Q496.385 131.72 498.098 136.951 Q499.834 142.182 499.834 147.344 Q499.834 152.53 498.098 157.784 Q496.385 163.039 492.913 168.479 L489.209 168.479 Q492.288 163.178 493.793 157.946 Q495.32 152.692 495.32 147.344 Q495.32 141.997 493.793 136.789 Q492.288 131.581 489.209 126.257 Z" fill="#000000" fill-rule="nonzero" fill-opacity="1" /><polyline clip-path="url(#clip690)" style="stroke:#e26f46; stroke-linecap:round; stroke-linejoin:round; stroke-width:8; stroke-opacity:1; fill:none" points="246.043,196.789 393.023,196.789 "/>
<path clip-path="url(#clip690)" d="M422.196 183.351 L422.196 210.226 L427.844 210.226 Q434.997 210.226 438.307 206.985 Q441.64 203.745 441.64 196.754 Q441.64 189.809 438.307 186.592 Q434.997 183.351 427.844 183.351 L422.196 183.351 M417.52 179.509 L427.126 179.509 Q437.173 179.509 441.872 183.698 Q446.571 187.865 446.571 196.754 Q446.571 205.689 441.848 209.879 Q437.126 214.069 427.126 214.069 L417.52 214.069 L417.52 179.509 Z" fill="#000000" fill-rule="nonzero" fill-opacity="1" /><path clip-path="url(#clip690)" d="M464.071 178.097 Q460.969 183.421 459.464 188.629 Q457.959 193.837 457.959 199.184 Q457.959 204.532 459.464 209.786 Q460.992 215.018 464.071 220.319 L460.367 220.319 Q456.895 214.879 455.159 209.624 Q453.446 204.37 453.446 199.184 Q453.446 194.022 455.159 188.791 Q456.872 183.56 460.367 178.097 L464.071 178.097 Z" fill="#000000" fill-rule="nonzero" fill-opacity="1" /><path clip-path="url(#clip690)" d="M476.547 180.782 L476.547 188.143 L485.32 188.143 L485.32 191.453 L476.547 191.453 L476.547 205.527 Q476.547 208.698 477.404 209.601 Q478.283 210.504 480.945 210.504 L485.32 210.504 L485.32 214.069 L480.945 214.069 Q476.015 214.069 474.14 212.24 Q472.265 210.388 472.265 205.527 L472.265 191.453 L469.14 191.453 L469.14 188.143 L472.265 188.143 L472.265 180.782 L476.547 180.782 Z" fill="#000000" fill-rule="nonzero" fill-opacity="1" /><path clip-path="url(#clip690)" d="M490.251 178.097 L493.955 178.097 Q497.427 183.56 499.14 188.791 Q500.876 194.022 500.876 199.184 Q500.876 204.37 499.14 209.624 Q497.427 214.879 493.955 220.319 L490.251 220.319 Q493.33 215.018 494.834 209.786 Q496.362 204.532 496.362 199.184 Q496.362 193.837 494.834 188.629 Q493.33 183.421 490.251 178.097 Z" fill="#000000" fill-rule="nonzero" fill-opacity="1" /><polyline clip-path="url(#clip690)" style="stroke:#3da44d; stroke-linecap:round; stroke-linejoin:round; stroke-width:8; stroke-opacity:1; fill:none" points="246.043,248.629 393.023,248.629 "/>
<path clip-path="url(#clip690)" d="M417.52 231.349 L423.816 231.349 L439.14 260.261 L439.14 231.349 L443.677 231.349 L443.677 265.909 L437.381 265.909 L422.057 236.997 L422.057 265.909 L417.52 265.909 L417.52 231.349 Z" fill="#000000" fill-rule="nonzero" fill-opacity="1" /><path clip-path="url(#clip690)" d="M463.029 229.937 Q459.927 235.261 458.422 240.469 Q456.918 245.677 456.918 251.024 Q456.918 256.372 458.422 261.626 Q459.95 266.858 463.029 272.159 L459.325 272.159 Q455.853 266.719 454.117 261.464 Q452.404 256.21 452.404 251.024 Q452.404 245.862 454.117 240.631 Q455.83 235.4 459.325 229.937 L463.029 229.937 Z" fill="#000000" fill-rule="nonzero" fill-opacity="1" /><path clip-path="url(#clip690)" d="M475.506 232.622 L475.506 239.983 L484.279 239.983 L484.279 243.293 L475.506 243.293 L475.506 257.367 Q475.506 260.538 476.362 261.441 Q477.242 262.344 479.904 262.344 L484.279 262.344 L484.279 265.909 L479.904 265.909 Q474.973 265.909 473.098 264.08 Q471.223 262.228 471.223 257.367 L471.223 243.293 L468.098 243.293 L468.098 239.983 L471.223 239.983 L471.223 232.622 L475.506 232.622 Z" fill="#000000" fill-rule="nonzero" fill-opacity="1" /><path clip-path="url(#clip690)" d="M489.209 229.937 L492.913 229.937 Q496.385 235.4 498.098 240.631 Q499.834 245.862 499.834 251.024 Q499.834 256.21 498.098 261.464 Q496.385 266.719 492.913 272.159 L489.209 272.159 Q492.288 266.858 493.793 261.626 Q495.32 256.372 495.32 251.024 Q495.32 245.677 493.793 240.469 Q492.288 235.261 489.209 229.937 Z" fill="#000000" fill-rule="nonzero" fill-opacity="1" /><polyline clip-path="url(#clip690)" style="stroke:#c271d2; stroke-linecap:round; stroke-linejoin:round; stroke-width:8; stroke-opacity:1; fill:none" points="246.043,300.469 393.023,300.469 "/>
<path clip-path="url(#clip690)" d="M422.196 287.031 L422.196 313.906 L427.844 313.906 Q434.997 313.906 438.307 310.665 Q441.64 307.425 441.64 300.434 Q441.64 293.489 438.307 290.272 Q434.997 287.031 427.844 287.031 L422.196 287.031 M417.52 283.189 L427.126 283.189 Q437.173 283.189 441.872 287.378 Q446.571 291.545 446.571 300.434 Q446.571 309.369 441.848 313.559 Q437.126 317.749 427.126 317.749 L417.52 317.749 L417.52 283.189 Z" fill="#000000" fill-rule="nonzero" fill-opacity="1" /><path clip-path="url(#clip690)" d="M464.071 281.777 Q460.969 287.101 459.464 292.309 Q457.959 297.517 457.959 302.864 Q457.959 308.212 459.464 313.466 Q460.992 318.698 464.071 323.999 L460.367 323.999 Q456.895 318.559 455.159 313.304 Q453.446 308.05 453.446 302.864 Q453.446 297.702 455.159 292.471 Q456.872 287.24 460.367 281.777 L464.071 281.777 Z" fill="#000000" fill-rule="nonzero" fill-opacity="1" /><path clip-path="url(#clip690)" d="M476.547 284.462 L476.547 291.823 L485.32 291.823 L485.32 295.133 L476.547 295.133 L476.547 309.207 Q476.547 312.378 477.404 313.281 Q478.283 314.184 480.945 314.184 L485.32 314.184 L485.32 317.749 L480.945 317.749 Q476.015 317.749 474.14 315.92 Q472.265 314.068 472.265 309.207 L472.265 295.133 L469.14 295.133 L469.14 291.823 L472.265 291.823 L472.265 284.462 L476.547 284.462 Z" fill="#000000" fill-rule="nonzero" fill-opacity="1" /><path clip-path="url(#clip690)" d="M490.251 281.777 L493.955 281.777 Q497.427 287.24 499.14 292.471 Q500.876 297.702 500.876 302.864 Q500.876 308.05 499.14 313.304 Q497.427 318.559 493.955 323.999 L490.251 323.999 Q493.33 318.698 494.834 313.466 Q496.362 308.212 496.362 302.864 Q496.362 297.517 494.834 292.309 Q493.33 287.101 490.251 281.777 Z" fill="#000000" fill-rule="nonzero" fill-opacity="1" /></svg>
