<?xml version="1.0" encoding="utf-8"?>
<svg xmlns="http://www.w3.org/2000/svg" xmlns:xlink="http://www.w3.org/1999/xlink" width="600" height="400" viewBox="0 0 2400 1600">
<defs>
  <clipPath id="clip000">
    <rect x="0" y="0" width="2400" height="1600"/>
  </clipPath>
</defs>
<path clip-path="url(#clip000)" d="M0 1600 L2400 1600 L2400 0 L0 0  Z" fill="#ffffff" fill-rule="evenodd" fill-opacity="1"/>
<defs>
  <clipPath id="clip001">
    <rect x="480" y="0" width="1681" height="1600"/>
  </clipPath>
</defs>
<path clip-path="url(#clip000)" d="M140.696 1423.18 L2352.76 1423.18 L2352.76 47.2441 L140.696 47.2441  Z" fill="#ffffff" fill-rule="evenodd" fill-opacity="1"/>
<defs>
  <clipPath id="clip002">
    <rect x="140" y="47" width="2213" height="1377"/>
  </clipPath>
</defs>
<polyline clip-path="url(#clip002)" style="stroke:#000000; stroke-linecap:round; stroke-linejoin:round; stroke-width:2; stroke-opacity:0.1; fill:none" points="140.696,1423.18 140.696,47.2441 "/>
<polyline clip-path="url(#clip002)" style="stroke:#000000; stroke-linecap:round; stroke-linejoin:round; stroke-width:2; stroke-opacity:0.1; fill:none" points="583.108,1423.18 583.108,47.2441 "/>
<polyline clip-path="url(#clip002)" style="stroke:#000000; stroke-linecap:round; stroke-linejoin:round; stroke-width:2; stroke-opacity:0.1; fill:none" points="1025.52,1423.18 1025.52,47.2441 "/>
<polyline clip-path="url(#clip002)" style="stroke:#000000; stroke-linecap:round; stroke-linejoin:round; stroke-width:2; stroke-opacity:0.1; fill:none" points="1467.93,1423.18 1467.93,47.2441 "/>
<polyline clip-path="url(#clip002)" style="stroke:#000000; stroke-linecap:round; stroke-linejoin:round; stroke-width:2; stroke-opacity:0.1; fill:none" points="1910.34,1423.18 1910.34,47.2441 "/>
<polyline clip-path="url(#clip002)" style="stroke:#000000; stroke-linecap:round; stroke-linejoin:round; stroke-width:2; stroke-opacity:0.1; fill:none" points="2352.76,1423.18 2352.76,47.2441 "/>
<polyline clip-path="url(#clip000)" style="stroke:#000000; stroke-linecap:round; stroke-linejoin:round; stroke-width:4; stroke-opacity:1; fill:none" points="140.696,1423.18 2352.76,1423.18 "/>
<polyline clip-path="url(#clip000)" style="stroke:#000000; stroke-linecap:round; stroke-linejoin:round; stroke-width:4; stroke-opacity:1; fill:none" points="140.696,1423.18 140.696,1404.28 "/>
<polyline clip-path="url(#clip000)" style="stroke:#000000; stroke-linecap:round; stroke-linejoin:round; stroke-width:4; stroke-opacity:1; fill:none" points="583.108,1423.18 583.108,1404.28 "/>
<polyline clip-path="url(#clip000)" style="stroke:#000000; stroke-linecap:round; stroke-linejoin:round; stroke-width:4; stroke-opacity:1; fill:none" points="1025.52,1423.18 1025.52,1404.28 "/>
<polyline clip-path="url(#clip000)" style="stroke:#000000; stroke-linecap:round; stroke-linejoin:round; stroke-width:4; stroke-opacity:1; fill:none" points="1467.93,1423.18 1467.93,1404.28 "/>
<polyline clip-path="url(#clip000)" style="stroke:#000000; stroke-linecap:round; stroke-linejoin:round; stroke-width:4; stroke-opacity:1; fill:none" points="1910.34,1423.18 1910.34,1404.28 "/>
<polyline clip-path="url(#clip000)" style="stroke:#000000; stroke-linecap:round; stroke-linejoin:round; stroke-width:4; stroke-opacity:1; fill:none" points="2352.76,1423.18 2352.76,1404.28 "/>
<path clip-path="url(#clip000)" d="M140.696 1454.1 Q137.084 1454.1 135.256 1457.66 Q133.45 1461.2 133.45 1468.33 Q133.45 1475.44 135.256 1479.01 Q137.084 1482.55 140.696 1482.55 Q144.33 1482.55 146.135 1479.01 Q147.964 1475.44 147.964 1468.33 Q147.964 1461.2 146.135 1457.66 Q144.33 1454.1 140.696 1454.1 M140.696 1450.39 Q146.506 1450.39 149.561 1455 Q152.64 1459.58 152.64 1468.33 Q152.64 1477.06 149.561 1481.67 Q146.506 1486.25 140.696 1486.25 Q134.885 1486.25 131.807 1481.67 Q128.751 1477.06 128.751 1468.33 Q128.751 1459.58 131.807 1455 Q134.885 1450.39 140.696 1450.39 Z" fill="#000000" fill-rule="nonzero" fill-opacity="1" /><path clip-path="url(#clip000)" d="M577.76 1481.64 L594.08 1481.64 L594.08 1485.58 L572.135 1485.58 L572.135 1481.64 Q574.797 1478.89 579.381 1474.26 Q583.987 1469.61 585.168 1468.27 Q587.413 1465.74 588.293 1464.01 Q589.196 1462.25 589.196 1460.56 Q589.196 1457.8 587.251 1456.07 Q585.33 1454.33 582.228 1454.33 Q580.029 1454.33 577.575 1455.09 Q575.145 1455.86 572.367 1457.41 L572.367 1452.69 Q575.191 1451.55 577.645 1450.97 Q580.098 1450.39 582.135 1450.39 Q587.506 1450.39 590.7 1453.08 Q593.895 1455.77 593.895 1460.26 Q593.895 1462.39 593.084 1464.31 Q592.297 1466.2 590.191 1468.8 Q589.612 1469.47 586.51 1472.69 Q583.409 1475.88 577.76 1481.64 Z" fill="#000000" fill-rule="nonzero" fill-opacity="1" /><path clip-path="url(#clip000)" d="M1028.53 1455.09 L1016.72 1473.54 L1028.53 1473.54 L1028.53 1455.09 M1027.3 1451.02 L1033.18 1451.02 L1033.18 1473.54 L1038.11 1473.54 L1038.11 1477.43 L1033.18 1477.43 L1033.18 1485.58 L1028.53 1485.58 L1028.53 1477.43 L1012.93 1477.43 L1012.93 1472.92 L1027.3 1451.02 Z" fill="#000000" fill-rule="nonzero" fill-opacity="1" /><path clip-path="url(#clip000)" d="M1468.34 1466.44 Q1465.19 1466.44 1463.34 1468.59 Q1461.51 1470.74 1461.51 1474.49 Q1461.51 1478.22 1463.34 1480.39 Q1465.19 1482.55 1468.34 1482.55 Q1471.48 1482.55 1473.31 1480.39 Q1475.17 1478.22 1475.17 1474.49 Q1475.17 1470.74 1473.31 1468.59 Q1471.48 1466.44 1468.34 1466.44 M1477.62 1451.78 L1477.62 1456.04 Q1475.86 1455.21 1474.05 1454.77 Q1472.27 1454.33 1470.51 1454.33 Q1465.88 1454.33 1463.43 1457.45 Q1461 1460.58 1460.65 1466.9 Q1462.02 1464.89 1464.08 1463.82 Q1466.14 1462.73 1468.61 1462.73 Q1473.82 1462.73 1476.83 1465.9 Q1479.86 1469.05 1479.86 1474.49 Q1479.86 1479.82 1476.72 1483.03 Q1473.57 1486.25 1468.34 1486.25 Q1462.34 1486.25 1459.17 1481.67 Q1456 1477.06 1456 1468.33 Q1456 1460.14 1459.89 1455.28 Q1463.78 1450.39 1470.33 1450.39 Q1472.09 1450.39 1473.87 1450.74 Q1475.67 1451.09 1477.62 1451.78 Z" fill="#000000" fill-rule="nonzero" fill-opacity="1" /><path clip-path="url(#clip000)" d="M1910.34 1469.17 Q1907.01 1469.17 1905.09 1470.95 Q1903.19 1472.73 1903.19 1475.86 Q1903.19 1478.98 1905.09 1480.77 Q1907.01 1482.55 1910.34 1482.55 Q1913.68 1482.55 1915.6 1480.77 Q1917.52 1478.96 1917.52 1475.86 Q1917.52 1472.73 1915.6 1470.95 Q1913.7 1469.17 1910.34 1469.17 M1905.67 1467.18 Q1902.66 1466.44 1900.97 1464.38 Q1899.3 1462.32 1899.3 1459.35 Q1899.3 1455.21 1902.24 1452.8 Q1905.2 1450.39 1910.34 1450.39 Q1915.51 1450.39 1918.45 1452.8 Q1921.39 1455.21 1921.39 1459.35 Q1921.39 1462.32 1919.7 1464.38 Q1918.03 1466.44 1915.04 1467.18 Q1918.42 1467.96 1920.3 1470.26 Q1922.2 1472.55 1922.2 1475.86 Q1922.2 1480.88 1919.12 1483.57 Q1916.06 1486.25 1910.34 1486.25 Q1904.63 1486.25 1901.55 1483.57 Q1898.49 1480.88 1898.49 1475.86 Q1898.49 1472.55 1900.39 1470.26 Q1902.29 1467.96 1905.67 1467.18 M1903.95 1459.79 Q1903.95 1462.48 1905.62 1463.98 Q1907.31 1465.49 1910.34 1465.49 Q1913.35 1465.49 1915.04 1463.98 Q1916.76 1462.48 1916.76 1459.79 Q1916.76 1457.11 1915.04 1455.6 Q1913.35 1454.1 1910.34 1454.1 Q1907.31 1454.1 1905.62 1455.6 Q1903.95 1457.11 1903.95 1459.79 Z" fill="#000000" fill-rule="nonzero" fill-opacity="1" /><path clip-path="url(#clip000)" d="M2327.44 1481.64 L2335.08 1481.64 L2335.08 1455.28 L2326.77 1456.95 L2326.77 1452.69 L2335.04 1451.02 L2339.71 1451.02 L2339.71 1481.64 L2347.35 1481.64 L2347.35 1485.58 L2327.44 1485.58 L2327.44 1481.64 Z" fill="#000000" fill-rule="nonzero" fill-opacity="1" /><path clip-path="url(#clip000)" d="M2366.8 1454.1 Q2363.18 1454.1 2361.36 1457.66 Q2359.55 1461.2 2359.55 1468.33 Q2359.55 1475.44 2361.36 1479.01 Q2363.18 1482.55 2366.8 1482.55 Q2370.43 1482.55 2372.23 1479.01 Q2374.06 1475.44 2374.06 1468.33 Q2374.06 1461.2 2372.23 1457.66 Q2370.43 1454.1 2366.8 1454.1 M2366.8 1450.39 Q2372.61 1450.39 2375.66 1455 Q2378.74 1459.58 2378.74 1468.33 Q2378.74 1477.06 2375.66 1481.67 Q2372.61 1486.25 2366.8 1486.25 Q2360.99 1486.25 2357.91 1481.67 Q2354.85 1477.06 2354.85 1468.33 Q2354.85 1459.58 2357.91 1455 Q2360.99 1450.39 2366.8 1450.39 Z" fill="#000000" fill-rule="nonzero" fill-opacity="1" /><path clip-path="url(#clip000)" d="M1245.79 1522.27 L1245.79 1532.4 L1257.85 1532.4 L1257.85 1536.95 L1245.79 1536.95 L1245.79 1556.3 Q1245.79 1560.66 1246.96 1561.9 Q1248.17 1563.14 1251.83 1563.14 L1257.85 1563.14 L1257.85 1568.04 L1251.83 1568.04 Q1245.05 1568.04 1242.48 1565.53 Q1239.9 1562.98 1239.9 1556.3 L1239.9 1536.95 L1235.6 1536.95 L1235.6 1532.4 L1239.9 1532.4 L1239.9 1522.27 L1245.79 1522.27 Z" fill="#000000" fill-rule="nonzero" fill-opacity="1" /><polyline clip-path="url(#clip002)" style="stroke:#000000; stroke-linecap:round; stroke-linejoin:round; stroke-width:2; stroke-opacity:0.1; fill:none" points="140.696,1384.24 2352.76,1384.24 "/>
<polyline clip-path="url(#clip002)" style="stroke:#000000; stroke-linecap:round; stroke-linejoin:round; stroke-width:2; stroke-opacity:0.1; fill:none" points="140.696,1075.18 2352.76,1075.18 "/>
<polyline clip-path="url(#clip002)" style="stroke:#000000; stroke-linecap:round; stroke-linejoin:round; stroke-width:2; stroke-opacity:0.1; fill:none" points="140.696,766.118 2352.76,766.118 "/>
<polyline clip-path="url(#clip002)" style="stroke:#000000; stroke-linecap:round; stroke-linejoin:round; stroke-width:2; stroke-opacity:0.1; fill:none" points="140.696,457.058 2352.76,457.058 "/>
<polyline clip-path="url(#clip002)" style="stroke:#000000; stroke-linecap:round; stroke-linejoin:round; stroke-width:2; stroke-opacity:0.1; fill:none" points="140.696,147.998 2352.76,147.998 "/>
<polyline clip-path="url(#clip000)" style="stroke:#000000; stroke-linecap:round; stroke-linejoin:round; stroke-width:4; stroke-opacity:1; fill:none" points="140.696,1423.18 140.696,47.2441 "/>
<polyline clip-path="url(#clip000)" style="stroke:#000000; stroke-linecap:round; stroke-linejoin:round; stroke-width:4; stroke-opacity:1; fill:none" points="140.696,1384.24 159.593,1384.24 "/>
<polyline clip-path="url(#clip000)" style="stroke:#000000; stroke-linecap:round; stroke-linejoin:round; stroke-width:4; stroke-opacity:1; fill:none" points="140.696,1075.18 159.593,1075.18 "/>
<polyline clip-path="url(#clip000)" style="stroke:#000000; stroke-linecap:round; stroke-linejoin:round; stroke-width:4; stroke-opacity:1; fill:none" points="140.696,766.118 159.593,766.118 "/>
<polyline clip-path="url(#clip000)" style="stroke:#000000; stroke-linecap:round; stroke-linejoin:round; stroke-width:4; stroke-opacity:1; fill:none" points="140.696,457.058 159.593,457.058 "/>
<polyline clip-path="url(#clip000)" style="stroke:#000000; stroke-linecap:round; stroke-linejoin:round; stroke-width:4; stroke-opacity:1; fill:none" points="140.696,147.998 159.593,147.998 "/>
<path clip-path="url(#clip000)" d="M92.7512 1370.04 Q89.1401 1370.04 87.3114 1373.6 Q85.5058 1377.14 85.5058 1384.27 Q85.5058 1391.38 87.3114 1394.94 Q89.1401 1398.49 92.7512 1398.49 Q96.3854 1398.49 98.1909 1394.94 Q100.02 1391.38 100.02 1384.27 Q100.02 1377.14 98.1909 1373.6 Q96.3854 1370.04 92.7512 1370.04 M92.7512 1366.33 Q98.5613 1366.33 101.617 1370.94 Q104.696 1375.52 104.696 1384.27 Q104.696 1393 101.617 1397.61 Q98.5613 1402.19 92.7512 1402.19 Q86.941 1402.19 83.8623 1397.61 Q80.8068 1393 80.8068 1384.27 Q80.8068 1375.52 83.8623 1370.94 Q86.941 1366.33 92.7512 1366.33 Z" fill="#000000" fill-rule="nonzero" fill-opacity="1" /><path clip-path="url(#clip000)" d="M83.7929 1057.9 L102.149 1057.9 L102.149 1061.83 L88.0753 1061.83 L88.0753 1070.31 Q89.0938 1069.96 90.1123 1069.8 Q91.1308 1069.61 92.1493 1069.61 Q97.9363 1069.61 101.316 1072.78 Q104.696 1075.95 104.696 1081.37 Q104.696 1086.95 101.223 1090.05 Q97.7511 1093.13 91.4317 1093.13 Q89.2558 1093.13 86.9873 1092.76 Q84.7419 1092.39 82.3346 1091.65 L82.3346 1086.95 Q84.4179 1088.08 86.6401 1088.64 Q88.8623 1089.19 91.3391 1089.19 Q95.3437 1089.19 97.6817 1087.09 Q100.02 1084.98 100.02 1081.37 Q100.02 1077.76 97.6817 1075.65 Q95.3437 1073.55 91.3391 1073.55 Q89.4641 1073.55 87.5892 1073.96 Q85.7373 1074.38 83.7929 1075.26 L83.7929 1057.9 Z" fill="#000000" fill-rule="nonzero" fill-opacity="1" /><path clip-path="url(#clip000)" d="M53.3995 779.463 L61.0384 779.463 L61.0384 753.097 L52.7282 754.764 L52.7282 750.505 L60.9921 748.838 L65.668 748.838 L65.668 779.463 L73.3068 779.463 L73.3068 783.398 L53.3995 783.398 L53.3995 779.463 Z" fill="#000000" fill-rule="nonzero" fill-opacity="1" /><path clip-path="url(#clip000)" d="M92.7512 751.917 Q89.1401 751.917 87.3114 755.481 Q85.5058 759.023 85.5058 766.153 Q85.5058 773.259 87.3114 776.824 Q89.1401 780.366 92.7512 780.366 Q96.3854 780.366 98.1909 776.824 Q100.02 773.259 100.02 766.153 Q100.02 759.023 98.1909 755.481 Q96.3854 751.917 92.7512 751.917 M92.7512 748.213 Q98.5613 748.213 101.617 752.819 Q104.696 757.403 104.696 766.153 Q104.696 774.88 101.617 779.486 Q98.5613 784.069 92.7512 784.069 Q86.941 784.069 83.8623 779.486 Q80.8068 774.88 80.8068 766.153 Q80.8068 757.403 83.8623 752.819 Q86.941 748.213 92.7512 748.213 Z" fill="#000000" fill-rule="nonzero" fill-opacity="1" /><path clip-path="url(#clip000)" d="M54.3949 470.403 L62.0337 470.403 L62.0337 444.037 L53.7236 445.704 L53.7236 441.444 L61.9874 439.778 L66.6633 439.778 L66.6633 470.403 L74.3022 470.403 L74.3022 474.338 L54.3949 474.338 L54.3949 470.403 Z" fill="#000000" fill-rule="nonzero" fill-opacity="1" /><path clip-path="url(#clip000)" d="M83.7929 439.778 L102.149 439.778 L102.149 443.713 L88.0753 443.713 L88.0753 452.185 Q89.0938 451.838 90.1123 451.676 Q91.1308 451.491 92.1493 451.491 Q97.9363 451.491 101.316 454.662 Q104.696 457.833 104.696 463.25 Q104.696 468.829 101.223 471.93 Q97.7511 475.009 91.4317 475.009 Q89.2558 475.009 86.9873 474.639 Q84.7419 474.268 82.3346 473.528 L82.3346 468.829 Q84.4179 469.963 86.6401 470.518 Q88.8623 471.074 91.3391 471.074 Q95.3437 471.074 97.6817 468.967 Q100.02 466.861 100.02 463.25 Q100.02 459.639 97.6817 457.532 Q95.3437 455.426 91.3391 455.426 Q89.4641 455.426 87.5892 455.843 Q85.7373 456.259 83.7929 457.139 L83.7929 439.778 Z" fill="#000000" fill-rule="nonzero" fill-opacity="1" /><path clip-path="url(#clip000)" d="M56.6171 161.343 L72.9365 161.343 L72.9365 165.278 L50.9921 165.278 L50.9921 161.343 Q53.6541 158.588 58.2375 153.958 Q62.8439 149.306 64.0245 147.963 Q66.2698 145.44 67.1494 143.704 Q68.0522 141.944 68.0522 140.255 Q68.0522 137.5 66.1078 135.764 Q64.1865 134.028 61.0847 134.028 Q58.8856 134.028 56.4319 134.792 Q54.0014 135.556 51.2236 137.107 L51.2236 132.384 Q54.0477 131.25 56.5014 130.671 Q58.955 130.093 60.9921 130.093 Q66.3624 130.093 69.5568 132.778 Q72.7513 135.463 72.7513 139.954 Q72.7513 142.083 71.9411 144.005 Q71.1541 145.903 69.0476 148.495 Q68.4689 149.167 65.367 152.384 Q62.2652 155.579 56.6171 161.343 Z" fill="#000000" fill-rule="nonzero" fill-opacity="1" /><path clip-path="url(#clip000)" d="M92.7512 133.796 Q89.1401 133.796 87.3114 137.361 Q85.5058 140.903 85.5058 148.032 Q85.5058 155.139 87.3114 158.704 Q89.1401 162.245 92.7512 162.245 Q96.3854 162.245 98.1909 158.704 Q100.02 155.139 100.02 148.032 Q100.02 140.903 98.1909 137.361 Q96.3854 133.796 92.7512 133.796 M92.7512 130.093 Q98.5613 130.093 101.617 134.699 Q104.696 139.282 104.696 148.032 Q104.696 156.759 101.617 161.366 Q98.5613 165.949 92.7512 165.949 Q86.941 165.949 83.8623 161.366 Q80.8068 156.759 80.8068 148.032 Q80.8068 139.282 83.8623 134.699 Q86.941 130.093 92.7512 130.093 Z" fill="#000000" fill-rule="nonzero" fill-opacity="1" /><polyline clip-path="url(#clip002)" style="stroke:#009af9; stroke-linecap:round; stroke-linejoin:round; stroke-width:8; stroke-opacity:1; fill:none" points="140.696,1384.24 141.658,1384.24 142.62,1384.24 143.582,1384.24 144.544,1384.24 145.506,1384.24 146.469,1384.24 147.431,1384.24 148.393,1384.24 149.355,1384.24 150.317,1384.24 151.28,1384.24 152.242,1384.24 153.204,1384.24 154.166,1384.24 155.128,1384.24 156.09,1384.24 157.053,1384.24 158.015,1384.24 158.977,1384.24 159.939,1384.24 160.901,1384.24 161.864,1384.24 162.826,1384.24 163.788,1384.24 164.75,1384.24 165.712,1384.24 166.675,1384.24 167.637,1384.24 168.599,1384.24 169.561,1384.24 170.523,1384.24 171.485,1384.24 172.448,1384.24 173.41,1384.24 174.372,1384.24 175.334,1384.24 176.296,1384.24 177.259,1384.24 178.221,1384.24 179.183,1384.24 180.145,1384.24 181.107,1384.24 182.069,1384.24 183.032,1384.24 183.994,1384.24 184.956,1384.24 185.918,1384.24 186.88,1384.24 187.843,1384.24 188.805,1384.24 189.767,1384.24 190.729,1384.24 191.691,1384.24 192.653,1384.24 193.616,1384.24 194.578,1384.24 195.54,1384.24 196.502,1384.24 197.464,1384.24 198.427,1384.24 199.389,1384.24 200.351,1384.24 201.313,1384.24 202.275,1384.24 203.237,1384.24 204.2,1384.24 205.162,1384.24 206.124,1384.24 207.086,1384.24 208.048,1384.24 209.011,1384.24 209.973,1384.24 210.935,1384.24 211.897,1384.24 212.859,1384.24 213.822,1384.24 214.784,1384.24 215.746,1384.24 216.708,1384.24 217.67,1384.24 218.632,1384.24 219.595,1384.24 220.557,1384.24 221.519,1384.24 222.481,1384.24 223.443,1384.24 224.406,1384.24 225.368,1384.24 226.33,1384.24 227.292,1384.24 228.254,1384.24 229.216,1384.24 230.179,1384.24 231.141,1384.24 232.103,1384.24 233.065,1384.24 234.027,1384.24 234.99,1384.24 235.952,1384.24 236.914,1384.24 237.876,1384.24 238.838,1384.24 239.8,1384.24 240.763,1384.24 241.725,1384.24 242.687,1384.24 243.649,1384.24 244.611,1384.24 245.574,1384.24 246.536,1384.24 247.498,1384.24 248.46,1384.24 249.422,1384.24 250.384,1384.24 251.347,1384.24 252.309,1384.24 253.271,1384.24 254.233,1384.24 255.195,1384.24 256.158,1384.24 257.12,1384.24 258.082,1384.24 259.044,1384.24 260.006,1384.24 260.969,1384.24 261.931,1384.24 262.893,1384.24 263.855,1384.24 264.817,1384.24 265.779,1384.24 266.742,1384.24 267.704,1384.24 268.666,1384.24 269.628,1384.24 270.59,1384.24 271.553,1322.43 272.515,1322.43 273.477,1322.43 274.439,1322.43 275.401,1322.43 276.363,1322.43 277.326,1322.43 278.288,1322.43 279.25,1322.43 280.212,1322.43 281.174,1322.43 282.137,1322.43 283.099,1322.43 284.061,1322.43 285.023,1322.43 285.985,1322.43 286.947,1322.43 287.91,1322.43 288.872,1322.43 289.834,1322.43 290.796,1322.43 291.758,1322.43 292.721,1322.43 293.683,1322.43 294.645,1322.43 295.607,1322.43 296.569,1322.43 297.531,1322.43 298.494,1322.43 299.456,1322.43 300.418,1322.43 301.38,1322.43 302.342,1322.43 303.305,1322.43 304.267,1322.43 305.229,1322.43 306.191,1322.43 307.153,1322.43 308.116,1322.43 309.078,1322.43 310.04,1322.43 311.002,1322.43 311.964,1322.43 312.926,1322.43 313.889,1322.43 314.851,1322.43 315.813,1322.43 316.775,1322.43 317.737,1322.43 318.7,1322.43 319.662,1322.43 320.624,1322.43 321.586,1322.43 322.548,1322.43 323.51,1322.43 324.473,1322.43 325.435,1322.43 326.397,1322.43 327.359,1322.43 328.321,1322.43 329.284,1322.43 330.246,1322.43 331.208,1322.43 332.17,1322.43 333.132,1322.43 334.094,1322.43 335.057,1322.43 336.019,1322.43 336.981,1322.43 337.943,1322.43 338.905,1322.43 339.868,1322.43 340.83,1322.43 341.792,1322.43 342.754,1322.43 343.716,1322.43 344.678,1322.43 345.641,1322.43 346.603,1322.43 347.565,1322.43 348.527,1322.43 349.489,1322.43 350.452,1322.43 351.414,1322.43 352.376,1322.43 353.338,1322.43 354.3,1322.43 355.263,1322.43 356.225,1322.43 357.187,1322.43 358.149,1322.43 359.111,1322.43 360.073,1322.43 361.036,1322.43 361.998,1322.43 362.96,1322.43 363.922,1322.43 364.884,1322.43 365.847,1322.43 366.809,1322.43 367.771,1322.43 368.733,1322.43 369.695,1322.43 370.657,1322.43 371.62,1322.43 372.582,1322.43 373.544,1322.43 374.506,1322.43 375.468,1322.43 376.431,1322.43 377.393,1322.43 378.355,1322.43 379.317,1322.43 380.279,1322.43 381.241,1322.43 382.204,1322.43 383.166,1322.43 384.128,1322.43 385.09,1322.43 386.052,1322.43 387.015,1322.43 387.977,1322.43 388.939,1322.43 389.901,1322.43 390.863,1322.43 391.825,1322.43 392.788,1322.43 393.75,1322.43 394.712,1322.43 395.674,1322.43 396.636,1322.43 397.599,1322.43 398.561,1322.43 399.523,1322.43 400.485,1322.43 401.447,1322.43 402.41,1322.43 403.372,1322.43 404.334,1322.43 405.296,1322.43 406.258,1322.43 407.22,1322.43 408.183,1322.43 409.145,1322.43 410.107,1322.43 411.069,1322.43 412.031,1322.43 412.994,1322.43 413.956,1322.43 414.918,1322.43 415.88,1322.43 416.842,1322.43 417.804,1322.43 418.767,1322.43 419.729,1322.43 420.691,1322.43 421.653,1322.43 422.615,1322.43 423.578,1322.43 424.54,1322.43 425.502,1322.43 426.464,1322.43 427.426,1322.43 428.388,1322.43 429.351,1322.43 430.313,1322.43 431.275,1322.43 432.237,1322.43 433.199,1322.43 434.162,1322.43 435.124,1322.43 436.086,1322.43 437.048,1322.43 438.01,1322.43 438.972,1322.43 439.935,1322.43 440.897,1322.43 441.859,1322.43 442.821,1322.43 443.783,1322.43 444.746,1322.43 445.708,1322.43 446.67,1322.43 447.632,1322.43 448.594,1322.43 449.557,1322.43 450.519,1322.43 451.481,1322.43 452.443,1322.43 453.405,1322.43 454.367,1322.43 455.33,1322.43 456.292,1322.43 457.254,1322.43 458.216,1322.43 459.178,1322.43 460.141,1322.43 461.103,1322.43 462.065,1322.43 463.027,1322.43 463.989,1322.43 464.951,1322.43 465.914,1322.43 466.876,1322.43 467.838,1322.43 468.8,1322.43 469.762,1322.43 470.725,1322.43 471.687,1322.43 472.649,1322.43 473.611,1322.43 474.573,1322.43 475.535,1322.43 476.498,1322.43 477.46,1322.43 478.422,1322.43 479.384,1322.43 480.346,1322.43 481.309,1322.43 482.271,1322.43 483.233,1322.43 484.195,1322.43 485.157,1322.43 486.119,1322.43 487.082,1322.43 488.044,1322.43 489.006,1322.43 489.968,1322.43 490.93,1322.43 491.893,1322.43 492.855,1322.43 493.817,1322.43 494.779,1322.43 495.741,1322.43 496.704,1322.43 497.666,1322.43 498.628,1322.43 499.59,1322.43 500.552,1322.43 501.514,1322.43 502.477,1322.43 503.439,1322.43 504.401,1322.43 505.363,1322.43 506.325,1322.43 507.288,1322.43 508.25,1322.43 509.212,1322.43 510.174,1322.43 511.136,1322.43 512.098,1322.43 513.061,1322.43 514.023,1322.43 514.985,1322.43 515.947,1322.43 516.909,1322.43 517.872,1322.43 518.834,1322.43 519.796,1322.43 520.758,1322.43 521.72,1322.43 522.682,1322.43 523.645,1322.43 524.607,1322.43 525.569,1322.43 526.531,1322.43 527.493,1322.43 528.456,1322.43 529.418,1322.43 530.38,1322.43 531.342,1322.43 532.304,1322.43 533.266,1322.43 534.229,1322.43 535.191,1322.43 536.153,1322.43 537.115,1322.43 538.077,1322.43 539.04,1322.43 540.002,1322.43 540.964,1322.43 541.926,1322.43 542.888,1322.43 543.851,1322.43 544.813,1322.43 545.775,1322.43 546.737,1322.43 547.699,1322.43 548.661,1322.43 549.624,1260.61 550.586,1260.61 551.548,1260.61 552.51,1260.61 553.472,1260.61 554.435,1260.61 555.397,1260.61 556.359,1260.61 557.321,1260.61 558.283,1260.61 559.245,1260.61 560.208,1260.61 561.17,1260.61 562.132,1260.61 563.094,1260.61 564.056,1260.61 565.019,1260.61 565.981,1260.61 566.943,1260.61 567.905,1260.61 568.867,1260.61 569.829,1260.61 570.792,1260.61 571.754,1260.61 572.716,1260.61 573.678,1260.61 574.64,1260.61 575.603,1260.61 576.565,1260.61 577.527,1260.61 578.489,1260.61 579.451,1260.61 580.414,1260.61 581.376,1260.61 582.338,1260.61 583.3,1260.61 584.262,1260.61 585.224,1260.61 586.187,1260.61 587.149,1260.61 588.111,1260.61 589.073,1260.61 590.035,1260.61 590.998,1260.61 591.96,1260.61 592.922,1260.61 593.884,1260.61 594.846,1260.61 595.808,1260.61 596.771,1260.61 597.733,1260.61 598.695,1260.61 599.657,1260.61 600.619,1260.61 601.582,1136.99 602.544,1136.99 603.506,1136.99 604.468,1136.99 605.43,1136.99 606.392,1136.99 607.355,1136.99 608.317,1136.99 609.279,1136.99 610.241,1136.99 611.203,1136.99 612.166,1136.99 613.128,1136.99 614.09,1136.99 615.052,1136.99 616.014,1136.99 616.976,1136.99 617.939,1136.99 618.901,1136.99 619.863,1136.99 620.825,1136.99 621.787,1136.99 622.75,1136.99 623.712,1136.99 624.674,1136.99 625.636,1136.99 626.598,1136.99 627.561,1136.99 628.523,1136.99 629.485,1136.99 630.447,1136.99 631.409,1136.99 632.371,1136.99 633.334,1136.99 634.296,1136.99 635.258,1136.99 636.22,1136.99 637.182,1136.99 638.145,1136.99 639.107,1136.99 640.069,1136.99 641.031,1136.99 641.993,1136.99 642.955,1136.99 643.918,1136.99 644.88,1136.99 645.842,1136.99 646.804,1136.99 647.766,1136.99 648.729,1136.99 649.691,1136.99 650.653,1136.99 651.615,1136.99 652.577,1136.99 653.539,1136.99 654.502,1136.99 655.464,1136.99 656.426,1136.99 657.388,1136.99 658.35,1136.99 659.313,1136.99 660.275,1136.99 661.237,1136.99 662.199,1136.99 663.161,1136.99 664.123,1136.99 665.086,1136.99 666.048,1136.99 667.01,1136.99 667.972,1136.99 668.934,1136.99 669.897,1136.99 670.859,1136.99 671.821,1136.99 672.783,1136.99 673.745,1136.99 674.708,1136.99 675.67,1136.99 676.632,1136.99 677.594,1136.99 678.556,1136.99 679.518,1136.99 680.481,1136.99 681.443,1136.99 682.405,1136.99 683.367,1136.99 684.329,1136.99 685.292,1136.99 686.254,1136.99 687.216,1136.99 688.178,1136.99 689.14,1136.99 690.102,1136.99 691.065,1136.99 692.027,1136.99 692.989,1136.99 693.951,1136.99 694.913,1136.99 695.876,1136.99 696.838,1136.99 697.8,1136.99 698.762,1136.99 699.724,1136.99 700.686,1136.99 701.649,1136.99 702.611,1136.99 703.573,1136.99 704.535,1136.99 705.497,1136.99 706.46,1136.99 707.422,1136.99 708.384,1136.99 709.346,1136.99 710.308,1136.99 711.27,1136.99 712.233,1136.99 713.195,1136.99 714.157,1075.18 715.119,1075.18 716.081,1075.18 717.044,1075.18 718.006,1075.18 718.968,1075.18 719.93,1075.18 720.892,1075.18 721.855,1075.18 722.817,1075.18 723.779,1075.18 724.741,1075.18 725.703,1075.18 726.665,1075.18 727.628,1075.18 728.59,1075.18 729.552,1075.18 730.514,1075.18 731.476,1075.18 732.439,1075.18 733.401,1075.18 734.363,1075.18 735.325,1075.18 736.287,1075.18 737.249,1075.18 738.212,1075.18 739.174,1075.18 740.136,1075.18 741.098,1075.18 742.06,1075.18 743.023,1075.18 743.985,1075.18 744.947,1075.18 745.909,1075.18 746.871,1075.18 747.833,1075.18 748.796,1075.18 749.758,1075.18 750.72,1075.18 751.682,1075.18 752.644,1075.18 753.607,1075.18 754.569,1075.18 755.531,1075.18 756.493,1075.18 757.455,1075.18 758.417,1075.18 759.38,1075.18 760.342,1075.18 761.304,1075.18 762.266,1075.18 763.228,1075.18 764.191,1075.18 765.153,1075.18 766.115,1075.18 767.077,1075.18 768.039,1075.18 769.002,1075.18 769.964,1075.18 770.926,1075.18 771.888,1075.18 772.85,1075.18 773.812,1075.18 774.775,1075.18 775.737,1075.18 776.699,1075.18 777.661,1075.18 778.623,1075.18 779.586,1075.18 780.548,1075.18 781.51,1075.18 782.472,1075.18 783.434,1075.18 784.396,1075.18 785.359,1075.18 786.321,1075.18 787.283,1075.18 788.245,1075.18 789.207,1075.18 790.17,1013.37 791.132,1013.37 792.094,1013.37 793.056,1013.37 794.018,1013.37 794.98,1013.37 795.943,1013.37 796.905,1013.37 797.867,1013.37 798.829,1013.37 799.791,1013.37 800.754,1013.37 801.716,1013.37 802.678,1013.37 803.64,1013.37 804.602,1013.37 805.564,1013.37 806.527,1013.37 807.489,1013.37 808.451,1013.37 809.413,1013.37 810.375,1013.37 811.338,1013.37 812.3,1013.37 813.262,1013.37 814.224,1013.37 815.186,1013.37 816.149,1013.37 817.111,1013.37 818.073,1013.37 819.035,1013.37 819.997,1013.37 820.959,1013.37 821.922,1013.37 822.884,1013.37 823.846,1013.37 824.808,1013.37 825.77,1013.37 826.733,1013.37 827.695,1013.37 828.657,1013.37 829.619,1013.37 830.581,1013.37 831.543,1013.37 832.506,1013.37 833.468,1013.37 834.43,1013.37 835.392,1013.37 836.354,1013.37 837.317,1013.37 838.279,1013.37 839.241,1013.37 840.203,1013.37 841.165,1013.37 842.127,1013.37 843.09,1013.37 844.052,1013.37 845.014,1013.37 845.976,1013.37 846.938,1013.37 847.901,1013.37 848.863,1013.37 849.825,1013.37 850.787,1013.37 851.749,1013.37 852.711,1013.37 853.674,1013.37 854.636,1013.37 855.598,1013.37 856.56,1013.37 857.522,1013.37 858.485,1013.37 859.447,1013.37 860.409,1013.37 861.371,1013.37 862.333,1013.37 863.296,1013.37 864.258,1013.37 865.22,1013.37 866.182,1013.37 867.144,1013.37 868.106,1013.37 869.069,1013.37 870.031,1013.37 870.993,1013.37 871.955,1013.37 872.917,1013.37 873.88,1013.37 874.842,1013.37 875.804,1013.37 876.766,1013.37 877.728,1013.37 878.69,1013.37 879.653,1013.37 880.615,1013.37 881.577,1013.37 882.539,1013.37 883.501,1013.37 884.464,1013.37 885.426,1013.37 886.388,1013.37 887.35,1013.37 888.312,1013.37 889.274,1013.37 890.237,1013.37 891.199,1013.37 892.161,1013.37 893.123,1013.37 894.085,1013.37 895.048,1013.37 896.01,1013.37 896.972,1013.37 897.934,1013.37 898.896,1013.37 899.858,1013.37 900.821,951.554 901.783,951.554 902.745,951.554 903.707,951.554 904.669,951.554 905.632,951.554 906.594,951.554 907.556,951.554 908.518,951.554 909.48,951.554 910.443,951.554 911.405,951.554 912.367,951.554 913.329,951.554 914.291,951.554 915.253,951.554 916.216,951.554 917.178,951.554 918.14,951.554 919.102,951.554 920.064,951.554 921.027,951.554 921.989,951.554 922.951,951.554 923.913,951.554 924.875,951.554 925.837,951.554 926.8,951.554 927.762,951.554 928.724,951.554 929.686,951.554 930.648,951.554 931.611,951.554 932.573,951.554 933.535,951.554 934.497,951.554 935.459,951.554 936.421,951.554 937.384,951.554 938.346,951.554 939.308,951.554 940.27,951.554 941.232,951.554 942.195,951.554 943.157,951.554 944.119,951.554 945.081,951.554 946.043,951.554 947.005,951.554 947.968,951.554 948.93,889.742 949.892,889.742 950.854,889.742 951.816,889.742 952.779,889.742 953.741,889.742 954.703,889.742 955.665,889.742 956.627,827.93 957.59,827.93 958.552,827.93 959.514,827.93 960.476,827.93 961.438,827.93 962.4,827.93 963.363,827.93 964.325,827.93 965.287,827.93 966.249,827.93 967.211,827.93 968.174,827.93 969.136,827.93 970.098,827.93 971.06,827.93 972.022,827.93 972.984,827.93 973.947,827.93 974.909,827.93 975.871,827.93 976.833,827.93 977.795,827.93 978.758,827.93 979.72,827.93 980.682,827.93 981.644,827.93 982.606,827.93 983.568,827.93 984.531,827.93 985.493,827.93 986.455,827.93 987.417,827.93 988.379,827.93 989.342,827.93 990.304,827.93 991.266,827.93 992.228,827.93 993.19,827.93 994.152,827.93 995.115,827.93 996.077,827.93 997.039,827.93 998.001,827.93 998.963,827.93 999.926,827.93 1000.89,827.93 1001.85,827.93 1002.81,827.93 1003.77,827.93 1004.74,827.93 1005.7,827.93 1006.66,827.93 1007.62,827.93 1008.59,827.93 1009.55,827.93 1010.51,827.93 1011.47,827.93 1012.43,827.93 1013.4,827.93 1014.36,827.93 1015.32,827.93 1016.28,827.93 1017.24,827.93 1018.21,827.93 1019.17,827.93 1020.13,827.93 1021.09,827.93 1022.06,827.93 1023.02,827.93 1023.98,827.93 1024.94,827.93 1025.9,827.93 1026.87,827.93 1027.83,827.93 1028.79,827.93 1029.75,827.93 1030.72,827.93 1031.68,827.93 1032.64,827.93 1033.6,827.93 1034.56,827.93 1035.53,827.93 1036.49,827.93 1037.45,827.93 1038.41,827.93 1039.38,827.93 1040.34,827.93 1041.3,827.93 1042.26,827.93 1043.22,827.93 1044.19,827.93 1045.15,827.93 1046.11,827.93 1047.07,827.93 1048.03,827.93 1049,827.93 1049.96,827.93 1050.92,827.93 1051.88,827.93 1052.85,827.93 1053.81,827.93 1054.77,827.93 1055.73,827.93 1056.69,827.93 1057.66,827.93 1058.62,827.93 1059.58,827.93 1060.54,827.93 1061.51,827.93 1062.47,827.93 1063.43,827.93 1064.39,827.93 1065.35,827.93 1066.32,827.93 1067.28,827.93 1068.24,827.93 1069.2,827.93 1070.17,827.93 1071.13,827.93 1072.09,827.93 1073.05,827.93 1074.01,827.93 1074.98,827.93 1075.94,827.93 1076.9,827.93 1077.86,827.93 1078.82,827.93 1079.79,827.93 1080.75,827.93 1081.71,827.93 1082.67,827.93 1083.64,827.93 1084.6,827.93 1085.56,827.93 1086.52,827.93 1087.48,827.93 1088.45,827.93 1089.41,827.93 1090.37,827.93 1091.33,827.93 1092.3,827.93 1093.26,827.93 1094.22,827.93 1095.18,827.93 1096.14,827.93 1097.11,827.93 1098.07,827.93 1099.03,827.93 1099.99,827.93 1100.95,827.93 1101.92,827.93 1102.88,827.93 1103.84,827.93 1104.8,827.93 1105.77,827.93 1106.73,827.93 1107.69,827.93 1108.65,827.93 1109.61,827.93 1110.58,827.93 1111.54,827.93 1112.5,827.93 1113.46,827.93 1114.43,827.93 1115.39,827.93 1116.35,827.93 1117.31,827.93 1118.27,827.93 1119.24,827.93 1120.2,827.93 1121.16,827.93 1122.12,827.93 1123.09,827.93 1124.05,827.93 1125.01,827.93 1125.97,827.93 1126.93,827.93 1127.9,827.93 1128.86,827.93 1129.82,827.93 1130.78,827.93 1131.74,827.93 1132.71,827.93 1133.67,827.93 1134.63,827.93 1135.59,827.93 1136.56,827.93 1137.52,827.93 1138.48,827.93 1139.44,827.93 1140.4,827.93 1141.37,827.93 1142.33,827.93 1143.29,827.93 1144.25,827.93 1145.22,827.93 1146.18,827.93 1147.14,827.93 1148.1,827.93 1149.06,827.93 1150.03,827.93 1150.99,827.93 1151.95,827.93 1152.91,827.93 1153.87,827.93 1154.84,827.93 1155.8,827.93 1156.76,827.93 1157.72,827.93 1158.69,827.93 1159.65,827.93 1160.61,827.93 1161.57,827.93 1162.53,827.93 1163.5,827.93 1164.46,827.93 1165.42,827.93 1166.38,827.93 1167.35,827.93 1168.31,827.93 1169.27,827.93 1170.23,827.93 1171.19,827.93 1172.16,827.93 1173.12,827.93 1174.08,827.93 1175.04,827.93 1176.01,827.93 1176.97,827.93 1177.93,827.93 1178.89,827.93 1179.85,827.93 1180.82,827.93 1181.78,827.93 1182.74,827.93 1183.7,827.93 1184.66,827.93 1185.63,827.93 1186.59,827.93 1187.55,827.93 1188.51,827.93 1189.48,827.93 1190.44,827.93 1191.4,827.93 1192.36,827.93 1193.32,827.93 1194.29,827.93 1195.25,827.93 1196.21,827.93 1197.17,827.93 1198.14,827.93 1199.1,827.93 1200.06,827.93 1201.02,827.93 1201.98,827.93 1202.95,827.93 1203.91,827.93 1204.87,827.93 1205.83,827.93 1206.8,827.93 1207.76,827.93 1208.72,827.93 1209.68,827.93 1210.64,827.93 1211.61,827.93 1212.57,827.93 1213.53,827.93 1214.49,827.93 1215.45,827.93 1216.42,827.93 1217.38,827.93 1218.34,827.93 1219.3,827.93 1220.27,827.93 1221.23,827.93 1222.19,827.93 1223.15,827.93 1224.11,827.93 1225.08,827.93 1226.04,827.93 1227,827.93 1227.96,827.93 1228.93,827.93 1229.89,766.118 1230.85,766.118 1231.81,766.118 1232.77,766.118 1233.74,766.118 1234.7,766.118 1235.66,766.118 1236.62,766.118 1237.58,766.118 1238.55,766.118 1239.51,766.118 1240.47,704.306 1241.43,704.306 1242.4,704.306 1243.36,704.306 1244.32,704.306 1245.28,704.306 1246.24,704.306 1247.21,704.306 1248.17,704.306 1249.13,704.306 1250.09,704.306 1251.06,704.306 1252.02,704.306 1252.98,704.306 1253.94,704.306 1254.9,704.306 1255.87,704.306 1256.83,704.306 1257.79,704.306 1258.75,704.306 1259.72,704.306 1260.68,704.306 1261.64,704.306 1262.6,704.306 1263.56,704.306 1264.53,704.306 1265.49,704.306 1266.45,704.306 1267.41,704.306 1268.37,704.306 1269.34,704.306 1270.3,704.306 1271.26,704.306 1272.22,704.306 1273.19,704.306 1274.15,704.306 1275.11,704.306 1276.07,704.306 1277.03,704.306 1278,704.306 1278.96,704.306 1279.92,704.306 1280.88,704.306 1281.85,704.306 1282.81,704.306 1283.77,704.306 1284.73,704.306 1285.69,704.306 1286.66,704.306 1287.62,704.306 1288.58,704.306 1289.54,704.306 1290.51,704.306 1291.47,704.306 1292.43,704.306 1293.39,704.306 1294.35,704.306 1295.32,704.306 1296.28,704.306 1297.24,704.306 1298.2,704.306 1299.16,704.306 1300.13,704.306 1301.09,704.306 1302.05,704.306 1303.01,704.306 1303.98,704.306 1304.94,704.306 1305.9,704.306 1306.86,704.306 1307.82,704.306 1308.79,704.306 1309.75,704.306 1310.71,704.306 1311.67,704.306 1312.64,704.306 1313.6,704.306 1314.56,704.306 1315.52,704.306 1316.48,704.306 1317.45,704.306 1318.41,704.306 1319.37,704.306 1320.33,704.306 1321.29,704.306 1322.26,704.306 1323.22,704.306 1324.18,704.306 1325.14,704.306 1326.11,704.306 1327.07,704.306 1328.03,704.306 1328.99,704.306 1329.95,704.306 1330.92,704.306 1331.88,704.306 1332.84,704.306 1333.8,704.306 1334.77,704.306 1335.73,704.306 1336.69,704.306 1337.65,704.306 1338.61,704.306 1339.58,704.306 1340.54,704.306 1341.5,704.306 1342.46,704.306 1343.43,704.306 1344.39,704.306 1345.35,704.306 1346.31,704.306 1347.27,704.306 1348.24,704.306 1349.2,704.306 1350.16,704.306 1351.12,704.306 1352.08,704.306 1353.05,704.306 1354.01,704.306 1354.97,704.306 1355.93,704.306 1356.9,704.306 1357.86,704.306 1358.82,704.306 1359.78,704.306 1360.74,704.306 1361.71,704.306 1362.67,704.306 1363.63,704.306 1364.59,704.306 1365.56,704.306 1366.52,704.306 1367.48,704.306 1368.44,704.306 1369.4,704.306 1370.37,704.306 1371.33,704.306 1372.29,704.306 1373.25,704.306 1374.22,704.306 1375.18,704.306 1376.14,704.306 1377.1,704.306 1378.06,704.306 1379.03,704.306 1379.99,704.306 1380.95,704.306 1381.91,704.306 1382.87,704.306 1383.84,704.306 1384.8,704.306 1385.76,704.306 1386.72,704.306 1387.69,704.306 1388.65,704.306 1389.61,704.306 1390.57,704.306 1391.53,704.306 1392.5,704.306 1393.46,704.306 1394.42,704.306 1395.38,704.306 1396.35,704.306 1397.31,704.306 1398.27,704.306 1399.23,704.306 1400.19,704.306 1401.16,704.306 1402.12,704.306 1403.08,704.306 1404.04,704.306 1405,704.306 1405.97,704.306 1406.93,704.306 1407.89,704.306 1408.85,704.306 1409.82,704.306 1410.78,704.306 1411.74,704.306 1412.7,704.306 1413.66,704.306 1414.63,704.306 1415.59,704.306 1416.55,704.306 1417.51,704.306 1418.48,704.306 1419.44,704.306 1420.4,704.306 1421.36,704.306 1422.32,704.306 1423.29,704.306 1424.25,704.306 1425.21,704.306 1426.17,704.306 1427.14,704.306 1428.1,704.306 1429.06,704.306 1430.02,704.306 1430.98,704.306 1431.95,704.306 1432.91,704.306 1433.87,704.306 1434.83,704.306 1435.79,704.306 1436.76,704.306 1437.72,704.306 1438.68,704.306 1439.64,704.306 1440.61,704.306 1441.57,704.306 1442.53,704.306 1443.49,704.306 1444.45,704.306 1445.42,704.306 1446.38,704.306 1447.34,704.306 1448.3,704.306 1449.27,704.306 1450.23,704.306 1451.19,704.306 1452.15,704.306 1453.11,704.306 1454.08,704.306 1455.04,704.306 1456,704.306 1456.96,704.306 1457.93,704.306 1458.89,704.306 1459.85,704.306 1460.81,704.306 1461.77,704.306 1462.74,704.306 1463.7,704.306 1464.66,704.306 1465.62,704.306 1466.58,704.306 1467.55,704.306 1468.51,704.306 1469.47,704.306 1470.43,704.306 1471.4,704.306 1472.36,704.306 1473.32,704.306 1474.28,704.306 1475.24,704.306 1476.21,704.306 1477.17,704.306 1478.13,704.306 1479.09,704.306 1480.06,704.306 1481.02,704.306 1481.98,704.306 1482.94,704.306 1483.9,704.306 1484.87,704.306 1485.83,704.306 1486.79,704.306 1487.75,704.306 1488.71,704.306 1489.68,704.306 1490.64,704.306 1491.6,704.306 1492.56,704.306 1493.53,704.306 1494.49,704.306 1495.45,704.306 1496.41,704.306 1497.37,704.306 1498.34,704.306 1499.3,704.306 1500.26,704.306 1501.22,704.306 1502.19,704.306 1503.15,704.306 1504.11,704.306 1505.07,704.306 1506.03,704.306 1507,704.306 1507.96,704.306 1508.92,704.306 1509.88,704.306 1510.85,704.306 1511.81,704.306 1512.77,704.306 1513.73,704.306 1514.69,704.306 1515.66,704.306 1516.62,704.306 1517.58,704.306 1518.54,704.306 1519.5,704.306 1520.47,704.306 1521.43,704.306 1522.39,704.306 1523.35,704.306 1524.32,704.306 1525.28,704.306 1526.24,704.306 1527.2,704.306 1528.16,704.306 1529.13,704.306 1530.09,704.306 1531.05,704.306 1532.01,704.306 1532.98,704.306 1533.94,704.306 1534.9,704.306 1535.86,704.306 1536.82,704.306 1537.79,704.306 1538.75,704.306 1539.71,704.306 1540.67,704.306 1541.64,704.306 1542.6,704.306 1543.56,704.306 1544.52,704.306 1545.48,704.306 1546.45,704.306 1547.41,704.306 1548.37,704.306 1549.33,704.306 1550.29,704.306 1551.26,704.306 1552.22,704.306 1553.18,704.306 1554.14,704.306 1555.11,704.306 1556.07,704.306 1557.03,704.306 1557.99,704.306 1558.95,704.306 1559.92,704.306 1560.88,704.306 1561.84,704.306 1562.8,704.306 1563.77,704.306 1564.73,704.306 1565.69,704.306 1566.65,704.306 1567.61,704.306 1568.58,704.306 1569.54,704.306 1570.5,704.306 1571.46,704.306 1572.42,704.306 1573.39,704.306 1574.35,704.306 1575.31,704.306 1576.27,704.306 1577.24,704.306 1578.2,704.306 1579.16,704.306 1580.12,704.306 1581.08,704.306 1582.05,704.306 1583.01,704.306 1583.97,704.306 1584.93,704.306 1585.9,704.306 1586.86,704.306 1587.82,642.494 1588.78,642.494 1589.74,642.494 1590.71,642.494 1591.67,642.494 1592.63,642.494 1593.59,642.494 1594.56,642.494 1595.52,642.494 1596.48,642.494 1597.44,642.494 1598.4,642.494 1599.37,642.494 1600.33,642.494 1601.29,642.494 1602.25,642.494 1603.21,642.494 1604.18,642.494 1605.14,642.494 1606.1,642.494 1607.06,642.494 1608.03,642.494 1608.99,642.494 1609.95,642.494 1610.91,642.494 1611.87,642.494 1612.84,642.494 1613.8,642.494 1614.76,642.494 1615.72,580.682 1616.69,518.87 1617.65,518.87 1618.61,518.87 1619.57,518.87 1620.53,518.87 1621.5,518.87 1622.46,518.87 1623.42,518.87 1624.38,518.87 1625.35,518.87 1626.31,518.87 1627.27,518.87 1628.23,518.87 1629.19,518.87 1630.16,518.87 1631.12,518.87 1632.08,518.87 1633.04,518.87 1634,518.87 1634.97,518.87 1635.93,518.87 1636.89,518.87 1637.85,518.87 1638.82,518.87 1639.78,518.87 1640.74,518.87 1641.7,518.87 1642.66,518.87 1643.63,518.87 1644.59,518.87 1645.55,518.87 1646.51,518.87 1647.48,518.87 1648.44,518.87 1649.4,518.87 1650.36,518.87 1651.32,518.87 1652.29,518.87 1653.25,518.87 1654.21,518.87 1655.17,518.87 1656.13,518.87 1657.1,518.87 1658.06,518.87 1659.02,518.87 1659.98,518.87 1660.95,518.87 1661.91,518.87 1662.87,518.87 1663.83,518.87 1664.79,518.87 1665.76,518.87 1666.72,518.87 1667.68,518.87 1668.64,518.87 1669.61,518.87 1670.57,518.87 1671.53,518.87 1672.49,518.87 1673.45,518.87 1674.42,518.87 1675.38,518.87 1676.34,518.87 1677.3,518.87 1678.27,518.87 1679.23,518.87 1680.19,518.87 1681.15,518.87 1682.11,518.87 1683.08,518.87 1684.04,518.87 1685,518.87 1685.96,518.87 1686.92,518.87 1687.89,518.87 1688.85,518.87 1689.81,518.87 1690.77,518.87 1691.74,518.87 1692.7,518.87 1693.66,518.87 1694.62,518.87 1695.58,518.87 1696.55,518.87 1697.51,518.87 1698.47,518.87 1699.43,518.87 1700.4,518.87 1701.36,518.87 1702.32,518.87 1703.28,518.87 1704.24,518.87 1705.21,518.87 1706.17,518.87 1707.13,518.87 1708.09,518.87 1709.05,518.87 1710.02,518.87 1710.98,518.87 1711.94,518.87 1712.9,518.87 1713.87,518.87 1714.83,518.87 1715.79,518.87 1716.75,518.87 1717.71,518.87 1718.68,518.87 1719.64,518.87 1720.6,518.87 1721.56,518.87 1722.53,518.87 1723.49,518.87 1724.45,518.87 1725.41,518.87 1726.37,518.87 1727.34,518.87 1728.3,518.87 1729.26,518.87 1730.22,518.87 1731.19,518.87 1732.15,518.87 1733.11,518.87 1734.07,518.87 1735.03,518.87 1736,518.87 1736.96,457.058 1737.92,457.058 1738.88,457.058 1739.84,457.058 1740.81,457.058 1741.77,457.058 1742.73,457.058 1743.69,457.058 1744.66,457.058 1745.62,457.058 1746.58,457.058 1747.54,457.058 1748.5,457.058 1749.47,457.058 1750.43,457.058 1751.39,457.058 1752.35,457.058 1753.32,457.058 1754.28,457.058 1755.24,457.058 1756.2,457.058 1757.16,457.058 1758.13,395.246 1759.09,395.246 1760.05,395.246 1761.01,395.246 1761.98,395.246 1762.94,395.246 1763.9,395.246 1764.86,395.246 1765.82,395.246 1766.79,395.246 1767.75,395.246 1768.71,395.246 1769.67,395.246 1770.63,395.246 1771.6,395.246 1772.56,395.246 1773.52,395.246 1774.48,395.246 1775.45,395.246 1776.41,395.246 1777.37,395.246 1778.33,395.246 1779.29,395.246 1780.26,395.246 1781.22,395.246 1782.18,395.246 1783.14,395.246 1784.11,395.246 1785.07,395.246 1786.03,395.246 1786.99,395.246 1787.95,395.246 1788.92,395.246 1789.88,395.246 1790.84,395.246 1791.8,395.246 1792.76,395.246 1793.73,395.246 1794.69,395.246 1795.65,395.246 1796.61,395.246 1797.58,395.246 1798.54,395.246 1799.5,395.246 1800.46,395.246 1801.42,395.246 1802.39,395.246 1803.35,395.246 1804.31,395.246 1805.27,395.246 1806.24,395.246 1807.2,395.246 1808.16,395.246 1809.12,395.246 1810.08,395.246 1811.05,395.246 1812.01,395.246 1812.97,395.246 1813.93,395.246 1814.9,395.246 1815.86,395.246 1816.82,395.246 1817.78,395.246 1818.74,395.246 1819.71,395.246 1820.67,395.246 1821.63,395.246 1822.59,395.246 1823.55,395.246 1824.52,395.246 1825.48,395.246 1826.44,395.246 1827.4,395.246 1828.37,395.246 1829.33,395.246 1830.29,395.246 1831.25,395.246 1832.21,395.246 1833.18,395.246 1834.14,395.246 1835.1,395.246 1836.06,395.246 1837.03,395.246 1837.99,395.246 1838.95,395.246 1839.91,395.246 1840.87,395.246 1841.84,395.246 1842.8,395.246 1843.76,395.246 1844.72,395.246 1845.69,395.246 1846.65,395.246 1847.61,395.246 1848.57,395.246 1849.53,395.246 1850.5,395.246 1851.46,395.246 1852.42,395.246 1853.38,395.246 1854.34,395.246 1855.31,395.246 1856.27,395.246 1857.23,395.246 1858.19,395.246 1859.16,395.246 1860.12,395.246 1861.08,395.246 1862.04,395.246 1863,395.246 1863.97,395.246 1864.93,395.246 1865.89,395.246 1866.85,395.246 1867.82,395.246 1868.78,395.246 1869.74,395.246 1870.7,395.246 1871.66,395.246 1872.63,395.246 1873.59,395.246 1874.55,395.246 1875.51,395.246 1876.47,395.246 1877.44,395.246 1878.4,395.246 1879.36,395.246 1880.32,395.246 1881.29,395.246 1882.25,395.246 1883.21,395.246 1884.17,395.246 1885.13,395.246 1886.1,395.246 1887.06,395.246 1888.02,395.246 1888.98,395.246 1889.95,395.246 1890.91,395.246 1891.87,395.246 1892.83,395.246 1893.79,395.246 1894.76,395.246 1895.72,395.246 1896.68,395.246 1897.64,395.246 1898.61,395.246 1899.57,395.246 1900.53,395.246 1901.49,395.246 1902.45,395.246 1903.42,395.246 1904.38,395.246 1905.34,395.246 1906.3,395.246 1907.26,395.246 1908.23,395.246 1909.19,395.246 1910.15,395.246 1911.11,395.246 1912.08,395.246 1913.04,395.246 1914,395.246 1914.96,395.246 1915.92,395.246 1916.89,395.246 1917.85,395.246 1918.81,395.246 1919.77,395.246 1920.74,395.246 1921.7,395.246 1922.66,395.246 1923.62,395.246 1924.58,395.246 1925.55,395.246 1926.51,395.246 1927.47,395.246 1928.43,395.246 1929.4,395.246 1930.36,395.246 1931.32,395.246 1932.28,395.246 1933.24,395.246 1934.21,395.246 1935.17,395.246 1936.13,395.246 1937.09,395.246 1938.05,395.246 1939.02,395.246 1939.98,395.246 1940.94,395.246 1941.9,395.246 1942.87,395.246 1943.83,395.246 1944.79,395.246 1945.75,395.246 1946.71,395.246 1947.68,395.246 1948.64,395.246 1949.6,395.246 1950.56,395.246 1951.53,395.246 1952.49,395.246 1953.45,395.246 1954.41,395.246 1955.37,395.246 1956.34,395.246 1957.3,395.246 1958.26,395.246 1959.22,395.246 1960.18,395.246 1961.15,395.246 1962.11,395.246 1963.07,395.246 1964.03,395.246 1965,395.246 1965.96,395.246 1966.92,395.246 1967.88,333.434 1968.84,333.434 1969.81,333.434 1970.77,333.434 1971.73,333.434 1972.69,333.434 1973.66,333.434 1974.62,333.434 1975.58,333.434 1976.54,333.434 1977.5,333.434 1978.47,333.434 1979.43,333.434 1980.39,333.434 1981.35,333.434 1982.32,333.434 1983.28,333.434 1984.24,333.434 1985.2,333.434 1986.16,333.434 1987.13,333.434 1988.09,333.434 1989.05,333.434 1990.01,333.434 1990.97,333.434 1991.94,333.434 1992.9,333.434 1993.86,333.434 1994.82,333.434 1995.79,333.434 1996.75,333.434 1997.71,333.434 1998.67,333.434 1999.63,333.434 2000.6,333.434 2001.56,333.434 2002.52,333.434 2003.48,333.434 2004.45,333.434 2005.41,333.434 2006.37,333.434 2007.33,333.434 2008.29,333.434 2009.26,333.434 2010.22,333.434 2011.18,333.434 2012.14,333.434 2013.11,333.434 2014.07,333.434 2015.03,333.434 2015.99,333.434 2016.95,333.434 2017.92,333.434 2018.88,333.434 2019.84,333.434 2020.8,333.434 2021.76,333.434 2022.73,333.434 2023.69,333.434 2024.65,333.434 2025.61,333.434 2026.58,333.434 2027.54,333.434 2028.5,333.434 2029.46,333.434 2030.42,333.434 2031.39,333.434 2032.35,333.434 2033.31,333.434 2034.27,333.434 2035.24,333.434 2036.2,333.434 2037.16,333.434 2038.12,333.434 2039.08,333.434 2040.05,333.434 2041.01,333.434 2041.97,333.434 2042.93,333.434 2043.89,333.434 2044.86,333.434 2045.82,333.434 2046.78,333.434 2047.74,333.434 2048.71,333.434 2049.67,333.434 2050.63,333.434 2051.59,333.434 2052.55,333.434 2053.52,333.434 2054.48,333.434 2055.44,333.434 2056.4,333.434 2057.37,333.434 2058.33,333.434 2059.29,333.434 2060.25,333.434 2061.21,333.434 2062.18,333.434 2063.14,333.434 2064.1,333.434 2065.06,333.434 2066.03,333.434 2066.99,333.434 2067.95,333.434 2068.91,333.434 2069.87,333.434 2070.84,333.434 2071.8,333.434 2072.76,333.434 2073.72,333.434 2074.68,333.434 2075.65,333.434 2076.61,333.434 2077.57,333.434 2078.53,271.622 2079.5,271.622 2080.46,271.622 2081.42,271.622 2082.38,271.622 2083.34,271.622 2084.31,271.622 2085.27,271.622 2086.23,271.622 2087.19,271.622 2088.16,271.622 2089.12,271.622 2090.08,271.622 2091.04,271.622 2092,271.622 2092.97,271.622 2093.93,271.622 2094.89,271.622 2095.85,271.622 2096.82,271.622 2097.78,271.622 2098.74,271.622 2099.7,271.622 2100.66,271.622 2101.63,271.622 2102.59,271.622 2103.55,271.622 2104.51,271.622 2105.47,271.622 2106.44,271.622 2107.4,271.622 2108.36,271.622 2109.32,271.622 2110.29,271.622 2111.25,271.622 2112.21,271.622 2113.17,271.622 2114.13,271.622 2115.1,271.622 2116.06,271.622 2117.02,271.622 2117.98,271.622 2118.95,271.622 2119.91,271.622 2120.87,271.622 2121.83,271.622 2122.79,271.622 2123.76,271.622 2124.72,271.622 2125.68,271.622 2126.64,271.622 2127.6,271.622 2128.57,271.622 2129.53,271.622 2130.49,271.622 2131.45,271.622 2132.42,271.622 2133.38,271.622 2134.34,271.622 2135.3,271.622 2136.26,271.622 2137.23,271.622 2138.19,271.622 2139.15,271.622 2140.11,271.622 2141.08,271.622 2142.04,271.622 2143,271.622 2143.96,271.622 2144.92,271.622 2145.89,271.622 2146.85,271.622 2147.81,271.622 2148.77,271.622 2149.74,271.622 2150.7,271.622 2151.66,271.622 2152.62,271.622 2153.58,271.622 2154.55,271.622 2155.51,271.622 2156.47,271.622 2157.43,271.622 2158.39,271.622 2159.36,271.622 2160.32,271.622 2161.28,271.622 2162.24,271.622 2163.21,271.622 2164.17,271.622 2165.13,271.622 2166.09,271.622 2167.05,271.622 2168.02,271.622 2168.98,271.622 2169.94,271.622 2170.9,271.622 2171.87,271.622 2172.83,271.622 2173.79,271.622 2174.75,271.622 2175.71,271.622 2176.68,271.622 2177.64,271.622 2178.6,271.622 2179.56,271.622 2180.53,271.622 2181.49,271.622 2182.45,271.622 2183.41,271.622 2184.37,271.622 2185.34,271.622 2186.3,271.622 2187.26,271.622 2188.22,271.622 2189.18,271.622 2190.15,271.622 2191.11,271.622 2192.07,271.622 2193.03,271.622 2194,271.622 2194.96,271.622 2195.92,271.622 2196.88,271.622 2197.84,271.622 2198.81,271.622 2199.77,271.622 2200.73,271.622 2201.69,271.622 2202.66,271.622 2203.62,271.622 2204.58,271.622 2205.54,271.622 2206.5,271.622 2207.47,271.622 2208.43,271.622 2209.39,271.622 2210.35,271.622 2211.31,271.622 2212.28,271.622 2213.24,271.622 2214.2,271.622 2215.16,271.622 2216.13,271.622 2217.09,271.622 2218.05,271.622 2219.01,271.622 2219.97,271.622 2220.94,271.622 2221.9,271.622 2222.86,271.622 2223.82,271.622 2224.79,271.622 2225.75,271.622 2226.71,271.622 2227.67,271.622 2228.63,271.622 2229.6,271.622 2230.56,271.622 2231.52,271.622 2232.48,271.622 2233.45,271.622 2234.41,209.81 2235.37,209.81 2236.33,209.81 2237.29,209.81 2238.26,209.81 2239.22,209.81 2240.18,209.81 2241.14,209.81 2242.1,209.81 2243.07,209.81 2244.03,209.81 2244.99,209.81 2245.95,209.81 2246.92,209.81 2247.88,209.81 2248.84,209.81 2249.8,209.81 2250.76,209.81 2251.73,209.81 2252.69,209.81 2253.65,209.81 2254.61,209.81 2255.58,209.81 2256.54,209.81 2257.5,209.81 2258.46,209.81 2259.42,209.81 2260.39,209.81 2261.35,209.81 2262.31,209.81 2263.27,209.81 2264.24,209.81 2265.2,209.81 2266.16,209.81 2267.12,209.81 2268.08,209.81 2269.05,209.81 2270.01,209.81 2270.97,209.81 2271.93,209.81 2272.89,209.81 2273.86,209.81 2274.82,209.81 2275.78,209.81 2276.74,209.81 2277.71,209.81 2278.67,209.81 2279.63,209.81 2280.59,147.998 2281.55,147.998 2282.52,147.998 2283.48,86.1857 2284.44,86.1857 2285.4,86.1857 2286.37,86.1857 2287.33,86.1857 2288.29,86.1857 2289.25,86.1857 2290.21,86.1857 2291.18,86.1857 2292.14,86.1857 2293.1,86.1857 2294.06,86.1857 2295.02,86.1857 2295.99,86.1857 2296.95,86.1857 2297.91,86.1857 2298.87,86.1857 2299.84,86.1857 2300.8,86.1857 2301.76,86.1857 2302.72,86.1857 2303.68,86.1857 2304.65,86.1857 2305.61,86.1857 2306.57,86.1857 2307.53,86.1857 2308.5,86.1857 2309.46,86.1857 2310.42,86.1857 2311.38,86.1857 2312.34,86.1857 2313.31,86.1857 2314.27,86.1857 2315.23,86.1857 2316.19,86.1857 2317.16,86.1857 2318.12,86.1857 2319.08,86.1857 2320.04,86.1857 2321,86.1857 2321.97,86.1857 2322.93,86.1857 2323.89,86.1857 2324.85,86.1857 2325.81,86.1857 2326.78,86.1857 2327.74,86.1857 2328.7,86.1857 2329.66,86.1857 2330.63,86.1857 2331.59,86.1857 2332.55,86.1857 2333.51,86.1857 2334.47,86.1857 2335.44,86.1857 2336.4,86.1857 2337.36,86.1857 2338.32,86.1857 2339.29,86.1857 2340.25,86.1857 2341.21,86.1857 2342.17,86.1857 2343.13,86.1857 2344.1,86.1857 2345.06,86.1857 2346.02,86.1857 2346.98,86.1857 2347.94,86.1857 2348.91,86.1857 2349.87,86.1857 2350.83,86.1857 2351.79,86.1857 2352.76,86.1857 "/>
<path clip-path="url(#clip000)" d="M1975.5 1377.32 L2279.02 1377.32 L2279.02 1273.64 L1975.5 1273.64  Z" fill="#ffffff" fill-rule="evenodd" fill-opacity="1"/>
<polyline clip-path="url(#clip000)" style="stroke:#000000; stroke-linecap:round; stroke-linejoin:round; stroke-width:4; stroke-opacity:1; fill:none" points="1975.5,1377.32 2279.02,1377.32 2279.02,1273.64 1975.5,1273.64 1975.5,1377.32 "/>
<polyline clip-path="url(#clip000)" style="stroke:#009af9; stroke-linecap:round; stroke-linejoin:round; stroke-width:8; stroke-opacity:1; fill:none" points="2000.08,1325.48 2147.55,1325.48 "/>
<path clip-path="url(#clip000)" d="M2172.13 1308.2 L2178.42 1308.2 L2193.75 1337.11 L2193.75 1308.2 L2198.29 1308.2 L2198.29 1342.76 L2191.99 1342.76 L2176.66 1313.84 L2176.66 1342.76 L2172.13 1342.76 L2172.13 1308.2 Z" fill="#000000" fill-rule="nonzero" fill-opacity="1" /><path clip-path="url(#clip000)" d="M2217.64 1306.78 Q2214.53 1312.11 2213.03 1317.32 Q2211.53 1322.52 2211.53 1327.87 Q2211.53 1333.22 2213.03 1338.47 Q2214.56 1343.7 2217.64 1349.01 L2213.93 1349.01 Q2210.46 1343.57 2208.72 1338.31 Q2207.01 1333.06 2207.01 1327.87 Q2207.01 1322.71 2208.72 1317.48 Q2210.44 1312.25 2213.93 1306.78 L2217.64 1306.78 Z" fill="#000000" fill-rule="nonzero" fill-opacity="1" /><path clip-path="url(#clip000)" d="M2230.11 1309.47 L2230.11 1316.83 L2238.89 1316.83 L2238.89 1320.14 L2230.11 1320.14 L2230.11 1334.21 Q2230.11 1337.38 2230.97 1338.29 Q2231.85 1339.19 2234.51 1339.19 L2238.89 1339.19 L2238.89 1342.76 L2234.51 1342.76 Q2229.58 1342.76 2227.71 1340.93 Q2225.83 1339.07 2225.83 1334.21 L2225.83 1320.14 L2222.71 1320.14 L2222.71 1316.83 L2225.83 1316.83 L2225.83 1309.47 L2230.11 1309.47 Z" fill="#000000" fill-rule="nonzero" fill-opacity="1" /><path clip-path="url(#clip000)" d="M2243.82 1306.78 L2247.52 1306.78 Q2250.99 1312.25 2252.71 1317.48 Q2254.44 1322.71 2254.44 1327.87 Q2254.44 1333.06 2252.71 1338.31 Q2250.99 1343.57 2247.52 1349.01 L2243.82 1349.01 Q2246.9 1343.7 2248.4 1338.47 Q2249.93 1333.22 2249.93 1327.87 Q2249.93 1322.52 2248.4 1317.32 Q2246.9 1312.11 2243.82 1306.78 Z" fill="#000000" fill-rule="nonzero" fill-opacity="1" /></svg>
