<?xml version="1.0" encoding="utf-8"?>
<svg xmlns="http://www.w3.org/2000/svg" xmlns:xlink="http://www.w3.org/1999/xlink" width="600" height="400" viewBox="0 0 2400 1600">
<defs>
  <clipPath id="clip290">
    <rect x="0" y="0" width="2400" height="1600"/>
  </clipPath>
</defs>
<path clip-path="url(#clip290)" d="M0 1600 L2400 1600 L2400 0 L0 0  Z" fill="#ffffff" fill-rule="evenodd" fill-opacity="1"/>
<defs>
  <clipPath id="clip291">
    <rect x="480" y="0" width="1681" height="1600"/>
  </clipPath>
</defs>
<path clip-path="url(#clip290)" d="M110.858 1486.45 L2352.76 1486.45 L2352.76 47.2441 L110.858 47.2441  Z" fill="#ffffff" fill-rule="evenodd" fill-opacity="1"/>
<defs>
  <clipPath id="clip292">
    <rect x="110" y="47" width="2243" height="1440"/>
  </clipPath>
</defs>
<polyline clip-path="url(#clip292)" style="stroke:#000000; stroke-linecap:round; stroke-linejoin:round; stroke-width:2; stroke-opacity:0.1; fill:none" points="172.338,1486.45 172.338,47.2441 "/>
<polyline clip-path="url(#clip292)" style="stroke:#000000; stroke-linecap:round; stroke-linejoin:round; stroke-width:2; stroke-opacity:0.1; fill:none" points="664.656,1486.45 664.656,47.2441 "/>
<polyline clip-path="url(#clip292)" style="stroke:#000000; stroke-linecap:round; stroke-linejoin:round; stroke-width:2; stroke-opacity:0.1; fill:none" points="1156.97,1486.45 1156.97,47.2441 "/>
<polyline clip-path="url(#clip292)" style="stroke:#000000; stroke-linecap:round; stroke-linejoin:round; stroke-width:2; stroke-opacity:0.1; fill:none" points="1649.29,1486.45 1649.29,47.2441 "/>
<polyline clip-path="url(#clip292)" style="stroke:#000000; stroke-linecap:round; stroke-linejoin:round; stroke-width:2; stroke-opacity:0.1; fill:none" points="2141.61,1486.45 2141.61,47.2441 "/>
<polyline clip-path="url(#clip290)" style="stroke:#000000; stroke-linecap:round; stroke-linejoin:round; stroke-width:4; stroke-opacity:1; fill:none" points="110.858,1486.45 2352.76,1486.45 "/>
<polyline clip-path="url(#clip290)" style="stroke:#000000; stroke-linecap:round; stroke-linejoin:round; stroke-width:4; stroke-opacity:1; fill:none" points="172.338,1486.45 172.338,1467.55 "/>
<polyline clip-path="url(#clip290)" style="stroke:#000000; stroke-linecap:round; stroke-linejoin:round; stroke-width:4; stroke-opacity:1; fill:none" points="664.656,1486.45 664.656,1467.55 "/>
<polyline clip-path="url(#clip290)" style="stroke:#000000; stroke-linecap:round; stroke-linejoin:round; stroke-width:4; stroke-opacity:1; fill:none" points="1156.97,1486.45 1156.97,1467.55 "/>
<polyline clip-path="url(#clip290)" style="stroke:#000000; stroke-linecap:round; stroke-linejoin:round; stroke-width:4; stroke-opacity:1; fill:none" points="1649.29,1486.45 1649.29,1467.55 "/>
<polyline clip-path="url(#clip290)" style="stroke:#000000; stroke-linecap:round; stroke-linejoin:round; stroke-width:4; stroke-opacity:1; fill:none" points="2141.61,1486.45 2141.61,1467.55 "/>
<path clip-path="url(#clip290)" d="M172.338 1517.37 Q168.727 1517.37 166.899 1520.93 Q165.093 1524.47 165.093 1531.6 Q165.093 1538.71 166.899 1542.27 Q168.727 1545.82 172.338 1545.82 Q175.973 1545.82 177.778 1542.27 Q179.607 1538.71 179.607 1531.6 Q179.607 1524.47 177.778 1520.93 Q175.973 1517.37 172.338 1517.37 M172.338 1513.66 Q178.149 1513.66 181.204 1518.27 Q184.283 1522.85 184.283 1531.6 Q184.283 1540.33 181.204 1544.94 Q178.149 1549.52 172.338 1549.52 Q166.528 1549.52 163.45 1544.94 Q160.394 1540.33 160.394 1531.6 Q160.394 1522.85 163.45 1518.27 Q166.528 1513.66 172.338 1513.66 Z" fill="#000000" fill-rule="nonzero" fill-opacity="1" /><path clip-path="url(#clip290)" d="M628.349 1544.91 L644.668 1544.91 L644.668 1548.85 L622.724 1548.85 L622.724 1544.91 Q625.386 1542.16 629.969 1537.53 Q634.576 1532.88 635.756 1531.53 Q638.001 1529.01 638.881 1527.27 Q639.784 1525.51 639.784 1523.82 Q639.784 1521.07 637.839 1519.33 Q635.918 1517.6 632.816 1517.6 Q630.617 1517.6 628.164 1518.36 Q625.733 1519.13 622.955 1520.68 L622.955 1515.95 Q625.779 1514.82 628.233 1514.24 Q630.687 1513.66 632.724 1513.66 Q638.094 1513.66 641.289 1516.35 Q644.483 1519.03 644.483 1523.52 Q644.483 1525.65 643.673 1527.57 Q642.886 1529.47 640.779 1532.07 Q640.201 1532.74 637.099 1535.95 Q633.997 1539.15 628.349 1544.91 Z" fill="#000000" fill-rule="nonzero" fill-opacity="1" /><path clip-path="url(#clip290)" d="M654.529 1514.29 L672.886 1514.29 L672.886 1518.22 L658.812 1518.22 L658.812 1526.7 Q659.83 1526.35 660.849 1526.19 Q661.867 1526 662.886 1526 Q668.673 1526 672.052 1529.17 Q675.432 1532.34 675.432 1537.76 Q675.432 1543.34 671.96 1546.44 Q668.487 1549.52 662.168 1549.52 Q659.992 1549.52 657.724 1549.15 Q655.478 1548.78 653.071 1548.04 L653.071 1543.34 Q655.154 1544.47 657.376 1545.03 Q659.599 1545.58 662.075 1545.58 Q666.08 1545.58 668.418 1543.48 Q670.756 1541.37 670.756 1537.76 Q670.756 1534.15 668.418 1532.04 Q666.08 1529.94 662.075 1529.94 Q660.2 1529.94 658.325 1530.35 Q656.474 1530.77 654.529 1531.65 L654.529 1514.29 Z" fill="#000000" fill-rule="nonzero" fill-opacity="1" /><path clip-path="url(#clip290)" d="M694.645 1517.37 Q691.034 1517.37 689.205 1520.93 Q687.399 1524.47 687.399 1531.6 Q687.399 1538.71 689.205 1542.27 Q691.034 1545.82 694.645 1545.82 Q698.279 1545.82 700.084 1542.27 Q701.913 1538.71 701.913 1531.6 Q701.913 1524.47 700.084 1520.93 Q698.279 1517.37 694.645 1517.37 M694.645 1513.66 Q700.455 1513.66 703.51 1518.27 Q706.589 1522.85 706.589 1531.6 Q706.589 1540.33 703.51 1544.94 Q700.455 1549.52 694.645 1549.52 Q688.835 1549.52 685.756 1544.94 Q682.7 1540.33 682.7 1531.6 Q682.7 1522.85 685.756 1518.27 Q688.835 1513.66 694.645 1513.66 Z" fill="#000000" fill-rule="nonzero" fill-opacity="1" /><path clip-path="url(#clip290)" d="M1116.59 1514.29 L1134.95 1514.29 L1134.95 1518.22 L1120.88 1518.22 L1120.88 1526.7 Q1121.89 1526.35 1122.91 1526.19 Q1123.93 1526 1124.95 1526 Q1130.74 1526 1134.12 1529.17 Q1137.5 1532.34 1137.5 1537.76 Q1137.5 1543.34 1134.02 1546.44 Q1130.55 1549.52 1124.23 1549.52 Q1122.06 1549.52 1119.79 1549.15 Q1117.54 1548.78 1115.13 1548.04 L1115.13 1543.34 Q1117.22 1544.47 1119.44 1545.03 Q1121.66 1545.58 1124.14 1545.58 Q1128.14 1545.58 1130.48 1543.48 Q1132.82 1541.37 1132.82 1537.76 Q1132.82 1534.15 1130.48 1532.04 Q1128.14 1529.94 1124.14 1529.94 Q1122.26 1529.94 1120.39 1530.35 Q1118.54 1530.77 1116.59 1531.65 L1116.59 1514.29 Z" fill="#000000" fill-rule="nonzero" fill-opacity="1" /><path clip-path="url(#clip290)" d="M1156.71 1517.37 Q1153.1 1517.37 1151.27 1520.93 Q1149.46 1524.47 1149.46 1531.6 Q1149.46 1538.71 1151.27 1542.27 Q1153.1 1545.82 1156.71 1545.82 Q1160.34 1545.82 1162.15 1542.27 Q1163.98 1538.71 1163.98 1531.6 Q1163.98 1524.47 1162.15 1520.93 Q1160.34 1517.37 1156.71 1517.37 M1156.71 1513.66 Q1162.52 1513.66 1165.57 1518.27 Q1168.65 1522.85 1168.65 1531.6 Q1168.65 1540.33 1165.57 1544.94 Q1162.52 1549.52 1156.71 1549.52 Q1150.9 1549.52 1147.82 1544.94 Q1144.76 1540.33 1144.76 1531.6 Q1144.76 1522.85 1147.82 1518.27 Q1150.9 1513.66 1156.71 1513.66 Z" fill="#000000" fill-rule="nonzero" fill-opacity="1" /><path clip-path="url(#clip290)" d="M1186.87 1517.37 Q1183.26 1517.37 1181.43 1520.93 Q1179.62 1524.47 1179.62 1531.6 Q1179.62 1538.71 1181.43 1542.27 Q1183.26 1545.82 1186.87 1545.82 Q1190.5 1545.82 1192.31 1542.27 Q1194.14 1538.71 1194.14 1531.6 Q1194.14 1524.47 1192.31 1520.93 Q1190.5 1517.37 1186.87 1517.37 M1186.87 1513.66 Q1192.68 1513.66 1195.74 1518.27 Q1198.81 1522.85 1198.81 1531.6 Q1198.81 1540.33 1195.74 1544.94 Q1192.68 1549.52 1186.87 1549.52 Q1181.06 1549.52 1177.98 1544.94 Q1174.93 1540.33 1174.93 1531.6 Q1174.93 1522.85 1177.98 1518.27 Q1181.06 1513.66 1186.87 1513.66 Z" fill="#000000" fill-rule="nonzero" fill-opacity="1" /><path clip-path="url(#clip290)" d="M1607.57 1514.29 L1629.79 1514.29 L1629.79 1516.28 L1617.24 1548.85 L1612.36 1548.85 L1624.17 1518.22 L1607.57 1518.22 L1607.57 1514.29 Z" fill="#000000" fill-rule="nonzero" fill-opacity="1" /><path clip-path="url(#clip290)" d="M1638.96 1514.29 L1657.31 1514.29 L1657.31 1518.22 L1643.24 1518.22 L1643.24 1526.7 Q1644.26 1526.35 1645.28 1526.19 Q1646.29 1526 1647.31 1526 Q1653.1 1526 1656.48 1529.17 Q1659.86 1532.34 1659.86 1537.76 Q1659.86 1543.34 1656.39 1546.44 Q1652.92 1549.52 1646.6 1549.52 Q1644.42 1549.52 1642.15 1549.15 Q1639.91 1548.78 1637.5 1548.04 L1637.5 1543.34 Q1639.58 1544.47 1641.8 1545.03 Q1644.03 1545.58 1646.5 1545.58 Q1650.51 1545.58 1652.85 1543.48 Q1655.18 1541.37 1655.18 1537.76 Q1655.18 1534.15 1652.85 1532.04 Q1650.51 1529.94 1646.5 1529.94 Q1644.63 1529.94 1642.75 1530.35 Q1640.9 1530.77 1638.96 1531.65 L1638.96 1514.29 Z" fill="#000000" fill-rule="nonzero" fill-opacity="1" /><path clip-path="url(#clip290)" d="M1679.07 1517.37 Q1675.46 1517.37 1673.63 1520.93 Q1671.83 1524.47 1671.83 1531.6 Q1671.83 1538.71 1673.63 1542.27 Q1675.46 1545.82 1679.07 1545.82 Q1682.71 1545.82 1684.51 1542.27 Q1686.34 1538.71 1686.34 1531.6 Q1686.34 1524.47 1684.51 1520.93 Q1682.71 1517.37 1679.07 1517.37 M1679.07 1513.66 Q1684.88 1513.66 1687.94 1518.27 Q1691.02 1522.85 1691.02 1531.6 Q1691.02 1540.33 1687.94 1544.94 Q1684.88 1549.52 1679.07 1549.52 Q1673.26 1549.52 1670.18 1544.94 Q1667.13 1540.33 1667.13 1531.6 Q1667.13 1522.85 1670.18 1518.27 Q1673.26 1513.66 1679.07 1513.66 Z" fill="#000000" fill-rule="nonzero" fill-opacity="1" /><path clip-path="url(#clip290)" d="M2086.14 1544.91 L2093.78 1544.91 L2093.78 1518.55 L2085.47 1520.21 L2085.47 1515.95 L2093.73 1514.29 L2098.4 1514.29 L2098.4 1544.91 L2106.04 1544.91 L2106.04 1548.85 L2086.14 1548.85 L2086.14 1544.91 Z" fill="#000000" fill-rule="nonzero" fill-opacity="1" /><path clip-path="url(#clip290)" d="M2125.49 1517.37 Q2121.88 1517.37 2120.05 1520.93 Q2118.24 1524.47 2118.24 1531.6 Q2118.24 1538.71 2120.05 1542.27 Q2121.88 1545.82 2125.49 1545.82 Q2129.12 1545.82 2130.93 1542.27 Q2132.76 1538.71 2132.76 1531.6 Q2132.76 1524.47 2130.93 1520.93 Q2129.12 1517.37 2125.49 1517.37 M2125.49 1513.66 Q2131.3 1513.66 2134.35 1518.27 Q2137.43 1522.85 2137.43 1531.6 Q2137.43 1540.33 2134.35 1544.94 Q2131.3 1549.52 2125.49 1549.52 Q2119.68 1549.52 2116.6 1544.94 Q2113.54 1540.33 2113.54 1531.6 Q2113.54 1522.85 2116.6 1518.27 Q2119.68 1513.66 2125.49 1513.66 Z" fill="#000000" fill-rule="nonzero" fill-opacity="1" /><path clip-path="url(#clip290)" d="M2155.65 1517.37 Q2152.04 1517.37 2150.21 1520.93 Q2148.4 1524.47 2148.4 1531.6 Q2148.4 1538.71 2150.21 1542.27 Q2152.04 1545.82 2155.65 1545.82 Q2159.28 1545.82 2161.09 1542.27 Q2162.92 1538.71 2162.92 1531.6 Q2162.92 1524.47 2161.09 1520.93 Q2159.28 1517.37 2155.65 1517.37 M2155.65 1513.66 Q2161.46 1513.66 2164.52 1518.27 Q2167.59 1522.85 2167.59 1531.6 Q2167.59 1540.33 2164.52 1544.94 Q2161.46 1549.52 2155.65 1549.52 Q2149.84 1549.52 2146.76 1544.94 Q2143.71 1540.33 2143.71 1531.6 Q2143.71 1522.85 2146.76 1518.27 Q2149.84 1513.66 2155.65 1513.66 Z" fill="#000000" fill-rule="nonzero" fill-opacity="1" /><path clip-path="url(#clip290)" d="M2185.81 1517.37 Q2182.2 1517.37 2180.37 1520.93 Q2178.57 1524.47 2178.57 1531.6 Q2178.57 1538.71 2180.37 1542.27 Q2182.2 1545.82 2185.81 1545.82 Q2189.45 1545.82 2191.25 1542.27 Q2193.08 1538.71 2193.08 1531.6 Q2193.08 1524.47 2191.25 1520.93 Q2189.45 1517.37 2185.81 1517.37 M2185.81 1513.66 Q2191.62 1513.66 2194.68 1518.27 Q2197.76 1522.85 2197.76 1531.6 Q2197.76 1540.33 2194.68 1544.94 Q2191.62 1549.52 2185.81 1549.52 Q2180 1549.52 2176.92 1544.94 Q2173.87 1540.33 2173.87 1531.6 Q2173.87 1522.85 2176.92 1518.27 Q2180 1513.66 2185.81 1513.66 Z" fill="#000000" fill-rule="nonzero" fill-opacity="1" /><polyline clip-path="url(#clip292)" style="stroke:#000000; stroke-linecap:round; stroke-linejoin:round; stroke-width:2; stroke-opacity:0.1; fill:none" points="110.858,1445.72 2352.76,1445.72 "/>
<polyline clip-path="url(#clip292)" style="stroke:#000000; stroke-linecap:round; stroke-linejoin:round; stroke-width:2; stroke-opacity:0.1; fill:none" points="110.858,1072.57 2352.76,1072.57 "/>
<polyline clip-path="url(#clip292)" style="stroke:#000000; stroke-linecap:round; stroke-linejoin:round; stroke-width:2; stroke-opacity:0.1; fill:none" points="110.858,699.415 2352.76,699.415 "/>
<polyline clip-path="url(#clip292)" style="stroke:#000000; stroke-linecap:round; stroke-linejoin:round; stroke-width:2; stroke-opacity:0.1; fill:none" points="110.858,326.265 2352.76,326.265 "/>
<polyline clip-path="url(#clip290)" style="stroke:#000000; stroke-linecap:round; stroke-linejoin:round; stroke-width:4; stroke-opacity:1; fill:none" points="110.858,1486.45 110.858,47.2441 "/>
<polyline clip-path="url(#clip290)" style="stroke:#000000; stroke-linecap:round; stroke-linejoin:round; stroke-width:4; stroke-opacity:1; fill:none" points="110.858,1445.72 129.755,1445.72 "/>
<polyline clip-path="url(#clip290)" style="stroke:#000000; stroke-linecap:round; stroke-linejoin:round; stroke-width:4; stroke-opacity:1; fill:none" points="110.858,1072.57 129.755,1072.57 "/>
<polyline clip-path="url(#clip290)" style="stroke:#000000; stroke-linecap:round; stroke-linejoin:round; stroke-width:4; stroke-opacity:1; fill:none" points="110.858,699.415 129.755,699.415 "/>
<polyline clip-path="url(#clip290)" style="stroke:#000000; stroke-linecap:round; stroke-linejoin:round; stroke-width:4; stroke-opacity:1; fill:none" points="110.858,326.265 129.755,326.265 "/>
<path clip-path="url(#clip290)" d="M53.9551 1428.44 L72.3115 1428.44 L72.3115 1432.37 L58.2375 1432.37 L58.2375 1440.84 Q59.256 1440.5 60.2745 1440.33 Q61.293 1440.15 62.3115 1440.15 Q68.0985 1440.15 71.4781 1443.32 Q74.8577 1446.49 74.8577 1451.91 Q74.8577 1457.49 71.3855 1460.59 Q67.9133 1463.67 61.5939 1463.67 Q59.418 1463.67 57.1495 1463.3 Q54.9041 1462.93 52.4967 1462.19 L52.4967 1457.49 Q54.5801 1458.62 56.8023 1459.18 Q59.0245 1459.73 61.5013 1459.73 Q65.5059 1459.73 67.8439 1457.63 Q70.1818 1455.52 70.1818 1451.91 Q70.1818 1448.3 67.8439 1446.19 Q65.5059 1444.08 61.5013 1444.08 Q59.6263 1444.08 57.7513 1444.5 Q55.8995 1444.92 53.9551 1445.8 L53.9551 1428.44 Z" fill="#000000" fill-rule="nonzero" fill-opacity="1" /><path clip-path="url(#clip290)" d="M63.33 1070.7 Q60.1819 1070.7 58.33 1072.85 Q56.5014 1075.01 56.5014 1078.76 Q56.5014 1082.48 58.33 1084.66 Q60.1819 1086.81 63.33 1086.81 Q66.4782 1086.81 68.3068 1084.66 Q70.1587 1082.48 70.1587 1078.76 Q70.1587 1075.01 68.3068 1072.85 Q66.4782 1070.7 63.33 1070.7 M72.6124 1056.05 L72.6124 1060.31 Q70.8531 1059.48 69.0476 1059.04 Q67.2652 1058.6 65.5059 1058.6 Q60.8763 1058.6 58.4226 1061.72 Q55.9921 1064.85 55.6449 1071.17 Q57.0106 1069.15 59.0708 1068.09 Q61.131 1067 63.6078 1067 Q68.8161 1067 71.8253 1070.17 Q74.8577 1073.32 74.8577 1078.76 Q74.8577 1084.08 71.7096 1087.3 Q68.5615 1090.52 63.33 1090.52 Q57.3347 1090.52 54.1634 1085.93 Q50.9921 1081.33 50.9921 1072.6 Q50.9921 1064.41 54.881 1059.54 Q58.7699 1054.66 65.3208 1054.66 Q67.08 1054.66 68.8624 1055.01 Q70.6679 1055.35 72.6124 1056.05 Z" fill="#000000" fill-rule="nonzero" fill-opacity="1" /><path clip-path="url(#clip290)" d="M52.6356 682.135 L74.8577 682.135 L74.8577 684.126 L62.3115 716.695 L57.4273 716.695 L69.2328 686.07 L52.6356 686.07 L52.6356 682.135 Z" fill="#000000" fill-rule="nonzero" fill-opacity="1" /><path clip-path="url(#clip290)" d="M63.006 327.133 Q59.6726 327.133 57.7513 328.916 Q55.8532 330.698 55.8532 333.823 Q55.8532 336.948 57.7513 338.73 Q59.6726 340.513 63.006 340.513 Q66.3393 340.513 68.2606 338.73 Q70.1818 336.925 70.1818 333.823 Q70.1818 330.698 68.2606 328.916 Q66.3624 327.133 63.006 327.133 M58.33 325.142 Q55.3208 324.402 53.631 322.342 Q51.9643 320.281 51.9643 317.318 Q51.9643 313.175 54.9041 310.768 Q57.8671 308.36 63.006 308.36 Q68.168 308.36 71.1078 310.768 Q74.0476 313.175 74.0476 317.318 Q74.0476 320.281 72.3578 322.342 Q70.6911 324.402 67.705 325.142 Q71.0846 325.93 72.9596 328.221 Q74.8577 330.513 74.8577 333.823 Q74.8577 338.846 71.7791 341.531 Q68.7235 344.216 63.006 344.216 Q57.2884 344.216 54.2097 341.531 Q51.1542 338.846 51.1542 333.823 Q51.1542 330.513 53.0523 328.221 Q54.9504 325.93 58.33 325.142 M56.6171 317.758 Q56.6171 320.443 58.2838 321.948 Q59.9736 323.453 63.006 323.453 Q66.0152 323.453 67.705 321.948 Q69.418 320.443 69.418 317.758 Q69.418 315.073 67.705 313.568 Q66.0152 312.064 63.006 312.064 Q59.9736 312.064 58.2838 313.568 Q56.6171 315.073 56.6171 317.758 Z" fill="#000000" fill-rule="nonzero" fill-opacity="1" /><polyline clip-path="url(#clip292)" style="stroke:#009af9; stroke-linecap:round; stroke-linejoin:round; stroke-width:4; stroke-opacity:1; fill:none" points="174.308,1445.72 176.277,1445.72 178.246,1445.72 180.216,1259.14 182.185,1273.21 184.154,1304.48 186.123,1330.08 188.093,1351.05 190.062,1351.05 192.031,1256.11 194,1256.48 195.97,1290.78 197.939,1318.87 199.908,1318.87 201.877,1212.4 203.847,1246.07 205.816,1282.26 207.785,1311.89 209.755,1336.15 211.724,1356.01 213.693,1372.27 215.662,1385.58 217.632,1396.48 219.601,1405.41 221.57,1405.41 223.539,1222.75 225.509,1243.53 227.478,1280.18 229.447,1280.18 231.417,1227.62 233.386,1239.69 235.355,1239.69 237.324,1176.28 239.294,1212.41 241.263,1254.7 243.232,1289.33 245.201,1317.68 247.171,1317.68 249.14,1218.61 251.109,1218.61 253.079,1155.42 255.048,1167.45 257.017,1167.45 258.986,1023.34 260.956,1023.34 262.925,844.167 264.894,854.141 266.863,961.376 268.833,961.376 270.802,852.921 272.771,852.921 274.741,785.877 276.71,785.877 278.679,816.675 280.648,820.311 282.618,933.678 284.587,933.678 286.556,835.676 288.525,932.276 290.495,1025.35 292.464,1101.55 294.433,1163.93 296.403,1163.93 298.372,980.21 300.341,980.21 302.31,928.394 304.28,995.789 306.249,995.789 308.218,994.863 310.187,1004.27 312.157,1004.27 314.126,968.084 316.095,973.655 318.065,1059.23 320.034,1059.23 322.003,907.905 323.972,961.196 325.942,1049.02 327.911,1120.93 329.88,1120.93 331.849,959.727 333.819,1014.11 335.788,1092.35 337.757,1156.4 339.727,1208.84 341.696,1208.84 343.665,1029.86 345.634,1093.97 347.604,1157.73 349.573,1209.93 351.542,1252.67 353.511,1252.67 355.481,1096.73 357.45,1106.11 359.419,1106.11 361.389,1038.82 363.358,1038.82 365.327,984.938 367.296,995.943 369.266,995.943 371.235,891.259 373.204,891.259 375.173,857.053 377.143,917.327 379.112,917.327 381.081,884.044 383.051,905.424 385.02,1003.36 386.989,1083.55 388.958,1149.2 390.928,1149.2 392.897,1103.23 394.866,1135.31 396.835,1191.57 398.805,1191.57 400.774,1161.33 402.743,1163.61 404.713,1214.75 406.682,1214.75 408.651,1165.14 410.62,1188.09 412.59,1188.09 414.559,1142.88 416.528,1165.81 418.497,1216.55 420.467,1216.55 422.436,1107.41 424.405,1165.3 426.375,1165.3 428.344,980.766 430.313,1062.26 432.282,1131.77 434.252,1188.68 436.221,1235.27 438.19,1235.27 440.159,1081.82 442.129,1092.13 444.098,1156.22 446.067,1208.7 448.037,1208.7 450.006,1119.24 451.975,1150.4 453.944,1150.4 455.914,1078.91 457.883,1142.18 459.852,1197.2 461.821,1242.25 463.791,1279.13 465.76,1279.13 467.729,1100.2 469.699,1100.2 471.668,921.022 473.637,985.613 475.606,1069.02 477.576,1137.3 479.545,1193.21 481.514,1193.21 483.483,1120.37 485.453,1177.44 487.422,1226.07 489.391,1265.88 491.361,1298.48 493.33,1325.17 495.299,1325.17 497.268,1213.47 499.238,1213.47 501.207,1065.82 503.176,1065.82 505.145,958.491 507.115,959.609 509.084,1047.72 511.053,1047.72 513.022,978.278 514.992,978.278 516.961,919.843 518.93,993.83 520.9,1075.74 522.869,1142.81 524.838,1142.81 526.807,1062.47 528.777,1062.47 530.746,905.342 532.715,910.64 534.684,1007.63 536.654,1087.04 538.623,1152.06 540.592,1152.06 542.562,1087.77 544.531,1141.96 546.5,1197.02 548.469,1242.1 550.439,1279.01 552.408,1309.23 554.377,1333.97 556.346,1354.23 558.316,1370.81 560.285,1370.81 562.254,1308.23 564.224,1311.57 566.193,1311.57 568.162,1202.61 570.131,1242.15 572.101,1242.15 574.07,1140.44 576.039,1182.54 578.008,1230.25 579.978,1269.3 581.947,1269.3 583.916,1091.68 585.886,1140.36 587.855,1195.71 589.824,1195.71 591.793,1021.1 593.763,1021.1 595.732,889.584 597.701,896.26 599.67,995.859 601.64,1077.4 603.609,1144.17 605.578,1144.17 607.548,1056.91 609.517,1099 611.486,1099 613.455,1031.83 615.425,1056.61 617.394,1127.14 619.363,1127.14 621.332,1034.48 623.302,1087.33 625.271,1152.3 627.24,1152.3 629.21,1088.51 631.179,1095.84 633.148,1159.26 635.117,1211.19 637.087,1211.19 639.056,1108.7 641.025,1158.19 642.994,1158.19 644.964,1117.47 646.933,1141.04 648.902,1141.04 650.872,1093.95 652.841,1093.95 654.81,1033.89 656.779,1059.02 658.749,1129.12 660.718,1129.12 662.687,1062.2 664.656,1123.88 666.626,1182.22 668.595,1229.98 670.564,1269.09 672.534,1301.11 674.503,1301.11 676.472,1212.21 678.441,1218.28 680.411,1218.28 682.38,1051.42 684.349,1092.26 686.318,1092.26 688.288,953.142 690.257,953.142 692.226,860.635 694.196,869.662 696.165,974.082 698.134,1059.58 700.103,1129.57 702.073,1129.57 704.042,963.46 706.011,963.46 707.98,868.759 709.95,921.92 711.919,1016.87 713.888,1094.6 715.858,1094.6 717.827,1028.11 719.796,1095.7 721.765,1095.7 723.735,932.066 725.704,932.066 727.673,830.212 729.642,895.63 731.612,895.63 733.581,794.505 735.55,901.852 737.52,901.852 739.489,912.106 741.458,928.036 743.427,1021.88 745.397,1021.88 747.366,954.164 749.335,1036.59 751.304,1036.59 753.274,907.457 755.243,907.457 757.212,814.106 759.182,822.607 761.151,935.557 763.12,1028.03 765.089,1103.75 767.059,1165.73 769.028,1216.49 770.997,1216.49 772.966,1170.12 774.936,1170.12 776.905,1098.46 778.874,1117.89 780.844,1117.89 782.813,939.599 784.782,1020.6 786.751,1097.66 788.721,1160.75 790.69,1160.75 792.659,996.919 794.628,1046.4 796.598,1118.79 798.567,1118.79 800.536,1093.15 802.505,1093.15 804.475,916.295 806.444,921.399 808.413,921.399 810.383,921.888 812.352,945.122 814.321,945.122 816.29,783.372 818.26,783.372 820.229,732.057 822.198,808.503 824.167,808.503 826.137,771.605 828.106,859.062 830.075,859.062 832.045,813.364 834.014,901.133 835.983,901.133 837.952,918.198 839.922,926.376 841.891,1020.52 843.86,1097.59 845.829,1160.7 847.799,1212.36 849.768,1254.66 851.737,1254.66 853.707,1155.94 855.676,1155.94 857.645,1051.89 859.614,1089.6 861.584,1154.15 863.553,1154.15 865.522,1099.33 867.491,1099.33 869.461,1047.04 871.43,1047.04 873.399,994.429 875.369,997.198 877.338,997.198 879.307,886.615 881.276,894.585 883.246,994.488 885.215,1076.28 887.184,1143.25 889.153,1198.08 891.123,1242.97 893.092,1242.97 895.061,1187.42 897.031,1212.27 899,1254.58 900.969,1254.58 902.938,1090.23 904.908,1090.23 906.877,1032.49 908.846,1043.79 910.815,1116.65 912.785,1116.65 914.754,930.409 916.723,930.409 918.693,877.551 920.662,959.522 922.631,1047.65 924.6,1047.65 926.57,973.46 928.539,1058.64 930.508,1128.81 932.477,1128.81 934.447,974.406 936.416,974.406 938.385,796.594 940.355,843 942.324,952.254 944.293,1041.7 946.262,1114.94 948.232,1174.9 950.201,1174.9 952.17,1022.5 954.139,1022.5 956.109,852.95 958.078,867.025 960.047,971.924 962.017,971.924 963.986,898.036 965.955,898.036 967.924,804.988 969.894,812.108 971.863,926.962 973.832,926.962 975.801,751.657 977.771,864.849 979.74,864.849 981.709,835.935 983.679,863.203 985.648,968.794 987.617,1055.25 989.586,1126.03 991.556,1126.03 993.525,1084.28 995.494,1115.87 997.463,1175.66 999.433,1224.61 1001.4,1264.69 1003.37,1264.69 1005.34,1153.87 1007.31,1205.28 1009.28,1205.28 1011.25,1108.29 1013.22,1151.13 1015.19,1151.13 1017.16,1084.26 1019.13,1141.78 1021.09,1141.78 1023.06,979.858 1025.03,979.858 1027,840.8 1028.97,845.509 1030.94,845.509 1032.91,757.305 1034.88,771.609 1036.85,893.804 1038.82,993.849 1040.79,993.849 1042.76,842.733 1044.73,909.996 1046.7,1007.11 1048.66,1007.11 1050.63,903.132 1052.6,903.132 1054.57,854.995 1056.54,887.472 1058.51,988.664 1060.48,988.664 1062.45,946.947 1064.42,946.947 1066.39,776.255 1068.36,776.797 1070.33,776.797 1072.3,638.811 1074.27,733.332 1076.23,862.465 1078.2,968.19 1080.17,968.19 1082.14,873.26 1084.11,959.712 1086.08,959.712 1088.05,898.953 1090.02,984.912 1091.99,984.912 1093.96,930.949 1095.93,930.949 1097.9,768.043 1099.87,836.835 1101.83,836.835 1103.8,787.997 1105.77,883.402 1107.74,985.332 1109.71,985.332 1111.68,881.858 1113.65,881.858 1115.62,782.047 1117.59,791.496 1119.56,791.496 1121.53,778.666 1123.5,842.61 1125.47,842.61 1127.44,766.439 1129.4,854.503 1131.37,961.671 1133.34,1049.41 1135.31,1049.41 1137.28,871.551 1139.25,965.063 1141.22,1052.19 1143.19,1052.19 1145.16,1033.91 1147.13,1052.21 1149.1,1123.54 1151.07,1181.94 1153.04,1229.76 1155.01,1268.9 1156.97,1300.95 1158.94,1327.19 1160.91,1327.19 1162.88,1143.12 1164.85,1192.62 1166.82,1192.62 1168.79,1105.73 1170.76,1105.73 1172.73,1021.65 1174.7,1025.98 1176.67,1102.06 1178.64,1164.36 1180.61,1164.36 1182.58,1105.89 1184.54,1150.53 1186.51,1150.53 1188.48,1114.5 1190.45,1133.75 1192.42,1133.75 1194.39,1060.55 1196.36,1128.91 1198.33,1128.91 1200.3,1067.64 1202.27,1122.55 1204.24,1181.13 1206.21,1181.13 1208.18,1013.92 1210.14,1064.27 1212.11,1133.42 1214.08,1190.03 1216.05,1190.03 1218.02,1012.25 1219.99,1078.18 1221.96,1078.18 1223.93,1003.17 1225.9,1003.17 1227.87,925.806 1229.84,932.383 1231.81,932.383 1233.78,911.11 1235.75,957.245 1237.71,957.245 1239.68,942.706 1241.65,976.117 1243.62,976.117 1245.59,833.252 1247.56,892.808 1249.53,993.033 1251.5,993.033 1253.47,927.129 1255.44,973.061 1257.41,1058.74 1259.38,1128.89 1261.35,1186.32 1263.32,1186.32 1265.28,1034.18 1267.25,1057.2 1269.22,1057.2 1271.19,983.779 1273.16,983.779 1275.13,857.366 1277.1,890.151 1279.07,990.858 1281.04,1073.31 1283.01,1140.82 1284.98,1196.08 1286.95,1196.08 1288.92,1130.42 1290.88,1177.96 1292.85,1226.49 1294.82,1266.23 1296.79,1298.77 1298.76,1325.4 1300.73,1347.21 1302.7,1365.07 1304.67,1365.07 1306.64,1260.25 1308.61,1279.15 1310.58,1279.15 1312.55,1109.96 1314.52,1138.79 1316.49,1138.79 1318.45,1038.54 1320.42,1038.54 1322.39,900.021 1324.36,919.083 1326.33,1014.54 1328.3,1014.54 1330.27,967.655 1332.24,1027.4 1334.21,1027.4 1336.18,884.418 1338.15,884.418 1340.12,707.944 1342.09,759.051 1344.06,759.051 1346.02,677.887 1347.99,677.887 1349.96,619.678 1351.93,722.201 1353.9,853.352 1355.87,853.352 1357.84,791.073 1359.81,860.688 1361.78,966.736 1363.75,966.736 1365.72,907.263 1367.69,907.263 1369.66,856.119 1371.63,856.119 1373.59,820.871 1375.56,853.787 1377.53,961.085 1379.5,1048.93 1381.47,1120.86 1383.44,1179.74 1385.41,1227.96 1387.38,1227.96 1389.35,1126.93 1391.32,1170.94 1393.29,1220.75 1395.26,1261.53 1397.23,1294.92 1399.19,1294.92 1401.16,1184.67 1403.13,1229.55 1405.1,1268.74 1407.07,1300.82 1409.04,1327.08 1411.01,1327.08 1412.98,1218.05 1414.95,1218.05 1416.92,1049.56 1418.89,1084.52 1420.86,1084.52 1422.83,901.844 1424.8,901.844 1426.76,868.024 1428.73,928.791 1430.7,928.791 1432.67,856.097 1434.64,856.097 1436.61,754.941 1438.58,822.277 1440.55,935.287 1442.52,935.287 1444.49,861.801 1446.46,928.691 1448.43,1022.41 1450.4,1022.41 1452.37,894.945 1454.33,921.597 1456.3,1016.6 1458.27,1094.39 1460.24,1158.07 1462.21,1158.07 1464.18,1124.02 1466.15,1139.08 1468.12,1194.66 1470.09,1240.17 1472.06,1240.17 1474.03,1063.4 1476,1063.4 1477.97,1013.03 1479.94,1048.51 1481.9,1048.51 1483.87,990.066 1485.84,990.066 1487.81,937.323 1489.78,989.907 1491.75,989.907 1493.72,917.355 1495.69,972.208 1497.66,1058.04 1499.63,1128.31 1501.6,1128.31 1503.57,1107.21 1505.54,1112.35 1507.5,1172.78 1509.47,1172.78 1511.44,1143.39 1513.41,1149.02 1515.38,1202.8 1517.35,1246.83 1519.32,1246.83 1521.29,1180.11 1523.26,1219.25 1525.23,1260.3 1527.2,1260.3 1529.17,1175.84 1531.14,1186.31 1533.11,1233.33 1535.07,1271.83 1537.04,1303.35 1539.01,1329.16 1540.98,1350.29 1542.95,1367.58 1544.92,1381.75 1546.89,1393.34 1548.86,1393.34 1550.83,1322.4 1552.8,1337.11 1554.77,1356.8 1556.74,1372.91 1558.71,1386.11 1560.68,1396.92 1562.64,1396.92 1564.61,1325.7 1566.58,1325.7 1568.55,1253.79 1570.52,1253.79 1572.49,1193.67 1574.46,1200.13 1576.43,1200.13 1578.4,1162.18 1580.37,1172.81 1582.34,1222.28 1584.31,1262.78 1586.28,1295.94 1588.25,1323.09 1590.21,1345.32 1592.18,1345.32 1594.15,1277.02 1596.12,1298.3 1598.09,1298.3 1600.06,1121.67 1602.03,1121.67 1604,1027.62 1605.97,1057.2 1607.94,1057.2 1609.91,1052.27 1611.88,1053.16 1613.85,1124.32 1615.81,1182.58 1617.78,1230.28 1619.75,1269.33 1621.72,1301.3 1623.69,1327.48 1625.66,1348.91 1627.63,1348.91 1629.6,1277.99 1631.57,1302.93 1633.54,1302.93 1635.51,1251.51 1637.48,1255.85 1639.45,1290.27 1641.42,1290.27 1643.38,1119.17 1645.35,1148.79 1647.32,1202.62 1649.29,1246.68 1651.26,1282.76 1653.23,1312.3 1655.2,1336.48 1657.17,1336.48 1659.14,1232.14 1661.11,1257.77 1663.08,1257.77 1665.05,1094.24 1667.02,1117.74 1668.99,1177.19 1670.95,1225.87 1672.92,1225.87 1674.89,1140.14 1676.86,1161.66 1678.83,1213.15 1680.8,1255.3 1682.77,1255.3 1684.74,1091.01 1686.71,1091.01 1688.68,1035.05 1690.65,1043.78 1692.62,1116.64 1694.59,1176.29 1696.56,1225.13 1698.52,1225.13 1700.49,1156.47 1702.46,1202.31 1704.43,1202.31 1706.4,1150.71 1708.37,1178.95 1710.34,1227.3 1712.31,1266.9 1714.28,1299.31 1716.25,1325.85 1718.22,1347.58 1720.19,1365.37 1722.16,1379.93 1724.12,1391.86 1726.09,1401.62 1728.06,1401.62 1730.03,1291.07 1732,1314.96 1733.97,1314.96 1735.94,1241.8 1737.91,1241.8 1739.88,1158.31 1741.85,1169.14 1743.82,1169.14 1745.79,1101.76 1747.76,1101.76 1749.73,1038.27 1751.69,1091.68 1753.66,1155.86 1755.63,1208.4 1757.6,1251.42 1759.57,1286.64 1761.54,1315.47 1763.51,1315.47 1765.48,1210.69 1767.45,1242.1 1769.42,1279.01 1771.39,1279.01 1773.36,1233.49 1775.33,1235.2 1777.3,1273.36 1779.26,1304.6 1781.23,1330.18 1783.2,1330.18 1785.17,1154.73 1787.14,1182.1 1789.11,1182.1 1791.08,1111.4 1793.05,1167.86 1795.02,1218.23 1796.99,1259.46 1798.96,1293.22 1800.93,1293.22 1802.9,1228.61 1804.87,1255.47 1806.83,1255.47 1808.8,1098.21 1810.77,1109.37 1812.74,1109.37 1814.71,1038.74 1816.68,1108.5 1818.65,1169.63 1820.62,1169.63 1822.59,1107.19 1824.56,1107.19 1826.53,1044.19 1828.5,1044.19 1830.47,946.281 1832.43,986.652 1834.4,1069.87 1836.37,1138 1838.34,1193.78 1840.31,1193.78 1842.28,1127.39 1844.25,1127.56 1846.22,1185.23 1848.19,1185.23 1850.16,1116.82 1852.13,1116.82 1854.1,973.977 1856.07,989.363 1858.04,1072.09 1860,1139.81 1861.97,1195.26 1863.94,1195.26 1865.91,1125.33 1867.88,1125.33 1869.85,987.619 1871.82,987.619 1873.79,875.868 1875.76,884.443 1877.73,884.443 1879.7,824.955 1881.67,885.082 1883.64,885.082 1885.61,704.562 1887.57,832.285 1889.54,832.285 1891.51,813.508 1893.48,813.508 1895.45,686.59 1897.42,690.692 1899.39,827.555 1901.36,827.555 1903.33,784.142 1905.3,784.142 1907.27,710.231 1909.24,810.835 1911.21,925.919 1913.17,1020.14 1915.14,1020.14 1917.11,1009.18 1919.08,1025.43 1921.05,1101.62 1923.02,1163.99 1924.99,1215.06 1926.96,1256.87 1928.93,1291.1 1930.9,1319.13 1932.87,1342.08 1934.84,1360.86 1936.81,1360.86 1938.78,1251.82 1940.74,1281.35 1942.71,1311.14 1944.68,1335.54 1946.65,1355.51 1948.62,1355.51 1950.59,1248.73 1952.56,1274.64 1954.53,1305.65 1956.5,1331.04 1958.47,1331.04 1960.44,1267.13 1962.41,1267.13 1964.38,1165.95 1966.35,1176.83 1968.31,1176.83 1970.28,1070.46 1972.25,1070.46 1974.22,1034.56 1976.19,1062.4 1978.16,1131.89 1980.13,1188.77 1982.1,1235.35 1984.07,1273.48 1986.04,1304.7 1988.01,1304.7 1989.98,1241.71 1991.95,1263.67 1993.92,1296.67 1995.88,1323.69 1997.85,1345.81 1999.82,1345.81 2001.79,1248.56 2003.76,1256.45 2005.73,1256.45 2007.7,1207.21 2009.67,1220.19 2011.64,1261.07 2013.61,1261.07 2015.58,1088.17 2017.55,1129.57 2019.52,1129.57 2021.48,1080.73 2023.45,1120.35 2025.42,1120.35 2027.39,1054.58 2029.36,1054.58 2031.33,926.916 2033.3,931.642 2035.27,931.642 2037.24,933.162 2039.21,953.101 2041.18,953.101 2043.15,881.592 2045.12,881.592 2047.09,821.621 2049.05,821.621 2051.02,645.963 2052.99,706.963 2054.96,706.963 2056.93,634.405 2058.9,634.405 2060.87,510.541 2062.84,510.541 2064.81,339.684 2066.78,339.684 2068.75,315.478 2070.72,373.962 2072.69,373.962 2074.66,342.97 2076.62,342.97 2078.59,189.789 2080.56,298.702 2082.53,298.702 2084.5,193.367 2086.47,193.367 2088.44,134.291 2090.41,134.291 2092.38,127.201 2094.35,127.297 2096.32,127.297 2098.29,87.9763 2100.26,303.503 2102.23,510.551 2104.19,510.551 2106.16,330.486 2108.13,526.242 2110.1,526.242 2112.07,339.761 2114.04,540.144 2116.01,540.144 2117.98,497.573 2119.95,497.573 2121.92,420.346 2123.89,542.323 2125.86,542.323 2127.83,570.643 2129.79,637.12 2131.76,637.12 2133.73,567.957 2135.7,722.176 2137.67,853.331 2139.64,853.331 2141.61,709.431 2143.58,796.099 2145.55,796.099 2147.52,794.363 2149.49,794.363 2151.46,615.494 2153.43,617.308 2155.4,617.308 2157.36,587.03 2159.33,587.03 2161.3,558.626 2163.27,634.683 2165.24,634.683 2167.21,591.839 2169.18,681.51 2171.15,820.037 2173.12,933.453 2175.09,933.453 2177.06,861.025 2179.03,926.996 2181,926.996 2182.97,868.373 2184.93,957.977 2186.9,957.977 2188.87,862.441 2190.84,951.545 2192.81,1041.12 2194.78,1114.46 2196.75,1174.51 2198.72,1174.51 2200.69,1001.92 2202.66,1062.61 2204.63,1062.61 2206.6,1041.24 2208.57,1061.09 2210.54,1130.81 2212.5,1187.89 2214.47,1187.89 2216.44,1100.46 2218.41,1133.35 2220.38,1133.35 2222.35,1037.5 2224.32,1037.5 2226.29,904.715 2228.26,907.834 2230.23,1005.34 2232.2,1085.16 2234.17,1085.16 2236.14,1015.65 2238.1,1015.65 2240.07,885.892 2242.04,909.998 2244.01,1007.11 2245.98,1086.61 2247.95,1086.61 2249.92,1042.34 2251.89,1084.96 2253.86,1084.96 2255.83,939.485 2257.8,977.962 2259.77,977.962 2261.74,860.376 2263.71,883.569 2265.67,883.569 2267.64,765.867 2269.61,811.386 2271.58,811.386 2273.55,758.502 2275.52,863.099 2277.49,968.71 2279.46,968.71 2281.43,940.161 2283.4,987.54 2285.37,1070.59 2287.34,1070.59 2289.31,906.519 "/>
<path clip-path="url(#clip290)" d="M185.588 198.898 L462.208 198.898 L462.208 95.2176 L185.588 95.2176  Z" fill="#ffffff" fill-rule="evenodd" fill-opacity="1"/>
<polyline clip-path="url(#clip290)" style="stroke:#000000; stroke-linecap:round; stroke-linejoin:round; stroke-width:4; stroke-opacity:1; fill:none" points="185.588,198.898 462.208,198.898 462.208,95.2176 185.588,95.2176 185.588,198.898 "/>
<polyline clip-path="url(#clip290)" style="stroke:#009af9; stroke-linecap:round; stroke-linejoin:round; stroke-width:4; stroke-opacity:1; fill:none" points="210.498,147.058 359.958,147.058 "/>
<path clip-path="url(#clip290)" d="M398.71 166.745 Q396.904 171.375 395.192 172.787 Q393.479 174.199 390.608 174.199 L387.205 174.199 L387.205 170.634 L389.705 170.634 Q391.465 170.634 392.437 169.8 Q393.409 168.967 394.59 165.865 L395.354 163.921 L384.868 138.412 L389.381 138.412 L397.483 158.689 L405.585 138.412 L410.099 138.412 L398.71 166.745 Z" fill="#000000" fill-rule="nonzero" fill-opacity="1" /><path clip-path="url(#clip290)" d="M417.39 160.402 L425.029 160.402 L425.029 134.037 L416.719 135.703 L416.719 131.444 L424.983 129.778 L429.659 129.778 L429.659 160.402 L437.298 160.402 L437.298 164.338 L417.39 164.338 L417.39 160.402 Z" fill="#000000" fill-rule="nonzero" fill-opacity="1" /></svg>
