<?xml version="1.0" encoding="utf-8"?>
<svg xmlns="http://www.w3.org/2000/svg" xmlns:xlink="http://www.w3.org/1999/xlink" width="600" height="400" viewBox="0 0 2400 1600">
<defs>
  <clipPath id="clip790">
    <rect x="0" y="0" width="2400" height="1600"/>
  </clipPath>
</defs>
<path clip-path="url(#clip790)" d="M0 1600 L2400 1600 L2400 0 L0 0  Z" fill="#ffffff" fill-rule="evenodd" fill-opacity="1"/>
<defs>
  <clipPath id="clip791">
    <rect x="480" y="0" width="1681" height="1600"/>
  </clipPath>
</defs>
<path clip-path="url(#clip790)" d="M138.959 1423.18 L2352.76 1423.18 L2352.76 47.2441 L138.959 47.2441  Z" fill="#ffffff" fill-rule="evenodd" fill-opacity="1"/>
<defs>
  <clipPath id="clip792">
    <rect x="138" y="47" width="2215" height="1377"/>
  </clipPath>
</defs>
<polyline clip-path="url(#clip792)" style="stroke:#000000; stroke-linecap:round; stroke-linejoin:round; stroke-width:2; stroke-opacity:0.1; fill:none" points="138.959,1423.18 138.959,47.2441 "/>
<polyline clip-path="url(#clip792)" style="stroke:#000000; stroke-linecap:round; stroke-linejoin:round; stroke-width:2; stroke-opacity:0.1; fill:none" points="581.719,1423.18 581.719,47.2441 "/>
<polyline clip-path="url(#clip792)" style="stroke:#000000; stroke-linecap:round; stroke-linejoin:round; stroke-width:2; stroke-opacity:0.1; fill:none" points="1024.48,1423.18 1024.48,47.2441 "/>
<polyline clip-path="url(#clip792)" style="stroke:#000000; stroke-linecap:round; stroke-linejoin:round; stroke-width:2; stroke-opacity:0.1; fill:none" points="1467.24,1423.18 1467.24,47.2441 "/>
<polyline clip-path="url(#clip792)" style="stroke:#000000; stroke-linecap:round; stroke-linejoin:round; stroke-width:2; stroke-opacity:0.1; fill:none" points="1910,1423.18 1910,47.2441 "/>
<polyline clip-path="url(#clip792)" style="stroke:#000000; stroke-linecap:round; stroke-linejoin:round; stroke-width:2; stroke-opacity:0.1; fill:none" points="2352.76,1423.18 2352.76,47.2441 "/>
<polyline clip-path="url(#clip790)" style="stroke:#000000; stroke-linecap:round; stroke-linejoin:round; stroke-width:4; stroke-opacity:1; fill:none" points="138.959,1423.18 2352.76,1423.18 "/>
<polyline clip-path="url(#clip790)" style="stroke:#000000; stroke-linecap:round; stroke-linejoin:round; stroke-width:4; stroke-opacity:1; fill:none" points="138.959,1423.18 138.959,1404.28 "/>
<polyline clip-path="url(#clip790)" style="stroke:#000000; stroke-linecap:round; stroke-linejoin:round; stroke-width:4; stroke-opacity:1; fill:none" points="581.719,1423.18 581.719,1404.28 "/>
<polyline clip-path="url(#clip790)" style="stroke:#000000; stroke-linecap:round; stroke-linejoin:round; stroke-width:4; stroke-opacity:1; fill:none" points="1024.48,1423.18 1024.48,1404.28 "/>
<polyline clip-path="url(#clip790)" style="stroke:#000000; stroke-linecap:round; stroke-linejoin:round; stroke-width:4; stroke-opacity:1; fill:none" points="1467.24,1423.18 1467.24,1404.28 "/>
<polyline clip-path="url(#clip790)" style="stroke:#000000; stroke-linecap:round; stroke-linejoin:round; stroke-width:4; stroke-opacity:1; fill:none" points="1910,1423.18 1910,1404.28 "/>
<polyline clip-path="url(#clip790)" style="stroke:#000000; stroke-linecap:round; stroke-linejoin:round; stroke-width:4; stroke-opacity:1; fill:none" points="2352.76,1423.18 2352.76,1404.28 "/>
<path clip-path="url(#clip790)" d="M138.959 1454.1 Q135.348 1454.1 133.52 1457.66 Q131.714 1461.2 131.714 1468.33 Q131.714 1475.44 133.52 1479.01 Q135.348 1482.55 138.959 1482.55 Q142.594 1482.55 144.399 1479.01 Q146.228 1475.44 146.228 1468.33 Q146.228 1461.2 144.399 1457.66 Q142.594 1454.1 138.959 1454.1 M138.959 1450.39 Q144.77 1450.39 147.825 1455 Q150.904 1459.58 150.904 1468.33 Q150.904 1477.06 147.825 1481.67 Q144.77 1486.25 138.959 1486.25 Q133.149 1486.25 130.071 1481.67 Q127.015 1477.06 127.015 1468.33 Q127.015 1459.58 130.071 1455 Q133.149 1450.39 138.959 1450.39 Z" fill="#000000" fill-rule="nonzero" fill-opacity="1" /><path clip-path="url(#clip790)" d="M576.372 1481.64 L592.691 1481.64 L592.691 1485.58 L570.747 1485.58 L570.747 1481.64 Q573.409 1478.89 577.992 1474.26 Q582.598 1469.61 583.779 1468.27 Q586.024 1465.74 586.904 1464.01 Q587.807 1462.25 587.807 1460.56 Q587.807 1457.8 585.862 1456.07 Q583.941 1454.33 580.839 1454.33 Q578.64 1454.33 576.186 1455.09 Q573.756 1455.86 570.978 1457.41 L570.978 1452.69 Q573.802 1451.55 576.256 1450.97 Q578.709 1450.39 580.747 1450.39 Q586.117 1450.39 589.311 1453.08 Q592.506 1455.77 592.506 1460.26 Q592.506 1462.39 591.696 1464.31 Q590.908 1466.2 588.802 1468.8 Q588.223 1469.47 585.121 1472.69 Q582.02 1475.88 576.372 1481.64 Z" fill="#000000" fill-rule="nonzero" fill-opacity="1" /><path clip-path="url(#clip790)" d="M1027.49 1455.09 L1015.68 1473.54 L1027.49 1473.54 L1027.49 1455.09 M1026.26 1451.02 L1032.14 1451.02 L1032.14 1473.54 L1037.07 1473.54 L1037.07 1477.43 L1032.14 1477.43 L1032.14 1485.58 L1027.49 1485.58 L1027.49 1477.43 L1011.89 1477.43 L1011.89 1472.92 L1026.26 1451.02 Z" fill="#000000" fill-rule="nonzero" fill-opacity="1" /><path clip-path="url(#clip790)" d="M1467.64 1466.44 Q1464.49 1466.44 1462.64 1468.59 Q1460.81 1470.74 1460.81 1474.49 Q1460.81 1478.22 1462.64 1480.39 Q1464.49 1482.55 1467.64 1482.55 Q1470.79 1482.55 1472.62 1480.39 Q1474.47 1478.22 1474.47 1474.49 Q1474.47 1470.74 1472.62 1468.59 Q1470.79 1466.44 1467.64 1466.44 M1476.92 1451.78 L1476.92 1456.04 Q1475.17 1455.21 1473.36 1454.77 Q1471.58 1454.33 1469.82 1454.33 Q1465.19 1454.33 1462.74 1457.45 Q1460.3 1460.58 1459.96 1466.9 Q1461.32 1464.89 1463.38 1463.82 Q1465.44 1462.73 1467.92 1462.73 Q1473.13 1462.73 1476.14 1465.9 Q1479.17 1469.05 1479.17 1474.49 Q1479.17 1479.82 1476.02 1483.03 Q1472.87 1486.25 1467.64 1486.25 Q1461.65 1486.25 1458.48 1481.67 Q1455.3 1477.06 1455.3 1468.33 Q1455.3 1460.14 1459.19 1455.28 Q1463.08 1450.39 1469.63 1450.39 Q1471.39 1450.39 1473.17 1450.74 Q1474.98 1451.09 1476.92 1451.78 Z" fill="#000000" fill-rule="nonzero" fill-opacity="1" /><path clip-path="url(#clip790)" d="M1910 1469.17 Q1906.66 1469.17 1904.74 1470.95 Q1902.84 1472.73 1902.84 1475.86 Q1902.84 1478.98 1904.74 1480.77 Q1906.66 1482.55 1910 1482.55 Q1913.33 1482.55 1915.25 1480.77 Q1917.17 1478.96 1917.17 1475.86 Q1917.17 1472.73 1915.25 1470.95 Q1913.35 1469.17 1910 1469.17 M1905.32 1467.18 Q1902.31 1466.44 1900.62 1464.38 Q1898.96 1462.32 1898.96 1459.35 Q1898.96 1455.21 1901.89 1452.8 Q1904.86 1450.39 1910 1450.39 Q1915.16 1450.39 1918.1 1452.8 Q1921.04 1455.21 1921.04 1459.35 Q1921.04 1462.32 1919.35 1464.38 Q1917.68 1466.44 1914.7 1467.18 Q1918.08 1467.96 1919.95 1470.26 Q1921.85 1472.55 1921.85 1475.86 Q1921.85 1480.88 1918.77 1483.57 Q1915.71 1486.25 1910 1486.25 Q1904.28 1486.25 1901.2 1483.57 Q1898.14 1480.88 1898.14 1475.86 Q1898.14 1472.55 1900.04 1470.26 Q1901.94 1467.96 1905.32 1467.18 M1903.61 1459.79 Q1903.61 1462.48 1905.27 1463.98 Q1906.96 1465.49 1910 1465.49 Q1913.01 1465.49 1914.7 1463.98 Q1916.41 1462.48 1916.41 1459.79 Q1916.41 1457.11 1914.7 1455.6 Q1913.01 1454.1 1910 1454.1 Q1906.96 1454.1 1905.27 1455.6 Q1903.61 1457.11 1903.61 1459.79 Z" fill="#000000" fill-rule="nonzero" fill-opacity="1" /><path clip-path="url(#clip790)" d="M2327.44 1481.64 L2335.08 1481.64 L2335.08 1455.28 L2326.77 1456.95 L2326.77 1452.69 L2335.04 1451.02 L2339.71 1451.02 L2339.71 1481.64 L2347.35 1481.64 L2347.35 1485.58 L2327.44 1485.58 L2327.44 1481.64 Z" fill="#000000" fill-rule="nonzero" fill-opacity="1" /><path clip-path="url(#clip790)" d="M2366.8 1454.1 Q2363.18 1454.1 2361.36 1457.66 Q2359.55 1461.2 2359.55 1468.33 Q2359.55 1475.44 2361.36 1479.01 Q2363.18 1482.55 2366.8 1482.55 Q2370.43 1482.55 2372.23 1479.01 Q2374.06 1475.44 2374.06 1468.33 Q2374.06 1461.2 2372.23 1457.66 Q2370.43 1454.1 2366.8 1454.1 M2366.8 1450.39 Q2372.61 1450.39 2375.66 1455 Q2378.74 1459.58 2378.74 1468.33 Q2378.74 1477.06 2375.66 1481.67 Q2372.61 1486.25 2366.8 1486.25 Q2360.99 1486.25 2357.91 1481.67 Q2354.85 1477.06 2354.85 1468.33 Q2354.85 1459.58 2357.91 1455 Q2360.99 1450.39 2366.8 1450.39 Z" fill="#000000" fill-rule="nonzero" fill-opacity="1" /><path clip-path="url(#clip790)" d="M1244.92 1522.27 L1244.92 1532.4 L1256.98 1532.4 L1256.98 1536.95 L1244.92 1536.95 L1244.92 1556.3 Q1244.92 1560.66 1246.1 1561.9 Q1247.31 1563.14 1250.97 1563.14 L1256.98 1563.14 L1256.98 1568.04 L1250.97 1568.04 Q1244.19 1568.04 1241.61 1565.53 Q1239.03 1562.98 1239.03 1556.3 L1239.03 1536.95 L1234.73 1536.95 L1234.73 1532.4 L1239.03 1532.4 L1239.03 1522.27 L1244.92 1522.27 Z" fill="#000000" fill-rule="nonzero" fill-opacity="1" /><polyline clip-path="url(#clip792)" style="stroke:#000000; stroke-linecap:round; stroke-linejoin:round; stroke-width:2; stroke-opacity:0.1; fill:none" points="138.959,1118.55 2352.76,1118.55 "/>
<polyline clip-path="url(#clip792)" style="stroke:#000000; stroke-linecap:round; stroke-linejoin:round; stroke-width:2; stroke-opacity:0.1; fill:none" points="138.959,774.431 2352.76,774.431 "/>
<polyline clip-path="url(#clip792)" style="stroke:#000000; stroke-linecap:round; stroke-linejoin:round; stroke-width:2; stroke-opacity:0.1; fill:none" points="138.959,430.309 2352.76,430.309 "/>
<polyline clip-path="url(#clip792)" style="stroke:#000000; stroke-linecap:round; stroke-linejoin:round; stroke-width:2; stroke-opacity:0.1; fill:none" points="138.959,86.1857 2352.76,86.1857 "/>
<polyline clip-path="url(#clip790)" style="stroke:#000000; stroke-linecap:round; stroke-linejoin:round; stroke-width:4; stroke-opacity:1; fill:none" points="138.959,1423.18 138.959,47.2441 "/>
<polyline clip-path="url(#clip790)" style="stroke:#000000; stroke-linecap:round; stroke-linejoin:round; stroke-width:4; stroke-opacity:1; fill:none" points="138.959,1118.55 157.857,1118.55 "/>
<polyline clip-path="url(#clip790)" style="stroke:#000000; stroke-linecap:round; stroke-linejoin:round; stroke-width:4; stroke-opacity:1; fill:none" points="138.959,774.431 157.857,774.431 "/>
<polyline clip-path="url(#clip790)" style="stroke:#000000; stroke-linecap:round; stroke-linejoin:round; stroke-width:4; stroke-opacity:1; fill:none" points="138.959,430.309 157.857,430.309 "/>
<polyline clip-path="url(#clip790)" style="stroke:#000000; stroke-linecap:round; stroke-linejoin:round; stroke-width:4; stroke-opacity:1; fill:none" points="138.959,86.1857 157.857,86.1857 "/>
<path clip-path="url(#clip790)" d="M91.0151 1104.35 Q87.404 1104.35 85.5753 1107.92 Q83.7697 1111.46 83.7697 1118.59 Q83.7697 1125.7 85.5753 1129.26 Q87.404 1132.8 91.0151 1132.8 Q94.6493 1132.8 96.4548 1129.26 Q98.2835 1125.7 98.2835 1118.59 Q98.2835 1111.46 96.4548 1107.92 Q94.6493 1104.35 91.0151 1104.35 M91.0151 1100.65 Q96.8252 1100.65 99.8808 1105.26 Q102.959 1109.84 102.959 1118.59 Q102.959 1127.32 99.8808 1131.92 Q96.8252 1136.51 91.0151 1136.51 Q85.2049 1136.51 82.1262 1131.92 Q79.0707 1127.32 79.0707 1118.59 Q79.0707 1109.84 82.1262 1105.26 Q85.2049 1100.65 91.0151 1100.65 Z" fill="#000000" fill-rule="nonzero" fill-opacity="1" /><path clip-path="url(#clip790)" d="M82.0568 757.151 L100.413 757.151 L100.413 761.087 L86.3392 761.087 L86.3392 769.559 Q87.3577 769.211 88.3762 769.049 Q89.3947 768.864 90.4132 768.864 Q96.2002 768.864 99.5798 772.036 Q102.959 775.207 102.959 780.623 Q102.959 786.202 99.4872 789.304 Q96.015 792.383 89.6956 792.383 Q87.5197 792.383 85.2512 792.012 Q83.0058 791.642 80.5984 790.901 L80.5984 786.202 Q82.6818 787.336 84.904 787.892 Q87.1262 788.447 89.603 788.447 Q93.6076 788.447 95.9456 786.341 Q98.2835 784.235 98.2835 780.623 Q98.2835 777.012 95.9456 774.906 Q93.6076 772.799 89.603 772.799 Q87.728 772.799 85.8531 773.216 Q84.0012 773.633 82.0568 774.512 L82.0568 757.151 Z" fill="#000000" fill-rule="nonzero" fill-opacity="1" /><path clip-path="url(#clip790)" d="M51.6634 443.653 L59.3023 443.653 L59.3023 417.288 L50.9921 418.954 L50.9921 414.695 L59.256 413.029 L63.9319 413.029 L63.9319 443.653 L71.5707 443.653 L71.5707 447.589 L51.6634 447.589 L51.6634 443.653 Z" fill="#000000" fill-rule="nonzero" fill-opacity="1" /><path clip-path="url(#clip790)" d="M91.0151 416.107 Q87.404 416.107 85.5753 419.672 Q83.7697 423.214 83.7697 430.343 Q83.7697 437.45 85.5753 441.014 Q87.404 444.556 91.0151 444.556 Q94.6493 444.556 96.4548 441.014 Q98.2835 437.45 98.2835 430.343 Q98.2835 423.214 96.4548 419.672 Q94.6493 416.107 91.0151 416.107 M91.0151 412.404 Q96.8252 412.404 99.8808 417.01 Q102.959 421.593 102.959 430.343 Q102.959 439.07 99.8808 443.676 Q96.8252 448.26 91.0151 448.26 Q85.2049 448.26 82.1262 443.676 Q79.0707 439.07 79.0707 430.343 Q79.0707 421.593 82.1262 417.01 Q85.2049 412.404 91.0151 412.404 Z" fill="#000000" fill-rule="nonzero" fill-opacity="1" /><path clip-path="url(#clip790)" d="M52.6588 99.5305 L60.2976 99.5305 L60.2976 73.1649 L51.9875 74.8316 L51.9875 70.5723 L60.2513 68.9057 L64.9272 68.9057 L64.9272 99.5305 L72.5661 99.5305 L72.5661 103.466 L52.6588 103.466 L52.6588 99.5305 Z" fill="#000000" fill-rule="nonzero" fill-opacity="1" /><path clip-path="url(#clip790)" d="M82.0568 68.9057 L100.413 68.9057 L100.413 72.8408 L86.3392 72.8408 L86.3392 81.313 Q87.3577 80.9658 88.3762 80.8038 Q89.3947 80.6186 90.4132 80.6186 Q96.2002 80.6186 99.5798 83.7899 Q102.959 86.9611 102.959 92.3778 Q102.959 97.9564 99.4872 101.058 Q96.015 104.137 89.6956 104.137 Q87.5197 104.137 85.2512 103.767 Q83.0058 103.396 80.5984 102.655 L80.5984 97.9564 Q82.6818 99.0907 84.904 99.6462 Q87.1262 100.202 89.603 100.202 Q93.6076 100.202 95.9456 98.0953 Q98.2835 95.9889 98.2835 92.3778 Q98.2835 88.7667 95.9456 86.6602 Q93.6076 84.5537 89.603 84.5537 Q87.728 84.5537 85.8531 84.9704 Q84.0012 85.3871 82.0568 86.2667 L82.0568 68.9057 Z" fill="#000000" fill-rule="nonzero" fill-opacity="1" /><polyline clip-path="url(#clip792)" style="stroke:#009af9; stroke-linecap:round; stroke-linejoin:round; stroke-width:8; stroke-opacity:1; fill:none" points="138.959,1118.55 141.175,1118.55 143.391,1118.55 145.607,1118.55 147.823,1118.55 150.04,1118.55 152.256,1118.55 154.472,1118.55 156.688,1118.55 158.904,1118.55 161.12,1118.55 163.336,1118.55 165.552,1118.55 167.768,1118.55 169.984,1118.55 172.2,1118.55 174.416,1118.55 176.632,1118.55 178.848,1118.55 181.064,1118.55 183.28,1118.55 185.496,1118.55 187.712,1118.55 189.928,1118.55 192.144,1118.55 194.36,1118.55 196.576,1118.55 198.792,1118.55 201.008,1118.55 203.224,1118.55 205.44,1118.55 207.656,1118.55 209.872,1118.55 212.088,1118.55 214.304,1118.55 216.52,1118.55 218.736,1118.55 220.952,1118.55 223.168,1118.55 225.384,1118.55 227.6,1118.55 229.816,1118.55 232.032,1118.55 234.248,1118.55 236.464,1118.55 238.68,1118.55 240.896,1118.55 243.112,1118.55 245.328,1118.55 247.544,1118.55 249.76,1118.55 251.976,1118.55 254.192,1118.55 256.408,1118.55 258.624,1118.55 260.84,1118.55 263.056,1118.55 265.272,1049.73 267.488,1049.73 269.704,1049.73 271.92,1049.73 274.136,1049.73 276.352,1049.73 278.568,1049.73 280.784,1049.73 283,1049.73 285.216,980.905 287.432,980.905 289.648,980.905 291.864,980.905 294.08,912.08 296.296,912.08 298.512,912.08 300.728,843.256 302.944,843.256 305.16,843.256 307.376,843.256 309.592,843.256 311.808,843.256 314.024,843.256 316.24,843.256 318.456,843.256 320.672,843.256 322.888,843.256 325.104,843.256 327.321,843.256 329.537,843.256 331.753,843.256 333.969,843.256 336.185,843.256 338.401,843.256 340.617,843.256 342.833,843.256 345.049,912.08 347.265,912.08 349.481,912.08 351.697,912.08 353.913,912.08 356.129,912.08 358.345,912.08 360.561,912.08 362.777,912.08 364.993,912.08 367.209,843.256 369.425,843.256 371.641,843.256 373.857,843.256 376.073,843.256 378.289,843.256 380.505,843.256 382.721,843.256 384.937,843.256 387.153,843.256 389.369,843.256 391.585,843.256 393.801,843.256 396.017,843.256 398.233,843.256 400.449,843.256 402.665,843.256 404.881,843.256 407.097,843.256 409.313,843.256 411.529,843.256 413.745,843.256 415.961,843.256 418.177,843.256 420.393,843.256 422.609,843.256 424.825,843.256 427.041,843.256 429.257,843.256 431.473,912.08 433.689,912.08 435.905,912.08 438.121,912.08 440.337,912.08 442.553,912.08 444.769,912.08 446.985,912.08 449.201,912.08 451.417,980.905 453.633,980.905 455.849,980.905 458.065,980.905 460.281,980.905 462.497,980.905 464.713,980.905 466.929,980.905 469.145,980.905 471.361,980.905 473.577,980.905 475.793,980.905 478.009,980.905 480.225,980.905 482.441,980.905 484.657,980.905 486.873,980.905 489.089,980.905 491.305,980.905 493.521,980.905 495.737,980.905 497.953,980.905 500.169,980.905 502.385,980.905 504.601,980.905 506.818,980.905 509.034,912.08 511.25,912.08 513.466,912.08 515.682,912.08 517.898,912.08 520.114,912.08 522.33,912.08 524.546,912.08 526.762,912.08 528.978,912.08 531.194,912.08 533.41,912.08 535.626,912.08 537.842,912.08 540.058,912.08 542.274,912.08 544.49,912.08 546.706,912.08 548.922,912.08 551.138,912.08 553.354,912.08 555.57,912.08 557.786,912.08 560.002,912.08 562.218,912.08 564.434,912.08 566.65,912.08 568.866,912.08 571.082,912.08 573.298,912.08 575.514,912.08 577.73,912.08 579.946,912.08 582.162,912.08 584.378,912.08 586.594,912.08 588.81,912.08 591.026,912.08 593.242,912.08 595.458,912.08 597.674,912.08 599.89,912.08 602.106,912.08 604.322,912.08 606.538,912.08 608.754,912.08 610.97,912.08 613.186,843.256 615.402,843.256 617.618,843.256 619.834,843.256 622.05,843.256 624.266,843.256 626.482,912.08 628.698,912.08 630.914,912.08 633.13,912.08 635.346,912.08 637.562,912.08 639.778,912.08 641.994,912.08 644.21,912.08 646.426,912.08 648.642,912.08 650.858,912.08 653.074,912.08 655.29,912.08 657.506,912.08 659.722,912.08 661.938,912.08 664.154,912.08 666.37,912.08 668.586,912.08 670.802,912.08 673.018,912.08 675.234,912.08 677.45,912.08 679.666,912.08 681.882,912.08 684.099,912.08 686.315,912.08 688.531,912.08 690.747,912.08 692.963,912.08 695.179,912.08 697.395,912.08 699.611,912.08 701.827,912.08 704.043,912.08 706.259,912.08 708.475,912.08 710.691,980.905 712.907,980.905 715.123,980.905 717.339,980.905 719.555,980.905 721.771,980.905 723.987,980.905 726.203,980.905 728.419,980.905 730.635,980.905 732.851,980.905 735.067,980.905 737.283,1049.73 739.499,1049.73 741.715,1049.73 743.931,1049.73 746.147,1049.73 748.363,1049.73 750.579,1049.73 752.795,1049.73 755.011,1049.73 757.227,1118.55 759.443,1118.55 761.659,1118.55 763.875,1118.55 766.091,1118.55 768.307,1118.55 770.523,1118.55 772.739,1118.55 774.955,1118.55 777.171,1118.55 779.387,1118.55 781.603,1118.55 783.819,1118.55 786.035,1118.55 788.251,1118.55 790.467,1118.55 792.683,1118.55 794.899,1118.55 797.115,1118.55 799.331,1118.55 801.547,1118.55 803.763,1118.55 805.979,1118.55 808.195,1118.55 810.411,1118.55 812.627,1118.55 814.843,1118.55 817.059,1118.55 819.275,1118.55 821.491,1118.55 823.707,1118.55 825.923,1118.55 828.139,1118.55 830.355,1118.55 832.571,1118.55 834.787,1118.55 837.003,1118.55 839.219,1118.55 841.435,1118.55 843.651,1118.55 845.867,1118.55 848.083,1118.55 850.299,1118.55 852.515,1118.55 854.731,1118.55 856.947,1118.55 859.163,1118.55 861.38,1118.55 863.596,1118.55 865.812,1118.55 868.028,1118.55 870.244,1118.55 872.46,1118.55 874.676,1118.55 876.892,1118.55 879.108,1118.55 881.324,1118.55 883.54,1118.55 885.756,1118.55 887.972,1118.55 890.188,1118.55 892.404,1118.55 894.62,1118.55 896.836,1118.55 899.052,1118.55 901.268,1118.55 903.484,1118.55 905.7,1118.55 907.916,1118.55 910.132,1118.55 912.348,1118.55 914.564,1118.55 916.78,1118.55 918.996,1118.55 921.212,1118.55 923.428,1118.55 925.644,1118.55 927.86,1118.55 930.076,1118.55 932.292,1118.55 934.508,1118.55 936.724,1118.55 938.94,1118.55 941.156,1118.55 943.372,1118.55 945.588,1118.55 947.804,1118.55 950.02,1118.55 952.236,1118.55 954.452,1118.55 956.668,1118.55 958.884,1118.55 961.1,1118.55 963.316,1118.55 965.532,1118.55 967.748,1118.55 969.964,1118.55 972.18,1118.55 974.396,1118.55 976.612,1118.55 978.828,1118.55 981.044,1118.55 983.26,1118.55 985.476,1118.55 987.692,1118.55 989.908,1118.55 992.124,1118.55 994.34,1118.55 996.556,1118.55 998.772,1118.55 1000.99,1118.55 1003.2,1118.55 1005.42,1118.55 1007.64,1118.55 1009.85,1118.55 1012.07,1118.55 1014.28,1118.55 1016.5,1118.55 1018.72,1118.55 1020.93,1118.55 1023.15,1118.55 1025.36,1118.55 1027.58,1118.55 1029.8,1118.55 1032.01,1118.55 1034.23,1118.55 1036.44,1118.55 1038.66,1118.55 1040.88,1118.55 1043.09,1118.55 1045.31,1118.55 1047.52,1118.55 1049.74,1118.55 1051.96,1118.55 1054.17,1118.55 1056.39,1118.55 1058.6,1118.55 1060.82,1118.55 1063.04,1118.55 1065.25,1118.55 1067.47,1118.55 1069.68,1118.55 1071.9,1118.55 1074.12,1118.55 1076.33,1118.55 1078.55,1118.55 1080.76,1118.55 1082.98,1118.55 1085.2,1118.55 1087.41,1118.55 1089.63,1118.55 1091.84,1118.55 1094.06,1118.55 1096.28,1118.55 1098.49,1118.55 1100.71,1118.55 1102.92,1118.55 1105.14,1118.55 1107.36,1118.55 1109.57,1118.55 1111.79,1118.55 1114,1118.55 1116.22,1118.55 1118.44,1118.55 1120.65,1118.55 1122.87,1118.55 1125.08,1118.55 1127.3,1118.55 1129.52,1118.55 1131.73,1118.55 1133.95,1118.55 1136.17,1118.55 1138.38,1118.55 1140.6,1118.55 1142.81,1118.55 1145.03,1118.55 1147.25,1118.55 1149.46,1118.55 1151.68,1118.55 1153.89,1118.55 1156.11,1118.55 1158.33,1118.55 1160.54,1118.55 1162.76,1118.55 1164.97,1118.55 1167.19,1118.55 1169.41,1118.55 1171.62,1118.55 1173.84,1118.55 1176.05,1118.55 1178.27,1118.55 1180.49,1118.55 1182.7,1118.55 1184.92,1118.55 1187.13,1118.55 1189.35,1118.55 1191.57,1118.55 1193.78,1118.55 1196,1118.55 1198.21,1118.55 1200.43,1118.55 1202.65,1118.55 1204.86,1118.55 1207.08,1118.55 1209.29,1118.55 1211.51,1118.55 1213.73,1049.73 1215.94,1049.73 1218.16,1049.73 1220.37,1049.73 1222.59,1049.73 1224.81,1049.73 1227.02,1049.73 1229.24,1049.73 1231.45,1049.73 1233.67,1049.73 1235.89,1049.73 1238.1,1049.73 1240.32,1049.73 1242.53,1049.73 1244.75,1049.73 1246.97,1049.73 1249.18,1049.73 1251.4,1049.73 1253.61,1049.73 1255.83,1049.73 1258.05,1049.73 1260.26,1049.73 1262.48,1049.73 1264.69,1049.73 1266.91,1049.73 1269.13,1049.73 1271.34,1049.73 1273.56,1049.73 1275.77,1049.73 1277.99,1049.73 1280.21,1049.73 1282.42,1049.73 1284.64,1049.73 1286.85,1049.73 1289.07,1049.73 1291.29,1049.73 1293.5,1049.73 1295.72,1049.73 1297.93,1049.73 1300.15,1049.73 1302.37,1049.73 1304.58,1049.73 1306.8,1049.73 1309.01,1049.73 1311.23,1118.55 1313.45,1118.55 1315.66,1118.55 1317.88,1118.55 1320.09,1118.55 1322.31,1118.55 1324.53,1118.55 1326.74,1118.55 1328.96,1118.55 1331.17,1118.55 1333.39,1118.55 1335.61,1118.55 1337.82,1118.55 1340.04,1118.55 1342.25,1118.55 1344.47,1118.55 1346.69,1118.55 1348.9,1118.55 1351.12,1118.55 1353.33,1118.55 1355.55,1118.55 1357.77,1118.55 1359.98,1118.55 1362.2,1118.55 1364.41,1118.55 1366.63,1118.55 1368.85,1118.55 1371.06,1118.55 1373.28,1118.55 1375.49,1118.55 1377.71,1118.55 1379.93,1118.55 1382.14,1118.55 1384.36,1118.55 1386.57,1118.55 1388.79,1118.55 1391.01,1049.73 1393.22,1049.73 1395.44,1118.55 1397.65,1118.55 1399.87,1118.55 1402.09,1118.55 1404.3,1118.55 1406.52,1118.55 1408.73,1118.55 1410.95,1118.55 1413.17,1118.55 1415.38,1118.55 1417.6,1118.55 1419.81,1118.55 1422.03,1118.55 1424.25,1118.55 1426.46,1118.55 1428.68,1118.55 1430.89,1118.55 1433.11,1118.55 1435.33,1118.55 1437.54,1118.55 1439.76,1118.55 1441.97,1118.55 1444.19,1118.55 1446.41,1118.55 1448.62,1118.55 1450.84,1118.55 1453.05,1118.55 1455.27,1049.73 1457.49,1049.73 1459.7,1049.73 1461.92,1049.73 1464.13,1049.73 1466.35,1049.73 1468.57,1049.73 1470.78,1049.73 1473,1049.73 1475.21,1049.73 1477.43,1049.73 1479.65,1049.73 1481.86,1049.73 1484.08,1049.73 1486.3,1049.73 1488.51,1049.73 1490.73,1049.73 1492.94,1049.73 1495.16,1049.73 1497.38,1118.55 1499.59,1118.55 1501.81,1118.55 1504.02,1118.55 1506.24,1118.55 1508.46,1118.55 1510.67,1118.55 1512.89,1118.55 1515.1,1118.55 1517.32,1118.55 1519.54,1118.55 1521.75,1118.55 1523.97,1118.55 1526.18,1118.55 1528.4,1118.55 1530.62,1118.55 1532.83,1118.55 1535.05,1118.55 1537.26,1118.55 1539.48,1118.55 1541.7,1118.55 1543.91,1118.55 1546.13,1118.55 1548.34,1118.55 1550.56,1118.55 1552.78,1118.55 1554.99,1118.55 1557.21,1118.55 1559.42,1118.55 1561.64,1118.55 1563.86,1118.55 1566.07,1118.55 1568.29,1118.55 1570.5,1118.55 1572.72,1118.55 1574.94,1118.55 1577.15,1118.55 1579.37,1118.55 1581.58,1118.55 1583.8,1118.55 1586.02,1118.55 1588.23,1118.55 1590.45,1118.55 1592.66,1118.55 1594.88,1118.55 1597.1,1118.55 1599.31,1118.55 1601.53,1118.55 1603.74,1118.55 1605.96,1118.55 1608.18,1118.55 1610.39,1118.55 1612.61,1118.55 1614.82,1118.55 1617.04,1118.55 1619.26,1118.55 1621.47,1118.55 1623.69,1118.55 1625.9,1118.55 1628.12,1118.55 1630.34,1118.55 1632.55,1118.55 1634.77,1118.55 1636.98,1118.55 1639.2,1118.55 1641.42,1118.55 1643.63,1118.55 1645.85,1118.55 1648.06,1118.55 1650.28,1118.55 1652.5,1118.55 1654.71,1118.55 1656.93,1118.55 1659.14,1118.55 1661.36,1118.55 1663.58,1118.55 1665.79,1118.55 1668.01,1118.55 1670.22,1118.55 1672.44,1118.55 1674.66,1118.55 1676.87,1118.55 1679.09,1118.55 1681.3,1118.55 1683.52,1118.55 1685.74,1118.55 1687.95,1118.55 1690.17,1118.55 1692.38,1118.55 1694.6,1118.55 1696.82,1118.55 1699.03,1118.55 1701.25,1118.55 1703.46,1118.55 1705.68,1118.55 1707.9,1118.55 1710.11,1118.55 1712.33,1118.55 1714.54,1118.55 1716.76,1118.55 1718.98,1118.55 1721.19,1118.55 1723.41,1118.55 1725.62,1118.55 1727.84,1118.55 1730.06,1118.55 1732.27,1118.55 1734.49,1118.55 1736.7,1118.55 1738.92,1118.55 1741.14,1118.55 1743.35,1118.55 1745.57,1118.55 1747.78,1118.55 1750,1118.55 1752.22,1118.55 1754.43,1118.55 1756.65,1118.55 1758.86,1118.55 1761.08,1118.55 1763.3,1118.55 1765.51,1118.55 1767.73,1118.55 1769.94,1118.55 1772.16,1118.55 1774.38,1118.55 1776.59,1118.55 1778.81,1118.55 1781.02,1118.55 1783.24,1118.55 1785.46,1118.55 1787.67,1118.55 1789.89,1118.55 1792.1,1118.55 1794.32,1118.55 1796.54,1118.55 1798.75,1118.55 1800.97,1118.55 1803.18,1118.55 1805.4,1118.55 1807.62,1118.55 1809.83,1118.55 1812.05,1118.55 1814.26,1118.55 1816.48,1118.55 1818.7,1118.55 1820.91,1118.55 1823.13,1118.55 1825.34,1118.55 1827.56,1118.55 1829.78,1118.55 1831.99,1118.55 1834.21,1118.55 1836.42,1118.55 1838.64,1118.55 1840.86,1118.55 1843.07,1118.55 1845.29,1118.55 1847.51,1118.55 1849.72,1118.55 1851.94,1118.55 1854.15,1118.55 1856.37,1118.55 1858.59,1118.55 1860.8,1118.55 1863.02,1118.55 1865.23,1118.55 1867.45,1118.55 1869.67,1118.55 1871.88,1118.55 1874.1,1118.55 1876.31,1118.55 1878.53,1118.55 1880.75,1118.55 1882.96,1118.55 1885.18,1118.55 1887.39,1118.55 1889.61,1118.55 1891.83,1118.55 1894.04,1118.55 1896.26,1118.55 1898.47,1118.55 1900.69,1118.55 1902.91,1118.55 1905.12,1118.55 1907.34,1118.55 1909.55,1118.55 1911.77,1118.55 1913.99,1118.55 1916.2,1118.55 1918.42,1118.55 1920.63,1118.55 1922.85,1118.55 1925.07,1118.55 1927.28,1118.55 1929.5,1118.55 1931.71,1118.55 1933.93,1118.55 1936.15,1118.55 1938.36,1118.55 1940.58,1118.55 1942.79,1118.55 1945.01,1118.55 1947.23,1118.55 1949.44,1118.55 1951.66,1118.55 1953.87,1118.55 1956.09,1118.55 1958.31,1118.55 1960.52,1118.55 1962.74,1118.55 1964.95,1118.55 1967.17,1118.55 1969.39,1118.55 1971.6,1118.55 1973.82,1118.55 1976.03,1118.55 1978.25,1118.55 1980.47,1118.55 1982.68,1118.55 1984.9,1118.55 1987.11,1118.55 1989.33,1118.55 1991.55,1118.55 1993.76,1118.55 1995.98,1118.55 1998.19,1118.55 2000.41,1118.55 2002.63,1118.55 2004.84,1118.55 2007.06,1118.55 2009.27,1118.55 2011.49,1118.55 2013.71,1118.55 2015.92,1118.55 2018.14,1118.55 2020.35,1118.55 2022.57,1118.55 2024.79,1118.55 2027,1118.55 2029.22,1118.55 2031.43,1118.55 2033.65,1118.55 2035.87,1118.55 2038.08,1118.55 2040.3,1118.55 2042.51,1118.55 2044.73,1049.73 2046.95,1049.73 2049.16,980.905 2051.38,980.905 2053.59,980.905 2055.81,1049.73 2058.03,1049.73 2060.24,1049.73 2062.46,1049.73 2064.67,1049.73 2066.89,1049.73 2069.11,1049.73 2071.32,1049.73 2073.54,1049.73 2075.75,1049.73 2077.97,980.905 2080.19,980.905 2082.4,980.905 2084.62,980.905 2086.83,980.905 2089.05,980.905 2091.27,980.905 2093.48,980.905 2095.7,980.905 2097.91,980.905 2100.13,1049.73 2102.35,1049.73 2104.56,1049.73 2106.78,980.905 2108.99,980.905 2111.21,980.905 2113.43,980.905 2115.64,980.905 2117.86,980.905 2120.07,980.905 2122.29,980.905 2124.51,980.905 2126.72,912.08 2128.94,912.08 2131.15,912.08 2133.37,912.08 2135.59,912.08 2137.8,912.08 2140.02,912.08 2142.23,912.08 2144.45,912.08 2146.67,912.08 2148.88,912.08 2151.1,912.08 2153.31,912.08 2155.53,912.08 2157.75,912.08 2159.96,912.08 2162.18,912.08 2164.39,912.08 2166.61,912.08 2168.83,912.08 2171.04,912.08 2173.26,912.08 2175.47,912.08 2177.69,912.08 2179.91,912.08 2182.12,912.08 2184.34,912.08 2186.55,912.08 2188.77,912.08 2190.99,912.08 2193.2,912.08 2195.42,912.08 2197.64,912.08 2199.85,912.08 2202.07,912.08 2204.28,912.08 2206.5,912.08 2208.72,912.08 2210.93,912.08 2213.15,912.08 2215.36,912.08 2217.58,912.08 2219.8,912.08 2222.01,912.08 2224.23,843.256 2226.44,843.256 2228.66,843.256 2230.88,843.256 2233.09,912.08 2235.31,912.08 2237.52,912.08 2239.74,912.08 2241.96,912.08 2244.17,912.08 2246.39,912.08 2248.6,843.256 2250.82,912.08 2253.04,912.08 2255.25,912.08 2257.47,912.08 2259.68,912.08 2261.9,912.08 2264.12,912.08 2266.33,912.08 2268.55,912.08 2270.76,912.08 2272.98,912.08 2275.2,912.08 2277.41,912.08 2279.63,912.08 2281.84,912.08 2284.06,912.08 2286.28,912.08 2288.49,912.08 2290.71,912.08 2292.92,912.08 2295.14,843.256 2297.36,843.256 2299.57,843.256 2301.79,843.256 2304,843.256 2306.22,843.256 2308.44,774.431 2310.65,774.431 2312.87,774.431 2315.08,774.431 2317.3,774.431 2319.52,774.431 2321.73,774.431 2323.95,774.431 2326.16,774.431 2328.38,843.256 2330.6,843.256 2332.81,843.256 2335.03,843.256 2337.24,843.256 2339.46,843.256 2341.68,843.256 2343.89,843.256 2346.11,843.256 2348.32,843.256 2350.54,843.256 2352.76,843.256 "/>
<polyline clip-path="url(#clip792)" style="stroke:#e26f46; stroke-linecap:round; stroke-linejoin:round; stroke-width:8; stroke-opacity:1; fill:none" points="138.959,1118.55 141.175,1118.55 143.391,1118.55 145.607,1118.55 147.823,1118.55 150.04,1118.55 152.256,1118.55 154.472,1118.55 156.688,1118.55 158.904,1118.55 161.12,1118.55 163.336,1118.55 165.552,1118.55 167.768,1118.55 169.984,1118.55 172.2,1118.55 174.416,1118.55 176.632,1118.55 178.848,1118.55 181.064,1118.55 183.28,1118.55 185.496,1118.55 187.712,1118.55 189.928,1118.55 192.144,1118.55 194.36,1118.55 196.576,1118.55 198.792,1118.55 201.008,1118.55 203.224,1118.55 205.44,1118.55 207.656,1118.55 209.872,1118.55 212.088,1118.55 214.304,1118.55 216.52,1118.55 218.736,1118.55 220.952,1118.55 223.168,1118.55 225.384,1118.55 227.6,1118.55 229.816,1118.55 232.032,1118.55 234.248,1118.55 236.464,1118.55 238.68,1118.55 240.896,1118.55 243.112,1118.55 245.328,1118.55 247.544,1118.55 249.76,1118.55 251.976,1118.55 254.192,1118.55 256.408,1118.55 258.624,1118.55 260.84,1118.55 263.056,1118.55 265.272,1118.55 267.488,1118.55 269.704,1118.55 271.92,1118.55 274.136,1118.55 276.352,1118.55 278.568,1118.55 280.784,1118.55 283,1118.55 285.216,1118.55 287.432,1118.55 289.648,1118.55 291.864,1118.55 294.08,1118.55 296.296,1118.55 298.512,1118.55 300.728,1118.55 302.944,1118.55 305.16,1118.55 307.376,1118.55 309.592,1118.55 311.808,1118.55 314.024,1118.55 316.24,1118.55 318.456,1118.55 320.672,1118.55 322.888,1118.55 325.104,1118.55 327.321,1118.55 329.537,1118.55 331.753,1118.55 333.969,1118.55 336.185,1118.55 338.401,1118.55 340.617,1118.55 342.833,1118.55 345.049,1049.73 347.265,1049.73 349.481,1049.73 351.697,1049.73 353.913,1049.73 356.129,1049.73 358.345,1049.73 360.561,1049.73 362.777,1049.73 364.993,1049.73 367.209,1049.73 369.425,1049.73 371.641,1049.73 373.857,1049.73 376.073,1049.73 378.289,1049.73 380.505,1049.73 382.721,1049.73 384.937,1049.73 387.153,1049.73 389.369,1049.73 391.585,1049.73 393.801,1049.73 396.017,1049.73 398.233,1049.73 400.449,1049.73 402.665,1049.73 404.881,1049.73 407.097,1049.73 409.313,1049.73 411.529,1049.73 413.745,1049.73 415.961,1049.73 418.177,1049.73 420.393,1049.73 422.609,1049.73 424.825,1049.73 427.041,1049.73 429.257,1049.73 431.473,980.905 433.689,980.905 435.905,980.905 438.121,980.905 440.337,980.905 442.553,980.905 444.769,980.905 446.985,980.905 449.201,980.905 451.417,912.08 453.633,912.08 455.849,912.08 458.065,912.08 460.281,912.08 462.497,912.08 464.713,912.08 466.929,912.08 469.145,912.08 471.361,912.08 473.577,912.08 475.793,912.08 478.009,912.08 480.225,912.08 482.441,912.08 484.657,912.08 486.873,912.08 489.089,912.08 491.305,912.08 493.521,912.08 495.737,912.08 497.953,912.08 500.169,912.08 502.385,912.08 504.601,912.08 506.818,912.08 509.034,912.08 511.25,912.08 513.466,912.08 515.682,912.08 517.898,912.08 520.114,912.08 522.33,912.08 524.546,912.08 526.762,912.08 528.978,912.08 531.194,912.08 533.41,912.08 535.626,912.08 537.842,912.08 540.058,912.08 542.274,912.08 544.49,912.08 546.706,912.08 548.922,912.08 551.138,912.08 553.354,912.08 555.57,912.08 557.786,912.08 560.002,912.08 562.218,912.08 564.434,912.08 566.65,912.08 568.866,912.08 571.082,912.08 573.298,912.08 575.514,912.08 577.73,912.08 579.946,912.08 582.162,912.08 584.378,912.08 586.594,912.08 588.81,912.08 591.026,912.08 593.242,912.08 595.458,912.08 597.674,912.08 599.89,912.08 602.106,912.08 604.322,912.08 606.538,912.08 608.754,912.08 610.97,912.08 613.186,912.08 615.402,912.08 617.618,912.08 619.834,912.08 622.05,912.08 624.266,912.08 626.482,843.256 628.698,843.256 630.914,843.256 633.13,843.256 635.346,843.256 637.562,843.256 639.778,843.256 641.994,843.256 644.21,843.256 646.426,843.256 648.642,843.256 650.858,843.256 653.074,843.256 655.29,843.256 657.506,843.256 659.722,843.256 661.938,843.256 664.154,843.256 666.37,843.256 668.586,843.256 670.802,843.256 673.018,843.256 675.234,843.256 677.45,843.256 679.666,843.256 681.882,843.256 684.099,843.256 686.315,843.256 688.531,843.256 690.747,843.256 692.963,843.256 695.179,843.256 697.395,843.256 699.611,843.256 701.827,843.256 704.043,843.256 706.259,843.256 708.475,843.256 710.691,774.431 712.907,774.431 715.123,774.431 717.339,774.431 719.555,774.431 721.771,774.431 723.987,774.431 726.203,774.431 728.419,774.431 730.635,774.431 732.851,774.431 735.067,774.431 737.283,705.607 739.499,705.607 741.715,705.607 743.931,705.607 746.147,705.607 748.363,705.607 750.579,705.607 752.795,705.607 755.011,705.607 757.227,636.782 759.443,636.782 761.659,636.782 763.875,636.782 766.091,636.782 768.307,636.782 770.523,636.782 772.739,636.782 774.955,636.782 777.171,636.782 779.387,636.782 781.603,636.782 783.819,636.782 786.035,636.782 788.251,636.782 790.467,636.782 792.683,636.782 794.899,636.782 797.115,636.782 799.331,636.782 801.547,636.782 803.763,636.782 805.979,636.782 808.195,636.782 810.411,636.782 812.627,636.782 814.843,636.782 817.059,636.782 819.275,636.782 821.491,636.782 823.707,636.782 825.923,636.782 828.139,636.782 830.355,636.782 832.571,636.782 834.787,636.782 837.003,636.782 839.219,636.782 841.435,636.782 843.651,636.782 845.867,636.782 848.083,636.782 850.299,636.782 852.515,636.782 854.731,636.782 856.947,636.782 859.163,636.782 861.38,636.782 863.596,636.782 865.812,636.782 868.028,636.782 870.244,636.782 872.46,636.782 874.676,636.782 876.892,636.782 879.108,636.782 881.324,636.782 883.54,636.782 885.756,636.782 887.972,636.782 890.188,636.782 892.404,636.782 894.62,636.782 896.836,636.782 899.052,636.782 901.268,636.782 903.484,636.782 905.7,636.782 907.916,636.782 910.132,636.782 912.348,636.782 914.564,636.782 916.78,636.782 918.996,636.782 921.212,636.782 923.428,636.782 925.644,636.782 927.86,636.782 930.076,636.782 932.292,636.782 934.508,636.782 936.724,636.782 938.94,636.782 941.156,636.782 943.372,636.782 945.588,636.782 947.804,636.782 950.02,636.782 952.236,636.782 954.452,636.782 956.668,636.782 958.884,636.782 961.1,636.782 963.316,636.782 965.532,636.782 967.748,636.782 969.964,636.782 972.18,636.782 974.396,636.782 976.612,636.782 978.828,636.782 981.044,636.782 983.26,636.782 985.476,636.782 987.692,636.782 989.908,636.782 992.124,636.782 994.34,636.782 996.556,636.782 998.772,636.782 1000.99,636.782 1003.2,636.782 1005.42,636.782 1007.64,636.782 1009.85,636.782 1012.07,636.782 1014.28,636.782 1016.5,636.782 1018.72,636.782 1020.93,636.782 1023.15,636.782 1025.36,636.782 1027.58,636.782 1029.8,636.782 1032.01,636.782 1034.23,636.782 1036.44,636.782 1038.66,636.782 1040.88,636.782 1043.09,636.782 1045.31,636.782 1047.52,636.782 1049.74,636.782 1051.96,636.782 1054.17,636.782 1056.39,636.782 1058.6,636.782 1060.82,636.782 1063.04,636.782 1065.25,636.782 1067.47,636.782 1069.68,636.782 1071.9,636.782 1074.12,636.782 1076.33,636.782 1078.55,636.782 1080.76,636.782 1082.98,636.782 1085.2,636.782 1087.41,636.782 1089.63,636.782 1091.84,636.782 1094.06,636.782 1096.28,636.782 1098.49,636.782 1100.71,636.782 1102.92,636.782 1105.14,636.782 1107.36,636.782 1109.57,636.782 1111.79,636.782 1114,636.782 1116.22,636.782 1118.44,636.782 1120.65,636.782 1122.87,636.782 1125.08,636.782 1127.3,636.782 1129.52,636.782 1131.73,636.782 1133.95,636.782 1136.17,636.782 1138.38,636.782 1140.6,636.782 1142.81,636.782 1145.03,636.782 1147.25,636.782 1149.46,636.782 1151.68,636.782 1153.89,636.782 1156.11,636.782 1158.33,636.782 1160.54,636.782 1162.76,636.782 1164.97,636.782 1167.19,636.782 1169.41,636.782 1171.62,636.782 1173.84,636.782 1176.05,636.782 1178.27,636.782 1180.49,636.782 1182.7,636.782 1184.92,636.782 1187.13,636.782 1189.35,636.782 1191.57,636.782 1193.78,636.782 1196,636.782 1198.21,636.782 1200.43,636.782 1202.65,636.782 1204.86,636.782 1207.08,636.782 1209.29,636.782 1211.51,636.782 1213.73,636.782 1215.94,636.782 1218.16,636.782 1220.37,636.782 1222.59,636.782 1224.81,636.782 1227.02,636.782 1229.24,636.782 1231.45,636.782 1233.67,636.782 1235.89,636.782 1238.1,636.782 1240.32,636.782 1242.53,636.782 1244.75,636.782 1246.97,636.782 1249.18,636.782 1251.4,636.782 1253.61,636.782 1255.83,636.782 1258.05,636.782 1260.26,636.782 1262.48,636.782 1264.69,636.782 1266.91,636.782 1269.13,636.782 1271.34,636.782 1273.56,636.782 1275.77,636.782 1277.99,636.782 1280.21,636.782 1282.42,636.782 1284.64,636.782 1286.85,636.782 1289.07,636.782 1291.29,636.782 1293.5,636.782 1295.72,636.782 1297.93,636.782 1300.15,636.782 1302.37,636.782 1304.58,636.782 1306.8,636.782 1309.01,636.782 1311.23,567.958 1313.45,567.958 1315.66,567.958 1317.88,567.958 1320.09,567.958 1322.31,567.958 1324.53,567.958 1326.74,567.958 1328.96,567.958 1331.17,567.958 1333.39,567.958 1335.61,567.958 1337.82,567.958 1340.04,567.958 1342.25,567.958 1344.47,567.958 1346.69,567.958 1348.9,567.958 1351.12,567.958 1353.33,567.958 1355.55,567.958 1357.77,567.958 1359.98,567.958 1362.2,567.958 1364.41,567.958 1366.63,567.958 1368.85,567.958 1371.06,567.958 1373.28,567.958 1375.49,567.958 1377.71,567.958 1379.93,567.958 1382.14,567.958 1384.36,567.958 1386.57,567.958 1388.79,567.958 1391.01,567.958 1393.22,567.958 1395.44,499.133 1397.65,499.133 1399.87,499.133 1402.09,499.133 1404.3,499.133 1406.52,499.133 1408.73,499.133 1410.95,499.133 1413.17,499.133 1415.38,499.133 1417.6,499.133 1419.81,499.133 1422.03,499.133 1424.25,499.133 1426.46,499.133 1428.68,499.133 1430.89,499.133 1433.11,499.133 1435.33,499.133 1437.54,499.133 1439.76,499.133 1441.97,499.133 1444.19,499.133 1446.41,499.133 1448.62,499.133 1450.84,499.133 1453.05,499.133 1455.27,499.133 1457.49,499.133 1459.7,499.133 1461.92,499.133 1464.13,499.133 1466.35,499.133 1468.57,499.133 1470.78,499.133 1473,499.133 1475.21,499.133 1477.43,499.133 1479.65,499.133 1481.86,499.133 1484.08,499.133 1486.3,499.133 1488.51,499.133 1490.73,499.133 1492.94,499.133 1495.16,499.133 1497.38,430.309 1499.59,430.309 1501.81,430.309 1504.02,430.309 1506.24,430.309 1508.46,430.309 1510.67,430.309 1512.89,430.309 1515.1,430.309 1517.32,430.309 1519.54,430.309 1521.75,430.309 1523.97,430.309 1526.18,430.309 1528.4,430.309 1530.62,430.309 1532.83,430.309 1535.05,430.309 1537.26,430.309 1539.48,430.309 1541.7,430.309 1543.91,430.309 1546.13,430.309 1548.34,430.309 1550.56,430.309 1552.78,430.309 1554.99,430.309 1557.21,430.309 1559.42,430.309 1561.64,430.309 1563.86,430.309 1566.07,430.309 1568.29,430.309 1570.5,430.309 1572.72,430.309 1574.94,430.309 1577.15,430.309 1579.37,430.309 1581.58,430.309 1583.8,430.309 1586.02,430.309 1588.23,430.309 1590.45,430.309 1592.66,430.309 1594.88,430.309 1597.1,430.309 1599.31,430.309 1601.53,430.309 1603.74,430.309 1605.96,430.309 1608.18,430.309 1610.39,430.309 1612.61,430.309 1614.82,430.309 1617.04,430.309 1619.26,430.309 1621.47,430.309 1623.69,430.309 1625.9,430.309 1628.12,430.309 1630.34,430.309 1632.55,430.309 1634.77,430.309 1636.98,430.309 1639.2,430.309 1641.42,430.309 1643.63,430.309 1645.85,430.309 1648.06,430.309 1650.28,430.309 1652.5,430.309 1654.71,430.309 1656.93,430.309 1659.14,430.309 1661.36,430.309 1663.58,430.309 1665.79,430.309 1668.01,430.309 1670.22,430.309 1672.44,430.309 1674.66,430.309 1676.87,430.309 1679.09,430.309 1681.3,430.309 1683.52,430.309 1685.74,430.309 1687.95,430.309 1690.17,430.309 1692.38,430.309 1694.6,430.309 1696.82,430.309 1699.03,430.309 1701.25,430.309 1703.46,430.309 1705.68,430.309 1707.9,430.309 1710.11,430.309 1712.33,430.309 1714.54,430.309 1716.76,430.309 1718.98,430.309 1721.19,430.309 1723.41,430.309 1725.62,430.309 1727.84,430.309 1730.06,430.309 1732.27,430.309 1734.49,430.309 1736.7,430.309 1738.92,430.309 1741.14,430.309 1743.35,430.309 1745.57,430.309 1747.78,430.309 1750,430.309 1752.22,430.309 1754.43,430.309 1756.65,430.309 1758.86,430.309 1761.08,430.309 1763.3,430.309 1765.51,430.309 1767.73,430.309 1769.94,430.309 1772.16,430.309 1774.38,430.309 1776.59,430.309 1778.81,430.309 1781.02,430.309 1783.24,430.309 1785.46,430.309 1787.67,430.309 1789.89,430.309 1792.1,430.309 1794.32,430.309 1796.54,430.309 1798.75,430.309 1800.97,430.309 1803.18,430.309 1805.4,430.309 1807.62,430.309 1809.83,430.309 1812.05,430.309 1814.26,430.309 1816.48,430.309 1818.7,430.309 1820.91,430.309 1823.13,430.309 1825.34,430.309 1827.56,430.309 1829.78,430.309 1831.99,430.309 1834.21,430.309 1836.42,430.309 1838.64,430.309 1840.86,430.309 1843.07,430.309 1845.29,430.309 1847.51,430.309 1849.72,430.309 1851.94,430.309 1854.15,430.309 1856.37,430.309 1858.59,430.309 1860.8,430.309 1863.02,430.309 1865.23,430.309 1867.45,430.309 1869.67,430.309 1871.88,430.309 1874.1,430.309 1876.31,430.309 1878.53,430.309 1880.75,430.309 1882.96,430.309 1885.18,430.309 1887.39,430.309 1889.61,430.309 1891.83,430.309 1894.04,430.309 1896.26,430.309 1898.47,430.309 1900.69,430.309 1902.91,430.309 1905.12,430.309 1907.34,430.309 1909.55,430.309 1911.77,430.309 1913.99,430.309 1916.2,430.309 1918.42,430.309 1920.63,430.309 1922.85,430.309 1925.07,430.309 1927.28,430.309 1929.5,430.309 1931.71,430.309 1933.93,430.309 1936.15,430.309 1938.36,430.309 1940.58,430.309 1942.79,430.309 1945.01,430.309 1947.23,430.309 1949.44,430.309 1951.66,430.309 1953.87,430.309 1956.09,430.309 1958.31,430.309 1960.52,430.309 1962.74,430.309 1964.95,430.309 1967.17,430.309 1969.39,430.309 1971.6,430.309 1973.82,430.309 1976.03,430.309 1978.25,430.309 1980.47,430.309 1982.68,430.309 1984.9,430.309 1987.11,430.309 1989.33,430.309 1991.55,430.309 1993.76,430.309 1995.98,430.309 1998.19,430.309 2000.41,430.309 2002.63,430.309 2004.84,430.309 2007.06,430.309 2009.27,430.309 2011.49,430.309 2013.71,430.309 2015.92,430.309 2018.14,430.309 2020.35,430.309 2022.57,430.309 2024.79,430.309 2027,430.309 2029.22,430.309 2031.43,430.309 2033.65,430.309 2035.87,430.309 2038.08,430.309 2040.3,430.309 2042.51,430.309 2044.73,430.309 2046.95,430.309 2049.16,430.309 2051.38,430.309 2053.59,430.309 2055.81,361.484 2058.03,361.484 2060.24,361.484 2062.46,361.484 2064.67,361.484 2066.89,361.484 2069.11,361.484 2071.32,361.484 2073.54,361.484 2075.75,361.484 2077.97,361.484 2080.19,361.484 2082.4,361.484 2084.62,361.484 2086.83,361.484 2089.05,361.484 2091.27,361.484 2093.48,361.484 2095.7,361.484 2097.91,361.484 2100.13,292.659 2102.35,292.659 2104.56,292.659 2106.78,292.659 2108.99,292.659 2111.21,292.659 2113.43,292.659 2115.64,292.659 2117.86,292.659 2120.07,292.659 2122.29,292.659 2124.51,292.659 2126.72,292.659 2128.94,292.659 2131.15,292.659 2133.37,292.659 2135.59,292.659 2137.8,292.659 2140.02,292.659 2142.23,292.659 2144.45,292.659 2146.67,292.659 2148.88,292.659 2151.1,292.659 2153.31,292.659 2155.53,292.659 2157.75,292.659 2159.96,292.659 2162.18,292.659 2164.39,292.659 2166.61,292.659 2168.83,292.659 2171.04,292.659 2173.26,292.659 2175.47,292.659 2177.69,292.659 2179.91,292.659 2182.12,292.659 2184.34,292.659 2186.55,292.659 2188.77,292.659 2190.99,292.659 2193.2,292.659 2195.42,292.659 2197.64,292.659 2199.85,292.659 2202.07,292.659 2204.28,292.659 2206.5,292.659 2208.72,292.659 2210.93,292.659 2213.15,292.659 2215.36,292.659 2217.58,292.659 2219.8,292.659 2222.01,292.659 2224.23,292.659 2226.44,292.659 2228.66,292.659 2230.88,292.659 2233.09,223.835 2235.31,223.835 2237.52,223.835 2239.74,223.835 2241.96,223.835 2244.17,223.835 2246.39,223.835 2248.6,223.835 2250.82,155.01 2253.04,155.01 2255.25,155.01 2257.47,155.01 2259.68,155.01 2261.9,155.01 2264.12,155.01 2266.33,155.01 2268.55,155.01 2270.76,155.01 2272.98,155.01 2275.2,155.01 2277.41,155.01 2279.63,155.01 2281.84,155.01 2284.06,155.01 2286.28,155.01 2288.49,155.01 2290.71,155.01 2292.92,155.01 2295.14,155.01 2297.36,155.01 2299.57,155.01 2301.79,155.01 2304,155.01 2306.22,155.01 2308.44,155.01 2310.65,155.01 2312.87,155.01 2315.08,155.01 2317.3,155.01 2319.52,155.01 2321.73,155.01 2323.95,155.01 2326.16,155.01 2328.38,86.1857 2330.6,86.1857 2332.81,86.1857 2335.03,86.1857 2337.24,86.1857 2339.46,86.1857 2341.68,86.1857 2343.89,86.1857 2346.11,86.1857 2348.32,86.1857 2350.54,86.1857 2352.76,86.1857 "/>
<polyline clip-path="url(#clip792)" style="stroke:#3da44d; stroke-linecap:round; stroke-linejoin:round; stroke-width:8; stroke-opacity:1; fill:none" points="138.959,1227.57 141.175,1226.18 143.391,1224.77 145.607,1223.34 147.823,1221.89 150.04,1220.41 152.256,1218.92 154.472,1217.4 156.688,1215.86 158.904,1214.3 161.12,1212.71 163.336,1211.11 165.552,1209.48 167.768,1207.84 169.984,1206.17 172.2,1204.48 174.416,1202.77 176.632,1201.04 178.848,1199.29 181.064,1197.51 183.28,1195.72 185.496,1193.9 187.712,1192.07 189.928,1190.21 192.144,1188.34 194.36,1186.44 196.576,1184.53 198.792,1182.59 201.008,1180.64 203.224,1178.66 205.44,1176.67 207.656,1174.65 209.872,1172.62 212.088,1170.57 214.304,1168.5 216.52,1166.41 218.736,1164.3 220.952,1162.18 223.168,1160.03 225.384,1157.87 227.6,1155.69 229.816,1153.49 232.032,1151.28 234.248,1149.05 236.464,1146.8 238.68,1144.53 240.896,1142.25 243.112,1139.95 245.328,1137.64 247.544,1135.31 249.76,1132.97 251.976,1130.6 254.192,1128.23 256.408,1125.84 258.624,1123.43 260.84,1121.01 263.056,1118.58 265.272,1139.82 267.488,1137.36 269.704,1134.89 271.92,1132.4 274.136,1129.9 276.352,1127.39 278.568,1124.87 280.784,1122.33 283,1119.78 285.216,1128.87 287.432,1126.3 289.648,1123.72 291.864,1121.13 294.08,1124.36 296.296,1121.75 298.512,1119.13 300.728,1197.59 302.944,1194.95 305.16,1192.31 307.376,1189.65 309.592,1186.99 311.808,1184.32 314.024,1181.64 316.24,1178.95 318.456,1176.26 320.672,1173.56 322.888,1170.86 325.104,1168.15 327.321,1165.43 329.537,1162.71 331.753,1159.99 333.969,1157.26 336.185,1154.52 338.401,1151.79 340.617,1149.05 342.833,1146.3 345.049,1143.55 347.265,1140.8 349.481,1138.05 351.697,1135.3 353.913,1132.55 356.129,1129.79 358.345,1127.04 360.561,1124.28 362.777,1121.53 364.993,1118.77 367.209,1278.11 369.425,1275.35 371.641,1272.6 373.857,1269.85 376.073,1267.1 378.289,1264.36 380.505,1261.61 382.721,1258.87 384.937,1256.14 387.153,1253.4 389.369,1250.67 391.585,1247.95 393.801,1245.23 396.017,1242.52 398.233,1239.81 400.449,1237.1 402.665,1234.41 404.881,1231.72 407.097,1229.03 409.313,1226.35 411.529,1223.69 413.745,1221.02 415.961,1218.37 418.177,1215.72 420.393,1213.09 422.609,1210.46 424.825,1207.84 427.041,1205.23 429.257,1202.63 431.473,1200.04 433.689,1197.46 435.905,1194.9 438.121,1192.34 440.337,1189.79 442.553,1187.26 444.769,1184.74 446.985,1182.23 449.201,1179.73 451.417,1177.25 453.633,1174.77 455.849,1172.32 458.065,1169.87 460.281,1167.44 462.497,1165.03 464.713,1162.62 466.929,1160.24 469.145,1157.86 471.361,1155.51 473.577,1153.16 475.793,1150.84 478.009,1148.53 480.225,1146.23 482.441,1143.95 484.657,1141.69 486.873,1139.45 489.089,1137.22 491.305,1135.01 493.521,1132.81 495.737,1130.64 497.953,1128.48 500.169,1126.34 502.385,1124.22 504.601,1122.11 506.818,1120.03 509.034,1192.49 511.25,1190.45 513.466,1188.42 515.682,1186.41 517.898,1184.42 520.114,1182.45 522.33,1180.5 524.546,1178.56 526.762,1176.65 528.978,1174.76 531.194,1172.89 533.41,1171.04 535.626,1169.21 537.842,1167.4 540.058,1165.61 542.274,1163.84 544.49,1162.09 546.706,1160.36 548.922,1158.66 551.138,1156.97 553.354,1155.31 555.57,1153.67 557.786,1152.04 560.002,1150.44 562.218,1148.87 564.434,1147.31 566.65,1145.77 568.866,1144.26 571.082,1142.77 573.298,1141.29 575.514,1139.85 577.73,1138.42 579.946,1137.01 582.162,1135.63 584.378,1134.26 586.594,1132.92 588.81,1131.6 591.026,1130.31 593.242,1129.03 595.458,1127.78 597.674,1126.54 599.89,1125.33 602.106,1124.14 604.322,1122.97 606.538,1121.83 608.754,1120.7 610.97,1119.6 613.186,1384.24 615.402,1383.18 617.618,1382.13 619.834,1381.11 622.05,1380.12 624.266,1379.14 626.482,1378.18 628.698,1377.24 630.914,1376.33 633.13,1375.43 635.346,1374.55 637.562,1373.7 639.778,1372.86 641.994,1372.04 644.21,1371.25 646.426,1370.47 648.642,1369.71 650.858,1368.98 653.074,1368.26 655.29,1367.56 657.506,1366.87 659.722,1366.21 661.938,1365.57 664.154,1364.94 666.37,1364.33 668.586,1363.74 670.802,1363.17 673.018,1362.61 675.234,1362.08 677.45,1361.56 679.666,1361.05 681.882,1360.56 684.099,1360.09 686.315,1359.64 688.531,1359.2 690.747,1358.78 692.963,1358.37 695.179,1357.98 697.395,1357.6 699.611,1357.24 701.827,1356.89 704.043,1356.56 706.259,1356.24 708.475,1355.93 710.691,1355.64 712.907,1355.36 715.123,1355.09 717.339,1354.84 719.555,1354.6 721.771,1354.37 723.987,1354.15 726.203,1353.95 728.419,1353.75 730.635,1353.57 732.851,1353.4 735.067,1353.23 737.283,1353.08 739.499,1352.94 741.715,1352.81 743.931,1352.68 746.147,1352.57 748.363,1352.46 750.579,1352.36 752.795,1352.27 755.011,1352.19 757.227,1352.11 759.443,1352.04 761.659,1351.98 763.875,1351.93 766.091,1351.88 768.307,1351.83 770.523,1351.79 772.739,1351.76 774.955,1351.73 777.171,1351.7 779.387,1351.68 781.603,1351.67 783.819,1351.65 786.035,1351.64 788.251,1351.63 790.467,1351.62 792.683,1351.62 794.899,1351.62 797.115,1351.62 799.331,1351.61 801.547,1351.61 803.763,1351.61 805.979,1351.61 808.195,1351.61 810.411,1351.61 812.627,1351.61 814.843,1351.6 817.059,1351.6 819.275,1351.59 821.491,1351.58 823.707,1351.57 825.923,1351.55 828.139,1351.53 830.355,1351.51 832.571,1351.48 834.787,1351.45 837.003,1351.41 839.219,1351.37 841.435,1351.32 843.651,1351.26 845.867,1351.2 848.083,1351.14 850.299,1351.07 852.515,1350.99 854.731,1350.9 856.947,1350.8 859.163,1350.7 861.38,1350.59 863.596,1350.47 865.812,1350.34 868.028,1350.2 870.244,1350.05 872.46,1349.89 874.676,1349.72 876.892,1349.55 879.108,1349.36 881.324,1349.16 883.54,1348.94 885.756,1348.72 887.972,1348.48 890.188,1348.24 892.404,1347.98 894.62,1347.7 896.836,1347.41 899.052,1347.11 901.268,1346.8 903.484,1346.47 905.7,1346.13 907.916,1345.77 910.132,1345.4 912.348,1345.02 914.564,1344.62 916.78,1344.2 918.996,1343.77 921.212,1343.32 923.428,1342.85 925.644,1342.37 927.86,1341.87 930.076,1341.36 932.292,1340.83 934.508,1340.28 936.724,1339.71 938.94,1339.13 941.156,1338.53 943.372,1337.91 945.588,1337.27 947.804,1336.62 950.02,1335.94 952.236,1335.25 954.452,1334.54 956.668,1333.81 958.884,1333.06 961.1,1332.29 963.316,1331.5 965.532,1330.69 967.748,1329.86 969.964,1329.01 972.18,1328.14 974.396,1327.26 976.612,1326.35 978.828,1325.42 981.044,1324.47 983.26,1323.5 985.476,1322.51 987.692,1321.5 989.908,1320.46 992.124,1319.41 994.34,1318.34 996.556,1317.24 998.772,1316.12 1000.99,1314.98 1003.2,1313.82 1005.42,1312.64 1007.64,1311.44 1009.85,1310.22 1012.07,1308.97 1014.28,1307.7 1016.5,1306.41 1018.72,1305.1 1020.93,1303.77 1023.15,1302.41 1025.36,1301.04 1027.58,1299.64 1029.8,1298.22 1032.01,1296.78 1034.23,1295.32 1036.44,1293.83 1038.66,1292.33 1040.88,1290.8 1043.09,1289.25 1045.31,1287.68 1047.52,1286.09 1049.74,1284.47 1051.96,1282.84 1054.17,1281.18 1056.39,1279.51 1058.6,1277.81 1060.82,1276.09 1063.04,1274.35 1065.25,1272.59 1067.47,1270.81 1069.68,1269.01 1071.9,1267.18 1074.12,1265.34 1076.33,1263.48 1078.55,1261.6 1080.76,1259.69 1082.98,1257.77 1085.2,1255.83 1087.41,1253.87 1089.63,1251.88 1091.84,1249.88 1094.06,1247.86 1096.28,1245.82 1098.49,1243.76 1100.71,1241.69 1102.92,1239.59 1105.14,1237.48 1107.36,1235.35 1109.57,1233.2 1111.79,1231.03 1114,1228.84 1116.22,1226.64 1118.44,1224.42 1120.65,1222.18 1122.87,1219.93 1125.08,1217.65 1127.3,1215.37 1129.52,1213.06 1131.73,1210.74 1133.95,1208.41 1136.17,1206.06 1138.38,1203.69 1140.6,1201.31 1142.81,1198.91 1145.03,1196.5 1147.25,1194.08 1149.46,1191.64 1151.68,1189.18 1153.89,1186.72 1156.11,1184.24 1158.33,1181.74 1160.54,1179.24 1162.76,1176.72 1164.97,1174.19 1167.19,1171.65 1169.41,1169.1 1171.62,1166.53 1173.84,1163.96 1176.05,1161.37 1178.27,1158.77 1180.49,1156.17 1182.7,1153.55 1184.92,1150.93 1187.13,1148.29 1189.35,1145.65 1191.57,1143 1193.78,1140.34 1196,1137.68 1198.21,1135 1200.43,1132.32 1202.65,1129.63 1204.86,1126.94 1207.08,1124.24 1209.29,1121.53 1211.51,1118.82 1213.73,1323.72 1215.94,1320.99 1218.16,1318.27 1220.37,1315.53 1222.59,1312.8 1224.81,1310.06 1227.02,1307.32 1229.24,1304.57 1231.45,1301.83 1233.67,1299.08 1235.89,1296.32 1238.1,1293.57 1240.32,1290.82 1242.53,1288.06 1244.75,1285.31 1246.97,1282.55 1249.18,1279.8 1251.4,1277.04 1253.61,1274.29 1255.83,1271.53 1258.05,1268.78 1260.26,1266.03 1262.48,1263.29 1264.69,1260.54 1266.91,1257.8 1269.13,1255.06 1271.34,1252.33 1273.56,1249.59 1275.77,1246.87 1277.99,1244.15 1280.21,1241.43 1282.42,1238.72 1284.64,1236.01 1286.85,1233.31 1289.07,1230.61 1291.29,1227.92 1293.5,1225.24 1295.72,1222.57 1297.93,1219.9 1300.15,1217.24 1302.37,1214.59 1304.58,1211.95 1306.8,1209.32 1309.01,1206.69 1311.23,1204.08 1313.45,1201.47 1315.66,1198.87 1317.88,1196.29 1320.09,1193.72 1322.31,1191.15 1324.53,1188.6 1326.74,1186.06 1328.96,1183.53 1331.17,1181.01 1333.39,1178.51 1335.61,1176.02 1337.82,1173.54 1340.04,1171.07 1342.25,1168.62 1344.47,1166.18 1346.69,1163.75 1348.9,1161.34 1351.12,1158.95 1353.33,1156.57 1355.55,1154.2 1357.77,1151.85 1359.98,1149.51 1362.2,1147.19 1364.41,1144.89 1366.63,1142.6 1368.85,1140.33 1371.06,1138.07 1373.28,1135.83 1375.49,1133.61 1377.71,1131.41 1379.93,1129.22 1382.14,1127.05 1384.36,1124.9 1386.57,1122.77 1388.79,1120.65 1391.01,1170.17 1393.22,1168.09 1395.44,1166.03 1397.65,1163.99 1399.87,1161.97 1402.09,1159.97 1404.3,1157.98 1406.52,1156.02 1408.73,1154.08 1410.95,1152.15 1413.17,1150.25 1415.38,1148.37 1417.6,1146.5 1419.81,1144.66 1422.03,1142.84 1424.25,1141.03 1426.46,1139.25 1428.68,1137.49 1430.89,1135.75 1433.11,1134.03 1435.33,1132.34 1437.54,1130.66 1439.76,1129 1441.97,1127.37 1444.19,1125.76 1446.41,1124.17 1448.62,1122.6 1450.84,1121.05 1453.05,1119.52 1455.27,1345.93 1457.49,1344.45 1459.7,1342.99 1461.92,1341.55 1464.13,1340.13 1466.35,1338.73 1468.57,1337.36 1470.78,1336 1473,1334.67 1475.21,1333.36 1477.43,1332.07 1479.65,1330.8 1481.86,1329.56 1484.08,1328.33 1486.3,1327.13 1488.51,1325.95 1490.73,1324.79 1492.94,1323.65 1495.16,1322.53 1497.38,1321.45 1499.59,1320.37 1501.81,1319.32 1504.02,1318.29 1506.24,1317.27 1508.46,1316.28 1510.67,1315.32 1512.89,1314.37 1515.1,1313.44 1517.32,1312.53 1519.54,1311.64 1521.75,1310.78 1523.97,1309.93 1526.18,1309.1 1528.4,1308.3 1530.62,1307.51 1532.83,1306.74 1535.05,1305.99 1537.26,1305.26 1539.48,1304.55 1541.7,1303.86 1543.91,1303.18 1546.13,1302.53 1548.34,1301.89 1550.56,1301.27 1552.78,1300.67 1554.99,1300.09 1557.21,1299.52 1559.42,1298.97 1561.64,1298.44 1563.86,1297.93 1566.07,1297.43 1568.29,1296.95 1570.5,1296.48 1572.72,1296.03 1574.94,1295.6 1577.15,1295.18 1579.37,1294.78 1581.58,1294.39 1583.8,1294.02 1586.02,1293.66 1588.23,1293.32 1590.45,1292.99 1592.66,1292.67 1594.88,1292.37 1597.1,1292.08 1599.31,1291.8 1601.53,1291.54 1603.74,1291.29 1605.96,1291.05 1608.18,1290.83 1610.39,1290.61 1612.61,1290.41 1614.82,1290.22 1617.04,1290.04 1619.26,1289.87 1621.47,1289.71 1623.69,1289.56 1625.9,1289.42 1628.12,1289.29 1630.34,1289.17 1632.55,1289.06 1634.77,1288.96 1636.98,1288.86 1639.2,1288.78 1641.42,1288.7 1643.63,1288.62 1645.85,1288.56 1648.06,1288.5 1650.28,1288.45 1652.5,1288.4 1654.71,1288.36 1656.93,1288.32 1659.14,1288.29 1661.36,1288.27 1663.58,1288.24 1665.79,1288.23 1668.01,1288.21 1670.22,1288.2 1672.44,1288.19 1674.66,1288.18 1676.87,1288.18 1679.09,1288.17 1681.3,1288.17 1683.52,1288.17 1685.74,1288.17 1687.95,1288.17 1690.17,1288.17 1692.38,1288.17 1694.6,1288.17 1696.82,1288.18 1699.03,1288.17 1701.25,1288.17 1703.46,1288.17 1705.68,1288.16 1707.9,1288.15 1710.11,1288.14 1712.33,1288.13 1714.54,1288.11 1716.76,1288.08 1718.98,1288.06 1721.19,1288.02 1723.41,1287.99 1725.62,1287.94 1727.84,1287.9 1730.06,1287.84 1732.27,1287.78 1734.49,1287.71 1736.7,1287.64 1738.92,1287.55 1741.14,1287.46 1743.35,1287.36 1745.57,1287.26 1747.78,1287.14 1750,1287.02 1752.22,1286.88 1754.43,1286.74 1756.65,1286.59 1758.86,1286.42 1761.08,1286.25 1763.3,1286.06 1765.51,1285.87 1767.73,1285.66 1769.94,1285.44 1772.16,1285.21 1774.38,1284.97 1776.59,1284.71 1778.81,1284.44 1781.02,1284.16 1783.24,1283.86 1785.46,1283.56 1787.67,1283.23 1789.89,1282.9 1792.1,1282.55 1794.32,1282.18 1796.54,1281.8 1798.75,1281.41 1800.97,1281 1803.18,1280.57 1805.4,1280.13 1807.62,1279.68 1809.83,1279.2 1812.05,1278.71 1814.26,1278.21 1816.48,1277.69 1818.7,1277.15 1820.91,1276.59 1823.13,1276.02 1825.34,1275.43 1827.56,1274.82 1829.78,1274.19 1831.99,1273.55 1834.21,1272.88 1836.42,1272.2 1838.64,1271.5 1840.86,1270.78 1843.07,1270.04 1845.29,1269.29 1847.51,1268.51 1849.72,1267.71 1851.94,1266.9 1854.15,1266.06 1856.37,1265.21 1858.59,1264.33 1860.8,1263.44 1863.02,1262.52 1865.23,1261.59 1867.45,1260.63 1869.67,1259.66 1871.88,1258.66 1874.1,1257.64 1876.31,1256.6 1878.53,1255.54 1880.75,1254.45 1882.96,1253.35 1885.18,1252.23 1887.39,1251.08 1889.61,1249.91 1891.83,1248.72 1894.04,1247.51 1896.26,1246.28 1898.47,1245.02 1900.69,1243.74 1902.91,1242.45 1905.12,1241.13 1907.34,1239.79 1909.55,1238.42 1911.77,1237.04 1913.99,1235.63 1916.2,1234.2 1918.42,1232.75 1920.63,1231.28 1922.85,1229.79 1925.07,1228.28 1927.28,1226.74 1929.5,1225.18 1931.71,1223.6 1933.93,1222 1936.15,1220.38 1938.36,1218.74 1940.58,1217.08 1942.79,1215.39 1945.01,1213.69 1947.23,1211.96 1949.44,1210.21 1951.66,1208.44 1953.87,1206.65 1956.09,1204.84 1958.31,1203.01 1960.52,1201.16 1962.74,1199.29 1964.95,1197.4 1967.17,1195.49 1969.39,1193.56 1971.6,1191.61 1973.82,1189.64 1976.03,1187.65 1978.25,1185.64 1980.47,1183.61 1982.68,1181.56 1984.9,1179.49 1987.11,1177.41 1989.33,1175.31 1991.55,1173.18 1993.76,1171.04 1995.98,1168.88 1998.19,1166.71 2000.41,1164.52 2002.63,1162.3 2004.84,1160.08 2007.06,1157.83 2009.27,1155.57 2011.49,1153.29 2013.71,1151 2015.92,1148.68 2018.14,1146.36 2020.35,1144.01 2022.57,1141.66 2024.79,1139.28 2027,1136.9 2029.22,1134.49 2031.43,1132.08 2033.65,1129.65 2035.87,1127.2 2038.08,1124.74 2040.3,1122.27 2042.51,1119.79 2044.73,1122.28 2046.95,1119.77 2049.16,1149.98 2051.38,1147.45 2053.59,1144.9 2055.81,1142.34 2058.03,1139.77 2060.24,1137.2 2062.46,1134.61 2064.67,1132.01 2066.89,1129.4 2069.11,1126.78 2071.32,1124.15 2073.54,1121.51 2075.75,1118.87 2077.97,1152.58 2080.19,1149.92 2082.4,1147.25 2084.62,1144.57 2086.83,1141.89 2089.05,1139.2 2091.27,1136.5 2093.48,1133.8 2095.7,1131.09 2097.91,1128.37 2100.13,1125.62 2102.35,1122.9 2104.56,1120.17 2106.78,1142.36 2108.99,1139.62 2111.21,1136.88 2113.43,1134.14 2115.64,1131.4 2117.86,1128.65 2120.07,1125.9 2122.29,1123.14 2124.51,1120.39 2126.72,1234.82 2128.94,1232.06 2131.15,1229.3 2133.37,1226.55 2135.59,1223.79 2137.8,1221.04 2140.02,1218.28 2142.23,1215.53 2144.45,1212.78 2146.67,1210.03 2148.88,1207.29 2151.1,1204.54 2153.31,1201.8 2155.53,1199.06 2157.75,1196.33 2159.96,1193.6 2162.18,1190.88 2164.39,1188.16 2166.61,1185.44 2168.83,1182.73 2171.04,1180.03 2173.26,1177.33 2175.47,1174.64 2177.69,1171.95 2179.91,1169.27 2182.12,1166.6 2184.34,1163.94 2186.55,1161.28 2188.77,1158.63 2190.99,1156 2193.2,1153.37 2195.42,1150.75 2197.64,1148.13 2199.85,1145.53 2202.07,1142.94 2204.28,1140.36 2206.5,1137.79 2208.72,1135.23 2210.93,1132.68 2213.15,1130.15 2215.36,1127.62 2217.58,1125.11 2219.8,1122.61 2222.01,1120.12 2224.23,1144.38 2226.44,1141.92 2228.66,1139.47 2230.88,1137.04 2233.09,1134.62 2235.31,1132.21 2237.52,1129.82 2239.74,1127.45 2241.96,1125.09 2244.17,1122.74 2246.39,1120.41 2248.6,1161.78 2250.82,1159.48 2253.04,1157.2 2255.25,1154.94 2257.47,1152.69 2259.68,1150.46 2261.9,1148.24 2264.12,1146.05 2266.33,1143.87 2268.55,1141.7 2270.76,1139.56 2272.98,1137.43 2275.2,1135.33 2277.41,1133.24 2279.63,1131.17 2281.84,1129.11 2284.06,1127.08 2286.28,1125.07 2288.49,1123.07 2290.71,1121.1 2292.92,1119.14 2295.14,1128.12 2297.36,1126.2 2299.57,1124.31 2301.79,1122.43 2304,1120.58 2306.22,1118.74 2308.44,1165.75 2310.65,1163.96 2312.87,1162.18 2315.08,1160.43 2317.3,1158.7 2319.52,1156.99 2321.73,1155.3 2323.95,1153.63 2326.16,1151.99 2328.38,1150.36 2330.6,1148.76 2332.81,1147.17 2335.03,1145.61 2337.24,1144.07 2339.46,1142.55 2341.68,1141.06 2343.89,1139.58 2346.11,1138.13 2348.32,1136.7 2350.54,1135.28 2352.76,1133.9 "/>
<polyline clip-path="url(#clip792)" style="stroke:#c271d2; stroke-linecap:round; stroke-linejoin:round; stroke-width:8; stroke-opacity:1; fill:none" points="138.959,1227.57 141.175,1227.57 143.391,1227.57 145.607,1227.57 147.823,1227.57 150.04,1227.57 152.256,1227.57 154.472,1227.57 156.688,1227.57 158.904,1227.57 161.12,1227.57 163.336,1227.57 165.552,1227.57 167.768,1227.57 169.984,1227.57 172.2,1227.57 174.416,1227.57 176.632,1227.57 178.848,1227.57 181.064,1227.57 183.28,1227.57 185.496,1227.57 187.712,1227.57 189.928,1227.57 192.144,1227.57 194.36,1227.57 196.576,1227.57 198.792,1227.57 201.008,1227.57 203.224,1227.57 205.44,1227.57 207.656,1227.57 209.872,1227.57 212.088,1227.57 214.304,1227.57 216.52,1227.57 218.736,1227.57 220.952,1227.57 223.168,1227.57 225.384,1227.57 227.6,1227.57 229.816,1227.57 232.032,1227.57 234.248,1227.57 236.464,1227.57 238.68,1227.57 240.896,1227.57 243.112,1227.57 245.328,1227.57 247.544,1227.57 249.76,1227.57 251.976,1227.57 254.192,1227.57 256.408,1227.57 258.624,1227.57 260.84,1227.57 263.056,1227.57 265.272,1226.55 267.488,1225.52 269.704,1224.48 271.92,1223.45 274.136,1222.42 276.352,1221.38 278.568,1220.35 280.784,1219.32 283,1218.28 285.216,1216.71 287.432,1214.65 289.648,1212.58 291.864,1210.51 294.08,1208.43 296.296,1205.33 298.512,1202.23 300.728,1198.33 302.944,1194.19 305.16,1190.06 307.376,1185.93 309.592,1181.79 311.808,1177.66 314.024,1173.53 316.24,1169.39 318.456,1165.26 320.672,1161.12 322.888,1156.99 325.104,1152.86 327.321,1148.72 329.537,1144.59 331.753,1140.46 333.969,1136.32 336.185,1132.19 338.401,1128.06 340.617,1123.92 342.833,1119.79 345.049,1266.73 347.265,1263.63 349.481,1260.53 351.697,1257.43 353.913,1254.33 356.129,1251.23 358.345,1248.13 360.561,1245.03 362.777,1241.93 364.993,1238.83 367.209,1234.77 369.425,1230.64 371.641,1226.51 373.857,1222.37 376.073,1218.24 378.289,1214.11 380.505,1209.97 382.721,1205.84 384.937,1201.71 387.153,1197.57 389.369,1193.44 391.585,1189.31 393.801,1185.17 396.017,1181.04 398.233,1176.9 400.449,1172.77 402.665,1168.64 404.881,1164.5 407.097,1160.37 409.313,1156.24 411.529,1152.1 413.745,1147.97 415.961,1143.84 418.177,1139.7 420.393,1135.57 422.609,1131.43 424.825,1127.3 427.041,1123.17 429.257,1119.03 431.473,1145.27 433.689,1142.17 435.905,1139.07 438.121,1135.97 440.337,1132.87 442.553,1129.77 444.769,1126.67 446.985,1123.57 449.201,1120.47 451.417,1340.25 453.633,1338.18 455.849,1336.11 458.065,1334.05 460.281,1331.98 462.497,1329.91 464.713,1327.85 466.929,1325.78 469.145,1323.71 471.361,1321.64 473.577,1319.58 475.793,1317.51 478.009,1315.44 480.225,1313.38 482.441,1311.31 484.657,1309.24 486.873,1307.18 489.089,1305.11 491.305,1303.04 493.521,1300.98 495.737,1298.91 497.953,1296.84 500.169,1294.78 502.385,1292.71 504.601,1290.64 506.818,1288.58 509.034,1286.21 511.25,1283.11 513.466,1280.01 515.682,1276.91 517.898,1273.81 520.114,1270.71 522.33,1267.61 524.546,1264.51 526.762,1261.41 528.978,1258.31 531.194,1255.21 533.41,1252.11 535.626,1249.01 537.842,1245.91 540.058,1242.81 542.274,1239.71 544.49,1236.61 546.706,1233.51 548.922,1230.41 551.138,1227.31 553.354,1224.21 555.57,1221.11 557.786,1218.01 560.002,1214.91 562.218,1211.81 564.434,1208.71 566.65,1205.61 568.866,1202.51 571.082,1199.41 573.298,1196.31 575.514,1193.2 577.73,1190.1 579.946,1187 582.162,1183.9 584.378,1180.8 586.594,1177.7 588.81,1174.6 591.026,1171.5 593.242,1168.4 595.458,1165.3 597.674,1162.2 599.89,1159.1 602.106,1156 604.322,1152.9 606.538,1149.8 608.754,1146.7 610.97,1143.6 613.186,1140.46 615.402,1136.33 617.618,1132.19 619.834,1128.06 622.05,1123.93 624.266,1119.79 626.482,1235.26 628.698,1232.16 630.914,1229.06 633.13,1225.96 635.346,1222.86 637.562,1219.76 639.778,1216.66 641.994,1213.56 644.21,1210.46 646.426,1207.36 648.642,1204.26 650.858,1201.16 653.074,1198.06 655.29,1194.96 657.506,1191.86 659.722,1188.76 661.938,1185.66 664.154,1182.56 666.37,1179.46 668.586,1176.36 670.802,1173.26 673.018,1170.16 675.234,1167.06 677.45,1163.96 679.666,1160.86 681.882,1157.76 684.099,1154.66 686.315,1151.56 688.531,1148.46 690.747,1145.36 692.963,1142.26 695.179,1139.16 697.395,1136.06 699.611,1132.96 701.827,1129.85 704.043,1126.75 706.259,1123.65 708.475,1120.55 710.691,1142.44 712.907,1140.38 715.123,1138.31 717.339,1136.24 719.555,1134.18 721.771,1132.11 723.987,1130.04 726.203,1127.97 728.419,1125.91 730.635,1123.84 732.851,1121.77 735.067,1119.71 737.283,1126.82 739.499,1125.79 741.715,1124.76 743.931,1123.72 746.147,1122.69 748.363,1121.66 750.579,1120.62 752.795,1119.59 755.011,1118.56 757.227,1164.91 759.443,1164.91 761.659,1164.91 763.875,1164.91 766.091,1164.91 768.307,1164.91 770.523,1164.91 772.739,1164.91 774.955,1164.91 777.171,1164.91 779.387,1164.91 781.603,1164.91 783.819,1164.91 786.035,1164.91 788.251,1164.91 790.467,1164.91 792.683,1164.91 794.899,1164.91 797.115,1164.91 799.331,1164.91 801.547,1164.91 803.763,1164.91 805.979,1164.91 808.195,1164.91 810.411,1164.91 812.627,1164.91 814.843,1164.91 817.059,1164.91 819.275,1164.91 821.491,1164.91 823.707,1164.91 825.923,1164.91 828.139,1164.91 830.355,1164.91 832.571,1164.91 834.787,1164.91 837.003,1164.91 839.219,1164.91 841.435,1164.91 843.651,1164.91 845.867,1164.91 848.083,1164.91 850.299,1164.91 852.515,1164.91 854.731,1164.91 856.947,1164.91 859.163,1164.91 861.38,1164.91 863.596,1164.91 865.812,1164.91 868.028,1164.91 870.244,1164.91 872.46,1164.91 874.676,1164.91 876.892,1164.91 879.108,1164.91 881.324,1164.91 883.54,1164.91 885.756,1164.91 887.972,1164.91 890.188,1164.91 892.404,1164.91 894.62,1164.91 896.836,1164.91 899.052,1164.91 901.268,1164.91 903.484,1164.91 905.7,1164.91 907.916,1164.91 910.132,1164.91 912.348,1164.91 914.564,1164.91 916.78,1164.91 918.996,1164.91 921.212,1164.91 923.428,1164.91 925.644,1164.91 927.86,1164.91 930.076,1164.91 932.292,1164.91 934.508,1164.91 936.724,1164.91 938.94,1164.91 941.156,1164.91 943.372,1164.91 945.588,1164.91 947.804,1164.91 950.02,1164.91 952.236,1164.91 954.452,1164.91 956.668,1164.91 958.884,1164.91 961.1,1164.91 963.316,1164.91 965.532,1164.91 967.748,1164.91 969.964,1164.91 972.18,1164.91 974.396,1164.91 976.612,1164.91 978.828,1164.91 981.044,1164.91 983.26,1164.91 985.476,1164.91 987.692,1164.91 989.908,1164.91 992.124,1164.91 994.34,1164.91 996.556,1164.91 998.772,1164.91 1000.99,1164.91 1003.2,1164.91 1005.42,1164.91 1007.64,1164.91 1009.85,1164.91 1012.07,1164.91 1014.28,1164.91 1016.5,1164.91 1018.72,1164.91 1020.93,1164.91 1023.15,1164.91 1025.36,1164.91 1027.58,1164.91 1029.8,1164.91 1032.01,1164.91 1034.23,1164.91 1036.44,1164.91 1038.66,1164.91 1040.88,1164.91 1043.09,1164.91 1045.31,1164.91 1047.52,1164.91 1049.74,1164.91 1051.96,1164.91 1054.17,1164.91 1056.39,1164.91 1058.6,1164.91 1060.82,1164.91 1063.04,1164.91 1065.25,1164.91 1067.47,1164.91 1069.68,1164.91 1071.9,1164.91 1074.12,1164.91 1076.33,1164.91 1078.55,1164.91 1080.76,1164.91 1082.98,1164.91 1085.2,1164.91 1087.41,1164.91 1089.63,1164.91 1091.84,1164.91 1094.06,1164.91 1096.28,1164.91 1098.49,1164.91 1100.71,1164.91 1102.92,1164.91 1105.14,1164.91 1107.36,1164.91 1109.57,1164.91 1111.79,1164.91 1114,1164.91 1116.22,1164.91 1118.44,1164.91 1120.65,1164.91 1122.87,1164.91 1125.08,1164.91 1127.3,1164.91 1129.52,1164.91 1131.73,1164.91 1133.95,1164.91 1136.17,1164.91 1138.38,1164.91 1140.6,1164.91 1142.81,1164.91 1145.03,1164.91 1147.25,1164.91 1149.46,1164.91 1151.68,1164.91 1153.89,1164.91 1156.11,1164.91 1158.33,1164.91 1160.54,1164.91 1162.76,1164.91 1164.97,1164.91 1167.19,1164.91 1169.41,1164.91 1171.62,1164.91 1173.84,1164.91 1176.05,1164.91 1178.27,1164.91 1180.49,1164.91 1182.7,1164.91 1184.92,1164.91 1187.13,1164.91 1189.35,1164.91 1191.57,1164.91 1193.78,1164.91 1196,1164.91 1198.21,1164.91 1200.43,1164.91 1202.65,1164.91 1204.86,1164.91 1207.08,1164.91 1209.29,1164.91 1211.51,1164.91 1213.73,1163.98 1215.94,1162.94 1218.16,1161.91 1220.37,1160.88 1222.59,1159.84 1224.81,1158.81 1227.02,1157.77 1229.24,1156.74 1231.45,1155.71 1233.67,1154.67 1235.89,1153.64 1238.1,1152.61 1240.32,1151.57 1242.53,1150.54 1244.75,1149.51 1246.97,1148.47 1249.18,1147.44 1251.4,1146.41 1253.61,1145.37 1255.83,1144.34 1258.05,1143.31 1260.26,1142.27 1262.48,1141.24 1264.69,1140.21 1266.91,1139.17 1269.13,1138.14 1271.34,1137.11 1273.56,1136.07 1275.77,1135.04 1277.99,1134.01 1280.21,1132.97 1282.42,1131.94 1284.64,1130.91 1286.85,1129.87 1289.07,1128.84 1291.29,1127.81 1293.5,1126.77 1295.72,1125.74 1297.93,1124.71 1300.15,1123.67 1302.37,1122.64 1304.58,1121.61 1306.8,1120.57 1309.01,1119.54 1311.23,1119.85 1313.45,1119.85 1315.66,1119.85 1317.88,1119.85 1320.09,1119.85 1322.31,1119.85 1324.53,1119.85 1326.74,1119.85 1328.96,1119.85 1331.17,1119.85 1333.39,1119.85 1335.61,1119.85 1337.82,1119.85 1340.04,1119.85 1342.25,1119.85 1344.47,1119.85 1346.69,1119.85 1348.9,1119.85 1351.12,1119.85 1353.33,1119.85 1355.55,1119.85 1357.77,1119.85 1359.98,1119.85 1362.2,1119.85 1364.41,1119.85 1366.63,1119.85 1368.85,1119.85 1371.06,1119.85 1373.28,1119.85 1375.49,1119.85 1377.71,1119.85 1379.93,1119.85 1382.14,1119.85 1384.36,1119.85 1386.57,1119.85 1388.79,1119.85 1391.01,1119.84 1393.22,1118.81 1395.44,1137.86 1397.65,1137.86 1399.87,1137.86 1402.09,1137.86 1404.3,1137.86 1406.52,1137.86 1408.73,1137.86 1410.95,1137.86 1413.17,1137.86 1415.38,1137.86 1417.6,1137.86 1419.81,1137.86 1422.03,1137.86 1424.25,1137.86 1426.46,1137.86 1428.68,1137.86 1430.89,1137.86 1433.11,1137.86 1435.33,1137.86 1437.54,1137.86 1439.76,1137.86 1441.97,1137.86 1444.19,1137.86 1446.41,1137.86 1448.62,1137.86 1450.84,1137.86 1453.05,1137.86 1455.27,1137.49 1457.49,1136.46 1459.7,1135.42 1461.92,1134.39 1464.13,1133.36 1466.35,1132.32 1468.57,1131.29 1470.78,1130.26 1473,1129.22 1475.21,1128.19 1477.43,1127.16 1479.65,1126.12 1481.86,1125.09 1484.08,1124.06 1486.3,1123.02 1488.51,1121.99 1490.73,1120.96 1492.94,1119.92 1495.16,1118.89 1497.38,1127.51 1499.59,1127.51 1501.81,1127.51 1504.02,1127.51 1506.24,1127.51 1508.46,1127.51 1510.67,1127.51 1512.89,1127.51 1515.1,1127.51 1517.32,1127.51 1519.54,1127.51 1521.75,1127.51 1523.97,1127.51 1526.18,1127.51 1528.4,1127.51 1530.62,1127.51 1532.83,1127.51 1535.05,1127.51 1537.26,1127.51 1539.48,1127.51 1541.7,1127.51 1543.91,1127.51 1546.13,1127.51 1548.34,1127.51 1550.56,1127.51 1552.78,1127.51 1554.99,1127.51 1557.21,1127.51 1559.42,1127.51 1561.64,1127.51 1563.86,1127.51 1566.07,1127.51 1568.29,1127.51 1570.5,1127.51 1572.72,1127.51 1574.94,1127.51 1577.15,1127.51 1579.37,1127.51 1581.58,1127.51 1583.8,1127.51 1586.02,1127.51 1588.23,1127.51 1590.45,1127.51 1592.66,1127.51 1594.88,1127.51 1597.1,1127.51 1599.31,1127.51 1601.53,1127.51 1603.74,1127.51 1605.96,1127.51 1608.18,1127.51 1610.39,1127.51 1612.61,1127.51 1614.82,1127.51 1617.04,1127.51 1619.26,1127.51 1621.47,1127.51 1623.69,1127.51 1625.9,1127.51 1628.12,1127.51 1630.34,1127.51 1632.55,1127.51 1634.77,1127.51 1636.98,1127.51 1639.2,1127.51 1641.42,1127.51 1643.63,1127.51 1645.85,1127.51 1648.06,1127.51 1650.28,1127.51 1652.5,1127.51 1654.71,1127.51 1656.93,1127.51 1659.14,1127.51 1661.36,1127.51 1663.58,1127.51 1665.79,1127.51 1668.01,1127.51 1670.22,1127.51 1672.44,1127.51 1674.66,1127.51 1676.87,1127.51 1679.09,1127.51 1681.3,1127.51 1683.52,1127.51 1685.74,1127.51 1687.95,1127.51 1690.17,1127.51 1692.38,1127.51 1694.6,1127.51 1696.82,1127.51 1699.03,1127.51 1701.25,1127.51 1703.46,1127.51 1705.68,1127.51 1707.9,1127.51 1710.11,1127.51 1712.33,1127.51 1714.54,1127.51 1716.76,1127.51 1718.98,1127.51 1721.19,1127.51 1723.41,1127.51 1725.62,1127.51 1727.84,1127.51 1730.06,1127.51 1732.27,1127.51 1734.49,1127.51 1736.7,1127.51 1738.92,1127.51 1741.14,1127.51 1743.35,1127.51 1745.57,1127.51 1747.78,1127.51 1750,1127.51 1752.22,1127.51 1754.43,1127.51 1756.65,1127.51 1758.86,1127.51 1761.08,1127.51 1763.3,1127.51 1765.51,1127.51 1767.73,1127.51 1769.94,1127.51 1772.16,1127.51 1774.38,1127.51 1776.59,1127.51 1778.81,1127.51 1781.02,1127.51 1783.24,1127.51 1785.46,1127.51 1787.67,1127.51 1789.89,1127.51 1792.1,1127.51 1794.32,1127.51 1796.54,1127.51 1798.75,1127.51 1800.97,1127.51 1803.18,1127.51 1805.4,1127.51 1807.62,1127.51 1809.83,1127.51 1812.05,1127.51 1814.26,1127.51 1816.48,1127.51 1818.7,1127.51 1820.91,1127.51 1823.13,1127.51 1825.34,1127.51 1827.56,1127.51 1829.78,1127.51 1831.99,1127.51 1834.21,1127.51 1836.42,1127.51 1838.64,1127.51 1840.86,1127.51 1843.07,1127.51 1845.29,1127.51 1847.51,1127.51 1849.72,1127.51 1851.94,1127.51 1854.15,1127.51 1856.37,1127.51 1858.59,1127.51 1860.8,1127.51 1863.02,1127.51 1865.23,1127.51 1867.45,1127.51 1869.67,1127.51 1871.88,1127.51 1874.1,1127.51 1876.31,1127.51 1878.53,1127.51 1880.75,1127.51 1882.96,1127.51 1885.18,1127.51 1887.39,1127.51 1889.61,1127.51 1891.83,1127.51 1894.04,1127.51 1896.26,1127.51 1898.47,1127.51 1900.69,1127.51 1902.91,1127.51 1905.12,1127.51 1907.34,1127.51 1909.55,1127.51 1911.77,1127.51 1913.99,1127.51 1916.2,1127.51 1918.42,1127.51 1920.63,1127.51 1922.85,1127.51 1925.07,1127.51 1927.28,1127.51 1929.5,1127.51 1931.71,1127.51 1933.93,1127.51 1936.15,1127.51 1938.36,1127.51 1940.58,1127.51 1942.79,1127.51 1945.01,1127.51 1947.23,1127.51 1949.44,1127.51 1951.66,1127.51 1953.87,1127.51 1956.09,1127.51 1958.31,1127.51 1960.52,1127.51 1962.74,1127.51 1964.95,1127.51 1967.17,1127.51 1969.39,1127.51 1971.6,1127.51 1973.82,1127.51 1976.03,1127.51 1978.25,1127.51 1980.47,1127.51 1982.68,1127.51 1984.9,1127.51 1987.11,1127.51 1989.33,1127.51 1991.55,1127.51 1993.76,1127.51 1995.98,1127.51 1998.19,1127.51 2000.41,1127.51 2002.63,1127.51 2004.84,1127.51 2007.06,1127.51 2009.27,1127.51 2011.49,1127.51 2013.71,1127.51 2015.92,1127.51 2018.14,1127.51 2020.35,1127.51 2022.57,1127.51 2024.79,1127.51 2027,1127.51 2029.22,1127.51 2031.43,1127.51 2033.65,1127.51 2035.87,1127.51 2038.08,1127.51 2040.3,1127.51 2042.51,1127.51 2044.73,1127.01 2046.95,1125.98 2049.16,1124.41 2051.38,1122.34 2053.59,1120.27 2055.81,1150.09 2058.03,1149.06 2060.24,1148.03 2062.46,1146.99 2064.67,1145.96 2066.89,1144.93 2069.11,1143.89 2071.32,1142.86 2073.54,1141.83 2075.75,1140.79 2077.97,1138.84 2080.19,1136.77 2082.4,1134.71 2084.62,1132.64 2086.83,1130.57 2089.05,1128.51 2091.27,1126.44 2093.48,1124.37 2095.7,1122.31 2097.91,1120.24 2100.13,1294.3 2102.35,1293.27 2104.56,1292.24 2106.78,1290.78 2108.99,1288.71 2111.21,1286.65 2113.43,1284.58 2115.64,1282.51 2117.86,1280.45 2120.07,1278.38 2122.29,1276.31 2124.51,1274.25 2126.72,1271.83 2128.94,1268.73 2131.15,1265.63 2133.37,1262.53 2135.59,1259.43 2137.8,1256.33 2140.02,1253.23 2142.23,1250.13 2144.45,1247.03 2146.67,1243.93 2148.88,1240.82 2151.1,1237.72 2153.31,1234.62 2155.53,1231.52 2157.75,1228.42 2159.96,1225.32 2162.18,1222.22 2164.39,1219.12 2166.61,1216.02 2168.83,1212.92 2171.04,1209.82 2173.26,1206.72 2175.47,1203.62 2177.69,1200.52 2179.91,1197.42 2182.12,1194.32 2184.34,1191.22 2186.55,1188.12 2188.77,1185.02 2190.99,1181.92 2193.2,1178.82 2195.42,1175.72 2197.64,1172.62 2199.85,1169.52 2202.07,1166.42 2204.28,1163.32 2206.5,1160.22 2208.72,1157.12 2210.93,1154.02 2213.15,1150.92 2215.36,1147.82 2217.58,1144.72 2219.8,1141.62 2222.01,1138.52 2224.23,1135.02 2226.44,1130.89 2228.66,1126.75 2230.88,1122.62 2233.09,1143.79 2235.31,1140.69 2237.52,1137.59 2239.74,1134.49 2241.96,1131.39 2244.17,1128.29 2246.39,1125.19 2248.6,1121.88 2250.82,1251.6 2253.04,1248.5 2255.25,1245.4 2257.47,1242.3 2259.68,1239.2 2261.9,1236.1 2264.12,1233 2266.33,1229.9 2268.55,1226.8 2270.76,1223.7 2272.98,1220.6 2275.2,1217.5 2277.41,1214.4 2279.63,1211.3 2281.84,1208.2 2284.06,1205.1 2286.28,1202 2288.49,1198.9 2290.71,1195.8 2292.92,1192.7 2295.14,1188.88 2297.36,1184.74 2299.57,1180.61 2301.79,1176.48 2304,1172.34 2306.22,1168.21 2308.44,1163.15 2310.65,1157.98 2312.87,1152.81 2315.08,1147.65 2317.3,1142.48 2319.52,1137.31 2321.73,1132.15 2323.95,1126.98 2326.16,1121.81 2328.38,1175.09 2330.6,1170.95 2332.81,1166.82 2335.03,1162.69 2337.24,1158.55 2339.46,1154.42 2341.68,1150.29 2343.89,1146.15 2346.11,1142.02 2348.32,1137.88 2350.54,1133.75 2352.76,1129.62 "/>
<path clip-path="url(#clip790)" d="M212.753 352.309 L517.488 352.309 L517.488 93.1086 L212.753 93.1086  Z" fill="#ffffff" fill-rule="evenodd" fill-opacity="1"/>
<polyline clip-path="url(#clip790)" style="stroke:#000000; stroke-linecap:round; stroke-linejoin:round; stroke-width:4; stroke-opacity:1; fill:none" points="212.753,352.309 517.488,352.309 517.488,93.1086 212.753,93.1086 212.753,352.309 "/>
<polyline clip-path="url(#clip790)" style="stroke:#009af9; stroke-linecap:round; stroke-linejoin:round; stroke-width:8; stroke-opacity:1; fill:none" points="237.35,144.949 384.937,144.949 "/>
<path clip-path="url(#clip790)" d="M409.535 127.669 L415.831 127.669 L431.155 156.581 L431.155 127.669 L435.692 127.669 L435.692 162.229 L429.396 162.229 L414.072 133.317 L414.072 162.229 L409.535 162.229 L409.535 127.669 Z" fill="#000000" fill-rule="nonzero" fill-opacity="1" /><path clip-path="url(#clip790)" d="M455.044 126.257 Q451.942 131.581 450.437 136.789 Q448.933 141.997 448.933 147.344 Q448.933 152.692 450.437 157.946 Q451.965 163.178 455.044 168.479 L451.34 168.479 Q447.868 163.039 446.132 157.784 Q444.419 152.53 444.419 147.344 Q444.419 142.182 446.132 136.951 Q447.845 131.72 451.34 126.257 L455.044 126.257 Z" fill="#000000" fill-rule="nonzero" fill-opacity="1" /><path clip-path="url(#clip790)" d="M467.52 128.942 L467.52 136.303 L476.293 136.303 L476.293 139.613 L467.52 139.613 L467.52 153.687 Q467.52 156.858 468.377 157.761 Q469.256 158.664 471.918 158.664 L476.293 158.664 L476.293 162.229 L471.918 162.229 Q466.988 162.229 465.113 160.4 Q463.238 158.548 463.238 153.687 L463.238 139.613 L460.113 139.613 L460.113 136.303 L463.238 136.303 L463.238 128.942 L467.52 128.942 Z" fill="#000000" fill-rule="nonzero" fill-opacity="1" /><path clip-path="url(#clip790)" d="M481.224 126.257 L484.928 126.257 Q488.4 131.72 490.113 136.951 Q491.849 142.182 491.849 147.344 Q491.849 152.53 490.113 157.784 Q488.4 163.039 484.928 168.479 L481.224 168.479 Q484.303 163.178 485.807 157.946 Q487.335 152.692 487.335 147.344 Q487.335 141.997 485.807 136.789 Q484.303 131.581 481.224 126.257 Z" fill="#000000" fill-rule="nonzero" fill-opacity="1" /><polyline clip-path="url(#clip790)" style="stroke:#e26f46; stroke-linecap:round; stroke-linejoin:round; stroke-width:8; stroke-opacity:1; fill:none" points="237.35,196.789 384.937,196.789 "/>
<path clip-path="url(#clip790)" d="M414.21 183.351 L414.21 210.226 L419.859 210.226 Q427.011 210.226 430.321 206.985 Q433.655 203.745 433.655 196.754 Q433.655 189.809 430.321 186.592 Q427.011 183.351 419.859 183.351 L414.21 183.351 M409.535 179.509 L419.141 179.509 Q429.187 179.509 433.886 183.698 Q438.585 187.865 438.585 196.754 Q438.585 205.689 433.863 209.879 Q429.141 214.069 419.141 214.069 L409.535 214.069 L409.535 179.509 Z" fill="#000000" fill-rule="nonzero" fill-opacity="1" /><path clip-path="url(#clip790)" d="M456.085 178.097 Q452.983 183.421 451.479 188.629 Q449.974 193.837 449.974 199.184 Q449.974 204.532 451.479 209.786 Q453.007 215.018 456.085 220.319 L452.382 220.319 Q448.909 214.879 447.173 209.624 Q445.46 204.37 445.46 199.184 Q445.46 194.022 447.173 188.791 Q448.886 183.56 452.382 178.097 L456.085 178.097 Z" fill="#000000" fill-rule="nonzero" fill-opacity="1" /><path clip-path="url(#clip790)" d="M468.562 180.782 L468.562 188.143 L477.335 188.143 L477.335 191.453 L468.562 191.453 L468.562 205.527 Q468.562 208.698 469.419 209.601 Q470.298 210.504 472.96 210.504 L477.335 210.504 L477.335 214.069 L472.96 214.069 Q468.03 214.069 466.155 212.24 Q464.28 210.388 464.28 205.527 L464.28 191.453 L461.155 191.453 L461.155 188.143 L464.28 188.143 L464.28 180.782 L468.562 180.782 Z" fill="#000000" fill-rule="nonzero" fill-opacity="1" /><path clip-path="url(#clip790)" d="M482.266 178.097 L485.969 178.097 Q489.442 183.56 491.154 188.791 Q492.891 194.022 492.891 199.184 Q492.891 204.37 491.154 209.624 Q489.442 214.879 485.969 220.319 L482.266 220.319 Q485.344 215.018 486.849 209.786 Q488.377 204.532 488.377 199.184 Q488.377 193.837 486.849 188.629 Q485.344 183.421 482.266 178.097 Z" fill="#000000" fill-rule="nonzero" fill-opacity="1" /><polyline clip-path="url(#clip790)" style="stroke:#3da44d; stroke-linecap:round; stroke-linejoin:round; stroke-width:8; stroke-opacity:1; fill:none" points="237.35,248.629 384.937,248.629 "/>
<path clip-path="url(#clip790)" d="M409.535 231.349 L415.831 231.349 L431.155 260.261 L431.155 231.349 L435.692 231.349 L435.692 265.909 L429.396 265.909 L414.072 236.997 L414.072 265.909 L409.535 265.909 L409.535 231.349 Z" fill="#000000" fill-rule="nonzero" fill-opacity="1" /><path clip-path="url(#clip790)" d="M455.044 229.937 Q451.942 235.261 450.437 240.469 Q448.933 245.677 448.933 251.024 Q448.933 256.372 450.437 261.626 Q451.965 266.858 455.044 272.159 L451.34 272.159 Q447.868 266.719 446.132 261.464 Q444.419 256.21 444.419 251.024 Q444.419 245.862 446.132 240.631 Q447.845 235.4 451.34 229.937 L455.044 229.937 Z" fill="#000000" fill-rule="nonzero" fill-opacity="1" /><path clip-path="url(#clip790)" d="M467.52 232.622 L467.52 239.983 L476.293 239.983 L476.293 243.293 L467.52 243.293 L467.52 257.367 Q467.52 260.538 468.377 261.441 Q469.256 262.344 471.918 262.344 L476.293 262.344 L476.293 265.909 L471.918 265.909 Q466.988 265.909 465.113 264.08 Q463.238 262.228 463.238 257.367 L463.238 243.293 L460.113 243.293 L460.113 239.983 L463.238 239.983 L463.238 232.622 L467.52 232.622 Z" fill="#000000" fill-rule="nonzero" fill-opacity="1" /><path clip-path="url(#clip790)" d="M481.224 229.937 L484.928 229.937 Q488.4 235.4 490.113 240.631 Q491.849 245.862 491.849 251.024 Q491.849 256.21 490.113 261.464 Q488.4 266.719 484.928 272.159 L481.224 272.159 Q484.303 266.858 485.807 261.626 Q487.335 256.372 487.335 251.024 Q487.335 245.677 485.807 240.469 Q484.303 235.261 481.224 229.937 Z" fill="#000000" fill-rule="nonzero" fill-opacity="1" /><polyline clip-path="url(#clip790)" style="stroke:#c271d2; stroke-linecap:round; stroke-linejoin:round; stroke-width:8; stroke-opacity:1; fill:none" points="237.35,300.469 384.937,300.469 "/>
<path clip-path="url(#clip790)" d="M414.21 287.031 L414.21 313.906 L419.859 313.906 Q427.011 313.906 430.321 310.665 Q433.655 307.425 433.655 300.434 Q433.655 293.489 430.321 290.272 Q427.011 287.031 419.859 287.031 L414.21 287.031 M409.535 283.189 L419.141 283.189 Q429.187 283.189 433.886 287.378 Q438.585 291.545 438.585 300.434 Q438.585 309.369 433.863 313.559 Q429.141 317.749 419.141 317.749 L409.535 317.749 L409.535 283.189 Z" fill="#000000" fill-rule="nonzero" fill-opacity="1" /><path clip-path="url(#clip790)" d="M456.085 281.777 Q452.983 287.101 451.479 292.309 Q449.974 297.517 449.974 302.864 Q449.974 308.212 451.479 313.466 Q453.007 318.698 456.085 323.999 L452.382 323.999 Q448.909 318.559 447.173 313.304 Q445.46 308.05 445.46 302.864 Q445.46 297.702 447.173 292.471 Q448.886 287.24 452.382 281.777 L456.085 281.777 Z" fill="#000000" fill-rule="nonzero" fill-opacity="1" /><path clip-path="url(#clip790)" d="M468.562 284.462 L468.562 291.823 L477.335 291.823 L477.335 295.133 L468.562 295.133 L468.562 309.207 Q468.562 312.378 469.419 313.281 Q470.298 314.184 472.96 314.184 L477.335 314.184 L477.335 317.749 L472.96 317.749 Q468.03 317.749 466.155 315.92 Q464.28 314.068 464.28 309.207 L464.28 295.133 L461.155 295.133 L461.155 291.823 L464.28 291.823 L464.28 284.462 L468.562 284.462 Z" fill="#000000" fill-rule="nonzero" fill-opacity="1" /><path clip-path="url(#clip790)" d="M482.266 281.777 L485.969 281.777 Q489.442 287.24 491.154 292.471 Q492.891 297.702 492.891 302.864 Q492.891 308.05 491.154 313.304 Q489.442 318.559 485.969 323.999 L482.266 323.999 Q485.344 318.698 486.849 313.466 Q488.377 308.212 488.377 302.864 Q488.377 297.517 486.849 292.309 Q485.344 287.101 482.266 281.777 Z" fill="#000000" fill-rule="nonzero" fill-opacity="1" /></svg>
