<?xml version="1.0" encoding="utf-8"?>
<svg xmlns="http://www.w3.org/2000/svg" xmlns:xlink="http://www.w3.org/1999/xlink" width="600" height="400" viewBox="0 0 2400 1600">
<defs>
  <clipPath id="clip440">
    <rect x="0" y="0" width="2400" height="1600"/>
  </clipPath>
</defs>
<path clip-path="url(#clip440)" d="M0 1600 L2400 1600 L2400 0 L0 0  Z" fill="#ffffff" fill-rule="evenodd" fill-opacity="1"/>
<defs>
  <clipPath id="clip441">
    <rect x="480" y="0" width="1681" height="1600"/>
  </clipPath>
</defs>
<path clip-path="url(#clip440)" d="M156.112 1423.18 L2352.76 1423.18 L2352.76 47.2441 L156.112 47.2441  Z" fill="#ffffff" fill-rule="evenodd" fill-opacity="1"/>
<defs>
  <clipPath id="clip442">
    <rect x="156" y="47" width="2198" height="1377"/>
  </clipPath>
</defs>
<polyline clip-path="url(#clip442)" style="stroke:#000000; stroke-linecap:round; stroke-linejoin:round; stroke-width:2; stroke-opacity:0.1; fill:none" points="156.112,1423.18 156.112,47.2441 "/>
<polyline clip-path="url(#clip442)" style="stroke:#000000; stroke-linecap:round; stroke-linejoin:round; stroke-width:2; stroke-opacity:0.1; fill:none" points="595.441,1423.18 595.441,47.2441 "/>
<polyline clip-path="url(#clip442)" style="stroke:#000000; stroke-linecap:round; stroke-linejoin:round; stroke-width:2; stroke-opacity:0.1; fill:none" points="1034.77,1423.18 1034.77,47.2441 "/>
<polyline clip-path="url(#clip442)" style="stroke:#000000; stroke-linecap:round; stroke-linejoin:round; stroke-width:2; stroke-opacity:0.1; fill:none" points="1474.1,1423.18 1474.1,47.2441 "/>
<polyline clip-path="url(#clip442)" style="stroke:#000000; stroke-linecap:round; stroke-linejoin:round; stroke-width:2; stroke-opacity:0.1; fill:none" points="1913.43,1423.18 1913.43,47.2441 "/>
<polyline clip-path="url(#clip442)" style="stroke:#000000; stroke-linecap:round; stroke-linejoin:round; stroke-width:2; stroke-opacity:0.1; fill:none" points="2352.76,1423.18 2352.76,47.2441 "/>
<polyline clip-path="url(#clip440)" style="stroke:#000000; stroke-linecap:round; stroke-linejoin:round; stroke-width:4; stroke-opacity:1; fill:none" points="156.112,1423.18 2352.76,1423.18 "/>
<polyline clip-path="url(#clip440)" style="stroke:#000000; stroke-linecap:round; stroke-linejoin:round; stroke-width:4; stroke-opacity:1; fill:none" points="156.112,1423.18 156.112,1404.28 "/>
<polyline clip-path="url(#clip440)" style="stroke:#000000; stroke-linecap:round; stroke-linejoin:round; stroke-width:4; stroke-opacity:1; fill:none" points="595.441,1423.18 595.441,1404.28 "/>
<polyline clip-path="url(#clip440)" style="stroke:#000000; stroke-linecap:round; stroke-linejoin:round; stroke-width:4; stroke-opacity:1; fill:none" points="1034.77,1423.18 1034.77,1404.28 "/>
<polyline clip-path="url(#clip440)" style="stroke:#000000; stroke-linecap:round; stroke-linejoin:round; stroke-width:4; stroke-opacity:1; fill:none" points="1474.1,1423.18 1474.1,1404.28 "/>
<polyline clip-path="url(#clip440)" style="stroke:#000000; stroke-linecap:round; stroke-linejoin:round; stroke-width:4; stroke-opacity:1; fill:none" points="1913.43,1423.18 1913.43,1404.28 "/>
<polyline clip-path="url(#clip440)" style="stroke:#000000; stroke-linecap:round; stroke-linejoin:round; stroke-width:4; stroke-opacity:1; fill:none" points="2352.76,1423.18 2352.76,1404.28 "/>
<path clip-path="url(#clip440)" d="M156.112 1454.1 Q152.501 1454.1 150.672 1457.66 Q148.867 1461.2 148.867 1468.33 Q148.867 1475.44 150.672 1479.01 Q152.501 1482.55 156.112 1482.55 Q159.746 1482.55 161.552 1479.01 Q163.381 1475.44 163.381 1468.33 Q163.381 1461.2 161.552 1457.66 Q159.746 1454.1 156.112 1454.1 M156.112 1450.39 Q161.922 1450.39 164.978 1455 Q168.057 1459.58 168.057 1468.33 Q168.057 1477.06 164.978 1481.67 Q161.922 1486.25 156.112 1486.25 Q150.302 1486.25 147.223 1481.67 Q144.168 1477.06 144.168 1468.33 Q144.168 1459.58 147.223 1455 Q150.302 1450.39 156.112 1450.39 Z" fill="#000000" fill-rule="nonzero" fill-opacity="1" /><path clip-path="url(#clip440)" d="M590.094 1481.64 L606.413 1481.64 L606.413 1485.58 L584.469 1485.58 L584.469 1481.64 Q587.131 1478.89 591.714 1474.26 Q596.321 1469.61 597.501 1468.27 Q599.746 1465.74 600.626 1464.01 Q601.529 1462.25 601.529 1460.56 Q601.529 1457.8 599.584 1456.07 Q597.663 1454.33 594.561 1454.33 Q592.362 1454.33 589.909 1455.09 Q587.478 1455.86 584.7 1457.41 L584.7 1452.69 Q587.524 1451.55 589.978 1450.97 Q592.432 1450.39 594.469 1450.39 Q599.839 1450.39 603.033 1453.08 Q606.228 1455.77 606.228 1460.26 Q606.228 1462.39 605.418 1464.31 Q604.631 1466.2 602.524 1468.8 Q601.945 1469.47 598.844 1472.69 Q595.742 1475.88 590.094 1481.64 Z" fill="#000000" fill-rule="nonzero" fill-opacity="1" /><path clip-path="url(#clip440)" d="M1037.78 1455.09 L1025.97 1473.54 L1037.78 1473.54 L1037.78 1455.09 M1036.55 1451.02 L1042.43 1451.02 L1042.43 1473.54 L1047.36 1473.54 L1047.36 1477.43 L1042.43 1477.43 L1042.43 1485.58 L1037.78 1485.58 L1037.78 1477.43 L1022.18 1477.43 L1022.18 1472.92 L1036.55 1451.02 Z" fill="#000000" fill-rule="nonzero" fill-opacity="1" /><path clip-path="url(#clip440)" d="M1474.5 1466.44 Q1471.36 1466.44 1469.5 1468.59 Q1467.67 1470.74 1467.67 1474.49 Q1467.67 1478.22 1469.5 1480.39 Q1471.36 1482.55 1474.5 1482.55 Q1477.65 1482.55 1479.48 1480.39 Q1481.33 1478.22 1481.33 1474.49 Q1481.33 1470.74 1479.48 1468.59 Q1477.65 1466.44 1474.5 1466.44 M1483.79 1451.78 L1483.79 1456.04 Q1482.03 1455.21 1480.22 1454.77 Q1478.44 1454.33 1476.68 1454.33 Q1472.05 1454.33 1469.6 1457.45 Q1467.17 1460.58 1466.82 1466.9 Q1468.18 1464.89 1470.24 1463.82 Q1472.3 1462.73 1474.78 1462.73 Q1479.99 1462.73 1483 1465.9 Q1486.03 1469.05 1486.03 1474.49 Q1486.03 1479.82 1482.88 1483.03 Q1479.73 1486.25 1474.5 1486.25 Q1468.51 1486.25 1465.34 1481.67 Q1462.17 1477.06 1462.17 1468.33 Q1462.17 1460.14 1466.05 1455.28 Q1469.94 1450.39 1476.49 1450.39 Q1478.25 1450.39 1480.04 1450.74 Q1481.84 1451.09 1483.79 1451.78 Z" fill="#000000" fill-rule="nonzero" fill-opacity="1" /><path clip-path="url(#clip440)" d="M1913.43 1469.17 Q1910.09 1469.17 1908.17 1470.95 Q1906.27 1472.73 1906.27 1475.86 Q1906.27 1478.98 1908.17 1480.77 Q1910.09 1482.55 1913.43 1482.55 Q1916.76 1482.55 1918.68 1480.77 Q1920.6 1478.96 1920.6 1475.86 Q1920.6 1472.73 1918.68 1470.95 Q1916.78 1469.17 1913.43 1469.17 M1908.75 1467.18 Q1905.74 1466.44 1904.05 1464.38 Q1902.39 1462.32 1902.39 1459.35 Q1902.39 1455.21 1905.33 1452.8 Q1908.29 1450.39 1913.43 1450.39 Q1918.59 1450.39 1921.53 1452.8 Q1924.47 1455.21 1924.47 1459.35 Q1924.47 1462.32 1922.78 1464.38 Q1921.11 1466.44 1918.13 1467.18 Q1921.51 1467.96 1923.38 1470.26 Q1925.28 1472.55 1925.28 1475.86 Q1925.28 1480.88 1922.2 1483.57 Q1919.14 1486.25 1913.43 1486.25 Q1907.71 1486.25 1904.63 1483.57 Q1901.58 1480.88 1901.58 1475.86 Q1901.58 1472.55 1903.47 1470.26 Q1905.37 1467.96 1908.75 1467.18 M1907.04 1459.79 Q1907.04 1462.48 1908.7 1463.98 Q1910.39 1465.49 1913.43 1465.49 Q1916.44 1465.49 1918.13 1463.98 Q1919.84 1462.48 1919.84 1459.79 Q1919.84 1457.11 1918.13 1455.6 Q1916.44 1454.1 1913.43 1454.1 Q1910.39 1454.1 1908.7 1455.6 Q1907.04 1457.11 1907.04 1459.79 Z" fill="#000000" fill-rule="nonzero" fill-opacity="1" /><path clip-path="url(#clip440)" d="M2327.44 1481.64 L2335.08 1481.64 L2335.08 1455.28 L2326.77 1456.95 L2326.77 1452.69 L2335.04 1451.02 L2339.71 1451.02 L2339.71 1481.64 L2347.35 1481.64 L2347.35 1485.58 L2327.44 1485.58 L2327.44 1481.64 Z" fill="#000000" fill-rule="nonzero" fill-opacity="1" /><path clip-path="url(#clip440)" d="M2366.8 1454.1 Q2363.18 1454.1 2361.36 1457.66 Q2359.55 1461.2 2359.55 1468.33 Q2359.55 1475.44 2361.36 1479.01 Q2363.18 1482.55 2366.8 1482.55 Q2370.43 1482.55 2372.23 1479.01 Q2374.06 1475.44 2374.06 1468.33 Q2374.06 1461.2 2372.23 1457.66 Q2370.43 1454.1 2366.8 1454.1 M2366.8 1450.39 Q2372.61 1450.39 2375.66 1455 Q2378.74 1459.58 2378.74 1468.33 Q2378.74 1477.06 2375.66 1481.67 Q2372.61 1486.25 2366.8 1486.25 Q2360.99 1486.25 2357.91 1481.67 Q2354.85 1477.06 2354.85 1468.33 Q2354.85 1459.58 2357.91 1455 Q2360.99 1450.39 2366.8 1450.39 Z" fill="#000000" fill-rule="nonzero" fill-opacity="1" /><path clip-path="url(#clip440)" d="M1253.5 1522.27 L1253.5 1532.4 L1265.56 1532.4 L1265.56 1536.95 L1253.5 1536.95 L1253.5 1556.3 Q1253.5 1560.66 1254.67 1561.9 Q1255.88 1563.14 1259.54 1563.14 L1265.56 1563.14 L1265.56 1568.04 L1259.54 1568.04 Q1252.76 1568.04 1250.18 1565.53 Q1247.61 1562.98 1247.61 1556.3 L1247.61 1536.95 L1243.31 1536.95 L1243.31 1532.4 L1247.61 1532.4 L1247.61 1522.27 L1253.5 1522.27 Z" fill="#000000" fill-rule="nonzero" fill-opacity="1" /><polyline clip-path="url(#clip442)" style="stroke:#000000; stroke-linecap:round; stroke-linejoin:round; stroke-width:2; stroke-opacity:0.1; fill:none" points="156.112,1384.54 2352.76,1384.54 "/>
<polyline clip-path="url(#clip442)" style="stroke:#000000; stroke-linecap:round; stroke-linejoin:round; stroke-width:2; stroke-opacity:0.1; fill:none" points="156.112,1006.44 2352.76,1006.44 "/>
<polyline clip-path="url(#clip442)" style="stroke:#000000; stroke-linecap:round; stroke-linejoin:round; stroke-width:2; stroke-opacity:0.1; fill:none" points="156.112,628.335 2352.76,628.335 "/>
<polyline clip-path="url(#clip442)" style="stroke:#000000; stroke-linecap:round; stroke-linejoin:round; stroke-width:2; stroke-opacity:0.1; fill:none" points="156.112,250.233 2352.76,250.233 "/>
<polyline clip-path="url(#clip440)" style="stroke:#000000; stroke-linecap:round; stroke-linejoin:round; stroke-width:4; stroke-opacity:1; fill:none" points="156.112,1423.18 156.112,47.2441 "/>
<polyline clip-path="url(#clip440)" style="stroke:#000000; stroke-linecap:round; stroke-linejoin:round; stroke-width:4; stroke-opacity:1; fill:none" points="156.112,1384.54 175.01,1384.54 "/>
<polyline clip-path="url(#clip440)" style="stroke:#000000; stroke-linecap:round; stroke-linejoin:round; stroke-width:4; stroke-opacity:1; fill:none" points="156.112,1006.44 175.01,1006.44 "/>
<polyline clip-path="url(#clip440)" style="stroke:#000000; stroke-linecap:round; stroke-linejoin:round; stroke-width:4; stroke-opacity:1; fill:none" points="156.112,628.335 175.01,628.335 "/>
<polyline clip-path="url(#clip440)" style="stroke:#000000; stroke-linecap:round; stroke-linejoin:round; stroke-width:4; stroke-opacity:1; fill:none" points="156.112,250.233 175.01,250.233 "/>
<path clip-path="url(#clip440)" d="M62.9365 1370.34 Q59.3254 1370.34 57.4967 1373.9 Q55.6912 1377.45 55.6912 1384.58 Q55.6912 1391.68 57.4967 1395.25 Q59.3254 1398.79 62.9365 1398.79 Q66.5707 1398.79 68.3763 1395.25 Q70.205 1391.68 70.205 1384.58 Q70.205 1377.45 68.3763 1373.9 Q66.5707 1370.34 62.9365 1370.34 M62.9365 1366.64 Q68.7467 1366.64 71.8022 1371.24 Q74.8809 1375.83 74.8809 1384.58 Q74.8809 1393.3 71.8022 1397.91 Q68.7467 1402.49 62.9365 1402.49 Q57.1264 1402.49 54.0477 1397.91 Q50.9921 1393.3 50.9921 1384.58 Q50.9921 1375.83 54.0477 1371.24 Q57.1264 1366.64 62.9365 1366.64 Z" fill="#000000" fill-rule="nonzero" fill-opacity="1" /><path clip-path="url(#clip440)" d="M83.0984 1395.94 L87.9827 1395.94 L87.9827 1401.82 L83.0984 1401.82 L83.0984 1395.94 Z" fill="#000000" fill-rule="nonzero" fill-opacity="1" /><path clip-path="url(#clip440)" d="M108.168 1370.34 Q104.557 1370.34 102.728 1373.9 Q100.922 1377.45 100.922 1384.58 Q100.922 1391.68 102.728 1395.25 Q104.557 1398.79 108.168 1398.79 Q111.802 1398.79 113.608 1395.25 Q115.436 1391.68 115.436 1384.58 Q115.436 1377.45 113.608 1373.9 Q111.802 1370.34 108.168 1370.34 M108.168 1366.64 Q113.978 1366.64 117.033 1371.24 Q120.112 1375.83 120.112 1384.58 Q120.112 1393.3 117.033 1397.91 Q113.978 1402.49 108.168 1402.49 Q102.358 1402.49 99.2789 1397.91 Q96.2234 1393.3 96.2234 1384.58 Q96.2234 1375.83 99.2789 1371.24 Q102.358 1366.64 108.168 1366.64 Z" fill="#000000" fill-rule="nonzero" fill-opacity="1" /><path clip-path="url(#clip440)" d="M64.1634 992.237 Q60.5523 992.237 58.7236 995.802 Q56.918 999.343 56.918 1006.47 Q56.918 1013.58 58.7236 1017.14 Q60.5523 1020.69 64.1634 1020.69 Q67.7976 1020.69 69.6031 1017.14 Q71.4318 1013.58 71.4318 1006.47 Q71.4318 999.343 69.6031 995.802 Q67.7976 992.237 64.1634 992.237 M64.1634 988.533 Q69.9735 988.533 73.029 993.14 Q76.1077 997.723 76.1077 1006.47 Q76.1077 1015.2 73.029 1019.81 Q69.9735 1024.39 64.1634 1024.39 Q58.3532 1024.39 55.2745 1019.81 Q52.219 1015.2 52.219 1006.47 Q52.219 997.723 55.2745 993.14 Q58.3532 988.533 64.1634 988.533 Z" fill="#000000" fill-rule="nonzero" fill-opacity="1" /><path clip-path="url(#clip440)" d="M84.3253 1017.84 L89.2095 1017.84 L89.2095 1023.72 L84.3253 1023.72 L84.3253 1017.84 Z" fill="#000000" fill-rule="nonzero" fill-opacity="1" /><path clip-path="url(#clip440)" d="M100.205 1019.78 L107.844 1019.78 L107.844 993.417 L99.5335 995.084 L99.5335 990.825 L107.797 989.158 L112.473 989.158 L112.473 1019.78 L120.112 1019.78 L120.112 1023.72 L100.205 1023.72 L100.205 1019.78 Z" fill="#000000" fill-rule="nonzero" fill-opacity="1" /><path clip-path="url(#clip440)" d="M64.5337 614.134 Q60.9226 614.134 59.0939 617.699 Q57.2884 621.241 57.2884 628.37 Q57.2884 635.477 59.0939 639.041 Q60.9226 642.583 64.5337 642.583 Q68.168 642.583 69.9735 639.041 Q71.8022 635.477 71.8022 628.37 Q71.8022 621.241 69.9735 617.699 Q68.168 614.134 64.5337 614.134 M64.5337 610.43 Q70.3439 610.43 73.3994 615.037 Q76.4781 619.62 76.4781 628.37 Q76.4781 637.097 73.3994 641.703 Q70.3439 646.287 64.5337 646.287 Q58.7236 646.287 55.6449 641.703 Q52.5893 637.097 52.5893 628.37 Q52.5893 619.62 55.6449 615.037 Q58.7236 610.43 64.5337 610.43 Z" fill="#000000" fill-rule="nonzero" fill-opacity="1" /><path clip-path="url(#clip440)" d="M84.6956 639.736 L89.5799 639.736 L89.5799 645.615 L84.6956 645.615 L84.6956 639.736 Z" fill="#000000" fill-rule="nonzero" fill-opacity="1" /><path clip-path="url(#clip440)" d="M103.793 641.68 L120.112 641.68 L120.112 645.615 L98.1678 645.615 L98.1678 641.68 Q100.83 638.926 105.413 634.296 Q110.02 629.643 111.2 628.301 Q113.445 625.778 114.325 624.041 Q115.228 622.282 115.228 620.592 Q115.228 617.838 113.283 616.102 Q111.362 614.366 108.26 614.366 Q106.061 614.366 103.608 615.129 Q101.177 615.893 98.3993 617.444 L98.3993 612.722 Q101.223 611.588 103.677 611.009 Q106.131 610.43 108.168 610.43 Q113.538 610.43 116.733 613.116 Q119.927 615.801 119.927 620.291 Q119.927 622.421 119.117 624.342 Q118.33 626.241 116.223 628.833 Q115.645 629.504 112.543 632.722 Q109.441 635.916 103.793 641.68 Z" fill="#000000" fill-rule="nonzero" fill-opacity="1" /><path clip-path="url(#clip440)" d="M63.5847 236.032 Q59.9736 236.032 58.1449 239.596 Q56.3393 243.138 56.3393 250.268 Q56.3393 257.374 58.1449 260.939 Q59.9736 264.48 63.5847 264.48 Q67.2189 264.48 69.0244 260.939 Q70.8531 257.374 70.8531 250.268 Q70.8531 243.138 69.0244 239.596 Q67.2189 236.032 63.5847 236.032 M63.5847 232.328 Q69.3948 232.328 72.4503 236.934 Q75.529 241.518 75.529 250.268 Q75.529 258.994 72.4503 263.601 Q69.3948 268.184 63.5847 268.184 Q57.7745 268.184 54.6958 263.601 Q51.6403 258.994 51.6403 250.268 Q51.6403 241.518 54.6958 236.934 Q57.7745 232.328 63.5847 232.328 Z" fill="#000000" fill-rule="nonzero" fill-opacity="1" /><path clip-path="url(#clip440)" d="M83.7466 261.633 L88.6308 261.633 L88.6308 267.513 L83.7466 267.513 L83.7466 261.633 Z" fill="#000000" fill-rule="nonzero" fill-opacity="1" /><path clip-path="url(#clip440)" d="M112.983 248.879 Q116.339 249.596 118.214 251.865 Q120.112 254.133 120.112 257.467 Q120.112 262.582 116.594 265.383 Q113.075 268.184 106.594 268.184 Q104.418 268.184 102.103 267.744 Q99.8113 267.328 97.3576 266.471 L97.3576 261.957 Q99.3021 263.092 101.617 263.67 Q103.932 264.249 106.455 264.249 Q110.853 264.249 113.145 262.513 Q115.459 260.777 115.459 257.467 Q115.459 254.411 113.307 252.698 Q111.177 250.962 107.358 250.962 L103.33 250.962 L103.33 247.119 L107.543 247.119 Q110.992 247.119 112.82 245.754 Q114.649 244.365 114.649 241.772 Q114.649 239.11 112.751 237.698 Q110.876 236.263 107.358 236.263 Q105.436 236.263 103.237 236.68 Q101.038 237.096 98.3993 237.976 L98.3993 233.809 Q101.061 233.069 103.376 232.698 Q105.714 232.328 107.774 232.328 Q113.098 232.328 116.2 234.758 Q119.302 237.166 119.302 241.286 Q119.302 244.156 117.658 246.147 Q116.015 248.115 112.983 248.879 Z" fill="#000000" fill-rule="nonzero" fill-opacity="1" /><polyline clip-path="url(#clip442)" style="stroke:#009af9; stroke-linecap:round; stroke-linejoin:round; stroke-width:8; stroke-opacity:1; fill:none" points="156.112,628.335 158.311,620.728 160.51,613.044 162.709,605.282 164.907,597.443 167.106,589.524 169.305,581.526 171.504,573.448 173.703,565.288 175.902,557.046 178.101,548.721 180.299,540.312 182.498,531.819 184.697,523.241 186.896,514.576 189.095,505.824 191.294,496.983 193.492,488.054 195.691,479.035 197.89,469.926 200.089,460.725 202.288,451.431 204.487,442.043 206.686,432.562 208.884,422.984 211.083,413.311 213.282,403.54 215.481,393.671 217.68,383.703 219.879,373.634 222.077,363.464 224.276,353.192 226.475,342.816 228.674,332.336 230.873,321.75 233.072,311.058 235.27,300.259 237.469,289.351 239.668,278.333 241.867,267.204 244.066,255.963 246.265,244.609 248.464,233.141 250.662,221.558 252.861,209.858 255.06,198.04 257.259,186.104 259.458,174.047 261.657,161.869 263.855,149.569 266.054,137.145 268.253,124.596 270.452,111.92 272.651,99.1174 274.85,86.1857 277.048,728.832 279.247,722.236 281.446,715.573 283.645,708.843 285.844,702.045 288.043,695.179 290.242,688.244 292.44,681.239 294.639,674.163 296.838,667.017 299.037,659.798 301.236,652.507 303.435,645.143 305.633,637.704 307.832,630.191 310.031,622.602 312.23,614.937 314.429,607.194 316.628,599.374 318.826,591.475 321.025,583.496 323.224,575.438 325.423,567.298 327.622,559.076 329.821,550.772 332.02,542.384 334.218,533.911 336.417,525.354 338.616,950.625 340.815,946.26 343.014,941.851 345.213,937.397 347.411,932.899 349.61,928.355 351.809,923.766 354.008,919.13 356.207,914.448 358.406,909.719 360.604,904.942 362.803,900.117 365.002,895.244 367.201,890.321 369.4,885.349 371.599,880.327 373.798,875.255 375.996,870.131 378.195,864.956 380.394,859.729 382.593,854.449 384.792,849.117 386.991,843.73 389.189,838.289 391.388,832.794 393.587,827.243 395.786,821.637 397.985,815.974 400.184,810.254 402.382,804.476 404.581,798.64 406.78,792.746 408.979,786.792 411.178,1082.66 413.377,1079.62 415.576,1076.56 417.774,1073.46 419.973,1070.33 422.172,1067.17 424.371,1063.97 426.57,1060.75 428.769,1057.49 430.967,1054.2 433.166,1050.88 435.365,1047.52 437.564,1044.13 439.763,1040.71 441.962,1037.25 444.161,1033.75 446.359,1030.22 448.558,1026.66 450.757,1023.06 452.956,1019.42 455.155,1015.75 457.354,1012.04 459.552,1008.29 461.751,1004.51 463.95,1000.68 466.149,996.822 468.348,992.921 470.547,988.981 472.745,985.002 474.944,980.982 477.143,976.922 479.342,972.822 481.541,968.68 483.74,964.496 485.939,960.27 488.137,956.002 490.336,951.69 492.535,947.336 494.734,942.937 496.933,938.495 499.132,934.007 501.33,929.475 503.529,924.897 505.728,920.272 507.927,915.602 510.126,910.884 512.325,906.119 514.523,901.306 516.722,896.444 518.921,891.534 521.12,886.574 523.319,881.565 525.518,876.504 527.717,871.393 529.915,866.231 532.114,861.017 534.313,855.75 536.512,1117.49 538.711,1114.8 540.91,1112.09 543.108,1109.34 545.307,1106.58 547.506,1103.78 549.705,1100.95 551.904,1098.1 554.103,1095.22 556.301,1092.31 558.5,1089.37 560.699,1086.4 562.898,1083.4 565.097,1080.37 567.296,1077.31 569.495,1074.22 571.693,1071.1 573.892,1067.94 576.091,1064.76 578.29,1061.54 580.489,1058.29 582.688,1055.01 584.886,1051.7 587.085,1216.44 589.284,1214.75 591.483,1213.04 593.682,1211.32 595.881,1209.58 598.079,1207.82 600.278,1206.04 602.477,1204.24 604.676,1202.43 606.875,1200.6 609.074,1198.75 611.273,1196.88 613.471,1194.99 615.67,1288.81 617.869,1287.85 620.068,1286.88 622.267,1285.89 624.466,1284.9 626.664,1283.9 628.863,1282.89 631.062,1281.86 633.261,1280.83 635.46,1279.79 637.659,1278.73 639.858,1277.67 642.056,1276.59 644.255,1275.51 646.454,1274.41 648.653,1273.3 650.852,1272.18 653.051,1271.05 655.249,1269.91 657.448,1268.76 659.647,1267.59 661.846,1266.42 664.045,1265.23 666.244,1264.03 668.442,1262.82 670.641,1261.59 672.84,1260.35 675.039,1259.11 677.238,1257.84 679.437,1256.57 681.636,1255.28 683.834,1253.98 686.033,1252.67 688.232,1251.34 690.431,1250 692.63,1248.65 694.829,1247.28 697.027,1245.9 699.226,1244.5 701.425,1313.82 703.624,1313.11 705.823,1348.46 708.022,1348.1 710.22,1347.73 712.419,1347.36 714.618,1346.99 716.817,1346.61 719.016,1346.23 721.215,1345.85 723.414,1345.46 725.612,1345.06 727.811,1344.67 730.01,1344.27 732.209,1343.86 734.408,1343.45 736.607,1343.04 738.805,1342.62 741.004,1342.2 743.203,1341.77 745.402,1341.34 747.601,1340.91 749.8,1340.47 751.998,1340.02 754.197,1339.58 756.396,1339.12 758.595,1338.67 760.794,1338.21 762.993,1337.74 765.192,1337.27 767.39,1336.79 769.589,1336.31 771.788,1335.83 773.987,1335.34 776.186,1334.84 778.385,1334.34 780.583,1333.84 782.782,1333.33 784.981,1332.81 787.18,1332.29 789.379,1331.77 791.578,1331.24 793.776,1330.7 795.975,1330.16 798.174,1329.61 800.373,1356.8 802.572,1356.52 804.771,1356.24 806.97,1355.95 809.168,1355.67 811.367,1355.38 813.566,1355.08 815.765,1354.79 817.964,1354.49 820.163,1354.18 822.361,1353.88 824.56,1353.57 826.759,1353.26 828.958,1352.94 831.157,1352.63 833.356,1352.31 835.554,1351.98 837.753,1351.65 839.952,1351.32 842.151,1350.99 844.35,1350.65 846.549,1350.31 848.748,1349.97 850.946,1349.62 853.145,1349.27 855.344,1348.91 857.543,1348.55 859.742,1348.19 861.941,1347.83 864.139,1347.46 866.338,1347.08 868.537,1346.71 870.736,1346.33 872.935,1345.94 875.134,1345.55 877.333,1345.16 879.531,1344.76 881.73,1344.36 883.929,1343.96 886.128,1343.55 888.327,1343.14 890.526,1342.72 892.724,1342.3 894.923,1341.88 897.122,1341.45 899.321,1341.01 901.52,1340.58 903.719,1340.13 905.917,1339.69 908.116,1339.24 910.315,1338.78 912.514,1338.32 914.713,1337.85 916.912,1337.39 919.111,1336.91 921.309,1336.43 923.508,1335.95 925.707,1335.46 927.906,1334.96 930.105,1334.47 932.304,1333.96 934.502,1333.45 936.701,1332.94 938.9,1332.42 941.099,1331.9 943.298,1331.37 945.497,1330.83 947.695,1330.29 949.894,1329.75 952.093,1329.19 954.292,1328.64 956.491,1328.08 958.69,1356.02 960.889,1355.74 963.087,1355.45 965.286,1355.15 967.485,1354.86 969.684,1354.56 971.883,1354.26 974.082,1353.95 976.28,1353.65 978.479,1353.34 980.678,1353.02 982.877,1352.7 985.076,1352.38 987.275,1352.06 989.473,1351.73 991.672,1351.4 993.871,1351.07 996.07,1350.73 998.269,1350.39 1000.47,1350.05 1002.67,1349.7 1004.87,1349.35 1007.06,1349 1009.26,1348.64 1011.46,1348.28 1013.66,1347.92 1015.86,1347.55 1018.06,1347.17 1020.26,1346.8 1022.46,1346.42 1024.65,1346.04 1026.85,1345.65 1029.05,1345.26 1031.25,1344.86 1033.45,1344.46 1035.65,1344.06 1037.85,1343.65 1040.05,1343.24 1042.25,1342.83 1044.44,1342.41 1046.64,1341.98 1048.84,1341.55 1051.04,1341.12 1053.24,1340.68 1055.44,1340.24 1057.64,1339.8 1059.84,1339.35 1062.04,1338.89 1064.23,1338.43 1066.43,1337.97 1068.63,1337.5 1070.83,1337.03 1073.03,1336.55 1075.23,1336.07 1077.43,1335.58 1079.63,1335.09 1081.82,1359.56 1084.02,1359.31 1086.22,1359.06 1088.42,1358.8 1090.62,1358.54 1092.82,1358.28 1095.02,1358.02 1097.22,1357.75 1099.42,1357.48 1101.61,1357.21 1103.81,1356.94 1106.01,1356.66 1108.21,1356.38 1110.41,1356.09 1112.61,1355.81 1114.81,1355.52 1117.01,1355.23 1119.21,1354.93 1121.4,1354.63 1123.6,1354.33 1125.8,1354.03 1128,1353.72 1130.2,1353.41 1132.4,1353.1 1134.6,1352.78 1136.8,1352.46 1138.99,1352.14 1141.19,1351.81 1143.39,1351.49 1145.59,1351.15 1147.79,1350.82 1149.99,1350.48 1152.19,1350.13 1154.39,1349.79 1156.59,1349.44 1158.78,1349.09 1160.98,1348.73 1163.18,1348.37 1165.38,1348.01 1167.58,1347.64 1169.78,1347.27 1171.98,1346.89 1174.18,1346.51 1176.38,1346.13 1178.57,1345.74 1180.77,1345.35 1182.97,1344.96 1185.17,1344.56 1187.37,1344.16 1189.57,1343.75 1191.77,1343.34 1193.97,1342.93 1196.16,1342.51 1198.36,1342.09 1200.56,1341.66 1202.76,1341.23 1204.96,1340.79 1207.16,1340.35 1209.36,1339.91 1211.56,1339.46 1213.76,1339 1215.95,1338.55 1218.15,1338.08 1220.35,1337.62 1222.55,1337.14 1224.75,1336.67 1226.95,1336.19 1229.15,1335.7 1231.35,1335.21 1233.55,1334.71 1235.74,1334.21 1237.94,1333.7 1240.14,1333.19 1242.34,1332.68 1244.54,1332.15 1246.74,1331.63 1248.94,1331.09 1251.14,1357.55 1253.33,1357.28 1255.53,1357 1257.73,1356.73 1259.93,1356.45 1262.13,1356.16 1264.33,1355.88 1266.53,1355.59 1268.73,1355.3 1270.93,1355 1273.12,1354.71 1275.32,1354.41 1277.52,1354.1 1279.72,1353.8 1281.92,1353.49 1284.12,1353.18 1286.32,1352.86 1288.52,1352.54 1290.71,1352.22 1292.91,1351.89 1295.11,1351.57 1297.31,1351.23 1299.51,1350.9 1301.71,1350.56 1303.91,1350.22 1306.11,1349.87 1308.31,1349.53 1310.5,1349.17 1312.7,1348.82 1314.9,1348.46 1317.1,1348.09 1319.3,1347.73 1321.5,1347.36 1323.7,1346.98 1325.9,1346.61 1328.1,1346.22 1330.29,1345.84 1332.49,1345.45 1334.69,1345.06 1336.89,1344.66 1339.09,1344.26 1341.29,1364.2 1343.49,1363.99 1345.69,1363.79 1347.88,1363.58 1350.08,1363.37 1352.28,1363.15 1354.48,1362.94 1356.68,1362.72 1358.88,1362.5 1361.08,1362.28 1363.28,1362.05 1365.48,1361.83 1367.67,1361.6 1369.87,1361.37 1372.07,1361.14 1374.27,1360.9 1376.47,1360.66 1378.67,1360.42 1380.87,1360.18 1383.07,1359.93 1385.27,1359.69 1387.46,1359.44 1389.66,1371.86 1391.86,1371.74 1394.06,1371.61 1396.26,1371.48 1398.46,1371.34 1400.66,1371.21 1402.86,1371.08 1405.05,1370.94 1407.25,1370.81 1409.45,1370.67 1411.65,1370.53 1413.85,1370.39 1416.05,1370.24 1418.25,1370.1 1420.45,1369.96 1422.65,1369.81 1424.84,1369.66 1427.04,1369.51 1429.24,1369.36 1431.44,1369.21 1433.64,1369.05 1435.84,1368.9 1438.04,1368.74 1440.24,1368.58 1442.44,1368.42 1444.63,1368.26 1446.83,1376.32 1449.03,1376.23 1451.23,1376.15 1453.43,1376.07 1455.63,1375.98 1457.83,1375.9 1460.03,1375.81 1462.22,1375.72 1464.42,1375.63 1466.62,1375.54 1468.82,1375.45 1471.02,1375.36 1473.22,1375.27 1475.42,1375.17 1477.62,1375.08 1479.82,1374.99 1482.01,1374.89 1484.21,1374.79 1486.41,1374.69 1488.61,1374.59 1490.81,1374.49 1493.01,1374.39 1495.21,1374.29 1497.41,1374.19 1499.6,1374.08 1501.8,1373.98 1504,1373.87 1506.2,1373.77 1508.4,1373.66 1510.6,1373.55 1512.8,1373.44 1515,1373.33 1517.2,1373.21 1519.39,1373.1 1521.59,1372.98 1523.79,1372.87 1525.99,1372.75 1528.19,1372.63 1530.39,1372.51 1532.59,1372.39 1534.79,1372.27 1536.99,1372.14 1539.18,1372.02 1541.38,1371.89 1543.58,1371.77 1545.78,1371.64 1547.98,1371.51 1550.18,1371.38 1552.38,1371.24 1554.58,1371.11 1556.77,1370.98 1558.97,1370.84 1561.17,1370.7 1563.37,1370.56 1565.57,1370.42 1567.77,1370.28 1569.97,1370.14 1572.17,1369.99 1574.37,1369.84 1576.56,1369.7 1578.76,1369.55 1580.96,1369.4 1583.16,1369.24 1585.36,1369.09 1587.56,1376.74 1589.76,1376.66 1591.96,1380.56 1594.16,1380.52 1596.35,1380.48 1598.55,1380.44 1600.75,1380.4 1602.95,1380.36 1605.15,1380.31 1607.35,1380.27 1609.55,1380.23 1611.75,1382.36 1613.94,1382.34 1616.14,1382.32 1618.34,1382.3 1620.54,1382.27 1622.74,1382.25 1624.94,1382.23 1627.14,1382.2 1629.34,1382.18 1631.54,1382.16 1633.73,1382.13 1635.93,1382.11 1638.13,1382.08 1640.33,1382.06 1642.53,1382.04 1644.73,1382.01 1646.93,1381.98 1649.13,1381.96 1651.33,1381.93 1653.52,1381.91 1655.72,1381.88 1657.92,1381.85 1660.12,1381.83 1662.32,1381.8 1664.52,1381.77 1666.72,1381.74 1668.92,1381.72 1671.11,1381.69 1673.31,1381.66 1675.51,1381.63 1677.71,1381.6 1679.91,1381.57 1682.11,1381.54 1684.31,1381.51 1686.51,1381.48 1688.71,1381.45 1690.9,1381.42 1693.1,1381.39 1695.3,1381.35 1697.5,1381.32 1699.7,1381.29 1701.9,1381.26 1704.1,1381.22 1706.3,1381.19 1708.5,1381.16 1710.69,1381.12 1712.89,1381.09 1715.09,1381.05 1717.29,1381.02 1719.49,1380.98 1721.69,1380.95 1723.89,1380.91 1726.09,1380.88 1728.28,1380.84 1730.48,1380.8 1732.68,1380.76 1734.88,1380.73 1737.08,1380.69 1739.28,1380.65 1741.48,1380.61 1743.68,1380.57 1745.88,1380.53 1748.07,1380.49 1750.27,1380.45 1752.47,1380.41 1754.67,1380.37 1756.87,1380.32 1759.07,1380.28 1761.27,1380.24 1763.47,1380.2 1765.66,1380.15 1767.86,1380.11 1770.06,1380.06 1772.26,1380.02 1774.46,1379.97 1776.66,1379.93 1778.86,1379.88 1781.06,1382.19 1783.26,1382.16 1785.45,1382.14 1787.65,1382.12 1789.85,1382.09 1792.05,1382.07 1794.25,1382.04 1796.45,1382.02 1798.65,1381.99 1800.85,1381.97 1803.05,1381.94 1805.24,1381.91 1807.44,1381.89 1809.64,1381.86 1811.84,1381.83 1814.04,1381.81 1816.24,1381.78 1818.44,1381.75 1820.64,1381.72 1822.83,1381.69 1825.03,1381.67 1827.23,1383.09 1829.43,1383.07 1831.63,1383.06 1833.83,1383.04 1836.03,1383.03 1838.23,1383.01 1840.43,1383 1842.62,1382.98 1844.82,1382.97 1847.02,1382.95 1849.22,1382.94 1851.42,1383.73 1853.62,1383.72 1855.82,1383.71 1858.02,1383.71 1860.22,1383.7 1862.41,1383.69 1864.61,1383.68 1866.81,1383.67 1869.01,1384.1 1871.21,1384.1 1873.41,1384.09 1875.61,1384.09 1877.81,1384.08 1880,1384.08 1882.2,1384.07 1884.4,1384.07 1886.6,1384.07 1888.8,1384.06 1891,1384.06 1893.2,1384.05 1895.4,1384.05 1897.6,1384.04 1899.79,1384.04 1901.99,1384.03 1904.19,1384.03 1906.39,1384.02 1908.59,1384.01 1910.79,1384.01 1912.99,1384 1915.19,1384 1917.39,1383.99 1919.58,1383.99 1921.78,1383.98 1923.98,1383.98 1926.18,1383.97 1928.38,1383.97 1930.58,1383.96 1932.78,1383.95 1934.98,1383.95 1937.17,1383.94 1939.37,1384.24 1941.57,1384.24 1943.77,1384.23 1945.97,1384.23 1948.17,1384.23 1950.37,1384.22 1952.57,1384.22 1954.77,1384.22 1956.96,1384.21 1959.16,1384.21 1961.36,1384.21 1963.56,1384.2 1965.76,1384.2 1967.96,1384.2 1970.16,1384.19 1972.36,1384.19 1974.55,1384.19 1976.75,1384.18 1978.95,1384.18 1981.15,1384.17 1983.35,1384.17 1985.55,1384.17 1987.75,1384.16 1989.95,1384.16 1992.15,1384.16 1994.34,1384.15 1996.54,1384.15 1998.74,1384.14 2000.94,1384.14 2003.14,1384.14 2005.34,1384.13 2007.54,1384.13 2009.74,1384.12 2011.94,1384.12 2014.13,1384.12 2016.33,1384.11 2018.53,1384.11 2020.73,1384.1 2022.93,1384.1 2025.13,1384.09 2027.33,1384.09 2029.53,1384.08 2031.72,1384.08 2033.92,1384.08 2036.12,1384.07 2038.32,1384.07 2040.52,1384.06 2042.72,1384.06 2044.92,1384.05 2047.12,1384.05 2049.32,1384.04 2051.51,1384.04 2053.71,1384.03 2055.91,1384.03 2058.11,1384.02 2060.31,1384.02 2062.51,1384.01 2064.71,1384.01 2066.91,1384 2069.11,1383.99 2071.3,1383.99 2073.5,1383.98 2075.7,1383.98 2077.9,1383.97 2080.1,1383.97 2082.3,1383.96 2084.5,1383.96 2086.7,1383.95 2088.89,1383.94 2091.09,1383.94 2093.29,1383.93 2095.49,1383.93 2097.69,1383.92 2099.89,1383.91 2102.09,1383.91 2104.29,1383.9 2106.49,1383.89 2108.68,1383.89 2110.88,1383.88 2113.08,1383.87 2115.28,1383.87 2117.48,1383.86 2119.68,1383.85 2121.88,1383.85 2124.08,1383.84 2126.28,1383.83 2128.47,1383.83 2130.67,1383.82 2132.87,1383.81 2135.07,1383.8 2137.27,1383.8 2139.47,1383.79 2141.67,1383.78 2143.87,1383.77 2146.06,1383.77 2148.26,1383.76 2150.46,1383.75 2152.66,1383.74 2154.86,1383.73 2157.06,1383.73 2159.26,1383.72 2161.46,1383.71 2163.66,1383.7 2165.85,1383.69 2168.05,1383.68 2170.25,1383.68 2172.45,1383.67 2174.65,1383.66 2176.85,1383.65 2179.05,1383.64 2181.25,1383.63 2183.45,1383.62 2185.64,1383.61 2187.84,1383.6 2190.04,1383.59 2192.24,1383.58 2194.44,1383.57 2196.64,1383.57 2198.84,1383.56 2201.04,1383.55 2203.23,1383.54 2205.43,1384.03 2207.63,1384.03 2209.83,1384.02 2212.03,1384.02 2214.23,1384.01 2216.43,1384.01 2218.63,1384 2220.83,1384 2223.02,1383.99 2225.22,1383.99 2227.42,1383.98 2229.62,1383.97 2231.82,1383.97 2234.02,1383.96 2236.22,1383.96 2238.42,1383.95 2240.61,1383.94 2242.81,1383.94 2245.01,1383.93 2247.21,1383.93 2249.41,1383.92 2251.61,1383.91 2253.81,1383.91 2256.01,1383.9 2258.21,1383.9 2260.4,1383.89 2262.6,1383.88 2264.8,1383.88 2267,1383.87 2269.2,1383.86 2271.4,1383.86 2273.6,1383.85 2275.8,1383.84 2278,1383.83 2280.19,1383.83 2282.39,1383.82 2284.59,1383.81 2286.79,1383.81 2288.99,1383.8 2291.19,1383.79 2293.39,1383.78 2295.59,1383.78 2297.78,1383.77 2299.98,1383.76 2302.18,1383.75 2304.38,1383.74 2306.58,1383.74 2308.78,1383.73 2310.98,1383.72 2313.18,1383.71 2315.38,1383.7 2317.57,1383.69 2319.77,1383.69 2321.97,1383.68 2324.17,1383.67 2326.37,1383.66 2328.57,1383.65 2330.77,1383.64 2332.97,1383.63 2335.17,1383.62 2337.36,1383.62 2339.56,1383.61 2341.76,1383.6 2343.96,1383.59 2346.16,1383.58 2348.36,1383.57 2350.56,1383.56 2352.76,1383.55 "/>
<path clip-path="url(#clip440)" d="M1970.77 196.789 L2279.53 196.789 L2279.53 93.1086 L1970.77 93.1086  Z" fill="#ffffff" fill-rule="evenodd" fill-opacity="1"/>
<polyline clip-path="url(#clip440)" style="stroke:#000000; stroke-linecap:round; stroke-linejoin:round; stroke-width:4; stroke-opacity:1; fill:none" points="1970.77,196.789 2279.53,196.789 2279.53,93.1086 1970.77,93.1086 1970.77,196.789 "/>
<polyline clip-path="url(#clip440)" style="stroke:#009af9; stroke-linecap:round; stroke-linejoin:round; stroke-width:8; stroke-opacity:1; fill:none" points="1995.18,144.949 2141.62,144.949 "/>
<path clip-path="url(#clip440)" d="M2166.03 151.997 L2166.03 136.303 L2170.29 136.303 L2170.29 151.835 Q2170.29 155.516 2171.72 157.368 Q2173.16 159.196 2176.03 159.196 Q2179.48 159.196 2181.47 156.997 Q2183.48 154.798 2183.48 151.002 L2183.48 136.303 L2187.74 136.303 L2187.74 162.229 L2183.48 162.229 L2183.48 158.247 Q2181.93 160.608 2179.87 161.766 Q2177.84 162.9 2175.13 162.9 Q2170.66 162.9 2168.35 160.122 Q2166.03 157.344 2166.03 151.997 M2176.75 135.678 L2176.75 135.678 Z" fill="#000000" fill-rule="nonzero" fill-opacity="1" /><path clip-path="url(#clip440)" d="M2196.12 126.21 L2205.94 126.21 L2205.94 129.52 L2200.38 129.52 L2200.38 165.168 L2205.94 165.168 L2205.94 168.479 L2196.12 168.479 L2196.12 126.21 Z" fill="#000000" fill-rule="nonzero" fill-opacity="1" /><path clip-path="url(#clip440)" d="M2216.42 158.293 L2224.06 158.293 L2224.06 131.928 L2215.75 133.595 L2215.75 129.335 L2224.02 127.669 L2228.69 127.669 L2228.69 158.293 L2236.33 158.293 L2236.33 162.229 L2216.42 162.229 L2216.42 158.293 Z" fill="#000000" fill-rule="nonzero" fill-opacity="1" /><path clip-path="url(#clip440)" d="M2255.13 126.21 L2255.13 168.479 L2245.31 168.479 L2245.31 165.168 L2250.84 165.168 L2250.84 129.52 L2245.31 129.52 L2245.31 126.21 L2255.13 126.21 Z" fill="#000000" fill-rule="nonzero" fill-opacity="1" /></svg>
