<?xml version="1.0" encoding="utf-8"?>
<svg xmlns="http://www.w3.org/2000/svg" xmlns:xlink="http://www.w3.org/1999/xlink" width="600" height="400" viewBox="0 0 2400 1600">
<defs>
  <clipPath id="clip260">
    <rect x="0" y="0" width="2400" height="1600"/>
  </clipPath>
</defs>
<path clip-path="url(#clip260)" d="M0 1600 L2400 1600 L2400 0 L0 0  Z" fill="#ffffff" fill-rule="evenodd" fill-opacity="1"/>
<defs>
  <clipPath id="clip261">
    <rect x="480" y="0" width="1681" height="1600"/>
  </clipPath>
</defs>
<path clip-path="url(#clip260)" d="M199.283 1423.18 L2352.76 1423.18 L2352.76 47.2441 L199.283 47.2441  Z" fill="#ffffff" fill-rule="evenodd" fill-opacity="1"/>
<defs>
  <clipPath id="clip262">
    <rect x="199" y="47" width="2154" height="1377"/>
  </clipPath>
</defs>
<polyline clip-path="url(#clip262)" style="stroke:#000000; stroke-linecap:round; stroke-linejoin:round; stroke-width:2; stroke-opacity:0.1; fill:none" points="199.283,1423.18 199.283,47.2441 "/>
<polyline clip-path="url(#clip262)" style="stroke:#000000; stroke-linecap:round; stroke-linejoin:round; stroke-width:2; stroke-opacity:0.1; fill:none" points="629.978,1423.18 629.978,47.2441 "/>
<polyline clip-path="url(#clip262)" style="stroke:#000000; stroke-linecap:round; stroke-linejoin:round; stroke-width:2; stroke-opacity:0.1; fill:none" points="1060.67,1423.18 1060.67,47.2441 "/>
<polyline clip-path="url(#clip262)" style="stroke:#000000; stroke-linecap:round; stroke-linejoin:round; stroke-width:2; stroke-opacity:0.1; fill:none" points="1491.37,1423.18 1491.37,47.2441 "/>
<polyline clip-path="url(#clip262)" style="stroke:#000000; stroke-linecap:round; stroke-linejoin:round; stroke-width:2; stroke-opacity:0.1; fill:none" points="1922.06,1423.18 1922.06,47.2441 "/>
<polyline clip-path="url(#clip262)" style="stroke:#000000; stroke-linecap:round; stroke-linejoin:round; stroke-width:2; stroke-opacity:0.1; fill:none" points="2352.76,1423.18 2352.76,47.2441 "/>
<polyline clip-path="url(#clip260)" style="stroke:#000000; stroke-linecap:round; stroke-linejoin:round; stroke-width:4; stroke-opacity:1; fill:none" points="199.283,1423.18 2352.76,1423.18 "/>
<polyline clip-path="url(#clip260)" style="stroke:#000000; stroke-linecap:round; stroke-linejoin:round; stroke-width:4; stroke-opacity:1; fill:none" points="199.283,1423.18 199.283,1404.28 "/>
<polyline clip-path="url(#clip260)" style="stroke:#000000; stroke-linecap:round; stroke-linejoin:round; stroke-width:4; stroke-opacity:1; fill:none" points="629.978,1423.18 629.978,1404.28 "/>
<polyline clip-path="url(#clip260)" style="stroke:#000000; stroke-linecap:round; stroke-linejoin:round; stroke-width:4; stroke-opacity:1; fill:none" points="1060.67,1423.18 1060.67,1404.28 "/>
<polyline clip-path="url(#clip260)" style="stroke:#000000; stroke-linecap:round; stroke-linejoin:round; stroke-width:4; stroke-opacity:1; fill:none" points="1491.37,1423.18 1491.37,1404.28 "/>
<polyline clip-path="url(#clip260)" style="stroke:#000000; stroke-linecap:round; stroke-linejoin:round; stroke-width:4; stroke-opacity:1; fill:none" points="1922.06,1423.18 1922.06,1404.28 "/>
<polyline clip-path="url(#clip260)" style="stroke:#000000; stroke-linecap:round; stroke-linejoin:round; stroke-width:4; stroke-opacity:1; fill:none" points="2352.76,1423.18 2352.76,1404.28 "/>
<path clip-path="url(#clip260)" d="M199.283 1454.1 Q195.672 1454.1 193.843 1457.66 Q192.038 1461.2 192.038 1468.33 Q192.038 1475.44 193.843 1479.01 Q195.672 1482.55 199.283 1482.55 Q202.917 1482.55 204.723 1479.01 Q206.552 1475.44 206.552 1468.33 Q206.552 1461.2 204.723 1457.66 Q202.917 1454.1 199.283 1454.1 M199.283 1450.39 Q205.093 1450.39 208.149 1455 Q211.228 1459.58 211.228 1468.33 Q211.228 1477.06 208.149 1481.67 Q205.093 1486.25 199.283 1486.25 Q193.473 1486.25 190.394 1481.67 Q187.339 1477.06 187.339 1468.33 Q187.339 1459.58 190.394 1455 Q193.473 1450.39 199.283 1450.39 Z" fill="#000000" fill-rule="nonzero" fill-opacity="1" /><path clip-path="url(#clip260)" d="M604.677 1451.02 L623.033 1451.02 L623.033 1454.96 L608.959 1454.96 L608.959 1463.43 Q609.978 1463.08 610.996 1462.92 Q612.015 1462.73 613.033 1462.73 Q618.82 1462.73 622.2 1465.9 Q625.58 1469.08 625.58 1474.49 Q625.58 1480.07 622.107 1483.17 Q618.635 1486.25 612.316 1486.25 Q610.14 1486.25 607.871 1485.88 Q605.626 1485.51 603.219 1484.77 L603.219 1480.07 Q605.302 1481.2 607.524 1481.76 Q609.746 1482.32 612.223 1482.32 Q616.228 1482.32 618.566 1480.21 Q620.904 1478.1 620.904 1474.49 Q620.904 1470.88 618.566 1468.77 Q616.228 1466.67 612.223 1466.67 Q610.348 1466.67 608.473 1467.08 Q606.621 1467.5 604.677 1468.38 L604.677 1451.02 Z" fill="#000000" fill-rule="nonzero" fill-opacity="1" /><path clip-path="url(#clip260)" d="M644.792 1454.1 Q641.181 1454.1 639.353 1457.66 Q637.547 1461.2 637.547 1468.33 Q637.547 1475.44 639.353 1479.01 Q641.181 1482.55 644.792 1482.55 Q648.427 1482.55 650.232 1479.01 Q652.061 1475.44 652.061 1468.33 Q652.061 1461.2 650.232 1457.66 Q648.427 1454.1 644.792 1454.1 M644.792 1450.39 Q650.603 1450.39 653.658 1455 Q656.737 1459.58 656.737 1468.33 Q656.737 1477.06 653.658 1481.67 Q650.603 1486.25 644.792 1486.25 Q638.982 1486.25 635.904 1481.67 Q632.848 1477.06 632.848 1468.33 Q632.848 1459.58 635.904 1455 Q638.982 1450.39 644.792 1450.39 Z" fill="#000000" fill-rule="nonzero" fill-opacity="1" /><path clip-path="url(#clip260)" d="M1020.28 1481.64 L1027.92 1481.64 L1027.92 1455.28 L1019.61 1456.95 L1019.61 1452.69 L1027.87 1451.02 L1032.55 1451.02 L1032.55 1481.64 L1040.19 1481.64 L1040.19 1485.58 L1020.28 1485.58 L1020.28 1481.64 Z" fill="#000000" fill-rule="nonzero" fill-opacity="1" /><path clip-path="url(#clip260)" d="M1059.63 1454.1 Q1056.02 1454.1 1054.19 1457.66 Q1052.39 1461.2 1052.39 1468.33 Q1052.39 1475.44 1054.19 1479.01 Q1056.02 1482.55 1059.63 1482.55 Q1063.26 1482.55 1065.07 1479.01 Q1066.9 1475.44 1066.9 1468.33 Q1066.9 1461.2 1065.07 1457.66 Q1063.26 1454.1 1059.63 1454.1 M1059.63 1450.39 Q1065.44 1450.39 1068.5 1455 Q1071.57 1459.58 1071.57 1468.33 Q1071.57 1477.06 1068.5 1481.67 Q1065.44 1486.25 1059.63 1486.25 Q1053.82 1486.25 1050.74 1481.67 Q1047.69 1477.06 1047.69 1468.33 Q1047.69 1459.58 1050.74 1455 Q1053.82 1450.39 1059.63 1450.39 Z" fill="#000000" fill-rule="nonzero" fill-opacity="1" /><path clip-path="url(#clip260)" d="M1089.79 1454.1 Q1086.18 1454.1 1084.35 1457.66 Q1082.55 1461.2 1082.55 1468.33 Q1082.55 1475.44 1084.35 1479.01 Q1086.18 1482.55 1089.79 1482.55 Q1093.43 1482.55 1095.23 1479.01 Q1097.06 1475.44 1097.06 1468.33 Q1097.06 1461.2 1095.23 1457.66 Q1093.43 1454.1 1089.79 1454.1 M1089.79 1450.39 Q1095.6 1450.39 1098.66 1455 Q1101.74 1459.58 1101.74 1468.33 Q1101.74 1477.06 1098.66 1481.67 Q1095.6 1486.25 1089.79 1486.25 Q1083.98 1486.25 1080.9 1481.67 Q1077.85 1477.06 1077.85 1468.33 Q1077.85 1459.58 1080.9 1455 Q1083.98 1450.39 1089.79 1450.39 Z" fill="#000000" fill-rule="nonzero" fill-opacity="1" /><path clip-path="url(#clip260)" d="M1450.97 1481.64 L1458.61 1481.64 L1458.61 1455.28 L1450.3 1456.95 L1450.3 1452.69 L1458.57 1451.02 L1463.24 1451.02 L1463.24 1481.64 L1470.88 1481.64 L1470.88 1485.58 L1450.97 1485.58 L1450.97 1481.64 Z" fill="#000000" fill-rule="nonzero" fill-opacity="1" /><path clip-path="url(#clip260)" d="M1480.37 1451.02 L1498.73 1451.02 L1498.73 1454.96 L1484.65 1454.96 L1484.65 1463.43 Q1485.67 1463.08 1486.69 1462.92 Q1487.71 1462.73 1488.73 1462.73 Q1494.51 1462.73 1497.89 1465.9 Q1501.27 1469.08 1501.27 1474.49 Q1501.27 1480.07 1497.8 1483.17 Q1494.33 1486.25 1488.01 1486.25 Q1485.83 1486.25 1483.57 1485.88 Q1481.32 1485.51 1478.91 1484.77 L1478.91 1480.07 Q1481 1481.2 1483.22 1481.76 Q1485.44 1482.32 1487.92 1482.32 Q1491.92 1482.32 1494.26 1480.21 Q1496.6 1478.1 1496.6 1474.49 Q1496.6 1470.88 1494.26 1468.77 Q1491.92 1466.67 1487.92 1466.67 Q1486.04 1466.67 1484.17 1467.08 Q1482.32 1467.5 1480.37 1468.38 L1480.37 1451.02 Z" fill="#000000" fill-rule="nonzero" fill-opacity="1" /><path clip-path="url(#clip260)" d="M1520.49 1454.1 Q1516.88 1454.1 1515.05 1457.66 Q1513.24 1461.2 1513.24 1468.33 Q1513.24 1475.44 1515.05 1479.01 Q1516.88 1482.55 1520.49 1482.55 Q1524.12 1482.55 1525.93 1479.01 Q1527.76 1475.44 1527.76 1468.33 Q1527.76 1461.2 1525.93 1457.66 Q1524.12 1454.1 1520.49 1454.1 M1520.49 1450.39 Q1526.3 1450.39 1529.35 1455 Q1532.43 1459.58 1532.43 1468.33 Q1532.43 1477.06 1529.35 1481.67 Q1526.3 1486.25 1520.49 1486.25 Q1514.68 1486.25 1511.6 1481.67 Q1508.54 1477.06 1508.54 1468.33 Q1508.54 1459.58 1511.6 1455 Q1514.68 1450.39 1520.49 1450.39 Z" fill="#000000" fill-rule="nonzero" fill-opacity="1" /><path clip-path="url(#clip260)" d="M1885.75 1481.64 L1902.07 1481.64 L1902.07 1485.58 L1880.13 1485.58 L1880.13 1481.64 Q1882.79 1478.89 1887.37 1474.26 Q1891.98 1469.61 1893.16 1468.27 Q1895.41 1465.74 1896.29 1464.01 Q1897.19 1462.25 1897.19 1460.56 Q1897.19 1457.8 1895.24 1456.07 Q1893.32 1454.33 1890.22 1454.33 Q1888.02 1454.33 1885.57 1455.09 Q1883.14 1455.86 1880.36 1457.41 L1880.36 1452.69 Q1883.18 1451.55 1885.64 1450.97 Q1888.09 1450.39 1890.13 1450.39 Q1895.5 1450.39 1898.69 1453.08 Q1901.89 1455.77 1901.89 1460.26 Q1901.89 1462.39 1901.08 1464.31 Q1900.29 1466.2 1898.18 1468.8 Q1897.61 1469.47 1894.5 1472.69 Q1891.4 1475.88 1885.75 1481.64 Z" fill="#000000" fill-rule="nonzero" fill-opacity="1" /><path clip-path="url(#clip260)" d="M1921.89 1454.1 Q1918.28 1454.1 1916.45 1457.66 Q1914.64 1461.2 1914.64 1468.33 Q1914.64 1475.44 1916.45 1479.01 Q1918.28 1482.55 1921.89 1482.55 Q1925.52 1482.55 1927.33 1479.01 Q1929.16 1475.44 1929.16 1468.33 Q1929.16 1461.2 1927.33 1457.66 Q1925.52 1454.1 1921.89 1454.1 M1921.89 1450.39 Q1927.7 1450.39 1930.75 1455 Q1933.83 1459.58 1933.83 1468.33 Q1933.83 1477.06 1930.75 1481.67 Q1927.7 1486.25 1921.89 1486.25 Q1916.08 1486.25 1913 1481.67 Q1909.94 1477.06 1909.94 1468.33 Q1909.94 1459.58 1913 1455 Q1916.08 1450.39 1921.89 1450.39 Z" fill="#000000" fill-rule="nonzero" fill-opacity="1" /><path clip-path="url(#clip260)" d="M1952.05 1454.1 Q1948.44 1454.1 1946.61 1457.66 Q1944.8 1461.2 1944.8 1468.33 Q1944.8 1475.44 1946.61 1479.01 Q1948.44 1482.55 1952.05 1482.55 Q1955.68 1482.55 1957.49 1479.01 Q1959.32 1475.44 1959.32 1468.33 Q1959.32 1461.2 1957.49 1457.66 Q1955.68 1454.1 1952.05 1454.1 M1952.05 1450.39 Q1957.86 1450.39 1960.92 1455 Q1963.99 1459.58 1963.99 1468.33 Q1963.99 1477.06 1960.92 1481.67 Q1957.86 1486.25 1952.05 1486.25 Q1946.24 1486.25 1943.16 1481.67 Q1940.11 1477.06 1940.11 1468.33 Q1940.11 1459.58 1943.16 1455 Q1946.24 1450.39 1952.05 1450.39 Z" fill="#000000" fill-rule="nonzero" fill-opacity="1" /><path clip-path="url(#clip260)" d="M2316.45 1481.64 L2332.77 1481.64 L2332.77 1485.58 L2310.82 1485.58 L2310.82 1481.64 Q2313.49 1478.89 2318.07 1474.26 Q2322.68 1469.61 2323.86 1468.27 Q2326.1 1465.74 2326.98 1464.01 Q2327.88 1462.25 2327.88 1460.56 Q2327.88 1457.8 2325.94 1456.07 Q2324.02 1454.33 2320.92 1454.33 Q2318.72 1454.33 2316.26 1455.09 Q2313.83 1455.86 2311.05 1457.41 L2311.05 1452.69 Q2313.88 1451.55 2316.33 1450.97 Q2318.79 1450.39 2320.82 1450.39 Q2326.19 1450.39 2329.39 1453.08 Q2332.58 1455.77 2332.58 1460.26 Q2332.58 1462.39 2331.77 1464.31 Q2330.99 1466.2 2328.88 1468.8 Q2328.3 1469.47 2325.2 1472.69 Q2322.1 1475.88 2316.45 1481.64 Z" fill="#000000" fill-rule="nonzero" fill-opacity="1" /><path clip-path="url(#clip260)" d="M2342.63 1451.02 L2360.99 1451.02 L2360.99 1454.96 L2346.91 1454.96 L2346.91 1463.43 Q2347.93 1463.08 2348.95 1462.92 Q2349.97 1462.73 2350.99 1462.73 Q2356.77 1462.73 2360.15 1465.9 Q2363.53 1469.08 2363.53 1474.49 Q2363.53 1480.07 2360.06 1483.17 Q2356.59 1486.25 2350.27 1486.25 Q2348.09 1486.25 2345.82 1485.88 Q2343.58 1485.51 2341.17 1484.77 L2341.17 1480.07 Q2343.25 1481.2 2345.48 1481.76 Q2347.7 1482.32 2350.17 1482.32 Q2354.18 1482.32 2356.52 1480.21 Q2358.86 1478.1 2358.86 1474.49 Q2358.86 1470.88 2356.52 1468.77 Q2354.18 1466.67 2350.17 1466.67 Q2348.3 1466.67 2346.42 1467.08 Q2344.57 1467.5 2342.63 1468.38 L2342.63 1451.02 Z" fill="#000000" fill-rule="nonzero" fill-opacity="1" /><path clip-path="url(#clip260)" d="M2382.74 1454.1 Q2379.13 1454.1 2377.3 1457.66 Q2375.5 1461.2 2375.5 1468.33 Q2375.5 1475.44 2377.3 1479.01 Q2379.13 1482.55 2382.74 1482.55 Q2386.38 1482.55 2388.18 1479.01 Q2390.01 1475.44 2390.01 1468.33 Q2390.01 1461.2 2388.18 1457.66 Q2386.38 1454.1 2382.74 1454.1 M2382.74 1450.39 Q2388.55 1450.39 2391.61 1455 Q2394.69 1459.58 2394.69 1468.33 Q2394.69 1477.06 2391.61 1481.67 Q2388.55 1486.25 2382.74 1486.25 Q2376.93 1486.25 2373.86 1481.67 Q2370.8 1477.06 2370.8 1468.33 Q2370.8 1459.58 2373.86 1455 Q2376.93 1450.39 2382.74 1450.39 Z" fill="#000000" fill-rule="nonzero" fill-opacity="1" /><path clip-path="url(#clip260)" d="M1275.08 1522.27 L1275.08 1532.4 L1287.14 1532.4 L1287.14 1536.95 L1275.08 1536.95 L1275.08 1556.3 Q1275.08 1560.66 1276.26 1561.9 Q1277.47 1563.14 1281.13 1563.14 L1287.14 1563.14 L1287.14 1568.04 L1281.13 1568.04 Q1274.35 1568.04 1271.77 1565.53 Q1269.19 1562.98 1269.19 1556.3 L1269.19 1536.95 L1264.9 1536.95 L1264.9 1532.4 L1269.19 1532.4 L1269.19 1522.27 L1275.08 1522.27 Z" fill="#000000" fill-rule="nonzero" fill-opacity="1" /><polyline clip-path="url(#clip262)" style="stroke:#000000; stroke-linecap:round; stroke-linejoin:round; stroke-width:2; stroke-opacity:0.1; fill:none" points="199.283,1381.03 2352.76,1381.03 "/>
<polyline clip-path="url(#clip262)" style="stroke:#000000; stroke-linecap:round; stroke-linejoin:round; stroke-width:2; stroke-opacity:0.1; fill:none" points="199.283,1056.99 2352.76,1056.99 "/>
<polyline clip-path="url(#clip262)" style="stroke:#000000; stroke-linecap:round; stroke-linejoin:round; stroke-width:2; stroke-opacity:0.1; fill:none" points="199.283,732.958 2352.76,732.958 "/>
<polyline clip-path="url(#clip262)" style="stroke:#000000; stroke-linecap:round; stroke-linejoin:round; stroke-width:2; stroke-opacity:0.1; fill:none" points="199.283,408.924 2352.76,408.924 "/>
<polyline clip-path="url(#clip262)" style="stroke:#000000; stroke-linecap:round; stroke-linejoin:round; stroke-width:2; stroke-opacity:0.1; fill:none" points="199.283,84.8895 2352.76,84.8895 "/>
<polyline clip-path="url(#clip260)" style="stroke:#000000; stroke-linecap:round; stroke-linejoin:round; stroke-width:4; stroke-opacity:1; fill:none" points="199.283,1423.18 199.283,47.2441 "/>
<polyline clip-path="url(#clip260)" style="stroke:#000000; stroke-linecap:round; stroke-linejoin:round; stroke-width:4; stroke-opacity:1; fill:none" points="199.283,1381.03 218.181,1381.03 "/>
<polyline clip-path="url(#clip260)" style="stroke:#000000; stroke-linecap:round; stroke-linejoin:round; stroke-width:4; stroke-opacity:1; fill:none" points="199.283,1056.99 218.181,1056.99 "/>
<polyline clip-path="url(#clip260)" style="stroke:#000000; stroke-linecap:round; stroke-linejoin:round; stroke-width:4; stroke-opacity:1; fill:none" points="199.283,732.958 218.181,732.958 "/>
<polyline clip-path="url(#clip260)" style="stroke:#000000; stroke-linecap:round; stroke-linejoin:round; stroke-width:4; stroke-opacity:1; fill:none" points="199.283,408.924 218.181,408.924 "/>
<polyline clip-path="url(#clip260)" style="stroke:#000000; stroke-linecap:round; stroke-linejoin:round; stroke-width:4; stroke-opacity:1; fill:none" points="199.283,84.8895 218.181,84.8895 "/>
<path clip-path="url(#clip260)" d="M151.339 1366.83 Q147.728 1366.83 145.899 1370.39 Q144.093 1373.93 144.093 1381.06 Q144.093 1388.17 145.899 1391.73 Q147.728 1395.27 151.339 1395.27 Q154.973 1395.27 156.779 1391.73 Q158.607 1388.17 158.607 1381.06 Q158.607 1373.93 156.779 1370.39 Q154.973 1366.83 151.339 1366.83 M151.339 1363.12 Q157.149 1363.12 160.205 1367.73 Q163.283 1372.31 163.283 1381.06 Q163.283 1389.79 160.205 1394.39 Q157.149 1398.98 151.339 1398.98 Q145.529 1398.98 142.45 1394.39 Q139.394 1389.79 139.394 1381.06 Q139.394 1372.31 142.45 1367.73 Q145.529 1363.12 151.339 1363.12 Z" fill="#000000" fill-rule="nonzero" fill-opacity="1" /><path clip-path="url(#clip260)" d="M85.0429 1070.34 L101.362 1070.34 L101.362 1074.27 L79.4179 1074.27 L79.4179 1070.34 Q82.0799 1067.58 86.6632 1062.95 Q91.2697 1058.3 92.4502 1056.96 Q94.6956 1054.43 95.5752 1052.7 Q96.478 1050.94 96.478 1049.25 Q96.478 1046.49 94.5336 1044.76 Q92.6123 1043.02 89.5104 1043.02 Q87.3114 1043.02 84.8577 1043.79 Q82.4271 1044.55 79.6494 1046.1 L79.6494 1041.38 Q82.4734 1040.25 84.9271 1039.67 Q87.3808 1039.09 89.4178 1039.09 Q94.7882 1039.09 97.9826 1041.77 Q101.177 1044.46 101.177 1048.95 Q101.177 1051.08 100.367 1053 Q99.5798 1054.9 97.4734 1057.49 Q96.8947 1058.16 93.7928 1061.38 Q90.691 1064.57 85.0429 1070.34 Z" fill="#000000" fill-rule="nonzero" fill-opacity="1" /><path clip-path="url(#clip260)" d="M111.223 1039.71 L129.58 1039.71 L129.58 1043.65 L115.506 1043.65 L115.506 1052.12 Q116.524 1051.77 117.543 1051.61 Q118.561 1051.43 119.58 1051.43 Q125.367 1051.43 128.746 1054.6 Q132.126 1057.77 132.126 1063.18 Q132.126 1068.76 128.654 1071.87 Q125.182 1074.94 118.862 1074.94 Q116.686 1074.94 114.418 1074.57 Q112.172 1074.2 109.765 1073.46 L109.765 1068.76 Q111.848 1069.9 114.07 1070.45 Q116.293 1071.01 118.77 1071.01 Q122.774 1071.01 125.112 1068.9 Q127.45 1066.8 127.45 1063.18 Q127.45 1059.57 125.112 1057.47 Q122.774 1055.36 118.77 1055.36 Q116.895 1055.36 115.02 1055.78 Q113.168 1056.19 111.223 1057.07 L111.223 1039.71 Z" fill="#000000" fill-rule="nonzero" fill-opacity="1" /><path clip-path="url(#clip260)" d="M151.339 1042.79 Q147.728 1042.79 145.899 1046.36 Q144.093 1049.9 144.093 1057.03 Q144.093 1064.13 145.899 1067.7 Q147.728 1071.24 151.339 1071.24 Q154.973 1071.24 156.779 1067.7 Q158.607 1064.13 158.607 1057.03 Q158.607 1049.9 156.779 1046.36 Q154.973 1042.79 151.339 1042.79 M151.339 1039.09 Q157.149 1039.09 160.205 1043.69 Q163.283 1048.28 163.283 1057.03 Q163.283 1065.75 160.205 1070.36 Q157.149 1074.94 151.339 1074.94 Q145.529 1074.94 142.45 1070.36 Q139.394 1065.75 139.394 1057.03 Q139.394 1048.28 142.45 1043.69 Q145.529 1039.09 151.339 1039.09 Z" fill="#000000" fill-rule="nonzero" fill-opacity="1" /><path clip-path="url(#clip260)" d="M81.0614 715.678 L99.4178 715.678 L99.4178 719.613 L85.3438 719.613 L85.3438 728.086 Q86.3623 727.738 87.3808 727.576 Q88.3993 727.391 89.4178 727.391 Q95.2049 727.391 98.5845 730.562 Q101.964 733.734 101.964 739.15 Q101.964 744.729 98.4919 747.831 Q95.0197 750.91 88.7003 750.91 Q86.5243 750.91 84.2558 750.539 Q82.0105 750.169 79.6031 749.428 L79.6031 744.729 Q81.6864 745.863 83.9086 746.419 Q86.1308 746.974 88.6077 746.974 Q92.6123 746.974 94.9502 744.868 Q97.2882 742.761 97.2882 739.15 Q97.2882 735.539 94.9502 733.433 Q92.6123 731.326 88.6077 731.326 Q86.7327 731.326 84.8577 731.743 Q83.0058 732.16 81.0614 733.039 L81.0614 715.678 Z" fill="#000000" fill-rule="nonzero" fill-opacity="1" /><path clip-path="url(#clip260)" d="M121.177 718.757 Q117.566 718.757 115.737 722.322 Q113.932 725.863 113.932 732.993 Q113.932 740.099 115.737 743.664 Q117.566 747.206 121.177 747.206 Q124.811 747.206 126.617 743.664 Q128.445 740.099 128.445 732.993 Q128.445 725.863 126.617 722.322 Q124.811 718.757 121.177 718.757 M121.177 715.053 Q126.987 715.053 130.043 719.66 Q133.121 724.243 133.121 732.993 Q133.121 741.72 130.043 746.326 Q126.987 750.91 121.177 750.91 Q115.367 750.91 112.288 746.326 Q109.233 741.72 109.233 732.993 Q109.233 724.243 112.288 719.66 Q115.367 715.053 121.177 715.053 Z" fill="#000000" fill-rule="nonzero" fill-opacity="1" /><path clip-path="url(#clip260)" d="M151.339 718.757 Q147.728 718.757 145.899 722.322 Q144.093 725.863 144.093 732.993 Q144.093 740.099 145.899 743.664 Q147.728 747.206 151.339 747.206 Q154.973 747.206 156.779 743.664 Q158.607 740.099 158.607 732.993 Q158.607 725.863 156.779 722.322 Q154.973 718.757 151.339 718.757 M151.339 715.053 Q157.149 715.053 160.205 719.66 Q163.283 724.243 163.283 732.993 Q163.283 741.72 160.205 746.326 Q157.149 750.91 151.339 750.91 Q145.529 750.91 142.45 746.326 Q139.394 741.72 139.394 732.993 Q139.394 724.243 142.45 719.66 Q145.529 715.053 151.339 715.053 Z" fill="#000000" fill-rule="nonzero" fill-opacity="1" /><path clip-path="url(#clip260)" d="M79.8346 391.644 L102.057 391.644 L102.057 393.635 L89.5104 426.204 L84.6262 426.204 L96.4317 395.579 L79.8346 395.579 L79.8346 391.644 Z" fill="#000000" fill-rule="nonzero" fill-opacity="1" /><path clip-path="url(#clip260)" d="M111.223 391.644 L129.58 391.644 L129.58 395.579 L115.506 395.579 L115.506 404.051 Q116.524 403.704 117.543 403.542 Q118.561 403.357 119.58 403.357 Q125.367 403.357 128.746 406.528 Q132.126 409.699 132.126 415.116 Q132.126 420.695 128.654 423.797 Q125.182 426.875 118.862 426.875 Q116.686 426.875 114.418 426.505 Q112.172 426.134 109.765 425.394 L109.765 420.695 Q111.848 421.829 114.07 422.384 Q116.293 422.94 118.77 422.94 Q122.774 422.94 125.112 420.834 Q127.45 418.727 127.45 415.116 Q127.45 411.505 125.112 409.398 Q122.774 407.292 118.77 407.292 Q116.895 407.292 115.02 407.709 Q113.168 408.125 111.223 409.005 L111.223 391.644 Z" fill="#000000" fill-rule="nonzero" fill-opacity="1" /><path clip-path="url(#clip260)" d="M151.339 394.723 Q147.728 394.723 145.899 398.287 Q144.093 401.829 144.093 408.959 Q144.093 416.065 145.899 419.63 Q147.728 423.172 151.339 423.172 Q154.973 423.172 156.779 419.63 Q158.607 416.065 158.607 408.959 Q158.607 401.829 156.779 398.287 Q154.973 394.723 151.339 394.723 M151.339 391.019 Q157.149 391.019 160.205 395.625 Q163.283 400.209 163.283 408.959 Q163.283 417.685 160.205 422.292 Q157.149 426.875 151.339 426.875 Q145.529 426.875 142.45 422.292 Q139.394 417.685 139.394 408.959 Q139.394 400.209 142.45 395.625 Q145.529 391.019 151.339 391.019 Z" fill="#000000" fill-rule="nonzero" fill-opacity="1" /><path clip-path="url(#clip260)" d="M51.6634 98.2344 L59.3023 98.2344 L59.3023 71.8688 L50.9921 73.5354 L50.9921 69.2762 L59.256 67.6095 L63.9319 67.6095 L63.9319 98.2344 L71.5707 98.2344 L71.5707 102.17 L51.6634 102.17 L51.6634 98.2344 Z" fill="#000000" fill-rule="nonzero" fill-opacity="1" /><path clip-path="url(#clip260)" d="M91.0151 70.6882 Q87.404 70.6882 85.5753 74.253 Q83.7697 77.7947 83.7697 84.9243 Q83.7697 92.0307 85.5753 95.5955 Q87.404 99.1371 91.0151 99.1371 Q94.6493 99.1371 96.4548 95.5955 Q98.2835 92.0307 98.2835 84.9243 Q98.2835 77.7947 96.4548 74.253 Q94.6493 70.6882 91.0151 70.6882 M91.0151 66.9845 Q96.8252 66.9845 99.8808 71.591 Q102.959 76.1743 102.959 84.9243 Q102.959 93.6511 99.8808 98.2575 Q96.8252 102.841 91.0151 102.841 Q85.2049 102.841 82.1262 98.2575 Q79.0707 93.6511 79.0707 84.9243 Q79.0707 76.1743 82.1262 71.591 Q85.2049 66.9845 91.0151 66.9845 Z" fill="#000000" fill-rule="nonzero" fill-opacity="1" /><path clip-path="url(#clip260)" d="M121.177 70.6882 Q117.566 70.6882 115.737 74.253 Q113.932 77.7947 113.932 84.9243 Q113.932 92.0307 115.737 95.5955 Q117.566 99.1371 121.177 99.1371 Q124.811 99.1371 126.617 95.5955 Q128.445 92.0307 128.445 84.9243 Q128.445 77.7947 126.617 74.253 Q124.811 70.6882 121.177 70.6882 M121.177 66.9845 Q126.987 66.9845 130.043 71.591 Q133.121 76.1743 133.121 84.9243 Q133.121 93.6511 130.043 98.2575 Q126.987 102.841 121.177 102.841 Q115.367 102.841 112.288 98.2575 Q109.233 93.6511 109.233 84.9243 Q109.233 76.1743 112.288 71.591 Q115.367 66.9845 121.177 66.9845 Z" fill="#000000" fill-rule="nonzero" fill-opacity="1" /><path clip-path="url(#clip260)" d="M151.339 70.6882 Q147.728 70.6882 145.899 74.253 Q144.093 77.7947 144.093 84.9243 Q144.093 92.0307 145.899 95.5955 Q147.728 99.1371 151.339 99.1371 Q154.973 99.1371 156.779 95.5955 Q158.607 92.0307 158.607 84.9243 Q158.607 77.7947 156.779 74.253 Q154.973 70.6882 151.339 70.6882 M151.339 66.9845 Q157.149 66.9845 160.205 71.591 Q163.283 76.1743 163.283 84.9243 Q163.283 93.6511 160.205 98.2575 Q157.149 102.841 151.339 102.841 Q145.529 102.841 142.45 98.2575 Q139.394 93.6511 139.394 84.9243 Q139.394 76.1743 142.45 71.591 Q145.529 66.9845 151.339 66.9845 Z" fill="#000000" fill-rule="nonzero" fill-opacity="1" /><polyline clip-path="url(#clip262)" style="stroke:#009af9; stroke-linecap:round; stroke-linejoin:round; stroke-width:8; stroke-opacity:1; fill:none" points="199.283,86.1857 199.35,86.1857 199.426,86.1857 199.511,86.1857 199.607,86.1857 199.715,86.1857 199.836,86.1857 199.972,86.1857 200.125,86.1857 200.298,86.1857 200.492,86.1857 200.71,86.1857 200.956,86.1857 201.232,86.1857 201.543,86.1857 201.892,86.1857 202.286,86.1857 202.728,86.1857 203.226,86.1857 203.786,86.1857 204.417,86.1857 205.125,86.1857 205.923,86.1857 206.82,86.1857 207.829,86.1857 208.965,86.1857 210.242,86.1857 211.68,86.1857 213.296,86.1857 215.115,86.1857 217.161,86.1857 219.463,86.1857 222.053,86.1857 224.967,86.1857 228.244,86.1857 231.932,86.1857 236.08,86.1857 240.747,86.1857 245.997,86.1857 251.903,86.1857 258.548,86.1857 266.023,86.1857 274.433,86.1857 283.894,86.1857 294.538,86.1857 306.512,86.1857 319.982,86.1857 335.137,86.1857 335.498,86.1857 335.904,87.4818 336.361,87.4818 336.875,87.4818 337.453,87.4818 338.104,87.4818 338.835,87.4818 339.659,87.4818 340.585,87.4818 341.627,87.4818 342.799,87.4818 344.118,87.4818 345.602,87.4818 347.271,87.4818 349.148,87.4818 351.261,87.4818 353.637,87.4818 356.311,87.4818 359.318,87.4818 362.702,87.4818 366.508,87.4818 370.791,87.4818 374.81,87.4818 379.332,87.4818 384.418,87.4818 390.141,87.4818 396.579,87.4818 403.822,87.4818 411.97,87.4818 421.136,87.4818 431.449,87.4818 443.05,87.4818 456.102,87.4818 470.785,87.4818 487.303,87.4818 505.886,87.4818 515.656,87.4818 526.647,87.4818 539.013,87.4818 552.923,87.4818 568.573,87.4818 586.179,87.4818 605.986,87.4818 628.268,87.4818 653.336,87.4818 681.537,87.4818 713.263,87.4818 748.483,87.4818 788.105,87.4818 830.077,87.4818 874.198,87.4818 923.834,87.4818 964.82,87.4818 993.772,87.4818 1039.88,87.4818 1091.75,87.4818 1150.11,87.4818 1215.76,87.4818 1289.62,87.4818 1342.07,87.4818 1401.07,87.4818 1455.54,87.4818 1516.82,87.4818 1585.76,87.4818 1663.32,87.4818 1750.57,87.4818 1848.73,87.4818 1957.9,87.4818 2080.71,87.4818 2209.96,87.4818 2352.76,87.4818 "/>
<polyline clip-path="url(#clip262)" style="stroke:#e26f46; stroke-linecap:round; stroke-linejoin:round; stroke-width:8; stroke-opacity:1; fill:none" points="199.283,1379.73 199.35,1379.73 199.426,1379.73 199.511,1379.73 199.607,1379.73 199.715,1379.73 199.836,1379.73 199.972,1379.73 200.125,1379.73 200.298,1379.73 200.492,1379.73 200.71,1379.73 200.956,1379.73 201.232,1379.73 201.543,1379.73 201.892,1379.73 202.286,1379.73 202.728,1379.73 203.226,1379.73 203.786,1379.73 204.417,1379.73 205.125,1379.73 205.923,1379.73 206.82,1379.73 207.829,1379.73 208.965,1379.73 210.242,1379.73 211.68,1379.73 213.296,1379.73 215.115,1379.73 217.161,1379.73 219.463,1379.73 222.053,1379.73 224.967,1379.73 228.244,1379.73 231.932,1379.73 236.08,1379.73 240.747,1379.73 245.997,1379.73 251.903,1379.73 258.548,1379.73 266.023,1379.73 274.433,1379.73 283.894,1379.73 294.538,1379.73 306.512,1379.73 319.982,1379.73 335.137,1379.73 335.498,1379.73 335.904,1378.43 336.361,1378.43 336.875,1378.43 337.453,1378.43 338.104,1378.43 338.835,1378.43 339.659,1378.43 340.585,1378.43 341.627,1378.43 342.799,1378.43 344.118,1378.43 345.602,1378.43 347.271,1378.43 349.148,1378.43 351.261,1378.43 353.637,1378.43 356.311,1378.43 359.318,1378.43 362.702,1378.43 366.508,1378.43 370.791,1378.43 374.81,1378.43 379.332,1379.73 384.418,1379.73 390.141,1379.73 396.579,1379.73 403.822,1379.73 411.97,1379.73 421.136,1379.73 431.449,1379.73 443.05,1379.73 456.102,1379.73 470.785,1379.73 487.303,1379.73 505.886,1379.73 515.656,1379.73 526.647,1381.03 539.013,1381.03 552.923,1381.03 568.573,1381.03 586.179,1381.03 605.986,1381.03 628.268,1381.03 653.336,1381.03 681.537,1381.03 713.263,1381.03 748.483,1381.03 788.105,1381.03 830.077,1381.03 874.198,1381.03 923.834,1381.03 964.82,1381.03 993.772,1381.03 1039.88,1379.73 1091.75,1379.73 1150.11,1379.73 1215.76,1379.73 1289.62,1379.73 1342.07,1379.73 1401.07,1379.73 1455.54,1379.73 1516.82,1379.73 1585.76,1379.73 1663.32,1379.73 1750.57,1379.73 1848.73,1379.73 1957.9,1379.73 2080.71,1379.73 2209.96,1379.73 2352.76,1379.73 "/>
<polyline clip-path="url(#clip262)" style="stroke:#3da44d; stroke-linecap:round; stroke-linejoin:round; stroke-width:8; stroke-opacity:1; fill:none" points="199.283,1381.03 199.35,1381.03 199.426,1381.03 199.511,1381.03 199.607,1381.03 199.715,1381.03 199.836,1381.03 199.972,1381.03 200.125,1381.03 200.298,1381.03 200.492,1381.03 200.71,1381.03 200.956,1381.03 201.232,1381.03 201.543,1381.03 201.892,1381.03 202.286,1381.03 202.728,1381.03 203.226,1381.03 203.786,1381.03 204.417,1381.03 205.125,1381.03 205.923,1381.03 206.82,1381.03 207.829,1381.03 208.965,1381.03 210.242,1381.03 211.68,1381.03 213.296,1381.03 215.115,1381.03 217.161,1381.03 219.463,1381.03 222.053,1381.03 224.967,1381.03 228.244,1381.03 231.932,1381.03 236.08,1381.03 240.747,1381.03 245.997,1381.03 251.903,1381.03 258.548,1381.03 266.023,1381.03 274.433,1381.03 283.894,1381.03 294.538,1381.03 306.512,1381.03 319.982,1381.03 335.137,1381.03 335.498,1381.03 335.904,1381.03 336.361,1381.03 336.875,1381.03 337.453,1381.03 338.104,1381.03 338.835,1381.03 339.659,1381.03 340.585,1381.03 341.627,1381.03 342.799,1381.03 344.118,1381.03 345.602,1381.03 347.271,1381.03 349.148,1381.03 351.261,1381.03 353.637,1381.03 356.311,1381.03 359.318,1381.03 362.702,1381.03 366.508,1381.03 370.791,1381.03 374.81,1381.03 379.332,1379.73 384.418,1379.73 390.141,1379.73 396.579,1379.73 403.822,1379.73 411.97,1379.73 421.136,1379.73 431.449,1379.73 443.05,1379.73 456.102,1379.73 470.785,1379.73 487.303,1379.73 505.886,1379.73 515.656,1379.73 526.647,1378.43 539.013,1378.43 552.923,1378.43 568.573,1378.43 586.179,1378.43 605.986,1378.43 628.268,1378.43 653.336,1378.43 681.537,1378.43 713.263,1378.43 748.483,1378.43 788.105,1378.43 830.077,1378.43 874.198,1378.43 923.834,1378.43 964.82,1378.43 993.772,1378.43 1039.88,1378.43 1091.75,1378.43 1150.11,1378.43 1215.76,1378.43 1289.62,1378.43 1342.07,1378.43 1401.07,1378.43 1455.54,1378.43 1516.82,1378.43 1585.76,1378.43 1663.32,1378.43 1750.57,1378.43 1848.73,1378.43 1957.9,1378.43 2080.71,1378.43 2209.96,1378.43 2352.76,1378.43 "/>
<polyline clip-path="url(#clip262)" style="stroke:#c271d2; stroke-linecap:round; stroke-linejoin:round; stroke-width:8; stroke-opacity:1; fill:none" points="199.283,1379.73 199.35,1379.73 199.426,1379.75 199.511,1379.75 199.607,1379.74 199.715,1379.74 199.836,1379.72 199.972,1379.71 200.125,1379.73 200.298,1379.7 200.492,1379.73 200.71,1379.71 200.956,1379.75 201.232,1379.76 201.543,1379.76 201.892,1379.73 202.286,1379.73 202.728,1379.8 203.226,1379.8 203.786,1379.79 204.417,1379.74 205.125,1379.66 205.923,1379.7 206.82,1379.69 207.829,1379.72 208.965,1379.75 210.242,1379.77 211.68,1379.8 213.296,1379.79 215.115,1379.78 217.161,1379.78 219.463,1379.77 222.053,1379.82 224.967,1379.79 228.244,1379.7 231.932,1379.81 236.08,1379.92 240.747,1379.86 245.997,1379.69 251.903,1379.64 258.548,1379.61 266.023,1379.62 274.433,1379.78 283.894,1380.01 294.538,1379.92 306.512,1380.06 319.982,1380.14 335.137,1380.19 335.498,1380.19 335.904,1380.19 336.361,1380.19 336.875,1380.19 337.453,1380.17 338.104,1380.2 338.835,1380.23 339.659,1380.26 340.585,1380.27 341.627,1380.32 342.799,1380.33 344.118,1380.32 345.602,1380.31 347.271,1380.35 349.148,1380.4 351.261,1380.45 353.637,1380.47 356.311,1380.51 359.318,1380.5 362.702,1380.43 366.508,1380.39 370.791,1380.38 374.81,1380.35 379.332,1380.42 384.418,1380.44 390.141,1380.43 396.579,1380.4 403.822,1380.4 411.97,1380.31 421.136,1380.19 431.449,1380.17 443.05,1380.12 456.102,1380.21 470.785,1380.3 487.303,1380.17 505.886,1380.37 515.656,1380.41 526.647,1380.48 539.013,1380.57 552.923,1380.53 568.573,1380.63 586.179,1380.58 605.986,1380.55 628.268,1380.56 653.336,1380.59 681.537,1380.52 713.263,1380.56 748.483,1380.5 788.105,1380.42 830.077,1380.46 874.198,1380.12 923.834,1380.3 964.82,1380.4 993.772,1380.49 1039.88,1380.59 1091.75,1380.67 1150.11,1380.79 1215.76,1380.65 1289.62,1380.66 1342.07,1380.62 1401.07,1380.77 1455.54,1380.83 1516.82,1380.77 1585.76,1380.85 1663.32,1380.93 1750.57,1380.9 1848.73,1380.88 1957.9,1380.88 2080.71,1380.87 2209.96,1380.89 2352.76,1380.89 "/>
<polyline clip-path="url(#clip262)" style="stroke:#ac8d18; stroke-linecap:round; stroke-linejoin:round; stroke-width:8; stroke-opacity:1; fill:none" points="199.283,1381.67 199.35,1381.67 199.426,1381.67 199.511,1381.67 199.607,1381.67 199.715,1381.67 199.836,1381.67 199.972,1381.67 200.125,1381.66 200.298,1381.66 200.492,1381.66 200.71,1381.66 200.956,1381.66 201.232,1381.66 201.543,1381.66 201.892,1381.66 202.286,1381.66 202.728,1381.66 203.226,1381.66 203.786,1381.66 204.417,1381.66 205.125,1381.66 205.923,1381.66 206.82,1381.65 207.829,1381.65 208.965,1381.65 210.242,1381.65 211.68,1381.65 213.296,1381.65 215.115,1381.64 217.161,1381.64 219.463,1381.64 222.053,1381.63 224.967,1381.63 228.244,1381.62 231.932,1381.62 236.08,1381.61 240.747,1381.61 245.997,1381.6 251.903,1381.59 258.548,1381.58 266.023,1381.57 274.433,1381.55 283.894,1381.54 294.538,1381.53 306.512,1381.51 319.982,1381.5 335.137,1381.48 335.498,1381.48 335.904,1381.48 336.361,1381.48 336.875,1381.48 337.453,1381.48 338.104,1381.48 338.835,1381.48 339.659,1381.48 340.585,1381.48 341.627,1381.48 342.799,1381.48 344.118,1381.48 345.602,1381.47 347.271,1381.47 349.148,1381.47 351.261,1381.47 353.637,1381.47 356.311,1381.47 359.318,1381.46 362.702,1381.46 366.508,1381.46 370.791,1381.46 374.81,1381.45 379.332,1381.45 384.418,1381.45 390.141,1381.44 396.579,1381.44 403.822,1381.43 411.97,1381.43 421.136,1381.42 431.449,1381.41 443.05,1381.4 456.102,1381.38 470.785,1381.37 487.303,1381.36 505.886,1381.34 515.656,1381.33 526.647,1381.33 539.013,1381.32 552.923,1381.31 568.573,1381.3 586.179,1381.29 605.986,1381.28 628.268,1381.27 653.336,1381.26 681.537,1381.24 713.263,1381.22 748.483,1381.2 788.105,1381.18 830.077,1381.15 874.198,1381.12 923.834,1381.08 964.82,1381.05 993.772,1381.03 1039.88,1384.24 1091.75,1384.22 1150.11,1384.2 1215.76,1384.17 1289.62,1384.14 1342.07,1384.12 1401.07,1384.1 1455.54,1384.09 1516.82,1384.07 1585.76,1384.06 1663.32,1384.04 1750.57,1384.03 1848.73,1384.02 1957.9,1384 2080.71,1383.98 2209.96,1383.96 2352.76,1383.93 "/>
<path clip-path="url(#clip260)" d="M1969.1 404.149 L2280.97 404.149 L2280.97 93.1086 L1969.1 93.1086  Z" fill="#ffffff" fill-rule="evenodd" fill-opacity="1"/>
<polyline clip-path="url(#clip260)" style="stroke:#000000; stroke-linecap:round; stroke-linejoin:round; stroke-width:4; stroke-opacity:1; fill:none" points="1969.1,404.149 2280.97,404.149 2280.97,93.1086 1969.1,93.1086 1969.1,404.149 "/>
<polyline clip-path="url(#clip260)" style="stroke:#009af9; stroke-linecap:round; stroke-linejoin:round; stroke-width:8; stroke-opacity:1; fill:none" points="1993.03,144.949 2136.59,144.949 "/>
<path clip-path="url(#clip260)" d="M2182.76 128.803 L2182.76 133.363 Q2180.1 132.09 2177.74 131.465 Q2175.38 130.84 2173.18 130.84 Q2169.36 130.84 2167.28 132.321 Q2165.22 133.803 2165.22 136.534 Q2165.22 138.826 2166.58 140.007 Q2167.97 141.164 2171.81 141.882 L2174.64 142.46 Q2179.87 143.456 2182.35 145.979 Q2184.85 148.479 2184.85 152.692 Q2184.85 157.715 2181.47 160.307 Q2178.11 162.9 2171.61 162.9 Q2169.15 162.9 2166.38 162.344 Q2163.62 161.789 2160.66 160.701 L2160.66 155.886 Q2163.5 157.483 2166.24 158.293 Q2168.97 159.104 2171.61 159.104 Q2175.61 159.104 2177.79 157.53 Q2179.96 155.956 2179.96 153.039 Q2179.96 150.493 2178.39 149.057 Q2176.84 147.622 2173.27 146.905 L2170.43 146.349 Q2165.19 145.307 2162.86 143.085 Q2160.52 140.863 2160.52 136.905 Q2160.52 132.321 2163.74 129.682 Q2166.98 127.044 2172.65 127.044 Q2175.08 127.044 2177.6 127.483 Q2180.13 127.923 2182.76 128.803 Z" fill="#000000" fill-rule="nonzero" fill-opacity="1" /><path clip-path="url(#clip260)" d="M2202.19 126.257 Q2199.08 131.581 2197.58 136.789 Q2196.07 141.997 2196.07 147.344 Q2196.07 152.692 2197.58 157.946 Q2199.11 163.178 2202.19 168.479 L2198.48 168.479 Q2195.01 163.039 2193.27 157.784 Q2191.56 152.53 2191.56 147.344 Q2191.56 142.182 2193.27 136.951 Q2194.99 131.72 2198.48 126.257 L2202.19 126.257 Z" fill="#000000" fill-rule="nonzero" fill-opacity="1" /><path clip-path="url(#clip260)" d="M2214.66 128.942 L2214.66 136.303 L2223.44 136.303 L2223.44 139.613 L2214.66 139.613 L2214.66 153.687 Q2214.66 156.858 2215.52 157.761 Q2216.4 158.664 2219.06 158.664 L2223.44 158.664 L2223.44 162.229 L2219.06 162.229 Q2214.13 162.229 2212.25 160.4 Q2210.38 158.548 2210.38 153.687 L2210.38 139.613 L2207.25 139.613 L2207.25 136.303 L2210.38 136.303 L2210.38 128.942 L2214.66 128.942 Z" fill="#000000" fill-rule="nonzero" fill-opacity="1" /><path clip-path="url(#clip260)" d="M2228.37 126.257 L2232.07 126.257 Q2235.54 131.72 2237.25 136.951 Q2238.99 142.182 2238.99 147.344 Q2238.99 152.53 2237.25 157.784 Q2235.54 163.039 2232.07 168.479 L2228.37 168.479 Q2231.44 163.178 2232.95 157.946 Q2234.48 152.692 2234.48 147.344 Q2234.48 141.997 2232.95 136.789 Q2231.44 131.581 2228.37 126.257 Z" fill="#000000" fill-rule="nonzero" fill-opacity="1" /><polyline clip-path="url(#clip260)" style="stroke:#e26f46; stroke-linecap:round; stroke-linejoin:round; stroke-width:8; stroke-opacity:1; fill:none" points="1993.03,196.789 2136.59,196.789 "/>
<path clip-path="url(#clip260)" d="M2160.52 179.509 L2165.19 179.509 L2165.19 214.069 L2160.52 214.069 L2160.52 179.509 Z" fill="#000000" fill-rule="nonzero" fill-opacity="1" /><path clip-path="url(#clip260)" d="M2184.55 178.097 Q2181.44 183.421 2179.94 188.629 Q2178.44 193.837 2178.44 199.184 Q2178.44 204.532 2179.94 209.786 Q2181.47 215.018 2184.55 220.319 L2180.84 220.319 Q2177.37 214.879 2175.63 209.624 Q2173.92 204.37 2173.92 199.184 Q2173.92 194.022 2175.63 188.791 Q2177.35 183.56 2180.84 178.097 L2184.55 178.097 Z" fill="#000000" fill-rule="nonzero" fill-opacity="1" /><path clip-path="url(#clip260)" d="M2197.02 180.782 L2197.02 188.143 L2205.8 188.143 L2205.8 191.453 L2197.02 191.453 L2197.02 205.527 Q2197.02 208.698 2197.88 209.601 Q2198.76 210.504 2201.42 210.504 L2205.8 210.504 L2205.8 214.069 L2201.42 214.069 Q2196.49 214.069 2194.62 212.24 Q2192.74 210.388 2192.74 205.527 L2192.74 191.453 L2189.62 191.453 L2189.62 188.143 L2192.74 188.143 L2192.74 180.782 L2197.02 180.782 Z" fill="#000000" fill-rule="nonzero" fill-opacity="1" /><path clip-path="url(#clip260)" d="M2210.73 178.097 L2214.43 178.097 Q2217.9 183.56 2219.62 188.791 Q2221.35 194.022 2221.35 199.184 Q2221.35 204.37 2219.62 209.624 Q2217.9 214.879 2214.43 220.319 L2210.73 220.319 Q2213.81 215.018 2215.31 209.786 Q2216.84 204.532 2216.84 199.184 Q2216.84 193.837 2215.31 188.629 Q2213.81 183.421 2210.73 178.097 Z" fill="#000000" fill-rule="nonzero" fill-opacity="1" /><polyline clip-path="url(#clip260)" style="stroke:#3da44d; stroke-linecap:round; stroke-linejoin:round; stroke-width:8; stroke-opacity:1; fill:none" points="1993.03,248.629 2136.59,248.629 "/>
<path clip-path="url(#clip260)" d="M2176.91 249.705 Q2178.41 250.214 2179.82 251.881 Q2181.26 253.548 2182.69 256.464 L2187.44 265.909 L2182.42 265.909 L2178 257.043 Q2176.28 253.571 2174.66 252.436 Q2173.06 251.302 2170.29 251.302 L2165.19 251.302 L2165.19 265.909 L2160.52 265.909 L2160.52 231.349 L2171.07 231.349 Q2177 231.349 2179.92 233.825 Q2182.83 236.302 2182.83 241.302 Q2182.83 244.566 2181.31 246.719 Q2179.8 248.872 2176.91 249.705 M2165.19 235.191 L2165.19 247.46 L2171.07 247.46 Q2174.45 247.46 2176.17 245.909 Q2177.9 244.335 2177.9 241.302 Q2177.9 238.27 2176.17 236.742 Q2174.45 235.191 2171.07 235.191 L2165.19 235.191 Z" fill="#000000" fill-rule="nonzero" fill-opacity="1" /><path clip-path="url(#clip260)" d="M2203.5 229.937 Q2200.4 235.261 2198.9 240.469 Q2197.39 245.677 2197.39 251.024 Q2197.39 256.372 2198.9 261.626 Q2200.43 266.858 2203.5 272.159 L2199.8 272.159 Q2196.33 266.719 2194.59 261.464 Q2192.88 256.21 2192.88 251.024 Q2192.88 245.862 2194.59 240.631 Q2196.31 235.4 2199.8 229.937 L2203.5 229.937 Z" fill="#000000" fill-rule="nonzero" fill-opacity="1" /><path clip-path="url(#clip260)" d="M2215.98 232.622 L2215.98 239.983 L2224.75 239.983 L2224.75 243.293 L2215.98 243.293 L2215.98 257.367 Q2215.98 260.538 2216.84 261.441 Q2217.72 262.344 2220.38 262.344 L2224.75 262.344 L2224.75 265.909 L2220.38 265.909 Q2215.45 265.909 2213.57 264.08 Q2211.7 262.228 2211.7 257.367 L2211.7 243.293 L2208.57 243.293 L2208.57 239.983 L2211.7 239.983 L2211.7 232.622 L2215.98 232.622 Z" fill="#000000" fill-rule="nonzero" fill-opacity="1" /><path clip-path="url(#clip260)" d="M2229.69 229.937 L2233.39 229.937 Q2236.86 235.4 2238.57 240.631 Q2240.31 245.862 2240.31 251.024 Q2240.31 256.21 2238.57 261.464 Q2236.86 266.719 2233.39 272.159 L2229.69 272.159 Q2232.76 266.858 2234.27 261.626 Q2235.8 256.372 2235.8 251.024 Q2235.8 245.677 2234.27 240.469 Q2232.76 235.261 2229.69 229.937 Z" fill="#000000" fill-rule="nonzero" fill-opacity="1" /><polyline clip-path="url(#clip260)" style="stroke:#c271d2; stroke-linecap:round; stroke-linejoin:round; stroke-width:8; stroke-opacity:1; fill:none" points="1993.03,300.469 2136.59,300.469 "/>
<path clip-path="url(#clip260)" d="M2160.52 307.517 L2160.52 291.823 L2164.78 291.823 L2164.78 307.355 Q2164.78 311.036 2166.21 312.888 Q2167.65 314.716 2170.52 314.716 Q2173.97 314.716 2175.96 312.517 Q2177.97 310.318 2177.97 306.522 L2177.97 291.823 L2182.23 291.823 L2182.23 317.749 L2177.97 317.749 L2177.97 313.767 Q2176.42 316.128 2174.36 317.286 Q2172.32 318.42 2169.62 318.42 Q2165.15 318.42 2162.83 315.642 Q2160.52 312.864 2160.52 307.517 M2171.24 291.198 L2171.24 291.198 Z" fill="#000000" fill-rule="nonzero" fill-opacity="1" /><path clip-path="url(#clip260)" d="M2197.58 301.221 L2190.43 310.92 L2197.58 310.92 L2197.58 301.221 M2197.07 298.42 L2200.91 298.42 L2200.91 310.92 L2204.04 310.92 L2204.04 313.443 L2200.91 313.443 L2200.91 317.749 L2197.58 317.749 L2197.58 313.443 L2188 313.443 L2188 310.642 L2197.07 298.42 Z" fill="#000000" fill-rule="nonzero" fill-opacity="1" /><path clip-path="url(#clip260)" d="M2220.24 281.777 Q2217.14 287.101 2215.63 292.309 Q2214.13 297.517 2214.13 302.864 Q2214.13 308.212 2215.63 313.466 Q2217.16 318.698 2220.24 323.999 L2216.54 323.999 Q2213.06 318.559 2211.33 313.304 Q2209.62 308.05 2209.62 302.864 Q2209.62 297.702 2211.33 292.471 Q2213.04 287.24 2216.54 281.777 L2220.24 281.777 Z" fill="#000000" fill-rule="nonzero" fill-opacity="1" /><path clip-path="url(#clip260)" d="M2232.72 284.462 L2232.72 291.823 L2241.49 291.823 L2241.49 295.133 L2232.72 295.133 L2232.72 309.207 Q2232.72 312.378 2233.57 313.281 Q2234.45 314.184 2237.12 314.184 L2241.49 314.184 L2241.49 317.749 L2237.12 317.749 Q2232.19 317.749 2230.31 315.92 Q2228.44 314.068 2228.44 309.207 L2228.44 295.133 L2225.31 295.133 L2225.31 291.823 L2228.44 291.823 L2228.44 284.462 L2232.72 284.462 Z" fill="#000000" fill-rule="nonzero" fill-opacity="1" /><path clip-path="url(#clip260)" d="M2246.42 281.777 L2250.12 281.777 Q2253.6 287.24 2255.31 292.471 Q2257.05 297.702 2257.05 302.864 Q2257.05 308.05 2255.31 313.304 Q2253.6 318.559 2250.12 323.999 L2246.42 323.999 Q2249.5 318.698 2251 313.466 Q2252.53 308.212 2252.53 302.864 Q2252.53 297.517 2251 292.309 Q2249.5 287.101 2246.42 281.777 Z" fill="#000000" fill-rule="nonzero" fill-opacity="1" /><polyline clip-path="url(#clip260)" style="stroke:#ac8d18; stroke-linecap:round; stroke-linejoin:round; stroke-width:8; stroke-opacity:1; fill:none" points="1993.03,352.309 2136.59,352.309 "/>
<path clip-path="url(#clip260)" d="M2182.76 336.163 L2182.76 340.723 Q2180.1 339.45 2177.74 338.825 Q2175.38 338.2 2173.18 338.2 Q2169.36 338.2 2167.28 339.681 Q2165.22 341.163 2165.22 343.894 Q2165.22 346.186 2166.58 347.367 Q2167.97 348.524 2171.81 349.242 L2174.64 349.82 Q2179.87 350.816 2182.35 353.339 Q2184.85 355.839 2184.85 360.052 Q2184.85 365.075 2181.47 367.667 Q2178.11 370.26 2171.61 370.26 Q2169.15 370.26 2166.38 369.704 Q2163.62 369.149 2160.66 368.061 L2160.66 363.246 Q2163.5 364.843 2166.24 365.653 Q2168.97 366.464 2171.61 366.464 Q2175.61 366.464 2177.79 364.89 Q2179.96 363.316 2179.96 360.399 Q2179.96 357.853 2178.39 356.417 Q2176.84 354.982 2173.27 354.265 L2170.43 353.709 Q2165.19 352.667 2162.86 350.445 Q2160.52 348.223 2160.52 344.265 Q2160.52 339.681 2163.74 337.042 Q2166.98 334.404 2172.65 334.404 Q2175.08 334.404 2177.6 334.843 Q2180.13 335.283 2182.76 336.163 Z" fill="#000000" fill-rule="nonzero" fill-opacity="1" /><path clip-path="url(#clip260)" d="M2202.19 333.617 Q2199.08 338.941 2197.58 344.149 Q2196.07 349.357 2196.07 354.704 Q2196.07 360.052 2197.58 365.306 Q2199.11 370.538 2202.19 375.839 L2198.48 375.839 Q2195.01 370.399 2193.27 365.144 Q2191.56 359.89 2191.56 354.704 Q2191.56 349.542 2193.27 344.311 Q2194.99 339.08 2198.48 333.617 L2202.19 333.617 Z" fill="#000000" fill-rule="nonzero" fill-opacity="1" /><path clip-path="url(#clip260)" d="M2214.66 336.302 L2214.66 343.663 L2223.44 343.663 L2223.44 346.973 L2214.66 346.973 L2214.66 361.047 Q2214.66 364.218 2215.52 365.121 Q2216.4 366.024 2219.06 366.024 L2223.44 366.024 L2223.44 369.589 L2219.06 369.589 Q2214.13 369.589 2212.25 367.76 Q2210.38 365.908 2210.38 361.047 L2210.38 346.973 L2207.25 346.973 L2207.25 343.663 L2210.38 343.663 L2210.38 336.302 L2214.66 336.302 Z" fill="#000000" fill-rule="nonzero" fill-opacity="1" /><path clip-path="url(#clip260)" d="M2228.37 333.617 L2232.07 333.617 Q2235.54 339.08 2237.25 344.311 Q2238.99 349.542 2238.99 354.704 Q2238.99 359.89 2237.25 365.144 Q2235.54 370.399 2232.07 375.839 L2228.37 375.839 Q2231.44 370.538 2232.95 365.306 Q2234.48 360.052 2234.48 354.704 Q2234.48 349.357 2232.95 344.149 Q2231.44 338.941 2228.37 333.617 Z" fill="#000000" fill-rule="nonzero" fill-opacity="1" /></svg>
