<?xml version="1.0" encoding="utf-8"?>
<svg xmlns="http://www.w3.org/2000/svg" xmlns:xlink="http://www.w3.org/1999/xlink" width="600" height="400" viewBox="0 0 2400 1600">
<defs>
  <clipPath id="clip810">
    <rect x="0" y="0" width="2400" height="1600"/>
  </clipPath>
</defs>
<path clip-path="url(#clip810)" d="M0 1600 L2400 1600 L2400 0 L0 0  Z" fill="#ffffff" fill-rule="evenodd" fill-opacity="1"/>
<defs>
  <clipPath id="clip811">
    <rect x="480" y="0" width="1681" height="1600"/>
  </clipPath>
</defs>
<path clip-path="url(#clip810)" d="M140.696 1423.18 L2352.76 1423.18 L2352.76 47.2441 L140.696 47.2441  Z" fill="#ffffff" fill-rule="evenodd" fill-opacity="1"/>
<defs>
  <clipPath id="clip812">
    <rect x="140" y="47" width="2213" height="1377"/>
  </clipPath>
</defs>
<polyline clip-path="url(#clip812)" style="stroke:#000000; stroke-linecap:round; stroke-linejoin:round; stroke-width:2; stroke-opacity:0.1; fill:none" points="140.696,1423.18 140.696,47.2441 "/>
<polyline clip-path="url(#clip812)" style="stroke:#000000; stroke-linecap:round; stroke-linejoin:round; stroke-width:2; stroke-opacity:0.1; fill:none" points="583.108,1423.18 583.108,47.2441 "/>
<polyline clip-path="url(#clip812)" style="stroke:#000000; stroke-linecap:round; stroke-linejoin:round; stroke-width:2; stroke-opacity:0.1; fill:none" points="1025.52,1423.18 1025.52,47.2441 "/>
<polyline clip-path="url(#clip812)" style="stroke:#000000; stroke-linecap:round; stroke-linejoin:round; stroke-width:2; stroke-opacity:0.1; fill:none" points="1467.93,1423.18 1467.93,47.2441 "/>
<polyline clip-path="url(#clip812)" style="stroke:#000000; stroke-linecap:round; stroke-linejoin:round; stroke-width:2; stroke-opacity:0.1; fill:none" points="1910.34,1423.18 1910.34,47.2441 "/>
<polyline clip-path="url(#clip812)" style="stroke:#000000; stroke-linecap:round; stroke-linejoin:round; stroke-width:2; stroke-opacity:0.1; fill:none" points="2352.76,1423.18 2352.76,47.2441 "/>
<polyline clip-path="url(#clip810)" style="stroke:#000000; stroke-linecap:round; stroke-linejoin:round; stroke-width:4; stroke-opacity:1; fill:none" points="140.696,1423.18 2352.76,1423.18 "/>
<polyline clip-path="url(#clip810)" style="stroke:#000000; stroke-linecap:round; stroke-linejoin:round; stroke-width:4; stroke-opacity:1; fill:none" points="140.696,1423.18 140.696,1404.28 "/>
<polyline clip-path="url(#clip810)" style="stroke:#000000; stroke-linecap:round; stroke-linejoin:round; stroke-width:4; stroke-opacity:1; fill:none" points="583.108,1423.18 583.108,1404.28 "/>
<polyline clip-path="url(#clip810)" style="stroke:#000000; stroke-linecap:round; stroke-linejoin:round; stroke-width:4; stroke-opacity:1; fill:none" points="1025.52,1423.18 1025.52,1404.28 "/>
<polyline clip-path="url(#clip810)" style="stroke:#000000; stroke-linecap:round; stroke-linejoin:round; stroke-width:4; stroke-opacity:1; fill:none" points="1467.93,1423.18 1467.93,1404.28 "/>
<polyline clip-path="url(#clip810)" style="stroke:#000000; stroke-linecap:round; stroke-linejoin:round; stroke-width:4; stroke-opacity:1; fill:none" points="1910.34,1423.18 1910.34,1404.28 "/>
<polyline clip-path="url(#clip810)" style="stroke:#000000; stroke-linecap:round; stroke-linejoin:round; stroke-width:4; stroke-opacity:1; fill:none" points="2352.76,1423.18 2352.76,1404.28 "/>
<path clip-path="url(#clip810)" d="M140.696 1454.1 Q137.084 1454.1 135.256 1457.66 Q133.45 1461.2 133.45 1468.33 Q133.45 1475.44 135.256 1479.01 Q137.084 1482.55 140.696 1482.55 Q144.33 1482.55 146.135 1479.01 Q147.964 1475.44 147.964 1468.33 Q147.964 1461.2 146.135 1457.66 Q144.33 1454.1 140.696 1454.1 M140.696 1450.39 Q146.506 1450.39 149.561 1455 Q152.64 1459.58 152.64 1468.33 Q152.64 1477.06 149.561 1481.67 Q146.506 1486.25 140.696 1486.25 Q134.885 1486.25 131.807 1481.67 Q128.751 1477.06 128.751 1468.33 Q128.751 1459.58 131.807 1455 Q134.885 1450.39 140.696 1450.39 Z" fill="#000000" fill-rule="nonzero" fill-opacity="1" /><path clip-path="url(#clip810)" d="M577.76 1481.64 L594.08 1481.64 L594.08 1485.58 L572.135 1485.58 L572.135 1481.64 Q574.797 1478.89 579.381 1474.26 Q583.987 1469.61 585.168 1468.27 Q587.413 1465.74 588.293 1464.01 Q589.196 1462.25 589.196 1460.56 Q589.196 1457.8 587.251 1456.07 Q585.33 1454.33 582.228 1454.33 Q580.029 1454.33 577.575 1455.09 Q575.145 1455.86 572.367 1457.41 L572.367 1452.69 Q575.191 1451.55 577.645 1450.97 Q580.098 1450.39 582.135 1450.39 Q587.506 1450.39 590.7 1453.08 Q593.895 1455.77 593.895 1460.26 Q593.895 1462.39 593.084 1464.31 Q592.297 1466.2 590.191 1468.8 Q589.612 1469.47 586.51 1472.69 Q583.409 1475.88 577.76 1481.64 Z" fill="#000000" fill-rule="nonzero" fill-opacity="1" /><path clip-path="url(#clip810)" d="M1028.53 1455.09 L1016.72 1473.54 L1028.53 1473.54 L1028.53 1455.09 M1027.3 1451.02 L1033.18 1451.02 L1033.18 1473.54 L1038.11 1473.54 L1038.11 1477.43 L1033.18 1477.43 L1033.18 1485.58 L1028.53 1485.58 L1028.53 1477.43 L1012.93 1477.43 L1012.93 1472.92 L1027.3 1451.02 Z" fill="#000000" fill-rule="nonzero" fill-opacity="1" /><path clip-path="url(#clip810)" d="M1468.34 1466.44 Q1465.19 1466.44 1463.34 1468.59 Q1461.51 1470.74 1461.51 1474.49 Q1461.51 1478.22 1463.34 1480.39 Q1465.19 1482.55 1468.34 1482.55 Q1471.48 1482.55 1473.31 1480.39 Q1475.17 1478.22 1475.17 1474.49 Q1475.17 1470.74 1473.31 1468.59 Q1471.48 1466.44 1468.34 1466.44 M1477.62 1451.78 L1477.62 1456.04 Q1475.86 1455.21 1474.05 1454.77 Q1472.27 1454.33 1470.51 1454.33 Q1465.88 1454.33 1463.43 1457.45 Q1461 1460.58 1460.65 1466.9 Q1462.02 1464.89 1464.08 1463.82 Q1466.14 1462.73 1468.61 1462.73 Q1473.82 1462.73 1476.83 1465.9 Q1479.86 1469.05 1479.86 1474.49 Q1479.86 1479.82 1476.72 1483.03 Q1473.57 1486.25 1468.34 1486.25 Q1462.34 1486.25 1459.17 1481.67 Q1456 1477.06 1456 1468.33 Q1456 1460.14 1459.89 1455.28 Q1463.78 1450.39 1470.33 1450.39 Q1472.09 1450.39 1473.87 1450.74 Q1475.67 1451.09 1477.62 1451.78 Z" fill="#000000" fill-rule="nonzero" fill-opacity="1" /><path clip-path="url(#clip810)" d="M1910.34 1469.17 Q1907.01 1469.17 1905.09 1470.95 Q1903.19 1472.73 1903.19 1475.86 Q1903.19 1478.98 1905.09 1480.77 Q1907.01 1482.55 1910.34 1482.55 Q1913.68 1482.55 1915.6 1480.77 Q1917.52 1478.96 1917.52 1475.86 Q1917.52 1472.73 1915.6 1470.95 Q1913.7 1469.17 1910.34 1469.17 M1905.67 1467.18 Q1902.66 1466.44 1900.97 1464.38 Q1899.3 1462.32 1899.3 1459.35 Q1899.3 1455.21 1902.24 1452.8 Q1905.2 1450.39 1910.34 1450.39 Q1915.51 1450.39 1918.45 1452.8 Q1921.39 1455.21 1921.39 1459.35 Q1921.39 1462.32 1919.7 1464.38 Q1918.03 1466.44 1915.04 1467.18 Q1918.42 1467.96 1920.3 1470.26 Q1922.2 1472.55 1922.2 1475.86 Q1922.2 1480.88 1919.12 1483.57 Q1916.06 1486.25 1910.34 1486.25 Q1904.63 1486.25 1901.55 1483.57 Q1898.49 1480.88 1898.49 1475.86 Q1898.49 1472.55 1900.39 1470.26 Q1902.29 1467.96 1905.67 1467.18 M1903.95 1459.79 Q1903.95 1462.48 1905.62 1463.98 Q1907.31 1465.49 1910.34 1465.49 Q1913.35 1465.49 1915.04 1463.98 Q1916.76 1462.48 1916.76 1459.79 Q1916.76 1457.11 1915.04 1455.6 Q1913.35 1454.1 1910.34 1454.1 Q1907.31 1454.1 1905.62 1455.6 Q1903.95 1457.11 1903.95 1459.79 Z" fill="#000000" fill-rule="nonzero" fill-opacity="1" /><path clip-path="url(#clip810)" d="M2327.44 1481.64 L2335.08 1481.64 L2335.08 1455.28 L2326.77 1456.95 L2326.77 1452.69 L2335.04 1451.02 L2339.71 1451.02 L2339.71 1481.64 L2347.35 1481.64 L2347.35 1485.58 L2327.44 1485.58 L2327.44 1481.64 Z" fill="#000000" fill-rule="nonzero" fill-opacity="1" /><path clip-path="url(#clip810)" d="M2366.8 1454.1 Q2363.18 1454.1 2361.36 1457.66 Q2359.55 1461.2 2359.55 1468.33 Q2359.55 1475.44 2361.36 1479.01 Q2363.18 1482.55 2366.8 1482.55 Q2370.43 1482.55 2372.23 1479.01 Q2374.06 1475.44 2374.06 1468.33 Q2374.06 1461.2 2372.23 1457.66 Q2370.43 1454.1 2366.8 1454.1 M2366.8 1450.39 Q2372.61 1450.39 2375.66 1455 Q2378.74 1459.58 2378.74 1468.33 Q2378.74 1477.06 2375.66 1481.67 Q2372.61 1486.25 2366.8 1486.25 Q2360.99 1486.25 2357.91 1481.67 Q2354.85 1477.06 2354.85 1468.33 Q2354.85 1459.58 2357.91 1455 Q2360.99 1450.39 2366.8 1450.39 Z" fill="#000000" fill-rule="nonzero" fill-opacity="1" /><path clip-path="url(#clip810)" d="M1245.79 1522.27 L1245.79 1532.4 L1257.85 1532.4 L1257.85 1536.95 L1245.79 1536.95 L1245.79 1556.3 Q1245.79 1560.66 1246.96 1561.9 Q1248.17 1563.14 1251.83 1563.14 L1257.85 1563.14 L1257.85 1568.04 L1251.83 1568.04 Q1245.05 1568.04 1242.48 1565.53 Q1239.9 1562.98 1239.9 1556.3 L1239.9 1536.95 L1235.6 1536.95 L1235.6 1532.4 L1239.9 1532.4 L1239.9 1522.27 L1245.79 1522.27 Z" fill="#000000" fill-rule="nonzero" fill-opacity="1" /><polyline clip-path="url(#clip812)" style="stroke:#000000; stroke-linecap:round; stroke-linejoin:round; stroke-width:2; stroke-opacity:0.1; fill:none" points="140.696,1384.24 2352.76,1384.24 "/>
<polyline clip-path="url(#clip812)" style="stroke:#000000; stroke-linecap:round; stroke-linejoin:round; stroke-width:2; stroke-opacity:0.1; fill:none" points="140.696,1059.73 2352.76,1059.73 "/>
<polyline clip-path="url(#clip812)" style="stroke:#000000; stroke-linecap:round; stroke-linejoin:round; stroke-width:2; stroke-opacity:0.1; fill:none" points="140.696,735.212 2352.76,735.212 "/>
<polyline clip-path="url(#clip812)" style="stroke:#000000; stroke-linecap:round; stroke-linejoin:round; stroke-width:2; stroke-opacity:0.1; fill:none" points="140.696,410.699 2352.76,410.699 "/>
<polyline clip-path="url(#clip812)" style="stroke:#000000; stroke-linecap:round; stroke-linejoin:round; stroke-width:2; stroke-opacity:0.1; fill:none" points="140.696,86.1857 2352.76,86.1857 "/>
<polyline clip-path="url(#clip810)" style="stroke:#000000; stroke-linecap:round; stroke-linejoin:round; stroke-width:4; stroke-opacity:1; fill:none" points="140.696,1423.18 140.696,47.2441 "/>
<polyline clip-path="url(#clip810)" style="stroke:#000000; stroke-linecap:round; stroke-linejoin:round; stroke-width:4; stroke-opacity:1; fill:none" points="140.696,1384.24 159.593,1384.24 "/>
<polyline clip-path="url(#clip810)" style="stroke:#000000; stroke-linecap:round; stroke-linejoin:round; stroke-width:4; stroke-opacity:1; fill:none" points="140.696,1059.73 159.593,1059.73 "/>
<polyline clip-path="url(#clip810)" style="stroke:#000000; stroke-linecap:round; stroke-linejoin:round; stroke-width:4; stroke-opacity:1; fill:none" points="140.696,735.212 159.593,735.212 "/>
<polyline clip-path="url(#clip810)" style="stroke:#000000; stroke-linecap:round; stroke-linejoin:round; stroke-width:4; stroke-opacity:1; fill:none" points="140.696,410.699 159.593,410.699 "/>
<polyline clip-path="url(#clip810)" style="stroke:#000000; stroke-linecap:round; stroke-linejoin:round; stroke-width:4; stroke-opacity:1; fill:none" points="140.696,86.1857 159.593,86.1857 "/>
<path clip-path="url(#clip810)" d="M92.7512 1370.04 Q89.1401 1370.04 87.3114 1373.6 Q85.5058 1377.14 85.5058 1384.27 Q85.5058 1391.38 87.3114 1394.94 Q89.1401 1398.49 92.7512 1398.49 Q96.3854 1398.49 98.1909 1394.94 Q100.02 1391.38 100.02 1384.27 Q100.02 1377.14 98.1909 1373.6 Q96.3854 1370.04 92.7512 1370.04 M92.7512 1366.33 Q98.5613 1366.33 101.617 1370.94 Q104.696 1375.52 104.696 1384.27 Q104.696 1393 101.617 1397.61 Q98.5613 1402.19 92.7512 1402.19 Q86.941 1402.19 83.8623 1397.61 Q80.8068 1393 80.8068 1384.27 Q80.8068 1375.52 83.8623 1370.94 Q86.941 1366.33 92.7512 1366.33 Z" fill="#000000" fill-rule="nonzero" fill-opacity="1" /><path clip-path="url(#clip810)" d="M83.7929 1042.45 L102.149 1042.45 L102.149 1046.38 L88.0753 1046.38 L88.0753 1054.85 Q89.0938 1054.51 90.1123 1054.34 Q91.1308 1054.16 92.1493 1054.16 Q97.9363 1054.16 101.316 1057.33 Q104.696 1060.5 104.696 1065.92 Q104.696 1071.5 101.223 1074.6 Q97.7511 1077.68 91.4317 1077.68 Q89.2558 1077.68 86.9873 1077.31 Q84.7419 1076.94 82.3346 1076.19 L82.3346 1071.5 Q84.4179 1072.63 86.6401 1073.19 Q88.8623 1073.74 91.3391 1073.74 Q95.3437 1073.74 97.6817 1071.63 Q100.02 1069.53 100.02 1065.92 Q100.02 1062.31 97.6817 1060.2 Q95.3437 1058.09 91.3391 1058.09 Q89.4641 1058.09 87.5892 1058.51 Q85.7373 1058.93 83.7929 1059.81 L83.7929 1042.45 Z" fill="#000000" fill-rule="nonzero" fill-opacity="1" /><path clip-path="url(#clip810)" d="M53.3995 748.557 L61.0384 748.557 L61.0384 722.191 L52.7282 723.858 L52.7282 719.599 L60.9921 717.932 L65.668 717.932 L65.668 748.557 L73.3068 748.557 L73.3068 752.492 L53.3995 752.492 L53.3995 748.557 Z" fill="#000000" fill-rule="nonzero" fill-opacity="1" /><path clip-path="url(#clip810)" d="M92.7512 721.011 Q89.1401 721.011 87.3114 724.575 Q85.5058 728.117 85.5058 735.247 Q85.5058 742.353 87.3114 745.918 Q89.1401 749.46 92.7512 749.46 Q96.3854 749.46 98.1909 745.918 Q100.02 742.353 100.02 735.247 Q100.02 728.117 98.1909 724.575 Q96.3854 721.011 92.7512 721.011 M92.7512 717.307 Q98.5613 717.307 101.617 721.913 Q104.696 726.497 104.696 735.247 Q104.696 743.973 101.617 748.58 Q98.5613 753.163 92.7512 753.163 Q86.941 753.163 83.8623 748.58 Q80.8068 743.973 80.8068 735.247 Q80.8068 726.497 83.8623 721.913 Q86.941 717.307 92.7512 717.307 Z" fill="#000000" fill-rule="nonzero" fill-opacity="1" /><path clip-path="url(#clip810)" d="M54.3949 424.044 L62.0337 424.044 L62.0337 397.678 L53.7236 399.345 L53.7236 395.085 L61.9874 393.419 L66.6633 393.419 L66.6633 424.044 L74.3022 424.044 L74.3022 427.979 L54.3949 427.979 L54.3949 424.044 Z" fill="#000000" fill-rule="nonzero" fill-opacity="1" /><path clip-path="url(#clip810)" d="M83.7929 393.419 L102.149 393.419 L102.149 397.354 L88.0753 397.354 L88.0753 405.826 Q89.0938 405.479 90.1123 405.317 Q91.1308 405.132 92.1493 405.132 Q97.9363 405.132 101.316 408.303 Q104.696 411.474 104.696 416.891 Q104.696 422.47 101.223 425.571 Q97.7511 428.65 91.4317 428.65 Q89.2558 428.65 86.9873 428.28 Q84.7419 427.909 82.3346 427.169 L82.3346 422.47 Q84.4179 423.604 86.6401 424.159 Q88.8623 424.715 91.3391 424.715 Q95.3437 424.715 97.6817 422.608 Q100.02 420.502 100.02 416.891 Q100.02 413.28 97.6817 411.173 Q95.3437 409.067 91.3391 409.067 Q89.4641 409.067 87.5892 409.484 Q85.7373 409.9 83.7929 410.78 L83.7929 393.419 Z" fill="#000000" fill-rule="nonzero" fill-opacity="1" /><path clip-path="url(#clip810)" d="M56.6171 99.5305 L72.9365 99.5305 L72.9365 103.466 L50.9921 103.466 L50.9921 99.5305 Q53.6541 96.7759 58.2375 92.1463 Q62.8439 87.4935 64.0245 86.151 Q66.2698 83.6278 67.1494 81.8917 Q68.0522 80.1325 68.0522 78.4427 Q68.0522 75.688 66.1078 73.9519 Q64.1865 72.2158 61.0847 72.2158 Q58.8856 72.2158 56.4319 72.9797 Q54.0014 73.7436 51.2236 75.2945 L51.2236 70.5723 Q54.0477 69.4381 56.5014 68.8594 Q58.955 68.2807 60.9921 68.2807 Q66.3624 68.2807 69.5568 70.9658 Q72.7513 73.651 72.7513 78.1417 Q72.7513 80.2714 71.9411 82.1926 Q71.1541 84.0908 69.0476 86.6834 Q68.4689 87.3546 65.367 90.5722 Q62.2652 93.7667 56.6171 99.5305 Z" fill="#000000" fill-rule="nonzero" fill-opacity="1" /><path clip-path="url(#clip810)" d="M92.7512 71.9844 Q89.1401 71.9844 87.3114 75.5492 Q85.5058 79.0908 85.5058 86.2204 Q85.5058 93.3268 87.3114 96.8916 Q89.1401 100.433 92.7512 100.433 Q96.3854 100.433 98.1909 96.8916 Q100.02 93.3268 100.02 86.2204 Q100.02 79.0908 98.1909 75.5492 Q96.3854 71.9844 92.7512 71.9844 M92.7512 68.2807 Q98.5613 68.2807 101.617 72.8871 Q104.696 77.4704 104.696 86.2204 Q104.696 94.9472 101.617 99.5537 Q98.5613 104.137 92.7512 104.137 Q86.941 104.137 83.8623 99.5537 Q80.8068 94.9472 80.8068 86.2204 Q80.8068 77.4704 83.8623 72.8871 Q86.941 68.2807 92.7512 68.2807 Z" fill="#000000" fill-rule="nonzero" fill-opacity="1" /><polyline clip-path="url(#clip812)" style="stroke:#009af9; stroke-linecap:round; stroke-linejoin:round; stroke-width:8; stroke-opacity:1; fill:none" points="140.696,1384.24 141.701,1384.24 142.707,1384.24 143.713,1384.24 144.719,1384.24 145.725,1384.24 146.731,1384.24 147.737,1384.24 148.743,1384.24 149.749,1384.24 150.755,1384.24 151.761,1384.24 152.767,1384.24 153.773,1384.24 154.779,1384.24 155.785,1384.24 156.791,1384.24 157.797,1384.24 158.802,1384.24 159.808,1384.24 160.814,1384.24 161.82,1384.24 162.826,1384.24 163.832,1384.24 164.838,1384.24 165.844,1384.24 166.85,1384.24 167.856,1384.24 168.862,1384.24 169.868,1384.24 170.874,1384.24 171.88,1384.24 172.886,1384.24 173.892,1384.24 174.897,1384.24 175.903,1384.24 176.909,1384.24 177.915,1384.24 178.921,1384.24 179.927,1384.24 180.933,1384.24 181.939,1384.24 182.945,1384.24 183.951,1384.24 184.957,1384.24 185.963,1384.24 186.969,1384.24 187.975,1384.24 188.981,1384.24 189.987,1384.24 190.993,1384.24 191.998,1384.24 193.004,1384.24 194.01,1384.24 195.016,1384.24 196.022,1384.24 197.028,1384.24 198.034,1384.24 199.04,1384.24 200.046,1384.24 201.052,1384.24 202.058,1384.24 203.064,1384.24 204.07,1384.24 205.076,1384.24 206.082,1384.24 207.088,1384.24 208.093,1384.24 209.099,1384.24 210.105,1384.24 211.111,1384.24 212.117,1384.24 213.123,1384.24 214.129,1384.24 215.135,1384.24 216.141,1384.24 217.147,1384.24 218.153,1384.24 219.159,1384.24 220.165,1384.24 221.171,1384.24 222.177,1384.24 223.183,1384.24 224.188,1384.24 225.194,1384.24 226.2,1384.24 227.206,1384.24 228.212,1384.24 229.218,1384.24 230.224,1384.24 231.23,1384.24 232.236,1384.24 233.242,1384.24 234.248,1384.24 235.254,1384.24 236.26,1384.24 237.266,1384.24 238.272,1384.24 239.278,1384.24 240.284,1384.24 241.289,1384.24 242.295,1384.24 243.301,1384.24 244.307,1384.24 245.313,1384.24 246.319,1384.24 247.325,1384.24 248.331,1384.24 249.337,1384.24 250.343,1384.24 251.349,1384.24 252.355,1384.24 253.361,1384.24 254.367,1384.24 255.373,1384.24 256.379,1384.24 257.384,1384.24 258.39,1384.24 259.396,1384.24 260.402,1384.24 261.408,1384.24 262.414,1384.24 263.42,1384.24 264.426,1384.24 265.432,1384.24 266.438,1384.24 267.444,1384.24 268.45,1384.24 269.456,1384.24 270.462,1384.24 271.468,1384.24 272.474,1384.24 273.48,1384.24 274.485,1384.24 275.491,1384.24 276.497,1384.24 277.503,1384.24 278.509,1384.24 279.515,1319.34 280.521,1319.34 281.527,1319.34 282.533,1319.34 283.539,1319.34 284.545,1319.34 285.551,1319.34 286.557,1319.34 287.563,1319.34 288.569,1319.34 289.575,1319.34 290.58,1319.34 291.586,1319.34 292.592,1319.34 293.598,1319.34 294.604,1319.34 295.61,1319.34 296.616,1319.34 297.622,1319.34 298.628,1319.34 299.634,1319.34 300.64,1319.34 301.646,1319.34 302.652,1319.34 303.658,1319.34 304.664,1319.34 305.67,1319.34 306.676,1319.34 307.681,1319.34 308.687,1319.34 309.693,1319.34 310.699,1319.34 311.705,1319.34 312.711,1319.34 313.717,1319.34 314.723,1319.34 315.729,1319.34 316.735,1319.34 317.741,1319.34 318.747,1319.34 319.753,1319.34 320.759,1319.34 321.765,1319.34 322.771,1319.34 323.776,1319.34 324.782,1319.34 325.788,1319.34 326.794,1319.34 327.8,1319.34 328.806,1319.34 329.812,1319.34 330.818,1319.34 331.824,1319.34 332.83,1319.34 333.836,1319.34 334.842,1319.34 335.848,1319.34 336.854,1319.34 337.86,1319.34 338.866,1319.34 339.872,1319.34 340.877,1319.34 341.883,1319.34 342.889,1319.34 343.895,1319.34 344.901,1319.34 345.907,1319.34 346.913,1319.34 347.919,1319.34 348.925,1319.34 349.931,1319.34 350.937,1319.34 351.943,1319.34 352.949,1319.34 353.955,1319.34 354.961,1319.34 355.967,1319.34 356.972,1319.34 357.978,1254.43 358.984,1254.43 359.99,1254.43 360.996,1254.43 362.002,1254.43 363.008,1254.43 364.014,1254.43 365.02,1254.43 366.026,1254.43 367.032,1254.43 368.038,1254.43 369.044,1254.43 370.05,1254.43 371.056,1254.43 372.062,1254.43 373.068,1254.43 374.073,1254.43 375.079,1254.43 376.085,1254.43 377.091,1254.43 378.097,1254.43 379.103,1254.43 380.109,1254.43 381.115,1254.43 382.121,1254.43 383.127,1254.43 384.133,1254.43 385.139,1254.43 386.145,1254.43 387.151,1254.43 388.157,1254.43 389.163,1254.43 390.168,1254.43 391.174,1254.43 392.18,1254.43 393.186,1254.43 394.192,1254.43 395.198,1254.43 396.204,1254.43 397.21,1254.43 398.216,1254.43 399.222,1254.43 400.228,1254.43 401.234,1254.43 402.24,1254.43 403.246,1254.43 404.252,1254.43 405.258,1254.43 406.263,1254.43 407.269,1254.43 408.275,1254.43 409.281,1254.43 410.287,1254.43 411.293,1254.43 412.299,1254.43 413.305,1254.43 414.311,1254.43 415.317,1254.43 416.323,1254.43 417.329,1254.43 418.335,1254.43 419.341,1254.43 420.347,1254.43 421.353,1254.43 422.359,1254.43 423.364,1254.43 424.37,1254.43 425.376,1254.43 426.382,1254.43 427.388,1254.43 428.394,1254.43 429.4,1254.43 430.406,1254.43 431.412,1254.43 432.418,1254.43 433.424,1254.43 434.43,1254.43 435.436,1254.43 436.442,1254.43 437.448,1254.43 438.454,1254.43 439.459,1254.43 440.465,1254.43 441.471,1254.43 442.477,1254.43 443.483,1254.43 444.489,1254.43 445.495,1254.43 446.501,1254.43 447.507,1254.43 448.513,1254.43 449.519,1254.43 450.525,1254.43 451.531,1254.43 452.537,1254.43 453.543,1254.43 454.549,1254.43 455.555,1254.43 456.56,1254.43 457.566,1254.43 458.572,1254.43 459.578,1254.43 460.584,1254.43 461.59,1254.43 462.596,1254.43 463.602,1254.43 464.608,1254.43 465.614,1254.43 466.62,1254.43 467.626,1254.43 468.632,1254.43 469.638,1254.43 470.644,1254.43 471.65,1254.43 472.655,1254.43 473.661,1254.43 474.667,1254.43 475.673,1254.43 476.679,1254.43 477.685,1254.43 478.691,1254.43 479.697,1254.43 480.703,1254.43 481.709,1254.43 482.715,1254.43 483.721,1254.43 484.727,1254.43 485.733,1254.43 486.739,1254.43 487.745,1254.43 488.751,1254.43 489.756,1254.43 490.762,1254.43 491.768,1254.43 492.774,1254.43 493.78,1254.43 494.786,1254.43 495.792,1254.43 496.798,1254.43 497.804,1254.43 498.81,1254.43 499.816,1254.43 500.822,1254.43 501.828,1254.43 502.834,1254.43 503.84,1254.43 504.846,1254.43 505.851,1254.43 506.857,1254.43 507.863,1254.43 508.869,1254.43 509.875,1254.43 510.881,1254.43 511.887,1254.43 512.893,1254.43 513.899,1254.43 514.905,1254.43 515.911,1254.43 516.917,1254.43 517.923,1254.43 518.929,1254.43 519.935,1254.43 520.941,1254.43 521.947,1254.43 522.952,1254.43 523.958,1254.43 524.964,1254.43 525.97,1254.43 526.976,1254.43 527.982,1254.43 528.988,1254.43 529.994,1254.43 531,1254.43 532.006,1254.43 533.012,1254.43 534.018,1254.43 535.024,1254.43 536.03,1254.43 537.036,1254.43 538.042,1254.43 539.047,1189.53 540.053,1189.53 541.059,1189.53 542.065,1189.53 543.071,1189.53 544.077,1189.53 545.083,1189.53 546.089,1189.53 547.095,1189.53 548.101,1189.53 549.107,1189.53 550.113,1189.53 551.119,1189.53 552.125,1189.53 553.131,1189.53 554.137,1189.53 555.143,1189.53 556.148,1189.53 557.154,1189.53 558.16,1189.53 559.166,1189.53 560.172,1189.53 561.178,1189.53 562.184,1189.53 563.19,1189.53 564.196,1189.53 565.202,1189.53 566.208,1189.53 567.214,1189.53 568.22,1189.53 569.226,1189.53 570.232,1189.53 571.238,1189.53 572.243,1189.53 573.249,1189.53 574.255,1189.53 575.261,1189.53 576.267,1189.53 577.273,1189.53 578.279,1189.53 579.285,1189.53 580.291,1189.53 581.297,1189.53 582.303,1189.53 583.309,1189.53 584.315,1189.53 585.321,1189.53 586.327,1189.53 587.333,1189.53 588.338,1189.53 589.344,1189.53 590.35,1189.53 591.356,1189.53 592.362,1189.53 593.368,1189.53 594.374,1189.53 595.38,1189.53 596.386,1189.53 597.392,1189.53 598.398,1124.63 599.404,1124.63 600.41,1124.63 601.416,1124.63 602.422,1124.63 603.428,1124.63 604.434,1124.63 605.439,1124.63 606.445,1124.63 607.451,1124.63 608.457,1124.63 609.463,1124.63 610.469,1124.63 611.475,1124.63 612.481,1124.63 613.487,1124.63 614.493,1124.63 615.499,1124.63 616.505,1124.63 617.511,1124.63 618.517,1124.63 619.523,1124.63 620.529,1124.63 621.534,1124.63 622.54,1124.63 623.546,1124.63 624.552,1124.63 625.558,1124.63 626.564,1124.63 627.57,1124.63 628.576,1124.63 629.582,1124.63 630.588,1124.63 631.594,1124.63 632.6,1124.63 633.606,1124.63 634.612,1124.63 635.618,1124.63 636.624,1124.63 637.63,1124.63 638.635,1124.63 639.641,1124.63 640.647,1124.63 641.653,1124.63 642.659,1124.63 643.665,1124.63 644.671,1124.63 645.677,1124.63 646.683,1124.63 647.689,1124.63 648.695,1059.73 649.701,1059.73 650.707,1059.73 651.713,1059.73 652.719,1059.73 653.725,1059.73 654.73,1059.73 655.736,1059.73 656.742,1059.73 657.748,1059.73 658.754,1059.73 659.76,1059.73 660.766,1059.73 661.772,1059.73 662.778,1059.73 663.784,1059.73 664.79,1059.73 665.796,1059.73 666.802,1059.73 667.808,1059.73 668.814,1059.73 669.82,1059.73 670.826,1059.73 671.831,1059.73 672.837,1059.73 673.843,1059.73 674.849,1059.73 675.855,1059.73 676.861,1059.73 677.867,1059.73 678.873,1059.73 679.879,1059.73 680.885,1059.73 681.891,1059.73 682.897,1059.73 683.903,1059.73 684.909,1059.73 685.915,1059.73 686.921,1059.73 687.926,1059.73 688.932,1059.73 689.938,1059.73 690.944,1059.73 691.95,1059.73 692.956,1059.73 693.962,1059.73 694.968,1059.73 695.974,1059.73 696.98,1059.73 697.986,1059.73 698.992,1059.73 699.998,1059.73 701.004,1059.73 702.01,1059.73 703.016,1059.73 704.022,1059.73 705.027,1059.73 706.033,1059.73 707.039,1059.73 708.045,1059.73 709.051,1059.73 710.057,1059.73 711.063,1059.73 712.069,1059.73 713.075,1059.73 714.081,1059.73 715.087,1059.73 716.093,1059.73 717.099,1059.73 718.105,1059.73 719.111,1059.73 720.117,1059.73 721.122,1059.73 722.128,1059.73 723.134,1059.73 724.14,1059.73 725.146,1059.73 726.152,1059.73 727.158,1059.73 728.164,1059.73 729.17,1059.73 730.176,1059.73 731.182,1059.73 732.188,1059.73 733.194,1059.73 734.2,1059.73 735.206,1059.73 736.212,1059.73 737.218,1059.73 738.223,1059.73 739.229,1059.73 740.235,1059.73 741.241,1059.73 742.247,1059.73 743.253,1059.73 744.259,1059.73 745.265,1059.73 746.271,1059.73 747.277,1059.73 748.283,1059.73 749.289,1059.73 750.295,1059.73 751.301,1059.73 752.307,1059.73 753.313,1059.73 754.318,1059.73 755.324,1059.73 756.33,1059.73 757.336,994.822 758.342,994.822 759.348,994.822 760.354,994.822 761.36,994.822 762.366,994.822 763.372,994.822 764.378,994.822 765.384,994.822 766.39,929.92 767.396,929.92 768.402,929.92 769.408,929.92 770.413,929.92 771.419,929.92 772.425,929.92 773.431,929.92 774.437,929.92 775.443,929.92 776.449,929.92 777.455,929.92 778.461,929.92 779.467,929.92 780.473,929.92 781.479,929.92 782.485,929.92 783.491,929.92 784.497,929.92 785.503,929.92 786.509,929.92 787.514,929.92 788.52,929.92 789.526,929.92 790.532,929.92 791.538,929.92 792.544,929.92 793.55,929.92 794.556,929.92 795.562,929.92 796.568,929.92 797.574,929.92 798.58,929.92 799.586,929.92 800.592,929.92 801.598,929.92 802.604,929.92 803.609,929.92 804.615,929.92 805.621,865.017 806.627,865.017 807.633,865.017 808.639,865.017 809.645,865.017 810.651,865.017 811.657,865.017 812.663,865.017 813.669,865.017 814.675,865.017 815.681,865.017 816.687,865.017 817.693,865.017 818.699,865.017 819.705,865.017 820.71,800.115 821.716,800.115 822.722,800.115 823.728,800.115 824.734,800.115 825.74,800.115 826.746,800.115 827.752,800.115 828.758,800.115 829.764,800.115 830.77,800.115 831.776,800.115 832.782,800.115 833.788,800.115 834.794,800.115 835.8,800.115 836.805,800.115 837.811,800.115 838.817,800.115 839.823,800.115 840.829,800.115 841.835,800.115 842.841,800.115 843.847,800.115 844.853,800.115 845.859,800.115 846.865,800.115 847.871,800.115 848.877,800.115 849.883,800.115 850.889,800.115 851.895,800.115 852.901,800.115 853.906,800.115 854.912,800.115 855.918,800.115 856.924,800.115 857.93,800.115 858.936,800.115 859.942,800.115 860.948,800.115 861.954,800.115 862.96,800.115 863.966,800.115 864.972,800.115 865.978,800.115 866.984,800.115 867.99,800.115 868.996,800.115 870.001,800.115 871.007,800.115 872.013,800.115 873.019,800.115 874.025,800.115 875.031,800.115 876.037,800.115 877.043,800.115 878.049,800.115 879.055,800.115 880.061,800.115 881.067,800.115 882.073,800.115 883.079,800.115 884.085,800.115 885.091,800.115 886.097,800.115 887.102,800.115 888.108,800.115 889.114,800.115 890.12,800.115 891.126,800.115 892.132,800.115 893.138,800.115 894.144,800.115 895.15,800.115 896.156,800.115 897.162,800.115 898.168,800.115 899.174,800.115 900.18,800.115 901.186,800.115 902.192,800.115 903.197,800.115 904.203,800.115 905.209,800.115 906.215,800.115 907.221,800.115 908.227,800.115 909.233,800.115 910.239,800.115 911.245,800.115 912.251,800.115 913.257,800.115 914.263,800.115 915.269,800.115 916.275,800.115 917.281,800.115 918.287,800.115 919.293,800.115 920.298,800.115 921.304,800.115 922.31,800.115 923.316,800.115 924.322,800.115 925.328,800.115 926.334,800.115 927.34,800.115 928.346,800.115 929.352,800.115 930.358,800.115 931.364,800.115 932.37,800.115 933.376,800.115 934.382,800.115 935.388,800.115 936.393,800.115 937.399,800.115 938.405,800.115 939.411,800.115 940.417,800.115 941.423,800.115 942.429,800.115 943.435,800.115 944.441,800.115 945.447,800.115 946.453,800.115 947.459,800.115 948.465,800.115 949.471,800.115 950.477,800.115 951.483,800.115 952.488,800.115 953.494,800.115 954.5,800.115 955.506,800.115 956.512,800.115 957.518,800.115 958.524,800.115 959.53,800.115 960.536,800.115 961.542,800.115 962.548,800.115 963.554,800.115 964.56,800.115 965.566,800.115 966.572,800.115 967.578,800.115 968.584,800.115 969.589,800.115 970.595,800.115 971.601,800.115 972.607,800.115 973.613,800.115 974.619,800.115 975.625,800.115 976.631,800.115 977.637,800.115 978.643,800.115 979.649,800.115 980.655,800.115 981.661,800.115 982.667,800.115 983.673,800.115 984.679,800.115 985.684,800.115 986.69,800.115 987.696,800.115 988.702,800.115 989.708,800.115 990.714,800.115 991.72,800.115 992.726,800.115 993.732,800.115 994.738,800.115 995.744,800.115 996.75,800.115 997.756,800.115 998.762,800.115 999.768,800.115 1000.77,800.115 1001.78,800.115 1002.79,800.115 1003.79,800.115 1004.8,800.115 1005.8,800.115 1006.81,800.115 1007.82,800.115 1008.82,800.115 1009.83,800.115 1010.83,800.115 1011.84,800.115 1012.84,800.115 1013.85,800.115 1014.86,800.115 1015.86,800.115 1016.87,800.115 1017.87,800.115 1018.88,800.115 1019.89,800.115 1020.89,800.115 1021.9,800.115 1022.9,800.115 1023.91,800.115 1024.92,800.115 1025.92,800.115 1026.93,800.115 1027.93,800.115 1028.94,800.115 1029.95,800.115 1030.95,800.115 1031.96,800.115 1032.96,800.115 1033.97,800.115 1034.98,800.115 1035.98,800.115 1036.99,800.115 1037.99,800.115 1039,800.115 1040.01,800.115 1041.01,800.115 1042.02,800.115 1043.02,800.115 1044.03,800.115 1045.03,800.115 1046.04,800.115 1047.05,800.115 1048.05,800.115 1049.06,800.115 1050.06,800.115 1051.07,800.115 1052.08,800.115 1053.08,800.115 1054.09,800.115 1055.09,800.115 1056.1,800.115 1057.11,800.115 1058.11,800.115 1059.12,800.115 1060.12,800.115 1061.13,800.115 1062.14,800.115 1063.14,800.115 1064.15,800.115 1065.15,800.115 1066.16,800.115 1067.17,800.115 1068.17,800.115 1069.18,800.115 1070.18,800.115 1071.19,800.115 1072.2,800.115 1073.2,800.115 1074.21,800.115 1075.21,800.115 1076.22,800.115 1077.22,800.115 1078.23,800.115 1079.24,800.115 1080.24,800.115 1081.25,800.115 1082.25,800.115 1083.26,800.115 1084.27,800.115 1085.27,800.115 1086.28,800.115 1087.28,800.115 1088.29,800.115 1089.3,800.115 1090.3,800.115 1091.31,800.115 1092.31,800.115 1093.32,800.115 1094.33,800.115 1095.33,800.115 1096.34,800.115 1097.34,800.115 1098.35,800.115 1099.36,800.115 1100.36,800.115 1101.37,800.115 1102.37,800.115 1103.38,800.115 1104.39,800.115 1105.39,800.115 1106.4,800.115 1107.4,800.115 1108.41,800.115 1109.42,800.115 1110.42,800.115 1111.43,800.115 1112.43,800.115 1113.44,800.115 1114.44,800.115 1115.45,800.115 1116.46,800.115 1117.46,800.115 1118.47,800.115 1119.47,800.115 1120.48,800.115 1121.49,800.115 1122.49,800.115 1123.5,800.115 1124.5,800.115 1125.51,800.115 1126.52,800.115 1127.52,800.115 1128.53,800.115 1129.53,800.115 1130.54,800.115 1131.55,800.115 1132.55,800.115 1133.56,800.115 1134.56,800.115 1135.57,800.115 1136.58,800.115 1137.58,800.115 1138.59,800.115 1139.59,800.115 1140.6,800.115 1141.61,800.115 1142.61,800.115 1143.62,800.115 1144.62,800.115 1145.63,800.115 1146.63,800.115 1147.64,800.115 1148.65,800.115 1149.65,800.115 1150.66,800.115 1151.66,800.115 1152.67,800.115 1153.68,800.115 1154.68,800.115 1155.69,800.115 1156.69,800.115 1157.7,800.115 1158.71,800.115 1159.71,800.115 1160.72,800.115 1161.72,800.115 1162.73,800.115 1163.74,800.115 1164.74,800.115 1165.75,800.115 1166.75,800.115 1167.76,800.115 1168.77,800.115 1169.77,800.115 1170.78,800.115 1171.78,800.115 1172.79,800.115 1173.8,800.115 1174.8,800.115 1175.81,800.115 1176.81,800.115 1177.82,800.115 1178.82,800.115 1179.83,800.115 1180.84,800.115 1181.84,800.115 1182.85,800.115 1183.85,800.115 1184.86,800.115 1185.87,800.115 1186.87,800.115 1187.88,800.115 1188.88,800.115 1189.89,800.115 1190.9,800.115 1191.9,800.115 1192.91,800.115 1193.91,800.115 1194.92,800.115 1195.93,800.115 1196.93,800.115 1197.94,800.115 1198.94,800.115 1199.95,800.115 1200.96,800.115 1201.96,800.115 1202.97,800.115 1203.97,800.115 1204.98,735.212 1205.99,735.212 1206.99,735.212 1208,735.212 1209,735.212 1210.01,735.212 1211.01,735.212 1212.02,735.212 1213.03,735.212 1214.03,735.212 1215.04,735.212 1216.04,735.212 1217.05,735.212 1218.06,735.212 1219.06,735.212 1220.07,735.212 1221.07,735.212 1222.08,735.212 1223.09,735.212 1224.09,735.212 1225.1,735.212 1226.1,735.212 1227.11,735.212 1228.12,735.212 1229.12,735.212 1230.13,735.212 1231.13,735.212 1232.14,735.212 1233.15,735.212 1234.15,735.212 1235.16,735.212 1236.16,670.309 1237.17,670.309 1238.18,670.309 1239.18,670.309 1240.19,670.309 1241.19,670.309 1242.2,670.309 1243.2,670.309 1244.21,670.309 1245.22,605.407 1246.22,605.407 1247.23,605.407 1248.23,605.407 1249.24,605.407 1250.25,605.407 1251.25,605.407 1252.26,605.407 1253.26,605.407 1254.27,605.407 1255.28,605.407 1256.28,605.407 1257.29,605.407 1258.29,605.407 1259.3,605.407 1260.31,605.407 1261.31,605.407 1262.32,605.407 1263.32,605.407 1264.33,605.407 1265.34,605.407 1266.34,605.407 1267.35,605.407 1268.35,605.407 1269.36,605.407 1270.37,605.407 1271.37,605.407 1272.38,605.407 1273.38,605.407 1274.39,605.407 1275.39,605.407 1276.4,605.407 1277.41,605.407 1278.41,605.407 1279.42,605.407 1280.42,605.407 1281.43,605.407 1282.44,605.407 1283.44,605.407 1284.45,605.407 1285.45,605.407 1286.46,605.407 1287.47,605.407 1288.47,605.407 1289.48,605.407 1290.48,605.407 1291.49,605.407 1292.5,605.407 1293.5,605.407 1294.51,605.407 1295.51,605.407 1296.52,605.407 1297.53,605.407 1298.53,605.407 1299.54,605.407 1300.54,605.407 1301.55,605.407 1302.56,605.407 1303.56,605.407 1304.57,605.407 1305.57,605.407 1306.58,605.407 1307.59,605.407 1308.59,605.407 1309.6,605.407 1310.6,605.407 1311.61,605.407 1312.61,605.407 1313.62,605.407 1314.63,605.407 1315.63,605.407 1316.64,605.407 1317.64,605.407 1318.65,605.407 1319.66,605.407 1320.66,605.407 1321.67,605.407 1322.67,605.407 1323.68,605.407 1324.69,605.407 1325.69,605.407 1326.7,605.407 1327.7,605.407 1328.71,605.407 1329.72,605.407 1330.72,605.407 1331.73,605.407 1332.73,605.407 1333.74,605.407 1334.75,605.407 1335.75,605.407 1336.76,605.407 1337.76,605.407 1338.77,605.407 1339.78,605.407 1340.78,605.407 1341.79,605.407 1342.79,605.407 1343.8,605.407 1344.8,605.407 1345.81,605.407 1346.82,605.407 1347.82,605.407 1348.83,605.407 1349.83,605.407 1350.84,605.407 1351.85,605.407 1352.85,605.407 1353.86,605.407 1354.86,605.407 1355.87,605.407 1356.88,605.407 1357.88,605.407 1358.89,605.407 1359.89,605.407 1360.9,605.407 1361.91,605.407 1362.91,605.407 1363.92,605.407 1364.92,605.407 1365.93,605.407 1366.94,605.407 1367.94,605.407 1368.95,605.407 1369.95,605.407 1370.96,605.407 1371.97,605.407 1372.97,605.407 1373.98,605.407 1374.98,605.407 1375.99,605.407 1376.99,540.504 1378,540.504 1379.01,540.504 1380.01,540.504 1381.02,540.504 1382.02,540.504 1383.03,540.504 1384.04,540.504 1385.04,540.504 1386.05,540.504 1387.05,540.504 1388.06,540.504 1389.07,540.504 1390.07,540.504 1391.08,540.504 1392.08,540.504 1393.09,540.504 1394.1,540.504 1395.1,540.504 1396.11,540.504 1397.11,540.504 1398.12,540.504 1399.13,540.504 1400.13,540.504 1401.14,540.504 1402.14,540.504 1403.15,540.504 1404.16,540.504 1405.16,540.504 1406.17,540.504 1407.17,540.504 1408.18,540.504 1409.18,540.504 1410.19,540.504 1411.2,540.504 1412.2,540.504 1413.21,540.504 1414.21,540.504 1415.22,540.504 1416.23,540.504 1417.23,540.504 1418.24,540.504 1419.24,540.504 1420.25,540.504 1421.26,540.504 1422.26,540.504 1423.27,540.504 1424.27,540.504 1425.28,540.504 1426.29,540.504 1427.29,540.504 1428.3,540.504 1429.3,540.504 1430.31,540.504 1431.32,540.504 1432.32,540.504 1433.33,540.504 1434.33,540.504 1435.34,540.504 1436.35,540.504 1437.35,540.504 1438.36,540.504 1439.36,540.504 1440.37,540.504 1441.37,540.504 1442.38,540.504 1443.39,540.504 1444.39,540.504 1445.4,540.504 1446.4,540.504 1447.41,540.504 1448.42,540.504 1449.42,540.504 1450.43,540.504 1451.43,540.504 1452.44,540.504 1453.45,540.504 1454.45,540.504 1455.46,540.504 1456.46,540.504 1457.47,540.504 1458.48,540.504 1459.48,540.504 1460.49,540.504 1461.49,540.504 1462.5,540.504 1463.51,540.504 1464.51,540.504 1465.52,540.504 1466.52,540.504 1467.53,540.504 1468.54,540.504 1469.54,540.504 1470.55,540.504 1471.55,540.504 1472.56,540.504 1473.57,475.601 1474.57,475.601 1475.58,475.601 1476.58,475.601 1477.59,475.601 1478.59,475.601 1479.6,475.601 1480.61,475.601 1481.61,475.601 1482.62,475.601 1483.62,475.601 1484.63,475.601 1485.64,475.601 1486.64,475.601 1487.65,475.601 1488.65,475.601 1489.66,475.601 1490.67,475.601 1491.67,475.601 1492.68,475.601 1493.68,475.601 1494.69,475.601 1495.7,475.601 1496.7,475.601 1497.71,475.601 1498.71,475.601 1499.72,475.601 1500.73,475.601 1501.73,475.601 1502.74,475.601 1503.74,475.601 1504.75,475.601 1505.76,475.601 1506.76,475.601 1507.77,475.601 1508.77,475.601 1509.78,475.601 1510.78,475.601 1511.79,475.601 1512.8,475.601 1513.8,475.601 1514.81,475.601 1515.81,410.699 1516.82,410.699 1517.83,410.699 1518.83,410.699 1519.84,410.699 1520.84,410.699 1521.85,410.699 1522.86,410.699 1523.86,410.699 1524.87,410.699 1525.87,410.699 1526.88,410.699 1527.89,410.699 1528.89,410.699 1529.9,410.699 1530.9,410.699 1531.91,410.699 1532.92,410.699 1533.92,410.699 1534.93,410.699 1535.93,410.699 1536.94,410.699 1537.95,410.699 1538.95,410.699 1539.96,410.699 1540.96,410.699 1541.97,410.699 1542.97,410.699 1543.98,410.699 1544.99,410.699 1545.99,410.699 1547,410.699 1548,410.699 1549.01,410.699 1550.02,410.699 1551.02,410.699 1552.03,410.699 1553.03,410.699 1554.04,410.699 1555.05,410.699 1556.05,410.699 1557.06,410.699 1558.06,410.699 1559.07,410.699 1560.08,410.699 1561.08,410.699 1562.09,410.699 1563.09,410.699 1564.1,410.699 1565.11,410.699 1566.11,410.699 1567.12,410.699 1568.12,410.699 1569.13,410.699 1570.14,410.699 1571.14,410.699 1572.15,410.699 1573.15,410.699 1574.16,410.699 1575.16,410.699 1576.17,410.699 1577.18,410.699 1578.18,410.699 1579.19,410.699 1580.19,410.699 1581.2,410.699 1582.21,410.699 1583.21,410.699 1584.22,410.699 1585.22,410.699 1586.23,410.699 1587.24,410.699 1588.24,410.699 1589.25,410.699 1590.25,410.699 1591.26,410.699 1592.27,410.699 1593.27,410.699 1594.28,410.699 1595.28,410.699 1596.29,410.699 1597.3,410.699 1598.3,410.699 1599.31,410.699 1600.31,410.699 1601.32,410.699 1602.33,410.699 1603.33,410.699 1604.34,410.699 1605.34,410.699 1606.35,410.699 1607.35,410.699 1608.36,410.699 1609.37,410.699 1610.37,410.699 1611.38,410.699 1612.38,410.699 1613.39,410.699 1614.4,410.699 1615.4,410.699 1616.41,410.699 1617.41,410.699 1618.42,410.699 1619.43,410.699 1620.43,410.699 1621.44,410.699 1622.44,410.699 1623.45,410.699 1624.46,410.699 1625.46,410.699 1626.47,410.699 1627.47,410.699 1628.48,410.699 1629.49,410.699 1630.49,410.699 1631.5,410.699 1632.5,410.699 1633.51,410.699 1634.52,410.699 1635.52,410.699 1636.53,410.699 1637.53,410.699 1638.54,410.699 1639.54,410.699 1640.55,410.699 1641.56,410.699 1642.56,410.699 1643.57,410.699 1644.57,410.699 1645.58,410.699 1646.59,410.699 1647.59,410.699 1648.6,410.699 1649.6,410.699 1650.61,410.699 1651.62,410.699 1652.62,410.699 1653.63,410.699 1654.63,410.699 1655.64,410.699 1656.65,410.699 1657.65,410.699 1658.66,410.699 1659.66,410.699 1660.67,410.699 1661.68,410.699 1662.68,410.699 1663.69,410.699 1664.69,410.699 1665.7,410.699 1666.71,410.699 1667.71,410.699 1668.72,410.699 1669.72,410.699 1670.73,410.699 1671.74,410.699 1672.74,410.699 1673.75,410.699 1674.75,410.699 1675.76,410.699 1676.76,410.699 1677.77,410.699 1678.78,410.699 1679.78,410.699 1680.79,410.699 1681.79,410.699 1682.8,410.699 1683.81,410.699 1684.81,410.699 1685.82,410.699 1686.82,410.699 1687.83,410.699 1688.84,410.699 1689.84,410.699 1690.85,410.699 1691.85,410.699 1692.86,410.699 1693.87,410.699 1694.87,410.699 1695.88,410.699 1696.88,410.699 1697.89,410.699 1698.9,410.699 1699.9,410.699 1700.91,410.699 1701.91,410.699 1702.92,410.699 1703.93,410.699 1704.93,410.699 1705.94,410.699 1706.94,410.699 1707.95,410.699 1708.95,410.699 1709.96,410.699 1710.97,410.699 1711.97,410.699 1712.98,410.699 1713.98,410.699 1714.99,410.699 1716,410.699 1717,410.699 1718.01,410.699 1719.01,410.699 1720.02,410.699 1721.03,410.699 1722.03,410.699 1723.04,410.699 1724.04,410.699 1725.05,410.699 1726.06,410.699 1727.06,410.699 1728.07,410.699 1729.07,410.699 1730.08,410.699 1731.09,410.699 1732.09,410.699 1733.1,410.699 1734.1,410.699 1735.11,410.699 1736.12,410.699 1737.12,410.699 1738.13,410.699 1739.13,410.699 1740.14,410.699 1741.14,410.699 1742.15,410.699 1743.16,410.699 1744.16,410.699 1745.17,410.699 1746.17,410.699 1747.18,410.699 1748.19,410.699 1749.19,410.699 1750.2,410.699 1751.2,410.699 1752.21,410.699 1753.22,410.699 1754.22,410.699 1755.23,410.699 1756.23,410.699 1757.24,410.699 1758.25,410.699 1759.25,410.699 1760.26,410.699 1761.26,410.699 1762.27,410.699 1763.28,410.699 1764.28,410.699 1765.29,410.699 1766.29,410.699 1767.3,345.796 1768.31,345.796 1769.31,345.796 1770.32,345.796 1771.32,345.796 1772.33,345.796 1773.33,345.796 1774.34,345.796 1775.35,345.796 1776.35,345.796 1777.36,345.796 1778.36,345.796 1779.37,345.796 1780.38,345.796 1781.38,345.796 1782.39,345.796 1783.39,345.796 1784.4,345.796 1785.41,345.796 1786.41,345.796 1787.42,345.796 1788.42,345.796 1789.43,345.796 1790.44,345.796 1791.44,345.796 1792.45,345.796 1793.45,345.796 1794.46,345.796 1795.47,345.796 1796.47,345.796 1797.48,345.796 1798.48,345.796 1799.49,345.796 1800.5,345.796 1801.5,345.796 1802.51,345.796 1803.51,345.796 1804.52,345.796 1805.52,345.796 1806.53,345.796 1807.54,345.796 1808.54,345.796 1809.55,345.796 1810.55,345.796 1811.56,345.796 1812.57,345.796 1813.57,345.796 1814.58,345.796 1815.58,345.796 1816.59,345.796 1817.6,345.796 1818.6,345.796 1819.61,345.796 1820.61,345.796 1821.62,345.796 1822.63,345.796 1823.63,280.894 1824.64,280.894 1825.64,280.894 1826.65,280.894 1827.66,280.894 1828.66,280.894 1829.67,280.894 1830.67,280.894 1831.68,280.894 1832.69,280.894 1833.69,280.894 1834.7,280.894 1835.7,280.894 1836.71,280.894 1837.72,280.894 1838.72,280.894 1839.73,280.894 1840.73,280.894 1841.74,280.894 1842.74,280.894 1843.75,280.894 1844.76,280.894 1845.76,280.894 1846.77,280.894 1847.77,280.894 1848.78,280.894 1849.79,280.894 1850.79,280.894 1851.8,280.894 1852.8,280.894 1853.81,280.894 1854.82,280.894 1855.82,280.894 1856.83,280.894 1857.83,280.894 1858.84,280.894 1859.85,280.894 1860.85,280.894 1861.86,280.894 1862.86,280.894 1863.87,280.894 1864.88,280.894 1865.88,280.894 1866.89,280.894 1867.89,280.894 1868.9,280.894 1869.91,280.894 1870.91,280.894 1871.92,280.894 1872.92,280.894 1873.93,280.894 1874.93,280.894 1875.94,280.894 1876.95,280.894 1877.95,280.894 1878.96,280.894 1879.96,280.894 1880.97,280.894 1881.98,280.894 1882.98,280.894 1883.99,280.894 1884.99,280.894 1886,280.894 1887.01,280.894 1888.01,280.894 1889.02,280.894 1890.02,280.894 1891.03,280.894 1892.04,280.894 1893.04,280.894 1894.05,280.894 1895.05,280.894 1896.06,280.894 1897.07,280.894 1898.07,280.894 1899.08,280.894 1900.08,280.894 1901.09,280.894 1902.1,280.894 1903.1,280.894 1904.11,280.894 1905.11,280.894 1906.12,280.894 1907.12,280.894 1908.13,280.894 1909.14,280.894 1910.14,280.894 1911.15,280.894 1912.15,280.894 1913.16,280.894 1914.17,280.894 1915.17,280.894 1916.18,280.894 1917.18,280.894 1918.19,280.894 1919.2,280.894 1920.2,280.894 1921.21,280.894 1922.21,280.894 1923.22,280.894 1924.23,280.894 1925.23,280.894 1926.24,280.894 1927.24,280.894 1928.25,280.894 1929.26,280.894 1930.26,280.894 1931.27,280.894 1932.27,280.894 1933.28,280.894 1934.29,280.894 1935.29,280.894 1936.3,280.894 1937.3,280.894 1938.31,280.894 1939.31,280.894 1940.32,280.894 1941.33,280.894 1942.33,280.894 1943.34,280.894 1944.34,280.894 1945.35,280.894 1946.36,280.894 1947.36,280.894 1948.37,280.894 1949.37,280.894 1950.38,280.894 1951.39,280.894 1952.39,280.894 1953.4,280.894 1954.4,280.894 1955.41,280.894 1956.42,280.894 1957.42,280.894 1958.43,280.894 1959.43,280.894 1960.44,280.894 1961.45,280.894 1962.45,280.894 1963.46,280.894 1964.46,280.894 1965.47,280.894 1966.48,280.894 1967.48,280.894 1968.49,280.894 1969.49,280.894 1970.5,280.894 1971.5,280.894 1972.51,280.894 1973.52,280.894 1974.52,280.894 1975.53,280.894 1976.53,280.894 1977.54,280.894 1978.55,280.894 1979.55,280.894 1980.56,280.894 1981.56,280.894 1982.57,280.894 1983.58,280.894 1984.58,280.894 1985.59,280.894 1986.59,280.894 1987.6,280.894 1988.61,280.894 1989.61,280.894 1990.62,280.894 1991.62,280.894 1992.63,280.894 1993.64,280.894 1994.64,280.894 1995.65,280.894 1996.65,280.894 1997.66,280.894 1998.67,280.894 1999.67,280.894 2000.68,280.894 2001.68,280.894 2002.69,280.894 2003.69,280.894 2004.7,280.894 2005.71,280.894 2006.71,280.894 2007.72,280.894 2008.72,280.894 2009.73,280.894 2010.74,280.894 2011.74,280.894 2012.75,280.894 2013.75,280.894 2014.76,280.894 2015.77,280.894 2016.77,280.894 2017.78,280.894 2018.78,280.894 2019.79,280.894 2020.8,280.894 2021.8,280.894 2022.81,280.894 2023.81,280.894 2024.82,280.894 2025.83,280.894 2026.83,280.894 2027.84,280.894 2028.84,280.894 2029.85,280.894 2030.86,280.894 2031.86,280.894 2032.87,280.894 2033.87,280.894 2034.88,280.894 2035.89,280.894 2036.89,280.894 2037.9,280.894 2038.9,280.894 2039.91,280.894 2040.91,280.894 2041.92,280.894 2042.93,280.894 2043.93,280.894 2044.94,280.894 2045.94,280.894 2046.95,280.894 2047.96,280.894 2048.96,280.894 2049.97,280.894 2050.97,280.894 2051.98,280.894 2052.99,280.894 2053.99,280.894 2055,280.894 2056,280.894 2057.01,280.894 2058.02,280.894 2059.02,280.894 2060.03,280.894 2061.03,280.894 2062.04,280.894 2063.05,280.894 2064.05,280.894 2065.06,280.894 2066.06,280.894 2067.07,280.894 2068.08,280.894 2069.08,280.894 2070.09,280.894 2071.09,280.894 2072.1,280.894 2073.1,280.894 2074.11,280.894 2075.12,280.894 2076.12,280.894 2077.13,280.894 2078.13,280.894 2079.14,280.894 2080.15,280.894 2081.15,280.894 2082.16,280.894 2083.16,215.991 2084.17,215.991 2085.18,215.991 2086.18,215.991 2087.19,215.991 2088.19,215.991 2089.2,215.991 2090.21,215.991 2091.21,215.991 2092.22,215.991 2093.22,215.991 2094.23,215.991 2095.24,215.991 2096.24,215.991 2097.25,215.991 2098.25,215.991 2099.26,215.991 2100.27,215.991 2101.27,215.991 2102.28,215.991 2103.28,215.991 2104.29,215.991 2105.29,215.991 2106.3,215.991 2107.31,215.991 2108.31,215.991 2109.32,215.991 2110.32,215.991 2111.33,215.991 2112.34,215.991 2113.34,215.991 2114.35,215.991 2115.35,215.991 2116.36,215.991 2117.37,215.991 2118.37,215.991 2119.38,215.991 2120.38,215.991 2121.39,215.991 2122.4,215.991 2123.4,215.991 2124.41,215.991 2125.41,215.991 2126.42,215.991 2127.43,215.991 2128.43,215.991 2129.44,215.991 2130.44,215.991 2131.45,215.991 2132.46,215.991 2133.46,215.991 2134.47,215.991 2135.47,215.991 2136.48,215.991 2137.48,215.991 2138.49,215.991 2139.5,215.991 2140.5,215.991 2141.51,215.991 2142.51,215.991 2143.52,215.991 2144.53,215.991 2145.53,215.991 2146.54,215.991 2147.54,151.088 2148.55,151.088 2149.56,151.088 2150.56,151.088 2151.57,151.088 2152.57,151.088 2153.58,151.088 2154.59,151.088 2155.59,151.088 2156.6,151.088 2157.6,151.088 2158.61,151.088 2159.62,151.088 2160.62,151.088 2161.63,151.088 2162.63,151.088 2163.64,151.088 2164.65,151.088 2165.65,151.088 2166.66,151.088 2167.66,151.088 2168.67,151.088 2169.67,151.088 2170.68,151.088 2171.69,151.088 2172.69,151.088 2173.7,151.088 2174.7,151.088 2175.71,151.088 2176.72,151.088 2177.72,151.088 2178.73,151.088 2179.73,151.088 2180.74,151.088 2181.75,151.088 2182.75,151.088 2183.76,151.088 2184.76,151.088 2185.77,151.088 2186.78,151.088 2187.78,151.088 2188.79,151.088 2189.79,151.088 2190.8,151.088 2191.81,151.088 2192.81,151.088 2193.82,151.088 2194.82,151.088 2195.83,151.088 2196.84,151.088 2197.84,151.088 2198.85,151.088 2199.85,151.088 2200.86,151.088 2201.87,151.088 2202.87,151.088 2203.88,151.088 2204.88,86.1857 2205.89,86.1857 2206.89,86.1857 2207.9,86.1857 2208.91,86.1857 2209.91,86.1857 2210.92,86.1857 2211.92,86.1857 2212.93,86.1857 2213.94,86.1857 2214.94,86.1857 2215.95,86.1857 2216.95,86.1857 2217.96,86.1857 2218.97,86.1857 2219.97,86.1857 2220.98,86.1857 2221.98,86.1857 2222.99,86.1857 2224,86.1857 2225,86.1857 2226.01,86.1857 2227.01,86.1857 2228.02,86.1857 2229.03,86.1857 2230.03,86.1857 2231.04,86.1857 2232.04,86.1857 2233.05,86.1857 2234.06,86.1857 2235.06,86.1857 2236.07,86.1857 2237.07,86.1857 2238.08,86.1857 2239.08,86.1857 2240.09,86.1857 2241.1,86.1857 2242.1,86.1857 2243.11,86.1857 2244.11,86.1857 2245.12,86.1857 2246.13,86.1857 2247.13,86.1857 2248.14,86.1857 2249.14,86.1857 2250.15,86.1857 2251.16,86.1857 2252.16,86.1857 2253.17,86.1857 2254.17,86.1857 2255.18,86.1857 2256.19,86.1857 2257.19,86.1857 2258.2,86.1857 2259.2,86.1857 2260.21,86.1857 2261.22,86.1857 2262.22,86.1857 2263.23,86.1857 2264.23,86.1857 2265.24,86.1857 2266.25,86.1857 2267.25,86.1857 2268.26,86.1857 2269.26,86.1857 2270.27,86.1857 2271.27,86.1857 2272.28,86.1857 2273.29,86.1857 2274.29,86.1857 2275.3,86.1857 2276.3,86.1857 2277.31,86.1857 2278.32,86.1857 2279.32,86.1857 2280.33,86.1857 2281.33,86.1857 2282.34,86.1857 2283.35,86.1857 2284.35,86.1857 2285.36,86.1857 2286.36,86.1857 2287.37,86.1857 2288.38,86.1857 2289.38,86.1857 2290.39,86.1857 2291.39,86.1857 2292.4,86.1857 2293.41,86.1857 2294.41,86.1857 2295.42,86.1857 2296.42,86.1857 2297.43,86.1857 2298.44,86.1857 2299.44,86.1857 2300.45,86.1857 2301.45,86.1857 2302.46,86.1857 2303.46,86.1857 2304.47,86.1857 2305.48,86.1857 2306.48,86.1857 2307.49,86.1857 2308.49,86.1857 2309.5,86.1857 2310.51,86.1857 2311.51,86.1857 2312.52,86.1857 2313.52,86.1857 2314.53,86.1857 2315.54,86.1857 2316.54,86.1857 2317.55,86.1857 2318.55,86.1857 2319.56,86.1857 2320.57,86.1857 2321.57,86.1857 2322.58,86.1857 2323.58,86.1857 2324.59,86.1857 2325.6,86.1857 2326.6,86.1857 2327.61,86.1857 2328.61,86.1857 2329.62,86.1857 2330.63,86.1857 2331.63,86.1857 2332.64,86.1857 2333.64,86.1857 2334.65,86.1857 2335.65,86.1857 2336.66,86.1857 2337.67,86.1857 2338.67,86.1857 2339.68,86.1857 2340.68,86.1857 2341.69,86.1857 2342.7,86.1857 2343.7,86.1857 2344.71,86.1857 2345.71,86.1857 2346.72,86.1857 2347.73,86.1857 2348.73,86.1857 2349.74,86.1857 2350.74,86.1857 2351.75,86.1857 2352.76,86.1857 "/>
<path clip-path="url(#clip810)" d="M1975.5 1377.32 L2279.02 1377.32 L2279.02 1273.64 L1975.5 1273.64  Z" fill="#ffffff" fill-rule="evenodd" fill-opacity="1"/>
<polyline clip-path="url(#clip810)" style="stroke:#000000; stroke-linecap:round; stroke-linejoin:round; stroke-width:4; stroke-opacity:1; fill:none" points="1975.5,1377.32 2279.02,1377.32 2279.02,1273.64 1975.5,1273.64 1975.5,1377.32 "/>
<polyline clip-path="url(#clip810)" style="stroke:#009af9; stroke-linecap:round; stroke-linejoin:round; stroke-width:8; stroke-opacity:1; fill:none" points="2000.08,1325.48 2147.55,1325.48 "/>
<path clip-path="url(#clip810)" d="M2172.13 1308.2 L2178.42 1308.2 L2193.75 1337.11 L2193.75 1308.2 L2198.29 1308.2 L2198.29 1342.76 L2191.99 1342.76 L2176.66 1313.84 L2176.66 1342.76 L2172.13 1342.76 L2172.13 1308.2 Z" fill="#000000" fill-rule="nonzero" fill-opacity="1" /><path clip-path="url(#clip810)" d="M2217.64 1306.78 Q2214.53 1312.11 2213.03 1317.32 Q2211.53 1322.52 2211.53 1327.87 Q2211.53 1333.22 2213.03 1338.47 Q2214.56 1343.7 2217.64 1349.01 L2213.93 1349.01 Q2210.46 1343.57 2208.72 1338.31 Q2207.01 1333.06 2207.01 1327.87 Q2207.01 1322.71 2208.72 1317.48 Q2210.44 1312.25 2213.93 1306.78 L2217.64 1306.78 Z" fill="#000000" fill-rule="nonzero" fill-opacity="1" /><path clip-path="url(#clip810)" d="M2230.11 1309.47 L2230.11 1316.83 L2238.89 1316.83 L2238.89 1320.14 L2230.11 1320.14 L2230.11 1334.21 Q2230.11 1337.38 2230.97 1338.29 Q2231.85 1339.19 2234.51 1339.19 L2238.89 1339.19 L2238.89 1342.76 L2234.51 1342.76 Q2229.58 1342.76 2227.71 1340.93 Q2225.83 1339.07 2225.83 1334.21 L2225.83 1320.14 L2222.71 1320.14 L2222.71 1316.83 L2225.83 1316.83 L2225.83 1309.47 L2230.11 1309.47 Z" fill="#000000" fill-rule="nonzero" fill-opacity="1" /><path clip-path="url(#clip810)" d="M2243.82 1306.78 L2247.52 1306.78 Q2250.99 1312.25 2252.71 1317.48 Q2254.44 1322.71 2254.44 1327.87 Q2254.44 1333.06 2252.71 1338.31 Q2250.99 1343.57 2247.52 1349.01 L2243.82 1349.01 Q2246.9 1343.7 2248.4 1338.47 Q2249.93 1333.22 2249.93 1327.87 Q2249.93 1322.52 2248.4 1317.32 Q2246.9 1312.11 2243.82 1306.78 Z" fill="#000000" fill-rule="nonzero" fill-opacity="1" /></svg>
