<?xml version="1.0" encoding="utf-8"?>
<svg xmlns="http://www.w3.org/2000/svg" xmlns:xlink="http://www.w3.org/1999/xlink" width="600" height="400" viewBox="0 0 2400 1600">
<defs>
  <clipPath id="clip400">
    <rect x="0" y="0" width="2400" height="1600"/>
  </clipPath>
</defs>
<path clip-path="url(#clip400)" d="M0 1600 L2400 1600 L2400 0 L0 0  Z" fill="#ffffff" fill-rule="evenodd" fill-opacity="1"/>
<defs>
  <clipPath id="clip401">
    <rect x="480" y="0" width="1681" height="1600"/>
  </clipPath>
</defs>
<path clip-path="url(#clip400)" d="M138.959 1423.18 L2352.76 1423.18 L2352.76 47.2441 L138.959 47.2441  Z" fill="#ffffff" fill-rule="evenodd" fill-opacity="1"/>
<defs>
  <clipPath id="clip402">
    <rect x="138" y="47" width="2215" height="1377"/>
  </clipPath>
</defs>
<polyline clip-path="url(#clip402)" style="stroke:#000000; stroke-linecap:round; stroke-linejoin:round; stroke-width:2; stroke-opacity:0.1; fill:none" points="138.959,1423.18 138.959,47.2441 "/>
<polyline clip-path="url(#clip402)" style="stroke:#000000; stroke-linecap:round; stroke-linejoin:round; stroke-width:2; stroke-opacity:0.1; fill:none" points="581.719,1423.18 581.719,47.2441 "/>
<polyline clip-path="url(#clip402)" style="stroke:#000000; stroke-linecap:round; stroke-linejoin:round; stroke-width:2; stroke-opacity:0.1; fill:none" points="1024.48,1423.18 1024.48,47.2441 "/>
<polyline clip-path="url(#clip402)" style="stroke:#000000; stroke-linecap:round; stroke-linejoin:round; stroke-width:2; stroke-opacity:0.1; fill:none" points="1467.24,1423.18 1467.24,47.2441 "/>
<polyline clip-path="url(#clip402)" style="stroke:#000000; stroke-linecap:round; stroke-linejoin:round; stroke-width:2; stroke-opacity:0.1; fill:none" points="1910,1423.18 1910,47.2441 "/>
<polyline clip-path="url(#clip402)" style="stroke:#000000; stroke-linecap:round; stroke-linejoin:round; stroke-width:2; stroke-opacity:0.1; fill:none" points="2352.76,1423.18 2352.76,47.2441 "/>
<polyline clip-path="url(#clip400)" style="stroke:#000000; stroke-linecap:round; stroke-linejoin:round; stroke-width:4; stroke-opacity:1; fill:none" points="138.959,1423.18 2352.76,1423.18 "/>
<polyline clip-path="url(#clip400)" style="stroke:#000000; stroke-linecap:round; stroke-linejoin:round; stroke-width:4; stroke-opacity:1; fill:none" points="138.959,1423.18 138.959,1404.28 "/>
<polyline clip-path="url(#clip400)" style="stroke:#000000; stroke-linecap:round; stroke-linejoin:round; stroke-width:4; stroke-opacity:1; fill:none" points="581.719,1423.18 581.719,1404.28 "/>
<polyline clip-path="url(#clip400)" style="stroke:#000000; stroke-linecap:round; stroke-linejoin:round; stroke-width:4; stroke-opacity:1; fill:none" points="1024.48,1423.18 1024.48,1404.28 "/>
<polyline clip-path="url(#clip400)" style="stroke:#000000; stroke-linecap:round; stroke-linejoin:round; stroke-width:4; stroke-opacity:1; fill:none" points="1467.24,1423.18 1467.24,1404.28 "/>
<polyline clip-path="url(#clip400)" style="stroke:#000000; stroke-linecap:round; stroke-linejoin:round; stroke-width:4; stroke-opacity:1; fill:none" points="1910,1423.18 1910,1404.28 "/>
<polyline clip-path="url(#clip400)" style="stroke:#000000; stroke-linecap:round; stroke-linejoin:round; stroke-width:4; stroke-opacity:1; fill:none" points="2352.76,1423.18 2352.76,1404.28 "/>
<path clip-path="url(#clip400)" d="M138.959 1454.1 Q135.348 1454.1 133.52 1457.66 Q131.714 1461.2 131.714 1468.33 Q131.714 1475.44 133.52 1479.01 Q135.348 1482.55 138.959 1482.55 Q142.594 1482.55 144.399 1479.01 Q146.228 1475.44 146.228 1468.33 Q146.228 1461.2 144.399 1457.66 Q142.594 1454.1 138.959 1454.1 M138.959 1450.39 Q144.77 1450.39 147.825 1455 Q150.904 1459.58 150.904 1468.33 Q150.904 1477.06 147.825 1481.67 Q144.77 1486.25 138.959 1486.25 Q133.149 1486.25 130.071 1481.67 Q127.015 1477.06 127.015 1468.33 Q127.015 1459.58 130.071 1455 Q133.149 1450.39 138.959 1450.39 Z" fill="#000000" fill-rule="nonzero" fill-opacity="1" /><path clip-path="url(#clip400)" d="M576.372 1481.64 L592.691 1481.64 L592.691 1485.58 L570.747 1485.58 L570.747 1481.64 Q573.409 1478.89 577.992 1474.26 Q582.598 1469.61 583.779 1468.27 Q586.024 1465.74 586.904 1464.01 Q587.807 1462.25 587.807 1460.56 Q587.807 1457.8 585.862 1456.07 Q583.941 1454.33 580.839 1454.33 Q578.64 1454.33 576.186 1455.09 Q573.756 1455.86 570.978 1457.41 L570.978 1452.69 Q573.802 1451.55 576.256 1450.97 Q578.709 1450.39 580.747 1450.39 Q586.117 1450.39 589.311 1453.08 Q592.506 1455.77 592.506 1460.26 Q592.506 1462.39 591.696 1464.31 Q590.908 1466.2 588.802 1468.8 Q588.223 1469.47 585.121 1472.69 Q582.02 1475.88 576.372 1481.64 Z" fill="#000000" fill-rule="nonzero" fill-opacity="1" /><path clip-path="url(#clip400)" d="M1027.49 1455.09 L1015.68 1473.54 L1027.49 1473.54 L1027.49 1455.09 M1026.26 1451.02 L1032.14 1451.02 L1032.14 1473.54 L1037.07 1473.54 L1037.07 1477.43 L1032.14 1477.43 L1032.14 1485.58 L1027.49 1485.58 L1027.49 1477.43 L1011.89 1477.43 L1011.89 1472.92 L1026.26 1451.02 Z" fill="#000000" fill-rule="nonzero" fill-opacity="1" /><path clip-path="url(#clip400)" d="M1467.64 1466.44 Q1464.49 1466.44 1462.64 1468.59 Q1460.81 1470.74 1460.81 1474.49 Q1460.81 1478.22 1462.64 1480.39 Q1464.49 1482.55 1467.64 1482.55 Q1470.79 1482.55 1472.62 1480.39 Q1474.47 1478.22 1474.47 1474.49 Q1474.47 1470.74 1472.62 1468.59 Q1470.79 1466.44 1467.64 1466.44 M1476.92 1451.78 L1476.92 1456.04 Q1475.17 1455.21 1473.36 1454.77 Q1471.58 1454.33 1469.82 1454.33 Q1465.19 1454.33 1462.74 1457.45 Q1460.3 1460.58 1459.96 1466.9 Q1461.32 1464.89 1463.38 1463.82 Q1465.44 1462.73 1467.92 1462.73 Q1473.13 1462.73 1476.14 1465.9 Q1479.17 1469.05 1479.17 1474.49 Q1479.17 1479.82 1476.02 1483.03 Q1472.87 1486.25 1467.64 1486.25 Q1461.65 1486.25 1458.48 1481.67 Q1455.3 1477.06 1455.3 1468.33 Q1455.3 1460.14 1459.19 1455.28 Q1463.08 1450.39 1469.63 1450.39 Q1471.39 1450.39 1473.17 1450.74 Q1474.98 1451.09 1476.92 1451.78 Z" fill="#000000" fill-rule="nonzero" fill-opacity="1" /><path clip-path="url(#clip400)" d="M1910 1469.17 Q1906.66 1469.17 1904.74 1470.95 Q1902.84 1472.73 1902.84 1475.86 Q1902.84 1478.98 1904.74 1480.77 Q1906.66 1482.55 1910 1482.55 Q1913.33 1482.55 1915.25 1480.77 Q1917.17 1478.96 1917.17 1475.86 Q1917.17 1472.73 1915.25 1470.95 Q1913.35 1469.17 1910 1469.17 M1905.32 1467.18 Q1902.31 1466.44 1900.62 1464.38 Q1898.96 1462.32 1898.96 1459.35 Q1898.96 1455.21 1901.89 1452.8 Q1904.86 1450.39 1910 1450.39 Q1915.16 1450.39 1918.1 1452.8 Q1921.04 1455.21 1921.04 1459.35 Q1921.04 1462.32 1919.35 1464.38 Q1917.68 1466.44 1914.7 1467.18 Q1918.08 1467.96 1919.95 1470.26 Q1921.85 1472.55 1921.85 1475.86 Q1921.85 1480.88 1918.77 1483.57 Q1915.71 1486.25 1910 1486.25 Q1904.28 1486.25 1901.2 1483.57 Q1898.14 1480.88 1898.14 1475.86 Q1898.14 1472.55 1900.04 1470.26 Q1901.94 1467.96 1905.32 1467.18 M1903.61 1459.79 Q1903.61 1462.48 1905.27 1463.98 Q1906.96 1465.49 1910 1465.49 Q1913.01 1465.49 1914.7 1463.98 Q1916.41 1462.48 1916.41 1459.79 Q1916.41 1457.11 1914.7 1455.6 Q1913.01 1454.1 1910 1454.1 Q1906.96 1454.1 1905.27 1455.6 Q1903.61 1457.11 1903.61 1459.79 Z" fill="#000000" fill-rule="nonzero" fill-opacity="1" /><path clip-path="url(#clip400)" d="M2327.44 1481.64 L2335.08 1481.64 L2335.08 1455.28 L2326.77 1456.95 L2326.77 1452.69 L2335.04 1451.02 L2339.71 1451.02 L2339.71 1481.64 L2347.35 1481.64 L2347.35 1485.58 L2327.44 1485.58 L2327.44 1481.64 Z" fill="#000000" fill-rule="nonzero" fill-opacity="1" /><path clip-path="url(#clip400)" d="M2366.8 1454.1 Q2363.18 1454.1 2361.36 1457.66 Q2359.55 1461.2 2359.55 1468.33 Q2359.55 1475.44 2361.36 1479.01 Q2363.18 1482.55 2366.8 1482.55 Q2370.43 1482.55 2372.23 1479.01 Q2374.06 1475.44 2374.06 1468.33 Q2374.06 1461.2 2372.23 1457.66 Q2370.43 1454.1 2366.8 1454.1 M2366.8 1450.39 Q2372.61 1450.39 2375.66 1455 Q2378.74 1459.58 2378.74 1468.33 Q2378.74 1477.06 2375.66 1481.67 Q2372.61 1486.25 2366.8 1486.25 Q2360.99 1486.25 2357.91 1481.67 Q2354.85 1477.06 2354.85 1468.33 Q2354.85 1459.58 2357.91 1455 Q2360.99 1450.39 2366.8 1450.39 Z" fill="#000000" fill-rule="nonzero" fill-opacity="1" /><path clip-path="url(#clip400)" d="M1244.92 1522.27 L1244.92 1532.4 L1256.98 1532.4 L1256.98 1536.95 L1244.92 1536.95 L1244.92 1556.3 Q1244.92 1560.66 1246.1 1561.9 Q1247.31 1563.14 1250.97 1563.14 L1256.98 1563.14 L1256.98 1568.04 L1250.97 1568.04 Q1244.19 1568.04 1241.61 1565.53 Q1239.03 1562.98 1239.03 1556.3 L1239.03 1536.95 L1234.73 1536.95 L1234.73 1532.4 L1239.03 1532.4 L1239.03 1522.27 L1244.92 1522.27 Z" fill="#000000" fill-rule="nonzero" fill-opacity="1" /><polyline clip-path="url(#clip402)" style="stroke:#000000; stroke-linecap:round; stroke-linejoin:round; stroke-width:2; stroke-opacity:0.1; fill:none" points="138.959,1384.24 2352.76,1384.24 "/>
<polyline clip-path="url(#clip402)" style="stroke:#000000; stroke-linecap:round; stroke-linejoin:round; stroke-width:2; stroke-opacity:0.1; fill:none" points="138.959,1042.65 2352.76,1042.65 "/>
<polyline clip-path="url(#clip402)" style="stroke:#000000; stroke-linecap:round; stroke-linejoin:round; stroke-width:2; stroke-opacity:0.1; fill:none" points="138.959,701.053 2352.76,701.053 "/>
<polyline clip-path="url(#clip402)" style="stroke:#000000; stroke-linecap:round; stroke-linejoin:round; stroke-width:2; stroke-opacity:0.1; fill:none" points="138.959,359.46 2352.76,359.46 "/>
<polyline clip-path="url(#clip400)" style="stroke:#000000; stroke-linecap:round; stroke-linejoin:round; stroke-width:4; stroke-opacity:1; fill:none" points="138.959,1423.18 138.959,47.2441 "/>
<polyline clip-path="url(#clip400)" style="stroke:#000000; stroke-linecap:round; stroke-linejoin:round; stroke-width:4; stroke-opacity:1; fill:none" points="138.959,1384.24 157.857,1384.24 "/>
<polyline clip-path="url(#clip400)" style="stroke:#000000; stroke-linecap:round; stroke-linejoin:round; stroke-width:4; stroke-opacity:1; fill:none" points="138.959,1042.65 157.857,1042.65 "/>
<polyline clip-path="url(#clip400)" style="stroke:#000000; stroke-linecap:round; stroke-linejoin:round; stroke-width:4; stroke-opacity:1; fill:none" points="138.959,701.053 157.857,701.053 "/>
<polyline clip-path="url(#clip400)" style="stroke:#000000; stroke-linecap:round; stroke-linejoin:round; stroke-width:4; stroke-opacity:1; fill:none" points="138.959,359.46 157.857,359.46 "/>
<path clip-path="url(#clip400)" d="M91.0151 1370.04 Q87.404 1370.04 85.5753 1373.6 Q83.7697 1377.14 83.7697 1384.27 Q83.7697 1391.38 85.5753 1394.94 Q87.404 1398.49 91.0151 1398.49 Q94.6493 1398.49 96.4548 1394.94 Q98.2835 1391.38 98.2835 1384.27 Q98.2835 1377.14 96.4548 1373.6 Q94.6493 1370.04 91.0151 1370.04 M91.0151 1366.33 Q96.8252 1366.33 99.8808 1370.94 Q102.959 1375.52 102.959 1384.27 Q102.959 1393 99.8808 1397.61 Q96.8252 1402.19 91.0151 1402.19 Q85.2049 1402.19 82.1262 1397.61 Q79.0707 1393 79.0707 1384.27 Q79.0707 1375.52 82.1262 1370.94 Q85.2049 1366.33 91.0151 1366.33 Z" fill="#000000" fill-rule="nonzero" fill-opacity="1" /><path clip-path="url(#clip400)" d="M82.0568 1025.37 L100.413 1025.37 L100.413 1029.3 L86.3392 1029.3 L86.3392 1037.77 Q87.3577 1037.43 88.3762 1037.26 Q89.3947 1037.08 90.4132 1037.08 Q96.2002 1037.08 99.5798 1040.25 Q102.959 1043.42 102.959 1048.84 Q102.959 1054.42 99.4872 1057.52 Q96.015 1060.6 89.6956 1060.6 Q87.5197 1060.6 85.2512 1060.23 Q83.0058 1059.86 80.5984 1059.12 L80.5984 1054.42 Q82.6818 1055.55 84.904 1056.11 Q87.1262 1056.66 89.603 1056.66 Q93.6076 1056.66 95.9456 1054.56 Q98.2835 1052.45 98.2835 1048.84 Q98.2835 1045.23 95.9456 1043.12 Q93.6076 1041.01 89.603 1041.01 Q87.728 1041.01 85.8531 1041.43 Q84.0012 1041.85 82.0568 1042.73 L82.0568 1025.37 Z" fill="#000000" fill-rule="nonzero" fill-opacity="1" /><path clip-path="url(#clip400)" d="M51.6634 714.398 L59.3023 714.398 L59.3023 688.032 L50.9921 689.699 L50.9921 685.439 L59.256 683.773 L63.9319 683.773 L63.9319 714.398 L71.5707 714.398 L71.5707 718.333 L51.6634 718.333 L51.6634 714.398 Z" fill="#000000" fill-rule="nonzero" fill-opacity="1" /><path clip-path="url(#clip400)" d="M91.0151 686.851 Q87.404 686.851 85.5753 690.416 Q83.7697 693.958 83.7697 701.087 Q83.7697 708.194 85.5753 711.759 Q87.404 715.3 91.0151 715.3 Q94.6493 715.3 96.4548 711.759 Q98.2835 708.194 98.2835 701.087 Q98.2835 693.958 96.4548 690.416 Q94.6493 686.851 91.0151 686.851 M91.0151 683.148 Q96.8252 683.148 99.8808 687.754 Q102.959 692.337 102.959 701.087 Q102.959 709.814 99.8808 714.421 Q96.8252 719.004 91.0151 719.004 Q85.2049 719.004 82.1262 714.421 Q79.0707 709.814 79.0707 701.087 Q79.0707 692.337 82.1262 687.754 Q85.2049 683.148 91.0151 683.148 Z" fill="#000000" fill-rule="nonzero" fill-opacity="1" /><path clip-path="url(#clip400)" d="M52.6588 372.805 L60.2976 372.805 L60.2976 346.439 L51.9875 348.106 L51.9875 343.847 L60.2513 342.18 L64.9272 342.18 L64.9272 372.805 L72.5661 372.805 L72.5661 376.74 L52.6588 376.74 L52.6588 372.805 Z" fill="#000000" fill-rule="nonzero" fill-opacity="1" /><path clip-path="url(#clip400)" d="M82.0568 342.18 L100.413 342.18 L100.413 346.115 L86.3392 346.115 L86.3392 354.587 Q87.3577 354.24 88.3762 354.078 Q89.3947 353.893 90.4132 353.893 Q96.2002 353.893 99.5798 357.064 Q102.959 360.235 102.959 365.652 Q102.959 371.231 99.4872 374.333 Q96.015 377.411 89.6956 377.411 Q87.5197 377.411 85.2512 377.041 Q83.0058 376.67 80.5984 375.93 L80.5984 371.231 Q82.6818 372.365 84.904 372.92 Q87.1262 373.476 89.603 373.476 Q93.6076 373.476 95.9456 371.37 Q98.2835 369.263 98.2835 365.652 Q98.2835 362.041 95.9456 359.934 Q93.6076 357.828 89.603 357.828 Q87.728 357.828 85.8531 358.245 Q84.0012 358.661 82.0568 359.541 L82.0568 342.18 Z" fill="#000000" fill-rule="nonzero" fill-opacity="1" /><polyline clip-path="url(#clip402)" style="stroke:#009af9; stroke-linecap:round; stroke-linejoin:round; stroke-width:8; stroke-opacity:1; fill:none" points="138.959,1384.24 140.014,1384.24 141.069,1384.24 142.124,1384.24 143.178,1384.24 144.233,1384.24 145.288,1384.24 146.342,1384.24 147.397,1384.24 148.452,1384.24 149.506,1384.24 150.561,1384.24 151.616,1384.24 152.67,1384.24 153.725,1384.24 154.78,1384.24 155.834,1384.24 156.889,1384.24 157.944,1384.24 158.999,1384.24 160.053,1384.24 161.108,1384.24 162.163,1384.24 163.217,1384.24 164.272,1384.24 165.327,1384.24 166.381,1384.24 167.436,1384.24 168.491,1384.24 169.545,1384.24 170.6,1384.24 171.655,1315.92 172.71,1315.92 173.764,1315.92 174.819,1315.92 175.874,1315.92 176.928,1315.92 177.983,1315.92 179.038,1315.92 180.092,1315.92 181.147,1315.92 182.202,1315.92 183.256,1315.92 184.311,1315.92 185.366,1315.92 186.421,1315.92 187.475,1315.92 188.53,1315.92 189.585,1315.92 190.639,1315.92 191.694,1315.92 192.749,1315.92 193.803,1315.92 194.858,1315.92 195.913,1315.92 196.967,1315.92 198.022,1315.92 199.077,1315.92 200.132,1315.92 201.186,1315.92 202.241,1315.92 203.296,1315.92 204.35,1315.92 205.405,1315.92 206.46,1315.92 207.514,1315.92 208.569,1315.92 209.624,1315.92 210.678,1315.92 211.733,1315.92 212.788,1315.92 213.843,1315.92 214.897,1315.92 215.952,1315.92 217.007,1315.92 218.061,1315.92 219.116,1315.92 220.171,1315.92 221.225,1315.92 222.28,1315.92 223.335,1315.92 224.389,1315.92 225.444,1315.92 226.499,1315.92 227.553,1315.92 228.608,1315.92 229.663,1315.92 230.718,1315.92 231.772,1315.92 232.827,1315.92 233.882,1315.92 234.936,1315.92 235.991,1315.92 237.046,1315.92 238.1,1315.92 239.155,1315.92 240.21,1315.92 241.264,1315.92 242.319,1315.92 243.374,1315.92 244.429,1315.92 245.483,1315.92 246.538,1315.92 247.593,1315.92 248.647,1315.92 249.702,1315.92 250.757,1315.92 251.811,1315.92 252.866,1315.92 253.921,1315.92 254.975,1315.92 256.03,1315.92 257.085,1315.92 258.14,1315.92 259.194,1315.92 260.249,1315.92 261.304,1315.92 262.358,1315.92 263.413,1315.92 264.468,1315.92 265.522,1315.92 266.577,1315.92 267.632,1315.92 268.686,1315.92 269.741,1315.92 270.796,1315.92 271.851,1315.92 272.905,1315.92 273.96,1315.92 275.015,1315.92 276.069,1315.92 277.124,1315.92 278.179,1315.92 279.233,1315.92 280.288,1315.92 281.343,1315.92 282.397,1315.92 283.452,1315.92 284.507,1315.92 285.561,1315.92 286.616,1315.92 287.671,1315.92 288.726,1315.92 289.78,1315.92 290.835,1315.92 291.89,1315.92 292.944,1315.92 293.999,1315.92 295.054,1315.92 296.108,1315.92 297.163,1315.92 298.218,1315.92 299.272,1315.92 300.327,1247.6 301.382,1247.6 302.437,1247.6 303.491,1247.6 304.546,1247.6 305.601,1247.6 306.655,1247.6 307.71,1247.6 308.765,1247.6 309.819,1247.6 310.874,1247.6 311.929,1247.6 312.983,1247.6 314.038,1247.6 315.093,1247.6 316.148,1247.6 317.202,1247.6 318.257,1247.6 319.312,1247.6 320.366,1247.6 321.421,1247.6 322.476,1247.6 323.53,1247.6 324.585,1247.6 325.64,1247.6 326.694,1247.6 327.749,1247.6 328.804,1247.6 329.859,1247.6 330.913,1247.6 331.968,1247.6 333.023,1247.6 334.077,1247.6 335.132,1247.6 336.187,1247.6 337.241,1247.6 338.296,1247.6 339.351,1247.6 340.405,1247.6 341.46,1247.6 342.515,1247.6 343.569,1247.6 344.624,1247.6 345.679,1247.6 346.734,1247.6 347.788,1247.6 348.843,1179.28 349.898,1179.28 350.952,1179.28 352.007,1179.28 353.062,1179.28 354.116,1179.28 355.171,1179.28 356.226,1179.28 357.28,1179.28 358.335,1179.28 359.39,1179.28 360.445,1179.28 361.499,1179.28 362.554,1179.28 363.609,1179.28 364.663,1179.28 365.718,1179.28 366.773,1179.28 367.827,1179.28 368.882,1179.28 369.937,1179.28 370.991,1179.28 372.046,1179.28 373.101,1179.28 374.156,1179.28 375.21,1179.28 376.265,1179.28 377.32,1179.28 378.374,1179.28 379.429,1179.28 380.484,1179.28 381.538,1179.28 382.593,1179.28 383.648,1179.28 384.702,1179.28 385.757,1179.28 386.812,1179.28 387.867,1179.28 388.921,1179.28 389.976,1179.28 391.031,1179.28 392.085,1179.28 393.14,1179.28 394.195,1179.28 395.249,1179.28 396.304,1179.28 397.359,1179.28 398.413,1179.28 399.468,1179.28 400.523,1179.28 401.578,1179.28 402.632,1179.28 403.687,1179.28 404.742,1179.28 405.796,1179.28 406.851,1179.28 407.906,1179.28 408.96,1179.28 410.015,1179.28 411.07,1179.28 412.124,1179.28 413.179,1179.28 414.234,1179.28 415.288,1179.28 416.343,1179.28 417.398,1179.28 418.453,1179.28 419.507,1179.28 420.562,1179.28 421.617,1179.28 422.671,1179.28 423.726,1179.28 424.781,1179.28 425.835,1179.28 426.89,1179.28 427.945,1179.28 428.999,1179.28 430.054,1179.28 431.109,1179.28 432.164,1179.28 433.218,1179.28 434.273,1179.28 435.328,1179.28 436.382,1179.28 437.437,1179.28 438.492,1179.28 439.546,1179.28 440.601,1179.28 441.656,1179.28 442.71,1179.28 443.765,1179.28 444.82,1179.28 445.875,1179.28 446.929,1179.28 447.984,1179.28 449.039,1179.28 450.093,1179.28 451.148,1179.28 452.203,1179.28 453.257,1179.28 454.312,1179.28 455.367,1179.28 456.421,1179.28 457.476,1179.28 458.531,1179.28 459.586,1179.28 460.64,1179.28 461.695,1179.28 462.75,1179.28 463.804,1179.28 464.859,1179.28 465.914,1179.28 466.968,1179.28 468.023,1179.28 469.078,1179.28 470.132,1179.28 471.187,1179.28 472.242,1179.28 473.296,1179.28 474.351,1179.28 475.406,1179.28 476.461,1179.28 477.515,1179.28 478.57,1179.28 479.625,1179.28 480.679,1179.28 481.734,1179.28 482.789,1179.28 483.843,1179.28 484.898,1179.28 485.953,1179.28 487.007,1179.28 488.062,1179.28 489.117,1179.28 490.172,1179.28 491.226,1179.28 492.281,1179.28 493.336,1179.28 494.39,1179.28 495.445,1179.28 496.5,1179.28 497.554,1179.28 498.609,1179.28 499.664,1179.28 500.718,1179.28 501.773,1179.28 502.828,1179.28 503.883,1179.28 504.937,1179.28 505.992,1179.28 507.047,1179.28 508.101,1179.28 509.156,1179.28 510.211,1179.28 511.265,1179.28 512.32,1179.28 513.375,1179.28 514.429,1179.28 515.484,1179.28 516.539,1179.28 517.594,1179.28 518.648,1110.96 519.703,1110.96 520.758,1110.96 521.812,1110.96 522.867,1110.96 523.922,1110.96 524.976,1110.96 526.031,1110.96 527.086,1110.96 528.14,1110.96 529.195,1110.96 530.25,1110.96 531.305,1110.96 532.359,1110.96 533.414,1110.96 534.469,1110.96 535.523,1110.96 536.578,1110.96 537.633,1110.96 538.687,1042.65 539.742,1042.65 540.797,1042.65 541.851,1042.65 542.906,1042.65 543.961,1042.65 545.015,1042.65 546.07,1042.65 547.125,1042.65 548.18,1042.65 549.234,1042.65 550.289,1042.65 551.344,1042.65 552.398,1042.65 553.453,1042.65 554.508,1042.65 555.562,1042.65 556.617,1042.65 557.672,1042.65 558.726,1042.65 559.781,1042.65 560.836,1042.65 561.891,1042.65 562.945,1042.65 564,1042.65 565.055,1042.65 566.109,1042.65 567.164,1042.65 568.219,1042.65 569.273,1042.65 570.328,1042.65 571.383,1042.65 572.437,1042.65 573.492,1042.65 574.547,1042.65 575.602,1042.65 576.656,1042.65 577.711,1042.65 578.766,1042.65 579.82,1042.65 580.875,1042.65 581.93,1042.65 582.984,1042.65 584.039,1042.65 585.094,1042.65 586.148,1042.65 587.203,1042.65 588.258,1042.65 589.313,1042.65 590.367,1042.65 591.422,1042.65 592.477,1042.65 593.531,1042.65 594.586,1042.65 595.641,1042.65 596.695,1042.65 597.75,1042.65 598.805,1042.65 599.859,1042.65 600.914,1042.65 601.969,1042.65 603.023,1042.65 604.078,1042.65 605.133,1042.65 606.188,1042.65 607.242,1042.65 608.297,1042.65 609.352,1042.65 610.406,1042.65 611.461,1042.65 612.516,1042.65 613.57,1042.65 614.625,1042.65 615.68,1042.65 616.734,1042.65 617.789,1042.65 618.844,1042.65 619.899,1042.65 620.953,1042.65 622.008,1042.65 623.063,1042.65 624.117,1042.65 625.172,1042.65 626.227,1042.65 627.281,1042.65 628.336,1042.65 629.391,1042.65 630.445,1042.65 631.5,1042.65 632.555,1042.65 633.61,1042.65 634.664,1042.65 635.719,1042.65 636.774,1042.65 637.828,1042.65 638.883,1042.65 639.938,1042.65 640.992,1042.65 642.047,1042.65 643.102,1042.65 644.156,1042.65 645.211,1042.65 646.266,1042.65 647.321,1042.65 648.375,1042.65 649.43,1042.65 650.485,1042.65 651.539,1042.65 652.594,1042.65 653.649,1042.65 654.703,1042.65 655.758,1042.65 656.813,1042.65 657.867,1042.65 658.922,1042.65 659.977,1042.65 661.031,1042.65 662.086,1042.65 663.141,1042.65 664.196,1042.65 665.25,1042.65 666.305,1042.65 667.36,1042.65 668.414,1042.65 669.469,1042.65 670.524,1042.65 671.578,1042.65 672.633,1042.65 673.688,1042.65 674.742,1042.65 675.797,1042.65 676.852,1042.65 677.907,1042.65 678.961,1042.65 680.016,1042.65 681.071,1042.65 682.125,1042.65 683.18,1042.65 684.235,1042.65 685.289,1042.65 686.344,1042.65 687.399,1042.65 688.453,1042.65 689.508,1042.65 690.563,1042.65 691.618,1042.65 692.672,1042.65 693.727,1042.65 694.782,1042.65 695.836,1042.65 696.891,1042.65 697.946,1042.65 699,1042.65 700.055,1042.65 701.11,1042.65 702.164,1042.65 703.219,1042.65 704.274,1042.65 705.329,1042.65 706.383,1042.65 707.438,1042.65 708.493,1042.65 709.547,1042.65 710.602,1042.65 711.657,1042.65 712.711,1042.65 713.766,1042.65 714.821,1042.65 715.875,1042.65 716.93,1042.65 717.985,1042.65 719.04,1042.65 720.094,1042.65 721.149,1042.65 722.204,1042.65 723.258,1042.65 724.313,1042.65 725.368,1042.65 726.422,1042.65 727.477,1042.65 728.532,1042.65 729.586,1042.65 730.641,1042.65 731.696,1042.65 732.75,1042.65 733.805,1042.65 734.86,1042.65 735.915,1042.65 736.969,1042.65 738.024,1042.65 739.079,1042.65 740.133,1042.65 741.188,1042.65 742.243,1042.65 743.297,1042.65 744.352,1042.65 745.407,1042.65 746.461,1042.65 747.516,1042.65 748.571,1042.65 749.626,1042.65 750.68,1042.65 751.735,1042.65 752.79,1042.65 753.844,1042.65 754.899,1042.65 755.954,1042.65 757.008,1042.65 758.063,1042.65 759.118,1042.65 760.172,1042.65 761.227,1042.65 762.282,1042.65 763.337,1042.65 764.391,1042.65 765.446,1042.65 766.501,1042.65 767.555,1042.65 768.61,1042.65 769.665,1042.65 770.719,1042.65 771.774,1042.65 772.829,1042.65 773.883,1042.65 774.938,1042.65 775.993,1042.65 777.048,1042.65 778.102,1042.65 779.157,1042.65 780.212,1042.65 781.266,1042.65 782.321,1042.65 783.376,1042.65 784.43,1042.65 785.485,1042.65 786.54,1042.65 787.594,1042.65 788.649,1042.65 789.704,1042.65 790.758,974.327 791.813,974.327 792.868,974.327 793.923,974.327 794.977,974.327 796.032,974.327 797.087,974.327 798.141,974.327 799.196,974.327 800.251,974.327 801.305,974.327 802.36,974.327 803.415,974.327 804.469,974.327 805.524,974.327 806.579,974.327 807.634,974.327 808.688,974.327 809.743,974.327 810.798,974.327 811.852,974.327 812.907,974.327 813.962,974.327 815.016,974.327 816.071,974.327 817.126,974.327 818.18,974.327 819.235,974.327 820.29,974.327 821.345,974.327 822.399,974.327 823.454,974.327 824.509,974.327 825.563,974.327 826.618,974.327 827.673,974.327 828.727,974.327 829.782,974.327 830.837,974.327 831.891,974.327 832.946,974.327 834.001,974.327 835.056,974.327 836.11,974.327 837.165,974.327 838.22,974.327 839.274,974.327 840.329,974.327 841.384,974.327 842.438,974.327 843.493,974.327 844.548,974.327 845.602,974.327 846.657,974.327 847.712,974.327 848.767,974.327 849.821,974.327 850.876,974.327 851.931,974.327 852.985,974.327 854.04,974.327 855.095,974.327 856.149,974.327 857.204,906.008 858.259,906.008 859.313,906.008 860.368,906.008 861.423,906.008 862.477,906.008 863.532,906.008 864.587,906.008 865.642,906.008 866.696,906.008 867.751,906.008 868.806,906.008 869.86,906.008 870.915,906.008 871.97,906.008 873.024,906.008 874.079,906.008 875.134,906.008 876.188,906.008 877.243,906.008 878.298,906.008 879.353,906.008 880.407,906.008 881.462,906.008 882.517,906.008 883.571,906.008 884.626,906.008 885.681,906.008 886.735,906.008 887.79,906.008 888.845,906.008 889.899,906.008 890.954,906.008 892.009,906.008 893.064,906.008 894.118,906.008 895.173,906.008 896.228,906.008 897.282,906.008 898.337,906.008 899.392,906.008 900.446,906.008 901.501,906.008 902.556,906.008 903.61,906.008 904.665,906.008 905.72,906.008 906.775,906.008 907.829,906.008 908.884,906.008 909.939,906.008 910.993,906.008 912.048,906.008 913.103,906.008 914.157,906.008 915.212,906.008 916.267,906.008 917.321,906.008 918.376,906.008 919.431,906.008 920.485,906.008 921.54,906.008 922.595,906.008 923.65,906.008 924.704,906.008 925.759,906.008 926.814,906.008 927.868,906.008 928.923,906.008 929.978,906.008 931.032,906.008 932.087,906.008 933.142,906.008 934.196,906.008 935.251,906.008 936.306,906.008 937.361,906.008 938.415,906.008 939.47,906.008 940.525,906.008 941.579,906.008 942.634,906.008 943.689,906.008 944.743,906.008 945.798,906.008 946.853,906.008 947.907,906.008 948.962,906.008 950.017,906.008 951.072,906.008 952.126,906.008 953.181,906.008 954.236,906.008 955.29,906.008 956.345,906.008 957.4,906.008 958.454,906.008 959.509,906.008 960.564,906.008 961.618,906.008 962.673,906.008 963.728,906.008 964.783,906.008 965.837,906.008 966.892,906.008 967.947,906.008 969.001,906.008 970.056,906.008 971.111,906.008 972.165,906.008 973.22,906.008 974.275,906.008 975.329,906.008 976.384,906.008 977.439,906.008 978.493,906.008 979.548,906.008 980.603,906.008 981.658,906.008 982.712,906.008 983.767,906.008 984.822,906.008 985.876,906.008 986.931,906.008 987.986,906.008 989.04,906.008 990.095,906.008 991.15,906.008 992.204,906.008 993.259,906.008 994.314,906.008 995.369,906.008 996.423,906.008 997.478,906.008 998.533,906.008 999.587,906.008 1000.64,906.008 1001.7,906.008 1002.75,906.008 1003.81,906.008 1004.86,906.008 1005.92,906.008 1006.97,906.008 1008.02,906.008 1009.08,906.008 1010.13,906.008 1011.19,906.008 1012.24,906.008 1013.3,906.008 1014.35,906.008 1015.41,906.008 1016.46,906.008 1017.52,906.008 1018.57,906.008 1019.63,906.008 1020.68,906.008 1021.74,906.008 1022.79,906.008 1023.85,906.008 1024.9,906.008 1025.95,906.008 1027.01,906.008 1028.06,906.008 1029.12,906.008 1030.17,906.008 1031.23,906.008 1032.28,906.008 1033.34,906.008 1034.39,906.008 1035.45,906.008 1036.5,906.008 1037.56,906.008 1038.61,906.008 1039.67,906.008 1040.72,906.008 1041.77,906.008 1042.83,906.008 1043.88,906.008 1044.94,906.008 1045.99,906.008 1047.05,906.008 1048.1,906.008 1049.16,906.008 1050.21,906.008 1051.27,906.008 1052.32,837.69 1053.38,837.69 1054.43,837.69 1055.49,837.69 1056.54,837.69 1057.6,837.69 1058.65,837.69 1059.7,837.69 1060.76,837.69 1061.81,837.69 1062.87,837.69 1063.92,837.69 1064.98,837.69 1066.03,837.69 1067.09,837.69 1068.14,837.69 1069.2,837.69 1070.25,837.69 1071.31,837.69 1072.36,837.69 1073.42,837.69 1074.47,837.69 1075.53,837.69 1076.58,837.69 1077.63,837.69 1078.69,837.69 1079.74,837.69 1080.8,837.69 1081.85,837.69 1082.91,837.69 1083.96,837.69 1085.02,837.69 1086.07,837.69 1087.13,837.69 1088.18,837.69 1089.24,837.69 1090.29,837.69 1091.35,837.69 1092.4,837.69 1093.45,837.69 1094.51,837.69 1095.56,837.69 1096.62,837.69 1097.67,837.69 1098.73,837.69 1099.78,837.69 1100.84,837.69 1101.89,837.69 1102.95,837.69 1104,837.69 1105.06,769.371 1106.11,769.371 1107.17,769.371 1108.22,769.371 1109.28,769.371 1110.33,769.371 1111.38,769.371 1112.44,769.371 1113.49,769.371 1114.55,769.371 1115.6,769.371 1116.66,769.371 1117.71,769.371 1118.77,769.371 1119.82,769.371 1120.88,769.371 1121.93,769.371 1122.99,769.371 1124.04,769.371 1125.1,769.371 1126.15,769.371 1127.2,769.371 1128.26,769.371 1129.31,769.371 1130.37,769.371 1131.42,769.371 1132.48,769.371 1133.53,769.371 1134.59,769.371 1135.64,769.371 1136.7,769.371 1137.75,769.371 1138.81,769.371 1139.86,769.371 1140.92,769.371 1141.97,769.371 1143.03,769.371 1144.08,769.371 1145.13,769.371 1146.19,769.371 1147.24,769.371 1148.3,769.371 1149.35,769.371 1150.41,769.371 1151.46,769.371 1152.52,769.371 1153.57,769.371 1154.63,769.371 1155.68,769.371 1156.74,769.371 1157.79,769.371 1158.85,769.371 1159.9,769.371 1160.96,769.371 1162.01,769.371 1163.06,769.371 1164.12,769.371 1165.17,769.371 1166.23,769.371 1167.28,769.371 1168.34,769.371 1169.39,769.371 1170.45,769.371 1171.5,769.371 1172.56,769.371 1173.61,769.371 1174.67,769.371 1175.72,769.371 1176.78,769.371 1177.83,769.371 1178.88,769.371 1179.94,769.371 1180.99,769.371 1182.05,769.371 1183.1,769.371 1184.16,769.371 1185.21,769.371 1186.27,769.371 1187.32,769.371 1188.38,701.053 1189.43,701.053 1190.49,701.053 1191.54,701.053 1192.6,701.053 1193.65,701.053 1194.71,701.053 1195.76,701.053 1196.81,701.053 1197.87,701.053 1198.92,701.053 1199.98,701.053 1201.03,701.053 1202.09,701.053 1203.14,701.053 1204.2,701.053 1205.25,701.053 1206.31,701.053 1207.36,701.053 1208.42,701.053 1209.47,701.053 1210.53,701.053 1211.58,701.053 1212.63,701.053 1213.69,701.053 1214.74,701.053 1215.8,701.053 1216.85,701.053 1217.91,701.053 1218.96,701.053 1220.02,701.053 1221.07,701.053 1222.13,701.053 1223.18,701.053 1224.24,701.053 1225.29,701.053 1226.35,701.053 1227.4,701.053 1228.46,701.053 1229.51,701.053 1230.56,701.053 1231.62,701.053 1232.67,701.053 1233.73,701.053 1234.78,701.053 1235.84,701.053 1236.89,701.053 1237.95,701.053 1239,701.053 1240.06,701.053 1241.11,701.053 1242.17,701.053 1243.22,701.053 1244.28,701.053 1245.33,701.053 1246.39,701.053 1247.44,701.053 1248.49,701.053 1249.55,701.053 1250.6,632.734 1251.66,632.734 1252.71,632.734 1253.77,632.734 1254.82,632.734 1255.88,632.734 1256.93,632.734 1257.99,632.734 1259.04,632.734 1260.1,632.734 1261.15,632.734 1262.21,632.734 1263.26,632.734 1264.31,632.734 1265.37,632.734 1266.42,632.734 1267.48,632.734 1268.53,632.734 1269.59,632.734 1270.64,632.734 1271.7,632.734 1272.75,632.734 1273.81,632.734 1274.86,632.734 1275.92,632.734 1276.97,632.734 1278.03,632.734 1279.08,632.734 1280.14,632.734 1281.19,632.734 1282.24,632.734 1283.3,632.734 1284.35,632.734 1285.41,632.734 1286.46,632.734 1287.52,632.734 1288.57,632.734 1289.63,632.734 1290.68,632.734 1291.74,632.734 1292.79,632.734 1293.85,632.734 1294.9,632.734 1295.96,632.734 1297.01,632.734 1298.06,632.734 1299.12,632.734 1300.17,632.734 1301.23,632.734 1302.28,632.734 1303.34,632.734 1304.39,632.734 1305.45,632.734 1306.5,632.734 1307.56,632.734 1308.61,632.734 1309.67,632.734 1310.72,632.734 1311.78,632.734 1312.83,632.734 1313.89,632.734 1314.94,632.734 1315.99,632.734 1317.05,632.734 1318.1,632.734 1319.16,632.734 1320.21,632.734 1321.27,632.734 1322.32,632.734 1323.38,632.734 1324.43,632.734 1325.49,632.734 1326.54,632.734 1327.6,632.734 1328.65,632.734 1329.71,632.734 1330.76,632.734 1331.81,632.734 1332.87,632.734 1333.92,632.734 1334.98,632.734 1336.03,632.734 1337.09,632.734 1338.14,632.734 1339.2,632.734 1340.25,632.734 1341.31,632.734 1342.36,632.734 1343.42,632.734 1344.47,632.734 1345.53,632.734 1346.58,632.734 1347.64,632.734 1348.69,632.734 1349.74,632.734 1350.8,632.734 1351.85,632.734 1352.91,632.734 1353.96,632.734 1355.02,632.734 1356.07,632.734 1357.13,632.734 1358.18,632.734 1359.24,632.734 1360.29,632.734 1361.35,632.734 1362.4,632.734 1363.46,632.734 1364.51,632.734 1365.57,632.734 1366.62,632.734 1367.67,632.734 1368.73,632.734 1369.78,632.734 1370.84,632.734 1371.89,632.734 1372.95,632.734 1374,632.734 1375.06,632.734 1376.11,632.734 1377.17,632.734 1378.22,632.734 1379.28,632.734 1380.33,632.734 1381.39,632.734 1382.44,632.734 1383.49,632.734 1384.55,632.734 1385.6,632.734 1386.66,632.734 1387.71,632.734 1388.77,632.734 1389.82,632.734 1390.88,632.734 1391.93,632.734 1392.99,632.734 1394.04,632.734 1395.1,632.734 1396.15,632.734 1397.21,632.734 1398.26,632.734 1399.32,632.734 1400.37,632.734 1401.42,632.734 1402.48,632.734 1403.53,632.734 1404.59,632.734 1405.64,632.734 1406.7,632.734 1407.75,632.734 1408.81,632.734 1409.86,564.416 1410.92,564.416 1411.97,564.416 1413.03,564.416 1414.08,564.416 1415.14,564.416 1416.19,564.416 1417.24,564.416 1418.3,564.416 1419.35,564.416 1420.41,564.416 1421.46,564.416 1422.52,564.416 1423.57,564.416 1424.63,564.416 1425.68,564.416 1426.74,564.416 1427.79,564.416 1428.85,564.416 1429.9,564.416 1430.96,564.416 1432.01,564.416 1433.07,564.416 1434.12,564.416 1435.17,564.416 1436.23,564.416 1437.28,564.416 1438.34,564.416 1439.39,564.416 1440.45,564.416 1441.5,564.416 1442.56,564.416 1443.61,564.416 1444.67,564.416 1445.72,564.416 1446.78,564.416 1447.83,564.416 1448.89,564.416 1449.94,564.416 1451,564.416 1452.05,564.416 1453.1,564.416 1454.16,564.416 1455.21,564.416 1456.27,564.416 1457.32,564.416 1458.38,564.416 1459.43,564.416 1460.49,564.416 1461.54,564.416 1462.6,564.416 1463.65,564.416 1464.71,564.416 1465.76,564.416 1466.82,564.416 1467.87,564.416 1468.92,564.416 1469.98,564.416 1471.03,564.416 1472.09,564.416 1473.14,564.416 1474.2,564.416 1475.25,564.416 1476.31,564.416 1477.36,564.416 1478.42,564.416 1479.47,564.416 1480.53,564.416 1481.58,564.416 1482.64,564.416 1483.69,564.416 1484.75,564.416 1485.8,564.416 1486.85,564.416 1487.91,564.416 1488.96,564.416 1490.02,564.416 1491.07,564.416 1492.13,564.416 1493.18,564.416 1494.24,564.416 1495.29,564.416 1496.35,564.416 1497.4,564.416 1498.46,564.416 1499.51,564.416 1500.57,564.416 1501.62,564.416 1502.67,564.416 1503.73,564.416 1504.78,564.416 1505.84,564.416 1506.89,564.416 1507.95,564.416 1509,564.416 1510.06,564.416 1511.11,564.416 1512.17,564.416 1513.22,564.416 1514.28,564.416 1515.33,564.416 1516.39,564.416 1517.44,564.416 1518.5,564.416 1519.55,564.416 1520.6,564.416 1521.66,564.416 1522.71,564.416 1523.77,564.416 1524.82,564.416 1525.88,564.416 1526.93,564.416 1527.99,564.416 1529.04,564.416 1530.1,564.416 1531.15,564.416 1532.21,564.416 1533.26,564.416 1534.32,564.416 1535.37,564.416 1536.43,564.416 1537.48,564.416 1538.53,564.416 1539.59,564.416 1540.64,564.416 1541.7,564.416 1542.75,564.416 1543.81,564.416 1544.86,564.416 1545.92,564.416 1546.97,564.416 1548.03,564.416 1549.08,564.416 1550.14,564.416 1551.19,564.416 1552.25,564.416 1553.3,564.416 1554.35,564.416 1555.41,564.416 1556.46,564.416 1557.52,564.416 1558.57,564.416 1559.63,564.416 1560.68,564.416 1561.74,564.416 1562.79,564.416 1563.85,564.416 1564.9,564.416 1565.96,564.416 1567.01,564.416 1568.07,564.416 1569.12,564.416 1570.18,564.416 1571.23,564.416 1572.28,564.416 1573.34,564.416 1574.39,564.416 1575.45,564.416 1576.5,564.416 1577.56,564.416 1578.61,564.416 1579.67,564.416 1580.72,564.416 1581.78,564.416 1582.83,564.416 1583.89,564.416 1584.94,564.416 1586,564.416 1587.05,564.416 1588.1,564.416 1589.16,564.416 1590.21,564.416 1591.27,564.416 1592.32,564.416 1593.38,564.416 1594.43,564.416 1595.49,564.416 1596.54,564.416 1597.6,564.416 1598.65,564.416 1599.71,564.416 1600.76,564.416 1601.82,564.416 1602.87,564.416 1603.93,564.416 1604.98,564.416 1606.03,564.416 1607.09,564.416 1608.14,496.097 1609.2,496.097 1610.25,496.097 1611.31,496.097 1612.36,496.097 1613.42,496.097 1614.47,496.097 1615.53,496.097 1616.58,496.097 1617.64,496.097 1618.69,496.097 1619.75,496.097 1620.8,496.097 1621.86,496.097 1622.91,496.097 1623.96,496.097 1625.02,496.097 1626.07,496.097 1627.13,496.097 1628.18,496.097 1629.24,496.097 1630.29,496.097 1631.35,496.097 1632.4,496.097 1633.46,496.097 1634.51,496.097 1635.57,496.097 1636.62,496.097 1637.68,496.097 1638.73,496.097 1639.78,496.097 1640.84,496.097 1641.89,496.097 1642.95,496.097 1644,496.097 1645.06,496.097 1646.11,496.097 1647.17,496.097 1648.22,496.097 1649.28,496.097 1650.33,496.097 1651.39,496.097 1652.44,496.097 1653.5,496.097 1654.55,496.097 1655.61,496.097 1656.66,496.097 1657.71,496.097 1658.77,496.097 1659.82,496.097 1660.88,496.097 1661.93,496.097 1662.99,496.097 1664.04,496.097 1665.1,496.097 1666.15,496.097 1667.21,496.097 1668.26,496.097 1669.32,496.097 1670.37,496.097 1671.43,496.097 1672.48,496.097 1673.53,496.097 1674.59,496.097 1675.64,496.097 1676.7,496.097 1677.75,496.097 1678.81,496.097 1679.86,496.097 1680.92,496.097 1681.97,496.097 1683.03,496.097 1684.08,496.097 1685.14,496.097 1686.19,496.097 1687.25,496.097 1688.3,496.097 1689.36,496.097 1690.41,496.097 1691.46,496.097 1692.52,496.097 1693.57,496.097 1694.63,496.097 1695.68,496.097 1696.74,496.097 1697.79,496.097 1698.85,496.097 1699.9,496.097 1700.96,496.097 1702.01,496.097 1703.07,496.097 1704.12,496.097 1705.18,496.097 1706.23,496.097 1707.28,496.097 1708.34,496.097 1709.39,496.097 1710.45,496.097 1711.5,496.097 1712.56,496.097 1713.61,496.097 1714.67,496.097 1715.72,496.097 1716.78,496.097 1717.83,496.097 1718.89,496.097 1719.94,496.097 1721,496.097 1722.05,496.097 1723.11,496.097 1724.16,496.097 1725.21,496.097 1726.27,496.097 1727.32,496.097 1728.38,496.097 1729.43,496.097 1730.49,496.097 1731.54,496.097 1732.6,496.097 1733.65,496.097 1734.71,496.097 1735.76,496.097 1736.82,496.097 1737.87,496.097 1738.93,496.097 1739.98,496.097 1741.04,496.097 1742.09,496.097 1743.14,496.097 1744.2,496.097 1745.25,427.778 1746.31,427.778 1747.36,427.778 1748.42,427.778 1749.47,427.778 1750.53,427.778 1751.58,427.778 1752.64,427.778 1753.69,427.778 1754.75,427.778 1755.8,427.778 1756.86,427.778 1757.91,427.778 1758.96,427.778 1760.02,427.778 1761.07,427.778 1762.13,427.778 1763.18,427.778 1764.24,427.778 1765.29,427.778 1766.35,427.778 1767.4,427.778 1768.46,427.778 1769.51,427.778 1770.57,427.778 1771.62,427.778 1772.68,427.778 1773.73,427.778 1774.79,427.778 1775.84,427.778 1776.89,427.778 1777.95,427.778 1779,427.778 1780.06,427.778 1781.11,427.778 1782.17,427.778 1783.22,427.778 1784.28,427.778 1785.33,427.778 1786.39,427.778 1787.44,427.778 1788.5,427.778 1789.55,427.778 1790.61,427.778 1791.66,427.778 1792.71,427.778 1793.77,427.778 1794.82,427.778 1795.88,427.778 1796.93,427.778 1797.99,427.778 1799.04,427.778 1800.1,427.778 1801.15,427.778 1802.21,427.778 1803.26,427.778 1804.32,427.778 1805.37,427.778 1806.43,427.778 1807.48,427.778 1808.54,427.778 1809.59,427.778 1810.64,427.778 1811.7,427.778 1812.75,427.778 1813.81,427.778 1814.86,427.778 1815.92,427.778 1816.97,427.778 1818.03,427.778 1819.08,427.778 1820.14,427.778 1821.19,427.778 1822.25,427.778 1823.3,427.778 1824.36,427.778 1825.41,427.778 1826.47,427.778 1827.52,427.778 1828.57,427.778 1829.63,427.778 1830.68,427.778 1831.74,427.778 1832.79,427.778 1833.85,427.778 1834.9,427.778 1835.96,427.778 1837.01,427.778 1838.07,427.778 1839.12,427.778 1840.18,427.778 1841.23,427.778 1842.29,427.778 1843.34,427.778 1844.39,427.778 1845.45,427.778 1846.5,427.778 1847.56,427.778 1848.61,427.778 1849.67,427.778 1850.72,427.778 1851.78,427.778 1852.83,427.778 1853.89,427.778 1854.94,427.778 1856,427.778 1857.05,427.778 1858.11,427.778 1859.16,427.778 1860.22,427.778 1861.27,427.778 1862.32,427.778 1863.38,427.778 1864.43,427.778 1865.49,427.778 1866.54,427.778 1867.6,427.778 1868.65,427.778 1869.71,427.778 1870.76,427.778 1871.82,427.778 1872.87,427.778 1873.93,427.778 1874.98,427.778 1876.04,427.778 1877.09,427.778 1878.14,427.778 1879.2,427.778 1880.25,427.778 1881.31,427.778 1882.36,427.778 1883.42,427.778 1884.47,427.778 1885.53,427.778 1886.58,427.778 1887.64,427.778 1888.69,427.778 1889.75,427.778 1890.8,427.778 1891.86,427.778 1892.91,427.778 1893.97,427.778 1895.02,427.778 1896.07,427.778 1897.13,427.778 1898.18,427.778 1899.24,427.778 1900.29,427.778 1901.35,427.778 1902.4,427.778 1903.46,427.778 1904.51,427.778 1905.57,427.778 1906.62,427.778 1907.68,427.778 1908.73,427.778 1909.79,427.778 1910.84,427.778 1911.9,427.778 1912.95,427.778 1914,427.778 1915.06,427.778 1916.11,427.778 1917.17,427.778 1918.22,427.778 1919.28,427.778 1920.33,427.778 1921.39,427.778 1922.44,427.778 1923.5,427.778 1924.55,427.778 1925.61,427.778 1926.66,427.778 1927.72,427.778 1928.77,427.778 1929.82,427.778 1930.88,427.778 1931.93,427.778 1932.99,427.778 1934.04,427.778 1935.1,427.778 1936.15,427.778 1937.21,427.778 1938.26,427.778 1939.32,427.778 1940.37,427.778 1941.43,427.778 1942.48,427.778 1943.54,427.778 1944.59,427.778 1945.65,427.778 1946.7,427.778 1947.75,427.778 1948.81,427.778 1949.86,427.778 1950.92,427.778 1951.97,427.778 1953.03,427.778 1954.08,427.778 1955.14,427.778 1956.19,427.778 1957.25,427.778 1958.3,427.778 1959.36,427.778 1960.41,427.778 1961.47,427.778 1962.52,427.778 1963.57,427.778 1964.63,427.778 1965.68,427.778 1966.74,427.778 1967.79,427.778 1968.85,427.778 1969.9,427.778 1970.96,427.778 1972.01,427.778 1973.07,427.778 1974.12,427.778 1975.18,427.778 1976.23,427.778 1977.29,427.778 1978.34,427.778 1979.4,427.778 1980.45,427.778 1981.5,427.778 1982.56,427.778 1983.61,427.778 1984.67,427.778 1985.72,427.778 1986.78,427.778 1987.83,427.778 1988.89,427.778 1989.94,427.778 1991,427.778 1992.05,427.778 1993.11,427.778 1994.16,427.778 1995.22,427.778 1996.27,427.778 1997.33,427.778 1998.38,427.778 1999.43,427.778 2000.49,427.778 2001.54,427.778 2002.6,427.778 2003.65,427.778 2004.71,427.778 2005.76,427.778 2006.82,427.778 2007.87,427.778 2008.93,427.778 2009.98,427.778 2011.04,427.778 2012.09,427.778 2013.15,427.778 2014.2,427.778 2015.25,427.778 2016.31,427.778 2017.36,427.778 2018.42,427.778 2019.47,427.778 2020.53,427.778 2021.58,427.778 2022.64,427.778 2023.69,427.778 2024.75,427.778 2025.8,427.778 2026.86,427.778 2027.91,427.778 2028.97,427.778 2030.02,427.778 2031.08,427.778 2032.13,427.778 2033.18,427.778 2034.24,427.778 2035.29,427.778 2036.35,427.778 2037.4,427.778 2038.46,427.778 2039.51,427.778 2040.57,427.778 2041.62,427.778 2042.68,427.778 2043.73,427.778 2044.79,427.778 2045.84,427.778 2046.9,427.778 2047.95,427.778 2049,427.778 2050.06,427.778 2051.11,427.778 2052.17,427.778 2053.22,427.778 2054.28,427.778 2055.33,427.778 2056.39,427.778 2057.44,427.778 2058.5,427.778 2059.55,427.778 2060.61,427.778 2061.66,427.778 2062.72,427.778 2063.77,427.778 2064.83,427.778 2065.88,427.778 2066.93,427.778 2067.99,427.778 2069.04,427.778 2070.1,427.778 2071.15,427.778 2072.21,427.778 2073.26,427.778 2074.32,427.778 2075.37,427.778 2076.43,427.778 2077.48,427.778 2078.54,427.778 2079.59,427.778 2080.65,427.778 2081.7,427.778 2082.76,427.778 2083.81,427.778 2084.86,427.778 2085.92,427.778 2086.97,427.778 2088.03,427.778 2089.08,427.778 2090.14,427.778 2091.19,427.778 2092.25,427.778 2093.3,427.778 2094.36,427.778 2095.41,427.778 2096.47,427.778 2097.52,427.778 2098.58,427.778 2099.63,427.778 2100.68,427.778 2101.74,427.778 2102.79,427.778 2103.85,427.778 2104.9,427.778 2105.96,427.778 2107.01,427.778 2108.07,427.778 2109.12,427.778 2110.18,427.778 2111.23,427.778 2112.29,427.778 2113.34,427.778 2114.4,427.778 2115.45,427.778 2116.51,427.778 2117.56,427.778 2118.61,427.778 2119.67,427.778 2120.72,427.778 2121.78,427.778 2122.83,427.778 2123.89,427.778 2124.94,427.778 2126,427.778 2127.05,427.778 2128.11,427.778 2129.16,427.778 2130.22,427.778 2131.27,427.778 2132.33,427.778 2133.38,427.778 2134.43,427.778 2135.49,427.778 2136.54,427.778 2137.6,427.778 2138.65,427.778 2139.71,427.778 2140.76,427.778 2141.82,427.778 2142.87,427.778 2143.93,427.778 2144.98,427.778 2146.04,427.778 2147.09,427.778 2148.15,427.778 2149.2,427.778 2150.26,427.778 2151.31,427.778 2152.36,427.778 2153.42,427.778 2154.47,427.778 2155.53,427.778 2156.58,427.778 2157.64,427.778 2158.69,427.778 2159.75,427.778 2160.8,427.778 2161.86,427.778 2162.91,427.778 2163.97,427.778 2165.02,427.778 2166.08,427.778 2167.13,427.778 2168.18,427.778 2169.24,427.778 2170.29,427.778 2171.35,427.778 2172.4,427.778 2173.46,427.778 2174.51,427.778 2175.57,427.778 2176.62,427.778 2177.68,427.778 2178.73,427.778 2179.79,427.778 2180.84,427.778 2181.9,427.778 2182.95,427.778 2184.01,427.778 2185.06,427.778 2186.11,427.778 2187.17,427.778 2188.22,427.778 2189.28,427.778 2190.33,427.778 2191.39,427.778 2192.44,427.778 2193.5,427.778 2194.55,427.778 2195.61,427.778 2196.66,427.778 2197.72,359.46 2198.77,359.46 2199.83,359.46 2200.88,359.46 2201.94,359.46 2202.99,359.46 2204.04,359.46 2205.1,359.46 2206.15,359.46 2207.21,359.46 2208.26,359.46 2209.32,359.46 2210.37,359.46 2211.43,359.46 2212.48,359.46 2213.54,359.46 2214.59,359.46 2215.65,359.46 2216.7,359.46 2217.76,291.141 2218.81,291.141 2219.86,291.141 2220.92,291.141 2221.97,291.141 2223.03,291.141 2224.08,291.141 2225.14,291.141 2226.19,291.141 2227.25,291.141 2228.3,291.141 2229.36,291.141 2230.41,291.141 2231.47,291.141 2232.52,291.141 2233.58,222.823 2234.63,222.823 2235.69,222.823 2236.74,154.504 2237.79,154.504 2238.85,154.504 2239.9,154.504 2240.96,154.504 2242.01,154.504 2243.07,154.504 2244.12,154.504 2245.18,154.504 2246.23,154.504 2247.29,154.504 2248.34,154.504 2249.4,154.504 2250.45,154.504 2251.51,154.504 2252.56,154.504 2253.61,154.504 2254.67,154.504 2255.72,154.504 2256.78,154.504 2257.83,154.504 2258.89,154.504 2259.94,154.504 2261,154.504 2262.05,154.504 2263.11,154.504 2264.16,154.504 2265.22,154.504 2266.27,154.504 2267.33,154.504 2268.38,154.504 2269.44,154.504 2270.49,154.504 2271.54,154.504 2272.6,154.504 2273.65,154.504 2274.71,154.504 2275.76,154.504 2276.82,154.504 2277.87,154.504 2278.93,154.504 2279.98,154.504 2281.04,86.1857 2282.09,86.1857 2283.15,86.1857 2284.2,86.1857 2285.26,86.1857 2286.31,86.1857 2287.37,86.1857 2288.42,86.1857 2289.47,86.1857 2290.53,86.1857 2291.58,86.1857 2292.64,86.1857 2293.69,86.1857 2294.75,86.1857 2295.8,86.1857 2296.86,86.1857 2297.91,86.1857 2298.97,86.1857 2300.02,86.1857 2301.08,86.1857 2302.13,86.1857 2303.19,86.1857 2304.24,86.1857 2305.29,86.1857 2306.35,86.1857 2307.4,86.1857 2308.46,86.1857 2309.51,86.1857 2310.57,86.1857 2311.62,86.1857 2312.68,86.1857 2313.73,86.1857 2314.79,86.1857 2315.84,86.1857 2316.9,86.1857 2317.95,86.1857 2319.01,86.1857 2320.06,86.1857 2321.12,86.1857 2322.17,86.1857 2323.22,86.1857 2324.28,86.1857 2325.33,86.1857 2326.39,86.1857 2327.44,86.1857 2328.5,86.1857 2329.55,86.1857 2330.61,86.1857 2331.66,86.1857 2332.72,86.1857 2333.77,86.1857 2334.83,86.1857 2335.88,86.1857 2336.94,86.1857 2337.99,86.1857 2339.04,86.1857 2340.1,86.1857 2341.15,86.1857 2342.21,86.1857 2343.26,86.1857 2344.32,86.1857 2345.37,86.1857 2346.43,86.1857 2347.48,86.1857 2348.54,86.1857 2349.59,86.1857 2350.65,86.1857 2351.7,86.1857 2352.76,86.1857 "/>
<path clip-path="url(#clip400)" d="M1975.27 1377.32 L2278.96 1377.32 L2278.96 1273.64 L1975.27 1273.64  Z" fill="#ffffff" fill-rule="evenodd" fill-opacity="1"/>
<polyline clip-path="url(#clip400)" style="stroke:#000000; stroke-linecap:round; stroke-linejoin:round; stroke-width:4; stroke-opacity:1; fill:none" points="1975.27,1377.32 2278.96,1377.32 2278.96,1273.64 1975.27,1273.64 1975.27,1377.32 "/>
<polyline clip-path="url(#clip400)" style="stroke:#009af9; stroke-linecap:round; stroke-linejoin:round; stroke-width:8; stroke-opacity:1; fill:none" points="1999.87,1325.48 2147.45,1325.48 "/>
<path clip-path="url(#clip400)" d="M2172.05 1308.2 L2178.35 1308.2 L2193.67 1337.11 L2193.67 1308.2 L2198.21 1308.2 L2198.21 1342.76 L2191.91 1342.76 L2176.59 1313.84 L2176.59 1342.76 L2172.05 1342.76 L2172.05 1308.2 Z" fill="#000000" fill-rule="nonzero" fill-opacity="1" /><path clip-path="url(#clip400)" d="M2217.56 1306.78 Q2214.46 1312.11 2212.95 1317.32 Q2211.45 1322.52 2211.45 1327.87 Q2211.45 1333.22 2212.95 1338.47 Q2214.48 1343.7 2217.56 1349.01 L2213.86 1349.01 Q2210.38 1343.57 2208.65 1338.31 Q2206.93 1333.06 2206.93 1327.87 Q2206.93 1322.71 2208.65 1317.48 Q2210.36 1312.25 2213.86 1306.78 L2217.56 1306.78 Z" fill="#000000" fill-rule="nonzero" fill-opacity="1" /><path clip-path="url(#clip400)" d="M2230.04 1309.47 L2230.04 1316.83 L2238.81 1316.83 L2238.81 1320.14 L2230.04 1320.14 L2230.04 1334.21 Q2230.04 1337.38 2230.89 1338.29 Q2231.77 1339.19 2234.43 1339.19 L2238.81 1339.19 L2238.81 1342.76 L2234.43 1342.76 Q2229.5 1342.76 2227.63 1340.93 Q2225.75 1339.07 2225.75 1334.21 L2225.75 1320.14 L2222.63 1320.14 L2222.63 1316.83 L2225.75 1316.83 L2225.75 1309.47 L2230.04 1309.47 Z" fill="#000000" fill-rule="nonzero" fill-opacity="1" /><path clip-path="url(#clip400)" d="M2243.74 1306.78 L2247.44 1306.78 Q2250.92 1312.25 2252.63 1317.48 Q2254.36 1322.71 2254.36 1327.87 Q2254.36 1333.06 2252.63 1338.31 Q2250.92 1343.57 2247.44 1349.01 L2243.74 1349.01 Q2246.82 1343.7 2248.32 1338.47 Q2249.85 1333.22 2249.85 1327.87 Q2249.85 1322.52 2248.32 1317.32 Q2246.82 1312.11 2243.74 1306.78 Z" fill="#000000" fill-rule="nonzero" fill-opacity="1" /></svg>
