<?xml version="1.0" encoding="utf-8"?>
<svg xmlns="http://www.w3.org/2000/svg" xmlns:xlink="http://www.w3.org/1999/xlink" width="600" height="400" viewBox="0 0 2400 1600">
<defs>
  <clipPath id="clip750">
    <rect x="0" y="0" width="2400" height="1600"/>
  </clipPath>
</defs>
<path clip-path="url(#clip750)" d="M0 1600 L2400 1600 L2400 0 L0 0  Z" fill="#ffffff" fill-rule="evenodd" fill-opacity="1"/>
<defs>
  <clipPath id="clip751">
    <rect x="480" y="0" width="1681" height="1600"/>
  </clipPath>
</defs>
<path clip-path="url(#clip750)" d="M112.177 1423.18 L2352.76 1423.18 L2352.76 47.2441 L112.177 47.2441  Z" fill="#ffffff" fill-rule="evenodd" fill-opacity="1"/>
<defs>
  <clipPath id="clip752">
    <rect x="112" y="47" width="2242" height="1377"/>
  </clipPath>
</defs>
<polyline clip-path="url(#clip752)" style="stroke:#000000; stroke-linecap:round; stroke-linejoin:round; stroke-width:2; stroke-opacity:0.1; fill:none" points="112.177,1423.18 112.177,47.2441 "/>
<polyline clip-path="url(#clip752)" style="stroke:#000000; stroke-linecap:round; stroke-linejoin:round; stroke-width:2; stroke-opacity:0.1; fill:none" points="560.293,1423.18 560.293,47.2441 "/>
<polyline clip-path="url(#clip752)" style="stroke:#000000; stroke-linecap:round; stroke-linejoin:round; stroke-width:2; stroke-opacity:0.1; fill:none" points="1008.41,1423.18 1008.41,47.2441 "/>
<polyline clip-path="url(#clip752)" style="stroke:#000000; stroke-linecap:round; stroke-linejoin:round; stroke-width:2; stroke-opacity:0.1; fill:none" points="1456.52,1423.18 1456.52,47.2441 "/>
<polyline clip-path="url(#clip752)" style="stroke:#000000; stroke-linecap:round; stroke-linejoin:round; stroke-width:2; stroke-opacity:0.1; fill:none" points="1904.64,1423.18 1904.64,47.2441 "/>
<polyline clip-path="url(#clip752)" style="stroke:#000000; stroke-linecap:round; stroke-linejoin:round; stroke-width:2; stroke-opacity:0.1; fill:none" points="2352.76,1423.18 2352.76,47.2441 "/>
<polyline clip-path="url(#clip750)" style="stroke:#000000; stroke-linecap:round; stroke-linejoin:round; stroke-width:4; stroke-opacity:1; fill:none" points="112.177,1423.18 2352.76,1423.18 "/>
<polyline clip-path="url(#clip750)" style="stroke:#000000; stroke-linecap:round; stroke-linejoin:round; stroke-width:4; stroke-opacity:1; fill:none" points="112.177,1423.18 112.177,1404.28 "/>
<polyline clip-path="url(#clip750)" style="stroke:#000000; stroke-linecap:round; stroke-linejoin:round; stroke-width:4; stroke-opacity:1; fill:none" points="560.293,1423.18 560.293,1404.28 "/>
<polyline clip-path="url(#clip750)" style="stroke:#000000; stroke-linecap:round; stroke-linejoin:round; stroke-width:4; stroke-opacity:1; fill:none" points="1008.41,1423.18 1008.41,1404.28 "/>
<polyline clip-path="url(#clip750)" style="stroke:#000000; stroke-linecap:round; stroke-linejoin:round; stroke-width:4; stroke-opacity:1; fill:none" points="1456.52,1423.18 1456.52,1404.28 "/>
<polyline clip-path="url(#clip750)" style="stroke:#000000; stroke-linecap:round; stroke-linejoin:round; stroke-width:4; stroke-opacity:1; fill:none" points="1904.64,1423.18 1904.64,1404.28 "/>
<polyline clip-path="url(#clip750)" style="stroke:#000000; stroke-linecap:round; stroke-linejoin:round; stroke-width:4; stroke-opacity:1; fill:none" points="2352.76,1423.18 2352.76,1404.28 "/>
<path clip-path="url(#clip750)" d="M112.177 1454.1 Q108.566 1454.1 106.737 1457.66 Q104.932 1461.2 104.932 1468.33 Q104.932 1475.44 106.737 1479.01 Q108.566 1482.55 112.177 1482.55 Q115.811 1482.55 117.617 1479.01 Q119.446 1475.44 119.446 1468.33 Q119.446 1461.2 117.617 1457.66 Q115.811 1454.1 112.177 1454.1 M112.177 1450.39 Q117.987 1450.39 121.043 1455 Q124.122 1459.58 124.122 1468.33 Q124.122 1477.06 121.043 1481.67 Q117.987 1486.25 112.177 1486.25 Q106.367 1486.25 103.288 1481.67 Q100.233 1477.06 100.233 1468.33 Q100.233 1459.58 103.288 1455 Q106.367 1450.39 112.177 1450.39 Z" fill="#000000" fill-rule="nonzero" fill-opacity="1" /><path clip-path="url(#clip750)" d="M554.946 1481.64 L571.265 1481.64 L571.265 1485.58 L549.321 1485.58 L549.321 1481.64 Q551.983 1478.89 556.566 1474.26 Q561.173 1469.61 562.353 1468.27 Q564.598 1465.74 565.478 1464.01 Q566.381 1462.25 566.381 1460.56 Q566.381 1457.8 564.436 1456.07 Q562.515 1454.33 559.413 1454.33 Q557.214 1454.33 554.761 1455.09 Q552.33 1455.86 549.552 1457.41 L549.552 1452.69 Q552.376 1451.55 554.83 1450.97 Q557.284 1450.39 559.321 1450.39 Q564.691 1450.39 567.885 1453.08 Q571.08 1455.77 571.08 1460.26 Q571.08 1462.39 570.27 1464.31 Q569.483 1466.2 567.376 1468.8 Q566.798 1469.47 563.696 1472.69 Q560.594 1475.88 554.946 1481.64 Z" fill="#000000" fill-rule="nonzero" fill-opacity="1" /><path clip-path="url(#clip750)" d="M1011.42 1455.09 L999.612 1473.54 L1011.42 1473.54 L1011.42 1455.09 M1010.19 1451.02 L1016.07 1451.02 L1016.07 1473.54 L1021 1473.54 L1021 1477.43 L1016.07 1477.43 L1016.07 1485.58 L1011.42 1485.58 L1011.42 1477.43 L995.816 1477.43 L995.816 1472.92 L1010.19 1451.02 Z" fill="#000000" fill-rule="nonzero" fill-opacity="1" /><path clip-path="url(#clip750)" d="M1456.93 1466.44 Q1453.78 1466.44 1451.93 1468.59 Q1450.1 1470.74 1450.1 1474.49 Q1450.1 1478.22 1451.93 1480.39 Q1453.78 1482.55 1456.93 1482.55 Q1460.08 1482.55 1461.91 1480.39 Q1463.76 1478.22 1463.76 1474.49 Q1463.76 1470.74 1461.91 1468.59 Q1460.08 1466.44 1456.93 1466.44 M1466.21 1451.78 L1466.21 1456.04 Q1464.45 1455.21 1462.65 1454.77 Q1460.86 1454.33 1459.11 1454.33 Q1454.48 1454.33 1452.02 1457.45 Q1449.59 1460.58 1449.24 1466.9 Q1450.61 1464.89 1452.67 1463.82 Q1454.73 1462.73 1457.21 1462.73 Q1462.42 1462.73 1465.42 1465.9 Q1468.46 1469.05 1468.46 1474.49 Q1468.46 1479.82 1465.31 1483.03 Q1462.16 1486.25 1456.93 1486.25 Q1450.93 1486.25 1447.76 1481.67 Q1444.59 1477.06 1444.59 1468.33 Q1444.59 1460.14 1448.48 1455.28 Q1452.37 1450.39 1458.92 1450.39 Q1460.68 1450.39 1462.46 1450.74 Q1464.27 1451.09 1466.21 1451.78 Z" fill="#000000" fill-rule="nonzero" fill-opacity="1" /><path clip-path="url(#clip750)" d="M1904.64 1469.17 Q1901.31 1469.17 1899.39 1470.95 Q1897.49 1472.73 1897.49 1475.86 Q1897.49 1478.98 1899.39 1480.77 Q1901.31 1482.55 1904.64 1482.55 Q1907.97 1482.55 1909.89 1480.77 Q1911.82 1478.96 1911.82 1475.86 Q1911.82 1472.73 1909.89 1470.95 Q1908 1469.17 1904.64 1469.17 M1899.96 1467.18 Q1896.96 1466.44 1895.27 1464.38 Q1893.6 1462.32 1893.6 1459.35 Q1893.6 1455.21 1896.54 1452.8 Q1899.5 1450.39 1904.64 1450.39 Q1909.8 1450.39 1912.74 1452.8 Q1915.68 1455.21 1915.68 1459.35 Q1915.68 1462.32 1913.99 1464.38 Q1912.33 1466.44 1909.34 1467.18 Q1912.72 1467.96 1914.59 1470.26 Q1916.49 1472.55 1916.49 1475.86 Q1916.49 1480.88 1913.41 1483.57 Q1910.36 1486.25 1904.64 1486.25 Q1898.92 1486.25 1895.84 1483.57 Q1892.79 1480.88 1892.79 1475.86 Q1892.79 1472.55 1894.69 1470.26 Q1896.58 1467.96 1899.96 1467.18 M1898.25 1459.79 Q1898.25 1462.48 1899.92 1463.98 Q1901.61 1465.49 1904.64 1465.49 Q1907.65 1465.49 1909.34 1463.98 Q1911.05 1462.48 1911.05 1459.79 Q1911.05 1457.11 1909.34 1455.6 Q1907.65 1454.1 1904.64 1454.1 Q1901.61 1454.1 1899.92 1455.6 Q1898.25 1457.11 1898.25 1459.79 Z" fill="#000000" fill-rule="nonzero" fill-opacity="1" /><path clip-path="url(#clip750)" d="M2327.44 1481.64 L2335.08 1481.64 L2335.08 1455.28 L2326.77 1456.95 L2326.77 1452.69 L2335.04 1451.02 L2339.71 1451.02 L2339.71 1481.64 L2347.35 1481.64 L2347.35 1485.58 L2327.44 1485.58 L2327.44 1481.64 Z" fill="#000000" fill-rule="nonzero" fill-opacity="1" /><path clip-path="url(#clip750)" d="M2366.8 1454.1 Q2363.18 1454.1 2361.36 1457.66 Q2359.55 1461.2 2359.55 1468.33 Q2359.55 1475.44 2361.36 1479.01 Q2363.18 1482.55 2366.8 1482.55 Q2370.43 1482.55 2372.23 1479.01 Q2374.06 1475.44 2374.06 1468.33 Q2374.06 1461.2 2372.23 1457.66 Q2370.43 1454.1 2366.8 1454.1 M2366.8 1450.39 Q2372.61 1450.39 2375.66 1455 Q2378.74 1459.58 2378.74 1468.33 Q2378.74 1477.06 2375.66 1481.67 Q2372.61 1486.25 2366.8 1486.25 Q2360.99 1486.25 2357.91 1481.67 Q2354.85 1477.06 2354.85 1468.33 Q2354.85 1459.58 2357.91 1455 Q2360.99 1450.39 2366.8 1450.39 Z" fill="#000000" fill-rule="nonzero" fill-opacity="1" /><path clip-path="url(#clip750)" d="M1231.53 1522.27 L1231.53 1532.4 L1243.59 1532.4 L1243.59 1536.95 L1231.53 1536.95 L1231.53 1556.3 Q1231.53 1560.66 1232.71 1561.9 Q1233.91 1563.14 1237.58 1563.14 L1243.59 1563.14 L1243.59 1568.04 L1237.58 1568.04 Q1230.8 1568.04 1228.22 1565.53 Q1225.64 1562.98 1225.64 1556.3 L1225.64 1536.95 L1221.34 1536.95 L1221.34 1532.4 L1225.64 1532.4 L1225.64 1522.27 L1231.53 1522.27 Z" fill="#000000" fill-rule="nonzero" fill-opacity="1" /><polyline clip-path="url(#clip752)" style="stroke:#000000; stroke-linecap:round; stroke-linejoin:round; stroke-width:2; stroke-opacity:0.1; fill:none" points="112.177,1392.61 2352.76,1392.61 "/>
<polyline clip-path="url(#clip752)" style="stroke:#000000; stroke-linecap:round; stroke-linejoin:round; stroke-width:2; stroke-opacity:0.1; fill:none" points="112.177,1132.03 2352.76,1132.03 "/>
<polyline clip-path="url(#clip752)" style="stroke:#000000; stroke-linecap:round; stroke-linejoin:round; stroke-width:2; stroke-opacity:0.1; fill:none" points="112.177,871.456 2352.76,871.456 "/>
<polyline clip-path="url(#clip752)" style="stroke:#000000; stroke-linecap:round; stroke-linejoin:round; stroke-width:2; stroke-opacity:0.1; fill:none" points="112.177,610.879 2352.76,610.879 "/>
<polyline clip-path="url(#clip752)" style="stroke:#000000; stroke-linecap:round; stroke-linejoin:round; stroke-width:2; stroke-opacity:0.1; fill:none" points="112.177,350.302 2352.76,350.302 "/>
<polyline clip-path="url(#clip752)" style="stroke:#000000; stroke-linecap:round; stroke-linejoin:round; stroke-width:2; stroke-opacity:0.1; fill:none" points="112.177,89.7247 2352.76,89.7247 "/>
<polyline clip-path="url(#clip750)" style="stroke:#000000; stroke-linecap:round; stroke-linejoin:round; stroke-width:4; stroke-opacity:1; fill:none" points="112.177,1423.18 112.177,47.2441 "/>
<polyline clip-path="url(#clip750)" style="stroke:#000000; stroke-linecap:round; stroke-linejoin:round; stroke-width:4; stroke-opacity:1; fill:none" points="112.177,1392.61 131.075,1392.61 "/>
<polyline clip-path="url(#clip750)" style="stroke:#000000; stroke-linecap:round; stroke-linejoin:round; stroke-width:4; stroke-opacity:1; fill:none" points="112.177,1132.03 131.075,1132.03 "/>
<polyline clip-path="url(#clip750)" style="stroke:#000000; stroke-linecap:round; stroke-linejoin:round; stroke-width:4; stroke-opacity:1; fill:none" points="112.177,871.456 131.075,871.456 "/>
<polyline clip-path="url(#clip750)" style="stroke:#000000; stroke-linecap:round; stroke-linejoin:round; stroke-width:4; stroke-opacity:1; fill:none" points="112.177,610.879 131.075,610.879 "/>
<polyline clip-path="url(#clip750)" style="stroke:#000000; stroke-linecap:round; stroke-linejoin:round; stroke-width:4; stroke-opacity:1; fill:none" points="112.177,350.302 131.075,350.302 "/>
<polyline clip-path="url(#clip750)" style="stroke:#000000; stroke-linecap:round; stroke-linejoin:round; stroke-width:4; stroke-opacity:1; fill:none" points="112.177,89.7247 131.075,89.7247 "/>
<path clip-path="url(#clip750)" d="M64.2328 1378.41 Q60.6217 1378.41 58.793 1381.97 Q56.9875 1385.51 56.9875 1392.64 Q56.9875 1399.75 58.793 1403.32 Q60.6217 1406.86 64.2328 1406.86 Q67.867 1406.86 69.6726 1403.32 Q71.5013 1399.75 71.5013 1392.64 Q71.5013 1385.51 69.6726 1381.97 Q67.867 1378.41 64.2328 1378.41 M64.2328 1374.7 Q70.0429 1374.7 73.0985 1379.31 Q76.1772 1383.89 76.1772 1392.64 Q76.1772 1401.37 73.0985 1405.98 Q70.0429 1410.56 64.2328 1410.56 Q58.4226 1410.56 55.344 1405.98 Q52.2884 1401.37 52.2884 1392.64 Q52.2884 1383.89 55.344 1379.31 Q58.4226 1374.7 64.2328 1374.7 Z" fill="#000000" fill-rule="nonzero" fill-opacity="1" /><path clip-path="url(#clip750)" d="M56.2699 1145.38 L63.9087 1145.38 L63.9087 1119.01 L55.5986 1120.68 L55.5986 1116.42 L63.8624 1114.75 L68.5383 1114.75 L68.5383 1145.38 L76.1772 1145.38 L76.1772 1149.31 L56.2699 1149.31 L56.2699 1145.38 Z" fill="#000000" fill-rule="nonzero" fill-opacity="1" /><path clip-path="url(#clip750)" d="M59.8578 884.801 L76.1772 884.801 L76.1772 888.736 L54.2328 888.736 L54.2328 884.801 Q56.8949 882.046 61.4782 877.416 Q66.0846 872.764 67.2652 871.421 Q69.5105 868.898 70.3902 867.162 Q71.2929 865.402 71.2929 863.713 Q71.2929 860.958 69.3485 859.222 Q67.4272 857.486 64.3254 857.486 Q62.1263 857.486 59.6726 858.25 Q57.2421 859.014 54.4643 860.565 L54.4643 855.842 Q57.2884 854.708 59.7421 854.129 Q62.1958 853.551 64.2328 853.551 Q69.6031 853.551 72.7976 856.236 Q75.992 858.921 75.992 863.412 Q75.992 865.541 75.1818 867.463 Q74.3948 869.361 72.2883 871.953 Q71.7096 872.625 68.6078 875.842 Q65.5059 879.037 59.8578 884.801 Z" fill="#000000" fill-rule="nonzero" fill-opacity="1" /><path clip-path="url(#clip750)" d="M69.0476 609.525 Q72.404 610.242 74.279 612.511 Q76.1772 614.779 76.1772 618.112 Q76.1772 623.228 72.6587 626.029 Q69.1402 628.83 62.6587 628.83 Q60.4828 628.83 58.168 628.39 Q55.8764 627.974 53.4227 627.117 L53.4227 622.603 Q55.3671 623.737 57.6819 624.316 Q59.9967 624.895 62.5198 624.895 Q66.918 624.895 69.2096 623.159 Q71.5244 621.423 71.5244 618.112 Q71.5244 615.057 69.3717 613.344 Q67.242 611.608 63.4226 611.608 L59.3949 611.608 L59.3949 607.765 L63.6078 607.765 Q67.0569 607.765 68.8855 606.4 Q70.7142 605.011 70.7142 602.418 Q70.7142 599.756 68.8161 598.344 Q66.9411 596.909 63.4226 596.909 Q61.5013 596.909 59.3023 597.326 Q57.1032 597.742 54.4643 598.622 L54.4643 594.455 Q57.1264 593.714 59.4412 593.344 Q61.7791 592.974 63.8393 592.974 Q69.1633 592.974 72.2652 595.404 Q75.367 597.812 75.367 601.932 Q75.367 604.802 73.7235 606.793 Q72.08 608.761 69.0476 609.525 Z" fill="#000000" fill-rule="nonzero" fill-opacity="1" /><path clip-path="url(#clip750)" d="M66.5939 337.096 L54.7884 355.545 L66.5939 355.545 L66.5939 337.096 M65.367 333.022 L71.2466 333.022 L71.2466 355.545 L76.1772 355.545 L76.1772 359.434 L71.2466 359.434 L71.2466 367.582 L66.5939 367.582 L66.5939 359.434 L50.9921 359.434 L50.9921 354.92 L65.367 333.022 Z" fill="#000000" fill-rule="nonzero" fill-opacity="1" /><path clip-path="url(#clip750)" d="M55.2745 72.4447 L73.6309 72.4447 L73.6309 76.3799 L59.5569 76.3799 L59.5569 84.8521 Q60.5754 84.5049 61.5939 84.3428 Q62.6124 84.1576 63.6309 84.1576 Q69.418 84.1576 72.7976 87.3289 Q76.1772 90.5002 76.1772 95.9168 Q76.1772 101.496 72.705 104.597 Q69.2328 107.676 62.9134 107.676 Q60.7374 107.676 58.4689 107.306 Q56.2236 106.935 53.8162 106.195 L53.8162 101.496 Q55.8995 102.63 58.1217 103.185 Q60.3439 103.741 62.8208 103.741 Q66.8254 103.741 69.1633 101.634 Q71.5013 99.5279 71.5013 95.9168 Q71.5013 92.3057 69.1633 90.1993 Q66.8254 88.0928 62.8208 88.0928 Q60.9458 88.0928 59.0708 88.5095 Q57.2189 88.9261 55.2745 89.8058 L55.2745 72.4447 Z" fill="#000000" fill-rule="nonzero" fill-opacity="1" /><polyline clip-path="url(#clip752)" style="stroke:#009af9; stroke-linecap:round; stroke-linejoin:round; stroke-width:8; stroke-opacity:1; fill:none" points="112.177,1340.49 112.516,1342.42 112.8,1342.17 113.119,1340.67 113.477,1340.34 113.881,1341.14 114.335,1341.27 114.845,1339.31 115.42,1336.59 116.066,1338.25 116.793,1342.53 117.611,1340.09 118.532,1340.02 119.567,1338.25 120.732,1339.4 122.042,1343.35 123.516,1343.89 125.174,1336.54 127.04,1332.94 129.139,1332.97 131.5,1331.85 134.156,1334.96 137.145,1335.22 140.507,1344.96 144.289,1343.22 148.544,1347.39 153.331,1350.81 158.716,1342.39 164.774,1342.32 171.59,1345.55 179.257,1326.34 187.883,1314.13 197.587,1320.74 207.166,1310.84 217.942,1307.51 228.307,1318.99 239.614,1318.01 252.334,1307.65 266.644,1309.29 279.729,1297.23 294.45,1297.06 308.217,1284.33 323.706,1245.56 340.001,1133.88 353.961,1073.24 361.261,1039.15 369.469,986.506 376.991,1088.22 383.78,1091.73 391.302,1135.68 398.088,1113.6 405.723,1098.77 412.897,1121.58 419.834,1049.93 427.331,933.037 433.893,873.885 439.826,773.683 445.149,837.129 449.908,866.617 454.623,811.49 459.067,735.439 463.157,713.143 466.919,630.258 470.43,644.553 473.601,526.107 476.582,463.095 479.296,327.012 481.409,101.925 483.359,243.55 485.126,178.492 486.824,280.806 488.422,269.972 489.97,86.1857 491.4,141.866 491.707,155.218 491.707,773.914 491.707,773.914 491.707,1083.26 493.03,1088.26 494.519,1064.8 496.193,1050.48 498.076,1094.68 500.195,1112.83 502.579,1102.42 505.261,1132.71 508.208,1152.13 511.524,1152.28 515.253,1129.6 519.289,1094.01 523.435,971.634 527.352,938.19 531.041,861.096 531.359,856.179 531.359,1124.39 534.9,1098.27 538.884,1054.9 543.007,1044.57 547.158,1012.42 551.464,988.529 555.735,1081.32 560.052,1001.41 564.764,988.013 568.972,966.168 573.383,847.538 577.436,832.159 581.111,876.167 584.69,864.514 588.255,799.371 591.646,843.962 594.765,784.706 597.912,761.335 600.777,802.801 603.533,816.371 606.276,727.084 608.841,745.175 609.829,750.019 609.829,1071.31 612.273,1068.45 615.024,1043.48 617.963,1030.55 619.805,1030.55 619.805,1211.58 622.911,1250.16 626.405,1236.38 628.224,1241.77 628.224,1317.19 632.154,1331.5 636.577,1329.68 641.552,1329.32 647.148,1324.59 653.445,1327.54 660.528,1324.87 668.497,1306.01 677.463,1314.74 685.417,1330.81 694.366,1334.28 704.434,1322.07 715.76,1294.86 728.501,1293.43 740.481,1299.18 752.693,1323.28 764.896,1327.52 778.625,1313.06 794.069,1342.03 806.878,1355.15 821.289,1321.54 837.5,1308.6 854.827,1329.89 868.05,1350.11 882.925,1358.55 899.66,1348.06 918.486,1340.09 938.252,1340.69 955.857,1340.39 975.663,1331.21 997.944,1323.7 1018.38,1311.72 1039.36,1334.53 1055.47,1350.12 1073.59,1350.25 1093.97,1319.84 1116.9,1344.26 1133.24,1358.46 1151.62,1341.71 1172.3,1335.3 1191.39,1332.63 1210.56,1331 1231.21,1327.82 1252.42,1314.15 1274.68,1330.06 1291.8,1335.71 1311.06,1335.67 1331.24,1354.54 1349.43,1366.51 1369.9,1363.87 1392.92,1340.35 1418.54,1350.71 1436.64,1331.14 1457.01,1336.09 1473.31,1351.28 1491.02,1352.46 1510.93,1336.09 1526.77,1363.65 1544.59,1365.8 1564.64,1373.95 1585.59,1363.14 1609.16,1368.75 1629.59,1351.67 1652.58,1340.82 1674.01,1298.56 1679.21,1290.11 1679.21,1341.36 1699.21,1328.72 1721.71,1325.11 1742.61,1337.95 1759.26,1355.52 1778,1360.4 1799.07,1367.15 1820.32,1354.25 1844.22,1370.27 1862.72,1375.54 1883.53,1380.24 1906.94,1384.24 1933.28,1381.03 1962.9,1382.22 1990.84,1376.86 2022.26,1380.36 2047.13,1379.99 2075.12,1377.17 2106.6,1351.96 2132.59,1339.63 2151.65,1321.86 2173.1,1299.18 2194.14,1267.98 2211.61,1276.55 2225.93,1249.22 2242.04,1256.04 2255.52,1204.69 2267.29,1202.99 2277.96,1227.94 2288.01,1193.53 2299.32,1235.57 2308.57,1200.83 2318.97,1105.23 2328.15,1141.66 2335.8,1156.91 2343.92,1161.91 2351.77,1042.53 2352.76,1016.17 "/>
<path clip-path="url(#clip750)" d="M1946.33 196.789 L2278.07 196.789 L2278.07 93.1086 L1946.33 93.1086  Z" fill="#ffffff" fill-rule="evenodd" fill-opacity="1"/>
<polyline clip-path="url(#clip750)" style="stroke:#000000; stroke-linecap:round; stroke-linejoin:round; stroke-width:4; stroke-opacity:1; fill:none" points="1946.33,196.789 2278.07,196.789 2278.07,93.1086 1946.33,93.1086 1946.33,196.789 "/>
<polyline clip-path="url(#clip750)" style="stroke:#009af9; stroke-linecap:round; stroke-linejoin:round; stroke-width:8; stroke-opacity:1; fill:none" points="1971.22,144.949 2120.59,144.949 "/>
<path clip-path="url(#clip750)" d="M2145.49 151.997 L2145.49 136.303 L2149.75 136.303 L2149.75 151.835 Q2149.75 155.516 2151.18 157.368 Q2152.62 159.196 2155.49 159.196 Q2158.94 159.196 2160.93 156.997 Q2162.94 154.798 2162.94 151.002 L2162.94 136.303 L2167.2 136.303 L2167.2 162.229 L2162.94 162.229 L2162.94 158.247 Q2161.39 160.608 2159.33 161.766 Q2157.3 162.9 2154.59 162.9 Q2150.12 162.9 2147.8 160.122 Q2145.49 157.344 2145.49 151.997 M2156.21 135.678 L2156.21 135.678 Z" fill="#000000" fill-rule="nonzero" fill-opacity="1" /><path clip-path="url(#clip750)" d="M2177.39 158.293 L2185.03 158.293 L2185.03 131.928 L2176.72 133.595 L2176.72 129.335 L2184.98 127.669 L2189.66 127.669 L2189.66 158.293 L2197.3 158.293 L2197.3 162.229 L2177.39 162.229 L2177.39 158.293 Z" fill="#000000" fill-rule="nonzero" fill-opacity="1" /><path clip-path="url(#clip750)" d="M2216.37 126.257 Q2213.27 131.581 2211.76 136.789 Q2210.26 141.997 2210.26 147.344 Q2210.26 152.692 2211.76 157.946 Q2213.29 163.178 2216.37 168.479 L2212.67 168.479 Q2209.19 163.039 2207.46 157.784 Q2205.74 152.53 2205.74 147.344 Q2205.74 142.182 2207.46 136.951 Q2209.17 131.72 2212.67 126.257 L2216.37 126.257 Z" fill="#000000" fill-rule="nonzero" fill-opacity="1" /><path clip-path="url(#clip750)" d="M2228.85 128.942 L2228.85 136.303 L2237.62 136.303 L2237.62 139.613 L2228.85 139.613 L2228.85 153.687 Q2228.85 156.858 2229.7 157.761 Q2230.58 158.664 2233.24 158.664 L2237.62 158.664 L2237.62 162.229 L2233.24 162.229 Q2228.31 162.229 2226.44 160.4 Q2224.56 158.548 2224.56 153.687 L2224.56 139.613 L2221.44 139.613 L2221.44 136.303 L2224.56 136.303 L2224.56 128.942 L2228.85 128.942 Z" fill="#000000" fill-rule="nonzero" fill-opacity="1" /><path clip-path="url(#clip750)" d="M2242.55 126.257 L2246.25 126.257 Q2249.73 131.72 2251.44 136.951 Q2253.17 142.182 2253.17 147.344 Q2253.17 152.53 2251.44 157.784 Q2249.73 163.039 2246.25 168.479 L2242.55 168.479 Q2245.63 163.178 2247.13 157.946 Q2248.66 152.692 2248.66 147.344 Q2248.66 141.997 2247.13 136.789 Q2245.63 131.581 2242.55 126.257 Z" fill="#000000" fill-rule="nonzero" fill-opacity="1" /></svg>
