<?xml version="1.0" encoding="utf-8"?>
<svg xmlns="http://www.w3.org/2000/svg" xmlns:xlink="http://www.w3.org/1999/xlink" width="600" height="400" viewBox="0 0 2400 1600">
<defs>
  <clipPath id="clip690">
    <rect x="0" y="0" width="2400" height="1600"/>
  </clipPath>
</defs>
<path clip-path="url(#clip690)" d="M0 1600 L2400 1600 L2400 0 L0 0  Z" fill="#ffffff" fill-rule="evenodd" fill-opacity="1"/>
<defs>
  <clipPath id="clip691">
    <rect x="480" y="0" width="1681" height="1600"/>
  </clipPath>
</defs>
<path clip-path="url(#clip690)" d="M156.598 1423.18 L2352.76 1423.18 L2352.76 47.2441 L156.598 47.2441  Z" fill="#ffffff" fill-rule="evenodd" fill-opacity="1"/>
<defs>
  <clipPath id="clip692">
    <rect x="156" y="47" width="2197" height="1377"/>
  </clipPath>
</defs>
<polyline clip-path="url(#clip692)" style="stroke:#000000; stroke-linecap:round; stroke-linejoin:round; stroke-width:2; stroke-opacity:0.1; fill:none" points="156.598,1423.18 156.598,47.2441 "/>
<polyline clip-path="url(#clip692)" style="stroke:#000000; stroke-linecap:round; stroke-linejoin:round; stroke-width:2; stroke-opacity:0.1; fill:none" points="595.83,1423.18 595.83,47.2441 "/>
<polyline clip-path="url(#clip692)" style="stroke:#000000; stroke-linecap:round; stroke-linejoin:round; stroke-width:2; stroke-opacity:0.1; fill:none" points="1035.06,1423.18 1035.06,47.2441 "/>
<polyline clip-path="url(#clip692)" style="stroke:#000000; stroke-linecap:round; stroke-linejoin:round; stroke-width:2; stroke-opacity:0.1; fill:none" points="1474.29,1423.18 1474.29,47.2441 "/>
<polyline clip-path="url(#clip692)" style="stroke:#000000; stroke-linecap:round; stroke-linejoin:round; stroke-width:2; stroke-opacity:0.1; fill:none" points="1913.52,1423.18 1913.52,47.2441 "/>
<polyline clip-path="url(#clip692)" style="stroke:#000000; stroke-linecap:round; stroke-linejoin:round; stroke-width:2; stroke-opacity:0.1; fill:none" points="2352.76,1423.18 2352.76,47.2441 "/>
<polyline clip-path="url(#clip690)" style="stroke:#000000; stroke-linecap:round; stroke-linejoin:round; stroke-width:4; stroke-opacity:1; fill:none" points="156.598,1423.18 2352.76,1423.18 "/>
<polyline clip-path="url(#clip690)" style="stroke:#000000; stroke-linecap:round; stroke-linejoin:round; stroke-width:4; stroke-opacity:1; fill:none" points="156.598,1423.18 156.598,1404.28 "/>
<polyline clip-path="url(#clip690)" style="stroke:#000000; stroke-linecap:round; stroke-linejoin:round; stroke-width:4; stroke-opacity:1; fill:none" points="595.83,1423.18 595.83,1404.28 "/>
<polyline clip-path="url(#clip690)" style="stroke:#000000; stroke-linecap:round; stroke-linejoin:round; stroke-width:4; stroke-opacity:1; fill:none" points="1035.06,1423.18 1035.06,1404.28 "/>
<polyline clip-path="url(#clip690)" style="stroke:#000000; stroke-linecap:round; stroke-linejoin:round; stroke-width:4; stroke-opacity:1; fill:none" points="1474.29,1423.18 1474.29,1404.28 "/>
<polyline clip-path="url(#clip690)" style="stroke:#000000; stroke-linecap:round; stroke-linejoin:round; stroke-width:4; stroke-opacity:1; fill:none" points="1913.52,1423.18 1913.52,1404.28 "/>
<polyline clip-path="url(#clip690)" style="stroke:#000000; stroke-linecap:round; stroke-linejoin:round; stroke-width:4; stroke-opacity:1; fill:none" points="2352.76,1423.18 2352.76,1404.28 "/>
<path clip-path="url(#clip690)" d="M156.598 1454.1 Q152.987 1454.1 151.158 1457.66 Q149.353 1461.2 149.353 1468.33 Q149.353 1475.44 151.158 1479.01 Q152.987 1482.55 156.598 1482.55 Q160.232 1482.55 162.038 1479.01 Q163.867 1475.44 163.867 1468.33 Q163.867 1461.2 162.038 1457.66 Q160.232 1454.1 156.598 1454.1 M156.598 1450.39 Q162.408 1450.39 165.464 1455 Q168.543 1459.58 168.543 1468.33 Q168.543 1477.06 165.464 1481.67 Q162.408 1486.25 156.598 1486.25 Q150.788 1486.25 147.709 1481.67 Q144.654 1477.06 144.654 1468.33 Q144.654 1459.58 147.709 1455 Q150.788 1450.39 156.598 1450.39 Z" fill="#000000" fill-rule="nonzero" fill-opacity="1" /><path clip-path="url(#clip690)" d="M590.483 1481.64 L606.802 1481.64 L606.802 1485.58 L584.858 1485.58 L584.858 1481.64 Q587.52 1478.89 592.103 1474.26 Q596.709 1469.61 597.89 1468.27 Q600.135 1465.74 601.015 1464.01 Q601.918 1462.25 601.918 1460.56 Q601.918 1457.8 599.973 1456.07 Q598.052 1454.33 594.95 1454.33 Q592.751 1454.33 590.297 1455.09 Q587.867 1455.86 585.089 1457.41 L585.089 1452.69 Q587.913 1451.55 590.367 1450.97 Q592.821 1450.39 594.858 1450.39 Q600.228 1450.39 603.422 1453.08 Q606.617 1455.77 606.617 1460.26 Q606.617 1462.39 605.807 1464.31 Q605.02 1466.2 602.913 1468.8 Q602.334 1469.47 599.233 1472.69 Q596.131 1475.88 590.483 1481.64 Z" fill="#000000" fill-rule="nonzero" fill-opacity="1" /><path clip-path="url(#clip690)" d="M1038.07 1455.09 L1026.27 1473.54 L1038.07 1473.54 L1038.07 1455.09 M1036.84 1451.02 L1042.72 1451.02 L1042.72 1473.54 L1047.65 1473.54 L1047.65 1477.43 L1042.72 1477.43 L1042.72 1485.58 L1038.07 1485.58 L1038.07 1477.43 L1022.47 1477.43 L1022.47 1472.92 L1036.84 1451.02 Z" fill="#000000" fill-rule="nonzero" fill-opacity="1" /><path clip-path="url(#clip690)" d="M1474.7 1466.44 Q1471.55 1466.44 1469.7 1468.59 Q1467.87 1470.74 1467.87 1474.49 Q1467.87 1478.22 1469.7 1480.39 Q1471.55 1482.55 1474.7 1482.55 Q1477.85 1482.55 1479.67 1480.39 Q1481.53 1478.22 1481.53 1474.49 Q1481.53 1470.74 1479.67 1468.59 Q1477.85 1466.44 1474.7 1466.44 M1483.98 1451.78 L1483.98 1456.04 Q1482.22 1455.21 1480.42 1454.77 Q1478.63 1454.33 1476.87 1454.33 Q1472.24 1454.33 1469.79 1457.45 Q1467.36 1460.58 1467.01 1466.9 Q1468.38 1464.89 1470.44 1463.82 Q1472.5 1462.73 1474.98 1462.73 Q1480.18 1462.73 1483.19 1465.9 Q1486.23 1469.05 1486.23 1474.49 Q1486.23 1479.82 1483.08 1483.03 Q1479.93 1486.25 1474.7 1486.25 Q1468.7 1486.25 1465.53 1481.67 Q1462.36 1477.06 1462.36 1468.33 Q1462.36 1460.14 1466.25 1455.28 Q1470.14 1450.39 1476.69 1450.39 Q1478.45 1450.39 1480.23 1450.74 Q1482.04 1451.09 1483.98 1451.78 Z" fill="#000000" fill-rule="nonzero" fill-opacity="1" /><path clip-path="url(#clip690)" d="M1913.52 1469.17 Q1910.19 1469.17 1908.27 1470.95 Q1906.37 1472.73 1906.37 1475.86 Q1906.37 1478.98 1908.27 1480.77 Q1910.19 1482.55 1913.52 1482.55 Q1916.86 1482.55 1918.78 1480.77 Q1920.7 1478.96 1920.7 1475.86 Q1920.7 1472.73 1918.78 1470.95 Q1916.88 1469.17 1913.52 1469.17 M1908.85 1467.18 Q1905.84 1466.44 1904.15 1464.38 Q1902.48 1462.32 1902.48 1459.35 Q1902.48 1455.21 1905.42 1452.8 Q1908.39 1450.39 1913.52 1450.39 Q1918.69 1450.39 1921.63 1452.8 Q1924.57 1455.21 1924.57 1459.35 Q1924.57 1462.32 1922.88 1464.38 Q1921.21 1466.44 1918.22 1467.18 Q1921.6 1467.96 1923.48 1470.26 Q1925.38 1472.55 1925.38 1475.86 Q1925.38 1480.88 1922.3 1483.57 Q1919.24 1486.25 1913.52 1486.25 Q1907.81 1486.25 1904.73 1483.57 Q1901.67 1480.88 1901.67 1475.86 Q1901.67 1472.55 1903.57 1470.26 Q1905.47 1467.96 1908.85 1467.18 M1907.14 1459.79 Q1907.14 1462.48 1908.8 1463.98 Q1910.49 1465.49 1913.52 1465.49 Q1916.53 1465.49 1918.22 1463.98 Q1919.94 1462.48 1919.94 1459.79 Q1919.94 1457.11 1918.22 1455.6 Q1916.53 1454.1 1913.52 1454.1 Q1910.49 1454.1 1908.8 1455.6 Q1907.14 1457.11 1907.14 1459.79 Z" fill="#000000" fill-rule="nonzero" fill-opacity="1" /><path clip-path="url(#clip690)" d="M2327.44 1481.64 L2335.08 1481.64 L2335.08 1455.28 L2326.77 1456.95 L2326.77 1452.69 L2335.04 1451.02 L2339.71 1451.02 L2339.71 1481.64 L2347.35 1481.64 L2347.35 1485.58 L2327.44 1485.58 L2327.44 1481.64 Z" fill="#000000" fill-rule="nonzero" fill-opacity="1" /><path clip-path="url(#clip690)" d="M2366.8 1454.1 Q2363.18 1454.1 2361.36 1457.66 Q2359.55 1461.2 2359.55 1468.33 Q2359.55 1475.44 2361.36 1479.01 Q2363.18 1482.55 2366.8 1482.55 Q2370.43 1482.55 2372.23 1479.01 Q2374.06 1475.44 2374.06 1468.33 Q2374.06 1461.2 2372.23 1457.66 Q2370.43 1454.1 2366.8 1454.1 M2366.8 1450.39 Q2372.61 1450.39 2375.66 1455 Q2378.74 1459.58 2378.74 1468.33 Q2378.74 1477.06 2375.66 1481.67 Q2372.61 1486.25 2366.8 1486.25 Q2360.99 1486.25 2357.91 1481.67 Q2354.85 1477.06 2354.85 1468.33 Q2354.85 1459.58 2357.91 1455 Q2360.99 1450.39 2366.8 1450.39 Z" fill="#000000" fill-rule="nonzero" fill-opacity="1" /><path clip-path="url(#clip690)" d="M1253.74 1522.27 L1253.74 1532.4 L1265.8 1532.4 L1265.8 1536.95 L1253.74 1536.95 L1253.74 1556.3 Q1253.74 1560.66 1254.92 1561.9 Q1256.13 1563.14 1259.79 1563.14 L1265.8 1563.14 L1265.8 1568.04 L1259.79 1568.04 Q1253.01 1568.04 1250.43 1565.53 Q1247.85 1562.98 1247.85 1556.3 L1247.85 1536.95 L1243.55 1536.95 L1243.55 1532.4 L1247.85 1532.4 L1247.85 1522.27 L1253.74 1522.27 Z" fill="#000000" fill-rule="nonzero" fill-opacity="1" /><polyline clip-path="url(#clip692)" style="stroke:#000000; stroke-linecap:round; stroke-linejoin:round; stroke-width:2; stroke-opacity:0.1; fill:none" points="156.598,1221.14 2352.76,1221.14 "/>
<polyline clip-path="url(#clip692)" style="stroke:#000000; stroke-linecap:round; stroke-linejoin:round; stroke-width:2; stroke-opacity:0.1; fill:none" points="156.598,961.718 2352.76,961.718 "/>
<polyline clip-path="url(#clip692)" style="stroke:#000000; stroke-linecap:round; stroke-linejoin:round; stroke-width:2; stroke-opacity:0.1; fill:none" points="156.598,702.3 2352.76,702.3 "/>
<polyline clip-path="url(#clip692)" style="stroke:#000000; stroke-linecap:round; stroke-linejoin:round; stroke-width:2; stroke-opacity:0.1; fill:none" points="156.598,442.881 2352.76,442.881 "/>
<polyline clip-path="url(#clip692)" style="stroke:#000000; stroke-linecap:round; stroke-linejoin:round; stroke-width:2; stroke-opacity:0.1; fill:none" points="156.598,183.463 2352.76,183.463 "/>
<polyline clip-path="url(#clip690)" style="stroke:#000000; stroke-linecap:round; stroke-linejoin:round; stroke-width:4; stroke-opacity:1; fill:none" points="156.598,1423.18 156.598,47.2441 "/>
<polyline clip-path="url(#clip690)" style="stroke:#000000; stroke-linecap:round; stroke-linejoin:round; stroke-width:4; stroke-opacity:1; fill:none" points="156.598,1221.14 175.496,1221.14 "/>
<polyline clip-path="url(#clip690)" style="stroke:#000000; stroke-linecap:round; stroke-linejoin:round; stroke-width:4; stroke-opacity:1; fill:none" points="156.598,961.718 175.496,961.718 "/>
<polyline clip-path="url(#clip690)" style="stroke:#000000; stroke-linecap:round; stroke-linejoin:round; stroke-width:4; stroke-opacity:1; fill:none" points="156.598,702.3 175.496,702.3 "/>
<polyline clip-path="url(#clip690)" style="stroke:#000000; stroke-linecap:round; stroke-linejoin:round; stroke-width:4; stroke-opacity:1; fill:none" points="156.598,442.881 175.496,442.881 "/>
<polyline clip-path="url(#clip690)" style="stroke:#000000; stroke-linecap:round; stroke-linejoin:round; stroke-width:4; stroke-opacity:1; fill:none" points="156.598,183.463 175.496,183.463 "/>
<path clip-path="url(#clip690)" d="M65.0198 1206.93 Q61.4087 1206.93 59.58 1210.5 Q57.7745 1214.04 57.7745 1221.17 Q57.7745 1228.28 59.58 1231.84 Q61.4087 1235.38 65.0198 1235.38 Q68.6541 1235.38 70.4596 1231.84 Q72.2883 1228.28 72.2883 1221.17 Q72.2883 1214.04 70.4596 1210.5 Q68.6541 1206.93 65.0198 1206.93 M65.0198 1203.23 Q70.83 1203.23 73.8855 1207.84 Q76.9642 1212.42 76.9642 1221.17 Q76.9642 1229.9 73.8855 1234.5 Q70.83 1239.09 65.0198 1239.09 Q59.2097 1239.09 56.131 1234.5 Q53.0754 1229.9 53.0754 1221.17 Q53.0754 1212.42 56.131 1207.84 Q59.2097 1203.23 65.0198 1203.23 Z" fill="#000000" fill-rule="nonzero" fill-opacity="1" /><path clip-path="url(#clip690)" d="M85.1818 1232.54 L90.066 1232.54 L90.066 1238.42 L85.1818 1238.42 L85.1818 1232.54 Z" fill="#000000" fill-rule="nonzero" fill-opacity="1" /><path clip-path="url(#clip690)" d="M104.279 1234.48 L120.598 1234.48 L120.598 1238.42 L98.6539 1238.42 L98.6539 1234.48 Q101.316 1231.73 105.899 1227.1 Q110.506 1222.44 111.686 1221.1 Q113.932 1218.58 114.811 1216.84 Q115.714 1215.08 115.714 1213.39 Q115.714 1210.64 113.77 1208.9 Q111.848 1207.17 108.746 1207.17 Q106.547 1207.17 104.094 1207.93 Q101.663 1208.69 98.8854 1210.24 L98.8854 1205.52 Q101.709 1204.39 104.163 1203.81 Q106.617 1203.23 108.654 1203.23 Q114.024 1203.23 117.219 1205.92 Q120.413 1208.6 120.413 1213.09 Q120.413 1215.22 119.603 1217.14 Q118.816 1219.04 116.709 1221.63 Q116.131 1222.3 113.029 1225.52 Q109.927 1228.72 104.279 1234.48 Z" fill="#000000" fill-rule="nonzero" fill-opacity="1" /><path clip-path="url(#clip690)" d="M62.9365 947.516 Q59.3254 947.516 57.4967 951.081 Q55.6912 954.623 55.6912 961.752 Q55.6912 968.859 57.4967 972.424 Q59.3254 975.965 62.9365 975.965 Q66.5707 975.965 68.3763 972.424 Q70.205 968.859 70.205 961.752 Q70.205 954.623 68.3763 951.081 Q66.5707 947.516 62.9365 947.516 M62.9365 943.813 Q68.7467 943.813 71.8022 948.419 Q74.8809 953.002 74.8809 961.752 Q74.8809 970.479 71.8022 975.086 Q68.7467 979.669 62.9365 979.669 Q57.1264 979.669 54.0477 975.086 Q50.9921 970.479 50.9921 961.752 Q50.9921 953.002 54.0477 948.419 Q57.1264 943.813 62.9365 943.813 Z" fill="#000000" fill-rule="nonzero" fill-opacity="1" /><path clip-path="url(#clip690)" d="M83.0984 973.118 L87.9827 973.118 L87.9827 978.998 L83.0984 978.998 L83.0984 973.118 Z" fill="#000000" fill-rule="nonzero" fill-opacity="1" /><path clip-path="url(#clip690)" d="M111.015 948.512 L99.2095 966.961 L111.015 966.961 L111.015 948.512 M109.788 944.438 L115.668 944.438 L115.668 966.961 L120.598 966.961 L120.598 970.85 L115.668 970.85 L115.668 978.998 L111.015 978.998 L111.015 970.85 L95.4132 970.85 L95.4132 966.336 L109.788 944.438 Z" fill="#000000" fill-rule="nonzero" fill-opacity="1" /><path clip-path="url(#clip690)" d="M63.2606 688.098 Q59.6495 688.098 57.8208 691.663 Q56.0152 695.205 56.0152 702.334 Q56.0152 709.441 57.8208 713.005 Q59.6495 716.547 63.2606 716.547 Q66.8948 716.547 68.7004 713.005 Q70.5291 709.441 70.5291 702.334 Q70.5291 695.205 68.7004 691.663 Q66.8948 688.098 63.2606 688.098 M63.2606 684.395 Q69.0707 684.395 72.1263 689.001 Q75.205 693.584 75.205 702.334 Q75.205 711.061 72.1263 715.668 Q69.0707 720.251 63.2606 720.251 Q57.4504 720.251 54.3717 715.668 Q51.3162 711.061 51.3162 702.334 Q51.3162 693.584 54.3717 689.001 Q57.4504 684.395 63.2606 684.395 Z" fill="#000000" fill-rule="nonzero" fill-opacity="1" /><path clip-path="url(#clip690)" d="M83.4225 713.7 L88.3067 713.7 L88.3067 719.58 L83.4225 719.58 L83.4225 713.7 Z" fill="#000000" fill-rule="nonzero" fill-opacity="1" /><path clip-path="url(#clip690)" d="M109.071 700.436 Q105.922 700.436 104.071 702.589 Q102.242 704.742 102.242 708.492 Q102.242 712.218 104.071 714.394 Q105.922 716.547 109.071 716.547 Q112.219 716.547 114.047 714.394 Q115.899 712.218 115.899 708.492 Q115.899 704.742 114.047 702.589 Q112.219 700.436 109.071 700.436 M118.353 685.783 L118.353 690.043 Q116.594 689.209 114.788 688.77 Q113.006 688.33 111.246 688.33 Q106.617 688.33 104.163 691.455 Q101.733 694.58 101.385 700.899 Q102.751 698.885 104.811 697.82 Q106.871 696.732 109.348 696.732 Q114.557 696.732 117.566 699.904 Q120.598 703.052 120.598 708.492 Q120.598 713.816 117.45 717.033 Q114.302 720.251 109.071 720.251 Q103.075 720.251 99.9039 715.668 Q96.7326 711.061 96.7326 702.334 Q96.7326 694.14 100.621 689.279 Q104.51 684.395 111.061 684.395 Q112.82 684.395 114.603 684.742 Q116.408 685.089 118.353 685.783 Z" fill="#000000" fill-rule="nonzero" fill-opacity="1" /><path clip-path="url(#clip690)" d="M63.5152 428.68 Q59.9041 428.68 58.0754 432.245 Q56.2699 435.787 56.2699 442.916 Q56.2699 450.023 58.0754 453.587 Q59.9041 457.129 63.5152 457.129 Q67.1494 457.129 68.955 453.587 Q70.7837 450.023 70.7837 442.916 Q70.7837 435.787 68.955 432.245 Q67.1494 428.68 63.5152 428.68 M63.5152 424.976 Q69.3254 424.976 72.3809 429.583 Q75.4596 434.166 75.4596 442.916 Q75.4596 451.643 72.3809 456.249 Q69.3254 460.833 63.5152 460.833 Q57.7051 460.833 54.6264 456.249 Q51.5708 451.643 51.5708 442.916 Q51.5708 434.166 54.6264 429.583 Q57.7051 424.976 63.5152 424.976 Z" fill="#000000" fill-rule="nonzero" fill-opacity="1" /><path clip-path="url(#clip690)" d="M83.6771 454.282 L88.5614 454.282 L88.5614 460.161 L83.6771 460.161 L83.6771 454.282 Z" fill="#000000" fill-rule="nonzero" fill-opacity="1" /><path clip-path="url(#clip690)" d="M108.746 443.75 Q105.413 443.75 103.492 445.532 Q101.594 447.314 101.594 450.439 Q101.594 453.564 103.492 455.347 Q105.413 457.129 108.746 457.129 Q112.08 457.129 114.001 455.347 Q115.922 453.541 115.922 450.439 Q115.922 447.314 114.001 445.532 Q112.103 443.75 108.746 443.75 M104.071 441.759 Q101.061 441.018 99.3715 438.958 Q97.7048 436.898 97.7048 433.935 Q97.7048 429.791 100.645 427.384 Q103.608 424.976 108.746 424.976 Q113.908 424.976 116.848 427.384 Q119.788 429.791 119.788 433.935 Q119.788 436.898 118.098 438.958 Q116.432 441.018 113.445 441.759 Q116.825 442.546 118.7 444.837 Q120.598 447.129 120.598 450.439 Q120.598 455.462 117.52 458.148 Q114.464 460.833 108.746 460.833 Q103.029 460.833 99.9502 458.148 Q96.8947 455.462 96.8947 450.439 Q96.8947 447.129 98.7928 444.837 Q100.691 442.546 104.071 441.759 M102.358 434.375 Q102.358 437.06 104.024 438.564 Q105.714 440.069 108.746 440.069 Q111.756 440.069 113.445 438.564 Q115.158 437.06 115.158 434.375 Q115.158 431.689 113.445 430.185 Q111.756 428.68 108.746 428.68 Q105.714 428.68 104.024 430.185 Q102.358 431.689 102.358 434.375 Z" fill="#000000" fill-rule="nonzero" fill-opacity="1" /><path clip-path="url(#clip690)" d="M54.2328 196.808 L61.8717 196.808 L61.8717 170.443 L53.5616 172.109 L53.5616 167.85 L61.8254 166.183 L66.5013 166.183 L66.5013 196.808 L74.1402 196.808 L74.1402 200.743 L54.2328 200.743 L54.2328 196.808 Z" fill="#000000" fill-rule="nonzero" fill-opacity="1" /><path clip-path="url(#clip690)" d="M83.5845 194.864 L88.4688 194.864 L88.4688 200.743 L83.5845 200.743 L83.5845 194.864 Z" fill="#000000" fill-rule="nonzero" fill-opacity="1" /><path clip-path="url(#clip690)" d="M108.654 169.262 Q105.043 169.262 103.214 172.827 Q101.409 176.369 101.409 183.498 Q101.409 190.605 103.214 194.169 Q105.043 197.711 108.654 197.711 Q112.288 197.711 114.094 194.169 Q115.922 190.605 115.922 183.498 Q115.922 176.369 114.094 172.827 Q112.288 169.262 108.654 169.262 M108.654 165.558 Q114.464 165.558 117.52 170.165 Q120.598 174.748 120.598 183.498 Q120.598 192.225 117.52 196.831 Q114.464 201.415 108.654 201.415 Q102.844 201.415 99.765 196.831 Q96.7095 192.225 96.7095 183.498 Q96.7095 174.748 99.765 170.165 Q102.844 165.558 108.654 165.558 Z" fill="#000000" fill-rule="nonzero" fill-opacity="1" /><polyline clip-path="url(#clip692)" style="stroke:#009af9; stroke-linecap:round; stroke-linejoin:round; stroke-width:8; stroke-opacity:1; fill:none" points="156.598,1221.14 158.797,1218.53 160.995,1215.89 163.193,1213.23 165.392,1210.54 167.59,1207.82 169.788,1205.08 171.987,1202.31 174.185,1199.51 176.383,1196.68 178.582,1193.82 180.78,1190.94 182.979,1188.03 185.177,1185.08 187.375,1182.11 189.574,1179.11 191.772,1176.08 193.97,1173.01 196.169,1169.92 198.367,1166.79 200.565,1163.64 202.764,1160.45 204.962,1157.23 207.16,1153.98 209.359,1150.69 211.557,1147.37 213.755,1144.02 215.954,1140.63 218.152,1137.21 220.351,1133.76 222.549,1130.27 224.747,1126.75 226.946,1123.19 229.144,1119.59 231.342,1115.96 233.541,1112.29 235.739,1108.59 237.937,1104.85 240.136,1101.07 242.334,1097.25 244.532,1093.39 246.731,1089.5 248.929,1085.56 251.128,1081.59 253.326,1077.58 255.524,1073.52 257.723,1069.43 259.921,1065.29 262.119,1061.11 264.318,1056.89 266.516,1052.63 268.714,1048.33 270.913,1043.98 273.111,1039.59 275.309,1035.15 277.508,1030.67 279.706,1026.14 281.905,1021.57 284.103,1016.95 286.301,1012.29 288.5,1007.58 290.698,1002.82 292.896,998.015 295.095,993.161 297.293,988.257 299.491,983.305 301.69,978.302 303.888,973.249 306.086,968.146 308.285,962.991 310.483,957.784 312.682,952.525 314.88,947.212 317.078,941.847 319.277,936.427 321.475,930.953 323.673,925.424 325.872,919.839 328.07,914.198 330.268,908.501 332.467,902.746 334.665,896.933 336.863,891.061 339.062,885.131 341.26,879.141 343.458,873.09 345.657,866.979 347.855,860.807 350.054,854.572 352.252,848.274 354.45,841.913 356.649,835.488 358.847,828.999 361.045,822.444 363.244,815.823 365.442,809.136 367.64,802.381 369.839,795.559 372.037,788.667 374.235,1305.84 376.434,1304.08 378.632,1302.31 380.831,1300.52 383.029,1298.7 385.227,1296.88 387.426,1295.03 389.624,1293.16 391.822,1291.28 394.021,1289.37 396.219,1287.45 398.417,1285.51 400.616,1283.54 402.814,1281.56 405.012,1279.56 407.211,1277.54 409.409,1275.5 411.608,1273.43 413.806,1271.35 416.004,1269.24 418.203,1267.12 420.401,1264.97 422.599,1262.8 424.798,1260.61 426.996,1258.4 429.194,1256.16 431.393,1253.91 433.591,1251.63 435.789,1249.32 437.988,1247 440.186,1244.65 442.385,1242.27 444.583,1239.88 446.781,1237.46 448.98,1235.01 451.178,1232.54 453.376,1230.04 455.575,1227.52 457.773,1224.98 459.971,1222.41 462.17,1219.81 464.368,1217.19 466.566,1214.54 468.765,1211.86 470.963,1344.86 473.162,1343.49 475.36,1342.11 477.558,1340.72 479.757,1339.31 481.955,1337.89 484.153,1336.46 486.352,1335.01 488.55,1333.54 490.748,1332.06 492.947,1330.57 495.145,1329.06 497.343,1327.54 499.542,1326 501.74,1324.44 503.938,1322.87 506.137,1321.29 508.335,1319.68 510.534,1318.06 512.732,1316.43 514.93,1314.78 517.129,1313.11 519.327,1311.43 521.525,1309.73 523.724,1308.01 525.922,1306.27 528.12,1304.52 530.319,1302.75 532.517,1300.96 534.715,1299.15 536.914,1297.33 539.112,1295.48 541.311,1293.62 543.509,1291.74 545.707,1289.84 547.906,1384.24 550.104,1383.27 552.302,1382.29 554.501,1381.3 556.699,1380.3 558.897,1379.29 561.096,1378.28 563.294,1377.25 565.492,1376.21 567.691,1375.16 569.889,1374.1 572.088,1373.03 574.286,1371.95 576.484,1370.85 578.683,1369.75 580.881,1368.63 583.079,1367.51 585.278,1366.37 587.476,1365.22 589.674,1364.06 591.873,1362.89 594.071,1361.71 596.269,1360.51 598.468,1359.3 600.666,1358.08 602.865,1356.85 605.063,1355.61 607.261,1354.35 609.46,1353.08 611.658,1351.8 613.856,1350.5 616.055,1349.19 618.253,1347.87 620.451,1346.54 622.65,1345.19 624.848,1343.83 627.046,1342.45 629.245,1341.06 631.443,1339.66 633.641,1338.24 635.84,1336.81 638.038,1335.36 640.237,1333.9 642.435,1332.43 644.633,1330.94 646.832,1329.43 649.03,1327.91 651.228,1326.38 653.427,1324.83 655.625,1323.26 657.823,1321.68 660.022,1320.08 662.22,1318.46 664.418,1316.83 666.617,1315.19 668.815,1313.52 671.014,1311.84 673.212,1310.14 675.41,1308.43 677.609,1306.7 679.807,1304.95 682.005,1303.18 684.204,1301.4 686.402,1299.6 688.6,1297.78 690.799,1295.94 692.997,1294.08 695.195,1292.2 697.394,1290.31 699.592,1288.4 701.791,1286.46 703.989,1284.51 706.187,1282.54 708.386,1280.55 710.584,1278.53 712.782,1276.5 714.981,1274.45 717.179,1272.38 719.377,1270.28 721.576,1268.17 723.774,1266.03 725.972,1263.87 728.171,1261.69 730.369,1259.49 732.568,1257.27 734.766,1255.02 736.964,1252.75 739.163,1250.46 741.361,1248.15 743.559,1245.81 745.758,1243.45 747.956,1241.06 750.154,1238.65 752.353,1236.22 754.551,1233.76 756.749,1231.28 758.948,1228.77 761.146,1226.24 763.344,1223.68 765.543,1221.1 767.741,1218.48 769.94,1215.85 772.138,1213.18 774.336,1210.49 776.535,1207.78 778.733,1205.03 780.931,1202.26 783.13,1199.46 785.328,1196.63 787.526,1193.78 789.725,1190.89 791.923,1187.98 794.121,1185.03 796.32,1182.06 798.518,1179.06 800.717,1176.02 802.915,1172.96 805.113,1169.86 807.312,1166.74 809.51,1163.58 811.708,1160.39 813.907,1157.17 816.105,1153.92 818.303,1150.63 820.502,1147.31 822.7,1143.96 824.898,1140.57 827.097,1137.15 829.295,1133.7 831.494,1130.21 833.692,1126.69 835.89,1123.13 838.089,1119.53 840.287,1115.9 842.485,1296.39 844.684,1294.54 846.882,1292.67 849.08,1290.78 851.279,1288.87 853.477,1286.94 855.675,1284.99 857.874,1283.02 860.072,1281.04 862.271,1279.03 864.469,1277 866.667,1274.95 868.866,1272.89 871.064,1270.8 873.262,1268.69 875.461,1266.55 877.659,1264.4 879.857,1262.23 882.056,1260.03 884.254,1257.81 886.452,1255.57 888.651,1253.31 890.849,1251.02 893.048,1248.71 895.246,1246.38 897.444,1244.03 899.643,1241.65 901.841,1239.24 904.039,1236.82 906.238,1234.36 908.436,1231.89 910.634,1229.39 912.833,1226.86 915.031,1224.31 917.229,1221.73 919.428,1219.13 921.626,1216.5 923.824,1213.84 926.023,1211.16 928.221,1208.45 930.42,1205.71 932.618,1202.95 934.816,1200.15 937.015,1197.33 939.213,1194.48 941.411,1191.6 943.61,1188.7 945.808,1185.76 948.006,1182.8 950.205,1179.8 952.403,1176.77 954.601,1173.72 956.8,1170.63 958.998,1167.51 961.197,1164.36 963.395,1161.18 965.593,1157.97 967.792,1154.72 969.99,1151.44 972.188,1148.13 974.387,1144.79 976.585,1141.41 978.783,1138 980.982,1134.55 983.18,1131.07 985.378,1127.55 987.577,1124 989.775,1120.42 991.974,1116.79 994.172,1113.13 996.37,1109.44 998.569,1105.7 1000.77,1101.93 1002.97,1098.12 1005.16,1094.28 1007.36,1090.39 1009.56,1086.46 1011.76,1082.5 1013.96,1078.5 1016.16,1074.45 1018.35,1070.37 1020.55,1066.24 1022.75,1062.07 1024.95,1057.86 1027.15,1053.61 1029.35,1049.31 1031.54,1044.97 1033.74,1040.59 1035.94,1036.17 1038.14,1031.7 1040.34,1027.18 1042.54,1022.62 1044.73,1018.01 1046.93,1013.36 1049.13,1008.66 1051.33,1003.91 1053.53,999.116 1055.73,994.273 1057.92,1234.97 1060.12,1232.5 1062.32,1230.01 1064.52,1227.49 1066.72,1224.94 1068.92,1222.37 1071.11,1219.77 1073.31,1217.15 1075.51,1214.5 1077.71,1211.82 1079.91,1209.12 1082.11,1206.39 1084.3,1203.63 1086.5,1200.84 1088.7,1198.03 1090.9,1195.19 1093.1,1192.31 1095.3,1189.41 1097.49,1186.49 1099.69,1183.53 1101.89,1180.54 1104.09,1177.52 1106.29,1174.47 1108.49,1171.4 1110.68,1168.29 1112.88,1165.15 1115.08,1161.97 1117.28,1158.77 1119.48,1155.53 1121.68,1152.26 1123.87,1148.96 1126.07,1145.63 1128.27,1142.26 1130.47,1138.86 1132.67,1135.42 1134.87,1131.95 1137.07,1128.44 1139.26,1124.9 1141.46,1121.32 1143.66,1117.71 1145.86,1114.06 1148.06,1110.37 1150.26,1106.65 1152.45,1102.89 1154.65,1099.09 1156.85,1095.25 1159.05,1091.38 1161.25,1087.46 1163.45,1083.51 1165.64,1079.51 1167.84,1075.48 1170.04,1071.4 1172.24,1067.29 1174.44,1063.13 1176.64,1058.93 1178.83,1054.69 1181.03,1050.4 1183.23,1046.08 1185.43,1041.7 1187.63,1037.29 1189.83,1032.83 1192.02,1028.32 1194.22,1023.77 1196.42,1019.18 1198.62,1014.53 1200.82,1009.84 1203.02,1005.11 1205.21,1000.32 1207.41,995.492 1209.61,990.611 1211.81,985.681 1214.01,980.701 1216.21,975.672 1218.4,970.591 1220.6,965.46 1222.8,960.278 1225,955.043 1227.2,949.756 1229.4,944.415 1231.59,939.022 1233.79,933.574 1235.99,928.071 1238.19,922.513 1240.39,916.899 1242.59,911.228 1244.78,905.501 1246.98,899.716 1249.18,893.872 1251.38,887.97 1253.58,882.008 1255.78,1178.27 1257.97,1175.23 1260.17,1172.15 1262.37,1169.05 1264.57,1165.92 1266.77,1162.75 1268.97,1159.55 1271.16,1156.32 1273.36,1153.06 1275.56,1149.77 1277.76,1146.44 1279.96,1143.08 1282.16,1139.68 1284.35,1136.25 1286.55,1132.79 1288.75,1129.29 1290.95,1125.76 1293.15,1122.19 1295.35,1118.58 1297.55,1114.94 1299.74,1111.27 1301.94,1107.55 1304.14,1103.8 1306.34,1100.01 1308.54,1096.18 1310.74,1092.32 1312.93,1088.41 1315.13,1084.47 1317.33,1080.49 1319.53,1076.46 1321.73,1072.4 1323.93,1068.3 1326.12,1064.15 1328.32,1059.96 1330.52,1055.73 1332.72,1051.46 1334.92,1047.15 1337.12,1042.79 1339.31,1038.38 1341.51,1033.94 1343.71,1029.45 1345.91,1024.91 1348.11,1020.33 1350.31,1015.7 1352.5,1011.02 1354.7,1006.3 1356.9,1001.53 1359.1,996.713 1361.3,991.847 1363.5,986.931 1365.69,981.966 1367.89,976.951 1370.09,971.885 1372.29,966.768 1374.49,961.6 1376.69,956.379 1378.88,951.106 1381.08,945.779 1383.28,940.399 1385.48,934.964 1387.68,929.475 1389.88,923.93 1392.07,918.33 1394.27,912.672 1396.47,906.958 1398.67,901.186 1400.87,895.356 1403.07,889.468 1405.26,883.519 1407.46,877.511 1409.66,871.443 1411.86,865.313 1414.06,859.121 1416.26,852.867 1418.45,846.55 1420.65,840.17 1422.85,833.726 1425.05,827.216 1427.25,820.641 1429.45,814 1431.64,807.293 1433.84,800.518 1436.04,793.675 1438.24,786.763 1440.44,779.782 1442.64,772.731 1444.83,765.61 1447.03,758.417 1449.23,751.152 1451.43,743.814 1453.63,1108.48 1455.83,1104.73 1458.03,1100.95 1460.22,1097.13 1462.42,1093.28 1464.62,1089.38 1466.82,1085.44 1469.02,1081.47 1471.22,1077.45 1473.41,1073.4 1475.61,1069.3 1477.81,1065.16 1480.01,1060.98 1482.21,1056.76 1484.41,1052.5 1486.6,1048.19 1488.8,1043.84 1491,1039.45 1493.2,1035.01 1495.4,1030.53 1497.6,1026.01 1499.79,1021.43 1501.99,1016.82 1504.19,1012.15 1506.39,1007.44 1508.59,1002.69 1510.79,997.88 1512.98,993.026 1515.18,988.124 1517.38,983.173 1519.58,978.172 1521.78,973.12 1523.98,968.018 1526.17,962.865 1528.37,957.66 1530.57,952.402 1532.77,947.092 1534.97,941.728 1537.17,936.311 1539.36,930.839 1541.56,925.312 1543.76,919.729 1545.96,914.09 1548.16,908.395 1550.36,902.642 1552.55,896.831 1554.75,890.961 1556.95,885.032 1559.15,879.044 1561.35,872.995 1563.55,866.885 1565.74,860.714 1567.94,854.48 1570.14,848.184 1572.34,841.824 1574.54,835.399 1576.74,828.91 1578.93,822.356 1581.13,815.735 1583.33,809.047 1585.53,802.292 1587.73,795.469 1589.93,788.576 1592.12,781.615 1594.32,774.582 1596.52,767.479 1598.72,760.304 1600.92,753.057 1603.12,745.736 1605.31,738.342 1607.51,730.873 1609.71,723.328 1611.91,715.708 1614.11,708.01 1616.31,700.235 1618.5,692.382 1620.7,684.449 1622.9,676.436 1625.1,668.343 1627.3,660.168 1629.5,651.911 1631.7,643.57 1633.89,635.146 1636.09,626.637 1638.29,618.042 1640.49,609.361 1642.69,600.592 1644.89,591.736 1647.08,582.791 1649.28,573.755 1651.48,564.63 1653.68,555.412 1655.88,546.103 1658.08,536.7 1660.27,527.203 1662.47,517.611 1664.67,507.923 1666.87,498.138 1669.07,488.255 1671.27,478.272 1673.46,468.189 1675.66,458.004 1677.86,447.717 1680.06,437.327 1682.26,426.831 1684.46,416.231 1686.65,405.523 1688.85,394.708 1691.05,383.784 1693.25,372.751 1695.45,361.606 1697.65,350.349 1699.84,338.979 1702.04,327.494 1704.24,898.216 1706.44,892.358 1708.64,886.44 1710.84,880.463 1713.03,874.425 1715.23,868.327 1717.43,862.168 1719.63,855.946 1721.83,849.662 1724.03,843.315 1726.22,836.904 1728.42,830.429 1730.62,823.888 1732.82,817.282 1735.02,810.609 1737.22,803.87 1739.41,797.063 1741.61,790.187 1743.81,783.242 1746.01,776.228 1748.21,769.143 1750.41,761.987 1752.6,754.759 1754.8,747.458 1757,740.084 1759.2,732.636 1761.4,725.113 1763.6,717.514 1765.79,709.839 1767.99,702.087 1770.19,694.257 1772.39,686.348 1774.59,678.359 1776.79,670.29 1778.98,662.14 1781.18,653.908 1783.38,645.593 1785.58,637.194 1787.78,628.711 1789.98,620.142 1792.18,611.487 1794.37,602.745 1796.57,593.915 1798.77,584.995 1800.97,575.986 1803.17,566.886 1805.37,557.695 1807.56,548.411 1809.76,539.033 1811.96,529.561 1814.16,519.993 1816.36,510.329 1818.56,500.568 1820.75,490.708 1822.95,480.749 1825.15,470.69 1827.35,460.529 1829.55,450.266 1831.75,439.899 1833.94,429.428 1836.14,418.852 1838.34,408.17 1840.54,397.379 1842.74,386.481 1844.94,375.472 1847.13,364.353 1849.33,353.122 1851.53,341.779 1853.73,330.321 1855.93,318.748 1858.13,307.059 1860.32,295.253 1862.52,283.328 1864.72,876.042 1866.92,869.961 1869.12,863.818 1871.32,857.613 1873.51,851.346 1875.71,845.016 1877.91,838.623 1880.11,832.165 1882.31,825.642 1884.51,819.053 1886.7,812.398 1888.9,805.676 1891.1,798.887 1893.3,792.029 1895.5,785.103 1897.7,778.106 1899.89,771.039 1902.09,763.902 1904.29,756.692 1906.49,749.41 1908.69,742.054 1910.89,734.625 1913.08,727.12 1915.28,719.541 1917.48,711.885 1919.68,704.152 1921.88,696.341 1924.08,688.451 1926.27,680.483 1928.47,672.434 1930.67,664.304 1932.87,656.092 1935.07,647.798 1937.27,639.42 1939.46,630.958 1941.66,1051.51 1943.86,1047.19 1946.06,1042.83 1948.26,1038.43 1950.46,1033.98 1952.66,1029.49 1954.85,1024.95 1957.05,1020.37 1959.25,1015.73 1961.45,1011.06 1963.65,1006.33 1965.85,1001.56 1968.04,996.744 1970.24,991.877 1972.44,986.96 1974.64,981.995 1976.84,976.98 1979.04,971.914 1981.23,966.798 1983.43,961.631 1985.63,956.412 1987.83,951.141 1990.03,945.816 1992.23,940.439 1994.42,935.008 1996.62,929.522 1998.82,923.981 2001.02,918.385 2003.22,912.733 2005.42,907.024 2007.61,901.258 2009.81,895.433 2012.01,889.551 2014.21,883.61 2016.41,877.608 2018.61,871.547 2020.8,865.425 2023,859.241 2025.2,852.995 2027.4,846.686 2029.6,840.314 2031.8,833.878 2033.99,827.377 2036.19,820.811 2038.39,814.178 2040.59,807.479 2042.79,800.713 2044.99,793.878 2047.18,786.974 2049.38,780.001 2051.58,772.957 2053.78,765.842 2055.98,758.656 2058.18,751.397 2060.37,744.065 2062.57,736.659 2064.77,729.178 2066.97,721.621 2069.17,713.988 2071.37,706.278 2073.56,698.491 2075.76,690.624 2077.96,682.678 2080.16,674.652 2082.36,666.545 2084.56,658.356 2086.75,650.084 2088.95,641.728 2091.15,633.288 2093.35,624.763 2095.55,616.151 2097.75,607.453 2099.94,598.667 2102.14,589.792 2104.34,580.827 2106.54,571.772 2108.74,562.625 2110.94,553.386 2113.14,544.054 2115.33,534.628 2117.53,525.106 2119.73,515.489 2121.93,505.774 2124.13,495.962 2126.33,486.051 2128.52,476.04 2130.72,465.928 2132.92,455.714 2135.12,445.398 2137.32,434.978 2139.52,424.453 2141.71,413.822 2143.91,403.085 2146.11,392.24 2148.31,381.286 2150.51,370.222 2152.71,359.048 2154.9,347.761 2157.1,336.362 2159.3,324.849 2161.5,313.22 2163.7,301.476 2165.9,289.614 2168.09,277.632 2170.29,265.531 2172.49,253.307 2174.69,240.961 2176.89,228.49 2179.09,215.894 2181.28,203.171 2183.48,190.32 2185.68,828.943 2187.88,822.387 2190.08,815.766 2192.28,809.077 2194.47,802.321 2196.67,795.498 2198.87,788.605 2201.07,781.644 2203.27,774.612 2205.47,767.51 2207.66,760.336 2209.86,753.091 2212.06,745.772 2214.26,738.38 2216.46,730.914 2218.66,723.373 2220.85,715.756 2223.05,708.062 2225.25,700.291 2227.45,692.443 2229.65,684.515 2231.85,676.508 2234.04,668.42 2236.24,660.251 2238.44,652 2240.64,643.667 2242.84,635.249 2245.04,626.747 2247.23,618.159 2249.43,609.485 2251.63,600.724 2253.83,591.874 2256.03,582.936 2258.23,573.907 2260.42,564.788 2262.62,555.577 2264.82,546.274 2267.02,536.876 2269.22,527.384 2271.42,517.797 2273.62,508.113 2275.81,498.331 2278.01,488.451 2280.21,478.471 2282.41,468.391 2284.61,458.209 2286.81,447.925 2289,437.537 2291.2,427.044 2293.4,416.445 2295.6,405.74 2297.8,394.927 2300,384.005 2302.19,372.972 2304.39,361.829 2306.59,350.573 2308.79,339.204 2310.99,327.72 2313.19,316.121 2315.38,304.404 2317.58,292.57 2319.78,280.616 2321.98,268.542 2324.18,256.347 2326.38,244.029 2328.57,231.587 2330.77,219.019 2332.97,206.325 2335.17,193.504 2337.37,180.554 2339.57,167.473 2341.76,154.261 2343.96,140.917 2346.16,127.438 2348.36,113.824 2350.56,100.074 2352.76,86.1857 "/>
<path clip-path="url(#clip690)" d="M229.803 196.789 L557.104 196.789 L557.104 93.1086 L229.803 93.1086  Z" fill="#ffffff" fill-rule="evenodd" fill-opacity="1"/>
<polyline clip-path="url(#clip690)" style="stroke:#000000; stroke-linecap:round; stroke-linejoin:round; stroke-width:4; stroke-opacity:1; fill:none" points="229.803,196.789 557.104,196.789 557.104,93.1086 229.803,93.1086 229.803,196.789 "/>
<polyline clip-path="url(#clip690)" style="stroke:#009af9; stroke-linecap:round; stroke-linejoin:round; stroke-width:8; stroke-opacity:1; fill:none" points="254.205,144.949 400.616,144.949 "/>
<path clip-path="url(#clip690)" d="M425.018 151.997 L425.018 136.303 L429.277 136.303 L429.277 151.835 Q429.277 155.516 430.712 157.368 Q432.147 159.196 435.017 159.196 Q438.467 159.196 440.457 156.997 Q442.471 154.798 442.471 151.002 L442.471 136.303 L446.73 136.303 L446.73 162.229 L442.471 162.229 L442.471 158.247 Q440.92 160.608 438.86 161.766 Q436.823 162.9 434.115 162.9 Q429.647 162.9 427.332 160.122 Q425.018 157.344 425.018 151.997 M435.735 135.678 L435.735 135.678 Z" fill="#000000" fill-rule="nonzero" fill-opacity="1" /><path clip-path="url(#clip690)" d="M456.915 158.293 L464.554 158.293 L464.554 131.928 L456.244 133.595 L456.244 129.335 L464.508 127.669 L469.184 127.669 L469.184 158.293 L476.823 158.293 L476.823 162.229 L456.915 162.229 L456.915 158.293 Z" fill="#000000" fill-rule="nonzero" fill-opacity="1" /><path clip-path="url(#clip690)" d="M495.897 126.257 Q492.795 131.581 491.29 136.789 Q489.786 141.997 489.786 147.344 Q489.786 152.692 491.29 157.946 Q492.818 163.178 495.897 168.479 L492.193 168.479 Q488.721 163.039 486.985 157.784 Q485.272 152.53 485.272 147.344 Q485.272 142.182 486.985 136.951 Q488.698 131.72 492.193 126.257 L495.897 126.257 Z" fill="#000000" fill-rule="nonzero" fill-opacity="1" /><path clip-path="url(#clip690)" d="M508.374 128.942 L508.374 136.303 L517.147 136.303 L517.147 139.613 L508.374 139.613 L508.374 153.687 Q508.374 156.858 509.23 157.761 Q510.11 158.664 512.772 158.664 L517.147 158.664 L517.147 162.229 L512.772 162.229 Q507.841 162.229 505.966 160.4 Q504.091 158.548 504.091 153.687 L504.091 139.613 L500.966 139.613 L500.966 136.303 L504.091 136.303 L504.091 128.942 L508.374 128.942 Z" fill="#000000" fill-rule="nonzero" fill-opacity="1" /><path clip-path="url(#clip690)" d="M522.077 126.257 L525.781 126.257 Q529.253 131.72 530.966 136.951 Q532.702 142.182 532.702 147.344 Q532.702 152.53 530.966 157.784 Q529.253 163.039 525.781 168.479 L522.077 168.479 Q525.156 163.178 526.66 157.946 Q528.188 152.692 528.188 147.344 Q528.188 141.997 526.66 136.789 Q525.156 131.581 522.077 126.257 Z" fill="#000000" fill-rule="nonzero" fill-opacity="1" /></svg>
