<?xml version="1.0" encoding="utf-8"?>
<svg xmlns="http://www.w3.org/2000/svg" xmlns:xlink="http://www.w3.org/1999/xlink" width="600" height="400" viewBox="0 0 2400 1600">
<defs>
  <clipPath id="clip900">
    <rect x="0" y="0" width="2400" height="1600"/>
  </clipPath>
</defs>
<path clip-path="url(#clip900)" d="M0 1600 L2400 1600 L2400 0 L0 0  Z" fill="#ffffff" fill-rule="evenodd" fill-opacity="1"/>
<defs>
  <clipPath id="clip901">
    <rect x="480" y="0" width="1681" height="1600"/>
  </clipPath>
</defs>
<path clip-path="url(#clip900)" d="M156.112 1423.18 L2352.76 1423.18 L2352.76 47.2441 L156.112 47.2441  Z" fill="#ffffff" fill-rule="evenodd" fill-opacity="1"/>
<defs>
  <clipPath id="clip902">
    <rect x="156" y="47" width="2198" height="1377"/>
  </clipPath>
</defs>
<polyline clip-path="url(#clip902)" style="stroke:#000000; stroke-linecap:round; stroke-linejoin:round; stroke-width:2; stroke-opacity:0.1; fill:none" points="156.112,1423.18 156.112,47.2441 "/>
<polyline clip-path="url(#clip902)" style="stroke:#000000; stroke-linecap:round; stroke-linejoin:round; stroke-width:2; stroke-opacity:0.1; fill:none" points="595.441,1423.18 595.441,47.2441 "/>
<polyline clip-path="url(#clip902)" style="stroke:#000000; stroke-linecap:round; stroke-linejoin:round; stroke-width:2; stroke-opacity:0.1; fill:none" points="1034.77,1423.18 1034.77,47.2441 "/>
<polyline clip-path="url(#clip902)" style="stroke:#000000; stroke-linecap:round; stroke-linejoin:round; stroke-width:2; stroke-opacity:0.1; fill:none" points="1474.1,1423.18 1474.1,47.2441 "/>
<polyline clip-path="url(#clip902)" style="stroke:#000000; stroke-linecap:round; stroke-linejoin:round; stroke-width:2; stroke-opacity:0.1; fill:none" points="1913.43,1423.18 1913.43,47.2441 "/>
<polyline clip-path="url(#clip902)" style="stroke:#000000; stroke-linecap:round; stroke-linejoin:round; stroke-width:2; stroke-opacity:0.1; fill:none" points="2352.76,1423.18 2352.76,47.2441 "/>
<polyline clip-path="url(#clip900)" style="stroke:#000000; stroke-linecap:round; stroke-linejoin:round; stroke-width:4; stroke-opacity:1; fill:none" points="156.112,1423.18 2352.76,1423.18 "/>
<polyline clip-path="url(#clip900)" style="stroke:#000000; stroke-linecap:round; stroke-linejoin:round; stroke-width:4; stroke-opacity:1; fill:none" points="156.112,1423.18 156.112,1404.28 "/>
<polyline clip-path="url(#clip900)" style="stroke:#000000; stroke-linecap:round; stroke-linejoin:round; stroke-width:4; stroke-opacity:1; fill:none" points="595.441,1423.18 595.441,1404.28 "/>
<polyline clip-path="url(#clip900)" style="stroke:#000000; stroke-linecap:round; stroke-linejoin:round; stroke-width:4; stroke-opacity:1; fill:none" points="1034.77,1423.18 1034.77,1404.28 "/>
<polyline clip-path="url(#clip900)" style="stroke:#000000; stroke-linecap:round; stroke-linejoin:round; stroke-width:4; stroke-opacity:1; fill:none" points="1474.1,1423.18 1474.1,1404.28 "/>
<polyline clip-path="url(#clip900)" style="stroke:#000000; stroke-linecap:round; stroke-linejoin:round; stroke-width:4; stroke-opacity:1; fill:none" points="1913.43,1423.18 1913.43,1404.28 "/>
<polyline clip-path="url(#clip900)" style="stroke:#000000; stroke-linecap:round; stroke-linejoin:round; stroke-width:4; stroke-opacity:1; fill:none" points="2352.76,1423.18 2352.76,1404.28 "/>
<path clip-path="url(#clip900)" d="M156.112 1454.1 Q152.501 1454.1 150.672 1457.66 Q148.867 1461.2 148.867 1468.33 Q148.867 1475.44 150.672 1479.01 Q152.501 1482.55 156.112 1482.55 Q159.746 1482.55 161.552 1479.01 Q163.381 1475.44 163.381 1468.33 Q163.381 1461.2 161.552 1457.66 Q159.746 1454.1 156.112 1454.1 M156.112 1450.39 Q161.922 1450.39 164.978 1455 Q168.057 1459.58 168.057 1468.33 Q168.057 1477.06 164.978 1481.67 Q161.922 1486.25 156.112 1486.25 Q150.302 1486.25 147.223 1481.67 Q144.168 1477.06 144.168 1468.33 Q144.168 1459.58 147.223 1455 Q150.302 1450.39 156.112 1450.39 Z" fill="#000000" fill-rule="nonzero" fill-opacity="1" /><path clip-path="url(#clip900)" d="M590.094 1481.64 L606.413 1481.64 L606.413 1485.58 L584.469 1485.58 L584.469 1481.64 Q587.131 1478.89 591.714 1474.26 Q596.321 1469.61 597.501 1468.27 Q599.746 1465.74 600.626 1464.01 Q601.529 1462.25 601.529 1460.56 Q601.529 1457.8 599.584 1456.07 Q597.663 1454.33 594.561 1454.33 Q592.362 1454.33 589.909 1455.09 Q587.478 1455.86 584.7 1457.41 L584.7 1452.69 Q587.524 1451.55 589.978 1450.97 Q592.432 1450.39 594.469 1450.39 Q599.839 1450.39 603.033 1453.08 Q606.228 1455.77 606.228 1460.26 Q606.228 1462.39 605.418 1464.31 Q604.631 1466.2 602.524 1468.8 Q601.945 1469.47 598.844 1472.69 Q595.742 1475.88 590.094 1481.64 Z" fill="#000000" fill-rule="nonzero" fill-opacity="1" /><path clip-path="url(#clip900)" d="M1037.78 1455.09 L1025.97 1473.54 L1037.78 1473.54 L1037.78 1455.09 M1036.55 1451.02 L1042.43 1451.02 L1042.43 1473.54 L1047.36 1473.54 L1047.36 1477.43 L1042.43 1477.43 L1042.43 1485.58 L1037.78 1485.58 L1037.78 1477.43 L1022.18 1477.43 L1022.18 1472.92 L1036.55 1451.02 Z" fill="#000000" fill-rule="nonzero" fill-opacity="1" /><path clip-path="url(#clip900)" d="M1474.5 1466.44 Q1471.36 1466.44 1469.5 1468.59 Q1467.67 1470.74 1467.67 1474.49 Q1467.67 1478.22 1469.5 1480.39 Q1471.36 1482.55 1474.5 1482.55 Q1477.65 1482.55 1479.48 1480.39 Q1481.33 1478.22 1481.33 1474.49 Q1481.33 1470.74 1479.48 1468.59 Q1477.65 1466.44 1474.5 1466.44 M1483.79 1451.78 L1483.79 1456.04 Q1482.03 1455.21 1480.22 1454.77 Q1478.44 1454.33 1476.68 1454.33 Q1472.05 1454.33 1469.6 1457.45 Q1467.17 1460.58 1466.82 1466.9 Q1468.18 1464.89 1470.24 1463.82 Q1472.3 1462.73 1474.78 1462.73 Q1479.99 1462.73 1483 1465.9 Q1486.03 1469.05 1486.03 1474.49 Q1486.03 1479.82 1482.88 1483.03 Q1479.73 1486.25 1474.5 1486.25 Q1468.51 1486.25 1465.34 1481.67 Q1462.17 1477.06 1462.17 1468.33 Q1462.17 1460.14 1466.05 1455.28 Q1469.94 1450.39 1476.49 1450.39 Q1478.25 1450.39 1480.04 1450.74 Q1481.84 1451.09 1483.79 1451.78 Z" fill="#000000" fill-rule="nonzero" fill-opacity="1" /><path clip-path="url(#clip900)" d="M1913.43 1469.17 Q1910.09 1469.17 1908.17 1470.95 Q1906.27 1472.73 1906.27 1475.86 Q1906.27 1478.98 1908.17 1480.77 Q1910.09 1482.55 1913.43 1482.55 Q1916.76 1482.55 1918.68 1480.77 Q1920.6 1478.96 1920.6 1475.86 Q1920.6 1472.73 1918.68 1470.95 Q1916.78 1469.17 1913.43 1469.17 M1908.75 1467.18 Q1905.74 1466.44 1904.05 1464.38 Q1902.39 1462.32 1902.39 1459.35 Q1902.39 1455.21 1905.33 1452.8 Q1908.29 1450.39 1913.43 1450.39 Q1918.59 1450.39 1921.53 1452.8 Q1924.47 1455.21 1924.47 1459.35 Q1924.47 1462.32 1922.78 1464.38 Q1921.11 1466.44 1918.13 1467.18 Q1921.51 1467.96 1923.38 1470.26 Q1925.28 1472.55 1925.28 1475.86 Q1925.28 1480.88 1922.2 1483.57 Q1919.14 1486.25 1913.43 1486.25 Q1907.71 1486.25 1904.63 1483.57 Q1901.58 1480.88 1901.58 1475.86 Q1901.58 1472.55 1903.47 1470.26 Q1905.37 1467.96 1908.75 1467.18 M1907.04 1459.79 Q1907.04 1462.48 1908.7 1463.98 Q1910.39 1465.49 1913.43 1465.49 Q1916.44 1465.49 1918.13 1463.98 Q1919.84 1462.48 1919.84 1459.79 Q1919.84 1457.11 1918.13 1455.6 Q1916.44 1454.1 1913.43 1454.1 Q1910.39 1454.1 1908.7 1455.6 Q1907.04 1457.11 1907.04 1459.79 Z" fill="#000000" fill-rule="nonzero" fill-opacity="1" /><path clip-path="url(#clip900)" d="M2327.44 1481.64 L2335.08 1481.64 L2335.08 1455.28 L2326.77 1456.95 L2326.77 1452.69 L2335.04 1451.02 L2339.71 1451.02 L2339.71 1481.64 L2347.35 1481.64 L2347.35 1485.58 L2327.44 1485.58 L2327.44 1481.64 Z" fill="#000000" fill-rule="nonzero" fill-opacity="1" /><path clip-path="url(#clip900)" d="M2366.8 1454.1 Q2363.18 1454.1 2361.36 1457.66 Q2359.55 1461.2 2359.55 1468.33 Q2359.55 1475.44 2361.36 1479.01 Q2363.18 1482.55 2366.8 1482.55 Q2370.43 1482.55 2372.23 1479.01 Q2374.06 1475.44 2374.06 1468.33 Q2374.06 1461.2 2372.23 1457.66 Q2370.43 1454.1 2366.8 1454.1 M2366.8 1450.39 Q2372.61 1450.39 2375.66 1455 Q2378.74 1459.58 2378.74 1468.33 Q2378.74 1477.06 2375.66 1481.67 Q2372.61 1486.25 2366.8 1486.25 Q2360.99 1486.25 2357.91 1481.67 Q2354.85 1477.06 2354.85 1468.33 Q2354.85 1459.58 2357.91 1455 Q2360.99 1450.39 2366.8 1450.39 Z" fill="#000000" fill-rule="nonzero" fill-opacity="1" /><path clip-path="url(#clip900)" d="M1253.5 1522.27 L1253.5 1532.4 L1265.56 1532.4 L1265.56 1536.95 L1253.5 1536.95 L1253.5 1556.3 Q1253.5 1560.66 1254.67 1561.9 Q1255.88 1563.14 1259.54 1563.14 L1265.56 1563.14 L1265.56 1568.04 L1259.54 1568.04 Q1252.76 1568.04 1250.18 1565.53 Q1247.61 1562.98 1247.61 1556.3 L1247.61 1536.95 L1243.31 1536.95 L1243.31 1532.4 L1247.61 1532.4 L1247.61 1522.27 L1253.5 1522.27 Z" fill="#000000" fill-rule="nonzero" fill-opacity="1" /><polyline clip-path="url(#clip902)" style="stroke:#000000; stroke-linecap:round; stroke-linejoin:round; stroke-width:2; stroke-opacity:0.1; fill:none" points="156.112,1416.5 2352.76,1416.5 "/>
<polyline clip-path="url(#clip902)" style="stroke:#000000; stroke-linecap:round; stroke-linejoin:round; stroke-width:2; stroke-opacity:0.1; fill:none" points="156.112,1153.49 2352.76,1153.49 "/>
<polyline clip-path="url(#clip902)" style="stroke:#000000; stroke-linecap:round; stroke-linejoin:round; stroke-width:2; stroke-opacity:0.1; fill:none" points="156.112,890.484 2352.76,890.484 "/>
<polyline clip-path="url(#clip902)" style="stroke:#000000; stroke-linecap:round; stroke-linejoin:round; stroke-width:2; stroke-opacity:0.1; fill:none" points="156.112,627.474 2352.76,627.474 "/>
<polyline clip-path="url(#clip902)" style="stroke:#000000; stroke-linecap:round; stroke-linejoin:round; stroke-width:2; stroke-opacity:0.1; fill:none" points="156.112,364.465 2352.76,364.465 "/>
<polyline clip-path="url(#clip902)" style="stroke:#000000; stroke-linecap:round; stroke-linejoin:round; stroke-width:2; stroke-opacity:0.1; fill:none" points="156.112,101.455 2352.76,101.455 "/>
<polyline clip-path="url(#clip900)" style="stroke:#000000; stroke-linecap:round; stroke-linejoin:round; stroke-width:4; stroke-opacity:1; fill:none" points="156.112,1423.18 156.112,47.2441 "/>
<polyline clip-path="url(#clip900)" style="stroke:#000000; stroke-linecap:round; stroke-linejoin:round; stroke-width:4; stroke-opacity:1; fill:none" points="156.112,1416.5 175.01,1416.5 "/>
<polyline clip-path="url(#clip900)" style="stroke:#000000; stroke-linecap:round; stroke-linejoin:round; stroke-width:4; stroke-opacity:1; fill:none" points="156.112,1153.49 175.01,1153.49 "/>
<polyline clip-path="url(#clip900)" style="stroke:#000000; stroke-linecap:round; stroke-linejoin:round; stroke-width:4; stroke-opacity:1; fill:none" points="156.112,890.484 175.01,890.484 "/>
<polyline clip-path="url(#clip900)" style="stroke:#000000; stroke-linecap:round; stroke-linejoin:round; stroke-width:4; stroke-opacity:1; fill:none" points="156.112,627.474 175.01,627.474 "/>
<polyline clip-path="url(#clip900)" style="stroke:#000000; stroke-linecap:round; stroke-linejoin:round; stroke-width:4; stroke-opacity:1; fill:none" points="156.112,364.465 175.01,364.465 "/>
<polyline clip-path="url(#clip900)" style="stroke:#000000; stroke-linecap:round; stroke-linejoin:round; stroke-width:4; stroke-opacity:1; fill:none" points="156.112,101.455 175.01,101.455 "/>
<path clip-path="url(#clip900)" d="M62.9365 1402.3 Q59.3254 1402.3 57.4967 1405.87 Q55.6912 1409.41 55.6912 1416.54 Q55.6912 1423.64 57.4967 1427.21 Q59.3254 1430.75 62.9365 1430.75 Q66.5707 1430.75 68.3763 1427.21 Q70.205 1423.64 70.205 1416.54 Q70.205 1409.41 68.3763 1405.87 Q66.5707 1402.3 62.9365 1402.3 M62.9365 1398.6 Q68.7467 1398.6 71.8022 1403.2 Q74.8809 1407.79 74.8809 1416.54 Q74.8809 1425.26 71.8022 1429.87 Q68.7467 1434.45 62.9365 1434.45 Q57.1264 1434.45 54.0477 1429.87 Q50.9921 1425.26 50.9921 1416.54 Q50.9921 1407.79 54.0477 1403.2 Q57.1264 1398.6 62.9365 1398.6 Z" fill="#000000" fill-rule="nonzero" fill-opacity="1" /><path clip-path="url(#clip900)" d="M83.0984 1427.9 L87.9827 1427.9 L87.9827 1433.78 L83.0984 1433.78 L83.0984 1427.9 Z" fill="#000000" fill-rule="nonzero" fill-opacity="1" /><path clip-path="url(#clip900)" d="M108.168 1402.3 Q104.557 1402.3 102.728 1405.87 Q100.922 1409.41 100.922 1416.54 Q100.922 1423.64 102.728 1427.21 Q104.557 1430.75 108.168 1430.75 Q111.802 1430.75 113.608 1427.21 Q115.436 1423.64 115.436 1416.54 Q115.436 1409.41 113.608 1405.87 Q111.802 1402.3 108.168 1402.3 M108.168 1398.6 Q113.978 1398.6 117.033 1403.2 Q120.112 1407.79 120.112 1416.54 Q120.112 1425.26 117.033 1429.87 Q113.978 1434.45 108.168 1434.45 Q102.358 1434.45 99.2789 1429.87 Q96.2234 1425.26 96.2234 1416.54 Q96.2234 1407.79 99.2789 1403.2 Q102.358 1398.6 108.168 1398.6 Z" fill="#000000" fill-rule="nonzero" fill-opacity="1" /><path clip-path="url(#clip900)" d="M63.9319 1139.29 Q60.3208 1139.29 58.4921 1142.86 Q56.6865 1146.4 56.6865 1153.53 Q56.6865 1160.63 58.4921 1164.2 Q60.3208 1167.74 63.9319 1167.74 Q67.5661 1167.74 69.3717 1164.2 Q71.2004 1160.63 71.2004 1153.53 Q71.2004 1146.4 69.3717 1142.86 Q67.5661 1139.29 63.9319 1139.29 M63.9319 1135.59 Q69.742 1135.59 72.7976 1140.2 Q75.8763 1144.78 75.8763 1153.53 Q75.8763 1162.26 72.7976 1166.86 Q69.742 1171.44 63.9319 1171.44 Q58.1217 1171.44 55.043 1166.86 Q51.9875 1162.26 51.9875 1153.53 Q51.9875 1144.78 55.043 1140.2 Q58.1217 1135.59 63.9319 1135.59 Z" fill="#000000" fill-rule="nonzero" fill-opacity="1" /><path clip-path="url(#clip900)" d="M84.0938 1164.89 L88.978 1164.89 L88.978 1170.77 L84.0938 1170.77 L84.0938 1164.89 Z" fill="#000000" fill-rule="nonzero" fill-opacity="1" /><path clip-path="url(#clip900)" d="M99.2095 1136.21 L117.566 1136.21 L117.566 1140.15 L103.492 1140.15 L103.492 1148.62 Q104.51 1148.27 105.529 1148.11 Q106.547 1147.93 107.566 1147.93 Q113.353 1147.93 116.733 1151.1 Q120.112 1154.27 120.112 1159.69 Q120.112 1165.26 116.64 1168.37 Q113.168 1171.44 106.848 1171.44 Q104.672 1171.44 102.404 1171.07 Q100.159 1170.7 97.7511 1169.96 L97.7511 1165.26 Q99.8345 1166.4 102.057 1166.95 Q104.279 1167.51 106.756 1167.51 Q110.76 1167.51 113.098 1165.4 Q115.436 1163.3 115.436 1159.69 Q115.436 1156.07 113.098 1153.97 Q110.76 1151.86 106.756 1151.86 Q104.881 1151.86 103.006 1152.28 Q101.154 1152.69 99.2095 1153.57 L99.2095 1136.21 Z" fill="#000000" fill-rule="nonzero" fill-opacity="1" /><path clip-path="url(#clip900)" d="M53.7467 903.829 L61.3856 903.829 L61.3856 877.463 L53.0754 879.13 L53.0754 874.871 L61.3393 873.204 L66.0152 873.204 L66.0152 903.829 L73.654 903.829 L73.654 907.764 L53.7467 907.764 L53.7467 903.829 Z" fill="#000000" fill-rule="nonzero" fill-opacity="1" /><path clip-path="url(#clip900)" d="M83.0984 901.884 L87.9827 901.884 L87.9827 907.764 L83.0984 907.764 L83.0984 901.884 Z" fill="#000000" fill-rule="nonzero" fill-opacity="1" /><path clip-path="url(#clip900)" d="M108.168 876.283 Q104.557 876.283 102.728 879.847 Q100.922 883.389 100.922 890.519 Q100.922 897.625 102.728 901.19 Q104.557 904.732 108.168 904.732 Q111.802 904.732 113.608 901.19 Q115.436 897.625 115.436 890.519 Q115.436 883.389 113.608 879.847 Q111.802 876.283 108.168 876.283 M108.168 872.579 Q113.978 872.579 117.033 877.185 Q120.112 881.769 120.112 890.519 Q120.112 899.246 117.033 903.852 Q113.978 908.435 108.168 908.435 Q102.358 908.435 99.2789 903.852 Q96.2234 899.246 96.2234 890.519 Q96.2234 881.769 99.2789 877.185 Q102.358 872.579 108.168 872.579 Z" fill="#000000" fill-rule="nonzero" fill-opacity="1" /><path clip-path="url(#clip900)" d="M54.7421 640.819 L62.381 640.819 L62.381 614.454 L54.0708 616.12 L54.0708 611.861 L62.3347 610.194 L67.0106 610.194 L67.0106 640.819 L74.6494 640.819 L74.6494 644.754 L54.7421 644.754 L54.7421 640.819 Z" fill="#000000" fill-rule="nonzero" fill-opacity="1" /><path clip-path="url(#clip900)" d="M84.0938 638.875 L88.978 638.875 L88.978 644.754 L84.0938 644.754 L84.0938 638.875 Z" fill="#000000" fill-rule="nonzero" fill-opacity="1" /><path clip-path="url(#clip900)" d="M99.2095 610.194 L117.566 610.194 L117.566 614.13 L103.492 614.13 L103.492 622.602 Q104.51 622.255 105.529 622.093 Q106.547 621.907 107.566 621.907 Q113.353 621.907 116.733 625.079 Q120.112 628.25 120.112 633.667 Q120.112 639.245 116.64 642.347 Q113.168 645.426 106.848 645.426 Q104.672 645.426 102.404 645.055 Q100.159 644.685 97.7511 643.944 L97.7511 639.245 Q99.8345 640.38 102.057 640.935 Q104.279 641.491 106.756 641.491 Q110.76 641.491 113.098 639.384 Q115.436 637.278 115.436 633.667 Q115.436 630.055 113.098 627.949 Q110.76 625.843 106.756 625.843 Q104.881 625.843 103.006 626.259 Q101.154 626.676 99.2095 627.555 L99.2095 610.194 Z" fill="#000000" fill-rule="nonzero" fill-opacity="1" /><path clip-path="url(#clip900)" d="M56.9643 377.81 L73.2837 377.81 L73.2837 381.745 L51.3393 381.745 L51.3393 377.81 Q54.0014 375.055 58.5847 370.426 Q63.1911 365.773 64.3717 364.43 Q66.617 361.907 67.4967 360.171 Q68.3994 358.412 68.3994 356.722 Q68.3994 353.967 66.455 352.231 Q64.5337 350.495 61.4319 350.495 Q59.2328 350.495 56.7791 351.259 Q54.3486 352.023 51.5708 353.574 L51.5708 348.852 Q54.3949 347.717 56.8486 347.139 Q59.3023 346.56 61.3393 346.56 Q66.7096 346.56 69.9041 349.245 Q73.0985 351.93 73.0985 356.421 Q73.0985 358.551 72.2883 360.472 Q71.5013 362.37 69.3948 364.963 Q68.8161 365.634 65.7143 368.851 Q62.6124 372.046 56.9643 377.81 Z" fill="#000000" fill-rule="nonzero" fill-opacity="1" /><path clip-path="url(#clip900)" d="M83.0984 375.865 L87.9827 375.865 L87.9827 381.745 L83.0984 381.745 L83.0984 375.865 Z" fill="#000000" fill-rule="nonzero" fill-opacity="1" /><path clip-path="url(#clip900)" d="M108.168 350.264 Q104.557 350.264 102.728 353.828 Q100.922 357.37 100.922 364.5 Q100.922 371.606 102.728 375.171 Q104.557 378.713 108.168 378.713 Q111.802 378.713 113.608 375.171 Q115.436 371.606 115.436 364.5 Q115.436 357.37 113.608 353.828 Q111.802 350.264 108.168 350.264 M108.168 346.56 Q113.978 346.56 117.033 351.166 Q120.112 355.75 120.112 364.5 Q120.112 373.226 117.033 377.833 Q113.978 382.416 108.168 382.416 Q102.358 382.416 99.2789 377.833 Q96.2234 373.226 96.2234 364.5 Q96.2234 355.75 99.2789 351.166 Q102.358 346.56 108.168 346.56 Z" fill="#000000" fill-rule="nonzero" fill-opacity="1" /><path clip-path="url(#clip900)" d="M57.9597 114.8 L74.279 114.8 L74.279 118.735 L52.3347 118.735 L52.3347 114.8 Q54.9967 112.046 59.58 107.416 Q64.1865 102.763 65.367 101.421 Q67.6124 98.8976 68.492 97.1615 Q69.3948 95.4022 69.3948 93.7124 Q69.3948 90.9578 67.4504 89.2217 Q65.5291 87.4856 62.4272 87.4856 Q60.2282 87.4856 57.7745 88.2495 Q55.344 89.0133 52.5662 90.5643 L52.5662 85.8421 Q55.3903 84.7078 57.8439 84.1291 Q60.2976 83.5504 62.3347 83.5504 Q67.705 83.5504 70.8994 86.2356 Q74.0939 88.9208 74.0939 93.4115 Q74.0939 95.5411 73.2837 97.4624 Q72.4966 99.3605 70.3902 101.953 Q69.8115 102.624 66.7096 105.842 Q63.6078 109.036 57.9597 114.8 Z" fill="#000000" fill-rule="nonzero" fill-opacity="1" /><path clip-path="url(#clip900)" d="M84.0938 112.856 L88.978 112.856 L88.978 118.735 L84.0938 118.735 L84.0938 112.856 Z" fill="#000000" fill-rule="nonzero" fill-opacity="1" /><path clip-path="url(#clip900)" d="M99.2095 84.1754 L117.566 84.1754 L117.566 88.1106 L103.492 88.1106 L103.492 96.5828 Q104.51 96.2355 105.529 96.0735 Q106.547 95.8883 107.566 95.8883 Q113.353 95.8883 116.733 99.0596 Q120.112 102.231 120.112 107.648 Q120.112 113.226 116.64 116.328 Q113.168 119.407 106.848 119.407 Q104.672 119.407 102.404 119.036 Q100.159 118.666 97.7511 117.925 L97.7511 113.226 Q99.8345 114.36 102.057 114.916 Q104.279 115.472 106.756 115.472 Q110.76 115.472 113.098 113.365 Q115.436 111.259 115.436 107.648 Q115.436 104.036 113.098 101.93 Q110.76 99.8235 106.756 99.8235 Q104.881 99.8235 103.006 100.24 Q101.154 100.657 99.2095 101.536 L99.2095 84.1754 Z" fill="#000000" fill-rule="nonzero" fill-opacity="1" /><polyline clip-path="url(#clip902)" style="stroke:#009af9; stroke-linecap:round; stroke-linejoin:round; stroke-width:8; stroke-opacity:1; fill:none" points="156.112,1311.3 156.406,1304.58 156.663,1307.71 156.954,1307.97 157.28,1313.41 157.647,1311.37 158.06,1316.41 158.525,1317.21 159.047,1318.24 159.636,1312.39 160.297,1315.97 161.041,1317.2 161.879,1316.59 162.821,1315.05 163.881,1310.84 165.073,1313.68 166.414,1307.61 167.923,1300.65 169.62,1302.5 171.53,1304.99 173.679,1295.14 176.095,1310.54 178.815,1318.83 181.874,1321.71 185.315,1317.89 189.186,1298.92 193.542,1294.51 198.442,1298.07 203.954,1304.63 210.156,1277.71 217.132,1266.2 224.981,1275.36 233.254,1278.54 242.562,1281.47 253.033,1181.79 264.333,1078.56 275.586,1072.37 285.483,860.191 295.48,795.379 303.895,641.575 310.929,685.061 317.273,728.822 323.483,637.36 329.603,472.568 335.095,475.642 340.042,606.92 344.772,685.486 349.512,543.506 354.174,636.282 358.417,702.495 362.739,702.487 367.129,469.778 371.212,282.644 374.893,188.762 378.201,86.1857 381.193,240.767 383.978,437.692 386.004,380.74 386.004,898.622 386.004,1157.56 388.81,1178.75 391.967,1146.33 395.518,1103.41 399.514,1005.96 403.941,946.55 408.551,1128.74 413.607,1085.51 419.294,1142.63 424.882,1182.71 431.168,1152.07 438.241,1123.27 445.566,1129.29 452.911,1175.69 460.385,1158.31 468.793,1136.02 477.266,1164.75 485.504,1171.82 493.701,1193.52 493.701,1305.01 502.656,1250.7 512.73,1288.27 521.66,1258.93 531.708,1251.77 542.305,1244.16 553.963,1228.39 567.079,1189.06 581.79,1159.26 595.451,1073.81 610.228,1197.35 621.189,1238.48 633.365,1209.14 647.064,1162.18 661.037,1116.44 674.438,1076.97 687.402,1132.18 698.303,1157.41 710.254,1229.37 721.836,1244.79 734.867,1173.29 749.526,1071.45 762.78,1134.5 773.501,1100.71 785.562,1043.81 796.946,842.224 807.312,654.412 814.671,631.579 821.491,645.522 827.786,559.149 833.907,482.679 839.204,460.561 844.215,497.168 848.827,602.574 851.215,671.296 851.215,1043.9 855.623,1053.88 860.582,1025.15 866.107,1053.14 871.568,1083.75 877.582,1081.59 884.155,1013.37 891.176,959.553 897.869,820.775 904.335,843.025 910.113,782.003 915.994,789.096 921.426,725.487 926.322,671.903 926.322,1044.2 931.743,997.776 937.841,997.528 943.884,980.294 950.564,1112.06 957.435,1086.29 965.166,1142.33 972.278,1086.12 980.279,1062.27 988.121,1020.24 996.386,1015.58 1004.3,937.423 1012.67,816.981 1020.35,1056.77 1028.45,1088.25 1036.67,1225.77 1045.91,1258.87 1055.28,1287.33 1065.78,1283.53 1077.59,1265.77 1090.87,1288.44 1102.8,1344.75 1116.22,1335.56 1131.32,1330.3 1148.03,1350.52 1163,1346.08 1179.83,1349.54 1197.24,1336.66 1216.83,1301.58 1217.85,1299.35 1217.85,1357.93 1238.39,1340.33 1261.5,1358.38 1278.09,1352.97 1296.76,1384.24 1317.76,1377.5 1341.38,1370.72 1367.96,1350.25 1397.86,1346.66 1420.18,1338.94 1445.28,1356.81 1466.1,1318.46 1489.51,1303.2 1507.76,1263.79 1528.28,1183.09 1548.87,1228.91 1562.97,1292.23 1578.83,1312.75 1596.68,1298.84 1616.75,1269.2 1639.34,1213.37 1662.74,1196.9 1683.27,1178.44 1700.93,1245.44 1715.15,1246.64 1731.15,1263.49 1746.36,1212.76 1763.48,1141.11 1780.37,961.702 1789.57,726.55 1799.17,552.1 1807.54,680.967 1814.59,630.203 1822.44,697.941 1829.23,566.264 1836.58,620.298 1842.88,628.192 1849.39,482.145 1855.86,420.724 1861.66,632.15 1867.14,510.99 1872.92,479.372 1878.21,609.761 1883.28,595.58 1888.58,635.322 1893.62,660.454 1898.74,789.773 1903.77,788.372 1909.21,815.018 1914.52,932.303 1919.94,1019.73 1925.79,966.819 1932.38,947.477 1938.64,968.02 1944.93,1121.55 1952,1023.15 1959.73,1066.87 1966.44,1205.96 1973.99,1220.2 1982.02,1277.89 1991.06,1263.82 2001.24,1269.3 2011.45,1146.02 2021.51,1103.7 2031.27,1056.44 2040.69,1068.32 2049.26,1102.19 2057.79,1116.97 2066.46,1094.42 2075.28,1158.97 2083.47,1121.52 2092.68,1051.56 2101.22,1081.36 2108.95,891.288 2115.66,679.677 2116.95,601.526 2116.95,1009.01 2121.91,1017.92 2122.38,1014.26 2122.38,1215.38 2127.96,1201.7 2134.25,1196.08 2141.32,1238.01 2148.51,1235.83 2156.59,1152.85 2165.66,1246 2174.44,1254.4 2184.3,1264.89 2195.11,1178.4 2207.27,1093.93 2218.39,1067.38 2228.47,1060.92 2238.15,1056.04 2247.57,1090.52 2256.44,1084.73 2262.28,1097.8 2262.28,1257.15 2271.58,1310.62 2282.04,1324.56 2293.81,1347 2307.05,1345.73 2321.94,1317.56 2338.7,1322.47 2352.76,1289.28 "/>
<path clip-path="url(#clip900)" d="M1952.19 196.789 L2279.53 196.789 L2279.53 93.1086 L1952.19 93.1086  Z" fill="#ffffff" fill-rule="evenodd" fill-opacity="1"/>
<polyline clip-path="url(#clip900)" style="stroke:#000000; stroke-linecap:round; stroke-linejoin:round; stroke-width:4; stroke-opacity:1; fill:none" points="1952.19,196.789 2279.53,196.789 2279.53,93.1086 1952.19,93.1086 1952.19,196.789 "/>
<polyline clip-path="url(#clip900)" style="stroke:#009af9; stroke-linecap:round; stroke-linejoin:round; stroke-width:8; stroke-opacity:1; fill:none" points="1976.59,144.949 2123.04,144.949 "/>
<path clip-path="url(#clip900)" d="M2147.44 151.997 L2147.44 136.303 L2151.7 136.303 L2151.7 151.835 Q2151.7 155.516 2153.14 157.368 Q2154.57 159.196 2157.44 159.196 Q2160.89 159.196 2162.88 156.997 Q2164.9 154.798 2164.9 151.002 L2164.9 136.303 L2169.16 136.303 L2169.16 162.229 L2164.9 162.229 L2164.9 158.247 Q2163.35 160.608 2161.29 161.766 Q2159.25 162.9 2156.54 162.9 Q2152.07 162.9 2149.76 160.122 Q2147.44 157.344 2147.44 151.997 M2158.16 135.678 L2158.16 135.678 Z" fill="#000000" fill-rule="nonzero" fill-opacity="1" /><path clip-path="url(#clip900)" d="M2179.34 158.293 L2186.98 158.293 L2186.98 131.928 L2178.67 133.595 L2178.67 129.335 L2186.93 127.669 L2191.61 127.669 L2191.61 158.293 L2199.25 158.293 L2199.25 162.229 L2179.34 162.229 L2179.34 158.293 Z" fill="#000000" fill-rule="nonzero" fill-opacity="1" /><path clip-path="url(#clip900)" d="M2218.32 126.257 Q2215.22 131.581 2213.72 136.789 Q2212.21 141.997 2212.21 147.344 Q2212.21 152.692 2213.72 157.946 Q2215.24 163.178 2218.32 168.479 L2214.62 168.479 Q2211.15 163.039 2209.41 157.784 Q2207.7 152.53 2207.7 147.344 Q2207.7 142.182 2209.41 136.951 Q2211.12 131.72 2214.62 126.257 L2218.32 126.257 Z" fill="#000000" fill-rule="nonzero" fill-opacity="1" /><path clip-path="url(#clip900)" d="M2230.8 128.942 L2230.8 136.303 L2239.57 136.303 L2239.57 139.613 L2230.8 139.613 L2230.8 153.687 Q2230.8 156.858 2231.66 157.761 Q2232.53 158.664 2235.2 158.664 L2239.57 158.664 L2239.57 162.229 L2235.2 162.229 Q2230.27 162.229 2228.39 160.4 Q2226.52 158.548 2226.52 153.687 L2226.52 139.613 L2223.39 139.613 L2223.39 136.303 L2226.52 136.303 L2226.52 128.942 L2230.8 128.942 Z" fill="#000000" fill-rule="nonzero" fill-opacity="1" /><path clip-path="url(#clip900)" d="M2244.5 126.257 L2248.21 126.257 Q2251.68 131.72 2253.39 136.951 Q2255.13 142.182 2255.13 147.344 Q2255.13 152.53 2253.39 157.784 Q2251.68 163.039 2248.21 168.479 L2244.5 168.479 Q2247.58 163.178 2249.09 157.946 Q2250.61 152.692 2250.61 147.344 Q2250.61 141.997 2249.09 136.789 Q2247.58 131.581 2244.5 126.257 Z" fill="#000000" fill-rule="nonzero" fill-opacity="1" /></svg>
