<?xml version="1.0" encoding="utf-8"?>
<svg xmlns="http://www.w3.org/2000/svg" xmlns:xlink="http://www.w3.org/1999/xlink" width="600" height="400" viewBox="0 0 2400 1600">
<defs>
  <clipPath id="clip480">
    <rect x="0" y="0" width="2400" height="1600"/>
  </clipPath>
</defs>
<path clip-path="url(#clip480)" d="M0 1600 L2400 1600 L2400 0 L0 0  Z" fill="#ffffff" fill-rule="evenodd" fill-opacity="1"/>
<defs>
  <clipPath id="clip481">
    <rect x="480" y="0" width="1681" height="1600"/>
  </clipPath>
</defs>
<path clip-path="url(#clip480)" d="M140.696 1423.18 L2352.76 1423.18 L2352.76 47.2441 L140.696 47.2441  Z" fill="#ffffff" fill-rule="evenodd" fill-opacity="1"/>
<defs>
  <clipPath id="clip482">
    <rect x="140" y="47" width="2213" height="1377"/>
  </clipPath>
</defs>
<polyline clip-path="url(#clip482)" style="stroke:#000000; stroke-linecap:round; stroke-linejoin:round; stroke-width:2; stroke-opacity:0.1; fill:none" points="582.2,1423.18 582.2,47.2441 "/>
<polyline clip-path="url(#clip482)" style="stroke:#000000; stroke-linecap:round; stroke-linejoin:round; stroke-width:2; stroke-opacity:0.1; fill:none" points="1027.18,1423.18 1027.18,47.2441 "/>
<polyline clip-path="url(#clip482)" style="stroke:#000000; stroke-linecap:round; stroke-linejoin:round; stroke-width:2; stroke-opacity:0.1; fill:none" points="1472.17,1423.18 1472.17,47.2441 "/>
<polyline clip-path="url(#clip482)" style="stroke:#000000; stroke-linecap:round; stroke-linejoin:round; stroke-width:2; stroke-opacity:0.1; fill:none" points="1917.15,1423.18 1917.15,47.2441 "/>
<polyline clip-path="url(#clip480)" style="stroke:#000000; stroke-linecap:round; stroke-linejoin:round; stroke-width:4; stroke-opacity:1; fill:none" points="140.696,1423.18 2352.76,1423.18 "/>
<polyline clip-path="url(#clip480)" style="stroke:#000000; stroke-linecap:round; stroke-linejoin:round; stroke-width:4; stroke-opacity:1; fill:none" points="582.2,1423.18 582.2,1404.28 "/>
<polyline clip-path="url(#clip480)" style="stroke:#000000; stroke-linecap:round; stroke-linejoin:round; stroke-width:4; stroke-opacity:1; fill:none" points="1027.18,1423.18 1027.18,1404.28 "/>
<polyline clip-path="url(#clip480)" style="stroke:#000000; stroke-linecap:round; stroke-linejoin:round; stroke-width:4; stroke-opacity:1; fill:none" points="1472.17,1423.18 1472.17,1404.28 "/>
<polyline clip-path="url(#clip480)" style="stroke:#000000; stroke-linecap:round; stroke-linejoin:round; stroke-width:4; stroke-opacity:1; fill:none" points="1917.15,1423.18 1917.15,1404.28 "/>
<path clip-path="url(#clip480)" d="M556.887 1481.64 L564.526 1481.64 L564.526 1455.28 L556.216 1456.95 L556.216 1452.69 L564.48 1451.02 L569.156 1451.02 L569.156 1481.64 L576.795 1481.64 L576.795 1485.58 L556.887 1485.58 L556.887 1481.64 Z" fill="#000000" fill-rule="nonzero" fill-opacity="1" /><path clip-path="url(#clip480)" d="M596.239 1454.1 Q592.628 1454.1 590.799 1457.66 Q588.994 1461.2 588.994 1468.33 Q588.994 1475.44 590.799 1479.01 Q592.628 1482.55 596.239 1482.55 Q599.873 1482.55 601.679 1479.01 Q603.507 1475.44 603.507 1468.33 Q603.507 1461.2 601.679 1457.66 Q599.873 1454.1 596.239 1454.1 M596.239 1450.39 Q602.049 1450.39 605.105 1455 Q608.183 1459.58 608.183 1468.33 Q608.183 1477.06 605.105 1481.67 Q602.049 1486.25 596.239 1486.25 Q590.429 1486.25 587.35 1481.67 Q584.295 1477.06 584.295 1468.33 Q584.295 1459.58 587.35 1455 Q590.429 1450.39 596.239 1450.39 Z" fill="#000000" fill-rule="nonzero" fill-opacity="1" /><path clip-path="url(#clip480)" d="M1005.96 1481.64 L1022.28 1481.64 L1022.28 1485.58 L1000.33 1485.58 L1000.33 1481.64 Q1002.99 1478.89 1007.58 1474.26 Q1012.18 1469.61 1013.36 1468.27 Q1015.61 1465.74 1016.49 1464.01 Q1017.39 1462.25 1017.39 1460.56 Q1017.39 1457.8 1015.45 1456.07 Q1013.53 1454.33 1010.42 1454.33 Q1008.22 1454.33 1005.77 1455.09 Q1003.34 1455.86 1000.56 1457.41 L1000.56 1452.69 Q1003.39 1451.55 1005.84 1450.97 Q1008.29 1450.39 1010.33 1450.39 Q1015.7 1450.39 1018.9 1453.08 Q1022.09 1455.77 1022.09 1460.26 Q1022.09 1462.39 1021.28 1464.31 Q1020.49 1466.2 1018.39 1468.8 Q1017.81 1469.47 1014.71 1472.69 Q1011.6 1475.88 1005.96 1481.64 Z" fill="#000000" fill-rule="nonzero" fill-opacity="1" /><path clip-path="url(#clip480)" d="M1042.09 1454.1 Q1038.48 1454.1 1036.65 1457.66 Q1034.85 1461.2 1034.85 1468.33 Q1034.85 1475.44 1036.65 1479.01 Q1038.48 1482.55 1042.09 1482.55 Q1045.72 1482.55 1047.53 1479.01 Q1049.36 1475.44 1049.36 1468.33 Q1049.36 1461.2 1047.53 1457.66 Q1045.72 1454.1 1042.09 1454.1 M1042.09 1450.39 Q1047.9 1450.39 1050.96 1455 Q1054.03 1459.58 1054.03 1468.33 Q1054.03 1477.06 1050.96 1481.67 Q1047.9 1486.25 1042.09 1486.25 Q1036.28 1486.25 1033.2 1481.67 Q1030.15 1477.06 1030.15 1468.33 Q1030.15 1459.58 1033.2 1455 Q1036.28 1450.39 1042.09 1450.39 Z" fill="#000000" fill-rule="nonzero" fill-opacity="1" /><path clip-path="url(#clip480)" d="M1461.01 1466.95 Q1464.37 1467.66 1466.24 1469.93 Q1468.14 1472.2 1468.14 1475.53 Q1468.14 1480.65 1464.62 1483.45 Q1461.1 1486.25 1454.62 1486.25 Q1452.44 1486.25 1450.13 1485.81 Q1447.84 1485.39 1445.38 1484.54 L1445.38 1480.02 Q1447.33 1481.16 1449.64 1481.74 Q1451.96 1482.32 1454.48 1482.32 Q1458.88 1482.32 1461.17 1480.58 Q1463.49 1478.84 1463.49 1475.53 Q1463.49 1472.48 1461.33 1470.77 Q1459.2 1469.03 1455.38 1469.03 L1451.36 1469.03 L1451.36 1465.19 L1455.57 1465.19 Q1459.02 1465.19 1460.85 1463.82 Q1462.68 1462.43 1462.68 1459.84 Q1462.68 1457.18 1460.78 1455.77 Q1458.9 1454.33 1455.38 1454.33 Q1453.46 1454.33 1451.26 1454.75 Q1449.07 1455.16 1446.43 1456.04 L1446.43 1451.88 Q1449.09 1451.14 1451.4 1450.77 Q1453.74 1450.39 1455.8 1450.39 Q1461.13 1450.39 1464.23 1452.83 Q1467.33 1455.23 1467.33 1459.35 Q1467.33 1462.22 1465.69 1464.21 Q1464.04 1466.18 1461.01 1466.95 Z" fill="#000000" fill-rule="nonzero" fill-opacity="1" /><path clip-path="url(#clip480)" d="M1487 1454.1 Q1483.39 1454.1 1481.56 1457.66 Q1479.76 1461.2 1479.76 1468.33 Q1479.76 1475.44 1481.56 1479.01 Q1483.39 1482.55 1487 1482.55 Q1490.64 1482.55 1492.44 1479.01 Q1494.27 1475.44 1494.27 1468.33 Q1494.27 1461.2 1492.44 1457.66 Q1490.64 1454.1 1487 1454.1 M1487 1450.39 Q1492.81 1450.39 1495.87 1455 Q1498.95 1459.58 1498.95 1468.33 Q1498.95 1477.06 1495.87 1481.67 Q1492.81 1486.25 1487 1486.25 Q1481.19 1486.25 1478.12 1481.67 Q1475.06 1477.06 1475.06 1468.33 Q1475.06 1459.58 1478.12 1455 Q1481.19 1450.39 1487 1450.39 Z" fill="#000000" fill-rule="nonzero" fill-opacity="1" /><path clip-path="url(#clip480)" d="M1905.32 1455.09 L1893.52 1473.54 L1905.32 1473.54 L1905.32 1455.09 M1904.09 1451.02 L1909.97 1451.02 L1909.97 1473.54 L1914.9 1473.54 L1914.9 1477.43 L1909.97 1477.43 L1909.97 1485.58 L1905.32 1485.58 L1905.32 1477.43 L1889.72 1477.43 L1889.72 1472.92 L1904.09 1451.02 Z" fill="#000000" fill-rule="nonzero" fill-opacity="1" /><path clip-path="url(#clip480)" d="M1932.64 1454.1 Q1929.03 1454.1 1927.2 1457.66 Q1925.39 1461.2 1925.39 1468.33 Q1925.39 1475.44 1927.2 1479.01 Q1929.03 1482.55 1932.64 1482.55 Q1936.27 1482.55 1938.08 1479.01 Q1939.9 1475.44 1939.9 1468.33 Q1939.9 1461.2 1938.08 1457.66 Q1936.27 1454.1 1932.64 1454.1 M1932.64 1450.39 Q1938.45 1450.39 1941.5 1455 Q1944.58 1459.58 1944.58 1468.33 Q1944.58 1477.06 1941.5 1481.67 Q1938.45 1486.25 1932.64 1486.25 Q1926.83 1486.25 1923.75 1481.67 Q1920.69 1477.06 1920.69 1468.33 Q1920.69 1459.58 1923.75 1455 Q1926.83 1450.39 1932.64 1450.39 Z" fill="#000000" fill-rule="nonzero" fill-opacity="1" /><path clip-path="url(#clip480)" d="M1245.79 1522.27 L1245.79 1532.4 L1257.85 1532.4 L1257.85 1536.95 L1245.79 1536.95 L1245.79 1556.3 Q1245.79 1560.66 1246.96 1561.9 Q1248.17 1563.14 1251.83 1563.14 L1257.85 1563.14 L1257.85 1568.04 L1251.83 1568.04 Q1245.05 1568.04 1242.48 1565.53 Q1239.9 1562.98 1239.9 1556.3 L1239.9 1536.95 L1235.6 1536.95 L1235.6 1532.4 L1239.9 1532.4 L1239.9 1522.27 L1245.79 1522.27 Z" fill="#000000" fill-rule="nonzero" fill-opacity="1" /><polyline clip-path="url(#clip482)" style="stroke:#000000; stroke-linecap:round; stroke-linejoin:round; stroke-width:2; stroke-opacity:0.1; fill:none" points="140.696,1385.71 2352.76,1385.71 "/>
<polyline clip-path="url(#clip482)" style="stroke:#000000; stroke-linecap:round; stroke-linejoin:round; stroke-width:2; stroke-opacity:0.1; fill:none" points="140.696,1009.82 2352.76,1009.82 "/>
<polyline clip-path="url(#clip482)" style="stroke:#000000; stroke-linecap:round; stroke-linejoin:round; stroke-width:2; stroke-opacity:0.1; fill:none" points="140.696,633.935 2352.76,633.935 "/>
<polyline clip-path="url(#clip482)" style="stroke:#000000; stroke-linecap:round; stroke-linejoin:round; stroke-width:2; stroke-opacity:0.1; fill:none" points="140.696,258.049 2352.76,258.049 "/>
<polyline clip-path="url(#clip480)" style="stroke:#000000; stroke-linecap:round; stroke-linejoin:round; stroke-width:4; stroke-opacity:1; fill:none" points="140.696,1423.18 140.696,47.2441 "/>
<polyline clip-path="url(#clip480)" style="stroke:#000000; stroke-linecap:round; stroke-linejoin:round; stroke-width:4; stroke-opacity:1; fill:none" points="140.696,1385.71 159.593,1385.71 "/>
<polyline clip-path="url(#clip480)" style="stroke:#000000; stroke-linecap:round; stroke-linejoin:round; stroke-width:4; stroke-opacity:1; fill:none" points="140.696,1009.82 159.593,1009.82 "/>
<polyline clip-path="url(#clip480)" style="stroke:#000000; stroke-linecap:round; stroke-linejoin:round; stroke-width:4; stroke-opacity:1; fill:none" points="140.696,633.935 159.593,633.935 "/>
<polyline clip-path="url(#clip480)" style="stroke:#000000; stroke-linecap:round; stroke-linejoin:round; stroke-width:4; stroke-opacity:1; fill:none" points="140.696,258.049 159.593,258.049 "/>
<path clip-path="url(#clip480)" d="M92.7512 1371.51 Q89.1401 1371.51 87.3114 1375.07 Q85.5058 1378.61 85.5058 1385.74 Q85.5058 1392.85 87.3114 1396.41 Q89.1401 1399.96 92.7512 1399.96 Q96.3854 1399.96 98.1909 1396.41 Q100.02 1392.85 100.02 1385.74 Q100.02 1378.61 98.1909 1375.07 Q96.3854 1371.51 92.7512 1371.51 M92.7512 1367.8 Q98.5613 1367.8 101.617 1372.41 Q104.696 1376.99 104.696 1385.74 Q104.696 1394.47 101.617 1399.08 Q98.5613 1403.66 92.7512 1403.66 Q86.941 1403.66 83.8623 1399.08 Q80.8068 1394.47 80.8068 1385.74 Q80.8068 1376.99 83.8623 1372.41 Q86.941 1367.8 92.7512 1367.8 Z" fill="#000000" fill-rule="nonzero" fill-opacity="1" /><path clip-path="url(#clip480)" d="M53.3995 1023.17 L61.0384 1023.17 L61.0384 996.801 L52.7282 998.467 L52.7282 994.208 L60.9921 992.542 L65.668 992.542 L65.668 1023.17 L73.3068 1023.17 L73.3068 1027.1 L53.3995 1027.1 L53.3995 1023.17 Z" fill="#000000" fill-rule="nonzero" fill-opacity="1" /><path clip-path="url(#clip480)" d="M92.7512 995.62 Q89.1401 995.62 87.3114 999.185 Q85.5058 1002.73 85.5058 1009.86 Q85.5058 1016.96 87.3114 1020.53 Q89.1401 1024.07 92.7512 1024.07 Q96.3854 1024.07 98.1909 1020.53 Q100.02 1016.96 100.02 1009.86 Q100.02 1002.73 98.1909 999.185 Q96.3854 995.62 92.7512 995.62 M92.7512 991.917 Q98.5613 991.917 101.617 996.523 Q104.696 1001.11 104.696 1009.86 Q104.696 1018.58 101.617 1023.19 Q98.5613 1027.77 92.7512 1027.77 Q86.941 1027.77 83.8623 1023.19 Q80.8068 1018.58 80.8068 1009.86 Q80.8068 1001.11 83.8623 996.523 Q86.941 991.917 92.7512 991.917 Z" fill="#000000" fill-rule="nonzero" fill-opacity="1" /><path clip-path="url(#clip480)" d="M56.6171 647.28 L72.9365 647.28 L72.9365 651.215 L50.9921 651.215 L50.9921 647.28 Q53.6541 644.526 58.2375 639.896 Q62.8439 635.243 64.0245 633.901 Q66.2698 631.377 67.1494 629.641 Q68.0522 627.882 68.0522 626.192 Q68.0522 623.438 66.1078 621.702 Q64.1865 619.966 61.0847 619.966 Q58.8856 619.966 56.4319 620.729 Q54.0014 621.493 51.2236 623.044 L51.2236 618.322 Q54.0477 617.188 56.5014 616.609 Q58.955 616.03 60.9921 616.03 Q66.3624 616.03 69.5568 618.716 Q72.7513 621.401 72.7513 625.891 Q72.7513 628.021 71.9411 629.942 Q71.1541 631.84 69.0476 634.433 Q68.4689 635.104 65.367 638.322 Q62.2652 641.516 56.6171 647.28 Z" fill="#000000" fill-rule="nonzero" fill-opacity="1" /><path clip-path="url(#clip480)" d="M92.7512 619.734 Q89.1401 619.734 87.3114 623.299 Q85.5058 626.84 85.5058 633.97 Q85.5058 641.077 87.3114 644.641 Q89.1401 648.183 92.7512 648.183 Q96.3854 648.183 98.1909 644.641 Q100.02 641.077 100.02 633.97 Q100.02 626.84 98.1909 623.299 Q96.3854 619.734 92.7512 619.734 M92.7512 616.03 Q98.5613 616.03 101.617 620.637 Q104.696 625.22 104.696 633.97 Q104.696 642.697 101.617 647.303 Q98.5613 651.887 92.7512 651.887 Q86.941 651.887 83.8623 647.303 Q80.8068 642.697 80.8068 633.97 Q80.8068 625.22 83.8623 620.637 Q86.941 616.03 92.7512 616.03 Z" fill="#000000" fill-rule="nonzero" fill-opacity="1" /><path clip-path="url(#clip480)" d="M66.7559 256.695 Q70.1124 257.413 71.9874 259.681 Q73.8855 261.95 73.8855 265.283 Q73.8855 270.399 70.367 273.199 Q66.8485 276 60.3671 276 Q58.1912 276 55.8764 275.561 Q53.5847 275.144 51.131 274.287 L51.131 269.774 Q53.0754 270.908 55.3903 271.487 Q57.7051 272.065 60.2282 272.065 Q64.6263 272.065 66.918 270.329 Q69.2328 268.593 69.2328 265.283 Q69.2328 262.227 67.08 260.514 Q64.9504 258.778 61.131 258.778 L57.1032 258.778 L57.1032 254.936 L61.3161 254.936 Q64.7652 254.936 66.5939 253.57 Q68.4226 252.181 68.4226 249.588 Q68.4226 246.926 66.5245 245.514 Q64.6495 244.079 61.131 244.079 Q59.2097 244.079 57.0106 244.496 Q54.8115 244.913 52.1727 245.792 L52.1727 241.626 Q54.8347 240.885 57.1495 240.514 Q59.4875 240.144 61.5476 240.144 Q66.8717 240.144 69.9735 242.575 Q73.0753 244.982 73.0753 249.102 Q73.0753 251.973 71.4318 253.963 Q69.7883 255.931 66.7559 256.695 Z" fill="#000000" fill-rule="nonzero" fill-opacity="1" /><path clip-path="url(#clip480)" d="M92.7512 243.848 Q89.1401 243.848 87.3114 247.413 Q85.5058 250.954 85.5058 258.084 Q85.5058 265.19 87.3114 268.755 Q89.1401 272.297 92.7512 272.297 Q96.3854 272.297 98.1909 268.755 Q100.02 265.19 100.02 258.084 Q100.02 250.954 98.1909 247.413 Q96.3854 243.848 92.7512 243.848 M92.7512 240.144 Q98.5613 240.144 101.617 244.751 Q104.696 249.334 104.696 258.084 Q104.696 266.811 101.617 271.417 Q98.5613 276 92.7512 276 Q86.941 276 83.8623 271.417 Q80.8068 266.811 80.8068 258.084 Q80.8068 249.334 83.8623 244.751 Q86.941 240.144 92.7512 240.144 Z" fill="#000000" fill-rule="nonzero" fill-opacity="1" /><polyline clip-path="url(#clip482)" style="stroke:#009af9; stroke-linecap:round; stroke-linejoin:round; stroke-width:4; stroke-opacity:1; fill:none" points="140.696,1384.24 140.696,1384.24 155.233,1377.2 159.5,1375.22 164.328,1372.66 166.536,1371.35 173.96,1366.64 177.681,1364.46 178.606,1363.93 180.369,1362.94 185.223,1360.31 193.749,1355.34 198.114,1352.65 204.25,1348.65 208.189,1346.27 211.613,1344.3 211.678,1344.26 222.747,1338.35 223.785,1337.82 227.329,1336.06 230.395,1334.56 244.122,1328.13 246.646,1326.79 248.608,1325.76 248.848,1325.62 258.748,1320.01 262.792,1317.57 264.028,1316.74 266.072,1315.25 269.005,1313.21 288.142,1301.83 289.06,1301.34 290.073,1300.73 293.52,1298.7 299.365,1295.43 310.234,1289.09 341.639,1273.73 348.341,1270.24 359.524,1264.77 369.265,1260.25 371.796,1258.9 371.969,1258.81 372.229,1258.67 372.663,1258.44 391.087,1248.34 392.24,1247.66 396.913,1245.03 406.472,1239.34 411.686,1236.11 411.989,1235.93 419.219,1231.8 420.072,1231.34 428.515,1226.92 428.661,1226.85 430.002,1226.18 438.626,1221.98 439.578,1221.53 461.636,1211.51 494.757,1195.75 496.707,1194.72 505.252,1190.41 515.435,1185.56 545.626,1172.11 548.456,1170.88 560.91,1165.53 561.047,1165.47 569.025,1161.5 591.78,1150.99 602.551,1146.25 605.92,1144.79 612.246,1142.05 613.144,1141.59 624.82,1135.07 627.076,1133.72 628.167,1133.08 635.148,1129.16 640.536,1126.32 641.618,1125.76 654.6,1119.41 667.144,1112.84 667.825,1112.44 669.622,1111.41 691.926,1099.97 723.494,1085.75 725.031,1085.08 732.461,1081.87 740.849,1078.26 742.915,1077.21 754.05,1071.05 791.746,1053.29 795.051,1051.84 799.228,1050.01 816.3,1041.64 822.636,1038.71 834.541,1033.37 837.564,1032.03 840.539,1030.73 847.232,1027.33 855.668,1022.65 855.97,1022.49 860.124,1020.01 863.402,1018.14 868.293,1015.48 876.442,1010.71 895.704,999.746 898.562,998.065 910.547,991.562 910.963,991.349 919.28,987.219 945.776,975.08 950.207,973.133 956.309,970.475 975.929,960.935 986.65,956.069 986.836,955.986 992.596,953.001 995.627,951.243 1009.87,943.681 1026.68,935.669 1051.1,924.814 1063.9,918.468 1064.63,918.06 1076.41,911.854 1081.51,908.955 1081.64,908.874 1082.58,908.2 1083.41,907.551 1087.55,904.452 1091.72,901.569 1094.54,899.729 1097.62,897.801 1101.72,895.368 1104.05,894.039 1106.24,892.64 1111.42,889.513 1114.12,887.743 1117.11,885.634 1126.62,878.918 1136.52,872.915 1143.31,868.698 1150.51,864.094 1151.17,863.698 1151.57,863.422 1156.13,860.434 1159.6,858.293 1179.11,847.711 1188.11,842.727 1192.64,840.032 1208.6,831.52 1212.74,829.483 1223.96,824.189 1225.78,823.354 1257.01,809.576 1264.87,806.199 1274.84,801.26 1279.04,799.264 1292.09,793.28 1305.45,787.369 1308.02,786.25 1315.63,782.407 1317.84,781.326 1321.63,779.508 1324.25,778.063 1348.94,765.814 1352.01,764.157 1355.09,762.544 1358.72,760.692 1365.01,757.597 1374.46,753.138 1377.93,751.273 1384.31,747.995 1385.82,747.239 1388.23,745.856 1388.25,745.844 1399.76,739.702 1407.68,735.792 1410.08,734.45 1412.61,733.072 1415.94,731.31 1421.87,728.289 1438.59,720.334 1441.47,718.789 1446.96,715.957 1450.23,714.324 1451.31,713.703 1457.06,710.524 1460.21,708.609 1463.07,706.938 1466.29,704.867 1468.8,703.126 1474.09,699.674 1485.48,693.046 1487.07,692.189 1493.98,688.093 1505.76,681.789 1507.01,681.158 1507.48,680.923 1508.55,680.302 1512.52,678.053 1520.61,673.184 1524.1,670.951 1527.1,668.89 1529.09,667.573 1533.87,664.574 1544.8,657.649 1546.97,656.219 1550.05,654.271 1550.12,654.228 1586.02,635.578 1587.28,635 1594.57,631.694 1604.3,627.374 1606.13,626.42 1610.38,624.265 1613.85,622.55 1614.11,622.403 1617.83,620.322 1618.98,619.692 1633.69,611.283 1638.02,608.71 1650.78,600.981 1654.12,599.153 1661.05,595.528 1684.01,584.608 1687.6,582.987 1688.89,582.41 1711.26,571.428 1711.82,571.17 1713.82,570.249 1715.72,569.23 1738.58,558.001 1747.71,553.214 1759.8,547.343 1771.4,542.011 1786.78,535.202 1791.84,532.618 1801.5,527.919 1814.48,521.937 1831.78,514.287 1839.69,510.862 1841.35,510.143 1843.91,508.838 1852.02,504.853 1858.46,501.336 1864.84,497.582 1871.46,493.483 1872.72,492.744 1874.3,491.703 1896,478.218 1917.76,466.218 1926.2,461.528 1927.97,460.591 1947.84,450.867 1951.39,449.233 1959.18,445.711 1959.43,445.575 1967.49,440.867 1968.22,440.464 1973.78,437.478 1975.21,436.733 1979.55,434.529 1982.59,432.78 1987.57,429.667 1990.42,427.754 2004.88,418.269 2005.97,417.632 2009.68,415.526 2010.46,415.094 2017.76,411.207 2026.1,407.035 2034.41,402.495 2037.46,400.68 2052.63,392.483 2053.54,392.023 2058.35,389.651 2082.57,378.482 2089.15,375.581 2091.5,374.552 2106.35,368.124 2117.16,362.774 2127.06,358.139 2153.38,346.464 2160.47,343.403 2165.06,341.429 2165.98,340.958 2166.32,340.785 2173.98,336.994 2182,332.626 2183.47,331.863 2196.92,324.371 2205.05,320.267 2214.31,315.843 2214.43,315.786 2219.5,313.058 2226.19,309.64 2230.98,307.291 2236.79,304.522 2241.57,302.299 2245.03,300.715 2245.9,300.322 2259.51,294.254 2260.65,293.661 2261.87,293.029 2269.97,288.987 2270.86,288.484 2272,287.752 2288.5,278.272 2296.28,273.76 2305.83,268.704 2308.83,267.196 2313.89,264.717 2321.85,260.956 2341.99,251.896 2352.76,247.205 "/>
<polyline clip-path="url(#clip482)" style="stroke:#e26f46; stroke-linecap:round; stroke-linejoin:round; stroke-width:4; stroke-opacity:1; fill:none" points="140.696,1384.24 140.696,1384.24 155.233,1378.1 159.5,1376.3 164.328,1374.26 166.536,1373.32 173.96,1370.19 177.681,1368.33 178.606,1367.87 180.369,1366.87 185.223,1363.83 193.749,1358.95 198.114,1356.61 204.25,1353.47 208.189,1351.23 211.613,1349.08 211.678,1349.04 222.747,1342.73 223.785,1342.09 227.329,1339.69 230.395,1337.73 244.122,1329.84 246.646,1328.52 248.608,1327.35 248.848,1327.2 258.748,1321.7 262.792,1319.6 264.028,1318.97 266.072,1317.95 269.005,1316.5 288.142,1307.56 289.06,1307.07 290.073,1306.53 293.52,1304.75 299.365,1301.39 310.234,1295.65 341.639,1281.02 348.341,1278.07 359.524,1272.48 369.265,1267.22 371.796,1265.93 371.969,1265.84 372.229,1265.71 372.663,1265.49 391.087,1256.71 392.24,1256.18 396.913,1254.07 406.472,1249.82 411.686,1247.54 411.989,1247.41 419.219,1244.27 420.072,1243.9 428.515,1240.27 428.661,1240.19 430.002,1239.51 438.626,1235.26 439.578,1234.8 461.636,1224.71 494.757,1210.37 496.707,1209.53 505.252,1205.3 515.435,1200.5 545.626,1187.12 548.456,1185.67 560.91,1178.82 561.047,1178.73 569.025,1174.16 591.78,1162.77 602.551,1157.11 605.92,1155.44 612.246,1152.39 613.144,1151.97 624.82,1146.59 627.076,1145.57 628.167,1145.08 635.148,1141.98 640.536,1139.21 641.618,1138.67 654.6,1132.43 667.144,1126.72 667.825,1126.42 669.622,1125.62 691.926,1115.89 723.494,1101 725.031,1100.31 732.461,1096.51 740.849,1091.85 742.915,1090.76 754.05,1085.18 791.746,1066.63 795.051,1065.15 799.228,1063.3 816.3,1055.86 822.636,1052.67 834.541,1046.21 837.564,1044.68 840.539,1042.97 847.232,1039.32 855.668,1035.01 855.97,1034.86 860.124,1032.84 863.402,1031.27 868.293,1028.98 876.442,1025.26 895.704,1016.75 898.562,1015.52 910.547,1009.57 910.963,1009.37 919.28,1005.48 945.776,992.405 950.207,990.045 956.309,986.936 975.929,977.663 986.65,972.868 986.836,972.77 992.596,969.815 995.627,968.31 1009.87,960.676 1026.68,952.621 1051.1,941.742 1063.9,936.212 1064.63,935.899 1076.41,930.085 1081.51,927.687 1081.64,927.627 1082.58,927.189 1083.41,926.808 1087.55,924.588 1091.72,922.439 1094.54,920.799 1097.62,919.064 1101.72,916.848 1104.05,915.625 1106.24,914.494 1111.42,911.902 1114.12,910.581 1117.11,909.145 1126.62,904.71 1136.52,900.244 1143.31,897.243 1150.51,894.1 1151.17,893.815 1151.57,893.64 1156.13,891.669 1159.6,889.902 1179.11,879.519 1188.11,875.208 1192.64,873.108 1208.6,864.982 1212.74,863.008 1223.96,857.09 1225.78,856.181 1257.01,841.742 1264.87,838.301 1274.84,833.986 1279.04,831.856 1292.09,825.587 1305.45,819.515 1308.02,818.375 1315.63,815.026 1317.84,813.882 1321.63,811.969 1324.25,810.675 1348.94,799.243 1352.01,797.88 1355.09,796.524 1358.72,794.649 1365.01,791.061 1374.46,785.427 1377.93,783.514 1384.31,780.163 1385.82,779.392 1388.23,778.182 1388.25,778.171 1399.76,771.877 1407.68,767.338 1410.08,766.037 1412.61,764.698 1415.94,762.98 1421.87,760.025 1438.59,752.183 1441.47,750.879 1446.96,748.427 1450.23,746.724 1451.31,746.17 1457.06,742.873 1460.21,741.154 1463.07,739.638 1466.29,737.973 1468.8,736.708 1474.09,733.707 1485.48,727.751 1487.07,726.834 1493.98,723.022 1505.76,716.267 1507.01,715.498 1507.48,715.212 1508.55,714.57 1512.52,712.25 1520.61,707.841 1524.1,706.034 1527.1,704.525 1529.09,703.537 1533.87,701.216 1544.8,696.117 1546.97,695.129 1550.05,693.496 1550.12,693.454 1586.02,674.998 1587.28,674.423 1594.57,670.604 1604.3,665.151 1606.13,664.181 1610.38,661.67 1613.85,659.438 1614.11,659.278 1617.83,657.018 1618.98,656.243 1633.69,647.426 1638.02,645.108 1650.78,638.72 1654.12,636.871 1661.05,633.211 1684.01,622.23 1687.6,620.324 1688.89,619.655 1711.26,608.891 1711.82,608.589 1713.82,607.359 1715.72,606.226 1738.58,594.171 1747.71,589.862 1759.8,584.385 1771.4,578.512 1786.78,571.307 1791.84,569.025 1801.5,564.743 1814.48,559.099 1831.78,550.664 1839.69,547.039 1841.35,546.287 1843.91,545.138 1852.02,540.973 1858.46,537.825 1864.84,534.814 1871.46,531.774 1872.72,531.203 1874.3,530.489 1896,520.94 1917.76,511.601 1926.2,508.01 1927.97,507.112 1947.84,497.663 1951.39,496.056 1959.18,492.583 1959.43,492.47 1967.49,488.932 1968.22,488.615 1973.78,485.787 1975.21,485.077 1979.55,482.965 1982.59,481.511 1987.57,479.18 1990.42,477.866 2004.88,471.378 2005.97,470.897 2009.68,468.982 2010.46,468.521 2017.76,463.883 2026.1,459.107 2034.41,454.739 2037.46,453.213 2052.63,445.99 2053.54,445.494 2058.35,442.958 2082.57,431.336 2089.15,427.895 2091.5,426.521 2106.35,418.582 2117.16,413.342 2127.06,408.095 2153.38,394.359 2160.47,390.538 2165.06,387.835 2165.98,387.311 2166.32,387.119 2173.98,382.423 2182,377.958 2183.47,377.18 2196.92,370.445 2205.05,366.045 2214.31,361.393 2214.43,361.333 2219.5,358.899 2226.19,355.29 2230.98,352.835 2236.79,349.533 2241.57,346.965 2245.03,345.174 2245.9,344.734 2259.51,338.124 2260.65,337.593 2261.87,336.923 2269.97,332.677 2270.86,332.23 2272,331.659 2288.5,322.807 2296.28,319.018 2305.83,313.91 2308.83,312.389 2313.89,309.892 2321.85,305.546 2341.99,295.674 2352.76,290.051 "/>
<polyline clip-path="url(#clip482)" style="stroke:#3da44d; stroke-linecap:round; stroke-linejoin:round; stroke-width:4; stroke-opacity:1; fill:none" points="140.696,1384.24 140.696,1384.24 155.233,1378.1 159.5,1376.3 164.328,1374.26 166.536,1373.32 173.96,1370.19 177.681,1368.33 178.606,1367.87 180.369,1366.87 185.223,1363.83 193.749,1358.95 198.114,1356.61 204.25,1353.47 208.189,1351.23 211.613,1349.08 211.678,1349.04 222.747,1341.99 223.785,1341.3 227.329,1338.74 230.395,1336.66 244.122,1328.4 246.646,1327.03 248.608,1325.82 248.848,1325.68 258.748,1320.05 262.792,1317.91 264.028,1317.27 266.072,1316.23 269.005,1314.76 288.142,1304.65 289.06,1304.13 290.073,1303.56 293.52,1301.39 299.365,1297.5 310.234,1291.09 341.639,1274.22 348.341,1271.09 359.524,1265.28 369.265,1259.91 371.796,1258.6 371.969,1258.51 372.229,1258.38 372.663,1258.15 391.087,1249.27 392.24,1248.74 396.913,1246.61 406.472,1242.34 411.686,1240.05 411.989,1239.89 419.219,1236.23 420.072,1235.81 428.515,1231.77 428.661,1231.68 430.002,1230.95 438.626,1226.43 439.578,1225.95 461.636,1215.52 494.757,1201.02 496.707,1200.18 505.252,1195.93 515.435,1191.12 545.626,1177.73 548.456,1176.28 560.91,1169.42 561.047,1169.34 569.025,1164.77 591.78,1153.37 602.551,1147.72 605.92,1146.04 612.246,1142.53 613.144,1142.05 624.82,1136.11 627.076,1135.02 628.167,1134.5 635.148,1131.21 640.536,1128.33 641.618,1127.77 654.6,1121.37 667.144,1115.57 667.825,1115.26 669.622,1114.45 691.926,1104.65 723.494,1089.73 725.031,1089.05 732.461,1085.24 740.849,1080.58 742.915,1079.49 754.05,1073.91 791.746,1055.35 795.051,1053.87 799.228,1052.02 816.3,1044.58 822.636,1041.39 834.541,1034.94 837.564,1033.41 840.539,1031.69 847.232,1028.04 855.668,1023.73 855.97,1023.56 860.124,1021.22 863.402,1019.44 868.293,1016.89 876.442,1012.84 895.704,1003.91 898.562,1002.63 910.547,996.576 910.963,996.374 919.28,992.436 945.776,979.282 950.207,976.916 956.309,973.35 975.929,963.227 986.65,958.203 986.836,958.102 992.596,955.063 995.627,953.522 1009.87,945.771 1026.68,937.647 1051.1,926.726 1063.9,921.188 1064.63,920.875 1076.41,915.056 1081.51,912.657 1081.64,912.597 1082.58,912.159 1083.41,911.777 1087.55,909.557 1091.72,907.407 1094.54,905.767 1097.62,904.031 1101.72,901.814 1104.05,900.592 1106.24,899.46 1111.42,896.478 1114.12,894.986 1117.11,893.384 1126.62,888.548 1136.52,883.136 1143.31,879.691 1150.51,876.205 1151.17,875.839 1151.57,875.616 1156.13,873.154 1159.6,871.076 1179.11,859.614 1188.11,855.047 1192.64,852.852 1208.6,844.512 1212.74,842.503 1223.96,836.519 1225.78,835.454 1257.01,819.638 1264.87,816.063 1274.84,811.634 1279.04,809.47 1292.09,803.127 1305.45,797.012 1308.02,795.662 1315.63,791.815 1317.84,790.555 1321.63,788.175 1324.25,786.602 1348.94,773.669 1352.01,772.211 1355.09,770.771 1358.72,768.812 1365.01,765.107 1374.46,759.349 1377.93,757.402 1384.31,754.001 1385.82,753.097 1388.23,751.692 1388.25,751.68 1399.76,744.699 1407.68,739.856 1410.08,738.482 1412.61,737.075 1415.94,735.279 1421.87,731.769 1438.59,721.975 1441.47,720.459 1446.96,717.262 1450.23,715.194 1451.31,714.532 1457.06,710.736 1460.21,708.793 1463.07,707.1 1466.29,705.261 1468.8,703.877 1474.09,700.665 1485.48,694.393 1487.07,693.443 1493.98,689.514 1505.76,682.626 1507.01,681.847 1507.48,681.518 1508.55,680.782 1512.52,678.147 1520.61,673.249 1524.1,671.28 1527.1,669.651 1529.09,668.43 1533.87,665.265 1544.8,658.801 1546.97,657.613 1550.05,655.728 1550.12,655.681 1586.02,635.868 1587.28,635.274 1594.57,631.366 1604.3,625.831 1606.13,624.85 1610.38,622.314 1613.85,620.066 1614.11,619.905 1617.83,617.63 1618.98,616.851 1633.69,607.997 1638.02,605.673 1650.78,599.27 1654.12,597.418 1661.05,593.251 1684.01,581.377 1687.6,579.397 1688.89,578.704 1711.26,567.689 1711.82,567.383 1713.82,566.141 1715.72,564.997 1738.58,552.865 1747.71,548.542 1759.8,543.054 1771.4,537.174 1786.78,529.964 1791.84,527.682 1801.5,523.398 1814.48,517.752 1831.78,509.317 1839.69,505.692 1841.35,504.804 1843.91,503.466 1852.02,498.826 1858.46,495.406 1864.84,492.193 1871.46,488.997 1872.72,488.402 1874.3,487.659 1896,477.863 1917.76,468.43 1926.2,464.821 1927.97,463.92 1947.84,454.45 1951.39,452.842 1959.18,449.364 1959.43,449.251 1967.49,445.711 1968.22,445.393 1973.78,442.564 1975.21,441.854 1979.55,439.741 1982.59,438.287 1987.57,435.955 1990.42,434.641 2004.88,428.152 2005.97,427.671 2009.68,425.755 2010.46,425.295 2017.76,420.657 2026.1,415.88 2034.41,411.512 2037.46,409.986 2052.63,402.763 2053.54,402.267 2058.35,399.731 2082.57,388.109 2089.15,384.667 2091.5,383.294 2106.35,375.355 2117.16,370.115 2127.06,364.868 2153.38,351.132 2160.47,347.311 2165.06,344.608 2165.98,344.084 2166.32,343.863 2173.98,338.629 2182,333.766 2183.47,332.93 2196.92,325.807 2205.05,321.263 2214.31,315.861 2214.43,315.783 2219.5,312.673 2226.19,308.378 2230.98,305.546 2236.79,301.882 2241.57,299.079 2245.03,297.147 2245.9,296.675 2259.51,288.836 2260.65,288.232 2261.87,287.488 2269.97,282.269 2270.86,281.735 2272,281.058 2288.5,271.146 2296.28,267.073 2305.83,261.728 2308.83,260.151 2313.89,257.576 2321.85,253.136 2341.99,243.137 2352.76,237.48 "/>
<polyline clip-path="url(#clip482)" style="stroke:#c271d2; stroke-linecap:round; stroke-linejoin:round; stroke-width:4; stroke-opacity:1; fill:none" points="140.696,1384.24 140.696,1384.24 155.233,1378.1 159.5,1375.97 164.328,1373.63 166.536,1372.4 173.96,1368.46 177.681,1366.57 178.606,1366.04 180.369,1365.03 185.223,1362.36 193.749,1357.94 198.114,1355.45 204.25,1351.69 208.189,1349.42 211.613,1347.54 211.678,1347.5 222.747,1341.06 223.785,1340.49 227.329,1338.61 230.395,1337.03 244.122,1330.33 246.646,1329.15 248.608,1328.24 248.848,1328.13 258.748,1323.65 262.792,1321.85 264.028,1321.2 266.072,1319.98 269.005,1318.28 288.142,1308.31 289.06,1307.87 290.073,1307.38 293.52,1305.74 299.365,1303.02 310.234,1298.11 341.639,1284.46 348.341,1281.11 359.524,1275.8 369.265,1271.36 371.796,1270.23 371.969,1270.14 372.229,1269.98 372.663,1269.72 391.087,1259.61 392.24,1259.03 396.913,1256.38 406.472,1250.67 411.686,1247.82 411.989,1247.65 419.219,1243.93 420.072,1243.43 428.515,1238.76 428.661,1238.68 430.002,1237.86 438.626,1232.33 439.578,1231.76 461.636,1218.85 494.757,1201.77 496.707,1200.71 505.252,1196.29 515.435,1191.35 545.626,1177.79 548.456,1176.56 560.91,1171.19 561.047,1171.13 569.025,1167.72 591.78,1158.04 602.551,1153.48 605.92,1151.79 612.246,1148.72 613.144,1148.29 624.82,1142.87 627.076,1141.85 628.167,1141.27 635.148,1137.68 640.536,1135.03 641.618,1134.42 654.6,1127.57 667.144,1121.52 667.825,1121.21 669.622,1120.23 691.926,1109.15 723.494,1095.09 725.031,1094.3 732.461,1090.61 740.849,1086.62 742.915,1085.66 754.05,1079.87 791.746,1062.58 795.051,1060.88 799.228,1058.48 816.3,1048.59 822.636,1045.34 834.541,1039.58 837.564,1038.18 840.539,1036.81 847.232,1033.29 855.668,1029.11 855.97,1028.96 860.124,1026.98 863.402,1025.19 868.293,1022.24 876.442,1017.7 895.704,1008.13 898.562,1006.8 910.547,1001.36 910.963,1001.14 919.28,996.298 945.776,983.072 950.207,981.04 956.309,978.288 975.929,968.576 986.65,962.944 986.836,962.85 992.596,960.014 995.627,958.56 1009.87,951.982 1026.68,943.554 1051.1,931.202 1063.9,925.35 1064.63,925.024 1076.41,919.818 1081.51,917.598 1081.64,917.542 1082.58,917.133 1083.41,916.775 1087.55,914.983 1091.72,913.19 1094.54,911.98 1097.62,910.657 1101.72,908.59 1104.05,907.255 1106.24,906.027 1111.42,903.242 1114.12,901.837 1117.11,900.082 1126.62,894.878 1136.52,889.893 1143.31,886.648 1150.51,882.797 1151.17,882.458 1151.57,882.251 1156.13,879.952 1159.6,878.249 1179.11,869.183 1188.11,865.185 1192.64,863.2 1208.6,856.297 1212.74,854.521 1223.96,849.732 1225.78,848.957 1257.01,834.297 1264.87,830.834 1274.84,826.5 1279.04,824.689 1292.09,819.098 1305.45,813.41 1308.02,812.321 1315.63,809.092 1317.84,808.154 1321.63,806.549 1324.25,805.44 1348.94,793.737 1352.01,792.358 1355.09,790.986 1358.72,789.38 1365.01,786.625 1374.46,782.527 1377.93,780.761 1384.31,777.16 1385.82,776.34 1388.23,774.863 1388.25,774.849 1399.76,767.619 1407.68,763.229 1410.08,761.772 1412.61,760.083 1415.94,757.962 1421.87,754.422 1438.59,745.569 1441.47,743.926 1446.96,740.94 1450.23,739.232 1451.31,738.588 1457.06,735.306 1460.21,733.593 1463.07,732.083 1466.29,730.169 1468.8,728.735 1474.09,725.83 1485.48,720.018 1487.07,719.245 1493.98,715.954 1505.76,710.559 1507.01,709.999 1507.48,709.789 1508.55,709.312 1512.52,707.238 1520.61,702.638 1524.1,700.768 1527.1,699.212 1529.09,698.196 1533.87,695.818 1544.8,690.625 1546.97,689.449 1550.05,687.822 1550.12,687.785 1586.02,669.354 1587.28,668.779 1594.57,665.487 1604.3,661.18 1606.13,660.376 1610.38,658.526 1613.85,657.02 1614.11,656.909 1617.83,655.303 1618.98,654.805 1633.69,647.593 1638.02,645.578 1650.78,639.805 1654.12,638.328 1661.05,635.284 1684.01,624.179 1687.6,622.543 1688.89,621.961 1711.26,612.118 1711.82,611.876 1713.82,611.01 1715.72,610.193 1738.58,600.417 1747.71,595.904 1759.8,589.47 1771.4,583.822 1786.78,575.843 1791.84,573.403 1801.5,568.902 1814.48,563.081 1831.78,555.541 1839.69,551.583 1841.35,550.773 1843.91,549.546 1852.02,545.756 1858.46,542.351 1864.84,539.148 1871.46,535.96 1872.72,535.263 1874.3,534.399 1896,523.586 1917.76,513.769 1926.2,509.493 1927.97,508.626 1947.84,499.393 1951.39,497.531 1959.18,493.067 1959.43,492.927 1967.49,488.679 1968.22,488.249 1973.78,485.087 1975.21,484.303 1979.55,481.663 1982.59,479.895 1987.57,477.133 1990.42,475.614 2004.88,468.405 2005.97,467.797 2009.68,465.781 2010.46,465.366 2017.76,461.611 2026.1,456.957 2034.41,452.674 2037.46,451.171 2052.63,443.099 2053.54,442.644 2058.35,439.932 2082.57,426.577 2089.15,423.392 2091.5,422.281 2106.35,415.491 2117.16,410.717 2127.06,406.413 2153.38,395.148 2160.47,392.137 2165.06,390.187 2165.98,389.72 2166.32,389.549 2173.98,385.788 2182,382.011 2183.47,381.334 2196.92,375.273 2205.05,371.696 2214.31,367.679 2214.43,367.626 2219.5,365.442 2226.19,362.574 2230.98,360.164 2236.79,357.338 2241.57,354.714 2245.03,352.62 2245.9,352.11 2259.51,344.705 2260.65,344.127 2261.87,343.51 2269.97,339.548 2270.86,339.126 2272,338.492 2288.5,329.999 2296.28,326.306 2305.83,321.934 2308.83,320.586 2313.89,318.334 2321.85,314.84 2341.99,305.03 2352.76,300.143 "/>
<polyline clip-path="url(#clip482)" style="stroke:#ac8d18; stroke-linecap:round; stroke-linejoin:round; stroke-width:4; stroke-opacity:1; fill:none" points="140.696,1384.24 140.696,1384.24 155.233,1377.2 159.5,1375.22 164.328,1372.66 166.536,1371.52 173.96,1367.3 177.681,1365.02 178.606,1364.46 180.369,1363.43 185.223,1360.34 193.749,1354.77 198.114,1352.17 204.25,1348.75 208.189,1346.35 211.613,1344.1 211.678,1344.06 222.747,1337.49 223.785,1336.83 227.329,1334.66 230.395,1332.85 244.122,1325.48 246.646,1324.02 248.608,1322.91 248.848,1322.76 258.748,1316.82 262.792,1314.29 264.028,1313.54 266.072,1312.33 269.005,1310.65 288.142,1300.74 289.06,1300.3 290.073,1299.73 293.52,1297.84 299.365,1294.78 310.234,1288.69 341.639,1273.63 348.341,1270.65 359.524,1265.02 369.265,1259.74 371.796,1258.24 371.969,1258.14 372.229,1257.99 372.663,1257.74 391.087,1246.97 392.24,1246.27 396.913,1243.54 406.472,1238.38 411.686,1235.34 411.989,1235.17 419.219,1231.26 420.072,1230.81 428.515,1226.56 428.661,1226.49 430.002,1225.84 438.626,1221.75 439.578,1221.31 461.636,1211.43 494.757,1197.18 496.707,1196.35 505.252,1192.72 515.435,1188.4 545.626,1175.63 548.456,1174.43 560.91,1169.17 561.047,1169.1 569.025,1164.6 591.78,1153.31 602.551,1147.68 605.92,1146.01 612.246,1142.97 613.144,1142.47 624.82,1135.6 627.076,1134.19 628.167,1133.53 635.148,1129.49 640.536,1126.17 641.618,1125.54 654.6,1118.46 667.144,1111.48 667.825,1111.07 669.622,1110 691.926,1098.26 723.494,1083.91 725.031,1083.24 732.461,1080.01 740.849,1076.4 742.915,1075.35 754.05,1069.92 791.746,1053.08 795.051,1051.66 799.228,1049.86 816.3,1042.58 822.636,1039.88 834.541,1034.05 837.564,1032.63 840.539,1031.02 847.232,1027.54 855.668,1022.8 855.97,1022.64 860.124,1020.13 863.402,1018.25 868.293,1015.56 876.442,1010.77 895.704,999.77 898.562,998.086 910.547,990.792 910.963,990.559 919.28,986.089 945.776,973.428 950.207,971.101 956.309,968.028 975.929,958.821 986.65,954.045 986.836,953.947 992.596,950.569 995.627,948.643 1009.87,940.533 1026.68,932.197 1051.1,921.151 1063.9,914.763 1064.63,914.354 1076.41,907.353 1081.51,904.222 1081.64,904.135 1082.58,903.423 1083.41,902.743 1087.55,899.183 1091.72,895.917 1094.54,893.855 1097.62,891.714 1101.72,889.04 1104.05,887.593 1106.24,886.094 1111.42,882.765 1114.12,880.907 1117.11,878.948 1126.62,872.597 1136.52,866.839 1143.31,862.737 1150.51,858.742 1151.17,858.392 1151.57,858.144 1156.13,855.437 1159.6,853.204 1179.11,842.301 1188.11,837.241 1192.64,834.518 1208.6,825.943 1212.74,823.896 1223.96,818.582 1225.78,817.744 1257.01,803.945 1264.87,800.566 1274.84,795.625 1279.04,793.628 1292.09,787.643 1305.45,781.731 1308.02,780.612 1315.63,776.769 1317.84,775.51 1321.63,773.426 1324.25,771.821 1348.94,758.717 1352.01,757.006 1355.09,755.345 1358.72,753.445 1365.01,750.284 1374.46,745.754 1377.93,744.142 1384.31,741.235 1385.82,740.552 1388.23,739.47 1388.25,739.461 1399.76,734.379 1407.68,730.375 1410.08,729.203 1412.61,727.984 1415.94,726.407 1421.87,723.653 1438.59,716.161 1441.47,714.896 1446.96,712.504 1450.23,710.829 1451.31,710.285 1457.06,707.028 1460.21,705.079 1463.07,703.38 1466.29,701.536 1468.8,699.948 1474.09,696.374 1485.48,689.562 1487.07,688.686 1493.98,684.522 1505.76,678.141 1507.01,677.402 1507.48,677.126 1508.55,676.42 1512.52,673.884 1520.61,669.139 1524.1,666.948 1527.1,664.918 1529.09,663.619 1533.87,660.658 1544.8,653.794 1546.97,652.547 1550.05,650.831 1550.12,650.793 1586.02,633.389 1587.28,632.828 1594.57,629.603 1604.3,624.693 1606.13,623.653 1610.38,621.326 1613.85,619.492 1614.11,619.337 1617.83,617.15 1618.98,616.49 1633.69,608.72 1638.02,606.268 1650.78,598.785 1654.12,596.739 1661.05,592.754 1684.01,581.2 1687.6,579.527 1688.89,578.933 1711.26,567.772 1711.82,567.511 1713.82,566.582 1715.72,565.555 1738.58,554.272 1747.71,550.108 1759.8,544.751 1771.4,538.945 1786.78,531.79 1791.84,529.136 1801.5,524.339 1814.48,518.278 1831.78,510.574 1839.69,507.136 1841.35,506.414 1843.91,505.106 1852.02,500.539 1858.46,497.161 1864.84,493.511 1871.46,489.492 1872.72,488.766 1874.3,487.74 1896,474.382 1917.76,462.431 1926.2,458.342 1927.97,457.506 1947.84,448.494 1951.39,446.933 1959.18,443.535 1959.43,443.403 1967.49,438.784 1968.22,438.387 1973.78,435.445 1975.21,434.71 1979.55,432.531 1982.59,430.797 1987.57,427.705 1990.42,425.802 2004.88,416.351 2005.97,415.716 2009.68,413.616 2010.46,413.185 2017.76,408.78 2026.1,404.191 2034.41,399.366 2037.46,397.471 2052.63,389.002 2053.54,388.455 2058.35,385.681 2082.57,373.405 2089.15,370.36 2091.5,369.29 2106.35,362.679 2117.16,357.254 2127.06,352.576 2153.38,340.849 2160.47,337.782 2165.06,335.805 2165.98,335.409 2166.32,335.263 2173.98,331.985 2182,327.996 2183.47,327.288 2196.92,320.166 2205.05,316.199 2214.31,311.88 2214.43,311.824 2219.5,309.138 2226.19,305.761 2230.98,303.435 2236.79,300.257 2241.57,297.768 2245.03,296.025 2245.9,295.596 2259.51,289.11 2260.65,288.493 2261.87,287.836 2269.97,283.658 2270.86,283.143 2272,282.489 2288.5,273.797 2296.28,269.496 2305.83,263.961 2308.83,262.34 2313.89,259.702 2321.85,255.753 2341.99,246.434 2352.76,241.675 "/>
<polyline clip-path="url(#clip482)" style="stroke:#00a9ad; stroke-linecap:round; stroke-linejoin:round; stroke-width:4; stroke-opacity:1; fill:none" points="140.696,1384.24 140.696,1384.24 155.233,1378.1 159.5,1375.97 164.328,1373.26 166.536,1371.89 173.96,1367.56 177.681,1365.24 178.606,1364.68 180.369,1363.63 185.223,1360.49 193.749,1354.87 198.114,1351.93 204.25,1347.65 208.189,1344.83 211.613,1342.25 211.678,1342.2 222.747,1333.41 223.785,1332.6 227.329,1329.94 230.395,1327.54 244.122,1317.42 246.646,1315.81 248.608,1314.6 248.848,1314.44 258.748,1307.44 262.792,1304.9 264.028,1304.05 266.072,1302.52 269.005,1300.19 288.142,1286.56 289.06,1286.01 290.073,1285.41 293.52,1283.15 299.365,1279.57 310.234,1272.82 341.639,1255.55 348.341,1251.9 359.524,1245.5 369.265,1239.82 371.796,1238.44 371.969,1238.35 372.229,1238.21 372.663,1237.94 391.087,1226.68 392.24,1225.96 396.913,1223.16 406.472,1217.24 411.686,1214.3 411.989,1214.11 419.219,1209.26 420.072,1208.65 428.515,1202.5 428.661,1202.4 430.002,1201.51 438.626,1196.18 439.578,1195.55 461.636,1181.78 494.757,1164.3 496.707,1163.23 505.252,1158.77 515.435,1153.12 545.626,1137.24 548.456,1135.91 560.91,1130.25 561.047,1130.17 569.025,1126.08 591.78,1114.18 602.551,1108.42 605.92,1106.46 612.246,1102.51 613.144,1101.9 624.82,1094.71 627.076,1093.44 628.167,1092.84 635.148,1088.62 640.536,1085.2 641.618,1084.46 654.6,1075.6 667.144,1067.65 667.825,1067.26 669.622,1066.09 691.926,1052.4 723.494,1037.2 725.031,1036.51 732.461,1033.21 740.849,1029.54 742.915,1028.48 754.05,1022.26 791.746,1004.44 795.051,1002.99 799.228,1000.84 816.3,991.62 822.636,988.513 834.541,982.165 837.564,980.413 840.539,978.512 847.232,974.026 855.668,968.972 855.97,968.775 860.124,966.161 863.402,963.947 868.293,960.848 876.442,955.541 895.704,943.875 898.562,942.132 910.547,934.659 910.963,934.386 919.28,928.678 945.776,914.116 950.207,911.639 956.309,907.953 975.929,896.504 986.65,890.403 986.836,890.288 992.596,886.426 995.627,884.531 1009.87,876.521 1026.68,868.243 1051.1,857.233 1063.9,851.674 1064.63,851.299 1076.41,844.723 1081.51,841.716 1081.64,841.643 1082.58,841.108 1083.41,840.644 1087.55,838.056 1091.72,835.278 1094.54,833.499 1097.62,831.385 1101.72,828.427 1104.05,826.654 1106.24,824.876 1111.42,820.601 1114.12,818.544 1117.11,816.155 1126.62,808.765 1136.52,801.632 1143.31,797.379 1150.51,792.747 1151.17,792.295 1151.57,791.985 1156.13,788.305 1159.6,785.452 1179.11,772.407 1188.11,766.84 1192.64,764.275 1208.6,756.06 1212.74,753.752 1223.96,747.933 1225.78,746.887 1257.01,731.247 1264.87,727.129 1274.84,721.559 1279.04,719.372 1292.09,712.144 1305.45,704.68 1308.02,703.151 1315.63,698.88 1317.84,697.522 1321.63,694.995 1324.25,693.334 1348.94,679.929 1352.01,678.199 1355.09,676.278 1358.72,674.115 1365.01,670.588 1374.46,665.67 1377.93,663.68 1384.31,659.749 1385.82,658.74 1388.23,656.988 1388.25,656.971 1399.76,648.77 1407.68,643.387 1410.08,641.692 1412.61,639.982 1415.94,637.574 1421.87,633.179 1438.59,621.854 1441.47,619.943 1446.96,616.122 1450.23,613.749 1451.31,612.906 1457.06,608.285 1460.21,605.974 1463.07,603.761 1466.29,601.158 1468.8,599.052 1474.09,594.556 1485.48,585.616 1487.07,584.521 1493.98,579.566 1505.76,572.292 1507.01,571.483 1507.48,571.143 1508.55,570.295 1512.52,567.287 1520.61,561.236 1524.1,558.884 1527.1,556.971 1529.09,555.582 1533.87,552.07 1544.8,544.313 1546.97,542.762 1550.05,540.66 1550.12,540.614 1586.02,519.633 1587.28,518.92 1594.57,514.964 1604.3,509.385 1606.13,508.249 1610.38,505.727 1613.85,503.76 1614.11,503.596 1617.83,500.998 1618.98,500.224 1633.69,490.511 1638.02,487.692 1650.78,480.283 1654.12,478.251 1661.05,473.785 1684.01,460.175 1687.6,458.332 1688.89,457.577 1711.26,445.904 1711.82,445.636 1713.82,444.682 1715.72,443.634 1738.58,430.988 1747.71,425.936 1759.8,419.845 1771.4,413.626 1786.78,405.232 1791.84,402.707 1801.5,397.427 1814.48,390.142 1831.78,381.603 1839.69,377.952 1841.35,377.059 1843.91,375.715 1852.02,371.06 1858.46,367.158 1864.84,363.119 1871.46,358.8 1872.72,358.026 1874.3,356.944 1896,344.28 1917.76,333.764 1926.2,329.355 1927.97,328.466 1947.84,317.965 1951.39,316.251 1959.18,312.039 1959.43,311.884 1967.49,306.681 1968.22,306.18 1973.78,302.55 1975.21,301.547 1979.55,298.654 1982.59,296.495 1987.57,292.822 1990.42,290.64 2004.88,281.114 2005.97,280.385 2009.68,277.998 2010.46,277.513 2017.76,272.681 2026.1,267.748 2034.41,262.687 2037.46,260.725 2052.63,252.032 2053.54,251.476 2058.35,248.659 2082.57,236.266 2089.15,233.205 2091.5,232.131 2106.35,224.585 2117.16,219.504 2127.06,215.024 2153.38,203.541 2160.47,200.504 2165.06,198.541 2165.98,198.072 2166.32,197.871 2173.98,193.555 2182,188.801 2183.47,187.86 2196.92,179.192 2205.05,174.654 2214.31,169.256 2214.43,169.178 2219.5,166.07 2226.19,162.265 2230.98,159.339 2236.79,155.585 2241.57,152.724 2245.03,150.758 2245.9,150.206 2259.51,141.449 2260.65,140.697 2261.87,139.903 2269.97,134.412 2270.86,133.78 2272,132.889 2288.5,121.833 2296.28,117.452 2305.83,111.85 2308.83,109.977 2313.89,106.599 2321.85,101.782 2341.99,91.2583 2352.76,86.1857 "/>
<polyline clip-path="url(#clip482)" style="stroke:#ed5d92; stroke-linecap:round; stroke-linejoin:round; stroke-width:4; stroke-opacity:1; fill:none" points="140.696,1384.24 140.696,1384.24 155.233,1378.1 159.5,1375.97 164.328,1373.63 166.536,1372.58 173.96,1369.12 177.681,1367.42 178.606,1366.93 180.369,1366 185.223,1363.5 193.749,1359.32 198.114,1357.25 204.25,1354.41 208.189,1352.62 211.613,1351.08 211.678,1351.06 222.747,1345.43 223.785,1344.92 227.329,1343.21 230.395,1341.76 244.122,1335.48 246.646,1334.36 248.608,1333.49 248.848,1333.38 258.748,1329.03 262.792,1327.28 264.028,1326.74 266.072,1325.86 269.005,1324.59 288.142,1316.4 289.06,1316.01 290.073,1315.58 293.52,1314.11 299.365,1311.63 310.234,1307.02 341.639,1293.74 348.341,1290.9 359.524,1286.18 369.265,1282.06 371.796,1280.99 371.969,1280.91 372.229,1280.75 372.663,1280.5 391.087,1270.67 392.24,1270.1 396.913,1267.49 406.472,1262.49 411.686,1259.92 411.989,1259.77 419.219,1256.33 420.072,1255.86 428.515,1251.42 428.661,1251.35 430.002,1250.56 438.626,1245.17 439.578,1244.62 461.636,1231.9 494.757,1216.36 496.707,1215.49 505.252,1211.75 515.435,1207.35 545.626,1194.46 548.456,1193.26 560.91,1187.99 561.047,1187.93 569.025,1184.55 591.78,1174.93 602.551,1170.38 605.92,1168.69 612.246,1165.62 613.144,1165.19 624.82,1159.78 627.076,1158.76 628.167,1158.18 635.148,1154.59 640.536,1151.94 641.618,1151.33 654.6,1144.48 667.144,1138.44 667.825,1138.12 669.622,1137.14 691.926,1126.07 723.494,1112.01 725.031,1111.22 732.461,1107.52 740.849,1103.53 742.915,1102.58 754.05,1097.53 791.746,1081.17 795.051,1079.5 799.228,1077.12 816.3,1068.32 822.636,1065.3 834.541,1059.84 837.564,1058.49 840.539,1057.17 847.232,1054.22 855.668,1050.55 855.97,1050.42 860.124,1048.62 863.402,1046.95 868.293,1044.16 876.442,1039.82 895.704,1030.5 898.562,1029.19 910.547,1023.82 910.963,1023.6 919.28,1018.79 945.776,1005.61 950.207,1003.58 956.309,1000.83 975.929,992.225 986.65,986.893 986.836,986.803 992.596,984.077 995.627,982.67 1009.87,976.244 1026.68,967.907 1051.1,955.608 1063.9,949.768 1064.63,949.442 1076.41,944.242 1081.51,942.024 1081.64,941.968 1082.58,941.559 1083.41,941.201 1087.55,939.411 1091.72,937.619 1094.54,936.409 1097.62,935.086 1101.72,933.02 1104.05,931.685 1106.24,930.457 1111.42,927.673 1114.12,926.268 1117.11,924.75 1126.62,920.117 1136.52,915.518 1143.31,912.454 1150.51,909.262 1151.17,908.974 1151.57,908.796 1156.13,906.803 1159.6,905.293 1179.11,896.898 1188.11,893.058 1192.64,891.131 1208.6,884.362 1212.74,882.608 1223.96,877.86 1225.78,877.09 1257.01,862.474 1264.87,859.015 1274.84,854.685 1279.04,852.875 1292.09,847.287 1305.45,841.6 1308.02,840.511 1315.63,837.283 1317.84,836.345 1321.63,834.74 1324.25,833.631 1348.94,821.929 1352.01,820.549 1355.09,819.178 1358.72,817.571 1365.01,814.817 1374.46,810.719 1377.93,809.224 1384.31,806.023 1385.82,805.282 1388.23,804.115 1388.25,804.103 1399.76,797.963 1407.68,794.054 1410.08,792.904 1412.61,791.505 1415.94,789.719 1421.87,786.664 1438.59,778.649 1441.47,777.327 1446.96,774.845 1450.23,773.384 1451.31,772.903 1457.06,770.366 1460.21,768.987 1463.07,767.741 1466.29,766.342 1468.8,765.258 1474.09,762.977 1485.48,758.095 1487.07,757.418 1493.98,754.473 1505.76,749.468 1507.01,748.938 1507.48,748.739 1508.55,748.287 1512.52,746.293 1520.61,742.392 1524.1,740.754 1527.1,739.369 1529.09,738.455 1533.87,736.288 1544.8,731.435 1546.97,730.484 1550.05,729.14 1550.12,729.109 1586.02,712.202 1587.28,711.648 1594.57,708.456 1604.3,704.241 1606.13,703.45 1610.38,701.626 1613.85,700.139 1614.11,700.029 1617.83,698.439 1618.98,697.946 1633.69,691.685 1638.02,689.849 1650.78,684.44 1654.12,683.029 1661.05,680.094 1684.01,669.18 1687.6,667.56 1688.89,666.982 1711.26,657.193 1711.82,656.952 1713.82,656.089 1715.72,655.274 1738.58,645.515 1747.71,641.637 1759.8,635.728 1771.4,630.376 1786.78,622.613 1791.84,620.217 1801.5,615.777 1814.48,610.005 1831.78,602.499 1839.69,598.549 1841.35,597.741 1843.91,596.515 1852.02,592.731 1858.46,589.801 1864.84,586.951 1871.46,584.036 1872.72,583.382 1874.3,582.57 1896,572.189 1917.76,562.536 1926.2,558.884 1927.97,558.121 1947.84,549.626 1951.39,547.84 1959.18,543.504 1959.43,543.368 1967.49,539.212 1968.22,538.789 1973.78,535.672 1975.21,534.898 1979.55,532.284 1982.59,530.532 1987.57,527.792 1990.42,526.284 2004.88,519.111 2005.97,518.505 2009.68,516.494 2010.46,516.08 2017.76,512.333 2026.1,507.687 2034.41,503.408 2037.46,501.907 2052.63,493.84 2053.54,493.385 2058.35,490.673 2082.57,477.321 2089.15,474.136 2091.5,473.025 2106.35,466.236 2117.16,461.462 2127.06,457.158 2153.38,445.893 2160.47,442.882 2165.06,440.932 2165.98,440.541 2166.32,440.397 2173.98,437.153 2182,433.757 2183.47,433.136 2196.92,427.448 2205.05,424.009 2214.31,420.098 2214.43,420.046 2219.5,417.903 2226.19,415.077 2230.98,412.692 2236.79,409.888 2241.57,407.279 2245.03,405.192 2245.9,404.685 2259.51,397.303 2260.65,396.725 2261.87,396.11 2269.97,392.156 2270.86,391.734 2272,391.195 2288.5,383.645 2296.28,380.205 2305.83,376.044 2308.83,374.746 2313.89,372.564 2321.85,369.152 2341.99,359.456 2352.76,354.599 "/>
<polyline clip-path="url(#clip482)" style="stroke:#c68125; stroke-linecap:round; stroke-linejoin:round; stroke-width:4; stroke-opacity:1; fill:none" points="140.696,1384.24 140.696,1384.24 155.233,1378.1 159.5,1376.3 164.328,1374.26 166.536,1373.15 173.96,1369.53 177.681,1367.48 178.606,1366.98 180.369,1366.05 185.223,1363.17 193.749,1358.5 198.114,1355.91 204.25,1352.03 208.189,1349.41 211.613,1346.99 211.678,1346.94 222.747,1339.98 223.785,1339.29 227.329,1337.03 230.395,1334.93 244.122,1325.74 246.646,1324.24 248.608,1323.12 248.848,1322.98 258.748,1316.97 262.792,1314.72 264.028,1313.95 266.072,1312.54 269.005,1310.36 288.142,1298.46 289.06,1297.96 290.073,1297.41 293.52,1295.58 299.365,1292.6 310.234,1287.36 341.639,1273.31 348.341,1269.92 359.524,1263.83 369.265,1258.31 371.796,1256.97 371.969,1256.88 372.229,1256.74 372.663,1256.48 391.087,1246.42 392.24,1245.84 396.913,1243.55 406.472,1238.38 411.686,1235.74 411.989,1235.59 419.219,1231.56 420.072,1231.1 428.515,1226.17 428.661,1226.09 430.002,1225.35 438.626,1220.82 439.578,1220.26 461.636,1208.68 494.757,1192.2 496.707,1191.15 505.252,1186.78 515.435,1181.2 545.626,1165.4 548.456,1164.08 560.91,1158.42 561.047,1158.35 569.025,1154.26 591.78,1142.37 602.551,1136.61 605.92,1134.91 612.246,1131.83 613.144,1131.4 624.82,1125.97 627.076,1124.95 628.167,1124.46 635.148,1120.84 640.536,1117.77 641.618,1117.17 654.6,1109.64 667.144,1103.22 667.825,1102.89 669.622,1102.02 691.926,1090.57 723.494,1076.35 725.031,1075.68 732.461,1072.47 740.849,1068.87 742.915,1067.98 754.05,1062.49 791.746,1045.58 795.051,1044.16 799.228,1042.36 816.3,1034.06 822.636,1031.15 834.541,1025.04 837.564,1023.34 840.539,1021.47 847.232,1017.06 855.668,1012.06 855.97,1011.89 860.124,1009.62 863.402,1007.89 868.293,1005.39 876.442,1001.41 895.704,992.568 898.562,991.299 910.547,985.266 910.963,985.065 919.28,981.136 945.776,969.306 950.207,967.045 956.309,964.044 975.929,953.868 986.65,948.829 986.836,948.728 992.596,945.683 995.627,944.14 1009.87,937.27 1026.68,929.667 1051.1,919.055 1063.9,913.584 1064.63,913.273 1076.41,907.489 1081.51,905.1 1081.64,905.04 1082.58,904.604 1083.41,904.223 1087.55,902.009 1091.72,899.543 1094.54,897.945 1097.62,896.004 1101.72,893.557 1104.05,892.222 1106.24,890.994 1111.42,888.208 1114.12,886.803 1117.11,885.048 1126.62,879.843 1136.52,874.858 1143.31,871.613 1150.51,867.762 1151.17,867.423 1151.57,867.216 1156.13,864.569 1159.6,862.374 1179.11,851.603 1188.11,847.201 1192.64,845.066 1208.6,837.826 1212.74,835.676 1223.96,830.162 1225.78,829.301 1257.01,815.291 1264.87,811.331 1274.84,806.575 1279.04,804.635 1292.09,797.935 1305.45,790.771 1308.02,789.486 1315.63,785.795 1317.84,784.571 1321.63,782.539 1324.25,781.174 1348.94,769.36 1352.01,767.973 1355.09,766.352 1358.72,764.493 1365.01,761.388 1374.46,756.918 1377.93,755.05 1384.31,751.767 1385.82,751.01 1388.23,749.626 1388.25,749.614 1399.76,743.468 1407.68,738.993 1410.08,737.516 1412.61,736.01 1415.94,733.84 1421.87,730.227 1438.59,721.248 1441.47,719.592 1446.96,716.584 1450.23,714.609 1451.31,713.885 1457.06,709.808 1460.21,707.74 1463.07,705.721 1466.29,703.308 1468.8,701.532 1474.09,697.622 1485.48,689.557 1487.07,688.552 1493.98,684.424 1505.76,678.083 1507.01,677.347 1507.48,677.073 1508.55,676.456 1512.52,674.222 1520.61,669.375 1524.1,667.422 1527.1,665.805 1529.09,664.753 1533.87,662.3 1544.8,656.986 1546.97,655.792 1550.05,654.143 1550.12,654.106 1586.02,637.059 1587.28,636.4 1594.57,632.702 1604.3,627.36 1606.13,626.406 1610.38,624.254 1613.85,622.54 1614.11,622.415 1617.83,620.333 1618.98,619.702 1633.69,611.288 1638.02,609.046 1650.78,602.811 1654.12,600.99 1661.05,597.376 1684.01,586.476 1687.6,584.857 1688.89,584.175 1711.26,573.266 1711.82,573.008 1713.82,572.091 1715.72,571.229 1738.58,559.923 1747.71,555.122 1759.8,549.239 1771.4,543.137 1786.78,535.765 1791.84,533.449 1801.5,528.458 1814.48,521.407 1831.78,513.028 1839.69,509.417 1841.35,508.667 1843.91,507.522 1852.02,503.365 1858.46,499.749 1864.84,496.391 1871.46,493.082 1872.72,492.469 1874.3,491.704 1896,481.73 1917.76,472.23 1926.2,468.015 1927.97,467.157 1947.84,456.886 1951.39,455.195 1959.18,451.578 1959.43,451.461 1967.49,447.82 1968.22,447.495 1973.78,445.033 1975.21,444.286 1979.55,442.075 1982.59,440.563 1987.57,438.151 1990.42,436.8 2004.88,430.176 2005.97,429.689 2009.68,428.041 2010.46,427.696 2017.76,423.963 2026.1,419.916 2034.41,416.048 2037.46,414.663 2052.63,407.915 2053.54,407.439 2058.35,404.993 2082.57,393.62 2089.15,390.693 2091.5,389.657 2106.35,382.28 2117.16,377.268 2127.06,372.827 2153.38,361.393 2160.47,358.361 2165.06,356.402 2165.98,355.933 2166.32,355.761 2173.98,351.987 2182,348.201 2183.47,347.403 2196.92,340.535 2205.05,336.661 2214.31,332.415 2214.43,332.359 2219.5,330.084 2226.19,327.125 2230.98,325.029 2236.79,322.071 2241.57,319.725 2245.03,318.068 2245.9,317.586 2259.51,310.499 2260.65,309.939 2261.87,309.341 2269.97,305.483 2270.86,305.07 2272,304.448 2288.5,296.067 2296.28,292.404 2305.83,287.401 2308.83,285.668 2313.89,282.49 2321.85,277.905 2341.99,267.706 2352.76,262.718 "/>
<polyline clip-path="url(#clip482)" style="stroke:#00a98d; stroke-linecap:round; stroke-linejoin:round; stroke-width:4; stroke-opacity:1; fill:none" points="140.696,1384.24 140.696,1384.24 155.233,1377.2 159.5,1375.22 164.328,1373.03 166.536,1371.86 173.96,1367.54 177.681,1365.22 178.606,1364.66 180.369,1363.47 185.223,1360 193.749,1354.53 198.114,1351.65 204.25,1347.44 208.189,1344.65 211.613,1342.1 211.678,1342.06 222.747,1334.8 223.785,1334.09 227.329,1331.49 230.395,1329.13 244.122,1319.15 246.646,1317.35 248.608,1315.86 248.848,1315.68 258.748,1308.24 262.792,1305.25 264.028,1304.28 266.072,1302.56 269.005,1300 288.142,1286.48 289.06,1285.86 290.073,1285.09 293.52,1282.61 299.365,1278.29 310.234,1271.31 341.639,1255.18 348.341,1251.62 359.524,1245.34 369.265,1239.71 371.796,1238.14 371.969,1238.04 372.229,1237.88 372.663,1237.58 391.087,1226.52 392.24,1225.91 396.913,1223.48 406.472,1218.1 411.686,1214.98 411.989,1214.81 419.219,1210.28 420.072,1209.78 428.515,1204.46 428.661,1204.36 430.002,1203.46 438.626,1198.11 439.578,1197.48 461.636,1184.86 494.757,1167.9 496.707,1166.85 505.252,1161.84 515.435,1155.75 545.626,1139.31 548.456,1137.74 560.91,1130.48 561.047,1130.4 569.025,1125.1 591.78,1111.43 602.551,1105.28 605.92,1103.5 612.246,1100.28 613.144,1099.83 624.82,1093.48 627.076,1092.15 628.167,1091.52 635.148,1087.16 640.536,1083.65 641.618,1082.98 654.6,1074.77 667.144,1067.99 667.825,1067.59 669.622,1066.54 691.926,1053.76 723.494,1037.52 725.031,1036.81 732.461,1032.9 740.849,1028.15 742.915,1027.04 754.05,1020.65 791.746,1001.08 795.051,999.566 799.228,997.681 816.3,989.149 822.636,985.723 834.541,978.973 837.564,977.149 840.539,975.186 847.232,970.588 855.668,964.839 855.97,964.648 860.124,961.776 863.402,959.647 868.293,956.655 876.442,952.058 895.704,942.409 898.562,941.069 910.547,934.822 910.963,934.616 919.28,930.595 945.776,917.315 950.207,914.939 956.309,911.813 975.929,901.406 986.65,896.306 986.836,896.204 992.596,893.136 995.627,891.344 1009.87,882.778 1026.68,874.173 1051.1,862.968 1063.9,856.545 1064.63,856.195 1076.41,849.924 1081.51,847.392 1081.64,847.318 1082.58,846.703 1083.41,846.104 1087.55,842.907 1091.72,839.622 1094.54,837.326 1097.62,834.716 1101.72,831.514 1104.05,829.807 1106.24,828.263 1111.42,824.845 1114.12,822.948 1117.11,820.714 1126.62,814.353 1136.52,808.588 1143.31,804.483 1150.51,799.966 1151.17,799.576 1151.57,799.339 1156.13,796.384 1159.6,793.993 1179.11,781.449 1188.11,776.625 1192.64,773.989 1208.6,764.65 1212.74,762.16 1223.96,755.244 1225.78,754.215 1257.01,738.718 1264.87,734.614 1274.84,729.735 1279.04,727.434 1292.09,719.964 1305.45,712.364 1308.02,711.021 1315.63,706.649 1317.84,705.267 1321.63,702.999 1324.25,701.283 1348.94,687.589 1352.01,686.083 1355.09,684.358 1358.72,682.11 1365.01,678.003 1374.46,671.819 1377.93,669.485 1384.31,665.512 1385.82,664.618 1388.23,663.035 1388.25,663.021 1399.76,655.412 1407.68,650.292 1410.08,648.66 1412.61,647.008 1415.94,644.669 1421.87,640.812 1438.59,631.412 1441.47,629.71 1446.96,626.63 1450.23,624.619 1451.31,623.885 1457.06,619.759 1460.21,617.422 1463.07,615.188 1466.29,612.565 1468.8,610.645 1474.09,606.48 1485.48,598.034 1487.07,596.86 1493.98,592.123 1505.76,584.323 1507.01,583.472 1507.48,583.157 1508.55,582.45 1512.52,579.914 1520.61,574.596 1524.1,572.215 1527.1,570.043 1529.09,568.661 1533.87,565.527 1544.8,559.112 1546.97,557.757 1550.05,555.661 1550.12,555.609 1586.02,534.66 1587.28,533.948 1594.57,529.469 1604.3,523.412 1606.13,522.356 1610.38,519.669 1613.85,517.316 1614.11,517.148 1617.83,514.489 1618.98,513.603 1633.69,502.873 1638.02,500.194 1650.78,492.251 1654.12,490.122 1661.05,486 1684.01,474.205 1687.6,472.232 1688.89,471.435 1711.26,458.126 1711.82,457.787 1713.82,456.434 1715.72,455.194 1738.58,441.16 1747.71,435.847 1759.8,429.54 1771.4,423.2 1786.78,415.655 1791.84,412.922 1801.5,407.353 1814.48,399.834 1831.78,390.12 1839.69,386.17 1841.35,385.362 1843.91,383.933 1852.02,379.064 1858.46,375.04 1864.84,371.379 1871.46,367.835 1872.72,367.185 1874.3,366.377 1896,354.861 1917.76,343.606 1926.2,339.057 1927.97,338 1947.84,326.309 1951.39,324.473 1959.18,320.608 1959.43,320.484 1967.49,316.666 1968.22,316.328 1973.78,313.363 1975.21,312.505 1979.55,310.001 1982.59,308.314 1987.57,305.663 1990.42,304.197 2004.88,296.275 2005.97,295.72 2009.68,293.576 2010.46,293.072 2017.76,288.093 2026.1,283.042 2034.41,278.487 2037.46,276.908 2052.63,269.505 2053.54,269.002 2058.35,266.432 2082.57,254.716 2089.15,251.262 2091.5,249.885 2106.35,241.015 2117.16,234.675 2127.06,228.796 2153.38,214.278 2160.47,210.362 2165.06,207.613 2165.98,207.004 2166.32,206.782 2173.98,201.513 2182,196.625 2183.47,195.665 2196.92,187.719 2205.05,182.871 2214.31,177.875 2214.43,177.812 2219.5,174.859 2226.19,170.724 2230.98,167.979 2236.79,164.4 2241.57,161.651 2245.03,159.752 2245.9,159.216 2259.51,151.496 2260.65,150.899 2261.87,150.162 2269.97,145.555 2270.86,145.076 2272,144.371 2288.5,134.191 2296.28,129.491 2305.83,123.624 2308.83,121.687 2313.89,118.221 2321.85,112.734 2341.99,101.284 2352.76,95.2494 "/>
<polyline clip-path="url(#clip482)" style="stroke:#8e971d; stroke-linecap:round; stroke-linejoin:round; stroke-width:4; stroke-opacity:1; fill:none" points="140.696,1384.24 140.696,1384.24 155.233,1378.1 159.5,1376.3 164.328,1374.26 166.536,1373.15 173.96,1369.53 177.681,1367.77 178.606,1367.34 180.369,1366.52 185.223,1364.29 193.749,1360.45 198.114,1358.18 204.25,1354.67 208.189,1352.53 211.613,1350.74 211.678,1350.7 222.747,1344.47 223.785,1343.92 227.329,1341.81 230.395,1340.06 244.122,1332.83 246.646,1331.59 248.608,1330.47 248.848,1330.34 258.748,1325.06 262.792,1323.03 264.028,1322.31 266.072,1320.99 269.005,1319.17 288.142,1307.6 289.06,1307.04 290.073,1306.42 293.52,1304.11 299.365,1300.46 310.234,1294.36 341.639,1277.86 348.341,1274.27 359.524,1268.69 369.265,1264.11 371.796,1262.95 371.969,1262.87 372.229,1262.75 372.663,1262.56 391.087,1254.37 392.24,1253.86 396.913,1251.83 406.472,1247.05 411.686,1244.56 411.989,1244.4 419.219,1240.53 420.072,1240.09 428.515,1235.88 428.661,1235.81 430.002,1235.16 438.626,1231.1 439.578,1230.66 461.636,1220.81 494.757,1205.12 496.707,1204.1 505.252,1199.8 515.435,1194.95 545.626,1181.5 548.456,1180.28 560.91,1174.12 561.047,1174.06 569.025,1170.33 591.78,1160.19 602.551,1155.52 605.92,1154.07 612.246,1150.9 613.144,1150.46 624.82,1144.93 627.076,1143.89 628.167,1143.39 635.148,1140.24 640.536,1137.85 641.618,1137.37 654.6,1131.7 667.144,1126.31 667.825,1126.02 669.622,1125.25 691.926,1115.75 723.494,1102.39 725.031,1101.74 732.461,1098.6 740.849,1095.05 742.915,1094.18 754.05,1088.74 791.746,1071.88 795.051,1070.46 799.228,1068.66 816.3,1060.36 822.636,1056.99 834.541,1051.08 837.564,1049.65 840.539,1048.25 847.232,1044.69 855.668,1040.47 855.97,1040.3 860.124,1037.99 863.402,1036.23 868.293,1033.7 876.442,1029.68 895.704,1020.79 898.562,1019.52 910.547,1014.26 910.963,1014.08 919.28,1010.48 945.776,997.848 950.207,995.863 956.309,992.711 975.929,982.256 986.65,977.142 986.836,977.056 992.596,974.409 995.627,973.037 1009.87,966.722 1026.68,959.448 1051.1,949.029 1063.9,943.6 1064.63,943.291 1076.41,938.302 1081.51,936.146 1081.64,936.091 1082.58,935.692 1083.41,935.343 1087.55,933.59 1091.72,931.829 1094.54,930.414 1097.62,928.893 1101.72,926.921 1104.05,925.818 1106.24,924.788 1111.42,922.01 1114.12,920.608 1117.11,918.856 1126.62,913.659 1136.52,908.003 1143.31,904.444 1150.51,900.35 1151.17,899.938 1151.57,899.687 1156.13,896.944 1159.6,894.958 1179.11,884.915 1188.11,880.685 1192.64,878.614 1208.6,870.556 1212.74,868.593 1223.96,863.441 1225.78,862.475 1257.01,847.542 1264.87,844.052 1274.84,839.696 1279.04,837.555 1292.09,831.259 1305.45,825.172 1308.02,823.825 1315.63,819.986 1317.84,818.906 1321.63,816.795 1324.25,815.383 1348.94,803.315 1352.01,801.912 1355.09,800.52 1358.72,798.61 1365.01,794.971 1374.46,789.936 1377.93,787.914 1384.31,784.403 1385.82,783.478 1388.23,781.847 1388.25,781.834 1399.76,774.06 1407.68,769.43 1410.08,767.915 1412.61,766.374 1415.94,764.424 1421.87,760.691 1438.59,750.512 1441.47,748.725 1446.96,745.101 1450.23,743.081 1451.31,742.344 1457.06,738.634 1460.21,736.731 1463.07,735.068 1466.29,733.006 1468.8,731.469 1474.09,728.384 1485.48,722.301 1487.07,721.371 1493.98,717.513 1505.76,711.477 1507.01,710.867 1507.48,710.599 1508.55,709.997 1512.52,707.81 1520.61,703.036 1524.1,701.108 1527.1,699.51 1529.09,698.307 1533.87,695.18 1544.8,688.776 1546.97,687.423 1550.05,685.329 1550.12,685.283 1586.02,665.845 1587.28,665.256 1594.57,661.898 1604.3,657.532 1606.13,656.719 1610.38,654.851 1613.85,653.061 1614.11,652.931 1617.83,651.069 1618.98,650.405 1633.69,641.685 1638.02,639.386 1650.78,633.034 1654.12,631.453 1661.05,627.734 1684.01,616.65 1687.6,615.015 1688.89,614.434 1711.26,604.597 1711.82,604.308 1713.82,603.123 1715.72,602.029 1738.58,590.255 1747.71,585.366 1759.8,579.41 1771.4,574.031 1786.78,567.187 1791.84,564.979 1801.5,560.797 1814.48,555.236 1831.78,547.873 1839.69,544.521 1841.35,543.679 1843.91,542.406 1852.02,538.501 1858.46,535.029 1864.84,531.778 1871.46,528.552 1872.72,527.952 1874.3,527.203 1896,517.36 1917.76,507.91 1926.2,503.704 1927.97,502.848 1947.84,493.697 1951.39,492.121 1959.18,488.7 1959.43,488.588 1967.49,485.088 1968.22,484.773 1973.78,482.379 1975.21,481.765 1979.55,479.906 1982.59,478.604 1987.57,476.478 1990.42,475.264 2004.88,469.121 2005.97,468.658 2009.68,467.086 2010.46,466.691 2017.76,463.091 2026.1,459.15 2034.41,455.355 2037.46,453.99 2052.63,447.312 2053.54,446.915 2058.35,444.833 2082.57,434.46 2089.15,431.663 2091.5,430.476 2106.35,423.357 2117.16,418.449 2127.06,413.393 2153.38,399.894 2160.47,396.613 2165.06,394.53 2165.98,394.039 2166.32,393.831 2173.98,388.823 2182,384.127 2183.47,383.315 2196.92,376.355 2205.05,371.872 2214.31,366.516 2214.43,366.438 2219.5,363.346 2226.19,359.071 2230.98,356.248 2236.79,353.026 2241.57,350.509 2245.03,348.749 2245.9,348.316 2259.51,340.927 2260.65,340.35 2261.87,339.633 2269.97,334.56 2270.86,334.039 2272,333.284 2288.5,322.597 2296.28,318.315 2305.83,313.452 2308.83,311.989 2313.89,309.574 2321.85,305.323 2341.99,295.584 2352.76,289.995 "/>
<path clip-path="url(#clip480)" d="M214.431 663.349 L554.896 663.349 L554.896 93.1086 L214.431 93.1086  Z" fill="#ffffff" fill-rule="evenodd" fill-opacity="1"/>
<polyline clip-path="url(#clip480)" style="stroke:#000000; stroke-linecap:round; stroke-linejoin:round; stroke-width:4; stroke-opacity:1; fill:none" points="214.431,663.349 554.896,663.349 554.896,93.1086 214.431,93.1086 214.431,663.349 "/>
<polyline clip-path="url(#clip480)" style="stroke:#009af9; stroke-linecap:round; stroke-linejoin:round; stroke-width:4; stroke-opacity:1; fill:none" points="239.009,144.949 386.48,144.949 "/>
<path clip-path="url(#clip480)" d="M411.058 151.997 L411.058 136.303 L415.318 136.303 L415.318 151.835 Q415.318 155.516 416.753 157.368 Q418.188 159.196 421.058 159.196 Q424.507 159.196 426.498 156.997 Q428.512 154.798 428.512 151.002 L428.512 136.303 L432.771 136.303 L432.771 162.229 L428.512 162.229 L428.512 158.247 Q426.961 160.608 424.901 161.766 Q422.864 162.9 420.156 162.9 Q415.688 162.9 413.373 160.122 Q411.058 157.344 411.058 151.997 M421.776 135.678 L421.776 135.678 Z" fill="#000000" fill-rule="nonzero" fill-opacity="1" /><path clip-path="url(#clip480)" d="M441.151 126.21 L450.966 126.21 L450.966 129.52 L445.41 129.52 L445.41 165.168 L450.966 165.168 L450.966 168.479 L441.151 168.479 L441.151 126.21 Z" fill="#000000" fill-rule="nonzero" fill-opacity="1" /><path clip-path="url(#clip480)" d="M461.452 158.293 L469.091 158.293 L469.091 131.928 L460.78 133.595 L460.78 129.335 L469.044 127.669 L473.72 127.669 L473.72 158.293 L481.359 158.293 L481.359 162.229 L461.452 162.229 L461.452 158.293 Z" fill="#000000" fill-rule="nonzero" fill-opacity="1" /><path clip-path="url(#clip480)" d="M500.155 126.21 L500.155 168.479 L490.34 168.479 L490.34 165.168 L495.873 165.168 L495.873 129.52 L490.34 129.52 L490.34 126.21 L500.155 126.21 Z" fill="#000000" fill-rule="nonzero" fill-opacity="1" /><polyline clip-path="url(#clip480)" style="stroke:#e26f46; stroke-linecap:round; stroke-linejoin:round; stroke-width:4; stroke-opacity:1; fill:none" points="239.009,196.789 386.48,196.789 "/>
<path clip-path="url(#clip480)" d="M411.058 203.837 L411.058 188.143 L415.318 188.143 L415.318 203.675 Q415.318 207.356 416.753 209.208 Q418.188 211.036 421.058 211.036 Q424.507 211.036 426.498 208.837 Q428.512 206.638 428.512 202.842 L428.512 188.143 L432.771 188.143 L432.771 214.069 L428.512 214.069 L428.512 210.087 Q426.961 212.448 424.901 213.606 Q422.864 214.74 420.156 214.74 Q415.688 214.74 413.373 211.962 Q411.058 209.184 411.058 203.837 M421.776 187.518 L421.776 187.518 Z" fill="#000000" fill-rule="nonzero" fill-opacity="1" /><path clip-path="url(#clip480)" d="M441.151 178.05 L450.966 178.05 L450.966 181.36 L445.41 181.36 L445.41 217.008 L450.966 217.008 L450.966 220.319 L441.151 220.319 L441.151 178.05 Z" fill="#000000" fill-rule="nonzero" fill-opacity="1" /><path clip-path="url(#clip480)" d="M464.669 210.133 L480.989 210.133 L480.989 214.069 L459.044 214.069 L459.044 210.133 Q461.706 207.379 466.29 202.749 Q470.896 198.096 472.077 196.754 Q474.322 194.231 475.202 192.495 Q476.104 190.735 476.104 189.046 Q476.104 186.291 474.16 184.555 Q472.239 182.819 469.137 182.819 Q466.938 182.819 464.484 183.583 Q462.054 184.347 459.276 185.897 L459.276 181.175 Q462.1 180.041 464.554 179.462 Q467.007 178.884 469.044 178.884 Q474.415 178.884 477.609 181.569 Q480.803 184.254 480.803 188.745 Q480.803 190.874 479.993 192.796 Q479.206 194.694 477.1 197.286 Q476.521 197.958 473.419 201.175 Q470.317 204.37 464.669 210.133 Z" fill="#000000" fill-rule="nonzero" fill-opacity="1" /><path clip-path="url(#clip480)" d="M500.155 178.05 L500.155 220.319 L490.34 220.319 L490.34 217.008 L495.873 217.008 L495.873 181.36 L490.34 181.36 L490.34 178.05 L500.155 178.05 Z" fill="#000000" fill-rule="nonzero" fill-opacity="1" /><polyline clip-path="url(#clip480)" style="stroke:#3da44d; stroke-linecap:round; stroke-linejoin:round; stroke-width:4; stroke-opacity:1; fill:none" points="239.009,248.629 386.48,248.629 "/>
<path clip-path="url(#clip480)" d="M411.058 255.677 L411.058 239.983 L415.318 239.983 L415.318 255.515 Q415.318 259.196 416.753 261.048 Q418.188 262.876 421.058 262.876 Q424.507 262.876 426.498 260.677 Q428.512 258.478 428.512 254.682 L428.512 239.983 L432.771 239.983 L432.771 265.909 L428.512 265.909 L428.512 261.927 Q426.961 264.288 424.901 265.446 Q422.864 266.58 420.156 266.58 Q415.688 266.58 413.373 263.802 Q411.058 261.024 411.058 255.677 M421.776 239.358 L421.776 239.358 Z" fill="#000000" fill-rule="nonzero" fill-opacity="1" /><path clip-path="url(#clip480)" d="M441.151 229.89 L450.966 229.89 L450.966 233.2 L445.41 233.2 L445.41 268.848 L450.966 268.848 L450.966 272.159 L441.151 272.159 L441.151 229.89 Z" fill="#000000" fill-rule="nonzero" fill-opacity="1" /><path clip-path="url(#clip480)" d="M474.808 247.274 Q478.165 247.992 480.04 250.261 Q481.938 252.529 481.938 255.862 Q481.938 260.978 478.419 263.779 Q474.901 266.58 468.419 266.58 Q466.243 266.58 463.929 266.14 Q461.637 265.723 459.183 264.867 L459.183 260.353 Q461.128 261.487 463.442 262.066 Q465.757 262.645 468.28 262.645 Q472.679 262.645 474.97 260.909 Q477.285 259.173 477.285 255.862 Q477.285 252.807 475.132 251.094 Q473.003 249.358 469.183 249.358 L465.155 249.358 L465.155 245.515 L469.368 245.515 Q472.817 245.515 474.646 244.149 Q476.475 242.761 476.475 240.168 Q476.475 237.506 474.577 236.094 Q472.702 234.659 469.183 234.659 Q467.262 234.659 465.063 235.075 Q462.864 235.492 460.225 236.372 L460.225 232.205 Q462.887 231.464 465.202 231.094 Q467.54 230.724 469.6 230.724 Q474.924 230.724 478.026 233.154 Q481.128 235.562 481.128 239.682 Q481.128 242.552 479.484 244.543 Q477.841 246.511 474.808 247.274 Z" fill="#000000" fill-rule="nonzero" fill-opacity="1" /><path clip-path="url(#clip480)" d="M500.155 229.89 L500.155 272.159 L490.34 272.159 L490.34 268.848 L495.873 268.848 L495.873 233.2 L490.34 233.2 L490.34 229.89 L500.155 229.89 Z" fill="#000000" fill-rule="nonzero" fill-opacity="1" /><polyline clip-path="url(#clip480)" style="stroke:#c271d2; stroke-linecap:round; stroke-linejoin:round; stroke-width:4; stroke-opacity:1; fill:none" points="239.009,300.469 386.48,300.469 "/>
<path clip-path="url(#clip480)" d="M411.058 307.517 L411.058 291.823 L415.318 291.823 L415.318 307.355 Q415.318 311.036 416.753 312.888 Q418.188 314.716 421.058 314.716 Q424.507 314.716 426.498 312.517 Q428.512 310.318 428.512 306.522 L428.512 291.823 L432.771 291.823 L432.771 317.749 L428.512 317.749 L428.512 313.767 Q426.961 316.128 424.901 317.286 Q422.864 318.42 420.156 318.42 Q415.688 318.42 413.373 315.642 Q411.058 312.864 411.058 307.517 M421.776 291.198 L421.776 291.198 Z" fill="#000000" fill-rule="nonzero" fill-opacity="1" /><path clip-path="url(#clip480)" d="M441.151 281.73 L450.966 281.73 L450.966 285.04 L445.41 285.04 L445.41 320.688 L450.966 320.688 L450.966 323.999 L441.151 323.999 L441.151 281.73 Z" fill="#000000" fill-rule="nonzero" fill-opacity="1" /><path clip-path="url(#clip480)" d="M473.489 287.263 L461.683 305.712 L473.489 305.712 L473.489 287.263 M472.262 283.189 L478.141 283.189 L478.141 305.712 L483.072 305.712 L483.072 309.601 L478.141 309.601 L478.141 317.749 L473.489 317.749 L473.489 309.601 L457.887 309.601 L457.887 305.087 L472.262 283.189 Z" fill="#000000" fill-rule="nonzero" fill-opacity="1" /><path clip-path="url(#clip480)" d="M500.155 281.73 L500.155 323.999 L490.34 323.999 L490.34 320.688 L495.873 320.688 L495.873 285.04 L490.34 285.04 L490.34 281.73 L500.155 281.73 Z" fill="#000000" fill-rule="nonzero" fill-opacity="1" /><polyline clip-path="url(#clip480)" style="stroke:#ac8d18; stroke-linecap:round; stroke-linejoin:round; stroke-width:4; stroke-opacity:1; fill:none" points="239.009,352.309 386.48,352.309 "/>
<path clip-path="url(#clip480)" d="M411.058 359.357 L411.058 343.663 L415.318 343.663 L415.318 359.195 Q415.318 362.876 416.753 364.728 Q418.188 366.556 421.058 366.556 Q424.507 366.556 426.498 364.357 Q428.512 362.158 428.512 358.362 L428.512 343.663 L432.771 343.663 L432.771 369.589 L428.512 369.589 L428.512 365.607 Q426.961 367.968 424.901 369.126 Q422.864 370.26 420.156 370.26 Q415.688 370.26 413.373 367.482 Q411.058 364.704 411.058 359.357 M421.776 343.038 L421.776 343.038 Z" fill="#000000" fill-rule="nonzero" fill-opacity="1" /><path clip-path="url(#clip480)" d="M441.151 333.57 L450.966 333.57 L450.966 336.88 L445.41 336.88 L445.41 372.528 L450.966 372.528 L450.966 375.839 L441.151 375.839 L441.151 333.57 Z" fill="#000000" fill-rule="nonzero" fill-opacity="1" /><path clip-path="url(#clip480)" d="M460.688 335.029 L479.044 335.029 L479.044 338.964 L464.97 338.964 L464.97 347.436 Q465.989 347.089 467.007 346.927 Q468.026 346.742 469.044 346.742 Q474.831 346.742 478.211 349.913 Q481.591 353.084 481.591 358.501 Q481.591 364.079 478.118 367.181 Q474.646 370.26 468.327 370.26 Q466.151 370.26 463.882 369.89 Q461.637 369.519 459.23 368.778 L459.23 364.079 Q461.313 365.214 463.535 365.769 Q465.757 366.325 468.234 366.325 Q472.239 366.325 474.577 364.218 Q476.915 362.112 476.915 358.501 Q476.915 354.89 474.577 352.783 Q472.239 350.677 468.234 350.677 Q466.359 350.677 464.484 351.093 Q462.632 351.51 460.688 352.39 L460.688 335.029 Z" fill="#000000" fill-rule="nonzero" fill-opacity="1" /><path clip-path="url(#clip480)" d="M500.155 333.57 L500.155 375.839 L490.34 375.839 L490.34 372.528 L495.873 372.528 L495.873 336.88 L490.34 336.88 L490.34 333.57 L500.155 333.57 Z" fill="#000000" fill-rule="nonzero" fill-opacity="1" /><polyline clip-path="url(#clip480)" style="stroke:#00a9ad; stroke-linecap:round; stroke-linejoin:round; stroke-width:4; stroke-opacity:1; fill:none" points="239.009,404.149 386.48,404.149 "/>
<path clip-path="url(#clip480)" d="M411.058 411.197 L411.058 395.503 L415.318 395.503 L415.318 411.035 Q415.318 414.716 416.753 416.568 Q418.188 418.396 421.058 418.396 Q424.507 418.396 426.498 416.197 Q428.512 413.998 428.512 410.202 L428.512 395.503 L432.771 395.503 L432.771 421.429 L428.512 421.429 L428.512 417.447 Q426.961 419.808 424.901 420.966 Q422.864 422.1 420.156 422.1 Q415.688 422.1 413.373 419.322 Q411.058 416.544 411.058 411.197 M421.776 394.878 L421.776 394.878 Z" fill="#000000" fill-rule="nonzero" fill-opacity="1" /><path clip-path="url(#clip480)" d="M441.151 385.41 L450.966 385.41 L450.966 388.72 L445.41 388.72 L445.41 424.368 L450.966 424.368 L450.966 427.679 L441.151 427.679 L441.151 385.41 Z" fill="#000000" fill-rule="nonzero" fill-opacity="1" /><path clip-path="url(#clip480)" d="M471.22 402.285 Q468.072 402.285 466.22 404.438 Q464.392 406.591 464.392 410.341 Q464.392 414.068 466.22 416.243 Q468.072 418.396 471.22 418.396 Q474.368 418.396 476.197 416.243 Q478.049 414.068 478.049 410.341 Q478.049 406.591 476.197 404.438 Q474.368 402.285 471.22 402.285 M480.503 387.633 L480.503 391.892 Q478.743 391.058 476.938 390.619 Q475.155 390.179 473.396 390.179 Q468.766 390.179 466.313 393.304 Q463.882 396.429 463.535 402.748 Q464.901 400.734 466.961 399.669 Q469.021 398.582 471.498 398.582 Q476.706 398.582 479.716 401.753 Q482.748 404.901 482.748 410.341 Q482.748 415.665 479.6 418.882 Q476.452 422.1 471.22 422.1 Q465.225 422.1 462.054 417.517 Q458.882 412.91 458.882 404.183 Q458.882 395.989 462.771 391.128 Q466.66 386.244 473.211 386.244 Q474.97 386.244 476.753 386.591 Q478.558 386.938 480.503 387.633 Z" fill="#000000" fill-rule="nonzero" fill-opacity="1" /><path clip-path="url(#clip480)" d="M500.155 385.41 L500.155 427.679 L490.34 427.679 L490.34 424.368 L495.873 424.368 L495.873 388.72 L490.34 388.72 L490.34 385.41 L500.155 385.41 Z" fill="#000000" fill-rule="nonzero" fill-opacity="1" /><polyline clip-path="url(#clip480)" style="stroke:#ed5d92; stroke-linecap:round; stroke-linejoin:round; stroke-width:4; stroke-opacity:1; fill:none" points="239.009,455.989 386.48,455.989 "/>
<path clip-path="url(#clip480)" d="M411.058 463.037 L411.058 447.343 L415.318 447.343 L415.318 462.875 Q415.318 466.556 416.753 468.408 Q418.188 470.236 421.058 470.236 Q424.507 470.236 426.498 468.037 Q428.512 465.838 428.512 462.042 L428.512 447.343 L432.771 447.343 L432.771 473.269 L428.512 473.269 L428.512 469.287 Q426.961 471.648 424.901 472.806 Q422.864 473.94 420.156 473.94 Q415.688 473.94 413.373 471.162 Q411.058 468.384 411.058 463.037 M421.776 446.718 L421.776 446.718 Z" fill="#000000" fill-rule="nonzero" fill-opacity="1" /><path clip-path="url(#clip480)" d="M441.151 437.25 L450.966 437.25 L450.966 440.56 L445.41 440.56 L445.41 476.208 L450.966 476.208 L450.966 479.519 L441.151 479.519 L441.151 437.25 Z" fill="#000000" fill-rule="nonzero" fill-opacity="1" /><path clip-path="url(#clip480)" d="M459.461 438.709 L481.683 438.709 L481.683 440.699 L469.137 473.269 L464.253 473.269 L476.058 442.644 L459.461 442.644 L459.461 438.709 Z" fill="#000000" fill-rule="nonzero" fill-opacity="1" /><path clip-path="url(#clip480)" d="M500.155 437.25 L500.155 479.519 L490.34 479.519 L490.34 476.208 L495.873 476.208 L495.873 440.56 L490.34 440.56 L490.34 437.25 L500.155 437.25 Z" fill="#000000" fill-rule="nonzero" fill-opacity="1" /><polyline clip-path="url(#clip480)" style="stroke:#c68125; stroke-linecap:round; stroke-linejoin:round; stroke-width:4; stroke-opacity:1; fill:none" points="239.009,507.829 386.48,507.829 "/>
<path clip-path="url(#clip480)" d="M411.058 514.877 L411.058 499.183 L415.318 499.183 L415.318 514.715 Q415.318 518.396 416.753 520.248 Q418.188 522.076 421.058 522.076 Q424.507 522.076 426.498 519.877 Q428.512 517.678 428.512 513.882 L428.512 499.183 L432.771 499.183 L432.771 525.109 L428.512 525.109 L428.512 521.127 Q426.961 523.488 424.901 524.646 Q422.864 525.78 420.156 525.78 Q415.688 525.78 413.373 523.002 Q411.058 520.224 411.058 514.877 M421.776 498.558 L421.776 498.558 Z" fill="#000000" fill-rule="nonzero" fill-opacity="1" /><path clip-path="url(#clip480)" d="M441.151 489.09 L450.966 489.09 L450.966 492.4 L445.41 492.4 L445.41 528.048 L450.966 528.048 L450.966 531.359 L441.151 531.359 L441.151 489.09 Z" fill="#000000" fill-rule="nonzero" fill-opacity="1" /><path clip-path="url(#clip480)" d="M470.641 508.697 Q467.308 508.697 465.387 510.479 Q463.489 512.261 463.489 515.386 Q463.489 518.511 465.387 520.294 Q467.308 522.076 470.641 522.076 Q473.975 522.076 475.896 520.294 Q477.817 518.488 477.817 515.386 Q477.817 512.261 475.896 510.479 Q473.998 508.697 470.641 508.697 M465.966 506.706 Q462.956 505.965 461.267 503.905 Q459.6 501.845 459.6 498.882 Q459.6 494.738 462.54 492.331 Q465.503 489.924 470.641 489.924 Q475.803 489.924 478.743 492.331 Q481.683 494.738 481.683 498.882 Q481.683 501.845 479.993 503.905 Q478.327 505.965 475.341 506.706 Q478.72 507.493 480.595 509.785 Q482.493 512.076 482.493 515.386 Q482.493 520.41 479.415 523.095 Q476.359 525.78 470.641 525.78 Q464.924 525.78 461.845 523.095 Q458.79 520.41 458.79 515.386 Q458.79 512.076 460.688 509.785 Q462.586 507.493 465.966 506.706 M464.253 499.322 Q464.253 502.007 465.919 503.512 Q467.609 505.016 470.641 505.016 Q473.651 505.016 475.341 503.512 Q477.053 502.007 477.053 499.322 Q477.053 496.637 475.341 495.132 Q473.651 493.627 470.641 493.627 Q467.609 493.627 465.919 495.132 Q464.253 496.637 464.253 499.322 Z" fill="#000000" fill-rule="nonzero" fill-opacity="1" /><path clip-path="url(#clip480)" d="M500.155 489.09 L500.155 531.359 L490.34 531.359 L490.34 528.048 L495.873 528.048 L495.873 492.4 L490.34 492.4 L490.34 489.09 L500.155 489.09 Z" fill="#000000" fill-rule="nonzero" fill-opacity="1" /><polyline clip-path="url(#clip480)" style="stroke:#00a98d; stroke-linecap:round; stroke-linejoin:round; stroke-width:4; stroke-opacity:1; fill:none" points="239.009,559.669 386.48,559.669 "/>
<path clip-path="url(#clip480)" d="M411.058 566.717 L411.058 551.023 L415.318 551.023 L415.318 566.555 Q415.318 570.236 416.753 572.088 Q418.188 573.916 421.058 573.916 Q424.507 573.916 426.498 571.717 Q428.512 569.518 428.512 565.722 L428.512 551.023 L432.771 551.023 L432.771 576.949 L428.512 576.949 L428.512 572.967 Q426.961 575.328 424.901 576.486 Q422.864 577.62 420.156 577.62 Q415.688 577.62 413.373 574.842 Q411.058 572.064 411.058 566.717 M421.776 550.398 L421.776 550.398 Z" fill="#000000" fill-rule="nonzero" fill-opacity="1" /><path clip-path="url(#clip480)" d="M441.151 540.93 L450.966 540.93 L450.966 544.24 L445.41 544.24 L445.41 579.888 L450.966 579.888 L450.966 583.199 L441.151 583.199 L441.151 540.93 Z" fill="#000000" fill-rule="nonzero" fill-opacity="1" /><path clip-path="url(#clip480)" d="M460.78 576.231 L460.78 571.972 Q462.54 572.805 464.345 573.245 Q466.151 573.685 467.887 573.685 Q472.516 573.685 474.947 570.583 Q477.401 567.458 477.748 561.115 Q476.405 563.106 474.345 564.171 Q472.285 565.236 469.785 565.236 Q464.6 565.236 461.567 562.111 Q458.558 558.963 458.558 553.523 Q458.558 548.199 461.706 544.981 Q464.854 541.764 470.086 541.764 Q476.081 541.764 479.229 546.37 Q482.401 550.953 482.401 559.703 Q482.401 567.875 478.512 572.759 Q474.646 577.62 468.095 577.62 Q466.336 577.62 464.53 577.273 Q462.725 576.925 460.78 576.231 M470.086 561.578 Q473.234 561.578 475.063 559.426 Q476.915 557.273 476.915 553.523 Q476.915 549.796 475.063 547.643 Q473.234 545.467 470.086 545.467 Q466.938 545.467 465.086 547.643 Q463.257 549.796 463.257 553.523 Q463.257 557.273 465.086 559.426 Q466.938 561.578 470.086 561.578 Z" fill="#000000" fill-rule="nonzero" fill-opacity="1" /><path clip-path="url(#clip480)" d="M500.155 540.93 L500.155 583.199 L490.34 583.199 L490.34 579.888 L495.873 579.888 L495.873 544.24 L490.34 544.24 L490.34 540.93 L500.155 540.93 Z" fill="#000000" fill-rule="nonzero" fill-opacity="1" /><polyline clip-path="url(#clip480)" style="stroke:#8e971d; stroke-linecap:round; stroke-linejoin:round; stroke-width:4; stroke-opacity:1; fill:none" points="239.009,611.509 386.48,611.509 "/>
<path clip-path="url(#clip480)" d="M411.058 618.557 L411.058 602.863 L415.318 602.863 L415.318 618.395 Q415.318 622.076 416.753 623.928 Q418.188 625.756 421.058 625.756 Q424.507 625.756 426.498 623.557 Q428.512 621.358 428.512 617.562 L428.512 602.863 L432.771 602.863 L432.771 628.789 L428.512 628.789 L428.512 624.807 Q426.961 627.168 424.901 628.326 Q422.864 629.46 420.156 629.46 Q415.688 629.46 413.373 626.682 Q411.058 623.904 411.058 618.557 M421.776 602.238 L421.776 602.238 Z" fill="#000000" fill-rule="nonzero" fill-opacity="1" /><path clip-path="url(#clip480)" d="M441.151 592.77 L450.966 592.77 L450.966 596.08 L445.41 596.08 L445.41 631.728 L450.966 631.728 L450.966 635.039 L441.151 635.039 L441.151 592.77 Z" fill="#000000" fill-rule="nonzero" fill-opacity="1" /><path clip-path="url(#clip480)" d="M461.452 624.853 L469.091 624.853 L469.091 598.488 L460.78 600.155 L460.78 595.895 L469.044 594.229 L473.72 594.229 L473.72 624.853 L481.359 624.853 L481.359 628.789 L461.452 628.789 L461.452 624.853 Z" fill="#000000" fill-rule="nonzero" fill-opacity="1" /><path clip-path="url(#clip480)" d="M500.803 597.307 Q497.192 597.307 495.364 600.872 Q493.558 604.414 493.558 611.543 Q493.558 618.65 495.364 622.215 Q497.192 625.756 500.803 625.756 Q504.438 625.756 506.243 622.215 Q508.072 618.65 508.072 611.543 Q508.072 604.414 506.243 600.872 Q504.438 597.307 500.803 597.307 M500.803 593.604 Q506.614 593.604 509.669 598.21 Q512.748 602.793 512.748 611.543 Q512.748 620.27 509.669 624.877 Q506.614 629.46 500.803 629.46 Q494.993 629.46 491.915 624.877 Q488.859 620.27 488.859 611.543 Q488.859 602.793 491.915 598.21 Q494.993 593.604 500.803 593.604 Z" fill="#000000" fill-rule="nonzero" fill-opacity="1" /><path clip-path="url(#clip480)" d="M530.317 592.77 L530.317 635.039 L520.502 635.039 L520.502 631.728 L526.035 631.728 L526.035 596.08 L520.502 596.08 L520.502 592.77 L530.317 592.77 Z" fill="#000000" fill-rule="nonzero" fill-opacity="1" /></svg>
