<?xml version="1.0" encoding="utf-8"?>
<svg xmlns="http://www.w3.org/2000/svg" xmlns:xlink="http://www.w3.org/1999/xlink" width="600" height="400" viewBox="0 0 2400 1600">
<defs>
  <clipPath id="clip400">
    <rect x="0" y="0" width="2400" height="1600"/>
  </clipPath>
</defs>
<path clip-path="url(#clip400)" d="M0 1600 L2400 1600 L2400 0 L0 0  Z" fill="#ffffff" fill-rule="evenodd" fill-opacity="1"/>
<defs>
  <clipPath id="clip401">
    <rect x="480" y="0" width="1681" height="1600"/>
  </clipPath>
</defs>
<path clip-path="url(#clip400)" d="M138.959 1423.18 L2352.76 1423.18 L2352.76 47.2441 L138.959 47.2441  Z" fill="#ffffff" fill-rule="evenodd" fill-opacity="1"/>
<defs>
  <clipPath id="clip402">
    <rect x="138" y="47" width="2215" height="1377"/>
  </clipPath>
</defs>
<polyline clip-path="url(#clip402)" style="stroke:#000000; stroke-linecap:round; stroke-linejoin:round; stroke-width:2; stroke-opacity:0.1; fill:none" points="138.959,1423.18 138.959,47.2441 "/>
<polyline clip-path="url(#clip402)" style="stroke:#000000; stroke-linecap:round; stroke-linejoin:round; stroke-width:2; stroke-opacity:0.1; fill:none" points="581.719,1423.18 581.719,47.2441 "/>
<polyline clip-path="url(#clip402)" style="stroke:#000000; stroke-linecap:round; stroke-linejoin:round; stroke-width:2; stroke-opacity:0.1; fill:none" points="1024.48,1423.18 1024.48,47.2441 "/>
<polyline clip-path="url(#clip402)" style="stroke:#000000; stroke-linecap:round; stroke-linejoin:round; stroke-width:2; stroke-opacity:0.1; fill:none" points="1467.24,1423.18 1467.24,47.2441 "/>
<polyline clip-path="url(#clip402)" style="stroke:#000000; stroke-linecap:round; stroke-linejoin:round; stroke-width:2; stroke-opacity:0.1; fill:none" points="1910,1423.18 1910,47.2441 "/>
<polyline clip-path="url(#clip402)" style="stroke:#000000; stroke-linecap:round; stroke-linejoin:round; stroke-width:2; stroke-opacity:0.1; fill:none" points="2352.76,1423.18 2352.76,47.2441 "/>
<polyline clip-path="url(#clip400)" style="stroke:#000000; stroke-linecap:round; stroke-linejoin:round; stroke-width:4; stroke-opacity:1; fill:none" points="138.959,1423.18 2352.76,1423.18 "/>
<polyline clip-path="url(#clip400)" style="stroke:#000000; stroke-linecap:round; stroke-linejoin:round; stroke-width:4; stroke-opacity:1; fill:none" points="138.959,1423.18 138.959,1404.28 "/>
<polyline clip-path="url(#clip400)" style="stroke:#000000; stroke-linecap:round; stroke-linejoin:round; stroke-width:4; stroke-opacity:1; fill:none" points="581.719,1423.18 581.719,1404.28 "/>
<polyline clip-path="url(#clip400)" style="stroke:#000000; stroke-linecap:round; stroke-linejoin:round; stroke-width:4; stroke-opacity:1; fill:none" points="1024.48,1423.18 1024.48,1404.28 "/>
<polyline clip-path="url(#clip400)" style="stroke:#000000; stroke-linecap:round; stroke-linejoin:round; stroke-width:4; stroke-opacity:1; fill:none" points="1467.24,1423.18 1467.24,1404.28 "/>
<polyline clip-path="url(#clip400)" style="stroke:#000000; stroke-linecap:round; stroke-linejoin:round; stroke-width:4; stroke-opacity:1; fill:none" points="1910,1423.18 1910,1404.28 "/>
<polyline clip-path="url(#clip400)" style="stroke:#000000; stroke-linecap:round; stroke-linejoin:round; stroke-width:4; stroke-opacity:1; fill:none" points="2352.76,1423.18 2352.76,1404.28 "/>
<path clip-path="url(#clip400)" d="M138.959 1454.1 Q135.348 1454.1 133.52 1457.66 Q131.714 1461.2 131.714 1468.33 Q131.714 1475.44 133.52 1479.01 Q135.348 1482.55 138.959 1482.55 Q142.594 1482.55 144.399 1479.01 Q146.228 1475.44 146.228 1468.33 Q146.228 1461.2 144.399 1457.66 Q142.594 1454.1 138.959 1454.1 M138.959 1450.39 Q144.77 1450.39 147.825 1455 Q150.904 1459.58 150.904 1468.33 Q150.904 1477.06 147.825 1481.67 Q144.77 1486.25 138.959 1486.25 Q133.149 1486.25 130.071 1481.67 Q127.015 1477.06 127.015 1468.33 Q127.015 1459.58 130.071 1455 Q133.149 1450.39 138.959 1450.39 Z" fill="#000000" fill-rule="nonzero" fill-opacity="1" /><path clip-path="url(#clip400)" d="M576.372 1481.64 L592.691 1481.64 L592.691 1485.58 L570.747 1485.58 L570.747 1481.64 Q573.409 1478.89 577.992 1474.26 Q582.598 1469.61 583.779 1468.27 Q586.024 1465.74 586.904 1464.01 Q587.807 1462.25 587.807 1460.56 Q587.807 1457.8 585.862 1456.07 Q583.941 1454.33 580.839 1454.33 Q578.64 1454.33 576.186 1455.09 Q573.756 1455.86 570.978 1457.41 L570.978 1452.69 Q573.802 1451.55 576.256 1450.97 Q578.709 1450.39 580.747 1450.39 Q586.117 1450.39 589.311 1453.08 Q592.506 1455.77 592.506 1460.26 Q592.506 1462.39 591.696 1464.31 Q590.908 1466.2 588.802 1468.8 Q588.223 1469.47 585.121 1472.69 Q582.02 1475.88 576.372 1481.64 Z" fill="#000000" fill-rule="nonzero" fill-opacity="1" /><path clip-path="url(#clip400)" d="M1027.49 1455.09 L1015.68 1473.54 L1027.49 1473.54 L1027.49 1455.09 M1026.26 1451.02 L1032.14 1451.02 L1032.14 1473.54 L1037.07 1473.54 L1037.07 1477.43 L1032.14 1477.43 L1032.14 1485.58 L1027.49 1485.58 L1027.49 1477.43 L1011.89 1477.43 L1011.89 1472.92 L1026.26 1451.02 Z" fill="#000000" fill-rule="nonzero" fill-opacity="1" /><path clip-path="url(#clip400)" d="M1467.64 1466.44 Q1464.49 1466.44 1462.64 1468.59 Q1460.81 1470.74 1460.81 1474.49 Q1460.81 1478.22 1462.64 1480.39 Q1464.49 1482.55 1467.64 1482.55 Q1470.79 1482.55 1472.62 1480.39 Q1474.47 1478.22 1474.47 1474.49 Q1474.47 1470.74 1472.62 1468.59 Q1470.79 1466.44 1467.64 1466.44 M1476.92 1451.78 L1476.92 1456.04 Q1475.17 1455.21 1473.36 1454.77 Q1471.58 1454.33 1469.82 1454.33 Q1465.19 1454.33 1462.74 1457.45 Q1460.3 1460.58 1459.96 1466.9 Q1461.32 1464.89 1463.38 1463.82 Q1465.44 1462.73 1467.92 1462.73 Q1473.13 1462.73 1476.14 1465.9 Q1479.17 1469.05 1479.17 1474.49 Q1479.17 1479.82 1476.02 1483.03 Q1472.87 1486.25 1467.64 1486.25 Q1461.65 1486.25 1458.48 1481.67 Q1455.3 1477.06 1455.3 1468.33 Q1455.3 1460.14 1459.19 1455.28 Q1463.08 1450.39 1469.63 1450.39 Q1471.39 1450.39 1473.17 1450.74 Q1474.98 1451.09 1476.92 1451.78 Z" fill="#000000" fill-rule="nonzero" fill-opacity="1" /><path clip-path="url(#clip400)" d="M1910 1469.17 Q1906.66 1469.17 1904.74 1470.95 Q1902.84 1472.73 1902.84 1475.86 Q1902.84 1478.98 1904.74 1480.77 Q1906.66 1482.55 1910 1482.55 Q1913.33 1482.55 1915.25 1480.77 Q1917.17 1478.96 1917.17 1475.86 Q1917.17 1472.73 1915.25 1470.95 Q1913.35 1469.17 1910 1469.17 M1905.32 1467.18 Q1902.31 1466.44 1900.62 1464.38 Q1898.96 1462.32 1898.96 1459.35 Q1898.96 1455.21 1901.89 1452.8 Q1904.86 1450.39 1910 1450.39 Q1915.16 1450.39 1918.1 1452.8 Q1921.04 1455.21 1921.04 1459.35 Q1921.04 1462.32 1919.35 1464.38 Q1917.68 1466.44 1914.7 1467.18 Q1918.08 1467.96 1919.95 1470.26 Q1921.85 1472.55 1921.85 1475.86 Q1921.85 1480.88 1918.77 1483.57 Q1915.71 1486.25 1910 1486.25 Q1904.28 1486.25 1901.2 1483.57 Q1898.14 1480.88 1898.14 1475.86 Q1898.14 1472.55 1900.04 1470.26 Q1901.94 1467.96 1905.32 1467.18 M1903.61 1459.79 Q1903.61 1462.48 1905.27 1463.98 Q1906.96 1465.49 1910 1465.49 Q1913.01 1465.49 1914.7 1463.98 Q1916.41 1462.48 1916.41 1459.79 Q1916.41 1457.11 1914.7 1455.6 Q1913.01 1454.1 1910 1454.1 Q1906.96 1454.1 1905.27 1455.6 Q1903.61 1457.11 1903.61 1459.79 Z" fill="#000000" fill-rule="nonzero" fill-opacity="1" /><path clip-path="url(#clip400)" d="M2327.44 1481.64 L2335.08 1481.64 L2335.08 1455.28 L2326.77 1456.95 L2326.77 1452.69 L2335.04 1451.02 L2339.71 1451.02 L2339.71 1481.64 L2347.35 1481.64 L2347.35 1485.58 L2327.44 1485.58 L2327.44 1481.64 Z" fill="#000000" fill-rule="nonzero" fill-opacity="1" /><path clip-path="url(#clip400)" d="M2366.8 1454.1 Q2363.18 1454.1 2361.36 1457.66 Q2359.55 1461.2 2359.55 1468.33 Q2359.55 1475.44 2361.36 1479.01 Q2363.18 1482.55 2366.8 1482.55 Q2370.43 1482.55 2372.23 1479.01 Q2374.06 1475.44 2374.06 1468.33 Q2374.06 1461.2 2372.23 1457.66 Q2370.43 1454.1 2366.8 1454.1 M2366.8 1450.39 Q2372.61 1450.39 2375.66 1455 Q2378.74 1459.58 2378.74 1468.33 Q2378.74 1477.06 2375.66 1481.67 Q2372.61 1486.25 2366.8 1486.25 Q2360.99 1486.25 2357.91 1481.67 Q2354.85 1477.06 2354.85 1468.33 Q2354.85 1459.58 2357.91 1455 Q2360.99 1450.39 2366.8 1450.39 Z" fill="#000000" fill-rule="nonzero" fill-opacity="1" /><path clip-path="url(#clip400)" d="M1244.92 1522.27 L1244.92 1532.4 L1256.98 1532.4 L1256.98 1536.95 L1244.92 1536.95 L1244.92 1556.3 Q1244.92 1560.66 1246.1 1561.9 Q1247.31 1563.14 1250.97 1563.14 L1256.98 1563.14 L1256.98 1568.04 L1250.97 1568.04 Q1244.19 1568.04 1241.61 1565.53 Q1239.03 1562.98 1239.03 1556.3 L1239.03 1536.95 L1234.73 1536.95 L1234.73 1532.4 L1239.03 1532.4 L1239.03 1522.27 L1244.92 1522.27 Z" fill="#000000" fill-rule="nonzero" fill-opacity="1" /><polyline clip-path="url(#clip402)" style="stroke:#000000; stroke-linecap:round; stroke-linejoin:round; stroke-width:2; stroke-opacity:0.1; fill:none" points="138.959,1384.24 2352.76,1384.24 "/>
<polyline clip-path="url(#clip402)" style="stroke:#000000; stroke-linecap:round; stroke-linejoin:round; stroke-width:2; stroke-opacity:0.1; fill:none" points="138.959,1184.54 2352.76,1184.54 "/>
<polyline clip-path="url(#clip402)" style="stroke:#000000; stroke-linecap:round; stroke-linejoin:round; stroke-width:2; stroke-opacity:0.1; fill:none" points="138.959,984.837 2352.76,984.837 "/>
<polyline clip-path="url(#clip402)" style="stroke:#000000; stroke-linecap:round; stroke-linejoin:round; stroke-width:2; stroke-opacity:0.1; fill:none" points="138.959,785.137 2352.76,785.137 "/>
<polyline clip-path="url(#clip402)" style="stroke:#000000; stroke-linecap:round; stroke-linejoin:round; stroke-width:2; stroke-opacity:0.1; fill:none" points="138.959,585.437 2352.76,585.437 "/>
<polyline clip-path="url(#clip402)" style="stroke:#000000; stroke-linecap:round; stroke-linejoin:round; stroke-width:2; stroke-opacity:0.1; fill:none" points="138.959,385.736 2352.76,385.736 "/>
<polyline clip-path="url(#clip402)" style="stroke:#000000; stroke-linecap:round; stroke-linejoin:round; stroke-width:2; stroke-opacity:0.1; fill:none" points="138.959,186.036 2352.76,186.036 "/>
<polyline clip-path="url(#clip400)" style="stroke:#000000; stroke-linecap:round; stroke-linejoin:round; stroke-width:4; stroke-opacity:1; fill:none" points="138.959,1423.18 138.959,47.2441 "/>
<polyline clip-path="url(#clip400)" style="stroke:#000000; stroke-linecap:round; stroke-linejoin:round; stroke-width:4; stroke-opacity:1; fill:none" points="138.959,1384.24 157.857,1384.24 "/>
<polyline clip-path="url(#clip400)" style="stroke:#000000; stroke-linecap:round; stroke-linejoin:round; stroke-width:4; stroke-opacity:1; fill:none" points="138.959,1184.54 157.857,1184.54 "/>
<polyline clip-path="url(#clip400)" style="stroke:#000000; stroke-linecap:round; stroke-linejoin:round; stroke-width:4; stroke-opacity:1; fill:none" points="138.959,984.837 157.857,984.837 "/>
<polyline clip-path="url(#clip400)" style="stroke:#000000; stroke-linecap:round; stroke-linejoin:round; stroke-width:4; stroke-opacity:1; fill:none" points="138.959,785.137 157.857,785.137 "/>
<polyline clip-path="url(#clip400)" style="stroke:#000000; stroke-linecap:round; stroke-linejoin:round; stroke-width:4; stroke-opacity:1; fill:none" points="138.959,585.437 157.857,585.437 "/>
<polyline clip-path="url(#clip400)" style="stroke:#000000; stroke-linecap:round; stroke-linejoin:round; stroke-width:4; stroke-opacity:1; fill:none" points="138.959,385.736 157.857,385.736 "/>
<polyline clip-path="url(#clip400)" style="stroke:#000000; stroke-linecap:round; stroke-linejoin:round; stroke-width:4; stroke-opacity:1; fill:none" points="138.959,186.036 157.857,186.036 "/>
<path clip-path="url(#clip400)" d="M91.0151 1370.04 Q87.404 1370.04 85.5753 1373.6 Q83.7697 1377.14 83.7697 1384.27 Q83.7697 1391.38 85.5753 1394.94 Q87.404 1398.49 91.0151 1398.49 Q94.6493 1398.49 96.4548 1394.94 Q98.2835 1391.38 98.2835 1384.27 Q98.2835 1377.14 96.4548 1373.6 Q94.6493 1370.04 91.0151 1370.04 M91.0151 1366.33 Q96.8252 1366.33 99.8808 1370.94 Q102.959 1375.52 102.959 1384.27 Q102.959 1393 99.8808 1397.61 Q96.8252 1402.19 91.0151 1402.19 Q85.2049 1402.19 82.1262 1397.61 Q79.0707 1393 79.0707 1384.27 Q79.0707 1375.52 82.1262 1370.94 Q85.2049 1366.33 91.0151 1366.33 Z" fill="#000000" fill-rule="nonzero" fill-opacity="1" /><path clip-path="url(#clip400)" d="M86.6401 1197.88 L102.959 1197.88 L102.959 1201.82 L81.0151 1201.82 L81.0151 1197.88 Q83.6771 1195.13 88.2604 1190.5 Q92.8669 1185.85 94.0475 1184.5 Q96.2928 1181.98 97.1724 1180.24 Q98.0752 1178.48 98.0752 1176.79 Q98.0752 1174.04 96.1308 1172.3 Q94.2095 1170.57 91.1077 1170.57 Q88.9086 1170.57 86.4549 1171.33 Q84.0244 1172.1 81.2466 1173.65 L81.2466 1168.92 Q84.0707 1167.79 86.5243 1167.21 Q88.978 1166.63 91.0151 1166.63 Q96.3854 1166.63 99.5798 1169.32 Q102.774 1172 102.774 1176.49 Q102.774 1178.62 101.964 1180.54 Q101.177 1182.44 99.0706 1185.04 Q98.4919 1185.71 95.39 1188.92 Q92.2882 1192.12 86.6401 1197.88 Z" fill="#000000" fill-rule="nonzero" fill-opacity="1" /><path clip-path="url(#clip400)" d="M93.3762 971.632 L81.5707 990.08 L93.3762 990.08 L93.3762 971.632 M92.1493 967.557 L98.0289 967.557 L98.0289 990.08 L102.959 990.08 L102.959 993.969 L98.0289 993.969 L98.0289 1002.12 L93.3762 1002.12 L93.3762 993.969 L77.7744 993.969 L77.7744 989.455 L92.1493 967.557 Z" fill="#000000" fill-rule="nonzero" fill-opacity="1" /><path clip-path="url(#clip400)" d="M91.4317 783.274 Q88.2836 783.274 86.4318 785.426 Q84.6031 787.579 84.6031 791.329 Q84.6031 795.056 86.4318 797.232 Q88.2836 799.385 91.4317 799.385 Q94.5799 799.385 96.4085 797.232 Q98.2604 795.056 98.2604 791.329 Q98.2604 787.579 96.4085 785.426 Q94.5799 783.274 91.4317 783.274 M100.714 768.621 L100.714 772.88 Q98.9548 772.047 97.1493 771.607 Q95.3669 771.167 93.6076 771.167 Q88.978 771.167 86.5243 774.292 Q84.0938 777.417 83.7466 783.737 Q85.1123 781.723 87.1725 780.658 Q89.2327 779.57 91.7095 779.57 Q96.9178 779.57 99.927 782.741 Q102.959 785.889 102.959 791.329 Q102.959 796.653 99.8113 799.871 Q96.6632 803.088 91.4317 803.088 Q85.4364 803.088 82.2651 798.505 Q79.0938 793.899 79.0938 785.172 Q79.0938 776.977 82.9827 772.116 Q86.8716 767.232 93.4225 767.232 Q95.1817 767.232 96.9641 767.579 Q98.7696 767.927 100.714 768.621 Z" fill="#000000" fill-rule="nonzero" fill-opacity="1" /><path clip-path="url(#clip400)" d="M91.1077 586.305 Q87.7743 586.305 85.8531 588.087 Q83.9549 589.87 83.9549 592.994 Q83.9549 596.119 85.8531 597.902 Q87.7743 599.684 91.1077 599.684 Q94.441 599.684 96.3623 597.902 Q98.2835 596.096 98.2835 592.994 Q98.2835 589.87 96.3623 588.087 Q94.4641 586.305 91.1077 586.305 M86.4318 584.314 Q83.4225 583.573 81.7327 581.513 Q80.066 579.453 80.066 576.49 Q80.066 572.346 83.0058 569.939 Q85.9688 567.532 91.1077 567.532 Q96.2697 567.532 99.2095 569.939 Q102.149 572.346 102.149 576.49 Q102.149 579.453 100.459 581.513 Q98.7928 583.573 95.8067 584.314 Q99.1863 585.101 101.061 587.393 Q102.959 589.684 102.959 592.994 Q102.959 598.018 99.8808 600.703 Q96.8252 603.388 91.1077 603.388 Q85.3901 603.388 82.3114 600.703 Q79.2559 598.018 79.2559 592.994 Q79.2559 589.684 81.154 587.393 Q83.0521 585.101 86.4318 584.314 M84.7188 576.93 Q84.7188 579.615 86.3855 581.12 Q88.0753 582.624 91.1077 582.624 Q94.1169 582.624 95.8067 581.12 Q97.5197 579.615 97.5197 576.93 Q97.5197 574.245 95.8067 572.74 Q94.1169 571.235 91.1077 571.235 Q88.0753 571.235 86.3855 572.74 Q84.7188 574.245 84.7188 576.93 Z" fill="#000000" fill-rule="nonzero" fill-opacity="1" /><path clip-path="url(#clip400)" d="M51.6634 399.081 L59.3023 399.081 L59.3023 372.716 L50.9921 374.382 L50.9921 370.123 L59.256 368.456 L63.9319 368.456 L63.9319 399.081 L71.5707 399.081 L71.5707 403.016 L51.6634 403.016 L51.6634 399.081 Z" fill="#000000" fill-rule="nonzero" fill-opacity="1" /><path clip-path="url(#clip400)" d="M91.0151 371.535 Q87.404 371.535 85.5753 375.1 Q83.7697 378.641 83.7697 385.771 Q83.7697 392.877 85.5753 396.442 Q87.404 399.984 91.0151 399.984 Q94.6493 399.984 96.4548 396.442 Q98.2835 392.877 98.2835 385.771 Q98.2835 378.641 96.4548 375.1 Q94.6493 371.535 91.0151 371.535 M91.0151 367.831 Q96.8252 367.831 99.8808 372.438 Q102.959 377.021 102.959 385.771 Q102.959 394.498 99.8808 399.104 Q96.8252 403.688 91.0151 403.688 Q85.2049 403.688 82.1262 399.104 Q79.0707 394.498 79.0707 385.771 Q79.0707 377.021 82.1262 372.438 Q85.2049 367.831 91.0151 367.831 Z" fill="#000000" fill-rule="nonzero" fill-opacity="1" /><path clip-path="url(#clip400)" d="M53.2606 199.381 L60.8995 199.381 L60.8995 173.015 L52.5893 174.682 L52.5893 170.423 L60.8532 168.756 L65.5291 168.756 L65.5291 199.381 L73.1679 199.381 L73.1679 203.316 L53.2606 203.316 L53.2606 199.381 Z" fill="#000000" fill-rule="nonzero" fill-opacity="1" /><path clip-path="url(#clip400)" d="M86.6401 199.381 L102.959 199.381 L102.959 203.316 L81.0151 203.316 L81.0151 199.381 Q83.6771 196.626 88.2604 191.996 Q92.8669 187.344 94.0475 186.001 Q96.2928 183.478 97.1724 181.742 Q98.0752 179.983 98.0752 178.293 Q98.0752 175.538 96.1308 173.802 Q94.2095 172.066 91.1077 172.066 Q88.9086 172.066 86.4549 172.83 Q84.0244 173.594 81.2466 175.145 L81.2466 170.423 Q84.0707 169.288 86.5243 168.71 Q88.978 168.131 91.0151 168.131 Q96.3854 168.131 99.5798 170.816 Q102.774 173.501 102.774 177.992 Q102.774 180.122 101.964 182.043 Q101.177 183.941 99.0706 186.534 Q98.4919 187.205 95.39 190.422 Q92.2882 193.617 86.6401 199.381 Z" fill="#000000" fill-rule="nonzero" fill-opacity="1" /><polyline clip-path="url(#clip402)" style="stroke:#009af9; stroke-linecap:round; stroke-linejoin:round; stroke-width:8; stroke-opacity:1; fill:none" points="138.959,1384.24 140.436,1384.24 141.913,1384.24 143.39,1384.24 144.867,1384.24 146.344,1384.24 147.821,1384.24 149.297,1384.24 150.774,1384.24 152.251,1384.24 153.728,1384.24 155.205,1384.24 156.682,1384.24 158.158,1384.24 159.635,1384.24 161.112,1384.24 162.589,1384.24 164.066,1384.24 165.543,1384.24 167.02,1384.24 168.496,1384.24 169.973,1384.24 171.45,1384.24 172.927,1284.39 174.404,1284.39 175.881,1284.39 177.358,1284.39 178.834,1284.39 180.311,1284.39 181.788,1284.39 183.265,1284.39 184.742,1284.39 186.219,1284.39 187.695,1284.39 189.172,1284.39 190.649,1284.39 192.126,1284.39 193.603,1284.39 195.08,1284.39 196.557,1284.39 198.033,1284.39 199.51,1284.39 200.987,1284.39 202.464,1284.39 203.941,1284.39 205.418,1284.39 206.894,1284.39 208.371,1284.39 209.848,1284.39 211.325,1284.39 212.802,1284.39 214.279,1284.39 215.756,1284.39 217.232,1284.39 218.709,1284.39 220.186,1284.39 221.663,1284.39 223.14,1284.39 224.617,1284.39 226.094,1284.39 227.57,1284.39 229.047,1284.39 230.524,1284.39 232.001,1284.39 233.478,1284.39 234.955,1284.39 236.431,1284.39 237.908,1284.39 239.385,1284.39 240.862,1284.39 242.339,1284.39 243.816,1284.39 245.293,1284.39 246.769,1284.39 248.246,1284.39 249.723,1284.39 251.2,1284.39 252.677,1284.39 254.154,1284.39 255.631,1284.39 257.107,1284.39 258.584,1284.39 260.061,1284.39 261.538,1284.39 263.015,1284.39 264.492,1284.39 265.968,1284.39 267.445,1284.39 268.922,1284.39 270.399,1284.39 271.876,1284.39 273.353,1284.39 274.83,1284.39 276.306,1284.39 277.783,1284.39 279.26,1284.39 280.737,1284.39 282.214,1284.39 283.691,1284.39 285.167,1284.39 286.644,1284.39 288.121,1284.39 289.598,1284.39 291.075,1284.39 292.552,1284.39 294.029,1284.39 295.505,1284.39 296.982,1284.39 298.459,1284.39 299.936,1284.39 301.413,1284.39 302.89,1284.39 304.367,1284.39 305.843,1284.39 307.32,1284.39 308.797,1284.39 310.274,1284.39 311.751,1284.39 313.228,1284.39 314.704,1284.39 316.181,1284.39 317.658,1284.39 319.135,1284.39 320.612,1284.39 322.089,1284.39 323.566,1284.39 325.042,1284.39 326.519,1284.39 327.996,1284.39 329.473,1284.39 330.95,1284.39 332.427,1284.39 333.903,1284.39 335.38,1284.39 336.857,1284.39 338.334,1284.39 339.811,1284.39 341.288,1284.39 342.765,1284.39 344.241,1284.39 345.718,1284.39 347.195,1284.39 348.672,1284.39 350.149,1284.39 351.626,1284.39 353.103,1284.39 354.579,1284.39 356.056,1284.39 357.533,1284.39 359.01,1284.39 360.487,1284.39 361.964,1284.39 363.44,1284.39 364.917,1284.39 366.394,1284.39 367.871,1184.54 369.348,1184.54 370.825,1184.54 372.302,1184.54 373.778,1184.54 375.255,1184.54 376.732,1184.54 378.209,1184.54 379.686,1184.54 381.163,1184.54 382.64,1184.54 384.116,1184.54 385.593,1184.54 387.07,1184.54 388.547,1184.54 390.024,1184.54 391.501,1184.54 392.977,1184.54 394.454,1184.54 395.931,1184.54 397.408,1184.54 398.885,1184.54 400.362,1184.54 401.839,1184.54 403.315,1184.54 404.792,1184.54 406.269,1184.54 407.746,1184.54 409.223,1184.54 410.7,1184.54 412.176,1184.54 413.653,1184.54 415.13,1184.54 416.607,1184.54 418.084,1184.54 419.561,1184.54 421.038,1184.54 422.514,1184.54 423.991,1184.54 425.468,1184.54 426.945,1184.54 428.422,1184.54 429.899,1184.54 431.376,1184.54 432.852,1184.54 434.329,1184.54 435.806,1184.54 437.283,1184.54 438.76,1184.54 440.237,1184.54 441.713,1184.54 443.19,1184.54 444.667,1184.54 446.144,1184.54 447.621,1184.54 449.098,1184.54 450.575,1184.54 452.051,1184.54 453.528,1184.54 455.005,1184.54 456.482,1184.54 457.959,1184.54 459.436,1184.54 460.912,1184.54 462.389,1184.54 463.866,1184.54 465.343,1184.54 466.82,1184.54 468.297,1184.54 469.774,1184.54 471.25,1184.54 472.727,1184.54 474.204,1184.54 475.681,1184.54 477.158,1184.54 478.635,1184.54 480.112,1184.54 481.588,1184.54 483.065,1184.54 484.542,1184.54 486.019,1184.54 487.496,1184.54 488.973,1184.54 490.449,1184.54 491.926,1184.54 493.403,1184.54 494.88,1184.54 496.357,1184.54 497.834,1184.54 499.311,1184.54 500.787,1184.54 502.264,1184.54 503.741,1184.54 505.218,1184.54 506.695,1184.54 508.172,1184.54 509.649,1184.54 511.125,1184.54 512.602,1184.54 514.079,1184.54 515.556,1184.54 517.033,1184.54 518.51,1184.54 519.986,1184.54 521.463,1184.54 522.94,1184.54 524.417,1184.54 525.894,1184.54 527.371,1184.54 528.848,1184.54 530.324,1184.54 531.801,1184.54 533.278,1184.54 534.755,1184.54 536.232,1184.54 537.709,1184.54 539.185,1184.54 540.662,1184.54 542.139,1184.54 543.616,1184.54 545.093,1184.54 546.57,1184.54 548.047,1184.54 549.523,1184.54 551,1184.54 552.477,1184.54 553.954,1184.54 555.431,1184.54 556.908,1184.54 558.385,1184.54 559.861,1184.54 561.338,1184.54 562.815,1184.54 564.292,1184.54 565.769,1084.69 567.246,1084.69 568.722,1084.69 570.199,1084.69 571.676,1084.69 573.153,1084.69 574.63,1084.69 576.107,1084.69 577.584,1084.69 579.06,1084.69 580.537,1084.69 582.014,1084.69 583.491,1084.69 584.968,1084.69 586.445,1084.69 587.921,1084.69 589.398,1084.69 590.875,1084.69 592.352,1084.69 593.829,1084.69 595.306,1084.69 596.783,1084.69 598.259,1084.69 599.736,984.837 601.213,984.837 602.69,984.837 604.167,984.837 605.644,984.837 607.121,984.837 608.597,984.837 610.074,984.837 611.551,984.837 613.028,984.837 614.505,984.837 615.982,984.837 617.458,984.837 618.935,984.837 620.412,984.837 621.889,984.837 623.366,984.837 624.843,984.837 626.32,984.837 627.796,984.837 629.273,984.837 630.75,984.837 632.227,984.837 633.704,984.837 635.181,984.837 636.658,984.837 638.134,984.837 639.611,984.837 641.088,984.837 642.565,984.837 644.042,984.837 645.519,984.837 646.995,984.837 648.472,984.837 649.949,884.987 651.426,884.987 652.903,884.987 654.38,884.987 655.857,884.987 657.333,884.987 658.81,884.987 660.287,884.987 661.764,884.987 663.241,884.987 664.718,884.987 666.194,884.987 667.671,884.987 669.148,884.987 670.625,884.987 672.102,884.987 673.579,884.987 675.056,884.987 676.532,884.987 678.009,884.987 679.486,884.987 680.963,884.987 682.44,884.987 683.917,884.987 685.394,884.987 686.87,884.987 688.347,884.987 689.824,884.987 691.301,884.987 692.778,884.987 694.255,884.987 695.731,884.987 697.208,884.987 698.685,884.987 700.162,884.987 701.639,884.987 703.116,884.987 704.593,884.987 706.069,884.987 707.546,884.987 709.023,785.137 710.5,785.137 711.977,785.137 713.454,785.137 714.931,785.137 716.407,785.137 717.884,785.137 719.361,785.137 720.838,785.137 722.315,785.137 723.792,785.137 725.268,785.137 726.745,785.137 728.222,785.137 729.699,785.137 731.176,785.137 732.653,785.137 734.13,785.137 735.606,785.137 737.083,785.137 738.56,785.137 740.037,785.137 741.514,785.137 742.991,785.137 744.467,785.137 745.944,785.137 747.421,785.137 748.898,785.137 750.375,785.137 751.852,785.137 753.329,785.137 754.805,785.137 756.282,785.137 757.759,785.137 759.236,785.137 760.713,785.137 762.19,785.137 763.667,785.137 765.143,785.137 766.62,785.137 768.097,785.137 769.574,785.137 771.051,785.137 772.528,785.137 774.004,785.137 775.481,785.137 776.958,785.137 778.435,785.137 779.912,785.137 781.389,785.137 782.866,785.137 784.342,785.137 785.819,785.137 787.296,785.137 788.773,785.137 790.25,785.137 791.727,785.137 793.203,785.137 794.68,785.137 796.157,785.137 797.634,785.137 799.111,785.137 800.588,785.137 802.065,785.137 803.541,785.137 805.018,785.137 806.495,785.137 807.972,785.137 809.449,785.137 810.926,785.137 812.403,785.137 813.879,785.137 815.356,785.137 816.833,785.137 818.31,785.137 819.787,785.137 821.264,785.137 822.74,785.137 824.217,785.137 825.694,785.137 827.171,785.137 828.648,785.137 830.125,785.137 831.602,785.137 833.078,785.137 834.555,785.137 836.032,785.137 837.509,785.137 838.986,785.137 840.463,785.137 841.94,785.137 843.416,785.137 844.893,785.137 846.37,785.137 847.847,785.137 849.324,785.137 850.801,785.137 852.277,685.287 853.754,685.287 855.231,685.287 856.708,685.287 858.185,685.287 859.662,685.287 861.139,685.287 862.615,685.287 864.092,685.287 865.569,685.287 867.046,685.287 868.523,685.287 870,685.287 871.476,685.287 872.953,685.287 874.43,685.287 875.907,685.287 877.384,685.287 878.861,685.287 880.338,685.287 881.814,685.287 883.291,685.287 884.768,685.287 886.245,685.287 887.722,685.287 889.199,685.287 890.676,685.287 892.152,685.287 893.629,685.287 895.106,685.287 896.583,685.287 898.06,685.287 899.537,685.287 901.013,685.287 902.49,685.287 903.967,685.287 905.444,685.287 906.921,685.287 908.398,685.287 909.875,685.287 911.351,685.287 912.828,685.287 914.305,685.287 915.782,685.287 917.259,685.287 918.736,685.287 920.212,685.287 921.689,685.287 923.166,685.287 924.643,685.287 926.12,685.287 927.597,685.287 929.074,685.287 930.55,685.287 932.027,685.287 933.504,685.287 934.981,685.287 936.458,685.287 937.935,685.287 939.412,685.287 940.888,685.287 942.365,685.287 943.842,685.287 945.319,685.287 946.796,685.287 948.273,685.287 949.749,685.287 951.226,685.287 952.703,685.287 954.18,685.287 955.657,685.287 957.134,685.287 958.611,685.287 960.087,685.287 961.564,585.437 963.041,585.437 964.518,585.437 965.995,585.437 967.472,585.437 968.949,585.437 970.425,585.437 971.902,585.437 973.379,585.437 974.856,585.437 976.333,585.437 977.81,585.437 979.286,585.437 980.763,585.437 982.24,585.437 983.717,585.437 985.194,585.437 986.671,585.437 988.148,585.437 989.624,585.437 991.101,585.437 992.578,585.437 994.055,585.437 995.532,585.437 997.009,585.437 998.485,585.437 999.962,585.437 1001.44,585.437 1002.92,585.437 1004.39,585.437 1005.87,585.437 1007.35,585.437 1008.82,585.437 1010.3,585.437 1011.78,585.437 1013.25,585.437 1014.73,585.437 1016.21,585.437 1017.68,585.437 1019.16,585.437 1020.64,585.437 1022.12,585.437 1023.59,585.437 1025.07,585.437 1026.55,585.437 1028.02,585.437 1029.5,585.437 1030.98,585.437 1032.45,585.437 1033.93,585.437 1035.41,585.437 1036.88,585.437 1038.36,585.437 1039.84,585.437 1041.31,585.437 1042.79,585.437 1044.27,585.437 1045.74,585.437 1047.22,585.437 1048.7,585.437 1050.18,585.437 1051.65,585.437 1053.13,585.437 1054.61,585.437 1056.08,485.586 1057.56,485.586 1059.04,485.586 1060.51,485.586 1061.99,485.586 1063.47,485.586 1064.94,485.586 1066.42,485.586 1067.9,485.586 1069.37,485.586 1070.85,485.586 1072.33,485.586 1073.8,485.586 1075.28,485.586 1076.76,485.586 1078.24,485.586 1079.71,485.586 1081.19,485.586 1082.67,485.586 1084.14,485.586 1085.62,485.586 1087.1,485.586 1088.57,485.586 1090.05,485.586 1091.53,485.586 1093,485.586 1094.48,485.586 1095.96,485.586 1097.43,385.736 1098.91,385.736 1100.39,385.736 1101.86,385.736 1103.34,385.736 1104.82,385.736 1106.3,385.736 1107.77,385.736 1109.25,385.736 1110.73,385.736 1112.2,385.736 1113.68,385.736 1115.16,385.736 1116.63,385.736 1118.11,385.736 1119.59,385.736 1121.06,385.736 1122.54,385.736 1124.02,385.736 1125.49,385.736 1126.97,385.736 1128.45,385.736 1129.93,385.736 1131.4,385.736 1132.88,385.736 1134.36,385.736 1135.83,385.736 1137.31,385.736 1138.79,385.736 1140.26,385.736 1141.74,385.736 1143.22,385.736 1144.69,385.736 1146.17,385.736 1147.65,385.736 1149.12,385.736 1150.6,385.736 1152.08,385.736 1153.55,385.736 1155.03,385.736 1156.51,385.736 1157.99,385.736 1159.46,385.736 1160.94,385.736 1162.42,385.736 1163.89,385.736 1165.37,385.736 1166.85,385.736 1168.32,385.736 1169.8,385.736 1171.28,385.736 1172.75,385.736 1174.23,385.736 1175.71,385.736 1177.18,385.736 1178.66,385.736 1180.14,385.736 1181.61,385.736 1183.09,385.736 1184.57,385.736 1186.05,385.736 1187.52,385.736 1189,385.736 1190.48,385.736 1191.95,385.736 1193.43,385.736 1194.91,385.736 1196.38,385.736 1197.86,385.736 1199.34,385.736 1200.81,385.736 1202.29,385.736 1203.77,385.736 1205.24,385.736 1206.72,385.736 1208.2,385.736 1209.67,385.736 1211.15,385.736 1212.63,385.736 1214.11,385.736 1215.58,385.736 1217.06,385.736 1218.54,385.736 1220.01,385.736 1221.49,385.736 1222.97,385.736 1224.44,385.736 1225.92,385.736 1227.4,385.736 1228.87,385.736 1230.35,385.736 1231.83,385.736 1233.3,385.736 1234.78,385.736 1236.26,385.736 1237.74,385.736 1239.21,385.736 1240.69,385.736 1242.17,385.736 1243.64,385.736 1245.12,385.736 1246.6,385.736 1248.07,385.736 1249.55,385.736 1251.03,385.736 1252.5,385.736 1253.98,385.736 1255.46,385.736 1256.93,385.736 1258.41,385.736 1259.89,385.736 1261.36,385.736 1262.84,385.736 1264.32,385.736 1265.8,385.736 1267.27,385.736 1268.75,385.736 1270.23,385.736 1271.7,385.736 1273.18,385.736 1274.66,385.736 1276.13,385.736 1277.61,385.736 1279.09,385.736 1280.56,385.736 1282.04,385.736 1283.52,385.736 1284.99,385.736 1286.47,385.736 1287.95,385.736 1289.42,285.886 1290.9,285.886 1292.38,285.886 1293.86,285.886 1295.33,285.886 1296.81,285.886 1298.29,285.886 1299.76,285.886 1301.24,285.886 1302.72,285.886 1304.19,285.886 1305.67,285.886 1307.15,285.886 1308.62,285.886 1310.1,285.886 1311.58,285.886 1313.05,285.886 1314.53,285.886 1316.01,285.886 1317.48,285.886 1318.96,285.886 1320.44,285.886 1321.92,285.886 1323.39,285.886 1324.87,285.886 1326.35,285.886 1327.82,285.886 1329.3,285.886 1330.78,285.886 1332.25,285.886 1333.73,285.886 1335.21,285.886 1336.68,285.886 1338.16,285.886 1339.64,285.886 1341.11,285.886 1342.59,285.886 1344.07,285.886 1345.54,285.886 1347.02,285.886 1348.5,285.886 1349.98,285.886 1351.45,285.886 1352.93,285.886 1354.41,285.886 1355.88,285.886 1357.36,285.886 1358.84,285.886 1360.31,285.886 1361.79,285.886 1363.27,285.886 1364.74,285.886 1366.22,285.886 1367.7,285.886 1369.17,285.886 1370.65,285.886 1372.13,285.886 1373.61,285.886 1375.08,285.886 1376.56,285.886 1378.04,285.886 1379.51,285.886 1380.99,285.886 1382.47,285.886 1383.94,285.886 1385.42,285.886 1386.9,285.886 1388.37,285.886 1389.85,285.886 1391.33,285.886 1392.8,285.886 1394.28,285.886 1395.76,285.886 1397.23,285.886 1398.71,285.886 1400.19,285.886 1401.67,285.886 1403.14,285.886 1404.62,285.886 1406.1,285.886 1407.57,285.886 1409.05,285.886 1410.53,285.886 1412,186.036 1413.48,186.036 1414.96,186.036 1416.43,186.036 1417.91,186.036 1419.39,186.036 1420.86,186.036 1422.34,186.036 1423.82,186.036 1425.29,186.036 1426.77,186.036 1428.25,186.036 1429.73,186.036 1431.2,186.036 1432.68,186.036 1434.16,186.036 1435.63,186.036 1437.11,186.036 1438.59,186.036 1440.06,186.036 1441.54,186.036 1443.02,186.036 1444.49,186.036 1445.97,186.036 1447.45,186.036 1448.92,186.036 1450.4,186.036 1451.88,186.036 1453.35,186.036 1454.83,186.036 1456.31,186.036 1457.79,186.036 1459.26,186.036 1460.74,186.036 1462.22,186.036 1463.69,186.036 1465.17,186.036 1466.65,186.036 1468.12,186.036 1469.6,186.036 1471.08,186.036 1472.55,186.036 1474.03,186.036 1475.51,186.036 1476.98,186.036 1478.46,186.036 1479.94,186.036 1481.42,186.036 1482.89,186.036 1484.37,186.036 1485.85,186.036 1487.32,186.036 1488.8,186.036 1490.28,186.036 1491.75,186.036 1493.23,186.036 1494.71,186.036 1496.18,186.036 1497.66,186.036 1499.14,186.036 1500.61,186.036 1502.09,186.036 1503.57,186.036 1505.04,186.036 1506.52,186.036 1508,186.036 1509.48,186.036 1510.95,186.036 1512.43,186.036 1513.91,186.036 1515.38,186.036 1516.86,186.036 1518.34,186.036 1519.81,186.036 1521.29,186.036 1522.77,186.036 1524.24,186.036 1525.72,186.036 1527.2,186.036 1528.67,186.036 1530.15,186.036 1531.63,186.036 1533.1,186.036 1534.58,186.036 1536.06,186.036 1537.54,186.036 1539.01,186.036 1540.49,186.036 1541.97,186.036 1543.44,186.036 1544.92,186.036 1546.4,186.036 1547.87,186.036 1549.35,186.036 1550.83,186.036 1552.3,186.036 1553.78,186.036 1555.26,186.036 1556.73,186.036 1558.21,186.036 1559.69,186.036 1561.16,186.036 1562.64,186.036 1564.12,186.036 1565.6,186.036 1567.07,186.036 1568.55,186.036 1570.03,186.036 1571.5,186.036 1572.98,186.036 1574.46,186.036 1575.93,186.036 1577.41,186.036 1578.89,186.036 1580.36,186.036 1581.84,186.036 1583.32,186.036 1584.79,186.036 1586.27,186.036 1587.75,186.036 1589.23,186.036 1590.7,186.036 1592.18,186.036 1593.66,186.036 1595.13,186.036 1596.61,186.036 1598.09,186.036 1599.56,186.036 1601.04,186.036 1602.52,186.036 1603.99,186.036 1605.47,186.036 1606.95,186.036 1608.42,186.036 1609.9,186.036 1611.38,186.036 1612.85,86.1857 1614.33,86.1857 1615.81,86.1857 1617.29,86.1857 1618.76,86.1857 1620.24,86.1857 1621.72,86.1857 1623.19,86.1857 1624.67,86.1857 1626.15,86.1857 1627.62,86.1857 1629.1,86.1857 1630.58,86.1857 1632.05,86.1857 1633.53,86.1857 1635.01,86.1857 1636.48,86.1857 1637.96,86.1857 1639.44,86.1857 1640.91,86.1857 1642.39,86.1857 1643.87,86.1857 1645.35,86.1857 1646.82,86.1857 1648.3,86.1857 1649.78,86.1857 1651.25,86.1857 1652.73,86.1857 1654.21,86.1857 1655.68,86.1857 1657.16,86.1857 1658.64,86.1857 1660.11,86.1857 1661.59,86.1857 1663.07,86.1857 1664.54,86.1857 1666.02,86.1857 1667.5,86.1857 1668.97,86.1857 1670.45,86.1857 1671.93,86.1857 1673.41,86.1857 1674.88,86.1857 1676.36,86.1857 1677.84,86.1857 1679.31,86.1857 1680.79,86.1857 1682.27,86.1857 1683.74,86.1857 1685.22,86.1857 1686.7,86.1857 1688.17,86.1857 1689.65,86.1857 1691.13,86.1857 1692.6,86.1857 1694.08,86.1857 1695.56,86.1857 1697.04,86.1857 1698.51,86.1857 1699.99,86.1857 1701.47,86.1857 1702.94,86.1857 1704.42,86.1857 1705.9,86.1857 1707.37,86.1857 1708.85,86.1857 1710.33,86.1857 1711.8,86.1857 1713.28,86.1857 1714.76,86.1857 1716.23,86.1857 1717.71,86.1857 1719.19,86.1857 1720.66,86.1857 1722.14,86.1857 1723.62,86.1857 1725.1,86.1857 1726.57,86.1857 1728.05,86.1857 1729.53,86.1857 1731,86.1857 1732.48,86.1857 1733.96,86.1857 1735.43,86.1857 1736.91,86.1857 1738.39,86.1857 1739.86,86.1857 1741.34,86.1857 1742.82,86.1857 1744.29,86.1857 1745.77,86.1857 1747.25,86.1857 1748.72,86.1857 1750.2,86.1857 1751.68,86.1857 1753.16,86.1857 1754.63,86.1857 1756.11,86.1857 1757.59,86.1857 1759.06,86.1857 1760.54,86.1857 1762.02,86.1857 1763.49,86.1857 1764.97,86.1857 1766.45,86.1857 1767.92,86.1857 1769.4,86.1857 1770.88,86.1857 1772.35,86.1857 1773.83,86.1857 1775.31,86.1857 1776.78,86.1857 1778.26,86.1857 1779.74,86.1857 1781.22,86.1857 1782.69,86.1857 1784.17,86.1857 1785.65,86.1857 1787.12,86.1857 1788.6,86.1857 1790.08,86.1857 1791.55,86.1857 1793.03,86.1857 1794.51,86.1857 1795.98,86.1857 1797.46,86.1857 1798.94,86.1857 1800.41,86.1857 1801.89,86.1857 1803.37,86.1857 1804.84,86.1857 1806.32,86.1857 1807.8,86.1857 1809.28,86.1857 1810.75,86.1857 1812.23,86.1857 1813.71,86.1857 1815.18,86.1857 1816.66,86.1857 1818.14,86.1857 1819.61,86.1857 1821.09,86.1857 1822.57,86.1857 1824.04,86.1857 1825.52,86.1857 1827,86.1857 1828.47,86.1857 1829.95,86.1857 1831.43,86.1857 1832.91,86.1857 1834.38,86.1857 1835.86,86.1857 1837.34,86.1857 1838.81,86.1857 1840.29,86.1857 1841.77,86.1857 1843.24,86.1857 1844.72,86.1857 1846.2,86.1857 1847.67,86.1857 1849.15,86.1857 1850.63,86.1857 1852.1,86.1857 1853.58,86.1857 1855.06,86.1857 1856.53,86.1857 1858.01,86.1857 1859.49,86.1857 1860.97,86.1857 1862.44,86.1857 1863.92,86.1857 1865.4,86.1857 1866.87,86.1857 1868.35,86.1857 1869.83,86.1857 1871.3,86.1857 1872.78,86.1857 1874.26,86.1857 1875.73,86.1857 1877.21,86.1857 1878.69,86.1857 1880.16,86.1857 1881.64,86.1857 1883.12,86.1857 1884.59,86.1857 1886.07,86.1857 1887.55,86.1857 1889.03,86.1857 1890.5,86.1857 1891.98,86.1857 1893.46,86.1857 1894.93,86.1857 1896.41,86.1857 1897.89,86.1857 1899.36,86.1857 1900.84,86.1857 1902.32,86.1857 1903.79,86.1857 1905.27,86.1857 1906.75,86.1857 1908.22,86.1857 1909.7,86.1857 1911.18,86.1857 1912.65,86.1857 1914.13,86.1857 1915.61,86.1857 1917.09,86.1857 1918.56,86.1857 1920.04,86.1857 1921.52,86.1857 1922.99,86.1857 1924.47,86.1857 1925.95,86.1857 1927.42,86.1857 1928.9,86.1857 1930.38,86.1857 1931.85,86.1857 1933.33,86.1857 1934.81,86.1857 1936.28,86.1857 1937.76,86.1857 1939.24,86.1857 1940.72,86.1857 1942.19,86.1857 1943.67,86.1857 1945.15,86.1857 1946.62,86.1857 1948.1,86.1857 1949.58,86.1857 1951.05,86.1857 1952.53,86.1857 1954.01,86.1857 1955.48,86.1857 1956.96,86.1857 1958.44,86.1857 1959.91,86.1857 1961.39,86.1857 1962.87,86.1857 1964.34,86.1857 1965.82,86.1857 1967.3,86.1857 1968.78,86.1857 1970.25,86.1857 1971.73,86.1857 1973.21,86.1857 1974.68,86.1857 1976.16,86.1857 1977.64,86.1857 1979.11,86.1857 1980.59,86.1857 1982.07,86.1857 1983.54,86.1857 1985.02,86.1857 1986.5,86.1857 1987.97,86.1857 1989.45,86.1857 1990.93,86.1857 1992.4,86.1857 1993.88,86.1857 1995.36,86.1857 1996.84,86.1857 1998.31,86.1857 1999.79,86.1857 2001.27,86.1857 2002.74,86.1857 2004.22,86.1857 2005.7,86.1857 2007.17,86.1857 2008.65,86.1857 2010.13,86.1857 2011.6,86.1857 2013.08,86.1857 2014.56,86.1857 2016.03,86.1857 2017.51,86.1857 2018.99,86.1857 2020.46,86.1857 2021.94,86.1857 2023.42,86.1857 2024.9,86.1857 2026.37,86.1857 2027.85,86.1857 2029.33,86.1857 2030.8,86.1857 2032.28,86.1857 2033.76,86.1857 2035.23,86.1857 2036.71,86.1857 2038.19,86.1857 2039.66,86.1857 2041.14,86.1857 2042.62,86.1857 2044.09,86.1857 2045.57,86.1857 2047.05,86.1857 2048.53,86.1857 2050,86.1857 2051.48,86.1857 2052.96,86.1857 2054.43,86.1857 2055.91,86.1857 2057.39,86.1857 2058.86,86.1857 2060.34,86.1857 2061.82,86.1857 2063.29,86.1857 2064.77,86.1857 2066.25,86.1857 2067.72,86.1857 2069.2,86.1857 2070.68,86.1857 2072.15,86.1857 2073.63,86.1857 2075.11,86.1857 2076.59,86.1857 2078.06,86.1857 2079.54,86.1857 2081.02,86.1857 2082.49,86.1857 2083.97,86.1857 2085.45,86.1857 2086.92,86.1857 2088.4,86.1857 2089.88,86.1857 2091.35,86.1857 2092.83,86.1857 2094.31,86.1857 2095.78,86.1857 2097.26,86.1857 2098.74,86.1857 2100.21,86.1857 2101.69,86.1857 2103.17,86.1857 2104.65,86.1857 2106.12,86.1857 2107.6,86.1857 2109.08,86.1857 2110.55,86.1857 2112.03,86.1857 2113.51,86.1857 2114.98,86.1857 2116.46,86.1857 2117.94,86.1857 2119.41,86.1857 2120.89,86.1857 2122.37,86.1857 2123.84,86.1857 2125.32,86.1857 2126.8,86.1857 2128.27,86.1857 2129.75,86.1857 2131.23,86.1857 2132.71,86.1857 2134.18,86.1857 2135.66,86.1857 2137.14,86.1857 2138.61,86.1857 2140.09,86.1857 2141.57,86.1857 2143.04,86.1857 2144.52,86.1857 2146,86.1857 2147.47,86.1857 2148.95,86.1857 2150.43,86.1857 2151.9,86.1857 2153.38,86.1857 2154.86,86.1857 2156.34,86.1857 2157.81,86.1857 2159.29,86.1857 2160.77,86.1857 2162.24,86.1857 2163.72,86.1857 2165.2,86.1857 2166.67,86.1857 2168.15,86.1857 2169.63,86.1857 2171.1,86.1857 2172.58,86.1857 2174.06,86.1857 2175.53,86.1857 2177.01,86.1857 2178.49,86.1857 2179.96,86.1857 2181.44,86.1857 2182.92,86.1857 2184.4,86.1857 2185.87,86.1857 2187.35,86.1857 2188.83,86.1857 2190.3,86.1857 2191.78,86.1857 2193.26,86.1857 2194.73,86.1857 2196.21,86.1857 2197.69,86.1857 2199.16,86.1857 2200.64,86.1857 2202.12,86.1857 2203.59,86.1857 2205.07,86.1857 2206.55,86.1857 2208.02,86.1857 2209.5,86.1857 2210.98,86.1857 2212.46,86.1857 2213.93,86.1857 2215.41,86.1857 2216.89,86.1857 2218.36,86.1857 2219.84,86.1857 2221.32,86.1857 2222.79,86.1857 2224.27,86.1857 2225.75,86.1857 2227.22,86.1857 2228.7,86.1857 2230.18,86.1857 2231.65,86.1857 2233.13,86.1857 2234.61,86.1857 2236.08,86.1857 2237.56,86.1857 2239.04,86.1857 2240.52,86.1857 2241.99,86.1857 2243.47,86.1857 2244.95,86.1857 2246.42,86.1857 2247.9,86.1857 2249.38,86.1857 2250.85,86.1857 2252.33,86.1857 2253.81,86.1857 2255.28,86.1857 2256.76,86.1857 2258.24,86.1857 2259.71,86.1857 2261.19,86.1857 2262.67,86.1857 2264.14,86.1857 2265.62,86.1857 2267.1,86.1857 2268.58,86.1857 2270.05,86.1857 2271.53,86.1857 2273.01,86.1857 2274.48,86.1857 2275.96,86.1857 2277.44,86.1857 2278.91,86.1857 2280.39,86.1857 2281.87,86.1857 2283.34,86.1857 2284.82,86.1857 2286.3,86.1857 2287.77,86.1857 2289.25,86.1857 2290.73,86.1857 2292.21,86.1857 2293.68,86.1857 2295.16,86.1857 2296.64,86.1857 2298.11,86.1857 2299.59,86.1857 2301.07,86.1857 2302.54,86.1857 2304.02,86.1857 2305.5,86.1857 2306.97,86.1857 2308.45,86.1857 2309.93,86.1857 2311.4,86.1857 2312.88,86.1857 2314.36,86.1857 2315.83,86.1857 2317.31,86.1857 2318.79,86.1857 2320.27,86.1857 2321.74,86.1857 2323.22,86.1857 2324.7,86.1857 2326.17,86.1857 2327.65,86.1857 2329.13,86.1857 2330.6,86.1857 2332.08,86.1857 2333.56,86.1857 2335.03,86.1857 2336.51,86.1857 2337.99,86.1857 2339.46,86.1857 2340.94,86.1857 2342.42,86.1857 2343.89,86.1857 2345.37,86.1857 2346.85,86.1857 2348.33,86.1857 2349.8,86.1857 2351.28,86.1857 2352.76,86.1857 "/>
<path clip-path="url(#clip400)" d="M212.753 196.789 L523.229 196.789 L523.229 93.1086 L212.753 93.1086  Z" fill="#ffffff" fill-rule="evenodd" fill-opacity="1"/>
<polyline clip-path="url(#clip400)" style="stroke:#000000; stroke-linecap:round; stroke-linejoin:round; stroke-width:4; stroke-opacity:1; fill:none" points="212.753,196.789 523.229,196.789 523.229,93.1086 212.753,93.1086 212.753,196.789 "/>
<polyline clip-path="url(#clip400)" style="stroke:#009af9; stroke-linecap:round; stroke-linejoin:round; stroke-width:8; stroke-opacity:1; fill:none" points="237.35,144.949 384.937,144.949 "/>
<path clip-path="url(#clip400)" d="M409.535 151.997 L409.535 136.303 L413.794 136.303 L413.794 151.835 Q413.794 155.516 415.229 157.368 Q416.664 159.196 419.535 159.196 Q422.984 159.196 424.974 156.997 Q426.988 154.798 426.988 151.002 L426.988 136.303 L431.247 136.303 L431.247 162.229 L426.988 162.229 L426.988 158.247 Q425.437 160.608 423.377 161.766 Q421.34 162.9 418.632 162.9 Q414.164 162.9 411.849 160.122 Q409.535 157.344 409.535 151.997 M420.252 135.678 L420.252 135.678 Z" fill="#000000" fill-rule="nonzero" fill-opacity="1" /><path clip-path="url(#clip400)" d="M439.627 126.21 L449.442 126.21 L449.442 129.52 L443.886 129.52 L443.886 165.168 L449.442 165.168 L449.442 168.479 L439.627 168.479 L439.627 126.21 Z" fill="#000000" fill-rule="nonzero" fill-opacity="1" /><path clip-path="url(#clip400)" d="M459.928 158.293 L467.567 158.293 L467.567 131.928 L459.257 133.595 L459.257 129.335 L467.52 127.669 L472.196 127.669 L472.196 158.293 L479.835 158.293 L479.835 162.229 L459.928 162.229 L459.928 158.293 Z" fill="#000000" fill-rule="nonzero" fill-opacity="1" /><path clip-path="url(#clip400)" d="M498.631 126.21 L498.631 168.479 L488.817 168.479 L488.817 165.168 L494.349 165.168 L494.349 129.52 L488.817 129.52 L488.817 126.21 L498.631 126.21 Z" fill="#000000" fill-rule="nonzero" fill-opacity="1" /></svg>
