<?xml version="1.0" encoding="utf-8"?>
<svg xmlns="http://www.w3.org/2000/svg" xmlns:xlink="http://www.w3.org/1999/xlink" width="600" height="400" viewBox="0 0 2400 1600">
<defs>
  <clipPath id="clip590">
    <rect x="0" y="0" width="2400" height="1600"/>
  </clipPath>
</defs>
<path clip-path="url(#clip590)" d="M0 1600 L2400 1600 L2400 0 L0 0  Z" fill="#ffffff" fill-rule="evenodd" fill-opacity="1"/>
<defs>
  <clipPath id="clip591">
    <rect x="480" y="0" width="1681" height="1600"/>
  </clipPath>
</defs>
<path clip-path="url(#clip590)" d="M140.696 1423.18 L2352.76 1423.18 L2352.76 47.2441 L140.696 47.2441  Z" fill="#ffffff" fill-rule="evenodd" fill-opacity="1"/>
<defs>
  <clipPath id="clip592">
    <rect x="140" y="47" width="2213" height="1377"/>
  </clipPath>
</defs>
<polyline clip-path="url(#clip592)" style="stroke:#000000; stroke-linecap:round; stroke-linejoin:round; stroke-width:2; stroke-opacity:0.1; fill:none" points="140.696,1423.18 140.696,47.2441 "/>
<polyline clip-path="url(#clip592)" style="stroke:#000000; stroke-linecap:round; stroke-linejoin:round; stroke-width:2; stroke-opacity:0.1; fill:none" points="583.108,1423.18 583.108,47.2441 "/>
<polyline clip-path="url(#clip592)" style="stroke:#000000; stroke-linecap:round; stroke-linejoin:round; stroke-width:2; stroke-opacity:0.1; fill:none" points="1025.52,1423.18 1025.52,47.2441 "/>
<polyline clip-path="url(#clip592)" style="stroke:#000000; stroke-linecap:round; stroke-linejoin:round; stroke-width:2; stroke-opacity:0.1; fill:none" points="1467.93,1423.18 1467.93,47.2441 "/>
<polyline clip-path="url(#clip592)" style="stroke:#000000; stroke-linecap:round; stroke-linejoin:round; stroke-width:2; stroke-opacity:0.1; fill:none" points="1910.34,1423.18 1910.34,47.2441 "/>
<polyline clip-path="url(#clip592)" style="stroke:#000000; stroke-linecap:round; stroke-linejoin:round; stroke-width:2; stroke-opacity:0.1; fill:none" points="2352.76,1423.18 2352.76,47.2441 "/>
<polyline clip-path="url(#clip590)" style="stroke:#000000; stroke-linecap:round; stroke-linejoin:round; stroke-width:4; stroke-opacity:1; fill:none" points="140.696,1423.18 2352.76,1423.18 "/>
<polyline clip-path="url(#clip590)" style="stroke:#000000; stroke-linecap:round; stroke-linejoin:round; stroke-width:4; stroke-opacity:1; fill:none" points="140.696,1423.18 140.696,1404.28 "/>
<polyline clip-path="url(#clip590)" style="stroke:#000000; stroke-linecap:round; stroke-linejoin:round; stroke-width:4; stroke-opacity:1; fill:none" points="583.108,1423.18 583.108,1404.28 "/>
<polyline clip-path="url(#clip590)" style="stroke:#000000; stroke-linecap:round; stroke-linejoin:round; stroke-width:4; stroke-opacity:1; fill:none" points="1025.52,1423.18 1025.52,1404.28 "/>
<polyline clip-path="url(#clip590)" style="stroke:#000000; stroke-linecap:round; stroke-linejoin:round; stroke-width:4; stroke-opacity:1; fill:none" points="1467.93,1423.18 1467.93,1404.28 "/>
<polyline clip-path="url(#clip590)" style="stroke:#000000; stroke-linecap:round; stroke-linejoin:round; stroke-width:4; stroke-opacity:1; fill:none" points="1910.34,1423.18 1910.34,1404.28 "/>
<polyline clip-path="url(#clip590)" style="stroke:#000000; stroke-linecap:round; stroke-linejoin:round; stroke-width:4; stroke-opacity:1; fill:none" points="2352.76,1423.18 2352.76,1404.28 "/>
<path clip-path="url(#clip590)" d="M140.696 1454.1 Q137.084 1454.1 135.256 1457.66 Q133.45 1461.2 133.45 1468.33 Q133.45 1475.44 135.256 1479.01 Q137.084 1482.55 140.696 1482.55 Q144.33 1482.55 146.135 1479.01 Q147.964 1475.44 147.964 1468.33 Q147.964 1461.2 146.135 1457.66 Q144.33 1454.1 140.696 1454.1 M140.696 1450.39 Q146.506 1450.39 149.561 1455 Q152.64 1459.58 152.64 1468.33 Q152.64 1477.06 149.561 1481.67 Q146.506 1486.25 140.696 1486.25 Q134.885 1486.25 131.807 1481.67 Q128.751 1477.06 128.751 1468.33 Q128.751 1459.58 131.807 1455 Q134.885 1450.39 140.696 1450.39 Z" fill="#000000" fill-rule="nonzero" fill-opacity="1" /><path clip-path="url(#clip590)" d="M577.76 1481.64 L594.08 1481.64 L594.08 1485.58 L572.135 1485.58 L572.135 1481.64 Q574.797 1478.89 579.381 1474.26 Q583.987 1469.61 585.168 1468.27 Q587.413 1465.74 588.293 1464.01 Q589.196 1462.25 589.196 1460.56 Q589.196 1457.8 587.251 1456.07 Q585.33 1454.33 582.228 1454.33 Q580.029 1454.33 577.575 1455.09 Q575.145 1455.86 572.367 1457.41 L572.367 1452.69 Q575.191 1451.55 577.645 1450.97 Q580.098 1450.39 582.135 1450.39 Q587.506 1450.39 590.7 1453.08 Q593.895 1455.77 593.895 1460.26 Q593.895 1462.39 593.084 1464.31 Q592.297 1466.2 590.191 1468.8 Q589.612 1469.47 586.51 1472.69 Q583.409 1475.88 577.76 1481.64 Z" fill="#000000" fill-rule="nonzero" fill-opacity="1" /><path clip-path="url(#clip590)" d="M1028.53 1455.09 L1016.72 1473.54 L1028.53 1473.54 L1028.53 1455.09 M1027.3 1451.02 L1033.18 1451.02 L1033.18 1473.54 L1038.11 1473.54 L1038.11 1477.43 L1033.18 1477.43 L1033.18 1485.58 L1028.53 1485.58 L1028.53 1477.43 L1012.93 1477.43 L1012.93 1472.92 L1027.3 1451.02 Z" fill="#000000" fill-rule="nonzero" fill-opacity="1" /><path clip-path="url(#clip590)" d="M1468.34 1466.44 Q1465.19 1466.44 1463.34 1468.59 Q1461.51 1470.74 1461.51 1474.49 Q1461.51 1478.22 1463.34 1480.39 Q1465.19 1482.55 1468.34 1482.55 Q1471.48 1482.55 1473.31 1480.39 Q1475.17 1478.22 1475.17 1474.49 Q1475.17 1470.74 1473.31 1468.59 Q1471.48 1466.44 1468.34 1466.44 M1477.62 1451.78 L1477.62 1456.04 Q1475.86 1455.21 1474.05 1454.77 Q1472.27 1454.33 1470.51 1454.33 Q1465.88 1454.33 1463.43 1457.45 Q1461 1460.58 1460.65 1466.9 Q1462.02 1464.89 1464.08 1463.82 Q1466.14 1462.73 1468.61 1462.73 Q1473.82 1462.73 1476.83 1465.9 Q1479.86 1469.05 1479.86 1474.49 Q1479.86 1479.82 1476.72 1483.03 Q1473.57 1486.25 1468.34 1486.25 Q1462.34 1486.25 1459.17 1481.67 Q1456 1477.06 1456 1468.33 Q1456 1460.14 1459.89 1455.28 Q1463.78 1450.39 1470.33 1450.39 Q1472.09 1450.39 1473.87 1450.74 Q1475.67 1451.09 1477.62 1451.78 Z" fill="#000000" fill-rule="nonzero" fill-opacity="1" /><path clip-path="url(#clip590)" d="M1910.34 1469.17 Q1907.01 1469.17 1905.09 1470.95 Q1903.19 1472.73 1903.19 1475.86 Q1903.19 1478.98 1905.09 1480.77 Q1907.01 1482.55 1910.34 1482.55 Q1913.68 1482.55 1915.6 1480.77 Q1917.52 1478.96 1917.52 1475.86 Q1917.52 1472.73 1915.6 1470.95 Q1913.7 1469.17 1910.34 1469.17 M1905.67 1467.18 Q1902.66 1466.44 1900.97 1464.38 Q1899.3 1462.32 1899.3 1459.35 Q1899.3 1455.21 1902.24 1452.8 Q1905.2 1450.39 1910.34 1450.39 Q1915.51 1450.39 1918.45 1452.8 Q1921.39 1455.21 1921.39 1459.35 Q1921.39 1462.32 1919.7 1464.38 Q1918.03 1466.44 1915.04 1467.18 Q1918.42 1467.96 1920.3 1470.26 Q1922.2 1472.55 1922.2 1475.86 Q1922.2 1480.88 1919.12 1483.57 Q1916.06 1486.25 1910.34 1486.25 Q1904.63 1486.25 1901.55 1483.57 Q1898.49 1480.88 1898.49 1475.86 Q1898.49 1472.55 1900.39 1470.26 Q1902.29 1467.96 1905.67 1467.18 M1903.95 1459.79 Q1903.95 1462.48 1905.62 1463.98 Q1907.31 1465.49 1910.34 1465.49 Q1913.35 1465.49 1915.04 1463.98 Q1916.76 1462.48 1916.76 1459.79 Q1916.76 1457.11 1915.04 1455.6 Q1913.35 1454.1 1910.34 1454.1 Q1907.31 1454.1 1905.62 1455.6 Q1903.95 1457.11 1903.95 1459.79 Z" fill="#000000" fill-rule="nonzero" fill-opacity="1" /><path clip-path="url(#clip590)" d="M2327.44 1481.64 L2335.08 1481.64 L2335.08 1455.28 L2326.77 1456.95 L2326.77 1452.69 L2335.04 1451.02 L2339.71 1451.02 L2339.71 1481.64 L2347.35 1481.64 L2347.35 1485.58 L2327.44 1485.58 L2327.44 1481.64 Z" fill="#000000" fill-rule="nonzero" fill-opacity="1" /><path clip-path="url(#clip590)" d="M2366.8 1454.1 Q2363.18 1454.1 2361.36 1457.66 Q2359.55 1461.2 2359.55 1468.33 Q2359.55 1475.44 2361.36 1479.01 Q2363.18 1482.55 2366.8 1482.55 Q2370.43 1482.55 2372.23 1479.01 Q2374.06 1475.44 2374.06 1468.33 Q2374.06 1461.2 2372.23 1457.66 Q2370.43 1454.1 2366.8 1454.1 M2366.8 1450.39 Q2372.61 1450.39 2375.66 1455 Q2378.74 1459.58 2378.74 1468.33 Q2378.74 1477.06 2375.66 1481.67 Q2372.61 1486.25 2366.8 1486.25 Q2360.99 1486.25 2357.91 1481.67 Q2354.85 1477.06 2354.85 1468.33 Q2354.85 1459.58 2357.91 1455 Q2360.99 1450.39 2366.8 1450.39 Z" fill="#000000" fill-rule="nonzero" fill-opacity="1" /><path clip-path="url(#clip590)" d="M1245.79 1522.27 L1245.79 1532.4 L1257.85 1532.4 L1257.85 1536.95 L1245.79 1536.95 L1245.79 1556.3 Q1245.79 1560.66 1246.96 1561.9 Q1248.17 1563.14 1251.83 1563.14 L1257.85 1563.14 L1257.85 1568.04 L1251.83 1568.04 Q1245.05 1568.04 1242.48 1565.53 Q1239.9 1562.98 1239.9 1556.3 L1239.9 1536.95 L1235.6 1536.95 L1235.6 1532.4 L1239.9 1532.4 L1239.9 1522.27 L1245.79 1522.27 Z" fill="#000000" fill-rule="nonzero" fill-opacity="1" /><polyline clip-path="url(#clip592)" style="stroke:#000000; stroke-linecap:round; stroke-linejoin:round; stroke-width:2; stroke-opacity:0.1; fill:none" points="140.696,1384.24 2352.76,1384.24 "/>
<polyline clip-path="url(#clip592)" style="stroke:#000000; stroke-linecap:round; stroke-linejoin:round; stroke-width:2; stroke-opacity:0.1; fill:none" points="140.696,1160.44 2352.76,1160.44 "/>
<polyline clip-path="url(#clip592)" style="stroke:#000000; stroke-linecap:round; stroke-linejoin:round; stroke-width:2; stroke-opacity:0.1; fill:none" points="140.696,936.634 2352.76,936.634 "/>
<polyline clip-path="url(#clip592)" style="stroke:#000000; stroke-linecap:round; stroke-linejoin:round; stroke-width:2; stroke-opacity:0.1; fill:none" points="140.696,712.832 2352.76,712.832 "/>
<polyline clip-path="url(#clip592)" style="stroke:#000000; stroke-linecap:round; stroke-linejoin:round; stroke-width:2; stroke-opacity:0.1; fill:none" points="140.696,489.03 2352.76,489.03 "/>
<polyline clip-path="url(#clip592)" style="stroke:#000000; stroke-linecap:round; stroke-linejoin:round; stroke-width:2; stroke-opacity:0.1; fill:none" points="140.696,265.227 2352.76,265.227 "/>
<polyline clip-path="url(#clip590)" style="stroke:#000000; stroke-linecap:round; stroke-linejoin:round; stroke-width:4; stroke-opacity:1; fill:none" points="140.696,1423.18 140.696,47.2441 "/>
<polyline clip-path="url(#clip590)" style="stroke:#000000; stroke-linecap:round; stroke-linejoin:round; stroke-width:4; stroke-opacity:1; fill:none" points="140.696,1384.24 159.593,1384.24 "/>
<polyline clip-path="url(#clip590)" style="stroke:#000000; stroke-linecap:round; stroke-linejoin:round; stroke-width:4; stroke-opacity:1; fill:none" points="140.696,1160.44 159.593,1160.44 "/>
<polyline clip-path="url(#clip590)" style="stroke:#000000; stroke-linecap:round; stroke-linejoin:round; stroke-width:4; stroke-opacity:1; fill:none" points="140.696,936.634 159.593,936.634 "/>
<polyline clip-path="url(#clip590)" style="stroke:#000000; stroke-linecap:round; stroke-linejoin:round; stroke-width:4; stroke-opacity:1; fill:none" points="140.696,712.832 159.593,712.832 "/>
<polyline clip-path="url(#clip590)" style="stroke:#000000; stroke-linecap:round; stroke-linejoin:round; stroke-width:4; stroke-opacity:1; fill:none" points="140.696,489.03 159.593,489.03 "/>
<polyline clip-path="url(#clip590)" style="stroke:#000000; stroke-linecap:round; stroke-linejoin:round; stroke-width:4; stroke-opacity:1; fill:none" points="140.696,265.227 159.593,265.227 "/>
<path clip-path="url(#clip590)" d="M92.7512 1370.04 Q89.1401 1370.04 87.3114 1373.6 Q85.5058 1377.14 85.5058 1384.27 Q85.5058 1391.38 87.3114 1394.94 Q89.1401 1398.49 92.7512 1398.49 Q96.3854 1398.49 98.1909 1394.94 Q100.02 1391.38 100.02 1384.27 Q100.02 1377.14 98.1909 1373.6 Q96.3854 1370.04 92.7512 1370.04 M92.7512 1366.33 Q98.5613 1366.33 101.617 1370.94 Q104.696 1375.52 104.696 1384.27 Q104.696 1393 101.617 1397.61 Q98.5613 1402.19 92.7512 1402.19 Q86.941 1402.19 83.8623 1397.61 Q80.8068 1393 80.8068 1384.27 Q80.8068 1375.52 83.8623 1370.94 Q86.941 1366.33 92.7512 1366.33 Z" fill="#000000" fill-rule="nonzero" fill-opacity="1" /><path clip-path="url(#clip590)" d="M83.7929 1143.16 L102.149 1143.16 L102.149 1147.09 L88.0753 1147.09 L88.0753 1155.56 Q89.0938 1155.22 90.1123 1155.05 Q91.1308 1154.87 92.1493 1154.87 Q97.9363 1154.87 101.316 1158.04 Q104.696 1161.21 104.696 1166.63 Q104.696 1172.21 101.223 1175.31 Q97.7511 1178.39 91.4317 1178.39 Q89.2558 1178.39 86.9873 1178.02 Q84.7419 1177.65 82.3346 1176.91 L82.3346 1172.21 Q84.4179 1173.34 86.6401 1173.9 Q88.8623 1174.45 91.3391 1174.45 Q95.3437 1174.45 97.6817 1172.35 Q100.02 1170.24 100.02 1166.63 Q100.02 1163.02 97.6817 1160.91 Q95.3437 1158.8 91.3391 1158.8 Q89.4641 1158.8 87.5892 1159.22 Q85.7373 1159.64 83.7929 1160.52 L83.7929 1143.16 Z" fill="#000000" fill-rule="nonzero" fill-opacity="1" /><path clip-path="url(#clip590)" d="M53.3995 949.979 L61.0384 949.979 L61.0384 923.613 L52.7282 925.28 L52.7282 921.021 L60.9921 919.354 L65.668 919.354 L65.668 949.979 L73.3068 949.979 L73.3068 953.914 L53.3995 953.914 L53.3995 949.979 Z" fill="#000000" fill-rule="nonzero" fill-opacity="1" /><path clip-path="url(#clip590)" d="M92.7512 922.433 Q89.1401 922.433 87.3114 925.997 Q85.5058 929.539 85.5058 936.669 Q85.5058 943.775 87.3114 947.34 Q89.1401 950.882 92.7512 950.882 Q96.3854 950.882 98.1909 947.34 Q100.02 943.775 100.02 936.669 Q100.02 929.539 98.1909 925.997 Q96.3854 922.433 92.7512 922.433 M92.7512 918.729 Q98.5613 918.729 101.617 923.335 Q104.696 927.919 104.696 936.669 Q104.696 945.395 101.617 950.002 Q98.5613 954.585 92.7512 954.585 Q86.941 954.585 83.8623 950.002 Q80.8068 945.395 80.8068 936.669 Q80.8068 927.919 83.8623 923.335 Q86.941 918.729 92.7512 918.729 Z" fill="#000000" fill-rule="nonzero" fill-opacity="1" /><path clip-path="url(#clip590)" d="M54.3949 726.177 L62.0337 726.177 L62.0337 699.811 L53.7236 701.478 L53.7236 697.218 L61.9874 695.552 L66.6633 695.552 L66.6633 726.177 L74.3022 726.177 L74.3022 730.112 L54.3949 730.112 L54.3949 726.177 Z" fill="#000000" fill-rule="nonzero" fill-opacity="1" /><path clip-path="url(#clip590)" d="M83.7929 695.552 L102.149 695.552 L102.149 699.487 L88.0753 699.487 L88.0753 707.959 Q89.0938 707.612 90.1123 707.45 Q91.1308 707.265 92.1493 707.265 Q97.9363 707.265 101.316 710.436 Q104.696 713.607 104.696 719.024 Q104.696 724.603 101.223 727.704 Q97.7511 730.783 91.4317 730.783 Q89.2558 730.783 86.9873 730.413 Q84.7419 730.042 82.3346 729.302 L82.3346 724.603 Q84.4179 725.737 86.6401 726.292 Q88.8623 726.848 91.3391 726.848 Q95.3437 726.848 97.6817 724.741 Q100.02 722.635 100.02 719.024 Q100.02 715.413 97.6817 713.306 Q95.3437 711.2 91.3391 711.2 Q89.4641 711.2 87.5892 711.616 Q85.7373 712.033 83.7929 712.913 L83.7929 695.552 Z" fill="#000000" fill-rule="nonzero" fill-opacity="1" /><path clip-path="url(#clip590)" d="M56.6171 502.374 L72.9365 502.374 L72.9365 506.31 L50.9921 506.31 L50.9921 502.374 Q53.6541 499.62 58.2375 494.99 Q62.8439 490.337 64.0245 488.995 Q66.2698 486.472 67.1494 484.736 Q68.0522 482.976 68.0522 481.287 Q68.0522 478.532 66.1078 476.796 Q64.1865 475.06 61.0847 475.06 Q58.8856 475.06 56.4319 475.824 Q54.0014 476.588 51.2236 478.138 L51.2236 473.416 Q54.0477 472.282 56.5014 471.703 Q58.955 471.125 60.9921 471.125 Q66.3624 471.125 69.5568 473.81 Q72.7513 476.495 72.7513 480.986 Q72.7513 483.115 71.9411 485.037 Q71.1541 486.935 69.0476 489.527 Q68.4689 490.199 65.367 493.416 Q62.2652 496.611 56.6171 502.374 Z" fill="#000000" fill-rule="nonzero" fill-opacity="1" /><path clip-path="url(#clip590)" d="M92.7512 474.828 Q89.1401 474.828 87.3114 478.393 Q85.5058 481.935 85.5058 489.064 Q85.5058 496.171 87.3114 499.736 Q89.1401 503.277 92.7512 503.277 Q96.3854 503.277 98.1909 499.736 Q100.02 496.171 100.02 489.064 Q100.02 481.935 98.1909 478.393 Q96.3854 474.828 92.7512 474.828 M92.7512 471.125 Q98.5613 471.125 101.617 475.731 Q104.696 480.314 104.696 489.064 Q104.696 497.791 101.617 502.398 Q98.5613 506.981 92.7512 506.981 Q86.941 506.981 83.8623 502.398 Q80.8068 497.791 80.8068 489.064 Q80.8068 480.314 83.8623 475.731 Q86.941 471.125 92.7512 471.125 Z" fill="#000000" fill-rule="nonzero" fill-opacity="1" /><path clip-path="url(#clip590)" d="M57.6125 278.572 L73.9318 278.572 L73.9318 282.507 L51.9875 282.507 L51.9875 278.572 Q54.6495 275.818 59.2328 271.188 Q63.8393 266.535 65.0198 265.193 Q67.2652 262.67 68.1448 260.933 Q69.0476 259.174 69.0476 257.484 Q69.0476 254.73 67.1032 252.994 Q65.1819 251.258 62.08 251.258 Q59.881 251.258 57.4273 252.021 Q54.9967 252.785 52.219 254.336 L52.219 249.614 Q55.043 248.48 57.4967 247.901 Q59.9504 247.322 61.9874 247.322 Q67.3578 247.322 70.5522 250.008 Q73.7466 252.693 73.7466 257.183 Q73.7466 259.313 72.9365 261.234 Q72.1494 263.133 70.0429 265.725 Q69.4642 266.396 66.3624 269.614 Q63.2606 272.808 57.6125 278.572 Z" fill="#000000" fill-rule="nonzero" fill-opacity="1" /><path clip-path="url(#clip590)" d="M83.7929 247.947 L102.149 247.947 L102.149 251.883 L88.0753 251.883 L88.0753 260.355 Q89.0938 260.008 90.1123 259.845 Q91.1308 259.66 92.1493 259.66 Q97.9363 259.66 101.316 262.832 Q104.696 266.003 104.696 271.42 Q104.696 276.998 101.223 280.1 Q97.7511 283.179 91.4317 283.179 Q89.2558 283.179 86.9873 282.808 Q84.7419 282.438 82.3346 281.697 L82.3346 276.998 Q84.4179 278.132 86.6401 278.688 Q88.8623 279.244 91.3391 279.244 Q95.3437 279.244 97.6817 277.137 Q100.02 275.031 100.02 271.42 Q100.02 267.808 97.6817 265.702 Q95.3437 263.595 91.3391 263.595 Q89.4641 263.595 87.5892 264.012 Q85.7373 264.429 83.7929 265.308 L83.7929 247.947 Z" fill="#000000" fill-rule="nonzero" fill-opacity="1" /><polyline clip-path="url(#clip592)" style="stroke:#009af9; stroke-linecap:round; stroke-linejoin:round; stroke-width:8; stroke-opacity:1; fill:none" points="140.696,1384.24 141.409,1384.24 142.123,1384.24 142.837,1384.24 143.551,1384.24 144.265,1384.24 144.978,1384.24 145.692,1384.24 146.406,1384.24 147.12,1384.24 147.834,1384.24 148.547,1384.24 149.261,1384.24 149.975,1384.24 150.689,1339.48 151.403,1339.48 152.116,1339.48 152.83,1339.48 153.544,1339.48 154.258,1339.48 154.972,1339.48 155.685,1339.48 156.399,1339.48 157.113,1339.48 157.827,1339.48 158.54,1339.48 159.254,1339.48 159.968,1339.48 160.682,1339.48 161.396,1339.48 162.109,1339.48 162.823,1339.48 163.537,1339.48 164.251,1339.48 164.965,1339.48 165.678,1339.48 166.392,1339.48 167.106,1339.48 167.82,1339.48 168.534,1339.48 169.247,1339.48 169.961,1339.48 170.675,1339.48 171.389,1339.48 172.103,1339.48 172.816,1339.48 173.53,1339.48 174.244,1339.48 174.958,1339.48 175.672,1339.48 176.385,1339.48 177.099,1339.48 177.813,1339.48 178.527,1339.48 179.241,1339.48 179.954,1339.48 180.668,1339.48 181.382,1339.48 182.096,1339.48 182.81,1339.48 183.523,1339.48 184.237,1339.48 184.951,1339.48 185.665,1294.72 186.379,1294.72 187.092,1294.72 187.806,1294.72 188.52,1294.72 189.234,1294.72 189.948,1294.72 190.661,1294.72 191.375,1294.72 192.089,1294.72 192.803,1294.72 193.517,1294.72 194.23,1294.72 194.944,1294.72 195.658,1294.72 196.372,1294.72 197.086,1294.72 197.799,1294.72 198.513,1294.72 199.227,1294.72 199.941,1294.72 200.655,1294.72 201.368,1294.72 202.082,1294.72 202.796,1294.72 203.51,1294.72 204.224,1294.72 204.937,1294.72 205.651,1294.72 206.365,1294.72 207.079,1294.72 207.793,1294.72 208.506,1294.72 209.22,1294.72 209.934,1294.72 210.648,1294.72 211.362,1294.72 212.075,1294.72 212.789,1294.72 213.503,1294.72 214.217,1294.72 214.931,1294.72 215.644,1294.72 216.358,1294.72 217.072,1294.72 217.786,1294.72 218.5,1294.72 219.213,1294.72 219.927,1294.72 220.641,1294.72 221.355,1294.72 222.069,1294.72 222.782,1294.72 223.496,1294.72 224.21,1294.72 224.924,1294.72 225.638,1294.72 226.351,1294.72 227.065,1249.96 227.779,1249.96 228.493,1249.96 229.207,1249.96 229.92,1249.96 230.634,1249.96 231.348,1249.96 232.062,1249.96 232.775,1249.96 233.489,1249.96 234.203,1249.96 234.917,1249.96 235.631,1249.96 236.344,1249.96 237.058,1249.96 237.772,1249.96 238.486,1249.96 239.2,1249.96 239.913,1249.96 240.627,1249.96 241.341,1249.96 242.055,1249.96 242.769,1249.96 243.482,1249.96 244.196,1249.96 244.91,1249.96 245.624,1249.96 246.338,1249.96 247.051,1205.2 247.765,1205.2 248.479,1205.2 249.193,1205.2 249.907,1205.2 250.62,1205.2 251.334,1205.2 252.048,1205.2 252.762,1205.2 253.476,1205.2 254.189,1205.2 254.903,1205.2 255.617,1205.2 256.331,1205.2 257.045,1205.2 257.758,1205.2 258.472,1205.2 259.186,1205.2 259.9,1205.2 260.614,1205.2 261.327,1205.2 262.041,1205.2 262.755,1205.2 263.469,1205.2 264.183,1205.2 264.896,1205.2 265.61,1205.2 266.324,1205.2 267.038,1205.2 267.752,1205.2 268.465,1205.2 269.179,1205.2 269.893,1205.2 270.607,1205.2 271.321,1205.2 272.034,1205.2 272.748,1205.2 273.462,1205.2 274.176,1205.2 274.89,1205.2 275.603,1205.2 276.317,1205.2 277.031,1205.2 277.745,1205.2 278.459,1205.2 279.172,1205.2 279.886,1205.2 280.6,1205.2 281.314,1205.2 282.028,1205.2 282.741,1205.2 283.455,1205.2 284.169,1205.2 284.883,1205.2 285.597,1205.2 286.31,1205.2 287.024,1205.2 287.738,1160.44 288.452,1160.44 289.166,1160.44 289.879,1160.44 290.593,1160.44 291.307,1160.44 292.021,1160.44 292.735,1160.44 293.448,1160.44 294.162,1160.44 294.876,1160.44 295.59,1160.44 296.304,1160.44 297.017,1160.44 297.731,1160.44 298.445,1160.44 299.159,1160.44 299.873,1160.44 300.586,1160.44 301.3,1160.44 302.014,1160.44 302.728,1160.44 303.442,1160.44 304.155,1160.44 304.869,1160.44 305.583,1160.44 306.297,1160.44 307.011,1160.44 307.724,1160.44 308.438,1160.44 309.152,1160.44 309.866,1160.44 310.579,1160.44 311.293,1160.44 312.007,1160.44 312.721,1160.44 313.435,1160.44 314.148,1160.44 314.862,1160.44 315.576,1115.68 316.29,1115.68 317.004,1115.68 317.717,1115.68 318.431,1115.68 319.145,1115.68 319.859,1115.68 320.573,1115.68 321.286,1115.68 322,1115.68 322.714,1115.68 323.428,1115.68 324.142,1115.68 324.855,1115.68 325.569,1115.68 326.283,1115.68 326.997,1115.68 327.711,1115.68 328.424,1115.68 329.138,1115.68 329.852,1115.68 330.566,1115.68 331.28,1115.68 331.993,1115.68 332.707,1115.68 333.421,1115.68 334.135,1115.68 334.849,1115.68 335.562,1115.68 336.276,1115.68 336.99,1115.68 337.704,1115.68 338.418,1115.68 339.131,1115.68 339.845,1115.68 340.559,1115.68 341.273,1115.68 341.987,1115.68 342.7,1115.68 343.414,1115.68 344.128,1115.68 344.842,1115.68 345.556,1115.68 346.269,1115.68 346.983,1115.68 347.697,1115.68 348.411,1115.68 349.125,1115.68 349.838,1115.68 350.552,1115.68 351.266,1115.68 351.98,1115.68 352.694,1115.68 353.407,1115.68 354.121,1115.68 354.835,1115.68 355.549,1115.68 356.263,1115.68 356.976,1115.68 357.69,1115.68 358.404,1115.68 359.118,1115.68 359.832,1115.68 360.545,1115.68 361.259,1115.68 361.973,1115.68 362.687,1115.68 363.401,1115.68 364.114,1115.68 364.828,1115.68 365.542,1115.68 366.256,1115.68 366.97,1115.68 367.683,1115.68 368.397,1115.68 369.111,1115.68 369.825,1115.68 370.539,1115.68 371.252,1115.68 371.966,1115.68 372.68,1115.68 373.394,1115.68 374.108,1115.68 374.821,1115.68 375.535,1115.68 376.249,1115.68 376.963,1115.68 377.677,1115.68 378.39,1115.68 379.104,1115.68 379.818,1115.68 380.532,1115.68 381.246,1115.68 381.959,1115.68 382.673,1115.68 383.387,1115.68 384.101,1115.68 384.814,1115.68 385.528,1115.68 386.242,1115.68 386.956,1115.68 387.67,1115.68 388.383,1115.68 389.097,1115.68 389.811,1115.68 390.525,1115.68 391.239,1115.68 391.952,1115.68 392.666,1115.68 393.38,1115.68 394.094,1115.68 394.808,1115.68 395.521,1115.68 396.235,1115.68 396.949,1115.68 397.663,1115.68 398.377,1115.68 399.09,1115.68 399.804,1115.68 400.518,1115.68 401.232,1115.68 401.946,1115.68 402.659,1115.68 403.373,1115.68 404.087,1115.68 404.801,1115.68 405.515,1115.68 406.228,1115.68 406.942,1115.68 407.656,1115.68 408.37,1115.68 409.084,1115.68 409.797,1115.68 410.511,1115.68 411.225,1115.68 411.939,1115.68 412.653,1115.68 413.366,1115.68 414.08,1115.68 414.794,1115.68 415.508,1115.68 416.222,1115.68 416.935,1115.68 417.649,1115.68 418.363,1115.68 419.077,1115.68 419.791,1115.68 420.504,1115.68 421.218,1115.68 421.932,1115.68 422.646,1115.68 423.36,1115.68 424.073,1115.68 424.787,1115.68 425.501,1115.68 426.215,1115.68 426.929,1115.68 427.642,1115.68 428.356,1115.68 429.07,1115.68 429.784,1115.68 430.498,1115.68 431.211,1115.68 431.925,1115.68 432.639,1115.68 433.353,1115.68 434.067,1115.68 434.78,1115.68 435.494,1070.92 436.208,1070.92 436.922,1070.92 437.636,1070.92 438.349,1070.92 439.063,1070.92 439.777,1070.92 440.491,1070.92 441.205,1070.92 441.918,1070.92 442.632,1070.92 443.346,1070.92 444.06,1070.92 444.774,1070.92 445.487,1070.92 446.201,1070.92 446.915,1070.92 447.629,1070.92 448.343,1070.92 449.056,1070.92 449.77,1070.92 450.484,1070.92 451.198,1070.92 451.912,1070.92 452.625,1070.92 453.339,1070.92 454.053,1070.92 454.767,1070.92 455.481,1070.92 456.194,1070.92 456.908,1070.92 457.622,1070.92 458.336,1070.92 459.05,1070.92 459.763,1070.92 460.477,1070.92 461.191,1070.92 461.905,1070.92 462.618,1070.92 463.332,1070.92 464.046,1070.92 464.76,1070.92 465.474,1070.92 466.187,1070.92 466.901,1070.92 467.615,1070.92 468.329,1070.92 469.043,1070.92 469.756,1070.92 470.47,1070.92 471.184,1070.92 471.898,1070.92 472.612,1070.92 473.325,1070.92 474.039,1070.92 474.753,1070.92 475.467,1070.92 476.181,1070.92 476.894,1070.92 477.608,1070.92 478.322,1070.92 479.036,1070.92 479.75,1070.92 480.463,1070.92 481.177,1070.92 481.891,1070.92 482.605,1070.92 483.319,1070.92 484.032,1070.92 484.746,1070.92 485.46,1070.92 486.174,1070.92 486.888,1070.92 487.601,1070.92 488.315,1070.92 489.029,1070.92 489.743,1070.92 490.457,1070.92 491.17,1070.92 491.884,1070.92 492.598,1070.92 493.312,1070.92 494.026,1070.92 494.739,1070.92 495.453,1070.92 496.167,1070.92 496.881,1070.92 497.595,1070.92 498.308,1070.92 499.022,1070.92 499.736,1070.92 500.45,1070.92 501.164,1070.92 501.877,1070.92 502.591,1070.92 503.305,1070.92 504.019,1070.92 504.733,1070.92 505.446,1070.92 506.16,1070.92 506.874,1070.92 507.588,1070.92 508.302,1070.92 509.015,1070.92 509.729,1070.92 510.443,1070.92 511.157,1070.92 511.871,1070.92 512.584,1070.92 513.298,1070.92 514.012,1070.92 514.726,1070.92 515.44,1070.92 516.153,1070.92 516.867,1070.92 517.581,1070.92 518.295,1070.92 519.009,1070.92 519.722,1070.92 520.436,1070.92 521.15,1070.92 521.864,1070.92 522.578,1070.92 523.291,1070.92 524.005,1070.92 524.719,1070.92 525.433,1070.92 526.147,1070.92 526.86,1070.92 527.574,1070.92 528.288,1070.92 529.002,1070.92 529.716,1070.92 530.429,1070.92 531.143,1070.92 531.857,1070.92 532.571,1070.92 533.285,1070.92 533.998,1070.92 534.712,1070.92 535.426,1070.92 536.14,1070.92 536.853,1070.92 537.567,1070.92 538.281,1070.92 538.995,1070.92 539.709,1070.92 540.422,1070.92 541.136,1070.92 541.85,1070.92 542.564,1070.92 543.278,1026.15 543.991,1026.15 544.705,1026.15 545.419,1026.15 546.133,1026.15 546.847,1026.15 547.56,1026.15 548.274,1026.15 548.988,1026.15 549.702,1026.15 550.416,1026.15 551.129,1026.15 551.843,1026.15 552.557,1026.15 553.271,1026.15 553.985,1026.15 554.698,1026.15 555.412,1026.15 556.126,1026.15 556.84,1026.15 557.554,1026.15 558.267,1026.15 558.981,1026.15 559.695,1026.15 560.409,1026.15 561.123,1026.15 561.836,1026.15 562.55,1026.15 563.264,1026.15 563.978,1026.15 564.692,1026.15 565.405,1026.15 566.119,1026.15 566.833,1026.15 567.547,1026.15 568.261,1026.15 568.974,1026.15 569.688,1026.15 570.402,1026.15 571.116,1026.15 571.83,1026.15 572.543,1026.15 573.257,1026.15 573.971,1026.15 574.685,1026.15 575.399,1026.15 576.112,1026.15 576.826,1026.15 577.54,1026.15 578.254,1026.15 578.968,1026.15 579.681,1026.15 580.395,1026.15 581.109,1026.15 581.823,1026.15 582.537,1026.15 583.25,1026.15 583.964,1026.15 584.678,1026.15 585.392,1026.15 586.106,1026.15 586.819,1026.15 587.533,1026.15 588.247,1026.15 588.961,1026.15 589.675,1026.15 590.388,1026.15 591.102,1026.15 591.816,1026.15 592.53,1026.15 593.244,1026.15 593.957,1026.15 594.671,1026.15 595.385,1026.15 596.099,1026.15 596.813,1026.15 597.526,1026.15 598.24,1026.15 598.954,1026.15 599.668,1026.15 600.382,1026.15 601.095,1026.15 601.809,1026.15 602.523,1026.15 603.237,1026.15 603.951,1026.15 604.664,1026.15 605.378,1026.15 606.092,1026.15 606.806,1026.15 607.52,1026.15 608.233,1026.15 608.947,1026.15 609.661,1026.15 610.375,1026.15 611.089,1026.15 611.802,1026.15 612.516,1026.15 613.23,1026.15 613.944,1026.15 614.657,1026.15 615.371,1026.15 616.085,1026.15 616.799,1026.15 617.513,1026.15 618.226,1026.15 618.94,981.394 619.654,981.394 620.368,981.394 621.082,981.394 621.795,981.394 622.509,981.394 623.223,981.394 623.937,981.394 624.651,981.394 625.364,981.394 626.078,981.394 626.792,981.394 627.506,981.394 628.22,981.394 628.933,981.394 629.647,981.394 630.361,981.394 631.075,981.394 631.789,981.394 632.502,981.394 633.216,981.394 633.93,981.394 634.644,981.394 635.358,981.394 636.071,981.394 636.785,981.394 637.499,981.394 638.213,981.394 638.927,981.394 639.64,981.394 640.354,981.394 641.068,981.394 641.782,981.394 642.496,981.394 643.209,981.394 643.923,981.394 644.637,981.394 645.351,981.394 646.065,981.394 646.778,981.394 647.492,981.394 648.206,981.394 648.92,981.394 649.634,981.394 650.347,981.394 651.061,981.394 651.775,981.394 652.489,981.394 653.203,981.394 653.916,981.394 654.63,981.394 655.344,981.394 656.058,981.394 656.772,981.394 657.485,981.394 658.199,981.394 658.913,981.394 659.627,981.394 660.341,981.394 661.054,981.394 661.768,981.394 662.482,981.394 663.196,981.394 663.91,981.394 664.623,981.394 665.337,981.394 666.051,981.394 666.765,981.394 667.479,981.394 668.192,981.394 668.906,981.394 669.62,981.394 670.334,981.394 671.048,981.394 671.761,981.394 672.475,981.394 673.189,981.394 673.903,981.394 674.617,981.394 675.33,981.394 676.044,981.394 676.758,981.394 677.472,981.394 678.186,981.394 678.899,981.394 679.613,981.394 680.327,981.394 681.041,981.394 681.755,981.394 682.468,981.394 683.182,981.394 683.896,981.394 684.61,981.394 685.324,981.394 686.037,981.394 686.751,981.394 687.465,981.394 688.179,981.394 688.892,981.394 689.606,981.394 690.32,936.634 691.034,936.634 691.748,936.634 692.461,936.634 693.175,936.634 693.889,936.634 694.603,936.634 695.317,936.634 696.03,936.634 696.744,936.634 697.458,936.634 698.172,936.634 698.886,936.634 699.599,936.634 700.313,936.634 701.027,936.634 701.741,936.634 702.455,936.634 703.168,936.634 703.882,936.634 704.596,936.634 705.31,936.634 706.024,936.634 706.737,936.634 707.451,936.634 708.165,936.634 708.879,936.634 709.593,936.634 710.306,936.634 711.02,936.634 711.734,936.634 712.448,936.634 713.162,936.634 713.875,936.634 714.589,936.634 715.303,936.634 716.017,936.634 716.731,936.634 717.444,936.634 718.158,936.634 718.872,936.634 719.586,936.634 720.3,936.634 721.013,936.634 721.727,936.634 722.441,936.634 723.155,936.634 723.869,936.634 724.582,936.634 725.296,936.634 726.01,936.634 726.724,936.634 727.438,936.634 728.151,936.634 728.865,936.634 729.579,936.634 730.293,936.634 731.007,936.634 731.72,936.634 732.434,936.634 733.148,936.634 733.862,936.634 734.576,936.634 735.289,936.634 736.003,936.634 736.717,936.634 737.431,936.634 738.145,936.634 738.858,936.634 739.572,936.634 740.286,936.634 741,936.634 741.714,936.634 742.427,936.634 743.141,936.634 743.855,936.634 744.569,936.634 745.283,936.634 745.996,936.634 746.71,936.634 747.424,936.634 748.138,936.634 748.852,936.634 749.565,936.634 750.279,936.634 750.993,936.634 751.707,936.634 752.421,936.634 753.134,936.634 753.848,936.634 754.562,936.634 755.276,936.634 755.99,936.634 756.703,936.634 757.417,936.634 758.131,936.634 758.845,936.634 759.559,936.634 760.272,936.634 760.986,936.634 761.7,936.634 762.414,936.634 763.127,936.634 763.841,936.634 764.555,936.634 765.269,936.634 765.983,936.634 766.696,936.634 767.41,936.634 768.124,936.634 768.838,936.634 769.552,936.634 770.265,936.634 770.979,936.634 771.693,936.634 772.407,936.634 773.121,936.634 773.834,936.634 774.548,936.634 775.262,936.634 775.976,936.634 776.69,936.634 777.403,936.634 778.117,936.634 778.831,936.634 779.545,936.634 780.259,936.634 780.972,891.873 781.686,891.873 782.4,891.873 783.114,891.873 783.828,891.873 784.541,891.873 785.255,891.873 785.969,891.873 786.683,891.873 787.397,891.873 788.11,891.873 788.824,891.873 789.538,891.873 790.252,891.873 790.966,891.873 791.679,891.873 792.393,891.873 793.107,891.873 793.821,891.873 794.535,891.873 795.248,891.873 795.962,891.873 796.676,891.873 797.39,891.873 798.104,891.873 798.817,891.873 799.531,891.873 800.245,891.873 800.959,891.873 801.673,891.873 802.386,891.873 803.1,891.873 803.814,891.873 804.528,891.873 805.242,891.873 805.955,891.873 806.669,891.873 807.383,891.873 808.097,891.873 808.811,891.873 809.524,891.873 810.238,891.873 810.952,891.873 811.666,891.873 812.38,891.873 813.093,891.873 813.807,891.873 814.521,891.873 815.235,891.873 815.949,891.873 816.662,891.873 817.376,891.873 818.09,891.873 818.804,891.873 819.518,891.873 820.231,891.873 820.945,891.873 821.659,891.873 822.373,891.873 823.087,891.873 823.8,891.873 824.514,891.873 825.228,891.873 825.942,891.873 826.656,891.873 827.369,891.873 828.083,891.873 828.797,891.873 829.511,891.873 830.225,891.873 830.938,891.873 831.652,891.873 832.366,891.873 833.08,891.873 833.794,891.873 834.507,891.873 835.221,891.873 835.935,891.873 836.649,891.873 837.363,891.873 838.076,891.873 838.79,891.873 839.504,891.873 840.218,891.873 840.931,891.873 841.645,891.873 842.359,891.873 843.073,891.873 843.787,891.873 844.5,891.873 845.214,891.873 845.928,891.873 846.642,891.873 847.356,891.873 848.069,891.873 848.783,891.873 849.497,891.873 850.211,891.873 850.925,891.873 851.638,891.873 852.352,891.873 853.066,891.873 853.78,891.873 854.494,891.873 855.207,891.873 855.921,891.873 856.635,891.873 857.349,891.873 858.063,891.873 858.776,891.873 859.49,891.873 860.204,847.113 860.918,847.113 861.632,847.113 862.345,847.113 863.059,847.113 863.773,847.113 864.487,847.113 865.201,847.113 865.914,847.113 866.628,847.113 867.342,847.113 868.056,847.113 868.77,847.113 869.483,847.113 870.197,847.113 870.911,847.113 871.625,847.113 872.339,847.113 873.052,847.113 873.766,847.113 874.48,847.113 875.194,847.113 875.908,847.113 876.621,847.113 877.335,847.113 878.049,847.113 878.763,847.113 879.477,847.113 880.19,847.113 880.904,847.113 881.618,802.353 882.332,802.353 883.046,802.353 883.759,802.353 884.473,802.353 885.187,802.353 885.901,802.353 886.615,802.353 887.328,802.353 888.042,802.353 888.756,802.353 889.47,802.353 890.184,802.353 890.897,802.353 891.611,802.353 892.325,802.353 893.039,802.353 893.753,802.353 894.466,802.353 895.18,802.353 895.894,802.353 896.608,802.353 897.322,802.353 898.035,802.353 898.749,802.353 899.463,802.353 900.177,802.353 900.891,802.353 901.604,802.353 902.318,802.353 903.032,802.353 903.746,802.353 904.46,802.353 905.173,802.353 905.887,802.353 906.601,802.353 907.315,802.353 908.029,802.353 908.742,802.353 909.456,802.353 910.17,802.353 910.884,802.353 911.598,802.353 912.311,802.353 913.025,802.353 913.739,802.353 914.453,802.353 915.166,802.353 915.88,802.353 916.594,802.353 917.308,802.353 918.022,802.353 918.735,802.353 919.449,802.353 920.163,802.353 920.877,802.353 921.591,802.353 922.304,802.353 923.018,802.353 923.732,802.353 924.446,802.353 925.16,802.353 925.873,802.353 926.587,802.353 927.301,802.353 928.015,802.353 928.729,802.353 929.442,802.353 930.156,802.353 930.87,802.353 931.584,802.353 932.298,802.353 933.011,802.353 933.725,802.353 934.439,802.353 935.153,802.353 935.867,802.353 936.58,802.353 937.294,802.353 938.008,802.353 938.722,802.353 939.436,802.353 940.149,802.353 940.863,802.353 941.577,802.353 942.291,802.353 943.005,802.353 943.718,802.353 944.432,802.353 945.146,802.353 945.86,802.353 946.574,802.353 947.287,757.592 948.001,757.592 948.715,757.592 949.429,757.592 950.143,757.592 950.856,757.592 951.57,757.592 952.284,757.592 952.998,757.592 953.712,757.592 954.425,757.592 955.139,757.592 955.853,757.592 956.567,757.592 957.281,757.592 957.994,757.592 958.708,757.592 959.422,757.592 960.136,757.592 960.85,757.592 961.563,757.592 962.277,757.592 962.991,757.592 963.705,757.592 964.419,757.592 965.132,757.592 965.846,757.592 966.56,757.592 967.274,757.592 967.988,757.592 968.701,757.592 969.415,757.592 970.129,757.592 970.843,757.592 971.557,757.592 972.27,757.592 972.984,757.592 973.698,757.592 974.412,757.592 975.126,757.592 975.839,757.592 976.553,757.592 977.267,757.592 977.981,757.592 978.695,757.592 979.408,757.592 980.122,757.592 980.836,757.592 981.55,757.592 982.264,757.592 982.977,757.592 983.691,757.592 984.405,757.592 985.119,757.592 985.833,757.592 986.546,757.592 987.26,757.592 987.974,757.592 988.688,757.592 989.402,757.592 990.115,757.592 990.829,757.592 991.543,757.592 992.257,757.592 992.97,757.592 993.684,757.592 994.398,757.592 995.112,757.592 995.826,757.592 996.539,757.592 997.253,757.592 997.967,757.592 998.681,757.592 999.395,757.592 1000.11,757.592 1000.82,757.592 1001.54,757.592 1002.25,757.592 1002.96,757.592 1003.68,757.592 1004.39,757.592 1005.11,757.592 1005.82,757.592 1006.53,757.592 1007.25,757.592 1007.96,757.592 1008.67,712.832 1009.39,712.832 1010.1,712.832 1010.82,712.832 1011.53,712.832 1012.24,712.832 1012.96,712.832 1013.67,712.832 1014.38,712.832 1015.1,712.832 1015.81,712.832 1016.53,712.832 1017.24,712.832 1017.95,712.832 1018.67,712.832 1019.38,712.832 1020.09,712.832 1020.81,712.832 1021.52,712.832 1022.24,712.832 1022.95,712.832 1023.66,712.832 1024.38,712.832 1025.09,712.832 1025.81,712.832 1026.52,712.832 1027.23,712.832 1027.95,712.832 1028.66,712.832 1029.37,712.832 1030.09,712.832 1030.8,712.832 1031.52,712.832 1032.23,712.832 1032.94,712.832 1033.66,712.832 1034.37,712.832 1035.08,712.832 1035.8,712.832 1036.51,712.832 1037.23,712.832 1037.94,712.832 1038.65,712.832 1039.37,712.832 1040.08,712.832 1040.79,712.832 1041.51,712.832 1042.22,712.832 1042.94,712.832 1043.65,712.832 1044.36,712.832 1045.08,712.832 1045.79,712.832 1046.51,712.832 1047.22,712.832 1047.93,712.832 1048.65,712.832 1049.36,712.832 1050.07,712.832 1050.79,712.832 1051.5,712.832 1052.22,712.832 1052.93,712.832 1053.64,712.832 1054.36,712.832 1055.07,712.832 1055.78,712.832 1056.5,712.832 1057.21,712.832 1057.93,712.832 1058.64,712.832 1059.35,712.832 1060.07,712.832 1060.78,712.832 1061.5,712.832 1062.21,712.832 1062.92,712.832 1063.64,712.832 1064.35,712.832 1065.06,712.832 1065.78,712.832 1066.49,712.832 1067.21,712.832 1067.92,712.832 1068.63,712.832 1069.35,712.832 1070.06,712.832 1070.77,712.832 1071.49,712.832 1072.2,712.832 1072.92,712.832 1073.63,712.832 1074.34,712.832 1075.06,668.071 1075.77,668.071 1076.48,668.071 1077.2,668.071 1077.91,668.071 1078.63,668.071 1079.34,668.071 1080.05,668.071 1080.77,668.071 1081.48,668.071 1082.2,668.071 1082.91,668.071 1083.62,668.071 1084.34,668.071 1085.05,668.071 1085.76,668.071 1086.48,668.071 1087.19,668.071 1087.91,668.071 1088.62,668.071 1089.33,668.071 1090.05,668.071 1090.76,668.071 1091.47,668.071 1092.19,668.071 1092.9,668.071 1093.62,668.071 1094.33,668.071 1095.04,668.071 1095.76,668.071 1096.47,668.071 1097.19,668.071 1097.9,668.071 1098.61,668.071 1099.33,668.071 1100.04,668.071 1100.75,668.071 1101.47,668.071 1102.18,668.071 1102.9,668.071 1103.61,668.071 1104.32,668.071 1105.04,668.071 1105.75,668.071 1106.46,668.071 1107.18,668.071 1107.89,668.071 1108.61,668.071 1109.32,668.071 1110.03,668.071 1110.75,668.071 1111.46,668.071 1112.17,668.071 1112.89,668.071 1113.6,668.071 1114.32,668.071 1115.03,668.071 1115.74,668.071 1116.46,668.071 1117.17,668.071 1117.89,668.071 1118.6,668.071 1119.31,668.071 1120.03,668.071 1120.74,668.071 1121.45,668.071 1122.17,668.071 1122.88,668.071 1123.6,668.071 1124.31,668.071 1125.02,668.071 1125.74,668.071 1126.45,668.071 1127.16,668.071 1127.88,668.071 1128.59,668.071 1129.31,668.071 1130.02,668.071 1130.73,668.071 1131.45,668.071 1132.16,668.071 1132.87,668.071 1133.59,668.071 1134.3,668.071 1135.02,668.071 1135.73,668.071 1136.44,668.071 1137.16,668.071 1137.87,668.071 1138.59,668.071 1139.3,668.071 1140.01,668.071 1140.73,668.071 1141.44,668.071 1142.15,668.071 1142.87,668.071 1143.58,668.071 1144.3,668.071 1145.01,668.071 1145.72,668.071 1146.44,668.071 1147.15,668.071 1147.86,668.071 1148.58,668.071 1149.29,668.071 1150.01,668.071 1150.72,668.071 1151.43,668.071 1152.15,668.071 1152.86,668.071 1153.58,668.071 1154.29,668.071 1155,668.071 1155.72,668.071 1156.43,668.071 1157.14,668.071 1157.86,668.071 1158.57,668.071 1159.29,668.071 1160,668.071 1160.71,668.071 1161.43,668.071 1162.14,668.071 1162.85,668.071 1163.57,668.071 1164.28,668.071 1165,668.071 1165.71,668.071 1166.42,668.071 1167.14,668.071 1167.85,668.071 1168.56,668.071 1169.28,668.071 1169.99,668.071 1170.71,668.071 1171.42,668.071 1172.13,668.071 1172.85,668.071 1173.56,668.071 1174.28,668.071 1174.99,668.071 1175.7,668.071 1176.42,668.071 1177.13,668.071 1177.84,668.071 1178.56,668.071 1179.27,668.071 1179.99,668.071 1180.7,668.071 1181.41,668.071 1182.13,623.311 1182.84,623.311 1183.55,623.311 1184.27,623.311 1184.98,623.311 1185.7,623.311 1186.41,623.311 1187.12,623.311 1187.84,623.311 1188.55,623.311 1189.26,623.311 1189.98,623.311 1190.69,623.311 1191.41,623.311 1192.12,623.311 1192.83,623.311 1193.55,623.311 1194.26,623.311 1194.98,623.311 1195.69,623.311 1196.4,623.311 1197.12,623.311 1197.83,623.311 1198.54,623.311 1199.26,623.311 1199.97,623.311 1200.69,623.311 1201.4,623.311 1202.11,623.311 1202.83,623.311 1203.54,623.311 1204.25,623.311 1204.97,623.311 1205.68,623.311 1206.4,623.311 1207.11,623.311 1207.82,623.311 1208.54,623.311 1209.25,623.311 1209.97,623.311 1210.68,623.311 1211.39,623.311 1212.11,623.311 1212.82,578.55 1213.53,578.55 1214.25,578.55 1214.96,578.55 1215.68,578.55 1216.39,578.55 1217.1,578.55 1217.82,578.55 1218.53,578.55 1219.24,578.55 1219.96,578.55 1220.67,578.55 1221.39,578.55 1222.1,578.55 1222.81,578.55 1223.53,578.55 1224.24,578.55 1224.95,578.55 1225.67,578.55 1226.38,578.55 1227.1,578.55 1227.81,578.55 1228.52,578.55 1229.24,578.55 1229.95,578.55 1230.67,578.55 1231.38,578.55 1232.09,578.55 1232.81,578.55 1233.52,578.55 1234.23,578.55 1234.95,578.55 1235.66,578.55 1236.38,578.55 1237.09,578.55 1237.8,578.55 1238.52,578.55 1239.23,578.55 1239.94,578.55 1240.66,578.55 1241.37,578.55 1242.09,578.55 1242.8,578.55 1243.51,578.55 1244.23,578.55 1244.94,578.55 1245.66,578.55 1246.37,578.55 1247.08,578.55 1247.8,578.55 1248.51,578.55 1249.22,578.55 1249.94,578.55 1250.65,578.55 1251.37,578.55 1252.08,578.55 1252.79,578.55 1253.51,578.55 1254.22,578.55 1254.93,578.55 1255.65,578.55 1256.36,578.55 1257.08,578.55 1257.79,578.55 1258.5,578.55 1259.22,578.55 1259.93,578.55 1260.64,578.55 1261.36,578.55 1262.07,578.55 1262.79,578.55 1263.5,578.55 1264.21,578.55 1264.93,578.55 1265.64,578.55 1266.36,578.55 1267.07,578.55 1267.78,578.55 1268.5,578.55 1269.21,578.55 1269.92,578.55 1270.64,533.79 1271.35,533.79 1272.07,533.79 1272.78,533.79 1273.49,533.79 1274.21,533.79 1274.92,533.79 1275.63,533.79 1276.35,533.79 1277.06,533.79 1277.78,533.79 1278.49,533.79 1279.2,533.79 1279.92,533.79 1280.63,533.79 1281.34,533.79 1282.06,533.79 1282.77,533.79 1283.49,533.79 1284.2,533.79 1284.91,533.79 1285.63,533.79 1286.34,533.79 1287.06,533.79 1287.77,533.79 1288.48,533.79 1289.2,533.79 1289.91,533.79 1290.62,533.79 1291.34,533.79 1292.05,533.79 1292.77,533.79 1293.48,533.79 1294.19,533.79 1294.91,533.79 1295.62,533.79 1296.33,533.79 1297.05,533.79 1297.76,533.79 1298.48,533.79 1299.19,533.79 1299.9,489.03 1300.62,489.03 1301.33,489.03 1302.05,489.03 1302.76,489.03 1303.47,489.03 1304.19,489.03 1304.9,489.03 1305.61,489.03 1306.33,489.03 1307.04,489.03 1307.76,489.03 1308.47,489.03 1309.18,489.03 1309.9,489.03 1310.61,489.03 1311.32,489.03 1312.04,489.03 1312.75,489.03 1313.47,489.03 1314.18,489.03 1314.89,489.03 1315.61,489.03 1316.32,489.03 1317.03,489.03 1317.75,489.03 1318.46,489.03 1319.18,489.03 1319.89,489.03 1320.6,489.03 1321.32,489.03 1322.03,489.03 1322.75,489.03 1323.46,489.03 1324.17,489.03 1324.89,489.03 1325.6,489.03 1326.31,489.03 1327.03,489.03 1327.74,489.03 1328.46,489.03 1329.17,489.03 1329.88,489.03 1330.6,489.03 1331.31,489.03 1332.02,489.03 1332.74,489.03 1333.45,489.03 1334.17,489.03 1334.88,489.03 1335.59,489.03 1336.31,489.03 1337.02,489.03 1337.73,489.03 1338.45,489.03 1339.16,489.03 1339.88,489.03 1340.59,489.03 1341.3,489.03 1342.02,489.03 1342.73,489.03 1343.45,489.03 1344.16,489.03 1344.87,489.03 1345.59,489.03 1346.3,489.03 1347.01,489.03 1347.73,489.03 1348.44,489.03 1349.16,489.03 1349.87,489.03 1350.58,489.03 1351.3,489.03 1352.01,489.03 1352.72,489.03 1353.44,489.03 1354.15,489.03 1354.87,489.03 1355.58,489.03 1356.29,489.03 1357.01,489.03 1357.72,489.03 1358.44,489.03 1359.15,489.03 1359.86,489.03 1360.58,489.03 1361.29,489.03 1362,489.03 1362.72,489.03 1363.43,489.03 1364.15,489.03 1364.86,489.03 1365.57,489.03 1366.29,489.03 1367,489.03 1367.71,489.03 1368.43,489.03 1369.14,489.03 1369.86,489.03 1370.57,489.03 1371.28,489.03 1372,489.03 1372.71,489.03 1373.42,489.03 1374.14,489.03 1374.85,489.03 1375.57,489.03 1376.28,489.03 1376.99,489.03 1377.71,489.03 1378.42,489.03 1379.14,489.03 1379.85,489.03 1380.56,489.03 1381.28,489.03 1381.99,489.03 1382.7,489.03 1383.42,489.03 1384.13,489.03 1384.85,489.03 1385.56,489.03 1386.27,489.03 1386.99,489.03 1387.7,489.03 1388.41,489.03 1389.13,489.03 1389.84,489.03 1390.56,489.03 1391.27,489.03 1391.98,489.03 1392.7,489.03 1393.41,489.03 1394.13,489.03 1394.84,489.03 1395.55,489.03 1396.27,489.03 1396.98,489.03 1397.69,489.03 1398.41,489.03 1399.12,489.03 1399.84,489.03 1400.55,489.03 1401.26,489.03 1401.98,489.03 1402.69,489.03 1403.4,489.03 1404.12,489.03 1404.83,489.03 1405.55,489.03 1406.26,489.03 1406.97,489.03 1407.69,489.03 1408.4,489.03 1409.11,489.03 1409.83,489.03 1410.54,489.03 1411.26,489.03 1411.97,489.03 1412.68,489.03 1413.4,489.03 1414.11,489.03 1414.83,489.03 1415.54,489.03 1416.25,489.03 1416.97,489.03 1417.68,489.03 1418.39,489.03 1419.11,489.03 1419.82,489.03 1420.54,489.03 1421.25,489.03 1421.96,489.03 1422.68,489.03 1423.39,489.03 1424.1,489.03 1424.82,489.03 1425.53,489.03 1426.25,489.03 1426.96,489.03 1427.67,489.03 1428.39,489.03 1429.1,489.03 1429.81,489.03 1430.53,489.03 1431.24,489.03 1431.96,489.03 1432.67,489.03 1433.38,489.03 1434.1,489.03 1434.81,489.03 1435.53,489.03 1436.24,489.03 1436.95,489.03 1437.67,489.03 1438.38,489.03 1439.09,489.03 1439.81,489.03 1440.52,489.03 1441.24,444.269 1441.95,444.269 1442.66,444.269 1443.38,444.269 1444.09,444.269 1444.8,444.269 1445.52,444.269 1446.23,444.269 1446.95,444.269 1447.66,444.269 1448.37,444.269 1449.09,444.269 1449.8,444.269 1450.52,444.269 1451.23,444.269 1451.94,444.269 1452.66,444.269 1453.37,444.269 1454.08,444.269 1454.8,444.269 1455.51,444.269 1456.23,444.269 1456.94,444.269 1457.65,444.269 1458.37,444.269 1459.08,444.269 1459.79,444.269 1460.51,444.269 1461.22,444.269 1461.94,444.269 1462.65,444.269 1463.36,444.269 1464.08,444.269 1464.79,444.269 1465.5,444.269 1466.22,444.269 1466.93,444.269 1467.65,444.269 1468.36,444.269 1469.07,444.269 1469.79,444.269 1470.5,444.269 1471.22,444.269 1471.93,444.269 1472.64,444.269 1473.36,444.269 1474.07,444.269 1474.78,444.269 1475.5,444.269 1476.21,444.269 1476.93,444.269 1477.64,444.269 1478.35,444.269 1479.07,444.269 1479.78,444.269 1480.49,444.269 1481.21,444.269 1481.92,444.269 1482.64,444.269 1483.35,444.269 1484.06,444.269 1484.78,444.269 1485.49,444.269 1486.2,444.269 1486.92,444.269 1487.63,444.269 1488.35,444.269 1489.06,444.269 1489.77,444.269 1490.49,444.269 1491.2,444.269 1491.92,444.269 1492.63,444.269 1493.34,444.269 1494.06,444.269 1494.77,444.269 1495.48,444.269 1496.2,444.269 1496.91,444.269 1497.63,444.269 1498.34,444.269 1499.05,444.269 1499.77,444.269 1500.48,444.269 1501.19,444.269 1501.91,444.269 1502.62,444.269 1503.34,444.269 1504.05,444.269 1504.76,444.269 1505.48,444.269 1506.19,444.269 1506.91,444.269 1507.62,444.269 1508.33,444.269 1509.05,444.269 1509.76,444.269 1510.47,444.269 1511.19,444.269 1511.9,444.269 1512.62,444.269 1513.33,444.269 1514.04,444.269 1514.76,444.269 1515.47,444.269 1516.18,444.269 1516.9,444.269 1517.61,444.269 1518.33,444.269 1519.04,444.269 1519.75,444.269 1520.47,444.269 1521.18,444.269 1521.89,444.269 1522.61,444.269 1523.32,444.269 1524.04,444.269 1524.75,444.269 1525.46,444.269 1526.18,444.269 1526.89,444.269 1527.61,444.269 1528.32,444.269 1529.03,444.269 1529.75,444.269 1530.46,444.269 1531.17,444.269 1531.89,444.269 1532.6,444.269 1533.32,444.269 1534.03,444.269 1534.74,444.269 1535.46,444.269 1536.17,444.269 1536.88,444.269 1537.6,444.269 1538.31,444.269 1539.03,444.269 1539.74,444.269 1540.45,444.269 1541.17,444.269 1541.88,444.269 1542.6,444.269 1543.31,444.269 1544.02,444.269 1544.74,444.269 1545.45,444.269 1546.16,444.269 1546.88,444.269 1547.59,444.269 1548.31,444.269 1549.02,444.269 1549.73,444.269 1550.45,444.269 1551.16,444.269 1551.87,444.269 1552.59,444.269 1553.3,444.269 1554.02,444.269 1554.73,444.269 1555.44,444.269 1556.16,444.269 1556.87,444.269 1557.58,444.269 1558.3,444.269 1559.01,444.269 1559.73,444.269 1560.44,444.269 1561.15,444.269 1561.87,444.269 1562.58,444.269 1563.3,444.269 1564.01,444.269 1564.72,444.269 1565.44,444.269 1566.15,444.269 1566.86,444.269 1567.58,444.269 1568.29,444.269 1569.01,444.269 1569.72,444.269 1570.43,444.269 1571.15,444.269 1571.86,444.269 1572.57,444.269 1573.29,444.269 1574,444.269 1574.72,444.269 1575.43,444.269 1576.14,444.269 1576.86,444.269 1577.57,444.269 1578.28,444.269 1579,444.269 1579.71,444.269 1580.43,444.269 1581.14,444.269 1581.85,444.269 1582.57,444.269 1583.28,444.269 1584,444.269 1584.71,444.269 1585.42,444.269 1586.14,444.269 1586.85,444.269 1587.56,444.269 1588.28,444.269 1588.99,444.269 1589.71,444.269 1590.42,444.269 1591.13,444.269 1591.85,444.269 1592.56,444.269 1593.27,444.269 1593.99,444.269 1594.7,444.269 1595.42,444.269 1596.13,444.269 1596.84,444.269 1597.56,444.269 1598.27,444.269 1598.99,444.269 1599.7,444.269 1600.41,444.269 1601.13,444.269 1601.84,444.269 1602.55,444.269 1603.27,444.269 1603.98,444.269 1604.7,444.269 1605.41,444.269 1606.12,444.269 1606.84,444.269 1607.55,444.269 1608.26,444.269 1608.98,444.269 1609.69,444.269 1610.41,444.269 1611.12,444.269 1611.83,444.269 1612.55,444.269 1613.26,444.269 1613.97,444.269 1614.69,444.269 1615.4,444.269 1616.12,444.269 1616.83,444.269 1617.54,444.269 1618.26,444.269 1618.97,444.269 1619.69,444.269 1620.4,444.269 1621.11,444.269 1621.83,444.269 1622.54,444.269 1623.25,444.269 1623.97,444.269 1624.68,444.269 1625.4,444.269 1626.11,444.269 1626.82,444.269 1627.54,444.269 1628.25,444.269 1628.96,444.269 1629.68,444.269 1630.39,444.269 1631.11,444.269 1631.82,444.269 1632.53,444.269 1633.25,444.269 1633.96,444.269 1634.68,444.269 1635.39,444.269 1636.1,444.269 1636.82,444.269 1637.53,444.269 1638.24,444.269 1638.96,444.269 1639.67,444.269 1640.39,444.269 1641.1,444.269 1641.81,444.269 1642.53,444.269 1643.24,444.269 1643.95,444.269 1644.67,444.269 1645.38,444.269 1646.1,444.269 1646.81,444.269 1647.52,444.269 1648.24,444.269 1648.95,444.269 1649.66,444.269 1650.38,444.269 1651.09,444.269 1651.81,444.269 1652.52,444.269 1653.23,444.269 1653.95,444.269 1654.66,444.269 1655.38,444.269 1656.09,444.269 1656.8,444.269 1657.52,444.269 1658.23,444.269 1658.94,444.269 1659.66,444.269 1660.37,444.269 1661.09,444.269 1661.8,444.269 1662.51,444.269 1663.23,444.269 1663.94,444.269 1664.65,444.269 1665.37,444.269 1666.08,444.269 1666.8,444.269 1667.51,444.269 1668.22,444.269 1668.94,444.269 1669.65,444.269 1670.36,444.269 1671.08,444.269 1671.79,444.269 1672.51,444.269 1673.22,444.269 1673.93,444.269 1674.65,444.269 1675.36,444.269 1676.08,444.269 1676.79,444.269 1677.5,444.269 1678.22,444.269 1678.93,444.269 1679.64,444.269 1680.36,444.269 1681.07,444.269 1681.79,444.269 1682.5,444.269 1683.21,444.269 1683.93,444.269 1684.64,444.269 1685.35,444.269 1686.07,444.269 1686.78,444.269 1687.5,444.269 1688.21,444.269 1688.92,444.269 1689.64,444.269 1690.35,444.269 1691.07,444.269 1691.78,444.269 1692.49,444.269 1693.21,444.269 1693.92,444.269 1694.63,444.269 1695.35,444.269 1696.06,444.269 1696.78,444.269 1697.49,444.269 1698.2,444.269 1698.92,444.269 1699.63,444.269 1700.34,444.269 1701.06,444.269 1701.77,444.269 1702.49,444.269 1703.2,444.269 1703.91,444.269 1704.63,444.269 1705.34,444.269 1706.05,444.269 1706.77,444.269 1707.48,444.269 1708.2,444.269 1708.91,444.269 1709.62,444.269 1710.34,444.269 1711.05,444.269 1711.77,444.269 1712.48,444.269 1713.19,444.269 1713.91,444.269 1714.62,444.269 1715.33,444.269 1716.05,444.269 1716.76,444.269 1717.48,444.269 1718.19,444.269 1718.9,444.269 1719.62,444.269 1720.33,444.269 1721.04,444.269 1721.76,444.269 1722.47,444.269 1723.19,444.269 1723.9,444.269 1724.61,444.269 1725.33,399.509 1726.04,399.509 1726.75,399.509 1727.47,399.509 1728.18,399.509 1728.9,354.748 1729.61,354.748 1730.32,354.748 1731.04,354.748 1731.75,354.748 1732.47,354.748 1733.18,354.748 1733.89,354.748 1734.61,354.748 1735.32,354.748 1736.03,354.748 1736.75,354.748 1737.46,354.748 1738.18,354.748 1738.89,354.748 1739.6,354.748 1740.32,354.748 1741.03,354.748 1741.74,354.748 1742.46,354.748 1743.17,354.748 1743.89,354.748 1744.6,309.988 1745.31,309.988 1746.03,309.988 1746.74,309.988 1747.46,309.988 1748.17,309.988 1748.88,309.988 1749.6,309.988 1750.31,309.988 1751.02,309.988 1751.74,309.988 1752.45,309.988 1753.17,309.988 1753.88,309.988 1754.59,309.988 1755.31,309.988 1756.02,309.988 1756.73,309.988 1757.45,309.988 1758.16,309.988 1758.88,309.988 1759.59,309.988 1760.3,309.988 1761.02,309.988 1761.73,309.988 1762.44,309.988 1763.16,309.988 1763.87,309.988 1764.59,309.988 1765.3,309.988 1766.01,309.988 1766.73,309.988 1767.44,309.988 1768.16,309.988 1768.87,309.988 1769.58,309.988 1770.3,309.988 1771.01,309.988 1771.72,309.988 1772.44,309.988 1773.15,309.988 1773.87,309.988 1774.58,309.988 1775.29,309.988 1776.01,309.988 1776.72,309.988 1777.43,309.988 1778.15,309.988 1778.86,309.988 1779.58,309.988 1780.29,309.988 1781,309.988 1781.72,309.988 1782.43,309.988 1783.15,309.988 1783.86,309.988 1784.57,309.988 1785.29,309.988 1786,309.988 1786.71,309.988 1787.43,309.988 1788.14,309.988 1788.86,309.988 1789.57,309.988 1790.28,309.988 1791,309.988 1791.71,309.988 1792.42,309.988 1793.14,309.988 1793.85,309.988 1794.57,309.988 1795.28,309.988 1795.99,309.988 1796.71,309.988 1797.42,309.988 1798.13,309.988 1798.85,309.988 1799.56,309.988 1800.28,309.988 1800.99,309.988 1801.7,309.988 1802.42,309.988 1803.13,309.988 1803.85,309.988 1804.56,309.988 1805.27,309.988 1805.99,309.988 1806.7,309.988 1807.41,309.988 1808.13,309.988 1808.84,309.988 1809.56,309.988 1810.27,309.988 1810.98,309.988 1811.7,265.227 1812.41,265.227 1813.12,265.227 1813.84,265.227 1814.55,265.227 1815.27,265.227 1815.98,265.227 1816.69,265.227 1817.41,265.227 1818.12,265.227 1818.83,265.227 1819.55,265.227 1820.26,265.227 1820.98,265.227 1821.69,265.227 1822.4,265.227 1823.12,265.227 1823.83,265.227 1824.55,265.227 1825.26,265.227 1825.97,265.227 1826.69,265.227 1827.4,265.227 1828.11,265.227 1828.83,265.227 1829.54,265.227 1830.26,265.227 1830.97,265.227 1831.68,265.227 1832.4,265.227 1833.11,265.227 1833.82,265.227 1834.54,265.227 1835.25,265.227 1835.97,265.227 1836.68,265.227 1837.39,265.227 1838.11,265.227 1838.82,265.227 1839.54,265.227 1840.25,265.227 1840.96,265.227 1841.68,265.227 1842.39,265.227 1843.1,265.227 1843.82,265.227 1844.53,265.227 1845.25,265.227 1845.96,265.227 1846.67,265.227 1847.39,265.227 1848.1,265.227 1848.81,265.227 1849.53,265.227 1850.24,265.227 1850.96,265.227 1851.67,265.227 1852.38,265.227 1853.1,265.227 1853.81,265.227 1854.52,265.227 1855.24,265.227 1855.95,265.227 1856.67,265.227 1857.38,265.227 1858.09,265.227 1858.81,265.227 1859.52,265.227 1860.24,265.227 1860.95,265.227 1861.66,265.227 1862.38,265.227 1863.09,265.227 1863.8,265.227 1864.52,265.227 1865.23,265.227 1865.95,265.227 1866.66,265.227 1867.37,265.227 1868.09,265.227 1868.8,265.227 1869.51,265.227 1870.23,265.227 1870.94,265.227 1871.66,265.227 1872.37,265.227 1873.08,265.227 1873.8,265.227 1874.51,265.227 1875.22,265.227 1875.94,265.227 1876.65,265.227 1877.37,265.227 1878.08,265.227 1878.79,265.227 1879.51,265.227 1880.22,265.227 1880.94,265.227 1881.65,265.227 1882.36,265.227 1883.08,265.227 1883.79,265.227 1884.5,265.227 1885.22,265.227 1885.93,265.227 1886.65,265.227 1887.36,265.227 1888.07,265.227 1888.79,265.227 1889.5,265.227 1890.21,265.227 1890.93,220.467 1891.64,220.467 1892.36,220.467 1893.07,220.467 1893.78,220.467 1894.5,220.467 1895.21,220.467 1895.93,220.467 1896.64,220.467 1897.35,220.467 1898.07,220.467 1898.78,220.467 1899.49,220.467 1900.21,220.467 1900.92,220.467 1901.64,220.467 1902.35,220.467 1903.06,220.467 1903.78,220.467 1904.49,220.467 1905.2,220.467 1905.92,220.467 1906.63,220.467 1907.35,220.467 1908.06,220.467 1908.77,220.467 1909.49,220.467 1910.2,220.467 1910.91,220.467 1911.63,220.467 1912.34,220.467 1913.06,220.467 1913.77,220.467 1914.48,220.467 1915.2,220.467 1915.91,220.467 1916.63,220.467 1917.34,220.467 1918.05,220.467 1918.77,220.467 1919.48,220.467 1920.19,220.467 1920.91,220.467 1921.62,220.467 1922.34,220.467 1923.05,220.467 1923.76,220.467 1924.48,220.467 1925.19,220.467 1925.9,220.467 1926.62,220.467 1927.33,220.467 1928.05,220.467 1928.76,220.467 1929.47,220.467 1930.19,220.467 1930.9,220.467 1931.62,220.467 1932.33,220.467 1933.04,220.467 1933.76,220.467 1934.47,220.467 1935.18,220.467 1935.9,220.467 1936.61,220.467 1937.33,220.467 1938.04,220.467 1938.75,220.467 1939.47,220.467 1940.18,220.467 1940.89,220.467 1941.61,220.467 1942.32,220.467 1943.04,220.467 1943.75,220.467 1944.46,220.467 1945.18,220.467 1945.89,220.467 1946.6,220.467 1947.32,220.467 1948.03,220.467 1948.75,220.467 1949.46,220.467 1950.17,220.467 1950.89,220.467 1951.6,220.467 1952.32,220.467 1953.03,220.467 1953.74,220.467 1954.46,220.467 1955.17,220.467 1955.88,220.467 1956.6,220.467 1957.31,220.467 1958.03,220.467 1958.74,220.467 1959.45,220.467 1960.17,220.467 1960.88,220.467 1961.59,220.467 1962.31,220.467 1963.02,220.467 1963.74,220.467 1964.45,220.467 1965.16,220.467 1965.88,220.467 1966.59,220.467 1967.3,220.467 1968.02,220.467 1968.73,220.467 1969.45,220.467 1970.16,220.467 1970.87,220.467 1971.59,220.467 1972.3,220.467 1973.02,220.467 1973.73,220.467 1974.44,220.467 1975.16,220.467 1975.87,220.467 1976.58,220.467 1977.3,220.467 1978.01,220.467 1978.73,220.467 1979.44,220.467 1980.15,220.467 1980.87,220.467 1981.58,220.467 1982.29,220.467 1983.01,220.467 1983.72,220.467 1984.44,220.467 1985.15,220.467 1985.86,220.467 1986.58,220.467 1987.29,220.467 1988.01,220.467 1988.72,220.467 1989.43,220.467 1990.15,220.467 1990.86,220.467 1991.57,220.467 1992.29,220.467 1993,220.467 1993.72,220.467 1994.43,220.467 1995.14,220.467 1995.86,220.467 1996.57,220.467 1997.28,220.467 1998,220.467 1998.71,220.467 1999.43,220.467 2000.14,220.467 2000.85,220.467 2001.57,220.467 2002.28,220.467 2002.99,220.467 2003.71,220.467 2004.42,220.467 2005.14,220.467 2005.85,220.467 2006.56,220.467 2007.28,220.467 2007.99,220.467 2008.71,220.467 2009.42,220.467 2010.13,220.467 2010.85,220.467 2011.56,220.467 2012.27,220.467 2012.99,220.467 2013.7,220.467 2014.42,220.467 2015.13,220.467 2015.84,220.467 2016.56,220.467 2017.27,220.467 2017.98,220.467 2018.7,220.467 2019.41,220.467 2020.13,220.467 2020.84,220.467 2021.55,220.467 2022.27,220.467 2022.98,220.467 2023.69,220.467 2024.41,220.467 2025.12,220.467 2025.84,220.467 2026.55,220.467 2027.26,220.467 2027.98,220.467 2028.69,220.467 2029.41,220.467 2030.12,220.467 2030.83,220.467 2031.55,220.467 2032.26,220.467 2032.97,220.467 2033.69,220.467 2034.4,220.467 2035.12,220.467 2035.83,220.467 2036.54,220.467 2037.26,220.467 2037.97,220.467 2038.68,220.467 2039.4,220.467 2040.11,220.467 2040.83,220.467 2041.54,220.467 2042.25,220.467 2042.97,175.707 2043.68,175.707 2044.4,175.707 2045.11,175.707 2045.82,175.707 2046.54,175.707 2047.25,175.707 2047.96,175.707 2048.68,175.707 2049.39,175.707 2050.11,175.707 2050.82,175.707 2051.53,175.707 2052.25,175.707 2052.96,175.707 2053.67,175.707 2054.39,175.707 2055.1,175.707 2055.82,175.707 2056.53,175.707 2057.24,175.707 2057.96,175.707 2058.67,175.707 2059.38,175.707 2060.1,175.707 2060.81,175.707 2061.53,175.707 2062.24,175.707 2062.95,175.707 2063.67,175.707 2064.38,175.707 2065.1,175.707 2065.81,175.707 2066.52,175.707 2067.24,175.707 2067.95,175.707 2068.66,175.707 2069.38,175.707 2070.09,175.707 2070.81,175.707 2071.52,175.707 2072.23,175.707 2072.95,175.707 2073.66,175.707 2074.37,175.707 2075.09,175.707 2075.8,175.707 2076.52,175.707 2077.23,175.707 2077.94,175.707 2078.66,175.707 2079.37,175.707 2080.09,175.707 2080.8,175.707 2081.51,175.707 2082.23,175.707 2082.94,175.707 2083.65,175.707 2084.37,175.707 2085.08,175.707 2085.8,175.707 2086.51,175.707 2087.22,175.707 2087.94,175.707 2088.65,175.707 2089.36,175.707 2090.08,175.707 2090.79,175.707 2091.51,175.707 2092.22,175.707 2092.93,175.707 2093.65,175.707 2094.36,175.707 2095.07,175.707 2095.79,175.707 2096.5,175.707 2097.22,175.707 2097.93,175.707 2098.64,175.707 2099.36,175.707 2100.07,175.707 2100.79,175.707 2101.5,130.946 2102.21,130.946 2102.93,130.946 2103.64,130.946 2104.35,130.946 2105.07,130.946 2105.78,130.946 2106.5,130.946 2107.21,130.946 2107.92,130.946 2108.64,130.946 2109.35,130.946 2110.06,130.946 2110.78,130.946 2111.49,130.946 2112.21,130.946 2112.92,130.946 2113.63,130.946 2114.35,130.946 2115.06,130.946 2115.77,130.946 2116.49,130.946 2117.2,130.946 2117.92,130.946 2118.63,130.946 2119.34,130.946 2120.06,130.946 2120.77,130.946 2121.49,130.946 2122.2,130.946 2122.91,130.946 2123.63,130.946 2124.34,130.946 2125.05,130.946 2125.77,130.946 2126.48,130.946 2127.2,130.946 2127.91,130.946 2128.62,130.946 2129.34,130.946 2130.05,130.946 2130.76,130.946 2131.48,130.946 2132.19,130.946 2132.91,130.946 2133.62,130.946 2134.33,130.946 2135.05,130.946 2135.76,130.946 2136.48,130.946 2137.19,130.946 2137.9,130.946 2138.62,130.946 2139.33,130.946 2140.04,130.946 2140.76,130.946 2141.47,130.946 2142.19,130.946 2142.9,130.946 2143.61,130.946 2144.33,130.946 2145.04,130.946 2145.75,130.946 2146.47,130.946 2147.18,130.946 2147.9,130.946 2148.61,130.946 2149.32,130.946 2150.04,130.946 2150.75,130.946 2151.46,130.946 2152.18,130.946 2152.89,130.946 2153.61,130.946 2154.32,130.946 2155.03,130.946 2155.75,130.946 2156.46,130.946 2157.18,130.946 2157.89,130.946 2158.6,130.946 2159.32,130.946 2160.03,130.946 2160.74,130.946 2161.46,130.946 2162.17,130.946 2162.89,130.946 2163.6,130.946 2164.31,130.946 2165.03,130.946 2165.74,130.946 2166.45,130.946 2167.17,130.946 2167.88,130.946 2168.6,130.946 2169.31,130.946 2170.02,130.946 2170.74,130.946 2171.45,130.946 2172.16,130.946 2172.88,130.946 2173.59,130.946 2174.31,130.946 2175.02,130.946 2175.73,130.946 2176.45,130.946 2177.16,130.946 2177.88,130.946 2178.59,130.946 2179.3,130.946 2180.02,130.946 2180.73,130.946 2181.44,130.946 2182.16,130.946 2182.87,130.946 2183.59,130.946 2184.3,130.946 2185.01,130.946 2185.73,130.946 2186.44,130.946 2187.15,130.946 2187.87,130.946 2188.58,130.946 2189.3,130.946 2190.01,130.946 2190.72,130.946 2191.44,130.946 2192.15,130.946 2192.87,130.946 2193.58,130.946 2194.29,130.946 2195.01,130.946 2195.72,130.946 2196.43,130.946 2197.15,130.946 2197.86,130.946 2198.58,130.946 2199.29,130.946 2200,130.946 2200.72,130.946 2201.43,130.946 2202.14,130.946 2202.86,130.946 2203.57,130.946 2204.29,130.946 2205,130.946 2205.71,130.946 2206.43,130.946 2207.14,130.946 2207.85,130.946 2208.57,130.946 2209.28,130.946 2210,130.946 2210.71,130.946 2211.42,130.946 2212.14,130.946 2212.85,130.946 2213.57,130.946 2214.28,130.946 2214.99,130.946 2215.71,130.946 2216.42,130.946 2217.13,130.946 2217.85,130.946 2218.56,130.946 2219.28,130.946 2219.99,130.946 2220.7,130.946 2221.42,130.946 2222.13,130.946 2222.84,130.946 2223.56,130.946 2224.27,130.946 2224.99,130.946 2225.7,130.946 2226.41,130.946 2227.13,130.946 2227.84,130.946 2228.56,130.946 2229.27,130.946 2229.98,130.946 2230.7,130.946 2231.41,130.946 2232.12,130.946 2232.84,130.946 2233.55,130.946 2234.27,130.946 2234.98,130.946 2235.69,130.946 2236.41,130.946 2237.12,130.946 2237.83,130.946 2238.55,130.946 2239.26,130.946 2239.98,130.946 2240.69,130.946 2241.4,130.946 2242.12,130.946 2242.83,130.946 2243.54,130.946 2244.26,130.946 2244.97,130.946 2245.69,130.946 2246.4,130.946 2247.11,130.946 2247.83,130.946 2248.54,130.946 2249.26,130.946 2249.97,130.946 2250.68,130.946 2251.4,130.946 2252.11,130.946 2252.82,130.946 2253.54,130.946 2254.25,130.946 2254.97,130.946 2255.68,130.946 2256.39,130.946 2257.11,130.946 2257.82,130.946 2258.53,130.946 2259.25,130.946 2259.96,130.946 2260.68,130.946 2261.39,130.946 2262.1,130.946 2262.82,130.946 2263.53,130.946 2264.24,130.946 2264.96,130.946 2265.67,130.946 2266.39,130.946 2267.1,130.946 2267.81,130.946 2268.53,130.946 2269.24,130.946 2269.96,130.946 2270.67,130.946 2271.38,130.946 2272.1,130.946 2272.81,130.946 2273.52,130.946 2274.24,130.946 2274.95,130.946 2275.67,130.946 2276.38,130.946 2277.09,130.946 2277.81,130.946 2278.52,130.946 2279.23,130.946 2279.95,130.946 2280.66,130.946 2281.38,130.946 2282.09,130.946 2282.8,130.946 2283.52,130.946 2284.23,130.946 2284.95,130.946 2285.66,130.946 2286.37,130.946 2287.09,130.946 2287.8,130.946 2288.51,130.946 2289.23,130.946 2289.94,130.946 2290.66,130.946 2291.37,130.946 2292.08,130.946 2292.8,130.946 2293.51,130.946 2294.22,130.946 2294.94,130.946 2295.65,130.946 2296.37,130.946 2297.08,130.946 2297.79,130.946 2298.51,130.946 2299.22,130.946 2299.93,130.946 2300.65,130.946 2301.36,130.946 2302.08,130.946 2302.79,130.946 2303.5,130.946 2304.22,130.946 2304.93,130.946 2305.65,130.946 2306.36,130.946 2307.07,130.946 2307.79,130.946 2308.5,130.946 2309.21,130.946 2309.93,130.946 2310.64,130.946 2311.36,130.946 2312.07,130.946 2312.78,130.946 2313.5,130.946 2314.21,130.946 2314.92,130.946 2315.64,130.946 2316.35,130.946 2317.07,130.946 2317.78,130.946 2318.49,130.946 2319.21,130.946 2319.92,86.1857 2320.63,86.1857 2321.35,86.1857 2322.06,86.1857 2322.78,86.1857 2323.49,86.1857 2324.2,86.1857 2324.92,86.1857 2325.63,86.1857 2326.35,86.1857 2327.06,86.1857 2327.77,86.1857 2328.49,86.1857 2329.2,86.1857 2329.91,86.1857 2330.63,86.1857 2331.34,86.1857 2332.06,86.1857 2332.77,86.1857 2333.48,86.1857 2334.2,86.1857 2334.91,86.1857 2335.62,86.1857 2336.34,86.1857 2337.05,86.1857 2337.77,86.1857 2338.48,86.1857 2339.19,86.1857 2339.91,86.1857 2340.62,86.1857 2341.34,86.1857 2342.05,86.1857 2342.76,86.1857 2343.48,86.1857 2344.19,86.1857 2344.9,86.1857 2345.62,86.1857 2346.33,86.1857 2347.05,86.1857 2347.76,86.1857 2348.47,86.1857 2349.19,86.1857 2349.9,86.1857 2350.61,86.1857 2351.33,86.1857 2352.04,86.1857 2352.76,86.1857 "/>
<path clip-path="url(#clip590)" d="M1975.5 1377.32 L2279.02 1377.32 L2279.02 1273.64 L1975.5 1273.64  Z" fill="#ffffff" fill-rule="evenodd" fill-opacity="1"/>
<polyline clip-path="url(#clip590)" style="stroke:#000000; stroke-linecap:round; stroke-linejoin:round; stroke-width:4; stroke-opacity:1; fill:none" points="1975.5,1377.32 2279.02,1377.32 2279.02,1273.64 1975.5,1273.64 1975.5,1377.32 "/>
<polyline clip-path="url(#clip590)" style="stroke:#009af9; stroke-linecap:round; stroke-linejoin:round; stroke-width:8; stroke-opacity:1; fill:none" points="2000.08,1325.48 2147.55,1325.48 "/>
<path clip-path="url(#clip590)" d="M2172.13 1308.2 L2178.42 1308.2 L2193.75 1337.11 L2193.75 1308.2 L2198.29 1308.2 L2198.29 1342.76 L2191.99 1342.76 L2176.66 1313.84 L2176.66 1342.76 L2172.13 1342.76 L2172.13 1308.2 Z" fill="#000000" fill-rule="nonzero" fill-opacity="1" /><path clip-path="url(#clip590)" d="M2217.64 1306.78 Q2214.53 1312.11 2213.03 1317.32 Q2211.53 1322.52 2211.53 1327.87 Q2211.53 1333.22 2213.03 1338.47 Q2214.56 1343.7 2217.64 1349.01 L2213.93 1349.01 Q2210.46 1343.57 2208.72 1338.31 Q2207.01 1333.06 2207.01 1327.87 Q2207.01 1322.71 2208.72 1317.48 Q2210.44 1312.25 2213.93 1306.78 L2217.64 1306.78 Z" fill="#000000" fill-rule="nonzero" fill-opacity="1" /><path clip-path="url(#clip590)" d="M2230.11 1309.47 L2230.11 1316.83 L2238.89 1316.83 L2238.89 1320.14 L2230.11 1320.14 L2230.11 1334.21 Q2230.11 1337.38 2230.97 1338.29 Q2231.85 1339.19 2234.51 1339.19 L2238.89 1339.19 L2238.89 1342.76 L2234.51 1342.76 Q2229.58 1342.76 2227.71 1340.93 Q2225.83 1339.07 2225.83 1334.21 L2225.83 1320.14 L2222.71 1320.14 L2222.71 1316.83 L2225.83 1316.83 L2225.83 1309.47 L2230.11 1309.47 Z" fill="#000000" fill-rule="nonzero" fill-opacity="1" /><path clip-path="url(#clip590)" d="M2243.82 1306.78 L2247.52 1306.78 Q2250.99 1312.25 2252.71 1317.48 Q2254.44 1322.71 2254.44 1327.87 Q2254.44 1333.06 2252.71 1338.31 Q2250.99 1343.57 2247.52 1349.01 L2243.82 1349.01 Q2246.9 1343.7 2248.4 1338.47 Q2249.93 1333.22 2249.93 1327.87 Q2249.93 1322.52 2248.4 1317.32 Q2246.9 1312.11 2243.82 1306.78 Z" fill="#000000" fill-rule="nonzero" fill-opacity="1" /></svg>
