<?xml version="1.0" encoding="utf-8"?>
<svg xmlns="http://www.w3.org/2000/svg" xmlns:xlink="http://www.w3.org/1999/xlink" width="600" height="400" viewBox="0 0 2400 1600">
<defs>
  <clipPath id="clip080">
    <rect x="0" y="0" width="2400" height="1600"/>
  </clipPath>
</defs>
<path clip-path="url(#clip080)" d="M0 1600 L2400 1600 L2400 0 L0 0  Z" fill="#ffffff" fill-rule="evenodd" fill-opacity="1"/>
<defs>
  <clipPath id="clip081">
    <rect x="480" y="0" width="1681" height="1600"/>
  </clipPath>
</defs>
<path clip-path="url(#clip080)" d="M155.927 1486.45 L2352.76 1486.45 L2352.76 47.2441 L155.927 47.2441  Z" fill="#ffffff" fill-rule="evenodd" fill-opacity="1"/>
<defs>
  <clipPath id="clip082">
    <rect x="155" y="47" width="2198" height="1440"/>
  </clipPath>
</defs>
<polyline clip-path="url(#clip082)" style="stroke:#000000; stroke-linecap:round; stroke-linejoin:round; stroke-width:2; stroke-opacity:0.1; fill:none" points="216.196,1486.45 216.196,47.2441 "/>
<polyline clip-path="url(#clip082)" style="stroke:#000000; stroke-linecap:round; stroke-linejoin:round; stroke-width:2; stroke-opacity:0.1; fill:none" points="692.41,1486.45 692.41,47.2441 "/>
<polyline clip-path="url(#clip082)" style="stroke:#000000; stroke-linecap:round; stroke-linejoin:round; stroke-width:2; stroke-opacity:0.1; fill:none" points="1168.62,1486.45 1168.62,47.2441 "/>
<polyline clip-path="url(#clip082)" style="stroke:#000000; stroke-linecap:round; stroke-linejoin:round; stroke-width:2; stroke-opacity:0.1; fill:none" points="1644.84,1486.45 1644.84,47.2441 "/>
<polyline clip-path="url(#clip082)" style="stroke:#000000; stroke-linecap:round; stroke-linejoin:round; stroke-width:2; stroke-opacity:0.1; fill:none" points="2121.05,1486.45 2121.05,47.2441 "/>
<polyline clip-path="url(#clip080)" style="stroke:#000000; stroke-linecap:round; stroke-linejoin:round; stroke-width:4; stroke-opacity:1; fill:none" points="155.927,1486.45 2352.76,1486.45 "/>
<polyline clip-path="url(#clip080)" style="stroke:#000000; stroke-linecap:round; stroke-linejoin:round; stroke-width:4; stroke-opacity:1; fill:none" points="216.196,1486.45 216.196,1467.55 "/>
<polyline clip-path="url(#clip080)" style="stroke:#000000; stroke-linecap:round; stroke-linejoin:round; stroke-width:4; stroke-opacity:1; fill:none" points="692.41,1486.45 692.41,1467.55 "/>
<polyline clip-path="url(#clip080)" style="stroke:#000000; stroke-linecap:round; stroke-linejoin:round; stroke-width:4; stroke-opacity:1; fill:none" points="1168.62,1486.45 1168.62,1467.55 "/>
<polyline clip-path="url(#clip080)" style="stroke:#000000; stroke-linecap:round; stroke-linejoin:round; stroke-width:4; stroke-opacity:1; fill:none" points="1644.84,1486.45 1644.84,1467.55 "/>
<polyline clip-path="url(#clip080)" style="stroke:#000000; stroke-linecap:round; stroke-linejoin:round; stroke-width:4; stroke-opacity:1; fill:none" points="2121.05,1486.45 2121.05,1467.55 "/>
<path clip-path="url(#clip080)" d="M216.196 1517.37 Q212.585 1517.37 210.757 1520.93 Q208.951 1524.47 208.951 1531.6 Q208.951 1538.71 210.757 1542.27 Q212.585 1545.82 216.196 1545.82 Q219.831 1545.82 221.636 1542.27 Q223.465 1538.71 223.465 1531.6 Q223.465 1524.47 221.636 1520.93 Q219.831 1517.37 216.196 1517.37 M216.196 1513.66 Q222.007 1513.66 225.062 1518.27 Q228.141 1522.85 228.141 1531.6 Q228.141 1540.33 225.062 1544.94 Q222.007 1549.52 216.196 1549.52 Q210.386 1549.52 207.308 1544.94 Q204.252 1540.33 204.252 1531.6 Q204.252 1522.85 207.308 1518.27 Q210.386 1513.66 216.196 1513.66 Z" fill="#000000" fill-rule="nonzero" fill-opacity="1" /><path clip-path="url(#clip080)" d="M656.102 1544.91 L672.421 1544.91 L672.421 1548.85 L650.477 1548.85 L650.477 1544.91 Q653.139 1542.16 657.722 1537.53 Q662.329 1532.88 663.509 1531.53 Q665.755 1529.01 666.634 1527.27 Q667.537 1525.51 667.537 1523.82 Q667.537 1521.07 665.593 1519.33 Q663.671 1517.6 660.57 1517.6 Q658.371 1517.6 655.917 1518.36 Q653.486 1519.13 650.709 1520.68 L650.709 1515.95 Q653.533 1514.82 655.986 1514.24 Q658.44 1513.66 660.477 1513.66 Q665.847 1513.66 669.042 1516.35 Q672.236 1519.03 672.236 1523.52 Q672.236 1525.65 671.426 1527.57 Q670.639 1529.47 668.533 1532.07 Q667.954 1532.74 664.852 1535.95 Q661.75 1539.15 656.102 1544.91 Z" fill="#000000" fill-rule="nonzero" fill-opacity="1" /><path clip-path="url(#clip080)" d="M682.283 1514.29 L700.639 1514.29 L700.639 1518.22 L686.565 1518.22 L686.565 1526.7 Q687.583 1526.35 688.602 1526.19 Q689.62 1526 690.639 1526 Q696.426 1526 699.806 1529.17 Q703.185 1532.34 703.185 1537.76 Q703.185 1543.34 699.713 1546.44 Q696.241 1549.52 689.921 1549.52 Q687.745 1549.52 685.477 1549.15 Q683.232 1548.78 680.824 1548.04 L680.824 1543.34 Q682.908 1544.47 685.13 1545.03 Q687.352 1545.58 689.829 1545.58 Q693.833 1545.58 696.171 1543.48 Q698.509 1541.37 698.509 1537.76 Q698.509 1534.15 696.171 1532.04 Q693.833 1529.94 689.829 1529.94 Q687.954 1529.94 686.079 1530.35 Q684.227 1530.77 682.283 1531.65 L682.283 1514.29 Z" fill="#000000" fill-rule="nonzero" fill-opacity="1" /><path clip-path="url(#clip080)" d="M722.398 1517.37 Q718.787 1517.37 716.958 1520.93 Q715.153 1524.47 715.153 1531.6 Q715.153 1538.71 716.958 1542.27 Q718.787 1545.82 722.398 1545.82 Q726.032 1545.82 727.838 1542.27 Q729.667 1538.71 729.667 1531.6 Q729.667 1524.47 727.838 1520.93 Q726.032 1517.37 722.398 1517.37 M722.398 1513.66 Q728.208 1513.66 731.264 1518.27 Q734.342 1522.85 734.342 1531.6 Q734.342 1540.33 731.264 1544.94 Q728.208 1549.52 722.398 1549.52 Q716.588 1549.52 713.509 1544.94 Q710.454 1540.33 710.454 1531.6 Q710.454 1522.85 713.509 1518.27 Q716.588 1513.66 722.398 1513.66 Z" fill="#000000" fill-rule="nonzero" fill-opacity="1" /><path clip-path="url(#clip080)" d="M1128.24 1514.29 L1146.6 1514.29 L1146.6 1518.22 L1132.52 1518.22 L1132.52 1526.7 Q1133.54 1526.35 1134.56 1526.19 Q1135.58 1526 1136.6 1526 Q1142.38 1526 1145.76 1529.17 Q1149.14 1532.34 1149.14 1537.76 Q1149.14 1543.34 1145.67 1546.44 Q1142.2 1549.52 1135.88 1549.52 Q1133.7 1549.52 1131.44 1549.15 Q1129.19 1548.78 1126.78 1548.04 L1126.78 1543.34 Q1128.87 1544.47 1131.09 1545.03 Q1133.31 1545.58 1135.79 1545.58 Q1139.79 1545.58 1142.13 1543.48 Q1144.47 1541.37 1144.47 1537.76 Q1144.47 1534.15 1142.13 1532.04 Q1139.79 1529.94 1135.79 1529.94 Q1133.91 1529.94 1132.04 1530.35 Q1130.19 1530.77 1128.24 1531.65 L1128.24 1514.29 Z" fill="#000000" fill-rule="nonzero" fill-opacity="1" /><path clip-path="url(#clip080)" d="M1168.36 1517.37 Q1164.75 1517.37 1162.92 1520.93 Q1161.11 1524.47 1161.11 1531.6 Q1161.11 1538.71 1162.92 1542.27 Q1164.75 1545.82 1168.36 1545.82 Q1171.99 1545.82 1173.8 1542.27 Q1175.63 1538.71 1175.63 1531.6 Q1175.63 1524.47 1173.8 1520.93 Q1171.99 1517.37 1168.36 1517.37 M1168.36 1513.66 Q1174.17 1513.66 1177.22 1518.27 Q1180.3 1522.85 1180.3 1531.6 Q1180.3 1540.33 1177.22 1544.94 Q1174.17 1549.52 1168.36 1549.52 Q1162.55 1549.52 1159.47 1544.94 Q1156.41 1540.33 1156.41 1531.6 Q1156.41 1522.85 1159.47 1518.27 Q1162.55 1513.66 1168.36 1513.66 Z" fill="#000000" fill-rule="nonzero" fill-opacity="1" /><path clip-path="url(#clip080)" d="M1198.52 1517.37 Q1194.91 1517.37 1193.08 1520.93 Q1191.27 1524.47 1191.27 1531.6 Q1191.27 1538.71 1193.08 1542.27 Q1194.91 1545.82 1198.52 1545.82 Q1202.15 1545.82 1203.96 1542.27 Q1205.79 1538.71 1205.79 1531.6 Q1205.79 1524.47 1203.96 1520.93 Q1202.15 1517.37 1198.52 1517.37 M1198.52 1513.66 Q1204.33 1513.66 1207.38 1518.27 Q1210.46 1522.85 1210.46 1531.6 Q1210.46 1540.33 1207.38 1544.94 Q1204.33 1549.52 1198.52 1549.52 Q1192.71 1549.52 1189.63 1544.94 Q1186.57 1540.33 1186.57 1531.6 Q1186.57 1522.85 1189.63 1518.27 Q1192.71 1513.66 1198.52 1513.66 Z" fill="#000000" fill-rule="nonzero" fill-opacity="1" /><path clip-path="url(#clip080)" d="M1603.11 1514.29 L1625.33 1514.29 L1625.33 1516.28 L1612.79 1548.85 L1607.9 1548.85 L1619.71 1518.22 L1603.11 1518.22 L1603.11 1514.29 Z" fill="#000000" fill-rule="nonzero" fill-opacity="1" /><path clip-path="url(#clip080)" d="M1634.5 1514.29 L1652.86 1514.29 L1652.86 1518.22 L1638.78 1518.22 L1638.78 1526.7 Q1639.8 1526.35 1640.82 1526.19 Q1641.84 1526 1642.86 1526 Q1648.64 1526 1652.02 1529.17 Q1655.4 1532.34 1655.4 1537.76 Q1655.4 1543.34 1651.93 1546.44 Q1648.46 1549.52 1642.14 1549.52 Q1639.96 1549.52 1637.7 1549.15 Q1635.45 1548.78 1633.04 1548.04 L1633.04 1543.34 Q1635.13 1544.47 1637.35 1545.03 Q1639.57 1545.58 1642.05 1545.58 Q1646.05 1545.58 1648.39 1543.48 Q1650.73 1541.37 1650.73 1537.76 Q1650.73 1534.15 1648.39 1532.04 Q1646.05 1529.94 1642.05 1529.94 Q1640.17 1529.94 1638.3 1530.35 Q1636.45 1530.77 1634.5 1531.65 L1634.5 1514.29 Z" fill="#000000" fill-rule="nonzero" fill-opacity="1" /><path clip-path="url(#clip080)" d="M1674.62 1517.37 Q1671.01 1517.37 1669.18 1520.93 Q1667.37 1524.47 1667.37 1531.6 Q1667.37 1538.71 1669.18 1542.27 Q1671.01 1545.82 1674.62 1545.82 Q1678.25 1545.82 1680.06 1542.27 Q1681.88 1538.71 1681.88 1531.6 Q1681.88 1524.47 1680.06 1520.93 Q1678.25 1517.37 1674.62 1517.37 M1674.62 1513.66 Q1680.43 1513.66 1683.48 1518.27 Q1686.56 1522.85 1686.56 1531.6 Q1686.56 1540.33 1683.48 1544.94 Q1680.43 1549.52 1674.62 1549.52 Q1668.81 1549.52 1665.73 1544.94 Q1662.67 1540.33 1662.67 1531.6 Q1662.67 1522.85 1665.73 1518.27 Q1668.81 1513.66 1674.62 1513.66 Z" fill="#000000" fill-rule="nonzero" fill-opacity="1" /><path clip-path="url(#clip080)" d="M2065.58 1544.91 L2073.21 1544.91 L2073.21 1518.55 L2064.9 1520.21 L2064.9 1515.95 L2073.17 1514.29 L2077.84 1514.29 L2077.84 1544.91 L2085.48 1544.91 L2085.48 1548.85 L2065.58 1548.85 L2065.58 1544.91 Z" fill="#000000" fill-rule="nonzero" fill-opacity="1" /><path clip-path="url(#clip080)" d="M2104.93 1517.37 Q2101.32 1517.37 2099.49 1520.93 Q2097.68 1524.47 2097.68 1531.6 Q2097.68 1538.71 2099.49 1542.27 Q2101.32 1545.82 2104.93 1545.82 Q2108.56 1545.82 2110.37 1542.27 Q2112.2 1538.71 2112.2 1531.6 Q2112.2 1524.47 2110.37 1520.93 Q2108.56 1517.37 2104.93 1517.37 M2104.93 1513.66 Q2110.74 1513.66 2113.79 1518.27 Q2116.87 1522.85 2116.87 1531.6 Q2116.87 1540.33 2113.79 1544.94 Q2110.74 1549.52 2104.93 1549.52 Q2099.12 1549.52 2096.04 1544.94 Q2092.98 1540.33 2092.98 1531.6 Q2092.98 1522.85 2096.04 1518.27 Q2099.12 1513.66 2104.93 1513.66 Z" fill="#000000" fill-rule="nonzero" fill-opacity="1" /><path clip-path="url(#clip080)" d="M2135.09 1517.37 Q2131.48 1517.37 2129.65 1520.93 Q2127.84 1524.47 2127.84 1531.6 Q2127.84 1538.71 2129.65 1542.27 Q2131.48 1545.82 2135.09 1545.82 Q2138.72 1545.82 2140.53 1542.27 Q2142.36 1538.71 2142.36 1531.6 Q2142.36 1524.47 2140.53 1520.93 Q2138.72 1517.37 2135.09 1517.37 M2135.09 1513.66 Q2140.9 1513.66 2143.95 1518.27 Q2147.03 1522.85 2147.03 1531.6 Q2147.03 1540.33 2143.95 1544.94 Q2140.9 1549.52 2135.09 1549.52 Q2129.28 1549.52 2126.2 1544.94 Q2123.14 1540.33 2123.14 1531.6 Q2123.14 1522.85 2126.2 1518.27 Q2129.28 1513.66 2135.09 1513.66 Z" fill="#000000" fill-rule="nonzero" fill-opacity="1" /><path clip-path="url(#clip080)" d="M2165.25 1517.37 Q2161.64 1517.37 2159.81 1520.93 Q2158.01 1524.47 2158.01 1531.6 Q2158.01 1538.71 2159.81 1542.27 Q2161.64 1545.82 2165.25 1545.82 Q2168.88 1545.82 2170.69 1542.27 Q2172.52 1538.71 2172.52 1531.6 Q2172.52 1524.47 2170.69 1520.93 Q2168.88 1517.37 2165.25 1517.37 M2165.25 1513.66 Q2171.06 1513.66 2174.12 1518.27 Q2177.2 1522.85 2177.2 1531.6 Q2177.2 1540.33 2174.12 1544.94 Q2171.06 1549.52 2165.25 1549.52 Q2159.44 1549.52 2156.36 1544.94 Q2153.31 1540.33 2153.31 1531.6 Q2153.31 1522.85 2156.36 1518.27 Q2159.44 1513.66 2165.25 1513.66 Z" fill="#000000" fill-rule="nonzero" fill-opacity="1" /><polyline clip-path="url(#clip082)" style="stroke:#000000; stroke-linecap:round; stroke-linejoin:round; stroke-width:2; stroke-opacity:0.1; fill:none" points="155.927,1445.72 2352.76,1445.72 "/>
<polyline clip-path="url(#clip082)" style="stroke:#000000; stroke-linecap:round; stroke-linejoin:round; stroke-width:2; stroke-opacity:0.1; fill:none" points="155.927,1173.68 2352.76,1173.68 "/>
<polyline clip-path="url(#clip082)" style="stroke:#000000; stroke-linecap:round; stroke-linejoin:round; stroke-width:2; stroke-opacity:0.1; fill:none" points="155.927,901.645 2352.76,901.645 "/>
<polyline clip-path="url(#clip082)" style="stroke:#000000; stroke-linecap:round; stroke-linejoin:round; stroke-width:2; stroke-opacity:0.1; fill:none" points="155.927,629.61 2352.76,629.61 "/>
<polyline clip-path="url(#clip082)" style="stroke:#000000; stroke-linecap:round; stroke-linejoin:round; stroke-width:2; stroke-opacity:0.1; fill:none" points="155.927,357.575 2352.76,357.575 "/>
<polyline clip-path="url(#clip082)" style="stroke:#000000; stroke-linecap:round; stroke-linejoin:round; stroke-width:2; stroke-opacity:0.1; fill:none" points="155.927,85.5394 2352.76,85.5394 "/>
<polyline clip-path="url(#clip080)" style="stroke:#000000; stroke-linecap:round; stroke-linejoin:round; stroke-width:4; stroke-opacity:1; fill:none" points="155.927,1486.45 155.927,47.2441 "/>
<polyline clip-path="url(#clip080)" style="stroke:#000000; stroke-linecap:round; stroke-linejoin:round; stroke-width:4; stroke-opacity:1; fill:none" points="155.927,1445.72 174.825,1445.72 "/>
<polyline clip-path="url(#clip080)" style="stroke:#000000; stroke-linecap:round; stroke-linejoin:round; stroke-width:4; stroke-opacity:1; fill:none" points="155.927,1173.68 174.825,1173.68 "/>
<polyline clip-path="url(#clip080)" style="stroke:#000000; stroke-linecap:round; stroke-linejoin:round; stroke-width:4; stroke-opacity:1; fill:none" points="155.927,901.645 174.825,901.645 "/>
<polyline clip-path="url(#clip080)" style="stroke:#000000; stroke-linecap:round; stroke-linejoin:round; stroke-width:4; stroke-opacity:1; fill:none" points="155.927,629.61 174.825,629.61 "/>
<polyline clip-path="url(#clip080)" style="stroke:#000000; stroke-linecap:round; stroke-linejoin:round; stroke-width:4; stroke-opacity:1; fill:none" points="155.927,357.575 174.825,357.575 "/>
<polyline clip-path="url(#clip080)" style="stroke:#000000; stroke-linecap:round; stroke-linejoin:round; stroke-width:4; stroke-opacity:1; fill:none" points="155.927,85.5394 174.825,85.5394 "/>
<path clip-path="url(#clip080)" d="M52.7977 1428.44 L71.1541 1428.44 L71.1541 1432.37 L57.0801 1432.37 L57.0801 1440.84 Q58.0986 1440.5 59.1171 1440.33 Q60.1356 1440.15 61.1541 1440.15 Q66.9411 1440.15 70.3207 1443.32 Q73.7003 1446.49 73.7003 1451.91 Q73.7003 1457.49 70.2281 1460.59 Q66.7559 1463.67 60.4365 1463.67 Q58.2606 1463.67 55.9921 1463.3 Q53.7467 1462.93 51.3393 1462.19 L51.3393 1457.49 Q53.4227 1458.62 55.6449 1459.18 Q57.8671 1459.73 60.3439 1459.73 Q64.3485 1459.73 66.6865 1457.63 Q69.0244 1455.52 69.0244 1451.91 Q69.0244 1448.3 66.6865 1446.19 Q64.3485 1444.08 60.3439 1444.08 Q58.4689 1444.08 56.5939 1444.5 Q54.7421 1444.92 52.7977 1445.8 L52.7977 1428.44 Z" fill="#000000" fill-rule="nonzero" fill-opacity="1" /><path clip-path="url(#clip080)" d="M82.9133 1457.12 L87.7975 1457.12 L87.7975 1463 L82.9133 1463 L82.9133 1457.12 Z" fill="#000000" fill-rule="nonzero" fill-opacity="1" /><path clip-path="url(#clip080)" d="M107.983 1431.51 Q104.371 1431.51 102.543 1435.08 Q100.737 1438.62 100.737 1445.75 Q100.737 1452.86 102.543 1456.42 Q104.371 1459.96 107.983 1459.96 Q111.617 1459.96 113.422 1456.42 Q115.251 1452.86 115.251 1445.75 Q115.251 1438.62 113.422 1435.08 Q111.617 1431.51 107.983 1431.51 M107.983 1427.81 Q113.793 1427.81 116.848 1432.42 Q119.927 1437 119.927 1445.75 Q119.927 1454.48 116.848 1459.08 Q113.793 1463.67 107.983 1463.67 Q102.172 1463.67 99.0937 1459.08 Q96.0382 1454.48 96.0382 1445.75 Q96.0382 1437 99.0937 1432.42 Q102.172 1427.81 107.983 1427.81 Z" fill="#000000" fill-rule="nonzero" fill-opacity="1" /><path clip-path="url(#clip080)" d="M53.793 1156.4 L72.1494 1156.4 L72.1494 1160.34 L58.0754 1160.34 L58.0754 1168.81 Q59.0939 1168.46 60.1124 1168.3 Q61.131 1168.11 62.1495 1168.11 Q67.9365 1168.11 71.3161 1171.28 Q74.6957 1174.46 74.6957 1179.87 Q74.6957 1185.45 71.2235 1188.55 Q67.7513 1191.63 61.4319 1191.63 Q59.256 1191.63 56.9875 1191.26 Q54.7421 1190.89 52.3347 1190.15 L52.3347 1185.45 Q54.418 1186.59 56.6402 1187.14 Q58.8625 1187.7 61.3393 1187.7 Q65.3439 1187.7 67.6819 1185.59 Q70.0198 1183.48 70.0198 1179.87 Q70.0198 1176.26 67.6819 1174.15 Q65.3439 1172.05 61.3393 1172.05 Q59.4643 1172.05 57.5893 1172.47 Q55.7375 1172.88 53.793 1173.76 L53.793 1156.4 Z" fill="#000000" fill-rule="nonzero" fill-opacity="1" /><path clip-path="url(#clip080)" d="M83.9086 1185.08 L88.7928 1185.08 L88.7928 1190.96 L83.9086 1190.96 L83.9086 1185.08 Z" fill="#000000" fill-rule="nonzero" fill-opacity="1" /><path clip-path="url(#clip080)" d="M99.0243 1156.4 L117.381 1156.4 L117.381 1160.34 L103.307 1160.34 L103.307 1168.81 Q104.325 1168.46 105.344 1168.3 Q106.362 1168.11 107.381 1168.11 Q113.168 1168.11 116.547 1171.28 Q119.927 1174.46 119.927 1179.87 Q119.927 1185.45 116.455 1188.55 Q112.983 1191.63 106.663 1191.63 Q104.487 1191.63 102.219 1191.26 Q99.9733 1190.89 97.566 1190.15 L97.566 1185.45 Q99.6493 1186.59 101.871 1187.14 Q104.094 1187.7 106.571 1187.7 Q110.575 1187.7 112.913 1185.59 Q115.251 1183.48 115.251 1179.87 Q115.251 1176.26 112.913 1174.15 Q110.575 1172.05 106.571 1172.05 Q104.696 1172.05 102.821 1172.47 Q100.969 1172.88 99.0243 1173.76 L99.0243 1156.4 Z" fill="#000000" fill-rule="nonzero" fill-opacity="1" /><path clip-path="url(#clip080)" d="M63.33 899.782 Q60.1819 899.782 58.33 901.935 Q56.5014 904.087 56.5014 907.837 Q56.5014 911.564 58.33 913.74 Q60.1819 915.893 63.33 915.893 Q66.4782 915.893 68.3068 913.74 Q70.1587 911.564 70.1587 907.837 Q70.1587 904.087 68.3068 901.935 Q66.4782 899.782 63.33 899.782 M72.6124 885.129 L72.6124 889.388 Q70.8531 888.555 69.0476 888.115 Q67.2652 887.675 65.5059 887.675 Q60.8763 887.675 58.4226 890.8 Q55.9921 893.925 55.6449 900.245 Q57.0106 898.231 59.0708 897.166 Q61.131 896.078 63.6078 896.078 Q68.8161 896.078 71.8253 899.249 Q74.8577 902.397 74.8577 907.837 Q74.8577 913.161 71.7096 916.379 Q68.5615 919.596 63.33 919.596 Q57.3347 919.596 54.1634 915.013 Q50.9921 910.407 50.9921 901.68 Q50.9921 893.485 54.881 888.624 Q58.7699 883.74 65.3208 883.74 Q67.08 883.74 68.8624 884.087 Q70.6679 884.435 72.6124 885.129 Z" fill="#000000" fill-rule="nonzero" fill-opacity="1" /><path clip-path="url(#clip080)" d="M82.9133 913.046 L87.7975 913.046 L87.7975 918.925 L82.9133 918.925 L82.9133 913.046 Z" fill="#000000" fill-rule="nonzero" fill-opacity="1" /><path clip-path="url(#clip080)" d="M107.983 887.444 Q104.371 887.444 102.543 891.009 Q100.737 894.55 100.737 901.68 Q100.737 908.786 102.543 912.351 Q104.371 915.893 107.983 915.893 Q111.617 915.893 113.422 912.351 Q115.251 908.786 115.251 901.68 Q115.251 894.55 113.422 891.009 Q111.617 887.444 107.983 887.444 M107.983 883.74 Q113.793 883.74 116.848 888.347 Q119.927 892.93 119.927 901.68 Q119.927 910.407 116.848 915.013 Q113.793 919.596 107.983 919.596 Q102.172 919.596 99.0937 915.013 Q96.0382 910.407 96.0382 901.68 Q96.0382 892.93 99.0937 888.347 Q102.172 883.74 107.983 883.74 Z" fill="#000000" fill-rule="nonzero" fill-opacity="1" /><path clip-path="url(#clip080)" d="M64.3254 627.746 Q61.1773 627.746 59.3254 629.899 Q57.4967 632.052 57.4967 635.802 Q57.4967 639.529 59.3254 641.705 Q61.1773 643.858 64.3254 643.858 Q67.4735 643.858 69.3022 641.705 Q71.1541 639.529 71.1541 635.802 Q71.1541 632.052 69.3022 629.899 Q67.4735 627.746 64.3254 627.746 M73.6077 613.094 L73.6077 617.353 Q71.8485 616.52 70.0429 616.08 Q68.2606 615.64 66.5013 615.64 Q61.8717 615.64 59.418 618.765 Q56.9875 621.89 56.6402 628.209 Q58.006 626.196 60.0662 625.131 Q62.1263 624.043 64.6032 624.043 Q69.8115 624.043 72.8207 627.214 Q75.8531 630.362 75.8531 635.802 Q75.8531 641.126 72.705 644.344 Q69.5568 647.561 64.3254 647.561 Q58.33 647.561 55.1588 642.978 Q51.9875 638.371 51.9875 629.645 Q51.9875 621.45 55.8764 616.589 Q59.7652 611.705 66.3161 611.705 Q68.0754 611.705 69.8578 612.052 Q71.6633 612.399 73.6077 613.094 Z" fill="#000000" fill-rule="nonzero" fill-opacity="1" /><path clip-path="url(#clip080)" d="M83.9086 641.01 L88.7928 641.01 L88.7928 646.89 L83.9086 646.89 L83.9086 641.01 Z" fill="#000000" fill-rule="nonzero" fill-opacity="1" /><path clip-path="url(#clip080)" d="M99.0243 612.33 L117.381 612.33 L117.381 616.265 L103.307 616.265 L103.307 624.737 Q104.325 624.39 105.344 624.228 Q106.362 624.043 107.381 624.043 Q113.168 624.043 116.547 627.214 Q119.927 630.385 119.927 635.802 Q119.927 641.381 116.455 644.483 Q112.983 647.561 106.663 647.561 Q104.487 647.561 102.219 647.191 Q99.9733 646.82 97.566 646.08 L97.566 641.381 Q99.6493 642.515 101.871 643.07 Q104.094 643.626 106.571 643.626 Q110.575 643.626 112.913 641.52 Q115.251 639.413 115.251 635.802 Q115.251 632.191 112.913 630.084 Q110.575 627.978 106.571 627.978 Q104.696 627.978 102.821 628.395 Q100.969 628.811 99.0243 629.691 L99.0243 612.33 Z" fill="#000000" fill-rule="nonzero" fill-opacity="1" /><path clip-path="url(#clip080)" d="M51.5708 340.295 L73.7929 340.295 L73.7929 342.285 L61.2467 374.855 L56.3625 374.855 L68.168 344.23 L51.5708 344.23 L51.5708 340.295 Z" fill="#000000" fill-rule="nonzero" fill-opacity="1" /><path clip-path="url(#clip080)" d="M82.9133 368.975 L87.7975 368.975 L87.7975 374.855 L82.9133 374.855 L82.9133 368.975 Z" fill="#000000" fill-rule="nonzero" fill-opacity="1" /><path clip-path="url(#clip080)" d="M107.983 343.373 Q104.371 343.373 102.543 346.938 Q100.737 350.48 100.737 357.609 Q100.737 364.716 102.543 368.281 Q104.371 371.822 107.983 371.822 Q111.617 371.822 113.422 368.281 Q115.251 364.716 115.251 357.609 Q115.251 350.48 113.422 346.938 Q111.617 343.373 107.983 343.373 M107.983 339.67 Q113.793 339.67 116.848 344.276 Q119.927 348.859 119.927 357.609 Q119.927 366.336 116.848 370.943 Q113.793 375.526 107.983 375.526 Q102.172 375.526 99.0937 370.943 Q96.0382 366.336 96.0382 357.609 Q96.0382 348.859 99.0937 344.276 Q102.172 339.67 107.983 339.67 Z" fill="#000000" fill-rule="nonzero" fill-opacity="1" /><path clip-path="url(#clip080)" d="M52.5662 68.2594 L74.7883 68.2594 L74.7883 70.2501 L62.2421 102.819 L57.3578 102.819 L69.1633 72.1945 L52.5662 72.1945 L52.5662 68.2594 Z" fill="#000000" fill-rule="nonzero" fill-opacity="1" /><path clip-path="url(#clip080)" d="M83.9086 96.9398 L88.7928 96.9398 L88.7928 102.819 L83.9086 102.819 L83.9086 96.9398 Z" fill="#000000" fill-rule="nonzero" fill-opacity="1" /><path clip-path="url(#clip080)" d="M99.0243 68.2594 L117.381 68.2594 L117.381 72.1945 L103.307 72.1945 L103.307 80.6667 Q104.325 80.3195 105.344 80.1575 Q106.362 79.9723 107.381 79.9723 Q113.168 79.9723 116.547 83.1436 Q119.927 86.3148 119.927 91.7315 Q119.927 97.3101 116.455 100.412 Q112.983 103.491 106.663 103.491 Q104.487 103.491 102.219 103.12 Q99.9733 102.75 97.566 102.009 L97.566 97.3101 Q99.6493 98.4444 101.871 98.9999 Q104.094 99.5555 106.571 99.5555 Q110.575 99.5555 112.913 97.449 Q115.251 95.3426 115.251 91.7315 Q115.251 88.1204 112.913 86.0139 Q110.575 83.9074 106.571 83.9074 Q104.696 83.9074 102.821 84.3241 Q100.969 84.7408 99.0243 85.6204 L99.0243 68.2594 Z" fill="#000000" fill-rule="nonzero" fill-opacity="1" /><polyline clip-path="url(#clip082)" style="stroke:#009af9; stroke-linecap:round; stroke-linejoin:round; stroke-width:4; stroke-opacity:1; fill:none" points="218.101,1445.72 220.006,1445.72 221.911,1445.72 223.816,1445.72 225.721,1445.72 227.626,1282.49 229.53,1308.06 231.435,1308.06 233.34,1157.5 235.245,1185.84 237.15,1185.84 239.055,1039.77 240.96,1089.87 242.864,1089.87 244.769,929.902 246.674,1019.5 248.579,1096.76 250.484,1096.76 252.389,844.803 254.294,844.803 256.198,650.181 258.103,727.112 260.008,857.372 261.913,964.021 263.818,1051.34 265.723,1051.34 267.628,901.899 269.532,907.399 271.437,1004.98 273.342,1084.87 275.247,1150.28 277.152,1203.83 279.057,1247.68 280.961,1247.68 282.866,1097.34 284.771,1140.65 286.676,1195.95 288.581,1241.22 290.486,1278.29 292.391,1308.64 294.295,1308.64 296.2,1199.85 298.105,1244.38 300.01,1244.38 301.915,1056.61 303.82,1071.68 305.725,1139.48 307.629,1139.48 309.534,950.238 311.439,998.608 313.344,998.608 315.249,835.795 317.154,945.898 319.059,945.898 320.963,857.221 322.868,879.442 324.773,879.442 326.678,800.869 328.583,824.969 330.488,937.491 332.393,937.491 334.297,795.056 336.202,820.498 338.107,820.498 340.012,726.919 341.917,783.446 343.822,783.446 345.727,709.574 347.631,749.02 349.536,875.31 351.441,875.31 353.346,757.112 355.251,762.911 357.156,762.911 359.06,602.587 360.965,692.18 362.87,692.18 364.775,424.813 366.68,604.661 368.585,604.661 370.49,379.929 372.394,521.122 374.299,688.722 376.204,688.722 378.109,479.975 380.014,479.975 381.919,332.071 383.824,387.04 385.728,578.945 387.633,736.064 389.538,864.702 391.443,970.022 393.348,1056.25 395.253,1056.25 397.158,950.687 399.062,950.687 400.967,795.735 402.872,795.735 404.777,634.723 406.682,762.446 408.587,886.302 410.492,987.706 412.396,1070.73 414.301,1138.7 416.206,1194.35 418.111,1239.92 420.016,1239.92 421.921,1112.54 423.825,1115.41 425.73,1175.28 427.635,1175.28 429.54,1022.54 431.445,1022.54 433.35,892.839 435.255,934.302 437.159,1027.01 439.064,1027.01 440.969,870.835 442.874,870.835 444.779,654.552 446.684,716.114 448.589,716.114 450.493,671.468 452.398,688.801 454.303,688.801 456.208,627.092 458.113,731.005 460.018,731.005 461.923,586.056 463.827,586.056 465.732,491.747 467.637,491.747 469.542,308.786 471.447,373.989 473.352,373.989 475.257,261.116 477.161,261.116 479.066,192.699 480.971,275.619 482.876,275.619 484.781,189.102 486.686,223.032 488.59,444.667 490.495,626.126 492.4,626.126 494.305,609.516 496.21,674.31 498.115,674.31 500.02,641.168 501.924,653.403 503.829,653.403 505.734,575.223 507.639,647.323 509.544,792.047 511.449,910.537 513.354,1007.55 515.258,1086.97 517.163,1086.97 519.068,842.291 520.973,842.291 522.878,706.555 524.783,706.555 526.688,548.271 528.592,548.271 530.497,400.174 532.402,400.174 534.307,204.586 536.212,204.586 538.117,113.793 540.022,132.895 541.926,370.869 543.831,565.706 545.736,565.706 547.641,382.883 549.546,539.708 551.451,703.94 553.355,838.401 555.26,838.401 557.165,736.746 559.07,799.779 560.975,916.867 562.88,1012.73 564.785,1012.73 566.689,892.64 568.594,892.64 570.499,732.506 572.404,732.506 574.309,625.799 576.214,631.453 578.119,779.054 580.023,899.899 581.928,899.899 583.833,668.358 585.738,668.358 587.643,437.348 589.548,504.292 591.453,674.943 593.357,674.943 595.262,645.54 597.167,645.54 599.072,430.738 600.977,430.738 602.882,310.085 604.787,359.932 606.691,359.932 608.596,265.59 610.501,290.445 612.406,499.86 614.311,671.315 616.216,671.315 618.12,531.87 620.025,673.823 621.93,673.823 623.835,492.894 625.74,626.67 627.645,775.138 629.55,896.693 631.454,996.214 633.359,1077.69 635.264,1144.41 637.169,1144.41 639.074,880.665 640.979,880.665 642.884,723.724 644.788,723.724 646.693,628.916 648.598,677.526 650.503,816.775 652.408,816.775 654.313,715.227 656.218,782.62 658.122,902.819 660.027,1001.23 661.932,1081.8 663.837,1147.77 665.742,1147.77 667.647,1046.03 669.552,1110.52 671.456,1110.52 673.361,1030.39 675.266,1073.85 677.171,1141.26 679.076,1141.26 680.981,901.902 682.885,901.902 684.79,800.649 686.695,845.737 688.6,845.737 690.505,773.423 692.41,859.635 694.315,859.635 696.219,758.139 698.124,875.657 700.029,875.657 701.934,759.38 703.839,762.284 705.744,886.169 707.649,987.598 709.553,1070.64 711.458,1070.64 713.363,927.702 715.268,997.356 717.173,1078.63 719.078,1145.17 720.983,1199.65 722.887,1244.25 724.792,1280.77 726.697,1310.67 728.602,1310.67 730.507,1151.09 732.412,1197.81 734.317,1242.75 736.221,1279.54 738.126,1279.54 740.031,1019.4 741.936,1069.77 743.841,1137.91 745.746,1193.71 747.651,1193.71 749.555,1036.72 751.46,1102.37 753.365,1102.37 755.27,908.594 757.175,908.594 759.08,700.189 760.984,778.292 762.889,899.275 764.794,998.328 766.699,1079.43 768.604,1145.82 770.509,1145.82 772.414,986.173 774.318,1064.94 776.223,1064.94 778.128,949.142 780.033,981.317 781.938,1065.5 783.843,1134.42 785.748,1190.85 787.652,1237.05 789.557,1274.87 791.462,1305.84 793.367,1331.2 795.272,1351.96 797.177,1351.96 799.082,1200.22 800.986,1200.22 802.891,1042.08 804.796,1061.14 806.701,1130.85 808.606,1130.85 810.511,1023.64 812.416,1023.64 814.32,884.457 816.225,955.953 818.13,1044.73 820.035,1044.73 821.94,891.475 823.845,891.475 825.749,744.538 827.654,770.946 829.559,893.261 831.464,993.404 833.369,993.404 835.274,900.456 837.179,983.066 839.083,983.066 840.988,858.86 842.893,920.989 844.798,1016.11 846.703,1093.98 848.608,1093.98 850.513,935.723 852.417,943.378 854.322,943.378 856.227,792.458 858.132,897.448 860.037,996.832 861.942,996.832 863.847,844.394 865.751,941.278 867.656,1032.72 869.561,1107.58 871.466,1168.87 873.371,1168.87 875.276,1013.86 877.181,1081.34 879.085,1081.34 880.99,1006.1 882.895,1049.26 884.8,1049.26 886.705,946.767 888.61,963.317 890.514,1050.76 892.419,1050.76 894.324,890.508 896.229,987.708 898.134,987.708 900.039,839.838 901.944,839.838 903.848,674.02 905.753,730.865 907.658,860.445 909.563,966.537 911.468,966.537 913.373,890.463 915.278,957.774 917.182,957.774 919.087,823.065 920.992,904.296 922.897,1002.44 924.802,1002.44 926.707,855.211 928.612,855.211 930.516,791.232 932.421,844.137 934.326,844.137 936.231,806.086 938.136,852.218 940.041,852.218 941.946,793.77 943.85,862.45 945.755,968.178 947.66,1054.74 949.565,1054.74 951.47,850.204 953.375,850.204 955.279,764.213 957.184,764.213 959.089,630.017 960.994,630.017 962.899,450.829 964.804,485.115 966.709,659.242 968.613,659.242 970.518,510.772 972.423,665.617 974.328,807.025 976.233,922.8 978.138,1017.59 980.043,1095.19 981.947,1158.73 983.852,1210.75 985.757,1210.75 987.662,1053.89 989.567,1116 991.472,1175.77 993.377,1224.7 995.281,1264.76 997.186,1297.56 999.091,1324.42 1001,1346.41 1002.9,1364.41 1004.81,1379.15 1006.71,1379.15 1008.62,1282.21 1010.52,1282.78 1012.43,1282.78 1014.33,1038.62 1016.23,1043.63 1018.14,1043.63 1020.04,948.649 1021.95,948.649 1023.85,888.812 1025.76,921.902 1027.66,1016.85 1029.57,1016.85 1031.47,805.397 1033.38,835.234 1035.28,945.895 1037.19,945.895 1039.09,872.716 1041,873.499 1042.9,977.225 1044.81,1062.15 1046.71,1131.68 1048.62,1188.6 1050.52,1235.21 1052.43,1273.37 1054.33,1304.61 1056.24,1304.61 1058.14,1093.49 1060.05,1143.39 1061.95,1143.39 1063.86,1011.15 1065.76,1049.3 1067.67,1049.3 1069.57,834.918 1071.48,860.524 1073.38,860.524 1075.29,703.768 1077.19,703.768 1079.09,560.635 1081,560.635 1082.9,502.21 1084.81,535.046 1086.71,700.122 1088.62,835.276 1090.52,835.276 1092.43,608.382 1094.33,705.42 1096.24,839.613 1098.14,839.613 1100.05,719.203 1101.95,737.262 1103.86,865.683 1105.76,970.825 1107.67,1056.91 1109.57,1056.91 1111.48,865.415 1113.38,936.368 1115.29,936.368 1117.19,695.574 1119.1,695.574 1121,597.832 1122.91,635.438 1124.81,635.438 1126.72,500.605 1128.62,583.859 1130.53,583.859 1132.43,455.838 1134.34,600.763 1136.24,600.763 1138.15,453.255 1140.05,559.623 1141.96,720.244 1143.86,720.244 1145.76,690.919 1147.67,751.698 1149.57,751.698 1151.48,524.384 1153.38,639.438 1155.29,785.591 1157.19,905.252 1159.1,905.252 1161,829.339 1162.91,908.357 1164.81,1005.76 1166.72,1085.51 1168.62,1085.51 1170.53,821.848 1172.43,821.848 1174.34,638.732 1176.24,729.685 1178.15,859.479 1180.05,965.746 1181.96,1052.75 1183.86,1123.98 1185.77,1182.3 1187.67,1182.3 1189.58,1081.08 1191.48,1138.32 1193.39,1138.32 1195.29,1020.66 1197.2,1037.15 1199.1,1111.21 1201.01,1171.84 1202.91,1171.84 1204.82,981.216 1206.72,1023.82 1208.62,1100.3 1210.53,1100.3 1212.43,966.322 1214.34,1016.92 1216.24,1016.92 1218.15,920.178 1220.05,1002.97 1221.96,1083.23 1223.86,1083.23 1225.77,955.362 1227.67,1000.86 1229.58,1000.86 1231.48,857.411 1233.39,941.65 1235.29,1033.02 1237.2,1033.02 1239.1,888.693 1241.01,891.17 1242.91,891.17 1244.82,652.477 1246.72,652.477 1248.63,509.778 1250.53,509.778 1252.44,410.448 1254.34,510.459 1256.25,510.459 1258.15,319.055 1260.06,436.255 1261.96,619.239 1263.87,769.054 1265.77,769.054 1267.68,518.77 1269.58,518.77 1271.49,419.469 1273.39,450.555 1275.29,450.555 1277.2,424.841 1279.1,475.887 1281.01,475.887 1282.91,372.993 1284.82,372.993 1286.72,169.897 1288.63,244.739 1290.53,244.739 1292.44,87.9763 1294.34,328.083 1296.25,328.083 1298.15,220.803 1300.06,220.803 1301.96,110.231 1303.87,243.006 1305.77,461.02 1307.68,639.515 1309.58,785.655 1311.49,785.655 1313.39,730 1315.3,808.411 1317.2,923.934 1319.11,1018.52 1321.01,1018.52 1322.92,808.593 1324.82,808.593 1326.73,607.832 1328.63,728.119 1330.54,858.197 1332.44,964.696 1334.35,964.696 1336.25,848.788 1338.15,903.678 1340.06,903.678 1341.96,725.13 1343.87,732.789 1345.77,732.789 1347.68,467.172 1349.58,637.274 1351.49,783.819 1353.39,903.801 1355.3,1002.03 1357.2,1002.03 1359.11,845.379 1361.01,845.379 1362.92,749.338 1364.82,749.338 1366.73,665.776 1368.63,688.431 1370.54,825.703 1372.44,825.703 1374.35,747.814 1376.25,783.131 1378.16,903.237 1380.06,903.237 1381.97,761.563 1383.87,794.384 1385.78,794.384 1387.68,694.41 1389.59,694.41 1391.49,476.492 1393.4,578.821 1395.3,735.962 1397.21,864.619 1399.11,864.619 1401.02,740.603 1402.92,740.603 1404.82,654.89 1406.73,665.651 1408.63,665.651 1410.54,507.643 1412.44,546.198 1414.35,709.253 1416.25,842.751 1418.16,952.05 1420.06,1041.54 1421.97,1114.8 1423.87,1114.8 1425.78,897.494 1427.68,897.494 1429.59,788.898 1431.49,788.898 1433.4,728.176 1435.3,740.998 1437.21,740.998 1439.11,676.514 1441.02,773.672 1442.92,773.672 1444.83,684.25 1446.73,684.25 1448.64,467.019 1450.54,545.11 1452.45,708.362 1454.35,708.362 1456.26,583.814 1458.16,700.991 1460.07,700.991 1461.97,571.119 1463.88,696.087 1465.78,696.087 1467.68,597.023 1469.59,597.023 1471.49,450.419 1473.4,603.61 1475.3,603.61 1477.21,445.356 1479.11,498.739 1481.02,498.739 1482.92,484.912 1484.83,511.732 1486.73,681.034 1488.64,681.034 1490.54,565.741 1492.45,613.939 1494.35,613.939 1496.26,540.953 1498.16,540.953 1500.07,447.935 1501.97,452.315 1503.88,452.315 1505.78,295.133 1507.69,442.665 1509.59,624.487 1511.5,773.35 1513.4,895.23 1515.31,895.23 1517.21,796.022 1519.12,796.022 1521.02,685.635 1522.93,687.149 1524.83,824.654 1526.74,937.234 1528.64,1029.41 1530.55,1029.41 1532.45,932.012 1534.35,932.012 1536.26,833.027 1538.16,833.027 1540.07,588.139 1541.97,588.139 1543.88,450.495 1545.78,450.495 1547.69,306.077 1549.59,370.503 1551.5,565.406 1553.4,565.406 1555.31,420.895 1557.21,420.895 1559.12,363.723 1561.02,436.147 1562.93,436.147 1564.83,245.87 1566.74,245.87 1568.64,140.92 1570.55,344.144 1572.45,543.825 1574.36,543.825 1576.26,487.31 1578.17,490.379 1580.07,663.552 1581.98,805.334 1583.88,921.416 1585.79,1016.46 1587.69,1016.46 1589.6,925.661 1591.5,1001.27 1593.41,1081.84 1595.31,1147.8 1597.21,1147.8 1599.12,1030.41 1601.02,1030.41 1602.93,821.512 1604.83,828.777 1606.74,940.609 1608.64,1032.17 1610.55,1107.13 1612.45,1168.51 1614.36,1218.76 1616.26,1259.9 1618.17,1259.9 1620.07,1181.74 1621.98,1186.89 1623.88,1233.81 1625.79,1233.81 1627.69,1139.65 1629.6,1176.51 1631.5,1176.51 1633.41,938.43 1635.31,970.441 1637.22,1056.59 1639.12,1127.13 1641.03,1127.13 1642.93,1006.43 1644.84,1030.66 1646.74,1030.66 1648.65,892.954 1650.55,963.509 1652.46,963.509 1654.36,830.142 1656.27,908.465 1658.17,1005.85 1660.08,1085.59 1661.98,1150.87 1663.88,1204.31 1665.79,1248.07 1667.69,1283.9 1669.6,1313.23 1671.5,1313.23 1673.41,1096.97 1675.31,1096.97 1677.22,966.877 1679.12,1008.02 1681.03,1008.02 1682.93,919.481 1684.84,919.481 1686.74,713.669 1688.65,726.776 1690.55,857.098 1692.46,857.098 1694.36,709.36 1696.27,761.61 1698.17,885.617 1700.08,987.146 1701.98,1070.27 1703.89,1138.33 1705.79,1138.33 1707.7,993.57 1709.6,1051.87 1711.51,1123.26 1713.41,1123.26 1715.32,885.419 1717.22,932.575 1719.13,932.575 1721.03,810.64 1722.94,880.265 1724.84,982.764 1726.74,982.764 1728.65,935.341 1730.55,963.973 1732.46,1051.3 1734.36,1122.79 1736.27,1181.33 1738.17,1229.25 1740.08,1229.25 1741.98,1042.3 1743.89,1060.9 1745.79,1130.66 1747.7,1187.77 1749.6,1187.77 1751.51,1107.91 1753.41,1134.17 1755.32,1190.64 1757.22,1236.88 1759.13,1274.73 1761.03,1305.73 1762.94,1305.73 1764.84,1202.45 1766.75,1238.35 1768.65,1238.35 1770.56,1046.97 1772.46,1046.97 1774.37,788.884 1776.27,807.682 1778.18,923.338 1780.08,1018.03 1781.99,1018.03 1783.89,823.197 1785.8,823.771 1787.7,936.511 1789.61,936.511 1791.51,749.14 1793.41,761.673 1795.32,885.669 1797.22,987.188 1799.13,987.188 1801.03,904.743 1802.94,975.78 1804.84,1060.96 1806.75,1060.96 1808.65,873.447 1810.56,937.401 1812.46,1029.54 1814.37,1104.98 1816.27,1104.98 1818.18,1002.88 1820.08,1075.87 1821.99,1142.91 1823.89,1197.8 1825.8,1242.74 1827.7,1242.74 1829.61,1090.41 1831.51,1138.32 1833.42,1194.04 1835.32,1194.04 1837.23,1067.71 1839.13,1083.08 1841.04,1148.81 1842.94,1202.63 1844.85,1202.63 1846.75,1072.78 1848.66,1091.8 1850.56,1155.95 1852.47,1208.48 1854.37,1251.48 1856.27,1286.69 1858.18,1286.69 1860.08,1130.49 1861.99,1175.71 1863.89,1224.65 1865.8,1264.73 1867.7,1297.53 1869.61,1297.53 1871.51,1088.49 1873.42,1135.25 1875.32,1191.53 1877.23,1237.61 1879.13,1237.61 1881.04,1078.28 1882.94,1078.28 1884.85,972.959 1886.75,977.49 1888.66,977.49 1890.56,884.116 1892.47,884.116 1894.37,687.54 1896.28,687.726 1898.18,687.726 1900.09,640.665 1901.99,728.134 1903.9,728.134 1905.8,535.02 1907.71,673.729 1909.61,813.666 1911.52,813.666 1913.42,568.982 1915.33,695.44 1917.23,695.44 1919.14,697.181 1921.04,726.956 1922.94,857.245 1924.85,857.245 1926.75,751.423 1928.66,751.423 1930.56,617.528 1932.47,661.231 1934.37,803.434 1936.28,919.86 1938.18,919.86 1940.09,727.016 1941.99,828.189 1943.9,940.128 1945.8,940.128 1947.71,760.507 1949.61,839.113 1951.52,949.071 1953.42,1039.1 1955.33,1112.8 1957.23,1112.8 1959.14,979.943 1961.04,1026.11 1962.95,1102.17 1964.85,1164.44 1966.76,1164.44 1968.66,909.186 1970.57,909.186 1972.47,697.554 1974.38,697.554 1976.28,555.325 1978.19,639.09 1980.09,785.306 1982,905.018 1983.9,1003.03 1985.81,1003.03 1987.71,944.61 1989.61,982.741 1991.52,1066.66 1993.42,1066.66 1995.33,960.761 1997.23,977.933 1999.14,1062.73 2001.04,1062.73 2002.95,863.591 2004.85,944.934 2006.76,1035.71 2008.66,1035.71 2010.57,939.686 2012.47,950.202 2014.38,950.202 2016.28,927.935 2018.19,932.081 2020.09,932.081 2022,772.89 2023.9,890.496 2025.81,890.496 2027.71,833.26 2029.62,892.927 2031.52,892.927 2033.43,825.667 2035.33,831.426 2037.24,831.426 2039.14,764.357 2041.05,847.192 2042.95,955.686 2044.86,1044.51 2046.76,1044.51 2048.67,981.693 2050.57,1016.61 2052.47,1016.61 2054.38,858.787 2056.28,858.787 2058.19,697.972 2060.09,823.169 2062,936.017 2063.9,936.017 2065.81,677.274 2067.71,799.723 2069.62,916.821 2071.52,1012.69 2073.43,1012.69 2075.33,917.154 2077.24,932.796 2079.14,932.796 2081.05,745.329 2082.95,745.329 2084.86,609.506 2086.76,688.698 2088.67,825.922 2090.57,825.922 2092.48,703.93 2094.38,703.93 2096.29,459.984 2098.19,459.984 2100.1,386.99 2102,444.195 2103.91,625.74 2105.81,625.74 2107.72,525.158 2109.62,525.158 2111.53,492.015 2113.43,527.18 2115.34,527.18 2117.24,504.098 2119.14,535.99 2121.05,535.99 2122.95,468.15 2124.86,487.596 2126.76,661.273 2128.67,661.273 2130.57,543.943 2132.48,543.943 2134.38,430.209 2136.29,430.209 2138.19,350.929 2140.1,408.233 2142,596.297 2143.91,750.271 2145.81,876.333 2147.72,876.333 2149.62,634.915 2151.53,744.164 2153.43,871.334 2155.34,975.452 2157.24,975.452 2159.15,715.175 2161.05,832.261 2162.96,832.261 2164.86,703.862 2166.77,801.785 2168.67,801.785 2170.58,749.971 2172.48,756.918 2174.39,756.918 2176.29,658.222 2178.2,658.222 2180.1,504.905 2182,585.005 2183.91,741.025 2185.81,741.025 2187.72,645.818 2189.62,720.854 2191.53,852.249 2193.43,852.249 2195.34,728.4 2197.24,816.696 2199.15,816.696 2201.05,742.656 2202.96,775.008 2204.86,896.587 2206.77,996.127 2208.67,996.127 2210.58,930.737 2212.48,979.009 2214.39,1063.61 2216.29,1132.87 2218.2,1189.58 2220.1,1236.01 2222.01,1274.02 2223.91,1274.02 2225.82,1194.9 2227.72,1197.43 2229.63,1242.44 2231.53,1279.28 2233.44,1279.28 2235.34,1142.88 2237.25,1150.15 2239.15,1203.72 2241.06,1247.59 2242.96,1283.5 2244.87,1283.5 2246.77,1186.29 2248.67,1186.29 2250.58,1041.34 2252.48,1041.34 2254.39,879.799 2256.29,906.648 2258.2,906.648 2260.1,844.908 2262.01,844.908 2263.91,765.235 2265.82,804.161 2267.72,920.455 2269.63,1015.67 2271.53,1015.67 2273.44,752.793 2275.34,752.793 2277.25,682.054 2279.15,708.479 2281.06,708.479 2282.96,477.307 2284.87,606.325 2286.77,606.325 2288.68,501.331 2290.58,614.886 "/>
<path clip-path="url(#clip080)" d="M2007.42 198.898 L2279.53 198.898 L2279.53 95.2176 L2007.42 95.2176  Z" fill="#ffffff" fill-rule="evenodd" fill-opacity="1"/>
<polyline clip-path="url(#clip080)" style="stroke:#000000; stroke-linecap:round; stroke-linejoin:round; stroke-width:4; stroke-opacity:1; fill:none" points="2007.42,198.898 2279.53,198.898 2279.53,95.2176 2007.42,95.2176 2007.42,198.898 "/>
<polyline clip-path="url(#clip080)" style="stroke:#009af9; stroke-linecap:round; stroke-linejoin:round; stroke-width:4; stroke-opacity:1; fill:none" points="2031.82,147.058 2178.28,147.058 "/>
<path clip-path="url(#clip080)" d="M2216.53 166.745 Q2214.73 171.375 2213.01 172.787 Q2211.3 174.199 2208.43 174.199 L2205.03 174.199 L2205.03 170.634 L2207.53 170.634 Q2209.29 170.634 2210.26 169.8 Q2211.23 168.967 2212.41 165.865 L2213.17 163.921 L2202.69 138.412 L2207.2 138.412 L2215.3 158.689 L2223.41 138.412 L2227.92 138.412 L2216.53 166.745 Z" fill="#000000" fill-rule="nonzero" fill-opacity="1" /><path clip-path="url(#clip080)" d="M2235.21 160.402 L2242.85 160.402 L2242.85 134.037 L2234.54 135.703 L2234.54 131.444 L2242.8 129.778 L2247.48 129.778 L2247.48 160.402 L2255.12 160.402 L2255.12 164.338 L2235.21 164.338 L2235.21 160.402 Z" fill="#000000" fill-rule="nonzero" fill-opacity="1" /></svg>
