<?xml version="1.0" encoding="utf-8"?>
<svg xmlns="http://www.w3.org/2000/svg" xmlns:xlink="http://www.w3.org/1999/xlink" width="600" height="400" viewBox="0 0 2400 1600">
<defs>
  <clipPath id="clip920">
    <rect x="0" y="0" width="2400" height="1600"/>
  </clipPath>
</defs>
<path clip-path="url(#clip920)" d="M0 1600 L2400 1600 L2400 0 L0 0  Z" fill="#ffffff" fill-rule="evenodd" fill-opacity="1"/>
<defs>
  <clipPath id="clip921">
    <rect x="480" y="0" width="1681" height="1600"/>
  </clipPath>
</defs>
<path clip-path="url(#clip920)" d="M140.696 1423.18 L2352.76 1423.18 L2352.76 47.2441 L140.696 47.2441  Z" fill="#ffffff" fill-rule="evenodd" fill-opacity="1"/>
<defs>
  <clipPath id="clip922">
    <rect x="140" y="47" width="2213" height="1377"/>
  </clipPath>
</defs>
<polyline clip-path="url(#clip922)" style="stroke:#000000; stroke-linecap:round; stroke-linejoin:round; stroke-width:2; stroke-opacity:0.1; fill:none" points="140.696,1423.18 140.696,47.2441 "/>
<polyline clip-path="url(#clip922)" style="stroke:#000000; stroke-linecap:round; stroke-linejoin:round; stroke-width:2; stroke-opacity:0.1; fill:none" points="583.108,1423.18 583.108,47.2441 "/>
<polyline clip-path="url(#clip922)" style="stroke:#000000; stroke-linecap:round; stroke-linejoin:round; stroke-width:2; stroke-opacity:0.1; fill:none" points="1025.52,1423.18 1025.52,47.2441 "/>
<polyline clip-path="url(#clip922)" style="stroke:#000000; stroke-linecap:round; stroke-linejoin:round; stroke-width:2; stroke-opacity:0.1; fill:none" points="1467.93,1423.18 1467.93,47.2441 "/>
<polyline clip-path="url(#clip922)" style="stroke:#000000; stroke-linecap:round; stroke-linejoin:round; stroke-width:2; stroke-opacity:0.1; fill:none" points="1910.34,1423.18 1910.34,47.2441 "/>
<polyline clip-path="url(#clip922)" style="stroke:#000000; stroke-linecap:round; stroke-linejoin:round; stroke-width:2; stroke-opacity:0.1; fill:none" points="2352.76,1423.18 2352.76,47.2441 "/>
<polyline clip-path="url(#clip920)" style="stroke:#000000; stroke-linecap:round; stroke-linejoin:round; stroke-width:4; stroke-opacity:1; fill:none" points="140.696,1423.18 2352.76,1423.18 "/>
<polyline clip-path="url(#clip920)" style="stroke:#000000; stroke-linecap:round; stroke-linejoin:round; stroke-width:4; stroke-opacity:1; fill:none" points="140.696,1423.18 140.696,1404.28 "/>
<polyline clip-path="url(#clip920)" style="stroke:#000000; stroke-linecap:round; stroke-linejoin:round; stroke-width:4; stroke-opacity:1; fill:none" points="583.108,1423.18 583.108,1404.28 "/>
<polyline clip-path="url(#clip920)" style="stroke:#000000; stroke-linecap:round; stroke-linejoin:round; stroke-width:4; stroke-opacity:1; fill:none" points="1025.52,1423.18 1025.52,1404.28 "/>
<polyline clip-path="url(#clip920)" style="stroke:#000000; stroke-linecap:round; stroke-linejoin:round; stroke-width:4; stroke-opacity:1; fill:none" points="1467.93,1423.18 1467.93,1404.28 "/>
<polyline clip-path="url(#clip920)" style="stroke:#000000; stroke-linecap:round; stroke-linejoin:round; stroke-width:4; stroke-opacity:1; fill:none" points="1910.34,1423.18 1910.34,1404.28 "/>
<polyline clip-path="url(#clip920)" style="stroke:#000000; stroke-linecap:round; stroke-linejoin:round; stroke-width:4; stroke-opacity:1; fill:none" points="2352.76,1423.18 2352.76,1404.28 "/>
<path clip-path="url(#clip920)" d="M140.696 1454.1 Q137.084 1454.1 135.256 1457.66 Q133.45 1461.2 133.45 1468.33 Q133.45 1475.44 135.256 1479.01 Q137.084 1482.55 140.696 1482.55 Q144.33 1482.55 146.135 1479.01 Q147.964 1475.44 147.964 1468.33 Q147.964 1461.2 146.135 1457.66 Q144.33 1454.1 140.696 1454.1 M140.696 1450.39 Q146.506 1450.39 149.561 1455 Q152.64 1459.58 152.64 1468.33 Q152.64 1477.06 149.561 1481.67 Q146.506 1486.25 140.696 1486.25 Q134.885 1486.25 131.807 1481.67 Q128.751 1477.06 128.751 1468.33 Q128.751 1459.58 131.807 1455 Q134.885 1450.39 140.696 1450.39 Z" fill="#000000" fill-rule="nonzero" fill-opacity="1" /><path clip-path="url(#clip920)" d="M577.76 1481.64 L594.08 1481.64 L594.08 1485.58 L572.135 1485.58 L572.135 1481.64 Q574.797 1478.89 579.381 1474.26 Q583.987 1469.61 585.168 1468.27 Q587.413 1465.74 588.293 1464.01 Q589.196 1462.25 589.196 1460.56 Q589.196 1457.8 587.251 1456.07 Q585.33 1454.33 582.228 1454.33 Q580.029 1454.33 577.575 1455.09 Q575.145 1455.86 572.367 1457.41 L572.367 1452.69 Q575.191 1451.55 577.645 1450.97 Q580.098 1450.39 582.135 1450.39 Q587.506 1450.39 590.7 1453.08 Q593.895 1455.77 593.895 1460.26 Q593.895 1462.39 593.084 1464.31 Q592.297 1466.2 590.191 1468.8 Q589.612 1469.47 586.51 1472.69 Q583.409 1475.88 577.76 1481.64 Z" fill="#000000" fill-rule="nonzero" fill-opacity="1" /><path clip-path="url(#clip920)" d="M1028.53 1455.09 L1016.72 1473.54 L1028.53 1473.54 L1028.53 1455.09 M1027.3 1451.02 L1033.18 1451.02 L1033.18 1473.54 L1038.11 1473.54 L1038.11 1477.43 L1033.18 1477.43 L1033.18 1485.58 L1028.53 1485.58 L1028.53 1477.43 L1012.93 1477.43 L1012.93 1472.92 L1027.3 1451.02 Z" fill="#000000" fill-rule="nonzero" fill-opacity="1" /><path clip-path="url(#clip920)" d="M1468.34 1466.44 Q1465.19 1466.44 1463.34 1468.59 Q1461.51 1470.74 1461.51 1474.49 Q1461.51 1478.22 1463.34 1480.39 Q1465.19 1482.55 1468.34 1482.55 Q1471.48 1482.55 1473.31 1480.39 Q1475.17 1478.22 1475.17 1474.49 Q1475.17 1470.74 1473.31 1468.59 Q1471.48 1466.44 1468.34 1466.44 M1477.62 1451.78 L1477.62 1456.04 Q1475.86 1455.21 1474.05 1454.77 Q1472.27 1454.33 1470.51 1454.33 Q1465.88 1454.33 1463.43 1457.45 Q1461 1460.58 1460.65 1466.9 Q1462.02 1464.89 1464.08 1463.82 Q1466.14 1462.73 1468.61 1462.73 Q1473.82 1462.73 1476.83 1465.9 Q1479.86 1469.05 1479.86 1474.49 Q1479.86 1479.82 1476.72 1483.03 Q1473.57 1486.25 1468.34 1486.25 Q1462.34 1486.25 1459.17 1481.67 Q1456 1477.06 1456 1468.33 Q1456 1460.14 1459.89 1455.28 Q1463.78 1450.39 1470.33 1450.39 Q1472.09 1450.39 1473.87 1450.74 Q1475.67 1451.09 1477.62 1451.78 Z" fill="#000000" fill-rule="nonzero" fill-opacity="1" /><path clip-path="url(#clip920)" d="M1910.34 1469.17 Q1907.01 1469.17 1905.09 1470.95 Q1903.19 1472.73 1903.19 1475.86 Q1903.19 1478.98 1905.09 1480.77 Q1907.01 1482.55 1910.34 1482.55 Q1913.68 1482.55 1915.6 1480.77 Q1917.52 1478.96 1917.52 1475.86 Q1917.52 1472.73 1915.6 1470.95 Q1913.7 1469.17 1910.34 1469.17 M1905.67 1467.18 Q1902.66 1466.44 1900.97 1464.38 Q1899.3 1462.32 1899.3 1459.35 Q1899.3 1455.21 1902.24 1452.8 Q1905.2 1450.39 1910.34 1450.39 Q1915.51 1450.39 1918.45 1452.8 Q1921.39 1455.21 1921.39 1459.35 Q1921.39 1462.32 1919.7 1464.38 Q1918.03 1466.44 1915.04 1467.18 Q1918.42 1467.96 1920.3 1470.26 Q1922.2 1472.55 1922.2 1475.86 Q1922.2 1480.88 1919.12 1483.57 Q1916.06 1486.25 1910.34 1486.25 Q1904.63 1486.25 1901.55 1483.57 Q1898.49 1480.88 1898.49 1475.86 Q1898.49 1472.55 1900.39 1470.26 Q1902.29 1467.96 1905.67 1467.18 M1903.95 1459.79 Q1903.95 1462.48 1905.62 1463.98 Q1907.31 1465.49 1910.34 1465.49 Q1913.35 1465.49 1915.04 1463.98 Q1916.76 1462.48 1916.76 1459.79 Q1916.76 1457.11 1915.04 1455.6 Q1913.35 1454.1 1910.34 1454.1 Q1907.31 1454.1 1905.62 1455.6 Q1903.95 1457.11 1903.95 1459.79 Z" fill="#000000" fill-rule="nonzero" fill-opacity="1" /><path clip-path="url(#clip920)" d="M2327.44 1481.64 L2335.08 1481.64 L2335.08 1455.28 L2326.77 1456.95 L2326.77 1452.69 L2335.04 1451.02 L2339.71 1451.02 L2339.71 1481.64 L2347.35 1481.64 L2347.35 1485.58 L2327.44 1485.58 L2327.44 1481.64 Z" fill="#000000" fill-rule="nonzero" fill-opacity="1" /><path clip-path="url(#clip920)" d="M2366.8 1454.1 Q2363.18 1454.1 2361.36 1457.66 Q2359.55 1461.2 2359.55 1468.33 Q2359.55 1475.44 2361.36 1479.01 Q2363.18 1482.55 2366.8 1482.55 Q2370.43 1482.55 2372.23 1479.01 Q2374.06 1475.44 2374.06 1468.33 Q2374.06 1461.2 2372.23 1457.66 Q2370.43 1454.1 2366.8 1454.1 M2366.8 1450.39 Q2372.61 1450.39 2375.66 1455 Q2378.74 1459.58 2378.74 1468.33 Q2378.74 1477.06 2375.66 1481.67 Q2372.61 1486.25 2366.8 1486.25 Q2360.99 1486.25 2357.91 1481.67 Q2354.85 1477.06 2354.85 1468.33 Q2354.85 1459.58 2357.91 1455 Q2360.99 1450.39 2366.8 1450.39 Z" fill="#000000" fill-rule="nonzero" fill-opacity="1" /><path clip-path="url(#clip920)" d="M1245.79 1522.27 L1245.79 1532.4 L1257.85 1532.4 L1257.85 1536.95 L1245.79 1536.95 L1245.79 1556.3 Q1245.79 1560.66 1246.96 1561.9 Q1248.17 1563.14 1251.83 1563.14 L1257.85 1563.14 L1257.85 1568.04 L1251.83 1568.04 Q1245.05 1568.04 1242.48 1565.53 Q1239.9 1562.98 1239.9 1556.3 L1239.9 1536.95 L1235.6 1536.95 L1235.6 1532.4 L1239.9 1532.4 L1239.9 1522.27 L1245.79 1522.27 Z" fill="#000000" fill-rule="nonzero" fill-opacity="1" /><polyline clip-path="url(#clip922)" style="stroke:#000000; stroke-linecap:round; stroke-linejoin:round; stroke-width:2; stroke-opacity:0.1; fill:none" points="140.696,1180.61 2352.76,1180.61 "/>
<polyline clip-path="url(#clip922)" style="stroke:#000000; stroke-linecap:round; stroke-linejoin:round; stroke-width:2; stroke-opacity:0.1; fill:none" points="140.696,907.006 2352.76,907.006 "/>
<polyline clip-path="url(#clip922)" style="stroke:#000000; stroke-linecap:round; stroke-linejoin:round; stroke-width:2; stroke-opacity:0.1; fill:none" points="140.696,633.399 2352.76,633.399 "/>
<polyline clip-path="url(#clip922)" style="stroke:#000000; stroke-linecap:round; stroke-linejoin:round; stroke-width:2; stroke-opacity:0.1; fill:none" points="140.696,359.792 2352.76,359.792 "/>
<polyline clip-path="url(#clip922)" style="stroke:#000000; stroke-linecap:round; stroke-linejoin:round; stroke-width:2; stroke-opacity:0.1; fill:none" points="140.696,86.1857 2352.76,86.1857 "/>
<polyline clip-path="url(#clip920)" style="stroke:#000000; stroke-linecap:round; stroke-linejoin:round; stroke-width:4; stroke-opacity:1; fill:none" points="140.696,1423.18 140.696,47.2441 "/>
<polyline clip-path="url(#clip920)" style="stroke:#000000; stroke-linecap:round; stroke-linejoin:round; stroke-width:4; stroke-opacity:1; fill:none" points="140.696,1180.61 159.593,1180.61 "/>
<polyline clip-path="url(#clip920)" style="stroke:#000000; stroke-linecap:round; stroke-linejoin:round; stroke-width:4; stroke-opacity:1; fill:none" points="140.696,907.006 159.593,907.006 "/>
<polyline clip-path="url(#clip920)" style="stroke:#000000; stroke-linecap:round; stroke-linejoin:round; stroke-width:4; stroke-opacity:1; fill:none" points="140.696,633.399 159.593,633.399 "/>
<polyline clip-path="url(#clip920)" style="stroke:#000000; stroke-linecap:round; stroke-linejoin:round; stroke-width:4; stroke-opacity:1; fill:none" points="140.696,359.792 159.593,359.792 "/>
<polyline clip-path="url(#clip920)" style="stroke:#000000; stroke-linecap:round; stroke-linejoin:round; stroke-width:4; stroke-opacity:1; fill:none" points="140.696,86.1857 159.593,86.1857 "/>
<path clip-path="url(#clip920)" d="M92.7512 1166.41 Q89.1401 1166.41 87.3114 1169.98 Q85.5058 1173.52 85.5058 1180.65 Q85.5058 1187.75 87.3114 1191.32 Q89.1401 1194.86 92.7512 1194.86 Q96.3854 1194.86 98.1909 1191.32 Q100.02 1187.75 100.02 1180.65 Q100.02 1173.52 98.1909 1169.98 Q96.3854 1166.41 92.7512 1166.41 M92.7512 1162.71 Q98.5613 1162.71 101.617 1167.31 Q104.696 1171.9 104.696 1180.65 Q104.696 1189.37 101.617 1193.98 Q98.5613 1198.56 92.7512 1198.56 Q86.941 1198.56 83.8623 1193.98 Q80.8068 1189.37 80.8068 1180.65 Q80.8068 1171.9 83.8623 1167.31 Q86.941 1162.71 92.7512 1162.71 Z" fill="#000000" fill-rule="nonzero" fill-opacity="1" /><path clip-path="url(#clip920)" d="M83.7929 889.726 L102.149 889.726 L102.149 893.661 L88.0753 893.661 L88.0753 902.133 Q89.0938 901.786 90.1123 901.624 Q91.1308 901.439 92.1493 901.439 Q97.9363 901.439 101.316 904.61 Q104.696 907.781 104.696 913.198 Q104.696 918.777 101.223 921.879 Q97.7511 924.957 91.4317 924.957 Q89.2558 924.957 86.9873 924.587 Q84.7419 924.217 82.3346 923.476 L82.3346 918.777 Q84.4179 919.911 86.6401 920.467 Q88.8623 921.022 91.3391 921.022 Q95.3437 921.022 97.6817 918.916 Q100.02 916.809 100.02 913.198 Q100.02 909.587 97.6817 907.481 Q95.3437 905.374 91.3391 905.374 Q89.4641 905.374 87.5892 905.791 Q85.7373 906.207 83.7929 907.087 L83.7929 889.726 Z" fill="#000000" fill-rule="nonzero" fill-opacity="1" /><path clip-path="url(#clip920)" d="M53.3995 646.744 L61.0384 646.744 L61.0384 620.378 L52.7282 622.045 L52.7282 617.786 L60.9921 616.119 L65.668 616.119 L65.668 646.744 L73.3068 646.744 L73.3068 650.679 L53.3995 650.679 L53.3995 646.744 Z" fill="#000000" fill-rule="nonzero" fill-opacity="1" /><path clip-path="url(#clip920)" d="M92.7512 619.198 Q89.1401 619.198 87.3114 622.763 Q85.5058 626.304 85.5058 633.434 Q85.5058 640.54 87.3114 644.105 Q89.1401 647.647 92.7512 647.647 Q96.3854 647.647 98.1909 644.105 Q100.02 640.54 100.02 633.434 Q100.02 626.304 98.1909 622.763 Q96.3854 619.198 92.7512 619.198 M92.7512 615.494 Q98.5613 615.494 101.617 620.101 Q104.696 624.684 104.696 633.434 Q104.696 642.161 101.617 646.767 Q98.5613 651.351 92.7512 651.351 Q86.941 651.351 83.8623 646.767 Q80.8068 642.161 80.8068 633.434 Q80.8068 624.684 83.8623 620.101 Q86.941 615.494 92.7512 615.494 Z" fill="#000000" fill-rule="nonzero" fill-opacity="1" /><path clip-path="url(#clip920)" d="M54.3949 373.137 L62.0337 373.137 L62.0337 346.772 L53.7236 348.438 L53.7236 344.179 L61.9874 342.512 L66.6633 342.512 L66.6633 373.137 L74.3022 373.137 L74.3022 377.072 L54.3949 377.072 L54.3949 373.137 Z" fill="#000000" fill-rule="nonzero" fill-opacity="1" /><path clip-path="url(#clip920)" d="M83.7929 342.512 L102.149 342.512 L102.149 346.448 L88.0753 346.448 L88.0753 354.92 Q89.0938 354.573 90.1123 354.411 Q91.1308 354.225 92.1493 354.225 Q97.9363 354.225 101.316 357.397 Q104.696 360.568 104.696 365.985 Q104.696 371.563 101.223 374.665 Q97.7511 377.744 91.4317 377.744 Q89.2558 377.744 86.9873 377.373 Q84.7419 377.003 82.3346 376.262 L82.3346 371.563 Q84.4179 372.697 86.6401 373.253 Q88.8623 373.809 91.3391 373.809 Q95.3437 373.809 97.6817 371.702 Q100.02 369.596 100.02 365.985 Q100.02 362.373 97.6817 360.267 Q95.3437 358.161 91.3391 358.161 Q89.4641 358.161 87.5892 358.577 Q85.7373 358.994 83.7929 359.873 L83.7929 342.512 Z" fill="#000000" fill-rule="nonzero" fill-opacity="1" /><path clip-path="url(#clip920)" d="M56.6171 99.5305 L72.9365 99.5305 L72.9365 103.466 L50.9921 103.466 L50.9921 99.5305 Q53.6541 96.7759 58.2375 92.1463 Q62.8439 87.4935 64.0245 86.151 Q66.2698 83.6278 67.1494 81.8917 Q68.0522 80.1325 68.0522 78.4427 Q68.0522 75.688 66.1078 73.9519 Q64.1865 72.2158 61.0847 72.2158 Q58.8856 72.2158 56.4319 72.9797 Q54.0014 73.7436 51.2236 75.2945 L51.2236 70.5723 Q54.0477 69.4381 56.5014 68.8594 Q58.955 68.2807 60.9921 68.2807 Q66.3624 68.2807 69.5568 70.9658 Q72.7513 73.651 72.7513 78.1417 Q72.7513 80.2714 71.9411 82.1926 Q71.1541 84.0908 69.0476 86.6834 Q68.4689 87.3546 65.367 90.5722 Q62.2652 93.7667 56.6171 99.5305 Z" fill="#000000" fill-rule="nonzero" fill-opacity="1" /><path clip-path="url(#clip920)" d="M92.7512 71.9844 Q89.1401 71.9844 87.3114 75.5492 Q85.5058 79.0908 85.5058 86.2204 Q85.5058 93.3268 87.3114 96.8916 Q89.1401 100.433 92.7512 100.433 Q96.3854 100.433 98.1909 96.8916 Q100.02 93.3268 100.02 86.2204 Q100.02 79.0908 98.1909 75.5492 Q96.3854 71.9844 92.7512 71.9844 M92.7512 68.2807 Q98.5613 68.2807 101.617 72.8871 Q104.696 77.4704 104.696 86.2204 Q104.696 94.9472 101.617 99.5537 Q98.5613 104.137 92.7512 104.137 Q86.941 104.137 83.8623 99.5537 Q80.8068 94.9472 80.8068 86.2204 Q80.8068 77.4704 83.8623 72.8871 Q86.941 68.2807 92.7512 68.2807 Z" fill="#000000" fill-rule="nonzero" fill-opacity="1" /><polyline clip-path="url(#clip922)" style="stroke:#009af9; stroke-linecap:round; stroke-linejoin:round; stroke-width:8; stroke-opacity:1; fill:none" points="140.696,1180.61 142.91,1180.61 145.124,1180.61 147.338,1180.61 149.553,1180.61 151.767,1180.61 153.981,1180.61 156.195,1180.61 158.41,1180.61 160.624,1180.61 162.838,1180.61 165.053,1180.61 167.267,1180.61 169.481,1180.61 171.695,1180.61 173.91,1180.61 176.124,1180.61 178.338,1180.61 180.552,1180.61 182.767,1180.61 184.981,1180.61 187.195,1180.61 189.41,1180.61 191.624,1180.61 193.838,1180.61 196.052,1125.89 198.267,1125.89 200.481,1125.89 202.695,1125.89 204.91,1125.89 207.124,1125.89 209.338,1125.89 211.552,1125.89 213.767,1125.89 215.981,1125.89 218.195,1125.89 220.409,1125.89 222.624,1125.89 224.838,1125.89 227.052,1125.89 229.267,1125.89 231.481,1125.89 233.695,1125.89 235.909,1125.89 238.124,1125.89 240.338,1125.89 242.552,1125.89 244.766,1125.89 246.981,1125.89 249.195,1071.17 251.409,1071.17 253.624,1071.17 255.838,1071.17 258.052,1071.17 260.266,1071.17 262.481,1071.17 264.695,1071.17 266.909,1125.89 269.123,1125.89 271.338,1125.89 273.552,1125.89 275.766,1125.89 277.981,1125.89 280.195,1125.89 282.409,1125.89 284.623,1125.89 286.838,1125.89 289.052,1125.89 291.266,1125.89 293.48,1125.89 295.695,1125.89 297.909,1125.89 300.123,1125.89 302.338,1125.89 304.552,1125.89 306.766,1125.89 308.98,1125.89 311.195,1125.89 313.409,1125.89 315.623,1125.89 317.838,1125.89 320.052,1125.89 322.266,1125.89 324.48,1125.89 326.695,1125.89 328.909,1125.89 331.123,1071.17 333.337,1071.17 335.552,1071.17 337.766,1071.17 339.98,1071.17 342.195,1071.17 344.409,1071.17 346.623,1071.17 348.837,1071.17 351.052,1071.17 353.266,1125.89 355.48,1125.89 357.694,1071.17 359.909,1071.17 362.123,1071.17 364.337,1071.17 366.552,1071.17 368.766,1071.17 370.98,1071.17 373.194,1071.17 375.409,1071.17 377.623,1071.17 379.837,1071.17 382.051,1071.17 384.266,1071.17 386.48,1071.17 388.694,1071.17 390.909,1071.17 393.123,1071.17 395.337,1071.17 397.551,1071.17 399.766,1071.17 401.98,1125.89 404.194,1125.89 406.408,1125.89 408.623,1071.17 410.837,1071.17 413.051,1071.17 415.266,1071.17 417.48,1071.17 419.694,1071.17 421.908,1071.17 424.123,1071.17 426.337,1071.17 428.551,1071.17 430.766,1071.17 432.98,1071.17 435.194,1071.17 437.408,1071.17 439.623,1071.17 441.837,1071.17 444.051,1071.17 446.265,1071.17 448.48,1071.17 450.694,1071.17 452.908,1071.17 455.123,1071.17 457.337,1071.17 459.551,1071.17 461.765,1071.17 463.98,1071.17 466.194,1071.17 468.408,1016.45 470.622,1016.45 472.837,1016.45 475.051,1016.45 477.265,1016.45 479.48,1071.17 481.694,1071.17 483.908,1071.17 486.122,1071.17 488.337,1071.17 490.551,1071.17 492.765,1071.17 494.979,1071.17 497.194,1071.17 499.408,1071.17 501.622,1071.17 503.837,1071.17 506.051,1071.17 508.265,1071.17 510.479,1071.17 512.694,1071.17 514.908,1071.17 517.122,1071.17 519.337,1071.17 521.551,1071.17 523.765,1071.17 525.979,1071.17 528.194,1071.17 530.408,1071.17 532.622,1071.17 534.836,1071.17 537.051,1071.17 539.265,1071.17 541.479,1071.17 543.694,1071.17 545.908,1071.17 548.122,1125.89 550.336,1125.89 552.551,1125.89 554.765,1125.89 556.979,1125.89 559.193,1125.89 561.408,1125.89 563.622,1125.89 565.836,1125.89 568.051,1125.89 570.265,1125.89 572.479,1125.89 574.693,1125.89 576.908,1125.89 579.122,1125.89 581.336,1125.89 583.55,1125.89 585.765,1125.89 587.979,1125.89 590.193,1125.89 592.408,1125.89 594.622,1125.89 596.836,1125.89 599.05,1071.17 601.265,1071.17 603.479,1071.17 605.693,1071.17 607.907,1071.17 610.122,1071.17 612.336,1071.17 614.55,1071.17 616.765,1071.17 618.979,1071.17 621.193,1071.17 623.407,1071.17 625.622,1071.17 627.836,1071.17 630.05,1071.17 632.265,1071.17 634.479,1071.17 636.693,1071.17 638.907,1071.17 641.122,1071.17 643.336,1071.17 645.55,1071.17 647.764,1071.17 649.979,1071.17 652.193,1071.17 654.407,1071.17 656.622,1071.17 658.836,1071.17 661.05,1071.17 663.264,1071.17 665.479,1071.17 667.693,1071.17 669.907,1071.17 672.121,1071.17 674.336,1071.17 676.55,1071.17 678.764,1071.17 680.979,1071.17 683.193,1071.17 685.407,1071.17 687.621,1071.17 689.836,1071.17 692.05,1071.17 694.264,1071.17 696.478,1071.17 698.693,1071.17 700.907,1071.17 703.121,1071.17 705.336,1071.17 707.55,1071.17 709.764,1071.17 711.978,1071.17 714.193,1071.17 716.407,1071.17 718.621,1071.17 720.835,1071.17 723.05,1071.17 725.264,1071.17 727.478,1071.17 729.693,1071.17 731.907,1071.17 734.121,1071.17 736.335,1071.17 738.55,1071.17 740.764,1071.17 742.978,1071.17 745.193,1071.17 747.407,1071.17 749.621,1071.17 751.835,1071.17 754.05,1071.17 756.264,1071.17 758.478,1125.89 760.692,1180.61 762.907,1180.61 765.121,1180.61 767.335,1180.61 769.55,1180.61 771.764,1180.61 773.978,1180.61 776.192,1180.61 778.407,1180.61 780.621,1180.61 782.835,1180.61 785.049,1180.61 787.264,1180.61 789.478,1180.61 791.692,1180.61 793.907,1180.61 796.121,1180.61 798.335,1180.61 800.549,1180.61 802.764,1180.61 804.978,1180.61 807.192,1180.61 809.406,1180.61 811.621,1180.61 813.835,1180.61 816.049,1180.61 818.264,1180.61 820.478,1180.61 822.692,1180.61 824.906,1180.61 827.121,1180.61 829.335,1180.61 831.549,1180.61 833.764,1180.61 835.978,1180.61 838.192,1180.61 840.406,1180.61 842.621,1180.61 844.835,1180.61 847.049,1180.61 849.263,1180.61 851.478,1180.61 853.692,1180.61 855.906,1180.61 858.121,1180.61 860.335,1180.61 862.549,1180.61 864.763,1180.61 866.978,1180.61 869.192,1180.61 871.406,1180.61 873.62,1180.61 875.835,1180.61 878.049,1180.61 880.263,1180.61 882.478,1180.61 884.692,1180.61 886.906,1180.61 889.12,1180.61 891.335,1180.61 893.549,1180.61 895.763,1180.61 897.977,1180.61 900.192,1180.61 902.406,1180.61 904.62,1180.61 906.835,1180.61 909.049,1180.61 911.263,1180.61 913.477,1180.61 915.692,1180.61 917.906,1180.61 920.12,1180.61 922.334,1180.61 924.549,1180.61 926.763,1180.61 928.977,1180.61 931.192,1180.61 933.406,1180.61 935.62,1180.61 937.834,1180.61 940.049,1180.61 942.263,1180.61 944.477,1180.61 946.692,1180.61 948.906,1180.61 951.12,1180.61 953.334,1180.61 955.549,1125.89 957.763,1125.89 959.977,1125.89 962.191,1125.89 964.406,1125.89 966.62,1125.89 968.834,1125.89 971.049,1125.89 973.263,1125.89 975.477,1125.89 977.691,1125.89 979.906,1125.89 982.12,1125.89 984.334,1125.89 986.548,1125.89 988.763,1125.89 990.977,1180.61 993.191,1180.61 995.406,1180.61 997.62,1180.61 999.834,1180.61 1002.05,1180.61 1004.26,1180.61 1006.48,1180.61 1008.69,1180.61 1010.91,1180.61 1013.12,1180.61 1015.33,1180.61 1017.55,1180.61 1019.76,1180.61 1021.98,1180.61 1024.19,1180.61 1026.41,1180.61 1028.62,1180.61 1030.83,1180.61 1033.05,1180.61 1035.26,1180.61 1037.48,1180.61 1039.69,1180.61 1041.91,1180.61 1044.12,1180.61 1046.33,1180.61 1048.55,1180.61 1050.76,1180.61 1052.98,1180.61 1055.19,1180.61 1057.41,1180.61 1059.62,1180.61 1061.83,1180.61 1064.05,1180.61 1066.26,1180.61 1068.48,1180.61 1070.69,1180.61 1072.91,1180.61 1075.12,1180.61 1077.33,1180.61 1079.55,1180.61 1081.76,1180.61 1083.98,1125.89 1086.19,1180.61 1088.41,1180.61 1090.62,1180.61 1092.83,1125.89 1095.05,1125.89 1097.26,1125.89 1099.48,1125.89 1101.69,1125.89 1103.91,1125.89 1106.12,1125.89 1108.33,1125.89 1110.55,1125.89 1112.76,1125.89 1114.98,1125.89 1117.19,1125.89 1119.4,1180.61 1121.62,1180.61 1123.83,1180.61 1126.05,1180.61 1128.26,1180.61 1130.48,1180.61 1132.69,1180.61 1134.9,1180.61 1137.12,1180.61 1139.33,1180.61 1141.55,1180.61 1143.76,1180.61 1145.98,1180.61 1148.19,1180.61 1150.4,1180.61 1152.62,1180.61 1154.83,1180.61 1157.05,1180.61 1159.26,1180.61 1161.48,1180.61 1163.69,1180.61 1165.9,1180.61 1168.12,1180.61 1170.33,1180.61 1172.55,1180.61 1174.76,1180.61 1176.98,1180.61 1179.19,1180.61 1181.4,1180.61 1183.62,1180.61 1185.83,1180.61 1188.05,1180.61 1190.26,1180.61 1192.48,1180.61 1194.69,1180.61 1196.9,1180.61 1199.12,1180.61 1201.33,1180.61 1203.55,1180.61 1205.76,1180.61 1207.98,1180.61 1210.19,1180.61 1212.4,1180.61 1214.62,1180.61 1216.83,1180.61 1219.05,1180.61 1221.26,1180.61 1223.48,1180.61 1225.69,1180.61 1227.9,1180.61 1230.12,1180.61 1232.33,1180.61 1234.55,1180.61 1236.76,1180.61 1238.98,1180.61 1241.19,1180.61 1243.4,1180.61 1245.62,1180.61 1247.83,1180.61 1250.05,1180.61 1252.26,1180.61 1254.48,1180.61 1256.69,1180.61 1258.9,1180.61 1261.12,1180.61 1263.33,1180.61 1265.55,1180.61 1267.76,1180.61 1269.98,1180.61 1272.19,1180.61 1274.4,1180.61 1276.62,1180.61 1278.83,1180.61 1281.05,1180.61 1283.26,1180.61 1285.48,1180.61 1287.69,1180.61 1289.9,1180.61 1292.12,1180.61 1294.33,1180.61 1296.55,1180.61 1298.76,1180.61 1300.98,1125.89 1303.19,1125.89 1305.4,1125.89 1307.62,1125.89 1309.83,1125.89 1312.05,1125.89 1314.26,1125.89 1316.48,1125.89 1318.69,1125.89 1320.9,1125.89 1323.12,1125.89 1325.33,1125.89 1327.55,1125.89 1329.76,1125.89 1331.98,1125.89 1334.19,1125.89 1336.4,1125.89 1338.62,1125.89 1340.83,1125.89 1343.05,1125.89 1345.26,1125.89 1347.48,1125.89 1349.69,1125.89 1351.9,1125.89 1354.12,1125.89 1356.33,1125.89 1358.55,1125.89 1360.76,1125.89 1362.98,1125.89 1365.19,1125.89 1367.4,1125.89 1369.62,1125.89 1371.83,1125.89 1374.05,1125.89 1376.26,1125.89 1378.48,1125.89 1380.69,1125.89 1382.9,1125.89 1385.12,1125.89 1387.33,1071.17 1389.55,1071.17 1391.76,1071.17 1393.97,1071.17 1396.19,1071.17 1398.4,1071.17 1400.62,1016.45 1402.83,1016.45 1405.05,1016.45 1407.26,1016.45 1409.47,1016.45 1411.69,1016.45 1413.9,1016.45 1416.12,1016.45 1418.33,1016.45 1420.55,1071.17 1422.76,1071.17 1424.97,1071.17 1427.19,1071.17 1429.4,1071.17 1431.62,1071.17 1433.83,1071.17 1436.05,1071.17 1438.26,1071.17 1440.47,1071.17 1442.69,1071.17 1444.9,1071.17 1447.12,1071.17 1449.33,1071.17 1451.55,1071.17 1453.76,1071.17 1455.97,1071.17 1458.19,1071.17 1460.4,1071.17 1462.62,1071.17 1464.83,1071.17 1467.05,1071.17 1469.26,1071.17 1471.47,1125.89 1473.69,1125.89 1475.9,1125.89 1478.12,1125.89 1480.33,1125.89 1482.55,1125.89 1484.76,1125.89 1486.97,1125.89 1489.19,1125.89 1491.4,1125.89 1493.62,1125.89 1495.83,1125.89 1498.05,1125.89 1500.26,1125.89 1502.47,1125.89 1504.69,1125.89 1506.9,1125.89 1509.12,1125.89 1511.33,1125.89 1513.55,1125.89 1515.76,1125.89 1517.97,1125.89 1520.19,1125.89 1522.4,1125.89 1524.62,1125.89 1526.83,1125.89 1529.05,1125.89 1531.26,1125.89 1533.47,1125.89 1535.69,1125.89 1537.9,1180.61 1540.12,1180.61 1542.33,1180.61 1544.55,1180.61 1546.76,1180.61 1548.97,1180.61 1551.19,1180.61 1553.4,1180.61 1555.62,1180.61 1557.83,1180.61 1560.05,1180.61 1562.26,1180.61 1564.47,1180.61 1566.69,1180.61 1568.9,1180.61 1571.12,1180.61 1573.33,1180.61 1575.55,1180.61 1577.76,1180.61 1579.97,1180.61 1582.19,1180.61 1584.4,1180.61 1586.62,1180.61 1588.83,1180.61 1591.05,1180.61 1593.26,1180.61 1595.47,1180.61 1597.69,1180.61 1599.9,1180.61 1602.12,1180.61 1604.33,1180.61 1606.55,1180.61 1608.76,1180.61 1610.97,1180.61 1613.19,1180.61 1615.4,1180.61 1617.62,1180.61 1619.83,1180.61 1622.05,1180.61 1624.26,1180.61 1626.47,1180.61 1628.69,1125.89 1630.9,1125.89 1633.12,1125.89 1635.33,1125.89 1637.55,1125.89 1639.76,1125.89 1641.97,1125.89 1644.19,1125.89 1646.4,1125.89 1648.62,1125.89 1650.83,1125.89 1653.05,1125.89 1655.26,1125.89 1657.47,1125.89 1659.69,1125.89 1661.9,1125.89 1664.12,1125.89 1666.33,1125.89 1668.55,1125.89 1670.76,1125.89 1672.97,1125.89 1675.19,1125.89 1677.4,1125.89 1679.62,1125.89 1681.83,1125.89 1684.04,1125.89 1686.26,1125.89 1688.47,1125.89 1690.69,1125.89 1692.9,1125.89 1695.12,1125.89 1697.33,1125.89 1699.54,1125.89 1701.76,1125.89 1703.97,1125.89 1706.19,1125.89 1708.4,1125.89 1710.62,1125.89 1712.83,1125.89 1715.04,1125.89 1717.26,1125.89 1719.47,1125.89 1721.69,1125.89 1723.9,1125.89 1726.12,1125.89 1728.33,1125.89 1730.54,1125.89 1732.76,1125.89 1734.97,1125.89 1737.19,1125.89 1739.4,1125.89 1741.62,1125.89 1743.83,1125.89 1746.04,1125.89 1748.26,1125.89 1750.47,1125.89 1752.69,1125.89 1754.9,1125.89 1757.12,1125.89 1759.33,1125.89 1761.54,1125.89 1763.76,1125.89 1765.97,1125.89 1768.19,1125.89 1770.4,1125.89 1772.62,1125.89 1774.83,1125.89 1777.04,1125.89 1779.26,1125.89 1781.47,1125.89 1783.69,1180.61 1785.9,1180.61 1788.12,1180.61 1790.33,1180.61 1792.54,1180.61 1794.76,1180.61 1796.97,1180.61 1799.19,1180.61 1801.4,1180.61 1803.62,1180.61 1805.83,1180.61 1808.04,1180.61 1810.26,1180.61 1812.47,1180.61 1814.69,1180.61 1816.9,1180.61 1819.12,1180.61 1821.33,1180.61 1823.54,1180.61 1825.76,1180.61 1827.97,1180.61 1830.19,1180.61 1832.4,1180.61 1834.62,1180.61 1836.83,1180.61 1839.04,1180.61 1841.26,1180.61 1843.47,1180.61 1845.69,1180.61 1847.9,1180.61 1850.12,1180.61 1852.33,1180.61 1854.54,1180.61 1856.76,1180.61 1858.97,1180.61 1861.19,1180.61 1863.4,1180.61 1865.62,1180.61 1867.83,1180.61 1870.04,1180.61 1872.26,1180.61 1874.47,1180.61 1876.69,1180.61 1878.9,1180.61 1881.12,1180.61 1883.33,1180.61 1885.54,1180.61 1887.76,1180.61 1889.97,1180.61 1892.19,1180.61 1894.4,1180.61 1896.62,1180.61 1898.83,1125.89 1901.04,1125.89 1903.26,1125.89 1905.47,1125.89 1907.69,1125.89 1909.9,1125.89 1912.12,1125.89 1914.33,1125.89 1916.54,1125.89 1918.76,1125.89 1920.97,1125.89 1923.19,1125.89 1925.4,1125.89 1927.62,1125.89 1929.83,1125.89 1932.04,1125.89 1934.26,1125.89 1936.47,1125.89 1938.69,1125.89 1940.9,1125.89 1943.12,1180.61 1945.33,1180.61 1947.54,1180.61 1949.76,1180.61 1951.97,1180.61 1954.19,1180.61 1956.4,1180.61 1958.62,1180.61 1960.83,1180.61 1963.04,1180.61 1965.26,1180.61 1967.47,1180.61 1969.69,1180.61 1971.9,1180.61 1974.11,1180.61 1976.33,1180.61 1978.54,1180.61 1980.76,1180.61 1982.97,1180.61 1985.19,1180.61 1987.4,1180.61 1989.61,1180.61 1991.83,1180.61 1994.04,1180.61 1996.26,1180.61 1998.47,1180.61 2000.69,1180.61 2002.9,1180.61 2005.11,1180.61 2007.33,1180.61 2009.54,1180.61 2011.76,1180.61 2013.97,1180.61 2016.19,1180.61 2018.4,1180.61 2020.61,1180.61 2022.83,1180.61 2025.04,1180.61 2027.26,1180.61 2029.47,1180.61 2031.69,1180.61 2033.9,1180.61 2036.11,1180.61 2038.33,1180.61 2040.54,1180.61 2042.76,1180.61 2044.97,1180.61 2047.19,1180.61 2049.4,1180.61 2051.61,1180.61 2053.83,1180.61 2056.04,1180.61 2058.26,1180.61 2060.47,1125.89 2062.69,1125.89 2064.9,1125.89 2067.11,1125.89 2069.33,1125.89 2071.54,1125.89 2073.76,1125.89 2075.97,1125.89 2078.19,1125.89 2080.4,1125.89 2082.61,1125.89 2084.83,1125.89 2087.04,1125.89 2089.26,1125.89 2091.47,1125.89 2093.69,1125.89 2095.9,1125.89 2098.11,1125.89 2100.33,1125.89 2102.54,1125.89 2104.76,1125.89 2106.97,1125.89 2109.19,1125.89 2111.4,1071.17 2113.61,1071.17 2115.83,1071.17 2118.04,1071.17 2120.26,1071.17 2122.47,1071.17 2124.69,1071.17 2126.9,1071.17 2129.11,1071.17 2131.33,1071.17 2133.54,1071.17 2135.76,1071.17 2137.97,1071.17 2140.19,1071.17 2142.4,1071.17 2144.61,1071.17 2146.83,1071.17 2149.04,1071.17 2151.26,1071.17 2153.47,1071.17 2155.69,1071.17 2157.9,1071.17 2160.11,1071.17 2162.33,1071.17 2164.54,1071.17 2166.76,1071.17 2168.97,1071.17 2171.19,1071.17 2173.4,1071.17 2175.61,1071.17 2177.83,1071.17 2180.04,1071.17 2182.26,1071.17 2184.47,1071.17 2186.69,1071.17 2188.9,1071.17 2191.11,1071.17 2193.33,1071.17 2195.54,1071.17 2197.76,1071.17 2199.97,1071.17 2202.19,1071.17 2204.4,1071.17 2206.61,1071.17 2208.83,1016.45 2211.04,1016.45 2213.26,1016.45 2215.47,1016.45 2217.69,1016.45 2219.9,1016.45 2222.11,1016.45 2224.33,1016.45 2226.54,1016.45 2228.76,1016.45 2230.97,1016.45 2233.19,1016.45 2235.4,1016.45 2237.61,1016.45 2239.83,961.727 2242.04,961.727 2244.26,961.727 2246.47,961.727 2248.68,961.727 2250.9,907.006 2253.11,907.006 2255.33,907.006 2257.54,907.006 2259.76,907.006 2261.97,907.006 2264.18,907.006 2266.4,907.006 2268.61,907.006 2270.83,907.006 2273.04,907.006 2275.26,907.006 2277.47,907.006 2279.68,907.006 2281.9,907.006 2284.11,961.727 2286.33,961.727 2288.54,961.727 2290.76,961.727 2292.97,961.727 2295.18,961.727 2297.4,961.727 2299.61,961.727 2301.83,961.727 2304.04,1016.45 2306.26,1016.45 2308.47,1071.17 2310.68,1071.17 2312.9,1071.17 2315.11,1071.17 2317.33,1016.45 2319.54,1016.45 2321.76,1016.45 2323.97,961.727 2326.18,961.727 2328.4,961.727 2330.61,961.727 2332.83,961.727 2335.04,907.006 2337.26,907.006 2339.47,961.727 2341.68,961.727 2343.9,961.727 2346.11,961.727 2348.33,961.727 2350.54,961.727 2352.76,961.727 "/>
<polyline clip-path="url(#clip922)" style="stroke:#e26f46; stroke-linecap:round; stroke-linejoin:round; stroke-width:8; stroke-opacity:1; fill:none" points="140.696,1180.61 142.91,1180.61 145.124,1180.61 147.338,1180.61 149.553,1180.61 151.767,1180.61 153.981,1180.61 156.195,1180.61 158.41,1180.61 160.624,1180.61 162.838,1180.61 165.053,1180.61 167.267,1180.61 169.481,1180.61 171.695,1180.61 173.91,1180.61 176.124,1180.61 178.338,1180.61 180.552,1180.61 182.767,1180.61 184.981,1180.61 187.195,1180.61 189.41,1180.61 191.624,1180.61 193.838,1180.61 196.052,1180.61 198.267,1180.61 200.481,1180.61 202.695,1180.61 204.91,1180.61 207.124,1180.61 209.338,1180.61 211.552,1180.61 213.767,1180.61 215.981,1180.61 218.195,1180.61 220.409,1180.61 222.624,1180.61 224.838,1180.61 227.052,1180.61 229.267,1180.61 231.481,1180.61 233.695,1180.61 235.909,1180.61 238.124,1180.61 240.338,1180.61 242.552,1180.61 244.766,1180.61 246.981,1180.61 249.195,1180.61 251.409,1180.61 253.624,1180.61 255.838,1180.61 258.052,1180.61 260.266,1180.61 262.481,1180.61 264.695,1180.61 266.909,1125.89 269.123,1125.89 271.338,1125.89 273.552,1125.89 275.766,1125.89 277.981,1125.89 280.195,1125.89 282.409,1125.89 284.623,1125.89 286.838,1125.89 289.052,1125.89 291.266,1125.89 293.48,1125.89 295.695,1125.89 297.909,1125.89 300.123,1125.89 302.338,1125.89 304.552,1125.89 306.766,1125.89 308.98,1125.89 311.195,1125.89 313.409,1125.89 315.623,1125.89 317.838,1125.89 320.052,1125.89 322.266,1125.89 324.48,1125.89 326.695,1125.89 328.909,1125.89 331.123,1125.89 333.337,1125.89 335.552,1125.89 337.766,1125.89 339.98,1125.89 342.195,1125.89 344.409,1125.89 346.623,1125.89 348.837,1125.89 351.052,1125.89 353.266,1071.17 355.48,1071.17 357.694,1071.17 359.909,1071.17 362.123,1071.17 364.337,1071.17 366.552,1071.17 368.766,1071.17 370.98,1071.17 373.194,1071.17 375.409,1071.17 377.623,1071.17 379.837,1071.17 382.051,1071.17 384.266,1071.17 386.48,1071.17 388.694,1071.17 390.909,1071.17 393.123,1071.17 395.337,1071.17 397.551,1071.17 399.766,1071.17 401.98,1016.45 404.194,1016.45 406.408,1016.45 408.623,1016.45 410.837,1016.45 413.051,1016.45 415.266,1016.45 417.48,1016.45 419.694,1016.45 421.908,1016.45 424.123,1016.45 426.337,1016.45 428.551,1016.45 430.766,1016.45 432.98,1016.45 435.194,1016.45 437.408,1016.45 439.623,1016.45 441.837,1016.45 444.051,1016.45 446.265,1016.45 448.48,1016.45 450.694,1016.45 452.908,1016.45 455.123,1016.45 457.337,1016.45 459.551,1016.45 461.765,1016.45 463.98,1016.45 466.194,1016.45 468.408,1016.45 470.622,1016.45 472.837,1016.45 475.051,1016.45 477.265,1016.45 479.48,961.727 481.694,961.727 483.908,961.727 486.122,961.727 488.337,961.727 490.551,961.727 492.765,961.727 494.979,961.727 497.194,961.727 499.408,961.727 501.622,961.727 503.837,961.727 506.051,961.727 508.265,961.727 510.479,961.727 512.694,961.727 514.908,961.727 517.122,961.727 519.337,961.727 521.551,961.727 523.765,961.727 525.979,961.727 528.194,961.727 530.408,961.727 532.622,961.727 534.836,961.727 537.051,961.727 539.265,961.727 541.479,961.727 543.694,961.727 545.908,961.727 548.122,907.006 550.336,907.006 552.551,907.006 554.765,907.006 556.979,907.006 559.193,907.006 561.408,907.006 563.622,907.006 565.836,907.006 568.051,907.006 570.265,907.006 572.479,907.006 574.693,907.006 576.908,907.006 579.122,907.006 581.336,907.006 583.55,907.006 585.765,907.006 587.979,907.006 590.193,907.006 592.408,907.006 594.622,907.006 596.836,907.006 599.05,907.006 601.265,907.006 603.479,907.006 605.693,907.006 607.907,907.006 610.122,907.006 612.336,907.006 614.55,907.006 616.765,907.006 618.979,907.006 621.193,907.006 623.407,907.006 625.622,907.006 627.836,907.006 630.05,907.006 632.265,907.006 634.479,907.006 636.693,907.006 638.907,907.006 641.122,907.006 643.336,907.006 645.55,907.006 647.764,907.006 649.979,907.006 652.193,907.006 654.407,907.006 656.622,907.006 658.836,907.006 661.05,907.006 663.264,907.006 665.479,907.006 667.693,907.006 669.907,907.006 672.121,907.006 674.336,907.006 676.55,907.006 678.764,907.006 680.979,907.006 683.193,907.006 685.407,907.006 687.621,907.006 689.836,907.006 692.05,907.006 694.264,907.006 696.478,907.006 698.693,907.006 700.907,907.006 703.121,907.006 705.336,907.006 707.55,907.006 709.764,907.006 711.978,907.006 714.193,907.006 716.407,907.006 718.621,907.006 720.835,907.006 723.05,907.006 725.264,907.006 727.478,907.006 729.693,907.006 731.907,907.006 734.121,907.006 736.335,907.006 738.55,907.006 740.764,907.006 742.978,907.006 745.193,907.006 747.407,907.006 749.621,907.006 751.835,907.006 754.05,907.006 756.264,907.006 758.478,852.285 760.692,797.563 762.907,797.563 765.121,797.563 767.335,797.563 769.55,797.563 771.764,797.563 773.978,797.563 776.192,797.563 778.407,797.563 780.621,797.563 782.835,797.563 785.049,797.563 787.264,797.563 789.478,797.563 791.692,797.563 793.907,797.563 796.121,797.563 798.335,797.563 800.549,797.563 802.764,797.563 804.978,797.563 807.192,797.563 809.406,797.563 811.621,797.563 813.835,797.563 816.049,797.563 818.264,797.563 820.478,797.563 822.692,797.563 824.906,797.563 827.121,797.563 829.335,797.563 831.549,797.563 833.764,797.563 835.978,797.563 838.192,797.563 840.406,797.563 842.621,797.563 844.835,797.563 847.049,797.563 849.263,797.563 851.478,797.563 853.692,797.563 855.906,797.563 858.121,797.563 860.335,797.563 862.549,797.563 864.763,797.563 866.978,797.563 869.192,797.563 871.406,797.563 873.62,797.563 875.835,797.563 878.049,797.563 880.263,797.563 882.478,797.563 884.692,797.563 886.906,797.563 889.12,797.563 891.335,797.563 893.549,797.563 895.763,797.563 897.977,797.563 900.192,797.563 902.406,797.563 904.62,797.563 906.835,797.563 909.049,797.563 911.263,797.563 913.477,797.563 915.692,797.563 917.906,797.563 920.12,797.563 922.334,797.563 924.549,797.563 926.763,797.563 928.977,797.563 931.192,797.563 933.406,797.563 935.62,797.563 937.834,797.563 940.049,797.563 942.263,797.563 944.477,797.563 946.692,797.563 948.906,797.563 951.12,797.563 953.334,797.563 955.549,797.563 957.763,797.563 959.977,797.563 962.191,797.563 964.406,797.563 966.62,797.563 968.834,797.563 971.049,797.563 973.263,797.563 975.477,797.563 977.691,797.563 979.906,797.563 982.12,797.563 984.334,797.563 986.548,797.563 988.763,797.563 990.977,742.842 993.191,742.842 995.406,742.842 997.62,742.842 999.834,742.842 1002.05,742.842 1004.26,742.842 1006.48,742.842 1008.69,742.842 1010.91,742.842 1013.12,742.842 1015.33,742.842 1017.55,742.842 1019.76,742.842 1021.98,742.842 1024.19,742.842 1026.41,742.842 1028.62,742.842 1030.83,742.842 1033.05,742.842 1035.26,742.842 1037.48,742.842 1039.69,742.842 1041.91,742.842 1044.12,742.842 1046.33,742.842 1048.55,742.842 1050.76,742.842 1052.98,742.842 1055.19,742.842 1057.41,742.842 1059.62,742.842 1061.83,742.842 1064.05,742.842 1066.26,742.842 1068.48,742.842 1070.69,742.842 1072.91,742.842 1075.12,742.842 1077.33,742.842 1079.55,742.842 1081.76,742.842 1083.98,742.842 1086.19,688.121 1088.41,688.121 1090.62,688.121 1092.83,688.121 1095.05,688.121 1097.26,688.121 1099.48,688.121 1101.69,688.121 1103.91,688.121 1106.12,688.121 1108.33,688.121 1110.55,688.121 1112.76,688.121 1114.98,688.121 1117.19,688.121 1119.4,633.399 1121.62,633.399 1123.83,633.399 1126.05,633.399 1128.26,633.399 1130.48,633.399 1132.69,633.399 1134.9,633.399 1137.12,633.399 1139.33,633.399 1141.55,633.399 1143.76,633.399 1145.98,633.399 1148.19,633.399 1150.4,633.399 1152.62,633.399 1154.83,633.399 1157.05,633.399 1159.26,633.399 1161.48,633.399 1163.69,633.399 1165.9,633.399 1168.12,633.399 1170.33,633.399 1172.55,633.399 1174.76,633.399 1176.98,633.399 1179.19,633.399 1181.4,633.399 1183.62,633.399 1185.83,633.399 1188.05,633.399 1190.26,633.399 1192.48,633.399 1194.69,633.399 1196.9,633.399 1199.12,633.399 1201.33,633.399 1203.55,633.399 1205.76,633.399 1207.98,633.399 1210.19,633.399 1212.4,633.399 1214.62,633.399 1216.83,633.399 1219.05,633.399 1221.26,633.399 1223.48,633.399 1225.69,633.399 1227.9,633.399 1230.12,633.399 1232.33,633.399 1234.55,633.399 1236.76,633.399 1238.98,633.399 1241.19,633.399 1243.4,633.399 1245.62,633.399 1247.83,633.399 1250.05,633.399 1252.26,633.399 1254.48,633.399 1256.69,633.399 1258.9,633.399 1261.12,633.399 1263.33,633.399 1265.55,633.399 1267.76,633.399 1269.98,633.399 1272.19,633.399 1274.4,633.399 1276.62,633.399 1278.83,633.399 1281.05,633.399 1283.26,633.399 1285.48,633.399 1287.69,633.399 1289.9,633.399 1292.12,633.399 1294.33,633.399 1296.55,633.399 1298.76,633.399 1300.98,633.399 1303.19,633.399 1305.4,633.399 1307.62,633.399 1309.83,633.399 1312.05,633.399 1314.26,633.399 1316.48,633.399 1318.69,633.399 1320.9,633.399 1323.12,633.399 1325.33,633.399 1327.55,633.399 1329.76,633.399 1331.98,633.399 1334.19,633.399 1336.4,633.399 1338.62,633.399 1340.83,633.399 1343.05,633.399 1345.26,633.399 1347.48,633.399 1349.69,633.399 1351.9,633.399 1354.12,633.399 1356.33,633.399 1358.55,633.399 1360.76,633.399 1362.98,633.399 1365.19,633.399 1367.4,633.399 1369.62,633.399 1371.83,633.399 1374.05,633.399 1376.26,633.399 1378.48,633.399 1380.69,633.399 1382.9,633.399 1385.12,633.399 1387.33,633.399 1389.55,633.399 1391.76,633.399 1393.97,633.399 1396.19,633.399 1398.4,633.399 1400.62,633.399 1402.83,633.399 1405.05,633.399 1407.26,633.399 1409.47,633.399 1411.69,633.399 1413.9,633.399 1416.12,633.399 1418.33,633.399 1420.55,578.678 1422.76,578.678 1424.97,578.678 1427.19,578.678 1429.4,578.678 1431.62,578.678 1433.83,578.678 1436.05,578.678 1438.26,578.678 1440.47,578.678 1442.69,578.678 1444.9,578.678 1447.12,578.678 1449.33,578.678 1451.55,578.678 1453.76,578.678 1455.97,578.678 1458.19,578.678 1460.4,578.678 1462.62,578.678 1464.83,578.678 1467.05,578.678 1469.26,578.678 1471.47,523.957 1473.69,523.957 1475.9,523.957 1478.12,523.957 1480.33,523.957 1482.55,523.957 1484.76,523.957 1486.97,523.957 1489.19,523.957 1491.4,523.957 1493.62,523.957 1495.83,523.957 1498.05,523.957 1500.26,523.957 1502.47,523.957 1504.69,523.957 1506.9,523.957 1509.12,523.957 1511.33,523.957 1513.55,523.957 1515.76,523.957 1517.97,523.957 1520.19,523.957 1522.4,523.957 1524.62,523.957 1526.83,523.957 1529.05,523.957 1531.26,523.957 1533.47,523.957 1535.69,523.957 1537.9,469.235 1540.12,469.235 1542.33,469.235 1544.55,469.235 1546.76,469.235 1548.97,469.235 1551.19,469.235 1553.4,469.235 1555.62,469.235 1557.83,469.235 1560.05,469.235 1562.26,469.235 1564.47,469.235 1566.69,469.235 1568.9,469.235 1571.12,469.235 1573.33,469.235 1575.55,469.235 1577.76,469.235 1579.97,469.235 1582.19,469.235 1584.4,469.235 1586.62,469.235 1588.83,469.235 1591.05,469.235 1593.26,469.235 1595.47,469.235 1597.69,469.235 1599.9,469.235 1602.12,469.235 1604.33,469.235 1606.55,469.235 1608.76,469.235 1610.97,469.235 1613.19,469.235 1615.4,469.235 1617.62,469.235 1619.83,469.235 1622.05,469.235 1624.26,469.235 1626.47,469.235 1628.69,469.235 1630.9,469.235 1633.12,469.235 1635.33,469.235 1637.55,469.235 1639.76,469.235 1641.97,469.235 1644.19,469.235 1646.4,469.235 1648.62,469.235 1650.83,469.235 1653.05,469.235 1655.26,469.235 1657.47,469.235 1659.69,469.235 1661.9,469.235 1664.12,469.235 1666.33,469.235 1668.55,469.235 1670.76,469.235 1672.97,469.235 1675.19,469.235 1677.4,469.235 1679.62,469.235 1681.83,469.235 1684.04,469.235 1686.26,469.235 1688.47,469.235 1690.69,469.235 1692.9,469.235 1695.12,469.235 1697.33,469.235 1699.54,469.235 1701.76,469.235 1703.97,469.235 1706.19,469.235 1708.4,469.235 1710.62,469.235 1712.83,469.235 1715.04,469.235 1717.26,469.235 1719.47,469.235 1721.69,469.235 1723.9,469.235 1726.12,469.235 1728.33,469.235 1730.54,469.235 1732.76,469.235 1734.97,469.235 1737.19,469.235 1739.4,469.235 1741.62,469.235 1743.83,469.235 1746.04,469.235 1748.26,469.235 1750.47,469.235 1752.69,469.235 1754.9,469.235 1757.12,469.235 1759.33,469.235 1761.54,469.235 1763.76,469.235 1765.97,469.235 1768.19,469.235 1770.4,469.235 1772.62,469.235 1774.83,469.235 1777.04,469.235 1779.26,469.235 1781.47,469.235 1783.69,414.514 1785.9,414.514 1788.12,414.514 1790.33,414.514 1792.54,414.514 1794.76,414.514 1796.97,414.514 1799.19,414.514 1801.4,414.514 1803.62,414.514 1805.83,414.514 1808.04,414.514 1810.26,414.514 1812.47,414.514 1814.69,414.514 1816.9,414.514 1819.12,414.514 1821.33,414.514 1823.54,414.514 1825.76,414.514 1827.97,414.514 1830.19,414.514 1832.4,414.514 1834.62,414.514 1836.83,414.514 1839.04,414.514 1841.26,414.514 1843.47,414.514 1845.69,414.514 1847.9,414.514 1850.12,414.514 1852.33,414.514 1854.54,414.514 1856.76,414.514 1858.97,414.514 1861.19,414.514 1863.4,414.514 1865.62,414.514 1867.83,414.514 1870.04,414.514 1872.26,414.514 1874.47,414.514 1876.69,414.514 1878.9,414.514 1881.12,414.514 1883.33,414.514 1885.54,414.514 1887.76,414.514 1889.97,414.514 1892.19,414.514 1894.4,414.514 1896.62,414.514 1898.83,414.514 1901.04,414.514 1903.26,414.514 1905.47,414.514 1907.69,414.514 1909.9,414.514 1912.12,359.792 1914.33,359.792 1916.54,359.792 1918.76,359.792 1920.97,359.792 1923.19,359.792 1925.4,359.792 1927.62,359.792 1929.83,359.792 1932.04,359.792 1934.26,359.792 1936.47,359.792 1938.69,359.792 1940.9,359.792 1943.12,305.071 1945.33,305.071 1947.54,305.071 1949.76,305.071 1951.97,305.071 1954.19,305.071 1956.4,305.071 1958.62,305.071 1960.83,305.071 1963.04,305.071 1965.26,305.071 1967.47,305.071 1969.69,305.071 1971.9,305.071 1974.11,305.071 1976.33,305.071 1978.54,305.071 1980.76,305.071 1982.97,305.071 1985.19,305.071 1987.4,305.071 1989.61,305.071 1991.83,305.071 1994.04,305.071 1996.26,305.071 1998.47,305.071 2000.69,305.071 2002.9,305.071 2005.11,305.071 2007.33,305.071 2009.54,305.071 2011.76,305.071 2013.97,305.071 2016.19,305.071 2018.4,305.071 2020.61,305.071 2022.83,305.071 2025.04,305.071 2027.26,305.071 2029.47,305.071 2031.69,305.071 2033.9,305.071 2036.11,305.071 2038.33,305.071 2040.54,305.071 2042.76,305.071 2044.97,305.071 2047.19,305.071 2049.4,305.071 2051.61,305.071 2053.83,305.071 2056.04,305.071 2058.26,305.071 2060.47,305.071 2062.69,305.071 2064.9,305.071 2067.11,305.071 2069.33,305.071 2071.54,305.071 2073.76,305.071 2075.97,305.071 2078.19,305.071 2080.4,305.071 2082.61,305.071 2084.83,305.071 2087.04,305.071 2089.26,305.071 2091.47,305.071 2093.69,305.071 2095.9,305.071 2098.11,305.071 2100.33,305.071 2102.54,305.071 2104.76,305.071 2106.97,305.071 2109.19,305.071 2111.4,305.071 2113.61,305.071 2115.83,305.071 2118.04,305.071 2120.26,305.071 2122.47,305.071 2124.69,305.071 2126.9,305.071 2129.11,305.071 2131.33,305.071 2133.54,305.071 2135.76,305.071 2137.97,305.071 2140.19,305.071 2142.4,305.071 2144.61,305.071 2146.83,305.071 2149.04,305.071 2151.26,305.071 2153.47,305.071 2155.69,305.071 2157.9,305.071 2160.11,305.071 2162.33,305.071 2164.54,305.071 2166.76,305.071 2168.97,305.071 2171.19,305.071 2173.4,305.071 2175.61,305.071 2177.83,305.071 2180.04,305.071 2182.26,305.071 2184.47,305.071 2186.69,305.071 2188.9,305.071 2191.11,305.071 2193.33,305.071 2195.54,305.071 2197.76,305.071 2199.97,305.071 2202.19,305.071 2204.4,305.071 2206.61,305.071 2208.83,305.071 2211.04,305.071 2213.26,305.071 2215.47,305.071 2217.69,305.071 2219.9,305.071 2222.11,305.071 2224.33,305.071 2226.54,305.071 2228.76,305.071 2230.97,305.071 2233.19,305.071 2235.4,305.071 2237.61,305.071 2239.83,305.071 2242.04,305.071 2244.26,305.071 2246.47,305.071 2248.68,305.071 2250.9,305.071 2253.11,305.071 2255.33,305.071 2257.54,305.071 2259.76,305.071 2261.97,305.071 2264.18,305.071 2266.4,305.071 2268.61,305.071 2270.83,305.071 2273.04,305.071 2275.26,305.071 2277.47,305.071 2279.68,305.071 2281.9,305.071 2284.11,250.35 2286.33,250.35 2288.54,250.35 2290.76,250.35 2292.97,250.35 2295.18,250.35 2297.4,250.35 2299.61,250.35 2301.83,250.35 2304.04,195.628 2306.26,195.628 2308.47,140.907 2310.68,140.907 2312.9,140.907 2315.11,140.907 2317.33,140.907 2319.54,140.907 2321.76,140.907 2323.97,140.907 2326.18,140.907 2328.4,140.907 2330.61,140.907 2332.83,140.907 2335.04,140.907 2337.26,140.907 2339.47,86.1857 2341.68,86.1857 2343.9,86.1857 2346.11,86.1857 2348.33,86.1857 2350.54,86.1857 2352.76,86.1857 "/>
<polyline clip-path="url(#clip922)" style="stroke:#3da44d; stroke-linecap:round; stroke-linejoin:round; stroke-width:8; stroke-opacity:1; fill:none" points="140.696,1213.23 142.91,1212.12 145.124,1211 147.338,1209.86 149.553,1208.71 151.767,1207.54 153.981,1206.35 156.195,1205.14 158.41,1203.91 160.624,1202.67 162.838,1201.41 165.053,1200.14 167.267,1198.85 169.481,1197.54 171.695,1196.21 173.91,1194.87 176.124,1193.51 178.338,1192.13 180.552,1190.74 182.767,1189.33 184.981,1187.9 187.195,1186.46 189.41,1185 191.624,1183.52 193.838,1182.03 196.052,1220.23 198.267,1218.71 200.481,1217.17 202.695,1215.62 204.91,1214.05 207.124,1212.46 209.338,1210.86 211.552,1209.24 213.767,1207.61 215.981,1205.96 218.195,1204.3 220.409,1202.63 222.624,1200.94 224.838,1199.23 227.052,1197.51 229.267,1195.78 231.481,1194.03 233.695,1192.27 235.909,1190.5 238.124,1188.71 240.338,1186.91 242.552,1185.1 244.766,1183.27 246.981,1181.43 249.195,1255.76 251.409,1253.9 253.624,1252.02 255.838,1250.13 258.052,1248.23 260.266,1246.32 262.481,1244.4 264.695,1242.46 266.909,1240.52 269.123,1238.56 271.338,1236.59 273.552,1234.61 275.766,1232.63 277.981,1230.63 280.195,1228.62 282.409,1226.61 284.623,1224.58 286.838,1222.55 289.052,1220.5 291.266,1218.45 293.48,1216.39 295.695,1214.32 297.909,1212.25 300.123,1210.16 302.338,1208.07 304.552,1205.97 306.766,1203.87 308.98,1201.76 311.195,1199.64 313.409,1197.52 315.623,1195.39 317.838,1193.25 320.052,1191.11 322.266,1188.97 324.48,1186.81 326.695,1184.66 328.909,1182.5 331.123,1206.69 333.337,1204.52 335.552,1202.35 337.766,1200.18 339.98,1198 342.195,1195.83 344.409,1193.64 346.623,1191.46 348.837,1189.28 351.052,1187.09 353.266,1184.9 355.48,1182.71 357.694,1228.55 359.909,1226.36 362.123,1224.17 364.337,1221.98 366.552,1219.79 368.766,1217.6 370.98,1215.41 373.194,1213.22 375.409,1211.03 377.623,1208.85 379.837,1206.67 382.051,1204.49 384.266,1202.31 386.48,1200.13 388.694,1197.96 390.909,1195.79 393.123,1193.62 395.337,1191.46 397.551,1189.3 399.766,1187.15 401.98,1185 404.194,1182.85 406.408,1180.71 408.623,1233.78 410.837,1231.65 413.051,1229.52 415.266,1227.41 417.48,1225.3 419.694,1223.19 421.908,1221.1 424.123,1219.01 426.337,1216.93 428.551,1214.85 430.766,1212.78 432.98,1210.73 435.194,1208.68 437.408,1206.63 439.623,1204.6 441.837,1202.58 444.051,1200.56 446.265,1198.56 448.48,1196.56 450.694,1194.58 452.908,1192.6 455.123,1190.64 457.337,1188.68 459.551,1186.74 461.765,1184.81 463.98,1182.89 466.194,1180.98 468.408,1266.24 470.622,1264.36 472.837,1262.48 475.051,1260.62 477.265,1258.77 479.48,1256.93 481.694,1255.11 483.908,1253.3 486.122,1251.5 488.337,1249.71 490.551,1247.94 492.765,1246.18 494.979,1244.44 497.194,1242.71 499.408,1240.99 501.622,1239.29 503.837,1237.6 506.051,1235.93 508.265,1234.27 510.479,1232.63 512.694,1231 514.908,1229.39 517.122,1227.79 519.337,1226.21 521.551,1224.64 523.765,1223.09 525.979,1221.55 528.194,1220.03 530.408,1218.53 532.622,1217.04 534.836,1215.57 537.051,1214.11 539.265,1212.67 541.479,1211.25 543.694,1209.84 545.908,1208.45 548.122,1207.08 550.336,1205.72 552.551,1204.38 554.765,1203.06 556.979,1201.76 559.193,1200.47 561.408,1199.19 563.622,1197.94 565.836,1196.7 568.051,1195.48 570.265,1194.28 572.479,1193.09 574.693,1191.92 576.908,1190.77 579.122,1189.63 581.336,1188.51 583.55,1187.41 585.765,1186.33 587.979,1185.26 590.193,1184.22 592.408,1183.18 594.622,1182.17 596.836,1181.17 599.05,1226.1 601.265,1225.14 603.479,1224.19 605.693,1223.26 607.907,1222.35 610.122,1221.45 612.336,1220.58 614.55,1219.72 616.765,1218.87 618.979,1218.04 621.193,1217.23 623.407,1216.44 625.622,1215.66 627.836,1214.9 630.05,1214.15 632.265,1213.42 634.479,1212.71 636.693,1212.01 638.907,1211.33 641.122,1210.67 643.336,1210.02 645.55,1209.39 647.764,1208.77 649.979,1208.17 652.193,1207.58 654.407,1207.01 656.622,1206.45 658.836,1205.91 661.05,1205.38 663.264,1204.87 665.479,1204.37 667.693,1203.89 669.907,1203.42 672.121,1202.96 674.336,1202.52 676.55,1202.09 678.764,1201.68 680.979,1201.28 683.193,1200.89 685.407,1200.52 687.621,1200.16 689.836,1199.81 692.05,1199.47 694.264,1199.15 696.478,1198.84 698.693,1198.54 700.907,1198.25 703.121,1197.97 705.336,1197.71 707.55,1197.45 709.764,1197.21 711.978,1196.98 714.193,1196.75 716.407,1196.54 718.621,1196.34 720.835,1196.15 723.05,1195.97 725.264,1195.79 727.478,1195.63 729.693,1195.48 731.907,1195.33 734.121,1195.19 736.335,1195.06 738.55,1194.94 740.764,1194.83 742.978,1194.72 745.193,1194.62 747.407,1194.53 749.621,1194.45 751.835,1194.37 754.05,1194.3 756.264,1194.23 758.478,1194.17 760.692,1194.12 762.907,1194.07 765.121,1194.02 767.335,1193.98 769.55,1193.95 771.764,1193.92 773.978,1193.89 776.192,1193.87 778.407,1193.85 780.621,1193.83 782.835,1193.81 785.049,1193.8 787.264,1193.79 789.478,1193.79 791.692,1193.78 793.907,1193.78 796.121,1193.78 798.335,1193.77 800.549,1193.77 802.764,1193.77 804.978,1193.77 807.192,1193.77 809.406,1193.77 811.621,1193.77 813.835,1193.77 816.049,1193.77 818.264,1193.76 820.478,1193.75 822.692,1193.75 824.906,1193.74 827.121,1193.72 829.335,1193.71 831.549,1193.69 833.764,1193.67 835.978,1193.64 838.192,1193.61 840.406,1193.58 842.621,1193.54 844.835,1193.5 847.049,1193.45 849.263,1193.4 851.478,1193.34 853.692,1193.27 855.906,1193.2 858.121,1193.13 860.335,1193.05 862.549,1192.96 864.763,1192.86 866.978,1192.76 869.192,1192.65 871.406,1192.53 873.62,1192.4 875.835,1192.27 878.049,1192.13 880.263,1191.98 882.478,1191.82 884.692,1191.65 886.906,1191.47 889.12,1191.28 891.335,1191.08 893.549,1190.88 895.763,1190.66 897.977,1190.43 900.192,1190.19 902.406,1189.94 904.62,1189.68 906.835,1189.41 909.049,1189.13 911.263,1188.83 913.477,1188.52 915.692,1188.2 917.906,1187.87 920.12,1187.53 922.334,1187.17 924.549,1186.8 926.763,1186.42 928.977,1186.03 931.192,1185.62 933.406,1185.2 935.62,1184.76 937.834,1184.31 940.049,1183.85 942.263,1183.37 944.477,1182.88 946.692,1182.37 948.906,1181.85 951.12,1181.31 953.334,1180.76 955.549,1241.14 957.763,1240.56 959.977,1239.96 962.191,1239.35 964.406,1238.72 966.62,1238.08 968.834,1237.42 971.049,1236.75 973.263,1236.06 975.477,1235.35 977.691,1234.63 979.906,1233.89 982.12,1233.14 984.334,1232.37 986.548,1231.58 988.763,1230.77 990.977,1229.95 993.191,1229.11 995.406,1228.26 997.62,1227.39 999.834,1226.5 1002.05,1225.59 1004.26,1224.67 1006.48,1223.73 1008.69,1222.78 1010.91,1221.8 1013.12,1220.81 1015.33,1219.8 1017.55,1218.78 1019.76,1217.74 1021.98,1216.68 1024.19,1215.6 1026.41,1214.51 1028.62,1213.4 1030.83,1212.27 1033.05,1211.12 1035.26,1209.96 1037.48,1208.78 1039.69,1207.58 1041.91,1206.37 1044.12,1205.14 1046.33,1203.89 1048.55,1202.62 1050.76,1201.34 1052.98,1200.04 1055.19,1198.73 1057.41,1197.39 1059.62,1196.04 1061.83,1194.68 1064.05,1193.29 1066.26,1191.89 1068.48,1190.48 1070.69,1189.05 1072.91,1187.6 1075.12,1186.13 1077.33,1184.65 1079.55,1183.15 1081.76,1181.64 1083.98,1185.93 1086.19,1184.38 1088.41,1182.82 1090.62,1181.25 1092.83,1369.59 1095.05,1367.99 1097.26,1366.36 1099.48,1364.73 1101.69,1363.07 1103.91,1361.41 1106.12,1359.73 1108.33,1358.03 1110.55,1356.32 1112.76,1354.59 1114.98,1352.86 1117.19,1351.1 1119.4,1349.34 1121.62,1347.56 1123.83,1345.76 1126.05,1343.96 1128.26,1342.14 1130.48,1340.3 1132.69,1338.46 1134.9,1336.6 1137.12,1334.73 1139.33,1332.85 1141.55,1330.96 1143.76,1329.05 1145.98,1327.13 1148.19,1325.21 1150.4,1323.27 1152.62,1321.32 1154.83,1319.36 1157.05,1317.38 1159.26,1315.4 1161.48,1313.41 1163.69,1311.41 1165.9,1309.4 1168.12,1307.38 1170.33,1305.35 1172.55,1303.31 1174.76,1301.27 1176.98,1299.21 1179.19,1297.15 1181.4,1295.08 1183.62,1293 1185.83,1290.91 1188.05,1288.82 1190.26,1286.72 1192.48,1284.61 1194.69,1282.5 1196.9,1280.38 1199.12,1278.25 1201.33,1276.12 1203.55,1273.98 1205.76,1271.84 1207.98,1269.69 1210.19,1267.54 1212.4,1265.38 1214.62,1263.22 1216.83,1261.06 1219.05,1258.89 1221.26,1256.72 1223.48,1254.54 1225.69,1252.37 1227.9,1250.19 1230.12,1248 1232.33,1245.82 1234.55,1243.63 1236.76,1241.44 1238.98,1239.25 1241.19,1237.07 1243.4,1234.87 1245.62,1232.68 1247.83,1230.49 1250.05,1228.3 1252.26,1226.11 1254.48,1223.92 1256.69,1221.73 1258.9,1219.54 1261.12,1217.36 1263.33,1215.17 1265.55,1212.99 1267.76,1210.81 1269.98,1208.63 1272.19,1206.46 1274.4,1204.29 1276.62,1202.12 1278.83,1199.96 1281.05,1197.79 1283.26,1195.64 1285.48,1193.49 1287.69,1191.34 1289.9,1189.2 1292.12,1187.06 1294.33,1184.93 1296.55,1182.8 1298.76,1180.68 1300.98,1254.7 1303.19,1252.59 1305.4,1250.49 1307.62,1248.4 1309.83,1246.31 1312.05,1244.23 1314.26,1242.16 1316.48,1240.1 1318.69,1238.04 1320.9,1236 1323.12,1233.96 1325.33,1231.93 1327.55,1229.91 1329.76,1227.9 1331.98,1225.9 1334.19,1223.9 1336.4,1221.92 1338.62,1219.95 1340.83,1217.99 1343.05,1216.04 1345.26,1214.1 1347.48,1212.17 1349.69,1210.26 1351.9,1208.35 1354.12,1206.46 1356.33,1204.58 1358.55,1202.71 1360.76,1200.85 1362.98,1199.01 1365.19,1197.17 1367.4,1195.35 1369.62,1193.55 1371.83,1191.76 1374.05,1189.98 1376.26,1188.21 1378.48,1186.46 1380.69,1184.72 1382.9,1182.99 1385.12,1181.28 1387.33,1189.39 1389.55,1187.71 1391.76,1186.05 1393.97,1184.39 1396.19,1182.76 1398.4,1181.13 1400.62,1260.53 1402.83,1258.94 1405.05,1257.37 1407.26,1255.81 1409.47,1254.26 1411.69,1252.73 1413.9,1251.22 1416.12,1249.72 1418.33,1248.24 1420.55,1246.77 1422.76,1245.32 1424.97,1243.89 1427.19,1242.47 1429.4,1241.07 1431.62,1239.69 1433.83,1238.32 1436.05,1236.98 1438.26,1235.64 1440.47,1234.33 1442.69,1233.03 1444.9,1231.74 1447.12,1230.48 1449.33,1229.23 1451.55,1228 1453.76,1226.79 1455.97,1225.59 1458.19,1224.41 1460.4,1223.25 1462.62,1222.1 1464.83,1220.97 1467.05,1219.86 1469.26,1218.77 1471.47,1217.69 1473.69,1216.63 1475.9,1215.59 1478.12,1214.56 1480.33,1213.56 1482.55,1212.57 1484.76,1211.59 1486.97,1210.64 1489.19,1209.7 1491.4,1208.77 1493.62,1207.87 1495.83,1206.98 1498.05,1206.11 1500.26,1205.25 1502.47,1204.42 1504.69,1203.6 1506.9,1202.79 1509.12,1202 1511.33,1201.23 1513.55,1200.48 1515.76,1199.74 1517.97,1199.02 1520.19,1198.31 1522.4,1197.62 1524.62,1196.94 1526.83,1196.29 1529.05,1195.64 1531.26,1195.02 1533.47,1194.41 1535.69,1193.81 1537.9,1193.23 1540.12,1192.66 1542.33,1192.11 1544.55,1191.58 1546.76,1191.06 1548.97,1190.55 1551.19,1190.06 1553.4,1189.58 1555.62,1189.12 1557.83,1188.67 1560.05,1188.23 1562.26,1187.81 1564.47,1187.4 1566.69,1187 1568.9,1186.62 1571.12,1186.25 1573.33,1185.9 1575.55,1185.55 1577.76,1185.22 1579.97,1184.9 1582.19,1184.6 1584.4,1184.3 1586.62,1184.02 1588.83,1183.75 1591.05,1183.48 1593.26,1183.23 1595.47,1183 1597.69,1182.77 1599.9,1182.55 1602.12,1182.34 1604.33,1182.14 1606.55,1181.96 1608.76,1181.78 1610.97,1181.61 1613.19,1181.45 1615.4,1181.3 1617.62,1181.16 1619.83,1181.02 1622.05,1180.9 1624.26,1180.78 1626.47,1180.67 1628.69,1214.92 1630.9,1214.82 1633.12,1214.73 1635.33,1214.65 1637.55,1214.58 1639.76,1214.51 1641.97,1214.44 1644.19,1214.39 1646.4,1214.33 1648.62,1214.29 1650.83,1214.25 1653.05,1214.21 1655.26,1214.18 1657.47,1214.15 1659.69,1214.12 1661.9,1214.1 1664.12,1214.08 1666.33,1214.07 1668.55,1214.05 1670.76,1214.04 1672.97,1214.03 1675.19,1214.03 1677.4,1214.02 1679.62,1214.02 1681.83,1214.02 1684.04,1214.02 1686.26,1214.02 1688.47,1214.01 1690.69,1214.01 1692.9,1214.01 1695.12,1214.01 1697.33,1214.01 1699.54,1214.01 1701.76,1214 1703.97,1214 1706.19,1213.99 1708.4,1213.98 1710.62,1213.97 1712.83,1213.95 1715.04,1213.93 1717.26,1213.91 1719.47,1213.89 1721.69,1213.86 1723.9,1213.83 1726.12,1213.79 1728.33,1213.75 1730.54,1213.71 1732.76,1213.66 1734.97,1213.6 1737.19,1213.54 1739.4,1213.48 1741.62,1213.4 1743.83,1213.33 1746.04,1213.24 1748.26,1213.15 1750.47,1213.05 1752.69,1212.95 1754.9,1212.83 1757.12,1212.71 1759.33,1212.58 1761.54,1212.45 1763.76,1212.3 1765.97,1212.15 1768.19,1211.98 1770.4,1211.81 1772.62,1211.63 1774.83,1211.44 1777.04,1211.24 1779.26,1211.03 1781.47,1210.8 1783.69,1210.57 1785.9,1210.33 1788.12,1210.07 1790.33,1209.81 1792.54,1209.53 1794.76,1209.24 1796.97,1208.94 1799.19,1208.63 1801.4,1208.31 1803.62,1207.97 1805.83,1207.62 1808.04,1207.26 1810.26,1206.89 1812.47,1206.5 1814.69,1206.1 1816.9,1205.69 1819.12,1205.26 1821.33,1204.82 1823.54,1204.36 1825.76,1203.89 1827.97,1203.41 1830.19,1202.91 1832.4,1202.4 1834.62,1201.87 1836.83,1201.33 1839.04,1200.77 1841.26,1200.2 1843.47,1199.61 1845.69,1199.01 1847.9,1198.39 1850.12,1197.76 1852.33,1197.11 1854.54,1196.45 1856.76,1195.77 1858.97,1195.07 1861.19,1194.36 1863.4,1193.63 1865.62,1192.88 1867.83,1192.12 1870.04,1191.34 1872.26,1190.55 1874.47,1189.74 1876.69,1188.91 1878.9,1188.06 1881.12,1187.2 1883.33,1186.33 1885.54,1185.43 1887.76,1184.52 1889.97,1183.59 1892.19,1182.64 1894.4,1181.68 1896.62,1180.7 1898.83,1186.05 1901.04,1185.03 1903.26,1184 1905.47,1182.95 1907.69,1181.89 1909.9,1180.8 1912.12,1289.71 1914.33,1288.59 1916.54,1287.46 1918.76,1286.31 1920.97,1285.14 1923.19,1283.95 1925.4,1282.75 1927.62,1281.53 1929.83,1280.29 1932.04,1279.03 1934.26,1277.76 1936.47,1276.47 1938.69,1275.16 1940.9,1273.84 1943.12,1272.49 1945.33,1271.14 1947.54,1269.76 1949.76,1268.37 1951.97,1266.97 1954.19,1265.55 1956.4,1264.11 1958.62,1262.65 1960.83,1261.18 1963.04,1259.69 1965.26,1258.19 1967.47,1256.67 1969.69,1255.13 1971.9,1253.58 1974.11,1252.01 1976.33,1250.43 1978.54,1248.83 1980.76,1247.22 1982.97,1245.59 1985.19,1243.95 1987.4,1242.29 1989.61,1240.62 1991.83,1238.93 1994.04,1237.23 1996.26,1235.51 1998.47,1233.78 2000.69,1232.04 2002.9,1230.28 2005.11,1228.51 2007.33,1226.72 2009.54,1224.92 2011.76,1223.11 2013.97,1221.29 2016.19,1219.45 2018.4,1217.6 2020.61,1215.74 2022.83,1213.87 2025.04,1211.98 2027.26,1210.08 2029.47,1208.17 2031.69,1206.25 2033.9,1204.32 2036.11,1202.37 2038.33,1200.42 2040.54,1198.45 2042.76,1196.48 2044.97,1194.49 2047.19,1192.5 2049.4,1190.49 2051.61,1188.48 2053.83,1186.45 2056.04,1184.42 2058.26,1182.38 2060.47,1228.96 2062.69,1226.91 2064.9,1224.84 2067.11,1222.76 2069.33,1220.68 2071.54,1218.59 2073.76,1216.5 2075.97,1214.39 2078.19,1212.28 2080.4,1210.17 2082.61,1208.04 2084.83,1205.91 2087.04,1203.78 2089.26,1201.64 2091.47,1199.5 2093.69,1197.35 2095.9,1195.19 2098.11,1193.04 2100.33,1190.87 2102.54,1188.71 2104.76,1186.54 2106.97,1184.36 2109.19,1182.19 2111.4,1273.63 2113.61,1271.44 2115.83,1269.26 2118.04,1267.08 2120.26,1264.89 2122.47,1262.7 2124.69,1260.51 2126.9,1258.32 2129.11,1256.13 2131.33,1253.94 2133.54,1251.75 2135.76,1249.56 2137.97,1247.37 2140.19,1245.18 2142.4,1242.99 2144.61,1240.8 2146.83,1238.62 2149.04,1236.43 2151.26,1234.25 2153.47,1232.07 2155.69,1229.9 2157.9,1227.72 2160.11,1225.55 2162.33,1223.39 2164.54,1221.22 2166.76,1219.06 2168.97,1216.91 2171.19,1214.76 2173.4,1212.61 2175.61,1210.47 2177.83,1208.34 2180.04,1206.21 2182.26,1204.09 2184.47,1201.97 2186.69,1199.86 2188.9,1197.75 2191.11,1195.65 2193.33,1193.56 2195.54,1191.48 2197.76,1189.4 2199.97,1187.33 2202.19,1185.27 2204.4,1183.22 2206.61,1181.18 2208.83,1206.25 2211.04,1204.22 2213.26,1202.21 2215.47,1200.2 2217.69,1198.2 2219.9,1196.21 2222.11,1194.24 2224.33,1192.27 2226.54,1190.31 2228.76,1188.37 2230.97,1186.43 2233.19,1184.51 2235.4,1182.6 2237.61,1180.7 2239.83,1189.82 2242.04,1187.95 2244.26,1186.08 2246.47,1184.23 2248.68,1182.39 2250.9,1227.78 2253.11,1225.97 2255.33,1224.17 2257.54,1222.38 2259.76,1220.61 2261.97,1218.85 2264.18,1217.1 2266.4,1215.37 2268.61,1213.65 2270.83,1211.94 2273.04,1210.25 2275.26,1208.58 2277.47,1206.92 2279.68,1205.27 2281.9,1203.64 2284.11,1202.02 2286.33,1200.42 2288.54,1198.83 2290.76,1197.26 2292.97,1195.71 2295.18,1194.17 2297.4,1192.65 2299.61,1191.14 2301.83,1189.65 2304.04,1188.17 2306.26,1186.72 2308.47,1185.27 2310.68,1183.85 2312.9,1182.44 2315.11,1181.04 2317.33,1183.35 2319.54,1181.99 2321.76,1180.64 2323.97,1185.93 2326.18,1184.62 2328.4,1183.33 2330.61,1182.06 2332.83,1180.8 2335.04,1212.09 2337.26,1210.87 2339.47,1209.66 2341.68,1208.47 2343.9,1207.3 2346.11,1206.14 2348.33,1205.01 2350.54,1203.88 2352.76,1202.78 "/>
<polyline clip-path="url(#clip922)" style="stroke:#c271d2; stroke-linecap:round; stroke-linejoin:round; stroke-width:8; stroke-opacity:1; fill:none" points="140.696,1213.23 142.91,1213.23 145.124,1213.23 147.338,1213.23 149.553,1213.23 151.767,1213.23 153.981,1213.23 156.195,1213.23 158.41,1213.23 160.624,1213.23 162.838,1213.23 165.053,1213.23 167.267,1213.23 169.481,1213.23 171.695,1213.23 173.91,1213.23 176.124,1213.23 178.338,1213.23 180.552,1213.23 182.767,1213.23 184.981,1213.23 187.195,1213.23 189.41,1213.23 191.624,1213.23 193.838,1213.23 196.052,1213.18 198.267,1212.36 200.481,1211.54 202.695,1210.72 204.91,1209.89 207.124,1209.07 209.338,1208.25 211.552,1207.43 213.767,1206.61 215.981,1205.79 218.195,1204.96 220.409,1204.14 222.624,1203.32 224.838,1202.5 227.052,1201.68 229.267,1200.86 231.481,1200.03 233.695,1199.21 235.909,1198.39 238.124,1197.57 240.338,1196.75 242.552,1195.93 244.766,1195.11 246.981,1194.28 249.195,1193 251.409,1191.36 253.624,1189.72 255.838,1188.07 258.052,1186.43 260.266,1184.79 262.481,1183.14 264.695,1181.5 266.909,1220.6 269.123,1219.78 271.338,1218.96 273.552,1218.13 275.766,1217.31 277.981,1216.49 280.195,1215.67 282.409,1214.85 284.623,1214.03 286.838,1213.2 289.052,1212.38 291.266,1211.56 293.48,1210.74 295.695,1209.92 297.909,1209.1 300.123,1208.27 302.338,1207.45 304.552,1206.63 306.766,1205.81 308.98,1204.99 311.195,1204.17 313.409,1203.35 315.623,1202.52 317.838,1201.7 320.052,1200.88 322.266,1200.06 324.48,1199.24 326.695,1198.42 328.909,1197.59 331.123,1196.67 333.337,1195.02 335.552,1193.38 337.766,1191.74 339.98,1190.09 342.195,1188.45 344.409,1186.81 346.623,1185.16 348.837,1183.52 351.052,1181.88 353.266,1214.97 355.48,1214.14 357.694,1213.29 359.909,1211.64 362.123,1210 364.337,1208.36 366.552,1206.71 368.766,1205.07 370.98,1203.43 373.194,1201.78 375.409,1200.14 377.623,1198.5 379.837,1196.86 382.051,1195.21 384.266,1193.57 386.48,1191.93 388.694,1190.28 390.909,1188.64 393.123,1187 395.337,1185.35 397.551,1183.71 399.766,1182.07 401.98,1239.7 404.194,1238.87 406.408,1238.05 408.623,1236.45 410.837,1234.81 413.051,1233.16 415.266,1231.52 417.48,1229.88 419.694,1228.23 421.908,1226.59 424.123,1224.95 426.337,1223.3 428.551,1221.66 430.766,1220.02 432.98,1218.37 435.194,1216.73 437.408,1215.09 439.623,1213.44 441.837,1211.8 444.051,1210.16 446.265,1208.51 448.48,1206.87 450.694,1205.23 452.908,1203.58 455.123,1201.94 457.337,1200.3 459.551,1198.65 461.765,1197.01 463.98,1195.37 466.194,1193.72 468.408,1191.42 470.622,1188.95 472.837,1186.49 475.051,1184.02 477.265,1181.56 479.48,1230.96 481.694,1229.32 483.908,1227.67 486.122,1226.03 488.337,1224.39 490.551,1222.74 492.765,1221.1 494.979,1219.46 497.194,1217.81 499.408,1216.17 501.622,1214.53 503.837,1212.88 506.051,1211.24 508.265,1209.6 510.479,1207.95 512.694,1206.31 514.908,1204.67 517.122,1203.02 519.337,1201.38 521.551,1199.74 523.765,1198.09 525.979,1196.45 528.194,1194.81 530.408,1193.16 532.622,1191.52 534.836,1189.88 537.051,1188.23 539.265,1186.59 541.479,1184.95 543.694,1183.3 545.908,1181.66 548.122,1316.58 550.336,1315.76 552.551,1314.94 554.765,1314.12 556.979,1313.29 559.193,1312.47 561.408,1311.65 563.622,1310.83 565.836,1310.01 568.051,1309.19 570.265,1308.36 572.479,1307.54 574.693,1306.72 576.908,1305.9 579.122,1305.08 581.336,1304.26 583.55,1303.43 585.765,1302.61 587.979,1301.79 590.193,1300.97 592.408,1300.15 594.622,1299.33 596.836,1298.5 599.05,1297.33 601.265,1295.68 603.479,1294.04 605.693,1292.4 607.907,1290.75 610.122,1289.11 612.336,1287.47 614.55,1285.82 616.765,1284.18 618.979,1282.54 621.193,1280.89 623.407,1279.25 625.622,1277.61 627.836,1275.96 630.05,1274.32 632.265,1272.68 634.479,1271.03 636.693,1269.39 638.907,1267.75 641.122,1266.1 643.336,1264.46 645.55,1262.82 647.764,1261.18 649.979,1259.53 652.193,1257.89 654.407,1256.25 656.622,1254.6 658.836,1252.96 661.05,1251.32 663.264,1249.67 665.479,1248.03 667.693,1246.39 669.907,1244.74 672.121,1243.1 674.336,1241.46 676.55,1239.81 678.764,1238.17 680.979,1236.53 683.193,1234.88 685.407,1233.24 687.621,1231.6 689.836,1229.95 692.05,1228.31 694.264,1226.67 696.478,1225.02 698.693,1223.38 700.907,1221.74 703.121,1220.09 705.336,1218.45 707.55,1216.81 709.764,1215.16 711.978,1213.52 714.193,1211.88 716.407,1210.23 718.621,1208.59 720.835,1206.95 723.05,1205.3 725.264,1203.66 727.478,1202.02 729.693,1200.37 731.907,1198.73 734.121,1197.09 736.335,1195.44 738.55,1193.8 740.764,1192.16 742.978,1190.51 745.193,1188.87 747.407,1187.23 749.621,1185.58 751.835,1183.94 754.05,1182.3 756.264,1180.65 758.478,1181.12 760.692,1194 762.907,1194 765.121,1194 767.335,1194 769.55,1194 771.764,1194 773.978,1194 776.192,1194 778.407,1194 780.621,1194 782.835,1194 785.049,1194 787.264,1194 789.478,1194 791.692,1194 793.907,1194 796.121,1194 798.335,1194 800.549,1194 802.764,1194 804.978,1194 807.192,1194 809.406,1194 811.621,1194 813.835,1194 816.049,1194 818.264,1194 820.478,1194 822.692,1194 824.906,1194 827.121,1194 829.335,1194 831.549,1194 833.764,1194 835.978,1194 838.192,1194 840.406,1194 842.621,1194 844.835,1194 847.049,1194 849.263,1194 851.478,1194 853.692,1194 855.906,1194 858.121,1194 860.335,1194 862.549,1194 864.763,1194 866.978,1194 869.192,1194 871.406,1194 873.62,1194 875.835,1194 878.049,1194 880.263,1194 882.478,1194 884.692,1194 886.906,1194 889.12,1194 891.335,1194 893.549,1194 895.763,1194 897.977,1194 900.192,1194 902.406,1194 904.62,1194 906.835,1194 909.049,1194 911.263,1194 913.477,1194 915.692,1194 917.906,1194 920.12,1194 922.334,1194 924.549,1194 926.763,1194 928.977,1194 931.192,1194 933.406,1194 935.62,1194 937.834,1194 940.049,1194 942.263,1194 944.477,1194 946.692,1194 948.906,1194 951.12,1194 953.334,1194 955.549,1193.4 957.763,1192.57 959.977,1191.75 962.191,1190.93 964.406,1190.11 966.62,1189.29 968.834,1188.47 971.049,1187.64 973.263,1186.82 975.477,1186 977.691,1185.18 979.906,1184.36 982.12,1183.54 984.334,1182.71 986.548,1181.89 988.763,1181.07 990.977,1181.13 993.191,1181.13 995.406,1181.13 997.62,1181.13 999.834,1181.13 1002.05,1181.13 1004.26,1181.13 1006.48,1181.13 1008.69,1181.13 1010.91,1181.13 1013.12,1181.13 1015.33,1181.13 1017.55,1181.13 1019.76,1181.13 1021.98,1181.13 1024.19,1181.13 1026.41,1181.13 1028.62,1181.13 1030.83,1181.13 1033.05,1181.13 1035.26,1181.13 1037.48,1181.13 1039.69,1181.13 1041.91,1181.13 1044.12,1181.13 1046.33,1181.13 1048.55,1181.13 1050.76,1181.13 1052.98,1181.13 1055.19,1181.13 1057.41,1181.13 1059.62,1181.13 1061.83,1181.13 1064.05,1181.13 1066.26,1181.13 1068.48,1181.13 1070.69,1181.13 1072.91,1181.13 1075.12,1181.13 1077.33,1181.13 1079.55,1181.13 1081.76,1181.13 1083.98,1180.86 1086.19,1190.78 1088.41,1190.78 1090.62,1190.78 1092.83,1190.29 1095.05,1189.46 1097.26,1188.64 1099.48,1187.82 1101.69,1187 1103.91,1186.18 1106.12,1185.36 1108.33,1184.53 1110.55,1183.71 1112.76,1182.89 1114.98,1182.07 1117.19,1181.25 1119.4,1245.21 1121.62,1245.21 1123.83,1245.21 1126.05,1245.21 1128.26,1245.21 1130.48,1245.21 1132.69,1245.21 1134.9,1245.21 1137.12,1245.21 1139.33,1245.21 1141.55,1245.21 1143.76,1245.21 1145.98,1245.21 1148.19,1245.21 1150.4,1245.21 1152.62,1245.21 1154.83,1245.21 1157.05,1245.21 1159.26,1245.21 1161.48,1245.21 1163.69,1245.21 1165.9,1245.21 1168.12,1245.21 1170.33,1245.21 1172.55,1245.21 1174.76,1245.21 1176.98,1245.21 1179.19,1245.21 1181.4,1245.21 1183.62,1245.21 1185.83,1245.21 1188.05,1245.21 1190.26,1245.21 1192.48,1245.21 1194.69,1245.21 1196.9,1245.21 1199.12,1245.21 1201.33,1245.21 1203.55,1245.21 1205.76,1245.21 1207.98,1245.21 1210.19,1245.21 1212.4,1245.21 1214.62,1245.21 1216.83,1245.21 1219.05,1245.21 1221.26,1245.21 1223.48,1245.21 1225.69,1245.21 1227.9,1245.21 1230.12,1245.21 1232.33,1245.21 1234.55,1245.21 1236.76,1245.21 1238.98,1245.21 1241.19,1245.21 1243.4,1245.21 1245.62,1245.21 1247.83,1245.21 1250.05,1245.21 1252.26,1245.21 1254.48,1245.21 1256.69,1245.21 1258.9,1245.21 1261.12,1245.21 1263.33,1245.21 1265.55,1245.21 1267.76,1245.21 1269.98,1245.21 1272.19,1245.21 1274.4,1245.21 1276.62,1245.21 1278.83,1245.21 1281.05,1245.21 1283.26,1245.21 1285.48,1245.21 1287.69,1245.21 1289.9,1245.21 1292.12,1245.21 1294.33,1245.21 1296.55,1245.21 1298.76,1245.21 1300.98,1244.42 1303.19,1243.59 1305.4,1242.77 1307.62,1241.95 1309.83,1241.13 1312.05,1240.31 1314.26,1239.49 1316.48,1238.66 1318.69,1237.84 1320.9,1237.02 1323.12,1236.2 1325.33,1235.38 1327.55,1234.56 1329.76,1233.73 1331.98,1232.91 1334.19,1232.09 1336.4,1231.27 1338.62,1230.45 1340.83,1229.63 1343.05,1228.8 1345.26,1227.98 1347.48,1227.16 1349.69,1226.34 1351.9,1225.52 1354.12,1224.7 1356.33,1223.87 1358.55,1223.05 1360.76,1222.23 1362.98,1221.41 1365.19,1220.59 1367.4,1219.77 1369.62,1218.94 1371.83,1218.12 1374.05,1217.3 1376.26,1216.48 1378.48,1215.66 1380.69,1214.84 1382.9,1214.02 1385.12,1213.19 1387.33,1211.87 1389.55,1210.23 1391.76,1208.59 1393.97,1206.94 1396.19,1205.3 1398.4,1203.66 1400.62,1201.46 1402.83,1198.99 1405.05,1196.53 1407.26,1194.06 1409.47,1191.6 1411.69,1189.13 1413.9,1186.67 1416.12,1184.2 1418.33,1181.74 1420.55,1217.59 1422.76,1215.95 1424.97,1214.31 1427.19,1212.66 1429.4,1211.02 1431.62,1209.38 1433.83,1207.73 1436.05,1206.09 1438.26,1204.45 1440.47,1202.8 1442.69,1201.16 1444.9,1199.52 1447.12,1197.87 1449.33,1196.23 1451.55,1194.59 1453.76,1192.94 1455.97,1191.3 1458.19,1189.66 1460.4,1188.01 1462.62,1186.37 1464.83,1184.73 1467.05,1183.08 1469.26,1181.44 1471.47,1204.92 1473.69,1204.1 1475.9,1203.28 1478.12,1202.46 1480.33,1201.64 1482.55,1200.82 1484.76,1200 1486.97,1199.17 1489.19,1198.35 1491.4,1197.53 1493.62,1196.71 1495.83,1195.89 1498.05,1195.07 1500.26,1194.24 1502.47,1193.42 1504.69,1192.6 1506.9,1191.78 1509.12,1190.96 1511.33,1190.14 1513.55,1189.31 1515.76,1188.49 1517.97,1187.67 1520.19,1186.85 1522.4,1186.03 1524.62,1185.21 1526.83,1184.38 1529.05,1183.56 1531.26,1182.74 1533.47,1181.92 1535.69,1181.1 1537.9,1238.48 1540.12,1238.48 1542.33,1238.48 1544.55,1238.48 1546.76,1238.48 1548.97,1238.48 1551.19,1238.48 1553.4,1238.48 1555.62,1238.48 1557.83,1238.48 1560.05,1238.48 1562.26,1238.48 1564.47,1238.48 1566.69,1238.48 1568.9,1238.48 1571.12,1238.48 1573.33,1238.48 1575.55,1238.48 1577.76,1238.48 1579.97,1238.48 1582.19,1238.48 1584.4,1238.48 1586.62,1238.48 1588.83,1238.48 1591.05,1238.48 1593.26,1238.48 1595.47,1238.48 1597.69,1238.48 1599.9,1238.48 1602.12,1238.48 1604.33,1238.48 1606.55,1238.48 1608.76,1238.48 1610.97,1238.48 1613.19,1238.48 1615.4,1238.48 1617.62,1238.48 1619.83,1238.48 1622.05,1238.48 1624.26,1238.48 1626.47,1238.48 1628.69,1238.06 1630.9,1237.24 1633.12,1236.42 1635.33,1235.6 1637.55,1234.78 1639.76,1233.95 1641.97,1233.13 1644.19,1232.31 1646.4,1231.49 1648.62,1230.67 1650.83,1229.85 1653.05,1229.02 1655.26,1228.2 1657.47,1227.38 1659.69,1226.56 1661.9,1225.74 1664.12,1224.92 1666.33,1224.09 1668.55,1223.27 1670.76,1222.45 1672.97,1221.63 1675.19,1220.81 1677.4,1219.99 1679.62,1219.16 1681.83,1218.34 1684.04,1217.52 1686.26,1216.7 1688.47,1215.88 1690.69,1215.06 1692.9,1214.23 1695.12,1213.41 1697.33,1212.59 1699.54,1211.77 1701.76,1210.95 1703.97,1210.13 1706.19,1209.3 1708.4,1208.48 1710.62,1207.66 1712.83,1206.84 1715.04,1206.02 1717.26,1205.2 1719.47,1204.37 1721.69,1203.55 1723.9,1202.73 1726.12,1201.91 1728.33,1201.09 1730.54,1200.27 1732.76,1199.44 1734.97,1198.62 1737.19,1197.8 1739.4,1196.98 1741.62,1196.16 1743.83,1195.34 1746.04,1194.51 1748.26,1193.69 1750.47,1192.87 1752.69,1192.05 1754.9,1191.23 1757.12,1190.41 1759.33,1189.58 1761.54,1188.76 1763.76,1187.94 1765.97,1187.12 1768.19,1186.3 1770.4,1185.48 1772.62,1184.65 1774.83,1183.83 1777.04,1183.01 1779.26,1182.19 1781.47,1181.37 1783.69,1186.38 1785.9,1186.38 1788.12,1186.38 1790.33,1186.38 1792.54,1186.38 1794.76,1186.38 1796.97,1186.38 1799.19,1186.38 1801.4,1186.38 1803.62,1186.38 1805.83,1186.38 1808.04,1186.38 1810.26,1186.38 1812.47,1186.38 1814.69,1186.38 1816.9,1186.38 1819.12,1186.38 1821.33,1186.38 1823.54,1186.38 1825.76,1186.38 1827.97,1186.38 1830.19,1186.38 1832.4,1186.38 1834.62,1186.38 1836.83,1186.38 1839.04,1186.38 1841.26,1186.38 1843.47,1186.38 1845.69,1186.38 1847.9,1186.38 1850.12,1186.38 1852.33,1186.38 1854.54,1186.38 1856.76,1186.38 1858.97,1186.38 1861.19,1186.38 1863.4,1186.38 1865.62,1186.38 1867.83,1186.38 1870.04,1186.38 1872.26,1186.38 1874.47,1186.38 1876.69,1186.38 1878.9,1186.38 1881.12,1186.38 1883.33,1186.38 1885.54,1186.38 1887.76,1186.38 1889.97,1186.38 1892.19,1186.38 1894.4,1186.38 1896.62,1186.38 1898.83,1185.63 1901.04,1184.81 1903.26,1183.99 1905.47,1183.17 1907.69,1182.35 1909.9,1181.53 1912.12,1192 1914.33,1191.18 1916.54,1190.36 1918.76,1189.54 1920.97,1188.72 1923.19,1187.89 1925.4,1187.07 1927.62,1186.25 1929.83,1185.43 1932.04,1184.61 1934.26,1183.79 1936.47,1182.96 1938.69,1182.14 1940.9,1181.32 1943.12,1384.24 1945.33,1384.24 1947.54,1384.24 1949.76,1384.24 1951.97,1384.24 1954.19,1384.24 1956.4,1384.24 1958.62,1384.24 1960.83,1384.24 1963.04,1384.24 1965.26,1384.24 1967.47,1384.24 1969.69,1384.24 1971.9,1384.24 1974.11,1384.24 1976.33,1384.24 1978.54,1384.24 1980.76,1384.24 1982.97,1384.24 1985.19,1384.24 1987.4,1384.24 1989.61,1384.24 1991.83,1384.24 1994.04,1384.24 1996.26,1384.24 1998.47,1384.24 2000.69,1384.24 2002.9,1384.24 2005.11,1384.24 2007.33,1384.24 2009.54,1384.24 2011.76,1384.24 2013.97,1384.24 2016.19,1384.24 2018.4,1384.24 2020.61,1384.24 2022.83,1384.24 2025.04,1384.24 2027.26,1384.24 2029.47,1384.24 2031.69,1384.24 2033.9,1384.24 2036.11,1384.24 2038.33,1384.24 2040.54,1384.24 2042.76,1384.24 2044.97,1384.24 2047.19,1384.24 2049.4,1384.24 2051.61,1384.24 2053.83,1384.24 2056.04,1384.24 2058.26,1384.24 2060.47,1384.13 2062.69,1383.31 2064.9,1382.49 2067.11,1381.66 2069.33,1380.84 2071.54,1380.02 2073.76,1379.2 2075.97,1378.38 2078.19,1377.56 2080.4,1376.73 2082.61,1375.91 2084.83,1375.09 2087.04,1374.27 2089.26,1373.45 2091.47,1372.63 2093.69,1371.8 2095.9,1370.98 2098.11,1370.16 2100.33,1369.34 2102.54,1368.52 2104.76,1367.7 2106.97,1366.87 2109.19,1366.05 2111.4,1365 2113.61,1363.35 2115.83,1361.71 2118.04,1360.07 2120.26,1358.42 2122.47,1356.78 2124.69,1355.14 2126.9,1353.49 2129.11,1351.85 2131.33,1350.21 2133.54,1348.56 2135.76,1346.92 2137.97,1345.28 2140.19,1343.63 2142.4,1341.99 2144.61,1340.35 2146.83,1338.7 2149.04,1337.06 2151.26,1335.42 2153.47,1333.77 2155.69,1332.13 2157.9,1330.49 2160.11,1328.84 2162.33,1327.2 2164.54,1325.56 2166.76,1323.91 2168.97,1322.27 2171.19,1320.63 2173.4,1318.98 2175.61,1317.34 2177.83,1315.7 2180.04,1314.05 2182.26,1312.41 2184.47,1310.77 2186.69,1309.12 2188.9,1307.48 2191.11,1305.84 2193.33,1304.19 2195.54,1302.55 2197.76,1300.91 2199.97,1299.26 2202.19,1297.62 2204.4,1295.98 2206.61,1294.33 2208.83,1292.1 2211.04,1289.63 2213.26,1287.17 2215.47,1284.7 2217.69,1282.24 2219.9,1279.77 2222.11,1277.31 2224.33,1274.84 2226.54,1272.38 2228.76,1269.91 2230.97,1267.45 2233.19,1264.98 2235.4,1262.52 2237.61,1260.05 2239.83,1256.8 2242.04,1253.51 2244.26,1250.23 2246.47,1246.94 2248.68,1243.66 2250.9,1240.35 2253.11,1236.24 2255.33,1232.13 2257.54,1228.02 2259.76,1223.91 2261.97,1219.81 2264.18,1215.7 2266.4,1211.59 2268.61,1207.48 2270.83,1203.37 2273.04,1199.26 2275.26,1195.16 2277.47,1191.05 2279.68,1186.94 2281.9,1182.83 2284.11,1208.81 2286.33,1205.53 2288.54,1202.24 2290.76,1198.95 2292.97,1195.67 2295.18,1192.38 2297.4,1189.09 2299.61,1185.81 2301.83,1182.52 2304.04,1184.99 2306.26,1182.52 2308.47,1218.11 2310.68,1216.46 2312.9,1214.82 2315.11,1213.18 2317.33,1210.97 2319.54,1208.5 2321.76,1206.04 2323.97,1202.77 2326.18,1199.48 2328.4,1196.2 2330.61,1192.91 2332.83,1189.62 2335.04,1185.64 2337.26,1181.53 2339.47,1258.9 2341.68,1255.61 2343.9,1252.33 2346.11,1249.04 2348.33,1245.76 2350.54,1242.47 2352.76,1239.18 "/>
<path clip-path="url(#clip920)" d="M214.431 352.309 L518.993 352.309 L518.993 93.1086 L214.431 93.1086  Z" fill="#ffffff" fill-rule="evenodd" fill-opacity="1"/>
<polyline clip-path="url(#clip920)" style="stroke:#000000; stroke-linecap:round; stroke-linejoin:round; stroke-width:4; stroke-opacity:1; fill:none" points="214.431,352.309 518.993,352.309 518.993,93.1086 214.431,93.1086 214.431,352.309 "/>
<polyline clip-path="url(#clip920)" style="stroke:#009af9; stroke-linecap:round; stroke-linejoin:round; stroke-width:8; stroke-opacity:1; fill:none" points="239.009,144.949 386.48,144.949 "/>
<path clip-path="url(#clip920)" d="M411.058 127.669 L417.355 127.669 L432.679 156.581 L432.679 127.669 L437.216 127.669 L437.216 162.229 L430.919 162.229 L415.595 133.317 L415.595 162.229 L411.058 162.229 L411.058 127.669 Z" fill="#000000" fill-rule="nonzero" fill-opacity="1" /><path clip-path="url(#clip920)" d="M456.567 126.257 Q453.466 131.581 451.961 136.789 Q450.456 141.997 450.456 147.344 Q450.456 152.692 451.961 157.946 Q453.489 163.178 456.567 168.479 L452.864 168.479 Q449.392 163.039 447.656 157.784 Q445.943 152.53 445.943 147.344 Q445.943 142.182 447.656 136.951 Q449.368 131.72 452.864 126.257 L456.567 126.257 Z" fill="#000000" fill-rule="nonzero" fill-opacity="1" /><path clip-path="url(#clip920)" d="M469.044 128.942 L469.044 136.303 L477.817 136.303 L477.817 139.613 L469.044 139.613 L469.044 153.687 Q469.044 156.858 469.901 157.761 Q470.78 158.664 473.442 158.664 L477.817 158.664 L477.817 162.229 L473.442 162.229 Q468.512 162.229 466.637 160.4 Q464.762 158.548 464.762 153.687 L464.762 139.613 L461.637 139.613 L461.637 136.303 L464.762 136.303 L464.762 128.942 L469.044 128.942 Z" fill="#000000" fill-rule="nonzero" fill-opacity="1" /><path clip-path="url(#clip920)" d="M482.748 126.257 L486.452 126.257 Q489.924 131.72 491.637 136.951 Q493.373 142.182 493.373 147.344 Q493.373 152.53 491.637 157.784 Q489.924 163.039 486.452 168.479 L482.748 168.479 Q485.827 163.178 487.331 157.946 Q488.859 152.692 488.859 147.344 Q488.859 141.997 487.331 136.789 Q485.827 131.581 482.748 126.257 Z" fill="#000000" fill-rule="nonzero" fill-opacity="1" /><polyline clip-path="url(#clip920)" style="stroke:#e26f46; stroke-linecap:round; stroke-linejoin:round; stroke-width:8; stroke-opacity:1; fill:none" points="239.009,196.789 386.48,196.789 "/>
<path clip-path="url(#clip920)" d="M415.734 183.351 L415.734 210.226 L421.382 210.226 Q428.535 210.226 431.845 206.985 Q435.179 203.745 435.179 196.754 Q435.179 189.809 431.845 186.592 Q428.535 183.351 421.382 183.351 L415.734 183.351 M411.058 179.509 L420.665 179.509 Q430.711 179.509 435.41 183.698 Q440.109 187.865 440.109 196.754 Q440.109 205.689 435.387 209.879 Q430.665 214.069 420.665 214.069 L411.058 214.069 L411.058 179.509 Z" fill="#000000" fill-rule="nonzero" fill-opacity="1" /><path clip-path="url(#clip920)" d="M457.609 178.097 Q454.507 183.421 453.003 188.629 Q451.498 193.837 451.498 199.184 Q451.498 204.532 453.003 209.786 Q454.53 215.018 457.609 220.319 L453.905 220.319 Q450.433 214.879 448.697 209.624 Q446.984 204.37 446.984 199.184 Q446.984 194.022 448.697 188.791 Q450.41 183.56 453.905 178.097 L457.609 178.097 Z" fill="#000000" fill-rule="nonzero" fill-opacity="1" /><path clip-path="url(#clip920)" d="M470.086 180.782 L470.086 188.143 L478.859 188.143 L478.859 191.453 L470.086 191.453 L470.086 205.527 Q470.086 208.698 470.942 209.601 Q471.822 210.504 474.484 210.504 L478.859 210.504 L478.859 214.069 L474.484 214.069 Q469.554 214.069 467.679 212.24 Q465.804 210.388 465.804 205.527 L465.804 191.453 L462.679 191.453 L462.679 188.143 L465.804 188.143 L465.804 180.782 L470.086 180.782 Z" fill="#000000" fill-rule="nonzero" fill-opacity="1" /><path clip-path="url(#clip920)" d="M483.79 178.097 L487.493 178.097 Q490.965 183.56 492.678 188.791 Q494.415 194.022 494.415 199.184 Q494.415 204.37 492.678 209.624 Q490.965 214.879 487.493 220.319 L483.79 220.319 Q486.868 215.018 488.373 209.786 Q489.901 204.532 489.901 199.184 Q489.901 193.837 488.373 188.629 Q486.868 183.421 483.79 178.097 Z" fill="#000000" fill-rule="nonzero" fill-opacity="1" /><polyline clip-path="url(#clip920)" style="stroke:#3da44d; stroke-linecap:round; stroke-linejoin:round; stroke-width:8; stroke-opacity:1; fill:none" points="239.009,248.629 386.48,248.629 "/>
<path clip-path="url(#clip920)" d="M411.058 231.349 L417.355 231.349 L432.679 260.261 L432.679 231.349 L437.216 231.349 L437.216 265.909 L430.919 265.909 L415.595 236.997 L415.595 265.909 L411.058 265.909 L411.058 231.349 Z" fill="#000000" fill-rule="nonzero" fill-opacity="1" /><path clip-path="url(#clip920)" d="M456.567 229.937 Q453.466 235.261 451.961 240.469 Q450.456 245.677 450.456 251.024 Q450.456 256.372 451.961 261.626 Q453.489 266.858 456.567 272.159 L452.864 272.159 Q449.392 266.719 447.656 261.464 Q445.943 256.21 445.943 251.024 Q445.943 245.862 447.656 240.631 Q449.368 235.4 452.864 229.937 L456.567 229.937 Z" fill="#000000" fill-rule="nonzero" fill-opacity="1" /><path clip-path="url(#clip920)" d="M469.044 232.622 L469.044 239.983 L477.817 239.983 L477.817 243.293 L469.044 243.293 L469.044 257.367 Q469.044 260.538 469.901 261.441 Q470.78 262.344 473.442 262.344 L477.817 262.344 L477.817 265.909 L473.442 265.909 Q468.512 265.909 466.637 264.08 Q464.762 262.228 464.762 257.367 L464.762 243.293 L461.637 243.293 L461.637 239.983 L464.762 239.983 L464.762 232.622 L469.044 232.622 Z" fill="#000000" fill-rule="nonzero" fill-opacity="1" /><path clip-path="url(#clip920)" d="M482.748 229.937 L486.452 229.937 Q489.924 235.4 491.637 240.631 Q493.373 245.862 493.373 251.024 Q493.373 256.21 491.637 261.464 Q489.924 266.719 486.452 272.159 L482.748 272.159 Q485.827 266.858 487.331 261.626 Q488.859 256.372 488.859 251.024 Q488.859 245.677 487.331 240.469 Q485.827 235.261 482.748 229.937 Z" fill="#000000" fill-rule="nonzero" fill-opacity="1" /><polyline clip-path="url(#clip920)" style="stroke:#c271d2; stroke-linecap:round; stroke-linejoin:round; stroke-width:8; stroke-opacity:1; fill:none" points="239.009,300.469 386.48,300.469 "/>
<path clip-path="url(#clip920)" d="M415.734 287.031 L415.734 313.906 L421.382 313.906 Q428.535 313.906 431.845 310.665 Q435.179 307.425 435.179 300.434 Q435.179 293.489 431.845 290.272 Q428.535 287.031 421.382 287.031 L415.734 287.031 M411.058 283.189 L420.665 283.189 Q430.711 283.189 435.41 287.378 Q440.109 291.545 440.109 300.434 Q440.109 309.369 435.387 313.559 Q430.665 317.749 420.665 317.749 L411.058 317.749 L411.058 283.189 Z" fill="#000000" fill-rule="nonzero" fill-opacity="1" /><path clip-path="url(#clip920)" d="M457.609 281.777 Q454.507 287.101 453.003 292.309 Q451.498 297.517 451.498 302.864 Q451.498 308.212 453.003 313.466 Q454.53 318.698 457.609 323.999 L453.905 323.999 Q450.433 318.559 448.697 313.304 Q446.984 308.05 446.984 302.864 Q446.984 297.702 448.697 292.471 Q450.41 287.24 453.905 281.777 L457.609 281.777 Z" fill="#000000" fill-rule="nonzero" fill-opacity="1" /><path clip-path="url(#clip920)" d="M470.086 284.462 L470.086 291.823 L478.859 291.823 L478.859 295.133 L470.086 295.133 L470.086 309.207 Q470.086 312.378 470.942 313.281 Q471.822 314.184 474.484 314.184 L478.859 314.184 L478.859 317.749 L474.484 317.749 Q469.554 317.749 467.679 315.92 Q465.804 314.068 465.804 309.207 L465.804 295.133 L462.679 295.133 L462.679 291.823 L465.804 291.823 L465.804 284.462 L470.086 284.462 Z" fill="#000000" fill-rule="nonzero" fill-opacity="1" /><path clip-path="url(#clip920)" d="M483.79 281.777 L487.493 281.777 Q490.965 287.24 492.678 292.471 Q494.415 297.702 494.415 302.864 Q494.415 308.05 492.678 313.304 Q490.965 318.559 487.493 323.999 L483.79 323.999 Q486.868 318.698 488.373 313.466 Q489.901 308.212 489.901 302.864 Q489.901 297.517 488.373 292.309 Q486.868 287.101 483.79 281.777 Z" fill="#000000" fill-rule="nonzero" fill-opacity="1" /></svg>
