<?xml version="1.0" encoding="utf-8"?>
<svg xmlns="http://www.w3.org/2000/svg" xmlns:xlink="http://www.w3.org/1999/xlink" width="600" height="400" viewBox="0 0 2400 1600">
<defs>
  <clipPath id="clip490">
    <rect x="0" y="0" width="2400" height="1600"/>
  </clipPath>
</defs>
<path clip-path="url(#clip490)" d="M0 1600 L2400 1600 L2400 0 L0 0  Z" fill="#ffffff" fill-rule="evenodd" fill-opacity="1"/>
<defs>
  <clipPath id="clip491">
    <rect x="480" y="0" width="1681" height="1600"/>
  </clipPath>
</defs>
<path clip-path="url(#clip490)" d="M147.478 1423.18 L2352.76 1423.18 L2352.76 47.2441 L147.478 47.2441  Z" fill="#ffffff" fill-rule="evenodd" fill-opacity="1"/>
<defs>
  <clipPath id="clip492">
    <rect x="147" y="47" width="2206" height="1377"/>
  </clipPath>
</defs>
<polyline clip-path="url(#clip492)" style="stroke:#000000; stroke-linecap:round; stroke-linejoin:round; stroke-width:2; stroke-opacity:0.1; fill:none" points="147.478,1423.18 147.478,47.2441 "/>
<polyline clip-path="url(#clip492)" style="stroke:#000000; stroke-linecap:round; stroke-linejoin:round; stroke-width:2; stroke-opacity:0.1; fill:none" points="588.534,1423.18 588.534,47.2441 "/>
<polyline clip-path="url(#clip492)" style="stroke:#000000; stroke-linecap:round; stroke-linejoin:round; stroke-width:2; stroke-opacity:0.1; fill:none" points="1029.59,1423.18 1029.59,47.2441 "/>
<polyline clip-path="url(#clip492)" style="stroke:#000000; stroke-linecap:round; stroke-linejoin:round; stroke-width:2; stroke-opacity:0.1; fill:none" points="1470.64,1423.18 1470.64,47.2441 "/>
<polyline clip-path="url(#clip492)" style="stroke:#000000; stroke-linecap:round; stroke-linejoin:round; stroke-width:2; stroke-opacity:0.1; fill:none" points="1911.7,1423.18 1911.7,47.2441 "/>
<polyline clip-path="url(#clip492)" style="stroke:#000000; stroke-linecap:round; stroke-linejoin:round; stroke-width:2; stroke-opacity:0.1; fill:none" points="2352.76,1423.18 2352.76,47.2441 "/>
<polyline clip-path="url(#clip492)" style="stroke:#000000; stroke-linecap:round; stroke-linejoin:round; stroke-width:2; stroke-opacity:0.1; fill:none" points="147.478,1392.93 2352.76,1392.93 "/>
<polyline clip-path="url(#clip492)" style="stroke:#000000; stroke-linecap:round; stroke-linejoin:round; stroke-width:2; stroke-opacity:0.1; fill:none" points="147.478,1165 2352.76,1165 "/>
<polyline clip-path="url(#clip492)" style="stroke:#000000; stroke-linecap:round; stroke-linejoin:round; stroke-width:2; stroke-opacity:0.1; fill:none" points="147.478,937.061 2352.76,937.061 "/>
<polyline clip-path="url(#clip492)" style="stroke:#000000; stroke-linecap:round; stroke-linejoin:round; stroke-width:2; stroke-opacity:0.1; fill:none" points="147.478,709.126 2352.76,709.126 "/>
<polyline clip-path="url(#clip492)" style="stroke:#000000; stroke-linecap:round; stroke-linejoin:round; stroke-width:2; stroke-opacity:0.1; fill:none" points="147.478,481.191 2352.76,481.191 "/>
<polyline clip-path="url(#clip492)" style="stroke:#000000; stroke-linecap:round; stroke-linejoin:round; stroke-width:2; stroke-opacity:0.1; fill:none" points="147.478,253.256 2352.76,253.256 "/>
<polyline clip-path="url(#clip490)" style="stroke:#000000; stroke-linecap:round; stroke-linejoin:round; stroke-width:4; stroke-opacity:1; fill:none" points="147.478,1423.18 2352.76,1423.18 "/>
<polyline clip-path="url(#clip490)" style="stroke:#000000; stroke-linecap:round; stroke-linejoin:round; stroke-width:4; stroke-opacity:1; fill:none" points="147.478,1423.18 147.478,1404.28 "/>
<polyline clip-path="url(#clip490)" style="stroke:#000000; stroke-linecap:round; stroke-linejoin:round; stroke-width:4; stroke-opacity:1; fill:none" points="588.534,1423.18 588.534,1404.28 "/>
<polyline clip-path="url(#clip490)" style="stroke:#000000; stroke-linecap:round; stroke-linejoin:round; stroke-width:4; stroke-opacity:1; fill:none" points="1029.59,1423.18 1029.59,1404.28 "/>
<polyline clip-path="url(#clip490)" style="stroke:#000000; stroke-linecap:round; stroke-linejoin:round; stroke-width:4; stroke-opacity:1; fill:none" points="1470.64,1423.18 1470.64,1404.28 "/>
<polyline clip-path="url(#clip490)" style="stroke:#000000; stroke-linecap:round; stroke-linejoin:round; stroke-width:4; stroke-opacity:1; fill:none" points="1911.7,1423.18 1911.7,1404.28 "/>
<polyline clip-path="url(#clip490)" style="stroke:#000000; stroke-linecap:round; stroke-linejoin:round; stroke-width:4; stroke-opacity:1; fill:none" points="2352.76,1423.18 2352.76,1404.28 "/>
<path clip-path="url(#clip490)" d="M147.478 1454.1 Q143.867 1454.1 142.038 1457.66 Q140.233 1461.2 140.233 1468.33 Q140.233 1475.44 142.038 1479.01 Q143.867 1482.55 147.478 1482.55 Q151.112 1482.55 152.918 1479.01 Q154.746 1475.44 154.746 1468.33 Q154.746 1461.2 152.918 1457.66 Q151.112 1454.1 147.478 1454.1 M147.478 1450.39 Q153.288 1450.39 156.344 1455 Q159.422 1459.58 159.422 1468.33 Q159.422 1477.06 156.344 1481.67 Q153.288 1486.25 147.478 1486.25 Q141.668 1486.25 138.589 1481.67 Q135.534 1477.06 135.534 1468.33 Q135.534 1459.58 138.589 1455 Q141.668 1450.39 147.478 1450.39 Z" fill="#000000" fill-rule="nonzero" fill-opacity="1" /><path clip-path="url(#clip490)" d="M583.186 1481.64 L599.506 1481.64 L599.506 1485.58 L577.561 1485.58 L577.561 1481.64 Q580.223 1478.89 584.807 1474.26 Q589.413 1469.61 590.594 1468.27 Q592.839 1465.74 593.719 1464.01 Q594.621 1462.25 594.621 1460.56 Q594.621 1457.8 592.677 1456.07 Q590.756 1454.33 587.654 1454.33 Q585.455 1454.33 583.001 1455.09 Q580.571 1455.86 577.793 1457.41 L577.793 1452.69 Q580.617 1451.55 583.071 1450.97 Q585.524 1450.39 587.561 1450.39 Q592.932 1450.39 596.126 1453.08 Q599.32 1455.77 599.32 1460.26 Q599.32 1462.39 598.51 1464.31 Q597.723 1466.2 595.617 1468.8 Q595.038 1469.47 591.936 1472.69 Q588.834 1475.88 583.186 1481.64 Z" fill="#000000" fill-rule="nonzero" fill-opacity="1" /><path clip-path="url(#clip490)" d="M1032.6 1455.09 L1020.79 1473.54 L1032.6 1473.54 L1032.6 1455.09 M1031.37 1451.02 L1037.25 1451.02 L1037.25 1473.54 L1042.18 1473.54 L1042.18 1477.43 L1037.25 1477.43 L1037.25 1485.58 L1032.6 1485.58 L1032.6 1477.43 L1017 1477.43 L1017 1472.92 L1031.37 1451.02 Z" fill="#000000" fill-rule="nonzero" fill-opacity="1" /><path clip-path="url(#clip490)" d="M1471.05 1466.44 Q1467.9 1466.44 1466.05 1468.59 Q1464.22 1470.74 1464.22 1474.49 Q1464.22 1478.22 1466.05 1480.39 Q1467.9 1482.55 1471.05 1482.55 Q1474.2 1482.55 1476.03 1480.39 Q1477.88 1478.22 1477.88 1474.49 Q1477.88 1470.74 1476.03 1468.59 Q1474.2 1466.44 1471.05 1466.44 M1480.33 1451.78 L1480.33 1456.04 Q1478.57 1455.21 1476.77 1454.77 Q1474.98 1454.33 1473.23 1454.33 Q1468.6 1454.33 1466.14 1457.45 Q1463.71 1460.58 1463.36 1466.9 Q1464.73 1464.89 1466.79 1463.82 Q1468.85 1462.73 1471.33 1462.73 Q1476.54 1462.73 1479.55 1465.9 Q1482.58 1469.05 1482.58 1474.49 Q1482.58 1479.82 1479.43 1483.03 Q1476.28 1486.25 1471.05 1486.25 Q1465.05 1486.25 1461.88 1481.67 Q1458.71 1477.06 1458.71 1468.33 Q1458.71 1460.14 1462.6 1455.28 Q1466.49 1450.39 1473.04 1450.39 Q1474.8 1450.39 1476.58 1450.74 Q1478.39 1451.09 1480.33 1451.78 Z" fill="#000000" fill-rule="nonzero" fill-opacity="1" /><path clip-path="url(#clip490)" d="M1911.7 1469.17 Q1908.37 1469.17 1906.45 1470.95 Q1904.55 1472.73 1904.55 1475.86 Q1904.55 1478.98 1906.45 1480.77 Q1908.37 1482.55 1911.7 1482.55 Q1915.03 1482.55 1916.95 1480.77 Q1918.88 1478.96 1918.88 1475.86 Q1918.88 1472.73 1916.95 1470.95 Q1915.06 1469.17 1911.7 1469.17 M1907.02 1467.18 Q1904.02 1466.44 1902.33 1464.38 Q1900.66 1462.32 1900.66 1459.35 Q1900.66 1455.21 1903.6 1452.8 Q1906.56 1450.39 1911.7 1450.39 Q1916.86 1450.39 1919.8 1452.8 Q1922.74 1455.21 1922.74 1459.35 Q1922.74 1462.32 1921.05 1464.38 Q1919.39 1466.44 1916.4 1467.18 Q1919.78 1467.96 1921.65 1470.26 Q1923.55 1472.55 1923.55 1475.86 Q1923.55 1480.88 1920.47 1483.57 Q1917.42 1486.25 1911.7 1486.25 Q1905.98 1486.25 1902.9 1483.57 Q1899.85 1480.88 1899.85 1475.86 Q1899.85 1472.55 1901.75 1470.26 Q1903.64 1467.96 1907.02 1467.18 M1905.31 1459.79 Q1905.31 1462.48 1906.98 1463.98 Q1908.67 1465.49 1911.7 1465.49 Q1914.71 1465.49 1916.4 1463.98 Q1918.11 1462.48 1918.11 1459.79 Q1918.11 1457.11 1916.4 1455.6 Q1914.71 1454.1 1911.7 1454.1 Q1908.67 1454.1 1906.98 1455.6 Q1905.31 1457.11 1905.31 1459.79 Z" fill="#000000" fill-rule="nonzero" fill-opacity="1" /><path clip-path="url(#clip490)" d="M2327.44 1481.64 L2335.08 1481.64 L2335.08 1455.28 L2326.77 1456.95 L2326.77 1452.69 L2335.04 1451.02 L2339.71 1451.02 L2339.71 1481.64 L2347.35 1481.64 L2347.35 1485.58 L2327.44 1485.58 L2327.44 1481.64 Z" fill="#000000" fill-rule="nonzero" fill-opacity="1" /><path clip-path="url(#clip490)" d="M2366.8 1454.1 Q2363.18 1454.1 2361.36 1457.66 Q2359.55 1461.2 2359.55 1468.33 Q2359.55 1475.44 2361.36 1479.01 Q2363.18 1482.55 2366.8 1482.55 Q2370.43 1482.55 2372.23 1479.01 Q2374.06 1475.44 2374.06 1468.33 Q2374.06 1461.2 2372.23 1457.66 Q2370.43 1454.1 2366.8 1454.1 M2366.8 1450.39 Q2372.61 1450.39 2375.66 1455 Q2378.74 1459.58 2378.74 1468.33 Q2378.74 1477.06 2375.66 1481.67 Q2372.61 1486.25 2366.8 1486.25 Q2360.99 1486.25 2357.91 1481.67 Q2354.85 1477.06 2354.85 1468.33 Q2354.85 1459.58 2357.91 1455 Q2360.99 1450.39 2366.8 1450.39 Z" fill="#000000" fill-rule="nonzero" fill-opacity="1" /><path clip-path="url(#clip490)" d="M1249.18 1522.27 L1249.18 1532.4 L1261.24 1532.4 L1261.24 1536.95 L1249.18 1536.95 L1249.18 1556.3 Q1249.18 1560.66 1250.36 1561.9 Q1251.57 1563.14 1255.23 1563.14 L1261.24 1563.14 L1261.24 1568.04 L1255.23 1568.04 Q1248.45 1568.04 1245.87 1565.53 Q1243.29 1562.98 1243.29 1556.3 L1243.29 1536.95 L1238.99 1536.95 L1238.99 1532.4 L1243.29 1532.4 L1243.29 1522.27 L1249.18 1522.27 Z" fill="#000000" fill-rule="nonzero" fill-opacity="1" /><polyline clip-path="url(#clip490)" style="stroke:#000000; stroke-linecap:round; stroke-linejoin:round; stroke-width:4; stroke-opacity:1; fill:none" points="147.478,1423.18 147.478,47.2441 "/>
<polyline clip-path="url(#clip490)" style="stroke:#000000; stroke-linecap:round; stroke-linejoin:round; stroke-width:4; stroke-opacity:1; fill:none" points="147.478,1392.93 166.376,1392.93 "/>
<polyline clip-path="url(#clip490)" style="stroke:#000000; stroke-linecap:round; stroke-linejoin:round; stroke-width:4; stroke-opacity:1; fill:none" points="147.478,1165 166.376,1165 "/>
<polyline clip-path="url(#clip490)" style="stroke:#000000; stroke-linecap:round; stroke-linejoin:round; stroke-width:4; stroke-opacity:1; fill:none" points="147.478,937.061 166.376,937.061 "/>
<polyline clip-path="url(#clip490)" style="stroke:#000000; stroke-linecap:round; stroke-linejoin:round; stroke-width:4; stroke-opacity:1; fill:none" points="147.478,709.126 166.376,709.126 "/>
<polyline clip-path="url(#clip490)" style="stroke:#000000; stroke-linecap:round; stroke-linejoin:round; stroke-width:4; stroke-opacity:1; fill:none" points="147.478,481.191 166.376,481.191 "/>
<polyline clip-path="url(#clip490)" style="stroke:#000000; stroke-linecap:round; stroke-linejoin:round; stroke-width:4; stroke-opacity:1; fill:none" points="147.478,253.256 166.376,253.256 "/>
<path clip-path="url(#clip490)" d="M51.3625 1393.38 L81.0383 1393.38 L81.0383 1397.32 L51.3625 1397.32 L51.3625 1393.38 Z" fill="#000000" fill-rule="nonzero" fill-opacity="1" /><path clip-path="url(#clip490)" d="M95.1586 1406.28 L111.478 1406.28 L111.478 1410.21 L89.5336 1410.21 L89.5336 1406.28 Q92.1956 1403.52 96.7789 1398.89 Q101.385 1394.24 102.566 1392.9 Q104.811 1390.37 105.691 1388.64 Q106.594 1386.88 106.594 1385.19 Q106.594 1382.43 104.649 1380.7 Q102.728 1378.96 99.6261 1378.96 Q97.4271 1378.96 94.9734 1379.73 Q92.5428 1380.49 89.7651 1382.04 L89.7651 1377.32 Q92.5891 1376.18 95.0428 1375.61 Q97.4965 1375.03 99.5335 1375.03 Q104.904 1375.03 108.098 1377.71 Q111.293 1380.4 111.293 1384.89 Q111.293 1387.02 110.483 1388.94 Q109.696 1390.84 107.589 1393.43 Q107.01 1394.1 103.909 1397.32 Q100.807 1400.51 95.1586 1406.28 Z" fill="#000000" fill-rule="nonzero" fill-opacity="1" /><path clip-path="url(#clip490)" d="M50.9921 1165.45 L80.6679 1165.45 L80.6679 1169.38 L50.9921 1169.38 L50.9921 1165.45 Z" fill="#000000" fill-rule="nonzero" fill-opacity="1" /><path clip-path="url(#clip490)" d="M91.5706 1178.34 L99.2095 1178.34 L99.2095 1151.98 L90.8993 1153.64 L90.8993 1149.38 L99.1632 1147.72 L103.839 1147.72 L103.839 1178.34 L111.478 1178.34 L111.478 1182.28 L91.5706 1182.28 L91.5706 1178.34 Z" fill="#000000" fill-rule="nonzero" fill-opacity="1" /><path clip-path="url(#clip490)" d="M99.5335 922.86 Q95.9224 922.86 94.0937 926.425 Q92.2882 929.967 92.2882 937.096 Q92.2882 944.203 94.0937 947.767 Q95.9224 951.309 99.5335 951.309 Q103.168 951.309 104.973 947.767 Q106.802 944.203 106.802 937.096 Q106.802 929.967 104.973 926.425 Q103.168 922.86 99.5335 922.86 M99.5335 919.156 Q105.344 919.156 108.399 923.763 Q111.478 928.346 111.478 937.096 Q111.478 945.823 108.399 950.429 Q105.344 955.013 99.5335 955.013 Q93.7234 955.013 90.6447 950.429 Q87.5892 945.823 87.5892 937.096 Q87.5892 928.346 90.6447 923.763 Q93.7234 919.156 99.5335 919.156 Z" fill="#000000" fill-rule="nonzero" fill-opacity="1" /><path clip-path="url(#clip490)" d="M91.5706 722.471 L99.2095 722.471 L99.2095 696.106 L90.8993 697.772 L90.8993 693.513 L99.1632 691.846 L103.839 691.846 L103.839 722.471 L111.478 722.471 L111.478 726.406 L91.5706 726.406 L91.5706 722.471 Z" fill="#000000" fill-rule="nonzero" fill-opacity="1" /><path clip-path="url(#clip490)" d="M95.1586 494.536 L111.478 494.536 L111.478 498.471 L89.5336 498.471 L89.5336 494.536 Q92.1956 491.782 96.7789 487.152 Q101.385 482.499 102.566 481.157 Q104.811 478.634 105.691 476.897 Q106.594 475.138 106.594 473.448 Q106.594 470.694 104.649 468.958 Q102.728 467.222 99.6261 467.222 Q97.4271 467.222 94.9734 467.986 Q92.5428 468.749 89.7651 470.3 L89.7651 465.578 Q92.5891 464.444 95.0428 463.865 Q97.4965 463.286 99.5335 463.286 Q104.904 463.286 108.098 465.972 Q111.293 468.657 111.293 473.148 Q111.293 475.277 110.483 477.198 Q109.696 479.097 107.589 481.689 Q107.01 482.36 103.909 485.578 Q100.807 488.772 95.1586 494.536 Z" fill="#000000" fill-rule="nonzero" fill-opacity="1" /><path clip-path="url(#clip490)" d="M104.348 251.902 Q107.705 252.62 109.58 254.888 Q111.478 257.157 111.478 260.49 Q111.478 265.606 107.959 268.407 Q104.441 271.208 97.9595 271.208 Q95.7836 271.208 93.4688 270.768 Q91.1771 270.351 88.7234 269.495 L88.7234 264.981 Q90.6678 266.115 92.9826 266.694 Q95.2974 267.273 97.8206 267.273 Q102.219 267.273 104.51 265.536 Q106.825 263.8 106.825 260.49 Q106.825 257.435 104.672 255.722 Q102.543 253.986 98.7234 253.986 L94.6956 253.986 L94.6956 250.143 L98.9085 250.143 Q102.358 250.143 104.186 248.777 Q106.015 247.388 106.015 244.796 Q106.015 242.134 104.117 240.722 Q102.242 239.287 98.7234 239.287 Q96.8021 239.287 94.603 239.703 Q92.4039 240.12 89.7651 241 L89.7651 236.833 Q92.4271 236.092 94.7419 235.722 Q97.0798 235.351 99.14 235.351 Q104.464 235.351 107.566 237.782 Q110.668 240.189 110.668 244.31 Q110.668 247.18 109.024 249.171 Q107.381 251.138 104.348 251.902 Z" fill="#000000" fill-rule="nonzero" fill-opacity="1" /><polyline clip-path="url(#clip492)" style="stroke:#009af9; stroke-linecap:round; stroke-linejoin:round; stroke-width:8; stroke-opacity:1; fill:none" points="147.478,891.474 147.703,889.205 147.918,888.936 148.161,890.689 148.433,891.413 148.74,892.643 149.086,891.757 149.474,891.725 149.911,895.002 150.403,895.934 150.956,896.703 151.578,896.237 152.278,896.119 153.065,898.944 153.951,898.555 154.948,895.485 156.069,894.036 157.331,893.459 158.75,891.427 160.346,890.585 162.142,886.159 164.163,893.398 166.436,887.398 168.993,890.216 171.87,881.621 175.106,889.765 178.747,875.958 182.844,865.276 187.452,873.417 192.359,867.339 197.879,867.714 204.089,850.956 211.076,855.324 217.972,844.55 225.731,834.653 234.279,845.639 242.852,842.732 252.496,859.925 261.434,852.301 271.489,853.625 280.855,853.645 291.39,846.723 303.087,833.01 315.24,789.396 327.79,823.293 336.916,829.737 347.183,793.406 358.733,818.789 367.577,802.916 377.526,843.344 386.448,869.589 396.484,870.244 407.775,899.263 420.477,894.263 434.767,892.658 449.01,859.778 465.033,873.902 476.595,862.507 489.602,859.037 501.618,850.526 514.499,861.736 525.895,865.691 538.445,865.171 551.757,867.968 564.651,852.609 579.156,811.939 589.245,708.573 597.6,706.839 605.084,779.156 612.51,795.602 620.101,820.954 627.544,840.477 629.348,841.648 637.296,888.567 646.237,889.731 656.169,910.479 667.342,891.949 679.911,881.544 681.063,883.865 682.358,908.435 683.815,903.027 685.454,906.958 687.298,907.386 689.373,904.104 691.707,900.735 694.332,896.786 697.286,893.544 700.609,892.206 704.348,887.023 708.553,881.263 713.285,875.039 718.608,865.504 724.596,871.335 730.841,866.955 737.867,861.656 745.603,851.695 754.145,851.977 762.499,852.338 762.557,851.988 771.553,866.103 781.674,867.996 791.331,839.093 802.195,844.512 810.975,833.458 820.852,833.508 830.095,819.027 840.493,807.878 851.049,810.228 861.171,810.776 871.811,805.29 882.844,837.22 892.133,861.427 902.584,846.528 914.34,847.729 924.321,856.128 934.583,822.934 946.128,814.082 956.727,817.63 966.681,834.009 976.21,804.697 986.929,795.398 996.608,775.116 1006.69,735.747 1016.58,656.058 1025.61,498.222 1031.72,549.169 1037.21,559.963 1042.67,602.671 1047.75,574.793 1053.03,640.476 1057.78,562.156 1062.92,559.409 1067.37,557.718 1071.79,616.336 1075.97,530.768 1080.28,585.447 1084.09,578.321 1088.13,534.351 1091.93,524.573 1092.55,506.957 1096.08,694.312 1100.05,732.203 1103.84,736.337 1108.1,687.3 1112.89,709.888 1117.34,742.429 1122.35,783.497 1127.62,806.582 1133.55,788.525 1140.22,823.898 1146.27,826.153 1153.07,807.237 1160.73,822.206 1167.39,807.639 1174.89,806.529 1182.51,838.52 1190.09,828.746 1198.61,789.079 1208.18,826.356 1215.26,783.427 1223.23,796.102 1229.78,749.168 1237.15,751.584 1243.75,763.054 1250.93,734.487 1259,703.066 1266.84,711.589 1273.82,690.943 1281.67,647.751 1289.13,667.454 1295.65,688.58 1302.21,698.903 1308.76,683.969 1315.71,741.212 1321.89,673.231 1328.84,636.659 1335.02,636.624 1340.87,554.135 1346.75,608.225 1351.71,566.701 1357.1,571.393 1361.87,616.311 1366.54,657.499 1371.24,650.7 1376.14,700.576 1380.79,678.314 1385.98,685.915 1390.77,717.58 1395.61,745.484 1400.65,746.11 1406.05,719.768 1411.55,644.486 1416.51,593.593 1421.73,761.739 1427.6,735.846 1434.21,757.665 1440.02,774.206 1446.44,793.101 1453.2,812.224 1460.46,816.739 1468.62,815.61 1477.17,813.894 1486.79,837.628 1495.15,833.47 1504.55,789.307 1515.12,854.335 1527.02,867.785 1536.08,826.022 1546.27,800.433 1557.61,721.067 1567.25,754.118 1574.45,761.122 1582.54,727.265 1591.36,734.185 1599.14,778.551 1607.14,744.254 1616.13,687.405 1625.19,678.324 1632.74,689.395 1639.87,700.154 1647.65,711.171 1655.05,614.844 1663.39,664.516 1669.57,675.67 1676.54,683.326 1683.36,734.911 1689.96,751.698 1696.95,735.267 1704.82,760.572 1711.85,724.91 1719.75,763.755 1726.15,785.886 1733.35,783.464 1741.4,734.643 1750.43,720.005 1758.31,691.475 1766.48,638.531 1774.35,572.562 1781.57,597.669 1787.74,540.607 1794.21,374.706 1799.07,259.492 1802.92,225.164 1806.45,268.016 1809.72,278.07 1812.91,148.818 1815.88,113.232 1818.57,174.891 1821.02,202.276 1823.44,249.353 1825.76,216.626 1828.03,86.1857 1830.13,160.634 1830.39,162.885 1832.32,556.362 1834.5,637.761 1835.77,653.264 1838.16,798.905 1840.84,800.751 1843.87,775.597 1847.27,800.906 1850.72,797.522 1854.6,775.849 1858.97,784.957 1863.33,760.179 1868.23,791.748 1872.69,763.283 1877.7,725.267 1883.33,697.041 1889.1,718.721 1894.62,690.285 1900.83,665.462 1907.11,746.698 1913.2,766.905 1919.73,765.336 1926.98,737.376 1935.13,663.781 1943.21,675.353 1949.85,703.083 1956.61,718.309 1963.39,726.419 1970.51,730.729 1977.83,790.903 1985.13,751.878 1993.33,747.189 2000.75,720.905 2008.99,660.204 2016.9,663.318 2023.74,652.572 2030.83,626.255 2037.67,662.133 2043.74,673.643 2050.05,599.668 2056.61,599.7 2062.19,568.833 2067.96,582.229 2073.09,575.716 2078.29,528.262 2083.28,544.592 2087.81,528.424 2092.33,553.835 2096.54,628.846 2100.78,609.494 2105.21,637.323 2109.39,608.371 2113.81,527.25 2117.9,527.479 2121.65,582.733 2125.27,600.746 2126.09,618.286 2129.78,806.193 2133.93,814.714 2138.6,806.233 2143.86,798.774 2149.49,781.602 2155.83,749.491 2162.44,759.835 2168.43,690.186 2175.18,723.167 2180.73,760.555 2186.86,810.828 2193.73,819.793 2201.02,796.866 2209.22,755.667 2217.01,743.582 2224.31,743.379 2231.33,751.996 2238.19,760.34 2245.1,806.293 2252.08,766.456 2259.93,779.972 2266.64,782.757 2273.91,804.301 2280.82,797.832 2288.57,782.94 2296.08,797.921 2298.43,800.642 2305.42,883.901 2313.29,889.467 2322.14,904.336 2332.09,911.8 2343.29,911.912 2352.76,905.635 "/>
<polyline clip-path="url(#clip492)" style="stroke:#e26f46; stroke-linecap:round; stroke-linejoin:round; stroke-width:8; stroke-opacity:1; fill:none" points="147.478,1136.18 147.703,1136.13 147.918,1136.08 148.161,1136.03 148.433,1135.98 148.74,1135.91 149.086,1135.84 149.474,1135.76 149.911,1135.68 150.403,1135.59 150.956,1135.48 151.578,1135.37 152.278,1135.24 153.065,1135.1 153.951,1134.95 154.948,1134.76 156.069,1134.55 157.331,1134.3 158.75,1134.01 160.346,1133.69 162.142,1133.29 164.163,1132.85 166.436,1132.37 168.993,1131.8 171.87,1131.14 175.106,1130.36 178.747,1129.41 182.844,1128.18 187.452,1126.78 192.359,1125.3 197.879,1123.62 204.089,1121.46 211.076,1118.67 217.972,1116.13 225.731,1112.77 234.279,1108.31 242.852,1104.56 252.496,1100.62 261.434,1097.17 271.489,1093.51 280.855,1089.83 291.39,1085.56 303.087,1080.52 315.24,1073.85 327.79,1066.43 336.916,1061.81 347.183,1056.16 358.733,1048.76 367.577,1043.53 377.526,1037.72 386.448,1034.43 396.484,1031.29 407.775,1028.9 420.477,1026.42 434.767,1023.62 449.01,1019.71 465.033,1014.65 476.595,1010.91 489.602,1006.4 501.618,1002.23 514.499,997.223 525.895,993.569 538.445,989.348 551.757,985.076 564.651,980.587 579.156,973.866 589.245,966.7 597.6,957.074 605.084,950.833 612.51,945.602 620.101,941.414 627.544,937.89 629.348,937.061 637.296,969.029 646.237,967.039 656.169,965.586 667.342,963.919 679.911,961.028 681.063,960.741 682.358,960.574 683.815,960.365 685.454,960.129 687.298,959.876 689.373,959.574 691.707,959.196 694.332,958.749 697.286,958.224 700.609,957.567 704.348,956.744 708.553,955.726 713.285,954.397 718.608,952.648 724.596,950.755 730.841,948.833 737.867,946.673 745.603,943.737 754.145,940.397 762.499,937.09 762.557,937.061 771.553,1196.21 781.674,1193.11 791.331,1189.44 802.195,1184.72 810.975,1181.29 820.852,1177.07 830.095,1172.46 840.493,1166.27 851.049,1159.53 861.171,1153.3 871.811,1146.81 882.844,1141.16 892.133,1137.64 902.584,1133.58 914.34,1128.99 924.321,1125.52 934.583,1120.96 946.128,1113.96 956.727,1108.08 966.681,1103.27 976.21,1097.87 986.929,1090.73 996.608,1084.48 1006.69,1076.87 1016.58,1065.76 1025.61,1050.92 1031.72,1038.69 1037.21,1029.43 1042.67,1020.89 1047.75,1012.62 1053.03,1004.31 1057.78,996.954 1062.92,988.087 1067.37,980.558 1071.79,973.336 1075.97,966.123 1080.28,958.581 1084.09,952.743 1088.13,945.744 1091.93,938.345 1092.55,937.061 1096.08,1248.03 1100.05,1244.18 1103.84,1240.73 1108.1,1236.41 1112.89,1231.01 1117.34,1226.61 1122.35,1222.95 1127.62,1219.3 1133.55,1215.15 1140.22,1210.96 1146.27,1207.92 1153.07,1204.18 1160.73,1199.89 1167.39,1195.94 1174.89,1191.03 1182.51,1186.77 1190.09,1182.94 1198.61,1178.03 1208.18,1172.89 1215.26,1168.57 1223.23,1163.37 1229.78,1158.64 1237.15,1152.09 1243.75,1146.11 1250.93,1140.16 1259,1131.9 1266.84,1123.78 1273.82,1115.87 1281.67,1105.73 1289.13,1096.02 1295.65,1088.6 1302.21,1081.79 1308.76,1074.24 1315.71,1067.21 1321.89,1060.36 1328.84,1051.02 1335.02,1042.16 1340.87,1033.34 1346.75,1023.87 1351.71,1015.71 1357.1,1006.77 1361.87,999.059 1366.54,992.756 1371.24,986.128 1376.14,980.652 1380.79,975.122 1385.98,969.272 1390.77,964.546 1395.61,960.123 1400.65,955.696 1406.05,950.438 1411.55,944.496 1416.51,937.061 1421.73,1384.24 1427.6,1379.17 1434.21,1373.22 1440.02,1368.94 1446.44,1364.55 1453.2,1360.47 1460.46,1356.45 1468.62,1352.32 1477.17,1347.44 1486.79,1342.71 1495.15,1338.91 1504.55,1333.47 1515.12,1328.12 1527.02,1324.38 1536.08,1320.64 1546.27,1314.77 1557.61,1306.09 1567.25,1298.21 1574.45,1292.06 1582.54,1285.99 1591.36,1277.68 1599.14,1270.71 1607.14,1264.52 1616.13,1255.53 1625.19,1245.85 1632.74,1238.5 1639.87,1230.16 1647.65,1221.97 1655.05,1212.32 1663.39,1201.48 1669.57,1193.87 1676.54,1185.46 1683.36,1178.07 1689.96,1172.53 1696.95,1166.12 1704.82,1158.54 1711.85,1152.47 1719.75,1145.54 1726.15,1140.96 1733.35,1136.07 1741.4,1129.59 1750.43,1120.96 1758.31,1113.21 1766.48,1103.15 1774.35,1091.31 1781.57,1079.56 1787.74,1068.76 1794.21,1055.59 1799.07,1042.14 1802.92,1029.33 1806.45,1018.2 1809.72,1008.71 1812.91,998.501 1815.88,988.163 1818.57,977.877 1821.02,969.314 1823.44,961.548 1825.76,954.029 1828.03,945.874 1830.13,937.932 1830.39,937.061 1832.32,942.047 1834.5,938.732 1835.77,937.061 1838.16,1271.41 1840.84,1269.68 1843.87,1267.66 1847.27,1265.44 1850.72,1263.24 1854.6,1260.57 1858.97,1257.5 1863.33,1254.22 1868.23,1250.81 1872.69,1247.65 1877.7,1243.15 1883.33,1237.49 1889.1,1231.04 1894.62,1224.89 1900.83,1216.97 1907.11,1210.76 1913.2,1205.8 1919.73,1200.97 1926.98,1194.75 1935.13,1185.84 1943.21,1176.32 1949.85,1169.14 1956.61,1162.77 1963.39,1156.24 1970.51,1149.29 1977.83,1143.63 1985.13,1137.94 1993.33,1130.36 2000.75,1123.09 2008.99,1113.93 2016.9,1103.87 2023.74,1095.15 2030.83,1085.53 2037.67,1076.35 2043.74,1069.38 2050.05,1060.62 2056.61,1051.5 2062.19,1042.82 2067.96,1034.03 2073.09,1025.43 2078.29,1016.37 2083.28,1007.64 2087.81,999.283 2092.33,991.291 2096.54,984.532 2100.78,977.898 2105.21,971.545 2109.39,965.697 2113.81,958.392 2117.9,951.12 2121.65,944.129 2125.27,938.173 2126.09,937.061 2129.78,1064.7 2133.93,1062.19 2138.6,1059.45 2143.86,1056.47 2149.49,1052.72 2155.83,1047.97 2162.44,1042.6 2168.43,1036.81 2175.18,1029.93 2180.73,1025.03 2186.86,1020.66 2193.73,1016.84 2201.02,1012.3 2209.22,1005.71 2217.01,998.192 2224.31,992.006 2231.33,986.1 2238.19,980.251 2245.1,975.139 2252.08,970.659 2259.93,963.683 2266.64,958.564 2273.91,953.505 2280.82,949.19 2288.57,943.63 2296.08,938.537 2298.43,937.061 2305.42,1235.69 2313.29,1233.88 2322.14,1232.34 2332.09,1231.11 2343.29,1229.72 2352.76,1228.63 "/>
<path clip-path="url(#clip490)" d="M220.987 248.629 L530.612 248.629 L530.612 93.1086 L220.987 93.1086  Z" fill="#ffffff" fill-rule="evenodd" fill-opacity="1"/>
<polyline clip-path="url(#clip490)" style="stroke:#000000; stroke-linecap:round; stroke-linejoin:round; stroke-width:4; stroke-opacity:1; fill:none" points="220.987,248.629 530.612,248.629 530.612,93.1086 220.987,93.1086 220.987,248.629 "/>
<polyline clip-path="url(#clip490)" style="stroke:#009af9; stroke-linecap:round; stroke-linejoin:round; stroke-width:8; stroke-opacity:1; fill:none" points="245.49,144.949 392.509,144.949 "/>
<path clip-path="url(#clip490)" d="M417.012 151.997 L417.012 136.303 L421.271 136.303 L421.271 151.835 Q421.271 155.516 422.706 157.368 Q424.141 159.196 427.012 159.196 Q430.461 159.196 432.452 156.997 Q434.466 154.798 434.466 151.002 L434.466 136.303 L438.725 136.303 L438.725 162.229 L434.466 162.229 L434.466 158.247 Q432.915 160.608 430.854 161.766 Q428.817 162.9 426.109 162.9 Q421.641 162.9 419.327 160.122 Q417.012 157.344 417.012 151.997 M427.729 135.678 L427.729 135.678 Z" fill="#000000" fill-rule="nonzero" fill-opacity="1" /><path clip-path="url(#clip490)" d="M447.104 126.21 L456.919 126.21 L456.919 129.52 L451.364 129.52 L451.364 165.168 L456.919 165.168 L456.919 168.479 L447.104 168.479 L447.104 126.21 Z" fill="#000000" fill-rule="nonzero" fill-opacity="1" /><path clip-path="url(#clip490)" d="M467.405 158.293 L475.044 158.293 L475.044 131.928 L466.734 133.595 L466.734 129.335 L474.998 127.669 L479.674 127.669 L479.674 158.293 L487.312 158.293 L487.312 162.229 L467.405 162.229 L467.405 158.293 Z" fill="#000000" fill-rule="nonzero" fill-opacity="1" /><path clip-path="url(#clip490)" d="M506.109 126.21 L506.109 168.479 L496.294 168.479 L496.294 165.168 L501.826 165.168 L501.826 129.52 L496.294 129.52 L496.294 126.21 L506.109 126.21 Z" fill="#000000" fill-rule="nonzero" fill-opacity="1" /><polyline clip-path="url(#clip490)" style="stroke:#e26f46; stroke-linecap:round; stroke-linejoin:round; stroke-width:8; stroke-opacity:1; fill:none" points="245.49,196.789 392.509,196.789 "/>
<path clip-path="url(#clip490)" d="M417.012 203.837 L417.012 188.143 L421.271 188.143 L421.271 203.675 Q421.271 207.356 422.706 209.208 Q424.141 211.036 427.012 211.036 Q430.461 211.036 432.452 208.837 Q434.466 206.638 434.466 202.842 L434.466 188.143 L438.725 188.143 L438.725 214.069 L434.466 214.069 L434.466 210.087 Q432.915 212.448 430.854 213.606 Q428.817 214.74 426.109 214.74 Q421.641 214.74 419.327 211.962 Q417.012 209.184 417.012 203.837 M427.729 187.518 L427.729 187.518 Z" fill="#000000" fill-rule="nonzero" fill-opacity="1" /><path clip-path="url(#clip490)" d="M447.104 178.05 L456.919 178.05 L456.919 181.36 L451.364 181.36 L451.364 217.008 L456.919 217.008 L456.919 220.319 L447.104 220.319 L447.104 178.05 Z" fill="#000000" fill-rule="nonzero" fill-opacity="1" /><path clip-path="url(#clip490)" d="M470.623 210.133 L486.942 210.133 L486.942 214.069 L464.998 214.069 L464.998 210.133 Q467.66 207.379 472.243 202.749 Q476.85 198.096 478.03 196.754 Q480.275 194.231 481.155 192.495 Q482.058 190.735 482.058 189.046 Q482.058 186.291 480.113 184.555 Q478.192 182.819 475.09 182.819 Q472.891 182.819 470.438 183.583 Q468.007 184.347 465.229 185.897 L465.229 181.175 Q468.053 180.041 470.507 179.462 Q472.961 178.884 474.998 178.884 Q480.368 178.884 483.562 181.569 Q486.757 184.254 486.757 188.745 Q486.757 190.874 485.947 192.796 Q485.16 194.694 483.053 197.286 Q482.475 197.958 479.373 201.175 Q476.271 204.37 470.623 210.133 Z" fill="#000000" fill-rule="nonzero" fill-opacity="1" /><path clip-path="url(#clip490)" d="M506.109 178.05 L506.109 220.319 L496.294 220.319 L496.294 217.008 L501.826 217.008 L501.826 181.36 L496.294 181.36 L496.294 178.05 L506.109 178.05 Z" fill="#000000" fill-rule="nonzero" fill-opacity="1" /></svg>
