<?xml version="1.0" encoding="utf-8"?>
<svg xmlns="http://www.w3.org/2000/svg" xmlns:xlink="http://www.w3.org/1999/xlink" width="600" height="400" viewBox="0 0 2400 1600">
<defs>
  <clipPath id="clip910">
    <rect x="0" y="0" width="2400" height="1600"/>
  </clipPath>
</defs>
<path clip-path="url(#clip910)" d="M0 1600 L2400 1600 L2400 0 L0 0  Z" fill="#ffffff" fill-rule="evenodd" fill-opacity="1"/>
<defs>
  <clipPath id="clip911">
    <rect x="480" y="0" width="1681" height="1600"/>
  </clipPath>
</defs>
<path clip-path="url(#clip910)" d="M184.191 1423.18 L2352.76 1423.18 L2352.76 47.2441 L184.191 47.2441  Z" fill="#ffffff" fill-rule="evenodd" fill-opacity="1"/>
<defs>
  <clipPath id="clip912">
    <rect x="184" y="47" width="2170" height="1377"/>
  </clipPath>
</defs>
<polyline clip-path="url(#clip912)" style="stroke:#000000; stroke-linecap:round; stroke-linejoin:round; stroke-width:2; stroke-opacity:0.1; fill:none" points="184.191,1423.18 184.191,47.2441 "/>
<polyline clip-path="url(#clip912)" style="stroke:#000000; stroke-linecap:round; stroke-linejoin:round; stroke-width:2; stroke-opacity:0.1; fill:none" points="617.904,1423.18 617.904,47.2441 "/>
<polyline clip-path="url(#clip912)" style="stroke:#000000; stroke-linecap:round; stroke-linejoin:round; stroke-width:2; stroke-opacity:0.1; fill:none" points="1051.62,1423.18 1051.62,47.2441 "/>
<polyline clip-path="url(#clip912)" style="stroke:#000000; stroke-linecap:round; stroke-linejoin:round; stroke-width:2; stroke-opacity:0.1; fill:none" points="1485.33,1423.18 1485.33,47.2441 "/>
<polyline clip-path="url(#clip912)" style="stroke:#000000; stroke-linecap:round; stroke-linejoin:round; stroke-width:2; stroke-opacity:0.1; fill:none" points="1919.04,1423.18 1919.04,47.2441 "/>
<polyline clip-path="url(#clip912)" style="stroke:#000000; stroke-linecap:round; stroke-linejoin:round; stroke-width:2; stroke-opacity:0.1; fill:none" points="2352.76,1423.18 2352.76,47.2441 "/>
<polyline clip-path="url(#clip912)" style="stroke:#000000; stroke-linecap:round; stroke-linejoin:round; stroke-width:2; stroke-opacity:0.1; fill:none" points="184.191,1384.24 2352.76,1384.24 "/>
<polyline clip-path="url(#clip912)" style="stroke:#000000; stroke-linecap:round; stroke-linejoin:round; stroke-width:2; stroke-opacity:0.1; fill:none" points="184.191,1113.81 2352.76,1113.81 "/>
<polyline clip-path="url(#clip912)" style="stroke:#000000; stroke-linecap:round; stroke-linejoin:round; stroke-width:2; stroke-opacity:0.1; fill:none" points="184.191,843.383 2352.76,843.383 "/>
<polyline clip-path="url(#clip912)" style="stroke:#000000; stroke-linecap:round; stroke-linejoin:round; stroke-width:2; stroke-opacity:0.1; fill:none" points="184.191,572.955 2352.76,572.955 "/>
<polyline clip-path="url(#clip912)" style="stroke:#000000; stroke-linecap:round; stroke-linejoin:round; stroke-width:2; stroke-opacity:0.1; fill:none" points="184.191,302.528 2352.76,302.528 "/>
<polyline clip-path="url(#clip910)" style="stroke:#000000; stroke-linecap:round; stroke-linejoin:round; stroke-width:4; stroke-opacity:1; fill:none" points="184.191,1423.18 2352.76,1423.18 "/>
<polyline clip-path="url(#clip910)" style="stroke:#000000; stroke-linecap:round; stroke-linejoin:round; stroke-width:4; stroke-opacity:1; fill:none" points="184.191,1423.18 184.191,1404.28 "/>
<polyline clip-path="url(#clip910)" style="stroke:#000000; stroke-linecap:round; stroke-linejoin:round; stroke-width:4; stroke-opacity:1; fill:none" points="617.904,1423.18 617.904,1404.28 "/>
<polyline clip-path="url(#clip910)" style="stroke:#000000; stroke-linecap:round; stroke-linejoin:round; stroke-width:4; stroke-opacity:1; fill:none" points="1051.62,1423.18 1051.62,1404.28 "/>
<polyline clip-path="url(#clip910)" style="stroke:#000000; stroke-linecap:round; stroke-linejoin:round; stroke-width:4; stroke-opacity:1; fill:none" points="1485.33,1423.18 1485.33,1404.28 "/>
<polyline clip-path="url(#clip910)" style="stroke:#000000; stroke-linecap:round; stroke-linejoin:round; stroke-width:4; stroke-opacity:1; fill:none" points="1919.04,1423.18 1919.04,1404.28 "/>
<polyline clip-path="url(#clip910)" style="stroke:#000000; stroke-linecap:round; stroke-linejoin:round; stroke-width:4; stroke-opacity:1; fill:none" points="2352.76,1423.18 2352.76,1404.28 "/>
<path clip-path="url(#clip910)" d="M184.191 1454.1 Q180.58 1454.1 178.751 1457.66 Q176.945 1461.2 176.945 1468.33 Q176.945 1475.44 178.751 1479.01 Q180.58 1482.55 184.191 1482.55 Q187.825 1482.55 189.63 1479.01 Q191.459 1475.44 191.459 1468.33 Q191.459 1461.2 189.63 1457.66 Q187.825 1454.1 184.191 1454.1 M184.191 1450.39 Q190.001 1450.39 193.056 1455 Q196.135 1459.58 196.135 1468.33 Q196.135 1477.06 193.056 1481.67 Q190.001 1486.25 184.191 1486.25 Q178.381 1486.25 175.302 1481.67 Q172.246 1477.06 172.246 1468.33 Q172.246 1459.58 175.302 1455 Q178.381 1450.39 184.191 1450.39 Z" fill="#000000" fill-rule="nonzero" fill-opacity="1" /><path clip-path="url(#clip910)" d="M612.557 1481.64 L628.876 1481.64 L628.876 1485.58 L606.932 1485.58 L606.932 1481.64 Q609.594 1478.89 614.177 1474.26 Q618.783 1469.61 619.964 1468.27 Q622.209 1465.74 623.089 1464.01 Q623.992 1462.25 623.992 1460.56 Q623.992 1457.8 622.047 1456.07 Q620.126 1454.33 617.024 1454.33 Q614.825 1454.33 612.371 1455.09 Q609.941 1455.86 607.163 1457.41 L607.163 1452.69 Q609.987 1451.55 612.441 1450.97 Q614.894 1450.39 616.932 1450.39 Q622.302 1450.39 625.496 1453.08 Q628.691 1455.77 628.691 1460.26 Q628.691 1462.39 627.881 1464.31 Q627.093 1466.2 624.987 1468.8 Q624.408 1469.47 621.306 1472.69 Q618.205 1475.88 612.557 1481.64 Z" fill="#000000" fill-rule="nonzero" fill-opacity="1" /><path clip-path="url(#clip910)" d="M1054.63 1455.09 L1042.82 1473.54 L1054.63 1473.54 L1054.63 1455.09 M1053.4 1451.02 L1059.28 1451.02 L1059.28 1473.54 L1064.21 1473.54 L1064.21 1477.43 L1059.28 1477.43 L1059.28 1485.58 L1054.63 1485.58 L1054.63 1477.43 L1039.02 1477.43 L1039.02 1472.92 L1053.4 1451.02 Z" fill="#000000" fill-rule="nonzero" fill-opacity="1" /><path clip-path="url(#clip910)" d="M1485.73 1466.44 Q1482.59 1466.44 1480.73 1468.59 Q1478.91 1470.74 1478.91 1474.49 Q1478.91 1478.22 1480.73 1480.39 Q1482.59 1482.55 1485.73 1482.55 Q1488.88 1482.55 1490.71 1480.39 Q1492.56 1478.22 1492.56 1474.49 Q1492.56 1470.74 1490.71 1468.59 Q1488.88 1466.44 1485.73 1466.44 M1495.02 1451.78 L1495.02 1456.04 Q1493.26 1455.21 1491.45 1454.77 Q1489.67 1454.33 1487.91 1454.33 Q1483.28 1454.33 1480.83 1457.45 Q1478.4 1460.58 1478.05 1466.9 Q1479.42 1464.89 1481.48 1463.82 Q1483.54 1462.73 1486.01 1462.73 Q1491.22 1462.73 1494.23 1465.9 Q1497.26 1469.05 1497.26 1474.49 Q1497.26 1479.82 1494.11 1483.03 Q1490.97 1486.25 1485.73 1486.25 Q1479.74 1486.25 1476.57 1481.67 Q1473.4 1477.06 1473.4 1468.33 Q1473.4 1460.14 1477.29 1455.28 Q1481.17 1450.39 1487.73 1450.39 Q1489.48 1450.39 1491.27 1450.74 Q1493.07 1451.09 1495.02 1451.78 Z" fill="#000000" fill-rule="nonzero" fill-opacity="1" /><path clip-path="url(#clip910)" d="M1919.04 1469.17 Q1915.71 1469.17 1913.79 1470.95 Q1911.89 1472.73 1911.89 1475.86 Q1911.89 1478.98 1913.79 1480.77 Q1915.71 1482.55 1919.04 1482.55 Q1922.38 1482.55 1924.3 1480.77 Q1926.22 1478.96 1926.22 1475.86 Q1926.22 1472.73 1924.3 1470.95 Q1922.4 1469.17 1919.04 1469.17 M1914.37 1467.18 Q1911.36 1466.44 1909.67 1464.38 Q1908 1462.32 1908 1459.35 Q1908 1455.21 1910.94 1452.8 Q1913.9 1450.39 1919.04 1450.39 Q1924.2 1450.39 1927.14 1452.8 Q1930.08 1455.21 1930.08 1459.35 Q1930.08 1462.32 1928.39 1464.38 Q1926.73 1466.44 1923.74 1467.18 Q1927.12 1467.96 1929 1470.26 Q1930.89 1472.55 1930.89 1475.86 Q1930.89 1480.88 1927.82 1483.57 Q1924.76 1486.25 1919.04 1486.25 Q1913.33 1486.25 1910.25 1483.57 Q1907.19 1480.88 1907.19 1475.86 Q1907.19 1472.55 1909.09 1470.26 Q1910.99 1467.96 1914.37 1467.18 M1912.65 1459.79 Q1912.65 1462.48 1914.32 1463.98 Q1916.01 1465.49 1919.04 1465.49 Q1922.05 1465.49 1923.74 1463.98 Q1925.45 1462.48 1925.45 1459.79 Q1925.45 1457.11 1923.74 1455.6 Q1922.05 1454.1 1919.04 1454.1 Q1916.01 1454.1 1914.32 1455.6 Q1912.65 1457.11 1912.65 1459.79 Z" fill="#000000" fill-rule="nonzero" fill-opacity="1" /><path clip-path="url(#clip910)" d="M2327.44 1481.64 L2335.08 1481.64 L2335.08 1455.28 L2326.77 1456.95 L2326.77 1452.69 L2335.04 1451.02 L2339.71 1451.02 L2339.71 1481.64 L2347.35 1481.64 L2347.35 1485.58 L2327.44 1485.58 L2327.44 1481.64 Z" fill="#000000" fill-rule="nonzero" fill-opacity="1" /><path clip-path="url(#clip910)" d="M2366.8 1454.1 Q2363.18 1454.1 2361.36 1457.66 Q2359.55 1461.2 2359.55 1468.33 Q2359.55 1475.44 2361.36 1479.01 Q2363.18 1482.55 2366.8 1482.55 Q2370.43 1482.55 2372.23 1479.01 Q2374.06 1475.44 2374.06 1468.33 Q2374.06 1461.2 2372.23 1457.66 Q2370.43 1454.1 2366.8 1454.1 M2366.8 1450.39 Q2372.61 1450.39 2375.66 1455 Q2378.74 1459.58 2378.74 1468.33 Q2378.74 1477.06 2375.66 1481.67 Q2372.61 1486.25 2366.8 1486.25 Q2360.99 1486.25 2357.91 1481.67 Q2354.85 1477.06 2354.85 1468.33 Q2354.85 1459.58 2357.91 1455 Q2360.99 1450.39 2366.8 1450.39 Z" fill="#000000" fill-rule="nonzero" fill-opacity="1" /><path clip-path="url(#clip910)" d="M1267.53 1522.27 L1267.53 1532.4 L1279.6 1532.4 L1279.6 1536.95 L1267.53 1536.95 L1267.53 1556.3 Q1267.53 1560.66 1268.71 1561.9 Q1269.92 1563.14 1273.58 1563.14 L1279.6 1563.14 L1279.6 1568.04 L1273.58 1568.04 Q1266.8 1568.04 1264.22 1565.53 Q1261.65 1562.98 1261.65 1556.3 L1261.65 1536.95 L1257.35 1536.95 L1257.35 1532.4 L1261.65 1532.4 L1261.65 1522.27 L1267.53 1522.27 Z" fill="#000000" fill-rule="nonzero" fill-opacity="1" /><polyline clip-path="url(#clip910)" style="stroke:#000000; stroke-linecap:round; stroke-linejoin:round; stroke-width:4; stroke-opacity:1; fill:none" points="184.191,1423.18 184.191,47.2441 "/>
<polyline clip-path="url(#clip910)" style="stroke:#000000; stroke-linecap:round; stroke-linejoin:round; stroke-width:4; stroke-opacity:1; fill:none" points="184.191,1384.24 203.088,1384.24 "/>
<polyline clip-path="url(#clip910)" style="stroke:#000000; stroke-linecap:round; stroke-linejoin:round; stroke-width:4; stroke-opacity:1; fill:none" points="184.191,1113.81 203.088,1113.81 "/>
<polyline clip-path="url(#clip910)" style="stroke:#000000; stroke-linecap:round; stroke-linejoin:round; stroke-width:4; stroke-opacity:1; fill:none" points="184.191,843.383 203.088,843.383 "/>
<polyline clip-path="url(#clip910)" style="stroke:#000000; stroke-linecap:round; stroke-linejoin:round; stroke-width:4; stroke-opacity:1; fill:none" points="184.191,572.955 203.088,572.955 "/>
<polyline clip-path="url(#clip910)" style="stroke:#000000; stroke-linecap:round; stroke-linejoin:round; stroke-width:4; stroke-opacity:1; fill:none" points="184.191,302.528 203.088,302.528 "/>
<path clip-path="url(#clip910)" d="M91.0151 1370.04 Q87.404 1370.04 85.5753 1373.6 Q83.7697 1377.14 83.7697 1384.27 Q83.7697 1391.38 85.5753 1394.94 Q87.404 1398.49 91.0151 1398.49 Q94.6493 1398.49 96.4548 1394.94 Q98.2835 1391.38 98.2835 1384.27 Q98.2835 1377.14 96.4548 1373.6 Q94.6493 1370.04 91.0151 1370.04 M91.0151 1366.33 Q96.8252 1366.33 99.8808 1370.94 Q102.959 1375.52 102.959 1384.27 Q102.959 1393 99.8808 1397.61 Q96.8252 1402.19 91.0151 1402.19 Q85.2049 1402.19 82.1262 1397.61 Q79.0707 1393 79.0707 1384.27 Q79.0707 1375.52 82.1262 1370.94 Q85.2049 1366.33 91.0151 1366.33 Z" fill="#000000" fill-rule="nonzero" fill-opacity="1" /><path clip-path="url(#clip910)" d="M111.177 1395.64 L116.061 1395.64 L116.061 1401.52 L111.177 1401.52 L111.177 1395.64 Z" fill="#000000" fill-rule="nonzero" fill-opacity="1" /><path clip-path="url(#clip910)" d="M136.246 1370.04 Q132.635 1370.04 130.807 1373.6 Q129.001 1377.14 129.001 1384.27 Q129.001 1391.38 130.807 1394.94 Q132.635 1398.49 136.246 1398.49 Q139.881 1398.49 141.686 1394.94 Q143.515 1391.38 143.515 1384.27 Q143.515 1377.14 141.686 1373.6 Q139.881 1370.04 136.246 1370.04 M136.246 1366.33 Q142.056 1366.33 145.112 1370.94 Q148.191 1375.52 148.191 1384.27 Q148.191 1393 145.112 1397.61 Q142.056 1402.19 136.246 1402.19 Q130.436 1402.19 127.357 1397.61 Q124.302 1393 124.302 1384.27 Q124.302 1375.52 127.357 1370.94 Q130.436 1366.33 136.246 1366.33 Z" fill="#000000" fill-rule="nonzero" fill-opacity="1" /><path clip-path="url(#clip910)" d="M86.0382 1127.16 L102.358 1127.16 L102.358 1131.09 L80.4133 1131.09 L80.4133 1127.16 Q83.0753 1124.4 87.6586 1119.77 Q92.2651 1115.12 93.4456 1113.78 Q95.691 1111.25 96.5706 1109.52 Q97.4734 1107.76 97.4734 1106.07 Q97.4734 1103.31 95.5289 1101.58 Q93.6076 1099.84 90.5058 1099.84 Q88.3067 1099.84 85.8531 1100.6 Q83.4225 1101.37 80.6447 1102.92 L80.6447 1098.2 Q83.4688 1097.06 85.9225 1096.48 Q88.3762 1095.91 90.4132 1095.91 Q95.7836 1095.91 98.978 1098.59 Q102.172 1101.28 102.172 1105.77 Q102.172 1107.9 101.362 1109.82 Q100.575 1111.72 98.4687 1114.31 Q97.89 1114.98 94.7882 1118.2 Q91.6864 1121.39 86.0382 1127.16 Z" fill="#000000" fill-rule="nonzero" fill-opacity="1" /><path clip-path="url(#clip910)" d="M112.172 1125.21 L117.057 1125.21 L117.057 1131.09 L112.172 1131.09 L112.172 1125.21 Z" fill="#000000" fill-rule="nonzero" fill-opacity="1" /><path clip-path="url(#clip910)" d="M127.288 1096.53 L145.644 1096.53 L145.644 1100.47 L131.57 1100.47 L131.57 1108.94 Q132.589 1108.59 133.607 1108.43 Q134.626 1108.24 135.644 1108.24 Q141.431 1108.24 144.811 1111.41 Q148.191 1114.59 148.191 1120 Q148.191 1125.58 144.718 1128.68 Q141.246 1131.76 134.927 1131.76 Q132.751 1131.76 130.482 1131.39 Q128.237 1131.02 125.83 1130.28 L125.83 1125.58 Q127.913 1126.72 130.135 1127.27 Q132.357 1127.83 134.834 1127.83 Q138.839 1127.83 141.177 1125.72 Q143.515 1123.61 143.515 1120 Q143.515 1116.39 141.177 1114.29 Q138.839 1112.18 134.834 1112.18 Q132.959 1112.18 131.084 1112.6 Q129.232 1113.01 127.288 1113.89 L127.288 1096.53 Z" fill="#000000" fill-rule="nonzero" fill-opacity="1" /><path clip-path="url(#clip910)" d="M81.0614 826.103 L99.4178 826.103 L99.4178 830.038 L85.3438 830.038 L85.3438 838.51 Q86.3623 838.163 87.3808 838.001 Q88.3993 837.816 89.4178 837.816 Q95.2049 837.816 98.5845 840.987 Q101.964 844.158 101.964 849.575 Q101.964 855.154 98.4919 858.256 Q95.0197 861.334 88.7003 861.334 Q86.5243 861.334 84.2558 860.964 Q82.0105 860.594 79.6031 859.853 L79.6031 855.154 Q81.6864 856.288 83.9086 856.844 Q86.1308 857.399 88.6077 857.399 Q92.6123 857.399 94.9502 855.293 Q97.2882 853.186 97.2882 849.575 Q97.2882 845.964 94.9502 843.858 Q92.6123 841.751 88.6077 841.751 Q86.7327 841.751 84.8577 842.168 Q83.0058 842.584 81.0614 843.464 L81.0614 826.103 Z" fill="#000000" fill-rule="nonzero" fill-opacity="1" /><path clip-path="url(#clip910)" d="M111.177 854.783 L116.061 854.783 L116.061 860.663 L111.177 860.663 L111.177 854.783 Z" fill="#000000" fill-rule="nonzero" fill-opacity="1" /><path clip-path="url(#clip910)" d="M136.246 829.182 Q132.635 829.182 130.807 832.747 Q129.001 836.288 129.001 843.418 Q129.001 850.524 130.807 854.089 Q132.635 857.631 136.246 857.631 Q139.881 857.631 141.686 854.089 Q143.515 850.524 143.515 843.418 Q143.515 836.288 141.686 832.747 Q139.881 829.182 136.246 829.182 M136.246 825.478 Q142.056 825.478 145.112 830.084 Q148.191 834.668 148.191 843.418 Q148.191 852.145 145.112 856.751 Q142.056 861.334 136.246 861.334 Q130.436 861.334 127.357 856.751 Q124.302 852.145 124.302 843.418 Q124.302 834.668 127.357 830.084 Q130.436 825.478 136.246 825.478 Z" fill="#000000" fill-rule="nonzero" fill-opacity="1" /><path clip-path="url(#clip910)" d="M80.8299 555.675 L103.052 555.675 L103.052 557.666 L90.5058 590.235 L85.6216 590.235 L97.4271 559.611 L80.8299 559.611 L80.8299 555.675 Z" fill="#000000" fill-rule="nonzero" fill-opacity="1" /><path clip-path="url(#clip910)" d="M112.172 584.356 L117.057 584.356 L117.057 590.235 L112.172 590.235 L112.172 584.356 Z" fill="#000000" fill-rule="nonzero" fill-opacity="1" /><path clip-path="url(#clip910)" d="M127.288 555.675 L145.644 555.675 L145.644 559.611 L131.57 559.611 L131.57 568.083 Q132.589 567.736 133.607 567.573 Q134.626 567.388 135.644 567.388 Q141.431 567.388 144.811 570.56 Q148.191 573.731 148.191 579.147 Q148.191 584.726 144.718 587.828 Q141.246 590.907 134.927 590.907 Q132.751 590.907 130.482 590.536 Q128.237 590.166 125.83 589.425 L125.83 584.726 Q127.913 585.86 130.135 586.416 Q132.357 586.972 134.834 586.972 Q138.839 586.972 141.177 584.865 Q143.515 582.759 143.515 579.147 Q143.515 575.536 141.177 573.43 Q138.839 571.323 134.834 571.323 Q132.959 571.323 131.084 571.74 Q129.232 572.157 127.288 573.036 L127.288 555.675 Z" fill="#000000" fill-rule="nonzero" fill-opacity="1" /><path clip-path="url(#clip910)" d="M51.6634 315.873 L59.3023 315.873 L59.3023 289.507 L50.9921 291.174 L50.9921 286.914 L59.256 285.248 L63.9319 285.248 L63.9319 315.873 L71.5707 315.873 L71.5707 319.808 L51.6634 319.808 L51.6634 315.873 Z" fill="#000000" fill-rule="nonzero" fill-opacity="1" /><path clip-path="url(#clip910)" d="M91.0151 288.326 Q87.404 288.326 85.5753 291.891 Q83.7697 295.433 83.7697 302.562 Q83.7697 309.669 85.5753 313.234 Q87.404 316.775 91.0151 316.775 Q94.6493 316.775 96.4548 313.234 Q98.2835 309.669 98.2835 302.562 Q98.2835 295.433 96.4548 291.891 Q94.6493 288.326 91.0151 288.326 M91.0151 284.623 Q96.8252 284.623 99.8808 289.229 Q102.959 293.813 102.959 302.562 Q102.959 311.289 99.8808 315.896 Q96.8252 320.479 91.0151 320.479 Q85.2049 320.479 82.1262 315.896 Q79.0707 311.289 79.0707 302.562 Q79.0707 293.813 82.1262 289.229 Q85.2049 284.623 91.0151 284.623 Z" fill="#000000" fill-rule="nonzero" fill-opacity="1" /><path clip-path="url(#clip910)" d="M111.177 313.928 L116.061 313.928 L116.061 319.808 L111.177 319.808 L111.177 313.928 Z" fill="#000000" fill-rule="nonzero" fill-opacity="1" /><path clip-path="url(#clip910)" d="M136.246 288.326 Q132.635 288.326 130.807 291.891 Q129.001 295.433 129.001 302.562 Q129.001 309.669 130.807 313.234 Q132.635 316.775 136.246 316.775 Q139.881 316.775 141.686 313.234 Q143.515 309.669 143.515 302.562 Q143.515 295.433 141.686 291.891 Q139.881 288.326 136.246 288.326 M136.246 284.623 Q142.056 284.623 145.112 289.229 Q148.191 293.813 148.191 302.562 Q148.191 311.289 145.112 315.896 Q142.056 320.479 136.246 320.479 Q130.436 320.479 127.357 315.896 Q124.302 311.289 124.302 302.562 Q124.302 293.813 127.357 289.229 Q130.436 284.623 136.246 284.623 Z" fill="#000000" fill-rule="nonzero" fill-opacity="1" /><polyline clip-path="url(#clip912)" style="stroke:#009af9; stroke-linecap:round; stroke-linejoin:round; stroke-width:8; stroke-opacity:1; fill:none" points="184.191,1384.24 185.224,1384.24 186.257,1384.24 187.29,1384.24 188.323,1384.24 189.356,1384.24 190.39,1384.24 191.423,1384.24 192.456,1384.24 193.489,1384.24 194.522,1384.24 195.555,1384.24 196.588,1384.24 197.622,1384.24 198.655,1384.24 199.688,1384.24 200.721,1384.24 201.754,1384.24 202.787,1384.24 203.82,1384.24 204.854,1384.24 205.887,1384.24 206.92,1384.24 207.953,1384.24 208.986,1384.24 210.019,1384.24 211.052,1384.24 212.086,1384.24 213.119,1384.24 214.152,1384.24 215.185,1384.24 216.218,1384.24 217.251,1384.24 218.284,1384.24 219.318,1384.24 220.351,1384.24 221.384,1384.24 222.417,1384.24 223.45,1384.24 224.483,1384.24 225.516,1384.24 226.55,1384.24 227.583,1384.24 228.616,1384.24 229.649,1384.24 230.682,1384.24 231.715,1384.24 232.748,1384.24 233.781,1384.24 234.815,1384.24 235.848,1384.24 236.881,1384.24 237.914,1384.24 238.947,1384.24 239.98,1384.24 241.013,1384.24 242.047,1384.24 243.08,1384.24 244.113,1384.24 245.146,1384.24 246.179,1384.24 247.212,1384.24 248.245,1384.24 249.279,1384.24 250.312,1384.24 251.345,1384.24 252.378,1384.24 253.411,1384.24 254.444,1384.24 255.477,1384.24 256.511,1384.24 257.544,1384.24 258.577,1384.24 259.61,1384.24 260.643,1384.24 261.676,1384.24 262.709,1384.24 263.743,1384.24 264.776,1384.24 265.809,1384.24 266.842,1384.24 267.875,1384.24 268.908,1384.24 269.941,1384.24 270.975,1384.24 272.008,1384.24 273.041,1384.24 274.074,1384.24 275.107,1384.24 276.14,1384.24 277.173,1384.24 278.207,1384.24 279.24,1384.24 280.273,1384.24 281.306,1384.24 282.339,1384.24 283.372,1384.24 284.405,1384.24 285.439,1384.24 286.472,1384.24 287.505,1384.24 288.538,1384.24 289.571,1384.24 290.604,1384.24 291.637,1384.24 292.671,1384.24 293.704,1384.24 294.737,1384.24 295.77,1384.24 296.803,1384.24 297.836,1384.24 298.869,1384.24 299.903,1384.24 300.936,1384.24 301.969,1384.24 303.002,1384.24 304.035,1384.24 305.068,1384.24 306.101,1384.24 307.135,1384.24 308.168,1384.24 309.201,1384.24 310.234,1384.24 311.267,1384.24 312.3,1384.24 313.333,1384.24 314.367,1384.24 315.4,1384.24 316.433,1384.24 317.466,1384.24 318.499,1384.24 319.532,1384.24 320.565,1384.24 321.599,1384.24 322.632,1384.24 323.665,1384.24 324.698,1384.24 325.731,1384.24 326.764,1384.24 327.797,1384.24 328.831,1384.24 329.864,1384.24 330.897,1384.24 331.93,1384.24 332.963,1384.24 333.996,1384.24 335.029,1384.24 336.063,1384.24 337.096,1384.24 338.129,1384.24 339.162,1384.24 340.195,1384.24 341.228,1384.24 342.261,1384.24 343.295,1384.24 344.328,1384.24 345.361,1384.24 346.394,1384.24 347.427,1384.24 348.46,1384.24 349.493,1384.24 350.527,1384.24 351.56,1384.24 352.593,1384.24 353.626,1384.24 354.659,1384.24 355.692,1384.24 356.725,1384.24 357.759,1384.24 358.792,1384.24 359.825,1384.24 360.858,1384.24 361.891,1384.24 362.924,1384.24 363.957,1384.24 364.991,1384.24 366.024,1384.24 367.057,1384.24 368.09,1384.24 369.123,1384.24 370.156,1384.24 371.189,1384.24 372.223,1384.24 373.256,1384.24 374.289,1384.24 375.322,1384.24 376.355,1384.24 377.388,1384.24 378.421,1384.24 379.455,1384.24 380.488,1384.24 381.521,1384.24 382.554,1384.24 383.587,1384.24 384.62,1384.24 385.653,1384.24 386.687,1384.24 387.72,1384.24 388.753,1384.24 389.786,1384.24 390.819,1384.24 391.852,1384.24 392.885,1384.24 393.919,1384.24 394.952,1384.24 395.985,1384.24 397.018,1384.24 398.051,1384.24 399.084,1384.24 400.117,1384.24 401.151,1384.24 402.184,1384.24 403.217,1384.24 404.25,1384.24 405.283,1384.24 406.316,1384.24 407.349,1384.24 408.383,1384.24 409.416,1384.24 410.449,1384.24 411.482,1384.24 412.515,1384.24 413.548,1384.24 414.581,1384.24 415.615,1384.24 416.648,1384.24 417.681,1384.24 418.714,1384.24 419.747,1384.24 420.78,1384.24 421.813,1384.24 422.846,1384.24 423.88,1384.24 424.913,1384.24 425.946,1384.24 426.979,1384.24 428.012,1384.24 429.045,1384.24 430.078,1384.24 431.112,1384.24 432.145,1384.24 433.178,1384.24 434.211,1384.24 435.244,1384.24 436.277,1384.24 437.31,1384.24 438.344,1384.24 439.377,1384.24 440.41,1384.24 441.443,1384.24 442.476,1384.24 443.509,1384.24 444.542,1384.24 445.576,1384.24 446.609,1384.24 447.642,1384.24 448.675,1384.24 449.708,1384.24 450.741,1384.24 451.774,1384.24 452.808,1384.24 453.841,1384.24 454.874,1384.24 455.907,1384.24 456.94,1384.24 457.973,1384.24 459.006,1384.24 460.04,1384.24 461.073,1384.24 462.106,1384.24 463.139,1384.24 464.172,1384.24 465.205,1384.24 466.238,1384.24 467.272,1384.24 468.305,1384.24 469.338,1384.24 470.371,1384.24 471.404,1384.24 472.437,1384.24 473.47,1384.24 474.504,1384.24 475.537,1384.24 476.57,1384.24 477.603,1384.24 478.636,1384.24 479.669,1384.24 480.702,1384.24 481.736,1384.24 482.769,1384.24 483.802,1384.24 484.835,1384.24 485.868,1384.24 486.901,1384.24 487.934,1384.24 488.968,1384.24 490.001,1384.24 491.034,1384.24 492.067,1384.24 493.1,1384.24 494.133,1384.24 495.166,1384.24 496.2,1384.24 497.233,1384.24 498.266,1384.24 499.299,1384.24 500.332,1384.24 501.365,1384.24 502.398,1384.24 503.432,1384.24 504.465,1384.24 505.498,1384.24 506.531,1384.24 507.564,1384.24 508.597,1384.24 509.63,1384.24 510.664,1384.24 511.697,1384.24 512.73,1384.24 513.763,1384.24 514.796,1384.24 515.829,1384.24 516.862,1384.24 517.896,1384.24 518.929,1384.24 519.962,1384.24 520.995,1384.24 522.028,1384.24 523.061,1384.24 524.094,1384.24 525.128,1384.24 526.161,1384.24 527.194,1384.24 528.227,1384.24 529.26,1384.24 530.293,1384.24 531.326,1384.24 532.36,1384.24 533.393,1384.24 534.426,1384.24 535.459,1384.24 536.492,1384.24 537.525,1384.24 538.558,1384.24 539.592,1384.24 540.625,1384.24 541.658,1384.24 542.691,1384.24 543.724,1384.24 544.757,1384.24 545.79,1384.24 546.824,1384.24 547.857,1384.24 548.89,1384.24 549.923,1384.24 550.956,1384.24 551.989,1384.24 553.022,1384.24 554.056,1384.24 555.089,1384.24 556.122,1384.24 557.155,1384.24 558.188,1384.24 559.221,1384.24 560.254,1384.24 561.288,1384.24 562.321,1384.24 563.354,1384.24 564.387,1384.24 565.42,1384.24 566.453,1384.24 567.486,1384.24 568.52,1384.24 569.553,1384.24 570.586,1384.24 571.619,1384.24 572.652,1384.24 573.685,1384.24 574.718,1384.24 575.752,1384.24 576.785,1384.24 577.818,1384.24 578.851,1384.24 579.884,1384.24 580.917,1384.24 581.95,1384.24 582.984,1384.24 584.017,1384.24 585.05,1384.24 586.083,1384.24 587.116,1384.24 588.149,1384.24 589.182,1384.24 590.216,1384.24 591.249,1384.24 592.282,1384.24 593.315,1384.24 594.348,1384.24 595.381,1384.24 596.414,1384.24 597.448,1384.24 598.481,1384.24 599.514,1384.24 600.547,1384.24 601.58,1384.24 602.613,1384.24 603.646,1384.24 604.68,1384.24 605.713,1384.24 606.746,1384.24 607.779,1384.24 608.812,1384.24 609.845,1384.24 610.878,1384.24 611.912,1384.24 612.945,1384.24 613.978,1384.24 615.011,1384.24 616.044,1384.24 617.077,1384.24 618.11,1384.24 619.143,1384.24 620.177,1384.24 621.21,1384.24 622.243,1384.24 623.276,1384.24 624.309,1384.24 625.342,1384.24 626.375,1384.24 627.409,1384.24 628.442,1384.24 629.475,1384.24 630.508,1384.24 631.541,1384.24 632.574,1384.24 633.607,1384.24 634.641,1384.24 635.674,1384.24 636.707,1384.24 637.74,1384.24 638.773,1384.24 639.806,1384.24 640.839,1384.24 641.873,1384.24 642.906,1384.24 643.939,1384.24 644.972,1384.24 646.005,1384.24 647.038,1384.24 648.071,1384.24 649.105,1384.24 650.138,1384.24 651.171,1384.24 652.204,1384.24 653.237,1384.24 654.27,1384.24 655.303,1384.24 656.337,1384.24 657.37,1384.24 658.403,1384.24 659.436,1384.24 660.469,1384.24 661.502,1384.24 662.535,1384.24 663.569,1384.24 664.602,1384.24 665.635,1384.24 666.668,1384.24 667.701,1384.24 668.734,1384.24 669.767,1384.24 670.801,1384.24 671.834,1384.24 672.867,1384.24 673.9,1384.24 674.933,1384.24 675.966,1384.24 676.999,1384.24 678.033,1384.24 679.066,1384.24 680.099,1384.24 681.132,1384.24 682.165,1384.24 683.198,1384.24 684.231,1384.24 685.265,1384.24 686.298,1384.24 687.331,1384.24 688.364,1384.24 689.397,1384.24 690.43,1384.24 691.463,1384.24 692.497,1384.24 693.53,1384.24 694.563,1384.24 695.596,1384.24 696.629,1384.24 697.662,1384.24 698.695,1384.24 699.729,1384.24 700.762,1384.24 701.795,1384.24 702.828,1384.24 703.861,1384.24 704.894,1384.24 705.927,1384.24 706.961,1384.24 707.994,1384.24 709.027,1384.24 710.06,1384.24 711.093,1384.24 712.126,1384.24 713.159,1384.24 714.193,1384.24 715.226,1384.24 716.259,1384.24 717.292,1384.24 718.325,1384.24 719.358,1384.24 720.391,1384.24 721.425,1384.24 722.458,1384.24 723.491,1384.24 724.524,1384.24 725.557,1384.24 726.59,1384.24 727.623,1384.24 728.657,1384.24 729.69,1384.24 730.723,1384.24 731.756,1384.24 732.789,1384.24 733.822,1384.24 734.855,1384.24 735.889,1384.24 736.922,1384.24 737.955,1384.24 738.988,1384.24 740.021,1384.24 741.054,1384.24 742.087,1384.24 743.121,1384.24 744.154,1384.24 745.187,1384.24 746.22,1384.24 747.253,1384.24 748.286,1384.24 749.319,1384.24 750.353,1384.24 751.386,1384.24 752.419,1384.24 753.452,1384.24 754.485,1384.24 755.518,1384.24 756.551,1384.24 757.585,1384.24 758.618,1384.24 759.651,1384.24 760.684,1384.24 761.717,1384.24 762.75,1384.24 763.783,1276.07 764.817,1276.07 765.85,1276.07 766.883,1276.07 767.916,1276.07 768.949,1276.07 769.982,1276.07 771.015,1276.07 772.049,1276.07 773.082,1276.07 774.115,1276.07 775.148,1276.07 776.181,1276.07 777.214,1276.07 778.247,1276.07 779.281,1276.07 780.314,1276.07 781.347,1276.07 782.38,1276.07 783.413,1276.07 784.446,1276.07 785.479,1276.07 786.513,1276.07 787.546,1276.07 788.579,1276.07 789.612,1276.07 790.645,1276.07 791.678,1276.07 792.711,1276.07 793.745,1276.07 794.778,1276.07 795.811,1276.07 796.844,1276.07 797.877,1276.07 798.91,1276.07 799.943,1276.07 800.977,1276.07 802.01,1276.07 803.043,1276.07 804.076,1276.07 805.109,1276.07 806.142,1276.07 807.175,1276.07 808.208,1276.07 809.242,1276.07 810.275,1276.07 811.308,1276.07 812.341,1276.07 813.374,1276.07 814.407,1276.07 815.44,1276.07 816.474,1276.07 817.507,1276.07 818.54,1276.07 819.573,1276.07 820.606,1276.07 821.639,1276.07 822.672,1276.07 823.706,1276.07 824.739,1276.07 825.772,1276.07 826.805,1276.07 827.838,1276.07 828.871,1276.07 829.904,1276.07 830.938,1276.07 831.971,1276.07 833.004,1276.07 834.037,1276.07 835.07,1276.07 836.103,1276.07 837.136,1276.07 838.17,1276.07 839.203,1276.07 840.236,1276.07 841.269,1276.07 842.302,1276.07 843.335,1276.07 844.368,1276.07 845.402,1276.07 846.435,1276.07 847.468,1276.07 848.501,1276.07 849.534,1276.07 850.567,1276.07 851.6,1276.07 852.634,1276.07 853.667,1276.07 854.7,1276.07 855.733,1276.07 856.766,1276.07 857.799,1276.07 858.832,1276.07 859.866,1276.07 860.899,1276.07 861.932,1276.07 862.965,1276.07 863.998,1276.07 865.031,1167.9 866.064,1167.9 867.098,1167.9 868.131,1167.9 869.164,1167.9 870.197,1167.9 871.23,1167.9 872.263,1167.9 873.296,1167.9 874.33,1167.9 875.363,1167.9 876.396,1167.9 877.429,1167.9 878.462,1167.9 879.495,1167.9 880.528,1167.9 881.562,1167.9 882.595,1167.9 883.628,1167.9 884.661,1167.9 885.694,1167.9 886.727,1167.9 887.76,1167.9 888.794,1167.9 889.827,1167.9 890.86,1167.9 891.893,1167.9 892.926,1167.9 893.959,1167.9 894.992,1167.9 896.026,1167.9 897.059,1167.9 898.092,1167.9 899.125,1167.9 900.158,1167.9 901.191,1167.9 902.224,1167.9 903.258,1167.9 904.291,1167.9 905.324,1167.9 906.357,1167.9 907.39,1167.9 908.423,1167.9 909.456,1167.9 910.49,1167.9 911.523,1167.9 912.556,1167.9 913.589,1167.9 914.622,1167.9 915.655,1167.9 916.688,1167.9 917.722,1167.9 918.755,1167.9 919.788,1167.9 920.821,1167.9 921.854,1167.9 922.887,1167.9 923.92,1167.9 924.954,1167.9 925.987,1167.9 927.02,1167.9 928.053,1167.9 929.086,1167.9 930.119,1167.9 931.152,1167.9 932.186,1167.9 933.219,1167.9 934.252,1167.9 935.285,1167.9 936.318,1167.9 937.351,1167.9 938.384,1167.9 939.418,1167.9 940.451,1167.9 941.484,1167.9 942.517,1167.9 943.55,1167.9 944.583,1167.9 945.616,1167.9 946.65,1167.9 947.683,1167.9 948.716,1167.9 949.749,1167.9 950.782,1167.9 951.815,1167.9 952.848,1167.9 953.882,1167.9 954.915,1167.9 955.948,1167.9 956.981,1167.9 958.014,1167.9 959.047,1167.9 960.08,1167.9 961.114,1167.9 962.147,1167.9 963.18,1167.9 964.213,1167.9 965.246,1167.9 966.279,1167.9 967.312,1167.9 968.346,1167.9 969.379,1167.9 970.412,1167.9 971.445,1167.9 972.478,1167.9 973.511,1167.9 974.544,1167.9 975.578,1167.9 976.611,1167.9 977.644,1167.9 978.677,1167.9 979.71,1167.9 980.743,1167.9 981.776,1167.9 982.81,1167.9 983.843,1167.9 984.876,1167.9 985.909,1167.9 986.942,1167.9 987.975,1167.9 989.008,1167.9 990.042,1167.9 991.075,1167.9 992.108,1167.9 993.141,1167.9 994.174,1167.9 995.207,1167.9 996.24,1167.9 997.273,1167.9 998.307,1167.9 999.34,1167.9 1000.37,1167.9 1001.41,1167.9 1002.44,1167.9 1003.47,1167.9 1004.51,1167.9 1005.54,1167.9 1006.57,1167.9 1007.6,1167.9 1008.64,1167.9 1009.67,1167.9 1010.7,1167.9 1011.74,1167.9 1012.77,1167.9 1013.8,1167.9 1014.84,1167.9 1015.87,1167.9 1016.9,1167.9 1017.94,1167.9 1018.97,1167.9 1020,1167.9 1021.04,1167.9 1022.07,1167.9 1023.1,1167.9 1024.14,1167.9 1025.17,1167.9 1026.2,1167.9 1027.23,1167.9 1028.27,1167.9 1029.3,1167.9 1030.33,1167.9 1031.37,1167.9 1032.4,1167.9 1033.43,1167.9 1034.47,1167.9 1035.5,1167.9 1036.53,1167.9 1037.57,1167.9 1038.6,1167.9 1039.63,1167.9 1040.67,1167.9 1041.7,1167.9 1042.73,1167.9 1043.76,1167.9 1044.8,1167.9 1045.83,1167.9 1046.86,1167.9 1047.9,1167.9 1048.93,1167.9 1049.96,1167.9 1051,1167.9 1052.03,1167.9 1053.06,1167.9 1054.1,1167.9 1055.13,1167.9 1056.16,1167.9 1057.2,1167.9 1058.23,1167.9 1059.26,1167.9 1060.3,1167.9 1061.33,1167.9 1062.36,1167.9 1063.39,1167.9 1064.43,1167.9 1065.46,1167.9 1066.49,1167.9 1067.53,1167.9 1068.56,1167.9 1069.59,1167.9 1070.63,1167.9 1071.66,1167.9 1072.69,1167.9 1073.73,1167.9 1074.76,1167.9 1075.79,1167.9 1076.83,1167.9 1077.86,1167.9 1078.89,1167.9 1079.92,1167.9 1080.96,1167.9 1081.99,1167.9 1083.02,1167.9 1084.06,1167.9 1085.09,1167.9 1086.12,1167.9 1087.16,1167.9 1088.19,1167.9 1089.22,1167.9 1090.26,1167.9 1091.29,1167.9 1092.32,1167.9 1093.36,1167.9 1094.39,1167.9 1095.42,1167.9 1096.46,1167.9 1097.49,1059.73 1098.52,1059.73 1099.55,1059.73 1100.59,1059.73 1101.62,1059.73 1102.65,1059.73 1103.69,1059.73 1104.72,1059.73 1105.75,1059.73 1106.79,1059.73 1107.82,1059.73 1108.85,1059.73 1109.89,1059.73 1110.92,1059.73 1111.95,1059.73 1112.99,1059.73 1114.02,1059.73 1115.05,1059.73 1116.08,1059.73 1117.12,1059.73 1118.15,1059.73 1119.18,1059.73 1120.22,1059.73 1121.25,1059.73 1122.28,1059.73 1123.32,1059.73 1124.35,1059.73 1125.38,1059.73 1126.42,1059.73 1127.45,1059.73 1128.48,1059.73 1129.52,1059.73 1130.55,1059.73 1131.58,1059.73 1132.62,1059.73 1133.65,1059.73 1134.68,1059.73 1135.71,1059.73 1136.75,1059.73 1137.78,1059.73 1138.81,1059.73 1139.85,1059.73 1140.88,1059.73 1141.91,1059.73 1142.95,1059.73 1143.98,1059.73 1145.01,1059.73 1146.05,1059.73 1147.08,1059.73 1148.11,1059.73 1149.15,1059.73 1150.18,1059.73 1151.21,1059.73 1152.24,1059.73 1153.28,1059.73 1154.31,1059.73 1155.34,1059.73 1156.38,1059.73 1157.41,1059.73 1158.44,1059.73 1159.48,1059.73 1160.51,1059.73 1161.54,1059.73 1162.58,1059.73 1163.61,1059.73 1164.64,1059.73 1165.68,1059.73 1166.71,1059.73 1167.74,1059.73 1168.78,1059.73 1169.81,1059.73 1170.84,1059.73 1171.87,1059.73 1172.91,1059.73 1173.94,1059.73 1174.97,1059.73 1176.01,1059.73 1177.04,1059.73 1178.07,1059.73 1179.11,1059.73 1180.14,1059.73 1181.17,1059.73 1182.21,1059.73 1183.24,1059.73 1184.27,1059.73 1185.31,1059.73 1186.34,1059.73 1187.37,1059.73 1188.4,1059.73 1189.44,1059.73 1190.47,1059.73 1191.5,1059.73 1192.54,1059.73 1193.57,1059.73 1194.6,1059.73 1195.64,1059.73 1196.67,1059.73 1197.7,1059.73 1198.74,1059.73 1199.77,1059.73 1200.8,1059.73 1201.84,1059.73 1202.87,1059.73 1203.9,1059.73 1204.94,1059.73 1205.97,1059.73 1207,1059.73 1208.03,1059.73 1209.07,1059.73 1210.1,1059.73 1211.13,1059.73 1212.17,1059.73 1213.2,1059.73 1214.23,1059.73 1215.27,1059.73 1216.3,1059.73 1217.33,1059.73 1218.37,1059.73 1219.4,1059.73 1220.43,1059.73 1221.47,1059.73 1222.5,1059.73 1223.53,1059.73 1224.56,1059.73 1225.6,1059.73 1226.63,1059.73 1227.66,1059.73 1228.7,1059.73 1229.73,1059.73 1230.76,1059.73 1231.8,1059.73 1232.83,1059.73 1233.86,1059.73 1234.9,1059.73 1235.93,1059.73 1236.96,1059.73 1238,1059.73 1239.03,1059.73 1240.06,1059.73 1241.1,1059.73 1242.13,1059.73 1243.16,1059.73 1244.19,1059.73 1245.23,1059.73 1246.26,1059.73 1247.29,1059.73 1248.33,1059.73 1249.36,1059.73 1250.39,1059.73 1251.43,1059.73 1252.46,1059.73 1253.49,1059.73 1254.53,1059.73 1255.56,1059.73 1256.59,1059.73 1257.63,1059.73 1258.66,1059.73 1259.69,1059.73 1260.72,1059.73 1261.76,1059.73 1262.79,1059.73 1263.82,1059.73 1264.86,1059.73 1265.89,1059.73 1266.92,1059.73 1267.96,1059.73 1268.99,1059.73 1270.02,1059.73 1271.06,1059.73 1272.09,1059.73 1273.12,1059.73 1274.16,1059.73 1275.19,1059.73 1276.22,1059.73 1277.26,1059.73 1278.29,1059.73 1279.32,1059.73 1280.35,1059.73 1281.39,1059.73 1282.42,1059.73 1283.45,1059.73 1284.49,1059.73 1285.52,1059.73 1286.55,1059.73 1287.59,1059.73 1288.62,1059.73 1289.65,1059.73 1290.69,1059.73 1291.72,1059.73 1292.75,1059.73 1293.79,1059.73 1294.82,1059.73 1295.85,1059.73 1296.88,1059.73 1297.92,1059.73 1298.95,1059.73 1299.98,1059.73 1301.02,1059.73 1302.05,1059.73 1303.08,1059.73 1304.12,1059.73 1305.15,1059.73 1306.18,1059.73 1307.22,1059.73 1308.25,1059.73 1309.28,1059.73 1310.32,1059.73 1311.35,1059.73 1312.38,1059.73 1313.41,1059.73 1314.45,1059.73 1315.48,1059.73 1316.51,1059.73 1317.55,1059.73 1318.58,1059.73 1319.61,1059.73 1320.65,1059.73 1321.68,1059.73 1322.71,1059.73 1323.75,1059.73 1324.78,1059.73 1325.81,1059.73 1326.85,1059.73 1327.88,1059.73 1328.91,1059.73 1329.95,1059.73 1330.98,1059.73 1332.01,1059.73 1333.04,1059.73 1334.08,1059.73 1335.11,1059.73 1336.14,1059.73 1337.18,1059.73 1338.21,1059.73 1339.24,1059.73 1340.28,1059.73 1341.31,1059.73 1342.34,1059.73 1343.38,1059.73 1344.41,1059.73 1345.44,1059.73 1346.48,1059.73 1347.51,1059.73 1348.54,1059.73 1349.57,1059.73 1350.61,1059.73 1351.64,1059.73 1352.67,1059.73 1353.71,1059.73 1354.74,1059.73 1355.77,1059.73 1356.81,1059.73 1357.84,1059.73 1358.87,1059.73 1359.91,1059.73 1360.94,1059.73 1361.97,1059.73 1363.01,1059.73 1364.04,1059.73 1365.07,1059.73 1366.11,1059.73 1367.14,1059.73 1368.17,1059.73 1369.2,1059.73 1370.24,1059.73 1371.27,1059.73 1372.3,1059.73 1373.34,1059.73 1374.37,1059.73 1375.4,1059.73 1376.44,1059.73 1377.47,1059.73 1378.5,1059.73 1379.54,1059.73 1380.57,1059.73 1381.6,1059.73 1382.64,1059.73 1383.67,1059.73 1384.7,1059.73 1385.73,1059.73 1386.77,1059.73 1387.8,1059.73 1388.83,1059.73 1389.87,1059.73 1390.9,1059.73 1391.93,1059.73 1392.97,1059.73 1394,1059.73 1395.03,1059.73 1396.07,1059.73 1397.1,1059.73 1398.13,1059.73 1399.17,1059.73 1400.2,1059.73 1401.23,1059.73 1402.27,1059.73 1403.3,1059.73 1404.33,1059.73 1405.36,1059.73 1406.4,1059.73 1407.43,1059.73 1408.46,1059.73 1409.5,1059.73 1410.53,1059.73 1411.56,1059.73 1412.6,1059.73 1413.63,1059.73 1414.66,1059.73 1415.7,1059.73 1416.73,1059.73 1417.76,1059.73 1418.8,1059.73 1419.83,1059.73 1420.86,1059.73 1421.89,1059.73 1422.93,1059.73 1423.96,1059.73 1424.99,1059.73 1426.03,1059.73 1427.06,1059.73 1428.09,1059.73 1429.13,1059.73 1430.16,1059.73 1431.19,1059.73 1432.23,1059.73 1433.26,1059.73 1434.29,1059.73 1435.33,1059.73 1436.36,1059.73 1437.39,1059.73 1438.43,1059.73 1439.46,1059.73 1440.49,1059.73 1441.52,1059.73 1442.56,1059.73 1443.59,1059.73 1444.62,1059.73 1445.66,1059.73 1446.69,1059.73 1447.72,1059.73 1448.76,1059.73 1449.79,1059.73 1450.82,1059.73 1451.86,1059.73 1452.89,1059.73 1453.92,1059.73 1454.96,1059.73 1455.99,1059.73 1457.02,1059.73 1458.05,1059.73 1459.09,1059.73 1460.12,1059.73 1461.15,1059.73 1462.19,1059.73 1463.22,1059.73 1464.25,951.554 1465.29,951.554 1466.32,951.554 1467.35,951.554 1468.39,951.554 1469.42,951.554 1470.45,951.554 1471.49,951.554 1472.52,951.554 1473.55,951.554 1474.59,951.554 1475.62,951.554 1476.65,951.554 1477.68,951.554 1478.72,951.554 1479.75,951.554 1480.78,951.554 1481.82,951.554 1482.85,951.554 1483.88,951.554 1484.92,951.554 1485.95,951.554 1486.98,951.554 1488.02,951.554 1489.05,951.554 1490.08,951.554 1491.12,951.554 1492.15,951.554 1493.18,951.554 1494.21,951.554 1495.25,951.554 1496.28,951.554 1497.31,951.554 1498.35,951.554 1499.38,951.554 1500.41,951.554 1501.45,951.554 1502.48,951.554 1503.51,951.554 1504.55,951.554 1505.58,951.554 1506.61,951.554 1507.65,951.554 1508.68,951.554 1509.71,951.554 1510.75,951.554 1511.78,951.554 1512.81,951.554 1513.84,951.554 1514.88,951.554 1515.91,951.554 1516.94,951.554 1517.98,951.554 1519.01,951.554 1520.04,951.554 1521.08,951.554 1522.11,951.554 1523.14,951.554 1524.18,951.554 1525.21,951.554 1526.24,951.554 1527.28,951.554 1528.31,951.554 1529.34,951.554 1530.37,951.554 1531.41,951.554 1532.44,951.554 1533.47,951.554 1534.51,951.554 1535.54,951.554 1536.57,951.554 1537.61,951.554 1538.64,951.554 1539.67,951.554 1540.71,951.554 1541.74,951.554 1542.77,951.554 1543.81,951.554 1544.84,951.554 1545.87,951.554 1546.91,951.554 1547.94,951.554 1548.97,951.554 1550,951.554 1551.04,951.554 1552.07,951.554 1553.1,951.554 1554.14,951.554 1555.17,951.554 1556.2,951.554 1557.24,951.554 1558.27,951.554 1559.3,951.554 1560.34,951.554 1561.37,951.554 1562.4,951.554 1563.44,951.554 1564.47,951.554 1565.5,951.554 1566.53,951.554 1567.57,951.554 1568.6,951.554 1569.63,951.554 1570.67,951.554 1571.7,951.554 1572.73,951.554 1573.77,951.554 1574.8,951.554 1575.83,951.554 1576.87,951.554 1577.9,951.554 1578.93,951.554 1579.97,951.554 1581,951.554 1582.03,951.554 1583.07,951.554 1584.1,951.554 1585.13,843.383 1586.16,843.383 1587.2,843.383 1588.23,843.383 1589.26,843.383 1590.3,843.383 1591.33,843.383 1592.36,843.383 1593.4,843.383 1594.43,843.383 1595.46,843.383 1596.5,843.383 1597.53,843.383 1598.56,843.383 1599.6,843.383 1600.63,843.383 1601.66,843.383 1602.69,843.383 1603.73,843.383 1604.76,843.383 1605.79,843.383 1606.83,843.383 1607.86,843.383 1608.89,843.383 1609.93,843.383 1610.96,843.383 1611.99,843.383 1613.03,843.383 1614.06,843.383 1615.09,843.383 1616.13,843.383 1617.16,843.383 1618.19,843.383 1619.23,843.383 1620.26,843.383 1621.29,843.383 1622.32,843.383 1623.36,843.383 1624.39,843.383 1625.42,843.383 1626.46,843.383 1627.49,843.383 1628.52,843.383 1629.56,843.383 1630.59,843.383 1631.62,843.383 1632.66,843.383 1633.69,843.383 1634.72,843.383 1635.76,843.383 1636.79,843.383 1637.82,843.383 1638.85,843.383 1639.89,843.383 1640.92,843.383 1641.95,843.383 1642.99,843.383 1644.02,843.383 1645.05,843.383 1646.09,843.383 1647.12,843.383 1648.15,843.383 1649.19,843.383 1650.22,843.383 1651.25,843.383 1652.29,843.383 1653.32,843.383 1654.35,843.383 1655.39,843.383 1656.42,843.383 1657.45,843.383 1658.48,843.383 1659.52,843.383 1660.55,843.383 1661.58,843.383 1662.62,843.383 1663.65,843.383 1664.68,843.383 1665.72,843.383 1666.75,843.383 1667.78,843.383 1668.82,843.383 1669.85,843.383 1670.88,843.383 1671.92,843.383 1672.95,843.383 1673.98,843.383 1675.01,843.383 1676.05,843.383 1677.08,843.383 1678.11,843.383 1679.15,843.383 1680.18,843.383 1681.21,843.383 1682.25,843.383 1683.28,843.383 1684.31,843.383 1685.35,843.383 1686.38,843.383 1687.41,843.383 1688.45,843.383 1689.48,843.383 1690.51,843.383 1691.54,843.383 1692.58,843.383 1693.61,843.383 1694.64,843.383 1695.68,843.383 1696.71,843.383 1697.74,843.383 1698.78,843.383 1699.81,843.383 1700.84,843.383 1701.88,843.383 1702.91,843.383 1703.94,843.383 1704.98,843.383 1706.01,843.383 1707.04,843.383 1708.08,843.383 1709.11,843.383 1710.14,843.383 1711.17,843.383 1712.21,843.383 1713.24,843.383 1714.27,843.383 1715.31,843.383 1716.34,843.383 1717.37,843.383 1718.41,843.383 1719.44,843.383 1720.47,843.383 1721.51,843.383 1722.54,843.383 1723.57,843.383 1724.61,843.383 1725.64,843.383 1726.67,843.383 1727.7,843.383 1728.74,843.383 1729.77,843.383 1730.8,843.383 1731.84,843.383 1732.87,843.383 1733.9,843.383 1734.94,843.383 1735.97,843.383 1737,843.383 1738.04,843.383 1739.07,843.383 1740.1,843.383 1741.14,843.383 1742.17,843.383 1743.2,843.383 1744.24,843.383 1745.27,843.383 1746.3,843.383 1747.33,843.383 1748.37,843.383 1749.4,843.383 1750.43,843.383 1751.47,843.383 1752.5,843.383 1753.53,843.383 1754.57,843.383 1755.6,843.383 1756.63,843.383 1757.67,843.383 1758.7,843.383 1759.73,843.383 1760.77,843.383 1761.8,843.383 1762.83,843.383 1763.86,843.383 1764.9,843.383 1765.93,843.383 1766.96,843.383 1768,843.383 1769.03,843.383 1770.06,843.383 1771.1,843.383 1772.13,843.383 1773.16,843.383 1774.2,843.383 1775.23,843.383 1776.26,843.383 1777.3,843.383 1778.33,843.383 1779.36,843.383 1780.4,843.383 1781.43,843.383 1782.46,843.383 1783.49,843.383 1784.53,843.383 1785.56,843.383 1786.59,843.383 1787.63,843.383 1788.66,843.383 1789.69,843.383 1790.73,843.383 1791.76,843.383 1792.79,843.383 1793.83,843.383 1794.86,843.383 1795.89,843.383 1796.93,843.383 1797.96,843.383 1798.99,843.383 1800.02,843.383 1801.06,843.383 1802.09,843.383 1803.12,843.383 1804.16,843.383 1805.19,843.383 1806.22,843.383 1807.26,843.383 1808.29,843.383 1809.32,843.383 1810.36,843.383 1811.39,843.383 1812.42,843.383 1813.46,843.383 1814.49,843.383 1815.52,843.383 1816.56,843.383 1817.59,843.383 1818.62,843.383 1819.65,843.383 1820.69,843.383 1821.72,843.383 1822.75,843.383 1823.79,843.383 1824.82,843.383 1825.85,843.383 1826.89,843.383 1827.92,843.383 1828.95,843.383 1829.99,843.383 1831.02,843.383 1832.05,843.383 1833.09,843.383 1834.12,843.383 1835.15,843.383 1836.18,843.383 1837.22,843.383 1838.25,843.383 1839.28,843.383 1840.32,843.383 1841.35,843.383 1842.38,843.383 1843.42,843.383 1844.45,843.383 1845.48,843.383 1846.52,843.383 1847.55,843.383 1848.58,843.383 1849.62,843.383 1850.65,843.383 1851.68,843.383 1852.72,843.383 1853.75,735.212 1854.78,735.212 1855.81,735.212 1856.85,735.212 1857.88,735.212 1858.91,735.212 1859.95,735.212 1860.98,735.212 1862.01,735.212 1863.05,735.212 1864.08,735.212 1865.11,735.212 1866.15,735.212 1867.18,735.212 1868.21,735.212 1869.25,735.212 1870.28,735.212 1871.31,735.212 1872.34,735.212 1873.38,735.212 1874.41,735.212 1875.44,735.212 1876.48,735.212 1877.51,735.212 1878.54,735.212 1879.58,735.212 1880.61,735.212 1881.64,735.212 1882.68,735.212 1883.71,735.212 1884.74,735.212 1885.78,735.212 1886.81,735.212 1887.84,735.212 1888.88,735.212 1889.91,735.212 1890.94,735.212 1891.97,735.212 1893.01,735.212 1894.04,735.212 1895.07,735.212 1896.11,735.212 1897.14,735.212 1898.17,735.212 1899.21,735.212 1900.24,735.212 1901.27,735.212 1902.31,735.212 1903.34,735.212 1904.37,735.212 1905.41,735.212 1906.44,735.212 1907.47,735.212 1908.5,735.212 1909.54,735.212 1910.57,735.212 1911.6,735.212 1912.64,735.212 1913.67,735.212 1914.7,735.212 1915.74,735.212 1916.77,735.212 1917.8,735.212 1918.84,735.212 1919.87,735.212 1920.9,735.212 1921.94,735.212 1922.97,735.212 1924,735.212 1925.04,735.212 1926.07,735.212 1927.1,735.212 1928.13,735.212 1929.17,735.212 1930.2,735.212 1931.23,735.212 1932.27,735.212 1933.3,735.212 1934.33,735.212 1935.37,735.212 1936.4,735.212 1937.43,735.212 1938.47,735.212 1939.5,735.212 1940.53,735.212 1941.57,735.212 1942.6,735.212 1943.63,735.212 1944.66,735.212 1945.7,735.212 1946.73,735.212 1947.76,735.212 1948.8,735.212 1949.83,735.212 1950.86,735.212 1951.9,735.212 1952.93,735.212 1953.96,735.212 1955,735.212 1956.03,735.212 1957.06,735.212 1958.1,735.212 1959.13,735.212 1960.16,735.212 1961.2,735.212 1962.23,735.212 1963.26,735.212 1964.29,735.212 1965.33,735.212 1966.36,735.212 1967.39,735.212 1968.43,735.212 1969.46,735.212 1970.49,735.212 1971.53,735.212 1972.56,735.212 1973.59,735.212 1974.63,735.212 1975.66,735.212 1976.69,735.212 1977.73,735.212 1978.76,735.212 1979.79,735.212 1980.82,735.212 1981.86,735.212 1982.89,735.212 1983.92,735.212 1984.96,735.212 1985.99,735.212 1987.02,735.212 1988.06,735.212 1989.09,735.212 1990.12,735.212 1991.16,735.212 1992.19,735.212 1993.22,735.212 1994.26,735.212 1995.29,735.212 1996.32,735.212 1997.36,735.212 1998.39,735.212 1999.42,735.212 2000.45,735.212 2001.49,735.212 2002.52,735.212 2003.55,735.212 2004.59,735.212 2005.62,735.212 2006.65,735.212 2007.69,735.212 2008.72,735.212 2009.75,735.212 2010.79,735.212 2011.82,735.212 2012.85,735.212 2013.89,735.212 2014.92,735.212 2015.95,735.212 2016.98,735.212 2018.02,735.212 2019.05,735.212 2020.08,735.212 2021.12,735.212 2022.15,735.212 2023.18,735.212 2024.22,735.212 2025.25,735.212 2026.28,735.212 2027.32,735.212 2028.35,735.212 2029.38,735.212 2030.42,735.212 2031.45,735.212 2032.48,735.212 2033.52,735.212 2034.55,735.212 2035.58,735.212 2036.61,735.212 2037.65,735.212 2038.68,735.212 2039.71,735.212 2040.75,735.212 2041.78,735.212 2042.81,735.212 2043.85,735.212 2044.88,735.212 2045.91,735.212 2046.95,735.212 2047.98,735.212 2049.01,735.212 2050.05,735.212 2051.08,735.212 2052.11,735.212 2053.14,735.212 2054.18,735.212 2055.21,735.212 2056.24,735.212 2057.28,735.212 2058.31,735.212 2059.34,735.212 2060.38,735.212 2061.41,735.212 2062.44,735.212 2063.48,735.212 2064.51,735.212 2065.54,735.212 2066.58,735.212 2067.61,735.212 2068.64,735.212 2069.67,735.212 2070.71,735.212 2071.74,735.212 2072.77,735.212 2073.81,735.212 2074.84,735.212 2075.87,735.212 2076.91,735.212 2077.94,735.212 2078.97,735.212 2080.01,735.212 2081.04,735.212 2082.07,735.212 2083.11,735.212 2084.14,735.212 2085.17,735.212 2086.21,735.212 2087.24,735.212 2088.27,735.212 2089.3,735.212 2090.34,735.212 2091.37,735.212 2092.4,735.212 2093.44,735.212 2094.47,735.212 2095.5,735.212 2096.54,735.212 2097.57,735.212 2098.6,735.212 2099.64,735.212 2100.67,735.212 2101.7,735.212 2102.74,735.212 2103.77,735.212 2104.8,735.212 2105.83,735.212 2106.87,735.212 2107.9,735.212 2108.93,735.212 2109.97,735.212 2111,735.212 2112.03,735.212 2113.07,735.212 2114.1,735.212 2115.13,735.212 2116.17,735.212 2117.2,735.212 2118.23,735.212 2119.27,735.212 2120.3,735.212 2121.33,735.212 2122.37,735.212 2123.4,735.212 2124.43,735.212 2125.46,735.212 2126.5,735.212 2127.53,735.212 2128.56,735.212 2129.6,735.212 2130.63,735.212 2131.66,735.212 2132.7,735.212 2133.73,735.212 2134.76,735.212 2135.8,735.212 2136.83,735.212 2137.86,735.212 2138.9,735.212 2139.93,735.212 2140.96,735.212 2141.99,735.212 2143.03,735.212 2144.06,735.212 2145.09,735.212 2146.13,735.212 2147.16,735.212 2148.19,735.212 2149.23,735.212 2150.26,735.212 2151.29,735.212 2152.33,735.212 2153.36,735.212 2154.39,735.212 2155.43,735.212 2156.46,735.212 2157.49,735.212 2158.53,735.212 2159.56,735.212 2160.59,735.212 2161.62,735.212 2162.66,735.212 2163.69,735.212 2164.72,735.212 2165.76,735.212 2166.79,735.212 2167.82,735.212 2168.86,735.212 2169.89,735.212 2170.92,735.212 2171.96,735.212 2172.99,735.212 2174.02,735.212 2175.06,735.212 2176.09,735.212 2177.12,735.212 2178.15,735.212 2179.19,735.212 2180.22,735.212 2181.25,735.212 2182.29,735.212 2183.32,735.212 2184.35,735.212 2185.39,735.212 2186.42,735.212 2187.45,735.212 2188.49,735.212 2189.52,735.212 2190.55,735.212 2191.59,735.212 2192.62,735.212 2193.65,735.212 2194.69,735.212 2195.72,735.212 2196.75,735.212 2197.78,735.212 2198.82,735.212 2199.85,735.212 2200.88,735.212 2201.92,735.212 2202.95,735.212 2203.98,735.212 2205.02,735.212 2206.05,735.212 2207.08,735.212 2208.12,735.212 2209.15,735.212 2210.18,735.212 2211.22,735.212 2212.25,735.212 2213.28,735.212 2214.31,735.212 2215.35,735.212 2216.38,735.212 2217.41,735.212 2218.45,735.212 2219.48,735.212 2220.51,735.212 2221.55,735.212 2222.58,735.212 2223.61,735.212 2224.65,735.212 2225.68,735.212 2226.71,735.212 2227.75,735.212 2228.78,735.212 2229.81,735.212 2230.85,735.212 2231.88,735.212 2232.91,735.212 2233.94,735.212 2234.98,735.212 2236.01,735.212 2237.04,735.212 2238.08,735.212 2239.11,735.212 2240.14,735.212 2241.18,735.212 2242.21,735.212 2243.24,735.212 2244.28,735.212 2245.31,735.212 2246.34,735.212 2247.38,735.212 2248.41,735.212 2249.44,735.212 2250.47,735.212 2251.51,735.212 2252.54,735.212 2253.57,627.041 2254.61,627.041 2255.64,627.041 2256.67,627.041 2257.71,627.041 2258.74,627.041 2259.77,627.041 2260.81,627.041 2261.84,627.041 2262.87,627.041 2263.91,627.041 2264.94,627.041 2265.97,627.041 2267.01,627.041 2268.04,627.041 2269.07,627.041 2270.1,627.041 2271.14,627.041 2272.17,627.041 2273.2,627.041 2274.24,627.041 2275.27,627.041 2276.3,627.041 2277.34,627.041 2278.37,627.041 2279.4,627.041 2280.44,627.041 2281.47,627.041 2282.5,627.041 2283.54,627.041 2284.57,627.041 2285.6,627.041 2286.63,627.041 2287.67,627.041 2288.7,627.041 2289.73,627.041 2290.77,627.041 2291.8,627.041 2292.83,627.041 2293.87,627.041 2294.9,627.041 2295.93,627.041 2296.97,627.041 2298,627.041 2299.03,627.041 2300.07,627.041 2301.1,627.041 2302.13,627.041 2303.17,627.041 2304.2,627.041 2305.23,627.041 2306.26,627.041 2307.3,627.041 2308.33,627.041 2309.36,627.041 2310.4,627.041 2311.43,627.041 2312.46,627.041 2313.5,627.041 2314.53,627.041 2315.56,627.041 2316.6,627.041 2317.63,627.041 2318.66,627.041 2319.7,627.041 2320.73,627.041 2321.76,627.041 2322.79,627.041 2323.83,627.041 2324.86,627.041 2325.89,627.041 2326.93,627.041 2327.96,627.041 2328.99,627.041 2330.03,627.041 2331.06,627.041 2332.09,627.041 2333.13,627.041 2334.16,627.041 2335.19,627.041 2336.23,627.041 2337.26,627.041 2338.29,627.041 2339.33,627.041 2340.36,627.041 2341.39,627.041 2342.42,627.041 2343.46,627.041 2344.49,627.041 2345.52,627.041 2346.56,627.041 2347.59,627.041 2348.62,627.041 2349.66,627.041 2350.69,627.041 2351.72,627.041 2352.76,627.041 "/>
<polyline clip-path="url(#clip912)" style="stroke:#e26f46; stroke-linecap:round; stroke-linejoin:round; stroke-width:8; stroke-opacity:1; fill:none" points="184.191,1384.24 185.224,1384.24 186.257,1384.24 187.29,1384.24 188.323,1384.24 189.356,1384.24 190.39,1384.24 191.423,1384.24 192.456,1384.24 193.489,1384.24 194.522,1384.24 195.555,1384.24 196.588,1384.24 197.622,1384.24 198.655,1384.24 199.688,1384.24 200.721,1384.24 201.754,1384.24 202.787,1384.24 203.82,1384.24 204.854,1384.24 205.887,1384.24 206.92,1384.24 207.953,1384.24 208.986,1384.24 210.019,1384.24 211.052,1384.24 212.086,1384.24 213.119,1384.24 214.152,1384.24 215.185,1384.24 216.218,1384.24 217.251,1384.24 218.284,1384.24 219.318,1384.24 220.351,1384.24 221.384,1384.24 222.417,1384.24 223.45,1384.24 224.483,1384.24 225.516,1384.24 226.55,1384.24 227.583,1384.24 228.616,1384.24 229.649,1384.24 230.682,1384.24 231.715,1384.24 232.748,1384.24 233.781,1384.24 234.815,1384.24 235.848,1384.24 236.881,1384.24 237.914,1384.24 238.947,1384.24 239.98,1384.24 241.013,1384.24 242.047,1384.24 243.08,1384.24 244.113,1384.24 245.146,1384.24 246.179,1384.24 247.212,1384.24 248.245,1384.24 249.279,1384.24 250.312,1384.24 251.345,1384.24 252.378,1384.24 253.411,1384.24 254.444,1384.24 255.477,1384.24 256.511,1384.24 257.544,1384.24 258.577,1384.24 259.61,1384.24 260.643,1384.24 261.676,1384.24 262.709,1384.24 263.743,1384.24 264.776,1384.24 265.809,1384.24 266.842,1384.24 267.875,1384.24 268.908,1384.24 269.941,1384.24 270.975,1384.24 272.008,1384.24 273.041,1384.24 274.074,1384.24 275.107,1384.24 276.14,1384.24 277.173,1384.24 278.207,1384.24 279.24,1384.24 280.273,1384.24 281.306,1384.24 282.339,1384.24 283.372,1384.24 284.405,1384.24 285.439,1384.24 286.472,1384.24 287.505,1384.24 288.538,1384.24 289.571,1384.24 290.604,1384.24 291.637,1384.24 292.671,1384.24 293.704,1384.24 294.737,1384.24 295.77,1384.24 296.803,1384.24 297.836,1384.24 298.869,1384.24 299.903,1384.24 300.936,1384.24 301.969,1384.24 303.002,1384.24 304.035,1384.24 305.068,1384.24 306.101,1384.24 307.135,1384.24 308.168,1384.24 309.201,1384.24 310.234,1384.24 311.267,1384.24 312.3,1384.24 313.333,1384.24 314.367,1384.24 315.4,1384.24 316.433,1384.24 317.466,1384.24 318.499,1384.24 319.532,1384.24 320.565,1384.24 321.599,1384.24 322.632,1384.24 323.665,1384.24 324.698,1384.24 325.731,1384.24 326.764,1384.24 327.797,1384.24 328.831,1384.24 329.864,1384.24 330.897,1384.24 331.93,1384.24 332.963,1384.24 333.996,1384.24 335.029,1384.24 336.063,1384.24 337.096,1384.24 338.129,1384.24 339.162,1384.24 340.195,1384.24 341.228,1384.24 342.261,1384.24 343.295,1384.24 344.328,1384.24 345.361,1384.24 346.394,1384.24 347.427,1384.24 348.46,1384.24 349.493,1384.24 350.527,1384.24 351.56,1384.24 352.593,1384.24 353.626,1384.24 354.659,1384.24 355.692,1384.24 356.725,1384.24 357.759,1384.24 358.792,1384.24 359.825,1384.24 360.858,1384.24 361.891,1384.24 362.924,1384.24 363.957,1384.24 364.991,1384.24 366.024,1384.24 367.057,1384.24 368.09,1384.24 369.123,1384.24 370.156,1384.24 371.189,1384.24 372.223,1384.24 373.256,1384.24 374.289,1384.24 375.322,1384.24 376.355,1384.24 377.388,1384.24 378.421,1384.24 379.455,1384.24 380.488,1384.24 381.521,1384.24 382.554,1384.24 383.587,1384.24 384.62,1384.24 385.653,1384.24 386.687,1384.24 387.72,1384.24 388.753,1384.24 389.786,1384.24 390.819,1384.24 391.852,1384.24 392.885,1384.24 393.919,1384.24 394.952,1384.24 395.985,1384.24 397.018,1384.24 398.051,1384.24 399.084,1384.24 400.117,1384.24 401.151,1384.24 402.184,1384.24 403.217,1384.24 404.25,1384.24 405.283,1384.24 406.316,1384.24 407.349,1384.24 408.383,1384.24 409.416,1276.07 410.449,1276.07 411.482,1276.07 412.515,1276.07 413.548,1276.07 414.581,1276.07 415.615,1276.07 416.648,1276.07 417.681,1276.07 418.714,1276.07 419.747,1276.07 420.78,1276.07 421.813,1276.07 422.846,1276.07 423.88,1276.07 424.913,1276.07 425.946,1276.07 426.979,1276.07 428.012,1276.07 429.045,1276.07 430.078,1276.07 431.112,1276.07 432.145,1276.07 433.178,1276.07 434.211,1276.07 435.244,1276.07 436.277,1276.07 437.31,1276.07 438.344,1276.07 439.377,1276.07 440.41,1276.07 441.443,1276.07 442.476,1276.07 443.509,1276.07 444.542,1276.07 445.576,1276.07 446.609,1276.07 447.642,1276.07 448.675,1276.07 449.708,1276.07 450.741,1276.07 451.774,1276.07 452.808,1276.07 453.841,1276.07 454.874,1276.07 455.907,1276.07 456.94,1276.07 457.973,1276.07 459.006,1276.07 460.04,1276.07 461.073,1276.07 462.106,1276.07 463.139,1276.07 464.172,1276.07 465.205,1276.07 466.238,1276.07 467.272,1276.07 468.305,1276.07 469.338,1276.07 470.371,1276.07 471.404,1276.07 472.437,1276.07 473.47,1276.07 474.504,1276.07 475.537,1276.07 476.57,1276.07 477.603,1276.07 478.636,1276.07 479.669,1276.07 480.702,1276.07 481.736,1276.07 482.769,1276.07 483.802,1276.07 484.835,1276.07 485.868,1276.07 486.901,1276.07 487.934,1276.07 488.968,1276.07 490.001,1276.07 491.034,1276.07 492.067,1276.07 493.1,1276.07 494.133,1276.07 495.166,1276.07 496.2,1276.07 497.233,1276.07 498.266,1276.07 499.299,1276.07 500.332,1276.07 501.365,1276.07 502.398,1276.07 503.432,1276.07 504.465,1276.07 505.498,1276.07 506.531,1276.07 507.564,1276.07 508.597,1276.07 509.63,1276.07 510.664,1276.07 511.697,1276.07 512.73,1276.07 513.763,1276.07 514.796,1276.07 515.829,1276.07 516.862,1276.07 517.896,1276.07 518.929,1276.07 519.962,1276.07 520.995,1276.07 522.028,1276.07 523.061,1276.07 524.094,1276.07 525.128,1276.07 526.161,1276.07 527.194,1276.07 528.227,1276.07 529.26,1276.07 530.293,1276.07 531.326,1276.07 532.36,1276.07 533.393,1276.07 534.426,1276.07 535.459,1276.07 536.492,1276.07 537.525,1276.07 538.558,1276.07 539.592,1276.07 540.625,1276.07 541.658,1276.07 542.691,1276.07 543.724,1276.07 544.757,1276.07 545.79,1276.07 546.824,1276.07 547.857,1276.07 548.89,1276.07 549.923,1276.07 550.956,1276.07 551.989,1276.07 553.022,1276.07 554.056,1276.07 555.089,1276.07 556.122,1276.07 557.155,1276.07 558.188,1276.07 559.221,1276.07 560.254,1276.07 561.288,1276.07 562.321,1276.07 563.354,1276.07 564.387,1276.07 565.42,1276.07 566.453,1276.07 567.486,1276.07 568.52,1276.07 569.553,1276.07 570.586,1276.07 571.619,1276.07 572.652,1276.07 573.685,1276.07 574.718,1276.07 575.752,1276.07 576.785,1276.07 577.818,1276.07 578.851,1276.07 579.884,1276.07 580.917,1276.07 581.95,1276.07 582.984,1276.07 584.017,1276.07 585.05,1276.07 586.083,1276.07 587.116,1276.07 588.149,1276.07 589.182,1276.07 590.216,1276.07 591.249,1276.07 592.282,1276.07 593.315,1276.07 594.348,1276.07 595.381,1276.07 596.414,1276.07 597.448,1276.07 598.481,1276.07 599.514,1276.07 600.547,1276.07 601.58,1276.07 602.613,1276.07 603.646,1276.07 604.68,1276.07 605.713,1276.07 606.746,1276.07 607.779,1276.07 608.812,1276.07 609.845,1276.07 610.878,1276.07 611.912,1276.07 612.945,1276.07 613.978,1276.07 615.011,1276.07 616.044,1276.07 617.077,1276.07 618.11,1276.07 619.143,1276.07 620.177,1276.07 621.21,1276.07 622.243,1276.07 623.276,1276.07 624.309,1276.07 625.342,1276.07 626.375,1276.07 627.409,1276.07 628.442,1276.07 629.475,1276.07 630.508,1276.07 631.541,1276.07 632.574,1276.07 633.607,1276.07 634.641,1276.07 635.674,1276.07 636.707,1276.07 637.74,1276.07 638.773,1276.07 639.806,1276.07 640.839,1276.07 641.873,1276.07 642.906,1276.07 643.939,1276.07 644.972,1276.07 646.005,1276.07 647.038,1276.07 648.071,1276.07 649.105,1276.07 650.138,1276.07 651.171,1276.07 652.204,1276.07 653.237,1276.07 654.27,1276.07 655.303,1276.07 656.337,1276.07 657.37,1276.07 658.403,1276.07 659.436,1276.07 660.469,1276.07 661.502,1276.07 662.535,1276.07 663.569,1276.07 664.602,1276.07 665.635,1276.07 666.668,1276.07 667.701,1276.07 668.734,1276.07 669.767,1276.07 670.801,1276.07 671.834,1276.07 672.867,1276.07 673.9,1276.07 674.933,1276.07 675.966,1276.07 676.999,1276.07 678.033,1276.07 679.066,1276.07 680.099,1276.07 681.132,1276.07 682.165,1276.07 683.198,1276.07 684.231,1276.07 685.265,1276.07 686.298,1276.07 687.331,1276.07 688.364,1276.07 689.397,1276.07 690.43,1276.07 691.463,1276.07 692.497,1276.07 693.53,1276.07 694.563,1276.07 695.596,1276.07 696.629,1276.07 697.662,1276.07 698.695,1276.07 699.729,1276.07 700.762,1276.07 701.795,1276.07 702.828,1276.07 703.861,1276.07 704.894,1276.07 705.927,1276.07 706.961,1276.07 707.994,1276.07 709.027,1276.07 710.06,1276.07 711.093,1276.07 712.126,1276.07 713.159,1276.07 714.193,1276.07 715.226,1276.07 716.259,1276.07 717.292,1276.07 718.325,1276.07 719.358,1276.07 720.391,1276.07 721.425,1276.07 722.458,1276.07 723.491,1276.07 724.524,1276.07 725.557,1276.07 726.59,1276.07 727.623,1276.07 728.657,1276.07 729.69,1276.07 730.723,1276.07 731.756,1276.07 732.789,1276.07 733.822,1276.07 734.855,1276.07 735.889,1276.07 736.922,1276.07 737.955,1276.07 738.988,1276.07 740.021,1276.07 741.054,1276.07 742.087,1276.07 743.121,1276.07 744.154,1276.07 745.187,1276.07 746.22,1276.07 747.253,1276.07 748.286,1276.07 749.319,1276.07 750.353,1276.07 751.386,1276.07 752.419,1276.07 753.452,1276.07 754.485,1276.07 755.518,1276.07 756.551,1276.07 757.585,1276.07 758.618,1276.07 759.651,1276.07 760.684,1276.07 761.717,1276.07 762.75,1276.07 763.783,1276.07 764.817,1276.07 765.85,1276.07 766.883,1276.07 767.916,1276.07 768.949,1276.07 769.982,1276.07 771.015,1276.07 772.049,1276.07 773.082,1276.07 774.115,1276.07 775.148,1276.07 776.181,1276.07 777.214,1276.07 778.247,1276.07 779.281,1276.07 780.314,1276.07 781.347,1276.07 782.38,1276.07 783.413,1276.07 784.446,1276.07 785.479,1276.07 786.513,1276.07 787.546,1276.07 788.579,1276.07 789.612,1276.07 790.645,1276.07 791.678,1276.07 792.711,1276.07 793.745,1276.07 794.778,1276.07 795.811,1276.07 796.844,1276.07 797.877,1276.07 798.91,1276.07 799.943,1276.07 800.977,1276.07 802.01,1276.07 803.043,1276.07 804.076,1276.07 805.109,1276.07 806.142,1276.07 807.175,1276.07 808.208,1276.07 809.242,1276.07 810.275,1276.07 811.308,1276.07 812.341,1276.07 813.374,1276.07 814.407,1276.07 815.44,1276.07 816.474,1276.07 817.507,1276.07 818.54,1276.07 819.573,1276.07 820.606,1276.07 821.639,1276.07 822.672,1276.07 823.706,1276.07 824.739,1276.07 825.772,1276.07 826.805,1276.07 827.838,1276.07 828.871,1276.07 829.904,1276.07 830.938,1276.07 831.971,1276.07 833.004,1276.07 834.037,1276.07 835.07,1276.07 836.103,1276.07 837.136,1276.07 838.17,1276.07 839.203,1276.07 840.236,1276.07 841.269,1276.07 842.302,1276.07 843.335,1276.07 844.368,1276.07 845.402,1276.07 846.435,1276.07 847.468,1276.07 848.501,1276.07 849.534,1276.07 850.567,1276.07 851.6,1276.07 852.634,1276.07 853.667,1276.07 854.7,1276.07 855.733,1276.07 856.766,1276.07 857.799,1276.07 858.832,1276.07 859.866,1276.07 860.899,1276.07 861.932,1276.07 862.965,1276.07 863.998,1276.07 865.031,1276.07 866.064,1276.07 867.098,1276.07 868.131,1276.07 869.164,1276.07 870.197,1276.07 871.23,1276.07 872.263,1276.07 873.296,1276.07 874.33,1276.07 875.363,1276.07 876.396,1276.07 877.429,1276.07 878.462,1276.07 879.495,1276.07 880.528,1276.07 881.562,1276.07 882.595,1276.07 883.628,1276.07 884.661,1276.07 885.694,1276.07 886.727,1276.07 887.76,1276.07 888.794,1276.07 889.827,1276.07 890.86,1276.07 891.893,1276.07 892.926,1276.07 893.959,1276.07 894.992,1276.07 896.026,1276.07 897.059,1276.07 898.092,1276.07 899.125,1276.07 900.158,1276.07 901.191,1276.07 902.224,1276.07 903.258,1276.07 904.291,1276.07 905.324,1276.07 906.357,1276.07 907.39,1276.07 908.423,1276.07 909.456,1276.07 910.49,1276.07 911.523,1276.07 912.556,1276.07 913.589,1276.07 914.622,1276.07 915.655,1276.07 916.688,1276.07 917.722,1276.07 918.755,1276.07 919.788,1276.07 920.821,1276.07 921.854,1276.07 922.887,1276.07 923.92,1276.07 924.954,1276.07 925.987,1276.07 927.02,1276.07 928.053,1276.07 929.086,1276.07 930.119,1276.07 931.152,1276.07 932.186,1276.07 933.219,1276.07 934.252,1276.07 935.285,1276.07 936.318,1276.07 937.351,1276.07 938.384,1276.07 939.418,1276.07 940.451,1276.07 941.484,1276.07 942.517,1276.07 943.55,1276.07 944.583,1276.07 945.616,1276.07 946.65,1276.07 947.683,1276.07 948.716,1276.07 949.749,1276.07 950.782,1276.07 951.815,1276.07 952.848,1276.07 953.882,1276.07 954.915,1276.07 955.948,1276.07 956.981,1276.07 958.014,1276.07 959.047,1276.07 960.08,1276.07 961.114,1276.07 962.147,1276.07 963.18,1276.07 964.213,1276.07 965.246,1276.07 966.279,1276.07 967.312,1276.07 968.346,1276.07 969.379,1276.07 970.412,1276.07 971.445,1276.07 972.478,1276.07 973.511,1276.07 974.544,1276.07 975.578,1276.07 976.611,1276.07 977.644,1276.07 978.677,1276.07 979.71,1276.07 980.743,1276.07 981.776,1276.07 982.81,1276.07 983.843,1276.07 984.876,1276.07 985.909,1276.07 986.942,1276.07 987.975,1276.07 989.008,1276.07 990.042,1276.07 991.075,1276.07 992.108,1276.07 993.141,1276.07 994.174,1276.07 995.207,1276.07 996.24,1276.07 997.273,1276.07 998.307,1276.07 999.34,1276.07 1000.37,1276.07 1001.41,1276.07 1002.44,1276.07 1003.47,1276.07 1004.51,1276.07 1005.54,1276.07 1006.57,1276.07 1007.6,1276.07 1008.64,1276.07 1009.67,1276.07 1010.7,1276.07 1011.74,1276.07 1012.77,1276.07 1013.8,1276.07 1014.84,1276.07 1015.87,1276.07 1016.9,1276.07 1017.94,1276.07 1018.97,1276.07 1020,1276.07 1021.04,1276.07 1022.07,1276.07 1023.1,1276.07 1024.14,1276.07 1025.17,1276.07 1026.2,1276.07 1027.23,1276.07 1028.27,1276.07 1029.3,1276.07 1030.33,1276.07 1031.37,1276.07 1032.4,1276.07 1033.43,1276.07 1034.47,1276.07 1035.5,1276.07 1036.53,1276.07 1037.57,1276.07 1038.6,1276.07 1039.63,1276.07 1040.67,1276.07 1041.7,1276.07 1042.73,1276.07 1043.76,1276.07 1044.8,1276.07 1045.83,1276.07 1046.86,1276.07 1047.9,1276.07 1048.93,1276.07 1049.96,1276.07 1051,1276.07 1052.03,1276.07 1053.06,1276.07 1054.1,1276.07 1055.13,1276.07 1056.16,1276.07 1057.2,1276.07 1058.23,1276.07 1059.26,1276.07 1060.3,1276.07 1061.33,1276.07 1062.36,1276.07 1063.39,1167.9 1064.43,1167.9 1065.46,1167.9 1066.49,1167.9 1067.53,1167.9 1068.56,1167.9 1069.59,1167.9 1070.63,1167.9 1071.66,1167.9 1072.69,1167.9 1073.73,1167.9 1074.76,1167.9 1075.79,1167.9 1076.83,1167.9 1077.86,1167.9 1078.89,1167.9 1079.92,1167.9 1080.96,1167.9 1081.99,1167.9 1083.02,1167.9 1084.06,1167.9 1085.09,1167.9 1086.12,1167.9 1087.16,1167.9 1088.19,1167.9 1089.22,1167.9 1090.26,1167.9 1091.29,1167.9 1092.32,1167.9 1093.36,1167.9 1094.39,1167.9 1095.42,1167.9 1096.46,1167.9 1097.49,1167.9 1098.52,1167.9 1099.55,1167.9 1100.59,1167.9 1101.62,1167.9 1102.65,1167.9 1103.69,1167.9 1104.72,1167.9 1105.75,1167.9 1106.79,1167.9 1107.82,1167.9 1108.85,1167.9 1109.89,1167.9 1110.92,1167.9 1111.95,1167.9 1112.99,1167.9 1114.02,1167.9 1115.05,1167.9 1116.08,1167.9 1117.12,1167.9 1118.15,1167.9 1119.18,1167.9 1120.22,1167.9 1121.25,1167.9 1122.28,1167.9 1123.32,1167.9 1124.35,1167.9 1125.38,1167.9 1126.42,1167.9 1127.45,1167.9 1128.48,1167.9 1129.52,1167.9 1130.55,1167.9 1131.58,1167.9 1132.62,1167.9 1133.65,1167.9 1134.68,1167.9 1135.71,1167.9 1136.75,1167.9 1137.78,1167.9 1138.81,1167.9 1139.85,1167.9 1140.88,1167.9 1141.91,1167.9 1142.95,1167.9 1143.98,1167.9 1145.01,1167.9 1146.05,1167.9 1147.08,1167.9 1148.11,1167.9 1149.15,1167.9 1150.18,1167.9 1151.21,1167.9 1152.24,1167.9 1153.28,1167.9 1154.31,1167.9 1155.34,1167.9 1156.38,1167.9 1157.41,1167.9 1158.44,1167.9 1159.48,1167.9 1160.51,1167.9 1161.54,1167.9 1162.58,1167.9 1163.61,1167.9 1164.64,1167.9 1165.68,1167.9 1166.71,1167.9 1167.74,1167.9 1168.78,1167.9 1169.81,1167.9 1170.84,1167.9 1171.87,1167.9 1172.91,1167.9 1173.94,1167.9 1174.97,1167.9 1176.01,1167.9 1177.04,1167.9 1178.07,1167.9 1179.11,1167.9 1180.14,1167.9 1181.17,1167.9 1182.21,1167.9 1183.24,1167.9 1184.27,1167.9 1185.31,1167.9 1186.34,1167.9 1187.37,1167.9 1188.4,1167.9 1189.44,1167.9 1190.47,1167.9 1191.5,1167.9 1192.54,1167.9 1193.57,1167.9 1194.6,1167.9 1195.64,1167.9 1196.67,1167.9 1197.7,1167.9 1198.74,1167.9 1199.77,1167.9 1200.8,1167.9 1201.84,1167.9 1202.87,1167.9 1203.9,1167.9 1204.94,1167.9 1205.97,1167.9 1207,1167.9 1208.03,1167.9 1209.07,1167.9 1210.1,1167.9 1211.13,1167.9 1212.17,1167.9 1213.2,1167.9 1214.23,1167.9 1215.27,1167.9 1216.3,1167.9 1217.33,1167.9 1218.37,1167.9 1219.4,1167.9 1220.43,1167.9 1221.47,1167.9 1222.5,1167.9 1223.53,1167.9 1224.56,1167.9 1225.6,1167.9 1226.63,1167.9 1227.66,1167.9 1228.7,1167.9 1229.73,1167.9 1230.76,1167.9 1231.8,1167.9 1232.83,1167.9 1233.86,1167.9 1234.9,1167.9 1235.93,1167.9 1236.96,1167.9 1238,1167.9 1239.03,1167.9 1240.06,1167.9 1241.1,1167.9 1242.13,1167.9 1243.16,1059.73 1244.19,1059.73 1245.23,1059.73 1246.26,1059.73 1247.29,1059.73 1248.33,1059.73 1249.36,1059.73 1250.39,1059.73 1251.43,1059.73 1252.46,1059.73 1253.49,1059.73 1254.53,1059.73 1255.56,1059.73 1256.59,1059.73 1257.63,1059.73 1258.66,1059.73 1259.69,1059.73 1260.72,1059.73 1261.76,1059.73 1262.79,1059.73 1263.82,1059.73 1264.86,1059.73 1265.89,1059.73 1266.92,1059.73 1267.96,1059.73 1268.99,1059.73 1270.02,1059.73 1271.06,1059.73 1272.09,1059.73 1273.12,1059.73 1274.16,1059.73 1275.19,1059.73 1276.22,1059.73 1277.26,1059.73 1278.29,1059.73 1279.32,1059.73 1280.35,1059.73 1281.39,1059.73 1282.42,1059.73 1283.45,1059.73 1284.49,1059.73 1285.52,1059.73 1286.55,1059.73 1287.59,1059.73 1288.62,1059.73 1289.65,1059.73 1290.69,1059.73 1291.72,1059.73 1292.75,1059.73 1293.79,1059.73 1294.82,1059.73 1295.85,1059.73 1296.88,1059.73 1297.92,1059.73 1298.95,1059.73 1299.98,1059.73 1301.02,1059.73 1302.05,1059.73 1303.08,1059.73 1304.12,1059.73 1305.15,1059.73 1306.18,1059.73 1307.22,1059.73 1308.25,1059.73 1309.28,1059.73 1310.32,1059.73 1311.35,1059.73 1312.38,1059.73 1313.41,1059.73 1314.45,1059.73 1315.48,1059.73 1316.51,1059.73 1317.55,1059.73 1318.58,1059.73 1319.61,1059.73 1320.65,1059.73 1321.68,1059.73 1322.71,1059.73 1323.75,1059.73 1324.78,1059.73 1325.81,1059.73 1326.85,1059.73 1327.88,1059.73 1328.91,1059.73 1329.95,1059.73 1330.98,1059.73 1332.01,1059.73 1333.04,1059.73 1334.08,951.554 1335.11,951.554 1336.14,951.554 1337.18,951.554 1338.21,951.554 1339.24,951.554 1340.28,951.554 1341.31,951.554 1342.34,951.554 1343.38,951.554 1344.41,951.554 1345.44,951.554 1346.48,951.554 1347.51,951.554 1348.54,951.554 1349.57,951.554 1350.61,951.554 1351.64,951.554 1352.67,951.554 1353.71,951.554 1354.74,951.554 1355.77,951.554 1356.81,843.383 1357.84,843.383 1358.87,843.383 1359.91,843.383 1360.94,843.383 1361.97,843.383 1363.01,843.383 1364.04,843.383 1365.07,843.383 1366.11,843.383 1367.14,843.383 1368.17,843.383 1369.2,843.383 1370.24,843.383 1371.27,843.383 1372.3,843.383 1373.34,843.383 1374.37,843.383 1375.4,843.383 1376.44,843.383 1377.47,843.383 1378.5,843.383 1379.54,843.383 1380.57,843.383 1381.6,843.383 1382.64,843.383 1383.67,843.383 1384.7,843.383 1385.73,843.383 1386.77,843.383 1387.8,843.383 1388.83,843.383 1389.87,843.383 1390.9,843.383 1391.93,843.383 1392.97,843.383 1394,843.383 1395.03,843.383 1396.07,843.383 1397.1,843.383 1398.13,843.383 1399.17,843.383 1400.2,843.383 1401.23,843.383 1402.27,843.383 1403.3,843.383 1404.33,843.383 1405.36,843.383 1406.4,843.383 1407.43,843.383 1408.46,843.383 1409.5,843.383 1410.53,843.383 1411.56,843.383 1412.6,843.383 1413.63,843.383 1414.66,843.383 1415.7,843.383 1416.73,843.383 1417.76,843.383 1418.8,843.383 1419.83,843.383 1420.86,843.383 1421.89,843.383 1422.93,843.383 1423.96,843.383 1424.99,843.383 1426.03,843.383 1427.06,843.383 1428.09,843.383 1429.13,843.383 1430.16,843.383 1431.19,843.383 1432.23,843.383 1433.26,843.383 1434.29,843.383 1435.33,843.383 1436.36,843.383 1437.39,843.383 1438.43,843.383 1439.46,843.383 1440.49,843.383 1441.52,843.383 1442.56,843.383 1443.59,843.383 1444.62,843.383 1445.66,843.383 1446.69,843.383 1447.72,843.383 1448.76,843.383 1449.79,843.383 1450.82,843.383 1451.86,843.383 1452.89,843.383 1453.92,843.383 1454.96,843.383 1455.99,843.383 1457.02,843.383 1458.05,843.383 1459.09,843.383 1460.12,843.383 1461.15,843.383 1462.19,843.383 1463.22,843.383 1464.25,843.383 1465.29,843.383 1466.32,843.383 1467.35,843.383 1468.39,843.383 1469.42,843.383 1470.45,843.383 1471.49,843.383 1472.52,843.383 1473.55,843.383 1474.59,843.383 1475.62,843.383 1476.65,843.383 1477.68,843.383 1478.72,843.383 1479.75,843.383 1480.78,843.383 1481.82,843.383 1482.85,843.383 1483.88,843.383 1484.92,843.383 1485.95,843.383 1486.98,843.383 1488.02,843.383 1489.05,843.383 1490.08,843.383 1491.12,843.383 1492.15,843.383 1493.18,843.383 1494.21,843.383 1495.25,843.383 1496.28,843.383 1497.31,843.383 1498.35,843.383 1499.38,843.383 1500.41,843.383 1501.45,843.383 1502.48,843.383 1503.51,843.383 1504.55,843.383 1505.58,843.383 1506.61,843.383 1507.65,843.383 1508.68,843.383 1509.71,843.383 1510.75,843.383 1511.78,843.383 1512.81,843.383 1513.84,843.383 1514.88,843.383 1515.91,843.383 1516.94,843.383 1517.98,843.383 1519.01,843.383 1520.04,843.383 1521.08,843.383 1522.11,843.383 1523.14,843.383 1524.18,843.383 1525.21,843.383 1526.24,843.383 1527.28,843.383 1528.31,843.383 1529.34,843.383 1530.37,843.383 1531.41,843.383 1532.44,843.383 1533.47,843.383 1534.51,843.383 1535.54,843.383 1536.57,843.383 1537.61,843.383 1538.64,843.383 1539.67,843.383 1540.71,843.383 1541.74,843.383 1542.77,843.383 1543.81,843.383 1544.84,843.383 1545.87,843.383 1546.91,843.383 1547.94,843.383 1548.97,843.383 1550,843.383 1551.04,843.383 1552.07,843.383 1553.1,843.383 1554.14,843.383 1555.17,843.383 1556.2,843.383 1557.24,843.383 1558.27,843.383 1559.3,843.383 1560.34,843.383 1561.37,843.383 1562.4,843.383 1563.44,843.383 1564.47,843.383 1565.5,843.383 1566.53,843.383 1567.57,843.383 1568.6,843.383 1569.63,843.383 1570.67,843.383 1571.7,843.383 1572.73,843.383 1573.77,843.383 1574.8,843.383 1575.83,843.383 1576.87,843.383 1577.9,843.383 1578.93,843.383 1579.97,843.383 1581,843.383 1582.03,843.383 1583.07,843.383 1584.1,843.383 1585.13,843.383 1586.16,843.383 1587.2,843.383 1588.23,843.383 1589.26,843.383 1590.3,843.383 1591.33,843.383 1592.36,843.383 1593.4,843.383 1594.43,843.383 1595.46,843.383 1596.5,843.383 1597.53,843.383 1598.56,843.383 1599.6,843.383 1600.63,843.383 1601.66,843.383 1602.69,843.383 1603.73,843.383 1604.76,843.383 1605.79,843.383 1606.83,843.383 1607.86,843.383 1608.89,843.383 1609.93,843.383 1610.96,843.383 1611.99,843.383 1613.03,843.383 1614.06,843.383 1615.09,843.383 1616.13,843.383 1617.16,843.383 1618.19,843.383 1619.23,843.383 1620.26,843.383 1621.29,843.383 1622.32,843.383 1623.36,843.383 1624.39,843.383 1625.42,843.383 1626.46,843.383 1627.49,843.383 1628.52,843.383 1629.56,843.383 1630.59,843.383 1631.62,843.383 1632.66,843.383 1633.69,843.383 1634.72,843.383 1635.76,843.383 1636.79,843.383 1637.82,843.383 1638.85,843.383 1639.89,843.383 1640.92,843.383 1641.95,843.383 1642.99,843.383 1644.02,843.383 1645.05,843.383 1646.09,843.383 1647.12,843.383 1648.15,843.383 1649.19,843.383 1650.22,843.383 1651.25,843.383 1652.29,843.383 1653.32,843.383 1654.35,843.383 1655.39,843.383 1656.42,843.383 1657.45,843.383 1658.48,843.383 1659.52,843.383 1660.55,843.383 1661.58,843.383 1662.62,843.383 1663.65,843.383 1664.68,843.383 1665.72,843.383 1666.75,843.383 1667.78,843.383 1668.82,843.383 1669.85,843.383 1670.88,843.383 1671.92,843.383 1672.95,843.383 1673.98,843.383 1675.01,843.383 1676.05,843.383 1677.08,843.383 1678.11,843.383 1679.15,735.212 1680.18,735.212 1681.21,735.212 1682.25,735.212 1683.28,735.212 1684.31,735.212 1685.35,735.212 1686.38,735.212 1687.41,735.212 1688.45,735.212 1689.48,735.212 1690.51,735.212 1691.54,735.212 1692.58,735.212 1693.61,735.212 1694.64,735.212 1695.68,735.212 1696.71,735.212 1697.74,735.212 1698.78,735.212 1699.81,735.212 1700.84,735.212 1701.88,735.212 1702.91,735.212 1703.94,735.212 1704.98,735.212 1706.01,735.212 1707.04,735.212 1708.08,735.212 1709.11,735.212 1710.14,735.212 1711.17,735.212 1712.21,735.212 1713.24,735.212 1714.27,735.212 1715.31,735.212 1716.34,735.212 1717.37,735.212 1718.41,735.212 1719.44,735.212 1720.47,735.212 1721.51,735.212 1722.54,735.212 1723.57,735.212 1724.61,735.212 1725.64,735.212 1726.67,735.212 1727.7,735.212 1728.74,735.212 1729.77,735.212 1730.8,735.212 1731.84,735.212 1732.87,735.212 1733.9,735.212 1734.94,735.212 1735.97,735.212 1737,735.212 1738.04,735.212 1739.07,735.212 1740.1,735.212 1741.14,735.212 1742.17,735.212 1743.2,735.212 1744.24,735.212 1745.27,735.212 1746.3,735.212 1747.33,735.212 1748.37,735.212 1749.4,735.212 1750.43,735.212 1751.47,735.212 1752.5,735.212 1753.53,735.212 1754.57,735.212 1755.6,735.212 1756.63,735.212 1757.67,735.212 1758.7,735.212 1759.73,735.212 1760.77,735.212 1761.8,735.212 1762.83,735.212 1763.86,735.212 1764.9,735.212 1765.93,735.212 1766.96,735.212 1768,735.212 1769.03,735.212 1770.06,735.212 1771.1,735.212 1772.13,735.212 1773.16,627.041 1774.2,627.041 1775.23,627.041 1776.26,627.041 1777.3,627.041 1778.33,627.041 1779.36,627.041 1780.4,627.041 1781.43,627.041 1782.46,627.041 1783.49,627.041 1784.53,627.041 1785.56,627.041 1786.59,627.041 1787.63,627.041 1788.66,627.041 1789.69,627.041 1790.73,627.041 1791.76,627.041 1792.79,627.041 1793.83,627.041 1794.86,627.041 1795.89,627.041 1796.93,627.041 1797.96,627.041 1798.99,627.041 1800.02,627.041 1801.06,627.041 1802.09,627.041 1803.12,627.041 1804.16,627.041 1805.19,627.041 1806.22,627.041 1807.26,627.041 1808.29,627.041 1809.32,627.041 1810.36,627.041 1811.39,627.041 1812.42,627.041 1813.46,627.041 1814.49,627.041 1815.52,627.041 1816.56,627.041 1817.59,627.041 1818.62,627.041 1819.65,627.041 1820.69,627.041 1821.72,627.041 1822.75,627.041 1823.79,627.041 1824.82,627.041 1825.85,627.041 1826.89,627.041 1827.92,627.041 1828.95,627.041 1829.99,627.041 1831.02,627.041 1832.05,627.041 1833.09,627.041 1834.12,627.041 1835.15,627.041 1836.18,627.041 1837.22,627.041 1838.25,627.041 1839.28,627.041 1840.32,627.041 1841.35,627.041 1842.38,627.041 1843.42,627.041 1844.45,627.041 1845.48,627.041 1846.52,627.041 1847.55,627.041 1848.58,627.041 1849.62,627.041 1850.65,627.041 1851.68,627.041 1852.72,627.041 1853.75,627.041 1854.78,627.041 1855.81,627.041 1856.85,518.87 1857.88,518.87 1858.91,518.87 1859.95,518.87 1860.98,518.87 1862.01,518.87 1863.05,518.87 1864.08,518.87 1865.11,518.87 1866.15,518.87 1867.18,518.87 1868.21,518.87 1869.25,518.87 1870.28,518.87 1871.31,518.87 1872.34,518.87 1873.38,518.87 1874.41,518.87 1875.44,518.87 1876.48,518.87 1877.51,518.87 1878.54,518.87 1879.58,518.87 1880.61,518.87 1881.64,518.87 1882.68,518.87 1883.71,518.87 1884.74,518.87 1885.78,518.87 1886.81,518.87 1887.84,518.87 1888.88,518.87 1889.91,518.87 1890.94,518.87 1891.97,518.87 1893.01,518.87 1894.04,518.87 1895.07,518.87 1896.11,518.87 1897.14,518.87 1898.17,518.87 1899.21,518.87 1900.24,518.87 1901.27,518.87 1902.31,518.87 1903.34,518.87 1904.37,518.87 1905.41,518.87 1906.44,518.87 1907.47,518.87 1908.5,410.699 1909.54,410.699 1910.57,410.699 1911.6,410.699 1912.64,410.699 1913.67,410.699 1914.7,410.699 1915.74,410.699 1916.77,410.699 1917.8,410.699 1918.84,410.699 1919.87,410.699 1920.9,410.699 1921.94,410.699 1922.97,410.699 1924,410.699 1925.04,410.699 1926.07,410.699 1927.1,410.699 1928.13,410.699 1929.17,410.699 1930.2,410.699 1931.23,410.699 1932.27,410.699 1933.3,410.699 1934.33,410.699 1935.37,410.699 1936.4,410.699 1937.43,410.699 1938.47,410.699 1939.5,410.699 1940.53,410.699 1941.57,410.699 1942.6,410.699 1943.63,410.699 1944.66,410.699 1945.7,410.699 1946.73,410.699 1947.76,410.699 1948.8,410.699 1949.83,410.699 1950.86,410.699 1951.9,410.699 1952.93,410.699 1953.96,410.699 1955,410.699 1956.03,410.699 1957.06,410.699 1958.1,410.699 1959.13,410.699 1960.16,410.699 1961.2,410.699 1962.23,410.699 1963.26,410.699 1964.29,410.699 1965.33,410.699 1966.36,410.699 1967.39,410.699 1968.43,410.699 1969.46,410.699 1970.49,410.699 1971.53,410.699 1972.56,410.699 1973.59,410.699 1974.63,410.699 1975.66,410.699 1976.69,410.699 1977.73,410.699 1978.76,410.699 1979.79,410.699 1980.82,410.699 1981.86,410.699 1982.89,410.699 1983.92,410.699 1984.96,410.699 1985.99,410.699 1987.02,410.699 1988.06,410.699 1989.09,410.699 1990.12,410.699 1991.16,410.699 1992.19,410.699 1993.22,410.699 1994.26,410.699 1995.29,410.699 1996.32,410.699 1997.36,410.699 1998.39,410.699 1999.42,410.699 2000.45,410.699 2001.49,410.699 2002.52,410.699 2003.55,410.699 2004.59,410.699 2005.62,410.699 2006.65,410.699 2007.69,410.699 2008.72,410.699 2009.75,410.699 2010.79,410.699 2011.82,410.699 2012.85,410.699 2013.89,410.699 2014.92,410.699 2015.95,410.699 2016.98,410.699 2018.02,410.699 2019.05,410.699 2020.08,410.699 2021.12,410.699 2022.15,410.699 2023.18,410.699 2024.22,410.699 2025.25,410.699 2026.28,410.699 2027.32,410.699 2028.35,410.699 2029.38,410.699 2030.42,410.699 2031.45,410.699 2032.48,410.699 2033.52,302.528 2034.55,302.528 2035.58,302.528 2036.61,302.528 2037.65,302.528 2038.68,302.528 2039.71,302.528 2040.75,302.528 2041.78,302.528 2042.81,302.528 2043.85,302.528 2044.88,302.528 2045.91,302.528 2046.95,302.528 2047.98,302.528 2049.01,302.528 2050.05,302.528 2051.08,302.528 2052.11,302.528 2053.14,302.528 2054.18,302.528 2055.21,302.528 2056.24,302.528 2057.28,302.528 2058.31,302.528 2059.34,302.528 2060.38,302.528 2061.41,302.528 2062.44,302.528 2063.48,302.528 2064.51,302.528 2065.54,302.528 2066.58,302.528 2067.61,302.528 2068.64,302.528 2069.67,302.528 2070.71,302.528 2071.74,302.528 2072.77,302.528 2073.81,302.528 2074.84,302.528 2075.87,302.528 2076.91,302.528 2077.94,302.528 2078.97,302.528 2080.01,302.528 2081.04,302.528 2082.07,302.528 2083.11,302.528 2084.14,302.528 2085.17,302.528 2086.21,302.528 2087.24,302.528 2088.27,302.528 2089.3,302.528 2090.34,302.528 2091.37,302.528 2092.4,302.528 2093.44,302.528 2094.47,302.528 2095.5,302.528 2096.54,302.528 2097.57,302.528 2098.6,302.528 2099.64,302.528 2100.67,302.528 2101.7,302.528 2102.74,302.528 2103.77,302.528 2104.8,302.528 2105.83,302.528 2106.87,302.528 2107.9,302.528 2108.93,302.528 2109.97,302.528 2111,302.528 2112.03,302.528 2113.07,302.528 2114.1,302.528 2115.13,302.528 2116.17,302.528 2117.2,302.528 2118.23,302.528 2119.27,302.528 2120.3,302.528 2121.33,302.528 2122.37,302.528 2123.4,302.528 2124.43,302.528 2125.46,302.528 2126.5,302.528 2127.53,302.528 2128.56,302.528 2129.6,302.528 2130.63,302.528 2131.66,302.528 2132.7,302.528 2133.73,302.528 2134.76,302.528 2135.8,302.528 2136.83,302.528 2137.86,302.528 2138.9,302.528 2139.93,302.528 2140.96,302.528 2141.99,302.528 2143.03,302.528 2144.06,302.528 2145.09,302.528 2146.13,302.528 2147.16,302.528 2148.19,302.528 2149.23,302.528 2150.26,302.528 2151.29,302.528 2152.33,302.528 2153.36,194.357 2154.39,194.357 2155.43,194.357 2156.46,194.357 2157.49,194.357 2158.53,194.357 2159.56,194.357 2160.59,194.357 2161.62,194.357 2162.66,194.357 2163.69,194.357 2164.72,194.357 2165.76,194.357 2166.79,194.357 2167.82,194.357 2168.86,194.357 2169.89,194.357 2170.92,194.357 2171.96,194.357 2172.99,194.357 2174.02,194.357 2175.06,194.357 2176.09,194.357 2177.12,194.357 2178.15,194.357 2179.19,194.357 2180.22,194.357 2181.25,194.357 2182.29,194.357 2183.32,194.357 2184.35,194.357 2185.39,194.357 2186.42,194.357 2187.45,194.357 2188.49,194.357 2189.52,194.357 2190.55,194.357 2191.59,194.357 2192.62,194.357 2193.65,86.1857 2194.69,86.1857 2195.72,86.1857 2196.75,86.1857 2197.78,86.1857 2198.82,86.1857 2199.85,86.1857 2200.88,86.1857 2201.92,86.1857 2202.95,86.1857 2203.98,86.1857 2205.02,86.1857 2206.05,86.1857 2207.08,86.1857 2208.12,86.1857 2209.15,86.1857 2210.18,86.1857 2211.22,86.1857 2212.25,86.1857 2213.28,86.1857 2214.31,86.1857 2215.35,86.1857 2216.38,86.1857 2217.41,86.1857 2218.45,86.1857 2219.48,86.1857 2220.51,86.1857 2221.55,86.1857 2222.58,86.1857 2223.61,86.1857 2224.65,86.1857 2225.68,86.1857 2226.71,86.1857 2227.75,86.1857 2228.78,86.1857 2229.81,86.1857 2230.85,86.1857 2231.88,86.1857 2232.91,86.1857 2233.94,86.1857 2234.98,86.1857 2236.01,86.1857 2237.04,86.1857 2238.08,86.1857 2239.11,86.1857 2240.14,86.1857 2241.18,86.1857 2242.21,86.1857 2243.24,86.1857 2244.28,86.1857 2245.31,86.1857 2246.34,86.1857 2247.38,86.1857 2248.41,86.1857 2249.44,86.1857 2250.47,86.1857 2251.51,86.1857 2252.54,86.1857 2253.57,86.1857 2254.61,86.1857 2255.64,86.1857 2256.67,86.1857 2257.71,86.1857 2258.74,86.1857 2259.77,86.1857 2260.81,86.1857 2261.84,86.1857 2262.87,86.1857 2263.91,86.1857 2264.94,86.1857 2265.97,86.1857 2267.01,86.1857 2268.04,86.1857 2269.07,86.1857 2270.1,86.1857 2271.14,86.1857 2272.17,86.1857 2273.2,86.1857 2274.24,86.1857 2275.27,86.1857 2276.3,86.1857 2277.34,86.1857 2278.37,86.1857 2279.4,86.1857 2280.44,86.1857 2281.47,86.1857 2282.5,86.1857 2283.54,86.1857 2284.57,86.1857 2285.6,86.1857 2286.63,86.1857 2287.67,86.1857 2288.7,86.1857 2289.73,86.1857 2290.77,86.1857 2291.8,86.1857 2292.83,86.1857 2293.87,86.1857 2294.9,86.1857 2295.93,86.1857 2296.97,86.1857 2298,86.1857 2299.03,86.1857 2300.07,86.1857 2301.1,86.1857 2302.13,86.1857 2303.17,86.1857 2304.2,86.1857 2305.23,86.1857 2306.26,86.1857 2307.3,86.1857 2308.33,86.1857 2309.36,86.1857 2310.4,86.1857 2311.43,86.1857 2312.46,86.1857 2313.5,86.1857 2314.53,86.1857 2315.56,86.1857 2316.6,86.1857 2317.63,86.1857 2318.66,86.1857 2319.7,86.1857 2320.73,86.1857 2321.76,86.1857 2322.79,86.1857 2323.83,86.1857 2324.86,86.1857 2325.89,86.1857 2326.93,86.1857 2327.96,86.1857 2328.99,86.1857 2330.03,86.1857 2331.06,86.1857 2332.09,86.1857 2333.13,86.1857 2334.16,86.1857 2335.19,86.1857 2336.23,86.1857 2337.26,86.1857 2338.29,86.1857 2339.33,86.1857 2340.36,86.1857 2341.39,86.1857 2342.42,86.1857 2343.46,86.1857 2344.49,86.1857 2345.52,86.1857 2346.56,86.1857 2347.59,86.1857 2348.62,86.1857 2349.66,86.1857 2350.69,86.1857 2351.72,86.1857 2352.76,86.1857 "/>
<path clip-path="url(#clip910)" d="M256.476 248.629 L609.513 248.629 L609.513 93.1086 L256.476 93.1086  Z" fill="#ffffff" fill-rule="evenodd" fill-opacity="1"/>
<polyline clip-path="url(#clip910)" style="stroke:#000000; stroke-linecap:round; stroke-linejoin:round; stroke-width:4; stroke-opacity:1; fill:none" points="256.476,248.629 609.513,248.629 609.513,93.1086 256.476,93.1086 256.476,248.629 "/>
<polyline clip-path="url(#clip910)" style="stroke:#009af9; stroke-linecap:round; stroke-linejoin:round; stroke-width:8; stroke-opacity:1; fill:none" points="280.571,144.949 425.142,144.949 "/>
<path clip-path="url(#clip910)" d="M449.238 127.669 L455.534 127.669 L470.858 156.581 L470.858 127.669 L475.395 127.669 L475.395 162.229 L469.099 162.229 L453.775 133.317 L453.775 162.229 L449.238 162.229 L449.238 127.669 Z" fill="#000000" fill-rule="nonzero" fill-opacity="1" /><path clip-path="url(#clip910)" d="M504.214 170.099 L504.214 173.409 L479.585 173.409 L479.585 170.099 L504.214 170.099 Z" fill="#000000" fill-rule="nonzero" fill-opacity="1" /><path clip-path="url(#clip910)" d="M509.631 158.293 L517.27 158.293 L517.27 131.928 L508.959 133.595 L508.959 129.335 L517.223 127.669 L521.899 127.669 L521.899 158.293 L529.538 158.293 L529.538 162.229 L509.631 162.229 L509.631 158.293 Z" fill="#000000" fill-rule="nonzero" fill-opacity="1" /><path clip-path="url(#clip910)" d="M548.612 126.257 Q545.51 131.581 544.006 136.789 Q542.501 141.997 542.501 147.344 Q542.501 152.692 544.006 157.946 Q545.533 163.178 548.612 168.479 L544.908 168.479 Q541.436 163.039 539.7 157.784 Q537.987 152.53 537.987 147.344 Q537.987 142.182 539.7 136.951 Q541.413 131.72 544.908 126.257 L548.612 126.257 Z" fill="#000000" fill-rule="nonzero" fill-opacity="1" /><path clip-path="url(#clip910)" d="M561.089 128.942 L561.089 136.303 L569.862 136.303 L569.862 139.613 L561.089 139.613 L561.089 153.687 Q561.089 156.858 561.945 157.761 Q562.825 158.664 565.487 158.664 L569.862 158.664 L569.862 162.229 L565.487 162.229 Q560.556 162.229 558.681 160.4 Q556.806 158.548 556.806 153.687 L556.806 139.613 L553.681 139.613 L553.681 136.303 L556.806 136.303 L556.806 128.942 L561.089 128.942 Z" fill="#000000" fill-rule="nonzero" fill-opacity="1" /><path clip-path="url(#clip910)" d="M574.792 126.257 L578.496 126.257 Q581.968 131.72 583.681 136.951 Q585.417 142.182 585.417 147.344 Q585.417 152.53 583.681 157.784 Q581.968 163.039 578.496 168.479 L574.792 168.479 Q577.871 163.178 579.376 157.946 Q580.904 152.692 580.904 147.344 Q580.904 141.997 579.376 136.789 Q577.871 131.581 574.792 126.257 Z" fill="#000000" fill-rule="nonzero" fill-opacity="1" /><polyline clip-path="url(#clip910)" style="stroke:#e26f46; stroke-linecap:round; stroke-linejoin:round; stroke-width:8; stroke-opacity:1; fill:none" points="280.571,196.789 425.142,196.789 "/>
<path clip-path="url(#clip910)" d="M449.238 179.509 L455.534 179.509 L470.858 208.421 L470.858 179.509 L475.395 179.509 L475.395 214.069 L469.099 214.069 L453.775 185.157 L453.775 214.069 L449.238 214.069 L449.238 179.509 Z" fill="#000000" fill-rule="nonzero" fill-opacity="1" /><path clip-path="url(#clip910)" d="M504.214 221.939 L504.214 225.249 L479.585 225.249 L479.585 221.939 L504.214 221.939 Z" fill="#000000" fill-rule="nonzero" fill-opacity="1" /><path clip-path="url(#clip910)" d="M512.848 210.133 L529.168 210.133 L529.168 214.069 L507.223 214.069 L507.223 210.133 Q509.885 207.379 514.469 202.749 Q519.075 198.096 520.256 196.754 Q522.501 194.231 523.381 192.495 Q524.283 190.735 524.283 189.046 Q524.283 186.291 522.339 184.555 Q520.418 182.819 517.316 182.819 Q515.117 182.819 512.663 183.583 Q510.233 184.347 507.455 185.897 L507.455 181.175 Q510.279 180.041 512.733 179.462 Q515.186 178.884 517.223 178.884 Q522.594 178.884 525.788 181.569 Q528.982 184.254 528.982 188.745 Q528.982 190.874 528.172 192.796 Q527.385 194.694 525.279 197.286 Q524.7 197.958 521.598 201.175 Q518.496 204.37 512.848 210.133 Z" fill="#000000" fill-rule="nonzero" fill-opacity="1" /><path clip-path="url(#clip910)" d="M548.612 178.097 Q545.51 183.421 544.006 188.629 Q542.501 193.837 542.501 199.184 Q542.501 204.532 544.006 209.786 Q545.533 215.018 548.612 220.319 L544.908 220.319 Q541.436 214.879 539.7 209.624 Q537.987 204.37 537.987 199.184 Q537.987 194.022 539.7 188.791 Q541.413 183.56 544.908 178.097 L548.612 178.097 Z" fill="#000000" fill-rule="nonzero" fill-opacity="1" /><path clip-path="url(#clip910)" d="M561.089 180.782 L561.089 188.143 L569.862 188.143 L569.862 191.453 L561.089 191.453 L561.089 205.527 Q561.089 208.698 561.945 209.601 Q562.825 210.504 565.487 210.504 L569.862 210.504 L569.862 214.069 L565.487 214.069 Q560.556 214.069 558.681 212.24 Q556.806 210.388 556.806 205.527 L556.806 191.453 L553.681 191.453 L553.681 188.143 L556.806 188.143 L556.806 180.782 L561.089 180.782 Z" fill="#000000" fill-rule="nonzero" fill-opacity="1" /><path clip-path="url(#clip910)" d="M574.792 178.097 L578.496 178.097 Q581.968 183.56 583.681 188.791 Q585.417 194.022 585.417 199.184 Q585.417 204.37 583.681 209.624 Q581.968 214.879 578.496 220.319 L574.792 220.319 Q577.871 215.018 579.376 209.786 Q580.904 204.532 580.904 199.184 Q580.904 193.837 579.376 188.629 Q577.871 183.421 574.792 178.097 Z" fill="#000000" fill-rule="nonzero" fill-opacity="1" /></svg>
