<?xml version="1.0" encoding="utf-8"?>
<svg xmlns="http://www.w3.org/2000/svg" xmlns:xlink="http://www.w3.org/1999/xlink" width="600" height="400" viewBox="0 0 2400 1600">
<defs>
  <clipPath id="clip260">
    <rect x="0" y="0" width="2400" height="1600"/>
  </clipPath>
</defs>
<path clip-path="url(#clip260)" d="M0 1600 L2400 1600 L2400 0 L0 0  Z" fill="#ffffff" fill-rule="evenodd" fill-opacity="1"/>
<defs>
  <clipPath id="clip261">
    <rect x="480" y="0" width="1681" height="1600"/>
  </clipPath>
</defs>
<path clip-path="url(#clip260)" d="M140.696 1423.18 L2352.76 1423.18 L2352.76 47.2441 L140.696 47.2441  Z" fill="#ffffff" fill-rule="evenodd" fill-opacity="1"/>
<defs>
  <clipPath id="clip262">
    <rect x="140" y="47" width="2213" height="1377"/>
  </clipPath>
</defs>
<polyline clip-path="url(#clip262)" style="stroke:#000000; stroke-linecap:round; stroke-linejoin:round; stroke-width:2; stroke-opacity:0.1; fill:none" points="574.26,1423.18 574.26,47.2441 "/>
<polyline clip-path="url(#clip262)" style="stroke:#000000; stroke-linecap:round; stroke-linejoin:round; stroke-width:2; stroke-opacity:0.1; fill:none" points="1019.65,1423.18 1019.65,47.2441 "/>
<polyline clip-path="url(#clip262)" style="stroke:#000000; stroke-linecap:round; stroke-linejoin:round; stroke-width:2; stroke-opacity:0.1; fill:none" points="1465.03,1423.18 1465.03,47.2441 "/>
<polyline clip-path="url(#clip262)" style="stroke:#000000; stroke-linecap:round; stroke-linejoin:round; stroke-width:2; stroke-opacity:0.1; fill:none" points="1910.42,1423.18 1910.42,47.2441 "/>
<polyline clip-path="url(#clip260)" style="stroke:#000000; stroke-linecap:round; stroke-linejoin:round; stroke-width:4; stroke-opacity:1; fill:none" points="140.696,1423.18 2352.76,1423.18 "/>
<polyline clip-path="url(#clip260)" style="stroke:#000000; stroke-linecap:round; stroke-linejoin:round; stroke-width:4; stroke-opacity:1; fill:none" points="574.26,1423.18 574.26,1404.28 "/>
<polyline clip-path="url(#clip260)" style="stroke:#000000; stroke-linecap:round; stroke-linejoin:round; stroke-width:4; stroke-opacity:1; fill:none" points="1019.65,1423.18 1019.65,1404.28 "/>
<polyline clip-path="url(#clip260)" style="stroke:#000000; stroke-linecap:round; stroke-linejoin:round; stroke-width:4; stroke-opacity:1; fill:none" points="1465.03,1423.18 1465.03,1404.28 "/>
<polyline clip-path="url(#clip260)" style="stroke:#000000; stroke-linecap:round; stroke-linejoin:round; stroke-width:4; stroke-opacity:1; fill:none" points="1910.42,1423.18 1910.42,1404.28 "/>
<path clip-path="url(#clip260)" d="M548.947 1481.64 L556.586 1481.64 L556.586 1455.28 L548.276 1456.95 L548.276 1452.69 L556.54 1451.02 L561.216 1451.02 L561.216 1481.64 L568.855 1481.64 L568.855 1485.58 L548.947 1485.58 L548.947 1481.64 Z" fill="#000000" fill-rule="nonzero" fill-opacity="1" /><path clip-path="url(#clip260)" d="M588.299 1454.1 Q584.688 1454.1 582.859 1457.66 Q581.054 1461.2 581.054 1468.33 Q581.054 1475.44 582.859 1479.01 Q584.688 1482.55 588.299 1482.55 Q591.933 1482.55 593.739 1479.01 Q595.568 1475.44 595.568 1468.33 Q595.568 1461.2 593.739 1457.66 Q591.933 1454.1 588.299 1454.1 M588.299 1450.39 Q594.109 1450.39 597.165 1455 Q600.243 1459.58 600.243 1468.33 Q600.243 1477.06 597.165 1481.67 Q594.109 1486.25 588.299 1486.25 Q582.489 1486.25 579.41 1481.67 Q576.355 1477.06 576.355 1468.33 Q576.355 1459.58 579.41 1455 Q582.489 1450.39 588.299 1450.39 Z" fill="#000000" fill-rule="nonzero" fill-opacity="1" /><path clip-path="url(#clip260)" d="M998.419 1481.64 L1014.74 1481.64 L1014.74 1485.58 L992.794 1485.58 L992.794 1481.64 Q995.456 1478.89 1000.04 1474.26 Q1004.65 1469.61 1005.83 1468.27 Q1008.07 1465.74 1008.95 1464.01 Q1009.85 1462.25 1009.85 1460.56 Q1009.85 1457.8 1007.91 1456.07 Q1005.99 1454.33 1002.89 1454.33 Q1000.69 1454.33 998.233 1455.09 Q995.803 1455.86 993.025 1457.41 L993.025 1452.69 Q995.849 1451.55 998.303 1450.97 Q1000.76 1450.39 1002.79 1450.39 Q1008.16 1450.39 1011.36 1453.08 Q1014.55 1455.77 1014.55 1460.26 Q1014.55 1462.39 1013.74 1464.31 Q1012.96 1466.2 1010.85 1468.8 Q1010.27 1469.47 1007.17 1472.69 Q1004.07 1475.88 998.419 1481.64 Z" fill="#000000" fill-rule="nonzero" fill-opacity="1" /><path clip-path="url(#clip260)" d="M1034.55 1454.1 Q1030.94 1454.1 1029.11 1457.66 Q1027.31 1461.2 1027.31 1468.33 Q1027.31 1475.44 1029.11 1479.01 Q1030.94 1482.55 1034.55 1482.55 Q1038.19 1482.55 1039.99 1479.01 Q1041.82 1475.44 1041.82 1468.33 Q1041.82 1461.2 1039.99 1457.66 Q1038.19 1454.1 1034.55 1454.1 M1034.55 1450.39 Q1040.36 1450.39 1043.42 1455 Q1046.5 1459.58 1046.5 1468.33 Q1046.5 1477.06 1043.42 1481.67 Q1040.36 1486.25 1034.55 1486.25 Q1028.74 1486.25 1025.66 1481.67 Q1022.61 1477.06 1022.61 1468.33 Q1022.61 1459.58 1025.66 1455 Q1028.74 1450.39 1034.55 1450.39 Z" fill="#000000" fill-rule="nonzero" fill-opacity="1" /><path clip-path="url(#clip260)" d="M1453.87 1466.95 Q1457.23 1467.66 1459.1 1469.93 Q1461 1472.2 1461 1475.53 Q1461 1480.65 1457.48 1483.45 Q1453.97 1486.25 1447.48 1486.25 Q1445.31 1486.25 1442.99 1485.81 Q1440.7 1485.39 1438.25 1484.54 L1438.25 1480.02 Q1440.19 1481.16 1442.51 1481.74 Q1444.82 1482.32 1447.35 1482.32 Q1451.74 1482.32 1454.04 1480.58 Q1456.35 1478.84 1456.35 1475.53 Q1456.35 1472.48 1454.2 1470.77 Q1452.07 1469.03 1448.25 1469.03 L1444.22 1469.03 L1444.22 1465.19 L1448.43 1465.19 Q1451.88 1465.19 1453.71 1463.82 Q1455.54 1462.43 1455.54 1459.84 Q1455.54 1457.18 1453.64 1455.77 Q1451.77 1454.33 1448.25 1454.33 Q1446.33 1454.33 1444.13 1454.75 Q1441.93 1455.16 1439.29 1456.04 L1439.29 1451.88 Q1441.95 1451.14 1444.27 1450.77 Q1446.6 1450.39 1448.67 1450.39 Q1453.99 1450.39 1457.09 1452.83 Q1460.19 1455.23 1460.19 1459.35 Q1460.19 1462.22 1458.55 1464.21 Q1456.91 1466.18 1453.87 1466.95 Z" fill="#000000" fill-rule="nonzero" fill-opacity="1" /><path clip-path="url(#clip260)" d="M1479.87 1454.1 Q1476.26 1454.1 1474.43 1457.66 Q1472.62 1461.2 1472.62 1468.33 Q1472.62 1475.44 1474.43 1479.01 Q1476.26 1482.55 1479.87 1482.55 Q1483.5 1482.55 1485.31 1479.01 Q1487.14 1475.44 1487.14 1468.33 Q1487.14 1461.2 1485.31 1457.66 Q1483.5 1454.1 1479.87 1454.1 M1479.87 1450.39 Q1485.68 1450.39 1488.73 1455 Q1491.81 1459.58 1491.81 1468.33 Q1491.81 1477.06 1488.73 1481.67 Q1485.68 1486.25 1479.87 1486.25 Q1474.06 1486.25 1470.98 1481.67 Q1467.92 1477.06 1467.92 1468.33 Q1467.92 1459.58 1470.98 1455 Q1474.06 1450.39 1479.87 1450.39 Z" fill="#000000" fill-rule="nonzero" fill-opacity="1" /><path clip-path="url(#clip260)" d="M1898.59 1455.09 L1886.78 1473.54 L1898.59 1473.54 L1898.59 1455.09 M1897.36 1451.02 L1903.24 1451.02 L1903.24 1473.54 L1908.17 1473.54 L1908.17 1477.43 L1903.24 1477.43 L1903.24 1485.58 L1898.59 1485.58 L1898.59 1477.43 L1882.99 1477.43 L1882.99 1472.92 L1897.36 1451.02 Z" fill="#000000" fill-rule="nonzero" fill-opacity="1" /><path clip-path="url(#clip260)" d="M1925.9 1454.1 Q1922.29 1454.1 1920.46 1457.66 Q1918.66 1461.2 1918.66 1468.33 Q1918.66 1475.44 1920.46 1479.01 Q1922.29 1482.55 1925.9 1482.55 Q1929.54 1482.55 1931.34 1479.01 Q1933.17 1475.44 1933.17 1468.33 Q1933.17 1461.2 1931.34 1457.66 Q1929.54 1454.1 1925.9 1454.1 M1925.9 1450.39 Q1931.71 1450.39 1934.77 1455 Q1937.85 1459.58 1937.85 1468.33 Q1937.85 1477.06 1934.77 1481.67 Q1931.71 1486.25 1925.9 1486.25 Q1920.09 1486.25 1917.01 1481.67 Q1913.96 1477.06 1913.96 1468.33 Q1913.96 1459.58 1917.01 1455 Q1920.09 1450.39 1925.9 1450.39 Z" fill="#000000" fill-rule="nonzero" fill-opacity="1" /><path clip-path="url(#clip260)" d="M1245.79 1522.27 L1245.79 1532.4 L1257.85 1532.4 L1257.85 1536.95 L1245.79 1536.95 L1245.79 1556.3 Q1245.79 1560.66 1246.96 1561.9 Q1248.17 1563.14 1251.83 1563.14 L1257.85 1563.14 L1257.85 1568.04 L1251.83 1568.04 Q1245.05 1568.04 1242.48 1565.53 Q1239.9 1562.98 1239.9 1556.3 L1239.9 1536.95 L1235.6 1536.95 L1235.6 1532.4 L1239.9 1532.4 L1239.9 1522.27 L1245.79 1522.27 Z" fill="#000000" fill-rule="nonzero" fill-opacity="1" /><polyline clip-path="url(#clip262)" style="stroke:#000000; stroke-linecap:round; stroke-linejoin:round; stroke-width:2; stroke-opacity:0.1; fill:none" points="140.696,1390.12 2352.76,1390.12 "/>
<polyline clip-path="url(#clip262)" style="stroke:#000000; stroke-linecap:round; stroke-linejoin:round; stroke-width:2; stroke-opacity:0.1; fill:none" points="140.696,946.802 2352.76,946.802 "/>
<polyline clip-path="url(#clip262)" style="stroke:#000000; stroke-linecap:round; stroke-linejoin:round; stroke-width:2; stroke-opacity:0.1; fill:none" points="140.696,503.482 2352.76,503.482 "/>
<polyline clip-path="url(#clip262)" style="stroke:#000000; stroke-linecap:round; stroke-linejoin:round; stroke-width:2; stroke-opacity:0.1; fill:none" points="140.696,60.1618 2352.76,60.1618 "/>
<polyline clip-path="url(#clip260)" style="stroke:#000000; stroke-linecap:round; stroke-linejoin:round; stroke-width:4; stroke-opacity:1; fill:none" points="140.696,1423.18 140.696,47.2441 "/>
<polyline clip-path="url(#clip260)" style="stroke:#000000; stroke-linecap:round; stroke-linejoin:round; stroke-width:4; stroke-opacity:1; fill:none" points="140.696,1390.12 159.593,1390.12 "/>
<polyline clip-path="url(#clip260)" style="stroke:#000000; stroke-linecap:round; stroke-linejoin:round; stroke-width:4; stroke-opacity:1; fill:none" points="140.696,946.802 159.593,946.802 "/>
<polyline clip-path="url(#clip260)" style="stroke:#000000; stroke-linecap:round; stroke-linejoin:round; stroke-width:4; stroke-opacity:1; fill:none" points="140.696,503.482 159.593,503.482 "/>
<polyline clip-path="url(#clip260)" style="stroke:#000000; stroke-linecap:round; stroke-linejoin:round; stroke-width:4; stroke-opacity:1; fill:none" points="140.696,60.1618 159.593,60.1618 "/>
<path clip-path="url(#clip260)" d="M92.7512 1375.92 Q89.1401 1375.92 87.3114 1379.48 Q85.5058 1383.03 85.5058 1390.16 Q85.5058 1397.26 87.3114 1400.83 Q89.1401 1404.37 92.7512 1404.37 Q96.3854 1404.37 98.1909 1400.83 Q100.02 1397.26 100.02 1390.16 Q100.02 1383.03 98.1909 1379.48 Q96.3854 1375.92 92.7512 1375.92 M92.7512 1372.22 Q98.5613 1372.22 101.617 1376.82 Q104.696 1381.41 104.696 1390.16 Q104.696 1398.88 101.617 1403.49 Q98.5613 1408.07 92.7512 1408.07 Q86.941 1408.07 83.8623 1403.49 Q80.8068 1398.88 80.8068 1390.16 Q80.8068 1381.41 83.8623 1376.82 Q86.941 1372.22 92.7512 1372.22 Z" fill="#000000" fill-rule="nonzero" fill-opacity="1" /><path clip-path="url(#clip260)" d="M53.3995 960.146 L61.0384 960.146 L61.0384 933.781 L52.7282 935.447 L52.7282 931.188 L60.9921 929.522 L65.668 929.522 L65.668 960.146 L73.3068 960.146 L73.3068 964.082 L53.3995 964.082 L53.3995 960.146 Z" fill="#000000" fill-rule="nonzero" fill-opacity="1" /><path clip-path="url(#clip260)" d="M92.7512 932.6 Q89.1401 932.6 87.3114 936.165 Q85.5058 939.707 85.5058 946.836 Q85.5058 953.943 87.3114 957.508 Q89.1401 961.049 92.7512 961.049 Q96.3854 961.049 98.1909 957.508 Q100.02 953.943 100.02 946.836 Q100.02 939.707 98.1909 936.165 Q96.3854 932.6 92.7512 932.6 M92.7512 928.897 Q98.5613 928.897 101.617 933.503 Q104.696 938.086 104.696 946.836 Q104.696 955.563 101.617 960.17 Q98.5613 964.753 92.7512 964.753 Q86.941 964.753 83.8623 960.17 Q80.8068 955.563 80.8068 946.836 Q80.8068 938.086 83.8623 933.503 Q86.941 928.897 92.7512 928.897 Z" fill="#000000" fill-rule="nonzero" fill-opacity="1" /><path clip-path="url(#clip260)" d="M56.6171 516.827 L72.9365 516.827 L72.9365 520.762 L50.9921 520.762 L50.9921 516.827 Q53.6541 514.072 58.2375 509.442 Q62.8439 504.79 64.0245 503.447 Q66.2698 500.924 67.1494 499.188 Q68.0522 497.428 68.0522 495.739 Q68.0522 492.984 66.1078 491.248 Q64.1865 489.512 61.0847 489.512 Q58.8856 489.512 56.4319 490.276 Q54.0014 491.04 51.2236 492.591 L51.2236 487.868 Q54.0477 486.734 56.5014 486.155 Q58.955 485.577 60.9921 485.577 Q66.3624 485.577 69.5568 488.262 Q72.7513 490.947 72.7513 495.438 Q72.7513 497.567 71.9411 499.489 Q71.1541 501.387 69.0476 503.979 Q68.4689 504.651 65.367 507.868 Q62.2652 511.063 56.6171 516.827 Z" fill="#000000" fill-rule="nonzero" fill-opacity="1" /><path clip-path="url(#clip260)" d="M92.7512 489.28 Q89.1401 489.28 87.3114 492.845 Q85.5058 496.387 85.5058 503.516 Q85.5058 510.623 87.3114 514.188 Q89.1401 517.729 92.7512 517.729 Q96.3854 517.729 98.1909 514.188 Q100.02 510.623 100.02 503.516 Q100.02 496.387 98.1909 492.845 Q96.3854 489.28 92.7512 489.28 M92.7512 485.577 Q98.5613 485.577 101.617 490.183 Q104.696 494.766 104.696 503.516 Q104.696 512.243 101.617 516.85 Q98.5613 521.433 92.7512 521.433 Q86.941 521.433 83.8623 516.85 Q80.8068 512.243 80.8068 503.516 Q80.8068 494.766 83.8623 490.183 Q86.941 485.577 92.7512 485.577 Z" fill="#000000" fill-rule="nonzero" fill-opacity="1" /><path clip-path="url(#clip260)" d="M66.7559 58.8077 Q70.1124 59.5253 71.9874 61.7938 Q73.8855 64.0623 73.8855 67.3956 Q73.8855 72.5113 70.367 75.3122 Q66.8485 78.1131 60.3671 78.1131 Q58.1912 78.1131 55.8764 77.6733 Q53.5847 77.2567 51.131 76.4002 L51.131 71.8863 Q53.0754 73.0206 55.3903 73.5993 Q57.7051 74.178 60.2282 74.178 Q64.6263 74.178 66.918 72.4419 Q69.2328 70.7058 69.2328 67.3956 Q69.2328 64.3401 67.08 62.6271 Q64.9504 60.891 61.131 60.891 L57.1032 60.891 L57.1032 57.0484 L61.3161 57.0484 Q64.7652 57.0484 66.5939 55.6827 Q68.4226 54.2938 68.4226 51.7012 Q68.4226 49.0392 66.5245 47.6272 Q64.6495 46.192 61.131 46.192 Q59.2097 46.192 57.0106 46.6087 Q54.8115 47.0253 52.1727 47.905 L52.1727 43.7383 Q54.8347 42.9976 57.1495 42.6272 Q59.4875 42.2568 61.5476 42.2568 Q66.8717 42.2568 69.9735 44.6874 Q73.0753 47.0948 73.0753 51.2151 Q73.0753 54.0855 71.4318 56.0762 Q69.7883 58.0438 66.7559 58.8077 Z" fill="#000000" fill-rule="nonzero" fill-opacity="1" /><path clip-path="url(#clip260)" d="M92.7512 45.9605 Q89.1401 45.9605 87.3114 49.5253 Q85.5058 53.067 85.5058 60.1966 Q85.5058 67.303 87.3114 70.8678 Q89.1401 74.4095 92.7512 74.4095 Q96.3854 74.4095 98.1909 70.8678 Q100.02 67.303 100.02 60.1966 Q100.02 53.067 98.1909 49.5253 Q96.3854 45.9605 92.7512 45.9605 M92.7512 42.2568 Q98.5613 42.2568 101.617 46.8633 Q104.696 51.4466 104.696 60.1966 Q104.696 68.9234 101.617 73.5298 Q98.5613 78.1131 92.7512 78.1131 Q86.941 78.1131 83.8623 73.5298 Q80.8068 68.9234 80.8068 60.1966 Q80.8068 51.4466 83.8623 46.8633 Q86.941 42.2568 92.7512 42.2568 Z" fill="#000000" fill-rule="nonzero" fill-opacity="1" /><polyline clip-path="url(#clip262)" style="stroke:#009af9; stroke-linecap:round; stroke-linejoin:round; stroke-width:4; stroke-opacity:1; fill:none" points="140.696,1384.24 140.696,1384.24 148.831,1380.19 163.053,1373.11 164.352,1372.46 170.094,1369.61 174.556,1367.39 206.408,1351.53 207.557,1350.96 209.835,1349.83 211.527,1348.99 223.387,1343.08 224.849,1342.36 225.392,1342.09 230.194,1339.7 238.105,1335.76 240.978,1334.33 242.299,1333.67 245.008,1332.32 249.438,1330.12 255.265,1327.22 257.476,1326.12 257.634,1326.04 267.886,1320.94 282.071,1313.88 282.878,1313.48 294.131,1307.88 298.977,1305.46 303.542,1302.78 307.168,1300.71 309.784,1299.23 311.115,1298.49 317.433,1295.03 332.505,1287.05 332.755,1286.92 340.74,1282.8 362.01,1272.01 368.919,1268.54 370.896,1267.54 374.105,1265.93 386.004,1259.98 390.795,1257.59 391.464,1257.25 393.446,1256.26 402.879,1251.56 408.714,1248.65 416.832,1244.6 437.001,1234.56 440.823,1232.66 456.101,1225.05 461.85,1222.19 465.93,1220.16 472.329,1216.97 486.069,1209.12 486.557,1208.85 492.888,1205.41 504.159,1199.45 515.696,1192.59 515.749,1192.56 525.985,1186.87 547.05,1175.75 548.784,1174.86 550.486,1173.99 562.891,1167.67 571.609,1163.26 574.434,1161.84 574.596,1161.76 577.6,1160.25 579.41,1159.34 582.89,1157.6 592.765,1152.65 596.502,1150.79 596.901,1150.59 628.088,1135.03 638.526,1129.83 645.597,1126.31 648.978,1124.63 662.601,1117.85 669.259,1114.53 672.991,1112.68 678.586,1109.89 679.095,1109.64 696.698,1100.88 707.987,1095.26 709.299,1094.61 730.823,1083.89 731.227,1083.69 763.309,1067.73 771.605,1063.6 777.562,1060.63 785.772,1056.55 789.336,1054.77 797.904,1050.51 806.478,1046.24 813.21,1042.89 821.654,1038.69 839.282,1029.92 840.258,1029.43 848.952,1025.1 852.391,1023.39 854.718,1022.23 860.784,1019.21 875.03,1012.12 879.172,1010.06 882.99,1008.16 898.534,1000.43 905.68,996.87 909.265,995.086 909.529,994.929 914.18,991.783 923.175,986.118 924.988,985.029 931.103,981.457 934.295,979.645 947.077,972.651 950.802,970.671 950.806,970.669 951.778,970.156 958.699,966.535 962.381,964.629 976.281,957.52 977.609,956.847 987.951,951.623 1004.33,943.401 1019.19,935.976 1040.88,925.164 1041.2,925.005 1071.06,910.135 1072.77,909.281 1080,905.686 1138.94,876.35 1144.29,873.687 1160.34,865.696 1176.5,857.655 1177.1,857.357 1178.97,856.427 1193.62,849.133 1193.88,848.982 1212.65,838.389 1221.65,833.598 1226.58,831.018 1229.76,829.369 1233.1,827.646 1257.46,815.271 1268.2,809.88 1272.97,807.488 1280.87,803.538 1292.36,797.804 1304.73,790.688 1307.67,789.067 1326.83,778.883 1338.74,772.757 1345.49,769.324 1363.52,760.237 1364.56,759.716 1378.37,751.779 1400.19,740.142 1430.79,724.567 1441.58,719.152 1442.5,718.69 1456.25,711.819 1458.22,710.832 1460.05,709.921 1460.76,709.565 1465.47,707.216 1474.34,702.791 1478.92,700.508 1494.79,692.605 1496.99,691.508 1498.24,690.887 1507.53,686.262 1508.47,685.793 1508.56,685.746 1514.6,682.215 1519.97,679.181 1524.36,676.757 1528,674.782 1528.41,674.562 1540.33,668.249 1543.66,666.518 1543.99,666.348 1566.16,655.031 1569.21,653.491 1620.03,628.066 1628.61,623.793 1634.38,620.919 1634.45,620.881 1676.76,599.819 1693.67,591.403 1699.25,588.628 1707.07,584.734 1707.91,584.314 1709.69,583.429 1715.71,580.435 1717.04,579.774 1754.71,561.025 1757.76,559.225 1758.94,558.536 1760.74,557.499 1783.55,545.06 1787.2,543.152 1802.06,535.509 1803.04,535.006 1813.19,529.861 1819.13,526.87 1833.18,519.821 1845.78,512.565 1845.87,512.505 1849,510.488 1856.86,505.67 1889.21,487.935 1891.83,486.575 1900.62,481.335 1906.37,478.065 1912.38,474.745 1916.57,472.481 1921.31,469.95 1930.73,465.02 1938.38,461.076 1948.2,456.073 1950.41,454.951 1967.22,446.484 1969.28,445.451 1985.43,437.371 1991.44,434.374 1995.79,432.2 2001.04,429.116 2008.29,425.02 2013.54,421.671 2019.59,418.002 2054.22,399.11 2067.67,392.213 2073.2,389.409 2074.51,388.745 2074.85,388.572 2075.27,388.361 2084.58,383.67 2090.12,380.396 2092.51,378.798 2095.36,376.947 2098.53,374.94 2099.61,374.275 2101.75,372.968 2102.79,372.342 2103.46,371.943 2117.36,363.996 2135.15,354.488 2140.95,351.477 2147.35,348.192 2154.74,344.428 2156.62,343.474 2160.9,341.308 2163.79,339.849 2168.46,337.074 2172.98,334.066 2193.84,321.634 2197.44,319.645 2201.88,317.233 2206.4,314.811 2213.25,311.206 2213.91,310.857 2217.89,308.792 2221.79,306.777 2221.86,306.738 2223.74,305.588 2229.07,302.433 2233.43,299.93 2241.37,295.516 2245.93,293.047 2248.44,291.706 2262.31,284.437 2290.39,270.164 2294.42,268.136 2304.3,263.182 2314.43,258.12 2324.2,253.242 2324.41,253.138 2327.01,251.843 2329.16,250.771 2332.69,249.011 2343.44,243.652 2350.96,239.907 2352.76,239.012 "/>
<polyline clip-path="url(#clip262)" style="stroke:#e26f46; stroke-linecap:round; stroke-linejoin:round; stroke-width:4; stroke-opacity:1; fill:none" points="140.696,1384.24 140.696,1384.24 148.831,1380.19 163.053,1373.11 164.352,1372.34 170.094,1369.01 174.556,1366.09 206.408,1347.85 207.557,1347.24 209.835,1346.04 211.527,1345.15 223.387,1339 224.849,1338.25 225.392,1337.97 230.194,1335.09 238.105,1330.54 240.978,1328.94 242.299,1328.21 245.008,1326.47 249.438,1323.72 255.265,1320.25 257.476,1318.97 257.634,1318.88 267.886,1313.15 282.071,1304.54 282.878,1304.07 294.131,1297.81 298.977,1295.2 303.542,1292.77 307.168,1290.87 309.784,1289.51 311.115,1288.81 317.433,1285.55 332.505,1277.88 332.755,1277.75 340.74,1273.72 362.01,1261.7 368.919,1258.02 370.896,1256.98 374.105,1255 386.004,1248.07 390.795,1245.41 391.464,1244.97 393.446,1243.52 402.879,1237.09 408.714,1233.43 416.832,1227.94 437.001,1214.62 440.823,1212.36 456.101,1203.83 461.85,1200.25 465.93,1197.81 472.329,1193.56 486.069,1185.26 486.557,1184.98 492.888,1181.41 504.159,1175.3 515.696,1169.25 515.749,1169.22 525.985,1163.96 547.05,1153.3 548.784,1152.26 550.486,1151.26 562.891,1143.28 571.609,1138.16 574.434,1136.56 574.596,1136.47 577.6,1134.52 579.41,1133.37 582.89,1131.21 592.765,1125.4 596.502,1123.29 596.901,1123.07 628.088,1106.54 638.526,1101.22 645.597,1097.64 648.978,1095.94 662.601,1089.1 669.259,1085.2 672.991,1082.73 678.586,1079.21 679.095,1078.9 696.698,1067.56 707.987,1060.2 709.299,1059.4 730.823,1047.15 731.227,1046.94 763.309,1030.26 771.605,1026.07 777.562,1023.07 785.772,1018.94 789.336,1017.16 797.904,1012.87 806.478,1008.59 813.21,1005.23 821.654,1001.02 839.282,992.24 840.258,991.754 848.952,987.425 852.391,985.395 854.718,984.049 860.784,980.621 875.03,972.914 879.172,970.736 882.99,968.745 898.534,960.767 905.68,957.145 909.265,955.335 909.529,955.202 914.18,952.859 923.175,947.607 924.988,946.409 931.103,941.998 934.295,939.535 947.077,929.729 950.802,926.849 950.806,926.846 951.778,926.122 958.699,920.645 962.381,917.963 976.281,908.85 977.609,907.915 987.951,901.106 1004.33,890.333 1019.19,881.765 1040.88,870.204 1041.2,870.039 1071.06,854.837 1072.77,853.975 1080,850.349 1138.94,820.941 1144.29,818.276 1160.34,810.283 1176.5,802.241 1177.1,801.883 1178.97,800.602 1193.62,791.368 1193.88,791.218 1212.65,780.7 1221.65,775.929 1226.58,772.915 1229.76,771.034 1233.1,769.101 1257.46,755.859 1268.2,750.301 1272.97,747.857 1280.87,743.842 1292.36,738.047 1304.73,731.837 1307.67,730.367 1326.83,720.799 1338.74,714.86 1345.49,711.497 1363.52,702.518 1364.56,702.001 1378.37,695.127 1400.19,684.263 1430.79,669.035 1441.58,663.665 1442.5,663.205 1456.25,655.345 1458.22,654.26 1460.05,653.266 1460.76,652.879 1465.47,650.35 1474.34,645.673 1478.92,643.295 1494.79,635.179 1496.99,634.062 1498.24,633.431 1507.53,628.746 1508.47,628.273 1508.56,628.225 1514.6,625.193 1519.97,622.504 1524.36,620.306 1528,618.153 1528.41,617.874 1540.33,610.25 1543.66,608.263 1543.99,608.07 1566.16,595.762 1569.21,593.864 1620.03,566.25 1628.61,561.898 1634.38,558.984 1634.45,558.947 1676.76,537.774 1693.67,529.347 1699.25,526.57 1707.07,522.674 1707.91,522.253 1709.69,521.368 1715.71,518.374 1717.04,517.712 1754.71,497.153 1757.76,495.583 1758.94,494.861 1760.74,493.777 1783.55,480.98 1787.2,478.706 1802.06,470.064 1803.04,469.42 1813.19,463.129 1819.13,459.674 1833.18,451.914 1845.78,445.267 1845.87,445.219 1849,443.306 1856.86,438.691 1889.21,421.325 1891.83,419.977 1900.62,415.492 1906.37,412.578 1912.38,409.542 1916.57,407.436 1921.31,405.052 1930.73,400.334 1938.38,396.508 1948.2,391.607 1950.41,390.292 1967.22,379.677 1969.28,378.474 1985.43,369.497 1991.44,366.302 1995.79,364.014 2001.04,361.284 2008.29,357.559 2013.54,354.878 2019.59,351.806 2054.22,334.424 2067.67,327.71 2073.2,324.955 2074.51,324.301 2074.85,324.097 2075.27,323.848 2084.58,318.479 2090.12,315.405 2092.51,314.104 2095.36,312.303 2098.53,310.05 2099.61,309.309 2101.75,307.861 2102.79,307.172 2103.46,306.733 2117.36,298.188 2135.15,288.3 2140.95,285.219 2147.35,281.32 2154.74,277.035 2156.62,275.975 2160.9,273.596 2163.79,272.015 2168.46,269.493 2172.98,267.091 2193.84,254.949 2197.44,252.988 2201.88,250.204 2206.4,247.065 2213.25,242.616 2213.91,242.199 2217.89,239.762 2221.79,237.085 2221.86,237.042 2223.74,235.792 2229.07,232.395 2233.43,229.733 2241.37,225.099 2245.93,222.534 2248.44,220.913 2262.31,212.552 2290.39,195.785 2294.42,193.227 2304.3,187.316 2314.43,180.817 2324.2,175.053 2324.41,174.934 2327.01,173.464 2329.16,172.261 2332.69,170.312 2343.44,164.532 2350.96,160.593 2352.76,159.489 "/>
<polyline clip-path="url(#clip262)" style="stroke:#3da44d; stroke-linecap:round; stroke-linejoin:round; stroke-width:4; stroke-opacity:1; fill:none" points="140.696,1384.24 140.696,1384.24 148.831,1380.19 163.053,1372.07 164.352,1371.35 170.094,1367.74 174.556,1365.05 206.408,1345.92 207.557,1345.29 209.835,1343.85 211.527,1342.63 223.387,1333.86 224.849,1332.74 225.392,1332.27 230.194,1328.34 238.105,1321.84 240.978,1319.41 242.299,1318.33 245.008,1316.2 249.438,1312.91 255.265,1308.87 257.476,1307.2 257.634,1307.08 267.886,1299.16 282.071,1289.83 282.878,1289.34 294.131,1281.88 298.977,1278.92 303.542,1276.23 307.168,1273.81 309.784,1271.88 311.115,1270.92 317.433,1266.61 332.505,1257.35 332.755,1257.18 340.74,1252 362.01,1239.7 368.919,1235.39 370.896,1234.2 374.105,1232.3 386.004,1224.67 390.795,1221.39 391.464,1220.95 393.446,1219.65 402.879,1213.05 408.714,1209.31 416.832,1204.42 437.001,1193.22 440.823,1190.85 456.101,1180.89 461.85,1177.49 465.93,1174.77 472.329,1170.75 486.069,1162.74 486.557,1162.47 492.888,1158.98 504.159,1152.09 515.696,1145.57 515.749,1145.54 525.985,1140.02 547.05,1129.09 548.784,1128.2 550.486,1127.34 562.891,1121.06 571.609,1116.68 574.434,1115 574.596,1114.9 577.6,1113.15 579.41,1111.94 582.89,1109.35 592.765,1102.64 596.502,1100.28 596.901,1100.03 628.088,1080.82 638.526,1075.17 645.597,1071.44 648.978,1069.37 662.601,1061.5 669.259,1057.86 672.991,1055.85 678.586,1052.89 679.095,1052.57 696.698,1042.29 707.987,1036.17 709.299,1035.35 730.823,1022.9 731.227,1022.68 763.309,1004.22 771.605,999.158 777.562,995.19 785.772,989.411 789.336,987.076 797.904,981.779 806.478,976.808 813.21,972.489 821.654,967.419 839.282,956.406 840.258,955.841 848.952,950.94 852.391,949.056 854.718,947.577 860.784,943.86 875.03,935.717 879.172,933.457 882.99,931.053 898.534,920.853 905.68,916.627 909.265,914.249 909.529,914.078 914.18,911.131 923.175,905.75 924.988,904.705 931.103,901.259 934.295,899.501 947.077,892.658 950.802,890.708 950.806,890.706 951.778,890.01 958.699,885.298 962.381,882.935 976.281,874.649 977.609,873.896 987.951,868.197 1004.33,859.556 1019.19,851.943 1040.88,841.008 1041.2,840.816 1071.06,822.641 1072.77,821.701 1080,817.805 1138.94,787.742 1144.29,784.593 1160.34,774.545 1176.5,765.5 1177.1,765.176 1178.97,764.173 1193.62,756.472 1193.88,756.341 1212.65,746.75 1221.65,741.475 1226.58,738.701 1229.76,736.949 1233.1,735.131 1257.46,722.368 1268.2,716.055 1272.97,712.947 1280.87,708.104 1292.36,701.525 1304.73,694.821 1307.67,693.268 1326.83,682.084 1338.74,675.655 1345.49,672.11 1363.52,662.847 1364.56,662.218 1378.37,654.266 1400.19,641.233 1430.79,625.032 1441.58,619.535 1442.5,618.977 1456.25,611.069 1458.22,609.979 1460.05,608.807 1460.76,608.354 1465.47,605.017 1474.34,598.483 1478.92,595.4 1494.79,584.581 1496.99,583.22 1498.24,582.46 1507.53,576.26 1508.47,575.665 1508.56,575.596 1514.6,571.376 1519.97,567.869 1524.36,564.738 1528,562.274 1528.41,562.004 1540.33,554.569 1543.66,552.618 1543.99,552.428 1566.16,540.264 1569.21,538.66 1620.03,510.856 1628.61,505.788 1634.38,502.021 1634.45,501.974 1676.76,478.355 1693.67,469.7 1699.25,466.387 1707.07,461.277 1707.91,460.666 1709.69,459.234 1715.71,454.157 1717.04,453.106 1754.71,429.194 1757.76,427.528 1758.94,426.886 1760.74,425.917 1783.55,412.571 1787.2,410.586 1802.06,401.654 1803.04,401.093 1813.19,395.472 1819.13,392.287 1833.18,383.906 1845.78,376.953 1845.87,376.904 1849,375.229 1856.86,371.083 1889.21,354.567 1891.83,353.248 1900.62,348.838 1906.37,345.455 1912.38,341.518 1916.57,338.913 1921.31,336.067 1930.73,330.678 1938.38,325.836 1948.2,320.052 1950.41,318.796 1967.22,309.654 1969.28,308.567 1985.43,300.205 1991.44,297.146 1995.79,294.937 2001.04,292.282 2008.29,288.021 2013.54,285.047 2019.59,281.714 2054.22,263.67 2067.67,256.875 2073.2,254.099 2074.51,253.441 2074.85,253.269 2075.27,253.059 2084.58,248.398 2090.12,245.626 2092.51,244.433 2095.36,243.012 2098.53,241.426 2099.61,240.785 2101.75,239.32 2102.79,238.521 2103.46,238.016 2117.36,227.413 2135.15,216.219 2140.95,212.384 2147.35,208.407 2154.74,204.056 2156.62,202.982 2160.9,200.576 2163.79,198.709 2168.46,195.798 2172.98,193.089 2193.84,181.465 2197.44,179.224 2201.88,176.551 2206.4,173.912 2213.25,170.051 2213.91,169.682 2217.89,167.142 2221.79,164.736 2221.86,164.698 2223.74,163.562 2229.07,160.441 2233.43,157.567 2241.37,152.638 2245.93,149.946 2248.44,148.501 2262.31,139.798 2290.39,124.337 2294.42,122.232 2304.3,117.137 2314.43,111.983 2324.2,107.049 2324.41,106.923 2327.01,105.132 2329.16,103.485 2332.69,100.896 2343.44,93.6862 2350.96,88.452 2352.76,87.2699 "/>
<polyline clip-path="url(#clip262)" style="stroke:#c271d2; stroke-linecap:round; stroke-linejoin:round; stroke-width:4; stroke-opacity:1; fill:none" points="140.696,1384.24 140.696,1384.24 148.831,1380.19 163.053,1373.11 164.352,1372.34 170.094,1369.01 174.556,1366.09 206.408,1347.85 207.557,1347.13 209.835,1345.72 211.527,1344.69 223.387,1337.82 224.849,1337 225.392,1336.7 230.194,1333.64 238.105,1328.86 240.978,1327.19 242.299,1326.44 245.008,1324.65 249.438,1321.83 255.265,1317.77 257.476,1316.31 257.634,1316.21 267.886,1309.83 282.071,1300.69 282.878,1300.13 294.131,1292.79 298.977,1289.43 303.542,1286.43 307.168,1284.15 309.784,1282.54 311.115,1281.61 317.433,1277.39 332.505,1268.28 332.755,1268.14 340.74,1263.67 362.01,1251.01 368.919,1247.22 370.896,1246.16 374.105,1244.15 386.004,1237.12 390.795,1234.43 391.464,1234 393.446,1232.53 402.879,1226.07 408.714,1222.4 416.832,1216.89 437.001,1203.55 440.823,1201.29 456.101,1192.75 461.85,1189.17 465.93,1186.73 472.329,1182.48 486.069,1174.18 486.557,1173.9 492.888,1169.78 504.159,1163 515.696,1156.55 515.749,1156.52 525.985,1151.04 547.05,1140.15 548.784,1139.1 550.486,1138.08 562.891,1130.06 571.609,1124.91 574.434,1123.31 574.596,1123.2 577.6,1120.96 579.41,1119.66 582.89,1117.24 592.765,1110.87 596.502,1108.27 596.901,1108 628.088,1089.46 638.526,1083.07 645.597,1079 648.978,1077.11 662.601,1068.75 669.259,1064.37 672.991,1061.71 678.586,1057.44 679.095,1057.07 696.698,1044.33 707.987,1036.52 709.299,1035.67 730.823,1023.02 731.227,1022.8 763.309,1005.94 771.605,1001.72 777.562,998.713 785.772,994.582 789.336,992.794 797.904,988.502 806.478,984.216 813.21,980.855 821.654,976.643 839.282,967.859 840.258,967.373 848.952,963.043 852.391,961.014 854.718,959.667 860.784,955.71 875.03,946.158 879.172,943.63 882.99,941.37 898.534,932.668 905.68,928.849 909.265,926.962 909.529,926.824 914.18,924.399 923.175,919.028 924.988,917.812 931.103,913.348 934.295,910.863 947.077,900.994 950.802,898.102 950.806,898.099 951.778,897.371 958.699,891.877 962.381,889.188 976.281,880.056 977.609,879.119 987.951,872.303 1004.33,861.523 1019.19,852.952 1040.88,841.389 1041.2,841.224 1071.06,826.021 1072.77,825.159 1080,821.533 1138.94,792.125 1144.29,789.46 1160.34,781.467 1176.5,772.281 1177.1,771.895 1178.97,770.529 1193.62,760.833 1193.88,760.677 1212.65,749.879 1221.65,745.037 1226.58,741.995 1229.76,739.805 1233.1,737.59 1257.46,723.192 1268.2,717.411 1272.97,714.898 1280.87,710.796 1292.36,704.919 1304.73,698.658 1307.67,697.179 1326.83,687.575 1338.74,681.626 1345.49,678.259 1363.52,669.274 1364.56,668.756 1378.37,661.88 1400.19,651.015 1430.79,635.786 1441.58,630.416 1442.5,629.956 1456.25,622.096 1458.22,620.823 1460.05,619.669 1460.76,619.223 1465.47,616.349 1474.34,611.191 1478.92,608.63 1494.79,600.106 1496.99,598.952 1498.24,598.301 1507.53,593.502 1508.47,593.019 1508.56,592.971 1514.6,589.889 1519.97,586.69 1524.36,584.157 1528,581.773 1528.41,581.471 1540.33,572.398 1543.66,569.818 1543.99,569.572 1566.16,554.984 1569.21,552.914 1620.03,524.254 1628.61,519.863 1634.38,516.931 1634.45,516.886 1676.76,491.896 1693.67,483.113 1699.25,480.265 1707.07,476.297 1707.91,475.87 1709.69,474.972 1715.71,471.942 1717.04,471.144 1754.71,448.792 1757.76,447.171 1758.94,446.43 1760.74,445.32 1783.55,432.325 1787.2,430.034 1802.06,421.346 1803.04,420.7 1813.19,414.393 1819.13,410.931 1833.18,403.161 1845.78,396.508 1845.87,396.461 1849,394.546 1856.86,389.929 1889.21,372.56 1891.83,370.966 1900.62,365.839 1906.37,362.622 1912.38,359.344 1916.57,356.723 1921.31,353.436 1930.73,347.409 1938.38,342.858 1948.2,336.537 1950.41,334.98 1967.22,323.135 1969.28,321.641 1985.43,309.965 1991.44,306.171 1995.79,303.54 2001.04,300.475 2008.29,296.401 2013.54,293.529 2019.59,290.287 2054.22,272.474 2067.67,265.708 2073.2,262.939 2074.51,262.282 2074.85,262.077 2075.27,261.827 2084.58,256.443 2090.12,253.363 2092.51,252.06 2095.36,250.256 2098.53,248 2099.61,247.259 2101.75,245.81 2102.79,245.119 2103.46,244.615 2117.36,235.065 2135.15,224.54 2140.95,221.338 2147.35,217.339 2154.74,212.344 2156.62,211.137 2160.9,208.468 2163.79,206.72 2168.46,203.97 2172.98,201.389 2193.84,188.762 2197.44,186.755 2201.88,183.923 2206.4,180.744 2213.25,176.248 2213.91,175.827 2217.89,173.369 2221.79,170.675 2221.86,170.633 2223.74,169.375 2229.07,165.961 2233.43,163.288 2241.37,157.972 2245.93,155.114 2248.44,153.355 2262.31,144.457 2290.39,127.246 2294.42,124.659 2304.3,117.9 2314.43,110.848 2324.2,104.742 2324.41,104.617 2327.01,103.079 2329.16,101.826 2332.69,99.8046 2343.44,93.013 2350.96,88.6069 2352.76,87.4128 "/>
<polyline clip-path="url(#clip262)" style="stroke:#ac8d18; stroke-linecap:round; stroke-linejoin:round; stroke-width:4; stroke-opacity:1; fill:none" points="140.696,1384.24 140.696,1384.24 148.831,1380.19 163.053,1373.11 164.352,1372.46 170.094,1369.61 174.556,1367.39 206.408,1351.53 207.557,1350.96 209.835,1349.83 211.527,1348.99 223.387,1343.08 224.849,1342.36 225.392,1342.09 230.194,1339.7 238.105,1335.76 240.978,1334.33 242.299,1333.54 245.008,1331.96 249.438,1329.02 255.265,1325.35 257.476,1324.01 257.634,1323.9 267.886,1317.13 282.071,1308.73 282.878,1308.28 294.131,1302.1 298.977,1299.52 303.542,1297.12 307.168,1295.23 309.784,1293.87 311.115,1293.18 317.433,1289.39 332.505,1279.83 332.755,1279.68 340.74,1274.4 362.01,1261.96 368.919,1258.21 370.896,1256.96 374.105,1254.99 386.004,1248.06 390.795,1245.4 391.464,1245.03 393.446,1243.95 402.879,1238.91 408.714,1235.34 416.832,1230.62 437.001,1219.66 440.823,1217.66 456.101,1209.8 461.85,1206.88 465.93,1204.81 472.329,1201.59 486.069,1194.69 486.557,1194.4 492.888,1190.69 504.159,1184.41 515.696,1178.26 515.749,1178.23 525.985,1172.1 547.05,1160.53 548.784,1159.61 550.486,1158.72 562.891,1152.29 571.609,1147.13 574.434,1145.51 574.596,1145.42 577.6,1143.74 579.41,1142.73 582.89,1140.83 592.765,1134.74 596.502,1132.56 596.901,1132.29 628.088,1113.82 638.526,1108.27 645.597,1103.98 648.978,1102.01 662.601,1094.42 669.259,1090.86 672.991,1088.89 678.586,1085.97 679.095,1085.71 696.698,1076.7 707.987,1071 709.299,1070.34 730.823,1059.56 731.227,1059.35 763.309,1043.35 771.605,1039.22 777.562,1036.25 785.772,1032.17 789.336,1030.39 797.904,1025.42 806.478,1019.96 813.21,1015.95 821.654,1011.16 839.282,1001.68 840.258,1001.08 848.952,995.882 852.391,993.911 854.718,992.6 860.784,989.247 875.03,981.653 879.172,979.497 882.99,977.523 898.534,969.589 905.68,965.371 909.265,963.326 909.529,963.178 914.18,960.585 923.175,955.712 924.988,954.747 931.103,951.527 934.295,949.864 947.077,943.291 950.802,941.395 950.806,941.393 951.778,940.899 958.699,937.396 962.381,935.201 976.281,927.348 977.609,926.624 987.951,920.276 1004.33,911.064 1019.19,903.194 1040.88,890.713 1041.2,890.539 1071.06,874.93 1072.77,874.058 1080,870.395 1138.94,838.837 1144.29,836.138 1160.34,828.078 1176.5,820.004 1177.1,819.705 1178.97,818.772 1193.62,810.396 1193.88,810.257 1212.65,798.995 1221.65,794.037 1226.58,791.389 1229.76,789.705 1233.1,787.949 1257.46,775.439 1268.2,770.023 1272.97,767.622 1280.87,763 1292.36,755.737 1304.73,748.601 1307.67,746.702 1326.83,735.383 1338.74,727.994 1345.49,723.514 1363.52,711.557 1364.56,710.93 1378.37,703.003 1400.19,691.373 1430.79,674.145 1441.58,668.515 1442.5,668.038 1456.25,661.015 1458.22,660.013 1460.05,659.089 1460.76,658.658 1465.47,655.873 1474.34,650.838 1478.92,647.911 1494.79,638.572 1496.99,637.136 1498.24,636.216 1507.53,629.826 1508.47,629.124 1508.56,629.054 1514.6,624.772 1519.97,621.223 1524.36,618.461 1528,616.252 1528.41,616.008 1540.33,609.158 1543.66,607.322 1543.99,607.11 1566.16,594.01 1569.21,592.336 1620.03,566.094 1628.61,561.791 1634.38,558.902 1634.45,558.865 1676.76,537.761 1693.67,528.162 1699.25,525.156 1707.07,521.022 1707.91,520.58 1709.69,519.654 1715.71,516.54 1717.04,515.856 1754.71,496.81 1757.76,495.284 1758.94,494.692 1760.74,493.622 1783.55,480.924 1787.2,478.993 1802.06,471.29 1803.04,470.785 1813.19,464.806 1819.13,460.958 1833.18,452.598 1845.78,445.654 1845.87,445.606 1849,443.932 1856.86,439.13 1889.21,419.729 1891.83,418.312 1900.62,413.648 1906.37,410.648 1912.38,407.545 1916.57,405.401 1921.31,402.982 1930.73,397.449 1938.38,393.173 1948.2,387.88 1950.41,386.708 1967.22,377.991 1969.28,376.938 1985.43,368.753 1991.44,365.209 1995.79,362.328 2001.04,359.021 2008.29,354.693 2013.54,351.682 2019.59,348.316 2054.22,328.441 2067.67,321.424 2073.2,318.102 2074.51,317.206 2074.85,316.975 2075.27,316.652 2084.58,309.955 2090.12,306.317 2092.51,304.813 2095.36,303.063 2098.53,301.154 2099.61,300.519 2101.75,299.267 2102.79,298.666 2103.46,298.283 2117.36,290.573 2135.15,279.997 2140.95,276.785 2147.35,273.332 2154.74,269.425 2156.62,268.442 2160.9,265.83 2163.79,264.115 2168.46,261.41 2172.98,258.864 2193.84,247.68 2197.44,245.812 2201.88,243.523 2206.4,241.205 2213.25,237.134 2213.91,236.682 2217.89,234.06 2221.79,231.586 2221.86,231.547 2223.74,230.383 2229.07,226.722 2233.43,223.887 2241.37,219.011 2245.93,215.932 2248.44,214.305 2262.31,205.924 2290.39,190.73 2294.42,188.642 2304.3,183.579 2314.43,178.445 2324.2,172.736 2324.41,172.618 2327.01,171.159 2329.16,169.964 2332.69,167.702 2343.44,161.224 2350.96,156.962 2352.76,155.967 "/>
<polyline clip-path="url(#clip262)" style="stroke:#00a9ad; stroke-linecap:round; stroke-linejoin:round; stroke-width:4; stroke-opacity:1; fill:none" points="140.696,1384.24 140.696,1384.24 148.831,1380.19 163.053,1373.11 164.352,1372.46 170.094,1369.1 174.556,1366.57 206.408,1349.65 207.557,1349.06 209.835,1347.9 211.527,1347.04 223.387,1340.11 224.849,1339.29 225.392,1338.99 230.194,1336.34 238.105,1331.42 240.978,1329.71 242.299,1328.93 245.008,1327.37 249.438,1324.86 255.265,1321.64 257.476,1320.44 257.634,1320.35 267.886,1314.89 282.071,1307.55 282.878,1307.14 294.131,1301.41 298.977,1298.96 303.542,1296.67 307.168,1294.51 309.784,1292.74 311.115,1291.86 317.433,1287.85 332.505,1279.04 332.755,1278.88 340.74,1273.84 362.01,1261.74 368.919,1257.46 370.896,1256.28 374.105,1254.4 386.004,1246.8 390.795,1243.52 391.464,1243.08 393.446,1241.79 402.879,1235.96 408.714,1232.56 416.832,1228.01 437.001,1217.29 440.823,1215.31 456.101,1206.41 461.85,1203.25 465.93,1200.68 472.329,1196.83 486.069,1189.06 486.557,1188.79 492.888,1185.38 504.159,1179.45 515.696,1173.51 515.749,1173.49 525.985,1168.29 547.05,1157.69 548.784,1156.82 550.486,1155.97 562.891,1149.77 571.609,1145.42 574.434,1143.75 574.596,1143.65 577.6,1141.91 579.41,1140.88 582.89,1138.6 592.765,1132.52 596.502,1130.34 596.901,1130.11 628.088,1113.28 638.526,1107.93 645.597,1104.34 648.978,1102.63 662.601,1095.77 669.259,1092.43 672.991,1090.57 678.586,1087.77 679.095,1087.46 696.698,1077.5 707.987,1071.48 709.299,1070.66 730.823,1058.31 731.227,1058.09 763.309,1039.67 771.605,1034.62 777.562,1030.65 785.772,1025.56 789.336,1023.45 797.904,1018.57 806.478,1013.88 813.21,1009.72 821.654,1004.79 839.282,993.95 840.258,993.39 848.952,988.532 852.391,986.661 854.718,985.189 860.784,981.489 875.03,973.372 879.172,971.116 882.99,969.066 898.534,959.813 905.68,955.844 909.265,953.568 909.529,953.404 914.18,950.565 923.175,945.338 924.988,944.318 931.103,940.941 934.295,939.211 947.077,932.451 950.802,930.517 950.806,930.515 951.778,929.918 958.699,925.795 962.381,923.68 976.281,916.029 977.609,915.32 987.951,909.877 1004.33,901.463 1019.19,893.951 1040.88,883.083 1041.2,882.892 1071.06,864.746 1072.77,863.807 1080,859.913 1138.94,829.857 1144.29,826.708 1160.34,817.799 1176.5,809.31 1177.1,809 1178.97,808.038 1193.62,800.562 1193.88,800.434 1212.65,790.98 1221.65,785.739 1226.58,782.978 1229.76,781.233 1233.1,779.422 1257.46,766.687 1268.2,761.227 1272.97,758.385 1280.87,753.874 1292.36,747.609 1304.73,741.103 1307.67,739.583 1326.83,728.534 1338.74,722.146 1345.49,718.616 1363.52,709.377 1364.56,708.85 1378.37,701.884 1400.19,689.568 1430.79,673.688 1441.58,668.234 1442.5,667.678 1456.25,659.8 1458.22,658.713 1460.05,657.543 1460.76,657.091 1465.47,653.76 1474.34,647.233 1478.92,644.153 1494.79,634.47 1496.99,633.211 1498.24,632.505 1507.53,626.625 1508.47,626.055 1508.56,625.989 1514.6,621.909 1519.97,618.498 1524.36,615.827 1528,613.681 1528.41,613.443 1540.33,606.738 1543.66,604.93 1543.99,604.753 1566.16,593.139 1569.21,591.577 1620.03,564.026 1628.61,559.676 1634.38,556.258 1634.45,556.214 1676.76,533.595 1693.67,525.033 1699.25,521.738 1707.07,516.647 1707.91,516.121 1709.69,514.856 1715.71,510.255 1717.04,509.292 1754.71,486.56 1757.76,484.928 1758.94,484.298 1760.74,483.346 1783.55,470.13 1787.2,468.156 1802.06,459.254 1803.04,458.694 1813.19,453.084 1819.13,449.905 1833.18,441.53 1845.78,434.58 1845.87,434.532 1849,432.857 1856.86,428.712 1889.21,412.198 1891.83,410.879 1900.62,406.47 1906.37,403.086 1912.38,399.149 1916.57,396.545 1921.31,393.699 1930.73,388.31 1938.38,383.468 1948.2,377.684 1950.41,376.428 1967.22,367.286 1969.28,366.199 1985.43,357.837 1991.44,354.778 1995.79,352.569 2001.04,349.914 2008.29,346.269 2013.54,343.631 2019.59,340.598 2054.22,323.315 2067.67,316.612 2073.2,313.86 2074.51,313.207 2074.85,313.037 2075.27,312.829 2084.58,308.195 2090.12,305.434 2092.51,304.245 2095.36,302.829 2098.53,301.246 2099.61,300.607 2101.75,299.144 2102.79,298.347 2103.46,297.842 2117.36,288.279 2135.15,277.745 2140.95,274.034 2147.35,270.16 2154.74,265.897 2156.62,264.841 2160.9,262.471 2163.79,260.625 2168.46,257.742 2172.98,255.055 2193.84,243.492 2197.44,241.256 2201.88,238.589 2206.4,235.955 2213.25,232.1 2213.91,231.732 2217.89,229.194 2221.79,226.79 2221.86,226.752 2223.74,225.617 2229.07,222.498 2233.43,219.626 2241.37,214.698 2245.93,212.008 2248.44,210.563 2262.31,202.89 2290.39,188.282 2294.42,186.232 2304.3,181.239 2314.43,176.15 2324.2,171.256 2324.41,171.131 2327.01,169.592 2329.16,168.133 2332.69,165.815 2343.44,159.21 2350.96,154.255 2352.76,153.127 "/>
<polyline clip-path="url(#clip262)" style="stroke:#ed5d92; stroke-linecap:round; stroke-linejoin:round; stroke-width:4; stroke-opacity:1; fill:none" points="140.696,1384.24 140.696,1384.24 148.831,1380.19 163.053,1372.07 164.352,1371.35 170.094,1367.74 174.556,1365.05 206.408,1345.92 207.557,1345.18 209.835,1343.53 211.527,1342.18 223.387,1332.68 224.849,1331.49 225.392,1331 230.194,1326.89 238.105,1320.15 240.978,1317.66 242.299,1316.56 245.008,1314.38 249.438,1311.01 255.265,1306.39 257.476,1304.53 257.634,1304.4 267.886,1295.83 282.071,1285.98 282.878,1285.39 294.131,1276.86 298.977,1273.15 303.542,1269.88 307.168,1267.42 309.784,1265.46 311.115,1264.36 317.433,1259.48 332.505,1249.36 332.755,1249.18 340.74,1243.74 362.01,1231.07 368.919,1227.28 370.896,1226.22 374.105,1224.5 386.004,1217.35 390.795,1214.2 391.464,1213.77 393.446,1212.52 402.879,1206.08 408.714,1202.41 416.832,1197.6 437.001,1186.51 440.823,1184.14 456.101,1174.21 461.85,1170.81 465.93,1168.48 472.329,1164.91 486.069,1157.55 486.557,1157.3 492.888,1153.45 504.159,1146.12 515.696,1139.32 515.749,1139.29 525.985,1133.62 547.05,1122.54 548.784,1121.64 550.486,1120.77 562.891,1114.46 571.609,1110.06 574.434,1108.64 574.596,1108.54 577.6,1106.75 579.41,1105.52 582.89,1103.23 592.765,1097.11 596.502,1094.58 596.901,1094.32 628.088,1074.4 638.526,1067.83 645.597,1063.69 648.978,1061.46 662.601,1052.14 669.259,1048.05 672.991,1045.85 678.586,1042.15 679.095,1041.83 696.698,1031.36 707.987,1025.18 709.299,1024.35 730.823,1011.85 731.227,1011.63 763.309,994.833 771.605,990.625 777.562,987.619 785.772,982.808 789.336,980.794 797.904,976.087 806.478,971.518 813.21,968.001 821.654,963.648 839.282,953.485 840.258,952.951 848.952,948.267 852.391,946.449 854.718,945.228 860.784,941.542 875.03,932.4 879.172,929.95 882.99,927.401 898.534,917.922 905.68,913.892 909.265,911.921 909.529,911.777 914.18,909.264 923.175,904.503 924.988,903.556 931.103,900.386 934.295,898.744 947.077,892.232 950.802,890.348 950.806,890.345 951.778,889.76 958.699,885.706 962.381,883.62 976.281,876.044 977.609,875.34 987.951,869.927 1004.33,861.54 1019.19,854.04 1040.88,843.18 1041.2,843.02 1071.06,828.128 1072.77,827.274 1080,823.676 1138.94,794.336 1144.29,791.673 1160.34,782.543 1176.5,772.802 1177.1,772.461 1178.97,771.407 1193.62,763.425 1193.88,763.29 1212.65,753.529 1221.65,748.211 1226.58,745.419 1229.76,743.363 1233.1,741.27 1257.46,727.373 1268.2,720.841 1272.97,717.665 1280.87,712.737 1292.36,706.078 1304.73,699.323 1307.67,697.762 1326.83,687.822 1338.74,681.771 1345.49,678.365 1363.52,669.322 1364.56,668.701 1378.37,660.826 1400.19,647.849 1430.79,631.673 1441.58,626.18 1442.5,625.622 1456.25,617.717 1458.22,616.438 1460.05,615.281 1460.76,614.834 1465.47,611.952 1474.34,606.053 1478.92,603.211 1494.79,592.93 1496.99,591.617 1498.24,590.883 1507.53,584.834 1508.47,584.251 1508.56,584.193 1514.6,580.564 1519.97,576.988 1524.36,573.812 1528,571.316 1528.41,571.043 1540.33,562.617 1543.66,560.164 1543.99,559.929 1566.16,545.831 1569.21,544.082 1620.03,515.39 1628.61,510.29 1634.38,507.014 1634.45,506.964 1676.76,480.987 1693.67,472.111 1699.25,469.246 1707.07,465.259 1707.91,464.747 1709.69,463.683 1715.71,460.176 1717.04,459.29 1754.71,437.567 1757.76,435.963 1758.94,435.344 1760.74,434.406 1783.55,421.303 1787.2,419.338 1802.06,411.541 1803.04,411.031 1813.19,405.829 1819.13,402.815 1833.18,394.694 1845.78,387.868 1845.87,387.82 1849,386.166 1856.86,382.064 1889.21,365.626 1891.83,364.063 1900.62,359.019 1906.37,355.84 1912.38,352.069 1916.57,349.175 1921.31,345.636 1930.73,339.241 1938.38,334.487 1948.2,327.989 1950.41,326.612 1967.22,316.852 1969.28,315.521 1985.43,304.716 1991.44,301.114 1995.79,298.594 2001.04,295.637 2008.29,291.06 2013.54,287.913 2019.59,284.425 2054.22,265.991 2067.67,259.149 2073.2,256.36 2074.51,255.699 2074.85,255.527 2075.27,255.317 2084.58,250.642 2090.12,247.863 2092.51,246.669 2095.36,245.245 2098.53,243.656 2099.61,243.12 2101.75,241.847 2102.79,241.135 2103.46,240.618 2117.36,229.836 2135.15,218.529 2140.95,215.181 2147.35,211.612 2154.74,206.982 2156.62,205.851 2160.9,203.33 2163.79,201.398 2168.46,198.397 2172.98,195.618 2193.84,183.805 2197.44,181.545 2201.88,178.853 2206.4,176.198 2213.25,172.319 2213.91,171.949 2217.89,169.4 2221.79,166.988 2221.86,166.949 2223.74,165.811 2229.07,162.683 2233.43,159.805 2241.37,154.204 2245.93,151.222 2248.44,149.641 2262.31,140.41 2290.39,124.511 2294.42,122.376 2304.3,116.436 2314.43,110.728 2324.2,105.452 2324.41,105.321 2327.01,103.462 2329.16,101.969 2332.69,99.6018 2343.44,92.0388 2350.96,87.2767 2352.76,86.1857 "/>
<polyline clip-path="url(#clip262)" style="stroke:#c68125; stroke-linecap:round; stroke-linejoin:round; stroke-width:4; stroke-opacity:1; fill:none" points="140.696,1384.24 140.696,1384.24 148.831,1380.19 163.053,1372.07 164.352,1371.35 170.094,1368.24 174.556,1365.87 206.408,1347.8 207.557,1347.08 209.835,1345.46 211.527,1344.13 223.387,1335.66 224.849,1334.56 225.392,1334.1 230.194,1330.25 238.105,1324.5 240.978,1322.28 242.299,1321.3 245.008,1319.34 249.438,1316.28 255.265,1311.97 257.476,1310.22 257.634,1310.09 267.886,1301.88 282.071,1292.31 282.878,1291.73 294.131,1283.33 298.977,1279.65 303.542,1276.41 307.168,1273.97 309.784,1272.26 311.115,1271.29 317.433,1266.88 332.505,1257.49 332.755,1257.34 340.74,1252.78 362.01,1240 368.919,1236.2 370.896,1235.13 374.105,1233.41 386.004,1227.15 390.795,1224.68 391.464,1224.34 393.446,1223.13 402.879,1216.85 408.714,1213.26 416.832,1207.84 437.001,1195.93 440.823,1193.48 456.101,1184.41 461.85,1180.71 465.93,1178.2 472.329,1174.43 486.069,1166.77 486.557,1166.5 492.888,1162.57 504.159,1155.14 515.696,1148.28 515.749,1148.24 525.985,1142.54 547.05,1131.43 548.784,1130.37 550.486,1129.34 562.891,1122.21 571.609,1117.45 574.434,1115.94 574.596,1115.84 577.6,1113.69 579.41,1112.26 582.89,1109.63 592.765,1102.82 596.502,1100.09 596.901,1099.8 628.088,1079.09 638.526,1072.43 645.597,1068.24 648.978,1066 662.601,1056.63 669.259,1051.95 672.991,1049.15 678.586,1044.72 679.095,1044.34 696.698,1031.29 707.987,1024.25 709.299,1023.48 730.823,1011.51 731.227,1011.3 763.309,994.756 771.605,990.572 777.562,987.578 785.772,982.78 789.336,980.77 797.904,976.07 806.478,971.507 813.21,967.992 821.654,963.643 839.282,954.695 840.258,954.203 848.952,949.831 852.391,948.107 854.718,946.941 860.784,943.376 875.03,934.415 879.172,931.999 882.99,929.476 898.534,920.068 905.68,916.057 909.265,914.094 909.529,913.951 914.18,911.446 923.175,905.96 924.988,904.899 931.103,901.407 934.295,899.333 947.077,891.595 950.802,889.126 950.806,889.123 951.778,888.4 958.699,883.526 962.381,881.096 976.281,872.634 977.609,871.87 987.951,866.1 1004.33,857.397 1019.19,849.755 1040.88,838.803 1041.2,838.642 1071.06,823.709 1072.77,822.854 1080,819.253 1138.94,789.904 1144.29,787.24 1160.34,778.11 1176.5,768.369 1177.1,767.969 1178.97,766.563 1193.62,756.641 1193.88,756.483 1212.65,745.549 1221.65,740.673 1226.58,737.617 1229.76,735.42 1233.1,733.198 1257.46,718.772 1268.2,712.139 1272.97,709.359 1280.87,704.926 1292.36,698.735 1304.73,692.275 1307.67,690.763 1326.83,681.025 1338.74,675.035 1345.49,671.652 1363.52,662.643 1364.56,662.024 1378.37,654.161 1400.19,642.579 1430.79,627.028 1441.58,621.616 1442.5,621.154 1456.25,614.285 1458.22,613.11 1460.05,612.04 1460.76,611.625 1465.47,608.932 1474.34,604.026 1478.92,601.561 1494.79,592.121 1496.99,590.884 1498.24,590.19 1507.53,585.133 1508.47,584.63 1508.56,584.579 1514.6,581.385 1519.97,578.108 1524.36,575.128 1528,572.434 1528.41,572.1 1540.33,562.317 1543.66,559.598 1543.99,559.339 1566.16,544.215 1569.21,542.105 1620.03,513.198 1628.61,508.091 1634.38,504.81 1634.45,504.761 1676.76,478.772 1693.67,469.895 1699.25,467.03 1707.07,463.043 1707.91,462.531 1709.69,461.467 1715.71,457.96 1717.04,457.074 1754.71,433.542 1757.76,431.886 1758.94,431.249 1760.74,430.285 1783.55,418.402 1787.2,416.541 1802.06,409.026 1803.04,408.434 1813.19,402.56 1819.13,399.273 1833.18,391.772 1845.78,385.251 1845.87,385.204 1849,383.603 1856.86,379.604 1889.21,363.352 1891.83,361.796 1900.62,356.768 1906.37,353.597 1912.38,350.357 1916.57,347.757 1921.31,344.489 1930.73,338.489 1938.38,333.954 1948.2,327.647 1950.41,326.092 1967.22,315.433 1969.28,314.031 1985.43,302.851 1991.44,299.166 1995.79,296.598 2001.04,293.595 2008.29,288.97 2013.54,285.796 2019.59,282.285 2054.22,263.79 2067.67,256.941 2073.2,254.15 2074.51,253.489 2074.85,253.283 2075.27,253.032 2084.58,247.623 2090.12,244.533 2092.51,243.226 2095.36,241.418 2098.53,239.159 2099.61,238.416 2101.75,236.965 2102.79,236.274 2103.46,235.769 2117.36,225.18 2135.15,213.996 2140.95,210.671 2147.35,207.121 2154.74,202.508 2156.62,201.379 2160.9,198.866 2163.79,197.207 2168.46,194.58 2172.98,192.095 2193.84,181.076 2197.44,179.223 2201.88,176.551 2206.4,173.912 2213.25,170.051 2213.91,169.682 2217.89,167.504 2221.79,165.396 2221.86,165.363 2223.74,164.353 2229.07,161.535 2233.43,159.255 2241.37,154.484 2245.93,151.861 2248.44,150.448 2262.31,141.871 2290.39,126.513 2294.42,124.414 2304.3,118.538 2314.43,112.872 2324.2,107.622 2324.41,107.511 2327.01,105.899 2329.16,104.59 2332.69,102.489 2343.44,95.5181 2350.96,91.0293 2352.76,89.8193 "/>
<polyline clip-path="url(#clip262)" style="stroke:#00a98d; stroke-linecap:round; stroke-linejoin:round; stroke-width:4; stroke-opacity:1; fill:none" points="140.696,1384.24 140.696,1384.24 148.831,1380.19 163.053,1373.11 164.352,1372.46 170.094,1369.61 174.556,1367.39 206.408,1351.53 207.557,1350.96 209.835,1349.83 211.527,1348.99 223.387,1343.08 224.849,1342.36 225.392,1342.09 230.194,1339.7 238.105,1335.76 240.978,1334.33 242.299,1333.54 245.008,1331.96 249.438,1329.02 255.265,1325.35 257.476,1324.01 257.634,1323.9 267.886,1317.13 282.071,1308.73 282.878,1308.28 294.131,1302.1 298.977,1299.52 303.542,1297.12 307.168,1295.23 309.784,1293.87 311.115,1293.18 317.433,1289.39 332.505,1279.83 332.755,1279.68 340.74,1274.4 362.01,1261.96 368.919,1258.21 370.896,1256.96 374.105,1254.99 386.004,1248.06 390.795,1245.4 391.464,1245.03 393.446,1243.95 402.879,1238.91 408.714,1235.34 416.832,1230.62 437.001,1219.66 440.823,1217.66 456.101,1209.8 461.85,1206.88 465.93,1204.81 472.329,1201.59 486.069,1194.69 486.557,1194.4 492.888,1190.69 504.159,1184.41 515.696,1178.26 515.749,1178.23 525.985,1172.1 547.05,1160.53 548.784,1159.61 550.486,1158.72 562.891,1152.29 571.609,1147.13 574.434,1145.51 574.596,1145.42 577.6,1143.74 579.41,1142.73 582.89,1140.83 592.765,1134.74 596.502,1132.56 596.901,1132.29 628.088,1113.82 638.526,1108.27 645.597,1103.98 648.978,1102.01 662.601,1094.42 669.259,1090.86 672.991,1088.89 678.586,1085.97 679.095,1085.71 696.698,1076.7 707.987,1071 709.299,1070.34 730.823,1059.56 731.227,1059.35 763.309,1043.35 771.605,1039.22 777.562,1036.25 785.772,1032.17 789.336,1030.39 797.904,1025.42 806.478,1019.96 813.21,1015.95 821.654,1011.16 839.282,1001.68 840.258,1001.08 848.952,995.882 852.391,993.911 854.718,992.6 860.784,989.247 875.03,981.653 879.172,979.497 882.99,977.523 898.534,969.589 905.68,965.371 909.265,963.326 909.529,963.178 914.18,960.585 923.175,955.712 924.988,954.747 931.103,951.527 934.295,949.864 947.077,943.291 950.802,941.395 950.806,941.393 951.778,940.899 958.699,937.396 962.381,935.201 976.281,927.348 977.609,926.624 987.951,920.276 1004.33,911.064 1019.19,903.194 1040.88,890.713 1041.2,890.539 1071.06,874.93 1072.77,874.058 1080,870.395 1138.94,838.837 1144.29,836.138 1160.34,828.078 1176.5,820.004 1177.1,819.705 1178.97,818.772 1193.62,810.396 1193.88,810.257 1212.65,798.995 1221.65,794.037 1226.58,791.389 1229.76,789.705 1233.1,787.949 1257.46,775.439 1268.2,770.023 1272.97,767.622 1280.87,763 1292.36,755.737 1304.73,748.601 1307.67,746.702 1326.83,735.383 1338.74,727.994 1345.49,723.514 1363.52,711.557 1364.56,710.93 1378.37,703.003 1400.19,691.373 1430.79,674.145 1441.58,668.515 1442.5,668.038 1456.25,661.015 1458.22,660.013 1460.05,659.089 1460.76,658.658 1465.47,655.873 1474.34,650.838 1478.92,647.911 1494.79,638.572 1496.99,637.136 1498.24,636.216 1507.53,629.826 1508.47,629.124 1508.56,629.054 1514.6,624.772 1519.97,621.223 1524.36,618.461 1528,616.252 1528.41,616.008 1540.33,609.158 1543.66,607.322 1543.99,607.11 1566.16,594.01 1569.21,592.336 1620.03,566.094 1628.61,561.791 1634.38,558.902 1634.45,558.865 1676.76,537.761 1693.67,528.162 1699.25,525.156 1707.07,521.022 1707.91,520.58 1709.69,519.654 1715.71,516.54 1717.04,515.856 1754.71,496.81 1757.76,495.284 1758.94,494.692 1760.74,493.622 1783.55,480.924 1787.2,478.993 1802.06,471.29 1803.04,470.785 1813.19,464.806 1819.13,460.958 1833.18,452.598 1845.78,445.654 1845.87,445.606 1849,443.932 1856.86,439.13 1889.21,419.729 1891.83,418.312 1900.62,413.648 1906.37,410.648 1912.38,407.545 1916.57,405.401 1921.31,402.982 1930.73,397.449 1938.38,393.173 1948.2,387.88 1950.41,386.708 1967.22,377.991 1969.28,376.938 1985.43,368.753 1991.44,365.209 1995.79,362.328 2001.04,359.021 2008.29,354.693 2013.54,351.682 2019.59,348.316 2054.22,328.441 2067.67,321.424 2073.2,318.102 2074.51,317.206 2074.85,316.975 2075.27,316.652 2084.58,309.955 2090.12,306.317 2092.51,304.813 2095.36,303.063 2098.53,301.154 2099.61,300.519 2101.75,299.267 2102.79,298.666 2103.46,298.283 2117.36,290.573 2135.15,279.997 2140.95,276.785 2147.35,273.332 2154.74,269.425 2156.62,268.442 2160.9,265.83 2163.79,264.115 2168.46,261.41 2172.98,258.864 2193.84,247.68 2197.44,245.812 2201.88,243.523 2206.4,241.205 2213.25,237.134 2213.91,236.682 2217.89,234.06 2221.79,231.586 2221.86,231.547 2223.74,230.383 2229.07,226.722 2233.43,223.887 2241.37,219.011 2245.93,215.932 2248.44,214.305 2262.31,205.924 2290.39,190.73 2294.42,188.642 2304.3,183.579 2314.43,178.445 2324.2,172.736 2324.41,172.618 2327.01,171.159 2329.16,169.964 2332.69,167.702 2343.44,161.224 2350.96,156.962 2352.76,155.967 "/>
<polyline clip-path="url(#clip262)" style="stroke:#8e971d; stroke-linecap:round; stroke-linejoin:round; stroke-width:4; stroke-opacity:1; fill:none" points="140.696,1384.24 140.696,1384.24 148.831,1379.51 163.053,1371.71 164.352,1371.01 170.094,1367.98 174.556,1365.65 206.408,1349.43 207.557,1348.86 209.835,1347.71 211.527,1346.86 223.387,1340.92 224.849,1340.19 225.392,1339.92 230.194,1337.52 238.105,1333.57 240.978,1332.14 242.299,1331.48 245.008,1330.13 249.438,1327.92 255.265,1325.02 257.476,1323.91 257.634,1323.84 267.886,1318.73 282.071,1311.67 282.878,1311.26 294.131,1305.66 298.977,1303.25 303.542,1300.98 307.168,1299.17 309.784,1297.87 311.115,1297.21 317.433,1294.06 332.505,1286.56 332.755,1286.44 340.74,1282.46 362.01,1271.88 368.919,1268.44 370.896,1267.46 374.105,1265.86 386.004,1259.94 390.795,1257.55 391.464,1257.22 393.446,1256.23 402.879,1251.54 408.714,1248.63 416.832,1244.59 437.001,1234.56 440.823,1232.65 456.101,1225.05 461.85,1222.19 465.93,1220.16 472.329,1216.97 486.069,1210.14 486.557,1209.89 492.888,1206.74 504.159,1201.13 515.696,1195.39 515.749,1195.36 525.985,1189.45 547.05,1176.76 548.784,1175.79 550.486,1174.68 562.891,1167.12 571.609,1162.18 574.434,1160.62 574.596,1160.53 577.6,1158.9 579.41,1157.92 582.89,1156.06 592.765,1150.87 596.502,1148.94 596.901,1148.73 628.088,1132.91 638.526,1127.67 645.597,1124.14 648.978,1122.45 662.601,1115.65 669.259,1112.33 672.991,1110.47 678.586,1107.68 679.095,1107.43 696.698,1098.66 707.987,1093.04 709.299,1092.39 730.823,1080.3 731.227,1080.05 763.309,1061.79 771.605,1057.44 777.562,1054.36 785.772,1050.16 789.336,1048.02 797.904,1043.08 806.478,1038.35 813.21,1034.75 821.654,1029.62 839.282,1019.74 840.258,1019.22 848.952,1013.89 852.391,1011.88 854.718,1010.55 860.784,1007.14 875.03,999.472 879.172,996.925 882.99,994.65 898.534,985.907 905.68,982.077 909.265,980.185 909.529,980.047 914.18,977.617 923.175,972.977 924.988,972.048 931.103,968.932 934.295,967.313 947.077,960.864 950.802,958.993 950.806,958.991 951.778,958.503 958.699,955.034 962.381,953.192 976.281,945.218 977.609,944.487 987.951,938.914 1004.33,930.385 1019.19,921.742 1040.88,910.132 1041.2,909.967 1071.06,894.743 1072.77,893.717 1080,888.906 1138.94,856.625 1144.29,853.914 1160.34,845.832 1176.5,837.747 1177.1,837.447 1178.97,836.514 1193.62,829.203 1193.88,829.076 1212.65,819.721 1221.65,815.241 1226.58,812.784 1229.76,811.202 1233.1,809.231 1257.46,794.361 1268.2,788.489 1272.97,785.947 1280.87,781.81 1292.36,775.9 1304.73,769.617 1307.67,768.135 1326.83,758.517 1338.74,752.564 1345.49,749.194 1363.52,740.207 1364.56,739.69 1378.37,732.812 1400.19,721.946 1430.79,706.717 1441.58,700.496 1442.5,699.981 1456.25,692.538 1458.22,691.494 1460.05,690.536 1460.76,690.162 1465.47,687.709 1474.34,683.138 1478.92,680.8 1494.79,672.774 1496.99,671.666 1498.24,671.038 1507.53,666.379 1508.47,665.908 1508.56,665.86 1514.6,662.84 1519.97,660.158 1524.36,657.965 1528,656.149 1528.41,655.945 1540.33,649.999 1543.66,648.339 1543.99,648.176 1566.16,635.738 1569.21,634.114 1620.03,608.175 1628.61,603.884 1634.38,601 1634.45,600.962 1676.76,579.874 1693.67,571.456 1699.25,568.68 1707.07,564.786 1707.91,564.365 1709.69,563.48 1715.71,560.487 1717.04,559.825 1754.71,541.076 1757.76,539.558 1758.94,538.969 1760.74,538.075 1783.55,526.72 1787.2,524.904 1802.06,517.511 1803.04,517.02 1813.19,511.968 1819.13,509.014 1833.18,502.023 1845.78,495.752 1845.87,495.707 1849,494.149 1856.86,490.235 1889.21,474.136 1891.83,472.831 1900.62,468.459 1906.37,465.597 1912.38,462.604 1916.57,460.521 1921.31,458.159 1930.73,453.473 1938.38,449.664 1948.2,444.778 1950.41,443.676 1967.22,435.311 1969.28,434.285 1985.43,426.248 1991.44,423.26 1995.79,421.092 2001.04,418.478 2008.29,414.875 2013.54,412.26 2019.59,408.72 2054.22,390.156 2067.67,382.293 2073.2,379.234 2074.51,378.518 2074.85,378.332 2075.27,378.105 2084.58,372.374 2090.12,369.147 2092.51,367.791 2095.36,366.197 2098.53,364.441 2099.61,363.853 2101.75,362.688 2102.79,362.126 2103.46,361.767 2117.36,354.428 2135.15,345.306 2140.95,342.368 2147.35,339.143 2154.74,335.43 2156.62,334.308 2160.9,331.806 2163.79,330.155 2168.46,327.537 2172.98,325.059 2193.84,314.06 2197.44,312.209 2201.88,309.939 2206.4,307.636 2213.25,304.169 2213.91,303.832 2217.89,301.828 2221.79,299.863 2221.86,299.832 2223.74,298.702 2229.07,295.597 2233.43,293.128 2241.37,288.759 2245.93,286.31 2248.44,284.978 2262.31,277.745 2290.39,263.502 2294.42,261.476 2304.3,256.526 2314.43,251.466 2324.2,246.59 2324.41,246.486 2327.01,245.191 2329.16,244.119 2332.69,242.36 2343.44,237.001 2350.96,233.256 2352.76,232.362 "/>
<path clip-path="url(#clip260)" d="M214.431 663.349 L554.896 663.349 L554.896 93.1086 L214.431 93.1086  Z" fill="#ffffff" fill-rule="evenodd" fill-opacity="1"/>
<polyline clip-path="url(#clip260)" style="stroke:#000000; stroke-linecap:round; stroke-linejoin:round; stroke-width:4; stroke-opacity:1; fill:none" points="214.431,663.349 554.896,663.349 554.896,93.1086 214.431,93.1086 214.431,663.349 "/>
<polyline clip-path="url(#clip260)" style="stroke:#009af9; stroke-linecap:round; stroke-linejoin:round; stroke-width:4; stroke-opacity:1; fill:none" points="239.009,144.949 386.48,144.949 "/>
<path clip-path="url(#clip260)" d="M411.058 151.997 L411.058 136.303 L415.318 136.303 L415.318 151.835 Q415.318 155.516 416.753 157.368 Q418.188 159.196 421.058 159.196 Q424.507 159.196 426.498 156.997 Q428.512 154.798 428.512 151.002 L428.512 136.303 L432.771 136.303 L432.771 162.229 L428.512 162.229 L428.512 158.247 Q426.961 160.608 424.901 161.766 Q422.864 162.9 420.156 162.9 Q415.688 162.9 413.373 160.122 Q411.058 157.344 411.058 151.997 M421.776 135.678 L421.776 135.678 Z" fill="#000000" fill-rule="nonzero" fill-opacity="1" /><path clip-path="url(#clip260)" d="M441.151 126.21 L450.966 126.21 L450.966 129.52 L445.41 129.52 L445.41 165.168 L450.966 165.168 L450.966 168.479 L441.151 168.479 L441.151 126.21 Z" fill="#000000" fill-rule="nonzero" fill-opacity="1" /><path clip-path="url(#clip260)" d="M461.452 158.293 L469.091 158.293 L469.091 131.928 L460.78 133.595 L460.78 129.335 L469.044 127.669 L473.72 127.669 L473.72 158.293 L481.359 158.293 L481.359 162.229 L461.452 162.229 L461.452 158.293 Z" fill="#000000" fill-rule="nonzero" fill-opacity="1" /><path clip-path="url(#clip260)" d="M500.155 126.21 L500.155 168.479 L490.34 168.479 L490.34 165.168 L495.873 165.168 L495.873 129.52 L490.34 129.52 L490.34 126.21 L500.155 126.21 Z" fill="#000000" fill-rule="nonzero" fill-opacity="1" /><polyline clip-path="url(#clip260)" style="stroke:#e26f46; stroke-linecap:round; stroke-linejoin:round; stroke-width:4; stroke-opacity:1; fill:none" points="239.009,196.789 386.48,196.789 "/>
<path clip-path="url(#clip260)" d="M411.058 203.837 L411.058 188.143 L415.318 188.143 L415.318 203.675 Q415.318 207.356 416.753 209.208 Q418.188 211.036 421.058 211.036 Q424.507 211.036 426.498 208.837 Q428.512 206.638 428.512 202.842 L428.512 188.143 L432.771 188.143 L432.771 214.069 L428.512 214.069 L428.512 210.087 Q426.961 212.448 424.901 213.606 Q422.864 214.74 420.156 214.74 Q415.688 214.74 413.373 211.962 Q411.058 209.184 411.058 203.837 M421.776 187.518 L421.776 187.518 Z" fill="#000000" fill-rule="nonzero" fill-opacity="1" /><path clip-path="url(#clip260)" d="M441.151 178.05 L450.966 178.05 L450.966 181.36 L445.41 181.36 L445.41 217.008 L450.966 217.008 L450.966 220.319 L441.151 220.319 L441.151 178.05 Z" fill="#000000" fill-rule="nonzero" fill-opacity="1" /><path clip-path="url(#clip260)" d="M464.669 210.133 L480.989 210.133 L480.989 214.069 L459.044 214.069 L459.044 210.133 Q461.706 207.379 466.29 202.749 Q470.896 198.096 472.077 196.754 Q474.322 194.231 475.202 192.495 Q476.104 190.735 476.104 189.046 Q476.104 186.291 474.16 184.555 Q472.239 182.819 469.137 182.819 Q466.938 182.819 464.484 183.583 Q462.054 184.347 459.276 185.897 L459.276 181.175 Q462.1 180.041 464.554 179.462 Q467.007 178.884 469.044 178.884 Q474.415 178.884 477.609 181.569 Q480.803 184.254 480.803 188.745 Q480.803 190.874 479.993 192.796 Q479.206 194.694 477.1 197.286 Q476.521 197.958 473.419 201.175 Q470.317 204.37 464.669 210.133 Z" fill="#000000" fill-rule="nonzero" fill-opacity="1" /><path clip-path="url(#clip260)" d="M500.155 178.05 L500.155 220.319 L490.34 220.319 L490.34 217.008 L495.873 217.008 L495.873 181.36 L490.34 181.36 L490.34 178.05 L500.155 178.05 Z" fill="#000000" fill-rule="nonzero" fill-opacity="1" /><polyline clip-path="url(#clip260)" style="stroke:#3da44d; stroke-linecap:round; stroke-linejoin:round; stroke-width:4; stroke-opacity:1; fill:none" points="239.009,248.629 386.48,248.629 "/>
<path clip-path="url(#clip260)" d="M411.058 255.677 L411.058 239.983 L415.318 239.983 L415.318 255.515 Q415.318 259.196 416.753 261.048 Q418.188 262.876 421.058 262.876 Q424.507 262.876 426.498 260.677 Q428.512 258.478 428.512 254.682 L428.512 239.983 L432.771 239.983 L432.771 265.909 L428.512 265.909 L428.512 261.927 Q426.961 264.288 424.901 265.446 Q422.864 266.58 420.156 266.58 Q415.688 266.58 413.373 263.802 Q411.058 261.024 411.058 255.677 M421.776 239.358 L421.776 239.358 Z" fill="#000000" fill-rule="nonzero" fill-opacity="1" /><path clip-path="url(#clip260)" d="M441.151 229.89 L450.966 229.89 L450.966 233.2 L445.41 233.2 L445.41 268.848 L450.966 268.848 L450.966 272.159 L441.151 272.159 L441.151 229.89 Z" fill="#000000" fill-rule="nonzero" fill-opacity="1" /><path clip-path="url(#clip260)" d="M474.808 247.274 Q478.165 247.992 480.04 250.261 Q481.938 252.529 481.938 255.862 Q481.938 260.978 478.419 263.779 Q474.901 266.58 468.419 266.58 Q466.243 266.58 463.929 266.14 Q461.637 265.723 459.183 264.867 L459.183 260.353 Q461.128 261.487 463.442 262.066 Q465.757 262.645 468.28 262.645 Q472.679 262.645 474.97 260.909 Q477.285 259.173 477.285 255.862 Q477.285 252.807 475.132 251.094 Q473.003 249.358 469.183 249.358 L465.155 249.358 L465.155 245.515 L469.368 245.515 Q472.817 245.515 474.646 244.149 Q476.475 242.761 476.475 240.168 Q476.475 237.506 474.577 236.094 Q472.702 234.659 469.183 234.659 Q467.262 234.659 465.063 235.075 Q462.864 235.492 460.225 236.372 L460.225 232.205 Q462.887 231.464 465.202 231.094 Q467.54 230.724 469.6 230.724 Q474.924 230.724 478.026 233.154 Q481.128 235.562 481.128 239.682 Q481.128 242.552 479.484 244.543 Q477.841 246.511 474.808 247.274 Z" fill="#000000" fill-rule="nonzero" fill-opacity="1" /><path clip-path="url(#clip260)" d="M500.155 229.89 L500.155 272.159 L490.34 272.159 L490.34 268.848 L495.873 268.848 L495.873 233.2 L490.34 233.2 L490.34 229.89 L500.155 229.89 Z" fill="#000000" fill-rule="nonzero" fill-opacity="1" /><polyline clip-path="url(#clip260)" style="stroke:#c271d2; stroke-linecap:round; stroke-linejoin:round; stroke-width:4; stroke-opacity:1; fill:none" points="239.009,300.469 386.48,300.469 "/>
<path clip-path="url(#clip260)" d="M411.058 307.517 L411.058 291.823 L415.318 291.823 L415.318 307.355 Q415.318 311.036 416.753 312.888 Q418.188 314.716 421.058 314.716 Q424.507 314.716 426.498 312.517 Q428.512 310.318 428.512 306.522 L428.512 291.823 L432.771 291.823 L432.771 317.749 L428.512 317.749 L428.512 313.767 Q426.961 316.128 424.901 317.286 Q422.864 318.42 420.156 318.42 Q415.688 318.42 413.373 315.642 Q411.058 312.864 411.058 307.517 M421.776 291.198 L421.776 291.198 Z" fill="#000000" fill-rule="nonzero" fill-opacity="1" /><path clip-path="url(#clip260)" d="M441.151 281.73 L450.966 281.73 L450.966 285.04 L445.41 285.04 L445.41 320.688 L450.966 320.688 L450.966 323.999 L441.151 323.999 L441.151 281.73 Z" fill="#000000" fill-rule="nonzero" fill-opacity="1" /><path clip-path="url(#clip260)" d="M473.489 287.263 L461.683 305.712 L473.489 305.712 L473.489 287.263 M472.262 283.189 L478.141 283.189 L478.141 305.712 L483.072 305.712 L483.072 309.601 L478.141 309.601 L478.141 317.749 L473.489 317.749 L473.489 309.601 L457.887 309.601 L457.887 305.087 L472.262 283.189 Z" fill="#000000" fill-rule="nonzero" fill-opacity="1" /><path clip-path="url(#clip260)" d="M500.155 281.73 L500.155 323.999 L490.34 323.999 L490.34 320.688 L495.873 320.688 L495.873 285.04 L490.34 285.04 L490.34 281.73 L500.155 281.73 Z" fill="#000000" fill-rule="nonzero" fill-opacity="1" /><polyline clip-path="url(#clip260)" style="stroke:#ac8d18; stroke-linecap:round; stroke-linejoin:round; stroke-width:4; stroke-opacity:1; fill:none" points="239.009,352.309 386.48,352.309 "/>
<path clip-path="url(#clip260)" d="M411.058 359.357 L411.058 343.663 L415.318 343.663 L415.318 359.195 Q415.318 362.876 416.753 364.728 Q418.188 366.556 421.058 366.556 Q424.507 366.556 426.498 364.357 Q428.512 362.158 428.512 358.362 L428.512 343.663 L432.771 343.663 L432.771 369.589 L428.512 369.589 L428.512 365.607 Q426.961 367.968 424.901 369.126 Q422.864 370.26 420.156 370.26 Q415.688 370.26 413.373 367.482 Q411.058 364.704 411.058 359.357 M421.776 343.038 L421.776 343.038 Z" fill="#000000" fill-rule="nonzero" fill-opacity="1" /><path clip-path="url(#clip260)" d="M441.151 333.57 L450.966 333.57 L450.966 336.88 L445.41 336.88 L445.41 372.528 L450.966 372.528 L450.966 375.839 L441.151 375.839 L441.151 333.57 Z" fill="#000000" fill-rule="nonzero" fill-opacity="1" /><path clip-path="url(#clip260)" d="M460.688 335.029 L479.044 335.029 L479.044 338.964 L464.97 338.964 L464.97 347.436 Q465.989 347.089 467.007 346.927 Q468.026 346.742 469.044 346.742 Q474.831 346.742 478.211 349.913 Q481.591 353.084 481.591 358.501 Q481.591 364.079 478.118 367.181 Q474.646 370.26 468.327 370.26 Q466.151 370.26 463.882 369.89 Q461.637 369.519 459.23 368.778 L459.23 364.079 Q461.313 365.214 463.535 365.769 Q465.757 366.325 468.234 366.325 Q472.239 366.325 474.577 364.218 Q476.915 362.112 476.915 358.501 Q476.915 354.89 474.577 352.783 Q472.239 350.677 468.234 350.677 Q466.359 350.677 464.484 351.093 Q462.632 351.51 460.688 352.39 L460.688 335.029 Z" fill="#000000" fill-rule="nonzero" fill-opacity="1" /><path clip-path="url(#clip260)" d="M500.155 333.57 L500.155 375.839 L490.34 375.839 L490.34 372.528 L495.873 372.528 L495.873 336.88 L490.34 336.88 L490.34 333.57 L500.155 333.57 Z" fill="#000000" fill-rule="nonzero" fill-opacity="1" /><polyline clip-path="url(#clip260)" style="stroke:#00a9ad; stroke-linecap:round; stroke-linejoin:round; stroke-width:4; stroke-opacity:1; fill:none" points="239.009,404.149 386.48,404.149 "/>
<path clip-path="url(#clip260)" d="M411.058 411.197 L411.058 395.503 L415.318 395.503 L415.318 411.035 Q415.318 414.716 416.753 416.568 Q418.188 418.396 421.058 418.396 Q424.507 418.396 426.498 416.197 Q428.512 413.998 428.512 410.202 L428.512 395.503 L432.771 395.503 L432.771 421.429 L428.512 421.429 L428.512 417.447 Q426.961 419.808 424.901 420.966 Q422.864 422.1 420.156 422.1 Q415.688 422.1 413.373 419.322 Q411.058 416.544 411.058 411.197 M421.776 394.878 L421.776 394.878 Z" fill="#000000" fill-rule="nonzero" fill-opacity="1" /><path clip-path="url(#clip260)" d="M441.151 385.41 L450.966 385.41 L450.966 388.72 L445.41 388.72 L445.41 424.368 L450.966 424.368 L450.966 427.679 L441.151 427.679 L441.151 385.41 Z" fill="#000000" fill-rule="nonzero" fill-opacity="1" /><path clip-path="url(#clip260)" d="M471.22 402.285 Q468.072 402.285 466.22 404.438 Q464.392 406.591 464.392 410.341 Q464.392 414.068 466.22 416.243 Q468.072 418.396 471.22 418.396 Q474.368 418.396 476.197 416.243 Q478.049 414.068 478.049 410.341 Q478.049 406.591 476.197 404.438 Q474.368 402.285 471.22 402.285 M480.503 387.633 L480.503 391.892 Q478.743 391.058 476.938 390.619 Q475.155 390.179 473.396 390.179 Q468.766 390.179 466.313 393.304 Q463.882 396.429 463.535 402.748 Q464.901 400.734 466.961 399.669 Q469.021 398.582 471.498 398.582 Q476.706 398.582 479.716 401.753 Q482.748 404.901 482.748 410.341 Q482.748 415.665 479.6 418.882 Q476.452 422.1 471.22 422.1 Q465.225 422.1 462.054 417.517 Q458.882 412.91 458.882 404.183 Q458.882 395.989 462.771 391.128 Q466.66 386.244 473.211 386.244 Q474.97 386.244 476.753 386.591 Q478.558 386.938 480.503 387.633 Z" fill="#000000" fill-rule="nonzero" fill-opacity="1" /><path clip-path="url(#clip260)" d="M500.155 385.41 L500.155 427.679 L490.34 427.679 L490.34 424.368 L495.873 424.368 L495.873 388.72 L490.34 388.72 L490.34 385.41 L500.155 385.41 Z" fill="#000000" fill-rule="nonzero" fill-opacity="1" /><polyline clip-path="url(#clip260)" style="stroke:#ed5d92; stroke-linecap:round; stroke-linejoin:round; stroke-width:4; stroke-opacity:1; fill:none" points="239.009,455.989 386.48,455.989 "/>
<path clip-path="url(#clip260)" d="M411.058 463.037 L411.058 447.343 L415.318 447.343 L415.318 462.875 Q415.318 466.556 416.753 468.408 Q418.188 470.236 421.058 470.236 Q424.507 470.236 426.498 468.037 Q428.512 465.838 428.512 462.042 L428.512 447.343 L432.771 447.343 L432.771 473.269 L428.512 473.269 L428.512 469.287 Q426.961 471.648 424.901 472.806 Q422.864 473.94 420.156 473.94 Q415.688 473.94 413.373 471.162 Q411.058 468.384 411.058 463.037 M421.776 446.718 L421.776 446.718 Z" fill="#000000" fill-rule="nonzero" fill-opacity="1" /><path clip-path="url(#clip260)" d="M441.151 437.25 L450.966 437.25 L450.966 440.56 L445.41 440.56 L445.41 476.208 L450.966 476.208 L450.966 479.519 L441.151 479.519 L441.151 437.25 Z" fill="#000000" fill-rule="nonzero" fill-opacity="1" /><path clip-path="url(#clip260)" d="M459.461 438.709 L481.683 438.709 L481.683 440.699 L469.137 473.269 L464.253 473.269 L476.058 442.644 L459.461 442.644 L459.461 438.709 Z" fill="#000000" fill-rule="nonzero" fill-opacity="1" /><path clip-path="url(#clip260)" d="M500.155 437.25 L500.155 479.519 L490.34 479.519 L490.34 476.208 L495.873 476.208 L495.873 440.56 L490.34 440.56 L490.34 437.25 L500.155 437.25 Z" fill="#000000" fill-rule="nonzero" fill-opacity="1" /><polyline clip-path="url(#clip260)" style="stroke:#c68125; stroke-linecap:round; stroke-linejoin:round; stroke-width:4; stroke-opacity:1; fill:none" points="239.009,507.829 386.48,507.829 "/>
<path clip-path="url(#clip260)" d="M411.058 514.877 L411.058 499.183 L415.318 499.183 L415.318 514.715 Q415.318 518.396 416.753 520.248 Q418.188 522.076 421.058 522.076 Q424.507 522.076 426.498 519.877 Q428.512 517.678 428.512 513.882 L428.512 499.183 L432.771 499.183 L432.771 525.109 L428.512 525.109 L428.512 521.127 Q426.961 523.488 424.901 524.646 Q422.864 525.78 420.156 525.78 Q415.688 525.78 413.373 523.002 Q411.058 520.224 411.058 514.877 M421.776 498.558 L421.776 498.558 Z" fill="#000000" fill-rule="nonzero" fill-opacity="1" /><path clip-path="url(#clip260)" d="M441.151 489.09 L450.966 489.09 L450.966 492.4 L445.41 492.4 L445.41 528.048 L450.966 528.048 L450.966 531.359 L441.151 531.359 L441.151 489.09 Z" fill="#000000" fill-rule="nonzero" fill-opacity="1" /><path clip-path="url(#clip260)" d="M470.641 508.697 Q467.308 508.697 465.387 510.479 Q463.489 512.261 463.489 515.386 Q463.489 518.511 465.387 520.294 Q467.308 522.076 470.641 522.076 Q473.975 522.076 475.896 520.294 Q477.817 518.488 477.817 515.386 Q477.817 512.261 475.896 510.479 Q473.998 508.697 470.641 508.697 M465.966 506.706 Q462.956 505.965 461.267 503.905 Q459.6 501.845 459.6 498.882 Q459.6 494.738 462.54 492.331 Q465.503 489.924 470.641 489.924 Q475.803 489.924 478.743 492.331 Q481.683 494.738 481.683 498.882 Q481.683 501.845 479.993 503.905 Q478.327 505.965 475.341 506.706 Q478.72 507.493 480.595 509.785 Q482.493 512.076 482.493 515.386 Q482.493 520.41 479.415 523.095 Q476.359 525.78 470.641 525.78 Q464.924 525.78 461.845 523.095 Q458.79 520.41 458.79 515.386 Q458.79 512.076 460.688 509.785 Q462.586 507.493 465.966 506.706 M464.253 499.322 Q464.253 502.007 465.919 503.512 Q467.609 505.016 470.641 505.016 Q473.651 505.016 475.341 503.512 Q477.053 502.007 477.053 499.322 Q477.053 496.637 475.341 495.132 Q473.651 493.627 470.641 493.627 Q467.609 493.627 465.919 495.132 Q464.253 496.637 464.253 499.322 Z" fill="#000000" fill-rule="nonzero" fill-opacity="1" /><path clip-path="url(#clip260)" d="M500.155 489.09 L500.155 531.359 L490.34 531.359 L490.34 528.048 L495.873 528.048 L495.873 492.4 L490.34 492.4 L490.34 489.09 L500.155 489.09 Z" fill="#000000" fill-rule="nonzero" fill-opacity="1" /><polyline clip-path="url(#clip260)" style="stroke:#00a98d; stroke-linecap:round; stroke-linejoin:round; stroke-width:4; stroke-opacity:1; fill:none" points="239.009,559.669 386.48,559.669 "/>
<path clip-path="url(#clip260)" d="M411.058 566.717 L411.058 551.023 L415.318 551.023 L415.318 566.555 Q415.318 570.236 416.753 572.088 Q418.188 573.916 421.058 573.916 Q424.507 573.916 426.498 571.717 Q428.512 569.518 428.512 565.722 L428.512 551.023 L432.771 551.023 L432.771 576.949 L428.512 576.949 L428.512 572.967 Q426.961 575.328 424.901 576.486 Q422.864 577.62 420.156 577.62 Q415.688 577.62 413.373 574.842 Q411.058 572.064 411.058 566.717 M421.776 550.398 L421.776 550.398 Z" fill="#000000" fill-rule="nonzero" fill-opacity="1" /><path clip-path="url(#clip260)" d="M441.151 540.93 L450.966 540.93 L450.966 544.24 L445.41 544.24 L445.41 579.888 L450.966 579.888 L450.966 583.199 L441.151 583.199 L441.151 540.93 Z" fill="#000000" fill-rule="nonzero" fill-opacity="1" /><path clip-path="url(#clip260)" d="M460.78 576.231 L460.78 571.972 Q462.54 572.805 464.345 573.245 Q466.151 573.685 467.887 573.685 Q472.516 573.685 474.947 570.583 Q477.401 567.458 477.748 561.115 Q476.405 563.106 474.345 564.171 Q472.285 565.236 469.785 565.236 Q464.6 565.236 461.567 562.111 Q458.558 558.963 458.558 553.523 Q458.558 548.199 461.706 544.981 Q464.854 541.764 470.086 541.764 Q476.081 541.764 479.229 546.37 Q482.401 550.953 482.401 559.703 Q482.401 567.875 478.512 572.759 Q474.646 577.62 468.095 577.62 Q466.336 577.62 464.53 577.273 Q462.725 576.925 460.78 576.231 M470.086 561.578 Q473.234 561.578 475.063 559.426 Q476.915 557.273 476.915 553.523 Q476.915 549.796 475.063 547.643 Q473.234 545.467 470.086 545.467 Q466.938 545.467 465.086 547.643 Q463.257 549.796 463.257 553.523 Q463.257 557.273 465.086 559.426 Q466.938 561.578 470.086 561.578 Z" fill="#000000" fill-rule="nonzero" fill-opacity="1" /><path clip-path="url(#clip260)" d="M500.155 540.93 L500.155 583.199 L490.34 583.199 L490.34 579.888 L495.873 579.888 L495.873 544.24 L490.34 544.24 L490.34 540.93 L500.155 540.93 Z" fill="#000000" fill-rule="nonzero" fill-opacity="1" /><polyline clip-path="url(#clip260)" style="stroke:#8e971d; stroke-linecap:round; stroke-linejoin:round; stroke-width:4; stroke-opacity:1; fill:none" points="239.009,611.509 386.48,611.509 "/>
<path clip-path="url(#clip260)" d="M411.058 618.557 L411.058 602.863 L415.318 602.863 L415.318 618.395 Q415.318 622.076 416.753 623.928 Q418.188 625.756 421.058 625.756 Q424.507 625.756 426.498 623.557 Q428.512 621.358 428.512 617.562 L428.512 602.863 L432.771 602.863 L432.771 628.789 L428.512 628.789 L428.512 624.807 Q426.961 627.168 424.901 628.326 Q422.864 629.46 420.156 629.46 Q415.688 629.46 413.373 626.682 Q411.058 623.904 411.058 618.557 M421.776 602.238 L421.776 602.238 Z" fill="#000000" fill-rule="nonzero" fill-opacity="1" /><path clip-path="url(#clip260)" d="M441.151 592.77 L450.966 592.77 L450.966 596.08 L445.41 596.08 L445.41 631.728 L450.966 631.728 L450.966 635.039 L441.151 635.039 L441.151 592.77 Z" fill="#000000" fill-rule="nonzero" fill-opacity="1" /><path clip-path="url(#clip260)" d="M461.452 624.853 L469.091 624.853 L469.091 598.488 L460.78 600.155 L460.78 595.895 L469.044 594.229 L473.72 594.229 L473.72 624.853 L481.359 624.853 L481.359 628.789 L461.452 628.789 L461.452 624.853 Z" fill="#000000" fill-rule="nonzero" fill-opacity="1" /><path clip-path="url(#clip260)" d="M500.803 597.307 Q497.192 597.307 495.364 600.872 Q493.558 604.414 493.558 611.543 Q493.558 618.65 495.364 622.215 Q497.192 625.756 500.803 625.756 Q504.438 625.756 506.243 622.215 Q508.072 618.65 508.072 611.543 Q508.072 604.414 506.243 600.872 Q504.438 597.307 500.803 597.307 M500.803 593.604 Q506.614 593.604 509.669 598.21 Q512.748 602.793 512.748 611.543 Q512.748 620.27 509.669 624.877 Q506.614 629.46 500.803 629.46 Q494.993 629.46 491.915 624.877 Q488.859 620.27 488.859 611.543 Q488.859 602.793 491.915 598.21 Q494.993 593.604 500.803 593.604 Z" fill="#000000" fill-rule="nonzero" fill-opacity="1" /><path clip-path="url(#clip260)" d="M530.317 592.77 L530.317 635.039 L520.502 635.039 L520.502 631.728 L526.035 631.728 L526.035 596.08 L520.502 596.08 L520.502 592.77 L530.317 592.77 Z" fill="#000000" fill-rule="nonzero" fill-opacity="1" /></svg>
