<?xml version="1.0" encoding="utf-8"?>
<svg xmlns="http://www.w3.org/2000/svg" xmlns:xlink="http://www.w3.org/1999/xlink" width="600" height="400" viewBox="0 0 2400 1600">
<defs>
  <clipPath id="clip330">
    <rect x="0" y="0" width="2400" height="1600"/>
  </clipPath>
</defs>
<path clip-path="url(#clip330)" d="M0 1600 L2400 1600 L2400 0 L0 0  Z" fill="#ffffff" fill-rule="evenodd" fill-opacity="1"/>
<defs>
  <clipPath id="clip331">
    <rect x="480" y="0" width="1681" height="1600"/>
  </clipPath>
</defs>
<path clip-path="url(#clip330)" d="M199.283 1423.18 L2352.76 1423.18 L2352.76 47.2441 L199.283 47.2441  Z" fill="#ffffff" fill-rule="evenodd" fill-opacity="1"/>
<defs>
  <clipPath id="clip332">
    <rect x="199" y="47" width="2154" height="1377"/>
  </clipPath>
</defs>
<polyline clip-path="url(#clip332)" style="stroke:#000000; stroke-linecap:round; stroke-linejoin:round; stroke-width:2; stroke-opacity:0.1; fill:none" points="199.283,1423.18 199.283,47.2441 "/>
<polyline clip-path="url(#clip332)" style="stroke:#000000; stroke-linecap:round; stroke-linejoin:round; stroke-width:2; stroke-opacity:0.1; fill:none" points="629.978,1423.18 629.978,47.2441 "/>
<polyline clip-path="url(#clip332)" style="stroke:#000000; stroke-linecap:round; stroke-linejoin:round; stroke-width:2; stroke-opacity:0.1; fill:none" points="1060.67,1423.18 1060.67,47.2441 "/>
<polyline clip-path="url(#clip332)" style="stroke:#000000; stroke-linecap:round; stroke-linejoin:round; stroke-width:2; stroke-opacity:0.1; fill:none" points="1491.37,1423.18 1491.37,47.2441 "/>
<polyline clip-path="url(#clip332)" style="stroke:#000000; stroke-linecap:round; stroke-linejoin:round; stroke-width:2; stroke-opacity:0.1; fill:none" points="1922.06,1423.18 1922.06,47.2441 "/>
<polyline clip-path="url(#clip332)" style="stroke:#000000; stroke-linecap:round; stroke-linejoin:round; stroke-width:2; stroke-opacity:0.1; fill:none" points="2352.76,1423.18 2352.76,47.2441 "/>
<polyline clip-path="url(#clip330)" style="stroke:#000000; stroke-linecap:round; stroke-linejoin:round; stroke-width:4; stroke-opacity:1; fill:none" points="199.283,1423.18 2352.76,1423.18 "/>
<polyline clip-path="url(#clip330)" style="stroke:#000000; stroke-linecap:round; stroke-linejoin:round; stroke-width:4; stroke-opacity:1; fill:none" points="199.283,1423.18 199.283,1404.28 "/>
<polyline clip-path="url(#clip330)" style="stroke:#000000; stroke-linecap:round; stroke-linejoin:round; stroke-width:4; stroke-opacity:1; fill:none" points="629.978,1423.18 629.978,1404.28 "/>
<polyline clip-path="url(#clip330)" style="stroke:#000000; stroke-linecap:round; stroke-linejoin:round; stroke-width:4; stroke-opacity:1; fill:none" points="1060.67,1423.18 1060.67,1404.28 "/>
<polyline clip-path="url(#clip330)" style="stroke:#000000; stroke-linecap:round; stroke-linejoin:round; stroke-width:4; stroke-opacity:1; fill:none" points="1491.37,1423.18 1491.37,1404.28 "/>
<polyline clip-path="url(#clip330)" style="stroke:#000000; stroke-linecap:round; stroke-linejoin:round; stroke-width:4; stroke-opacity:1; fill:none" points="1922.06,1423.18 1922.06,1404.28 "/>
<polyline clip-path="url(#clip330)" style="stroke:#000000; stroke-linecap:round; stroke-linejoin:round; stroke-width:4; stroke-opacity:1; fill:none" points="2352.76,1423.18 2352.76,1404.28 "/>
<path clip-path="url(#clip330)" d="M199.283 1454.1 Q195.672 1454.1 193.843 1457.66 Q192.038 1461.2 192.038 1468.33 Q192.038 1475.44 193.843 1479.01 Q195.672 1482.55 199.283 1482.55 Q202.917 1482.55 204.723 1479.01 Q206.552 1475.44 206.552 1468.33 Q206.552 1461.2 204.723 1457.66 Q202.917 1454.1 199.283 1454.1 M199.283 1450.39 Q205.093 1450.39 208.149 1455 Q211.228 1459.58 211.228 1468.33 Q211.228 1477.06 208.149 1481.67 Q205.093 1486.25 199.283 1486.25 Q193.473 1486.25 190.394 1481.67 Q187.339 1477.06 187.339 1468.33 Q187.339 1459.58 190.394 1455 Q193.473 1450.39 199.283 1450.39 Z" fill="#000000" fill-rule="nonzero" fill-opacity="1" /><path clip-path="url(#clip330)" d="M604.677 1451.02 L623.033 1451.02 L623.033 1454.96 L608.959 1454.96 L608.959 1463.43 Q609.978 1463.08 610.996 1462.92 Q612.015 1462.73 613.033 1462.73 Q618.82 1462.73 622.2 1465.9 Q625.58 1469.08 625.58 1474.49 Q625.58 1480.07 622.107 1483.17 Q618.635 1486.25 612.316 1486.25 Q610.14 1486.25 607.871 1485.88 Q605.626 1485.51 603.219 1484.77 L603.219 1480.07 Q605.302 1481.2 607.524 1481.76 Q609.746 1482.32 612.223 1482.32 Q616.228 1482.32 618.566 1480.21 Q620.904 1478.1 620.904 1474.49 Q620.904 1470.88 618.566 1468.77 Q616.228 1466.67 612.223 1466.67 Q610.348 1466.67 608.473 1467.08 Q606.621 1467.5 604.677 1468.38 L604.677 1451.02 Z" fill="#000000" fill-rule="nonzero" fill-opacity="1" /><path clip-path="url(#clip330)" d="M644.792 1454.1 Q641.181 1454.1 639.353 1457.66 Q637.547 1461.2 637.547 1468.33 Q637.547 1475.44 639.353 1479.01 Q641.181 1482.55 644.792 1482.55 Q648.427 1482.55 650.232 1479.01 Q652.061 1475.44 652.061 1468.33 Q652.061 1461.2 650.232 1457.66 Q648.427 1454.1 644.792 1454.1 M644.792 1450.39 Q650.603 1450.39 653.658 1455 Q656.737 1459.58 656.737 1468.33 Q656.737 1477.06 653.658 1481.67 Q650.603 1486.25 644.792 1486.25 Q638.982 1486.25 635.904 1481.67 Q632.848 1477.06 632.848 1468.33 Q632.848 1459.58 635.904 1455 Q638.982 1450.39 644.792 1450.39 Z" fill="#000000" fill-rule="nonzero" fill-opacity="1" /><path clip-path="url(#clip330)" d="M1020.28 1481.64 L1027.92 1481.64 L1027.92 1455.28 L1019.61 1456.95 L1019.61 1452.69 L1027.87 1451.02 L1032.55 1451.02 L1032.55 1481.64 L1040.19 1481.64 L1040.19 1485.58 L1020.28 1485.58 L1020.28 1481.64 Z" fill="#000000" fill-rule="nonzero" fill-opacity="1" /><path clip-path="url(#clip330)" d="M1059.63 1454.1 Q1056.02 1454.1 1054.19 1457.66 Q1052.39 1461.2 1052.39 1468.33 Q1052.39 1475.44 1054.19 1479.01 Q1056.02 1482.55 1059.63 1482.55 Q1063.26 1482.55 1065.07 1479.01 Q1066.9 1475.44 1066.9 1468.33 Q1066.9 1461.2 1065.07 1457.66 Q1063.26 1454.1 1059.63 1454.1 M1059.63 1450.39 Q1065.44 1450.39 1068.5 1455 Q1071.57 1459.58 1071.57 1468.33 Q1071.57 1477.06 1068.5 1481.67 Q1065.44 1486.25 1059.63 1486.25 Q1053.82 1486.25 1050.74 1481.67 Q1047.69 1477.06 1047.69 1468.33 Q1047.69 1459.58 1050.74 1455 Q1053.82 1450.39 1059.63 1450.39 Z" fill="#000000" fill-rule="nonzero" fill-opacity="1" /><path clip-path="url(#clip330)" d="M1089.79 1454.1 Q1086.18 1454.1 1084.35 1457.66 Q1082.55 1461.2 1082.55 1468.33 Q1082.55 1475.44 1084.35 1479.01 Q1086.18 1482.55 1089.79 1482.55 Q1093.43 1482.55 1095.23 1479.01 Q1097.06 1475.44 1097.06 1468.33 Q1097.06 1461.2 1095.23 1457.66 Q1093.43 1454.1 1089.79 1454.1 M1089.79 1450.39 Q1095.6 1450.39 1098.66 1455 Q1101.74 1459.58 1101.74 1468.33 Q1101.74 1477.06 1098.66 1481.67 Q1095.6 1486.25 1089.79 1486.25 Q1083.98 1486.25 1080.9 1481.67 Q1077.85 1477.06 1077.85 1468.33 Q1077.85 1459.58 1080.9 1455 Q1083.98 1450.39 1089.79 1450.39 Z" fill="#000000" fill-rule="nonzero" fill-opacity="1" /><path clip-path="url(#clip330)" d="M1450.97 1481.64 L1458.61 1481.64 L1458.61 1455.28 L1450.3 1456.95 L1450.3 1452.69 L1458.57 1451.02 L1463.24 1451.02 L1463.24 1481.64 L1470.88 1481.64 L1470.88 1485.58 L1450.97 1485.58 L1450.97 1481.64 Z" fill="#000000" fill-rule="nonzero" fill-opacity="1" /><path clip-path="url(#clip330)" d="M1480.37 1451.02 L1498.73 1451.02 L1498.73 1454.96 L1484.65 1454.96 L1484.65 1463.43 Q1485.67 1463.08 1486.69 1462.92 Q1487.71 1462.73 1488.73 1462.73 Q1494.51 1462.73 1497.89 1465.9 Q1501.27 1469.08 1501.27 1474.49 Q1501.27 1480.07 1497.8 1483.17 Q1494.33 1486.25 1488.01 1486.25 Q1485.83 1486.25 1483.57 1485.88 Q1481.32 1485.51 1478.91 1484.77 L1478.91 1480.07 Q1481 1481.2 1483.22 1481.76 Q1485.44 1482.32 1487.92 1482.32 Q1491.92 1482.32 1494.26 1480.21 Q1496.6 1478.1 1496.6 1474.49 Q1496.6 1470.88 1494.26 1468.77 Q1491.92 1466.67 1487.92 1466.67 Q1486.04 1466.67 1484.17 1467.08 Q1482.32 1467.5 1480.37 1468.38 L1480.37 1451.02 Z" fill="#000000" fill-rule="nonzero" fill-opacity="1" /><path clip-path="url(#clip330)" d="M1520.49 1454.1 Q1516.88 1454.1 1515.05 1457.66 Q1513.24 1461.2 1513.24 1468.33 Q1513.24 1475.44 1515.05 1479.01 Q1516.88 1482.55 1520.49 1482.55 Q1524.12 1482.55 1525.93 1479.01 Q1527.76 1475.44 1527.76 1468.33 Q1527.76 1461.2 1525.93 1457.66 Q1524.12 1454.1 1520.49 1454.1 M1520.49 1450.39 Q1526.3 1450.39 1529.35 1455 Q1532.43 1459.58 1532.43 1468.33 Q1532.43 1477.06 1529.35 1481.67 Q1526.3 1486.25 1520.49 1486.25 Q1514.68 1486.25 1511.6 1481.67 Q1508.54 1477.06 1508.54 1468.33 Q1508.54 1459.58 1511.6 1455 Q1514.68 1450.39 1520.49 1450.39 Z" fill="#000000" fill-rule="nonzero" fill-opacity="1" /><path clip-path="url(#clip330)" d="M1885.75 1481.64 L1902.07 1481.64 L1902.07 1485.58 L1880.13 1485.58 L1880.13 1481.64 Q1882.79 1478.89 1887.37 1474.26 Q1891.98 1469.61 1893.16 1468.27 Q1895.41 1465.74 1896.29 1464.01 Q1897.19 1462.25 1897.19 1460.56 Q1897.19 1457.8 1895.24 1456.07 Q1893.32 1454.33 1890.22 1454.33 Q1888.02 1454.33 1885.57 1455.09 Q1883.14 1455.86 1880.36 1457.41 L1880.36 1452.69 Q1883.18 1451.55 1885.64 1450.97 Q1888.09 1450.39 1890.13 1450.39 Q1895.5 1450.39 1898.69 1453.08 Q1901.89 1455.77 1901.89 1460.26 Q1901.89 1462.39 1901.08 1464.31 Q1900.29 1466.2 1898.18 1468.8 Q1897.61 1469.47 1894.5 1472.69 Q1891.4 1475.88 1885.75 1481.64 Z" fill="#000000" fill-rule="nonzero" fill-opacity="1" /><path clip-path="url(#clip330)" d="M1921.89 1454.1 Q1918.28 1454.1 1916.45 1457.66 Q1914.64 1461.2 1914.64 1468.33 Q1914.64 1475.44 1916.45 1479.01 Q1918.28 1482.55 1921.89 1482.55 Q1925.52 1482.55 1927.33 1479.01 Q1929.16 1475.44 1929.16 1468.33 Q1929.16 1461.2 1927.33 1457.66 Q1925.52 1454.1 1921.89 1454.1 M1921.89 1450.39 Q1927.7 1450.39 1930.75 1455 Q1933.83 1459.58 1933.83 1468.33 Q1933.83 1477.06 1930.75 1481.67 Q1927.7 1486.25 1921.89 1486.25 Q1916.08 1486.25 1913 1481.67 Q1909.94 1477.06 1909.94 1468.33 Q1909.94 1459.58 1913 1455 Q1916.08 1450.39 1921.89 1450.39 Z" fill="#000000" fill-rule="nonzero" fill-opacity="1" /><path clip-path="url(#clip330)" d="M1952.05 1454.1 Q1948.44 1454.1 1946.61 1457.66 Q1944.8 1461.2 1944.8 1468.33 Q1944.8 1475.44 1946.61 1479.01 Q1948.44 1482.55 1952.05 1482.55 Q1955.68 1482.55 1957.49 1479.01 Q1959.32 1475.44 1959.32 1468.33 Q1959.32 1461.2 1957.49 1457.66 Q1955.68 1454.1 1952.05 1454.1 M1952.05 1450.39 Q1957.86 1450.39 1960.92 1455 Q1963.99 1459.58 1963.99 1468.33 Q1963.99 1477.06 1960.92 1481.67 Q1957.86 1486.25 1952.05 1486.25 Q1946.24 1486.25 1943.16 1481.67 Q1940.11 1477.06 1940.11 1468.33 Q1940.11 1459.58 1943.16 1455 Q1946.24 1450.39 1952.05 1450.39 Z" fill="#000000" fill-rule="nonzero" fill-opacity="1" /><path clip-path="url(#clip330)" d="M2316.45 1481.64 L2332.77 1481.64 L2332.77 1485.58 L2310.82 1485.58 L2310.82 1481.64 Q2313.49 1478.89 2318.07 1474.26 Q2322.68 1469.61 2323.86 1468.27 Q2326.1 1465.74 2326.98 1464.01 Q2327.88 1462.25 2327.88 1460.56 Q2327.88 1457.8 2325.94 1456.07 Q2324.02 1454.33 2320.92 1454.33 Q2318.72 1454.33 2316.26 1455.09 Q2313.83 1455.86 2311.05 1457.41 L2311.05 1452.69 Q2313.88 1451.55 2316.33 1450.97 Q2318.79 1450.39 2320.82 1450.39 Q2326.19 1450.39 2329.39 1453.08 Q2332.58 1455.77 2332.58 1460.26 Q2332.58 1462.39 2331.77 1464.31 Q2330.99 1466.2 2328.88 1468.8 Q2328.3 1469.47 2325.2 1472.69 Q2322.1 1475.88 2316.45 1481.64 Z" fill="#000000" fill-rule="nonzero" fill-opacity="1" /><path clip-path="url(#clip330)" d="M2342.63 1451.02 L2360.99 1451.02 L2360.99 1454.96 L2346.91 1454.96 L2346.91 1463.43 Q2347.93 1463.08 2348.95 1462.92 Q2349.97 1462.73 2350.99 1462.73 Q2356.77 1462.73 2360.15 1465.9 Q2363.53 1469.08 2363.53 1474.49 Q2363.53 1480.07 2360.06 1483.17 Q2356.59 1486.25 2350.27 1486.25 Q2348.09 1486.25 2345.82 1485.88 Q2343.58 1485.51 2341.17 1484.77 L2341.17 1480.07 Q2343.25 1481.2 2345.48 1481.76 Q2347.7 1482.32 2350.17 1482.32 Q2354.18 1482.32 2356.52 1480.21 Q2358.86 1478.1 2358.86 1474.49 Q2358.86 1470.88 2356.52 1468.77 Q2354.18 1466.67 2350.17 1466.67 Q2348.3 1466.67 2346.42 1467.08 Q2344.57 1467.5 2342.63 1468.38 L2342.63 1451.02 Z" fill="#000000" fill-rule="nonzero" fill-opacity="1" /><path clip-path="url(#clip330)" d="M2382.74 1454.1 Q2379.13 1454.1 2377.3 1457.66 Q2375.5 1461.2 2375.5 1468.33 Q2375.5 1475.44 2377.3 1479.01 Q2379.13 1482.55 2382.74 1482.55 Q2386.38 1482.55 2388.18 1479.01 Q2390.01 1475.44 2390.01 1468.33 Q2390.01 1461.2 2388.18 1457.66 Q2386.38 1454.1 2382.74 1454.1 M2382.74 1450.39 Q2388.55 1450.39 2391.61 1455 Q2394.69 1459.58 2394.69 1468.33 Q2394.69 1477.06 2391.61 1481.67 Q2388.55 1486.25 2382.74 1486.25 Q2376.93 1486.25 2373.86 1481.67 Q2370.8 1477.06 2370.8 1468.33 Q2370.8 1459.58 2373.86 1455 Q2376.93 1450.39 2382.74 1450.39 Z" fill="#000000" fill-rule="nonzero" fill-opacity="1" /><path clip-path="url(#clip330)" d="M1275.08 1522.27 L1275.08 1532.4 L1287.14 1532.4 L1287.14 1536.95 L1275.08 1536.95 L1275.08 1556.3 Q1275.08 1560.66 1276.26 1561.9 Q1277.47 1563.14 1281.13 1563.14 L1287.14 1563.14 L1287.14 1568.04 L1281.13 1568.04 Q1274.35 1568.04 1271.77 1565.53 Q1269.19 1562.98 1269.19 1556.3 L1269.19 1536.95 L1264.9 1536.95 L1264.9 1532.4 L1269.19 1532.4 L1269.19 1522.27 L1275.08 1522.27 Z" fill="#000000" fill-rule="nonzero" fill-opacity="1" /><polyline clip-path="url(#clip332)" style="stroke:#000000; stroke-linecap:round; stroke-linejoin:round; stroke-width:2; stroke-opacity:0.1; fill:none" points="199.283,1383.71 2352.76,1383.71 "/>
<polyline clip-path="url(#clip332)" style="stroke:#000000; stroke-linecap:round; stroke-linejoin:round; stroke-width:2; stroke-opacity:0.1; fill:none" points="199.283,1059.01 2352.76,1059.01 "/>
<polyline clip-path="url(#clip332)" style="stroke:#000000; stroke-linecap:round; stroke-linejoin:round; stroke-width:2; stroke-opacity:0.1; fill:none" points="199.283,734.301 2352.76,734.301 "/>
<polyline clip-path="url(#clip332)" style="stroke:#000000; stroke-linecap:round; stroke-linejoin:round; stroke-width:2; stroke-opacity:0.1; fill:none" points="199.283,409.594 2352.76,409.594 "/>
<polyline clip-path="url(#clip332)" style="stroke:#000000; stroke-linecap:round; stroke-linejoin:round; stroke-width:2; stroke-opacity:0.1; fill:none" points="199.283,84.8868 2352.76,84.8868 "/>
<polyline clip-path="url(#clip330)" style="stroke:#000000; stroke-linecap:round; stroke-linejoin:round; stroke-width:4; stroke-opacity:1; fill:none" points="199.283,1423.18 199.283,47.2441 "/>
<polyline clip-path="url(#clip330)" style="stroke:#000000; stroke-linecap:round; stroke-linejoin:round; stroke-width:4; stroke-opacity:1; fill:none" points="199.283,1383.71 218.181,1383.71 "/>
<polyline clip-path="url(#clip330)" style="stroke:#000000; stroke-linecap:round; stroke-linejoin:round; stroke-width:4; stroke-opacity:1; fill:none" points="199.283,1059.01 218.181,1059.01 "/>
<polyline clip-path="url(#clip330)" style="stroke:#000000; stroke-linecap:round; stroke-linejoin:round; stroke-width:4; stroke-opacity:1; fill:none" points="199.283,734.301 218.181,734.301 "/>
<polyline clip-path="url(#clip330)" style="stroke:#000000; stroke-linecap:round; stroke-linejoin:round; stroke-width:4; stroke-opacity:1; fill:none" points="199.283,409.594 218.181,409.594 "/>
<polyline clip-path="url(#clip330)" style="stroke:#000000; stroke-linecap:round; stroke-linejoin:round; stroke-width:4; stroke-opacity:1; fill:none" points="199.283,84.8868 218.181,84.8868 "/>
<path clip-path="url(#clip330)" d="M151.339 1369.51 Q147.728 1369.51 145.899 1373.08 Q144.093 1376.62 144.093 1383.75 Q144.093 1390.86 145.899 1394.42 Q147.728 1397.96 151.339 1397.96 Q154.973 1397.96 156.779 1394.42 Q158.607 1390.86 158.607 1383.75 Q158.607 1376.62 156.779 1373.08 Q154.973 1369.51 151.339 1369.51 M151.339 1365.81 Q157.149 1365.81 160.205 1370.42 Q163.283 1375 163.283 1383.75 Q163.283 1392.48 160.205 1397.08 Q157.149 1401.67 151.339 1401.67 Q145.529 1401.67 142.45 1397.08 Q139.394 1392.48 139.394 1383.75 Q139.394 1375 142.45 1370.42 Q145.529 1365.81 151.339 1365.81 Z" fill="#000000" fill-rule="nonzero" fill-opacity="1" /><path clip-path="url(#clip330)" d="M85.0429 1072.35 L101.362 1072.35 L101.362 1076.29 L79.4179 1076.29 L79.4179 1072.35 Q82.0799 1069.6 86.6632 1064.97 Q91.2697 1060.32 92.4502 1058.97 Q94.6956 1056.45 95.5752 1054.71 Q96.478 1052.95 96.478 1051.26 Q96.478 1048.51 94.5336 1046.77 Q92.6123 1045.04 89.5104 1045.04 Q87.3114 1045.04 84.8577 1045.8 Q82.4271 1046.57 79.6494 1048.12 L79.6494 1043.39 Q82.4734 1042.26 84.9271 1041.68 Q87.3808 1041.1 89.4178 1041.1 Q94.7882 1041.1 97.9826 1043.79 Q101.177 1046.47 101.177 1050.96 Q101.177 1053.09 100.367 1055.01 Q99.5798 1056.91 97.4734 1059.51 Q96.8947 1060.18 93.7928 1063.39 Q90.691 1066.59 85.0429 1072.35 Z" fill="#000000" fill-rule="nonzero" fill-opacity="1" /><path clip-path="url(#clip330)" d="M111.223 1041.73 L129.58 1041.73 L129.58 1045.66 L115.506 1045.66 L115.506 1054.13 Q116.524 1053.79 117.543 1053.63 Q118.561 1053.44 119.58 1053.44 Q125.367 1053.44 128.746 1056.61 Q132.126 1059.78 132.126 1065.2 Q132.126 1070.78 128.654 1073.88 Q125.182 1076.96 118.862 1076.96 Q116.686 1076.96 114.418 1076.59 Q112.172 1076.22 109.765 1075.48 L109.765 1070.78 Q111.848 1071.91 114.07 1072.47 Q116.293 1073.02 118.77 1073.02 Q122.774 1073.02 125.112 1070.92 Q127.45 1068.81 127.45 1065.2 Q127.45 1061.59 125.112 1059.48 Q122.774 1057.38 118.77 1057.38 Q116.895 1057.38 115.02 1057.79 Q113.168 1058.21 111.223 1059.09 L111.223 1041.73 Z" fill="#000000" fill-rule="nonzero" fill-opacity="1" /><path clip-path="url(#clip330)" d="M151.339 1044.81 Q147.728 1044.81 145.899 1048.37 Q144.093 1051.91 144.093 1059.04 Q144.093 1066.15 145.899 1069.71 Q147.728 1073.26 151.339 1073.26 Q154.973 1073.26 156.779 1069.71 Q158.607 1066.15 158.607 1059.04 Q158.607 1051.91 156.779 1048.37 Q154.973 1044.81 151.339 1044.81 M151.339 1041.1 Q157.149 1041.1 160.205 1045.71 Q163.283 1050.29 163.283 1059.04 Q163.283 1067.77 160.205 1072.38 Q157.149 1076.96 151.339 1076.96 Q145.529 1076.96 142.45 1072.38 Q139.394 1067.77 139.394 1059.04 Q139.394 1050.29 142.45 1045.71 Q145.529 1041.1 151.339 1041.1 Z" fill="#000000" fill-rule="nonzero" fill-opacity="1" /><path clip-path="url(#clip330)" d="M81.0614 717.021 L99.4178 717.021 L99.4178 720.956 L85.3438 720.956 L85.3438 729.428 Q86.3623 729.081 87.3808 728.919 Q88.3993 728.733 89.4178 728.733 Q95.2049 728.733 98.5845 731.905 Q101.964 735.076 101.964 740.493 Q101.964 746.071 98.4919 749.173 Q95.0197 752.252 88.7003 752.252 Q86.5243 752.252 84.2558 751.881 Q82.0105 751.511 79.6031 750.77 L79.6031 746.071 Q81.6864 747.206 83.9086 747.761 Q86.1308 748.317 88.6077 748.317 Q92.6123 748.317 94.9502 746.21 Q97.2882 744.104 97.2882 740.493 Q97.2882 736.882 94.9502 734.775 Q92.6123 732.669 88.6077 732.669 Q86.7327 732.669 84.8577 733.085 Q83.0058 733.502 81.0614 734.382 L81.0614 717.021 Z" fill="#000000" fill-rule="nonzero" fill-opacity="1" /><path clip-path="url(#clip330)" d="M121.177 720.099 Q117.566 720.099 115.737 723.664 Q113.932 727.206 113.932 734.335 Q113.932 741.442 115.737 745.007 Q117.566 748.548 121.177 748.548 Q124.811 748.548 126.617 745.007 Q128.445 741.442 128.445 734.335 Q128.445 727.206 126.617 723.664 Q124.811 720.099 121.177 720.099 M121.177 716.396 Q126.987 716.396 130.043 721.002 Q133.121 725.585 133.121 734.335 Q133.121 743.062 130.043 747.669 Q126.987 752.252 121.177 752.252 Q115.367 752.252 112.288 747.669 Q109.233 743.062 109.233 734.335 Q109.233 725.585 112.288 721.002 Q115.367 716.396 121.177 716.396 Z" fill="#000000" fill-rule="nonzero" fill-opacity="1" /><path clip-path="url(#clip330)" d="M151.339 720.099 Q147.728 720.099 145.899 723.664 Q144.093 727.206 144.093 734.335 Q144.093 741.442 145.899 745.007 Q147.728 748.548 151.339 748.548 Q154.973 748.548 156.779 745.007 Q158.607 741.442 158.607 734.335 Q158.607 727.206 156.779 723.664 Q154.973 720.099 151.339 720.099 M151.339 716.396 Q157.149 716.396 160.205 721.002 Q163.283 725.585 163.283 734.335 Q163.283 743.062 160.205 747.669 Q157.149 752.252 151.339 752.252 Q145.529 752.252 142.45 747.669 Q139.394 743.062 139.394 734.335 Q139.394 725.585 142.45 721.002 Q145.529 716.396 151.339 716.396 Z" fill="#000000" fill-rule="nonzero" fill-opacity="1" /><path clip-path="url(#clip330)" d="M79.8346 392.314 L102.057 392.314 L102.057 394.304 L89.5104 426.874 L84.6262 426.874 L96.4317 396.249 L79.8346 396.249 L79.8346 392.314 Z" fill="#000000" fill-rule="nonzero" fill-opacity="1" /><path clip-path="url(#clip330)" d="M111.223 392.314 L129.58 392.314 L129.58 396.249 L115.506 396.249 L115.506 404.721 Q116.524 404.374 117.543 404.212 Q118.561 404.027 119.58 404.027 Q125.367 404.027 128.746 407.198 Q132.126 410.369 132.126 415.786 Q132.126 421.364 128.654 424.466 Q125.182 427.545 118.862 427.545 Q116.686 427.545 114.418 427.175 Q112.172 426.804 109.765 426.064 L109.765 421.364 Q111.848 422.499 114.07 423.054 Q116.293 423.61 118.77 423.61 Q122.774 423.61 125.112 421.503 Q127.45 419.397 127.45 415.786 Q127.45 412.175 125.112 410.068 Q122.774 407.962 118.77 407.962 Q116.895 407.962 115.02 408.378 Q113.168 408.795 111.223 409.675 L111.223 392.314 Z" fill="#000000" fill-rule="nonzero" fill-opacity="1" /><path clip-path="url(#clip330)" d="M151.339 395.392 Q147.728 395.392 145.899 398.957 Q144.093 402.499 144.093 409.628 Q144.093 416.735 145.899 420.3 Q147.728 423.841 151.339 423.841 Q154.973 423.841 156.779 420.3 Q158.607 416.735 158.607 409.628 Q158.607 402.499 156.779 398.957 Q154.973 395.392 151.339 395.392 M151.339 391.689 Q157.149 391.689 160.205 396.295 Q163.283 400.878 163.283 409.628 Q163.283 418.355 160.205 422.962 Q157.149 427.545 151.339 427.545 Q145.529 427.545 142.45 422.962 Q139.394 418.355 139.394 409.628 Q139.394 400.878 142.45 396.295 Q145.529 391.689 151.339 391.689 Z" fill="#000000" fill-rule="nonzero" fill-opacity="1" /><path clip-path="url(#clip330)" d="M51.6634 98.2317 L59.3023 98.2317 L59.3023 71.8661 L50.9921 73.5327 L50.9921 69.2735 L59.256 67.6068 L63.9319 67.6068 L63.9319 98.2317 L71.5707 98.2317 L71.5707 102.167 L51.6634 102.167 L51.6634 98.2317 Z" fill="#000000" fill-rule="nonzero" fill-opacity="1" /><path clip-path="url(#clip330)" d="M91.0151 70.6855 Q87.404 70.6855 85.5753 74.2503 Q83.7697 77.792 83.7697 84.9216 Q83.7697 92.028 85.5753 95.5928 Q87.404 99.1345 91.0151 99.1345 Q94.6493 99.1345 96.4548 95.5928 Q98.2835 92.028 98.2835 84.9216 Q98.2835 77.792 96.4548 74.2503 Q94.6493 70.6855 91.0151 70.6855 M91.0151 66.9818 Q96.8252 66.9818 99.8808 71.5883 Q102.959 76.1716 102.959 84.9216 Q102.959 93.6484 99.8808 98.2548 Q96.8252 102.838 91.0151 102.838 Q85.2049 102.838 82.1262 98.2548 Q79.0707 93.6484 79.0707 84.9216 Q79.0707 76.1716 82.1262 71.5883 Q85.2049 66.9818 91.0151 66.9818 Z" fill="#000000" fill-rule="nonzero" fill-opacity="1" /><path clip-path="url(#clip330)" d="M121.177 70.6855 Q117.566 70.6855 115.737 74.2503 Q113.932 77.792 113.932 84.9216 Q113.932 92.028 115.737 95.5928 Q117.566 99.1345 121.177 99.1345 Q124.811 99.1345 126.617 95.5928 Q128.445 92.028 128.445 84.9216 Q128.445 77.792 126.617 74.2503 Q124.811 70.6855 121.177 70.6855 M121.177 66.9818 Q126.987 66.9818 130.043 71.5883 Q133.121 76.1716 133.121 84.9216 Q133.121 93.6484 130.043 98.2548 Q126.987 102.838 121.177 102.838 Q115.367 102.838 112.288 98.2548 Q109.233 93.6484 109.233 84.9216 Q109.233 76.1716 112.288 71.5883 Q115.367 66.9818 121.177 66.9818 Z" fill="#000000" fill-rule="nonzero" fill-opacity="1" /><path clip-path="url(#clip330)" d="M151.339 70.6855 Q147.728 70.6855 145.899 74.2503 Q144.093 77.792 144.093 84.9216 Q144.093 92.028 145.899 95.5928 Q147.728 99.1345 151.339 99.1345 Q154.973 99.1345 156.779 95.5928 Q158.607 92.028 158.607 84.9216 Q158.607 77.792 156.779 74.2503 Q154.973 70.6855 151.339 70.6855 M151.339 66.9818 Q157.149 66.9818 160.205 71.5883 Q163.283 76.1716 163.283 84.9216 Q163.283 93.6484 160.205 98.2548 Q157.149 102.838 151.339 102.838 Q145.529 102.838 142.45 98.2548 Q139.394 93.6484 139.394 84.9216 Q139.394 76.1716 142.45 71.5883 Q145.529 66.9818 151.339 66.9818 Z" fill="#000000" fill-rule="nonzero" fill-opacity="1" /><polyline clip-path="url(#clip332)" style="stroke:#009af9; stroke-linecap:round; stroke-linejoin:round; stroke-width:8; stroke-opacity:1; fill:none" points="199.283,86.1857 199.35,86.1857 199.425,86.1857 199.51,86.1857 199.605,86.1857 199.713,86.1857 199.833,86.1857 199.969,86.1857 200.122,86.1857 200.293,86.1857 200.487,86.1857 200.704,86.1857 200.949,86.1857 201.224,86.1857 201.533,86.1857 201.882,86.1857 202.273,86.1857 202.714,86.1857 203.21,86.1857 203.767,86.1857 204.202,86.1857 204.691,86.1857 205.24,86.1857 205.859,86.1857 206.555,86.1857 207.338,86.1857 208.218,86.1857 209.209,86.1857 210.324,86.1857 211.578,86.1857 212.989,86.1857 214.576,86.1857 216.361,86.1857 218.37,86.1857 220.629,86.1857 223.172,86.1857 226.031,86.1857 229.249,86.1857 232.869,86.1857 236.941,86.1857 241.522,86.1857 246.675,86.1857 252.473,86.1857 258.996,86.1857 266.334,86.1857 274.589,86.1857 283.876,86.1857 294.324,86.1857 306.078,86.1857 319.302,86.1857 334.178,86.1857 350.913,86.1857 369.741,86.1857 390.922,86.1857 414.751,86.1857 441.558,86.1857 471.717,86.1857 505.645,86.1857 543.814,86.1857 586.754,86.1857 635.062,86.1857 685.811,86.1857 742.903,86.1857 807.132,86.1857 879.39,86.1857 960.68,86.1857 1052.13,86.1857 1155.01,86.1857 1270.76,86.1857 1400.97,86.1857 1547.45,86.1857 1712.25,86.1857 1897.65,86.1857 2106.22,86.1857 2340.86,86.1857 2352.76,86.1857 "/>
<polyline clip-path="url(#clip332)" style="stroke:#e26f46; stroke-linecap:round; stroke-linejoin:round; stroke-width:8; stroke-opacity:1; fill:none" points="199.283,1382.42 199.35,1382.42 199.425,1382.42 199.51,1382.42 199.605,1382.42 199.713,1382.42 199.833,1382.42 199.969,1382.42 200.122,1382.42 200.293,1382.42 200.487,1382.42 200.704,1382.42 200.949,1382.42 201.224,1382.42 201.533,1382.42 201.882,1382.42 202.273,1382.42 202.714,1382.42 203.21,1382.42 203.767,1382.42 204.202,1382.42 204.691,1383.71 205.24,1383.71 205.859,1383.71 206.555,1383.71 207.338,1383.71 208.218,1383.71 209.209,1383.71 210.324,1383.71 211.578,1383.71 212.989,1383.71 214.576,1383.71 216.361,1383.71 218.37,1383.71 220.629,1383.71 223.172,1383.71 226.031,1383.71 229.249,1383.71 232.869,1383.71 236.941,1383.71 241.522,1383.71 246.675,1383.71 252.473,1383.71 258.996,1383.71 266.334,1383.71 274.589,1383.71 283.876,1383.71 294.324,1383.71 306.078,1383.71 319.302,1383.71 334.178,1383.71 350.913,1383.71 369.741,1383.71 390.922,1383.71 414.751,1383.71 441.558,1383.71 471.717,1383.71 505.645,1383.71 543.814,1383.71 586.754,1383.71 635.062,1383.71 685.811,1383.71 742.903,1383.71 807.132,1383.71 879.39,1383.71 960.68,1383.71 1052.13,1383.71 1155.01,1383.71 1270.76,1383.71 1400.97,1383.71 1547.45,1383.71 1712.25,1383.71 1897.65,1383.71 2106.22,1383.71 2340.86,1383.71 2352.76,1383.71 "/>
<polyline clip-path="url(#clip332)" style="stroke:#3da44d; stroke-linecap:round; stroke-linejoin:round; stroke-width:8; stroke-opacity:1; fill:none" points="199.283,1383.71 199.35,1383.71 199.425,1383.71 199.51,1383.71 199.605,1383.71 199.713,1383.71 199.833,1383.71 199.969,1383.71 200.122,1383.71 200.293,1383.71 200.487,1383.71 200.704,1383.71 200.949,1383.71 201.224,1383.71 201.533,1383.71 201.882,1383.71 202.273,1383.71 202.714,1383.71 203.21,1383.71 203.767,1383.71 204.202,1383.71 204.691,1382.42 205.24,1382.42 205.859,1382.42 206.555,1382.42 207.338,1382.42 208.218,1382.42 209.209,1382.42 210.324,1382.42 211.578,1382.42 212.989,1382.42 214.576,1382.42 216.361,1382.42 218.37,1382.42 220.629,1382.42 223.172,1382.42 226.031,1382.42 229.249,1382.42 232.869,1382.42 236.941,1382.42 241.522,1382.42 246.675,1382.42 252.473,1382.42 258.996,1382.42 266.334,1382.42 274.589,1382.42 283.876,1382.42 294.324,1382.42 306.078,1382.42 319.302,1382.42 334.178,1382.42 350.913,1382.42 369.741,1382.42 390.922,1382.42 414.751,1382.42 441.558,1382.42 471.717,1382.42 505.645,1382.42 543.814,1382.42 586.754,1382.42 635.062,1382.42 685.811,1382.42 742.903,1382.42 807.132,1382.42 879.39,1382.42 960.68,1382.42 1052.13,1382.42 1155.01,1382.42 1270.76,1382.42 1400.97,1382.42 1547.45,1382.42 1712.25,1382.42 1897.65,1382.42 2106.22,1382.42 2340.86,1382.42 2352.76,1382.42 "/>
<polyline clip-path="url(#clip332)" style="stroke:#c271d2; stroke-linecap:round; stroke-linejoin:round; stroke-width:8; stroke-opacity:1; fill:none" points="199.283,1382.42 199.35,1382.4 199.425,1382.4 199.51,1382.39 199.605,1382.4 199.713,1382.41 199.833,1382.4 199.969,1382.38 200.122,1382.39 200.293,1382.43 200.487,1382.42 200.704,1382.42 200.949,1382.45 201.224,1382.45 201.533,1382.47 201.882,1382.47 202.273,1382.52 202.714,1382.53 203.21,1382.54 203.767,1382.56 204.202,1382.53 204.691,1382.58 205.24,1382.57 205.859,1382.59 206.555,1382.61 207.338,1382.62 208.218,1382.66 209.209,1382.73 210.324,1382.72 211.578,1382.71 212.989,1382.7 214.576,1382.71 216.361,1382.79 218.37,1382.76 220.629,1382.81 223.172,1382.77 226.031,1382.79 229.249,1382.76 232.869,1382.79 236.941,1382.92 241.522,1382.93 246.675,1382.9 252.473,1382.9 258.996,1382.93 266.334,1382.96 274.589,1383.02 283.876,1383 294.324,1383.05 306.078,1383.14 319.302,1383.08 334.178,1383.14 350.913,1383.2 369.741,1383.24 390.922,1383.18 414.751,1383.27 441.558,1383.21 471.717,1383.34 505.645,1383.39 543.814,1383.44 586.754,1383.34 635.062,1383.38 685.811,1383.49 742.903,1383.55 807.132,1383.57 879.39,1383.6 960.68,1383.62 1052.13,1383.66 1155.01,1383.68 1270.76,1383.69 1400.97,1383.7 1547.45,1383.7 1712.25,1383.7 1897.65,1383.71 2106.22,1383.71 2340.86,1383.71 2352.76,1383.71 "/>
<polyline clip-path="url(#clip332)" style="stroke:#ac8d18; stroke-linecap:round; stroke-linejoin:round; stroke-width:8; stroke-opacity:1; fill:none" points="199.283,1384.24 199.35,1384.24 199.425,1384.24 199.51,1384.24 199.605,1384.24 199.713,1384.24 199.833,1384.24 199.969,1384.24 200.122,1384.24 200.293,1384.24 200.487,1384.24 200.704,1384.24 200.949,1384.24 201.224,1384.24 201.533,1384.23 201.882,1384.23 202.273,1384.23 202.714,1384.23 203.21,1384.23 203.767,1384.23 204.202,1384.23 204.691,1384.23 205.24,1384.23 205.859,1384.23 206.555,1384.23 207.338,1384.23 208.218,1384.23 209.209,1384.22 210.324,1384.22 211.578,1384.22 212.989,1384.22 214.576,1384.22 216.361,1384.22 218.37,1384.21 220.629,1384.21 223.172,1384.21 226.031,1384.21 229.249,1384.2 232.869,1384.2 236.941,1384.19 241.522,1384.19 246.675,1384.19 252.473,1384.18 258.996,1384.17 266.334,1384.17 274.589,1384.16 283.876,1384.15 294.324,1384.15 306.078,1384.14 319.302,1384.13 334.178,1384.12 350.913,1384.11 369.741,1384.09 390.922,1384.08 414.751,1384.07 441.558,1384.05 471.717,1384.04 505.645,1384.02 543.814,1384.01 586.754,1384 635.062,1383.97 685.811,1383.96 742.903,1383.95 807.132,1383.93 879.39,1383.92 960.68,1383.91 1052.13,1383.91 1155.01,1383.9 1270.76,1383.9 1400.97,1383.9 1547.45,1383.89 1712.25,1383.89 1897.65,1383.89 2106.22,1383.89 2340.86,1383.89 2352.76,1383.88 "/>
<path clip-path="url(#clip330)" d="M1969.1 404.149 L2280.97 404.149 L2280.97 93.1086 L1969.1 93.1086  Z" fill="#ffffff" fill-rule="evenodd" fill-opacity="1"/>
<polyline clip-path="url(#clip330)" style="stroke:#000000; stroke-linecap:round; stroke-linejoin:round; stroke-width:4; stroke-opacity:1; fill:none" points="1969.1,404.149 2280.97,404.149 2280.97,93.1086 1969.1,93.1086 1969.1,404.149 "/>
<polyline clip-path="url(#clip330)" style="stroke:#009af9; stroke-linecap:round; stroke-linejoin:round; stroke-width:8; stroke-opacity:1; fill:none" points="1993.03,144.949 2136.59,144.949 "/>
<path clip-path="url(#clip330)" d="M2182.76 128.803 L2182.76 133.363 Q2180.1 132.09 2177.74 131.465 Q2175.38 130.84 2173.18 130.84 Q2169.36 130.84 2167.28 132.321 Q2165.22 133.803 2165.22 136.534 Q2165.22 138.826 2166.58 140.007 Q2167.97 141.164 2171.81 141.882 L2174.64 142.46 Q2179.87 143.456 2182.35 145.979 Q2184.85 148.479 2184.85 152.692 Q2184.85 157.715 2181.47 160.307 Q2178.11 162.9 2171.61 162.9 Q2169.15 162.9 2166.38 162.344 Q2163.62 161.789 2160.66 160.701 L2160.66 155.886 Q2163.5 157.483 2166.24 158.293 Q2168.97 159.104 2171.61 159.104 Q2175.61 159.104 2177.79 157.53 Q2179.96 155.956 2179.96 153.039 Q2179.96 150.493 2178.39 149.057 Q2176.84 147.622 2173.27 146.905 L2170.43 146.349 Q2165.19 145.307 2162.86 143.085 Q2160.52 140.863 2160.52 136.905 Q2160.52 132.321 2163.74 129.682 Q2166.98 127.044 2172.65 127.044 Q2175.08 127.044 2177.6 127.483 Q2180.13 127.923 2182.76 128.803 Z" fill="#000000" fill-rule="nonzero" fill-opacity="1" /><path clip-path="url(#clip330)" d="M2202.19 126.257 Q2199.08 131.581 2197.58 136.789 Q2196.07 141.997 2196.07 147.344 Q2196.07 152.692 2197.58 157.946 Q2199.11 163.178 2202.19 168.479 L2198.48 168.479 Q2195.01 163.039 2193.27 157.784 Q2191.56 152.53 2191.56 147.344 Q2191.56 142.182 2193.27 136.951 Q2194.99 131.72 2198.48 126.257 L2202.19 126.257 Z" fill="#000000" fill-rule="nonzero" fill-opacity="1" /><path clip-path="url(#clip330)" d="M2214.66 128.942 L2214.66 136.303 L2223.44 136.303 L2223.44 139.613 L2214.66 139.613 L2214.66 153.687 Q2214.66 156.858 2215.52 157.761 Q2216.4 158.664 2219.06 158.664 L2223.44 158.664 L2223.44 162.229 L2219.06 162.229 Q2214.13 162.229 2212.25 160.4 Q2210.38 158.548 2210.38 153.687 L2210.38 139.613 L2207.25 139.613 L2207.25 136.303 L2210.38 136.303 L2210.38 128.942 L2214.66 128.942 Z" fill="#000000" fill-rule="nonzero" fill-opacity="1" /><path clip-path="url(#clip330)" d="M2228.37 126.257 L2232.07 126.257 Q2235.54 131.72 2237.25 136.951 Q2238.99 142.182 2238.99 147.344 Q2238.99 152.53 2237.25 157.784 Q2235.54 163.039 2232.07 168.479 L2228.37 168.479 Q2231.44 163.178 2232.95 157.946 Q2234.48 152.692 2234.48 147.344 Q2234.48 141.997 2232.95 136.789 Q2231.44 131.581 2228.37 126.257 Z" fill="#000000" fill-rule="nonzero" fill-opacity="1" /><polyline clip-path="url(#clip330)" style="stroke:#e26f46; stroke-linecap:round; stroke-linejoin:round; stroke-width:8; stroke-opacity:1; fill:none" points="1993.03,196.789 2136.59,196.789 "/>
<path clip-path="url(#clip330)" d="M2160.52 179.509 L2165.19 179.509 L2165.19 214.069 L2160.52 214.069 L2160.52 179.509 Z" fill="#000000" fill-rule="nonzero" fill-opacity="1" /><path clip-path="url(#clip330)" d="M2184.55 178.097 Q2181.44 183.421 2179.94 188.629 Q2178.44 193.837 2178.44 199.184 Q2178.44 204.532 2179.94 209.786 Q2181.47 215.018 2184.55 220.319 L2180.84 220.319 Q2177.37 214.879 2175.63 209.624 Q2173.92 204.37 2173.92 199.184 Q2173.92 194.022 2175.63 188.791 Q2177.35 183.56 2180.84 178.097 L2184.55 178.097 Z" fill="#000000" fill-rule="nonzero" fill-opacity="1" /><path clip-path="url(#clip330)" d="M2197.02 180.782 L2197.02 188.143 L2205.8 188.143 L2205.8 191.453 L2197.02 191.453 L2197.02 205.527 Q2197.02 208.698 2197.88 209.601 Q2198.76 210.504 2201.42 210.504 L2205.8 210.504 L2205.8 214.069 L2201.42 214.069 Q2196.49 214.069 2194.62 212.24 Q2192.74 210.388 2192.74 205.527 L2192.74 191.453 L2189.62 191.453 L2189.62 188.143 L2192.74 188.143 L2192.74 180.782 L2197.02 180.782 Z" fill="#000000" fill-rule="nonzero" fill-opacity="1" /><path clip-path="url(#clip330)" d="M2210.73 178.097 L2214.43 178.097 Q2217.9 183.56 2219.62 188.791 Q2221.35 194.022 2221.35 199.184 Q2221.35 204.37 2219.62 209.624 Q2217.9 214.879 2214.43 220.319 L2210.73 220.319 Q2213.81 215.018 2215.31 209.786 Q2216.84 204.532 2216.84 199.184 Q2216.84 193.837 2215.31 188.629 Q2213.81 183.421 2210.73 178.097 Z" fill="#000000" fill-rule="nonzero" fill-opacity="1" /><polyline clip-path="url(#clip330)" style="stroke:#3da44d; stroke-linecap:round; stroke-linejoin:round; stroke-width:8; stroke-opacity:1; fill:none" points="1993.03,248.629 2136.59,248.629 "/>
<path clip-path="url(#clip330)" d="M2176.91 249.705 Q2178.41 250.214 2179.82 251.881 Q2181.26 253.548 2182.69 256.464 L2187.44 265.909 L2182.42 265.909 L2178 257.043 Q2176.28 253.571 2174.66 252.436 Q2173.06 251.302 2170.29 251.302 L2165.19 251.302 L2165.19 265.909 L2160.52 265.909 L2160.52 231.349 L2171.07 231.349 Q2177 231.349 2179.92 233.825 Q2182.83 236.302 2182.83 241.302 Q2182.83 244.566 2181.31 246.719 Q2179.8 248.872 2176.91 249.705 M2165.19 235.191 L2165.19 247.46 L2171.07 247.46 Q2174.45 247.46 2176.17 245.909 Q2177.9 244.335 2177.9 241.302 Q2177.9 238.27 2176.17 236.742 Q2174.45 235.191 2171.07 235.191 L2165.19 235.191 Z" fill="#000000" fill-rule="nonzero" fill-opacity="1" /><path clip-path="url(#clip330)" d="M2203.5 229.937 Q2200.4 235.261 2198.9 240.469 Q2197.39 245.677 2197.39 251.024 Q2197.39 256.372 2198.9 261.626 Q2200.43 266.858 2203.5 272.159 L2199.8 272.159 Q2196.33 266.719 2194.59 261.464 Q2192.88 256.21 2192.88 251.024 Q2192.88 245.862 2194.59 240.631 Q2196.31 235.4 2199.8 229.937 L2203.5 229.937 Z" fill="#000000" fill-rule="nonzero" fill-opacity="1" /><path clip-path="url(#clip330)" d="M2215.98 232.622 L2215.98 239.983 L2224.75 239.983 L2224.75 243.293 L2215.98 243.293 L2215.98 257.367 Q2215.98 260.538 2216.84 261.441 Q2217.72 262.344 2220.38 262.344 L2224.75 262.344 L2224.75 265.909 L2220.38 265.909 Q2215.45 265.909 2213.57 264.08 Q2211.7 262.228 2211.7 257.367 L2211.7 243.293 L2208.57 243.293 L2208.57 239.983 L2211.7 239.983 L2211.7 232.622 L2215.98 232.622 Z" fill="#000000" fill-rule="nonzero" fill-opacity="1" /><path clip-path="url(#clip330)" d="M2229.69 229.937 L2233.39 229.937 Q2236.86 235.4 2238.57 240.631 Q2240.31 245.862 2240.31 251.024 Q2240.31 256.21 2238.57 261.464 Q2236.86 266.719 2233.39 272.159 L2229.69 272.159 Q2232.76 266.858 2234.27 261.626 Q2235.8 256.372 2235.8 251.024 Q2235.8 245.677 2234.27 240.469 Q2232.76 235.261 2229.69 229.937 Z" fill="#000000" fill-rule="nonzero" fill-opacity="1" /><polyline clip-path="url(#clip330)" style="stroke:#c271d2; stroke-linecap:round; stroke-linejoin:round; stroke-width:8; stroke-opacity:1; fill:none" points="1993.03,300.469 2136.59,300.469 "/>
<path clip-path="url(#clip330)" d="M2160.52 307.517 L2160.52 291.823 L2164.78 291.823 L2164.78 307.355 Q2164.78 311.036 2166.21 312.888 Q2167.65 314.716 2170.52 314.716 Q2173.97 314.716 2175.96 312.517 Q2177.97 310.318 2177.97 306.522 L2177.97 291.823 L2182.23 291.823 L2182.23 317.749 L2177.97 317.749 L2177.97 313.767 Q2176.42 316.128 2174.36 317.286 Q2172.32 318.42 2169.62 318.42 Q2165.15 318.42 2162.83 315.642 Q2160.52 312.864 2160.52 307.517 M2171.24 291.198 L2171.24 291.198 Z" fill="#000000" fill-rule="nonzero" fill-opacity="1" /><path clip-path="url(#clip330)" d="M2197.58 301.221 L2190.43 310.92 L2197.58 310.92 L2197.58 301.221 M2197.07 298.42 L2200.91 298.42 L2200.91 310.92 L2204.04 310.92 L2204.04 313.443 L2200.91 313.443 L2200.91 317.749 L2197.58 317.749 L2197.58 313.443 L2188 313.443 L2188 310.642 L2197.07 298.42 Z" fill="#000000" fill-rule="nonzero" fill-opacity="1" /><path clip-path="url(#clip330)" d="M2220.24 281.777 Q2217.14 287.101 2215.63 292.309 Q2214.13 297.517 2214.13 302.864 Q2214.13 308.212 2215.63 313.466 Q2217.16 318.698 2220.24 323.999 L2216.54 323.999 Q2213.06 318.559 2211.33 313.304 Q2209.62 308.05 2209.62 302.864 Q2209.62 297.702 2211.33 292.471 Q2213.04 287.24 2216.54 281.777 L2220.24 281.777 Z" fill="#000000" fill-rule="nonzero" fill-opacity="1" /><path clip-path="url(#clip330)" d="M2232.72 284.462 L2232.72 291.823 L2241.49 291.823 L2241.49 295.133 L2232.72 295.133 L2232.72 309.207 Q2232.72 312.378 2233.57 313.281 Q2234.45 314.184 2237.12 314.184 L2241.49 314.184 L2241.49 317.749 L2237.12 317.749 Q2232.19 317.749 2230.31 315.92 Q2228.44 314.068 2228.44 309.207 L2228.44 295.133 L2225.31 295.133 L2225.31 291.823 L2228.44 291.823 L2228.44 284.462 L2232.72 284.462 Z" fill="#000000" fill-rule="nonzero" fill-opacity="1" /><path clip-path="url(#clip330)" d="M2246.42 281.777 L2250.12 281.777 Q2253.6 287.24 2255.31 292.471 Q2257.05 297.702 2257.05 302.864 Q2257.05 308.05 2255.31 313.304 Q2253.6 318.559 2250.12 323.999 L2246.42 323.999 Q2249.5 318.698 2251 313.466 Q2252.53 308.212 2252.53 302.864 Q2252.53 297.517 2251 292.309 Q2249.5 287.101 2246.42 281.777 Z" fill="#000000" fill-rule="nonzero" fill-opacity="1" /><polyline clip-path="url(#clip330)" style="stroke:#ac8d18; stroke-linecap:round; stroke-linejoin:round; stroke-width:8; stroke-opacity:1; fill:none" points="1993.03,352.309 2136.59,352.309 "/>
<path clip-path="url(#clip330)" d="M2182.76 336.163 L2182.76 340.723 Q2180.1 339.45 2177.74 338.825 Q2175.38 338.2 2173.18 338.2 Q2169.36 338.2 2167.28 339.681 Q2165.22 341.163 2165.22 343.894 Q2165.22 346.186 2166.58 347.367 Q2167.97 348.524 2171.81 349.242 L2174.64 349.82 Q2179.87 350.816 2182.35 353.339 Q2184.85 355.839 2184.85 360.052 Q2184.85 365.075 2181.47 367.667 Q2178.11 370.26 2171.61 370.26 Q2169.15 370.26 2166.38 369.704 Q2163.62 369.149 2160.66 368.061 L2160.66 363.246 Q2163.5 364.843 2166.24 365.653 Q2168.97 366.464 2171.61 366.464 Q2175.61 366.464 2177.79 364.89 Q2179.96 363.316 2179.96 360.399 Q2179.96 357.853 2178.39 356.417 Q2176.84 354.982 2173.27 354.265 L2170.43 353.709 Q2165.19 352.667 2162.86 350.445 Q2160.52 348.223 2160.52 344.265 Q2160.52 339.681 2163.74 337.042 Q2166.98 334.404 2172.65 334.404 Q2175.08 334.404 2177.6 334.843 Q2180.13 335.283 2182.76 336.163 Z" fill="#000000" fill-rule="nonzero" fill-opacity="1" /><path clip-path="url(#clip330)" d="M2202.19 333.617 Q2199.08 338.941 2197.58 344.149 Q2196.07 349.357 2196.07 354.704 Q2196.07 360.052 2197.58 365.306 Q2199.11 370.538 2202.19 375.839 L2198.48 375.839 Q2195.01 370.399 2193.27 365.144 Q2191.56 359.89 2191.56 354.704 Q2191.56 349.542 2193.27 344.311 Q2194.99 339.08 2198.48 333.617 L2202.19 333.617 Z" fill="#000000" fill-rule="nonzero" fill-opacity="1" /><path clip-path="url(#clip330)" d="M2214.66 336.302 L2214.66 343.663 L2223.44 343.663 L2223.44 346.973 L2214.66 346.973 L2214.66 361.047 Q2214.66 364.218 2215.52 365.121 Q2216.4 366.024 2219.06 366.024 L2223.44 366.024 L2223.44 369.589 L2219.06 369.589 Q2214.13 369.589 2212.25 367.76 Q2210.38 365.908 2210.38 361.047 L2210.38 346.973 L2207.25 346.973 L2207.25 343.663 L2210.38 343.663 L2210.38 336.302 L2214.66 336.302 Z" fill="#000000" fill-rule="nonzero" fill-opacity="1" /><path clip-path="url(#clip330)" d="M2228.37 333.617 L2232.07 333.617 Q2235.54 339.08 2237.25 344.311 Q2238.99 349.542 2238.99 354.704 Q2238.99 359.89 2237.25 365.144 Q2235.54 370.399 2232.07 375.839 L2228.37 375.839 Q2231.44 370.538 2232.95 365.306 Q2234.48 360.052 2234.48 354.704 Q2234.48 349.357 2232.95 344.149 Q2231.44 338.941 2228.37 333.617 Z" fill="#000000" fill-rule="nonzero" fill-opacity="1" /></svg>
