<?xml version="1.0" encoding="utf-8"?>
<svg xmlns="http://www.w3.org/2000/svg" xmlns:xlink="http://www.w3.org/1999/xlink" width="600" height="400" viewBox="0 0 2400 1600">
<defs>
  <clipPath id="clip440">
    <rect x="0" y="0" width="2400" height="1600"/>
  </clipPath>
</defs>
<path clip-path="url(#clip440)" d="M0 1600 L2400 1600 L2400 0 L0 0  Z" fill="#ffffff" fill-rule="evenodd" fill-opacity="1"/>
<defs>
  <clipPath id="clip441">
    <rect x="480" y="0" width="1681" height="1600"/>
  </clipPath>
</defs>
<path clip-path="url(#clip440)" d="M138.959 1423.18 L2352.76 1423.18 L2352.76 47.2441 L138.959 47.2441  Z" fill="#ffffff" fill-rule="evenodd" fill-opacity="1"/>
<defs>
  <clipPath id="clip442">
    <rect x="138" y="47" width="2215" height="1377"/>
  </clipPath>
</defs>
<polyline clip-path="url(#clip442)" style="stroke:#000000; stroke-linecap:round; stroke-linejoin:round; stroke-width:2; stroke-opacity:0.1; fill:none" points="138.959,1423.18 138.959,47.2441 "/>
<polyline clip-path="url(#clip442)" style="stroke:#000000; stroke-linecap:round; stroke-linejoin:round; stroke-width:2; stroke-opacity:0.1; fill:none" points="581.719,1423.18 581.719,47.2441 "/>
<polyline clip-path="url(#clip442)" style="stroke:#000000; stroke-linecap:round; stroke-linejoin:round; stroke-width:2; stroke-opacity:0.1; fill:none" points="1024.48,1423.18 1024.48,47.2441 "/>
<polyline clip-path="url(#clip442)" style="stroke:#000000; stroke-linecap:round; stroke-linejoin:round; stroke-width:2; stroke-opacity:0.1; fill:none" points="1467.24,1423.18 1467.24,47.2441 "/>
<polyline clip-path="url(#clip442)" style="stroke:#000000; stroke-linecap:round; stroke-linejoin:round; stroke-width:2; stroke-opacity:0.1; fill:none" points="1910,1423.18 1910,47.2441 "/>
<polyline clip-path="url(#clip442)" style="stroke:#000000; stroke-linecap:round; stroke-linejoin:round; stroke-width:2; stroke-opacity:0.1; fill:none" points="2352.76,1423.18 2352.76,47.2441 "/>
<polyline clip-path="url(#clip440)" style="stroke:#000000; stroke-linecap:round; stroke-linejoin:round; stroke-width:4; stroke-opacity:1; fill:none" points="138.959,1423.18 2352.76,1423.18 "/>
<polyline clip-path="url(#clip440)" style="stroke:#000000; stroke-linecap:round; stroke-linejoin:round; stroke-width:4; stroke-opacity:1; fill:none" points="138.959,1423.18 138.959,1404.28 "/>
<polyline clip-path="url(#clip440)" style="stroke:#000000; stroke-linecap:round; stroke-linejoin:round; stroke-width:4; stroke-opacity:1; fill:none" points="581.719,1423.18 581.719,1404.28 "/>
<polyline clip-path="url(#clip440)" style="stroke:#000000; stroke-linecap:round; stroke-linejoin:round; stroke-width:4; stroke-opacity:1; fill:none" points="1024.48,1423.18 1024.48,1404.28 "/>
<polyline clip-path="url(#clip440)" style="stroke:#000000; stroke-linecap:round; stroke-linejoin:round; stroke-width:4; stroke-opacity:1; fill:none" points="1467.24,1423.18 1467.24,1404.28 "/>
<polyline clip-path="url(#clip440)" style="stroke:#000000; stroke-linecap:round; stroke-linejoin:round; stroke-width:4; stroke-opacity:1; fill:none" points="1910,1423.18 1910,1404.28 "/>
<polyline clip-path="url(#clip440)" style="stroke:#000000; stroke-linecap:round; stroke-linejoin:round; stroke-width:4; stroke-opacity:1; fill:none" points="2352.76,1423.18 2352.76,1404.28 "/>
<path clip-path="url(#clip440)" d="M138.959 1454.1 Q135.348 1454.1 133.52 1457.66 Q131.714 1461.2 131.714 1468.33 Q131.714 1475.44 133.52 1479.01 Q135.348 1482.55 138.959 1482.55 Q142.594 1482.55 144.399 1479.01 Q146.228 1475.44 146.228 1468.33 Q146.228 1461.2 144.399 1457.66 Q142.594 1454.1 138.959 1454.1 M138.959 1450.39 Q144.77 1450.39 147.825 1455 Q150.904 1459.58 150.904 1468.33 Q150.904 1477.06 147.825 1481.67 Q144.77 1486.25 138.959 1486.25 Q133.149 1486.25 130.071 1481.67 Q127.015 1477.06 127.015 1468.33 Q127.015 1459.58 130.071 1455 Q133.149 1450.39 138.959 1450.39 Z" fill="#000000" fill-rule="nonzero" fill-opacity="1" /><path clip-path="url(#clip440)" d="M576.372 1481.64 L592.691 1481.64 L592.691 1485.58 L570.747 1485.58 L570.747 1481.64 Q573.409 1478.89 577.992 1474.26 Q582.598 1469.61 583.779 1468.27 Q586.024 1465.74 586.904 1464.01 Q587.807 1462.25 587.807 1460.56 Q587.807 1457.8 585.862 1456.07 Q583.941 1454.33 580.839 1454.33 Q578.64 1454.33 576.186 1455.09 Q573.756 1455.86 570.978 1457.41 L570.978 1452.69 Q573.802 1451.55 576.256 1450.97 Q578.709 1450.39 580.747 1450.39 Q586.117 1450.39 589.311 1453.08 Q592.506 1455.77 592.506 1460.26 Q592.506 1462.39 591.696 1464.31 Q590.908 1466.2 588.802 1468.8 Q588.223 1469.47 585.121 1472.69 Q582.02 1475.88 576.372 1481.64 Z" fill="#000000" fill-rule="nonzero" fill-opacity="1" /><path clip-path="url(#clip440)" d="M1027.49 1455.09 L1015.68 1473.54 L1027.49 1473.54 L1027.49 1455.09 M1026.26 1451.02 L1032.14 1451.02 L1032.14 1473.54 L1037.07 1473.54 L1037.07 1477.43 L1032.14 1477.43 L1032.14 1485.58 L1027.49 1485.58 L1027.49 1477.43 L1011.89 1477.43 L1011.89 1472.92 L1026.26 1451.02 Z" fill="#000000" fill-rule="nonzero" fill-opacity="1" /><path clip-path="url(#clip440)" d="M1467.64 1466.44 Q1464.49 1466.44 1462.64 1468.59 Q1460.81 1470.74 1460.81 1474.49 Q1460.81 1478.22 1462.64 1480.39 Q1464.49 1482.55 1467.64 1482.55 Q1470.79 1482.55 1472.62 1480.39 Q1474.47 1478.22 1474.47 1474.49 Q1474.47 1470.74 1472.62 1468.59 Q1470.79 1466.44 1467.64 1466.44 M1476.92 1451.78 L1476.92 1456.04 Q1475.17 1455.21 1473.36 1454.77 Q1471.58 1454.33 1469.82 1454.33 Q1465.19 1454.33 1462.74 1457.45 Q1460.3 1460.58 1459.96 1466.9 Q1461.32 1464.89 1463.38 1463.82 Q1465.44 1462.73 1467.92 1462.73 Q1473.13 1462.73 1476.14 1465.9 Q1479.17 1469.05 1479.17 1474.49 Q1479.17 1479.82 1476.02 1483.03 Q1472.87 1486.25 1467.64 1486.25 Q1461.65 1486.25 1458.48 1481.67 Q1455.3 1477.06 1455.3 1468.33 Q1455.3 1460.14 1459.19 1455.28 Q1463.08 1450.39 1469.63 1450.39 Q1471.39 1450.39 1473.17 1450.74 Q1474.98 1451.09 1476.92 1451.78 Z" fill="#000000" fill-rule="nonzero" fill-opacity="1" /><path clip-path="url(#clip440)" d="M1910 1469.17 Q1906.66 1469.17 1904.74 1470.95 Q1902.84 1472.73 1902.84 1475.86 Q1902.84 1478.98 1904.74 1480.77 Q1906.66 1482.55 1910 1482.55 Q1913.33 1482.55 1915.25 1480.77 Q1917.17 1478.96 1917.17 1475.86 Q1917.17 1472.73 1915.25 1470.95 Q1913.35 1469.17 1910 1469.17 M1905.32 1467.18 Q1902.31 1466.44 1900.62 1464.38 Q1898.96 1462.32 1898.96 1459.35 Q1898.96 1455.21 1901.89 1452.8 Q1904.86 1450.39 1910 1450.39 Q1915.16 1450.39 1918.1 1452.8 Q1921.04 1455.21 1921.04 1459.35 Q1921.04 1462.32 1919.35 1464.38 Q1917.68 1466.44 1914.7 1467.18 Q1918.08 1467.96 1919.95 1470.26 Q1921.85 1472.55 1921.85 1475.86 Q1921.85 1480.88 1918.77 1483.57 Q1915.71 1486.25 1910 1486.25 Q1904.28 1486.25 1901.2 1483.57 Q1898.14 1480.88 1898.14 1475.86 Q1898.14 1472.55 1900.04 1470.26 Q1901.94 1467.96 1905.32 1467.18 M1903.61 1459.79 Q1903.61 1462.48 1905.27 1463.98 Q1906.96 1465.49 1910 1465.49 Q1913.01 1465.49 1914.7 1463.98 Q1916.41 1462.48 1916.41 1459.79 Q1916.41 1457.11 1914.7 1455.6 Q1913.01 1454.1 1910 1454.1 Q1906.96 1454.1 1905.27 1455.6 Q1903.61 1457.11 1903.61 1459.79 Z" fill="#000000" fill-rule="nonzero" fill-opacity="1" /><path clip-path="url(#clip440)" d="M2327.44 1481.64 L2335.08 1481.64 L2335.08 1455.28 L2326.77 1456.95 L2326.77 1452.69 L2335.04 1451.02 L2339.71 1451.02 L2339.71 1481.64 L2347.35 1481.64 L2347.35 1485.58 L2327.44 1485.58 L2327.44 1481.64 Z" fill="#000000" fill-rule="nonzero" fill-opacity="1" /><path clip-path="url(#clip440)" d="M2366.8 1454.1 Q2363.18 1454.1 2361.36 1457.66 Q2359.55 1461.2 2359.55 1468.33 Q2359.55 1475.44 2361.36 1479.01 Q2363.18 1482.55 2366.8 1482.55 Q2370.43 1482.55 2372.23 1479.01 Q2374.06 1475.44 2374.06 1468.33 Q2374.06 1461.2 2372.23 1457.66 Q2370.43 1454.1 2366.8 1454.1 M2366.8 1450.39 Q2372.61 1450.39 2375.66 1455 Q2378.74 1459.58 2378.74 1468.33 Q2378.74 1477.06 2375.66 1481.67 Q2372.61 1486.25 2366.8 1486.25 Q2360.99 1486.25 2357.91 1481.67 Q2354.85 1477.06 2354.85 1468.33 Q2354.85 1459.58 2357.91 1455 Q2360.99 1450.39 2366.8 1450.39 Z" fill="#000000" fill-rule="nonzero" fill-opacity="1" /><path clip-path="url(#clip440)" d="M1244.92 1522.27 L1244.92 1532.4 L1256.98 1532.4 L1256.98 1536.95 L1244.92 1536.95 L1244.92 1556.3 Q1244.92 1560.66 1246.1 1561.9 Q1247.31 1563.14 1250.97 1563.14 L1256.98 1563.14 L1256.98 1568.04 L1250.97 1568.04 Q1244.19 1568.04 1241.61 1565.53 Q1239.03 1562.98 1239.03 1556.3 L1239.03 1536.95 L1234.73 1536.95 L1234.73 1532.4 L1239.03 1532.4 L1239.03 1522.27 L1244.92 1522.27 Z" fill="#000000" fill-rule="nonzero" fill-opacity="1" /><polyline clip-path="url(#clip442)" style="stroke:#000000; stroke-linecap:round; stroke-linejoin:round; stroke-width:2; stroke-opacity:0.1; fill:none" points="138.959,1384.24 2352.76,1384.24 "/>
<polyline clip-path="url(#clip442)" style="stroke:#000000; stroke-linecap:round; stroke-linejoin:round; stroke-width:2; stroke-opacity:0.1; fill:none" points="138.959,1002.46 2352.76,1002.46 "/>
<polyline clip-path="url(#clip442)" style="stroke:#000000; stroke-linecap:round; stroke-linejoin:round; stroke-width:2; stroke-opacity:0.1; fill:none" points="138.959,620.678 2352.76,620.678 "/>
<polyline clip-path="url(#clip442)" style="stroke:#000000; stroke-linecap:round; stroke-linejoin:round; stroke-width:2; stroke-opacity:0.1; fill:none" points="138.959,238.898 2352.76,238.898 "/>
<polyline clip-path="url(#clip440)" style="stroke:#000000; stroke-linecap:round; stroke-linejoin:round; stroke-width:4; stroke-opacity:1; fill:none" points="138.959,1423.18 138.959,47.2441 "/>
<polyline clip-path="url(#clip440)" style="stroke:#000000; stroke-linecap:round; stroke-linejoin:round; stroke-width:4; stroke-opacity:1; fill:none" points="138.959,1384.24 157.857,1384.24 "/>
<polyline clip-path="url(#clip440)" style="stroke:#000000; stroke-linecap:round; stroke-linejoin:round; stroke-width:4; stroke-opacity:1; fill:none" points="138.959,1002.46 157.857,1002.46 "/>
<polyline clip-path="url(#clip440)" style="stroke:#000000; stroke-linecap:round; stroke-linejoin:round; stroke-width:4; stroke-opacity:1; fill:none" points="138.959,620.678 157.857,620.678 "/>
<polyline clip-path="url(#clip440)" style="stroke:#000000; stroke-linecap:round; stroke-linejoin:round; stroke-width:4; stroke-opacity:1; fill:none" points="138.959,238.898 157.857,238.898 "/>
<path clip-path="url(#clip440)" d="M91.0151 1370.04 Q87.404 1370.04 85.5753 1373.6 Q83.7697 1377.14 83.7697 1384.27 Q83.7697 1391.38 85.5753 1394.94 Q87.404 1398.49 91.0151 1398.49 Q94.6493 1398.49 96.4548 1394.94 Q98.2835 1391.38 98.2835 1384.27 Q98.2835 1377.14 96.4548 1373.6 Q94.6493 1370.04 91.0151 1370.04 M91.0151 1366.33 Q96.8252 1366.33 99.8808 1370.94 Q102.959 1375.52 102.959 1384.27 Q102.959 1393 99.8808 1397.61 Q96.8252 1402.19 91.0151 1402.19 Q85.2049 1402.19 82.1262 1397.61 Q79.0707 1393 79.0707 1384.27 Q79.0707 1375.52 82.1262 1370.94 Q85.2049 1366.33 91.0151 1366.33 Z" fill="#000000" fill-rule="nonzero" fill-opacity="1" /><path clip-path="url(#clip440)" d="M82.0568 985.178 L100.413 985.178 L100.413 989.113 L86.3392 989.113 L86.3392 997.585 Q87.3577 997.238 88.3762 997.076 Q89.3947 996.891 90.4132 996.891 Q96.2002 996.891 99.5798 1000.06 Q102.959 1003.23 102.959 1008.65 Q102.959 1014.23 99.4872 1017.33 Q96.015 1020.41 89.6956 1020.41 Q87.5197 1020.41 85.2512 1020.04 Q83.0058 1019.67 80.5984 1018.93 L80.5984 1014.23 Q82.6818 1015.36 84.904 1015.92 Q87.1262 1016.47 89.603 1016.47 Q93.6076 1016.47 95.9456 1014.37 Q98.2835 1012.26 98.2835 1008.65 Q98.2835 1005.04 95.9456 1002.93 Q93.6076 1000.83 89.603 1000.83 Q87.728 1000.83 85.8531 1001.24 Q84.0012 1001.66 82.0568 1002.54 L82.0568 985.178 Z" fill="#000000" fill-rule="nonzero" fill-opacity="1" /><path clip-path="url(#clip440)" d="M51.6634 634.023 L59.3023 634.023 L59.3023 607.657 L50.9921 609.324 L50.9921 605.065 L59.256 603.398 L63.9319 603.398 L63.9319 634.023 L71.5707 634.023 L71.5707 637.958 L51.6634 637.958 L51.6634 634.023 Z" fill="#000000" fill-rule="nonzero" fill-opacity="1" /><path clip-path="url(#clip440)" d="M91.0151 606.477 Q87.404 606.477 85.5753 610.041 Q83.7697 613.583 83.7697 620.713 Q83.7697 627.819 85.5753 631.384 Q87.404 634.926 91.0151 634.926 Q94.6493 634.926 96.4548 631.384 Q98.2835 627.819 98.2835 620.713 Q98.2835 613.583 96.4548 610.041 Q94.6493 606.477 91.0151 606.477 M91.0151 602.773 Q96.8252 602.773 99.8808 607.379 Q102.959 611.963 102.959 620.713 Q102.959 629.439 99.8808 634.046 Q96.8252 638.629 91.0151 638.629 Q85.2049 638.629 82.1262 634.046 Q79.0707 629.439 79.0707 620.713 Q79.0707 611.963 82.1262 607.379 Q85.2049 602.773 91.0151 602.773 Z" fill="#000000" fill-rule="nonzero" fill-opacity="1" /><path clip-path="url(#clip440)" d="M52.6588 252.243 L60.2976 252.243 L60.2976 225.877 L51.9875 227.544 L51.9875 223.284 L60.2513 221.618 L64.9272 221.618 L64.9272 252.243 L72.5661 252.243 L72.5661 256.178 L52.6588 256.178 L52.6588 252.243 Z" fill="#000000" fill-rule="nonzero" fill-opacity="1" /><path clip-path="url(#clip440)" d="M82.0568 221.618 L100.413 221.618 L100.413 225.553 L86.3392 225.553 L86.3392 234.025 Q87.3577 233.678 88.3762 233.516 Q89.3947 233.331 90.4132 233.331 Q96.2002 233.331 99.5798 236.502 Q102.959 239.673 102.959 245.09 Q102.959 250.669 99.4872 253.77 Q96.015 256.849 89.6956 256.849 Q87.5197 256.849 85.2512 256.479 Q83.0058 256.108 80.5984 255.368 L80.5984 250.669 Q82.6818 251.803 84.904 252.358 Q87.1262 252.914 89.603 252.914 Q93.6076 252.914 95.9456 250.807 Q98.2835 248.701 98.2835 245.09 Q98.2835 241.479 95.9456 239.372 Q93.6076 237.266 89.603 237.266 Q87.728 237.266 85.8531 237.682 Q84.0012 238.099 82.0568 238.979 L82.0568 221.618 Z" fill="#000000" fill-rule="nonzero" fill-opacity="1" /><polyline clip-path="url(#clip442)" style="stroke:#009af9; stroke-linecap:round; stroke-linejoin:round; stroke-width:8; stroke-opacity:1; fill:none" points="138.959,1384.24 141.175,1384.24 143.391,1384.24 145.607,1384.24 147.823,1384.24 150.04,1384.24 152.256,1384.24 154.472,1384.24 156.688,1384.24 158.904,1384.24 161.12,1384.24 163.336,1384.24 165.552,1384.24 167.768,1384.24 169.984,1384.24 172.2,1307.88 174.416,1307.88 176.632,1231.53 178.848,1231.53 181.064,1231.53 183.28,1231.53 185.496,1231.53 187.712,1231.53 189.928,1231.53 192.144,1231.53 194.36,1231.53 196.576,1307.88 198.792,1307.88 201.008,1307.88 203.224,1307.88 205.44,1307.88 207.656,1307.88 209.872,1384.24 212.088,1384.24 214.304,1384.24 216.52,1384.24 218.736,1384.24 220.952,1384.24 223.168,1384.24 225.384,1384.24 227.6,1384.24 229.816,1384.24 232.032,1384.24 234.248,1384.24 236.464,1384.24 238.68,1384.24 240.896,1384.24 243.112,1384.24 245.328,1384.24 247.544,1384.24 249.76,1384.24 251.976,1384.24 254.192,1384.24 256.408,1384.24 258.624,1384.24 260.84,1384.24 263.056,1384.24 265.272,1384.24 267.488,1384.24 269.704,1384.24 271.92,1384.24 274.136,1384.24 276.352,1384.24 278.568,1384.24 280.784,1384.24 283,1384.24 285.216,1384.24 287.432,1384.24 289.648,1384.24 291.864,1384.24 294.08,1384.24 296.296,1384.24 298.512,1384.24 300.728,1384.24 302.944,1384.24 305.16,1384.24 307.376,1384.24 309.592,1384.24 311.808,1384.24 314.024,1384.24 316.24,1384.24 318.456,1307.88 320.672,1384.24 322.888,1384.24 325.104,1384.24 327.321,1384.24 329.537,1384.24 331.753,1384.24 333.969,1384.24 336.185,1384.24 338.401,1384.24 340.617,1384.24 342.833,1307.88 345.049,1307.88 347.265,1307.88 349.481,1307.88 351.697,1307.88 353.913,1307.88 356.129,1307.88 358.345,1307.88 360.561,1307.88 362.777,1307.88 364.993,1307.88 367.209,1307.88 369.425,1307.88 371.641,1231.53 373.857,1231.53 376.073,1231.53 378.289,1231.53 380.505,1307.88 382.721,1307.88 384.937,1307.88 387.153,1307.88 389.369,1307.88 391.585,1307.88 393.801,1307.88 396.017,1307.88 398.233,1307.88 400.449,1307.88 402.665,1307.88 404.881,1307.88 407.097,1307.88 409.313,1307.88 411.529,1307.88 413.745,1307.88 415.961,1307.88 418.177,1307.88 420.393,1307.88 422.609,1307.88 424.825,1307.88 427.041,1307.88 429.257,1307.88 431.473,1307.88 433.689,1307.88 435.905,1307.88 438.121,1307.88 440.337,1307.88 442.553,1307.88 444.769,1307.88 446.985,1307.88 449.201,1307.88 451.417,1307.88 453.633,1307.88 455.849,1307.88 458.065,1307.88 460.281,1307.88 462.497,1307.88 464.713,1307.88 466.929,1307.88 469.145,1307.88 471.361,1307.88 473.577,1307.88 475.793,1307.88 478.009,1307.88 480.225,1307.88 482.441,1307.88 484.657,1307.88 486.873,1307.88 489.089,1307.88 491.305,1307.88 493.521,1307.88 495.737,1307.88 497.953,1307.88 500.169,1307.88 502.385,1307.88 504.601,1307.88 506.818,1307.88 509.034,1307.88 511.25,1307.88 513.466,1307.88 515.682,1307.88 517.898,1307.88 520.114,1307.88 522.33,1307.88 524.546,1307.88 526.762,1231.53 528.978,1231.53 531.194,1231.53 533.41,1231.53 535.626,1231.53 537.842,1231.53 540.058,1231.53 542.274,1231.53 544.49,1231.53 546.706,1231.53 548.922,1231.53 551.138,1231.53 553.354,1231.53 555.57,1231.53 557.786,1231.53 560.002,1231.53 562.218,1231.53 564.434,1231.53 566.65,1231.53 568.866,1155.17 571.082,1155.17 573.298,1155.17 575.514,1155.17 577.73,1155.17 579.946,1231.53 582.162,1231.53 584.378,1231.53 586.594,1231.53 588.81,1231.53 591.026,1231.53 593.242,1231.53 595.458,1231.53 597.674,1231.53 599.89,1231.53 602.106,1231.53 604.322,1231.53 606.538,1231.53 608.754,1307.88 610.97,1307.88 613.186,1307.88 615.402,1307.88 617.618,1307.88 619.834,1307.88 622.05,1307.88 624.266,1307.88 626.482,1307.88 628.698,1307.88 630.914,1307.88 633.13,1307.88 635.346,1307.88 637.562,1307.88 639.778,1307.88 641.994,1307.88 644.21,1307.88 646.426,1307.88 648.642,1307.88 650.858,1307.88 653.074,1307.88 655.29,1307.88 657.506,1307.88 659.722,1307.88 661.938,1307.88 664.154,1307.88 666.37,1307.88 668.586,1307.88 670.802,1307.88 673.018,1307.88 675.234,1307.88 677.45,1307.88 679.666,1307.88 681.882,1307.88 684.099,1307.88 686.315,1307.88 688.531,1307.88 690.747,1307.88 692.963,1307.88 695.179,1307.88 697.395,1307.88 699.611,1307.88 701.827,1307.88 704.043,1307.88 706.259,1307.88 708.475,1307.88 710.691,1307.88 712.907,1307.88 715.123,1307.88 717.339,1307.88 719.555,1307.88 721.771,1307.88 723.987,1307.88 726.203,1307.88 728.419,1307.88 730.635,1307.88 732.851,1307.88 735.067,1307.88 737.283,1307.88 739.499,1307.88 741.715,1307.88 743.931,1307.88 746.147,1307.88 748.363,1307.88 750.579,1307.88 752.795,1307.88 755.011,1307.88 757.227,1307.88 759.443,1307.88 761.659,1307.88 763.875,1307.88 766.091,1307.88 768.307,1307.88 770.523,1307.88 772.739,1307.88 774.955,1307.88 777.171,1307.88 779.387,1307.88 781.603,1307.88 783.819,1307.88 786.035,1307.88 788.251,1307.88 790.467,1307.88 792.683,1307.88 794.899,1307.88 797.115,1307.88 799.331,1307.88 801.547,1307.88 803.763,1307.88 805.979,1307.88 808.195,1307.88 810.411,1307.88 812.627,1307.88 814.843,1307.88 817.059,1307.88 819.275,1307.88 821.491,1307.88 823.707,1307.88 825.923,1307.88 828.139,1307.88 830.355,1307.88 832.571,1307.88 834.787,1307.88 837.003,1307.88 839.219,1307.88 841.435,1307.88 843.651,1307.88 845.867,1307.88 848.083,1307.88 850.299,1307.88 852.515,1307.88 854.731,1307.88 856.947,1307.88 859.163,1307.88 861.38,1307.88 863.596,1307.88 865.812,1307.88 868.028,1307.88 870.244,1307.88 872.46,1307.88 874.676,1307.88 876.892,1307.88 879.108,1307.88 881.324,1307.88 883.54,1307.88 885.756,1307.88 887.972,1307.88 890.188,1307.88 892.404,1307.88 894.62,1307.88 896.836,1307.88 899.052,1307.88 901.268,1307.88 903.484,1307.88 905.7,1307.88 907.916,1307.88 910.132,1307.88 912.348,1307.88 914.564,1307.88 916.78,1307.88 918.996,1307.88 921.212,1307.88 923.428,1307.88 925.644,1307.88 927.86,1307.88 930.076,1307.88 932.292,1307.88 934.508,1307.88 936.724,1307.88 938.94,1307.88 941.156,1307.88 943.372,1307.88 945.588,1307.88 947.804,1307.88 950.02,1307.88 952.236,1307.88 954.452,1307.88 956.668,1307.88 958.884,1307.88 961.1,1307.88 963.316,1307.88 965.532,1307.88 967.748,1307.88 969.964,1307.88 972.18,1384.24 974.396,1384.24 976.612,1384.24 978.828,1384.24 981.044,1384.24 983.26,1384.24 985.476,1384.24 987.692,1384.24 989.908,1384.24 992.124,1384.24 994.34,1384.24 996.556,1384.24 998.772,1384.24 1000.99,1384.24 1003.2,1384.24 1005.42,1384.24 1007.64,1384.24 1009.85,1384.24 1012.07,1384.24 1014.28,1384.24 1016.5,1384.24 1018.72,1384.24 1020.93,1384.24 1023.15,1384.24 1025.36,1384.24 1027.58,1384.24 1029.8,1384.24 1032.01,1384.24 1034.23,1384.24 1036.44,1384.24 1038.66,1384.24 1040.88,1384.24 1043.09,1384.24 1045.31,1384.24 1047.52,1384.24 1049.74,1384.24 1051.96,1384.24 1054.17,1384.24 1056.39,1384.24 1058.6,1384.24 1060.82,1384.24 1063.04,1384.24 1065.25,1384.24 1067.47,1307.88 1069.68,1307.88 1071.9,1307.88 1074.12,1307.88 1076.33,1307.88 1078.55,1307.88 1080.76,1307.88 1082.98,1307.88 1085.2,1307.88 1087.41,1307.88 1089.63,1231.53 1091.84,1231.53 1094.06,1231.53 1096.28,1231.53 1098.49,1231.53 1100.71,1231.53 1102.92,1231.53 1105.14,1231.53 1107.36,1231.53 1109.57,1231.53 1111.79,1231.53 1114,1231.53 1116.22,1231.53 1118.44,1231.53 1120.65,1231.53 1122.87,1231.53 1125.08,1231.53 1127.3,1231.53 1129.52,1231.53 1131.73,1231.53 1133.95,1231.53 1136.17,1231.53 1138.38,1231.53 1140.6,1231.53 1142.81,1231.53 1145.03,1231.53 1147.25,1231.53 1149.46,1231.53 1151.68,1231.53 1153.89,1307.88 1156.11,1307.88 1158.33,1384.24 1160.54,1384.24 1162.76,1384.24 1164.97,1384.24 1167.19,1384.24 1169.41,1384.24 1171.62,1384.24 1173.84,1384.24 1176.05,1384.24 1178.27,1384.24 1180.49,1384.24 1182.7,1384.24 1184.92,1384.24 1187.13,1384.24 1189.35,1384.24 1191.57,1384.24 1193.78,1384.24 1196,1384.24 1198.21,1384.24 1200.43,1384.24 1202.65,1384.24 1204.86,1384.24 1207.08,1384.24 1209.29,1384.24 1211.51,1384.24 1213.73,1384.24 1215.94,1384.24 1218.16,1384.24 1220.37,1384.24 1222.59,1384.24 1224.81,1384.24 1227.02,1384.24 1229.24,1384.24 1231.45,1384.24 1233.67,1384.24 1235.89,1384.24 1238.1,1384.24 1240.32,1384.24 1242.53,1384.24 1244.75,1384.24 1246.97,1384.24 1249.18,1384.24 1251.4,1384.24 1253.61,1384.24 1255.83,1384.24 1258.05,1384.24 1260.26,1384.24 1262.48,1384.24 1264.69,1384.24 1266.91,1384.24 1269.13,1384.24 1271.34,1384.24 1273.56,1384.24 1275.77,1384.24 1277.99,1384.24 1280.21,1384.24 1282.42,1384.24 1284.64,1307.88 1286.85,1307.88 1289.07,1307.88 1291.29,1307.88 1293.5,1307.88 1295.72,1307.88 1297.93,1307.88 1300.15,1307.88 1302.37,1307.88 1304.58,1307.88 1306.8,1307.88 1309.01,1307.88 1311.23,1307.88 1313.45,1307.88 1315.66,1307.88 1317.88,1307.88 1320.09,1307.88 1322.31,1307.88 1324.53,1307.88 1326.74,1307.88 1328.96,1231.53 1331.17,1231.53 1333.39,1231.53 1335.61,1231.53 1337.82,1231.53 1340.04,1231.53 1342.25,1231.53 1344.47,1231.53 1346.69,1231.53 1348.9,1231.53 1351.12,1231.53 1353.33,1307.88 1355.55,1307.88 1357.77,1307.88 1359.98,1307.88 1362.2,1307.88 1364.41,1307.88 1366.63,1307.88 1368.85,1307.88 1371.06,1307.88 1373.28,1307.88 1375.49,1307.88 1377.71,1307.88 1379.93,1307.88 1382.14,1307.88 1384.36,1307.88 1386.57,1307.88 1388.79,1307.88 1391.01,1307.88 1393.22,1307.88 1395.44,1307.88 1397.65,1307.88 1399.87,1307.88 1402.09,1307.88 1404.3,1307.88 1406.52,1307.88 1408.73,1307.88 1410.95,1307.88 1413.17,1307.88 1415.38,1307.88 1417.6,1307.88 1419.81,1307.88 1422.03,1384.24 1424.25,1384.24 1426.46,1384.24 1428.68,1384.24 1430.89,1384.24 1433.11,1384.24 1435.33,1384.24 1437.54,1384.24 1439.76,1384.24 1441.97,1384.24 1444.19,1384.24 1446.41,1384.24 1448.62,1384.24 1450.84,1384.24 1453.05,1384.24 1455.27,1384.24 1457.49,1384.24 1459.7,1384.24 1461.92,1384.24 1464.13,1384.24 1466.35,1384.24 1468.57,1384.24 1470.78,1384.24 1473,1384.24 1475.21,1384.24 1477.43,1384.24 1479.65,1384.24 1481.86,1384.24 1484.08,1384.24 1486.3,1384.24 1488.51,1384.24 1490.73,1384.24 1492.94,1384.24 1495.16,1384.24 1497.38,1384.24 1499.59,1384.24 1501.81,1384.24 1504.02,1384.24 1506.24,1384.24 1508.46,1384.24 1510.67,1384.24 1512.89,1384.24 1515.1,1384.24 1517.32,1307.88 1519.54,1307.88 1521.75,1307.88 1523.97,1307.88 1526.18,1307.88 1528.4,1384.24 1530.62,1384.24 1532.83,1384.24 1535.05,1384.24 1537.26,1384.24 1539.48,1384.24 1541.7,1384.24 1543.91,1384.24 1546.13,1384.24 1548.34,1384.24 1550.56,1384.24 1552.78,1384.24 1554.99,1384.24 1557.21,1384.24 1559.42,1384.24 1561.64,1384.24 1563.86,1384.24 1566.07,1384.24 1568.29,1307.88 1570.5,1307.88 1572.72,1307.88 1574.94,1307.88 1577.15,1307.88 1579.37,1307.88 1581.58,1307.88 1583.8,1307.88 1586.02,1307.88 1588.23,1307.88 1590.45,1307.88 1592.66,1307.88 1594.88,1307.88 1597.1,1307.88 1599.31,1307.88 1601.53,1307.88 1603.74,1307.88 1605.96,1307.88 1608.18,1307.88 1610.39,1307.88 1612.61,1307.88 1614.82,1307.88 1617.04,1307.88 1619.26,1307.88 1621.47,1307.88 1623.69,1307.88 1625.9,1307.88 1628.12,1307.88 1630.34,1307.88 1632.55,1307.88 1634.77,1307.88 1636.98,1307.88 1639.2,1307.88 1641.42,1307.88 1643.63,1307.88 1645.85,1307.88 1648.06,1307.88 1650.28,1307.88 1652.5,1307.88 1654.71,1307.88 1656.93,1307.88 1659.14,1307.88 1661.36,1307.88 1663.58,1307.88 1665.79,1307.88 1668.01,1307.88 1670.22,1307.88 1672.44,1307.88 1674.66,1307.88 1676.87,1307.88 1679.09,1307.88 1681.3,1307.88 1683.52,1307.88 1685.74,1307.88 1687.95,1307.88 1690.17,1307.88 1692.38,1307.88 1694.6,1307.88 1696.82,1384.24 1699.03,1384.24 1701.25,1384.24 1703.46,1384.24 1705.68,1384.24 1707.9,1384.24 1710.11,1384.24 1712.33,1384.24 1714.54,1384.24 1716.76,1384.24 1718.98,1384.24 1721.19,1384.24 1723.41,1384.24 1725.62,1384.24 1727.84,1384.24 1730.06,1384.24 1732.27,1384.24 1734.49,1384.24 1736.7,1384.24 1738.92,1384.24 1741.14,1384.24 1743.35,1384.24 1745.57,1384.24 1747.78,1384.24 1750,1384.24 1752.22,1384.24 1754.43,1384.24 1756.65,1384.24 1758.86,1384.24 1761.08,1384.24 1763.3,1384.24 1765.51,1384.24 1767.73,1384.24 1769.94,1384.24 1772.16,1384.24 1774.38,1384.24 1776.59,1384.24 1778.81,1384.24 1781.02,1384.24 1783.24,1384.24 1785.46,1384.24 1787.67,1384.24 1789.89,1384.24 1792.1,1384.24 1794.32,1384.24 1796.54,1384.24 1798.75,1384.24 1800.97,1384.24 1803.18,1384.24 1805.4,1384.24 1807.62,1384.24 1809.83,1384.24 1812.05,1384.24 1814.26,1384.24 1816.48,1384.24 1818.7,1384.24 1820.91,1384.24 1823.13,1384.24 1825.34,1384.24 1827.56,1384.24 1829.78,1384.24 1831.99,1384.24 1834.21,1384.24 1836.42,1384.24 1838.64,1384.24 1840.86,1384.24 1843.07,1384.24 1845.29,1384.24 1847.51,1384.24 1849.72,1384.24 1851.94,1384.24 1854.15,1384.24 1856.37,1384.24 1858.59,1384.24 1860.8,1384.24 1863.02,1384.24 1865.23,1384.24 1867.45,1384.24 1869.67,1384.24 1871.88,1384.24 1874.1,1384.24 1876.31,1384.24 1878.53,1384.24 1880.75,1384.24 1882.96,1384.24 1885.18,1384.24 1887.39,1384.24 1889.61,1384.24 1891.83,1384.24 1894.04,1384.24 1896.26,1384.24 1898.47,1384.24 1900.69,1384.24 1902.91,1384.24 1905.12,1384.24 1907.34,1384.24 1909.55,1384.24 1911.77,1384.24 1913.99,1384.24 1916.2,1384.24 1918.42,1384.24 1920.63,1384.24 1922.85,1384.24 1925.07,1384.24 1927.28,1384.24 1929.5,1384.24 1931.71,1384.24 1933.93,1384.24 1936.15,1384.24 1938.36,1384.24 1940.58,1384.24 1942.79,1384.24 1945.01,1384.24 1947.23,1384.24 1949.44,1384.24 1951.66,1384.24 1953.87,1384.24 1956.09,1384.24 1958.31,1384.24 1960.52,1384.24 1962.74,1384.24 1964.95,1384.24 1967.17,1384.24 1969.39,1384.24 1971.6,1384.24 1973.82,1384.24 1976.03,1384.24 1978.25,1384.24 1980.47,1384.24 1982.68,1384.24 1984.9,1384.24 1987.11,1384.24 1989.33,1384.24 1991.55,1384.24 1993.76,1384.24 1995.98,1384.24 1998.19,1384.24 2000.41,1384.24 2002.63,1384.24 2004.84,1384.24 2007.06,1384.24 2009.27,1384.24 2011.49,1384.24 2013.71,1307.88 2015.92,1307.88 2018.14,1307.88 2020.35,1307.88 2022.57,1231.53 2024.79,1231.53 2027,1231.53 2029.22,1231.53 2031.43,1231.53 2033.65,1231.53 2035.87,1231.53 2038.08,1231.53 2040.3,1231.53 2042.51,1231.53 2044.73,1231.53 2046.95,1231.53 2049.16,1231.53 2051.38,1231.53 2053.59,1231.53 2055.81,1231.53 2058.03,1231.53 2060.24,1231.53 2062.46,1231.53 2064.67,1231.53 2066.89,1231.53 2069.11,1231.53 2071.32,1231.53 2073.54,1231.53 2075.75,1231.53 2077.97,1231.53 2080.19,1231.53 2082.4,1231.53 2084.62,1231.53 2086.83,1231.53 2089.05,1231.53 2091.27,1231.53 2093.48,1231.53 2095.7,1231.53 2097.91,1231.53 2100.13,1231.53 2102.35,1231.53 2104.56,1231.53 2106.78,1231.53 2108.99,1231.53 2111.21,1231.53 2113.43,1231.53 2115.64,1231.53 2117.86,1231.53 2120.07,1231.53 2122.29,1231.53 2124.51,1231.53 2126.72,1231.53 2128.94,1231.53 2131.15,1231.53 2133.37,1231.53 2135.59,1231.53 2137.8,1231.53 2140.02,1231.53 2142.23,1231.53 2144.45,1231.53 2146.67,1231.53 2148.88,1231.53 2151.1,1231.53 2153.31,1231.53 2155.53,1231.53 2157.75,1231.53 2159.96,1231.53 2162.18,1231.53 2164.39,1307.88 2166.61,1307.88 2168.83,1307.88 2171.04,1231.53 2173.26,1231.53 2175.47,1307.88 2177.69,1307.88 2179.91,1307.88 2182.12,1307.88 2184.34,1307.88 2186.55,1307.88 2188.77,1307.88 2190.99,1231.53 2193.2,1231.53 2195.42,1231.53 2197.64,1231.53 2199.85,1231.53 2202.07,1231.53 2204.28,1231.53 2206.5,1231.53 2208.72,1307.88 2210.93,1307.88 2213.15,1307.88 2215.36,1307.88 2217.58,1307.88 2219.8,1307.88 2222.01,1307.88 2224.23,1307.88 2226.44,1307.88 2228.66,1307.88 2230.88,1307.88 2233.09,1307.88 2235.31,1307.88 2237.52,1307.88 2239.74,1307.88 2241.96,1307.88 2244.17,1307.88 2246.39,1307.88 2248.6,1307.88 2250.82,1307.88 2253.04,1307.88 2255.25,1307.88 2257.47,1307.88 2259.68,1307.88 2261.9,1307.88 2264.12,1307.88 2266.33,1307.88 2268.55,1307.88 2270.76,1307.88 2272.98,1307.88 2275.2,1307.88 2277.41,1307.88 2279.63,1307.88 2281.84,1307.88 2284.06,1307.88 2286.28,1307.88 2288.49,1307.88 2290.71,1307.88 2292.92,1307.88 2295.14,1307.88 2297.36,1307.88 2299.57,1307.88 2301.79,1307.88 2304,1307.88 2306.22,1307.88 2308.44,1307.88 2310.65,1231.53 2312.87,1231.53 2315.08,1231.53 2317.3,1231.53 2319.52,1231.53 2321.73,1231.53 2323.95,1231.53 2326.16,1231.53 2328.38,1231.53 2330.6,1231.53 2332.81,1231.53 2335.03,1231.53 2337.24,1231.53 2339.46,1231.53 2341.68,1231.53 2343.89,1231.53 2346.11,1231.53 2348.32,1231.53 2350.54,1231.53 2352.76,1231.53 "/>
<polyline clip-path="url(#clip442)" style="stroke:#e26f46; stroke-linecap:round; stroke-linejoin:round; stroke-width:8; stroke-opacity:1; fill:none" points="138.959,1384.24 141.175,1384.24 143.391,1384.24 145.607,1384.24 147.823,1384.24 150.04,1384.24 152.256,1384.24 154.472,1384.24 156.688,1384.24 158.904,1384.24 161.12,1384.24 163.336,1384.24 165.552,1384.24 167.768,1384.24 169.984,1384.24 172.2,1384.24 174.416,1384.24 176.632,1384.24 178.848,1384.24 181.064,1384.24 183.28,1384.24 185.496,1384.24 187.712,1384.24 189.928,1384.24 192.144,1384.24 194.36,1384.24 196.576,1307.88 198.792,1307.88 201.008,1307.88 203.224,1307.88 205.44,1307.88 207.656,1307.88 209.872,1231.53 212.088,1231.53 214.304,1231.53 216.52,1231.53 218.736,1231.53 220.952,1231.53 223.168,1231.53 225.384,1231.53 227.6,1231.53 229.816,1231.53 232.032,1231.53 234.248,1231.53 236.464,1231.53 238.68,1231.53 240.896,1231.53 243.112,1231.53 245.328,1231.53 247.544,1231.53 249.76,1231.53 251.976,1231.53 254.192,1231.53 256.408,1231.53 258.624,1231.53 260.84,1231.53 263.056,1231.53 265.272,1231.53 267.488,1231.53 269.704,1231.53 271.92,1231.53 274.136,1231.53 276.352,1231.53 278.568,1231.53 280.784,1231.53 283,1231.53 285.216,1231.53 287.432,1231.53 289.648,1231.53 291.864,1231.53 294.08,1231.53 296.296,1231.53 298.512,1231.53 300.728,1231.53 302.944,1231.53 305.16,1231.53 307.376,1231.53 309.592,1231.53 311.808,1231.53 314.024,1231.53 316.24,1231.53 318.456,1231.53 320.672,1155.17 322.888,1155.17 325.104,1155.17 327.321,1155.17 329.537,1155.17 331.753,1155.17 333.969,1155.17 336.185,1155.17 338.401,1155.17 340.617,1155.17 342.833,1155.17 345.049,1155.17 347.265,1155.17 349.481,1155.17 351.697,1155.17 353.913,1155.17 356.129,1155.17 358.345,1155.17 360.561,1155.17 362.777,1155.17 364.993,1155.17 367.209,1155.17 369.425,1155.17 371.641,1155.17 373.857,1155.17 376.073,1155.17 378.289,1078.81 380.505,1002.46 382.721,1002.46 384.937,1002.46 387.153,1002.46 389.369,1002.46 391.585,1002.46 393.801,1002.46 396.017,1002.46 398.233,1002.46 400.449,1002.46 402.665,1002.46 404.881,1002.46 407.097,1002.46 409.313,1002.46 411.529,1002.46 413.745,1002.46 415.961,1002.46 418.177,1002.46 420.393,1002.46 422.609,1002.46 424.825,1002.46 427.041,1002.46 429.257,1002.46 431.473,1002.46 433.689,1002.46 435.905,1002.46 438.121,1002.46 440.337,1002.46 442.553,1002.46 444.769,1002.46 446.985,1002.46 449.201,1002.46 451.417,1002.46 453.633,1002.46 455.849,1002.46 458.065,1002.46 460.281,1002.46 462.497,1002.46 464.713,1002.46 466.929,1002.46 469.145,1002.46 471.361,1002.46 473.577,1002.46 475.793,1002.46 478.009,1002.46 480.225,1002.46 482.441,1002.46 484.657,1002.46 486.873,1002.46 489.089,1002.46 491.305,1002.46 493.521,1002.46 495.737,1002.46 497.953,1002.46 500.169,1002.46 502.385,1002.46 504.601,1002.46 506.818,1002.46 509.034,1002.46 511.25,1002.46 513.466,1002.46 515.682,1002.46 517.898,1002.46 520.114,1002.46 522.33,1002.46 524.546,1002.46 526.762,1002.46 528.978,1002.46 531.194,1002.46 533.41,1002.46 535.626,1002.46 537.842,1002.46 540.058,1002.46 542.274,1002.46 544.49,1002.46 546.706,1002.46 548.922,1002.46 551.138,1002.46 553.354,1002.46 555.57,1002.46 557.786,1002.46 560.002,1002.46 562.218,1002.46 564.434,1002.46 566.65,1002.46 568.866,1002.46 571.082,1002.46 573.298,1002.46 575.514,1002.46 577.73,1002.46 579.946,926.102 582.162,926.102 584.378,926.102 586.594,926.102 588.81,926.102 591.026,926.102 593.242,926.102 595.458,926.102 597.674,926.102 599.89,926.102 602.106,926.102 604.322,926.102 606.538,926.102 608.754,849.746 610.97,849.746 613.186,849.746 615.402,849.746 617.618,849.746 619.834,849.746 622.05,849.746 624.266,849.746 626.482,849.746 628.698,849.746 630.914,849.746 633.13,849.746 635.346,849.746 637.562,849.746 639.778,849.746 641.994,849.746 644.21,849.746 646.426,849.746 648.642,849.746 650.858,849.746 653.074,849.746 655.29,849.746 657.506,849.746 659.722,849.746 661.938,849.746 664.154,849.746 666.37,849.746 668.586,849.746 670.802,849.746 673.018,849.746 675.234,849.746 677.45,849.746 679.666,849.746 681.882,849.746 684.099,849.746 686.315,849.746 688.531,849.746 690.747,849.746 692.963,849.746 695.179,849.746 697.395,849.746 699.611,849.746 701.827,849.746 704.043,849.746 706.259,849.746 708.475,849.746 710.691,849.746 712.907,849.746 715.123,849.746 717.339,849.746 719.555,849.746 721.771,849.746 723.987,849.746 726.203,849.746 728.419,849.746 730.635,849.746 732.851,849.746 735.067,849.746 737.283,849.746 739.499,849.746 741.715,849.746 743.931,849.746 746.147,849.746 748.363,849.746 750.579,849.746 752.795,849.746 755.011,849.746 757.227,849.746 759.443,849.746 761.659,849.746 763.875,849.746 766.091,849.746 768.307,849.746 770.523,849.746 772.739,849.746 774.955,849.746 777.171,849.746 779.387,849.746 781.603,849.746 783.819,849.746 786.035,849.746 788.251,849.746 790.467,849.746 792.683,849.746 794.899,849.746 797.115,849.746 799.331,849.746 801.547,849.746 803.763,849.746 805.979,849.746 808.195,849.746 810.411,849.746 812.627,849.746 814.843,849.746 817.059,849.746 819.275,849.746 821.491,849.746 823.707,849.746 825.923,849.746 828.139,849.746 830.355,849.746 832.571,849.746 834.787,849.746 837.003,849.746 839.219,849.746 841.435,849.746 843.651,849.746 845.867,849.746 848.083,849.746 850.299,849.746 852.515,849.746 854.731,849.746 856.947,849.746 859.163,849.746 861.38,849.746 863.596,849.746 865.812,849.746 868.028,849.746 870.244,849.746 872.46,849.746 874.676,849.746 876.892,849.746 879.108,849.746 881.324,849.746 883.54,849.746 885.756,849.746 887.972,849.746 890.188,849.746 892.404,849.746 894.62,849.746 896.836,849.746 899.052,849.746 901.268,849.746 903.484,849.746 905.7,849.746 907.916,849.746 910.132,849.746 912.348,849.746 914.564,849.746 916.78,849.746 918.996,849.746 921.212,849.746 923.428,849.746 925.644,849.746 927.86,849.746 930.076,849.746 932.292,849.746 934.508,849.746 936.724,849.746 938.94,849.746 941.156,849.746 943.372,849.746 945.588,849.746 947.804,849.746 950.02,849.746 952.236,849.746 954.452,849.746 956.668,849.746 958.884,849.746 961.1,849.746 963.316,849.746 965.532,849.746 967.748,849.746 969.964,849.746 972.18,773.39 974.396,773.39 976.612,773.39 978.828,773.39 981.044,773.39 983.26,773.39 985.476,773.39 987.692,773.39 989.908,773.39 992.124,773.39 994.34,773.39 996.556,773.39 998.772,773.39 1000.99,773.39 1003.2,773.39 1005.42,773.39 1007.64,773.39 1009.85,773.39 1012.07,773.39 1014.28,773.39 1016.5,773.39 1018.72,773.39 1020.93,773.39 1023.15,773.39 1025.36,773.39 1027.58,773.39 1029.8,773.39 1032.01,773.39 1034.23,773.39 1036.44,773.39 1038.66,773.39 1040.88,773.39 1043.09,773.39 1045.31,773.39 1047.52,773.39 1049.74,773.39 1051.96,773.39 1054.17,773.39 1056.39,773.39 1058.6,773.39 1060.82,773.39 1063.04,773.39 1065.25,773.39 1067.47,773.39 1069.68,773.39 1071.9,773.39 1074.12,773.39 1076.33,773.39 1078.55,773.39 1080.76,773.39 1082.98,773.39 1085.2,773.39 1087.41,773.39 1089.63,773.39 1091.84,773.39 1094.06,773.39 1096.28,773.39 1098.49,773.39 1100.71,773.39 1102.92,773.39 1105.14,773.39 1107.36,773.39 1109.57,773.39 1111.79,773.39 1114,773.39 1116.22,773.39 1118.44,773.39 1120.65,773.39 1122.87,773.39 1125.08,773.39 1127.3,773.39 1129.52,773.39 1131.73,773.39 1133.95,773.39 1136.17,773.39 1138.38,773.39 1140.6,773.39 1142.81,773.39 1145.03,773.39 1147.25,773.39 1149.46,773.39 1151.68,773.39 1153.89,697.034 1156.11,697.034 1158.33,620.678 1160.54,620.678 1162.76,620.678 1164.97,620.678 1167.19,620.678 1169.41,620.678 1171.62,620.678 1173.84,620.678 1176.05,620.678 1178.27,620.678 1180.49,620.678 1182.7,620.678 1184.92,620.678 1187.13,620.678 1189.35,620.678 1191.57,620.678 1193.78,620.678 1196,620.678 1198.21,620.678 1200.43,620.678 1202.65,620.678 1204.86,620.678 1207.08,620.678 1209.29,620.678 1211.51,620.678 1213.73,620.678 1215.94,620.678 1218.16,620.678 1220.37,620.678 1222.59,620.678 1224.81,620.678 1227.02,620.678 1229.24,620.678 1231.45,620.678 1233.67,620.678 1235.89,620.678 1238.1,620.678 1240.32,620.678 1242.53,620.678 1244.75,620.678 1246.97,620.678 1249.18,620.678 1251.4,620.678 1253.61,620.678 1255.83,620.678 1258.05,620.678 1260.26,620.678 1262.48,620.678 1264.69,620.678 1266.91,620.678 1269.13,620.678 1271.34,620.678 1273.56,620.678 1275.77,620.678 1277.99,620.678 1280.21,620.678 1282.42,620.678 1284.64,620.678 1286.85,620.678 1289.07,620.678 1291.29,620.678 1293.5,620.678 1295.72,620.678 1297.93,620.678 1300.15,620.678 1302.37,620.678 1304.58,620.678 1306.8,620.678 1309.01,620.678 1311.23,620.678 1313.45,620.678 1315.66,620.678 1317.88,620.678 1320.09,620.678 1322.31,620.678 1324.53,620.678 1326.74,620.678 1328.96,620.678 1331.17,620.678 1333.39,620.678 1335.61,620.678 1337.82,620.678 1340.04,620.678 1342.25,620.678 1344.47,620.678 1346.69,620.678 1348.9,620.678 1351.12,620.678 1353.33,544.322 1355.55,544.322 1357.77,544.322 1359.98,544.322 1362.2,544.322 1364.41,544.322 1366.63,544.322 1368.85,544.322 1371.06,544.322 1373.28,544.322 1375.49,544.322 1377.71,544.322 1379.93,544.322 1382.14,544.322 1384.36,544.322 1386.57,544.322 1388.79,544.322 1391.01,544.322 1393.22,544.322 1395.44,544.322 1397.65,544.322 1399.87,544.322 1402.09,544.322 1404.3,544.322 1406.52,544.322 1408.73,544.322 1410.95,544.322 1413.17,544.322 1415.38,544.322 1417.6,544.322 1419.81,544.322 1422.03,467.966 1424.25,467.966 1426.46,467.966 1428.68,467.966 1430.89,467.966 1433.11,467.966 1435.33,467.966 1437.54,467.966 1439.76,467.966 1441.97,467.966 1444.19,467.966 1446.41,467.966 1448.62,467.966 1450.84,467.966 1453.05,467.966 1455.27,467.966 1457.49,467.966 1459.7,467.966 1461.92,467.966 1464.13,467.966 1466.35,467.966 1468.57,467.966 1470.78,467.966 1473,467.966 1475.21,467.966 1477.43,467.966 1479.65,467.966 1481.86,467.966 1484.08,467.966 1486.3,467.966 1488.51,467.966 1490.73,467.966 1492.94,467.966 1495.16,467.966 1497.38,467.966 1499.59,467.966 1501.81,467.966 1504.02,467.966 1506.24,467.966 1508.46,467.966 1510.67,467.966 1512.89,467.966 1515.1,467.966 1517.32,467.966 1519.54,467.966 1521.75,467.966 1523.97,467.966 1526.18,467.966 1528.4,391.61 1530.62,391.61 1532.83,391.61 1535.05,391.61 1537.26,391.61 1539.48,391.61 1541.7,391.61 1543.91,391.61 1546.13,391.61 1548.34,391.61 1550.56,391.61 1552.78,391.61 1554.99,391.61 1557.21,391.61 1559.42,391.61 1561.64,391.61 1563.86,391.61 1566.07,391.61 1568.29,391.61 1570.5,391.61 1572.72,391.61 1574.94,391.61 1577.15,391.61 1579.37,391.61 1581.58,391.61 1583.8,391.61 1586.02,391.61 1588.23,391.61 1590.45,391.61 1592.66,391.61 1594.88,391.61 1597.1,391.61 1599.31,391.61 1601.53,391.61 1603.74,391.61 1605.96,391.61 1608.18,391.61 1610.39,391.61 1612.61,391.61 1614.82,391.61 1617.04,391.61 1619.26,391.61 1621.47,391.61 1623.69,391.61 1625.9,391.61 1628.12,391.61 1630.34,391.61 1632.55,391.61 1634.77,391.61 1636.98,391.61 1639.2,391.61 1641.42,391.61 1643.63,391.61 1645.85,391.61 1648.06,391.61 1650.28,391.61 1652.5,391.61 1654.71,391.61 1656.93,391.61 1659.14,391.61 1661.36,391.61 1663.58,391.61 1665.79,391.61 1668.01,391.61 1670.22,391.61 1672.44,391.61 1674.66,391.61 1676.87,391.61 1679.09,391.61 1681.3,391.61 1683.52,391.61 1685.74,391.61 1687.95,391.61 1690.17,391.61 1692.38,391.61 1694.6,391.61 1696.82,315.254 1699.03,315.254 1701.25,315.254 1703.46,315.254 1705.68,315.254 1707.9,315.254 1710.11,315.254 1712.33,315.254 1714.54,315.254 1716.76,315.254 1718.98,315.254 1721.19,315.254 1723.41,315.254 1725.62,315.254 1727.84,315.254 1730.06,315.254 1732.27,315.254 1734.49,315.254 1736.7,315.254 1738.92,315.254 1741.14,315.254 1743.35,315.254 1745.57,315.254 1747.78,315.254 1750,315.254 1752.22,315.254 1754.43,315.254 1756.65,315.254 1758.86,315.254 1761.08,315.254 1763.3,315.254 1765.51,315.254 1767.73,315.254 1769.94,315.254 1772.16,315.254 1774.38,315.254 1776.59,315.254 1778.81,315.254 1781.02,315.254 1783.24,315.254 1785.46,315.254 1787.67,315.254 1789.89,315.254 1792.1,315.254 1794.32,315.254 1796.54,315.254 1798.75,315.254 1800.97,315.254 1803.18,315.254 1805.4,315.254 1807.62,315.254 1809.83,315.254 1812.05,315.254 1814.26,315.254 1816.48,315.254 1818.7,315.254 1820.91,315.254 1823.13,315.254 1825.34,315.254 1827.56,315.254 1829.78,315.254 1831.99,315.254 1834.21,315.254 1836.42,315.254 1838.64,315.254 1840.86,315.254 1843.07,315.254 1845.29,315.254 1847.51,315.254 1849.72,315.254 1851.94,315.254 1854.15,315.254 1856.37,315.254 1858.59,315.254 1860.8,315.254 1863.02,315.254 1865.23,315.254 1867.45,315.254 1869.67,315.254 1871.88,315.254 1874.1,315.254 1876.31,315.254 1878.53,315.254 1880.75,315.254 1882.96,315.254 1885.18,315.254 1887.39,315.254 1889.61,315.254 1891.83,315.254 1894.04,315.254 1896.26,315.254 1898.47,315.254 1900.69,315.254 1902.91,315.254 1905.12,315.254 1907.34,315.254 1909.55,315.254 1911.77,315.254 1913.99,315.254 1916.2,315.254 1918.42,315.254 1920.63,315.254 1922.85,315.254 1925.07,315.254 1927.28,315.254 1929.5,315.254 1931.71,315.254 1933.93,315.254 1936.15,315.254 1938.36,315.254 1940.58,315.254 1942.79,315.254 1945.01,315.254 1947.23,315.254 1949.44,315.254 1951.66,315.254 1953.87,315.254 1956.09,315.254 1958.31,315.254 1960.52,315.254 1962.74,315.254 1964.95,315.254 1967.17,315.254 1969.39,315.254 1971.6,315.254 1973.82,315.254 1976.03,315.254 1978.25,315.254 1980.47,315.254 1982.68,315.254 1984.9,315.254 1987.11,315.254 1989.33,315.254 1991.55,315.254 1993.76,315.254 1995.98,315.254 1998.19,315.254 2000.41,315.254 2002.63,315.254 2004.84,315.254 2007.06,315.254 2009.27,315.254 2011.49,315.254 2013.71,315.254 2015.92,315.254 2018.14,315.254 2020.35,315.254 2022.57,315.254 2024.79,315.254 2027,315.254 2029.22,315.254 2031.43,315.254 2033.65,315.254 2035.87,315.254 2038.08,315.254 2040.3,315.254 2042.51,315.254 2044.73,315.254 2046.95,315.254 2049.16,315.254 2051.38,315.254 2053.59,315.254 2055.81,315.254 2058.03,315.254 2060.24,315.254 2062.46,315.254 2064.67,315.254 2066.89,315.254 2069.11,315.254 2071.32,315.254 2073.54,315.254 2075.75,315.254 2077.97,315.254 2080.19,315.254 2082.4,315.254 2084.62,315.254 2086.83,315.254 2089.05,315.254 2091.27,315.254 2093.48,315.254 2095.7,315.254 2097.91,315.254 2100.13,315.254 2102.35,315.254 2104.56,315.254 2106.78,315.254 2108.99,315.254 2111.21,315.254 2113.43,315.254 2115.64,315.254 2117.86,315.254 2120.07,315.254 2122.29,315.254 2124.51,315.254 2126.72,315.254 2128.94,315.254 2131.15,315.254 2133.37,315.254 2135.59,315.254 2137.8,315.254 2140.02,315.254 2142.23,315.254 2144.45,315.254 2146.67,315.254 2148.88,315.254 2151.1,315.254 2153.31,315.254 2155.53,315.254 2157.75,315.254 2159.96,315.254 2162.18,315.254 2164.39,238.898 2166.61,238.898 2168.83,238.898 2171.04,238.898 2173.26,238.898 2175.47,162.542 2177.69,162.542 2179.91,162.542 2182.12,162.542 2184.34,162.542 2186.55,162.542 2188.77,162.542 2190.99,162.542 2193.2,162.542 2195.42,162.542 2197.64,162.542 2199.85,162.542 2202.07,162.542 2204.28,162.542 2206.5,162.542 2208.72,86.1857 2210.93,86.1857 2213.15,86.1857 2215.36,86.1857 2217.58,86.1857 2219.8,86.1857 2222.01,86.1857 2224.23,86.1857 2226.44,86.1857 2228.66,86.1857 2230.88,86.1857 2233.09,86.1857 2235.31,86.1857 2237.52,86.1857 2239.74,86.1857 2241.96,86.1857 2244.17,86.1857 2246.39,86.1857 2248.6,86.1857 2250.82,86.1857 2253.04,86.1857 2255.25,86.1857 2257.47,86.1857 2259.68,86.1857 2261.9,86.1857 2264.12,86.1857 2266.33,86.1857 2268.55,86.1857 2270.76,86.1857 2272.98,86.1857 2275.2,86.1857 2277.41,86.1857 2279.63,86.1857 2281.84,86.1857 2284.06,86.1857 2286.28,86.1857 2288.49,86.1857 2290.71,86.1857 2292.92,86.1857 2295.14,86.1857 2297.36,86.1857 2299.57,86.1857 2301.79,86.1857 2304,86.1857 2306.22,86.1857 2308.44,86.1857 2310.65,86.1857 2312.87,86.1857 2315.08,86.1857 2317.3,86.1857 2319.52,86.1857 2321.73,86.1857 2323.95,86.1857 2326.16,86.1857 2328.38,86.1857 2330.6,86.1857 2332.81,86.1857 2335.03,86.1857 2337.24,86.1857 2339.46,86.1857 2341.68,86.1857 2343.89,86.1857 2346.11,86.1857 2348.32,86.1857 2350.54,86.1857 2352.76,86.1857 "/>
<path clip-path="url(#clip440)" d="M212.753 248.629 L517.488 248.629 L517.488 93.1086 L212.753 93.1086  Z" fill="#ffffff" fill-rule="evenodd" fill-opacity="1"/>
<polyline clip-path="url(#clip440)" style="stroke:#000000; stroke-linecap:round; stroke-linejoin:round; stroke-width:4; stroke-opacity:1; fill:none" points="212.753,248.629 517.488,248.629 517.488,93.1086 212.753,93.1086 212.753,248.629 "/>
<polyline clip-path="url(#clip440)" style="stroke:#009af9; stroke-linecap:round; stroke-linejoin:round; stroke-width:8; stroke-opacity:1; fill:none" points="237.35,144.949 384.937,144.949 "/>
<path clip-path="url(#clip440)" d="M409.535 127.669 L415.831 127.669 L431.155 156.581 L431.155 127.669 L435.692 127.669 L435.692 162.229 L429.396 162.229 L414.072 133.317 L414.072 162.229 L409.535 162.229 L409.535 127.669 Z" fill="#000000" fill-rule="nonzero" fill-opacity="1" /><path clip-path="url(#clip440)" d="M455.044 126.257 Q451.942 131.581 450.437 136.789 Q448.933 141.997 448.933 147.344 Q448.933 152.692 450.437 157.946 Q451.965 163.178 455.044 168.479 L451.34 168.479 Q447.868 163.039 446.132 157.784 Q444.419 152.53 444.419 147.344 Q444.419 142.182 446.132 136.951 Q447.845 131.72 451.34 126.257 L455.044 126.257 Z" fill="#000000" fill-rule="nonzero" fill-opacity="1" /><path clip-path="url(#clip440)" d="M467.52 128.942 L467.52 136.303 L476.293 136.303 L476.293 139.613 L467.52 139.613 L467.52 153.687 Q467.52 156.858 468.377 157.761 Q469.256 158.664 471.918 158.664 L476.293 158.664 L476.293 162.229 L471.918 162.229 Q466.988 162.229 465.113 160.4 Q463.238 158.548 463.238 153.687 L463.238 139.613 L460.113 139.613 L460.113 136.303 L463.238 136.303 L463.238 128.942 L467.52 128.942 Z" fill="#000000" fill-rule="nonzero" fill-opacity="1" /><path clip-path="url(#clip440)" d="M481.224 126.257 L484.928 126.257 Q488.4 131.72 490.113 136.951 Q491.849 142.182 491.849 147.344 Q491.849 152.53 490.113 157.784 Q488.4 163.039 484.928 168.479 L481.224 168.479 Q484.303 163.178 485.807 157.946 Q487.335 152.692 487.335 147.344 Q487.335 141.997 485.807 136.789 Q484.303 131.581 481.224 126.257 Z" fill="#000000" fill-rule="nonzero" fill-opacity="1" /><polyline clip-path="url(#clip440)" style="stroke:#e26f46; stroke-linecap:round; stroke-linejoin:round; stroke-width:8; stroke-opacity:1; fill:none" points="237.35,196.789 384.937,196.789 "/>
<path clip-path="url(#clip440)" d="M414.21 183.351 L414.21 210.226 L419.859 210.226 Q427.011 210.226 430.321 206.985 Q433.655 203.745 433.655 196.754 Q433.655 189.809 430.321 186.592 Q427.011 183.351 419.859 183.351 L414.21 183.351 M409.535 179.509 L419.141 179.509 Q429.187 179.509 433.886 183.698 Q438.585 187.865 438.585 196.754 Q438.585 205.689 433.863 209.879 Q429.141 214.069 419.141 214.069 L409.535 214.069 L409.535 179.509 Z" fill="#000000" fill-rule="nonzero" fill-opacity="1" /><path clip-path="url(#clip440)" d="M456.085 178.097 Q452.983 183.421 451.479 188.629 Q449.974 193.837 449.974 199.184 Q449.974 204.532 451.479 209.786 Q453.007 215.018 456.085 220.319 L452.382 220.319 Q448.909 214.879 447.173 209.624 Q445.46 204.37 445.46 199.184 Q445.46 194.022 447.173 188.791 Q448.886 183.56 452.382 178.097 L456.085 178.097 Z" fill="#000000" fill-rule="nonzero" fill-opacity="1" /><path clip-path="url(#clip440)" d="M468.562 180.782 L468.562 188.143 L477.335 188.143 L477.335 191.453 L468.562 191.453 L468.562 205.527 Q468.562 208.698 469.419 209.601 Q470.298 210.504 472.96 210.504 L477.335 210.504 L477.335 214.069 L472.96 214.069 Q468.03 214.069 466.155 212.24 Q464.28 210.388 464.28 205.527 L464.28 191.453 L461.155 191.453 L461.155 188.143 L464.28 188.143 L464.28 180.782 L468.562 180.782 Z" fill="#000000" fill-rule="nonzero" fill-opacity="1" /><path clip-path="url(#clip440)" d="M482.266 178.097 L485.969 178.097 Q489.442 183.56 491.154 188.791 Q492.891 194.022 492.891 199.184 Q492.891 204.37 491.154 209.624 Q489.442 214.879 485.969 220.319 L482.266 220.319 Q485.344 215.018 486.849 209.786 Q488.377 204.532 488.377 199.184 Q488.377 193.837 486.849 188.629 Q485.344 183.421 482.266 178.097 Z" fill="#000000" fill-rule="nonzero" fill-opacity="1" /></svg>
