<?xml version="1.0" encoding="utf-8"?>
<svg xmlns="http://www.w3.org/2000/svg" xmlns:xlink="http://www.w3.org/1999/xlink" width="600" height="400" viewBox="0 0 2400 1600">
<defs>
  <clipPath id="clip780">
    <rect x="0" y="0" width="2400" height="1600"/>
  </clipPath>
</defs>
<path clip-path="url(#clip780)" d="M0 1600 L2400 1600 L2400 0 L0 0  Z" fill="#ffffff" fill-rule="evenodd" fill-opacity="1"/>
<defs>
  <clipPath id="clip781">
    <rect x="480" y="0" width="1681" height="1600"/>
  </clipPath>
</defs>
<path clip-path="url(#clip780)" d="M156.598 1423.18 L2352.76 1423.18 L2352.76 47.2441 L156.598 47.2441  Z" fill="#ffffff" fill-rule="evenodd" fill-opacity="1"/>
<defs>
  <clipPath id="clip782">
    <rect x="156" y="47" width="2197" height="1377"/>
  </clipPath>
</defs>
<polyline clip-path="url(#clip782)" style="stroke:#000000; stroke-linecap:round; stroke-linejoin:round; stroke-width:2; stroke-opacity:0.1; fill:none" points="156.598,1423.18 156.598,47.2441 "/>
<polyline clip-path="url(#clip782)" style="stroke:#000000; stroke-linecap:round; stroke-linejoin:round; stroke-width:2; stroke-opacity:0.1; fill:none" points="595.83,1423.18 595.83,47.2441 "/>
<polyline clip-path="url(#clip782)" style="stroke:#000000; stroke-linecap:round; stroke-linejoin:round; stroke-width:2; stroke-opacity:0.1; fill:none" points="1035.06,1423.18 1035.06,47.2441 "/>
<polyline clip-path="url(#clip782)" style="stroke:#000000; stroke-linecap:round; stroke-linejoin:round; stroke-width:2; stroke-opacity:0.1; fill:none" points="1474.29,1423.18 1474.29,47.2441 "/>
<polyline clip-path="url(#clip782)" style="stroke:#000000; stroke-linecap:round; stroke-linejoin:round; stroke-width:2; stroke-opacity:0.1; fill:none" points="1913.52,1423.18 1913.52,47.2441 "/>
<polyline clip-path="url(#clip782)" style="stroke:#000000; stroke-linecap:round; stroke-linejoin:round; stroke-width:2; stroke-opacity:0.1; fill:none" points="2352.76,1423.18 2352.76,47.2441 "/>
<polyline clip-path="url(#clip780)" style="stroke:#000000; stroke-linecap:round; stroke-linejoin:round; stroke-width:4; stroke-opacity:1; fill:none" points="156.598,1423.18 2352.76,1423.18 "/>
<polyline clip-path="url(#clip780)" style="stroke:#000000; stroke-linecap:round; stroke-linejoin:round; stroke-width:4; stroke-opacity:1; fill:none" points="156.598,1423.18 156.598,1404.28 "/>
<polyline clip-path="url(#clip780)" style="stroke:#000000; stroke-linecap:round; stroke-linejoin:round; stroke-width:4; stroke-opacity:1; fill:none" points="595.83,1423.18 595.83,1404.28 "/>
<polyline clip-path="url(#clip780)" style="stroke:#000000; stroke-linecap:round; stroke-linejoin:round; stroke-width:4; stroke-opacity:1; fill:none" points="1035.06,1423.18 1035.06,1404.28 "/>
<polyline clip-path="url(#clip780)" style="stroke:#000000; stroke-linecap:round; stroke-linejoin:round; stroke-width:4; stroke-opacity:1; fill:none" points="1474.29,1423.18 1474.29,1404.28 "/>
<polyline clip-path="url(#clip780)" style="stroke:#000000; stroke-linecap:round; stroke-linejoin:round; stroke-width:4; stroke-opacity:1; fill:none" points="1913.52,1423.18 1913.52,1404.28 "/>
<polyline clip-path="url(#clip780)" style="stroke:#000000; stroke-linecap:round; stroke-linejoin:round; stroke-width:4; stroke-opacity:1; fill:none" points="2352.76,1423.18 2352.76,1404.28 "/>
<path clip-path="url(#clip780)" d="M156.598 1454.1 Q152.987 1454.1 151.158 1457.66 Q149.353 1461.2 149.353 1468.33 Q149.353 1475.44 151.158 1479.01 Q152.987 1482.55 156.598 1482.55 Q160.232 1482.55 162.038 1479.01 Q163.867 1475.44 163.867 1468.33 Q163.867 1461.2 162.038 1457.66 Q160.232 1454.1 156.598 1454.1 M156.598 1450.39 Q162.408 1450.39 165.464 1455 Q168.543 1459.58 168.543 1468.33 Q168.543 1477.06 165.464 1481.67 Q162.408 1486.25 156.598 1486.25 Q150.788 1486.25 147.709 1481.67 Q144.654 1477.06 144.654 1468.33 Q144.654 1459.58 147.709 1455 Q150.788 1450.39 156.598 1450.39 Z" fill="#000000" fill-rule="nonzero" fill-opacity="1" /><path clip-path="url(#clip780)" d="M590.483 1481.64 L606.802 1481.64 L606.802 1485.58 L584.858 1485.58 L584.858 1481.64 Q587.52 1478.89 592.103 1474.26 Q596.709 1469.61 597.89 1468.27 Q600.135 1465.74 601.015 1464.01 Q601.918 1462.25 601.918 1460.56 Q601.918 1457.8 599.973 1456.07 Q598.052 1454.33 594.95 1454.33 Q592.751 1454.33 590.297 1455.09 Q587.867 1455.86 585.089 1457.41 L585.089 1452.69 Q587.913 1451.55 590.367 1450.97 Q592.821 1450.39 594.858 1450.39 Q600.228 1450.39 603.422 1453.08 Q606.617 1455.77 606.617 1460.26 Q606.617 1462.39 605.807 1464.31 Q605.02 1466.2 602.913 1468.8 Q602.334 1469.47 599.233 1472.69 Q596.131 1475.88 590.483 1481.64 Z" fill="#000000" fill-rule="nonzero" fill-opacity="1" /><path clip-path="url(#clip780)" d="M1038.07 1455.09 L1026.27 1473.54 L1038.07 1473.54 L1038.07 1455.09 M1036.84 1451.02 L1042.72 1451.02 L1042.72 1473.54 L1047.65 1473.54 L1047.65 1477.43 L1042.72 1477.43 L1042.72 1485.58 L1038.07 1485.58 L1038.07 1477.43 L1022.47 1477.43 L1022.47 1472.92 L1036.84 1451.02 Z" fill="#000000" fill-rule="nonzero" fill-opacity="1" /><path clip-path="url(#clip780)" d="M1474.7 1466.44 Q1471.55 1466.44 1469.7 1468.59 Q1467.87 1470.74 1467.87 1474.49 Q1467.87 1478.22 1469.7 1480.39 Q1471.55 1482.55 1474.7 1482.55 Q1477.85 1482.55 1479.67 1480.39 Q1481.53 1478.22 1481.53 1474.49 Q1481.53 1470.74 1479.67 1468.59 Q1477.85 1466.44 1474.7 1466.44 M1483.98 1451.78 L1483.98 1456.04 Q1482.22 1455.21 1480.42 1454.77 Q1478.63 1454.33 1476.87 1454.33 Q1472.24 1454.33 1469.79 1457.45 Q1467.36 1460.58 1467.01 1466.9 Q1468.38 1464.89 1470.44 1463.82 Q1472.5 1462.73 1474.98 1462.73 Q1480.18 1462.73 1483.19 1465.9 Q1486.23 1469.05 1486.23 1474.49 Q1486.23 1479.82 1483.08 1483.03 Q1479.93 1486.25 1474.7 1486.25 Q1468.7 1486.25 1465.53 1481.67 Q1462.36 1477.06 1462.36 1468.33 Q1462.36 1460.14 1466.25 1455.28 Q1470.14 1450.39 1476.69 1450.39 Q1478.45 1450.39 1480.23 1450.74 Q1482.04 1451.09 1483.98 1451.78 Z" fill="#000000" fill-rule="nonzero" fill-opacity="1" /><path clip-path="url(#clip780)" d="M1913.52 1469.17 Q1910.19 1469.17 1908.27 1470.95 Q1906.37 1472.73 1906.37 1475.86 Q1906.37 1478.98 1908.27 1480.77 Q1910.19 1482.55 1913.52 1482.55 Q1916.86 1482.55 1918.78 1480.77 Q1920.7 1478.96 1920.7 1475.86 Q1920.7 1472.73 1918.78 1470.95 Q1916.88 1469.17 1913.52 1469.17 M1908.85 1467.18 Q1905.84 1466.44 1904.15 1464.38 Q1902.48 1462.32 1902.48 1459.35 Q1902.48 1455.21 1905.42 1452.8 Q1908.39 1450.39 1913.52 1450.39 Q1918.69 1450.39 1921.63 1452.8 Q1924.57 1455.21 1924.57 1459.35 Q1924.57 1462.32 1922.88 1464.38 Q1921.21 1466.44 1918.22 1467.18 Q1921.6 1467.96 1923.48 1470.26 Q1925.38 1472.55 1925.38 1475.86 Q1925.38 1480.88 1922.3 1483.57 Q1919.24 1486.25 1913.52 1486.25 Q1907.81 1486.25 1904.73 1483.57 Q1901.67 1480.88 1901.67 1475.86 Q1901.67 1472.55 1903.57 1470.26 Q1905.47 1467.96 1908.85 1467.18 M1907.14 1459.79 Q1907.14 1462.48 1908.8 1463.98 Q1910.49 1465.49 1913.52 1465.49 Q1916.53 1465.49 1918.22 1463.98 Q1919.94 1462.48 1919.94 1459.79 Q1919.94 1457.11 1918.22 1455.6 Q1916.53 1454.1 1913.52 1454.1 Q1910.49 1454.1 1908.8 1455.6 Q1907.14 1457.11 1907.14 1459.79 Z" fill="#000000" fill-rule="nonzero" fill-opacity="1" /><path clip-path="url(#clip780)" d="M2327.44 1481.64 L2335.08 1481.64 L2335.08 1455.28 L2326.77 1456.95 L2326.77 1452.69 L2335.04 1451.02 L2339.71 1451.02 L2339.71 1481.64 L2347.35 1481.64 L2347.35 1485.58 L2327.44 1485.58 L2327.44 1481.64 Z" fill="#000000" fill-rule="nonzero" fill-opacity="1" /><path clip-path="url(#clip780)" d="M2366.8 1454.1 Q2363.18 1454.1 2361.36 1457.66 Q2359.55 1461.2 2359.55 1468.33 Q2359.55 1475.44 2361.36 1479.01 Q2363.18 1482.55 2366.8 1482.55 Q2370.43 1482.55 2372.23 1479.01 Q2374.06 1475.44 2374.06 1468.33 Q2374.06 1461.2 2372.23 1457.66 Q2370.43 1454.1 2366.8 1454.1 M2366.8 1450.39 Q2372.61 1450.39 2375.66 1455 Q2378.74 1459.58 2378.74 1468.33 Q2378.74 1477.06 2375.66 1481.67 Q2372.61 1486.25 2366.8 1486.25 Q2360.99 1486.25 2357.91 1481.67 Q2354.85 1477.06 2354.85 1468.33 Q2354.85 1459.58 2357.91 1455 Q2360.99 1450.39 2366.8 1450.39 Z" fill="#000000" fill-rule="nonzero" fill-opacity="1" /><path clip-path="url(#clip780)" d="M1253.74 1522.27 L1253.74 1532.4 L1265.8 1532.4 L1265.8 1536.95 L1253.74 1536.95 L1253.74 1556.3 Q1253.74 1560.66 1254.92 1561.9 Q1256.13 1563.14 1259.79 1563.14 L1265.8 1563.14 L1265.8 1568.04 L1259.79 1568.04 Q1253.01 1568.04 1250.43 1565.53 Q1247.85 1562.98 1247.85 1556.3 L1247.85 1536.95 L1243.55 1536.95 L1243.55 1532.4 L1247.85 1532.4 L1247.85 1522.27 L1253.74 1522.27 Z" fill="#000000" fill-rule="nonzero" fill-opacity="1" /><polyline clip-path="url(#clip782)" style="stroke:#000000; stroke-linecap:round; stroke-linejoin:round; stroke-width:2; stroke-opacity:0.1; fill:none" points="156.598,1391.05 2352.76,1391.05 "/>
<polyline clip-path="url(#clip782)" style="stroke:#000000; stroke-linecap:round; stroke-linejoin:round; stroke-width:2; stroke-opacity:0.1; fill:none" points="156.598,1188.83 2352.76,1188.83 "/>
<polyline clip-path="url(#clip782)" style="stroke:#000000; stroke-linecap:round; stroke-linejoin:round; stroke-width:2; stroke-opacity:0.1; fill:none" points="156.598,986.614 2352.76,986.614 "/>
<polyline clip-path="url(#clip782)" style="stroke:#000000; stroke-linecap:round; stroke-linejoin:round; stroke-width:2; stroke-opacity:0.1; fill:none" points="156.598,784.394 2352.76,784.394 "/>
<polyline clip-path="url(#clip782)" style="stroke:#000000; stroke-linecap:round; stroke-linejoin:round; stroke-width:2; stroke-opacity:0.1; fill:none" points="156.598,582.174 2352.76,582.174 "/>
<polyline clip-path="url(#clip782)" style="stroke:#000000; stroke-linecap:round; stroke-linejoin:round; stroke-width:2; stroke-opacity:0.1; fill:none" points="156.598,379.953 2352.76,379.953 "/>
<polyline clip-path="url(#clip782)" style="stroke:#000000; stroke-linecap:round; stroke-linejoin:round; stroke-width:2; stroke-opacity:0.1; fill:none" points="156.598,177.733 2352.76,177.733 "/>
<polyline clip-path="url(#clip780)" style="stroke:#000000; stroke-linecap:round; stroke-linejoin:round; stroke-width:4; stroke-opacity:1; fill:none" points="156.598,1423.18 156.598,47.2441 "/>
<polyline clip-path="url(#clip780)" style="stroke:#000000; stroke-linecap:round; stroke-linejoin:round; stroke-width:4; stroke-opacity:1; fill:none" points="156.598,1391.05 175.496,1391.05 "/>
<polyline clip-path="url(#clip780)" style="stroke:#000000; stroke-linecap:round; stroke-linejoin:round; stroke-width:4; stroke-opacity:1; fill:none" points="156.598,1188.83 175.496,1188.83 "/>
<polyline clip-path="url(#clip780)" style="stroke:#000000; stroke-linecap:round; stroke-linejoin:round; stroke-width:4; stroke-opacity:1; fill:none" points="156.598,986.614 175.496,986.614 "/>
<polyline clip-path="url(#clip780)" style="stroke:#000000; stroke-linecap:round; stroke-linejoin:round; stroke-width:4; stroke-opacity:1; fill:none" points="156.598,784.394 175.496,784.394 "/>
<polyline clip-path="url(#clip780)" style="stroke:#000000; stroke-linecap:round; stroke-linejoin:round; stroke-width:4; stroke-opacity:1; fill:none" points="156.598,582.174 175.496,582.174 "/>
<polyline clip-path="url(#clip780)" style="stroke:#000000; stroke-linecap:round; stroke-linejoin:round; stroke-width:4; stroke-opacity:1; fill:none" points="156.598,379.953 175.496,379.953 "/>
<polyline clip-path="url(#clip780)" style="stroke:#000000; stroke-linecap:round; stroke-linejoin:round; stroke-width:4; stroke-opacity:1; fill:none" points="156.598,177.733 175.496,177.733 "/>
<path clip-path="url(#clip780)" d="M63.4226 1376.85 Q59.8115 1376.85 57.9828 1380.42 Q56.1773 1383.96 56.1773 1391.09 Q56.1773 1398.2 57.9828 1401.76 Q59.8115 1405.3 63.4226 1405.3 Q67.0569 1405.3 68.8624 1401.76 Q70.6911 1398.2 70.6911 1391.09 Q70.6911 1383.96 68.8624 1380.42 Q67.0569 1376.85 63.4226 1376.85 M63.4226 1373.15 Q69.2328 1373.15 72.2883 1377.76 Q75.367 1382.34 75.367 1391.09 Q75.367 1399.82 72.2883 1404.42 Q69.2328 1409.01 63.4226 1409.01 Q57.6125 1409.01 54.5338 1404.42 Q51.4782 1399.82 51.4782 1391.09 Q51.4782 1382.34 54.5338 1377.76 Q57.6125 1373.15 63.4226 1373.15 Z" fill="#000000" fill-rule="nonzero" fill-opacity="1" /><path clip-path="url(#clip780)" d="M83.5845 1402.46 L88.4688 1402.46 L88.4688 1408.33 L83.5845 1408.33 L83.5845 1402.46 Z" fill="#000000" fill-rule="nonzero" fill-opacity="1" /><path clip-path="url(#clip780)" d="M108.654 1376.85 Q105.043 1376.85 103.214 1380.42 Q101.409 1383.96 101.409 1391.09 Q101.409 1398.2 103.214 1401.76 Q105.043 1405.3 108.654 1405.3 Q112.288 1405.3 114.094 1401.76 Q115.922 1398.2 115.922 1391.09 Q115.922 1383.96 114.094 1380.42 Q112.288 1376.85 108.654 1376.85 M108.654 1373.15 Q114.464 1373.15 117.52 1377.76 Q120.598 1382.34 120.598 1391.09 Q120.598 1399.82 117.52 1404.42 Q114.464 1409.01 108.654 1409.01 Q102.844 1409.01 99.765 1404.42 Q96.7095 1399.82 96.7095 1391.09 Q96.7095 1382.34 99.765 1377.76 Q102.844 1373.15 108.654 1373.15 Z" fill="#000000" fill-rule="nonzero" fill-opacity="1" /><path clip-path="url(#clip780)" d="M64.6495 1174.63 Q61.0384 1174.63 59.2097 1178.2 Q57.4041 1181.74 57.4041 1188.87 Q57.4041 1195.98 59.2097 1199.54 Q61.0384 1203.08 64.6495 1203.08 Q68.2837 1203.08 70.0892 1199.54 Q71.9179 1195.98 71.9179 1188.87 Q71.9179 1181.74 70.0892 1178.2 Q68.2837 1174.63 64.6495 1174.63 M64.6495 1170.93 Q70.4596 1170.93 73.5152 1175.54 Q76.5938 1180.12 76.5938 1188.87 Q76.5938 1197.6 73.5152 1202.2 Q70.4596 1206.79 64.6495 1206.79 Q58.8393 1206.79 55.7606 1202.2 Q52.7051 1197.6 52.7051 1188.87 Q52.7051 1180.12 55.7606 1175.54 Q58.8393 1170.93 64.6495 1170.93 Z" fill="#000000" fill-rule="nonzero" fill-opacity="1" /><path clip-path="url(#clip780)" d="M84.8114 1200.23 L89.6956 1200.23 L89.6956 1206.11 L84.8114 1206.11 L84.8114 1200.23 Z" fill="#000000" fill-rule="nonzero" fill-opacity="1" /><path clip-path="url(#clip780)" d="M100.691 1202.18 L108.33 1202.18 L108.33 1175.81 L100.02 1177.48 L100.02 1173.22 L108.283 1171.55 L112.959 1171.55 L112.959 1202.18 L120.598 1202.18 L120.598 1206.11 L100.691 1206.11 L100.691 1202.18 Z" fill="#000000" fill-rule="nonzero" fill-opacity="1" /><path clip-path="url(#clip780)" d="M65.0198 972.413 Q61.4087 972.413 59.58 975.978 Q57.7745 979.519 57.7745 986.649 Q57.7745 993.755 59.58 997.32 Q61.4087 1000.86 65.0198 1000.86 Q68.6541 1000.86 70.4596 997.32 Q72.2883 993.755 72.2883 986.649 Q72.2883 979.519 70.4596 975.978 Q68.6541 972.413 65.0198 972.413 M65.0198 968.709 Q70.83 968.709 73.8855 973.316 Q76.9642 977.899 76.9642 986.649 Q76.9642 995.376 73.8855 999.982 Q70.83 1004.57 65.0198 1004.57 Q59.2097 1004.57 56.131 999.982 Q53.0754 995.376 53.0754 986.649 Q53.0754 977.899 56.131 973.316 Q59.2097 968.709 65.0198 968.709 Z" fill="#000000" fill-rule="nonzero" fill-opacity="1" /><path clip-path="url(#clip780)" d="M85.1818 998.015 L90.066 998.015 L90.066 1003.89 L85.1818 1003.89 L85.1818 998.015 Z" fill="#000000" fill-rule="nonzero" fill-opacity="1" /><path clip-path="url(#clip780)" d="M104.279 999.959 L120.598 999.959 L120.598 1003.89 L98.6539 1003.89 L98.6539 999.959 Q101.316 997.204 105.899 992.575 Q110.506 987.922 111.686 986.579 Q113.932 984.056 114.811 982.32 Q115.714 980.561 115.714 978.871 Q115.714 976.117 113.77 974.38 Q111.848 972.644 108.746 972.644 Q106.547 972.644 104.094 973.408 Q101.663 974.172 98.8854 975.723 L98.8854 971.001 Q101.709 969.867 104.163 969.288 Q106.617 968.709 108.654 968.709 Q114.024 968.709 117.219 971.394 Q120.413 974.08 120.413 978.57 Q120.413 980.7 119.603 982.621 Q118.816 984.519 116.709 987.112 Q116.131 987.783 113.029 991.001 Q109.927 994.195 104.279 999.959 Z" fill="#000000" fill-rule="nonzero" fill-opacity="1" /><path clip-path="url(#clip780)" d="M64.0708 770.193 Q60.4597 770.193 58.631 773.757 Q56.8254 777.299 56.8254 784.429 Q56.8254 791.535 58.631 795.1 Q60.4597 798.642 64.0708 798.642 Q67.705 798.642 69.5105 795.1 Q71.3392 791.535 71.3392 784.429 Q71.3392 777.299 69.5105 773.757 Q67.705 770.193 64.0708 770.193 M64.0708 766.489 Q69.8809 766.489 72.9365 771.095 Q76.0151 775.679 76.0151 784.429 Q76.0151 793.155 72.9365 797.762 Q69.8809 802.345 64.0708 802.345 Q58.2606 802.345 55.1819 797.762 Q52.1264 793.155 52.1264 784.429 Q52.1264 775.679 55.1819 771.095 Q58.2606 766.489 64.0708 766.489 Z" fill="#000000" fill-rule="nonzero" fill-opacity="1" /><path clip-path="url(#clip780)" d="M84.2327 795.794 L89.1169 795.794 L89.1169 801.674 L84.2327 801.674 L84.2327 795.794 Z" fill="#000000" fill-rule="nonzero" fill-opacity="1" /><path clip-path="url(#clip780)" d="M113.469 783.04 Q116.825 783.757 118.7 786.026 Q120.598 788.294 120.598 791.628 Q120.598 796.743 117.08 799.544 Q113.561 802.345 107.08 802.345 Q104.904 802.345 102.589 801.905 Q100.297 801.489 97.8437 800.632 L97.8437 796.118 Q99.7882 797.253 102.103 797.831 Q104.418 798.41 106.941 798.41 Q111.339 798.41 113.631 796.674 Q115.945 794.938 115.945 791.628 Q115.945 788.572 113.793 786.859 Q111.663 785.123 107.844 785.123 L103.816 785.123 L103.816 781.281 L108.029 781.281 Q111.478 781.281 113.307 779.915 Q115.135 778.526 115.135 775.933 Q115.135 773.271 113.237 771.859 Q111.362 770.424 107.844 770.424 Q105.922 770.424 103.723 770.841 Q101.524 771.257 98.8854 772.137 L98.8854 767.97 Q101.547 767.23 103.862 766.859 Q106.2 766.489 108.26 766.489 Q113.584 766.489 116.686 768.919 Q119.788 771.327 119.788 775.447 Q119.788 778.318 118.145 780.308 Q116.501 782.276 113.469 783.04 Z" fill="#000000" fill-rule="nonzero" fill-opacity="1" /><path clip-path="url(#clip780)" d="M62.9365 567.972 Q59.3254 567.972 57.4967 571.537 Q55.6912 575.079 55.6912 582.208 Q55.6912 589.315 57.4967 592.88 Q59.3254 596.421 62.9365 596.421 Q66.5707 596.421 68.3763 592.88 Q70.205 589.315 70.205 582.208 Q70.205 575.079 68.3763 571.537 Q66.5707 567.972 62.9365 567.972 M62.9365 564.269 Q68.7467 564.269 71.8022 568.875 Q74.8809 573.458 74.8809 582.208 Q74.8809 590.935 71.8022 595.542 Q68.7467 600.125 62.9365 600.125 Q57.1264 600.125 54.0477 595.542 Q50.9921 590.935 50.9921 582.208 Q50.9921 573.458 54.0477 568.875 Q57.1264 564.269 62.9365 564.269 Z" fill="#000000" fill-rule="nonzero" fill-opacity="1" /><path clip-path="url(#clip780)" d="M83.0984 593.574 L87.9827 593.574 L87.9827 599.454 L83.0984 599.454 L83.0984 593.574 Z" fill="#000000" fill-rule="nonzero" fill-opacity="1" /><path clip-path="url(#clip780)" d="M111.015 568.968 L99.2095 587.417 L111.015 587.417 L111.015 568.968 M109.788 564.894 L115.668 564.894 L115.668 587.417 L120.598 587.417 L120.598 591.306 L115.668 591.306 L115.668 599.454 L111.015 599.454 L111.015 591.306 L95.4132 591.306 L95.4132 586.792 L109.788 564.894 Z" fill="#000000" fill-rule="nonzero" fill-opacity="1" /><path clip-path="url(#clip780)" d="M64.418 365.752 Q60.8069 365.752 58.9782 369.317 Q57.1726 372.859 57.1726 379.988 Q57.1726 387.095 58.9782 390.659 Q60.8069 394.201 64.418 394.201 Q68.0522 394.201 69.8578 390.659 Q71.6865 387.095 71.6865 379.988 Q71.6865 372.859 69.8578 369.317 Q68.0522 365.752 64.418 365.752 M64.418 362.048 Q70.2281 362.048 73.2837 366.655 Q76.3624 371.238 76.3624 379.988 Q76.3624 388.715 73.2837 393.321 Q70.2281 397.905 64.418 397.905 Q58.6078 397.905 55.5291 393.321 Q52.4736 388.715 52.4736 379.988 Q52.4736 371.238 55.5291 366.655 Q58.6078 362.048 64.418 362.048 Z" fill="#000000" fill-rule="nonzero" fill-opacity="1" /><path clip-path="url(#clip780)" d="M84.5799 391.354 L89.4641 391.354 L89.4641 397.233 L84.5799 397.233 L84.5799 391.354 Z" fill="#000000" fill-rule="nonzero" fill-opacity="1" /><path clip-path="url(#clip780)" d="M99.6956 362.673 L118.052 362.673 L118.052 366.609 L103.978 366.609 L103.978 375.081 Q104.996 374.734 106.015 374.572 Q107.033 374.386 108.052 374.386 Q113.839 374.386 117.219 377.558 Q120.598 380.729 120.598 386.146 Q120.598 391.724 117.126 394.826 Q113.654 397.905 107.334 397.905 Q105.159 397.905 102.89 397.534 Q100.645 397.164 98.2372 396.423 L98.2372 391.724 Q100.321 392.858 102.543 393.414 Q104.765 393.97 107.242 393.97 Q111.246 393.97 113.584 391.863 Q115.922 389.757 115.922 386.146 Q115.922 382.534 113.584 380.428 Q111.246 378.322 107.242 378.322 Q105.367 378.322 103.492 378.738 Q101.64 379.155 99.6956 380.034 L99.6956 362.673 Z" fill="#000000" fill-rule="nonzero" fill-opacity="1" /><path clip-path="url(#clip780)" d="M63.2606 163.532 Q59.6495 163.532 57.8208 167.097 Q56.0152 170.638 56.0152 177.768 Q56.0152 184.874 57.8208 188.439 Q59.6495 191.981 63.2606 191.981 Q66.8948 191.981 68.7004 188.439 Q70.5291 184.874 70.5291 177.768 Q70.5291 170.638 68.7004 167.097 Q66.8948 163.532 63.2606 163.532 M63.2606 159.828 Q69.0707 159.828 72.1263 164.435 Q75.205 169.018 75.205 177.768 Q75.205 186.495 72.1263 191.101 Q69.0707 195.684 63.2606 195.684 Q57.4504 195.684 54.3717 191.101 Q51.3162 186.495 51.3162 177.768 Q51.3162 169.018 54.3717 164.435 Q57.4504 159.828 63.2606 159.828 Z" fill="#000000" fill-rule="nonzero" fill-opacity="1" /><path clip-path="url(#clip780)" d="M83.4225 189.134 L88.3067 189.134 L88.3067 195.013 L83.4225 195.013 L83.4225 189.134 Z" fill="#000000" fill-rule="nonzero" fill-opacity="1" /><path clip-path="url(#clip780)" d="M109.071 175.87 Q105.922 175.87 104.071 178.023 Q102.242 180.175 102.242 183.925 Q102.242 187.652 104.071 189.828 Q105.922 191.981 109.071 191.981 Q112.219 191.981 114.047 189.828 Q115.899 187.652 115.899 183.925 Q115.899 180.175 114.047 178.023 Q112.219 175.87 109.071 175.87 M118.353 161.217 L118.353 165.476 Q116.594 164.643 114.788 164.203 Q113.006 163.763 111.246 163.763 Q106.617 163.763 104.163 166.888 Q101.733 170.013 101.385 176.333 Q102.751 174.319 104.811 173.254 Q106.871 172.166 109.348 172.166 Q114.557 172.166 117.566 175.337 Q120.598 178.486 120.598 183.925 Q120.598 189.249 117.45 192.467 Q114.302 195.684 109.071 195.684 Q103.075 195.684 99.9039 191.101 Q96.7326 186.495 96.7326 177.768 Q96.7326 169.574 100.621 164.712 Q104.51 159.828 111.061 159.828 Q112.82 159.828 114.603 160.175 Q116.408 160.523 118.353 161.217 Z" fill="#000000" fill-rule="nonzero" fill-opacity="1" /><polyline clip-path="url(#clip782)" style="stroke:#009af9; stroke-linecap:round; stroke-linejoin:round; stroke-width:8; stroke-opacity:1; fill:none" points="156.598,986.614 158.797,982.545 160.995,978.436 163.193,974.285 165.392,970.092 167.59,965.857 169.788,961.579 171.987,957.259 174.185,952.894 176.383,948.486 178.582,944.034 180.78,939.537 182.979,934.995 185.177,930.406 187.375,925.772 189.574,921.091 191.772,916.363 193.97,911.588 196.169,906.764 198.367,901.892 200.565,896.971 202.764,892 204.962,886.98 207.16,881.909 209.359,876.787 211.557,871.613 213.755,866.387 215.954,861.109 218.152,855.777 220.351,850.392 222.549,844.953 224.747,839.459 226.946,833.91 229.144,828.305 231.342,822.644 233.541,816.925 235.739,811.149 237.937,805.315 240.136,799.423 242.334,793.471 244.532,787.459 246.731,781.386 248.929,775.253 251.128,1080.06 253.326,1076.93 255.524,1073.77 257.723,1070.58 259.921,1067.35 262.119,1064.09 264.318,1060.81 266.516,1057.48 268.714,1054.13 270.913,1050.74 273.111,1047.31 275.309,1043.86 277.508,1040.36 279.706,1036.83 281.905,1033.27 284.103,1029.67 286.301,1026.04 288.5,1022.36 290.698,1018.65 292.896,1014.91 295.095,1011.12 297.293,1007.3 299.491,1003.44 301.69,999.542 303.888,995.603 306.086,991.625 308.285,987.606 310.483,983.548 312.682,979.448 314.88,975.307 317.078,971.125 319.277,966.9 321.475,962.633 323.673,958.323 325.872,953.969 328.07,949.572 330.268,945.131 332.467,940.645 334.665,936.113 336.863,931.537 339.062,926.914 341.26,922.244 343.458,917.528 345.657,912.764 347.855,907.953 350.054,903.092 352.252,898.183 354.45,893.225 356.649,888.217 358.847,883.158 361.045,878.048 363.244,872.887 365.442,867.675 367.64,862.409 369.839,857.091 372.037,851.719 374.235,846.293 376.434,840.813 378.632,835.277 380.831,829.686 383.029,824.038 385.227,818.334 387.426,812.572 389.624,806.752 391.822,800.874 394.021,794.936 396.219,788.939 398.417,782.882 400.616,776.764 402.814,770.584 405.012,764.342 407.211,758.037 409.409,751.668 411.608,745.236 413.806,738.739 416.004,732.177 418.203,725.548 420.401,718.853 422.599,712.091 424.798,705.26 426.996,698.361 429.194,691.392 431.393,684.354 433.591,677.244 435.789,670.063 437.988,662.81 440.186,655.483 442.385,648.083 444.583,640.609 446.781,633.059 448.98,625.433 451.178,617.731 453.376,609.951 455.575,602.093 457.773,594.155 459.971,586.138 462.17,578.04 464.368,569.861 466.566,561.6 468.765,553.255 470.963,544.827 473.162,536.313 475.36,527.714 477.558,519.029 479.757,510.256 481.955,501.395 484.153,492.445 486.352,483.404 488.55,474.273 490.748,465.05 492.947,455.734 495.145,446.325 497.343,436.821 499.542,427.221 501.74,417.525 503.938,407.731 506.137,397.838 508.335,387.846 510.534,377.754 512.732,367.56 514.93,357.263 517.129,346.863 519.327,336.358 521.525,325.748 523.724,315.03 525.922,304.205 528.12,293.271 530.319,282.227 532.517,271.072 534.715,259.804 536.914,248.424 539.112,236.928 541.311,225.317 543.509,213.59 545.707,796.399 547.906,790.417 550.104,784.374 552.302,778.271 554.501,772.106 556.699,765.879 558.897,759.59 561.096,753.237 563.294,746.82 565.492,740.339 567.691,733.793 569.889,727.181 572.088,720.502 574.286,713.756 576.484,706.942 578.683,700.06 580.881,693.109 583.079,686.087 585.278,678.995 587.476,671.832 589.674,664.596 591.873,657.288 594.071,649.906 596.269,642.45 598.468,634.919 600.666,627.312 602.865,619.629 605.063,611.868 607.261,604.029 609.46,596.112 611.658,588.114 613.856,580.036 616.055,571.877 618.253,563.636 620.451,555.312 622.65,546.904 624.848,538.411 627.046,529.833 629.245,521.169 631.443,512.418 633.641,503.578 635.84,494.65 638.038,938.343 640.237,933.789 642.435,929.189 644.633,924.542 646.832,919.849 649.03,915.108 651.228,910.32 653.427,905.483 655.625,900.598 657.823,895.664 660.022,890.68 662.22,885.647 664.418,880.562 666.617,875.426 668.815,870.239 671.014,865 673.212,859.708 675.41,854.362 677.609,848.963 679.807,843.51 682.005,838.002 684.204,832.438 686.402,826.818 688.6,821.142 690.799,815.409 692.997,809.618 695.195,803.769 697.394,797.86 699.592,791.893 701.791,785.865 703.989,779.777 706.187,773.628 708.386,767.416 710.584,761.142 712.782,754.805 714.981,748.404 717.179,741.939 719.377,735.408 721.576,728.812 723.774,722.15 725.972,715.42 728.171,708.623 730.369,701.757 732.568,694.822 734.766,687.818 736.964,680.743 739.163,673.597 741.361,666.379 743.559,659.088 745.758,651.724 747.956,644.287 750.154,636.774 752.353,629.186 754.551,621.521 756.749,613.779 758.948,605.959 761.146,598.061 763.344,590.083 765.543,582.025 767.741,573.886 769.94,565.665 772.138,557.362 774.336,548.975 776.535,540.503 778.733,531.946 780.931,523.304 783.13,514.574 785.328,505.756 787.526,496.85 789.725,487.854 791.923,478.768 794.121,469.59 796.32,460.32 798.518,450.956 800.717,441.498 802.915,431.946 805.113,422.297 807.312,412.551 809.51,402.707 811.708,392.764 813.907,382.72 816.105,372.576 818.303,876.692 820.502,871.518 822.7,866.291 824.898,861.012 827.097,855.679 829.295,850.293 831.494,844.853 833.692,839.358 835.89,833.807 838.089,828.201 840.287,822.539 842.485,816.819 844.684,811.042 846.882,805.207 849.08,799.314 851.279,793.361 853.477,787.348 855.675,781.275 857.874,775.14 860.072,768.944 862.271,762.686 864.469,756.365 866.667,749.98 868.866,743.53 871.064,737.016 873.262,730.437 875.461,723.791 877.659,717.079 879.857,710.298 882.056,703.45 884.254,696.533 886.452,689.546 888.651,682.488 890.849,675.36 893.048,668.16 895.246,660.888 897.444,653.542 899.643,646.122 901.841,638.628 904.039,631.058 906.238,623.412 908.436,615.689 910.634,607.889 912.833,600.009 915.031,592.051 917.229,584.012 919.428,575.893 921.626,567.692 923.824,559.409 926.023,551.042 928.221,542.591 930.42,534.055 932.618,525.433 934.816,516.725 937.015,507.929 939.213,499.044 941.411,490.07 943.61,481.006 945.808,471.851 948.006,462.603 950.205,453.263 952.403,443.828 954.601,434.299 956.8,424.674 958.998,414.952 961.197,405.132 963.395,395.213 965.593,385.195 967.792,375.076 969.99,364.855 972.188,354.531 974.387,344.104 976.585,333.571 978.783,322.933 980.982,312.187 983.18,301.334 985.378,290.371 987.577,279.298 989.775,268.114 991.974,256.816 994.172,245.406 996.37,233.88 998.569,222.239 1000.77,210.48 1002.97,198.603 1005.16,186.606 1007.36,174.489 1009.56,162.25 1011.76,149.888 1013.96,137.401 1016.16,124.789 1018.35,112.05 1020.55,99.1823 1022.75,86.1857 1024.95,732.057 1027.15,725.427 1029.35,718.73 1031.54,711.967 1033.74,705.135 1035.94,698.234 1038.14,691.264 1040.34,684.224 1042.54,677.113 1044.73,669.931 1046.93,662.676 1049.13,655.348 1051.33,647.947 1053.53,640.471 1055.73,632.92 1057.92,1008.17 1060.12,1004.32 1062.32,1000.43 1064.52,996.502 1066.72,992.532 1068.92,988.523 1071.11,984.473 1073.31,980.383 1075.51,976.251 1077.71,972.078 1079.91,967.863 1082.11,963.606 1084.3,959.306 1086.5,954.962 1088.7,950.575 1090.9,946.144 1093.1,941.668 1095.3,937.147 1097.49,932.581 1099.69,927.968 1101.89,923.31 1104.09,918.604 1106.29,913.851 1108.49,909.05 1110.68,904.201 1112.88,899.303 1115.08,894.356 1117.28,889.359 1119.48,884.312 1121.68,879.214 1123.87,874.065 1126.07,868.864 1128.27,863.61 1130.47,858.304 1132.67,852.944 1134.87,847.531 1137.07,842.063 1139.26,836.54 1141.46,830.961 1143.66,825.326 1145.86,819.635 1148.06,813.886 1150.26,808.08 1152.45,1096.63 1154.65,1093.67 1156.85,1090.68 1159.05,1087.66 1161.25,1084.61 1163.45,1081.52 1165.64,1078.41 1167.84,1075.26 1170.04,1072.09 1172.24,1068.88 1174.44,1065.64 1176.64,1062.36 1178.83,1059.06 1181.03,1055.72 1183.23,1052.34 1185.43,1048.94 1187.63,1045.49 1189.83,1042.02 1192.02,1038.51 1194.22,1034.96 1196.42,1031.38 1198.62,1027.76 1200.82,1024.1 1203.02,1205.73 1205.21,1203.87 1207.41,1201.99 1209.61,1200.08 1211.81,1198.16 1214.01,1196.22 1216.21,1194.26 1218.4,1192.28 1220.6,1190.28 1222.8,1188.26 1225,1186.22 1227.2,1184.16 1229.4,1182.08 1231.59,1179.98 1233.79,1177.85 1235.99,1175.71 1238.19,1173.54 1240.39,1171.36 1242.59,1169.15 1244.78,1166.91 1246.98,1164.66 1249.18,1162.38 1251.38,1160.08 1253.58,1157.76 1255.78,1155.41 1257.97,1153.04 1260.17,1150.64 1262.37,1148.23 1264.57,1145.78 1266.77,1143.31 1268.97,1140.82 1271.16,1138.3 1273.36,1135.76 1275.56,1133.19 1277.76,1130.6 1279.96,1127.98 1282.16,1125.33 1284.35,1122.66 1286.55,1119.96 1288.75,1117.23 1290.95,1114.48 1293.15,1111.69 1295.35,1108.88 1297.55,1106.05 1299.74,1103.18 1301.94,1100.28 1304.14,1097.36 1306.34,1094.4 1308.54,1091.42 1310.74,1088.4 1312.93,1085.36 1315.13,1082.28 1317.33,1079.18 1319.53,1076.04 1321.73,1072.87 1323.93,1069.67 1326.12,1066.44 1328.32,1063.17 1330.52,1059.87 1332.72,1056.54 1334.92,1053.17 1337.12,1049.78 1339.31,1046.34 1341.51,1042.87 1343.71,1039.37 1345.91,1035.83 1348.11,1032.26 1350.31,1028.65 1352.5,1208.03 1354.7,1206.19 1356.9,1204.33 1359.1,1202.45 1361.3,1200.55 1363.5,1198.64 1365.69,1196.7 1367.89,1194.74 1370.09,1192.77 1372.29,1190.78 1374.49,1188.76 1376.69,1186.73 1378.88,1184.67 1381.08,1182.59 1383.28,1180.5 1385.48,1178.38 1387.68,1176.24 1389.88,1174.08 1392.07,1171.89 1394.27,1169.69 1396.47,1167.46 1398.67,1165.21 1400.87,1162.94 1403.07,1160.65 1405.26,1158.33 1407.46,1155.99 1409.66,1153.62 1411.86,1151.23 1414.06,1148.82 1416.26,1146.38 1418.45,1143.92 1420.65,1141.44 1422.85,1138.93 1425.05,1136.39 1427.25,1133.83 1429.45,1131.24 1431.64,1128.63 1433.84,1125.99 1436.04,1123.32 1438.24,1120.62 1440.44,1117.9 1442.64,1115.16 1444.83,1112.38 1447.03,1109.58 1449.23,1106.75 1451.43,1103.88 1453.63,1101 1455.83,1098.08 1458.03,1095.13 1460.22,1092.15 1462.42,1089.15 1464.62,1086.11 1466.82,1083.04 1469.02,1079.94 1471.22,1076.81 1473.41,1073.65 1475.61,1070.46 1477.81,1067.23 1480.01,1063.97 1482.21,1060.68 1484.41,1057.36 1486.6,1054 1488.8,1050.61 1491,1047.19 1493.2,1043.73 1495.4,1040.23 1497.6,1036.71 1499.79,1033.14 1501.99,1029.54 1504.19,1025.9 1506.39,1022.23 1508.59,1018.52 1510.79,1014.77 1512.98,1010.99 1515.18,1007.16 1517.38,1003.3 1519.58,999.4 1521.78,995.46 1523.98,991.48 1526.17,987.46 1528.37,983.4 1530.57,979.298 1532.77,975.156 1534.97,970.972 1537.17,966.745 1539.36,962.477 1541.56,958.165 1543.76,953.81 1545.96,949.411 1548.16,944.968 1550.36,940.48 1552.55,1163.5 1554.75,1161.21 1556.95,1274.98 1559.15,1332.43 1561.35,1331.84 1563.55,1331.25 1565.74,1330.64 1567.94,1330.04 1570.14,1329.42 1572.34,1328.8 1574.54,1328.18 1576.74,1327.54 1578.93,1326.91 1581.13,1326.26 1583.33,1325.61 1585.53,1324.95 1587.73,1324.28 1589.93,1323.61 1592.12,1322.93 1594.32,1322.25 1596.52,1321.56 1598.72,1320.86 1600.92,1320.15 1603.12,1319.44 1605.31,1318.72 1607.51,1317.99 1609.71,1317.26 1611.91,1316.51 1614.11,1315.76 1616.31,1315.01 1618.5,1314.24 1620.7,1313.47 1622.9,1312.69 1625.1,1311.9 1627.3,1311.1 1629.5,1310.3 1631.7,1309.49 1633.89,1308.66 1636.09,1307.84 1638.29,1307 1640.49,1306.15 1642.69,1305.3 1644.89,1304.44 1647.08,1303.56 1649.28,1302.68 1651.48,1301.8 1653.68,1300.9 1655.88,1299.99 1658.08,1299.07 1660.27,1298.15 1662.47,1297.21 1664.67,1296.27 1666.87,1295.32 1669.07,1294.35 1671.27,1293.38 1673.46,1292.4 1675.66,1291.41 1677.86,1340.73 1680.06,1340.22 1682.26,1339.71 1684.46,1339.19 1686.65,1338.67 1688.85,1338.15 1691.05,1337.61 1693.25,1337.08 1695.45,1336.53 1697.65,1335.98 1699.84,1335.43 1702.04,1334.87 1704.24,1334.31 1706.44,1333.73 1708.64,1333.16 1710.84,1332.58 1713.03,1331.99 1715.23,1331.39 1717.43,1330.79 1719.63,1330.19 1721.83,1329.57 1724.03,1328.96 1726.22,1328.33 1728.42,1327.7 1730.62,1327.06 1732.82,1326.42 1735.02,1325.77 1737.22,1325.11 1739.41,1324.45 1741.61,1323.78 1743.81,1323.1 1746.01,1322.42 1748.21,1321.73 1750.41,1321.03 1752.6,1320.33 1754.8,1319.61 1757,1318.9 1759.2,1318.17 1761.4,1317.44 1763.6,1316.7 1765.79,1315.95 1767.99,1315.19 1770.19,1314.43 1772.39,1313.66 1774.59,1312.88 1776.79,1312.09 1778.98,1311.3 1781.18,1310.5 1783.38,1309.69 1785.58,1308.87 1787.78,1308.04 1789.98,1307.21 1792.18,1306.36 1794.37,1305.51 1796.57,1304.65 1798.77,1303.78 1800.97,1302.9 1803.17,1302.01 1805.37,1301.12 1807.56,1300.21 1809.76,1299.3 1811.96,1298.38 1814.16,1297.44 1816.36,1296.5 1818.56,1295.55 1820.75,1294.59 1822.95,1293.62 1825.15,1292.64 1827.35,1291.65 1829.55,1290.65 1831.75,1289.64 1833.94,1288.62 1836.14,1287.59 1838.34,1286.55 1840.54,1285.5 1842.74,1284.44 1844.94,1283.36 1847.13,1282.28 1849.33,1281.18 1851.53,1280.08 1853.73,1278.96 1855.93,1277.84 1858.13,1276.7 1860.32,1275.55 1862.52,1274.38 1864.72,1273.21 1866.92,1272.02 1869.12,1270.83 1871.32,1269.62 1873.51,1268.4 1875.71,1267.16 1877.91,1265.92 1880.11,1264.66 1882.31,1263.39 1884.51,1262.1 1886.7,1260.8 1888.9,1259.49 1891.1,1258.17 1893.3,1256.83 1895.5,1255.48 1897.7,1254.12 1899.89,1252.74 1902.09,1251.35 1904.29,1249.94 1906.49,1248.52 1908.69,1247.09 1910.89,1245.64 1913.08,1244.18 1915.28,1242.7 1917.48,1241.21 1919.68,1239.7 1921.88,1238.18 1924.08,1236.64 1926.27,1313.07 1928.47,1312.29 1930.67,1311.49 1932.87,1310.69 1935.07,1309.89 1937.27,1309.07 1939.46,1308.24 1941.66,1307.41 1943.86,1306.57 1946.06,1305.72 1948.26,1304.86 1950.46,1303.99 1952.66,1303.12 1954.85,1302.23 1957.05,1301.34 1959.25,1300.44 1961.45,1299.53 1963.65,1298.6 1965.85,1297.67 1968.04,1296.74 1970.24,1295.79 1972.44,1294.83 1974.64,1293.86 1976.84,1292.88 1979.04,1341.47 1981.23,1340.98 1983.43,1340.47 1985.63,1339.96 1987.83,1339.45 1990.03,1338.93 1992.23,1338.41 1994.42,1337.88 1996.62,1337.34 1998.82,1336.8 2001.02,1336.25 2003.22,1335.7 2005.42,1335.15 2007.61,1334.58 2009.81,1334.02 2012.01,1333.44 2014.21,1332.86 2016.41,1332.28 2018.61,1331.69 2020.8,1331.09 2023,1330.49 2025.2,1329.88 2027.4,1329.26 2029.6,1328.64 2031.8,1328.01 2033.99,1327.38 2036.19,1326.74 2038.39,1326.09 2040.59,1325.44 2042.79,1324.78 2044.99,1324.11 2047.18,1357.24 2049.38,1373.98 2051.58,1373.81 2053.78,1373.63 2055.98,1373.46 2058.18,1373.28 2060.37,1373.1 2062.57,1372.92 2064.77,1372.74 2066.97,1372.56 2069.17,1372.37 2071.37,1372.18 2073.56,1371.99 2075.76,1371.8 2077.96,1371.61 2080.16,1371.41 2082.36,1371.21 2084.56,1371.01 2086.75,1370.81 2088.95,1370.61 2091.15,1370.4 2093.35,1370.2 2095.55,1369.99 2097.75,1369.77 2099.94,1369.56 2102.14,1369.34 2104.34,1369.12 2106.54,1368.9 2108.74,1368.68 2110.94,1368.46 2113.14,1368.23 2115.33,1368 2117.53,1367.77 2119.73,1367.53 2121.93,1367.3 2124.13,1367.06 2126.33,1366.82 2128.52,1366.57 2130.72,1366.33 2132.92,1366.08 2135.12,1365.83 2137.32,1365.57 2139.52,1365.32 2141.71,1365.06 2143.91,1364.79 2146.11,1364.53 2148.31,1364.26 2150.51,1363.99 2152.71,1363.72 2154.9,1363.45 2157.1,1363.17 2159.3,1362.89 2161.5,1376.83 2163.7,1376.69 2165.9,1376.54 2168.09,1376.4 2170.29,1376.25 2172.49,1376.1 2174.69,1375.95 2176.89,1375.8 2179.09,1375.64 2181.28,1375.49 2183.48,1375.33 2185.68,1375.17 2187.88,1375.01 2190.08,1374.85 2192.28,1374.69 2194.47,1374.53 2196.67,1374.36 2198.87,1374.19 2201.07,1374.02 2203.27,1373.85 2205.47,1382.37 2207.66,1382.28 2209.86,1382.19 2212.06,1382.1 2214.26,1382.01 2216.46,1381.92 2218.66,1381.83 2220.85,1381.74 2223.05,1381.64 2225.25,1381.55 2227.45,1381.45 2229.65,1381.35 2231.85,1381.26 2234.04,1381.16 2236.24,1381.06 2238.44,1380.96 2240.64,1380.86 2242.84,1380.75 2245.04,1380.65 2247.23,1380.55 2249.43,1380.44 2251.63,1380.33 2253.83,1380.23 2256.03,1380.12 2258.23,1380.01 2260.42,1379.9 2262.62,1379.78 2264.82,1379.67 2267.02,1379.56 2269.22,1379.44 2271.42,1379.32 2273.62,1379.2 2275.81,1379.09 2278.01,1378.96 2280.21,1378.84 2282.41,1378.72 2284.61,1378.6 2286.81,1378.47 2289,1378.34 2291.2,1378.22 2293.4,1378.09 2295.6,1377.96 2297.8,1377.83 2300,1377.69 2302.19,1377.56 2304.39,1384.24 2306.59,1384.17 2308.79,1384.1 2310.99,1384.03 2313.19,1383.96 2315.38,1383.89 2317.58,1383.82 2319.78,1383.74 2321.98,1383.67 2324.18,1383.6 2326.38,1383.52 2328.57,1383.44 2330.77,1383.37 2332.97,1383.29 2335.17,1383.21 2337.37,1383.13 2339.57,1383.05 2341.76,1382.97 2343.96,1382.89 2346.16,1382.81 2348.36,1382.73 2350.56,1382.64 2352.76,1382.56 "/>
<path clip-path="url(#clip780)" d="M1952.25 196.789 L2279.55 196.789 L2279.55 93.1086 L1952.25 93.1086  Z" fill="#ffffff" fill-rule="evenodd" fill-opacity="1"/>
<polyline clip-path="url(#clip780)" style="stroke:#000000; stroke-linecap:round; stroke-linejoin:round; stroke-width:4; stroke-opacity:1; fill:none" points="1952.25,196.789 2279.55,196.789 2279.55,93.1086 1952.25,93.1086 1952.25,196.789 "/>
<polyline clip-path="url(#clip780)" style="stroke:#009af9; stroke-linecap:round; stroke-linejoin:round; stroke-width:8; stroke-opacity:1; fill:none" points="1976.65,144.949 2123.06,144.949 "/>
<path clip-path="url(#clip780)" d="M2147.46 151.997 L2147.46 136.303 L2151.72 136.303 L2151.72 151.835 Q2151.72 155.516 2153.16 157.368 Q2154.59 159.196 2157.46 159.196 Q2160.91 159.196 2162.9 156.997 Q2164.92 154.798 2164.92 151.002 L2164.92 136.303 L2169.18 136.303 L2169.18 162.229 L2164.92 162.229 L2164.92 158.247 Q2163.37 160.608 2161.31 161.766 Q2159.27 162.9 2156.56 162.9 Q2152.09 162.9 2149.78 160.122 Q2147.46 157.344 2147.46 151.997 M2158.18 135.678 L2158.18 135.678 Z" fill="#000000" fill-rule="nonzero" fill-opacity="1" /><path clip-path="url(#clip780)" d="M2179.36 158.293 L2187 158.293 L2187 131.928 L2178.69 133.595 L2178.69 129.335 L2186.95 127.669 L2191.63 127.669 L2191.63 158.293 L2199.27 158.293 L2199.27 162.229 L2179.36 162.229 L2179.36 158.293 Z" fill="#000000" fill-rule="nonzero" fill-opacity="1" /><path clip-path="url(#clip780)" d="M2218.34 126.257 Q2215.24 131.581 2213.74 136.789 Q2212.23 141.997 2212.23 147.344 Q2212.23 152.692 2213.74 157.946 Q2215.26 163.178 2218.34 168.479 L2214.64 168.479 Q2211.17 163.039 2209.43 157.784 Q2207.72 152.53 2207.72 147.344 Q2207.72 142.182 2209.43 136.951 Q2211.14 131.72 2214.64 126.257 L2218.34 126.257 Z" fill="#000000" fill-rule="nonzero" fill-opacity="1" /><path clip-path="url(#clip780)" d="M2230.82 128.942 L2230.82 136.303 L2239.59 136.303 L2239.59 139.613 L2230.82 139.613 L2230.82 153.687 Q2230.82 156.858 2231.68 157.761 Q2232.56 158.664 2235.22 158.664 L2239.59 158.664 L2239.59 162.229 L2235.22 162.229 Q2230.29 162.229 2228.41 160.4 Q2226.54 158.548 2226.54 153.687 L2226.54 139.613 L2223.41 139.613 L2223.41 136.303 L2226.54 136.303 L2226.54 128.942 L2230.82 128.942 Z" fill="#000000" fill-rule="nonzero" fill-opacity="1" /><path clip-path="url(#clip780)" d="M2244.52 126.257 L2248.23 126.257 Q2251.7 131.72 2253.41 136.951 Q2255.15 142.182 2255.15 147.344 Q2255.15 152.53 2253.41 157.784 Q2251.7 163.039 2248.23 168.479 L2244.52 168.479 Q2247.6 163.178 2249.11 157.946 Q2250.64 152.692 2250.64 147.344 Q2250.64 141.997 2249.11 136.789 Q2247.6 131.581 2244.52 126.257 Z" fill="#000000" fill-rule="nonzero" fill-opacity="1" /></svg>
