<?xml version="1.0" encoding="utf-8"?>
<svg xmlns="http://www.w3.org/2000/svg" xmlns:xlink="http://www.w3.org/1999/xlink" width="600" height="400" viewBox="0 0 2400 1600">
<defs>
  <clipPath id="clip840">
    <rect x="0" y="0" width="2400" height="1600"/>
  </clipPath>
</defs>
<path clip-path="url(#clip840)" d="M0 1600 L2400 1600 L2400 0 L0 0  Z" fill="#ffffff" fill-rule="evenodd" fill-opacity="1"/>
<defs>
  <clipPath id="clip841">
    <rect x="480" y="0" width="1681" height="1600"/>
  </clipPath>
</defs>
<path clip-path="url(#clip840)" d="M155.765 1423.18 L2352.76 1423.18 L2352.76 47.2441 L155.765 47.2441  Z" fill="#ffffff" fill-rule="evenodd" fill-opacity="1"/>
<defs>
  <clipPath id="clip842">
    <rect x="155" y="47" width="2198" height="1377"/>
  </clipPath>
</defs>
<polyline clip-path="url(#clip842)" style="stroke:#000000; stroke-linecap:round; stroke-linejoin:round; stroke-width:2; stroke-opacity:0.1; fill:none" points="155.765,1423.18 155.765,47.2441 "/>
<polyline clip-path="url(#clip842)" style="stroke:#000000; stroke-linecap:round; stroke-linejoin:round; stroke-width:2; stroke-opacity:0.1; fill:none" points="595.163,1423.18 595.163,47.2441 "/>
<polyline clip-path="url(#clip842)" style="stroke:#000000; stroke-linecap:round; stroke-linejoin:round; stroke-width:2; stroke-opacity:0.1; fill:none" points="1034.56,1423.18 1034.56,47.2441 "/>
<polyline clip-path="url(#clip842)" style="stroke:#000000; stroke-linecap:round; stroke-linejoin:round; stroke-width:2; stroke-opacity:0.1; fill:none" points="1473.96,1423.18 1473.96,47.2441 "/>
<polyline clip-path="url(#clip842)" style="stroke:#000000; stroke-linecap:round; stroke-linejoin:round; stroke-width:2; stroke-opacity:0.1; fill:none" points="1913.36,1423.18 1913.36,47.2441 "/>
<polyline clip-path="url(#clip842)" style="stroke:#000000; stroke-linecap:round; stroke-linejoin:round; stroke-width:2; stroke-opacity:0.1; fill:none" points="2352.76,1423.18 2352.76,47.2441 "/>
<polyline clip-path="url(#clip840)" style="stroke:#000000; stroke-linecap:round; stroke-linejoin:round; stroke-width:4; stroke-opacity:1; fill:none" points="155.765,1423.18 2352.76,1423.18 "/>
<polyline clip-path="url(#clip840)" style="stroke:#000000; stroke-linecap:round; stroke-linejoin:round; stroke-width:4; stroke-opacity:1; fill:none" points="155.765,1423.18 155.765,1404.28 "/>
<polyline clip-path="url(#clip840)" style="stroke:#000000; stroke-linecap:round; stroke-linejoin:round; stroke-width:4; stroke-opacity:1; fill:none" points="595.163,1423.18 595.163,1404.28 "/>
<polyline clip-path="url(#clip840)" style="stroke:#000000; stroke-linecap:round; stroke-linejoin:round; stroke-width:4; stroke-opacity:1; fill:none" points="1034.56,1423.18 1034.56,1404.28 "/>
<polyline clip-path="url(#clip840)" style="stroke:#000000; stroke-linecap:round; stroke-linejoin:round; stroke-width:4; stroke-opacity:1; fill:none" points="1473.96,1423.18 1473.96,1404.28 "/>
<polyline clip-path="url(#clip840)" style="stroke:#000000; stroke-linecap:round; stroke-linejoin:round; stroke-width:4; stroke-opacity:1; fill:none" points="1913.36,1423.18 1913.36,1404.28 "/>
<polyline clip-path="url(#clip840)" style="stroke:#000000; stroke-linecap:round; stroke-linejoin:round; stroke-width:4; stroke-opacity:1; fill:none" points="2352.76,1423.18 2352.76,1404.28 "/>
<path clip-path="url(#clip840)" d="M155.765 1454.1 Q152.154 1454.1 150.325 1457.66 Q148.52 1461.2 148.52 1468.33 Q148.52 1475.44 150.325 1479.01 Q152.154 1482.55 155.765 1482.55 Q159.399 1482.55 161.205 1479.01 Q163.033 1475.44 163.033 1468.33 Q163.033 1461.2 161.205 1457.66 Q159.399 1454.1 155.765 1454.1 M155.765 1450.39 Q161.575 1450.39 164.631 1455 Q167.709 1459.58 167.709 1468.33 Q167.709 1477.06 164.631 1481.67 Q161.575 1486.25 155.765 1486.25 Q149.955 1486.25 146.876 1481.67 Q143.821 1477.06 143.821 1468.33 Q143.821 1459.58 146.876 1455 Q149.955 1450.39 155.765 1450.39 Z" fill="#000000" fill-rule="nonzero" fill-opacity="1" /><path clip-path="url(#clip840)" d="M589.816 1481.64 L606.135 1481.64 L606.135 1485.58 L584.191 1485.58 L584.191 1481.64 Q586.853 1478.89 591.436 1474.26 Q596.043 1469.61 597.223 1468.27 Q599.469 1465.74 600.348 1464.01 Q601.251 1462.25 601.251 1460.56 Q601.251 1457.8 599.307 1456.07 Q597.385 1454.33 594.283 1454.33 Q592.084 1454.33 589.631 1455.09 Q587.2 1455.86 584.422 1457.41 L584.422 1452.69 Q587.246 1451.55 589.7 1450.97 Q592.154 1450.39 594.191 1450.39 Q599.561 1450.39 602.756 1453.08 Q605.95 1455.77 605.95 1460.26 Q605.95 1462.39 605.14 1464.31 Q604.353 1466.2 602.246 1468.8 Q601.668 1469.47 598.566 1472.69 Q595.464 1475.88 589.816 1481.64 Z" fill="#000000" fill-rule="nonzero" fill-opacity="1" /><path clip-path="url(#clip840)" d="M1037.57 1455.09 L1025.77 1473.54 L1037.57 1473.54 L1037.57 1455.09 M1036.34 1451.02 L1042.22 1451.02 L1042.22 1473.54 L1047.15 1473.54 L1047.15 1477.43 L1042.22 1477.43 L1042.22 1485.58 L1037.57 1485.58 L1037.57 1477.43 L1021.97 1477.43 L1021.97 1472.92 L1036.34 1451.02 Z" fill="#000000" fill-rule="nonzero" fill-opacity="1" /><path clip-path="url(#clip840)" d="M1474.36 1466.44 Q1471.22 1466.44 1469.36 1468.59 Q1467.54 1470.74 1467.54 1474.49 Q1467.54 1478.22 1469.36 1480.39 Q1471.22 1482.55 1474.36 1482.55 Q1477.51 1482.55 1479.34 1480.39 Q1481.19 1478.22 1481.19 1474.49 Q1481.19 1470.74 1479.34 1468.59 Q1477.51 1466.44 1474.36 1466.44 M1483.65 1451.78 L1483.65 1456.04 Q1481.89 1455.21 1480.08 1454.77 Q1478.3 1454.33 1476.54 1454.33 Q1471.91 1454.33 1469.46 1457.45 Q1467.03 1460.58 1466.68 1466.9 Q1468.05 1464.89 1470.11 1463.82 Q1472.17 1462.73 1474.64 1462.73 Q1479.85 1462.73 1482.86 1465.9 Q1485.89 1469.05 1485.89 1474.49 Q1485.89 1479.82 1482.74 1483.03 Q1479.6 1486.25 1474.36 1486.25 Q1468.37 1486.25 1465.2 1481.67 Q1462.03 1477.06 1462.03 1468.33 Q1462.03 1460.14 1465.92 1455.28 Q1469.8 1450.39 1476.36 1450.39 Q1478.11 1450.39 1479.9 1450.74 Q1481.7 1451.09 1483.65 1451.78 Z" fill="#000000" fill-rule="nonzero" fill-opacity="1" /><path clip-path="url(#clip840)" d="M1913.36 1469.17 Q1910.02 1469.17 1908.1 1470.95 Q1906.2 1472.73 1906.2 1475.86 Q1906.2 1478.98 1908.1 1480.77 Q1910.02 1482.55 1913.36 1482.55 Q1916.69 1482.55 1918.61 1480.77 Q1920.53 1478.96 1920.53 1475.86 Q1920.53 1472.73 1918.61 1470.95 Q1916.71 1469.17 1913.36 1469.17 M1908.68 1467.18 Q1905.67 1466.44 1903.98 1464.38 Q1902.32 1462.32 1902.32 1459.35 Q1902.32 1455.21 1905.26 1452.8 Q1908.22 1450.39 1913.36 1450.39 Q1918.52 1450.39 1921.46 1452.8 Q1924.4 1455.21 1924.4 1459.35 Q1924.4 1462.32 1922.71 1464.38 Q1921.04 1466.44 1918.06 1467.18 Q1921.44 1467.96 1923.31 1470.26 Q1925.21 1472.55 1925.21 1475.86 Q1925.21 1480.88 1922.13 1483.57 Q1919.08 1486.25 1913.36 1486.25 Q1907.64 1486.25 1904.56 1483.57 Q1901.51 1480.88 1901.51 1475.86 Q1901.51 1472.55 1903.4 1470.26 Q1905.3 1467.96 1908.68 1467.18 M1906.97 1459.79 Q1906.97 1462.48 1908.64 1463.98 Q1910.33 1465.49 1913.36 1465.49 Q1916.37 1465.49 1918.06 1463.98 Q1919.77 1462.48 1919.77 1459.79 Q1919.77 1457.11 1918.06 1455.6 Q1916.37 1454.1 1913.36 1454.1 Q1910.33 1454.1 1908.64 1455.6 Q1906.97 1457.11 1906.97 1459.79 Z" fill="#000000" fill-rule="nonzero" fill-opacity="1" /><path clip-path="url(#clip840)" d="M2327.44 1481.64 L2335.08 1481.64 L2335.08 1455.28 L2326.77 1456.95 L2326.77 1452.69 L2335.04 1451.02 L2339.71 1451.02 L2339.71 1481.64 L2347.35 1481.64 L2347.35 1485.58 L2327.44 1485.58 L2327.44 1481.64 Z" fill="#000000" fill-rule="nonzero" fill-opacity="1" /><path clip-path="url(#clip840)" d="M2366.8 1454.1 Q2363.18 1454.1 2361.36 1457.66 Q2359.55 1461.2 2359.55 1468.33 Q2359.55 1475.44 2361.36 1479.01 Q2363.18 1482.55 2366.8 1482.55 Q2370.43 1482.55 2372.23 1479.01 Q2374.06 1475.44 2374.06 1468.33 Q2374.06 1461.2 2372.23 1457.66 Q2370.43 1454.1 2366.8 1454.1 M2366.8 1450.39 Q2372.61 1450.39 2375.66 1455 Q2378.74 1459.58 2378.74 1468.33 Q2378.74 1477.06 2375.66 1481.67 Q2372.61 1486.25 2366.8 1486.25 Q2360.99 1486.25 2357.91 1481.67 Q2354.85 1477.06 2354.85 1468.33 Q2354.85 1459.58 2357.91 1455 Q2360.99 1450.39 2366.8 1450.39 Z" fill="#000000" fill-rule="nonzero" fill-opacity="1" /><path clip-path="url(#clip840)" d="M1253.32 1522.27 L1253.32 1532.4 L1265.38 1532.4 L1265.38 1536.95 L1253.32 1536.95 L1253.32 1556.3 Q1253.32 1560.66 1254.5 1561.9 Q1255.71 1563.14 1259.37 1563.14 L1265.38 1563.14 L1265.38 1568.04 L1259.37 1568.04 Q1252.59 1568.04 1250.01 1565.53 Q1247.43 1562.98 1247.43 1556.3 L1247.43 1536.95 L1243.14 1536.95 L1243.14 1532.4 L1247.43 1532.4 L1247.43 1522.27 L1253.32 1522.27 Z" fill="#000000" fill-rule="nonzero" fill-opacity="1" /><polyline clip-path="url(#clip842)" style="stroke:#000000; stroke-linecap:round; stroke-linejoin:round; stroke-width:2; stroke-opacity:0.1; fill:none" points="155.765,1232.62 2352.76,1232.62 "/>
<polyline clip-path="url(#clip842)" style="stroke:#000000; stroke-linecap:round; stroke-linejoin:round; stroke-width:2; stroke-opacity:0.1; fill:none" points="155.765,979.921 2352.76,979.921 "/>
<polyline clip-path="url(#clip842)" style="stroke:#000000; stroke-linecap:round; stroke-linejoin:round; stroke-width:2; stroke-opacity:0.1; fill:none" points="155.765,727.223 2352.76,727.223 "/>
<polyline clip-path="url(#clip842)" style="stroke:#000000; stroke-linecap:round; stroke-linejoin:round; stroke-width:2; stroke-opacity:0.1; fill:none" points="155.765,474.525 2352.76,474.525 "/>
<polyline clip-path="url(#clip842)" style="stroke:#000000; stroke-linecap:round; stroke-linejoin:round; stroke-width:2; stroke-opacity:0.1; fill:none" points="155.765,221.826 2352.76,221.826 "/>
<polyline clip-path="url(#clip840)" style="stroke:#000000; stroke-linecap:round; stroke-linejoin:round; stroke-width:4; stroke-opacity:1; fill:none" points="155.765,1423.18 155.765,47.2441 "/>
<polyline clip-path="url(#clip840)" style="stroke:#000000; stroke-linecap:round; stroke-linejoin:round; stroke-width:4; stroke-opacity:1; fill:none" points="155.765,1232.62 174.663,1232.62 "/>
<polyline clip-path="url(#clip840)" style="stroke:#000000; stroke-linecap:round; stroke-linejoin:round; stroke-width:4; stroke-opacity:1; fill:none" points="155.765,979.921 174.663,979.921 "/>
<polyline clip-path="url(#clip840)" style="stroke:#000000; stroke-linecap:round; stroke-linejoin:round; stroke-width:4; stroke-opacity:1; fill:none" points="155.765,727.223 174.663,727.223 "/>
<polyline clip-path="url(#clip840)" style="stroke:#000000; stroke-linecap:round; stroke-linejoin:round; stroke-width:4; stroke-opacity:1; fill:none" points="155.765,474.525 174.663,474.525 "/>
<polyline clip-path="url(#clip840)" style="stroke:#000000; stroke-linecap:round; stroke-linejoin:round; stroke-width:4; stroke-opacity:1; fill:none" points="155.765,221.826 174.663,221.826 "/>
<path clip-path="url(#clip840)" d="M63.5847 1218.42 Q59.9736 1218.42 58.1449 1221.98 Q56.3393 1225.52 56.3393 1232.65 Q56.3393 1239.76 58.1449 1243.33 Q59.9736 1246.87 63.5847 1246.87 Q67.2189 1246.87 69.0244 1243.33 Q70.8531 1239.76 70.8531 1232.65 Q70.8531 1225.52 69.0244 1221.98 Q67.2189 1218.42 63.5847 1218.42 M63.5847 1214.71 Q69.3948 1214.71 72.4503 1219.32 Q75.529 1223.9 75.529 1232.65 Q75.529 1241.38 72.4503 1245.99 Q69.3948 1250.57 63.5847 1250.57 Q57.7745 1250.57 54.6958 1245.99 Q51.6403 1241.38 51.6403 1232.65 Q51.6403 1223.9 54.6958 1219.32 Q57.7745 1214.71 63.5847 1214.71 Z" fill="#000000" fill-rule="nonzero" fill-opacity="1" /><path clip-path="url(#clip840)" d="M83.7466 1244.02 L88.6308 1244.02 L88.6308 1249.9 L83.7466 1249.9 L83.7466 1244.02 Z" fill="#000000" fill-rule="nonzero" fill-opacity="1" /><path clip-path="url(#clip840)" d="M98.8622 1215.34 L117.219 1215.34 L117.219 1219.27 L103.145 1219.27 L103.145 1227.75 Q104.163 1227.4 105.182 1227.24 Q106.2 1227.05 107.219 1227.05 Q113.006 1227.05 116.385 1230.22 Q119.765 1233.39 119.765 1238.81 Q119.765 1244.39 116.293 1247.49 Q112.82 1250.57 106.501 1250.57 Q104.325 1250.57 102.057 1250.2 Q99.8113 1249.83 97.4039 1249.09 L97.4039 1244.39 Q99.4872 1245.52 101.709 1246.08 Q103.932 1246.64 106.408 1246.64 Q110.413 1246.64 112.751 1244.53 Q115.089 1242.42 115.089 1238.81 Q115.089 1235.2 112.751 1233.09 Q110.413 1230.99 106.408 1230.99 Q104.534 1230.99 102.659 1231.4 Q100.807 1231.82 98.8622 1232.7 L98.8622 1215.34 Z" fill="#000000" fill-rule="nonzero" fill-opacity="1" /><path clip-path="url(#clip840)" d="M53.3995 993.266 L61.0384 993.266 L61.0384 966.9 L52.7282 968.567 L52.7282 964.308 L60.9921 962.641 L65.668 962.641 L65.668 993.266 L73.3068 993.266 L73.3068 997.201 L53.3995 997.201 L53.3995 993.266 Z" fill="#000000" fill-rule="nonzero" fill-opacity="1" /><path clip-path="url(#clip840)" d="M82.7512 991.321 L87.6354 991.321 L87.6354 997.201 L82.7512 997.201 L82.7512 991.321 Z" fill="#000000" fill-rule="nonzero" fill-opacity="1" /><path clip-path="url(#clip840)" d="M107.821 965.72 Q104.209 965.72 102.381 969.285 Q100.575 972.826 100.575 979.956 Q100.575 987.062 102.381 990.627 Q104.209 994.169 107.821 994.169 Q111.455 994.169 113.26 990.627 Q115.089 987.062 115.089 979.956 Q115.089 972.826 113.26 969.285 Q111.455 965.72 107.821 965.72 M107.821 962.016 Q113.631 962.016 116.686 966.623 Q119.765 971.206 119.765 979.956 Q119.765 988.683 116.686 993.289 Q113.631 997.872 107.821 997.872 Q102.01 997.872 98.9317 993.289 Q95.8761 988.683 95.8761 979.956 Q95.8761 971.206 98.9317 966.623 Q102.01 962.016 107.821 962.016 Z" fill="#000000" fill-rule="nonzero" fill-opacity="1" /><path clip-path="url(#clip840)" d="M54.3949 740.568 L62.0337 740.568 L62.0337 714.202 L53.7236 715.869 L53.7236 711.609 L61.9874 709.943 L66.6633 709.943 L66.6633 740.568 L74.3022 740.568 L74.3022 744.503 L54.3949 744.503 L54.3949 740.568 Z" fill="#000000" fill-rule="nonzero" fill-opacity="1" /><path clip-path="url(#clip840)" d="M83.7466 738.623 L88.6308 738.623 L88.6308 744.503 L83.7466 744.503 L83.7466 738.623 Z" fill="#000000" fill-rule="nonzero" fill-opacity="1" /><path clip-path="url(#clip840)" d="M98.8622 709.943 L117.219 709.943 L117.219 713.878 L103.145 713.878 L103.145 722.35 Q104.163 722.003 105.182 721.841 Q106.2 721.656 107.219 721.656 Q113.006 721.656 116.385 724.827 Q119.765 727.998 119.765 733.415 Q119.765 738.994 116.293 742.095 Q112.82 745.174 106.501 745.174 Q104.325 745.174 102.057 744.804 Q99.8113 744.433 97.4039 743.693 L97.4039 738.994 Q99.4872 740.128 101.709 740.683 Q103.932 741.239 106.408 741.239 Q110.413 741.239 112.751 739.132 Q115.089 737.026 115.089 733.415 Q115.089 729.804 112.751 727.697 Q110.413 725.591 106.408 725.591 Q104.534 725.591 102.659 726.008 Q100.807 726.424 98.8622 727.304 L98.8622 709.943 Z" fill="#000000" fill-rule="nonzero" fill-opacity="1" /><path clip-path="url(#clip840)" d="M56.6171 487.869 L72.9365 487.869 L72.9365 491.805 L50.9921 491.805 L50.9921 487.869 Q53.6541 485.115 58.2375 480.485 Q62.8439 475.832 64.0245 474.49 Q66.2698 471.967 67.1494 470.231 Q68.0522 468.471 68.0522 466.782 Q68.0522 464.027 66.1078 462.291 Q64.1865 460.555 61.0847 460.555 Q58.8856 460.555 56.4319 461.319 Q54.0014 462.082 51.2236 463.633 L51.2236 458.911 Q54.0477 457.777 56.5014 457.198 Q58.955 456.62 60.9921 456.62 Q66.3624 456.62 69.5568 459.305 Q72.7513 461.99 72.7513 466.481 Q72.7513 468.61 71.9411 470.531 Q71.1541 472.43 69.0476 475.022 Q68.4689 475.693 65.367 478.911 Q62.2652 482.105 56.6171 487.869 Z" fill="#000000" fill-rule="nonzero" fill-opacity="1" /><path clip-path="url(#clip840)" d="M82.7512 485.925 L87.6354 485.925 L87.6354 491.805 L82.7512 491.805 L82.7512 485.925 Z" fill="#000000" fill-rule="nonzero" fill-opacity="1" /><path clip-path="url(#clip840)" d="M107.821 460.323 Q104.209 460.323 102.381 463.888 Q100.575 467.43 100.575 474.559 Q100.575 481.666 102.381 485.23 Q104.209 488.772 107.821 488.772 Q111.455 488.772 113.26 485.23 Q115.089 481.666 115.089 474.559 Q115.089 467.43 113.26 463.888 Q111.455 460.323 107.821 460.323 M107.821 456.62 Q113.631 456.62 116.686 461.226 Q119.765 465.809 119.765 474.559 Q119.765 483.286 116.686 487.892 Q113.631 492.476 107.821 492.476 Q102.01 492.476 98.9317 487.892 Q95.8761 483.286 95.8761 474.559 Q95.8761 465.809 98.9317 461.226 Q102.01 456.62 107.821 456.62 Z" fill="#000000" fill-rule="nonzero" fill-opacity="1" /><path clip-path="url(#clip840)" d="M57.6125 235.171 L73.9318 235.171 L73.9318 239.106 L51.9875 239.106 L51.9875 235.171 Q54.6495 232.416 59.2328 227.787 Q63.8393 223.134 65.0198 221.792 Q67.2652 219.268 68.1448 217.532 Q69.0476 215.773 69.0476 214.083 Q69.0476 211.329 67.1032 209.593 Q65.1819 207.856 62.08 207.856 Q59.881 207.856 57.4273 208.62 Q54.9967 209.384 52.219 210.935 L52.219 206.213 Q55.043 205.079 57.4967 204.5 Q59.9504 203.921 61.9874 203.921 Q67.3578 203.921 70.5522 206.606 Q73.7466 209.292 73.7466 213.782 Q73.7466 215.912 72.9365 217.833 Q72.1494 219.731 70.0429 222.324 Q69.4642 222.995 66.3624 226.213 Q63.2606 229.407 57.6125 235.171 Z" fill="#000000" fill-rule="nonzero" fill-opacity="1" /><path clip-path="url(#clip840)" d="M83.7466 233.227 L88.6308 233.227 L88.6308 239.106 L83.7466 239.106 L83.7466 233.227 Z" fill="#000000" fill-rule="nonzero" fill-opacity="1" /><path clip-path="url(#clip840)" d="M98.8622 204.546 L117.219 204.546 L117.219 208.481 L103.145 208.481 L103.145 216.954 Q104.163 216.606 105.182 216.444 Q106.2 216.259 107.219 216.259 Q113.006 216.259 116.385 219.43 Q119.765 222.602 119.765 228.018 Q119.765 233.597 116.293 236.699 Q112.82 239.778 106.501 239.778 Q104.325 239.778 102.057 239.407 Q99.8113 239.037 97.4039 238.296 L97.4039 233.597 Q99.4872 234.731 101.709 235.287 Q103.932 235.842 106.408 235.842 Q110.413 235.842 112.751 233.736 Q115.089 231.629 115.089 228.018 Q115.089 224.407 112.751 222.301 Q110.413 220.194 106.408 220.194 Q104.534 220.194 102.659 220.611 Q100.807 221.028 98.8622 221.907 L98.8622 204.546 Z" fill="#000000" fill-rule="nonzero" fill-opacity="1" /><polyline clip-path="url(#clip842)" style="stroke:#009af9; stroke-linecap:round; stroke-linejoin:round; stroke-width:8; stroke-opacity:1; fill:none" points="155.765,1384.24 157.964,1383.22 160.163,1382.19 162.362,1381.16 164.562,1380.11 166.761,1379.05 168.96,1377.98 171.159,1376.9 173.358,1375.81 175.558,1374.71 177.757,1373.6 179.956,1372.47 182.155,1371.34 184.354,1370.19 186.554,1369.03 188.753,1367.86 190.952,1366.68 193.151,1365.49 195.35,1364.28 197.55,1363.06 199.749,1361.83 201.948,1360.59 204.147,1359.34 206.346,1358.07 208.545,1356.79 210.745,1355.5 212.944,1354.19 215.143,1352.87 217.342,1351.54 219.541,1350.19 221.741,1348.83 223.94,1347.46 226.139,1346.07 228.338,1344.67 230.537,1343.26 232.737,1341.83 234.936,1340.39 237.135,1338.93 239.334,1337.45 241.533,1335.97 243.733,1334.46 245.932,1332.95 248.131,1331.41 250.33,1329.87 252.529,1328.3 254.728,1326.72 256.928,1325.13 259.127,1323.52 261.326,1321.89 263.525,1320.24 265.724,1318.58 267.924,1316.91 270.123,1315.21 272.322,1313.5 274.521,1311.77 276.72,1310.03 278.92,1308.26 281.119,1306.48 283.318,1304.68 285.517,1302.86 287.716,1301.03 289.916,1299.17 292.115,1297.3 294.314,1295.41 296.513,1293.5 298.712,1291.57 300.911,1289.62 303.111,1287.65 305.31,1285.66 307.509,1283.66 309.708,1281.63 311.907,1279.58 314.107,1277.51 316.306,1275.42 318.505,1273.3 320.704,1271.17 322.903,1269.02 325.103,1266.84 327.302,1264.64 329.501,1262.42 331.7,1260.18 333.899,1257.92 336.099,1255.63 338.298,1253.32 340.497,1250.98 342.696,1248.63 344.895,1246.25 347.094,1243.84 349.294,1241.41 351.493,1238.96 353.692,1236.48 355.891,1233.98 358.09,1231.45 360.29,1228.89 362.489,1226.31 364.688,1223.71 366.887,1221.08 369.086,1218.42 371.286,1215.73 373.485,1213.02 375.684,1210.28 377.883,1207.51 380.082,1204.72 382.281,1201.9 384.481,1199.04 386.68,1196.16 388.879,1193.26 391.078,1190.32 393.277,1187.35 395.477,1184.35 397.676,1181.32 399.875,1178.27 402.074,1175.18 404.273,1172.06 406.473,1168.91 408.672,1165.72 410.871,1162.51 413.07,1159.26 415.269,1155.98 417.469,1152.67 419.668,1149.32 421.867,1145.94 424.066,1142.52 426.265,1139.08 428.464,1135.59 430.664,1132.07 432.863,1128.52 435.062,1124.93 437.261,1121.31 439.46,1117.64 441.66,1113.94 443.859,1110.21 446.058,1106.43 448.257,1102.62 450.456,1098.77 452.656,1094.88 454.855,1090.96 457.054,1086.99 459.253,1082.98 461.452,1078.94 463.652,1074.85 465.851,1070.72 468.05,1066.55 470.249,1062.33 472.448,1058.08 474.647,1053.78 476.847,1049.44 479.046,1045.05 481.245,1040.63 483.444,1036.15 485.643,1031.63 487.843,1027.07 490.042,1022.46 492.241,1017.8 494.44,1013.1 496.639,1008.35 498.839,1003.55 501.038,998.703 503.237,993.807 505.436,988.862 507.635,983.868 509.835,978.823 512.034,973.727 514.233,968.58 516.432,963.382 518.631,958.131 520.83,952.827 523.03,947.47 525.229,942.059 527.428,936.593 529.627,931.073 531.826,925.497 534.026,919.865 536.225,914.176 538.424,908.43 540.623,902.626 542.822,896.764 545.022,890.843 547.221,884.862 549.42,878.821 551.619,872.72 553.818,866.557 556.018,860.332 558.217,854.045 560.416,847.694 562.615,841.28 564.814,834.801 567.013,828.257 569.213,821.647 571.412,814.971 573.611,808.227 575.81,801.416 578.009,794.536 580.209,787.587 582.408,780.568 584.607,773.479 586.806,766.318 589.005,759.085 591.205,751.779 593.404,744.4 595.603,736.947 597.802,729.418 600.001,721.814 602.201,714.133 604.4,706.375 606.599,698.539 608.798,690.624 610.997,682.629 613.196,674.554 615.396,666.397 617.595,658.159 619.794,649.837 621.993,641.432 624.192,632.942 626.392,624.366 628.591,615.704 630.79,606.955 632.989,598.118 635.188,589.192 637.388,580.176 639.587,571.07 641.786,561.872 643.985,552.581 646.184,543.197 648.384,533.718 650.583,524.145 652.782,514.475 654.981,504.708 657.18,494.842 659.379,484.878 661.579,474.813 663.778,464.647 665.977,454.379 668.176,444.008 670.375,433.532 672.575,422.95 674.774,412.263 676.973,401.467 679.172,390.564 681.371,379.55 683.571,368.426 685.77,921.252 687.969,915.577 690.168,909.846 692.367,904.056 694.567,898.209 696.766,892.302 698.965,886.336 701.164,880.31 703.363,874.224 705.562,868.076 707.762,861.866 709.961,855.594 712.16,849.259 714.359,842.86 716.558,836.397 718.758,829.869 720.957,823.275 723.156,816.614 725.355,809.887 727.554,803.092 729.754,796.229 731.953,789.296 734.152,782.294 736.351,775.221 738.55,1126.7 740.749,1123.09 742.949,1119.45 745.148,1115.77 747.347,1112.05 749.546,1108.29 751.745,1104.5 753.945,1100.67 756.144,1096.8 758.343,1092.89 760.542,1088.94 762.741,1084.95 764.941,1080.93 767.14,1076.86 769.339,1072.75 771.538,1068.6 773.737,1064.41 775.937,1060.17 778.136,1055.9 780.335,1051.58 782.534,1047.21 784.733,1042.81 786.932,1038.35 789.132,1033.86 791.331,1029.32 793.53,1024.73 795.729,1020.1 797.928,1015.42 800.128,1010.69 802.327,1005.91 804.526,1001.09 806.725,996.221 808.924,991.301 811.124,986.331 813.323,981.312 815.522,976.242 817.721,971.12 819.92,965.948 822.12,960.723 824.319,955.445 826.518,950.115 828.717,944.73 830.916,939.292 833.115,933.798 835.315,928.25 837.514,922.645 839.713,916.984 841.912,911.266 844.111,905.491 846.311,899.657 848.51,893.765 850.709,887.813 852.908,881.802 855.107,875.73 857.307,869.597 859.506,863.402 861.705,857.145 863.904,850.825 866.103,844.441 868.303,837.994 870.502,831.481 872.701,824.903 874.9,818.259 877.099,811.548 879.298,804.77 881.498,797.923 883.697,791.007 885.896,784.022 888.095,776.966 890.294,769.839 892.494,762.641 894.693,755.37 896.892,748.027 899.091,740.609 901.29,733.117 903.49,725.55 905.689,717.907 907.888,710.187 910.087,702.389 912.286,694.513 914.486,686.559 916.685,678.524 918.884,670.408 921.083,662.211 923.282,653.932 925.481,645.569 927.681,637.122 929.88,628.591 932.079,619.974 934.278,611.27 936.477,602.478 938.677,593.598 940.876,584.629 943.075,575.57 945.274,566.42 947.473,557.177 949.673,547.841 951.872,538.412 954.071,528.888 956.27,519.267 958.469,509.55 960.669,499.735 962.868,489.821 965.067,479.807 967.266,469.693 969.465,459.476 971.664,449.157 973.864,438.734 976.063,428.205 978.262,417.571 980.461,406.829 982.66,395.979 984.86,385.02 987.059,373.95 989.258,362.768 991.457,351.474 993.656,340.067 995.856,328.544 998.055,316.905 1000.25,305.149 1002.45,293.274 1004.65,281.28 1006.85,269.165 1009.05,256.928 1011.25,244.568 1013.45,232.084 1015.65,219.474 1017.85,206.737 1020.05,193.871 1022.25,180.877 1024.45,167.752 1026.64,154.495 1028.84,141.104 1031.04,127.58 1033.24,113.919 1035.44,100.122 1037.64,86.1857 1039.84,778.717 1042.04,771.608 1044.24,764.428 1046.44,757.176 1048.64,749.85 1050.84,742.451 1053.03,734.978 1055.23,727.429 1057.43,719.804 1059.63,712.103 1061.83,704.324 1064.03,696.467 1066.23,688.531 1068.43,680.516 1070.63,672.419 1072.83,664.241 1075.03,655.981 1077.23,647.638 1079.42,639.211 1081.62,630.699 1083.82,622.101 1086.02,613.417 1088.22,604.645 1090.42,595.786 1092.62,586.837 1094.82,577.798 1097.02,568.668 1099.22,559.446 1101.42,550.131 1103.62,540.723 1105.82,531.22 1108.01,521.622 1110.21,511.926 1112.41,502.134 1114.61,492.243 1116.81,482.252 1119.01,472.161 1121.21,973.661 1123.41,968.513 1125.61,963.314 1127.81,958.062 1130.01,952.758 1132.21,947.4 1134.4,941.989 1136.6,936.523 1138.8,931.002 1141,925.425 1143.2,919.793 1145.4,914.103 1147.6,908.357 1149.8,902.552 1152,896.689 1154.2,890.768 1156.4,884.786 1158.6,878.745 1160.79,872.643 1162.99,1175.9 1165.19,1172.78 1167.39,1169.64 1169.59,1166.46 1171.79,1163.26 1173.99,1160.02 1176.19,1156.74 1178.39,1153.44 1180.59,1150.1 1182.79,1146.73 1184.99,1314.32 1187.19,1312.6 1189.38,1310.86 1191.58,1309.11 1193.78,1307.33 1195.98,1305.54 1198.18,1303.73 1200.38,1301.91 1202.58,1300.06 1204.78,1298.2 1206.98,1296.31 1209.18,1294.41 1211.38,1292.49 1213.58,1290.55 1215.77,1288.59 1217.97,1286.61 1220.17,1284.62 1222.37,1282.6 1224.57,1280.56 1226.77,1278.5 1228.97,1276.42 1231.17,1274.32 1233.37,1272.19 1235.57,1270.05 1237.77,1267.88 1239.97,1265.7 1242.16,1263.49 1244.36,1261.26 1246.56,1259 1248.76,1256.73 1250.96,1254.43 1253.16,1252.1 1255.36,1249.76 1257.56,1247.39 1259.76,1245 1261.96,1242.58 1264.16,1240.14 1266.36,1237.67 1268.56,1235.18 1270.75,1232.66 1272.95,1230.12 1275.15,1227.55 1277.35,1224.96 1279.55,1222.34 1281.75,1219.7 1283.95,1217.02 1286.15,1214.32 1288.35,1211.6 1290.55,1208.84 1292.75,1206.06 1294.95,1203.25 1297.14,1200.42 1299.34,1197.55 1301.54,1194.65 1303.74,1191.73 1305.94,1188.78 1308.14,1185.79 1310.34,1182.78 1312.54,1179.73 1314.74,1176.66 1316.94,1173.55 1319.14,1170.42 1321.34,1167.25 1323.53,1164.05 1325.73,1160.82 1327.93,1157.55 1330.13,1154.25 1332.33,1150.92 1334.53,1147.56 1336.73,1314.74 1338.93,1313.03 1341.13,1311.29 1343.33,1309.54 1345.53,1307.77 1347.73,1305.99 1349.93,1304.18 1352.12,1302.36 1354.32,1300.52 1356.52,1298.66 1358.72,1296.78 1360.92,1294.89 1363.12,1292.97 1365.32,1291.04 1367.52,1289.08 1369.72,1287.11 1371.92,1285.11 1374.12,1283.1 1376.32,1281.06 1378.51,1279.01 1380.71,1276.93 1382.91,1274.84 1385.11,1272.72 1387.31,1270.58 1389.51,1268.42 1391.71,1266.24 1393.91,1264.04 1396.11,1261.81 1398.31,1259.56 1400.51,1257.29 1402.71,1255 1404.9,1252.68 1407.1,1250.34 1409.3,1247.98 1411.5,1245.59 1413.7,1243.18 1415.9,1240.75 1418.1,1238.29 1420.3,1235.8 1422.5,1233.29 1424.7,1230.76 1426.9,1228.2 1429.1,1225.61 1431.3,1223 1433.49,1220.36 1435.69,1217.69 1437.89,1215 1440.09,1212.28 1442.29,1209.54 1444.49,1206.76 1446.69,1203.96 1448.89,1201.13 1451.09,1198.27 1453.29,1195.38 1455.49,1192.47 1457.69,1189.52 1459.88,1186.54 1462.08,1183.54 1464.28,1180.5 1466.48,1177.43 1468.68,1174.34 1470.88,1171.21 1473.08,1168.05 1475.28,1164.85 1477.48,1161.63 1479.68,1158.37 1481.88,1155.08 1484.08,1151.76 1486.27,1148.4 1488.47,1145.01 1490.67,1141.59 1492.87,1138.13 1495.07,1134.64 1497.27,1131.11 1499.47,1127.54 1501.67,1123.94 1503.87,1120.31 1506.07,1116.64 1508.27,1112.93 1510.47,1109.18 1512.67,1105.4 1514.86,1101.57 1517.06,1097.71 1519.26,1093.81 1521.46,1089.88 1523.66,1085.9 1525.86,1081.88 1528.06,1077.82 1530.26,1073.72 1532.46,1069.58 1534.66,1065.4 1536.86,1061.17 1539.06,1056.91 1541.25,1268.96 1543.45,1266.78 1545.65,1264.58 1547.85,1262.36 1550.05,1260.12 1552.25,1257.85 1554.45,1255.56 1556.65,1253.25 1558.85,1250.92 1561.05,1248.56 1563.25,1246.18 1565.45,1243.77 1567.65,1241.34 1569.84,1238.89 1572.04,1236.41 1574.24,1233.9 1576.44,1231.37 1578.64,1228.82 1580.84,1226.24 1583.04,1223.63 1585.24,1221 1587.44,1218.34 1589.64,1215.65 1591.84,1212.94 1594.04,1210.2 1596.23,1207.43 1598.43,1204.64 1600.63,1201.82 1602.83,1198.96 1605.03,1196.08 1607.23,1193.17 1609.43,1190.23 1611.63,1187.26 1613.83,1184.27 1616.03,1181.24 1618.23,1178.18 1620.43,1175.09 1622.62,1171.97 1624.82,1168.82 1627.02,1165.63 1629.22,1162.41 1631.42,1159.17 1633.62,1155.88 1635.82,1152.57 1638.02,1149.22 1640.22,1145.84 1642.42,1142.43 1644.62,1138.98 1646.82,1135.49 1649.02,1131.97 1651.21,1306.88 1653.41,1305.09 1655.61,1303.27 1657.81,1301.44 1660.01,1299.59 1662.21,1297.72 1664.41,1295.84 1666.61,1293.93 1668.81,1292 1671.01,1290.06 1673.21,1288.1 1675.41,1286.11 1677.6,1284.11 1679.8,1282.08 1682,1280.04 1684.2,1277.97 1686.4,1275.89 1688.6,1273.78 1690.8,1271.65 1693,1269.5 1695.2,1267.33 1697.4,1265.14 1699.6,1262.93 1701.8,1260.69 1703.99,1258.43 1706.19,1256.15 1708.39,1253.84 1710.59,1251.51 1712.79,1249.16 1714.99,1246.79 1717.19,1244.39 1719.39,1241.97 1721.59,1239.52 1723.79,1237.05 1725.99,1234.55 1728.19,1232.03 1730.39,1229.48 1732.58,1226.91 1734.78,1224.31 1736.98,1221.68 1739.18,1219.03 1741.38,1216.35 1743.58,1213.65 1745.78,1210.91 1747.98,1208.15 1750.18,1205.37 1752.38,1202.55 1754.58,1199.71 1756.78,1196.83 1758.97,1193.93 1761.17,1191 1763.37,1188.04 1765.57,1185.05 1767.77,1182.03 1769.97,1178.98 1772.17,1175.89 1774.37,1172.78 1776.57,1169.64 1778.77,1166.46 1780.97,1163.25 1783.17,1160.01 1785.36,1156.74 1787.56,1153.43 1789.76,1150.09 1791.96,1146.72 1794.16,1143.31 1796.36,1139.87 1798.56,1136.39 1800.76,1132.88 1802.96,1129.34 1805.16,1125.75 1807.36,1122.14 1809.56,1118.48 1811.76,1114.79 1813.95,1111.06 1816.15,1107.3 1818.35,1103.49 1820.55,1099.65 1822.75,1095.77 1824.95,1091.85 1827.15,1087.89 1829.35,1284.61 1831.55,1282.59 1833.75,1280.55 1835.95,1278.49 1838.15,1276.41 1840.34,1274.31 1842.54,1272.18 1844.74,1270.04 1846.94,1267.87 1849.14,1265.69 1851.34,1263.48 1853.54,1261.24 1855.74,1258.99 1857.94,1256.71 1860.14,1254.41 1862.34,1252.09 1864.54,1249.74 1866.73,1247.37 1868.93,1244.98 1871.13,1242.56 1873.33,1240.12 1875.53,1237.66 1877.73,1235.16 1879.93,1232.65 1882.13,1230.11 1884.33,1227.54 1886.53,1224.95 1888.73,1222.33 1890.93,1219.68 1893.13,1217.01 1895.32,1214.31 1897.52,1211.59 1899.72,1208.84 1901.92,1206.06 1904.12,1203.25 1906.32,1200.41 1908.52,1197.55 1910.72,1194.65 1912.92,1191.73 1915.12,1188.78 1917.32,1185.79 1919.52,1182.78 1921.71,1179.74 1923.91,1176.66 1926.11,1173.56 1928.31,1170.43 1930.51,1167.26 1932.71,1164.06 1934.91,1160.83 1937.11,1157.56 1939.31,1154.27 1941.51,1150.94 1943.71,1147.57 1945.91,1144.18 1948.1,1140.74 1950.3,1137.28 1952.5,1133.78 1954.7,1130.24 1956.9,1126.67 1959.1,1123.06 1961.3,1119.41 1963.5,1115.73 1965.7,1112.01 1967.9,1108.26 1970.1,1104.46 1972.3,1100.63 1974.5,1096.76 1976.69,1092.85 1978.89,1088.9 1981.09,1084.91 1983.29,1080.88 1985.49,1076.81 1987.69,1072.7 1989.89,1068.55 1992.09,1064.35 1994.29,1060.12 1996.49,1055.84 1998.69,1051.52 2000.89,1047.15 2003.08,1042.74 2005.28,1038.29 2007.48,1033.79 2009.68,1029.25 2011.88,1024.66 2014.08,1020.02 2016.28,1015.34 2018.48,1010.61 2020.68,1005.84 2022.88,1001.01 2025.08,996.142 2027.28,991.22 2029.47,986.249 2031.67,981.227 2033.87,976.156 2036.07,971.033 2038.27,965.858 2040.47,960.632 2042.67,955.353 2044.87,950.022 2047.07,944.636 2049.27,939.197 2051.47,933.703 2053.67,928.154 2055.87,922.549 2058.06,916.888 2060.26,911.17 2062.46,905.395 2064.66,899.562 2066.86,893.671 2069.06,887.72 2071.26,881.71 2073.46,875.639 2075.66,869.508 2077.86,863.314 2080.06,857.059 2082.26,850.741 2084.45,844.359 2086.65,837.914 2088.85,831.403 2091.05,824.827 2093.25,818.185 2095.45,811.477 2097.65,804.7 2099.85,797.856 2102.05,790.943 2104.25,783.96 2106.45,776.907 2108.65,769.783 2110.84,762.587 2113.04,755.319 2115.24,747.978 2117.44,740.562 2119.64,733.072 2121.84,725.506 2124.04,717.865 2126.24,710.146 2128.44,702.349 2130.64,694.474 2132.84,686.519 2135.04,678.484 2137.24,670.368 2139.43,662.17 2141.63,653.889 2143.83,645.525 2146.03,637.076 2148.23,628.542 2150.43,619.922 2152.63,611.215 2154.83,602.421 2157.03,593.537 2159.23,584.564 2161.43,575.5 2163.63,566.345 2165.82,557.098 2168.02,547.757 2170.22,538.323 2172.42,528.793 2174.62,519.167 2176.82,509.444 2179.02,499.623 2181.22,489.703 2183.42,479.683 2185.62,469.563 2187.82,459.34 2190.02,449.015 2192.22,438.586 2194.41,428.052 2196.61,417.413 2198.81,406.666 2201.01,395.811 2203.21,384.848 2205.41,373.775 2207.61,362.59 2209.81,351.294 2212.01,339.884 2214.21,328.36 2216.41,901.048 2218.61,895.17 2220.8,889.233 2223,883.236 2225.2,877.179 2227.4,871.061 2229.6,864.881 2231.8,858.639 2234,852.335 2236.2,845.967 2238.4,839.535 2240.6,833.038 2242.8,826.476 2245,819.848 2247.19,813.153 2249.39,806.391 2251.59,799.561 2253.79,792.662 2255.99,785.694 2258.19,778.655 2260.39,771.546 2262.59,764.365 2264.79,1121.22 2266.99,1117.55 2269.19,1113.85 2271.39,1110.12 2273.59,1106.34 2275.78,1102.53 2277.98,1098.68 2280.18,1094.79 2282.38,1090.86 2284.58,1086.89 2286.78,1082.88 2288.98,1078.83 2291.18,1074.74 2293.38,1070.61 2295.58,1066.44 2297.78,1062.23 2299.98,1057.97 2302.17,1053.67 2304.37,1049.33 2306.57,1044.94 2308.77,1040.51 2310.97,1036.04 2313.17,1031.52 2315.37,1026.95 2317.57,1022.34 2319.77,1017.69 2321.97,1012.98 2324.17,1008.23 2326.37,1003.43 2328.56,998.581 2330.76,993.684 2332.96,988.738 2335.16,983.743 2337.36,978.697 2339.56,973.6 2341.76,968.452 2343.96,963.252 2346.16,958 2348.36,952.695 2350.56,947.336 2352.76,941.924 "/>
<path clip-path="url(#clip840)" d="M228.998 196.789 L556.382 196.789 L556.382 93.1086 L228.998 93.1086  Z" fill="#ffffff" fill-rule="evenodd" fill-opacity="1"/>
<polyline clip-path="url(#clip840)" style="stroke:#000000; stroke-linecap:round; stroke-linejoin:round; stroke-width:4; stroke-opacity:1; fill:none" points="228.998,196.789 556.382,196.789 556.382,93.1086 228.998,93.1086 228.998,196.789 "/>
<polyline clip-path="url(#clip840)" style="stroke:#009af9; stroke-linecap:round; stroke-linejoin:round; stroke-width:8; stroke-opacity:1; fill:none" points="253.409,144.949 399.875,144.949 "/>
<path clip-path="url(#clip840)" d="M424.286 151.997 L424.286 136.303 L428.545 136.303 L428.545 151.835 Q428.545 155.516 429.98 157.368 Q431.416 159.196 434.286 159.196 Q437.735 159.196 439.726 156.997 Q441.74 154.798 441.74 151.002 L441.74 136.303 L445.999 136.303 L445.999 162.229 L441.74 162.229 L441.74 158.247 Q440.189 160.608 438.129 161.766 Q436.092 162.9 433.383 162.9 Q428.916 162.9 426.601 160.122 Q424.286 157.344 424.286 151.997 M435.004 135.678 L435.004 135.678 Z" fill="#000000" fill-rule="nonzero" fill-opacity="1" /><path clip-path="url(#clip840)" d="M456.184 158.293 L463.823 158.293 L463.823 131.928 L455.513 133.595 L455.513 129.335 L463.777 127.669 L468.452 127.669 L468.452 158.293 L476.091 158.293 L476.091 162.229 L456.184 162.229 L456.184 158.293 Z" fill="#000000" fill-rule="nonzero" fill-opacity="1" /><path clip-path="url(#clip840)" d="M495.165 126.257 Q492.063 131.581 490.559 136.789 Q489.054 141.997 489.054 147.344 Q489.054 152.692 490.559 157.946 Q492.087 163.178 495.165 168.479 L491.462 168.479 Q487.989 163.039 486.253 157.784 Q484.54 152.53 484.54 147.344 Q484.54 142.182 486.253 136.951 Q487.966 131.72 491.462 126.257 L495.165 126.257 Z" fill="#000000" fill-rule="nonzero" fill-opacity="1" /><path clip-path="url(#clip840)" d="M507.642 128.942 L507.642 136.303 L516.415 136.303 L516.415 139.613 L507.642 139.613 L507.642 153.687 Q507.642 156.858 508.499 157.761 Q509.378 158.664 512.04 158.664 L516.415 158.664 L516.415 162.229 L512.04 162.229 Q507.11 162.229 505.235 160.4 Q503.36 158.548 503.36 153.687 L503.36 139.613 L500.235 139.613 L500.235 136.303 L503.36 136.303 L503.36 128.942 L507.642 128.942 Z" fill="#000000" fill-rule="nonzero" fill-opacity="1" /><path clip-path="url(#clip840)" d="M521.346 126.257 L525.049 126.257 Q528.522 131.72 530.235 136.951 Q531.971 142.182 531.971 147.344 Q531.971 152.53 530.235 157.784 Q528.522 163.039 525.049 168.479 L521.346 168.479 Q524.424 163.178 525.929 157.946 Q527.457 152.692 527.457 147.344 Q527.457 141.997 525.929 136.789 Q524.424 131.581 521.346 126.257 Z" fill="#000000" fill-rule="nonzero" fill-opacity="1" /></svg>
