<?xml version="1.0" encoding="utf-8"?>
<svg xmlns="http://www.w3.org/2000/svg" xmlns:xlink="http://www.w3.org/1999/xlink" width="600" height="400" viewBox="0 0 2400 1600">
<defs>
  <clipPath id="clip290">
    <rect x="0" y="0" width="2400" height="1600"/>
  </clipPath>
</defs>
<path clip-path="url(#clip290)" d="M0 1600 L2400 1600 L2400 0 L0 0  Z" fill="#ffffff" fill-rule="evenodd" fill-opacity="1"/>
<defs>
  <clipPath id="clip291">
    <rect x="480" y="0" width="1681" height="1600"/>
  </clipPath>
</defs>
<path clip-path="url(#clip290)" d="M156.112 1423.18 L2352.76 1423.18 L2352.76 47.2441 L156.112 47.2441  Z" fill="#ffffff" fill-rule="evenodd" fill-opacity="1"/>
<defs>
  <clipPath id="clip292">
    <rect x="156" y="47" width="2198" height="1377"/>
  </clipPath>
</defs>
<polyline clip-path="url(#clip292)" style="stroke:#000000; stroke-linecap:round; stroke-linejoin:round; stroke-width:2; stroke-opacity:0.1; fill:none" points="156.112,1423.18 156.112,47.2441 "/>
<polyline clip-path="url(#clip292)" style="stroke:#000000; stroke-linecap:round; stroke-linejoin:round; stroke-width:2; stroke-opacity:0.1; fill:none" points="595.441,1423.18 595.441,47.2441 "/>
<polyline clip-path="url(#clip292)" style="stroke:#000000; stroke-linecap:round; stroke-linejoin:round; stroke-width:2; stroke-opacity:0.1; fill:none" points="1034.77,1423.18 1034.77,47.2441 "/>
<polyline clip-path="url(#clip292)" style="stroke:#000000; stroke-linecap:round; stroke-linejoin:round; stroke-width:2; stroke-opacity:0.1; fill:none" points="1474.1,1423.18 1474.1,47.2441 "/>
<polyline clip-path="url(#clip292)" style="stroke:#000000; stroke-linecap:round; stroke-linejoin:round; stroke-width:2; stroke-opacity:0.1; fill:none" points="1913.43,1423.18 1913.43,47.2441 "/>
<polyline clip-path="url(#clip292)" style="stroke:#000000; stroke-linecap:round; stroke-linejoin:round; stroke-width:2; stroke-opacity:0.1; fill:none" points="2352.76,1423.18 2352.76,47.2441 "/>
<polyline clip-path="url(#clip292)" style="stroke:#000000; stroke-linecap:round; stroke-linejoin:round; stroke-width:2; stroke-opacity:0.1; fill:none" points="156.112,1406.6 2352.76,1406.6 "/>
<polyline clip-path="url(#clip292)" style="stroke:#000000; stroke-linecap:round; stroke-linejoin:round; stroke-width:2; stroke-opacity:0.1; fill:none" points="156.112,955.283 2352.76,955.283 "/>
<polyline clip-path="url(#clip292)" style="stroke:#000000; stroke-linecap:round; stroke-linejoin:round; stroke-width:2; stroke-opacity:0.1; fill:none" points="156.112,503.964 2352.76,503.964 "/>
<polyline clip-path="url(#clip292)" style="stroke:#000000; stroke-linecap:round; stroke-linejoin:round; stroke-width:2; stroke-opacity:0.1; fill:none" points="156.112,52.6445 2352.76,52.6445 "/>
<polyline clip-path="url(#clip290)" style="stroke:#000000; stroke-linecap:round; stroke-linejoin:round; stroke-width:4; stroke-opacity:1; fill:none" points="156.112,1423.18 2352.76,1423.18 "/>
<polyline clip-path="url(#clip290)" style="stroke:#000000; stroke-linecap:round; stroke-linejoin:round; stroke-width:4; stroke-opacity:1; fill:none" points="156.112,1423.18 156.112,1404.28 "/>
<polyline clip-path="url(#clip290)" style="stroke:#000000; stroke-linecap:round; stroke-linejoin:round; stroke-width:4; stroke-opacity:1; fill:none" points="595.441,1423.18 595.441,1404.28 "/>
<polyline clip-path="url(#clip290)" style="stroke:#000000; stroke-linecap:round; stroke-linejoin:round; stroke-width:4; stroke-opacity:1; fill:none" points="1034.77,1423.18 1034.77,1404.28 "/>
<polyline clip-path="url(#clip290)" style="stroke:#000000; stroke-linecap:round; stroke-linejoin:round; stroke-width:4; stroke-opacity:1; fill:none" points="1474.1,1423.18 1474.1,1404.28 "/>
<polyline clip-path="url(#clip290)" style="stroke:#000000; stroke-linecap:round; stroke-linejoin:round; stroke-width:4; stroke-opacity:1; fill:none" points="1913.43,1423.18 1913.43,1404.28 "/>
<polyline clip-path="url(#clip290)" style="stroke:#000000; stroke-linecap:round; stroke-linejoin:round; stroke-width:4; stroke-opacity:1; fill:none" points="2352.76,1423.18 2352.76,1404.28 "/>
<path clip-path="url(#clip290)" d="M156.112 1454.1 Q152.501 1454.1 150.672 1457.66 Q148.867 1461.2 148.867 1468.33 Q148.867 1475.44 150.672 1479.01 Q152.501 1482.55 156.112 1482.55 Q159.746 1482.55 161.552 1479.01 Q163.381 1475.44 163.381 1468.33 Q163.381 1461.2 161.552 1457.66 Q159.746 1454.1 156.112 1454.1 M156.112 1450.39 Q161.922 1450.39 164.978 1455 Q168.057 1459.58 168.057 1468.33 Q168.057 1477.06 164.978 1481.67 Q161.922 1486.25 156.112 1486.25 Q150.302 1486.25 147.223 1481.67 Q144.168 1477.06 144.168 1468.33 Q144.168 1459.58 147.223 1455 Q150.302 1450.39 156.112 1450.39 Z" fill="#000000" fill-rule="nonzero" fill-opacity="1" /><path clip-path="url(#clip290)" d="M590.094 1481.64 L606.413 1481.64 L606.413 1485.58 L584.469 1485.58 L584.469 1481.64 Q587.131 1478.89 591.714 1474.26 Q596.321 1469.61 597.501 1468.27 Q599.746 1465.74 600.626 1464.01 Q601.529 1462.25 601.529 1460.56 Q601.529 1457.8 599.584 1456.07 Q597.663 1454.33 594.561 1454.33 Q592.362 1454.33 589.909 1455.09 Q587.478 1455.86 584.7 1457.41 L584.7 1452.69 Q587.524 1451.55 589.978 1450.97 Q592.432 1450.39 594.469 1450.39 Q599.839 1450.39 603.033 1453.08 Q606.228 1455.77 606.228 1460.26 Q606.228 1462.39 605.418 1464.31 Q604.631 1466.2 602.524 1468.8 Q601.945 1469.47 598.844 1472.69 Q595.742 1475.88 590.094 1481.64 Z" fill="#000000" fill-rule="nonzero" fill-opacity="1" /><path clip-path="url(#clip290)" d="M1037.78 1455.09 L1025.97 1473.54 L1037.78 1473.54 L1037.78 1455.09 M1036.55 1451.02 L1042.43 1451.02 L1042.43 1473.54 L1047.36 1473.54 L1047.36 1477.43 L1042.43 1477.43 L1042.43 1485.58 L1037.78 1485.58 L1037.78 1477.43 L1022.18 1477.43 L1022.18 1472.92 L1036.55 1451.02 Z" fill="#000000" fill-rule="nonzero" fill-opacity="1" /><path clip-path="url(#clip290)" d="M1474.5 1466.44 Q1471.36 1466.44 1469.5 1468.59 Q1467.67 1470.74 1467.67 1474.49 Q1467.67 1478.22 1469.5 1480.39 Q1471.36 1482.55 1474.5 1482.55 Q1477.65 1482.55 1479.48 1480.39 Q1481.33 1478.22 1481.33 1474.49 Q1481.33 1470.74 1479.48 1468.59 Q1477.65 1466.44 1474.5 1466.44 M1483.79 1451.78 L1483.79 1456.04 Q1482.03 1455.21 1480.22 1454.77 Q1478.44 1454.33 1476.68 1454.33 Q1472.05 1454.33 1469.6 1457.45 Q1467.17 1460.58 1466.82 1466.9 Q1468.18 1464.89 1470.24 1463.82 Q1472.3 1462.73 1474.78 1462.73 Q1479.99 1462.73 1483 1465.9 Q1486.03 1469.05 1486.03 1474.49 Q1486.03 1479.82 1482.88 1483.03 Q1479.73 1486.25 1474.5 1486.25 Q1468.51 1486.25 1465.34 1481.67 Q1462.17 1477.06 1462.17 1468.33 Q1462.17 1460.14 1466.05 1455.28 Q1469.94 1450.39 1476.49 1450.39 Q1478.25 1450.39 1480.04 1450.74 Q1481.84 1451.09 1483.79 1451.78 Z" fill="#000000" fill-rule="nonzero" fill-opacity="1" /><path clip-path="url(#clip290)" d="M1913.43 1469.17 Q1910.09 1469.17 1908.17 1470.95 Q1906.27 1472.73 1906.27 1475.86 Q1906.27 1478.98 1908.17 1480.77 Q1910.09 1482.55 1913.43 1482.55 Q1916.76 1482.55 1918.68 1480.77 Q1920.6 1478.96 1920.6 1475.86 Q1920.6 1472.73 1918.68 1470.95 Q1916.78 1469.17 1913.43 1469.17 M1908.75 1467.18 Q1905.74 1466.44 1904.05 1464.38 Q1902.39 1462.32 1902.39 1459.35 Q1902.39 1455.21 1905.33 1452.8 Q1908.29 1450.39 1913.43 1450.39 Q1918.59 1450.39 1921.53 1452.8 Q1924.47 1455.21 1924.47 1459.35 Q1924.47 1462.32 1922.78 1464.38 Q1921.11 1466.44 1918.13 1467.18 Q1921.51 1467.96 1923.38 1470.26 Q1925.28 1472.55 1925.28 1475.86 Q1925.28 1480.88 1922.2 1483.57 Q1919.14 1486.25 1913.43 1486.25 Q1907.71 1486.25 1904.63 1483.57 Q1901.58 1480.88 1901.58 1475.86 Q1901.58 1472.55 1903.47 1470.26 Q1905.37 1467.96 1908.75 1467.18 M1907.04 1459.79 Q1907.04 1462.48 1908.7 1463.98 Q1910.39 1465.49 1913.43 1465.49 Q1916.44 1465.49 1918.13 1463.98 Q1919.84 1462.48 1919.84 1459.79 Q1919.84 1457.11 1918.13 1455.6 Q1916.44 1454.1 1913.43 1454.1 Q1910.39 1454.1 1908.7 1455.6 Q1907.04 1457.11 1907.04 1459.79 Z" fill="#000000" fill-rule="nonzero" fill-opacity="1" /><path clip-path="url(#clip290)" d="M2327.44 1481.64 L2335.08 1481.64 L2335.08 1455.28 L2326.77 1456.95 L2326.77 1452.69 L2335.04 1451.02 L2339.71 1451.02 L2339.71 1481.64 L2347.35 1481.64 L2347.35 1485.58 L2327.44 1485.58 L2327.44 1481.64 Z" fill="#000000" fill-rule="nonzero" fill-opacity="1" /><path clip-path="url(#clip290)" d="M2366.8 1454.1 Q2363.18 1454.1 2361.36 1457.66 Q2359.55 1461.2 2359.55 1468.33 Q2359.55 1475.44 2361.36 1479.01 Q2363.18 1482.55 2366.8 1482.55 Q2370.43 1482.55 2372.23 1479.01 Q2374.06 1475.44 2374.06 1468.33 Q2374.06 1461.2 2372.23 1457.66 Q2370.43 1454.1 2366.8 1454.1 M2366.8 1450.39 Q2372.61 1450.39 2375.66 1455 Q2378.74 1459.58 2378.74 1468.33 Q2378.74 1477.06 2375.66 1481.67 Q2372.61 1486.25 2366.8 1486.25 Q2360.99 1486.25 2357.91 1481.67 Q2354.85 1477.06 2354.85 1468.33 Q2354.85 1459.58 2357.91 1455 Q2360.99 1450.39 2366.8 1450.39 Z" fill="#000000" fill-rule="nonzero" fill-opacity="1" /><path clip-path="url(#clip290)" d="M1253.5 1522.27 L1253.5 1532.4 L1265.56 1532.4 L1265.56 1536.95 L1253.5 1536.95 L1253.5 1556.3 Q1253.5 1560.66 1254.67 1561.9 Q1255.88 1563.14 1259.54 1563.14 L1265.56 1563.14 L1265.56 1568.04 L1259.54 1568.04 Q1252.76 1568.04 1250.18 1565.53 Q1247.61 1562.98 1247.61 1556.3 L1247.61 1536.95 L1243.31 1536.95 L1243.31 1532.4 L1247.61 1532.4 L1247.61 1522.27 L1253.5 1522.27 Z" fill="#000000" fill-rule="nonzero" fill-opacity="1" /><polyline clip-path="url(#clip290)" style="stroke:#000000; stroke-linecap:round; stroke-linejoin:round; stroke-width:4; stroke-opacity:1; fill:none" points="156.112,1423.18 156.112,47.2441 "/>
<polyline clip-path="url(#clip290)" style="stroke:#000000; stroke-linecap:round; stroke-linejoin:round; stroke-width:4; stroke-opacity:1; fill:none" points="156.112,1406.6 175.01,1406.6 "/>
<polyline clip-path="url(#clip290)" style="stroke:#000000; stroke-linecap:round; stroke-linejoin:round; stroke-width:4; stroke-opacity:1; fill:none" points="156.112,955.283 175.01,955.283 "/>
<polyline clip-path="url(#clip290)" style="stroke:#000000; stroke-linecap:round; stroke-linejoin:round; stroke-width:4; stroke-opacity:1; fill:none" points="156.112,503.964 175.01,503.964 "/>
<polyline clip-path="url(#clip290)" style="stroke:#000000; stroke-linecap:round; stroke-linejoin:round; stroke-width:4; stroke-opacity:1; fill:none" points="156.112,52.6445 175.01,52.6445 "/>
<path clip-path="url(#clip290)" d="M62.9365 1392.4 Q59.3254 1392.4 57.4967 1395.97 Q55.6912 1399.51 55.6912 1406.64 Q55.6912 1413.74 57.4967 1417.31 Q59.3254 1420.85 62.9365 1420.85 Q66.5707 1420.85 68.3763 1417.31 Q70.205 1413.74 70.205 1406.64 Q70.205 1399.51 68.3763 1395.97 Q66.5707 1392.4 62.9365 1392.4 M62.9365 1388.7 Q68.7467 1388.7 71.8022 1393.3 Q74.8809 1397.89 74.8809 1406.64 Q74.8809 1415.36 71.8022 1419.97 Q68.7467 1424.55 62.9365 1424.55 Q57.1264 1424.55 54.0477 1419.97 Q50.9921 1415.36 50.9921 1406.64 Q50.9921 1397.89 54.0477 1393.3 Q57.1264 1388.7 62.9365 1388.7 Z" fill="#000000" fill-rule="nonzero" fill-opacity="1" /><path clip-path="url(#clip290)" d="M83.0984 1418 L87.9827 1418 L87.9827 1423.88 L83.0984 1423.88 L83.0984 1418 Z" fill="#000000" fill-rule="nonzero" fill-opacity="1" /><path clip-path="url(#clip290)" d="M108.168 1392.4 Q104.557 1392.4 102.728 1395.97 Q100.922 1399.51 100.922 1406.64 Q100.922 1413.74 102.728 1417.31 Q104.557 1420.85 108.168 1420.85 Q111.802 1420.85 113.608 1417.31 Q115.436 1413.74 115.436 1406.64 Q115.436 1399.51 113.608 1395.97 Q111.802 1392.4 108.168 1392.4 M108.168 1388.7 Q113.978 1388.7 117.033 1393.3 Q120.112 1397.89 120.112 1406.64 Q120.112 1415.36 117.033 1419.97 Q113.978 1424.55 108.168 1424.55 Q102.358 1424.55 99.2789 1419.97 Q96.2234 1415.36 96.2234 1406.64 Q96.2234 1397.89 99.2789 1393.3 Q102.358 1388.7 108.168 1388.7 Z" fill="#000000" fill-rule="nonzero" fill-opacity="1" /><path clip-path="url(#clip290)" d="M64.1634 941.082 Q60.5523 941.082 58.7236 944.646 Q56.918 948.188 56.918 955.318 Q56.918 962.424 58.7236 965.989 Q60.5523 969.531 64.1634 969.531 Q67.7976 969.531 69.6031 965.989 Q71.4318 962.424 71.4318 955.318 Q71.4318 948.188 69.6031 944.646 Q67.7976 941.082 64.1634 941.082 M64.1634 937.378 Q69.9735 937.378 73.029 941.984 Q76.1077 946.568 76.1077 955.318 Q76.1077 964.044 73.029 968.651 Q69.9735 973.234 64.1634 973.234 Q58.3532 973.234 55.2745 968.651 Q52.219 964.044 52.219 955.318 Q52.219 946.568 55.2745 941.984 Q58.3532 937.378 64.1634 937.378 Z" fill="#000000" fill-rule="nonzero" fill-opacity="1" /><path clip-path="url(#clip290)" d="M84.3253 966.683 L89.2095 966.683 L89.2095 972.563 L84.3253 972.563 L84.3253 966.683 Z" fill="#000000" fill-rule="nonzero" fill-opacity="1" /><path clip-path="url(#clip290)" d="M100.205 968.628 L107.844 968.628 L107.844 942.262 L99.5335 943.929 L99.5335 939.67 L107.797 938.003 L112.473 938.003 L112.473 968.628 L120.112 968.628 L120.112 972.563 L100.205 972.563 L100.205 968.628 Z" fill="#000000" fill-rule="nonzero" fill-opacity="1" /><path clip-path="url(#clip290)" d="M64.5337 489.762 Q60.9226 489.762 59.0939 493.327 Q57.2884 496.869 57.2884 503.998 Q57.2884 511.105 59.0939 514.67 Q60.9226 518.211 64.5337 518.211 Q68.168 518.211 69.9735 514.67 Q71.8022 511.105 71.8022 503.998 Q71.8022 496.869 69.9735 493.327 Q68.168 489.762 64.5337 489.762 M64.5337 486.059 Q70.3439 486.059 73.3994 490.665 Q76.4781 495.248 76.4781 503.998 Q76.4781 512.725 73.3994 517.332 Q70.3439 521.915 64.5337 521.915 Q58.7236 521.915 55.6449 517.332 Q52.5893 512.725 52.5893 503.998 Q52.5893 495.248 55.6449 490.665 Q58.7236 486.059 64.5337 486.059 Z" fill="#000000" fill-rule="nonzero" fill-opacity="1" /><path clip-path="url(#clip290)" d="M84.6956 515.364 L89.5799 515.364 L89.5799 521.244 L84.6956 521.244 L84.6956 515.364 Z" fill="#000000" fill-rule="nonzero" fill-opacity="1" /><path clip-path="url(#clip290)" d="M103.793 517.309 L120.112 517.309 L120.112 521.244 L98.1678 521.244 L98.1678 517.309 Q100.83 514.554 105.413 509.924 Q110.02 505.272 111.2 503.929 Q113.445 501.406 114.325 499.67 Q115.228 497.91 115.228 496.221 Q115.228 493.466 113.283 491.73 Q111.362 489.994 108.26 489.994 Q106.061 489.994 103.608 490.758 Q101.177 491.522 98.3993 493.073 L98.3993 488.35 Q101.223 487.216 103.677 486.637 Q106.131 486.059 108.168 486.059 Q113.538 486.059 116.733 488.744 Q119.927 491.429 119.927 495.92 Q119.927 498.049 119.117 499.971 Q118.33 501.869 116.223 504.461 Q115.645 505.133 112.543 508.35 Q109.441 511.545 103.793 517.309 Z" fill="#000000" fill-rule="nonzero" fill-opacity="1" /><path clip-path="url(#clip290)" d="M63.5847 38.4431 Q59.9736 38.4431 58.1449 42.0079 Q56.3393 45.5496 56.3393 52.6792 Q56.3393 59.7856 58.1449 63.3504 Q59.9736 66.8921 63.5847 66.8921 Q67.2189 66.8921 69.0244 63.3504 Q70.8531 59.7856 70.8531 52.6792 Q70.8531 45.5496 69.0244 42.0079 Q67.2189 38.4431 63.5847 38.4431 M63.5847 34.7395 Q69.3948 34.7395 72.4503 39.3459 Q75.529 43.9292 75.529 52.6792 Q75.529 61.406 72.4503 66.0124 Q69.3948 70.5957 63.5847 70.5957 Q57.7745 70.5957 54.6958 66.0124 Q51.6403 61.406 51.6403 52.6792 Q51.6403 43.9292 54.6958 39.3459 Q57.7745 34.7395 63.5847 34.7395 Z" fill="#000000" fill-rule="nonzero" fill-opacity="1" /><path clip-path="url(#clip290)" d="M83.7466 64.0449 L88.6308 64.0449 L88.6308 69.9245 L83.7466 69.9245 L83.7466 64.0449 Z" fill="#000000" fill-rule="nonzero" fill-opacity="1" /><path clip-path="url(#clip290)" d="M112.983 51.2903 Q116.339 52.0079 118.214 54.2764 Q120.112 56.5449 120.112 59.8782 Q120.112 64.9939 116.594 67.7948 Q113.075 70.5957 106.594 70.5957 Q104.418 70.5957 102.103 70.1559 Q99.8113 69.7393 97.3576 68.8828 L97.3576 64.3689 Q99.3021 65.5032 101.617 66.0819 Q103.932 66.6606 106.455 66.6606 Q110.853 66.6606 113.145 64.9245 Q115.459 63.1884 115.459 59.8782 Q115.459 56.8227 113.307 55.1097 Q111.177 53.3736 107.358 53.3736 L103.33 53.3736 L103.33 49.531 L107.543 49.531 Q110.992 49.531 112.82 48.1653 Q114.649 46.7764 114.649 44.1839 Q114.649 41.5218 112.751 40.1098 Q110.876 38.6746 107.358 38.6746 Q105.436 38.6746 103.237 39.0913 Q101.038 39.508 98.3993 40.3876 L98.3993 36.2209 Q101.061 35.4802 103.376 35.1098 Q105.714 34.7395 107.774 34.7395 Q113.098 34.7395 116.2 37.17 Q119.302 39.5774 119.302 43.6977 Q119.302 46.5681 117.658 48.5588 Q116.015 50.5264 112.983 51.2903 Z" fill="#000000" fill-rule="nonzero" fill-opacity="1" /><polyline clip-path="url(#clip292)" style="stroke:#009af9; stroke-linecap:round; stroke-linejoin:round; stroke-width:8; stroke-opacity:1; fill:none" points="156.112,503.964 158.311,494.883 160.51,485.711 162.709,476.446 164.907,467.089 167.106,457.637 169.305,448.09 171.504,438.447 173.703,428.707 175.902,418.869 178.101,408.933 180.299,398.896 182.498,388.758 184.697,378.518 186.896,368.175 189.095,357.728 191.294,347.176 193.492,336.518 195.691,325.753 197.89,314.879 200.089,303.896 202.288,292.803 204.487,281.598 206.686,270.28 208.884,258.848 211.083,247.301 213.282,235.639 215.481,223.858 217.68,211.96 219.879,199.941 222.077,187.802 224.276,175.54 226.475,163.155 228.674,150.646 230.873,138.011 233.072,125.248 235.27,112.358 237.469,99.3371 239.668,86.1857 241.867,739.752 244.066,733.043 246.265,726.267 248.464,719.423 250.662,712.51 252.861,705.527 255.06,698.474 257.259,691.35 259.458,684.154 261.657,676.886 263.855,669.545 266.054,662.13 268.253,654.64 270.452,647.075 272.651,639.434 274.85,631.717 277.048,623.921 279.247,616.047 281.446,1007.35 283.645,1003.33 285.844,999.274 288.043,995.176 290.242,991.037 292.44,986.857 294.639,982.634 296.838,978.369 299.037,974.061 301.236,969.709 303.435,965.314 305.633,960.874 307.832,956.39 310.031,951.861 312.23,947.286 314.429,942.665 316.628,937.998 318.826,933.284 321.025,928.522 323.224,923.712 325.423,918.854 327.622,913.948 329.821,908.991 332.02,903.985 334.218,898.929 336.417,893.821 338.616,888.663 340.815,883.452 343.014,878.189 345.213,872.873 347.411,867.503 349.61,862.08 351.809,1131.6 354.008,1128.84 356.207,1126.04 358.406,1123.22 360.604,1120.37 362.803,1117.49 365.002,1114.58 367.201,1111.64 369.4,1108.67 371.599,1105.68 373.798,1102.65 375.996,1099.59 378.195,1096.5 380.394,1093.38 382.593,1090.23 384.792,1087.05 386.991,1083.83 389.189,1080.59 391.388,1077.31 393.587,1074 395.786,1238.63 397.985,1236.94 400.184,1235.23 402.382,1233.5 404.581,1231.76 406.78,1230 408.979,1228.23 411.178,1226.43 413.377,1224.62 415.576,1222.79 417.774,1220.94 419.973,1219.07 422.172,1217.19 424.371,1215.28 426.57,1213.36 428.769,1211.41 430.967,1209.45 433.166,1207.46 435.365,1205.46 437.564,1203.44 439.763,1201.39 441.962,1199.33 444.161,1197.24 446.359,1195.14 448.558,1193.01 450.757,1190.86 452.956,1188.69 455.155,1186.5 457.354,1184.29 459.552,1182.05 461.751,1179.79 463.95,1177.51 466.149,1175.2 468.348,1172.87 470.547,1170.52 472.745,1168.15 474.944,1165.75 477.143,1163.33 479.342,1160.88 481.541,1158.41 483.74,1155.91 485.939,1153.39 488.137,1278.72 490.336,1277.43 492.535,1276.14 494.734,1274.82 496.933,1273.5 499.132,1272.16 501.33,1270.81 503.529,1269.44 505.728,1268.06 507.927,1266.67 510.126,1265.26 512.325,1263.84 514.523,1262.4 516.722,1260.95 518.921,1259.48 521.12,1258 523.319,1256.51 525.518,1255 527.717,1253.47 529.915,1251.93 532.114,1250.38 534.313,1248.81 536.512,1247.22 538.711,1245.61 540.91,1243.99 543.108,1242.36 545.307,1240.71 547.506,1239.04 549.705,1237.35 551.904,1235.65 554.103,1233.93 556.301,1232.19 558.5,1230.44 560.699,1228.67 562.898,1316.74 565.097,1315.83 567.296,1314.92 569.495,1314 571.693,1313.07 573.892,1312.13 576.091,1311.18 578.29,1310.22 580.489,1309.25 582.688,1308.27 584.886,1307.28 587.085,1306.28 589.284,1305.27 591.483,1304.25 593.682,1303.22 595.881,1302.18 598.079,1301.13 600.278,1300.07 602.477,1299 604.676,1297.91 606.875,1296.82 609.074,1295.72 611.273,1294.6 613.471,1293.47 615.67,1292.34 617.869,1291.19 620.068,1290.03 622.267,1288.85 624.466,1287.67 626.664,1286.47 628.863,1285.26 631.062,1284.04 633.261,1282.81 635.46,1281.56 637.659,1280.31 639.858,1279.04 642.056,1277.75 644.255,1276.46 646.454,1275.15 648.653,1273.82 650.852,1272.49 653.051,1271.14 655.249,1269.78 657.448,1268.4 659.647,1267.01 661.846,1265.6 664.045,1264.19 666.244,1262.75 668.442,1261.31 670.641,1259.84 672.84,1258.37 675.039,1256.88 677.238,1255.37 679.437,1253.85 681.636,1252.31 683.834,1250.76 686.033,1249.19 688.232,1247.61 690.431,1246.01 692.63,1244.39 694.829,1242.76 697.027,1241.11 699.226,1239.45 701.425,1237.77 703.624,1236.07 705.823,1234.35 708.022,1232.62 710.22,1230.87 712.419,1229.1 714.618,1227.32 716.817,1225.51 719.016,1223.69 721.215,1221.85 723.414,1219.99 725.612,1218.12 727.811,1216.22 730.01,1214.3 732.209,1212.37 734.408,1210.42 736.607,1208.44 738.805,1206.45 741.004,1204.43 743.203,1202.4 745.402,1200.35 747.601,1198.27 749.8,1196.18 751.998,1194.06 754.197,1191.92 756.396,1189.76 758.595,1187.58 760.794,1185.37 762.993,1183.15 765.192,1180.9 767.39,1178.63 769.589,1176.34 771.788,1174.02 773.987,1289.14 776.186,1287.96 778.385,1286.77 780.583,1285.56 782.782,1284.34 784.981,1283.11 787.18,1281.87 789.379,1280.62 791.578,1279.35 793.776,1278.07 795.975,1276.78 798.174,1275.47 800.373,1274.15 802.572,1272.82 804.771,1271.47 806.97,1270.11 809.168,1268.74 811.367,1267.35 813.566,1265.95 815.765,1264.54 817.964,1263.11 820.163,1261.66 822.361,1260.2 824.56,1258.73 826.759,1257.24 828.958,1255.74 831.157,1254.22 833.356,1252.69 835.554,1251.14 837.753,1249.58 839.952,1248 842.151,1246.4 844.35,1244.79 846.549,1243.16 848.748,1241.52 850.946,1239.86 853.145,1238.18 855.344,1236.49 857.543,1234.78 859.742,1233.05 861.941,1231.3 864.139,1229.54 866.338,1227.76 868.537,1225.96 870.736,1224.14 872.935,1222.3 875.134,1220.45 877.333,1218.58 879.531,1216.69 881.73,1214.78 883.929,1212.85 886.128,1210.9 888.327,1208.93 890.526,1206.94 892.724,1204.93 894.923,1202.9 897.122,1200.85 899.321,1198.78 901.52,1196.69 903.719,1194.58 905.917,1192.45 908.116,1298.45 910.315,1297.36 912.514,1296.26 914.713,1295.15 916.912,1294.03 919.111,1292.9 921.309,1291.75 923.508,1290.6 925.707,1289.43 927.906,1288.25 930.105,1287.06 932.304,1285.86 934.502,1284.64 936.701,1283.42 938.9,1282.18 941.099,1280.92 943.298,1279.66 945.497,1278.38 947.695,1277.09 949.894,1275.79 952.093,1274.47 954.292,1273.15 956.491,1271.8 958.69,1270.45 960.889,1269.08 963.087,1267.69 965.286,1266.3 967.485,1264.88 969.684,1263.46 971.883,1262.02 974.082,1260.56 976.28,1259.09 978.479,1257.61 980.678,1256.11 982.877,1254.6 985.076,1253.07 987.275,1251.52 989.473,1249.96 991.672,1248.39 993.871,1246.8 996.07,1245.19 998.269,1243.57 1000.47,1241.92 1002.67,1240.27 1004.87,1238.59 1007.06,1236.9 1009.26,1235.2 1011.46,1233.47 1013.66,1231.73 1015.86,1229.97 1018.06,1228.2 1020.26,1226.4 1022.46,1224.59 1024.65,1222.76 1026.85,1220.91 1029.05,1219.04 1031.25,1217.15 1033.45,1215.25 1035.65,1213.32 1037.85,1211.38 1040.05,1209.41 1042.25,1207.43 1044.44,1205.42 1046.64,1203.4 1048.84,1201.36 1051.04,1199.29 1053.24,1197.21 1055.44,1195.1 1057.64,1192.97 1059.84,1190.82 1062.04,1188.65 1064.23,1186.46 1066.43,1184.24 1068.63,1182.01 1070.83,1179.75 1073.03,1177.47 1075.23,1175.16 1077.43,1172.83 1079.63,1170.48 1081.82,1168.1 1084.02,1165.71 1086.22,1163.28 1088.42,1160.83 1090.62,1158.36 1092.82,1155.86 1095.02,1153.34 1097.22,1150.79 1099.42,1148.22 1101.61,1145.62 1103.81,1143 1106.01,1273.47 1108.21,1272.13 1110.41,1270.78 1112.61,1269.41 1114.81,1337.32 1117.01,1336.62 1119.21,1335.92 1121.4,1335.21 1123.6,1334.49 1125.8,1333.76 1128,1333.03 1130.2,1332.29 1132.4,1331.54 1134.6,1330.79 1136.8,1330.02 1138.99,1329.25 1141.19,1328.48 1143.39,1327.69 1145.59,1326.9 1147.79,1326.09 1149.99,1325.28 1152.19,1324.47 1154.39,1323.64 1156.59,1322.8 1158.78,1321.96 1160.98,1321.11 1163.18,1320.25 1165.38,1319.38 1167.58,1318.5 1169.78,1362.11 1171.98,1361.66 1174.18,1361.21 1176.38,1360.75 1178.57,1360.29 1180.77,1359.83 1182.97,1359.36 1185.17,1358.88 1187.37,1358.4 1189.57,1357.92 1191.77,1357.43 1193.97,1356.93 1196.16,1356.43 1198.36,1355.93 1200.56,1355.42 1202.76,1354.9 1204.96,1354.38 1207.16,1353.86 1209.36,1353.33 1211.56,1352.79 1213.76,1352.25 1215.95,1351.7 1218.15,1351.15 1220.35,1350.59 1222.55,1350.03 1224.75,1349.46 1226.95,1348.88 1229.15,1348.3 1231.35,1347.72 1233.55,1347.12 1235.74,1346.53 1237.94,1345.92 1240.14,1345.31 1242.34,1344.69 1244.54,1344.07 1246.74,1343.44 1248.94,1342.81 1251.14,1342.17 1253.33,1341.52 1255.53,1340.86 1257.73,1340.2 1259.93,1339.53 1262.13,1338.86 1264.33,1338.18 1266.53,1337.49 1268.73,1336.79 1270.93,1336.09 1273.12,1335.38 1275.32,1334.66 1277.52,1333.94 1279.72,1333.21 1281.92,1332.47 1284.12,1331.73 1286.32,1330.97 1288.52,1330.21 1290.71,1329.44 1292.91,1328.67 1295.11,1327.88 1297.31,1327.09 1299.51,1326.29 1301.71,1325.48 1303.91,1324.67 1306.11,1323.84 1308.31,1323.01 1310.5,1322.17 1312.7,1321.32 1314.9,1320.46 1317.1,1319.6 1319.3,1318.72 1321.5,1317.84 1323.7,1316.94 1325.9,1316.04 1328.1,1315.13 1330.29,1314.21 1332.49,1313.28 1334.69,1312.34 1336.89,1311.39 1339.09,1310.44 1341.29,1309.47 1343.49,1308.49 1345.69,1307.5 1347.88,1306.51 1350.08,1305.5 1352.28,1304.48 1354.48,1303.46 1356.68,1302.42 1358.88,1301.37 1361.08,1300.31 1363.28,1299.24 1365.48,1298.16 1367.67,1297.07 1369.87,1295.97 1372.07,1294.86 1374.27,1293.73 1376.47,1292.6 1378.67,1291.45 1380.87,1290.29 1383.07,1289.12 1385.27,1287.94 1387.46,1286.74 1389.66,1285.54 1391.86,1284.32 1394.06,1283.09 1396.26,1281.85 1398.46,1280.59 1400.66,1279.32 1402.86,1278.04 1405.05,1276.75 1407.25,1275.44 1409.45,1274.13 1411.65,1272.79 1413.85,1271.45 1416.05,1270.09 1418.25,1268.71 1420.45,1267.33 1422.65,1265.92 1424.84,1264.51 1427.04,1263.08 1429.24,1261.64 1431.44,1260.18 1433.64,1258.7 1435.84,1257.22 1438.04,1255.71 1440.24,1254.2 1442.44,1329.63 1444.63,1328.86 1446.83,1328.08 1449.03,1327.29 1451.23,1326.49 1453.43,1325.68 1455.63,1324.87 1457.83,1324.05 1460.03,1323.22 1462.22,1322.38 1464.42,1321.53 1466.62,1320.67 1468.82,1319.81 1471.02,1318.94 1473.22,1318.05 1475.42,1317.16 1477.62,1316.26 1479.82,1315.35 1482.01,1314.44 1484.21,1360.06 1486.41,1359.59 1488.61,1359.11 1490.81,1382.62 1493.01,1382.38 1495.21,1382.13 1497.41,1381.89 1499.6,1381.64 1501.8,1381.39 1504,1381.13 1506.2,1380.88 1508.4,1380.62 1510.6,1380.36 1512.8,1380.09 1515,1379.83 1517.2,1379.56 1519.39,1379.29 1521.59,1379.01 1523.79,1378.73 1525.99,1378.45 1528.19,1378.17 1530.39,1377.88 1532.59,1377.6 1534.79,1377.3 1536.99,1377.01 1539.18,1376.71 1541.38,1376.41 1543.58,1376.11 1545.78,1375.8 1547.98,1375.49 1550.18,1375.18 1552.38,1374.86 1554.58,1374.54 1556.77,1374.22 1558.97,1373.89 1561.17,1373.56 1563.37,1373.23 1565.57,1372.9 1567.77,1372.56 1569.97,1372.21 1572.17,1371.87 1574.37,1371.52 1576.56,1371.17 1578.76,1370.81 1580.96,1370.45 1583.16,1370.09 1585.36,1369.72 1587.56,1369.35 1589.76,1368.97 1591.96,1368.59 1594.16,1368.21 1596.35,1367.83 1598.55,1367.44 1600.75,1367.04 1602.95,1366.64 1605.15,1366.24 1607.35,1365.84 1609.55,1365.43 1611.75,1365.01 1613.94,1364.59 1616.14,1364.17 1618.34,1363.74 1620.54,1363.31 1622.74,1362.88 1624.94,1362.44 1627.14,1361.99 1629.34,1361.54 1631.54,1361.09 1633.73,1360.63 1635.93,1360.17 1638.13,1359.7 1640.33,1359.23 1642.53,1358.75 1644.73,1358.27 1646.93,1357.79 1649.13,1357.3 1651.33,1356.8 1653.52,1356.3 1655.72,1355.79 1657.92,1355.28 1660.12,1354.77 1662.32,1354.24 1664.52,1353.72 1666.72,1353.18 1668.92,1379.62 1671.11,1379.35 1673.31,1379.08 1675.51,1378.8 1677.71,1378.52 1679.91,1378.24 1682.11,1377.95 1684.31,1377.67 1686.51,1377.38 1688.71,1377.08 1690.9,1376.78 1693.1,1376.48 1695.3,1376.18 1697.5,1375.88 1699.7,1375.57 1701.9,1375.25 1704.1,1374.94 1706.3,1374.62 1708.5,1374.3 1710.69,1373.97 1712.89,1373.65 1715.09,1373.31 1717.29,1372.98 1719.49,1372.64 1721.69,1372.3 1723.89,1371.95 1726.09,1371.61 1728.28,1371.25 1730.48,1370.9 1732.68,1370.54 1734.88,1370.18 1737.08,1369.81 1739.28,1369.44 1741.48,1369.07 1743.68,1368.69 1745.88,1368.31 1748.07,1367.92 1750.27,1367.53 1752.47,1367.14 1754.67,1366.74 1756.87,1366.34 1759.07,1365.94 1761.27,1365.53 1763.47,1365.11 1765.66,1364.7 1767.86,1364.27 1770.06,1363.85 1772.26,1363.42 1774.46,1362.98 1776.66,1362.54 1778.86,1362.1 1781.06,1361.65 1783.26,1361.2 1785.45,1360.74 1787.65,1360.28 1789.85,1359.82 1792.05,1359.35 1794.25,1358.87 1796.45,1358.39 1798.65,1357.91 1800.85,1357.42 1803.05,1356.92 1805.24,1356.42 1807.44,1355.92 1809.64,1355.41 1811.84,1354.89 1814.04,1354.37 1816.24,1353.85 1818.44,1353.32 1820.64,1352.78 1822.83,1352.24 1825.03,1351.69 1827.23,1351.14 1829.43,1350.58 1831.63,1350.02 1833.83,1349.45 1836.03,1348.87 1838.23,1348.29 1840.43,1347.71 1842.62,1347.11 1844.82,1346.52 1847.02,1345.91 1849.22,1345.3 1851.42,1344.68 1853.62,1344.06 1855.82,1343.43 1858.02,1342.8 1860.22,1342.15 1862.41,1341.51 1864.61,1340.85 1866.81,1340.19 1869.01,1339.52 1871.21,1338.85 1873.41,1338.16 1875.61,1337.48 1877.81,1336.78 1880,1336.08 1882.2,1335.37 1884.4,1334.65 1886.6,1333.93 1888.8,1333.2 1891,1332.46 1893.2,1331.71 1895.4,1330.96 1897.6,1330.2 1899.79,1329.43 1901.99,1328.65 1904.19,1327.87 1906.39,1327.08 1908.59,1326.28 1910.79,1325.47 1912.99,1324.65 1915.19,1323.83 1917.39,1322.99 1919.58,1322.15 1921.78,1321.3 1923.98,1320.45 1926.18,1319.58 1928.38,1318.7 1930.58,1317.82 1932.78,1316.93 1934.98,1316.02 1937.17,1315.11 1939.37,1314.19 1941.57,1313.26 1943.77,1312.32 1945.97,1311.38 1948.17,1310.42 1950.37,1309.45 1952.57,1308.47 1954.77,1307.49 1956.96,1306.49 1959.16,1305.48 1961.36,1304.46 1963.56,1303.44 1965.76,1302.4 1967.96,1301.35 1970.16,1300.29 1972.36,1299.22 1974.55,1298.14 1976.75,1297.05 1978.95,1295.95 1981.15,1294.84 1983.35,1293.71 1985.55,1292.58 1987.75,1291.43 1989.95,1290.27 1992.15,1289.1 1994.34,1287.92 1996.54,1286.72 1998.74,1285.52 2000.94,1284.3 2003.14,1344.83 2005.34,1344.21 2007.54,1343.59 2009.74,1342.95 2011.94,1342.31 2014.13,1341.66 2016.33,1341.01 2018.53,1340.35 2020.73,1373.14 2022.93,1372.81 2025.13,1372.47 2027.33,1372.12 2029.53,1371.78 2031.72,1371.43 2033.92,1371.07 2036.12,1370.72 2038.32,1370.35 2040.52,1369.99 2042.72,1369.62 2044.92,1369.25 2047.12,1368.87 2049.32,1368.49 2051.51,1368.11 2053.71,1367.72 2055.91,1367.33 2058.11,1366.94 2060.31,1366.54 2062.51,1366.13 2064.71,1365.73 2066.91,1365.32 2069.11,1364.9 2071.3,1364.48 2073.5,1364.06 2075.7,1363.63 2077.9,1363.2 2080.1,1362.76 2082.3,1362.32 2084.5,1384.24 2086.7,1384.01 2088.89,1383.79 2091.09,1383.56 2093.29,1383.32 2095.49,1383.09 2097.69,1382.85 2099.89,1382.62 2102.09,1382.37 2104.29,1382.13 2106.49,1381.88 2108.68,1381.64 2110.88,1381.38 2113.08,1381.13 2115.28,1380.87 2117.48,1380.62 2119.68,1380.35 2121.88,1380.09 2124.08,1379.82 2126.28,1379.55 2128.47,1379.28 2130.67,1379.01 2132.87,1378.73 2135.07,1378.45 2137.27,1378.17 2139.47,1377.88 2141.67,1377.59 2143.87,1377.3 2146.06,1377 2148.26,1376.71 2150.46,1376.41 2152.66,1376.1 2154.86,1375.79 2157.06,1375.48 2159.26,1375.17 2161.46,1374.86 2163.66,1374.54 2165.85,1374.21 2168.05,1373.89 2170.25,1373.56 2172.45,1373.23 2174.65,1372.89 2176.85,1372.55 2179.05,1372.21 2181.25,1371.86 2183.45,1371.51 2185.64,1371.16 2187.84,1370.8 2190.04,1370.44 2192.24,1370.08 2194.44,1369.71 2196.64,1369.34 2198.84,1368.97 2201.04,1368.59 2203.23,1368.2 2205.43,1367.82 2207.63,1367.43 2209.83,1367.03 2212.03,1366.64 2214.23,1366.23 2216.43,1365.83 2218.63,1365.42 2220.83,1365 2223.02,1364.59 2225.22,1364.16 2227.42,1363.74 2229.62,1363.3 2231.82,1362.87 2234.02,1362.43 2236.22,1361.98 2238.42,1361.54 2240.61,1361.08 2242.81,1360.62 2245.01,1360.16 2247.21,1359.69 2249.41,1359.22 2251.61,1358.75 2253.81,1358.26 2256.01,1357.78 2258.21,1357.29 2260.4,1356.79 2262.6,1356.29 2264.8,1355.78 2267,1355.27 2269.2,1354.76 2271.4,1354.23 2273.6,1353.71 2275.8,1353.18 2278,1352.64 2280.19,1352.09 2282.39,1351.55 2284.59,1350.99 2286.79,1350.43 2288.99,1349.87 2291.19,1349.3 2293.39,1348.72 2295.59,1348.14 2297.78,1347.55 2299.98,1346.96 2302.18,1346.36 2304.38,1345.75 2306.58,1345.14 2308.78,1344.52 2310.98,1343.89 2313.18,1343.26 2315.38,1342.63 2317.57,1341.98 2319.77,1341.33 2321.97,1340.68 2324.17,1340.01 2326.37,1339.34 2328.57,1338.67 2330.77,1337.98 2332.97,1337.29 2335.17,1336.6 2337.36,1335.89 2339.56,1335.18 2341.76,1334.46 2343.96,1333.74 2346.16,1333 2348.36,1332.26 2350.56,1331.51 2352.76,1330.76 "/>
<path clip-path="url(#clip290)" d="M1970.77 196.789 L2279.53 196.789 L2279.53 93.1086 L1970.77 93.1086  Z" fill="#ffffff" fill-rule="evenodd" fill-opacity="1"/>
<polyline clip-path="url(#clip290)" style="stroke:#000000; stroke-linecap:round; stroke-linejoin:round; stroke-width:4; stroke-opacity:1; fill:none" points="1970.77,196.789 2279.53,196.789 2279.53,93.1086 1970.77,93.1086 1970.77,196.789 "/>
<polyline clip-path="url(#clip290)" style="stroke:#009af9; stroke-linecap:round; stroke-linejoin:round; stroke-width:8; stroke-opacity:1; fill:none" points="1995.18,144.949 2141.62,144.949 "/>
<path clip-path="url(#clip290)" d="M2166.03 151.997 L2166.03 136.303 L2170.29 136.303 L2170.29 151.835 Q2170.29 155.516 2171.72 157.368 Q2173.16 159.196 2176.03 159.196 Q2179.48 159.196 2181.47 156.997 Q2183.48 154.798 2183.48 151.002 L2183.48 136.303 L2187.74 136.303 L2187.74 162.229 L2183.48 162.229 L2183.48 158.247 Q2181.93 160.608 2179.87 161.766 Q2177.84 162.9 2175.13 162.9 Q2170.66 162.9 2168.35 160.122 Q2166.03 157.344 2166.03 151.997 M2176.75 135.678 L2176.75 135.678 Z" fill="#000000" fill-rule="nonzero" fill-opacity="1" /><path clip-path="url(#clip290)" d="M2196.12 126.21 L2205.94 126.21 L2205.94 129.52 L2200.38 129.52 L2200.38 165.168 L2205.94 165.168 L2205.94 168.479 L2196.12 168.479 L2196.12 126.21 Z" fill="#000000" fill-rule="nonzero" fill-opacity="1" /><path clip-path="url(#clip290)" d="M2216.42 158.293 L2224.06 158.293 L2224.06 131.928 L2215.75 133.595 L2215.75 129.335 L2224.02 127.669 L2228.69 127.669 L2228.69 158.293 L2236.33 158.293 L2236.33 162.229 L2216.42 162.229 L2216.42 158.293 Z" fill="#000000" fill-rule="nonzero" fill-opacity="1" /><path clip-path="url(#clip290)" d="M2255.13 126.21 L2255.13 168.479 L2245.31 168.479 L2245.31 165.168 L2250.84 165.168 L2250.84 129.52 L2245.31 129.52 L2245.31 126.21 L2255.13 126.21 Z" fill="#000000" fill-rule="nonzero" fill-opacity="1" /></svg>
