<?xml version="1.0" encoding="utf-8"?>
<svg xmlns="http://www.w3.org/2000/svg" xmlns:xlink="http://www.w3.org/1999/xlink" width="600" height="400" viewBox="0 0 2400 1600">
<defs>
  <clipPath id="clip680">
    <rect x="0" y="0" width="2400" height="1600"/>
  </clipPath>
</defs>
<path clip-path="url(#clip680)" d="M0 1600 L2400 1600 L2400 0 L0 0  Z" fill="#ffffff" fill-rule="evenodd" fill-opacity="1"/>
<defs>
  <clipPath id="clip681">
    <rect x="480" y="0" width="1681" height="1600"/>
  </clipPath>
</defs>
<path clip-path="url(#clip680)" d="M149.191 1423.18 L2352.76 1423.18 L2352.76 47.2441 L149.191 47.2441  Z" fill="#ffffff" fill-rule="evenodd" fill-opacity="1"/>
<defs>
  <clipPath id="clip682">
    <rect x="149" y="47" width="2205" height="1377"/>
  </clipPath>
</defs>
<polyline clip-path="url(#clip682)" style="stroke:#000000; stroke-linecap:round; stroke-linejoin:round; stroke-width:2; stroke-opacity:0.1; fill:none" points="149.191,1423.18 149.191,47.2441 "/>
<polyline clip-path="url(#clip682)" style="stroke:#000000; stroke-linecap:round; stroke-linejoin:round; stroke-width:2; stroke-opacity:0.1; fill:none" points="589.904,1423.18 589.904,47.2441 "/>
<polyline clip-path="url(#clip682)" style="stroke:#000000; stroke-linecap:round; stroke-linejoin:round; stroke-width:2; stroke-opacity:0.1; fill:none" points="1030.62,1423.18 1030.62,47.2441 "/>
<polyline clip-path="url(#clip682)" style="stroke:#000000; stroke-linecap:round; stroke-linejoin:round; stroke-width:2; stroke-opacity:0.1; fill:none" points="1471.33,1423.18 1471.33,47.2441 "/>
<polyline clip-path="url(#clip682)" style="stroke:#000000; stroke-linecap:round; stroke-linejoin:round; stroke-width:2; stroke-opacity:0.1; fill:none" points="1912.04,1423.18 1912.04,47.2441 "/>
<polyline clip-path="url(#clip682)" style="stroke:#000000; stroke-linecap:round; stroke-linejoin:round; stroke-width:2; stroke-opacity:0.1; fill:none" points="2352.76,1423.18 2352.76,47.2441 "/>
<polyline clip-path="url(#clip682)" style="stroke:#000000; stroke-linecap:round; stroke-linejoin:round; stroke-width:2; stroke-opacity:0.1; fill:none" points="149.191,1187.52 2352.76,1187.52 "/>
<polyline clip-path="url(#clip682)" style="stroke:#000000; stroke-linecap:round; stroke-linejoin:round; stroke-width:2; stroke-opacity:0.1; fill:none" points="149.191,933.828 2352.76,933.828 "/>
<polyline clip-path="url(#clip682)" style="stroke:#000000; stroke-linecap:round; stroke-linejoin:round; stroke-width:2; stroke-opacity:0.1; fill:none" points="149.191,680.137 2352.76,680.137 "/>
<polyline clip-path="url(#clip682)" style="stroke:#000000; stroke-linecap:round; stroke-linejoin:round; stroke-width:2; stroke-opacity:0.1; fill:none" points="149.191,426.447 2352.76,426.447 "/>
<polyline clip-path="url(#clip682)" style="stroke:#000000; stroke-linecap:round; stroke-linejoin:round; stroke-width:2; stroke-opacity:0.1; fill:none" points="149.191,172.756 2352.76,172.756 "/>
<polyline clip-path="url(#clip680)" style="stroke:#000000; stroke-linecap:round; stroke-linejoin:round; stroke-width:4; stroke-opacity:1; fill:none" points="149.191,1423.18 2352.76,1423.18 "/>
<polyline clip-path="url(#clip680)" style="stroke:#000000; stroke-linecap:round; stroke-linejoin:round; stroke-width:4; stroke-opacity:1; fill:none" points="149.191,1423.18 149.191,1404.28 "/>
<polyline clip-path="url(#clip680)" style="stroke:#000000; stroke-linecap:round; stroke-linejoin:round; stroke-width:4; stroke-opacity:1; fill:none" points="589.904,1423.18 589.904,1404.28 "/>
<polyline clip-path="url(#clip680)" style="stroke:#000000; stroke-linecap:round; stroke-linejoin:round; stroke-width:4; stroke-opacity:1; fill:none" points="1030.62,1423.18 1030.62,1404.28 "/>
<polyline clip-path="url(#clip680)" style="stroke:#000000; stroke-linecap:round; stroke-linejoin:round; stroke-width:4; stroke-opacity:1; fill:none" points="1471.33,1423.18 1471.33,1404.28 "/>
<polyline clip-path="url(#clip680)" style="stroke:#000000; stroke-linecap:round; stroke-linejoin:round; stroke-width:4; stroke-opacity:1; fill:none" points="1912.04,1423.18 1912.04,1404.28 "/>
<polyline clip-path="url(#clip680)" style="stroke:#000000; stroke-linecap:round; stroke-linejoin:round; stroke-width:4; stroke-opacity:1; fill:none" points="2352.76,1423.18 2352.76,1404.28 "/>
<path clip-path="url(#clip680)" d="M149.191 1454.1 Q145.58 1454.1 143.751 1457.66 Q141.946 1461.2 141.946 1468.33 Q141.946 1475.44 143.751 1479.01 Q145.58 1482.55 149.191 1482.55 Q152.825 1482.55 154.631 1479.01 Q156.459 1475.44 156.459 1468.33 Q156.459 1461.2 154.631 1457.66 Q152.825 1454.1 149.191 1454.1 M149.191 1450.39 Q155.001 1450.39 158.057 1455 Q161.135 1459.58 161.135 1468.33 Q161.135 1477.06 158.057 1481.67 Q155.001 1486.25 149.191 1486.25 Q143.381 1486.25 140.302 1481.67 Q137.246 1477.06 137.246 1468.33 Q137.246 1459.58 140.302 1455 Q143.381 1450.39 149.191 1450.39 Z" fill="#000000" fill-rule="nonzero" fill-opacity="1" /><path clip-path="url(#clip680)" d="M584.557 1481.64 L600.876 1481.64 L600.876 1485.58 L578.932 1485.58 L578.932 1481.64 Q581.594 1478.89 586.177 1474.26 Q590.783 1469.61 591.964 1468.27 Q594.209 1465.74 595.089 1464.01 Q595.992 1462.25 595.992 1460.56 Q595.992 1457.8 594.047 1456.07 Q592.126 1454.33 589.024 1454.33 Q586.825 1454.33 584.371 1455.09 Q581.941 1455.86 579.163 1457.41 L579.163 1452.69 Q581.987 1451.55 584.441 1450.97 Q586.895 1450.39 588.932 1450.39 Q594.302 1450.39 597.496 1453.08 Q600.691 1455.77 600.691 1460.26 Q600.691 1462.39 599.881 1464.31 Q599.094 1466.2 596.987 1468.8 Q596.408 1469.47 593.307 1472.69 Q590.205 1475.88 584.557 1481.64 Z" fill="#000000" fill-rule="nonzero" fill-opacity="1" /><path clip-path="url(#clip680)" d="M1033.63 1455.09 L1021.82 1473.54 L1033.63 1473.54 L1033.63 1455.09 M1032.4 1451.02 L1038.28 1451.02 L1038.28 1473.54 L1043.21 1473.54 L1043.21 1477.43 L1038.28 1477.43 L1038.28 1485.58 L1033.63 1485.58 L1033.63 1477.43 L1018.02 1477.43 L1018.02 1472.92 L1032.4 1451.02 Z" fill="#000000" fill-rule="nonzero" fill-opacity="1" /><path clip-path="url(#clip680)" d="M1471.73 1466.44 Q1468.59 1466.44 1466.74 1468.59 Q1464.91 1470.74 1464.91 1474.49 Q1464.91 1478.22 1466.74 1480.39 Q1468.59 1482.55 1471.73 1482.55 Q1474.88 1482.55 1476.71 1480.39 Q1478.56 1478.22 1478.56 1474.49 Q1478.56 1470.74 1476.71 1468.59 Q1474.88 1466.44 1471.73 1466.44 M1481.02 1451.78 L1481.02 1456.04 Q1479.26 1455.21 1477.45 1454.77 Q1475.67 1454.33 1473.91 1454.33 Q1469.28 1454.33 1466.83 1457.45 Q1464.4 1460.58 1464.05 1466.9 Q1465.42 1464.89 1467.48 1463.82 Q1469.54 1462.73 1472.01 1462.73 Q1477.22 1462.73 1480.23 1465.9 Q1483.26 1469.05 1483.26 1474.49 Q1483.26 1479.82 1480.11 1483.03 Q1476.97 1486.25 1471.73 1486.25 Q1465.74 1486.25 1462.57 1481.67 Q1459.4 1477.06 1459.4 1468.33 Q1459.4 1460.14 1463.29 1455.28 Q1467.17 1450.39 1473.73 1450.39 Q1475.48 1450.39 1477.27 1450.74 Q1479.07 1451.09 1481.02 1451.78 Z" fill="#000000" fill-rule="nonzero" fill-opacity="1" /><path clip-path="url(#clip680)" d="M1912.04 1469.17 Q1908.71 1469.17 1906.79 1470.95 Q1904.89 1472.73 1904.89 1475.86 Q1904.89 1478.98 1906.79 1480.77 Q1908.71 1482.55 1912.04 1482.55 Q1915.38 1482.55 1917.3 1480.77 Q1919.22 1478.96 1919.22 1475.86 Q1919.22 1472.73 1917.3 1470.95 Q1915.4 1469.17 1912.04 1469.17 M1907.37 1467.18 Q1904.36 1466.44 1902.67 1464.38 Q1901 1462.32 1901 1459.35 Q1901 1455.21 1903.94 1452.8 Q1906.9 1450.39 1912.04 1450.39 Q1917.2 1450.39 1920.14 1452.8 Q1923.08 1455.21 1923.08 1459.35 Q1923.08 1462.32 1921.39 1464.38 Q1919.73 1466.44 1916.74 1467.18 Q1920.12 1467.96 1922 1470.26 Q1923.89 1472.55 1923.89 1475.86 Q1923.89 1480.88 1920.82 1483.57 Q1917.76 1486.25 1912.04 1486.25 Q1906.33 1486.25 1903.25 1483.57 Q1900.19 1480.88 1900.19 1475.86 Q1900.19 1472.55 1902.09 1470.26 Q1903.99 1467.96 1907.37 1467.18 M1905.65 1459.79 Q1905.65 1462.48 1907.32 1463.98 Q1909.01 1465.49 1912.04 1465.49 Q1915.05 1465.49 1916.74 1463.98 Q1918.45 1462.48 1918.45 1459.79 Q1918.45 1457.11 1916.74 1455.6 Q1915.05 1454.1 1912.04 1454.1 Q1909.01 1454.1 1907.32 1455.6 Q1905.65 1457.11 1905.65 1459.79 Z" fill="#000000" fill-rule="nonzero" fill-opacity="1" /><path clip-path="url(#clip680)" d="M2327.44 1481.64 L2335.08 1481.64 L2335.08 1455.28 L2326.77 1456.95 L2326.77 1452.69 L2335.04 1451.02 L2339.71 1451.02 L2339.71 1481.64 L2347.35 1481.64 L2347.35 1485.58 L2327.44 1485.58 L2327.44 1481.64 Z" fill="#000000" fill-rule="nonzero" fill-opacity="1" /><path clip-path="url(#clip680)" d="M2366.8 1454.1 Q2363.18 1454.1 2361.36 1457.66 Q2359.55 1461.2 2359.55 1468.33 Q2359.55 1475.44 2361.36 1479.01 Q2363.18 1482.55 2366.8 1482.55 Q2370.43 1482.55 2372.23 1479.01 Q2374.06 1475.44 2374.06 1468.33 Q2374.06 1461.2 2372.23 1457.66 Q2370.43 1454.1 2366.8 1454.1 M2366.8 1450.39 Q2372.61 1450.39 2375.66 1455 Q2378.74 1459.58 2378.74 1468.33 Q2378.74 1477.06 2375.66 1481.67 Q2372.61 1486.25 2366.8 1486.25 Q2360.99 1486.25 2357.91 1481.67 Q2354.85 1477.06 2354.85 1468.33 Q2354.85 1459.58 2357.91 1455 Q2360.99 1450.39 2366.8 1450.39 Z" fill="#000000" fill-rule="nonzero" fill-opacity="1" /><path clip-path="url(#clip680)" d="M1250.03 1522.27 L1250.03 1532.4 L1262.1 1532.4 L1262.1 1536.95 L1250.03 1536.95 L1250.03 1556.3 Q1250.03 1560.66 1251.21 1561.9 Q1252.42 1563.14 1256.08 1563.14 L1262.1 1563.14 L1262.1 1568.04 L1256.08 1568.04 Q1249.3 1568.04 1246.72 1565.53 Q1244.15 1562.98 1244.15 1556.3 L1244.15 1536.95 L1239.85 1536.95 L1239.85 1532.4 L1244.15 1532.4 L1244.15 1522.27 L1250.03 1522.27 Z" fill="#000000" fill-rule="nonzero" fill-opacity="1" /><polyline clip-path="url(#clip680)" style="stroke:#000000; stroke-linecap:round; stroke-linejoin:round; stroke-width:4; stroke-opacity:1; fill:none" points="149.191,1423.18 149.191,47.2441 "/>
<polyline clip-path="url(#clip680)" style="stroke:#000000; stroke-linecap:round; stroke-linejoin:round; stroke-width:4; stroke-opacity:1; fill:none" points="149.191,1187.52 168.089,1187.52 "/>
<polyline clip-path="url(#clip680)" style="stroke:#000000; stroke-linecap:round; stroke-linejoin:round; stroke-width:4; stroke-opacity:1; fill:none" points="149.191,933.828 168.089,933.828 "/>
<polyline clip-path="url(#clip680)" style="stroke:#000000; stroke-linecap:round; stroke-linejoin:round; stroke-width:4; stroke-opacity:1; fill:none" points="149.191,680.137 168.089,680.137 "/>
<polyline clip-path="url(#clip680)" style="stroke:#000000; stroke-linecap:round; stroke-linejoin:round; stroke-width:4; stroke-opacity:1; fill:none" points="149.191,426.447 168.089,426.447 "/>
<polyline clip-path="url(#clip680)" style="stroke:#000000; stroke-linecap:round; stroke-linejoin:round; stroke-width:4; stroke-opacity:1; fill:none" points="149.191,172.756 168.089,172.756 "/>
<path clip-path="url(#clip680)" d="M50.9921 1187.97 L80.6679 1187.97 L80.6679 1191.9 L50.9921 1191.9 L50.9921 1187.97 Z" fill="#000000" fill-rule="nonzero" fill-opacity="1" /><path clip-path="url(#clip680)" d="M103.608 1174.31 L91.8021 1192.76 L103.608 1192.76 L103.608 1174.31 M102.381 1170.24 L108.26 1170.24 L108.26 1192.76 L113.191 1192.76 L113.191 1196.65 L108.26 1196.65 L108.26 1204.8 L103.608 1204.8 L103.608 1196.65 L88.0058 1196.65 L88.0058 1192.14 L102.381 1170.24 Z" fill="#000000" fill-rule="nonzero" fill-opacity="1" /><path clip-path="url(#clip680)" d="M53.0754 934.279 L82.7512 934.279 L82.7512 938.214 L53.0754 938.214 L53.0754 934.279 Z" fill="#000000" fill-rule="nonzero" fill-opacity="1" /><path clip-path="url(#clip680)" d="M96.8715 947.173 L113.191 947.173 L113.191 951.108 L91.2465 951.108 L91.2465 947.173 Q93.9086 944.418 98.4919 939.788 Q103.098 935.136 104.279 933.793 Q106.524 931.27 107.404 929.534 Q108.307 927.775 108.307 926.085 Q108.307 923.33 106.362 921.594 Q104.441 919.858 101.339 919.858 Q99.14 919.858 96.6863 920.622 Q94.2558 921.386 91.478 922.937 L91.478 918.214 Q94.3021 917.08 96.7558 916.502 Q99.2095 915.923 101.246 915.923 Q106.617 915.923 109.811 918.608 Q113.006 921.293 113.006 925.784 Q113.006 927.914 112.196 929.835 Q111.408 931.733 109.302 934.326 Q108.723 934.997 105.621 938.214 Q102.52 941.409 96.8715 947.173 Z" fill="#000000" fill-rule="nonzero" fill-opacity="1" /><path clip-path="url(#clip680)" d="M101.246 665.936 Q97.6354 665.936 95.8067 669.501 Q94.0012 673.042 94.0012 680.172 Q94.0012 687.279 95.8067 690.843 Q97.6354 694.385 101.246 694.385 Q104.881 694.385 106.686 690.843 Q108.515 687.279 108.515 680.172 Q108.515 673.042 106.686 669.501 Q104.881 665.936 101.246 665.936 M101.246 662.232 Q107.057 662.232 110.112 666.839 Q113.191 671.422 113.191 680.172 Q113.191 688.899 110.112 693.505 Q107.057 698.089 101.246 698.089 Q95.4363 698.089 92.3576 693.505 Q89.3021 688.899 89.3021 680.172 Q89.3021 671.422 92.3576 666.839 Q95.4363 662.232 101.246 662.232 Z" fill="#000000" fill-rule="nonzero" fill-opacity="1" /><path clip-path="url(#clip680)" d="M96.8715 439.792 L113.191 439.792 L113.191 443.727 L91.2465 443.727 L91.2465 439.792 Q93.9086 437.037 98.4919 432.407 Q103.098 427.755 104.279 426.412 Q106.524 423.889 107.404 422.153 Q108.307 420.394 108.307 418.704 Q108.307 415.949 106.362 414.213 Q104.441 412.477 101.339 412.477 Q99.14 412.477 96.6863 413.241 Q94.2558 414.005 91.478 415.556 L91.478 410.834 Q94.3021 409.699 96.7558 409.121 Q99.2095 408.542 101.246 408.542 Q106.617 408.542 109.811 411.227 Q113.006 413.912 113.006 418.403 Q113.006 420.533 112.196 422.454 Q111.408 424.352 109.302 426.945 Q108.723 427.616 105.621 430.833 Q102.52 434.028 96.8715 439.792 Z" fill="#000000" fill-rule="nonzero" fill-opacity="1" /><path clip-path="url(#clip680)" d="M103.608 159.55 L91.8021 177.999 L103.608 177.999 L103.608 159.55 M102.381 155.476 L108.26 155.476 L108.26 177.999 L113.191 177.999 L113.191 181.888 L108.26 181.888 L108.26 190.036 L103.608 190.036 L103.608 181.888 L88.0058 181.888 L88.0058 177.374 L102.381 155.476 Z" fill="#000000" fill-rule="nonzero" fill-opacity="1" /><polyline clip-path="url(#clip682)" style="stroke:#009af9; stroke-linecap:round; stroke-linejoin:round; stroke-width:8; stroke-opacity:1; fill:none" points="149.191,654.768 151.397,654.513 153.602,654.255 155.808,653.995 158.014,653.732 160.22,653.466 162.425,653.198 164.631,652.927 166.837,652.653 169.043,652.377 171.249,652.097 173.454,651.815 175.66,651.53 177.866,651.243 180.072,650.952 182.277,650.658 184.483,650.362 186.689,650.062 188.895,649.76 191.101,649.454 193.306,649.145 195.512,648.834 197.718,648.519 199.924,648.201 202.129,647.879 204.335,647.555 206.541,647.227 208.747,646.896 210.952,646.561 213.158,646.224 215.364,645.882 217.57,645.538 219.776,645.19 221.981,644.838 224.187,644.483 226.393,644.124 228.599,643.762 230.804,643.396 233.01,643.026 235.216,642.653 237.422,642.276 239.627,641.895 241.833,641.51 244.039,641.122 246.245,640.729 248.451,640.333 250.656,639.932 252.862,639.528 255.068,639.119 257.274,638.707 259.479,638.29 261.685,637.869 263.891,637.444 266.097,637.014 268.302,636.58 270.508,636.142 272.714,635.7 274.92,635.253 277.126,634.801 279.331,634.345 281.537,633.884 283.743,633.419 285.949,632.949 288.154,632.474 290.36,631.995 292.566,631.51 294.772,631.021 296.978,630.527 299.183,630.028 301.389,629.524 303.595,629.015 305.801,628.5 308.006,627.981 310.212,627.456 312.418,626.926 314.624,626.391 316.829,625.85 319.035,625.304 321.241,624.752 323.447,624.195 325.653,623.632 327.858,623.064 330.064,622.49 332.27,621.91 334.476,621.324 336.681,620.732 338.887,620.135 341.093,619.531 343.299,618.921 345.504,618.305 347.71,617.683 349.916,617.055 352.122,616.42 354.328,615.779 356.533,615.132 358.739,614.478 360.945,613.817 363.151,613.15 365.356,612.476 367.562,611.796 369.768,611.108 371.974,610.414 374.179,609.712 376.385,609.004 378.591,608.288 380.797,607.565 383.003,606.835 385.208,606.098 387.414,605.353 389.62,604.601 391.826,603.841 394.031,603.073 396.237,602.298 398.443,601.515 400.649,600.724 402.855,599.925 405.06,599.118 407.266,598.303 409.472,597.479 411.678,596.648 413.883,595.808 416.089,594.959 418.295,594.103 420.501,593.237 422.706,592.363 424.912,591.48 427.118,590.588 429.324,589.687 431.53,588.777 433.735,587.858 435.941,586.93 438.147,585.992 440.353,585.045 442.558,584.088 444.764,583.122 446.97,582.146 449.176,581.16 451.381,580.164 453.587,579.159 455.793,578.143 457.999,577.117 460.205,576.08 462.41,575.034 464.616,573.976 466.822,572.908 469.028,571.83 471.233,570.74 473.439,569.639 475.645,568.528 477.851,567.405 480.056,566.271 482.262,565.125 484.468,563.968 486.674,562.8 488.88,561.619 491.085,560.427 493.291,559.222 495.497,558.006 497.703,556.777 499.908,555.536 502.114,554.283 504.32,553.016 506.526,551.737 508.732,550.446 510.937,549.141 513.143,547.823 515.349,546.492 517.555,545.147 519.76,543.789 521.966,542.418 524.172,541.032 526.378,539.633 528.583,538.219 530.789,536.791 532.995,535.349 535.201,533.893 537.407,532.421 539.612,530.935 541.818,529.434 544.024,527.918 546.23,526.387 548.435,524.84 550.641,523.278 552.847,521.7 555.053,520.106 557.258,518.496 559.464,516.87 561.67,515.227 563.876,513.568 566.082,511.892 568.287,510.2 570.493,508.49 572.699,506.763 574.905,592.579 577.11,591.698 579.316,590.808 581.522,589.909 583.728,589.002 585.933,588.085 588.139,587.159 590.345,586.223 592.551,585.278 594.757,584.324 596.962,583.36 599.168,582.386 601.374,581.403 603.58,580.41 605.785,579.407 607.991,578.393 610.197,577.37 612.403,576.336 614.609,575.292 616.814,574.237 619.02,573.172 621.226,572.095 623.432,571.009 625.637,569.911 627.843,568.802 630.049,567.682 632.255,566.551 634.46,565.408 636.666,564.254 638.872,563.088 641.078,561.911 643.284,560.721 645.489,559.52 647.695,558.307 649.901,557.081 652.107,555.843 654.312,554.592 656.518,553.329 658.724,552.054 660.93,550.765 663.135,549.464 665.341,548.149 667.547,546.821 669.753,545.48 671.959,544.125 674.164,542.757 676.37,541.375 678.576,539.978 680.782,538.568 682.987,537.144 685.193,535.705 687.399,534.252 689.605,532.785 691.81,531.302 694.016,529.805 696.222,528.292 698.428,526.765 700.634,525.222 702.839,523.663 705.045,522.089 707.251,520.499 709.457,518.893 711.662,517.271 713.868,515.632 716.074,513.977 718.28,512.305 720.486,510.617 722.691,508.911 724.897,507.189 727.103,505.449 729.309,503.692 731.514,501.917 733.72,500.124 735.926,498.313 738.132,496.484 740.337,494.636 742.543,492.77 744.749,490.886 746.955,488.982 749.161,487.059 751.366,485.117 753.572,483.156 755.778,481.174 757.984,479.173 760.189,477.152 762.395,475.11 764.601,473.048 766.807,470.965 769.012,468.861 771.218,466.736 773.424,464.589 775.63,462.421 777.836,460.231 780.041,458.019 782.247,455.785 784.453,453.528 786.659,451.248 788.864,448.946 791.07,446.62 793.276,444.271 795.482,441.898 797.687,439.502 799.893,437.081 802.099,434.636 804.305,432.166 806.511,429.671 808.716,427.151 810.922,424.606 813.128,422.035 815.334,419.438 817.539,416.815 819.745,414.166 821.951,411.49 824.157,408.787 826.363,406.057 828.568,403.299 830.774,400.513 832.98,397.7 835.186,394.858 837.391,391.987 839.597,389.088 841.803,386.16 844.009,383.202 846.214,380.214 848.42,377.196 850.626,374.148 852.832,371.07 855.038,367.96 857.243,364.82 859.449,361.647 861.655,358.443 863.861,355.207 866.066,351.938 868.272,348.636 870.478,345.301 872.684,341.933 874.889,338.53 877.095,335.094 879.301,331.622 881.507,328.116 883.713,324.575 885.918,320.998 888.124,317.385 890.33,313.735 892.536,310.049 894.741,306.326 896.947,302.565 899.153,298.767 901.359,487.534 903.564,485.596 905.77,483.639 907.976,481.662 910.182,479.665 912.388,477.648 914.593,475.611 916.799,473.554 919.005,471.475 921.211,469.376 923.416,467.256 925.622,465.114 927.828,462.951 930.034,460.766 932.24,458.559 934.445,456.33 936.651,567.108 938.857,565.97 941.063,564.822 943.268,563.662 945.474,562.49 947.68,561.306 949.886,560.111 952.091,558.903 954.297,557.683 956.503,556.451 958.709,555.207 960.915,553.95 963.12,552.681 965.326,551.399 967.532,550.103 969.738,548.795 971.943,547.474 974.149,546.139 976.355,544.792 978.561,543.43 980.766,542.055 982.972,540.666 985.178,539.263 987.384,537.846 989.59,536.415 991.795,534.969 994.001,533.509 996.207,532.034 998.413,530.544 1000.62,529.039 1002.82,527.52 1005.03,525.984 1007.24,524.434 1009.44,522.868 1011.65,521.286 1013.85,519.688 1016.06,518.074 1018.26,516.444 1020.47,514.797 1022.68,513.134 1024.88,511.454 1027.09,509.757 1029.29,508.043 1031.5,506.312 1033.7,504.563 1035.91,502.797 1038.12,501.013 1040.32,499.211 1042.53,497.39 1044.73,495.552 1046.94,493.695 1049.15,491.819 1051.35,489.924 1053.56,488.01 1055.76,486.077 1057.97,484.125 1060.17,482.153 1062.38,480.161 1064.59,478.149 1066.79,476.116 1069,474.063 1071.2,471.99 1073.41,469.896 1075.61,467.78 1077.82,465.644 1080.03,463.486 1082.23,461.306 1084.44,459.104 1086.64,456.88 1088.85,454.634 1091.06,452.365 1093.26,450.074 1095.47,447.759 1097.67,445.422 1099.88,443.06 1102.08,440.675 1104.29,438.266 1106.5,435.833 1108.7,433.375 1110.91,430.893 1113.11,428.385 1115.32,425.852 1117.52,423.294 1119.73,420.71 1121.94,418.1 1124.14,415.464 1126.35,412.802 1128.55,410.112 1130.76,407.396 1132.96,404.652 1135.17,401.88 1137.38,399.081 1139.58,396.254 1141.79,393.398 1143.99,390.513 1146.2,387.599 1148.41,384.656 1150.61,381.684 1152.82,378.681 1155.02,375.648 1157.23,372.585 1159.43,369.491 1161.64,366.366 1163.85,363.209 1166.05,360.021 1168.26,518.474 1170.46,516.848 1172.67,515.205 1174.87,513.545 1177.08,511.869 1179.29,510.176 1181.49,508.466 1183.7,506.739 1185.9,504.994 1188.11,503.232 1190.31,501.453 1192.52,499.655 1194.73,497.839 1196.93,496.005 1199.14,494.153 1201.34,492.282 1203.55,490.392 1205.76,488.484 1207.96,486.556 1210.17,484.608 1212.37,482.642 1214.58,480.655 1216.78,478.649 1218.99,476.622 1221.2,474.575 1223.4,472.508 1225.61,470.419 1227.81,468.31 1230.02,466.18 1232.22,464.028 1234.43,461.854 1236.64,459.659 1238.84,457.442 1241.05,455.202 1243.25,452.94 1245.46,450.655 1247.66,448.347 1249.87,446.015 1252.08,443.661 1254.28,441.282 1256.49,438.88 1258.69,436.453 1260.9,434.002 1263.11,431.527 1265.31,429.026 1267.52,426.5 1269.72,423.949 1271.93,421.372 1274.13,418.769 1276.34,416.14 1278.55,413.484 1280.75,410.801 1282.96,408.092 1285.16,405.355 1287.37,402.591 1289.57,399.798 1291.78,396.978 1293.99,394.129 1296.19,391.251 1298.4,388.344 1300.6,385.408 1302.81,382.443 1305.01,379.447 1307.22,376.422 1309.43,373.366 1311.63,370.279 1313.84,367.161 1316.04,364.011 1318.25,360.83 1320.46,357.617 1322.66,354.371 1324.87,351.093 1327.07,347.782 1329.28,344.438 1331.48,341.06 1333.69,337.648 1335.9,334.202 1338.1,330.721 1340.31,327.205 1342.51,323.654 1344.72,320.068 1346.92,316.445 1349.13,312.786 1351.34,309.091 1353.54,305.358 1355.75,301.587 1357.95,297.779 1360.16,293.932 1362.36,290.047 1364.57,286.122 1366.78,282.158 1368.98,278.155 1371.19,274.111 1373.39,270.026 1375.6,265.9 1377.81,261.733 1380.01,257.524 1382.22,253.272 1384.42,248.978 1386.63,244.64 1388.83,240.259 1391.04,235.834 1393.25,231.364 1395.45,226.85 1397.66,222.29 1399.86,217.684 1402.07,213.031 1404.27,208.332 1406.48,203.586 1408.69,198.792 1410.89,193.95 1413.1,189.058 1415.3,184.118 1417.51,179.128 1419.71,174.088 1421.92,168.997 1424.13,163.854 1426.33,158.66 1428.54,153.414 1430.74,148.115 1432.95,142.763 1435.16,137.356 1437.36,131.896 1439.57,126.38 1441.77,120.809 1443.98,115.182 1446.18,109.498 1448.39,103.757 1450.6,97.9585 1452.8,92.1015 1455.01,86.1857 1457.21,380.208 1459.42,377.191 1461.62,374.143 1463.83,371.065 1466.04,367.955 1468.24,364.815 1470.45,361.643 1472.65,358.438 1474.86,355.202 1477.06,351.933 1479.27,348.631 1481.48,345.296 1483.68,341.928 1485.89,509.331 1488.09,507.613 1490.3,505.877 1492.51,504.124 1494.71,502.353 1496.92,500.565 1499.12,498.758 1501.33,496.933 1503.53,495.09 1505.74,493.229 1507.95,491.348 1510.15,489.449 1512.36,487.531 1514.56,485.593 1516.77,483.636 1518.97,481.659 1521.18,479.662 1523.39,477.645 1525.59,577.873 1527.8,576.844 1530,575.805 1532.21,574.755 1534.41,573.695 1536.62,572.624 1538.83,571.543 1541.03,570.45 1543.24,569.347 1545.44,568.232 1547.65,567.106 1549.86,565.969 1552.06,564.821 1554.27,621.899 1556.47,621.313 1558.68,620.721 1560.88,620.123 1563.09,619.52 1565.3,618.91 1567.5,618.294 1569.71,617.672 1571.91,617.043 1574.12,616.409 1576.32,615.767 1578.53,615.12 1580.74,614.466 1582.94,613.805 1585.15,613.138 1587.35,612.464 1589.56,611.783 1591.76,611.095 1593.97,610.401 1596.18,609.699 1598.38,608.991 1600.59,608.275 1602.79,607.552 1605,606.822 1607.21,606.084 1609.41,605.339 1611.62,604.587 1613.82,603.826 1616.03,603.059 1618.23,602.283 1620.44,601.5 1622.65,640.423 1624.85,640.024 1627.06,639.62 1629.26,639.212 1631.47,638.801 1633.67,638.385 1635.88,637.965 1638.09,637.541 1640.29,637.112 1642.5,636.679 1644.7,636.242 1646.91,635.8 1649.12,635.354 1651.32,634.904 1653.53,634.449 1655.73,633.989 1657.94,633.525 1660.14,633.056 1662.35,632.582 1664.56,632.104 1666.76,631.621 1668.97,631.133 1671.17,630.64 1673.38,630.142 1675.58,629.639 1677.79,629.131 1680,628.617 1682.2,628.099 1684.41,627.576 1686.61,627.047 1688.82,626.513 1691.02,625.973 1693.23,625.428 1695.44,624.878 1697.64,624.322 1699.85,623.761 1702.05,623.193 1704.26,622.62 1706.47,622.042 1708.67,621.457 1710.88,620.867 1713.08,620.271 1715.29,619.668 1717.49,619.06 1719.7,618.446 1721.91,617.825 1724.11,617.198 1726.32,616.565 1728.52,615.925 1730.73,615.279 1732.93,614.627 1735.14,613.968 1737.35,613.302 1739.55,612.63 1741.76,611.951 1743.96,611.265 1746.17,610.572 1748.37,609.872 1750.58,609.165 1752.79,608.451 1754.99,607.73 1757.2,607.002 1759.4,606.266 1761.61,605.523 1763.82,604.772 1766.02,604.014 1768.23,603.248 1770.43,602.475 1772.64,601.693 1774.84,600.904 1777.05,600.107 1779.26,599.302 1781.46,598.489 1783.67,597.667 1785.87,596.837 1788.08,595.999 1790.28,595.153 1792.49,594.298 1794.7,593.434 1796.9,592.562 1799.11,591.681 1801.31,590.791 1803.52,589.892 1805.72,588.984 1807.93,588.067 1810.14,587.141 1812.34,586.206 1814.55,585.261 1816.75,584.306 1818.96,583.342 1821.17,582.368 1823.37,581.385 1825.58,580.391 1827.78,579.388 1829.99,578.374 1832.19,577.35 1834.4,576.316 1836.61,575.272 1838.81,574.217 1841.02,573.151 1843.22,572.075 1845.43,570.988 1847.63,569.89 1849.84,568.781 1852.05,567.66 1854.25,566.529 1856.46,565.386 1858.66,564.231 1860.87,563.065 1863.07,561.888 1865.28,560.698 1867.49,559.496 1869.69,558.283 1871.9,618.597 1874.1,617.978 1876.31,617.353 1878.52,616.721 1880.72,616.083 1882.93,615.439 1885.13,614.788 1887.34,614.13 1889.54,613.466 1891.75,612.795 1893.96,612.118 1896.16,611.434 1898.37,610.742 1900.57,610.044 1902.78,609.339 1904.98,608.627 1907.19,607.908 1909.4,607.181 1911.6,606.447 1913.81,605.706 1916.01,604.957 1918.22,604.201 1920.42,603.437 1922.63,602.665 1924.84,601.886 1927.04,601.098 1929.25,600.303 1931.45,599.5 1933.66,598.689 1935.87,597.87 1938.07,597.042 1940.28,596.206 1942.48,595.362 1944.69,594.509 1946.89,593.647 1949.1,592.777 1951.31,591.898 1953.51,591.011 1955.72,590.114 1957.92,589.208 1960.13,588.294 1962.33,587.37 1964.54,586.436 1966.75,585.494 1968.95,584.541 1971.16,583.58 1973.36,582.608 1975.57,581.627 1977.77,580.636 1979.98,579.635 1982.19,578.624 1984.39,577.603 1986.6,576.571 1988.8,575.529 1991.01,574.477 1993.22,573.414 1995.42,572.34 1997.63,571.256 1999.83,570.16 2002.04,569.054 2004.24,567.936 2006.45,566.808 2008.66,565.667 2010.86,564.516 2013.07,563.353 2015.27,562.178 2017.48,560.991 2019.68,559.792 2021.89,558.582 2024.1,557.359 2026.3,556.124 2028.51,554.876 2030.71,553.616 2032.92,616.24 2035.12,615.597 2037.33,614.948 2039.54,614.292 2041.74,613.63 2043.95,612.961 2046.15,612.285 2048.36,611.602 2050.57,610.913 2052.77,610.216 2054.98,609.513 2057.18,608.802 2059.39,608.085 2061.59,607.36 2063.8,606.628 2066.01,605.888 2068.21,605.141 2070.42,604.387 2072.62,603.625 2074.83,602.855 2077.03,602.078 2079.24,601.292 2081.45,600.499 2083.65,599.698 2085.86,598.889 2088.06,598.071 2090.27,597.246 2092.47,596.412 2094.68,595.57 2096.89,594.719 2099.09,593.86 2101.3,592.992 2103.5,592.115 2105.71,591.229 2107.92,590.335 2110.12,589.431 2112.33,588.519 2114.53,587.597 2116.74,586.666 2118.94,585.726 2121.15,584.776 2123.36,583.817 2125.56,582.847 2127.77,581.869 2129.97,580.88 2132.18,579.882 2134.38,578.873 2136.59,577.854 2138.8,576.825 2141,575.786 2143.21,574.736 2145.41,573.676 2147.62,572.605 2149.82,571.523 2152.03,570.43 2154.24,569.326 2156.44,568.212 2158.65,567.086 2160.85,565.948 2163.06,564.799 2165.27,563.639 2167.47,562.467 2169.68,561.283 2171.88,560.088 2174.09,558.88 2176.29,557.66 2178.5,556.428 2180.71,555.184 2182.91,553.927 2185.12,552.657 2187.32,551.374 2189.53,550.079 2191.73,548.771 2193.94,547.449 2196.15,546.114 2198.35,544.766 2200.56,543.404 2202.76,542.028 2204.97,540.639 2207.18,539.236 2209.38,537.818 2211.59,536.386 2213.79,534.94 2216,533.479 2218.2,532.004 2220.41,530.513 2222.62,529.008 2224.82,527.488 2227.03,525.952 2229.23,524.401 2231.44,522.834 2233.64,521.252 2235.85,519.653 2238.06,518.039 2240.26,516.408 2242.47,514.761 2244.67,513.097 2246.88,511.417 2249.08,509.719 2251.29,508.005 2253.5,506.273 2255.7,504.524 2257.91,502.757 2260.11,500.973 2262.32,499.17 2264.53,497.35 2266.73,495.511 2268.94,493.653 2271.14,491.777 2273.35,585.01 2275.55,584.053 2277.76,583.086 2279.97,582.11 2282.17,581.124 2284.38,580.128 2286.58,579.121 2288.79,578.105 2290.99,577.079 2293.2,576.042 2295.41,574.995 2297.61,573.937 2299.82,572.868 2302.02,571.789 2304.23,570.699 2306.43,569.598 2308.64,568.486 2310.85,567.363 2313.05,566.229 2315.26,565.083 2317.46,563.925 2319.67,562.756 2321.88,561.575 2324.08,560.382 2326.29,559.178 2328.49,557.961 2330.7,556.732 2332.9,555.49 2335.11,554.236 2337.32,552.97 2339.52,551.69 2341.73,550.398 2343.93,549.093 2346.14,547.774 2348.34,546.443 2350.55,545.098 2352.76,543.739 "/>
<polyline clip-path="url(#clip682)" style="stroke:#e26f46; stroke-linecap:round; stroke-linejoin:round; stroke-width:8; stroke-opacity:1; fill:none" points="149.191,828.57 151.397,828.315 153.602,828.057 155.808,827.797 158.014,827.534 160.22,827.268 162.425,827 164.631,826.729 166.837,826.455 169.043,826.178 171.249,825.899 173.454,825.617 175.66,825.332 177.866,825.044 180.072,824.754 182.277,824.46 184.483,824.163 186.689,823.864 188.895,823.561 191.101,823.256 193.306,822.947 195.512,822.635 197.718,822.32 199.924,822.002 202.129,821.681 204.335,821.356 206.541,821.029 208.747,820.698 210.952,820.363 213.158,820.025 215.364,819.684 217.57,819.34 219.776,818.992 221.981,818.64 224.187,818.285 226.393,817.926 228.599,817.564 230.804,817.198 233.01,816.828 235.216,816.455 237.422,816.078 239.627,815.697 241.833,815.312 244.039,814.924 246.245,814.531 248.451,814.135 250.656,813.734 252.862,813.33 255.068,812.921 257.274,812.508 259.479,812.092 261.685,811.671 263.891,811.245 266.097,810.816 268.302,810.382 270.508,809.944 272.714,809.501 274.92,809.054 277.126,808.603 279.331,808.147 281.537,807.686 283.743,807.221 285.949,806.751 288.154,806.276 290.36,805.796 292.566,805.312 294.772,804.823 296.978,804.329 299.183,803.83 301.389,803.326 303.595,802.816 305.801,802.302 308.006,801.783 310.212,801.258 312.418,800.728 314.624,800.193 316.829,799.652 319.035,799.106 321.241,798.554 323.447,797.997 325.653,797.434 327.858,796.866 330.064,796.291 332.27,795.711 334.476,795.126 336.681,794.534 338.887,793.936 341.093,793.333 343.299,792.723 345.504,792.107 347.71,791.485 349.916,790.857 352.122,790.222 354.328,789.581 356.533,788.934 358.739,788.28 360.945,787.619 363.151,786.952 365.356,786.278 367.562,785.597 369.768,784.91 371.974,784.215 374.179,783.514 376.385,782.806 378.591,782.09 380.797,781.367 383.003,780.637 385.208,779.9 387.414,779.155 389.62,778.402 391.826,777.642 394.031,776.875 396.237,776.1 398.443,775.316 400.649,774.525 402.855,773.727 405.06,772.92 407.266,772.104 409.472,771.281 411.678,770.45 413.883,769.61 416.089,768.761 418.295,767.904 420.501,767.039 422.706,766.165 424.912,765.281 427.118,764.39 429.324,763.489 431.53,762.579 433.735,761.66 435.941,760.731 438.147,759.794 440.353,758.846 442.558,757.89 444.764,756.924 446.97,755.948 449.176,754.962 451.381,753.966 453.587,752.96 455.793,751.945 457.999,750.919 460.205,749.882 462.41,748.835 464.616,747.778 466.822,746.71 469.028,745.631 471.233,744.542 473.439,743.441 475.645,742.33 477.851,741.207 480.056,740.073 482.262,738.927 484.468,737.77 486.674,736.601 488.88,735.421 491.085,734.229 493.291,733.024 495.497,731.808 497.703,730.579 499.908,729.338 502.114,728.084 504.32,726.818 506.526,725.539 508.732,724.247 510.937,722.943 513.143,721.625 515.349,720.294 517.555,718.949 519.76,717.591 521.966,716.219 524.172,714.834 526.378,713.434 528.583,712.021 530.789,710.593 532.995,709.151 535.201,707.694 537.407,706.223 539.612,704.737 541.818,703.236 544.024,701.72 546.23,700.189 548.435,698.642 550.641,697.08 552.847,695.502 555.053,693.908 557.258,692.298 559.464,690.671 561.67,689.029 563.876,687.37 566.082,685.694 568.287,684.002 570.493,682.292 572.699,680.565 574.905,976.006 577.11,975.125 579.316,974.235 581.522,973.337 583.728,972.429 585.933,971.512 588.139,970.586 590.345,969.651 592.551,968.706 594.757,967.751 596.962,966.787 599.168,965.814 601.374,964.83 603.58,963.837 605.785,962.834 607.991,961.821 610.197,960.797 612.403,959.763 614.609,958.719 616.814,957.664 619.02,956.599 621.226,955.523 623.432,954.436 625.637,953.338 627.843,952.229 630.049,951.109 632.255,949.978 634.46,948.835 636.666,947.681 638.872,946.515 641.078,945.338 643.284,944.149 645.489,942.947 647.695,941.734 649.901,940.508 652.107,939.27 654.312,938.02 656.518,936.757 658.724,935.481 660.93,934.193 663.135,932.891 665.341,931.576 667.547,930.248 669.753,928.907 671.959,927.552 674.164,926.184 676.37,924.802 678.576,923.406 680.782,921.996 682.987,920.571 685.193,919.133 687.399,917.68 689.605,916.212 691.81,914.73 694.016,913.232 696.222,911.72 698.428,910.192 700.634,908.649 702.839,907.091 705.045,905.516 707.251,903.926 709.457,902.32 711.662,900.698 713.868,899.059 716.074,897.404 718.28,895.733 720.486,894.044 722.691,892.339 724.897,890.616 727.103,888.876 729.309,887.119 731.514,885.344 733.72,883.551 735.926,881.74 738.132,879.911 740.337,878.064 742.543,876.198 744.749,874.313 746.955,872.409 749.161,870.487 751.366,868.545 753.572,866.583 755.778,864.602 757.984,862.6 760.189,860.579 762.395,858.537 764.601,856.475 766.807,854.392 769.012,852.288 771.218,850.163 773.424,848.016 775.63,845.848 777.836,843.658 780.041,841.446 782.247,839.212 784.453,836.955 786.659,834.676 788.864,832.373 791.07,830.048 793.276,827.699 795.482,825.326 797.687,822.929 799.893,820.508 802.099,818.063 804.305,815.593 806.511,813.099 808.716,810.579 810.922,808.033 813.128,805.463 815.334,802.866 817.539,800.243 819.745,797.593 821.951,794.917 824.157,792.214 826.363,789.484 828.568,786.726 830.774,783.941 832.98,781.127 835.186,778.285 837.391,775.415 839.597,772.515 841.803,769.587 844.009,766.629 846.214,763.641 848.42,760.624 850.626,757.576 852.832,754.497 855.038,751.388 857.243,748.247 859.449,745.075 861.655,741.871 863.861,738.634 866.066,735.365 868.272,732.064 870.478,728.729 872.684,725.36 874.889,721.958 877.095,718.521 879.301,715.05 881.507,711.544 883.713,708.002 885.918,704.425 888.124,700.812 890.33,697.163 892.536,693.477 894.741,689.753 896.947,685.993 899.153,682.194 901.359,712.476 903.564,710.539 905.77,708.581 907.976,706.605 910.182,704.608 912.388,702.591 914.593,700.554 916.799,698.496 919.005,696.418 921.211,694.319 923.416,692.199 925.622,690.057 927.828,687.894 930.034,685.709 932.24,683.502 934.445,681.273 936.651,887.594 938.857,886.457 941.063,885.308 943.268,884.148 945.474,882.976 947.68,881.792 949.886,880.597 952.091,879.389 954.297,878.17 956.503,876.938 958.709,875.693 960.915,874.436 963.12,873.167 965.326,871.885 967.532,870.59 969.738,869.282 971.943,867.96 974.149,866.626 976.355,865.278 978.561,863.916 980.766,862.541 982.972,861.152 985.178,859.749 987.384,858.332 989.59,856.901 991.795,855.455 994.001,853.995 996.207,852.52 998.413,851.03 1000.62,849.526 1002.82,848.006 1005.03,846.471 1007.24,844.92 1009.44,843.354 1011.65,841.772 1013.85,840.174 1016.06,838.56 1018.26,836.93 1020.47,835.283 1022.68,833.62 1024.88,831.94 1027.09,830.243 1029.29,828.529 1031.5,826.798 1033.7,825.049 1035.91,823.283 1038.12,821.499 1040.32,819.697 1042.53,817.877 1044.73,816.038 1046.94,814.181 1049.15,812.305 1051.35,810.41 1053.56,808.497 1055.76,806.564 1057.97,804.611 1060.17,802.639 1062.38,800.647 1064.59,798.635 1066.79,796.602 1069,794.55 1071.2,792.476 1073.41,790.382 1075.61,788.267 1077.82,786.13 1080.03,783.972 1082.23,781.792 1084.44,779.59 1086.64,777.366 1088.85,775.12 1091.06,772.852 1093.26,770.56 1095.47,768.246 1097.67,765.908 1099.88,763.547 1102.08,761.161 1104.29,758.752 1106.5,756.319 1108.7,753.861 1110.91,751.379 1113.11,748.871 1115.32,746.339 1117.52,743.78 1119.73,741.197 1121.94,738.587 1124.14,735.951 1126.35,733.288 1128.55,730.598 1130.76,727.882 1132.96,725.138 1135.17,722.367 1137.38,719.567 1139.58,716.74 1141.79,713.884 1143.99,710.999 1146.2,708.085 1148.41,705.142 1150.61,702.17 1152.82,699.167 1155.02,696.135 1157.23,693.071 1159.43,689.977 1161.64,686.852 1163.85,683.695 1166.05,680.507 1168.26,1114.46 1170.46,1112.83 1172.67,1111.19 1174.87,1109.53 1177.08,1107.86 1179.29,1106.16 1181.49,1104.45 1183.7,1102.73 1185.9,1100.98 1188.11,1099.22 1190.31,1097.44 1192.52,1095.64 1194.73,1093.83 1196.93,1091.99 1199.14,1090.14 1201.34,1088.27 1203.55,1086.38 1205.76,1084.47 1207.96,1082.54 1210.17,1080.59 1212.37,1078.63 1214.58,1076.64 1216.78,1074.63 1218.99,1072.61 1221.2,1070.56 1223.4,1068.49 1225.61,1066.41 1227.81,1064.3 1230.02,1062.17 1232.22,1060.01 1234.43,1057.84 1236.64,1055.65 1238.84,1053.43 1241.05,1051.19 1243.25,1048.93 1245.46,1046.64 1247.66,1044.33 1249.87,1042 1252.08,1039.65 1254.28,1037.27 1256.49,1034.87 1258.69,1032.44 1260.9,1029.99 1263.11,1027.51 1265.31,1025.01 1267.52,1022.49 1269.72,1019.94 1271.93,1017.36 1274.13,1014.76 1276.34,1012.13 1278.55,1009.47 1280.75,1006.79 1282.96,1004.08 1285.16,1001.34 1287.37,998.577 1289.57,995.784 1291.78,992.964 1293.99,990.115 1296.19,987.237 1298.4,984.331 1300.6,981.395 1302.81,978.429 1305.01,975.434 1307.22,972.408 1309.43,969.352 1311.63,966.265 1313.84,963.147 1316.04,959.997 1318.25,956.816 1320.46,953.603 1322.66,950.358 1324.87,947.08 1327.07,943.768 1329.28,940.424 1331.48,937.046 1333.69,933.634 1335.9,930.188 1338.1,926.707 1340.31,923.191 1342.51,919.64 1344.72,916.054 1346.92,912.431 1349.13,908.772 1351.34,905.077 1353.54,901.344 1355.75,897.573 1357.95,893.765 1360.16,889.918 1362.36,886.033 1364.57,882.109 1366.78,878.145 1368.98,874.141 1371.19,870.097 1373.39,866.012 1375.6,861.886 1377.81,857.719 1380.01,853.51 1382.22,849.258 1384.42,844.964 1386.63,840.626 1388.83,836.245 1391.04,831.82 1393.25,827.351 1395.45,822.836 1397.66,818.276 1399.86,813.67 1402.07,809.018 1404.27,804.319 1406.48,799.572 1408.69,794.778 1410.89,789.936 1413.1,785.045 1415.3,780.104 1417.51,775.114 1419.71,770.074 1421.92,764.983 1424.13,759.841 1426.33,754.647 1428.54,749.4 1430.74,744.101 1432.95,738.749 1435.16,733.343 1437.36,727.882 1439.57,722.366 1441.77,716.795 1443.98,711.168 1446.18,705.484 1448.39,699.743 1450.6,693.945 1452.8,688.088 1455.01,682.172 1457.21,720.28 1459.42,717.263 1461.62,714.215 1463.83,711.136 1466.04,708.027 1468.24,704.886 1470.45,701.714 1472.65,698.51 1474.86,695.274 1477.06,692.005 1479.27,688.703 1481.48,685.368 1483.68,681.999 1485.89,712.43 1488.09,710.712 1490.3,708.976 1492.51,707.223 1494.71,705.452 1496.92,703.663 1499.12,701.857 1501.33,700.032 1503.53,698.189 1505.74,696.328 1507.95,694.447 1510.15,692.548 1512.36,690.63 1514.56,688.692 1516.77,686.735 1518.97,684.758 1521.18,682.761 1523.39,680.744 1525.59,988.916 1527.8,987.887 1530,986.848 1532.21,985.799 1534.41,984.738 1536.62,983.668 1538.83,982.586 1541.03,981.494 1543.24,980.39 1545.44,979.275 1547.65,978.15 1549.86,977.013 1552.06,975.864 1554.27,975.076 1556.47,974.491 1558.68,973.899 1560.88,973.301 1563.09,972.697 1565.3,972.087 1567.5,971.471 1569.71,970.849 1571.91,970.221 1574.12,969.586 1576.32,968.945 1578.53,968.297 1580.74,967.643 1582.94,966.983 1585.15,966.315 1587.35,965.641 1589.56,964.961 1591.76,964.273 1593.97,963.578 1596.18,962.877 1598.38,962.168 1600.59,961.452 1602.79,960.729 1605,959.999 1607.21,959.262 1609.41,958.517 1611.62,957.764 1613.82,957.004 1616.03,956.236 1618.23,955.461 1620.44,954.678 1622.65,954.249 1624.85,953.85 1627.06,953.446 1629.26,953.038 1631.47,952.627 1633.67,952.211 1635.88,951.791 1638.09,951.367 1640.29,950.938 1642.5,950.505 1644.7,950.068 1646.91,949.626 1649.12,949.18 1651.32,948.73 1653.53,948.275 1655.73,947.815 1657.94,947.351 1660.14,946.882 1662.35,946.408 1664.56,945.93 1666.76,945.447 1668.97,944.959 1671.17,944.466 1673.38,943.968 1675.58,943.465 1677.79,942.957 1680,942.443 1682.2,941.925 1684.41,941.402 1686.61,940.873 1688.82,940.339 1691.02,939.799 1693.23,939.254 1695.44,938.704 1697.64,938.148 1699.85,937.586 1702.05,937.019 1704.26,936.446 1706.47,935.868 1708.67,935.283 1710.88,934.693 1713.08,934.097 1715.29,933.494 1717.49,932.886 1719.7,932.272 1721.91,931.651 1724.11,931.024 1726.32,930.391 1728.52,929.751 1730.73,929.105 1732.93,928.453 1735.14,927.794 1737.35,927.128 1739.55,926.456 1741.76,925.777 1743.96,925.091 1746.17,924.398 1748.37,923.698 1750.58,922.991 1752.79,922.277 1754.99,921.556 1757.2,920.828 1759.4,920.092 1761.61,919.349 1763.82,918.598 1766.02,917.84 1768.23,917.074 1770.43,916.301 1772.64,915.519 1774.84,914.73 1777.05,913.933 1779.26,913.128 1781.46,912.315 1783.67,911.493 1785.87,910.663 1788.08,909.825 1790.28,908.979 1792.49,908.124 1794.7,907.26 1796.9,906.388 1799.11,905.507 1801.31,904.617 1803.52,903.718 1805.72,902.81 1807.93,901.893 1810.14,900.967 1812.34,900.032 1814.55,899.087 1816.75,898.132 1818.96,897.168 1821.17,896.194 1823.37,895.211 1825.58,894.217 1827.78,893.214 1829.99,892.2 1832.19,891.176 1834.4,890.142 1836.61,889.098 1838.81,888.043 1841.02,886.977 1843.22,885.901 1845.43,884.814 1847.63,883.716 1849.84,882.607 1852.05,881.486 1854.25,880.355 1856.46,879.212 1858.66,878.057 1860.87,876.891 1863.07,875.714 1865.28,874.524 1867.49,873.322 1869.69,872.109 1871.9,870.94 1874.1,870.321 1876.31,869.695 1878.52,869.064 1880.72,868.426 1882.93,867.781 1885.13,867.13 1887.34,866.473 1889.54,865.809 1891.75,865.138 1893.96,864.461 1896.16,863.776 1898.37,863.085 1900.57,862.387 1902.78,861.682 1904.98,860.97 1907.19,860.25 1909.4,859.524 1911.6,858.79 1913.81,858.048 1916.01,857.3 1918.22,856.543 1920.42,855.779 1922.63,855.008 1924.84,854.229 1927.04,853.441 1929.25,852.646 1931.45,851.843 1933.66,851.032 1935.87,850.212 1938.07,849.385 1940.28,848.549 1942.48,847.704 1944.69,846.852 1946.89,845.99 1949.1,845.12 1951.31,844.241 1953.51,843.353 1955.72,842.457 1957.92,841.551 1960.13,840.636 1962.33,839.712 1964.54,838.779 1966.75,837.836 1968.95,836.884 1971.16,835.922 1973.36,834.951 1975.57,833.97 1977.77,832.979 1979.98,831.978 1982.19,830.967 1984.39,829.945 1986.6,828.914 1988.8,827.872 1991.01,826.82 1993.22,825.757 1995.42,824.683 1997.63,823.598 1999.83,822.503 2002.04,821.397 2004.24,820.279 2006.45,819.15 2008.66,818.01 2010.86,816.859 2013.07,815.695 2015.27,814.521 2017.48,813.334 2019.68,812.135 2021.89,810.925 2024.1,809.702 2026.3,808.466 2028.51,807.219 2030.71,805.959 2032.92,805.105 2035.12,804.462 2037.33,803.812 2039.54,803.157 2041.74,802.494 2043.95,801.825 2046.15,801.149 2048.36,800.467 2050.57,799.777 2052.77,799.081 2054.98,798.377 2057.18,797.667 2059.39,796.949 2061.59,796.224 2063.8,795.492 2066.01,794.753 2068.21,794.006 2070.42,793.251 2072.62,792.489 2074.83,791.719 2077.03,790.942 2079.24,790.157 2081.45,789.363 2083.65,788.562 2085.86,787.753 2088.06,786.936 2090.27,786.11 2092.47,785.276 2094.68,784.434 2096.89,783.583 2099.09,782.724 2101.3,781.856 2103.5,780.979 2105.71,780.094 2107.92,779.199 2110.12,778.296 2112.33,777.383 2114.53,776.461 2116.74,775.53 2118.94,774.59 2121.15,773.64 2123.36,772.681 2125.56,771.712 2127.77,770.733 2129.97,769.744 2132.18,768.746 2134.38,767.737 2136.59,766.719 2138.8,765.69 2141,764.65 2143.21,763.6 2145.41,762.54 2147.62,761.469 2149.82,760.387 2152.03,759.294 2154.24,758.191 2156.44,757.076 2158.65,755.95 2160.85,754.813 2163.06,753.664 2165.27,752.504 2167.47,751.332 2169.68,750.148 2171.88,748.952 2174.09,747.744 2176.29,746.525 2178.5,745.292 2180.71,744.048 2182.91,742.791 2185.12,741.521 2187.32,740.239 2189.53,738.943 2191.73,737.635 2193.94,736.313 2196.15,734.978 2198.35,733.63 2200.56,732.268 2202.76,730.893 2204.97,729.503 2207.18,728.1 2209.38,726.682 2211.59,725.251 2213.79,723.804 2216,722.344 2218.2,720.868 2220.41,719.378 2222.62,717.873 2224.82,716.352 2227.03,714.816 2229.23,713.265 2231.44,711.698 2233.64,710.116 2235.85,708.518 2238.06,706.903 2240.26,705.272 2242.47,703.625 2244.67,701.961 2246.88,700.281 2249.08,698.584 2251.29,696.869 2253.5,695.137 2255.7,693.388 2257.91,691.622 2260.11,689.837 2262.32,688.035 2264.53,686.214 2266.73,684.375 2268.94,682.518 2271.14,680.642 2273.35,1384.24 2275.55,1383.28 2277.76,1382.31 2279.97,1381.34 2282.17,1380.35 2284.38,1379.36 2286.58,1378.35 2288.79,1377.33 2290.99,1376.31 2293.2,1375.27 2295.41,1374.22 2297.61,1373.17 2299.82,1372.1 2302.02,1371.02 2304.23,1369.93 2306.43,1368.83 2308.64,1367.71 2310.85,1366.59 2313.05,1365.46 2315.26,1364.31 2317.46,1363.15 2319.67,1361.98 2321.88,1360.8 2324.08,1359.61 2326.29,1358.41 2328.49,1357.19 2330.7,1355.96 2332.9,1354.72 2335.11,1353.46 2337.32,1352.2 2339.52,1350.92 2341.73,1349.63 2343.93,1348.32 2346.14,1347 2348.34,1345.67 2350.55,1344.33 2352.76,1342.97 "/>
<path clip-path="url(#clip680)" d="M1969.85 248.629 L2279.3 248.629 L2279.3 93.1086 L1969.85 93.1086  Z" fill="#ffffff" fill-rule="evenodd" fill-opacity="1"/>
<polyline clip-path="url(#clip680)" style="stroke:#000000; stroke-linecap:round; stroke-linejoin:round; stroke-width:4; stroke-opacity:1; fill:none" points="1969.85,248.629 2279.3,248.629 2279.3,93.1086 1969.85,93.1086 1969.85,248.629 "/>
<polyline clip-path="url(#clip680)" style="stroke:#009af9; stroke-linecap:round; stroke-linejoin:round; stroke-width:8; stroke-opacity:1; fill:none" points="1994.33,144.949 2141.24,144.949 "/>
<path clip-path="url(#clip680)" d="M2165.72 151.997 L2165.72 136.303 L2169.98 136.303 L2169.98 151.835 Q2169.98 155.516 2171.42 157.368 Q2172.85 159.196 2175.72 159.196 Q2179.17 159.196 2181.16 156.997 Q2183.18 154.798 2183.18 151.002 L2183.18 136.303 L2187.44 136.303 L2187.44 162.229 L2183.18 162.229 L2183.18 158.247 Q2181.63 160.608 2179.57 161.766 Q2177.53 162.9 2174.82 162.9 Q2170.35 162.9 2168.04 160.122 Q2165.72 157.344 2165.72 151.997 M2176.44 135.678 L2176.44 135.678 Z" fill="#000000" fill-rule="nonzero" fill-opacity="1" /><path clip-path="url(#clip680)" d="M2195.82 126.21 L2205.63 126.21 L2205.63 129.52 L2200.07 129.52 L2200.07 165.168 L2205.63 165.168 L2205.63 168.479 L2195.82 168.479 L2195.82 126.21 Z" fill="#000000" fill-rule="nonzero" fill-opacity="1" /><path clip-path="url(#clip680)" d="M2216.12 158.293 L2223.76 158.293 L2223.76 131.928 L2215.44 133.595 L2215.44 129.335 L2223.71 127.669 L2228.38 127.669 L2228.38 158.293 L2236.02 158.293 L2236.02 162.229 L2216.12 162.229 L2216.12 158.293 Z" fill="#000000" fill-rule="nonzero" fill-opacity="1" /><path clip-path="url(#clip680)" d="M2254.82 126.21 L2254.82 168.479 L2245 168.479 L2245 165.168 L2250.54 165.168 L2250.54 129.52 L2245 129.52 L2245 126.21 L2254.82 126.21 Z" fill="#000000" fill-rule="nonzero" fill-opacity="1" /><polyline clip-path="url(#clip680)" style="stroke:#e26f46; stroke-linecap:round; stroke-linejoin:round; stroke-width:8; stroke-opacity:1; fill:none" points="1994.33,196.789 2141.24,196.789 "/>
<path clip-path="url(#clip680)" d="M2165.72 203.837 L2165.72 188.143 L2169.98 188.143 L2169.98 203.675 Q2169.98 207.356 2171.42 209.208 Q2172.85 211.036 2175.72 211.036 Q2179.17 211.036 2181.16 208.837 Q2183.18 206.638 2183.18 202.842 L2183.18 188.143 L2187.44 188.143 L2187.44 214.069 L2183.18 214.069 L2183.18 210.087 Q2181.63 212.448 2179.57 213.606 Q2177.53 214.74 2174.82 214.74 Q2170.35 214.74 2168.04 211.962 Q2165.72 209.184 2165.72 203.837 M2176.44 187.518 L2176.44 187.518 Z" fill="#000000" fill-rule="nonzero" fill-opacity="1" /><path clip-path="url(#clip680)" d="M2195.82 178.05 L2205.63 178.05 L2205.63 181.36 L2200.07 181.36 L2200.07 217.008 L2205.63 217.008 L2205.63 220.319 L2195.82 220.319 L2195.82 178.05 Z" fill="#000000" fill-rule="nonzero" fill-opacity="1" /><path clip-path="url(#clip680)" d="M2219.33 210.133 L2235.65 210.133 L2235.65 214.069 L2213.71 214.069 L2213.71 210.133 Q2216.37 207.379 2220.95 202.749 Q2225.56 198.096 2226.74 196.754 Q2228.99 194.231 2229.87 192.495 Q2230.77 190.735 2230.77 189.046 Q2230.77 186.291 2228.82 184.555 Q2226.9 182.819 2223.8 182.819 Q2221.6 182.819 2219.15 183.583 Q2216.72 184.347 2213.94 185.897 L2213.94 181.175 Q2216.76 180.041 2219.22 179.462 Q2221.67 178.884 2223.71 178.884 Q2229.08 178.884 2232.27 181.569 Q2235.47 184.254 2235.47 188.745 Q2235.47 190.874 2234.66 192.796 Q2233.87 194.694 2231.76 197.286 Q2231.19 197.958 2228.08 201.175 Q2224.98 204.37 2219.33 210.133 Z" fill="#000000" fill-rule="nonzero" fill-opacity="1" /><path clip-path="url(#clip680)" d="M2254.82 178.05 L2254.82 220.319 L2245 220.319 L2245 217.008 L2250.54 217.008 L2250.54 181.36 L2245 181.36 L2245 178.05 L2254.82 178.05 Z" fill="#000000" fill-rule="nonzero" fill-opacity="1" /></svg>
