<?xml version="1.0" encoding="utf-8"?>
<svg xmlns="http://www.w3.org/2000/svg" xmlns:xlink="http://www.w3.org/1999/xlink" width="600" height="400" viewBox="0 0 2400 1600">
<defs>
  <clipPath id="clip560">
    <rect x="0" y="0" width="2400" height="1600"/>
  </clipPath>
</defs>
<path clip-path="url(#clip560)" d="M0 1600 L2400 1600 L2400 0 L0 0  Z" fill="#ffffff" fill-rule="evenodd" fill-opacity="1"/>
<defs>
  <clipPath id="clip561">
    <rect x="480" y="0" width="1681" height="1600"/>
  </clipPath>
</defs>
<path clip-path="url(#clip560)" d="M193.936 1423.18 L2352.76 1423.18 L2352.76 47.2441 L193.936 47.2441  Z" fill="#ffffff" fill-rule="evenodd" fill-opacity="1"/>
<defs>
  <clipPath id="clip562">
    <rect x="193" y="47" width="2160" height="1377"/>
  </clipPath>
</defs>
<polyline clip-path="url(#clip562)" style="stroke:#000000; stroke-linecap:round; stroke-linejoin:round; stroke-width:2; stroke-opacity:0.1; fill:none" points="193.936,1423.18 193.936,47.2441 "/>
<polyline clip-path="url(#clip562)" style="stroke:#000000; stroke-linecap:round; stroke-linejoin:round; stroke-width:2; stroke-opacity:0.1; fill:none" points="625.7,1423.18 625.7,47.2441 "/>
<polyline clip-path="url(#clip562)" style="stroke:#000000; stroke-linecap:round; stroke-linejoin:round; stroke-width:2; stroke-opacity:0.1; fill:none" points="1057.46,1423.18 1057.46,47.2441 "/>
<polyline clip-path="url(#clip562)" style="stroke:#000000; stroke-linecap:round; stroke-linejoin:round; stroke-width:2; stroke-opacity:0.1; fill:none" points="1489.23,1423.18 1489.23,47.2441 "/>
<polyline clip-path="url(#clip562)" style="stroke:#000000; stroke-linecap:round; stroke-linejoin:round; stroke-width:2; stroke-opacity:0.1; fill:none" points="1920.99,1423.18 1920.99,47.2441 "/>
<polyline clip-path="url(#clip562)" style="stroke:#000000; stroke-linecap:round; stroke-linejoin:round; stroke-width:2; stroke-opacity:0.1; fill:none" points="2352.76,1423.18 2352.76,47.2441 "/>
<polyline clip-path="url(#clip560)" style="stroke:#000000; stroke-linecap:round; stroke-linejoin:round; stroke-width:4; stroke-opacity:1; fill:none" points="193.936,1423.18 2352.76,1423.18 "/>
<polyline clip-path="url(#clip560)" style="stroke:#000000; stroke-linecap:round; stroke-linejoin:round; stroke-width:4; stroke-opacity:1; fill:none" points="193.936,1423.18 193.936,1404.28 "/>
<polyline clip-path="url(#clip560)" style="stroke:#000000; stroke-linecap:round; stroke-linejoin:round; stroke-width:4; stroke-opacity:1; fill:none" points="625.7,1423.18 625.7,1404.28 "/>
<polyline clip-path="url(#clip560)" style="stroke:#000000; stroke-linecap:round; stroke-linejoin:round; stroke-width:4; stroke-opacity:1; fill:none" points="1057.46,1423.18 1057.46,1404.28 "/>
<polyline clip-path="url(#clip560)" style="stroke:#000000; stroke-linecap:round; stroke-linejoin:round; stroke-width:4; stroke-opacity:1; fill:none" points="1489.23,1423.18 1489.23,1404.28 "/>
<polyline clip-path="url(#clip560)" style="stroke:#000000; stroke-linecap:round; stroke-linejoin:round; stroke-width:4; stroke-opacity:1; fill:none" points="1920.99,1423.18 1920.99,1404.28 "/>
<polyline clip-path="url(#clip560)" style="stroke:#000000; stroke-linecap:round; stroke-linejoin:round; stroke-width:4; stroke-opacity:1; fill:none" points="2352.76,1423.18 2352.76,1404.28 "/>
<path clip-path="url(#clip560)" d="M193.936 1454.1 Q190.325 1454.1 188.496 1457.66 Q186.691 1461.2 186.691 1468.33 Q186.691 1475.44 188.496 1479.01 Q190.325 1482.55 193.936 1482.55 Q197.57 1482.55 199.376 1479.01 Q201.204 1475.44 201.204 1468.33 Q201.204 1461.2 199.376 1457.66 Q197.57 1454.1 193.936 1454.1 M193.936 1450.39 Q199.746 1450.39 202.802 1455 Q205.88 1459.58 205.88 1468.33 Q205.88 1477.06 202.802 1481.67 Q199.746 1486.25 193.936 1486.25 Q188.126 1486.25 185.047 1481.67 Q181.992 1477.06 181.992 1468.33 Q181.992 1459.58 185.047 1455 Q188.126 1450.39 193.936 1450.39 Z" fill="#000000" fill-rule="nonzero" fill-opacity="1" /><path clip-path="url(#clip560)" d="M620.353 1481.64 L636.672 1481.64 L636.672 1485.58 L614.728 1485.58 L614.728 1481.64 Q617.39 1478.89 621.973 1474.26 Q626.58 1469.61 627.76 1468.27 Q630.006 1465.74 630.885 1464.01 Q631.788 1462.25 631.788 1460.56 Q631.788 1457.8 629.843 1456.07 Q627.922 1454.33 624.82 1454.33 Q622.621 1454.33 620.168 1455.09 Q617.737 1455.86 614.959 1457.41 L614.959 1452.69 Q617.783 1451.55 620.237 1450.97 Q622.691 1450.39 624.728 1450.39 Q630.098 1450.39 633.293 1453.08 Q636.487 1455.77 636.487 1460.26 Q636.487 1462.39 635.677 1464.31 Q634.89 1466.2 632.783 1468.8 Q632.205 1469.47 629.103 1472.69 Q626.001 1475.88 620.353 1481.64 Z" fill="#000000" fill-rule="nonzero" fill-opacity="1" /><path clip-path="url(#clip560)" d="M1060.47 1455.09 L1048.67 1473.54 L1060.47 1473.54 L1060.47 1455.09 M1059.25 1451.02 L1065.13 1451.02 L1065.13 1473.54 L1070.06 1473.54 L1070.06 1477.43 L1065.13 1477.43 L1065.13 1485.58 L1060.47 1485.58 L1060.47 1477.43 L1044.87 1477.43 L1044.87 1472.92 L1059.25 1451.02 Z" fill="#000000" fill-rule="nonzero" fill-opacity="1" /><path clip-path="url(#clip560)" d="M1489.63 1466.44 Q1486.48 1466.44 1484.63 1468.59 Q1482.8 1470.74 1482.8 1474.49 Q1482.8 1478.22 1484.63 1480.39 Q1486.48 1482.55 1489.63 1482.55 Q1492.78 1482.55 1494.61 1480.39 Q1496.46 1478.22 1496.46 1474.49 Q1496.46 1470.74 1494.61 1468.59 Q1492.78 1466.44 1489.63 1466.44 M1498.92 1451.78 L1498.92 1456.04 Q1497.16 1455.21 1495.35 1454.77 Q1493.57 1454.33 1491.81 1454.33 Q1487.18 1454.33 1484.73 1457.45 Q1482.3 1460.58 1481.95 1466.9 Q1483.31 1464.89 1485.37 1463.82 Q1487.43 1462.73 1489.91 1462.73 Q1495.12 1462.73 1498.13 1465.9 Q1501.16 1469.05 1501.16 1474.49 Q1501.16 1479.82 1498.01 1483.03 Q1494.86 1486.25 1489.63 1486.25 Q1483.64 1486.25 1480.47 1481.67 Q1477.3 1477.06 1477.3 1468.33 Q1477.3 1460.14 1481.18 1455.28 Q1485.07 1450.39 1491.62 1450.39 Q1493.38 1450.39 1495.17 1450.74 Q1496.97 1451.09 1498.92 1451.78 Z" fill="#000000" fill-rule="nonzero" fill-opacity="1" /><path clip-path="url(#clip560)" d="M1920.99 1469.17 Q1917.66 1469.17 1915.74 1470.95 Q1913.84 1472.73 1913.84 1475.86 Q1913.84 1478.98 1915.74 1480.77 Q1917.66 1482.55 1920.99 1482.55 Q1924.33 1482.55 1926.25 1480.77 Q1928.17 1478.96 1928.17 1475.86 Q1928.17 1472.73 1926.25 1470.95 Q1924.35 1469.17 1920.99 1469.17 M1916.32 1467.18 Q1913.31 1466.44 1911.62 1464.38 Q1909.95 1462.32 1909.95 1459.35 Q1909.95 1455.21 1912.89 1452.8 Q1915.85 1450.39 1920.99 1450.39 Q1926.15 1450.39 1929.09 1452.8 Q1932.03 1455.21 1932.03 1459.35 Q1932.03 1462.32 1930.34 1464.38 Q1928.68 1466.44 1925.69 1467.18 Q1929.07 1467.96 1930.95 1470.26 Q1932.84 1472.55 1932.84 1475.86 Q1932.84 1480.88 1929.77 1483.57 Q1926.71 1486.25 1920.99 1486.25 Q1915.27 1486.25 1912.2 1483.57 Q1909.14 1480.88 1909.14 1475.86 Q1909.14 1472.55 1911.04 1470.26 Q1912.94 1467.96 1916.32 1467.18 M1914.6 1459.79 Q1914.6 1462.48 1916.27 1463.98 Q1917.96 1465.49 1920.99 1465.49 Q1924 1465.49 1925.69 1463.98 Q1927.4 1462.48 1927.4 1459.79 Q1927.4 1457.11 1925.69 1455.6 Q1924 1454.1 1920.99 1454.1 Q1917.96 1454.1 1916.27 1455.6 Q1914.6 1457.11 1914.6 1459.79 Z" fill="#000000" fill-rule="nonzero" fill-opacity="1" /><path clip-path="url(#clip560)" d="M2327.44 1481.64 L2335.08 1481.64 L2335.08 1455.28 L2326.77 1456.95 L2326.77 1452.69 L2335.04 1451.02 L2339.71 1451.02 L2339.71 1481.64 L2347.35 1481.64 L2347.35 1485.58 L2327.44 1485.58 L2327.44 1481.64 Z" fill="#000000" fill-rule="nonzero" fill-opacity="1" /><path clip-path="url(#clip560)" d="M2366.8 1454.1 Q2363.18 1454.1 2361.36 1457.66 Q2359.55 1461.2 2359.55 1468.33 Q2359.55 1475.44 2361.36 1479.01 Q2363.18 1482.55 2366.8 1482.55 Q2370.43 1482.55 2372.23 1479.01 Q2374.06 1475.44 2374.06 1468.33 Q2374.06 1461.2 2372.23 1457.66 Q2370.43 1454.1 2366.8 1454.1 M2366.8 1450.39 Q2372.61 1450.39 2375.66 1455 Q2378.74 1459.58 2378.74 1468.33 Q2378.74 1477.06 2375.66 1481.67 Q2372.61 1486.25 2366.8 1486.25 Q2360.99 1486.25 2357.91 1481.67 Q2354.85 1477.06 2354.85 1468.33 Q2354.85 1459.58 2357.91 1455 Q2360.99 1450.39 2366.8 1450.39 Z" fill="#000000" fill-rule="nonzero" fill-opacity="1" /><path clip-path="url(#clip560)" d="M1272.41 1522.27 L1272.41 1532.4 L1284.47 1532.4 L1284.47 1536.95 L1272.41 1536.95 L1272.41 1556.3 Q1272.41 1560.66 1273.58 1561.9 Q1274.79 1563.14 1278.45 1563.14 L1284.47 1563.14 L1284.47 1568.04 L1278.45 1568.04 Q1271.67 1568.04 1269.1 1565.53 Q1266.52 1562.98 1266.52 1556.3 L1266.52 1536.95 L1262.22 1536.95 L1262.22 1532.4 L1266.52 1532.4 L1266.52 1522.27 L1272.41 1522.27 Z" fill="#000000" fill-rule="nonzero" fill-opacity="1" /><polyline clip-path="url(#clip562)" style="stroke:#000000; stroke-linecap:round; stroke-linejoin:round; stroke-width:2; stroke-opacity:0.1; fill:none" points="193.936,1220.25 2352.76,1220.25 "/>
<polyline clip-path="url(#clip562)" style="stroke:#000000; stroke-linecap:round; stroke-linejoin:round; stroke-width:2; stroke-opacity:0.1; fill:none" points="193.936,1012.33 2352.76,1012.33 "/>
<polyline clip-path="url(#clip562)" style="stroke:#000000; stroke-linecap:round; stroke-linejoin:round; stroke-width:2; stroke-opacity:0.1; fill:none" points="193.936,804.407 2352.76,804.407 "/>
<polyline clip-path="url(#clip562)" style="stroke:#000000; stroke-linecap:round; stroke-linejoin:round; stroke-width:2; stroke-opacity:0.1; fill:none" points="193.936,596.483 2352.76,596.483 "/>
<polyline clip-path="url(#clip562)" style="stroke:#000000; stroke-linecap:round; stroke-linejoin:round; stroke-width:2; stroke-opacity:0.1; fill:none" points="193.936,388.559 2352.76,388.559 "/>
<polyline clip-path="url(#clip562)" style="stroke:#000000; stroke-linecap:round; stroke-linejoin:round; stroke-width:2; stroke-opacity:0.1; fill:none" points="193.936,180.635 2352.76,180.635 "/>
<polyline clip-path="url(#clip560)" style="stroke:#000000; stroke-linecap:round; stroke-linejoin:round; stroke-width:4; stroke-opacity:1; fill:none" points="193.936,1423.18 193.936,47.2441 "/>
<polyline clip-path="url(#clip560)" style="stroke:#000000; stroke-linecap:round; stroke-linejoin:round; stroke-width:4; stroke-opacity:1; fill:none" points="193.936,1220.25 212.834,1220.25 "/>
<polyline clip-path="url(#clip560)" style="stroke:#000000; stroke-linecap:round; stroke-linejoin:round; stroke-width:4; stroke-opacity:1; fill:none" points="193.936,1012.33 212.834,1012.33 "/>
<polyline clip-path="url(#clip560)" style="stroke:#000000; stroke-linecap:round; stroke-linejoin:round; stroke-width:4; stroke-opacity:1; fill:none" points="193.936,804.407 212.834,804.407 "/>
<polyline clip-path="url(#clip560)" style="stroke:#000000; stroke-linecap:round; stroke-linejoin:round; stroke-width:4; stroke-opacity:1; fill:none" points="193.936,596.483 212.834,596.483 "/>
<polyline clip-path="url(#clip560)" style="stroke:#000000; stroke-linecap:round; stroke-linejoin:round; stroke-width:4; stroke-opacity:1; fill:none" points="193.936,388.559 212.834,388.559 "/>
<polyline clip-path="url(#clip560)" style="stroke:#000000; stroke-linecap:round; stroke-linejoin:round; stroke-width:4; stroke-opacity:1; fill:none" points="193.936,180.635 212.834,180.635 "/>
<path clip-path="url(#clip560)" d="M51.9875 1220.71 L81.6633 1220.71 L81.6633 1224.64 L51.9875 1224.64 L51.9875 1220.71 Z" fill="#000000" fill-rule="nonzero" fill-opacity="1" /><path clip-path="url(#clip560)" d="M92.566 1233.6 L100.205 1233.6 L100.205 1207.23 L91.8947 1208.9 L91.8947 1204.64 L100.159 1202.97 L104.834 1202.97 L104.834 1233.6 L112.473 1233.6 L112.473 1237.53 L92.566 1237.53 L92.566 1233.6 Z" fill="#000000" fill-rule="nonzero" fill-opacity="1" /><path clip-path="url(#clip560)" d="M121.918 1231.66 L126.802 1231.66 L126.802 1237.53 L121.918 1237.53 L121.918 1231.66 Z" fill="#000000" fill-rule="nonzero" fill-opacity="1" /><path clip-path="url(#clip560)" d="M137.033 1202.97 L155.39 1202.97 L155.39 1206.91 L141.316 1206.91 L141.316 1215.38 Q142.334 1215.04 143.353 1214.87 Q144.371 1214.69 145.39 1214.69 Q151.177 1214.69 154.556 1217.86 Q157.936 1221.03 157.936 1226.45 Q157.936 1232.03 154.464 1235.13 Q150.992 1238.21 144.672 1238.21 Q142.496 1238.21 140.228 1237.84 Q137.982 1237.47 135.575 1236.72 L135.575 1232.03 Q137.658 1233.16 139.881 1233.72 Q142.103 1234.27 144.58 1234.27 Q148.584 1234.27 150.922 1232.16 Q153.26 1230.06 153.26 1226.45 Q153.26 1222.84 150.922 1220.73 Q148.584 1218.62 144.58 1218.62 Q142.705 1218.62 140.83 1219.04 Q138.978 1219.46 137.033 1220.34 L137.033 1202.97 Z" fill="#000000" fill-rule="nonzero" fill-opacity="1" /><path clip-path="url(#clip560)" d="M50.9921 1012.78 L80.6679 1012.78 L80.6679 1016.72 L50.9921 1016.72 L50.9921 1012.78 Z" fill="#000000" fill-rule="nonzero" fill-opacity="1" /><path clip-path="url(#clip560)" d="M91.5706 1025.68 L99.2095 1025.68 L99.2095 999.31 L90.8993 1000.98 L90.8993 996.718 L99.1632 995.051 L103.839 995.051 L103.839 1025.68 L111.478 1025.68 L111.478 1029.61 L91.5706 1029.61 L91.5706 1025.68 Z" fill="#000000" fill-rule="nonzero" fill-opacity="1" /><path clip-path="url(#clip560)" d="M120.922 1023.73 L125.807 1023.73 L125.807 1029.61 L120.922 1029.61 L120.922 1023.73 Z" fill="#000000" fill-rule="nonzero" fill-opacity="1" /><path clip-path="url(#clip560)" d="M145.992 998.13 Q142.381 998.13 140.552 1001.69 Q138.746 1005.24 138.746 1012.37 Q138.746 1019.47 140.552 1023.04 Q142.381 1026.58 145.992 1026.58 Q149.626 1026.58 151.431 1023.04 Q153.26 1019.47 153.26 1012.37 Q153.26 1005.24 151.431 1001.69 Q149.626 998.13 145.992 998.13 M145.992 994.426 Q151.802 994.426 154.857 999.032 Q157.936 1003.62 157.936 1012.37 Q157.936 1021.09 154.857 1025.7 Q151.802 1030.28 145.992 1030.28 Q140.181 1030.28 137.103 1025.7 Q134.047 1021.09 134.047 1012.37 Q134.047 1003.62 137.103 999.032 Q140.181 994.426 145.992 994.426 Z" fill="#000000" fill-rule="nonzero" fill-opacity="1" /><path clip-path="url(#clip560)" d="M51.9875 804.858 L81.6633 804.858 L81.6633 808.793 L51.9875 808.793 L51.9875 804.858 Z" fill="#000000" fill-rule="nonzero" fill-opacity="1" /><path clip-path="url(#clip560)" d="M101.756 790.206 Q98.1447 790.206 96.316 793.77 Q94.5104 797.312 94.5104 804.442 Q94.5104 811.548 96.316 815.113 Q98.1447 818.655 101.756 818.655 Q105.39 818.655 107.196 815.113 Q109.024 811.548 109.024 804.442 Q109.024 797.312 107.196 793.77 Q105.39 790.206 101.756 790.206 M101.756 786.502 Q107.566 786.502 110.621 791.108 Q113.7 795.692 113.7 804.442 Q113.7 813.168 110.621 817.775 Q107.566 822.358 101.756 822.358 Q95.9456 822.358 92.8669 817.775 Q89.8114 813.168 89.8114 804.442 Q89.8114 795.692 92.8669 791.108 Q95.9456 786.502 101.756 786.502 Z" fill="#000000" fill-rule="nonzero" fill-opacity="1" /><path clip-path="url(#clip560)" d="M121.918 815.807 L126.802 815.807 L126.802 821.687 L121.918 821.687 L121.918 815.807 Z" fill="#000000" fill-rule="nonzero" fill-opacity="1" /><path clip-path="url(#clip560)" d="M137.033 787.127 L155.39 787.127 L155.39 791.062 L141.316 791.062 L141.316 799.534 Q142.334 799.187 143.353 799.025 Q144.371 798.84 145.39 798.84 Q151.177 798.84 154.556 802.011 Q157.936 805.182 157.936 810.599 Q157.936 816.178 154.464 819.28 Q150.992 822.358 144.672 822.358 Q142.496 822.358 140.228 821.988 Q137.982 821.617 135.575 820.877 L135.575 816.178 Q137.658 817.312 139.881 817.867 Q142.103 818.423 144.58 818.423 Q148.584 818.423 150.922 816.317 Q153.26 814.21 153.26 810.599 Q153.26 806.988 150.922 804.881 Q148.584 802.775 144.58 802.775 Q142.705 802.775 140.83 803.192 Q138.978 803.608 137.033 804.488 L137.033 787.127 Z" fill="#000000" fill-rule="nonzero" fill-opacity="1" /><path clip-path="url(#clip560)" d="M100.76 582.282 Q97.1493 582.282 95.3206 585.846 Q93.515 589.388 93.515 596.518 Q93.515 603.624 95.3206 607.189 Q97.1493 610.731 100.76 610.731 Q104.395 610.731 106.2 607.189 Q108.029 603.624 108.029 596.518 Q108.029 589.388 106.2 585.846 Q104.395 582.282 100.76 582.282 M100.76 578.578 Q106.571 578.578 109.626 583.184 Q112.705 587.768 112.705 596.518 Q112.705 605.244 109.626 609.851 Q106.571 614.434 100.76 614.434 Q94.9502 614.434 91.8715 609.851 Q88.816 605.244 88.816 596.518 Q88.816 587.768 91.8715 583.184 Q94.9502 578.578 100.76 578.578 Z" fill="#000000" fill-rule="nonzero" fill-opacity="1" /><path clip-path="url(#clip560)" d="M120.922 607.883 L125.807 607.883 L125.807 613.763 L120.922 613.763 L120.922 607.883 Z" fill="#000000" fill-rule="nonzero" fill-opacity="1" /><path clip-path="url(#clip560)" d="M145.992 582.282 Q142.381 582.282 140.552 585.846 Q138.746 589.388 138.746 596.518 Q138.746 603.624 140.552 607.189 Q142.381 610.731 145.992 610.731 Q149.626 610.731 151.431 607.189 Q153.26 603.624 153.26 596.518 Q153.26 589.388 151.431 585.846 Q149.626 582.282 145.992 582.282 M145.992 578.578 Q151.802 578.578 154.857 583.184 Q157.936 587.768 157.936 596.518 Q157.936 605.244 154.857 609.851 Q151.802 614.434 145.992 614.434 Q140.181 614.434 137.103 609.851 Q134.047 605.244 134.047 596.518 Q134.047 587.768 137.103 583.184 Q140.181 578.578 145.992 578.578 Z" fill="#000000" fill-rule="nonzero" fill-opacity="1" /><path clip-path="url(#clip560)" d="M101.756 374.358 Q98.1447 374.358 96.316 377.922 Q94.5104 381.464 94.5104 388.594 Q94.5104 395.7 96.316 399.265 Q98.1447 402.806 101.756 402.806 Q105.39 402.806 107.196 399.265 Q109.024 395.7 109.024 388.594 Q109.024 381.464 107.196 377.922 Q105.39 374.358 101.756 374.358 M101.756 370.654 Q107.566 370.654 110.621 375.26 Q113.7 379.844 113.7 388.594 Q113.7 397.32 110.621 401.927 Q107.566 406.51 101.756 406.51 Q95.9456 406.51 92.8669 401.927 Q89.8114 397.32 89.8114 388.594 Q89.8114 379.844 92.8669 375.26 Q95.9456 370.654 101.756 370.654 Z" fill="#000000" fill-rule="nonzero" fill-opacity="1" /><path clip-path="url(#clip560)" d="M121.918 399.959 L126.802 399.959 L126.802 405.839 L121.918 405.839 L121.918 399.959 Z" fill="#000000" fill-rule="nonzero" fill-opacity="1" /><path clip-path="url(#clip560)" d="M137.033 371.279 L155.39 371.279 L155.39 375.214 L141.316 375.214 L141.316 383.686 Q142.334 383.339 143.353 383.177 Q144.371 382.992 145.39 382.992 Q151.177 382.992 154.556 386.163 Q157.936 389.334 157.936 394.751 Q157.936 400.33 154.464 403.431 Q150.992 406.51 144.672 406.51 Q142.496 406.51 140.228 406.14 Q137.982 405.769 135.575 405.029 L135.575 400.33 Q137.658 401.464 139.881 402.019 Q142.103 402.575 144.58 402.575 Q148.584 402.575 150.922 400.469 Q153.26 398.362 153.26 394.751 Q153.26 391.14 150.922 389.033 Q148.584 386.927 144.58 386.927 Q142.705 386.927 140.83 387.344 Q138.978 387.76 137.033 388.64 L137.033 371.279 Z" fill="#000000" fill-rule="nonzero" fill-opacity="1" /><path clip-path="url(#clip560)" d="M91.5706 193.98 L99.2095 193.98 L99.2095 167.614 L90.8993 169.281 L90.8993 165.022 L99.1632 163.355 L103.839 163.355 L103.839 193.98 L111.478 193.98 L111.478 197.915 L91.5706 197.915 L91.5706 193.98 Z" fill="#000000" fill-rule="nonzero" fill-opacity="1" /><path clip-path="url(#clip560)" d="M120.922 192.035 L125.807 192.035 L125.807 197.915 L120.922 197.915 L120.922 192.035 Z" fill="#000000" fill-rule="nonzero" fill-opacity="1" /><path clip-path="url(#clip560)" d="M145.992 166.434 Q142.381 166.434 140.552 169.998 Q138.746 173.54 138.746 180.67 Q138.746 187.776 140.552 191.341 Q142.381 194.882 145.992 194.882 Q149.626 194.882 151.431 191.341 Q153.26 187.776 153.26 180.67 Q153.26 173.54 151.431 169.998 Q149.626 166.434 145.992 166.434 M145.992 162.73 Q151.802 162.73 154.857 167.336 Q157.936 171.92 157.936 180.67 Q157.936 189.396 154.857 194.003 Q151.802 198.586 145.992 198.586 Q140.181 198.586 137.103 194.003 Q134.047 189.396 134.047 180.67 Q134.047 171.92 137.103 167.336 Q140.181 162.73 145.992 162.73 Z" fill="#000000" fill-rule="nonzero" fill-opacity="1" /><polyline clip-path="url(#clip562)" style="stroke:#009af9; stroke-linecap:round; stroke-linejoin:round; stroke-width:8; stroke-opacity:1; fill:none" points="193.936,513.313 194.131,518.827 194.32,520.711 194.533,520.428 194.772,516.524 195.041,513.97 195.344,519.446 195.685,523.016 196.068,524.558 196.499,520.942 196.984,517.466 197.53,514.682 198.144,511.314 198.834,508.56 199.611,502.977 200.485,504.945 201.468,503.852 202.574,504.828 203.819,507.52 205.219,512.4 206.794,507.976 208.566,516.55 210.559,524.2 212.802,534.168 215.325,535.278 218.163,526.975 221.356,529.333 224.948,529.776 228.989,512.659 233.535,521.465 238.65,512.876 244.404,513.198 250.877,520.673 258.159,539.556 266.352,532.637 275.568,530.36 285.937,456.702 293.429,452.5 301.857,452.136 310.433,429.868 320.08,439.668 328.875,340.437 338.716,343.547 347.134,405.13 355.195,334.142 364.264,355.13 371.845,362.34 380.256,374.015 388.483,441.112 397.137,438.107 406.872,445.842 416.44,442.342 427.153,429.724 438.274,317.468 448.717,298.415 457.748,223.491 466.559,228.293 474.006,184.05 476.895,167.161 484.423,366.976 492.892,429.445 500.649,441.717 509.377,411.586 519.195,423.191 527.909,379.52 537.713,379.968 546.274,336.63 555.594,386.702 563.402,293.216 568.466,281.718 577.249,455.717 587.131,440.488 598.247,459.043 607.893,442.52 618.745,394.097 630.953,437.247 640.069,381.148 650.325,377.171 658.978,340.569 668.712,219.318 678.696,255.944 685.989,310.108 693.839,388.529 702.671,431.483 711.671,435.458 721.795,403.427 733.186,435.674 741.219,427.507 750.256,473.387 758.625,401.643 768.04,387.588 777.568,338.171 788.287,419.166 796.197,435.592 805.097,457.346 813.829,498.992 823.653,529.501 834.706,540.247 847.139,528.19 861.127,512.618 876.863,518.251 889.417,504.437 903.54,488.051 919.429,470.85 935.63,452.285 951.485,412.732 969.322,304.45 986.112,295.026 998.773,381.611 1010.41,391.705 1023.47,362.999 1037.93,372.8 1049.57,373.756 1062.29,414.686 1074.02,445.058 1086.15,491.458 1098.24,435.465 1111.84,420.649 1123.12,402.482 1135.64,448.076 1146.13,406.794 1157.93,432.58 1166.88,477.638 1176.95,497.02 1188.29,464.915 1201.03,428.054 1214.19,395.731 1226.55,390.192 1237.89,328.626 1249.27,373.955 1257.8,328.455 1267.4,372.039 1275.26,414.535 1283.91,376.035 1293.64,338.245 1302.87,305.377 1312.01,313.282 1320.31,423.043 1329.66,364.808 1340.03,286.804 1349.6,99.1158 1356.73,190.898 1362.92,134.478 1369.89,258.282 1375.91,264.052 1382.63,283.402 1389.04,345.242 1395.59,390.913 1402.46,415.183 1409.77,380.197 1417.99,380.396 1425.55,366.237 1433.68,355.525 1441.52,368.046 1441.96,371.735 1449.62,507.141 1458.24,518.993 1467.93,499.273 1478.83,441.32 1489.69,476.278 1498.5,451.946 1508.4,471.183 1516.44,455.454 1525.49,463.773 1533.93,493.44 1543.02,481.567 1553.25,506.677 1562.12,509.942 1572.1,493.756 1583.33,484.524 1595.85,477.723 1609.37,436.784 1624.58,410.573 1638.14,334.795 1649.92,239.323 1661.38,308.383 1670.03,326.942 1679.76,257.881 1690.71,162.443 1700.68,133.933 1709.49,233.436 1717.3,327.77 1725.56,415.359 1734.64,396.41 1744.86,353.302 1755.35,228.66 1765.39,202.685 1773.99,297.817 1781.6,316.839 1790,305.057 1798.79,293.974 1807.1,323.158 1814.99,316.302 1823.75,341.143 1831.68,311.912 1840.59,86.1857 1847.52,141.077 1853.97,94.5856 1860.66,194.782 1866.48,298.7 1872.9,239.049 1876.89,242.202 1881.37,413.966 1886.42,465.324 1892.09,422.683 1898.48,404.131 1905.05,420.62 1911.5,408.281 1918.77,375.575 1926.37,402.231 1933.39,447.292 1941.19,451.332 1949.97,456.686 1958.97,467.925 1959.7,466.689 1968.75,511.905 1978.93,508.617 1989.32,501.096 1991.39,494.948 2003.08,533.935 2016.23,546.9 2027.64,533.476 2040.49,532.766 2053.81,528.025 2068.79,520.831 2085.1,540.122 2098.87,542.601 2114.37,555.309 2129.8,546.411 2147.17,560.051 2162.38,569.317 2179.5,561.49 2198.75,560.325 2217.91,554.467 2239.46,564.453 2257.94,573.348 2278.73,577.182 2302.13,574.037 2328.44,575.098 2352.76,574.404 "/>
<polyline clip-path="url(#clip562)" style="stroke:#e26f46; stroke-linecap:round; stroke-linejoin:round; stroke-width:8; stroke-opacity:1; fill:none" points="193.936,825.471 194.131,825.398 194.32,825.332 194.533,825.256 194.772,825.17 195.041,825.068 195.344,824.956 195.685,824.838 196.068,824.708 196.499,824.558 196.984,824.384 197.53,824.18 198.144,823.937 198.834,823.648 199.611,823.325 200.485,822.96 201.468,822.548 202.574,822.077 203.819,821.547 205.219,820.979 206.794,820.329 208.566,819.646 210.559,818.948 212.802,818.275 215.325,817.566 218.163,816.708 221.356,815.66 224.948,814.492 228.989,813.138 233.535,811.46 238.65,809.506 244.404,807.172 250.877,804.695 258.159,802.482 266.352,800.38 275.568,797.445 285.937,793.125 293.429,787.909 301.857,782.662 310.433,776.33 320.08,768.909 328.875,760.887 338.716,749.337 347.134,741.959 355.195,733.181 364.264,721.891 371.845,713.338 380.256,704.292 388.483,697.181 397.137,691.417 406.872,684.648 416.44,677.758 427.153,669.023 438.274,658.207 448.717,644.305 457.748,629.439 466.559,615.83 474.006,602.825 476.895,596.483 484.423,681.865 492.892,673.934 500.649,668.364 509.377,661.379 519.195,652.787 527.909,644.767 537.713,634.523 546.274,624.803 555.594,614.016 563.402,604.531 568.466,596.483 577.249,1384.24 587.131,1377.5 598.247,1369.79 607.893,1362.88 618.745,1354.34 630.953,1342.96 640.069,1334.68 650.325,1324.04 658.978,1314 668.712,1300.2 678.696,1284.57 685.989,1274.88 693.839,1265.08 702.671,1257.09 711.671,1249.23 721.795,1240.53 733.186,1232.24 741.219,1226.06 750.256,1220.01 758.625,1214.38 768.04,1205.68 777.568,1195.23 788.287,1185.52 796.197,1179.36 805.097,1173.87 813.829,1168.79 823.653,1165.1 834.706,1161.83 847.139,1158.09 861.127,1153.15 876.863,1147.59 889.417,1142.62 903.54,1135.76 919.429,1127.08 935.63,1117.7 951.485,1105.17 969.322,1084.9 986.112,1060.85 998.773,1044.49 1010.41,1032.65 1023.47,1019.06 1037.93,1003.41 1049.57,990.989 1062.29,976.609 1074.02,966.691 1086.15,959.864 1098.24,953.02 1111.84,943.633 1123.12,934.721 1135.64,924.24 1146.13,916.024 1157.93,906.628 1166.88,900.879 1176.95,895.134 1188.29,889.242 1201.03,879.808 1214.19,869.366 1226.55,858.01 1237.89,845.41 1249.27,833.313 1257.8,823.907 1267.4,812.315 1275.26,805.03 1283.91,796.563 1293.64,786.467 1302.87,775.058 1312.01,762.806 1320.31,753.99 1329.66,746.357 1340.03,734.914 1349.6,717.73 1356.73,703.877 1362.92,691.967 1369.89,679.137 1375.91,670.141 1382.63,660.023 1389.04,650.93 1395.59,644.117 1402.46,638.418 1409.77,631.545 1417.99,622.874 1425.55,614.575 1433.68,605.939 1441.52,596.887 1441.96,596.483 1449.62,1136.71 1458.24,1133.26 1467.93,1129.21 1478.83,1123.49 1489.69,1116.69 1498.5,1111.09 1508.4,1105.06 1516.44,1100.13 1525.49,1094.53 1533.93,1090.23 1543.02,1085.23 1553.25,1080.24 1562.12,1076.79 1572.1,1072.79 1583.33,1067.03 1595.85,1059.95 1609.37,1050.76 1624.58,1038.78 1638.14,1024.32 1649.92,1008.54 1661.38,989.956 1670.03,978.741 1679.76,965.48 1690.71,945.2 1700.68,923.387 1709.49,905.164 1717.3,893.62 1725.56,885.718 1734.64,877.075 1744.86,866.911 1755.35,851.49 1765.39,833.887 1773.99,821.229 1781.6,811.597 1790,800.499 1798.79,789.608 1807.1,778.776 1814.99,768.225 1823.75,757.202 1831.68,746.796 1840.59,732.548 1847.52,715.177 1853.97,701.247 1860.66,686.777 1866.48,677.422 1872.9,668.086 1876.89,661.271 1881.37,657.373 1886.42,654.096 1892.09,650.277 1898.48,644.886 1905.05,639.549 1911.5,634.136 1918.77,626.887 1926.37,619.048 1933.39,613.131 1941.19,607.614 1949.97,601.798 1958.97,596.956 1959.7,596.483 1968.75,606.828 1978.93,602.533 1989.32,597.479 1991.39,596.483 2003.08,720.229 2016.23,717.149 2027.64,714.086 2040.49,709.887 2053.81,705.209 2068.79,699.989 2085.1,695.36 2098.87,691.298 2114.37,687.8 2129.8,684.212 2147.17,680.538 2162.38,678.248 2179.5,675.664 2198.75,672.576 2217.91,668.921 2239.46,665.201 2257.94,663.093 2278.73,660.905 2302.13,658.726 2328.44,655.821 2352.76,653.36 "/>
<path clip-path="url(#clip560)" d="M1975.82 1377.32 L2280.8 1377.32 L2280.8 1221.8 L1975.82 1221.8  Z" fill="#ffffff" fill-rule="evenodd" fill-opacity="1"/>
<polyline clip-path="url(#clip560)" style="stroke:#000000; stroke-linecap:round; stroke-linejoin:round; stroke-width:4; stroke-opacity:1; fill:none" points="1975.82,1377.32 2280.8,1377.32 2280.8,1221.8 1975.82,1221.8 1975.82,1377.32 "/>
<polyline clip-path="url(#clip560)" style="stroke:#009af9; stroke-linecap:round; stroke-linejoin:round; stroke-width:8; stroke-opacity:1; fill:none" points="1999.8,1273.64 2143.72,1273.64 "/>
<path clip-path="url(#clip560)" d="M2167.71 1280.68 L2167.71 1264.99 L2171.97 1264.99 L2171.97 1280.52 Q2171.97 1284.2 2173.41 1286.05 Q2174.84 1287.88 2177.71 1287.88 Q2181.16 1287.88 2183.15 1285.68 Q2185.17 1283.48 2185.17 1279.69 L2185.17 1264.99 L2189.42 1264.99 L2189.42 1290.92 L2185.17 1290.92 L2185.17 1286.93 Q2183.61 1289.29 2181.55 1290.45 Q2179.52 1291.59 2176.81 1291.59 Q2172.34 1291.59 2170.03 1288.81 Q2167.71 1286.03 2167.71 1280.68 M2178.43 1264.36 L2178.43 1264.36 Z" fill="#000000" fill-rule="nonzero" fill-opacity="1" /><path clip-path="url(#clip560)" d="M2197.8 1254.9 L2207.62 1254.9 L2207.62 1258.21 L2202.06 1258.21 L2202.06 1293.86 L2207.62 1293.86 L2207.62 1297.17 L2197.8 1297.17 L2197.8 1254.9 Z" fill="#000000" fill-rule="nonzero" fill-opacity="1" /><path clip-path="url(#clip560)" d="M2218.1 1286.98 L2225.74 1286.98 L2225.74 1260.61 L2217.43 1262.28 L2217.43 1258.02 L2225.7 1256.36 L2230.37 1256.36 L2230.37 1286.98 L2238.01 1286.98 L2238.01 1290.92 L2218.1 1290.92 L2218.1 1286.98 Z" fill="#000000" fill-rule="nonzero" fill-opacity="1" /><path clip-path="url(#clip560)" d="M2256.81 1254.9 L2256.81 1297.17 L2246.99 1297.17 L2246.99 1293.86 L2252.53 1293.86 L2252.53 1258.21 L2246.99 1258.21 L2246.99 1254.9 L2256.81 1254.9 Z" fill="#000000" fill-rule="nonzero" fill-opacity="1" /><polyline clip-path="url(#clip560)" style="stroke:#e26f46; stroke-linecap:round; stroke-linejoin:round; stroke-width:8; stroke-opacity:1; fill:none" points="1999.8,1325.48 2143.72,1325.48 "/>
<path clip-path="url(#clip560)" d="M2167.71 1332.52 L2167.71 1316.83 L2171.97 1316.83 L2171.97 1332.36 Q2171.97 1336.04 2173.41 1337.89 Q2174.84 1339.72 2177.71 1339.72 Q2181.16 1339.72 2183.15 1337.52 Q2185.17 1335.32 2185.17 1331.53 L2185.17 1316.83 L2189.42 1316.83 L2189.42 1342.76 L2185.17 1342.76 L2185.17 1338.77 Q2183.61 1341.13 2181.55 1342.29 Q2179.52 1343.43 2176.81 1343.43 Q2172.34 1343.43 2170.03 1340.65 Q2167.71 1337.87 2167.71 1332.52 M2178.43 1316.2 L2178.43 1316.2 Z" fill="#000000" fill-rule="nonzero" fill-opacity="1" /><path clip-path="url(#clip560)" d="M2197.8 1306.74 L2207.62 1306.74 L2207.62 1310.05 L2202.06 1310.05 L2202.06 1345.7 L2207.62 1345.7 L2207.62 1349.01 L2197.8 1349.01 L2197.8 1306.74 Z" fill="#000000" fill-rule="nonzero" fill-opacity="1" /><path clip-path="url(#clip560)" d="M2221.32 1338.82 L2237.64 1338.82 L2237.64 1342.76 L2215.7 1342.76 L2215.7 1338.82 Q2218.36 1336.07 2222.94 1331.44 Q2227.55 1326.78 2228.73 1325.44 Q2230.98 1322.92 2231.85 1321.18 Q2232.76 1319.42 2232.76 1317.73 Q2232.76 1314.98 2230.81 1313.24 Q2228.89 1311.51 2225.79 1311.51 Q2223.59 1311.51 2221.14 1312.27 Q2218.71 1313.03 2215.93 1314.58 L2215.93 1309.86 Q2218.75 1308.73 2221.21 1308.15 Q2223.66 1307.57 2225.7 1307.57 Q2231.07 1307.57 2234.26 1310.26 Q2237.46 1312.94 2237.46 1317.43 Q2237.46 1319.56 2236.65 1321.48 Q2235.86 1323.38 2233.75 1325.97 Q2233.17 1326.64 2230.07 1329.86 Q2226.97 1333.06 2221.32 1338.82 Z" fill="#000000" fill-rule="nonzero" fill-opacity="1" /><path clip-path="url(#clip560)" d="M2256.81 1306.74 L2256.81 1349.01 L2246.99 1349.01 L2246.99 1345.7 L2252.53 1345.7 L2252.53 1310.05 L2246.99 1310.05 L2246.99 1306.74 L2256.81 1306.74 Z" fill="#000000" fill-rule="nonzero" fill-opacity="1" /></svg>
