<?xml version="1.0" encoding="utf-8"?>
<svg xmlns="http://www.w3.org/2000/svg" xmlns:xlink="http://www.w3.org/1999/xlink" width="600" height="400" viewBox="0 0 2400 1600">
<defs>
  <clipPath id="clip960">
    <rect x="0" y="0" width="2400" height="1600"/>
  </clipPath>
</defs>
<path clip-path="url(#clip960)" d="M0 1600 L2400 1600 L2400 0 L0 0  Z" fill="#ffffff" fill-rule="evenodd" fill-opacity="1"/>
<defs>
  <clipPath id="clip961">
    <rect x="480" y="0" width="1681" height="1600"/>
  </clipPath>
</defs>
<path clip-path="url(#clip960)" d="M140.696 1423.18 L2352.76 1423.18 L2352.76 47.2441 L140.696 47.2441  Z" fill="#ffffff" fill-rule="evenodd" fill-opacity="1"/>
<defs>
  <clipPath id="clip962">
    <rect x="140" y="47" width="2213" height="1377"/>
  </clipPath>
</defs>
<polyline clip-path="url(#clip962)" style="stroke:#000000; stroke-linecap:round; stroke-linejoin:round; stroke-width:2; stroke-opacity:0.1; fill:none" points="140.696,1423.18 140.696,47.2441 "/>
<polyline clip-path="url(#clip962)" style="stroke:#000000; stroke-linecap:round; stroke-linejoin:round; stroke-width:2; stroke-opacity:0.1; fill:none" points="583.108,1423.18 583.108,47.2441 "/>
<polyline clip-path="url(#clip962)" style="stroke:#000000; stroke-linecap:round; stroke-linejoin:round; stroke-width:2; stroke-opacity:0.1; fill:none" points="1025.52,1423.18 1025.52,47.2441 "/>
<polyline clip-path="url(#clip962)" style="stroke:#000000; stroke-linecap:round; stroke-linejoin:round; stroke-width:2; stroke-opacity:0.1; fill:none" points="1467.93,1423.18 1467.93,47.2441 "/>
<polyline clip-path="url(#clip962)" style="stroke:#000000; stroke-linecap:round; stroke-linejoin:round; stroke-width:2; stroke-opacity:0.1; fill:none" points="1910.34,1423.18 1910.34,47.2441 "/>
<polyline clip-path="url(#clip962)" style="stroke:#000000; stroke-linecap:round; stroke-linejoin:round; stroke-width:2; stroke-opacity:0.1; fill:none" points="2352.76,1423.18 2352.76,47.2441 "/>
<polyline clip-path="url(#clip960)" style="stroke:#000000; stroke-linecap:round; stroke-linejoin:round; stroke-width:4; stroke-opacity:1; fill:none" points="140.696,1423.18 2352.76,1423.18 "/>
<polyline clip-path="url(#clip960)" style="stroke:#000000; stroke-linecap:round; stroke-linejoin:round; stroke-width:4; stroke-opacity:1; fill:none" points="140.696,1423.18 140.696,1404.28 "/>
<polyline clip-path="url(#clip960)" style="stroke:#000000; stroke-linecap:round; stroke-linejoin:round; stroke-width:4; stroke-opacity:1; fill:none" points="583.108,1423.18 583.108,1404.28 "/>
<polyline clip-path="url(#clip960)" style="stroke:#000000; stroke-linecap:round; stroke-linejoin:round; stroke-width:4; stroke-opacity:1; fill:none" points="1025.52,1423.18 1025.52,1404.28 "/>
<polyline clip-path="url(#clip960)" style="stroke:#000000; stroke-linecap:round; stroke-linejoin:round; stroke-width:4; stroke-opacity:1; fill:none" points="1467.93,1423.18 1467.93,1404.28 "/>
<polyline clip-path="url(#clip960)" style="stroke:#000000; stroke-linecap:round; stroke-linejoin:round; stroke-width:4; stroke-opacity:1; fill:none" points="1910.34,1423.18 1910.34,1404.28 "/>
<polyline clip-path="url(#clip960)" style="stroke:#000000; stroke-linecap:round; stroke-linejoin:round; stroke-width:4; stroke-opacity:1; fill:none" points="2352.76,1423.18 2352.76,1404.28 "/>
<path clip-path="url(#clip960)" d="M140.696 1454.1 Q137.084 1454.1 135.256 1457.66 Q133.45 1461.2 133.45 1468.33 Q133.45 1475.44 135.256 1479.01 Q137.084 1482.55 140.696 1482.55 Q144.33 1482.55 146.135 1479.01 Q147.964 1475.44 147.964 1468.33 Q147.964 1461.2 146.135 1457.66 Q144.33 1454.1 140.696 1454.1 M140.696 1450.39 Q146.506 1450.39 149.561 1455 Q152.64 1459.58 152.64 1468.33 Q152.64 1477.06 149.561 1481.67 Q146.506 1486.25 140.696 1486.25 Q134.885 1486.25 131.807 1481.67 Q128.751 1477.06 128.751 1468.33 Q128.751 1459.58 131.807 1455 Q134.885 1450.39 140.696 1450.39 Z" fill="#000000" fill-rule="nonzero" fill-opacity="1" /><path clip-path="url(#clip960)" d="M577.76 1481.64 L594.08 1481.64 L594.08 1485.58 L572.135 1485.58 L572.135 1481.64 Q574.797 1478.89 579.381 1474.26 Q583.987 1469.61 585.168 1468.27 Q587.413 1465.74 588.293 1464.01 Q589.196 1462.25 589.196 1460.56 Q589.196 1457.8 587.251 1456.07 Q585.33 1454.33 582.228 1454.33 Q580.029 1454.33 577.575 1455.09 Q575.145 1455.86 572.367 1457.41 L572.367 1452.69 Q575.191 1451.55 577.645 1450.97 Q580.098 1450.39 582.135 1450.39 Q587.506 1450.39 590.7 1453.08 Q593.895 1455.77 593.895 1460.26 Q593.895 1462.39 593.084 1464.31 Q592.297 1466.2 590.191 1468.8 Q589.612 1469.47 586.51 1472.69 Q583.409 1475.88 577.76 1481.64 Z" fill="#000000" fill-rule="nonzero" fill-opacity="1" /><path clip-path="url(#clip960)" d="M1028.53 1455.09 L1016.72 1473.54 L1028.53 1473.54 L1028.53 1455.09 M1027.3 1451.02 L1033.18 1451.02 L1033.18 1473.54 L1038.11 1473.54 L1038.11 1477.43 L1033.18 1477.43 L1033.18 1485.58 L1028.53 1485.58 L1028.53 1477.43 L1012.93 1477.43 L1012.93 1472.92 L1027.3 1451.02 Z" fill="#000000" fill-rule="nonzero" fill-opacity="1" /><path clip-path="url(#clip960)" d="M1468.34 1466.44 Q1465.19 1466.44 1463.34 1468.59 Q1461.51 1470.74 1461.51 1474.49 Q1461.51 1478.22 1463.34 1480.39 Q1465.19 1482.55 1468.34 1482.55 Q1471.48 1482.55 1473.31 1480.39 Q1475.17 1478.22 1475.17 1474.49 Q1475.17 1470.74 1473.31 1468.59 Q1471.48 1466.44 1468.34 1466.44 M1477.62 1451.78 L1477.62 1456.04 Q1475.86 1455.21 1474.05 1454.77 Q1472.27 1454.33 1470.51 1454.33 Q1465.88 1454.33 1463.43 1457.45 Q1461 1460.58 1460.65 1466.9 Q1462.02 1464.89 1464.08 1463.82 Q1466.14 1462.73 1468.61 1462.73 Q1473.82 1462.73 1476.83 1465.9 Q1479.86 1469.05 1479.86 1474.49 Q1479.86 1479.82 1476.72 1483.03 Q1473.57 1486.25 1468.34 1486.25 Q1462.34 1486.25 1459.17 1481.67 Q1456 1477.06 1456 1468.33 Q1456 1460.14 1459.89 1455.28 Q1463.78 1450.39 1470.33 1450.39 Q1472.09 1450.39 1473.87 1450.74 Q1475.67 1451.09 1477.62 1451.78 Z" fill="#000000" fill-rule="nonzero" fill-opacity="1" /><path clip-path="url(#clip960)" d="M1910.34 1469.17 Q1907.01 1469.17 1905.09 1470.95 Q1903.19 1472.73 1903.19 1475.86 Q1903.19 1478.98 1905.09 1480.77 Q1907.01 1482.55 1910.34 1482.55 Q1913.68 1482.55 1915.6 1480.77 Q1917.52 1478.96 1917.52 1475.86 Q1917.52 1472.73 1915.6 1470.95 Q1913.7 1469.17 1910.34 1469.17 M1905.67 1467.18 Q1902.66 1466.44 1900.97 1464.38 Q1899.3 1462.32 1899.3 1459.35 Q1899.3 1455.21 1902.24 1452.8 Q1905.2 1450.39 1910.34 1450.39 Q1915.51 1450.39 1918.45 1452.8 Q1921.39 1455.21 1921.39 1459.35 Q1921.39 1462.32 1919.7 1464.38 Q1918.03 1466.44 1915.04 1467.18 Q1918.42 1467.96 1920.3 1470.26 Q1922.2 1472.55 1922.2 1475.86 Q1922.2 1480.88 1919.12 1483.57 Q1916.06 1486.25 1910.34 1486.25 Q1904.63 1486.25 1901.55 1483.57 Q1898.49 1480.88 1898.49 1475.86 Q1898.49 1472.55 1900.39 1470.26 Q1902.29 1467.96 1905.67 1467.18 M1903.95 1459.79 Q1903.95 1462.48 1905.62 1463.98 Q1907.31 1465.49 1910.34 1465.49 Q1913.35 1465.49 1915.04 1463.98 Q1916.76 1462.48 1916.76 1459.79 Q1916.76 1457.11 1915.04 1455.6 Q1913.35 1454.1 1910.34 1454.1 Q1907.31 1454.1 1905.62 1455.6 Q1903.95 1457.11 1903.95 1459.79 Z" fill="#000000" fill-rule="nonzero" fill-opacity="1" /><path clip-path="url(#clip960)" d="M2327.44 1481.64 L2335.08 1481.64 L2335.08 1455.28 L2326.77 1456.95 L2326.77 1452.69 L2335.04 1451.02 L2339.71 1451.02 L2339.71 1481.64 L2347.35 1481.64 L2347.35 1485.58 L2327.44 1485.58 L2327.44 1481.64 Z" fill="#000000" fill-rule="nonzero" fill-opacity="1" /><path clip-path="url(#clip960)" d="M2366.8 1454.1 Q2363.18 1454.1 2361.36 1457.66 Q2359.55 1461.2 2359.55 1468.33 Q2359.55 1475.44 2361.36 1479.01 Q2363.18 1482.55 2366.8 1482.55 Q2370.43 1482.55 2372.23 1479.01 Q2374.06 1475.44 2374.06 1468.33 Q2374.06 1461.2 2372.23 1457.66 Q2370.43 1454.1 2366.8 1454.1 M2366.8 1450.39 Q2372.61 1450.39 2375.66 1455 Q2378.74 1459.58 2378.74 1468.33 Q2378.74 1477.06 2375.66 1481.67 Q2372.61 1486.25 2366.8 1486.25 Q2360.99 1486.25 2357.91 1481.67 Q2354.85 1477.06 2354.85 1468.33 Q2354.85 1459.58 2357.91 1455 Q2360.99 1450.39 2366.8 1450.39 Z" fill="#000000" fill-rule="nonzero" fill-opacity="1" /><path clip-path="url(#clip960)" d="M1245.79 1522.27 L1245.79 1532.4 L1257.85 1532.4 L1257.85 1536.95 L1245.79 1536.95 L1245.79 1556.3 Q1245.79 1560.66 1246.96 1561.9 Q1248.17 1563.14 1251.83 1563.14 L1257.85 1563.14 L1257.85 1568.04 L1251.83 1568.04 Q1245.05 1568.04 1242.48 1565.53 Q1239.9 1562.98 1239.9 1556.3 L1239.9 1536.95 L1235.6 1536.95 L1235.6 1532.4 L1239.9 1532.4 L1239.9 1522.27 L1245.79 1522.27 Z" fill="#000000" fill-rule="nonzero" fill-opacity="1" /><polyline clip-path="url(#clip962)" style="stroke:#000000; stroke-linecap:round; stroke-linejoin:round; stroke-width:2; stroke-opacity:0.1; fill:none" points="140.696,1384.24 2352.76,1384.24 "/>
<polyline clip-path="url(#clip962)" style="stroke:#000000; stroke-linecap:round; stroke-linejoin:round; stroke-width:2; stroke-opacity:0.1; fill:none" points="140.696,1089.23 2352.76,1089.23 "/>
<polyline clip-path="url(#clip962)" style="stroke:#000000; stroke-linecap:round; stroke-linejoin:round; stroke-width:2; stroke-opacity:0.1; fill:none" points="140.696,794.214 2352.76,794.214 "/>
<polyline clip-path="url(#clip962)" style="stroke:#000000; stroke-linecap:round; stroke-linejoin:round; stroke-width:2; stroke-opacity:0.1; fill:none" points="140.696,499.202 2352.76,499.202 "/>
<polyline clip-path="url(#clip962)" style="stroke:#000000; stroke-linecap:round; stroke-linejoin:round; stroke-width:2; stroke-opacity:0.1; fill:none" points="140.696,204.19 2352.76,204.19 "/>
<polyline clip-path="url(#clip960)" style="stroke:#000000; stroke-linecap:round; stroke-linejoin:round; stroke-width:4; stroke-opacity:1; fill:none" points="140.696,1423.18 140.696,47.2441 "/>
<polyline clip-path="url(#clip960)" style="stroke:#000000; stroke-linecap:round; stroke-linejoin:round; stroke-width:4; stroke-opacity:1; fill:none" points="140.696,1384.24 159.593,1384.24 "/>
<polyline clip-path="url(#clip960)" style="stroke:#000000; stroke-linecap:round; stroke-linejoin:round; stroke-width:4; stroke-opacity:1; fill:none" points="140.696,1089.23 159.593,1089.23 "/>
<polyline clip-path="url(#clip960)" style="stroke:#000000; stroke-linecap:round; stroke-linejoin:round; stroke-width:4; stroke-opacity:1; fill:none" points="140.696,794.214 159.593,794.214 "/>
<polyline clip-path="url(#clip960)" style="stroke:#000000; stroke-linecap:round; stroke-linejoin:round; stroke-width:4; stroke-opacity:1; fill:none" points="140.696,499.202 159.593,499.202 "/>
<polyline clip-path="url(#clip960)" style="stroke:#000000; stroke-linecap:round; stroke-linejoin:round; stroke-width:4; stroke-opacity:1; fill:none" points="140.696,204.19 159.593,204.19 "/>
<path clip-path="url(#clip960)" d="M92.7512 1370.04 Q89.1401 1370.04 87.3114 1373.6 Q85.5058 1377.14 85.5058 1384.27 Q85.5058 1391.38 87.3114 1394.94 Q89.1401 1398.49 92.7512 1398.49 Q96.3854 1398.49 98.1909 1394.94 Q100.02 1391.38 100.02 1384.27 Q100.02 1377.14 98.1909 1373.6 Q96.3854 1370.04 92.7512 1370.04 M92.7512 1366.33 Q98.5613 1366.33 101.617 1370.94 Q104.696 1375.52 104.696 1384.27 Q104.696 1393 101.617 1397.61 Q98.5613 1402.19 92.7512 1402.19 Q86.941 1402.19 83.8623 1397.61 Q80.8068 1393 80.8068 1384.27 Q80.8068 1375.52 83.8623 1370.94 Q86.941 1366.33 92.7512 1366.33 Z" fill="#000000" fill-rule="nonzero" fill-opacity="1" /><path clip-path="url(#clip960)" d="M83.7929 1071.95 L102.149 1071.95 L102.149 1075.88 L88.0753 1075.88 L88.0753 1084.35 Q89.0938 1084.01 90.1123 1083.84 Q91.1308 1083.66 92.1493 1083.66 Q97.9363 1083.66 101.316 1086.83 Q104.696 1090 104.696 1095.42 Q104.696 1101 101.223 1104.1 Q97.7511 1107.18 91.4317 1107.18 Q89.2558 1107.18 86.9873 1106.81 Q84.7419 1106.44 82.3346 1105.7 L82.3346 1101 Q84.4179 1102.13 86.6401 1102.69 Q88.8623 1103.24 91.3391 1103.24 Q95.3437 1103.24 97.6817 1101.14 Q100.02 1099.03 100.02 1095.42 Q100.02 1091.81 97.6817 1089.7 Q95.3437 1087.59 91.3391 1087.59 Q89.4641 1087.59 87.5892 1088.01 Q85.7373 1088.43 83.7929 1089.31 L83.7929 1071.95 Z" fill="#000000" fill-rule="nonzero" fill-opacity="1" /><path clip-path="url(#clip960)" d="M53.3995 807.559 L61.0384 807.559 L61.0384 781.194 L52.7282 782.86 L52.7282 778.601 L60.9921 776.934 L65.668 776.934 L65.668 807.559 L73.3068 807.559 L73.3068 811.494 L53.3995 811.494 L53.3995 807.559 Z" fill="#000000" fill-rule="nonzero" fill-opacity="1" /><path clip-path="url(#clip960)" d="M92.7512 780.013 Q89.1401 780.013 87.3114 783.578 Q85.5058 787.119 85.5058 794.249 Q85.5058 801.356 87.3114 804.92 Q89.1401 808.462 92.7512 808.462 Q96.3854 808.462 98.1909 804.92 Q100.02 801.356 100.02 794.249 Q100.02 787.119 98.1909 783.578 Q96.3854 780.013 92.7512 780.013 M92.7512 776.309 Q98.5613 776.309 101.617 780.916 Q104.696 785.499 104.696 794.249 Q104.696 802.976 101.617 807.582 Q98.5613 812.166 92.7512 812.166 Q86.941 812.166 83.8623 807.582 Q80.8068 802.976 80.8068 794.249 Q80.8068 785.499 83.8623 780.916 Q86.941 776.309 92.7512 776.309 Z" fill="#000000" fill-rule="nonzero" fill-opacity="1" /><path clip-path="url(#clip960)" d="M54.3949 512.547 L62.0337 512.547 L62.0337 486.182 L53.7236 487.848 L53.7236 483.589 L61.9874 481.922 L66.6633 481.922 L66.6633 512.547 L74.3022 512.547 L74.3022 516.482 L54.3949 516.482 L54.3949 512.547 Z" fill="#000000" fill-rule="nonzero" fill-opacity="1" /><path clip-path="url(#clip960)" d="M83.7929 481.922 L102.149 481.922 L102.149 485.858 L88.0753 485.858 L88.0753 494.33 Q89.0938 493.983 90.1123 493.82 Q91.1308 493.635 92.1493 493.635 Q97.9363 493.635 101.316 496.807 Q104.696 499.978 104.696 505.395 Q104.696 510.973 101.223 514.075 Q97.7511 517.154 91.4317 517.154 Q89.2558 517.154 86.9873 516.783 Q84.7419 516.413 82.3346 515.672 L82.3346 510.973 Q84.4179 512.107 86.6401 512.663 Q88.8623 513.219 91.3391 513.219 Q95.3437 513.219 97.6817 511.112 Q100.02 509.006 100.02 505.395 Q100.02 501.783 97.6817 499.677 Q95.3437 497.57 91.3391 497.57 Q89.4641 497.57 87.5892 497.987 Q85.7373 498.404 83.7929 499.283 L83.7929 481.922 Z" fill="#000000" fill-rule="nonzero" fill-opacity="1" /><path clip-path="url(#clip960)" d="M56.6171 217.535 L72.9365 217.535 L72.9365 221.47 L50.9921 221.47 L50.9921 217.535 Q53.6541 214.781 58.2375 210.151 Q62.8439 205.498 64.0245 204.156 Q66.2698 201.633 67.1494 199.896 Q68.0522 198.137 68.0522 196.447 Q68.0522 193.693 66.1078 191.957 Q64.1865 190.221 61.0847 190.221 Q58.8856 190.221 56.4319 190.985 Q54.0014 191.748 51.2236 193.299 L51.2236 188.577 Q54.0477 187.443 56.5014 186.864 Q58.955 186.285 60.9921 186.285 Q66.3624 186.285 69.5568 188.971 Q72.7513 191.656 72.7513 196.147 Q72.7513 198.276 71.9411 200.197 Q71.1541 202.096 69.0476 204.688 Q68.4689 205.359 65.367 208.577 Q62.2652 211.771 56.6171 217.535 Z" fill="#000000" fill-rule="nonzero" fill-opacity="1" /><path clip-path="url(#clip960)" d="M92.7512 189.989 Q89.1401 189.989 87.3114 193.554 Q85.5058 197.096 85.5058 204.225 Q85.5058 211.332 87.3114 214.896 Q89.1401 218.438 92.7512 218.438 Q96.3854 218.438 98.1909 214.896 Q100.02 211.332 100.02 204.225 Q100.02 197.096 98.1909 193.554 Q96.3854 189.989 92.7512 189.989 M92.7512 186.285 Q98.5613 186.285 101.617 190.892 Q104.696 195.475 104.696 204.225 Q104.696 212.952 101.617 217.558 Q98.5613 222.142 92.7512 222.142 Q86.941 222.142 83.8623 217.558 Q80.8068 212.952 80.8068 204.225 Q80.8068 195.475 83.8623 190.892 Q86.941 186.285 92.7512 186.285 Z" fill="#000000" fill-rule="nonzero" fill-opacity="1" /><polyline clip-path="url(#clip962)" style="stroke:#009af9; stroke-linecap:round; stroke-linejoin:round; stroke-width:8; stroke-opacity:1; fill:none" points="140.696,1384.24 141.618,1384.24 142.54,1384.24 143.462,1384.24 144.384,1384.24 145.306,1384.24 146.228,1384.24 147.15,1384.24 148.072,1384.24 148.994,1384.24 149.916,1384.24 150.838,1384.24 151.76,1384.24 152.683,1384.24 153.605,1384.24 154.527,1384.24 155.449,1384.24 156.371,1384.24 157.293,1384.24 158.215,1384.24 159.137,1384.24 160.059,1384.24 160.981,1384.24 161.903,1384.24 162.825,1384.24 163.747,1384.24 164.67,1384.24 165.592,1384.24 166.514,1384.24 167.436,1384.24 168.358,1384.24 169.28,1384.24 170.202,1384.24 171.124,1384.24 172.046,1384.24 172.968,1384.24 173.89,1325.24 174.812,1325.24 175.734,1325.24 176.657,1325.24 177.579,1325.24 178.501,1325.24 179.423,1325.24 180.345,1325.24 181.267,1325.24 182.189,1325.24 183.111,1325.24 184.033,1325.24 184.955,1325.24 185.877,1325.24 186.799,1325.24 187.721,1325.24 188.643,1325.24 189.566,1325.24 190.488,1325.24 191.41,1325.24 192.332,1325.24 193.254,1325.24 194.176,1325.24 195.098,1325.24 196.02,1325.24 196.942,1325.24 197.864,1325.24 198.786,1325.24 199.708,1325.24 200.63,1325.24 201.553,1325.24 202.475,1325.24 203.397,1325.24 204.319,1325.24 205.241,1325.24 206.163,1325.24 207.085,1325.24 208.007,1325.24 208.929,1325.24 209.851,1325.24 210.773,1325.24 211.695,1325.24 212.617,1325.24 213.54,1325.24 214.462,1325.24 215.384,1325.24 216.306,1325.24 217.228,1325.24 218.15,1325.24 219.072,1325.24 219.994,1325.24 220.916,1325.24 221.838,1325.24 222.76,1325.24 223.682,1325.24 224.604,1325.24 225.527,1325.24 226.449,1325.24 227.371,1325.24 228.293,1325.24 229.215,1325.24 230.137,1325.24 231.059,1325.24 231.981,1325.24 232.903,1325.24 233.825,1325.24 234.747,1325.24 235.669,1325.24 236.591,1325.24 237.514,1325.24 238.436,1325.24 239.358,1325.24 240.28,1325.24 241.202,1325.24 242.124,1325.24 243.046,1325.24 243.968,1325.24 244.89,1325.24 245.812,1325.24 246.734,1325.24 247.656,1325.24 248.578,1325.24 249.501,1325.24 250.423,1325.24 251.345,1325.24 252.267,1325.24 253.189,1325.24 254.111,1325.24 255.033,1325.24 255.955,1325.24 256.877,1325.24 257.799,1325.24 258.721,1325.24 259.643,1325.24 260.565,1325.24 261.488,1325.24 262.41,1325.24 263.332,1325.24 264.254,1325.24 265.176,1325.24 266.098,1325.24 267.02,1325.24 267.942,1325.24 268.864,1325.24 269.786,1325.24 270.708,1266.23 271.63,1266.23 272.552,1266.23 273.474,1266.23 274.397,1266.23 275.319,1266.23 276.241,1266.23 277.163,1266.23 278.085,1266.23 279.007,1266.23 279.929,1266.23 280.851,1266.23 281.773,1266.23 282.695,1266.23 283.617,1266.23 284.539,1266.23 285.461,1266.23 286.384,1266.23 287.306,1266.23 288.228,1266.23 289.15,1266.23 290.072,1266.23 290.994,1266.23 291.916,1266.23 292.838,1266.23 293.76,1266.23 294.682,1266.23 295.604,1266.23 296.526,1266.23 297.448,1266.23 298.371,1266.23 299.293,1266.23 300.215,1266.23 301.137,1266.23 302.059,1266.23 302.981,1266.23 303.903,1266.23 304.825,1266.23 305.747,1266.23 306.669,1266.23 307.591,1266.23 308.513,1266.23 309.435,1266.23 310.358,1266.23 311.28,1266.23 312.202,1266.23 313.124,1266.23 314.046,1266.23 314.968,1266.23 315.89,1266.23 316.812,1266.23 317.734,1266.23 318.656,1266.23 319.578,1266.23 320.5,1266.23 321.422,1266.23 322.345,1266.23 323.267,1266.23 324.189,1266.23 325.111,1266.23 326.033,1266.23 326.955,1266.23 327.877,1266.23 328.799,1266.23 329.721,1266.23 330.643,1266.23 331.565,1266.23 332.487,1266.23 333.409,1266.23 334.332,1266.23 335.254,1266.23 336.176,1266.23 337.098,1266.23 338.02,1266.23 338.942,1266.23 339.864,1266.23 340.786,1266.23 341.708,1266.23 342.63,1266.23 343.552,1266.23 344.474,1266.23 345.396,1207.23 346.318,1207.23 347.241,1207.23 348.163,1207.23 349.085,1207.23 350.007,1207.23 350.929,1207.23 351.851,1207.23 352.773,1207.23 353.695,1207.23 354.617,1207.23 355.539,1207.23 356.461,1207.23 357.383,1207.23 358.305,1207.23 359.228,1148.23 360.15,1148.23 361.072,1148.23 361.994,1148.23 362.916,1148.23 363.838,1148.23 364.76,1148.23 365.682,1148.23 366.604,1148.23 367.526,1148.23 368.448,1148.23 369.37,1148.23 370.292,1148.23 371.215,1148.23 372.137,1148.23 373.059,1148.23 373.981,1148.23 374.903,1148.23 375.825,1148.23 376.747,1148.23 377.669,1148.23 378.591,1148.23 379.513,1148.23 380.435,1148.23 381.357,1148.23 382.279,1148.23 383.202,1148.23 384.124,1148.23 385.046,1148.23 385.968,1148.23 386.89,1148.23 387.812,1148.23 388.734,1148.23 389.656,1148.23 390.578,1148.23 391.5,1148.23 392.422,1148.23 393.344,1148.23 394.266,1148.23 395.189,1148.23 396.111,1148.23 397.033,1148.23 397.955,1148.23 398.877,1148.23 399.799,1148.23 400.721,1148.23 401.643,1148.23 402.565,1148.23 403.487,1148.23 404.409,1148.23 405.331,1148.23 406.253,1148.23 407.176,1148.23 408.098,1148.23 409.02,1148.23 409.942,1148.23 410.864,1148.23 411.786,1148.23 412.708,1148.23 413.63,1148.23 414.552,1148.23 415.474,1148.23 416.396,1148.23 417.318,1148.23 418.24,1148.23 419.162,1148.23 420.085,1148.23 421.007,1148.23 421.929,1148.23 422.851,1148.23 423.773,1148.23 424.695,1148.23 425.617,1148.23 426.539,1148.23 427.461,1148.23 428.383,1148.23 429.305,1148.23 430.227,1148.23 431.149,1148.23 432.072,1148.23 432.994,1148.23 433.916,1148.23 434.838,1148.23 435.76,1148.23 436.682,1148.23 437.604,1148.23 438.526,1148.23 439.448,1148.23 440.37,1148.23 441.292,1148.23 442.214,1089.23 443.136,1089.23 444.059,1089.23 444.981,1089.23 445.903,1089.23 446.825,1089.23 447.747,1089.23 448.669,1089.23 449.591,1089.23 450.513,1089.23 451.435,1089.23 452.357,1089.23 453.279,1089.23 454.201,1089.23 455.123,1089.23 456.046,1089.23 456.968,1089.23 457.89,1089.23 458.812,1030.22 459.734,1030.22 460.656,1030.22 461.578,1030.22 462.5,1030.22 463.422,1030.22 464.344,1030.22 465.266,1030.22 466.188,1030.22 467.11,1030.22 468.033,1030.22 468.955,1030.22 469.877,1030.22 470.799,1030.22 471.721,1030.22 472.643,1030.22 473.565,1030.22 474.487,1030.22 475.409,1030.22 476.331,1030.22 477.253,1030.22 478.175,1030.22 479.097,1030.22 480.02,1030.22 480.942,1030.22 481.864,1030.22 482.786,1030.22 483.708,1030.22 484.63,1030.22 485.552,1030.22 486.474,1030.22 487.396,1030.22 488.318,1030.22 489.24,1030.22 490.162,1030.22 491.084,1030.22 492.007,1030.22 492.929,1030.22 493.851,1030.22 494.773,1030.22 495.695,1030.22 496.617,1030.22 497.539,1030.22 498.461,1030.22 499.383,1030.22 500.305,1030.22 501.227,1030.22 502.149,1030.22 503.071,1030.22 503.993,971.222 504.916,971.222 505.838,971.222 506.76,971.222 507.682,971.222 508.604,971.222 509.526,971.222 510.448,971.222 511.37,971.222 512.292,971.222 513.214,971.222 514.136,971.222 515.058,971.222 515.98,971.222 516.903,971.222 517.825,971.222 518.747,971.222 519.669,971.222 520.591,971.222 521.513,971.222 522.435,971.222 523.357,971.222 524.279,971.222 525.201,971.222 526.123,971.222 527.045,971.222 527.967,971.222 528.89,971.222 529.812,971.222 530.734,971.222 531.656,971.222 532.578,971.222 533.5,971.222 534.422,971.222 535.344,971.222 536.266,971.222 537.188,971.222 538.11,971.222 539.032,971.222 539.954,971.222 540.877,971.222 541.799,971.222 542.721,971.222 543.643,971.222 544.565,971.222 545.487,971.222 546.409,971.222 547.331,971.222 548.253,971.222 549.175,971.222 550.097,971.222 551.019,971.222 551.941,971.222 552.864,971.222 553.786,971.222 554.708,971.222 555.63,971.222 556.552,971.222 557.474,971.222 558.396,971.222 559.318,971.222 560.24,971.222 561.162,971.222 562.084,971.222 563.006,971.222 563.928,971.222 564.851,971.222 565.773,971.222 566.695,971.222 567.617,971.222 568.539,971.222 569.461,971.222 570.383,971.222 571.305,971.222 572.227,971.222 573.149,971.222 574.071,971.222 574.993,971.222 575.915,971.222 576.837,971.222 577.76,971.222 578.682,971.222 579.604,971.222 580.526,971.222 581.448,971.222 582.37,971.222 583.292,971.222 584.214,971.222 585.136,971.222 586.058,971.222 586.98,971.222 587.902,971.222 588.824,971.222 589.747,971.222 590.669,971.222 591.591,971.222 592.513,971.222 593.435,971.222 594.357,971.222 595.279,971.222 596.201,971.222 597.123,971.222 598.045,971.222 598.967,971.222 599.889,971.222 600.811,971.222 601.734,971.222 602.656,971.222 603.578,971.222 604.5,971.222 605.422,971.222 606.344,971.222 607.266,971.222 608.188,971.222 609.11,971.222 610.032,971.222 610.954,971.222 611.876,971.222 612.798,971.222 613.721,971.222 614.643,971.222 615.565,971.222 616.487,971.222 617.409,971.222 618.331,971.222 619.253,971.222 620.175,971.222 621.097,971.222 622.019,971.222 622.941,971.222 623.863,971.222 624.785,971.222 625.708,971.222 626.63,971.222 627.552,971.222 628.474,971.222 629.396,971.222 630.318,971.222 631.24,971.222 632.162,971.222 633.084,971.222 634.006,971.222 634.928,971.222 635.85,971.222 636.772,971.222 637.695,971.222 638.617,971.222 639.539,971.222 640.461,971.222 641.383,971.222 642.305,971.222 643.227,971.222 644.149,971.222 645.071,971.222 645.993,971.222 646.915,971.222 647.837,971.222 648.759,971.222 649.682,971.222 650.604,971.222 651.526,971.222 652.448,971.222 653.37,971.222 654.292,971.222 655.214,971.222 656.136,971.222 657.058,971.222 657.98,971.222 658.902,971.222 659.824,971.222 660.746,971.222 661.668,971.222 662.591,971.222 663.513,971.222 664.435,971.222 665.357,971.222 666.279,971.222 667.201,971.222 668.123,971.222 669.045,971.222 669.967,971.222 670.889,971.222 671.811,971.222 672.733,971.222 673.655,971.222 674.578,971.222 675.5,971.222 676.422,971.222 677.344,971.222 678.266,971.222 679.188,971.222 680.11,971.222 681.032,971.222 681.954,971.222 682.876,971.222 683.798,971.222 684.72,971.222 685.642,971.222 686.565,971.222 687.487,971.222 688.409,971.222 689.331,971.222 690.253,971.222 691.175,971.222 692.097,971.222 693.019,971.222 693.941,971.222 694.863,971.222 695.785,971.222 696.707,971.222 697.629,971.222 698.552,971.222 699.474,971.222 700.396,971.222 701.318,971.222 702.24,971.222 703.162,971.222 704.084,971.222 705.006,971.222 705.928,971.222 706.85,971.222 707.772,971.222 708.694,912.219 709.616,912.219 710.539,912.219 711.461,912.219 712.383,912.219 713.305,912.219 714.227,912.219 715.149,912.219 716.071,912.219 716.993,912.219 717.915,912.219 718.837,912.219 719.759,912.219 720.681,912.219 721.603,912.219 722.526,912.219 723.448,912.219 724.37,912.219 725.292,853.217 726.214,853.217 727.136,853.217 728.058,853.217 728.98,853.217 729.902,853.217 730.824,853.217 731.746,853.217 732.668,853.217 733.59,853.217 734.512,853.217 735.435,853.217 736.357,853.217 737.279,853.217 738.201,853.217 739.123,853.217 740.045,853.217 740.967,794.214 741.889,794.214 742.811,794.214 743.733,794.214 744.655,794.214 745.577,794.214 746.499,794.214 747.422,794.214 748.344,794.214 749.266,794.214 750.188,794.214 751.11,794.214 752.032,794.214 752.954,794.214 753.876,794.214 754.798,794.214 755.72,794.214 756.642,794.214 757.564,794.214 758.486,794.214 759.409,794.214 760.331,794.214 761.253,794.214 762.175,794.214 763.097,794.214 764.019,794.214 764.941,794.214 765.863,794.214 766.785,794.214 767.707,794.214 768.629,794.214 769.551,794.214 770.473,794.214 771.396,794.214 772.318,794.214 773.24,794.214 774.162,794.214 775.084,794.214 776.006,794.214 776.928,794.214 777.85,735.212 778.772,735.212 779.694,735.212 780.616,735.212 781.538,735.212 782.46,735.212 783.383,735.212 784.305,735.212 785.227,735.212 786.149,735.212 787.071,735.212 787.993,735.212 788.915,735.212 789.837,735.212 790.759,735.212 791.681,735.212 792.603,735.212 793.525,735.212 794.447,735.212 795.37,735.212 796.292,735.212 797.214,735.212 798.136,735.212 799.058,735.212 799.98,735.212 800.902,735.212 801.824,735.212 802.746,735.212 803.668,735.212 804.59,735.212 805.512,735.212 806.434,735.212 807.357,735.212 808.279,735.212 809.201,735.212 810.123,735.212 811.045,735.212 811.967,735.212 812.889,735.212 813.811,735.212 814.733,735.212 815.655,735.212 816.577,735.212 817.499,735.212 818.421,735.212 819.343,735.212 820.266,735.212 821.188,735.212 822.11,735.212 823.032,735.212 823.954,735.212 824.876,735.212 825.798,735.212 826.72,735.212 827.642,735.212 828.564,735.212 829.486,735.212 830.408,735.212 831.33,735.212 832.253,735.212 833.175,735.212 834.097,735.212 835.019,735.212 835.941,735.212 836.863,735.212 837.785,735.212 838.707,735.212 839.629,735.212 840.551,735.212 841.473,735.212 842.395,735.212 843.317,735.212 844.24,735.212 845.162,735.212 846.084,735.212 847.006,735.212 847.928,735.212 848.85,735.212 849.772,735.212 850.694,735.212 851.616,735.212 852.538,735.212 853.46,735.212 854.382,735.212 855.304,735.212 856.227,735.212 857.149,735.212 858.071,735.212 858.993,735.212 859.915,735.212 860.837,735.212 861.759,735.212 862.681,735.212 863.603,735.212 864.525,735.212 865.447,735.212 866.369,735.212 867.291,735.212 868.214,735.212 869.136,735.212 870.058,735.212 870.98,735.212 871.902,735.212 872.824,735.212 873.746,735.212 874.668,735.212 875.59,735.212 876.512,735.212 877.434,735.212 878.356,735.212 879.278,735.212 880.201,735.212 881.123,735.212 882.045,735.212 882.967,735.212 883.889,735.212 884.811,735.212 885.733,735.212 886.655,735.212 887.577,735.212 888.499,735.212 889.421,735.212 890.343,735.212 891.265,735.212 892.187,735.212 893.11,735.212 894.032,735.212 894.954,735.212 895.876,735.212 896.798,735.212 897.72,735.212 898.642,735.212 899.564,735.212 900.486,735.212 901.408,735.212 902.33,735.212 903.252,735.212 904.174,735.212 905.097,735.212 906.019,735.212 906.941,735.212 907.863,735.212 908.785,735.212 909.707,735.212 910.629,676.21 911.551,676.21 912.473,676.21 913.395,676.21 914.317,676.21 915.239,676.21 916.161,676.21 917.084,676.21 918.006,676.21 918.928,676.21 919.85,676.21 920.772,676.21 921.694,676.21 922.616,676.21 923.538,676.21 924.46,676.21 925.382,676.21 926.304,676.21 927.226,676.21 928.148,676.21 929.071,676.21 929.993,676.21 930.915,676.21 931.837,676.21 932.759,676.21 933.681,676.21 934.603,676.21 935.525,676.21 936.447,676.21 937.369,676.21 938.291,676.21 939.213,676.21 940.135,676.21 941.058,676.21 941.98,676.21 942.902,676.21 943.824,676.21 944.746,676.21 945.668,676.21 946.59,676.21 947.512,676.21 948.434,676.21 949.356,676.21 950.278,676.21 951.2,676.21 952.122,676.21 953.045,676.21 953.967,676.21 954.889,676.21 955.811,676.21 956.733,676.21 957.655,676.21 958.577,676.21 959.499,676.21 960.421,676.21 961.343,676.21 962.265,676.21 963.187,676.21 964.109,676.21 965.032,676.21 965.954,676.21 966.876,676.21 967.798,676.21 968.72,676.21 969.642,676.21 970.564,676.21 971.486,676.21 972.408,676.21 973.33,676.21 974.252,676.21 975.174,676.21 976.096,676.21 977.018,676.21 977.941,676.21 978.863,676.21 979.785,676.21 980.707,676.21 981.629,676.21 982.551,676.21 983.473,676.21 984.395,676.21 985.317,676.21 986.239,617.207 987.161,617.207 988.083,617.207 989.005,617.207 989.928,617.207 990.85,617.207 991.772,617.207 992.694,617.207 993.616,617.207 994.538,617.207 995.46,617.207 996.382,617.207 997.304,617.207 998.226,617.207 999.148,617.207 1000.07,617.207 1000.99,617.207 1001.91,617.207 1002.84,617.207 1003.76,617.207 1004.68,617.207 1005.6,617.207 1006.52,617.207 1007.45,617.207 1008.37,617.207 1009.29,617.207 1010.21,617.207 1011.14,617.207 1012.06,617.207 1012.98,617.207 1013.9,617.207 1014.82,617.207 1015.75,617.207 1016.67,617.207 1017.59,617.207 1018.51,617.207 1019.43,617.207 1020.36,617.207 1021.28,617.207 1022.2,617.207 1023.12,617.207 1024.04,617.207 1024.97,617.207 1025.89,617.207 1026.81,617.207 1027.73,617.207 1028.65,617.207 1029.58,617.207 1030.5,617.207 1031.42,617.207 1032.34,617.207 1033.27,617.207 1034.19,617.207 1035.11,617.207 1036.03,617.207 1036.95,617.207 1037.88,617.207 1038.8,617.207 1039.72,617.207 1040.64,617.207 1041.56,617.207 1042.49,617.207 1043.41,617.207 1044.33,617.207 1045.25,617.207 1046.17,617.207 1047.1,617.207 1048.02,558.205 1048.94,558.205 1049.86,558.205 1050.78,558.205 1051.71,558.205 1052.63,558.205 1053.55,558.205 1054.47,558.205 1055.39,558.205 1056.32,558.205 1057.24,558.205 1058.16,558.205 1059.08,499.202 1060.01,499.202 1060.93,499.202 1061.85,499.202 1062.77,499.202 1063.69,499.202 1064.62,499.202 1065.54,499.202 1066.46,499.202 1067.38,499.202 1068.3,499.202 1069.23,499.202 1070.15,499.202 1071.07,499.202 1071.99,499.202 1072.91,499.202 1073.84,499.202 1074.76,499.202 1075.68,499.202 1076.6,499.202 1077.52,499.202 1078.45,499.202 1079.37,499.202 1080.29,499.202 1081.21,499.202 1082.14,499.202 1083.06,499.202 1083.98,499.202 1084.9,499.202 1085.82,499.202 1086.75,499.202 1087.67,499.202 1088.59,499.202 1089.51,499.202 1090.43,499.202 1091.36,499.202 1092.28,499.202 1093.2,499.202 1094.12,499.202 1095.04,499.202 1095.97,499.202 1096.89,499.202 1097.81,499.202 1098.73,499.202 1099.65,499.202 1100.58,499.202 1101.5,499.202 1102.42,499.202 1103.34,499.202 1104.26,499.202 1105.19,499.202 1106.11,499.202 1107.03,499.202 1107.95,499.202 1108.88,499.202 1109.8,499.202 1110.72,499.202 1111.64,499.202 1112.56,499.202 1113.49,499.202 1114.41,499.202 1115.33,499.202 1116.25,499.202 1117.17,499.202 1118.1,499.202 1119.02,499.202 1119.94,499.202 1120.86,499.202 1121.78,499.202 1122.71,499.202 1123.63,499.202 1124.55,499.202 1125.47,499.202 1126.39,499.202 1127.32,499.202 1128.24,499.202 1129.16,499.202 1130.08,499.202 1131.01,499.202 1131.93,499.202 1132.85,499.202 1133.77,499.202 1134.69,499.202 1135.62,499.202 1136.54,499.202 1137.46,499.202 1138.38,499.202 1139.3,499.202 1140.23,499.202 1141.15,499.202 1142.07,499.202 1142.99,499.202 1143.91,499.202 1144.84,499.202 1145.76,499.202 1146.68,499.202 1147.6,499.202 1148.52,499.202 1149.45,499.202 1150.37,499.202 1151.29,499.202 1152.21,499.202 1153.14,499.202 1154.06,499.202 1154.98,499.202 1155.9,499.202 1156.82,499.202 1157.75,499.202 1158.67,499.202 1159.59,499.202 1160.51,499.202 1161.43,499.202 1162.36,499.202 1163.28,499.202 1164.2,499.202 1165.12,499.202 1166.04,499.202 1166.97,499.202 1167.89,499.202 1168.81,499.202 1169.73,499.202 1170.65,499.202 1171.58,499.202 1172.5,499.202 1173.42,499.202 1174.34,499.202 1175.26,499.202 1176.19,499.202 1177.11,499.202 1178.03,499.202 1178.95,499.202 1179.88,499.202 1180.8,499.202 1181.72,499.202 1182.64,499.202 1183.56,499.202 1184.49,499.202 1185.41,499.202 1186.33,499.202 1187.25,499.202 1188.17,499.202 1189.1,499.202 1190.02,499.202 1190.94,499.202 1191.86,499.202 1192.78,499.202 1193.71,499.202 1194.63,499.202 1195.55,499.202 1196.47,499.202 1197.39,499.202 1198.32,499.202 1199.24,499.202 1200.16,499.202 1201.08,499.202 1202.01,499.202 1202.93,499.202 1203.85,499.202 1204.77,499.202 1205.69,499.202 1206.62,499.202 1207.54,499.202 1208.46,499.202 1209.38,499.202 1210.3,499.202 1211.23,499.202 1212.15,499.202 1213.07,499.202 1213.99,499.202 1214.91,499.202 1215.84,499.202 1216.76,499.202 1217.68,499.202 1218.6,499.202 1219.52,499.202 1220.45,499.202 1221.37,499.202 1222.29,499.202 1223.21,499.202 1224.13,499.202 1225.06,499.202 1225.98,499.202 1226.9,499.202 1227.82,499.202 1228.75,499.202 1229.67,499.202 1230.59,499.202 1231.51,499.202 1232.43,499.202 1233.36,499.202 1234.28,499.202 1235.2,499.202 1236.12,499.202 1237.04,499.202 1237.97,499.202 1238.89,499.202 1239.81,499.202 1240.73,499.202 1241.65,499.202 1242.58,499.202 1243.5,499.202 1244.42,499.202 1245.34,499.202 1246.26,499.202 1247.19,499.202 1248.11,499.202 1249.03,499.202 1249.95,499.202 1250.88,499.202 1251.8,499.202 1252.72,499.202 1253.64,440.2 1254.56,440.2 1255.49,440.2 1256.41,440.2 1257.33,440.2 1258.25,440.2 1259.17,440.2 1260.1,440.2 1261.02,440.2 1261.94,440.2 1262.86,440.2 1263.78,440.2 1264.71,440.2 1265.63,440.2 1266.55,440.2 1267.47,440.2 1268.39,440.2 1269.32,440.2 1270.24,440.2 1271.16,440.2 1272.08,440.2 1273,440.2 1273.93,440.2 1274.85,440.2 1275.77,440.2 1276.69,440.2 1277.62,440.2 1278.54,440.2 1279.46,440.2 1280.38,440.2 1281.3,440.2 1282.23,440.2 1283.15,440.2 1284.07,440.2 1284.99,440.2 1285.91,440.2 1286.84,440.2 1287.76,440.2 1288.68,440.2 1289.6,440.2 1290.52,440.2 1291.45,440.2 1292.37,440.2 1293.29,440.2 1294.21,440.2 1295.13,440.2 1296.06,440.2 1296.98,440.2 1297.9,440.2 1298.82,440.2 1299.75,440.2 1300.67,440.2 1301.59,440.2 1302.51,440.2 1303.43,440.2 1304.36,440.2 1305.28,440.2 1306.2,440.2 1307.12,440.2 1308.04,440.2 1308.97,440.2 1309.89,440.2 1310.81,440.2 1311.73,440.2 1312.65,440.2 1313.58,440.2 1314.5,440.2 1315.42,440.2 1316.34,440.2 1317.26,440.2 1318.19,440.2 1319.11,440.2 1320.03,440.2 1320.95,440.2 1321.87,440.2 1322.8,440.2 1323.72,440.2 1324.64,440.2 1325.56,440.2 1326.49,440.2 1327.41,440.2 1328.33,440.2 1329.25,440.2 1330.17,440.2 1331.1,440.2 1332.02,440.2 1332.94,440.2 1333.86,381.198 1334.78,381.198 1335.71,381.198 1336.63,381.198 1337.55,381.198 1338.47,381.198 1339.39,381.198 1340.32,381.198 1341.24,381.198 1342.16,381.198 1343.08,381.198 1344,381.198 1344.93,381.198 1345.85,381.198 1346.77,381.198 1347.69,381.198 1348.62,381.198 1349.54,381.198 1350.46,381.198 1351.38,381.198 1352.3,381.198 1353.23,381.198 1354.15,381.198 1355.07,381.198 1355.99,381.198 1356.91,381.198 1357.84,381.198 1358.76,381.198 1359.68,381.198 1360.6,381.198 1361.52,381.198 1362.45,381.198 1363.37,381.198 1364.29,381.198 1365.21,381.198 1366.13,381.198 1367.06,381.198 1367.98,381.198 1368.9,381.198 1369.82,381.198 1370.74,381.198 1371.67,381.198 1372.59,381.198 1373.51,381.198 1374.43,381.198 1375.36,381.198 1376.28,381.198 1377.2,381.198 1378.12,381.198 1379.04,381.198 1379.97,381.198 1380.89,381.198 1381.81,381.198 1382.73,381.198 1383.65,381.198 1384.58,381.198 1385.5,381.198 1386.42,381.198 1387.34,381.198 1388.26,381.198 1389.19,381.198 1390.11,381.198 1391.03,381.198 1391.95,381.198 1392.87,381.198 1393.8,381.198 1394.72,381.198 1395.64,381.198 1396.56,381.198 1397.49,381.198 1398.41,381.198 1399.33,381.198 1400.25,381.198 1401.17,381.198 1402.1,381.198 1403.02,381.198 1403.94,381.198 1404.86,381.198 1405.78,381.198 1406.71,381.198 1407.63,381.198 1408.55,381.198 1409.47,381.198 1410.39,381.198 1411.32,381.198 1412.24,381.198 1413.16,381.198 1414.08,381.198 1415,381.198 1415.93,381.198 1416.85,381.198 1417.77,381.198 1418.69,381.198 1419.61,381.198 1420.54,381.198 1421.46,322.195 1422.38,322.195 1423.3,322.195 1424.23,322.195 1425.15,322.195 1426.07,322.195 1426.99,322.195 1427.91,322.195 1428.84,322.195 1429.76,322.195 1430.68,322.195 1431.6,322.195 1432.52,322.195 1433.45,322.195 1434.37,322.195 1435.29,322.195 1436.21,322.195 1437.13,322.195 1438.06,322.195 1438.98,322.195 1439.9,322.195 1440.82,322.195 1441.74,322.195 1442.67,322.195 1443.59,322.195 1444.51,322.195 1445.43,322.195 1446.36,322.195 1447.28,322.195 1448.2,322.195 1449.12,322.195 1450.04,322.195 1450.97,322.195 1451.89,322.195 1452.81,322.195 1453.73,322.195 1454.65,322.195 1455.58,322.195 1456.5,322.195 1457.42,322.195 1458.34,322.195 1459.26,322.195 1460.19,322.195 1461.11,322.195 1462.03,322.195 1462.95,322.195 1463.87,322.195 1464.8,322.195 1465.72,322.195 1466.64,322.195 1467.56,322.195 1468.49,322.195 1469.41,322.195 1470.33,322.195 1471.25,322.195 1472.17,322.195 1473.1,322.195 1474.02,322.195 1474.94,322.195 1475.86,322.195 1476.78,322.195 1477.71,322.195 1478.63,322.195 1479.55,322.195 1480.47,322.195 1481.39,322.195 1482.32,322.195 1483.24,322.195 1484.16,322.195 1485.08,322.195 1486,322.195 1486.93,322.195 1487.85,322.195 1488.77,322.195 1489.69,322.195 1490.61,322.195 1491.54,322.195 1492.46,322.195 1493.38,322.195 1494.3,322.195 1495.23,322.195 1496.15,322.195 1497.07,322.195 1497.99,322.195 1498.91,322.195 1499.84,322.195 1500.76,322.195 1501.68,322.195 1502.6,322.195 1503.52,322.195 1504.45,322.195 1505.37,322.195 1506.29,322.195 1507.21,322.195 1508.13,322.195 1509.06,322.195 1509.98,322.195 1510.9,322.195 1511.82,322.195 1512.74,322.195 1513.67,322.195 1514.59,322.195 1515.51,322.195 1516.43,322.195 1517.36,322.195 1518.28,322.195 1519.2,322.195 1520.12,322.195 1521.04,322.195 1521.97,322.195 1522.89,322.195 1523.81,322.195 1524.73,322.195 1525.65,322.195 1526.58,322.195 1527.5,322.195 1528.42,322.195 1529.34,322.195 1530.26,322.195 1531.19,322.195 1532.11,322.195 1533.03,322.195 1533.95,322.195 1534.87,322.195 1535.8,322.195 1536.72,322.195 1537.64,322.195 1538.56,322.195 1539.48,322.195 1540.41,322.195 1541.33,322.195 1542.25,322.195 1543.17,322.195 1544.1,322.195 1545.02,322.195 1545.94,322.195 1546.86,322.195 1547.78,322.195 1548.71,322.195 1549.63,322.195 1550.55,322.195 1551.47,322.195 1552.39,322.195 1553.32,322.195 1554.24,322.195 1555.16,322.195 1556.08,263.193 1557,263.193 1557.93,263.193 1558.85,263.193 1559.77,263.193 1560.69,263.193 1561.61,263.193 1562.54,263.193 1563.46,263.193 1564.38,263.193 1565.3,263.193 1566.23,263.193 1567.15,263.193 1568.07,263.193 1568.99,263.193 1569.91,263.193 1570.84,263.193 1571.76,263.193 1572.68,263.193 1573.6,263.193 1574.52,263.193 1575.45,263.193 1576.37,263.193 1577.29,263.193 1578.21,263.193 1579.13,263.193 1580.06,263.193 1580.98,263.193 1581.9,263.193 1582.82,263.193 1583.74,263.193 1584.67,263.193 1585.59,263.193 1586.51,263.193 1587.43,263.193 1588.35,263.193 1589.28,263.193 1590.2,263.193 1591.12,263.193 1592.04,263.193 1592.97,263.193 1593.89,263.193 1594.81,263.193 1595.73,263.193 1596.65,263.193 1597.58,263.193 1598.5,263.193 1599.42,263.193 1600.34,263.193 1601.26,263.193 1602.19,263.193 1603.11,263.193 1604.03,263.193 1604.95,263.193 1605.87,263.193 1606.8,263.193 1607.72,263.193 1608.64,263.193 1609.56,263.193 1610.48,263.193 1611.41,263.193 1612.33,263.193 1613.25,263.193 1614.17,263.193 1615.1,263.193 1616.02,263.193 1616.94,263.193 1617.86,263.193 1618.78,263.193 1619.71,263.193 1620.63,263.193 1621.55,263.193 1622.47,263.193 1623.39,263.193 1624.32,263.193 1625.24,263.193 1626.16,263.193 1627.08,263.193 1628,263.193 1628.93,263.193 1629.85,263.193 1630.77,263.193 1631.69,263.193 1632.61,263.193 1633.54,263.193 1634.46,263.193 1635.38,263.193 1636.3,263.193 1637.22,263.193 1638.15,263.193 1639.07,263.193 1639.99,263.193 1640.91,263.193 1641.84,263.193 1642.76,263.193 1643.68,263.193 1644.6,263.193 1645.52,263.193 1646.45,263.193 1647.37,263.193 1648.29,263.193 1649.21,263.193 1650.13,263.193 1651.06,263.193 1651.98,263.193 1652.9,263.193 1653.82,263.193 1654.74,263.193 1655.67,263.193 1656.59,263.193 1657.51,263.193 1658.43,263.193 1659.35,263.193 1660.28,263.193 1661.2,263.193 1662.12,263.193 1663.04,263.193 1663.97,263.193 1664.89,263.193 1665.81,263.193 1666.73,263.193 1667.65,263.193 1668.58,263.193 1669.5,263.193 1670.42,263.193 1671.34,263.193 1672.26,263.193 1673.19,263.193 1674.11,263.193 1675.03,263.193 1675.95,263.193 1676.87,263.193 1677.8,263.193 1678.72,263.193 1679.64,263.193 1680.56,263.193 1681.48,263.193 1682.41,263.193 1683.33,263.193 1684.25,263.193 1685.17,263.193 1686.09,263.193 1687.02,263.193 1687.94,263.193 1688.86,263.193 1689.78,263.193 1690.71,263.193 1691.63,263.193 1692.55,263.193 1693.47,263.193 1694.39,263.193 1695.32,263.193 1696.24,263.193 1697.16,263.193 1698.08,263.193 1699,263.193 1699.93,263.193 1700.85,263.193 1701.77,263.193 1702.69,263.193 1703.61,263.193 1704.54,263.193 1705.46,263.193 1706.38,263.193 1707.3,263.193 1708.22,263.193 1709.15,263.193 1710.07,263.193 1710.99,263.193 1711.91,263.193 1712.84,263.193 1713.76,263.193 1714.68,263.193 1715.6,263.193 1716.52,263.193 1717.45,263.193 1718.37,263.193 1719.29,263.193 1720.21,263.193 1721.13,263.193 1722.06,263.193 1722.98,263.193 1723.9,263.193 1724.82,263.193 1725.74,263.193 1726.67,263.193 1727.59,263.193 1728.51,263.193 1729.43,263.193 1730.35,263.193 1731.28,263.193 1732.2,263.193 1733.12,263.193 1734.04,263.193 1734.96,263.193 1735.89,263.193 1736.81,263.193 1737.73,263.193 1738.65,263.193 1739.58,263.193 1740.5,263.193 1741.42,263.193 1742.34,263.193 1743.26,263.193 1744.19,263.193 1745.11,263.193 1746.03,263.193 1746.95,263.193 1747.87,263.193 1748.8,263.193 1749.72,263.193 1750.64,263.193 1751.56,263.193 1752.48,263.193 1753.41,263.193 1754.33,263.193 1755.25,263.193 1756.17,263.193 1757.09,263.193 1758.02,263.193 1758.94,263.193 1759.86,263.193 1760.78,263.193 1761.71,263.193 1762.63,263.193 1763.55,263.193 1764.47,263.193 1765.39,263.193 1766.32,263.193 1767.24,263.193 1768.16,263.193 1769.08,263.193 1770,263.193 1770.93,263.193 1771.85,263.193 1772.77,263.193 1773.69,263.193 1774.61,263.193 1775.54,263.193 1776.46,263.193 1777.38,263.193 1778.3,263.193 1779.22,263.193 1780.15,263.193 1781.07,263.193 1781.99,263.193 1782.91,263.193 1783.84,263.193 1784.76,263.193 1785.68,263.193 1786.6,263.193 1787.52,263.193 1788.45,263.193 1789.37,263.193 1790.29,263.193 1791.21,263.193 1792.13,263.193 1793.06,263.193 1793.98,263.193 1794.9,263.193 1795.82,263.193 1796.74,263.193 1797.67,263.193 1798.59,263.193 1799.51,263.193 1800.43,263.193 1801.35,263.193 1802.28,263.193 1803.2,263.193 1804.12,263.193 1805.04,263.193 1805.96,263.193 1806.89,263.193 1807.81,263.193 1808.73,263.193 1809.65,263.193 1810.58,263.193 1811.5,263.193 1812.42,263.193 1813.34,263.193 1814.26,263.193 1815.19,263.193 1816.11,263.193 1817.03,204.19 1817.95,204.19 1818.87,204.19 1819.8,204.19 1820.72,204.19 1821.64,204.19 1822.56,204.19 1823.48,204.19 1824.41,204.19 1825.33,204.19 1826.25,204.19 1827.17,204.19 1828.09,204.19 1829.02,204.19 1829.94,204.19 1830.86,204.19 1831.78,204.19 1832.71,204.19 1833.63,204.19 1834.55,204.19 1835.47,204.19 1836.39,204.19 1837.32,204.19 1838.24,204.19 1839.16,204.19 1840.08,204.19 1841,204.19 1841.93,204.19 1842.85,204.19 1843.77,204.19 1844.69,204.19 1845.61,204.19 1846.54,204.19 1847.46,204.19 1848.38,204.19 1849.3,204.19 1850.22,204.19 1851.15,204.19 1852.07,204.19 1852.99,204.19 1853.91,204.19 1854.83,204.19 1855.76,204.19 1856.68,204.19 1857.6,204.19 1858.52,204.19 1859.45,204.19 1860.37,204.19 1861.29,204.19 1862.21,204.19 1863.13,204.19 1864.06,204.19 1864.98,204.19 1865.9,204.19 1866.82,204.19 1867.74,204.19 1868.67,204.19 1869.59,204.19 1870.51,204.19 1871.43,204.19 1872.35,204.19 1873.28,204.19 1874.2,204.19 1875.12,204.19 1876.04,204.19 1876.96,204.19 1877.89,204.19 1878.81,204.19 1879.73,204.19 1880.65,204.19 1881.58,204.19 1882.5,204.19 1883.42,204.19 1884.34,204.19 1885.26,204.19 1886.19,204.19 1887.11,204.19 1888.03,204.19 1888.95,204.19 1889.87,204.19 1890.8,204.19 1891.72,204.19 1892.64,204.19 1893.56,204.19 1894.48,204.19 1895.41,204.19 1896.33,204.19 1897.25,204.19 1898.17,204.19 1899.09,204.19 1900.02,204.19 1900.94,204.19 1901.86,204.19 1902.78,204.19 1903.7,204.19 1904.63,204.19 1905.55,204.19 1906.47,204.19 1907.39,204.19 1908.32,204.19 1909.24,204.19 1910.16,204.19 1911.08,204.19 1912,204.19 1912.93,204.19 1913.85,204.19 1914.77,204.19 1915.69,204.19 1916.61,204.19 1917.54,204.19 1918.46,204.19 1919.38,204.19 1920.3,204.19 1921.22,204.19 1922.15,204.19 1923.07,204.19 1923.99,204.19 1924.91,204.19 1925.83,204.19 1926.76,204.19 1927.68,204.19 1928.6,204.19 1929.52,204.19 1930.45,204.19 1931.37,204.19 1932.29,204.19 1933.21,204.19 1934.13,204.19 1935.06,204.19 1935.98,204.19 1936.9,204.19 1937.82,204.19 1938.74,204.19 1939.67,204.19 1940.59,204.19 1941.51,204.19 1942.43,204.19 1943.35,204.19 1944.28,204.19 1945.2,204.19 1946.12,204.19 1947.04,204.19 1947.96,204.19 1948.89,204.19 1949.81,204.19 1950.73,204.19 1951.65,204.19 1952.57,204.19 1953.5,204.19 1954.42,204.19 1955.34,204.19 1956.26,145.188 1957.19,145.188 1958.11,145.188 1959.03,145.188 1959.95,145.188 1960.87,145.188 1961.8,145.188 1962.72,145.188 1963.64,145.188 1964.56,145.188 1965.48,145.188 1966.41,145.188 1967.33,145.188 1968.25,145.188 1969.17,145.188 1970.09,145.188 1971.02,145.188 1971.94,145.188 1972.86,145.188 1973.78,145.188 1974.7,145.188 1975.63,145.188 1976.55,145.188 1977.47,145.188 1978.39,145.188 1979.32,145.188 1980.24,145.188 1981.16,145.188 1982.08,145.188 1983,145.188 1983.93,145.188 1984.85,145.188 1985.77,145.188 1986.69,145.188 1987.61,145.188 1988.54,145.188 1989.46,145.188 1990.38,145.188 1991.3,145.188 1992.22,145.188 1993.15,145.188 1994.07,145.188 1994.99,145.188 1995.91,145.188 1996.83,145.188 1997.76,145.188 1998.68,145.188 1999.6,145.188 2000.52,145.188 2001.44,145.188 2002.37,145.188 2003.29,145.188 2004.21,145.188 2005.13,145.188 2006.06,145.188 2006.98,145.188 2007.9,145.188 2008.82,145.188 2009.74,145.188 2010.67,145.188 2011.59,145.188 2012.51,145.188 2013.43,145.188 2014.35,145.188 2015.28,145.188 2016.2,145.188 2017.12,145.188 2018.04,145.188 2018.96,145.188 2019.89,145.188 2020.81,145.188 2021.73,145.188 2022.65,145.188 2023.57,145.188 2024.5,145.188 2025.42,145.188 2026.34,145.188 2027.26,145.188 2028.19,145.188 2029.11,145.188 2030.03,145.188 2030.95,145.188 2031.87,145.188 2032.8,145.188 2033.72,145.188 2034.64,145.188 2035.56,145.188 2036.48,145.188 2037.41,145.188 2038.33,145.188 2039.25,145.188 2040.17,145.188 2041.09,145.188 2042.02,145.188 2042.94,145.188 2043.86,145.188 2044.78,145.188 2045.7,145.188 2046.63,145.188 2047.55,145.188 2048.47,145.188 2049.39,145.188 2050.31,145.188 2051.24,145.188 2052.16,145.188 2053.08,145.188 2054,145.188 2054.93,145.188 2055.85,145.188 2056.77,145.188 2057.69,145.188 2058.61,145.188 2059.54,145.188 2060.46,145.188 2061.38,145.188 2062.3,145.188 2063.22,145.188 2064.15,145.188 2065.07,145.188 2065.99,145.188 2066.91,145.188 2067.83,145.188 2068.76,145.188 2069.68,145.188 2070.6,145.188 2071.52,145.188 2072.44,145.188 2073.37,145.188 2074.29,145.188 2075.21,145.188 2076.13,145.188 2077.06,145.188 2077.98,145.188 2078.9,145.188 2079.82,145.188 2080.74,145.188 2081.67,145.188 2082.59,145.188 2083.51,145.188 2084.43,145.188 2085.35,145.188 2086.28,145.188 2087.2,145.188 2088.12,145.188 2089.04,145.188 2089.96,145.188 2090.89,145.188 2091.81,145.188 2092.73,145.188 2093.65,145.188 2094.57,145.188 2095.5,145.188 2096.42,145.188 2097.34,145.188 2098.26,145.188 2099.19,145.188 2100.11,145.188 2101.03,145.188 2101.95,145.188 2102.87,145.188 2103.8,145.188 2104.72,145.188 2105.64,145.188 2106.56,145.188 2107.48,145.188 2108.41,145.188 2109.33,145.188 2110.25,145.188 2111.17,145.188 2112.09,145.188 2113.02,145.188 2113.94,145.188 2114.86,145.188 2115.78,145.188 2116.7,145.188 2117.63,145.188 2118.55,145.188 2119.47,145.188 2120.39,145.188 2121.31,145.188 2122.24,145.188 2123.16,145.188 2124.08,145.188 2125,145.188 2125.93,145.188 2126.85,145.188 2127.77,145.188 2128.69,145.188 2129.61,145.188 2130.54,145.188 2131.46,145.188 2132.38,145.188 2133.3,145.188 2134.22,145.188 2135.15,145.188 2136.07,145.188 2136.99,145.188 2137.91,145.188 2138.83,145.188 2139.76,145.188 2140.68,145.188 2141.6,145.188 2142.52,145.188 2143.44,145.188 2144.37,145.188 2145.29,145.188 2146.21,145.188 2147.13,145.188 2148.06,145.188 2148.98,145.188 2149.9,145.188 2150.82,145.188 2151.74,145.188 2152.67,145.188 2153.59,145.188 2154.51,145.188 2155.43,145.188 2156.35,145.188 2157.28,145.188 2158.2,145.188 2159.12,145.188 2160.04,145.188 2160.96,145.188 2161.89,145.188 2162.81,145.188 2163.73,145.188 2164.65,145.188 2165.57,145.188 2166.5,145.188 2167.42,145.188 2168.34,145.188 2169.26,145.188 2170.18,145.188 2171.11,145.188 2172.03,145.188 2172.95,145.188 2173.87,145.188 2174.8,145.188 2175.72,145.188 2176.64,145.188 2177.56,145.188 2178.48,145.188 2179.41,145.188 2180.33,145.188 2181.25,145.188 2182.17,145.188 2183.09,145.188 2184.02,145.188 2184.94,145.188 2185.86,145.188 2186.78,145.188 2187.7,145.188 2188.63,145.188 2189.55,145.188 2190.47,145.188 2191.39,145.188 2192.31,145.188 2193.24,145.188 2194.16,145.188 2195.08,145.188 2196,145.188 2196.93,145.188 2197.85,145.188 2198.77,145.188 2199.69,145.188 2200.61,145.188 2201.54,145.188 2202.46,145.188 2203.38,145.188 2204.3,145.188 2205.22,145.188 2206.15,145.188 2207.07,145.188 2207.99,145.188 2208.91,145.188 2209.83,145.188 2210.76,145.188 2211.68,145.188 2212.6,145.188 2213.52,145.188 2214.44,145.188 2215.37,145.188 2216.29,145.188 2217.21,145.188 2218.13,145.188 2219.05,145.188 2219.98,145.188 2220.9,145.188 2221.82,145.188 2222.74,145.188 2223.67,145.188 2224.59,145.188 2225.51,145.188 2226.43,145.188 2227.35,145.188 2228.28,145.188 2229.2,145.188 2230.12,145.188 2231.04,145.188 2231.96,145.188 2232.89,145.188 2233.81,145.188 2234.73,145.188 2235.65,145.188 2236.57,145.188 2237.5,145.188 2238.42,145.188 2239.34,145.188 2240.26,145.188 2241.18,145.188 2242.11,145.188 2243.03,145.188 2243.95,145.188 2244.87,145.188 2245.8,145.188 2246.72,145.188 2247.64,145.188 2248.56,145.188 2249.48,145.188 2250.41,145.188 2251.33,145.188 2252.25,145.188 2253.17,145.188 2254.09,145.188 2255.02,145.188 2255.94,145.188 2256.86,145.188 2257.78,145.188 2258.7,145.188 2259.63,145.188 2260.55,145.188 2261.47,145.188 2262.39,145.188 2263.31,145.188 2264.24,145.188 2265.16,145.188 2266.08,145.188 2267,145.188 2267.92,145.188 2268.85,145.188 2269.77,145.188 2270.69,145.188 2271.61,145.188 2272.54,145.188 2273.46,145.188 2274.38,145.188 2275.3,145.188 2276.22,145.188 2277.15,145.188 2278.07,145.188 2278.99,145.188 2279.91,145.188 2280.83,145.188 2281.76,145.188 2282.68,145.188 2283.6,145.188 2284.52,145.188 2285.44,145.188 2286.37,145.188 2287.29,145.188 2288.21,145.188 2289.13,145.188 2290.05,145.188 2290.98,145.188 2291.9,145.188 2292.82,145.188 2293.74,145.188 2294.67,145.188 2295.59,145.188 2296.51,145.188 2297.43,145.188 2298.35,145.188 2299.28,145.188 2300.2,145.188 2301.12,145.188 2302.04,145.188 2302.96,145.188 2303.89,145.188 2304.81,145.188 2305.73,145.188 2306.65,145.188 2307.57,145.188 2308.5,145.188 2309.42,145.188 2310.34,145.188 2311.26,145.188 2312.18,145.188 2313.11,145.188 2314.03,145.188 2314.95,145.188 2315.87,145.188 2316.79,145.188 2317.72,145.188 2318.64,145.188 2319.56,145.188 2320.48,145.188 2321.41,145.188 2322.33,145.188 2323.25,145.188 2324.17,145.188 2325.09,145.188 2326.02,145.188 2326.94,145.188 2327.86,145.188 2328.78,145.188 2329.7,145.188 2330.63,145.188 2331.55,145.188 2332.47,145.188 2333.39,145.188 2334.31,145.188 2335.24,145.188 2336.16,145.188 2337.08,145.188 2338,145.188 2338.92,145.188 2339.85,86.1857 2340.77,86.1857 2341.69,86.1857 2342.61,86.1857 2343.54,86.1857 2344.46,86.1857 2345.38,86.1857 2346.3,86.1857 2347.22,86.1857 2348.15,86.1857 2349.07,86.1857 2349.99,86.1857 2350.91,86.1857 2351.83,86.1857 2352.76,86.1857 "/>
<path clip-path="url(#clip960)" d="M1975.5 1377.32 L2279.02 1377.32 L2279.02 1273.64 L1975.5 1273.64  Z" fill="#ffffff" fill-rule="evenodd" fill-opacity="1"/>
<polyline clip-path="url(#clip960)" style="stroke:#000000; stroke-linecap:round; stroke-linejoin:round; stroke-width:4; stroke-opacity:1; fill:none" points="1975.5,1377.32 2279.02,1377.32 2279.02,1273.64 1975.5,1273.64 1975.5,1377.32 "/>
<polyline clip-path="url(#clip960)" style="stroke:#009af9; stroke-linecap:round; stroke-linejoin:round; stroke-width:8; stroke-opacity:1; fill:none" points="2000.08,1325.48 2147.55,1325.48 "/>
<path clip-path="url(#clip960)" d="M2172.13 1308.2 L2178.42 1308.2 L2193.75 1337.11 L2193.75 1308.2 L2198.29 1308.2 L2198.29 1342.76 L2191.99 1342.76 L2176.66 1313.84 L2176.66 1342.76 L2172.13 1342.76 L2172.13 1308.2 Z" fill="#000000" fill-rule="nonzero" fill-opacity="1" /><path clip-path="url(#clip960)" d="M2217.64 1306.78 Q2214.53 1312.11 2213.03 1317.32 Q2211.53 1322.52 2211.53 1327.87 Q2211.53 1333.22 2213.03 1338.47 Q2214.56 1343.7 2217.64 1349.01 L2213.93 1349.01 Q2210.46 1343.57 2208.72 1338.31 Q2207.01 1333.06 2207.01 1327.87 Q2207.01 1322.71 2208.72 1317.48 Q2210.44 1312.25 2213.93 1306.78 L2217.64 1306.78 Z" fill="#000000" fill-rule="nonzero" fill-opacity="1" /><path clip-path="url(#clip960)" d="M2230.11 1309.47 L2230.11 1316.83 L2238.89 1316.83 L2238.89 1320.14 L2230.11 1320.14 L2230.11 1334.21 Q2230.11 1337.38 2230.97 1338.29 Q2231.85 1339.19 2234.51 1339.19 L2238.89 1339.19 L2238.89 1342.76 L2234.51 1342.76 Q2229.58 1342.76 2227.71 1340.93 Q2225.83 1339.07 2225.83 1334.21 L2225.83 1320.14 L2222.71 1320.14 L2222.71 1316.83 L2225.83 1316.83 L2225.83 1309.47 L2230.11 1309.47 Z" fill="#000000" fill-rule="nonzero" fill-opacity="1" /><path clip-path="url(#clip960)" d="M2243.82 1306.78 L2247.52 1306.78 Q2250.99 1312.25 2252.71 1317.48 Q2254.44 1322.71 2254.44 1327.87 Q2254.44 1333.06 2252.71 1338.31 Q2250.99 1343.57 2247.52 1349.01 L2243.82 1349.01 Q2246.9 1343.7 2248.4 1338.47 Q2249.93 1333.22 2249.93 1327.87 Q2249.93 1322.52 2248.4 1317.32 Q2246.9 1312.11 2243.82 1306.78 Z" fill="#000000" fill-rule="nonzero" fill-opacity="1" /></svg>
