<?xml version="1.0" encoding="utf-8"?>
<svg xmlns="http://www.w3.org/2000/svg" xmlns:xlink="http://www.w3.org/1999/xlink" width="600" height="400" viewBox="0 0 2400 1600">
<defs>
  <clipPath id="clip850">
    <rect x="0" y="0" width="2400" height="1600"/>
  </clipPath>
</defs>
<path clip-path="url(#clip850)" d="M0 1600 L2400 1600 L2400 0 L0 0  Z" fill="#ffffff" fill-rule="evenodd" fill-opacity="1"/>
<defs>
  <clipPath id="clip851">
    <rect x="480" y="0" width="1681" height="1600"/>
  </clipPath>
</defs>
<path clip-path="url(#clip850)" d="M140.696 1423.18 L2352.76 1423.18 L2352.76 47.2441 L140.696 47.2441  Z" fill="#ffffff" fill-rule="evenodd" fill-opacity="1"/>
<defs>
  <clipPath id="clip852">
    <rect x="140" y="47" width="2213" height="1377"/>
  </clipPath>
</defs>
<polyline clip-path="url(#clip852)" style="stroke:#000000; stroke-linecap:round; stroke-linejoin:round; stroke-width:2; stroke-opacity:0.1; fill:none" points="140.696,1423.18 140.696,47.2441 "/>
<polyline clip-path="url(#clip852)" style="stroke:#000000; stroke-linecap:round; stroke-linejoin:round; stroke-width:2; stroke-opacity:0.1; fill:none" points="583.108,1423.18 583.108,47.2441 "/>
<polyline clip-path="url(#clip852)" style="stroke:#000000; stroke-linecap:round; stroke-linejoin:round; stroke-width:2; stroke-opacity:0.1; fill:none" points="1025.52,1423.18 1025.52,47.2441 "/>
<polyline clip-path="url(#clip852)" style="stroke:#000000; stroke-linecap:round; stroke-linejoin:round; stroke-width:2; stroke-opacity:0.1; fill:none" points="1467.93,1423.18 1467.93,47.2441 "/>
<polyline clip-path="url(#clip852)" style="stroke:#000000; stroke-linecap:round; stroke-linejoin:round; stroke-width:2; stroke-opacity:0.1; fill:none" points="1910.34,1423.18 1910.34,47.2441 "/>
<polyline clip-path="url(#clip852)" style="stroke:#000000; stroke-linecap:round; stroke-linejoin:round; stroke-width:2; stroke-opacity:0.1; fill:none" points="2352.76,1423.18 2352.76,47.2441 "/>
<polyline clip-path="url(#clip852)" style="stroke:#000000; stroke-linecap:round; stroke-linejoin:round; stroke-width:2; stroke-opacity:0.1; fill:none" points="140.696,1226.27 2352.76,1226.27 "/>
<polyline clip-path="url(#clip852)" style="stroke:#000000; stroke-linecap:round; stroke-linejoin:round; stroke-width:2; stroke-opacity:0.1; fill:none" points="140.696,954.824 2352.76,954.824 "/>
<polyline clip-path="url(#clip852)" style="stroke:#000000; stroke-linecap:round; stroke-linejoin:round; stroke-width:2; stroke-opacity:0.1; fill:none" points="140.696,683.374 2352.76,683.374 "/>
<polyline clip-path="url(#clip852)" style="stroke:#000000; stroke-linecap:round; stroke-linejoin:round; stroke-width:2; stroke-opacity:0.1; fill:none" points="140.696,411.925 2352.76,411.925 "/>
<polyline clip-path="url(#clip852)" style="stroke:#000000; stroke-linecap:round; stroke-linejoin:round; stroke-width:2; stroke-opacity:0.1; fill:none" points="140.696,140.476 2352.76,140.476 "/>
<polyline clip-path="url(#clip850)" style="stroke:#000000; stroke-linecap:round; stroke-linejoin:round; stroke-width:4; stroke-opacity:1; fill:none" points="140.696,1423.18 2352.76,1423.18 "/>
<polyline clip-path="url(#clip850)" style="stroke:#000000; stroke-linecap:round; stroke-linejoin:round; stroke-width:4; stroke-opacity:1; fill:none" points="140.696,1423.18 140.696,1404.28 "/>
<polyline clip-path="url(#clip850)" style="stroke:#000000; stroke-linecap:round; stroke-linejoin:round; stroke-width:4; stroke-opacity:1; fill:none" points="583.108,1423.18 583.108,1404.28 "/>
<polyline clip-path="url(#clip850)" style="stroke:#000000; stroke-linecap:round; stroke-linejoin:round; stroke-width:4; stroke-opacity:1; fill:none" points="1025.52,1423.18 1025.52,1404.28 "/>
<polyline clip-path="url(#clip850)" style="stroke:#000000; stroke-linecap:round; stroke-linejoin:round; stroke-width:4; stroke-opacity:1; fill:none" points="1467.93,1423.18 1467.93,1404.28 "/>
<polyline clip-path="url(#clip850)" style="stroke:#000000; stroke-linecap:round; stroke-linejoin:round; stroke-width:4; stroke-opacity:1; fill:none" points="1910.34,1423.18 1910.34,1404.28 "/>
<polyline clip-path="url(#clip850)" style="stroke:#000000; stroke-linecap:round; stroke-linejoin:round; stroke-width:4; stroke-opacity:1; fill:none" points="2352.76,1423.18 2352.76,1404.28 "/>
<path clip-path="url(#clip850)" d="M140.696 1454.1 Q137.084 1454.1 135.256 1457.66 Q133.45 1461.2 133.45 1468.33 Q133.45 1475.44 135.256 1479.01 Q137.084 1482.55 140.696 1482.55 Q144.33 1482.55 146.135 1479.01 Q147.964 1475.44 147.964 1468.33 Q147.964 1461.2 146.135 1457.66 Q144.33 1454.1 140.696 1454.1 M140.696 1450.39 Q146.506 1450.39 149.561 1455 Q152.64 1459.58 152.64 1468.33 Q152.64 1477.06 149.561 1481.67 Q146.506 1486.25 140.696 1486.25 Q134.885 1486.25 131.807 1481.67 Q128.751 1477.06 128.751 1468.33 Q128.751 1459.58 131.807 1455 Q134.885 1450.39 140.696 1450.39 Z" fill="#000000" fill-rule="nonzero" fill-opacity="1" /><path clip-path="url(#clip850)" d="M577.76 1481.64 L594.08 1481.64 L594.08 1485.58 L572.135 1485.58 L572.135 1481.64 Q574.797 1478.89 579.381 1474.26 Q583.987 1469.61 585.168 1468.27 Q587.413 1465.74 588.293 1464.01 Q589.196 1462.25 589.196 1460.56 Q589.196 1457.8 587.251 1456.07 Q585.33 1454.33 582.228 1454.33 Q580.029 1454.33 577.575 1455.09 Q575.145 1455.86 572.367 1457.41 L572.367 1452.69 Q575.191 1451.55 577.645 1450.97 Q580.098 1450.39 582.135 1450.39 Q587.506 1450.39 590.7 1453.08 Q593.895 1455.77 593.895 1460.26 Q593.895 1462.39 593.084 1464.31 Q592.297 1466.2 590.191 1468.8 Q589.612 1469.47 586.51 1472.69 Q583.409 1475.88 577.76 1481.64 Z" fill="#000000" fill-rule="nonzero" fill-opacity="1" /><path clip-path="url(#clip850)" d="M1028.53 1455.09 L1016.72 1473.54 L1028.53 1473.54 L1028.53 1455.09 M1027.3 1451.02 L1033.18 1451.02 L1033.18 1473.54 L1038.11 1473.54 L1038.11 1477.43 L1033.18 1477.43 L1033.18 1485.58 L1028.53 1485.58 L1028.53 1477.43 L1012.93 1477.43 L1012.93 1472.92 L1027.3 1451.02 Z" fill="#000000" fill-rule="nonzero" fill-opacity="1" /><path clip-path="url(#clip850)" d="M1468.34 1466.44 Q1465.19 1466.44 1463.34 1468.59 Q1461.51 1470.74 1461.51 1474.49 Q1461.51 1478.22 1463.34 1480.39 Q1465.19 1482.55 1468.34 1482.55 Q1471.48 1482.55 1473.31 1480.39 Q1475.17 1478.22 1475.17 1474.49 Q1475.17 1470.74 1473.31 1468.59 Q1471.48 1466.44 1468.34 1466.44 M1477.62 1451.78 L1477.62 1456.04 Q1475.86 1455.21 1474.05 1454.77 Q1472.27 1454.33 1470.51 1454.33 Q1465.88 1454.33 1463.43 1457.45 Q1461 1460.58 1460.65 1466.9 Q1462.02 1464.89 1464.08 1463.82 Q1466.14 1462.73 1468.61 1462.73 Q1473.82 1462.73 1476.83 1465.9 Q1479.86 1469.05 1479.86 1474.49 Q1479.86 1479.82 1476.72 1483.03 Q1473.57 1486.25 1468.34 1486.25 Q1462.34 1486.25 1459.17 1481.67 Q1456 1477.06 1456 1468.33 Q1456 1460.14 1459.89 1455.28 Q1463.78 1450.39 1470.33 1450.39 Q1472.09 1450.39 1473.87 1450.74 Q1475.67 1451.09 1477.62 1451.78 Z" fill="#000000" fill-rule="nonzero" fill-opacity="1" /><path clip-path="url(#clip850)" d="M1910.34 1469.17 Q1907.01 1469.17 1905.09 1470.95 Q1903.19 1472.73 1903.19 1475.86 Q1903.19 1478.98 1905.09 1480.77 Q1907.01 1482.55 1910.34 1482.55 Q1913.68 1482.55 1915.6 1480.77 Q1917.52 1478.96 1917.52 1475.86 Q1917.52 1472.73 1915.6 1470.95 Q1913.7 1469.17 1910.34 1469.17 M1905.67 1467.18 Q1902.66 1466.44 1900.97 1464.38 Q1899.3 1462.32 1899.3 1459.35 Q1899.3 1455.21 1902.24 1452.8 Q1905.2 1450.39 1910.34 1450.39 Q1915.51 1450.39 1918.45 1452.8 Q1921.39 1455.21 1921.39 1459.35 Q1921.39 1462.32 1919.7 1464.38 Q1918.03 1466.44 1915.04 1467.18 Q1918.42 1467.96 1920.3 1470.26 Q1922.2 1472.55 1922.2 1475.86 Q1922.2 1480.88 1919.12 1483.57 Q1916.06 1486.25 1910.34 1486.25 Q1904.63 1486.25 1901.55 1483.57 Q1898.49 1480.88 1898.49 1475.86 Q1898.49 1472.55 1900.39 1470.26 Q1902.29 1467.96 1905.67 1467.18 M1903.95 1459.79 Q1903.95 1462.48 1905.62 1463.98 Q1907.31 1465.49 1910.34 1465.49 Q1913.35 1465.49 1915.04 1463.98 Q1916.76 1462.48 1916.76 1459.79 Q1916.76 1457.11 1915.04 1455.6 Q1913.35 1454.1 1910.34 1454.1 Q1907.31 1454.1 1905.62 1455.6 Q1903.95 1457.11 1903.95 1459.79 Z" fill="#000000" fill-rule="nonzero" fill-opacity="1" /><path clip-path="url(#clip850)" d="M2327.44 1481.64 L2335.08 1481.64 L2335.08 1455.28 L2326.77 1456.95 L2326.77 1452.69 L2335.04 1451.02 L2339.71 1451.02 L2339.71 1481.64 L2347.35 1481.64 L2347.35 1485.58 L2327.44 1485.58 L2327.44 1481.64 Z" fill="#000000" fill-rule="nonzero" fill-opacity="1" /><path clip-path="url(#clip850)" d="M2366.8 1454.1 Q2363.18 1454.1 2361.36 1457.66 Q2359.55 1461.2 2359.55 1468.33 Q2359.55 1475.44 2361.36 1479.01 Q2363.18 1482.55 2366.8 1482.55 Q2370.43 1482.55 2372.23 1479.01 Q2374.06 1475.44 2374.06 1468.33 Q2374.06 1461.2 2372.23 1457.66 Q2370.43 1454.1 2366.8 1454.1 M2366.8 1450.39 Q2372.61 1450.39 2375.66 1455 Q2378.74 1459.58 2378.74 1468.33 Q2378.74 1477.06 2375.66 1481.67 Q2372.61 1486.25 2366.8 1486.25 Q2360.99 1486.25 2357.91 1481.67 Q2354.85 1477.06 2354.85 1468.33 Q2354.85 1459.58 2357.91 1455 Q2360.99 1450.39 2366.8 1450.39 Z" fill="#000000" fill-rule="nonzero" fill-opacity="1" /><path clip-path="url(#clip850)" d="M1245.79 1522.27 L1245.79 1532.4 L1257.85 1532.4 L1257.85 1536.95 L1245.79 1536.95 L1245.79 1556.3 Q1245.79 1560.66 1246.96 1561.9 Q1248.17 1563.14 1251.83 1563.14 L1257.85 1563.14 L1257.85 1568.04 L1251.83 1568.04 Q1245.05 1568.04 1242.48 1565.53 Q1239.9 1562.98 1239.9 1556.3 L1239.9 1536.95 L1235.6 1536.95 L1235.6 1532.4 L1239.9 1532.4 L1239.9 1522.27 L1245.79 1522.27 Z" fill="#000000" fill-rule="nonzero" fill-opacity="1" /><polyline clip-path="url(#clip850)" style="stroke:#000000; stroke-linecap:round; stroke-linejoin:round; stroke-width:4; stroke-opacity:1; fill:none" points="140.696,1423.18 140.696,47.2441 "/>
<polyline clip-path="url(#clip850)" style="stroke:#000000; stroke-linecap:round; stroke-linejoin:round; stroke-width:4; stroke-opacity:1; fill:none" points="140.696,1226.27 159.593,1226.27 "/>
<polyline clip-path="url(#clip850)" style="stroke:#000000; stroke-linecap:round; stroke-linejoin:round; stroke-width:4; stroke-opacity:1; fill:none" points="140.696,954.824 159.593,954.824 "/>
<polyline clip-path="url(#clip850)" style="stroke:#000000; stroke-linecap:round; stroke-linejoin:round; stroke-width:4; stroke-opacity:1; fill:none" points="140.696,683.374 159.593,683.374 "/>
<polyline clip-path="url(#clip850)" style="stroke:#000000; stroke-linecap:round; stroke-linejoin:round; stroke-width:4; stroke-opacity:1; fill:none" points="140.696,411.925 159.593,411.925 "/>
<polyline clip-path="url(#clip850)" style="stroke:#000000; stroke-linecap:round; stroke-linejoin:round; stroke-width:4; stroke-opacity:1; fill:none" points="140.696,140.476 159.593,140.476 "/>
<path clip-path="url(#clip850)" d="M92.7512 1212.07 Q89.1401 1212.07 87.3114 1215.64 Q85.5058 1219.18 85.5058 1226.31 Q85.5058 1233.41 87.3114 1236.98 Q89.1401 1240.52 92.7512 1240.52 Q96.3854 1240.52 98.1909 1236.98 Q100.02 1233.41 100.02 1226.31 Q100.02 1219.18 98.1909 1215.64 Q96.3854 1212.07 92.7512 1212.07 M92.7512 1208.37 Q98.5613 1208.37 101.617 1212.97 Q104.696 1217.56 104.696 1226.31 Q104.696 1235.03 101.617 1239.64 Q98.5613 1244.22 92.7512 1244.22 Q86.941 1244.22 83.8623 1239.64 Q80.8068 1235.03 80.8068 1226.31 Q80.8068 1217.56 83.8623 1212.97 Q86.941 1208.37 92.7512 1208.37 Z" fill="#000000" fill-rule="nonzero" fill-opacity="1" /><path clip-path="url(#clip850)" d="M83.7929 937.544 L102.149 937.544 L102.149 941.479 L88.0753 941.479 L88.0753 949.951 Q89.0938 949.604 90.1123 949.442 Q91.1308 949.256 92.1493 949.256 Q97.9363 949.256 101.316 952.428 Q104.696 955.599 104.696 961.016 Q104.696 966.594 101.223 969.696 Q97.7511 972.775 91.4317 972.775 Q89.2558 972.775 86.9873 972.405 Q84.7419 972.034 82.3346 971.293 L82.3346 966.594 Q84.4179 967.729 86.6401 968.284 Q88.8623 968.84 91.3391 968.84 Q95.3437 968.84 97.6817 966.733 Q100.02 964.627 100.02 961.016 Q100.02 957.405 97.6817 955.298 Q95.3437 953.192 91.3391 953.192 Q89.4641 953.192 87.5892 953.608 Q85.7373 954.025 83.7929 954.905 L83.7929 937.544 Z" fill="#000000" fill-rule="nonzero" fill-opacity="1" /><path clip-path="url(#clip850)" d="M53.3995 696.719 L61.0384 696.719 L61.0384 670.353 L52.7282 672.02 L52.7282 667.761 L60.9921 666.094 L65.668 666.094 L65.668 696.719 L73.3068 696.719 L73.3068 700.654 L53.3995 700.654 L53.3995 696.719 Z" fill="#000000" fill-rule="nonzero" fill-opacity="1" /><path clip-path="url(#clip850)" d="M92.7512 669.173 Q89.1401 669.173 87.3114 672.738 Q85.5058 676.279 85.5058 683.409 Q85.5058 690.515 87.3114 694.08 Q89.1401 697.622 92.7512 697.622 Q96.3854 697.622 98.1909 694.08 Q100.02 690.515 100.02 683.409 Q100.02 676.279 98.1909 672.738 Q96.3854 669.173 92.7512 669.173 M92.7512 665.469 Q98.5613 665.469 101.617 670.076 Q104.696 674.659 104.696 683.409 Q104.696 692.136 101.617 696.742 Q98.5613 701.326 92.7512 701.326 Q86.941 701.326 83.8623 696.742 Q80.8068 692.136 80.8068 683.409 Q80.8068 674.659 83.8623 670.076 Q86.941 665.469 92.7512 665.469 Z" fill="#000000" fill-rule="nonzero" fill-opacity="1" /><path clip-path="url(#clip850)" d="M54.3949 425.27 L62.0337 425.27 L62.0337 398.904 L53.7236 400.571 L53.7236 396.312 L61.9874 394.645 L66.6633 394.645 L66.6633 425.27 L74.3022 425.27 L74.3022 429.205 L54.3949 429.205 L54.3949 425.27 Z" fill="#000000" fill-rule="nonzero" fill-opacity="1" /><path clip-path="url(#clip850)" d="M83.7929 394.645 L102.149 394.645 L102.149 398.58 L88.0753 398.58 L88.0753 407.052 Q89.0938 406.705 90.1123 406.543 Q91.1308 406.358 92.1493 406.358 Q97.9363 406.358 101.316 409.529 Q104.696 412.7 104.696 418.117 Q104.696 423.696 101.223 426.798 Q97.7511 429.876 91.4317 429.876 Q89.2558 429.876 86.9873 429.506 Q84.7419 429.135 82.3346 428.395 L82.3346 423.696 Q84.4179 424.83 86.6401 425.385 Q88.8623 425.941 91.3391 425.941 Q95.3437 425.941 97.6817 423.835 Q100.02 421.728 100.02 418.117 Q100.02 414.506 97.6817 412.399 Q95.3437 410.293 91.3391 410.293 Q89.4641 410.293 87.5892 410.71 Q85.7373 411.126 83.7929 412.006 L83.7929 394.645 Z" fill="#000000" fill-rule="nonzero" fill-opacity="1" /><path clip-path="url(#clip850)" d="M56.6171 153.82 L72.9365 153.82 L72.9365 157.756 L50.9921 157.756 L50.9921 153.82 Q53.6541 151.066 58.2375 146.436 Q62.8439 141.783 64.0245 140.441 Q66.2698 137.918 67.1494 136.182 Q68.0522 134.422 68.0522 132.733 Q68.0522 129.978 66.1078 128.242 Q64.1865 126.506 61.0847 126.506 Q58.8856 126.506 56.4319 127.27 Q54.0014 128.033 51.2236 129.584 L51.2236 124.862 Q54.0477 123.728 56.5014 123.149 Q58.955 122.571 60.9921 122.571 Q66.3624 122.571 69.5568 125.256 Q72.7513 127.941 72.7513 132.432 Q72.7513 134.561 71.9411 136.483 Q71.1541 138.381 69.0476 140.973 Q68.4689 141.645 65.367 144.862 Q62.2652 148.057 56.6171 153.82 Z" fill="#000000" fill-rule="nonzero" fill-opacity="1" /><path clip-path="url(#clip850)" d="M92.7512 126.274 Q89.1401 126.274 87.3114 129.839 Q85.5058 133.381 85.5058 140.51 Q85.5058 147.617 87.3114 151.182 Q89.1401 154.723 92.7512 154.723 Q96.3854 154.723 98.1909 151.182 Q100.02 147.617 100.02 140.51 Q100.02 133.381 98.1909 129.839 Q96.3854 126.274 92.7512 126.274 M92.7512 122.571 Q98.5613 122.571 101.617 127.177 Q104.696 131.76 104.696 140.51 Q104.696 149.237 101.617 153.844 Q98.5613 158.427 92.7512 158.427 Q86.941 158.427 83.8623 153.844 Q80.8068 149.237 80.8068 140.51 Q80.8068 131.76 83.8623 127.177 Q86.941 122.571 92.7512 122.571 Z" fill="#000000" fill-rule="nonzero" fill-opacity="1" /><polyline clip-path="url(#clip852)" style="stroke:#009af9; stroke-linecap:round; stroke-linejoin:round; stroke-width:8; stroke-opacity:1; fill:none" points="140.696,1226.27 142.91,1226.27 145.124,1226.27 147.338,1226.27 149.553,1226.27 151.767,1226.27 153.981,1226.27 156.195,1226.27 158.41,1226.27 160.624,1226.27 162.838,1226.27 165.053,1226.27 167.267,1226.27 169.481,1226.27 171.695,1226.27 173.91,1226.27 176.124,1226.27 178.338,1226.27 180.552,1226.27 182.767,1226.27 184.981,1226.27 187.195,1226.27 189.41,1226.27 191.624,1226.27 193.838,1226.27 196.052,1226.27 198.267,1226.27 200.481,1226.27 202.695,1226.27 204.91,1226.27 207.124,1226.27 209.338,1226.27 211.552,1226.27 213.767,1226.27 215.981,1226.27 218.195,1226.27 220.409,1226.27 222.624,1171.98 224.838,1171.98 227.052,1171.98 229.267,1171.98 231.481,1171.98 233.695,1171.98 235.909,1171.98 238.124,1171.98 240.338,1171.98 242.552,1171.98 244.766,1171.98 246.981,1171.98 249.195,1171.98 251.409,1171.98 253.624,1171.98 255.838,1171.98 258.052,1171.98 260.266,1171.98 262.481,1171.98 264.695,1171.98 266.909,1171.98 269.123,1171.98 271.338,1171.98 273.552,1171.98 275.766,1171.98 277.981,1171.98 280.195,1171.98 282.409,1171.98 284.623,1171.98 286.838,1171.98 289.052,1171.98 291.266,1171.98 293.48,1171.98 295.695,1171.98 297.909,1171.98 300.123,1171.98 302.338,1171.98 304.552,1171.98 306.766,1171.98 308.98,1171.98 311.195,1171.98 313.409,1171.98 315.623,1171.98 317.838,1171.98 320.052,1171.98 322.266,1171.98 324.48,1171.98 326.695,1171.98 328.909,1171.98 331.123,1171.98 333.337,1171.98 335.552,1171.98 337.766,1171.98 339.98,1171.98 342.195,1171.98 344.409,1171.98 346.623,1171.98 348.837,1171.98 351.052,1171.98 353.266,1171.98 355.48,1171.98 357.694,1171.98 359.909,1171.98 362.123,1226.27 364.337,1226.27 366.552,1226.27 368.766,1226.27 370.98,1226.27 373.194,1226.27 375.409,1226.27 377.623,1226.27 379.837,1226.27 382.051,1226.27 384.266,1226.27 386.48,1226.27 388.694,1226.27 390.909,1226.27 393.123,1226.27 395.337,1171.98 397.551,1171.98 399.766,1171.98 401.98,1171.98 404.194,1171.98 406.408,1171.98 408.623,1171.98 410.837,1117.69 413.051,1117.69 415.266,1117.69 417.48,1117.69 419.694,1117.69 421.908,1117.69 424.123,1117.69 426.337,1063.4 428.551,1063.4 430.766,1063.4 432.98,1063.4 435.194,1063.4 437.408,1063.4 439.623,1063.4 441.837,1063.4 444.051,1063.4 446.265,1117.69 448.48,1117.69 450.694,1117.69 452.908,1117.69 455.123,1117.69 457.337,1117.69 459.551,1117.69 461.765,1117.69 463.98,1117.69 466.194,1117.69 468.408,1117.69 470.622,1117.69 472.837,1117.69 475.051,1117.69 477.265,1117.69 479.48,1117.69 481.694,1117.69 483.908,1117.69 486.122,1117.69 488.337,1117.69 490.551,1117.69 492.765,1117.69 494.979,1117.69 497.194,1117.69 499.408,1117.69 501.622,1117.69 503.837,1117.69 506.051,1117.69 508.265,1117.69 510.479,1117.69 512.694,1063.4 514.908,1063.4 517.122,1063.4 519.337,1063.4 521.551,1063.4 523.765,1063.4 525.979,1063.4 528.194,1063.4 530.408,1063.4 532.622,1063.4 534.836,1063.4 537.051,1063.4 539.265,1063.4 541.479,1063.4 543.694,1063.4 545.908,1063.4 548.122,1063.4 550.336,1063.4 552.551,1063.4 554.765,1063.4 556.979,1063.4 559.193,1063.4 561.408,1063.4 563.622,1117.69 565.836,1117.69 568.051,1117.69 570.265,1117.69 572.479,1117.69 574.693,1117.69 576.908,1117.69 579.122,1117.69 581.336,1117.69 583.55,1117.69 585.765,1117.69 587.979,1117.69 590.193,1117.69 592.408,1117.69 594.622,1117.69 596.836,1117.69 599.05,1063.4 601.265,1063.4 603.479,1063.4 605.693,1063.4 607.907,1063.4 610.122,1063.4 612.336,1063.4 614.55,1063.4 616.765,1063.4 618.979,1063.4 621.193,1063.4 623.407,1063.4 625.622,1063.4 627.836,1063.4 630.05,1063.4 632.265,1063.4 634.479,1063.4 636.693,1063.4 638.907,1063.4 641.122,1063.4 643.336,1063.4 645.55,1063.4 647.764,1063.4 649.979,1063.4 652.193,1063.4 654.407,1063.4 656.622,1063.4 658.836,1063.4 661.05,1063.4 663.264,1063.4 665.479,1063.4 667.693,1117.69 669.907,1117.69 672.121,1117.69 674.336,1117.69 676.55,1117.69 678.764,1171.98 680.979,1171.98 683.193,1171.98 685.407,1171.98 687.621,1171.98 689.836,1171.98 692.05,1171.98 694.264,1171.98 696.478,1171.98 698.693,1171.98 700.907,1171.98 703.121,1171.98 705.336,1171.98 707.55,1171.98 709.764,1171.98 711.978,1171.98 714.193,1171.98 716.407,1171.98 718.621,1171.98 720.835,1171.98 723.05,1171.98 725.264,1171.98 727.478,1171.98 729.693,1171.98 731.907,1171.98 734.121,1171.98 736.335,1171.98 738.55,1171.98 740.764,1171.98 742.978,1171.98 745.193,1171.98 747.407,1171.98 749.621,1171.98 751.835,1171.98 754.05,1171.98 756.264,1171.98 758.478,1171.98 760.692,1171.98 762.907,1171.98 765.121,1171.98 767.335,1171.98 769.55,1171.98 771.764,1171.98 773.978,1171.98 776.192,1171.98 778.407,1171.98 780.621,1171.98 782.835,1171.98 785.049,1171.98 787.264,1171.98 789.478,1171.98 791.692,1171.98 793.907,1171.98 796.121,1171.98 798.335,1171.98 800.549,1171.98 802.764,1171.98 804.978,1171.98 807.192,1171.98 809.406,1171.98 811.621,1171.98 813.835,1171.98 816.049,1171.98 818.264,1171.98 820.478,1171.98 822.692,1171.98 824.906,1171.98 827.121,1171.98 829.335,1171.98 831.549,1171.98 833.764,1171.98 835.978,1171.98 838.192,1171.98 840.406,1171.98 842.621,1171.98 844.835,1171.98 847.049,1226.27 849.263,1226.27 851.478,1226.27 853.692,1226.27 855.906,1226.27 858.121,1226.27 860.335,1226.27 862.549,1226.27 864.763,1226.27 866.978,1226.27 869.192,1226.27 871.406,1226.27 873.62,1226.27 875.835,1226.27 878.049,1226.27 880.263,1226.27 882.478,1226.27 884.692,1226.27 886.906,1226.27 889.12,1226.27 891.335,1226.27 893.549,1226.27 895.763,1226.27 897.977,1226.27 900.192,1226.27 902.406,1226.27 904.62,1226.27 906.835,1226.27 909.049,1226.27 911.263,1226.27 913.477,1226.27 915.692,1226.27 917.906,1226.27 920.12,1226.27 922.334,1226.27 924.549,1226.27 926.763,1226.27 928.977,1226.27 931.192,1226.27 933.406,1226.27 935.62,1226.27 937.834,1226.27 940.049,1226.27 942.263,1226.27 944.477,1226.27 946.692,1226.27 948.906,1226.27 951.12,1226.27 953.334,1226.27 955.549,1226.27 957.763,1226.27 959.977,1226.27 962.191,1226.27 964.406,1226.27 966.62,1226.27 968.834,1226.27 971.049,1226.27 973.263,1226.27 975.477,1226.27 977.691,1226.27 979.906,1226.27 982.12,1226.27 984.334,1226.27 986.548,1226.27 988.763,1226.27 990.977,1226.27 993.191,1226.27 995.406,1226.27 997.62,1226.27 999.834,1226.27 1002.05,1226.27 1004.26,1226.27 1006.48,1226.27 1008.69,1226.27 1010.91,1226.27 1013.12,1171.98 1015.33,1171.98 1017.55,1171.98 1019.76,1171.98 1021.98,1171.98 1024.19,1171.98 1026.41,1171.98 1028.62,1171.98 1030.83,1171.98 1033.05,1171.98 1035.26,1171.98 1037.48,1171.98 1039.69,1171.98 1041.91,1171.98 1044.12,1226.27 1046.33,1226.27 1048.55,1226.27 1050.76,1226.27 1052.98,1226.27 1055.19,1226.27 1057.41,1226.27 1059.62,1226.27 1061.83,1226.27 1064.05,1226.27 1066.26,1226.27 1068.48,1226.27 1070.69,1226.27 1072.91,1226.27 1075.12,1226.27 1077.33,1226.27 1079.55,1226.27 1081.76,1171.98 1083.98,1171.98 1086.19,1171.98 1088.41,1171.98 1090.62,1171.98 1092.83,1171.98 1095.05,1171.98 1097.26,1171.98 1099.48,1171.98 1101.69,1171.98 1103.91,1171.98 1106.12,1117.69 1108.33,1117.69 1110.55,1117.69 1112.76,1117.69 1114.98,1171.98 1117.19,1171.98 1119.4,1117.69 1121.62,1171.98 1123.83,1171.98 1126.05,1117.69 1128.26,1117.69 1130.48,1063.4 1132.69,1063.4 1134.9,1063.4 1137.12,1063.4 1139.33,1063.4 1141.55,1063.4 1143.76,1063.4 1145.98,1063.4 1148.19,1063.4 1150.4,1063.4 1152.62,1063.4 1154.83,1063.4 1157.05,1063.4 1159.26,1063.4 1161.48,1063.4 1163.69,1063.4 1165.9,1063.4 1168.12,1063.4 1170.33,1063.4 1172.55,1063.4 1174.76,1063.4 1176.98,1063.4 1179.19,1063.4 1181.4,1063.4 1183.62,1063.4 1185.83,1063.4 1188.05,1063.4 1190.26,1063.4 1192.48,1063.4 1194.69,1063.4 1196.9,1063.4 1199.12,1063.4 1201.33,1063.4 1203.55,1063.4 1205.76,1063.4 1207.98,1063.4 1210.19,1063.4 1212.4,1063.4 1214.62,1063.4 1216.83,1063.4 1219.05,1063.4 1221.26,1063.4 1223.48,1063.4 1225.69,1063.4 1227.9,1063.4 1230.12,1063.4 1232.33,1063.4 1234.55,1009.11 1236.76,1009.11 1238.98,1009.11 1241.19,1009.11 1243.4,1009.11 1245.62,1009.11 1247.83,1009.11 1250.05,1009.11 1252.26,1009.11 1254.48,1063.4 1256.69,1117.69 1258.9,1117.69 1261.12,1171.98 1263.33,1171.98 1265.55,1171.98 1267.76,1171.98 1269.98,1171.98 1272.19,1171.98 1274.4,1171.98 1276.62,1171.98 1278.83,1171.98 1281.05,1171.98 1283.26,1171.98 1285.48,1171.98 1287.69,1171.98 1289.9,1171.98 1292.12,1171.98 1294.33,1171.98 1296.55,1171.98 1298.76,1171.98 1300.98,1171.98 1303.19,1171.98 1305.4,1171.98 1307.62,1171.98 1309.83,1171.98 1312.05,1171.98 1314.26,1171.98 1316.48,1171.98 1318.69,1171.98 1320.9,1171.98 1323.12,1171.98 1325.33,1171.98 1327.55,1171.98 1329.76,1117.69 1331.98,1117.69 1334.19,1117.69 1336.4,1117.69 1338.62,1117.69 1340.83,1117.69 1343.05,1117.69 1345.26,1117.69 1347.48,1117.69 1349.69,1117.69 1351.9,1117.69 1354.12,1117.69 1356.33,1117.69 1358.55,1117.69 1360.76,1117.69 1362.98,1117.69 1365.19,1117.69 1367.4,1117.69 1369.62,1117.69 1371.83,1117.69 1374.05,1117.69 1376.26,1117.69 1378.48,1117.69 1380.69,1171.98 1382.9,1171.98 1385.12,1171.98 1387.33,1171.98 1389.55,1171.98 1391.76,1171.98 1393.97,1171.98 1396.19,1171.98 1398.4,1171.98 1400.62,1171.98 1402.83,1171.98 1405.05,1171.98 1407.26,1171.98 1409.47,1171.98 1411.69,1171.98 1413.9,1171.98 1416.12,1171.98 1418.33,1171.98 1420.55,1171.98 1422.76,1171.98 1424.97,1171.98 1427.19,1171.98 1429.4,1171.98 1431.62,1171.98 1433.83,1171.98 1436.05,1171.98 1438.26,1171.98 1440.47,1117.69 1442.69,1117.69 1444.9,1117.69 1447.12,1117.69 1449.33,1117.69 1451.55,1117.69 1453.76,1117.69 1455.97,1117.69 1458.19,1063.4 1460.4,1063.4 1462.62,1063.4 1464.83,1063.4 1467.05,1063.4 1469.26,1117.69 1471.47,1117.69 1473.69,1117.69 1475.9,1117.69 1478.12,1117.69 1480.33,1117.69 1482.55,1117.69 1484.76,1117.69 1486.97,1117.69 1489.19,1117.69 1491.4,1117.69 1493.62,1117.69 1495.83,1117.69 1498.05,1117.69 1500.26,1117.69 1502.47,1117.69 1504.69,1117.69 1506.9,1117.69 1509.12,1117.69 1511.33,1117.69 1513.55,1117.69 1515.76,1117.69 1517.97,1117.69 1520.19,1117.69 1522.4,1117.69 1524.62,1117.69 1526.83,1171.98 1529.05,1171.98 1531.26,1171.98 1533.47,1171.98 1535.69,1171.98 1537.9,1171.98 1540.12,1171.98 1542.33,1171.98 1544.55,1226.27 1546.76,1226.27 1548.97,1226.27 1551.19,1226.27 1553.4,1226.27 1555.62,1226.27 1557.83,1226.27 1560.05,1226.27 1562.26,1226.27 1564.47,1226.27 1566.69,1226.27 1568.9,1226.27 1571.12,1226.27 1573.33,1226.27 1575.55,1226.27 1577.76,1226.27 1579.97,1226.27 1582.19,1226.27 1584.4,1226.27 1586.62,1226.27 1588.83,1226.27 1591.05,1226.27 1593.26,1226.27 1595.47,1226.27 1597.69,1226.27 1599.9,1226.27 1602.12,1226.27 1604.33,1226.27 1606.55,1226.27 1608.76,1226.27 1610.97,1226.27 1613.19,1226.27 1615.4,1226.27 1617.62,1226.27 1619.83,1226.27 1622.05,1226.27 1624.26,1226.27 1626.47,1226.27 1628.69,1226.27 1630.9,1226.27 1633.12,1226.27 1635.33,1226.27 1637.55,1226.27 1639.76,1226.27 1641.97,1226.27 1644.19,1226.27 1646.4,1226.27 1648.62,1226.27 1650.83,1226.27 1653.05,1226.27 1655.26,1226.27 1657.47,1226.27 1659.69,1226.27 1661.9,1226.27 1664.12,1226.27 1666.33,1226.27 1668.55,1226.27 1670.76,1226.27 1672.97,1226.27 1675.19,1226.27 1677.4,1226.27 1679.62,1226.27 1681.83,1226.27 1684.04,1226.27 1686.26,1226.27 1688.47,1226.27 1690.69,1226.27 1692.9,1226.27 1695.12,1226.27 1697.33,1226.27 1699.54,1226.27 1701.76,1226.27 1703.97,1226.27 1706.19,1226.27 1708.4,1226.27 1710.62,1226.27 1712.83,1226.27 1715.04,1226.27 1717.26,1226.27 1719.47,1226.27 1721.69,1226.27 1723.9,1226.27 1726.12,1226.27 1728.33,1226.27 1730.54,1226.27 1732.76,1226.27 1734.97,1226.27 1737.19,1226.27 1739.4,1226.27 1741.62,1226.27 1743.83,1226.27 1746.04,1226.27 1748.26,1226.27 1750.47,1226.27 1752.69,1226.27 1754.9,1226.27 1757.12,1226.27 1759.33,1226.27 1761.54,1226.27 1763.76,1226.27 1765.97,1226.27 1768.19,1226.27 1770.4,1226.27 1772.62,1226.27 1774.83,1226.27 1777.04,1226.27 1779.26,1226.27 1781.47,1226.27 1783.69,1226.27 1785.9,1226.27 1788.12,1226.27 1790.33,1226.27 1792.54,1226.27 1794.76,1226.27 1796.97,1226.27 1799.19,1226.27 1801.4,1226.27 1803.62,1226.27 1805.83,1226.27 1808.04,1226.27 1810.26,1226.27 1812.47,1226.27 1814.69,1226.27 1816.9,1226.27 1819.12,1226.27 1821.33,1226.27 1823.54,1226.27 1825.76,1226.27 1827.97,1226.27 1830.19,1226.27 1832.4,1226.27 1834.62,1226.27 1836.83,1226.27 1839.04,1226.27 1841.26,1226.27 1843.47,1226.27 1845.69,1226.27 1847.9,1226.27 1850.12,1226.27 1852.33,1226.27 1854.54,1226.27 1856.76,1226.27 1858.97,1226.27 1861.19,1226.27 1863.4,1226.27 1865.62,1226.27 1867.83,1226.27 1870.04,1226.27 1872.26,1226.27 1874.47,1226.27 1876.69,1226.27 1878.9,1226.27 1881.12,1226.27 1883.33,1226.27 1885.54,1171.98 1887.76,1171.98 1889.97,1171.98 1892.19,1171.98 1894.4,1171.98 1896.62,1171.98 1898.83,1171.98 1901.04,1226.27 1903.26,1226.27 1905.47,1226.27 1907.69,1226.27 1909.9,1226.27 1912.12,1226.27 1914.33,1226.27 1916.54,1226.27 1918.76,1226.27 1920.97,1226.27 1923.19,1226.27 1925.4,1226.27 1927.62,1226.27 1929.83,1226.27 1932.04,1226.27 1934.26,1226.27 1936.47,1226.27 1938.69,1226.27 1940.9,1226.27 1943.12,1226.27 1945.33,1226.27 1947.54,1226.27 1949.76,1226.27 1951.97,1226.27 1954.19,1226.27 1956.4,1226.27 1958.62,1226.27 1960.83,1226.27 1963.04,1226.27 1965.26,1226.27 1967.47,1226.27 1969.69,1226.27 1971.9,1226.27 1974.11,1226.27 1976.33,1226.27 1978.54,1226.27 1980.76,1226.27 1982.97,1226.27 1985.19,1226.27 1987.4,1226.27 1989.61,1226.27 1991.83,1226.27 1994.04,1226.27 1996.26,1226.27 1998.47,1226.27 2000.69,1226.27 2002.9,1226.27 2005.11,1226.27 2007.33,1226.27 2009.54,1226.27 2011.76,1226.27 2013.97,1226.27 2016.19,1226.27 2018.4,1226.27 2020.61,1226.27 2022.83,1226.27 2025.04,1226.27 2027.26,1226.27 2029.47,1226.27 2031.69,1226.27 2033.9,1226.27 2036.11,1226.27 2038.33,1226.27 2040.54,1226.27 2042.76,1226.27 2044.97,1226.27 2047.19,1226.27 2049.4,1226.27 2051.61,1226.27 2053.83,1226.27 2056.04,1226.27 2058.26,1171.98 2060.47,1171.98 2062.69,1226.27 2064.9,1226.27 2067.11,1226.27 2069.33,1226.27 2071.54,1226.27 2073.76,1226.27 2075.97,1226.27 2078.19,1226.27 2080.4,1226.27 2082.61,1226.27 2084.83,1226.27 2087.04,1226.27 2089.26,1226.27 2091.47,1226.27 2093.69,1226.27 2095.9,1226.27 2098.11,1226.27 2100.33,1226.27 2102.54,1226.27 2104.76,1226.27 2106.97,1226.27 2109.19,1226.27 2111.4,1226.27 2113.61,1226.27 2115.83,1226.27 2118.04,1226.27 2120.26,1226.27 2122.47,1226.27 2124.69,1226.27 2126.9,1226.27 2129.11,1226.27 2131.33,1226.27 2133.54,1226.27 2135.76,1226.27 2137.97,1226.27 2140.19,1226.27 2142.4,1226.27 2144.61,1226.27 2146.83,1226.27 2149.04,1226.27 2151.26,1226.27 2153.47,1226.27 2155.69,1226.27 2157.9,1226.27 2160.11,1226.27 2162.33,1226.27 2164.54,1226.27 2166.76,1226.27 2168.97,1226.27 2171.19,1226.27 2173.4,1226.27 2175.61,1226.27 2177.83,1226.27 2180.04,1226.27 2182.26,1171.98 2184.47,1171.98 2186.69,1171.98 2188.9,1171.98 2191.11,1171.98 2193.33,1171.98 2195.54,1171.98 2197.76,1171.98 2199.97,1171.98 2202.19,1171.98 2204.4,1171.98 2206.61,1171.98 2208.83,1171.98 2211.04,1171.98 2213.26,1117.69 2215.47,1117.69 2217.69,1117.69 2219.9,1117.69 2222.11,1117.69 2224.33,1117.69 2226.54,1117.69 2228.76,1117.69 2230.97,1117.69 2233.19,1117.69 2235.4,1117.69 2237.61,1117.69 2239.83,1117.69 2242.04,1117.69 2244.26,1117.69 2246.47,1117.69 2248.68,1117.69 2250.9,1117.69 2253.11,1117.69 2255.33,1117.69 2257.54,1117.69 2259.76,1117.69 2261.97,1117.69 2264.18,1117.69 2266.4,1117.69 2268.61,1117.69 2270.83,1117.69 2273.04,1117.69 2275.26,1117.69 2277.47,1117.69 2279.68,1117.69 2281.9,1117.69 2284.11,1117.69 2286.33,1117.69 2288.54,1117.69 2290.76,1171.98 2292.97,1171.98 2295.18,1171.98 2297.4,1171.98 2299.61,1171.98 2301.83,1171.98 2304.04,1171.98 2306.26,1226.27 2308.47,1226.27 2310.68,1226.27 2312.9,1226.27 2315.11,1226.27 2317.33,1226.27 2319.54,1226.27 2321.76,1226.27 2323.97,1226.27 2326.18,1226.27 2328.4,1226.27 2330.61,1226.27 2332.83,1226.27 2335.04,1226.27 2337.26,1171.98 2339.47,1171.98 2341.68,1171.98 2343.9,1171.98 2346.11,1171.98 2348.33,1171.98 2350.54,1171.98 2352.76,1171.98 "/>
<polyline clip-path="url(#clip852)" style="stroke:#e26f46; stroke-linecap:round; stroke-linejoin:round; stroke-width:8; stroke-opacity:1; fill:none" points="140.696,1226.27 142.91,1226.27 145.124,1226.27 147.338,1226.27 149.553,1226.27 151.767,1226.27 153.981,1226.27 156.195,1226.27 158.41,1226.27 160.624,1226.27 162.838,1226.27 165.053,1226.27 167.267,1226.27 169.481,1226.27 171.695,1226.27 173.91,1226.27 176.124,1226.27 178.338,1226.27 180.552,1226.27 182.767,1226.27 184.981,1226.27 187.195,1226.27 189.41,1226.27 191.624,1226.27 193.838,1226.27 196.052,1226.27 198.267,1226.27 200.481,1226.27 202.695,1226.27 204.91,1226.27 207.124,1226.27 209.338,1226.27 211.552,1226.27 213.767,1226.27 215.981,1226.27 218.195,1226.27 220.409,1226.27 222.624,1226.27 224.838,1226.27 227.052,1226.27 229.267,1226.27 231.481,1226.27 233.695,1226.27 235.909,1226.27 238.124,1226.27 240.338,1226.27 242.552,1226.27 244.766,1226.27 246.981,1226.27 249.195,1226.27 251.409,1226.27 253.624,1226.27 255.838,1226.27 258.052,1226.27 260.266,1226.27 262.481,1226.27 264.695,1226.27 266.909,1226.27 269.123,1226.27 271.338,1226.27 273.552,1226.27 275.766,1226.27 277.981,1226.27 280.195,1226.27 282.409,1226.27 284.623,1226.27 286.838,1226.27 289.052,1226.27 291.266,1226.27 293.48,1226.27 295.695,1226.27 297.909,1226.27 300.123,1226.27 302.338,1226.27 304.552,1226.27 306.766,1226.27 308.98,1226.27 311.195,1226.27 313.409,1226.27 315.623,1226.27 317.838,1226.27 320.052,1226.27 322.266,1226.27 324.48,1226.27 326.695,1226.27 328.909,1226.27 331.123,1226.27 333.337,1226.27 335.552,1226.27 337.766,1226.27 339.98,1226.27 342.195,1226.27 344.409,1226.27 346.623,1226.27 348.837,1226.27 351.052,1226.27 353.266,1226.27 355.48,1226.27 357.694,1226.27 359.909,1226.27 362.123,1171.98 364.337,1171.98 366.552,1171.98 368.766,1171.98 370.98,1171.98 373.194,1171.98 375.409,1171.98 377.623,1171.98 379.837,1171.98 382.051,1171.98 384.266,1171.98 386.48,1171.98 388.694,1171.98 390.909,1171.98 393.123,1171.98 395.337,1171.98 397.551,1171.98 399.766,1171.98 401.98,1171.98 404.194,1171.98 406.408,1171.98 408.623,1171.98 410.837,1171.98 413.051,1171.98 415.266,1171.98 417.48,1171.98 419.694,1171.98 421.908,1171.98 424.123,1171.98 426.337,1171.98 428.551,1171.98 430.766,1171.98 432.98,1171.98 435.194,1171.98 437.408,1171.98 439.623,1171.98 441.837,1171.98 444.051,1171.98 446.265,1117.69 448.48,1117.69 450.694,1117.69 452.908,1117.69 455.123,1117.69 457.337,1117.69 459.551,1117.69 461.765,1117.69 463.98,1117.69 466.194,1117.69 468.408,1117.69 470.622,1117.69 472.837,1117.69 475.051,1117.69 477.265,1117.69 479.48,1117.69 481.694,1117.69 483.908,1117.69 486.122,1117.69 488.337,1117.69 490.551,1117.69 492.765,1117.69 494.979,1117.69 497.194,1117.69 499.408,1117.69 501.622,1117.69 503.837,1117.69 506.051,1117.69 508.265,1117.69 510.479,1117.69 512.694,1117.69 514.908,1117.69 517.122,1117.69 519.337,1117.69 521.551,1117.69 523.765,1117.69 525.979,1117.69 528.194,1117.69 530.408,1117.69 532.622,1117.69 534.836,1117.69 537.051,1117.69 539.265,1117.69 541.479,1117.69 543.694,1117.69 545.908,1117.69 548.122,1117.69 550.336,1117.69 552.551,1117.69 554.765,1117.69 556.979,1117.69 559.193,1117.69 561.408,1117.69 563.622,1063.4 565.836,1063.4 568.051,1063.4 570.265,1063.4 572.479,1063.4 574.693,1063.4 576.908,1063.4 579.122,1063.4 581.336,1063.4 583.55,1063.4 585.765,1063.4 587.979,1063.4 590.193,1063.4 592.408,1063.4 594.622,1063.4 596.836,1063.4 599.05,1063.4 601.265,1063.4 603.479,1063.4 605.693,1063.4 607.907,1063.4 610.122,1063.4 612.336,1063.4 614.55,1063.4 616.765,1063.4 618.979,1063.4 621.193,1063.4 623.407,1063.4 625.622,1063.4 627.836,1063.4 630.05,1063.4 632.265,1063.4 634.479,1063.4 636.693,1063.4 638.907,1063.4 641.122,1063.4 643.336,1063.4 645.55,1063.4 647.764,1063.4 649.979,1063.4 652.193,1063.4 654.407,1063.4 656.622,1063.4 658.836,1063.4 661.05,1063.4 663.264,1063.4 665.479,1063.4 667.693,1009.11 669.907,1009.11 672.121,1009.11 674.336,1009.11 676.55,1009.11 678.764,954.824 680.979,954.824 683.193,954.824 685.407,954.824 687.621,954.824 689.836,954.824 692.05,954.824 694.264,954.824 696.478,954.824 698.693,954.824 700.907,954.824 703.121,954.824 705.336,954.824 707.55,954.824 709.764,954.824 711.978,954.824 714.193,954.824 716.407,954.824 718.621,954.824 720.835,954.824 723.05,954.824 725.264,954.824 727.478,954.824 729.693,954.824 731.907,954.824 734.121,954.824 736.335,954.824 738.55,954.824 740.764,954.824 742.978,954.824 745.193,954.824 747.407,954.824 749.621,954.824 751.835,954.824 754.05,954.824 756.264,954.824 758.478,954.824 760.692,954.824 762.907,954.824 765.121,954.824 767.335,954.824 769.55,954.824 771.764,954.824 773.978,954.824 776.192,954.824 778.407,954.824 780.621,954.824 782.835,954.824 785.049,954.824 787.264,954.824 789.478,954.824 791.692,954.824 793.907,954.824 796.121,954.824 798.335,954.824 800.549,954.824 802.764,954.824 804.978,954.824 807.192,954.824 809.406,954.824 811.621,954.824 813.835,954.824 816.049,954.824 818.264,954.824 820.478,954.824 822.692,954.824 824.906,954.824 827.121,954.824 829.335,954.824 831.549,954.824 833.764,954.824 835.978,954.824 838.192,954.824 840.406,954.824 842.621,954.824 844.835,954.824 847.049,900.534 849.263,900.534 851.478,900.534 853.692,900.534 855.906,900.534 858.121,900.534 860.335,900.534 862.549,900.534 864.763,900.534 866.978,900.534 869.192,900.534 871.406,900.534 873.62,900.534 875.835,900.534 878.049,900.534 880.263,900.534 882.478,900.534 884.692,900.534 886.906,900.534 889.12,900.534 891.335,900.534 893.549,900.534 895.763,900.534 897.977,900.534 900.192,900.534 902.406,900.534 904.62,900.534 906.835,900.534 909.049,900.534 911.263,900.534 913.477,900.534 915.692,900.534 917.906,900.534 920.12,900.534 922.334,900.534 924.549,900.534 926.763,900.534 928.977,900.534 931.192,900.534 933.406,900.534 935.62,900.534 937.834,900.534 940.049,900.534 942.263,900.534 944.477,900.534 946.692,900.534 948.906,900.534 951.12,900.534 953.334,900.534 955.549,900.534 957.763,900.534 959.977,900.534 962.191,900.534 964.406,900.534 966.62,900.534 968.834,900.534 971.049,900.534 973.263,900.534 975.477,900.534 977.691,900.534 979.906,900.534 982.12,900.534 984.334,900.534 986.548,900.534 988.763,900.534 990.977,900.534 993.191,900.534 995.406,900.534 997.62,900.534 999.834,900.534 1002.05,900.534 1004.26,900.534 1006.48,900.534 1008.69,900.534 1010.91,900.534 1013.12,900.534 1015.33,900.534 1017.55,900.534 1019.76,900.534 1021.98,900.534 1024.19,900.534 1026.41,900.534 1028.62,900.534 1030.83,900.534 1033.05,900.534 1035.26,900.534 1037.48,900.534 1039.69,900.534 1041.91,900.534 1044.12,846.244 1046.33,846.244 1048.55,846.244 1050.76,846.244 1052.98,846.244 1055.19,846.244 1057.41,846.244 1059.62,846.244 1061.83,846.244 1064.05,846.244 1066.26,846.244 1068.48,846.244 1070.69,846.244 1072.91,846.244 1075.12,846.244 1077.33,846.244 1079.55,846.244 1081.76,846.244 1083.98,846.244 1086.19,846.244 1088.41,846.244 1090.62,846.244 1092.83,846.244 1095.05,846.244 1097.26,846.244 1099.48,846.244 1101.69,846.244 1103.91,846.244 1106.12,846.244 1108.33,846.244 1110.55,846.244 1112.76,846.244 1114.98,791.954 1117.19,791.954 1119.4,791.954 1121.62,737.664 1123.83,737.664 1126.05,737.664 1128.26,737.664 1130.48,737.664 1132.69,737.664 1134.9,737.664 1137.12,737.664 1139.33,737.664 1141.55,737.664 1143.76,737.664 1145.98,737.664 1148.19,737.664 1150.4,737.664 1152.62,737.664 1154.83,737.664 1157.05,737.664 1159.26,737.664 1161.48,737.664 1163.69,737.664 1165.9,737.664 1168.12,737.664 1170.33,737.664 1172.55,737.664 1174.76,737.664 1176.98,737.664 1179.19,737.664 1181.4,737.664 1183.62,737.664 1185.83,737.664 1188.05,737.664 1190.26,737.664 1192.48,737.664 1194.69,737.664 1196.9,737.664 1199.12,737.664 1201.33,737.664 1203.55,737.664 1205.76,737.664 1207.98,737.664 1210.19,737.664 1212.4,737.664 1214.62,737.664 1216.83,737.664 1219.05,737.664 1221.26,737.664 1223.48,737.664 1225.69,737.664 1227.9,737.664 1230.12,737.664 1232.33,737.664 1234.55,737.664 1236.76,737.664 1238.98,737.664 1241.19,737.664 1243.4,737.664 1245.62,737.664 1247.83,737.664 1250.05,737.664 1252.26,737.664 1254.48,683.374 1256.69,629.084 1258.9,629.084 1261.12,574.795 1263.33,574.795 1265.55,574.795 1267.76,574.795 1269.98,574.795 1272.19,574.795 1274.4,574.795 1276.62,574.795 1278.83,574.795 1281.05,574.795 1283.26,574.795 1285.48,574.795 1287.69,574.795 1289.9,574.795 1292.12,574.795 1294.33,574.795 1296.55,574.795 1298.76,574.795 1300.98,574.795 1303.19,574.795 1305.4,574.795 1307.62,574.795 1309.83,574.795 1312.05,574.795 1314.26,574.795 1316.48,574.795 1318.69,574.795 1320.9,574.795 1323.12,574.795 1325.33,574.795 1327.55,574.795 1329.76,574.795 1331.98,574.795 1334.19,574.795 1336.4,574.795 1338.62,574.795 1340.83,574.795 1343.05,574.795 1345.26,574.795 1347.48,574.795 1349.69,574.795 1351.9,574.795 1354.12,574.795 1356.33,574.795 1358.55,574.795 1360.76,574.795 1362.98,574.795 1365.19,574.795 1367.4,574.795 1369.62,574.795 1371.83,574.795 1374.05,574.795 1376.26,574.795 1378.48,574.795 1380.69,520.505 1382.9,520.505 1385.12,520.505 1387.33,520.505 1389.55,520.505 1391.76,520.505 1393.97,520.505 1396.19,520.505 1398.4,520.505 1400.62,520.505 1402.83,520.505 1405.05,520.505 1407.26,520.505 1409.47,520.505 1411.69,520.505 1413.9,520.505 1416.12,520.505 1418.33,520.505 1420.55,520.505 1422.76,520.505 1424.97,520.505 1427.19,520.505 1429.4,520.505 1431.62,520.505 1433.83,520.505 1436.05,520.505 1438.26,520.505 1440.47,520.505 1442.69,520.505 1444.9,520.505 1447.12,520.505 1449.33,520.505 1451.55,520.505 1453.76,520.505 1455.97,520.505 1458.19,520.505 1460.4,520.505 1462.62,520.505 1464.83,520.505 1467.05,520.505 1469.26,466.215 1471.47,466.215 1473.69,466.215 1475.9,466.215 1478.12,466.215 1480.33,466.215 1482.55,466.215 1484.76,466.215 1486.97,466.215 1489.19,466.215 1491.4,466.215 1493.62,466.215 1495.83,466.215 1498.05,466.215 1500.26,466.215 1502.47,466.215 1504.69,466.215 1506.9,466.215 1509.12,466.215 1511.33,466.215 1513.55,466.215 1515.76,466.215 1517.97,466.215 1520.19,466.215 1522.4,466.215 1524.62,466.215 1526.83,411.925 1529.05,411.925 1531.26,411.925 1533.47,411.925 1535.69,411.925 1537.9,411.925 1540.12,411.925 1542.33,411.925 1544.55,357.635 1546.76,357.635 1548.97,357.635 1551.19,357.635 1553.4,357.635 1555.62,357.635 1557.83,357.635 1560.05,357.635 1562.26,357.635 1564.47,357.635 1566.69,357.635 1568.9,357.635 1571.12,357.635 1573.33,357.635 1575.55,357.635 1577.76,357.635 1579.97,357.635 1582.19,357.635 1584.4,357.635 1586.62,357.635 1588.83,357.635 1591.05,357.635 1593.26,357.635 1595.47,357.635 1597.69,357.635 1599.9,357.635 1602.12,357.635 1604.33,357.635 1606.55,357.635 1608.76,357.635 1610.97,357.635 1613.19,357.635 1615.4,357.635 1617.62,357.635 1619.83,357.635 1622.05,357.635 1624.26,357.635 1626.47,357.635 1628.69,357.635 1630.9,357.635 1633.12,357.635 1635.33,357.635 1637.55,357.635 1639.76,357.635 1641.97,357.635 1644.19,357.635 1646.4,357.635 1648.62,357.635 1650.83,357.635 1653.05,357.635 1655.26,357.635 1657.47,357.635 1659.69,357.635 1661.9,357.635 1664.12,357.635 1666.33,357.635 1668.55,357.635 1670.76,357.635 1672.97,357.635 1675.19,357.635 1677.4,357.635 1679.62,357.635 1681.83,357.635 1684.04,357.635 1686.26,357.635 1688.47,357.635 1690.69,357.635 1692.9,357.635 1695.12,357.635 1697.33,357.635 1699.54,357.635 1701.76,357.635 1703.97,357.635 1706.19,357.635 1708.4,357.635 1710.62,357.635 1712.83,357.635 1715.04,357.635 1717.26,357.635 1719.47,357.635 1721.69,357.635 1723.9,357.635 1726.12,357.635 1728.33,357.635 1730.54,357.635 1732.76,357.635 1734.97,357.635 1737.19,357.635 1739.4,357.635 1741.62,357.635 1743.83,357.635 1746.04,357.635 1748.26,357.635 1750.47,357.635 1752.69,357.635 1754.9,357.635 1757.12,357.635 1759.33,357.635 1761.54,357.635 1763.76,357.635 1765.97,357.635 1768.19,357.635 1770.4,357.635 1772.62,357.635 1774.83,357.635 1777.04,357.635 1779.26,357.635 1781.47,357.635 1783.69,357.635 1785.9,357.635 1788.12,357.635 1790.33,357.635 1792.54,357.635 1794.76,357.635 1796.97,357.635 1799.19,357.635 1801.4,357.635 1803.62,357.635 1805.83,357.635 1808.04,357.635 1810.26,357.635 1812.47,357.635 1814.69,357.635 1816.9,357.635 1819.12,357.635 1821.33,357.635 1823.54,357.635 1825.76,357.635 1827.97,357.635 1830.19,357.635 1832.4,357.635 1834.62,357.635 1836.83,357.635 1839.04,357.635 1841.26,357.635 1843.47,357.635 1845.69,357.635 1847.9,357.635 1850.12,357.635 1852.33,357.635 1854.54,357.635 1856.76,357.635 1858.97,357.635 1861.19,357.635 1863.4,357.635 1865.62,357.635 1867.83,357.635 1870.04,357.635 1872.26,357.635 1874.47,357.635 1876.69,357.635 1878.9,357.635 1881.12,357.635 1883.33,357.635 1885.54,357.635 1887.76,357.635 1889.97,357.635 1892.19,357.635 1894.4,357.635 1896.62,357.635 1898.83,357.635 1901.04,303.345 1903.26,249.055 1905.47,249.055 1907.69,249.055 1909.9,249.055 1912.12,249.055 1914.33,249.055 1916.54,249.055 1918.76,249.055 1920.97,249.055 1923.19,249.055 1925.4,249.055 1927.62,249.055 1929.83,249.055 1932.04,249.055 1934.26,249.055 1936.47,249.055 1938.69,249.055 1940.9,249.055 1943.12,249.055 1945.33,249.055 1947.54,249.055 1949.76,249.055 1951.97,249.055 1954.19,249.055 1956.4,249.055 1958.62,249.055 1960.83,249.055 1963.04,249.055 1965.26,249.055 1967.47,249.055 1969.69,249.055 1971.9,249.055 1974.11,249.055 1976.33,249.055 1978.54,249.055 1980.76,249.055 1982.97,249.055 1985.19,249.055 1987.4,249.055 1989.61,249.055 1991.83,249.055 1994.04,249.055 1996.26,249.055 1998.47,249.055 2000.69,249.055 2002.9,249.055 2005.11,249.055 2007.33,249.055 2009.54,249.055 2011.76,249.055 2013.97,249.055 2016.19,249.055 2018.4,249.055 2020.61,249.055 2022.83,249.055 2025.04,249.055 2027.26,249.055 2029.47,249.055 2031.69,249.055 2033.9,249.055 2036.11,249.055 2038.33,249.055 2040.54,249.055 2042.76,249.055 2044.97,249.055 2047.19,249.055 2049.4,249.055 2051.61,249.055 2053.83,249.055 2056.04,249.055 2058.26,249.055 2060.47,249.055 2062.69,194.765 2064.9,194.765 2067.11,194.765 2069.33,194.765 2071.54,194.765 2073.76,194.765 2075.97,194.765 2078.19,194.765 2080.4,194.765 2082.61,194.765 2084.83,194.765 2087.04,194.765 2089.26,194.765 2091.47,194.765 2093.69,194.765 2095.9,194.765 2098.11,194.765 2100.33,194.765 2102.54,194.765 2104.76,194.765 2106.97,194.765 2109.19,194.765 2111.4,194.765 2113.61,194.765 2115.83,194.765 2118.04,194.765 2120.26,194.765 2122.47,194.765 2124.69,194.765 2126.9,194.765 2129.11,194.765 2131.33,194.765 2133.54,194.765 2135.76,194.765 2137.97,194.765 2140.19,194.765 2142.4,194.765 2144.61,194.765 2146.83,194.765 2149.04,194.765 2151.26,194.765 2153.47,194.765 2155.69,194.765 2157.9,194.765 2160.11,194.765 2162.33,194.765 2164.54,194.765 2166.76,194.765 2168.97,194.765 2171.19,194.765 2173.4,194.765 2175.61,194.765 2177.83,194.765 2180.04,194.765 2182.26,194.765 2184.47,194.765 2186.69,194.765 2188.9,194.765 2191.11,194.765 2193.33,194.765 2195.54,194.765 2197.76,194.765 2199.97,194.765 2202.19,194.765 2204.4,194.765 2206.61,194.765 2208.83,194.765 2211.04,194.765 2213.26,194.765 2215.47,194.765 2217.69,194.765 2219.9,194.765 2222.11,194.765 2224.33,194.765 2226.54,194.765 2228.76,194.765 2230.97,194.765 2233.19,194.765 2235.4,194.765 2237.61,194.765 2239.83,194.765 2242.04,194.765 2244.26,194.765 2246.47,194.765 2248.68,194.765 2250.9,194.765 2253.11,194.765 2255.33,194.765 2257.54,194.765 2259.76,194.765 2261.97,194.765 2264.18,194.765 2266.4,194.765 2268.61,194.765 2270.83,194.765 2273.04,194.765 2275.26,194.765 2277.47,194.765 2279.68,194.765 2281.9,194.765 2284.11,194.765 2286.33,194.765 2288.54,194.765 2290.76,140.476 2292.97,140.476 2295.18,140.476 2297.4,140.476 2299.61,140.476 2301.83,140.476 2304.04,140.476 2306.26,86.1857 2308.47,86.1857 2310.68,86.1857 2312.9,86.1857 2315.11,86.1857 2317.33,86.1857 2319.54,86.1857 2321.76,86.1857 2323.97,86.1857 2326.18,86.1857 2328.4,86.1857 2330.61,86.1857 2332.83,86.1857 2335.04,86.1857 2337.26,86.1857 2339.47,86.1857 2341.68,86.1857 2343.9,86.1857 2346.11,86.1857 2348.33,86.1857 2350.54,86.1857 2352.76,86.1857 "/>
<polyline clip-path="url(#clip852)" style="stroke:#3da44d; stroke-linecap:round; stroke-linejoin:round; stroke-width:8; stroke-opacity:1; fill:none" points="140.696,1277.7 142.91,1276.61 145.124,1275.49 147.338,1274.36 149.553,1273.22 151.767,1272.05 153.981,1270.87 156.195,1269.68 158.41,1268.46 160.624,1267.23 162.838,1265.98 165.053,1264.71 167.267,1263.43 169.481,1262.13 171.695,1260.82 173.91,1259.48 176.124,1258.14 178.338,1256.77 180.552,1255.39 182.767,1253.99 184.981,1252.57 187.195,1251.14 189.41,1249.7 191.624,1248.23 193.838,1246.75 196.052,1245.26 198.267,1243.75 200.481,1242.22 202.695,1240.68 204.91,1239.12 207.124,1237.55 209.338,1235.96 211.552,1234.35 213.767,1232.74 215.981,1231.1 218.195,1229.45 220.409,1227.79 222.624,1384.24 224.838,1382.55 227.052,1380.84 229.267,1379.12 231.481,1377.39 233.695,1375.64 235.909,1373.88 238.124,1372.11 240.338,1370.32 242.552,1368.52 244.766,1366.71 246.981,1364.88 249.195,1363.05 251.409,1361.2 253.624,1359.33 255.838,1357.46 258.052,1355.57 260.266,1353.68 262.481,1351.77 264.695,1349.85 266.909,1347.92 269.123,1345.98 271.338,1344.03 273.552,1342.07 275.766,1340.09 277.981,1338.11 280.195,1336.12 282.409,1334.12 284.623,1332.11 286.838,1330.09 289.052,1328.06 291.266,1326.03 293.48,1323.98 295.695,1321.93 297.909,1319.87 300.123,1317.81 302.338,1315.73 304.552,1313.65 306.766,1311.56 308.98,1309.47 311.195,1307.37 313.409,1305.26 315.623,1303.15 317.838,1301.03 320.052,1298.9 322.266,1296.78 324.48,1294.64 326.695,1292.5 328.909,1290.36 331.123,1288.22 333.337,1286.07 335.552,1283.91 337.766,1281.76 339.98,1279.6 342.195,1277.44 344.409,1275.27 346.623,1273.11 348.837,1270.94 351.052,1268.77 353.266,1266.6 355.48,1264.42 357.694,1262.25 359.909,1260.08 362.123,1257.9 364.337,1255.73 366.552,1253.55 368.766,1251.38 370.98,1249.21 373.194,1247.04 375.409,1244.87 377.623,1242.7 379.837,1240.53 382.051,1238.37 384.266,1236.21 386.48,1234.05 388.694,1231.89 390.909,1229.74 393.123,1227.59 395.337,1240.52 397.551,1238.38 399.766,1236.24 401.98,1234.11 404.194,1231.98 406.408,1229.86 408.623,1227.74 410.837,1239.63 413.051,1237.53 415.266,1235.43 417.48,1233.33 419.694,1231.25 421.908,1229.17 424.123,1227.09 426.337,1298.25 428.551,1296.19 430.766,1294.14 432.98,1292.1 435.194,1290.06 437.408,1288.04 439.623,1286.02 441.837,1284.01 444.051,1282.01 446.265,1280.02 448.48,1278.04 450.694,1276.07 452.908,1274.11 455.123,1272.16 457.337,1270.22 459.551,1268.3 461.765,1266.38 463.98,1264.47 466.194,1262.58 468.408,1260.69 470.622,1258.82 472.837,1256.96 475.051,1255.12 477.265,1253.28 479.48,1251.46 481.694,1249.65 483.908,1247.85 486.122,1246.07 488.337,1244.29 490.551,1242.54 492.765,1240.79 494.979,1239.06 497.194,1237.35 499.408,1235.64 501.622,1233.96 503.837,1232.28 506.051,1230.62 508.265,1228.98 510.479,1227.35 512.694,1276.21 514.908,1274.61 517.122,1273.02 519.337,1271.45 521.551,1269.9 523.765,1268.36 525.979,1266.84 528.194,1265.33 530.408,1263.84 532.622,1262.36 534.836,1260.9 537.051,1259.46 539.265,1258.03 541.479,1256.62 543.694,1255.22 545.908,1253.84 548.122,1252.48 550.336,1251.13 552.551,1249.81 554.765,1248.49 556.979,1247.2 559.193,1245.92 561.408,1244.66 563.622,1243.41 565.836,1242.18 568.051,1240.97 570.265,1239.78 572.479,1238.6 574.693,1237.44 576.908,1236.29 579.122,1235.17 581.336,1234.06 583.55,1232.97 585.765,1231.89 587.979,1230.83 590.193,1229.79 592.408,1228.77 594.622,1227.76 596.836,1226.77 599.05,1291.52 601.265,1290.56 603.479,1289.63 605.693,1288.7 607.907,1287.8 610.122,1286.91 612.336,1286.04 614.55,1285.19 616.765,1284.35 618.979,1283.53 621.193,1282.72 623.407,1281.93 625.622,1281.16 627.836,1280.41 630.05,1279.67 632.265,1278.94 634.479,1278.24 636.693,1277.54 638.907,1276.87 641.122,1276.21 643.336,1275.57 645.55,1274.94 647.764,1274.32 649.979,1273.73 652.193,1273.14 654.407,1272.58 656.622,1272.02 658.836,1271.49 661.05,1270.96 663.264,1270.46 665.479,1269.96 667.693,1269.48 669.907,1269.02 672.121,1268.56 674.336,1268.13 676.55,1267.7 678.764,1267.29 680.979,1266.9 683.193,1266.51 685.407,1266.14 687.621,1265.78 689.836,1265.44 692.05,1265.1 694.264,1264.78 696.478,1264.47 698.693,1264.18 700.907,1263.89 703.121,1263.62 705.336,1263.35 707.55,1263.1 709.764,1262.86 711.978,1262.63 714.193,1262.41 716.407,1262.2 718.621,1262 720.835,1261.81 723.05,1261.63 725.264,1261.46 727.478,1261.29 729.693,1261.14 731.907,1261 734.121,1260.86 736.335,1260.73 738.55,1260.61 740.764,1260.5 742.978,1260.39 745.193,1260.29 747.407,1260.2 749.621,1260.12 751.835,1260.04 754.05,1259.97 756.264,1259.9 758.478,1259.84 760.692,1259.79 762.907,1259.74 765.121,1259.69 767.335,1259.65 769.55,1259.62 771.764,1259.59 773.978,1259.56 776.192,1259.54 778.407,1259.52 780.621,1259.5 782.835,1259.49 785.049,1259.47 787.264,1259.47 789.478,1259.46 791.692,1259.45 793.907,1259.45 796.121,1259.45 798.335,1259.45 800.549,1259.45 802.764,1259.45 804.978,1259.45 807.192,1259.45 809.406,1259.45 811.621,1259.45 813.835,1259.44 816.049,1259.44 818.264,1259.44 820.478,1259.43 822.692,1259.42 824.906,1259.41 827.121,1259.4 829.335,1259.38 831.549,1259.36 833.764,1259.34 835.978,1259.32 838.192,1259.29 840.406,1259.25 842.621,1259.22 844.835,1259.17 847.049,1259.13 849.263,1259.08 851.478,1259.02 853.692,1258.96 855.906,1258.89 858.121,1258.82 860.335,1258.74 862.549,1258.65 864.763,1258.55 866.978,1258.45 869.192,1258.34 871.406,1258.23 873.62,1258.1 875.835,1257.97 878.049,1257.83 880.263,1257.68 882.478,1257.52 884.692,1257.35 886.906,1257.18 889.12,1256.99 891.335,1256.79 893.549,1256.59 895.763,1256.37 897.977,1256.15 900.192,1255.91 902.406,1255.66 904.62,1255.4 906.835,1255.13 909.049,1254.85 911.263,1254.56 913.477,1254.25 915.692,1253.93 917.906,1253.61 920.12,1253.26 922.334,1252.91 924.549,1252.54 926.763,1252.16 928.977,1251.77 931.192,1251.37 933.406,1250.95 935.62,1250.51 937.834,1250.07 940.049,1249.61 942.263,1249.13 944.477,1248.64 946.692,1248.14 948.906,1247.62 951.12,1247.09 953.334,1246.54 955.549,1245.98 957.763,1245.41 959.977,1244.82 962.191,1244.21 964.406,1243.59 966.62,1242.95 968.834,1242.3 971.049,1241.63 973.263,1240.94 975.477,1240.24 977.691,1239.53 979.906,1238.79 982.12,1238.04 984.334,1237.28 986.548,1236.5 988.763,1235.7 990.977,1234.89 993.191,1234.05 995.406,1233.21 997.62,1232.34 999.834,1231.46 1002.05,1230.56 1004.26,1229.65 1006.48,1228.72 1008.69,1227.77 1010.91,1226.8 1013.12,1264.01 1015.33,1263.01 1017.55,1261.99 1019.76,1260.96 1021.98,1259.91 1024.19,1258.84 1026.41,1257.75 1028.62,1256.65 1030.83,1255.53 1033.05,1254.4 1035.26,1253.24 1037.48,1252.07 1039.69,1250.88 1041.91,1249.68 1044.12,1248.45 1046.33,1247.21 1048.55,1245.96 1050.76,1244.69 1052.98,1243.4 1055.19,1242.09 1057.41,1240.77 1059.62,1239.43 1061.83,1238.07 1064.05,1236.7 1066.26,1235.31 1068.48,1233.91 1070.69,1232.49 1072.91,1231.05 1075.12,1229.59 1077.33,1228.12 1079.55,1226.64 1081.76,1243.31 1083.98,1241.79 1086.19,1240.26 1088.41,1238.71 1090.62,1237.15 1092.83,1235.57 1095.05,1233.97 1097.26,1232.36 1099.48,1230.74 1101.69,1229.1 1103.91,1227.45 1106.12,1234.84 1108.33,1233.16 1110.55,1231.46 1112.76,1229.75 1114.98,1228.02 1117.19,1226.28 1119.4,1231.09 1121.62,1229.32 1123.83,1227.54 1126.05,1228.55 1128.26,1226.75 1130.48,1322.13 1132.69,1320.3 1134.9,1318.46 1137.12,1316.6 1139.33,1314.74 1141.55,1312.86 1143.76,1310.97 1145.98,1309.07 1148.19,1307.15 1150.4,1305.23 1152.62,1303.29 1154.83,1301.35 1157.05,1299.39 1159.26,1297.43 1161.48,1295.45 1163.69,1293.47 1165.9,1291.47 1168.12,1289.47 1170.33,1287.45 1172.55,1285.43 1174.76,1283.4 1176.98,1281.36 1179.19,1279.32 1181.4,1277.26 1183.62,1275.2 1185.83,1273.13 1188.05,1271.05 1190.26,1268.97 1192.48,1266.88 1194.69,1264.78 1196.9,1262.68 1199.12,1260.57 1201.33,1258.45 1203.55,1256.33 1205.76,1254.21 1207.98,1252.07 1210.19,1249.94 1212.4,1247.8 1214.62,1245.66 1216.83,1243.51 1219.05,1241.36 1221.26,1239.2 1223.48,1237.05 1225.69,1234.88 1227.9,1232.72 1230.12,1230.56 1232.33,1228.39 1234.55,1316.79 1236.76,1314.62 1238.98,1312.45 1241.19,1310.27 1243.4,1308.1 1245.62,1305.93 1247.83,1303.75 1250.05,1301.58 1252.26,1299.41 1254.48,1297.23 1256.69,1295.06 1258.9,1292.88 1261.12,1290.72 1263.33,1288.55 1265.55,1286.38 1267.76,1284.22 1269.98,1282.06 1272.19,1279.9 1274.4,1277.75 1276.62,1275.6 1278.83,1273.45 1281.05,1271.31 1283.26,1269.17 1285.48,1267.03 1287.69,1264.9 1289.9,1262.77 1292.12,1260.65 1294.33,1258.54 1296.55,1256.43 1298.76,1254.33 1300.98,1252.23 1303.19,1250.14 1305.4,1248.05 1307.62,1245.98 1309.83,1243.91 1312.05,1241.84 1314.26,1239.79 1316.48,1237.74 1318.69,1235.7 1320.9,1233.67 1323.12,1231.65 1325.33,1229.64 1327.55,1227.63 1329.76,1309.11 1331.98,1307.12 1334.19,1305.15 1336.4,1303.18 1338.62,1301.23 1340.83,1299.28 1343.05,1297.35 1345.26,1295.42 1347.48,1293.51 1349.69,1291.61 1351.9,1289.72 1354.12,1287.84 1356.33,1285.97 1358.55,1284.12 1360.76,1282.28 1362.98,1280.44 1365.19,1278.63 1367.4,1276.82 1369.62,1275.03 1371.83,1273.25 1374.05,1271.49 1376.26,1269.73 1378.48,1267.99 1380.69,1266.26 1382.9,1264.55 1385.12,1262.85 1387.33,1261.17 1389.55,1259.5 1391.76,1257.85 1393.97,1256.21 1396.19,1254.58 1398.4,1252.97 1400.62,1251.38 1402.83,1249.8 1405.05,1248.24 1407.26,1246.69 1409.47,1245.16 1411.69,1243.64 1413.9,1242.14 1416.12,1240.65 1418.33,1239.18 1420.55,1237.73 1422.76,1236.29 1424.97,1234.87 1427.19,1233.46 1429.4,1232.07 1431.62,1230.7 1433.83,1229.35 1436.05,1228.01 1438.26,1226.68 1440.47,1235.79 1442.69,1234.5 1444.9,1233.22 1447.12,1231.97 1449.33,1230.73 1451.55,1229.51 1453.76,1228.3 1455.97,1227.12 1458.19,1298.87 1460.4,1297.71 1462.62,1296.58 1464.83,1295.46 1467.05,1294.36 1469.26,1293.27 1471.47,1292.2 1473.69,1291.15 1475.9,1290.12 1478.12,1289.1 1480.33,1288.1 1482.55,1287.12 1484.76,1286.15 1486.97,1285.21 1489.19,1284.27 1491.4,1283.36 1493.62,1282.46 1495.83,1281.58 1498.05,1280.71 1500.26,1279.87 1502.47,1279.04 1504.69,1278.22 1506.9,1277.42 1509.12,1276.64 1511.33,1275.88 1513.55,1275.13 1515.76,1274.39 1517.97,1273.68 1520.19,1272.98 1522.4,1272.29 1524.62,1271.62 1526.83,1270.98 1529.05,1270.34 1531.26,1269.72 1533.47,1269.11 1535.69,1268.52 1537.9,1267.94 1540.12,1267.38 1542.33,1266.84 1544.55,1266.31 1546.76,1265.79 1548.97,1265.29 1551.19,1264.8 1553.4,1264.33 1555.62,1263.87 1557.83,1263.42 1560.05,1262.99 1562.26,1262.58 1564.47,1262.17 1566.69,1261.78 1568.9,1261.4 1571.12,1261.04 1573.33,1260.68 1575.55,1260.34 1577.76,1260.02 1579.97,1259.7 1582.19,1259.4 1584.4,1259.1 1586.62,1258.82 1588.83,1258.55 1591.05,1258.3 1593.26,1258.05 1595.47,1257.81 1597.69,1257.58 1599.9,1257.37 1602.12,1257.16 1604.33,1256.97 1606.55,1256.78 1608.76,1256.6 1610.97,1256.43 1613.19,1256.27 1615.4,1256.12 1617.62,1255.98 1619.83,1255.85 1622.05,1255.72 1624.26,1255.6 1626.47,1255.49 1628.69,1255.39 1630.9,1255.29 1633.12,1255.2 1635.33,1255.12 1637.55,1255.04 1639.76,1254.97 1641.97,1254.91 1644.19,1254.85 1646.4,1254.79 1648.62,1254.75 1650.83,1254.7 1653.05,1254.66 1655.26,1254.63 1657.47,1254.6 1659.69,1254.57 1661.9,1254.55 1664.12,1254.53 1666.33,1254.52 1668.55,1254.5 1670.76,1254.49 1672.97,1254.48 1675.19,1254.48 1677.4,1254.47 1679.62,1254.47 1681.83,1254.47 1684.04,1254.47 1686.26,1254.47 1688.47,1254.47 1690.69,1254.47 1692.9,1254.47 1695.12,1254.47 1697.33,1254.47 1699.54,1254.47 1701.76,1254.46 1703.97,1254.46 1706.19,1254.45 1708.4,1254.45 1710.62,1254.44 1712.83,1254.42 1715.04,1254.41 1717.26,1254.39 1719.47,1254.36 1721.69,1254.34 1723.9,1254.31 1726.12,1254.27 1728.33,1254.23 1730.54,1254.19 1732.76,1254.14 1734.97,1254.09 1737.19,1254.03 1739.4,1253.96 1741.62,1253.89 1743.83,1253.81 1746.04,1253.73 1748.26,1253.64 1750.47,1253.54 1752.69,1253.44 1754.9,1253.33 1757.12,1253.21 1759.33,1253.08 1761.54,1252.94 1763.76,1252.8 1765.97,1252.65 1768.19,1252.48 1770.4,1252.31 1772.62,1252.13 1774.83,1251.94 1777.04,1251.74 1779.26,1251.53 1781.47,1251.31 1783.69,1251.08 1785.9,1250.84 1788.12,1250.58 1790.33,1250.32 1792.54,1250.05 1794.76,1249.76 1796.97,1249.46 1799.19,1249.15 1801.4,1248.83 1803.62,1248.49 1805.83,1248.15 1808.04,1247.79 1810.26,1247.42 1812.47,1247.03 1814.69,1246.63 1816.9,1246.22 1819.12,1245.8 1821.33,1245.36 1823.54,1244.91 1825.76,1244.44 1827.97,1243.96 1830.19,1243.47 1832.4,1242.96 1834.62,1242.43 1836.83,1241.9 1839.04,1241.34 1841.26,1240.78 1843.47,1240.19 1845.69,1239.6 1847.9,1238.98 1850.12,1238.36 1852.33,1237.71 1854.54,1237.05 1856.76,1236.38 1858.97,1235.69 1861.19,1234.98 1863.4,1234.26 1865.62,1233.52 1867.83,1232.76 1870.04,1231.99 1872.26,1231.2 1874.47,1230.4 1876.69,1229.58 1878.9,1228.74 1881.12,1227.89 1883.33,1227.02 1885.54,1233.42 1887.76,1232.51 1889.97,1231.59 1892.19,1230.65 1894.4,1229.7 1896.62,1228.72 1898.83,1227.73 1901.04,1226.73 1903.26,1336.22 1905.47,1335.18 1907.69,1334.12 1909.9,1333.04 1912.12,1331.95 1914.33,1330.84 1916.54,1329.72 1918.76,1328.57 1920.97,1327.41 1923.19,1326.23 1925.4,1325.04 1927.62,1323.83 1929.83,1322.6 1932.04,1321.35 1934.26,1320.09 1936.47,1318.81 1938.69,1317.52 1940.9,1316.2 1943.12,1314.88 1945.33,1313.53 1947.54,1312.17 1949.76,1310.79 1951.97,1309.39 1954.19,1307.98 1956.4,1306.55 1958.62,1305.11 1960.83,1303.65 1963.04,1302.17 1965.26,1300.68 1967.47,1299.17 1969.69,1297.65 1971.9,1296.11 1974.11,1294.56 1976.33,1292.99 1978.54,1291.4 1980.76,1289.8 1982.97,1288.19 1985.19,1286.56 1987.4,1284.91 1989.61,1283.25 1991.83,1281.58 1994.04,1279.89 1996.26,1278.19 1998.47,1276.47 2000.69,1274.74 2002.9,1273 2005.11,1271.24 2007.33,1269.47 2009.54,1267.69 2011.76,1265.89 2013.97,1264.08 2016.19,1262.26 2018.4,1260.42 2020.61,1258.57 2022.83,1256.71 2025.04,1254.84 2027.26,1252.96 2029.47,1251.06 2031.69,1249.16 2033.9,1247.24 2036.11,1245.31 2038.33,1243.37 2040.54,1241.42 2042.76,1239.46 2044.97,1237.49 2047.19,1235.51 2049.4,1233.52 2051.61,1231.52 2053.83,1229.52 2056.04,1227.5 2058.26,1345.03 2060.47,1342.99 2062.69,1340.95 2064.9,1338.9 2067.11,1336.84 2069.33,1334.77 2071.54,1332.7 2073.76,1330.62 2075.97,1328.53 2078.19,1326.44 2080.4,1324.34 2082.61,1322.23 2084.83,1320.12 2087.04,1318 2089.26,1315.88 2091.47,1313.75 2093.69,1311.62 2095.9,1309.48 2098.11,1307.34 2100.33,1305.2 2102.54,1303.05 2104.76,1300.9 2106.97,1298.74 2109.19,1296.58 2111.4,1294.42 2113.61,1292.26 2115.83,1290.09 2118.04,1287.92 2120.26,1285.76 2122.47,1283.59 2124.69,1281.41 2126.9,1279.24 2129.11,1277.07 2131.33,1274.89 2133.54,1272.72 2135.76,1270.55 2137.97,1268.37 2140.19,1266.2 2142.4,1264.03 2144.61,1261.86 2146.83,1259.69 2149.04,1257.53 2151.26,1255.36 2153.47,1253.2 2155.69,1251.04 2157.9,1248.89 2160.11,1246.73 2162.33,1244.58 2164.54,1242.44 2166.76,1240.29 2168.97,1238.16 2171.19,1236.02 2173.4,1233.89 2175.61,1231.77 2177.83,1229.65 2180.04,1227.54 2182.26,1254.88 2184.47,1252.78 2186.69,1250.69 2188.9,1248.6 2191.11,1246.52 2193.33,1244.44 2195.54,1242.37 2197.76,1240.32 2199.97,1238.26 2202.19,1236.22 2204.4,1234.18 2206.61,1232.16 2208.83,1230.14 2211.04,1228.13 2213.26,1317.29 2215.47,1315.3 2217.69,1313.32 2219.9,1311.35 2222.11,1309.38 2224.33,1307.43 2226.54,1305.49 2228.76,1303.56 2230.97,1301.64 2233.19,1299.73 2235.4,1297.84 2237.61,1295.95 2239.83,1294.08 2242.04,1292.21 2244.26,1290.36 2246.47,1288.53 2248.68,1286.7 2250.9,1284.89 2253.11,1283.09 2255.33,1281.3 2257.54,1279.53 2259.76,1277.77 2261.97,1276.02 2264.18,1274.29 2266.4,1272.57 2268.61,1270.86 2270.83,1269.17 2273.04,1267.5 2275.26,1265.83 2277.47,1264.19 2279.68,1262.55 2281.9,1260.93 2284.11,1259.33 2286.33,1257.74 2288.54,1256.17 2290.76,1254.61 2292.97,1253.07 2295.18,1251.54 2297.4,1250.03 2299.61,1248.53 2301.83,1247.06 2304.04,1245.59 2306.26,1244.14 2308.47,1242.71 2310.68,1241.3 2312.9,1239.9 2315.11,1238.52 2317.33,1237.15 2319.54,1235.8 2321.76,1234.47 2323.97,1233.15 2326.18,1231.86 2328.4,1230.57 2330.61,1229.31 2332.83,1228.06 2335.04,1226.83 2337.26,1286.99 2339.47,1285.8 2341.68,1284.61 2343.9,1283.45 2346.11,1282.3 2348.33,1281.17 2350.54,1280.06 2352.76,1278.97 "/>
<polyline clip-path="url(#clip852)" style="stroke:#c271d2; stroke-linecap:round; stroke-linejoin:round; stroke-width:8; stroke-opacity:1; fill:none" points="140.696,1277.7 142.91,1277.7 145.124,1277.7 147.338,1277.7 149.553,1277.7 151.767,1277.7 153.981,1277.7 156.195,1277.7 158.41,1277.7 160.624,1277.7 162.838,1277.7 165.053,1277.7 167.267,1277.7 169.481,1277.7 171.695,1277.7 173.91,1277.7 176.124,1277.7 178.338,1277.7 180.552,1277.7 182.767,1277.7 184.981,1277.7 187.195,1277.7 189.41,1277.7 191.624,1277.7 193.838,1277.7 196.052,1277.7 198.267,1277.7 200.481,1277.7 202.695,1277.7 204.91,1277.7 207.124,1277.7 209.338,1277.7 211.552,1277.7 213.767,1277.7 215.981,1277.7 218.195,1277.7 220.409,1277.7 222.624,1277.63 224.838,1276.81 227.052,1275.99 229.267,1275.18 231.481,1274.36 233.695,1273.55 235.909,1272.73 238.124,1271.92 240.338,1271.1 242.552,1270.29 244.766,1269.47 246.981,1268.66 249.195,1267.84 251.409,1267.03 253.624,1266.21 255.838,1265.4 258.052,1264.58 260.266,1263.77 262.481,1262.95 264.695,1262.14 266.909,1261.32 269.123,1260.51 271.338,1259.69 273.552,1258.88 275.766,1258.06 277.981,1257.25 280.195,1256.43 282.409,1255.62 284.623,1254.8 286.838,1253.99 289.052,1253.17 291.266,1252.36 293.48,1251.54 295.695,1250.72 297.909,1249.91 300.123,1249.09 302.338,1248.28 304.552,1247.46 306.766,1246.65 308.98,1245.83 311.195,1245.02 313.409,1244.2 315.623,1243.39 317.838,1242.57 320.052,1241.76 322.266,1240.94 324.48,1240.13 326.695,1239.31 328.909,1238.5 331.123,1237.68 333.337,1236.87 335.552,1236.05 337.766,1235.24 339.98,1234.42 342.195,1233.61 344.409,1232.79 346.623,1231.98 348.837,1231.16 351.052,1230.35 353.266,1229.53 355.48,1228.72 357.694,1227.9 359.909,1227.09 362.123,1265.47 364.337,1265.47 366.552,1265.47 368.766,1265.47 370.98,1265.47 373.194,1265.47 375.409,1265.47 377.623,1265.47 379.837,1265.47 382.051,1265.47 384.266,1265.47 386.48,1265.47 388.694,1265.47 390.909,1265.47 393.123,1265.47 395.337,1265.16 397.551,1264.34 399.766,1263.53 401.98,1262.71 404.194,1261.9 406.408,1261.08 408.623,1260.26 410.837,1259.2 413.051,1257.57 415.266,1255.94 417.48,1254.31 419.694,1252.68 421.908,1251.05 424.123,1249.42 426.337,1247.3 428.551,1244.85 430.766,1242.4 432.98,1239.96 435.194,1237.51 437.408,1235.07 439.623,1232.62 441.837,1230.18 444.051,1227.73 446.265,1330.77 448.48,1329.14 450.694,1327.51 452.908,1325.88 455.123,1324.25 457.337,1322.62 459.551,1320.99 461.765,1319.36 463.98,1317.73 466.194,1316.1 468.408,1314.47 470.622,1312.84 472.837,1311.21 475.051,1309.58 477.265,1307.95 479.48,1306.32 481.694,1304.68 483.908,1303.05 486.122,1301.42 488.337,1299.79 490.551,1298.16 492.765,1296.53 494.979,1294.9 497.194,1293.27 499.408,1291.64 501.622,1290.01 503.837,1288.38 506.051,1286.75 508.265,1285.12 510.479,1283.49 512.694,1281.59 514.908,1279.14 517.122,1276.69 519.337,1274.25 521.551,1271.8 523.765,1269.36 525.979,1266.91 528.194,1264.47 530.408,1262.02 532.622,1259.58 534.836,1257.13 537.051,1254.68 539.265,1252.24 541.479,1249.79 543.694,1247.35 545.908,1244.9 548.122,1242.46 550.336,1240.01 552.551,1237.57 554.765,1235.12 556.979,1232.68 559.193,1230.23 561.408,1227.78 563.622,1328.4 565.836,1326.77 568.051,1325.14 570.265,1323.51 572.479,1321.88 574.693,1320.25 576.908,1318.62 579.122,1316.99 581.336,1315.36 583.55,1313.73 585.765,1312.1 587.979,1310.47 590.193,1308.84 592.408,1307.21 594.622,1305.58 596.836,1303.95 599.05,1301.92 601.265,1299.48 603.479,1297.03 605.693,1294.58 607.907,1292.14 610.122,1289.69 612.336,1287.25 614.55,1284.8 616.765,1282.36 618.979,1279.91 621.193,1277.47 623.407,1275.02 625.622,1272.58 627.836,1270.13 630.05,1267.68 632.265,1265.24 634.479,1262.79 636.693,1260.35 638.907,1257.9 641.122,1255.46 643.336,1253.01 645.55,1250.57 647.764,1248.12 649.979,1245.67 652.193,1243.23 654.407,1240.78 656.622,1238.34 658.836,1235.89 661.05,1233.45 663.264,1231 665.479,1228.56 667.693,1233.98 669.907,1232.35 672.121,1230.72 674.336,1229.09 676.55,1227.46 678.764,1288.11 680.979,1287.29 683.193,1286.48 685.407,1285.66 687.621,1284.85 689.836,1284.03 692.05,1283.22 694.264,1282.4 696.478,1281.59 698.693,1280.77 700.907,1279.96 703.121,1279.14 705.336,1278.33 707.55,1277.51 709.764,1276.7 711.978,1275.88 714.193,1275.07 716.407,1274.25 718.621,1273.43 720.835,1272.62 723.05,1271.8 725.264,1270.99 727.478,1270.17 729.693,1269.36 731.907,1268.54 734.121,1267.73 736.335,1266.91 738.55,1266.1 740.764,1265.28 742.978,1264.47 745.193,1263.65 747.407,1262.84 749.621,1262.02 751.835,1261.21 754.05,1260.39 756.264,1259.58 758.478,1258.76 760.692,1257.95 762.907,1257.13 765.121,1256.32 767.335,1255.5 769.55,1254.69 771.764,1253.87 773.978,1253.06 776.192,1252.24 778.407,1251.43 780.621,1250.61 782.835,1249.8 785.049,1248.98 787.264,1248.16 789.478,1247.35 791.692,1246.53 793.907,1245.72 796.121,1244.9 798.335,1244.09 800.549,1243.27 802.764,1242.46 804.978,1241.64 807.192,1240.83 809.406,1240.01 811.621,1239.2 813.835,1238.38 816.049,1237.57 818.264,1236.75 820.478,1235.94 822.692,1235.12 824.906,1234.31 827.121,1233.49 829.335,1232.68 831.549,1231.86 833.764,1231.05 835.978,1230.23 838.192,1229.42 840.406,1228.6 842.621,1227.79 844.835,1226.97 847.049,1237.97 849.263,1237.97 851.478,1237.97 853.692,1237.97 855.906,1237.97 858.121,1237.97 860.335,1237.97 862.549,1237.97 864.763,1237.97 866.978,1237.97 869.192,1237.97 871.406,1237.97 873.62,1237.97 875.835,1237.97 878.049,1237.97 880.263,1237.97 882.478,1237.97 884.692,1237.97 886.906,1237.97 889.12,1237.97 891.335,1237.97 893.549,1237.97 895.763,1237.97 897.977,1237.97 900.192,1237.97 902.406,1237.97 904.62,1237.97 906.835,1237.97 909.049,1237.97 911.263,1237.97 913.477,1237.97 915.692,1237.97 917.906,1237.97 920.12,1237.97 922.334,1237.97 924.549,1237.97 926.763,1237.97 928.977,1237.97 931.192,1237.97 933.406,1237.97 935.62,1237.97 937.834,1237.97 940.049,1237.97 942.263,1237.97 944.477,1237.97 946.692,1237.97 948.906,1237.97 951.12,1237.97 953.334,1237.97 955.549,1237.97 957.763,1237.97 959.977,1237.97 962.191,1237.97 964.406,1237.97 966.62,1237.97 968.834,1237.97 971.049,1237.97 973.263,1237.97 975.477,1237.97 977.691,1237.97 979.906,1237.97 982.12,1237.97 984.334,1237.97 986.548,1237.97 988.763,1237.97 990.977,1237.97 993.191,1237.97 995.406,1237.97 997.62,1237.97 999.834,1237.97 1002.05,1237.97 1004.26,1237.97 1006.48,1237.97 1008.69,1237.97 1010.91,1237.97 1013.12,1237.6 1015.33,1236.78 1017.55,1235.97 1019.76,1235.15 1021.98,1234.33 1024.19,1233.52 1026.41,1232.7 1028.62,1231.89 1030.83,1231.07 1033.05,1230.26 1035.26,1229.44 1037.48,1228.63 1039.69,1227.81 1041.91,1227 1044.12,1242.06 1046.33,1242.06 1048.55,1242.06 1050.76,1242.06 1052.98,1242.06 1055.19,1242.06 1057.41,1242.06 1059.62,1242.06 1061.83,1242.06 1064.05,1242.06 1066.26,1242.06 1068.48,1242.06 1070.69,1242.06 1072.91,1242.06 1075.12,1242.06 1077.33,1242.06 1079.55,1242.06 1081.76,1241.44 1083.98,1240.62 1086.19,1239.81 1088.41,1238.99 1090.62,1238.18 1092.83,1237.36 1095.05,1236.55 1097.26,1235.73 1099.48,1234.92 1101.69,1234.1 1103.91,1233.29 1106.12,1232.23 1108.33,1230.6 1110.55,1228.96 1112.76,1227.33 1114.98,1228.91 1117.19,1228.09 1119.4,1226.47 1121.62,1373.94 1123.83,1373.12 1126.05,1372.07 1128.26,1370.44 1130.48,1368.21 1132.69,1365.76 1134.9,1363.32 1137.12,1360.87 1139.33,1358.43 1141.55,1355.98 1143.76,1353.53 1145.98,1351.09 1148.19,1348.64 1150.4,1346.2 1152.62,1343.75 1154.83,1341.31 1157.05,1338.86 1159.26,1336.42 1161.48,1333.97 1163.69,1331.52 1165.9,1329.08 1168.12,1326.63 1170.33,1324.19 1172.55,1321.74 1174.76,1319.3 1176.98,1316.85 1179.19,1314.41 1181.4,1311.96 1183.62,1309.52 1185.83,1307.07 1188.05,1304.62 1190.26,1302.18 1192.48,1299.73 1194.69,1297.29 1196.9,1294.84 1199.12,1292.4 1201.33,1289.95 1203.55,1287.51 1205.76,1285.06 1207.98,1282.62 1210.19,1280.17 1212.4,1277.72 1214.62,1275.28 1216.83,1272.83 1219.05,1270.39 1221.26,1267.94 1223.48,1265.5 1225.69,1263.05 1227.9,1260.61 1230.12,1258.16 1232.33,1255.71 1234.55,1253.25 1236.76,1249.99 1238.98,1246.73 1241.19,1243.47 1243.4,1240.21 1245.62,1236.95 1247.83,1233.69 1250.05,1230.43 1252.26,1227.17 1254.48,1227.57 1256.69,1228.08 1258.9,1226.45 1261.12,1288.51 1263.33,1287.69 1265.55,1286.88 1267.76,1286.06 1269.98,1285.25 1272.19,1284.43 1274.4,1283.62 1276.62,1282.8 1278.83,1281.99 1281.05,1281.17 1283.26,1280.36 1285.48,1279.54 1287.69,1278.73 1289.9,1277.91 1292.12,1277.09 1294.33,1276.28 1296.55,1275.46 1298.76,1274.65 1300.98,1273.83 1303.19,1273.02 1305.4,1272.2 1307.62,1271.39 1309.83,1270.57 1312.05,1269.76 1314.26,1268.94 1316.48,1268.13 1318.69,1267.31 1320.9,1266.5 1323.12,1265.68 1325.33,1264.87 1327.55,1264.05 1329.76,1262.97 1331.98,1261.34 1334.19,1259.71 1336.4,1258.08 1338.62,1256.45 1340.83,1254.82 1343.05,1253.19 1345.26,1251.56 1347.48,1249.93 1349.69,1248.3 1351.9,1246.67 1354.12,1245.04 1356.33,1243.41 1358.55,1241.78 1360.76,1240.15 1362.98,1238.52 1365.19,1236.89 1367.4,1235.26 1369.62,1233.63 1371.83,1232 1374.05,1230.37 1376.26,1228.73 1378.48,1227.1 1380.69,1273.85 1382.9,1273.04 1385.12,1272.22 1387.33,1271.41 1389.55,1270.59 1391.76,1269.78 1393.97,1268.96 1396.19,1268.15 1398.4,1267.33 1400.62,1266.51 1402.83,1265.7 1405.05,1264.88 1407.26,1264.07 1409.47,1263.25 1411.69,1262.44 1413.9,1261.62 1416.12,1260.81 1418.33,1259.99 1420.55,1259.18 1422.76,1258.36 1424.97,1257.55 1427.19,1256.73 1429.4,1255.92 1431.62,1255.1 1433.83,1254.29 1436.05,1253.47 1438.26,1252.66 1440.47,1251.28 1442.69,1249.65 1444.9,1248.02 1447.12,1246.39 1449.33,1244.76 1451.55,1243.13 1453.76,1241.5 1455.97,1239.87 1458.19,1238.01 1460.4,1235.57 1462.62,1233.12 1464.83,1230.67 1467.05,1228.23 1469.26,1267.46 1471.47,1265.83 1473.69,1264.2 1475.9,1262.57 1478.12,1260.94 1480.33,1259.31 1482.55,1257.68 1484.76,1256.05 1486.97,1254.42 1489.19,1252.79 1491.4,1251.16 1493.62,1249.53 1495.83,1247.9 1498.05,1246.27 1500.26,1244.64 1502.47,1243.01 1504.69,1241.38 1506.9,1239.75 1509.12,1238.12 1511.33,1236.49 1513.55,1234.86 1515.76,1233.23 1517.97,1231.6 1520.19,1229.97 1522.4,1228.34 1524.62,1226.71 1526.83,1232.54 1529.05,1231.72 1531.26,1230.91 1533.47,1230.09 1535.69,1229.27 1537.9,1228.46 1540.12,1227.64 1542.33,1226.83 1544.55,1231.82 1546.76,1231.82 1548.97,1231.82 1551.19,1231.82 1553.4,1231.82 1555.62,1231.82 1557.83,1231.82 1560.05,1231.82 1562.26,1231.82 1564.47,1231.82 1566.69,1231.82 1568.9,1231.82 1571.12,1231.82 1573.33,1231.82 1575.55,1231.82 1577.76,1231.82 1579.97,1231.82 1582.19,1231.82 1584.4,1231.82 1586.62,1231.82 1588.83,1231.82 1591.05,1231.82 1593.26,1231.82 1595.47,1231.82 1597.69,1231.82 1599.9,1231.82 1602.12,1231.82 1604.33,1231.82 1606.55,1231.82 1608.76,1231.82 1610.97,1231.82 1613.19,1231.82 1615.4,1231.82 1617.62,1231.82 1619.83,1231.82 1622.05,1231.82 1624.26,1231.82 1626.47,1231.82 1628.69,1231.82 1630.9,1231.82 1633.12,1231.82 1635.33,1231.82 1637.55,1231.82 1639.76,1231.82 1641.97,1231.82 1644.19,1231.82 1646.4,1231.82 1648.62,1231.82 1650.83,1231.82 1653.05,1231.82 1655.26,1231.82 1657.47,1231.82 1659.69,1231.82 1661.9,1231.82 1664.12,1231.82 1666.33,1231.82 1668.55,1231.82 1670.76,1231.82 1672.97,1231.82 1675.19,1231.82 1677.4,1231.82 1679.62,1231.82 1681.83,1231.82 1684.04,1231.82 1686.26,1231.82 1688.47,1231.82 1690.69,1231.82 1692.9,1231.82 1695.12,1231.82 1697.33,1231.82 1699.54,1231.82 1701.76,1231.82 1703.97,1231.82 1706.19,1231.82 1708.4,1231.82 1710.62,1231.82 1712.83,1231.82 1715.04,1231.82 1717.26,1231.82 1719.47,1231.82 1721.69,1231.82 1723.9,1231.82 1726.12,1231.82 1728.33,1231.82 1730.54,1231.82 1732.76,1231.82 1734.97,1231.82 1737.19,1231.82 1739.4,1231.82 1741.62,1231.82 1743.83,1231.82 1746.04,1231.82 1748.26,1231.82 1750.47,1231.82 1752.69,1231.82 1754.9,1231.82 1757.12,1231.82 1759.33,1231.82 1761.54,1231.82 1763.76,1231.82 1765.97,1231.82 1768.19,1231.82 1770.4,1231.82 1772.62,1231.82 1774.83,1231.82 1777.04,1231.82 1779.26,1231.82 1781.47,1231.82 1783.69,1231.82 1785.9,1231.82 1788.12,1231.82 1790.33,1231.82 1792.54,1231.82 1794.76,1231.82 1796.97,1231.82 1799.19,1231.82 1801.4,1231.82 1803.62,1231.82 1805.83,1231.82 1808.04,1231.82 1810.26,1231.82 1812.47,1231.82 1814.69,1231.82 1816.9,1231.82 1819.12,1231.82 1821.33,1231.82 1823.54,1231.82 1825.76,1231.82 1827.97,1231.82 1830.19,1231.82 1832.4,1231.82 1834.62,1231.82 1836.83,1231.82 1839.04,1231.82 1841.26,1231.82 1843.47,1231.82 1845.69,1231.82 1847.9,1231.82 1850.12,1231.82 1852.33,1231.82 1854.54,1231.82 1856.76,1231.82 1858.97,1231.82 1861.19,1231.82 1863.4,1231.82 1865.62,1231.82 1867.83,1231.82 1870.04,1231.82 1872.26,1231.82 1874.47,1231.82 1876.69,1231.82 1878.9,1231.82 1881.12,1231.82 1883.33,1231.82 1885.54,1231.68 1887.76,1230.87 1889.97,1230.05 1892.19,1229.24 1894.4,1228.42 1896.62,1227.61 1898.83,1226.79 1901.04,1226.47 1903.26,1228.04 1905.47,1228.04 1907.69,1228.04 1909.9,1228.04 1912.12,1228.04 1914.33,1228.04 1916.54,1228.04 1918.76,1228.04 1920.97,1228.04 1923.19,1228.04 1925.4,1228.04 1927.62,1228.04 1929.83,1228.04 1932.04,1228.04 1934.26,1228.04 1936.47,1228.04 1938.69,1228.04 1940.9,1228.04 1943.12,1228.04 1945.33,1228.04 1947.54,1228.04 1949.76,1228.04 1951.97,1228.04 1954.19,1228.04 1956.4,1228.04 1958.62,1228.04 1960.83,1228.04 1963.04,1228.04 1965.26,1228.04 1967.47,1228.04 1969.69,1228.04 1971.9,1228.04 1974.11,1228.04 1976.33,1228.04 1978.54,1228.04 1980.76,1228.04 1982.97,1228.04 1985.19,1228.04 1987.4,1228.04 1989.61,1228.04 1991.83,1228.04 1994.04,1228.04 1996.26,1228.04 1998.47,1228.04 2000.69,1228.04 2002.9,1228.04 2005.11,1228.04 2007.33,1228.04 2009.54,1228.04 2011.76,1228.04 2013.97,1228.04 2016.19,1228.04 2018.4,1228.04 2020.61,1228.04 2022.83,1228.04 2025.04,1228.04 2027.26,1228.04 2029.47,1228.04 2031.69,1228.04 2033.9,1228.04 2036.11,1228.04 2038.33,1228.04 2040.54,1228.04 2042.76,1228.04 2044.97,1228.04 2047.19,1228.04 2049.4,1228.04 2051.61,1228.04 2053.83,1228.04 2056.04,1228.04 2058.26,1227.73 2060.47,1226.91 2062.69,1294.03 2064.9,1294.03 2067.11,1294.03 2069.33,1294.03 2071.54,1294.03 2073.76,1294.03 2075.97,1294.03 2078.19,1294.03 2080.4,1294.03 2082.61,1294.03 2084.83,1294.03 2087.04,1294.03 2089.26,1294.03 2091.47,1294.03 2093.69,1294.03 2095.9,1294.03 2098.11,1294.03 2100.33,1294.03 2102.54,1294.03 2104.76,1294.03 2106.97,1294.03 2109.19,1294.03 2111.4,1294.03 2113.61,1294.03 2115.83,1294.03 2118.04,1294.03 2120.26,1294.03 2122.47,1294.03 2124.69,1294.03 2126.9,1294.03 2129.11,1294.03 2131.33,1294.03 2133.54,1294.03 2135.76,1294.03 2137.97,1294.03 2140.19,1294.03 2142.4,1294.03 2144.61,1294.03 2146.83,1294.03 2149.04,1294.03 2151.26,1294.03 2153.47,1294.03 2155.69,1294.03 2157.9,1294.03 2160.11,1294.03 2162.33,1294.03 2164.54,1294.03 2166.76,1294.03 2168.97,1294.03 2171.19,1294.03 2173.4,1294.03 2175.61,1294.03 2177.83,1294.03 2180.04,1294.03 2182.26,1293.71 2184.47,1292.9 2186.69,1292.08 2188.9,1291.27 2191.11,1290.45 2193.33,1289.64 2195.54,1288.82 2197.76,1288.01 2199.97,1287.19 2202.19,1286.38 2204.4,1285.56 2206.61,1284.75 2208.83,1283.93 2211.04,1283.12 2213.26,1282.24 2215.47,1280.61 2217.69,1278.98 2219.9,1277.35 2222.11,1275.72 2224.33,1274.09 2226.54,1272.46 2228.76,1270.83 2230.97,1269.2 2233.19,1267.57 2235.4,1265.94 2237.61,1264.3 2239.83,1262.67 2242.04,1261.04 2244.26,1259.41 2246.47,1257.78 2248.68,1256.15 2250.9,1254.52 2253.11,1252.89 2255.33,1251.26 2257.54,1249.63 2259.76,1248 2261.97,1246.37 2264.18,1244.74 2266.4,1243.11 2268.61,1241.48 2270.83,1239.85 2273.04,1238.22 2275.26,1236.59 2277.47,1234.96 2279.68,1233.33 2281.9,1231.7 2284.11,1230.07 2286.33,1228.44 2288.54,1226.81 2290.76,1231.34 2292.97,1230.53 2295.18,1229.71 2297.4,1228.9 2299.61,1228.08 2301.83,1227.27 2304.04,1226.45 2306.26,1236.28 2308.47,1236.28 2310.68,1236.28 2312.9,1236.28 2315.11,1236.28 2317.33,1236.28 2319.54,1236.28 2321.76,1236.28 2323.97,1236.28 2326.18,1236.28 2328.4,1236.28 2330.61,1236.28 2332.83,1236.28 2335.04,1236.28 2337.26,1235.84 2339.47,1235.02 2341.68,1234.21 2343.9,1233.39 2346.11,1232.58 2348.33,1231.76 2350.54,1230.95 2352.76,1230.13 "/>
<path clip-path="url(#clip850)" d="M214.431 352.309 L518.993 352.309 L518.993 93.1086 L214.431 93.1086  Z" fill="#ffffff" fill-rule="evenodd" fill-opacity="1"/>
<polyline clip-path="url(#clip850)" style="stroke:#000000; stroke-linecap:round; stroke-linejoin:round; stroke-width:4; stroke-opacity:1; fill:none" points="214.431,352.309 518.993,352.309 518.993,93.1086 214.431,93.1086 214.431,352.309 "/>
<polyline clip-path="url(#clip850)" style="stroke:#009af9; stroke-linecap:round; stroke-linejoin:round; stroke-width:8; stroke-opacity:1; fill:none" points="239.009,144.949 386.48,144.949 "/>
<path clip-path="url(#clip850)" d="M411.058 127.669 L417.355 127.669 L432.679 156.581 L432.679 127.669 L437.216 127.669 L437.216 162.229 L430.919 162.229 L415.595 133.317 L415.595 162.229 L411.058 162.229 L411.058 127.669 Z" fill="#000000" fill-rule="nonzero" fill-opacity="1" /><path clip-path="url(#clip850)" d="M456.567 126.257 Q453.466 131.581 451.961 136.789 Q450.456 141.997 450.456 147.344 Q450.456 152.692 451.961 157.946 Q453.489 163.178 456.567 168.479 L452.864 168.479 Q449.392 163.039 447.656 157.784 Q445.943 152.53 445.943 147.344 Q445.943 142.182 447.656 136.951 Q449.368 131.72 452.864 126.257 L456.567 126.257 Z" fill="#000000" fill-rule="nonzero" fill-opacity="1" /><path clip-path="url(#clip850)" d="M469.044 128.942 L469.044 136.303 L477.817 136.303 L477.817 139.613 L469.044 139.613 L469.044 153.687 Q469.044 156.858 469.901 157.761 Q470.78 158.664 473.442 158.664 L477.817 158.664 L477.817 162.229 L473.442 162.229 Q468.512 162.229 466.637 160.4 Q464.762 158.548 464.762 153.687 L464.762 139.613 L461.637 139.613 L461.637 136.303 L464.762 136.303 L464.762 128.942 L469.044 128.942 Z" fill="#000000" fill-rule="nonzero" fill-opacity="1" /><path clip-path="url(#clip850)" d="M482.748 126.257 L486.452 126.257 Q489.924 131.72 491.637 136.951 Q493.373 142.182 493.373 147.344 Q493.373 152.53 491.637 157.784 Q489.924 163.039 486.452 168.479 L482.748 168.479 Q485.827 163.178 487.331 157.946 Q488.859 152.692 488.859 147.344 Q488.859 141.997 487.331 136.789 Q485.827 131.581 482.748 126.257 Z" fill="#000000" fill-rule="nonzero" fill-opacity="1" /><polyline clip-path="url(#clip850)" style="stroke:#e26f46; stroke-linecap:round; stroke-linejoin:round; stroke-width:8; stroke-opacity:1; fill:none" points="239.009,196.789 386.48,196.789 "/>
<path clip-path="url(#clip850)" d="M415.734 183.351 L415.734 210.226 L421.382 210.226 Q428.535 210.226 431.845 206.985 Q435.179 203.745 435.179 196.754 Q435.179 189.809 431.845 186.592 Q428.535 183.351 421.382 183.351 L415.734 183.351 M411.058 179.509 L420.665 179.509 Q430.711 179.509 435.41 183.698 Q440.109 187.865 440.109 196.754 Q440.109 205.689 435.387 209.879 Q430.665 214.069 420.665 214.069 L411.058 214.069 L411.058 179.509 Z" fill="#000000" fill-rule="nonzero" fill-opacity="1" /><path clip-path="url(#clip850)" d="M457.609 178.097 Q454.507 183.421 453.003 188.629 Q451.498 193.837 451.498 199.184 Q451.498 204.532 453.003 209.786 Q454.53 215.018 457.609 220.319 L453.905 220.319 Q450.433 214.879 448.697 209.624 Q446.984 204.37 446.984 199.184 Q446.984 194.022 448.697 188.791 Q450.41 183.56 453.905 178.097 L457.609 178.097 Z" fill="#000000" fill-rule="nonzero" fill-opacity="1" /><path clip-path="url(#clip850)" d="M470.086 180.782 L470.086 188.143 L478.859 188.143 L478.859 191.453 L470.086 191.453 L470.086 205.527 Q470.086 208.698 470.942 209.601 Q471.822 210.504 474.484 210.504 L478.859 210.504 L478.859 214.069 L474.484 214.069 Q469.554 214.069 467.679 212.24 Q465.804 210.388 465.804 205.527 L465.804 191.453 L462.679 191.453 L462.679 188.143 L465.804 188.143 L465.804 180.782 L470.086 180.782 Z" fill="#000000" fill-rule="nonzero" fill-opacity="1" /><path clip-path="url(#clip850)" d="M483.79 178.097 L487.493 178.097 Q490.965 183.56 492.678 188.791 Q494.415 194.022 494.415 199.184 Q494.415 204.37 492.678 209.624 Q490.965 214.879 487.493 220.319 L483.79 220.319 Q486.868 215.018 488.373 209.786 Q489.901 204.532 489.901 199.184 Q489.901 193.837 488.373 188.629 Q486.868 183.421 483.79 178.097 Z" fill="#000000" fill-rule="nonzero" fill-opacity="1" /><polyline clip-path="url(#clip850)" style="stroke:#3da44d; stroke-linecap:round; stroke-linejoin:round; stroke-width:8; stroke-opacity:1; fill:none" points="239.009,248.629 386.48,248.629 "/>
<path clip-path="url(#clip850)" d="M411.058 231.349 L417.355 231.349 L432.679 260.261 L432.679 231.349 L437.216 231.349 L437.216 265.909 L430.919 265.909 L415.595 236.997 L415.595 265.909 L411.058 265.909 L411.058 231.349 Z" fill="#000000" fill-rule="nonzero" fill-opacity="1" /><path clip-path="url(#clip850)" d="M456.567 229.937 Q453.466 235.261 451.961 240.469 Q450.456 245.677 450.456 251.024 Q450.456 256.372 451.961 261.626 Q453.489 266.858 456.567 272.159 L452.864 272.159 Q449.392 266.719 447.656 261.464 Q445.943 256.21 445.943 251.024 Q445.943 245.862 447.656 240.631 Q449.368 235.4 452.864 229.937 L456.567 229.937 Z" fill="#000000" fill-rule="nonzero" fill-opacity="1" /><path clip-path="url(#clip850)" d="M469.044 232.622 L469.044 239.983 L477.817 239.983 L477.817 243.293 L469.044 243.293 L469.044 257.367 Q469.044 260.538 469.901 261.441 Q470.78 262.344 473.442 262.344 L477.817 262.344 L477.817 265.909 L473.442 265.909 Q468.512 265.909 466.637 264.08 Q464.762 262.228 464.762 257.367 L464.762 243.293 L461.637 243.293 L461.637 239.983 L464.762 239.983 L464.762 232.622 L469.044 232.622 Z" fill="#000000" fill-rule="nonzero" fill-opacity="1" /><path clip-path="url(#clip850)" d="M482.748 229.937 L486.452 229.937 Q489.924 235.4 491.637 240.631 Q493.373 245.862 493.373 251.024 Q493.373 256.21 491.637 261.464 Q489.924 266.719 486.452 272.159 L482.748 272.159 Q485.827 266.858 487.331 261.626 Q488.859 256.372 488.859 251.024 Q488.859 245.677 487.331 240.469 Q485.827 235.261 482.748 229.937 Z" fill="#000000" fill-rule="nonzero" fill-opacity="1" /><polyline clip-path="url(#clip850)" style="stroke:#c271d2; stroke-linecap:round; stroke-linejoin:round; stroke-width:8; stroke-opacity:1; fill:none" points="239.009,300.469 386.48,300.469 "/>
<path clip-path="url(#clip850)" d="M415.734 287.031 L415.734 313.906 L421.382 313.906 Q428.535 313.906 431.845 310.665 Q435.179 307.425 435.179 300.434 Q435.179 293.489 431.845 290.272 Q428.535 287.031 421.382 287.031 L415.734 287.031 M411.058 283.189 L420.665 283.189 Q430.711 283.189 435.41 287.378 Q440.109 291.545 440.109 300.434 Q440.109 309.369 435.387 313.559 Q430.665 317.749 420.665 317.749 L411.058 317.749 L411.058 283.189 Z" fill="#000000" fill-rule="nonzero" fill-opacity="1" /><path clip-path="url(#clip850)" d="M457.609 281.777 Q454.507 287.101 453.003 292.309 Q451.498 297.517 451.498 302.864 Q451.498 308.212 453.003 313.466 Q454.53 318.698 457.609 323.999 L453.905 323.999 Q450.433 318.559 448.697 313.304 Q446.984 308.05 446.984 302.864 Q446.984 297.702 448.697 292.471 Q450.41 287.24 453.905 281.777 L457.609 281.777 Z" fill="#000000" fill-rule="nonzero" fill-opacity="1" /><path clip-path="url(#clip850)" d="M470.086 284.462 L470.086 291.823 L478.859 291.823 L478.859 295.133 L470.086 295.133 L470.086 309.207 Q470.086 312.378 470.942 313.281 Q471.822 314.184 474.484 314.184 L478.859 314.184 L478.859 317.749 L474.484 317.749 Q469.554 317.749 467.679 315.92 Q465.804 314.068 465.804 309.207 L465.804 295.133 L462.679 295.133 L462.679 291.823 L465.804 291.823 L465.804 284.462 L470.086 284.462 Z" fill="#000000" fill-rule="nonzero" fill-opacity="1" /><path clip-path="url(#clip850)" d="M483.79 281.777 L487.493 281.777 Q490.965 287.24 492.678 292.471 Q494.415 297.702 494.415 302.864 Q494.415 308.05 492.678 313.304 Q490.965 318.559 487.493 323.999 L483.79 323.999 Q486.868 318.698 488.373 313.466 Q489.901 308.212 489.901 302.864 Q489.901 297.517 488.373 292.309 Q486.868 287.101 483.79 281.777 Z" fill="#000000" fill-rule="nonzero" fill-opacity="1" /></svg>
