<?xml version="1.0" encoding="utf-8"?>
<svg xmlns="http://www.w3.org/2000/svg" xmlns:xlink="http://www.w3.org/1999/xlink" width="600" height="400" viewBox="0 0 2400 1600">
<defs>
  <clipPath id="clip220">
    <rect x="0" y="0" width="2400" height="1600"/>
  </clipPath>
</defs>
<path clip-path="url(#clip220)" d="M0 1600 L2400 1600 L2400 0 L0 0  Z" fill="#ffffff" fill-rule="evenodd" fill-opacity="1"/>
<defs>
  <clipPath id="clip221">
    <rect x="480" y="0" width="1681" height="1600"/>
  </clipPath>
</defs>
<path clip-path="url(#clip220)" d="M186.274 1423.18 L2352.76 1423.18 L2352.76 47.2441 L186.274 47.2441  Z" fill="#ffffff" fill-rule="evenodd" fill-opacity="1"/>
<defs>
  <clipPath id="clip222">
    <rect x="186" y="47" width="2167" height="1377"/>
  </clipPath>
</defs>
<polyline clip-path="url(#clip222)" style="stroke:#000000; stroke-linecap:round; stroke-linejoin:round; stroke-width:2; stroke-opacity:0.1; fill:none" points="186.274,1423.18 186.274,47.2441 "/>
<polyline clip-path="url(#clip222)" style="stroke:#000000; stroke-linecap:round; stroke-linejoin:round; stroke-width:2; stroke-opacity:0.1; fill:none" points="619.57,1423.18 619.57,47.2441 "/>
<polyline clip-path="url(#clip222)" style="stroke:#000000; stroke-linecap:round; stroke-linejoin:round; stroke-width:2; stroke-opacity:0.1; fill:none" points="1052.87,1423.18 1052.87,47.2441 "/>
<polyline clip-path="url(#clip222)" style="stroke:#000000; stroke-linecap:round; stroke-linejoin:round; stroke-width:2; stroke-opacity:0.1; fill:none" points="1486.16,1423.18 1486.16,47.2441 "/>
<polyline clip-path="url(#clip222)" style="stroke:#000000; stroke-linecap:round; stroke-linejoin:round; stroke-width:2; stroke-opacity:0.1; fill:none" points="1919.46,1423.18 1919.46,47.2441 "/>
<polyline clip-path="url(#clip222)" style="stroke:#000000; stroke-linecap:round; stroke-linejoin:round; stroke-width:2; stroke-opacity:0.1; fill:none" points="2352.76,1423.18 2352.76,47.2441 "/>
<polyline clip-path="url(#clip220)" style="stroke:#000000; stroke-linecap:round; stroke-linejoin:round; stroke-width:4; stroke-opacity:1; fill:none" points="186.274,1423.18 2352.76,1423.18 "/>
<polyline clip-path="url(#clip220)" style="stroke:#000000; stroke-linecap:round; stroke-linejoin:round; stroke-width:4; stroke-opacity:1; fill:none" points="186.274,1423.18 186.274,1404.28 "/>
<polyline clip-path="url(#clip220)" style="stroke:#000000; stroke-linecap:round; stroke-linejoin:round; stroke-width:4; stroke-opacity:1; fill:none" points="619.57,1423.18 619.57,1404.28 "/>
<polyline clip-path="url(#clip220)" style="stroke:#000000; stroke-linecap:round; stroke-linejoin:round; stroke-width:4; stroke-opacity:1; fill:none" points="1052.87,1423.18 1052.87,1404.28 "/>
<polyline clip-path="url(#clip220)" style="stroke:#000000; stroke-linecap:round; stroke-linejoin:round; stroke-width:4; stroke-opacity:1; fill:none" points="1486.16,1423.18 1486.16,1404.28 "/>
<polyline clip-path="url(#clip220)" style="stroke:#000000; stroke-linecap:round; stroke-linejoin:round; stroke-width:4; stroke-opacity:1; fill:none" points="1919.46,1423.18 1919.46,1404.28 "/>
<polyline clip-path="url(#clip220)" style="stroke:#000000; stroke-linecap:round; stroke-linejoin:round; stroke-width:4; stroke-opacity:1; fill:none" points="2352.76,1423.18 2352.76,1404.28 "/>
<path clip-path="url(#clip220)" d="M186.274 1454.1 Q182.663 1454.1 180.834 1457.66 Q179.029 1461.2 179.029 1468.33 Q179.029 1475.44 180.834 1479.01 Q182.663 1482.55 186.274 1482.55 Q189.908 1482.55 191.714 1479.01 Q193.542 1475.44 193.542 1468.33 Q193.542 1461.2 191.714 1457.66 Q189.908 1454.1 186.274 1454.1 M186.274 1450.39 Q192.084 1450.39 195.14 1455 Q198.218 1459.58 198.218 1468.33 Q198.218 1477.06 195.14 1481.67 Q192.084 1486.25 186.274 1486.25 Q180.464 1486.25 177.385 1481.67 Q174.33 1477.06 174.33 1468.33 Q174.33 1459.58 177.385 1455 Q180.464 1450.39 186.274 1450.39 Z" fill="#000000" fill-rule="nonzero" fill-opacity="1" /><path clip-path="url(#clip220)" d="M614.223 1481.64 L630.543 1481.64 L630.543 1485.58 L608.598 1485.58 L608.598 1481.64 Q611.26 1478.89 615.844 1474.26 Q620.45 1469.61 621.631 1468.27 Q623.876 1465.74 624.756 1464.01 Q625.658 1462.25 625.658 1460.56 Q625.658 1457.8 623.714 1456.07 Q621.793 1454.33 618.691 1454.33 Q616.492 1454.33 614.038 1455.09 Q611.607 1455.86 608.83 1457.41 L608.83 1452.69 Q611.654 1451.55 614.107 1450.97 Q616.561 1450.39 618.598 1450.39 Q623.969 1450.39 627.163 1453.08 Q630.357 1455.77 630.357 1460.26 Q630.357 1462.39 629.547 1464.31 Q628.76 1466.2 626.654 1468.8 Q626.075 1469.47 622.973 1472.69 Q619.871 1475.88 614.223 1481.64 Z" fill="#000000" fill-rule="nonzero" fill-opacity="1" /><path clip-path="url(#clip220)" d="M1055.88 1455.09 L1044.07 1473.54 L1055.88 1473.54 L1055.88 1455.09 M1054.65 1451.02 L1060.53 1451.02 L1060.53 1473.54 L1065.46 1473.54 L1065.46 1477.43 L1060.53 1477.43 L1060.53 1485.58 L1055.88 1485.58 L1055.88 1477.43 L1040.27 1477.43 L1040.27 1472.92 L1054.65 1451.02 Z" fill="#000000" fill-rule="nonzero" fill-opacity="1" /><path clip-path="url(#clip220)" d="M1486.57 1466.44 Q1483.42 1466.44 1481.57 1468.59 Q1479.74 1470.74 1479.74 1474.49 Q1479.74 1478.22 1481.57 1480.39 Q1483.42 1482.55 1486.57 1482.55 Q1489.72 1482.55 1491.55 1480.39 Q1493.4 1478.22 1493.4 1474.49 Q1493.4 1470.74 1491.55 1468.59 Q1489.72 1466.44 1486.57 1466.44 M1495.85 1451.78 L1495.85 1456.04 Q1494.09 1455.21 1492.29 1454.77 Q1490.5 1454.33 1488.74 1454.33 Q1484.11 1454.33 1481.66 1457.45 Q1479.23 1460.58 1478.88 1466.9 Q1480.25 1464.89 1482.31 1463.82 Q1484.37 1462.73 1486.85 1462.73 Q1492.05 1462.73 1495.06 1465.9 Q1498.1 1469.05 1498.1 1474.49 Q1498.1 1479.82 1494.95 1483.03 Q1491.8 1486.25 1486.57 1486.25 Q1480.57 1486.25 1477.4 1481.67 Q1474.23 1477.06 1474.23 1468.33 Q1474.23 1460.14 1478.12 1455.28 Q1482.01 1450.39 1488.56 1450.39 Q1490.32 1450.39 1492.1 1450.74 Q1493.91 1451.09 1495.85 1451.78 Z" fill="#000000" fill-rule="nonzero" fill-opacity="1" /><path clip-path="url(#clip220)" d="M1919.46 1469.17 Q1916.13 1469.17 1914.2 1470.95 Q1912.31 1472.73 1912.31 1475.86 Q1912.31 1478.98 1914.2 1480.77 Q1916.13 1482.55 1919.46 1482.55 Q1922.79 1482.55 1924.71 1480.77 Q1926.64 1478.96 1926.64 1475.86 Q1926.64 1472.73 1924.71 1470.95 Q1922.82 1469.17 1919.46 1469.17 M1914.78 1467.18 Q1911.77 1466.44 1910.08 1464.38 Q1908.42 1462.32 1908.42 1459.35 Q1908.42 1455.21 1911.36 1452.8 Q1914.32 1450.39 1919.46 1450.39 Q1924.62 1450.39 1927.56 1452.8 Q1930.5 1455.21 1930.5 1459.35 Q1930.5 1462.32 1928.81 1464.38 Q1927.14 1466.44 1924.16 1467.18 Q1927.54 1467.96 1929.41 1470.26 Q1931.31 1472.55 1931.31 1475.86 Q1931.31 1480.88 1928.23 1483.57 Q1925.18 1486.25 1919.46 1486.25 Q1913.74 1486.25 1910.66 1483.57 Q1907.61 1480.88 1907.61 1475.86 Q1907.61 1472.55 1909.51 1470.26 Q1911.4 1467.96 1914.78 1467.18 M1913.07 1459.79 Q1913.07 1462.48 1914.74 1463.98 Q1916.43 1465.49 1919.46 1465.49 Q1922.47 1465.49 1924.16 1463.98 Q1925.87 1462.48 1925.87 1459.79 Q1925.87 1457.11 1924.16 1455.6 Q1922.47 1454.1 1919.46 1454.1 Q1916.43 1454.1 1914.74 1455.6 Q1913.07 1457.11 1913.07 1459.79 Z" fill="#000000" fill-rule="nonzero" fill-opacity="1" /><path clip-path="url(#clip220)" d="M2327.44 1481.64 L2335.08 1481.64 L2335.08 1455.28 L2326.77 1456.95 L2326.77 1452.69 L2335.04 1451.02 L2339.71 1451.02 L2339.71 1481.64 L2347.35 1481.64 L2347.35 1485.58 L2327.44 1485.58 L2327.44 1481.64 Z" fill="#000000" fill-rule="nonzero" fill-opacity="1" /><path clip-path="url(#clip220)" d="M2366.8 1454.1 Q2363.18 1454.1 2361.36 1457.66 Q2359.55 1461.2 2359.55 1468.33 Q2359.55 1475.44 2361.36 1479.01 Q2363.18 1482.55 2366.8 1482.55 Q2370.43 1482.55 2372.23 1479.01 Q2374.06 1475.44 2374.06 1468.33 Q2374.06 1461.2 2372.23 1457.66 Q2370.43 1454.1 2366.8 1454.1 M2366.8 1450.39 Q2372.61 1450.39 2375.66 1455 Q2378.74 1459.58 2378.74 1468.33 Q2378.74 1477.06 2375.66 1481.67 Q2372.61 1486.25 2366.8 1486.25 Q2360.99 1486.25 2357.91 1481.67 Q2354.85 1477.06 2354.85 1468.33 Q2354.85 1459.58 2357.91 1455 Q2360.99 1450.39 2366.8 1450.39 Z" fill="#000000" fill-rule="nonzero" fill-opacity="1" /><path clip-path="url(#clip220)" d="M1268.58 1522.27 L1268.58 1532.4 L1280.64 1532.4 L1280.64 1536.95 L1268.58 1536.95 L1268.58 1556.3 Q1268.58 1560.66 1269.75 1561.9 Q1270.96 1563.14 1274.62 1563.14 L1280.64 1563.14 L1280.64 1568.04 L1274.62 1568.04 Q1267.84 1568.04 1265.27 1565.53 Q1262.69 1562.98 1262.69 1556.3 L1262.69 1536.95 L1258.39 1536.95 L1258.39 1532.4 L1262.69 1532.4 L1262.69 1522.27 L1268.58 1522.27 Z" fill="#000000" fill-rule="nonzero" fill-opacity="1" /><polyline clip-path="url(#clip222)" style="stroke:#000000; stroke-linecap:round; stroke-linejoin:round; stroke-width:2; stroke-opacity:0.1; fill:none" points="186.274,1204.46 2352.76,1204.46 "/>
<polyline clip-path="url(#clip222)" style="stroke:#000000; stroke-linecap:round; stroke-linejoin:round; stroke-width:2; stroke-opacity:0.1; fill:none" points="186.274,942.478 2352.76,942.478 "/>
<polyline clip-path="url(#clip222)" style="stroke:#000000; stroke-linecap:round; stroke-linejoin:round; stroke-width:2; stroke-opacity:0.1; fill:none" points="186.274,680.492 2352.76,680.492 "/>
<polyline clip-path="url(#clip222)" style="stroke:#000000; stroke-linecap:round; stroke-linejoin:round; stroke-width:2; stroke-opacity:0.1; fill:none" points="186.274,418.506 2352.76,418.506 "/>
<polyline clip-path="url(#clip222)" style="stroke:#000000; stroke-linecap:round; stroke-linejoin:round; stroke-width:2; stroke-opacity:0.1; fill:none" points="186.274,156.52 2352.76,156.52 "/>
<polyline clip-path="url(#clip220)" style="stroke:#000000; stroke-linecap:round; stroke-linejoin:round; stroke-width:4; stroke-opacity:1; fill:none" points="186.274,1423.18 186.274,47.2441 "/>
<polyline clip-path="url(#clip220)" style="stroke:#000000; stroke-linecap:round; stroke-linejoin:round; stroke-width:4; stroke-opacity:1; fill:none" points="186.274,1204.46 205.172,1204.46 "/>
<polyline clip-path="url(#clip220)" style="stroke:#000000; stroke-linecap:round; stroke-linejoin:round; stroke-width:4; stroke-opacity:1; fill:none" points="186.274,942.478 205.172,942.478 "/>
<polyline clip-path="url(#clip220)" style="stroke:#000000; stroke-linecap:round; stroke-linejoin:round; stroke-width:4; stroke-opacity:1; fill:none" points="186.274,680.492 205.172,680.492 "/>
<polyline clip-path="url(#clip220)" style="stroke:#000000; stroke-linecap:round; stroke-linejoin:round; stroke-width:4; stroke-opacity:1; fill:none" points="186.274,418.506 205.172,418.506 "/>
<polyline clip-path="url(#clip220)" style="stroke:#000000; stroke-linecap:round; stroke-linejoin:round; stroke-width:4; stroke-opacity:1; fill:none" points="186.274,156.52 205.172,156.52 "/>
<path clip-path="url(#clip220)" d="M63.9319 1190.26 Q60.3208 1190.26 58.4921 1193.83 Q56.6865 1197.37 56.6865 1204.5 Q56.6865 1211.61 58.4921 1215.17 Q60.3208 1218.71 63.9319 1218.71 Q67.5661 1218.71 69.3717 1215.17 Q71.2004 1211.61 71.2004 1204.5 Q71.2004 1197.37 69.3717 1193.83 Q67.5661 1190.26 63.9319 1190.26 M63.9319 1186.56 Q69.742 1186.56 72.7976 1191.17 Q75.8763 1195.75 75.8763 1204.5 Q75.8763 1213.23 72.7976 1217.83 Q69.742 1222.42 63.9319 1222.42 Q58.1217 1222.42 55.043 1217.83 Q51.9875 1213.23 51.9875 1204.5 Q51.9875 1195.75 55.043 1191.17 Q58.1217 1186.56 63.9319 1186.56 Z" fill="#000000" fill-rule="nonzero" fill-opacity="1" /><path clip-path="url(#clip220)" d="M84.0938 1215.86 L88.978 1215.86 L88.978 1221.74 L84.0938 1221.74 L84.0938 1215.86 Z" fill="#000000" fill-rule="nonzero" fill-opacity="1" /><path clip-path="url(#clip220)" d="M103.191 1217.81 L119.51 1217.81 L119.51 1221.74 L97.566 1221.74 L97.566 1217.81 Q100.228 1215.05 104.811 1210.43 Q109.418 1205.77 110.598 1204.43 Q112.844 1201.91 113.723 1200.17 Q114.626 1198.41 114.626 1196.72 Q114.626 1193.97 112.682 1192.23 Q110.76 1190.49 107.658 1190.49 Q105.459 1190.49 103.006 1191.26 Q100.575 1192.02 97.7974 1193.57 L97.7974 1188.85 Q100.621 1187.72 103.075 1187.14 Q105.529 1186.56 107.566 1186.56 Q112.936 1186.56 116.131 1189.24 Q119.325 1191.93 119.325 1196.42 Q119.325 1198.55 118.515 1200.47 Q117.728 1202.37 115.621 1204.96 Q115.043 1205.63 111.941 1208.85 Q108.839 1212.05 103.191 1217.81 Z" fill="#000000" fill-rule="nonzero" fill-opacity="1" /><path clip-path="url(#clip220)" d="M129.371 1187.18 L147.728 1187.18 L147.728 1191.12 L133.654 1191.12 L133.654 1199.59 Q134.672 1199.24 135.691 1199.08 Q136.709 1198.9 137.728 1198.9 Q143.515 1198.9 146.894 1202.07 Q150.274 1205.24 150.274 1210.66 Q150.274 1216.24 146.802 1219.34 Q143.33 1222.42 137.01 1222.42 Q134.834 1222.42 132.566 1222.05 Q130.32 1221.68 127.913 1220.93 L127.913 1216.24 Q129.996 1217.37 132.219 1217.93 Q134.441 1218.48 136.918 1218.48 Q140.922 1218.48 143.26 1216.37 Q145.598 1214.27 145.598 1210.66 Q145.598 1207.05 143.26 1204.94 Q140.922 1202.83 136.918 1202.83 Q135.043 1202.83 133.168 1203.25 Q131.316 1203.67 129.371 1204.55 L129.371 1187.18 Z" fill="#000000" fill-rule="nonzero" fill-opacity="1" /><path clip-path="url(#clip220)" d="M62.9365 928.277 Q59.3254 928.277 57.4967 931.842 Q55.6912 935.384 55.6912 942.513 Q55.6912 949.62 57.4967 953.184 Q59.3254 956.726 62.9365 956.726 Q66.5707 956.726 68.3763 953.184 Q70.205 949.62 70.205 942.513 Q70.205 935.384 68.3763 931.842 Q66.5707 928.277 62.9365 928.277 M62.9365 924.573 Q68.7467 924.573 71.8022 929.18 Q74.8809 933.763 74.8809 942.513 Q74.8809 951.24 71.8022 955.846 Q68.7467 960.43 62.9365 960.43 Q57.1264 960.43 54.0477 955.846 Q50.9921 951.24 50.9921 942.513 Q50.9921 933.763 54.0477 929.18 Q57.1264 924.573 62.9365 924.573 Z" fill="#000000" fill-rule="nonzero" fill-opacity="1" /><path clip-path="url(#clip220)" d="M83.0984 953.879 L87.9827 953.879 L87.9827 959.758 L83.0984 959.758 L83.0984 953.879 Z" fill="#000000" fill-rule="nonzero" fill-opacity="1" /><path clip-path="url(#clip220)" d="M98.2141 925.198 L116.57 925.198 L116.57 929.134 L102.496 929.134 L102.496 937.606 Q103.515 937.259 104.534 937.097 Q105.552 936.911 106.571 936.911 Q112.358 936.911 115.737 940.083 Q119.117 943.254 119.117 948.671 Q119.117 954.249 115.645 957.351 Q112.172 960.43 105.853 960.43 Q103.677 960.43 101.409 960.059 Q99.1632 959.689 96.7558 958.948 L96.7558 954.249 Q98.8391 955.383 101.061 955.939 Q103.284 956.495 105.76 956.495 Q109.765 956.495 112.103 954.388 Q114.441 952.282 114.441 948.671 Q114.441 945.059 112.103 942.953 Q109.765 940.846 105.76 940.846 Q103.885 940.846 102.01 941.263 Q100.159 941.68 98.2141 942.559 L98.2141 925.198 Z" fill="#000000" fill-rule="nonzero" fill-opacity="1" /><path clip-path="url(#clip220)" d="M138.33 928.277 Q134.719 928.277 132.89 931.842 Q131.084 935.384 131.084 942.513 Q131.084 949.62 132.89 953.184 Q134.719 956.726 138.33 956.726 Q141.964 956.726 143.769 953.184 Q145.598 949.62 145.598 942.513 Q145.598 935.384 143.769 931.842 Q141.964 928.277 138.33 928.277 M138.33 924.573 Q144.14 924.573 147.195 929.18 Q150.274 933.763 150.274 942.513 Q150.274 951.24 147.195 955.846 Q144.14 960.43 138.33 960.43 Q132.519 960.43 129.441 955.846 Q126.385 951.24 126.385 942.513 Q126.385 933.763 129.441 929.18 Q132.519 924.573 138.33 924.573 Z" fill="#000000" fill-rule="nonzero" fill-opacity="1" /><path clip-path="url(#clip220)" d="M63.9319 666.291 Q60.3208 666.291 58.4921 669.856 Q56.6865 673.398 56.6865 680.527 Q56.6865 687.634 58.4921 691.198 Q60.3208 694.74 63.9319 694.74 Q67.5661 694.74 69.3717 691.198 Q71.2004 687.634 71.2004 680.527 Q71.2004 673.398 69.3717 669.856 Q67.5661 666.291 63.9319 666.291 M63.9319 662.587 Q69.742 662.587 72.7976 667.194 Q75.8763 671.777 75.8763 680.527 Q75.8763 689.254 72.7976 693.86 Q69.742 698.444 63.9319 698.444 Q58.1217 698.444 55.043 693.86 Q51.9875 689.254 51.9875 680.527 Q51.9875 671.777 55.043 667.194 Q58.1217 662.587 63.9319 662.587 Z" fill="#000000" fill-rule="nonzero" fill-opacity="1" /><path clip-path="url(#clip220)" d="M84.0938 691.893 L88.978 691.893 L88.978 697.772 L84.0938 697.772 L84.0938 691.893 Z" fill="#000000" fill-rule="nonzero" fill-opacity="1" /><path clip-path="url(#clip220)" d="M97.9826 663.212 L120.205 663.212 L120.205 665.203 L107.658 697.772 L102.774 697.772 L114.58 667.148 L97.9826 667.148 L97.9826 663.212 Z" fill="#000000" fill-rule="nonzero" fill-opacity="1" /><path clip-path="url(#clip220)" d="M129.371 663.212 L147.728 663.212 L147.728 667.148 L133.654 667.148 L133.654 675.62 Q134.672 675.273 135.691 675.11 Q136.709 674.925 137.728 674.925 Q143.515 674.925 146.894 678.097 Q150.274 681.268 150.274 686.685 Q150.274 692.263 146.802 695.365 Q143.33 698.444 137.01 698.444 Q134.834 698.444 132.566 698.073 Q130.32 697.703 127.913 696.962 L127.913 692.263 Q129.996 693.397 132.219 693.953 Q134.441 694.509 136.918 694.509 Q140.922 694.509 143.26 692.402 Q145.598 690.296 145.598 686.685 Q145.598 683.073 143.26 680.967 Q140.922 678.86 136.918 678.86 Q135.043 678.86 133.168 679.277 Q131.316 679.694 129.371 680.573 L129.371 663.212 Z" fill="#000000" fill-rule="nonzero" fill-opacity="1" /><path clip-path="url(#clip220)" d="M53.7467 431.851 L61.3856 431.851 L61.3856 405.486 L53.0754 407.152 L53.0754 402.893 L61.3393 401.226 L66.0152 401.226 L66.0152 431.851 L73.654 431.851 L73.654 435.786 L53.7467 435.786 L53.7467 431.851 Z" fill="#000000" fill-rule="nonzero" fill-opacity="1" /><path clip-path="url(#clip220)" d="M83.0984 429.907 L87.9827 429.907 L87.9827 435.786 L83.0984 435.786 L83.0984 429.907 Z" fill="#000000" fill-rule="nonzero" fill-opacity="1" /><path clip-path="url(#clip220)" d="M108.168 404.305 Q104.557 404.305 102.728 407.87 Q100.922 411.412 100.922 418.541 Q100.922 425.648 102.728 429.212 Q104.557 432.754 108.168 432.754 Q111.802 432.754 113.608 429.212 Q115.436 425.648 115.436 418.541 Q115.436 411.412 113.608 407.87 Q111.802 404.305 108.168 404.305 M108.168 400.601 Q113.978 400.601 117.033 405.208 Q120.112 409.791 120.112 418.541 Q120.112 427.268 117.033 431.874 Q113.978 436.458 108.168 436.458 Q102.358 436.458 99.2789 431.874 Q96.2234 427.268 96.2234 418.541 Q96.2234 409.791 99.2789 405.208 Q102.358 400.601 108.168 400.601 Z" fill="#000000" fill-rule="nonzero" fill-opacity="1" /><path clip-path="url(#clip220)" d="M138.33 404.305 Q134.719 404.305 132.89 407.87 Q131.084 411.412 131.084 418.541 Q131.084 425.648 132.89 429.212 Q134.719 432.754 138.33 432.754 Q141.964 432.754 143.769 429.212 Q145.598 425.648 145.598 418.541 Q145.598 411.412 143.769 407.87 Q141.964 404.305 138.33 404.305 M138.33 400.601 Q144.14 400.601 147.195 405.208 Q150.274 409.791 150.274 418.541 Q150.274 427.268 147.195 431.874 Q144.14 436.458 138.33 436.458 Q132.519 436.458 129.441 431.874 Q126.385 427.268 126.385 418.541 Q126.385 409.791 129.441 405.208 Q132.519 400.601 138.33 400.601 Z" fill="#000000" fill-rule="nonzero" fill-opacity="1" /><path clip-path="url(#clip220)" d="M54.7421 169.865 L62.381 169.865 L62.381 143.5 L54.0708 145.166 L54.0708 140.907 L62.3347 139.24 L67.0106 139.24 L67.0106 169.865 L74.6494 169.865 L74.6494 173.8 L54.7421 173.8 L54.7421 169.865 Z" fill="#000000" fill-rule="nonzero" fill-opacity="1" /><path clip-path="url(#clip220)" d="M84.0938 167.921 L88.978 167.921 L88.978 173.8 L84.0938 173.8 L84.0938 167.921 Z" fill="#000000" fill-rule="nonzero" fill-opacity="1" /><path clip-path="url(#clip220)" d="M103.191 169.865 L119.51 169.865 L119.51 173.8 L97.566 173.8 L97.566 169.865 Q100.228 167.111 104.811 162.481 Q109.418 157.828 110.598 156.486 Q112.844 153.963 113.723 152.226 Q114.626 150.467 114.626 148.777 Q114.626 146.023 112.682 144.287 Q110.76 142.551 107.658 142.551 Q105.459 142.551 103.006 143.314 Q100.575 144.078 97.7974 145.629 L97.7974 140.907 Q100.621 139.773 103.075 139.194 Q105.529 138.615 107.566 138.615 Q112.936 138.615 116.131 141.301 Q119.325 143.986 119.325 148.476 Q119.325 150.606 118.515 152.527 Q117.728 154.425 115.621 157.018 Q115.043 157.689 111.941 160.907 Q108.839 164.101 103.191 169.865 Z" fill="#000000" fill-rule="nonzero" fill-opacity="1" /><path clip-path="url(#clip220)" d="M129.371 139.24 L147.728 139.24 L147.728 143.176 L133.654 143.176 L133.654 151.648 Q134.672 151.301 135.691 151.138 Q136.709 150.953 137.728 150.953 Q143.515 150.953 146.894 154.125 Q150.274 157.296 150.274 162.712 Q150.274 168.291 146.802 171.393 Q143.33 174.472 137.01 174.472 Q134.834 174.472 132.566 174.101 Q130.32 173.731 127.913 172.99 L127.913 168.291 Q129.996 169.425 132.219 169.981 Q134.441 170.537 136.918 170.537 Q140.922 170.537 143.26 168.43 Q145.598 166.324 145.598 162.712 Q145.598 159.101 143.26 156.995 Q140.922 154.888 136.918 154.888 Q135.043 154.888 133.168 155.305 Q131.316 155.722 129.371 156.601 L129.371 139.24 Z" fill="#000000" fill-rule="nonzero" fill-opacity="1" /><polyline clip-path="url(#clip222)" style="stroke:#009af9; stroke-linecap:round; stroke-linejoin:round; stroke-width:8; stroke-opacity:1; fill:none" points="186.274,1256.86 188.443,1254.75 190.611,1252.62 192.78,1250.47 194.949,1248.3 197.117,1246.1 199.286,1243.89 201.455,1241.65 203.623,1239.39 205.792,1351.78 207.961,1350.62 210.129,1349.46 212.298,1348.28 214.466,1347.09 216.635,1345.89 218.804,1344.68 220.972,1343.45 223.141,1342.22 225.31,1340.97 227.478,1339.7 229.647,1338.43 231.816,1337.14 233.984,1335.84 236.153,1334.53 238.322,1333.2 240.49,1331.86 242.659,1330.5 244.828,1329.14 246.996,1327.75 249.165,1326.36 251.334,1324.95 253.502,1323.53 255.671,1322.09 257.839,1320.64 260.008,1319.17 262.177,1317.69 264.345,1316.19 266.514,1314.68 268.683,1313.15 270.851,1311.61 273.02,1310.05 275.189,1308.48 277.357,1306.89 279.526,1305.29 281.695,1303.66 283.863,1384.24 286.032,1383.41 288.201,1382.58 290.369,1381.73 292.538,1380.88 294.707,1380.02 296.875,1379.15 299.044,1378.27 301.212,1377.38 303.381,1376.49 305.55,1375.58 307.718,1374.67 309.887,1373.75 312.056,1372.81 314.224,1371.87 316.393,1370.92 318.562,1369.96 320.73,1368.99 322.899,1368.01 325.068,1367.02 327.236,1366.02 329.405,1365.01 331.574,1363.99 333.742,1362.95 335.911,1361.91 338.08,1360.86 340.248,1359.8 342.417,1358.73 344.585,1357.64 346.754,1356.55 348.923,1355.44 351.091,1354.33 353.26,1353.2 355.429,1352.06 357.597,1350.91 359.766,1349.74 361.935,1348.57 364.103,1347.38 366.272,1346.19 368.441,1344.98 370.609,1343.76 372.778,1342.52 374.947,1341.27 377.115,1340.01 379.284,1338.74 381.453,1337.46 383.621,1336.16 385.79,1334.85 387.959,1333.53 390.127,1332.19 392.296,1330.84 394.464,1329.47 396.633,1328.1 398.802,1326.7 400.97,1325.3 403.139,1323.88 405.308,1322.44 407.476,1320.99 409.645,1319.53 411.814,1318.05 413.982,1316.56 416.151,1315.05 418.32,1313.53 420.488,1311.99 422.657,1310.44 424.826,1308.87 426.994,1307.28 429.163,1305.68 431.332,1304.06 433.5,1302.43 435.669,1300.78 437.837,1299.11 440.006,1297.43 442.175,1295.73 444.343,1294.01 446.512,1292.28 448.681,1290.52 450.849,1288.75 453.018,1286.97 455.187,1285.16 457.355,1283.34 459.524,1281.5 461.693,1279.63 463.861,1277.76 466.03,1275.86 468.199,1273.94 470.367,1272 472.536,1270.05 474.705,1268.07 476.873,1266.08 479.042,1264.06 481.21,1262.02 483.379,1259.97 485.548,1257.89 487.716,1255.79 489.885,1253.67 492.054,1251.53 494.222,1249.37 496.391,1247.18 498.56,1244.98 500.728,1242.75 502.897,1240.5 505.066,1238.23 507.234,1235.93 509.403,1233.61 511.572,1231.27 513.74,1228.9 515.909,1226.51 518.078,1224.1 520.246,1221.66 522.415,1219.2 524.583,1216.71 526.752,1214.2 528.921,1211.66 531.089,1209.1 533.258,1206.51 535.427,1203.89 537.595,1201.25 539.764,1198.58 541.933,1195.89 544.101,1193.17 546.27,1190.42 548.439,1187.64 550.607,1184.84 552.776,1182 554.945,1179.14 557.113,1176.25 559.282,1173.33 561.451,1170.38 563.619,1167.41 565.788,1164.4 567.956,1161.36 570.125,1158.29 572.294,1155.19 574.462,1152.06 576.631,1148.9 578.8,1145.7 580.968,1142.47 583.137,1139.21 585.306,1135.92 587.474,1132.6 589.643,1129.24 591.812,1125.85 593.98,1122.42 596.149,1118.96 598.318,1115.46 600.486,1111.93 602.655,1108.36 604.824,1104.76 606.992,1101.12 609.161,1097.45 611.33,1093.74 613.498,1089.99 615.667,1086.2 617.835,1082.37 620.004,1078.51 622.173,1074.61 624.341,1070.66 626.51,1066.68 628.679,1062.66 630.847,1058.6 633.016,1054.49 635.185,1050.35 637.353,1046.16 639.522,1041.94 641.691,1037.67 643.859,1033.35 646.028,1028.99 648.197,1024.59 650.365,1020.15 652.534,1015.66 654.703,1011.12 656.871,1006.54 659.04,1001.92 661.208,997.243 663.377,992.523 665.546,987.756 667.714,982.94 669.883,978.076 672.052,973.163 674.22,968.201 676.389,963.189 678.558,958.126 680.726,953.013 682.895,947.848 685.064,942.631 687.232,937.361 689.401,932.039 691.57,926.662 693.738,921.232 695.907,915.747 698.076,910.207 700.244,904.611 702.413,898.959 704.581,893.25 706.75,887.483 708.919,881.659 711.087,875.775 713.256,869.833 715.425,863.831 717.593,857.768 719.762,851.644 721.931,845.459 724.099,839.211 726.268,832.9 728.437,826.526 730.605,820.088 732.774,813.585 734.943,807.017 737.111,800.382 739.28,793.681 741.449,786.913 743.617,780.076 745.786,773.171 747.954,766.196 750.123,759.152 752.292,752.036 754.46,744.849 756.629,737.589 758.798,1098.35 760.966,1094.65 763.135,1090.91 765.304,1087.13 767.472,1083.32 769.641,1079.46 771.81,1075.57 773.978,1071.64 776.147,1067.66 778.316,1063.65 780.484,1059.6 782.653,1055.51 784.822,1051.37 786.99,1047.2 789.159,1042.98 791.328,1038.72 793.496,1034.42 795.665,1030.07 797.833,1025.68 800.002,1021.24 802.171,1016.77 804.339,1012.24 806.508,1007.67 808.677,1003.06 810.845,998.395 813.014,993.687 815.183,988.93 817.351,984.126 819.52,979.274 821.689,974.373 823.857,969.422 826.026,964.422 828.195,959.372 830.363,954.27 832.532,949.118 834.701,943.913 836.869,1202.55 839.038,1199.9 841.206,1197.22 843.375,1194.51 845.544,1191.77 847.712,1189.01 849.881,1186.22 852.05,1183.4 854.218,1180.55 856.387,1177.68 858.556,1174.77 860.724,1171.84 862.893,1168.87 865.062,1165.88 867.23,1162.85 869.399,1159.8 871.568,1156.71 873.736,1153.6 875.905,1150.45 878.074,1147.27 880.242,1144.06 882.411,1140.82 884.579,1137.54 886.748,1134.23 888.917,1130.89 891.085,1381.72 893.254,1380.86 895.423,1380 897.591,1379.13 899.76,1378.26 901.929,1377.37 904.097,1376.47 906.266,1375.57 908.435,1374.65 910.603,1373.73 912.772,1372.8 914.941,1371.85 917.109,1370.9 919.278,1369.94 921.447,1368.97 923.615,1367.99 925.784,1367 927.952,1366 930.121,1364.99 932.29,1363.97 934.458,1362.94 936.627,1361.89 938.796,1360.84 940.964,1359.78 943.133,1358.71 945.302,1357.62 947.47,1356.53 949.639,1355.42 951.808,1354.31 953.976,1353.18 956.145,1352.04 958.314,1350.89 960.482,1349.72 962.651,1348.55 964.82,1347.36 966.988,1346.17 969.157,1344.96 971.326,1343.73 973.494,1342.5 975.663,1341.25 977.831,1339.99 980,1338.72 982.169,1337.43 984.337,1336.14 986.506,1334.83 988.675,1333.5 990.843,1332.16 993.012,1330.81 995.181,1329.45 997.349,1328.07 999.518,1326.68 1001.69,1325.27 1003.86,1323.85 1006.02,1322.42 1008.19,1320.97 1010.36,1319.5 1012.53,1318.03 1014.7,1316.53 1016.87,1315.02 1019.04,1313.5 1021.2,1311.96 1023.37,1310.41 1025.54,1308.84 1027.71,1307.25 1029.88,1305.65 1032.05,1304.03 1034.22,1302.4 1036.39,1300.75 1038.55,1299.08 1040.72,1297.4 1042.89,1295.7 1045.06,1293.98 1047.23,1292.25 1049.4,1290.49 1051.57,1288.72 1053.73,1286.93 1055.9,1285.13 1058.07,1283.3 1060.24,1281.46 1062.41,1279.6 1064.58,1277.72 1066.75,1275.82 1068.91,1273.9 1071.08,1271.97 1073.25,1270.01 1075.42,1268.03 1077.59,1266.04 1079.76,1264.02 1081.93,1261.99 1084.1,1259.93 1086.26,1257.85 1088.43,1255.75 1090.6,1253.63 1092.77,1251.49 1094.94,1249.33 1097.11,1247.14 1099.28,1244.94 1101.44,1242.71 1103.61,1240.46 1105.78,1238.19 1107.95,1235.89 1110.12,1233.57 1112.29,1231.23 1114.46,1228.86 1116.63,1226.47 1118.79,1224.06 1120.96,1221.62 1123.13,1219.15 1125.3,1216.67 1127.47,1214.15 1129.64,1211.62 1131.81,1209.05 1133.97,1206.46 1136.14,1203.85 1138.31,1201.21 1140.48,1198.54 1142.65,1195.84 1144.82,1193.12 1146.99,1190.37 1149.15,1187.59 1151.32,1184.79 1153.49,1181.95 1155.66,1179.09 1157.83,1176.2 1160,1173.28 1162.17,1170.33 1164.34,1167.35 1166.5,1164.34 1168.67,1161.3 1170.84,1158.23 1173.01,1155.13 1175.18,1152 1177.35,1148.84 1179.52,1145.64 1181.68,1142.41 1183.85,1139.15 1186.02,1135.86 1188.19,1132.54 1190.36,1129.18 1192.53,1125.78 1194.7,1122.36 1196.87,1118.89 1199.03,1115.4 1201.2,1111.87 1203.37,1108.3 1205.54,1104.7 1207.71,1101.06 1209.88,1097.38 1212.05,1093.67 1214.21,1089.92 1216.38,1086.13 1218.55,1082.3 1220.72,1078.44 1222.89,1074.54 1225.06,1070.59 1227.23,1066.61 1229.39,1062.59 1231.56,1058.53 1233.73,1054.42 1235.9,1050.28 1238.07,1046.09 1240.24,1041.86 1242.41,1037.59 1244.58,1033.28 1246.74,1028.92 1248.91,1024.52 1251.08,1020.07 1253.25,1015.58 1255.42,1011.04 1257.59,1006.46 1259.76,1001.83 1261.92,997.159 1264.09,992.438 1266.26,987.669 1268.43,982.852 1270.6,977.987 1272.77,973.073 1274.94,968.109 1277.11,963.095 1279.27,958.031 1281.44,952.917 1283.61,947.75 1285.78,942.532 1287.95,937.261 1290.12,931.937 1292.29,926.56 1294.45,921.128 1296.62,915.642 1298.79,910.1 1300.96,904.503 1303.13,898.85 1305.3,893.14 1307.47,887.372 1309.63,881.546 1311.8,875.662 1313.97,869.719 1316.14,863.716 1318.31,857.652 1320.48,851.528 1322.65,845.342 1324.82,839.094 1326.98,832.783 1329.15,826.408 1331.32,819.97 1333.49,813.466 1335.66,806.898 1337.83,800.263 1340,793.561 1342.16,786.792 1344.33,779.955 1346.5,773.049 1348.67,766.074 1350.84,759.028 1353.01,751.912 1355.18,744.723 1357.35,737.463 1359.51,730.129 1361.68,722.722 1363.85,715.24 1366.02,707.682 1368.19,700.049 1370.36,692.339 1372.53,684.551 1374.69,676.684 1376.86,668.739 1379.03,660.713 1381.2,652.607 1383.37,644.419 1385.54,636.148 1387.71,627.795 1389.88,619.357 1392.04,610.835 1394.21,602.226 1396.38,593.532 1398.55,584.749 1400.72,575.879 1402.89,566.919 1405.06,557.869 1407.22,548.728 1409.39,539.496 1411.56,530.17 1413.73,520.751 1415.9,511.237 1418.07,501.627 1420.24,491.921 1422.4,482.117 1424.57,472.214 1426.74,462.212 1428.91,452.109 1431.08,954.178 1433.25,949.024 1435.42,943.818 1437.59,938.561 1439.75,933.25 1441.92,927.886 1444.09,922.468 1446.26,916.995 1448.43,911.467 1450.6,905.884 1452.77,1183.35 1454.93,1180.5 1457.1,1177.62 1459.27,1174.72 1461.44,1319.12 1463.61,1317.63 1465.78,1316.14 1467.95,1314.62 1470.12,1313.1 1472.28,1311.55 1474.45,1310 1476.62,1308.42 1478.79,1306.83 1480.96,1305.23 1483.13,1303.6 1485.3,1301.97 1487.46,1300.31 1489.63,1298.64 1491.8,1296.95 1493.97,1295.25 1496.14,1293.52 1498.31,1291.78 1500.48,1290.03 1502.64,1288.25 1504.81,1286.46 1506.98,1284.65 1509.15,1282.82 1511.32,1280.97 1513.49,1279.11 1515.66,1277.22 1517.83,1275.32 1519.99,1273.4 1522.16,1271.45 1524.33,1269.49 1526.5,1267.51 1528.67,1265.51 1530.84,1263.49 1533.01,1261.45 1535.17,1259.38 1537.34,1257.3 1539.51,1255.2 1541.68,1253.07 1543.85,1250.92 1546.02,1248.76 1548.19,1246.57 1550.36,1244.35 1552.52,1242.12 1554.69,1239.86 1556.86,1237.58 1559.03,1235.28 1561.2,1232.95 1563.37,1230.61 1565.54,1228.23 1567.7,1225.84 1569.87,1223.42 1572.04,1220.97 1574.21,1218.5 1576.38,1216.01 1578.55,1213.49 1580.72,1210.94 1582.88,1208.37 1585.05,1205.78 1587.22,1203.15 1589.39,1200.5 1591.56,1197.83 1593.73,1195.13 1595.9,1192.4 1598.07,1189.64 1600.23,1186.85 1602.4,1184.04 1604.57,1181.2 1606.74,1178.33 1608.91,1175.43 1611.08,1172.51 1613.25,1169.55 1615.41,1166.56 1617.58,1163.54 1619.75,1160.5 1621.92,1157.42 1624.09,1154.31 1626.26,1151.17 1628.43,1307.22 1630.6,1305.62 1632.76,1304 1634.93,1302.37 1637.1,1300.72 1639.27,1299.05 1641.44,1297.37 1643.61,1295.67 1645.78,1293.95 1647.94,1292.21 1650.11,1290.46 1652.28,1288.69 1654.45,1286.9 1656.62,1285.1 1658.79,1283.27 1660.96,1281.43 1663.13,1279.57 1665.29,1277.69 1667.46,1275.79 1669.63,1273.87 1671.8,1271.93 1673.97,1269.98 1676.14,1268 1678.31,1266 1680.47,1263.99 1682.64,1261.95 1684.81,1259.89 1686.98,1257.81 1689.15,1255.71 1691.32,1253.59 1693.49,1251.45 1695.65,1249.29 1697.82,1247.11 1699.99,1244.9 1702.16,1242.67 1704.33,1240.42 1706.5,1238.14 1708.67,1235.85 1710.84,1233.53 1713,1231.18 1715.17,1228.82 1717.34,1226.43 1719.51,1224.01 1721.68,1221.57 1723.85,1219.11 1726.02,1216.62 1728.18,1214.11 1730.35,1211.57 1732.52,1209 1734.69,1206.41 1736.86,1203.8 1739.03,1201.16 1741.2,1198.49 1743.37,1195.79 1745.53,1193.07 1747.7,1190.32 1749.87,1187.54 1752.04,1184.74 1754.21,1181.9 1756.38,1179.04 1758.55,1176.15 1760.71,1173.23 1762.88,1170.28 1765.05,1167.3 1767.22,1164.29 1769.39,1161.25 1771.56,1158.18 1773.73,1155.08 1775.89,1151.94 1778.06,1148.78 1780.23,1145.58 1782.4,1142.36 1784.57,1139.1 1786.74,1135.8 1788.91,1132.48 1791.08,1129.12 1793.24,1125.72 1795.41,1122.29 1797.58,1118.83 1799.75,1115.33 1801.92,1111.8 1804.09,1108.23 1806.26,1104.63 1808.42,1100.99 1810.59,1097.31 1812.76,1093.6 1814.93,1089.85 1817.1,1086.06 1819.27,1082.23 1821.44,1078.37 1823.61,1074.46 1825.77,1070.52 1827.94,1066.54 1830.11,1062.51 1832.28,1058.45 1834.45,1054.35 1836.62,1050.2 1838.79,1046.01 1840.95,1041.78 1843.12,1037.51 1845.29,1033.19 1847.46,1028.84 1849.63,1024.43 1851.8,1019.99 1853.97,1015.5 1856.13,1010.96 1858.3,1006.38 1860.47,1001.75 1862.64,997.074 1864.81,992.352 1866.98,987.583 1869.15,982.765 1871.32,977.9 1873.48,972.985 1875.65,968.021 1877.82,963.007 1879.99,957.942 1882.16,952.826 1884.33,947.659 1886.5,942.44 1888.66,937.169 1890.83,931.844 1893,926.465 1895.17,921.033 1897.34,915.546 1899.51,910.004 1901.68,904.405 1903.85,898.751 1906.01,893.039 1908.18,887.271 1910.35,881.444 1912.52,875.558 1914.69,869.613 1916.86,863.609 1919.03,857.544 1921.19,851.418 1923.36,845.23 1925.53,838.98 1927.7,832.667 1929.87,826.291 1932.04,819.851 1934.21,813.346 1936.37,806.776 1938.54,800.139 1940.71,793.436 1942.88,786.665 1945.05,779.826 1947.22,772.919 1949.39,1116.2 1951.56,1112.67 1953.72,1109.11 1955.89,1105.52 1958.06,1101.89 1960.23,1098.22 1962.4,1094.52 1964.57,1090.77 1966.74,1086.99 1968.9,1083.18 1971.07,1079.32 1973.24,1075.43 1975.41,1071.49 1977.58,1067.52 1979.75,1063.51 1981.92,1059.45 1984.09,1055.36 1986.25,1051.22 1988.42,1047.04 1990.59,1042.83 1992.76,1038.56 1994.93,1034.26 1997.1,1029.91 1999.27,1025.52 2001.43,1021.08 2003.6,1016.6 2005.77,1012.08 2007.94,1007.51 2010.11,1002.89 2012.28,998.225 2014.45,993.515 2016.62,988.757 2018.78,983.951 2020.95,979.097 2023.12,974.194 2025.29,969.242 2027.46,964.24 2029.63,959.187 2031.8,954.084 2033.96,948.929 2036.13,943.723 2038.3,938.464 2040.47,933.152 2042.64,927.787 2044.81,922.368 2046.98,916.895 2049.14,911.366 2051.31,905.782 2053.48,900.141 2055.65,894.444 2057.82,888.69 2059.99,882.877 2062.16,877.006 2064.33,871.076 2066.49,865.087 2068.66,859.037 2070.83,852.926 2073,846.754 2075.17,840.52 2077.34,834.223 2079.51,827.862 2081.67,821.438 2083.84,814.949 2086.01,808.395 2088.18,801.774 2090.35,795.087 2092.52,788.333 2094.69,781.511 2096.86,774.62 2099.02,767.66 2101.19,760.63 2103.36,753.53 2105.53,746.357 2107.7,739.113 2109.87,731.796 2112.04,724.405 2114.2,716.939 2116.37,709.399 2118.54,701.783 2120.71,694.09 2122.88,686.32 2125.05,678.471 2127.22,670.544 2129.38,662.537 2131.55,654.45 2133.72,646.281 2135.89,638.03 2138.06,629.696 2140.23,621.278 2142.4,612.776 2144.57,604.188 2146.73,595.513 2148.9,586.752 2151.07,577.902 2153.24,568.963 2155.41,559.934 2157.58,550.815 2159.75,541.604 2161.91,532.299 2164.08,522.902 2166.25,513.41 2168.42,503.822 2170.59,494.137 2172.76,484.356 2174.93,474.476 2177.1,464.496 2179.26,454.416 2181.43,444.234 2183.6,433.95 2185.77,423.563 2187.94,413.071 2190.11,402.473 2192.28,391.769 2194.44,380.957 2196.61,370.037 2198.78,359.006 2200.95,347.865 2203.12,336.611 2205.29,325.245 2207.46,313.764 2209.62,302.168 2211.79,290.455 2213.96,278.624 2216.13,266.674 2218.3,254.604 2220.47,242.412 2222.64,230.098 2224.81,217.66 2226.97,205.097 2229.14,192.408 2231.31,179.59 2233.48,166.644 2235.65,153.568 2237.82,140.36 2239.99,127.019 2242.15,113.544 2244.32,99.9332 2246.49,86.1857 2248.66,769.375 2250.83,762.362 2253,755.279 2255.17,748.124 2257.34,740.898 2259.5,733.598 2261.67,726.226 2263.84,718.779 2266.01,711.257 2268.18,703.659 2270.35,695.986 2272.52,688.235 2274.68,680.406 2276.85,672.498 2279.02,664.51 2281.19,656.443 2283.36,648.294 2285.53,640.063 2287.7,631.75 2289.87,623.352 2292.03,614.871 2294.2,606.304 2296.37,597.651 2298.54,588.91 2300.71,580.082 2302.88,571.165 2305.05,562.158 2307.21,553.061 2309.38,543.872 2311.55,534.59 2313.72,525.216 2315.89,515.747 2318.06,506.182 2320.23,496.521 2322.39,486.764 2324.56,476.907 2326.73,466.952 2328.9,456.897 2331.07,446.74 2333.24,436.482 2335.41,426.12 2337.58,941.052 2339.74,935.767 2341.91,930.428 2344.08,925.035 2346.25,919.588 2348.42,914.087 2350.59,1187.49 2352.76,1184.68 "/>
<path clip-path="url(#clip220)" d="M258.49 196.789 L564.235 196.789 L564.235 93.1086 L258.49 93.1086  Z" fill="#ffffff" fill-rule="evenodd" fill-opacity="1"/>
<polyline clip-path="url(#clip220)" style="stroke:#000000; stroke-linecap:round; stroke-linejoin:round; stroke-width:4; stroke-opacity:1; fill:none" points="258.49,196.789 564.235,196.789 564.235,93.1086 258.49,93.1086 258.49,196.789 "/>
<polyline clip-path="url(#clip220)" style="stroke:#009af9; stroke-linecap:round; stroke-linejoin:round; stroke-width:8; stroke-opacity:1; fill:none" points="282.562,144.949 426.994,144.949 "/>
<path clip-path="url(#clip220)" d="M451.066 151.997 L451.066 136.303 L455.325 136.303 L455.325 151.835 Q455.325 155.516 456.761 157.368 Q458.196 159.196 461.066 159.196 Q464.515 159.196 466.506 156.997 Q468.52 154.798 468.52 151.002 L468.52 136.303 L472.779 136.303 L472.779 162.229 L468.52 162.229 L468.52 158.247 Q466.969 160.608 464.909 161.766 Q462.872 162.9 460.163 162.9 Q455.696 162.9 453.381 160.122 Q451.066 157.344 451.066 151.997 M461.784 135.678 L461.784 135.678 Z" fill="#000000" fill-rule="nonzero" fill-opacity="1" /><path clip-path="url(#clip220)" d="M481.159 126.21 L490.973 126.21 L490.973 129.52 L485.418 129.52 L485.418 165.168 L490.973 165.168 L490.973 168.479 L481.159 168.479 L481.159 126.21 Z" fill="#000000" fill-rule="nonzero" fill-opacity="1" /><path clip-path="url(#clip220)" d="M501.459 158.293 L509.098 158.293 L509.098 131.928 L500.788 133.595 L500.788 129.335 L509.052 127.669 L513.728 127.669 L513.728 158.293 L521.367 158.293 L521.367 162.229 L501.459 162.229 L501.459 158.293 Z" fill="#000000" fill-rule="nonzero" fill-opacity="1" /><path clip-path="url(#clip220)" d="M540.163 126.21 L540.163 168.479 L530.348 168.479 L530.348 165.168 L535.881 165.168 L535.881 129.52 L530.348 129.52 L530.348 126.21 L540.163 126.21 Z" fill="#000000" fill-rule="nonzero" fill-opacity="1" /></svg>
