<?xml version="1.0" encoding="utf-8"?>
<svg xmlns="http://www.w3.org/2000/svg" xmlns:xlink="http://www.w3.org/1999/xlink" width="600" height="400" viewBox="0 0 2400 1600">
<defs>
  <clipPath id="clip400">
    <rect x="0" y="0" width="2400" height="1600"/>
  </clipPath>
</defs>
<path clip-path="url(#clip400)" d="M0 1600 L2400 1600 L2400 0 L0 0  Z" fill="#ffffff" fill-rule="evenodd" fill-opacity="1"/>
<defs>
  <clipPath id="clip401">
    <rect x="480" y="0" width="1681" height="1600"/>
  </clipPath>
</defs>
<path clip-path="url(#clip400)" d="M193.936 1423.18 L2352.76 1423.18 L2352.76 47.2441 L193.936 47.2441  Z" fill="#ffffff" fill-rule="evenodd" fill-opacity="1"/>
<defs>
  <clipPath id="clip402">
    <rect x="193" y="47" width="2160" height="1377"/>
  </clipPath>
</defs>
<polyline clip-path="url(#clip402)" style="stroke:#000000; stroke-linecap:round; stroke-linejoin:round; stroke-width:2; stroke-opacity:0.1; fill:none" points="193.936,1423.18 193.936,47.2441 "/>
<polyline clip-path="url(#clip402)" style="stroke:#000000; stroke-linecap:round; stroke-linejoin:round; stroke-width:2; stroke-opacity:0.1; fill:none" points="625.7,1423.18 625.7,47.2441 "/>
<polyline clip-path="url(#clip402)" style="stroke:#000000; stroke-linecap:round; stroke-linejoin:round; stroke-width:2; stroke-opacity:0.1; fill:none" points="1057.46,1423.18 1057.46,47.2441 "/>
<polyline clip-path="url(#clip402)" style="stroke:#000000; stroke-linecap:round; stroke-linejoin:round; stroke-width:2; stroke-opacity:0.1; fill:none" points="1489.23,1423.18 1489.23,47.2441 "/>
<polyline clip-path="url(#clip402)" style="stroke:#000000; stroke-linecap:round; stroke-linejoin:round; stroke-width:2; stroke-opacity:0.1; fill:none" points="1920.99,1423.18 1920.99,47.2441 "/>
<polyline clip-path="url(#clip402)" style="stroke:#000000; stroke-linecap:round; stroke-linejoin:round; stroke-width:2; stroke-opacity:0.1; fill:none" points="2352.76,1423.18 2352.76,47.2441 "/>
<polyline clip-path="url(#clip400)" style="stroke:#000000; stroke-linecap:round; stroke-linejoin:round; stroke-width:4; stroke-opacity:1; fill:none" points="193.936,1423.18 2352.76,1423.18 "/>
<polyline clip-path="url(#clip400)" style="stroke:#000000; stroke-linecap:round; stroke-linejoin:round; stroke-width:4; stroke-opacity:1; fill:none" points="193.936,1423.18 193.936,1404.28 "/>
<polyline clip-path="url(#clip400)" style="stroke:#000000; stroke-linecap:round; stroke-linejoin:round; stroke-width:4; stroke-opacity:1; fill:none" points="625.7,1423.18 625.7,1404.28 "/>
<polyline clip-path="url(#clip400)" style="stroke:#000000; stroke-linecap:round; stroke-linejoin:round; stroke-width:4; stroke-opacity:1; fill:none" points="1057.46,1423.18 1057.46,1404.28 "/>
<polyline clip-path="url(#clip400)" style="stroke:#000000; stroke-linecap:round; stroke-linejoin:round; stroke-width:4; stroke-opacity:1; fill:none" points="1489.23,1423.18 1489.23,1404.28 "/>
<polyline clip-path="url(#clip400)" style="stroke:#000000; stroke-linecap:round; stroke-linejoin:round; stroke-width:4; stroke-opacity:1; fill:none" points="1920.99,1423.18 1920.99,1404.28 "/>
<polyline clip-path="url(#clip400)" style="stroke:#000000; stroke-linecap:round; stroke-linejoin:round; stroke-width:4; stroke-opacity:1; fill:none" points="2352.76,1423.18 2352.76,1404.28 "/>
<path clip-path="url(#clip400)" d="M193.936 1454.1 Q190.325 1454.1 188.496 1457.66 Q186.691 1461.2 186.691 1468.33 Q186.691 1475.44 188.496 1479.01 Q190.325 1482.55 193.936 1482.55 Q197.57 1482.55 199.376 1479.01 Q201.204 1475.44 201.204 1468.33 Q201.204 1461.2 199.376 1457.66 Q197.57 1454.1 193.936 1454.1 M193.936 1450.39 Q199.746 1450.39 202.802 1455 Q205.88 1459.58 205.88 1468.33 Q205.88 1477.06 202.802 1481.67 Q199.746 1486.25 193.936 1486.25 Q188.126 1486.25 185.047 1481.67 Q181.992 1477.06 181.992 1468.33 Q181.992 1459.58 185.047 1455 Q188.126 1450.39 193.936 1450.39 Z" fill="#000000" fill-rule="nonzero" fill-opacity="1" /><path clip-path="url(#clip400)" d="M620.353 1481.64 L636.672 1481.64 L636.672 1485.58 L614.728 1485.58 L614.728 1481.64 Q617.39 1478.89 621.973 1474.26 Q626.58 1469.61 627.76 1468.27 Q630.006 1465.74 630.885 1464.01 Q631.788 1462.25 631.788 1460.56 Q631.788 1457.8 629.843 1456.07 Q627.922 1454.33 624.82 1454.33 Q622.621 1454.33 620.168 1455.09 Q617.737 1455.86 614.959 1457.41 L614.959 1452.69 Q617.783 1451.55 620.237 1450.97 Q622.691 1450.39 624.728 1450.39 Q630.098 1450.39 633.293 1453.08 Q636.487 1455.77 636.487 1460.26 Q636.487 1462.39 635.677 1464.31 Q634.89 1466.2 632.783 1468.8 Q632.205 1469.47 629.103 1472.69 Q626.001 1475.88 620.353 1481.64 Z" fill="#000000" fill-rule="nonzero" fill-opacity="1" /><path clip-path="url(#clip400)" d="M1060.47 1455.09 L1048.67 1473.54 L1060.47 1473.54 L1060.47 1455.09 M1059.25 1451.02 L1065.13 1451.02 L1065.13 1473.54 L1070.06 1473.54 L1070.06 1477.43 L1065.13 1477.43 L1065.13 1485.58 L1060.47 1485.58 L1060.47 1477.43 L1044.87 1477.43 L1044.87 1472.92 L1059.25 1451.02 Z" fill="#000000" fill-rule="nonzero" fill-opacity="1" /><path clip-path="url(#clip400)" d="M1489.63 1466.44 Q1486.48 1466.44 1484.63 1468.59 Q1482.8 1470.74 1482.8 1474.49 Q1482.8 1478.22 1484.63 1480.39 Q1486.48 1482.55 1489.63 1482.55 Q1492.78 1482.55 1494.61 1480.39 Q1496.46 1478.22 1496.46 1474.49 Q1496.46 1470.74 1494.61 1468.59 Q1492.78 1466.44 1489.63 1466.44 M1498.92 1451.78 L1498.92 1456.04 Q1497.16 1455.21 1495.35 1454.77 Q1493.57 1454.33 1491.81 1454.33 Q1487.18 1454.33 1484.73 1457.45 Q1482.3 1460.58 1481.95 1466.9 Q1483.31 1464.89 1485.37 1463.82 Q1487.43 1462.73 1489.91 1462.73 Q1495.12 1462.73 1498.13 1465.9 Q1501.16 1469.05 1501.16 1474.49 Q1501.16 1479.82 1498.01 1483.03 Q1494.86 1486.25 1489.63 1486.25 Q1483.64 1486.25 1480.47 1481.67 Q1477.3 1477.06 1477.3 1468.33 Q1477.3 1460.14 1481.18 1455.28 Q1485.07 1450.39 1491.62 1450.39 Q1493.38 1450.39 1495.17 1450.74 Q1496.97 1451.09 1498.92 1451.78 Z" fill="#000000" fill-rule="nonzero" fill-opacity="1" /><path clip-path="url(#clip400)" d="M1920.99 1469.17 Q1917.66 1469.17 1915.74 1470.95 Q1913.84 1472.73 1913.84 1475.86 Q1913.84 1478.98 1915.74 1480.77 Q1917.66 1482.55 1920.99 1482.55 Q1924.33 1482.55 1926.25 1480.77 Q1928.17 1478.96 1928.17 1475.86 Q1928.17 1472.73 1926.25 1470.95 Q1924.35 1469.17 1920.99 1469.17 M1916.32 1467.18 Q1913.31 1466.44 1911.62 1464.38 Q1909.95 1462.32 1909.95 1459.35 Q1909.95 1455.21 1912.89 1452.8 Q1915.85 1450.39 1920.99 1450.39 Q1926.15 1450.39 1929.09 1452.8 Q1932.03 1455.21 1932.03 1459.35 Q1932.03 1462.32 1930.34 1464.38 Q1928.68 1466.44 1925.69 1467.18 Q1929.07 1467.96 1930.95 1470.26 Q1932.84 1472.55 1932.84 1475.86 Q1932.84 1480.88 1929.77 1483.57 Q1926.71 1486.25 1920.99 1486.25 Q1915.27 1486.25 1912.2 1483.57 Q1909.14 1480.88 1909.14 1475.86 Q1909.14 1472.55 1911.04 1470.26 Q1912.94 1467.96 1916.32 1467.18 M1914.6 1459.79 Q1914.6 1462.48 1916.27 1463.98 Q1917.96 1465.49 1920.99 1465.49 Q1924 1465.49 1925.69 1463.98 Q1927.4 1462.48 1927.4 1459.79 Q1927.4 1457.11 1925.69 1455.6 Q1924 1454.1 1920.99 1454.1 Q1917.96 1454.1 1916.27 1455.6 Q1914.6 1457.11 1914.6 1459.79 Z" fill="#000000" fill-rule="nonzero" fill-opacity="1" /><path clip-path="url(#clip400)" d="M2327.44 1481.64 L2335.08 1481.64 L2335.08 1455.28 L2326.77 1456.95 L2326.77 1452.69 L2335.04 1451.02 L2339.71 1451.02 L2339.71 1481.64 L2347.35 1481.64 L2347.35 1485.58 L2327.44 1485.58 L2327.44 1481.64 Z" fill="#000000" fill-rule="nonzero" fill-opacity="1" /><path clip-path="url(#clip400)" d="M2366.8 1454.1 Q2363.18 1454.1 2361.36 1457.66 Q2359.55 1461.2 2359.55 1468.33 Q2359.55 1475.44 2361.36 1479.01 Q2363.18 1482.55 2366.8 1482.55 Q2370.43 1482.55 2372.23 1479.01 Q2374.06 1475.44 2374.06 1468.33 Q2374.06 1461.2 2372.23 1457.66 Q2370.43 1454.1 2366.8 1454.1 M2366.8 1450.39 Q2372.61 1450.39 2375.66 1455 Q2378.74 1459.58 2378.74 1468.33 Q2378.74 1477.06 2375.66 1481.67 Q2372.61 1486.25 2366.8 1486.25 Q2360.99 1486.25 2357.91 1481.67 Q2354.85 1477.06 2354.85 1468.33 Q2354.85 1459.58 2357.91 1455 Q2360.99 1450.39 2366.8 1450.39 Z" fill="#000000" fill-rule="nonzero" fill-opacity="1" /><path clip-path="url(#clip400)" d="M1272.41 1522.27 L1272.41 1532.4 L1284.47 1532.4 L1284.47 1536.95 L1272.41 1536.95 L1272.41 1556.3 Q1272.41 1560.66 1273.58 1561.9 Q1274.79 1563.14 1278.45 1563.14 L1284.47 1563.14 L1284.47 1568.04 L1278.45 1568.04 Q1271.67 1568.04 1269.1 1565.53 Q1266.52 1562.98 1266.52 1556.3 L1266.52 1536.95 L1262.22 1536.95 L1262.22 1532.4 L1266.52 1532.4 L1266.52 1522.27 L1272.41 1522.27 Z" fill="#000000" fill-rule="nonzero" fill-opacity="1" /><polyline clip-path="url(#clip402)" style="stroke:#000000; stroke-linecap:round; stroke-linejoin:round; stroke-width:2; stroke-opacity:0.1; fill:none" points="193.936,1343.35 2352.76,1343.35 "/>
<polyline clip-path="url(#clip402)" style="stroke:#000000; stroke-linecap:round; stroke-linejoin:round; stroke-width:2; stroke-opacity:0.1; fill:none" points="193.936,1061.77 2352.76,1061.77 "/>
<polyline clip-path="url(#clip402)" style="stroke:#000000; stroke-linecap:round; stroke-linejoin:round; stroke-width:2; stroke-opacity:0.1; fill:none" points="193.936,780.18 2352.76,780.18 "/>
<polyline clip-path="url(#clip402)" style="stroke:#000000; stroke-linecap:round; stroke-linejoin:round; stroke-width:2; stroke-opacity:0.1; fill:none" points="193.936,498.595 2352.76,498.595 "/>
<polyline clip-path="url(#clip402)" style="stroke:#000000; stroke-linecap:round; stroke-linejoin:round; stroke-width:2; stroke-opacity:0.1; fill:none" points="193.936,217.01 2352.76,217.01 "/>
<polyline clip-path="url(#clip400)" style="stroke:#000000; stroke-linecap:round; stroke-linejoin:round; stroke-width:4; stroke-opacity:1; fill:none" points="193.936,1423.18 193.936,47.2441 "/>
<polyline clip-path="url(#clip400)" style="stroke:#000000; stroke-linecap:round; stroke-linejoin:round; stroke-width:4; stroke-opacity:1; fill:none" points="193.936,1343.35 212.834,1343.35 "/>
<polyline clip-path="url(#clip400)" style="stroke:#000000; stroke-linecap:round; stroke-linejoin:round; stroke-width:4; stroke-opacity:1; fill:none" points="193.936,1061.77 212.834,1061.77 "/>
<polyline clip-path="url(#clip400)" style="stroke:#000000; stroke-linecap:round; stroke-linejoin:round; stroke-width:4; stroke-opacity:1; fill:none" points="193.936,780.18 212.834,780.18 "/>
<polyline clip-path="url(#clip400)" style="stroke:#000000; stroke-linecap:round; stroke-linejoin:round; stroke-width:4; stroke-opacity:1; fill:none" points="193.936,498.595 212.834,498.595 "/>
<polyline clip-path="url(#clip400)" style="stroke:#000000; stroke-linecap:round; stroke-linejoin:round; stroke-width:4; stroke-opacity:1; fill:none" points="193.936,217.01 212.834,217.01 "/>
<path clip-path="url(#clip400)" d="M50.9921 1343.8 L80.6679 1343.8 L80.6679 1347.74 L50.9921 1347.74 L50.9921 1343.8 Z" fill="#000000" fill-rule="nonzero" fill-opacity="1" /><path clip-path="url(#clip400)" d="M91.5706 1356.69 L99.2095 1356.69 L99.2095 1330.33 L90.8993 1332 L90.8993 1327.74 L99.1632 1326.07 L103.839 1326.07 L103.839 1356.69 L111.478 1356.69 L111.478 1360.63 L91.5706 1360.63 L91.5706 1356.69 Z" fill="#000000" fill-rule="nonzero" fill-opacity="1" /><path clip-path="url(#clip400)" d="M120.922 1354.75 L125.807 1354.75 L125.807 1360.63 L120.922 1360.63 L120.922 1354.75 Z" fill="#000000" fill-rule="nonzero" fill-opacity="1" /><path clip-path="url(#clip400)" d="M145.992 1329.15 Q142.381 1329.15 140.552 1332.71 Q138.746 1336.26 138.746 1343.38 Q138.746 1350.49 140.552 1354.06 Q142.381 1357.6 145.992 1357.6 Q149.626 1357.6 151.431 1354.06 Q153.26 1350.49 153.26 1343.38 Q153.26 1336.26 151.431 1332.71 Q149.626 1329.15 145.992 1329.15 M145.992 1325.45 Q151.802 1325.45 154.857 1330.05 Q157.936 1334.63 157.936 1343.38 Q157.936 1352.11 154.857 1356.72 Q151.802 1361.3 145.992 1361.3 Q140.181 1361.3 137.103 1356.72 Q134.047 1352.11 134.047 1343.38 Q134.047 1334.63 137.103 1330.05 Q140.181 1325.45 145.992 1325.45 Z" fill="#000000" fill-rule="nonzero" fill-opacity="1" /><path clip-path="url(#clip400)" d="M51.9875 1062.22 L81.6633 1062.22 L81.6633 1066.15 L51.9875 1066.15 L51.9875 1062.22 Z" fill="#000000" fill-rule="nonzero" fill-opacity="1" /><path clip-path="url(#clip400)" d="M101.756 1047.56 Q98.1447 1047.56 96.316 1051.13 Q94.5104 1054.67 94.5104 1061.8 Q94.5104 1068.91 96.316 1072.47 Q98.1447 1076.01 101.756 1076.01 Q105.39 1076.01 107.196 1072.47 Q109.024 1068.91 109.024 1061.8 Q109.024 1054.67 107.196 1051.13 Q105.39 1047.56 101.756 1047.56 M101.756 1043.86 Q107.566 1043.86 110.621 1048.47 Q113.7 1053.05 113.7 1061.8 Q113.7 1070.53 110.621 1075.13 Q107.566 1079.72 101.756 1079.72 Q95.9456 1079.72 92.8669 1075.13 Q89.8114 1070.53 89.8114 1061.8 Q89.8114 1053.05 92.8669 1048.47 Q95.9456 1043.86 101.756 1043.86 Z" fill="#000000" fill-rule="nonzero" fill-opacity="1" /><path clip-path="url(#clip400)" d="M121.918 1073.17 L126.802 1073.17 L126.802 1079.05 L121.918 1079.05 L121.918 1073.17 Z" fill="#000000" fill-rule="nonzero" fill-opacity="1" /><path clip-path="url(#clip400)" d="M137.033 1044.49 L155.39 1044.49 L155.39 1048.42 L141.316 1048.42 L141.316 1056.89 Q142.334 1056.55 143.353 1056.38 Q144.371 1056.2 145.39 1056.2 Q151.177 1056.2 154.556 1059.37 Q157.936 1062.54 157.936 1067.96 Q157.936 1073.54 154.464 1076.64 Q150.992 1079.72 144.672 1079.72 Q142.496 1079.72 140.228 1079.35 Q137.982 1078.98 135.575 1078.23 L135.575 1073.54 Q137.658 1074.67 139.881 1075.23 Q142.103 1075.78 144.58 1075.78 Q148.584 1075.78 150.922 1073.67 Q153.26 1071.57 153.26 1067.96 Q153.26 1064.35 150.922 1062.24 Q148.584 1060.13 144.58 1060.13 Q142.705 1060.13 140.83 1060.55 Q138.978 1060.97 137.033 1061.85 L137.033 1044.49 Z" fill="#000000" fill-rule="nonzero" fill-opacity="1" /><path clip-path="url(#clip400)" d="M100.76 765.979 Q97.1493 765.979 95.3206 769.544 Q93.515 773.085 93.515 780.215 Q93.515 787.321 95.3206 790.886 Q97.1493 794.428 100.76 794.428 Q104.395 794.428 106.2 790.886 Q108.029 787.321 108.029 780.215 Q108.029 773.085 106.2 769.544 Q104.395 765.979 100.76 765.979 M100.76 762.275 Q106.571 762.275 109.626 766.882 Q112.705 771.465 112.705 780.215 Q112.705 788.942 109.626 793.548 Q106.571 798.132 100.76 798.132 Q94.9502 798.132 91.8715 793.548 Q88.816 788.942 88.816 780.215 Q88.816 771.465 91.8715 766.882 Q94.9502 762.275 100.76 762.275 Z" fill="#000000" fill-rule="nonzero" fill-opacity="1" /><path clip-path="url(#clip400)" d="M120.922 791.581 L125.807 791.581 L125.807 797.46 L120.922 797.46 L120.922 791.581 Z" fill="#000000" fill-rule="nonzero" fill-opacity="1" /><path clip-path="url(#clip400)" d="M145.992 765.979 Q142.381 765.979 140.552 769.544 Q138.746 773.085 138.746 780.215 Q138.746 787.321 140.552 790.886 Q142.381 794.428 145.992 794.428 Q149.626 794.428 151.431 790.886 Q153.26 787.321 153.26 780.215 Q153.26 773.085 151.431 769.544 Q149.626 765.979 145.992 765.979 M145.992 762.275 Q151.802 762.275 154.857 766.882 Q157.936 771.465 157.936 780.215 Q157.936 788.942 154.857 793.548 Q151.802 798.132 145.992 798.132 Q140.181 798.132 137.103 793.548 Q134.047 788.942 134.047 780.215 Q134.047 771.465 137.103 766.882 Q140.181 762.275 145.992 762.275 Z" fill="#000000" fill-rule="nonzero" fill-opacity="1" /><path clip-path="url(#clip400)" d="M101.756 484.394 Q98.1447 484.394 96.316 487.959 Q94.5104 491.5 94.5104 498.63 Q94.5104 505.736 96.316 509.301 Q98.1447 512.843 101.756 512.843 Q105.39 512.843 107.196 509.301 Q109.024 505.736 109.024 498.63 Q109.024 491.5 107.196 487.959 Q105.39 484.394 101.756 484.394 M101.756 480.69 Q107.566 480.69 110.621 485.297 Q113.7 489.88 113.7 498.63 Q113.7 507.357 110.621 511.963 Q107.566 516.547 101.756 516.547 Q95.9456 516.547 92.8669 511.963 Q89.8114 507.357 89.8114 498.63 Q89.8114 489.88 92.8669 485.297 Q95.9456 480.69 101.756 480.69 Z" fill="#000000" fill-rule="nonzero" fill-opacity="1" /><path clip-path="url(#clip400)" d="M121.918 509.996 L126.802 509.996 L126.802 515.875 L121.918 515.875 L121.918 509.996 Z" fill="#000000" fill-rule="nonzero" fill-opacity="1" /><path clip-path="url(#clip400)" d="M137.033 481.315 L155.39 481.315 L155.39 485.25 L141.316 485.25 L141.316 493.723 Q142.334 493.375 143.353 493.213 Q144.371 493.028 145.39 493.028 Q151.177 493.028 154.556 496.199 Q157.936 499.371 157.936 504.787 Q157.936 510.366 154.464 513.468 Q150.992 516.547 144.672 516.547 Q142.496 516.547 140.228 516.176 Q137.982 515.806 135.575 515.065 L135.575 510.366 Q137.658 511.5 139.881 512.056 Q142.103 512.611 144.58 512.611 Q148.584 512.611 150.922 510.505 Q153.26 508.398 153.26 504.787 Q153.26 501.176 150.922 499.07 Q148.584 496.963 144.58 496.963 Q142.705 496.963 140.83 497.38 Q138.978 497.797 137.033 498.676 L137.033 481.315 Z" fill="#000000" fill-rule="nonzero" fill-opacity="1" /><path clip-path="url(#clip400)" d="M91.5706 230.355 L99.2095 230.355 L99.2095 203.99 L90.8993 205.656 L90.8993 201.397 L99.1632 199.73 L103.839 199.73 L103.839 230.355 L111.478 230.355 L111.478 234.29 L91.5706 234.29 L91.5706 230.355 Z" fill="#000000" fill-rule="nonzero" fill-opacity="1" /><path clip-path="url(#clip400)" d="M120.922 228.411 L125.807 228.411 L125.807 234.29 L120.922 234.29 L120.922 228.411 Z" fill="#000000" fill-rule="nonzero" fill-opacity="1" /><path clip-path="url(#clip400)" d="M145.992 202.809 Q142.381 202.809 140.552 206.374 Q138.746 209.915 138.746 217.045 Q138.746 224.151 140.552 227.716 Q142.381 231.258 145.992 231.258 Q149.626 231.258 151.431 227.716 Q153.26 224.151 153.26 217.045 Q153.26 209.915 151.431 206.374 Q149.626 202.809 145.992 202.809 M145.992 199.105 Q151.802 199.105 154.857 203.712 Q157.936 208.295 157.936 217.045 Q157.936 225.772 154.857 230.378 Q151.802 234.962 145.992 234.962 Q140.181 234.962 137.103 230.378 Q134.047 225.772 134.047 217.045 Q134.047 208.295 137.103 203.712 Q140.181 199.105 145.992 199.105 Z" fill="#000000" fill-rule="nonzero" fill-opacity="1" /><polyline clip-path="url(#clip402)" style="stroke:#009af9; stroke-linecap:round; stroke-linejoin:round; stroke-width:8; stroke-opacity:1; fill:none" points="193.936,667.546 194.149,668.281 194.348,668.175 194.572,668.621 194.824,674.182 195.107,675.343 195.426,678.823 195.785,677.84 196.188,669.124 196.642,661.047 197.152,659.497 197.727,656.209 198.373,652.776 199.099,660.047 199.917,660.802 200.837,662.923 201.872,672.209 203.036,668.359 204.346,676.245 205.82,670.721 207.477,685.418 209.342,666.282 211.44,665.646 213.801,669.75 216.456,634.661 219.444,624.04 222.804,629.696 226.585,609.322 230.839,625.569 235.296,554.376 240.311,577.555 245.418,563.199 251.164,532.309 257.628,519.689 264.852,494.591 272.921,517.678 280.107,453.401 288.191,428.401 296.004,436.771 303.857,452.75 311.896,503.041 319.732,474.504 328.547,375.691 337.549,512.388 345.277,545.367 353.97,517.795 363.75,448.374 373.831,450.521 382.632,323.032 392.461,327.86 400.192,393.162 408.004,356.156 416.619,326.75 424.564,291.57 432.345,88.3515 439.667,96.1336 445.797,99.2478 451.799,175.007 457.337,130.327 463.051,121.054 465.001,147.018 470.228,474.47 476.109,478.877 482.361,520.273 488.87,396.02 496.192,448.309 502.341,390.661 509.259,367.025 515.735,373.198 522.173,310.653 528.883,218.03 534.934,377.271 541.119,537.707 548.078,538.421 554.907,494.373 562.59,469.265 569.993,482.179 577.298,396.921 584.958,492.848 592.897,651.247 601.828,629.678 611.875,633.003 621.455,634.01 632.232,608.363 644.356,571.631 656.425,588.654 666.746,650.147 678.357,614.133 691.419,601.65 703.401,524.706 715.048,463.406 727.861,574.304 742.275,620.129 753.158,486.144 765.401,511.104 775.4,563.548 785.798,517.115 797.496,617.018 808.206,577.408 820.254,543.763 831.672,556.994 841.877,559.046 853.341,553.962 864.649,587.704 874.91,602.433 886.454,666.626 898.603,657.361 912.272,625.637 926.99,617.086 940.567,559.081 955.265,584.587 965.26,567.444 976.419,691.151 988.972,709.647 1003.1,724.059 1018.98,721.161 1036.86,716.026 1056.97,723.856 1074.9,730.341 1095.08,742.552 1117.67,740.234 1136.69,661.949 1148.74,597.287 1162.29,588.214 1173.59,618.941 1185.04,635.714 1197.11,656.587 1210.68,630.42 1225.95,639.468 1239.04,629.033 1253.75,626.69 1269.01,537.022 1285.48,475.599 1299.44,475.362 1311.46,379.284 1324.3,323.085 1334.81,228.363 1343.37,195.491 1351.09,116.597 1358.28,126.832 1360.12,118.282 1366.4,480.446 1373.47,492.038 1380.82,378.622 1389.08,388.319 1396.2,358.757 1404.2,282.228 1412.58,194.237 1420.68,208.424 1427.75,170.316 1435.44,86.1857 1443.02,186.044 1449.42,298.98 1456.31,401.309 1463.44,395.019 1471.46,433.163 1478.59,331.509 1486.61,391.025 1492.97,344.509 1500.12,347.312 1506.7,376.353 1513.49,249.753 1521.13,237.75 1527.72,340.393 1534.11,316.872 1541.29,351.059 1547.86,391.867 1554.8,484.14 1561.79,494.032 1569.66,480.008 1578.12,530.798 1585.76,530.506 1594.35,539.347 1602.82,538.609 1612.18,525.825 1621.95,483.859 1632.04,405.965 1641.68,493.619 1649.73,451.559 1658.8,495.63 1666.52,530.049 1674.92,509.178 1684.28,561.852 1692.57,525.551 1701.9,504.252 1707.87,487.132 1716.55,658.385 1726.32,643.446 1737.3,654.623 1747.99,642.853 1760.01,655.053 1771.23,650.182 1783.85,683.061 1795.91,669.939 1809.48,675.584 1822.7,602.895 1837.57,627.958 1848.82,578.248 1861.47,599.877 1871.89,607.871 1883.46,545.444 1891.37,563.192 1903.96,667.087 1918.12,676.731 1932.36,719.983 1948.38,645.499 1963.77,608.33 1980.18,577.264 1995.13,488.312 2005.83,478.028 2018.69,650.971 2033.17,665.075 2047.06,711.696 2062.68,702.134 2080.27,688.57 2098.95,711.241 2114.84,700.342 2132.72,697.571 2148.74,705.432 2166.14,714.683 2185.09,724.838 2206.24,716.158 2230.04,679.376 2256.81,684.111 2276.89,721.696 2298.49,740.75 2320.33,742.124 2344.9,740.098 2352.76,744.569 "/>
<polyline clip-path="url(#clip402)" style="stroke:#e26f46; stroke-linecap:round; stroke-linejoin:round; stroke-width:8; stroke-opacity:1; fill:none" points="193.936,1216.62 194.149,1216.51 194.348,1216.41 194.572,1216.29 194.824,1216.17 195.107,1216.03 195.426,1215.87 195.785,1215.7 196.188,1215.51 196.642,1215.27 197.152,1214.98 197.727,1214.66 198.373,1214.29 199.099,1213.87 199.917,1213.4 200.837,1212.89 201.872,1212.33 203.036,1211.74 204.346,1211.13 205.82,1210.38 207.477,1209.61 209.342,1208.69 211.44,1207.6 213.801,1206.38 216.456,1204.75 219.444,1202.7 222.804,1200.37 226.585,1197.49 230.839,1194.63 235.296,1190.68 240.311,1186.12 245.418,1181.23 251.164,1175.23 257.628,1166.79 264.852,1157.02 272.921,1147.41 280.107,1137.37 288.191,1123.86 296.004,1110.23 303.857,1097.43 311.896,1086.14 319.732,1074.37 328.547,1060.19 337.549,1048.34 345.277,1038.84 353.97,1028.77 363.75,1015.25 373.831,999.466 382.632,983.379 392.461,964.858 400.192,949.859 408.004,935.023 416.619,917.067 424.564,899.499 432.345,879.215 439.667,855.767 445.797,836.301 451.799,818.909 457.337,802.604 463.051,785.399 465.001,780.18 470.228,897.699 476.109,889.908 482.361,881.267 488.87,871.219 496.192,859.779 502.341,848.749 509.259,835.22 515.735,822.425 522.173,809.733 528.883,793.021 534.934,780.18 541.119,839.572 548.078,831.472 554.907,823.891 562.59,813.437 569.993,802.433 577.298,791.163 584.958,780.18 592.897,881.469 601.828,875.722 611.875,869.162 621.455,862.511 632.232,854.438 644.356,843.625 656.425,833.271 666.746,825.239 678.357,816.683 691.419,806.298 703.401,794.808 715.048,780.18 727.861,996.41 742.275,983.874 753.158,973.605 765.401,958.461 775.4,947.33 785.798,934.365 797.496,922.764 808.206,913.599 820.254,901.652 831.672,890.078 841.877,878.425 853.341,865.749 864.649,855.278 874.91,846.327 886.454,838.938 898.603,832.517 912.272,824.677 926.99,813.223 940.567,802.479 955.265,789.33 965.26,780.18 976.419,1105.1 988.972,1100.08 1003.1,1095.4 1018.98,1091 1036.86,1085.66 1056.97,1080.36 1074.9,1075.61 1095.08,1070.9 1117.67,1066.87 1136.69,1061.42 1148.74,1053.48 1162.29,1042.8 1173.59,1033.29 1185.04,1025.89 1197.11,1016.63 1210.68,1008.17 1225.95,997.511 1239.04,989.324 1253.75,977.197 1269.01,963.796 1285.48,943.913 1299.44,924.261 1311.46,906.721 1324.3,879.551 1334.81,854.932 1343.37,830.5 1351.09,808.036 1358.28,786.082 1360.12,780.18 1366.4,1384.24 1373.47,1375.4 1380.82,1363.53 1389.08,1347.76 1396.2,1333.86 1404.2,1316.52 1412.58,1296.17 1420.68,1275.43 1427.75,1256.92 1435.44,1231.7 1443.02,1209.03 1449.42,1192.11 1456.31,1177.04 1463.44,1164.01 1471.46,1151.58 1478.59,1138.13 1486.61,1123.54 1492.97,1110.45 1500.12,1096.13 1506.7,1083.28 1513.49,1069.05 1521.13,1049.91 1527.72,1035.13 1534.11,1020.66 1541.29,1005.15 1547.86,991.862 1554.8,980.858 1561.79,970.83 1569.66,958.93 1578.12,948.242 1585.76,938.645 1594.35,928.878 1602.82,918.784 1612.18,907.022 1621.95,894.653 1632.04,877.835 1641.68,863.316 1649.73,852.077 1658.8,839.141 1666.52,829.915 1674.92,819.41 1684.28,808.481 1692.57,798.955 1701.9,788.678 1707.87,780.18 1716.55,901.487 1726.32,895.791 1737.3,888.767 1747.99,881.986 1760.01,874.716 1771.23,868.185 1783.85,861.084 1795.91,855.37 1809.48,848.143 1822.7,839.874 1837.57,829.035 1848.82,820.091 1861.47,808.2 1871.89,800.358 1883.46,788.63 1891.37,780.18 1903.96,857.486 1918.12,849.136 1932.36,843.462 1948.38,836.344 1963.77,826.552 1980.18,811 1995.13,795.389 2005.83,780.18 2018.69,966.253 2033.17,958.996 2047.06,953.066 2062.68,946.984 2080.27,940.365 2098.95,933.105 2114.84,927.458 2132.72,922.088 2148.74,916.641 2166.14,910.96 2185.09,905.128 2206.24,900.347 2230.04,891.626 2256.81,878.255 2276.89,871.135 2298.49,867.892 2320.33,863.581 2344.9,858.879 2352.76,857.496 "/>
<path clip-path="url(#clip400)" d="M1975.82 248.629 L2280.8 248.629 L2280.8 93.1086 L1975.82 93.1086  Z" fill="#ffffff" fill-rule="evenodd" fill-opacity="1"/>
<polyline clip-path="url(#clip400)" style="stroke:#000000; stroke-linecap:round; stroke-linejoin:round; stroke-width:4; stroke-opacity:1; fill:none" points="1975.82,248.629 2280.8,248.629 2280.8,93.1086 1975.82,93.1086 1975.82,248.629 "/>
<polyline clip-path="url(#clip400)" style="stroke:#009af9; stroke-linecap:round; stroke-linejoin:round; stroke-width:8; stroke-opacity:1; fill:none" points="1999.8,144.949 2143.72,144.949 "/>
<path clip-path="url(#clip400)" d="M2167.71 151.997 L2167.71 136.303 L2171.97 136.303 L2171.97 151.835 Q2171.97 155.516 2173.41 157.368 Q2174.84 159.196 2177.71 159.196 Q2181.16 159.196 2183.15 156.997 Q2185.17 154.798 2185.17 151.002 L2185.17 136.303 L2189.42 136.303 L2189.42 162.229 L2185.17 162.229 L2185.17 158.247 Q2183.61 160.608 2181.55 161.766 Q2179.52 162.9 2176.81 162.9 Q2172.34 162.9 2170.03 160.122 Q2167.71 157.344 2167.71 151.997 M2178.43 135.678 L2178.43 135.678 Z" fill="#000000" fill-rule="nonzero" fill-opacity="1" /><path clip-path="url(#clip400)" d="M2197.8 126.21 L2207.62 126.21 L2207.62 129.52 L2202.06 129.52 L2202.06 165.168 L2207.62 165.168 L2207.62 168.479 L2197.8 168.479 L2197.8 126.21 Z" fill="#000000" fill-rule="nonzero" fill-opacity="1" /><path clip-path="url(#clip400)" d="M2218.1 158.293 L2225.74 158.293 L2225.74 131.928 L2217.43 133.595 L2217.43 129.335 L2225.7 127.669 L2230.37 127.669 L2230.37 158.293 L2238.01 158.293 L2238.01 162.229 L2218.1 162.229 L2218.1 158.293 Z" fill="#000000" fill-rule="nonzero" fill-opacity="1" /><path clip-path="url(#clip400)" d="M2256.81 126.21 L2256.81 168.479 L2246.99 168.479 L2246.99 165.168 L2252.53 165.168 L2252.53 129.52 L2246.99 129.52 L2246.99 126.21 L2256.81 126.21 Z" fill="#000000" fill-rule="nonzero" fill-opacity="1" /><polyline clip-path="url(#clip400)" style="stroke:#e26f46; stroke-linecap:round; stroke-linejoin:round; stroke-width:8; stroke-opacity:1; fill:none" points="1999.8,196.789 2143.72,196.789 "/>
<path clip-path="url(#clip400)" d="M2167.71 203.837 L2167.71 188.143 L2171.97 188.143 L2171.97 203.675 Q2171.97 207.356 2173.41 209.208 Q2174.84 211.036 2177.71 211.036 Q2181.16 211.036 2183.15 208.837 Q2185.17 206.638 2185.17 202.842 L2185.17 188.143 L2189.42 188.143 L2189.42 214.069 L2185.17 214.069 L2185.17 210.087 Q2183.61 212.448 2181.55 213.606 Q2179.52 214.74 2176.81 214.74 Q2172.34 214.74 2170.03 211.962 Q2167.71 209.184 2167.71 203.837 M2178.43 187.518 L2178.43 187.518 Z" fill="#000000" fill-rule="nonzero" fill-opacity="1" /><path clip-path="url(#clip400)" d="M2197.8 178.05 L2207.62 178.05 L2207.62 181.36 L2202.06 181.36 L2202.06 217.008 L2207.62 217.008 L2207.62 220.319 L2197.8 220.319 L2197.8 178.05 Z" fill="#000000" fill-rule="nonzero" fill-opacity="1" /><path clip-path="url(#clip400)" d="M2221.32 210.133 L2237.64 210.133 L2237.64 214.069 L2215.7 214.069 L2215.7 210.133 Q2218.36 207.379 2222.94 202.749 Q2227.55 198.096 2228.73 196.754 Q2230.98 194.231 2231.85 192.495 Q2232.76 190.735 2232.76 189.046 Q2232.76 186.291 2230.81 184.555 Q2228.89 182.819 2225.79 182.819 Q2223.59 182.819 2221.14 183.583 Q2218.71 184.347 2215.93 185.897 L2215.93 181.175 Q2218.75 180.041 2221.21 179.462 Q2223.66 178.884 2225.7 178.884 Q2231.07 178.884 2234.26 181.569 Q2237.46 184.254 2237.46 188.745 Q2237.46 190.874 2236.65 192.796 Q2235.86 194.694 2233.75 197.286 Q2233.17 197.958 2230.07 201.175 Q2226.97 204.37 2221.32 210.133 Z" fill="#000000" fill-rule="nonzero" fill-opacity="1" /><path clip-path="url(#clip400)" d="M2256.81 178.05 L2256.81 220.319 L2246.99 220.319 L2246.99 217.008 L2252.53 217.008 L2252.53 181.36 L2246.99 181.36 L2246.99 178.05 L2256.81 178.05 Z" fill="#000000" fill-rule="nonzero" fill-opacity="1" /></svg>
