<?xml version="1.0" encoding="utf-8"?>
<svg xmlns="http://www.w3.org/2000/svg" xmlns:xlink="http://www.w3.org/1999/xlink" width="600" height="400" viewBox="0 0 2400 1600">
<defs>
  <clipPath id="clip070">
    <rect x="0" y="0" width="2400" height="1600"/>
  </clipPath>
</defs>
<path clip-path="url(#clip070)" d="M0 1600 L2400 1600 L2400 0 L0 0  Z" fill="#ffffff" fill-rule="evenodd" fill-opacity="1"/>
<defs>
  <clipPath id="clip071">
    <rect x="480" y="0" width="1681" height="1600"/>
  </clipPath>
</defs>
<path clip-path="url(#clip070)" d="M138.959 1423.18 L2352.76 1423.18 L2352.76 47.2441 L138.959 47.2441  Z" fill="#ffffff" fill-rule="evenodd" fill-opacity="1"/>
<defs>
  <clipPath id="clip072">
    <rect x="138" y="47" width="2215" height="1377"/>
  </clipPath>
</defs>
<polyline clip-path="url(#clip072)" style="stroke:#000000; stroke-linecap:round; stroke-linejoin:round; stroke-width:2; stroke-opacity:0.1; fill:none" points="138.959,1423.18 138.959,47.2441 "/>
<polyline clip-path="url(#clip072)" style="stroke:#000000; stroke-linecap:round; stroke-linejoin:round; stroke-width:2; stroke-opacity:0.1; fill:none" points="581.719,1423.18 581.719,47.2441 "/>
<polyline clip-path="url(#clip072)" style="stroke:#000000; stroke-linecap:round; stroke-linejoin:round; stroke-width:2; stroke-opacity:0.1; fill:none" points="1024.48,1423.18 1024.48,47.2441 "/>
<polyline clip-path="url(#clip072)" style="stroke:#000000; stroke-linecap:round; stroke-linejoin:round; stroke-width:2; stroke-opacity:0.1; fill:none" points="1467.24,1423.18 1467.24,47.2441 "/>
<polyline clip-path="url(#clip072)" style="stroke:#000000; stroke-linecap:round; stroke-linejoin:round; stroke-width:2; stroke-opacity:0.1; fill:none" points="1910,1423.18 1910,47.2441 "/>
<polyline clip-path="url(#clip072)" style="stroke:#000000; stroke-linecap:round; stroke-linejoin:round; stroke-width:2; stroke-opacity:0.1; fill:none" points="2352.76,1423.18 2352.76,47.2441 "/>
<polyline clip-path="url(#clip070)" style="stroke:#000000; stroke-linecap:round; stroke-linejoin:round; stroke-width:4; stroke-opacity:1; fill:none" points="138.959,1423.18 2352.76,1423.18 "/>
<polyline clip-path="url(#clip070)" style="stroke:#000000; stroke-linecap:round; stroke-linejoin:round; stroke-width:4; stroke-opacity:1; fill:none" points="138.959,1423.18 138.959,1404.28 "/>
<polyline clip-path="url(#clip070)" style="stroke:#000000; stroke-linecap:round; stroke-linejoin:round; stroke-width:4; stroke-opacity:1; fill:none" points="581.719,1423.18 581.719,1404.28 "/>
<polyline clip-path="url(#clip070)" style="stroke:#000000; stroke-linecap:round; stroke-linejoin:round; stroke-width:4; stroke-opacity:1; fill:none" points="1024.48,1423.18 1024.48,1404.28 "/>
<polyline clip-path="url(#clip070)" style="stroke:#000000; stroke-linecap:round; stroke-linejoin:round; stroke-width:4; stroke-opacity:1; fill:none" points="1467.24,1423.18 1467.24,1404.28 "/>
<polyline clip-path="url(#clip070)" style="stroke:#000000; stroke-linecap:round; stroke-linejoin:round; stroke-width:4; stroke-opacity:1; fill:none" points="1910,1423.18 1910,1404.28 "/>
<polyline clip-path="url(#clip070)" style="stroke:#000000; stroke-linecap:round; stroke-linejoin:round; stroke-width:4; stroke-opacity:1; fill:none" points="2352.76,1423.18 2352.76,1404.28 "/>
<path clip-path="url(#clip070)" d="M138.959 1454.1 Q135.348 1454.1 133.52 1457.66 Q131.714 1461.2 131.714 1468.33 Q131.714 1475.44 133.52 1479.01 Q135.348 1482.55 138.959 1482.55 Q142.594 1482.55 144.399 1479.01 Q146.228 1475.44 146.228 1468.33 Q146.228 1461.2 144.399 1457.66 Q142.594 1454.1 138.959 1454.1 M138.959 1450.39 Q144.77 1450.39 147.825 1455 Q150.904 1459.58 150.904 1468.33 Q150.904 1477.06 147.825 1481.67 Q144.77 1486.25 138.959 1486.25 Q133.149 1486.25 130.071 1481.67 Q127.015 1477.06 127.015 1468.33 Q127.015 1459.58 130.071 1455 Q133.149 1450.39 138.959 1450.39 Z" fill="#000000" fill-rule="nonzero" fill-opacity="1" /><path clip-path="url(#clip070)" d="M576.372 1481.64 L592.691 1481.64 L592.691 1485.58 L570.747 1485.58 L570.747 1481.64 Q573.409 1478.89 577.992 1474.26 Q582.598 1469.61 583.779 1468.27 Q586.024 1465.74 586.904 1464.01 Q587.807 1462.25 587.807 1460.56 Q587.807 1457.8 585.862 1456.07 Q583.941 1454.33 580.839 1454.33 Q578.64 1454.33 576.186 1455.09 Q573.756 1455.86 570.978 1457.41 L570.978 1452.69 Q573.802 1451.55 576.256 1450.97 Q578.709 1450.39 580.747 1450.39 Q586.117 1450.39 589.311 1453.08 Q592.506 1455.77 592.506 1460.26 Q592.506 1462.39 591.696 1464.31 Q590.908 1466.2 588.802 1468.8 Q588.223 1469.47 585.121 1472.69 Q582.02 1475.88 576.372 1481.64 Z" fill="#000000" fill-rule="nonzero" fill-opacity="1" /><path clip-path="url(#clip070)" d="M1027.49 1455.09 L1015.68 1473.54 L1027.49 1473.54 L1027.49 1455.09 M1026.26 1451.02 L1032.14 1451.02 L1032.14 1473.54 L1037.07 1473.54 L1037.07 1477.43 L1032.14 1477.43 L1032.14 1485.58 L1027.49 1485.58 L1027.49 1477.43 L1011.89 1477.43 L1011.89 1472.92 L1026.26 1451.02 Z" fill="#000000" fill-rule="nonzero" fill-opacity="1" /><path clip-path="url(#clip070)" d="M1467.64 1466.44 Q1464.49 1466.44 1462.64 1468.59 Q1460.81 1470.74 1460.81 1474.49 Q1460.81 1478.22 1462.64 1480.39 Q1464.49 1482.55 1467.64 1482.55 Q1470.79 1482.55 1472.62 1480.39 Q1474.47 1478.22 1474.47 1474.49 Q1474.47 1470.74 1472.62 1468.59 Q1470.79 1466.44 1467.64 1466.44 M1476.92 1451.78 L1476.92 1456.04 Q1475.17 1455.21 1473.36 1454.77 Q1471.58 1454.33 1469.82 1454.33 Q1465.19 1454.33 1462.74 1457.45 Q1460.3 1460.58 1459.96 1466.9 Q1461.32 1464.89 1463.38 1463.82 Q1465.44 1462.73 1467.92 1462.73 Q1473.13 1462.73 1476.14 1465.9 Q1479.17 1469.05 1479.17 1474.49 Q1479.17 1479.82 1476.02 1483.03 Q1472.87 1486.25 1467.64 1486.25 Q1461.65 1486.25 1458.48 1481.67 Q1455.3 1477.06 1455.3 1468.33 Q1455.3 1460.14 1459.19 1455.28 Q1463.08 1450.39 1469.63 1450.39 Q1471.39 1450.39 1473.17 1450.74 Q1474.98 1451.09 1476.92 1451.78 Z" fill="#000000" fill-rule="nonzero" fill-opacity="1" /><path clip-path="url(#clip070)" d="M1910 1469.17 Q1906.66 1469.17 1904.74 1470.95 Q1902.84 1472.73 1902.84 1475.86 Q1902.84 1478.98 1904.74 1480.77 Q1906.66 1482.55 1910 1482.55 Q1913.33 1482.55 1915.25 1480.77 Q1917.17 1478.96 1917.17 1475.86 Q1917.17 1472.73 1915.25 1470.95 Q1913.35 1469.17 1910 1469.17 M1905.32 1467.18 Q1902.31 1466.44 1900.62 1464.38 Q1898.96 1462.32 1898.96 1459.35 Q1898.96 1455.21 1901.89 1452.8 Q1904.86 1450.39 1910 1450.39 Q1915.16 1450.39 1918.1 1452.8 Q1921.04 1455.21 1921.04 1459.35 Q1921.04 1462.32 1919.35 1464.38 Q1917.68 1466.44 1914.7 1467.18 Q1918.08 1467.96 1919.95 1470.26 Q1921.85 1472.55 1921.85 1475.86 Q1921.85 1480.88 1918.77 1483.57 Q1915.71 1486.25 1910 1486.25 Q1904.28 1486.25 1901.2 1483.57 Q1898.14 1480.88 1898.14 1475.86 Q1898.14 1472.55 1900.04 1470.26 Q1901.94 1467.96 1905.32 1467.18 M1903.61 1459.79 Q1903.61 1462.48 1905.27 1463.98 Q1906.96 1465.49 1910 1465.49 Q1913.01 1465.49 1914.7 1463.98 Q1916.41 1462.48 1916.41 1459.79 Q1916.41 1457.11 1914.7 1455.6 Q1913.01 1454.1 1910 1454.1 Q1906.96 1454.1 1905.27 1455.6 Q1903.61 1457.11 1903.61 1459.79 Z" fill="#000000" fill-rule="nonzero" fill-opacity="1" /><path clip-path="url(#clip070)" d="M2327.44 1481.64 L2335.08 1481.64 L2335.08 1455.28 L2326.77 1456.95 L2326.77 1452.69 L2335.04 1451.02 L2339.71 1451.02 L2339.71 1481.64 L2347.35 1481.64 L2347.35 1485.58 L2327.44 1485.58 L2327.44 1481.64 Z" fill="#000000" fill-rule="nonzero" fill-opacity="1" /><path clip-path="url(#clip070)" d="M2366.8 1454.1 Q2363.18 1454.1 2361.36 1457.66 Q2359.55 1461.2 2359.55 1468.33 Q2359.55 1475.44 2361.36 1479.01 Q2363.18 1482.55 2366.8 1482.55 Q2370.43 1482.55 2372.23 1479.01 Q2374.06 1475.44 2374.06 1468.33 Q2374.06 1461.2 2372.23 1457.66 Q2370.43 1454.1 2366.8 1454.1 M2366.8 1450.39 Q2372.61 1450.39 2375.66 1455 Q2378.74 1459.58 2378.74 1468.33 Q2378.74 1477.06 2375.66 1481.67 Q2372.61 1486.25 2366.8 1486.25 Q2360.99 1486.25 2357.91 1481.67 Q2354.85 1477.06 2354.85 1468.33 Q2354.85 1459.58 2357.91 1455 Q2360.99 1450.39 2366.8 1450.39 Z" fill="#000000" fill-rule="nonzero" fill-opacity="1" /><path clip-path="url(#clip070)" d="M1244.92 1522.27 L1244.92 1532.4 L1256.98 1532.4 L1256.98 1536.95 L1244.92 1536.95 L1244.92 1556.3 Q1244.92 1560.66 1246.1 1561.9 Q1247.31 1563.14 1250.97 1563.14 L1256.98 1563.14 L1256.98 1568.04 L1250.97 1568.04 Q1244.19 1568.04 1241.61 1565.53 Q1239.03 1562.98 1239.03 1556.3 L1239.03 1536.95 L1234.73 1536.95 L1234.73 1532.4 L1239.03 1532.4 L1239.03 1522.27 L1244.92 1522.27 Z" fill="#000000" fill-rule="nonzero" fill-opacity="1" /><polyline clip-path="url(#clip072)" style="stroke:#000000; stroke-linecap:round; stroke-linejoin:round; stroke-width:2; stroke-opacity:0.1; fill:none" points="138.959,1384.24 2352.76,1384.24 "/>
<polyline clip-path="url(#clip072)" style="stroke:#000000; stroke-linecap:round; stroke-linejoin:round; stroke-width:2; stroke-opacity:0.1; fill:none" points="138.959,1002.46 2352.76,1002.46 "/>
<polyline clip-path="url(#clip072)" style="stroke:#000000; stroke-linecap:round; stroke-linejoin:round; stroke-width:2; stroke-opacity:0.1; fill:none" points="138.959,620.678 2352.76,620.678 "/>
<polyline clip-path="url(#clip072)" style="stroke:#000000; stroke-linecap:round; stroke-linejoin:round; stroke-width:2; stroke-opacity:0.1; fill:none" points="138.959,238.898 2352.76,238.898 "/>
<polyline clip-path="url(#clip070)" style="stroke:#000000; stroke-linecap:round; stroke-linejoin:round; stroke-width:4; stroke-opacity:1; fill:none" points="138.959,1423.18 138.959,47.2441 "/>
<polyline clip-path="url(#clip070)" style="stroke:#000000; stroke-linecap:round; stroke-linejoin:round; stroke-width:4; stroke-opacity:1; fill:none" points="138.959,1384.24 157.857,1384.24 "/>
<polyline clip-path="url(#clip070)" style="stroke:#000000; stroke-linecap:round; stroke-linejoin:round; stroke-width:4; stroke-opacity:1; fill:none" points="138.959,1002.46 157.857,1002.46 "/>
<polyline clip-path="url(#clip070)" style="stroke:#000000; stroke-linecap:round; stroke-linejoin:round; stroke-width:4; stroke-opacity:1; fill:none" points="138.959,620.678 157.857,620.678 "/>
<polyline clip-path="url(#clip070)" style="stroke:#000000; stroke-linecap:round; stroke-linejoin:round; stroke-width:4; stroke-opacity:1; fill:none" points="138.959,238.898 157.857,238.898 "/>
<path clip-path="url(#clip070)" d="M91.0151 1370.04 Q87.404 1370.04 85.5753 1373.6 Q83.7697 1377.14 83.7697 1384.27 Q83.7697 1391.38 85.5753 1394.94 Q87.404 1398.49 91.0151 1398.49 Q94.6493 1398.49 96.4548 1394.94 Q98.2835 1391.38 98.2835 1384.27 Q98.2835 1377.14 96.4548 1373.6 Q94.6493 1370.04 91.0151 1370.04 M91.0151 1366.33 Q96.8252 1366.33 99.8808 1370.94 Q102.959 1375.52 102.959 1384.27 Q102.959 1393 99.8808 1397.61 Q96.8252 1402.19 91.0151 1402.19 Q85.2049 1402.19 82.1262 1397.61 Q79.0707 1393 79.0707 1384.27 Q79.0707 1375.52 82.1262 1370.94 Q85.2049 1366.33 91.0151 1366.33 Z" fill="#000000" fill-rule="nonzero" fill-opacity="1" /><path clip-path="url(#clip070)" d="M82.0568 985.178 L100.413 985.178 L100.413 989.113 L86.3392 989.113 L86.3392 997.585 Q87.3577 997.238 88.3762 997.076 Q89.3947 996.891 90.4132 996.891 Q96.2002 996.891 99.5798 1000.06 Q102.959 1003.23 102.959 1008.65 Q102.959 1014.23 99.4872 1017.33 Q96.015 1020.41 89.6956 1020.41 Q87.5197 1020.41 85.2512 1020.04 Q83.0058 1019.67 80.5984 1018.93 L80.5984 1014.23 Q82.6818 1015.36 84.904 1015.92 Q87.1262 1016.47 89.603 1016.47 Q93.6076 1016.47 95.9456 1014.37 Q98.2835 1012.26 98.2835 1008.65 Q98.2835 1005.04 95.9456 1002.93 Q93.6076 1000.83 89.603 1000.83 Q87.728 1000.83 85.8531 1001.24 Q84.0012 1001.66 82.0568 1002.54 L82.0568 985.178 Z" fill="#000000" fill-rule="nonzero" fill-opacity="1" /><path clip-path="url(#clip070)" d="M51.6634 634.023 L59.3023 634.023 L59.3023 607.657 L50.9921 609.324 L50.9921 605.065 L59.256 603.398 L63.9319 603.398 L63.9319 634.023 L71.5707 634.023 L71.5707 637.958 L51.6634 637.958 L51.6634 634.023 Z" fill="#000000" fill-rule="nonzero" fill-opacity="1" /><path clip-path="url(#clip070)" d="M91.0151 606.477 Q87.404 606.477 85.5753 610.041 Q83.7697 613.583 83.7697 620.713 Q83.7697 627.819 85.5753 631.384 Q87.404 634.926 91.0151 634.926 Q94.6493 634.926 96.4548 631.384 Q98.2835 627.819 98.2835 620.713 Q98.2835 613.583 96.4548 610.041 Q94.6493 606.477 91.0151 606.477 M91.0151 602.773 Q96.8252 602.773 99.8808 607.379 Q102.959 611.963 102.959 620.713 Q102.959 629.439 99.8808 634.046 Q96.8252 638.629 91.0151 638.629 Q85.2049 638.629 82.1262 634.046 Q79.0707 629.439 79.0707 620.713 Q79.0707 611.963 82.1262 607.379 Q85.2049 602.773 91.0151 602.773 Z" fill="#000000" fill-rule="nonzero" fill-opacity="1" /><path clip-path="url(#clip070)" d="M52.6588 252.243 L60.2976 252.243 L60.2976 225.877 L51.9875 227.544 L51.9875 223.284 L60.2513 221.618 L64.9272 221.618 L64.9272 252.243 L72.5661 252.243 L72.5661 256.178 L52.6588 256.178 L52.6588 252.243 Z" fill="#000000" fill-rule="nonzero" fill-opacity="1" /><path clip-path="url(#clip070)" d="M82.0568 221.618 L100.413 221.618 L100.413 225.553 L86.3392 225.553 L86.3392 234.025 Q87.3577 233.678 88.3762 233.516 Q89.3947 233.331 90.4132 233.331 Q96.2002 233.331 99.5798 236.502 Q102.959 239.673 102.959 245.09 Q102.959 250.669 99.4872 253.77 Q96.015 256.849 89.6956 256.849 Q87.5197 256.849 85.2512 256.479 Q83.0058 256.108 80.5984 255.368 L80.5984 250.669 Q82.6818 251.803 84.904 252.358 Q87.1262 252.914 89.603 252.914 Q93.6076 252.914 95.9456 250.807 Q98.2835 248.701 98.2835 245.09 Q98.2835 241.479 95.9456 239.372 Q93.6076 237.266 89.603 237.266 Q87.728 237.266 85.8531 237.682 Q84.0012 238.099 82.0568 238.979 L82.0568 221.618 Z" fill="#000000" fill-rule="nonzero" fill-opacity="1" /><polyline clip-path="url(#clip072)" style="stroke:#009af9; stroke-linecap:round; stroke-linejoin:round; stroke-width:8; stroke-opacity:1; fill:none" points="138.959,1384.24 140.125,1384.24 141.291,1384.24 142.457,1384.24 143.623,1384.24 144.788,1384.24 145.954,1384.24 147.12,1384.24 148.286,1384.24 149.451,1384.24 150.617,1384.24 151.783,1384.24 152.949,1384.24 154.114,1384.24 155.28,1384.24 156.446,1384.24 157.612,1384.24 158.778,1384.24 159.943,1384.24 161.109,1384.24 162.275,1384.24 163.441,1384.24 164.606,1384.24 165.772,1384.24 166.938,1384.24 168.104,1384.24 169.269,1384.24 170.435,1384.24 171.601,1384.24 172.767,1384.24 173.933,1384.24 175.098,1384.24 176.264,1384.24 177.43,1384.24 178.596,1384.24 179.761,1384.24 180.927,1384.24 182.093,1384.24 183.259,1384.24 184.424,1384.24 185.59,1384.24 186.756,1384.24 187.922,1384.24 189.088,1384.24 190.253,1384.24 191.419,1384.24 192.585,1384.24 193.751,1384.24 194.916,1384.24 196.082,1384.24 197.248,1384.24 198.414,1384.24 199.579,1384.24 200.745,1384.24 201.911,1384.24 203.077,1384.24 204.243,1384.24 205.408,1384.24 206.574,1384.24 207.74,1384.24 208.906,1384.24 210.071,1384.24 211.237,1384.24 212.403,1384.24 213.569,1384.24 214.734,1384.24 215.9,1384.24 217.066,1384.24 218.232,1384.24 219.398,1384.24 220.563,1384.24 221.729,1384.24 222.895,1384.24 224.061,1384.24 225.226,1384.24 226.392,1384.24 227.558,1307.88 228.724,1307.88 229.889,1307.88 231.055,1307.88 232.221,1307.88 233.387,1307.88 234.553,1307.88 235.718,1307.88 236.884,1307.88 238.05,1307.88 239.216,1307.88 240.381,1307.88 241.547,1307.88 242.713,1307.88 243.879,1307.88 245.044,1307.88 246.21,1307.88 247.376,1307.88 248.542,1307.88 249.708,1307.88 250.873,1307.88 252.039,1307.88 253.205,1307.88 254.371,1307.88 255.536,1307.88 256.702,1307.88 257.868,1307.88 259.034,1307.88 260.199,1307.88 261.365,1307.88 262.531,1307.88 263.697,1307.88 264.863,1307.88 266.028,1307.88 267.194,1307.88 268.36,1307.88 269.526,1307.88 270.691,1307.88 271.857,1307.88 273.023,1307.88 274.189,1307.88 275.354,1307.88 276.52,1307.88 277.686,1307.88 278.852,1307.88 280.018,1307.88 281.183,1307.88 282.349,1307.88 283.515,1307.88 284.681,1307.88 285.846,1307.88 287.012,1307.88 288.178,1307.88 289.344,1307.88 290.509,1307.88 291.675,1307.88 292.841,1231.53 294.007,1231.53 295.173,1231.53 296.338,1231.53 297.504,1231.53 298.67,1231.53 299.836,1231.53 301.001,1231.53 302.167,1231.53 303.333,1231.53 304.499,1231.53 305.664,1231.53 306.83,1231.53 307.996,1231.53 309.162,1231.53 310.328,1231.53 311.493,1231.53 312.659,1231.53 313.825,1231.53 314.991,1231.53 316.156,1231.53 317.322,1231.53 318.488,1231.53 319.654,1231.53 320.819,1231.53 321.985,1231.53 323.151,1231.53 324.317,1231.53 325.483,1231.53 326.648,1231.53 327.814,1231.53 328.98,1231.53 330.146,1231.53 331.311,1231.53 332.477,1231.53 333.643,1231.53 334.809,1231.53 335.975,1231.53 337.14,1231.53 338.306,1231.53 339.472,1231.53 340.638,1231.53 341.803,1231.53 342.969,1155.17 344.135,1155.17 345.301,1155.17 346.466,1155.17 347.632,1155.17 348.798,1155.17 349.964,1155.17 351.13,1155.17 352.295,1078.81 353.461,1078.81 354.627,1078.81 355.793,1078.81 356.958,1078.81 358.124,1078.81 359.29,1078.81 360.456,1078.81 361.621,1078.81 362.787,1078.81 363.953,1078.81 365.119,1078.81 366.285,1078.81 367.45,1078.81 368.616,1078.81 369.782,1078.81 370.948,1078.81 372.113,1078.81 373.279,1078.81 374.445,1078.81 375.611,1078.81 376.776,1078.81 377.942,1078.81 379.108,1078.81 380.274,1078.81 381.44,1078.81 382.605,1078.81 383.771,1078.81 384.937,1078.81 386.103,1078.81 387.268,1078.81 388.434,1078.81 389.6,1078.81 390.766,1078.81 391.931,1078.81 393.097,1078.81 394.263,1078.81 395.429,1078.81 396.595,1078.81 397.76,1078.81 398.926,1078.81 400.092,1078.81 401.258,1078.81 402.423,1078.81 403.589,1078.81 404.755,1078.81 405.921,1078.81 407.086,1078.81 408.252,1078.81 409.418,1078.81 410.584,1078.81 411.75,1078.81 412.915,1078.81 414.081,1078.81 415.247,1078.81 416.413,1078.81 417.578,1078.81 418.744,1078.81 419.91,1078.81 421.076,1078.81 422.241,1078.81 423.407,1078.81 424.573,1078.81 425.739,1078.81 426.905,1078.81 428.07,1078.81 429.236,1078.81 430.402,1078.81 431.568,1078.81 432.733,1078.81 433.899,1078.81 435.065,1078.81 436.231,1078.81 437.396,1078.81 438.562,1078.81 439.728,1078.81 440.894,1078.81 442.06,1078.81 443.225,1078.81 444.391,1078.81 445.557,1078.81 446.723,1078.81 447.888,1078.81 449.054,1078.81 450.22,1078.81 451.386,1078.81 452.551,1002.46 453.717,1002.46 454.883,1002.46 456.049,1002.46 457.215,1002.46 458.38,1002.46 459.546,1002.46 460.712,1002.46 461.878,1002.46 463.043,1002.46 464.209,1002.46 465.375,1002.46 466.541,1002.46 467.706,1002.46 468.872,1002.46 470.038,1002.46 471.204,1002.46 472.37,1002.46 473.535,1002.46 474.701,1002.46 475.867,1002.46 477.033,1002.46 478.198,1002.46 479.364,1002.46 480.53,1002.46 481.696,1002.46 482.861,1002.46 484.027,1002.46 485.193,1002.46 486.359,1002.46 487.525,1002.46 488.69,1002.46 489.856,1002.46 491.022,1002.46 492.188,1002.46 493.353,1002.46 494.519,1002.46 495.685,1002.46 496.851,1002.46 498.016,1002.46 499.182,1002.46 500.348,1002.46 501.514,1002.46 502.68,1002.46 503.845,1002.46 505.011,1002.46 506.177,1002.46 507.343,1002.46 508.508,1002.46 509.674,1002.46 510.84,1002.46 512.006,1002.46 513.171,1002.46 514.337,1002.46 515.503,1002.46 516.669,1002.46 517.835,1002.46 519,1002.46 520.166,1002.46 521.332,1002.46 522.498,1002.46 523.663,1002.46 524.829,1002.46 525.995,1002.46 527.161,1002.46 528.326,1002.46 529.492,1002.46 530.658,1002.46 531.824,1002.46 532.99,1002.46 534.155,1002.46 535.321,1002.46 536.487,1002.46 537.653,1002.46 538.818,1002.46 539.984,1002.46 541.15,1002.46 542.316,1002.46 543.481,1002.46 544.647,1002.46 545.813,1002.46 546.979,1002.46 548.145,1002.46 549.31,1002.46 550.476,1002.46 551.642,1002.46 552.808,1002.46 553.973,1002.46 555.139,1002.46 556.305,1002.46 557.471,1002.46 558.636,1002.46 559.802,1002.46 560.968,1002.46 562.134,1002.46 563.3,1002.46 564.465,1002.46 565.631,1002.46 566.797,1002.46 567.963,1002.46 569.128,1002.46 570.294,1002.46 571.46,1002.46 572.626,1002.46 573.791,1002.46 574.957,1002.46 576.123,1002.46 577.289,1002.46 578.455,1002.46 579.62,1002.46 580.786,1002.46 581.952,1002.46 583.118,1002.46 584.283,1002.46 585.449,1002.46 586.615,1002.46 587.781,1002.46 588.947,1002.46 590.112,1002.46 591.278,1002.46 592.444,1002.46 593.61,1002.46 594.775,1002.46 595.941,1002.46 597.107,1002.46 598.273,1002.46 599.438,1002.46 600.604,1002.46 601.77,1002.46 602.936,1002.46 604.102,1002.46 605.267,1002.46 606.433,1002.46 607.599,1002.46 608.765,1002.46 609.93,1002.46 611.096,1002.46 612.262,1002.46 613.428,1002.46 614.593,926.102 615.759,926.102 616.925,926.102 618.091,926.102 619.257,926.102 620.422,926.102 621.588,926.102 622.754,926.102 623.92,926.102 625.085,926.102 626.251,926.102 627.417,926.102 628.583,926.102 629.748,926.102 630.914,926.102 632.08,926.102 633.246,926.102 634.412,926.102 635.577,926.102 636.743,926.102 637.909,926.102 639.075,926.102 640.24,926.102 641.406,926.102 642.572,926.102 643.738,926.102 644.903,926.102 646.069,926.102 647.235,926.102 648.401,926.102 649.567,926.102 650.732,926.102 651.898,926.102 653.064,926.102 654.23,926.102 655.395,926.102 656.561,926.102 657.727,926.102 658.893,926.102 660.058,926.102 661.224,926.102 662.39,926.102 663.556,926.102 664.722,926.102 665.887,926.102 667.053,926.102 668.219,926.102 669.385,926.102 670.55,926.102 671.716,926.102 672.882,926.102 674.048,926.102 675.213,926.102 676.379,926.102 677.545,926.102 678.711,926.102 679.877,926.102 681.042,926.102 682.208,926.102 683.374,926.102 684.54,926.102 685.705,926.102 686.871,926.102 688.037,926.102 689.203,926.102 690.368,926.102 691.534,926.102 692.7,926.102 693.866,926.102 695.032,926.102 696.197,926.102 697.363,926.102 698.529,926.102 699.695,926.102 700.86,926.102 702.026,926.102 703.192,926.102 704.358,926.102 705.523,926.102 706.689,926.102 707.855,926.102 709.021,926.102 710.187,926.102 711.352,926.102 712.518,926.102 713.684,926.102 714.85,926.102 716.015,926.102 717.181,926.102 718.347,926.102 719.513,926.102 720.678,926.102 721.844,926.102 723.01,926.102 724.176,926.102 725.342,926.102 726.507,926.102 727.673,926.102 728.839,926.102 730.005,926.102 731.17,926.102 732.336,926.102 733.502,926.102 734.668,849.746 735.833,849.746 736.999,849.746 738.165,849.746 739.331,849.746 740.497,849.746 741.662,849.746 742.828,849.746 743.994,849.746 745.16,849.746 746.325,849.746 747.491,849.746 748.657,849.746 749.823,849.746 750.988,849.746 752.154,849.746 753.32,849.746 754.486,849.746 755.652,849.746 756.817,849.746 757.983,849.746 759.149,849.746 760.315,849.746 761.48,849.746 762.646,849.746 763.812,849.746 764.978,849.746 766.143,849.746 767.309,849.746 768.475,849.746 769.641,849.746 770.807,849.746 771.972,849.746 773.138,849.746 774.304,849.746 775.47,849.746 776.635,849.746 777.801,849.746 778.967,849.746 780.133,849.746 781.298,849.746 782.464,849.746 783.63,849.746 784.796,849.746 785.962,849.746 787.127,849.746 788.293,849.746 789.459,849.746 790.625,849.746 791.79,849.746 792.956,849.746 794.122,849.746 795.288,849.746 796.453,849.746 797.619,849.746 798.785,849.746 799.951,849.746 801.117,849.746 802.282,849.746 803.448,849.746 804.614,849.746 805.78,849.746 806.945,849.746 808.111,849.746 809.277,849.746 810.443,849.746 811.608,849.746 812.774,849.746 813.94,849.746 815.106,849.746 816.272,849.746 817.437,849.746 818.603,849.746 819.769,849.746 820.935,849.746 822.1,849.746 823.266,849.746 824.432,849.746 825.598,849.746 826.764,849.746 827.929,849.746 829.095,849.746 830.261,849.746 831.427,849.746 832.592,849.746 833.758,849.746 834.924,849.746 836.09,849.746 837.255,849.746 838.421,849.746 839.587,849.746 840.753,849.746 841.919,849.746 843.084,849.746 844.25,849.746 845.416,849.746 846.582,849.746 847.747,849.746 848.913,849.746 850.079,849.746 851.245,849.746 852.41,849.746 853.576,849.746 854.742,849.746 855.908,849.746 857.074,849.746 858.239,849.746 859.405,849.746 860.571,849.746 861.737,849.746 862.902,849.746 864.068,849.746 865.234,849.746 866.4,849.746 867.565,849.746 868.731,849.746 869.897,849.746 871.063,849.746 872.229,849.746 873.394,849.746 874.56,849.746 875.726,849.746 876.892,849.746 878.057,849.746 879.223,849.746 880.389,849.746 881.555,849.746 882.72,849.746 883.886,849.746 885.052,849.746 886.218,849.746 887.384,849.746 888.549,849.746 889.715,849.746 890.881,849.746 892.047,849.746 893.212,849.746 894.378,849.746 895.544,849.746 896.71,849.746 897.875,849.746 899.041,849.746 900.207,849.746 901.373,849.746 902.539,849.746 903.704,849.746 904.87,849.746 906.036,849.746 907.202,849.746 908.367,849.746 909.533,849.746 910.699,849.746 911.865,849.746 913.03,849.746 914.196,849.746 915.362,849.746 916.528,849.746 917.694,849.746 918.859,849.746 920.025,849.746 921.191,849.746 922.357,849.746 923.522,849.746 924.688,849.746 925.854,849.746 927.02,849.746 928.185,849.746 929.351,849.746 930.517,849.746 931.683,849.746 932.849,849.746 934.014,849.746 935.18,849.746 936.346,849.746 937.512,849.746 938.677,849.746 939.843,849.746 941.009,849.746 942.175,849.746 943.34,849.746 944.506,849.746 945.672,849.746 946.838,849.746 948.004,849.746 949.169,849.746 950.335,849.746 951.501,849.746 952.667,849.746 953.832,849.746 954.998,849.746 956.164,849.746 957.33,849.746 958.495,849.746 959.661,849.746 960.827,849.746 961.993,849.746 963.159,849.746 964.324,849.746 965.49,849.746 966.656,849.746 967.822,849.746 968.987,849.746 970.153,849.746 971.319,849.746 972.485,849.746 973.65,849.746 974.816,849.746 975.982,849.746 977.148,849.746 978.314,849.746 979.479,849.746 980.645,849.746 981.811,849.746 982.977,849.746 984.142,849.746 985.308,849.746 986.474,849.746 987.64,849.746 988.805,849.746 989.971,849.746 991.137,849.746 992.303,849.746 993.469,849.746 994.634,849.746 995.8,849.746 996.966,849.746 998.132,849.746 999.297,849.746 1000.46,849.746 1001.63,849.746 1002.79,849.746 1003.96,849.746 1005.13,849.746 1006.29,849.746 1007.46,849.746 1008.62,849.746 1009.79,849.746 1010.96,849.746 1012.12,849.746 1013.29,849.746 1014.45,849.746 1015.62,849.746 1016.78,849.746 1017.95,849.746 1019.12,849.746 1020.28,849.746 1021.45,849.746 1022.61,849.746 1023.78,849.746 1024.94,849.746 1026.11,849.746 1027.28,849.746 1028.44,849.746 1029.61,849.746 1030.77,849.746 1031.94,849.746 1033.1,849.746 1034.27,849.746 1035.44,849.746 1036.6,849.746 1037.77,849.746 1038.93,849.746 1040.1,849.746 1041.27,849.746 1042.43,849.746 1043.6,849.746 1044.76,849.746 1045.93,849.746 1047.09,849.746 1048.26,849.746 1049.43,849.746 1050.59,849.746 1051.76,849.746 1052.92,849.746 1054.09,849.746 1055.25,849.746 1056.42,849.746 1057.59,849.746 1058.75,849.746 1059.92,849.746 1061.08,849.746 1062.25,849.746 1063.41,849.746 1064.58,849.746 1065.75,849.746 1066.91,849.746 1068.08,849.746 1069.24,849.746 1070.41,849.746 1071.58,849.746 1072.74,849.746 1073.91,849.746 1075.07,849.746 1076.24,849.746 1077.4,849.746 1078.57,849.746 1079.74,849.746 1080.9,849.746 1082.07,849.746 1083.23,849.746 1084.4,849.746 1085.56,849.746 1086.73,849.746 1087.9,849.746 1089.06,849.746 1090.23,849.746 1091.39,849.746 1092.56,849.746 1093.72,849.746 1094.89,849.746 1096.06,849.746 1097.22,849.746 1098.39,849.746 1099.55,849.746 1100.72,849.746 1101.89,849.746 1103.05,849.746 1104.22,849.746 1105.38,849.746 1106.55,849.746 1107.71,849.746 1108.88,849.746 1110.05,849.746 1111.21,849.746 1112.38,849.746 1113.54,849.746 1114.71,849.746 1115.87,849.746 1117.04,849.746 1118.21,849.746 1119.37,849.746 1120.54,849.746 1121.7,849.746 1122.87,849.746 1124.03,849.746 1125.2,849.746 1126.37,849.746 1127.53,849.746 1128.7,849.746 1129.86,849.746 1131.03,849.746 1132.2,849.746 1133.36,849.746 1134.53,849.746 1135.69,849.746 1136.86,849.746 1138.02,849.746 1139.19,849.746 1140.36,849.746 1141.52,849.746 1142.69,849.746 1143.85,849.746 1145.02,849.746 1146.18,849.746 1147.35,849.746 1148.52,849.746 1149.68,849.746 1150.85,849.746 1152.01,849.746 1153.18,849.746 1154.34,849.746 1155.51,849.746 1156.68,849.746 1157.84,849.746 1159.01,849.746 1160.17,849.746 1161.34,849.746 1162.51,849.746 1163.67,849.746 1164.84,849.746 1166,849.746 1167.17,849.746 1168.33,849.746 1169.5,849.746 1170.67,849.746 1171.83,849.746 1173,849.746 1174.16,849.746 1175.33,849.746 1176.49,849.746 1177.66,849.746 1178.83,849.746 1179.99,849.746 1181.16,849.746 1182.32,849.746 1183.49,849.746 1184.65,849.746 1185.82,849.746 1186.99,849.746 1188.15,849.746 1189.32,849.746 1190.48,849.746 1191.65,849.746 1192.82,849.746 1193.98,849.746 1195.15,849.746 1196.31,849.746 1197.48,849.746 1198.64,849.746 1199.81,849.746 1200.98,849.746 1202.14,849.746 1203.31,849.746 1204.47,849.746 1205.64,849.746 1206.8,849.746 1207.97,849.746 1209.14,849.746 1210.3,849.746 1211.47,849.746 1212.63,849.746 1213.8,849.746 1214.96,849.746 1216.13,849.746 1217.3,849.746 1218.46,849.746 1219.63,849.746 1220.79,849.746 1221.96,849.746 1223.13,849.746 1224.29,849.746 1225.46,849.746 1226.62,849.746 1227.79,849.746 1228.95,849.746 1230.12,849.746 1231.29,849.746 1232.45,849.746 1233.62,849.746 1234.78,849.746 1235.95,849.746 1237.11,849.746 1238.28,849.746 1239.45,849.746 1240.61,849.746 1241.78,849.746 1242.94,849.746 1244.11,849.746 1245.27,849.746 1246.44,849.746 1247.61,849.746 1248.77,849.746 1249.94,849.746 1251.1,849.746 1252.27,849.746 1253.44,849.746 1254.6,849.746 1255.77,849.746 1256.93,849.746 1258.1,849.746 1259.26,849.746 1260.43,849.746 1261.6,849.746 1262.76,849.746 1263.93,849.746 1265.09,849.746 1266.26,849.746 1267.42,849.746 1268.59,849.746 1269.76,849.746 1270.92,849.746 1272.09,849.746 1273.25,849.746 1274.42,849.746 1275.58,849.746 1276.75,849.746 1277.92,849.746 1279.08,849.746 1280.25,849.746 1281.41,849.746 1282.58,849.746 1283.75,849.746 1284.91,849.746 1286.08,849.746 1287.24,849.746 1288.41,849.746 1289.57,849.746 1290.74,849.746 1291.91,849.746 1293.07,849.746 1294.24,849.746 1295.4,849.746 1296.57,849.746 1297.73,849.746 1298.9,849.746 1300.07,849.746 1301.23,849.746 1302.4,849.746 1303.56,849.746 1304.73,849.746 1305.89,849.746 1307.06,849.746 1308.23,849.746 1309.39,849.746 1310.56,849.746 1311.72,849.746 1312.89,849.746 1314.06,849.746 1315.22,849.746 1316.39,849.746 1317.55,849.746 1318.72,849.746 1319.88,849.746 1321.05,849.746 1322.22,849.746 1323.38,849.746 1324.55,849.746 1325.71,849.746 1326.88,849.746 1328.04,849.746 1329.21,849.746 1330.38,849.746 1331.54,849.746 1332.71,849.746 1333.87,849.746 1335.04,849.746 1336.2,849.746 1337.37,849.746 1338.54,849.746 1339.7,849.746 1340.87,849.746 1342.03,849.746 1343.2,849.746 1344.37,849.746 1345.53,849.746 1346.7,849.746 1347.86,849.746 1349.03,849.746 1350.19,849.746 1351.36,849.746 1352.53,849.746 1353.69,849.746 1354.86,849.746 1356.02,849.746 1357.19,849.746 1358.35,849.746 1359.52,849.746 1360.69,849.746 1361.85,849.746 1363.02,849.746 1364.18,849.746 1365.35,849.746 1366.51,849.746 1367.68,849.746 1368.85,849.746 1370.01,849.746 1371.18,849.746 1372.34,849.746 1373.51,849.746 1374.68,849.746 1375.84,849.746 1377.01,849.746 1378.17,849.746 1379.34,849.746 1380.5,849.746 1381.67,849.746 1382.84,849.746 1384,849.746 1385.17,849.746 1386.33,849.746 1387.5,849.746 1388.66,849.746 1389.83,849.746 1391,849.746 1392.16,849.746 1393.33,849.746 1394.49,849.746 1395.66,849.746 1396.82,849.746 1397.99,849.746 1399.16,849.746 1400.32,849.746 1401.49,849.746 1402.65,849.746 1403.82,849.746 1404.99,773.39 1406.15,773.39 1407.32,773.39 1408.48,773.39 1409.65,773.39 1410.81,773.39 1411.98,773.39 1413.15,773.39 1414.31,773.39 1415.48,773.39 1416.64,773.39 1417.81,773.39 1418.97,773.39 1420.14,773.39 1421.31,773.39 1422.47,773.39 1423.64,773.39 1424.8,773.39 1425.97,773.39 1427.13,773.39 1428.3,773.39 1429.47,773.39 1430.63,773.39 1431.8,773.39 1432.96,773.39 1434.13,773.39 1435.3,773.39 1436.46,773.39 1437.63,773.39 1438.79,773.39 1439.96,773.39 1441.12,773.39 1442.29,773.39 1443.46,773.39 1444.62,773.39 1445.79,773.39 1446.95,773.39 1448.12,773.39 1449.28,773.39 1450.45,773.39 1451.62,773.39 1452.78,773.39 1453.95,773.39 1455.11,773.39 1456.28,773.39 1457.44,773.39 1458.61,773.39 1459.78,773.39 1460.94,773.39 1462.11,773.39 1463.27,697.034 1464.44,697.034 1465.61,697.034 1466.77,697.034 1467.94,697.034 1469.1,697.034 1470.27,697.034 1471.43,697.034 1472.6,697.034 1473.77,697.034 1474.93,697.034 1476.1,697.034 1477.26,697.034 1478.43,697.034 1479.59,697.034 1480.76,697.034 1481.93,697.034 1483.09,697.034 1484.26,697.034 1485.42,697.034 1486.59,697.034 1487.75,697.034 1488.92,697.034 1490.09,697.034 1491.25,697.034 1492.42,697.034 1493.58,697.034 1494.75,697.034 1495.92,697.034 1497.08,697.034 1498.25,697.034 1499.41,697.034 1500.58,697.034 1501.74,697.034 1502.91,697.034 1504.08,697.034 1505.24,697.034 1506.41,697.034 1507.57,697.034 1508.74,697.034 1509.9,697.034 1511.07,697.034 1512.24,697.034 1513.4,697.034 1514.57,697.034 1515.73,697.034 1516.9,697.034 1518.06,697.034 1519.23,697.034 1520.4,697.034 1521.56,697.034 1522.73,697.034 1523.89,697.034 1525.06,697.034 1526.23,697.034 1527.39,697.034 1528.56,697.034 1529.72,697.034 1530.89,697.034 1532.05,697.034 1533.22,697.034 1534.39,697.034 1535.55,697.034 1536.72,697.034 1537.88,697.034 1539.05,620.678 1540.21,620.678 1541.38,620.678 1542.55,620.678 1543.71,620.678 1544.88,620.678 1546.04,620.678 1547.21,620.678 1548.37,620.678 1549.54,620.678 1550.71,620.678 1551.87,620.678 1553.04,620.678 1554.2,620.678 1555.37,620.678 1556.54,620.678 1557.7,620.678 1558.87,620.678 1560.03,620.678 1561.2,620.678 1562.36,620.678 1563.53,620.678 1564.7,620.678 1565.86,620.678 1567.03,620.678 1568.19,620.678 1569.36,620.678 1570.52,620.678 1571.69,620.678 1572.86,620.678 1574.02,620.678 1575.19,620.678 1576.35,620.678 1577.52,620.678 1578.68,620.678 1579.85,620.678 1581.02,620.678 1582.18,620.678 1583.35,620.678 1584.51,620.678 1585.68,620.678 1586.85,620.678 1588.01,620.678 1589.18,620.678 1590.34,620.678 1591.51,620.678 1592.67,620.678 1593.84,620.678 1595.01,620.678 1596.17,620.678 1597.34,620.678 1598.5,620.678 1599.67,620.678 1600.83,620.678 1602,620.678 1603.17,620.678 1604.33,620.678 1605.5,620.678 1606.66,620.678 1607.83,620.678 1608.99,620.678 1610.16,620.678 1611.33,620.678 1612.49,620.678 1613.66,620.678 1614.82,620.678 1615.99,620.678 1617.16,620.678 1618.32,620.678 1619.49,620.678 1620.65,620.678 1621.82,620.678 1622.98,620.678 1624.15,620.678 1625.32,620.678 1626.48,620.678 1627.65,620.678 1628.81,620.678 1629.98,620.678 1631.14,620.678 1632.31,620.678 1633.48,620.678 1634.64,620.678 1635.81,620.678 1636.97,620.678 1638.14,620.678 1639.3,620.678 1640.47,620.678 1641.64,620.678 1642.8,620.678 1643.97,620.678 1645.13,620.678 1646.3,620.678 1647.47,620.678 1648.63,620.678 1649.8,620.678 1650.96,620.678 1652.13,620.678 1653.29,620.678 1654.46,620.678 1655.63,620.678 1656.79,620.678 1657.96,620.678 1659.12,620.678 1660.29,620.678 1661.45,620.678 1662.62,620.678 1663.79,620.678 1664.95,620.678 1666.12,620.678 1667.28,620.678 1668.45,620.678 1669.61,620.678 1670.78,620.678 1671.95,620.678 1673.11,620.678 1674.28,620.678 1675.44,620.678 1676.61,620.678 1677.78,620.678 1678.94,620.678 1680.11,620.678 1681.27,620.678 1682.44,620.678 1683.6,620.678 1684.77,620.678 1685.94,620.678 1687.1,620.678 1688.27,620.678 1689.43,620.678 1690.6,620.678 1691.76,620.678 1692.93,620.678 1694.1,620.678 1695.26,620.678 1696.43,620.678 1697.59,620.678 1698.76,620.678 1699.92,620.678 1701.09,620.678 1702.26,620.678 1703.42,620.678 1704.59,620.678 1705.75,620.678 1706.92,620.678 1708.09,620.678 1709.25,620.678 1710.42,620.678 1711.58,620.678 1712.75,620.678 1713.91,620.678 1715.08,620.678 1716.25,620.678 1717.41,620.678 1718.58,620.678 1719.74,620.678 1720.91,620.678 1722.07,620.678 1723.24,620.678 1724.41,620.678 1725.57,620.678 1726.74,620.678 1727.9,620.678 1729.07,620.678 1730.23,620.678 1731.4,620.678 1732.57,620.678 1733.73,620.678 1734.9,620.678 1736.06,620.678 1737.23,620.678 1738.4,620.678 1739.56,620.678 1740.73,620.678 1741.89,620.678 1743.06,620.678 1744.22,620.678 1745.39,620.678 1746.56,620.678 1747.72,620.678 1748.89,620.678 1750.05,620.678 1751.22,620.678 1752.38,620.678 1753.55,620.678 1754.72,620.678 1755.88,620.678 1757.05,620.678 1758.21,620.678 1759.38,620.678 1760.54,620.678 1761.71,620.678 1762.88,620.678 1764.04,620.678 1765.21,620.678 1766.37,620.678 1767.54,620.678 1768.71,620.678 1769.87,620.678 1771.04,620.678 1772.2,620.678 1773.37,620.678 1774.53,620.678 1775.7,620.678 1776.87,620.678 1778.03,620.678 1779.2,620.678 1780.36,620.678 1781.53,620.678 1782.69,620.678 1783.86,620.678 1785.03,620.678 1786.19,620.678 1787.36,620.678 1788.52,620.678 1789.69,620.678 1790.85,620.678 1792.02,620.678 1793.19,620.678 1794.35,620.678 1795.52,620.678 1796.68,620.678 1797.85,620.678 1799.02,620.678 1800.18,544.322 1801.35,544.322 1802.51,544.322 1803.68,544.322 1804.84,544.322 1806.01,544.322 1807.18,467.966 1808.34,467.966 1809.51,467.966 1810.67,467.966 1811.84,467.966 1813,467.966 1814.17,467.966 1815.34,467.966 1816.5,467.966 1817.67,467.966 1818.83,467.966 1820,467.966 1821.16,467.966 1822.33,467.966 1823.5,467.966 1824.66,467.966 1825.83,467.966 1826.99,467.966 1828.16,467.966 1829.33,467.966 1830.49,467.966 1831.66,467.966 1832.82,467.966 1833.99,391.61 1835.15,391.61 1836.32,391.61 1837.49,391.61 1838.65,391.61 1839.82,391.61 1840.98,391.61 1842.15,391.61 1843.31,391.61 1844.48,391.61 1845.65,391.61 1846.81,391.61 1847.98,391.61 1849.14,391.61 1850.31,391.61 1851.47,391.61 1852.64,391.61 1853.81,391.61 1854.97,391.61 1856.14,391.61 1857.3,391.61 1858.47,391.61 1859.64,391.61 1860.8,391.61 1861.97,391.61 1863.13,391.61 1864.3,391.61 1865.46,315.254 1866.63,315.254 1867.8,315.254 1868.96,315.254 1870.13,315.254 1871.29,315.254 1872.46,315.254 1873.62,315.254 1874.79,315.254 1875.96,315.254 1877.12,315.254 1878.29,315.254 1879.45,315.254 1880.62,315.254 1881.78,315.254 1882.95,315.254 1884.12,315.254 1885.28,315.254 1886.45,315.254 1887.61,315.254 1888.78,315.254 1889.95,315.254 1891.11,315.254 1892.28,315.254 1893.44,315.254 1894.61,315.254 1895.77,315.254 1896.94,315.254 1898.11,315.254 1899.27,315.254 1900.44,315.254 1901.6,315.254 1902.77,315.254 1903.93,315.254 1905.1,315.254 1906.27,315.254 1907.43,315.254 1908.6,315.254 1909.76,315.254 1910.93,315.254 1912.09,315.254 1913.26,315.254 1914.43,315.254 1915.59,315.254 1916.76,315.254 1917.92,315.254 1919.09,315.254 1920.26,315.254 1921.42,315.254 1922.59,315.254 1923.75,315.254 1924.92,315.254 1926.08,315.254 1927.25,315.254 1928.42,315.254 1929.58,315.254 1930.75,315.254 1931.91,315.254 1933.08,315.254 1934.24,315.254 1935.41,315.254 1936.58,315.254 1937.74,315.254 1938.91,315.254 1940.07,315.254 1941.24,315.254 1942.41,315.254 1943.57,315.254 1944.74,315.254 1945.9,315.254 1947.07,315.254 1948.23,315.254 1949.4,315.254 1950.57,315.254 1951.73,315.254 1952.9,315.254 1954.06,315.254 1955.23,315.254 1956.39,315.254 1957.56,315.254 1958.73,315.254 1959.89,315.254 1961.06,315.254 1962.22,315.254 1963.39,315.254 1964.55,315.254 1965.72,315.254 1966.89,315.254 1968.05,315.254 1969.22,315.254 1970.38,315.254 1971.55,315.254 1972.72,315.254 1973.88,315.254 1975.05,315.254 1976.21,315.254 1977.38,315.254 1978.54,315.254 1979.71,315.254 1980.88,315.254 1982.04,315.254 1983.21,315.254 1984.37,315.254 1985.54,315.254 1986.7,315.254 1987.87,315.254 1989.04,315.254 1990.2,315.254 1991.37,315.254 1992.53,315.254 1993.7,315.254 1994.86,315.254 1996.03,315.254 1997.2,315.254 1998.36,315.254 1999.53,315.254 2000.69,315.254 2001.86,315.254 2003.03,315.254 2004.19,315.254 2005.36,315.254 2006.52,315.254 2007.69,315.254 2008.85,315.254 2010.02,315.254 2011.19,315.254 2012.35,315.254 2013.52,315.254 2014.68,238.898 2015.85,238.898 2017.01,238.898 2018.18,238.898 2019.35,238.898 2020.51,238.898 2021.68,238.898 2022.84,238.898 2024.01,238.898 2025.17,238.898 2026.34,238.898 2027.51,238.898 2028.67,238.898 2029.84,238.898 2031,238.898 2032.17,238.898 2033.34,238.898 2034.5,238.898 2035.67,238.898 2036.83,238.898 2038,238.898 2039.16,238.898 2040.33,238.898 2041.5,238.898 2042.66,238.898 2043.83,238.898 2044.99,238.898 2046.16,238.898 2047.32,238.898 2048.49,238.898 2049.66,238.898 2050.82,238.898 2051.99,238.898 2053.15,238.898 2054.32,238.898 2055.48,238.898 2056.65,238.898 2057.82,238.898 2058.98,238.898 2060.15,238.898 2061.31,238.898 2062.48,238.898 2063.65,238.898 2064.81,238.898 2065.98,238.898 2067.14,238.898 2068.31,162.542 2069.47,162.542 2070.64,162.542 2071.81,162.542 2072.97,162.542 2074.14,162.542 2075.3,162.542 2076.47,162.542 2077.63,162.542 2078.8,162.542 2079.97,162.542 2081.13,162.542 2082.3,162.542 2083.46,162.542 2084.63,162.542 2085.79,162.542 2086.96,162.542 2088.13,162.542 2089.29,162.542 2090.46,162.542 2091.62,162.542 2092.79,162.542 2093.96,162.542 2095.12,162.542 2096.29,162.542 2097.45,162.542 2098.62,162.542 2099.78,162.542 2100.95,162.542 2102.12,162.542 2103.28,162.542 2104.45,162.542 2105.61,162.542 2106.78,162.542 2107.94,162.542 2109.11,162.542 2110.28,162.542 2111.44,162.542 2112.61,162.542 2113.77,162.542 2114.94,162.542 2116.1,162.542 2117.27,162.542 2118.44,162.542 2119.6,162.542 2120.77,162.542 2121.93,162.542 2123.1,162.542 2124.27,162.542 2125.43,162.542 2126.6,162.542 2127.76,162.542 2128.93,162.542 2130.09,162.542 2131.26,162.542 2132.43,162.542 2133.59,162.542 2134.76,162.542 2135.92,162.542 2137.09,162.542 2138.25,162.542 2139.42,162.542 2140.59,162.542 2141.75,162.542 2142.92,162.542 2144.08,162.542 2145.25,162.542 2146.41,162.542 2147.58,162.542 2148.75,162.542 2149.91,162.542 2151.08,162.542 2152.24,162.542 2153.41,162.542 2154.58,162.542 2155.74,162.542 2156.91,162.542 2158.07,162.542 2159.24,162.542 2160.4,162.542 2161.57,162.542 2162.74,162.542 2163.9,162.542 2165.07,162.542 2166.23,162.542 2167.4,162.542 2168.56,162.542 2169.73,162.542 2170.9,162.542 2172.06,162.542 2173.23,162.542 2174.39,162.542 2175.56,162.542 2176.72,162.542 2177.89,162.542 2179.06,162.542 2180.22,162.542 2181.39,162.542 2182.55,162.542 2183.72,162.542 2184.89,162.542 2186.05,162.542 2187.22,162.542 2188.38,162.542 2189.55,162.542 2190.71,162.542 2191.88,162.542 2193.05,162.542 2194.21,162.542 2195.38,162.542 2196.54,162.542 2197.71,162.542 2198.87,162.542 2200.04,162.542 2201.21,162.542 2202.37,162.542 2203.54,162.542 2204.7,162.542 2205.87,162.542 2207.03,162.542 2208.2,162.542 2209.37,162.542 2210.53,162.542 2211.7,162.542 2212.86,162.542 2214.03,162.542 2215.2,162.542 2216.36,162.542 2217.53,162.542 2218.69,162.542 2219.86,162.542 2221.02,162.542 2222.19,162.542 2223.36,162.542 2224.52,162.542 2225.69,162.542 2226.85,162.542 2228.02,162.542 2229.18,162.542 2230.35,162.542 2231.52,162.542 2232.68,162.542 2233.85,162.542 2235.01,162.542 2236.18,162.542 2237.34,162.542 2238.51,162.542 2239.68,162.542 2240.84,162.542 2242.01,162.542 2243.17,162.542 2244.34,162.542 2245.51,162.542 2246.67,162.542 2247.84,162.542 2249,162.542 2250.17,162.542 2251.33,162.542 2252.5,162.542 2253.67,162.542 2254.83,162.542 2256,162.542 2257.16,162.542 2258.33,162.542 2259.49,162.542 2260.66,162.542 2261.83,162.542 2262.99,162.542 2264.16,162.542 2265.32,162.542 2266.49,162.542 2267.65,162.542 2268.82,162.542 2269.99,162.542 2271.15,162.542 2272.32,162.542 2273.48,162.542 2274.65,162.542 2275.82,162.542 2276.98,162.542 2278.15,162.542 2279.31,162.542 2280.48,162.542 2281.64,162.542 2282.81,162.542 2283.98,162.542 2285.14,162.542 2286.31,162.542 2287.47,162.542 2288.64,162.542 2289.8,162.542 2290.97,162.542 2292.14,162.542 2293.3,162.542 2294.47,162.542 2295.63,162.542 2296.8,162.542 2297.96,162.542 2299.13,162.542 2300.3,162.542 2301.46,162.542 2302.63,162.542 2303.79,162.542 2304.96,162.542 2306.13,162.542 2307.29,162.542 2308.46,162.542 2309.62,162.542 2310.79,162.542 2311.95,162.542 2313.12,162.542 2314.29,162.542 2315.45,162.542 2316.62,162.542 2317.78,162.542 2318.95,162.542 2320.11,162.542 2321.28,162.542 2322.45,162.542 2323.61,86.1857 2324.78,86.1857 2325.94,86.1857 2327.11,86.1857 2328.27,86.1857 2329.44,86.1857 2330.61,86.1857 2331.77,86.1857 2332.94,86.1857 2334.1,86.1857 2335.27,86.1857 2336.44,86.1857 2337.6,86.1857 2338.77,86.1857 2339.93,86.1857 2341.1,86.1857 2342.26,86.1857 2343.43,86.1857 2344.6,86.1857 2345.76,86.1857 2346.93,86.1857 2348.09,86.1857 2349.26,86.1857 2350.42,86.1857 2351.59,86.1857 2352.76,86.1857 "/>
<path clip-path="url(#clip070)" d="M212.753 196.789 L523.229 196.789 L523.229 93.1086 L212.753 93.1086  Z" fill="#ffffff" fill-rule="evenodd" fill-opacity="1"/>
<polyline clip-path="url(#clip070)" style="stroke:#000000; stroke-linecap:round; stroke-linejoin:round; stroke-width:4; stroke-opacity:1; fill:none" points="212.753,196.789 523.229,196.789 523.229,93.1086 212.753,93.1086 212.753,196.789 "/>
<polyline clip-path="url(#clip070)" style="stroke:#009af9; stroke-linecap:round; stroke-linejoin:round; stroke-width:8; stroke-opacity:1; fill:none" points="237.35,144.949 384.937,144.949 "/>
<path clip-path="url(#clip070)" d="M409.535 151.997 L409.535 136.303 L413.794 136.303 L413.794 151.835 Q413.794 155.516 415.229 157.368 Q416.664 159.196 419.535 159.196 Q422.984 159.196 424.974 156.997 Q426.988 154.798 426.988 151.002 L426.988 136.303 L431.247 136.303 L431.247 162.229 L426.988 162.229 L426.988 158.247 Q425.437 160.608 423.377 161.766 Q421.34 162.9 418.632 162.9 Q414.164 162.9 411.849 160.122 Q409.535 157.344 409.535 151.997 M420.252 135.678 L420.252 135.678 Z" fill="#000000" fill-rule="nonzero" fill-opacity="1" /><path clip-path="url(#clip070)" d="M439.627 126.21 L449.442 126.21 L449.442 129.52 L443.886 129.52 L443.886 165.168 L449.442 165.168 L449.442 168.479 L439.627 168.479 L439.627 126.21 Z" fill="#000000" fill-rule="nonzero" fill-opacity="1" /><path clip-path="url(#clip070)" d="M459.928 158.293 L467.567 158.293 L467.567 131.928 L459.257 133.595 L459.257 129.335 L467.52 127.669 L472.196 127.669 L472.196 158.293 L479.835 158.293 L479.835 162.229 L459.928 162.229 L459.928 158.293 Z" fill="#000000" fill-rule="nonzero" fill-opacity="1" /><path clip-path="url(#clip070)" d="M498.631 126.21 L498.631 168.479 L488.817 168.479 L488.817 165.168 L494.349 165.168 L494.349 129.52 L488.817 129.52 L488.817 126.21 L498.631 126.21 Z" fill="#000000" fill-rule="nonzero" fill-opacity="1" /></svg>
