<?xml version="1.0" encoding="utf-8"?>
<svg xmlns="http://www.w3.org/2000/svg" xmlns:xlink="http://www.w3.org/1999/xlink" width="600" height="400" viewBox="0 0 2400 1600">
<defs>
  <clipPath id="clip310">
    <rect x="0" y="0" width="2400" height="1600"/>
  </clipPath>
</defs>
<path clip-path="url(#clip310)" d="M0 1600 L2400 1600 L2400 0 L0 0  Z" fill="#ffffff" fill-rule="evenodd" fill-opacity="1"/>
<defs>
  <clipPath id="clip311">
    <rect x="480" y="0" width="1681" height="1600"/>
  </clipPath>
</defs>
<path clip-path="url(#clip310)" d="M147.478 1423.18 L2352.76 1423.18 L2352.76 47.2441 L147.478 47.2441  Z" fill="#ffffff" fill-rule="evenodd" fill-opacity="1"/>
<defs>
  <clipPath id="clip312">
    <rect x="147" y="47" width="2206" height="1377"/>
  </clipPath>
</defs>
<polyline clip-path="url(#clip312)" style="stroke:#000000; stroke-linecap:round; stroke-linejoin:round; stroke-width:2; stroke-opacity:0.1; fill:none" points="147.478,1423.18 147.478,47.2441 "/>
<polyline clip-path="url(#clip312)" style="stroke:#000000; stroke-linecap:round; stroke-linejoin:round; stroke-width:2; stroke-opacity:0.1; fill:none" points="588.534,1423.18 588.534,47.2441 "/>
<polyline clip-path="url(#clip312)" style="stroke:#000000; stroke-linecap:round; stroke-linejoin:round; stroke-width:2; stroke-opacity:0.1; fill:none" points="1029.59,1423.18 1029.59,47.2441 "/>
<polyline clip-path="url(#clip312)" style="stroke:#000000; stroke-linecap:round; stroke-linejoin:round; stroke-width:2; stroke-opacity:0.1; fill:none" points="1470.64,1423.18 1470.64,47.2441 "/>
<polyline clip-path="url(#clip312)" style="stroke:#000000; stroke-linecap:round; stroke-linejoin:round; stroke-width:2; stroke-opacity:0.1; fill:none" points="1911.7,1423.18 1911.7,47.2441 "/>
<polyline clip-path="url(#clip312)" style="stroke:#000000; stroke-linecap:round; stroke-linejoin:round; stroke-width:2; stroke-opacity:0.1; fill:none" points="2352.76,1423.18 2352.76,47.2441 "/>
<polyline clip-path="url(#clip310)" style="stroke:#000000; stroke-linecap:round; stroke-linejoin:round; stroke-width:4; stroke-opacity:1; fill:none" points="147.478,1423.18 2352.76,1423.18 "/>
<polyline clip-path="url(#clip310)" style="stroke:#000000; stroke-linecap:round; stroke-linejoin:round; stroke-width:4; stroke-opacity:1; fill:none" points="147.478,1423.18 147.478,1404.28 "/>
<polyline clip-path="url(#clip310)" style="stroke:#000000; stroke-linecap:round; stroke-linejoin:round; stroke-width:4; stroke-opacity:1; fill:none" points="588.534,1423.18 588.534,1404.28 "/>
<polyline clip-path="url(#clip310)" style="stroke:#000000; stroke-linecap:round; stroke-linejoin:round; stroke-width:4; stroke-opacity:1; fill:none" points="1029.59,1423.18 1029.59,1404.28 "/>
<polyline clip-path="url(#clip310)" style="stroke:#000000; stroke-linecap:round; stroke-linejoin:round; stroke-width:4; stroke-opacity:1; fill:none" points="1470.64,1423.18 1470.64,1404.28 "/>
<polyline clip-path="url(#clip310)" style="stroke:#000000; stroke-linecap:round; stroke-linejoin:round; stroke-width:4; stroke-opacity:1; fill:none" points="1911.7,1423.18 1911.7,1404.28 "/>
<polyline clip-path="url(#clip310)" style="stroke:#000000; stroke-linecap:round; stroke-linejoin:round; stroke-width:4; stroke-opacity:1; fill:none" points="2352.76,1423.18 2352.76,1404.28 "/>
<path clip-path="url(#clip310)" d="M147.478 1454.1 Q143.867 1454.1 142.038 1457.66 Q140.233 1461.2 140.233 1468.33 Q140.233 1475.44 142.038 1479.01 Q143.867 1482.55 147.478 1482.55 Q151.112 1482.55 152.918 1479.01 Q154.746 1475.44 154.746 1468.33 Q154.746 1461.2 152.918 1457.66 Q151.112 1454.1 147.478 1454.1 M147.478 1450.39 Q153.288 1450.39 156.344 1455 Q159.422 1459.58 159.422 1468.33 Q159.422 1477.06 156.344 1481.67 Q153.288 1486.25 147.478 1486.25 Q141.668 1486.25 138.589 1481.67 Q135.534 1477.06 135.534 1468.33 Q135.534 1459.58 138.589 1455 Q141.668 1450.39 147.478 1450.39 Z" fill="#000000" fill-rule="nonzero" fill-opacity="1" /><path clip-path="url(#clip310)" d="M583.186 1481.64 L599.506 1481.64 L599.506 1485.58 L577.561 1485.58 L577.561 1481.64 Q580.223 1478.89 584.807 1474.26 Q589.413 1469.61 590.594 1468.27 Q592.839 1465.74 593.719 1464.01 Q594.621 1462.25 594.621 1460.56 Q594.621 1457.8 592.677 1456.07 Q590.756 1454.33 587.654 1454.33 Q585.455 1454.33 583.001 1455.09 Q580.571 1455.86 577.793 1457.41 L577.793 1452.69 Q580.617 1451.55 583.071 1450.97 Q585.524 1450.39 587.561 1450.39 Q592.932 1450.39 596.126 1453.08 Q599.32 1455.77 599.32 1460.26 Q599.32 1462.39 598.51 1464.31 Q597.723 1466.2 595.617 1468.8 Q595.038 1469.47 591.936 1472.69 Q588.834 1475.88 583.186 1481.64 Z" fill="#000000" fill-rule="nonzero" fill-opacity="1" /><path clip-path="url(#clip310)" d="M1032.6 1455.09 L1020.79 1473.54 L1032.6 1473.54 L1032.6 1455.09 M1031.37 1451.02 L1037.25 1451.02 L1037.25 1473.54 L1042.18 1473.54 L1042.18 1477.43 L1037.25 1477.43 L1037.25 1485.58 L1032.6 1485.58 L1032.6 1477.43 L1017 1477.43 L1017 1472.92 L1031.37 1451.02 Z" fill="#000000" fill-rule="nonzero" fill-opacity="1" /><path clip-path="url(#clip310)" d="M1471.05 1466.44 Q1467.9 1466.44 1466.05 1468.59 Q1464.22 1470.74 1464.22 1474.49 Q1464.22 1478.22 1466.05 1480.39 Q1467.9 1482.55 1471.05 1482.55 Q1474.2 1482.55 1476.03 1480.39 Q1477.88 1478.22 1477.88 1474.49 Q1477.88 1470.74 1476.03 1468.59 Q1474.2 1466.44 1471.05 1466.44 M1480.33 1451.78 L1480.33 1456.04 Q1478.57 1455.21 1476.77 1454.77 Q1474.98 1454.33 1473.23 1454.33 Q1468.6 1454.33 1466.14 1457.45 Q1463.71 1460.58 1463.36 1466.9 Q1464.73 1464.89 1466.79 1463.82 Q1468.85 1462.73 1471.33 1462.73 Q1476.54 1462.73 1479.55 1465.9 Q1482.58 1469.05 1482.58 1474.49 Q1482.58 1479.82 1479.43 1483.03 Q1476.28 1486.25 1471.05 1486.25 Q1465.05 1486.25 1461.88 1481.67 Q1458.71 1477.06 1458.71 1468.33 Q1458.71 1460.14 1462.6 1455.28 Q1466.49 1450.39 1473.04 1450.39 Q1474.8 1450.39 1476.58 1450.74 Q1478.39 1451.09 1480.33 1451.78 Z" fill="#000000" fill-rule="nonzero" fill-opacity="1" /><path clip-path="url(#clip310)" d="M1911.7 1469.17 Q1908.37 1469.17 1906.45 1470.95 Q1904.55 1472.73 1904.55 1475.86 Q1904.55 1478.98 1906.45 1480.77 Q1908.37 1482.55 1911.7 1482.55 Q1915.03 1482.55 1916.95 1480.77 Q1918.88 1478.96 1918.88 1475.86 Q1918.88 1472.73 1916.95 1470.95 Q1915.06 1469.17 1911.7 1469.17 M1907.02 1467.18 Q1904.02 1466.44 1902.33 1464.38 Q1900.66 1462.32 1900.66 1459.35 Q1900.66 1455.21 1903.6 1452.8 Q1906.56 1450.39 1911.7 1450.39 Q1916.86 1450.39 1919.8 1452.8 Q1922.74 1455.21 1922.74 1459.35 Q1922.74 1462.32 1921.05 1464.38 Q1919.39 1466.44 1916.4 1467.18 Q1919.78 1467.96 1921.65 1470.26 Q1923.55 1472.55 1923.55 1475.86 Q1923.55 1480.88 1920.47 1483.57 Q1917.42 1486.25 1911.7 1486.25 Q1905.98 1486.25 1902.9 1483.57 Q1899.85 1480.88 1899.85 1475.86 Q1899.85 1472.55 1901.75 1470.26 Q1903.64 1467.96 1907.02 1467.18 M1905.31 1459.79 Q1905.31 1462.48 1906.98 1463.98 Q1908.67 1465.49 1911.7 1465.49 Q1914.71 1465.49 1916.4 1463.98 Q1918.11 1462.48 1918.11 1459.79 Q1918.11 1457.11 1916.4 1455.6 Q1914.71 1454.1 1911.7 1454.1 Q1908.67 1454.1 1906.98 1455.6 Q1905.31 1457.11 1905.31 1459.79 Z" fill="#000000" fill-rule="nonzero" fill-opacity="1" /><path clip-path="url(#clip310)" d="M2327.44 1481.64 L2335.08 1481.64 L2335.08 1455.28 L2326.77 1456.95 L2326.77 1452.69 L2335.04 1451.02 L2339.71 1451.02 L2339.71 1481.64 L2347.35 1481.64 L2347.35 1485.58 L2327.44 1485.58 L2327.44 1481.64 Z" fill="#000000" fill-rule="nonzero" fill-opacity="1" /><path clip-path="url(#clip310)" d="M2366.8 1454.1 Q2363.18 1454.1 2361.36 1457.66 Q2359.55 1461.2 2359.55 1468.33 Q2359.55 1475.44 2361.36 1479.01 Q2363.18 1482.55 2366.8 1482.55 Q2370.43 1482.55 2372.23 1479.01 Q2374.06 1475.44 2374.06 1468.33 Q2374.06 1461.2 2372.23 1457.66 Q2370.43 1454.1 2366.8 1454.1 M2366.8 1450.39 Q2372.61 1450.39 2375.66 1455 Q2378.74 1459.58 2378.74 1468.33 Q2378.74 1477.06 2375.66 1481.67 Q2372.61 1486.25 2366.8 1486.25 Q2360.99 1486.25 2357.91 1481.67 Q2354.85 1477.06 2354.85 1468.33 Q2354.85 1459.58 2357.91 1455 Q2360.99 1450.39 2366.8 1450.39 Z" fill="#000000" fill-rule="nonzero" fill-opacity="1" /><path clip-path="url(#clip310)" d="M1249.18 1522.27 L1249.18 1532.4 L1261.24 1532.4 L1261.24 1536.95 L1249.18 1536.95 L1249.18 1556.3 Q1249.18 1560.66 1250.36 1561.9 Q1251.57 1563.14 1255.23 1563.14 L1261.24 1563.14 L1261.24 1568.04 L1255.23 1568.04 Q1248.45 1568.04 1245.87 1565.53 Q1243.29 1562.98 1243.29 1556.3 L1243.29 1536.95 L1238.99 1536.95 L1238.99 1532.4 L1243.29 1532.4 L1243.29 1522.27 L1249.18 1522.27 Z" fill="#000000" fill-rule="nonzero" fill-opacity="1" /><polyline clip-path="url(#clip312)" style="stroke:#000000; stroke-linecap:round; stroke-linejoin:round; stroke-width:2; stroke-opacity:0.1; fill:none" points="147.478,1258.66 2352.76,1258.66 "/>
<polyline clip-path="url(#clip312)" style="stroke:#000000; stroke-linecap:round; stroke-linejoin:round; stroke-width:2; stroke-opacity:0.1; fill:none" points="147.478,1031.12 2352.76,1031.12 "/>
<polyline clip-path="url(#clip312)" style="stroke:#000000; stroke-linecap:round; stroke-linejoin:round; stroke-width:2; stroke-opacity:0.1; fill:none" points="147.478,803.579 2352.76,803.579 "/>
<polyline clip-path="url(#clip312)" style="stroke:#000000; stroke-linecap:round; stroke-linejoin:round; stroke-width:2; stroke-opacity:0.1; fill:none" points="147.478,576.036 2352.76,576.036 "/>
<polyline clip-path="url(#clip312)" style="stroke:#000000; stroke-linecap:round; stroke-linejoin:round; stroke-width:2; stroke-opacity:0.1; fill:none" points="147.478,348.493 2352.76,348.493 "/>
<polyline clip-path="url(#clip312)" style="stroke:#000000; stroke-linecap:round; stroke-linejoin:round; stroke-width:2; stroke-opacity:0.1; fill:none" points="147.478,120.95 2352.76,120.95 "/>
<polyline clip-path="url(#clip310)" style="stroke:#000000; stroke-linecap:round; stroke-linejoin:round; stroke-width:4; stroke-opacity:1; fill:none" points="147.478,1423.18 147.478,47.2441 "/>
<polyline clip-path="url(#clip310)" style="stroke:#000000; stroke-linecap:round; stroke-linejoin:round; stroke-width:4; stroke-opacity:1; fill:none" points="147.478,1258.66 166.376,1258.66 "/>
<polyline clip-path="url(#clip310)" style="stroke:#000000; stroke-linecap:round; stroke-linejoin:round; stroke-width:4; stroke-opacity:1; fill:none" points="147.478,1031.12 166.376,1031.12 "/>
<polyline clip-path="url(#clip310)" style="stroke:#000000; stroke-linecap:round; stroke-linejoin:round; stroke-width:4; stroke-opacity:1; fill:none" points="147.478,803.579 166.376,803.579 "/>
<polyline clip-path="url(#clip310)" style="stroke:#000000; stroke-linecap:round; stroke-linejoin:round; stroke-width:4; stroke-opacity:1; fill:none" points="147.478,576.036 166.376,576.036 "/>
<polyline clip-path="url(#clip310)" style="stroke:#000000; stroke-linecap:round; stroke-linejoin:round; stroke-width:4; stroke-opacity:1; fill:none" points="147.478,348.493 166.376,348.493 "/>
<polyline clip-path="url(#clip310)" style="stroke:#000000; stroke-linecap:round; stroke-linejoin:round; stroke-width:4; stroke-opacity:1; fill:none" points="147.478,120.95 166.376,120.95 "/>
<path clip-path="url(#clip310)" d="M51.3625 1259.12 L81.0383 1259.12 L81.0383 1263.05 L51.3625 1263.05 L51.3625 1259.12 Z" fill="#000000" fill-rule="nonzero" fill-opacity="1" /><path clip-path="url(#clip310)" d="M95.1586 1272.01 L111.478 1272.01 L111.478 1275.94 L89.5336 1275.94 L89.5336 1272.01 Q92.1956 1269.26 96.7789 1264.63 Q101.385 1259.97 102.566 1258.63 Q104.811 1256.11 105.691 1254.37 Q106.594 1252.61 106.594 1250.92 Q106.594 1248.17 104.649 1246.43 Q102.728 1244.7 99.6261 1244.7 Q97.4271 1244.7 94.9734 1245.46 Q92.5428 1246.22 89.7651 1247.77 L89.7651 1243.05 Q92.5891 1241.92 95.0428 1241.34 Q97.4965 1240.76 99.5335 1240.76 Q104.904 1240.76 108.098 1243.45 Q111.293 1246.13 111.293 1250.62 Q111.293 1252.75 110.483 1254.67 Q109.696 1256.57 107.589 1259.16 Q107.01 1259.83 103.909 1263.05 Q100.807 1266.25 95.1586 1272.01 Z" fill="#000000" fill-rule="nonzero" fill-opacity="1" /><path clip-path="url(#clip310)" d="M50.9921 1031.57 L80.6679 1031.57 L80.6679 1035.51 L50.9921 1035.51 L50.9921 1031.57 Z" fill="#000000" fill-rule="nonzero" fill-opacity="1" /><path clip-path="url(#clip310)" d="M91.5706 1044.47 L99.2095 1044.47 L99.2095 1018.1 L90.8993 1019.77 L90.8993 1015.51 L99.1632 1013.84 L103.839 1013.84 L103.839 1044.47 L111.478 1044.47 L111.478 1048.4 L91.5706 1048.4 L91.5706 1044.47 Z" fill="#000000" fill-rule="nonzero" fill-opacity="1" /><path clip-path="url(#clip310)" d="M99.5335 789.378 Q95.9224 789.378 94.0937 792.943 Q92.2882 796.484 92.2882 803.614 Q92.2882 810.72 94.0937 814.285 Q95.9224 817.827 99.5335 817.827 Q103.168 817.827 104.973 814.285 Q106.802 810.72 106.802 803.614 Q106.802 796.484 104.973 792.943 Q103.168 789.378 99.5335 789.378 M99.5335 785.674 Q105.344 785.674 108.399 790.281 Q111.478 794.864 111.478 803.614 Q111.478 812.341 108.399 816.947 Q105.344 821.53 99.5335 821.53 Q93.7234 821.53 90.6447 816.947 Q87.5892 812.341 87.5892 803.614 Q87.5892 794.864 90.6447 790.281 Q93.7234 785.674 99.5335 785.674 Z" fill="#000000" fill-rule="nonzero" fill-opacity="1" /><path clip-path="url(#clip310)" d="M91.5706 589.381 L99.2095 589.381 L99.2095 563.015 L90.8993 564.682 L90.8993 560.423 L99.1632 558.756 L103.839 558.756 L103.839 589.381 L111.478 589.381 L111.478 593.316 L91.5706 593.316 L91.5706 589.381 Z" fill="#000000" fill-rule="nonzero" fill-opacity="1" /><path clip-path="url(#clip310)" d="M95.1586 361.838 L111.478 361.838 L111.478 365.773 L89.5336 365.773 L89.5336 361.838 Q92.1956 359.084 96.7789 354.454 Q101.385 349.801 102.566 348.459 Q104.811 345.936 105.691 344.199 Q106.594 342.44 106.594 340.75 Q106.594 337.996 104.649 336.26 Q102.728 334.524 99.6261 334.524 Q97.4271 334.524 94.9734 335.287 Q92.5428 336.051 89.7651 337.602 L89.7651 332.88 Q92.5891 331.746 95.0428 331.167 Q97.4965 330.588 99.5335 330.588 Q104.904 330.588 108.098 333.274 Q111.293 335.959 111.293 340.449 Q111.293 342.579 110.483 344.5 Q109.696 346.398 107.589 348.991 Q107.01 349.662 103.909 352.88 Q100.807 356.074 95.1586 361.838 Z" fill="#000000" fill-rule="nonzero" fill-opacity="1" /><path clip-path="url(#clip310)" d="M104.348 119.596 Q107.705 120.314 109.58 122.582 Q111.478 124.851 111.478 128.184 Q111.478 133.3 107.959 136.101 Q104.441 138.902 97.9595 138.902 Q95.7836 138.902 93.4688 138.462 Q91.1771 138.045 88.7234 137.189 L88.7234 132.675 Q90.6678 133.809 92.9826 134.388 Q95.2974 134.967 97.8206 134.967 Q102.219 134.967 104.51 133.231 Q106.825 131.494 106.825 128.184 Q106.825 125.129 104.672 123.416 Q102.543 121.68 98.7234 121.68 L94.6956 121.68 L94.6956 117.837 L98.9085 117.837 Q102.358 117.837 104.186 116.471 Q106.015 115.082 106.015 112.49 Q106.015 109.828 104.117 108.416 Q102.242 106.981 98.7234 106.981 Q96.8021 106.981 94.603 107.397 Q92.4039 107.814 89.7651 108.694 L89.7651 104.527 Q92.4271 103.786 94.7419 103.416 Q97.0798 103.045 99.14 103.045 Q104.464 103.045 107.566 105.476 Q110.668 107.883 110.668 112.004 Q110.668 114.874 109.024 116.865 Q107.381 118.832 104.348 119.596 Z" fill="#000000" fill-rule="nonzero" fill-opacity="1" /><polyline clip-path="url(#clip312)" style="stroke:#009af9; stroke-linecap:round; stroke-linejoin:round; stroke-width:8; stroke-opacity:1; fill:none" points="147.478,758.071 149.685,757.613 151.893,757.15 154.1,756.683 156.308,756.211 158.515,755.735 160.723,755.254 162.93,754.767 165.138,754.276 167.345,753.78 169.553,753.279 171.76,752.773 173.968,752.262 176.175,751.746 178.383,751.224 180.59,750.698 182.798,750.166 185.005,749.628 187.213,749.086 189.42,748.537 191.628,747.984 193.835,747.424 196.043,746.859 198.25,746.289 200.458,745.712 202.665,745.13 204.873,744.542 207.08,743.948 209.288,743.349 211.495,742.743 213.702,742.131 215.91,741.512 218.117,740.888 220.325,740.257 222.532,739.62 224.74,738.977 226.947,738.327 229.155,737.67 231.362,737.007 233.57,736.338 235.777,735.661 237.985,734.978 240.192,734.288 242.4,733.591 244.607,732.886 246.815,732.175 249.022,731.457 251.23,730.731 253.437,729.999 255.645,729.258 257.852,728.511 260.06,727.755 262.267,726.993 264.475,726.222 266.682,725.444 268.89,724.658 271.097,723.864 273.305,723.062 275.512,722.252 277.72,721.434 279.927,720.607 282.135,719.773 284.342,718.929 286.549,718.078 288.757,717.218 290.964,716.349 293.172,715.471 295.379,714.585 297.587,713.69 299.794,712.785 302.002,711.872 304.209,710.949 306.417,710.017 308.624,709.076 310.832,708.125 313.039,707.165 315.247,706.195 317.454,705.215 319.662,704.226 321.869,703.226 324.077,702.217 326.284,701.197 328.492,700.167 330.699,699.127 332.907,698.076 335.114,697.014 337.322,695.942 339.529,694.86 341.737,693.766 343.944,692.661 346.152,691.545 348.359,690.418 350.567,689.28 352.774,688.13 354.982,686.968 357.189,685.795 359.397,684.61 361.604,683.414 363.811,682.205 366.019,680.984 368.226,679.75 370.434,678.505 372.641,677.246 374.849,675.975 377.056,674.692 379.264,673.395 381.471,672.085 383.679,670.762 385.886,669.426 388.094,668.077 390.301,666.713 392.509,665.336 394.716,663.946 396.924,662.541 399.131,661.122 401.339,659.689 403.546,658.241 405.754,656.779 407.961,655.302 410.169,653.81 412.376,652.304 414.584,650.782 416.791,649.245 418.999,647.692 421.206,646.124 423.414,644.54 425.621,642.94 427.829,641.323 430.036,639.691 432.244,638.042 434.451,636.377 436.659,634.695 438.866,632.996 441.073,631.28 443.281,629.547 445.488,627.796 447.696,626.028 449.903,624.241 452.111,622.437 454.318,620.615 456.526,618.774 458.733,616.915 460.941,615.037 463.148,613.141 465.356,611.225 467.563,609.29 469.771,607.335 471.978,605.361 474.186,603.367 476.393,601.353 478.601,599.318 480.808,597.264 483.016,595.188 485.223,593.091 487.431,590.974 489.638,588.835 491.846,586.675 494.053,584.492 496.261,582.288 498.468,580.062 500.676,577.813 502.883,575.542 505.091,573.248 507.298,570.93 509.506,568.59 511.713,566.226 513.921,563.838 516.128,561.426 518.335,558.99 520.543,556.529 522.75,554.044 524.958,551.533 527.165,548.997 529.373,546.436 531.58,543.849 533.788,541.236 535.995,538.597 538.203,535.931 540.41,533.238 542.618,530.519 544.825,527.771 547.033,524.997 549.24,522.194 551.448,519.363 553.655,516.504 555.863,513.616 558.07,510.699 560.278,507.753 562.485,504.777 564.693,501.771 566.9,498.735 569.108,495.669 571.315,492.571 573.523,489.442 575.73,486.282 577.938,483.09 580.145,479.867 582.353,476.61 584.56,473.321 586.768,469.999 588.975,466.643 591.182,463.253 593.39,459.83 595.597,456.372 597.805,452.879 600.012,449.351 602.22,445.787 604.427,442.188 606.635,438.552 608.842,434.88 611.05,431.17 613.257,427.424 615.465,423.639 617.672,419.817 619.88,415.956 622.087,412.056 624.295,408.117 626.502,404.138 628.71,400.12 630.917,396.061 633.125,391.961 635.332,387.819 637.54,383.636 639.747,379.411 641.955,375.144 644.162,370.834 646.37,366.48 648.577,362.083 650.785,357.641 652.992,353.155 655.2,348.623 657.407,344.046 659.615,339.423 661.822,334.754 664.03,330.037 666.237,325.273 668.444,320.461 670.652,315.601 672.859,310.692 675.067,305.733 677.274,300.725 679.482,549.622 681.689,547.067 683.897,544.487 686.104,541.88 688.312,539.247 690.519,536.588 692.727,533.902 694.934,531.189 697.142,528.449 699.349,525.681 701.557,522.885 703.764,661.82 705.972,660.394 708.179,658.953 710.387,657.498 712.594,656.029 714.802,654.544 717.009,728.312 719.217,727.555 721.424,726.79 723.632,726.017 725.839,725.237 728.047,724.449 730.254,723.653 732.462,722.849 734.669,722.036 736.877,721.216 739.084,720.387 741.292,719.55 743.499,718.705 745.706,717.851 747.914,716.989 750.121,716.118 752.329,715.238 754.536,714.349 756.744,713.452 758.951,712.545 761.159,711.629 763.366,710.704 765.574,709.77 767.781,708.826 769.989,707.873 772.196,706.91 774.404,705.938 776.611,704.956 778.819,703.964 781.026,702.962 783.234,701.949 785.441,700.927 787.649,699.894 789.856,698.851 792.064,697.798 794.271,696.734 796.479,695.659 798.686,694.573 800.894,693.477 803.101,692.369 805.309,691.25 807.516,690.12 809.724,688.979 811.931,687.826 814.139,686.661 816.346,685.485 818.553,684.297 820.761,683.097 822.968,681.884 825.176,680.66 827.383,679.423 829.591,678.174 831.798,676.913 834.006,675.638 836.213,674.351 838.421,673.051 840.628,671.738 842.836,670.411 845.043,669.071 847.251,667.718 849.458,666.351 851.666,664.971 853.873,663.576 856.081,662.168 858.288,660.745 860.496,659.308 862.703,657.857 864.911,656.391 867.118,654.91 869.326,653.414 871.533,651.903 873.741,650.377 875.948,648.836 878.156,647.279 880.363,645.707 882.571,644.119 884.778,642.515 886.986,640.894 889.193,639.258 891.401,637.605 893.608,635.935 895.815,634.249 898.023,632.545 900.23,630.825 902.438,629.087 904.645,627.331 906.853,625.559 909.06,623.768 911.268,621.959 913.475,620.132 915.683,618.287 917.89,616.423 920.098,614.54 922.305,612.638 924.513,610.717 926.72,608.777 928.928,606.818 931.135,604.838 933.343,602.839 935.55,600.819 937.758,598.78 939.965,596.719 942.173,594.638 944.38,592.536 946.588,590.413 948.795,588.268 951.003,586.102 953.21,583.914 955.418,581.704 957.625,579.472 959.833,577.217 962.04,574.94 964.248,572.64 966.455,570.316 968.663,567.969 970.87,565.599 973.077,563.204 975.285,560.786 977.492,558.343 979.7,555.876 981.907,553.384 984.115,550.867 986.322,675.956 988.53,674.672 990.737,673.375 992.945,672.065 995.152,670.742 997.36,669.405 999.567,668.056 1001.77,666.692 1003.98,665.315 1006.19,663.924 1008.4,662.519 1010.6,661.1 1012.81,659.667 1015.02,658.219 1017.23,656.757 1019.43,655.279 1021.64,653.788 1023.85,652.281 1026.06,650.758 1028.26,649.221 1030.47,647.668 1032.68,646.1 1034.89,644.515 1037.09,723.247 1039.3,722.439 1041.51,721.623 1043.72,720.798 1045.92,719.965 1048.13,719.124 1050.34,718.275 1052.55,717.416 1054.75,716.549 1056.96,715.674 1059.17,714.789 1061.38,713.896 1063.58,712.994 1065.79,712.083 1068,711.162 1070.21,710.232 1072.41,709.293 1074.62,708.345 1076.83,707.387 1079.04,706.419 1081.24,705.442 1083.45,704.455 1085.66,703.458 1087.87,702.451 1090.07,701.434 1092.28,700.406 1094.49,699.368 1096.7,698.32 1098.9,697.261 1101.11,696.192 1103.32,695.112 1105.53,694.021 1107.73,692.919 1109.94,691.806 1112.15,690.682 1114.36,689.546 1116.56,688.399 1118.77,687.241 1120.98,686.07 1123.19,684.888 1125.39,683.695 1127.6,682.489 1129.81,681.271 1132.02,680.04 1134.22,678.798 1136.43,677.542 1138.64,676.274 1140.85,674.994 1143.05,673.7 1145.26,672.394 1147.47,671.074 1149.68,669.741 1151.88,668.394 1154.09,667.034 1156.3,665.66 1158.51,664.273 1160.71,662.871 1162.92,661.455 1165.13,660.025 1167.34,658.581 1169.54,657.122 1171.75,655.648 1173.96,654.16 1176.17,652.656 1178.37,651.138 1180.58,649.604 1182.79,648.054 1185,646.489 1187.2,644.909 1189.41,643.312 1191.62,641.7 1193.83,640.071 1196.03,638.426 1198.24,636.764 1200.45,635.086 1202.66,633.391 1204.86,631.679 1207.07,629.949 1209.28,628.202 1211.49,626.438 1213.69,624.656 1215.9,622.855 1218.11,621.037 1220.32,619.2 1222.52,617.345 1224.73,615.472 1226.94,613.579 1229.15,611.667 1231.35,609.737 1233.56,607.787 1235.77,605.817 1237.98,603.828 1240.18,601.818 1242.39,599.789 1244.6,597.739 1246.81,595.668 1249.01,593.577 1251.22,591.465 1253.43,589.332 1255.64,587.177 1257.84,585 1260.05,582.802 1262.26,580.582 1264.47,578.339 1266.67,576.074 1268.88,573.786 1271.09,571.476 1273.3,569.142 1275.5,566.784 1277.71,564.403 1279.92,561.998 1282.13,559.569 1284.33,557.115 1286.54,554.637 1288.75,552.133 1290.96,549.605 1293.16,547.051 1295.37,544.471 1297.58,541.865 1299.79,539.234 1301.99,536.575 1304.2,533.89 1306.41,531.178 1308.62,528.438 1310.82,525.671 1313.03,522.876 1315.24,520.053 1317.45,517.201 1319.65,514.32 1321.86,511.411 1324.07,508.472 1326.28,505.503 1328.48,502.505 1330.69,499.476 1332.9,496.416 1335.11,493.326 1337.31,490.205 1339.52,487.052 1341.73,483.867 1343.94,480.65 1346.14,477.401 1348.35,474.119 1350.56,470.803 1352.76,467.455 1354.97,464.072 1357.18,460.656 1359.39,457.205 1361.59,453.719 1363.8,450.198 1366.01,446.642 1368.22,443.049 1370.42,439.421 1372.63,435.756 1374.84,432.054 1377.05,428.315 1379.25,424.538 1381.46,420.724 1383.67,416.871 1385.88,412.979 1388.08,409.048 1390.29,405.078 1392.5,401.068 1394.71,397.018 1396.91,392.927 1399.12,388.795 1401.33,384.622 1403.54,380.407 1405.74,376.15 1407.95,371.85 1410.16,367.506 1412.37,363.119 1414.57,358.688 1416.78,354.212 1418.99,349.691 1421.2,345.125 1423.4,340.513 1425.61,335.854 1427.82,331.149 1430.03,326.396 1432.23,321.596 1434.44,316.747 1436.65,311.849 1438.86,306.902 1441.06,301.906 1443.27,296.859 1445.48,291.761 1447.69,286.612 1449.89,281.412 1452.1,276.159 1454.31,270.853 1456.52,265.493 1458.72,260.08 1460.93,254.613 1463.14,249.09 1465.35,243.512 1467.55,237.877 1469.76,232.186 1471.97,226.438 1474.18,220.631 1476.38,214.767 1478.59,208.843 1480.8,202.86 1483.01,196.816 1485.21,190.712 1487.42,184.546 1489.63,178.319 1491.84,172.028 1494.04,165.674 1496.25,159.257 1498.46,152.775 1500.67,146.227 1502.87,471.624 1505.08,468.284 1507.29,464.911 1509.5,461.504 1511.7,458.063 1513.91,454.587 1516.12,451.076 1518.33,447.529 1520.53,443.947 1522.74,440.329 1524.95,436.675 1527.16,432.984 1529.36,429.255 1531.57,425.49 1533.78,421.686 1535.99,417.844 1538.19,413.964 1540.4,410.044 1542.61,406.085 1544.82,402.086 1547.02,398.047 1549.23,393.968 1551.44,389.847 1553.65,385.685 1555.85,381.481 1558.06,377.235 1560.27,372.946 1562.48,368.613 1564.68,364.238 1566.89,359.818 1569.1,355.353 1571.31,350.844 1573.51,346.29 1575.72,341.689 1577.93,337.042 1580.14,332.349 1582.34,327.608 1584.55,322.819 1586.76,317.983 1588.97,313.097 1591.17,308.163 1593.38,303.179 1595.59,298.144 1597.8,293.059 1600,287.923 1602.21,282.736 1604.42,277.496 1606.63,272.203 1608.83,535.243 1611.04,532.543 1613.25,529.817 1615.46,527.063 1617.66,524.281 1619.87,521.471 1622.08,518.633 1624.29,515.766 1626.49,512.871 1628.7,509.946 1630.91,506.992 1633.12,504.008 1635.32,500.995 1637.53,497.951 1639.74,494.876 1641.95,491.77 1644.15,488.633 1646.36,485.465 1648.57,482.265 1650.78,479.032 1652.98,475.767 1655.19,472.469 1657.4,469.138 1659.61,465.774 1661.81,462.375 1664.02,458.943 1666.23,455.475 1668.44,451.973 1670.64,626.011 1672.85,624.224 1675.06,622.42 1677.27,620.597 1679.47,618.756 1681.68,616.896 1683.89,615.018 1686.1,613.121 1688.3,611.205 1690.51,609.269 1692.72,607.314 1694.93,605.34 1697.13,603.345 1699.34,601.331 1701.55,599.296 1703.76,597.241 1705.96,595.166 1708.17,593.069 1710.38,590.952 1712.59,588.813 1714.79,586.653 1717,584.471 1719.21,582.267 1721.42,580.041 1723.62,577.793 1725.83,575.522 1728.04,573.229 1730.25,570.912 1732.45,568.572 1734.66,566.209 1736.87,563.822 1739.07,561.411 1741.28,558.976 1743.49,556.516 1745.7,554.031 1747.9,551.522 1750.11,548.987 1752.32,546.427 1754.53,543.841 1756.73,541.229 1758.94,538.591 1761.15,535.926 1763.36,533.234 1765.56,530.515 1767.77,527.769 1769.98,524.995 1772.19,522.193 1774.39,519.363 1776.6,516.505 1778.81,513.617 1781.02,510.701 1783.22,507.755 1785.43,504.779 1787.64,501.773 1789.85,498.737 1792.05,495.671 1794.26,492.573 1796.47,489.444 1798.68,486.284 1800.88,483.092 1803.09,479.867 1805.3,476.61 1807.51,473.32 1809.71,469.997 1811.92,466.64 1814.13,463.25 1816.34,459.825 1818.54,456.366 1820.75,452.872 1822.96,449.343 1825.17,445.778 1827.37,442.177 1829.58,438.54 1831.79,434.867 1834,431.156 1836.2,427.408 1838.41,423.622 1840.62,419.798 1842.83,415.936 1845.03,412.035 1847.24,408.095 1849.45,404.115 1851.66,400.095 1853.86,396.035 1856.07,391.934 1858.28,387.792 1860.49,383.609 1862.69,379.383 1864.9,375.116 1867.11,370.805 1869.32,366.451 1871.52,362.054 1873.73,357.612 1875.94,353.125 1878.15,348.593 1880.35,344.016 1882.56,339.393 1884.77,334.723 1886.98,330.006 1889.18,325.242 1891.39,320.43 1893.6,315.569 1895.81,310.66 1898.01,305.701 1900.22,300.692 1902.43,295.633 1904.64,290.523 1906.84,285.362 1909.05,280.148 1911.26,274.883 1913.47,269.564 1915.67,264.192 1917.88,258.766 1920.09,253.285 1922.3,247.749 1924.5,242.157 1926.71,236.509 1928.92,230.804 1931.13,225.042 1933.33,219.222 1935.54,213.343 1937.75,207.405 1939.96,201.407 1942.16,195.349 1944.37,189.23 1946.58,183.049 1948.79,176.807 1950.99,170.501 1953.2,164.132 1955.41,157.699 1957.62,151.201 1959.82,144.638 1962.03,138.008 1964.24,131.312 1966.45,124.549 1968.65,460.696 1970.86,457.246 1973.07,453.762 1975.28,450.243 1977.48,446.688 1979.69,443.098 1981.9,439.471 1984.11,435.808 1986.31,432.108 1988.52,428.371 1990.73,424.597 1992.94,420.784 1995.14,416.933 1997.35,608.308 1999.56,606.344 2001.77,604.359 2003.97,602.355 2006.18,600.33 2008.39,598.285 2010.6,596.22 2012.8,594.133 2015.01,592.026 2017.22,589.897 2019.43,587.747 2021.63,585.576 2023.84,583.383 2026.05,581.167 2028.26,578.93 2030.46,576.67 2032.67,574.387 2034.88,572.082 2037.09,569.753 2039.29,567.401 2041.5,565.026 2043.71,562.626 2045.92,560.203 2048.12,557.756 2050.33,555.283 2052.54,552.787 2054.75,550.265 2056.95,547.717 2059.16,545.145 2061.37,542.546 2063.58,539.921 2065.78,537.271 2067.99,534.593 2070.2,531.889 2072.41,529.157 2074.61,526.398 2076.82,523.611 2079.03,520.796 2081.24,517.953 2083.44,515.082 2085.65,512.181 2087.86,509.252 2090.07,506.293 2092.27,503.304 2094.48,500.285 2096.69,497.235 2098.9,494.155 2101.1,491.044 2103.31,487.902 2105.52,484.727 2107.73,481.521 2109.93,478.283 2112.14,475.011 2114.35,471.707 2116.55,468.37 2118.76,464.999 2120.97,461.593 2123.18,458.154 2125.38,454.679 2127.59,451.17 2129.8,447.625 2132.01,444.045 2134.21,440.428 2136.42,436.774 2138.63,433.084 2140.84,429.357 2143.04,425.592 2145.25,421.788 2147.46,417.947 2149.67,414.066 2151.87,410.147 2154.08,406.188 2156.29,402.188 2158.5,398.149 2160.7,394.069 2162.91,389.947 2165.12,385.784 2167.33,381.579 2169.53,377.332 2171.74,373.041 2173.95,368.708 2176.16,364.331 2178.36,359.909 2180.57,355.444 2182.78,350.933 2184.99,346.377 2187.19,341.775 2189.4,337.126 2191.61,332.431 2193.82,327.689 2196.02,322.899 2198.23,318.061 2200.44,313.175 2202.65,308.24 2204.85,303.255 2207.06,298.22 2209.27,293.135 2211.48,287.999 2213.68,282.812 2215.89,277.572 2218.1,272.281 2220.31,266.936 2222.51,261.537 2224.72,256.084 2226.93,250.576 2229.14,245.012 2231.34,239.393 2233.55,233.717 2235.76,227.984 2237.97,222.193 2240.17,216.345 2242.38,210.437 2244.59,204.47 2246.8,198.442 2249,192.355 2251.21,186.206 2253.42,179.995 2255.63,173.721 2257.83,167.385 2260.04,160.985 2262.25,154.52 2264.46,147.99 2266.66,141.395 2268.87,134.733 2271.08,128.004 2273.29,121.208 2275.49,114.343 2277.7,107.409 2279.91,100.405 2282.12,93.331 2284.32,86.1857 2286.53,441.278 2288.74,437.633 2290.95,433.951 2293.15,430.233 2295.36,426.477 2297.57,422.683 2299.78,418.851 2301.98,414.98 2304.19,411.071 2306.4,407.122 2308.61,403.134 2310.81,399.105 2313.02,395.036 2315.23,390.926 2317.44,386.775 2319.64,382.582 2321.85,378.346 2324.06,374.068 2326.27,369.747 2328.47,365.383 2330.68,360.975 2332.89,356.522 2335.1,352.024 2337.3,347.481 2339.51,342.893 2341.72,338.258 2343.93,333.577 2346.13,328.849 2348.34,324.073 2350.55,319.249 2352.76,314.376 "/>
<polyline clip-path="url(#clip312)" style="stroke:#e26f46; stroke-linecap:round; stroke-linejoin:round; stroke-width:8; stroke-opacity:1; fill:none" points="147.478,1261.2 149.685,1260.74 151.893,1260.28 154.1,1259.81 156.308,1259.34 158.515,1258.86 160.723,1258.38 162.93,1257.9 165.138,1257.41 167.345,1256.91 169.553,1256.41 171.76,1255.9 173.968,1255.39 176.175,1254.88 178.383,1254.35 180.59,1253.83 182.798,1253.3 185.005,1252.76 187.213,1252.22 189.42,1251.67 191.628,1251.11 193.835,1250.55 196.043,1249.99 198.25,1249.42 200.458,1248.84 202.665,1248.26 204.873,1247.67 207.08,1247.08 209.288,1246.48 211.495,1245.87 213.702,1245.26 215.91,1244.64 218.117,1244.02 220.325,1243.39 222.532,1242.75 224.74,1242.11 226.947,1241.46 229.155,1240.8 231.362,1240.14 233.57,1239.47 235.777,1238.79 237.985,1238.11 240.192,1237.42 242.4,1236.72 244.607,1236.02 246.815,1235.31 249.022,1234.59 251.23,1233.86 253.437,1233.13 255.645,1232.39 257.852,1231.64 260.06,1230.89 262.267,1230.12 264.475,1229.35 266.682,1228.57 268.89,1227.79 271.097,1226.99 273.305,1226.19 275.512,1225.38 277.72,1224.56 279.927,1223.74 282.135,1222.9 284.342,1222.06 286.549,1221.21 288.757,1220.35 290.964,1219.48 293.172,1218.6 295.379,1217.72 297.587,1216.82 299.794,1215.92 302.002,1215 304.209,1214.08 306.417,1213.15 308.624,1212.21 310.832,1211.26 313.039,1210.3 315.247,1209.33 317.454,1208.35 319.662,1207.36 321.869,1206.36 324.077,1205.35 326.284,1204.33 328.492,1203.3 330.699,1202.26 332.907,1201.21 335.114,1200.14 337.322,1199.07 339.529,1197.99 341.737,1196.9 343.944,1195.79 346.152,1194.68 348.359,1193.55 350.567,1192.41 352.774,1191.26 354.982,1190.1 357.189,1188.93 359.397,1187.74 361.604,1186.54 363.811,1185.33 366.019,1184.11 368.226,1182.88 370.434,1181.63 372.641,1180.38 374.849,1179.11 377.056,1177.82 379.264,1176.53 381.471,1175.22 383.679,1173.89 385.886,1172.56 388.094,1171.21 390.301,1169.84 392.509,1168.47 394.716,1167.08 396.924,1165.67 399.131,1164.25 401.339,1162.82 403.546,1161.37 405.754,1159.91 407.961,1158.43 410.169,1156.94 412.376,1155.43 414.584,1153.91 416.791,1152.37 418.999,1150.82 421.206,1149.25 423.414,1147.67 425.621,1146.07 427.829,1144.45 430.036,1142.82 432.244,1141.17 434.451,1139.51 436.659,1137.83 438.866,1136.13 441.073,1134.41 443.281,1132.68 445.488,1130.93 447.696,1129.16 449.903,1127.37 452.111,1125.57 454.318,1123.75 456.526,1121.9 458.733,1120.05 460.941,1118.17 463.148,1116.27 465.356,1114.36 467.563,1112.42 469.771,1110.47 471.978,1108.49 474.186,1106.5 476.393,1104.48 478.601,1102.45 480.808,1100.39 483.016,1098.32 485.223,1096.22 487.431,1094.1 489.638,1091.97 491.846,1089.8 494.053,1087.62 496.261,1085.42 498.468,1083.19 500.676,1080.94 502.883,1078.67 505.091,1076.38 507.298,1074.06 509.506,1071.72 511.713,1069.36 513.921,1066.97 516.128,1064.56 518.335,1062.12 520.543,1059.66 522.75,1057.17 524.958,1054.66 527.165,1052.13 529.373,1049.57 531.58,1046.98 533.788,1044.37 535.995,1041.73 538.203,1039.06 540.41,1036.37 542.618,1033.65 544.825,1030.9 547.033,1028.13 549.24,1025.32 551.448,1022.49 553.655,1019.63 555.863,1016.75 558.07,1013.83 560.278,1010.88 562.485,1007.91 564.693,1004.9 566.9,1001.87 569.108,998.799 571.315,995.701 573.523,992.573 575.73,989.412 577.938,986.221 580.145,982.997 582.353,979.74 584.56,976.451 586.768,973.129 588.975,969.773 591.182,966.383 593.39,962.96 595.597,959.502 597.805,956.009 600.012,952.481 602.22,948.917 604.427,945.318 606.635,941.682 608.842,938.01 611.05,934.3 613.257,930.554 615.465,926.77 617.672,922.947 619.88,919.086 622.087,915.186 624.295,911.247 626.502,907.269 628.71,903.25 630.917,899.191 633.125,895.091 635.332,890.949 637.54,886.767 639.747,882.542 641.955,878.274 644.162,873.964 646.37,869.61 648.577,865.213 650.785,860.771 652.992,856.285 655.2,851.753 657.407,847.176 659.615,842.553 661.822,837.884 664.03,833.167 666.237,828.403 668.444,823.592 670.652,818.731 672.859,813.822 675.067,808.863 677.274,803.855 679.482,832.067 681.689,829.512 683.897,826.932 686.104,824.325 688.312,821.692 690.519,819.033 692.727,816.347 694.934,813.634 697.142,810.894 699.349,808.126 701.557,805.33 703.764,811.311 705.972,809.885 708.179,808.445 710.387,806.99 712.594,805.52 714.802,804.036 717.009,983.238 719.217,982.48 721.424,981.715 723.632,980.943 725.839,980.163 728.047,979.374 730.254,978.578 732.462,977.774 734.669,976.962 736.877,976.142 739.084,975.313 741.292,974.476 743.499,973.631 745.706,972.777 747.914,971.915 750.121,971.043 752.329,970.164 754.536,969.275 756.744,968.377 758.951,967.471 761.159,966.555 763.366,965.63 765.574,964.696 767.781,963.752 769.989,962.799 772.196,961.836 774.404,960.864 776.611,959.881 778.819,958.889 781.026,957.887 783.234,956.875 785.441,955.853 787.649,954.82 789.856,953.777 792.064,952.724 794.271,951.659 796.479,950.585 798.686,949.499 800.894,948.402 803.101,947.295 805.309,946.176 807.516,945.046 809.724,943.904 811.931,942.751 814.139,941.587 816.346,940.411 818.553,939.222 820.761,938.022 822.968,936.81 825.176,935.586 827.383,934.349 829.591,933.1 831.798,931.838 834.006,930.564 836.213,929.277 838.421,927.976 840.628,926.663 842.836,925.337 845.043,923.997 847.251,922.644 849.458,921.277 851.666,919.896 853.873,918.502 856.081,917.093 858.288,915.671 860.496,914.234 862.703,912.782 864.911,911.316 867.118,909.835 869.326,908.34 871.533,906.829 873.741,905.303 875.948,903.762 878.156,902.205 880.363,900.633 882.571,899.044 884.778,897.44 886.986,895.82 889.193,894.183 891.401,892.53 893.608,890.861 895.815,889.174 898.023,887.471 900.23,885.75 902.438,884.012 904.645,882.257 906.853,880.484 909.06,878.693 911.268,876.885 913.475,875.058 915.683,873.212 917.89,871.348 920.098,869.466 922.305,867.564 924.513,865.643 926.72,863.703 928.928,861.743 931.135,859.764 933.343,857.765 935.55,855.745 937.758,853.705 939.965,851.645 942.173,849.564 944.38,847.462 946.588,845.339 948.795,843.194 951.003,841.028 953.21,838.84 955.418,836.63 957.625,834.398 959.833,832.143 962.04,829.866 964.248,827.565 966.455,825.242 968.663,822.895 970.87,820.524 973.077,818.13 975.285,815.712 977.492,813.269 979.7,810.802 981.907,808.31 984.115,805.793 986.322,835.542 988.53,834.259 990.737,832.962 992.945,831.652 995.152,830.329 997.36,828.992 999.567,827.642 1001.77,826.279 1003.98,824.902 1006.19,823.511 1008.4,822.106 1010.6,820.687 1012.81,819.254 1015.02,817.806 1017.23,816.343 1019.43,814.866 1021.64,813.374 1023.85,811.867 1026.06,810.345 1028.26,808.808 1030.47,807.255 1032.68,805.687 1034.89,804.102 1037.09,1384.24 1039.3,1383.43 1041.51,1382.61 1043.72,1381.79 1045.92,1380.96 1048.13,1380.12 1050.34,1379.27 1052.55,1378.41 1054.75,1377.54 1056.96,1376.66 1059.17,1375.78 1061.38,1374.89 1063.58,1373.98 1065.79,1373.07 1068,1372.15 1070.21,1371.22 1072.41,1370.28 1074.62,1369.34 1076.83,1368.38 1079.04,1367.41 1081.24,1366.43 1083.45,1365.45 1085.66,1364.45 1087.87,1363.44 1090.07,1362.42 1092.28,1361.4 1094.49,1360.36 1096.7,1359.31 1098.9,1358.25 1101.11,1357.18 1103.32,1356.1 1105.53,1355.01 1107.73,1353.91 1109.94,1352.8 1112.15,1351.67 1114.36,1350.54 1116.56,1349.39 1118.77,1348.23 1120.98,1347.06 1123.19,1345.88 1125.39,1344.69 1127.6,1343.48 1129.81,1342.26 1132.02,1341.03 1134.22,1339.79 1136.43,1338.53 1138.64,1337.27 1140.85,1335.98 1143.05,1334.69 1145.26,1333.38 1147.47,1332.06 1149.68,1330.73 1151.88,1329.39 1154.09,1328.02 1156.3,1326.65 1158.51,1325.26 1160.71,1323.86 1162.92,1322.45 1165.13,1321.02 1167.34,1319.57 1169.54,1318.11 1171.75,1316.64 1173.96,1315.15 1176.17,1313.65 1178.37,1312.13 1180.58,1310.59 1182.79,1309.05 1185,1307.48 1187.2,1305.9 1189.41,1304.3 1191.62,1302.69 1193.83,1301.06 1196.03,1299.42 1198.24,1297.76 1200.45,1296.08 1202.66,1294.38 1204.86,1292.67 1207.07,1290.94 1209.28,1289.19 1211.49,1287.43 1213.69,1285.65 1215.9,1283.85 1218.11,1282.03 1220.32,1280.19 1222.52,1278.34 1224.73,1276.46 1226.94,1274.57 1229.15,1272.66 1231.35,1270.73 1233.56,1268.78 1235.77,1266.81 1237.98,1264.82 1240.18,1262.81 1242.39,1260.78 1244.6,1258.73 1246.81,1256.66 1249.01,1254.57 1251.22,1252.46 1253.43,1250.32 1255.64,1248.17 1257.84,1245.99 1260.05,1243.79 1262.26,1241.57 1264.47,1239.33 1266.67,1237.07 1268.88,1234.78 1271.09,1232.47 1273.3,1230.13 1275.5,1227.78 1277.71,1225.39 1279.92,1222.99 1282.13,1220.56 1284.33,1218.11 1286.54,1215.63 1288.75,1213.12 1290.96,1210.6 1293.16,1208.04 1295.37,1205.46 1297.58,1202.86 1299.79,1200.22 1301.99,1197.57 1304.2,1194.88 1306.41,1192.17 1308.62,1189.43 1310.82,1186.66 1313.03,1183.87 1315.24,1181.04 1317.45,1178.19 1319.65,1175.31 1321.86,1172.4 1324.07,1169.46 1326.28,1166.49 1328.48,1163.5 1330.69,1160.47 1332.9,1157.41 1335.11,1154.32 1337.31,1151.2 1339.52,1148.04 1341.73,1144.86 1343.94,1141.64 1346.14,1138.39 1348.35,1135.11 1350.56,1131.79 1352.76,1128.45 1354.97,1125.06 1357.18,1121.65 1359.39,1118.2 1361.59,1114.71 1363.8,1111.19 1366.01,1107.63 1368.22,1104.04 1370.42,1100.41 1372.63,1096.75 1374.84,1093.05 1377.05,1089.31 1379.25,1085.53 1381.46,1081.71 1383.67,1077.86 1385.88,1073.97 1388.08,1070.04 1390.29,1066.07 1392.5,1062.06 1394.71,1058.01 1396.91,1053.92 1399.12,1049.79 1401.33,1045.61 1403.54,1041.4 1405.74,1037.14 1407.95,1032.84 1410.16,1028.5 1412.37,1024.11 1414.57,1019.68 1416.78,1015.2 1418.99,1010.68 1421.2,1006.12 1423.4,1001.5 1425.61,996.845 1427.82,992.14 1430.03,987.387 1432.23,982.587 1434.44,977.738 1436.65,972.84 1438.86,967.893 1441.06,962.897 1443.27,957.85 1445.48,952.752 1447.69,947.603 1449.89,942.403 1452.1,937.149 1454.31,931.844 1456.52,926.484 1458.72,921.071 1460.93,915.603 1463.14,910.081 1465.35,904.502 1467.55,898.868 1469.76,893.177 1471.97,887.429 1474.18,881.622 1476.38,875.758 1478.59,869.834 1480.8,863.851 1483.01,857.807 1485.21,851.703 1487.42,845.537 1489.63,839.309 1491.84,833.019 1494.04,826.665 1496.25,820.248 1498.46,813.766 1500.67,807.218 1502.87,1006.07 1505.08,1002.73 1507.29,999.359 1509.5,995.952 1511.7,992.511 1513.91,989.035 1516.12,985.524 1518.33,981.978 1520.53,978.396 1522.74,974.778 1524.95,971.123 1527.16,967.432 1529.36,963.704 1531.57,959.938 1533.78,956.134 1535.99,952.292 1538.19,948.412 1540.4,944.492 1542.61,940.533 1544.82,936.535 1547.02,932.496 1549.23,928.416 1551.44,924.295 1553.65,920.133 1555.85,915.929 1558.06,911.683 1560.27,907.394 1562.48,903.062 1564.68,898.686 1566.89,894.266 1569.1,889.802 1571.31,885.292 1573.51,880.738 1575.72,876.137 1577.93,871.491 1580.14,866.797 1582.34,862.056 1584.55,857.268 1586.76,852.431 1588.97,847.546 1591.17,842.611 1593.38,837.627 1595.59,832.593 1597.8,827.508 1600,822.372 1602.21,817.184 1604.42,811.944 1606.63,806.651 1608.83,887.031 1611.04,884.332 1613.25,881.605 1615.46,878.851 1617.66,876.069 1619.87,873.259 1622.08,870.421 1624.29,867.555 1626.49,864.659 1628.7,861.735 1630.91,858.781 1633.12,855.797 1635.32,852.783 1637.53,849.739 1639.74,846.664 1641.95,843.559 1644.15,840.422 1646.36,837.253 1648.57,834.053 1650.78,830.821 1652.98,827.556 1655.19,824.258 1657.4,820.927 1659.61,817.562 1661.81,814.164 1664.02,810.731 1666.23,807.264 1668.44,803.762 1670.64,1311.06 1672.85,1309.28 1675.06,1307.47 1677.27,1305.65 1679.47,1303.81 1681.68,1301.95 1683.89,1300.07 1686.1,1298.17 1688.3,1296.26 1690.51,1294.32 1692.72,1292.37 1694.93,1290.39 1697.13,1288.4 1699.34,1286.38 1701.55,1284.35 1703.76,1282.29 1705.96,1280.22 1708.17,1278.12 1710.38,1276 1712.59,1273.87 1714.79,1271.71 1717,1269.52 1719.21,1267.32 1721.42,1265.09 1723.62,1262.85 1725.83,1260.57 1728.04,1258.28 1730.25,1255.96 1732.45,1253.62 1734.66,1251.26 1736.87,1248.87 1739.07,1246.46 1741.28,1244.03 1743.49,1241.57 1745.7,1239.08 1747.9,1236.57 1750.11,1234.04 1752.32,1231.48 1754.53,1228.89 1756.73,1226.28 1758.94,1223.64 1761.15,1220.98 1763.36,1218.29 1765.56,1215.57 1767.77,1212.82 1769.98,1210.05 1772.19,1207.25 1774.39,1204.42 1776.6,1201.56 1778.81,1198.67 1781.02,1195.75 1783.22,1192.81 1785.43,1189.83 1787.64,1186.83 1789.85,1183.79 1792.05,1180.72 1794.26,1177.63 1796.47,1174.5 1798.68,1171.34 1800.88,1168.14 1803.09,1164.92 1805.3,1161.66 1807.51,1158.37 1809.71,1155.05 1811.92,1151.69 1814.13,1148.3 1816.34,1144.88 1818.54,1141.42 1820.75,1137.92 1822.96,1134.4 1825.17,1130.83 1827.37,1127.23 1829.58,1123.59 1831.79,1119.92 1834,1116.21 1836.2,1112.46 1838.41,1108.67 1840.62,1104.85 1842.83,1100.99 1845.03,1097.09 1847.24,1093.15 1849.45,1089.17 1851.66,1085.15 1853.86,1081.09 1856.07,1076.99 1858.28,1072.84 1860.49,1068.66 1862.69,1064.44 1864.9,1060.17 1867.11,1055.86 1869.32,1051.5 1871.52,1047.11 1873.73,1042.66 1875.94,1038.18 1878.15,1033.65 1880.35,1029.07 1882.56,1024.45 1884.77,1019.78 1886.98,1015.06 1889.18,1010.29 1891.39,1005.48 1893.6,1000.62 1895.81,995.712 1898.01,990.753 1900.22,985.744 1902.43,980.685 1904.64,975.575 1906.84,970.414 1909.05,965.201 1911.26,959.935 1913.47,954.616 1915.67,949.244 1917.88,943.818 1920.09,938.337 1922.3,932.801 1924.5,927.209 1926.71,921.561 1928.92,915.856 1931.13,910.094 1933.33,904.274 1935.54,898.395 1937.75,892.457 1939.96,886.46 1942.16,880.401 1944.37,874.282 1946.58,868.102 1948.79,861.859 1950.99,855.553 1953.2,849.184 1955.41,842.751 1957.62,836.253 1959.82,829.69 1962.03,823.061 1964.24,816.365 1966.45,809.601 1968.65,850.249 1970.86,846.8 1973.07,843.315 1975.28,839.796 1977.48,836.242 1979.69,832.651 1981.9,829.025 1984.11,825.362 1986.31,821.662 1988.52,817.925 1990.73,814.15 1992.94,810.337 1995.14,806.486 1997.35,1330.5 1999.56,1328.53 2001.77,1326.55 2003.97,1324.54 2006.18,1322.52 2008.39,1320.48 2010.6,1318.41 2012.8,1316.32 2015.01,1314.22 2017.22,1312.09 2019.43,1309.94 2021.63,1307.77 2023.84,1305.57 2026.05,1303.36 2028.26,1301.12 2030.46,1298.86 2032.67,1296.58 2034.88,1294.27 2037.09,1291.94 2039.29,1289.59 2041.5,1287.22 2043.71,1284.82 2045.92,1282.39 2048.12,1279.95 2050.33,1277.47 2052.54,1274.98 2054.75,1272.45 2056.95,1269.91 2059.16,1267.33 2061.37,1264.74 2063.58,1262.11 2065.78,1259.46 2067.99,1256.78 2070.2,1254.08 2072.41,1251.35 2074.61,1248.59 2076.82,1245.8 2079.03,1242.99 2081.24,1240.14 2083.44,1237.27 2085.65,1234.37 2087.86,1231.44 2090.07,1228.48 2092.27,1225.49 2094.48,1222.47 2096.69,1219.43 2098.9,1216.35 2101.1,1213.23 2103.31,1210.09 2105.52,1206.92 2107.73,1203.71 2109.93,1200.47 2112.14,1197.2 2114.35,1193.9 2116.55,1190.56 2118.76,1187.19 2120.97,1183.78 2123.18,1180.34 2125.38,1176.87 2127.59,1173.36 2129.8,1169.82 2132.01,1166.23 2134.21,1162.62 2136.42,1158.96 2138.63,1155.27 2140.84,1151.55 2143.04,1147.78 2145.25,1143.98 2147.46,1140.14 2149.67,1136.26 2151.87,1132.34 2154.08,1128.38 2156.29,1124.38 2158.5,1120.34 2160.7,1116.26 2162.91,1112.14 2165.12,1107.97 2167.33,1103.77 2169.53,1099.52 2171.74,1095.23 2173.95,1090.9 2176.16,1086.52 2178.36,1082.1 2180.57,1077.63 2182.78,1073.12 2184.99,1068.57 2187.19,1063.96 2189.4,1059.32 2191.61,1054.62 2193.82,1049.88 2196.02,1045.09 2198.23,1040.25 2200.44,1035.37 2202.65,1030.43 2204.85,1025.44 2207.06,1020.41 2209.27,1015.32 2211.48,1010.19 2213.68,1005 2215.89,999.762 2218.1,994.471 2220.31,989.125 2222.51,983.727 2224.72,978.274 2226.93,972.766 2229.14,967.202 2231.34,961.583 2233.55,955.907 2235.76,950.174 2237.97,944.383 2240.17,938.534 2242.38,932.627 2244.59,926.66 2246.8,920.632 2249,914.545 2251.21,908.396 2253.42,902.185 2255.63,895.911 2257.83,889.575 2260.04,883.174 2262.25,876.71 2264.46,870.18 2266.66,863.585 2268.87,856.923 2271.08,850.194 2273.29,843.398 2275.49,836.533 2277.7,829.599 2279.91,822.595 2282.12,815.521 2284.32,808.376 2286.53,1009.72 2288.74,1006.07 2290.95,1002.39 2293.15,998.671 2295.36,994.915 2297.57,991.121 2299.78,987.289 2301.98,983.419 2304.19,979.51 2306.4,975.561 2308.61,971.572 2310.81,967.544 2313.02,963.475 2315.23,959.365 2317.44,955.213 2319.64,951.02 2321.85,946.785 2324.06,942.507 2326.27,938.186 2328.47,933.821 2330.68,929.413 2332.89,924.96 2335.1,920.463 2337.3,915.92 2339.51,911.331 2341.72,906.697 2343.93,902.016 2346.13,897.287 2348.34,892.511 2350.55,887.687 2352.76,882.815 "/>
<path clip-path="url(#clip310)" d="M220.987 248.629 L530.612 248.629 L530.612 93.1086 L220.987 93.1086  Z" fill="#ffffff" fill-rule="evenodd" fill-opacity="1"/>
<polyline clip-path="url(#clip310)" style="stroke:#000000; stroke-linecap:round; stroke-linejoin:round; stroke-width:4; stroke-opacity:1; fill:none" points="220.987,248.629 530.612,248.629 530.612,93.1086 220.987,93.1086 220.987,248.629 "/>
<polyline clip-path="url(#clip310)" style="stroke:#009af9; stroke-linecap:round; stroke-linejoin:round; stroke-width:8; stroke-opacity:1; fill:none" points="245.49,144.949 392.509,144.949 "/>
<path clip-path="url(#clip310)" d="M417.012 151.997 L417.012 136.303 L421.271 136.303 L421.271 151.835 Q421.271 155.516 422.706 157.368 Q424.141 159.196 427.012 159.196 Q430.461 159.196 432.452 156.997 Q434.466 154.798 434.466 151.002 L434.466 136.303 L438.725 136.303 L438.725 162.229 L434.466 162.229 L434.466 158.247 Q432.915 160.608 430.854 161.766 Q428.817 162.9 426.109 162.9 Q421.641 162.9 419.327 160.122 Q417.012 157.344 417.012 151.997 M427.729 135.678 L427.729 135.678 Z" fill="#000000" fill-rule="nonzero" fill-opacity="1" /><path clip-path="url(#clip310)" d="M447.104 126.21 L456.919 126.21 L456.919 129.52 L451.364 129.52 L451.364 165.168 L456.919 165.168 L456.919 168.479 L447.104 168.479 L447.104 126.21 Z" fill="#000000" fill-rule="nonzero" fill-opacity="1" /><path clip-path="url(#clip310)" d="M467.405 158.293 L475.044 158.293 L475.044 131.928 L466.734 133.595 L466.734 129.335 L474.998 127.669 L479.674 127.669 L479.674 158.293 L487.312 158.293 L487.312 162.229 L467.405 162.229 L467.405 158.293 Z" fill="#000000" fill-rule="nonzero" fill-opacity="1" /><path clip-path="url(#clip310)" d="M506.109 126.21 L506.109 168.479 L496.294 168.479 L496.294 165.168 L501.826 165.168 L501.826 129.52 L496.294 129.52 L496.294 126.21 L506.109 126.21 Z" fill="#000000" fill-rule="nonzero" fill-opacity="1" /><polyline clip-path="url(#clip310)" style="stroke:#e26f46; stroke-linecap:round; stroke-linejoin:round; stroke-width:8; stroke-opacity:1; fill:none" points="245.49,196.789 392.509,196.789 "/>
<path clip-path="url(#clip310)" d="M417.012 203.837 L417.012 188.143 L421.271 188.143 L421.271 203.675 Q421.271 207.356 422.706 209.208 Q424.141 211.036 427.012 211.036 Q430.461 211.036 432.452 208.837 Q434.466 206.638 434.466 202.842 L434.466 188.143 L438.725 188.143 L438.725 214.069 L434.466 214.069 L434.466 210.087 Q432.915 212.448 430.854 213.606 Q428.817 214.74 426.109 214.74 Q421.641 214.74 419.327 211.962 Q417.012 209.184 417.012 203.837 M427.729 187.518 L427.729 187.518 Z" fill="#000000" fill-rule="nonzero" fill-opacity="1" /><path clip-path="url(#clip310)" d="M447.104 178.05 L456.919 178.05 L456.919 181.36 L451.364 181.36 L451.364 217.008 L456.919 217.008 L456.919 220.319 L447.104 220.319 L447.104 178.05 Z" fill="#000000" fill-rule="nonzero" fill-opacity="1" /><path clip-path="url(#clip310)" d="M470.623 210.133 L486.942 210.133 L486.942 214.069 L464.998 214.069 L464.998 210.133 Q467.66 207.379 472.243 202.749 Q476.85 198.096 478.03 196.754 Q480.275 194.231 481.155 192.495 Q482.058 190.735 482.058 189.046 Q482.058 186.291 480.113 184.555 Q478.192 182.819 475.09 182.819 Q472.891 182.819 470.438 183.583 Q468.007 184.347 465.229 185.897 L465.229 181.175 Q468.053 180.041 470.507 179.462 Q472.961 178.884 474.998 178.884 Q480.368 178.884 483.562 181.569 Q486.757 184.254 486.757 188.745 Q486.757 190.874 485.947 192.796 Q485.16 194.694 483.053 197.286 Q482.475 197.958 479.373 201.175 Q476.271 204.37 470.623 210.133 Z" fill="#000000" fill-rule="nonzero" fill-opacity="1" /><path clip-path="url(#clip310)" d="M506.109 178.05 L506.109 220.319 L496.294 220.319 L496.294 217.008 L501.826 217.008 L501.826 181.36 L496.294 181.36 L496.294 178.05 L506.109 178.05 Z" fill="#000000" fill-rule="nonzero" fill-opacity="1" /></svg>
