<?xml version="1.0" encoding="utf-8"?>
<svg xmlns="http://www.w3.org/2000/svg" xmlns:xlink="http://www.w3.org/1999/xlink" width="600" height="400" viewBox="0 0 2400 1600">
<defs>
  <clipPath id="clip370">
    <rect x="0" y="0" width="2400" height="1600"/>
  </clipPath>
</defs>
<path clip-path="url(#clip370)" d="M0 1600 L2400 1600 L2400 0 L0 0  Z" fill="#ffffff" fill-rule="evenodd" fill-opacity="1"/>
<defs>
  <clipPath id="clip371">
    <rect x="480" y="0" width="1681" height="1600"/>
  </clipPath>
</defs>
<path clip-path="url(#clip370)" d="M149.191 1423.18 L2352.76 1423.18 L2352.76 47.2441 L149.191 47.2441  Z" fill="#ffffff" fill-rule="evenodd" fill-opacity="1"/>
<defs>
  <clipPath id="clip372">
    <rect x="149" y="47" width="2205" height="1377"/>
  </clipPath>
</defs>
<polyline clip-path="url(#clip372)" style="stroke:#000000; stroke-linecap:round; stroke-linejoin:round; stroke-width:2; stroke-opacity:0.1; fill:none" points="149.191,1423.18 149.191,47.2441 "/>
<polyline clip-path="url(#clip372)" style="stroke:#000000; stroke-linecap:round; stroke-linejoin:round; stroke-width:2; stroke-opacity:0.1; fill:none" points="589.904,1423.18 589.904,47.2441 "/>
<polyline clip-path="url(#clip372)" style="stroke:#000000; stroke-linecap:round; stroke-linejoin:round; stroke-width:2; stroke-opacity:0.1; fill:none" points="1030.62,1423.18 1030.62,47.2441 "/>
<polyline clip-path="url(#clip372)" style="stroke:#000000; stroke-linecap:round; stroke-linejoin:round; stroke-width:2; stroke-opacity:0.1; fill:none" points="1471.33,1423.18 1471.33,47.2441 "/>
<polyline clip-path="url(#clip372)" style="stroke:#000000; stroke-linecap:round; stroke-linejoin:round; stroke-width:2; stroke-opacity:0.1; fill:none" points="1912.04,1423.18 1912.04,47.2441 "/>
<polyline clip-path="url(#clip372)" style="stroke:#000000; stroke-linecap:round; stroke-linejoin:round; stroke-width:2; stroke-opacity:0.1; fill:none" points="2352.76,1423.18 2352.76,47.2441 "/>
<polyline clip-path="url(#clip370)" style="stroke:#000000; stroke-linecap:round; stroke-linejoin:round; stroke-width:4; stroke-opacity:1; fill:none" points="149.191,1423.18 2352.76,1423.18 "/>
<polyline clip-path="url(#clip370)" style="stroke:#000000; stroke-linecap:round; stroke-linejoin:round; stroke-width:4; stroke-opacity:1; fill:none" points="149.191,1423.18 149.191,1404.28 "/>
<polyline clip-path="url(#clip370)" style="stroke:#000000; stroke-linecap:round; stroke-linejoin:round; stroke-width:4; stroke-opacity:1; fill:none" points="589.904,1423.18 589.904,1404.28 "/>
<polyline clip-path="url(#clip370)" style="stroke:#000000; stroke-linecap:round; stroke-linejoin:round; stroke-width:4; stroke-opacity:1; fill:none" points="1030.62,1423.18 1030.62,1404.28 "/>
<polyline clip-path="url(#clip370)" style="stroke:#000000; stroke-linecap:round; stroke-linejoin:round; stroke-width:4; stroke-opacity:1; fill:none" points="1471.33,1423.18 1471.33,1404.28 "/>
<polyline clip-path="url(#clip370)" style="stroke:#000000; stroke-linecap:round; stroke-linejoin:round; stroke-width:4; stroke-opacity:1; fill:none" points="1912.04,1423.18 1912.04,1404.28 "/>
<polyline clip-path="url(#clip370)" style="stroke:#000000; stroke-linecap:round; stroke-linejoin:round; stroke-width:4; stroke-opacity:1; fill:none" points="2352.76,1423.18 2352.76,1404.28 "/>
<path clip-path="url(#clip370)" d="M149.191 1454.1 Q145.58 1454.1 143.751 1457.66 Q141.946 1461.2 141.946 1468.33 Q141.946 1475.44 143.751 1479.01 Q145.58 1482.55 149.191 1482.55 Q152.825 1482.55 154.631 1479.01 Q156.459 1475.44 156.459 1468.33 Q156.459 1461.2 154.631 1457.66 Q152.825 1454.1 149.191 1454.1 M149.191 1450.39 Q155.001 1450.39 158.057 1455 Q161.135 1459.58 161.135 1468.33 Q161.135 1477.06 158.057 1481.67 Q155.001 1486.25 149.191 1486.25 Q143.381 1486.25 140.302 1481.67 Q137.246 1477.06 137.246 1468.33 Q137.246 1459.58 140.302 1455 Q143.381 1450.39 149.191 1450.39 Z" fill="#000000" fill-rule="nonzero" fill-opacity="1" /><path clip-path="url(#clip370)" d="M584.557 1481.64 L600.876 1481.64 L600.876 1485.58 L578.932 1485.58 L578.932 1481.64 Q581.594 1478.89 586.177 1474.26 Q590.783 1469.61 591.964 1468.27 Q594.209 1465.74 595.089 1464.01 Q595.992 1462.25 595.992 1460.56 Q595.992 1457.8 594.047 1456.07 Q592.126 1454.33 589.024 1454.33 Q586.825 1454.33 584.371 1455.09 Q581.941 1455.86 579.163 1457.41 L579.163 1452.69 Q581.987 1451.55 584.441 1450.97 Q586.895 1450.39 588.932 1450.39 Q594.302 1450.39 597.496 1453.08 Q600.691 1455.77 600.691 1460.26 Q600.691 1462.39 599.881 1464.31 Q599.094 1466.2 596.987 1468.8 Q596.408 1469.47 593.307 1472.69 Q590.205 1475.88 584.557 1481.64 Z" fill="#000000" fill-rule="nonzero" fill-opacity="1" /><path clip-path="url(#clip370)" d="M1033.63 1455.09 L1021.82 1473.54 L1033.63 1473.54 L1033.63 1455.09 M1032.4 1451.02 L1038.28 1451.02 L1038.28 1473.54 L1043.21 1473.54 L1043.21 1477.43 L1038.28 1477.43 L1038.28 1485.58 L1033.63 1485.58 L1033.63 1477.43 L1018.02 1477.43 L1018.02 1472.92 L1032.4 1451.02 Z" fill="#000000" fill-rule="nonzero" fill-opacity="1" /><path clip-path="url(#clip370)" d="M1471.73 1466.44 Q1468.59 1466.44 1466.74 1468.59 Q1464.91 1470.74 1464.91 1474.49 Q1464.91 1478.22 1466.74 1480.39 Q1468.59 1482.55 1471.73 1482.55 Q1474.88 1482.55 1476.71 1480.39 Q1478.56 1478.22 1478.56 1474.49 Q1478.56 1470.74 1476.71 1468.59 Q1474.88 1466.44 1471.73 1466.44 M1481.02 1451.78 L1481.02 1456.04 Q1479.26 1455.21 1477.45 1454.77 Q1475.67 1454.33 1473.91 1454.33 Q1469.28 1454.33 1466.83 1457.45 Q1464.4 1460.58 1464.05 1466.9 Q1465.42 1464.89 1467.48 1463.82 Q1469.54 1462.73 1472.01 1462.73 Q1477.22 1462.73 1480.23 1465.9 Q1483.26 1469.05 1483.26 1474.49 Q1483.26 1479.82 1480.11 1483.03 Q1476.97 1486.25 1471.73 1486.25 Q1465.74 1486.25 1462.57 1481.67 Q1459.4 1477.06 1459.4 1468.33 Q1459.4 1460.14 1463.29 1455.28 Q1467.17 1450.39 1473.73 1450.39 Q1475.48 1450.39 1477.27 1450.74 Q1479.07 1451.09 1481.02 1451.78 Z" fill="#000000" fill-rule="nonzero" fill-opacity="1" /><path clip-path="url(#clip370)" d="M1912.04 1469.17 Q1908.71 1469.17 1906.79 1470.95 Q1904.89 1472.73 1904.89 1475.86 Q1904.89 1478.98 1906.79 1480.77 Q1908.71 1482.55 1912.04 1482.55 Q1915.38 1482.55 1917.3 1480.77 Q1919.22 1478.96 1919.22 1475.86 Q1919.22 1472.73 1917.3 1470.95 Q1915.4 1469.17 1912.04 1469.17 M1907.37 1467.18 Q1904.36 1466.44 1902.67 1464.38 Q1901 1462.32 1901 1459.35 Q1901 1455.21 1903.94 1452.8 Q1906.9 1450.39 1912.04 1450.39 Q1917.2 1450.39 1920.14 1452.8 Q1923.08 1455.21 1923.08 1459.35 Q1923.08 1462.32 1921.39 1464.38 Q1919.73 1466.44 1916.74 1467.18 Q1920.12 1467.96 1922 1470.26 Q1923.89 1472.55 1923.89 1475.86 Q1923.89 1480.88 1920.82 1483.57 Q1917.76 1486.25 1912.04 1486.25 Q1906.33 1486.25 1903.25 1483.57 Q1900.19 1480.88 1900.19 1475.86 Q1900.19 1472.55 1902.09 1470.26 Q1903.99 1467.96 1907.37 1467.18 M1905.65 1459.79 Q1905.65 1462.48 1907.32 1463.98 Q1909.01 1465.49 1912.04 1465.49 Q1915.05 1465.49 1916.74 1463.98 Q1918.45 1462.48 1918.45 1459.79 Q1918.45 1457.11 1916.74 1455.6 Q1915.05 1454.1 1912.04 1454.1 Q1909.01 1454.1 1907.32 1455.6 Q1905.65 1457.11 1905.65 1459.79 Z" fill="#000000" fill-rule="nonzero" fill-opacity="1" /><path clip-path="url(#clip370)" d="M2327.44 1481.64 L2335.08 1481.64 L2335.08 1455.28 L2326.77 1456.95 L2326.77 1452.69 L2335.04 1451.02 L2339.71 1451.02 L2339.71 1481.64 L2347.35 1481.64 L2347.35 1485.58 L2327.44 1485.58 L2327.44 1481.64 Z" fill="#000000" fill-rule="nonzero" fill-opacity="1" /><path clip-path="url(#clip370)" d="M2366.8 1454.1 Q2363.18 1454.1 2361.36 1457.66 Q2359.55 1461.2 2359.55 1468.33 Q2359.55 1475.44 2361.36 1479.01 Q2363.18 1482.55 2366.8 1482.55 Q2370.43 1482.55 2372.23 1479.01 Q2374.06 1475.44 2374.06 1468.33 Q2374.06 1461.2 2372.23 1457.66 Q2370.43 1454.1 2366.8 1454.1 M2366.8 1450.39 Q2372.61 1450.39 2375.66 1455 Q2378.74 1459.58 2378.74 1468.33 Q2378.74 1477.06 2375.66 1481.67 Q2372.61 1486.25 2366.8 1486.25 Q2360.99 1486.25 2357.91 1481.67 Q2354.85 1477.06 2354.85 1468.33 Q2354.85 1459.58 2357.91 1455 Q2360.99 1450.39 2366.8 1450.39 Z" fill="#000000" fill-rule="nonzero" fill-opacity="1" /><path clip-path="url(#clip370)" d="M1250.03 1522.27 L1250.03 1532.4 L1262.1 1532.4 L1262.1 1536.95 L1250.03 1536.95 L1250.03 1556.3 Q1250.03 1560.66 1251.21 1561.9 Q1252.42 1563.14 1256.08 1563.14 L1262.1 1563.14 L1262.1 1568.04 L1256.08 1568.04 Q1249.3 1568.04 1246.72 1565.53 Q1244.15 1562.98 1244.15 1556.3 L1244.15 1536.95 L1239.85 1536.95 L1239.85 1532.4 L1244.15 1532.4 L1244.15 1522.27 L1250.03 1522.27 Z" fill="#000000" fill-rule="nonzero" fill-opacity="1" /><polyline clip-path="url(#clip372)" style="stroke:#000000; stroke-linecap:round; stroke-linejoin:round; stroke-width:2; stroke-opacity:0.1; fill:none" points="149.191,1411.04 2352.76,1411.04 "/>
<polyline clip-path="url(#clip372)" style="stroke:#000000; stroke-linecap:round; stroke-linejoin:round; stroke-width:2; stroke-opacity:0.1; fill:none" points="149.191,1091.4 2352.76,1091.4 "/>
<polyline clip-path="url(#clip372)" style="stroke:#000000; stroke-linecap:round; stroke-linejoin:round; stroke-width:2; stroke-opacity:0.1; fill:none" points="149.191,771.761 2352.76,771.761 "/>
<polyline clip-path="url(#clip372)" style="stroke:#000000; stroke-linecap:round; stroke-linejoin:round; stroke-width:2; stroke-opacity:0.1; fill:none" points="149.191,452.122 2352.76,452.122 "/>
<polyline clip-path="url(#clip372)" style="stroke:#000000; stroke-linecap:round; stroke-linejoin:round; stroke-width:2; stroke-opacity:0.1; fill:none" points="149.191,132.483 2352.76,132.483 "/>
<polyline clip-path="url(#clip370)" style="stroke:#000000; stroke-linecap:round; stroke-linejoin:round; stroke-width:4; stroke-opacity:1; fill:none" points="149.191,1423.18 149.191,47.2441 "/>
<polyline clip-path="url(#clip370)" style="stroke:#000000; stroke-linecap:round; stroke-linejoin:round; stroke-width:4; stroke-opacity:1; fill:none" points="149.191,1411.04 168.089,1411.04 "/>
<polyline clip-path="url(#clip370)" style="stroke:#000000; stroke-linecap:round; stroke-linejoin:round; stroke-width:4; stroke-opacity:1; fill:none" points="149.191,1091.4 168.089,1091.4 "/>
<polyline clip-path="url(#clip370)" style="stroke:#000000; stroke-linecap:round; stroke-linejoin:round; stroke-width:4; stroke-opacity:1; fill:none" points="149.191,771.761 168.089,771.761 "/>
<polyline clip-path="url(#clip370)" style="stroke:#000000; stroke-linecap:round; stroke-linejoin:round; stroke-width:4; stroke-opacity:1; fill:none" points="149.191,452.122 168.089,452.122 "/>
<polyline clip-path="url(#clip370)" style="stroke:#000000; stroke-linecap:round; stroke-linejoin:round; stroke-width:4; stroke-opacity:1; fill:none" points="149.191,132.483 168.089,132.483 "/>
<path clip-path="url(#clip370)" d="M50.9921 1411.49 L80.6679 1411.49 L80.6679 1415.43 L50.9921 1415.43 L50.9921 1411.49 Z" fill="#000000" fill-rule="nonzero" fill-opacity="1" /><path clip-path="url(#clip370)" d="M103.608 1397.83 L91.8021 1416.28 L103.608 1416.28 L103.608 1397.83 M102.381 1393.76 L108.26 1393.76 L108.26 1416.28 L113.191 1416.28 L113.191 1420.17 L108.26 1420.17 L108.26 1428.32 L103.608 1428.32 L103.608 1420.17 L88.0058 1420.17 L88.0058 1415.66 L102.381 1393.76 Z" fill="#000000" fill-rule="nonzero" fill-opacity="1" /><path clip-path="url(#clip370)" d="M53.0754 1091.85 L82.7512 1091.85 L82.7512 1095.79 L53.0754 1095.79 L53.0754 1091.85 Z" fill="#000000" fill-rule="nonzero" fill-opacity="1" /><path clip-path="url(#clip370)" d="M96.8715 1104.75 L113.191 1104.75 L113.191 1108.68 L91.2465 1108.68 L91.2465 1104.75 Q93.9086 1101.99 98.4919 1097.36 Q103.098 1092.71 104.279 1091.37 Q106.524 1088.84 107.404 1087.11 Q108.307 1085.35 108.307 1083.66 Q108.307 1080.9 106.362 1079.17 Q104.441 1077.43 101.339 1077.43 Q99.14 1077.43 96.6863 1078.19 Q94.2558 1078.96 91.478 1080.51 L91.478 1075.79 Q94.3021 1074.65 96.7558 1074.07 Q99.2095 1073.5 101.246 1073.5 Q106.617 1073.5 109.811 1076.18 Q113.006 1078.87 113.006 1083.36 Q113.006 1085.49 112.196 1087.41 Q111.408 1089.31 109.302 1091.9 Q108.723 1092.57 105.621 1095.79 Q102.52 1098.98 96.8715 1104.75 Z" fill="#000000" fill-rule="nonzero" fill-opacity="1" /><path clip-path="url(#clip370)" d="M101.246 757.56 Q97.6354 757.56 95.8067 761.125 Q94.0012 764.667 94.0012 771.796 Q94.0012 778.903 95.8067 782.467 Q97.6354 786.009 101.246 786.009 Q104.881 786.009 106.686 782.467 Q108.515 778.903 108.515 771.796 Q108.515 764.667 106.686 761.125 Q104.881 757.56 101.246 757.56 M101.246 753.856 Q107.057 753.856 110.112 758.463 Q113.191 763.046 113.191 771.796 Q113.191 780.523 110.112 785.129 Q107.057 789.713 101.246 789.713 Q95.4363 789.713 92.3576 785.129 Q89.3021 780.523 89.3021 771.796 Q89.3021 763.046 92.3576 758.463 Q95.4363 753.856 101.246 753.856 Z" fill="#000000" fill-rule="nonzero" fill-opacity="1" /><path clip-path="url(#clip370)" d="M96.8715 465.467 L113.191 465.467 L113.191 469.402 L91.2465 469.402 L91.2465 465.467 Q93.9086 462.712 98.4919 458.083 Q103.098 453.43 104.279 452.087 Q106.524 449.564 107.404 447.828 Q108.307 446.069 108.307 444.379 Q108.307 441.625 106.362 439.888 Q104.441 438.152 101.339 438.152 Q99.14 438.152 96.6863 438.916 Q94.2558 439.68 91.478 441.231 L91.478 436.509 Q94.3021 435.375 96.7558 434.796 Q99.2095 434.217 101.246 434.217 Q106.617 434.217 109.811 436.902 Q113.006 439.588 113.006 444.078 Q113.006 446.208 112.196 448.129 Q111.408 450.027 109.302 452.62 Q108.723 453.291 105.621 456.509 Q102.52 459.703 96.8715 465.467 Z" fill="#000000" fill-rule="nonzero" fill-opacity="1" /><path clip-path="url(#clip370)" d="M103.608 119.277 L91.8021 137.726 L103.608 137.726 L103.608 119.277 M102.381 115.203 L108.26 115.203 L108.26 137.726 L113.191 137.726 L113.191 141.615 L108.26 141.615 L108.26 149.763 L103.608 149.763 L103.608 141.615 L88.0058 141.615 L88.0058 137.101 L102.381 115.203 Z" fill="#000000" fill-rule="nonzero" fill-opacity="1" /><polyline clip-path="url(#clip372)" style="stroke:#009af9; stroke-linecap:round; stroke-linejoin:round; stroke-width:8; stroke-opacity:1; fill:none" points="149.191,739.797 151.397,739.476 153.602,739.151 155.808,738.823 158.014,738.492 160.22,738.157 162.425,737.819 164.631,737.477 166.837,737.133 169.043,736.784 171.249,736.432 173.454,736.077 175.66,735.718 177.866,735.355 180.072,734.989 182.277,734.619 184.483,734.245 186.689,733.868 188.895,733.487 191.101,733.102 193.306,732.713 195.512,732.32 197.718,731.923 199.924,731.522 202.129,731.118 204.335,730.709 206.541,730.296 208.747,729.878 210.952,729.457 213.158,729.032 215.364,728.602 217.57,728.167 219.776,727.729 221.981,727.286 224.187,726.838 226.393,726.387 228.599,725.93 230.804,725.469 233.01,725.003 235.216,724.533 237.422,724.058 239.627,723.578 241.833,723.093 244.039,722.603 246.245,722.109 248.451,721.609 250.656,721.105 252.862,720.595 255.068,720.08 257.274,719.561 259.479,719.035 261.685,718.505 263.891,717.969 266.097,717.428 268.302,716.881 270.508,716.329 272.714,715.772 274.92,715.208 277.126,714.639 279.331,714.065 281.537,713.484 283.743,712.898 285.949,712.306 288.154,711.708 290.36,711.104 292.566,710.493 294.772,709.877 296.978,709.254 299.183,708.626 301.389,707.99 303.595,707.349 305.801,706.701 308.006,706.046 310.212,705.385 312.418,704.717 314.624,704.043 316.829,703.362 319.035,702.674 321.241,701.979 323.447,701.276 325.653,700.567 327.858,699.851 330.064,699.128 332.27,698.397 334.476,697.659 336.681,696.913 338.887,696.16 341.093,695.4 343.299,694.632 345.504,693.856 347.71,693.072 349.916,692.28 352.122,691.481 354.328,690.673 356.533,689.857 358.739,689.033 360.945,688.201 363.151,687.36 365.356,686.511 367.562,685.654 369.768,684.787 371.974,727.837 374.179,727.395 376.385,726.949 378.591,726.498 380.797,726.043 383.003,725.583 385.208,725.118 387.414,724.649 389.62,724.175 391.826,723.696 394.031,723.213 396.237,722.724 398.443,722.231 400.649,721.733 402.855,721.229 405.06,720.721 407.266,720.207 409.472,719.689 411.678,719.165 413.883,718.636 416.089,718.101 418.295,717.561 420.501,717.016 422.706,716.465 424.912,715.909 427.118,715.347 429.324,714.78 431.53,714.206 433.735,713.627 435.941,713.043 438.147,712.452 440.353,711.855 442.558,711.253 444.764,710.644 446.97,710.029 449.176,709.408 451.381,708.781 453.587,708.147 455.793,707.507 457.999,706.861 460.205,706.208 462.41,705.548 464.616,704.882 466.822,704.209 469.028,703.53 471.233,702.843 473.439,702.15 475.645,701.449 477.851,700.742 480.056,700.028 482.262,699.306 484.468,698.577 486.674,697.841 488.88,697.097 491.085,696.346 493.291,695.587 495.497,694.821 497.703,694.047 499.908,693.265 502.114,692.476 504.32,691.678 506.526,690.872 508.732,690.059 510.937,689.237 513.143,688.407 515.349,687.568 517.555,686.721 519.76,685.866 521.966,685.002 524.172,684.129 526.378,683.247 528.583,682.357 530.789,681.457 532.995,680.549 535.201,679.631 537.407,678.704 539.612,677.768 541.818,676.823 544.024,675.868 546.23,674.903 548.435,673.928 550.641,672.944 552.847,671.95 555.053,670.946 557.258,669.932 559.464,668.907 561.67,667.872 563.876,666.827 566.082,665.771 568.287,664.705 570.493,663.628 572.699,662.54 574.905,661.441 577.11,660.331 579.316,659.21 581.522,658.078 583.728,656.934 585.933,655.779 588.139,654.612 590.345,653.433 592.551,652.243 594.757,651.041 596.962,649.826 599.168,648.599 601.374,647.36 603.58,646.109 605.785,644.845 607.991,643.568 610.197,642.278 612.403,640.975 614.609,639.66 616.814,638.331 619.02,636.988 621.226,635.633 623.432,634.263 625.637,632.88 627.843,631.483 630.049,630.072 632.255,628.646 634.46,627.207 636.666,625.753 638.872,624.284 641.078,622.8 643.284,621.302 645.489,619.788 647.695,618.259 649.901,616.715 652.107,615.156 654.312,613.58 656.518,611.989 658.724,610.382 660.93,608.758 663.135,607.118 665.341,605.462 667.547,603.789 669.753,602.099 671.959,600.393 674.164,598.669 676.37,596.927 678.576,595.168 680.782,593.392 682.987,591.597 685.193,589.785 687.399,587.954 689.605,586.105 691.81,584.237 694.016,582.35 696.222,580.444 698.428,578.519 700.634,576.575 702.839,574.612 705.045,572.628 707.251,570.625 709.457,568.601 711.662,566.557 713.868,564.492 716.074,562.407 718.28,560.301 720.486,558.174 722.691,556.025 724.897,553.854 727.103,551.662 729.309,549.448 731.514,547.211 733.72,544.952 735.926,542.671 738.132,540.366 740.337,538.038 742.543,535.687 744.749,533.312 746.955,530.913 749.161,528.49 751.366,526.043 753.572,523.571 755.778,521.074 757.984,518.552 760.189,516.004 762.395,513.431 764.601,510.833 766.807,508.208 769.012,505.556 771.218,502.878 773.424,500.173 775.63,497.441 777.836,494.681 780.041,491.893 782.247,489.078 784.453,486.234 786.659,483.361 788.864,480.46 791.07,477.53 793.276,623.168 795.482,696.717 797.687,695.962 799.893,695.2 802.099,694.429 804.305,693.651 806.511,692.865 808.716,692.072 810.922,691.27 813.128,690.46 815.334,689.642 817.539,688.816 819.745,687.982 821.951,687.139 824.157,686.287 826.363,685.428 828.568,684.559 830.774,683.682 832.98,682.796 835.186,681.901 837.391,680.997 839.597,680.084 841.803,679.162 844.009,678.23 846.214,677.289 848.42,676.339 850.626,675.379 852.832,674.41 855.038,673.43 857.243,672.441 859.449,671.442 861.655,670.433 863.861,669.414 866.066,668.384 868.272,667.344 870.478,666.294 872.684,665.233 874.889,664.161 877.095,663.079 879.301,661.986 881.507,660.881 883.713,659.766 885.918,658.639 888.124,657.501 890.33,656.352 892.536,655.191 894.741,654.018 896.947,652.833 899.153,651.637 901.359,650.428 903.564,649.208 905.77,647.975 907.976,646.729 910.182,645.471 912.388,644.201 914.593,642.917 916.799,641.621 919.005,640.311 921.211,638.989 923.416,637.653 925.622,636.304 927.828,634.941 930.034,633.564 932.24,632.174 934.445,630.769 936.651,629.351 938.857,627.918 941.063,626.471 943.268,625.009 945.474,623.533 947.68,622.042 949.886,620.535 952.091,619.014 954.297,617.477 956.503,615.925 958.709,614.357 960.915,612.773 963.12,611.174 965.326,609.558 967.532,607.926 969.738,606.278 971.943,604.613 974.149,602.932 976.355,601.233 978.561,599.518 980.766,597.785 982.972,596.035 985.178,594.267 987.384,592.482 989.59,590.679 991.795,588.857 994.001,587.018 996.207,585.16 998.413,583.283 1000.62,581.387 1002.82,579.472 1005.03,577.538 1007.24,575.585 1009.44,573.612 1011.65,571.619 1013.85,569.606 1016.06,567.573 1018.26,565.52 1020.47,563.445 1022.68,561.35 1024.88,559.234 1027.09,557.096 1029.29,554.937 1031.5,552.757 1033.7,550.554 1035.91,548.329 1038.12,546.082 1040.32,543.812 1042.53,541.519 1044.73,539.203 1046.94,536.863 1049.15,534.501 1051.35,532.114 1053.56,529.703 1055.76,527.268 1057.97,524.808 1060.17,522.324 1062.38,519.814 1064.59,517.28 1066.79,514.719 1069,512.133 1071.2,509.521 1073.41,506.882 1075.61,504.217 1077.82,501.525 1080.03,498.806 1082.23,496.059 1084.44,493.285 1086.64,490.483 1088.85,487.652 1091.06,484.793 1093.26,481.906 1095.47,478.989 1097.67,476.043 1099.88,473.067 1102.08,470.061 1104.29,467.025 1106.5,463.959 1108.7,460.862 1110.91,457.734 1113.11,454.574 1115.32,451.382 1117.52,448.159 1119.73,444.903 1121.94,441.615 1124.14,438.293 1126.35,434.939 1128.55,431.55 1130.76,428.127 1132.96,424.67 1135.17,421.178 1137.38,417.651 1139.58,414.088 1141.79,410.489 1143.99,406.855 1146.2,403.184 1148.41,399.476 1150.61,395.73 1152.82,391.947 1155.02,388.127 1157.23,384.267 1159.43,380.369 1161.64,376.432 1163.85,372.455 1166.05,368.438 1168.26,364.381 1170.46,360.284 1172.67,356.145 1174.87,351.964 1177.08,347.741 1179.29,343.476 1181.49,339.168 1183.7,334.817 1185.9,330.422 1188.11,325.983 1190.31,321.499 1192.52,316.97 1194.73,312.396 1196.93,307.775 1199.14,303.108 1201.34,298.394 1203.55,293.632 1205.76,288.823 1207.96,283.965 1210.17,279.058 1212.37,274.102 1214.58,269.096 1216.78,264.039 1218.99,258.932 1221.2,253.773 1223.4,248.562 1225.61,243.299 1227.81,237.982 1230.02,232.612 1232.22,227.188 1234.43,221.709 1236.64,216.175 1238.84,210.585 1241.05,204.939 1243.25,199.236 1245.46,193.476 1247.66,187.657 1249.87,181.78 1252.08,175.844 1254.28,169.848 1256.49,163.792 1258.69,157.675 1260.9,151.496 1263.11,145.255 1265.31,138.951 1267.52,132.584 1269.72,126.152 1271.93,119.657 1274.13,113.095 1276.34,106.468 1278.55,99.7749 1280.75,93.0142 1282.96,86.1857 1285.16,425.534 1287.37,422.051 1289.57,418.533 1291.78,414.979 1293.99,411.39 1296.19,407.765 1298.4,404.103 1300.6,400.404 1302.81,396.668 1305.01,392.894 1307.22,389.083 1309.43,578.496 1311.63,576.552 1313.84,574.588 1316.04,572.604 1318.25,570.6 1320.46,568.576 1322.66,566.532 1324.87,564.467 1327.07,562.382 1329.28,560.276 1331.48,558.148 1333.69,555.999 1335.9,553.828 1338.1,551.636 1340.31,549.421 1342.51,547.185 1344.72,544.925 1346.92,542.644 1349.13,540.339 1351.34,538.011 1353.54,535.659 1355.75,533.284 1357.95,530.885 1360.16,528.462 1362.36,526.015 1364.57,523.543 1366.78,521.046 1368.98,518.524 1371.19,515.977 1373.39,513.404 1375.6,510.805 1377.81,508.18 1380.01,505.528 1382.22,502.85 1384.42,500.145 1386.63,497.413 1388.83,494.653 1391.04,491.865 1393.25,489.05 1395.45,486.206 1397.66,483.333 1399.86,480.431 1402.07,477.5 1404.27,474.54 1406.48,471.55 1408.69,468.53 1410.89,465.479 1413.1,462.397 1415.3,459.285 1417.51,456.141 1419.71,452.966 1421.92,449.758 1424.13,446.519 1426.33,443.246 1428.54,439.941 1430.74,436.602 1432.95,433.23 1435.16,429.824 1437.36,426.384 1439.57,422.909 1441.77,419.399 1443.98,415.854 1446.18,412.273 1448.39,408.657 1450.6,405.004 1452.8,586.547 1455.01,584.684 1457.21,582.802 1459.42,580.901 1461.62,578.98 1463.83,577.041 1466.04,575.082 1468.24,573.103 1470.45,571.104 1472.65,569.086 1474.86,567.047 1477.06,564.987 1479.27,562.907 1481.48,560.806 1483.68,558.684 1485.89,556.54 1488.09,554.375 1490.3,552.188 1492.51,549.979 1494.71,547.748 1496.92,545.495 1499.12,543.219 1501.33,540.92 1503.53,538.598 1505.74,536.252 1507.95,533.883 1510.15,531.491 1512.36,529.074 1514.56,526.633 1516.77,524.167 1518.97,521.676 1521.18,519.161 1523.39,516.62 1525.59,514.053 1527.8,511.461 1530,508.842 1532.21,506.198 1534.41,503.526 1536.62,500.828 1538.83,498.103 1541.03,495.35 1543.24,492.569 1545.44,489.76 1547.65,486.923 1549.86,484.058 1552.06,481.163 1554.27,478.24 1556.47,475.287 1558.68,472.304 1560.88,469.291 1563.09,466.248 1565.3,463.174 1567.5,460.07 1569.71,456.934 1571.91,453.766 1574.12,450.567 1576.32,447.335 1578.53,444.071 1580.74,440.774 1582.94,437.444 1585.15,434.08 1587.35,430.682 1589.56,427.251 1591.76,423.784 1593.97,420.283 1596.18,416.747 1598.38,413.175 1600.59,409.568 1602.79,588.851 1605,587.01 1607.21,585.152 1609.41,583.274 1611.62,581.378 1613.82,579.463 1616.03,577.528 1618.23,575.574 1620.44,573.6 1622.65,571.607 1624.85,569.593 1627.06,567.559 1629.26,565.505 1631.47,563.43 1633.67,561.334 1635.88,559.217 1638.09,557.079 1640.29,554.919 1642.5,552.738 1644.7,550.535 1646.91,548.309 1649.12,546.061 1651.32,543.791 1653.53,541.498 1655.73,539.181 1657.94,536.842 1660.14,534.478 1662.35,532.091 1664.56,529.68 1666.76,527.245 1668.97,524.785 1671.17,522.301 1673.38,519.791 1675.58,517.257 1677.79,514.696 1680,512.11 1682.2,509.498 1684.41,506.86 1686.61,504.195 1688.82,501.503 1691.02,498.784 1693.23,496.038 1695.44,493.264 1697.64,490.462 1699.85,487.632 1702.05,484.774 1704.26,481.886 1706.47,478.97 1708.67,476.024 1710.88,473.049 1713.08,470.043 1715.29,467.008 1717.49,463.942 1719.7,460.845 1721.91,457.717 1724.11,454.557 1726.32,451.366 1728.52,448.142 1730.73,444.887 1732.93,606.69 1735.14,605.03 1737.35,603.352 1739.55,601.658 1741.76,599.947 1743.96,598.218 1746.17,596.472 1748.37,594.709 1750.58,592.928 1752.79,591.128 1754.99,589.311 1757.2,587.476 1759.4,585.622 1761.61,583.749 1763.82,581.858 1766.02,579.947 1768.23,578.018 1770.43,576.069 1772.64,574.1 1774.84,572.111 1777.05,570.103 1779.26,568.074 1781.46,566.025 1783.67,563.956 1785.87,561.865 1788.08,559.754 1790.28,557.621 1792.49,555.467 1794.7,553.291 1796.9,551.093 1799.11,548.873 1801.31,546.631 1803.52,544.366 1805.72,542.078 1807.93,539.768 1810.14,537.434 1812.34,535.076 1814.55,532.695 1816.75,530.29 1818.96,527.861 1821.17,525.407 1823.37,522.928 1825.58,520.425 1827.78,517.896 1829.99,515.342 1832.19,512.763 1834.4,510.157 1836.61,507.525 1838.81,504.867 1841.02,502.182 1843.22,499.469 1845.43,496.73 1847.63,493.963 1849.84,631.475 1852.05,630.063 1854.25,628.638 1856.46,627.198 1858.66,625.743 1860.87,624.274 1863.07,622.791 1865.28,621.292 1867.49,619.778 1869.69,618.249 1871.9,616.705 1874.1,615.145 1876.31,613.569 1878.52,611.978 1880.72,610.371 1882.93,608.747 1885.13,607.107 1887.34,605.45 1889.54,603.777 1891.75,602.087 1893.96,600.38 1896.16,598.656 1898.37,596.915 1900.57,595.156 1902.78,593.379 1904.98,591.584 1907.19,589.772 1909.4,587.941 1911.6,586.092 1913.81,584.224 1916.01,582.337 1918.22,580.431 1920.42,675.137 1922.63,674.165 1924.84,673.183 1927.04,672.191 1929.25,671.189 1931.45,670.177 1933.66,669.155 1935.87,668.123 1938.07,667.08 1940.28,666.027 1942.48,664.964 1944.69,663.889 1946.89,662.804 1949.1,661.708 1951.31,660.601 1953.51,659.482 1955.72,658.353 1957.92,657.212 1960.13,656.06 1962.33,654.896 1964.54,653.72 1966.75,652.533 1968.95,651.333 1971.16,650.122 1973.36,648.898 1975.57,647.662 1977.77,646.414 1979.98,645.153 1982.19,643.879 1984.39,642.593 1986.6,641.293 1988.8,639.981 1991.01,638.655 1993.22,637.316 1995.42,635.964 1997.63,634.597 1999.83,633.218 2002.04,631.824 2004.24,630.416 2006.45,628.994 2008.66,627.558 2010.86,626.107 2013.07,624.641 2015.27,623.161 2017.48,621.666 2019.68,620.156 2021.89,618.631 2024.1,617.09 2026.3,615.534 2028.51,613.962 2030.71,612.375 2032.92,610.771 2035.12,609.152 2037.33,607.516 2039.54,605.863 2041.74,604.194 2043.95,602.508 2046.15,686.289 2048.36,685.429 2050.57,684.561 2052.77,683.684 2054.98,682.798 2057.18,681.903 2059.39,680.998 2061.59,680.085 2063.8,679.163 2066.01,678.232 2068.21,677.291 2070.42,676.34 2072.62,675.38 2074.83,674.411 2077.03,673.431 2079.24,672.442 2081.45,671.443 2083.65,670.434 2085.86,669.414 2088.06,668.385 2090.27,667.345 2092.47,666.294 2094.68,665.233 2096.89,664.161 2099.09,663.079 2101.3,661.986 2103.5,660.881 2105.71,659.766 2107.92,658.639 2110.12,657.501 2112.33,656.351 2114.53,655.19 2116.74,654.018 2118.94,652.833 2121.15,651.637 2123.36,650.428 2125.56,710.484 2127.77,709.868 2129.97,709.245 2132.18,708.616 2134.38,707.981 2136.59,707.339 2138.8,706.691 2141,706.037 2143.21,705.376 2145.41,704.708 2147.62,704.033 2149.82,703.352 2152.03,702.664 2154.24,701.968 2156.44,701.266 2158.65,700.557 2160.85,699.841 2163.06,699.117 2165.27,698.386 2167.47,697.648 2169.68,696.903 2171.88,696.15 2174.09,695.389 2176.29,694.621 2178.5,693.844 2180.71,693.061 2182.91,692.269 2185.12,691.469 2187.32,690.661 2189.53,689.846 2191.73,689.021 2193.94,688.189 2196.15,687.348 2198.35,686.499 2200.56,685.641 2202.76,684.775 2204.97,683.9 2207.18,727.389 2209.38,726.943 2211.59,726.492 2213.79,726.037 2216,725.577 2218.2,725.112 2220.41,724.643 2222.62,724.168 2224.82,723.69 2227.03,723.206 2229.23,722.718 2231.44,722.224 2233.64,721.726 2235.85,721.222 2238.06,720.714 2240.26,720.2 2242.47,719.682 2244.67,719.158 2246.88,718.629 2249.08,718.094 2251.29,717.554 2253.5,717.009 2255.7,716.458 2257.91,715.902 2260.11,715.34 2262.32,714.772 2264.53,714.199 2266.73,713.62 2268.94,713.035 2271.14,712.445 2273.35,711.848 2275.55,711.245 2277.76,710.636 2279.97,710.022 2282.17,709.4 2284.38,708.773 2286.58,708.14 2288.79,707.5 2290.99,706.853 2293.2,706.2 2295.41,705.541 2297.61,704.874 2299.82,704.201 2302.02,703.522 2304.23,702.835 2306.43,702.142 2308.64,701.441 2310.85,700.734 2313.05,700.019 2315.26,699.297 2317.46,698.568 2319.67,697.832 2321.88,697.088 2324.08,696.337 2326.29,695.578 2328.49,694.812 2330.7,694.037 2332.9,693.255 2335.11,692.466 2337.32,691.668 2339.52,690.862 2341.73,690.048 2343.93,689.226 2346.14,688.396 2348.34,687.557 2350.55,686.71 2352.76,685.854 "/>
<polyline clip-path="url(#clip372)" style="stroke:#e26f46; stroke-linecap:round; stroke-linejoin:round; stroke-width:8; stroke-opacity:1; fill:none" points="149.191,827.036 151.397,826.715 153.602,826.39 155.808,826.062 158.014,825.731 160.22,825.396 162.425,825.058 164.631,824.716 166.837,824.371 169.043,824.023 171.249,823.671 173.454,823.316 175.66,822.957 177.866,822.594 180.072,822.228 182.277,821.858 184.483,821.484 186.689,821.107 188.895,820.726 191.101,820.341 193.306,819.952 195.512,819.559 197.718,819.162 199.924,818.761 202.129,818.356 204.335,817.948 206.541,817.535 208.747,817.117 210.952,816.696 213.158,816.27 215.364,815.841 217.57,815.406 219.776,814.968 221.981,814.525 224.187,814.077 226.393,813.625 228.599,813.169 230.804,812.708 233.01,812.242 235.216,811.772 237.422,811.297 239.627,810.817 241.833,810.332 244.039,809.842 246.245,809.348 248.451,808.848 250.656,808.344 252.862,807.834 255.068,807.319 257.274,806.799 259.479,806.274 261.685,805.744 263.891,805.208 266.097,804.667 268.302,804.12 270.508,803.568 272.714,803.011 274.92,802.447 277.126,801.878 279.331,801.304 281.537,800.723 283.743,800.137 285.949,799.545 288.154,798.947 290.36,798.343 292.566,797.732 294.772,797.116 296.978,796.493 299.183,795.864 301.389,795.229 303.595,794.588 305.801,793.94 308.006,793.285 310.212,792.624 312.418,791.956 314.624,791.282 316.829,790.601 319.035,789.912 321.241,789.217 323.447,788.515 325.653,787.806 327.858,787.09 330.064,786.367 332.27,785.636 334.476,784.898 336.681,784.152 338.887,783.399 341.093,782.639 343.299,781.871 345.504,781.095 347.71,780.311 349.916,779.519 352.122,778.72 354.328,777.912 356.533,777.096 358.739,776.272 360.945,775.44 363.151,774.599 365.356,773.75 367.562,772.893 369.768,772.026 371.974,1024.55 374.179,1024.11 376.385,1023.67 378.591,1023.21 380.797,1022.76 383.003,1022.3 385.208,1021.83 387.414,1021.37 389.62,1020.89 391.826,1020.41 394.031,1019.93 396.237,1019.44 398.443,1018.95 400.649,1018.45 402.855,1017.95 405.06,1017.44 407.266,1016.92 409.472,1016.41 411.678,1015.88 413.883,1015.35 416.089,1014.82 418.295,1014.28 420.501,1013.73 422.706,1013.18 424.912,1012.63 427.118,1012.06 429.324,1011.5 431.53,1010.92 433.735,1010.34 435.941,1009.76 438.147,1009.17 440.353,1008.57 442.558,1007.97 444.764,1007.36 446.97,1006.75 449.176,1006.12 451.381,1005.5 453.587,1004.86 455.793,1004.22 457.999,1003.58 460.205,1002.92 462.41,1002.26 464.616,1001.6 466.822,1000.93 469.028,1000.25 471.233,999.56 473.439,998.866 475.645,998.166 477.851,997.459 480.056,996.744 482.262,996.023 484.468,995.294 486.674,994.557 488.88,993.814 491.085,993.063 493.291,992.304 495.497,991.538 497.703,990.764 499.908,989.982 502.114,989.192 504.32,988.395 506.526,987.589 508.732,986.775 510.937,985.953 513.143,985.123 515.349,984.285 517.555,983.438 519.76,982.582 521.966,981.718 524.172,980.845 526.378,979.964 528.583,979.073 530.789,978.174 532.995,977.266 535.201,976.348 537.407,975.421 539.612,974.485 541.818,973.539 544.024,972.584 546.23,971.62 548.435,970.645 550.641,969.661 552.847,968.667 555.053,967.663 557.258,966.648 559.464,965.624 561.67,964.589 563.876,963.544 566.082,962.488 568.287,961.422 570.493,960.345 572.699,959.257 574.905,958.158 577.11,957.048 579.316,955.927 581.522,954.794 583.728,953.651 585.933,952.496 588.139,951.329 590.345,950.15 592.551,948.96 594.757,947.757 596.962,946.543 599.168,945.316 601.374,944.077 603.58,942.825 605.785,941.561 607.991,940.284 610.197,938.995 612.403,937.692 614.609,936.376 616.814,935.047 619.02,933.705 621.226,932.349 623.432,930.98 625.637,929.597 627.843,928.2 630.049,926.788 632.255,925.363 634.46,923.923 636.666,922.469 638.872,921 641.078,919.517 643.284,918.018 645.489,916.505 647.695,914.976 649.901,913.432 652.107,911.872 654.312,910.297 656.518,908.706 658.724,907.098 660.93,905.475 663.135,903.835 665.341,902.179 667.547,900.506 669.753,898.816 671.959,897.109 674.164,895.385 676.37,893.644 678.576,891.885 680.782,890.108 682.987,888.314 685.193,886.501 687.399,884.67 689.605,882.821 691.81,880.953 694.016,879.067 696.222,877.161 698.428,875.236 700.634,873.292 702.839,871.328 705.045,869.345 707.251,867.341 709.457,865.318 711.662,863.274 713.868,861.209 716.074,859.124 718.28,857.018 720.486,854.89 722.691,852.742 724.897,850.571 727.103,848.379 729.309,846.165 731.514,843.928 733.72,841.669 735.926,839.387 738.132,837.083 740.337,834.755 742.543,832.403 744.749,830.028 746.955,827.63 749.161,825.207 751.366,822.759 753.572,820.287 755.778,817.79 757.984,815.268 760.189,812.721 762.395,810.148 764.601,807.549 766.807,804.924 769.012,802.273 771.218,799.595 773.424,796.89 775.63,794.157 777.836,791.398 780.041,788.61 782.247,785.795 784.453,782.951 786.659,780.078 788.864,777.177 791.07,774.246 793.276,771.88 795.482,1384.24 797.687,1383.48 799.893,1382.72 802.099,1381.95 804.305,1381.17 806.511,1380.39 808.716,1379.59 810.922,1378.79 813.128,1377.98 815.334,1377.16 817.539,1376.34 819.745,1375.5 821.951,1374.66 824.157,1373.81 826.363,1372.95 828.568,1372.08 830.774,1371.2 832.98,1370.32 835.186,1369.42 837.391,1368.52 839.597,1367.61 841.803,1366.68 844.009,1365.75 846.214,1364.81 848.42,1363.86 850.626,1362.9 852.832,1361.93 855.038,1360.95 857.243,1359.96 859.449,1358.96 861.655,1357.95 863.861,1356.93 866.066,1355.91 868.272,1354.87 870.478,1353.82 872.684,1352.75 874.889,1351.68 877.095,1350.6 879.301,1349.51 881.507,1348.4 883.713,1347.29 885.918,1346.16 888.124,1345.02 890.33,1343.87 892.536,1342.71 894.741,1341.54 896.947,1340.35 899.153,1339.16 901.359,1337.95 903.564,1336.73 905.77,1335.5 907.976,1334.25 910.182,1332.99 912.388,1331.72 914.593,1330.44 916.799,1329.14 919.005,1327.83 921.211,1326.51 923.416,1325.17 925.622,1323.82 927.828,1322.46 930.034,1321.09 932.24,1319.69 934.445,1318.29 936.651,1316.87 938.857,1315.44 941.063,1313.99 943.268,1312.53 945.474,1311.05 947.68,1309.56 949.886,1308.06 952.091,1306.53 954.297,1305 956.503,1303.45 958.709,1301.88 960.915,1300.29 963.12,1298.69 965.326,1297.08 967.532,1295.45 969.738,1293.8 971.943,1292.13 974.149,1290.45 976.355,1288.75 978.561,1287.04 980.766,1285.31 982.972,1283.56 985.178,1281.79 987.384,1280 989.59,1278.2 991.795,1276.38 994.001,1274.54 996.207,1272.68 998.413,1270.8 1000.62,1268.91 1002.82,1266.99 1005.03,1265.06 1007.24,1263.11 1009.44,1261.13 1011.65,1259.14 1013.85,1257.13 1016.06,1255.09 1018.26,1253.04 1020.47,1250.97 1022.68,1248.87 1024.88,1246.76 1027.09,1244.62 1029.29,1242.46 1031.5,1240.28 1033.7,1238.08 1035.91,1235.85 1038.12,1233.6 1040.32,1231.33 1042.53,1229.04 1044.73,1226.72 1046.94,1224.38 1049.15,1222.02 1051.35,1219.64 1053.56,1217.22 1055.76,1214.79 1057.97,1212.33 1060.17,1209.85 1062.38,1207.34 1064.59,1204.8 1066.79,1202.24 1069,1199.65 1071.2,1197.04 1073.41,1194.4 1075.61,1191.74 1077.82,1189.05 1080.03,1186.33 1082.23,1183.58 1084.44,1180.81 1086.64,1178 1088.85,1175.17 1091.06,1172.31 1093.26,1169.43 1095.47,1166.51 1097.67,1163.56 1099.88,1160.59 1102.08,1157.58 1104.29,1154.55 1106.5,1151.48 1108.7,1148.38 1110.91,1145.25 1113.11,1142.1 1115.32,1138.9 1117.52,1135.68 1119.73,1132.42 1121.94,1129.14 1124.14,1125.81 1126.35,1122.46 1128.55,1119.07 1130.76,1115.65 1132.96,1112.19 1135.17,1108.7 1137.38,1105.17 1139.58,1101.61 1141.79,1098.01 1143.99,1094.38 1146.2,1090.7 1148.41,1087 1150.61,1083.25 1152.82,1079.47 1155.02,1075.65 1157.23,1071.79 1159.43,1067.89 1161.64,1063.95 1163.85,1059.98 1166.05,1055.96 1168.26,1051.9 1170.46,1047.8 1172.67,1043.67 1174.87,1039.49 1177.08,1035.26 1179.29,1031 1181.49,1026.69 1183.7,1022.34 1185.9,1017.94 1188.11,1013.5 1190.31,1009.02 1192.52,1004.49 1194.73,999.917 1196.93,995.296 1199.14,990.629 1201.34,985.915 1203.55,981.154 1205.76,976.344 1207.96,971.486 1210.17,966.579 1212.37,961.623 1214.58,956.617 1216.78,951.561 1218.99,946.453 1221.2,941.294 1223.4,936.083 1225.61,930.82 1227.81,925.503 1230.02,920.133 1232.22,914.709 1234.43,909.23 1236.64,903.696 1238.84,898.107 1241.05,892.46 1243.25,886.757 1245.46,880.997 1247.66,875.179 1249.87,869.302 1252.08,863.365 1254.28,857.369 1256.49,851.313 1258.69,845.196 1260.9,839.017 1263.11,832.776 1265.31,826.472 1267.52,820.105 1269.72,813.674 1271.93,807.178 1274.13,800.617 1276.34,793.99 1278.55,787.296 1280.75,780.535 1282.96,773.707 1285.16,810.163 1287.37,806.68 1289.57,803.162 1291.78,799.608 1293.99,796.019 1296.19,792.393 1298.4,788.731 1300.6,785.033 1302.81,781.297 1305.01,777.523 1307.22,773.712 1309.43,948.012 1311.63,946.067 1313.84,944.103 1316.04,942.12 1318.25,940.116 1320.46,938.092 1322.66,936.048 1324.87,933.983 1327.07,931.898 1329.28,929.791 1331.48,927.664 1333.69,925.515 1335.9,923.344 1338.1,921.152 1340.31,918.937 1342.51,916.7 1344.72,914.441 1346.92,912.159 1349.13,909.854 1351.34,907.526 1353.54,905.175 1355.75,902.8 1357.95,900.401 1360.16,897.978 1362.36,895.531 1364.57,893.059 1366.78,890.562 1368.98,888.04 1371.19,885.492 1373.39,882.919 1375.6,880.321 1377.81,877.695 1380.01,875.044 1382.22,872.366 1384.42,869.661 1386.63,866.928 1388.83,864.169 1391.04,861.381 1393.25,858.565 1395.45,855.721 1397.66,852.849 1399.86,849.947 1402.07,847.016 1404.27,844.056 1406.48,841.066 1408.69,838.045 1410.89,834.995 1413.1,831.913 1415.3,828.801 1417.51,825.657 1419.71,822.481 1421.92,819.274 1424.13,816.034 1426.33,812.762 1428.54,809.457 1430.74,806.118 1432.95,802.746 1435.16,799.34 1437.36,795.9 1439.57,792.425 1441.77,788.915 1443.98,785.37 1446.18,781.789 1448.39,778.172 1450.6,774.519 1452.8,951.397 1455.01,949.534 1457.21,947.652 1459.42,945.75 1461.62,943.83 1463.83,941.891 1466.04,939.932 1468.24,937.953 1470.45,935.954 1472.65,933.936 1474.86,931.897 1477.06,929.837 1479.27,927.757 1481.48,925.656 1483.68,923.534 1485.89,921.39 1488.09,919.225 1490.3,917.038 1492.51,914.829 1494.71,912.598 1496.92,910.345 1499.12,908.069 1501.33,905.77 1503.53,903.448 1505.74,901.102 1507.95,898.733 1510.15,896.34 1512.36,893.924 1514.56,891.482 1516.77,889.017 1518.97,886.526 1521.18,884.01 1523.39,881.47 1525.59,878.903 1527.8,876.311 1530,873.692 1532.21,871.048 1534.41,868.376 1536.62,865.678 1538.83,862.952 1541.03,860.199 1543.24,857.419 1545.44,854.61 1547.65,851.773 1549.86,848.908 1552.06,846.013 1554.27,843.09 1556.47,840.137 1558.68,837.154 1560.88,834.141 1563.09,831.098 1565.3,828.024 1567.5,824.92 1569.71,821.784 1571.91,818.616 1574.12,815.416 1576.32,812.185 1578.53,808.921 1580.74,805.624 1582.94,802.293 1585.15,798.93 1587.35,795.532 1589.56,792.1 1591.76,788.634 1593.97,785.133 1596.18,781.597 1598.38,778.025 1600.59,774.418 1602.79,918.877 1605,917.037 1607.21,915.179 1609.41,913.301 1611.62,911.405 1613.82,909.49 1616.03,907.555 1618.23,905.601 1620.44,903.627 1622.65,901.634 1624.85,899.62 1627.06,897.586 1629.26,895.532 1631.47,893.457 1633.67,891.361 1635.88,889.244 1638.09,887.106 1640.29,884.946 1642.5,882.765 1644.7,880.561 1646.91,878.336 1649.12,876.088 1651.32,873.818 1653.53,871.524 1655.73,869.208 1657.94,866.868 1660.14,864.505 1662.35,862.118 1664.56,859.707 1666.76,857.272 1668.97,854.812 1671.17,852.328 1673.38,849.818 1675.58,847.283 1677.79,844.723 1680,842.137 1682.2,839.525 1684.41,836.887 1686.61,834.222 1688.82,831.53 1691.02,828.811 1693.23,826.065 1695.44,823.291 1697.64,820.489 1699.85,817.659 1702.05,814.8 1704.26,811.913 1706.47,808.997 1708.67,806.051 1710.88,803.076 1713.08,800.07 1715.29,797.035 1717.49,793.969 1719.7,790.872 1721.91,787.744 1724.11,784.584 1726.32,781.393 1728.52,778.169 1730.73,774.913 1732.93,886.117 1735.14,884.456 1737.35,882.778 1739.55,881.084 1741.76,879.373 1743.96,877.644 1746.17,875.898 1748.37,874.135 1750.58,872.354 1752.79,870.555 1754.99,868.737 1757.2,866.902 1759.4,865.048 1761.61,863.175 1763.82,861.284 1766.02,859.373 1768.23,857.444 1770.43,855.495 1772.64,853.526 1774.84,851.538 1777.05,849.529 1779.26,847.501 1781.46,845.451 1783.67,843.382 1785.87,841.291 1788.08,839.18 1790.28,837.047 1792.49,834.893 1794.7,832.717 1796.9,830.519 1799.11,828.299 1801.31,826.057 1803.52,823.792 1805.72,821.504 1807.93,819.194 1810.14,816.86 1812.34,814.502 1814.55,812.121 1816.75,809.716 1818.96,807.287 1821.17,804.833 1823.37,802.355 1825.58,799.851 1827.78,797.323 1829.99,794.769 1832.19,792.189 1834.4,789.583 1836.61,786.951 1838.81,784.293 1841.02,781.608 1843.22,778.896 1845.43,776.156 1847.63,773.389 1849.84,823.355 1852.05,821.944 1854.25,820.518 1856.46,819.078 1858.66,817.624 1860.87,816.155 1863.07,814.671 1865.28,813.173 1867.49,811.659 1869.69,810.13 1871.9,808.585 1874.1,807.026 1876.31,805.45 1878.52,803.859 1880.72,802.251 1882.93,800.627 1885.13,798.987 1887.34,797.331 1889.54,795.658 1891.75,793.968 1893.96,792.261 1896.16,790.537 1898.37,788.795 1900.57,787.036 1902.78,785.26 1904.98,783.465 1907.19,781.652 1909.4,779.822 1911.6,777.972 1913.81,776.104 1916.01,774.218 1918.22,772.312 1920.42,845.114 1922.63,844.142 1924.84,843.16 1927.04,842.169 1929.25,841.167 1931.45,840.155 1933.66,839.133 1935.87,838.101 1938.07,837.058 1940.28,836.005 1942.48,834.941 1944.69,833.867 1946.89,832.782 1949.1,831.686 1951.31,830.578 1953.51,829.46 1955.72,828.331 1957.92,827.19 1960.13,826.037 1962.33,824.874 1964.54,823.698 1966.75,822.51 1968.95,821.311 1971.16,820.1 1973.36,818.876 1975.57,817.64 1977.77,816.392 1979.98,815.131 1982.19,813.857 1984.39,812.57 1986.6,811.271 1988.8,809.959 1991.01,808.633 1993.22,807.294 1995.42,805.941 1997.63,804.575 1999.83,803.195 2002.04,801.802 2004.24,800.394 2006.45,798.972 2008.66,797.535 2010.86,796.085 2013.07,794.619 2015.27,793.139 2017.48,791.644 2019.68,790.134 2021.89,788.609 2024.1,787.068 2026.3,785.512 2028.51,783.94 2030.71,782.353 2032.92,780.749 2035.12,779.129 2037.33,777.493 2039.54,775.841 2041.74,774.172 2043.95,772.486 2046.15,835.95 2048.36,835.09 2050.57,834.221 2052.77,833.344 2054.98,832.458 2057.18,831.563 2059.39,830.659 2061.59,829.746 2063.8,828.824 2066.01,827.892 2068.21,826.951 2070.42,826.001 2072.62,825.041 2074.83,824.071 2077.03,823.092 2079.24,822.103 2081.45,821.103 2083.65,820.094 2085.86,819.075 2088.06,818.045 2090.27,817.005 2092.47,815.955 2094.68,814.894 2096.89,813.822 2099.09,812.74 2101.3,811.646 2103.5,810.542 2105.71,809.426 2107.92,808.3 2110.12,807.162 2112.33,806.012 2114.53,804.851 2116.74,803.678 2118.94,802.494 2121.15,801.297 2123.36,800.089 2125.56,799.004 2127.77,798.387 2129.97,797.764 2132.18,797.136 2134.38,796.5 2136.59,795.859 2138.8,795.211 2141,794.556 2143.21,793.895 2145.41,793.227 2147.62,792.552 2149.82,791.871 2152.03,791.183 2154.24,790.488 2156.44,789.785 2158.65,789.076 2160.85,788.36 2163.06,787.636 2165.27,786.906 2167.47,786.167 2169.68,785.422 2171.88,784.669 2174.09,783.908 2176.29,783.14 2178.5,782.364 2180.71,781.58 2182.91,780.788 2185.12,779.988 2187.32,779.181 2189.53,778.365 2191.73,777.541 2193.94,776.708 2196.15,775.867 2198.35,775.018 2200.56,774.16 2202.76,773.294 2204.97,772.419 2207.18,1089.19 2209.38,1088.74 2211.59,1088.29 2213.79,1087.83 2216,1087.37 2218.2,1086.91 2220.41,1086.44 2222.62,1085.96 2224.82,1085.49 2227.03,1085 2229.23,1084.51 2231.44,1084.02 2233.64,1083.52 2235.85,1083.02 2238.06,1082.51 2240.26,1082 2242.47,1081.48 2244.67,1080.95 2246.88,1080.43 2249.08,1079.89 2251.29,1079.35 2253.5,1078.81 2255.7,1078.25 2257.91,1077.7 2260.11,1077.14 2262.32,1076.57 2264.53,1076 2266.73,1075.42 2268.94,1074.83 2271.14,1074.24 2273.35,1073.64 2275.55,1073.04 2277.76,1072.43 2279.97,1071.82 2282.17,1071.2 2284.38,1070.57 2286.58,1069.94 2288.79,1069.3 2290.99,1068.65 2293.2,1068 2295.41,1067.34 2297.61,1066.67 2299.82,1066 2302.02,1065.32 2304.23,1064.63 2306.43,1063.94 2308.64,1063.24 2310.85,1062.53 2313.05,1061.82 2315.26,1061.09 2317.46,1060.36 2319.67,1059.63 2321.88,1058.88 2324.08,1058.13 2326.29,1057.37 2328.49,1056.61 2330.7,1055.83 2332.9,1055.05 2335.11,1054.26 2337.32,1053.46 2339.52,1052.66 2341.73,1051.84 2343.93,1051.02 2346.14,1050.19 2348.34,1049.35 2350.55,1048.51 2352.76,1047.65 "/>
<path clip-path="url(#clip370)" d="M1969.85 248.629 L2279.3 248.629 L2279.3 93.1086 L1969.85 93.1086  Z" fill="#ffffff" fill-rule="evenodd" fill-opacity="1"/>
<polyline clip-path="url(#clip370)" style="stroke:#000000; stroke-linecap:round; stroke-linejoin:round; stroke-width:4; stroke-opacity:1; fill:none" points="1969.85,248.629 2279.3,248.629 2279.3,93.1086 1969.85,93.1086 1969.85,248.629 "/>
<polyline clip-path="url(#clip370)" style="stroke:#009af9; stroke-linecap:round; stroke-linejoin:round; stroke-width:8; stroke-opacity:1; fill:none" points="1994.33,144.949 2141.24,144.949 "/>
<path clip-path="url(#clip370)" d="M2165.72 151.997 L2165.72 136.303 L2169.98 136.303 L2169.98 151.835 Q2169.98 155.516 2171.42 157.368 Q2172.85 159.196 2175.72 159.196 Q2179.17 159.196 2181.16 156.997 Q2183.18 154.798 2183.18 151.002 L2183.18 136.303 L2187.44 136.303 L2187.44 162.229 L2183.18 162.229 L2183.18 158.247 Q2181.63 160.608 2179.57 161.766 Q2177.53 162.9 2174.82 162.9 Q2170.35 162.9 2168.04 160.122 Q2165.72 157.344 2165.72 151.997 M2176.44 135.678 L2176.44 135.678 Z" fill="#000000" fill-rule="nonzero" fill-opacity="1" /><path clip-path="url(#clip370)" d="M2195.82 126.21 L2205.63 126.21 L2205.63 129.52 L2200.07 129.52 L2200.07 165.168 L2205.63 165.168 L2205.63 168.479 L2195.82 168.479 L2195.82 126.21 Z" fill="#000000" fill-rule="nonzero" fill-opacity="1" /><path clip-path="url(#clip370)" d="M2216.12 158.293 L2223.76 158.293 L2223.76 131.928 L2215.44 133.595 L2215.44 129.335 L2223.71 127.669 L2228.38 127.669 L2228.38 158.293 L2236.02 158.293 L2236.02 162.229 L2216.12 162.229 L2216.12 158.293 Z" fill="#000000" fill-rule="nonzero" fill-opacity="1" /><path clip-path="url(#clip370)" d="M2254.82 126.21 L2254.82 168.479 L2245 168.479 L2245 165.168 L2250.54 165.168 L2250.54 129.52 L2245 129.52 L2245 126.21 L2254.82 126.21 Z" fill="#000000" fill-rule="nonzero" fill-opacity="1" /><polyline clip-path="url(#clip370)" style="stroke:#e26f46; stroke-linecap:round; stroke-linejoin:round; stroke-width:8; stroke-opacity:1; fill:none" points="1994.33,196.789 2141.24,196.789 "/>
<path clip-path="url(#clip370)" d="M2165.72 203.837 L2165.72 188.143 L2169.98 188.143 L2169.98 203.675 Q2169.98 207.356 2171.42 209.208 Q2172.85 211.036 2175.72 211.036 Q2179.17 211.036 2181.16 208.837 Q2183.18 206.638 2183.18 202.842 L2183.18 188.143 L2187.44 188.143 L2187.44 214.069 L2183.18 214.069 L2183.18 210.087 Q2181.63 212.448 2179.57 213.606 Q2177.53 214.74 2174.82 214.74 Q2170.35 214.74 2168.04 211.962 Q2165.72 209.184 2165.72 203.837 M2176.44 187.518 L2176.44 187.518 Z" fill="#000000" fill-rule="nonzero" fill-opacity="1" /><path clip-path="url(#clip370)" d="M2195.82 178.05 L2205.63 178.05 L2205.63 181.36 L2200.07 181.36 L2200.07 217.008 L2205.63 217.008 L2205.63 220.319 L2195.82 220.319 L2195.82 178.05 Z" fill="#000000" fill-rule="nonzero" fill-opacity="1" /><path clip-path="url(#clip370)" d="M2219.33 210.133 L2235.65 210.133 L2235.65 214.069 L2213.71 214.069 L2213.71 210.133 Q2216.37 207.379 2220.95 202.749 Q2225.56 198.096 2226.74 196.754 Q2228.99 194.231 2229.87 192.495 Q2230.77 190.735 2230.77 189.046 Q2230.77 186.291 2228.82 184.555 Q2226.9 182.819 2223.8 182.819 Q2221.6 182.819 2219.15 183.583 Q2216.72 184.347 2213.94 185.897 L2213.94 181.175 Q2216.76 180.041 2219.22 179.462 Q2221.67 178.884 2223.71 178.884 Q2229.08 178.884 2232.27 181.569 Q2235.47 184.254 2235.47 188.745 Q2235.47 190.874 2234.66 192.796 Q2233.87 194.694 2231.76 197.286 Q2231.19 197.958 2228.08 201.175 Q2224.98 204.37 2219.33 210.133 Z" fill="#000000" fill-rule="nonzero" fill-opacity="1" /><path clip-path="url(#clip370)" d="M2254.82 178.05 L2254.82 220.319 L2245 220.319 L2245 217.008 L2250.54 217.008 L2250.54 181.36 L2245 181.36 L2245 178.05 L2254.82 178.05 Z" fill="#000000" fill-rule="nonzero" fill-opacity="1" /></svg>
