<?xml version="1.0" encoding="utf-8"?>
<svg xmlns="http://www.w3.org/2000/svg" xmlns:xlink="http://www.w3.org/1999/xlink" width="600" height="400" viewBox="0 0 2400 1600">
<defs>
  <clipPath id="clip620">
    <rect x="0" y="0" width="2400" height="1600"/>
  </clipPath>
</defs>
<path clip-path="url(#clip620)" d="M0 1600 L2400 1600 L2400 0 L0 0  Z" fill="#ffffff" fill-rule="evenodd" fill-opacity="1"/>
<defs>
  <clipPath id="clip621">
    <rect x="480" y="0" width="1681" height="1600"/>
  </clipPath>
</defs>
<path clip-path="url(#clip620)" d="M155.927 1486.45 L2352.76 1486.45 L2352.76 47.2441 L155.927 47.2441  Z" fill="#ffffff" fill-rule="evenodd" fill-opacity="1"/>
<defs>
  <clipPath id="clip622">
    <rect x="155" y="47" width="2198" height="1440"/>
  </clipPath>
</defs>
<polyline clip-path="url(#clip622)" style="stroke:#000000; stroke-linecap:round; stroke-linejoin:round; stroke-width:2; stroke-opacity:0.1; fill:none" points="216.12,1486.45 216.12,47.2441 "/>
<polyline clip-path="url(#clip622)" style="stroke:#000000; stroke-linecap:round; stroke-linejoin:round; stroke-width:2; stroke-opacity:0.1; fill:none" points="711.455,1486.45 711.455,47.2441 "/>
<polyline clip-path="url(#clip622)" style="stroke:#000000; stroke-linecap:round; stroke-linejoin:round; stroke-width:2; stroke-opacity:0.1; fill:none" points="1206.79,1486.45 1206.79,47.2441 "/>
<polyline clip-path="url(#clip622)" style="stroke:#000000; stroke-linecap:round; stroke-linejoin:round; stroke-width:2; stroke-opacity:0.1; fill:none" points="1702.12,1486.45 1702.12,47.2441 "/>
<polyline clip-path="url(#clip622)" style="stroke:#000000; stroke-linecap:round; stroke-linejoin:round; stroke-width:2; stroke-opacity:0.1; fill:none" points="2197.46,1486.45 2197.46,47.2441 "/>
<polyline clip-path="url(#clip620)" style="stroke:#000000; stroke-linecap:round; stroke-linejoin:round; stroke-width:4; stroke-opacity:1; fill:none" points="155.927,1486.45 2352.76,1486.45 "/>
<polyline clip-path="url(#clip620)" style="stroke:#000000; stroke-linecap:round; stroke-linejoin:round; stroke-width:4; stroke-opacity:1; fill:none" points="216.12,1486.45 216.12,1467.55 "/>
<polyline clip-path="url(#clip620)" style="stroke:#000000; stroke-linecap:round; stroke-linejoin:round; stroke-width:4; stroke-opacity:1; fill:none" points="711.455,1486.45 711.455,1467.55 "/>
<polyline clip-path="url(#clip620)" style="stroke:#000000; stroke-linecap:round; stroke-linejoin:round; stroke-width:4; stroke-opacity:1; fill:none" points="1206.79,1486.45 1206.79,1467.55 "/>
<polyline clip-path="url(#clip620)" style="stroke:#000000; stroke-linecap:round; stroke-linejoin:round; stroke-width:4; stroke-opacity:1; fill:none" points="1702.12,1486.45 1702.12,1467.55 "/>
<polyline clip-path="url(#clip620)" style="stroke:#000000; stroke-linecap:round; stroke-linejoin:round; stroke-width:4; stroke-opacity:1; fill:none" points="2197.46,1486.45 2197.46,1467.55 "/>
<path clip-path="url(#clip620)" d="M216.12 1517.37 Q212.509 1517.37 210.68 1520.93 Q208.875 1524.47 208.875 1531.6 Q208.875 1538.71 210.68 1542.27 Q212.509 1545.82 216.12 1545.82 Q219.754 1545.82 221.56 1542.27 Q223.388 1538.71 223.388 1531.6 Q223.388 1524.47 221.56 1520.93 Q219.754 1517.37 216.12 1517.37 M216.12 1513.66 Q221.93 1513.66 224.986 1518.27 Q228.064 1522.85 228.064 1531.6 Q228.064 1540.33 224.986 1544.94 Q221.93 1549.52 216.12 1549.52 Q210.31 1549.52 207.231 1544.94 Q204.176 1540.33 204.176 1531.6 Q204.176 1522.85 207.231 1518.27 Q210.31 1513.66 216.12 1513.66 Z" fill="#000000" fill-rule="nonzero" fill-opacity="1" /><path clip-path="url(#clip620)" d="M675.147 1544.91 L691.466 1544.91 L691.466 1548.85 L669.522 1548.85 L669.522 1544.91 Q672.184 1542.16 676.767 1537.53 Q681.374 1532.88 682.554 1531.53 Q684.8 1529.01 685.679 1527.27 Q686.582 1525.51 686.582 1523.82 Q686.582 1521.07 684.638 1519.33 Q682.716 1517.6 679.615 1517.6 Q677.415 1517.6 674.962 1518.36 Q672.531 1519.13 669.753 1520.68 L669.753 1515.95 Q672.578 1514.82 675.031 1514.24 Q677.485 1513.66 679.522 1513.66 Q684.892 1513.66 688.087 1516.35 Q691.281 1519.03 691.281 1523.52 Q691.281 1525.65 690.471 1527.57 Q689.684 1529.47 687.577 1532.07 Q686.999 1532.74 683.897 1535.95 Q680.795 1539.15 675.147 1544.91 Z" fill="#000000" fill-rule="nonzero" fill-opacity="1" /><path clip-path="url(#clip620)" d="M701.327 1514.29 L719.684 1514.29 L719.684 1518.22 L705.61 1518.22 L705.61 1526.7 Q706.628 1526.35 707.647 1526.19 Q708.665 1526 709.684 1526 Q715.471 1526 718.85 1529.17 Q722.23 1532.34 722.23 1537.76 Q722.23 1543.34 718.758 1546.44 Q715.286 1549.52 708.966 1549.52 Q706.79 1549.52 704.522 1549.15 Q702.276 1548.78 699.869 1548.04 L699.869 1543.34 Q701.952 1544.47 704.175 1545.03 Q706.397 1545.58 708.874 1545.58 Q712.878 1545.58 715.216 1543.48 Q717.554 1541.37 717.554 1537.76 Q717.554 1534.15 715.216 1532.04 Q712.878 1529.94 708.874 1529.94 Q706.999 1529.94 705.124 1530.35 Q703.272 1530.77 701.327 1531.65 L701.327 1514.29 Z" fill="#000000" fill-rule="nonzero" fill-opacity="1" /><path clip-path="url(#clip620)" d="M741.443 1517.37 Q737.832 1517.37 736.003 1520.93 Q734.198 1524.47 734.198 1531.6 Q734.198 1538.71 736.003 1542.27 Q737.832 1545.82 741.443 1545.82 Q745.077 1545.82 746.883 1542.27 Q748.711 1538.71 748.711 1531.6 Q748.711 1524.47 746.883 1520.93 Q745.077 1517.37 741.443 1517.37 M741.443 1513.66 Q747.253 1513.66 750.309 1518.27 Q753.387 1522.85 753.387 1531.6 Q753.387 1540.33 750.309 1544.94 Q747.253 1549.52 741.443 1549.52 Q735.633 1549.52 732.554 1544.94 Q729.499 1540.33 729.499 1531.6 Q729.499 1522.85 732.554 1518.27 Q735.633 1513.66 741.443 1513.66 Z" fill="#000000" fill-rule="nonzero" fill-opacity="1" /><path clip-path="url(#clip620)" d="M1166.41 1514.29 L1184.76 1514.29 L1184.76 1518.22 L1170.69 1518.22 L1170.69 1526.7 Q1171.71 1526.35 1172.73 1526.19 Q1173.75 1526 1174.76 1526 Q1180.55 1526 1183.93 1529.17 Q1187.31 1532.34 1187.31 1537.76 Q1187.31 1543.34 1183.84 1546.44 Q1180.37 1549.52 1174.05 1549.52 Q1171.87 1549.52 1169.6 1549.15 Q1167.36 1548.78 1164.95 1548.04 L1164.95 1543.34 Q1167.03 1544.47 1169.25 1545.03 Q1171.48 1545.58 1173.95 1545.58 Q1177.96 1545.58 1180.3 1543.48 Q1182.63 1541.37 1182.63 1537.76 Q1182.63 1534.15 1180.3 1532.04 Q1177.96 1529.94 1173.95 1529.94 Q1172.08 1529.94 1170.2 1530.35 Q1168.35 1530.77 1166.41 1531.65 L1166.41 1514.29 Z" fill="#000000" fill-rule="nonzero" fill-opacity="1" /><path clip-path="url(#clip620)" d="M1206.52 1517.37 Q1202.91 1517.37 1201.08 1520.93 Q1199.28 1524.47 1199.28 1531.6 Q1199.28 1538.71 1201.08 1542.27 Q1202.91 1545.82 1206.52 1545.82 Q1210.16 1545.82 1211.96 1542.27 Q1213.79 1538.71 1213.79 1531.6 Q1213.79 1524.47 1211.96 1520.93 Q1210.16 1517.37 1206.52 1517.37 M1206.52 1513.66 Q1212.33 1513.66 1215.39 1518.27 Q1218.47 1522.85 1218.47 1531.6 Q1218.47 1540.33 1215.39 1544.94 Q1212.33 1549.52 1206.52 1549.52 Q1200.71 1549.52 1197.63 1544.94 Q1194.58 1540.33 1194.58 1531.6 Q1194.58 1522.85 1197.63 1518.27 Q1200.71 1513.66 1206.52 1513.66 Z" fill="#000000" fill-rule="nonzero" fill-opacity="1" /><path clip-path="url(#clip620)" d="M1236.68 1517.37 Q1233.07 1517.37 1231.25 1520.93 Q1229.44 1524.47 1229.44 1531.6 Q1229.44 1538.71 1231.25 1542.27 Q1233.07 1545.82 1236.68 1545.82 Q1240.32 1545.82 1242.12 1542.27 Q1243.95 1538.71 1243.95 1531.6 Q1243.95 1524.47 1242.12 1520.93 Q1240.32 1517.37 1236.68 1517.37 M1236.68 1513.66 Q1242.5 1513.66 1245.55 1518.27 Q1248.63 1522.85 1248.63 1531.6 Q1248.63 1540.33 1245.55 1544.94 Q1242.5 1549.52 1236.68 1549.52 Q1230.87 1549.52 1227.8 1544.94 Q1224.74 1540.33 1224.74 1531.6 Q1224.74 1522.85 1227.8 1518.27 Q1230.87 1513.66 1236.68 1513.66 Z" fill="#000000" fill-rule="nonzero" fill-opacity="1" /><path clip-path="url(#clip620)" d="M1660.4 1514.29 L1682.62 1514.29 L1682.62 1516.28 L1670.08 1548.85 L1665.19 1548.85 L1677 1518.22 L1660.4 1518.22 L1660.4 1514.29 Z" fill="#000000" fill-rule="nonzero" fill-opacity="1" /><path clip-path="url(#clip620)" d="M1691.79 1514.29 L1710.14 1514.29 L1710.14 1518.22 L1696.07 1518.22 L1696.07 1526.7 Q1697.09 1526.35 1698.11 1526.19 Q1699.13 1526 1700.14 1526 Q1705.93 1526 1709.31 1529.17 Q1712.69 1532.34 1712.69 1537.76 Q1712.69 1543.34 1709.22 1546.44 Q1705.75 1549.52 1699.43 1549.52 Q1697.25 1549.52 1694.98 1549.15 Q1692.74 1548.78 1690.33 1548.04 L1690.33 1543.34 Q1692.41 1544.47 1694.64 1545.03 Q1696.86 1545.58 1699.33 1545.58 Q1703.34 1545.58 1705.68 1543.48 Q1708.02 1541.37 1708.02 1537.76 Q1708.02 1534.15 1705.68 1532.04 Q1703.34 1529.94 1699.33 1529.94 Q1697.46 1529.94 1695.58 1530.35 Q1693.73 1530.77 1691.79 1531.65 L1691.79 1514.29 Z" fill="#000000" fill-rule="nonzero" fill-opacity="1" /><path clip-path="url(#clip620)" d="M1731.9 1517.37 Q1728.29 1517.37 1726.46 1520.93 Q1724.66 1524.47 1724.66 1531.6 Q1724.66 1538.71 1726.46 1542.27 Q1728.29 1545.82 1731.9 1545.82 Q1735.54 1545.82 1737.34 1542.27 Q1739.17 1538.71 1739.17 1531.6 Q1739.17 1524.47 1737.34 1520.93 Q1735.54 1517.37 1731.9 1517.37 M1731.9 1513.66 Q1737.71 1513.66 1740.77 1518.27 Q1743.85 1522.85 1743.85 1531.6 Q1743.85 1540.33 1740.77 1544.94 Q1737.71 1549.52 1731.9 1549.52 Q1726.09 1549.52 1723.02 1544.94 Q1719.96 1540.33 1719.96 1531.6 Q1719.96 1522.85 1723.02 1518.27 Q1726.09 1513.66 1731.9 1513.66 Z" fill="#000000" fill-rule="nonzero" fill-opacity="1" /><path clip-path="url(#clip620)" d="M2141.98 1544.91 L2149.62 1544.91 L2149.62 1518.55 L2141.31 1520.21 L2141.31 1515.95 L2149.58 1514.29 L2154.25 1514.29 L2154.25 1544.91 L2161.89 1544.91 L2161.89 1548.85 L2141.98 1548.85 L2141.98 1544.91 Z" fill="#000000" fill-rule="nonzero" fill-opacity="1" /><path clip-path="url(#clip620)" d="M2181.34 1517.37 Q2177.72 1517.37 2175.9 1520.93 Q2174.09 1524.47 2174.09 1531.6 Q2174.09 1538.71 2175.9 1542.27 Q2177.72 1545.82 2181.34 1545.82 Q2184.97 1545.82 2186.78 1542.27 Q2188.6 1538.71 2188.6 1531.6 Q2188.6 1524.47 2186.78 1520.93 Q2184.97 1517.37 2181.34 1517.37 M2181.34 1513.66 Q2187.15 1513.66 2190.2 1518.27 Q2193.28 1522.85 2193.28 1531.6 Q2193.28 1540.33 2190.2 1544.94 Q2187.15 1549.52 2181.34 1549.52 Q2175.53 1549.52 2172.45 1544.94 Q2169.39 1540.33 2169.39 1531.6 Q2169.39 1522.85 2172.45 1518.27 Q2175.53 1513.66 2181.34 1513.66 Z" fill="#000000" fill-rule="nonzero" fill-opacity="1" /><path clip-path="url(#clip620)" d="M2211.5 1517.37 Q2207.89 1517.37 2206.06 1520.93 Q2204.25 1524.47 2204.25 1531.6 Q2204.25 1538.71 2206.06 1542.27 Q2207.89 1545.82 2211.5 1545.82 Q2215.13 1545.82 2216.94 1542.27 Q2218.77 1538.71 2218.77 1531.6 Q2218.77 1524.47 2216.94 1520.93 Q2215.13 1517.37 2211.5 1517.37 M2211.5 1513.66 Q2217.31 1513.66 2220.36 1518.27 Q2223.44 1522.85 2223.44 1531.6 Q2223.44 1540.33 2220.36 1544.94 Q2217.31 1549.52 2211.5 1549.52 Q2205.69 1549.52 2202.61 1544.94 Q2199.55 1540.33 2199.55 1531.6 Q2199.55 1522.85 2202.61 1518.27 Q2205.69 1513.66 2211.5 1513.66 Z" fill="#000000" fill-rule="nonzero" fill-opacity="1" /><path clip-path="url(#clip620)" d="M2241.66 1517.37 Q2238.05 1517.37 2236.22 1520.93 Q2234.41 1524.47 2234.41 1531.6 Q2234.41 1538.71 2236.22 1542.27 Q2238.05 1545.82 2241.66 1545.82 Q2245.29 1545.82 2247.1 1542.27 Q2248.93 1538.71 2248.93 1531.6 Q2248.93 1524.47 2247.1 1520.93 Q2245.29 1517.37 2241.66 1517.37 M2241.66 1513.66 Q2247.47 1513.66 2250.53 1518.27 Q2253.6 1522.85 2253.6 1531.6 Q2253.6 1540.33 2250.53 1544.94 Q2247.47 1549.52 2241.66 1549.52 Q2235.85 1549.52 2232.77 1544.94 Q2229.72 1540.33 2229.72 1531.6 Q2229.72 1522.85 2232.77 1518.27 Q2235.85 1513.66 2241.66 1513.66 Z" fill="#000000" fill-rule="nonzero" fill-opacity="1" /><polyline clip-path="url(#clip622)" style="stroke:#000000; stroke-linecap:round; stroke-linejoin:round; stroke-width:2; stroke-opacity:0.1; fill:none" points="155.927,1445.72 2352.76,1445.72 "/>
<polyline clip-path="url(#clip622)" style="stroke:#000000; stroke-linecap:round; stroke-linejoin:round; stroke-width:2; stroke-opacity:0.1; fill:none" points="155.927,1121.49 2352.76,1121.49 "/>
<polyline clip-path="url(#clip622)" style="stroke:#000000; stroke-linecap:round; stroke-linejoin:round; stroke-width:2; stroke-opacity:0.1; fill:none" points="155.927,797.259 2352.76,797.259 "/>
<polyline clip-path="url(#clip622)" style="stroke:#000000; stroke-linecap:round; stroke-linejoin:round; stroke-width:2; stroke-opacity:0.1; fill:none" points="155.927,473.031 2352.76,473.031 "/>
<polyline clip-path="url(#clip622)" style="stroke:#000000; stroke-linecap:round; stroke-linejoin:round; stroke-width:2; stroke-opacity:0.1; fill:none" points="155.927,148.803 2352.76,148.803 "/>
<polyline clip-path="url(#clip620)" style="stroke:#000000; stroke-linecap:round; stroke-linejoin:round; stroke-width:4; stroke-opacity:1; fill:none" points="155.927,1486.45 155.927,47.2441 "/>
<polyline clip-path="url(#clip620)" style="stroke:#000000; stroke-linecap:round; stroke-linejoin:round; stroke-width:4; stroke-opacity:1; fill:none" points="155.927,1445.72 174.825,1445.72 "/>
<polyline clip-path="url(#clip620)" style="stroke:#000000; stroke-linecap:round; stroke-linejoin:round; stroke-width:4; stroke-opacity:1; fill:none" points="155.927,1121.49 174.825,1121.49 "/>
<polyline clip-path="url(#clip620)" style="stroke:#000000; stroke-linecap:round; stroke-linejoin:round; stroke-width:4; stroke-opacity:1; fill:none" points="155.927,797.259 174.825,797.259 "/>
<polyline clip-path="url(#clip620)" style="stroke:#000000; stroke-linecap:round; stroke-linejoin:round; stroke-width:4; stroke-opacity:1; fill:none" points="155.927,473.031 174.825,473.031 "/>
<polyline clip-path="url(#clip620)" style="stroke:#000000; stroke-linecap:round; stroke-linejoin:round; stroke-width:4; stroke-opacity:1; fill:none" points="155.927,148.803 174.825,148.803 "/>
<path clip-path="url(#clip620)" d="M52.7977 1428.44 L71.1541 1428.44 L71.1541 1432.37 L57.0801 1432.37 L57.0801 1440.84 Q58.0986 1440.5 59.1171 1440.33 Q60.1356 1440.15 61.1541 1440.15 Q66.9411 1440.15 70.3207 1443.32 Q73.7003 1446.49 73.7003 1451.91 Q73.7003 1457.49 70.2281 1460.59 Q66.7559 1463.67 60.4365 1463.67 Q58.2606 1463.67 55.9921 1463.3 Q53.7467 1462.93 51.3393 1462.19 L51.3393 1457.49 Q53.4227 1458.62 55.6449 1459.18 Q57.8671 1459.73 60.3439 1459.73 Q64.3485 1459.73 66.6865 1457.63 Q69.0244 1455.52 69.0244 1451.91 Q69.0244 1448.3 66.6865 1446.19 Q64.3485 1444.08 60.3439 1444.08 Q58.4689 1444.08 56.5939 1444.5 Q54.7421 1444.92 52.7977 1445.8 L52.7977 1428.44 Z" fill="#000000" fill-rule="nonzero" fill-opacity="1" /><path clip-path="url(#clip620)" d="M82.9133 1457.12 L87.7975 1457.12 L87.7975 1463 L82.9133 1463 L82.9133 1457.12 Z" fill="#000000" fill-rule="nonzero" fill-opacity="1" /><path clip-path="url(#clip620)" d="M107.983 1431.51 Q104.371 1431.51 102.543 1435.08 Q100.737 1438.62 100.737 1445.75 Q100.737 1452.86 102.543 1456.42 Q104.371 1459.96 107.983 1459.96 Q111.617 1459.96 113.422 1456.42 Q115.251 1452.86 115.251 1445.75 Q115.251 1438.62 113.422 1435.08 Q111.617 1431.51 107.983 1431.51 M107.983 1427.81 Q113.793 1427.81 116.848 1432.42 Q119.927 1437 119.927 1445.75 Q119.927 1454.48 116.848 1459.08 Q113.793 1463.67 107.983 1463.67 Q102.172 1463.67 99.0937 1459.08 Q96.0382 1454.48 96.0382 1445.75 Q96.0382 1437 99.0937 1432.42 Q102.172 1427.81 107.983 1427.81 Z" fill="#000000" fill-rule="nonzero" fill-opacity="1" /><path clip-path="url(#clip620)" d="M53.793 1104.21 L72.1494 1104.21 L72.1494 1108.14 L58.0754 1108.14 L58.0754 1116.61 Q59.0939 1116.27 60.1124 1116.11 Q61.131 1115.92 62.1495 1115.92 Q67.9365 1115.92 71.3161 1119.09 Q74.6957 1122.26 74.6957 1127.68 Q74.6957 1133.26 71.2235 1136.36 Q67.7513 1139.44 61.4319 1139.44 Q59.256 1139.44 56.9875 1139.07 Q54.7421 1138.7 52.3347 1137.96 L52.3347 1133.26 Q54.418 1134.39 56.6402 1134.95 Q58.8625 1135.5 61.3393 1135.5 Q65.3439 1135.5 67.6819 1133.4 Q70.0198 1131.29 70.0198 1127.68 Q70.0198 1124.07 67.6819 1121.96 Q65.3439 1119.86 61.3393 1119.86 Q59.4643 1119.86 57.5893 1120.27 Q55.7375 1120.69 53.793 1121.57 L53.793 1104.21 Z" fill="#000000" fill-rule="nonzero" fill-opacity="1" /><path clip-path="url(#clip620)" d="M83.9086 1132.89 L88.7928 1132.89 L88.7928 1138.77 L83.9086 1138.77 L83.9086 1132.89 Z" fill="#000000" fill-rule="nonzero" fill-opacity="1" /><path clip-path="url(#clip620)" d="M99.0243 1104.21 L117.381 1104.21 L117.381 1108.14 L103.307 1108.14 L103.307 1116.61 Q104.325 1116.27 105.344 1116.11 Q106.362 1115.92 107.381 1115.92 Q113.168 1115.92 116.547 1119.09 Q119.927 1122.26 119.927 1127.68 Q119.927 1133.26 116.455 1136.36 Q112.983 1139.44 106.663 1139.44 Q104.487 1139.44 102.219 1139.07 Q99.9733 1138.7 97.566 1137.96 L97.566 1133.26 Q99.6493 1134.39 101.871 1134.95 Q104.094 1135.5 106.571 1135.5 Q110.575 1135.5 112.913 1133.4 Q115.251 1131.29 115.251 1127.68 Q115.251 1124.07 112.913 1121.96 Q110.575 1119.86 106.571 1119.86 Q104.696 1119.86 102.821 1120.27 Q100.969 1120.69 99.0243 1121.57 L99.0243 1104.21 Z" fill="#000000" fill-rule="nonzero" fill-opacity="1" /><path clip-path="url(#clip620)" d="M63.33 795.396 Q60.1819 795.396 58.33 797.549 Q56.5014 799.701 56.5014 803.451 Q56.5014 807.178 58.33 809.354 Q60.1819 811.507 63.33 811.507 Q66.4782 811.507 68.3068 809.354 Q70.1587 807.178 70.1587 803.451 Q70.1587 799.701 68.3068 797.549 Q66.4782 795.396 63.33 795.396 M72.6124 780.743 L72.6124 785.002 Q70.8531 784.169 69.0476 783.729 Q67.2652 783.289 65.5059 783.289 Q60.8763 783.289 58.4226 786.414 Q55.9921 789.539 55.6449 795.859 Q57.0106 793.845 59.0708 792.78 Q61.131 791.692 63.6078 791.692 Q68.8161 791.692 71.8253 794.864 Q74.8577 798.012 74.8577 803.451 Q74.8577 808.775 71.7096 811.993 Q68.5615 815.211 63.33 815.211 Q57.3347 815.211 54.1634 810.627 Q50.9921 806.021 50.9921 797.294 Q50.9921 789.1 54.881 784.239 Q58.7699 779.354 65.3208 779.354 Q67.08 779.354 68.8624 779.702 Q70.6679 780.049 72.6124 780.743 Z" fill="#000000" fill-rule="nonzero" fill-opacity="1" /><path clip-path="url(#clip620)" d="M82.9133 808.66 L87.7975 808.66 L87.7975 814.539 L82.9133 814.539 L82.9133 808.66 Z" fill="#000000" fill-rule="nonzero" fill-opacity="1" /><path clip-path="url(#clip620)" d="M107.983 783.058 Q104.371 783.058 102.543 786.623 Q100.737 790.164 100.737 797.294 Q100.737 804.4 102.543 807.965 Q104.371 811.507 107.983 811.507 Q111.617 811.507 113.422 807.965 Q115.251 804.4 115.251 797.294 Q115.251 790.164 113.422 786.623 Q111.617 783.058 107.983 783.058 M107.983 779.354 Q113.793 779.354 116.848 783.961 Q119.927 788.544 119.927 797.294 Q119.927 806.021 116.848 810.627 Q113.793 815.211 107.983 815.211 Q102.172 815.211 99.0937 810.627 Q96.0382 806.021 96.0382 797.294 Q96.0382 788.544 99.0937 783.961 Q102.172 779.354 107.983 779.354 Z" fill="#000000" fill-rule="nonzero" fill-opacity="1" /><path clip-path="url(#clip620)" d="M64.3254 471.168 Q61.1773 471.168 59.3254 473.321 Q57.4967 475.473 57.4967 479.223 Q57.4967 482.95 59.3254 485.126 Q61.1773 487.279 64.3254 487.279 Q67.4735 487.279 69.3022 485.126 Q71.1541 482.95 71.1541 479.223 Q71.1541 475.473 69.3022 473.321 Q67.4735 471.168 64.3254 471.168 M73.6077 456.515 L73.6077 460.774 Q71.8485 459.941 70.0429 459.501 Q68.2606 459.061 66.5013 459.061 Q61.8717 459.061 59.418 462.186 Q56.9875 465.311 56.6402 471.631 Q58.006 469.617 60.0662 468.552 Q62.1263 467.464 64.6032 467.464 Q69.8115 467.464 72.8207 470.635 Q75.8531 473.783 75.8531 479.223 Q75.8531 484.547 72.705 487.765 Q69.5568 490.982 64.3254 490.982 Q58.33 490.982 55.1588 486.399 Q51.9875 481.793 51.9875 473.066 Q51.9875 464.871 55.8764 460.01 Q59.7652 455.126 66.3161 455.126 Q68.0754 455.126 69.8578 455.473 Q71.6633 455.821 73.6077 456.515 Z" fill="#000000" fill-rule="nonzero" fill-opacity="1" /><path clip-path="url(#clip620)" d="M83.9086 484.432 L88.7928 484.432 L88.7928 490.311 L83.9086 490.311 L83.9086 484.432 Z" fill="#000000" fill-rule="nonzero" fill-opacity="1" /><path clip-path="url(#clip620)" d="M99.0243 455.751 L117.381 455.751 L117.381 459.686 L103.307 459.686 L103.307 468.158 Q104.325 467.811 105.344 467.649 Q106.362 467.464 107.381 467.464 Q113.168 467.464 116.547 470.635 Q119.927 473.807 119.927 479.223 Q119.927 484.802 116.455 487.904 Q112.983 490.982 106.663 490.982 Q104.487 490.982 102.219 490.612 Q99.9733 490.242 97.566 489.501 L97.566 484.802 Q99.6493 485.936 101.871 486.492 Q104.094 487.047 106.571 487.047 Q110.575 487.047 112.913 484.941 Q115.251 482.834 115.251 479.223 Q115.251 475.612 112.913 473.506 Q110.575 471.399 106.571 471.399 Q104.696 471.399 102.821 471.816 Q100.969 472.233 99.0243 473.112 L99.0243 455.751 Z" fill="#000000" fill-rule="nonzero" fill-opacity="1" /><path clip-path="url(#clip620)" d="M51.5708 131.523 L73.7929 131.523 L73.7929 133.514 L61.2467 166.083 L56.3625 166.083 L68.168 135.458 L51.5708 135.458 L51.5708 131.523 Z" fill="#000000" fill-rule="nonzero" fill-opacity="1" /><path clip-path="url(#clip620)" d="M82.9133 160.203 L87.7975 160.203 L87.7975 166.083 L82.9133 166.083 L82.9133 160.203 Z" fill="#000000" fill-rule="nonzero" fill-opacity="1" /><path clip-path="url(#clip620)" d="M107.983 134.602 Q104.371 134.602 102.543 138.166 Q100.737 141.708 100.737 148.838 Q100.737 155.944 102.543 159.509 Q104.371 163.051 107.983 163.051 Q111.617 163.051 113.422 159.509 Q115.251 155.944 115.251 148.838 Q115.251 141.708 113.422 138.166 Q111.617 134.602 107.983 134.602 M107.983 130.898 Q113.793 130.898 116.848 135.504 Q119.927 140.088 119.927 148.838 Q119.927 157.565 116.848 162.171 Q113.793 166.754 107.983 166.754 Q102.172 166.754 99.0937 162.171 Q96.0382 157.565 96.0382 148.838 Q96.0382 140.088 99.0937 135.504 Q102.172 130.898 107.983 130.898 Z" fill="#000000" fill-rule="nonzero" fill-opacity="1" /><polyline clip-path="url(#clip622)" style="stroke:#009af9; stroke-linecap:round; stroke-linejoin:round; stroke-width:4; stroke-opacity:1; fill:none" points="218.101,1445.72 220.083,1445.72 222.064,1445.72 224.045,1445.72 226.027,1445.72 228.008,1445.72 229.989,1316.02 231.971,1316.33 233.952,1316.33 235.933,1140.06 237.915,1154.34 239.896,1207.16 241.877,1250.4 243.859,1250.4 245.84,1005.5 247.821,1056.43 249.803,1126.99 251.784,1184.77 253.765,1232.07 255.747,1270.8 257.728,1270.8 259.709,1105.75 261.691,1110.94 263.672,1171.62 265.653,1221.31 267.635,1261.99 269.616,1261.99 271.597,1004.66 273.579,1004.66 275.56,888.144 277.542,888.144 279.523,642.077 281.504,743.021 283.486,743.021 285.467,761.261 287.448,761.261 289.43,581.198 291.411,581.198 293.392,347.863 295.374,371.966 297.355,371.966 299.336,456.977 301.318,456.977 303.299,361.511 305.28,377.071 307.262,377.071 309.243,184.747 311.224,344.201 313.206,344.201 315.187,239.939 317.168,435.18 319.15,618.359 321.131,618.359 323.112,475.162 325.094,521.275 327.075,521.275 329.056,298.56 331.038,467.712 333.019,644.994 335,790.14 336.982,908.976 338.963,1006.27 340.944,1085.93 342.926,1151.15 344.907,1151.15 346.888,1055.97 348.87,1084.27 350.851,1084.27 352.832,975.202 354.814,1037.18 356.795,1111.23 358.776,1171.86 360.758,1221.5 362.739,1262.15 364.72,1295.42 366.702,1322.67 368.683,1322.67 370.664,1141.42 372.646,1166.41 374.627,1166.41 376.608,1069.32 378.59,1096.83 380.571,1160.07 382.552,1211.85 384.534,1211.85 386.515,1041.45 388.496,1076.64 390.478,1143.54 392.459,1198.31 394.44,1198.31 396.422,1003.86 398.403,1083.83 400.384,1149.43 402.366,1203.14 404.347,1247.11 406.329,1283.11 408.31,1312.59 410.291,1312.59 412.273,1199.27 414.254,1215.65 416.235,1215.65 418.217,987.414 420.198,1011.73 422.179,1090.4 424.161,1154.81 426.142,1154.81 428.123,903.097 430.105,989.422 432.086,1072.13 434.067,1072.13 436.049,992.079 438.03,1017.4 440.011,1095.04 441.993,1158.61 443.974,1158.61 445.955,993.408 447.937,1033.25 449.918,1108.02 451.899,1169.23 453.881,1219.35 455.862,1260.38 457.843,1293.98 459.825,1293.98 461.806,1118.44 463.787,1139.41 465.769,1194.94 467.75,1194.94 469.731,1068.36 471.713,1132.87 473.694,1189.58 475.675,1189.58 477.657,1106.29 479.638,1106.34 481.619,1167.86 483.601,1167.86 485.582,980.205 487.563,1054.9 489.545,1125.74 491.526,1183.75 493.507,1231.23 495.489,1231.23 497.47,1138.8 499.451,1141.61 501.433,1196.73 503.414,1196.73 505.395,1032.43 507.377,1060.58 509.358,1130.39 511.339,1130.39 513.321,977.269 515.302,1004.2 517.283,1004.2 519.265,936.926 521.246,960.565 523.227,1048.51 525.209,1120.51 527.19,1120.51 529.172,992.346 531.153,992.346 533.134,887.408 535.116,959.931 537.097,959.931 539.078,844.627 541.06,857.675 543.041,857.675 545.022,616.356 547.004,616.356 548.985,537.753 550.966,628.436 552.948,776.584 554.929,897.877 556.91,897.877 558.892,778.178 560.873,812.71 562.854,812.71 564.836,652.217 566.817,675.771 568.798,815.338 570.78,815.338 572.761,642.486 574.742,683.453 576.724,821.628 578.705,934.756 580.686,1027.38 582.668,1027.38 584.649,864.718 586.63,930.798 588.612,1024.14 590.593,1100.56 592.574,1163.12 594.556,1163.12 596.537,1080.42 598.518,1086.99 600.5,1152.01 602.481,1205.25 604.462,1248.84 606.444,1248.84 608.425,1017.28 610.406,1037.21 612.388,1037.21 614.369,952.583 616.35,991.912 618.332,1074.17 620.313,1074.17 622.294,858.694 624.276,900.7 626.257,999.495 628.238,1080.38 630.22,1080.38 632.201,842.082 634.182,842.082 636.164,771.929 638.145,796.217 640.126,796.217 642.108,538.445 644.089,538.445 646.07,293.394 648.052,293.394 650.033,221.128 652.014,303.26 653.996,303.26 655.977,224.8 657.959,224.8 659.94,263.817 661.921,338.433 663.903,539.15 665.884,703.482 667.865,838.026 669.847,948.182 671.828,948.182 673.809,706.868 675.791,818.002 677.772,818.002 679.753,857.136 681.735,868.155 683.716,972.849 685.697,972.849 687.679,768.014 689.66,818.51 691.641,932.203 693.623,932.203 695.604,882.886 697.585,882.886 699.567,669.638 701.548,732.001 703.529,861.375 705.511,967.298 707.492,1054.02 709.473,1125.02 711.455,1183.15 713.436,1183.15 715.417,1093.65 717.399,1105.38 719.38,1105.38 721.361,858.866 723.343,946.358 725.324,1036.88 727.305,1036.88 729.287,797.616 731.268,887.629 733.249,988.793 735.231,988.793 737.212,887.082 739.193,887.082 741.175,712.542 743.156,782.549 745.137,902.761 747.119,902.761 749.1,699.597 751.081,764.288 753.063,887.81 755.044,887.81 757.025,853.362 759.007,860.9 760.988,966.909 762.969,966.909 764.951,875.379 766.932,938.324 768.913,1030.3 770.895,1105.6 772.876,1105.6 774.857,990.33 776.839,990.33 778.82,800.548 780.802,888.29 782.783,888.29 784.764,703.579 786.746,827.203 788.727,827.203 790.708,662.618 792.69,688.516 794.671,825.773 796.652,938.149 798.634,1030.16 800.615,1105.48 802.596,1105.48 804.578,938.164 806.559,994.035 808.54,1075.91 810.522,1075.91 812.503,970.148 814.484,970.148 816.466,916.677 818.447,971.262 820.428,1057.27 822.41,1127.68 824.391,1127.68 826.372,988.482 828.354,992.504 830.335,1074.66 832.316,1074.66 834.298,989.23 836.279,1021.35 838.26,1021.35 840.242,922.099 842.223,983.892 844.204,1067.61 846.186,1136.15 848.167,1136.15 850.148,964.212 852.13,1020.44 854.111,1020.44 856.092,807.115 858.074,807.115 860.055,567.32 862.036,567.32 864.018,515.029 865.999,551.373 867.98,551.373 869.962,316.784 871.943,316.784 873.924,292.987 875.906,292.987 877.887,123.781 879.868,189.723 881.85,189.723 883.831,87.9763 885.812,174.553 887.794,404.975 889.775,404.975 891.756,199.805 893.738,369.595 895.719,369.595 897.7,170.98 899.682,339.589 901.663,540.095 903.644,704.257 905.626,704.257 907.607,534.839 909.589,673.802 911.57,813.726 913.551,813.726 915.533,799.225 917.514,799.225 919.495,756.915 921.477,810.83 923.458,925.915 925.439,925.915 927.421,737.623 929.402,737.623 931.383,538.805 933.365,623.878 935.346,623.878 937.327,444.53 939.309,610.579 941.29,610.579 943.271,455.86 945.253,594.717 947.234,748.977 949.215,875.274 951.197,875.274 953.178,708.164 955.159,708.164 957.141,495.498 959.122,573.183 961.103,731.346 963.085,860.839 965.066,966.859 967.047,1053.66 969.029,1124.73 971.01,1182.91 972.991,1230.55 974.973,1269.55 976.954,1301.49 978.935,1327.63 980.917,1327.63 982.898,1139.47 984.879,1139.47 986.861,968.743 988.842,998.108 990.823,1079.25 992.805,1079.25 994.786,967.634 996.767,1033.98 998.749,1108.62 1000.73,1169.72 1002.71,1219.75 1004.69,1219.75 1006.67,1191.09 1008.66,1197.5 1010.64,1242.49 1012.62,1279.33 1014.6,1279.33 1016.58,1173.32 1018.56,1185.69 1020.54,1232.82 1022.52,1232.82 1024.51,1038.53 1026.49,1038.53 1028.47,974.306 1030.45,974.306 1032.43,809.989 1034.41,809.989 1036.39,814.372 1038.38,824.258 1040.36,824.258 1042.34,610.133 1044.32,707.865 1046.3,841.615 1048.28,841.615 1050.26,678.936 1052.24,678.936 1054.23,514.088 1056.21,514.088 1058.19,447.771 1060.17,482.946 1062.15,482.946 1064.13,318.261 1066.11,318.261 1068.1,214.573 1070.08,314.322 1072.06,314.322 1074.04,315.444 1076.02,463.03 1078,463.03 1079.98,439.857 1081.96,522.07 1083.95,689.498 1085.93,826.577 1087.91,826.577 1089.89,639.548 1091.87,639.548 1093.85,514.188 1095.83,669.514 1097.82,810.215 1099.8,925.412 1101.78,1019.73 1103.76,1019.73 1105.74,900.695 1107.72,988.038 1109.7,1071 1111.69,1138.93 1113.67,1138.93 1115.65,905.603 1117.63,905.603 1119.61,663.22 1121.59,722.839 1123.57,853.874 1125.55,853.874 1127.54,721.905 1129.52,783.055 1131.5,783.055 1133.48,536.541 1135.46,686.605 1137.44,824.209 1139.42,824.209 1141.41,666.87 1143.39,682.787 1145.37,821.083 1147.35,821.083 1149.33,625.342 1151.31,697.853 1153.29,833.418 1155.27,833.418 1157.26,794.06 1159.24,794.06 1161.22,539.179 1163.2,569 1165.18,569 1167.16,491.383 1169.14,544.139 1171.13,544.139 1173.11,535.911 1175.09,584.852 1177.07,740.9 1179.05,868.661 1181.03,973.264 1183.01,973.264 1184.99,740.672 1186.98,833.774 1188.96,944.7 1190.94,1035.52 1192.92,1109.88 1194.9,1170.75 1196.88,1220.59 1198.86,1261.4 1200.85,1294.81 1202.83,1294.81 1204.81,1040.39 1206.79,1102.59 1208.77,1164.79 1210.75,1215.71 1212.73,1257.4 1214.71,1257.4 1216.7,1009.57 1218.68,1065.3 1220.66,1065.3 1222.64,816.756 1224.62,816.756 1226.6,786.557 1228.58,857.832 1230.57,857.832 1232.55,611.521 1234.53,611.521 1236.51,493.647 1238.49,567.822 1240.47,726.958 1242.45,726.958 1244.43,495.439 1246.42,636.317 1248.4,783.036 1250.38,903.159 1252.36,903.159 1254.34,812.708 1256.32,812.708 1258.3,683.753 1260.29,772.454 1262.27,772.454 1264.25,590.995 1266.23,654.335 1268.21,797.788 1270.19,915.237 1272.17,1011.4 1274.15,1090.13 1276.14,1154.58 1278.12,1207.36 1280.1,1207.36 1282.08,985.049 1284.06,999.083 1286.04,999.083 1288.02,801.741 1290.01,833.422 1291.99,944.412 1293.97,944.412 1295.95,883.268 1297.93,912.282 1299.91,1008.98 1301.89,1088.14 1303.87,1152.96 1305.86,1152.96 1307.84,982.948 1309.82,982.948 1311.8,888.82 1313.78,906.655 1315.76,1004.37 1317.74,1084.37 1319.73,1084.37 1321.71,957.138 1323.69,1042.96 1325.67,1042.96 1327.65,798.877 1329.63,895.222 1331.61,995.01 1333.59,1076.71 1335.58,1143.6 1337.56,1198.36 1339.54,1243.2 1341.52,1243.2 1343.5,1055.98 1345.48,1114.67 1347.46,1114.67 1349.45,1074.73 1351.43,1117.27 1353.41,1176.81 1355.39,1176.81 1357.37,1015.05 1359.35,1044.17 1361.33,1044.17 1363.32,927.53 1365.3,1007.21 1367.28,1086.7 1369.26,1151.77 1371.24,1151.77 1373.22,971.145 1375.2,971.145 1377.18,873.445 1379.17,918.362 1381.15,1013.95 1383.13,1092.22 1385.11,1092.22 1387.09,851.303 1389.07,932.228 1391.05,932.228 1393.04,750.617 1395.02,861.922 1397,861.922 1398.98,846.54 1400.96,846.54 1402.94,769.54 1404.92,782.542 1406.9,902.755 1408.89,1001.18 1410.87,1001.18 1412.85,867.941 1414.83,897.009 1416.81,996.472 1418.79,1077.91 1420.77,1144.58 1422.76,1199.17 1424.74,1243.86 1426.72,1243.86 1428.7,1060.22 1430.68,1060.22 1432.66,828.456 1434.64,870.273 1436.62,974.583 1438.61,1059.99 1440.59,1129.91 1442.57,1129.91 1444.55,962.333 1446.53,962.333 1448.51,778.838 1450.49,834.799 1452.48,945.539 1454.46,1036.21 1456.44,1036.21 1458.42,923.205 1460.4,923.205 1462.38,811.91 1464.36,811.91 1466.34,721.432 1468.33,762.711 1470.31,886.518 1472.29,987.884 1474.27,987.884 1476.25,736.692 1478.23,736.692 1480.21,493.598 1482.2,493.598 1484.18,272.243 1486.16,402.799 1488.14,591.848 1490.12,746.628 1492.1,873.351 1494.08,977.103 1496.06,1062.05 1498.05,1131.6 1500.03,1188.54 1502.01,1235.15 1503.99,1235.15 1505.97,1139.78 1507.95,1146.47 1509.93,1200.71 1511.92,1245.12 1513.9,1245.12 1515.88,1205.62 1517.86,1205.62 1519.84,947.89 1521.82,975.959 1523.8,1061.11 1525.78,1130.83 1527.77,1130.83 1529.75,1010.44 1531.73,1078.49 1533.71,1078.49 1535.69,822.123 1537.67,930.937 1539.65,1024.25 1541.64,1024.25 1543.62,902.513 1545.6,992.424 1547.58,992.424 1549.56,811.63 1551.54,811.63 1553.52,708.041 1555.5,796.136 1557.49,913.885 1559.47,1010.29 1561.45,1089.22 1563.43,1153.84 1565.41,1206.75 1567.39,1206.75 1569.37,971.268 1571.36,1014.1 1573.34,1014.1 1575.32,910.935 1577.3,910.935 1579.28,660.763 1581.26,748.967 1583.24,748.967 1585.22,787.362 1587.21,812.94 1589.19,927.642 1591.17,1021.55 1593.15,1098.44 1595.13,1161.39 1597.11,1161.39 1599.09,1057.99 1601.08,1095.93 1603.06,1159.34 1605.04,1211.25 1607.02,1211.25 1609,1082.27 1610.98,1147.24 1612.96,1147.24 1614.95,1000.5 1616.93,1011.7 1618.91,1090.38 1620.89,1090.38 1622.87,878.821 1624.85,878.821 1626.83,842.532 1628.81,844.791 1630.8,953.72 1632.78,1042.9 1634.76,1042.9 1636.74,805.088 1638.72,805.088 1640.7,659.634 1642.68,659.634 1644.67,497.358 1646.65,519.251 1648.63,687.191 1650.61,687.191 1652.59,609.603 1654.57,710.674 1656.55,843.914 1658.53,843.914 1660.52,754.438 1662.5,760.043 1664.48,760.043 1666.46,639.493 1668.44,705.796 1670.42,839.921 1672.4,949.733 1674.39,949.733 1676.37,849.151 1678.35,926.836 1680.33,926.836 1682.31,741.701 1684.29,741.701 1686.27,656.658 1688.25,743.216 1690.24,743.216 1692.22,677.585 1694.2,753.722 1696.18,879.159 1698.16,879.159 1700.14,812.541 1702.12,812.541 1704.11,642.741 1706.09,675.861 1708.07,675.861 1710.05,503.434 1712.03,503.434 1714.01,288.711 1715.99,324.69 1717.97,324.69 1719.96,117.718 1721.94,305.118 1723.92,511.873 1725.9,511.873 1727.88,423.041 1729.86,501.547 1731.84,501.547 1733.83,382.102 1735.81,382.102 1737.79,451.006 1739.77,503.955 1741.75,503.955 1743.73,398.505 1745.71,420.809 1747.69,606.593 1749.68,758.7 1751.66,758.7 1753.64,534.579 1755.62,659.381 1757.6,659.381 1759.58,663.119 1761.56,674.037 1763.55,813.919 1765.53,928.444 1767.51,1022.21 1769.49,1022.21 1771.47,806.709 1773.45,806.709 1775.43,626.166 1777.41,680.403 1779.4,819.131 1781.38,932.712 1783.36,932.712 1785.34,841.926 1787.32,841.926 1789.3,610.594 1791.28,669.82 1793.27,810.466 1795.25,925.617 1797.23,1019.9 1799.21,1097.08 1801.19,1097.08 1803.17,1067.4 1805.15,1101.23 1807.13,1101.23 1809.12,1079.98 1811.1,1102.89 1813.08,1165.04 1815.06,1215.92 1817.04,1257.57 1819.02,1291.68 1821,1291.68 1822.99,1116.63 1824.97,1116.63 1826.95,941.916 1828.93,943.227 1830.91,1034.31 1832.89,1108.89 1834.87,1169.94 1836.85,1219.93 1838.84,1219.93 1840.82,1028.32 1842.8,1099.5 1844.78,1099.5 1846.76,926.604 1848.74,926.604 1850.72,895.498 1852.71,895.498 1854.69,650.814 1856.67,682.87 1858.65,682.87 1860.63,555.42 1862.61,646.52 1864.59,646.52 1866.58,649.885 1868.56,663.998 1870.54,805.699 1872.52,921.715 1874.5,1016.7 1876.48,1094.47 1878.46,1158.14 1880.44,1210.27 1882.43,1252.95 1884.41,1252.95 1886.39,1202.46 1888.37,1230.53 1890.35,1230.53 1892.33,1122.12 1894.31,1151.7 1896.3,1204.99 1898.28,1248.63 1900.26,1284.35 1902.24,1284.35 1904.22,1168.33 1906.2,1197.6 1908.18,1242.57 1910.16,1242.57 1912.15,1181.2 1914.13,1181.2 1916.11,1005.15 1918.09,1051.16 1920.07,1051.16 1922.05,926.215 1924.03,1015.21 1926.02,1093.25 1928,1157.14 1929.98,1209.45 1931.96,1252.28 1933.94,1252.28 1935.92,1012.25 1937.9,1051.37 1939.88,1051.37 1941.87,951.255 1943.85,1008.06 1945.83,1008.06 1947.81,856.499 1949.79,910.779 1951.77,1007.75 1953.75,1007.75 1955.74,907.972 1957.72,973.17 1959.7,1058.83 1961.68,1058.83 1963.66,917.801 1965.64,944.12 1967.62,1035.04 1969.6,1109.49 1971.59,1170.43 1973.57,1170.43 1975.55,929.922 1977.53,992.342 1979.51,992.342 1981.49,850.235 1983.47,894.423 1985.46,894.423 1987.44,781.402 1989.42,884.863 1991.4,986.528 1993.38,1069.76 1995.36,1137.91 1997.34,1137.91 1999.32,989.758 2001.31,1006.18 2003.29,1085.85 2005.27,1151.08 2007.25,1204.49 2009.23,1248.22 2011.21,1284.02 2013.19,1313.33 2015.18,1313.33 2017.16,1060.21 2019.14,1114.42 2021.12,1174.47 2023.1,1174.47 2025.08,1009.38 2027.06,1009.38 2029.04,771.972 2031.03,794.122 2033.01,912.236 2034.99,1008.94 2036.97,1008.94 2038.95,756.594 2040.93,756.594 2042.91,539.946 2044.9,539.946 2046.88,338.756 2048.86,396.249 2050.84,396.249 2052.82,211.08 2054.8,357.96 2056.78,357.96 2058.76,236.045 2060.75,384.469 2062.73,384.469 2064.71,140.359 2066.69,140.359 2068.67,155.061 2070.65,168.929 2072.63,400.371 2074.62,400.371 2076.6,387.092 2078.58,397.176 2080.56,397.176 2082.54,324.548 2084.52,474.951 2086.5,650.92 2088.48,650.92 2090.47,475.169 2092.45,557.654 2094.43,718.633 2096.41,850.43 2098.39,958.337 2100.37,1046.68 2102.35,1119.02 2104.34,1119.02 2106.32,1000.99 2108.3,1068.12 2110.28,1068.12 2112.26,825.252 2114.24,914.492 2116.22,914.492 2118.21,870.826 2120.19,884.087 2122.17,985.893 2124.15,985.893 2126.13,782.293 2128.11,827.56 2130.09,827.56 2132.07,715.03 2134.06,755.978 2136.04,755.978 2138.02,570.84 2140,719.533 2141.98,719.533 2143.96,713.037 2145.94,723.291 2147.93,854.244 2149.91,961.46 2151.89,961.46 2153.87,781.368 2155.85,795.296 2157.83,795.296 2159.81,620.665 2161.79,748.895 2163.78,748.895 2165.76,712.535 2167.74,752.604 2169.72,752.604 2171.7,555.822 2173.68,644.794 2175.66,644.794 2177.65,454.631 2179.63,557.522 2181.61,718.525 2183.59,718.525 2185.57,602.716 2187.55,742.093 2189.53,869.638 2191.51,869.638 2193.5,734.416 2195.48,796.508 2197.46,796.508 2199.44,611.544 2201.42,752.533 2203.4,878.186 2205.38,981.061 2207.37,1065.29 2209.35,1134.25 2211.33,1134.25 2213.31,948.24 2215.29,1026.95 2217.27,1026.95 2219.25,903.204 2221.23,911.185 2223.22,1008.08 2225.2,1087.41 2227.18,1152.36 2229.16,1205.54 2231.14,1249.07 2233.12,1284.72 2235.1,1284.72 2237.09,1106.77 2239.07,1136.33 2241.05,1192.41 2243.03,1238.33 2245.01,1275.92 2246.99,1306.7 2248.97,1306.7 2250.95,1190.28 2252.94,1214.51 2254.92,1214.51 2256.9,1031.61 2258.88,1031.61 2260.86,924.899 2262.84,970.336 2264.82,970.336 2266.81,889.272 2268.79,938.226 2270.77,938.226 2272.75,844.671 2274.73,844.671 2276.71,630.869 2278.69,668.488 2280.67,668.488 2282.66,439.967 2284.64,439.967 2286.62,421.737 2288.6,421.737 2290.58,197.105 "/>
<path clip-path="url(#clip620)" d="M229.155 198.898 L501.268 198.898 L501.268 95.2176 L229.155 95.2176  Z" fill="#ffffff" fill-rule="evenodd" fill-opacity="1"/>
<polyline clip-path="url(#clip620)" style="stroke:#000000; stroke-linecap:round; stroke-linejoin:round; stroke-width:4; stroke-opacity:1; fill:none" points="229.155,198.898 501.268,198.898 501.268,95.2176 229.155,95.2176 229.155,198.898 "/>
<polyline clip-path="url(#clip620)" style="stroke:#009af9; stroke-linecap:round; stroke-linejoin:round; stroke-width:4; stroke-opacity:1; fill:none" points="253.564,147.058 400.019,147.058 "/>
<path clip-path="url(#clip620)" d="M438.271 166.745 Q436.465 171.375 434.752 172.787 Q433.039 174.199 430.169 174.199 L426.766 174.199 L426.766 170.634 L429.266 170.634 Q431.025 170.634 431.998 169.8 Q432.97 168.967 434.15 165.865 L434.914 163.921 L424.428 138.412 L428.942 138.412 L437.044 158.689 L445.146 138.412 L449.66 138.412 L438.271 166.745 Z" fill="#000000" fill-rule="nonzero" fill-opacity="1" /><path clip-path="url(#clip620)" d="M456.951 160.402 L464.59 160.402 L464.59 134.037 L456.28 135.703 L456.28 131.444 L464.544 129.778 L469.22 129.778 L469.22 160.402 L476.859 160.402 L476.859 164.338 L456.951 164.338 L456.951 160.402 Z" fill="#000000" fill-rule="nonzero" fill-opacity="1" /></svg>
