<?xml version="1.0" encoding="utf-8"?>
<svg xmlns="http://www.w3.org/2000/svg" xmlns:xlink="http://www.w3.org/1999/xlink" width="600" height="400" viewBox="0 0 2400 1600">
<defs>
  <clipPath id="clip750">
    <rect x="0" y="0" width="2400" height="1600"/>
  </clipPath>
</defs>
<path clip-path="url(#clip750)" d="M0 1600 L2400 1600 L2400 0 L0 0  Z" fill="#ffffff" fill-rule="evenodd" fill-opacity="1"/>
<defs>
  <clipPath id="clip751">
    <rect x="480" y="0" width="1681" height="1600"/>
  </clipPath>
</defs>
<path clip-path="url(#clip750)" d="M156.598 1486.45 L2352.76 1486.45 L2352.76 47.2441 L156.598 47.2441  Z" fill="#ffffff" fill-rule="evenodd" fill-opacity="1"/>
<defs>
  <clipPath id="clip752">
    <rect x="156" y="47" width="2197" height="1440"/>
  </clipPath>
</defs>
<polyline clip-path="url(#clip752)" style="stroke:#000000; stroke-linecap:round; stroke-linejoin:round; stroke-width:2; stroke-opacity:0.1; fill:none" points="382.528,1486.45 382.528,47.2441 "/>
<polyline clip-path="url(#clip752)" style="stroke:#000000; stroke-linecap:round; stroke-linejoin:round; stroke-width:2; stroke-opacity:0.1; fill:none" points="692.681,1486.45 692.681,47.2441 "/>
<polyline clip-path="url(#clip752)" style="stroke:#000000; stroke-linecap:round; stroke-linejoin:round; stroke-width:2; stroke-opacity:0.1; fill:none" points="1002.83,1486.45 1002.83,47.2441 "/>
<polyline clip-path="url(#clip752)" style="stroke:#000000; stroke-linecap:round; stroke-linejoin:round; stroke-width:2; stroke-opacity:0.1; fill:none" points="1312.99,1486.45 1312.99,47.2441 "/>
<polyline clip-path="url(#clip752)" style="stroke:#000000; stroke-linecap:round; stroke-linejoin:round; stroke-width:2; stroke-opacity:0.1; fill:none" points="1623.14,1486.45 1623.14,47.2441 "/>
<polyline clip-path="url(#clip752)" style="stroke:#000000; stroke-linecap:round; stroke-linejoin:round; stroke-width:2; stroke-opacity:0.1; fill:none" points="1933.29,1486.45 1933.29,47.2441 "/>
<polyline clip-path="url(#clip752)" style="stroke:#000000; stroke-linecap:round; stroke-linejoin:round; stroke-width:2; stroke-opacity:0.1; fill:none" points="2243.45,1486.45 2243.45,47.2441 "/>
<polyline clip-path="url(#clip750)" style="stroke:#000000; stroke-linecap:round; stroke-linejoin:round; stroke-width:4; stroke-opacity:1; fill:none" points="156.598,1486.45 2352.76,1486.45 "/>
<polyline clip-path="url(#clip750)" style="stroke:#000000; stroke-linecap:round; stroke-linejoin:round; stroke-width:4; stroke-opacity:1; fill:none" points="382.528,1486.45 382.528,1467.55 "/>
<polyline clip-path="url(#clip750)" style="stroke:#000000; stroke-linecap:round; stroke-linejoin:round; stroke-width:4; stroke-opacity:1; fill:none" points="692.681,1486.45 692.681,1467.55 "/>
<polyline clip-path="url(#clip750)" style="stroke:#000000; stroke-linecap:round; stroke-linejoin:round; stroke-width:4; stroke-opacity:1; fill:none" points="1002.83,1486.45 1002.83,1467.55 "/>
<polyline clip-path="url(#clip750)" style="stroke:#000000; stroke-linecap:round; stroke-linejoin:round; stroke-width:4; stroke-opacity:1; fill:none" points="1312.99,1486.45 1312.99,1467.55 "/>
<polyline clip-path="url(#clip750)" style="stroke:#000000; stroke-linecap:round; stroke-linejoin:round; stroke-width:4; stroke-opacity:1; fill:none" points="1623.14,1486.45 1623.14,1467.55 "/>
<polyline clip-path="url(#clip750)" style="stroke:#000000; stroke-linecap:round; stroke-linejoin:round; stroke-width:4; stroke-opacity:1; fill:none" points="1933.29,1486.45 1933.29,1467.55 "/>
<polyline clip-path="url(#clip750)" style="stroke:#000000; stroke-linecap:round; stroke-linejoin:round; stroke-width:4; stroke-opacity:1; fill:none" points="2243.45,1486.45 2243.45,1467.55 "/>
<path clip-path="url(#clip750)" d="M314.473 1532.02 L344.149 1532.02 L344.149 1535.95 L314.473 1535.95 L314.473 1532.02 Z" fill="#000000" fill-rule="nonzero" fill-opacity="1" /><path clip-path="url(#clip750)" d="M364.242 1517.37 Q360.63 1517.37 358.802 1520.93 Q356.996 1524.47 356.996 1531.6 Q356.996 1538.71 358.802 1542.27 Q360.63 1545.82 364.242 1545.82 Q367.876 1545.82 369.681 1542.27 Q371.51 1538.71 371.51 1531.6 Q371.51 1524.47 369.681 1520.93 Q367.876 1517.37 364.242 1517.37 M364.242 1513.66 Q370.052 1513.66 373.107 1518.27 Q376.186 1522.85 376.186 1531.6 Q376.186 1540.33 373.107 1544.94 Q370.052 1549.52 364.242 1549.52 Q358.431 1549.52 355.353 1544.94 Q352.297 1540.33 352.297 1531.6 Q352.297 1522.85 355.353 1518.27 Q358.431 1513.66 364.242 1513.66 Z" fill="#000000" fill-rule="nonzero" fill-opacity="1" /><path clip-path="url(#clip750)" d="M384.403 1542.97 L389.288 1542.97 L389.288 1548.85 L384.403 1548.85 L384.403 1542.97 Z" fill="#000000" fill-rule="nonzero" fill-opacity="1" /><path clip-path="url(#clip750)" d="M403.501 1544.91 L419.82 1544.91 L419.82 1548.85 L397.876 1548.85 L397.876 1544.91 Q400.538 1542.16 405.121 1537.53 Q409.727 1532.88 410.908 1531.53 Q413.153 1529.01 414.033 1527.27 Q414.936 1525.51 414.936 1523.82 Q414.936 1521.07 412.991 1519.33 Q411.07 1517.6 407.968 1517.6 Q405.769 1517.6 403.315 1518.36 Q400.885 1519.13 398.107 1520.68 L398.107 1515.95 Q400.931 1514.82 403.385 1514.24 Q405.839 1513.66 407.876 1513.66 Q413.246 1513.66 416.44 1516.35 Q419.635 1519.03 419.635 1523.52 Q419.635 1525.65 418.825 1527.57 Q418.038 1529.47 415.931 1532.07 Q415.352 1532.74 412.251 1535.95 Q409.149 1539.15 403.501 1544.91 Z" fill="#000000" fill-rule="nonzero" fill-opacity="1" /><path clip-path="url(#clip750)" d="M429.681 1514.29 L448.037 1514.29 L448.037 1518.22 L433.963 1518.22 L433.963 1526.7 Q434.982 1526.35 436 1526.19 Q437.019 1526 438.037 1526 Q443.824 1526 447.204 1529.17 Q450.584 1532.34 450.584 1537.76 Q450.584 1543.34 447.111 1546.44 Q443.639 1549.52 437.32 1549.52 Q435.144 1549.52 432.875 1549.15 Q430.63 1548.78 428.223 1548.04 L428.223 1543.34 Q430.306 1544.47 432.528 1545.03 Q434.75 1545.58 437.227 1545.58 Q441.232 1545.58 443.57 1543.48 Q445.908 1541.37 445.908 1537.76 Q445.908 1534.15 443.57 1532.04 Q441.232 1529.94 437.227 1529.94 Q435.352 1529.94 433.477 1530.35 Q431.625 1530.77 429.681 1531.65 L429.681 1514.29 Z" fill="#000000" fill-rule="nonzero" fill-opacity="1" /><path clip-path="url(#clip750)" d="M654.985 1517.37 Q651.374 1517.37 649.545 1520.93 Q647.739 1524.47 647.739 1531.6 Q647.739 1538.71 649.545 1542.27 Q651.374 1545.82 654.985 1545.82 Q658.619 1545.82 660.424 1542.27 Q662.253 1538.71 662.253 1531.6 Q662.253 1524.47 660.424 1520.93 Q658.619 1517.37 654.985 1517.37 M654.985 1513.66 Q660.795 1513.66 663.85 1518.27 Q666.929 1522.85 666.929 1531.6 Q666.929 1540.33 663.85 1544.94 Q660.795 1549.52 654.985 1549.52 Q649.175 1549.52 646.096 1544.94 Q643.04 1540.33 643.04 1531.6 Q643.04 1522.85 646.096 1518.27 Q649.175 1513.66 654.985 1513.66 Z" fill="#000000" fill-rule="nonzero" fill-opacity="1" /><path clip-path="url(#clip750)" d="M675.147 1542.97 L680.031 1542.97 L680.031 1548.85 L675.147 1548.85 L675.147 1542.97 Z" fill="#000000" fill-rule="nonzero" fill-opacity="1" /><path clip-path="url(#clip750)" d="M700.216 1517.37 Q696.605 1517.37 694.776 1520.93 Q692.971 1524.47 692.971 1531.6 Q692.971 1538.71 694.776 1542.27 Q696.605 1545.82 700.216 1545.82 Q703.85 1545.82 705.656 1542.27 Q707.484 1538.71 707.484 1531.6 Q707.484 1524.47 705.656 1520.93 Q703.85 1517.37 700.216 1517.37 M700.216 1513.66 Q706.026 1513.66 709.082 1518.27 Q712.16 1522.85 712.16 1531.6 Q712.16 1540.33 709.082 1544.94 Q706.026 1549.52 700.216 1549.52 Q694.406 1549.52 691.327 1544.94 Q688.272 1540.33 688.272 1531.6 Q688.272 1522.85 691.327 1518.27 Q694.406 1513.66 700.216 1513.66 Z" fill="#000000" fill-rule="nonzero" fill-opacity="1" /><path clip-path="url(#clip750)" d="M730.378 1517.37 Q726.767 1517.37 724.938 1520.93 Q723.132 1524.47 723.132 1531.6 Q723.132 1538.71 724.938 1542.27 Q726.767 1545.82 730.378 1545.82 Q734.012 1545.82 735.818 1542.27 Q737.646 1538.71 737.646 1531.6 Q737.646 1524.47 735.818 1520.93 Q734.012 1517.37 730.378 1517.37 M730.378 1513.66 Q736.188 1513.66 739.244 1518.27 Q742.322 1522.85 742.322 1531.6 Q742.322 1540.33 739.244 1544.94 Q736.188 1549.52 730.378 1549.52 Q724.568 1549.52 721.489 1544.94 Q718.433 1540.33 718.433 1531.6 Q718.433 1522.85 721.489 1518.27 Q724.568 1513.66 730.378 1513.66 Z" fill="#000000" fill-rule="nonzero" fill-opacity="1" /><path clip-path="url(#clip750)" d="M965.635 1517.37 Q962.024 1517.37 960.195 1520.93 Q958.39 1524.47 958.39 1531.6 Q958.39 1538.71 960.195 1542.27 Q962.024 1545.82 965.635 1545.82 Q969.269 1545.82 971.075 1542.27 Q972.904 1538.71 972.904 1531.6 Q972.904 1524.47 971.075 1520.93 Q969.269 1517.37 965.635 1517.37 M965.635 1513.66 Q971.445 1513.66 974.501 1518.27 Q977.58 1522.85 977.58 1531.6 Q977.58 1540.33 974.501 1544.94 Q971.445 1549.52 965.635 1549.52 Q959.825 1549.52 956.746 1544.94 Q953.691 1540.33 953.691 1531.6 Q953.691 1522.85 956.746 1518.27 Q959.825 1513.66 965.635 1513.66 Z" fill="#000000" fill-rule="nonzero" fill-opacity="1" /><path clip-path="url(#clip750)" d="M985.797 1542.97 L990.681 1542.97 L990.681 1548.85 L985.797 1548.85 L985.797 1542.97 Z" fill="#000000" fill-rule="nonzero" fill-opacity="1" /><path clip-path="url(#clip750)" d="M1004.89 1544.91 L1021.21 1544.91 L1021.21 1548.85 L999.269 1548.85 L999.269 1544.91 Q1001.93 1542.16 1006.51 1537.53 Q1011.12 1532.88 1012.3 1531.53 Q1014.55 1529.01 1015.43 1527.27 Q1016.33 1525.51 1016.33 1523.82 Q1016.33 1521.07 1014.38 1519.33 Q1012.46 1517.6 1009.36 1517.6 Q1007.16 1517.6 1004.71 1518.36 Q1002.28 1519.13 999.501 1520.68 L999.501 1515.95 Q1002.32 1514.82 1004.78 1514.24 Q1007.23 1513.66 1009.27 1513.66 Q1014.64 1513.66 1017.83 1516.35 Q1021.03 1519.03 1021.03 1523.52 Q1021.03 1525.65 1020.22 1527.57 Q1019.43 1529.47 1017.32 1532.07 Q1016.75 1532.74 1013.64 1535.95 Q1010.54 1539.15 1004.89 1544.91 Z" fill="#000000" fill-rule="nonzero" fill-opacity="1" /><path clip-path="url(#clip750)" d="M1031.07 1514.29 L1049.43 1514.29 L1049.43 1518.22 L1035.36 1518.22 L1035.36 1526.7 Q1036.38 1526.35 1037.39 1526.19 Q1038.41 1526 1039.43 1526 Q1045.22 1526 1048.6 1529.17 Q1051.98 1532.34 1051.98 1537.76 Q1051.98 1543.34 1048.51 1546.44 Q1045.03 1549.52 1038.71 1549.52 Q1036.54 1549.52 1034.27 1549.15 Q1032.02 1548.78 1029.62 1548.04 L1029.62 1543.34 Q1031.7 1544.47 1033.92 1545.03 Q1036.14 1545.58 1038.62 1545.58 Q1042.63 1545.58 1044.96 1543.48 Q1047.3 1541.37 1047.3 1537.76 Q1047.3 1534.15 1044.96 1532.04 Q1042.63 1529.94 1038.62 1529.94 Q1036.75 1529.94 1034.87 1530.35 Q1033.02 1530.77 1031.07 1531.65 L1031.07 1514.29 Z" fill="#000000" fill-rule="nonzero" fill-opacity="1" /><path clip-path="url(#clip750)" d="M1275.29 1517.37 Q1271.68 1517.37 1269.85 1520.93 Q1268.04 1524.47 1268.04 1531.6 Q1268.04 1538.71 1269.85 1542.27 Q1271.68 1545.82 1275.29 1545.82 Q1278.92 1545.82 1280.73 1542.27 Q1282.56 1538.71 1282.56 1531.6 Q1282.56 1524.47 1280.73 1520.93 Q1278.92 1517.37 1275.29 1517.37 M1275.29 1513.66 Q1281.1 1513.66 1284.16 1518.27 Q1287.23 1522.85 1287.23 1531.6 Q1287.23 1540.33 1284.16 1544.94 Q1281.1 1549.52 1275.29 1549.52 Q1269.48 1549.52 1266.4 1544.94 Q1263.35 1540.33 1263.35 1531.6 Q1263.35 1522.85 1266.4 1518.27 Q1269.48 1513.66 1275.29 1513.66 Z" fill="#000000" fill-rule="nonzero" fill-opacity="1" /><path clip-path="url(#clip750)" d="M1295.45 1542.97 L1300.34 1542.97 L1300.34 1548.85 L1295.45 1548.85 L1295.45 1542.97 Z" fill="#000000" fill-rule="nonzero" fill-opacity="1" /><path clip-path="url(#clip750)" d="M1310.57 1514.29 L1328.92 1514.29 L1328.92 1518.22 L1314.85 1518.22 L1314.85 1526.7 Q1315.87 1526.35 1316.89 1526.19 Q1317.91 1526 1318.92 1526 Q1324.71 1526 1328.09 1529.17 Q1331.47 1532.34 1331.47 1537.76 Q1331.47 1543.34 1328 1546.44 Q1324.53 1549.52 1318.21 1549.52 Q1316.03 1549.52 1313.76 1549.15 Q1311.52 1548.78 1309.11 1548.04 L1309.11 1543.34 Q1311.19 1544.47 1313.42 1545.03 Q1315.64 1545.58 1318.11 1545.58 Q1322.12 1545.58 1324.46 1543.48 Q1326.79 1541.37 1326.79 1537.76 Q1326.79 1534.15 1324.46 1532.04 Q1322.12 1529.94 1318.11 1529.94 Q1316.24 1529.94 1314.36 1530.35 Q1312.51 1530.77 1310.57 1531.65 L1310.57 1514.29 Z" fill="#000000" fill-rule="nonzero" fill-opacity="1" /><path clip-path="url(#clip750)" d="M1350.68 1517.37 Q1347.07 1517.37 1345.24 1520.93 Q1343.44 1524.47 1343.44 1531.6 Q1343.44 1538.71 1345.24 1542.27 Q1347.07 1545.82 1350.68 1545.82 Q1354.32 1545.82 1356.12 1542.27 Q1357.95 1538.71 1357.95 1531.6 Q1357.95 1524.47 1356.12 1520.93 Q1354.32 1517.37 1350.68 1517.37 M1350.68 1513.66 Q1356.49 1513.66 1359.55 1518.27 Q1362.63 1522.85 1362.63 1531.6 Q1362.63 1540.33 1359.55 1544.94 Q1356.49 1549.52 1350.68 1549.52 Q1344.87 1549.52 1341.79 1544.94 Q1338.74 1540.33 1338.74 1531.6 Q1338.74 1522.85 1341.79 1518.27 Q1344.87 1513.66 1350.68 1513.66 Z" fill="#000000" fill-rule="nonzero" fill-opacity="1" /><path clip-path="url(#clip750)" d="M1585.94 1517.37 Q1582.33 1517.37 1580.5 1520.93 Q1578.7 1524.47 1578.7 1531.6 Q1578.7 1538.71 1580.5 1542.27 Q1582.33 1545.82 1585.94 1545.82 Q1589.57 1545.82 1591.38 1542.27 Q1593.21 1538.71 1593.21 1531.6 Q1593.21 1524.47 1591.38 1520.93 Q1589.57 1517.37 1585.94 1517.37 M1585.94 1513.66 Q1591.75 1513.66 1594.81 1518.27 Q1597.89 1522.85 1597.89 1531.6 Q1597.89 1540.33 1594.81 1544.94 Q1591.75 1549.52 1585.94 1549.52 Q1580.13 1549.52 1577.05 1544.94 Q1574 1540.33 1574 1531.6 Q1574 1522.85 1577.05 1518.27 Q1580.13 1513.66 1585.94 1513.66 Z" fill="#000000" fill-rule="nonzero" fill-opacity="1" /><path clip-path="url(#clip750)" d="M1606.1 1542.97 L1610.99 1542.97 L1610.99 1548.85 L1606.1 1548.85 L1606.1 1542.97 Z" fill="#000000" fill-rule="nonzero" fill-opacity="1" /><path clip-path="url(#clip750)" d="M1619.99 1514.29 L1642.21 1514.29 L1642.21 1516.28 L1629.67 1548.85 L1624.78 1548.85 L1636.59 1518.22 L1619.99 1518.22 L1619.99 1514.29 Z" fill="#000000" fill-rule="nonzero" fill-opacity="1" /><path clip-path="url(#clip750)" d="M1651.38 1514.29 L1669.74 1514.29 L1669.74 1518.22 L1655.66 1518.22 L1655.66 1526.7 Q1656.68 1526.35 1657.7 1526.19 Q1658.72 1526 1659.74 1526 Q1665.52 1526 1668.9 1529.17 Q1672.28 1532.34 1672.28 1537.76 Q1672.28 1543.34 1668.81 1546.44 Q1665.34 1549.52 1659.02 1549.52 Q1656.84 1549.52 1654.57 1549.15 Q1652.33 1548.78 1649.92 1548.04 L1649.92 1543.34 Q1652.01 1544.47 1654.23 1545.03 Q1656.45 1545.58 1658.93 1545.58 Q1662.93 1545.58 1665.27 1543.48 Q1667.61 1541.37 1667.61 1537.76 Q1667.61 1534.15 1665.27 1532.04 Q1662.93 1529.94 1658.93 1529.94 Q1657.05 1529.94 1655.18 1530.35 Q1653.32 1530.77 1651.38 1531.65 L1651.38 1514.29 Z" fill="#000000" fill-rule="nonzero" fill-opacity="1" /><path clip-path="url(#clip750)" d="M1885.36 1544.91 L1893 1544.91 L1893 1518.55 L1884.69 1520.21 L1884.69 1515.95 L1892.96 1514.29 L1897.63 1514.29 L1897.63 1544.91 L1905.27 1544.91 L1905.27 1548.85 L1885.36 1548.85 L1885.36 1544.91 Z" fill="#000000" fill-rule="nonzero" fill-opacity="1" /><path clip-path="url(#clip750)" d="M1914.72 1542.97 L1919.6 1542.97 L1919.6 1548.85 L1914.72 1548.85 L1914.72 1542.97 Z" fill="#000000" fill-rule="nonzero" fill-opacity="1" /><path clip-path="url(#clip750)" d="M1939.79 1517.37 Q1936.17 1517.37 1934.35 1520.93 Q1932.54 1524.47 1932.54 1531.6 Q1932.54 1538.71 1934.35 1542.27 Q1936.17 1545.82 1939.79 1545.82 Q1943.42 1545.82 1945.23 1542.27 Q1947.05 1538.71 1947.05 1531.6 Q1947.05 1524.47 1945.23 1520.93 Q1943.42 1517.37 1939.79 1517.37 M1939.79 1513.66 Q1945.6 1513.66 1948.65 1518.27 Q1951.73 1522.85 1951.73 1531.6 Q1951.73 1540.33 1948.65 1544.94 Q1945.6 1549.52 1939.79 1549.52 Q1933.98 1549.52 1930.9 1544.94 Q1927.84 1540.33 1927.84 1531.6 Q1927.84 1522.85 1930.9 1518.27 Q1933.98 1513.66 1939.79 1513.66 Z" fill="#000000" fill-rule="nonzero" fill-opacity="1" /><path clip-path="url(#clip750)" d="M1969.95 1517.37 Q1966.34 1517.37 1964.51 1520.93 Q1962.7 1524.47 1962.7 1531.6 Q1962.7 1538.71 1964.51 1542.27 Q1966.34 1545.82 1969.95 1545.82 Q1973.58 1545.82 1975.39 1542.27 Q1977.22 1538.71 1977.22 1531.6 Q1977.22 1524.47 1975.39 1520.93 Q1973.58 1517.37 1969.95 1517.37 M1969.95 1513.66 Q1975.76 1513.66 1978.81 1518.27 Q1981.89 1522.85 1981.89 1531.6 Q1981.89 1540.33 1978.81 1544.94 Q1975.76 1549.52 1969.95 1549.52 Q1964.14 1549.52 1961.06 1544.94 Q1958 1540.33 1958 1531.6 Q1958 1522.85 1961.06 1518.27 Q1964.14 1513.66 1969.95 1513.66 Z" fill="#000000" fill-rule="nonzero" fill-opacity="1" /><path clip-path="url(#clip750)" d="M2196.01 1544.91 L2203.65 1544.91 L2203.65 1518.55 L2195.34 1520.21 L2195.34 1515.95 L2203.61 1514.29 L2208.28 1514.29 L2208.28 1544.91 L2215.92 1544.91 L2215.92 1548.85 L2196.01 1548.85 L2196.01 1544.91 Z" fill="#000000" fill-rule="nonzero" fill-opacity="1" /><path clip-path="url(#clip750)" d="M2225.37 1542.97 L2230.25 1542.97 L2230.25 1548.85 L2225.37 1548.85 L2225.37 1542.97 Z" fill="#000000" fill-rule="nonzero" fill-opacity="1" /><path clip-path="url(#clip750)" d="M2244.46 1544.91 L2260.78 1544.91 L2260.78 1548.85 L2238.84 1548.85 L2238.84 1544.91 Q2241.5 1542.16 2246.08 1537.53 Q2250.69 1532.88 2251.87 1531.53 Q2254.12 1529.01 2255 1527.27 Q2255.9 1525.51 2255.9 1523.82 Q2255.9 1521.07 2253.95 1519.33 Q2252.03 1517.6 2248.93 1517.6 Q2246.73 1517.6 2244.28 1518.36 Q2241.85 1519.13 2239.07 1520.68 L2239.07 1515.95 Q2241.89 1514.82 2244.35 1514.24 Q2246.8 1513.66 2248.84 1513.66 Q2254.21 1513.66 2257.4 1516.35 Q2260.6 1519.03 2260.6 1523.52 Q2260.6 1525.65 2259.79 1527.57 Q2259 1529.47 2256.89 1532.07 Q2256.32 1532.74 2253.21 1535.95 Q2250.11 1539.15 2244.46 1544.91 Z" fill="#000000" fill-rule="nonzero" fill-opacity="1" /><path clip-path="url(#clip750)" d="M2270.64 1514.29 L2289 1514.29 L2289 1518.22 L2274.93 1518.22 L2274.93 1526.7 Q2275.94 1526.35 2276.96 1526.19 Q2277.98 1526 2279 1526 Q2284.79 1526 2288.17 1529.17 Q2291.55 1532.34 2291.55 1537.76 Q2291.55 1543.34 2288.07 1546.44 Q2284.6 1549.52 2278.28 1549.52 Q2276.11 1549.52 2273.84 1549.15 Q2271.59 1548.78 2269.19 1548.04 L2269.19 1543.34 Q2271.27 1544.47 2273.49 1545.03 Q2275.71 1545.58 2278.19 1545.58 Q2282.19 1545.58 2284.53 1543.48 Q2286.87 1541.37 2286.87 1537.76 Q2286.87 1534.15 2284.53 1532.04 Q2282.19 1529.94 2278.19 1529.94 Q2276.32 1529.94 2274.44 1530.35 Q2272.59 1530.77 2270.64 1531.65 L2270.64 1514.29 Z" fill="#000000" fill-rule="nonzero" fill-opacity="1" /><polyline clip-path="url(#clip752)" style="stroke:#000000; stroke-linecap:round; stroke-linejoin:round; stroke-width:2; stroke-opacity:0.1; fill:none" points="156.598,1381.27 2352.76,1381.27 "/>
<polyline clip-path="url(#clip752)" style="stroke:#000000; stroke-linecap:round; stroke-linejoin:round; stroke-width:2; stroke-opacity:0.1; fill:none" points="156.598,1184.19 2352.76,1184.19 "/>
<polyline clip-path="url(#clip752)" style="stroke:#000000; stroke-linecap:round; stroke-linejoin:round; stroke-width:2; stroke-opacity:0.1; fill:none" points="156.598,987.102 2352.76,987.102 "/>
<polyline clip-path="url(#clip752)" style="stroke:#000000; stroke-linecap:round; stroke-linejoin:round; stroke-width:2; stroke-opacity:0.1; fill:none" points="156.598,790.016 2352.76,790.016 "/>
<polyline clip-path="url(#clip752)" style="stroke:#000000; stroke-linecap:round; stroke-linejoin:round; stroke-width:2; stroke-opacity:0.1; fill:none" points="156.598,592.93 2352.76,592.93 "/>
<polyline clip-path="url(#clip752)" style="stroke:#000000; stroke-linecap:round; stroke-linejoin:round; stroke-width:2; stroke-opacity:0.1; fill:none" points="156.598,395.845 2352.76,395.845 "/>
<polyline clip-path="url(#clip752)" style="stroke:#000000; stroke-linecap:round; stroke-linejoin:round; stroke-width:2; stroke-opacity:0.1; fill:none" points="156.598,198.759 2352.76,198.759 "/>
<polyline clip-path="url(#clip750)" style="stroke:#000000; stroke-linecap:round; stroke-linejoin:round; stroke-width:4; stroke-opacity:1; fill:none" points="156.598,1486.45 156.598,47.2441 "/>
<polyline clip-path="url(#clip750)" style="stroke:#000000; stroke-linecap:round; stroke-linejoin:round; stroke-width:4; stroke-opacity:1; fill:none" points="156.598,1381.27 175.496,1381.27 "/>
<polyline clip-path="url(#clip750)" style="stroke:#000000; stroke-linecap:round; stroke-linejoin:round; stroke-width:4; stroke-opacity:1; fill:none" points="156.598,1184.19 175.496,1184.19 "/>
<polyline clip-path="url(#clip750)" style="stroke:#000000; stroke-linecap:round; stroke-linejoin:round; stroke-width:4; stroke-opacity:1; fill:none" points="156.598,987.102 175.496,987.102 "/>
<polyline clip-path="url(#clip750)" style="stroke:#000000; stroke-linecap:round; stroke-linejoin:round; stroke-width:4; stroke-opacity:1; fill:none" points="156.598,790.016 175.496,790.016 "/>
<polyline clip-path="url(#clip750)" style="stroke:#000000; stroke-linecap:round; stroke-linejoin:round; stroke-width:4; stroke-opacity:1; fill:none" points="156.598,592.93 175.496,592.93 "/>
<polyline clip-path="url(#clip750)" style="stroke:#000000; stroke-linecap:round; stroke-linejoin:round; stroke-width:4; stroke-opacity:1; fill:none" points="156.598,395.845 175.496,395.845 "/>
<polyline clip-path="url(#clip750)" style="stroke:#000000; stroke-linecap:round; stroke-linejoin:round; stroke-width:4; stroke-opacity:1; fill:none" points="156.598,198.759 175.496,198.759 "/>
<path clip-path="url(#clip750)" d="M63.4226 1367.07 Q59.8115 1367.07 57.9828 1370.64 Q56.1773 1374.18 56.1773 1381.31 Q56.1773 1388.41 57.9828 1391.98 Q59.8115 1395.52 63.4226 1395.52 Q67.0569 1395.52 68.8624 1391.98 Q70.6911 1388.41 70.6911 1381.31 Q70.6911 1374.18 68.8624 1370.64 Q67.0569 1367.07 63.4226 1367.07 M63.4226 1363.37 Q69.2328 1363.37 72.2883 1367.97 Q75.367 1372.56 75.367 1381.31 Q75.367 1390.03 72.2883 1394.64 Q69.2328 1399.22 63.4226 1399.22 Q57.6125 1399.22 54.5338 1394.64 Q51.4782 1390.03 51.4782 1381.31 Q51.4782 1372.56 54.5338 1367.97 Q57.6125 1363.37 63.4226 1363.37 Z" fill="#000000" fill-rule="nonzero" fill-opacity="1" /><path clip-path="url(#clip750)" d="M83.5845 1392.67 L88.4688 1392.67 L88.4688 1398.55 L83.5845 1398.55 L83.5845 1392.67 Z" fill="#000000" fill-rule="nonzero" fill-opacity="1" /><path clip-path="url(#clip750)" d="M108.654 1367.07 Q105.043 1367.07 103.214 1370.64 Q101.409 1374.18 101.409 1381.31 Q101.409 1388.41 103.214 1391.98 Q105.043 1395.52 108.654 1395.52 Q112.288 1395.52 114.094 1391.98 Q115.922 1388.41 115.922 1381.31 Q115.922 1374.18 114.094 1370.64 Q112.288 1367.07 108.654 1367.07 M108.654 1363.37 Q114.464 1363.37 117.52 1367.97 Q120.598 1372.56 120.598 1381.31 Q120.598 1390.03 117.52 1394.64 Q114.464 1399.22 108.654 1399.22 Q102.844 1399.22 99.765 1394.64 Q96.7095 1390.03 96.7095 1381.31 Q96.7095 1372.56 99.765 1367.97 Q102.844 1363.37 108.654 1363.37 Z" fill="#000000" fill-rule="nonzero" fill-opacity="1" /><path clip-path="url(#clip750)" d="M65.0198 1169.99 Q61.4087 1169.99 59.58 1173.55 Q57.7745 1177.09 57.7745 1184.22 Q57.7745 1191.33 59.58 1194.89 Q61.4087 1198.43 65.0198 1198.43 Q68.6541 1198.43 70.4596 1194.89 Q72.2883 1191.33 72.2883 1184.22 Q72.2883 1177.09 70.4596 1173.55 Q68.6541 1169.99 65.0198 1169.99 M65.0198 1166.28 Q70.83 1166.28 73.8855 1170.89 Q76.9642 1175.47 76.9642 1184.22 Q76.9642 1192.95 73.8855 1197.56 Q70.83 1202.14 65.0198 1202.14 Q59.2097 1202.14 56.131 1197.56 Q53.0754 1192.95 53.0754 1184.22 Q53.0754 1175.47 56.131 1170.89 Q59.2097 1166.28 65.0198 1166.28 Z" fill="#000000" fill-rule="nonzero" fill-opacity="1" /><path clip-path="url(#clip750)" d="M85.1818 1195.59 L90.066 1195.59 L90.066 1201.47 L85.1818 1201.47 L85.1818 1195.59 Z" fill="#000000" fill-rule="nonzero" fill-opacity="1" /><path clip-path="url(#clip750)" d="M104.279 1197.53 L120.598 1197.53 L120.598 1201.47 L98.6539 1201.47 L98.6539 1197.53 Q101.316 1194.78 105.899 1190.15 Q110.506 1185.5 111.686 1184.15 Q113.932 1181.63 114.811 1179.89 Q115.714 1178.13 115.714 1176.44 Q115.714 1173.69 113.77 1171.95 Q111.848 1170.22 108.746 1170.22 Q106.547 1170.22 104.094 1170.98 Q101.663 1171.75 98.8854 1173.3 L98.8854 1168.57 Q101.709 1167.44 104.163 1166.86 Q106.617 1166.28 108.654 1166.28 Q114.024 1166.28 117.219 1168.97 Q120.413 1171.65 120.413 1176.14 Q120.413 1178.27 119.603 1180.19 Q118.816 1182.09 116.709 1184.69 Q116.131 1185.36 113.029 1188.57 Q109.927 1191.77 104.279 1197.53 Z" fill="#000000" fill-rule="nonzero" fill-opacity="1" /><path clip-path="url(#clip750)" d="M62.9365 972.9 Q59.3254 972.9 57.4967 976.465 Q55.6912 980.007 55.6912 987.136 Q55.6912 994.243 57.4967 997.808 Q59.3254 1001.35 62.9365 1001.35 Q66.5707 1001.35 68.3763 997.808 Q70.205 994.243 70.205 987.136 Q70.205 980.007 68.3763 976.465 Q66.5707 972.9 62.9365 972.9 M62.9365 969.197 Q68.7467 969.197 71.8022 973.803 Q74.8809 978.386 74.8809 987.136 Q74.8809 995.863 71.8022 1000.47 Q68.7467 1005.05 62.9365 1005.05 Q57.1264 1005.05 54.0477 1000.47 Q50.9921 995.863 50.9921 987.136 Q50.9921 978.386 54.0477 973.803 Q57.1264 969.197 62.9365 969.197 Z" fill="#000000" fill-rule="nonzero" fill-opacity="1" /><path clip-path="url(#clip750)" d="M83.0984 998.502 L87.9827 998.502 L87.9827 1004.38 L83.0984 1004.38 L83.0984 998.502 Z" fill="#000000" fill-rule="nonzero" fill-opacity="1" /><path clip-path="url(#clip750)" d="M111.015 973.896 L99.2095 992.345 L111.015 992.345 L111.015 973.896 M109.788 969.822 L115.668 969.822 L115.668 992.345 L120.598 992.345 L120.598 996.234 L115.668 996.234 L115.668 1004.38 L111.015 1004.38 L111.015 996.234 L95.4132 996.234 L95.4132 991.72 L109.788 969.822 Z" fill="#000000" fill-rule="nonzero" fill-opacity="1" /><path clip-path="url(#clip750)" d="M63.2606 775.815 Q59.6495 775.815 57.8208 779.38 Q56.0152 782.921 56.0152 790.051 Q56.0152 797.157 57.8208 800.722 Q59.6495 804.264 63.2606 804.264 Q66.8948 804.264 68.7004 800.722 Q70.5291 797.157 70.5291 790.051 Q70.5291 782.921 68.7004 779.38 Q66.8948 775.815 63.2606 775.815 M63.2606 772.111 Q69.0707 772.111 72.1263 776.718 Q75.205 781.301 75.205 790.051 Q75.205 798.778 72.1263 803.384 Q69.0707 807.967 63.2606 807.967 Q57.4504 807.967 54.3717 803.384 Q51.3162 798.778 51.3162 790.051 Q51.3162 781.301 54.3717 776.718 Q57.4504 772.111 63.2606 772.111 Z" fill="#000000" fill-rule="nonzero" fill-opacity="1" /><path clip-path="url(#clip750)" d="M83.4225 801.416 L88.3067 801.416 L88.3067 807.296 L83.4225 807.296 L83.4225 801.416 Z" fill="#000000" fill-rule="nonzero" fill-opacity="1" /><path clip-path="url(#clip750)" d="M109.071 788.153 Q105.922 788.153 104.071 790.305 Q102.242 792.458 102.242 796.208 Q102.242 799.935 104.071 802.111 Q105.922 804.264 109.071 804.264 Q112.219 804.264 114.047 802.111 Q115.899 799.935 115.899 796.208 Q115.899 792.458 114.047 790.305 Q112.219 788.153 109.071 788.153 M118.353 773.5 L118.353 777.759 Q116.594 776.926 114.788 776.486 Q113.006 776.046 111.246 776.046 Q106.617 776.046 104.163 779.171 Q101.733 782.296 101.385 788.616 Q102.751 786.602 104.811 785.537 Q106.871 784.449 109.348 784.449 Q114.557 784.449 117.566 787.62 Q120.598 790.768 120.598 796.208 Q120.598 801.532 117.45 804.75 Q114.302 807.967 109.071 807.967 Q103.075 807.967 99.9039 803.384 Q96.7326 798.778 96.7326 790.051 Q96.7326 781.856 100.621 776.995 Q104.51 772.111 111.061 772.111 Q112.82 772.111 114.603 772.458 Q116.408 772.806 118.353 773.5 Z" fill="#000000" fill-rule="nonzero" fill-opacity="1" /><path clip-path="url(#clip750)" d="M63.5152 578.729 Q59.9041 578.729 58.0754 582.294 Q56.2699 585.836 56.2699 592.965 Q56.2699 600.072 58.0754 603.636 Q59.9041 607.178 63.5152 607.178 Q67.1494 607.178 68.955 603.636 Q70.7837 600.072 70.7837 592.965 Q70.7837 585.836 68.955 582.294 Q67.1494 578.729 63.5152 578.729 M63.5152 575.025 Q69.3254 575.025 72.3809 579.632 Q75.4596 584.215 75.4596 592.965 Q75.4596 601.692 72.3809 606.298 Q69.3254 610.882 63.5152 610.882 Q57.7051 610.882 54.6264 606.298 Q51.5708 601.692 51.5708 592.965 Q51.5708 584.215 54.6264 579.632 Q57.7051 575.025 63.5152 575.025 Z" fill="#000000" fill-rule="nonzero" fill-opacity="1" /><path clip-path="url(#clip750)" d="M83.6771 604.331 L88.5614 604.331 L88.5614 610.21 L83.6771 610.21 L83.6771 604.331 Z" fill="#000000" fill-rule="nonzero" fill-opacity="1" /><path clip-path="url(#clip750)" d="M108.746 593.799 Q105.413 593.799 103.492 595.581 Q101.594 597.363 101.594 600.488 Q101.594 603.613 103.492 605.396 Q105.413 607.178 108.746 607.178 Q112.08 607.178 114.001 605.396 Q115.922 603.59 115.922 600.488 Q115.922 597.363 114.001 595.581 Q112.103 593.799 108.746 593.799 M104.071 591.808 Q101.061 591.067 99.3715 589.007 Q97.7048 586.947 97.7048 583.984 Q97.7048 579.84 100.645 577.433 Q103.608 575.025 108.746 575.025 Q113.908 575.025 116.848 577.433 Q119.788 579.84 119.788 583.984 Q119.788 586.947 118.098 589.007 Q116.432 591.067 113.445 591.808 Q116.825 592.595 118.7 594.886 Q120.598 597.178 120.598 600.488 Q120.598 605.511 117.52 608.197 Q114.464 610.882 108.746 610.882 Q103.029 610.882 99.9502 608.197 Q96.8947 605.511 96.8947 600.488 Q96.8947 597.178 98.7928 594.886 Q100.691 592.595 104.071 591.808 M102.358 584.424 Q102.358 587.109 104.024 588.613 Q105.714 590.118 108.746 590.118 Q111.756 590.118 113.445 588.613 Q115.158 587.109 115.158 584.424 Q115.158 581.738 113.445 580.234 Q111.756 578.729 108.746 578.729 Q105.714 578.729 104.024 580.234 Q102.358 581.738 102.358 584.424 Z" fill="#000000" fill-rule="nonzero" fill-opacity="1" /><path clip-path="url(#clip750)" d="M54.2328 409.19 L61.8717 409.19 L61.8717 382.824 L53.5616 384.491 L53.5616 380.232 L61.8254 378.565 L66.5013 378.565 L66.5013 409.19 L74.1402 409.19 L74.1402 413.125 L54.2328 413.125 L54.2328 409.19 Z" fill="#000000" fill-rule="nonzero" fill-opacity="1" /><path clip-path="url(#clip750)" d="M83.5845 407.245 L88.4688 407.245 L88.4688 413.125 L83.5845 413.125 L83.5845 407.245 Z" fill="#000000" fill-rule="nonzero" fill-opacity="1" /><path clip-path="url(#clip750)" d="M108.654 381.644 Q105.043 381.644 103.214 385.208 Q101.409 388.75 101.409 395.88 Q101.409 402.986 103.214 406.551 Q105.043 410.092 108.654 410.092 Q112.288 410.092 114.094 406.551 Q115.922 402.986 115.922 395.88 Q115.922 388.75 114.094 385.208 Q112.288 381.644 108.654 381.644 M108.654 377.94 Q114.464 377.94 117.52 382.546 Q120.598 387.13 120.598 395.88 Q120.598 404.606 117.52 409.213 Q114.464 413.796 108.654 413.796 Q102.844 413.796 99.765 409.213 Q96.7095 404.606 96.7095 395.88 Q96.7095 387.13 99.765 382.546 Q102.844 377.94 108.654 377.94 Z" fill="#000000" fill-rule="nonzero" fill-opacity="1" /><path clip-path="url(#clip750)" d="M55.8301 212.104 L63.4689 212.104 L63.4689 185.738 L55.1588 187.405 L55.1588 183.146 L63.4226 181.479 L68.0985 181.479 L68.0985 212.104 L75.7374 212.104 L75.7374 216.039 L55.8301 216.039 L55.8301 212.104 Z" fill="#000000" fill-rule="nonzero" fill-opacity="1" /><path clip-path="url(#clip750)" d="M85.1818 210.16 L90.066 210.16 L90.066 216.039 L85.1818 216.039 L85.1818 210.16 Z" fill="#000000" fill-rule="nonzero" fill-opacity="1" /><path clip-path="url(#clip750)" d="M104.279 212.104 L120.598 212.104 L120.598 216.039 L98.6539 216.039 L98.6539 212.104 Q101.316 209.349 105.899 204.72 Q110.506 200.067 111.686 198.725 Q113.932 196.201 114.811 194.465 Q115.714 192.706 115.714 191.016 Q115.714 188.262 113.77 186.525 Q111.848 184.789 108.746 184.789 Q106.547 184.789 104.094 185.553 Q101.663 186.317 98.8854 187.868 L98.8854 183.146 Q101.709 182.012 104.163 181.433 Q106.617 180.854 108.654 180.854 Q114.024 180.854 117.219 183.539 Q120.413 186.225 120.413 190.715 Q120.413 192.845 119.603 194.766 Q118.816 196.664 116.709 199.257 Q116.131 199.928 113.029 203.146 Q109.927 206.34 104.279 212.104 Z" fill="#000000" fill-rule="nonzero" fill-opacity="1" /><circle clip-path="url(#clip752)" cx="1908.6" cy="683.621" r="14.4" fill="#009af9" fill-rule="evenodd" fill-opacity="1" stroke="#000000" stroke-opacity="1" stroke-width="3.2"/>
<circle clip-path="url(#clip752)" cx="1313.1" cy="592.152" r="14.4" fill="#009af9" fill-rule="evenodd" fill-opacity="1" stroke="#000000" stroke-opacity="1" stroke-width="3.2"/>
<circle clip-path="url(#clip752)" cx="843.431" cy="677.262" r="14.4" fill="#009af9" fill-rule="evenodd" fill-opacity="1" stroke="#000000" stroke-opacity="1" stroke-width="3.2"/>
<circle clip-path="url(#clip752)" cx="1640.22" cy="1100.3" r="14.4" fill="#009af9" fill-rule="evenodd" fill-opacity="1" stroke="#000000" stroke-opacity="1" stroke-width="3.2"/>
<circle clip-path="url(#clip752)" cx="803.706" cy="960.455" r="14.4" fill="#009af9" fill-rule="evenodd" fill-opacity="1" stroke="#000000" stroke-opacity="1" stroke-width="3.2"/>
<circle clip-path="url(#clip752)" cx="1208.47" cy="1281.11" r="14.4" fill="#009af9" fill-rule="evenodd" fill-opacity="1" stroke="#000000" stroke-opacity="1" stroke-width="3.2"/>
<circle clip-path="url(#clip752)" cx="1595.25" cy="909.252" r="14.4" fill="#009af9" fill-rule="evenodd" fill-opacity="1" stroke="#000000" stroke-opacity="1" stroke-width="3.2"/>
<circle clip-path="url(#clip752)" cx="2215" cy="785.242" r="14.4" fill="#009af9" fill-rule="evenodd" fill-opacity="1" stroke="#000000" stroke-opacity="1" stroke-width="3.2"/>
<circle clip-path="url(#clip752)" cx="1269.1" cy="719.69" r="14.4" fill="#009af9" fill-rule="evenodd" fill-opacity="1" stroke="#000000" stroke-opacity="1" stroke-width="3.2"/>
<circle clip-path="url(#clip752)" cx="785.514" cy="1004.61" r="14.4" fill="#009af9" fill-rule="evenodd" fill-opacity="1" stroke="#000000" stroke-opacity="1" stroke-width="3.2"/>
<circle clip-path="url(#clip752)" cx="864.889" cy="987.762" r="14.4" fill="#009af9" fill-rule="evenodd" fill-opacity="1" stroke="#000000" stroke-opacity="1" stroke-width="3.2"/>
<circle clip-path="url(#clip752)" cx="1510.3" cy="466.235" r="14.4" fill="#009af9" fill-rule="evenodd" fill-opacity="1" stroke="#000000" stroke-opacity="1" stroke-width="3.2"/>
<circle clip-path="url(#clip752)" cx="1749.22" cy="692.742" r="14.4" fill="#009af9" fill-rule="evenodd" fill-opacity="1" stroke="#000000" stroke-opacity="1" stroke-width="3.2"/>
<circle clip-path="url(#clip752)" cx="1373.79" cy="864.25" r="14.4" fill="#009af9" fill-rule="evenodd" fill-opacity="1" stroke="#000000" stroke-opacity="1" stroke-width="3.2"/>
<circle clip-path="url(#clip752)" cx="1413.25" cy="939.427" r="14.4" fill="#009af9" fill-rule="evenodd" fill-opacity="1" stroke="#000000" stroke-opacity="1" stroke-width="3.2"/>
<circle clip-path="url(#clip752)" cx="1647.17" cy="593.417" r="14.4" fill="#009af9" fill-rule="evenodd" fill-opacity="1" stroke="#000000" stroke-opacity="1" stroke-width="3.2"/>
<circle clip-path="url(#clip752)" cx="1519.04" cy="939.412" r="14.4" fill="#009af9" fill-rule="evenodd" fill-opacity="1" stroke="#000000" stroke-opacity="1" stroke-width="3.2"/>
<circle clip-path="url(#clip752)" cx="1657.43" cy="598.214" r="14.4" fill="#009af9" fill-rule="evenodd" fill-opacity="1" stroke="#000000" stroke-opacity="1" stroke-width="3.2"/>
<circle clip-path="url(#clip752)" cx="1410.79" cy="1104.8" r="14.4" fill="#009af9" fill-rule="evenodd" fill-opacity="1" stroke="#000000" stroke-opacity="1" stroke-width="3.2"/>
<circle clip-path="url(#clip752)" cx="369.66" cy="1239.65" r="14.4" fill="#009af9" fill-rule="evenodd" fill-opacity="1" stroke="#000000" stroke-opacity="1" stroke-width="3.2"/>
<circle clip-path="url(#clip752)" cx="1657.32" cy="590.471" r="14.4" fill="#009af9" fill-rule="evenodd" fill-opacity="1" stroke="#000000" stroke-opacity="1" stroke-width="3.2"/>
<circle clip-path="url(#clip752)" cx="798.713" cy="994.127" r="14.4" fill="#009af9" fill-rule="evenodd" fill-opacity="1" stroke="#000000" stroke-opacity="1" stroke-width="3.2"/>
<circle clip-path="url(#clip752)" cx="1336.73" cy="871.66" r="14.4" fill="#009af9" fill-rule="evenodd" fill-opacity="1" stroke="#000000" stroke-opacity="1" stroke-width="3.2"/>
<circle clip-path="url(#clip752)" cx="1736.45" cy="200.138" r="14.4" fill="#009af9" fill-rule="evenodd" fill-opacity="1" stroke="#000000" stroke-opacity="1" stroke-width="3.2"/>
<circle clip-path="url(#clip752)" cx="2194.84" cy="440.685" r="14.4" fill="#009af9" fill-rule="evenodd" fill-opacity="1" stroke="#000000" stroke-opacity="1" stroke-width="3.2"/>
<circle clip-path="url(#clip752)" cx="851.524" cy="693.305" r="14.4" fill="#009af9" fill-rule="evenodd" fill-opacity="1" stroke="#000000" stroke-opacity="1" stroke-width="3.2"/>
<circle clip-path="url(#clip752)" cx="1336.85" cy="541.775" r="14.4" fill="#009af9" fill-rule="evenodd" fill-opacity="1" stroke="#000000" stroke-opacity="1" stroke-width="3.2"/>
<circle clip-path="url(#clip752)" cx="967.568" cy="473.647" r="14.4" fill="#009af9" fill-rule="evenodd" fill-opacity="1" stroke="#000000" stroke-opacity="1" stroke-width="3.2"/>
<circle clip-path="url(#clip752)" cx="723.564" cy="1026.6" r="14.4" fill="#009af9" fill-rule="evenodd" fill-opacity="1" stroke="#000000" stroke-opacity="1" stroke-width="3.2"/>
<circle clip-path="url(#clip752)" cx="1247.08" cy="896.337" r="14.4" fill="#009af9" fill-rule="evenodd" fill-opacity="1" stroke="#000000" stroke-opacity="1" stroke-width="3.2"/>
<circle clip-path="url(#clip752)" cx="1600.22" cy="923.252" r="14.4" fill="#009af9" fill-rule="evenodd" fill-opacity="1" stroke="#000000" stroke-opacity="1" stroke-width="3.2"/>
<circle clip-path="url(#clip752)" cx="1534.08" cy="880.295" r="14.4" fill="#009af9" fill-rule="evenodd" fill-opacity="1" stroke="#000000" stroke-opacity="1" stroke-width="3.2"/>
<circle clip-path="url(#clip752)" cx="1527.59" cy="596.662" r="14.4" fill="#009af9" fill-rule="evenodd" fill-opacity="1" stroke="#000000" stroke-opacity="1" stroke-width="3.2"/>
<circle clip-path="url(#clip752)" cx="1712.3" cy="568.236" r="14.4" fill="#009af9" fill-rule="evenodd" fill-opacity="1" stroke="#000000" stroke-opacity="1" stroke-width="3.2"/>
<circle clip-path="url(#clip752)" cx="1922.66" cy="674.344" r="14.4" fill="#009af9" fill-rule="evenodd" fill-opacity="1" stroke="#000000" stroke-opacity="1" stroke-width="3.2"/>
<circle clip-path="url(#clip752)" cx="1620.04" cy="1091.57" r="14.4" fill="#009af9" fill-rule="evenodd" fill-opacity="1" stroke="#000000" stroke-opacity="1" stroke-width="3.2"/>
<circle clip-path="url(#clip752)" cx="1273.15" cy="889.039" r="14.4" fill="#009af9" fill-rule="evenodd" fill-opacity="1" stroke="#000000" stroke-opacity="1" stroke-width="3.2"/>
<circle clip-path="url(#clip752)" cx="600.63" cy="1196.12" r="14.4" fill="#009af9" fill-rule="evenodd" fill-opacity="1" stroke="#000000" stroke-opacity="1" stroke-width="3.2"/>
<circle clip-path="url(#clip752)" cx="1344.83" cy="876.346" r="14.4" fill="#009af9" fill-rule="evenodd" fill-opacity="1" stroke="#000000" stroke-opacity="1" stroke-width="3.2"/>
<circle clip-path="url(#clip752)" cx="1448.99" cy="697.895" r="14.4" fill="#009af9" fill-rule="evenodd" fill-opacity="1" stroke="#000000" stroke-opacity="1" stroke-width="3.2"/>
<circle clip-path="url(#clip752)" cx="929.829" cy="1169" r="14.4" fill="#009af9" fill-rule="evenodd" fill-opacity="1" stroke="#000000" stroke-opacity="1" stroke-width="3.2"/>
<circle clip-path="url(#clip752)" cx="1587.73" cy="904.079" r="14.4" fill="#009af9" fill-rule="evenodd" fill-opacity="1" stroke="#000000" stroke-opacity="1" stroke-width="3.2"/>
<circle clip-path="url(#clip752)" cx="1128.56" cy="510.57" r="14.4" fill="#009af9" fill-rule="evenodd" fill-opacity="1" stroke="#000000" stroke-opacity="1" stroke-width="3.2"/>
<circle clip-path="url(#clip752)" cx="1866.05" cy="976.267" r="14.4" fill="#009af9" fill-rule="evenodd" fill-opacity="1" stroke="#000000" stroke-opacity="1" stroke-width="3.2"/>
<circle clip-path="url(#clip752)" cx="1304.67" cy="583.729" r="14.4" fill="#009af9" fill-rule="evenodd" fill-opacity="1" stroke="#000000" stroke-opacity="1" stroke-width="3.2"/>
<circle clip-path="url(#clip752)" cx="1281.64" cy="1162.19" r="14.4" fill="#009af9" fill-rule="evenodd" fill-opacity="1" stroke="#000000" stroke-opacity="1" stroke-width="3.2"/>
<circle clip-path="url(#clip752)" cx="1833.29" cy="633.775" r="14.4" fill="#009af9" fill-rule="evenodd" fill-opacity="1" stroke="#000000" stroke-opacity="1" stroke-width="3.2"/>
<circle clip-path="url(#clip752)" cx="2139.84" cy="1019.94" r="14.4" fill="#009af9" fill-rule="evenodd" fill-opacity="1" stroke="#000000" stroke-opacity="1" stroke-width="3.2"/>
<circle clip-path="url(#clip752)" cx="964.472" cy="903.988" r="14.4" fill="#009af9" fill-rule="evenodd" fill-opacity="1" stroke="#000000" stroke-opacity="1" stroke-width="3.2"/>
<circle clip-path="url(#clip752)" cx="1501.11" cy="922.939" r="14.4" fill="#009af9" fill-rule="evenodd" fill-opacity="1" stroke="#000000" stroke-opacity="1" stroke-width="3.2"/>
<circle clip-path="url(#clip752)" cx="1637.56" cy="594.271" r="14.4" fill="#009af9" fill-rule="evenodd" fill-opacity="1" stroke="#000000" stroke-opacity="1" stroke-width="3.2"/>
<circle clip-path="url(#clip752)" cx="1919.61" cy="675.935" r="14.4" fill="#009af9" fill-rule="evenodd" fill-opacity="1" stroke="#000000" stroke-opacity="1" stroke-width="3.2"/>
<circle clip-path="url(#clip752)" cx="1594.71" cy="924.277" r="14.4" fill="#009af9" fill-rule="evenodd" fill-opacity="1" stroke="#000000" stroke-opacity="1" stroke-width="3.2"/>
<circle clip-path="url(#clip752)" cx="1857.62" cy="940.532" r="14.4" fill="#009af9" fill-rule="evenodd" fill-opacity="1" stroke="#000000" stroke-opacity="1" stroke-width="3.2"/>
<circle clip-path="url(#clip752)" cx="1278.64" cy="1001.4" r="14.4" fill="#009af9" fill-rule="evenodd" fill-opacity="1" stroke="#000000" stroke-opacity="1" stroke-width="3.2"/>
<circle clip-path="url(#clip752)" cx="1595.25" cy="891.118" r="14.4" fill="#009af9" fill-rule="evenodd" fill-opacity="1" stroke="#000000" stroke-opacity="1" stroke-width="3.2"/>
<circle clip-path="url(#clip752)" cx="1604.91" cy="1094.2" r="14.4" fill="#009af9" fill-rule="evenodd" fill-opacity="1" stroke="#000000" stroke-opacity="1" stroke-width="3.2"/>
<circle clip-path="url(#clip752)" cx="1636.89" cy="1221.3" r="14.4" fill="#009af9" fill-rule="evenodd" fill-opacity="1" stroke="#000000" stroke-opacity="1" stroke-width="3.2"/>
<circle clip-path="url(#clip752)" cx="1093.44" cy="891.27" r="14.4" fill="#009af9" fill-rule="evenodd" fill-opacity="1" stroke="#000000" stroke-opacity="1" stroke-width="3.2"/>
<circle clip-path="url(#clip752)" cx="781.041" cy="994.799" r="14.4" fill="#009af9" fill-rule="evenodd" fill-opacity="1" stroke="#000000" stroke-opacity="1" stroke-width="3.2"/>
<circle clip-path="url(#clip752)" cx="760.641" cy="1027.37" r="14.4" fill="#009af9" fill-rule="evenodd" fill-opacity="1" stroke="#000000" stroke-opacity="1" stroke-width="3.2"/>
<circle clip-path="url(#clip752)" cx="1154.32" cy="935.297" r="14.4" fill="#009af9" fill-rule="evenodd" fill-opacity="1" stroke="#000000" stroke-opacity="1" stroke-width="3.2"/>
<circle clip-path="url(#clip752)" cx="1477.24" cy="945.273" r="14.4" fill="#009af9" fill-rule="evenodd" fill-opacity="1" stroke="#000000" stroke-opacity="1" stroke-width="3.2"/>
<circle clip-path="url(#clip752)" cx="1583.82" cy="913.84" r="14.4" fill="#009af9" fill-rule="evenodd" fill-opacity="1" stroke="#000000" stroke-opacity="1" stroke-width="3.2"/>
<circle clip-path="url(#clip752)" cx="1581.69" cy="911.298" r="14.4" fill="#009af9" fill-rule="evenodd" fill-opacity="1" stroke="#000000" stroke-opacity="1" stroke-width="3.2"/>
<circle clip-path="url(#clip752)" cx="1640.52" cy="832.508" r="14.4" fill="#009af9" fill-rule="evenodd" fill-opacity="1" stroke="#000000" stroke-opacity="1" stroke-width="3.2"/>
<circle clip-path="url(#clip752)" cx="1644.61" cy="1097.5" r="14.4" fill="#009af9" fill-rule="evenodd" fill-opacity="1" stroke="#000000" stroke-opacity="1" stroke-width="3.2"/>
<circle clip-path="url(#clip752)" cx="961.078" cy="751.994" r="14.4" fill="#009af9" fill-rule="evenodd" fill-opacity="1" stroke="#000000" stroke-opacity="1" stroke-width="3.2"/>
<circle clip-path="url(#clip752)" cx="1519.4" cy="578.211" r="14.4" fill="#009af9" fill-rule="evenodd" fill-opacity="1" stroke="#000000" stroke-opacity="1" stroke-width="3.2"/>
<circle clip-path="url(#clip752)" cx="1345.38" cy="871.257" r="14.4" fill="#009af9" fill-rule="evenodd" fill-opacity="1" stroke="#000000" stroke-opacity="1" stroke-width="3.2"/>
<circle clip-path="url(#clip752)" cx="1476.72" cy="445.947" r="14.4" fill="#009af9" fill-rule="evenodd" fill-opacity="1" stroke="#000000" stroke-opacity="1" stroke-width="3.2"/>
<circle clip-path="url(#clip752)" cx="1420.67" cy="1111.83" r="14.4" fill="#009af9" fill-rule="evenodd" fill-opacity="1" stroke="#000000" stroke-opacity="1" stroke-width="3.2"/>
<circle clip-path="url(#clip752)" cx="1920.15" cy="1116.41" r="14.4" fill="#009af9" fill-rule="evenodd" fill-opacity="1" stroke="#000000" stroke-opacity="1" stroke-width="3.2"/>
<circle clip-path="url(#clip752)" cx="857.456" cy="690.251" r="14.4" fill="#009af9" fill-rule="evenodd" fill-opacity="1" stroke="#000000" stroke-opacity="1" stroke-width="3.2"/>
<circle clip-path="url(#clip752)" cx="1336.31" cy="854.615" r="14.4" fill="#009af9" fill-rule="evenodd" fill-opacity="1" stroke="#000000" stroke-opacity="1" stroke-width="3.2"/>
<circle clip-path="url(#clip752)" cx="692.658" cy="617.96" r="14.4" fill="#009af9" fill-rule="evenodd" fill-opacity="1" stroke="#000000" stroke-opacity="1" stroke-width="3.2"/>
<circle clip-path="url(#clip752)" cx="1896.09" cy="182.638" r="14.4" fill="#009af9" fill-rule="evenodd" fill-opacity="1" stroke="#000000" stroke-opacity="1" stroke-width="3.2"/>
<circle clip-path="url(#clip752)" cx="1315.82" cy="1140.11" r="14.4" fill="#009af9" fill-rule="evenodd" fill-opacity="1" stroke="#000000" stroke-opacity="1" stroke-width="3.2"/>
<circle clip-path="url(#clip752)" cx="1653.19" cy="599.015" r="14.4" fill="#009af9" fill-rule="evenodd" fill-opacity="1" stroke="#000000" stroke-opacity="1" stroke-width="3.2"/>
<circle clip-path="url(#clip752)" cx="1663.32" cy="587.643" r="14.4" fill="#009af9" fill-rule="evenodd" fill-opacity="1" stroke="#000000" stroke-opacity="1" stroke-width="3.2"/>
<circle clip-path="url(#clip752)" cx="789.771" cy="1014.39" r="14.4" fill="#009af9" fill-rule="evenodd" fill-opacity="1" stroke="#000000" stroke-opacity="1" stroke-width="3.2"/>
<circle clip-path="url(#clip752)" cx="811.895" cy="1006.36" r="14.4" fill="#009af9" fill-rule="evenodd" fill-opacity="1" stroke="#000000" stroke-opacity="1" stroke-width="3.2"/>
<circle clip-path="url(#clip752)" cx="1058.24" cy="269.353" r="14.4" fill="#009af9" fill-rule="evenodd" fill-opacity="1" stroke="#000000" stroke-opacity="1" stroke-width="3.2"/>
<circle clip-path="url(#clip752)" cx="659.996" cy="851.007" r="14.4" fill="#009af9" fill-rule="evenodd" fill-opacity="1" stroke="#000000" stroke-opacity="1" stroke-width="3.2"/>
<circle clip-path="url(#clip752)" cx="832.723" cy="693.314" r="14.4" fill="#009af9" fill-rule="evenodd" fill-opacity="1" stroke="#000000" stroke-opacity="1" stroke-width="3.2"/>
<circle clip-path="url(#clip752)" cx="1570.69" cy="370.141" r="14.4" fill="#009af9" fill-rule="evenodd" fill-opacity="1" stroke="#000000" stroke-opacity="1" stroke-width="3.2"/>
<circle clip-path="url(#clip752)" cx="1160.58" cy="977.339" r="14.4" fill="#009af9" fill-rule="evenodd" fill-opacity="1" stroke="#000000" stroke-opacity="1" stroke-width="3.2"/>
<circle clip-path="url(#clip752)" cx="1246.7" cy="1236.83" r="14.4" fill="#009af9" fill-rule="evenodd" fill-opacity="1" stroke="#000000" stroke-opacity="1" stroke-width="3.2"/>
<circle clip-path="url(#clip752)" cx="1694.38" cy="650.72" r="14.4" fill="#009af9" fill-rule="evenodd" fill-opacity="1" stroke="#000000" stroke-opacity="1" stroke-width="3.2"/>
<circle clip-path="url(#clip752)" cx="1543.33" cy="1049.8" r="14.4" fill="#009af9" fill-rule="evenodd" fill-opacity="1" stroke="#000000" stroke-opacity="1" stroke-width="3.2"/>
<circle clip-path="url(#clip752)" cx="1768.4" cy="678.001" r="14.4" fill="#009af9" fill-rule="evenodd" fill-opacity="1" stroke="#000000" stroke-opacity="1" stroke-width="3.2"/>
<circle clip-path="url(#clip752)" cx="1109.81" cy="794.94" r="14.4" fill="#009af9" fill-rule="evenodd" fill-opacity="1" stroke="#000000" stroke-opacity="1" stroke-width="3.2"/>
<circle clip-path="url(#clip752)" cx="1712" cy="651.658" r="14.4" fill="#009af9" fill-rule="evenodd" fill-opacity="1" stroke="#000000" stroke-opacity="1" stroke-width="3.2"/>
<circle clip-path="url(#clip752)" cx="521.507" cy="1256.26" r="14.4" fill="#009af9" fill-rule="evenodd" fill-opacity="1" stroke="#000000" stroke-opacity="1" stroke-width="3.2"/>
<circle clip-path="url(#clip752)" cx="1800.12" cy="1242.53" r="14.4" fill="#009af9" fill-rule="evenodd" fill-opacity="1" stroke="#000000" stroke-opacity="1" stroke-width="3.2"/>
<circle clip-path="url(#clip752)" cx="1495.06" cy="940.293" r="14.4" fill="#009af9" fill-rule="evenodd" fill-opacity="1" stroke="#000000" stroke-opacity="1" stroke-width="3.2"/>
<circle clip-path="url(#clip752)" cx="1680.71" cy="457.525" r="14.4" fill="#009af9" fill-rule="evenodd" fill-opacity="1" stroke="#000000" stroke-opacity="1" stroke-width="3.2"/>
<circle clip-path="url(#clip752)" cx="1185.76" cy="911.213" r="14.4" fill="#009af9" fill-rule="evenodd" fill-opacity="1" stroke="#000000" stroke-opacity="1" stroke-width="3.2"/>
<circle clip-path="url(#clip752)" cx="784.128" cy="984.8" r="14.4" fill="#009af9" fill-rule="evenodd" fill-opacity="1" stroke="#000000" stroke-opacity="1" stroke-width="3.2"/>
<circle clip-path="url(#clip752)" cx="1520.37" cy="959.545" r="14.4" fill="#009af9" fill-rule="evenodd" fill-opacity="1" stroke="#000000" stroke-opacity="1" stroke-width="3.2"/>
<circle clip-path="url(#clip752)" cx="1644.79" cy="870.779" r="14.4" fill="#009af9" fill-rule="evenodd" fill-opacity="1" stroke="#000000" stroke-opacity="1" stroke-width="3.2"/>
<circle clip-path="url(#clip752)" cx="1543.81" cy="683.823" r="14.4" fill="#009af9" fill-rule="evenodd" fill-opacity="1" stroke="#000000" stroke-opacity="1" stroke-width="3.2"/>
<circle clip-path="url(#clip752)" cx="1306.45" cy="1256" r="14.4" fill="#009af9" fill-rule="evenodd" fill-opacity="1" stroke="#000000" stroke-opacity="1" stroke-width="3.2"/>
<circle clip-path="url(#clip752)" cx="1009.1" cy="818.562" r="14.4" fill="#009af9" fill-rule="evenodd" fill-opacity="1" stroke="#000000" stroke-opacity="1" stroke-width="3.2"/>
<circle clip-path="url(#clip752)" cx="915.874" cy="1025.04" r="14.4" fill="#009af9" fill-rule="evenodd" fill-opacity="1" stroke="#000000" stroke-opacity="1" stroke-width="3.2"/>
<circle clip-path="url(#clip752)" cx="1885.22" cy="1141.9" r="14.4" fill="#009af9" fill-rule="evenodd" fill-opacity="1" stroke="#000000" stroke-opacity="1" stroke-width="3.2"/>
<circle clip-path="url(#clip752)" cx="985.686" cy="568.662" r="14.4" fill="#009af9" fill-rule="evenodd" fill-opacity="1" stroke="#000000" stroke-opacity="1" stroke-width="3.2"/>
<circle clip-path="url(#clip752)" cx="1445.06" cy="955.138" r="14.4" fill="#009af9" fill-rule="evenodd" fill-opacity="1" stroke="#000000" stroke-opacity="1" stroke-width="3.2"/>
<circle clip-path="url(#clip752)" cx="1181.32" cy="289.935" r="14.4" fill="#009af9" fill-rule="evenodd" fill-opacity="1" stroke="#000000" stroke-opacity="1" stroke-width="3.2"/>
<circle clip-path="url(#clip752)" cx="1501.41" cy="374.222" r="14.4" fill="#009af9" fill-rule="evenodd" fill-opacity="1" stroke="#000000" stroke-opacity="1" stroke-width="3.2"/>
<circle clip-path="url(#clip752)" cx="1772.69" cy="751.475" r="14.4" fill="#009af9" fill-rule="evenodd" fill-opacity="1" stroke="#000000" stroke-opacity="1" stroke-width="3.2"/>
<circle clip-path="url(#clip752)" cx="1736.91" cy="520.115" r="14.4" fill="#009af9" fill-rule="evenodd" fill-opacity="1" stroke="#000000" stroke-opacity="1" stroke-width="3.2"/>
<circle clip-path="url(#clip752)" cx="1341.15" cy="586.418" r="14.4" fill="#009af9" fill-rule="evenodd" fill-opacity="1" stroke="#000000" stroke-opacity="1" stroke-width="3.2"/>
<circle clip-path="url(#clip752)" cx="1593.25" cy="411.457" r="14.4" fill="#009af9" fill-rule="evenodd" fill-opacity="1" stroke="#000000" stroke-opacity="1" stroke-width="3.2"/>
<circle clip-path="url(#clip752)" cx="849.629" cy="673.254" r="14.4" fill="#009af9" fill-rule="evenodd" fill-opacity="1" stroke="#000000" stroke-opacity="1" stroke-width="3.2"/>
<circle clip-path="url(#clip752)" cx="1333.6" cy="745.117" r="14.4" fill="#009af9" fill-rule="evenodd" fill-opacity="1" stroke="#000000" stroke-opacity="1" stroke-width="3.2"/>
<circle clip-path="url(#clip752)" cx="1426.94" cy="951.114" r="14.4" fill="#009af9" fill-rule="evenodd" fill-opacity="1" stroke="#000000" stroke-opacity="1" stroke-width="3.2"/>
<circle clip-path="url(#clip752)" cx="1427.39" cy="954.028" r="14.4" fill="#009af9" fill-rule="evenodd" fill-opacity="1" stroke="#000000" stroke-opacity="1" stroke-width="3.2"/>
<circle clip-path="url(#clip752)" cx="974.815" cy="937.528" r="14.4" fill="#009af9" fill-rule="evenodd" fill-opacity="1" stroke="#000000" stroke-opacity="1" stroke-width="3.2"/>
<circle clip-path="url(#clip752)" cx="1231.05" cy="1174.46" r="14.4" fill="#009af9" fill-rule="evenodd" fill-opacity="1" stroke="#000000" stroke-opacity="1" stroke-width="3.2"/>
<circle clip-path="url(#clip752)" cx="1518.85" cy="892.487" r="14.4" fill="#009af9" fill-rule="evenodd" fill-opacity="1" stroke="#000000" stroke-opacity="1" stroke-width="3.2"/>
<circle clip-path="url(#clip752)" cx="562.496" cy="1202.65" r="14.4" fill="#009af9" fill-rule="evenodd" fill-opacity="1" stroke="#000000" stroke-opacity="1" stroke-width="3.2"/>
<circle clip-path="url(#clip752)" cx="1511.79" cy="922.209" r="14.4" fill="#009af9" fill-rule="evenodd" fill-opacity="1" stroke="#000000" stroke-opacity="1" stroke-width="3.2"/>
<circle clip-path="url(#clip752)" cx="1444.51" cy="937.809" r="14.4" fill="#009af9" fill-rule="evenodd" fill-opacity="1" stroke="#000000" stroke-opacity="1" stroke-width="3.2"/>
<circle clip-path="url(#clip752)" cx="1419.22" cy="859.378" r="14.4" fill="#009af9" fill-rule="evenodd" fill-opacity="1" stroke="#000000" stroke-opacity="1" stroke-width="3.2"/>
<circle clip-path="url(#clip752)" cx="792.242" cy="1001.31" r="14.4" fill="#009af9" fill-rule="evenodd" fill-opacity="1" stroke="#000000" stroke-opacity="1" stroke-width="3.2"/>
<circle clip-path="url(#clip752)" cx="1756.47" cy="819.957" r="14.4" fill="#009af9" fill-rule="evenodd" fill-opacity="1" stroke="#000000" stroke-opacity="1" stroke-width="3.2"/>
<circle clip-path="url(#clip752)" cx="1299.13" cy="1429.68" r="14.4" fill="#009af9" fill-rule="evenodd" fill-opacity="1" stroke="#000000" stroke-opacity="1" stroke-width="3.2"/>
<circle clip-path="url(#clip752)" cx="826.657" cy="688.902" r="14.4" fill="#009af9" fill-rule="evenodd" fill-opacity="1" stroke="#000000" stroke-opacity="1" stroke-width="3.2"/>
<circle clip-path="url(#clip752)" cx="1359.92" cy="882.612" r="14.4" fill="#009af9" fill-rule="evenodd" fill-opacity="1" stroke="#000000" stroke-opacity="1" stroke-width="3.2"/>
<circle clip-path="url(#clip752)" cx="1530.34" cy="492.167" r="14.4" fill="#009af9" fill-rule="evenodd" fill-opacity="1" stroke="#000000" stroke-opacity="1" stroke-width="3.2"/>
<circle clip-path="url(#clip752)" cx="803.637" cy="1014.78" r="14.4" fill="#009af9" fill-rule="evenodd" fill-opacity="1" stroke="#000000" stroke-opacity="1" stroke-width="3.2"/>
<circle clip-path="url(#clip752)" cx="1346.85" cy="864.724" r="14.4" fill="#009af9" fill-rule="evenodd" fill-opacity="1" stroke="#000000" stroke-opacity="1" stroke-width="3.2"/>
<circle clip-path="url(#clip752)" cx="1664.32" cy="603.738" r="14.4" fill="#009af9" fill-rule="evenodd" fill-opacity="1" stroke="#000000" stroke-opacity="1" stroke-width="3.2"/>
<circle clip-path="url(#clip752)" cx="1870.19" cy="820.545" r="14.4" fill="#009af9" fill-rule="evenodd" fill-opacity="1" stroke="#000000" stroke-opacity="1" stroke-width="3.2"/>
<circle clip-path="url(#clip752)" cx="1491.28" cy="1351.31" r="14.4" fill="#009af9" fill-rule="evenodd" fill-opacity="1" stroke="#000000" stroke-opacity="1" stroke-width="3.2"/>
<circle clip-path="url(#clip752)" cx="1323.51" cy="582.794" r="14.4" fill="#009af9" fill-rule="evenodd" fill-opacity="1" stroke="#000000" stroke-opacity="1" stroke-width="3.2"/>
<circle clip-path="url(#clip752)" cx="1580.45" cy="930.516" r="14.4" fill="#009af9" fill-rule="evenodd" fill-opacity="1" stroke="#000000" stroke-opacity="1" stroke-width="3.2"/>
<circle clip-path="url(#clip752)" cx="1884.67" cy="1072.86" r="14.4" fill="#009af9" fill-rule="evenodd" fill-opacity="1" stroke="#000000" stroke-opacity="1" stroke-width="3.2"/>
<circle clip-path="url(#clip752)" cx="609.041" cy="761.657" r="14.4" fill="#009af9" fill-rule="evenodd" fill-opacity="1" stroke="#000000" stroke-opacity="1" stroke-width="3.2"/>
<circle clip-path="url(#clip752)" cx="779.436" cy="786.232" r="14.4" fill="#009af9" fill-rule="evenodd" fill-opacity="1" stroke="#000000" stroke-opacity="1" stroke-width="3.2"/>
<circle clip-path="url(#clip752)" cx="1536.84" cy="811.184" r="14.4" fill="#009af9" fill-rule="evenodd" fill-opacity="1" stroke="#000000" stroke-opacity="1" stroke-width="3.2"/>
<circle clip-path="url(#clip752)" cx="1606.99" cy="636.746" r="14.4" fill="#009af9" fill-rule="evenodd" fill-opacity="1" stroke="#000000" stroke-opacity="1" stroke-width="3.2"/>
<circle clip-path="url(#clip752)" cx="885.143" cy="1419.64" r="14.4" fill="#009af9" fill-rule="evenodd" fill-opacity="1" stroke="#000000" stroke-opacity="1" stroke-width="3.2"/>
<circle clip-path="url(#clip752)" cx="785.159" cy="1004.42" r="14.4" fill="#009af9" fill-rule="evenodd" fill-opacity="1" stroke="#000000" stroke-opacity="1" stroke-width="3.2"/>
<circle clip-path="url(#clip752)" cx="1816.65" cy="884.811" r="14.4" fill="#009af9" fill-rule="evenodd" fill-opacity="1" stroke="#000000" stroke-opacity="1" stroke-width="3.2"/>
<circle clip-path="url(#clip752)" cx="1051.11" cy="365.69" r="14.4" fill="#009af9" fill-rule="evenodd" fill-opacity="1" stroke="#000000" stroke-opacity="1" stroke-width="3.2"/>
<circle clip-path="url(#clip752)" cx="1507.8" cy="945.204" r="14.4" fill="#009af9" fill-rule="evenodd" fill-opacity="1" stroke="#000000" stroke-opacity="1" stroke-width="3.2"/>
<circle clip-path="url(#clip752)" cx="1105.73" cy="934.318" r="14.4" fill="#009af9" fill-rule="evenodd" fill-opacity="1" stroke="#000000" stroke-opacity="1" stroke-width="3.2"/>
<circle clip-path="url(#clip752)" cx="1939.78" cy="673.168" r="14.4" fill="#009af9" fill-rule="evenodd" fill-opacity="1" stroke="#000000" stroke-opacity="1" stroke-width="3.2"/>
<circle clip-path="url(#clip752)" cx="1374.17" cy="773.075" r="14.4" fill="#009af9" fill-rule="evenodd" fill-opacity="1" stroke="#000000" stroke-opacity="1" stroke-width="3.2"/>
<circle clip-path="url(#clip752)" cx="1774.35" cy="733.341" r="14.4" fill="#009af9" fill-rule="evenodd" fill-opacity="1" stroke="#000000" stroke-opacity="1" stroke-width="3.2"/>
<circle clip-path="url(#clip752)" cx="1575.85" cy="924.317" r="14.4" fill="#009af9" fill-rule="evenodd" fill-opacity="1" stroke="#000000" stroke-opacity="1" stroke-width="3.2"/>
<circle clip-path="url(#clip752)" cx="1921.52" cy="670.671" r="14.4" fill="#009af9" fill-rule="evenodd" fill-opacity="1" stroke="#000000" stroke-opacity="1" stroke-width="3.2"/>
<circle clip-path="url(#clip752)" cx="1894.69" cy="668.838" r="14.4" fill="#009af9" fill-rule="evenodd" fill-opacity="1" stroke="#000000" stroke-opacity="1" stroke-width="3.2"/>
<circle clip-path="url(#clip752)" cx="1630.44" cy="1074.08" r="14.4" fill="#009af9" fill-rule="evenodd" fill-opacity="1" stroke="#000000" stroke-opacity="1" stroke-width="3.2"/>
<circle clip-path="url(#clip752)" cx="582.291" cy="945.945" r="14.4" fill="#009af9" fill-rule="evenodd" fill-opacity="1" stroke="#000000" stroke-opacity="1" stroke-width="3.2"/>
<circle clip-path="url(#clip752)" cx="1195.52" cy="595.287" r="14.4" fill="#009af9" fill-rule="evenodd" fill-opacity="1" stroke="#000000" stroke-opacity="1" stroke-width="3.2"/>
<circle clip-path="url(#clip752)" cx="953.449" cy="492.938" r="14.4" fill="#009af9" fill-rule="evenodd" fill-opacity="1" stroke="#000000" stroke-opacity="1" stroke-width="3.2"/>
<circle clip-path="url(#clip752)" cx="1313.64" cy="87.9763" r="14.4" fill="#009af9" fill-rule="evenodd" fill-opacity="1" stroke="#000000" stroke-opacity="1" stroke-width="3.2"/>
<circle clip-path="url(#clip752)" cx="774.049" cy="1013.22" r="14.4" fill="#009af9" fill-rule="evenodd" fill-opacity="1" stroke="#000000" stroke-opacity="1" stroke-width="3.2"/>
<circle clip-path="url(#clip752)" cx="863.638" cy="701.197" r="14.4" fill="#009af9" fill-rule="evenodd" fill-opacity="1" stroke="#000000" stroke-opacity="1" stroke-width="3.2"/>
<circle clip-path="url(#clip752)" cx="1385.82" cy="686.279" r="14.4" fill="#009af9" fill-rule="evenodd" fill-opacity="1" stroke="#000000" stroke-opacity="1" stroke-width="3.2"/>
<circle clip-path="url(#clip752)" cx="1162.95" cy="1021.46" r="14.4" fill="#009af9" fill-rule="evenodd" fill-opacity="1" stroke="#000000" stroke-opacity="1" stroke-width="3.2"/>
<circle clip-path="url(#clip752)" cx="1279.53" cy="386.514" r="14.4" fill="#009af9" fill-rule="evenodd" fill-opacity="1" stroke="#000000" stroke-opacity="1" stroke-width="3.2"/>
<circle clip-path="url(#clip752)" cx="1790.3" cy="564.336" r="14.4" fill="#009af9" fill-rule="evenodd" fill-opacity="1" stroke="#000000" stroke-opacity="1" stroke-width="3.2"/>
<circle clip-path="url(#clip752)" cx="1373.73" cy="464.069" r="14.4" fill="#009af9" fill-rule="evenodd" fill-opacity="1" stroke="#000000" stroke-opacity="1" stroke-width="3.2"/>
<circle clip-path="url(#clip752)" cx="1660.45" cy="1096.42" r="14.4" fill="#009af9" fill-rule="evenodd" fill-opacity="1" stroke="#000000" stroke-opacity="1" stroke-width="3.2"/>
<circle clip-path="url(#clip752)" cx="1910.65" cy="873.475" r="14.4" fill="#009af9" fill-rule="evenodd" fill-opacity="1" stroke="#000000" stroke-opacity="1" stroke-width="3.2"/>
<circle clip-path="url(#clip752)" cx="1652.37" cy="602.84" r="14.4" fill="#009af9" fill-rule="evenodd" fill-opacity="1" stroke="#000000" stroke-opacity="1" stroke-width="3.2"/>
<circle clip-path="url(#clip752)" cx="1673.07" cy="602.963" r="14.4" fill="#009af9" fill-rule="evenodd" fill-opacity="1" stroke="#000000" stroke-opacity="1" stroke-width="3.2"/>
<circle clip-path="url(#clip752)" cx="1685.6" cy="592.977" r="14.4" fill="#009af9" fill-rule="evenodd" fill-opacity="1" stroke="#000000" stroke-opacity="1" stroke-width="3.2"/>
<circle clip-path="url(#clip752)" cx="771.53" cy="1020.15" r="14.4" fill="#009af9" fill-rule="evenodd" fill-opacity="1" stroke="#000000" stroke-opacity="1" stroke-width="3.2"/>
<circle clip-path="url(#clip752)" cx="758.781" cy="1010.63" r="14.4" fill="#009af9" fill-rule="evenodd" fill-opacity="1" stroke="#000000" stroke-opacity="1" stroke-width="3.2"/>
<circle clip-path="url(#clip752)" cx="1347.03" cy="407.373" r="14.4" fill="#009af9" fill-rule="evenodd" fill-opacity="1" stroke="#000000" stroke-opacity="1" stroke-width="3.2"/>
<circle clip-path="url(#clip752)" cx="1571.09" cy="923.099" r="14.4" fill="#009af9" fill-rule="evenodd" fill-opacity="1" stroke="#000000" stroke-opacity="1" stroke-width="3.2"/>
<circle clip-path="url(#clip752)" cx="797.91" cy="1012.77" r="14.4" fill="#009af9" fill-rule="evenodd" fill-opacity="1" stroke="#000000" stroke-opacity="1" stroke-width="3.2"/>
<circle clip-path="url(#clip752)" cx="1335.39" cy="880.831" r="14.4" fill="#009af9" fill-rule="evenodd" fill-opacity="1" stroke="#000000" stroke-opacity="1" stroke-width="3.2"/>
<circle clip-path="url(#clip752)" cx="1350.77" cy="877.542" r="14.4" fill="#009af9" fill-rule="evenodd" fill-opacity="1" stroke="#000000" stroke-opacity="1" stroke-width="3.2"/>
<circle clip-path="url(#clip752)" cx="1098.17" cy="966.124" r="14.4" fill="#009af9" fill-rule="evenodd" fill-opacity="1" stroke="#000000" stroke-opacity="1" stroke-width="3.2"/>
<circle clip-path="url(#clip752)" cx="1346.17" cy="881.831" r="14.4" fill="#009af9" fill-rule="evenodd" fill-opacity="1" stroke="#000000" stroke-opacity="1" stroke-width="3.2"/>
<circle clip-path="url(#clip752)" cx="1527.75" cy="1080.59" r="14.4" fill="#009af9" fill-rule="evenodd" fill-opacity="1" stroke="#000000" stroke-opacity="1" stroke-width="3.2"/>
<circle clip-path="url(#clip752)" cx="1657.38" cy="592.048" r="14.4" fill="#009af9" fill-rule="evenodd" fill-opacity="1" stroke="#000000" stroke-opacity="1" stroke-width="3.2"/>
<circle clip-path="url(#clip752)" cx="1133.59" cy="372.175" r="14.4" fill="#009af9" fill-rule="evenodd" fill-opacity="1" stroke="#000000" stroke-opacity="1" stroke-width="3.2"/>
<circle clip-path="url(#clip752)" cx="1326.55" cy="868.64" r="14.4" fill="#009af9" fill-rule="evenodd" fill-opacity="1" stroke="#000000" stroke-opacity="1" stroke-width="3.2"/>
<circle clip-path="url(#clip752)" cx="1512.64" cy="933.823" r="14.4" fill="#009af9" fill-rule="evenodd" fill-opacity="1" stroke="#000000" stroke-opacity="1" stroke-width="3.2"/>
<circle clip-path="url(#clip752)" cx="1678.18" cy="820.815" r="14.4" fill="#009af9" fill-rule="evenodd" fill-opacity="1" stroke="#000000" stroke-opacity="1" stroke-width="3.2"/>
<circle clip-path="url(#clip752)" cx="1644.77" cy="600.303" r="14.4" fill="#009af9" fill-rule="evenodd" fill-opacity="1" stroke="#000000" stroke-opacity="1" stroke-width="3.2"/>
<circle clip-path="url(#clip752)" cx="1595.93" cy="908.842" r="14.4" fill="#009af9" fill-rule="evenodd" fill-opacity="1" stroke="#000000" stroke-opacity="1" stroke-width="3.2"/>
<circle clip-path="url(#clip752)" cx="1013.02" cy="708.937" r="14.4" fill="#009af9" fill-rule="evenodd" fill-opacity="1" stroke="#000000" stroke-opacity="1" stroke-width="3.2"/>
<circle clip-path="url(#clip752)" cx="962.468" cy="836.67" r="14.4" fill="#009af9" fill-rule="evenodd" fill-opacity="1" stroke="#000000" stroke-opacity="1" stroke-width="3.2"/>
<circle clip-path="url(#clip752)" cx="1118.81" cy="1116.16" r="14.4" fill="#009af9" fill-rule="evenodd" fill-opacity="1" stroke="#000000" stroke-opacity="1" stroke-width="3.2"/>
<circle clip-path="url(#clip752)" cx="1638.27" cy="1079.01" r="14.4" fill="#009af9" fill-rule="evenodd" fill-opacity="1" stroke="#000000" stroke-opacity="1" stroke-width="3.2"/>
<circle clip-path="url(#clip752)" cx="1251.28" cy="800.385" r="14.4" fill="#009af9" fill-rule="evenodd" fill-opacity="1" stroke="#000000" stroke-opacity="1" stroke-width="3.2"/>
<circle clip-path="url(#clip752)" cx="1355.09" cy="855.799" r="14.4" fill="#009af9" fill-rule="evenodd" fill-opacity="1" stroke="#000000" stroke-opacity="1" stroke-width="3.2"/>
<circle clip-path="url(#clip752)" cx="487.541" cy="1184.39" r="14.4" fill="#009af9" fill-rule="evenodd" fill-opacity="1" stroke="#000000" stroke-opacity="1" stroke-width="3.2"/>
<circle clip-path="url(#clip752)" cx="1643.85" cy="589.853" r="14.4" fill="#009af9" fill-rule="evenodd" fill-opacity="1" stroke="#000000" stroke-opacity="1" stroke-width="3.2"/>
<circle clip-path="url(#clip752)" cx="1578.23" cy="920.449" r="14.4" fill="#009af9" fill-rule="evenodd" fill-opacity="1" stroke="#000000" stroke-opacity="1" stroke-width="3.2"/>
<circle clip-path="url(#clip752)" cx="1517.47" cy="1445.72" r="14.4" fill="#009af9" fill-rule="evenodd" fill-opacity="1" stroke="#000000" stroke-opacity="1" stroke-width="3.2"/>
<circle clip-path="url(#clip752)" cx="1188.6" cy="772.776" r="14.4" fill="#009af9" fill-rule="evenodd" fill-opacity="1" stroke="#000000" stroke-opacity="1" stroke-width="3.2"/>
<circle clip-path="url(#clip752)" cx="1629.8" cy="1088.5" r="14.4" fill="#009af9" fill-rule="evenodd" fill-opacity="1" stroke="#000000" stroke-opacity="1" stroke-width="3.2"/>
<circle clip-path="url(#clip752)" cx="1279.08" cy="583.725" r="14.4" fill="#009af9" fill-rule="evenodd" fill-opacity="1" stroke="#000000" stroke-opacity="1" stroke-width="3.2"/>
<circle clip-path="url(#clip752)" cx="1111.26" cy="1054.47" r="14.4" fill="#009af9" fill-rule="evenodd" fill-opacity="1" stroke="#000000" stroke-opacity="1" stroke-width="3.2"/>
<circle clip-path="url(#clip752)" cx="1028.81" cy="1103.21" r="14.4" fill="#009af9" fill-rule="evenodd" fill-opacity="1" stroke="#000000" stroke-opacity="1" stroke-width="3.2"/>
<circle clip-path="url(#clip752)" cx="1571.86" cy="930.061" r="14.4" fill="#009af9" fill-rule="evenodd" fill-opacity="1" stroke="#000000" stroke-opacity="1" stroke-width="3.2"/>
<circle clip-path="url(#clip752)" cx="1313.95" cy="579.237" r="14.4" fill="#009af9" fill-rule="evenodd" fill-opacity="1" stroke="#000000" stroke-opacity="1" stroke-width="3.2"/>
<circle clip-path="url(#clip752)" cx="1619.19" cy="902.956" r="14.4" fill="#009af9" fill-rule="evenodd" fill-opacity="1" stroke="#000000" stroke-opacity="1" stroke-width="3.2"/>
<circle clip-path="url(#clip752)" cx="819.555" cy="786.538" r="14.4" fill="#009af9" fill-rule="evenodd" fill-opacity="1" stroke="#000000" stroke-opacity="1" stroke-width="3.2"/>
<circle clip-path="url(#clip752)" cx="1562.93" cy="839.731" r="14.4" fill="#009af9" fill-rule="evenodd" fill-opacity="1" stroke="#000000" stroke-opacity="1" stroke-width="3.2"/>
<circle clip-path="url(#clip752)" cx="1626.3" cy="1097" r="14.4" fill="#009af9" fill-rule="evenodd" fill-opacity="1" stroke="#000000" stroke-opacity="1" stroke-width="3.2"/>
<circle clip-path="url(#clip752)" cx="1322.51" cy="584.557" r="14.4" fill="#009af9" fill-rule="evenodd" fill-opacity="1" stroke="#000000" stroke-opacity="1" stroke-width="3.2"/>
<circle clip-path="url(#clip752)" cx="813.802" cy="545.997" r="14.4" fill="#009af9" fill-rule="evenodd" fill-opacity="1" stroke="#000000" stroke-opacity="1" stroke-width="3.2"/>
<circle clip-path="url(#clip752)" cx="1504.95" cy="931.627" r="14.4" fill="#009af9" fill-rule="evenodd" fill-opacity="1" stroke="#000000" stroke-opacity="1" stroke-width="3.2"/>
<circle clip-path="url(#clip752)" cx="629.592" cy="1085.63" r="14.4" fill="#009af9" fill-rule="evenodd" fill-opacity="1" stroke="#000000" stroke-opacity="1" stroke-width="3.2"/>
<circle clip-path="url(#clip752)" cx="2029.78" cy="868.992" r="14.4" fill="#009af9" fill-rule="evenodd" fill-opacity="1" stroke="#000000" stroke-opacity="1" stroke-width="3.2"/>
<circle clip-path="url(#clip752)" cx="1585.31" cy="920.21" r="14.4" fill="#009af9" fill-rule="evenodd" fill-opacity="1" stroke="#000000" stroke-opacity="1" stroke-width="3.2"/>
<circle clip-path="url(#clip752)" cx="1514.72" cy="932.867" r="14.4" fill="#009af9" fill-rule="evenodd" fill-opacity="1" stroke="#000000" stroke-opacity="1" stroke-width="3.2"/>
<circle clip-path="url(#clip752)" cx="1631.6" cy="1099.18" r="14.4" fill="#009af9" fill-rule="evenodd" fill-opacity="1" stroke="#000000" stroke-opacity="1" stroke-width="3.2"/>
<circle clip-path="url(#clip752)" cx="1018.46" cy="800.567" r="14.4" fill="#009af9" fill-rule="evenodd" fill-opacity="1" stroke="#000000" stroke-opacity="1" stroke-width="3.2"/>
<circle clip-path="url(#clip752)" cx="1292.63" cy="588.25" r="14.4" fill="#009af9" fill-rule="evenodd" fill-opacity="1" stroke="#000000" stroke-opacity="1" stroke-width="3.2"/>
<circle clip-path="url(#clip752)" cx="1630.63" cy="1092.87" r="14.4" fill="#009af9" fill-rule="evenodd" fill-opacity="1" stroke="#000000" stroke-opacity="1" stroke-width="3.2"/>
<circle clip-path="url(#clip752)" cx="1741.52" cy="712.953" r="14.4" fill="#009af9" fill-rule="evenodd" fill-opacity="1" stroke="#000000" stroke-opacity="1" stroke-width="3.2"/>
<circle clip-path="url(#clip752)" cx="1580.27" cy="619.171" r="14.4" fill="#009af9" fill-rule="evenodd" fill-opacity="1" stroke="#000000" stroke-opacity="1" stroke-width="3.2"/>
<circle clip-path="url(#clip752)" cx="1600.42" cy="916.79" r="14.4" fill="#009af9" fill-rule="evenodd" fill-opacity="1" stroke="#000000" stroke-opacity="1" stroke-width="3.2"/>
<circle clip-path="url(#clip752)" cx="1603.24" cy="920.232" r="14.4" fill="#009af9" fill-rule="evenodd" fill-opacity="1" stroke="#000000" stroke-opacity="1" stroke-width="3.2"/>
<circle clip-path="url(#clip752)" cx="1342.15" cy="876.149" r="14.4" fill="#009af9" fill-rule="evenodd" fill-opacity="1" stroke="#000000" stroke-opacity="1" stroke-width="3.2"/>
<circle clip-path="url(#clip752)" cx="2290.6" cy="1222.24" r="14.4" fill="#009af9" fill-rule="evenodd" fill-opacity="1" stroke="#000000" stroke-opacity="1" stroke-width="3.2"/>
<circle clip-path="url(#clip752)" cx="1883.64" cy="850.18" r="14.4" fill="#009af9" fill-rule="evenodd" fill-opacity="1" stroke="#000000" stroke-opacity="1" stroke-width="3.2"/>
<circle clip-path="url(#clip752)" cx="1654.94" cy="611.305" r="14.4" fill="#009af9" fill-rule="evenodd" fill-opacity="1" stroke="#000000" stroke-opacity="1" stroke-width="3.2"/>
<circle clip-path="url(#clip752)" cx="1580.83" cy="913.815" r="14.4" fill="#009af9" fill-rule="evenodd" fill-opacity="1" stroke="#000000" stroke-opacity="1" stroke-width="3.2"/>
<circle clip-path="url(#clip752)" cx="1644.22" cy="1090.02" r="14.4" fill="#009af9" fill-rule="evenodd" fill-opacity="1" stroke="#000000" stroke-opacity="1" stroke-width="3.2"/>
<circle clip-path="url(#clip752)" cx="790.481" cy="1008.71" r="14.4" fill="#009af9" fill-rule="evenodd" fill-opacity="1" stroke="#000000" stroke-opacity="1" stroke-width="3.2"/>
<circle clip-path="url(#clip752)" cx="1908.96" cy="812.928" r="14.4" fill="#009af9" fill-rule="evenodd" fill-opacity="1" stroke="#000000" stroke-opacity="1" stroke-width="3.2"/>
<circle clip-path="url(#clip752)" cx="2125.99" cy="791.112" r="14.4" fill="#009af9" fill-rule="evenodd" fill-opacity="1" stroke="#000000" stroke-opacity="1" stroke-width="3.2"/>
<circle clip-path="url(#clip752)" cx="1512.32" cy="942.552" r="14.4" fill="#009af9" fill-rule="evenodd" fill-opacity="1" stroke="#000000" stroke-opacity="1" stroke-width="3.2"/>
<circle clip-path="url(#clip752)" cx="1586.13" cy="916.402" r="14.4" fill="#009af9" fill-rule="evenodd" fill-opacity="1" stroke="#000000" stroke-opacity="1" stroke-width="3.2"/>
<circle clip-path="url(#clip752)" cx="1326.61" cy="860.223" r="14.4" fill="#009af9" fill-rule="evenodd" fill-opacity="1" stroke="#000000" stroke-opacity="1" stroke-width="3.2"/>
<circle clip-path="url(#clip752)" cx="1925.86" cy="679.241" r="14.4" fill="#009af9" fill-rule="evenodd" fill-opacity="1" stroke="#000000" stroke-opacity="1" stroke-width="3.2"/>
<circle clip-path="url(#clip752)" cx="1099.86" cy="961.488" r="14.4" fill="#009af9" fill-rule="evenodd" fill-opacity="1" stroke="#000000" stroke-opacity="1" stroke-width="3.2"/>
<circle clip-path="url(#clip752)" cx="1327.23" cy="856.489" r="14.4" fill="#009af9" fill-rule="evenodd" fill-opacity="1" stroke="#000000" stroke-opacity="1" stroke-width="3.2"/>
<circle clip-path="url(#clip752)" cx="1463.19" cy="371.188" r="14.4" fill="#009af9" fill-rule="evenodd" fill-opacity="1" stroke="#000000" stroke-opacity="1" stroke-width="3.2"/>
<circle clip-path="url(#clip752)" cx="1440.43" cy="1054.96" r="14.4" fill="#009af9" fill-rule="evenodd" fill-opacity="1" stroke="#000000" stroke-opacity="1" stroke-width="3.2"/>
<circle clip-path="url(#clip752)" cx="1915.42" cy="590.69" r="14.4" fill="#009af9" fill-rule="evenodd" fill-opacity="1" stroke="#000000" stroke-opacity="1" stroke-width="3.2"/>
<circle clip-path="url(#clip752)" cx="1526.12" cy="704.301" r="14.4" fill="#009af9" fill-rule="evenodd" fill-opacity="1" stroke="#000000" stroke-opacity="1" stroke-width="3.2"/>
<circle clip-path="url(#clip752)" cx="1678.15" cy="899.492" r="14.4" fill="#009af9" fill-rule="evenodd" fill-opacity="1" stroke="#000000" stroke-opacity="1" stroke-width="3.2"/>
<circle clip-path="url(#clip752)" cx="1608.71" cy="1070.84" r="14.4" fill="#009af9" fill-rule="evenodd" fill-opacity="1" stroke="#000000" stroke-opacity="1" stroke-width="3.2"/>
<circle clip-path="url(#clip752)" cx="1498.73" cy="1263.21" r="14.4" fill="#009af9" fill-rule="evenodd" fill-opacity="1" stroke="#000000" stroke-opacity="1" stroke-width="3.2"/>
<circle clip-path="url(#clip752)" cx="218.754" cy="764.754" r="14.4" fill="#009af9" fill-rule="evenodd" fill-opacity="1" stroke="#000000" stroke-opacity="1" stroke-width="3.2"/>
<circle clip-path="url(#clip752)" cx="1925.19" cy="679.027" r="14.4" fill="#009af9" fill-rule="evenodd" fill-opacity="1" stroke="#000000" stroke-opacity="1" stroke-width="3.2"/>
<circle clip-path="url(#clip752)" cx="851.183" cy="703.909" r="14.4" fill="#009af9" fill-rule="evenodd" fill-opacity="1" stroke="#000000" stroke-opacity="1" stroke-width="3.2"/>
<circle clip-path="url(#clip752)" cx="1671.18" cy="816.825" r="14.4" fill="#009af9" fill-rule="evenodd" fill-opacity="1" stroke="#000000" stroke-opacity="1" stroke-width="3.2"/>
<circle clip-path="url(#clip752)" cx="1528.04" cy="930.285" r="14.4" fill="#009af9" fill-rule="evenodd" fill-opacity="1" stroke="#000000" stroke-opacity="1" stroke-width="3.2"/>
<circle clip-path="url(#clip752)" cx="866.112" cy="819.412" r="14.4" fill="#009af9" fill-rule="evenodd" fill-opacity="1" stroke="#000000" stroke-opacity="1" stroke-width="3.2"/>
<circle clip-path="url(#clip752)" cx="1323.61" cy="579.054" r="14.4" fill="#009af9" fill-rule="evenodd" fill-opacity="1" stroke="#000000" stroke-opacity="1" stroke-width="3.2"/>
<circle clip-path="url(#clip752)" cx="1922.29" cy="671.849" r="14.4" fill="#e26f46" fill-rule="evenodd" fill-opacity="1" stroke="#000000" stroke-opacity="1" stroke-width="3.2"/>
<circle clip-path="url(#clip752)" cx="1344.28" cy="873.608" r="14.4" fill="#e26f46" fill-rule="evenodd" fill-opacity="1" stroke="#000000" stroke-opacity="1" stroke-width="3.2"/>
<circle clip-path="url(#clip752)" cx="838.991" cy="688.023" r="14.4" fill="#e26f46" fill-rule="evenodd" fill-opacity="1" stroke="#000000" stroke-opacity="1" stroke-width="3.2"/>
<circle clip-path="url(#clip752)" cx="1658.19" cy="598.654" r="14.4" fill="#e26f46" fill-rule="evenodd" fill-opacity="1" stroke="#000000" stroke-opacity="1" stroke-width="3.2"/>
<circle clip-path="url(#clip752)" cx="788.172" cy="1006.56" r="14.4" fill="#e26f46" fill-rule="evenodd" fill-opacity="1" stroke="#000000" stroke-opacity="1" stroke-width="3.2"/>
<circle clip-path="url(#clip752)" cx="1509.7" cy="940.105" r="14.4" fill="#e26f46" fill-rule="evenodd" fill-opacity="1" stroke="#000000" stroke-opacity="1" stroke-width="3.2"/>
<circle clip-path="url(#clip752)" cx="1311.94" cy="582.665" r="14.4" fill="#e26f46" fill-rule="evenodd" fill-opacity="1" stroke="#000000" stroke-opacity="1" stroke-width="3.2"/>
<circle clip-path="url(#clip752)" cx="1589.4" cy="918.174" r="14.4" fill="#e26f46" fill-rule="evenodd" fill-opacity="1" stroke="#000000" stroke-opacity="1" stroke-width="3.2"/>
<circle clip-path="url(#clip752)" cx="1640.44" cy="1093.63" r="14.4" fill="#e26f46" fill-rule="evenodd" fill-opacity="1" stroke="#000000" stroke-opacity="1" stroke-width="3.2"/>
<circle clip-path="url(#clip752)" cx="1431.21" cy="947.472" r="14.4" fill="#e26f46" fill-rule="evenodd" fill-opacity="1" stroke="#000000" stroke-opacity="1" stroke-width="3.2"/>
<path clip-path="url(#clip750)" d="M229.803 250.738 L844.487 250.738 L844.487 95.2176 L229.803 95.2176  Z" fill="#ffffff" fill-rule="evenodd" fill-opacity="1"/>
<polyline clip-path="url(#clip750)" style="stroke:#000000; stroke-linecap:round; stroke-linejoin:round; stroke-width:4; stroke-opacity:1; fill:none" points="229.803,250.738 844.487,250.738 844.487,95.2176 229.803,95.2176 229.803,250.738 "/>
<circle clip-path="url(#clip750)" cx="327.41" cy="147.058" r="20.48" fill="#009af9" fill-rule="evenodd" fill-opacity="1" stroke="#000000" stroke-opacity="1" stroke-width="4.55111"/>
<path clip-path="url(#clip750)" d="M449.045 150.31 L449.045 152.393 L429.462 152.393 Q429.74 156.791 432.101 159.106 Q434.485 161.398 438.721 161.398 Q441.175 161.398 443.466 160.796 Q445.781 160.194 448.05 158.99 L448.05 163.018 Q445.758 163.99 443.351 164.5 Q440.943 165.009 438.467 165.009 Q432.263 165.009 428.629 161.398 Q425.018 157.787 425.018 151.629 Q425.018 145.264 428.443 141.537 Q431.892 137.787 437.726 137.787 Q442.957 137.787 445.99 141.166 Q449.045 144.523 449.045 150.31 M444.786 149.06 Q444.74 145.565 442.818 143.481 Q440.92 141.398 437.772 141.398 Q434.207 141.398 432.055 143.412 Q429.925 145.426 429.601 149.083 L444.786 149.06 Z" fill="#000000" fill-rule="nonzero" fill-opacity="1" /><path clip-path="url(#clip750)" d="M452.98 138.412 L457.494 138.412 L465.596 160.171 L473.698 138.412 L478.212 138.412 L468.489 164.338 L462.702 164.338 L452.98 138.412 Z" fill="#000000" fill-rule="nonzero" fill-opacity="1" /><path clip-path="url(#clip750)" d="M506.267 150.31 L506.267 152.393 L486.684 152.393 Q486.962 156.791 489.323 159.106 Q491.707 161.398 495.943 161.398 Q498.397 161.398 500.688 160.796 Q503.003 160.194 505.272 158.99 L505.272 163.018 Q502.98 163.99 500.573 164.5 Q498.165 165.009 495.688 165.009 Q489.485 165.009 485.851 161.398 Q482.239 157.787 482.239 151.629 Q482.239 145.264 485.665 141.537 Q489.114 137.787 494.948 137.787 Q500.179 137.787 503.212 141.166 Q506.267 144.523 506.267 150.31 M502.008 149.06 Q501.962 145.565 500.04 143.481 Q498.142 141.398 494.994 141.398 Q491.429 141.398 489.276 143.412 Q487.147 145.426 486.823 149.083 L502.008 149.06 Z" fill="#000000" fill-rule="nonzero" fill-opacity="1" /><path clip-path="url(#clip750)" d="M534.809 148.689 L534.809 164.338 L530.549 164.338 L530.549 148.828 Q530.549 145.148 529.114 143.319 Q527.679 141.49 524.809 141.49 Q521.36 141.49 519.369 143.69 Q517.378 145.889 517.378 149.685 L517.378 164.338 L513.096 164.338 L513.096 138.412 L517.378 138.412 L517.378 142.44 Q518.906 140.102 520.966 138.944 Q523.049 137.787 525.758 137.787 Q530.225 137.787 532.517 140.565 Q534.809 143.319 534.809 148.689 Z" fill="#000000" fill-rule="nonzero" fill-opacity="1" /><path clip-path="url(#clip750)" d="M547.517 131.051 L547.517 138.412 L556.29 138.412 L556.29 141.722 L547.517 141.722 L547.517 155.796 Q547.517 158.967 548.373 159.87 Q549.253 160.773 551.915 160.773 L556.29 160.773 L556.29 164.338 L551.915 164.338 Q546.984 164.338 545.109 162.509 Q543.234 160.657 543.234 155.796 L543.234 141.722 L540.109 141.722 L540.109 138.412 L543.234 138.412 L543.234 131.051 L547.517 131.051 Z" fill="#000000" fill-rule="nonzero" fill-opacity="1" /><path clip-path="url(#clip750)" d="M578.419 139.176 L578.419 143.203 Q576.614 142.277 574.669 141.815 Q572.725 141.352 570.642 141.352 Q567.47 141.352 565.873 142.324 Q564.299 143.296 564.299 145.24 Q564.299 146.722 565.433 147.578 Q566.568 148.412 569.994 149.176 L571.452 149.5 Q575.989 150.472 577.887 152.254 Q579.808 154.014 579.808 157.185 Q579.808 160.796 576.938 162.902 Q574.091 165.009 569.091 165.009 Q567.007 165.009 564.739 164.592 Q562.494 164.199 559.994 163.388 L559.994 158.99 Q562.355 160.217 564.646 160.842 Q566.938 161.444 569.183 161.444 Q572.193 161.444 573.813 160.426 Q575.433 159.384 575.433 157.509 Q575.433 155.773 574.253 154.847 Q573.095 153.921 569.137 153.064 L567.656 152.717 Q563.697 151.884 561.938 150.171 Q560.179 148.435 560.179 145.426 Q560.179 141.768 562.771 139.778 Q565.364 137.787 570.132 137.787 Q572.494 137.787 574.577 138.134 Q576.66 138.481 578.419 139.176 Z" fill="#000000" fill-rule="nonzero" fill-opacity="1" /><circle clip-path="url(#clip750)" cx="327.41" cy="198.898" r="20.48" fill="#e26f46" fill-rule="evenodd" fill-opacity="1" stroke="#000000" stroke-opacity="1" stroke-width="4.55111"/>
<path clip-path="url(#clip750)" d="M445.527 191.247 L445.527 195.229 Q443.721 194.233 441.892 193.747 Q440.087 193.238 438.235 193.238 Q434.092 193.238 431.8 195.877 Q429.508 198.492 429.508 203.238 Q429.508 207.983 431.8 210.622 Q434.092 213.238 438.235 213.238 Q440.087 213.238 441.892 212.752 Q443.721 212.242 445.527 211.247 L445.527 215.182 Q443.744 216.016 441.823 216.432 Q439.925 216.849 437.772 216.849 Q431.916 216.849 428.467 213.168 Q425.018 209.488 425.018 203.238 Q425.018 196.895 428.49 193.261 Q431.985 189.627 438.05 189.627 Q440.017 189.627 441.892 190.043 Q443.767 190.437 445.527 191.247 Z" fill="#000000" fill-rule="nonzero" fill-opacity="1" /><path clip-path="url(#clip750)" d="M452.934 180.159 L457.193 180.159 L457.193 216.178 L452.934 216.178 L452.934 180.159 Z" fill="#000000" fill-rule="nonzero" fill-opacity="1" /><path clip-path="url(#clip750)" d="M465.665 205.946 L465.665 190.252 L469.925 190.252 L469.925 205.784 Q469.925 209.465 471.36 211.316 Q472.795 213.145 475.665 213.145 Q479.114 213.145 481.105 210.946 Q483.119 208.747 483.119 204.951 L483.119 190.252 L487.378 190.252 L487.378 216.178 L483.119 216.178 L483.119 212.196 Q481.568 214.557 479.508 215.715 Q477.471 216.849 474.763 216.849 Q470.295 216.849 467.98 214.071 Q465.665 211.293 465.665 205.946 M476.383 189.627 L476.383 189.627 Z" fill="#000000" fill-rule="nonzero" fill-opacity="1" /><path clip-path="url(#clip750)" d="M512.679 191.016 L512.679 195.043 Q510.874 194.117 508.929 193.655 Q506.985 193.192 504.901 193.192 Q501.73 193.192 500.133 194.164 Q498.559 195.136 498.559 197.08 Q498.559 198.562 499.693 199.418 Q500.827 200.252 504.253 201.016 L505.712 201.34 Q510.249 202.312 512.147 204.094 Q514.068 205.854 514.068 209.025 Q514.068 212.636 511.198 214.742 Q508.35 216.849 503.35 216.849 Q501.267 216.849 498.999 216.432 Q496.753 216.039 494.253 215.228 L494.253 210.83 Q496.614 212.057 498.906 212.682 Q501.198 213.284 503.443 213.284 Q506.452 213.284 508.073 212.266 Q509.693 211.224 509.693 209.349 Q509.693 207.613 508.512 206.687 Q507.355 205.761 503.397 204.904 L501.915 204.557 Q497.957 203.724 496.198 202.011 Q494.438 200.275 494.438 197.266 Q494.438 193.608 497.031 191.618 Q499.624 189.627 504.392 189.627 Q506.753 189.627 508.837 189.974 Q510.92 190.321 512.679 191.016 Z" fill="#000000" fill-rule="nonzero" fill-opacity="1" /><path clip-path="url(#clip750)" d="M525.063 182.891 L525.063 190.252 L533.836 190.252 L533.836 193.562 L525.063 193.562 L525.063 207.636 Q525.063 210.807 525.92 211.71 Q526.799 212.613 529.461 212.613 L533.836 212.613 L533.836 216.178 L529.461 216.178 Q524.531 216.178 522.656 214.349 Q520.781 212.497 520.781 207.636 L520.781 193.562 L517.656 193.562 L517.656 190.252 L520.781 190.252 L520.781 182.891 L525.063 182.891 Z" fill="#000000" fill-rule="nonzero" fill-opacity="1" /><path clip-path="url(#clip750)" d="M561.614 202.15 L561.614 204.233 L542.031 204.233 Q542.309 208.631 544.67 210.946 Q547.054 213.238 551.29 213.238 Q553.744 213.238 556.035 212.636 Q558.35 212.034 560.619 210.83 L560.619 214.858 Q558.327 215.83 555.92 216.34 Q553.512 216.849 551.035 216.849 Q544.832 216.849 541.197 213.238 Q537.586 209.627 537.586 203.469 Q537.586 197.104 541.012 193.377 Q544.461 189.627 550.295 189.627 Q555.526 189.627 558.558 193.006 Q561.614 196.363 561.614 202.15 M557.355 200.9 Q557.308 197.405 555.387 195.321 Q553.489 193.238 550.341 193.238 Q546.776 193.238 544.623 195.252 Q542.494 197.266 542.17 200.923 L557.355 200.9 Z" fill="#000000" fill-rule="nonzero" fill-opacity="1" /><path clip-path="url(#clip750)" d="M583.628 194.233 Q582.91 193.817 582.054 193.631 Q581.22 193.423 580.202 193.423 Q576.591 193.423 574.646 195.784 Q572.725 198.122 572.725 202.52 L572.725 216.178 L568.443 216.178 L568.443 190.252 L572.725 190.252 L572.725 194.28 Q574.068 191.918 576.22 190.784 Q578.373 189.627 581.452 189.627 Q581.892 189.627 582.424 189.696 Q582.956 189.743 583.605 189.858 L583.628 194.233 Z" fill="#000000" fill-rule="nonzero" fill-opacity="1" /><path clip-path="url(#clip750)" d="M625.341 202.15 L625.341 204.233 L605.757 204.233 Q606.035 208.631 608.396 210.946 Q610.78 213.238 615.016 213.238 Q617.47 213.238 619.762 212.636 Q622.077 212.034 624.345 210.83 L624.345 214.858 Q622.053 215.83 619.646 216.34 Q617.239 216.849 614.762 216.849 Q608.558 216.849 604.924 213.238 Q601.313 209.627 601.313 203.469 Q601.313 197.104 604.739 193.377 Q608.188 189.627 614.021 189.627 Q619.253 189.627 622.285 193.006 Q625.341 196.363 625.341 202.15 M621.081 200.9 Q621.035 197.405 619.114 195.321 Q617.216 193.238 614.067 193.238 Q610.503 193.238 608.35 195.252 Q606.22 197.266 605.896 200.923 L621.081 200.9 Z" fill="#000000" fill-rule="nonzero" fill-opacity="1" /><path clip-path="url(#clip750)" d="M636.452 212.289 L636.452 226.039 L632.169 226.039 L632.169 190.252 L636.452 190.252 L636.452 194.187 Q637.794 191.872 639.831 190.761 Q641.891 189.627 644.739 189.627 Q649.461 189.627 652.401 193.377 Q655.363 197.127 655.363 203.238 Q655.363 209.349 652.401 213.099 Q649.461 216.849 644.739 216.849 Q641.891 216.849 639.831 215.738 Q637.794 214.603 636.452 212.289 M650.942 203.238 Q650.942 198.539 648.998 195.877 Q647.077 193.192 643.697 193.192 Q640.317 193.192 638.373 195.877 Q636.452 198.539 636.452 203.238 Q636.452 207.937 638.373 210.622 Q640.317 213.284 643.697 213.284 Q647.077 213.284 648.998 210.622 Q650.942 207.937 650.942 203.238 Z" fill="#000000" fill-rule="nonzero" fill-opacity="1" /><path clip-path="url(#clip750)" d="M662.424 190.252 L666.683 190.252 L666.683 216.178 L662.424 216.178 L662.424 190.252 M662.424 180.159 L666.683 180.159 L666.683 185.553 L662.424 185.553 L662.424 180.159 Z" fill="#000000" fill-rule="nonzero" fill-opacity="1" /><path clip-path="url(#clip750)" d="M694.252 191.247 L694.252 195.229 Q692.447 194.233 690.618 193.747 Q688.812 193.238 686.961 193.238 Q682.817 193.238 680.525 195.877 Q678.234 198.492 678.234 203.238 Q678.234 207.983 680.525 210.622 Q682.817 213.238 686.961 213.238 Q688.812 213.238 690.618 212.752 Q692.447 212.242 694.252 211.247 L694.252 215.182 Q692.47 216.016 690.548 216.432 Q688.65 216.849 686.498 216.849 Q680.641 216.849 677.192 213.168 Q673.743 209.488 673.743 203.238 Q673.743 196.895 677.215 193.261 Q680.711 189.627 686.775 189.627 Q688.743 189.627 690.618 190.043 Q692.493 190.437 694.252 191.247 Z" fill="#000000" fill-rule="nonzero" fill-opacity="1" /><path clip-path="url(#clip750)" d="M723.835 202.15 L723.835 204.233 L704.252 204.233 Q704.53 208.631 706.891 210.946 Q709.275 213.238 713.511 213.238 Q715.965 213.238 718.257 212.636 Q720.571 212.034 722.84 210.83 L722.84 214.858 Q720.548 215.83 718.141 216.34 Q715.734 216.849 713.257 216.849 Q707.053 216.849 703.419 213.238 Q699.808 209.627 699.808 203.469 Q699.808 197.104 703.234 193.377 Q706.683 189.627 712.516 189.627 Q717.747 189.627 720.78 193.006 Q723.835 196.363 723.835 202.15 M719.576 200.9 Q719.53 197.405 717.609 195.321 Q715.71 193.238 712.562 193.238 Q708.997 193.238 706.845 195.252 Q704.715 197.266 704.391 200.923 L719.576 200.9 Z" fill="#000000" fill-rule="nonzero" fill-opacity="1" /><path clip-path="url(#clip750)" d="M752.377 200.529 L752.377 216.178 L748.118 216.178 L748.118 200.668 Q748.118 196.988 746.682 195.159 Q745.247 193.33 742.377 193.33 Q738.928 193.33 736.937 195.53 Q734.946 197.729 734.946 201.525 L734.946 216.178 L730.664 216.178 L730.664 190.252 L734.946 190.252 L734.946 194.28 Q736.474 191.942 738.534 190.784 Q740.618 189.627 743.326 189.627 Q747.794 189.627 750.085 192.405 Q752.377 195.159 752.377 200.529 Z" fill="#000000" fill-rule="nonzero" fill-opacity="1" /><path clip-path="url(#clip750)" d="M765.085 182.891 L765.085 190.252 L773.858 190.252 L773.858 193.562 L765.085 193.562 L765.085 207.636 Q765.085 210.807 765.942 211.71 Q766.821 212.613 769.483 212.613 L773.858 212.613 L773.858 216.178 L769.483 216.178 Q764.553 216.178 762.678 214.349 Q760.803 212.497 760.803 207.636 L760.803 193.562 L757.678 193.562 L757.678 190.252 L760.803 190.252 L760.803 182.891 L765.085 182.891 Z" fill="#000000" fill-rule="nonzero" fill-opacity="1" /><path clip-path="url(#clip750)" d="M794.483 194.233 Q793.766 193.817 792.909 193.631 Q792.076 193.423 791.057 193.423 Q787.446 193.423 785.502 195.784 Q783.58 198.122 783.58 202.52 L783.58 216.178 L779.298 216.178 L779.298 190.252 L783.58 190.252 L783.58 194.28 Q784.923 191.918 787.076 190.784 Q789.229 189.627 792.307 189.627 Q792.747 189.627 793.279 189.696 Q793.812 189.743 794.46 189.858 L794.483 194.233 Z" fill="#000000" fill-rule="nonzero" fill-opacity="1" /><path clip-path="url(#clip750)" d="M820.085 202.15 L820.085 204.233 L800.502 204.233 Q800.779 208.631 803.14 210.946 Q805.525 213.238 809.761 213.238 Q812.215 213.238 814.506 212.636 Q816.821 212.034 819.089 210.83 L819.089 214.858 Q816.798 215.83 814.39 216.34 Q811.983 216.849 809.506 216.849 Q803.303 216.849 799.668 213.238 Q796.057 209.627 796.057 203.469 Q796.057 197.104 799.483 193.377 Q802.932 189.627 808.765 189.627 Q813.997 189.627 817.029 193.006 Q820.085 196.363 820.085 202.15 M815.826 200.9 Q815.779 197.405 813.858 195.321 Q811.96 193.238 808.812 193.238 Q805.247 193.238 803.094 195.252 Q800.965 197.266 800.64 200.923 L815.826 200.9 Z" fill="#000000" fill-rule="nonzero" fill-opacity="1" /></svg>
