<?xml version="1.0" encoding="utf-8"?>
<svg xmlns="http://www.w3.org/2000/svg" xmlns:xlink="http://www.w3.org/1999/xlink" width="600" height="400" viewBox="0 0 2400 1600">
<defs>
  <clipPath id="clip110">
    <rect x="0" y="0" width="2400" height="1600"/>
  </clipPath>
</defs>
<path clip-path="url(#clip110)" d="M0 1600 L2400 1600 L2400 0 L0 0  Z" fill="#ffffff" fill-rule="evenodd" fill-opacity="1"/>
<defs>
  <clipPath id="clip111">
    <rect x="480" y="0" width="1681" height="1600"/>
  </clipPath>
</defs>
<path clip-path="url(#clip110)" d="M140.696 1423.18 L2352.76 1423.18 L2352.76 47.2441 L140.696 47.2441  Z" fill="#ffffff" fill-rule="evenodd" fill-opacity="1"/>
<defs>
  <clipPath id="clip112">
    <rect x="140" y="47" width="2213" height="1377"/>
  </clipPath>
</defs>
<polyline clip-path="url(#clip112)" style="stroke:#000000; stroke-linecap:round; stroke-linejoin:round; stroke-width:2; stroke-opacity:0.1; fill:none" points="550.772,1423.18 550.772,47.2441 "/>
<polyline clip-path="url(#clip112)" style="stroke:#000000; stroke-linecap:round; stroke-linejoin:round; stroke-width:2; stroke-opacity:0.1; fill:none" points="1001.67,1423.18 1001.67,47.2441 "/>
<polyline clip-path="url(#clip112)" style="stroke:#000000; stroke-linecap:round; stroke-linejoin:round; stroke-width:2; stroke-opacity:0.1; fill:none" points="1452.57,1423.18 1452.57,47.2441 "/>
<polyline clip-path="url(#clip112)" style="stroke:#000000; stroke-linecap:round; stroke-linejoin:round; stroke-width:2; stroke-opacity:0.1; fill:none" points="1903.47,1423.18 1903.47,47.2441 "/>
<polyline clip-path="url(#clip110)" style="stroke:#000000; stroke-linecap:round; stroke-linejoin:round; stroke-width:4; stroke-opacity:1; fill:none" points="140.696,1423.18 2352.76,1423.18 "/>
<polyline clip-path="url(#clip110)" style="stroke:#000000; stroke-linecap:round; stroke-linejoin:round; stroke-width:4; stroke-opacity:1; fill:none" points="550.772,1423.18 550.772,1404.28 "/>
<polyline clip-path="url(#clip110)" style="stroke:#000000; stroke-linecap:round; stroke-linejoin:round; stroke-width:4; stroke-opacity:1; fill:none" points="1001.67,1423.18 1001.67,1404.28 "/>
<polyline clip-path="url(#clip110)" style="stroke:#000000; stroke-linecap:round; stroke-linejoin:round; stroke-width:4; stroke-opacity:1; fill:none" points="1452.57,1423.18 1452.57,1404.28 "/>
<polyline clip-path="url(#clip110)" style="stroke:#000000; stroke-linecap:round; stroke-linejoin:round; stroke-width:4; stroke-opacity:1; fill:none" points="1903.47,1423.18 1903.47,1404.28 "/>
<path clip-path="url(#clip110)" d="M525.459 1481.64 L533.098 1481.64 L533.098 1455.28 L524.788 1456.95 L524.788 1452.69 L533.052 1451.02 L537.728 1451.02 L537.728 1481.64 L545.367 1481.64 L545.367 1485.58 L525.459 1485.58 L525.459 1481.64 Z" fill="#000000" fill-rule="nonzero" fill-opacity="1" /><path clip-path="url(#clip110)" d="M564.811 1454.1 Q561.2 1454.1 559.371 1457.66 Q557.566 1461.2 557.566 1468.33 Q557.566 1475.44 559.371 1479.01 Q561.2 1482.55 564.811 1482.55 Q568.445 1482.55 570.251 1479.01 Q572.079 1475.44 572.079 1468.33 Q572.079 1461.2 570.251 1457.66 Q568.445 1454.1 564.811 1454.1 M564.811 1450.39 Q570.621 1450.39 573.677 1455 Q576.755 1459.58 576.755 1468.33 Q576.755 1477.06 573.677 1481.67 Q570.621 1486.25 564.811 1486.25 Q559.001 1486.25 555.922 1481.67 Q552.867 1477.06 552.867 1468.33 Q552.867 1459.58 555.922 1455 Q559.001 1450.39 564.811 1450.39 Z" fill="#000000" fill-rule="nonzero" fill-opacity="1" /><path clip-path="url(#clip110)" d="M980.445 1481.64 L996.764 1481.64 L996.764 1485.58 L974.82 1485.58 L974.82 1481.64 Q977.482 1478.89 982.066 1474.26 Q986.672 1469.61 987.853 1468.27 Q990.098 1465.74 990.977 1464.01 Q991.88 1462.25 991.88 1460.56 Q991.88 1457.8 989.936 1456.07 Q988.015 1454.33 984.913 1454.33 Q982.714 1454.33 980.26 1455.09 Q977.829 1455.86 975.052 1457.41 L975.052 1452.69 Q977.876 1451.55 980.329 1450.97 Q982.783 1450.39 984.82 1450.39 Q990.19 1450.39 993.385 1453.08 Q996.579 1455.77 996.579 1460.26 Q996.579 1462.39 995.769 1464.31 Q994.982 1466.2 992.876 1468.8 Q992.297 1469.47 989.195 1472.69 Q986.093 1475.88 980.445 1481.64 Z" fill="#000000" fill-rule="nonzero" fill-opacity="1" /><path clip-path="url(#clip110)" d="M1016.58 1454.1 Q1012.97 1454.1 1011.14 1457.66 Q1009.33 1461.2 1009.33 1468.33 Q1009.33 1475.44 1011.14 1479.01 Q1012.97 1482.55 1016.58 1482.55 Q1020.21 1482.55 1022.02 1479.01 Q1023.85 1475.44 1023.85 1468.33 Q1023.85 1461.2 1022.02 1457.66 Q1020.21 1454.1 1016.58 1454.1 M1016.58 1450.39 Q1022.39 1450.39 1025.44 1455 Q1028.52 1459.58 1028.52 1468.33 Q1028.52 1477.06 1025.44 1481.67 Q1022.39 1486.25 1016.58 1486.25 Q1010.77 1486.25 1007.69 1481.67 Q1004.63 1477.06 1004.63 1468.33 Q1004.63 1459.58 1007.69 1455 Q1010.77 1450.39 1016.58 1450.39 Z" fill="#000000" fill-rule="nonzero" fill-opacity="1" /><path clip-path="url(#clip110)" d="M1441.41 1466.95 Q1444.77 1467.66 1446.65 1469.93 Q1448.54 1472.2 1448.54 1475.53 Q1448.54 1480.65 1445.03 1483.45 Q1441.51 1486.25 1435.03 1486.25 Q1432.85 1486.25 1430.54 1485.81 Q1428.24 1485.39 1425.79 1484.54 L1425.79 1480.02 Q1427.73 1481.16 1430.05 1481.74 Q1432.36 1482.32 1434.89 1482.32 Q1439.29 1482.32 1441.58 1480.58 Q1443.89 1478.84 1443.89 1475.53 Q1443.89 1472.48 1441.74 1470.77 Q1439.61 1469.03 1435.79 1469.03 L1431.76 1469.03 L1431.76 1465.19 L1435.97 1465.19 Q1439.42 1465.19 1441.25 1463.82 Q1443.08 1462.43 1443.08 1459.84 Q1443.08 1457.18 1441.18 1455.77 Q1439.31 1454.33 1435.79 1454.33 Q1433.87 1454.33 1431.67 1454.75 Q1429.47 1455.16 1426.83 1456.04 L1426.83 1451.88 Q1429.49 1451.14 1431.81 1450.77 Q1434.15 1450.39 1436.21 1450.39 Q1441.53 1450.39 1444.63 1452.83 Q1447.73 1455.23 1447.73 1459.35 Q1447.73 1462.22 1446.09 1464.21 Q1444.45 1466.18 1441.41 1466.95 Z" fill="#000000" fill-rule="nonzero" fill-opacity="1" /><path clip-path="url(#clip110)" d="M1467.41 1454.1 Q1463.8 1454.1 1461.97 1457.66 Q1460.16 1461.2 1460.16 1468.33 Q1460.16 1475.44 1461.97 1479.01 Q1463.8 1482.55 1467.41 1482.55 Q1471.04 1482.55 1472.85 1479.01 Q1474.68 1475.44 1474.68 1468.33 Q1474.68 1461.2 1472.85 1457.66 Q1471.04 1454.1 1467.41 1454.1 M1467.41 1450.39 Q1473.22 1450.39 1476.28 1455 Q1479.35 1459.58 1479.35 1468.33 Q1479.35 1477.06 1476.28 1481.67 Q1473.22 1486.25 1467.41 1486.25 Q1461.6 1486.25 1458.52 1481.67 Q1455.47 1477.06 1455.47 1468.33 Q1455.47 1459.58 1458.52 1455 Q1461.6 1450.39 1467.41 1450.39 Z" fill="#000000" fill-rule="nonzero" fill-opacity="1" /><path clip-path="url(#clip110)" d="M1891.64 1455.09 L1879.84 1473.54 L1891.64 1473.54 L1891.64 1455.09 M1890.42 1451.02 L1896.3 1451.02 L1896.3 1473.54 L1901.23 1473.54 L1901.23 1477.43 L1896.3 1477.43 L1896.3 1485.58 L1891.64 1485.58 L1891.64 1477.43 L1876.04 1477.43 L1876.04 1472.92 L1890.42 1451.02 Z" fill="#000000" fill-rule="nonzero" fill-opacity="1" /><path clip-path="url(#clip110)" d="M1918.96 1454.1 Q1915.35 1454.1 1913.52 1457.66 Q1911.71 1461.2 1911.71 1468.33 Q1911.71 1475.44 1913.52 1479.01 Q1915.35 1482.55 1918.96 1482.55 Q1922.59 1482.55 1924.4 1479.01 Q1926.23 1475.44 1926.23 1468.33 Q1926.23 1461.2 1924.4 1457.66 Q1922.59 1454.1 1918.96 1454.1 M1918.96 1450.39 Q1924.77 1450.39 1927.82 1455 Q1930.9 1459.58 1930.9 1468.33 Q1930.9 1477.06 1927.82 1481.67 Q1924.77 1486.25 1918.96 1486.25 Q1913.15 1486.25 1910.07 1481.67 Q1907.01 1477.06 1907.01 1468.33 Q1907.01 1459.58 1910.07 1455 Q1913.15 1450.39 1918.96 1450.39 Z" fill="#000000" fill-rule="nonzero" fill-opacity="1" /><path clip-path="url(#clip110)" d="M1245.79 1522.27 L1245.79 1532.4 L1257.85 1532.4 L1257.85 1536.95 L1245.79 1536.95 L1245.79 1556.3 Q1245.79 1560.66 1246.96 1561.9 Q1248.17 1563.14 1251.83 1563.14 L1257.85 1563.14 L1257.85 1568.04 L1251.83 1568.04 Q1245.05 1568.04 1242.48 1565.53 Q1239.9 1562.98 1239.9 1556.3 L1239.9 1536.95 L1235.6 1536.95 L1235.6 1532.4 L1239.9 1532.4 L1239.9 1522.27 L1245.79 1522.27 Z" fill="#000000" fill-rule="nonzero" fill-opacity="1" /><polyline clip-path="url(#clip112)" style="stroke:#000000; stroke-linecap:round; stroke-linejoin:round; stroke-width:2; stroke-opacity:0.1; fill:none" points="140.696,1403.74 2352.76,1403.74 "/>
<polyline clip-path="url(#clip112)" style="stroke:#000000; stroke-linecap:round; stroke-linejoin:round; stroke-width:2; stroke-opacity:0.1; fill:none" points="140.696,972.936 2352.76,972.936 "/>
<polyline clip-path="url(#clip112)" style="stroke:#000000; stroke-linecap:round; stroke-linejoin:round; stroke-width:2; stroke-opacity:0.1; fill:none" points="140.696,542.131 2352.76,542.131 "/>
<polyline clip-path="url(#clip112)" style="stroke:#000000; stroke-linecap:round; stroke-linejoin:round; stroke-width:2; stroke-opacity:0.1; fill:none" points="140.696,111.326 2352.76,111.326 "/>
<polyline clip-path="url(#clip110)" style="stroke:#000000; stroke-linecap:round; stroke-linejoin:round; stroke-width:4; stroke-opacity:1; fill:none" points="140.696,1423.18 140.696,47.2441 "/>
<polyline clip-path="url(#clip110)" style="stroke:#000000; stroke-linecap:round; stroke-linejoin:round; stroke-width:4; stroke-opacity:1; fill:none" points="140.696,1403.74 159.593,1403.74 "/>
<polyline clip-path="url(#clip110)" style="stroke:#000000; stroke-linecap:round; stroke-linejoin:round; stroke-width:4; stroke-opacity:1; fill:none" points="140.696,972.936 159.593,972.936 "/>
<polyline clip-path="url(#clip110)" style="stroke:#000000; stroke-linecap:round; stroke-linejoin:round; stroke-width:4; stroke-opacity:1; fill:none" points="140.696,542.131 159.593,542.131 "/>
<polyline clip-path="url(#clip110)" style="stroke:#000000; stroke-linecap:round; stroke-linejoin:round; stroke-width:4; stroke-opacity:1; fill:none" points="140.696,111.326 159.593,111.326 "/>
<path clip-path="url(#clip110)" d="M92.7512 1389.54 Q89.1401 1389.54 87.3114 1393.1 Q85.5058 1396.65 85.5058 1403.78 Q85.5058 1410.88 87.3114 1414.45 Q89.1401 1417.99 92.7512 1417.99 Q96.3854 1417.99 98.1909 1414.45 Q100.02 1410.88 100.02 1403.78 Q100.02 1396.65 98.1909 1393.1 Q96.3854 1389.54 92.7512 1389.54 M92.7512 1385.84 Q98.5613 1385.84 101.617 1390.44 Q104.696 1395.03 104.696 1403.78 Q104.696 1412.5 101.617 1417.11 Q98.5613 1421.69 92.7512 1421.69 Q86.941 1421.69 83.8623 1417.11 Q80.8068 1412.5 80.8068 1403.78 Q80.8068 1395.03 83.8623 1390.44 Q86.941 1385.84 92.7512 1385.84 Z" fill="#000000" fill-rule="nonzero" fill-opacity="1" /><path clip-path="url(#clip110)" d="M53.3995 986.281 L61.0384 986.281 L61.0384 959.915 L52.7282 961.582 L52.7282 957.322 L60.9921 955.656 L65.668 955.656 L65.668 986.281 L73.3068 986.281 L73.3068 990.216 L53.3995 990.216 L53.3995 986.281 Z" fill="#000000" fill-rule="nonzero" fill-opacity="1" /><path clip-path="url(#clip110)" d="M92.7512 958.734 Q89.1401 958.734 87.3114 962.299 Q85.5058 965.841 85.5058 972.971 Q85.5058 980.077 87.3114 983.642 Q89.1401 987.183 92.7512 987.183 Q96.3854 987.183 98.1909 983.642 Q100.02 980.077 100.02 972.971 Q100.02 965.841 98.1909 962.299 Q96.3854 958.734 92.7512 958.734 M92.7512 955.031 Q98.5613 955.031 101.617 959.637 Q104.696 964.221 104.696 972.971 Q104.696 981.697 101.617 986.304 Q98.5613 990.887 92.7512 990.887 Q86.941 990.887 83.8623 986.304 Q80.8068 981.697 80.8068 972.971 Q80.8068 964.221 83.8623 959.637 Q86.941 955.031 92.7512 955.031 Z" fill="#000000" fill-rule="nonzero" fill-opacity="1" /><path clip-path="url(#clip110)" d="M56.6171 555.476 L72.9365 555.476 L72.9365 559.411 L50.9921 559.411 L50.9921 555.476 Q53.6541 552.721 58.2375 548.092 Q62.8439 543.439 64.0245 542.096 Q66.2698 539.573 67.1494 537.837 Q68.0522 536.078 68.0522 534.388 Q68.0522 531.633 66.1078 529.897 Q64.1865 528.161 61.0847 528.161 Q58.8856 528.161 56.4319 528.925 Q54.0014 529.689 51.2236 531.24 L51.2236 526.518 Q54.0477 525.383 56.5014 524.805 Q58.955 524.226 60.9921 524.226 Q66.3624 524.226 69.5568 526.911 Q72.7513 529.596 72.7513 534.087 Q72.7513 536.217 71.9411 538.138 Q71.1541 540.036 69.0476 542.629 Q68.4689 543.3 65.367 546.518 Q62.2652 549.712 56.6171 555.476 Z" fill="#000000" fill-rule="nonzero" fill-opacity="1" /><path clip-path="url(#clip110)" d="M92.7512 527.93 Q89.1401 527.93 87.3114 531.494 Q85.5058 535.036 85.5058 542.166 Q85.5058 549.272 87.3114 552.837 Q89.1401 556.379 92.7512 556.379 Q96.3854 556.379 98.1909 552.837 Q100.02 549.272 100.02 542.166 Q100.02 535.036 98.1909 531.494 Q96.3854 527.93 92.7512 527.93 M92.7512 524.226 Q98.5613 524.226 101.617 528.832 Q104.696 533.416 104.696 542.166 Q104.696 550.893 101.617 555.499 Q98.5613 560.082 92.7512 560.082 Q86.941 560.082 83.8623 555.499 Q80.8068 550.893 80.8068 542.166 Q80.8068 533.416 83.8623 528.832 Q86.941 524.226 92.7512 524.226 Z" fill="#000000" fill-rule="nonzero" fill-opacity="1" /><path clip-path="url(#clip110)" d="M66.7559 109.972 Q70.1124 110.69 71.9874 112.958 Q73.8855 115.227 73.8855 118.56 Q73.8855 123.676 70.367 126.477 Q66.8485 129.277 60.3671 129.277 Q58.1912 129.277 55.8764 128.838 Q53.5847 128.421 51.131 127.564 L51.131 123.051 Q53.0754 124.185 55.3903 124.764 Q57.7051 125.342 60.2282 125.342 Q64.6263 125.342 66.918 123.606 Q69.2328 121.87 69.2328 118.56 Q69.2328 115.504 67.08 113.791 Q64.9504 112.055 61.131 112.055 L57.1032 112.055 L57.1032 108.213 L61.3161 108.213 Q64.7652 108.213 66.5939 106.847 Q68.4226 105.458 68.4226 102.866 Q68.4226 100.204 66.5245 98.7915 Q64.6495 97.3563 61.131 97.3563 Q59.2097 97.3563 57.0106 97.773 Q54.8115 98.1896 52.1727 99.0693 L52.1727 94.9026 Q54.8347 94.1619 57.1495 93.7915 Q59.4875 93.4212 61.5476 93.4212 Q66.8717 93.4212 69.9735 95.8517 Q73.0753 98.2591 73.0753 102.379 Q73.0753 105.25 71.4318 107.241 Q69.7883 109.208 66.7559 109.972 Z" fill="#000000" fill-rule="nonzero" fill-opacity="1" /><path clip-path="url(#clip110)" d="M92.7512 97.1248 Q89.1401 97.1248 87.3114 100.69 Q85.5058 104.231 85.5058 111.361 Q85.5058 118.467 87.3114 122.032 Q89.1401 125.574 92.7512 125.574 Q96.3854 125.574 98.1909 122.032 Q100.02 118.467 100.02 111.361 Q100.02 104.231 98.1909 100.69 Q96.3854 97.1248 92.7512 97.1248 M92.7512 93.4212 Q98.5613 93.4212 101.617 98.0276 Q104.696 102.611 104.696 111.361 Q104.696 120.088 101.617 124.694 Q98.5613 129.277 92.7512 129.277 Q86.941 129.277 83.8623 124.694 Q80.8068 120.088 80.8068 111.361 Q80.8068 102.611 83.8623 98.0276 Q86.941 93.4212 92.7512 93.4212 Z" fill="#000000" fill-rule="nonzero" fill-opacity="1" /><polyline clip-path="url(#clip112)" style="stroke:#009af9; stroke-linecap:round; stroke-linejoin:round; stroke-width:4; stroke-opacity:1; fill:none" points="140.696,1384.24 140.696,1384.24 166.315,1370.54 169.95,1368.7 172.372,1367.26 176.808,1364.7 179.139,1363.39 196.843,1353.94 203.484,1350 209.054,1346.39 222.679,1337.35 243.005,1325.83 243.627,1325.44 252.855,1319.2 253.219,1318.97 262.095,1313.57 291.064,1297.99 293.848,1296.58 306.775,1290.15 314.75,1286.24 318.07,1284.63 324.705,1281.4 328.016,1279.8 328.299,1279.67 331.392,1277.9 335.998,1275.33 342.076,1271.53 354.271,1264.5 359.845,1261 360.372,1260.68 363.471,1258.82 374.651,1251.64 376.413,1250.59 386.599,1243.97 432.275,1219.5 441.35,1214.32 442.835,1213.5 444.405,1212.5 463.561,1200.11 463.745,1199.98 478.542,1190.73 484.591,1187.29 486.575,1186.01 513.8,1170.46 516.693,1168.95 516.72,1168.94 523.166,1165.62 529.438,1162.45 537.087,1158.64 538.849,1157.77 541.963,1156.24 546.184,1153.8 555.071,1148.19 556.509,1147.33 558.548,1146.12 567.05,1140.62 575.194,1135.78 587.909,1128.76 597.464,1123.77 601.842,1121.53 610.243,1117.31 625.109,1108.94 625.838,1108.55 629.899,1106.4 633.251,1104.64 634.972,1103.59 647.001,1095.77 649.649,1093.94 662.151,1086.04 663.494,1085.25 675.369,1078.57 679.026,1076.28 681.314,1074.89 682.209,1074.36 693.762,1067.77 699.149,1064.86 701.444,1063.64 705.925,1061.3 713.207,1056.97 716.027,1055.36 731.83,1046.82 735.955,1044.32 740.328,1041.77 748.732,1037.09 760.741,1030.74 763.795,1028.9 771.891,1023.59 803.334,1004.43 818.258,996.638 829.253,991.114 835.69,987.396 838.109,985.824 844.149,982.073 851.939,977.529 858.619,973.827 860.942,972.361 861.452,971.996 877.267,960.677 881.373,957.74 885.259,955.111 897.863,946.407 915.944,934.607 930.201,925.581 952.284,913.464 991.756,893.828 993.588,892.772 1000.18,889.082 1003.41,887.327 1005.01,886.468 1008.28,884.729 1018.97,878.39 1021.88,876.755 1029.42,872.641 1035.83,869.266 1037.32,868.49 1037.9,868.192 1064.64,854.809 1064.76,854.75 1069.54,852.415 1073.78,849.98 1075.77,848.682 1076.95,847.817 1077.8,847.204 1086.06,840.936 1086.96,840.216 1097.97,832.211 1102.3,829.376 1103.74,828.47 1105.01,827.556 1105.55,827.123 1113.69,821.055 1114.65,820.384 1139.03,804.135 1140.67,803.184 1149.23,798.402 1164,790.623 1172.7,786.217 1177.33,783.502 1179.62,782.2 1186.2,778.559 1195.65,773.535 1204.04,769.23 1204.72,768.882 1211.48,765.486 1219.14,761.069 1225.59,757.52 1230.55,754.872 1249.35,745.251 1270.94,734.633 1277.39,730.969 1281.35,728.45 1294.19,719.953 1300.6,715.596 1302.23,714.543 1306.44,711.908 1338.19,694.448 1366.76,678.718 1385.61,669.247 1387.64,668.062 1394.59,663.564 1405,657.382 1407.88,655.762 1420,649.218 1427.31,645.43 1438.51,639.78 1450.39,633.915 1460.2,628.374 1463.37,626.65 1474.7,620.7 1499.59,608.255 1513.84,601.321 1534.14,591.537 1537.15,590.092 1553.24,582.379 1563.29,576.794 1570.39,573.026 1581.82,566.302 1590.55,561.517 1592,560.746 1594.68,559.33 1595.95,558.546 1600.15,555.656 1600.91,555.149 1604.42,552.865 1606.19,551.754 1614.6,546.704 1626.37,540.153 1647.42,529.278 1709.45,499.149 1717.33,495.374 1746.69,481.331 1757.02,476.391 1766.63,471.8 1767.72,471.28 1772.45,469.02 1776.62,467.029 1784.54,463.241 1785.18,462.88 1821.47,443.864 1827.44,440.916 1835.79,436.829 1841.19,434.197 1901.44,405.256 1901.63,405.147 1906.59,402.351 1907.5,401.847 1909.54,400.734 1918.44,395.282 1923.8,392.202 1925.2,391.413 1928.25,389.723 1934.68,385.724 1938.19,383.642 1942.37,380.869 1945.39,378.683 1946.42,377.859 1947.36,377.12 1953.93,371.738 1960.97,366.588 1961.47,366.195 1961.76,365.943 2014.45,330.785 2035.93,319.867 2037.24,319.216 2038.79,318.31 2042.75,316.036 2054.51,308.73 2058.2,306.596 2070.8,298.76 2071.15,298.525 2085.54,288.507 2097.85,281.141 2113.47,272.664 2121.03,268.143 2121.82,267.688 2138.68,257.349 2158.37,246.745 2166.45,242.626 2186.52,232.685 2190.31,230.836 2194.3,228.544 2199.45,225.24 2206.05,220.705 2209.7,218.355 2211.87,217.002 2213.59,215.952 2214.89,215.168 2223.91,209.95 2226.14,208.715 2229.46,206.897 2238.04,202.347 2257.14,192.658 2258.79,191.84 2265.71,187.86 2266.1,187.645 2278.43,180.98 2281.99,179.122 2286.42,176.846 2295.08,172.467 2300.36,169.838 2323.94,158.312 2343.25,149.006 2343.64,148.821 2344.62,148.349 2352.76,144.446 "/>
<polyline clip-path="url(#clip112)" style="stroke:#e26f46; stroke-linecap:round; stroke-linejoin:round; stroke-width:4; stroke-opacity:1; fill:none" points="140.696,1384.24 140.696,1384.24 166.315,1372 169.95,1370.26 172.372,1369.11 176.808,1366.6 179.139,1365.1 196.843,1354.72 203.484,1351.14 209.054,1348.21 222.679,1341.28 243.005,1331.26 243.627,1330.96 252.855,1326.48 253.219,1326.31 262.095,1322.02 291.064,1306.56 293.848,1304.91 306.775,1297.67 314.75,1293.44 318.07,1291.73 324.705,1288.34 328.016,1286.67 328.299,1286.51 331.392,1284.69 335.998,1282.06 342.076,1278.71 354.271,1271.38 359.845,1268.26 360.372,1267.92 363.471,1265.69 374.651,1258.35 376.413,1257.27 386.599,1251.36 432.275,1226.09 441.35,1221.58 442.835,1220.84 444.405,1220.07 463.561,1210.75 463.745,1210.66 478.542,1203.52 484.591,1200.62 486.575,1199.67 513.8,1186.63 516.693,1185.24 516.72,1185.23 523.166,1182.15 529.438,1179.15 537.087,1174.87 538.849,1173.75 541.963,1171.55 546.184,1168.7 555.071,1163.15 556.509,1162.29 558.548,1160.91 567.05,1155.5 575.194,1150.72 587.909,1143.76 597.464,1138.79 601.842,1136.57 610.243,1131.69 625.109,1123.66 625.838,1123.28 629.899,1120.83 633.251,1118.87 634.972,1117.88 647.001,1111.28 649.649,1109.88 662.151,1103.44 663.494,1102.64 675.369,1095.01 679.026,1092.85 681.314,1091.52 682.209,1091.01 693.762,1083.79 699.149,1080.68 701.444,1079.18 705.925,1075.98 713.207,1071.16 716.027,1069.15 731.83,1058 735.955,1055.44 740.328,1052.83 748.732,1048.06 760.741,1041.63 763.795,1040.04 771.891,1035.92 803.334,1020.45 818.258,1012.2 829.253,1005.66 835.69,1002.07 838.109,1000.76 844.149,997.55 851.939,992.89 858.619,988.563 860.942,987.131 861.452,986.821 877.267,977.802 881.373,975.6 885.259,973.212 897.863,965.982 915.944,956.455 930.201,949.304 952.284,938.515 991.756,917.758 993.588,916.852 1000.18,913.611 1003.41,911.744 1005.01,910.836 1008.28,908.714 1018.97,902.266 1021.88,900.609 1029.42,895.837 1035.83,891.52 1037.32,890.56 1037.9,890.195 1064.64,874.995 1064.76,874.932 1069.54,872.445 1073.78,870.269 1075.77,869.259 1076.95,868.663 1077.8,868.234 1086.06,864.105 1086.96,863.659 1097.97,858.248 1102.3,856.133 1103.74,855.436 1105.01,854.817 1105.55,854.555 1113.69,850.616 1114.65,850.06 1139.03,836.975 1140.67,836.139 1149.23,831.154 1164,823.163 1172.7,818.683 1177.33,816.341 1179.62,815.195 1186.2,811.381 1195.65,806.182 1204.04,801.104 1204.72,800.64 1211.48,796.272 1219.14,791.673 1225.59,788.013 1230.55,784.873 1249.35,774.122 1270.94,761.642 1277.39,758.225 1281.35,756.173 1294.19,749.668 1300.6,746.487 1302.23,745.683 1306.44,743.248 1338.19,724.894 1366.76,710.504 1385.61,701.33 1387.64,700.35 1394.59,697.001 1405,691.199 1407.88,689.398 1420,682.304 1427.31,677.704 1438.51,670.382 1450.39,662.571 1460.2,656.799 1463.37,654.737 1474.7,647.052 1499.59,632.831 1513.84,625.485 1534.14,615.422 1537.15,613.954 1553.24,605.057 1563.29,599.837 1570.39,595.664 1581.82,589.361 1590.55,584.78 1592,583.902 1594.68,582.064 1595.95,581.214 1600.15,578.498 1600.91,578.02 1604.42,575.854 1606.19,574.796 1614.6,569.95 1626.37,562.705 1647.42,549.909 1709.45,518.615 1717.33,514.181 1746.69,498.991 1757.02,493.894 1766.63,488.462 1767.72,487.867 1772.45,485.322 1776.62,483.124 1784.54,479.035 1785.18,478.713 1821.47,460.817 1827.44,457.433 1835.79,452.9 1841.19,449.598 1901.44,418.351 1901.63,418.259 1906.59,415.426 1907.5,414.916 1909.54,413.79 1918.44,408.998 1923.8,405.751 1925.2,404.794 1928.25,402.774 1934.68,398.744 1938.19,396.647 1942.37,394.225 1945.39,392.525 1946.42,391.949 1947.36,391.428 1953.93,387.873 1960.97,383.595 1961.47,383.302 1961.76,383.134 2014.45,355.797 2035.93,344.069 2037.24,343.39 2038.79,342.595 2042.75,340.226 2054.51,333.594 2058.2,331.283 2070.8,323.945 2071.15,323.752 2085.54,316.06 2097.85,309.789 2113.47,300.99 2121.03,296.991 2121.82,296.506 2138.68,286.872 2158.37,276.637 2166.45,271.949 2186.52,259.959 2190.31,257.557 2194.3,255.123 2199.45,252.109 2206.05,248.409 2209.7,246.104 2211.87,244.774 2213.59,243.583 2214.89,242.578 2223.91,236.135 2226.14,234.464 2229.46,232.068 2238.04,226.369 2257.14,215.262 2258.79,214.369 2265.71,210.697 2266.1,210.46 2278.43,202.35 2281.99,199.888 2286.42,196.598 2295.08,190.727 2300.36,186.985 2323.94,171.322 2343.25,160.727 2343.64,160.526 2344.62,160.014 2352.76,155.84 "/>
<polyline clip-path="url(#clip112)" style="stroke:#3da44d; stroke-linecap:round; stroke-linejoin:round; stroke-width:4; stroke-opacity:1; fill:none" points="140.696,1384.24 140.696,1384.24 166.315,1370.54 169.95,1368.7 172.372,1367.26 176.808,1364.7 179.139,1363.39 196.843,1353.94 203.484,1350 209.054,1346.39 222.679,1337.35 243.005,1325.83 243.627,1325.44 252.855,1319.2 253.219,1318.97 262.095,1313.57 291.064,1296.43 293.848,1294.96 306.775,1288.29 314.75,1284.3 318.07,1282.65 324.705,1279.38 328.016,1277.76 328.299,1277.63 331.392,1275.84 335.998,1273.26 342.076,1269.95 354.271,1263.58 359.845,1260.75 360.372,1260.49 363.471,1258.65 374.651,1252.38 376.413,1251.43 386.599,1245.3 432.275,1221.54 441.35,1216.4 442.835,1215.58 444.405,1214.73 463.561,1203.53 463.745,1203.41 478.542,1194.58 484.591,1191.25 486.575,1190.18 513.8,1176.24 516.693,1174.81 516.72,1174.8 523.166,1171.63 529.438,1168.57 537.087,1164.24 538.849,1163.27 541.963,1161.31 546.184,1158.37 555.071,1151.97 556.509,1151.01 558.548,1149.49 567.05,1142.93 575.194,1137.39 587.909,1129.68 597.464,1124.37 601.842,1122.02 610.243,1116.98 625.109,1107.73 625.838,1107.31 629.899,1104.65 633.251,1102.54 634.972,1101.33 647.001,1093.55 649.649,1091.97 662.151,1084.91 663.494,1084.05 675.369,1076.1 679.026,1073.86 681.314,1072.5 682.209,1071.97 693.762,1064.62 699.149,1061.46 701.444,1060.15 705.925,1057.66 713.207,1053.74 716.027,1052.26 731.83,1044.19 735.955,1041.78 740.328,1039.3 748.732,1034.71 760.741,1028.46 763.795,1026.63 771.891,1022 803.334,1005.65 818.258,998.314 829.253,992.143 835.69,988.705 838.109,987.218 844.149,983.646 851.939,979.272 858.619,975.675 860.942,974.24 861.452,973.881 877.267,962.697 881.373,959.783 885.259,956.83 897.863,947.39 915.944,935.048 930.201,925.816 952.284,913.552 991.756,892.063 993.588,891.145 1000.18,887.867 1003.41,885.987 1005.01,885.073 1008.28,882.939 1018.97,876.463 1021.88,874.8 1029.42,870.017 1035.83,866.226 1037.32,865.368 1037.9,865.041 1064.64,850.854 1064.76,850.793 1069.54,848.391 1073.78,846.277 1075.77,845.292 1076.95,844.6 1077.8,844.105 1086.06,838.788 1086.96,838.152 1097.97,830.944 1102.3,828.331 1103.74,827.489 1105.01,826.629 1105.55,826.269 1113.69,821.112 1114.65,820.438 1139.03,805.576 1140.67,804.675 1149.23,800.103 1164,792.541 1172.7,788.211 1177.33,785.927 1179.62,784.806 1186.2,781.05 1195.65,775.91 1204.04,771.537 1204.72,771.12 1211.48,767.144 1219.14,762.249 1225.59,758.407 1230.55,755.583 1249.35,745.561 1270.94,733.424 1277.39,729.525 1281.35,726.892 1294.19,718.136 1300.6,713.695 1302.23,712.625 1306.44,709.583 1338.19,688.998 1366.76,672.541 1385.61,662.908 1387.64,661.712 1394.59,657.185 1405,650.972 1407.88,649.087 1420,641.736 1427.31,637.037 1438.51,630.456 1450.39,623.117 1460.2,616.826 1463.37,614.921 1474.7,607.648 1499.59,593.848 1513.84,586.6 1534.14,576.603 1537.15,575.141 1553.24,566.264 1563.29,560.277 1570.39,555.734 1581.82,548.177 1590.55,542.987 1592,542.163 1594.68,540.657 1595.95,539.834 1600.15,537.195 1600.91,536.729 1604.42,534.616 1606.19,533.581 1614.6,528.824 1626.37,521.66 1647.42,510.243 1709.45,479.784 1717.33,475.368 1746.69,460.207 1757.02,455.113 1766.63,450.432 1767.72,449.903 1772.45,447.612 1776.62,445.599 1784.54,441.778 1785.18,441.414 1821.47,422.338 1827.44,418.885 1835.79,414.283 1841.19,410.947 1901.44,379.586 1901.63,379.476 1906.59,376.22 1907.5,375.641 1909.54,374.373 1918.44,369.088 1923.8,365.626 1925.2,364.621 1928.25,362.505 1934.68,357.777 1938.19,355.376 1942.37,352.648 1945.39,350.489 1946.42,349.673 1947.36,348.942 1953.93,343.605 1960.97,337.911 1961.47,337.486 1961.76,337.243 2014.45,302.714 2035.93,290.514 2037.24,289.818 2038.79,289.005 2042.75,286.593 2054.51,278.997 2058.2,276.473 2070.8,267.701 2071.15,267.446 2085.54,257.862 2097.85,250.701 2113.47,241.289 2121.03,236.501 2121.82,235.948 2138.68,224.174 2158.37,212.819 2166.45,207.889 2186.52,196.838 2190.31,194.87 2194.3,192.471 2199.45,189.495 2206.05,185.285 2209.7,182.756 2211.87,181.309 2213.59,180.033 2214.89,178.968 2223.91,172.191 2226.14,170.456 2229.46,167.976 2238.04,162.11 2257.14,150.796 2258.79,149.892 2265.71,146.181 2266.1,145.943 2278.43,137.789 2281.99,135.317 2286.42,132.018 2295.08,126.134 2300.36,122.835 2323.94,108.264 2343.25,98.0085 2343.64,97.8118 2344.62,97.31 2352.76,93.2075 "/>
<polyline clip-path="url(#clip112)" style="stroke:#c271d2; stroke-linecap:round; stroke-linejoin:round; stroke-width:4; stroke-opacity:1; fill:none" points="140.696,1384.24 140.696,1384.24 166.315,1372 169.95,1370.26 172.372,1369.11 176.808,1366.99 179.139,1365.87 196.843,1357.42 203.484,1354.24 209.054,1351.58 222.679,1345.07 243.005,1334.08 243.627,1333.76 252.855,1329.07 253.219,1328.89 262.095,1323.76 291.064,1308.6 293.848,1307.21 306.775,1299.9 314.75,1295.02 318.07,1293.08 324.705,1289.35 328.016,1287.25 328.299,1287.08 331.392,1285.19 335.998,1282.07 342.076,1278.21 354.271,1271.09 359.845,1268.03 360.372,1267.75 363.471,1265.81 374.651,1259.27 376.413,1258.29 386.599,1252.79 432.275,1230.01 441.35,1225.63 442.835,1224.91 444.405,1224.16 463.561,1214.96 463.745,1214.87 478.542,1206.75 484.591,1203.08 486.575,1201.92 513.8,1185.79 516.693,1184.25 516.72,1184.24 523.166,1180.87 529.438,1177.13 537.087,1172.2 538.849,1171.12 541.963,1169.25 546.184,1166.8 555.071,1161.86 556.509,1160.96 558.548,1159.5 567.05,1153.86 575.194,1148.27 587.909,1139.58 597.464,1133.08 601.842,1129.96 610.243,1123.79 625.109,1114.37 625.838,1113.95 629.899,1111.26 633.251,1108.83 634.972,1107.63 647.001,1099.92 649.649,1098.35 662.151,1091.32 663.494,1090.6 675.369,1083.49 679.026,1081.44 681.314,1079.97 682.209,1079.4 693.762,1072.52 699.149,1069.06 701.444,1067.64 705.925,1064.96 713.207,1060.81 716.027,1059.26 731.83,1050.92 735.955,1048.82 740.328,1046.62 748.732,1041.77 760.741,1034.38 763.795,1032.62 771.891,1028.13 803.334,1012.04 818.258,1004.73 829.253,999.411 835.69,996.308 838.109,995.144 844.149,992.24 851.939,988.502 858.619,985.3 860.942,984.188 861.452,983.944 877.267,976.375 881.373,974.411 885.259,972.211 897.863,965.41 915.944,956.198 930.201,949.168 952.284,937.118 991.756,917.516 993.588,916.629 1000.18,913.444 1003.41,911.6 1005.01,910.702 1008.28,908.598 1018.97,902.193 1021.88,900.545 1029.42,896.405 1035.83,893.012 1037.32,892.095 1037.9,891.745 1064.64,875.468 1064.76,875.403 1069.54,872.414 1073.78,869.874 1075.77,868.715 1076.95,868.037 1077.8,867.473 1086.06,862.256 1086.96,861.713 1097.97,855.389 1102.3,852.644 1103.74,851.632 1105.01,850.748 1105.55,850.378 1113.69,844.443 1114.65,843.785 1139.03,829.153 1140.67,828.261 1149.23,823.723 1164,815.162 1172.7,809.796 1177.33,807.103 1179.62,805.602 1186.2,800.945 1195.65,794.155 1204.04,788.799 1204.72,788.381 1211.48,783.84 1219.14,779.1 1225.59,774.817 1230.55,771.73 1249.35,759.885 1270.94,746.886 1277.39,743.389 1281.35,741.298 1294.19,734.705 1300.6,731.495 1302.23,730.535 1306.44,728.112 1338.19,711.429 1366.76,697.428 1385.61,688.34 1387.64,687.366 1394.59,684.033 1405,679.044 1407.88,677.667 1420,670.972 1427.31,666.528 1438.51,660.208 1450.39,653.035 1460.2,647.588 1463.37,645.887 1474.7,639.996 1499.59,626.172 1513.84,618.918 1534.14,607.639 1537.15,606.067 1553.24,596.798 1563.29,591.45 1570.39,587.215 1581.82,580.845 1590.55,576.232 1592,575.484 1594.68,574.106 1595.95,573.457 1600.15,571.327 1600.91,570.872 1604.42,568.805 1606.19,567.792 1614.6,563.114 1626.37,556.897 1647.42,546.319 1709.45,516.369 1717.33,511.963 1746.69,495.252 1757.02,489.153 1766.63,483.872 1767.72,483.189 1772.45,479.898 1776.62,476.798 1784.54,471.392 1785.18,470.983 1821.47,448.931 1827.44,445.305 1835.79,440.527 1841.19,437.566 1901.44,407.494 1901.63,407.403 1906.59,404.587 1907.5,403.994 1909.54,402.696 1918.44,397.306 1923.8,394.254 1925.2,393.472 1928.25,391.521 1934.68,387.611 1938.19,385.256 1942.37,382.575 1945.39,380.714 1946.42,380.089 1947.36,379.436 1953.93,375.101 1960.97,370.782 1961.47,370.487 1961.76,370.317 2014.45,342.883 2035.93,332.473 2037.24,331.841 2038.79,331.097 2042.75,329.192 2054.51,323.544 2058.2,321.775 2070.8,315.741 2071.15,315.575 2085.54,308.692 2097.85,301.896 2113.47,293.812 2121.03,290.018 2121.82,289.625 2138.68,281.345 2158.37,270.566 2166.45,265.761 2186.52,254.88 2190.31,252.93 2194.3,250.898 2199.45,248.307 2206.05,245.025 2209.7,242.904 2211.87,241.472 2213.59,240.207 2214.89,239.271 2223.91,233.208 2226.14,231.61 2229.46,229.015 2238.04,222.919 2257.14,211.322 2258.79,210.403 2265.71,206.641 2266.1,206.4 2278.43,198.186 2281.99,196.017 2286.42,193.033 2295.08,187.613 2300.36,184.521 2323.94,170.457 2343.25,160.36 2343.64,160.166 2344.62,159.669 2352.76,154.947 "/>
<polyline clip-path="url(#clip112)" style="stroke:#ac8d18; stroke-linecap:round; stroke-linejoin:round; stroke-width:4; stroke-opacity:1; fill:none" points="140.696,1384.24 140.696,1384.24 166.315,1372 169.95,1370.26 172.372,1369.11 176.808,1366.99 179.139,1365.87 196.843,1357.42 203.484,1354.24 209.054,1351.58 222.679,1345.07 243.005,1334.08 243.627,1333.76 252.855,1329.07 253.219,1328.85 262.095,1323.04 291.064,1305.29 293.848,1303.78 306.775,1296.09 314.75,1291.05 318.07,1288.78 324.705,1284.5 328.016,1282.18 328.299,1281.99 331.392,1279.92 335.998,1276.58 342.076,1272.49 354.271,1265.06 359.845,1261.91 360.372,1261.61 363.471,1259.91 374.651,1253.99 376.413,1253.08 386.599,1247.91 432.275,1225.63 441.35,1221.27 442.835,1220.42 444.405,1219.53 463.561,1209.28 463.745,1209.19 478.542,1200.69 484.591,1196.93 486.575,1195.74 513.8,1179.41 516.693,1177.6 516.72,1177.58 523.166,1173.19 529.438,1168.7 537.087,1163.72 538.849,1162.63 541.963,1160.47 546.184,1157.67 555.071,1152.2 556.509,1151.23 558.548,1149.87 567.05,1144.55 575.194,1139.17 587.909,1130.69 597.464,1124.28 601.842,1121.2 610.243,1115.74 625.109,1107.09 625.838,1106.62 629.899,1104.07 633.251,1101.75 634.972,1100.6 647.001,1093.12 649.649,1091.59 662.151,1084.69 663.494,1083.85 675.369,1076.86 679.026,1074.83 681.314,1073.37 682.209,1072.73 693.762,1064.21 699.149,1060.22 701.444,1058.62 705.925,1055.63 713.207,1051.08 716.027,1049.4 731.83,1040.6 735.955,1038.43 740.328,1036.16 748.732,1031.21 760.741,1023.73 763.795,1021.96 771.891,1017.44 803.334,1001.28 818.258,993.974 829.253,987.816 835.69,984.382 838.109,983.117 844.149,980.002 851.939,976.064 858.619,972.737 860.942,971.589 861.452,971.338 877.267,963.609 881.373,961.618 885.259,959.739 897.863,953.667 915.944,944.991 930.201,938.166 952.284,926.261 991.756,904.951 993.588,904.035 1000.18,900.767 1003.41,899.177 1005.01,898.244 1008.28,896.369 1018.97,890.515 1021.88,888.716 1029.42,883.651 1035.83,879.684 1037.32,878.655 1037.9,878.263 1064.64,860.877 1064.76,860.798 1069.54,857.307 1073.78,854.402 1075.77,853.095 1076.95,852.334 1077.8,851.714 1086.06,846.045 1086.96,845.462 1097.97,838.759 1102.3,835.909 1103.74,834.866 1105.01,833.956 1105.55,833.576 1113.69,827.51 1114.65,826.749 1139.03,810.564 1140.67,809.616 1149.23,804.844 1164,796.039 1172.7,790.589 1177.33,787.863 1179.62,786.347 1186.2,782.202 1195.65,775.93 1204.04,770.882 1204.72,770.42 1211.48,765.51 1219.14,760.465 1225.59,755.995 1230.55,752.797 1249.35,740.696 1270.94,728.903 1277.39,725.593 1281.35,723.592 1294.19,717.205 1300.6,714.061 1302.23,713.116 1306.44,710.357 1338.19,690.815 1366.76,676.148 1385.61,665.692 1387.64,664.627 1394.59,661.041 1405,655.792 1407.88,654.104 1420,646.459 1427.31,642.242 1438.51,636.153 1450.39,630.01 1460.2,625.086 1463.37,623.512 1474.7,617.1 1499.59,602.742 1513.84,595.364 1534.14,584.001 1537.15,582.422 1553.24,574.227 1563.29,569.25 1570.39,565.774 1581.82,560.222 1590.55,555.314 1592,554.527 1594.68,553.084 1595.95,552.406 1600.15,550.193 1600.91,549.725 1604.42,547.601 1606.19,546.4 1614.6,541.006 1626.37,533.267 1647.42,521.343 1709.45,488.56 1717.33,484.731 1746.69,469.027 1757.02,463.066 1766.63,457.868 1767.72,457.192 1772.45,453.929 1776.62,450.849 1784.54,445.473 1785.18,445.066 1821.47,423.069 1827.44,419.947 1835.79,415.683 1841.19,412.508 1901.44,379.694 1901.63,379.601 1906.59,377.171 1907.5,376.641 1909.54,375.286 1918.44,369.703 1923.8,366.111 1925.2,365.077 1928.25,362.63 1934.68,357.872 1938.19,355.147 1942.37,352.092 1945.39,350.003 1946.42,349.306 1947.36,348.59 1953.93,343.885 1960.97,338.694 1961.47,338.347 1961.76,338.148 2014.45,308.64 2035.93,296.769 2037.24,295.964 2038.79,295.028 2042.75,292.34 2054.51,285.035 2058.2,282.575 2070.8,274.879 2071.15,274.679 2085.54,266.765 2097.85,259.483 2113.47,249.988 2121.03,245.791 2121.82,245.289 2138.68,235.402 2158.37,223.78 2166.45,219.442 2186.52,209.199 2190.31,207.319 2194.3,205.347 2199.45,202.821 2206.05,199.602 2209.7,197.831 2211.87,196.582 2213.59,195.608 2214.89,194.756 2223.91,188.456 2226.14,187.014 2229.46,184.627 2238.04,178.263 2257.14,165.104 2258.79,163.95 2265.71,159.371 2266.1,159.128 2278.43,151.771 2281.99,149.46 2286.42,146.712 2295.08,140.951 2300.36,137.706 2323.94,124.667 2343.25,113.65 2343.64,113.443 2344.62,112.826 2352.76,107.286 "/>
<polyline clip-path="url(#clip112)" style="stroke:#00a9ad; stroke-linecap:round; stroke-linejoin:round; stroke-width:4; stroke-opacity:1; fill:none" points="140.696,1384.24 140.696,1384.24 166.315,1372 169.95,1370.26 172.372,1369.11 176.808,1366.99 179.139,1365.87 196.843,1357.42 203.484,1354.24 209.054,1351.58 222.679,1345.07 243.005,1334.08 243.627,1333.76 252.855,1329.07 253.219,1328.85 262.095,1323.04 291.064,1306.84 293.848,1305.41 306.775,1298.89 314.75,1294.94 318.07,1293.02 324.705,1289.31 328.016,1287.21 328.299,1287.04 331.392,1285.15 335.998,1282.44 342.076,1279 354.271,1272.45 359.845,1269.56 360.372,1269.29 363.471,1267.71 374.651,1262.11 376.413,1261.24 386.599,1256.24 432.275,1234.21 441.35,1229.86 442.835,1229.01 444.405,1228.13 463.561,1217.89 463.745,1217.79 478.542,1210.34 484.591,1207.35 486.575,1206.37 513.8,1191.65 516.693,1189.92 516.72,1189.91 523.166,1185.66 529.438,1181.29 537.087,1176.4 538.849,1175.32 541.963,1173.47 546.184,1171.03 555.071,1166.12 556.509,1165.35 558.548,1164.26 567.05,1159.83 575.194,1155.04 587.909,1147.15 597.464,1141.01 601.842,1138.39 610.243,1133.62 625.109,1125.7 625.838,1125.25 629.899,1122.83 633.251,1120.59 634.972,1119.48 647.001,1112.21 649.649,1110.71 662.151,1103.92 663.494,1103.22 675.369,1097.12 679.026,1095.28 681.314,1093.93 682.209,1093.32 693.762,1086.04 699.149,1082.91 701.444,1081.61 705.925,1079.13 713.207,1075.23 716.027,1073.75 731.83,1065.71 735.955,1063.66 740.328,1061.5 748.732,1056.71 760.741,1050.27 763.795,1048.68 771.891,1044.55 803.334,1029.06 818.258,1021.86 829.253,1016.58 835.69,1013.49 838.109,1012.33 844.149,1009.44 851.939,1005.71 858.619,1002.52 860.942,1001.4 861.452,1001.16 877.267,993.599 881.373,991.637 885.259,989.779 897.863,983.757 915.944,975.118 930.201,968.307 952.284,957.757 991.756,938.9 993.588,938.025 1000.18,934.877 1003.41,933.334 1005.01,932.423 1008.28,930.586 1018.97,924.826 1021.88,923.045 1029.42,918.632 1035.83,915.07 1037.32,914.257 1037.9,913.946 1064.64,898.707 1064.76,898.632 1069.54,895.733 1073.78,893.257 1075.77,892.124 1076.95,891.461 1077.8,890.906 1086.06,885.769 1086.96,885.234 1097.97,878.977 1102.3,876.628 1103.74,875.863 1105.01,875.186 1105.55,874.9 1113.69,870.019 1114.65,869.463 1139.03,856.367 1140.67,855.53 1149.23,851.224 1164,843.94 1172.7,839.705 1177.33,837.459 1179.62,836.353 1186.2,833.181 1195.65,828.631 1204.04,824.608 1204.72,824.28 1211.48,821.041 1219.14,817.374 1225.59,813.751 1230.55,811.058 1249.35,800.117 1270.94,788.874 1277.39,785.649 1281.35,783.69 1294.19,777.396 1300.6,774.283 1302.23,773.343 1306.44,770.966 1338.19,754.455 1366.76,740.493 1385.61,730.194 1387.64,729.139 1394.59,725.582 1405,720.363 1407.88,718.939 1420,712.996 1427.31,709.442 1438.51,704.031 1450.39,698.318 1460.2,693.614 1463.37,692.092 1474.7,686.668 1499.59,673.323 1513.84,666.181 1534.14,656.255 1537.15,654.799 1553.24,647.043 1563.29,642.217 1570.39,638.815 1581.82,633.341 1590.55,628.471 1592,627.689 1594.68,626.255 1595.95,625.58 1600.15,623.378 1600.91,622.912 1604.42,620.795 1606.19,619.597 1614.6,614.216 1626.37,607.365 1647.42,596.225 1709.45,563.919 1717.33,560.1 1746.69,545.981 1757.02,540.238 1766.63,535.169 1767.72,534.606 1772.45,531.776 1776.62,529.373 1784.54,524.983 1785.18,524.642 1821.47,506.191 1827.44,503.275 1835.79,499.221 1841.19,496.606 1901.44,465.714 1901.63,465.622 1906.59,463.22 1907.5,462.694 1909.54,461.349 1918.44,455.798 1923.8,452.676 1925.2,451.877 1928.25,449.895 1934.68,445.932 1938.19,443.554 1942.37,440.849 1945.39,438.974 1946.42,438.344 1947.36,437.775 1953.93,433.939 1960.97,430.016 1961.47,429.745 1961.76,429.588 2014.45,403.096 2035.93,392.747 2037.24,391.995 2038.79,391.12 2042.75,388.914 2054.51,382.631 2058.2,380.721 2070.8,374.35 2071.15,374.177 2085.54,367.085 2097.85,360.191 2113.47,352.039 2121.03,348.225 2121.82,347.83 2138.68,339.527 2158.37,329.989 2166.45,326.1 2186.52,316.473 2190.31,314.659 2194.3,312.746 2199.45,310.282 2206.05,307.125 2209.7,305.38 2211.87,304.146 2213.59,303.182 2214.89,302.458 2223.91,296.869 2226.14,295.563 2229.46,293.65 2238.04,288.232 2257.14,276.24 2258.79,275.148 2265.71,270.783 2266.1,270.55 2278.43,263.442 2281.99,261.495 2286.42,259.126 2295.08,253.924 2300.36,250.929 2323.94,238.5 2343.25,227.674 2343.64,227.47 2344.62,226.859 2352.76,222.011 "/>
<polyline clip-path="url(#clip112)" style="stroke:#ed5d92; stroke-linecap:round; stroke-linejoin:round; stroke-width:4; stroke-opacity:1; fill:none" points="140.696,1384.24 140.696,1384.24 166.315,1370.54 169.95,1368.7 172.372,1367.48 176.808,1364.88 179.139,1363.34 196.843,1352.74 203.484,1348.57 209.054,1344.79 222.679,1336.48 243.005,1325.47 243.627,1325.15 252.855,1320.46 253.219,1320.27 262.095,1315.85 291.064,1301.74 293.848,1300.15 306.775,1292.16 314.75,1287.01 318.07,1284.99 324.705,1281.13 328.016,1279.27 328.299,1279.09 331.392,1277.12 335.998,1273.9 342.076,1269.93 354.271,1261.77 359.845,1258.39 360.372,1258.03 363.471,1255.69 374.651,1248.05 376.413,1246.94 386.599,1240.87 432.275,1215.35 441.35,1210.83 442.835,1210.1 444.405,1209.32 463.561,1198.75 463.745,1198.64 478.542,1189 484.591,1184.95 486.575,1183.68 513.8,1168.26 516.693,1166.75 516.72,1166.74 523.166,1163.43 529.438,1160.27 537.087,1155.85 538.849,1154.7 541.963,1152.73 546.184,1150.16 555.071,1144.33 556.509,1143.31 558.548,1141.7 567.05,1134.88 575.194,1129.17 587.909,1121.29 597.464,1115.9 601.842,1113.15 610.243,1107.51 625.109,1097.64 625.838,1097.2 629.899,1094.43 633.251,1092.24 634.972,1091 647.001,1083.04 649.649,1081.43 662.151,1074.27 663.494,1073.53 675.369,1066.36 679.026,1064.29 681.314,1063.02 682.209,1062.52 693.762,1056.36 699.149,1053.13 701.444,1051.59 705.925,1048.31 713.207,1043.4 716.027,1041.36 731.83,1030.1 735.955,1027.16 740.328,1024.22 748.732,1018.97 760.741,1011.21 763.795,1009.38 771.891,1004.76 803.334,988.42 818.258,980.037 829.253,974.269 835.69,970.99 838.109,969.772 844.149,966.757 851.939,962.282 858.619,958.071 860.942,956.672 861.452,956.32 877.267,945.302 881.373,942.415 885.259,939.483 897.863,930.093 915.944,917.787 930.201,909.577 952.284,896.693 991.756,876.676 993.588,875.782 1000.18,872.576 1003.41,870.725 1005.01,869.823 1008.28,867.713 1018.97,861.292 1021.88,859.641 1029.42,855.494 1035.83,851.565 1037.32,850.543 1037.9,850.154 1064.64,834.338 1064.76,834.274 1069.54,831.324 1073.78,828.811 1075.77,827.664 1076.95,826.992 1077.8,826.512 1086.06,821.966 1086.96,821.398 1097.97,814.838 1102.3,812.027 1103.74,810.996 1105.01,809.977 1105.55,809.552 1113.69,803.586 1114.65,802.925 1139.03,788.249 1140.67,787.355 1149.23,782.13 1164,772.854 1172.7,767.24 1177.33,764.45 1179.62,762.907 1186.2,758.152 1195.65,751.264 1204.04,745.179 1204.72,744.713 1211.48,739.767 1219.14,734.071 1225.59,729.737 1230.55,726.194 1249.35,714.519 1270.94,701.601 1277.39,698.116 1281.35,696.031 1294.19,688.517 1300.6,685.009 1302.23,684.137 1306.44,681.911 1338.19,665.958 1366.76,650.579 1385.61,641.185 1387.64,640.19 1394.59,636.229 1405,629.8 1407.88,628.129 1420,620.536 1427.31,615.743 1438.51,608.222 1450.39,600.285 1460.2,593.69 1463.37,591.429 1474.7,584.076 1499.59,570.194 1513.84,562.927 1534.14,551.639 1537.15,550.066 1553.24,540.795 1563.29,535.446 1570.39,531.21 1581.82,524.84 1590.55,520.227 1592,519.345 1594.68,517.499 1595.95,516.647 1600.15,513.922 1600.91,513.442 1604.42,511.27 1606.19,510.209 1614.6,505.352 1626.37,498.973 1647.42,486.945 1709.45,456.115 1717.33,451.691 1746.69,434.949 1757.02,429.638 1766.63,424.08 1767.72,423.372 1772.45,420.395 1776.62,417.522 1784.54,412.446 1785.18,412.06 1821.47,390.619 1827.44,387.028 1835.79,382.286 1841.19,379.343 1901.44,349.329 1901.63,349.238 1906.59,346.424 1907.5,345.916 1909.54,344.797 1918.44,340.025 1923.8,337.243 1925.2,336.521 1928.25,334.963 1934.68,331.723 1938.19,329.973 1942.37,327.898 1945.39,326.141 1946.42,325.452 1947.36,324.742 1953.93,319.532 1960.97,314.518 1961.47,314.134 1961.76,313.914 2014.45,281.001 2035.93,270.231 2037.24,269.586 2038.79,268.828 2042.75,266.891 2054.51,261.175 2058.2,259.391 2070.8,253.321 2071.15,253.154 2085.54,246.248 2097.85,240.349 2113.47,232.881 2121.03,229.262 2121.82,228.885 2138.68,220.83 2158.37,210.168 2166.45,205.388 2186.52,193.272 2190.31,190.856 2194.3,188.06 2199.45,184.665 2206.05,180.041 2209.7,177.33 2211.87,175.788 2213.59,174.443 2214.89,173.45 2223.91,167.072 2226.14,165.414 2229.46,162.739 2238.04,156.485 2257.14,144.692 2258.79,143.763 2265.71,139.965 2266.1,139.722 2278.43,131.467 2281.99,129.289 2286.42,126.297 2295.08,120.864 2300.36,117.316 2323.94,102.133 2343.25,91.6875 2343.64,91.4883 2344.62,90.9806 2352.76,86.1857 "/>
<polyline clip-path="url(#clip112)" style="stroke:#c68125; stroke-linecap:round; stroke-linejoin:round; stroke-width:4; stroke-opacity:1; fill:none" points="140.696,1384.24 140.696,1384.24 166.315,1370.54 169.95,1368.7 172.372,1367.48 176.808,1364.88 179.139,1363.34 196.843,1352.74 203.484,1348.57 209.054,1344.79 222.679,1336.48 243.005,1324.2 243.627,1323.85 252.855,1318.87 253.219,1318.68 262.095,1313.37 291.064,1296.38 293.848,1294.66 306.775,1287.19 314.75,1282.88 318.07,1281.13 324.705,1277.7 328.016,1275.72 328.299,1275.53 331.392,1273.46 335.998,1270.52 342.076,1266.84 354.271,1259.07 359.845,1255.81 360.372,1255.46 363.471,1253.45 374.651,1246.69 376.413,1245.68 386.599,1240.07 432.275,1215.24 441.35,1210.76 442.835,1210.03 444.405,1209.26 463.561,1198.72 463.745,1198.61 478.542,1190.02 484.591,1186.74 486.575,1185.69 513.8,1170.37 516.693,1168.87 516.72,1168.85 523.166,1165.56 529.438,1161.88 537.087,1157.62 538.849,1156.5 541.963,1154.29 546.184,1151.45 555.071,1145.2 556.509,1144.26 558.548,1142.95 567.05,1137.09 575.194,1131.36 587.909,1122.53 597.464,1115.97 601.842,1113.21 610.243,1108.23 625.109,1099.05 625.838,1098.63 629.899,1096.33 633.251,1094.18 634.972,1092.95 647.001,1085.08 649.649,1083.48 662.151,1076.36 663.494,1075.5 675.369,1068.41 679.026,1066.35 681.314,1064.88 682.209,1064.32 693.762,1056.57 699.149,1053.29 701.444,1051.74 705.925,1048.43 713.207,1043.49 716.027,1041.44 731.83,1030.14 735.955,1027.19 740.328,1024.25 748.732,1018.31 760.741,1010.82 763.795,1009.05 771.891,1004.53 803.334,988.362 818.258,980.007 829.253,973.42 835.69,969.817 838.109,968.499 844.149,965.276 851.939,960.605 858.619,956.271 860.942,954.838 861.452,954.479 877.267,943.303 881.373,940.39 885.259,937.779 897.863,929.119 915.944,917.35 930.201,909.345 952.284,897.951 991.756,876.894 993.588,875.983 1000.18,872.727 1003.41,871.142 1005.01,870.359 1008.28,868.759 1018.97,863.57 1021.88,862.164 1029.42,857.912 1035.83,853.918 1037.32,853.021 1037.9,852.679 1064.64,836.605 1064.76,836.54 1069.54,833.981 1073.78,831.752 1075.77,830.72 1076.95,830.112 1077.8,829.596 1086.06,824.764 1086.96,824.171 1097.97,817.372 1102.3,814.872 1103.74,814.063 1105.01,813.231 1105.55,812.882 1113.69,807.213 1114.65,806.49 1139.03,790.881 1140.67,789.954 1149.23,784.588 1164,776.201 1172.7,771.585 1177.33,769.188 1179.62,768.019 1186.2,764.696 1195.65,759.994 1204.04,755.211 1204.72,754.767 1211.48,750.564 1219.14,745.481 1225.59,740.987 1230.55,737.35 1249.35,724.238 1270.94,711.967 1277.39,708.583 1281.35,706.547 1294.19,699.143 1300.6,695.671 1302.23,694.656 1306.44,691.74 1338.19,671.616 1366.76,655.267 1385.61,645.657 1387.64,644.649 1394.59,640.648 1405,634.178 1407.88,632.241 1420,624.729 1427.31,620.564 1438.51,613.686 1450.39,607.04 1460.2,601.101 1463.37,598.998 1474.7,591.208 1499.59,575.438 1513.84,567.733 1534.14,557.428 1537.15,555.939 1553.24,548.067 1563.29,543.202 1570.39,539.78 1581.82,534.285 1590.55,530.097 1592,529.271 1594.68,527.52 1595.95,526.709 1600.15,524.104 1600.91,523.572 1604.42,521.181 1606.19,520.023 1614.6,514.793 1626.37,507.203 1647.42,494.101 1709.45,462.622 1717.33,458.82 1746.69,444.729 1757.02,438.99 1766.63,433.177 1767.72,432.548 1772.45,429.464 1776.62,426.878 1784.54,422.222 1785.18,421.863 1821.47,402.919 1827.44,399.975 1835.79,395.892 1841.19,392.803 1901.44,362.291 1901.63,362.199 1906.59,359.803 1907.5,359.278 1909.54,358.12 1918.44,353.218 1923.8,349.924 1925.2,348.956 1928.25,346.642 1934.68,342.109 1938.19,339.483 1942.37,336.527 1945.39,334.229 1946.42,333.37 1947.36,332.601 1953.93,327.038 1960.97,321.166 1961.47,320.73 1961.76,320.481 2014.45,285.528 2035.93,273.299 2037.24,272.603 2038.79,271.788 2042.75,269.374 2054.51,262.648 2058.2,260.316 2070.8,252.928 2071.15,252.734 2085.54,245.01 2097.85,237.819 2113.47,228.386 2121.03,224.206 2121.82,223.706 2138.68,213.841 2158.37,203.486 2166.45,199.42 2186.52,188.282 2190.31,185.972 2194.3,183.269 2199.45,179.973 2206.05,175.446 2209.7,173.1 2211.87,171.551 2213.59,170.359 2214.89,169.353 2223.91,162.905 2226.14,161.436 2229.46,159.307 2238.04,154.138 2257.14,143.687 2258.79,142.828 2265.71,139.277 2266.1,139.083 2278.43,132.911 2281.99,130.838 2286.42,128.337 2295.08,123.628 2300.36,120.403 2323.94,107.409 2343.25,97.6458 2343.64,97.4551 2344.62,96.9685 2352.76,92.9696 "/>
<polyline clip-path="url(#clip112)" style="stroke:#00a98d; stroke-linecap:round; stroke-linejoin:round; stroke-width:4; stroke-opacity:1; fill:none" points="140.696,1384.24 140.696,1384.24 166.315,1372 169.95,1370.26 172.372,1368.89 176.808,1366.42 179.139,1365.15 196.843,1355.92 203.484,1352.58 209.054,1349.81 222.679,1342.15 243.005,1331.62 243.627,1331.25 252.855,1325.23 253.219,1325 262.095,1319.74 291.064,1304.37 293.848,1302.98 306.775,1296.57 314.75,1292.68 318.07,1291.06 324.705,1287.85 328.016,1286.25 328.299,1286.11 331.392,1284.35 335.998,1281.78 342.076,1277.99 354.271,1270.96 359.845,1267.46 360.372,1267.14 363.471,1265.28 374.651,1258.1 376.413,1257.05 386.599,1250.44 432.275,1225.96 441.35,1220.78 442.835,1219.96 444.405,1218.96 463.561,1207.8 463.745,1207.7 478.542,1199.92 484.591,1196.85 486.575,1195.67 513.8,1180.9 516.693,1179.43 516.72,1179.42 523.166,1176.17 529.438,1173.06 537.087,1169.29 538.849,1168.43 541.963,1166.91 546.184,1164.49 555.071,1159.61 556.509,1158.84 558.548,1157.76 567.05,1153.34 575.194,1149.21 587.909,1142.9 597.464,1138.23 601.842,1136.1 610.243,1132.04 625.109,1124.88 625.838,1124.53 629.899,1122.58 633.251,1120.98 634.972,1120.15 647.001,1113.5 649.649,1111.85 662.151,1104.58 663.494,1103.83 675.369,1097.48 679.026,1095.27 681.314,1093.92 682.209,1093.4 693.762,1086.95 699.149,1084.08 701.444,1082.88 705.925,1080.56 713.207,1076.27 716.027,1074.67 731.83,1066.16 735.955,1064.04 740.328,1061.81 748.732,1057.59 760.741,1051.67 763.795,1049.91 771.891,1044.76 803.334,1025.88 818.258,1018.13 829.253,1012.63 835.69,1008.91 838.109,1007.35 844.149,1003.6 851.939,999.059 858.619,995.36 860.942,993.895 861.452,993.578 877.267,984.41 881.373,982.184 885.259,980.118 897.863,973.62 915.944,964.632 930.201,956.678 952.284,945.319 991.756,926.06 993.588,925.01 1000.18,921.339 1003.41,919.591 1005.01,918.736 1008.28,917.002 1018.97,910.677 1021.88,909.045 1029.42,904.938 1035.83,901.566 1037.32,900.791 1037.9,900.493 1064.64,887.117 1064.76,887.058 1069.54,884.724 1073.78,882.289 1075.77,880.991 1076.95,880.127 1077.8,879.514 1086.06,873.246 1086.96,872.61 1097.97,865.406 1102.3,862.792 1103.74,861.951 1105.01,861.21 1105.55,860.847 1113.69,855.656 1114.65,855.069 1139.03,840.098 1140.67,839.193 1149.23,834.604 1164,827.025 1172.7,822.689 1177.33,820.002 1179.62,818.711 1186.2,815.097 1195.65,810.101 1204.04,805.812 1204.72,805.466 1211.48,802.079 1219.14,798.289 1225.59,795.127 1230.55,792.709 1249.35,783.618 1270.94,773.25 1277.39,769.625 1281.35,767.125 1294.19,759.606 1300.6,755.564 1302.23,754.578 1306.44,752.096 1338.19,735.194 1366.76,721.142 1385.61,712.044 1387.64,710.883 1394.59,707.026 1405,701.5 1407.88,700.013 1420,693.879 1427.31,690.25 1438.51,684.763 1450.39,679.002 1460.2,674.273 1463.37,672.745 1474.7,667.306 1499.59,655.385 1513.84,648.573 1534.14,638.87 1537.15,637.433 1553.24,629.745 1563.29,624.168 1570.39,620.405 1581.82,613.685 1590.55,608.902 1592,608.132 1594.68,606.716 1595.95,605.932 1600.15,603.042 1600.91,602.536 1604.42,600.252 1606.19,599.141 1614.6,594.092 1626.37,587.541 1647.42,576.667 1709.45,546.538 1717.33,542.764 1746.69,528.72 1757.02,523.78 1766.63,519.19 1767.72,518.67 1772.45,516.409 1776.62,514.418 1784.54,510.631 1785.18,510.269 1821.47,491.254 1827.44,488.305 1835.79,484.218 1841.19,481.587 1901.44,452.645 1901.63,452.537 1906.59,449.741 1907.5,449.237 1909.54,448.124 1918.44,442.671 1923.8,439.592 1925.2,438.803 1928.25,437.113 1934.68,433.114 1938.19,431.032 1942.37,428.258 1945.39,426.342 1946.42,425.699 1947.36,425.119 1953.93,421.215 1960.97,417.239 1961.47,416.964 1961.76,416.778 2014.45,388.237 2035.93,377.754 2037.24,377.119 2038.79,376.23 2042.75,373.994 2054.51,366.771 2058.2,364.654 2070.8,356.862 2071.15,356.627 2085.54,346.636 2097.85,339.283 2113.47,330.815 2121.03,326.297 2121.82,325.841 2138.68,315.506 2158.37,304.904 2166.45,300.786 2186.52,290.844 2190.31,288.996 2194.3,287.053 2199.45,284.118 2206.05,280.494 2209.7,278.544 2211.87,277.4 2213.59,276.502 2214.89,275.825 2223.91,271.205 2226.14,270.084 2229.46,268.417 2238.04,264.166 2257.14,254.848 2258.79,254.05 2265.71,250.138 2266.1,249.927 2278.43,243.34 2281.99,241.498 2286.42,239.238 2295.08,234.883 2300.36,232.266 2323.94,220.766 2343.25,211.468 2343.64,211.283 2344.62,210.811 2352.76,206.91 "/>
<polyline clip-path="url(#clip112)" style="stroke:#8e971d; stroke-linecap:round; stroke-linejoin:round; stroke-width:4; stroke-opacity:1; fill:none" points="140.696,1384.24 140.696,1384.24 166.315,1372 169.95,1369.94 172.372,1368.6 176.808,1366.19 179.139,1364.94 196.843,1354.65 203.484,1351.08 209.054,1348.17 222.679,1341.25 243.005,1331.25 243.627,1330.95 252.855,1326.48 253.219,1326.3 262.095,1322.02 291.064,1308.12 293.848,1306.79 306.775,1300.6 314.75,1296.79 318.07,1295.2 324.705,1291.48 328.016,1289.68 328.299,1289.53 331.392,1287.87 335.998,1285.45 342.076,1282.32 354.271,1276.18 359.845,1273.42 360.372,1273.16 363.471,1271.64 374.651,1266.19 376.413,1265.17 386.599,1259.52 432.275,1236.51 441.35,1232.12 442.835,1231.4 444.405,1230.64 463.561,1221.43 463.745,1221.34 478.542,1214.25 484.591,1211.36 486.575,1210.41 513.8,1197.39 516.693,1196.01 516.72,1195.99 523.166,1192.38 529.438,1188.99 537.087,1184.98 538.849,1184.07 541.963,1182.48 546.184,1180.34 555.071,1175.91 556.509,1175.2 558.548,1174.19 567.05,1170.02 575.194,1166.06 587.909,1159.92 597.464,1155.32 601.842,1153.22 610.243,1149.19 625.109,1142.07 625.838,1141.72 629.899,1139.78 633.251,1138.18 634.972,1137.36 647.001,1131.6 649.649,1130.34 662.151,1123.45 663.494,1122.73 675.369,1116.58 679.026,1114.73 681.314,1113.58 682.209,1113.13 693.762,1107.41 699.149,1104.77 701.444,1103.65 705.925,1101.47 713.207,1097.94 716.027,1096.58 731.83,1088.98 735.955,1087 740.328,1084.52 748.732,1079.94 760.741,1073.69 763.795,1072.14 771.891,1068.07 803.334,1052.72 818.258,1045.53 829.253,1040.26 835.69,1037.18 838.109,1036.02 844.149,1032.62 851.939,1028.41 858.619,1024.92 860.942,1023.72 861.452,1023.46 877.267,1015.52 881.373,1013.49 885.259,1011.58 897.863,1005.45 915.944,996.726 930.201,989.883 952.284,979.311 991.756,960.443 993.588,959.567 1000.18,955.872 1003.41,954.116 1005.01,953.256 1008.28,951.515 1018.97,945.985 1021.88,944.512 1029.42,940.732 1035.83,937.564 1037.32,936.829 1037.9,936.492 1064.64,922.05 1064.76,921.989 1069.54,919.565 1073.78,917.435 1075.77,916.444 1076.95,915.858 1077.8,915.437 1086.06,911.365 1086.96,910.924 1097.97,904.729 1102.3,902.396 1103.74,901.636 1105.01,900.963 1105.55,900.679 1113.69,896.472 1114.65,895.98 1139.03,883.866 1140.67,882.913 1149.23,878.122 1164,870.333 1172.7,865.924 1177.33,863.609 1179.62,862.474 1186.2,859.233 1195.65,854.613 1204.04,850.549 1204.72,850.217 1211.48,846.956 1219.14,843.269 1225.59,840.171 1230.55,837.79 1249.35,828.786 1270.94,818.46 1277.39,815.377 1281.35,813.486 1294.19,807.349 1300.6,804.286 1302.23,803.508 1306.44,801.496 1338.19,786.33 1366.76,772.681 1385.61,763.672 1387.64,762.703 1394.59,759.384 1405,754.41 1407.88,753.036 1420,747.246 1427.31,743.751 1438.51,738.401 1450.39,732.727 1460.2,728.042 1463.37,726.525 1474.7,721.114 1499.59,709.222 1513.84,701.408 1534.14,691.029 1537.15,689.265 1553.24,680.409 1563.29,675.204 1570.39,671.619 1581.82,665.949 1590.55,661.675 1592,660.972 1594.68,659.669 1595.95,659.053 1600.15,657.019 1600.91,656.651 1604.42,654.64 1606.19,653.651 1614.6,648.397 1626.37,641.661 1647.42,630.624 1709.45,600.396 1717.33,596.619 1746.69,582.573 1757.02,577.632 1766.63,573.042 1767.72,572.521 1772.45,570.261 1776.62,568.27 1784.54,563.844 1785.18,563.5 1821.47,544.981 1827.44,542.061 1835.79,537.337 1841.19,534.402 1901.44,504.419 1901.63,504.328 1906.59,501.94 1907.5,501.501 1909.54,500.524 1918.44,496.248 1923.8,493.682 1925.2,493.009 1928.25,491.547 1934.68,488.471 1938.19,486.793 1942.37,484.791 1945.39,483.348 1946.42,482.853 1947.36,482.402 1953.93,479.264 1960.97,475.895 1961.47,475.656 1961.76,475.519 2014.45,450.344 2035.93,440.082 2037.24,439.455 2038.79,438.717 2042.75,436.825 2054.51,431.205 2058.2,429.442 2070.8,423.423 2071.15,423.257 2085.54,416.384 2097.85,410.499 2113.47,403.041 2121.03,399.426 2121.82,399.048 2138.68,390.997 2158.37,381.592 2166.45,377.731 2186.52,368.143 2190.31,366.333 2194.3,364.424 2199.45,361.964 2206.05,358.811 2209.7,357.068 2211.87,356.032 2213.59,355.212 2214.89,354.59 2223.91,350.279 2226.14,349.217 2229.46,347.627 2238.04,343.531 2257.14,334.405 2258.79,333.616 2265.71,330.309 2266.1,330.126 2278.43,324.236 2281.99,322.534 2286.42,320.42 2295.08,316.279 2300.36,313.757 2323.94,302.492 2343.25,293.268 2343.64,293.047 2344.62,292.487 2352.76,287.987 "/>
<path clip-path="url(#clip110)" d="M214.431 663.349 L554.896 663.349 L554.896 93.1086 L214.431 93.1086  Z" fill="#ffffff" fill-rule="evenodd" fill-opacity="1"/>
<polyline clip-path="url(#clip110)" style="stroke:#000000; stroke-linecap:round; stroke-linejoin:round; stroke-width:4; stroke-opacity:1; fill:none" points="214.431,663.349 554.896,663.349 554.896,93.1086 214.431,93.1086 214.431,663.349 "/>
<polyline clip-path="url(#clip110)" style="stroke:#009af9; stroke-linecap:round; stroke-linejoin:round; stroke-width:4; stroke-opacity:1; fill:none" points="239.009,144.949 386.48,144.949 "/>
<path clip-path="url(#clip110)" d="M411.058 151.997 L411.058 136.303 L415.318 136.303 L415.318 151.835 Q415.318 155.516 416.753 157.368 Q418.188 159.196 421.058 159.196 Q424.507 159.196 426.498 156.997 Q428.512 154.798 428.512 151.002 L428.512 136.303 L432.771 136.303 L432.771 162.229 L428.512 162.229 L428.512 158.247 Q426.961 160.608 424.901 161.766 Q422.864 162.9 420.156 162.9 Q415.688 162.9 413.373 160.122 Q411.058 157.344 411.058 151.997 M421.776 135.678 L421.776 135.678 Z" fill="#000000" fill-rule="nonzero" fill-opacity="1" /><path clip-path="url(#clip110)" d="M441.151 126.21 L450.966 126.21 L450.966 129.52 L445.41 129.52 L445.41 165.168 L450.966 165.168 L450.966 168.479 L441.151 168.479 L441.151 126.21 Z" fill="#000000" fill-rule="nonzero" fill-opacity="1" /><path clip-path="url(#clip110)" d="M461.452 158.293 L469.091 158.293 L469.091 131.928 L460.78 133.595 L460.78 129.335 L469.044 127.669 L473.72 127.669 L473.72 158.293 L481.359 158.293 L481.359 162.229 L461.452 162.229 L461.452 158.293 Z" fill="#000000" fill-rule="nonzero" fill-opacity="1" /><path clip-path="url(#clip110)" d="M500.155 126.21 L500.155 168.479 L490.34 168.479 L490.34 165.168 L495.873 165.168 L495.873 129.52 L490.34 129.52 L490.34 126.21 L500.155 126.21 Z" fill="#000000" fill-rule="nonzero" fill-opacity="1" /><polyline clip-path="url(#clip110)" style="stroke:#e26f46; stroke-linecap:round; stroke-linejoin:round; stroke-width:4; stroke-opacity:1; fill:none" points="239.009,196.789 386.48,196.789 "/>
<path clip-path="url(#clip110)" d="M411.058 203.837 L411.058 188.143 L415.318 188.143 L415.318 203.675 Q415.318 207.356 416.753 209.208 Q418.188 211.036 421.058 211.036 Q424.507 211.036 426.498 208.837 Q428.512 206.638 428.512 202.842 L428.512 188.143 L432.771 188.143 L432.771 214.069 L428.512 214.069 L428.512 210.087 Q426.961 212.448 424.901 213.606 Q422.864 214.74 420.156 214.74 Q415.688 214.74 413.373 211.962 Q411.058 209.184 411.058 203.837 M421.776 187.518 L421.776 187.518 Z" fill="#000000" fill-rule="nonzero" fill-opacity="1" /><path clip-path="url(#clip110)" d="M441.151 178.05 L450.966 178.05 L450.966 181.36 L445.41 181.36 L445.41 217.008 L450.966 217.008 L450.966 220.319 L441.151 220.319 L441.151 178.05 Z" fill="#000000" fill-rule="nonzero" fill-opacity="1" /><path clip-path="url(#clip110)" d="M464.669 210.133 L480.989 210.133 L480.989 214.069 L459.044 214.069 L459.044 210.133 Q461.706 207.379 466.29 202.749 Q470.896 198.096 472.077 196.754 Q474.322 194.231 475.202 192.495 Q476.104 190.735 476.104 189.046 Q476.104 186.291 474.16 184.555 Q472.239 182.819 469.137 182.819 Q466.938 182.819 464.484 183.583 Q462.054 184.347 459.276 185.897 L459.276 181.175 Q462.1 180.041 464.554 179.462 Q467.007 178.884 469.044 178.884 Q474.415 178.884 477.609 181.569 Q480.803 184.254 480.803 188.745 Q480.803 190.874 479.993 192.796 Q479.206 194.694 477.1 197.286 Q476.521 197.958 473.419 201.175 Q470.317 204.37 464.669 210.133 Z" fill="#000000" fill-rule="nonzero" fill-opacity="1" /><path clip-path="url(#clip110)" d="M500.155 178.05 L500.155 220.319 L490.34 220.319 L490.34 217.008 L495.873 217.008 L495.873 181.36 L490.34 181.36 L490.34 178.05 L500.155 178.05 Z" fill="#000000" fill-rule="nonzero" fill-opacity="1" /><polyline clip-path="url(#clip110)" style="stroke:#3da44d; stroke-linecap:round; stroke-linejoin:round; stroke-width:4; stroke-opacity:1; fill:none" points="239.009,248.629 386.48,248.629 "/>
<path clip-path="url(#clip110)" d="M411.058 255.677 L411.058 239.983 L415.318 239.983 L415.318 255.515 Q415.318 259.196 416.753 261.048 Q418.188 262.876 421.058 262.876 Q424.507 262.876 426.498 260.677 Q428.512 258.478 428.512 254.682 L428.512 239.983 L432.771 239.983 L432.771 265.909 L428.512 265.909 L428.512 261.927 Q426.961 264.288 424.901 265.446 Q422.864 266.58 420.156 266.58 Q415.688 266.58 413.373 263.802 Q411.058 261.024 411.058 255.677 M421.776 239.358 L421.776 239.358 Z" fill="#000000" fill-rule="nonzero" fill-opacity="1" /><path clip-path="url(#clip110)" d="M441.151 229.89 L450.966 229.89 L450.966 233.2 L445.41 233.2 L445.41 268.848 L450.966 268.848 L450.966 272.159 L441.151 272.159 L441.151 229.89 Z" fill="#000000" fill-rule="nonzero" fill-opacity="1" /><path clip-path="url(#clip110)" d="M474.808 247.274 Q478.165 247.992 480.04 250.261 Q481.938 252.529 481.938 255.862 Q481.938 260.978 478.419 263.779 Q474.901 266.58 468.419 266.58 Q466.243 266.58 463.929 266.14 Q461.637 265.723 459.183 264.867 L459.183 260.353 Q461.128 261.487 463.442 262.066 Q465.757 262.645 468.28 262.645 Q472.679 262.645 474.97 260.909 Q477.285 259.173 477.285 255.862 Q477.285 252.807 475.132 251.094 Q473.003 249.358 469.183 249.358 L465.155 249.358 L465.155 245.515 L469.368 245.515 Q472.817 245.515 474.646 244.149 Q476.475 242.761 476.475 240.168 Q476.475 237.506 474.577 236.094 Q472.702 234.659 469.183 234.659 Q467.262 234.659 465.063 235.075 Q462.864 235.492 460.225 236.372 L460.225 232.205 Q462.887 231.464 465.202 231.094 Q467.54 230.724 469.6 230.724 Q474.924 230.724 478.026 233.154 Q481.128 235.562 481.128 239.682 Q481.128 242.552 479.484 244.543 Q477.841 246.511 474.808 247.274 Z" fill="#000000" fill-rule="nonzero" fill-opacity="1" /><path clip-path="url(#clip110)" d="M500.155 229.89 L500.155 272.159 L490.34 272.159 L490.34 268.848 L495.873 268.848 L495.873 233.2 L490.34 233.2 L490.34 229.89 L500.155 229.89 Z" fill="#000000" fill-rule="nonzero" fill-opacity="1" /><polyline clip-path="url(#clip110)" style="stroke:#c271d2; stroke-linecap:round; stroke-linejoin:round; stroke-width:4; stroke-opacity:1; fill:none" points="239.009,300.469 386.48,300.469 "/>
<path clip-path="url(#clip110)" d="M411.058 307.517 L411.058 291.823 L415.318 291.823 L415.318 307.355 Q415.318 311.036 416.753 312.888 Q418.188 314.716 421.058 314.716 Q424.507 314.716 426.498 312.517 Q428.512 310.318 428.512 306.522 L428.512 291.823 L432.771 291.823 L432.771 317.749 L428.512 317.749 L428.512 313.767 Q426.961 316.128 424.901 317.286 Q422.864 318.42 420.156 318.42 Q415.688 318.42 413.373 315.642 Q411.058 312.864 411.058 307.517 M421.776 291.198 L421.776 291.198 Z" fill="#000000" fill-rule="nonzero" fill-opacity="1" /><path clip-path="url(#clip110)" d="M441.151 281.73 L450.966 281.73 L450.966 285.04 L445.41 285.04 L445.41 320.688 L450.966 320.688 L450.966 323.999 L441.151 323.999 L441.151 281.73 Z" fill="#000000" fill-rule="nonzero" fill-opacity="1" /><path clip-path="url(#clip110)" d="M473.489 287.263 L461.683 305.712 L473.489 305.712 L473.489 287.263 M472.262 283.189 L478.141 283.189 L478.141 305.712 L483.072 305.712 L483.072 309.601 L478.141 309.601 L478.141 317.749 L473.489 317.749 L473.489 309.601 L457.887 309.601 L457.887 305.087 L472.262 283.189 Z" fill="#000000" fill-rule="nonzero" fill-opacity="1" /><path clip-path="url(#clip110)" d="M500.155 281.73 L500.155 323.999 L490.34 323.999 L490.34 320.688 L495.873 320.688 L495.873 285.04 L490.34 285.04 L490.34 281.73 L500.155 281.73 Z" fill="#000000" fill-rule="nonzero" fill-opacity="1" /><polyline clip-path="url(#clip110)" style="stroke:#ac8d18; stroke-linecap:round; stroke-linejoin:round; stroke-width:4; stroke-opacity:1; fill:none" points="239.009,352.309 386.48,352.309 "/>
<path clip-path="url(#clip110)" d="M411.058 359.357 L411.058 343.663 L415.318 343.663 L415.318 359.195 Q415.318 362.876 416.753 364.728 Q418.188 366.556 421.058 366.556 Q424.507 366.556 426.498 364.357 Q428.512 362.158 428.512 358.362 L428.512 343.663 L432.771 343.663 L432.771 369.589 L428.512 369.589 L428.512 365.607 Q426.961 367.968 424.901 369.126 Q422.864 370.26 420.156 370.26 Q415.688 370.26 413.373 367.482 Q411.058 364.704 411.058 359.357 M421.776 343.038 L421.776 343.038 Z" fill="#000000" fill-rule="nonzero" fill-opacity="1" /><path clip-path="url(#clip110)" d="M441.151 333.57 L450.966 333.57 L450.966 336.88 L445.41 336.88 L445.41 372.528 L450.966 372.528 L450.966 375.839 L441.151 375.839 L441.151 333.57 Z" fill="#000000" fill-rule="nonzero" fill-opacity="1" /><path clip-path="url(#clip110)" d="M460.688 335.029 L479.044 335.029 L479.044 338.964 L464.97 338.964 L464.97 347.436 Q465.989 347.089 467.007 346.927 Q468.026 346.742 469.044 346.742 Q474.831 346.742 478.211 349.913 Q481.591 353.084 481.591 358.501 Q481.591 364.079 478.118 367.181 Q474.646 370.26 468.327 370.26 Q466.151 370.26 463.882 369.89 Q461.637 369.519 459.23 368.778 L459.23 364.079 Q461.313 365.214 463.535 365.769 Q465.757 366.325 468.234 366.325 Q472.239 366.325 474.577 364.218 Q476.915 362.112 476.915 358.501 Q476.915 354.89 474.577 352.783 Q472.239 350.677 468.234 350.677 Q466.359 350.677 464.484 351.093 Q462.632 351.51 460.688 352.39 L460.688 335.029 Z" fill="#000000" fill-rule="nonzero" fill-opacity="1" /><path clip-path="url(#clip110)" d="M500.155 333.57 L500.155 375.839 L490.34 375.839 L490.34 372.528 L495.873 372.528 L495.873 336.88 L490.34 336.88 L490.34 333.57 L500.155 333.57 Z" fill="#000000" fill-rule="nonzero" fill-opacity="1" /><polyline clip-path="url(#clip110)" style="stroke:#00a9ad; stroke-linecap:round; stroke-linejoin:round; stroke-width:4; stroke-opacity:1; fill:none" points="239.009,404.149 386.48,404.149 "/>
<path clip-path="url(#clip110)" d="M411.058 411.197 L411.058 395.503 L415.318 395.503 L415.318 411.035 Q415.318 414.716 416.753 416.568 Q418.188 418.396 421.058 418.396 Q424.507 418.396 426.498 416.197 Q428.512 413.998 428.512 410.202 L428.512 395.503 L432.771 395.503 L432.771 421.429 L428.512 421.429 L428.512 417.447 Q426.961 419.808 424.901 420.966 Q422.864 422.1 420.156 422.1 Q415.688 422.1 413.373 419.322 Q411.058 416.544 411.058 411.197 M421.776 394.878 L421.776 394.878 Z" fill="#000000" fill-rule="nonzero" fill-opacity="1" /><path clip-path="url(#clip110)" d="M441.151 385.41 L450.966 385.41 L450.966 388.72 L445.41 388.72 L445.41 424.368 L450.966 424.368 L450.966 427.679 L441.151 427.679 L441.151 385.41 Z" fill="#000000" fill-rule="nonzero" fill-opacity="1" /><path clip-path="url(#clip110)" d="M471.22 402.285 Q468.072 402.285 466.22 404.438 Q464.392 406.591 464.392 410.341 Q464.392 414.068 466.22 416.243 Q468.072 418.396 471.22 418.396 Q474.368 418.396 476.197 416.243 Q478.049 414.068 478.049 410.341 Q478.049 406.591 476.197 404.438 Q474.368 402.285 471.22 402.285 M480.503 387.633 L480.503 391.892 Q478.743 391.058 476.938 390.619 Q475.155 390.179 473.396 390.179 Q468.766 390.179 466.313 393.304 Q463.882 396.429 463.535 402.748 Q464.901 400.734 466.961 399.669 Q469.021 398.582 471.498 398.582 Q476.706 398.582 479.716 401.753 Q482.748 404.901 482.748 410.341 Q482.748 415.665 479.6 418.882 Q476.452 422.1 471.22 422.1 Q465.225 422.1 462.054 417.517 Q458.882 412.91 458.882 404.183 Q458.882 395.989 462.771 391.128 Q466.66 386.244 473.211 386.244 Q474.97 386.244 476.753 386.591 Q478.558 386.938 480.503 387.633 Z" fill="#000000" fill-rule="nonzero" fill-opacity="1" /><path clip-path="url(#clip110)" d="M500.155 385.41 L500.155 427.679 L490.34 427.679 L490.34 424.368 L495.873 424.368 L495.873 388.72 L490.34 388.72 L490.34 385.41 L500.155 385.41 Z" fill="#000000" fill-rule="nonzero" fill-opacity="1" /><polyline clip-path="url(#clip110)" style="stroke:#ed5d92; stroke-linecap:round; stroke-linejoin:round; stroke-width:4; stroke-opacity:1; fill:none" points="239.009,455.989 386.48,455.989 "/>
<path clip-path="url(#clip110)" d="M411.058 463.037 L411.058 447.343 L415.318 447.343 L415.318 462.875 Q415.318 466.556 416.753 468.408 Q418.188 470.236 421.058 470.236 Q424.507 470.236 426.498 468.037 Q428.512 465.838 428.512 462.042 L428.512 447.343 L432.771 447.343 L432.771 473.269 L428.512 473.269 L428.512 469.287 Q426.961 471.648 424.901 472.806 Q422.864 473.94 420.156 473.94 Q415.688 473.94 413.373 471.162 Q411.058 468.384 411.058 463.037 M421.776 446.718 L421.776 446.718 Z" fill="#000000" fill-rule="nonzero" fill-opacity="1" /><path clip-path="url(#clip110)" d="M441.151 437.25 L450.966 437.25 L450.966 440.56 L445.41 440.56 L445.41 476.208 L450.966 476.208 L450.966 479.519 L441.151 479.519 L441.151 437.25 Z" fill="#000000" fill-rule="nonzero" fill-opacity="1" /><path clip-path="url(#clip110)" d="M459.461 438.709 L481.683 438.709 L481.683 440.699 L469.137 473.269 L464.253 473.269 L476.058 442.644 L459.461 442.644 L459.461 438.709 Z" fill="#000000" fill-rule="nonzero" fill-opacity="1" /><path clip-path="url(#clip110)" d="M500.155 437.25 L500.155 479.519 L490.34 479.519 L490.34 476.208 L495.873 476.208 L495.873 440.56 L490.34 440.56 L490.34 437.25 L500.155 437.25 Z" fill="#000000" fill-rule="nonzero" fill-opacity="1" /><polyline clip-path="url(#clip110)" style="stroke:#c68125; stroke-linecap:round; stroke-linejoin:round; stroke-width:4; stroke-opacity:1; fill:none" points="239.009,507.829 386.48,507.829 "/>
<path clip-path="url(#clip110)" d="M411.058 514.877 L411.058 499.183 L415.318 499.183 L415.318 514.715 Q415.318 518.396 416.753 520.248 Q418.188 522.076 421.058 522.076 Q424.507 522.076 426.498 519.877 Q428.512 517.678 428.512 513.882 L428.512 499.183 L432.771 499.183 L432.771 525.109 L428.512 525.109 L428.512 521.127 Q426.961 523.488 424.901 524.646 Q422.864 525.78 420.156 525.78 Q415.688 525.78 413.373 523.002 Q411.058 520.224 411.058 514.877 M421.776 498.558 L421.776 498.558 Z" fill="#000000" fill-rule="nonzero" fill-opacity="1" /><path clip-path="url(#clip110)" d="M441.151 489.09 L450.966 489.09 L450.966 492.4 L445.41 492.4 L445.41 528.048 L450.966 528.048 L450.966 531.359 L441.151 531.359 L441.151 489.09 Z" fill="#000000" fill-rule="nonzero" fill-opacity="1" /><path clip-path="url(#clip110)" d="M470.641 508.697 Q467.308 508.697 465.387 510.479 Q463.489 512.261 463.489 515.386 Q463.489 518.511 465.387 520.294 Q467.308 522.076 470.641 522.076 Q473.975 522.076 475.896 520.294 Q477.817 518.488 477.817 515.386 Q477.817 512.261 475.896 510.479 Q473.998 508.697 470.641 508.697 M465.966 506.706 Q462.956 505.965 461.267 503.905 Q459.6 501.845 459.6 498.882 Q459.6 494.738 462.54 492.331 Q465.503 489.924 470.641 489.924 Q475.803 489.924 478.743 492.331 Q481.683 494.738 481.683 498.882 Q481.683 501.845 479.993 503.905 Q478.327 505.965 475.341 506.706 Q478.72 507.493 480.595 509.785 Q482.493 512.076 482.493 515.386 Q482.493 520.41 479.415 523.095 Q476.359 525.78 470.641 525.78 Q464.924 525.78 461.845 523.095 Q458.79 520.41 458.79 515.386 Q458.79 512.076 460.688 509.785 Q462.586 507.493 465.966 506.706 M464.253 499.322 Q464.253 502.007 465.919 503.512 Q467.609 505.016 470.641 505.016 Q473.651 505.016 475.341 503.512 Q477.053 502.007 477.053 499.322 Q477.053 496.637 475.341 495.132 Q473.651 493.627 470.641 493.627 Q467.609 493.627 465.919 495.132 Q464.253 496.637 464.253 499.322 Z" fill="#000000" fill-rule="nonzero" fill-opacity="1" /><path clip-path="url(#clip110)" d="M500.155 489.09 L500.155 531.359 L490.34 531.359 L490.34 528.048 L495.873 528.048 L495.873 492.4 L490.34 492.4 L490.34 489.09 L500.155 489.09 Z" fill="#000000" fill-rule="nonzero" fill-opacity="1" /><polyline clip-path="url(#clip110)" style="stroke:#00a98d; stroke-linecap:round; stroke-linejoin:round; stroke-width:4; stroke-opacity:1; fill:none" points="239.009,559.669 386.48,559.669 "/>
<path clip-path="url(#clip110)" d="M411.058 566.717 L411.058 551.023 L415.318 551.023 L415.318 566.555 Q415.318 570.236 416.753 572.088 Q418.188 573.916 421.058 573.916 Q424.507 573.916 426.498 571.717 Q428.512 569.518 428.512 565.722 L428.512 551.023 L432.771 551.023 L432.771 576.949 L428.512 576.949 L428.512 572.967 Q426.961 575.328 424.901 576.486 Q422.864 577.62 420.156 577.62 Q415.688 577.62 413.373 574.842 Q411.058 572.064 411.058 566.717 M421.776 550.398 L421.776 550.398 Z" fill="#000000" fill-rule="nonzero" fill-opacity="1" /><path clip-path="url(#clip110)" d="M441.151 540.93 L450.966 540.93 L450.966 544.24 L445.41 544.24 L445.41 579.888 L450.966 579.888 L450.966 583.199 L441.151 583.199 L441.151 540.93 Z" fill="#000000" fill-rule="nonzero" fill-opacity="1" /><path clip-path="url(#clip110)" d="M460.78 576.231 L460.78 571.972 Q462.54 572.805 464.345 573.245 Q466.151 573.685 467.887 573.685 Q472.516 573.685 474.947 570.583 Q477.401 567.458 477.748 561.115 Q476.405 563.106 474.345 564.171 Q472.285 565.236 469.785 565.236 Q464.6 565.236 461.567 562.111 Q458.558 558.963 458.558 553.523 Q458.558 548.199 461.706 544.981 Q464.854 541.764 470.086 541.764 Q476.081 541.764 479.229 546.37 Q482.401 550.953 482.401 559.703 Q482.401 567.875 478.512 572.759 Q474.646 577.62 468.095 577.62 Q466.336 577.62 464.53 577.273 Q462.725 576.925 460.78 576.231 M470.086 561.578 Q473.234 561.578 475.063 559.426 Q476.915 557.273 476.915 553.523 Q476.915 549.796 475.063 547.643 Q473.234 545.467 470.086 545.467 Q466.938 545.467 465.086 547.643 Q463.257 549.796 463.257 553.523 Q463.257 557.273 465.086 559.426 Q466.938 561.578 470.086 561.578 Z" fill="#000000" fill-rule="nonzero" fill-opacity="1" /><path clip-path="url(#clip110)" d="M500.155 540.93 L500.155 583.199 L490.34 583.199 L490.34 579.888 L495.873 579.888 L495.873 544.24 L490.34 544.24 L490.34 540.93 L500.155 540.93 Z" fill="#000000" fill-rule="nonzero" fill-opacity="1" /><polyline clip-path="url(#clip110)" style="stroke:#8e971d; stroke-linecap:round; stroke-linejoin:round; stroke-width:4; stroke-opacity:1; fill:none" points="239.009,611.509 386.48,611.509 "/>
<path clip-path="url(#clip110)" d="M411.058 618.557 L411.058 602.863 L415.318 602.863 L415.318 618.395 Q415.318 622.076 416.753 623.928 Q418.188 625.756 421.058 625.756 Q424.507 625.756 426.498 623.557 Q428.512 621.358 428.512 617.562 L428.512 602.863 L432.771 602.863 L432.771 628.789 L428.512 628.789 L428.512 624.807 Q426.961 627.168 424.901 628.326 Q422.864 629.46 420.156 629.46 Q415.688 629.46 413.373 626.682 Q411.058 623.904 411.058 618.557 M421.776 602.238 L421.776 602.238 Z" fill="#000000" fill-rule="nonzero" fill-opacity="1" /><path clip-path="url(#clip110)" d="M441.151 592.77 L450.966 592.77 L450.966 596.08 L445.41 596.08 L445.41 631.728 L450.966 631.728 L450.966 635.039 L441.151 635.039 L441.151 592.77 Z" fill="#000000" fill-rule="nonzero" fill-opacity="1" /><path clip-path="url(#clip110)" d="M461.452 624.853 L469.091 624.853 L469.091 598.488 L460.78 600.155 L460.78 595.895 L469.044 594.229 L473.72 594.229 L473.72 624.853 L481.359 624.853 L481.359 628.789 L461.452 628.789 L461.452 624.853 Z" fill="#000000" fill-rule="nonzero" fill-opacity="1" /><path clip-path="url(#clip110)" d="M500.803 597.307 Q497.192 597.307 495.364 600.872 Q493.558 604.414 493.558 611.543 Q493.558 618.65 495.364 622.215 Q497.192 625.756 500.803 625.756 Q504.438 625.756 506.243 622.215 Q508.072 618.65 508.072 611.543 Q508.072 604.414 506.243 600.872 Q504.438 597.307 500.803 597.307 M500.803 593.604 Q506.614 593.604 509.669 598.21 Q512.748 602.793 512.748 611.543 Q512.748 620.27 509.669 624.877 Q506.614 629.46 500.803 629.46 Q494.993 629.46 491.915 624.877 Q488.859 620.27 488.859 611.543 Q488.859 602.793 491.915 598.21 Q494.993 593.604 500.803 593.604 Z" fill="#000000" fill-rule="nonzero" fill-opacity="1" /><path clip-path="url(#clip110)" d="M530.317 592.77 L530.317 635.039 L520.502 635.039 L520.502 631.728 L526.035 631.728 L526.035 596.08 L520.502 596.08 L520.502 592.77 L530.317 592.77 Z" fill="#000000" fill-rule="nonzero" fill-opacity="1" /></svg>
