<?xml version="1.0" encoding="utf-8"?>
<svg xmlns="http://www.w3.org/2000/svg" xmlns:xlink="http://www.w3.org/1999/xlink" width="600" height="400" viewBox="0 0 2400 1600">
<defs>
  <clipPath id="clip950">
    <rect x="0" y="0" width="2400" height="1600"/>
  </clipPath>
</defs>
<path clip-path="url(#clip950)" d="M0 1600 L2400 1600 L2400 0 L0 0  Z" fill="#ffffff" fill-rule="evenodd" fill-opacity="1"/>
<defs>
  <clipPath id="clip951">
    <rect x="480" y="0" width="1681" height="1600"/>
  </clipPath>
</defs>
<path clip-path="url(#clip950)" d="M140.696 1423.18 L2352.76 1423.18 L2352.76 47.2441 L140.696 47.2441  Z" fill="#ffffff" fill-rule="evenodd" fill-opacity="1"/>
<defs>
  <clipPath id="clip952">
    <rect x="140" y="47" width="2213" height="1377"/>
  </clipPath>
</defs>
<polyline clip-path="url(#clip952)" style="stroke:#000000; stroke-linecap:round; stroke-linejoin:round; stroke-width:2; stroke-opacity:0.1; fill:none" points="583.726,1423.18 583.726,47.2441 "/>
<polyline clip-path="url(#clip952)" style="stroke:#000000; stroke-linecap:round; stroke-linejoin:round; stroke-width:2; stroke-opacity:0.1; fill:none" points="1027.12,1423.18 1027.12,47.2441 "/>
<polyline clip-path="url(#clip952)" style="stroke:#000000; stroke-linecap:round; stroke-linejoin:round; stroke-width:2; stroke-opacity:0.1; fill:none" points="1470.51,1423.18 1470.51,47.2441 "/>
<polyline clip-path="url(#clip952)" style="stroke:#000000; stroke-linecap:round; stroke-linejoin:round; stroke-width:2; stroke-opacity:0.1; fill:none" points="1913.91,1423.18 1913.91,47.2441 "/>
<polyline clip-path="url(#clip950)" style="stroke:#000000; stroke-linecap:round; stroke-linejoin:round; stroke-width:4; stroke-opacity:1; fill:none" points="140.696,1423.18 2352.76,1423.18 "/>
<polyline clip-path="url(#clip950)" style="stroke:#000000; stroke-linecap:round; stroke-linejoin:round; stroke-width:4; stroke-opacity:1; fill:none" points="583.726,1423.18 583.726,1404.28 "/>
<polyline clip-path="url(#clip950)" style="stroke:#000000; stroke-linecap:round; stroke-linejoin:round; stroke-width:4; stroke-opacity:1; fill:none" points="1027.12,1423.18 1027.12,1404.28 "/>
<polyline clip-path="url(#clip950)" style="stroke:#000000; stroke-linecap:round; stroke-linejoin:round; stroke-width:4; stroke-opacity:1; fill:none" points="1470.51,1423.18 1470.51,1404.28 "/>
<polyline clip-path="url(#clip950)" style="stroke:#000000; stroke-linecap:round; stroke-linejoin:round; stroke-width:4; stroke-opacity:1; fill:none" points="1913.91,1423.18 1913.91,1404.28 "/>
<path clip-path="url(#clip950)" d="M558.414 1481.64 L566.052 1481.64 L566.052 1455.28 L557.742 1456.95 L557.742 1452.69 L566.006 1451.02 L570.682 1451.02 L570.682 1481.64 L578.321 1481.64 L578.321 1485.58 L558.414 1485.58 L558.414 1481.64 Z" fill="#000000" fill-rule="nonzero" fill-opacity="1" /><path clip-path="url(#clip950)" d="M597.765 1454.1 Q594.154 1454.1 592.325 1457.66 Q590.52 1461.2 590.52 1468.33 Q590.52 1475.44 592.325 1479.01 Q594.154 1482.55 597.765 1482.55 Q601.4 1482.55 603.205 1479.01 Q605.034 1475.44 605.034 1468.33 Q605.034 1461.2 603.205 1457.66 Q601.4 1454.1 597.765 1454.1 M597.765 1450.39 Q603.575 1450.39 606.631 1455 Q609.71 1459.58 609.71 1468.33 Q609.71 1477.06 606.631 1481.67 Q603.575 1486.25 597.765 1486.25 Q591.955 1486.25 588.876 1481.67 Q585.821 1477.06 585.821 1468.33 Q585.821 1459.58 588.876 1455 Q591.955 1450.39 597.765 1450.39 Z" fill="#000000" fill-rule="nonzero" fill-opacity="1" /><path clip-path="url(#clip950)" d="M1005.89 1481.64 L1022.21 1481.64 L1022.21 1485.58 L1000.27 1485.58 L1000.27 1481.64 Q1002.93 1478.89 1007.51 1474.26 Q1012.12 1469.61 1013.3 1468.27 Q1015.55 1465.74 1016.42 1464.01 Q1017.33 1462.25 1017.33 1460.56 Q1017.33 1457.8 1015.38 1456.07 Q1013.46 1454.33 1010.36 1454.33 Q1008.16 1454.33 1005.71 1455.09 Q1003.28 1455.86 1000.5 1457.41 L1000.5 1452.69 Q1003.32 1451.55 1005.78 1450.97 Q1008.23 1450.39 1010.27 1450.39 Q1015.64 1450.39 1018.83 1453.08 Q1022.03 1455.77 1022.03 1460.26 Q1022.03 1462.39 1021.22 1464.31 Q1020.43 1466.2 1018.32 1468.8 Q1017.74 1469.47 1014.64 1472.69 Q1011.54 1475.88 1005.89 1481.64 Z" fill="#000000" fill-rule="nonzero" fill-opacity="1" /><path clip-path="url(#clip950)" d="M1042.03 1454.1 Q1038.42 1454.1 1036.59 1457.66 Q1034.78 1461.2 1034.78 1468.33 Q1034.78 1475.44 1036.59 1479.01 Q1038.42 1482.55 1042.03 1482.55 Q1045.66 1482.55 1047.47 1479.01 Q1049.3 1475.44 1049.3 1468.33 Q1049.3 1461.2 1047.47 1457.66 Q1045.66 1454.1 1042.03 1454.1 M1042.03 1450.39 Q1047.84 1450.39 1050.89 1455 Q1053.97 1459.58 1053.97 1468.33 Q1053.97 1477.06 1050.89 1481.67 Q1047.84 1486.25 1042.03 1486.25 Q1036.22 1486.25 1033.14 1481.67 Q1030.08 1477.06 1030.08 1468.33 Q1030.08 1459.58 1033.14 1455 Q1036.22 1450.39 1042.03 1450.39 Z" fill="#000000" fill-rule="nonzero" fill-opacity="1" /><path clip-path="url(#clip950)" d="M1459.36 1466.95 Q1462.71 1467.66 1464.59 1469.93 Q1466.48 1472.2 1466.48 1475.53 Q1466.48 1480.65 1462.97 1483.45 Q1459.45 1486.25 1452.97 1486.25 Q1450.79 1486.25 1448.48 1485.81 Q1446.18 1485.39 1443.73 1484.54 L1443.73 1480.02 Q1445.67 1481.16 1447.99 1481.74 Q1450.3 1482.32 1452.83 1482.32 Q1457.23 1482.32 1459.52 1480.58 Q1461.83 1478.84 1461.83 1475.53 Q1461.83 1472.48 1459.68 1470.77 Q1457.55 1469.03 1453.73 1469.03 L1449.7 1469.03 L1449.7 1465.19 L1453.92 1465.19 Q1457.36 1465.19 1459.19 1463.82 Q1461.02 1462.43 1461.02 1459.84 Q1461.02 1457.18 1459.12 1455.77 Q1457.25 1454.33 1453.73 1454.33 Q1451.81 1454.33 1449.61 1454.75 Q1447.41 1455.16 1444.77 1456.04 L1444.77 1451.88 Q1447.43 1451.14 1449.75 1450.77 Q1452.09 1450.39 1454.15 1450.39 Q1459.47 1450.39 1462.57 1452.83 Q1465.67 1455.23 1465.67 1459.35 Q1465.67 1462.22 1464.03 1464.21 Q1462.39 1466.18 1459.36 1466.95 Z" fill="#000000" fill-rule="nonzero" fill-opacity="1" /><path clip-path="url(#clip950)" d="M1485.35 1454.1 Q1481.74 1454.1 1479.91 1457.66 Q1478.11 1461.2 1478.11 1468.33 Q1478.11 1475.44 1479.91 1479.01 Q1481.74 1482.55 1485.35 1482.55 Q1488.98 1482.55 1490.79 1479.01 Q1492.62 1475.44 1492.62 1468.33 Q1492.62 1461.2 1490.79 1457.66 Q1488.98 1454.1 1485.35 1454.1 M1485.35 1450.39 Q1491.16 1450.39 1494.22 1455 Q1497.29 1459.58 1497.29 1468.33 Q1497.29 1477.06 1494.22 1481.67 Q1491.16 1486.25 1485.35 1486.25 Q1479.54 1486.25 1476.46 1481.67 Q1473.41 1477.06 1473.41 1468.33 Q1473.41 1459.58 1476.46 1455 Q1479.54 1450.39 1485.35 1450.39 Z" fill="#000000" fill-rule="nonzero" fill-opacity="1" /><path clip-path="url(#clip950)" d="M1902.08 1455.09 L1890.27 1473.54 L1902.08 1473.54 L1902.08 1455.09 M1900.85 1451.02 L1906.73 1451.02 L1906.73 1473.54 L1911.66 1473.54 L1911.66 1477.43 L1906.73 1477.43 L1906.73 1485.58 L1902.08 1485.58 L1902.08 1477.43 L1886.48 1477.43 L1886.48 1472.92 L1900.85 1451.02 Z" fill="#000000" fill-rule="nonzero" fill-opacity="1" /><path clip-path="url(#clip950)" d="M1929.39 1454.1 Q1925.78 1454.1 1923.95 1457.66 Q1922.15 1461.2 1922.15 1468.33 Q1922.15 1475.44 1923.95 1479.01 Q1925.78 1482.55 1929.39 1482.55 Q1933.03 1482.55 1934.83 1479.01 Q1936.66 1475.44 1936.66 1468.33 Q1936.66 1461.2 1934.83 1457.66 Q1933.03 1454.1 1929.39 1454.1 M1929.39 1450.39 Q1935.2 1450.39 1938.26 1455 Q1941.34 1459.58 1941.34 1468.33 Q1941.34 1477.06 1938.26 1481.67 Q1935.2 1486.25 1929.39 1486.25 Q1923.58 1486.25 1920.5 1481.67 Q1917.45 1477.06 1917.45 1468.33 Q1917.45 1459.58 1920.5 1455 Q1923.58 1450.39 1929.39 1450.39 Z" fill="#000000" fill-rule="nonzero" fill-opacity="1" /><path clip-path="url(#clip950)" d="M1245.79 1522.27 L1245.79 1532.4 L1257.85 1532.4 L1257.85 1536.95 L1245.79 1536.95 L1245.79 1556.3 Q1245.79 1560.66 1246.96 1561.9 Q1248.17 1563.14 1251.83 1563.14 L1257.85 1563.14 L1257.85 1568.04 L1251.83 1568.04 Q1245.05 1568.04 1242.48 1565.53 Q1239.9 1562.98 1239.9 1556.3 L1239.9 1536.95 L1235.6 1536.95 L1235.6 1532.4 L1239.9 1532.4 L1239.9 1522.27 L1245.79 1522.27 Z" fill="#000000" fill-rule="nonzero" fill-opacity="1" /><polyline clip-path="url(#clip952)" style="stroke:#000000; stroke-linecap:round; stroke-linejoin:round; stroke-width:2; stroke-opacity:0.1; fill:none" points="140.696,1384.4 2352.76,1384.4 "/>
<polyline clip-path="url(#clip952)" style="stroke:#000000; stroke-linecap:round; stroke-linejoin:round; stroke-width:2; stroke-opacity:0.1; fill:none" points="140.696,980.174 2352.76,980.174 "/>
<polyline clip-path="url(#clip952)" style="stroke:#000000; stroke-linecap:round; stroke-linejoin:round; stroke-width:2; stroke-opacity:0.1; fill:none" points="140.696,575.945 2352.76,575.945 "/>
<polyline clip-path="url(#clip952)" style="stroke:#000000; stroke-linecap:round; stroke-linejoin:round; stroke-width:2; stroke-opacity:0.1; fill:none" points="140.696,171.716 2352.76,171.716 "/>
<polyline clip-path="url(#clip950)" style="stroke:#000000; stroke-linecap:round; stroke-linejoin:round; stroke-width:4; stroke-opacity:1; fill:none" points="140.696,1423.18 140.696,47.2441 "/>
<polyline clip-path="url(#clip950)" style="stroke:#000000; stroke-linecap:round; stroke-linejoin:round; stroke-width:4; stroke-opacity:1; fill:none" points="140.696,1384.4 159.593,1384.4 "/>
<polyline clip-path="url(#clip950)" style="stroke:#000000; stroke-linecap:round; stroke-linejoin:round; stroke-width:4; stroke-opacity:1; fill:none" points="140.696,980.174 159.593,980.174 "/>
<polyline clip-path="url(#clip950)" style="stroke:#000000; stroke-linecap:round; stroke-linejoin:round; stroke-width:4; stroke-opacity:1; fill:none" points="140.696,575.945 159.593,575.945 "/>
<polyline clip-path="url(#clip950)" style="stroke:#000000; stroke-linecap:round; stroke-linejoin:round; stroke-width:4; stroke-opacity:1; fill:none" points="140.696,171.716 159.593,171.716 "/>
<path clip-path="url(#clip950)" d="M92.7512 1370.2 Q89.1401 1370.2 87.3114 1373.77 Q85.5058 1377.31 85.5058 1384.44 Q85.5058 1391.54 87.3114 1395.11 Q89.1401 1398.65 92.7512 1398.65 Q96.3854 1398.65 98.1909 1395.11 Q100.02 1391.54 100.02 1384.44 Q100.02 1377.31 98.1909 1373.77 Q96.3854 1370.2 92.7512 1370.2 M92.7512 1366.5 Q98.5613 1366.5 101.617 1371.11 Q104.696 1375.69 104.696 1384.44 Q104.696 1393.17 101.617 1397.77 Q98.5613 1402.35 92.7512 1402.35 Q86.941 1402.35 83.8623 1397.77 Q80.8068 1393.17 80.8068 1384.44 Q80.8068 1375.69 83.8623 1371.11 Q86.941 1366.5 92.7512 1366.5 Z" fill="#000000" fill-rule="nonzero" fill-opacity="1" /><path clip-path="url(#clip950)" d="M53.3995 993.519 L61.0384 993.519 L61.0384 967.154 L52.7282 968.82 L52.7282 964.561 L60.9921 962.894 L65.668 962.894 L65.668 993.519 L73.3068 993.519 L73.3068 997.454 L53.3995 997.454 L53.3995 993.519 Z" fill="#000000" fill-rule="nonzero" fill-opacity="1" /><path clip-path="url(#clip950)" d="M92.7512 965.973 Q89.1401 965.973 87.3114 969.538 Q85.5058 973.08 85.5058 980.209 Q85.5058 987.316 87.3114 990.88 Q89.1401 994.422 92.7512 994.422 Q96.3854 994.422 98.1909 990.88 Q100.02 987.316 100.02 980.209 Q100.02 973.08 98.1909 969.538 Q96.3854 965.973 92.7512 965.973 M92.7512 962.269 Q98.5613 962.269 101.617 966.876 Q104.696 971.459 104.696 980.209 Q104.696 988.936 101.617 993.542 Q98.5613 998.126 92.7512 998.126 Q86.941 998.126 83.8623 993.542 Q80.8068 988.936 80.8068 980.209 Q80.8068 971.459 83.8623 966.876 Q86.941 962.269 92.7512 962.269 Z" fill="#000000" fill-rule="nonzero" fill-opacity="1" /><path clip-path="url(#clip950)" d="M56.6171 589.29 L72.9365 589.29 L72.9365 593.225 L50.9921 593.225 L50.9921 589.29 Q53.6541 586.535 58.2375 581.906 Q62.8439 577.253 64.0245 575.91 Q66.2698 573.387 67.1494 571.651 Q68.0522 569.892 68.0522 568.202 Q68.0522 565.448 66.1078 563.711 Q64.1865 561.975 61.0847 561.975 Q58.8856 561.975 56.4319 562.739 Q54.0014 563.503 51.2236 565.054 L51.2236 560.332 Q54.0477 559.198 56.5014 558.619 Q58.955 558.04 60.9921 558.04 Q66.3624 558.04 69.5568 560.725 Q72.7513 563.411 72.7513 567.901 Q72.7513 570.031 71.9411 571.952 Q71.1541 573.85 69.0476 576.443 Q68.4689 577.114 65.367 580.332 Q62.2652 583.526 56.6171 589.29 Z" fill="#000000" fill-rule="nonzero" fill-opacity="1" /><path clip-path="url(#clip950)" d="M92.7512 561.744 Q89.1401 561.744 87.3114 565.309 Q85.5058 568.85 85.5058 575.98 Q85.5058 583.086 87.3114 586.651 Q89.1401 590.193 92.7512 590.193 Q96.3854 590.193 98.1909 586.651 Q100.02 583.086 100.02 575.98 Q100.02 568.85 98.1909 565.309 Q96.3854 561.744 92.7512 561.744 M92.7512 558.04 Q98.5613 558.04 101.617 562.647 Q104.696 567.23 104.696 575.98 Q104.696 584.707 101.617 589.313 Q98.5613 593.896 92.7512 593.896 Q86.941 593.896 83.8623 589.313 Q80.8068 584.707 80.8068 575.98 Q80.8068 567.23 83.8623 562.647 Q86.941 558.04 92.7512 558.04 Z" fill="#000000" fill-rule="nonzero" fill-opacity="1" /><path clip-path="url(#clip950)" d="M66.7559 170.362 Q70.1124 171.079 71.9874 173.348 Q73.8855 175.616 73.8855 178.95 Q73.8855 184.065 70.367 186.866 Q66.8485 189.667 60.3671 189.667 Q58.1912 189.667 55.8764 189.227 Q53.5847 188.811 51.131 187.954 L51.131 183.44 Q53.0754 184.575 55.3903 185.153 Q57.7051 185.732 60.2282 185.732 Q64.6263 185.732 66.918 183.996 Q69.2328 182.26 69.2328 178.95 Q69.2328 175.894 67.08 174.181 Q64.9504 172.445 61.131 172.445 L57.1032 172.445 L57.1032 168.603 L61.3161 168.603 Q64.7652 168.603 66.5939 167.237 Q68.4226 165.848 68.4226 163.255 Q68.4226 160.593 66.5245 159.181 Q64.6495 157.746 61.131 157.746 Q59.2097 157.746 57.0106 158.163 Q54.8115 158.579 52.1727 159.459 L52.1727 155.292 Q54.8347 154.552 57.1495 154.181 Q59.4875 153.811 61.5476 153.811 Q66.8717 153.811 69.9735 156.242 Q73.0753 158.649 73.0753 162.769 Q73.0753 165.64 71.4318 167.63 Q69.7883 169.598 66.7559 170.362 Z" fill="#000000" fill-rule="nonzero" fill-opacity="1" /><path clip-path="url(#clip950)" d="M92.7512 157.515 Q89.1401 157.515 87.3114 161.079 Q85.5058 164.621 85.5058 171.751 Q85.5058 178.857 87.3114 182.422 Q89.1401 185.964 92.7512 185.964 Q96.3854 185.964 98.1909 182.422 Q100.02 178.857 100.02 171.751 Q100.02 164.621 98.1909 161.079 Q96.3854 157.515 92.7512 157.515 M92.7512 153.811 Q98.5613 153.811 101.617 158.417 Q104.696 163.001 104.696 171.751 Q104.696 180.477 101.617 185.084 Q98.5613 189.667 92.7512 189.667 Q86.941 189.667 83.8623 185.084 Q80.8068 180.477 80.8068 171.751 Q80.8068 163.001 83.8623 158.417 Q86.941 153.811 92.7512 153.811 Z" fill="#000000" fill-rule="nonzero" fill-opacity="1" /><polyline clip-path="url(#clip952)" style="stroke:#009af9; stroke-linecap:round; stroke-linejoin:round; stroke-width:4; stroke-opacity:1; fill:none" points="140.696,1384.24 140.696,1384.24 168.881,1371.39 182.501,1365.18 213.982,1350.83 234.089,1341.67 245.089,1336.65 253.93,1332.62 264.497,1327.8 266.48,1326.73 269.599,1325.06 273.273,1323.14 273.748,1322.9 274.291,1322.62 276.718,1321.38 282.207,1318.18 337.081,1290.89 357.266,1281.56 404.848,1259.8 406.305,1259.13 409.409,1257.71 410.482,1257.23 418.435,1253.6 427.468,1249.48 434.48,1245.73 443.571,1241.09 461.969,1232.15 467.039,1229.76 470.789,1227.99 474.87,1226.08 483.361,1222.14 489.741,1218.68 491.41,1217.8 496.329,1215.26 502.025,1212.39 511.119,1207.25 514.51,1205.13 525.092,1199.01 528.143,1197.35 541.906,1189.28 555.142,1182.32 558.691,1180.53 570.191,1174.89 573.21,1173.44 579.303,1170.54 580.653,1169.9 582.737,1168.92 593.846,1163.73 604.805,1158.65 612.898,1154.93 616.845,1153.11 618.781,1152.23 623.414,1150.1 625.42,1149.18 628.39,1147.82 630.446,1146.88 631.512,1146.39 635.629,1144.17 639.566,1142.1 639.747,1142 642.115,1140.57 644.8,1139 657.265,1132.14 670.98,1125.17 671.292,1124.98 684.761,1116.64 686.135,1115.85 700.727,1108.01 704.801,1105.6 711.975,1101.56 715.475,1099.68 727.094,1093.69 749.013,1083.07 750.349,1082.43 753.285,1081.05 755.207,1080.15 765.38,1075.41 773.706,1070.93 777.154,1069.14 777.178,1069.12 787.923,1063.73 789.631,1062.89 792.17,1061.65 795.518,1060.04 799.147,1058.3 806.129,1054.99 810.17,1052.75 811.033,1052.28 828.736,1043.16 833.592,1040.38 835.548,1039.3 835.906,1039.1 837.028,1038.49 838.877,1037.32 843.664,1034.43 850.774,1029.82 853.408,1028.21 855.784,1026.8 856.773,1026.23 864.85,1021.7 872.858,1017.47 884.662,1011.54 888.646,1009.59 891.353,1008.28 892.361,1007.8 893.779,1007.12 897.1,1005.53 902.557,1002.94 918.61,995.447 924.679,992.156 926.798,991.038 930.655,988.715 954.24,976.019 960.57,972.879 995.536,956.329 996.21,956.017 997.278,955.427 1015.8,945.812 1083.59,914.052 1084.22,913.762 1096.21,908.282 1099.09,906.966 1108.54,902.651 1119.11,897.826 1124.86,895.206 1125.06,895.112 1130.06,892.423 1136.12,889.275 1150.88,881.949 1158.35,878.364 1174.28,870.869 1177.29,869.47 1191.6,862.853 1229.07,844.043 1238.52,839.599 1240.47,838.689 1241.35,838.201 1246.13,835.209 1247.52,834.247 1250.98,831.939 1251.84,831.381 1265.42,822.358 1267.44,820.969 1282.41,810.736 1283.55,810.042 1293.47,804.314 1295.43,803.239 1296.04,802.907 1299.73,800.624 1302.12,799.193 1314.74,791.268 1321.86,787.241 1328.67,783.592 1337.87,778.887 1340.93,777.364 1345.76,774.597 1347.09,773.851 1355.22,769.474 1356.25,768.937 1357.94,768.06 1366.39,763.142 1370.78,760.369 1374.05,758.389 1374.84,757.924 1378.84,755.615 1390.85,749.105 1394.9,747.024 1395.59,746.67 1418.91,735.288 1422.1,733.778 1426.35,731.781 1437.83,726.429 1439.34,725.73 1459.54,715.218 1478.81,705.927 1481.6,704.612 1499.95,694.927 1512.01,688.151 1515.4,686.356 1524.31,681.119 1537.35,674.123 1543.38,671.065 1547.39,669.068 1549.59,667.799 1551.8,666.542 1557.18,663.153 1558.67,662.121 1563.25,659.082 1563.29,659.052 1568.2,655.998 1568.5,655.815 1569.61,655.151 1569.96,654.91 1572.81,653.002 1581.52,647.585 1594.04,639.718 1595.53,638.853 1600.35,636.133 1601.2,635.667 1642.72,614.99 1649.28,611.92 1655.09,609.216 1659.96,606.959 1662.98,605.564 1666.28,604.043 1669.04,602.772 1673.03,600.939 1686.47,593.856 1687.27,593.376 1699.13,585.872 1707.64,581.043 1710.24,579.631 1715.04,577.096 1728.27,569.502 1729.73,568.716 1737.44,564.676 1743.89,561.417 1760.17,553.504 1760.59,553.268 1762.27,552.321 1763.03,551.903 1764.83,550.908 1765.14,550.744 1767.12,549.672 1767.85,549.28 1772.4,546.879 1777.41,544.308 1778.99,543.509 1780.18,542.911 1780.2,542.899 1780.81,542.594 1780.83,542.586 1782.62,541.538 1791.16,536.763 1791.52,536.566 1814.77,524.766 1815.49,524.355 1833.07,514.924 1833.1,514.909 1849.98,505.517 1859.98,500.415 1865.56,497.662 1881.86,489.848 1903.7,479.671 1911.69,475.988 1922.41,471.066 1943.38,461.472 1947.88,459.418 1952.67,457.23 1954.16,456.552 1972.83,448.035 1981.9,443.897 1985.99,442.032 1986.62,441.742 1992.84,438.911 2006.7,432.591 2013.92,429.299 2030.91,420.471 2039.67,416.172 2041.7,415.193 2049.1,411.651 2054.02,409.328 2074,398.825 2074.18,398.717 2120.71,373.145 2123.34,371.648 2127.65,368.914 2131,366.601 2145.15,357.876 2158.61,350.583 2171.57,344.058 2182.2,338.149 2182.83,337.813 2183.62,337.398 2191.54,333.298 2193.01,332.424 2199.41,328.257 2200.04,327.867 2203.64,325.683 2205.87,324.178 2209.86,321.604 2217.81,316.816 2218.3,316.493 2219.34,315.805 2233.02,307.543 2240.8,303.294 2242.04,302.531 2245.79,300.278 2252.57,296.41 2254.51,295.344 2257.29,293.839 2268.81,287.878 2286.08,278.349 2299.46,271.611 2307.39,267.767 2310.34,266.351 2315.54,263.886 2320.05,261.761 2321.9,260.892 2329.02,257.57 2339.85,252.552 2344.99,250.184 2352.76,246.617 "/>
<polyline clip-path="url(#clip952)" style="stroke:#e26f46; stroke-linecap:round; stroke-linejoin:round; stroke-width:4; stroke-opacity:1; fill:none" points="140.696,1384.24 140.696,1384.24 168.881,1371.39 182.501,1365.18 213.982,1350.83 234.089,1341.67 245.089,1336.65 253.93,1332.62 264.497,1327.8 266.48,1326.9 269.599,1325.48 273.273,1323.8 273.748,1323.59 274.291,1323.29 276.718,1321.98 282.207,1319.09 337.081,1292.81 357.266,1283.54 404.848,1261.81 406.305,1261.02 409.409,1259.09 410.482,1258.35 418.435,1252.55 427.468,1246.08 434.48,1241.61 443.571,1236.32 461.969,1225.51 467.039,1222.82 470.789,1220.88 474.87,1218.47 483.361,1213.09 489.741,1209.37 491.41,1208.43 496.329,1205.74 502.025,1202.74 511.119,1198.12 514.51,1196.44 525.092,1191.32 528.143,1189.61 541.906,1182.32 555.142,1175.76 558.691,1174.04 570.191,1168.58 573.21,1166.9 579.303,1163.63 580.653,1162.92 582.737,1161.66 593.846,1154.55 604.805,1147.54 612.898,1142.88 616.845,1140.4 618.781,1139.22 623.414,1136.12 625.42,1134.66 628.39,1132.59 630.446,1131.03 631.512,1130.15 635.629,1126.91 639.566,1124.03 639.747,1123.88 642.115,1122.04 644.8,1120.04 657.265,1110.9 670.98,1101.6 671.292,1101.41 684.761,1093.68 686.135,1092.82 700.727,1084.38 704.801,1082.2 711.975,1078.49 715.475,1076.73 727.094,1071.03 749.013,1060.68 750.349,1060.05 753.285,1058.44 755.207,1057.23 765.38,1050.51 773.706,1045.6 777.154,1043.38 777.178,1043.37 787.923,1037 789.631,1036.04 792.17,1034.65 795.518,1032.85 799.147,1030.64 806.129,1026.06 810.17,1023.59 811.033,1023.08 828.736,1013.35 833.592,1010.87 835.548,1009.71 835.906,1009.51 837.028,1008.76 838.877,1007.55 843.664,1004.15 850.774,999.531 853.408,997.922 855.784,996.304 856.773,995.647 864.85,990.585 872.858,985.982 884.662,978.864 888.646,976.641 891.353,975.17 892.361,974.629 893.779,973.75 897.1,971.463 902.557,967.491 918.61,956.391 924.679,952.772 926.798,951.376 930.655,948.932 954.24,934.493 960.57,931.125 995.536,912.423 996.21,912.094 997.278,911.575 1015.8,901.613 1083.59,869.599 1084.22,869.309 1096.21,863.823 1099.09,862.507 1108.54,858.19 1119.11,853.363 1124.86,850.281 1125.06,850.173 1130.06,847.58 1136.12,844.522 1150.88,837.335 1158.35,833.216 1174.28,825.035 1177.29,823.296 1191.6,814.607 1229.07,795.583 1238.52,791.123 1240.47,790.21 1241.35,789.8 1246.13,787.571 1247.52,786.925 1250.98,785.321 1251.84,784.845 1265.42,777.695 1267.44,776.675 1282.41,769.337 1283.55,768.692 1293.47,762.569 1295.43,761.263 1296.04,760.865 1299.73,758.519 1302.12,757.054 1314.74,749.874 1321.86,745.558 1328.67,741.173 1337.87,735.773 1340.93,734.076 1345.76,731.474 1347.09,730.768 1355.22,726.587 1356.25,726.07 1357.94,725.076 1366.39,720.329 1370.78,717.985 1374.05,716.274 1374.84,715.868 1378.84,713.495 1390.85,706.849 1394.9,704.737 1395.59,704.378 1418.91,692.897 1422.1,691.379 1426.35,689.374 1437.83,684.008 1439.34,683.307 1459.54,673.991 1478.81,665.167 1481.6,663.891 1499.95,655.512 1512.01,650.009 1515.4,648.464 1524.31,644.397 1537.35,638.451 1543.38,635.225 1547.39,633.138 1549.59,632.017 1551.8,630.703 1557.18,627.632 1558.67,626.807 1563.25,623.947 1563.29,623.913 1568.2,620.212 1568.5,619.966 1569.61,618.981 1569.96,618.673 1572.81,616.26 1581.52,608.989 1594.04,600.334 1595.53,599.27 1600.35,595.596 1601.2,594.907 1642.72,567.673 1649.28,563.781 1655.09,560.059 1659.96,557.133 1662.98,555.134 1666.28,552.761 1669.04,550.869 1673.03,548.263 1686.47,540.319 1687.27,539.874 1699.13,533.601 1707.64,529.328 1710.24,528.047 1715.04,525.324 1728.27,518.289 1729.73,517.418 1737.44,512.416 1743.89,508.574 1760.17,499.762 1760.59,499.548 1762.27,498.687 1763.03,498.305 1764.83,497.234 1765.14,497.03 1767.12,495.54 1767.85,495.002 1772.4,491.421 1777.41,487.395 1778.99,486.2 1780.18,485.217 1780.2,485.198 1780.81,484.648 1780.83,484.637 1782.62,483.067 1791.16,476.308 1791.52,476.009 1814.77,460.219 1815.49,459.805 1833.07,450.304 1833.1,450.289 1849.98,441.944 1859.98,437.175 1865.56,434.552 1881.86,425.923 1903.7,415.274 1911.69,410.895 1922.41,404.582 1943.38,392.384 1947.88,389.656 1952.67,386.884 1954.16,385.92 1972.83,373.89 1981.9,368.859 1985.99,366.356 1986.62,365.977 1992.84,361.904 2006.7,352.86 2013.92,348.134 2030.91,338.394 2039.67,333.178 2041.7,332.033 2049.1,328 2054.02,325.431 2074,315.54 2074.18,315.452 2120.71,293.776 2123.34,292.566 2127.65,290.591 2131,289.058 2145.15,282.589 2158.61,276.445 2171.57,269.635 2182.2,264.359 2182.83,264.051 2183.62,263.601 2191.54,259.204 2193.01,258.416 2199.41,255.069 2200.04,254.691 2203.64,252.569 2205.87,251.291 2209.86,248.738 2217.81,243.981 2218.3,243.703 2219.34,243.017 2233.02,234.767 2240.8,229.924 2242.04,229.194 2245.79,227.03 2252.57,223.29 2254.51,222.254 2257.29,220.788 2268.81,214.125 2286.08,205.133 2299.46,198.601 2307.39,194.831 2310.34,193.437 2315.54,190.582 2320.05,187.813 2321.9,186.553 2329.02,181.999 2339.85,175.723 2344.99,172.942 2352.76,168.31 "/>
<polyline clip-path="url(#clip952)" style="stroke:#3da44d; stroke-linecap:round; stroke-linejoin:round; stroke-width:4; stroke-opacity:1; fill:none" points="140.696,1384.24 140.696,1384.24 168.881,1371.39 182.501,1365.18 213.982,1350.83 234.089,1341.67 245.089,1336.65 253.93,1331.96 264.497,1326.63 266.48,1325.65 269.599,1323.86 273.273,1321.82 273.748,1321.56 274.291,1321.26 276.718,1319.95 282.207,1317.06 337.081,1290.79 357.266,1281.52 404.848,1259.79 406.305,1259.13 409.409,1257.71 410.482,1257.22 418.435,1253.6 427.468,1248.8 434.48,1245.24 443.571,1240.76 461.969,1232.01 467.039,1229.23 470.789,1226.92 474.87,1224.51 483.361,1219.14 489.741,1215.42 491.41,1214.49 496.329,1211.8 502.025,1208.34 511.119,1203.2 514.51,1201.37 525.092,1195.91 528.143,1194.13 541.906,1186.62 555.142,1179.94 558.691,1177.91 570.191,1171.69 573.21,1170.14 579.303,1167.06 580.653,1166.27 582.737,1165.07 593.846,1159 604.805,1153.41 612.898,1149.43 616.845,1147.53 618.781,1146.6 623.414,1144.39 625.42,1143.44 628.39,1141.79 630.446,1140.67 631.512,1140 635.629,1137.48 639.566,1135.18 639.747,1135.08 642.115,1133.74 644.8,1132.02 657.265,1124.68 670.98,1117.42 671.292,1117.26 684.761,1110.59 686.135,1109.93 700.727,1102.99 704.801,1101.08 711.975,1097.74 715.475,1095.82 727.094,1089.76 749.013,1079.06 750.349,1078.43 753.285,1076.79 755.207,1075.74 765.38,1070.39 773.706,1066.21 777.154,1064.23 777.178,1064.21 787.923,1057.6 789.631,1056.62 792.17,1055.18 795.518,1053.06 799.147,1050.85 806.129,1046.82 810.17,1044.59 811.033,1044.05 828.736,1033.9 833.592,1031.35 835.548,1030.35 835.906,1030.16 837.028,1029.59 838.877,1028.66 843.664,1026.26 850.774,1022.79 853.408,1021.52 855.784,1020.38 856.773,1019.9 864.85,1016.07 872.858,1012.32 884.662,1006.85 888.646,1005.01 891.353,1003.76 892.361,1003.3 893.779,1002.64 897.1,1000.84 902.557,997.512 918.61,987.606 924.679,984.256 926.798,983.122 930.655,981.095 954.24,969.418 960.57,966.411 995.536,950.182 996.21,949.872 997.278,949.382 1015.8,940.901 1083.59,909.969 1084.22,909.623 1096.21,903.339 1099.09,901.641 1108.54,896.368 1119.11,890.86 1124.86,887.984 1125.06,887.883 1130.06,885.429 1136.12,882.503 1150.88,875.521 1158.35,872.041 1174.28,864.679 1177.29,863.296 1191.6,855.77 1229.07,837.791 1238.52,832.711 1240.47,831.701 1241.35,831.249 1246.13,828.821 1247.52,828.125 1250.98,826.409 1251.84,825.985 1265.42,819.432 1267.44,818.474 1282.41,811.452 1283.55,810.925 1293.47,805.607 1295.43,804.593 1296.04,804.28 1299.73,802.406 1302.12,801 1314.74,794.045 1321.86,790.366 1328.67,786.96 1337.87,782.484 1340.93,781.018 1345.76,778.722 1347.09,777.972 1355.22,773.571 1356.25,773.031 1357.94,772.151 1366.39,767.858 1370.78,765.689 1374.05,764.089 1374.84,763.707 1378.84,761.444 1390.85,754.187 1394.9,751.933 1395.59,751.551 1418.91,739.623 1422.1,737.803 1426.35,735.456 1437.83,729.436 1439.34,728.539 1459.54,717.556 1478.81,706.907 1481.6,705.476 1499.95,696.443 1512.01,690.727 1515.4,688.854 1524.31,684.128 1537.35,676.692 1543.38,673.504 1547.39,671.438 1549.59,670.327 1551.8,669.214 1557.18,666.555 1558.67,665.827 1563.25,663.606 1563.29,663.578 1568.2,660.428 1568.5,660.24 1569.61,659.459 1569.96,659.214 1572.81,657.274 1581.52,651.783 1594.04,644.72 1595.53,643.793 1600.35,640.897 1601.2,640.405 1642.72,619.139 1649.28,616.042 1655.09,613.319 1659.96,611.05 1662.98,609.649 1666.28,608.123 1669.04,606.847 1673.03,605.008 1686.47,598.832 1687.27,598.463 1699.13,593.037 1707.64,588.502 1710.24,587.159 1715.04,584.732 1728.27,578.248 1729.73,577.549 1737.44,573.883 1743.89,570.85 1760.17,563.287 1760.59,563.095 1762.27,562.317 1763.03,561.902 1764.83,560.915 1765.14,560.752 1767.12,559.689 1767.85,559.3 1772.4,556.915 1777.41,553.949 1778.99,553.043 1780.18,552.369 1780.2,552.356 1780.81,552.013 1780.83,552.007 1782.62,551.011 1791.16,546.439 1791.52,546.248 1814.77,533.41 1815.49,533.046 1833.07,524.389 1833.1,524.373 1849.98,515.323 1859.98,510.33 1865.56,507.17 1881.86,498.615 1903.7,488.01 1911.69,483.639 1922.41,478.108 1943.38,467.915 1947.88,465.792 1952.67,463.15 1954.16,462.351 1972.83,452.834 1981.9,448.442 1985.99,446.151 1986.62,445.746 1992.84,441.442 2006.7,433.006 2013.92,429.037 2030.91,420.349 2039.67,416.09 2041.7,415.118 2049.1,411.598 2054.02,409.285 2074,400.008 2074.18,399.924 2120.71,378.613 2123.34,377.409 2127.65,375.443 2131,373.915 2145.15,367.461 2158.61,361.324 2171.57,354.518 2182.2,349.244 2182.83,348.937 2183.62,348.557 2191.54,344.14 2193.01,343.348 2199.41,339.991 2200.04,339.668 2203.64,337.836 2205.87,336.715 2209.86,334.738 2217.81,330.865 2218.3,330.632 2219.34,330.037 2233.02,322.667 2240.8,318.727 2242.04,318.114 2245.79,316.267 2252.57,312.979 2254.51,311.879 2257.29,310.331 2268.81,303.42 2286.08,294.231 2299.46,287.624 2307.39,283.826 2310.34,282.424 2315.54,279.979 2320.05,277.869 2321.9,276.843 2329.02,273.026 2339.85,267.502 2344.99,264.968 2352.76,261.213 "/>
<polyline clip-path="url(#clip952)" style="stroke:#c271d2; stroke-linecap:round; stroke-linejoin:round; stroke-width:4; stroke-opacity:1; fill:none" points="140.696,1384.24 140.696,1384.24 168.881,1369.94 182.501,1363.47 213.982,1348.88 234.089,1339.67 245.089,1333.86 253.93,1328.75 264.497,1322.34 266.48,1321.21 269.599,1319.21 273.273,1316.64 273.748,1316.32 274.291,1315.95 276.718,1314.15 282.207,1310.31 337.081,1280.97 357.266,1271.53 404.848,1249.7 406.305,1249.03 409.409,1247.62 410.482,1247.13 418.435,1242.89 427.468,1237.62 434.48,1233.8 443.571,1228.41 461.969,1218.65 467.039,1215.7 470.789,1213.3 474.87,1210.46 483.361,1204.41 489.741,1200.34 491.41,1199.18 496.329,1195.51 502.025,1191.16 511.119,1185 514.51,1182.89 525.092,1176.01 528.143,1173.92 541.906,1165.48 555.142,1158.31 558.691,1156.18 570.191,1148.95 573.21,1147.2 579.303,1143.32 580.653,1142.38 582.737,1140.97 593.846,1134.04 604.805,1127.94 612.898,1123.1 616.845,1120.87 618.781,1119.64 623.414,1116.42 625.42,1115.09 628.39,1112.94 630.446,1111.5 631.512,1110.69 635.629,1107.66 639.566,1104.95 639.747,1104.83 642.115,1103.28 644.8,1101.35 657.265,1093.29 670.98,1085.59 671.292,1085.43 684.761,1078.53 686.135,1077.85 700.727,1070.78 704.801,1068.85 711.975,1065.48 715.475,1063.55 727.094,1056.63 749.013,1043.9 750.349,1043.19 753.285,1041.41 755.207,1040.28 765.38,1033.85 773.706,1029.09 777.154,1026.92 777.178,1026.9 787.923,1019.09 789.631,1017.97 792.17,1016.34 795.518,1013.99 799.147,1011.27 806.129,1006.47 810.17,1003.89 811.033,1003.28 828.736,991.102 833.592,988.227 835.548,987.107 835.906,986.904 837.028,986.173 838.877,984.991 843.664,982.052 850.774,977.949 853.408,976.267 855.784,974.59 856.773,973.911 864.85,968.08 872.858,962.335 884.662,954.966 888.646,952.352 891.353,950.42 892.361,949.722 893.779,948.758 897.1,946.292 902.557,942.079 918.61,930.535 924.679,926.816 926.798,925.39 930.655,922.9 954.24,909.625 960.57,906.41 995.536,889.678 996.21,889.304 997.278,888.715 1015.8,877.964 1083.59,845.374 1084.22,845.025 1096.21,837.864 1099.09,836.017 1108.54,830.372 1119.11,824.597 1124.86,821.622 1125.06,821.499 1130.06,818.574 1136.12,814.719 1150.88,806.3 1158.35,802.386 1174.28,793.431 1177.29,791.599 1191.6,782.605 1229.07,763.307 1238.52,758.123 1240.47,756.927 1241.35,756.396 1246.13,753.589 1247.52,752.797 1250.98,750.577 1251.84,750.038 1265.42,742.168 1267.44,741.073 1282.41,733.352 1283.55,732.788 1293.47,727.222 1295.43,726.171 1296.04,725.792 1299.73,723.556 1302.12,721.946 1314.74,714.213 1321.86,709.7 1328.67,705.711 1337.87,699.999 1340.93,697.963 1345.76,694.913 1347.09,693.981 1355.22,688.064 1356.25,687.277 1357.94,686.015 1366.39,680.196 1370.78,677.437 1374.05,675.465 1374.84,674.933 1378.84,671.977 1390.85,663.252 1394.9,660.321 1395.59,659.773 1418.91,644.437 1422.1,642.371 1426.35,639.748 1437.83,633.2 1439.34,632.252 1459.54,620.833 1478.81,610.015 1481.6,608.569 1499.95,599.475 1512.01,593.739 1515.4,591.862 1524.31,587.128 1537.35,579.686 1543.38,576.496 1547.39,574.428 1549.59,573.316 1551.8,572.203 1557.18,569.543 1558.67,568.815 1563.25,566.216 1563.29,566.185 1568.2,562.709 1568.5,562.475 1569.61,561.534 1569.96,561.24 1572.81,558.928 1581.52,552.555 1594.04,544.703 1595.53,543.708 1600.35,540.622 1601.2,540.1 1642.72,516.486 1649.28,513.28 1655.09,510.484 1659.96,507.768 1662.98,505.879 1666.28,503.889 1669.04,502.039 1673.03,499.154 1686.47,490.564 1687.27,490.092 1699.13,483.509 1707.64,478.452 1710.24,476.762 1715.04,473.793 1728.27,466.3 1729.73,465.522 1737.44,461.515 1743.89,457.766 1760.17,448.048 1760.59,447.819 1762.27,446.75 1763.03,446.212 1764.83,444.788 1765.14,444.556 1767.12,443.059 1767.85,442.453 1772.4,438.496 1777.41,434.137 1778.99,432.713 1780.18,431.674 1780.2,431.651 1780.81,431.073 1780.83,431.062 1782.62,429.258 1791.16,421.61 1791.52,421.312 1814.77,404.291 1815.49,403.855 1833.07,394.002 1833.1,393.984 1849.98,384.409 1859.98,378.514 1865.56,375.002 1881.86,364.756 1903.7,351.908 1911.69,347.132 1922.41,341.244 1943.38,330.7 1947.88,328.164 1952.67,325.166 1954.16,324.141 1972.83,312.763 1981.9,307.218 1985.99,304.543 1986.62,304.084 1992.84,299.331 2006.7,290.248 2013.92,286.072 2030.91,277.096 2039.67,272.756 2041.7,271.592 2049.1,267.505 2054.02,264.506 2074,253.587 2074.18,253.493 2120.71,231.205 2123.34,229.986 2127.65,227.998 2131,226.456 2145.15,219.008 2158.61,211.445 2171.57,203.883 2182.2,198.247 2182.83,197.866 2183.62,197.328 2191.54,191.589 2193.01,190.599 2199.41,186.519 2200.04,186.08 2203.64,183.639 2205.87,182.187 2209.86,179.697 2217.81,174.428 2218.3,174.125 2219.34,173.385 2233.02,163.693 2240.8,158.949 2242.04,158.232 2245.79,155.788 2252.57,151.115 2254.51,149.692 2257.29,147.486 2268.81,138.585 2286.08,127.815 2299.46,120.6 2307.39,115.975 2310.34,114.08 2315.54,110.914 2320.05,108.3 2321.9,107.095 2329.02,102.16 2339.85,94.713 2344.99,91.129 2352.76,86.1857 "/>
<polyline clip-path="url(#clip952)" style="stroke:#ac8d18; stroke-linecap:round; stroke-linejoin:round; stroke-width:4; stroke-opacity:1; fill:none" points="140.696,1384.24 140.696,1384.24 168.881,1371.39 182.501,1365.18 213.982,1350.83 234.089,1341.67 245.089,1336.65 253.93,1332.62 264.497,1327.8 266.48,1326.9 269.599,1325.48 273.273,1323.8 273.748,1323.59 274.291,1323.29 276.718,1321.98 282.207,1319.09 337.081,1292.81 357.266,1283.54 404.848,1261.81 406.305,1261.15 409.409,1259.73 410.482,1259.15 418.435,1254.33 427.468,1249.29 434.48,1245.6 443.571,1241 461.969,1230.97 467.039,1228.4 470.789,1226.54 474.87,1224.19 483.361,1219.56 489.741,1216.25 491.41,1215.4 496.329,1212.93 502.025,1210.13 511.119,1205.75 514.51,1204.13 525.092,1199.16 528.143,1197.74 541.906,1191.36 555.142,1185.28 558.691,1183.65 570.191,1178.39 573.21,1176.75 579.303,1173.54 580.653,1172.84 582.737,1171.78 593.846,1165.46 604.805,1159.71 612.898,1155.66 616.845,1153.4 618.781,1152.32 623.414,1149.41 625.42,1148.2 628.39,1146.46 630.446,1145.28 631.512,1144.68 635.629,1142.4 639.566,1140.29 639.747,1140.18 642.115,1138.73 644.8,1137.13 657.265,1129.34 670.98,1121.79 671.292,1121.63 684.761,1114.81 686.135,1114.14 700.727,1107.12 704.801,1105.19 711.975,1101.83 715.475,1100.2 727.094,1094.82 749.013,1084.76 750.349,1084.15 753.285,1082.8 755.207,1081.92 765.38,1076.53 773.706,1072.33 777.154,1070.63 777.178,1070.62 787.923,1065.42 789.631,1064.61 792.17,1063.41 795.518,1061.83 799.147,1059.82 806.129,1056.09 810.17,1054.01 811.033,1053.57 828.736,1044.86 833.592,1042.54 835.548,1041.44 835.906,1041.24 837.028,1040.52 838.877,1039.36 843.664,1036.46 850.774,1032.4 853.408,1030.96 855.784,1029.48 856.773,1028.87 864.85,1024.15 872.858,1019.79 884.662,1012.9 888.646,1010.73 891.353,1009.29 892.361,1008.76 893.779,1008.02 897.1,1006.31 902.557,1003.55 918.61,995.742 924.679,992.864 926.798,991.682 930.655,989.579 954.24,977.641 960.57,974.6 995.536,958.288 996.21,957.978 997.278,957.486 1015.8,947.85 1083.59,916.074 1084.22,915.784 1096.21,910.303 1099.09,908.988 1108.54,904.673 1119.11,899.848 1124.86,896.766 1125.06,896.658 1130.06,894.065 1136.12,891.007 1150.88,883.821 1158.35,879.702 1174.28,871.521 1177.29,869.782 1191.6,862.055 1229.07,843.895 1238.52,839.503 1240.47,838.601 1241.35,838.195 1246.13,835.988 1247.52,835.348 1250.98,833.756 1251.84,833.36 1265.42,827.132 1267.44,826.208 1282.41,819.358 1283.55,818.739 1293.47,813.518 1295.43,812.349 1296.04,811.989 1299.73,809.863 1302.12,808.521 1314.74,801.811 1321.86,797.664 1328.67,793.931 1337.87,789.147 1340.93,787.604 1345.76,785.206 1347.09,784.549 1355.22,780.611 1356.25,780.118 1357.94,779.163 1366.39,774.569 1370.78,772.285 1374.05,770.611 1374.84,770.213 1378.84,768.211 1390.85,762.351 1394.9,760.42 1395.59,760.089 1418.91,749.181 1422.1,747.705 1426.35,745.747 1437.83,740.469 1439.34,739.777 1459.54,730.534 1478.81,721.738 1481.6,720.466 1499.95,712.096 1512.01,706.597 1515.4,705.052 1524.31,700.987 1537.35,695.042 1543.38,691.816 1547.39,689.73 1549.59,688.609 1551.8,687.295 1557.18,684.224 1558.67,683.399 1563.25,680.539 1563.29,680.509 1568.2,677.609 1568.5,677.407 1569.61,676.676 1569.96,676.447 1572.81,674.622 1581.52,669.405 1594.04,662.587 1595.53,661.812 1600.35,658.95 1601.2,658.387 1642.72,633.876 1649.28,630.111 1655.09,626.474 1659.96,623.604 1662.98,621.634 1666.28,619.288 1669.04,617.416 1673.03,614.835 1686.47,606.948 1687.27,606.506 1699.13,600.26 1707.64,595.999 1710.24,594.722 1715.04,592.003 1728.27,584.976 1729.73,584.106 1737.44,579.701 1743.89,576.221 1760.17,567.966 1760.59,567.763 1762.27,566.939 1763.03,566.572 1764.83,565.536 1765.14,565.338 1767.12,563.883 1767.85,563.357 1772.4,559.844 1777.41,556.286 1778.99,555.219 1780.18,554.432 1780.2,554.416 1780.81,554.017 1780.83,554.009 1782.62,552.859 1791.16,547.696 1791.52,547.485 1814.77,535.157 1815.49,534.801 1833.07,526.29 1833.1,526.276 1849.98,518.366 1859.98,513.736 1865.56,511.167 1881.86,502.636 1903.7,492.044 1911.69,488.287 1922.41,482.524 1943.38,470.866 1947.88,468.201 1952.67,465.484 1954.16,464.534 1972.83,452.624 1981.9,447.624 1985.99,445.471 1986.62,445.142 1992.84,441.973 2006.7,434.23 2013.92,430.482 2030.91,422.102 2039.67,417.931 2041.7,416.974 2049.1,413.501 2054.02,411.212 2074,401.991 2074.18,401.907 2120.71,380.63 2123.34,379.426 2127.65,377.46 2131,375.933 2145.15,369.48 2158.61,363.344 2171.57,357.434 2182.2,352.589 2182.83,352.301 2183.62,351.874 2191.54,347.675 2193.01,346.916 2199.41,343.678 2200.04,343.308 2203.64,341.233 2205.87,339.981 2209.86,337.8 2217.81,333.613 2218.3,333.364 2219.34,332.829 2233.02,326.035 2240.8,321.697 2242.04,321.032 2245.79,319.045 2252.57,315.557 2254.51,314.581 2257.29,313.191 2268.81,307.578 2286.08,299.42 2299.46,293.209 2307.39,289.555 2310.34,288.195 2315.54,285.811 2320.05,283.743 2321.9,282.894 2329.02,279.636 2339.85,274.682 2344.99,272.335 2352.76,268.195 "/>
<polyline clip-path="url(#clip952)" style="stroke:#00a9ad; stroke-linecap:round; stroke-linejoin:round; stroke-width:4; stroke-opacity:1; fill:none" points="140.696,1384.24 140.696,1384.24 168.881,1369.94 182.501,1363.47 213.982,1348.88 234.089,1339.67 245.089,1333.86 253.93,1329.42 264.497,1324.28 266.48,1323.33 269.599,1321.85 273.273,1320.11 273.748,1319.89 274.291,1319.63 276.718,1318.49 282.207,1315.92 337.081,1290.7 357.266,1281.48 404.848,1259.79 406.305,1258.99 409.409,1257.07 410.482,1256.42 418.435,1251.81 427.468,1246.26 434.48,1242.29 443.571,1236.77 461.969,1226.85 467.039,1224.3 470.789,1222.44 474.87,1220.45 483.361,1215.72 489.741,1212.36 491.41,1211.35 496.329,1208.48 502.025,1205.31 511.119,1200.51 514.51,1198.78 525.092,1192.77 528.143,1190.87 541.906,1183 555.142,1176.13 558.691,1174.36 570.191,1168.77 573.21,1167.32 579.303,1164.44 580.653,1163.8 582.737,1162.64 593.846,1156.74 604.805,1150.45 612.898,1146.14 616.845,1144.11 618.781,1142.96 623.414,1140.3 625.42,1139 628.39,1137.15 630.446,1135.72 631.512,1134.9 635.629,1131.88 639.566,1129.18 639.747,1129.06 642.115,1127.51 644.8,1125.81 657.265,1118.54 670.98,1110.38 671.292,1110.21 684.761,1103.07 686.135,1102.25 700.727,1094.14 704.801,1092.02 711.975,1088.39 715.475,1086.66 727.094,1081.03 749.013,1069.47 750.349,1068.81 753.285,1067.11 755.207,1065.86 765.38,1059.68 773.706,1055.06 777.154,1052.94 777.178,1052.92 787.923,1046.76 789.631,1045.83 792.17,1044.47 795.518,1042.72 799.147,1040.84 806.129,1036.79 810.17,1034.55 811.033,1034.08 828.736,1024.97 833.592,1022.59 835.548,1021.64 835.906,1021.47 837.028,1020.92 838.877,1020.03 843.664,1017.36 850.774,1013.55 853.408,1011.95 855.784,1010.55 856.773,1009.98 864.85,1005.48 872.858,1001.26 884.662,995.346 888.646,993.071 891.353,991.57 892.361,991.019 893.779,990.126 897.1,987.81 902.557,983.8 918.61,972.628 924.679,968.993 926.798,967.776 930.655,965.618 954.24,952.164 960.57,948.925 995.536,930.533 996.21,930.207 997.278,929.691 1015.8,920.915 1083.59,889.768 1084.22,889.479 1096.21,883.167 1099.09,881.71 1108.54,877.041 1119.11,871.964 1124.86,869.249 1125.06,869.153 1130.06,866.809 1136.12,863.502 1150.88,855.932 1158.35,852.274 1174.28,844.684 1177.29,843.273 1191.6,835.657 1229.07,817.598 1238.52,813.213 1240.47,812.143 1241.35,811.665 1246.13,809.116 1247.52,808.388 1250.98,806.604 1251.84,806.087 1265.42,798.466 1267.44,797.397 1282.41,789.808 1283.55,789.251 1293.47,783.731 1295.43,782.688 1296.04,782.366 1299.73,780.442 1302.12,779.215 1314.74,772.943 1321.86,769.509 1328.67,765.739 1337.87,760.233 1340.93,758.249 1345.76,755.267 1347.09,754.47 1355.22,749.838 1356.25,749.274 1357.94,748.357 1366.39,743.919 1370.78,741.694 1374.05,740.057 1374.84,739.598 1378.84,736.977 1390.85,729.809 1394.9,727.239 1395.59,726.746 1418.91,712.546 1422.1,710.833 1426.35,708.608 1437.83,702.82 1439.34,702.078 1459.54,692.415 1478.81,683.455 1481.6,682.168 1499.95,673.74 1512.01,668.221 1515.4,666.673 1524.31,662.6 1537.35,656.648 1543.38,653.901 1547.39,652.069 1549.59,651.069 1551.8,650.058 1557.18,647.606 1558.67,646.928 1563.25,644.839 1563.29,644.813 1568.2,641.777 1568.5,641.595 1569.61,640.836 1569.96,640.598 1572.81,638.709 1581.52,632.683 1594.04,625.141 1595.53,624.172 1600.35,621.161 1601.2,620.651 1642.72,598.998 1649.28,595.883 1655.09,593.148 1659.96,590.871 1662.98,589.466 1666.28,587.935 1669.04,586.657 1673.03,584.815 1686.47,578.631 1687.27,578.261 1699.13,572.831 1707.64,568.938 1710.24,567.748 1715.04,565.558 1728.27,559.516 1729.73,558.852 1737.44,554.741 1743.89,551.438 1760.17,543.459 1760.59,543.26 1762.27,542.306 1763.03,541.885 1764.83,540.883 1765.14,540.717 1767.12,539.639 1767.85,539.244 1772.4,536.83 1777.41,533.839 1778.99,532.926 1780.18,532.142 1780.2,532.124 1780.81,531.617 1780.83,531.607 1782.62,530 1791.16,523.099 1791.52,522.794 1814.77,506.811 1815.49,506.393 1833.07,496.836 1833.1,496.821 1849.98,488.452 1859.98,482.941 1865.56,480.028 1881.86,471.925 1903.7,460.314 1911.69,455.761 1922.41,450.069 1943.38,439.719 1947.88,437.578 1952.67,435.313 1954.16,434.615 1972.83,425.93 1981.9,421.749 1985.99,419.529 1986.62,419.19 1992.84,415.449 2006.7,407.821 2013.92,403.549 2030.91,394.44 2039.67,389.402 2041.7,388.289 2049.1,384.352 2054.02,381.831 2074,372.054 2074.18,371.967 2120.71,350.359 2123.34,349.15 2127.65,347.177 2131,345.645 2145.15,338.225 2158.61,330.676 2171.57,323.122 2182.2,317.489 2182.83,317.165 2183.62,316.765 2191.54,312.792 2193.01,312.066 2199.41,308.951 2200.04,308.648 2203.64,306.921 2205.87,305.858 2209.86,303.637 2217.81,299.391 2218.3,299.139 2219.34,298.506 2233.02,290.764 2240.8,286.695 2242.04,286.065 2245.79,283.858 2252.57,280.056 2254.51,279.006 2257.29,277.282 2268.81,269.84 2286.08,260.229 2299.46,253.459 2307.39,249.603 2310.34,247.932 2315.54,244.67 2320.05,241.619 2321.9,240.258 2329.02,234.831 2339.85,227.665 2344.99,224.591 2352.76,220.225 "/>
<polyline clip-path="url(#clip952)" style="stroke:#ed5d92; stroke-linecap:round; stroke-linejoin:round; stroke-width:4; stroke-opacity:1; fill:none" points="140.696,1384.24 140.696,1384.24 168.881,1371.39 182.501,1365.18 213.982,1350.83 234.089,1341.67 245.089,1336.65 253.93,1332.62 264.497,1327.04 266.48,1326.03 269.599,1324.45 273.273,1322.32 273.748,1322.05 274.291,1321.74 276.718,1320.17 282.207,1316.79 337.081,1288.92 357.266,1279.56 404.848,1257.78 406.305,1256.98 409.409,1255.06 410.482,1254.41 418.435,1249.8 427.468,1244.25 434.48,1240.28 443.571,1235.43 461.969,1226.27 467.039,1223.83 470.789,1222.05 474.87,1220.12 483.361,1215.5 489.741,1212.19 491.41,1211.34 496.329,1208.47 502.025,1205.31 511.119,1200.51 514.51,1198.78 525.092,1193.53 528.143,1191.8 541.906,1184.43 555.142,1177.83 558.691,1176.11 570.191,1169.8 573.21,1168.23 579.303,1164.64 580.653,1163.87 582.737,1162.53 593.846,1155.87 604.805,1149.13 612.898,1143.99 616.845,1141.65 618.781,1140.54 623.414,1137.95 625.42,1136.69 628.39,1134.87 630.446,1133.46 631.512,1132.65 635.629,1129.67 639.566,1127 639.747,1126.88 642.115,1125.35 644.8,1123.66 657.265,1116.44 670.98,1108.32 671.292,1108.15 684.761,1101.03 686.135,1100.21 700.727,1092.11 704.801,1089.99 711.975,1086.36 715.475,1084.63 727.094,1078.18 749.013,1067.14 750.349,1066.5 753.285,1064.84 755.207,1063.6 765.38,1057.51 773.706,1052.94 777.154,1050.83 777.178,1050.81 787.923,1043.91 789.631,1042.9 792.17,1041.42 795.518,1039.52 799.147,1037.52 806.129,1033.27 810.17,1030.95 811.033,1030.46 828.736,1020.01 833.592,1017.41 835.548,1016.38 835.906,1016.2 837.028,1015.62 838.877,1014.67 843.664,1011.85 850.774,1007.89 853.408,1006.48 855.784,1005.22 856.773,1004.71 864.85,999.963 872.858,994.969 884.662,988.313 888.646,986.198 891.353,984.557 892.361,983.959 893.779,983.002 897.1,980.553 902.557,976.361 918.61,964.857 924.679,961.147 926.798,959.908 930.655,957.715 954.24,944.142 960.57,940.887 995.536,922.458 996.21,922.071 997.278,921.462 1015.8,911.624 1083.59,879.701 1084.22,879.41 1096.21,873.927 1099.09,872.611 1108.54,868.294 1119.11,863.468 1124.86,860.847 1125.06,860.735 1130.06,858.05 1136.12,854.905 1150.88,847.584 1158.35,844.001 1174.28,835.471 1177.29,833.947 1191.6,825.96 1229.07,807.567 1238.52,803.156 1240.47,802.252 1241.35,801.845 1246.13,799.632 1247.52,798.99 1250.98,797.103 1251.84,796.563 1265.42,788.675 1267.44,787.579 1282.41,779.848 1283.55,779.284 1293.47,773.714 1295.43,772.663 1296.04,772.284 1299.73,770.047 1302.12,768.643 1314.74,761.696 1321.86,758.02 1328.67,754.081 1337.87,749.102 1340.93,747.511 1345.76,745.048 1347.09,744.376 1355.22,739.74 1356.25,739.085 1357.94,738.026 1366.39,733.018 1370.78,730.573 1374.05,728.798 1374.84,728.379 1378.84,725.942 1390.85,719.163 1394.9,717.019 1395.59,716.655 1418.91,705.076 1422.1,703.552 1426.35,701.539 1437.83,696.157 1439.34,695.455 1459.54,686.126 1478.81,677.297 1481.6,676.021 1499.95,667.64 1512.01,662.136 1515.4,660.592 1524.31,656.524 1537.35,650.578 1543.38,647.833 1547.39,646.001 1549.59,645.001 1551.8,643.991 1557.18,641.54 1558.67,640.862 1563.25,638.773 1563.29,638.747 1568.2,635.712 1568.5,635.53 1569.61,634.771 1569.96,634.533 1572.81,632.644 1581.52,626.618 1594.04,619.076 1595.53,618.108 1600.35,615.097 1601.2,614.587 1642.72,592.934 1649.28,589.819 1655.09,587.085 1659.96,584.409 1662.98,582.797 1666.28,581.071 1669.04,579.413 1673.03,576.767 1686.47,568.728 1687.27,568.279 1699.13,561.961 1707.64,557.667 1710.24,556.158 1715.04,553.471 1728.27,546.503 1729.73,545.766 1737.44,541.343 1743.89,537.341 1760.17,527.232 1760.59,526.997 1762.27,526.05 1763.03,525.631 1764.83,524.636 1765.14,524.472 1767.12,523.4 1767.85,522.942 1772.4,520.177 1777.41,516.875 1778.99,515.738 1780.18,514.796 1780.2,514.778 1780.81,514.248 1780.83,514.237 1782.62,512.723 1791.16,506.176 1791.52,505.883 1814.77,490.382 1815.49,489.972 1833.07,480.553 1833.1,480.538 1849.98,472.229 1859.98,467.472 1865.56,464.853 1881.86,457.284 1903.7,447.248 1911.69,442.979 1922.41,437.539 1943.38,427.436 1947.88,425.323 1952.67,423.083 1954.16,422.392 1972.83,413.761 1981.9,408.916 1985.99,406.474 1986.62,406.104 1992.84,402.104 2006.7,394.103 2013.92,389.711 2030.91,380.436 2039.67,375.351 2041.7,374.053 2049.1,369.567 2054.02,366.368 2074,354.971 2074.18,354.875 2120.71,332.303 2123.34,331.079 2127.65,329.085 2131,327.539 2145.15,321.032 2158.61,314.869 2171.57,308.049 2182.2,302.769 2182.83,302.404 2183.62,301.955 2191.54,297.573 2193.01,296.787 2199.41,293.448 2200.04,293.127 2203.64,291.303 2205.87,290.186 2209.86,287.884 2217.81,282.903 2218.3,282.614 2219.34,281.904 2233.02,272.5 2240.8,267.855 2242.04,267.15 2245.79,265.056 2252.57,260.883 2254.51,259.745 2257.29,258.148 2268.81,251.088 2286.08,241.781 2299.46,235.128 2307.39,230.707 2310.34,229.124 2315.54,225.991 2320.05,223.029 2321.9,221.7 2329.02,216.93 2339.85,209.652 2344.99,206.123 2352.76,201.242 "/>
<polyline clip-path="url(#clip952)" style="stroke:#c68125; stroke-linecap:round; stroke-linejoin:round; stroke-width:4; stroke-opacity:1; fill:none" points="140.696,1384.24 140.696,1384.24 168.881,1371.39 182.501,1364.25 213.982,1347.54 234.089,1336.72 245.089,1331.27 253.93,1327.02 264.497,1322.03 266.48,1320.92 269.599,1319.23 273.273,1317.27 273.748,1316.98 274.291,1316.65 276.718,1315.19 282.207,1311.57 337.081,1281.07 357.266,1270.36 404.848,1245.99 406.305,1245.31 409.409,1243.85 410.482,1243.34 418.435,1239.64 427.468,1235.45 434.48,1231.68 443.571,1227 461.969,1218.03 467.039,1215.63 470.789,1213.86 474.87,1211.95 483.361,1208 489.741,1204.54 491.41,1203.66 496.329,1201.12 502.025,1198.24 511.119,1193.78 514.51,1192.15 525.092,1187.12 528.143,1185.68 541.906,1178.34 555.142,1170.84 558.691,1168.96 570.191,1163.09 573.21,1161.6 579.303,1158.63 580.653,1157.98 582.737,1156.98 593.846,1151.71 604.805,1146.6 612.898,1142.85 616.845,1141.03 618.781,1140.14 623.414,1138 625.42,1137.08 628.39,1135.72 630.446,1134.78 631.512,1134.29 635.629,1132.4 639.566,1130.27 639.747,1130.17 642.115,1128.92 644.8,1127.52 657.265,1121.25 670.98,1114.64 671.292,1114.49 684.761,1108.16 686.135,1107.52 700.727,1099.79 704.801,1097.4 711.975,1092.84 715.475,1090.76 727.094,1084.28 749.013,1073.22 750.349,1072.46 753.285,1070.81 755.207,1069.75 765.38,1064.37 773.706,1060.18 777.154,1058.48 777.178,1058.47 787.923,1053.29 789.631,1052.32 792.17,1050.7 795.518,1048.63 799.147,1046.48 806.129,1042.54 810.17,1040.02 811.033,1039.49 828.736,1029.63 833.592,1026.73 835.548,1025.6 835.906,1025.36 837.028,1024.63 838.877,1023.44 843.664,1020.49 850.774,1016.38 853.408,1014.92 855.784,1013.63 856.773,1013.01 864.85,1008.2 872.858,1003.77 884.662,997.654 888.646,995.665 891.353,994.33 892.361,993.746 893.779,992.934 897.1,991.072 902.557,988.113 918.61,979.926 924.679,976.963 926.798,975.941 930.655,974.092 954.24,963.03 960.57,959.602 995.536,942.36 996.21,942.043 997.278,941.445 1015.8,931.736 1083.59,897.981 1084.22,897.688 1096.21,892.168 1099.09,890.846 1108.54,885.812 1119.11,879.708 1124.86,876.609 1125.06,876.501 1130.06,873.489 1136.12,870.035 1150.88,861.254 1158.35,857.23 1174.28,849.171 1177.29,847.704 1191.6,840.864 1229.07,821.855 1238.52,817.395 1240.47,816.483 1241.35,816.073 1246.13,813.452 1247.52,812.584 1250.98,810.486 1251.84,809.975 1265.42,802.424 1267.44,801.362 1282.41,792.818 1283.55,792.212 1293.47,787.082 1295.43,786.097 1296.04,785.792 1299.73,783.963 1302.12,782.789 1314.74,775.843 1321.86,772.167 1328.67,768.763 1337.87,764.289 1340.93,762.824 1345.76,760.133 1347.09,759.406 1355.22,755.12 1356.25,754.592 1357.94,753.73 1366.39,748.869 1370.78,746.481 1374.05,744.465 1374.84,743.993 1378.84,741.647 1390.85,735.062 1394.9,732.964 1395.59,732.606 1418.91,719.854 1422.1,718.245 1426.35,715.784 1437.83,708.729 1439.34,707.865 1459.54,695.95 1478.81,686.11 1481.6,684.51 1499.95,673.626 1512.01,667.306 1515.4,665.601 1524.31,661.213 1537.35,654.98 1543.38,652.149 1547.39,649.937 1549.59,648.757 1551.8,647.581 1557.18,644.357 1558.67,643.496 1563.25,640.916 1563.29,640.889 1568.2,638.231 1568.5,638.069 1569.61,637.482 1569.96,637.265 1572.81,635.291 1581.52,629.718 1594.04,621.711 1595.53,620.834 1600.35,618.081 1601.2,617.61 1642.72,596.82 1649.28,593.745 1655.09,591.037 1659.96,588.777 1662.98,587.382 1666.28,585.859 1669.04,584.588 1673.03,582.753 1686.47,576.587 1687.27,576.218 1699.13,570.797 1707.64,566.908 1710.24,565.719 1715.04,563.53 1728.27,557.491 1729.73,556.827 1737.44,553.31 1743.89,550.369 1760.17,542.946 1760.59,542.719 1762.27,541.804 1763.03,541.4 1764.83,540.436 1765.14,540.276 1767.12,539.236 1767.85,538.854 1772.4,536.512 1777.41,533.994 1778.99,533.209 1780.18,532.622 1780.2,532.61 1780.81,532.309 1780.83,532.302 1782.62,531.268 1791.16,525.899 1791.52,525.681 1814.77,513.074 1815.49,512.65 1833.07,501.88 1833.1,501.864 1849.98,492.961 1859.98,488.015 1865.56,485.322 1881.86,477.619 1903.7,467.505 1911.69,463.834 1922.41,458.922 1943.38,449.338 1947.88,447.286 1952.67,445.098 1954.16,444.421 1972.83,435.906 1981.9,431.769 1985.99,429.904 1986.62,429.614 1992.84,426.783 2006.7,420.463 2013.92,417.171 2030.91,408.343 2039.67,404.045 2041.7,403.065 2049.1,398.949 2054.02,396.339 2074,385.147 2074.18,385.036 2120.71,360.827 2123.34,359.578 2127.65,357.191 2131,355.105 2145.15,347.035 2158.61,340.076 2171.57,333.729 2182.2,327.905 2182.83,327.573 2183.62,327.162 2191.54,323.101 2193.01,322.363 2199.41,319.199 2200.04,318.892 2203.64,316.842 2205.87,315.602 2209.86,313.441 2217.81,309.286 2218.3,309.038 2219.34,308.507 2233.02,301.744 2240.8,298.015 2242.04,297.319 2245.79,295.248 2252.57,291.64 2254.51,290.635 2257.29,289.208 2268.81,283.485 2286.08,274.146 2299.46,266.565 2307.39,262.414 2310.34,260.91 2315.54,258.315 2320.05,256.1 2321.9,255.198 2329.02,251.775 2339.85,246.653 2344.99,244.251 2352.76,240.645 "/>
<polyline clip-path="url(#clip952)" style="stroke:#00a98d; stroke-linecap:round; stroke-linejoin:round; stroke-width:4; stroke-opacity:1; fill:none" points="140.696,1384.24 140.696,1384.24 168.881,1369.94 182.501,1363.47 213.982,1348.88 234.089,1339.67 245.089,1333.86 253.93,1329.42 264.497,1323.52 266.48,1322.46 269.599,1320.83 273.273,1318.63 273.748,1318.35 274.291,1318.03 276.718,1316.43 282.207,1312.98 337.081,1284.9 357.266,1275.53 404.848,1253.74 406.305,1252.94 409.409,1251.01 410.482,1250.36 418.435,1245.15 427.468,1239.8 434.48,1235.94 443.571,1230.51 461.969,1220.7 467.039,1218.17 470.789,1216.32 474.87,1214 483.361,1209.39 489.741,1206.09 491.41,1205.1 496.329,1201.87 502.025,1198.37 511.119,1193.18 514.51,1191.35 525.092,1185.09 528.143,1183.39 541.906,1176.18 555.142,1169.65 558.691,1167.94 570.191,1161.67 573.21,1160.1 579.303,1156.52 580.653,1155.76 582.737,1154.41 593.846,1147.77 604.805,1141.04 612.898,1135.9 616.845,1133.56 618.781,1132.28 623.414,1128.96 625.42,1127.43 628.39,1125.25 630.446,1123.62 631.512,1122.8 635.629,1119.78 639.566,1117.07 639.747,1116.95 642.115,1115.4 644.8,1113.7 657.265,1106.42 670.98,1098.26 671.292,1098.08 684.761,1090.94 686.135,1090.12 700.727,1082.01 704.801,1079.89 711.975,1076.26 715.475,1074.53 727.094,1068.08 749.013,1055.77 750.349,1055.08 753.285,1053.58 755.207,1052.44 765.38,1046 773.706,1041.23 777.154,1039.35 777.178,1039.34 787.923,1032.96 789.631,1032.01 792.17,1030.61 795.518,1028.81 799.147,1026.6 806.129,1022.02 810.17,1019.55 811.033,1019.04 828.736,1008.2 833.592,1005.54 835.548,1004.49 835.906,1004.3 837.028,1003.61 838.877,1002.49 843.664,999.291 850.774,994.895 853.408,993.126 855.784,991.379 856.773,990.672 864.85,984.66 872.858,978.79 884.662,971.304 888.646,968.662 891.353,966.714 892.361,966.01 893.779,964.913 897.1,962.45 902.557,958.681 918.61,948.996 924.679,945.696 926.798,944.392 930.655,942.095 954.24,928.163 960.57,924.861 995.536,906.318 996.21,905.93 997.278,905.32 1015.8,894.322 1083.59,861.552 1084.22,861.26 1096.21,854.916 1099.09,853.454 1108.54,848.771 1119.11,843.684 1124.86,840.966 1125.06,840.85 1130.06,838.099 1136.12,834.408 1150.88,826.243 1158.35,822.405 1174.28,813.549 1177.29,811.729 1191.6,803.735 1229.07,785.336 1238.52,780.925 1240.47,779.85 1241.35,779.371 1246.13,776.813 1247.52,776.083 1250.98,774.002 1251.84,773.418 1265.42,765.023 1267.44,763.874 1282.41,755.874 1283.55,755.296 1293.47,750.359 1295.43,749.403 1296.04,749.052 1299.73,746.968 1302.12,745.651 1314.74,739.033 1321.86,734.92 1328.67,730.675 1337.87,724.722 1340.93,722.626 1345.76,719.496 1347.09,718.663 1355.22,713.234 1356.25,712.498 1357.94,711.313 1366.39,705.803 1370.78,703.165 1374.05,701.268 1374.84,700.752 1378.84,698.204 1390.85,691.191 1394.9,688.657 1395.59,688.17 1418.91,674.083 1422.1,672.379 1426.35,670.162 1437.83,664.392 1439.34,663.652 1459.54,654.003 1478.81,645.049 1481.6,643.763 1499.95,635.337 1512.01,629.818 1515.4,628.27 1524.31,624.197 1537.35,618.246 1543.38,615.499 1547.39,613.667 1549.59,612.667 1551.8,611.655 1557.18,609.204 1558.67,608.526 1563.25,606.059 1563.29,606.034 1568.2,603.474 1568.5,603.29 1569.61,602.625 1569.96,602.416 1572.81,600.745 1581.52,595.233 1594.04,588.152 1595.53,587.354 1600.35,584.824 1601.2,584.388 1642.72,562.635 1649.28,559.515 1655.09,556.778 1659.96,554.1 1662.98,552.23 1666.28,550.258 1669.04,548.422 1673.03,545.554 1686.47,537.004 1687.27,536.533 1699.13,529.969 1707.64,525.565 1710.24,524.03 1715.04,521.301 1728.27,514.257 1729.73,513.514 1737.44,509.066 1743.89,505.048 1760.17,494.916 1760.59,494.68 1762.27,493.583 1763.03,493.102 1764.83,491.804 1765.14,491.592 1767.12,490.221 1767.85,489.659 1772.4,485.944 1777.41,482.208 1778.99,480.953 1780.18,479.927 1780.2,479.905 1780.81,479.279 1780.83,479.267 1782.62,477.33 1791.16,469.175 1791.52,468.827 1814.77,451.138 1815.49,450.691 1833.07,440.647 1833.1,440.631 1849.98,432.047 1859.98,426.468 1865.56,423.529 1881.86,414.325 1903.7,402.079 1911.69,398.023 1922.41,392.771 1943.38,382.853 1947.88,380.39 1952.67,377.848 1954.16,376.945 1972.83,366.573 1981.9,361.284 1985.99,359.035 1986.62,358.692 1992.84,355.411 2006.7,348.446 2013.92,344.385 2030.91,335.57 2039.67,330.616 2041.7,329.342 2049.1,324.925 2054.02,321.762 2074,310.448 2074.18,310.353 2120.71,287.83 2123.34,286.608 2127.65,284.614 2131,283.069 2145.15,275.611 2158.61,268.044 2171.57,261.374 2182.2,256.165 2182.83,255.804 2183.62,255.289 2191.54,250.353 2193.01,249.484 2199.41,245.843 2200.04,245.44 2203.64,243.19 2205.87,241.842 2209.86,239.181 2217.81,233.65 2218.3,233.333 2219.34,232.658 2233.02,223.594 2240.8,219.067 2242.04,218.377 2245.79,216.01 2252.57,211.446 2254.51,210.217 2257.29,208.263 2268.81,200.942 2286.08,191.428 2299.46,184.695 2307.39,180.245 2310.34,178.401 2315.54,174.887 2320.05,171.659 2321.9,170.397 2329.02,165.284 2339.85,157.656 2344.99,154.013 2352.76,149.002 "/>
<polyline clip-path="url(#clip952)" style="stroke:#8e971d; stroke-linecap:round; stroke-linejoin:round; stroke-width:4; stroke-opacity:1; fill:none" points="140.696,1384.24 140.696,1384.24 168.881,1371.39 182.501,1364.25 213.982,1347.54 234.089,1336.72 245.089,1331.27 253.93,1327.02 264.497,1322.03 266.48,1320.92 269.599,1319.23 273.273,1317.27 273.748,1316.98 274.291,1316.65 276.718,1315.19 282.207,1311.57 337.081,1281.07 357.266,1270.36 404.848,1245.99 406.305,1245.31 409.409,1243.85 410.482,1243.34 418.435,1239.64 427.468,1235.45 434.48,1231.68 443.571,1227 461.969,1218.03 467.039,1215.63 470.789,1213.86 474.87,1211.95 483.361,1208 489.741,1204.54 491.41,1203.66 496.329,1201.12 502.025,1198.24 511.119,1193.1 514.51,1190.99 525.092,1184.87 528.143,1183.2 541.906,1175.14 555.142,1167.26 558.691,1165.31 570.191,1159.29 573.21,1157.76 579.303,1154.75 580.653,1154.09 582.737,1153.07 593.846,1147.75 604.805,1142.6 612.898,1138.84 616.845,1137.01 618.781,1136.12 623.414,1133.98 625.42,1133.06 628.39,1131.69 630.446,1130.75 631.512,1130.26 635.629,1128.03 639.566,1125.62 639.747,1125.51 642.115,1123.91 644.8,1122.16 657.265,1114.72 670.98,1107.39 671.292,1107.2 684.761,1098.67 686.135,1097.87 700.727,1088.95 704.801,1086.34 711.975,1081.49 715.475,1079.29 727.094,1072.55 749.013,1061.24 750.349,1060.47 753.285,1058.8 755.207,1057.73 765.38,1052.32 773.706,1047.47 777.154,1045.56 777.178,1045.55 787.923,1039.89 789.631,1038.88 792.17,1037.18 795.518,1035.02 799.147,1032.79 806.129,1028.72 810.17,1026.15 811.033,1025.61 828.736,1015.6 833.592,1012.68 835.548,1011.54 835.906,1011.3 837.028,1010.56 838.877,1009.21 843.664,1005.88 850.774,1000.79 853.408,999.038 855.784,997.512 856.773,996.803 864.85,991.387 872.858,986.542 884.662,980.027 888.646,977.945 891.353,976.556 892.361,975.954 893.779,975.117 897.1,973.203 902.557,970.174 918.61,961.857 924.679,958.381 926.798,957.21 930.655,954.803 954.24,941.813 960.57,938.133 995.536,920.285 996.21,919.963 997.278,919.358 1015.8,909.567 1083.59,875.751 1084.22,875.458 1096.21,869.937 1099.09,868.614 1108.54,863.58 1119.11,857.476 1124.86,854.377 1125.06,854.269 1130.06,851.257 1136.12,847.803 1150.88,839.021 1158.35,834.997 1174.28,826.939 1177.29,825.471 1191.6,818.632 1229.07,799.622 1238.52,795.163 1240.47,794.25 1241.35,793.761 1246.13,790.764 1247.52,789.801 1250.98,787.49 1251.84,786.931 1265.42,777.901 1267.44,776.511 1282.41,766.274 1283.55,765.581 1293.47,759.85 1295.43,758.775 1296.04,758.444 1299.73,756.16 1302.12,754.729 1314.74,746.803 1321.86,742.776 1328.67,739.127 1337.87,734.422 1340.93,732.899 1345.76,730.131 1347.09,729.386 1355.22,725.008 1356.25,724.471 1357.94,723.594 1366.39,718.676 1370.78,715.903 1374.05,713.645 1374.84,713.12 1378.84,710.533 1390.85,703.435 1394.9,701.218 1395.59,700.842 1418.91,687.716 1422.1,686.08 1426.35,683.589 1437.83,676.476 1439.34,675.606 1459.54,663.643 1478.81,653.785 1481.6,652.183 1499.95,641.292 1512.01,634.123 1515.4,632.251 1524.31,626.86 1537.35,619.724 1543.38,616.626 1547.39,614.272 1549.59,612.834 1551.8,611.422 1557.18,607.715 1558.67,606.609 1563.25,603.368 1563.29,603.336 1568.2,600.108 1568.5,599.915 1569.61,599.218 1569.96,598.967 1572.81,596.736 1581.52,590.556 1594.04,582.005 1595.53,581.081 1600.35,578.197 1601.2,577.706 1642.72,556.476 1649.28,553.381 1655.09,550.659 1659.96,548.391 1662.98,546.991 1666.28,545.464 1669.04,544.189 1673.03,542.35 1686.47,535.256 1687.27,534.776 1699.13,527.266 1707.64,522.434 1710.24,521.022 1715.04,518.485 1728.27,510.89 1729.73,510.104 1737.44,506.063 1743.89,502.804 1760.17,494.89 1760.59,494.655 1762.27,493.708 1763.03,493.29 1764.83,492.294 1765.14,492.13 1767.12,491.058 1767.85,490.666 1772.4,488.265 1777.41,485.694 1778.99,484.895 1780.18,484.297 1780.2,484.286 1780.81,483.98 1780.83,483.973 1782.62,482.924 1791.16,477.503 1791.52,477.283 1814.77,464.605 1815.49,464.179 1833.07,453.389 1833.1,453.373 1849.98,443.384 1859.98,438.092 1865.56,435.265 1881.86,427.316 1903.7,417.061 1911.69,413.364 1922.41,408.429 1943.38,398.823 1947.88,396.768 1952.67,394.578 1954.16,393.901 1972.83,385.381 1981.9,381.243 1985.99,379.377 1986.62,379.087 1992.84,376.255 2006.7,369.935 2013.92,366.643 2030.91,357.815 2039.67,353.516 2041.7,352.536 2049.1,348.421 2054.02,345.81 2074,334.619 2074.18,334.507 2120.71,308.525 2123.34,307.021 2127.65,304.278 2131,301.96 2145.15,293.218 2158.61,285.916 2171.57,279.387 2182.2,273.476 2182.83,273.139 2183.62,272.724 2191.54,268.623 2193.01,267.748 2199.41,263.582 2200.04,263.191 2203.64,260.704 2205.87,259.034 2209.86,256.205 2217.81,251.025 2218.3,250.682 2219.34,249.953 2233.02,241.301 2240.8,236.917 2242.04,236.136 2245.79,233.836 2252.57,229.9 2254.51,228.819 2257.29,227.293 2268.81,221.27 2286.08,211.692 2299.46,204.02 2307.39,199.836 2310.34,198.322 2315.54,195.712 2320.05,193.487 2321.9,192.583 2329.02,189.148 2339.85,184.015 2344.99,181.609 2352.76,177.999 "/>
<path clip-path="url(#clip950)" d="M214.431 663.349 L554.896 663.349 L554.896 93.1086 L214.431 93.1086  Z" fill="#ffffff" fill-rule="evenodd" fill-opacity="1"/>
<polyline clip-path="url(#clip950)" style="stroke:#000000; stroke-linecap:round; stroke-linejoin:round; stroke-width:4; stroke-opacity:1; fill:none" points="214.431,663.349 554.896,663.349 554.896,93.1086 214.431,93.1086 214.431,663.349 "/>
<polyline clip-path="url(#clip950)" style="stroke:#009af9; stroke-linecap:round; stroke-linejoin:round; stroke-width:4; stroke-opacity:1; fill:none" points="239.009,144.949 386.48,144.949 "/>
<path clip-path="url(#clip950)" d="M411.058 151.997 L411.058 136.303 L415.318 136.303 L415.318 151.835 Q415.318 155.516 416.753 157.368 Q418.188 159.196 421.058 159.196 Q424.507 159.196 426.498 156.997 Q428.512 154.798 428.512 151.002 L428.512 136.303 L432.771 136.303 L432.771 162.229 L428.512 162.229 L428.512 158.247 Q426.961 160.608 424.901 161.766 Q422.864 162.9 420.156 162.9 Q415.688 162.9 413.373 160.122 Q411.058 157.344 411.058 151.997 M421.776 135.678 L421.776 135.678 Z" fill="#000000" fill-rule="nonzero" fill-opacity="1" /><path clip-path="url(#clip950)" d="M441.151 126.21 L450.966 126.21 L450.966 129.52 L445.41 129.52 L445.41 165.168 L450.966 165.168 L450.966 168.479 L441.151 168.479 L441.151 126.21 Z" fill="#000000" fill-rule="nonzero" fill-opacity="1" /><path clip-path="url(#clip950)" d="M461.452 158.293 L469.091 158.293 L469.091 131.928 L460.78 133.595 L460.78 129.335 L469.044 127.669 L473.72 127.669 L473.72 158.293 L481.359 158.293 L481.359 162.229 L461.452 162.229 L461.452 158.293 Z" fill="#000000" fill-rule="nonzero" fill-opacity="1" /><path clip-path="url(#clip950)" d="M500.155 126.21 L500.155 168.479 L490.34 168.479 L490.34 165.168 L495.873 165.168 L495.873 129.52 L490.34 129.52 L490.34 126.21 L500.155 126.21 Z" fill="#000000" fill-rule="nonzero" fill-opacity="1" /><polyline clip-path="url(#clip950)" style="stroke:#e26f46; stroke-linecap:round; stroke-linejoin:round; stroke-width:4; stroke-opacity:1; fill:none" points="239.009,196.789 386.48,196.789 "/>
<path clip-path="url(#clip950)" d="M411.058 203.837 L411.058 188.143 L415.318 188.143 L415.318 203.675 Q415.318 207.356 416.753 209.208 Q418.188 211.036 421.058 211.036 Q424.507 211.036 426.498 208.837 Q428.512 206.638 428.512 202.842 L428.512 188.143 L432.771 188.143 L432.771 214.069 L428.512 214.069 L428.512 210.087 Q426.961 212.448 424.901 213.606 Q422.864 214.74 420.156 214.74 Q415.688 214.74 413.373 211.962 Q411.058 209.184 411.058 203.837 M421.776 187.518 L421.776 187.518 Z" fill="#000000" fill-rule="nonzero" fill-opacity="1" /><path clip-path="url(#clip950)" d="M441.151 178.05 L450.966 178.05 L450.966 181.36 L445.41 181.36 L445.41 217.008 L450.966 217.008 L450.966 220.319 L441.151 220.319 L441.151 178.05 Z" fill="#000000" fill-rule="nonzero" fill-opacity="1" /><path clip-path="url(#clip950)" d="M464.669 210.133 L480.989 210.133 L480.989 214.069 L459.044 214.069 L459.044 210.133 Q461.706 207.379 466.29 202.749 Q470.896 198.096 472.077 196.754 Q474.322 194.231 475.202 192.495 Q476.104 190.735 476.104 189.046 Q476.104 186.291 474.16 184.555 Q472.239 182.819 469.137 182.819 Q466.938 182.819 464.484 183.583 Q462.054 184.347 459.276 185.897 L459.276 181.175 Q462.1 180.041 464.554 179.462 Q467.007 178.884 469.044 178.884 Q474.415 178.884 477.609 181.569 Q480.803 184.254 480.803 188.745 Q480.803 190.874 479.993 192.796 Q479.206 194.694 477.1 197.286 Q476.521 197.958 473.419 201.175 Q470.317 204.37 464.669 210.133 Z" fill="#000000" fill-rule="nonzero" fill-opacity="1" /><path clip-path="url(#clip950)" d="M500.155 178.05 L500.155 220.319 L490.34 220.319 L490.34 217.008 L495.873 217.008 L495.873 181.36 L490.34 181.36 L490.34 178.05 L500.155 178.05 Z" fill="#000000" fill-rule="nonzero" fill-opacity="1" /><polyline clip-path="url(#clip950)" style="stroke:#3da44d; stroke-linecap:round; stroke-linejoin:round; stroke-width:4; stroke-opacity:1; fill:none" points="239.009,248.629 386.48,248.629 "/>
<path clip-path="url(#clip950)" d="M411.058 255.677 L411.058 239.983 L415.318 239.983 L415.318 255.515 Q415.318 259.196 416.753 261.048 Q418.188 262.876 421.058 262.876 Q424.507 262.876 426.498 260.677 Q428.512 258.478 428.512 254.682 L428.512 239.983 L432.771 239.983 L432.771 265.909 L428.512 265.909 L428.512 261.927 Q426.961 264.288 424.901 265.446 Q422.864 266.58 420.156 266.58 Q415.688 266.58 413.373 263.802 Q411.058 261.024 411.058 255.677 M421.776 239.358 L421.776 239.358 Z" fill="#000000" fill-rule="nonzero" fill-opacity="1" /><path clip-path="url(#clip950)" d="M441.151 229.89 L450.966 229.89 L450.966 233.2 L445.41 233.2 L445.41 268.848 L450.966 268.848 L450.966 272.159 L441.151 272.159 L441.151 229.89 Z" fill="#000000" fill-rule="nonzero" fill-opacity="1" /><path clip-path="url(#clip950)" d="M474.808 247.274 Q478.165 247.992 480.04 250.261 Q481.938 252.529 481.938 255.862 Q481.938 260.978 478.419 263.779 Q474.901 266.58 468.419 266.58 Q466.243 266.58 463.929 266.14 Q461.637 265.723 459.183 264.867 L459.183 260.353 Q461.128 261.487 463.442 262.066 Q465.757 262.645 468.28 262.645 Q472.679 262.645 474.97 260.909 Q477.285 259.173 477.285 255.862 Q477.285 252.807 475.132 251.094 Q473.003 249.358 469.183 249.358 L465.155 249.358 L465.155 245.515 L469.368 245.515 Q472.817 245.515 474.646 244.149 Q476.475 242.761 476.475 240.168 Q476.475 237.506 474.577 236.094 Q472.702 234.659 469.183 234.659 Q467.262 234.659 465.063 235.075 Q462.864 235.492 460.225 236.372 L460.225 232.205 Q462.887 231.464 465.202 231.094 Q467.54 230.724 469.6 230.724 Q474.924 230.724 478.026 233.154 Q481.128 235.562 481.128 239.682 Q481.128 242.552 479.484 244.543 Q477.841 246.511 474.808 247.274 Z" fill="#000000" fill-rule="nonzero" fill-opacity="1" /><path clip-path="url(#clip950)" d="M500.155 229.89 L500.155 272.159 L490.34 272.159 L490.34 268.848 L495.873 268.848 L495.873 233.2 L490.34 233.2 L490.34 229.89 L500.155 229.89 Z" fill="#000000" fill-rule="nonzero" fill-opacity="1" /><polyline clip-path="url(#clip950)" style="stroke:#c271d2; stroke-linecap:round; stroke-linejoin:round; stroke-width:4; stroke-opacity:1; fill:none" points="239.009,300.469 386.48,300.469 "/>
<path clip-path="url(#clip950)" d="M411.058 307.517 L411.058 291.823 L415.318 291.823 L415.318 307.355 Q415.318 311.036 416.753 312.888 Q418.188 314.716 421.058 314.716 Q424.507 314.716 426.498 312.517 Q428.512 310.318 428.512 306.522 L428.512 291.823 L432.771 291.823 L432.771 317.749 L428.512 317.749 L428.512 313.767 Q426.961 316.128 424.901 317.286 Q422.864 318.42 420.156 318.42 Q415.688 318.42 413.373 315.642 Q411.058 312.864 411.058 307.517 M421.776 291.198 L421.776 291.198 Z" fill="#000000" fill-rule="nonzero" fill-opacity="1" /><path clip-path="url(#clip950)" d="M441.151 281.73 L450.966 281.73 L450.966 285.04 L445.41 285.04 L445.41 320.688 L450.966 320.688 L450.966 323.999 L441.151 323.999 L441.151 281.73 Z" fill="#000000" fill-rule="nonzero" fill-opacity="1" /><path clip-path="url(#clip950)" d="M473.489 287.263 L461.683 305.712 L473.489 305.712 L473.489 287.263 M472.262 283.189 L478.141 283.189 L478.141 305.712 L483.072 305.712 L483.072 309.601 L478.141 309.601 L478.141 317.749 L473.489 317.749 L473.489 309.601 L457.887 309.601 L457.887 305.087 L472.262 283.189 Z" fill="#000000" fill-rule="nonzero" fill-opacity="1" /><path clip-path="url(#clip950)" d="M500.155 281.73 L500.155 323.999 L490.34 323.999 L490.34 320.688 L495.873 320.688 L495.873 285.04 L490.34 285.04 L490.34 281.73 L500.155 281.73 Z" fill="#000000" fill-rule="nonzero" fill-opacity="1" /><polyline clip-path="url(#clip950)" style="stroke:#ac8d18; stroke-linecap:round; stroke-linejoin:round; stroke-width:4; stroke-opacity:1; fill:none" points="239.009,352.309 386.48,352.309 "/>
<path clip-path="url(#clip950)" d="M411.058 359.357 L411.058 343.663 L415.318 343.663 L415.318 359.195 Q415.318 362.876 416.753 364.728 Q418.188 366.556 421.058 366.556 Q424.507 366.556 426.498 364.357 Q428.512 362.158 428.512 358.362 L428.512 343.663 L432.771 343.663 L432.771 369.589 L428.512 369.589 L428.512 365.607 Q426.961 367.968 424.901 369.126 Q422.864 370.26 420.156 370.26 Q415.688 370.26 413.373 367.482 Q411.058 364.704 411.058 359.357 M421.776 343.038 L421.776 343.038 Z" fill="#000000" fill-rule="nonzero" fill-opacity="1" /><path clip-path="url(#clip950)" d="M441.151 333.57 L450.966 333.57 L450.966 336.88 L445.41 336.88 L445.41 372.528 L450.966 372.528 L450.966 375.839 L441.151 375.839 L441.151 333.57 Z" fill="#000000" fill-rule="nonzero" fill-opacity="1" /><path clip-path="url(#clip950)" d="M460.688 335.029 L479.044 335.029 L479.044 338.964 L464.97 338.964 L464.97 347.436 Q465.989 347.089 467.007 346.927 Q468.026 346.742 469.044 346.742 Q474.831 346.742 478.211 349.913 Q481.591 353.084 481.591 358.501 Q481.591 364.079 478.118 367.181 Q474.646 370.26 468.327 370.26 Q466.151 370.26 463.882 369.89 Q461.637 369.519 459.23 368.778 L459.23 364.079 Q461.313 365.214 463.535 365.769 Q465.757 366.325 468.234 366.325 Q472.239 366.325 474.577 364.218 Q476.915 362.112 476.915 358.501 Q476.915 354.89 474.577 352.783 Q472.239 350.677 468.234 350.677 Q466.359 350.677 464.484 351.093 Q462.632 351.51 460.688 352.39 L460.688 335.029 Z" fill="#000000" fill-rule="nonzero" fill-opacity="1" /><path clip-path="url(#clip950)" d="M500.155 333.57 L500.155 375.839 L490.34 375.839 L490.34 372.528 L495.873 372.528 L495.873 336.88 L490.34 336.88 L490.34 333.57 L500.155 333.57 Z" fill="#000000" fill-rule="nonzero" fill-opacity="1" /><polyline clip-path="url(#clip950)" style="stroke:#00a9ad; stroke-linecap:round; stroke-linejoin:round; stroke-width:4; stroke-opacity:1; fill:none" points="239.009,404.149 386.48,404.149 "/>
<path clip-path="url(#clip950)" d="M411.058 411.197 L411.058 395.503 L415.318 395.503 L415.318 411.035 Q415.318 414.716 416.753 416.568 Q418.188 418.396 421.058 418.396 Q424.507 418.396 426.498 416.197 Q428.512 413.998 428.512 410.202 L428.512 395.503 L432.771 395.503 L432.771 421.429 L428.512 421.429 L428.512 417.447 Q426.961 419.808 424.901 420.966 Q422.864 422.1 420.156 422.1 Q415.688 422.1 413.373 419.322 Q411.058 416.544 411.058 411.197 M421.776 394.878 L421.776 394.878 Z" fill="#000000" fill-rule="nonzero" fill-opacity="1" /><path clip-path="url(#clip950)" d="M441.151 385.41 L450.966 385.41 L450.966 388.72 L445.41 388.72 L445.41 424.368 L450.966 424.368 L450.966 427.679 L441.151 427.679 L441.151 385.41 Z" fill="#000000" fill-rule="nonzero" fill-opacity="1" /><path clip-path="url(#clip950)" d="M471.22 402.285 Q468.072 402.285 466.22 404.438 Q464.392 406.591 464.392 410.341 Q464.392 414.068 466.22 416.243 Q468.072 418.396 471.22 418.396 Q474.368 418.396 476.197 416.243 Q478.049 414.068 478.049 410.341 Q478.049 406.591 476.197 404.438 Q474.368 402.285 471.22 402.285 M480.503 387.633 L480.503 391.892 Q478.743 391.058 476.938 390.619 Q475.155 390.179 473.396 390.179 Q468.766 390.179 466.313 393.304 Q463.882 396.429 463.535 402.748 Q464.901 400.734 466.961 399.669 Q469.021 398.582 471.498 398.582 Q476.706 398.582 479.716 401.753 Q482.748 404.901 482.748 410.341 Q482.748 415.665 479.6 418.882 Q476.452 422.1 471.22 422.1 Q465.225 422.1 462.054 417.517 Q458.882 412.91 458.882 404.183 Q458.882 395.989 462.771 391.128 Q466.66 386.244 473.211 386.244 Q474.97 386.244 476.753 386.591 Q478.558 386.938 480.503 387.633 Z" fill="#000000" fill-rule="nonzero" fill-opacity="1" /><path clip-path="url(#clip950)" d="M500.155 385.41 L500.155 427.679 L490.34 427.679 L490.34 424.368 L495.873 424.368 L495.873 388.72 L490.34 388.72 L490.34 385.41 L500.155 385.41 Z" fill="#000000" fill-rule="nonzero" fill-opacity="1" /><polyline clip-path="url(#clip950)" style="stroke:#ed5d92; stroke-linecap:round; stroke-linejoin:round; stroke-width:4; stroke-opacity:1; fill:none" points="239.009,455.989 386.48,455.989 "/>
<path clip-path="url(#clip950)" d="M411.058 463.037 L411.058 447.343 L415.318 447.343 L415.318 462.875 Q415.318 466.556 416.753 468.408 Q418.188 470.236 421.058 470.236 Q424.507 470.236 426.498 468.037 Q428.512 465.838 428.512 462.042 L428.512 447.343 L432.771 447.343 L432.771 473.269 L428.512 473.269 L428.512 469.287 Q426.961 471.648 424.901 472.806 Q422.864 473.94 420.156 473.94 Q415.688 473.94 413.373 471.162 Q411.058 468.384 411.058 463.037 M421.776 446.718 L421.776 446.718 Z" fill="#000000" fill-rule="nonzero" fill-opacity="1" /><path clip-path="url(#clip950)" d="M441.151 437.25 L450.966 437.25 L450.966 440.56 L445.41 440.56 L445.41 476.208 L450.966 476.208 L450.966 479.519 L441.151 479.519 L441.151 437.25 Z" fill="#000000" fill-rule="nonzero" fill-opacity="1" /><path clip-path="url(#clip950)" d="M459.461 438.709 L481.683 438.709 L481.683 440.699 L469.137 473.269 L464.253 473.269 L476.058 442.644 L459.461 442.644 L459.461 438.709 Z" fill="#000000" fill-rule="nonzero" fill-opacity="1" /><path clip-path="url(#clip950)" d="M500.155 437.25 L500.155 479.519 L490.34 479.519 L490.34 476.208 L495.873 476.208 L495.873 440.56 L490.34 440.56 L490.34 437.25 L500.155 437.25 Z" fill="#000000" fill-rule="nonzero" fill-opacity="1" /><polyline clip-path="url(#clip950)" style="stroke:#c68125; stroke-linecap:round; stroke-linejoin:round; stroke-width:4; stroke-opacity:1; fill:none" points="239.009,507.829 386.48,507.829 "/>
<path clip-path="url(#clip950)" d="M411.058 514.877 L411.058 499.183 L415.318 499.183 L415.318 514.715 Q415.318 518.396 416.753 520.248 Q418.188 522.076 421.058 522.076 Q424.507 522.076 426.498 519.877 Q428.512 517.678 428.512 513.882 L428.512 499.183 L432.771 499.183 L432.771 525.109 L428.512 525.109 L428.512 521.127 Q426.961 523.488 424.901 524.646 Q422.864 525.78 420.156 525.78 Q415.688 525.78 413.373 523.002 Q411.058 520.224 411.058 514.877 M421.776 498.558 L421.776 498.558 Z" fill="#000000" fill-rule="nonzero" fill-opacity="1" /><path clip-path="url(#clip950)" d="M441.151 489.09 L450.966 489.09 L450.966 492.4 L445.41 492.4 L445.41 528.048 L450.966 528.048 L450.966 531.359 L441.151 531.359 L441.151 489.09 Z" fill="#000000" fill-rule="nonzero" fill-opacity="1" /><path clip-path="url(#clip950)" d="M470.641 508.697 Q467.308 508.697 465.387 510.479 Q463.489 512.261 463.489 515.386 Q463.489 518.511 465.387 520.294 Q467.308 522.076 470.641 522.076 Q473.975 522.076 475.896 520.294 Q477.817 518.488 477.817 515.386 Q477.817 512.261 475.896 510.479 Q473.998 508.697 470.641 508.697 M465.966 506.706 Q462.956 505.965 461.267 503.905 Q459.6 501.845 459.6 498.882 Q459.6 494.738 462.54 492.331 Q465.503 489.924 470.641 489.924 Q475.803 489.924 478.743 492.331 Q481.683 494.738 481.683 498.882 Q481.683 501.845 479.993 503.905 Q478.327 505.965 475.341 506.706 Q478.72 507.493 480.595 509.785 Q482.493 512.076 482.493 515.386 Q482.493 520.41 479.415 523.095 Q476.359 525.78 470.641 525.78 Q464.924 525.78 461.845 523.095 Q458.79 520.41 458.79 515.386 Q458.79 512.076 460.688 509.785 Q462.586 507.493 465.966 506.706 M464.253 499.322 Q464.253 502.007 465.919 503.512 Q467.609 505.016 470.641 505.016 Q473.651 505.016 475.341 503.512 Q477.053 502.007 477.053 499.322 Q477.053 496.637 475.341 495.132 Q473.651 493.627 470.641 493.627 Q467.609 493.627 465.919 495.132 Q464.253 496.637 464.253 499.322 Z" fill="#000000" fill-rule="nonzero" fill-opacity="1" /><path clip-path="url(#clip950)" d="M500.155 489.09 L500.155 531.359 L490.34 531.359 L490.34 528.048 L495.873 528.048 L495.873 492.4 L490.34 492.4 L490.34 489.09 L500.155 489.09 Z" fill="#000000" fill-rule="nonzero" fill-opacity="1" /><polyline clip-path="url(#clip950)" style="stroke:#00a98d; stroke-linecap:round; stroke-linejoin:round; stroke-width:4; stroke-opacity:1; fill:none" points="239.009,559.669 386.48,559.669 "/>
<path clip-path="url(#clip950)" d="M411.058 566.717 L411.058 551.023 L415.318 551.023 L415.318 566.555 Q415.318 570.236 416.753 572.088 Q418.188 573.916 421.058 573.916 Q424.507 573.916 426.498 571.717 Q428.512 569.518 428.512 565.722 L428.512 551.023 L432.771 551.023 L432.771 576.949 L428.512 576.949 L428.512 572.967 Q426.961 575.328 424.901 576.486 Q422.864 577.62 420.156 577.62 Q415.688 577.62 413.373 574.842 Q411.058 572.064 411.058 566.717 M421.776 550.398 L421.776 550.398 Z" fill="#000000" fill-rule="nonzero" fill-opacity="1" /><path clip-path="url(#clip950)" d="M441.151 540.93 L450.966 540.93 L450.966 544.24 L445.41 544.24 L445.41 579.888 L450.966 579.888 L450.966 583.199 L441.151 583.199 L441.151 540.93 Z" fill="#000000" fill-rule="nonzero" fill-opacity="1" /><path clip-path="url(#clip950)" d="M460.78 576.231 L460.78 571.972 Q462.54 572.805 464.345 573.245 Q466.151 573.685 467.887 573.685 Q472.516 573.685 474.947 570.583 Q477.401 567.458 477.748 561.115 Q476.405 563.106 474.345 564.171 Q472.285 565.236 469.785 565.236 Q464.6 565.236 461.567 562.111 Q458.558 558.963 458.558 553.523 Q458.558 548.199 461.706 544.981 Q464.854 541.764 470.086 541.764 Q476.081 541.764 479.229 546.37 Q482.401 550.953 482.401 559.703 Q482.401 567.875 478.512 572.759 Q474.646 577.62 468.095 577.62 Q466.336 577.62 464.53 577.273 Q462.725 576.925 460.78 576.231 M470.086 561.578 Q473.234 561.578 475.063 559.426 Q476.915 557.273 476.915 553.523 Q476.915 549.796 475.063 547.643 Q473.234 545.467 470.086 545.467 Q466.938 545.467 465.086 547.643 Q463.257 549.796 463.257 553.523 Q463.257 557.273 465.086 559.426 Q466.938 561.578 470.086 561.578 Z" fill="#000000" fill-rule="nonzero" fill-opacity="1" /><path clip-path="url(#clip950)" d="M500.155 540.93 L500.155 583.199 L490.34 583.199 L490.34 579.888 L495.873 579.888 L495.873 544.24 L490.34 544.24 L490.34 540.93 L500.155 540.93 Z" fill="#000000" fill-rule="nonzero" fill-opacity="1" /><polyline clip-path="url(#clip950)" style="stroke:#8e971d; stroke-linecap:round; stroke-linejoin:round; stroke-width:4; stroke-opacity:1; fill:none" points="239.009,611.509 386.48,611.509 "/>
<path clip-path="url(#clip950)" d="M411.058 618.557 L411.058 602.863 L415.318 602.863 L415.318 618.395 Q415.318 622.076 416.753 623.928 Q418.188 625.756 421.058 625.756 Q424.507 625.756 426.498 623.557 Q428.512 621.358 428.512 617.562 L428.512 602.863 L432.771 602.863 L432.771 628.789 L428.512 628.789 L428.512 624.807 Q426.961 627.168 424.901 628.326 Q422.864 629.46 420.156 629.46 Q415.688 629.46 413.373 626.682 Q411.058 623.904 411.058 618.557 M421.776 602.238 L421.776 602.238 Z" fill="#000000" fill-rule="nonzero" fill-opacity="1" /><path clip-path="url(#clip950)" d="M441.151 592.77 L450.966 592.77 L450.966 596.08 L445.41 596.08 L445.41 631.728 L450.966 631.728 L450.966 635.039 L441.151 635.039 L441.151 592.77 Z" fill="#000000" fill-rule="nonzero" fill-opacity="1" /><path clip-path="url(#clip950)" d="M461.452 624.853 L469.091 624.853 L469.091 598.488 L460.78 600.155 L460.78 595.895 L469.044 594.229 L473.72 594.229 L473.72 624.853 L481.359 624.853 L481.359 628.789 L461.452 628.789 L461.452 624.853 Z" fill="#000000" fill-rule="nonzero" fill-opacity="1" /><path clip-path="url(#clip950)" d="M500.803 597.307 Q497.192 597.307 495.364 600.872 Q493.558 604.414 493.558 611.543 Q493.558 618.65 495.364 622.215 Q497.192 625.756 500.803 625.756 Q504.438 625.756 506.243 622.215 Q508.072 618.65 508.072 611.543 Q508.072 604.414 506.243 600.872 Q504.438 597.307 500.803 597.307 M500.803 593.604 Q506.614 593.604 509.669 598.21 Q512.748 602.793 512.748 611.543 Q512.748 620.27 509.669 624.877 Q506.614 629.46 500.803 629.46 Q494.993 629.46 491.915 624.877 Q488.859 620.27 488.859 611.543 Q488.859 602.793 491.915 598.21 Q494.993 593.604 500.803 593.604 Z" fill="#000000" fill-rule="nonzero" fill-opacity="1" /><path clip-path="url(#clip950)" d="M530.317 592.77 L530.317 635.039 L520.502 635.039 L520.502 631.728 L526.035 631.728 L526.035 596.08 L520.502 596.08 L520.502 592.77 L530.317 592.77 Z" fill="#000000" fill-rule="nonzero" fill-opacity="1" /></svg>
