<?xml version="1.0" encoding="utf-8"?>
<svg xmlns="http://www.w3.org/2000/svg" xmlns:xlink="http://www.w3.org/1999/xlink" width="600" height="400" viewBox="0 0 2400 1600">
<defs>
  <clipPath id="clip150">
    <rect x="0" y="0" width="2400" height="1600"/>
  </clipPath>
</defs>
<path clip-path="url(#clip150)" d="M0 1600 L2400 1600 L2400 0 L0 0  Z" fill="#ffffff" fill-rule="evenodd" fill-opacity="1"/>
<defs>
  <clipPath id="clip151">
    <rect x="480" y="0" width="1681" height="1600"/>
  </clipPath>
</defs>
<path clip-path="url(#clip150)" d="M155.927 1486.45 L2352.76 1486.45 L2352.76 47.2441 L155.927 47.2441  Z" fill="#ffffff" fill-rule="evenodd" fill-opacity="1"/>
<defs>
  <clipPath id="clip152">
    <rect x="155" y="47" width="2198" height="1440"/>
  </clipPath>
</defs>
<polyline clip-path="url(#clip152)" style="stroke:#000000; stroke-linecap:round; stroke-linejoin:round; stroke-width:2; stroke-opacity:0.1; fill:none" points="216.081,1486.45 216.081,47.2441 "/>
<polyline clip-path="url(#clip152)" style="stroke:#000000; stroke-linecap:round; stroke-linejoin:round; stroke-width:2; stroke-opacity:0.1; fill:none" points="721.072,1486.45 721.072,47.2441 "/>
<polyline clip-path="url(#clip152)" style="stroke:#000000; stroke-linecap:round; stroke-linejoin:round; stroke-width:2; stroke-opacity:0.1; fill:none" points="1226.06,1486.45 1226.06,47.2441 "/>
<polyline clip-path="url(#clip152)" style="stroke:#000000; stroke-linecap:round; stroke-linejoin:round; stroke-width:2; stroke-opacity:0.1; fill:none" points="1731.05,1486.45 1731.05,47.2441 "/>
<polyline clip-path="url(#clip152)" style="stroke:#000000; stroke-linecap:round; stroke-linejoin:round; stroke-width:2; stroke-opacity:0.1; fill:none" points="2236.04,1486.45 2236.04,47.2441 "/>
<polyline clip-path="url(#clip150)" style="stroke:#000000; stroke-linecap:round; stroke-linejoin:round; stroke-width:4; stroke-opacity:1; fill:none" points="155.927,1486.45 2352.76,1486.45 "/>
<polyline clip-path="url(#clip150)" style="stroke:#000000; stroke-linecap:round; stroke-linejoin:round; stroke-width:4; stroke-opacity:1; fill:none" points="216.081,1486.45 216.081,1467.55 "/>
<polyline clip-path="url(#clip150)" style="stroke:#000000; stroke-linecap:round; stroke-linejoin:round; stroke-width:4; stroke-opacity:1; fill:none" points="721.072,1486.45 721.072,1467.55 "/>
<polyline clip-path="url(#clip150)" style="stroke:#000000; stroke-linecap:round; stroke-linejoin:round; stroke-width:4; stroke-opacity:1; fill:none" points="1226.06,1486.45 1226.06,1467.55 "/>
<polyline clip-path="url(#clip150)" style="stroke:#000000; stroke-linecap:round; stroke-linejoin:round; stroke-width:4; stroke-opacity:1; fill:none" points="1731.05,1486.45 1731.05,1467.55 "/>
<polyline clip-path="url(#clip150)" style="stroke:#000000; stroke-linecap:round; stroke-linejoin:round; stroke-width:4; stroke-opacity:1; fill:none" points="2236.04,1486.45 2236.04,1467.55 "/>
<path clip-path="url(#clip150)" d="M216.081 1517.37 Q212.47 1517.37 210.642 1520.93 Q208.836 1524.47 208.836 1531.6 Q208.836 1538.71 210.642 1542.27 Q212.47 1545.82 216.081 1545.82 Q219.716 1545.82 221.521 1542.27 Q223.35 1538.71 223.35 1531.6 Q223.35 1524.47 221.521 1520.93 Q219.716 1517.37 216.081 1517.37 M216.081 1513.66 Q221.892 1513.66 224.947 1518.27 Q228.026 1522.85 228.026 1531.6 Q228.026 1540.33 224.947 1544.94 Q221.892 1549.52 216.081 1549.52 Q210.271 1549.52 207.193 1544.94 Q204.137 1540.33 204.137 1531.6 Q204.137 1522.85 207.193 1518.27 Q210.271 1513.66 216.081 1513.66 Z" fill="#000000" fill-rule="nonzero" fill-opacity="1" /><path clip-path="url(#clip150)" d="M684.764 1544.91 L701.083 1544.91 L701.083 1548.85 L679.139 1548.85 L679.139 1544.91 Q681.801 1542.16 686.384 1537.53 Q690.991 1532.88 692.171 1531.53 Q694.417 1529.01 695.296 1527.27 Q696.199 1525.51 696.199 1523.82 Q696.199 1521.07 694.255 1519.33 Q692.333 1517.6 689.232 1517.6 Q687.033 1517.6 684.579 1518.36 Q682.148 1519.13 679.371 1520.68 L679.371 1515.95 Q682.195 1514.82 684.648 1514.24 Q687.102 1513.66 689.139 1513.66 Q694.509 1513.66 697.704 1516.35 Q700.898 1519.03 700.898 1523.52 Q700.898 1525.65 700.088 1527.57 Q699.301 1529.47 697.194 1532.07 Q696.616 1532.74 693.514 1535.95 Q690.412 1539.15 684.764 1544.91 Z" fill="#000000" fill-rule="nonzero" fill-opacity="1" /><path clip-path="url(#clip150)" d="M710.944 1514.29 L729.301 1514.29 L729.301 1518.22 L715.227 1518.22 L715.227 1526.7 Q716.245 1526.35 717.264 1526.19 Q718.282 1526 719.301 1526 Q725.088 1526 728.467 1529.17 Q731.847 1532.34 731.847 1537.76 Q731.847 1543.34 728.375 1546.44 Q724.903 1549.52 718.583 1549.52 Q716.407 1549.52 714.139 1549.15 Q711.893 1548.78 709.486 1548.04 L709.486 1543.34 Q711.569 1544.47 713.792 1545.03 Q716.014 1545.58 718.491 1545.58 Q722.495 1545.58 724.833 1543.48 Q727.171 1541.37 727.171 1537.76 Q727.171 1534.15 724.833 1532.04 Q722.495 1529.94 718.491 1529.94 Q716.616 1529.94 714.741 1530.35 Q712.889 1530.77 710.944 1531.65 L710.944 1514.29 Z" fill="#000000" fill-rule="nonzero" fill-opacity="1" /><path clip-path="url(#clip150)" d="M751.06 1517.37 Q747.449 1517.37 745.62 1520.93 Q743.815 1524.47 743.815 1531.6 Q743.815 1538.71 745.62 1542.27 Q747.449 1545.82 751.06 1545.82 Q754.694 1545.82 756.5 1542.27 Q758.328 1538.71 758.328 1531.6 Q758.328 1524.47 756.5 1520.93 Q754.694 1517.37 751.06 1517.37 M751.06 1513.66 Q756.87 1513.66 759.926 1518.27 Q763.004 1522.85 763.004 1531.6 Q763.004 1540.33 759.926 1544.94 Q756.87 1549.52 751.06 1549.52 Q745.25 1549.52 742.171 1544.94 Q739.116 1540.33 739.116 1531.6 Q739.116 1522.85 742.171 1518.27 Q745.25 1513.66 751.06 1513.66 Z" fill="#000000" fill-rule="nonzero" fill-opacity="1" /><path clip-path="url(#clip150)" d="M1185.68 1514.29 L1204.04 1514.29 L1204.04 1518.22 L1189.96 1518.22 L1189.96 1526.7 Q1190.98 1526.35 1192 1526.19 Q1193.02 1526 1194.04 1526 Q1199.82 1526 1203.2 1529.17 Q1206.58 1532.34 1206.58 1537.76 Q1206.58 1543.34 1203.11 1546.44 Q1199.64 1549.52 1193.32 1549.52 Q1191.14 1549.52 1188.87 1549.15 Q1186.63 1548.78 1184.22 1548.04 L1184.22 1543.34 Q1186.31 1544.47 1188.53 1545.03 Q1190.75 1545.58 1193.23 1545.58 Q1197.23 1545.58 1199.57 1543.48 Q1201.91 1541.37 1201.91 1537.76 Q1201.91 1534.15 1199.57 1532.04 Q1197.23 1529.94 1193.23 1529.94 Q1191.35 1529.94 1189.48 1530.35 Q1187.62 1530.77 1185.68 1531.65 L1185.68 1514.29 Z" fill="#000000" fill-rule="nonzero" fill-opacity="1" /><path clip-path="url(#clip150)" d="M1225.8 1517.37 Q1222.18 1517.37 1220.36 1520.93 Q1218.55 1524.47 1218.55 1531.6 Q1218.55 1538.71 1220.36 1542.27 Q1222.18 1545.82 1225.8 1545.82 Q1229.43 1545.82 1231.24 1542.27 Q1233.06 1538.71 1233.06 1531.6 Q1233.06 1524.47 1231.24 1520.93 Q1229.43 1517.37 1225.8 1517.37 M1225.8 1513.66 Q1231.61 1513.66 1234.66 1518.27 Q1237.74 1522.85 1237.74 1531.6 Q1237.74 1540.33 1234.66 1544.94 Q1231.61 1549.52 1225.8 1549.52 Q1219.99 1549.52 1216.91 1544.94 Q1213.85 1540.33 1213.85 1531.6 Q1213.85 1522.85 1216.91 1518.27 Q1219.99 1513.66 1225.8 1513.66 Z" fill="#000000" fill-rule="nonzero" fill-opacity="1" /><path clip-path="url(#clip150)" d="M1255.96 1517.37 Q1252.35 1517.37 1250.52 1520.93 Q1248.71 1524.47 1248.71 1531.6 Q1248.71 1538.71 1250.52 1542.27 Q1252.35 1545.82 1255.96 1545.82 Q1259.59 1545.82 1261.4 1542.27 Q1263.23 1538.71 1263.23 1531.6 Q1263.23 1524.47 1261.4 1520.93 Q1259.59 1517.37 1255.96 1517.37 M1255.96 1513.66 Q1261.77 1513.66 1264.82 1518.27 Q1267.9 1522.85 1267.9 1531.6 Q1267.9 1540.33 1264.82 1544.94 Q1261.77 1549.52 1255.96 1549.52 Q1250.15 1549.52 1247.07 1544.94 Q1244.01 1540.33 1244.01 1531.6 Q1244.01 1522.85 1247.07 1518.27 Q1250.15 1513.66 1255.96 1513.66 Z" fill="#000000" fill-rule="nonzero" fill-opacity="1" /><path clip-path="url(#clip150)" d="M1689.33 1514.29 L1711.55 1514.29 L1711.55 1516.28 L1699 1548.85 L1694.12 1548.85 L1705.93 1518.22 L1689.33 1518.22 L1689.33 1514.29 Z" fill="#000000" fill-rule="nonzero" fill-opacity="1" /><path clip-path="url(#clip150)" d="M1720.72 1514.29 L1739.07 1514.29 L1739.07 1518.22 L1725 1518.22 L1725 1526.7 Q1726.02 1526.35 1727.04 1526.19 Q1728.05 1526 1729.07 1526 Q1734.86 1526 1738.24 1529.17 Q1741.62 1532.34 1741.62 1537.76 Q1741.62 1543.34 1738.15 1546.44 Q1734.67 1549.52 1728.36 1549.52 Q1726.18 1549.52 1723.91 1549.15 Q1721.67 1548.78 1719.26 1548.04 L1719.26 1543.34 Q1721.34 1544.47 1723.56 1545.03 Q1725.79 1545.58 1728.26 1545.58 Q1732.27 1545.58 1734.61 1543.48 Q1736.94 1541.37 1736.94 1537.76 Q1736.94 1534.15 1734.61 1532.04 Q1732.27 1529.94 1728.26 1529.94 Q1726.39 1529.94 1724.51 1530.35 Q1722.66 1530.77 1720.72 1531.65 L1720.72 1514.29 Z" fill="#000000" fill-rule="nonzero" fill-opacity="1" /><path clip-path="url(#clip150)" d="M1760.83 1517.37 Q1757.22 1517.37 1755.39 1520.93 Q1753.59 1524.47 1753.59 1531.6 Q1753.59 1538.71 1755.39 1542.27 Q1757.22 1545.82 1760.83 1545.82 Q1764.47 1545.82 1766.27 1542.27 Q1768.1 1538.71 1768.1 1531.6 Q1768.1 1524.47 1766.27 1520.93 Q1764.47 1517.37 1760.83 1517.37 M1760.83 1513.66 Q1766.64 1513.66 1769.7 1518.27 Q1772.78 1522.85 1772.78 1531.6 Q1772.78 1540.33 1769.7 1544.94 Q1766.64 1549.52 1760.83 1549.52 Q1755.02 1549.52 1751.94 1544.94 Q1748.89 1540.33 1748.89 1531.6 Q1748.89 1522.85 1751.94 1518.27 Q1755.02 1513.66 1760.83 1513.66 Z" fill="#000000" fill-rule="nonzero" fill-opacity="1" /><path clip-path="url(#clip150)" d="M2180.57 1544.91 L2188.21 1544.91 L2188.21 1518.55 L2179.9 1520.21 L2179.9 1515.95 L2188.16 1514.29 L2192.84 1514.29 L2192.84 1544.91 L2200.48 1544.91 L2200.48 1548.85 L2180.57 1548.85 L2180.57 1544.91 Z" fill="#000000" fill-rule="nonzero" fill-opacity="1" /><path clip-path="url(#clip150)" d="M2219.92 1517.37 Q2216.31 1517.37 2214.48 1520.93 Q2212.67 1524.47 2212.67 1531.6 Q2212.67 1538.71 2214.48 1542.27 Q2216.31 1545.82 2219.92 1545.82 Q2223.55 1545.82 2225.36 1542.27 Q2227.19 1538.71 2227.19 1531.6 Q2227.19 1524.47 2225.36 1520.93 Q2223.55 1517.37 2219.92 1517.37 M2219.92 1513.66 Q2225.73 1513.66 2228.79 1518.27 Q2231.86 1522.85 2231.86 1531.6 Q2231.86 1540.33 2228.79 1544.94 Q2225.73 1549.52 2219.92 1549.52 Q2214.11 1549.52 2211.03 1544.94 Q2207.98 1540.33 2207.98 1531.6 Q2207.98 1522.85 2211.03 1518.27 Q2214.11 1513.66 2219.92 1513.66 Z" fill="#000000" fill-rule="nonzero" fill-opacity="1" /><path clip-path="url(#clip150)" d="M2250.08 1517.37 Q2246.47 1517.37 2244.64 1520.93 Q2242.84 1524.47 2242.84 1531.6 Q2242.84 1538.71 2244.64 1542.27 Q2246.47 1545.82 2250.08 1545.82 Q2253.72 1545.82 2255.52 1542.27 Q2257.35 1538.71 2257.35 1531.6 Q2257.35 1524.47 2255.52 1520.93 Q2253.72 1517.37 2250.08 1517.37 M2250.08 1513.66 Q2255.89 1513.66 2258.95 1518.27 Q2262.03 1522.85 2262.03 1531.6 Q2262.03 1540.33 2258.95 1544.94 Q2255.89 1549.52 2250.08 1549.52 Q2244.27 1549.52 2241.19 1544.94 Q2238.14 1540.33 2238.14 1531.6 Q2238.14 1522.85 2241.19 1518.27 Q2244.27 1513.66 2250.08 1513.66 Z" fill="#000000" fill-rule="nonzero" fill-opacity="1" /><path clip-path="url(#clip150)" d="M2280.24 1517.37 Q2276.63 1517.37 2274.8 1520.93 Q2273 1524.47 2273 1531.6 Q2273 1538.71 2274.8 1542.27 Q2276.63 1545.82 2280.24 1545.82 Q2283.88 1545.82 2285.68 1542.27 Q2287.51 1538.71 2287.51 1531.6 Q2287.51 1524.47 2285.68 1520.93 Q2283.88 1517.37 2280.24 1517.37 M2280.24 1513.66 Q2286.05 1513.66 2289.11 1518.27 Q2292.19 1522.85 2292.19 1531.6 Q2292.19 1540.33 2289.11 1544.94 Q2286.05 1549.52 2280.24 1549.52 Q2274.43 1549.52 2271.35 1544.94 Q2268.3 1540.33 2268.3 1531.6 Q2268.3 1522.85 2271.35 1518.27 Q2274.43 1513.66 2280.24 1513.66 Z" fill="#000000" fill-rule="nonzero" fill-opacity="1" /><polyline clip-path="url(#clip152)" style="stroke:#000000; stroke-linecap:round; stroke-linejoin:round; stroke-width:2; stroke-opacity:0.1; fill:none" points="155.927,1445.72 2352.76,1445.72 "/>
<polyline clip-path="url(#clip152)" style="stroke:#000000; stroke-linecap:round; stroke-linejoin:round; stroke-width:2; stroke-opacity:0.1; fill:none" points="155.927,1181.92 2352.76,1181.92 "/>
<polyline clip-path="url(#clip152)" style="stroke:#000000; stroke-linecap:round; stroke-linejoin:round; stroke-width:2; stroke-opacity:0.1; fill:none" points="155.927,918.124 2352.76,918.124 "/>
<polyline clip-path="url(#clip152)" style="stroke:#000000; stroke-linecap:round; stroke-linejoin:round; stroke-width:2; stroke-opacity:0.1; fill:none" points="155.927,654.328 2352.76,654.328 "/>
<polyline clip-path="url(#clip152)" style="stroke:#000000; stroke-linecap:round; stroke-linejoin:round; stroke-width:2; stroke-opacity:0.1; fill:none" points="155.927,390.532 2352.76,390.532 "/>
<polyline clip-path="url(#clip152)" style="stroke:#000000; stroke-linecap:round; stroke-linejoin:round; stroke-width:2; stroke-opacity:0.1; fill:none" points="155.927,126.736 2352.76,126.736 "/>
<polyline clip-path="url(#clip150)" style="stroke:#000000; stroke-linecap:round; stroke-linejoin:round; stroke-width:4; stroke-opacity:1; fill:none" points="155.927,1486.45 155.927,47.2441 "/>
<polyline clip-path="url(#clip150)" style="stroke:#000000; stroke-linecap:round; stroke-linejoin:round; stroke-width:4; stroke-opacity:1; fill:none" points="155.927,1445.72 174.825,1445.72 "/>
<polyline clip-path="url(#clip150)" style="stroke:#000000; stroke-linecap:round; stroke-linejoin:round; stroke-width:4; stroke-opacity:1; fill:none" points="155.927,1181.92 174.825,1181.92 "/>
<polyline clip-path="url(#clip150)" style="stroke:#000000; stroke-linecap:round; stroke-linejoin:round; stroke-width:4; stroke-opacity:1; fill:none" points="155.927,918.124 174.825,918.124 "/>
<polyline clip-path="url(#clip150)" style="stroke:#000000; stroke-linecap:round; stroke-linejoin:round; stroke-width:4; stroke-opacity:1; fill:none" points="155.927,654.328 174.825,654.328 "/>
<polyline clip-path="url(#clip150)" style="stroke:#000000; stroke-linecap:round; stroke-linejoin:round; stroke-width:4; stroke-opacity:1; fill:none" points="155.927,390.532 174.825,390.532 "/>
<polyline clip-path="url(#clip150)" style="stroke:#000000; stroke-linecap:round; stroke-linejoin:round; stroke-width:4; stroke-opacity:1; fill:none" points="155.927,126.736 174.825,126.736 "/>
<path clip-path="url(#clip150)" d="M52.7977 1428.44 L71.1541 1428.44 L71.1541 1432.37 L57.0801 1432.37 L57.0801 1440.84 Q58.0986 1440.5 59.1171 1440.33 Q60.1356 1440.15 61.1541 1440.15 Q66.9411 1440.15 70.3207 1443.32 Q73.7003 1446.49 73.7003 1451.91 Q73.7003 1457.49 70.2281 1460.59 Q66.7559 1463.67 60.4365 1463.67 Q58.2606 1463.67 55.9921 1463.3 Q53.7467 1462.93 51.3393 1462.19 L51.3393 1457.49 Q53.4227 1458.62 55.6449 1459.18 Q57.8671 1459.73 60.3439 1459.73 Q64.3485 1459.73 66.6865 1457.63 Q69.0244 1455.52 69.0244 1451.91 Q69.0244 1448.3 66.6865 1446.19 Q64.3485 1444.08 60.3439 1444.08 Q58.4689 1444.08 56.5939 1444.5 Q54.7421 1444.92 52.7977 1445.8 L52.7977 1428.44 Z" fill="#000000" fill-rule="nonzero" fill-opacity="1" /><path clip-path="url(#clip150)" d="M82.9133 1457.12 L87.7975 1457.12 L87.7975 1463 L82.9133 1463 L82.9133 1457.12 Z" fill="#000000" fill-rule="nonzero" fill-opacity="1" /><path clip-path="url(#clip150)" d="M107.983 1431.51 Q104.371 1431.51 102.543 1435.08 Q100.737 1438.62 100.737 1445.75 Q100.737 1452.86 102.543 1456.42 Q104.371 1459.96 107.983 1459.96 Q111.617 1459.96 113.422 1456.42 Q115.251 1452.86 115.251 1445.75 Q115.251 1438.62 113.422 1435.08 Q111.617 1431.51 107.983 1431.51 M107.983 1427.81 Q113.793 1427.81 116.848 1432.42 Q119.927 1437 119.927 1445.75 Q119.927 1454.48 116.848 1459.08 Q113.793 1463.67 107.983 1463.67 Q102.172 1463.67 99.0937 1459.08 Q96.0382 1454.48 96.0382 1445.75 Q96.0382 1437 99.0937 1432.42 Q102.172 1427.81 107.983 1427.81 Z" fill="#000000" fill-rule="nonzero" fill-opacity="1" /><path clip-path="url(#clip150)" d="M53.793 1164.64 L72.1494 1164.64 L72.1494 1168.57 L58.0754 1168.57 L58.0754 1177.05 Q59.0939 1176.7 60.1124 1176.54 Q61.131 1176.35 62.1495 1176.35 Q67.9365 1176.35 71.3161 1179.52 Q74.6957 1182.7 74.6957 1188.11 Q74.6957 1193.69 71.2235 1196.79 Q67.7513 1199.87 61.4319 1199.87 Q59.256 1199.87 56.9875 1199.5 Q54.7421 1199.13 52.3347 1198.39 L52.3347 1193.69 Q54.418 1194.82 56.6402 1195.38 Q58.8625 1195.94 61.3393 1195.94 Q65.3439 1195.94 67.6819 1193.83 Q70.0198 1191.72 70.0198 1188.11 Q70.0198 1184.5 67.6819 1182.39 Q65.3439 1180.29 61.3393 1180.29 Q59.4643 1180.29 57.5893 1180.7 Q55.7375 1181.12 53.793 1182 L53.793 1164.64 Z" fill="#000000" fill-rule="nonzero" fill-opacity="1" /><path clip-path="url(#clip150)" d="M83.9086 1193.32 L88.7928 1193.32 L88.7928 1199.2 L83.9086 1199.2 L83.9086 1193.32 Z" fill="#000000" fill-rule="nonzero" fill-opacity="1" /><path clip-path="url(#clip150)" d="M99.0243 1164.64 L117.381 1164.64 L117.381 1168.57 L103.307 1168.57 L103.307 1177.05 Q104.325 1176.7 105.344 1176.54 Q106.362 1176.35 107.381 1176.35 Q113.168 1176.35 116.547 1179.52 Q119.927 1182.7 119.927 1188.11 Q119.927 1193.69 116.455 1196.79 Q112.983 1199.87 106.663 1199.87 Q104.487 1199.87 102.219 1199.5 Q99.9733 1199.13 97.566 1198.39 L97.566 1193.69 Q99.6493 1194.82 101.871 1195.38 Q104.094 1195.94 106.571 1195.94 Q110.575 1195.94 112.913 1193.83 Q115.251 1191.72 115.251 1188.11 Q115.251 1184.5 112.913 1182.39 Q110.575 1180.29 106.571 1180.29 Q104.696 1180.29 102.821 1180.7 Q100.969 1181.12 99.0243 1182 L99.0243 1164.64 Z" fill="#000000" fill-rule="nonzero" fill-opacity="1" /><path clip-path="url(#clip150)" d="M63.33 916.26 Q60.1819 916.26 58.33 918.413 Q56.5014 920.566 56.5014 924.316 Q56.5014 928.043 58.33 930.219 Q60.1819 932.371 63.33 932.371 Q66.4782 932.371 68.3068 930.219 Q70.1587 928.043 70.1587 924.316 Q70.1587 920.566 68.3068 918.413 Q66.4782 916.26 63.33 916.26 M72.6124 901.608 L72.6124 905.867 Q70.8531 905.034 69.0476 904.594 Q67.2652 904.154 65.5059 904.154 Q60.8763 904.154 58.4226 907.279 Q55.9921 910.404 55.6449 916.723 Q57.0106 914.71 59.0708 913.645 Q61.131 912.557 63.6078 912.557 Q68.8161 912.557 71.8253 915.728 Q74.8577 918.876 74.8577 924.316 Q74.8577 929.64 71.7096 932.858 Q68.5615 936.075 63.33 936.075 Q57.3347 936.075 54.1634 931.492 Q50.9921 926.885 50.9921 918.159 Q50.9921 909.964 54.881 905.103 Q58.7699 900.219 65.3208 900.219 Q67.08 900.219 68.8624 900.566 Q70.6679 900.913 72.6124 901.608 Z" fill="#000000" fill-rule="nonzero" fill-opacity="1" /><path clip-path="url(#clip150)" d="M82.9133 929.524 L87.7975 929.524 L87.7975 935.404 L82.9133 935.404 L82.9133 929.524 Z" fill="#000000" fill-rule="nonzero" fill-opacity="1" /><path clip-path="url(#clip150)" d="M107.983 903.923 Q104.371 903.923 102.543 907.487 Q100.737 911.029 100.737 918.159 Q100.737 925.265 102.543 928.83 Q104.371 932.371 107.983 932.371 Q111.617 932.371 113.422 928.83 Q115.251 925.265 115.251 918.159 Q115.251 911.029 113.422 907.487 Q111.617 903.923 107.983 903.923 M107.983 900.219 Q113.793 900.219 116.848 904.825 Q119.927 909.409 119.927 918.159 Q119.927 926.885 116.848 931.492 Q113.793 936.075 107.983 936.075 Q102.172 936.075 99.0937 931.492 Q96.0382 926.885 96.0382 918.159 Q96.0382 909.409 99.0937 904.825 Q102.172 900.219 107.983 900.219 Z" fill="#000000" fill-rule="nonzero" fill-opacity="1" /><path clip-path="url(#clip150)" d="M64.3254 652.465 Q61.1773 652.465 59.3254 654.617 Q57.4967 656.77 57.4967 660.52 Q57.4967 664.247 59.3254 666.423 Q61.1773 668.576 64.3254 668.576 Q67.4735 668.576 69.3022 666.423 Q71.1541 664.247 71.1541 660.52 Q71.1541 656.77 69.3022 654.617 Q67.4735 652.465 64.3254 652.465 M73.6077 637.812 L73.6077 642.071 Q71.8485 641.238 70.0429 640.798 Q68.2606 640.358 66.5013 640.358 Q61.8717 640.358 59.418 643.483 Q56.9875 646.608 56.6402 652.927 Q58.006 650.914 60.0662 649.849 Q62.1263 648.761 64.6032 648.761 Q69.8115 648.761 72.8207 651.932 Q75.8531 655.08 75.8531 660.52 Q75.8531 665.844 72.705 669.062 Q69.5568 672.279 64.3254 672.279 Q58.33 672.279 55.1588 667.696 Q51.9875 663.089 51.9875 654.363 Q51.9875 646.168 55.8764 641.307 Q59.7652 636.423 66.3161 636.423 Q68.0754 636.423 69.8578 636.77 Q71.6633 637.117 73.6077 637.812 Z" fill="#000000" fill-rule="nonzero" fill-opacity="1" /><path clip-path="url(#clip150)" d="M83.9086 665.728 L88.7928 665.728 L88.7928 671.608 L83.9086 671.608 L83.9086 665.728 Z" fill="#000000" fill-rule="nonzero" fill-opacity="1" /><path clip-path="url(#clip150)" d="M99.0243 637.048 L117.381 637.048 L117.381 640.983 L103.307 640.983 L103.307 649.455 Q104.325 649.108 105.344 648.946 Q106.362 648.761 107.381 648.761 Q113.168 648.761 116.547 651.932 Q119.927 655.103 119.927 660.52 Q119.927 666.099 116.455 669.201 Q112.983 672.279 106.663 672.279 Q104.487 672.279 102.219 671.909 Q99.9733 671.539 97.566 670.798 L97.566 666.099 Q99.6493 667.233 101.871 667.789 Q104.094 668.344 106.571 668.344 Q110.575 668.344 112.913 666.238 Q115.251 664.131 115.251 660.52 Q115.251 656.909 112.913 654.802 Q110.575 652.696 106.571 652.696 Q104.696 652.696 102.821 653.113 Q100.969 653.529 99.0243 654.409 L99.0243 637.048 Z" fill="#000000" fill-rule="nonzero" fill-opacity="1" /><path clip-path="url(#clip150)" d="M51.5708 373.252 L73.7929 373.252 L73.7929 375.243 L61.2467 407.812 L56.3625 407.812 L68.168 377.187 L51.5708 377.187 L51.5708 373.252 Z" fill="#000000" fill-rule="nonzero" fill-opacity="1" /><path clip-path="url(#clip150)" d="M82.9133 401.932 L87.7975 401.932 L87.7975 407.812 L82.9133 407.812 L82.9133 401.932 Z" fill="#000000" fill-rule="nonzero" fill-opacity="1" /><path clip-path="url(#clip150)" d="M107.983 376.331 Q104.371 376.331 102.543 379.896 Q100.737 383.437 100.737 390.567 Q100.737 397.673 102.543 401.238 Q104.371 404.78 107.983 404.78 Q111.617 404.78 113.422 401.238 Q115.251 397.673 115.251 390.567 Q115.251 383.437 113.422 379.896 Q111.617 376.331 107.983 376.331 M107.983 372.627 Q113.793 372.627 116.848 377.233 Q119.927 381.817 119.927 390.567 Q119.927 399.294 116.848 403.9 Q113.793 408.483 107.983 408.483 Q102.172 408.483 99.0937 403.9 Q96.0382 399.294 96.0382 390.567 Q96.0382 381.817 99.0937 377.233 Q102.172 372.627 107.983 372.627 Z" fill="#000000" fill-rule="nonzero" fill-opacity="1" /><path clip-path="url(#clip150)" d="M52.5662 109.456 L74.7883 109.456 L74.7883 111.447 L62.2421 144.016 L57.3578 144.016 L69.1633 113.391 L52.5662 113.391 L52.5662 109.456 Z" fill="#000000" fill-rule="nonzero" fill-opacity="1" /><path clip-path="url(#clip150)" d="M83.9086 138.137 L88.7928 138.137 L88.7928 144.016 L83.9086 144.016 L83.9086 138.137 Z" fill="#000000" fill-rule="nonzero" fill-opacity="1" /><path clip-path="url(#clip150)" d="M99.0243 109.456 L117.381 109.456 L117.381 113.391 L103.307 113.391 L103.307 121.863 Q104.325 121.516 105.344 121.354 Q106.362 121.169 107.381 121.169 Q113.168 121.169 116.547 124.34 Q119.927 127.512 119.927 132.928 Q119.927 138.507 116.455 141.609 Q112.983 144.687 106.663 144.687 Q104.487 144.687 102.219 144.317 Q99.9733 143.947 97.566 143.206 L97.566 138.507 Q99.6493 139.641 101.871 140.197 Q104.094 140.752 106.571 140.752 Q110.575 140.752 112.913 138.646 Q115.251 136.539 115.251 132.928 Q115.251 129.317 112.913 127.211 Q110.575 125.104 106.571 125.104 Q104.696 125.104 102.821 125.521 Q100.969 125.938 99.0243 126.817 L99.0243 109.456 Z" fill="#000000" fill-rule="nonzero" fill-opacity="1" /><polyline clip-path="url(#clip152)" style="stroke:#009af9; stroke-linecap:round; stroke-linejoin:round; stroke-width:4; stroke-opacity:1; fill:none" points="218.101,1445.72 220.121,1445.72 222.141,1445.72 224.161,1445.72 226.181,1340.2 228.201,1352.54 230.221,1369.43 232.241,1383.26 234.261,1394.58 236.281,1394.58 238.301,1291.98 240.321,1312.22 242.341,1336.42 244.361,1336.42 246.381,1178.93 248.401,1225.71 250.421,1265.59 252.441,1298.24 254.461,1298.24 256.481,1161.67 258.501,1173.02 260.521,1222.45 262.54,1262.92 264.56,1262.92 266.58,1166.44 268.6,1205.17 270.62,1248.78 272.64,1248.78 274.66,1095.99 276.68,1151.17 278.7,1151.17 280.72,1104.9 282.74,1160.4 284.76,1212.12 286.78,1212.12 288.8,1124.44 290.82,1160.93 292.84,1160.93 294.86,1041.94 296.88,1062.23 298.9,1062.23 300.92,932.501 302.94,932.501 304.96,871.086 306.98,889.614 309,889.614 311.02,785.26 313.04,903.846 315.059,903.846 317.079,837.848 319.099,845.885 321.119,845.885 323.139,716.217 325.159,818.539 327.179,818.539 329.199,750.004 331.219,840.422 333.239,950.143 335.259,1039.98 337.279,1113.52 339.299,1173.74 341.319,1173.74 343.339,1015.86 345.359,1015.86 347.379,898.324 349.399,949.898 351.419,949.898 353.439,832.293 355.459,898.607 357.479,997.781 359.499,1078.98 361.519,1145.46 363.539,1145.46 365.559,1079.06 367.578,1100.55 369.598,1163.12 371.618,1163.12 373.638,1010.37 375.658,1082.17 377.678,1082.17 379.698,971.431 381.718,998.989 383.738,1079.97 385.758,1079.97 387.778,988.131 389.798,1056.52 391.818,1056.52 393.838,924.318 395.858,988.173 397.878,1071.11 399.898,1139.02 401.918,1139.02 403.938,1008.13 405.958,1052.32 407.978,1052.32 409.998,1060.38 412.018,1072.53 414.038,1072.53 416.058,990.414 418.078,1048.01 420.097,1120.1 422.117,1179.13 424.137,1227.45 426.157,1267.02 428.177,1267.02 430.197,1124.66 432.217,1124.66 434.237,1021.42 436.257,1061.63 438.277,1131.25 440.297,1131.25 442.317,1078.64 444.337,1084.39 446.357,1084.39 448.377,934.734 450.397,1017.13 452.417,1094.82 454.437,1158.43 456.457,1210.5 458.477,1253.14 460.497,1288.05 462.517,1316.63 464.537,1316.63 466.557,1221.07 468.577,1246.41 470.596,1282.54 472.616,1282.54 474.636,1142.88 476.656,1165.84 478.676,1165.84 480.696,1086.85 482.716,1121.14 484.736,1121.14 486.756,975.852 488.776,1044.99 490.796,1117.63 492.816,1117.63 494.836,1026.44 496.856,1026.44 498.876,969.334 500.896,984.629 502.916,984.629 504.936,919.674 506.956,973.485 508.976,1059.09 510.996,1059.09 513.016,944.71 515.036,982.984 517.056,982.984 519.076,849.967 521.096,929.794 523.115,1023.31 525.135,1099.88 527.155,1099.88 529.175,993.233 531.195,1010.24 533.215,1089.18 535.235,1153.81 537.255,1206.72 539.275,1206.72 541.295,1061.2 543.315,1113.16 545.335,1113.16 547.355,1046.66 549.375,1046.66 551.395,892.957 553.415,927.046 555.435,1021.06 557.455,1021.06 559.475,941.074 561.495,1006.12 563.515,1006.12 565.535,904.401 567.555,937.089 569.575,937.089 571.595,814.378 573.615,889.958 575.634,889.958 577.654,806.228 579.674,841.037 581.694,950.647 583.714,1040.39 585.734,1040.39 587.754,998.661 589.774,1011.33 591.794,1011.33 593.814,857.483 595.834,959.153 597.854,1047.35 599.874,1119.56 601.894,1119.56 603.914,1019.33 605.934,1090.87 607.954,1090.87 609.974,986.087 611.994,1068.62 614.014,1136.98 616.034,1136.98 618.054,1033.18 620.074,1035.59 622.094,1035.59 624.114,920.531 626.134,920.531 628.153,776.529 630.173,816.182 632.193,930.297 634.213,1023.73 636.233,1100.22 638.253,1162.85 640.273,1162.85 642.293,1029.1 644.313,1072.23 646.333,1139.93 648.353,1139.93 650.373,1047.37 652.393,1105.15 654.413,1105.15 656.433,1058.24 658.453,1062.54 660.473,1132 662.493,1188.86 664.513,1188.86 666.533,1124.78 668.553,1132.41 670.573,1189.2 672.593,1235.7 674.613,1235.7 676.633,1161.66 678.652,1172.15 680.672,1221.74 682.692,1221.74 684.712,1199.27 686.732,1212.39 688.752,1254.68 690.772,1289.31 692.792,1317.66 694.812,1340.87 696.832,1359.88 698.852,1359.88 700.872,1212.39 702.892,1227.21 704.912,1227.21 706.932,1157.1 708.952,1163.73 710.972,1163.73 712.992,1048.81 715.012,1061.71 717.032,1061.71 719.052,961.367 721.072,1043.75 723.092,1116.61 725.112,1116.61 727.132,966.189 729.152,1043.51 731.171,1116.42 733.191,1116.42 735.211,982.016 737.231,982.016 739.251,962.394 741.271,986.238 743.291,986.238 745.311,898.705 747.331,916.357 749.351,1012.31 751.371,1090.88 753.391,1155.2 755.411,1207.86 757.431,1250.98 759.451,1250.98 761.471,1200.28 763.491,1242.62 765.511,1242.62 767.531,1092.51 769.551,1144.41 771.571,1199.03 773.591,1243.75 775.611,1280.36 777.631,1280.36 779.651,1133.83 781.671,1133.83 783.69,993.137 785.71,1023.01 787.73,1023.01 789.75,908.536 791.77,908.536 793.79,767.321 795.81,805.749 797.83,805.749 799.85,710.967 801.87,710.967 803.89,553.382 805.91,553.382 807.93,533.322 809.95,656.321 811.97,656.321 813.99,506.963 816.01,668.346 818.03,668.346 820.05,571.105 822.07,721.938 824.09,853.137 826.11,960.553 828.13,1048.5 830.15,1120.5 832.17,1120.5 834.19,1053.87 836.209,1081.33 838.229,1147.38 840.249,1147.38 842.269,1037.75 844.289,1046.63 846.309,1046.63 848.329,931.737 850.349,973.579 852.369,973.579 854.389,886.955 856.409,969.17 858.429,969.17 860.449,925.24 862.469,956.34 864.489,956.34 866.509,834.179 868.529,834.179 870.549,723.189 872.569,753.498 874.589,753.498 876.609,696.395 878.629,786.088 880.649,905.658 882.669,1003.55 884.689,1003.55 886.708,966.842 888.728,981.392 890.748,1065.56 892.768,1065.56 894.788,908.442 896.808,908.442 898.828,928.39 900.848,928.39 902.868,844.146 904.888,849.863 906.908,957.872 908.928,1046.3 910.948,1118.7 912.968,1177.98 914.988,1226.51 917.008,1266.25 919.028,1298.78 921.048,1298.78 923.068,1207.6 925.088,1207.6 927.108,1066.19 929.128,1075.13 931.148,1075.13 933.168,941.503 935.188,1003.48 937.208,1003.48 939.227,917.131 941.247,993.339 943.267,1075.34 945.287,1075.34 947.307,949.099 949.327,1000.62 951.347,1081.3 953.367,1147.36 955.387,1201.44 957.407,1245.72 959.427,1245.72 961.447,1150.29 963.467,1150.29 965.487,1027.21 967.507,1036.07 969.527,1036.07 971.547,914.953 973.567,967.811 975.587,1054.44 977.607,1125.37 979.627,1183.44 981.647,1230.98 983.667,1269.9 985.687,1269.9 987.707,1181.93 989.727,1181.93 991.746,1080.47 993.766,1080.47 995.786,931.233 997.806,958.424 999.826,958.424 1001.85,868.927 1003.87,895.872 1005.89,995.542 1007.91,995.542 1009.93,927.155 1011.95,982.987 1013.97,1066.87 1015.99,1135.54 1018.01,1191.76 1020.03,1237.8 1022.05,1237.8 1024.07,1143.56 1026.09,1143.56 1028.11,1071.1 1030.13,1081.57 1032.15,1147.58 1034.17,1201.62 1036.19,1245.87 1038.21,1245.87 1040.23,1166.38 1042.25,1182.77 1044.27,1230.43 1046.29,1269.46 1048.31,1301.41 1050.33,1327.57 1052.35,1327.57 1054.37,1189.61 1056.39,1192.48 1058.41,1238.38 1060.43,1275.97 1062.45,1275.97 1064.47,1194.69 1066.49,1205.95 1068.5,1249.41 1070.52,1285 1072.54,1285 1074.56,1201.64 1076.58,1213.92 1078.6,1255.94 1080.62,1255.94 1082.64,1118.06 1084.66,1145.15 1086.68,1199.63 1088.7,1199.63 1090.72,1112.6 1092.74,1150.83 1094.76,1204.29 1096.78,1248.05 1098.8,1283.88 1100.82,1283.88 1102.84,1142.81 1104.86,1168.21 1106.88,1168.21 1108.9,1071.74 1110.92,1071.74 1112.94,995.872 1114.96,1032.22 1116.98,1032.22 1119,957.694 1121.02,957.694 1123.04,838.326 1125.06,861.562 1127.08,967.451 1129.1,1054.15 1131.12,1125.13 1133.14,1125.13 1135.16,1056.85 1137.18,1085.49 1139.2,1085.49 1141.22,993.403 1143.24,1061.05 1145.26,1130.78 1147.28,1187.87 1149.3,1234.61 1151.32,1234.61 1153.34,1215.94 1155.36,1221.36 1157.38,1262.03 1159.4,1295.33 1161.42,1295.33 1163.44,1163.77 1165.46,1164.99 1167.48,1215.88 1169.5,1215.88 1171.52,1087.78 1173.54,1108.37 1175.56,1169.52 1177.58,1219.58 1179.6,1260.57 1181.62,1260.57 1183.64,1239.5 1185.66,1242.02 1187.68,1242.02 1189.7,1206.5 1191.72,1231.76 1193.74,1231.76 1195.76,1154.08 1197.78,1171.22 1199.8,1171.22 1201.82,1020.49 1203.84,1087.73 1205.86,1152.62 1207.88,1205.75 1209.9,1249.25 1211.92,1284.86 1213.94,1284.86 1215.96,1205.34 1217.98,1210.98 1220,1253.53 1222.02,1288.37 1224.04,1288.37 1226.06,1239.48 1228.08,1239.48 1230.1,1193.17 1232.12,1226.88 1234.14,1266.55 1236.16,1299.03 1238.18,1299.03 1240.2,1142.31 1242.22,1194.64 1244.24,1194.64 1246.26,1039.26 1248.28,1039.26 1250.3,931.698 1252.32,931.698 1254.34,793.599 1256.36,803.363 1258.38,919.802 1260.4,1015.13 1262.42,1015.13 1264.44,872.897 1266.46,872.897 1268.48,775.528 1270.5,807.968 1272.52,807.968 1274.54,709.358 1276.56,836.235 1278.58,836.235 1280.6,707.931 1282.62,810.425 1284.64,810.425 1286.66,662.565 1288.68,793.837 1290.7,793.837 1292.72,805.346 1294.74,806.709 1296.76,806.709 1298.78,770.829 1300.8,770.829 1302.82,683.322 1304.84,725.967 1306.86,856.436 1308.88,963.254 1310.9,963.254 1312.92,863.147 1314.94,963.338 1316.96,963.338 1318.98,850.647 1321,850.647 1323.02,779.968 1325.04,806.327 1327.06,922.229 1329.08,1017.12 1331.1,1094.81 1333.12,1158.42 1335.14,1210.5 1337.16,1253.14 1339.18,1288.04 1341.2,1288.04 1343.22,1131.96 1345.24,1131.96 1347.26,1009.27 1349.28,1036.98 1351.3,1111.07 1353.32,1171.73 1355.34,1171.73 1357.36,1020.59 1359.38,1088.35 1361.4,1153.13 1363.42,1153.13 1365.44,1069.12 1367.46,1112.92 1369.48,1112.92 1371.5,1002.58 1373.52,1021.85 1375.54,1021.85 1377.56,944.65 1379.58,944.65 1381.6,815.914 1383.62,815.914 1385.64,662.241 1387.66,709.896 1389.68,709.896 1391.7,712.606 1393.72,741.988 1395.74,741.988 1397.76,649.956 1399.78,781.473 1401.8,901.88 1403.82,901.88 1405.84,824.417 1407.86,909.37 1409.88,909.37 1411.9,826.884 1413.92,855.681 1415.94,855.681 1417.96,755.246 1419.98,818.965 1422,818.965 1424.02,679.575 1426.04,679.575 1428.06,599.094 1430.08,706.878 1432.1,706.878 1434.12,552.44 1436.14,710.543 1438.16,710.543 1440.18,575.029 1442.2,710.079 1444.22,710.079 1446.24,732.984 1448.26,732.984 1450.28,578.899 1452.3,580.843 1454.32,737.617 1456.34,737.617 1458.36,715.221 1460.38,820.843 1462.4,820.843 1464.42,723.407 1466.44,790.548 1468.46,909.31 1470.48,1006.54 1472.5,1086.15 1474.52,1086.15 1476.54,970.899 1478.56,1004.13 1480.58,1084.18 1482.6,1149.71 1484.62,1149.71 1486.64,1070.81 1488.66,1108.44 1490.68,1169.58 1492.7,1219.63 1494.72,1260.62 1496.74,1294.17 1498.76,1321.64 1500.78,1344.13 1502.8,1362.55 1504.82,1377.62 1506.84,1389.96 1508.86,1400.07 1510.88,1408.34 1512.9,1415.12 1514.92,1420.67 1516.94,1425.21 1518.96,1425.21 1520.98,1268.33 1523,1289.82 1525.02,1289.82 1527.04,1241.17 1529.06,1273.72 1531.08,1304.89 1533.1,1304.89 1535.12,1156.13 1537.14,1191.44 1539.16,1237.53 1541.18,1275.27 1543.2,1275.27 1545.22,1170.78 1547.24,1219.25 1549.26,1260.3 1551.28,1260.3 1553.3,1104.42 1555.32,1162.63 1557.34,1213.94 1559.36,1255.96 1561.38,1290.35 1563.4,1290.35 1565.42,1147.07 1567.44,1175.09 1569.46,1224.14 1571.48,1264.31 1573.5,1297.19 1575.52,1297.19 1577.54,1251.07 1579.56,1251.07 1581.58,1147.94 1583.6,1147.94 1585.62,1022.97 1587.64,1032.71 1589.65,1107.57 1591.67,1168.87 1593.69,1168.87 1595.71,1011.14 1597.73,1011.14 1599.75,862.092 1601.77,956.547 1603.79,956.547 1605.81,902.191 1607.83,948.736 1609.85,948.736 1611.87,866.052 1613.89,885.989 1615.91,987.45 1617.93,1070.52 1619.95,1138.53 1621.97,1194.21 1623.99,1194.21 1626.01,1064.33 1628.03,1093.73 1630.05,1093.73 1632.07,1039.46 1634.09,1056.42 1636.11,1126.99 1638.13,1126.99 1640.15,1063.35 1642.17,1085.3 1644.19,1085.3 1646.21,995.325 1648.23,1060.35 1650.25,1130.2 1652.27,1130.2 1654.29,986.957 1656.31,1051.33 1658.33,1122.82 1660.35,1181.35 1662.37,1229.27 1664.39,1268.51 1666.41,1300.63 1668.43,1300.63 1670.45,1206.38 1672.47,1233.26 1674.49,1271.77 1676.51,1271.77 1678.53,1140.58 1680.55,1140.58 1682.57,990.943 1684.59,991.86 1686.61,991.86 1688.63,932.128 1690.65,978.045 1692.67,1062.82 1694.69,1132.23 1696.71,1132.23 1698.73,1026.31 1700.75,1033.48 1702.77,1033.48 1704.79,930.608 1706.81,1021.26 1708.83,1021.26 1710.85,1004.63 1712.87,1004.63 1714.89,919.359 1716.91,952.009 1718.93,1041.5 1720.95,1114.77 1722.97,1174.76 1724.99,1223.88 1727.01,1223.88 1729.03,1155.78 1731.05,1160.17 1733.07,1211.93 1735.09,1254.31 1737.11,1254.31 1739.13,1153.37 1741.15,1200.5 1743.17,1244.95 1745.19,1281.34 1747.21,1311.14 1749.23,1311.14 1751.25,1221.32 1753.27,1237.73 1755.29,1275.43 1757.31,1275.43 1759.33,1136.08 1761.35,1160.51 1763.37,1212.21 1765.39,1212.21 1767.41,1133.04 1769.43,1157.15 1771.45,1209.46 1773.47,1252.29 1775.49,1287.35 1777.51,1316.06 1779.53,1339.56 1781.55,1358.8 1783.57,1358.8 1785.59,1205.16 1787.61,1237.67 1789.63,1275.38 1791.65,1306.26 1793.67,1331.54 1795.69,1352.23 1797.71,1352.23 1799.73,1248.71 1801.75,1280.91 1803.77,1280.91 1805.79,1196.65 1807.81,1196.65 1809.83,1156.98 1811.85,1159.25 1813.87,1211.17 1815.89,1211.17 1817.91,1187.89 1819.93,1204.28 1821.95,1248.05 1823.97,1283.88 1825.99,1313.22 1828.01,1313.22 1830.03,1212.96 1832.05,1247.27 1834.07,1283.24 1836.09,1312.69 1838.11,1336.81 1840.13,1356.55 1842.15,1356.55 1844.17,1255.53 1846.19,1281.72 1848.21,1281.72 1850.23,1137.47 1852.25,1169.74 1854.27,1219.77 1856.29,1219.77 1858.31,1089.19 1860.33,1113.04 1862.35,1173.34 1864.37,1222.71 1866.39,1222.71 1868.41,1096.57 1870.43,1111.74 1872.45,1172.28 1874.47,1221.84 1876.49,1221.84 1878.51,1142.2 1880.53,1142.2 1882.55,984.392 1884.57,984.392 1886.59,840.103 1888.61,866.65 1890.63,971.617 1892.65,971.617 1894.67,929.508 1896.69,1013.37 1898.71,1013.37 1900.73,923.335 1902.75,923.335 1904.77,829.656 1906.79,829.656 1908.81,688.326 1910.83,691.069 1912.85,827.863 1914.87,827.863 1916.89,768.311 1918.91,846.526 1920.93,846.526 1922.95,752.676 1924.97,752.676 1926.99,727.429 1929.01,767.385 1931.03,767.385 1933.05,724.698 1935.07,734.141 1937.09,734.141 1939.11,618.442 1941.13,725.293 1943.15,725.293 1945.17,629.269 1947.19,629.269 1949.21,516.72 1951.23,563.78 1953.25,563.78 1955.27,502.344 1957.29,502.344 1959.31,522.226 1961.33,527.834 1963.35,527.834 1965.37,388.609 1967.39,388.609 1969.41,273.596 1971.43,273.596 1973.45,183.832 1975.47,183.832 1977.49,87.9763 1979.51,178.905 1981.53,408.539 1983.55,596.547 1985.57,750.475 1987.59,750.475 1989.61,645.874 1991.63,736.072 1993.65,736.072 1995.67,603.759 1997.69,730.201 1999.71,859.902 2001.73,859.902 2003.75,844.253 2005.77,864.046 2007.79,864.046 2009.81,760.375 2011.83,760.375 2013.85,690.815 2015.87,791.353 2017.89,791.353 2019.91,700.233 2021.93,700.233 2023.95,672.711 2025.97,722.977 2027.99,853.988 2030.01,961.25 2032.03,1049.07 2034.05,1120.97 2036.07,1179.84 2038.09,1179.84 2040.11,1107.25 2042.13,1107.25 2044.15,963.007 2046.17,975.118 2048.19,975.118 2050.21,938.078 2052.23,959.32 2054.25,959.32 2056.27,925.599 2058.29,946.137 2060.31,1036.69 2062.33,1110.84 2064.35,1110.84 2066.37,955.715 2068.39,1040.72 2070.41,1114.13 2072.43,1114.13 2074.45,1092.94 2076.47,1126.5 2078.49,1184.36 2080.51,1231.74 2082.53,1270.53 2084.55,1270.53 2086.57,1122.99 2088.59,1122.99 2090.61,967.55 2092.63,1024.96 2094.65,1101.23 2096.67,1101.23 2098.69,1073.01 2100.71,1117.16 2102.73,1176.72 2104.75,1225.48 2106.77,1265.4 2108.78,1298.09 2110.8,1324.85 2112.82,1324.85 2114.84,1172.51 2116.86,1210.48 2118.88,1210.48 2120.9,1064.6 2122.92,1064.6 2124.94,964.265 2126.96,1023.87 2128.98,1100.34 2131,1162.94 2133.02,1162.94 2135.04,1011.09 2137.06,1081.6 2139.08,1081.6 2141.1,1031.75 2143.12,1045.62 2145.14,1118.15 2147.16,1177.52 2149.18,1226.14 2151.2,1265.94 2153.22,1298.53 2155.24,1325.21 2157.26,1347.05 2159.28,1347.05 2161.3,1298.02 2163.32,1298.02 2165.34,1205.16 2167.36,1221.85 2169.38,1221.85 2171.4,1069.81 2173.42,1129.13 2175.44,1186.51 2177.46,1233.5 2179.48,1271.97 2181.5,1303.46 2183.52,1303.46 2185.54,1160.56 2187.56,1183.95 2189.58,1183.95 2191.6,1148.05 2193.62,1185.24 2195.64,1232.45 2197.66,1271.11 2199.68,1302.76 2201.7,1328.67 2203.72,1349.89 2205.74,1349.89 2207.76,1312.07 2209.78,1316.09 2211.8,1339.59 2213.82,1358.82 2215.84,1374.57 2217.86,1374.57 2219.88,1323.91 2221.9,1323.91 2223.92,1227.87 2225.94,1227.87 2227.96,1086.93 2229.98,1089.13 2232,1089.13 2234.02,947.28 2236.04,947.28 2238.06,821.714 2240.08,872.533 2242.1,976.433 2244.12,1061.5 2246.14,1131.15 2248.16,1188.17 2250.18,1234.85 2252.2,1273.08 2254.22,1273.08 2256.24,1126.38 2258.26,1165.47 2260.28,1216.27 2262.3,1257.86 2264.32,1291.91 2266.34,1319.79 2268.36,1342.62 2270.38,1361.31 2272.4,1361.31 2274.42,1265.66 2276.44,1278.77 2278.46,1278.77 2280.48,1135.33 2282.5,1166.81 2284.52,1217.36 2286.54,1258.76 2288.56,1292.65 2290.58,1320.39 "/>
<path clip-path="url(#clip150)" d="M229.155 198.898 L501.268 198.898 L501.268 95.2176 L229.155 95.2176  Z" fill="#ffffff" fill-rule="evenodd" fill-opacity="1"/>
<polyline clip-path="url(#clip150)" style="stroke:#000000; stroke-linecap:round; stroke-linejoin:round; stroke-width:4; stroke-opacity:1; fill:none" points="229.155,198.898 501.268,198.898 501.268,95.2176 229.155,95.2176 229.155,198.898 "/>
<polyline clip-path="url(#clip150)" style="stroke:#009af9; stroke-linecap:round; stroke-linejoin:round; stroke-width:4; stroke-opacity:1; fill:none" points="253.564,147.058 400.019,147.058 "/>
<path clip-path="url(#clip150)" d="M438.271 166.745 Q436.465 171.375 434.752 172.787 Q433.039 174.199 430.169 174.199 L426.766 174.199 L426.766 170.634 L429.266 170.634 Q431.025 170.634 431.998 169.8 Q432.97 168.967 434.15 165.865 L434.914 163.921 L424.428 138.412 L428.942 138.412 L437.044 158.689 L445.146 138.412 L449.66 138.412 L438.271 166.745 Z" fill="#000000" fill-rule="nonzero" fill-opacity="1" /><path clip-path="url(#clip150)" d="M456.951 160.402 L464.59 160.402 L464.59 134.037 L456.28 135.703 L456.28 131.444 L464.544 129.778 L469.22 129.778 L469.22 160.402 L476.859 160.402 L476.859 164.338 L456.951 164.338 L456.951 160.402 Z" fill="#000000" fill-rule="nonzero" fill-opacity="1" /></svg>
