<?xml version="1.0" encoding="utf-8"?>
<svg xmlns="http://www.w3.org/2000/svg" xmlns:xlink="http://www.w3.org/1999/xlink" width="600" height="400" viewBox="0 0 2400 1600">
<defs>
  <clipPath id="clip270">
    <rect x="0" y="0" width="2400" height="1600"/>
  </clipPath>
</defs>
<path clip-path="url(#clip270)" d="M0 1600 L2400 1600 L2400 0 L0 0  Z" fill="#ffffff" fill-rule="evenodd" fill-opacity="1"/>
<defs>
  <clipPath id="clip271">
    <rect x="480" y="0" width="1681" height="1600"/>
  </clipPath>
</defs>
<path clip-path="url(#clip270)" d="M140.696 1423.18 L2352.76 1423.18 L2352.76 47.2441 L140.696 47.2441  Z" fill="#ffffff" fill-rule="evenodd" fill-opacity="1"/>
<defs>
  <clipPath id="clip272">
    <rect x="140" y="47" width="2213" height="1377"/>
  </clipPath>
</defs>
<polyline clip-path="url(#clip272)" style="stroke:#000000; stroke-linecap:round; stroke-linejoin:round; stroke-width:2; stroke-opacity:0.1; fill:none" points="575.815,1423.18 575.815,47.2441 "/>
<polyline clip-path="url(#clip272)" style="stroke:#000000; stroke-linecap:round; stroke-linejoin:round; stroke-width:2; stroke-opacity:0.1; fill:none" points="1022.93,1423.18 1022.93,47.2441 "/>
<polyline clip-path="url(#clip272)" style="stroke:#000000; stroke-linecap:round; stroke-linejoin:round; stroke-width:2; stroke-opacity:0.1; fill:none" points="1470.04,1423.18 1470.04,47.2441 "/>
<polyline clip-path="url(#clip272)" style="stroke:#000000; stroke-linecap:round; stroke-linejoin:round; stroke-width:2; stroke-opacity:0.1; fill:none" points="1917.15,1423.18 1917.15,47.2441 "/>
<polyline clip-path="url(#clip270)" style="stroke:#000000; stroke-linecap:round; stroke-linejoin:round; stroke-width:4; stroke-opacity:1; fill:none" points="140.696,1423.18 2352.76,1423.18 "/>
<polyline clip-path="url(#clip270)" style="stroke:#000000; stroke-linecap:round; stroke-linejoin:round; stroke-width:4; stroke-opacity:1; fill:none" points="575.815,1423.18 575.815,1404.28 "/>
<polyline clip-path="url(#clip270)" style="stroke:#000000; stroke-linecap:round; stroke-linejoin:round; stroke-width:4; stroke-opacity:1; fill:none" points="1022.93,1423.18 1022.93,1404.28 "/>
<polyline clip-path="url(#clip270)" style="stroke:#000000; stroke-linecap:round; stroke-linejoin:round; stroke-width:4; stroke-opacity:1; fill:none" points="1470.04,1423.18 1470.04,1404.28 "/>
<polyline clip-path="url(#clip270)" style="stroke:#000000; stroke-linecap:round; stroke-linejoin:round; stroke-width:4; stroke-opacity:1; fill:none" points="1917.15,1423.18 1917.15,1404.28 "/>
<path clip-path="url(#clip270)" d="M550.503 1481.64 L558.142 1481.64 L558.142 1455.28 L549.832 1456.95 L549.832 1452.69 L558.096 1451.02 L562.772 1451.02 L562.772 1481.64 L570.41 1481.64 L570.41 1485.58 L550.503 1485.58 L550.503 1481.64 Z" fill="#000000" fill-rule="nonzero" fill-opacity="1" /><path clip-path="url(#clip270)" d="M589.855 1454.1 Q586.244 1454.1 584.415 1457.66 Q582.609 1461.2 582.609 1468.33 Q582.609 1475.44 584.415 1479.01 Q586.244 1482.55 589.855 1482.55 Q593.489 1482.55 595.295 1479.01 Q597.123 1475.44 597.123 1468.33 Q597.123 1461.2 595.295 1457.66 Q593.489 1454.1 589.855 1454.1 M589.855 1450.39 Q595.665 1450.39 598.72 1455 Q601.799 1459.58 601.799 1468.33 Q601.799 1477.06 598.72 1481.67 Q595.665 1486.25 589.855 1486.25 Q584.045 1486.25 580.966 1481.67 Q577.91 1477.06 577.91 1468.33 Q577.91 1459.58 580.966 1455 Q584.045 1450.39 589.855 1450.39 Z" fill="#000000" fill-rule="nonzero" fill-opacity="1" /><path clip-path="url(#clip270)" d="M1001.7 1481.64 L1018.02 1481.64 L1018.02 1485.58 L996.075 1485.58 L996.075 1481.64 Q998.737 1478.89 1003.32 1474.26 Q1007.93 1469.61 1009.11 1468.27 Q1011.35 1465.74 1012.23 1464.01 Q1013.13 1462.25 1013.13 1460.56 Q1013.13 1457.8 1011.19 1456.07 Q1009.27 1454.33 1006.17 1454.33 Q1003.97 1454.33 1001.51 1455.09 Q999.084 1455.86 996.306 1457.41 L996.306 1452.69 Q999.13 1451.55 1001.58 1450.97 Q1004.04 1450.39 1006.07 1450.39 Q1011.44 1450.39 1014.64 1453.08 Q1017.83 1455.77 1017.83 1460.26 Q1017.83 1462.39 1017.02 1464.31 Q1016.24 1466.2 1014.13 1468.8 Q1013.55 1469.47 1010.45 1472.69 Q1007.35 1475.88 1001.7 1481.64 Z" fill="#000000" fill-rule="nonzero" fill-opacity="1" /><path clip-path="url(#clip270)" d="M1037.83 1454.1 Q1034.22 1454.1 1032.39 1457.66 Q1030.59 1461.2 1030.59 1468.33 Q1030.59 1475.44 1032.39 1479.01 Q1034.22 1482.55 1037.83 1482.55 Q1041.47 1482.55 1043.27 1479.01 Q1045.1 1475.44 1045.1 1468.33 Q1045.1 1461.2 1043.27 1457.66 Q1041.47 1454.1 1037.83 1454.1 M1037.83 1450.39 Q1043.64 1450.39 1046.7 1455 Q1049.78 1459.58 1049.78 1468.33 Q1049.78 1477.06 1046.7 1481.67 Q1043.64 1486.25 1037.83 1486.25 Q1032.02 1486.25 1028.94 1481.67 Q1025.89 1477.06 1025.89 1468.33 Q1025.89 1459.58 1028.94 1455 Q1032.02 1450.39 1037.83 1450.39 Z" fill="#000000" fill-rule="nonzero" fill-opacity="1" /><path clip-path="url(#clip270)" d="M1458.88 1466.95 Q1462.24 1467.66 1464.11 1469.93 Q1466.01 1472.2 1466.01 1475.53 Q1466.01 1480.65 1462.49 1483.45 Q1458.97 1486.25 1452.49 1486.25 Q1450.32 1486.25 1448 1485.81 Q1445.71 1485.39 1443.26 1484.54 L1443.26 1480.02 Q1445.2 1481.16 1447.51 1481.74 Q1449.83 1482.32 1452.35 1482.32 Q1456.75 1482.32 1459.04 1480.58 Q1461.36 1478.84 1461.36 1475.53 Q1461.36 1472.48 1459.2 1470.77 Q1457.07 1469.03 1453.26 1469.03 L1449.23 1469.03 L1449.23 1465.19 L1453.44 1465.19 Q1456.89 1465.19 1458.72 1463.82 Q1460.55 1462.43 1460.55 1459.84 Q1460.55 1457.18 1458.65 1455.77 Q1456.77 1454.33 1453.26 1454.33 Q1451.33 1454.33 1449.13 1454.75 Q1446.94 1455.16 1444.3 1456.04 L1444.3 1451.88 Q1446.96 1451.14 1449.27 1450.77 Q1451.61 1450.39 1453.67 1450.39 Q1459 1450.39 1462.1 1452.83 Q1465.2 1455.23 1465.2 1459.35 Q1465.2 1462.22 1463.56 1464.21 Q1461.91 1466.18 1458.88 1466.95 Z" fill="#000000" fill-rule="nonzero" fill-opacity="1" /><path clip-path="url(#clip270)" d="M1484.88 1454.1 Q1481.26 1454.1 1479.44 1457.66 Q1477.63 1461.2 1477.63 1468.33 Q1477.63 1475.44 1479.44 1479.01 Q1481.26 1482.55 1484.88 1482.55 Q1488.51 1482.55 1490.32 1479.01 Q1492.14 1475.44 1492.14 1468.33 Q1492.14 1461.2 1490.32 1457.66 Q1488.51 1454.1 1484.88 1454.1 M1484.88 1450.39 Q1490.69 1450.39 1493.74 1455 Q1496.82 1459.58 1496.82 1468.33 Q1496.82 1477.06 1493.74 1481.67 Q1490.69 1486.25 1484.88 1486.25 Q1479.07 1486.25 1475.99 1481.67 Q1472.93 1477.06 1472.93 1468.33 Q1472.93 1459.58 1475.99 1455 Q1479.07 1450.39 1484.88 1450.39 Z" fill="#000000" fill-rule="nonzero" fill-opacity="1" /><path clip-path="url(#clip270)" d="M1905.32 1455.09 L1893.51 1473.54 L1905.32 1473.54 L1905.32 1455.09 M1904.09 1451.02 L1909.97 1451.02 L1909.97 1473.54 L1914.9 1473.54 L1914.9 1477.43 L1909.97 1477.43 L1909.97 1485.58 L1905.32 1485.58 L1905.32 1477.43 L1889.72 1477.43 L1889.72 1472.92 L1904.09 1451.02 Z" fill="#000000" fill-rule="nonzero" fill-opacity="1" /><path clip-path="url(#clip270)" d="M1932.63 1454.1 Q1929.02 1454.1 1927.19 1457.66 Q1925.39 1461.2 1925.39 1468.33 Q1925.39 1475.44 1927.19 1479.01 Q1929.02 1482.55 1932.63 1482.55 Q1936.27 1482.55 1938.07 1479.01 Q1939.9 1475.44 1939.9 1468.33 Q1939.9 1461.2 1938.07 1457.66 Q1936.27 1454.1 1932.63 1454.1 M1932.63 1450.39 Q1938.44 1450.39 1941.5 1455 Q1944.58 1459.58 1944.58 1468.33 Q1944.58 1477.06 1941.5 1481.67 Q1938.44 1486.25 1932.63 1486.25 Q1926.82 1486.25 1923.75 1481.67 Q1920.69 1477.06 1920.69 1468.33 Q1920.69 1459.58 1923.75 1455 Q1926.82 1450.39 1932.63 1450.39 Z" fill="#000000" fill-rule="nonzero" fill-opacity="1" /><path clip-path="url(#clip270)" d="M1245.79 1522.27 L1245.79 1532.4 L1257.85 1532.4 L1257.85 1536.95 L1245.79 1536.95 L1245.79 1556.3 Q1245.79 1560.66 1246.96 1561.9 Q1248.17 1563.14 1251.83 1563.14 L1257.85 1563.14 L1257.85 1568.04 L1251.83 1568.04 Q1245.05 1568.04 1242.48 1565.53 Q1239.9 1562.98 1239.9 1556.3 L1239.9 1536.95 L1235.6 1536.95 L1235.6 1532.4 L1239.9 1532.4 L1239.9 1522.27 L1245.79 1522.27 Z" fill="#000000" fill-rule="nonzero" fill-opacity="1" /><polyline clip-path="url(#clip272)" style="stroke:#000000; stroke-linecap:round; stroke-linejoin:round; stroke-width:2; stroke-opacity:0.1; fill:none" points="140.696,1389.56 2352.76,1389.56 "/>
<polyline clip-path="url(#clip272)" style="stroke:#000000; stroke-linecap:round; stroke-linejoin:round; stroke-width:2; stroke-opacity:0.1; fill:none" points="140.696,992.836 2352.76,992.836 "/>
<polyline clip-path="url(#clip272)" style="stroke:#000000; stroke-linecap:round; stroke-linejoin:round; stroke-width:2; stroke-opacity:0.1; fill:none" points="140.696,596.114 2352.76,596.114 "/>
<polyline clip-path="url(#clip272)" style="stroke:#000000; stroke-linecap:round; stroke-linejoin:round; stroke-width:2; stroke-opacity:0.1; fill:none" points="140.696,199.391 2352.76,199.391 "/>
<polyline clip-path="url(#clip270)" style="stroke:#000000; stroke-linecap:round; stroke-linejoin:round; stroke-width:4; stroke-opacity:1; fill:none" points="140.696,1423.18 140.696,47.2441 "/>
<polyline clip-path="url(#clip270)" style="stroke:#000000; stroke-linecap:round; stroke-linejoin:round; stroke-width:4; stroke-opacity:1; fill:none" points="140.696,1389.56 159.593,1389.56 "/>
<polyline clip-path="url(#clip270)" style="stroke:#000000; stroke-linecap:round; stroke-linejoin:round; stroke-width:4; stroke-opacity:1; fill:none" points="140.696,992.836 159.593,992.836 "/>
<polyline clip-path="url(#clip270)" style="stroke:#000000; stroke-linecap:round; stroke-linejoin:round; stroke-width:4; stroke-opacity:1; fill:none" points="140.696,596.114 159.593,596.114 "/>
<polyline clip-path="url(#clip270)" style="stroke:#000000; stroke-linecap:round; stroke-linejoin:round; stroke-width:4; stroke-opacity:1; fill:none" points="140.696,199.391 159.593,199.391 "/>
<path clip-path="url(#clip270)" d="M92.7512 1375.36 Q89.1401 1375.36 87.3114 1378.92 Q85.5058 1382.46 85.5058 1389.59 Q85.5058 1396.7 87.3114 1400.26 Q89.1401 1403.81 92.7512 1403.81 Q96.3854 1403.81 98.1909 1400.26 Q100.02 1396.7 100.02 1389.59 Q100.02 1382.46 98.1909 1378.92 Q96.3854 1375.36 92.7512 1375.36 M92.7512 1371.65 Q98.5613 1371.65 101.617 1376.26 Q104.696 1380.84 104.696 1389.59 Q104.696 1398.32 101.617 1402.93 Q98.5613 1407.51 92.7512 1407.51 Q86.941 1407.51 83.8623 1402.93 Q80.8068 1398.32 80.8068 1389.59 Q80.8068 1380.84 83.8623 1376.26 Q86.941 1371.65 92.7512 1371.65 Z" fill="#000000" fill-rule="nonzero" fill-opacity="1" /><path clip-path="url(#clip270)" d="M53.3995 1006.18 L61.0384 1006.18 L61.0384 979.815 L52.7282 981.482 L52.7282 977.222 L60.9921 975.556 L65.668 975.556 L65.668 1006.18 L73.3068 1006.18 L73.3068 1010.12 L53.3995 1010.12 L53.3995 1006.18 Z" fill="#000000" fill-rule="nonzero" fill-opacity="1" /><path clip-path="url(#clip270)" d="M92.7512 978.635 Q89.1401 978.635 87.3114 982.199 Q85.5058 985.741 85.5058 992.871 Q85.5058 999.977 87.3114 1003.54 Q89.1401 1007.08 92.7512 1007.08 Q96.3854 1007.08 98.1909 1003.54 Q100.02 999.977 100.02 992.871 Q100.02 985.741 98.1909 982.199 Q96.3854 978.635 92.7512 978.635 M92.7512 974.931 Q98.5613 974.931 101.617 979.537 Q104.696 984.121 104.696 992.871 Q104.696 1001.6 101.617 1006.2 Q98.5613 1010.79 92.7512 1010.79 Q86.941 1010.79 83.8623 1006.2 Q80.8068 1001.6 80.8068 992.871 Q80.8068 984.121 83.8623 979.537 Q86.941 974.931 92.7512 974.931 Z" fill="#000000" fill-rule="nonzero" fill-opacity="1" /><path clip-path="url(#clip270)" d="M56.6171 609.458 L72.9365 609.458 L72.9365 613.394 L50.9921 613.394 L50.9921 609.458 Q53.6541 606.704 58.2375 602.074 Q62.8439 597.421 64.0245 596.079 Q66.2698 593.556 67.1494 591.82 Q68.0522 590.06 68.0522 588.371 Q68.0522 585.616 66.1078 583.88 Q64.1865 582.144 61.0847 582.144 Q58.8856 582.144 56.4319 582.908 Q54.0014 583.672 51.2236 585.222 L51.2236 580.5 Q54.0477 579.366 56.5014 578.787 Q58.955 578.209 60.9921 578.209 Q66.3624 578.209 69.5568 580.894 Q72.7513 583.579 72.7513 588.07 Q72.7513 590.199 71.9411 592.121 Q71.1541 594.019 69.0476 596.611 Q68.4689 597.283 65.367 600.5 Q62.2652 603.695 56.6171 609.458 Z" fill="#000000" fill-rule="nonzero" fill-opacity="1" /><path clip-path="url(#clip270)" d="M92.7512 581.912 Q89.1401 581.912 87.3114 585.477 Q85.5058 589.019 85.5058 596.148 Q85.5058 603.255 87.3114 606.82 Q89.1401 610.361 92.7512 610.361 Q96.3854 610.361 98.1909 606.82 Q100.02 603.255 100.02 596.148 Q100.02 589.019 98.1909 585.477 Q96.3854 581.912 92.7512 581.912 M92.7512 578.209 Q98.5613 578.209 101.617 582.815 Q104.696 587.398 104.696 596.148 Q104.696 604.875 101.617 609.482 Q98.5613 614.065 92.7512 614.065 Q86.941 614.065 83.8623 609.482 Q80.8068 604.875 80.8068 596.148 Q80.8068 587.398 83.8623 582.815 Q86.941 578.209 92.7512 578.209 Z" fill="#000000" fill-rule="nonzero" fill-opacity="1" /><path clip-path="url(#clip270)" d="M66.7559 198.037 Q70.1124 198.755 71.9874 201.023 Q73.8855 203.292 73.8855 206.625 Q73.8855 211.741 70.367 214.542 Q66.8485 217.343 60.3671 217.343 Q58.1912 217.343 55.8764 216.903 Q53.5847 216.486 51.131 215.63 L51.131 211.116 Q53.0754 212.25 55.3903 212.829 Q57.7051 213.407 60.2282 213.407 Q64.6263 213.407 66.918 211.671 Q69.2328 209.935 69.2328 206.625 Q69.2328 203.57 67.08 201.857 Q64.9504 200.12 61.131 200.12 L57.1032 200.12 L57.1032 196.278 L61.3161 196.278 Q64.7652 196.278 66.5939 194.912 Q68.4226 193.523 68.4226 190.931 Q68.4226 188.269 66.5245 186.857 Q64.6495 185.421 61.131 185.421 Q59.2097 185.421 57.0106 185.838 Q54.8115 186.255 52.1727 187.134 L52.1727 182.968 Q54.8347 182.227 57.1495 181.857 Q59.4875 181.486 61.5476 181.486 Q66.8717 181.486 69.9735 183.917 Q73.0753 186.324 73.0753 190.445 Q73.0753 193.315 71.4318 195.306 Q69.7883 197.273 66.7559 198.037 Z" fill="#000000" fill-rule="nonzero" fill-opacity="1" /><path clip-path="url(#clip270)" d="M92.7512 185.19 Q89.1401 185.19 87.3114 188.755 Q85.5058 192.296 85.5058 199.426 Q85.5058 206.532 87.3114 210.097 Q89.1401 213.639 92.7512 213.639 Q96.3854 213.639 98.1909 210.097 Q100.02 206.532 100.02 199.426 Q100.02 192.296 98.1909 188.755 Q96.3854 185.19 92.7512 185.19 M92.7512 181.486 Q98.5613 181.486 101.617 186.093 Q104.696 190.676 104.696 199.426 Q104.696 208.153 101.617 212.759 Q98.5613 217.343 92.7512 217.343 Q86.941 217.343 83.8623 212.759 Q80.8068 208.153 80.8068 199.426 Q80.8068 190.676 83.8623 186.093 Q86.941 181.486 92.7512 181.486 Z" fill="#000000" fill-rule="nonzero" fill-opacity="1" /><polyline clip-path="url(#clip272)" style="stroke:#009af9; stroke-linecap:round; stroke-linejoin:round; stroke-width:4; stroke-opacity:1; fill:none" points="140.696,1384.24 140.696,1384.24 143.953,1382.52 149.672,1379.6 166.885,1371.25 186.481,1362.2 201.198,1355.55 201.892,1355.23 218.566,1347.77 235.614,1340.17 244.477,1336.23 261.178,1328.81 267.849,1325.85 294.247,1314.13 298.546,1312.23 319.499,1302.93 322.436,1301.38 322.471,1301.36 331.095,1296.98 332.562,1296.13 338.952,1292.56 357.601,1281.9 369.489,1275.06 376.026,1271.59 381.59,1268.75 396.585,1260.49 398.611,1259.45 417.417,1249.1 428.881,1243.41 442.998,1236.72 452.767,1232.21 474.273,1221.25 477.401,1219.75 484.567,1215.82 487.232,1214.41 487.928,1213.99 491.975,1211.26 502.324,1204.93 528.66,1189.83 533.259,1187.14 533.863,1186.75 536.407,1185.11 546.509,1178.38 550.598,1175.91 556.057,1172.78 569.12,1165.84 575.13,1162.84 601.4,1150.43 622.748,1140.75 623.345,1140.43 625.641,1139.21 634.821,1133.84 649.955,1125.88 650.1,1125.81 658.455,1121.08 664.238,1118 676.634,1111.76 682.993,1108.69 690.052,1105.36 707.72,1097.22 712.595,1095.01 717.552,1092.38 730.824,1085.7 731.756,1085.17 740.109,1079.96 770.144,1062.72 774.59,1060.5 779.954,1057.88 782.661,1056.58 814.514,1041.85 817.97,1040.29 818.911,1039.78 828.517,1034.11 840.803,1027.55 842.813,1026.52 845.988,1024.67 849.083,1022.66 853.05,1019.88 859.337,1015.81 862.481,1013.9 874.091,1007.35 880.287,1003.63 886.712,1000.02 902.026,992.087 903.02,991.595 912.336,986.41 922.839,980.987 923.88,980.377 929.414,977.241 929.869,976.95 929.882,976.941 930.164,976.762 937.831,971.547 940.65,969.536 955.871,959.989 958.34,958.594 964.643,954.681 971.379,950.284 973.95,948.708 1003.55,932.955 1017.35,925.481 1030.5,918.944 1041.63,913.662 1051.87,908.195 1055.56,906.315 1064.85,901.061 1069.15,898.767 1072.49,896.754 1073.96,895.896 1081.45,891.7 1084.12,890.273 1084.4,890.098 1098.21,882.182 1101.06,880.669 1102.3,880.016 1126.12,868.309 1170.89,846.213 1174.72,844.46 1193.87,835.794 1194.26,835.617 1214.05,825.601 1217.43,823.977 1218.52,823.462 1231.58,817.35 1232.62,816.873 1235.27,815.655 1242.97,812.138 1243.39,811.95 1245.38,811.046 1259.43,804.711 1268.99,799.741 1273.43,797.17 1276.79,795.015 1282.53,791.548 1284.29,790.38 1284.43,790.288 1298.99,781.569 1301.67,780.104 1302.14,779.849 1320.28,770.617 1333.77,764.201 1334.61,763.809 1347.34,757.946 1358.24,753 1363.63,750.149 1364.26,749.765 1366.08,748.681 1373.96,743.614 1376.75,741.94 1378.69,740.641 1387.1,735.397 1392.73,732.165 1399.99,727.681 1409.29,722.433 1412.24,720.855 1418.72,717.5 1425.93,713.364 1427.09,712.725 1427.84,712.312 1442.23,704.852 1446.22,702.888 1448.11,701.807 1448.83,701.403 1454.78,698.143 1455.31,697.862 1473.34,687.667 1475.23,686.681 1497.54,675.758 1498.56,675.279 1505.85,671.334 1505.99,671.26 1513.8,667.254 1549.32,648.886 1550.63,648.27 1563.74,642.171 1567.33,640.525 1577.73,635.803 1589.81,630.365 1591.97,629.395 1594.63,628.205 1600.63,625.053 1610.26,620.228 1617.49,616.737 1617.91,616.534 1629.23,611.224 1633.98,609.034 1636.74,607.535 1676.47,588.192 1676.9,587.991 1688.21,582.838 1697.36,578.045 1701.23,576.096 1705.79,573.846 1709.28,572.153 1716.94,568.507 1724.42,565.018 1743.27,556.408 1753.93,551.607 1765.25,546.54 1768.85,544.638 1773.31,542.34 1774.48,541.648 1782.53,536.497 1794.76,528.699 1802.52,523.72 1808.77,520.044 1821.29,512.436 1821.87,512.059 1904.54,470.902 1913.45,466.257 1920.48,462.76 1923.93,460.797 1928.25,458.429 1931.66,456.614 1932.57,456.141 1933.91,455.442 1944.65,450.048 1944.93,449.91 1972.02,437.185 1978.99,433.481 1980.16,432.877 1988.72,427.94 1995.03,424.056 2001.51,420.341 2013.84,412.974 2019.85,409.702 2022.41,408.349 2026.97,405.639 2027.87,405.12 2029.86,403.988 2033.34,402.053 2054.58,390.011 2057.19,388.67 2057.84,388.336 2075.11,378.836 2076.31,378.121 2078.76,376.474 2080.57,375.147 2092.76,367.108 2099.88,362.961 2100.8,362.444 2124.79,350.136 2131.34,346.505 2140.65,341.651 2148.13,337.934 2159.97,332.267 2168.13,327.86 2171.97,325.877 2172.96,325.286 2178.06,321.937 2184.14,317.761 2185.53,316.739 2187.81,314.923 2199.81,306.485 2201.29,305.548 2202.72,304.66 2207.24,301.948 2207.67,301.7 2213.48,298.414 2216.3,296.885 2223.14,292.77 2227.02,290.573 2229.21,289.365 2233.64,286.988 2249.32,279.084 2254.2,276.738 2255.33,276.103 2262.18,272.378 2269.96,268.365 2283.65,261.672 2285.36,260.858 2286.57,260.284 2287.02,260.072 2289.3,259.002 2309.57,249.668 2322.05,244.033 2323.63,243.325 2327.81,241.45 2329.24,240.808 2342.25,234.121 2352.76,229.023 "/>
<polyline clip-path="url(#clip272)" style="stroke:#e26f46; stroke-linecap:round; stroke-linejoin:round; stroke-width:4; stroke-opacity:1; fill:none" points="140.696,1384.24 140.696,1384.24 143.953,1382.52 149.672,1379.6 166.885,1371.25 186.481,1361.04 201.198,1353.99 201.892,1353.66 218.566,1345.98 235.614,1337.22 244.477,1332.3 261.178,1323.82 267.849,1320.61 294.247,1307.03 298.546,1304.97 319.499,1295.26 322.436,1293.93 322.471,1293.91 331.095,1290.01 332.562,1289.22 338.952,1285.89 357.601,1276.76 369.489,1271.22 376.026,1268.22 381.59,1265.69 396.585,1258.93 398.611,1258.02 417.417,1249.61 428.881,1243.71 442.998,1236.88 452.767,1231.62 474.273,1221.03 477.401,1219.3 484.567,1215.49 487.232,1214.12 487.928,1213.7 491.975,1211.35 502.324,1205.73 528.66,1192.82 533.259,1190.68 533.863,1190.4 536.407,1189.23 546.509,1183.89 550.598,1181.82 556.057,1179.13 569.12,1172.9 575.13,1170.1 601.4,1158.16 622.748,1148.61 623.345,1148.34 625.641,1147.32 634.821,1143.23 649.955,1135.52 650.1,1135.44 658.455,1130.8 664.238,1127.77 676.634,1121.59 682.993,1118.55 690.052,1115.23 707.72,1107.12 712.595,1104.52 717.552,1101.97 730.824,1095.44 731.756,1095 740.109,1091.06 770.144,1075.88 774.59,1073.79 779.954,1071.3 782.661,1070.05 814.514,1054.13 817.97,1052.51 818.911,1052.07 828.517,1046.96 840.803,1040.83 842.813,1039.69 845.988,1037.93 849.083,1036.26 853.05,1034.18 859.337,1030.49 862.481,1028.73 874.091,1022.61 880.287,1019.03 886.712,1015.54 902.026,1006.8 903.02,1006.27 912.336,1001.49 922.839,995.62 923.88,994.975 929.414,991.248 929.869,990.914 929.882,990.903 930.164,990.649 937.831,983.706 940.65,981.194 955.871,969.809 958.34,968.009 964.643,963.732 971.379,959.56 973.95,957.839 1003.55,941.208 1017.35,934.501 1030.5,928.363 1041.63,923.277 1051.87,918.65 1055.56,916.99 1064.85,912.828 1069.15,910.557 1072.49,908.836 1073.96,908.092 1081.45,903.812 1084.12,902.361 1084.4,902.209 1098.21,895.111 1101.06,893.475 1102.3,892.666 1126.12,877.868 1170.89,854.367 1174.72,852.267 1193.87,842.533 1194.26,842.342 1214.05,831.871 1217.43,830.203 1218.52,829.58 1231.58,822.517 1232.62,821.896 1235.27,820.116 1242.97,815.298 1243.39,815.053 1245.38,813.884 1259.43,805.299 1268.99,799.434 1273.43,796.918 1276.79,795.076 1282.53,792.044 1284.29,790.989 1284.43,790.905 1298.99,782.841 1301.67,781.456 1302.14,781.172 1320.28,771.205 1333.77,764.522 1334.61,764.118 1347.34,758.121 1358.24,753.107 1363.63,750.234 1364.26,749.847 1366.08,748.602 1373.96,742.968 1376.75,741.138 1378.69,739.741 1387.1,734.157 1392.73,730.76 1399.99,726.666 1409.29,721.763 1412.24,720.268 1418.72,717.06 1425.93,713.592 1427.09,713.042 1427.84,712.618 1442.23,705.013 1446.22,702.698 1448.11,701.633 1448.83,701.235 1454.78,697.55 1455.31,697.236 1473.34,686.29 1475.23,685.255 1497.54,672.728 1498.56,672.118 1505.85,667.949 1505.99,667.858 1513.8,663.101 1549.32,643.301 1550.63,642.665 1563.74,636.413 1567.33,634.738 1577.73,629.955 1589.81,624.474 1591.97,623.315 1594.63,621.918 1600.63,618.377 1610.26,612.418 1617.49,608.344 1617.91,608.113 1629.23,602.208 1633.98,599.845 1636.74,598.262 1676.47,578.383 1676.9,578.18 1688.21,572.197 1697.36,567.646 1701.23,565.458 1705.79,562.609 1709.28,560.533 1716.94,555.655 1724.42,551.308 1743.27,541.468 1753.93,535.562 1765.25,529.777 1768.85,527.713 1773.31,525.247 1774.48,524.617 1782.53,520.417 1794.76,513.544 1802.52,509.519 1808.77,505.92 1821.29,498.414 1821.87,498.041 1904.54,457.013 1913.45,452.369 1920.48,448.338 1923.93,446.452 1928.25,444.164 1931.66,442.122 1932.57,441.517 1933.91,440.629 1944.65,433.319 1944.93,433.142 1972.02,418.262 1978.99,414.845 1980.16,414.28 1988.72,409.58 1995.03,406.308 2001.51,402.567 2013.84,396.007 2019.85,392.994 2022.41,391.732 2026.97,389.525 2027.87,389.094 2029.86,388.144 2033.34,386.492 2054.58,375.477 2057.19,374.208 2057.84,373.891 2075.11,364.692 2076.31,364.094 2078.76,362.874 2080.57,361.833 2092.76,354.388 2099.88,349.922 2100.8,349.291 2124.79,333.89 2131.34,330.356 2140.65,325.597 2148.13,321.368 2159.97,315.172 2168.13,310.533 2171.97,308.154 2172.96,307.472 2178.06,304.115 2184.14,299.932 2185.53,299.028 2187.81,297.583 2199.81,289.755 2201.29,288.747 2202.72,287.671 2207.24,284.438 2207.67,284.146 2213.48,280.337 2216.3,278.6 2223.14,274.075 2227.02,271.697 2229.21,270.399 2233.64,267.509 2249.32,258.425 2254.2,255.851 2255.33,255.268 2262.18,251.283 2269.96,247.057 2283.65,240.129 2285.36,239.295 2286.57,238.707 2287.02,238.49 2289.3,237.397 2309.57,226.752 2322.05,220.737 2323.63,219.995 2327.81,218.039 2329.24,217.373 2342.25,211.398 2352.76,206.639 "/>
<polyline clip-path="url(#clip272)" style="stroke:#3da44d; stroke-linecap:round; stroke-linejoin:round; stroke-width:4; stroke-opacity:1; fill:none" points="140.696,1384.24 140.696,1384.24 143.953,1382.79 149.672,1380.26 166.885,1372.62 186.481,1363.93 201.198,1357.4 201.892,1357.09 218.566,1348.65 235.614,1340.58 244.477,1336.51 261.178,1327.9 267.849,1324.66 294.247,1312.39 298.546,1310.44 319.499,1301.02 322.436,1299.71 322.471,1299.7 331.095,1295.85 332.562,1295.19 338.952,1292.35 357.601,1284.06 369.489,1278.78 376.026,1275.87 381.59,1273.4 396.585,1266.75 398.611,1265.68 417.417,1256.3 428.881,1250.9 442.998,1243.49 452.767,1238.7 474.273,1228.63 477.401,1227.2 484.567,1223.95 487.232,1222.52 487.928,1222.15 491.975,1220.04 502.324,1214.14 528.66,1200.9 533.259,1198.74 533.863,1198.45 536.407,1197.27 546.509,1192.61 550.598,1190.74 556.057,1188.26 569.12,1181.5 575.13,1178.55 601.4,1166.25 622.748,1156.6 623.345,1156.33 625.641,1155.3 634.821,1151.2 649.955,1144.45 650.1,1144.39 658.455,1140.67 664.238,1138.1 676.634,1132.59 682.993,1129.77 690.052,1126.1 707.72,1116.38 712.595,1113.92 717.552,1111.47 730.824,1105.13 731.756,1104.69 740.109,1100.82 770.144,1087.23 774.59,1085.24 779.954,1082.84 782.661,1081.63 814.514,1067.46 817.97,1065.92 818.911,1065.51 828.517,1061.24 840.803,1054.95 842.813,1053.96 845.988,1052.41 849.083,1050.92 853.05,1049.03 859.337,1046.08 862.481,1044.62 874.091,1039.29 880.287,1036.48 886.712,1033.58 902.026,1026.71 903.02,1026.27 912.336,1022.11 922.839,1017.43 923.88,1016.97 929.414,1014.51 929.869,1014.31 929.882,1014.3 930.164,1014.17 937.831,1010.77 940.65,1009.51 955.871,1002.76 958.34,1001.66 964.643,998.862 971.379,995.872 973.95,994.731 1003.55,981.597 1017.35,975.473 1030.5,969.64 1041.63,963.925 1051.87,958.939 1055.56,957.185 1064.85,952.845 1069.15,950.862 1072.49,949.328 1073.96,948.658 1081.45,945.254 1084.12,944.049 1084.4,943.922 1098.21,937.712 1101.06,936.437 1102.3,935.88 1126.12,925.261 1170.89,905.377 1174.72,903.678 1193.87,894.038 1194.26,893.848 1214.05,884.583 1217.43,883.033 1218.52,882.539 1231.58,876.618 1232.62,876.152 1235.27,874.96 1242.97,871.502 1243.39,871.317 1245.38,870.256 1259.43,863.135 1268.99,858.542 1273.43,856.455 1276.79,854.886 1282.53,852.235 1284.29,851.428 1284.43,851.351 1298.99,843.788 1301.67,842.464 1302.14,842.232 1320.28,833.608 1333.77,827.411 1334.61,827.029 1347.34,821.277 1358.24,815.621 1363.63,812.954 1364.26,812.644 1366.08,811.761 1373.96,807.99 1376.75,806.676 1378.69,805.768 1387.1,801.872 1392.73,798.856 1399.99,795.131 1409.29,789.88 1412.24,788.302 1418.72,784.946 1425.93,781.356 1427.09,780.789 1427.84,780.421 1442.23,773.587 1446.22,771.735 1448.11,770.863 1448.83,770.533 1454.78,767.806 1455.31,767.565 1473.34,759.414 1475.23,758.562 1497.54,748.594 1498.56,748.14 1505.85,744.895 1505.99,744.832 1513.8,741.359 1549.32,725.582 1550.63,725.004 1563.74,719.184 1567.33,717.294 1577.73,712.056 1589.81,706.252 1591.97,705.235 1594.63,703.994 1600.63,701.212 1610.26,696.808 1617.49,693.532 1617.91,693.34 1629.23,688.25 1633.98,686.124 1636.74,684.888 1676.47,667.2 1676.9,666.967 1688.21,661.174 1697.36,656.719 1701.23,654.877 1705.79,652.731 1709.28,651.105 1716.94,647.573 1724.42,644.163 1743.27,634.536 1753.93,629.445 1765.25,624.189 1768.85,622.539 1773.31,620.502 1774.48,619.971 1782.53,616.329 1794.76,610.833 1802.52,607.363 1808.77,604.574 1821.29,598.996 1821.87,598.739 1904.54,562.036 1913.45,558.08 1920.48,554.963 1923.93,553.431 1928.25,551.167 1931.66,549.422 1932.57,548.966 1933.91,548.291 1944.65,543.043 1944.93,542.908 1972.02,530.346 1978.99,527.192 1980.16,526.664 1988.72,522.813 1995.03,519.988 2001.51,517.091 2013.84,511.595 2019.85,508.923 2022.41,507.781 2026.97,505.756 2027.87,505.356 2029.86,504.472 2033.34,502.922 2054.58,493.494 2057.19,492.116 2057.84,491.774 2075.11,483.186 2076.31,482.615 2078.76,481.447 2080.57,480.594 2092.76,474.924 2099.88,471.668 2100.8,471.247 2124.79,460.439 2131.34,457.511 2140.65,453.359 2148.13,450.028 2159.97,444.761 2168.13,441.136 2171.97,439.432 2172.96,438.992 2178.06,436.727 2184.14,434.03 2185.53,433.412 2187.81,432.401 2199.81,427.074 2201.29,426.418 2202.72,425.784 2207.24,423.776 2207.67,423.587 2213.48,421.007 2216.3,419.759 2223.14,416.72 2227.02,415 2229.21,414.028 2233.64,412.063 2249.32,405.105 2254.2,402.942 2255.33,402.441 2262.18,399.402 2269.96,395.95 2283.65,389.876 2285.36,388.97 2286.57,388.229 2287.02,387.958 2289.3,386.606 2309.57,375.701 2322.05,368.762 2323.63,367.936 2327.81,365.783 2329.24,364.934 2342.25,357.744 2352.76,351.662 "/>
<polyline clip-path="url(#clip272)" style="stroke:#c271d2; stroke-linecap:round; stroke-linejoin:round; stroke-width:4; stroke-opacity:1; fill:none" points="140.696,1384.24 140.696,1384.24 143.953,1382.52 149.672,1379.6 166.885,1371.25 186.481,1361.04 201.198,1353.99 201.892,1353.66 218.566,1345.98 235.614,1337.22 244.477,1332.3 261.178,1323.82 267.849,1320.61 294.247,1307.03 298.546,1304.63 319.499,1292.71 322.436,1291.2 322.471,1291.18 331.095,1286.25 332.562,1285.32 338.952,1280.99 357.601,1269.02 369.489,1261.76 376.026,1257.64 381.59,1253.94 396.585,1245.17 398.611,1244.07 417.417,1233.45 428.881,1226.87 442.998,1219.57 452.767,1214.11 474.273,1203.31 477.401,1201.56 484.567,1197.72 487.232,1196.34 487.928,1195.92 491.975,1193.56 502.324,1187.91 528.66,1174.98 533.259,1172.47 533.863,1172.15 536.407,1170.8 546.509,1164.95 550.598,1162.4 556.057,1159.19 569.12,1152.12 575.13,1149.08 601.4,1135.21 622.748,1125.13 623.345,1124.81 625.641,1123.56 634.821,1118.79 649.955,1110.42 650.1,1110.33 658.455,1105.48 664.238,1102.34 676.634,1095.17 682.993,1091.79 690.052,1088.2 707.72,1079.68 712.595,1077.02 717.552,1074.02 730.824,1065.8 731.756,1065.27 740.109,1060.7 770.144,1044.5 774.59,1042.35 779.954,1039.37 782.661,1037.92 814.514,1020.79 817.97,1018.83 818.911,1018.23 828.517,1011.77 840.803,1004.59 842.813,1003.32 845.988,1001.13 849.083,999.084 853.05,996.27 859.337,991.663 862.481,989.274 874.091,981.456 880.287,977.279 886.712,973.311 902.026,963.869 903.02,963.311 912.336,958.301 922.839,952.261 923.88,951.604 929.414,947.818 929.869,947.48 929.882,947.469 930.164,947.212 937.831,940.21 940.65,937.681 955.871,926.233 958.34,924.427 964.643,919.649 971.379,914.56 973.95,912.555 1003.55,894.219 1017.35,886.314 1030.5,878.67 1041.63,872.846 1051.87,867.07 1055.56,865.109 1064.85,859.702 1069.15,857.009 1072.49,854.735 1073.96,853.774 1081.45,848.581 1084.12,846.872 1084.4,846.669 1098.21,837.742 1101.06,835.85 1102.3,834.939 1126.12,818.973 1170.89,794.941 1174.72,792.828 1193.87,783.054 1194.26,782.863 1214.05,772.375 1217.43,770.704 1218.52,770.082 1231.58,763.013 1232.62,762.392 1235.27,760.612 1242.97,755.792 1243.39,755.547 1245.38,754.378 1259.43,745.792 1268.99,739.927 1273.43,737.054 1276.79,734.984 1282.53,731.634 1284.29,730.497 1284.43,730.408 1298.99,720.917 1301.67,719.357 1302.14,719.045 1320.28,707.226 1333.77,699.872 1334.61,699.365 1347.34,692.201 1358.24,686.599 1363.63,683.525 1364.26,683.118 1366.08,681.817 1373.96,675.988 1376.75,673.87 1378.69,672.294 1387.1,665.466 1392.73,661.464 1399.99,656.784 1409.29,651.361 1412.24,649.741 1418.72,645.812 1425.93,641.206 1427.09,640.504 1427.84,639.986 1442.23,631.078 1446.22,628.527 1448.11,627.364 1448.83,626.931 1454.78,622.995 1455.31,622.662 1473.34,611.271 1475.23,610.207 1497.54,597.472 1498.56,596.857 1505.85,592.655 1505.99,592.564 1513.8,587.197 1549.32,566.238 1550.63,565.472 1563.74,558.265 1567.33,556.412 1577.73,551.251 1589.81,545.502 1591.97,544.309 1594.63,542.874 1600.63,539.262 1610.26,533.223 1617.49,529.108 1617.91,528.837 1629.23,522.117 1633.98,519.517 1636.74,517.818 1676.47,495.555 1676.9,495.343 1688.21,489.172 1697.36,484.525 1701.23,482.306 1705.79,479.427 1709.28,477.046 1716.94,471.643 1724.42,466.931 1743.27,456.567 1753.93,450.512 1765.25,443.841 1768.85,441.577 1773.31,438.904 1774.48,438.126 1782.53,432.488 1794.76,424.217 1802.52,419.047 1808.77,414.776 1821.29,406.375 1821.87,405.971 1904.54,363.811 1913.45,359.158 1920.48,355.122 1923.93,352.949 1928.25,350.361 1931.66,348.12 1932.57,347.466 1933.91,346.395 1944.65,337.955 1944.93,337.755 1972.02,321.603 1978.99,317.51 1980.16,316.852 1988.72,311.594 1995.03,308.028 2001.51,304.06 2013.84,297.214 2019.85,293.643 2022.41,291.968 2026.97,289.138 2027.87,288.598 2029.86,287.422 2033.34,285.419 2054.58,273.132 2057.19,271.774 2057.84,271.378 2075.11,260.77 2076.31,260.109 2078.76,258.564 2080.57,257.305 2092.76,248.772 2099.88,243.897 2100.8,243.221 2124.79,227.133 2131.34,223.507 2140.65,218.657 2148.13,214.379 2159.97,208.131 2168.13,203.469 2171.97,201.082 2172.96,200.397 2178.06,196.628 2184.14,192.061 2185.53,190.963 2187.81,189.034 2199.81,179.329 2201.29,178.152 2202.72,176.923 2207.24,172.902 2207.67,172.544 2213.48,167.945 2216.3,165.893 2223.14,160.75 2227.02,157.781 2229.21,156.193 2233.64,152.794 2249.32,142.541 2254.2,139.742 2255.33,139.113 2262.18,134.897 2269.96,129.897 2283.65,122.119 2285.36,121.21 2286.57,120.573 2287.02,120.338 2289.3,119.162 2309.57,108.051 2322.05,101.9 2323.63,101.011 2327.81,98.711 2329.24,97.9407 2342.25,91.2744 2352.76,86.1857 "/>
<polyline clip-path="url(#clip272)" style="stroke:#ac8d18; stroke-linecap:round; stroke-linejoin:round; stroke-width:4; stroke-opacity:1; fill:none" points="140.696,1384.24 140.696,1384.24 143.953,1382.79 149.672,1379.81 166.885,1370.28 186.481,1360.64 201.198,1353.78 201.892,1353.46 218.566,1345.89 235.614,1338.24 244.477,1334.28 261.178,1326.84 267.849,1323.88 294.247,1312.15 298.546,1310.24 319.499,1300.95 322.436,1299.64 322.471,1299.63 331.095,1295.8 332.562,1295.15 338.952,1292.32 357.601,1284.04 369.489,1278.77 376.026,1275.87 381.59,1273.4 396.585,1266.75 398.611,1265.85 417.417,1257.5 428.881,1252.42 442.998,1246.15 452.767,1241.82 474.273,1232.28 477.401,1230.89 484.567,1227.71 487.232,1226.53 487.928,1226.22 491.975,1224.43 502.324,1219.83 528.66,1208.15 533.259,1206.11 533.863,1205.84 536.407,1204.5 546.509,1199.37 550.598,1197.37 556.057,1194.75 569.12,1188.63 575.13,1185.86 601.4,1173.99 622.748,1164.46 623.345,1164.2 625.641,1162.98 634.821,1158.29 649.955,1150.98 650.1,1150.92 658.455,1147.02 664.238,1143.91 676.634,1137.62 682.993,1134.53 690.052,1131.18 707.72,1123.02 712.595,1120.81 717.552,1118.57 730.824,1112.6 731.756,1112.19 740.109,1108.45 770.144,1095.08 774.59,1093.11 779.954,1090.72 782.661,1089.52 814.514,1075.38 817.97,1073.85 818.911,1073.43 828.517,1069.17 840.803,1063.72 842.813,1062.83 845.988,1061.42 849.083,1060.04 853.05,1058.28 859.337,1055.49 862.481,1054.1 874.091,1048.95 880.287,1046.2 886.712,1043.35 902.026,1036.56 903.02,1036.11 912.336,1031.98 922.839,1027.32 923.88,1026.86 929.414,1024.4 929.869,1024.2 929.882,1024.2 930.164,1024.07 937.831,1020.67 940.65,1019.42 955.871,1012.67 958.34,1011.57 964.643,1008.78 971.379,1005.79 973.95,1004.65 1003.55,991.514 1017.35,985.391 1030.5,979.558 1041.63,974.621 1051.87,970.078 1055.56,968.44 1064.85,964.32 1069.15,962.411 1072.49,960.927 1073.96,960.276 1081.45,956.952 1084.12,955.771 1084.4,955.646 1098.21,949.518 1101.06,948.255 1102.3,947.702 1126.12,937.135 1170.89,917.275 1174.72,915.576 1193.87,907.08 1194.26,906.87 1214.05,896.947 1217.43,895.332 1218.52,894.819 1231.58,887.853 1232.62,887.327 1235.27,885.995 1242.97,882.211 1243.39,882.012 1245.38,881.054 1259.43,874.448 1268.99,870.06 1273.43,868.042 1276.79,866.517 1282.53,863.478 1284.29,862.571 1284.43,862.499 1298.99,855.296 1301.67,853.793 1302.14,853.532 1320.28,844.14 1333.77,837.665 1334.61,837.27 1347.34,831.379 1358.24,826.417 1363.63,823.986 1364.26,823.701 1366.08,822.884 1373.96,819.345 1376.75,818.095 1378.69,817.227 1387.1,813.47 1392.73,810.962 1399.99,807.73 1409.29,803.593 1412.24,802.281 1418.72,799.401 1425.93,796.2 1427.09,795.585 1427.84,795.187 1442.23,787.935 1446.22,786.008 1448.11,785.104 1448.83,784.763 1454.78,781.955 1455.31,781.708 1473.34,773.414 1475.23,772.553 1497.54,762.519 1498.56,762.062 1505.85,758.808 1505.99,758.744 1513.8,755.263 1549.32,739.471 1550.63,738.893 1563.74,733.071 1567.33,731.476 1577.73,726.865 1589.81,720.675 1591.97,719.609 1594.63,718.313 1600.63,715.429 1610.26,710.909 1617.49,707.574 1617.91,707.379 1629.23,701.44 1633.98,699.068 1636.74,697.71 1676.47,679.257 1676.9,679.06 1688.21,673.978 1697.36,669.886 1701.23,668.158 1705.79,666.124 1709.28,664.569 1716.94,661.159 1724.42,657.271 1743.27,648.087 1753.93,643.122 1765.25,637.949 1768.85,636.317 1773.31,633.941 1774.48,633.332 1782.53,629.248 1794.76,623.324 1802.52,619.681 1808.77,616.791 1821.29,611.077 1821.87,610.815 1904.54,572.007 1913.45,568.034 1920.48,564.907 1923.93,563.371 1928.25,561.452 1931.66,559.936 1932.57,559.535 1933.91,558.937 1944.65,554.168 1944.93,554.043 1972.02,540.626 1978.99,537.375 1980.16,536.834 1988.72,532.902 1995.03,530.035 2001.51,527.106 2013.84,521.569 2019.85,518.884 2022.41,517.737 2026.97,515.705 2027.87,515.304 2029.86,514.248 2033.34,512.432 2054.58,502.038 2057.19,500.812 2057.84,500.504 2075.11,492.556 2076.31,492.013 2078.76,490.899 2080.57,490.082 2092.76,484.593 2099.88,481.405 2100.8,480.991 2124.79,470.298 2131.34,467.385 2140.65,463.248 2148.13,459.925 2159.97,454.667 2168.13,451.045 2171.97,449.343 2172.96,448.903 2178.06,446.64 2184.14,443.943 2185.53,443.326 2187.81,442.315 2199.81,436.99 2201.29,436.334 2202.72,435.7 2207.24,433.693 2207.67,433.504 2213.48,430.924 2216.3,429.441 2223.14,425.941 2227.02,424.017 2229.21,422.944 2233.64,420.802 2249.32,413.439 2254.2,411.197 2255.33,410.68 2262.18,407.561 2269.96,404.043 2283.65,397.896 2285.36,397.13 2286.57,396.587 2287.02,396.386 2289.3,395.178 2309.57,385.076 2322.05,379.217 2323.63,378.49 2327.81,376.567 2329.24,375.91 2342.25,370.003 2352.76,365.276 "/>
<polyline clip-path="url(#clip272)" style="stroke:#00a9ad; stroke-linecap:round; stroke-linejoin:round; stroke-width:4; stroke-opacity:1; fill:none" points="140.696,1384.24 140.696,1384.24 143.953,1382.79 149.672,1380.26 166.885,1372.62 186.481,1363.93 201.198,1357.4 201.892,1357.03 218.566,1348.62 235.614,1340.57 244.477,1336.5 261.178,1328.94 267.849,1325.94 294.247,1314.16 298.546,1312.25 319.499,1302.94 322.436,1301.39 322.471,1301.37 331.095,1296.99 332.562,1296.26 338.952,1293.15 357.601,1283.28 369.489,1276.68 376.026,1273.31 381.59,1270.53 396.585,1262.37 398.611,1261.33 417.417,1251.04 428.881,1245.37 442.998,1238.69 452.767,1234.19 474.273,1223.23 477.401,1221.73 484.567,1217.8 487.232,1216.4 487.928,1216.03 491.975,1213.62 502.324,1207.89 528.66,1193.49 533.259,1190.86 533.863,1190.47 536.407,1188.86 546.509,1182.93 550.598,1180.69 556.057,1177.38 569.12,1170.17 575.13,1167.08 601.4,1154.48 622.748,1144.75 623.345,1144.43 625.641,1143.21 634.821,1137.83 649.955,1129.85 650.1,1129.78 658.455,1125.05 664.238,1121.97 676.634,1115.73 682.993,1112.17 690.052,1108.43 707.72,1099.7 712.595,1097.39 717.552,1094.68 730.824,1087.86 731.756,1087.32 740.109,1082.06 770.144,1066.2 774.59,1063.71 779.954,1060.83 782.661,1059.42 814.514,1044.04 817.97,1042.45 818.911,1041.93 828.517,1036.9 840.803,1030.83 842.813,1029.87 845.988,1028.1 849.083,1026.16 853.05,1023.46 859.337,1019.48 862.481,1017.6 874.091,1010.36 880.287,1006.87 886.712,1003.44 902.026,995.78 903.02,995.214 912.336,989.471 922.839,983.644 923.88,983.094 929.414,980.232 929.869,980 929.882,979.994 930.164,979.851 937.831,976.042 940.65,974.674 955.871,966.508 958.34,965.261 964.643,961.659 971.379,957.511 973.95,956.012 1003.55,940.722 1017.35,933.325 1030.5,926.828 1041.63,921.566 1051.87,916.11 1055.56,914.233 1064.85,908.985 1069.15,906.692 1072.49,904.681 1073.96,903.824 1081.45,899.629 1084.12,897.98 1084.4,897.783 1098.21,888.154 1101.06,886.401 1102.3,885.653 1126.12,872.851 1170.89,851.974 1174.72,850.25 1193.87,841.677 1194.26,841.501 1214.05,832.69 1217.43,831.185 1218.52,830.703 1231.58,824.899 1232.62,824.439 1235.27,823.262 1242.97,819.84 1243.39,819.621 1245.38,818.57 1259.43,811.501 1268.99,806.929 1273.43,804.492 1276.79,802.423 1282.53,799.075 1284.29,798.088 1284.43,798.01 1298.99,790.343 1301.67,789.006 1302.14,788.772 1320.28,780.093 1333.77,773.877 1334.61,773.494 1347.34,767.733 1358.24,762.837 1363.63,760.428 1364.26,760.145 1366.08,759.334 1373.96,755.817 1376.75,754.573 1378.69,753.709 1387.1,749.965 1392.73,747.464 1399.99,743.688 1409.29,739.068 1412.24,737.396 1418.72,733.871 1425.93,729.597 1427.09,728.939 1427.84,728.515 1442.23,720.897 1446.22,718.903 1448.11,717.811 1448.83,717.403 1454.78,714.112 1455.31,713.828 1473.34,704.678 1475.23,703.761 1497.54,693.326 1498.56,692.859 1505.85,688.99 1505.99,688.917 1513.8,684.969 1549.32,668.289 1550.63,667.697 1563.74,661.78 1567.33,660.167 1577.73,655.518 1589.81,650.13 1591.97,649.167 1594.63,647.762 1600.63,644.676 1610.26,639.926 1617.49,635.925 1617.91,635.697 1629.23,629.866 1633.98,627.525 1636.74,626.183 1676.47,607.827 1676.9,607.63 1688.21,602.556 1697.36,597.802 1701.23,595.866 1705.79,593.628 1709.28,591.943 1716.94,588.311 1724.42,584.831 1743.27,576.234 1753.93,571.437 1765.25,566.373 1768.85,564.766 1773.31,562.774 1774.48,562.153 1782.53,557.399 1794.76,550.824 1802.52,546.337 1808.77,542.951 1821.29,536.578 1821.87,536.294 1904.54,498.585 1913.45,494.621 1920.48,491.5 1923.93,489.682 1928.25,487.466 1931.66,485.753 1932.57,485.305 1933.91,484.64 1944.65,479.459 1944.93,479.3 1972.02,465.438 1978.99,461.605 1980.16,460.982 1988.72,456.57 1995.03,452.963 2001.51,449.461 2013.84,442.363 2019.85,439.178 2022.41,437.854 2026.97,435.191 2027.87,434.601 2029.86,433.324 2033.34,431.162 2054.58,419.516 2057.19,418.203 2057.84,417.875 2075.11,409.559 2076.31,408.897 2078.76,407.35 2080.57,406.244 2092.76,399.308 2099.88,395.576 2100.8,395.104 2124.79,383.495 2131.34,379.956 2140.65,374.519 2148.13,370.481 2159.97,363.666 2168.13,359.362 2171.97,357.416 2172.96,356.92 2178.06,353.997 2184.14,350.689 2185.53,349.834 2187.81,348.272 2199.81,340.812 2201.29,339.964 2202.72,339.156 2207.24,336.666 2207.67,336.399 2213.48,332.434 2216.3,330.635 2223.14,326.513 2227.02,324.312 2229.21,322.918 2233.64,320.214 2249.32,311.56 2254.2,308.681 2255.33,307.938 2262.18,303.664 2269.96,299.201 2283.65,291.104 2285.36,290.168 2286.57,289.512 2287.02,289.271 2289.3,288.063 2309.57,277.96 2322.05,272.102 2323.63,271.374 2327.81,269.451 2329.24,268.795 2342.25,262.013 2352.76,256.869 "/>
<polyline clip-path="url(#clip272)" style="stroke:#ed5d92; stroke-linecap:round; stroke-linejoin:round; stroke-width:4; stroke-opacity:1; fill:none" points="140.696,1384.24 140.696,1384.24 143.953,1382.79 149.672,1380.26 166.885,1372.62 186.481,1363.93 201.198,1357.4 201.892,1357.03 218.566,1348.62 235.614,1340.57 244.477,1336.5 261.178,1328.94 267.849,1325.94 294.247,1314.16 298.546,1312.25 319.499,1302.94 322.436,1301.39 322.471,1301.37 331.095,1296.99 332.562,1296.26 338.952,1293.15 357.601,1284.4 369.489,1278.98 376.026,1276.03 381.59,1273.52 396.585,1265.84 398.611,1264.85 417.417,1255.94 428.881,1250.69 442.998,1244.31 452.767,1239.92 474.273,1229.1 477.401,1227.61 484.567,1223.7 487.232,1222.3 487.928,1221.94 491.975,1219.54 502.324,1213.82 528.66,1199.43 533.259,1197.17 533.863,1196.82 536.407,1195.38 546.509,1189.97 550.598,1187.88 556.057,1184.73 569.12,1177.78 575.13,1174.77 601.4,1162.34 622.748,1152.66 623.345,1152.39 625.641,1151.36 634.821,1146.58 649.955,1139.18 650.1,1139.11 658.455,1134.56 664.238,1131.58 676.634,1125.47 682.993,1121.95 690.052,1118.25 707.72,1109.57 712.595,1107.27 717.552,1104.96 730.824,1098.87 731.756,1098.37 740.109,1093.38 770.144,1077.95 774.59,1075.49 779.954,1072.63 782.661,1071.23 814.514,1055.92 817.97,1054.33 818.911,1053.9 828.517,1049.53 840.803,1044 842.813,1043.09 845.988,1041.67 849.083,1040.03 853.05,1037.98 859.337,1034.82 862.481,1033.27 874.091,1026.92 880.287,1023.74 886.712,1020.55 902.026,1013.26 903.02,1012.71 912.336,1007.09 922.839,1001.35 923.88,1000.81 929.414,997.975 929.869,997.746 929.882,997.739 930.164,997.598 937.831,993.82 940.65,992.46 955.871,984.327 958.34,983.084 964.643,979.977 971.379,976.739 973.95,975.522 1003.55,961.927 1017.35,955.727 1030.5,949.854 1041.63,944.897 1051.87,940.343 1055.56,938.703 1064.85,934.577 1069.15,932.666 1072.49,931.18 1073.96,930.529 1081.45,927.203 1084.12,925.798 1084.4,925.651 1098.21,917.805 1101.06,916.302 1102.3,915.653 1126.12,903.99 1170.89,883.631 1174.72,881.92 1193.87,873.386 1194.26,873.211 1214.05,864.416 1217.43,862.913 1218.52,862.432 1231.58,856.631 1232.62,856.172 1235.27,854.996 1242.97,851.575 1243.39,851.356 1245.38,850.305 1259.43,843.237 1268.99,838.666 1273.43,836.587 1276.79,834.745 1282.53,831.713 1284.29,830.808 1284.43,830.737 1298.99,823.546 1301.67,822.268 1302.14,822.044 1320.28,813.615 1333.77,807.489 1334.61,807.11 1347.34,801.395 1358.24,796.522 1363.63,794.121 1364.26,793.839 1366.08,793.03 1373.96,789.52 1376.75,788.279 1378.69,787.416 1387.1,783.676 1392.73,781.178 1399.99,777.404 1409.29,772.786 1412.24,771.114 1418.72,767.59 1425.93,763.864 1427.09,763.278 1427.84,762.899 1442.23,755.908 1446.22,754.028 1448.11,752.983 1448.83,752.592 1454.78,749.422 1455.31,749.147 1473.34,740.211 1475.23,739.307 1497.54,728.972 1498.56,728.508 1505.85,724.655 1505.99,724.582 1513.8,720.646 1549.32,703.988 1550.63,703.397 1563.74,697.483 1567.33,695.87 1577.73,691.222 1589.81,685.835 1591.97,684.871 1594.63,683.467 1600.63,680.38 1610.26,675.631 1617.49,671.63 1617.91,671.402 1629.23,665.571 1633.98,663.23 1636.74,661.888 1676.47,643.532 1676.9,643.336 1688.21,638.261 1697.36,633.507 1701.23,631.571 1705.79,629.333 1709.28,627.648 1716.94,624.016 1724.42,620.536 1743.27,611.939 1753.93,607.142 1765.25,602.078 1768.85,600.471 1773.31,598.479 1774.48,597.959 1782.53,594.375 1794.76,588.936 1802.52,585.488 1808.77,582.713 1821.29,577.152 1821.87,576.896 1904.54,540.215 1913.45,536.26 1920.48,533.143 1923.93,531.611 1928.25,529.696 1931.66,528.182 1932.57,527.782 1933.91,527.185 1944.65,522.421 1944.93,522.271 1972.02,508.878 1978.99,505.63 1980.16,505.089 1988.72,501.16 1995.03,497.806 2001.51,494.501 2013.84,487.65 2019.85,484.544 2022.41,483.249 2026.97,480.627 2027.87,480.045 2029.86,478.783 2033.34,476.645 2054.58,465.085 2057.19,463.778 2057.84,463.451 2075.11,455.16 2076.31,454.5 2078.76,453.161 2080.57,452.194 2092.76,445.955 2099.88,442.484 2100.8,442.041 2124.79,430.873 2131.34,427.392 2140.65,422.013 2148.13,418.007 2159.97,411.225 2168.13,406.936 2171.97,404.995 2172.96,404.5 2178.06,401.988 2184.14,399.06 2185.53,398.399 2187.81,397.32 2199.81,391.734 2201.29,391.054 2202.72,390.399 2207.24,388.333 2207.67,388.102 2213.48,384.562 2216.3,382.932 2223.14,379.142 2227.02,377.09 2229.21,375.768 2233.64,373.192 2249.32,364.83 2254.2,362.007 2255.33,361.276 2262.18,357.06 2269.96,352.644 2283.65,344.6 2285.36,343.668 2286.57,343.016 2287.02,342.776 2289.3,341.573 2309.57,331.498 2322.05,325.649 2323.63,324.922 2327.81,323.001 2329.24,322.345 2342.25,315.566 2352.76,310.424 "/>
<polyline clip-path="url(#clip272)" style="stroke:#c68125; stroke-linecap:round; stroke-linejoin:round; stroke-width:4; stroke-opacity:1; fill:none" points="140.696,1384.24 140.696,1384.24 143.953,1382.52 149.672,1379.6 166.885,1371.25 186.481,1362.2 201.198,1355.55 201.892,1355.23 218.566,1347.77 235.614,1340.17 244.477,1336.23 261.178,1328.81 267.849,1325.85 294.247,1314.13 298.546,1311.88 319.499,1300.38 322.436,1298.9 322.471,1298.88 331.095,1294.02 332.562,1293.11 338.952,1288.81 357.601,1278.03 369.489,1271.96 376.026,1268.27 381.59,1264.85 396.585,1256.56 398.611,1255.51 417.417,1246.28 428.881,1240.92 442.998,1234.47 452.767,1230.06 474.273,1220.43 477.401,1219.04 484.567,1215.84 487.232,1214.66 487.928,1214.29 491.975,1212.17 502.324,1206.97 528.66,1194.58 533.259,1192.48 533.863,1192.21 536.407,1191.05 546.509,1185.77 550.598,1183.39 556.057,1180.35 569.12,1173.58 575.13,1170.62 601.4,1156.95 622.748,1146.92 623.345,1146.65 625.641,1145.59 634.821,1141.42 649.955,1134.6 650.1,1134.54 658.455,1130.8 664.238,1128.22 676.634,1121.85 682.993,1118.74 690.052,1115.37 707.72,1107.18 712.595,1104.96 717.552,1102.72 730.824,1095.86 731.756,1095.39 740.109,1091.33 770.144,1075.95 774.59,1073.85 779.954,1070.92 782.661,1069.49 814.514,1053.99 817.97,1052.11 818.911,1051.61 828.517,1045.96 840.803,1039.42 842.813,1038.4 845.988,1036.81 849.083,1035.29 853.05,1033.36 859.337,1030.36 862.481,1028.62 874.091,1022.54 880.287,1018.98 886.712,1015.5 902.026,1007.76 903.02,1007.28 912.336,1002.83 922.839,997.945 923.88,997.376 929.414,994.427 929.869,994.149 929.882,994.141 930.164,993.97 937.831,988.942 940.65,986.985 955.871,977.638 958.34,976.264 964.643,972.883 971.379,969.427 973.95,968.142 1003.55,954.14 1017.35,947.872 1030.5,941.081 1041.63,935.675 1051.87,930.866 1055.56,929.158 1064.85,924.905 1069.15,922.951 1072.49,921.437 1073.96,920.775 1081.45,917.402 1084.12,916.207 1084.4,916.08 1098.21,909.903 1101.06,908.633 1102.3,908.077 1126.12,897.48 1170.89,875.889 1174.72,874.148 1193.87,865.52 1194.26,865.344 1214.05,855.344 1217.43,853.722 1218.52,853.207 1231.58,847.099 1232.62,846.623 1235.27,845.405 1242.97,841.889 1243.39,841.702 1245.38,840.798 1259.43,834.464 1268.99,829.495 1273.43,827.281 1276.79,825.63 1282.53,822.866 1284.29,821.88 1284.43,821.802 1298.99,813.191 1301.67,811.738 1302.14,811.485 1320.28,801.208 1333.77,794.412 1334.61,793.93 1347.34,787.047 1358.24,781.587 1363.63,778.562 1364.26,778.16 1366.08,777.027 1373.96,771.789 1376.75,769.835 1378.69,768.361 1387.1,761.888 1392.73,758.059 1399.99,753.545 1409.29,748.271 1412.24,746.687 1418.72,742.821 1425.93,738.814 1427.09,738.191 1427.84,737.789 1442.23,730.477 1446.22,728.538 1448.11,727.63 1448.83,727.288 1454.78,724.468 1455.31,724.22 1473.34,714.808 1475.23,713.873 1497.54,703.315 1498.56,702.846 1505.85,699.51 1505.99,699.445 1513.8,695.317 1549.32,676.716 1550.63,675.984 1563.74,669.031 1567.33,667.225 1577.73,662.164 1589.81,656.486 1591.97,655.485 1594.63,654.262 1600.63,651.046 1610.26,646.149 1617.49,642.621 1617.91,642.379 1629.23,636.258 1633.98,633.832 1636.74,632.218 1676.47,610.496 1676.9,610.286 1688.21,604.945 1697.36,600.721 1701.23,598.951 1705.79,596.876 1709.28,595.008 1716.94,591.062 1724.42,587.364 1743.27,578.454 1753.93,573.567 1765.25,567.657 1768.85,565.564 1773.31,563.068 1774.48,562.432 1782.53,558.194 1794.76,551.284 1802.52,547.243 1808.77,544.12 1821.29,537.245 1821.87,536.894 1904.54,496.665 1913.45,492.028 1920.48,488.536 1923.93,486.858 1928.25,484.79 1931.66,483.175 1932.57,482.75 1933.91,482.003 1944.65,476.314 1944.93,476.17 1972.02,463.112 1978.99,459.902 1980.16,459.367 1988.72,454.837 1995.03,451.656 2001.51,448.483 2013.84,442.64 2019.85,439.39 2022.41,437.828 2026.97,435.169 2027.87,434.659 2029.86,433.545 2033.34,431.638 2054.58,419.7 2057.19,418.366 2057.84,417.976 2075.11,407.47 2076.31,406.814 2078.76,405.484 2080.57,404.368 2092.76,397.387 2099.88,393.637 2100.8,393.163 2124.79,381.526 2131.34,378.488 2140.65,374.226 2148.13,370.835 2159.97,365.506 2168.13,361.246 2171.97,359.315 2172.96,358.737 2178.06,355.848 2184.14,352.099 2185.53,351.279 2187.81,349.961 2199.81,343.448 2201.29,342.685 2202.72,341.954 2207.24,339.314 2207.67,339.072 2213.48,335.859 2216.3,334.358 2223.14,330.3 2227.02,327.813 2229.21,326.462 2233.64,323.834 2249.32,315.355 2254.2,312.898 2255.33,312.338 2262.18,308.997 2269.96,304.715 2283.65,297.727 2285.36,296.887 2286.57,296.296 2287.02,296.077 2289.3,294.978 2309.57,285.483 2322.05,279.801 2323.63,278.954 2327.81,276.753 2329.24,276.013 2342.25,269.547 2352.76,264.553 "/>
<polyline clip-path="url(#clip272)" style="stroke:#00a98d; stroke-linecap:round; stroke-linejoin:round; stroke-width:4; stroke-opacity:1; fill:none" points="140.696,1384.24 140.696,1384.24 143.953,1382.79 149.672,1380.26 166.885,1372.62 186.481,1363.93 201.198,1356.44 201.892,1356.1 218.566,1348.18 235.614,1340.36 244.477,1336.36 261.178,1328.87 267.849,1325.38 294.247,1312.62 298.546,1310.63 319.499,1301.1 322.436,1299.77 322.471,1299.76 331.095,1295.26 332.562,1294.51 338.952,1291.34 357.601,1282.5 369.489,1277.04 376.026,1274.08 381.59,1271.56 396.585,1264.84 398.611,1263.93 417.417,1255.55 428.881,1250.45 442.998,1244.18 452.767,1239.84 474.273,1230.3 477.401,1228.91 484.567,1225.73 487.232,1224.55 487.928,1224.24 491.975,1222.44 502.324,1217.85 528.66,1206.17 533.259,1204.13 533.863,1203.86 536.407,1202.73 546.509,1198.25 550.598,1196.43 556.057,1194.01 569.12,1188.22 575.13,1185.08 601.4,1172.38 622.748,1161.4 623.345,1161.11 625.641,1160 634.821,1155.65 649.955,1148.67 650.1,1148.6 658.455,1144.81 664.238,1142.2 676.634,1136.64 682.993,1133.79 690.052,1130.64 707.72,1122.78 712.595,1120.61 717.552,1118.41 730.824,1112.52 731.756,1112.1 740.109,1108.39 770.144,1095.07 774.59,1093.09 779.954,1090.71 782.661,1089.29 814.514,1073.82 817.97,1072.23 818.911,1071.79 828.517,1067.41 840.803,1061.86 842.813,1060.96 845.988,1059.54 849.083,1058.15 853.05,1056.38 859.337,1053.57 862.481,1052.17 874.091,1046.99 880.287,1044.24 886.712,1040.89 902.026,1033.35 903.02,1032.87 912.336,1028.49 922.839,1023.65 923.88,1023.18 929.414,1020.66 929.869,1020.45 929.882,1020.45 930.164,1020.32 937.831,1016.86 940.65,1015.59 955.871,1008.77 958.34,1007.67 964.643,1004.85 971.379,1001.85 973.95,1000.71 1003.55,986.099 1017.35,979.729 1030.5,973.767 1041.63,968.767 1051.87,964.189 1055.56,962.24 1064.85,957.53 1069.15,955.421 1072.49,953.805 1073.96,952.977 1081.45,948.907 1084.12,947.516 1084.4,947.369 1098.21,940.485 1101.06,939.116 1102.3,938.521 1126.12,927.471 1170.89,907.391 1174.72,905.687 1193.87,897.174 1194.26,896.999 1214.05,888.213 1217.43,886.432 1218.52,885.871 1231.58,879.353 1232.62,878.853 1235.27,877.581 1242.97,873.358 1243.39,873.14 1245.38,872.092 1259.43,865.04 1268.99,860.475 1273.43,858.397 1276.79,856.834 1282.53,854.191 1284.29,853.386 1284.43,853.322 1298.99,846.714 1301.67,845.508 1302.14,845.295 1320.28,837.173 1333.77,830.26 1334.61,829.846 1347.34,822.872 1358.24,817.365 1363.63,814.749 1364.26,814.445 1366.08,813.576 1373.96,809.855 1376.75,808.555 1378.69,807.656 1387.1,803.79 1392.73,801.229 1399.99,797.946 1409.29,793.763 1412.24,792.44 1418.72,789.54 1425.93,786.324 1427.09,785.807 1427.84,785.47 1442.23,778.123 1446.22,776.178 1448.11,775.267 1448.83,774.861 1454.78,771.586 1455.31,771.257 1473.34,761.062 1475.23,759.914 1497.54,747.841 1498.56,747.331 1505.85,743.76 1505.99,743.691 1513.8,739.97 1549.32,723.72 1550.63,723.135 1563.74,716.384 1567.33,714.615 1577.73,708.898 1589.81,702.756 1591.97,701.696 1594.63,700.406 1600.63,697.535 1610.26,693.029 1617.49,689.702 1617.91,689.507 1629.23,684.364 1633.98,681.843 1636.74,680.413 1676.47,661.498 1676.9,661.3 1688.21,656.181 1697.36,652.07 1701.23,650.336 1705.79,648.296 1709.28,646.738 1716.94,643.322 1724.42,639.993 1743.27,631.612 1753.93,626.877 1765.25,621.853 1768.85,620.255 1773.31,618.273 1774.48,617.755 1782.53,614.182 1794.76,608.756 1802.52,605.313 1808.77,602.54 1821.29,596.983 1821.87,596.727 1904.54,560.051 1913.45,556.096 1920.48,552.979 1923.93,551.447 1928.25,549.532 1931.66,548.018 1932.57,547.618 1933.91,547.021 1944.65,542.257 1944.93,542.132 1972.02,530.115 1978.99,527.023 1980.16,526.403 1988.72,522.003 1995.03,518.889 2001.51,515.77 2013.84,509.993 2019.85,507.231 2022.41,506.057 2026.97,503.984 2027.87,503.576 2029.86,502.675 2033.34,500.811 2054.58,490.245 2057.19,489.007 2057.84,488.697 2075.11,480.697 2076.31,480.153 2078.76,479.035 2080.57,478.215 2092.76,472.711 2099.88,469.517 2100.8,469.103 2124.79,458.401 2131.34,455.486 2140.65,451.348 2148.13,448.025 2159.97,442.766 2168.13,439.144 2171.97,437.442 2172.96,437.002 2178.06,434.738 2184.14,432.042 2185.53,431.425 2187.81,430.414 2199.81,425.088 2201.29,424.432 2202.72,423.798 2207.24,421.791 2207.67,421.602 2213.48,419.022 2216.3,417.774 2223.14,414.735 2227.02,413.016 2229.21,412.044 2233.64,410.078 2249.32,402.121 2254.2,399.765 2255.33,399.225 2262.18,395.988 2269.96,392.374 2283.65,386.12 2285.36,385.345 2286.57,384.796 2287.02,384.553 2289.3,383.339 2309.57,373.199 2322.05,367.33 2323.63,366.601 2327.81,364.338 2329.24,363.579 2342.25,356.986 2352.76,351.933 "/>
<polyline clip-path="url(#clip272)" style="stroke:#8e971d; stroke-linecap:round; stroke-linejoin:round; stroke-width:4; stroke-opacity:1; fill:none" points="140.696,1384.24 140.696,1384.24 143.953,1382.52 149.672,1379.6 166.885,1371.25 186.481,1361.04 201.198,1353.99 201.892,1353.66 218.566,1345.98 235.614,1337.22 244.477,1332.3 261.178,1323.82 267.849,1320.61 294.247,1307.03 298.546,1304.97 319.499,1295.26 322.436,1293.93 322.471,1293.91 331.095,1290.01 332.562,1289.22 338.952,1285.89 357.601,1276.76 369.489,1271.22 376.026,1268.22 381.59,1265.69 396.585,1258.93 398.611,1258.02 417.417,1249.61 428.881,1243.71 442.998,1236.88 452.767,1231.62 474.273,1221.03 477.401,1219.3 484.567,1215.49 487.232,1214.12 487.928,1213.7 491.975,1211.35 502.324,1205.73 528.66,1192.82 533.259,1190.68 533.863,1190.4 536.407,1189.23 546.509,1183.89 550.598,1181.82 556.057,1179.13 569.12,1172.9 575.13,1170.1 601.4,1158.16 622.748,1148.61 623.345,1148.34 625.641,1147.32 634.821,1143.23 649.955,1135.52 650.1,1135.44 658.455,1130.8 664.238,1127.77 676.634,1121.59 682.993,1118.55 690.052,1115.23 707.72,1107.12 712.595,1104.52 717.552,1101.97 730.824,1095.44 731.756,1095 740.109,1091.06 770.144,1075.88 774.59,1073.79 779.954,1071.3 782.661,1070.05 814.514,1054.13 817.97,1052.51 818.911,1052.07 828.517,1046.96 840.803,1040.83 842.813,1039.69 845.988,1037.93 849.083,1036.26 853.05,1034.18 859.337,1030.49 862.481,1028.73 874.091,1022.61 880.287,1019.03 886.712,1015.54 902.026,1006.8 903.02,1006.27 912.336,1001.49 922.839,995.62 923.88,994.975 929.414,991.248 929.869,990.914 929.882,990.903 930.164,990.649 937.831,983.706 940.65,981.194 955.871,969.809 958.34,968.009 964.643,963.732 971.379,959.56 973.95,957.839 1003.55,941.208 1017.35,934.501 1030.5,928.363 1041.63,923.277 1051.87,918.65 1055.56,916.99 1064.85,912.828 1069.15,910.557 1072.49,908.836 1073.96,908.092 1081.45,903.812 1084.12,902.361 1084.4,902.209 1098.21,895.111 1101.06,893.475 1102.3,892.666 1126.12,877.868 1170.89,854.367 1174.72,852.267 1193.87,842.533 1194.26,842.342 1214.05,831.871 1217.43,830.203 1218.52,829.58 1231.58,822.517 1232.62,821.896 1235.27,820.116 1242.97,815.298 1243.39,815.053 1245.38,813.884 1259.43,805.299 1268.99,799.434 1273.43,796.918 1276.79,795.076 1282.53,792.044 1284.29,790.989 1284.43,790.905 1298.99,782.841 1301.67,781.456 1302.14,781.172 1320.28,771.205 1333.77,764.522 1334.61,764.118 1347.34,758.121 1358.24,753.107 1363.63,750.234 1364.26,749.847 1366.08,748.602 1373.96,742.968 1376.75,741.138 1378.69,739.741 1387.1,734.157 1392.73,730.76 1399.99,726.666 1409.29,721.763 1412.24,720.268 1418.72,717.06 1425.93,713.592 1427.09,713.042 1427.84,712.618 1442.23,705.013 1446.22,702.698 1448.11,701.633 1448.83,701.235 1454.78,697.55 1455.31,697.236 1473.34,686.29 1475.23,685.255 1497.54,672.728 1498.56,672.118 1505.85,667.949 1505.99,667.858 1513.8,663.101 1549.32,643.301 1550.63,642.665 1563.74,636.413 1567.33,634.738 1577.73,629.955 1589.81,624.474 1591.97,623.315 1594.63,621.918 1600.63,618.377 1610.26,612.418 1617.49,608.344 1617.91,608.113 1629.23,602.208 1633.98,599.845 1636.74,598.262 1676.47,578.383 1676.9,578.18 1688.21,572.197 1697.36,567.646 1701.23,565.458 1705.79,562.609 1709.28,560.533 1716.94,555.655 1724.42,551.308 1743.27,541.468 1753.93,535.562 1765.25,529.777 1768.85,527.713 1773.31,525.247 1774.48,524.617 1782.53,520.417 1794.76,513.544 1802.52,509.519 1808.77,505.92 1821.29,498.414 1821.87,498.041 1904.54,457.013 1913.45,452.369 1920.48,448.338 1923.93,446.452 1928.25,444.164 1931.66,442.122 1932.57,441.517 1933.91,440.629 1944.65,433.319 1944.93,433.142 1972.02,418.262 1978.99,414.845 1980.16,414.28 1988.72,409.58 1995.03,406.308 2001.51,402.567 2013.84,396.007 2019.85,392.994 2022.41,391.732 2026.97,389.525 2027.87,389.094 2029.86,388.144 2033.34,386.492 2054.58,375.477 2057.19,374.208 2057.84,373.891 2075.11,364.692 2076.31,364.094 2078.76,362.874 2080.57,361.833 2092.76,354.388 2099.88,349.922 2100.8,349.291 2124.79,333.89 2131.34,330.356 2140.65,325.597 2148.13,321.368 2159.97,315.172 2168.13,310.533 2171.97,308.154 2172.96,307.472 2178.06,304.115 2184.14,299.932 2185.53,299.028 2187.81,297.583 2199.81,289.755 2201.29,288.747 2202.72,287.671 2207.24,284.438 2207.67,284.146 2213.48,280.337 2216.3,278.6 2223.14,274.075 2227.02,271.697 2229.21,270.399 2233.64,267.509 2249.32,258.425 2254.2,255.851 2255.33,255.268 2262.18,251.283 2269.96,247.057 2283.65,240.129 2285.36,239.295 2286.57,238.707 2287.02,238.49 2289.3,237.397 2309.57,226.752 2322.05,220.737 2323.63,219.995 2327.81,218.039 2329.24,217.373 2342.25,211.398 2352.76,206.639 "/>
<path clip-path="url(#clip270)" d="M214.431 663.349 L554.896 663.349 L554.896 93.1086 L214.431 93.1086  Z" fill="#ffffff" fill-rule="evenodd" fill-opacity="1"/>
<polyline clip-path="url(#clip270)" style="stroke:#000000; stroke-linecap:round; stroke-linejoin:round; stroke-width:4; stroke-opacity:1; fill:none" points="214.431,663.349 554.896,663.349 554.896,93.1086 214.431,93.1086 214.431,663.349 "/>
<polyline clip-path="url(#clip270)" style="stroke:#009af9; stroke-linecap:round; stroke-linejoin:round; stroke-width:4; stroke-opacity:1; fill:none" points="239.009,144.949 386.48,144.949 "/>
<path clip-path="url(#clip270)" d="M411.058 151.997 L411.058 136.303 L415.318 136.303 L415.318 151.835 Q415.318 155.516 416.753 157.368 Q418.188 159.196 421.058 159.196 Q424.507 159.196 426.498 156.997 Q428.512 154.798 428.512 151.002 L428.512 136.303 L432.771 136.303 L432.771 162.229 L428.512 162.229 L428.512 158.247 Q426.961 160.608 424.901 161.766 Q422.864 162.9 420.156 162.9 Q415.688 162.9 413.373 160.122 Q411.058 157.344 411.058 151.997 M421.776 135.678 L421.776 135.678 Z" fill="#000000" fill-rule="nonzero" fill-opacity="1" /><path clip-path="url(#clip270)" d="M441.151 126.21 L450.966 126.21 L450.966 129.52 L445.41 129.52 L445.41 165.168 L450.966 165.168 L450.966 168.479 L441.151 168.479 L441.151 126.21 Z" fill="#000000" fill-rule="nonzero" fill-opacity="1" /><path clip-path="url(#clip270)" d="M461.452 158.293 L469.091 158.293 L469.091 131.928 L460.78 133.595 L460.78 129.335 L469.044 127.669 L473.72 127.669 L473.72 158.293 L481.359 158.293 L481.359 162.229 L461.452 162.229 L461.452 158.293 Z" fill="#000000" fill-rule="nonzero" fill-opacity="1" /><path clip-path="url(#clip270)" d="M500.155 126.21 L500.155 168.479 L490.34 168.479 L490.34 165.168 L495.873 165.168 L495.873 129.52 L490.34 129.52 L490.34 126.21 L500.155 126.21 Z" fill="#000000" fill-rule="nonzero" fill-opacity="1" /><polyline clip-path="url(#clip270)" style="stroke:#e26f46; stroke-linecap:round; stroke-linejoin:round; stroke-width:4; stroke-opacity:1; fill:none" points="239.009,196.789 386.48,196.789 "/>
<path clip-path="url(#clip270)" d="M411.058 203.837 L411.058 188.143 L415.318 188.143 L415.318 203.675 Q415.318 207.356 416.753 209.208 Q418.188 211.036 421.058 211.036 Q424.507 211.036 426.498 208.837 Q428.512 206.638 428.512 202.842 L428.512 188.143 L432.771 188.143 L432.771 214.069 L428.512 214.069 L428.512 210.087 Q426.961 212.448 424.901 213.606 Q422.864 214.74 420.156 214.74 Q415.688 214.74 413.373 211.962 Q411.058 209.184 411.058 203.837 M421.776 187.518 L421.776 187.518 Z" fill="#000000" fill-rule="nonzero" fill-opacity="1" /><path clip-path="url(#clip270)" d="M441.151 178.05 L450.966 178.05 L450.966 181.36 L445.41 181.36 L445.41 217.008 L450.966 217.008 L450.966 220.319 L441.151 220.319 L441.151 178.05 Z" fill="#000000" fill-rule="nonzero" fill-opacity="1" /><path clip-path="url(#clip270)" d="M464.669 210.133 L480.989 210.133 L480.989 214.069 L459.044 214.069 L459.044 210.133 Q461.706 207.379 466.29 202.749 Q470.896 198.096 472.077 196.754 Q474.322 194.231 475.202 192.495 Q476.104 190.735 476.104 189.046 Q476.104 186.291 474.16 184.555 Q472.239 182.819 469.137 182.819 Q466.938 182.819 464.484 183.583 Q462.054 184.347 459.276 185.897 L459.276 181.175 Q462.1 180.041 464.554 179.462 Q467.007 178.884 469.044 178.884 Q474.415 178.884 477.609 181.569 Q480.803 184.254 480.803 188.745 Q480.803 190.874 479.993 192.796 Q479.206 194.694 477.1 197.286 Q476.521 197.958 473.419 201.175 Q470.317 204.37 464.669 210.133 Z" fill="#000000" fill-rule="nonzero" fill-opacity="1" /><path clip-path="url(#clip270)" d="M500.155 178.05 L500.155 220.319 L490.34 220.319 L490.34 217.008 L495.873 217.008 L495.873 181.36 L490.34 181.36 L490.34 178.05 L500.155 178.05 Z" fill="#000000" fill-rule="nonzero" fill-opacity="1" /><polyline clip-path="url(#clip270)" style="stroke:#3da44d; stroke-linecap:round; stroke-linejoin:round; stroke-width:4; stroke-opacity:1; fill:none" points="239.009,248.629 386.48,248.629 "/>
<path clip-path="url(#clip270)" d="M411.058 255.677 L411.058 239.983 L415.318 239.983 L415.318 255.515 Q415.318 259.196 416.753 261.048 Q418.188 262.876 421.058 262.876 Q424.507 262.876 426.498 260.677 Q428.512 258.478 428.512 254.682 L428.512 239.983 L432.771 239.983 L432.771 265.909 L428.512 265.909 L428.512 261.927 Q426.961 264.288 424.901 265.446 Q422.864 266.58 420.156 266.58 Q415.688 266.58 413.373 263.802 Q411.058 261.024 411.058 255.677 M421.776 239.358 L421.776 239.358 Z" fill="#000000" fill-rule="nonzero" fill-opacity="1" /><path clip-path="url(#clip270)" d="M441.151 229.89 L450.966 229.89 L450.966 233.2 L445.41 233.2 L445.41 268.848 L450.966 268.848 L450.966 272.159 L441.151 272.159 L441.151 229.89 Z" fill="#000000" fill-rule="nonzero" fill-opacity="1" /><path clip-path="url(#clip270)" d="M474.808 247.274 Q478.165 247.992 480.04 250.261 Q481.938 252.529 481.938 255.862 Q481.938 260.978 478.419 263.779 Q474.901 266.58 468.419 266.58 Q466.243 266.58 463.929 266.14 Q461.637 265.723 459.183 264.867 L459.183 260.353 Q461.128 261.487 463.442 262.066 Q465.757 262.645 468.28 262.645 Q472.679 262.645 474.97 260.909 Q477.285 259.173 477.285 255.862 Q477.285 252.807 475.132 251.094 Q473.003 249.358 469.183 249.358 L465.155 249.358 L465.155 245.515 L469.368 245.515 Q472.817 245.515 474.646 244.149 Q476.475 242.761 476.475 240.168 Q476.475 237.506 474.577 236.094 Q472.702 234.659 469.183 234.659 Q467.262 234.659 465.063 235.075 Q462.864 235.492 460.225 236.372 L460.225 232.205 Q462.887 231.464 465.202 231.094 Q467.54 230.724 469.6 230.724 Q474.924 230.724 478.026 233.154 Q481.128 235.562 481.128 239.682 Q481.128 242.552 479.484 244.543 Q477.841 246.511 474.808 247.274 Z" fill="#000000" fill-rule="nonzero" fill-opacity="1" /><path clip-path="url(#clip270)" d="M500.155 229.89 L500.155 272.159 L490.34 272.159 L490.34 268.848 L495.873 268.848 L495.873 233.2 L490.34 233.2 L490.34 229.89 L500.155 229.89 Z" fill="#000000" fill-rule="nonzero" fill-opacity="1" /><polyline clip-path="url(#clip270)" style="stroke:#c271d2; stroke-linecap:round; stroke-linejoin:round; stroke-width:4; stroke-opacity:1; fill:none" points="239.009,300.469 386.48,300.469 "/>
<path clip-path="url(#clip270)" d="M411.058 307.517 L411.058 291.823 L415.318 291.823 L415.318 307.355 Q415.318 311.036 416.753 312.888 Q418.188 314.716 421.058 314.716 Q424.507 314.716 426.498 312.517 Q428.512 310.318 428.512 306.522 L428.512 291.823 L432.771 291.823 L432.771 317.749 L428.512 317.749 L428.512 313.767 Q426.961 316.128 424.901 317.286 Q422.864 318.42 420.156 318.42 Q415.688 318.42 413.373 315.642 Q411.058 312.864 411.058 307.517 M421.776 291.198 L421.776 291.198 Z" fill="#000000" fill-rule="nonzero" fill-opacity="1" /><path clip-path="url(#clip270)" d="M441.151 281.73 L450.966 281.73 L450.966 285.04 L445.41 285.04 L445.41 320.688 L450.966 320.688 L450.966 323.999 L441.151 323.999 L441.151 281.73 Z" fill="#000000" fill-rule="nonzero" fill-opacity="1" /><path clip-path="url(#clip270)" d="M473.489 287.263 L461.683 305.712 L473.489 305.712 L473.489 287.263 M472.262 283.189 L478.141 283.189 L478.141 305.712 L483.072 305.712 L483.072 309.601 L478.141 309.601 L478.141 317.749 L473.489 317.749 L473.489 309.601 L457.887 309.601 L457.887 305.087 L472.262 283.189 Z" fill="#000000" fill-rule="nonzero" fill-opacity="1" /><path clip-path="url(#clip270)" d="M500.155 281.73 L500.155 323.999 L490.34 323.999 L490.34 320.688 L495.873 320.688 L495.873 285.04 L490.34 285.04 L490.34 281.73 L500.155 281.73 Z" fill="#000000" fill-rule="nonzero" fill-opacity="1" /><polyline clip-path="url(#clip270)" style="stroke:#ac8d18; stroke-linecap:round; stroke-linejoin:round; stroke-width:4; stroke-opacity:1; fill:none" points="239.009,352.309 386.48,352.309 "/>
<path clip-path="url(#clip270)" d="M411.058 359.357 L411.058 343.663 L415.318 343.663 L415.318 359.195 Q415.318 362.876 416.753 364.728 Q418.188 366.556 421.058 366.556 Q424.507 366.556 426.498 364.357 Q428.512 362.158 428.512 358.362 L428.512 343.663 L432.771 343.663 L432.771 369.589 L428.512 369.589 L428.512 365.607 Q426.961 367.968 424.901 369.126 Q422.864 370.26 420.156 370.26 Q415.688 370.26 413.373 367.482 Q411.058 364.704 411.058 359.357 M421.776 343.038 L421.776 343.038 Z" fill="#000000" fill-rule="nonzero" fill-opacity="1" /><path clip-path="url(#clip270)" d="M441.151 333.57 L450.966 333.57 L450.966 336.88 L445.41 336.88 L445.41 372.528 L450.966 372.528 L450.966 375.839 L441.151 375.839 L441.151 333.57 Z" fill="#000000" fill-rule="nonzero" fill-opacity="1" /><path clip-path="url(#clip270)" d="M460.688 335.029 L479.044 335.029 L479.044 338.964 L464.97 338.964 L464.97 347.436 Q465.989 347.089 467.007 346.927 Q468.026 346.742 469.044 346.742 Q474.831 346.742 478.211 349.913 Q481.591 353.084 481.591 358.501 Q481.591 364.079 478.118 367.181 Q474.646 370.26 468.327 370.26 Q466.151 370.26 463.882 369.89 Q461.637 369.519 459.23 368.778 L459.23 364.079 Q461.313 365.214 463.535 365.769 Q465.757 366.325 468.234 366.325 Q472.239 366.325 474.577 364.218 Q476.915 362.112 476.915 358.501 Q476.915 354.89 474.577 352.783 Q472.239 350.677 468.234 350.677 Q466.359 350.677 464.484 351.093 Q462.632 351.51 460.688 352.39 L460.688 335.029 Z" fill="#000000" fill-rule="nonzero" fill-opacity="1" /><path clip-path="url(#clip270)" d="M500.155 333.57 L500.155 375.839 L490.34 375.839 L490.34 372.528 L495.873 372.528 L495.873 336.88 L490.34 336.88 L490.34 333.57 L500.155 333.57 Z" fill="#000000" fill-rule="nonzero" fill-opacity="1" /><polyline clip-path="url(#clip270)" style="stroke:#00a9ad; stroke-linecap:round; stroke-linejoin:round; stroke-width:4; stroke-opacity:1; fill:none" points="239.009,404.149 386.48,404.149 "/>
<path clip-path="url(#clip270)" d="M411.058 411.197 L411.058 395.503 L415.318 395.503 L415.318 411.035 Q415.318 414.716 416.753 416.568 Q418.188 418.396 421.058 418.396 Q424.507 418.396 426.498 416.197 Q428.512 413.998 428.512 410.202 L428.512 395.503 L432.771 395.503 L432.771 421.429 L428.512 421.429 L428.512 417.447 Q426.961 419.808 424.901 420.966 Q422.864 422.1 420.156 422.1 Q415.688 422.1 413.373 419.322 Q411.058 416.544 411.058 411.197 M421.776 394.878 L421.776 394.878 Z" fill="#000000" fill-rule="nonzero" fill-opacity="1" /><path clip-path="url(#clip270)" d="M441.151 385.41 L450.966 385.41 L450.966 388.72 L445.41 388.72 L445.41 424.368 L450.966 424.368 L450.966 427.679 L441.151 427.679 L441.151 385.41 Z" fill="#000000" fill-rule="nonzero" fill-opacity="1" /><path clip-path="url(#clip270)" d="M471.22 402.285 Q468.072 402.285 466.22 404.438 Q464.392 406.591 464.392 410.341 Q464.392 414.068 466.22 416.243 Q468.072 418.396 471.22 418.396 Q474.368 418.396 476.197 416.243 Q478.049 414.068 478.049 410.341 Q478.049 406.591 476.197 404.438 Q474.368 402.285 471.22 402.285 M480.503 387.633 L480.503 391.892 Q478.743 391.058 476.938 390.619 Q475.155 390.179 473.396 390.179 Q468.766 390.179 466.313 393.304 Q463.882 396.429 463.535 402.748 Q464.901 400.734 466.961 399.669 Q469.021 398.582 471.498 398.582 Q476.706 398.582 479.716 401.753 Q482.748 404.901 482.748 410.341 Q482.748 415.665 479.6 418.882 Q476.452 422.1 471.22 422.1 Q465.225 422.1 462.054 417.517 Q458.882 412.91 458.882 404.183 Q458.882 395.989 462.771 391.128 Q466.66 386.244 473.211 386.244 Q474.97 386.244 476.753 386.591 Q478.558 386.938 480.503 387.633 Z" fill="#000000" fill-rule="nonzero" fill-opacity="1" /><path clip-path="url(#clip270)" d="M500.155 385.41 L500.155 427.679 L490.34 427.679 L490.34 424.368 L495.873 424.368 L495.873 388.72 L490.34 388.72 L490.34 385.41 L500.155 385.41 Z" fill="#000000" fill-rule="nonzero" fill-opacity="1" /><polyline clip-path="url(#clip270)" style="stroke:#ed5d92; stroke-linecap:round; stroke-linejoin:round; stroke-width:4; stroke-opacity:1; fill:none" points="239.009,455.989 386.48,455.989 "/>
<path clip-path="url(#clip270)" d="M411.058 463.037 L411.058 447.343 L415.318 447.343 L415.318 462.875 Q415.318 466.556 416.753 468.408 Q418.188 470.236 421.058 470.236 Q424.507 470.236 426.498 468.037 Q428.512 465.838 428.512 462.042 L428.512 447.343 L432.771 447.343 L432.771 473.269 L428.512 473.269 L428.512 469.287 Q426.961 471.648 424.901 472.806 Q422.864 473.94 420.156 473.94 Q415.688 473.94 413.373 471.162 Q411.058 468.384 411.058 463.037 M421.776 446.718 L421.776 446.718 Z" fill="#000000" fill-rule="nonzero" fill-opacity="1" /><path clip-path="url(#clip270)" d="M441.151 437.25 L450.966 437.25 L450.966 440.56 L445.41 440.56 L445.41 476.208 L450.966 476.208 L450.966 479.519 L441.151 479.519 L441.151 437.25 Z" fill="#000000" fill-rule="nonzero" fill-opacity="1" /><path clip-path="url(#clip270)" d="M459.461 438.709 L481.683 438.709 L481.683 440.699 L469.137 473.269 L464.253 473.269 L476.058 442.644 L459.461 442.644 L459.461 438.709 Z" fill="#000000" fill-rule="nonzero" fill-opacity="1" /><path clip-path="url(#clip270)" d="M500.155 437.25 L500.155 479.519 L490.34 479.519 L490.34 476.208 L495.873 476.208 L495.873 440.56 L490.34 440.56 L490.34 437.25 L500.155 437.25 Z" fill="#000000" fill-rule="nonzero" fill-opacity="1" /><polyline clip-path="url(#clip270)" style="stroke:#c68125; stroke-linecap:round; stroke-linejoin:round; stroke-width:4; stroke-opacity:1; fill:none" points="239.009,507.829 386.48,507.829 "/>
<path clip-path="url(#clip270)" d="M411.058 514.877 L411.058 499.183 L415.318 499.183 L415.318 514.715 Q415.318 518.396 416.753 520.248 Q418.188 522.076 421.058 522.076 Q424.507 522.076 426.498 519.877 Q428.512 517.678 428.512 513.882 L428.512 499.183 L432.771 499.183 L432.771 525.109 L428.512 525.109 L428.512 521.127 Q426.961 523.488 424.901 524.646 Q422.864 525.78 420.156 525.78 Q415.688 525.78 413.373 523.002 Q411.058 520.224 411.058 514.877 M421.776 498.558 L421.776 498.558 Z" fill="#000000" fill-rule="nonzero" fill-opacity="1" /><path clip-path="url(#clip270)" d="M441.151 489.09 L450.966 489.09 L450.966 492.4 L445.41 492.4 L445.41 528.048 L450.966 528.048 L450.966 531.359 L441.151 531.359 L441.151 489.09 Z" fill="#000000" fill-rule="nonzero" fill-opacity="1" /><path clip-path="url(#clip270)" d="M470.641 508.697 Q467.308 508.697 465.387 510.479 Q463.489 512.261 463.489 515.386 Q463.489 518.511 465.387 520.294 Q467.308 522.076 470.641 522.076 Q473.975 522.076 475.896 520.294 Q477.817 518.488 477.817 515.386 Q477.817 512.261 475.896 510.479 Q473.998 508.697 470.641 508.697 M465.966 506.706 Q462.956 505.965 461.267 503.905 Q459.6 501.845 459.6 498.882 Q459.6 494.738 462.54 492.331 Q465.503 489.924 470.641 489.924 Q475.803 489.924 478.743 492.331 Q481.683 494.738 481.683 498.882 Q481.683 501.845 479.993 503.905 Q478.327 505.965 475.341 506.706 Q478.72 507.493 480.595 509.785 Q482.493 512.076 482.493 515.386 Q482.493 520.41 479.415 523.095 Q476.359 525.78 470.641 525.78 Q464.924 525.78 461.845 523.095 Q458.79 520.41 458.79 515.386 Q458.79 512.076 460.688 509.785 Q462.586 507.493 465.966 506.706 M464.253 499.322 Q464.253 502.007 465.919 503.512 Q467.609 505.016 470.641 505.016 Q473.651 505.016 475.341 503.512 Q477.053 502.007 477.053 499.322 Q477.053 496.637 475.341 495.132 Q473.651 493.627 470.641 493.627 Q467.609 493.627 465.919 495.132 Q464.253 496.637 464.253 499.322 Z" fill="#000000" fill-rule="nonzero" fill-opacity="1" /><path clip-path="url(#clip270)" d="M500.155 489.09 L500.155 531.359 L490.34 531.359 L490.34 528.048 L495.873 528.048 L495.873 492.4 L490.34 492.4 L490.34 489.09 L500.155 489.09 Z" fill="#000000" fill-rule="nonzero" fill-opacity="1" /><polyline clip-path="url(#clip270)" style="stroke:#00a98d; stroke-linecap:round; stroke-linejoin:round; stroke-width:4; stroke-opacity:1; fill:none" points="239.009,559.669 386.48,559.669 "/>
<path clip-path="url(#clip270)" d="M411.058 566.717 L411.058 551.023 L415.318 551.023 L415.318 566.555 Q415.318 570.236 416.753 572.088 Q418.188 573.916 421.058 573.916 Q424.507 573.916 426.498 571.717 Q428.512 569.518 428.512 565.722 L428.512 551.023 L432.771 551.023 L432.771 576.949 L428.512 576.949 L428.512 572.967 Q426.961 575.328 424.901 576.486 Q422.864 577.62 420.156 577.62 Q415.688 577.62 413.373 574.842 Q411.058 572.064 411.058 566.717 M421.776 550.398 L421.776 550.398 Z" fill="#000000" fill-rule="nonzero" fill-opacity="1" /><path clip-path="url(#clip270)" d="M441.151 540.93 L450.966 540.93 L450.966 544.24 L445.41 544.24 L445.41 579.888 L450.966 579.888 L450.966 583.199 L441.151 583.199 L441.151 540.93 Z" fill="#000000" fill-rule="nonzero" fill-opacity="1" /><path clip-path="url(#clip270)" d="M460.78 576.231 L460.78 571.972 Q462.54 572.805 464.345 573.245 Q466.151 573.685 467.887 573.685 Q472.516 573.685 474.947 570.583 Q477.401 567.458 477.748 561.115 Q476.405 563.106 474.345 564.171 Q472.285 565.236 469.785 565.236 Q464.6 565.236 461.567 562.111 Q458.558 558.963 458.558 553.523 Q458.558 548.199 461.706 544.981 Q464.854 541.764 470.086 541.764 Q476.081 541.764 479.229 546.37 Q482.401 550.953 482.401 559.703 Q482.401 567.875 478.512 572.759 Q474.646 577.62 468.095 577.62 Q466.336 577.62 464.53 577.273 Q462.725 576.925 460.78 576.231 M470.086 561.578 Q473.234 561.578 475.063 559.426 Q476.915 557.273 476.915 553.523 Q476.915 549.796 475.063 547.643 Q473.234 545.467 470.086 545.467 Q466.938 545.467 465.086 547.643 Q463.257 549.796 463.257 553.523 Q463.257 557.273 465.086 559.426 Q466.938 561.578 470.086 561.578 Z" fill="#000000" fill-rule="nonzero" fill-opacity="1" /><path clip-path="url(#clip270)" d="M500.155 540.93 L500.155 583.199 L490.34 583.199 L490.34 579.888 L495.873 579.888 L495.873 544.24 L490.34 544.24 L490.34 540.93 L500.155 540.93 Z" fill="#000000" fill-rule="nonzero" fill-opacity="1" /><polyline clip-path="url(#clip270)" style="stroke:#8e971d; stroke-linecap:round; stroke-linejoin:round; stroke-width:4; stroke-opacity:1; fill:none" points="239.009,611.509 386.48,611.509 "/>
<path clip-path="url(#clip270)" d="M411.058 618.557 L411.058 602.863 L415.318 602.863 L415.318 618.395 Q415.318 622.076 416.753 623.928 Q418.188 625.756 421.058 625.756 Q424.507 625.756 426.498 623.557 Q428.512 621.358 428.512 617.562 L428.512 602.863 L432.771 602.863 L432.771 628.789 L428.512 628.789 L428.512 624.807 Q426.961 627.168 424.901 628.326 Q422.864 629.46 420.156 629.46 Q415.688 629.46 413.373 626.682 Q411.058 623.904 411.058 618.557 M421.776 602.238 L421.776 602.238 Z" fill="#000000" fill-rule="nonzero" fill-opacity="1" /><path clip-path="url(#clip270)" d="M441.151 592.77 L450.966 592.77 L450.966 596.08 L445.41 596.08 L445.41 631.728 L450.966 631.728 L450.966 635.039 L441.151 635.039 L441.151 592.77 Z" fill="#000000" fill-rule="nonzero" fill-opacity="1" /><path clip-path="url(#clip270)" d="M461.452 624.853 L469.091 624.853 L469.091 598.488 L460.78 600.155 L460.78 595.895 L469.044 594.229 L473.72 594.229 L473.72 624.853 L481.359 624.853 L481.359 628.789 L461.452 628.789 L461.452 624.853 Z" fill="#000000" fill-rule="nonzero" fill-opacity="1" /><path clip-path="url(#clip270)" d="M500.803 597.307 Q497.192 597.307 495.364 600.872 Q493.558 604.414 493.558 611.543 Q493.558 618.65 495.364 622.215 Q497.192 625.756 500.803 625.756 Q504.438 625.756 506.243 622.215 Q508.072 618.65 508.072 611.543 Q508.072 604.414 506.243 600.872 Q504.438 597.307 500.803 597.307 M500.803 593.604 Q506.614 593.604 509.669 598.21 Q512.748 602.793 512.748 611.543 Q512.748 620.27 509.669 624.877 Q506.614 629.46 500.803 629.46 Q494.993 629.46 491.915 624.877 Q488.859 620.27 488.859 611.543 Q488.859 602.793 491.915 598.21 Q494.993 593.604 500.803 593.604 Z" fill="#000000" fill-rule="nonzero" fill-opacity="1" /><path clip-path="url(#clip270)" d="M530.317 592.77 L530.317 635.039 L520.502 635.039 L520.502 631.728 L526.035 631.728 L526.035 596.08 L520.502 596.08 L520.502 592.77 L530.317 592.77 Z" fill="#000000" fill-rule="nonzero" fill-opacity="1" /></svg>
