<?xml version="1.0" encoding="utf-8"?>
<svg xmlns="http://www.w3.org/2000/svg" xmlns:xlink="http://www.w3.org/1999/xlink" width="600" height="400" viewBox="0 0 2400 1600">
<defs>
  <clipPath id="clip050">
    <rect x="0" y="0" width="2400" height="1600"/>
  </clipPath>
</defs>
<path clip-path="url(#clip050)" d="M0 1600 L2400 1600 L2400 0 L0 0  Z" fill="#ffffff" fill-rule="evenodd" fill-opacity="1"/>
<defs>
  <clipPath id="clip051">
    <rect x="480" y="0" width="1681" height="1600"/>
  </clipPath>
</defs>
<path clip-path="url(#clip050)" d="M155.927 1486.45 L2352.76 1486.45 L2352.76 47.2441 L155.927 47.2441  Z" fill="#ffffff" fill-rule="evenodd" fill-opacity="1"/>
<defs>
  <clipPath id="clip052">
    <rect x="155" y="47" width="2198" height="1440"/>
  </clipPath>
</defs>
<polyline clip-path="url(#clip052)" style="stroke:#000000; stroke-linecap:round; stroke-linejoin:round; stroke-width:2; stroke-opacity:0.1; fill:none" points="216.085,1486.45 216.085,47.2441 "/>
<polyline clip-path="url(#clip052)" style="stroke:#000000; stroke-linecap:round; stroke-linejoin:round; stroke-width:2; stroke-opacity:0.1; fill:none" points="720.093,1486.45 720.093,47.2441 "/>
<polyline clip-path="url(#clip052)" style="stroke:#000000; stroke-linecap:round; stroke-linejoin:round; stroke-width:2; stroke-opacity:0.1; fill:none" points="1224.1,1486.45 1224.1,47.2441 "/>
<polyline clip-path="url(#clip052)" style="stroke:#000000; stroke-linecap:round; stroke-linejoin:round; stroke-width:2; stroke-opacity:0.1; fill:none" points="1728.11,1486.45 1728.11,47.2441 "/>
<polyline clip-path="url(#clip052)" style="stroke:#000000; stroke-linecap:round; stroke-linejoin:round; stroke-width:2; stroke-opacity:0.1; fill:none" points="2232.12,1486.45 2232.12,47.2441 "/>
<polyline clip-path="url(#clip050)" style="stroke:#000000; stroke-linecap:round; stroke-linejoin:round; stroke-width:4; stroke-opacity:1; fill:none" points="155.927,1486.45 2352.76,1486.45 "/>
<polyline clip-path="url(#clip050)" style="stroke:#000000; stroke-linecap:round; stroke-linejoin:round; stroke-width:4; stroke-opacity:1; fill:none" points="216.085,1486.45 216.085,1467.55 "/>
<polyline clip-path="url(#clip050)" style="stroke:#000000; stroke-linecap:round; stroke-linejoin:round; stroke-width:4; stroke-opacity:1; fill:none" points="720.093,1486.45 720.093,1467.55 "/>
<polyline clip-path="url(#clip050)" style="stroke:#000000; stroke-linecap:round; stroke-linejoin:round; stroke-width:4; stroke-opacity:1; fill:none" points="1224.1,1486.45 1224.1,1467.55 "/>
<polyline clip-path="url(#clip050)" style="stroke:#000000; stroke-linecap:round; stroke-linejoin:round; stroke-width:4; stroke-opacity:1; fill:none" points="1728.11,1486.45 1728.11,1467.55 "/>
<polyline clip-path="url(#clip050)" style="stroke:#000000; stroke-linecap:round; stroke-linejoin:round; stroke-width:4; stroke-opacity:1; fill:none" points="2232.12,1486.45 2232.12,1467.55 "/>
<path clip-path="url(#clip050)" d="M216.085 1517.37 Q212.474 1517.37 210.646 1520.93 Q208.84 1524.47 208.84 1531.6 Q208.84 1538.71 210.646 1542.27 Q212.474 1545.82 216.085 1545.82 Q219.72 1545.82 221.525 1542.27 Q223.354 1538.71 223.354 1531.6 Q223.354 1524.47 221.525 1520.93 Q219.72 1517.37 216.085 1517.37 M216.085 1513.66 Q221.895 1513.66 224.951 1518.27 Q228.03 1522.85 228.03 1531.6 Q228.03 1540.33 224.951 1544.94 Q221.895 1549.52 216.085 1549.52 Q210.275 1549.52 207.196 1544.94 Q204.141 1540.33 204.141 1531.6 Q204.141 1522.85 207.196 1518.27 Q210.275 1513.66 216.085 1513.66 Z" fill="#000000" fill-rule="nonzero" fill-opacity="1" /><path clip-path="url(#clip050)" d="M683.785 1544.91 L700.105 1544.91 L700.105 1548.85 L678.16 1548.85 L678.16 1544.91 Q680.823 1542.16 685.406 1537.53 Q690.012 1532.88 691.193 1531.53 Q693.438 1529.01 694.318 1527.27 Q695.221 1525.51 695.221 1523.82 Q695.221 1521.07 693.276 1519.33 Q691.355 1517.6 688.253 1517.6 Q686.054 1517.6 683.6 1518.36 Q681.17 1519.13 678.392 1520.68 L678.392 1515.95 Q681.216 1514.82 683.67 1514.24 Q686.123 1513.66 688.16 1513.66 Q693.531 1513.66 696.725 1516.35 Q699.92 1519.03 699.92 1523.52 Q699.92 1525.65 699.109 1527.57 Q698.322 1529.47 696.216 1532.07 Q695.637 1532.74 692.535 1535.95 Q689.434 1539.15 683.785 1544.91 Z" fill="#000000" fill-rule="nonzero" fill-opacity="1" /><path clip-path="url(#clip050)" d="M709.966 1514.29 L728.322 1514.29 L728.322 1518.22 L714.248 1518.22 L714.248 1526.7 Q715.267 1526.35 716.285 1526.19 Q717.304 1526 718.322 1526 Q724.109 1526 727.489 1529.17 Q730.869 1532.34 730.869 1537.76 Q730.869 1543.34 727.396 1546.44 Q723.924 1549.52 717.605 1549.52 Q715.429 1549.52 713.16 1549.15 Q710.915 1548.78 708.508 1548.04 L708.508 1543.34 Q710.591 1544.47 712.813 1545.03 Q715.035 1545.58 717.512 1545.58 Q721.517 1545.58 723.855 1543.48 Q726.193 1541.37 726.193 1537.76 Q726.193 1534.15 723.855 1532.04 Q721.517 1529.94 717.512 1529.94 Q715.637 1529.94 713.762 1530.35 Q711.91 1530.77 709.966 1531.65 L709.966 1514.29 Z" fill="#000000" fill-rule="nonzero" fill-opacity="1" /><path clip-path="url(#clip050)" d="M750.081 1517.37 Q746.47 1517.37 744.642 1520.93 Q742.836 1524.47 742.836 1531.6 Q742.836 1538.71 744.642 1542.27 Q746.47 1545.82 750.081 1545.82 Q753.716 1545.82 755.521 1542.27 Q757.35 1538.71 757.35 1531.6 Q757.35 1524.47 755.521 1520.93 Q753.716 1517.37 750.081 1517.37 M750.081 1513.66 Q755.892 1513.66 758.947 1518.27 Q762.026 1522.85 762.026 1531.6 Q762.026 1540.33 758.947 1544.94 Q755.892 1549.52 750.081 1549.52 Q744.271 1549.52 741.193 1544.94 Q738.137 1540.33 738.137 1531.6 Q738.137 1522.85 741.193 1518.27 Q744.271 1513.66 750.081 1513.66 Z" fill="#000000" fill-rule="nonzero" fill-opacity="1" /><path clip-path="url(#clip050)" d="M1183.72 1514.29 L1202.08 1514.29 L1202.08 1518.22 L1188 1518.22 L1188 1526.7 Q1189.02 1526.35 1190.04 1526.19 Q1191.06 1526 1192.08 1526 Q1197.86 1526 1201.24 1529.17 Q1204.62 1532.34 1204.62 1537.76 Q1204.62 1543.34 1201.15 1546.44 Q1197.68 1549.52 1191.36 1549.52 Q1189.18 1549.52 1186.91 1549.15 Q1184.67 1548.78 1182.26 1548.04 L1182.26 1543.34 Q1184.34 1544.47 1186.57 1545.03 Q1188.79 1545.58 1191.27 1545.58 Q1195.27 1545.58 1197.61 1543.48 Q1199.95 1541.37 1199.95 1537.76 Q1199.95 1534.15 1197.61 1532.04 Q1195.27 1529.94 1191.27 1529.94 Q1189.39 1529.94 1187.52 1530.35 Q1185.66 1530.77 1183.72 1531.65 L1183.72 1514.29 Z" fill="#000000" fill-rule="nonzero" fill-opacity="1" /><path clip-path="url(#clip050)" d="M1223.83 1517.37 Q1220.22 1517.37 1218.39 1520.93 Q1216.59 1524.47 1216.59 1531.6 Q1216.59 1538.71 1218.39 1542.27 Q1220.22 1545.82 1223.83 1545.82 Q1227.47 1545.82 1229.27 1542.27 Q1231.1 1538.71 1231.1 1531.6 Q1231.1 1524.47 1229.27 1520.93 Q1227.47 1517.37 1223.83 1517.37 M1223.83 1513.66 Q1229.64 1513.66 1232.7 1518.27 Q1235.78 1522.85 1235.78 1531.6 Q1235.78 1540.33 1232.7 1544.94 Q1229.64 1549.52 1223.83 1549.52 Q1218.02 1549.52 1214.95 1544.94 Q1211.89 1540.33 1211.89 1531.6 Q1211.89 1522.85 1214.95 1518.27 Q1218.02 1513.66 1223.83 1513.66 Z" fill="#000000" fill-rule="nonzero" fill-opacity="1" /><path clip-path="url(#clip050)" d="M1254 1517.37 Q1250.39 1517.37 1248.56 1520.93 Q1246.75 1524.47 1246.75 1531.6 Q1246.75 1538.71 1248.56 1542.27 Q1250.39 1545.82 1254 1545.82 Q1257.63 1545.82 1259.44 1542.27 Q1261.27 1538.71 1261.27 1531.6 Q1261.27 1524.47 1259.44 1520.93 Q1257.63 1517.37 1254 1517.37 M1254 1513.66 Q1259.81 1513.66 1262.86 1518.27 Q1265.94 1522.85 1265.94 1531.6 Q1265.94 1540.33 1262.86 1544.94 Q1259.81 1549.52 1254 1549.52 Q1248.19 1549.52 1245.11 1544.94 Q1242.05 1540.33 1242.05 1531.6 Q1242.05 1522.85 1245.11 1518.27 Q1248.19 1513.66 1254 1513.66 Z" fill="#000000" fill-rule="nonzero" fill-opacity="1" /><path clip-path="url(#clip050)" d="M1686.38 1514.29 L1708.61 1514.29 L1708.61 1516.28 L1696.06 1548.85 L1691.18 1548.85 L1702.98 1518.22 L1686.38 1518.22 L1686.38 1514.29 Z" fill="#000000" fill-rule="nonzero" fill-opacity="1" /><path clip-path="url(#clip050)" d="M1717.77 1514.29 L1736.13 1514.29 L1736.13 1518.22 L1722.06 1518.22 L1722.06 1526.7 Q1723.07 1526.35 1724.09 1526.19 Q1725.11 1526 1726.13 1526 Q1731.92 1526 1735.3 1529.17 Q1738.68 1532.34 1738.68 1537.76 Q1738.68 1543.34 1735.2 1546.44 Q1731.73 1549.52 1725.41 1549.52 Q1723.24 1549.52 1720.97 1549.15 Q1718.72 1548.78 1716.31 1548.04 L1716.31 1543.34 Q1718.4 1544.47 1720.62 1545.03 Q1722.84 1545.58 1725.32 1545.58 Q1729.32 1545.58 1731.66 1543.48 Q1734 1541.37 1734 1537.76 Q1734 1534.15 1731.66 1532.04 Q1729.32 1529.94 1725.32 1529.94 Q1723.44 1529.94 1721.57 1530.35 Q1719.72 1530.77 1717.77 1531.65 L1717.77 1514.29 Z" fill="#000000" fill-rule="nonzero" fill-opacity="1" /><path clip-path="url(#clip050)" d="M1757.89 1517.37 Q1754.28 1517.37 1752.45 1520.93 Q1750.64 1524.47 1750.64 1531.6 Q1750.64 1538.71 1752.45 1542.27 Q1754.28 1545.82 1757.89 1545.82 Q1761.52 1545.82 1763.33 1542.27 Q1765.16 1538.71 1765.16 1531.6 Q1765.16 1524.47 1763.33 1520.93 Q1761.52 1517.37 1757.89 1517.37 M1757.89 1513.66 Q1763.7 1513.66 1766.75 1518.27 Q1769.83 1522.85 1769.83 1531.6 Q1769.83 1540.33 1766.75 1544.94 Q1763.7 1549.52 1757.89 1549.52 Q1752.08 1549.52 1749 1544.94 Q1745.94 1540.33 1745.94 1531.6 Q1745.94 1522.85 1749 1518.27 Q1752.08 1513.66 1757.89 1513.66 Z" fill="#000000" fill-rule="nonzero" fill-opacity="1" /><path clip-path="url(#clip050)" d="M2176.64 1544.91 L2184.28 1544.91 L2184.28 1518.55 L2175.97 1520.21 L2175.97 1515.95 L2184.23 1514.29 L2188.91 1514.29 L2188.91 1544.91 L2196.55 1544.91 L2196.55 1548.85 L2176.64 1548.85 L2176.64 1544.91 Z" fill="#000000" fill-rule="nonzero" fill-opacity="1" /><path clip-path="url(#clip050)" d="M2215.99 1517.37 Q2212.38 1517.37 2210.55 1520.93 Q2208.75 1524.47 2208.75 1531.6 Q2208.75 1538.71 2210.55 1542.27 Q2212.38 1545.82 2215.99 1545.82 Q2219.63 1545.82 2221.43 1542.27 Q2223.26 1538.71 2223.26 1531.6 Q2223.26 1524.47 2221.43 1520.93 Q2219.63 1517.37 2215.99 1517.37 M2215.99 1513.66 Q2221.8 1513.66 2224.86 1518.27 Q2227.94 1522.85 2227.94 1531.6 Q2227.94 1540.33 2224.86 1544.94 Q2221.8 1549.52 2215.99 1549.52 Q2210.18 1549.52 2207.11 1544.94 Q2204.05 1540.33 2204.05 1531.6 Q2204.05 1522.85 2207.11 1518.27 Q2210.18 1513.66 2215.99 1513.66 Z" fill="#000000" fill-rule="nonzero" fill-opacity="1" /><path clip-path="url(#clip050)" d="M2246.16 1517.37 Q2242.54 1517.37 2240.72 1520.93 Q2238.91 1524.47 2238.91 1531.6 Q2238.91 1538.71 2240.72 1542.27 Q2242.54 1545.82 2246.16 1545.82 Q2249.79 1545.82 2251.6 1542.27 Q2253.42 1538.71 2253.42 1531.6 Q2253.42 1524.47 2251.6 1520.93 Q2249.79 1517.37 2246.16 1517.37 M2246.16 1513.66 Q2251.97 1513.66 2255.02 1518.27 Q2258.1 1522.85 2258.1 1531.6 Q2258.1 1540.33 2255.02 1544.94 Q2251.97 1549.52 2246.16 1549.52 Q2240.35 1549.52 2237.27 1544.94 Q2234.21 1540.33 2234.21 1531.6 Q2234.21 1522.85 2237.27 1518.27 Q2240.35 1513.66 2246.16 1513.66 Z" fill="#000000" fill-rule="nonzero" fill-opacity="1" /><path clip-path="url(#clip050)" d="M2276.32 1517.37 Q2272.71 1517.37 2270.88 1520.93 Q2269.07 1524.47 2269.07 1531.6 Q2269.07 1538.71 2270.88 1542.27 Q2272.71 1545.82 2276.32 1545.82 Q2279.95 1545.82 2281.76 1542.27 Q2283.59 1538.71 2283.59 1531.6 Q2283.59 1524.47 2281.76 1520.93 Q2279.95 1517.37 2276.32 1517.37 M2276.32 1513.66 Q2282.13 1513.66 2285.18 1518.27 Q2288.26 1522.85 2288.26 1531.6 Q2288.26 1540.33 2285.18 1544.94 Q2282.13 1549.52 2276.32 1549.52 Q2270.51 1549.52 2267.43 1544.94 Q2264.37 1540.33 2264.37 1531.6 Q2264.37 1522.85 2267.43 1518.27 Q2270.51 1513.66 2276.32 1513.66 Z" fill="#000000" fill-rule="nonzero" fill-opacity="1" /><polyline clip-path="url(#clip052)" style="stroke:#000000; stroke-linecap:round; stroke-linejoin:round; stroke-width:2; stroke-opacity:0.1; fill:none" points="155.927,1445.72 2352.76,1445.72 "/>
<polyline clip-path="url(#clip052)" style="stroke:#000000; stroke-linecap:round; stroke-linejoin:round; stroke-width:2; stroke-opacity:0.1; fill:none" points="155.927,1183.34 2352.76,1183.34 "/>
<polyline clip-path="url(#clip052)" style="stroke:#000000; stroke-linecap:round; stroke-linejoin:round; stroke-width:2; stroke-opacity:0.1; fill:none" points="155.927,920.955 2352.76,920.955 "/>
<polyline clip-path="url(#clip052)" style="stroke:#000000; stroke-linecap:round; stroke-linejoin:round; stroke-width:2; stroke-opacity:0.1; fill:none" points="155.927,658.575 2352.76,658.575 "/>
<polyline clip-path="url(#clip052)" style="stroke:#000000; stroke-linecap:round; stroke-linejoin:round; stroke-width:2; stroke-opacity:0.1; fill:none" points="155.927,396.194 2352.76,396.194 "/>
<polyline clip-path="url(#clip052)" style="stroke:#000000; stroke-linecap:round; stroke-linejoin:round; stroke-width:2; stroke-opacity:0.1; fill:none" points="155.927,133.814 2352.76,133.814 "/>
<polyline clip-path="url(#clip050)" style="stroke:#000000; stroke-linecap:round; stroke-linejoin:round; stroke-width:4; stroke-opacity:1; fill:none" points="155.927,1486.45 155.927,47.2441 "/>
<polyline clip-path="url(#clip050)" style="stroke:#000000; stroke-linecap:round; stroke-linejoin:round; stroke-width:4; stroke-opacity:1; fill:none" points="155.927,1445.72 174.825,1445.72 "/>
<polyline clip-path="url(#clip050)" style="stroke:#000000; stroke-linecap:round; stroke-linejoin:round; stroke-width:4; stroke-opacity:1; fill:none" points="155.927,1183.34 174.825,1183.34 "/>
<polyline clip-path="url(#clip050)" style="stroke:#000000; stroke-linecap:round; stroke-linejoin:round; stroke-width:4; stroke-opacity:1; fill:none" points="155.927,920.955 174.825,920.955 "/>
<polyline clip-path="url(#clip050)" style="stroke:#000000; stroke-linecap:round; stroke-linejoin:round; stroke-width:4; stroke-opacity:1; fill:none" points="155.927,658.575 174.825,658.575 "/>
<polyline clip-path="url(#clip050)" style="stroke:#000000; stroke-linecap:round; stroke-linejoin:round; stroke-width:4; stroke-opacity:1; fill:none" points="155.927,396.194 174.825,396.194 "/>
<polyline clip-path="url(#clip050)" style="stroke:#000000; stroke-linecap:round; stroke-linejoin:round; stroke-width:4; stroke-opacity:1; fill:none" points="155.927,133.814 174.825,133.814 "/>
<path clip-path="url(#clip050)" d="M52.7977 1428.44 L71.1541 1428.44 L71.1541 1432.37 L57.0801 1432.37 L57.0801 1440.84 Q58.0986 1440.5 59.1171 1440.33 Q60.1356 1440.15 61.1541 1440.15 Q66.9411 1440.15 70.3207 1443.32 Q73.7003 1446.49 73.7003 1451.91 Q73.7003 1457.49 70.2281 1460.59 Q66.7559 1463.67 60.4365 1463.67 Q58.2606 1463.67 55.9921 1463.3 Q53.7467 1462.93 51.3393 1462.19 L51.3393 1457.49 Q53.4227 1458.62 55.6449 1459.18 Q57.8671 1459.73 60.3439 1459.73 Q64.3485 1459.73 66.6865 1457.63 Q69.0244 1455.52 69.0244 1451.91 Q69.0244 1448.3 66.6865 1446.19 Q64.3485 1444.08 60.3439 1444.08 Q58.4689 1444.08 56.5939 1444.5 Q54.7421 1444.92 52.7977 1445.8 L52.7977 1428.44 Z" fill="#000000" fill-rule="nonzero" fill-opacity="1" /><path clip-path="url(#clip050)" d="M82.9133 1457.12 L87.7975 1457.12 L87.7975 1463 L82.9133 1463 L82.9133 1457.12 Z" fill="#000000" fill-rule="nonzero" fill-opacity="1" /><path clip-path="url(#clip050)" d="M107.983 1431.51 Q104.371 1431.51 102.543 1435.08 Q100.737 1438.62 100.737 1445.75 Q100.737 1452.86 102.543 1456.42 Q104.371 1459.96 107.983 1459.96 Q111.617 1459.96 113.422 1456.42 Q115.251 1452.86 115.251 1445.75 Q115.251 1438.62 113.422 1435.08 Q111.617 1431.51 107.983 1431.51 M107.983 1427.81 Q113.793 1427.81 116.848 1432.42 Q119.927 1437 119.927 1445.75 Q119.927 1454.48 116.848 1459.08 Q113.793 1463.67 107.983 1463.67 Q102.172 1463.67 99.0937 1459.08 Q96.0382 1454.48 96.0382 1445.75 Q96.0382 1437 99.0937 1432.42 Q102.172 1427.81 107.983 1427.81 Z" fill="#000000" fill-rule="nonzero" fill-opacity="1" /><path clip-path="url(#clip050)" d="M53.793 1166.06 L72.1494 1166.06 L72.1494 1169.99 L58.0754 1169.99 L58.0754 1178.46 Q59.0939 1178.12 60.1124 1177.95 Q61.131 1177.77 62.1495 1177.77 Q67.9365 1177.77 71.3161 1180.94 Q74.6957 1184.11 74.6957 1189.53 Q74.6957 1195.11 71.2235 1198.21 Q67.7513 1201.29 61.4319 1201.29 Q59.256 1201.29 56.9875 1200.92 Q54.7421 1200.55 52.3347 1199.81 L52.3347 1195.11 Q54.418 1196.24 56.6402 1196.8 Q58.8625 1197.35 61.3393 1197.35 Q65.3439 1197.35 67.6819 1195.25 Q70.0198 1193.14 70.0198 1189.53 Q70.0198 1185.92 67.6819 1183.81 Q65.3439 1181.7 61.3393 1181.7 Q59.4643 1181.7 57.5893 1182.12 Q55.7375 1182.54 53.793 1183.42 L53.793 1166.06 Z" fill="#000000" fill-rule="nonzero" fill-opacity="1" /><path clip-path="url(#clip050)" d="M83.9086 1194.74 L88.7928 1194.74 L88.7928 1200.62 L83.9086 1200.62 L83.9086 1194.74 Z" fill="#000000" fill-rule="nonzero" fill-opacity="1" /><path clip-path="url(#clip050)" d="M99.0243 1166.06 L117.381 1166.06 L117.381 1169.99 L103.307 1169.99 L103.307 1178.46 Q104.325 1178.12 105.344 1177.95 Q106.362 1177.77 107.381 1177.77 Q113.168 1177.77 116.547 1180.94 Q119.927 1184.11 119.927 1189.53 Q119.927 1195.11 116.455 1198.21 Q112.983 1201.29 106.663 1201.29 Q104.487 1201.29 102.219 1200.92 Q99.9733 1200.55 97.566 1199.81 L97.566 1195.11 Q99.6493 1196.24 101.871 1196.8 Q104.094 1197.35 106.571 1197.35 Q110.575 1197.35 112.913 1195.25 Q115.251 1193.14 115.251 1189.53 Q115.251 1185.92 112.913 1183.81 Q110.575 1181.7 106.571 1181.7 Q104.696 1181.7 102.821 1182.12 Q100.969 1182.54 99.0243 1183.42 L99.0243 1166.06 Z" fill="#000000" fill-rule="nonzero" fill-opacity="1" /><path clip-path="url(#clip050)" d="M63.33 919.092 Q60.1819 919.092 58.33 921.244 Q56.5014 923.397 56.5014 927.147 Q56.5014 930.874 58.33 933.05 Q60.1819 935.203 63.33 935.203 Q66.4782 935.203 68.3068 933.05 Q70.1587 930.874 70.1587 927.147 Q70.1587 923.397 68.3068 921.244 Q66.4782 919.092 63.33 919.092 M72.6124 904.439 L72.6124 908.698 Q70.8531 907.865 69.0476 907.425 Q67.2652 906.985 65.5059 906.985 Q60.8763 906.985 58.4226 910.11 Q55.9921 913.235 55.6449 919.555 Q57.0106 917.541 59.0708 916.476 Q61.131 915.388 63.6078 915.388 Q68.8161 915.388 71.8253 918.559 Q74.8577 921.707 74.8577 927.147 Q74.8577 932.471 71.7096 935.689 Q68.5615 938.906 63.33 938.906 Q57.3347 938.906 54.1634 934.323 Q50.9921 929.717 50.9921 920.99 Q50.9921 912.795 54.881 907.934 Q58.7699 903.05 65.3208 903.05 Q67.08 903.05 68.8624 903.397 Q70.6679 903.744 72.6124 904.439 Z" fill="#000000" fill-rule="nonzero" fill-opacity="1" /><path clip-path="url(#clip050)" d="M82.9133 932.355 L87.7975 932.355 L87.7975 938.235 L82.9133 938.235 L82.9133 932.355 Z" fill="#000000" fill-rule="nonzero" fill-opacity="1" /><path clip-path="url(#clip050)" d="M107.983 906.754 Q104.371 906.754 102.543 910.319 Q100.737 913.86 100.737 920.99 Q100.737 928.096 102.543 931.661 Q104.371 935.203 107.983 935.203 Q111.617 935.203 113.422 931.661 Q115.251 928.096 115.251 920.99 Q115.251 913.86 113.422 910.319 Q111.617 906.754 107.983 906.754 M107.983 903.05 Q113.793 903.05 116.848 907.657 Q119.927 912.24 119.927 920.99 Q119.927 929.717 116.848 934.323 Q113.793 938.906 107.983 938.906 Q102.172 938.906 99.0937 934.323 Q96.0382 929.717 96.0382 920.99 Q96.0382 912.24 99.0937 907.657 Q102.172 903.05 107.983 903.05 Z" fill="#000000" fill-rule="nonzero" fill-opacity="1" /><path clip-path="url(#clip050)" d="M64.3254 656.711 Q61.1773 656.711 59.3254 658.864 Q57.4967 661.017 57.4967 664.767 Q57.4967 668.494 59.3254 670.67 Q61.1773 672.822 64.3254 672.822 Q67.4735 672.822 69.3022 670.67 Q71.1541 668.494 71.1541 664.767 Q71.1541 661.017 69.3022 658.864 Q67.4735 656.711 64.3254 656.711 M73.6077 642.059 L73.6077 646.318 Q71.8485 645.485 70.0429 645.045 Q68.2606 644.605 66.5013 644.605 Q61.8717 644.605 59.418 647.73 Q56.9875 650.855 56.6402 657.174 Q58.006 655.16 60.0662 654.096 Q62.1263 653.008 64.6032 653.008 Q69.8115 653.008 72.8207 656.179 Q75.8531 659.327 75.8531 664.767 Q75.8531 670.091 72.705 673.308 Q69.5568 676.526 64.3254 676.526 Q58.33 676.526 55.1588 671.943 Q51.9875 667.336 51.9875 658.609 Q51.9875 650.415 55.8764 645.554 Q59.7652 640.67 66.3161 640.67 Q68.0754 640.67 69.8578 641.017 Q71.6633 641.364 73.6077 642.059 Z" fill="#000000" fill-rule="nonzero" fill-opacity="1" /><path clip-path="url(#clip050)" d="M83.9086 669.975 L88.7928 669.975 L88.7928 675.855 L83.9086 675.855 L83.9086 669.975 Z" fill="#000000" fill-rule="nonzero" fill-opacity="1" /><path clip-path="url(#clip050)" d="M99.0243 641.295 L117.381 641.295 L117.381 645.23 L103.307 645.23 L103.307 653.702 Q104.325 653.355 105.344 653.193 Q106.362 653.008 107.381 653.008 Q113.168 653.008 116.547 656.179 Q119.927 659.35 119.927 664.767 Q119.927 670.345 116.455 673.447 Q112.983 676.526 106.663 676.526 Q104.487 676.526 102.219 676.156 Q99.9733 675.785 97.566 675.045 L97.566 670.345 Q99.6493 671.48 101.871 672.035 Q104.094 672.591 106.571 672.591 Q110.575 672.591 112.913 670.484 Q115.251 668.378 115.251 664.767 Q115.251 661.156 112.913 659.049 Q110.575 656.943 106.571 656.943 Q104.696 656.943 102.821 657.359 Q100.969 657.776 99.0243 658.656 L99.0243 641.295 Z" fill="#000000" fill-rule="nonzero" fill-opacity="1" /><path clip-path="url(#clip050)" d="M51.5708 378.914 L73.7929 378.914 L73.7929 380.905 L61.2467 413.474 L56.3625 413.474 L68.168 382.85 L51.5708 382.85 L51.5708 378.914 Z" fill="#000000" fill-rule="nonzero" fill-opacity="1" /><path clip-path="url(#clip050)" d="M82.9133 407.595 L87.7975 407.595 L87.7975 413.474 L82.9133 413.474 L82.9133 407.595 Z" fill="#000000" fill-rule="nonzero" fill-opacity="1" /><path clip-path="url(#clip050)" d="M107.983 381.993 Q104.371 381.993 102.543 385.558 Q100.737 389.1 100.737 396.229 Q100.737 403.336 102.543 406.9 Q104.371 410.442 107.983 410.442 Q111.617 410.442 113.422 406.9 Q115.251 403.336 115.251 396.229 Q115.251 389.1 113.422 385.558 Q111.617 381.993 107.983 381.993 M107.983 378.289 Q113.793 378.289 116.848 382.896 Q119.927 387.479 119.927 396.229 Q119.927 404.956 116.848 409.562 Q113.793 414.146 107.983 414.146 Q102.172 414.146 99.0937 409.562 Q96.0382 404.956 96.0382 396.229 Q96.0382 387.479 99.0937 382.896 Q102.172 378.289 107.983 378.289 Z" fill="#000000" fill-rule="nonzero" fill-opacity="1" /><path clip-path="url(#clip050)" d="M52.5662 116.534 L74.7883 116.534 L74.7883 118.525 L62.2421 151.094 L57.3578 151.094 L69.1633 120.469 L52.5662 120.469 L52.5662 116.534 Z" fill="#000000" fill-rule="nonzero" fill-opacity="1" /><path clip-path="url(#clip050)" d="M83.9086 145.214 L88.7928 145.214 L88.7928 151.094 L83.9086 151.094 L83.9086 145.214 Z" fill="#000000" fill-rule="nonzero" fill-opacity="1" /><path clip-path="url(#clip050)" d="M99.0243 116.534 L117.381 116.534 L117.381 120.469 L103.307 120.469 L103.307 128.941 Q104.325 128.594 105.344 128.432 Q106.362 128.247 107.381 128.247 Q113.168 128.247 116.547 131.418 Q119.927 134.59 119.927 140.006 Q119.927 145.585 116.455 148.687 Q112.983 151.765 106.663 151.765 Q104.487 151.765 102.219 151.395 Q99.9733 151.025 97.566 150.284 L97.566 145.585 Q99.6493 146.719 101.871 147.275 Q104.094 147.83 106.571 147.83 Q110.575 147.83 112.913 145.724 Q115.251 143.617 115.251 140.006 Q115.251 136.395 112.913 134.289 Q110.575 132.182 106.571 132.182 Q104.696 132.182 102.821 132.599 Q100.969 133.015 99.0243 133.895 L99.0243 116.534 Z" fill="#000000" fill-rule="nonzero" fill-opacity="1" /><polyline clip-path="url(#clip052)" style="stroke:#009af9; stroke-linecap:round; stroke-linejoin:round; stroke-width:4; stroke-opacity:1; fill:none" points="218.101,1445.72 220.117,1445.72 222.133,1445.72 224.149,1445.72 226.165,1445.72 228.182,1445.72 230.198,1445.72 232.214,1445.72 234.23,1445.72 236.246,1445.72 238.262,1445.72 240.278,1445.72 242.294,1235.81 244.31,1272 246.326,1303.49 248.342,1329.27 250.358,1350.38 252.374,1367.66 254.39,1367.66 256.406,1325.87 258.422,1332.03 260.438,1332.03 262.454,1186.28 264.47,1208.99 266.486,1208.99 268.502,1055.28 270.518,1120.96 272.534,1120.96 274.55,967.588 276.566,967.588 278.582,962.085 280.598,1001.05 282.614,1081.66 284.63,1147.65 286.646,1201.68 288.662,1201.68 290.678,1015.27 292.695,1055.75 294.711,1055.75 296.727,915.198 298.743,917.412 300.759,1013.18 302.775,1013.18 304.791,873.905 306.807,957.045 308.823,1045.63 310.839,1118.15 312.855,1118.15 314.871,923.349 316.887,997.365 318.903,1078.64 320.919,1145.18 322.935,1199.66 324.951,1199.66 326.967,1076.25 328.983,1076.25 330.999,928.877 333.015,940.931 335.031,1032.43 337.047,1032.43 339.063,997.524 341.079,1003.89 343.095,1003.89 345.111,794.789 347.127,911.807 349.143,911.807 351.159,796.738 353.175,799.614 355.191,916.732 357.208,1012.62 359.224,1091.13 361.24,1155.4 363.256,1208.03 365.272,1251.11 367.288,1251.11 369.304,1108.73 371.32,1146.7 373.336,1146.7 375.352,990.448 377.368,1071.5 379.384,1139.33 381.4,1139.33 383.416,1031.69 385.432,1040.97 387.448,1114.34 389.464,1114.34 391.48,1050.1 393.496,1076.44 395.512,1076.44 397.528,1051.79 399.544,1096.92 401.56,1096.92 403.576,942.323 405.592,955.901 407.608,955.901 409.624,853.649 411.64,853.649 413.656,703.61 415.672,752.346 417.688,752.346 419.704,641.304 421.721,739.9 423.737,739.9 425.753,684.992 427.769,775.358 429.785,775.358 431.801,707.332 433.817,748.147 435.833,874.595 437.849,978.121 439.865,978.121 441.881,910.872 443.897,969.418 445.913,969.418 447.929,870.605 449.945,870.605 451.961,673.981 453.977,708.172 455.993,708.172 458.009,668.16 460.025,747.643 462.041,874.182 464.057,874.182 466.073,919.687 468.089,925.93 470.105,925.93 472.121,801.803 474.137,882.437 476.153,984.542 478.169,984.542 480.185,878.448 482.201,923.103 484.217,1017.84 486.234,1095.4 488.25,1158.9 490.266,1210.89 492.282,1253.46 494.298,1288.31 496.314,1316.84 498.33,1340.2 500.346,1359.33 502.362,1359.33 504.378,1213.49 506.394,1226.13 508.41,1265.94 510.426,1265.94 512.442,1185.48 514.458,1199.04 516.474,1199.04 518.49,1097.13 520.506,1097.13 522.522,910.673 524.538,970.208 526.554,1056.4 528.57,1126.97 530.586,1184.75 532.602,1184.75 534.618,1007.05 536.634,1007.05 538.65,853.18 540.666,887.77 542.682,988.908 544.698,1071.71 546.714,1071.71 548.73,980.917 550.747,982.676 552.763,1066.61 554.779,1066.61 556.795,985.339 558.811,985.339 560.827,814.224 562.843,843.509 564.859,952.67 566.875,1042.04 568.891,1115.22 570.907,1175.13 572.923,1224.18 574.939,1224.18 576.955,1152 578.971,1163.49 580.987,1163.49 583.003,1082.41 585.019,1082.41 587.035,1030.37 589.051,1073.78 591.067,1073.78 593.083,923.757 595.099,936.372 597.115,1028.7 599.131,1028.7 601.147,840.605 603.163,922.954 605.179,922.954 607.195,857.282 609.211,861.384 611.227,861.384 613.243,691.625 615.26,782.772 617.276,782.772 619.292,631.482 621.308,631.482 623.324,560.584 625.34,563.677 627.356,723.564 629.372,723.564 631.388,691.52 633.404,698.495 635.42,698.495 637.436,528.203 639.452,528.203 641.468,397.656 643.484,453.81 645.5,633.612 647.516,633.612 649.532,516.999 651.548,586.662 653.564,742.382 655.58,742.382 657.596,588.68 659.612,683.095 661.628,821.334 663.644,934.516 665.66,934.516 667.676,748.205 669.692,847.01 671.708,955.537 673.724,955.537 675.74,831.744 677.756,906.004 679.773,906.004 681.789,730.205 683.805,820.39 685.821,933.742 687.837,933.742 689.853,742.872 691.869,848.056 693.885,956.393 695.901,1045.09 697.917,1045.09 699.933,977.288 701.949,977.288 703.965,782.288 705.981,827.36 707.997,827.36 710.013,681.738 712.029,747.656 714.045,747.656 716.061,577.373 718.077,577.373 720.093,536.253 722.109,593.67 724.125,748.12 726.141,874.572 728.157,874.572 730.173,807.33 732.189,807.33 734.205,825.617 736.221,834.365 738.237,945.184 740.253,1035.92 742.269,1035.92 744.286,879.659 746.302,879.659 748.318,702.5 750.334,702.574 752.35,837.283 754.366,947.573 756.382,947.573 758.398,901.865 760.414,940.344 762.43,940.344 764.446,773.39 766.462,773.39 768.478,733.325 770.494,740.196 772.51,740.196 774.526,551.155 776.542,690.993 778.558,827.801 780.574,827.801 782.59,752.405 784.606,791.188 786.622,791.188 788.638,742.346 790.654,755.306 792.67,755.306 794.686,652.97 796.702,740.388 798.718,740.388 800.734,690.923 802.75,774.978 804.766,896.562 806.782,896.562 808.799,741.844 810.815,741.844 812.831,667.178 814.847,719.786 816.863,851.374 818.879,959.11 820.895,1047.32 822.911,1047.32 824.927,849.557 826.943,942.276 828.959,942.276 830.975,896.767 832.991,989.967 835.007,989.967 837.023,783.658 839.039,899.359 841.055,899.359 843.071,832.241 845.087,843.981 847.103,953.057 849.119,1042.36 851.135,1042.36 853.151,928.156 855.167,971.116 857.183,971.116 859.199,888.76 861.215,966.923 863.231,1053.71 865.247,1053.71 867.263,951.847 869.279,1038.16 871.295,1112.04 873.312,1172.52 875.328,1222.05 877.344,1262.59 879.36,1295.79 881.376,1322.96 883.392,1322.96 885.408,1165.85 887.424,1215.99 889.44,1257.63 891.456,1291.73 893.472,1291.73 895.488,1091.45 897.504,1136.33 899.52,1192.41 901.536,1192.41 903.552,1123.22 905.568,1138.27 907.584,1194 909.6,1194 911.616,1045.9 913.632,1045.9 915.648,1034.09 917.664,1056.11 919.68,1126.73 921.696,1126.73 923.712,973.413 925.728,1053.98 927.744,1053.98 929.76,953.967 931.776,973.961 933.792,1059.48 935.808,1059.48 937.825,922.638 939.841,922.638 941.857,763.943 943.873,763.943 945.889,569.282 947.905,586.271 949.921,742.062 951.937,869.612 953.953,974.042 955.969,974.042 957.985,801.235 960.001,873.017 962.017,873.017 964.033,698.646 966.049,793.607 968.065,793.607 970.081,607.035 972.097,733.582 974.113,862.67 976.129,862.67 978.145,756.299 980.161,759.397 982.177,883.805 984.193,985.662 986.209,1069.06 988.225,1069.06 990.241,979.121 992.257,980.304 994.273,1064.67 996.289,1133.74 998.305,1190.29 1000.32,1190.29 1002.34,1040.38 1004.35,1103.79 1006.37,1165.77 1008.39,1216.52 1010.4,1258.06 1012.42,1292.08 1014.43,1292.08 1016.45,1083.61 1018.47,1146.46 1020.48,1200.7 1022.5,1245.12 1024.51,1281.48 1026.53,1311.25 1028.55,1335.62 1030.56,1355.58 1032.58,1371.92 1034.59,1371.92 1036.61,1277.89 1038.63,1284.44 1040.64,1284.44 1042.66,1238.51 1044.67,1268.89 1046.69,1268.89 1048.71,1081.13 1050.72,1104.49 1052.74,1104.49 1054.75,1024.82 1056.77,1024.82 1058.79,843.736 1060.8,874.294 1062.82,874.294 1064.83,820.21 1066.85,883.551 1068.87,985.454 1070.88,985.454 1072.9,951.4 1074.91,967.312 1076.93,967.312 1078.95,801.301 1080.96,864.816 1082.98,970.115 1084.99,970.115 1087.01,827.183 1089.03,923.383 1091.04,923.383 1093.06,822.689 1095.07,822.689 1097.09,810.185 1099.11,821.966 1101.12,821.966 1103.14,616.304 1105.16,762.001 1107.17,885.937 1109.19,987.408 1111.2,1070.49 1113.22,1138.5 1115.24,1138.5 1117.25,1087.43 1119.27,1087.43 1121.28,931.898 1123.3,932.852 1125.32,1025.82 1127.33,1025.82 1129.35,925.136 1131.36,925.136 1133.38,909.554 1135.4,910.321 1137.41,910.321 1139.43,797.4 1141.44,797.4 1143.46,620.51 1145.48,620.51 1147.49,493.574 1149.51,515.497 1151.52,684.117 1153.54,684.117 1155.56,575.778 1157.57,575.778 1159.59,557.371 1161.6,572.276 1163.62,730.604 1165.64,860.232 1167.65,860.232 1169.67,743.081 1171.68,827.949 1173.7,827.949 1175.72,708.614 1177.73,708.614 1179.75,544.1 1181.76,544.1 1183.78,488.721 1185.8,504.142 1187.81,504.142 1189.83,301.482 1191.84,501.633 1193.86,501.633 1195.88,438.123 1197.89,469.371 1199.91,469.371 1201.92,375.356 1203.94,559.451 1205.96,720.104 1207.97,851.635 1209.99,959.324 1212,1047.49 1214.02,1047.49 1216.04,1030.18 1218.05,1030.18 1220.07,901.957 1222.08,920.489 1224.1,1015.7 1226.12,1015.7 1228.13,916.258 1230.15,944.664 1232.17,1035.49 1234.18,1109.85 1236.2,1170.73 1238.21,1170.73 1240.23,1013.32 1242.25,1091.68 1244.26,1091.68 1246.28,1046.8 1248.29,1052.37 1250.31,1052.37 1252.33,963.532 1254.34,967.557 1256.36,967.557 1258.37,800.119 1260.39,865.627 1262.41,865.627 1264.42,806.023 1266.44,815.743 1268.45,929.938 1270.47,1023.43 1272.49,1023.43 1274.5,867.783 1276.52,970.543 1278.53,970.543 1280.55,837.31 1282.57,851.758 1284.58,851.758 1286.6,698.111 1288.61,829.707 1290.63,829.707 1292.65,681.812 1294.66,750.279 1296.68,876.34 1298.69,876.34 1300.71,691.937 1302.73,799.638 1304.74,799.638 1306.76,722.067 1308.77,769.682 1310.79,769.682 1312.81,655.117 1314.82,692.156 1316.84,828.753 1318.85,940.589 1320.87,1032.15 1322.89,1032.15 1324.9,892.392 1326.92,900.163 1328.93,999.055 1330.95,1080.02 1332.97,1146.31 1334.98,1200.58 1337,1200.58 1339.01,1075.96 1341.03,1096.21 1343.05,1159.57 1345.06,1159.57 1347.08,1010.53 1349.09,1078.66 1351.11,1078.66 1353.13,870.646 1355.14,972.445 1357.16,1058.23 1359.18,1058.23 1361.19,962.96 1363.21,974.957 1365.22,1060.29 1367.24,1060.29 1369.26,872.544 1371.27,872.544 1373.29,702.6 1375.3,751.817 1377.32,751.817 1379.34,619.269 1381.35,684.182 1383.37,822.225 1385.38,935.245 1387.4,1027.78 1389.42,1103.54 1391.43,1165.56 1393.45,1216.35 1395.46,1216.35 1397.48,1033.66 1399.5,1062.93 1401.51,1132.32 1403.53,1189.13 1405.54,1235.64 1407.56,1273.72 1409.58,1304.9 1411.59,1304.9 1413.61,1224.72 1415.62,1226.15 1417.64,1265.95 1419.66,1298.53 1421.67,1325.21 1423.69,1347.06 1425.7,1347.06 1427.72,1192.55 1429.74,1192.55 1431.75,1004.44 1433.77,1038.35 1435.78,1112.19 1437.8,1112.19 1439.82,964.022 1441.83,1040.08 1443.85,1113.61 1445.86,1113.61 1447.88,932.279 1449.9,985.771 1451.91,985.771 1453.93,836.344 1455.94,937.972 1457.96,1030.01 1459.98,1030.01 1461.99,879.84 1464.01,904.672 1466.02,1002.75 1468.04,1002.75 1470.06,879.226 1472.07,943.468 1474.09,1034.51 1476.1,1034.51 1478.12,891.113 1480.14,904.036 1482.15,1002.23 1484.17,1082.62 1486.19,1082.62 1488.2,908.33 1490.22,957.889 1492.23,1046.32 1494.25,1046.32 1496.27,940.444 1498.28,970.721 1500.3,970.721 1502.31,796.933 1504.33,870.826 1506.35,975.036 1508.36,975.036 1510.38,843.255 1512.39,854.299 1514.41,961.505 1516.43,1049.28 1518.44,1121.14 1520.46,1179.98 1522.47,1228.15 1524.49,1228.15 1526.51,1193.54 1528.52,1220.78 1530.54,1261.55 1532.55,1294.93 1534.57,1294.93 1536.59,1154.23 1538.6,1177.3 1540.62,1225.95 1542.63,1265.79 1544.65,1298.4 1546.67,1325.11 1548.68,1325.11 1550.7,1274.79 1552.71,1274.79 1554.73,1086.23 1556.75,1103.26 1558.76,1165.34 1560.78,1216.16 1562.79,1257.77 1564.81,1257.77 1566.83,1112.2 1568.84,1154.27 1570.86,1207.1 1572.87,1207.1 1574.89,1022.26 1576.91,1058.33 1578.92,1128.55 1580.94,1128.55 1582.95,979.199 1584.97,1053.78 1586.99,1124.83 1589,1124.83 1591.02,1059.82 1593.03,1084.85 1595.05,1150.27 1597.07,1150.27 1599.08,1026.32 1601.1,1026.32 1603.11,894.928 1605.13,903.472 1607.15,903.472 1609.16,799.209 1611.18,799.209 1613.19,729.679 1615.21,758.071 1617.23,758.071 1619.24,641.41 1621.26,641.41 1623.28,615.593 1625.29,632.498 1627.31,632.498 1629.32,630.574 1631.34,681.516 1633.36,681.516 1635.37,639.399 1637.39,776.488 1639.4,776.488 1641.42,680.608 1643.44,690.649 1645.45,827.519 1647.47,939.579 1649.48,939.579 1651.5,834.436 1653.52,887.586 1655.53,988.758 1657.55,1071.59 1659.56,1139.41 1661.58,1194.93 1663.6,1194.93 1665.61,1100.43 1667.63,1150.73 1669.64,1204.2 1671.66,1247.98 1673.68,1283.82 1675.69,1313.17 1677.71,1337.19 1679.72,1356.87 1681.74,1372.97 1683.76,1386.16 1685.77,1396.95 1687.79,1405.79 1689.8,1413.03 1691.82,1418.95 1693.84,1418.95 1695.85,1213.77 1697.87,1215.18 1699.88,1256.97 1701.9,1256.97 1703.92,1124.76 1705.93,1142.42 1707.95,1197.4 1709.96,1242.41 1711.98,1279.26 1714,1309.43 1716.01,1334.14 1718.03,1354.36 1720.04,1354.36 1722.06,1148.54 1724.08,1191.03 1726.09,1237.2 1728.11,1237.2 1730.12,1100.4 1732.14,1131.95 1734.16,1188.83 1736.17,1188.83 1738.19,1062.77 1740.2,1062.77 1742.22,870.921 1744.24,883.124 1746.25,883.124 1748.27,822.285 1750.29,829.497 1752.3,829.497 1754.32,875.016 1756.33,890.111 1758.35,990.825 1760.37,990.825 1762.38,886.769 1764.4,886.769 1766.41,744.805 1768.43,777.079 1770.45,898.282 1772.46,997.515 1774.48,1078.76 1776.49,1145.28 1778.51,1199.74 1780.53,1244.33 1782.54,1280.83 1784.56,1280.83 1786.57,1095.69 1788.59,1108.49 1790.61,1169.62 1792.62,1169.62 1794.64,1124.63 1796.65,1175.51 1798.67,1175.51 1800.69,1014.08 1802.7,1015.06 1804.72,1093.12 1806.73,1093.12 1808.75,1001.19 1810.77,1067.81 1812.78,1136.32 1814.8,1192.4 1816.81,1238.32 1818.83,1275.91 1820.85,1306.69 1822.86,1331.89 1824.88,1352.53 1826.89,1369.42 1828.91,1383.25 1830.93,1394.57 1832.94,1403.84 1834.96,1411.43 1836.97,1411.43 1838.99,1257.57 1841.01,1257.57 1843.02,1049.24 1845.04,1080.39 1847.05,1080.39 1849.07,917.68 1851.09,917.68 1853.1,833.671 1855.12,846.515 1857.13,846.515 1859.15,781.464 1861.17,863.074 1863.18,968.689 1865.2,968.689 1867.21,788.376 1869.23,871.938 1871.25,871.938 1873.26,717.41 1875.28,717.41 1877.3,551.513 1879.31,583.288 1881.33,583.288 1883.34,507.317 1885.36,597.285 1887.38,597.285 1889.39,530.058 1891.41,544.482 1893.42,544.482 1895.44,557.052 1897.46,609.035 1899.47,609.035 1901.49,497.693 1903.5,565.896 1905.52,565.896 1907.54,406.517 1909.55,406.517 1911.57,295.682 1913.58,295.682 1915.6,132.904 1917.62,200.851 1919.63,426.507 1921.65,426.507 1923.66,254.568 1925.68,432.754 1927.7,432.754 1929.71,364.404 1931.73,364.404 1933.74,283.137 1935.76,283.137 1937.78,87.9763 1939.79,107.609 1941.81,350.167 1943.82,548.756 1945.84,711.347 1947.86,844.466 1949.87,953.454 1951.89,1042.69 1953.9,1115.74 1955.92,1175.56 1957.94,1224.53 1959.95,1264.62 1961.97,1297.45 1963.98,1297.45 1966,1104.63 1968.02,1130.1 1970.03,1187.31 1972.05,1234.15 1974.06,1272.5 1976.08,1303.9 1978.1,1303.9 1980.11,1209.22 1982.13,1209.22 1984.14,1117.64 1986.16,1138.78 1988.18,1138.78 1990.19,929.455 1992.21,929.455 1994.22,855.194 1996.24,868.301 1998.26,972.969 2000.27,1058.66 2002.29,1058.66 2004.31,885.37 2006.32,939.015 2008.34,939.015 2010.35,812.555 2012.37,893.583 2014.39,993.667 2016.4,1075.61 2018.42,1075.61 2020.43,926.202 2022.45,926.202 2024.47,829.191 2026.48,921.758 2028.5,1016.74 2030.51,1094.5 2032.53,1094.5 2034.55,910.148 2036.56,972.821 2038.58,1058.54 2040.59,1128.72 2042.61,1128.72 2044.63,925.683 2046.64,1010.53 2048.66,1089.41 2050.67,1154 2052.69,1154 2054.71,1028.1 2056.72,1062.37 2058.74,1131.86 2060.75,1131.86 2062.77,937.284 2064.79,937.284 2066.8,797.369 2068.82,867.725 2070.83,972.497 2072.85,1058.28 2074.87,1128.51 2076.88,1128.51 2078.9,981.281 2080.91,1052.83 2082.93,1124.05 2084.95,1182.36 2086.96,1230.1 2088.98,1230.1 2090.99,1041.87 2093.01,1078.12 2095.03,1144.75 2097.04,1144.75 2099.06,1006.09 2101.07,1061.85 2103.09,1131.43 2105.11,1188.4 2107.12,1235.04 2109.14,1235.04 2111.15,1107.79 2113.17,1122.79 2115.19,1122.79 2117.2,950.165 2119.22,987.042 2121.23,987.042 2123.25,925.706 2125.27,975.228 2127.28,975.228 2129.3,821.995 2131.32,865.123 2133.33,970.366 2135.35,970.366 2137.36,770.397 2139.38,770.397 2141.4,661.401 2143.41,674.651 2145.43,674.651 2147.44,523.451 2149.46,523.451 2151.48,381.149 2153.49,427.673 2155.51,427.673 2157.52,335.868 2159.54,525.161 2161.56,692.029 2163.57,692.029 2165.59,492.125 2167.6,492.125 2169.62,424.246 2171.64,510.321 2173.65,510.321 2175.67,459.459 2177.68,588.678 2179.7,744.033 2181.72,744.033 2183.73,666.492 2185.75,781.805 2187.76,902.152 2189.78,1000.68 2191.8,1081.35 2193.81,1081.35 2195.83,1006.85 2197.84,1006.85 2199.86,932.867 2201.88,952.758 2203.89,1042.12 2205.91,1042.12 2207.92,858.558 2209.94,858.558 2211.96,658.56 2213.97,744.407 2215.99,871.533 2218,975.614 2220.02,975.614 2222.04,780.251 2224.05,780.251 2226.07,667.626 2228.08,675.786 2230.1,675.786 2232.12,701.347 2234.13,711.884 2236.15,844.905 2238.16,844.905 2240.18,781.489 2242.2,801.013 2244.21,917.878 2246.23,917.878 2248.24,710.262 2250.26,840.955 2252.28,950.579 2254.29,1040.33 2256.31,1113.82 2258.33,1173.98 2260.34,1173.98 2262.36,1082.36 2264.37,1132.87 2266.39,1189.58 2268.41,1236.01 2270.42,1274.02 2272.44,1274.02 2274.45,1238.94 2276.47,1238.94 2278.49,1137.49 2280.5,1137.49 2282.52,993.22 2284.53,1007.69 2286.55,1087.09 2288.57,1087.09 2290.58,1025.31 "/>
<path clip-path="url(#clip050)" d="M229.155 198.898 L501.268 198.898 L501.268 95.2176 L229.155 95.2176  Z" fill="#ffffff" fill-rule="evenodd" fill-opacity="1"/>
<polyline clip-path="url(#clip050)" style="stroke:#000000; stroke-linecap:round; stroke-linejoin:round; stroke-width:4; stroke-opacity:1; fill:none" points="229.155,198.898 501.268,198.898 501.268,95.2176 229.155,95.2176 229.155,198.898 "/>
<polyline clip-path="url(#clip050)" style="stroke:#009af9; stroke-linecap:round; stroke-linejoin:round; stroke-width:4; stroke-opacity:1; fill:none" points="253.564,147.058 400.019,147.058 "/>
<path clip-path="url(#clip050)" d="M438.271 166.745 Q436.465 171.375 434.752 172.787 Q433.039 174.199 430.169 174.199 L426.766 174.199 L426.766 170.634 L429.266 170.634 Q431.025 170.634 431.998 169.8 Q432.97 168.967 434.15 165.865 L434.914 163.921 L424.428 138.412 L428.942 138.412 L437.044 158.689 L445.146 138.412 L449.66 138.412 L438.271 166.745 Z" fill="#000000" fill-rule="nonzero" fill-opacity="1" /><path clip-path="url(#clip050)" d="M456.951 160.402 L464.59 160.402 L464.59 134.037 L456.28 135.703 L456.28 131.444 L464.544 129.778 L469.22 129.778 L469.22 160.402 L476.859 160.402 L476.859 164.338 L456.951 164.338 L456.951 160.402 Z" fill="#000000" fill-rule="nonzero" fill-opacity="1" /></svg>
