<?xml version="1.0" encoding="utf-8"?>
<svg xmlns="http://www.w3.org/2000/svg" xmlns:xlink="http://www.w3.org/1999/xlink" width="600" height="400" viewBox="0 0 2400 1600">
<defs>
  <clipPath id="clip970">
    <rect x="0" y="0" width="2400" height="1600"/>
  </clipPath>
</defs>
<path clip-path="url(#clip970)" d="M0 1600 L2400 1600 L2400 0 L0 0  Z" fill="#ffffff" fill-rule="evenodd" fill-opacity="1"/>
<defs>
  <clipPath id="clip971">
    <rect x="480" y="0" width="1681" height="1600"/>
  </clipPath>
</defs>
<path clip-path="url(#clip970)" d="M140.696 1423.18 L2352.76 1423.18 L2352.76 47.2441 L140.696 47.2441  Z" fill="#ffffff" fill-rule="evenodd" fill-opacity="1"/>
<defs>
  <clipPath id="clip972">
    <rect x="140" y="47" width="2213" height="1377"/>
  </clipPath>
</defs>
<polyline clip-path="url(#clip972)" style="stroke:#000000; stroke-linecap:round; stroke-linejoin:round; stroke-width:2; stroke-opacity:0.1; fill:none" points="576.241,1423.18 576.241,47.2441 "/>
<polyline clip-path="url(#clip972)" style="stroke:#000000; stroke-linecap:round; stroke-linejoin:round; stroke-width:2; stroke-opacity:0.1; fill:none" points="1021.42,1423.18 1021.42,47.2441 "/>
<polyline clip-path="url(#clip972)" style="stroke:#000000; stroke-linecap:round; stroke-linejoin:round; stroke-width:2; stroke-opacity:0.1; fill:none" points="1466.61,1423.18 1466.61,47.2441 "/>
<polyline clip-path="url(#clip972)" style="stroke:#000000; stroke-linecap:round; stroke-linejoin:round; stroke-width:2; stroke-opacity:0.1; fill:none" points="1911.79,1423.18 1911.79,47.2441 "/>
<polyline clip-path="url(#clip970)" style="stroke:#000000; stroke-linecap:round; stroke-linejoin:round; stroke-width:4; stroke-opacity:1; fill:none" points="140.696,1423.18 2352.76,1423.18 "/>
<polyline clip-path="url(#clip970)" style="stroke:#000000; stroke-linecap:round; stroke-linejoin:round; stroke-width:4; stroke-opacity:1; fill:none" points="576.241,1423.18 576.241,1404.28 "/>
<polyline clip-path="url(#clip970)" style="stroke:#000000; stroke-linecap:round; stroke-linejoin:round; stroke-width:4; stroke-opacity:1; fill:none" points="1021.42,1423.18 1021.42,1404.28 "/>
<polyline clip-path="url(#clip970)" style="stroke:#000000; stroke-linecap:round; stroke-linejoin:round; stroke-width:4; stroke-opacity:1; fill:none" points="1466.61,1423.18 1466.61,1404.28 "/>
<polyline clip-path="url(#clip970)" style="stroke:#000000; stroke-linecap:round; stroke-linejoin:round; stroke-width:4; stroke-opacity:1; fill:none" points="1911.79,1423.18 1911.79,1404.28 "/>
<path clip-path="url(#clip970)" d="M550.929 1481.64 L558.568 1481.64 L558.568 1455.28 L550.257 1456.95 L550.257 1452.69 L558.521 1451.02 L563.197 1451.02 L563.197 1481.64 L570.836 1481.64 L570.836 1485.58 L550.929 1485.58 L550.929 1481.64 Z" fill="#000000" fill-rule="nonzero" fill-opacity="1" /><path clip-path="url(#clip970)" d="M590.28 1454.1 Q586.669 1454.1 584.841 1457.66 Q583.035 1461.2 583.035 1468.33 Q583.035 1475.44 584.841 1479.01 Q586.669 1482.55 590.28 1482.55 Q593.915 1482.55 595.72 1479.01 Q597.549 1475.44 597.549 1468.33 Q597.549 1461.2 595.72 1457.66 Q593.915 1454.1 590.28 1454.1 M590.28 1450.39 Q596.09 1450.39 599.146 1455 Q602.225 1459.58 602.225 1468.33 Q602.225 1477.06 599.146 1481.67 Q596.09 1486.25 590.28 1486.25 Q584.47 1486.25 581.391 1481.67 Q578.336 1477.06 578.336 1468.33 Q578.336 1459.58 581.391 1455 Q584.47 1450.39 590.28 1450.39 Z" fill="#000000" fill-rule="nonzero" fill-opacity="1" /><path clip-path="url(#clip970)" d="M1000.2 1481.64 L1016.52 1481.64 L1016.52 1485.58 L994.572 1485.58 L994.572 1481.64 Q997.234 1478.89 1001.82 1474.26 Q1006.42 1469.61 1007.6 1468.27 Q1009.85 1465.74 1010.73 1464.01 Q1011.63 1462.25 1011.63 1460.56 Q1011.63 1457.8 1009.69 1456.07 Q1007.77 1454.33 1004.66 1454.33 Q1002.47 1454.33 1000.01 1455.09 Q997.582 1455.86 994.804 1457.41 L994.804 1452.69 Q997.628 1451.55 1000.08 1450.97 Q1002.54 1450.39 1004.57 1450.39 Q1009.94 1450.39 1013.14 1453.08 Q1016.33 1455.77 1016.33 1460.26 Q1016.33 1462.39 1015.52 1464.31 Q1014.73 1466.2 1012.63 1468.8 Q1012.05 1469.47 1008.95 1472.69 Q1005.85 1475.88 1000.2 1481.64 Z" fill="#000000" fill-rule="nonzero" fill-opacity="1" /><path clip-path="url(#clip970)" d="M1036.33 1454.1 Q1032.72 1454.1 1030.89 1457.66 Q1029.09 1461.2 1029.09 1468.33 Q1029.09 1475.44 1030.89 1479.01 Q1032.72 1482.55 1036.33 1482.55 Q1039.97 1482.55 1041.77 1479.01 Q1043.6 1475.44 1043.6 1468.33 Q1043.6 1461.2 1041.77 1457.66 Q1039.97 1454.1 1036.33 1454.1 M1036.33 1450.39 Q1042.14 1450.39 1045.2 1455 Q1048.28 1459.58 1048.28 1468.33 Q1048.28 1477.06 1045.2 1481.67 Q1042.14 1486.25 1036.33 1486.25 Q1030.52 1486.25 1027.44 1481.67 Q1024.39 1477.06 1024.39 1468.33 Q1024.39 1459.58 1027.44 1455 Q1030.52 1450.39 1036.33 1450.39 Z" fill="#000000" fill-rule="nonzero" fill-opacity="1" /><path clip-path="url(#clip970)" d="M1455.45 1466.95 Q1458.81 1467.66 1460.68 1469.93 Q1462.58 1472.2 1462.58 1475.53 Q1462.58 1480.65 1459.06 1483.45 Q1455.54 1486.25 1449.06 1486.25 Q1446.88 1486.25 1444.57 1485.81 Q1442.28 1485.39 1439.82 1484.54 L1439.82 1480.02 Q1441.77 1481.16 1444.08 1481.74 Q1446.4 1482.32 1448.92 1482.32 Q1453.32 1482.32 1455.61 1480.58 Q1457.93 1478.84 1457.93 1475.53 Q1457.93 1472.48 1455.77 1470.77 Q1453.64 1469.03 1449.82 1469.03 L1445.8 1469.03 L1445.8 1465.19 L1450.01 1465.19 Q1453.46 1465.19 1455.29 1463.82 Q1457.12 1462.43 1457.12 1459.84 Q1457.12 1457.18 1455.22 1455.77 Q1453.34 1454.33 1449.82 1454.33 Q1447.9 1454.33 1445.7 1454.75 Q1443.51 1455.16 1440.87 1456.04 L1440.87 1451.88 Q1443.53 1451.14 1445.84 1450.77 Q1448.18 1450.39 1450.24 1450.39 Q1455.57 1450.39 1458.67 1452.83 Q1461.77 1455.23 1461.77 1459.35 Q1461.77 1462.22 1460.13 1464.21 Q1458.48 1466.18 1455.45 1466.95 Z" fill="#000000" fill-rule="nonzero" fill-opacity="1" /><path clip-path="url(#clip970)" d="M1481.44 1454.1 Q1477.83 1454.1 1476.01 1457.66 Q1474.2 1461.2 1474.2 1468.33 Q1474.2 1475.44 1476.01 1479.01 Q1477.83 1482.55 1481.44 1482.55 Q1485.08 1482.55 1486.88 1479.01 Q1488.71 1475.44 1488.71 1468.33 Q1488.71 1461.2 1486.88 1457.66 Q1485.08 1454.1 1481.44 1454.1 M1481.44 1450.39 Q1487.26 1450.39 1490.31 1455 Q1493.39 1459.58 1493.39 1468.33 Q1493.39 1477.06 1490.31 1481.67 Q1487.26 1486.25 1481.44 1486.25 Q1475.63 1486.25 1472.56 1481.67 Q1469.5 1477.06 1469.5 1468.33 Q1469.5 1459.58 1472.56 1455 Q1475.63 1450.39 1481.44 1450.39 Z" fill="#000000" fill-rule="nonzero" fill-opacity="1" /><path clip-path="url(#clip970)" d="M1899.96 1455.09 L1888.16 1473.54 L1899.96 1473.54 L1899.96 1455.09 M1898.73 1451.02 L1904.61 1451.02 L1904.61 1473.54 L1909.54 1473.54 L1909.54 1477.43 L1904.61 1477.43 L1904.61 1485.58 L1899.96 1485.58 L1899.96 1477.43 L1884.36 1477.43 L1884.36 1472.92 L1898.73 1451.02 Z" fill="#000000" fill-rule="nonzero" fill-opacity="1" /><path clip-path="url(#clip970)" d="M1927.28 1454.1 Q1923.67 1454.1 1921.84 1457.66 Q1920.03 1461.2 1920.03 1468.33 Q1920.03 1475.44 1921.84 1479.01 Q1923.67 1482.55 1927.28 1482.55 Q1930.91 1482.55 1932.72 1479.01 Q1934.54 1475.44 1934.54 1468.33 Q1934.54 1461.2 1932.72 1457.66 Q1930.91 1454.1 1927.28 1454.1 M1927.28 1450.39 Q1933.09 1450.39 1936.14 1455 Q1939.22 1459.58 1939.22 1468.33 Q1939.22 1477.06 1936.14 1481.67 Q1933.09 1486.25 1927.28 1486.25 Q1921.47 1486.25 1918.39 1481.67 Q1915.33 1477.06 1915.33 1468.33 Q1915.33 1459.58 1918.39 1455 Q1921.47 1450.39 1927.28 1450.39 Z" fill="#000000" fill-rule="nonzero" fill-opacity="1" /><path clip-path="url(#clip970)" d="M1245.79 1522.27 L1245.79 1532.4 L1257.85 1532.4 L1257.85 1536.95 L1245.79 1536.95 L1245.79 1556.3 Q1245.79 1560.66 1246.96 1561.9 Q1248.17 1563.14 1251.83 1563.14 L1257.85 1563.14 L1257.85 1568.04 L1251.83 1568.04 Q1245.05 1568.04 1242.48 1565.53 Q1239.9 1562.98 1239.9 1556.3 L1239.9 1536.95 L1235.6 1536.95 L1235.6 1532.4 L1239.9 1532.4 L1239.9 1522.27 L1245.79 1522.27 Z" fill="#000000" fill-rule="nonzero" fill-opacity="1" /><polyline clip-path="url(#clip972)" style="stroke:#000000; stroke-linecap:round; stroke-linejoin:round; stroke-width:2; stroke-opacity:0.1; fill:none" points="140.696,1388.8 2352.76,1388.8 "/>
<polyline clip-path="url(#clip972)" style="stroke:#000000; stroke-linecap:round; stroke-linejoin:round; stroke-width:2; stroke-opacity:0.1; fill:none" points="140.696,966.932 2352.76,966.932 "/>
<polyline clip-path="url(#clip972)" style="stroke:#000000; stroke-linecap:round; stroke-linejoin:round; stroke-width:2; stroke-opacity:0.1; fill:none" points="140.696,545.06 2352.76,545.06 "/>
<polyline clip-path="url(#clip972)" style="stroke:#000000; stroke-linecap:round; stroke-linejoin:round; stroke-width:2; stroke-opacity:0.1; fill:none" points="140.696,123.187 2352.76,123.187 "/>
<polyline clip-path="url(#clip970)" style="stroke:#000000; stroke-linecap:round; stroke-linejoin:round; stroke-width:4; stroke-opacity:1; fill:none" points="140.696,1423.18 140.696,47.2441 "/>
<polyline clip-path="url(#clip970)" style="stroke:#000000; stroke-linecap:round; stroke-linejoin:round; stroke-width:4; stroke-opacity:1; fill:none" points="140.696,1388.8 159.593,1388.8 "/>
<polyline clip-path="url(#clip970)" style="stroke:#000000; stroke-linecap:round; stroke-linejoin:round; stroke-width:4; stroke-opacity:1; fill:none" points="140.696,966.932 159.593,966.932 "/>
<polyline clip-path="url(#clip970)" style="stroke:#000000; stroke-linecap:round; stroke-linejoin:round; stroke-width:4; stroke-opacity:1; fill:none" points="140.696,545.06 159.593,545.06 "/>
<polyline clip-path="url(#clip970)" style="stroke:#000000; stroke-linecap:round; stroke-linejoin:round; stroke-width:4; stroke-opacity:1; fill:none" points="140.696,123.187 159.593,123.187 "/>
<path clip-path="url(#clip970)" d="M92.7512 1374.6 Q89.1401 1374.6 87.3114 1378.17 Q85.5058 1381.71 85.5058 1388.84 Q85.5058 1395.95 87.3114 1399.51 Q89.1401 1403.05 92.7512 1403.05 Q96.3854 1403.05 98.1909 1399.51 Q100.02 1395.95 100.02 1388.84 Q100.02 1381.71 98.1909 1378.17 Q96.3854 1374.6 92.7512 1374.6 M92.7512 1370.9 Q98.5613 1370.9 101.617 1375.51 Q104.696 1380.09 104.696 1388.84 Q104.696 1397.57 101.617 1402.17 Q98.5613 1406.76 92.7512 1406.76 Q86.941 1406.76 83.8623 1402.17 Q80.8068 1397.57 80.8068 1388.84 Q80.8068 1380.09 83.8623 1375.51 Q86.941 1370.9 92.7512 1370.9 Z" fill="#000000" fill-rule="nonzero" fill-opacity="1" /><path clip-path="url(#clip970)" d="M53.3995 980.277 L61.0384 980.277 L61.0384 953.911 L52.7282 955.578 L52.7282 951.319 L60.9921 949.652 L65.668 949.652 L65.668 980.277 L73.3068 980.277 L73.3068 984.212 L53.3995 984.212 L53.3995 980.277 Z" fill="#000000" fill-rule="nonzero" fill-opacity="1" /><path clip-path="url(#clip970)" d="M92.7512 952.731 Q89.1401 952.731 87.3114 956.296 Q85.5058 959.837 85.5058 966.967 Q85.5058 974.073 87.3114 977.638 Q89.1401 981.18 92.7512 981.18 Q96.3854 981.18 98.1909 977.638 Q100.02 974.073 100.02 966.967 Q100.02 959.837 98.1909 956.296 Q96.3854 952.731 92.7512 952.731 M92.7512 949.027 Q98.5613 949.027 101.617 953.634 Q104.696 958.217 104.696 966.967 Q104.696 975.694 101.617 980.3 Q98.5613 984.883 92.7512 984.883 Q86.941 984.883 83.8623 980.3 Q80.8068 975.694 80.8068 966.967 Q80.8068 958.217 83.8623 953.634 Q86.941 949.027 92.7512 949.027 Z" fill="#000000" fill-rule="nonzero" fill-opacity="1" /><path clip-path="url(#clip970)" d="M56.6171 558.404 L72.9365 558.404 L72.9365 562.34 L50.9921 562.34 L50.9921 558.404 Q53.6541 555.65 58.2375 551.02 Q62.8439 546.367 64.0245 545.025 Q66.2698 542.502 67.1494 540.766 Q68.0522 539.006 68.0522 537.317 Q68.0522 534.562 66.1078 532.826 Q64.1865 531.09 61.0847 531.09 Q58.8856 531.09 56.4319 531.854 Q54.0014 532.618 51.2236 534.168 L51.2236 529.446 Q54.0477 528.312 56.5014 527.733 Q58.955 527.155 60.9921 527.155 Q66.3624 527.155 69.5568 529.84 Q72.7513 532.525 72.7513 537.016 Q72.7513 539.145 71.9411 541.067 Q71.1541 542.965 69.0476 545.557 Q68.4689 546.229 65.367 549.446 Q62.2652 552.641 56.6171 558.404 Z" fill="#000000" fill-rule="nonzero" fill-opacity="1" /><path clip-path="url(#clip970)" d="M92.7512 530.858 Q89.1401 530.858 87.3114 534.423 Q85.5058 537.965 85.5058 545.094 Q85.5058 552.201 87.3114 555.766 Q89.1401 559.307 92.7512 559.307 Q96.3854 559.307 98.1909 555.766 Q100.02 552.201 100.02 545.094 Q100.02 537.965 98.1909 534.423 Q96.3854 530.858 92.7512 530.858 M92.7512 527.155 Q98.5613 527.155 101.617 531.761 Q104.696 536.344 104.696 545.094 Q104.696 553.821 101.617 558.428 Q98.5613 563.011 92.7512 563.011 Q86.941 563.011 83.8623 558.428 Q80.8068 553.821 80.8068 545.094 Q80.8068 536.344 83.8623 531.761 Q86.941 527.155 92.7512 527.155 Z" fill="#000000" fill-rule="nonzero" fill-opacity="1" /><path clip-path="url(#clip970)" d="M66.7559 121.833 Q70.1124 122.55 71.9874 124.819 Q73.8855 127.088 73.8855 130.421 Q73.8855 135.537 70.367 138.337 Q66.8485 141.138 60.3671 141.138 Q58.1912 141.138 55.8764 140.699 Q53.5847 140.282 51.131 139.425 L51.131 134.912 Q53.0754 136.046 55.3903 136.624 Q57.7051 137.203 60.2282 137.203 Q64.6263 137.203 66.918 135.467 Q69.2328 133.731 69.2328 130.421 Q69.2328 127.365 67.08 125.652 Q64.9504 123.916 61.131 123.916 L57.1032 123.916 L57.1032 120.074 L61.3161 120.074 Q64.7652 120.074 66.5939 118.708 Q68.4226 117.319 68.4226 114.726 Q68.4226 112.064 66.5245 110.652 Q64.6495 109.217 61.131 109.217 Q59.2097 109.217 57.0106 109.634 Q54.8115 110.051 52.1727 110.93 L52.1727 106.764 Q54.8347 106.023 57.1495 105.652 Q59.4875 105.282 61.5476 105.282 Q66.8717 105.282 69.9735 107.713 Q73.0753 110.12 73.0753 114.24 Q73.0753 117.111 71.4318 119.101 Q69.7883 121.069 66.7559 121.833 Z" fill="#000000" fill-rule="nonzero" fill-opacity="1" /><path clip-path="url(#clip970)" d="M92.7512 108.986 Q89.1401 108.986 87.3114 112.551 Q85.5058 116.092 85.5058 123.222 Q85.5058 130.328 87.3114 133.893 Q89.1401 137.435 92.7512 137.435 Q96.3854 137.435 98.1909 133.893 Q100.02 130.328 100.02 123.222 Q100.02 116.092 98.1909 112.551 Q96.3854 108.986 92.7512 108.986 M92.7512 105.282 Q98.5613 105.282 101.617 109.889 Q104.696 114.472 104.696 123.222 Q104.696 131.949 101.617 136.555 Q98.5613 141.138 92.7512 141.138 Q86.941 141.138 83.8623 136.555 Q80.8068 131.949 80.8068 123.222 Q80.8068 114.472 83.8623 109.889 Q86.941 105.282 92.7512 105.282 Z" fill="#000000" fill-rule="nonzero" fill-opacity="1" /><polyline clip-path="url(#clip972)" style="stroke:#009af9; stroke-linecap:round; stroke-linejoin:round; stroke-width:4; stroke-opacity:1; fill:none" points="140.696,1384.24 140.696,1384.24 155.187,1377.37 167.993,1371.3 170.799,1369.97 184.403,1363.53 185.72,1362.9 194.304,1358.16 203.798,1352.43 204.168,1352.22 211.193,1348.28 211.87,1347.91 221.248,1342.91 235.725,1335.54 238.636,1334.1 245.906,1330.52 250.435,1328.31 272.24,1317.8 276.667,1315.68 276.878,1315.58 291.493,1308.61 301.046,1304.07 324.74,1292.83 342.469,1284.42 354.063,1278.92 366.933,1272.83 377.017,1268.05 380.131,1266.57 381.294,1266.02 388.999,1261.75 389.615,1261.36 411.988,1248.54 426.32,1241.14 426.579,1241.01 434.994,1236.81 436.57,1236.03 457.639,1224.5 457.935,1224.35 475.456,1215.52 488.409,1209.18 493.403,1206.77 494.012,1206.48 494.335,1206.32 499.044,1203.65 506.059,1199.25 517.083,1192.9 527.04,1186.78 538.368,1179.59 539.064,1179.17 541.26,1177.88 556.168,1169.63 563.53,1165.2 574.767,1158.93 580.647,1155.31 588.211,1150.94 589.34,1150.31 597.486,1145.88 599.251,1144.95 603.49,1142.37 606.255,1140.49 633.016,1124.83 635.214,1123.67 639.619,1121.37 641.498,1120.4 642.69,1119.68 654.326,1113.02 657.674,1111.2 661.706,1109.05 674.432,1101.57 674.959,1101.28 686.738,1094.08 692.196,1090.53 698.659,1086.6 702.737,1084.23 712.43,1078.88 721.427,1074.15 729.686,1069.29 737.641,1064.89 773.088,1046.93 790.547,1038.49 805.148,1030.5 835.622,1015.19 866.921,1000.13 869.013,999.135 874.602,996.004 895.985,983.525 900.546,981.095 910.799,975.799 911.249,975.571 919.977,971.198 921.871,970.26 926.055,967.838 935.222,962.777 936.848,961.908 939.662,960.419 947.212,956.51 947.424,956.402 973.289,943.588 974.12,943.107 974.287,943.011 976.122,941.963 981.915,938.741 989.524,934.671 989.768,934.543 991.114,933.715 1007.5,924.365 1007.52,924.353 1008.27,923.948 1016.83,919.442 1019.58,918.029 1028.77,913.386 1036.09,909.763 1041.9,906.918 1048.76,903.586 1050.93,902.534 1066.69,894.959 1067.39,894.628 1070.69,892.76 1085.94,884.589 1100.86,876.022 1109.28,871.533 1119.11,866.496 1139.99,856.182 1152.13,849.429 1156.17,847.283 1157.12,846.698 1157.81,846.274 1164.02,842.597 1188.03,829.706 1189.19,829.013 1189.65,828.738 1190.49,828.241 1191,827.942 1191.34,827.74 1193.14,826.693 1193.45,826.516 1194.31,826.019 1199.15,823.305 1208.67,818.182 1212.16,816.362 1214.15,815.156 1214.78,814.778 1221.13,811.088 1236.1,802.985 1239.68,800.819 1241.78,799.585 1246.51,796.871 1261.69,788.699 1264.52,787.24 1268.8,784.687 1277.28,779.887 1279.62,778.61 1279.87,778.477 1282.18,777.233 1284.93,775.773 1285.3,775.581 1291.82,772.192 1295.99,769.704 1299.89,767.458 1301.44,766.586 1321.73,755.813 1336.11,748.626 1341.9,745.789 1345.41,744.082 1354.49,738.984 1365.95,732.917 1366.13,732.822 1368.38,731.461 1375.14,727.538 1379.12,725.32 1379.44,725.145 1382.84,723.299 1394.93,716.965 1410.58,709.129 1413.07,707.906 1415.27,706.827 1418.58,705.211 1426.14,701.547 1428.06,700.621 1430.83,699.039 1439.86,694.086 1440.01,694.006 1443.78,692.01 1455.29,686.098 1466.17,680.68 1472,677.824 1472.1,677.776 1473.48,677.099 1487.16,670.482 1487.24,670.441 1490.2,669.02 1493.48,667.449 1494.53,666.945 1498.41,665.089 1506.71,661.126 1513.69,657.799 1518.14,655.681 1518.99,655.195 1529.65,649.357 1532.35,647.935 1536.61,645.718 1551.13,638.39 1553.24,637.152 1568.23,628.892 1596.97,614.4 1610.69,606.779 1622.78,599.613 1625.87,597.891 1638.86,590.036 1646.92,584.929 1653.51,580.506 1654.13,580.105 1690.47,558.243 1695.89,555.431 1698.29,554.204 1699.09,553.793 1699.71,553.481 1710.88,547.063 1711.75,546.582 1712.04,546.421 1715.74,544.419 1725.06,539.527 1725.91,539.092 1738.24,532.876 1742.15,530.941 1743.52,530.139 1747.19,528.04 1751.84,525.457 1752.29,525.209 1776.33,512.757 1781.07,510.406 1786.86,507.565 1795.73,503.249 1797.73,502.278 1805.59,498.495 1808.92,496.895 1811.65,495.588 1819.45,491.86 1821.3,490.975 1834.86,484.518 1844.08,479.422 1855.42,473.48 1862.27,470.008 1869.37,465.898 1871.03,464.817 1873.95,462.966 1875.25,462.162 1875.78,461.838 1882.4,457.364 1883.89,456.412 1884.28,456.127 1884.62,455.879 1894.62,448.378 1895.82,447.443 1905.66,439.666 1907.09,438.504 1922.71,427.457 1924.79,426.148 1934.56,420.363 1953.23,409.124 1967.31,401.595 1988.53,390.945 1989.41,390.432 1994.9,387.312 2007.84,380.356 2011.79,377.976 2012.41,377.606 2013,377.258 2020.18,373.168 2034.36,364.601 2048.13,356.148 2064.1,347.43 2076.89,339.964 2077.09,339.835 2105.7,323.471 2140.34,304.546 2152.39,298.56 2156.46,296.565 2163.32,293.228 2176.28,286.982 2181.85,283.847 2187.78,280.63 2199.94,274.303 2239.67,253.08 2240.95,252.445 2255.27,245.443 2256.23,244.978 2261.38,242.491 2276.57,235.204 2290.72,228.453 2296.29,225.804 2304.59,221.861 2309.22,219.663 2314.35,217.227 2321.77,213.703 2325.95,211.721 2330.66,209.489 2333.82,207.992 2342.57,203.841 2352.76,199.014 "/>
<polyline clip-path="url(#clip972)" style="stroke:#e26f46; stroke-linecap:round; stroke-linejoin:round; stroke-width:4; stroke-opacity:1; fill:none" points="140.696,1384.24 140.696,1384.24 155.187,1377.37 167.993,1370.38 170.799,1368.91 184.403,1361.99 185.72,1361.33 194.304,1357.09 203.798,1352.47 204.168,1352.29 211.193,1348.9 211.87,1348.57 221.248,1344.07 235.725,1337.16 238.636,1335.51 245.906,1331.54 250.435,1328.75 272.24,1316.65 276.667,1314.36 276.878,1314.25 291.493,1306.91 301.046,1302.23 324.74,1290.81 342.469,1281.19 354.063,1275.3 366.933,1268.94 377.017,1264.04 380.131,1262.54 381.294,1261.87 388.999,1257.58 389.615,1257.25 411.988,1245.7 426.32,1238.64 426.579,1238.49 434.994,1233.76 436.57,1232.9 457.639,1222 457.935,1221.85 475.456,1213.23 488.409,1206.98 493.403,1204.58 494.012,1204.29 494.335,1204.13 499.044,1201.88 506.059,1198.53 517.083,1193.28 527.04,1188.55 538.368,1183.17 539.064,1182.84 541.26,1181.6 556.168,1173.6 563.53,1169.83 574.767,1164.23 580.647,1161.34 588.211,1157.66 589.34,1157.01 597.486,1152.47 599.251,1151.36 603.49,1148.76 606.255,1147.13 633.016,1132.72 635.214,1131.61 639.619,1129.4 641.498,1128.47 642.69,1127.88 654.326,1122.17 657.674,1120.54 661.706,1118.59 674.432,1112.47 674.959,1112.22 686.738,1106.59 692.196,1103.99 698.659,1100.92 702.737,1098.98 712.43,1093.63 721.427,1088.91 729.686,1084.71 737.641,1080.75 773.088,1063.6 790.547,1055.27 805.148,1048.34 835.622,1033.88 866.921,1017.45 869.013,1016.42 874.602,1013.66 895.985,1003.3 900.546,1001.12 910.799,996.217 911.249,995.96 919.977,990.447 921.871,989.315 926.055,986.882 935.222,981.088 936.848,980.118 939.662,978.47 947.212,974.223 947.424,974.107 973.289,960.722 974.12,960.309 974.287,960.211 976.122,958.97 981.915,955.235 989.524,950.664 989.768,950.523 991.114,949.747 1007.5,940.836 1007.52,940.825 1008.27,940.363 1016.83,935.33 1019.58,933.787 1028.77,928.808 1036.09,925.002 1041.9,922.047 1048.76,918.619 1050.93,917.542 1066.69,909.844 1067.39,909.509 1070.69,907.916 1085.94,900.597 1100.86,893.483 1109.28,889.475 1119.11,884.81 1139.99,874.903 1152.13,869.148 1156.17,867.23 1157.12,866.781 1157.81,866.453 1164.02,863.511 1188.03,850.739 1189.19,850.155 1189.65,849.923 1190.49,849.501 1191,849.197 1191.34,848.993 1193.14,847.933 1193.45,847.754 1194.31,847.253 1199.15,844.511 1208.67,838.614 1212.16,836.584 1214.15,835.453 1214.78,835.097 1221.13,831.075 1236.1,821.448 1239.68,819.359 1241.78,818.165 1246.51,815.529 1261.69,806.476 1264.52,804.909 1268.8,802.586 1277.28,798.13 1279.62,796.927 1279.87,796.801 1282.18,795.622 1284.93,794.231 1285.3,794.048 1291.82,790.255 1295.99,787.924 1299.89,785.801 1301.44,784.972 1321.73,774.556 1336.11,767.484 1341.9,764.192 1345.41,762.263 1354.49,757.434 1365.95,751.582 1366.13,751.489 1368.38,750.362 1375.14,747.013 1379.12,745.06 1379.44,744.905 1382.84,743.247 1394.93,736.509 1410.58,727.325 1413.07,725.963 1415.27,724.772 1418.58,723.008 1426.14,719.079 1428.06,717.924 1430.83,716.292 1439.86,711.213 1440.01,711.131 1443.78,709.096 1455.29,703.099 1466.17,697.632 1472,694.272 1472.1,694.217 1473.48,693.439 1487.16,686.099 1487.24,686.055 1490.2,684.266 1493.48,682.052 1494.53,681.361 1498.41,678.886 1506.71,673.255 1513.69,668.366 1518.14,665.48 1518.99,664.943 1529.65,657.803 1532.35,656.139 1536.61,653.228 1551.13,643.312 1553.24,642.011 1568.23,633.436 1596.97,617.179 1610.69,610.22 1622.78,604.264 1625.87,602.76 1638.86,596.482 1646.92,592.621 1653.51,589.469 1654.13,589.113 1690.47,570.186 1695.89,567.072 1698.29,565.733 1699.09,565.287 1699.71,564.95 1710.88,559 1711.75,558.547 1712.04,558.395 1715.74,556.498 1725.06,551.803 1725.91,551.382 1738.24,545.322 1742.15,543.08 1743.52,542.309 1747.19,540.284 1751.84,537.779 1752.29,537.538 1776.33,525.302 1781.07,522.972 1786.86,520.151 1795.73,515.859 1797.73,514.71 1805.59,509.739 1808.92,507.749 1811.65,506.163 1819.45,501.803 1821.3,500.629 1834.86,492.655 1844.08,487.661 1855.42,480.956 1862.27,477.18 1869.37,473.416 1871.03,472.552 1873.95,471.047 1875.25,470.382 1875.78,470.113 1882.4,466.767 1883.89,466.025 1884.28,465.83 1884.62,465.659 1894.62,460.726 1895.82,460.139 1905.66,455.362 1907.09,454.668 1922.71,446.107 1924.79,444.828 1934.56,438.402 1953.23,427.699 1967.31,420.362 1988.53,408.549 1989.41,408.089 1994.9,405.259 2007.84,398.76 2011.79,396.817 2012.41,396.509 2013,396.163 2020.18,392.095 2034.36,384.549 2048.13,377.597 2064.1,369.777 2076.89,363.607 2077.09,363.512 2105.7,349.857 2140.34,333.414 2152.39,327.705 2156.46,325.774 2163.32,322.523 2176.28,315.45 2181.85,312.551 2187.78,309.527 2199.94,303.467 2239.67,284.305 2240.95,283.575 2255.27,274.814 2256.23,274.267 2261.38,270.959 2276.57,262.111 2290.72,254.609 2296.29,251.774 2304.59,247.626 2309.22,245.343 2314.35,242.831 2321.77,238.627 2325.95,236.35 2330.66,233.846 2333.82,232.197 2342.57,227.72 2352.76,222.645 "/>
<polyline clip-path="url(#clip972)" style="stroke:#3da44d; stroke-linecap:round; stroke-linejoin:round; stroke-width:4; stroke-opacity:1; fill:none" points="140.696,1384.24 140.696,1384.24 155.187,1377.37 167.993,1370.38 170.799,1368.91 184.403,1361.99 185.72,1361.21 194.304,1356.33 203.798,1351.24 204.168,1351.05 211.193,1347.42 211.87,1347.08 221.248,1341.64 235.725,1333.87 238.636,1332.11 245.906,1327.91 250.435,1325.02 272.24,1311.29 276.667,1308.45 276.878,1308.31 291.493,1299.77 301.046,1294.63 324.74,1282.66 342.469,1274.05 354.063,1268.48 366.933,1262.34 377.017,1257.54 380.131,1256.06 381.294,1255.5 388.999,1251.84 389.615,1251.55 411.988,1240.94 426.32,1234.14 426.579,1234 434.994,1229.35 436.57,1228.51 457.639,1217.71 457.935,1217.53 475.456,1206.67 488.409,1199.59 493.403,1196.98 494.012,1196.67 494.335,1196.47 499.044,1193.67 506.059,1189.69 517.083,1182.95 527.04,1177.38 538.368,1171.41 539.064,1170.99 541.26,1169.47 556.168,1160.18 563.53,1156.04 574.767,1150.05 580.647,1147.03 588.211,1143.22 589.34,1142.66 597.486,1138.64 599.251,1137.61 603.49,1135.21 606.255,1133.68 633.016,1118.35 635.214,1117.2 639.619,1114.93 641.498,1113.97 642.69,1113.37 654.326,1107.56 657.674,1105.91 661.706,1103.59 674.432,1096.65 674.959,1096.33 686.738,1089.43 692.196,1086.43 698.659,1083 702.737,1080.88 712.43,1075.97 721.427,1071.5 729.686,1067.47 737.641,1063.62 773.088,1046.67 790.547,1037.23 805.148,1029.84 835.622,1015.02 866.921,998.499 869.013,997.459 874.602,994.7 895.985,984.328 900.546,982.139 910.799,977.237 911.249,976.98 919.977,972.15 921.871,971.134 926.055,968.924 935.222,963.496 936.848,962.576 939.662,960.757 947.212,956.144 947.424,955.999 973.289,939.113 974.12,938.642 974.287,938.548 976.122,937.519 981.915,933.865 989.524,929.375 989.768,929.235 991.114,928.471 1007.5,919.655 1007.52,919.644 1008.27,919.255 1016.83,914.227 1019.58,912.685 1028.77,907.708 1036.09,903.904 1041.9,900.466 1048.76,896.048 1050.93,894.519 1066.69,883.519 1067.39,883.086 1070.69,881.064 1085.94,872.416 1100.86,864.643 1109.28,860.417 1119.11,854.83 1139.99,843.913 1152.13,837.884 1156.17,835.904 1157.12,835.441 1157.81,835.104 1164.02,832.091 1188.03,820.565 1189.19,820.015 1189.65,819.794 1190.49,819.394 1191,819.152 1191.34,818.988 1193.14,818.129 1193.45,817.983 1194.31,817.57 1199.15,814.858 1208.67,809.003 1212.16,806.985 1214.15,805.86 1214.78,805.506 1221.13,801.498 1236.1,792.927 1239.68,791.001 1241.78,789.891 1246.51,787.013 1261.69,777.458 1264.52,775.579 1268.8,772.851 1277.28,767.123 1279.62,765.647 1279.87,765.494 1282.18,764.074 1284.93,762.182 1285.3,761.937 1291.82,757.191 1295.99,754.382 1299.89,751.887 1301.44,750.928 1321.73,739.426 1336.11,732.007 1341.9,728.628 1345.41,726.655 1354.49,721.742 1365.95,714.974 1366.13,714.87 1368.38,713.613 1375.14,709.392 1379.12,706.691 1379.44,706.452 1382.84,703.967 1394.93,695.126 1410.58,684.471 1413.07,682.733 1415.27,681.044 1418.58,678.618 1426.14,673.501 1428.06,672.103 1430.83,670.156 1439.86,664.284 1440.01,664.191 1443.78,661.91 1455.29,655.376 1466.17,648.787 1472,645.018 1472.1,644.956 1473.48,644.095 1487.16,636.167 1487.24,636.112 1490.2,634.239 1493.48,632.231 1494.53,631.6 1498.41,628.987 1506.71,623.13 1513.69,618.675 1518.14,616.001 1518.99,615.501 1529.65,609.516 1532.35,608.067 1536.61,605.813 1551.13,597.392 1553.24,596.237 1568.23,588.386 1596.97,572.675 1610.69,565.812 1622.78,559.902 1625.87,558.406 1638.86,552.154 1646.92,548.302 1653.51,545.156 1654.13,544.858 1690.47,527.595 1695.89,524.568 1698.29,523.046 1699.09,522.542 1699.71,522.106 1710.88,514.75 1711.75,514.133 1712.04,513.927 1715.74,511.088 1725.06,504.609 1725.91,503.981 1738.24,494.756 1742.15,491.825 1743.52,490.839 1747.19,487.981 1751.84,484.599 1752.29,484.283 1776.33,469.604 1781.07,466.629 1786.86,463.186 1795.73,458.204 1797.73,456.934 1805.59,451.581 1808.92,449.465 1811.65,447.545 1819.45,442.43 1821.3,441.113 1834.86,432.383 1844.08,427.084 1855.42,420.141 1862.27,416.271 1869.37,412.435 1871.03,411.557 1873.95,409.771 1875.25,408.993 1875.78,408.68 1882.4,404.858 1883.89,404.027 1884.28,403.81 1884.62,403.619 1894.62,398.237 1895.82,397.608 1905.66,392.563 1907.09,391.839 1922.71,383.05 1924.79,381.939 1934.56,376.123 1953.23,366.049 1967.31,357.947 1988.53,345.602 1989.41,345.129 1994.9,341.768 2007.84,334.431 2011.79,332.316 2012.41,331.983 2013,331.67 2020.18,327.354 2034.36,319.502 2048.13,312.392 2064.1,304.476 2076.89,298.267 2077.09,298.172 2105.7,282.955 2140.34,266.04 2152.39,260.278 2156.46,257.983 2163.32,254.249 2176.28,246.587 2181.85,243.522 2187.78,240.363 2199.94,233.227 2239.67,212.834 2240.95,212.209 2255.27,204.281 2256.23,203.773 2261.38,200.648 2276.57,192.147 2290.72,184.812 2296.29,181.551 2304.59,176.938 2309.22,174.461 2314.35,171.343 2321.77,166.475 2325.95,163.911 2330.66,160.74 2333.82,158.716 2342.57,153.441 2352.76,147.757 "/>
<polyline clip-path="url(#clip972)" style="stroke:#c271d2; stroke-linecap:round; stroke-linejoin:round; stroke-width:4; stroke-opacity:1; fill:none" points="140.696,1384.24 140.696,1384.24 155.187,1377.37 167.993,1371.3 170.799,1369.97 184.403,1363.53 185.72,1362.9 194.304,1358.16 203.798,1352.43 204.168,1352.22 211.193,1348.28 211.87,1347.91 221.248,1342.91 235.725,1334.54 238.636,1332.95 245.906,1329.1 250.435,1326.77 272.24,1315.9 276.667,1313.75 276.878,1313.62 291.493,1304.55 301.046,1299.22 324.74,1287.01 342.469,1278.32 354.063,1271.88 366.933,1265.17 377.017,1260.1 380.131,1258.56 381.294,1257.99 388.999,1253.6 389.615,1253.21 411.988,1240.2 426.32,1231.76 426.579,1231.61 434.994,1226.39 436.57,1225.46 457.639,1212.65 457.935,1212.49 475.456,1203.22 488.409,1196.73 493.403,1193.85 494.012,1193.51 494.335,1193.33 499.044,1190.32 506.059,1185.53 517.083,1178.77 527.04,1172.43 538.368,1165.07 539.064,1164.64 541.26,1163.33 556.168,1154.98 563.53,1150.52 574.767,1144.21 580.647,1140.58 588.211,1136.2 589.34,1135.57 597.486,1131.13 599.251,1130.2 603.49,1127.62 606.255,1125.74 633.016,1110.07 635.214,1108.9 639.619,1106.61 641.498,1105.64 642.69,1104.92 654.326,1098.25 657.674,1096.43 661.706,1094.28 674.432,1086.81 674.959,1086.52 686.738,1079.32 692.196,1075.77 698.659,1071.83 702.737,1069.47 712.43,1064.11 721.427,1059.38 729.686,1054.53 737.641,1050.13 773.088,1032.16 790.547,1023.73 805.148,1015.73 835.622,1000.42 866.921,985.367 869.013,984.37 874.602,981.238 895.985,968.76 900.546,966.329 910.799,960.255 911.249,960 919.977,955.204 921.871,954.194 926.055,951.634 935.222,946.346 936.848,945.297 939.662,943.526 947.212,939.016 947.424,938.893 973.289,925.065 974.12,924.567 974.287,924.468 976.122,923.385 981.915,920.07 989.524,915.299 989.768,915.152 991.114,914.224 1007.5,904.039 1007.52,904.027 1008.27,903.596 1016.83,898.853 1019.58,897.382 1028.77,892.587 1036.09,888.292 1041.9,885.048 1048.76,881.362 1050.93,880.219 1066.69,872.194 1067.39,871.849 1070.69,869.923 1085.94,861.57 1100.86,852.913 1109.28,847.73 1119.11,842.154 1139.99,829.965 1152.13,822.706 1156.17,820.443 1157.12,819.834 1157.81,819.394 1164.02,815.071 1188.03,800.857 1189.19,800.129 1189.65,799.798 1190.49,799.123 1191,798.719 1191.34,798.415 1193.14,796.696 1193.45,796.41 1194.31,795.533 1199.15,790.948 1208.67,783.136 1212.16,780.586 1214.15,779.013 1214.78,778.525 1221.13,773.885 1236.1,764.374 1239.68,761.99 1241.78,760.644 1246.51,757.712 1261.69,749.086 1264.52,747.572 1268.8,744.946 1277.28,740.04 1279.62,738.74 1279.87,738.604 1282.18,737.34 1284.93,735.859 1285.3,735.664 1291.82,732.234 1295.99,729.725 1299.89,727.464 1301.44,726.586 1321.73,714.504 1336.11,706.899 1341.9,703.956 1345.41,702.198 1354.49,696.998 1365.95,690.85 1366.13,690.736 1368.38,689.163 1375.14,684.716 1379.12,682.257 1379.44,682.065 1382.84,680.046 1394.93,673.274 1410.58,665.133 1413.07,663.878 1415.27,662.774 1418.58,661.124 1426.14,657.399 1428.06,656.461 1430.83,654.863 1439.86,649.87 1440.01,649.789 1443.78,647.78 1455.29,641.842 1466.17,636.407 1472,633.546 1472.1,633.498 1473.48,632.82 1487.16,626.195 1487.24,626.153 1490.2,624.732 1493.48,623.159 1494.53,622.558 1498.41,620.379 1506.71,615.888 1513.69,612.247 1518.14,609.974 1518.99,609.462 1529.65,603.368 1532.35,601.898 1536.61,599.617 1551.13,592.143 1553.24,590.89 1568.23,582.559 1596.97,568.014 1610.69,560.384 1622.78,553.213 1625.87,551.217 1638.86,542.547 1646.92,537.129 1653.51,532.522 1654.13,532.107 1690.47,509.829 1695.89,506.995 1698.29,505.76 1699.09,505.346 1699.71,505.033 1710.88,498.587 1711.75,498.105 1712.04,497.944 1715.74,495.936 1725.06,491.033 1725.91,490.597 1738.24,484.372 1742.15,482.435 1743.52,481.632 1747.19,479.532 1751.84,476.55 1752.29,476.268 1776.33,462.704 1781.07,460.243 1786.86,457.296 1795.73,452.864 1797.73,451.872 1805.59,448.024 1808.92,446.403 1811.65,445.08 1819.45,441.317 1821.3,440.426 1834.86,433.934 1844.08,428.825 1855.42,422.871 1862.27,418.837 1869.37,414.3 1871.03,413.137 1873.95,411.157 1875.25,410.18 1875.78,409.79 1882.4,404.596 1883.89,403.374 1884.28,403.021 1884.62,402.713 1894.62,393.842 1895.82,392.78 1905.66,384.186 1907.09,382.931 1922.71,371.189 1924.79,369.818 1934.56,363.812 1953.23,352.345 1967.31,344.734 1988.53,334.027 1989.41,333.513 1994.9,330.386 2007.84,323.417 2011.79,321.035 2012.41,320.665 2013,320.316 2020.18,316.223 2034.36,307.652 2048.13,299.197 2064.1,290.478 2076.89,283.011 2077.09,282.883 2105.7,266.518 2140.34,247.593 2152.39,241.607 2156.46,239.612 2163.32,236.275 2176.28,230.029 2181.85,226.894 2187.78,223.677 2199.94,217.35 2239.67,196.127 2240.95,195.492 2255.27,188.49 2256.23,188.025 2261.38,185.538 2276.57,178.251 2290.72,171.499 2296.29,168.851 2304.59,164.908 2309.22,162.314 2314.35,159.525 2321.77,155.616 2325.95,153.466 2330.66,151.08 2333.82,149.497 2342.57,145.162 2352.76,140.194 "/>
<polyline clip-path="url(#clip972)" style="stroke:#ac8d18; stroke-linecap:round; stroke-linejoin:round; stroke-width:4; stroke-opacity:1; fill:none" points="140.696,1384.24 140.696,1384.24 155.187,1377.37 167.993,1371.3 170.799,1369.97 184.403,1363.53 185.72,1362.9 194.304,1358.84 203.798,1354.34 204.168,1354.16 211.193,1350.84 211.87,1350.51 221.248,1346.07 235.725,1338.2 238.636,1336.69 245.906,1332.97 250.435,1330.7 272.24,1320.01 276.667,1317.88 276.878,1317.76 291.493,1308.73 301.046,1303.41 324.74,1291.22 342.469,1282.54 354.063,1276.09 366.933,1269.38 377.017,1264.32 380.131,1262.78 381.294,1262.21 388.999,1258.44 389.615,1258.14 411.988,1247.36 426.32,1239.52 426.579,1239.38 434.994,1234.37 436.57,1233.47 457.639,1222.22 457.935,1222.06 475.456,1212.18 488.409,1205.46 493.403,1202.52 494.012,1202.17 494.335,1201.95 499.044,1198.51 506.059,1193.79 517.083,1187.1 527.04,1180.79 538.368,1174.3 539.064,1173.92 541.26,1172.73 556.168,1164.94 563.53,1160.64 574.767,1154.5 580.647,1150.93 588.211,1146.61 589.34,1145.98 597.486,1141.59 599.251,1140.66 603.49,1138.09 606.255,1136.47 633.016,1120.67 635.214,1119.5 639.619,1117.2 641.498,1116.22 642.69,1115.61 654.326,1109.74 657.674,1108.09 661.706,1105.75 674.432,1097.88 674.959,1097.52 686.738,1090.13 692.196,1086.53 698.659,1082.54 702.737,1080.14 712.43,1074.74 721.427,1069.99 729.686,1065.77 737.641,1061.79 773.088,1044.62 790.547,1035.15 805.148,1026.73 835.622,1011.08 866.921,995.942 869.013,994.942 874.602,991.805 895.985,979.314 900.546,976.882 910.799,970.805 911.249,970.55 919.977,965.753 921.871,964.743 926.055,962.183 935.222,956.894 936.848,955.845 939.662,953.824 947.212,948.778 947.424,948.623 973.289,931.008 974.12,930.447 974.287,930.335 976.122,929.121 981.915,925.459 989.524,920.349 989.768,920.193 991.114,919.34 1007.5,909.787 1007.52,909.775 1008.27,909.363 1016.83,904.799 1019.58,903.372 1028.77,898.692 1036.09,894.459 1041.9,891.253 1048.76,887.599 1050.93,886.268 1066.69,876.244 1067.39,875.84 1070.69,873.654 1085.94,864.496 1100.86,855.44 1109.28,850.125 1119.11,843.695 1139.99,830.568 1152.13,823.055 1156.17,820.735 1157.12,820.114 1157.81,819.664 1164.02,815.276 1188.03,800.926 1189.19,800.195 1189.65,799.863 1190.49,799.185 1191,798.779 1191.34,798.475 1193.14,796.751 1193.45,796.464 1194.31,795.585 1199.15,790.578 1208.67,782.161 1212.16,779.446 1214.15,777.97 1214.78,777.511 1221.13,773.123 1236.1,763.985 1239.68,761.659 1241.78,760.342 1246.51,757.468 1261.69,748.963 1264.52,747.211 1268.8,744.649 1277.28,739.168 1279.62,737.745 1279.87,737.597 1282.18,736.224 1284.93,734.627 1285.3,734.418 1291.82,730.769 1295.99,728.15 1299.89,725.803 1301.44,724.895 1321.73,712.563 1336.11,704.878 1341.9,701.915 1345.41,700.146 1354.49,694.927 1365.95,687.915 1366.13,687.79 1368.38,686.095 1375.14,681.347 1379.12,678.403 1379.44,678.146 1382.84,675.488 1394.93,667.089 1410.58,657.81 1413.07,656.438 1415.27,655.041 1418.58,653.002 1426.14,648.579 1428.06,647.498 1430.83,645.961 1439.86,641.123 1440.01,641.044 1443.78,639.083 1455.29,633.249 1466.17,627.875 1472,625.035 1472.1,624.987 1473.48,624.314 1487.16,617.72 1487.24,617.679 1490.2,616.262 1493.48,614.694 1494.53,614.094 1498.41,611.582 1506.71,606.546 1513.69,602.58 1518.14,600.148 1518.99,599.688 1529.65,594.102 1532.35,592.727 1536.61,590.573 1551.13,583.389 1553.24,582.357 1568.23,575.106 1596.97,561.377 1610.69,554.859 1622.78,548.236 1625.87,546.338 1638.86,538.893 1646.92,534.584 1653.51,530.629 1654.13,530.266 1690.47,509.469 1695.89,506.713 1698.29,505.506 1699.09,505.102 1699.71,504.795 1710.88,499.276 1711.75,498.767 1712.04,498.597 1715.74,496.167 1725.06,490.463 1725.91,489.891 1738.24,482.172 1742.15,479.909 1743.52,479.006 1747.19,476.343 1751.84,472.769 1752.29,472.436 1776.33,457.223 1781.07,454.6 1786.86,451.496 1795.73,446.89 1797.73,445.868 1805.59,441.923 1808.92,440.27 1811.65,438.682 1819.45,434.316 1821.3,433.31 1834.86,426.215 1844.08,421.577 1855.42,415.991 1862.27,412.102 1869.37,407.677 1871.03,406.535 1873.95,404.329 1875.25,403.261 1875.78,402.835 1882.4,397.803 1883.89,396.611 1884.28,396.302 1884.62,396.033 1894.62,388.052 1895.82,387.073 1905.66,379.01 1907.09,377.947 1922.71,367.654 1924.79,366.411 1934.56,360.865 1953.23,351.071 1967.31,344.058 1988.53,333.767 1989.41,333.262 1994.9,330.19 2007.84,323.308 2011.79,320.943 2012.41,320.576 2013,320.229 2020.18,316.16 2034.36,307.619 2048.13,299.179 2064.1,290.469 2076.89,283.929 2077.09,283.829 2105.7,269.832 2140.34,251.621 2152.39,245.714 2156.46,243.385 2163.32,239.607 2176.28,232.821 2181.85,230.003 2187.78,227.045 2199.94,221.076 2239.67,200.263 2240.95,199.633 2255.27,192.668 2256.23,192.205 2261.38,189.726 2276.57,182.454 2290.72,175.71 2296.29,173.063 2304.59,169.122 2309.22,166.529 2314.35,163.741 2321.77,159.832 2325.95,157.683 2330.66,155.298 2333.82,153.715 2342.57,149.38 2352.76,144.412 "/>
<polyline clip-path="url(#clip972)" style="stroke:#00a9ad; stroke-linecap:round; stroke-linejoin:round; stroke-width:4; stroke-opacity:1; fill:none" points="140.696,1384.24 140.696,1384.24 155.187,1377.37 167.993,1371.3 170.799,1369.72 184.403,1362.43 185.72,1361.63 194.304,1356.62 203.798,1351.43 204.168,1351.23 211.193,1347.55 211.87,1347.2 221.248,1341.72 235.725,1332.91 238.636,1331.27 245.906,1326.71 250.435,1324.04 272.24,1310.93 276.667,1308.15 276.878,1308 291.493,1297.57 301.046,1291.73 324.74,1277.51 342.469,1268.25 354.063,1261.61 366.933,1254.78 377.017,1248.89 380.131,1247.16 381.294,1246.52 388.999,1242.41 389.615,1242.08 411.988,1230.78 426.32,1222.8 426.579,1222.66 434.994,1217.6 436.57,1216.69 457.639,1205.38 457.935,1205.2 475.456,1194.16 488.409,1186.08 493.403,1182.8 494.012,1182.41 494.335,1182.18 499.044,1178.88 506.059,1174.34 517.083,1167 527.04,1161.1 538.368,1154.89 539.064,1154.46 541.26,1153.11 556.168,1143.57 563.53,1139.35 574.767,1132.45 580.647,1129.11 588.211,1124.99 589.34,1124.39 597.486,1120.15 599.251,1119.25 603.49,1117.1 606.255,1115.71 633.016,1101.15 635.214,1100.03 639.619,1097.81 641.498,1096.88 642.69,1096.28 654.326,1090.56 657.674,1088.93 661.706,1086.62 674.432,1079.73 674.959,1079.4 686.738,1072.53 692.196,1069.54 698.659,1065.58 702.737,1062.85 712.43,1056.85 721.427,1051.03 729.686,1046.15 737.641,1041.1 773.088,1021.92 790.547,1012.18 805.148,1004.66 835.622,988.169 866.921,972.809 869.013,971.803 874.602,969.12 895.985,958.914 900.546,956.744 910.799,951.093 911.249,950.853 919.977,946.287 921.871,945.316 926.055,943.193 935.222,938.618 936.848,937.668 939.662,935.801 947.212,931.085 947.424,930.938 973.289,913.879 974.12,913.405 974.287,913.31 976.122,912.275 981.915,908.606 989.524,903.489 989.768,903.333 991.114,902.48 1007.5,892.918 1007.52,892.907 1008.27,892.495 1016.83,887.255 1019.58,885.661 1028.77,880.55 1036.09,876.081 1041.9,872.251 1048.76,867.483 1050.93,865.865 1066.69,854.419 1067.39,853.973 1070.69,851.894 1085.94,842.02 1100.86,833.639 1109.28,828.547 1119.11,822.29 1139.99,809.352 1152.13,802.777 1156.17,800.321 1157.12,799.76 1157.81,799.287 1164.02,794.725 1188.03,780.017 1189.19,779.383 1189.65,779.088 1190.49,778.477 1191,778.11 1191.34,777.832 1193.14,776.236 1193.45,775.971 1194.31,775.149 1199.15,770.425 1208.67,762.415 1212.16,759.81 1214.15,758.39 1214.78,757.948 1221.13,753.703 1236.1,744.779 1239.68,742.798 1241.78,741.66 1246.51,738.728 1261.69,730.102 1264.52,728.336 1268.8,725.754 1277.28,720.245 1279.62,718.605 1279.87,718.436 1282.18,716.664 1284.93,714.398 1285.3,714.107 1291.82,709.188 1295.99,706.291 1299.89,703.389 1301.44,702.287 1321.73,688.337 1336.11,680.135 1341.9,677.041 1345.41,674.901 1354.49,669.659 1365.95,662.629 1366.13,662.504 1368.38,661.009 1375.14,656.202 1379.12,653.23 1379.44,652.971 1382.84,650.293 1394.93,641.846 1410.58,632.532 1413.07,630.932 1415.27,629.355 1418.58,626.784 1426.14,620.8 1428.06,619.4 1430.83,617.449 1439.86,610.864 1440.01,610.762 1443.78,607.932 1455.29,600.197 1466.17,592.921 1472,589.387 1472.1,589.32 1473.48,588.38 1487.16,578.915 1487.24,578.853 1490.2,576.755 1493.48,574.532 1494.53,573.741 1498.41,570.598 1506.71,564.531 1513.69,559.951 1518.14,557.216 1518.99,556.705 1529.65,550.619 1532.35,549.151 1536.61,546.872 1551.13,539.403 1553.24,538.342 1568.23,529.919 1596.97,515.305 1610.69,508.634 1622.78,502.819 1625.87,501.066 1638.86,494.052 1646.92,489.908 1653.51,486.591 1654.13,486.279 1690.47,468.627 1695.89,466.035 1698.29,464.675 1699.09,464.222 1699.71,463.822 1710.88,456.991 1711.75,456.405 1712.04,456.21 1715.74,453.487 1725.06,447.23 1725.91,446.618 1738.24,437.567 1742.15,435.014 1743.52,434.146 1747.19,431.569 1751.84,428.085 1752.29,427.76 1776.33,411.404 1781.07,408.264 1786.86,404.178 1795.73,398.485 1797.73,397.271 1805.59,392.724 1808.92,390.873 1811.65,389.142 1819.45,384.456 1821.3,383.389 1834.86,375.973 1844.08,371.205 1855.42,365.518 1862.27,361.589 1869.37,357.709 1871.03,356.823 1873.95,355.023 1875.25,354.12 1875.78,353.709 1882.4,348.833 1883.89,347.671 1884.28,347.369 1884.62,347.106 1894.62,340.038 1895.82,339.253 1905.66,333.202 1907.09,332.365 1922.71,323.783 1924.79,322.691 1934.56,317.689 1953.23,308.456 1967.31,300.654 1988.53,289.814 1989.41,289.378 1994.9,286.215 2007.84,278.261 2011.79,276.018 2012.41,275.668 2013,275.338 2020.18,270.851 2034.36,262.787 2048.13,255.567 2064.1,247.586 2076.89,241.349 2077.09,241.254 2105.7,226.011 2140.34,209.089 2152.39,202.445 2156.46,199.944 2163.32,195.938 2176.28,188.876 2181.85,185.979 2187.78,182.464 2199.94,174.839 2239.67,153.885 2240.95,153.253 2255.27,146.275 2256.23,145.812 2261.38,143.33 2276.57,135.01 2290.72,127.761 2296.29,124.522 2304.59,119.276 2309.22,116.141 2314.35,112.435 2321.77,107.523 2325.95,104.94 2330.66,101.752 2333.82,99.4396 2342.57,92.8619 2352.76,86.1857 "/>
<polyline clip-path="url(#clip972)" style="stroke:#ed5d92; stroke-linecap:round; stroke-linejoin:round; stroke-width:4; stroke-opacity:1; fill:none" points="140.696,1384.24 140.696,1384.24 155.187,1377.37 167.993,1370.38 170.799,1368.91 184.403,1361.02 185.72,1360.18 194.304,1354.96 203.798,1349.61 204.168,1349.41 211.193,1345.65 211.87,1345.3 221.248,1339.75 235.725,1331.88 238.636,1330.1 245.906,1325.87 250.435,1322.97 272.24,1309.21 276.667,1306.36 276.878,1306.22 291.493,1297.67 301.046,1292.53 324.74,1280.55 342.469,1270.78 354.063,1264.83 366.933,1257.51 377.017,1252.16 380.131,1250.56 381.294,1249.85 388.999,1245.38 389.615,1245.03 411.988,1231.86 426.32,1224.37 426.579,1224.21 434.994,1219.33 436.57,1218.3 457.639,1206 457.935,1205.82 475.456,1195.59 488.409,1188.74 493.403,1186.2 494.012,1185.89 494.335,1185.72 499.044,1183.36 506.059,1179.89 517.083,1173.68 527.04,1168.41 538.368,1162.65 539.064,1162.24 541.26,1160.76 556.168,1151.6 563.53,1147.5 574.767,1141.55 580.647,1138.54 588.211,1134.75 589.34,1134.08 597.486,1128.81 599.251,1127.57 603.49,1124.71 606.255,1122.93 633.016,1107.75 635.214,1106.6 639.619,1103.96 641.498,1102.7 642.69,1101.91 654.326,1093.89 657.674,1091.8 661.706,1089.37 674.432,1082.2 674.959,1081.91 686.738,1075.74 692.196,1072.97 698.659,1069.74 702.737,1067.72 712.43,1062.24 721.427,1057.43 729.686,1053.18 737.641,1049.19 773.088,1030.29 790.547,1021.73 805.148,1014.69 835.622,1000.16 866.921,983.71 869.013,982.482 874.602,979.302 895.985,968.019 900.546,965.334 910.799,959.627 911.249,959.343 919.977,953.391 921.871,952.013 926.055,949.104 935.222,942.534 936.848,941.456 939.662,939.64 947.212,935.034 947.424,934.909 973.289,920.919 974.12,920.496 974.287,920.396 976.122,919.134 981.915,914.86 989.524,909.765 989.768,909.586 991.114,908.614 1007.5,896.956 1007.52,896.942 1008.27,896.396 1016.83,889.911 1019.58,888.009 1028.77,881.389 1036.09,876.685 1041.9,872.716 1048.76,867.826 1050.93,866.372 1066.69,856.81 1067.39,856.42 1070.69,854.584 1085.94,846.515 1100.86,839.029 1109.28,834.898 1119.11,830.138 1139.99,820.127 1152.13,814.343 1156.17,812.419 1157.12,811.968 1157.81,811.639 1164.02,808.69 1188.03,795.903 1189.19,795.319 1189.65,795.086 1190.49,794.664 1191,794.36 1191.34,794.156 1193.14,793.096 1193.45,792.888 1194.31,792.306 1199.15,789.174 1208.67,782.714 1212.16,780.225 1214.15,778.863 1214.78,778.379 1221.13,773.251 1236.1,761.985 1239.68,759.643 1241.78,758.318 1246.51,755.023 1261.69,744.598 1264.52,742.864 1268.8,740.324 1277.28,735.545 1279.62,734.273 1279.87,734.117 1282.18,732.671 1284.93,730.752 1285.3,730.503 1291.82,725.705 1295.99,722.87 1299.89,720.354 1301.44,719.388 1321.73,707.826 1336.11,700.388 1341.9,697.003 1345.41,695.029 1354.49,690.11 1365.95,684.188 1366.13,684.094 1368.38,682.957 1375.14,679.031 1379.12,676.811 1379.44,676.636 1382.84,674.49 1394.93,666.51 1410.58,656.459 1413.07,654.783 1415.27,653.343 1418.58,651.247 1426.14,646.722 1428.06,645.446 1430.83,643.656 1439.86,638.18 1440.01,638.078 1443.78,635.593 1455.29,627.762 1466.17,620.431 1472,616.391 1472.1,616.325 1473.48,615.283 1487.16,606.057 1487.24,605.996 1490.2,603.67 1493.48,600.939 1494.53,600.097 1498.41,597.125 1506.71,590.68 1513.69,585.307 1518.14,581.8 1518.99,581.157 1529.65,572.991 1532.35,570.896 1536.61,567.401 1551.13,556.16 1553.24,554.727 1568.23,545.511 1596.97,528.769 1610.69,521.726 1622.78,515.728 1625.87,514.216 1638.86,507.917 1646.92,504.046 1653.51,500.89 1654.13,500.533 1690.47,481.595 1695.89,478.481 1698.29,476.926 1699.09,476.337 1699.71,475.838 1710.88,467.595 1711.75,467.007 1712.04,466.783 1715.74,464.057 1725.06,457.791 1725.91,457.258 1738.24,449.065 1742.15,446.358 1743.52,445.442 1747.19,443.072 1751.84,440.203 1752.29,439.889 1776.33,425.274 1781.07,422.306 1786.86,418.869 1795.73,413.2 1797.73,411.809 1805.59,406.075 1808.92,403.54 1811.65,401.565 1819.45,395.701 1821.3,394.241 1834.86,384.761 1844.08,379.16 1855.42,371.981 1862.27,368.016 1869.37,364.109 1871.03,363.218 1873.95,361.669 1875.25,360.987 1875.78,360.711 1882.4,357.292 1883.89,356.536 1884.28,356.337 1884.62,356.163 1894.62,351.161 1895.82,350.567 1905.66,345.749 1907.09,345.051 1922.71,336.454 1924.79,335.172 1934.56,328.735 1953.23,318.021 1967.31,309.69 1988.53,297.186 1989.41,296.709 1994.9,293.327 2007.84,285.958 2011.79,283.835 2012.41,283.502 2013,283.132 2020.18,278.241 2034.36,269.676 2048.13,262.197 2064.1,252.982 2076.89,246.231 2077.09,246.129 2105.7,230.412 2140.34,213.346 2152.39,207.567 2156.46,205.621 2163.32,201.788 2176.28,194.005 2181.85,190.907 2187.78,187.719 2199.94,180.546 2239.67,160.109 2240.95,159.365 2255.27,150.488 2256.23,149.936 2261.38,146.603 2276.57,137.707 2290.72,129.189 2296.29,125.634 2304.59,120.698 2309.22,118.088 2314.35,114.85 2321.77,109.851 2325.95,106.87 2330.66,103.314 2333.82,101.074 2342.57,95.3366 2352.76,88.5263 "/>
<polyline clip-path="url(#clip972)" style="stroke:#c68125; stroke-linecap:round; stroke-linejoin:round; stroke-width:4; stroke-opacity:1; fill:none" points="140.696,1384.24 140.696,1384.24 155.187,1377.37 167.993,1370.38 170.799,1368.91 184.403,1361.02 185.72,1360.3 194.304,1355.72 203.798,1350.84 204.168,1350.65 211.193,1347.13 211.87,1346.79 221.248,1342.18 235.725,1335.16 238.636,1333.5 245.906,1329.5 250.435,1326.7 272.24,1314.56 276.667,1312.27 276.878,1312.16 291.493,1304.81 301.046,1300.12 324.74,1288.7 342.469,1280.24 354.063,1274.73 366.933,1267.69 377.017,1262.48 380.131,1260.91 381.294,1260.32 388.999,1256.49 389.615,1256.18 411.988,1243.97 426.32,1236.74 426.579,1236.58 434.994,1231.79 436.57,1230.78 457.639,1218.59 457.935,1218.43 475.456,1209.38 488.409,1202.96 493.403,1200.52 494.012,1200.23 494.335,1200.07 499.044,1197.79 506.059,1194.41 517.083,1189.12 527.04,1184.37 538.368,1178.98 539.064,1178.64 541.26,1177.4 556.168,1169.39 563.53,1165.62 574.767,1160.01 580.647,1157.13 588.211,1153.45 589.34,1152.9 597.486,1148.33 599.251,1147.21 603.49,1144.6 606.255,1142.96 633.016,1128.52 635.214,1127.41 639.619,1124.82 641.498,1123.57 642.69,1122.8 654.326,1114.86 657.674,1112.78 661.706,1110.37 674.432,1103.24 674.959,1102.96 686.738,1096.8 692.196,1094.04 698.659,1090.81 702.737,1088.8 712.43,1084.07 721.427,1079.72 729.686,1075.75 737.641,1071.95 773.088,1053.4 790.547,1044.89 805.148,1037.87 835.622,1023.36 866.921,1006.91 869.013,1005.68 874.602,1002.5 895.985,991.221 900.546,988.537 910.799,982.83 911.249,982.546 919.977,977.278 921.871,976.016 926.055,973.332 935.222,967.128 936.848,966.101 939.662,964.364 947.212,959.927 947.424,959.807 973.289,946.102 974.12,945.684 974.287,945.6 976.122,944.681 981.915,941.803 989.524,938.068 989.768,937.926 991.114,937.147 1007.5,927.108 1007.52,927.096 1008.27,926.669 1016.83,921.968 1019.58,920.507 1028.77,915.025 1036.09,910.943 1041.9,907.827 1048.76,904.253 1050.93,903.139 1066.69,895.257 1067.39,894.917 1070.69,893.3 1085.94,885.907 1100.86,878.756 1109.28,874.736 1119.11,870.061 1139.99,860.144 1152.13,854.386 1156.17,852.468 1157.12,852.018 1157.81,851.69 1164.02,848.748 1188.03,837.366 1189.19,836.819 1189.65,836.601 1190.49,836.203 1191,835.962 1191.34,835.799 1193.14,834.945 1193.45,834.771 1194.31,834.281 1199.15,831.601 1208.67,825.792 1212.16,823.48 1214.15,822.207 1214.78,821.75 1221.13,816.852 1236.1,806.96 1239.68,804.83 1241.78,803.614 1246.51,800.937 1261.69,791.798 1264.52,790.221 1268.8,787.884 1277.28,783.408 1279.62,782.201 1279.87,782.051 1282.18,780.663 1284.93,779.049 1285.3,778.838 1291.82,774.622 1295.99,772.079 1299.89,769.791 1301.44,768.904 1321.73,758.006 1336.11,750.779 1341.9,747.448 1345.41,745.5 1354.49,740.633 1365.95,734.752 1366.13,734.658 1368.38,733.527 1375.14,730.168 1379.12,728.209 1379.44,728.054 1382.84,726.094 1394.93,718.588 1410.58,708.868 1413.07,707.45 1415.27,706.215 1418.58,704.392 1426.14,700.356 1428.06,699.18 1430.83,697.52 1439.86,692.37 1440.01,692.273 1443.78,689.889 1455.29,682.279 1466.17,675.89 1472,672.194 1472.1,672.134 1473.48,671.161 1487.16,662.428 1487.24,662.377 1490.2,660.648 1493.48,658.779 1494.53,658.188 1498.41,656.046 1506.71,650.958 1513.69,646.962 1518.14,644.132 1518.99,643.604 1529.65,637.36 1532.35,635.623 1536.61,632.978 1551.13,623.669 1553.24,622.427 1568.23,614.146 1596.97,598.11 1610.69,591.191 1622.78,585.254 1625.87,583.752 1638.86,577.485 1646.92,573.627 1653.51,570.479 1654.13,570.18 1690.47,552.909 1695.89,549.882 1698.29,548.575 1699.09,548.064 1699.71,547.679 1710.88,541.053 1711.75,540.56 1712.04,540.367 1715.74,538.001 1725.06,532.418 1725.91,531.933 1738.24,525.174 1742.15,522.779 1743.52,521.961 1747.19,519.823 1751.84,517.198 1752.29,516.905 1776.33,502.971 1781.07,500.474 1786.86,497.492 1795.73,492.328 1797.73,491.025 1805.59,485.57 1808.92,483.128 1811.65,481.218 1819.45,475.503 1821.3,474.071 1834.86,464.74 1844.08,459.199 1855.42,452.066 1862.27,448.121 1869.37,444.228 1871.03,443.339 1873.95,441.795 1875.25,441.114 1875.78,440.839 1882.4,437.427 1883.89,436.673 1884.28,436.474 1884.62,436.301 1894.62,431.305 1895.82,430.712 1905.66,425.898 1907.09,425.2 1922.71,416.607 1924.79,415.514 1934.56,409.759 1953.23,399.75 1967.31,392.66 1988.53,381.019 1989.41,380.564 1994.9,377.756 2007.84,371.293 2011.79,369.357 2012.41,369.051 2013,368.761 2020.18,365.269 2034.36,358.436 2048.13,351.853 2064.1,343.174 2076.89,336.646 2077.09,336.547 2105.7,322.562 2140.34,306.019 2152.39,300.299 2156.46,298.366 2163.32,294.551 2176.28,286.79 2181.85,283.698 2187.78,280.515 2199.94,274.237 2239.67,254.824 2240.95,254.21 2255.27,246.37 2256.23,245.867 2261.38,242.761 2276.57,234.297 2290.72,225.987 2296.29,222.95 2304.59,218.582 2309.22,216.208 2314.35,213.615 2321.77,209.321 2325.95,206.644 2330.66,203.772 2333.82,201.915 2342.57,196.997 2352.76,190.811 "/>
<polyline clip-path="url(#clip972)" style="stroke:#00a98d; stroke-linecap:round; stroke-linejoin:round; stroke-width:4; stroke-opacity:1; fill:none" points="140.696,1384.24 140.696,1384.24 155.187,1377.37 167.993,1371.3 170.799,1369.72 184.403,1362.43 185.72,1361.75 194.304,1357.38 203.798,1352.65 204.168,1352.47 211.193,1349.03 211.87,1348.7 221.248,1344.15 235.725,1337.2 238.636,1335.81 245.906,1331.75 250.435,1329.32 272.24,1318.18 276.667,1315.99 276.878,1315.89 291.493,1308.77 301.046,1304.18 324.74,1291.48 342.469,1282.65 354.063,1277.02 366.933,1270.83 377.017,1265.24 380.131,1263.58 381.294,1262.97 388.999,1258.98 389.615,1258.66 411.988,1247.55 426.32,1240.62 426.579,1240.5 434.994,1236.46 436.57,1235.71 457.639,1225.66 457.935,1225.52 475.456,1216.05 488.409,1208.55 493.403,1205.84 494.012,1205.51 494.335,1205.31 499.044,1202.43 506.059,1198.36 517.083,1192.36 527.04,1187.2 538.368,1181.52 539.064,1181.17 541.26,1180.09 556.168,1171.8 563.53,1167.94 574.767,1161.42 580.647,1158.2 588.211,1154.21 589.34,1153.63 597.486,1149.48 599.251,1148.59 603.49,1146.48 606.255,1145.11 633.016,1130.64 635.214,1129.53 639.619,1127.32 641.498,1126.38 642.69,1125.79 654.326,1120.07 657.674,1118.44 661.706,1116.14 674.432,1109.25 674.959,1108.93 686.738,1102.05 692.196,1099.07 698.659,1095.11 702.737,1092.37 712.43,1086.38 721.427,1080.56 729.686,1075.68 737.641,1070.63 773.088,1051.46 790.547,1041.71 805.148,1034.19 835.622,1017.7 866.921,1002.34 869.013,1001.33 874.602,998.651 895.985,988.445 900.546,986.275 910.799,981.403 911.249,981.189 919.977,977.046 921.871,976.147 926.055,974.163 935.222,969.815 936.848,969.044 939.662,967.459 947.212,963.345 947.424,963.212 973.289,947.167 974.12,946.71 974.287,946.619 976.122,945.619 981.915,942.526 989.524,938.581 989.768,938.457 991.114,937.771 1007.5,929.604 1007.52,929.594 1008.27,929.225 1016.83,925.054 1019.58,923.724 1028.77,919.295 1036.09,915.79 1041.9,913.013 1048.76,909.743 1050.93,908.51 1066.69,898.973 1067.39,898.584 1070.69,896.752 1085.94,887.646 1100.86,879.646 1109.28,875.345 1119.11,869.7 1139.99,858.719 1152.13,852.673 1156.17,850.338 1157.12,849.802 1157.81,849.348 1164.02,845.436 1188.03,832.063 1189.19,831.464 1189.65,831.226 1190.49,830.793 1191,830.531 1191.34,830.354 1193.14,829.431 1193.45,829.275 1194.31,828.834 1199.15,825.982 1208.67,820.661 1212.16,818.787 1214.15,817.735 1214.78,817.403 1221.13,814.108 1236.1,806.591 1239.68,804.829 1241.78,803.803 1246.51,801.494 1261.69,794.165 1264.52,792.557 1268.8,790.181 1277.28,784.977 1279.62,783.403 1279.87,783.24 1282.18,781.526 1284.93,779.567 1285.3,779.313 1291.82,774.977 1295.99,772.373 1299.89,769.698 1301.44,768.676 1321.73,756.652 1336.11,749.066 1341.9,746.127 1345.41,744.064 1354.49,738.972 1365.95,732.061 1366.13,731.955 1368.38,730.678 1375.14,726.96 1379.12,724.491 1379.44,724.268 1382.84,721.949 1394.93,714.412 1410.58,705.735 1413.07,704.425 1415.27,703.077 1418.58,700.813 1426.14,695.379 1428.06,694.09 1430.83,692.285 1439.86,686.068 1440.01,685.971 1443.78,683.254 1455.29,675.768 1466.17,669.449 1472,666.265 1472.1,666.203 1473.48,665.333 1487.16,656.371 1487.24,656.319 1490.2,654.556 1493.48,652.654 1494.53,652.055 1498.41,649.544 1506.71,644.51 1513.69,640.546 1518.14,638.114 1518.99,637.654 1529.65,632.069 1532.35,630.694 1536.61,628.541 1551.13,621.357 1553.24,620.325 1568.23,612.041 1596.97,597.531 1610.69,590.878 1622.78,585.072 1625.87,583.594 1638.86,577.397 1646.92,573.566 1653.51,570.433 1654.13,570.136 1690.47,552.9 1695.89,550.331 1698.29,549.194 1699.09,548.811 1699.71,548.52 1710.88,543.226 1711.75,542.731 1712.04,542.565 1715.74,540.185 1725.06,534.576 1725.91,534.011 1738.24,526.368 1742.15,524.121 1743.52,523.349 1747.19,521 1751.84,518.153 1752.29,517.883 1776.33,503.303 1781.07,500.743 1786.86,497.216 1795.73,492.142 1797.73,491.038 1805.59,486.833 1808.92,485.095 1811.65,483.446 1819.45,478.942 1821.3,477.91 1834.86,470.677 1844.08,465.983 1855.42,460.353 1862.27,457.006 1869.37,453.566 1871.03,452.765 1873.95,451.099 1875.25,450.369 1875.78,450.026 1882.4,445.878 1883.89,444.986 1884.28,444.753 1884.62,444.55 1894.62,438.859 1895.82,438.202 1905.66,432.973 1907.09,432.228 1922.71,424.346 1924.79,423.315 1934.56,418.535 1953.23,409.531 1967.31,402.8 1988.53,392.706 1989.41,392.288 1994.9,389.684 2007.84,382.612 2011.79,380.55 2012.41,380.226 2013,379.92 2020.18,376.259 2034.36,369.217 2048.13,362.526 2064.1,354.862 2076.89,348.758 2077.09,348.664 2105.7,335.069 2140.34,318.644 2152.39,312.055 2156.46,309.567 2163.32,305.579 2176.28,298.537 2181.85,295.646 2187.78,292.136 2199.94,285.405 2239.67,265.475 2240.95,264.855 2255.27,257.97 2256.23,257.511 2261.38,255.049 2276.57,246.767 2290.72,239.538 2296.29,236.77 2304.59,232.04 2309.22,229.515 2314.35,226.788 2321.77,222.946 2325.95,220.825 2330.66,218.466 2333.82,216.619 2342.57,211.035 2352.76,205.116 "/>
<polyline clip-path="url(#clip972)" style="stroke:#8e971d; stroke-linecap:round; stroke-linejoin:round; stroke-width:4; stroke-opacity:1; fill:none" points="140.696,1384.24 140.696,1384.24 155.187,1376.36 167.993,1369.81 170.799,1368.41 184.403,1361.72 185.72,1361.07 194.304,1356.92 203.798,1352.35 204.168,1352.14 211.193,1347.65 211.87,1347.17 221.248,1340.98 235.725,1332.52 238.636,1330.92 245.906,1327.05 250.435,1324.7 272.24,1313.81 276.667,1311.65 276.878,1311.55 291.493,1304.49 301.046,1299.18 324.74,1286.99 342.469,1278.32 354.063,1272.73 366.933,1266.57 377.017,1261.77 380.131,1260.01 381.294,1259.36 388.999,1255.19 389.615,1254.86 411.988,1243.49 426.32,1236.48 426.579,1236.36 434.994,1232.3 436.57,1231.54 457.639,1221.47 457.935,1221.32 475.456,1212.99 488.409,1206.84 493.403,1204.47 494.012,1204.13 494.335,1203.95 499.044,1201.33 506.059,1197.56 517.083,1191.86 527.04,1186.88 538.368,1181.33 539.064,1180.99 541.26,1179.92 556.168,1172.74 563.53,1169.22 574.767,1163.86 580.647,1161.06 588.211,1156.85 589.34,1156.24 597.486,1151.94 599.251,1151.02 603.49,1148.85 606.255,1147.45 633.016,1134.3 635.214,1133.04 639.619,1130.57 641.498,1129.54 642.69,1128.9 654.326,1122.77 657.674,1120.77 661.706,1118.43 674.432,1111.46 674.959,1111.19 686.738,1105.12 692.196,1102.38 698.659,1099.18 702.737,1097.18 712.43,1092.47 721.427,1088.13 729.686,1084.17 737.641,1080.37 773.088,1063.52 790.547,1055.24 805.148,1048.32 835.622,1033.88 866.921,1019.05 869.013,1018.05 874.602,1015.41 895.985,1005.27 900.546,1003.11 910.799,998.255 911.249,998.041 919.977,993.906 921.871,993.008 926.055,991.026 935.222,986.682 936.848,985.912 939.662,984.579 947.212,980.395 947.424,980.28 973.289,967.002 974.12,966.591 974.287,966.509 976.122,965.604 981.915,962.765 989.524,959.068 989.768,958.95 991.114,958.299 1007.5,950.428 1007.52,950.415 1008.27,949.985 1016.83,945.248 1019.58,943.533 1028.77,938.111 1036.09,934.063 1041.9,930.965 1048.76,927.409 1050.93,926.3 1066.69,918.44 1067.39,918.036 1070.69,916.139 1085.94,907.881 1100.86,900.3 1109.28,896.138 1119.11,891.354 1139.99,881.316 1152.13,875.525 1156.17,873.599 1157.12,873.149 1157.81,872.819 1164.02,869.868 1188.03,858.469 1189.19,857.922 1189.65,857.703 1190.49,857.305 1191,857.064 1191.34,856.901 1193.14,856.046 1193.45,855.901 1194.31,855.49 1199.15,853.2 1208.67,848.684 1212.16,847.029 1214.15,846.087 1214.78,845.788 1221.13,842.778 1236.1,835.683 1239.68,833.987 1241.78,832.805 1246.51,830.193 1261.69,822.233 1264.52,820.8 1268.8,818.649 1277.28,814.45 1279.62,813.303 1279.87,813.183 1282.18,812.052 1284.93,810.713 1285.3,810.502 1291.82,806.816 1295.99,804.539 1299.89,802.458 1301.44,801.502 1321.73,790.031 1336.11,781.618 1341.9,778.471 1345.41,776.612 1354.49,771.923 1365.95,766.183 1366.13,766.091 1368.38,764.98 1375.14,761.67 1379.12,759.734 1379.44,759.58 1382.84,757.935 1394.93,752.114 1410.58,744.637 1413.07,743.451 1415.27,742.402 1418.58,740.825 1426.14,737.232 1428.06,736.32 1430.83,735.004 1439.86,730.719 1440.01,730.648 1443.78,728.858 1455.29,723.399 1466.17,718.239 1472,715.478 1472.1,715.431 1473.48,714.773 1487.16,708.291 1487.24,708.251 1490.2,706.85 1493.48,705.297 1494.53,704.799 1498.41,702.962 1506.71,699.029 1513.69,695.72 1518.14,693.611 1518.99,693.206 1529.65,688.154 1532.35,686.878 1536.61,684.859 1551.13,677.98 1553.24,676.978 1568.23,669.875 1596.97,656.257 1610.69,649.758 1622.78,644.029 1625.87,642.565 1638.86,636.408 1646.92,632.593 1653.51,629.469 1654.13,629.173 1690.47,611.958 1695.89,609.39 1698.29,608.253 1699.09,607.871 1699.71,607.58 1710.88,602.288 1711.75,601.874 1712.04,601.734 1715.74,599.984 1725.06,594.845 1725.91,594.392 1738.24,587.982 1742.15,586.005 1743.52,585.316 1747.19,583.487 1751.84,581.187 1752.29,580.965 1776.33,569.303 1781.07,567.031 1786.86,564.265 1795.73,560.033 1797.73,559.076 1805.59,555.339 1808.92,553.755 1811.65,552.458 1819.45,548.755 1821.3,547.875 1834.86,540.48 1844.08,535.72 1855.42,530.04 1862.27,526.672 1869.37,523.217 1871.03,522.413 1873.95,521.002 1875.25,520.375 1875.78,520.121 1882.4,516.934 1883.89,516.221 1884.28,516.034 1884.62,515.837 1894.62,510.302 1895.82,509.66 1905.66,504.524 1907.09,503.79 1922.71,495.987 1924.79,494.963 1934.56,490.209 1953.23,481.231 1967.31,474.509 1988.53,464.421 1989.41,464.003 1994.9,461.4 2007.84,455.26 2011.79,453.39 2012.41,453.035 2013,452.7 2020.18,448.746 2034.36,441.343 2048.13,434.465 2064.1,426.688 2076.89,420.537 2077.09,420.443 2105.7,406.805 2140.34,390.367 2152.39,384.658 2156.46,382.728 2163.32,379.476 2176.28,373.335 2181.85,370.696 2187.78,367.887 2199.94,362.123 2239.67,343.3 2240.95,342.692 2255.27,335.907 2256.23,335.364 2261.38,332.507 2276.57,324.517 2290.72,317.427 2296.29,314.695 2304.59,310.659 2309.22,308.423 2314.35,305.953 2321.77,302.392 2325.95,300.394 2330.66,298.147 2333.82,296.642 2342.57,292.473 2352.76,287.632 "/>
<path clip-path="url(#clip970)" d="M214.431 663.349 L554.896 663.349 L554.896 93.1086 L214.431 93.1086  Z" fill="#ffffff" fill-rule="evenodd" fill-opacity="1"/>
<polyline clip-path="url(#clip970)" style="stroke:#000000; stroke-linecap:round; stroke-linejoin:round; stroke-width:4; stroke-opacity:1; fill:none" points="214.431,663.349 554.896,663.349 554.896,93.1086 214.431,93.1086 214.431,663.349 "/>
<polyline clip-path="url(#clip970)" style="stroke:#009af9; stroke-linecap:round; stroke-linejoin:round; stroke-width:4; stroke-opacity:1; fill:none" points="239.009,144.949 386.48,144.949 "/>
<path clip-path="url(#clip970)" d="M411.058 151.997 L411.058 136.303 L415.318 136.303 L415.318 151.835 Q415.318 155.516 416.753 157.368 Q418.188 159.196 421.058 159.196 Q424.507 159.196 426.498 156.997 Q428.512 154.798 428.512 151.002 L428.512 136.303 L432.771 136.303 L432.771 162.229 L428.512 162.229 L428.512 158.247 Q426.961 160.608 424.901 161.766 Q422.864 162.9 420.156 162.9 Q415.688 162.9 413.373 160.122 Q411.058 157.344 411.058 151.997 M421.776 135.678 L421.776 135.678 Z" fill="#000000" fill-rule="nonzero" fill-opacity="1" /><path clip-path="url(#clip970)" d="M441.151 126.21 L450.966 126.21 L450.966 129.52 L445.41 129.52 L445.41 165.168 L450.966 165.168 L450.966 168.479 L441.151 168.479 L441.151 126.21 Z" fill="#000000" fill-rule="nonzero" fill-opacity="1" /><path clip-path="url(#clip970)" d="M461.452 158.293 L469.091 158.293 L469.091 131.928 L460.78 133.595 L460.78 129.335 L469.044 127.669 L473.72 127.669 L473.72 158.293 L481.359 158.293 L481.359 162.229 L461.452 162.229 L461.452 158.293 Z" fill="#000000" fill-rule="nonzero" fill-opacity="1" /><path clip-path="url(#clip970)" d="M500.155 126.21 L500.155 168.479 L490.34 168.479 L490.34 165.168 L495.873 165.168 L495.873 129.52 L490.34 129.52 L490.34 126.21 L500.155 126.21 Z" fill="#000000" fill-rule="nonzero" fill-opacity="1" /><polyline clip-path="url(#clip970)" style="stroke:#e26f46; stroke-linecap:round; stroke-linejoin:round; stroke-width:4; stroke-opacity:1; fill:none" points="239.009,196.789 386.48,196.789 "/>
<path clip-path="url(#clip970)" d="M411.058 203.837 L411.058 188.143 L415.318 188.143 L415.318 203.675 Q415.318 207.356 416.753 209.208 Q418.188 211.036 421.058 211.036 Q424.507 211.036 426.498 208.837 Q428.512 206.638 428.512 202.842 L428.512 188.143 L432.771 188.143 L432.771 214.069 L428.512 214.069 L428.512 210.087 Q426.961 212.448 424.901 213.606 Q422.864 214.74 420.156 214.74 Q415.688 214.74 413.373 211.962 Q411.058 209.184 411.058 203.837 M421.776 187.518 L421.776 187.518 Z" fill="#000000" fill-rule="nonzero" fill-opacity="1" /><path clip-path="url(#clip970)" d="M441.151 178.05 L450.966 178.05 L450.966 181.36 L445.41 181.36 L445.41 217.008 L450.966 217.008 L450.966 220.319 L441.151 220.319 L441.151 178.05 Z" fill="#000000" fill-rule="nonzero" fill-opacity="1" /><path clip-path="url(#clip970)" d="M464.669 210.133 L480.989 210.133 L480.989 214.069 L459.044 214.069 L459.044 210.133 Q461.706 207.379 466.29 202.749 Q470.896 198.096 472.077 196.754 Q474.322 194.231 475.202 192.495 Q476.104 190.735 476.104 189.046 Q476.104 186.291 474.16 184.555 Q472.239 182.819 469.137 182.819 Q466.938 182.819 464.484 183.583 Q462.054 184.347 459.276 185.897 L459.276 181.175 Q462.1 180.041 464.554 179.462 Q467.007 178.884 469.044 178.884 Q474.415 178.884 477.609 181.569 Q480.803 184.254 480.803 188.745 Q480.803 190.874 479.993 192.796 Q479.206 194.694 477.1 197.286 Q476.521 197.958 473.419 201.175 Q470.317 204.37 464.669 210.133 Z" fill="#000000" fill-rule="nonzero" fill-opacity="1" /><path clip-path="url(#clip970)" d="M500.155 178.05 L500.155 220.319 L490.34 220.319 L490.34 217.008 L495.873 217.008 L495.873 181.36 L490.34 181.36 L490.34 178.05 L500.155 178.05 Z" fill="#000000" fill-rule="nonzero" fill-opacity="1" /><polyline clip-path="url(#clip970)" style="stroke:#3da44d; stroke-linecap:round; stroke-linejoin:round; stroke-width:4; stroke-opacity:1; fill:none" points="239.009,248.629 386.48,248.629 "/>
<path clip-path="url(#clip970)" d="M411.058 255.677 L411.058 239.983 L415.318 239.983 L415.318 255.515 Q415.318 259.196 416.753 261.048 Q418.188 262.876 421.058 262.876 Q424.507 262.876 426.498 260.677 Q428.512 258.478 428.512 254.682 L428.512 239.983 L432.771 239.983 L432.771 265.909 L428.512 265.909 L428.512 261.927 Q426.961 264.288 424.901 265.446 Q422.864 266.58 420.156 266.58 Q415.688 266.58 413.373 263.802 Q411.058 261.024 411.058 255.677 M421.776 239.358 L421.776 239.358 Z" fill="#000000" fill-rule="nonzero" fill-opacity="1" /><path clip-path="url(#clip970)" d="M441.151 229.89 L450.966 229.89 L450.966 233.2 L445.41 233.2 L445.41 268.848 L450.966 268.848 L450.966 272.159 L441.151 272.159 L441.151 229.89 Z" fill="#000000" fill-rule="nonzero" fill-opacity="1" /><path clip-path="url(#clip970)" d="M474.808 247.274 Q478.165 247.992 480.04 250.261 Q481.938 252.529 481.938 255.862 Q481.938 260.978 478.419 263.779 Q474.901 266.58 468.419 266.58 Q466.243 266.58 463.929 266.14 Q461.637 265.723 459.183 264.867 L459.183 260.353 Q461.128 261.487 463.442 262.066 Q465.757 262.645 468.28 262.645 Q472.679 262.645 474.97 260.909 Q477.285 259.173 477.285 255.862 Q477.285 252.807 475.132 251.094 Q473.003 249.358 469.183 249.358 L465.155 249.358 L465.155 245.515 L469.368 245.515 Q472.817 245.515 474.646 244.149 Q476.475 242.761 476.475 240.168 Q476.475 237.506 474.577 236.094 Q472.702 234.659 469.183 234.659 Q467.262 234.659 465.063 235.075 Q462.864 235.492 460.225 236.372 L460.225 232.205 Q462.887 231.464 465.202 231.094 Q467.54 230.724 469.6 230.724 Q474.924 230.724 478.026 233.154 Q481.128 235.562 481.128 239.682 Q481.128 242.552 479.484 244.543 Q477.841 246.511 474.808 247.274 Z" fill="#000000" fill-rule="nonzero" fill-opacity="1" /><path clip-path="url(#clip970)" d="M500.155 229.89 L500.155 272.159 L490.34 272.159 L490.34 268.848 L495.873 268.848 L495.873 233.2 L490.34 233.2 L490.34 229.89 L500.155 229.89 Z" fill="#000000" fill-rule="nonzero" fill-opacity="1" /><polyline clip-path="url(#clip970)" style="stroke:#c271d2; stroke-linecap:round; stroke-linejoin:round; stroke-width:4; stroke-opacity:1; fill:none" points="239.009,300.469 386.48,300.469 "/>
<path clip-path="url(#clip970)" d="M411.058 307.517 L411.058 291.823 L415.318 291.823 L415.318 307.355 Q415.318 311.036 416.753 312.888 Q418.188 314.716 421.058 314.716 Q424.507 314.716 426.498 312.517 Q428.512 310.318 428.512 306.522 L428.512 291.823 L432.771 291.823 L432.771 317.749 L428.512 317.749 L428.512 313.767 Q426.961 316.128 424.901 317.286 Q422.864 318.42 420.156 318.42 Q415.688 318.42 413.373 315.642 Q411.058 312.864 411.058 307.517 M421.776 291.198 L421.776 291.198 Z" fill="#000000" fill-rule="nonzero" fill-opacity="1" /><path clip-path="url(#clip970)" d="M441.151 281.73 L450.966 281.73 L450.966 285.04 L445.41 285.04 L445.41 320.688 L450.966 320.688 L450.966 323.999 L441.151 323.999 L441.151 281.73 Z" fill="#000000" fill-rule="nonzero" fill-opacity="1" /><path clip-path="url(#clip970)" d="M473.489 287.263 L461.683 305.712 L473.489 305.712 L473.489 287.263 M472.262 283.189 L478.141 283.189 L478.141 305.712 L483.072 305.712 L483.072 309.601 L478.141 309.601 L478.141 317.749 L473.489 317.749 L473.489 309.601 L457.887 309.601 L457.887 305.087 L472.262 283.189 Z" fill="#000000" fill-rule="nonzero" fill-opacity="1" /><path clip-path="url(#clip970)" d="M500.155 281.73 L500.155 323.999 L490.34 323.999 L490.34 320.688 L495.873 320.688 L495.873 285.04 L490.34 285.04 L490.34 281.73 L500.155 281.73 Z" fill="#000000" fill-rule="nonzero" fill-opacity="1" /><polyline clip-path="url(#clip970)" style="stroke:#ac8d18; stroke-linecap:round; stroke-linejoin:round; stroke-width:4; stroke-opacity:1; fill:none" points="239.009,352.309 386.48,352.309 "/>
<path clip-path="url(#clip970)" d="M411.058 359.357 L411.058 343.663 L415.318 343.663 L415.318 359.195 Q415.318 362.876 416.753 364.728 Q418.188 366.556 421.058 366.556 Q424.507 366.556 426.498 364.357 Q428.512 362.158 428.512 358.362 L428.512 343.663 L432.771 343.663 L432.771 369.589 L428.512 369.589 L428.512 365.607 Q426.961 367.968 424.901 369.126 Q422.864 370.26 420.156 370.26 Q415.688 370.26 413.373 367.482 Q411.058 364.704 411.058 359.357 M421.776 343.038 L421.776 343.038 Z" fill="#000000" fill-rule="nonzero" fill-opacity="1" /><path clip-path="url(#clip970)" d="M441.151 333.57 L450.966 333.57 L450.966 336.88 L445.41 336.88 L445.41 372.528 L450.966 372.528 L450.966 375.839 L441.151 375.839 L441.151 333.57 Z" fill="#000000" fill-rule="nonzero" fill-opacity="1" /><path clip-path="url(#clip970)" d="M460.688 335.029 L479.044 335.029 L479.044 338.964 L464.97 338.964 L464.97 347.436 Q465.989 347.089 467.007 346.927 Q468.026 346.742 469.044 346.742 Q474.831 346.742 478.211 349.913 Q481.591 353.084 481.591 358.501 Q481.591 364.079 478.118 367.181 Q474.646 370.26 468.327 370.26 Q466.151 370.26 463.882 369.89 Q461.637 369.519 459.23 368.778 L459.23 364.079 Q461.313 365.214 463.535 365.769 Q465.757 366.325 468.234 366.325 Q472.239 366.325 474.577 364.218 Q476.915 362.112 476.915 358.501 Q476.915 354.89 474.577 352.783 Q472.239 350.677 468.234 350.677 Q466.359 350.677 464.484 351.093 Q462.632 351.51 460.688 352.39 L460.688 335.029 Z" fill="#000000" fill-rule="nonzero" fill-opacity="1" /><path clip-path="url(#clip970)" d="M500.155 333.57 L500.155 375.839 L490.34 375.839 L490.34 372.528 L495.873 372.528 L495.873 336.88 L490.34 336.88 L490.34 333.57 L500.155 333.57 Z" fill="#000000" fill-rule="nonzero" fill-opacity="1" /><polyline clip-path="url(#clip970)" style="stroke:#00a9ad; stroke-linecap:round; stroke-linejoin:round; stroke-width:4; stroke-opacity:1; fill:none" points="239.009,404.149 386.48,404.149 "/>
<path clip-path="url(#clip970)" d="M411.058 411.197 L411.058 395.503 L415.318 395.503 L415.318 411.035 Q415.318 414.716 416.753 416.568 Q418.188 418.396 421.058 418.396 Q424.507 418.396 426.498 416.197 Q428.512 413.998 428.512 410.202 L428.512 395.503 L432.771 395.503 L432.771 421.429 L428.512 421.429 L428.512 417.447 Q426.961 419.808 424.901 420.966 Q422.864 422.1 420.156 422.1 Q415.688 422.1 413.373 419.322 Q411.058 416.544 411.058 411.197 M421.776 394.878 L421.776 394.878 Z" fill="#000000" fill-rule="nonzero" fill-opacity="1" /><path clip-path="url(#clip970)" d="M441.151 385.41 L450.966 385.41 L450.966 388.72 L445.41 388.72 L445.41 424.368 L450.966 424.368 L450.966 427.679 L441.151 427.679 L441.151 385.41 Z" fill="#000000" fill-rule="nonzero" fill-opacity="1" /><path clip-path="url(#clip970)" d="M471.22 402.285 Q468.072 402.285 466.22 404.438 Q464.392 406.591 464.392 410.341 Q464.392 414.068 466.22 416.243 Q468.072 418.396 471.22 418.396 Q474.368 418.396 476.197 416.243 Q478.049 414.068 478.049 410.341 Q478.049 406.591 476.197 404.438 Q474.368 402.285 471.22 402.285 M480.503 387.633 L480.503 391.892 Q478.743 391.058 476.938 390.619 Q475.155 390.179 473.396 390.179 Q468.766 390.179 466.313 393.304 Q463.882 396.429 463.535 402.748 Q464.901 400.734 466.961 399.669 Q469.021 398.582 471.498 398.582 Q476.706 398.582 479.716 401.753 Q482.748 404.901 482.748 410.341 Q482.748 415.665 479.6 418.882 Q476.452 422.1 471.22 422.1 Q465.225 422.1 462.054 417.517 Q458.882 412.91 458.882 404.183 Q458.882 395.989 462.771 391.128 Q466.66 386.244 473.211 386.244 Q474.97 386.244 476.753 386.591 Q478.558 386.938 480.503 387.633 Z" fill="#000000" fill-rule="nonzero" fill-opacity="1" /><path clip-path="url(#clip970)" d="M500.155 385.41 L500.155 427.679 L490.34 427.679 L490.34 424.368 L495.873 424.368 L495.873 388.72 L490.34 388.72 L490.34 385.41 L500.155 385.41 Z" fill="#000000" fill-rule="nonzero" fill-opacity="1" /><polyline clip-path="url(#clip970)" style="stroke:#ed5d92; stroke-linecap:round; stroke-linejoin:round; stroke-width:4; stroke-opacity:1; fill:none" points="239.009,455.989 386.48,455.989 "/>
<path clip-path="url(#clip970)" d="M411.058 463.037 L411.058 447.343 L415.318 447.343 L415.318 462.875 Q415.318 466.556 416.753 468.408 Q418.188 470.236 421.058 470.236 Q424.507 470.236 426.498 468.037 Q428.512 465.838 428.512 462.042 L428.512 447.343 L432.771 447.343 L432.771 473.269 L428.512 473.269 L428.512 469.287 Q426.961 471.648 424.901 472.806 Q422.864 473.94 420.156 473.94 Q415.688 473.94 413.373 471.162 Q411.058 468.384 411.058 463.037 M421.776 446.718 L421.776 446.718 Z" fill="#000000" fill-rule="nonzero" fill-opacity="1" /><path clip-path="url(#clip970)" d="M441.151 437.25 L450.966 437.25 L450.966 440.56 L445.41 440.56 L445.41 476.208 L450.966 476.208 L450.966 479.519 L441.151 479.519 L441.151 437.25 Z" fill="#000000" fill-rule="nonzero" fill-opacity="1" /><path clip-path="url(#clip970)" d="M459.461 438.709 L481.683 438.709 L481.683 440.699 L469.137 473.269 L464.253 473.269 L476.058 442.644 L459.461 442.644 L459.461 438.709 Z" fill="#000000" fill-rule="nonzero" fill-opacity="1" /><path clip-path="url(#clip970)" d="M500.155 437.25 L500.155 479.519 L490.34 479.519 L490.34 476.208 L495.873 476.208 L495.873 440.56 L490.34 440.56 L490.34 437.25 L500.155 437.25 Z" fill="#000000" fill-rule="nonzero" fill-opacity="1" /><polyline clip-path="url(#clip970)" style="stroke:#c68125; stroke-linecap:round; stroke-linejoin:round; stroke-width:4; stroke-opacity:1; fill:none" points="239.009,507.829 386.48,507.829 "/>
<path clip-path="url(#clip970)" d="M411.058 514.877 L411.058 499.183 L415.318 499.183 L415.318 514.715 Q415.318 518.396 416.753 520.248 Q418.188 522.076 421.058 522.076 Q424.507 522.076 426.498 519.877 Q428.512 517.678 428.512 513.882 L428.512 499.183 L432.771 499.183 L432.771 525.109 L428.512 525.109 L428.512 521.127 Q426.961 523.488 424.901 524.646 Q422.864 525.78 420.156 525.78 Q415.688 525.78 413.373 523.002 Q411.058 520.224 411.058 514.877 M421.776 498.558 L421.776 498.558 Z" fill="#000000" fill-rule="nonzero" fill-opacity="1" /><path clip-path="url(#clip970)" d="M441.151 489.09 L450.966 489.09 L450.966 492.4 L445.41 492.4 L445.41 528.048 L450.966 528.048 L450.966 531.359 L441.151 531.359 L441.151 489.09 Z" fill="#000000" fill-rule="nonzero" fill-opacity="1" /><path clip-path="url(#clip970)" d="M470.641 508.697 Q467.308 508.697 465.387 510.479 Q463.489 512.261 463.489 515.386 Q463.489 518.511 465.387 520.294 Q467.308 522.076 470.641 522.076 Q473.975 522.076 475.896 520.294 Q477.817 518.488 477.817 515.386 Q477.817 512.261 475.896 510.479 Q473.998 508.697 470.641 508.697 M465.966 506.706 Q462.956 505.965 461.267 503.905 Q459.6 501.845 459.6 498.882 Q459.6 494.738 462.54 492.331 Q465.503 489.924 470.641 489.924 Q475.803 489.924 478.743 492.331 Q481.683 494.738 481.683 498.882 Q481.683 501.845 479.993 503.905 Q478.327 505.965 475.341 506.706 Q478.72 507.493 480.595 509.785 Q482.493 512.076 482.493 515.386 Q482.493 520.41 479.415 523.095 Q476.359 525.78 470.641 525.78 Q464.924 525.78 461.845 523.095 Q458.79 520.41 458.79 515.386 Q458.79 512.076 460.688 509.785 Q462.586 507.493 465.966 506.706 M464.253 499.322 Q464.253 502.007 465.919 503.512 Q467.609 505.016 470.641 505.016 Q473.651 505.016 475.341 503.512 Q477.053 502.007 477.053 499.322 Q477.053 496.637 475.341 495.132 Q473.651 493.627 470.641 493.627 Q467.609 493.627 465.919 495.132 Q464.253 496.637 464.253 499.322 Z" fill="#000000" fill-rule="nonzero" fill-opacity="1" /><path clip-path="url(#clip970)" d="M500.155 489.09 L500.155 531.359 L490.34 531.359 L490.34 528.048 L495.873 528.048 L495.873 492.4 L490.34 492.4 L490.34 489.09 L500.155 489.09 Z" fill="#000000" fill-rule="nonzero" fill-opacity="1" /><polyline clip-path="url(#clip970)" style="stroke:#00a98d; stroke-linecap:round; stroke-linejoin:round; stroke-width:4; stroke-opacity:1; fill:none" points="239.009,559.669 386.48,559.669 "/>
<path clip-path="url(#clip970)" d="M411.058 566.717 L411.058 551.023 L415.318 551.023 L415.318 566.555 Q415.318 570.236 416.753 572.088 Q418.188 573.916 421.058 573.916 Q424.507 573.916 426.498 571.717 Q428.512 569.518 428.512 565.722 L428.512 551.023 L432.771 551.023 L432.771 576.949 L428.512 576.949 L428.512 572.967 Q426.961 575.328 424.901 576.486 Q422.864 577.62 420.156 577.62 Q415.688 577.62 413.373 574.842 Q411.058 572.064 411.058 566.717 M421.776 550.398 L421.776 550.398 Z" fill="#000000" fill-rule="nonzero" fill-opacity="1" /><path clip-path="url(#clip970)" d="M441.151 540.93 L450.966 540.93 L450.966 544.24 L445.41 544.24 L445.41 579.888 L450.966 579.888 L450.966 583.199 L441.151 583.199 L441.151 540.93 Z" fill="#000000" fill-rule="nonzero" fill-opacity="1" /><path clip-path="url(#clip970)" d="M460.78 576.231 L460.78 571.972 Q462.54 572.805 464.345 573.245 Q466.151 573.685 467.887 573.685 Q472.516 573.685 474.947 570.583 Q477.401 567.458 477.748 561.115 Q476.405 563.106 474.345 564.171 Q472.285 565.236 469.785 565.236 Q464.6 565.236 461.567 562.111 Q458.558 558.963 458.558 553.523 Q458.558 548.199 461.706 544.981 Q464.854 541.764 470.086 541.764 Q476.081 541.764 479.229 546.37 Q482.401 550.953 482.401 559.703 Q482.401 567.875 478.512 572.759 Q474.646 577.62 468.095 577.62 Q466.336 577.62 464.53 577.273 Q462.725 576.925 460.78 576.231 M470.086 561.578 Q473.234 561.578 475.063 559.426 Q476.915 557.273 476.915 553.523 Q476.915 549.796 475.063 547.643 Q473.234 545.467 470.086 545.467 Q466.938 545.467 465.086 547.643 Q463.257 549.796 463.257 553.523 Q463.257 557.273 465.086 559.426 Q466.938 561.578 470.086 561.578 Z" fill="#000000" fill-rule="nonzero" fill-opacity="1" /><path clip-path="url(#clip970)" d="M500.155 540.93 L500.155 583.199 L490.34 583.199 L490.34 579.888 L495.873 579.888 L495.873 544.24 L490.34 544.24 L490.34 540.93 L500.155 540.93 Z" fill="#000000" fill-rule="nonzero" fill-opacity="1" /><polyline clip-path="url(#clip970)" style="stroke:#8e971d; stroke-linecap:round; stroke-linejoin:round; stroke-width:4; stroke-opacity:1; fill:none" points="239.009,611.509 386.48,611.509 "/>
<path clip-path="url(#clip970)" d="M411.058 618.557 L411.058 602.863 L415.318 602.863 L415.318 618.395 Q415.318 622.076 416.753 623.928 Q418.188 625.756 421.058 625.756 Q424.507 625.756 426.498 623.557 Q428.512 621.358 428.512 617.562 L428.512 602.863 L432.771 602.863 L432.771 628.789 L428.512 628.789 L428.512 624.807 Q426.961 627.168 424.901 628.326 Q422.864 629.46 420.156 629.46 Q415.688 629.46 413.373 626.682 Q411.058 623.904 411.058 618.557 M421.776 602.238 L421.776 602.238 Z" fill="#000000" fill-rule="nonzero" fill-opacity="1" /><path clip-path="url(#clip970)" d="M441.151 592.77 L450.966 592.77 L450.966 596.08 L445.41 596.08 L445.41 631.728 L450.966 631.728 L450.966 635.039 L441.151 635.039 L441.151 592.77 Z" fill="#000000" fill-rule="nonzero" fill-opacity="1" /><path clip-path="url(#clip970)" d="M461.452 624.853 L469.091 624.853 L469.091 598.488 L460.78 600.155 L460.78 595.895 L469.044 594.229 L473.72 594.229 L473.72 624.853 L481.359 624.853 L481.359 628.789 L461.452 628.789 L461.452 624.853 Z" fill="#000000" fill-rule="nonzero" fill-opacity="1" /><path clip-path="url(#clip970)" d="M500.803 597.307 Q497.192 597.307 495.364 600.872 Q493.558 604.414 493.558 611.543 Q493.558 618.65 495.364 622.215 Q497.192 625.756 500.803 625.756 Q504.438 625.756 506.243 622.215 Q508.072 618.65 508.072 611.543 Q508.072 604.414 506.243 600.872 Q504.438 597.307 500.803 597.307 M500.803 593.604 Q506.614 593.604 509.669 598.21 Q512.748 602.793 512.748 611.543 Q512.748 620.27 509.669 624.877 Q506.614 629.46 500.803 629.46 Q494.993 629.46 491.915 624.877 Q488.859 620.27 488.859 611.543 Q488.859 602.793 491.915 598.21 Q494.993 593.604 500.803 593.604 Z" fill="#000000" fill-rule="nonzero" fill-opacity="1" /><path clip-path="url(#clip970)" d="M530.317 592.77 L530.317 635.039 L520.502 635.039 L520.502 631.728 L526.035 631.728 L526.035 596.08 L520.502 596.08 L520.502 592.77 L530.317 592.77 Z" fill="#000000" fill-rule="nonzero" fill-opacity="1" /></svg>
