<?xml version="1.0" encoding="utf-8"?>
<svg xmlns="http://www.w3.org/2000/svg" xmlns:xlink="http://www.w3.org/1999/xlink" width="600" height="400" viewBox="0 0 2400 1600">
<defs>
  <clipPath id="clip900">
    <rect x="0" y="0" width="2400" height="1600"/>
  </clipPath>
</defs>
<path clip-path="url(#clip900)" d="M0 1600 L2400 1600 L2400 0 L0 0  Z" fill="#ffffff" fill-rule="evenodd" fill-opacity="1"/>
<defs>
  <clipPath id="clip901">
    <rect x="480" y="0" width="1681" height="1600"/>
  </clipPath>
</defs>
<path clip-path="url(#clip900)" d="M156.066 1486.45 L2352.76 1486.45 L2352.76 47.2441 L156.066 47.2441  Z" fill="#ffffff" fill-rule="evenodd" fill-opacity="1"/>
<defs>
  <clipPath id="clip902">
    <rect x="156" y="47" width="2198" height="1440"/>
  </clipPath>
</defs>
<polyline clip-path="url(#clip902)" style="stroke:#000000; stroke-linecap:round; stroke-linejoin:round; stroke-width:2; stroke-opacity:0.1; fill:none" points="216.303,1486.45 216.303,47.2441 "/>
<polyline clip-path="url(#clip902)" style="stroke:#000000; stroke-linecap:round; stroke-linejoin:round; stroke-width:2; stroke-opacity:0.1; fill:none" points="699.594,1486.45 699.594,47.2441 "/>
<polyline clip-path="url(#clip902)" style="stroke:#000000; stroke-linecap:round; stroke-linejoin:round; stroke-width:2; stroke-opacity:0.1; fill:none" points="1182.88,1486.45 1182.88,47.2441 "/>
<polyline clip-path="url(#clip902)" style="stroke:#000000; stroke-linecap:round; stroke-linejoin:round; stroke-width:2; stroke-opacity:0.1; fill:none" points="1666.17,1486.45 1666.17,47.2441 "/>
<polyline clip-path="url(#clip902)" style="stroke:#000000; stroke-linecap:round; stroke-linejoin:round; stroke-width:2; stroke-opacity:0.1; fill:none" points="2149.46,1486.45 2149.46,47.2441 "/>
<polyline clip-path="url(#clip900)" style="stroke:#000000; stroke-linecap:round; stroke-linejoin:round; stroke-width:4; stroke-opacity:1; fill:none" points="156.066,1486.45 2352.76,1486.45 "/>
<polyline clip-path="url(#clip900)" style="stroke:#000000; stroke-linecap:round; stroke-linejoin:round; stroke-width:4; stroke-opacity:1; fill:none" points="216.303,1486.45 216.303,1467.55 "/>
<polyline clip-path="url(#clip900)" style="stroke:#000000; stroke-linecap:round; stroke-linejoin:round; stroke-width:4; stroke-opacity:1; fill:none" points="699.594,1486.45 699.594,1467.55 "/>
<polyline clip-path="url(#clip900)" style="stroke:#000000; stroke-linecap:round; stroke-linejoin:round; stroke-width:4; stroke-opacity:1; fill:none" points="1182.88,1486.45 1182.88,1467.55 "/>
<polyline clip-path="url(#clip900)" style="stroke:#000000; stroke-linecap:round; stroke-linejoin:round; stroke-width:4; stroke-opacity:1; fill:none" points="1666.17,1486.45 1666.17,1467.55 "/>
<polyline clip-path="url(#clip900)" style="stroke:#000000; stroke-linecap:round; stroke-linejoin:round; stroke-width:4; stroke-opacity:1; fill:none" points="2149.46,1486.45 2149.46,1467.55 "/>
<path clip-path="url(#clip900)" d="M216.303 1517.37 Q212.692 1517.37 210.863 1520.93 Q209.058 1524.47 209.058 1531.6 Q209.058 1538.71 210.863 1542.27 Q212.692 1545.82 216.303 1545.82 Q219.937 1545.82 221.743 1542.27 Q223.572 1538.71 223.572 1531.6 Q223.572 1524.47 221.743 1520.93 Q219.937 1517.37 216.303 1517.37 M216.303 1513.66 Q222.113 1513.66 225.169 1518.27 Q228.248 1522.85 228.248 1531.6 Q228.248 1540.33 225.169 1544.94 Q222.113 1549.52 216.303 1549.52 Q210.493 1549.52 207.414 1544.94 Q204.359 1540.33 204.359 1531.6 Q204.359 1522.85 207.414 1518.27 Q210.493 1513.66 216.303 1513.66 Z" fill="#000000" fill-rule="nonzero" fill-opacity="1" /><path clip-path="url(#clip900)" d="M663.286 1544.91 L679.605 1544.91 L679.605 1548.85 L657.661 1548.85 L657.661 1544.91 Q660.323 1542.16 664.906 1537.53 Q669.513 1532.88 670.693 1531.53 Q672.939 1529.01 673.818 1527.27 Q674.721 1525.51 674.721 1523.82 Q674.721 1521.07 672.777 1519.33 Q670.855 1517.6 667.753 1517.6 Q665.554 1517.6 663.101 1518.36 Q660.67 1519.13 657.892 1520.68 L657.892 1515.95 Q660.716 1514.82 663.17 1514.24 Q665.624 1513.66 667.661 1513.66 Q673.031 1513.66 676.226 1516.35 Q679.42 1519.03 679.42 1523.52 Q679.42 1525.65 678.61 1527.57 Q677.823 1529.47 675.716 1532.07 Q675.138 1532.74 672.036 1535.95 Q668.934 1539.15 663.286 1544.91 Z" fill="#000000" fill-rule="nonzero" fill-opacity="1" /><path clip-path="url(#clip900)" d="M689.466 1514.29 L707.823 1514.29 L707.823 1518.22 L693.749 1518.22 L693.749 1526.7 Q694.767 1526.35 695.786 1526.19 Q696.804 1526 697.823 1526 Q703.61 1526 706.989 1529.17 Q710.369 1532.34 710.369 1537.76 Q710.369 1543.34 706.897 1546.44 Q703.425 1549.52 697.105 1549.52 Q694.929 1549.52 692.661 1549.15 Q690.415 1548.78 688.008 1548.04 L688.008 1543.34 Q690.091 1544.47 692.313 1545.03 Q694.536 1545.58 697.013 1545.58 Q701.017 1545.58 703.355 1543.48 Q705.693 1541.37 705.693 1537.76 Q705.693 1534.15 703.355 1532.04 Q701.017 1529.94 697.013 1529.94 Q695.138 1529.94 693.263 1530.35 Q691.411 1530.77 689.466 1531.65 L689.466 1514.29 Z" fill="#000000" fill-rule="nonzero" fill-opacity="1" /><path clip-path="url(#clip900)" d="M729.582 1517.37 Q725.971 1517.37 724.142 1520.93 Q722.336 1524.47 722.336 1531.6 Q722.336 1538.71 724.142 1542.27 Q725.971 1545.82 729.582 1545.82 Q733.216 1545.82 735.022 1542.27 Q736.85 1538.71 736.85 1531.6 Q736.85 1524.47 735.022 1520.93 Q733.216 1517.37 729.582 1517.37 M729.582 1513.66 Q735.392 1513.66 738.447 1518.27 Q741.526 1522.85 741.526 1531.6 Q741.526 1540.33 738.447 1544.94 Q735.392 1549.52 729.582 1549.52 Q723.772 1549.52 720.693 1544.94 Q717.637 1540.33 717.637 1531.6 Q717.637 1522.85 720.693 1518.27 Q723.772 1513.66 729.582 1513.66 Z" fill="#000000" fill-rule="nonzero" fill-opacity="1" /><path clip-path="url(#clip900)" d="M1142.5 1514.29 L1160.86 1514.29 L1160.86 1518.22 L1146.78 1518.22 L1146.78 1526.7 Q1147.8 1526.35 1148.82 1526.19 Q1149.84 1526 1150.86 1526 Q1156.65 1526 1160.03 1529.17 Q1163.4 1532.34 1163.4 1537.76 Q1163.4 1543.34 1159.93 1546.44 Q1156.46 1549.52 1150.14 1549.52 Q1147.97 1549.52 1145.7 1549.15 Q1143.45 1548.78 1141.04 1548.04 L1141.04 1543.34 Q1143.13 1544.47 1145.35 1545.03 Q1147.57 1545.58 1150.05 1545.58 Q1154.05 1545.58 1156.39 1543.48 Q1158.73 1541.37 1158.73 1537.76 Q1158.73 1534.15 1156.39 1532.04 Q1154.05 1529.94 1150.05 1529.94 Q1148.17 1529.94 1146.3 1530.35 Q1144.45 1530.77 1142.5 1531.65 L1142.5 1514.29 Z" fill="#000000" fill-rule="nonzero" fill-opacity="1" /><path clip-path="url(#clip900)" d="M1182.62 1517.37 Q1179.01 1517.37 1177.18 1520.93 Q1175.37 1524.47 1175.37 1531.6 Q1175.37 1538.71 1177.18 1542.27 Q1179.01 1545.82 1182.62 1545.82 Q1186.25 1545.82 1188.06 1542.27 Q1189.89 1538.71 1189.89 1531.6 Q1189.89 1524.47 1188.06 1520.93 Q1186.25 1517.37 1182.62 1517.37 M1182.62 1513.66 Q1188.43 1513.66 1191.48 1518.27 Q1194.56 1522.85 1194.56 1531.6 Q1194.56 1540.33 1191.48 1544.94 Q1188.43 1549.52 1182.62 1549.52 Q1176.81 1549.52 1173.73 1544.94 Q1170.67 1540.33 1170.67 1531.6 Q1170.67 1522.85 1173.73 1518.27 Q1176.81 1513.66 1182.62 1513.66 Z" fill="#000000" fill-rule="nonzero" fill-opacity="1" /><path clip-path="url(#clip900)" d="M1212.78 1517.37 Q1209.17 1517.37 1207.34 1520.93 Q1205.53 1524.47 1205.53 1531.6 Q1205.53 1538.71 1207.34 1542.27 Q1209.17 1545.82 1212.78 1545.82 Q1216.41 1545.82 1218.22 1542.27 Q1220.05 1538.71 1220.05 1531.6 Q1220.05 1524.47 1218.22 1520.93 Q1216.41 1517.37 1212.78 1517.37 M1212.78 1513.66 Q1218.59 1513.66 1221.65 1518.27 Q1224.72 1522.85 1224.72 1531.6 Q1224.72 1540.33 1221.65 1544.94 Q1218.59 1549.52 1212.78 1549.52 Q1206.97 1549.52 1203.89 1544.94 Q1200.84 1540.33 1200.84 1531.6 Q1200.84 1522.85 1203.89 1518.27 Q1206.97 1513.66 1212.78 1513.66 Z" fill="#000000" fill-rule="nonzero" fill-opacity="1" /><path clip-path="url(#clip900)" d="M1624.45 1514.29 L1646.67 1514.29 L1646.67 1516.28 L1634.13 1548.85 L1629.24 1548.85 L1641.05 1518.22 L1624.45 1518.22 L1624.45 1514.29 Z" fill="#000000" fill-rule="nonzero" fill-opacity="1" /><path clip-path="url(#clip900)" d="M1655.84 1514.29 L1674.2 1514.29 L1674.2 1518.22 L1660.12 1518.22 L1660.12 1526.7 Q1661.14 1526.35 1662.16 1526.19 Q1663.18 1526 1664.2 1526 Q1669.98 1526 1673.36 1529.17 Q1676.74 1532.34 1676.74 1537.76 Q1676.74 1543.34 1673.27 1546.44 Q1669.8 1549.52 1663.48 1549.52 Q1661.3 1549.52 1659.03 1549.15 Q1656.79 1548.78 1654.38 1548.04 L1654.38 1543.34 Q1656.46 1544.47 1658.69 1545.03 Q1660.91 1545.58 1663.38 1545.58 Q1667.39 1545.58 1669.73 1543.48 Q1672.07 1541.37 1672.07 1537.76 Q1672.07 1534.15 1669.73 1532.04 Q1667.39 1529.94 1663.38 1529.94 Q1661.51 1529.94 1659.63 1530.35 Q1657.78 1530.77 1655.84 1531.65 L1655.84 1514.29 Z" fill="#000000" fill-rule="nonzero" fill-opacity="1" /><path clip-path="url(#clip900)" d="M1695.95 1517.37 Q1692.34 1517.37 1690.51 1520.93 Q1688.71 1524.47 1688.71 1531.6 Q1688.71 1538.71 1690.51 1542.27 Q1692.34 1545.82 1695.95 1545.82 Q1699.59 1545.82 1701.39 1542.27 Q1703.22 1538.71 1703.22 1531.6 Q1703.22 1524.47 1701.39 1520.93 Q1699.59 1517.37 1695.95 1517.37 M1695.95 1513.66 Q1701.76 1513.66 1704.82 1518.27 Q1707.9 1522.85 1707.9 1531.6 Q1707.9 1540.33 1704.82 1544.94 Q1701.76 1549.52 1695.95 1549.52 Q1690.14 1549.52 1687.07 1544.94 Q1684.01 1540.33 1684.01 1531.6 Q1684.01 1522.85 1687.07 1518.27 Q1690.14 1513.66 1695.95 1513.66 Z" fill="#000000" fill-rule="nonzero" fill-opacity="1" /><path clip-path="url(#clip900)" d="M2093.99 1544.91 L2101.63 1544.91 L2101.63 1518.55 L2093.32 1520.21 L2093.32 1515.95 L2101.58 1514.29 L2106.26 1514.29 L2106.26 1544.91 L2113.9 1544.91 L2113.9 1548.85 L2093.99 1548.85 L2093.99 1544.91 Z" fill="#000000" fill-rule="nonzero" fill-opacity="1" /><path clip-path="url(#clip900)" d="M2133.34 1517.37 Q2129.73 1517.37 2127.9 1520.93 Q2126.1 1524.47 2126.1 1531.6 Q2126.1 1538.71 2127.9 1542.27 Q2129.73 1545.82 2133.34 1545.82 Q2136.98 1545.82 2138.78 1542.27 Q2140.61 1538.71 2140.61 1531.6 Q2140.61 1524.47 2138.78 1520.93 Q2136.98 1517.37 2133.34 1517.37 M2133.34 1513.66 Q2139.15 1513.66 2142.21 1518.27 Q2145.29 1522.85 2145.29 1531.6 Q2145.29 1540.33 2142.21 1544.94 Q2139.15 1549.52 2133.34 1549.52 Q2127.53 1549.52 2124.45 1544.94 Q2121.4 1540.33 2121.4 1531.6 Q2121.4 1522.85 2124.45 1518.27 Q2127.53 1513.66 2133.34 1513.66 Z" fill="#000000" fill-rule="nonzero" fill-opacity="1" /><path clip-path="url(#clip900)" d="M2163.5 1517.37 Q2159.89 1517.37 2158.06 1520.93 Q2156.26 1524.47 2156.26 1531.6 Q2156.26 1538.71 2158.06 1542.27 Q2159.89 1545.82 2163.5 1545.82 Q2167.14 1545.82 2168.94 1542.27 Q2170.77 1538.71 2170.77 1531.6 Q2170.77 1524.47 2168.94 1520.93 Q2167.14 1517.37 2163.5 1517.37 M2163.5 1513.66 Q2169.31 1513.66 2172.37 1518.27 Q2175.45 1522.85 2175.45 1531.6 Q2175.45 1540.33 2172.37 1544.94 Q2169.31 1549.52 2163.5 1549.52 Q2157.69 1549.52 2154.62 1544.94 Q2151.56 1540.33 2151.56 1531.6 Q2151.56 1522.85 2154.62 1518.27 Q2157.69 1513.66 2163.5 1513.66 Z" fill="#000000" fill-rule="nonzero" fill-opacity="1" /><path clip-path="url(#clip900)" d="M2193.67 1517.37 Q2190.05 1517.37 2188.23 1520.93 Q2186.42 1524.47 2186.42 1531.6 Q2186.42 1538.71 2188.23 1542.27 Q2190.05 1545.82 2193.67 1545.82 Q2197.3 1545.82 2199.11 1542.27 Q2200.93 1538.71 2200.93 1531.6 Q2200.93 1524.47 2199.11 1520.93 Q2197.3 1517.37 2193.67 1517.37 M2193.67 1513.66 Q2199.48 1513.66 2202.53 1518.27 Q2205.61 1522.85 2205.61 1531.6 Q2205.61 1540.33 2202.53 1544.94 Q2199.48 1549.52 2193.67 1549.52 Q2187.86 1549.52 2184.78 1544.94 Q2181.72 1540.33 2181.72 1531.6 Q2181.72 1522.85 2184.78 1518.27 Q2187.86 1513.66 2193.67 1513.66 Z" fill="#000000" fill-rule="nonzero" fill-opacity="1" /><polyline clip-path="url(#clip902)" style="stroke:#000000; stroke-linecap:round; stroke-linejoin:round; stroke-width:2; stroke-opacity:0.1; fill:none" points="156.066,1356.67 2352.76,1356.67 "/>
<polyline clip-path="url(#clip902)" style="stroke:#000000; stroke-linecap:round; stroke-linejoin:round; stroke-width:2; stroke-opacity:0.1; fill:none" points="156.066,1089.54 2352.76,1089.54 "/>
<polyline clip-path="url(#clip902)" style="stroke:#000000; stroke-linecap:round; stroke-linejoin:round; stroke-width:2; stroke-opacity:0.1; fill:none" points="156.066,822.407 2352.76,822.407 "/>
<polyline clip-path="url(#clip902)" style="stroke:#000000; stroke-linecap:round; stroke-linejoin:round; stroke-width:2; stroke-opacity:0.1; fill:none" points="156.066,555.275 2352.76,555.275 "/>
<polyline clip-path="url(#clip902)" style="stroke:#000000; stroke-linecap:round; stroke-linejoin:round; stroke-width:2; stroke-opacity:0.1; fill:none" points="156.066,288.143 2352.76,288.143 "/>
<polyline clip-path="url(#clip900)" style="stroke:#000000; stroke-linecap:round; stroke-linejoin:round; stroke-width:4; stroke-opacity:1; fill:none" points="156.066,1486.45 156.066,47.2441 "/>
<polyline clip-path="url(#clip900)" style="stroke:#000000; stroke-linecap:round; stroke-linejoin:round; stroke-width:4; stroke-opacity:1; fill:none" points="156.066,1356.67 174.963,1356.67 "/>
<polyline clip-path="url(#clip900)" style="stroke:#000000; stroke-linecap:round; stroke-linejoin:round; stroke-width:4; stroke-opacity:1; fill:none" points="156.066,1089.54 174.963,1089.54 "/>
<polyline clip-path="url(#clip900)" style="stroke:#000000; stroke-linecap:round; stroke-linejoin:round; stroke-width:4; stroke-opacity:1; fill:none" points="156.066,822.407 174.963,822.407 "/>
<polyline clip-path="url(#clip900)" style="stroke:#000000; stroke-linecap:round; stroke-linejoin:round; stroke-width:4; stroke-opacity:1; fill:none" points="156.066,555.275 174.963,555.275 "/>
<polyline clip-path="url(#clip900)" style="stroke:#000000; stroke-linecap:round; stroke-linejoin:round; stroke-width:4; stroke-opacity:1; fill:none" points="156.066,288.143 174.963,288.143 "/>
<path clip-path="url(#clip900)" d="M54.1634 1339.39 L72.5198 1339.39 L72.5198 1343.33 L58.4458 1343.33 L58.4458 1351.8 Q59.4643 1351.45 60.4828 1351.29 Q61.5013 1351.1 62.5198 1351.1 Q68.3068 1351.1 71.6865 1354.28 Q75.0661 1357.45 75.0661 1362.86 Q75.0661 1368.44 71.5939 1371.54 Q68.1217 1374.62 61.8023 1374.62 Q59.6263 1374.62 57.3578 1374.25 Q55.1125 1373.88 52.7051 1373.14 L52.7051 1368.44 Q54.7884 1369.58 57.0106 1370.13 Q59.2328 1370.69 61.7097 1370.69 Q65.7143 1370.69 68.0522 1368.58 Q70.3902 1366.47 70.3902 1362.86 Q70.3902 1359.25 68.0522 1357.15 Q65.7143 1355.04 61.7097 1355.04 Q59.8347 1355.04 57.9597 1355.46 Q56.1078 1355.87 54.1634 1356.75 L54.1634 1339.39 Z" fill="#000000" fill-rule="nonzero" fill-opacity="1" /><path clip-path="url(#clip900)" d="M84.279 1368.07 L89.1632 1368.07 L89.1632 1373.95 L84.279 1373.95 L84.279 1368.07 Z" fill="#000000" fill-rule="nonzero" fill-opacity="1" /><path clip-path="url(#clip900)" d="M100.159 1370.02 L107.797 1370.02 L107.797 1343.65 L99.4872 1345.32 L99.4872 1341.06 L107.751 1339.39 L112.427 1339.39 L112.427 1370.02 L120.066 1370.02 L120.066 1373.95 L100.159 1373.95 L100.159 1370.02 Z" fill="#000000" fill-rule="nonzero" fill-opacity="1" /><path clip-path="url(#clip900)" d="M52.4505 1072.26 L70.8068 1072.26 L70.8068 1076.19 L56.7328 1076.19 L56.7328 1084.67 Q57.7513 1084.32 58.7699 1084.16 Q59.7884 1083.97 60.8069 1083.97 Q66.5939 1083.97 69.9735 1087.14 Q73.3531 1090.31 73.3531 1095.73 Q73.3531 1101.31 69.8809 1104.41 Q66.4087 1107.49 60.0893 1107.49 Q57.9134 1107.49 55.6449 1107.12 Q53.3995 1106.75 50.9921 1106.01 L50.9921 1101.31 Q53.0754 1102.44 55.2977 1103 Q57.5199 1103.56 59.9967 1103.56 Q64.0013 1103.56 66.3393 1101.45 Q68.6772 1099.34 68.6772 1095.73 Q68.6772 1092.12 66.3393 1090.01 Q64.0013 1087.91 59.9967 1087.91 Q58.1217 1087.91 56.2467 1088.32 Q54.3949 1088.74 52.4505 1089.62 L52.4505 1072.26 Z" fill="#000000" fill-rule="nonzero" fill-opacity="1" /><path clip-path="url(#clip900)" d="M82.566 1100.94 L87.4503 1100.94 L87.4503 1106.82 L82.566 1106.82 L82.566 1100.94 Z" fill="#000000" fill-rule="nonzero" fill-opacity="1" /><path clip-path="url(#clip900)" d="M110.483 1076.33 L98.6771 1094.78 L110.483 1094.78 L110.483 1076.33 M109.256 1072.26 L115.135 1072.26 L115.135 1094.78 L120.066 1094.78 L120.066 1098.67 L115.135 1098.67 L115.135 1106.82 L110.483 1106.82 L110.483 1098.67 L94.8808 1098.67 L94.8808 1094.16 L109.256 1072.26 Z" fill="#000000" fill-rule="nonzero" fill-opacity="1" /><path clip-path="url(#clip900)" d="M53.8393 805.127 L72.1957 805.127 L72.1957 809.062 L58.1217 809.062 L58.1217 817.535 Q59.1402 817.187 60.1587 817.025 Q61.1773 816.84 62.1958 816.84 Q67.9828 816.84 71.3624 820.011 Q74.742 823.183 74.742 828.599 Q74.742 834.178 71.2698 837.28 Q67.7976 840.359 61.4782 840.359 Q59.3023 840.359 57.0338 839.988 Q54.7884 839.618 52.381 838.877 L52.381 834.178 Q54.4643 835.312 56.6865 835.868 Q58.9088 836.423 61.3856 836.423 Q65.3902 836.423 67.7281 834.317 Q70.0661 832.21 70.0661 828.599 Q70.0661 824.988 67.7281 822.882 Q65.3902 820.775 61.3856 820.775 Q59.5106 820.775 57.6356 821.192 Q55.7838 821.609 53.8393 822.488 L53.8393 805.127 Z" fill="#000000" fill-rule="nonzero" fill-opacity="1" /><path clip-path="url(#clip900)" d="M83.9549 833.808 L88.8391 833.808 L88.8391 839.687 L83.9549 839.687 L83.9549 833.808 Z" fill="#000000" fill-rule="nonzero" fill-opacity="1" /><path clip-path="url(#clip900)" d="M97.8437 805.127 L120.066 805.127 L120.066 807.118 L107.52 839.687 L102.635 839.687 L114.441 809.062 L97.8437 809.062 L97.8437 805.127 Z" fill="#000000" fill-rule="nonzero" fill-opacity="1" /><path clip-path="url(#clip900)" d="M63.4689 553.412 Q60.3208 553.412 58.4689 555.564 Q56.6402 557.717 56.6402 561.467 Q56.6402 565.194 58.4689 567.37 Q60.3208 569.523 63.4689 569.523 Q66.617 569.523 68.4457 567.37 Q70.2976 565.194 70.2976 561.467 Q70.2976 557.717 68.4457 555.564 Q66.617 553.412 63.4689 553.412 M72.7513 538.759 L72.7513 543.018 Q70.992 542.185 69.1865 541.745 Q67.4041 541.305 65.6448 541.305 Q61.0152 541.305 58.5615 544.43 Q56.131 547.555 55.7838 553.875 Q57.1495 551.861 59.2097 550.796 Q61.2698 549.708 63.7467 549.708 Q68.955 549.708 71.9642 552.879 Q74.9966 556.027 74.9966 561.467 Q74.9966 566.791 71.8485 570.009 Q68.7004 573.226 63.4689 573.226 Q57.4736 573.226 54.3023 568.643 Q51.131 564.037 51.131 555.31 Q51.131 547.115 55.0199 542.254 Q58.9088 537.37 65.4596 537.37 Q67.2189 537.37 69.0013 537.717 Q70.8068 538.064 72.7513 538.759 Z" fill="#000000" fill-rule="nonzero" fill-opacity="1" /><path clip-path="url(#clip900)" d="M83.0521 566.675 L87.9364 566.675 L87.9364 572.555 L83.0521 572.555 L83.0521 566.675 Z" fill="#000000" fill-rule="nonzero" fill-opacity="1" /><path clip-path="url(#clip900)" d="M108.121 541.074 Q104.51 541.074 102.682 544.639 Q100.876 548.18 100.876 555.31 Q100.876 562.416 102.682 565.981 Q104.51 569.523 108.121 569.523 Q111.756 569.523 113.561 565.981 Q115.39 562.416 115.39 555.31 Q115.39 548.18 113.561 544.639 Q111.756 541.074 108.121 541.074 M108.121 537.37 Q113.932 537.37 116.987 541.976 Q120.066 546.56 120.066 555.31 Q120.066 564.037 116.987 568.643 Q113.932 573.226 108.121 573.226 Q102.311 573.226 99.2326 568.643 Q96.1771 564.037 96.1771 555.31 Q96.1771 546.56 99.2326 541.976 Q102.311 537.37 108.121 537.37 Z" fill="#000000" fill-rule="nonzero" fill-opacity="1" /><path clip-path="url(#clip900)" d="M64.1171 286.279 Q60.9689 286.279 59.1171 288.432 Q57.2884 290.585 57.2884 294.335 Q57.2884 298.062 59.1171 300.238 Q60.9689 302.39 64.1171 302.39 Q67.2652 302.39 69.0939 300.238 Q70.9457 298.062 70.9457 294.335 Q70.9457 290.585 69.0939 288.432 Q67.2652 286.279 64.1171 286.279 M73.3994 271.627 L73.3994 275.886 Q71.6402 275.053 69.8346 274.613 Q68.0522 274.173 66.293 274.173 Q61.6634 274.173 59.2097 277.298 Q56.7791 280.423 56.4319 286.742 Q57.7976 284.728 59.8578 283.664 Q61.918 282.576 64.3948 282.576 Q69.6031 282.576 72.6124 285.747 Q75.6448 288.895 75.6448 294.335 Q75.6448 299.659 72.4966 302.877 Q69.3485 306.094 64.1171 306.094 Q58.1217 306.094 54.9504 301.511 Q51.7792 296.904 51.7792 288.178 Q51.7792 279.983 55.668 275.122 Q59.5569 270.238 66.1078 270.238 Q67.867 270.238 69.6494 270.585 Q71.455 270.932 73.3994 271.627 Z" fill="#000000" fill-rule="nonzero" fill-opacity="1" /><path clip-path="url(#clip900)" d="M83.7003 299.543 L88.5845 299.543 L88.5845 305.423 L83.7003 305.423 L83.7003 299.543 Z" fill="#000000" fill-rule="nonzero" fill-opacity="1" /><path clip-path="url(#clip900)" d="M112.936 286.789 Q116.293 287.506 118.168 289.775 Q120.066 292.043 120.066 295.377 Q120.066 300.492 116.547 303.293 Q113.029 306.094 106.547 306.094 Q104.371 306.094 102.057 305.654 Q99.765 305.238 97.3113 304.381 L97.3113 299.867 Q99.2558 301.002 101.571 301.58 Q103.885 302.159 106.408 302.159 Q110.807 302.159 113.098 300.423 Q115.413 298.687 115.413 295.377 Q115.413 292.321 113.26 290.608 Q111.131 288.872 107.311 288.872 L103.284 288.872 L103.284 285.029 L107.496 285.029 Q110.946 285.029 112.774 283.664 Q114.603 282.275 114.603 279.682 Q114.603 277.02 112.705 275.608 Q110.83 274.173 107.311 274.173 Q105.39 274.173 103.191 274.59 Q100.992 275.006 98.353 275.886 L98.353 271.719 Q101.015 270.979 103.33 270.608 Q105.668 270.238 107.728 270.238 Q113.052 270.238 116.154 272.668 Q119.256 275.076 119.256 279.196 Q119.256 282.066 117.612 284.057 Q115.969 286.025 112.936 286.789 Z" fill="#000000" fill-rule="nonzero" fill-opacity="1" /><polyline clip-path="url(#clip902)" style="stroke:#009af9; stroke-linecap:round; stroke-linejoin:round; stroke-width:4; stroke-opacity:1; fill:none" points="218.236,1445.72 220.169,1445.72 222.103,1445.72 224.036,1267.63 225.969,1267.63 227.902,1025 229.835,1035.02 231.768,1035.02 233.702,803.388 235.635,803.388 237.568,575.791 239.501,614.962 241.434,765.552 243.367,888.845 245.301,888.845 247.234,755.356 249.167,831.288 251.1,942.665 253.033,1033.85 254.966,1033.85 256.9,1012.12 258.833,1021.36 260.766,1021.36 262.699,908.099 264.632,926.192 266.565,1020.37 268.499,1097.47 270.432,1097.47 272.365,1053.67 274.298,1076.81 276.231,1076.81 278.164,929.031 280.097,929.031 282.031,698.679 283.964,728.267 285.897,858.318 287.83,964.795 289.763,1051.97 291.696,1051.97 293.63,1017.52 295.563,1038.71 297.496,1038.71 299.429,965.213 301.362,965.213 303.295,932.843 305.229,950.75 307.162,1040.47 309.095,1040.47 311.028,922.612 312.961,942.671 314.894,1033.86 316.828,1033.86 318.761,784.712 320.694,784.712 322.627,672.78 324.56,672.78 326.493,614.888 328.427,622.129 330.36,771.42 332.293,771.42 334.226,732.923 336.159,814.838 338.092,929.197 340.025,1022.83 341.959,1022.83 343.892,939.657 345.825,1025.55 347.758,1101.72 349.691,1164.07 351.624,1215.13 353.558,1215.13 355.491,1144.13 357.424,1177.83 359.357,1226.39 361.29,1266.15 363.223,1266.15 365.157,1197.75 367.09,1216.32 369.023,1216.32 370.956,1130.26 372.889,1130.26 374.822,981.961 376.756,1020.91 378.689,1097.91 380.622,1160.96 382.555,1160.96 384.488,1032.28 386.421,1036.16 388.355,1110.4 390.288,1171.18 392.221,1220.95 394.154,1261.69 396.087,1295.05 398.02,1322.36 399.953,1344.72 401.887,1363.03 403.82,1378.02 405.753,1378.02 407.686,1297.28 409.619,1307.19 411.552,1332.3 413.486,1332.3 415.419,1159.48 417.352,1199.95 419.285,1199.95 421.218,1151.05 423.151,1157.36 425.085,1157.36 427.018,904.322 428.951,979.683 430.884,979.683 432.817,716.34 434.75,716.34 436.684,701.289 438.617,701.289 440.55,618.159 442.483,679.405 444.416,679.405 446.349,626.56 448.283,644.021 450.216,644.021 452.149,570.504 454.082,621.666 456.015,771.041 457.948,771.041 459.881,707.724 461.815,817.545 463.748,931.413 465.681,1024.64 467.614,1100.97 469.547,1100.97 471.48,931.365 473.414,931.365 475.347,676.274 477.28,784.372 479.213,784.372 481.146,690.727 483.079,737.105 485.013,737.105 486.946,702.181 488.879,786.623 490.812,786.623 492.745,794.803 494.678,820.578 496.612,933.896 498.545,1026.67 500.478,1102.63 502.411,1164.82 504.344,1215.74 506.277,1257.43 508.211,1257.43 510.144,1000.96 512.077,1059.72 514.01,1129.69 515.943,1129.69 517.876,915.723 519.809,924.029 521.743,1018.59 523.676,1096.02 525.609,1096.02 527.542,1041.45 529.475,1078.53 531.408,1078.53 533.342,938.307 535.275,982.52 537.208,982.52 539.141,937.754 541.074,937.754 543.007,871.727 544.941,901.44 546.874,1000.1 548.807,1080.88 550.74,1147.01 552.673,1147.01 554.606,982.491 556.54,1048.41 558.473,1048.41 560.406,971.709 562.339,1045.19 564.272,1117.79 566.205,1177.24 568.139,1177.24 570.072,1007.49 572.005,1075.42 573.938,1142.55 575.871,1197.5 577.804,1197.5 579.738,1041.25 581.671,1041.25 583.604,810.552 585.537,819.078 587.47,932.668 589.403,1025.67 591.336,1101.81 593.27,1164.15 595.203,1215.19 597.136,1215.19 599.069,949.948 601.002,949.948 602.935,800.584 604.869,880.404 606.802,982.878 608.735,1066.78 610.668,1066.78 612.601,911.426 614.534,980.352 616.468,1064.71 618.401,1064.71 620.334,1012.92 622.267,1052.97 624.2,1052.97 626.133,886.104 628.067,886.104 630,850.252 631.933,891.137 633.866,991.665 635.799,991.665 637.732,852.516 639.666,914.487 641.599,914.487 643.532,811.825 645.465,840.849 647.398,840.849 649.331,696.482 651.264,796.078 653.198,913.837 655.131,1010.25 657.064,1089.19 658.997,1089.19 660.93,828.782 662.863,930.899 664.797,1024.22 666.73,1100.62 668.663,1163.18 670.596,1214.39 672.529,1214.39 674.462,1051.34 676.396,1100.39 678.329,1162.98 680.262,1214.23 682.195,1256.19 684.128,1256.19 686.061,1096.58 687.995,1096.58 689.928,948.286 691.861,952.366 693.794,952.366 695.727,864.773 697.66,968.677 699.594,968.677 701.527,721.78 703.46,826.752 705.393,938.951 707.326,938.951 709.259,917.766 711.192,946.638 713.126,946.638 715.059,813.322 716.992,876.929 718.925,980.033 720.858,1064.45 722.791,1133.56 724.725,1133.56 726.658,1045.92 728.591,1116.91 730.524,1116.91 732.457,1080.24 734.39,1089.8 736.324,1154.31 738.257,1207.14 740.19,1250.38 742.123,1285.79 744.056,1314.78 745.989,1314.78 747.923,1238.36 749.856,1257.84 751.789,1291.89 753.722,1319.78 755.655,1319.78 757.588,1235.48 759.522,1266.85 761.455,1266.85 763.388,1187.17 765.321,1222.34 767.254,1222.34 769.187,981.98 771.12,1014.33 773.054,1014.33 774.987,797.368 776.92,845.04 778.853,845.04 780.786,763.591 782.719,780.162 784.653,900.807 786.586,999.582 788.519,999.582 790.452,943.524 792.385,1001.73 794.318,1082.21 796.252,1148.1 798.185,1202.05 800.118,1246.22 802.051,1282.38 803.984,1282.38 805.917,1211.06 807.851,1230.21 809.784,1230.21 811.717,1159.37 813.65,1189.65 815.583,1236.07 817.516,1274.07 819.45,1274.07 821.383,1105.7 823.316,1105.7 825.249,954.353 827.182,982.874 829.115,982.874 831.048,856.994 832.982,902.429 834.915,902.429 836.848,853.294 838.781,922.227 840.714,922.227 842.647,701.904 844.581,701.904 846.514,468.091 848.447,525.483 850.38,525.483 852.313,497.701 854.246,518.022 856.18,518.022 858.113,260.987 860.046,465.069 861.979,465.069 863.912,252.112 865.845,411.332 867.779,598.834 869.712,598.834 871.645,417.801 873.578,417.801 875.511,158.519 877.444,263.551 879.378,477.841 881.311,477.841 883.244,301.349 885.177,507.24 887.11,677.357 889.043,677.357 890.977,596.61 892.91,596.61 894.843,361.118 896.776,361.118 898.709,233.94 900.642,352.64 902.575,352.64 904.509,87.9763 906.442,331.576 908.375,331.576 910.308,182.879 912.241,288.812 914.174,498.523 916.108,670.22 918.041,810.793 919.974,810.793 921.907,659.499 923.84,773.655 925.773,895.479 927.707,895.479 929.64,671.856 931.573,757.731 933.506,882.442 935.439,984.546 937.372,984.546 939.306,813.379 941.239,920.114 943.172,920.114 945.105,901.059 947.038,901.059 948.971,751.988 950.905,753.618 952.838,879.074 954.771,879.074 956.704,685.286 958.637,730.561 960.57,730.561 962.503,564.775 964.437,711.838 966.37,844.868 968.303,953.783 970.236,1042.96 972.169,1042.96 974.102,984.562 976.036,1037.06 977.969,1111.13 979.902,1171.78 981.835,1221.44 983.768,1262.09 985.701,1295.38 987.635,1295.38 989.568,1119.66 991.501,1119.66 993.434,876.645 995.367,876.645 997.3,639.185 999.234,639.185 1001.17,393.311 1003.1,421.357 1005.03,421.357 1006.97,278.764 1008.9,358.062 1010.83,555.22 1012.77,555.22 1014.7,385.936 1016.63,470.932 1018.57,647.63 1020.5,792.298 1022.43,910.743 1024.36,1007.72 1026.3,1007.72 1028.23,859.591 1030.16,930.6 1032.1,930.6 1034.03,858.459 1035.96,948.598 1037.9,1038.71 1039.83,1112.49 1041.76,1112.49 1043.7,970.645 1045.63,1009.29 1047.56,1009.29 1049.5,951.558 1051.43,1009.86 1053.36,1009.86 1055.3,971.742 1057.23,971.742 1059.16,819.849 1061.09,831.568 1063.03,942.894 1064.96,1034.04 1066.89,1034.04 1068.83,975.738 1070.76,975.738 1072.69,748.963 1074.63,771.316 1076.56,771.316 1078.49,699.059 1080.43,720.618 1082.36,852.056 1084.29,852.056 1086.23,743.028 1088.16,794.667 1090.09,912.682 1092.03,1009.3 1093.96,1009.3 1095.89,875.451 1097.82,926.161 1099.76,926.161 1101.69,829.308 1103.62,847.511 1105.56,847.511 1107.49,644.333 1109.42,711.057 1111.36,844.228 1113.29,953.259 1115.22,1042.53 1117.16,1042.53 1119.09,897.856 1121.02,956.629 1122.96,1045.29 1124.89,1045.29 1126.82,883.07 1128.76,966.047 1130.69,1053 1132.62,1124.18 1134.55,1182.47 1136.49,1230.19 1138.42,1230.19 1140.35,977.39 1142.29,977.39 1144.22,833.314 1146.15,866.534 1148.09,866.534 1150.02,749.205 1151.95,808.627 1153.89,924.111 1155.82,1018.66 1157.75,1096.07 1159.69,1096.07 1161.62,929.063 1163.55,1008.88 1165.49,1088.06 1167.42,1088.06 1169.35,829.056 1171.28,929.099 1173.22,1022.75 1175.15,1022.75 1177.08,999.9 1179.02,1012.99 1180.95,1091.43 1182.88,1155.65 1184.82,1208.23 1186.75,1208.23 1188.68,949.652 1190.62,949.652 1192.55,931.886 1194.48,936.079 1196.42,1028.46 1198.35,1028.46 1200.28,825.849 1202.22,845.381 1204.15,845.381 1206.08,794.6 1208.01,794.6 1209.95,684.615 1211.88,702.414 1213.81,837.152 1215.75,947.466 1217.68,1037.78 1219.61,1111.73 1221.55,1172.27 1223.48,1172.27 1225.41,1039.91 1227.35,1046.75 1229.28,1046.75 1231.21,969.213 1233.15,969.213 1235.08,847.741 1237.01,847.741 1238.95,599.155 1240.88,609.867 1242.81,609.867 1244.75,489.454 1246.68,489.454 1248.61,365.798 1250.54,438.702 1252.48,621.243 1254.41,621.243 1256.34,655.231 1258.28,685.004 1260.21,822.898 1262.14,935.796 1264.08,935.796 1266.01,805.133 1267.94,867.471 1269.88,972.289 1271.81,1058.11 1273.74,1128.37 1275.68,1128.37 1277.61,1040.47 1279.54,1112.73 1281.48,1112.73 1283.41,859.483 1285.34,859.483 1287.27,684.731 1289.21,791.835 1291.14,910.364 1293.07,1007.41 1295.01,1007.41 1296.94,868.676 1298.87,926.668 1300.81,1020.76 1302.74,1097.79 1304.67,1097.79 1306.61,842.479 1308.54,934.454 1310.47,934.454 1312.41,697.692 1314.34,794.608 1316.27,794.608 1318.21,628.074 1320.14,653.958 1322.07,797.48 1324,914.985 1325.94,1011.19 1327.87,1089.96 1329.8,1089.96 1331.74,829.903 1333.67,931.295 1335.6,1024.54 1337.54,1100.89 1339.47,1100.89 1341.4,859.593 1343.34,859.593 1345.27,792.268 1347.2,792.268 1349.14,711.466 1351.07,762.246 1353,762.246 1354.94,561.172 1356.87,644.028 1358.8,644.028 1360.73,691.255 1362.67,701.516 1364.6,836.417 1366.53,836.417 1368.47,749.895 1370.4,873.658 1372.33,977.354 1374.27,977.354 1376.2,897.536 1378.13,897.536 1380.07,794.157 1382,815.681 1383.93,929.887 1385.87,929.887 1387.8,849.905 1389.73,849.905 1391.67,715.149 1393.6,715.149 1395.53,466.263 1397.46,466.263 1399.4,302.506 1401.33,376.308 1403.26,570.159 1405.2,570.159 1407.13,521.661 1409.06,521.661 1411,459.959 1412.93,469.557 1414.86,469.557 1416.8,331.166 1418.73,394.569 1420.66,585.11 1422.6,741.111 1424.53,868.834 1426.46,868.834 1428.4,806.987 1430.33,806.987 1432.26,772.48 1434.19,813.242 1436.13,813.242 1438.06,717.843 1439.99,760.154 1441.93,884.425 1443.86,986.17 1445.79,986.17 1447.73,910.808 1449.66,910.808 1451.59,822.299 1453.53,822.299 1455.46,687.956 1457.39,687.956 1459.33,474.176 1461.26,496.277 1463.19,668.381 1465.13,809.288 1467.06,924.653 1468.99,1019.11 1470.92,1019.11 1472.86,764.541 1474.79,764.541 1476.72,542.437 1478.66,542.437 1480.59,304.85 1482.52,380.331 1484.46,380.331 1486.39,325.5 1488.32,498.131 1490.26,669.899 1492.19,810.53 1494.12,810.53 1496.06,557.249 1497.99,557.249 1499.92,468.348 1501.86,536.396 1503.79,701.228 1505.72,836.181 1507.66,836.181 1509.59,573.248 1511.52,726.444 1513.45,726.444 1515.39,670.132 1517.32,780.447 1519.25,780.447 1521.19,639.241 1523.12,746.675 1525.05,746.675 1526.99,643.891 1528.92,709.98 1530.85,843.347 1532.79,952.538 1534.72,952.538 1536.65,888.997 1538.59,965.057 1540.52,1052.19 1542.45,1052.19 1544.39,973.254 1546.32,1048.69 1548.25,1048.69 1550.18,851.989 1552.12,854.79 1554.05,961.907 1555.98,961.907 1557.92,811.892 1559.85,894.819 1561.78,994.679 1563.72,1076.44 1565.65,1076.44 1567.58,933.11 1569.52,933.11 1571.45,855.958 1573.38,900.03 1575.32,998.946 1577.25,1079.93 1579.18,1079.93 1581.12,1013.99 1583.05,1068.42 1584.98,1068.42 1586.91,1041.04 1588.85,1041.04 1590.78,774.03 1592.71,788.147 1594.65,788.147 1596.58,628.978 1598.51,628.978 1600.45,571.667 1602.38,581.04 1604.31,737.779 1606.25,866.106 1608.18,971.172 1610.11,971.172 1612.05,923.897 1613.98,977.252 1615.91,1062.17 1617.85,1062.17 1619.78,1016.36 1621.71,1049.53 1623.64,1049.53 1625.58,876.835 1627.51,973.529 1629.44,1059.12 1631.38,1129.2 1633.31,1186.57 1635.24,1233.55 1637.18,1233.55 1639.11,982.444 1641.04,1035.43 1642.98,1109.8 1644.91,1170.69 1646.84,1220.54 1648.78,1261.36 1650.71,1294.78 1652.64,1322.14 1654.58,1344.54 1656.51,1362.88 1658.44,1362.88 1660.37,1281.04 1662.31,1298.05 1664.24,1324.82 1666.17,1346.73 1668.11,1364.68 1670.04,1364.68 1671.97,1105.72 1673.91,1136.12 1675.84,1136.12 1677.77,1084.29 1679.71,1109.38 1681.64,1109.38 1683.57,962.29 1685.51,1009.73 1687.44,1009.73 1689.37,819.647 1691.31,823.108 1693.24,935.967 1695.17,1028.37 1697.1,1104.02 1699.04,1165.96 1700.97,1165.96 1702.9,1101.91 1704.84,1136.62 1706.77,1192.65 1708.7,1238.52 1710.64,1238.52 1712.57,1080.13 1714.5,1080.13 1716.44,1005.17 1718.37,1031.16 1720.3,1106.31 1722.24,1167.83 1724.17,1167.83 1726.1,1098.92 1728.04,1139.61 1729.97,1195.09 1731.9,1195.09 1733.83,1109.67 1735.77,1166.55 1737.7,1166.55 1739.63,1110.87 1741.57,1134.36 1743.5,1190.8 1745.43,1237.01 1747.37,1237.01 1749.3,1181.69 1751.23,1187.89 1753.17,1187.89 1755.1,1138.52 1757.03,1148.46 1758.97,1202.34 1760.9,1246.46 1762.83,1282.58 1764.77,1312.15 1766.7,1312.15 1768.63,1148.42 1770.56,1173 1772.5,1222.43 1774.43,1262.91 1776.36,1296.05 1778.3,1296.05 1780.23,1120.03 1782.16,1175.32 1784.1,1175.32 1786.03,1020.72 1787.96,1064.66 1789.9,1133.73 1791.83,1133.73 1793.76,885.599 1795.7,885.599 1797.63,820.975 1799.56,876.221 1801.5,876.221 1803.43,803.172 1805.36,904.443 1807.3,1002.56 1809.23,1082.89 1811.16,1148.66 1813.09,1148.66 1815.03,987.321 1816.96,1047.99 1818.89,1047.99 1820.83,992.412 1822.76,992.412 1824.69,726.445 1826.63,801.061 1828.56,801.061 1830.49,706.572 1832.43,750.385 1834.36,750.385 1836.29,615.84 1838.23,615.84 1840.16,556.42 1842.09,556.42 1844.03,384.513 1845.96,477.794 1847.89,477.794 1849.82,443.173 1851.76,576.002 1853.69,576.002 1855.62,355.597 1857.56,502.527 1859.49,673.498 1861.42,813.477 1863.36,928.083 1865.29,1021.91 1867.22,1021.91 1869.16,848.821 1871.09,848.821 1873.02,590.13 1874.96,726.698 1876.89,857.034 1878.82,963.744 1880.76,1051.11 1882.69,1051.11 1884.62,1024.17 1886.55,1036.12 1888.49,1110.37 1890.42,1171.16 1892.35,1171.16 1894.29,1105.81 1896.22,1141.14 1898.15,1196.35 1900.09,1241.55 1902.02,1278.56 1903.95,1278.56 1905.89,1104.18 1907.82,1104.18 1909.75,865.522 1911.69,865.522 1913.62,730.732 1915.55,739.93 1917.49,867.867 1919.42,972.613 1921.35,1058.37 1923.28,1128.59 1925.22,1186.07 1927.15,1186.07 1929.08,1121.7 1931.02,1152.58 1932.95,1205.71 1934.88,1249.22 1936.82,1284.84 1938.75,1284.84 1940.68,1032.27 1942.62,1073.51 1944.55,1140.98 1946.48,1196.22 1948.42,1196.22 1950.35,936.154 1952.28,1016.36 1954.22,1094.19 1956.15,1157.91 1958.08,1210.08 1960.01,1252.8 1961.95,1287.77 1963.88,1316.4 1965.81,1339.84 1967.75,1359.03 1969.68,1374.74 1971.61,1387.61 1973.55,1387.61 1975.48,1215.2 1977.41,1236.55 1979.35,1236.55 1981.28,987.533 1983.21,987.533 1985.15,901.656 1987.08,901.656 1989.01,834.618 1990.95,870.897 1992.88,975.094 1994.81,1060.4 1996.74,1060.4 1998.68,825.183 2000.61,891.79 2002.54,992.199 2004.48,992.199 2006.41,952.273 2008.34,992.65 2010.28,992.65 2012.21,916.265 2014.14,916.265 2016.08,710.33 2018.01,745.377 2019.94,745.377 2021.88,710.692 2023.81,793.289 2025.74,911.554 2027.68,911.554 2029.61,772.941 2031.54,772.941 2033.47,571.306 2035.41,571.306 2037.34,313.115 2039.27,324.971 2041.21,324.971 2043.14,350.273 2045.07,446.941 2047.01,446.941 2048.94,328.225 2050.87,371.107 2052.81,565.9 2054.74,725.384 2056.67,725.384 2058.61,667.459 2060.54,667.459 2062.47,499.312 2064.41,625.402 2066.34,774.099 2068.27,774.099 2070.21,622.445 2072.14,622.445 2074.07,548.336 2076,548.336 2077.94,464.634 2079.87,482.961 2081.8,657.479 2083.74,657.479 2085.67,584.652 2087.6,632.084 2089.54,779.57 2091.47,900.322 2093.4,999.185 2095.34,999.185 2097.27,747.343 2099.2,853.663 2101.14,960.984 2103.07,1048.85 2105,1048.85 2106.94,900.073 2108.87,900.073 2110.8,666.317 2112.73,711.821 2114.67,844.853 2116.6,844.853 2118.53,641.412 2120.47,709.13 2122.4,842.65 2124.33,842.65 2126.27,651.448 2128.2,701.755 2130.13,836.612 2132.07,836.612 2134,762.155 2135.93,762.155 2137.87,543.982 2139.8,543.982 2141.73,520.201 2143.67,544.237 2145.6,544.237 2147.53,396.892 2149.46,396.892 2151.4,243.612 2153.33,302.69 2155.26,509.885 2157.2,679.522 2159.13,818.41 2161.06,932.121 2163,1025.22 2164.93,1101.44 2166.86,1163.85 2168.8,1163.85 2170.73,945.761 2172.66,950.162 2174.6,950.162 2176.53,725.015 2178.46,725.015 2180.4,667.313 2182.33,717.763 2184.26,849.719 2186.19,957.755 2188.13,957.755 2190.06,699.996 2191.99,823.214 2193.93,936.054 2195.86,936.054 2197.79,773.983 2199.73,877.903 2201.66,877.903 2203.59,767.365 2205.53,767.365 2207.46,503.609 2209.39,565.852 2211.33,565.852 2213.26,503.275 2215.19,650.18 2217.13,650.18 2219.06,387.283 2220.99,574.507 2222.92,732.43 2224.86,861.727 2226.79,861.727 2228.72,778.476 2230.66,893.953 2232.59,993.97 2234.52,993.97 2236.46,830.073 2238.39,830.073 2240.32,731.822 2242.26,752.357 2244.19,878.042 2246.12,980.944 2248.06,980.944 2249.99,886.129 2251.92,887.56 2253.86,988.736 2255.79,988.736 2257.72,734.174 2259.65,734.174 2261.59,725.35 2263.52,762.186 2265.45,886.089 2267.39,987.532 2269.32,987.532 2271.25,940.983 2273.19,990.231 2275.12,990.231 2277.05,843.101 2278.99,843.101 2280.92,760.462 2282.85,760.462 2284.79,532.181 2286.72,585.862 2288.65,585.862 2290.59,547.138 "/>
<path clip-path="url(#clip900)" d="M229.289 198.898 L501.388 198.898 L501.388 95.2176 L229.289 95.2176  Z" fill="#ffffff" fill-rule="evenodd" fill-opacity="1"/>
<polyline clip-path="url(#clip900)" style="stroke:#000000; stroke-linecap:round; stroke-linejoin:round; stroke-width:4; stroke-opacity:1; fill:none" points="229.289,198.898 501.388,198.898 501.388,95.2176 229.289,95.2176 229.289,198.898 "/>
<polyline clip-path="url(#clip900)" style="stroke:#009af9; stroke-linecap:round; stroke-linejoin:round; stroke-width:4; stroke-opacity:1; fill:none" points="253.696,147.058 400.143,147.058 "/>
<path clip-path="url(#clip900)" d="M438.393 166.745 Q436.587 171.375 434.874 172.787 Q433.161 174.199 430.291 174.199 L426.888 174.199 L426.888 170.634 L429.388 170.634 Q431.147 170.634 432.12 169.8 Q433.092 168.967 434.272 165.865 L435.036 163.921 L424.55 138.412 L429.064 138.412 L437.166 158.689 L445.268 138.412 L449.782 138.412 L438.393 166.745 Z" fill="#000000" fill-rule="nonzero" fill-opacity="1" /><path clip-path="url(#clip900)" d="M457.073 160.402 L464.712 160.402 L464.712 134.037 L456.402 135.703 L456.402 131.444 L464.666 129.778 L469.342 129.778 L469.342 160.402 L476.98 160.402 L476.98 164.338 L457.073 164.338 L457.073 160.402 Z" fill="#000000" fill-rule="nonzero" fill-opacity="1" /></svg>
