<?xml version="1.0" encoding="utf-8"?>
<svg xmlns="http://www.w3.org/2000/svg" xmlns:xlink="http://www.w3.org/1999/xlink" width="600" height="400" viewBox="0 0 2400 1600">
<defs>
  <clipPath id="clip920">
    <rect x="0" y="0" width="2400" height="1600"/>
  </clipPath>
</defs>
<path clip-path="url(#clip920)" d="M0 1600 L2400 1600 L2400 0 L0 0  Z" fill="#ffffff" fill-rule="evenodd" fill-opacity="1"/>
<defs>
  <clipPath id="clip921">
    <rect x="480" y="0" width="1681" height="1600"/>
  </clipPath>
</defs>
<path clip-path="url(#clip920)" d="M155.765 1423.18 L2352.76 1423.18 L2352.76 47.2441 L155.765 47.2441  Z" fill="#ffffff" fill-rule="evenodd" fill-opacity="1"/>
<defs>
  <clipPath id="clip922">
    <rect x="155" y="47" width="2198" height="1377"/>
  </clipPath>
</defs>
<polyline clip-path="url(#clip922)" style="stroke:#000000; stroke-linecap:round; stroke-linejoin:round; stroke-width:2; stroke-opacity:0.1; fill:none" points="155.765,1423.18 155.765,47.2441 "/>
<polyline clip-path="url(#clip922)" style="stroke:#000000; stroke-linecap:round; stroke-linejoin:round; stroke-width:2; stroke-opacity:0.1; fill:none" points="595.163,1423.18 595.163,47.2441 "/>
<polyline clip-path="url(#clip922)" style="stroke:#000000; stroke-linecap:round; stroke-linejoin:round; stroke-width:2; stroke-opacity:0.1; fill:none" points="1034.56,1423.18 1034.56,47.2441 "/>
<polyline clip-path="url(#clip922)" style="stroke:#000000; stroke-linecap:round; stroke-linejoin:round; stroke-width:2; stroke-opacity:0.1; fill:none" points="1473.96,1423.18 1473.96,47.2441 "/>
<polyline clip-path="url(#clip922)" style="stroke:#000000; stroke-linecap:round; stroke-linejoin:round; stroke-width:2; stroke-opacity:0.1; fill:none" points="1913.36,1423.18 1913.36,47.2441 "/>
<polyline clip-path="url(#clip922)" style="stroke:#000000; stroke-linecap:round; stroke-linejoin:round; stroke-width:2; stroke-opacity:0.1; fill:none" points="2352.76,1423.18 2352.76,47.2441 "/>
<polyline clip-path="url(#clip920)" style="stroke:#000000; stroke-linecap:round; stroke-linejoin:round; stroke-width:4; stroke-opacity:1; fill:none" points="155.765,1423.18 2352.76,1423.18 "/>
<polyline clip-path="url(#clip920)" style="stroke:#000000; stroke-linecap:round; stroke-linejoin:round; stroke-width:4; stroke-opacity:1; fill:none" points="155.765,1423.18 155.765,1404.28 "/>
<polyline clip-path="url(#clip920)" style="stroke:#000000; stroke-linecap:round; stroke-linejoin:round; stroke-width:4; stroke-opacity:1; fill:none" points="595.163,1423.18 595.163,1404.28 "/>
<polyline clip-path="url(#clip920)" style="stroke:#000000; stroke-linecap:round; stroke-linejoin:round; stroke-width:4; stroke-opacity:1; fill:none" points="1034.56,1423.18 1034.56,1404.28 "/>
<polyline clip-path="url(#clip920)" style="stroke:#000000; stroke-linecap:round; stroke-linejoin:round; stroke-width:4; stroke-opacity:1; fill:none" points="1473.96,1423.18 1473.96,1404.28 "/>
<polyline clip-path="url(#clip920)" style="stroke:#000000; stroke-linecap:round; stroke-linejoin:round; stroke-width:4; stroke-opacity:1; fill:none" points="1913.36,1423.18 1913.36,1404.28 "/>
<polyline clip-path="url(#clip920)" style="stroke:#000000; stroke-linecap:round; stroke-linejoin:round; stroke-width:4; stroke-opacity:1; fill:none" points="2352.76,1423.18 2352.76,1404.28 "/>
<path clip-path="url(#clip920)" d="M155.765 1454.1 Q152.154 1454.1 150.325 1457.66 Q148.52 1461.2 148.52 1468.33 Q148.52 1475.44 150.325 1479.01 Q152.154 1482.55 155.765 1482.55 Q159.399 1482.55 161.205 1479.01 Q163.033 1475.44 163.033 1468.33 Q163.033 1461.2 161.205 1457.66 Q159.399 1454.1 155.765 1454.1 M155.765 1450.39 Q161.575 1450.39 164.631 1455 Q167.709 1459.58 167.709 1468.33 Q167.709 1477.06 164.631 1481.67 Q161.575 1486.25 155.765 1486.25 Q149.955 1486.25 146.876 1481.67 Q143.821 1477.06 143.821 1468.33 Q143.821 1459.58 146.876 1455 Q149.955 1450.39 155.765 1450.39 Z" fill="#000000" fill-rule="nonzero" fill-opacity="1" /><path clip-path="url(#clip920)" d="M589.816 1481.64 L606.135 1481.64 L606.135 1485.58 L584.191 1485.58 L584.191 1481.64 Q586.853 1478.89 591.436 1474.26 Q596.043 1469.61 597.223 1468.27 Q599.469 1465.74 600.348 1464.01 Q601.251 1462.25 601.251 1460.56 Q601.251 1457.8 599.307 1456.07 Q597.385 1454.33 594.283 1454.33 Q592.084 1454.33 589.631 1455.09 Q587.2 1455.86 584.422 1457.41 L584.422 1452.69 Q587.246 1451.55 589.7 1450.97 Q592.154 1450.39 594.191 1450.39 Q599.561 1450.39 602.756 1453.08 Q605.95 1455.77 605.95 1460.26 Q605.95 1462.39 605.14 1464.31 Q604.353 1466.2 602.246 1468.8 Q601.668 1469.47 598.566 1472.69 Q595.464 1475.88 589.816 1481.64 Z" fill="#000000" fill-rule="nonzero" fill-opacity="1" /><path clip-path="url(#clip920)" d="M1037.57 1455.09 L1025.77 1473.54 L1037.57 1473.54 L1037.57 1455.09 M1036.34 1451.02 L1042.22 1451.02 L1042.22 1473.54 L1047.15 1473.54 L1047.15 1477.43 L1042.22 1477.43 L1042.22 1485.58 L1037.57 1485.58 L1037.57 1477.43 L1021.97 1477.43 L1021.97 1472.92 L1036.34 1451.02 Z" fill="#000000" fill-rule="nonzero" fill-opacity="1" /><path clip-path="url(#clip920)" d="M1474.36 1466.44 Q1471.22 1466.44 1469.36 1468.59 Q1467.54 1470.74 1467.54 1474.49 Q1467.54 1478.22 1469.36 1480.39 Q1471.22 1482.55 1474.36 1482.55 Q1477.51 1482.55 1479.34 1480.39 Q1481.19 1478.22 1481.19 1474.49 Q1481.19 1470.74 1479.34 1468.59 Q1477.51 1466.44 1474.36 1466.44 M1483.65 1451.78 L1483.65 1456.04 Q1481.89 1455.21 1480.08 1454.77 Q1478.3 1454.33 1476.54 1454.33 Q1471.91 1454.33 1469.46 1457.45 Q1467.03 1460.58 1466.68 1466.9 Q1468.05 1464.89 1470.11 1463.82 Q1472.17 1462.73 1474.64 1462.73 Q1479.85 1462.73 1482.86 1465.9 Q1485.89 1469.05 1485.89 1474.49 Q1485.89 1479.82 1482.74 1483.03 Q1479.6 1486.25 1474.36 1486.25 Q1468.37 1486.25 1465.2 1481.67 Q1462.03 1477.06 1462.03 1468.33 Q1462.03 1460.14 1465.92 1455.28 Q1469.8 1450.39 1476.36 1450.39 Q1478.11 1450.39 1479.9 1450.74 Q1481.7 1451.09 1483.65 1451.78 Z" fill="#000000" fill-rule="nonzero" fill-opacity="1" /><path clip-path="url(#clip920)" d="M1913.36 1469.17 Q1910.02 1469.17 1908.1 1470.95 Q1906.2 1472.73 1906.2 1475.86 Q1906.2 1478.98 1908.1 1480.77 Q1910.02 1482.55 1913.36 1482.55 Q1916.69 1482.55 1918.61 1480.77 Q1920.53 1478.96 1920.53 1475.86 Q1920.53 1472.73 1918.61 1470.95 Q1916.71 1469.17 1913.36 1469.17 M1908.68 1467.18 Q1905.67 1466.44 1903.98 1464.38 Q1902.32 1462.32 1902.32 1459.35 Q1902.32 1455.21 1905.26 1452.8 Q1908.22 1450.39 1913.36 1450.39 Q1918.52 1450.39 1921.46 1452.8 Q1924.4 1455.21 1924.4 1459.35 Q1924.4 1462.32 1922.71 1464.38 Q1921.04 1466.44 1918.06 1467.18 Q1921.44 1467.96 1923.31 1470.26 Q1925.21 1472.55 1925.21 1475.86 Q1925.21 1480.88 1922.13 1483.57 Q1919.08 1486.25 1913.36 1486.25 Q1907.64 1486.25 1904.56 1483.57 Q1901.51 1480.88 1901.51 1475.86 Q1901.51 1472.55 1903.4 1470.26 Q1905.3 1467.96 1908.68 1467.18 M1906.97 1459.79 Q1906.97 1462.48 1908.64 1463.98 Q1910.33 1465.49 1913.36 1465.49 Q1916.37 1465.49 1918.06 1463.98 Q1919.77 1462.48 1919.77 1459.79 Q1919.77 1457.11 1918.06 1455.6 Q1916.37 1454.1 1913.36 1454.1 Q1910.33 1454.1 1908.64 1455.6 Q1906.97 1457.11 1906.97 1459.79 Z" fill="#000000" fill-rule="nonzero" fill-opacity="1" /><path clip-path="url(#clip920)" d="M2327.44 1481.64 L2335.08 1481.64 L2335.08 1455.28 L2326.77 1456.95 L2326.77 1452.69 L2335.04 1451.02 L2339.71 1451.02 L2339.71 1481.64 L2347.35 1481.64 L2347.35 1485.58 L2327.44 1485.58 L2327.44 1481.64 Z" fill="#000000" fill-rule="nonzero" fill-opacity="1" /><path clip-path="url(#clip920)" d="M2366.8 1454.1 Q2363.18 1454.1 2361.36 1457.66 Q2359.55 1461.2 2359.55 1468.33 Q2359.55 1475.44 2361.36 1479.01 Q2363.18 1482.55 2366.8 1482.55 Q2370.43 1482.55 2372.23 1479.01 Q2374.06 1475.44 2374.06 1468.33 Q2374.06 1461.2 2372.23 1457.66 Q2370.43 1454.1 2366.8 1454.1 M2366.8 1450.39 Q2372.61 1450.39 2375.66 1455 Q2378.74 1459.58 2378.74 1468.33 Q2378.74 1477.06 2375.66 1481.67 Q2372.61 1486.25 2366.8 1486.25 Q2360.99 1486.25 2357.91 1481.67 Q2354.85 1477.06 2354.85 1468.33 Q2354.85 1459.58 2357.91 1455 Q2360.99 1450.39 2366.8 1450.39 Z" fill="#000000" fill-rule="nonzero" fill-opacity="1" /><path clip-path="url(#clip920)" d="M1253.32 1522.27 L1253.32 1532.4 L1265.38 1532.4 L1265.38 1536.95 L1253.32 1536.95 L1253.32 1556.3 Q1253.32 1560.66 1254.5 1561.9 Q1255.71 1563.14 1259.37 1563.14 L1265.38 1563.14 L1265.38 1568.04 L1259.37 1568.04 Q1252.59 1568.04 1250.01 1565.53 Q1247.43 1562.98 1247.43 1556.3 L1247.43 1536.95 L1243.14 1536.95 L1243.14 1532.4 L1247.43 1532.4 L1247.43 1522.27 L1253.32 1522.27 Z" fill="#000000" fill-rule="nonzero" fill-opacity="1" /><polyline clip-path="url(#clip922)" style="stroke:#000000; stroke-linecap:round; stroke-linejoin:round; stroke-width:2; stroke-opacity:0.1; fill:none" points="155.765,1266.99 2352.76,1266.99 "/>
<polyline clip-path="url(#clip922)" style="stroke:#000000; stroke-linecap:round; stroke-linejoin:round; stroke-width:2; stroke-opacity:0.1; fill:none" points="155.765,1071.58 2352.76,1071.58 "/>
<polyline clip-path="url(#clip922)" style="stroke:#000000; stroke-linecap:round; stroke-linejoin:round; stroke-width:2; stroke-opacity:0.1; fill:none" points="155.765,876.163 2352.76,876.163 "/>
<polyline clip-path="url(#clip922)" style="stroke:#000000; stroke-linecap:round; stroke-linejoin:round; stroke-width:2; stroke-opacity:0.1; fill:none" points="155.765,680.75 2352.76,680.75 "/>
<polyline clip-path="url(#clip922)" style="stroke:#000000; stroke-linecap:round; stroke-linejoin:round; stroke-width:2; stroke-opacity:0.1; fill:none" points="155.765,485.336 2352.76,485.336 "/>
<polyline clip-path="url(#clip922)" style="stroke:#000000; stroke-linecap:round; stroke-linejoin:round; stroke-width:2; stroke-opacity:0.1; fill:none" points="155.765,289.923 2352.76,289.923 "/>
<polyline clip-path="url(#clip922)" style="stroke:#000000; stroke-linecap:round; stroke-linejoin:round; stroke-width:2; stroke-opacity:0.1; fill:none" points="155.765,94.5094 2352.76,94.5094 "/>
<polyline clip-path="url(#clip920)" style="stroke:#000000; stroke-linecap:round; stroke-linejoin:round; stroke-width:4; stroke-opacity:1; fill:none" points="155.765,1423.18 155.765,47.2441 "/>
<polyline clip-path="url(#clip920)" style="stroke:#000000; stroke-linecap:round; stroke-linejoin:round; stroke-width:4; stroke-opacity:1; fill:none" points="155.765,1266.99 174.663,1266.99 "/>
<polyline clip-path="url(#clip920)" style="stroke:#000000; stroke-linecap:round; stroke-linejoin:round; stroke-width:4; stroke-opacity:1; fill:none" points="155.765,1071.58 174.663,1071.58 "/>
<polyline clip-path="url(#clip920)" style="stroke:#000000; stroke-linecap:round; stroke-linejoin:round; stroke-width:4; stroke-opacity:1; fill:none" points="155.765,876.163 174.663,876.163 "/>
<polyline clip-path="url(#clip920)" style="stroke:#000000; stroke-linecap:round; stroke-linejoin:round; stroke-width:4; stroke-opacity:1; fill:none" points="155.765,680.75 174.663,680.75 "/>
<polyline clip-path="url(#clip920)" style="stroke:#000000; stroke-linecap:round; stroke-linejoin:round; stroke-width:4; stroke-opacity:1; fill:none" points="155.765,485.336 174.663,485.336 "/>
<polyline clip-path="url(#clip920)" style="stroke:#000000; stroke-linecap:round; stroke-linejoin:round; stroke-width:4; stroke-opacity:1; fill:none" points="155.765,289.923 174.663,289.923 "/>
<polyline clip-path="url(#clip920)" style="stroke:#000000; stroke-linecap:round; stroke-linejoin:round; stroke-width:4; stroke-opacity:1; fill:none" points="155.765,94.5094 174.663,94.5094 "/>
<path clip-path="url(#clip920)" d="M63.5847 1252.79 Q59.9736 1252.79 58.1449 1256.35 Q56.3393 1259.9 56.3393 1267.02 Q56.3393 1274.13 58.1449 1277.7 Q59.9736 1281.24 63.5847 1281.24 Q67.2189 1281.24 69.0244 1277.7 Q70.8531 1274.13 70.8531 1267.02 Q70.8531 1259.9 69.0244 1256.35 Q67.2189 1252.79 63.5847 1252.79 M63.5847 1249.09 Q69.3948 1249.09 72.4503 1253.69 Q75.529 1258.27 75.529 1267.02 Q75.529 1275.75 72.4503 1280.36 Q69.3948 1284.94 63.5847 1284.94 Q57.7745 1284.94 54.6958 1280.36 Q51.6403 1275.75 51.6403 1267.02 Q51.6403 1258.27 54.6958 1253.69 Q57.7745 1249.09 63.5847 1249.09 Z" fill="#000000" fill-rule="nonzero" fill-opacity="1" /><path clip-path="url(#clip920)" d="M83.7466 1278.39 L88.6308 1278.39 L88.6308 1284.27 L83.7466 1284.27 L83.7466 1278.39 Z" fill="#000000" fill-rule="nonzero" fill-opacity="1" /><path clip-path="url(#clip920)" d="M98.8622 1249.71 L117.219 1249.71 L117.219 1253.65 L103.145 1253.65 L103.145 1262.12 Q104.163 1261.77 105.182 1261.61 Q106.2 1261.42 107.219 1261.42 Q113.006 1261.42 116.385 1264.59 Q119.765 1267.77 119.765 1273.18 Q119.765 1278.76 116.293 1281.86 Q112.82 1284.94 106.501 1284.94 Q104.325 1284.94 102.057 1284.57 Q99.8113 1284.2 97.4039 1283.46 L97.4039 1278.76 Q99.4872 1279.9 101.709 1280.45 Q103.932 1281.01 106.408 1281.01 Q110.413 1281.01 112.751 1278.9 Q115.089 1276.79 115.089 1273.18 Q115.089 1269.57 112.751 1267.46 Q110.413 1265.36 106.408 1265.36 Q104.534 1265.36 102.659 1265.77 Q100.807 1266.19 98.8622 1267.07 L98.8622 1249.71 Z" fill="#000000" fill-rule="nonzero" fill-opacity="1" /><path clip-path="url(#clip920)" d="M53.3995 1084.92 L61.0384 1084.92 L61.0384 1058.56 L52.7282 1060.22 L52.7282 1055.96 L60.9921 1054.3 L65.668 1054.3 L65.668 1084.92 L73.3068 1084.92 L73.3068 1088.86 L53.3995 1088.86 L53.3995 1084.92 Z" fill="#000000" fill-rule="nonzero" fill-opacity="1" /><path clip-path="url(#clip920)" d="M82.7512 1082.98 L87.6354 1082.98 L87.6354 1088.86 L82.7512 1088.86 L82.7512 1082.98 Z" fill="#000000" fill-rule="nonzero" fill-opacity="1" /><path clip-path="url(#clip920)" d="M107.821 1057.38 Q104.209 1057.38 102.381 1060.94 Q100.575 1064.48 100.575 1071.61 Q100.575 1078.72 102.381 1082.28 Q104.209 1085.82 107.821 1085.82 Q111.455 1085.82 113.26 1082.28 Q115.089 1078.72 115.089 1071.61 Q115.089 1064.48 113.26 1060.94 Q111.455 1057.38 107.821 1057.38 M107.821 1053.67 Q113.631 1053.67 116.686 1058.28 Q119.765 1062.86 119.765 1071.61 Q119.765 1080.34 116.686 1084.94 Q113.631 1089.53 107.821 1089.53 Q102.01 1089.53 98.9317 1084.94 Q95.8761 1080.34 95.8761 1071.61 Q95.8761 1062.86 98.9317 1058.28 Q102.01 1053.67 107.821 1053.67 Z" fill="#000000" fill-rule="nonzero" fill-opacity="1" /><path clip-path="url(#clip920)" d="M54.3949 889.508 L62.0337 889.508 L62.0337 863.142 L53.7236 864.809 L53.7236 860.55 L61.9874 858.883 L66.6633 858.883 L66.6633 889.508 L74.3022 889.508 L74.3022 893.443 L54.3949 893.443 L54.3949 889.508 Z" fill="#000000" fill-rule="nonzero" fill-opacity="1" /><path clip-path="url(#clip920)" d="M83.7466 887.564 L88.6308 887.564 L88.6308 893.443 L83.7466 893.443 L83.7466 887.564 Z" fill="#000000" fill-rule="nonzero" fill-opacity="1" /><path clip-path="url(#clip920)" d="M98.8622 858.883 L117.219 858.883 L117.219 862.818 L103.145 862.818 L103.145 871.291 Q104.163 870.943 105.182 870.781 Q106.2 870.596 107.219 870.596 Q113.006 870.596 116.385 873.767 Q119.765 876.939 119.765 882.355 Q119.765 887.934 116.293 891.036 Q112.82 894.115 106.501 894.115 Q104.325 894.115 102.057 893.744 Q99.8113 893.374 97.4039 892.633 L97.4039 887.934 Q99.4872 889.068 101.709 889.624 Q103.932 890.179 106.408 890.179 Q110.413 890.179 112.751 888.073 Q115.089 885.966 115.089 882.355 Q115.089 878.744 112.751 876.638 Q110.413 874.531 106.408 874.531 Q104.534 874.531 102.659 874.948 Q100.807 875.365 98.8622 876.244 L98.8622 858.883 Z" fill="#000000" fill-rule="nonzero" fill-opacity="1" /><path clip-path="url(#clip920)" d="M56.6171 694.095 L72.9365 694.095 L72.9365 698.03 L50.9921 698.03 L50.9921 694.095 Q53.6541 691.34 58.2375 686.71 Q62.8439 682.058 64.0245 680.715 Q66.2698 678.192 67.1494 676.456 Q68.0522 674.697 68.0522 673.007 Q68.0522 670.252 66.1078 668.516 Q64.1865 666.78 61.0847 666.78 Q58.8856 666.78 56.4319 667.544 Q54.0014 668.308 51.2236 669.859 L51.2236 665.136 Q54.0477 664.002 56.5014 663.423 Q58.955 662.845 60.9921 662.845 Q66.3624 662.845 69.5568 665.53 Q72.7513 668.215 72.7513 672.706 Q72.7513 674.835 71.9411 676.757 Q71.1541 678.655 69.0476 681.247 Q68.4689 681.919 65.367 685.136 Q62.2652 688.331 56.6171 694.095 Z" fill="#000000" fill-rule="nonzero" fill-opacity="1" /><path clip-path="url(#clip920)" d="M82.7512 692.15 L87.6354 692.15 L87.6354 698.03 L82.7512 698.03 L82.7512 692.15 Z" fill="#000000" fill-rule="nonzero" fill-opacity="1" /><path clip-path="url(#clip920)" d="M107.821 666.548 Q104.209 666.548 102.381 670.113 Q100.575 673.655 100.575 680.785 Q100.575 687.891 102.381 691.456 Q104.209 694.997 107.821 694.997 Q111.455 694.997 113.26 691.456 Q115.089 687.891 115.089 680.785 Q115.089 673.655 113.26 670.113 Q111.455 666.548 107.821 666.548 M107.821 662.845 Q113.631 662.845 116.686 667.451 Q119.765 672.035 119.765 680.785 Q119.765 689.511 116.686 694.118 Q113.631 698.701 107.821 698.701 Q102.01 698.701 98.9317 694.118 Q95.8761 689.511 95.8761 680.785 Q95.8761 672.035 98.9317 667.451 Q102.01 662.845 107.821 662.845 Z" fill="#000000" fill-rule="nonzero" fill-opacity="1" /><path clip-path="url(#clip920)" d="M57.6125 498.681 L73.9318 498.681 L73.9318 502.616 L51.9875 502.616 L51.9875 498.681 Q54.6495 495.927 59.2328 491.297 Q63.8393 486.644 65.0198 485.302 Q67.2652 482.778 68.1448 481.042 Q69.0476 479.283 69.0476 477.593 Q69.0476 474.839 67.1032 473.103 Q65.1819 471.366 62.08 471.366 Q59.881 471.366 57.4273 472.13 Q54.9967 472.894 52.219 474.445 L52.219 469.723 Q55.043 468.589 57.4967 468.01 Q59.9504 467.431 61.9874 467.431 Q67.3578 467.431 70.5522 470.116 Q73.7466 472.802 73.7466 477.292 Q73.7466 479.422 72.9365 481.343 Q72.1494 483.241 70.0429 485.834 Q69.4642 486.505 66.3624 489.723 Q63.2606 492.917 57.6125 498.681 Z" fill="#000000" fill-rule="nonzero" fill-opacity="1" /><path clip-path="url(#clip920)" d="M83.7466 496.737 L88.6308 496.737 L88.6308 502.616 L83.7466 502.616 L83.7466 496.737 Z" fill="#000000" fill-rule="nonzero" fill-opacity="1" /><path clip-path="url(#clip920)" d="M98.8622 468.056 L117.219 468.056 L117.219 471.991 L103.145 471.991 L103.145 480.464 Q104.163 480.116 105.182 479.954 Q106.2 479.769 107.219 479.769 Q113.006 479.769 116.385 482.941 Q119.765 486.112 119.765 491.528 Q119.765 497.107 116.293 500.209 Q112.82 503.288 106.501 503.288 Q104.325 503.288 102.057 502.917 Q99.8113 502.547 97.4039 501.806 L97.4039 497.107 Q99.4872 498.241 101.709 498.797 Q103.932 499.352 106.408 499.352 Q110.413 499.352 112.751 497.246 Q115.089 495.14 115.089 491.528 Q115.089 487.917 112.751 485.811 Q110.413 483.704 106.408 483.704 Q104.534 483.704 102.659 484.121 Q100.807 484.538 98.8622 485.417 L98.8622 468.056 Z" fill="#000000" fill-rule="nonzero" fill-opacity="1" /><path clip-path="url(#clip920)" d="M66.7559 288.569 Q70.1124 289.286 71.9874 291.555 Q73.8855 293.823 73.8855 297.157 Q73.8855 302.272 70.367 305.073 Q66.8485 307.874 60.3671 307.874 Q58.1912 307.874 55.8764 307.434 Q53.5847 307.018 51.131 306.161 L51.131 301.647 Q53.0754 302.782 55.3903 303.36 Q57.7051 303.939 60.2282 303.939 Q64.6263 303.939 66.918 302.203 Q69.2328 300.467 69.2328 297.157 Q69.2328 294.101 67.08 292.388 Q64.9504 290.652 61.131 290.652 L57.1032 290.652 L57.1032 286.809 L61.3161 286.809 Q64.7652 286.809 66.5939 285.444 Q68.4226 284.055 68.4226 281.462 Q68.4226 278.8 66.5245 277.388 Q64.6495 275.953 61.131 275.953 Q59.2097 275.953 57.0106 276.37 Q54.8115 276.786 52.1727 277.666 L52.1727 273.499 Q54.8347 272.759 57.1495 272.388 Q59.4875 272.018 61.5476 272.018 Q66.8717 272.018 69.9735 274.448 Q73.0753 276.856 73.0753 280.976 Q73.0753 283.847 71.4318 285.837 Q69.7883 287.805 66.7559 288.569 Z" fill="#000000" fill-rule="nonzero" fill-opacity="1" /><path clip-path="url(#clip920)" d="M82.7512 301.323 L87.6354 301.323 L87.6354 307.203 L82.7512 307.203 L82.7512 301.323 Z" fill="#000000" fill-rule="nonzero" fill-opacity="1" /><path clip-path="url(#clip920)" d="M107.821 275.722 Q104.209 275.722 102.381 279.286 Q100.575 282.828 100.575 289.958 Q100.575 297.064 102.381 300.629 Q104.209 304.17 107.821 304.17 Q111.455 304.17 113.26 300.629 Q115.089 297.064 115.089 289.958 Q115.089 282.828 113.26 279.286 Q111.455 275.722 107.821 275.722 M107.821 272.018 Q113.631 272.018 116.686 276.624 Q119.765 281.208 119.765 289.958 Q119.765 298.684 116.686 303.291 Q113.631 307.874 107.821 307.874 Q102.01 307.874 98.9317 303.291 Q95.8761 298.684 95.8761 289.958 Q95.8761 281.208 98.9317 276.624 Q102.01 272.018 107.821 272.018 Z" fill="#000000" fill-rule="nonzero" fill-opacity="1" /><path clip-path="url(#clip920)" d="M67.7513 93.1552 Q71.1078 93.8728 72.9827 96.1413 Q74.8809 98.4098 74.8809 101.743 Q74.8809 106.859 71.3624 109.66 Q67.8439 112.461 61.3624 112.461 Q59.1865 112.461 56.8717 112.021 Q54.5801 111.604 52.1264 110.748 L52.1264 106.234 Q54.0708 107.368 56.3856 107.947 Q58.7004 108.526 61.2236 108.526 Q65.6217 108.526 67.9133 106.789 Q70.2281 105.053 70.2281 101.743 Q70.2281 98.6876 68.0754 96.9747 Q65.9457 95.2386 62.1263 95.2386 L58.0986 95.2386 L58.0986 91.396 L62.3115 91.396 Q65.7606 91.396 67.5893 90.0302 Q69.418 88.6414 69.418 86.0488 Q69.418 83.3868 67.5198 81.9747 Q65.6448 80.5396 62.1263 80.5396 Q60.205 80.5396 58.006 80.9562 Q55.8069 81.3729 53.168 82.2525 L53.168 78.0859 Q55.8301 77.3451 58.1449 76.9748 Q60.4828 76.6044 62.543 76.6044 Q67.867 76.6044 70.9689 79.0349 Q74.0707 81.4423 74.0707 85.5627 Q74.0707 88.433 72.4272 90.4238 Q70.7837 92.3913 67.7513 93.1552 Z" fill="#000000" fill-rule="nonzero" fill-opacity="1" /><path clip-path="url(#clip920)" d="M83.7466 105.91 L88.6308 105.91 L88.6308 111.789 L83.7466 111.789 L83.7466 105.91 Z" fill="#000000" fill-rule="nonzero" fill-opacity="1" /><path clip-path="url(#clip920)" d="M98.8622 77.2294 L117.219 77.2294 L117.219 81.1646 L103.145 81.1646 L103.145 89.6367 Q104.163 89.2895 105.182 89.1275 Q106.2 88.9423 107.219 88.9423 Q113.006 88.9423 116.385 92.1136 Q119.765 95.2848 119.765 100.701 Q119.765 106.28 116.293 109.382 Q112.82 112.461 106.501 112.461 Q104.325 112.461 102.057 112.09 Q99.8113 111.72 97.4039 110.979 L97.4039 106.28 Q99.4872 107.414 101.709 107.97 Q103.932 108.526 106.408 108.526 Q110.413 108.526 112.751 106.419 Q115.089 104.313 115.089 100.701 Q115.089 97.0904 112.751 94.9839 Q110.413 92.8775 106.408 92.8775 Q104.534 92.8775 102.659 93.2941 Q100.807 93.7108 98.8622 94.5904 L98.8622 77.2294 Z" fill="#000000" fill-rule="nonzero" fill-opacity="1" /><polyline clip-path="url(#clip922)" style="stroke:#009af9; stroke-linecap:round; stroke-linejoin:round; stroke-width:8; stroke-opacity:1; fill:none" points="155.765,1384.24 157.964,1383.45 160.163,1382.66 162.362,1381.86 164.562,1381.05 166.761,1380.23 168.96,1379.4 171.159,1378.56 173.358,1377.72 175.558,1376.87 177.757,1376.01 179.956,1375.14 182.155,1374.26 184.354,1373.38 186.554,1372.48 188.753,1371.57 190.952,1370.66 193.151,1369.74 195.35,1368.81 197.55,1367.86 199.749,1366.91 201.948,1365.95 204.147,1364.98 206.346,1364 208.545,1363.01 210.745,1362.01 212.944,1361 215.143,1359.98 217.342,1358.95 219.541,1357.91 221.741,1356.86 223.94,1355.8 226.139,1354.73 228.338,1353.64 230.537,1352.55 232.737,1351.44 234.936,1350.33 237.135,1349.2 239.334,1348.06 241.533,1346.91 243.733,1345.75 245.932,1344.57 248.131,1343.39 250.33,1342.19 252.529,1340.98 254.728,1339.76 256.928,1338.53 259.127,1337.28 261.326,1336.02 263.525,1334.75 265.724,1333.47 267.924,1332.17 270.123,1330.86 272.322,1329.54 274.521,1328.2 276.72,1326.85 278.92,1325.48 281.119,1324.11 283.318,1322.72 285.517,1321.31 287.716,1319.89 289.916,1318.46 292.115,1317.01 294.314,1315.55 296.513,1314.07 298.712,1312.58 300.911,1311.07 303.111,1309.55 305.31,1308.01 307.509,1306.46 309.708,1304.89 311.907,1303.3 314.107,1301.7 316.306,1300.09 318.505,1298.45 320.704,1296.8 322.903,1295.14 325.103,1293.45 327.302,1291.75 329.501,1290.04 331.7,1288.3 333.899,1286.55 336.099,1284.78 338.298,1283 340.497,1281.19 342.696,1279.37 344.895,1277.53 347.094,1275.67 349.294,1273.79 351.493,1271.89 353.692,1269.97 355.891,1268.04 358.09,1266.08 360.29,1264.11 362.489,1262.11 364.688,1260.1 366.887,1258.06 369.086,1256.01 371.286,1253.93 373.485,1251.83 375.684,1249.72 377.883,1247.58 380.082,1245.41 382.281,1243.23 384.481,1241.03 386.68,1238.8 388.879,1236.55 391.078,1234.28 393.277,1231.98 395.477,1229.66 397.676,1227.32 399.875,1224.96 402.074,1222.57 404.273,1220.16 406.473,1217.72 408.672,1215.26 410.871,1212.77 413.07,1210.26 415.269,1207.72 417.469,1205.16 419.668,1202.57 421.867,1199.96 424.066,1197.32 426.265,1194.65 428.464,1191.96 430.664,1189.24 432.863,1186.49 435.062,1183.71 437.261,1180.91 439.46,1178.08 441.66,1175.22 443.859,1172.33 446.058,1169.41 448.257,1166.46 450.456,1163.49 452.656,1160.48 454.855,1157.44 457.054,1154.37 459.253,1151.28 461.452,1148.15 463.652,1144.98 465.851,1141.79 468.05,1138.57 470.249,1135.31 472.448,1132.02 474.647,1128.69 476.847,1125.34 479.046,1121.94 481.245,1118.52 483.444,1115.06 485.643,1111.57 487.843,1108.04 490.042,1104.47 492.241,1100.87 494.44,1097.23 496.639,1093.56 498.839,1089.85 501.038,1086.1 503.237,1082.31 505.436,1078.49 507.635,1074.63 509.835,1070.73 512.034,1066.79 514.233,1062.81 516.432,1058.79 518.631,1054.73 520.83,1050.62 523.03,1046.48 525.229,1042.3 527.428,1038.07 529.627,1248.1 531.826,1245.95 534.026,1243.77 536.225,1241.57 538.424,1239.35 540.623,1237.1 542.822,1234.84 545.022,1232.55 547.221,1230.24 549.42,1227.9 551.619,1225.54 553.818,1223.16 556.018,1220.75 558.217,1218.32 560.416,1215.86 562.615,1213.38 564.814,1210.88 567.013,1208.35 569.213,1205.79 571.412,1203.21 573.611,1200.6 575.81,1197.97 578.009,1195.31 580.209,1192.62 582.408,1189.91 584.607,1187.17 586.806,1184.4 589.005,1181.6 591.205,1178.78 593.404,1175.92 595.603,1173.04 597.802,1170.13 600.001,1167.19 602.201,1164.22 604.4,1161.22 606.599,1158.19 608.798,1155.13 610.997,1152.04 613.196,1148.92 615.396,1145.76 617.595,1142.58 619.794,1139.36 621.993,1136.11 624.192,1132.83 626.392,1129.51 628.591,1126.16 630.79,1122.78 632.989,1119.36 635.188,1115.91 637.388,1112.43 639.587,1108.9 641.786,1105.35 643.985,1101.76 646.184,1098.13 648.384,1094.46 650.583,1090.76 652.782,1087.02 654.981,1083.25 657.18,1079.43 659.379,1075.58 661.579,1071.69 663.778,1067.76 665.977,1063.79 668.176,1059.78 670.375,1055.73 672.575,1051.63 674.774,1047.5 676.973,1043.33 679.172,1039.11 681.371,1034.85 683.571,1030.55 685.77,1026.21 687.969,1021.82 690.168,1017.39 692.367,1012.91 694.567,1008.39 696.766,1003.82 698.965,999.207 701.164,994.547 703.363,989.841 705.562,985.087 707.762,1221.34 709.961,1218.92 712.16,1216.47 714.359,1214 716.558,1211.5 718.758,1208.97 720.957,1206.42 723.156,1203.85 725.355,1201.25 727.554,1198.62 729.754,1195.96 731.953,1193.28 734.152,1190.58 736.351,1187.84 738.55,1185.08 740.749,1182.29 742.949,1179.47 745.148,1176.63 747.347,1173.75 749.546,1170.85 751.745,1167.91 753.945,1164.95 756.144,1161.96 758.343,1158.94 760.542,1155.88 762.741,1152.8 764.941,1149.69 767.14,1146.54 769.339,1143.36 771.538,1140.15 773.737,1136.91 775.937,1133.64 778.136,1130.33 780.335,1126.99 782.534,1123.61 784.733,1120.2 786.932,1116.76 789.132,1113.28 791.331,1109.77 793.53,1106.22 795.729,1102.64 797.928,1099.02 800.128,1095.37 802.327,1091.67 804.526,1087.94 806.725,1273.29 808.924,1271.39 811.124,1269.47 813.323,1267.53 815.522,1265.56 817.721,1263.58 819.92,1261.58 822.12,1259.56 824.319,1257.52 826.518,1255.46 828.717,1253.38 830.916,1251.28 833.115,1249.15 835.315,1247.01 837.514,1244.84 839.713,1242.65 841.912,1240.44 844.111,1238.21 846.311,1235.95 848.51,1233.68 850.709,1231.37 852.908,1229.05 855.107,1226.7 857.307,1224.33 859.506,1221.94 861.705,1219.52 863.904,1217.07 866.103,1214.61 868.303,1212.11 870.502,1209.59 872.701,1207.05 874.9,1204.48 877.099,1201.89 879.298,1199.27 881.498,1196.62 883.697,1193.95 885.896,1191.24 888.095,1188.52 890.294,1185.76 892.494,1182.98 894.693,1180.17 896.892,1177.33 899.091,1174.46 901.29,1171.56 903.49,1168.64 905.689,1165.68 907.888,1162.7 910.087,1159.68 912.286,1156.64 914.486,1153.56 916.685,1150.45 918.884,1147.31 921.083,1144.14 923.282,1140.94 925.481,1137.71 927.681,1134.44 929.88,1131.14 932.079,1127.81 934.278,1124.44 936.477,1121.04 938.677,1117.61 940.876,1114.14 943.075,1110.64 945.274,1107.1 947.473,1103.52 949.673,1099.91 951.872,1096.27 954.071,1092.58 956.27,1088.86 958.469,1085.11 960.669,1081.31 962.868,1077.48 965.067,1073.61 967.266,1069.69 969.465,1065.74 971.664,1061.75 973.864,1057.72 976.063,1053.65 978.262,1049.54 980.461,1045.39 982.66,1041.19 984.86,1036.96 987.059,1032.68 989.258,1028.35 991.457,1023.99 993.656,1019.58 995.856,1015.12 998.055,1010.62 1000.25,1006.08 1002.45,1001.48 1004.65,996.848 1006.85,992.164 1009.05,987.433 1011.25,982.655 1013.45,977.828 1015.65,972.953 1017.85,968.028 1020.05,963.054 1022.25,958.03 1024.45,952.956 1026.64,947.83 1028.84,942.653 1031.04,937.424 1033.24,932.142 1035.44,926.807 1037.64,921.418 1039.84,915.975 1042.04,910.478 1044.24,904.925 1046.44,899.317 1048.64,893.652 1050.84,887.93 1053.03,882.151 1055.23,876.313 1057.43,870.417 1059.63,864.461 1061.83,858.446 1064.03,852.37 1066.23,846.233 1068.43,840.034 1070.63,833.772 1072.83,827.448 1075.03,821.06 1077.23,814.608 1079.42,808.092 1081.62,801.509 1083.82,794.86 1086.02,788.145 1088.22,781.362 1090.42,774.51 1092.62,767.59 1094.82,760.6 1097.02,753.54 1099.22,746.408 1101.42,739.205 1103.62,731.93 1105.82,724.581 1108.01,717.158 1110.21,709.661 1112.41,702.088 1114.61,694.439 1116.81,686.713 1119.01,678.909 1121.21,671.027 1123.41,663.065 1125.61,655.024 1127.81,646.901 1130.01,638.697 1132.21,630.41 1134.4,1042.23 1136.6,1038 1138.8,1033.73 1141,1029.42 1143.2,1025.06 1145.4,1020.66 1147.6,1016.22 1149.8,1011.73 1152,1007.2 1154.2,1002.62 1156.4,997.991 1158.6,993.319 1160.79,988.6 1162.99,983.833 1165.19,979.019 1167.39,974.156 1169.59,969.244 1171.79,964.283 1173.99,959.272 1176.19,954.211 1178.39,949.098 1180.59,943.935 1182.79,938.719 1184.99,933.451 1187.19,928.13 1189.38,922.755 1191.58,917.327 1193.78,911.844 1195.98,906.305 1198.18,900.711 1200.38,895.061 1202.58,889.353 1204.78,883.588 1206.98,877.766 1209.18,871.884 1211.38,865.944 1213.58,859.943 1215.77,853.882 1217.97,847.761 1220.17,841.577 1222.37,835.331 1224.57,829.023 1226.77,822.651 1228.97,816.214 1231.17,809.713 1233.37,803.147 1235.57,796.514 1237.77,789.814 1239.97,783.048 1242.16,776.213 1244.36,769.309 1246.56,762.336 1248.76,755.292 1250.96,748.178 1253.16,740.993 1255.36,733.735 1257.56,726.404 1259.76,718.999 1261.96,711.52 1264.16,1083.19 1266.36,1079.37 1268.56,1075.52 1270.75,1071.63 1272.95,1067.69 1275.15,1063.72 1277.35,1059.71 1279.55,1055.66 1281.75,1051.57 1283.95,1047.44 1286.15,1043.26 1288.35,1039.04 1290.55,1034.79 1292.75,1030.48 1294.95,1026.14 1297.14,1021.75 1299.34,1017.32 1301.54,1012.84 1303.74,1008.32 1305.94,1003.75 1308.14,999.134 1310.34,994.473 1312.54,989.766 1314.74,985.011 1316.94,980.208 1319.14,975.357 1321.34,970.457 1323.53,965.508 1325.73,960.509 1327.93,955.46 1330.13,1206.38 1332.33,1203.81 1334.53,1201.21 1336.73,1198.58 1338.93,1195.92 1341.13,1193.24 1343.33,1190.54 1345.53,1187.8 1347.73,1185.04 1349.93,1182.25 1352.12,1179.43 1354.32,1176.58 1356.52,1173.71 1358.72,1170.8 1360.92,1167.87 1363.12,1164.91 1365.32,1161.91 1367.52,1158.89 1369.72,1155.84 1371.92,1152.75 1374.12,1149.64 1376.32,1146.49 1378.51,1143.31 1380.71,1140.1 1382.91,1136.86 1385.11,1133.59 1387.31,1130.28 1389.51,1126.94 1391.71,1123.56 1393.91,1120.16 1396.11,1116.71 1398.31,1113.24 1400.51,1109.72 1402.71,1106.18 1404.9,1102.59 1407.1,1098.97 1409.3,1095.32 1411.5,1091.62 1413.7,1087.89 1415.9,1084.13 1418.1,1080.32 1420.3,1076.48 1422.5,1072.59 1424.7,1068.67 1426.9,1064.71 1429.1,1060.71 1431.3,1056.67 1433.49,1052.59 1435.69,1048.46 1437.89,1044.3 1440.09,1040.09 1442.29,1035.84 1444.49,1031.55 1446.69,1027.22 1448.89,1022.84 1451.09,1018.42 1453.29,1013.95 1455.49,1009.44 1457.69,1004.88 1459.88,1000.28 1462.08,995.627 1464.28,1226.67 1466.48,1224.3 1468.68,1221.9 1470.88,1219.48 1473.08,1217.04 1475.28,1214.57 1477.48,1212.08 1479.68,1209.56 1481.88,1207.01 1484.08,1204.44 1486.27,1201.85 1488.47,1199.23 1490.67,1196.58 1492.87,1193.91 1495.07,1191.2 1497.27,1188.48 1499.47,1185.72 1501.67,1182.94 1503.87,1180.13 1506.07,1177.29 1508.27,1174.42 1510.47,1171.52 1512.67,1168.59 1514.86,1165.64 1517.06,1162.65 1519.26,1159.64 1521.46,1156.59 1523.66,1153.51 1525.86,1150.41 1528.06,1147.27 1530.26,1144.1 1532.46,1140.9 1534.66,1137.66 1536.86,1134.39 1539.06,1131.09 1541.25,1127.76 1543.45,1124.39 1545.65,1291.7 1547.85,1289.98 1550.05,1288.25 1552.25,1286.49 1554.45,1284.72 1556.65,1282.94 1558.85,1281.13 1561.05,1279.31 1563.25,1277.47 1565.45,1275.61 1567.65,1273.73 1569.84,1271.83 1572.04,1269.91 1574.24,1267.97 1576.44,1266.02 1578.64,1264.04 1580.84,1262.05 1583.04,1260.03 1585.24,1258 1587.44,1255.94 1589.64,1253.86 1591.84,1251.76 1594.04,1249.65 1596.23,1247.51 1598.43,1245.34 1600.63,1243.16 1602.83,1240.95 1605.03,1238.73 1607.23,1236.48 1609.43,1234.2 1611.63,1231.91 1613.83,1229.59 1616.03,1227.25 1618.23,1224.88 1620.43,1222.49 1622.62,1220.08 1624.82,1217.64 1627.02,1215.18 1629.22,1212.69 1631.42,1210.18 1633.62,1207.64 1635.82,1205.08 1638.02,1202.49 1640.22,1199.88 1642.42,1197.23 1644.62,1194.57 1646.82,1191.87 1649.02,1189.15 1651.21,1186.4 1653.41,1183.62 1655.61,1180.82 1657.81,1177.99 1660.01,1175.12 1662.21,1172.23 1664.41,1169.31 1666.61,1166.37 1668.81,1163.39 1671.01,1160.38 1673.21,1157.34 1675.41,1154.27 1677.6,1151.17 1679.8,1148.04 1682,1144.88 1684.2,1141.68 1686.4,1138.46 1688.6,1135.2 1690.8,1131.91 1693,1128.58 1695.2,1125.22 1697.4,1121.83 1699.6,1118.41 1701.8,1114.94 1703.99,1111.45 1706.19,1107.92 1708.39,1104.35 1710.59,1100.75 1712.79,1097.11 1714.99,1093.44 1717.19,1089.73 1719.39,1085.98 1721.59,1082.19 1723.79,1078.36 1725.99,1074.5 1728.19,1070.6 1730.39,1066.66 1732.58,1062.67 1734.78,1058.65 1736.98,1054.59 1739.18,1256.45 1741.38,1254.38 1743.58,1252.28 1745.78,1250.17 1747.98,1248.03 1750.18,1245.88 1752.38,1243.7 1754.58,1241.5 1756.78,1239.28 1758.97,1237.03 1761.17,1234.76 1763.37,1232.47 1765.57,1230.16 1767.77,1227.82 1769.97,1225.46 1772.17,1223.08 1774.37,1220.67 1776.57,1218.24 1778.77,1215.79 1780.97,1213.3 1783.17,1210.8 1785.36,1208.27 1787.56,1205.71 1789.76,1203.13 1791.96,1200.52 1794.16,1197.89 1796.36,1195.22 1798.56,1192.54 1800.76,1189.82 1802.96,1187.08 1805.16,1184.31 1807.36,1181.51 1809.56,1178.69 1811.76,1175.83 1813.95,1172.95 1816.15,1170.04 1818.35,1167.1 1820.55,1164.13 1822.75,1161.13 1824.95,1158.09 1827.15,1155.03 1829.35,1151.94 1831.55,1148.82 1833.75,1145.66 1835.95,1142.48 1838.15,1139.26 1840.34,1136.01 1842.54,1132.72 1844.74,1129.4 1846.94,1126.05 1849.14,1122.67 1851.34,1119.25 1853.54,1115.8 1855.74,1112.31 1857.94,1108.79 1860.14,1105.23 1862.34,1101.64 1864.54,1098.01 1866.73,1094.34 1868.93,1090.64 1871.13,1086.9 1873.33,1083.12 1875.53,1079.31 1877.73,1075.45 1879.93,1071.56 1882.13,1067.63 1884.33,1063.66 1886.53,1059.65 1888.73,1055.59 1890.93,1051.5 1893.13,1047.37 1895.32,1043.19 1897.52,1038.97 1899.72,1034.71 1901.92,1030.41 1904.12,1026.07 1906.32,1021.68 1908.52,1017.24 1910.72,1012.77 1912.92,1008.24 1915.12,1003.68 1917.32,999.062 1919.52,994.401 1921.71,989.694 1923.91,984.939 1926.11,980.137 1928.31,975.286 1930.51,970.387 1932.71,965.438 1934.91,960.439 1937.11,955.391 1939.31,950.291 1941.51,945.14 1943.71,939.937 1945.91,934.682 1948.1,929.374 1950.3,924.012 1952.5,918.597 1954.7,913.127 1956.9,907.602 1959.1,902.021 1961.3,896.384 1963.5,890.69 1965.7,884.938 1967.9,879.129 1970.1,873.261 1972.3,867.335 1974.5,861.348 1976.69,855.301 1978.89,849.193 1981.09,843.024 1983.29,836.792 1985.49,830.497 1987.69,824.14 1989.89,817.718 1992.09,811.231 1994.29,804.679 1996.49,798.061 1998.69,791.376 2000.89,784.624 2003.08,777.804 2005.28,770.916 2007.48,763.958 2009.68,756.93 2011.88,749.831 2014.08,742.662 2016.28,735.419 2018.48,728.105 2020.68,720.716 2022.88,713.254 2025.08,705.717 2027.28,698.103 2029.47,690.414 2031.67,682.648 2033.87,674.803 2036.07,666.88 2038.27,658.876 2040.47,650.793 2042.67,642.628 2044.87,634.38 2047.07,626.05 2049.27,617.636 2051.47,609.138 2053.67,600.554 2055.87,591.883 2058.06,583.126 2060.26,574.28 2062.46,565.345 2064.66,556.32 2066.86,547.205 2069.06,537.998 2071.26,528.698 2073.46,519.305 2075.66,986.11 2077.86,981.319 2080.06,976.479 2082.26,971.59 2084.45,966.652 2086.65,961.665 2088.85,956.627 2091.05,951.539 2093.25,946.399 2095.45,941.208 2097.65,935.965 2099.85,930.669 2102.05,925.319 2104.25,919.916 2106.45,914.459 2108.65,908.946 2110.84,903.378 2113.04,897.755 2115.24,892.074 2117.44,886.337 2119.64,880.542 2121.84,874.688 2124.04,868.776 2126.24,862.804 2128.44,856.772 2130.64,850.679 2132.84,844.525 2135.04,838.309 2137.24,832.031 2139.43,825.689 2141.63,819.284 2143.83,812.814 2146.03,806.279 2148.23,799.678 2150.43,793.011 2152.63,786.277 2154.83,779.475 2157.03,772.604 2159.23,765.664 2161.43,758.655 2163.63,751.575 2165.82,744.424 2168.02,737.2 2170.22,729.904 2172.42,722.535 2174.62,715.091 2176.82,707.573 2179.02,699.979 2181.22,692.309 2183.42,684.561 2185.62,676.736 2187.82,668.832 2190.02,660.848 2192.22,652.784 2194.41,644.639 2196.61,636.412 2198.81,628.102 2201.01,619.709 2203.21,611.231 2205.41,602.668 2207.61,594.019 2209.81,585.283 2212.01,576.459 2214.21,567.546 2216.41,558.544 2218.61,549.451 2220.8,540.266 2223,530.989 2225.2,521.619 2227.4,512.155 2229.6,502.595 2231.8,492.94 2234,483.187 2236.2,473.336 2238.4,463.386 2240.6,453.335 2242.8,443.184 2245,432.93 2247.19,422.574 2249.39,412.113 2251.59,401.547 2253.79,390.874 2255.99,380.094 2258.19,369.206 2260.39,358.208 2262.59,347.099 2264.79,335.878 2266.99,324.545 2269.19,313.098 2271.39,301.535 2273.59,289.856 2275.78,278.06 2277.98,266.145 2280.18,254.11 2282.38,241.954 2284.58,229.676 2286.78,217.275 2288.98,204.748 2291.18,192.096 2293.38,179.316 2295.58,166.408 2297.78,153.37 2299.98,140.201 2302.17,126.899 2304.37,113.464 2306.57,99.8929 2308.77,86.1857 2310.97,767.372 2313.17,760.38 2315.37,753.317 2317.57,746.184 2319.77,738.978 2321.97,731.7 2324.17,724.349 2326.37,716.924 2328.56,709.425 2330.76,701.849 2332.96,694.198 2335.16,686.47 2337.36,678.664 2339.56,670.779 2341.76,662.815 2343.96,654.771 2346.16,646.646 2348.36,638.439 2350.56,630.15 2352.76,621.777 "/>
<path clip-path="url(#clip920)" d="M228.998 196.789 L556.382 196.789 L556.382 93.1086 L228.998 93.1086  Z" fill="#ffffff" fill-rule="evenodd" fill-opacity="1"/>
<polyline clip-path="url(#clip920)" style="stroke:#000000; stroke-linecap:round; stroke-linejoin:round; stroke-width:4; stroke-opacity:1; fill:none" points="228.998,196.789 556.382,196.789 556.382,93.1086 228.998,93.1086 228.998,196.789 "/>
<polyline clip-path="url(#clip920)" style="stroke:#009af9; stroke-linecap:round; stroke-linejoin:round; stroke-width:8; stroke-opacity:1; fill:none" points="253.409,144.949 399.875,144.949 "/>
<path clip-path="url(#clip920)" d="M424.286 151.997 L424.286 136.303 L428.545 136.303 L428.545 151.835 Q428.545 155.516 429.98 157.368 Q431.416 159.196 434.286 159.196 Q437.735 159.196 439.726 156.997 Q441.74 154.798 441.74 151.002 L441.74 136.303 L445.999 136.303 L445.999 162.229 L441.74 162.229 L441.74 158.247 Q440.189 160.608 438.129 161.766 Q436.092 162.9 433.383 162.9 Q428.916 162.9 426.601 160.122 Q424.286 157.344 424.286 151.997 M435.004 135.678 L435.004 135.678 Z" fill="#000000" fill-rule="nonzero" fill-opacity="1" /><path clip-path="url(#clip920)" d="M456.184 158.293 L463.823 158.293 L463.823 131.928 L455.513 133.595 L455.513 129.335 L463.777 127.669 L468.452 127.669 L468.452 158.293 L476.091 158.293 L476.091 162.229 L456.184 162.229 L456.184 158.293 Z" fill="#000000" fill-rule="nonzero" fill-opacity="1" /><path clip-path="url(#clip920)" d="M495.165 126.257 Q492.063 131.581 490.559 136.789 Q489.054 141.997 489.054 147.344 Q489.054 152.692 490.559 157.946 Q492.087 163.178 495.165 168.479 L491.462 168.479 Q487.989 163.039 486.253 157.784 Q484.54 152.53 484.54 147.344 Q484.54 142.182 486.253 136.951 Q487.966 131.72 491.462 126.257 L495.165 126.257 Z" fill="#000000" fill-rule="nonzero" fill-opacity="1" /><path clip-path="url(#clip920)" d="M507.642 128.942 L507.642 136.303 L516.415 136.303 L516.415 139.613 L507.642 139.613 L507.642 153.687 Q507.642 156.858 508.499 157.761 Q509.378 158.664 512.04 158.664 L516.415 158.664 L516.415 162.229 L512.04 162.229 Q507.11 162.229 505.235 160.4 Q503.36 158.548 503.36 153.687 L503.36 139.613 L500.235 139.613 L500.235 136.303 L503.36 136.303 L503.36 128.942 L507.642 128.942 Z" fill="#000000" fill-rule="nonzero" fill-opacity="1" /><path clip-path="url(#clip920)" d="M521.346 126.257 L525.049 126.257 Q528.522 131.72 530.235 136.951 Q531.971 142.182 531.971 147.344 Q531.971 152.53 530.235 157.784 Q528.522 163.039 525.049 168.479 L521.346 168.479 Q524.424 163.178 525.929 157.946 Q527.457 152.692 527.457 147.344 Q527.457 141.997 525.929 136.789 Q524.424 131.581 521.346 126.257 Z" fill="#000000" fill-rule="nonzero" fill-opacity="1" /></svg>
