<?xml version="1.0" encoding="utf-8"?>
<svg xmlns="http://www.w3.org/2000/svg" xmlns:xlink="http://www.w3.org/1999/xlink" width="600" height="400" viewBox="0 0 2400 1600">
<defs>
  <clipPath id="clip720">
    <rect x="0" y="0" width="2400" height="1600"/>
  </clipPath>
</defs>
<path clip-path="url(#clip720)" d="M0 1600 L2400 1600 L2400 0 L0 0  Z" fill="#ffffff" fill-rule="evenodd" fill-opacity="1"/>
<defs>
  <clipPath id="clip721">
    <rect x="480" y="0" width="1681" height="1600"/>
  </clipPath>
</defs>
<path clip-path="url(#clip720)" d="M155.765 1423.18 L2352.76 1423.18 L2352.76 47.2441 L155.765 47.2441  Z" fill="#ffffff" fill-rule="evenodd" fill-opacity="1"/>
<defs>
  <clipPath id="clip722">
    <rect x="155" y="47" width="2198" height="1377"/>
  </clipPath>
</defs>
<polyline clip-path="url(#clip722)" style="stroke:#000000; stroke-linecap:round; stroke-linejoin:round; stroke-width:2; stroke-opacity:0.1; fill:none" points="155.765,1423.18 155.765,47.2441 "/>
<polyline clip-path="url(#clip722)" style="stroke:#000000; stroke-linecap:round; stroke-linejoin:round; stroke-width:2; stroke-opacity:0.1; fill:none" points="595.163,1423.18 595.163,47.2441 "/>
<polyline clip-path="url(#clip722)" style="stroke:#000000; stroke-linecap:round; stroke-linejoin:round; stroke-width:2; stroke-opacity:0.1; fill:none" points="1034.56,1423.18 1034.56,47.2441 "/>
<polyline clip-path="url(#clip722)" style="stroke:#000000; stroke-linecap:round; stroke-linejoin:round; stroke-width:2; stroke-opacity:0.1; fill:none" points="1473.96,1423.18 1473.96,47.2441 "/>
<polyline clip-path="url(#clip722)" style="stroke:#000000; stroke-linecap:round; stroke-linejoin:round; stroke-width:2; stroke-opacity:0.1; fill:none" points="1913.36,1423.18 1913.36,47.2441 "/>
<polyline clip-path="url(#clip722)" style="stroke:#000000; stroke-linecap:round; stroke-linejoin:round; stroke-width:2; stroke-opacity:0.1; fill:none" points="2352.76,1423.18 2352.76,47.2441 "/>
<polyline clip-path="url(#clip720)" style="stroke:#000000; stroke-linecap:round; stroke-linejoin:round; stroke-width:4; stroke-opacity:1; fill:none" points="155.765,1423.18 2352.76,1423.18 "/>
<polyline clip-path="url(#clip720)" style="stroke:#000000; stroke-linecap:round; stroke-linejoin:round; stroke-width:4; stroke-opacity:1; fill:none" points="155.765,1423.18 155.765,1404.28 "/>
<polyline clip-path="url(#clip720)" style="stroke:#000000; stroke-linecap:round; stroke-linejoin:round; stroke-width:4; stroke-opacity:1; fill:none" points="595.163,1423.18 595.163,1404.28 "/>
<polyline clip-path="url(#clip720)" style="stroke:#000000; stroke-linecap:round; stroke-linejoin:round; stroke-width:4; stroke-opacity:1; fill:none" points="1034.56,1423.18 1034.56,1404.28 "/>
<polyline clip-path="url(#clip720)" style="stroke:#000000; stroke-linecap:round; stroke-linejoin:round; stroke-width:4; stroke-opacity:1; fill:none" points="1473.96,1423.18 1473.96,1404.28 "/>
<polyline clip-path="url(#clip720)" style="stroke:#000000; stroke-linecap:round; stroke-linejoin:round; stroke-width:4; stroke-opacity:1; fill:none" points="1913.36,1423.18 1913.36,1404.28 "/>
<polyline clip-path="url(#clip720)" style="stroke:#000000; stroke-linecap:round; stroke-linejoin:round; stroke-width:4; stroke-opacity:1; fill:none" points="2352.76,1423.18 2352.76,1404.28 "/>
<path clip-path="url(#clip720)" d="M155.765 1454.1 Q152.154 1454.1 150.325 1457.66 Q148.52 1461.2 148.52 1468.33 Q148.52 1475.44 150.325 1479.01 Q152.154 1482.55 155.765 1482.55 Q159.399 1482.55 161.205 1479.01 Q163.033 1475.44 163.033 1468.33 Q163.033 1461.2 161.205 1457.66 Q159.399 1454.1 155.765 1454.1 M155.765 1450.39 Q161.575 1450.39 164.631 1455 Q167.709 1459.58 167.709 1468.33 Q167.709 1477.06 164.631 1481.67 Q161.575 1486.25 155.765 1486.25 Q149.955 1486.25 146.876 1481.67 Q143.821 1477.06 143.821 1468.33 Q143.821 1459.58 146.876 1455 Q149.955 1450.39 155.765 1450.39 Z" fill="#000000" fill-rule="nonzero" fill-opacity="1" /><path clip-path="url(#clip720)" d="M589.816 1481.64 L606.135 1481.64 L606.135 1485.58 L584.191 1485.58 L584.191 1481.64 Q586.853 1478.89 591.436 1474.26 Q596.043 1469.61 597.223 1468.27 Q599.469 1465.74 600.348 1464.01 Q601.251 1462.25 601.251 1460.56 Q601.251 1457.8 599.307 1456.07 Q597.385 1454.33 594.283 1454.33 Q592.084 1454.33 589.631 1455.09 Q587.2 1455.86 584.422 1457.41 L584.422 1452.69 Q587.246 1451.55 589.7 1450.97 Q592.154 1450.39 594.191 1450.39 Q599.561 1450.39 602.756 1453.08 Q605.95 1455.77 605.95 1460.26 Q605.95 1462.39 605.14 1464.31 Q604.353 1466.2 602.246 1468.8 Q601.668 1469.47 598.566 1472.69 Q595.464 1475.88 589.816 1481.64 Z" fill="#000000" fill-rule="nonzero" fill-opacity="1" /><path clip-path="url(#clip720)" d="M1037.57 1455.09 L1025.77 1473.54 L1037.57 1473.54 L1037.57 1455.09 M1036.34 1451.02 L1042.22 1451.02 L1042.22 1473.54 L1047.15 1473.54 L1047.15 1477.43 L1042.22 1477.43 L1042.22 1485.58 L1037.57 1485.58 L1037.57 1477.43 L1021.97 1477.43 L1021.97 1472.92 L1036.34 1451.02 Z" fill="#000000" fill-rule="nonzero" fill-opacity="1" /><path clip-path="url(#clip720)" d="M1474.36 1466.44 Q1471.22 1466.44 1469.36 1468.59 Q1467.54 1470.74 1467.54 1474.49 Q1467.54 1478.22 1469.36 1480.39 Q1471.22 1482.55 1474.36 1482.55 Q1477.51 1482.55 1479.34 1480.39 Q1481.19 1478.22 1481.19 1474.49 Q1481.19 1470.74 1479.34 1468.59 Q1477.51 1466.44 1474.36 1466.44 M1483.65 1451.78 L1483.65 1456.04 Q1481.89 1455.21 1480.08 1454.77 Q1478.3 1454.33 1476.54 1454.33 Q1471.91 1454.33 1469.46 1457.45 Q1467.03 1460.58 1466.68 1466.9 Q1468.05 1464.89 1470.11 1463.82 Q1472.17 1462.73 1474.64 1462.73 Q1479.85 1462.73 1482.86 1465.9 Q1485.89 1469.05 1485.89 1474.49 Q1485.89 1479.82 1482.74 1483.03 Q1479.6 1486.25 1474.36 1486.25 Q1468.37 1486.25 1465.2 1481.67 Q1462.03 1477.06 1462.03 1468.33 Q1462.03 1460.14 1465.92 1455.28 Q1469.8 1450.39 1476.36 1450.39 Q1478.11 1450.39 1479.9 1450.74 Q1481.7 1451.09 1483.65 1451.78 Z" fill="#000000" fill-rule="nonzero" fill-opacity="1" /><path clip-path="url(#clip720)" d="M1913.36 1469.17 Q1910.02 1469.17 1908.1 1470.95 Q1906.2 1472.73 1906.2 1475.86 Q1906.2 1478.98 1908.1 1480.77 Q1910.02 1482.55 1913.36 1482.55 Q1916.69 1482.55 1918.61 1480.77 Q1920.53 1478.96 1920.53 1475.86 Q1920.53 1472.73 1918.61 1470.95 Q1916.71 1469.17 1913.36 1469.17 M1908.68 1467.18 Q1905.67 1466.44 1903.98 1464.38 Q1902.32 1462.32 1902.32 1459.35 Q1902.32 1455.21 1905.26 1452.8 Q1908.22 1450.39 1913.36 1450.39 Q1918.52 1450.39 1921.46 1452.8 Q1924.4 1455.21 1924.4 1459.35 Q1924.4 1462.32 1922.71 1464.38 Q1921.04 1466.44 1918.06 1467.18 Q1921.44 1467.96 1923.31 1470.26 Q1925.21 1472.55 1925.21 1475.86 Q1925.21 1480.88 1922.13 1483.57 Q1919.08 1486.25 1913.36 1486.25 Q1907.64 1486.25 1904.56 1483.57 Q1901.51 1480.88 1901.51 1475.86 Q1901.51 1472.55 1903.4 1470.26 Q1905.3 1467.96 1908.68 1467.18 M1906.97 1459.79 Q1906.97 1462.48 1908.64 1463.98 Q1910.33 1465.49 1913.36 1465.49 Q1916.37 1465.49 1918.06 1463.98 Q1919.77 1462.48 1919.77 1459.79 Q1919.77 1457.11 1918.06 1455.6 Q1916.37 1454.1 1913.36 1454.1 Q1910.33 1454.1 1908.64 1455.6 Q1906.97 1457.11 1906.97 1459.79 Z" fill="#000000" fill-rule="nonzero" fill-opacity="1" /><path clip-path="url(#clip720)" d="M2327.44 1481.64 L2335.08 1481.64 L2335.08 1455.28 L2326.77 1456.95 L2326.77 1452.69 L2335.04 1451.02 L2339.71 1451.02 L2339.71 1481.64 L2347.35 1481.64 L2347.35 1485.58 L2327.44 1485.58 L2327.44 1481.64 Z" fill="#000000" fill-rule="nonzero" fill-opacity="1" /><path clip-path="url(#clip720)" d="M2366.8 1454.1 Q2363.18 1454.1 2361.36 1457.66 Q2359.55 1461.2 2359.55 1468.33 Q2359.55 1475.44 2361.36 1479.01 Q2363.18 1482.55 2366.8 1482.55 Q2370.43 1482.55 2372.23 1479.01 Q2374.06 1475.44 2374.06 1468.33 Q2374.06 1461.2 2372.23 1457.66 Q2370.43 1454.1 2366.8 1454.1 M2366.8 1450.39 Q2372.61 1450.39 2375.66 1455 Q2378.74 1459.58 2378.74 1468.33 Q2378.74 1477.06 2375.66 1481.67 Q2372.61 1486.25 2366.8 1486.25 Q2360.99 1486.25 2357.91 1481.67 Q2354.85 1477.06 2354.85 1468.33 Q2354.85 1459.58 2357.91 1455 Q2360.99 1450.39 2366.8 1450.39 Z" fill="#000000" fill-rule="nonzero" fill-opacity="1" /><path clip-path="url(#clip720)" d="M1253.32 1522.27 L1253.32 1532.4 L1265.38 1532.4 L1265.38 1536.95 L1253.32 1536.95 L1253.32 1556.3 Q1253.32 1560.66 1254.5 1561.9 Q1255.71 1563.14 1259.37 1563.14 L1265.38 1563.14 L1265.38 1568.04 L1259.37 1568.04 Q1252.59 1568.04 1250.01 1565.53 Q1247.43 1562.98 1247.43 1556.3 L1247.43 1536.95 L1243.14 1536.95 L1243.14 1532.4 L1247.43 1532.4 L1247.43 1522.27 L1253.32 1522.27 Z" fill="#000000" fill-rule="nonzero" fill-opacity="1" /><polyline clip-path="url(#clip722)" style="stroke:#000000; stroke-linecap:round; stroke-linejoin:round; stroke-width:2; stroke-opacity:0.1; fill:none" points="155.765,1265.7 2352.76,1265.7 "/>
<polyline clip-path="url(#clip722)" style="stroke:#000000; stroke-linecap:round; stroke-linejoin:round; stroke-width:2; stroke-opacity:0.1; fill:none" points="155.765,1068.15 2352.76,1068.15 "/>
<polyline clip-path="url(#clip722)" style="stroke:#000000; stroke-linecap:round; stroke-linejoin:round; stroke-width:2; stroke-opacity:0.1; fill:none" points="155.765,870.593 2352.76,870.593 "/>
<polyline clip-path="url(#clip722)" style="stroke:#000000; stroke-linecap:round; stroke-linejoin:round; stroke-width:2; stroke-opacity:0.1; fill:none" points="155.765,673.037 2352.76,673.037 "/>
<polyline clip-path="url(#clip722)" style="stroke:#000000; stroke-linecap:round; stroke-linejoin:round; stroke-width:2; stroke-opacity:0.1; fill:none" points="155.765,475.481 2352.76,475.481 "/>
<polyline clip-path="url(#clip722)" style="stroke:#000000; stroke-linecap:round; stroke-linejoin:round; stroke-width:2; stroke-opacity:0.1; fill:none" points="155.765,277.925 2352.76,277.925 "/>
<polyline clip-path="url(#clip722)" style="stroke:#000000; stroke-linecap:round; stroke-linejoin:round; stroke-width:2; stroke-opacity:0.1; fill:none" points="155.765,80.3685 2352.76,80.3685 "/>
<polyline clip-path="url(#clip720)" style="stroke:#000000; stroke-linecap:round; stroke-linejoin:round; stroke-width:4; stroke-opacity:1; fill:none" points="155.765,1423.18 155.765,47.2441 "/>
<polyline clip-path="url(#clip720)" style="stroke:#000000; stroke-linecap:round; stroke-linejoin:round; stroke-width:4; stroke-opacity:1; fill:none" points="155.765,1265.7 174.663,1265.7 "/>
<polyline clip-path="url(#clip720)" style="stroke:#000000; stroke-linecap:round; stroke-linejoin:round; stroke-width:4; stroke-opacity:1; fill:none" points="155.765,1068.15 174.663,1068.15 "/>
<polyline clip-path="url(#clip720)" style="stroke:#000000; stroke-linecap:round; stroke-linejoin:round; stroke-width:4; stroke-opacity:1; fill:none" points="155.765,870.593 174.663,870.593 "/>
<polyline clip-path="url(#clip720)" style="stroke:#000000; stroke-linecap:round; stroke-linejoin:round; stroke-width:4; stroke-opacity:1; fill:none" points="155.765,673.037 174.663,673.037 "/>
<polyline clip-path="url(#clip720)" style="stroke:#000000; stroke-linecap:round; stroke-linejoin:round; stroke-width:4; stroke-opacity:1; fill:none" points="155.765,475.481 174.663,475.481 "/>
<polyline clip-path="url(#clip720)" style="stroke:#000000; stroke-linecap:round; stroke-linejoin:round; stroke-width:4; stroke-opacity:1; fill:none" points="155.765,277.925 174.663,277.925 "/>
<polyline clip-path="url(#clip720)" style="stroke:#000000; stroke-linecap:round; stroke-linejoin:round; stroke-width:4; stroke-opacity:1; fill:none" points="155.765,80.3685 174.663,80.3685 "/>
<path clip-path="url(#clip720)" d="M63.5847 1251.5 Q59.9736 1251.5 58.1449 1255.07 Q56.3393 1258.61 56.3393 1265.74 Q56.3393 1272.85 58.1449 1276.41 Q59.9736 1279.95 63.5847 1279.95 Q67.2189 1279.95 69.0244 1276.41 Q70.8531 1272.85 70.8531 1265.74 Q70.8531 1258.61 69.0244 1255.07 Q67.2189 1251.5 63.5847 1251.5 M63.5847 1247.8 Q69.3948 1247.8 72.4503 1252.41 Q75.529 1256.99 75.529 1265.74 Q75.529 1274.47 72.4503 1279.07 Q69.3948 1283.66 63.5847 1283.66 Q57.7745 1283.66 54.6958 1279.07 Q51.6403 1274.47 51.6403 1265.74 Q51.6403 1256.99 54.6958 1252.41 Q57.7745 1247.8 63.5847 1247.8 Z" fill="#000000" fill-rule="nonzero" fill-opacity="1" /><path clip-path="url(#clip720)" d="M83.7466 1277.11 L88.6308 1277.11 L88.6308 1282.98 L83.7466 1282.98 L83.7466 1277.11 Z" fill="#000000" fill-rule="nonzero" fill-opacity="1" /><path clip-path="url(#clip720)" d="M98.8622 1248.42 L117.219 1248.42 L117.219 1252.36 L103.145 1252.36 L103.145 1260.83 Q104.163 1260.48 105.182 1260.32 Q106.2 1260.14 107.219 1260.14 Q113.006 1260.14 116.385 1263.31 Q119.765 1266.48 119.765 1271.9 Q119.765 1277.48 116.293 1280.58 Q112.82 1283.66 106.501 1283.66 Q104.325 1283.66 102.057 1283.29 Q99.8113 1282.92 97.4039 1282.17 L97.4039 1277.48 Q99.4872 1278.61 101.709 1279.17 Q103.932 1279.72 106.408 1279.72 Q110.413 1279.72 112.751 1277.61 Q115.089 1275.51 115.089 1271.9 Q115.089 1268.29 112.751 1266.18 Q110.413 1264.07 106.408 1264.07 Q104.534 1264.07 102.659 1264.49 Q100.807 1264.91 98.8622 1265.79 L98.8622 1248.42 Z" fill="#000000" fill-rule="nonzero" fill-opacity="1" /><path clip-path="url(#clip720)" d="M53.3995 1081.49 L61.0384 1081.49 L61.0384 1055.13 L52.7282 1056.79 L52.7282 1052.54 L60.9921 1050.87 L65.668 1050.87 L65.668 1081.49 L73.3068 1081.49 L73.3068 1085.43 L53.3995 1085.43 L53.3995 1081.49 Z" fill="#000000" fill-rule="nonzero" fill-opacity="1" /><path clip-path="url(#clip720)" d="M82.7512 1079.55 L87.6354 1079.55 L87.6354 1085.43 L82.7512 1085.43 L82.7512 1079.55 Z" fill="#000000" fill-rule="nonzero" fill-opacity="1" /><path clip-path="url(#clip720)" d="M107.821 1053.95 Q104.209 1053.95 102.381 1057.51 Q100.575 1061.05 100.575 1068.18 Q100.575 1075.29 102.381 1078.85 Q104.209 1082.4 107.821 1082.4 Q111.455 1082.4 113.26 1078.85 Q115.089 1075.29 115.089 1068.18 Q115.089 1061.05 113.26 1057.51 Q111.455 1053.95 107.821 1053.95 M107.821 1050.24 Q113.631 1050.24 116.686 1054.85 Q119.765 1059.43 119.765 1068.18 Q119.765 1076.91 116.686 1081.52 Q113.631 1086.1 107.821 1086.1 Q102.01 1086.1 98.9317 1081.52 Q95.8761 1076.91 95.8761 1068.18 Q95.8761 1059.43 98.9317 1054.85 Q102.01 1050.24 107.821 1050.24 Z" fill="#000000" fill-rule="nonzero" fill-opacity="1" /><path clip-path="url(#clip720)" d="M54.3949 883.937 L62.0337 883.937 L62.0337 857.572 L53.7236 859.239 L53.7236 854.979 L61.9874 853.313 L66.6633 853.313 L66.6633 883.937 L74.3022 883.937 L74.3022 887.873 L54.3949 887.873 L54.3949 883.937 Z" fill="#000000" fill-rule="nonzero" fill-opacity="1" /><path clip-path="url(#clip720)" d="M83.7466 881.993 L88.6308 881.993 L88.6308 887.873 L83.7466 887.873 L83.7466 881.993 Z" fill="#000000" fill-rule="nonzero" fill-opacity="1" /><path clip-path="url(#clip720)" d="M98.8622 853.313 L117.219 853.313 L117.219 857.248 L103.145 857.248 L103.145 865.72 Q104.163 865.373 105.182 865.211 Q106.2 865.026 107.219 865.026 Q113.006 865.026 116.385 868.197 Q119.765 871.368 119.765 876.785 Q119.765 882.363 116.293 885.465 Q112.82 888.544 106.501 888.544 Q104.325 888.544 102.057 888.174 Q99.8113 887.803 97.4039 887.062 L97.4039 882.363 Q99.4872 883.498 101.709 884.053 Q103.932 884.609 106.408 884.609 Q110.413 884.609 112.751 882.502 Q115.089 880.396 115.089 876.785 Q115.089 873.174 112.751 871.067 Q110.413 868.961 106.408 868.961 Q104.534 868.961 102.659 869.377 Q100.807 869.794 98.8622 870.674 L98.8622 853.313 Z" fill="#000000" fill-rule="nonzero" fill-opacity="1" /><path clip-path="url(#clip720)" d="M56.6171 686.381 L72.9365 686.381 L72.9365 690.317 L50.9921 690.317 L50.9921 686.381 Q53.6541 683.627 58.2375 678.997 Q62.8439 674.344 64.0245 673.002 Q66.2698 670.479 67.1494 668.743 Q68.0522 666.983 68.0522 665.294 Q68.0522 662.539 66.1078 660.803 Q64.1865 659.067 61.0847 659.067 Q58.8856 659.067 56.4319 659.831 Q54.0014 660.595 51.2236 662.145 L51.2236 657.423 Q54.0477 656.289 56.5014 655.71 Q58.955 655.132 60.9921 655.132 Q66.3624 655.132 69.5568 657.817 Q72.7513 660.502 72.7513 664.993 Q72.7513 667.122 71.9411 669.044 Q71.1541 670.942 69.0476 673.534 Q68.4689 674.206 65.367 677.423 Q62.2652 680.618 56.6171 686.381 Z" fill="#000000" fill-rule="nonzero" fill-opacity="1" /><path clip-path="url(#clip720)" d="M82.7512 684.437 L87.6354 684.437 L87.6354 690.317 L82.7512 690.317 L82.7512 684.437 Z" fill="#000000" fill-rule="nonzero" fill-opacity="1" /><path clip-path="url(#clip720)" d="M107.821 658.835 Q104.209 658.835 102.381 662.4 Q100.575 665.942 100.575 673.071 Q100.575 680.178 102.381 683.743 Q104.209 687.284 107.821 687.284 Q111.455 687.284 113.26 683.743 Q115.089 680.178 115.089 673.071 Q115.089 665.942 113.26 662.4 Q111.455 658.835 107.821 658.835 M107.821 655.132 Q113.631 655.132 116.686 659.738 Q119.765 664.321 119.765 673.071 Q119.765 681.798 116.686 686.405 Q113.631 690.988 107.821 690.988 Q102.01 690.988 98.9317 686.405 Q95.8761 681.798 95.8761 673.071 Q95.8761 664.321 98.9317 659.738 Q102.01 655.132 107.821 655.132 Z" fill="#000000" fill-rule="nonzero" fill-opacity="1" /><path clip-path="url(#clip720)" d="M57.6125 488.825 L73.9318 488.825 L73.9318 492.761 L51.9875 492.761 L51.9875 488.825 Q54.6495 486.071 59.2328 481.441 Q63.8393 476.788 65.0198 475.446 Q67.2652 472.923 68.1448 471.187 Q69.0476 469.427 69.0476 467.738 Q69.0476 464.983 67.1032 463.247 Q65.1819 461.511 62.08 461.511 Q59.881 461.511 57.4273 462.275 Q54.9967 463.039 52.219 464.589 L52.219 459.867 Q55.043 458.733 57.4967 458.154 Q59.9504 457.576 61.9874 457.576 Q67.3578 457.576 70.5522 460.261 Q73.7466 462.946 73.7466 467.437 Q73.7466 469.566 72.9365 471.488 Q72.1494 473.386 70.0429 475.978 Q69.4642 476.65 66.3624 479.867 Q63.2606 483.062 57.6125 488.825 Z" fill="#000000" fill-rule="nonzero" fill-opacity="1" /><path clip-path="url(#clip720)" d="M83.7466 486.881 L88.6308 486.881 L88.6308 492.761 L83.7466 492.761 L83.7466 486.881 Z" fill="#000000" fill-rule="nonzero" fill-opacity="1" /><path clip-path="url(#clip720)" d="M98.8622 458.201 L117.219 458.201 L117.219 462.136 L103.145 462.136 L103.145 470.608 Q104.163 470.261 105.182 470.099 Q106.2 469.913 107.219 469.913 Q113.006 469.913 116.385 473.085 Q119.765 476.256 119.765 481.673 Q119.765 487.251 116.293 490.353 Q112.82 493.432 106.501 493.432 Q104.325 493.432 102.057 493.061 Q99.8113 492.691 97.4039 491.95 L97.4039 487.251 Q99.4872 488.386 101.709 488.941 Q103.932 489.497 106.408 489.497 Q110.413 489.497 112.751 487.39 Q115.089 485.284 115.089 481.673 Q115.089 478.062 112.751 475.955 Q110.413 473.849 106.408 473.849 Q104.534 473.849 102.659 474.265 Q100.807 474.682 98.8622 475.562 L98.8622 458.201 Z" fill="#000000" fill-rule="nonzero" fill-opacity="1" /><path clip-path="url(#clip720)" d="M66.7559 276.57 Q70.1124 277.288 71.9874 279.556 Q73.8855 281.825 73.8855 285.158 Q73.8855 290.274 70.367 293.075 Q66.8485 295.876 60.3671 295.876 Q58.1912 295.876 55.8764 295.436 Q53.5847 295.019 51.131 294.163 L51.131 289.649 Q53.0754 290.783 55.3903 291.362 Q57.7051 291.941 60.2282 291.941 Q64.6263 291.941 66.918 290.205 Q69.2328 288.468 69.2328 285.158 Q69.2328 282.103 67.08 280.39 Q64.9504 278.654 61.131 278.654 L57.1032 278.654 L57.1032 274.811 L61.3161 274.811 Q64.7652 274.811 66.5939 273.445 Q68.4226 272.057 68.4226 269.464 Q68.4226 266.802 66.5245 265.39 Q64.6495 263.955 61.131 263.955 Q59.2097 263.955 57.0106 264.371 Q54.8115 264.788 52.1727 265.668 L52.1727 261.501 Q54.8347 260.76 57.1495 260.39 Q59.4875 260.02 61.5476 260.02 Q66.8717 260.02 69.9735 262.45 Q73.0753 264.857 73.0753 268.978 Q73.0753 271.848 71.4318 273.839 Q69.7883 275.807 66.7559 276.57 Z" fill="#000000" fill-rule="nonzero" fill-opacity="1" /><path clip-path="url(#clip720)" d="M82.7512 289.325 L87.6354 289.325 L87.6354 295.205 L82.7512 295.205 L82.7512 289.325 Z" fill="#000000" fill-rule="nonzero" fill-opacity="1" /><path clip-path="url(#clip720)" d="M107.821 263.723 Q104.209 263.723 102.381 267.288 Q100.575 270.83 100.575 277.959 Q100.575 285.066 102.381 288.631 Q104.209 292.172 107.821 292.172 Q111.455 292.172 113.26 288.631 Q115.089 285.066 115.089 277.959 Q115.089 270.83 113.26 267.288 Q111.455 263.723 107.821 263.723 M107.821 260.02 Q113.631 260.02 116.686 264.626 Q119.765 269.209 119.765 277.959 Q119.765 286.686 116.686 291.293 Q113.631 295.876 107.821 295.876 Q102.01 295.876 98.9317 291.293 Q95.8761 286.686 95.8761 277.959 Q95.8761 269.209 98.9317 264.626 Q102.01 260.02 107.821 260.02 Z" fill="#000000" fill-rule="nonzero" fill-opacity="1" /><path clip-path="url(#clip720)" d="M67.7513 79.0144 Q71.1078 79.732 72.9827 82.0005 Q74.8809 84.269 74.8809 87.6023 Q74.8809 92.718 71.3624 95.5189 Q67.8439 98.3198 61.3624 98.3198 Q59.1865 98.3198 56.8717 97.88 Q54.5801 97.4634 52.1264 96.6069 L52.1264 92.093 Q54.0708 93.2273 56.3856 93.806 Q58.7004 94.3847 61.2236 94.3847 Q65.6217 94.3847 67.9133 92.6486 Q70.2281 90.9125 70.2281 87.6023 Q70.2281 84.5468 68.0754 82.8338 Q65.9457 81.0977 62.1263 81.0977 L58.0986 81.0977 L58.0986 77.2551 L62.3115 77.2551 Q65.7606 77.2551 67.5893 75.8894 Q69.418 74.5005 69.418 71.9079 Q69.418 69.2459 67.5198 67.8339 Q65.6448 66.3987 62.1263 66.3987 Q60.205 66.3987 58.006 66.8154 Q55.8069 67.232 53.168 68.1117 L53.168 63.945 Q55.8301 63.2043 58.1449 62.8339 Q60.4828 62.4635 62.543 62.4635 Q67.867 62.4635 70.9689 64.8941 Q74.0707 67.3015 74.0707 71.4218 Q74.0707 74.2922 72.4272 76.2829 Q70.7837 78.2505 67.7513 79.0144 Z" fill="#000000" fill-rule="nonzero" fill-opacity="1" /><path clip-path="url(#clip720)" d="M83.7466 91.7689 L88.6308 91.7689 L88.6308 97.6485 L83.7466 97.6485 L83.7466 91.7689 Z" fill="#000000" fill-rule="nonzero" fill-opacity="1" /><path clip-path="url(#clip720)" d="M98.8622 63.0885 L117.219 63.0885 L117.219 67.0237 L103.145 67.0237 L103.145 75.4959 Q104.163 75.1487 105.182 74.9866 Q106.2 74.8014 107.219 74.8014 Q113.006 74.8014 116.385 77.9727 Q119.765 81.144 119.765 86.5606 Q119.765 92.1393 116.293 95.2411 Q112.82 98.3198 106.501 98.3198 Q104.325 98.3198 102.057 97.9495 Q99.8113 97.5791 97.4039 96.8384 L97.4039 92.1393 Q99.4872 93.2736 101.709 93.8291 Q103.932 94.3847 106.408 94.3847 Q110.413 94.3847 112.751 92.2782 Q115.089 90.1717 115.089 86.5606 Q115.089 82.9495 112.751 80.8431 Q110.413 78.7366 106.408 78.7366 Q104.534 78.7366 102.659 79.1533 Q100.807 79.5699 98.8622 80.4496 L98.8622 63.0885 Z" fill="#000000" fill-rule="nonzero" fill-opacity="1" /><polyline clip-path="url(#clip722)" style="stroke:#009af9; stroke-linecap:round; stroke-linejoin:round; stroke-width:8; stroke-opacity:1; fill:none" points="155.765,1384.24 157.964,1383.44 160.163,1382.64 162.362,1381.83 164.562,1381.01 166.761,1380.18 168.96,1379.35 171.159,1378.5 173.358,1377.65 175.558,1376.79 177.757,1375.92 179.956,1375.04 182.155,1374.15 184.354,1373.26 186.554,1372.35 188.753,1371.44 190.952,1370.51 193.151,1369.58 195.35,1368.64 197.55,1367.68 199.749,1366.72 201.948,1365.75 204.147,1364.77 206.346,1363.78 208.545,1362.78 210.745,1361.77 212.944,1360.75 215.143,1359.72 217.342,1358.67 219.541,1357.62 221.741,1356.56 223.94,1355.49 226.139,1354.4 228.338,1353.31 230.537,1352.2 232.737,1351.08 234.936,1349.95 237.135,1348.81 239.334,1347.66 241.533,1346.5 243.733,1345.33 245.932,1344.14 248.131,1342.94 250.33,1341.73 252.529,1340.51 254.728,1339.27 256.928,1338.03 259.127,1336.77 261.326,1335.49 263.525,1334.21 265.724,1332.91 267.924,1331.6 270.123,1330.27 272.322,1328.94 274.521,1327.58 276.72,1326.22 278.92,1324.84 281.119,1323.45 283.318,1322.04 285.517,1320.62 287.716,1319.19 289.916,1317.74 292.115,1316.27 294.314,1314.79 296.513,1313.3 298.712,1311.79 300.911,1310.27 303.111,1308.73 305.31,1307.17 307.509,1305.6 309.708,1304.02 311.907,1302.42 314.107,1300.8 316.306,1299.16 318.505,1297.51 320.704,1295.84 322.903,1294.16 325.103,1292.46 327.302,1290.74 329.501,1289.01 331.7,1287.25 333.899,1285.48 336.099,1283.69 338.298,1281.89 340.497,1280.06 342.696,1278.22 344.895,1276.36 347.094,1274.48 349.294,1272.58 351.493,1270.66 353.692,1268.72 355.891,1266.76 358.09,1264.79 360.29,1262.79 362.489,1260.77 364.688,1258.74 366.887,1256.68 369.086,1254.6 371.286,1252.5 373.485,1250.38 375.684,1248.24 377.883,1246.08 380.082,1243.89 382.281,1241.69 384.481,1239.46 386.68,1237.21 388.879,1234.93 391.078,1232.63 393.277,1230.31 395.477,1227.97 397.676,1225.6 399.875,1223.21 402.074,1220.8 404.273,1218.36 406.473,1215.89 408.672,1213.41 410.871,1210.89 413.07,1208.35 415.269,1205.79 417.469,1203.2 419.668,1200.58 421.867,1197.94 424.066,1195.27 426.265,1192.57 428.464,1189.85 430.664,1187.1 432.863,1184.32 435.062,1181.52 437.261,1178.68 439.46,1175.82 441.66,1172.93 443.859,1170.01 446.058,1167.06 448.257,1164.08 450.456,1161.07 452.656,1158.03 454.855,1154.95 457.054,1151.85 459.253,1148.72 461.452,1145.56 463.652,1142.36 465.851,1139.13 468.05,1135.87 470.249,1132.58 472.448,1129.25 474.647,1125.89 476.847,1122.5 479.046,1119.07 481.245,1115.61 483.444,1112.11 485.643,1108.58 487.843,1105.01 490.042,1101.4 492.241,1097.76 494.44,1094.09 496.639,1090.37 498.839,1086.62 501.038,1082.83 503.237,1079 505.436,1075.14 507.635,1071.23 509.835,1067.29 512.034,1063.31 514.233,1059.28 516.432,1055.22 518.631,1051.11 520.83,1046.97 523.03,1042.78 525.229,1038.55 527.428,1034.28 529.627,1029.96 531.826,1025.6 534.026,1021.2 536.225,1016.75 538.424,1012.26 540.623,1007.72 542.822,1003.14 545.022,998.509 547.221,993.833 549.42,989.11 551.619,984.34 553.818,979.522 556.018,974.656 558.217,969.74 560.416,964.775 562.615,959.761 564.814,954.696 567.013,949.58 569.213,944.412 571.412,939.193 573.611,933.921 575.81,928.596 578.009,923.217 580.209,917.785 582.408,912.297 584.607,906.755 586.806,901.157 589.005,895.502 591.205,889.791 593.404,884.022 595.603,878.195 597.802,872.309 600.001,866.365 602.201,860.36 604.4,854.295 606.599,848.169 608.798,841.981 610.997,835.73 613.196,829.417 615.396,823.041 617.595,816.6 619.794,810.094 621.993,803.523 624.192,796.886 626.392,790.181 628.591,783.41 630.79,776.57 632.989,769.661 635.188,762.683 637.388,755.634 639.587,748.515 641.786,741.324 643.985,734.061 646.184,726.724 648.384,719.314 650.583,711.829 652.782,704.269 654.981,696.634 657.18,688.921 659.379,681.131 661.579,673.262 663.778,665.315 665.977,657.287 668.176,649.179 670.375,640.989 672.575,632.717 674.774,624.361 676.973,615.921 679.172,607.397 681.371,598.787 683.571,590.09 685.77,581.306 687.969,572.433 690.168,563.471 692.367,554.419 694.567,545.276 696.766,536.041 698.965,526.713 701.164,517.291 703.363,507.774 705.562,498.162 707.762,488.453 709.961,478.646 712.16,468.741 714.359,458.736 716.558,448.63 718.758,438.422 720.957,428.112 723.156,417.698 725.355,407.179 727.554,396.555 729.754,385.823 731.953,374.984 734.152,364.035 736.351,352.977 738.55,902.542 740.749,896.901 742.949,891.204 745.148,885.448 747.347,879.635 749.546,873.764 751.745,867.833 753.945,861.843 756.144,855.792 758.343,849.681 760.542,843.508 762.741,837.273 764.941,830.976 767.14,824.615 769.339,818.19 771.538,811.701 773.737,805.146 775.937,798.525 778.136,791.838 780.335,785.084 782.534,778.261 784.733,771.37 786.932,764.41 789.132,757.38 791.331,750.279 793.53,743.106 795.729,735.862 797.928,728.544 800.128,721.153 802.327,713.687 804.526,706.147 806.725,698.53 808.924,690.837 811.124,683.066 813.323,675.217 815.522,667.289 817.721,659.282 819.92,651.193 822.12,643.024 824.319,634.772 826.518,626.437 828.717,618.018 830.916,609.514 833.115,600.925 835.315,592.249 837.514,583.486 839.713,574.635 841.912,565.695 844.111,556.665 846.311,547.544 848.51,538.331 850.709,529.026 852.908,519.627 855.107,510.134 857.307,981.908 859.506,977.065 861.705,972.174 863.904,967.234 866.103,962.243 868.303,957.203 870.502,952.112 872.701,946.97 874.9,941.776 877.099,936.529 879.298,931.23 881.498,925.878 883.697,920.472 885.896,915.011 888.095,909.495 890.294,903.924 892.494,898.297 894.693,1177.94 896.892,1319.16 899.091,1317.71 901.29,1316.25 903.49,1314.77 905.689,1313.28 907.888,1311.77 910.087,1310.24 912.286,1308.7 914.486,1307.15 916.685,1305.58 918.884,1303.99 921.083,1302.39 923.282,1300.77 925.481,1299.14 927.681,1297.49 929.88,1295.82 932.079,1294.13 934.278,1292.43 936.477,1290.71 938.677,1288.98 940.876,1287.22 943.075,1285.45 945.274,1283.67 947.473,1281.86 949.673,1280.03 951.872,1278.19 954.071,1276.33 956.27,1274.45 958.469,1272.55 960.669,1270.63 962.868,1268.69 965.067,1266.74 967.266,1264.76 969.465,1262.76 971.664,1260.75 973.864,1258.71 976.063,1256.65 978.262,1254.57 980.461,1252.47 982.66,1250.35 984.86,1248.21 987.059,1246.05 989.258,1243.86 991.457,1241.65 993.656,1239.43 995.856,1237.17 998.055,1234.9 1000.25,1232.6 1002.45,1230.28 1004.65,1227.94 1006.85,1225.57 1009.05,1223.18 1011.25,1220.76 1013.45,1218.32 1015.65,1215.86 1017.85,1213.37 1020.05,1210.85 1022.25,1208.31 1024.45,1205.75 1026.64,1203.16 1028.84,1200.54 1031.04,1197.9 1033.24,1195.23 1035.44,1192.53 1037.64,1189.81 1039.84,1187.06 1042.04,1184.28 1044.24,1181.47 1046.44,1178.64 1048.64,1175.77 1050.84,1172.88 1053.03,1169.96 1055.23,1167.01 1057.43,1164.03 1059.63,1161.02 1061.83,1157.98 1064.03,1154.91 1066.23,1151.8 1068.43,1148.67 1070.63,1145.51 1072.83,1142.31 1075.03,1139.08 1077.23,1135.82 1079.42,1132.53 1081.62,1129.2 1083.82,1125.84 1086.02,1122.44 1088.22,1119.02 1090.42,1115.55 1092.62,1112.06 1094.82,1108.52 1097.02,1104.96 1099.22,1101.35 1101.42,1097.71 1103.62,1094.04 1105.82,1090.32 1108.01,1086.57 1110.21,1082.78 1112.41,1078.96 1114.61,1075.09 1116.81,1071.19 1119.01,1067.24 1121.21,1063.26 1123.41,1059.24 1125.61,1055.17 1127.81,1051.07 1130.01,1046.92 1132.21,1042.73 1134.4,1038.5 1136.6,1034.23 1138.8,1029.91 1141,1025.56 1143.2,1021.15 1145.4,1016.7 1147.6,1012.21 1149.8,1007.67 1152,1003.09 1154.2,998.462 1156.4,993.785 1158.6,989.062 1160.79,984.291 1162.99,979.472 1165.19,974.604 1167.39,969.687 1169.59,964.721 1171.79,959.705 1173.99,954.638 1176.19,949.52 1178.39,944.351 1180.59,939.129 1182.79,933.855 1184.99,928.528 1187.19,923.147 1189.38,917.713 1191.58,912.223 1193.78,906.679 1195.98,901.078 1198.18,895.422 1200.38,889.708 1202.58,883.937 1204.78,878.109 1206.98,872.222 1209.18,866.276 1211.38,1161.77 1213.58,1158.73 1215.77,1155.67 1217.97,1152.57 1220.17,1149.45 1222.37,1146.29 1224.57,1143.1 1226.77,1139.88 1228.97,1136.63 1231.17,1133.34 1233.37,1130.02 1235.57,1126.67 1237.77,1123.28 1239.97,1119.86 1242.16,1116.41 1244.36,1112.92 1246.56,1109.4 1248.76,1105.84 1250.96,1102.24 1253.16,1098.61 1255.36,1094.94 1257.56,1091.23 1259.76,1087.49 1261.96,1083.71 1264.16,1079.89 1266.36,1076.04 1268.56,1072.14 1270.75,1068.21 1272.95,1064.23 1275.15,1060.22 1277.35,1056.16 1279.55,1052.07 1281.75,1047.93 1283.95,1043.75 1286.15,1039.53 1288.35,1035.27 1290.55,1030.96 1292.75,1026.61 1294.95,1022.22 1297.14,1017.78 1299.34,1238.29 1301.54,1236.03 1303.74,1233.74 1305.94,1231.43 1308.14,1229.1 1310.34,1226.74 1312.54,1224.36 1314.74,1221.96 1316.94,1219.53 1319.14,1217.08 1321.34,1214.6 1323.53,1212.1 1325.73,1209.58 1327.93,1207.02 1330.13,1204.45 1332.33,1201.84 1334.53,1199.21 1336.73,1196.56 1338.93,1193.87 1341.13,1191.16 1343.33,1188.43 1345.53,1185.66 1347.73,1182.87 1349.93,1180.05 1352.12,1177.2 1354.32,1174.32 1356.52,1171.42 1358.72,1168.48 1360.92,1165.52 1363.12,1162.52 1365.32,1159.5 1367.52,1156.44 1369.72,1153.36 1371.92,1150.24 1374.12,1147.09 1376.32,1143.91 1378.51,1140.7 1380.71,1137.46 1382.91,1134.18 1385.11,1130.87 1387.31,1127.52 1389.51,1124.15 1391.71,1120.74 1393.91,1117.29 1396.11,1113.81 1398.31,1110.3 1400.51,1106.75 1402.71,1103.16 1404.9,1099.54 1407.1,1095.88 1409.3,1092.18 1411.5,1088.45 1413.7,1084.68 1415.9,1080.87 1418.1,1077.02 1420.3,1073.14 1422.5,1069.21 1424.7,1065.25 1426.9,1061.24 1429.1,1057.2 1431.3,1053.11 1433.49,1048.98 1435.69,1044.81 1437.89,1040.6 1440.09,1036.35 1442.29,1032.06 1444.49,1027.72 1446.69,1023.33 1448.89,1018.91 1451.09,1014.44 1453.29,1009.92 1455.49,1005.36 1457.69,1000.75 1459.88,996.097 1462.08,991.397 1464.28,986.649 1466.48,981.854 1468.68,977.01 1470.88,972.119 1473.08,967.177 1475.28,962.186 1477.48,957.145 1479.68,952.053 1481.88,946.909 1484.08,941.714 1486.27,936.466 1488.47,931.166 1490.67,925.812 1492.87,920.405 1495.07,914.943 1497.27,909.427 1499.47,903.855 1501.67,898.227 1503.87,892.543 1506.07,886.802 1508.27,881.003 1510.47,875.146 1512.67,869.231 1514.86,863.256 1517.06,857.221 1519.26,851.126 1521.46,844.969 1523.66,838.751 1525.86,832.471 1528.06,826.127 1530.26,819.72 1532.46,813.249 1534.66,806.712 1536.86,800.11 1539.06,793.442 1541.25,786.707 1543.45,779.904 1545.65,773.033 1547.85,766.093 1550.05,759.083 1552.25,752.003 1554.45,744.851 1556.65,737.627 1558.85,730.331 1561.05,722.961 1563.25,715.518 1565.45,707.999 1567.65,700.404 1569.84,692.733 1572.04,684.985 1574.24,677.159 1576.44,669.253 1578.64,661.269 1580.84,653.203 1583.04,645.056 1585.24,636.827 1587.44,628.515 1589.64,620.12 1591.84,611.639 1594.04,603.073 1596.23,594.42 1598.43,585.68 1600.63,576.852 1602.83,567.935 1605.03,558.928 1607.23,549.829 1609.43,540.639 1611.63,531.356 1613.83,521.98 1616.03,512.509 1618.23,502.942 1620.43,493.278 1622.62,483.517 1624.82,473.658 1627.02,463.699 1629.22,453.64 1631.42,443.479 1633.62,433.216 1635.82,422.849 1638.02,412.378 1640.22,401.801 1642.42,391.118 1644.62,380.327 1646.82,369.428 1649.02,358.418 1651.21,347.298 1653.41,336.067 1655.61,324.722 1657.81,313.263 1660.01,301.69 1662.21,290 1664.41,278.192 1666.61,266.267 1668.81,254.221 1671.01,242.056 1673.21,229.768 1675.41,217.357 1677.6,204.822 1679.8,192.162 1682,179.374 1684.2,166.458 1686.4,153.412 1688.6,140.235 1690.8,126.925 1693,113.481 1695.2,99.9014 1697.4,86.1857 1699.6,767.791 1701.8,760.795 1703.99,753.728 1706.19,746.589 1708.39,739.38 1710.59,732.097 1712.79,724.741 1714.99,717.312 1717.19,709.807 1719.39,702.227 1721.59,694.571 1723.79,686.838 1725.99,679.027 1728.19,671.137 1730.39,663.168 1732.58,655.119 1734.78,646.989 1736.98,638.777 1739.18,630.483 1741.38,622.105 1743.58,613.642 1745.78,605.095 1747.98,596.462 1750.18,1025.5 1752.38,1021.1 1754.58,1016.65 1756.78,1012.16 1758.97,1007.62 1761.17,1003.03 1763.37,998.405 1765.57,993.728 1767.77,989.004 1769.97,984.233 1772.17,979.414 1774.37,974.546 1776.57,969.63 1778.77,964.664 1780.97,959.648 1783.17,954.581 1785.36,949.464 1787.56,944.295 1789.76,939.075 1791.96,933.801 1794.16,928.475 1796.36,923.095 1798.56,917.661 1800.76,912.173 1802.96,906.629 1805.16,901.029 1807.36,895.373 1809.56,889.66 1811.76,883.89 1813.95,878.062 1816.15,872.175 1818.35,866.228 1820.55,860.222 1822.75,854.155 1824.95,848.028 1827.15,841.838 1829.35,835.587 1831.55,829.272 1833.75,822.894 1835.95,816.451 1838.15,809.944 1840.34,803.371 1842.54,796.732 1844.74,790.027 1846.94,783.253 1849.14,776.412 1851.34,769.502 1853.54,762.522 1855.74,755.472 1857.94,748.351 1860.14,741.159 1862.34,733.894 1864.54,726.557 1866.73,1091.24 1868.93,1087.5 1871.13,1083.72 1873.33,1079.9 1875.53,1076.04 1877.73,1072.14 1879.93,1068.21 1882.13,1064.23 1884.33,1060.22 1886.53,1056.17 1888.73,1052.07 1890.93,1047.93 1893.13,1043.75 1895.32,1039.53 1897.52,1035.27 1899.72,1030.97 1901.92,1026.62 1904.12,1022.22 1906.32,1017.79 1908.52,1013.31 1910.72,1008.78 1912.92,1004.21 1915.12,999.593 1917.32,994.929 1919.52,990.219 1921.71,985.462 1923.91,980.656 1926.11,975.803 1928.31,970.901 1930.51,965.949 1932.71,960.948 1934.91,955.896 1937.11,950.794 1939.31,945.641 1941.51,940.435 1943.71,935.178 1945.91,929.867 1948.1,924.503 1950.3,919.085 1952.5,913.613 1954.7,908.085 1956.9,902.502 1959.1,896.863 1961.3,891.167 1963.5,885.413 1965.7,879.601 1967.9,873.731 1970.1,867.802 1972.3,861.813 1974.5,855.764 1976.69,849.653 1978.89,843.481 1981.09,837.247 1983.29,830.95 1985.49,824.589 1987.69,818.164 1989.89,811.674 1992.09,805.119 1994.29,798.498 1996.49,791.81 1998.69,785.054 2000.89,778.231 2003.08,771.338 2005.28,764.376 2007.48,757.344 2009.68,750.241 2011.88,743.066 2014.08,735.818 2016.28,728.498 2018.48,721.104 2020.68,713.636 2022.88,706.092 2025.08,698.472 2027.28,690.775 2029.47,683.001 2031.67,675.149 2033.87,667.218 2036.07,659.206 2038.27,651.115 2040.47,642.942 2042.67,634.687 2044.87,626.348 2047.07,617.927 2049.27,609.42 2051.47,600.829 2053.67,592.151 2055.87,583.386 2058.06,574.534 2060.26,565.592 2062.46,556.562 2064.66,547.44 2066.86,538.227 2069.06,528.921 2071.26,519.521 2073.46,510.027 2075.66,500.437 2077.86,490.75 2080.06,480.967 2082.26,471.085 2084.45,461.103 2086.65,451.021 2088.85,440.838 2091.05,430.552 2093.25,420.162 2095.45,409.669 2097.65,399.069 2099.85,388.363 2102.05,920.4 2104.25,914.938 2106.45,909.422 2108.65,903.85 2110.84,898.222 2113.04,892.538 2115.24,886.796 2117.44,880.997 2119.64,875.139 2121.84,869.222 2124.04,863.246 2126.24,857.21 2128.44,851.113 2130.64,844.955 2132.84,838.734 2135.04,832.451 2137.24,826.105 2139.43,819.695 2141.63,813.221 2143.83,806.681 2146.03,800.076 2148.23,793.404 2150.43,786.665 2152.63,779.858 2154.83,772.983 2157.03,766.039 2159.23,759.025 2161.43,751.94 2163.63,1104.03 2165.82,1100.42 2168.02,1096.77 2170.22,1093.08 2172.42,1089.35 2174.62,1085.59 2176.82,1081.79 2179.02,1077.96 2181.22,1074.08 2183.42,1070.16 2185.62,1066.21 2187.82,1062.21 2190.02,1058.18 2192.22,1054.11 2194.41,1049.99 2196.61,1045.83 2198.81,1041.63 2201.01,1037.39 2203.21,1033.11 2205.41,1028.78 2207.61,1024.41 2209.81,1019.99 2212.01,1015.53 2214.21,1011.03 2216.41,1006.48 2218.61,1001.89 2220.8,997.244 2223,992.555 2225.2,987.82 2227.4,983.037 2229.6,978.206 2231.8,973.326 2234,968.397 2236.2,963.419 2238.4,958.39 2240.6,953.311 2242.8,948.181 2245,942.999 2247.19,937.765 2249.39,932.478 2251.59,927.138 2253.79,921.744 2255.99,916.296 2258.19,910.794 2260.39,905.235 2262.59,899.621 2264.79,893.951 2266.99,888.224 2269.19,882.438 2271.39,1169.95 2273.59,1167 2275.78,1164.02 2277.98,1161.01 2280.18,1157.97 2282.38,1309.08 2284.58,1307.53 2286.78,1305.96 2288.98,1304.38 2291.18,1302.78 2293.38,1301.17 2295.58,1299.54 2297.78,1297.89 2299.98,1296.23 2302.17,1294.54 2304.37,1292.85 2306.57,1291.13 2308.77,1289.4 2310.97,1287.65 2313.17,1285.89 2315.37,1284.1 2317.57,1282.3 2319.77,1280.48 2321.97,1278.64 2324.17,1276.78 2326.37,1274.91 2328.56,1273.01 2330.76,1271.1 2332.96,1269.16 2335.16,1365.24 2337.36,1364.25 2339.56,1363.25 2341.76,1362.25 2343.96,1361.23 2346.16,1360.21 2348.36,1359.17 2350.56,1358.12 2352.76,1357.06 "/>
<path clip-path="url(#clip720)" d="M228.998 196.789 L556.382 196.789 L556.382 93.1086 L228.998 93.1086  Z" fill="#ffffff" fill-rule="evenodd" fill-opacity="1"/>
<polyline clip-path="url(#clip720)" style="stroke:#000000; stroke-linecap:round; stroke-linejoin:round; stroke-width:4; stroke-opacity:1; fill:none" points="228.998,196.789 556.382,196.789 556.382,93.1086 228.998,93.1086 228.998,196.789 "/>
<polyline clip-path="url(#clip720)" style="stroke:#009af9; stroke-linecap:round; stroke-linejoin:round; stroke-width:8; stroke-opacity:1; fill:none" points="253.409,144.949 399.875,144.949 "/>
<path clip-path="url(#clip720)" d="M424.286 151.997 L424.286 136.303 L428.545 136.303 L428.545 151.835 Q428.545 155.516 429.98 157.368 Q431.416 159.196 434.286 159.196 Q437.735 159.196 439.726 156.997 Q441.74 154.798 441.74 151.002 L441.74 136.303 L445.999 136.303 L445.999 162.229 L441.74 162.229 L441.74 158.247 Q440.189 160.608 438.129 161.766 Q436.092 162.9 433.383 162.9 Q428.916 162.9 426.601 160.122 Q424.286 157.344 424.286 151.997 M435.004 135.678 L435.004 135.678 Z" fill="#000000" fill-rule="nonzero" fill-opacity="1" /><path clip-path="url(#clip720)" d="M456.184 158.293 L463.823 158.293 L463.823 131.928 L455.513 133.595 L455.513 129.335 L463.777 127.669 L468.452 127.669 L468.452 158.293 L476.091 158.293 L476.091 162.229 L456.184 162.229 L456.184 158.293 Z" fill="#000000" fill-rule="nonzero" fill-opacity="1" /><path clip-path="url(#clip720)" d="M495.165 126.257 Q492.063 131.581 490.559 136.789 Q489.054 141.997 489.054 147.344 Q489.054 152.692 490.559 157.946 Q492.087 163.178 495.165 168.479 L491.462 168.479 Q487.989 163.039 486.253 157.784 Q484.54 152.53 484.54 147.344 Q484.54 142.182 486.253 136.951 Q487.966 131.72 491.462 126.257 L495.165 126.257 Z" fill="#000000" fill-rule="nonzero" fill-opacity="1" /><path clip-path="url(#clip720)" d="M507.642 128.942 L507.642 136.303 L516.415 136.303 L516.415 139.613 L507.642 139.613 L507.642 153.687 Q507.642 156.858 508.499 157.761 Q509.378 158.664 512.04 158.664 L516.415 158.664 L516.415 162.229 L512.04 162.229 Q507.11 162.229 505.235 160.4 Q503.36 158.548 503.36 153.687 L503.36 139.613 L500.235 139.613 L500.235 136.303 L503.36 136.303 L503.36 128.942 L507.642 128.942 Z" fill="#000000" fill-rule="nonzero" fill-opacity="1" /><path clip-path="url(#clip720)" d="M521.346 126.257 L525.049 126.257 Q528.522 131.72 530.235 136.951 Q531.971 142.182 531.971 147.344 Q531.971 152.53 530.235 157.784 Q528.522 163.039 525.049 168.479 L521.346 168.479 Q524.424 163.178 525.929 157.946 Q527.457 152.692 527.457 147.344 Q527.457 141.997 525.929 136.789 Q524.424 131.581 521.346 126.257 Z" fill="#000000" fill-rule="nonzero" fill-opacity="1" /></svg>
