<?xml version="1.0" encoding="utf-8"?>
<svg xmlns="http://www.w3.org/2000/svg" xmlns:xlink="http://www.w3.org/1999/xlink" width="600" height="400" viewBox="0 0 2400 1600">
<defs>
  <clipPath id="clip100">
    <rect x="0" y="0" width="2400" height="1600"/>
  </clipPath>
</defs>
<path clip-path="url(#clip100)" d="M0 1600 L2400 1600 L2400 0 L0 0  Z" fill="#ffffff" fill-rule="evenodd" fill-opacity="1"/>
<defs>
  <clipPath id="clip101">
    <rect x="480" y="0" width="1681" height="1600"/>
  </clipPath>
</defs>
<path clip-path="url(#clip100)" d="M149.191 1423.18 L2352.76 1423.18 L2352.76 47.2441 L149.191 47.2441  Z" fill="#ffffff" fill-rule="evenodd" fill-opacity="1"/>
<defs>
  <clipPath id="clip102">
    <rect x="149" y="47" width="2205" height="1377"/>
  </clipPath>
</defs>
<polyline clip-path="url(#clip102)" style="stroke:#000000; stroke-linecap:round; stroke-linejoin:round; stroke-width:2; stroke-opacity:0.1; fill:none" points="149.191,1423.18 149.191,47.2441 "/>
<polyline clip-path="url(#clip102)" style="stroke:#000000; stroke-linecap:round; stroke-linejoin:round; stroke-width:2; stroke-opacity:0.1; fill:none" points="589.904,1423.18 589.904,47.2441 "/>
<polyline clip-path="url(#clip102)" style="stroke:#000000; stroke-linecap:round; stroke-linejoin:round; stroke-width:2; stroke-opacity:0.1; fill:none" points="1030.62,1423.18 1030.62,47.2441 "/>
<polyline clip-path="url(#clip102)" style="stroke:#000000; stroke-linecap:round; stroke-linejoin:round; stroke-width:2; stroke-opacity:0.1; fill:none" points="1471.33,1423.18 1471.33,47.2441 "/>
<polyline clip-path="url(#clip102)" style="stroke:#000000; stroke-linecap:round; stroke-linejoin:round; stroke-width:2; stroke-opacity:0.1; fill:none" points="1912.04,1423.18 1912.04,47.2441 "/>
<polyline clip-path="url(#clip102)" style="stroke:#000000; stroke-linecap:round; stroke-linejoin:round; stroke-width:2; stroke-opacity:0.1; fill:none" points="2352.76,1423.18 2352.76,47.2441 "/>
<polyline clip-path="url(#clip100)" style="stroke:#000000; stroke-linecap:round; stroke-linejoin:round; stroke-width:4; stroke-opacity:1; fill:none" points="149.191,1423.18 2352.76,1423.18 "/>
<polyline clip-path="url(#clip100)" style="stroke:#000000; stroke-linecap:round; stroke-linejoin:round; stroke-width:4; stroke-opacity:1; fill:none" points="149.191,1423.18 149.191,1404.28 "/>
<polyline clip-path="url(#clip100)" style="stroke:#000000; stroke-linecap:round; stroke-linejoin:round; stroke-width:4; stroke-opacity:1; fill:none" points="589.904,1423.18 589.904,1404.28 "/>
<polyline clip-path="url(#clip100)" style="stroke:#000000; stroke-linecap:round; stroke-linejoin:round; stroke-width:4; stroke-opacity:1; fill:none" points="1030.62,1423.18 1030.62,1404.28 "/>
<polyline clip-path="url(#clip100)" style="stroke:#000000; stroke-linecap:round; stroke-linejoin:round; stroke-width:4; stroke-opacity:1; fill:none" points="1471.33,1423.18 1471.33,1404.28 "/>
<polyline clip-path="url(#clip100)" style="stroke:#000000; stroke-linecap:round; stroke-linejoin:round; stroke-width:4; stroke-opacity:1; fill:none" points="1912.04,1423.18 1912.04,1404.28 "/>
<polyline clip-path="url(#clip100)" style="stroke:#000000; stroke-linecap:round; stroke-linejoin:round; stroke-width:4; stroke-opacity:1; fill:none" points="2352.76,1423.18 2352.76,1404.28 "/>
<path clip-path="url(#clip100)" d="M149.191 1454.1 Q145.58 1454.1 143.751 1457.66 Q141.946 1461.2 141.946 1468.33 Q141.946 1475.44 143.751 1479.01 Q145.58 1482.55 149.191 1482.55 Q152.825 1482.55 154.631 1479.01 Q156.459 1475.44 156.459 1468.33 Q156.459 1461.2 154.631 1457.66 Q152.825 1454.1 149.191 1454.1 M149.191 1450.39 Q155.001 1450.39 158.057 1455 Q161.135 1459.58 161.135 1468.33 Q161.135 1477.06 158.057 1481.67 Q155.001 1486.25 149.191 1486.25 Q143.381 1486.25 140.302 1481.67 Q137.246 1477.06 137.246 1468.33 Q137.246 1459.58 140.302 1455 Q143.381 1450.39 149.191 1450.39 Z" fill="#000000" fill-rule="nonzero" fill-opacity="1" /><path clip-path="url(#clip100)" d="M584.557 1481.64 L600.876 1481.64 L600.876 1485.58 L578.932 1485.58 L578.932 1481.64 Q581.594 1478.89 586.177 1474.26 Q590.783 1469.61 591.964 1468.27 Q594.209 1465.74 595.089 1464.01 Q595.992 1462.25 595.992 1460.56 Q595.992 1457.8 594.047 1456.07 Q592.126 1454.33 589.024 1454.33 Q586.825 1454.33 584.371 1455.09 Q581.941 1455.86 579.163 1457.41 L579.163 1452.69 Q581.987 1451.55 584.441 1450.97 Q586.895 1450.39 588.932 1450.39 Q594.302 1450.39 597.496 1453.08 Q600.691 1455.77 600.691 1460.26 Q600.691 1462.39 599.881 1464.31 Q599.094 1466.2 596.987 1468.8 Q596.408 1469.47 593.307 1472.69 Q590.205 1475.88 584.557 1481.64 Z" fill="#000000" fill-rule="nonzero" fill-opacity="1" /><path clip-path="url(#clip100)" d="M1033.63 1455.09 L1021.82 1473.54 L1033.63 1473.54 L1033.63 1455.09 M1032.4 1451.02 L1038.28 1451.02 L1038.28 1473.54 L1043.21 1473.54 L1043.21 1477.43 L1038.28 1477.43 L1038.28 1485.58 L1033.63 1485.58 L1033.63 1477.43 L1018.02 1477.43 L1018.02 1472.92 L1032.4 1451.02 Z" fill="#000000" fill-rule="nonzero" fill-opacity="1" /><path clip-path="url(#clip100)" d="M1471.73 1466.44 Q1468.59 1466.44 1466.74 1468.59 Q1464.91 1470.74 1464.91 1474.49 Q1464.91 1478.22 1466.74 1480.39 Q1468.59 1482.55 1471.73 1482.55 Q1474.88 1482.55 1476.71 1480.39 Q1478.56 1478.22 1478.56 1474.49 Q1478.56 1470.74 1476.71 1468.59 Q1474.88 1466.44 1471.73 1466.44 M1481.02 1451.78 L1481.02 1456.04 Q1479.26 1455.21 1477.45 1454.77 Q1475.67 1454.33 1473.91 1454.33 Q1469.28 1454.33 1466.83 1457.45 Q1464.4 1460.58 1464.05 1466.9 Q1465.42 1464.89 1467.48 1463.82 Q1469.54 1462.73 1472.01 1462.73 Q1477.22 1462.73 1480.23 1465.9 Q1483.26 1469.05 1483.26 1474.49 Q1483.26 1479.82 1480.11 1483.03 Q1476.97 1486.25 1471.73 1486.25 Q1465.74 1486.25 1462.57 1481.67 Q1459.4 1477.06 1459.4 1468.33 Q1459.4 1460.14 1463.29 1455.28 Q1467.17 1450.39 1473.73 1450.39 Q1475.48 1450.39 1477.27 1450.74 Q1479.07 1451.09 1481.02 1451.78 Z" fill="#000000" fill-rule="nonzero" fill-opacity="1" /><path clip-path="url(#clip100)" d="M1912.04 1469.17 Q1908.71 1469.17 1906.79 1470.95 Q1904.89 1472.73 1904.89 1475.86 Q1904.89 1478.98 1906.79 1480.77 Q1908.71 1482.55 1912.04 1482.55 Q1915.38 1482.55 1917.3 1480.77 Q1919.22 1478.96 1919.22 1475.86 Q1919.22 1472.73 1917.3 1470.95 Q1915.4 1469.17 1912.04 1469.17 M1907.37 1467.18 Q1904.36 1466.44 1902.67 1464.38 Q1901 1462.32 1901 1459.35 Q1901 1455.21 1903.94 1452.8 Q1906.9 1450.39 1912.04 1450.39 Q1917.2 1450.39 1920.14 1452.8 Q1923.08 1455.21 1923.08 1459.35 Q1923.08 1462.32 1921.39 1464.38 Q1919.73 1466.44 1916.74 1467.18 Q1920.12 1467.96 1922 1470.26 Q1923.89 1472.55 1923.89 1475.86 Q1923.89 1480.88 1920.82 1483.57 Q1917.76 1486.25 1912.04 1486.25 Q1906.33 1486.25 1903.25 1483.57 Q1900.19 1480.88 1900.19 1475.86 Q1900.19 1472.55 1902.09 1470.26 Q1903.99 1467.96 1907.37 1467.18 M1905.65 1459.79 Q1905.65 1462.48 1907.32 1463.98 Q1909.01 1465.49 1912.04 1465.49 Q1915.05 1465.49 1916.74 1463.98 Q1918.45 1462.48 1918.45 1459.79 Q1918.45 1457.11 1916.74 1455.6 Q1915.05 1454.1 1912.04 1454.1 Q1909.01 1454.1 1907.32 1455.6 Q1905.65 1457.11 1905.65 1459.79 Z" fill="#000000" fill-rule="nonzero" fill-opacity="1" /><path clip-path="url(#clip100)" d="M2327.44 1481.64 L2335.08 1481.64 L2335.08 1455.28 L2326.77 1456.95 L2326.77 1452.69 L2335.04 1451.02 L2339.71 1451.02 L2339.71 1481.64 L2347.35 1481.64 L2347.35 1485.58 L2327.44 1485.58 L2327.44 1481.64 Z" fill="#000000" fill-rule="nonzero" fill-opacity="1" /><path clip-path="url(#clip100)" d="M2366.8 1454.1 Q2363.18 1454.1 2361.36 1457.66 Q2359.55 1461.2 2359.55 1468.33 Q2359.55 1475.44 2361.36 1479.01 Q2363.18 1482.55 2366.8 1482.55 Q2370.43 1482.55 2372.23 1479.01 Q2374.06 1475.44 2374.06 1468.33 Q2374.06 1461.2 2372.23 1457.66 Q2370.43 1454.1 2366.8 1454.1 M2366.8 1450.39 Q2372.61 1450.39 2375.66 1455 Q2378.74 1459.58 2378.74 1468.33 Q2378.74 1477.06 2375.66 1481.67 Q2372.61 1486.25 2366.8 1486.25 Q2360.99 1486.25 2357.91 1481.67 Q2354.85 1477.06 2354.85 1468.33 Q2354.85 1459.58 2357.91 1455 Q2360.99 1450.39 2366.8 1450.39 Z" fill="#000000" fill-rule="nonzero" fill-opacity="1" /><path clip-path="url(#clip100)" d="M1250.03 1522.27 L1250.03 1532.4 L1262.1 1532.4 L1262.1 1536.95 L1250.03 1536.95 L1250.03 1556.3 Q1250.03 1560.66 1251.21 1561.9 Q1252.42 1563.14 1256.08 1563.14 L1262.1 1563.14 L1262.1 1568.04 L1256.08 1568.04 Q1249.3 1568.04 1246.72 1565.53 Q1244.15 1562.98 1244.15 1556.3 L1244.15 1536.95 L1239.85 1536.95 L1239.85 1532.4 L1244.15 1532.4 L1244.15 1522.27 L1250.03 1522.27 Z" fill="#000000" fill-rule="nonzero" fill-opacity="1" /><polyline clip-path="url(#clip102)" style="stroke:#000000; stroke-linecap:round; stroke-linejoin:round; stroke-width:2; stroke-opacity:0.1; fill:none" points="149.191,1221.22 2352.76,1221.22 "/>
<polyline clip-path="url(#clip102)" style="stroke:#000000; stroke-linecap:round; stroke-linejoin:round; stroke-width:2; stroke-opacity:0.1; fill:none" points="149.191,1018.88 2352.76,1018.88 "/>
<polyline clip-path="url(#clip102)" style="stroke:#000000; stroke-linecap:round; stroke-linejoin:round; stroke-width:2; stroke-opacity:0.1; fill:none" points="149.191,816.541 2352.76,816.541 "/>
<polyline clip-path="url(#clip102)" style="stroke:#000000; stroke-linecap:round; stroke-linejoin:round; stroke-width:2; stroke-opacity:0.1; fill:none" points="149.191,614.199 2352.76,614.199 "/>
<polyline clip-path="url(#clip102)" style="stroke:#000000; stroke-linecap:round; stroke-linejoin:round; stroke-width:2; stroke-opacity:0.1; fill:none" points="149.191,411.858 2352.76,411.858 "/>
<polyline clip-path="url(#clip102)" style="stroke:#000000; stroke-linecap:round; stroke-linejoin:round; stroke-width:2; stroke-opacity:0.1; fill:none" points="149.191,209.517 2352.76,209.517 "/>
<polyline clip-path="url(#clip100)" style="stroke:#000000; stroke-linecap:round; stroke-linejoin:round; stroke-width:4; stroke-opacity:1; fill:none" points="149.191,1423.18 149.191,47.2441 "/>
<polyline clip-path="url(#clip100)" style="stroke:#000000; stroke-linecap:round; stroke-linejoin:round; stroke-width:4; stroke-opacity:1; fill:none" points="149.191,1221.22 168.089,1221.22 "/>
<polyline clip-path="url(#clip100)" style="stroke:#000000; stroke-linecap:round; stroke-linejoin:round; stroke-width:4; stroke-opacity:1; fill:none" points="149.191,1018.88 168.089,1018.88 "/>
<polyline clip-path="url(#clip100)" style="stroke:#000000; stroke-linecap:round; stroke-linejoin:round; stroke-width:4; stroke-opacity:1; fill:none" points="149.191,816.541 168.089,816.541 "/>
<polyline clip-path="url(#clip100)" style="stroke:#000000; stroke-linecap:round; stroke-linejoin:round; stroke-width:4; stroke-opacity:1; fill:none" points="149.191,614.199 168.089,614.199 "/>
<polyline clip-path="url(#clip100)" style="stroke:#000000; stroke-linecap:round; stroke-linejoin:round; stroke-width:4; stroke-opacity:1; fill:none" points="149.191,411.858 168.089,411.858 "/>
<polyline clip-path="url(#clip100)" style="stroke:#000000; stroke-linecap:round; stroke-linejoin:round; stroke-width:4; stroke-opacity:1; fill:none" points="149.191,209.517 168.089,209.517 "/>
<path clip-path="url(#clip100)" d="M50.9921 1221.67 L80.6679 1221.67 L80.6679 1225.61 L50.9921 1225.61 L50.9921 1221.67 Z" fill="#000000" fill-rule="nonzero" fill-opacity="1" /><path clip-path="url(#clip100)" d="M103.608 1208.02 L91.8021 1226.47 L103.608 1226.47 L103.608 1208.02 M102.381 1203.94 L108.26 1203.94 L108.26 1226.47 L113.191 1226.47 L113.191 1230.35 L108.26 1230.35 L108.26 1238.5 L103.608 1238.5 L103.608 1230.35 L88.0058 1230.35 L88.0058 1225.84 L102.381 1203.94 Z" fill="#000000" fill-rule="nonzero" fill-opacity="1" /><path clip-path="url(#clip100)" d="M53.0754 1019.33 L82.7512 1019.33 L82.7512 1023.27 L53.0754 1023.27 L53.0754 1019.33 Z" fill="#000000" fill-rule="nonzero" fill-opacity="1" /><path clip-path="url(#clip100)" d="M96.8715 1032.23 L113.191 1032.23 L113.191 1036.16 L91.2465 1036.16 L91.2465 1032.23 Q93.9086 1029.47 98.4919 1024.84 Q103.098 1020.19 104.279 1018.85 Q106.524 1016.32 107.404 1014.59 Q108.307 1012.83 108.307 1011.14 Q108.307 1008.38 106.362 1006.65 Q104.441 1004.91 101.339 1004.91 Q99.14 1004.91 96.6863 1005.68 Q94.2558 1006.44 91.478 1007.99 L91.478 1003.27 Q94.3021 1002.13 96.7558 1001.56 Q99.2095 1000.98 101.246 1000.98 Q106.617 1000.98 109.811 1003.66 Q113.006 1006.35 113.006 1010.84 Q113.006 1012.97 112.196 1014.89 Q111.408 1016.79 109.302 1019.38 Q108.723 1020.05 105.621 1023.27 Q102.52 1026.46 96.8715 1032.23 Z" fill="#000000" fill-rule="nonzero" fill-opacity="1" /><path clip-path="url(#clip100)" d="M101.246 802.339 Q97.6354 802.339 95.8067 805.904 Q94.0012 809.446 94.0012 816.575 Q94.0012 823.682 95.8067 827.246 Q97.6354 830.788 101.246 830.788 Q104.881 830.788 106.686 827.246 Q108.515 823.682 108.515 816.575 Q108.515 809.446 106.686 805.904 Q104.881 802.339 101.246 802.339 M101.246 798.636 Q107.057 798.636 110.112 803.242 Q113.191 807.825 113.191 816.575 Q113.191 825.302 110.112 829.908 Q107.057 834.492 101.246 834.492 Q95.4363 834.492 92.3576 829.908 Q89.3021 825.302 89.3021 816.575 Q89.3021 807.825 92.3576 803.242 Q95.4363 798.636 101.246 798.636 Z" fill="#000000" fill-rule="nonzero" fill-opacity="1" /><path clip-path="url(#clip100)" d="M96.8715 627.544 L113.191 627.544 L113.191 631.479 L91.2465 631.479 L91.2465 627.544 Q93.9086 624.79 98.4919 620.16 Q103.098 615.507 104.279 614.165 Q106.524 611.642 107.404 609.905 Q108.307 608.146 108.307 606.456 Q108.307 603.702 106.362 601.966 Q104.441 600.23 101.339 600.23 Q99.14 600.23 96.6863 600.993 Q94.2558 601.757 91.478 603.308 L91.478 598.586 Q94.3021 597.452 96.7558 596.873 Q99.2095 596.294 101.246 596.294 Q106.617 596.294 109.811 598.98 Q113.006 601.665 113.006 606.155 Q113.006 608.285 112.196 610.206 Q111.408 612.104 109.302 614.697 Q108.723 615.368 105.621 618.586 Q102.52 621.78 96.8715 627.544 Z" fill="#000000" fill-rule="nonzero" fill-opacity="1" /><path clip-path="url(#clip100)" d="M103.608 398.652 L91.8021 417.101 L103.608 417.101 L103.608 398.652 M102.381 394.578 L108.26 394.578 L108.26 417.101 L113.191 417.101 L113.191 420.99 L108.26 420.99 L108.26 429.138 L103.608 429.138 L103.608 420.99 L88.0058 420.99 L88.0058 416.476 L102.381 394.578 Z" fill="#000000" fill-rule="nonzero" fill-opacity="1" /><path clip-path="url(#clip100)" d="M101.663 207.654 Q98.515 207.654 96.6632 209.806 Q94.8345 211.959 94.8345 215.709 Q94.8345 219.436 96.6632 221.612 Q98.515 223.765 101.663 223.765 Q104.811 223.765 106.64 221.612 Q108.492 219.436 108.492 215.709 Q108.492 211.959 106.64 209.806 Q104.811 207.654 101.663 207.654 M110.946 193.001 L110.946 197.26 Q109.186 196.427 107.381 195.987 Q105.598 195.547 103.839 195.547 Q99.2095 195.547 96.7558 198.672 Q94.3252 201.797 93.978 208.117 Q95.3437 206.103 97.4039 205.038 Q99.4641 203.95 101.941 203.95 Q107.149 203.95 110.158 207.121 Q113.191 210.269 113.191 215.709 Q113.191 221.033 110.043 224.251 Q106.895 227.468 101.663 227.468 Q95.6678 227.468 92.4965 222.885 Q89.3253 218.279 89.3253 209.552 Q89.3253 201.357 93.2141 196.496 Q97.103 191.612 103.654 191.612 Q105.413 191.612 107.196 191.959 Q109.001 192.307 110.946 193.001 Z" fill="#000000" fill-rule="nonzero" fill-opacity="1" /><polyline clip-path="url(#clip102)" style="stroke:#009af9; stroke-linecap:round; stroke-linejoin:round; stroke-width:8; stroke-opacity:1; fill:none" points="149.191,796.306 151.397,796.103 153.602,795.897 155.808,795.69 158.014,795.48 160.22,795.268 162.425,795.054 164.631,794.838 166.837,794.619 169.043,794.399 171.249,794.176 173.454,793.951 175.66,793.724 177.866,793.494 180.072,793.262 182.277,793.028 184.483,792.792 186.689,792.553 188.895,792.312 191.101,792.068 193.306,791.822 195.512,791.573 197.718,791.322 199.924,791.068 202.129,790.812 204.335,790.553 206.541,790.291 208.747,790.027 210.952,789.761 213.158,789.491 215.364,789.219 217.57,788.944 219.776,788.667 221.981,788.386 224.187,788.103 226.393,787.817 228.599,787.528 230.804,787.236 233.01,786.941 235.216,786.643 237.422,786.343 239.627,786.039 241.833,785.732 244.039,785.422 246.245,785.109 248.451,784.793 250.656,784.473 252.862,784.151 255.068,783.825 257.274,783.496 259.479,783.163 261.685,782.828 263.891,782.488 266.097,782.146 268.302,781.8 270.508,781.45 272.714,781.097 274.92,780.741 277.126,780.381 279.331,780.017 281.537,779.649 283.743,779.278 285.949,778.903 288.154,778.525 290.36,778.142 292.566,777.756 294.772,777.366 296.978,776.972 299.183,776.574 301.389,776.172 303.595,775.765 305.801,775.355 308.006,774.941 310.212,774.522 312.418,774.1 314.624,773.673 316.829,773.241 319.035,772.806 321.241,772.366 323.447,771.921 325.653,771.473 327.858,771.019 330.064,770.561 332.27,770.099 334.476,769.631 336.681,769.16 338.887,768.683 341.093,768.201 343.299,767.715 345.504,767.224 347.71,766.728 349.916,766.227 352.122,765.721 354.328,765.209 356.533,764.693 358.739,764.171 360.945,763.644 363.151,763.112 365.356,762.575 367.562,762.032 369.768,761.483 371.974,760.93 374.179,760.37 376.385,759.805 378.591,759.234 380.797,758.658 383.003,758.075 385.208,757.487 387.414,756.893 389.62,756.293 391.826,755.687 394.031,755.075 396.237,754.456 398.443,785.186 400.649,784.871 402.855,784.552 405.06,784.23 407.266,783.905 409.472,783.577 411.678,783.245 413.883,782.91 416.089,782.572 418.295,782.23 420.501,781.885 422.706,781.536 424.912,781.184 427.118,780.829 429.324,780.469 431.53,780.106 433.735,779.74 435.941,779.37 438.147,778.996 440.353,778.618 442.558,778.237 444.764,777.851 446.97,777.462 449.176,777.069 451.381,776.672 453.587,776.271 455.793,775.866 457.999,775.456 460.205,775.043 462.41,774.626 464.616,774.204 466.822,773.778 469.028,773.348 471.233,772.913 473.439,772.474 475.645,772.031 477.851,771.583 480.056,771.131 482.262,770.674 484.468,770.213 486.674,769.747 488.88,769.276 491.085,768.8 493.291,768.32 495.497,767.835 497.703,767.345 499.908,766.85 502.114,766.35 504.32,765.845 506.526,765.335 508.732,764.82 510.937,764.3 513.143,763.774 515.349,763.243 517.555,762.707 519.76,762.165 521.966,761.618 524.172,761.066 526.378,760.508 528.583,759.944 530.789,759.375 532.995,758.8 535.201,758.219 537.407,757.632 539.612,757.039 541.818,756.441 544.024,755.836 546.23,755.226 548.435,754.609 550.641,753.986 552.847,753.357 555.053,752.721 557.258,752.079 559.464,751.431 561.67,750.776 563.876,750.114 566.082,749.446 568.287,748.771 570.493,748.089 572.699,747.401 574.905,746.705 577.11,746.002 579.316,745.293 581.522,744.576 583.728,743.852 585.933,743.121 588.139,742.382 590.345,741.636 592.551,740.883 594.757,740.121 596.962,739.353 599.168,738.576 601.374,737.792 603.58,736.999 605.785,736.199 607.991,735.391 610.197,734.574 612.403,733.75 614.609,732.917 616.814,732.075 619.02,731.226 621.226,730.367 623.432,729.5 625.637,728.625 627.843,727.74 630.049,726.847 632.255,725.944 634.46,725.033 636.666,724.112 638.872,723.182 641.078,722.243 643.284,721.295 645.489,720.336 647.695,719.369 649.901,718.391 652.107,717.404 654.312,716.406 656.518,715.399 658.724,714.381 660.93,713.354 663.135,712.316 665.341,711.267 667.547,710.208 669.753,709.138 671.959,708.058 674.164,706.966 676.37,705.864 678.576,704.751 680.782,703.626 682.987,702.49 685.193,701.343 687.399,700.184 689.605,699.013 691.81,697.831 694.016,696.636 696.222,755.986 698.428,755.377 700.634,754.761 702.839,754.14 705.045,753.512 707.251,752.878 709.457,752.237 711.662,751.59 713.868,750.937 716.074,750.277 718.28,749.61 720.486,748.937 722.691,748.257 724.897,747.57 727.103,746.876 729.309,746.175 731.514,745.467 733.72,744.752 735.926,744.03 738.132,743.301 740.337,742.564 742.543,741.82 744.749,741.068 746.955,740.309 749.161,739.542 751.366,738.768 753.572,737.985 755.778,737.195 757.984,736.397 760.189,735.591 762.395,734.776 764.601,733.954 766.807,733.123 769.012,732.284 771.218,731.436 773.424,730.58 775.63,729.715 777.836,728.842 780.041,727.96 782.247,727.069 784.453,726.169 786.659,725.259 788.864,724.341 791.07,723.413 793.276,722.477 795.482,721.53 797.687,720.574 799.893,719.609 802.099,718.634 804.305,717.649 806.511,716.654 808.716,715.649 810.922,714.634 813.128,713.608 815.334,712.573 817.539,711.527 819.745,710.47 821.951,709.403 824.157,708.325 826.363,707.236 828.568,706.137 830.774,705.026 832.98,703.904 835.186,702.771 837.391,701.626 839.597,700.47 841.803,699.302 844.009,698.123 846.214,696.931 848.42,695.728 850.626,694.513 852.832,693.285 855.038,692.045 857.243,690.792 859.449,689.527 861.655,688.25 863.861,686.959 866.066,685.655 868.272,684.339 870.478,683.009 872.684,681.666 874.889,680.309 877.095,678.939 879.301,677.554 881.507,676.156 883.713,674.744 885.918,673.318 888.124,671.878 890.33,670.423 892.536,668.953 894.741,667.469 896.947,665.969 899.153,664.455 901.359,662.925 903.564,661.38 905.77,659.82 907.976,658.243 910.182,656.651 912.388,655.043 914.593,653.419 916.799,651.778 919.005,650.121 921.211,648.447 923.416,646.756 925.622,645.048 927.828,643.323 930.034,641.581 932.24,639.821 934.445,638.043 936.651,636.248 938.857,634.434 941.063,632.602 943.268,630.752 945.474,628.883 947.68,626.995 949.886,625.088 952.091,623.162 954.297,621.216 956.503,619.251 958.709,617.266 960.915,615.261 963.12,613.235 965.326,611.19 967.532,609.124 969.738,607.037 971.943,604.928 974.149,602.799 976.355,600.648 978.561,598.476 980.766,596.282 982.972,594.065 985.178,591.827 987.384,589.565 989.59,587.282 991.795,584.975 994.001,582.645 996.207,580.291 998.413,577.914 1000.62,575.513 1002.82,573.088 1005.03,570.639 1007.24,568.165 1009.44,565.667 1011.65,563.143 1013.85,560.593 1016.06,558.018 1018.26,555.418 1020.47,552.791 1022.68,550.137 1024.88,547.457 1027.09,544.75 1029.29,542.016 1031.5,539.254 1033.7,536.465 1035.91,533.647 1038.12,530.801 1040.32,527.926 1042.53,525.023 1044.73,522.09 1046.94,519.128 1049.15,516.136 1051.35,513.114 1053.56,510.061 1055.76,506.978 1057.97,503.863 1060.17,500.718 1062.38,497.541 1064.59,494.331 1066.79,491.09 1069,487.816 1071.2,650.527 1073.41,648.857 1075.61,647.17 1077.82,645.466 1080.03,643.745 1082.23,642.006 1084.44,640.25 1086.64,638.476 1088.85,636.685 1091.06,634.876 1093.26,633.048 1095.47,631.202 1097.67,629.337 1099.88,627.454 1102.08,625.552 1104.29,623.63 1106.5,621.69 1108.7,619.73 1110.91,617.75 1113.11,615.75 1115.32,613.731 1117.52,611.691 1119.73,609.63 1121.94,607.549 1124.14,605.447 1126.35,603.323 1128.55,601.179 1130.76,599.013 1132.96,596.825 1135.17,594.615 1137.38,592.383 1139.58,590.128 1141.79,587.851 1143.99,585.551 1146.2,583.227 1148.41,580.881 1150.61,578.51 1152.82,576.116 1155.02,573.698 1157.23,571.255 1159.43,568.788 1161.64,566.296 1163.85,563.779 1166.05,561.236 1168.26,558.668 1170.46,556.074 1172.67,553.454 1174.87,550.807 1177.08,548.134 1179.29,545.433 1181.49,542.706 1183.7,539.951 1185.9,537.168 1188.11,534.358 1190.31,531.519 1192.52,528.651 1194.73,525.754 1196.93,522.828 1199.14,519.873 1201.34,516.888 1203.55,513.873 1205.76,510.828 1207.96,507.752 1210.17,504.644 1212.37,501.506 1214.58,498.336 1216.78,495.134 1218.99,491.9 1221.2,488.634 1223.4,485.334 1225.61,482.002 1227.81,478.636 1230.02,475.236 1232.22,471.802 1234.43,468.333 1236.64,464.83 1238.84,461.292 1241.05,457.718 1243.25,454.108 1245.46,450.462 1247.66,446.779 1249.87,443.058 1252.08,439.301 1254.28,435.506 1256.49,431.672 1258.69,427.8 1260.9,423.889 1263.11,419.939 1265.31,415.949 1267.52,411.919 1269.72,407.848 1271.93,403.737 1274.13,399.584 1276.34,395.39 1278.55,391.153 1280.75,386.874 1282.96,382.552 1285.16,378.186 1287.37,373.777 1289.57,369.323 1291.78,364.825 1293.99,360.281 1296.19,355.692 1298.4,351.056 1300.6,346.374 1302.81,341.645 1305.01,336.868 1307.22,332.043 1309.43,327.17 1311.63,322.248 1313.84,317.276 1316.04,312.254 1318.25,307.181 1320.46,302.058 1322.66,296.882 1324.87,291.655 1327.07,286.375 1329.28,281.042 1331.48,275.655 1333.69,270.214 1335.9,264.718 1338.1,259.167 1340.31,253.56 1342.51,247.896 1344.72,242.175 1346.92,236.397 1349.13,230.56 1351.34,224.665 1353.54,218.71 1355.75,212.695 1357.95,206.62 1360.16,200.483 1362.36,194.285 1364.57,188.024 1366.78,181.7 1368.98,175.313 1371.19,168.861 1373.39,162.344 1375.6,155.761 1377.81,149.113 1380.01,142.397 1382.22,135.614 1384.42,128.763 1386.63,121.843 1388.83,114.853 1391.04,107.793 1393.25,100.663 1395.45,93.4603 1397.66,86.1857 1399.86,447.719 1402.07,444.008 1404.27,440.261 1406.48,436.475 1408.69,432.652 1410.89,428.79 1413.1,424.889 1415.3,420.949 1417.51,416.969 1419.71,412.949 1421.92,408.889 1424.13,404.788 1426.33,400.645 1428.54,396.461 1430.74,392.235 1432.95,387.967 1435.16,383.655 1437.36,379.3 1439.57,374.901 1441.77,370.458 1443.98,365.971 1446.18,361.438 1448.39,356.859 1450.6,352.235 1452.8,347.564 1455.01,342.846 1457.21,338.08 1459.42,333.267 1461.62,572.478 1463.83,570.023 1466.04,567.542 1468.24,565.037 1470.45,562.507 1472.65,559.951 1474.86,557.37 1477.06,554.763 1479.27,552.129 1481.48,549.469 1483.68,546.782 1485.89,544.068 1488.09,541.327 1490.3,538.559 1492.51,535.762 1494.71,532.937 1496.92,530.084 1499.12,527.203 1501.33,524.292 1503.53,521.352 1505.74,518.382 1507.95,515.383 1510.15,512.353 1512.36,509.293 1514.56,506.202 1516.77,503.08 1518.97,499.927 1521.18,496.742 1523.39,493.525 1525.59,490.275 1527.8,486.993 1530,483.678 1532.21,480.329 1534.41,476.947 1536.62,473.531 1538.83,470.08 1541.03,466.594 1543.24,463.074 1545.44,459.518 1547.65,455.926 1549.86,452.298 1552.06,448.634 1554.27,444.932 1556.47,441.194 1558.68,437.417 1560.88,433.603 1563.09,429.75 1565.3,425.859 1567.5,421.929 1569.71,417.959 1571.91,413.949 1574.12,409.898 1576.32,405.807 1578.53,401.675 1580.74,607.045 1582.94,604.937 1585.15,602.808 1587.35,600.658 1589.56,598.486 1591.76,596.292 1593.97,594.076 1596.18,591.838 1598.38,589.578 1600.59,587.294 1602.79,584.988 1605,582.658 1607.21,580.306 1609.41,577.929 1611.62,575.529 1613.82,573.104 1616.03,570.655 1618.23,568.181 1620.44,565.683 1622.65,563.159 1624.85,560.611 1627.06,558.036 1629.26,555.435 1631.47,552.809 1633.67,550.156 1635.88,547.476 1638.09,544.769 1640.29,542.036 1642.5,539.274 1644.7,536.485 1646.91,533.668 1649.12,530.822 1651.32,527.948 1653.53,525.045 1655.73,522.112 1657.94,519.15 1660.14,516.158 1662.35,513.137 1664.56,510.084 1666.76,507.001 1668.97,503.887 1671.17,500.742 1673.38,497.565 1675.58,494.356 1677.79,491.114 1680,487.84 1682.2,484.533 1684.41,481.193 1686.61,477.819 1688.82,474.411 1691.02,470.969 1693.23,467.492 1695.44,463.981 1697.64,460.433 1699.85,456.851 1702.05,453.232 1704.26,449.577 1706.47,445.885 1708.67,442.156 1710.88,627.487 1713.08,625.585 1715.29,623.664 1717.49,621.723 1719.7,619.763 1721.91,617.784 1724.11,615.784 1726.32,613.764 1728.52,611.724 1730.73,609.664 1732.93,607.583 1735.14,605.481 1737.35,603.357 1739.55,601.213 1741.76,599.046 1743.96,596.858 1746.17,594.648 1748.37,592.416 1750.58,590.161 1752.79,587.884 1754.99,585.584 1757.2,583.26 1759.4,580.913 1761.61,578.543 1763.82,576.149 1766.02,573.73 1768.23,571.287 1770.43,568.82 1772.64,566.328 1774.84,563.811 1777.05,561.268 1779.26,558.7 1781.46,556.106 1783.67,553.486 1785.87,550.84 1788.08,548.167 1790.28,545.467 1792.49,542.739 1794.7,539.985 1796.9,537.203 1799.11,675.476 1801.31,674.057 1803.52,672.624 1805.72,671.176 1807.93,669.714 1810.14,668.236 1812.34,666.744 1814.55,665.237 1816.75,663.715 1818.96,662.178 1821.17,660.625 1823.37,659.056 1825.58,657.472 1827.78,655.872 1829.99,654.255 1832.19,652.623 1834.4,650.974 1836.61,649.308 1838.81,647.626 1841.02,645.927 1843.22,644.21 1845.43,642.477 1847.63,640.725 1849.84,638.957 1852.05,637.17 1854.25,635.366 1856.46,633.543 1858.66,631.702 1860.87,629.843 1863.07,627.964 1865.28,626.067 1867.49,624.151 1869.69,622.216 1871.9,620.261 1874.1,618.286 1876.31,616.291 1878.52,614.277 1880.72,612.242 1882.93,610.187 1885.13,608.111 1887.34,606.014 1889.54,603.896 1891.75,601.756 1893.96,599.595 1896.16,597.413 1898.37,705.885 1900.57,704.772 1902.78,703.647 1904.98,702.511 1907.19,701.364 1909.4,700.205 1911.6,699.035 1913.81,697.853 1916.01,696.659 1918.22,695.453 1920.42,694.235 1922.63,693.004 1924.84,691.761 1927.04,690.506 1929.25,689.238 1931.45,687.958 1933.66,686.664 1935.87,685.357 1938.07,684.038 1940.28,682.705 1942.48,681.358 1944.69,679.998 1946.89,678.625 1949.1,677.237 1951.31,675.836 1953.51,674.42 1955.72,672.991 1957.92,671.546 1960.13,670.088 1962.33,668.614 1964.54,667.126 1966.75,665.623 1968.95,664.105 1971.16,662.571 1973.36,661.022 1975.57,659.458 1977.77,657.877 1979.98,656.281 1982.19,654.669 1984.39,653.04 1986.6,651.395 1988.8,733.143 1991.01,732.304 1993.22,731.457 1995.42,730.601 1997.63,729.737 1999.83,728.863 2002.04,727.981 2004.24,727.09 2006.45,726.19 2008.66,770.911 2010.86,770.452 2013.07,769.988 2015.27,769.519 2017.48,769.046 2019.68,768.568 2021.89,768.086 2024.1,767.598 2026.3,767.106 2028.51,766.609 2030.71,766.106 2032.92,765.599 2035.12,765.086 2037.33,764.569 2039.54,764.046 2041.74,763.518 2043.95,762.984 2046.15,762.446 2048.36,761.901 2050.57,761.352 2052.77,760.797 2054.98,760.236 2057.18,759.67 2059.39,759.098 2061.59,758.52 2063.8,757.937 2066.01,757.347 2068.21,756.752 2070.42,756.151 2072.62,755.543 2074.83,754.93 2077.03,754.31 2079.24,753.685 2081.45,753.053 2083.65,752.414 2085.86,751.769 2088.06,751.118 2090.27,750.46 2092.47,749.796 2094.68,749.124 2096.89,748.447 2099.09,747.762 2101.3,747.07 2103.5,746.371 2105.71,745.666 2107.92,744.953 2110.12,744.233 2112.33,743.506 2114.53,742.771 2116.74,742.029 2118.94,741.28 2121.15,740.523 2123.36,739.758 2125.56,738.986 2127.77,738.206 2129.97,737.418 2132.18,736.622 2134.38,735.818 2136.59,735.006 2138.8,734.186 2141,733.357 2143.21,732.52 2145.41,731.675 2147.62,730.821 2149.82,729.958 2152.03,729.087 2154.24,728.207 2156.44,727.318 2158.65,726.42 2160.85,725.513 2163.06,724.597 2165.27,723.672 2167.47,722.738 2169.68,721.794 2171.88,720.84 2174.09,719.877 2176.29,718.904 2178.5,717.921 2180.71,716.929 2182.91,715.926 2185.12,714.914 2187.32,713.891 2189.53,712.858 2191.73,711.815 2193.94,710.761 2196.15,709.696 2198.35,708.621 2200.56,707.535 2202.76,706.439 2204.97,705.331 2207.18,704.212 2209.38,703.082 2211.59,701.94 2213.79,700.788 2216,699.623 2218.2,698.447 2220.41,697.259 2222.62,696.059 2224.82,694.847 2227.03,693.622 2229.23,692.386 2231.44,691.137 2233.64,689.875 2235.85,688.601 2238.06,687.314 2240.26,751.277 2242.47,750.62 2244.67,749.957 2246.88,749.287 2249.08,748.611 2251.29,747.927 2253.5,747.237 2255.7,746.54 2257.91,745.836 2260.11,745.124 2262.32,744.406 2264.53,743.68 2266.73,742.947 2268.94,742.207 2271.14,741.459 2273.35,740.704 2275.55,739.941 2277.76,739.17 2279.97,738.392 2282.17,737.606 2284.38,736.812 2286.58,736.009 2288.79,735.199 2290.99,734.381 2293.2,733.555 2295.41,732.72 2297.61,731.876 2299.82,731.025 2302.02,730.164 2304.23,729.296 2306.43,728.418 2308.64,727.531 2310.85,726.636 2313.05,725.731 2315.26,724.818 2317.46,723.895 2319.67,722.963 2321.88,722.022 2324.08,721.071 2326.29,720.11 2328.49,719.14 2330.7,718.16 2332.9,717.17 2335.11,716.171 2337.32,715.161 2339.52,714.141 2341.73,713.111 2343.93,712.07 2346.14,711.019 2348.34,709.958 2350.55,708.885 2352.76,707.802 "/>
<polyline clip-path="url(#clip102)" style="stroke:#e26f46; stroke-linecap:round; stroke-linejoin:round; stroke-width:8; stroke-opacity:1; fill:none" points="149.191,858.713 151.397,858.509 153.602,858.304 155.808,858.096 158.014,857.886 160.22,857.674 162.425,857.46 164.631,857.244 166.837,857.026 169.043,856.805 171.249,856.582 173.454,856.357 175.66,856.13 177.866,855.901 180.072,855.669 182.277,855.435 184.483,855.198 186.689,854.959 188.895,854.718 191.101,854.474 193.306,854.228 195.512,853.979 197.718,853.728 199.924,853.474 202.129,853.218 204.335,852.959 206.541,852.698 208.747,852.434 210.952,852.167 213.158,851.898 215.364,851.625 217.57,851.351 219.776,851.073 221.981,850.793 224.187,850.509 226.393,850.223 228.599,849.934 230.804,849.642 233.01,849.348 235.216,849.05 237.422,848.749 239.627,848.445 241.833,848.138 244.039,847.828 246.245,847.515 248.451,847.199 250.656,846.88 252.862,846.557 255.068,846.231 257.274,845.902 259.479,845.57 261.685,845.234 263.891,844.895 266.097,844.552 268.302,844.206 270.508,843.857 272.714,843.504 274.92,843.147 277.126,842.787 279.331,842.423 281.537,842.056 283.743,841.685 285.949,841.31 288.154,840.931 290.36,840.549 292.566,840.162 294.772,839.772 296.978,839.378 299.183,838.98 301.389,838.578 303.595,838.172 305.801,837.762 308.006,837.347 310.212,836.929 312.418,836.506 314.624,836.079 316.829,835.648 319.035,835.212 321.241,834.772 323.447,834.328 325.653,833.879 327.858,833.426 330.064,832.968 332.27,832.505 334.476,832.038 336.681,831.566 338.887,831.089 341.093,830.608 343.299,830.121 345.504,829.63 347.71,829.134 349.916,828.633 352.122,828.127 354.328,827.616 356.533,827.099 358.739,826.578 360.945,826.051 363.151,825.519 365.356,824.981 367.562,824.438 369.768,823.89 371.974,823.336 374.179,822.776 376.385,822.211 378.591,821.641 380.797,821.064 383.003,820.482 385.208,819.894 387.414,819.299 389.62,818.699 391.826,818.093 394.031,817.481 396.237,816.863 398.443,906.193 400.649,905.877 402.855,905.559 405.06,905.237 407.266,904.912 409.472,904.584 411.678,904.252 413.883,903.917 416.089,903.579 418.295,903.237 420.501,902.892 422.706,902.543 424.912,902.191 427.118,901.835 429.324,901.476 431.53,901.113 433.735,900.747 435.941,900.376 438.147,900.002 440.353,899.625 442.558,899.243 444.764,898.858 446.97,898.469 449.176,898.075 451.381,897.678 453.587,897.277 455.793,896.872 457.999,896.463 460.205,896.05 462.41,895.632 464.616,895.211 466.822,894.785 469.028,894.354 471.233,893.92 473.439,893.481 475.645,893.038 477.851,892.59 480.056,892.138 482.262,891.681 484.468,891.219 486.674,890.753 488.88,890.282 491.085,889.807 493.291,889.327 495.497,888.842 497.703,888.352 499.908,887.857 502.114,887.357 504.32,886.852 506.526,886.342 508.732,885.827 510.937,885.306 513.143,884.781 515.349,884.25 517.555,883.714 519.76,883.172 521.966,882.625 524.172,882.072 526.378,881.514 528.583,880.951 530.789,880.381 532.995,879.806 535.201,879.225 537.407,878.639 539.612,878.046 541.818,877.448 544.024,876.843 546.23,876.232 548.435,875.616 550.641,874.993 552.847,874.363 555.053,873.728 557.258,873.086 559.464,872.437 561.67,871.782 563.876,871.121 566.082,870.452 568.287,869.778 570.493,869.096 572.699,868.407 574.905,867.712 577.11,867.009 579.316,866.299 581.522,865.583 583.728,864.859 585.933,864.127 588.139,863.389 590.345,862.643 592.551,861.889 594.757,861.128 596.962,860.359 599.168,859.583 601.374,858.798 603.58,858.006 605.785,857.206 607.991,856.397 610.197,855.581 612.403,854.756 614.609,853.923 616.814,853.082 619.02,852.232 621.226,851.374 623.432,850.507 625.637,849.631 627.843,848.747 630.049,847.853 632.255,846.951 634.46,846.04 636.666,845.119 638.872,844.189 641.078,843.25 643.284,842.301 645.489,841.343 647.695,840.375 649.901,839.398 652.107,838.41 654.312,837.413 656.518,836.405 658.724,835.388 660.93,834.36 663.135,833.322 665.341,832.274 667.547,831.215 669.753,830.145 671.959,829.064 674.164,827.973 676.37,826.871 678.576,825.757 680.782,824.633 682.987,823.497 685.193,822.349 687.399,821.19 689.605,820.02 691.81,818.837 694.016,817.643 696.222,1085.44 698.428,1084.83 700.634,1084.21 702.839,1083.59 705.045,1082.96 707.251,1082.33 709.457,1081.69 711.662,1081.04 713.868,1080.39 716.074,1079.73 718.28,1079.06 720.486,1078.39 722.691,1077.71 724.897,1077.02 727.103,1076.33 729.309,1075.63 731.514,1074.92 733.72,1074.2 735.926,1073.48 738.132,1072.75 740.337,1072.01 742.543,1071.27 744.749,1070.52 746.955,1069.76 749.161,1068.99 751.366,1068.22 753.572,1067.44 755.778,1066.65 757.984,1065.85 760.189,1065.04 762.395,1064.23 764.601,1063.4 766.807,1062.57 769.012,1061.73 771.218,1060.89 773.424,1060.03 775.63,1059.17 777.836,1058.29 780.041,1057.41 782.247,1056.52 784.453,1055.62 786.659,1054.71 788.864,1053.79 791.07,1052.86 793.276,1051.93 795.482,1050.98 797.687,1050.02 799.893,1049.06 802.099,1048.08 804.305,1047.1 806.511,1046.1 808.716,1045.1 810.922,1044.08 813.128,1043.06 815.334,1042.02 817.539,1040.98 819.745,1039.92 821.951,1038.85 824.157,1037.78 826.363,1036.69 828.568,1035.59 830.774,1034.48 832.98,1033.35 835.186,1032.22 837.391,1031.08 839.597,1029.92 841.803,1028.75 844.009,1027.57 846.214,1026.38 848.42,1025.18 850.626,1023.96 852.832,1022.74 855.038,1021.49 857.243,1020.24 859.449,1018.98 861.655,1017.7 863.861,1016.41 866.066,1015.11 868.272,1013.79 870.478,1012.46 872.684,1011.12 874.889,1009.76 877.095,1008.39 879.301,1007 881.507,1005.61 883.713,1004.19 885.918,1002.77 888.124,1001.33 890.33,999.873 892.536,998.403 894.741,996.919 896.947,995.419 899.153,993.905 901.359,992.375 903.564,990.83 905.77,989.27 907.976,987.694 910.182,986.101 912.388,984.493 914.593,982.869 916.799,981.228 919.005,979.571 921.211,977.897 923.416,976.206 925.622,974.499 927.828,972.774 930.034,971.031 932.24,969.271 934.445,967.494 936.651,965.698 938.857,963.884 941.063,962.052 943.268,960.202 945.474,958.333 947.68,956.445 949.886,954.538 952.091,952.612 954.297,950.666 956.503,948.701 958.709,946.716 960.915,944.711 963.12,942.686 965.326,940.64 967.532,938.574 969.738,936.487 971.943,934.379 974.149,932.249 976.355,930.098 978.561,927.926 980.766,925.732 982.972,923.515 985.178,921.277 987.384,919.016 989.59,916.732 991.795,914.425 994.001,912.095 996.207,909.741 998.413,907.364 1000.62,904.964 1002.82,902.539 1005.03,900.089 1007.24,897.615 1009.44,895.117 1011.65,892.593 1013.85,890.044 1016.06,887.469 1018.26,884.868 1020.47,882.241 1022.68,879.587 1024.88,876.907 1027.09,874.2 1029.29,871.466 1031.5,868.704 1033.7,865.915 1035.91,863.097 1038.12,860.251 1040.32,857.376 1042.53,854.473 1044.73,851.54 1046.94,848.578 1049.15,845.586 1051.35,842.564 1053.56,839.511 1055.76,836.428 1057.97,833.314 1060.17,830.168 1062.38,826.991 1064.59,823.781 1066.79,820.54 1069,817.266 1071.2,1384.24 1073.41,1382.57 1075.61,1380.88 1077.82,1379.18 1080.03,1377.46 1082.23,1375.72 1084.44,1373.96 1086.64,1372.19 1088.85,1370.4 1091.06,1368.59 1093.26,1366.76 1095.47,1364.91 1097.67,1363.05 1099.88,1361.17 1102.08,1359.26 1104.29,1357.34 1106.5,1355.4 1108.7,1353.44 1110.91,1351.46 1113.11,1349.46 1115.32,1347.44 1117.52,1345.4 1119.73,1343.34 1121.94,1341.26 1124.14,1339.16 1126.35,1337.03 1128.55,1334.89 1130.76,1332.72 1132.96,1330.54 1135.17,1328.33 1137.38,1326.09 1139.58,1323.84 1141.79,1321.56 1143.99,1319.26 1146.2,1316.94 1148.41,1314.59 1150.61,1312.22 1152.82,1309.83 1155.02,1307.41 1157.23,1304.97 1159.43,1302.5 1161.64,1300.01 1163.85,1297.49 1166.05,1294.95 1168.26,1292.38 1170.46,1289.79 1172.67,1287.16 1174.87,1284.52 1177.08,1281.84 1179.29,1279.14 1181.49,1276.42 1183.7,1273.66 1185.9,1270.88 1188.11,1268.07 1190.31,1265.23 1192.52,1262.36 1194.73,1259.47 1196.93,1256.54 1199.14,1253.58 1201.34,1250.6 1203.55,1247.58 1205.76,1244.54 1207.96,1241.46 1210.17,1238.36 1212.37,1235.22 1214.58,1232.05 1216.78,1228.85 1218.99,1225.61 1221.2,1222.34 1223.4,1219.05 1225.61,1215.71 1227.81,1212.35 1230.02,1208.95 1232.22,1205.51 1234.43,1202.04 1236.64,1198.54 1238.84,1195 1241.05,1191.43 1243.25,1187.82 1245.46,1184.17 1247.66,1180.49 1249.87,1176.77 1252.08,1173.01 1254.28,1169.22 1256.49,1165.38 1258.69,1161.51 1260.9,1157.6 1263.11,1153.65 1265.31,1149.66 1267.52,1145.63 1269.72,1141.56 1271.93,1137.45 1274.13,1133.3 1276.34,1129.1 1278.55,1124.86 1280.75,1120.59 1282.96,1116.26 1285.16,1111.9 1287.37,1107.49 1289.57,1103.03 1291.78,1098.54 1293.99,1093.99 1296.19,1089.4 1298.4,1084.77 1300.6,1080.09 1302.81,1075.36 1305.01,1070.58 1307.22,1065.75 1309.43,1060.88 1311.63,1055.96 1313.84,1050.99 1316.04,1045.96 1318.25,1040.89 1320.46,1035.77 1322.66,1030.59 1324.87,1025.37 1327.07,1020.09 1329.28,1014.75 1331.48,1009.37 1333.69,1003.93 1335.9,998.43 1338.1,992.878 1340.31,987.271 1342.51,981.608 1344.72,975.887 1346.92,970.108 1349.13,964.272 1351.34,958.376 1353.54,952.421 1355.75,946.407 1357.95,940.331 1360.16,934.195 1362.36,927.996 1364.57,921.735 1366.78,915.411 1368.98,909.024 1371.19,902.572 1373.39,896.055 1375.6,889.473 1377.81,882.824 1380.01,876.109 1382.22,869.325 1384.42,862.474 1386.63,855.554 1388.83,848.564 1391.04,841.505 1393.25,834.374 1395.45,827.172 1397.66,819.897 1399.86,935.072 1402.07,931.361 1404.27,927.614 1406.48,923.828 1408.69,920.005 1410.89,916.142 1413.1,912.242 1415.3,908.301 1417.51,904.322 1419.71,900.302 1421.92,896.242 1424.13,892.141 1426.33,887.998 1428.54,883.814 1430.74,879.588 1432.95,875.32 1435.16,871.008 1437.36,866.653 1439.57,862.254 1441.77,857.811 1443.98,853.324 1446.18,848.791 1448.39,844.212 1450.6,839.588 1452.8,834.917 1455.01,830.199 1457.21,825.433 1459.42,820.62 1461.62,989.997 1463.83,987.542 1466.04,985.062 1468.24,982.557 1470.45,980.026 1472.65,977.471 1474.86,974.889 1477.06,972.282 1479.27,969.648 1481.48,966.988 1483.68,964.301 1485.89,961.587 1488.09,958.846 1490.3,956.078 1492.51,953.281 1494.71,950.456 1496.92,947.603 1499.12,944.722 1501.33,941.811 1503.53,938.871 1505.74,935.901 1507.95,932.902 1510.15,929.872 1512.36,926.812 1514.56,923.722 1516.77,920.6 1518.97,917.446 1521.18,914.261 1523.39,911.044 1525.59,907.795 1527.8,904.512 1530,901.197 1532.21,897.848 1534.41,894.466 1536.62,891.05 1538.83,887.599 1541.03,884.114 1543.24,880.593 1545.44,877.037 1547.65,873.445 1549.86,869.817 1552.06,866.153 1554.27,862.451 1556.47,858.713 1558.68,854.936 1560.88,851.122 1563.09,847.27 1565.3,843.378 1567.5,839.448 1569.71,835.478 1571.91,831.468 1574.12,827.417 1576.32,823.326 1578.53,819.194 1580.74,982.979 1582.94,980.871 1585.15,978.742 1587.35,976.592 1589.56,974.42 1591.76,972.226 1593.97,970.01 1596.18,967.772 1598.38,965.512 1600.59,963.228 1602.79,960.922 1605,958.592 1607.21,956.24 1609.41,953.863 1611.62,951.463 1613.82,949.038 1616.03,946.589 1618.23,944.115 1620.44,941.617 1622.65,939.093 1624.85,936.545 1627.06,933.97 1629.26,931.37 1631.47,928.743 1633.67,926.09 1635.88,923.41 1638.09,920.703 1640.29,917.97 1642.5,915.208 1644.7,912.419 1646.91,909.602 1649.12,906.756 1651.32,903.882 1653.53,900.979 1655.73,898.046 1657.94,895.084 1660.14,892.093 1662.35,889.071 1664.56,886.018 1666.76,882.935 1668.97,879.821 1671.17,876.676 1673.38,873.499 1675.58,870.29 1677.79,867.048 1680,863.774 1682.2,860.467 1684.41,857.127 1686.61,853.753 1688.82,850.345 1691.02,846.903 1693.23,843.426 1695.44,839.915 1697.64,836.367 1699.85,832.785 1702.05,829.166 1704.26,825.511 1706.47,821.819 1708.67,818.09 1710.88,907.449 1713.08,905.548 1715.29,903.626 1717.49,901.686 1719.7,899.726 1721.91,897.746 1724.11,895.747 1726.32,893.727 1728.52,891.687 1730.73,889.627 1732.93,887.545 1735.14,885.443 1737.35,883.32 1739.55,881.175 1741.76,879.009 1743.96,876.821 1746.17,874.611 1748.37,872.379 1750.58,870.124 1752.79,867.847 1754.99,865.546 1757.2,863.223 1759.4,860.876 1761.61,858.506 1763.82,856.111 1766.02,853.693 1768.23,851.25 1770.43,848.783 1772.64,846.291 1774.84,843.773 1777.05,841.231 1779.26,838.663 1781.46,836.069 1783.67,833.449 1785.87,830.802 1788.08,828.129 1790.28,825.429 1792.49,822.702 1794.7,819.948 1796.9,817.165 1799.11,896.186 1801.31,894.767 1803.52,893.333 1805.72,891.885 1807.93,890.423 1810.14,888.946 1812.34,887.454 1814.55,885.947 1816.75,884.425 1818.96,882.887 1821.17,881.334 1823.37,879.766 1825.58,878.181 1827.78,876.581 1829.99,874.965 1832.19,873.332 1834.4,871.683 1836.61,870.018 1838.81,868.335 1841.02,866.636 1843.22,864.919 1845.43,863.186 1847.63,861.435 1849.84,859.666 1852.05,857.88 1854.25,856.075 1856.46,854.252 1858.66,852.411 1860.87,850.552 1863.07,848.674 1865.28,846.777 1867.49,844.86 1869.69,842.925 1871.9,840.97 1874.1,838.995 1876.31,837.001 1878.52,834.986 1880.72,832.951 1882.93,830.896 1885.13,828.82 1887.34,826.723 1889.54,824.605 1891.75,822.466 1893.96,820.305 1896.16,818.122 1898.37,871.731 1900.57,870.618 1902.78,869.493 1904.98,868.357 1907.19,867.21 1909.4,866.052 1911.6,864.881 1913.81,863.699 1916.01,862.505 1918.22,861.299 1920.42,860.081 1922.63,858.85 1924.84,857.608 1927.04,856.352 1929.25,855.084 1931.45,853.804 1933.66,852.51 1935.87,851.203 1938.07,849.884 1940.28,848.551 1942.48,847.204 1944.69,845.844 1946.89,844.471 1949.1,843.083 1951.31,841.682 1953.51,840.266 1955.72,838.837 1957.92,837.392 1960.13,835.934 1962.33,834.46 1964.54,832.972 1966.75,831.469 1968.95,829.951 1971.16,828.417 1973.36,826.868 1975.57,825.304 1977.77,823.723 1979.98,822.127 1982.19,820.515 1984.39,818.886 1986.6,817.241 1988.8,823.758 1991.01,822.919 1993.22,822.072 1995.42,821.216 1997.63,820.351 1999.83,819.478 2002.04,818.596 2004.24,817.705 2006.45,816.805 2008.66,900.877 2010.86,900.418 2013.07,899.954 2015.27,899.485 2017.48,899.012 2019.68,898.535 2021.89,898.052 2024.1,897.564 2026.3,897.072 2028.51,896.575 2030.71,896.072 2032.92,895.565 2035.12,895.052 2037.33,894.535 2039.54,894.012 2041.74,893.484 2043.95,892.95 2046.15,892.412 2048.36,891.867 2050.57,891.318 2052.77,890.763 2054.98,890.202 2057.18,889.636 2059.39,889.064 2061.59,888.486 2063.8,887.903 2066.01,887.313 2068.21,886.718 2070.42,886.117 2072.62,885.509 2074.83,884.896 2077.03,884.276 2079.24,883.651 2081.45,883.019 2083.65,882.38 2085.86,881.735 2088.06,881.084 2090.27,880.426 2092.47,879.762 2094.68,879.09 2096.89,878.413 2099.09,877.728 2101.3,877.036 2103.5,876.337 2105.71,875.632 2107.92,874.919 2110.12,874.199 2112.33,873.472 2114.53,872.737 2116.74,871.995 2118.94,871.246 2121.15,870.489 2123.36,869.724 2125.56,868.952 2127.77,868.172 2129.97,867.384 2132.18,866.588 2134.38,865.784 2136.59,864.972 2138.8,864.152 2141,863.323 2143.21,862.486 2145.41,861.641 2147.62,860.787 2149.82,859.924 2152.03,859.053 2154.24,858.173 2156.44,857.284 2158.65,856.386 2160.85,855.48 2163.06,854.563 2165.27,853.638 2167.47,852.704 2169.68,851.76 2171.88,850.806 2174.09,849.843 2176.29,848.87 2178.5,847.887 2180.71,846.895 2182.91,845.892 2185.12,844.88 2187.32,843.857 2189.53,842.824 2191.73,841.781 2193.94,840.727 2196.15,839.662 2198.35,838.587 2200.56,837.501 2202.76,836.405 2204.97,835.297 2207.18,834.178 2209.38,833.048 2211.59,831.907 2213.79,830.754 2216,829.589 2218.2,828.413 2220.41,827.225 2222.62,826.025 2224.82,824.813 2227.03,823.588 2229.23,822.352 2231.44,821.103 2233.64,819.841 2235.85,818.567 2238.06,817.28 2240.26,958.047 2242.47,957.391 2244.67,956.728 2246.88,956.058 2249.08,955.381 2251.29,954.698 2253.5,954.007 2255.7,953.31 2257.91,952.606 2260.11,951.895 2262.32,951.176 2264.53,950.451 2266.73,949.718 2268.94,948.977 2271.14,948.229 2273.35,947.474 2275.55,946.711 2277.76,945.941 2279.97,945.162 2282.17,944.376 2284.38,943.582 2286.58,942.78 2288.79,941.97 2290.99,941.151 2293.2,940.325 2295.41,939.49 2297.61,938.647 2299.82,937.795 2302.02,936.935 2304.23,936.066 2306.43,935.188 2308.64,934.302 2310.85,933.406 2313.05,932.502 2315.26,931.588 2317.46,930.666 2319.67,929.733 2321.88,928.792 2324.08,927.841 2326.29,926.881 2328.49,925.911 2330.7,924.931 2332.9,923.941 2335.11,922.941 2337.32,921.931 2339.52,920.911 2341.73,919.881 2343.93,918.841 2346.14,917.79 2348.34,916.728 2350.55,915.656 2352.76,914.573 "/>
<path clip-path="url(#clip100)" d="M1969.85 248.629 L2279.3 248.629 L2279.3 93.1086 L1969.85 93.1086  Z" fill="#ffffff" fill-rule="evenodd" fill-opacity="1"/>
<polyline clip-path="url(#clip100)" style="stroke:#000000; stroke-linecap:round; stroke-linejoin:round; stroke-width:4; stroke-opacity:1; fill:none" points="1969.85,248.629 2279.3,248.629 2279.3,93.1086 1969.85,93.1086 1969.85,248.629 "/>
<polyline clip-path="url(#clip100)" style="stroke:#009af9; stroke-linecap:round; stroke-linejoin:round; stroke-width:8; stroke-opacity:1; fill:none" points="1994.33,144.949 2141.24,144.949 "/>
<path clip-path="url(#clip100)" d="M2165.72 151.997 L2165.72 136.303 L2169.98 136.303 L2169.98 151.835 Q2169.98 155.516 2171.42 157.368 Q2172.85 159.196 2175.72 159.196 Q2179.17 159.196 2181.16 156.997 Q2183.18 154.798 2183.18 151.002 L2183.18 136.303 L2187.44 136.303 L2187.44 162.229 L2183.18 162.229 L2183.18 158.247 Q2181.63 160.608 2179.57 161.766 Q2177.53 162.9 2174.82 162.9 Q2170.35 162.9 2168.04 160.122 Q2165.72 157.344 2165.72 151.997 M2176.44 135.678 L2176.44 135.678 Z" fill="#000000" fill-rule="nonzero" fill-opacity="1" /><path clip-path="url(#clip100)" d="M2195.82 126.21 L2205.63 126.21 L2205.63 129.52 L2200.07 129.52 L2200.07 165.168 L2205.63 165.168 L2205.63 168.479 L2195.82 168.479 L2195.82 126.21 Z" fill="#000000" fill-rule="nonzero" fill-opacity="1" /><path clip-path="url(#clip100)" d="M2216.12 158.293 L2223.76 158.293 L2223.76 131.928 L2215.44 133.595 L2215.44 129.335 L2223.71 127.669 L2228.38 127.669 L2228.38 158.293 L2236.02 158.293 L2236.02 162.229 L2216.12 162.229 L2216.12 158.293 Z" fill="#000000" fill-rule="nonzero" fill-opacity="1" /><path clip-path="url(#clip100)" d="M2254.82 126.21 L2254.82 168.479 L2245 168.479 L2245 165.168 L2250.54 165.168 L2250.54 129.52 L2245 129.52 L2245 126.21 L2254.82 126.21 Z" fill="#000000" fill-rule="nonzero" fill-opacity="1" /><polyline clip-path="url(#clip100)" style="stroke:#e26f46; stroke-linecap:round; stroke-linejoin:round; stroke-width:8; stroke-opacity:1; fill:none" points="1994.33,196.789 2141.24,196.789 "/>
<path clip-path="url(#clip100)" d="M2165.72 203.837 L2165.72 188.143 L2169.98 188.143 L2169.98 203.675 Q2169.98 207.356 2171.42 209.208 Q2172.85 211.036 2175.72 211.036 Q2179.17 211.036 2181.16 208.837 Q2183.18 206.638 2183.18 202.842 L2183.18 188.143 L2187.44 188.143 L2187.44 214.069 L2183.18 214.069 L2183.18 210.087 Q2181.63 212.448 2179.57 213.606 Q2177.53 214.74 2174.82 214.74 Q2170.35 214.74 2168.04 211.962 Q2165.72 209.184 2165.72 203.837 M2176.44 187.518 L2176.44 187.518 Z" fill="#000000" fill-rule="nonzero" fill-opacity="1" /><path clip-path="url(#clip100)" d="M2195.82 178.05 L2205.63 178.05 L2205.63 181.36 L2200.07 181.36 L2200.07 217.008 L2205.63 217.008 L2205.63 220.319 L2195.82 220.319 L2195.82 178.05 Z" fill="#000000" fill-rule="nonzero" fill-opacity="1" /><path clip-path="url(#clip100)" d="M2219.33 210.133 L2235.65 210.133 L2235.65 214.069 L2213.71 214.069 L2213.71 210.133 Q2216.37 207.379 2220.95 202.749 Q2225.56 198.096 2226.74 196.754 Q2228.99 194.231 2229.87 192.495 Q2230.77 190.735 2230.77 189.046 Q2230.77 186.291 2228.82 184.555 Q2226.9 182.819 2223.8 182.819 Q2221.6 182.819 2219.15 183.583 Q2216.72 184.347 2213.94 185.897 L2213.94 181.175 Q2216.76 180.041 2219.22 179.462 Q2221.67 178.884 2223.71 178.884 Q2229.08 178.884 2232.27 181.569 Q2235.47 184.254 2235.47 188.745 Q2235.47 190.874 2234.66 192.796 Q2233.87 194.694 2231.76 197.286 Q2231.19 197.958 2228.08 201.175 Q2224.98 204.37 2219.33 210.133 Z" fill="#000000" fill-rule="nonzero" fill-opacity="1" /><path clip-path="url(#clip100)" d="M2254.82 178.05 L2254.82 220.319 L2245 220.319 L2245 217.008 L2250.54 217.008 L2250.54 181.36 L2245 181.36 L2245 178.05 L2254.82 178.05 Z" fill="#000000" fill-rule="nonzero" fill-opacity="1" /></svg>
