<?xml version="1.0" encoding="utf-8"?>
<svg xmlns="http://www.w3.org/2000/svg" xmlns:xlink="http://www.w3.org/1999/xlink" width="600" height="400" viewBox="0 0 2400 1600">
<defs>
  <clipPath id="clip920">
    <rect x="0" y="0" width="2400" height="1600"/>
  </clipPath>
</defs>
<path clip-path="url(#clip920)" d="M0 1600 L2400 1600 L2400 0 L0 0  Z" fill="#ffffff" fill-rule="evenodd" fill-opacity="1"/>
<defs>
  <clipPath id="clip921">
    <rect x="480" y="0" width="1681" height="1600"/>
  </clipPath>
</defs>
<path clip-path="url(#clip920)" d="M140.696 1423.18 L2352.76 1423.18 L2352.76 47.2441 L140.696 47.2441  Z" fill="#ffffff" fill-rule="evenodd" fill-opacity="1"/>
<defs>
  <clipPath id="clip922">
    <rect x="140" y="47" width="2213" height="1377"/>
  </clipPath>
</defs>
<polyline clip-path="url(#clip922)" style="stroke:#000000; stroke-linecap:round; stroke-linejoin:round; stroke-width:2; stroke-opacity:0.1; fill:none" points="140.696,1423.18 140.696,47.2441 "/>
<polyline clip-path="url(#clip922)" style="stroke:#000000; stroke-linecap:round; stroke-linejoin:round; stroke-width:2; stroke-opacity:0.1; fill:none" points="583.108,1423.18 583.108,47.2441 "/>
<polyline clip-path="url(#clip922)" style="stroke:#000000; stroke-linecap:round; stroke-linejoin:round; stroke-width:2; stroke-opacity:0.1; fill:none" points="1025.52,1423.18 1025.52,47.2441 "/>
<polyline clip-path="url(#clip922)" style="stroke:#000000; stroke-linecap:round; stroke-linejoin:round; stroke-width:2; stroke-opacity:0.1; fill:none" points="1467.93,1423.18 1467.93,47.2441 "/>
<polyline clip-path="url(#clip922)" style="stroke:#000000; stroke-linecap:round; stroke-linejoin:round; stroke-width:2; stroke-opacity:0.1; fill:none" points="1910.34,1423.18 1910.34,47.2441 "/>
<polyline clip-path="url(#clip922)" style="stroke:#000000; stroke-linecap:round; stroke-linejoin:round; stroke-width:2; stroke-opacity:0.1; fill:none" points="2352.76,1423.18 2352.76,47.2441 "/>
<polyline clip-path="url(#clip922)" style="stroke:#000000; stroke-linecap:round; stroke-linejoin:round; stroke-width:2; stroke-opacity:0.1; fill:none" points="140.696,1384.24 2352.76,1384.24 "/>
<polyline clip-path="url(#clip922)" style="stroke:#000000; stroke-linecap:round; stroke-linejoin:round; stroke-width:2; stroke-opacity:0.1; fill:none" points="140.696,1143.86 2352.76,1143.86 "/>
<polyline clip-path="url(#clip922)" style="stroke:#000000; stroke-linecap:round; stroke-linejoin:round; stroke-width:2; stroke-opacity:0.1; fill:none" points="140.696,903.478 2352.76,903.478 "/>
<polyline clip-path="url(#clip922)" style="stroke:#000000; stroke-linecap:round; stroke-linejoin:round; stroke-width:2; stroke-opacity:0.1; fill:none" points="140.696,663.098 2352.76,663.098 "/>
<polyline clip-path="url(#clip922)" style="stroke:#000000; stroke-linecap:round; stroke-linejoin:round; stroke-width:2; stroke-opacity:0.1; fill:none" points="140.696,422.718 2352.76,422.718 "/>
<polyline clip-path="url(#clip922)" style="stroke:#000000; stroke-linecap:round; stroke-linejoin:round; stroke-width:2; stroke-opacity:0.1; fill:none" points="140.696,182.338 2352.76,182.338 "/>
<polyline clip-path="url(#clip920)" style="stroke:#000000; stroke-linecap:round; stroke-linejoin:round; stroke-width:4; stroke-opacity:1; fill:none" points="140.696,1423.18 2352.76,1423.18 "/>
<polyline clip-path="url(#clip920)" style="stroke:#000000; stroke-linecap:round; stroke-linejoin:round; stroke-width:4; stroke-opacity:1; fill:none" points="140.696,1423.18 140.696,1404.28 "/>
<polyline clip-path="url(#clip920)" style="stroke:#000000; stroke-linecap:round; stroke-linejoin:round; stroke-width:4; stroke-opacity:1; fill:none" points="583.108,1423.18 583.108,1404.28 "/>
<polyline clip-path="url(#clip920)" style="stroke:#000000; stroke-linecap:round; stroke-linejoin:round; stroke-width:4; stroke-opacity:1; fill:none" points="1025.52,1423.18 1025.52,1404.28 "/>
<polyline clip-path="url(#clip920)" style="stroke:#000000; stroke-linecap:round; stroke-linejoin:round; stroke-width:4; stroke-opacity:1; fill:none" points="1467.93,1423.18 1467.93,1404.28 "/>
<polyline clip-path="url(#clip920)" style="stroke:#000000; stroke-linecap:round; stroke-linejoin:round; stroke-width:4; stroke-opacity:1; fill:none" points="1910.34,1423.18 1910.34,1404.28 "/>
<polyline clip-path="url(#clip920)" style="stroke:#000000; stroke-linecap:round; stroke-linejoin:round; stroke-width:4; stroke-opacity:1; fill:none" points="2352.76,1423.18 2352.76,1404.28 "/>
<path clip-path="url(#clip920)" d="M140.696 1454.1 Q137.084 1454.1 135.256 1457.66 Q133.45 1461.2 133.45 1468.33 Q133.45 1475.44 135.256 1479.01 Q137.084 1482.55 140.696 1482.55 Q144.33 1482.55 146.135 1479.01 Q147.964 1475.44 147.964 1468.33 Q147.964 1461.2 146.135 1457.66 Q144.33 1454.1 140.696 1454.1 M140.696 1450.39 Q146.506 1450.39 149.561 1455 Q152.64 1459.58 152.64 1468.33 Q152.64 1477.06 149.561 1481.67 Q146.506 1486.25 140.696 1486.25 Q134.885 1486.25 131.807 1481.67 Q128.751 1477.06 128.751 1468.33 Q128.751 1459.58 131.807 1455 Q134.885 1450.39 140.696 1450.39 Z" fill="#000000" fill-rule="nonzero" fill-opacity="1" /><path clip-path="url(#clip920)" d="M577.76 1481.64 L594.08 1481.64 L594.08 1485.58 L572.135 1485.58 L572.135 1481.64 Q574.797 1478.89 579.381 1474.26 Q583.987 1469.61 585.168 1468.27 Q587.413 1465.74 588.293 1464.01 Q589.196 1462.25 589.196 1460.56 Q589.196 1457.8 587.251 1456.07 Q585.33 1454.33 582.228 1454.33 Q580.029 1454.33 577.575 1455.09 Q575.145 1455.86 572.367 1457.41 L572.367 1452.69 Q575.191 1451.55 577.645 1450.97 Q580.098 1450.39 582.135 1450.39 Q587.506 1450.39 590.7 1453.08 Q593.895 1455.77 593.895 1460.26 Q593.895 1462.39 593.084 1464.31 Q592.297 1466.2 590.191 1468.8 Q589.612 1469.47 586.51 1472.69 Q583.409 1475.88 577.76 1481.64 Z" fill="#000000" fill-rule="nonzero" fill-opacity="1" /><path clip-path="url(#clip920)" d="M1028.53 1455.09 L1016.72 1473.54 L1028.53 1473.54 L1028.53 1455.09 M1027.3 1451.02 L1033.18 1451.02 L1033.18 1473.54 L1038.11 1473.54 L1038.11 1477.43 L1033.18 1477.43 L1033.18 1485.58 L1028.53 1485.58 L1028.53 1477.43 L1012.93 1477.43 L1012.93 1472.92 L1027.3 1451.02 Z" fill="#000000" fill-rule="nonzero" fill-opacity="1" /><path clip-path="url(#clip920)" d="M1468.34 1466.44 Q1465.19 1466.44 1463.34 1468.59 Q1461.51 1470.74 1461.51 1474.49 Q1461.51 1478.22 1463.34 1480.39 Q1465.19 1482.55 1468.34 1482.55 Q1471.48 1482.55 1473.31 1480.39 Q1475.17 1478.22 1475.17 1474.49 Q1475.17 1470.74 1473.31 1468.59 Q1471.48 1466.44 1468.34 1466.44 M1477.62 1451.78 L1477.62 1456.04 Q1475.86 1455.21 1474.05 1454.77 Q1472.27 1454.33 1470.51 1454.33 Q1465.88 1454.33 1463.43 1457.45 Q1461 1460.58 1460.65 1466.9 Q1462.02 1464.89 1464.08 1463.82 Q1466.14 1462.73 1468.61 1462.73 Q1473.82 1462.73 1476.83 1465.9 Q1479.86 1469.05 1479.86 1474.49 Q1479.86 1479.82 1476.72 1483.03 Q1473.57 1486.25 1468.34 1486.25 Q1462.34 1486.25 1459.17 1481.67 Q1456 1477.06 1456 1468.33 Q1456 1460.14 1459.89 1455.28 Q1463.78 1450.39 1470.33 1450.39 Q1472.09 1450.39 1473.87 1450.74 Q1475.67 1451.09 1477.62 1451.78 Z" fill="#000000" fill-rule="nonzero" fill-opacity="1" /><path clip-path="url(#clip920)" d="M1910.34 1469.17 Q1907.01 1469.17 1905.09 1470.95 Q1903.19 1472.73 1903.19 1475.86 Q1903.19 1478.98 1905.09 1480.77 Q1907.01 1482.55 1910.34 1482.55 Q1913.68 1482.55 1915.6 1480.77 Q1917.52 1478.96 1917.52 1475.86 Q1917.52 1472.73 1915.6 1470.95 Q1913.7 1469.17 1910.34 1469.17 M1905.67 1467.18 Q1902.66 1466.44 1900.97 1464.38 Q1899.3 1462.32 1899.3 1459.35 Q1899.3 1455.21 1902.24 1452.8 Q1905.2 1450.39 1910.34 1450.39 Q1915.51 1450.39 1918.45 1452.8 Q1921.39 1455.21 1921.39 1459.35 Q1921.39 1462.32 1919.7 1464.38 Q1918.03 1466.44 1915.04 1467.18 Q1918.42 1467.96 1920.3 1470.26 Q1922.2 1472.55 1922.2 1475.86 Q1922.2 1480.88 1919.12 1483.57 Q1916.06 1486.25 1910.34 1486.25 Q1904.63 1486.25 1901.55 1483.57 Q1898.49 1480.88 1898.49 1475.86 Q1898.49 1472.55 1900.39 1470.26 Q1902.29 1467.96 1905.67 1467.18 M1903.95 1459.79 Q1903.95 1462.48 1905.62 1463.98 Q1907.31 1465.49 1910.34 1465.49 Q1913.35 1465.49 1915.04 1463.98 Q1916.76 1462.48 1916.76 1459.79 Q1916.76 1457.11 1915.04 1455.6 Q1913.35 1454.1 1910.34 1454.1 Q1907.31 1454.1 1905.62 1455.6 Q1903.95 1457.11 1903.95 1459.79 Z" fill="#000000" fill-rule="nonzero" fill-opacity="1" /><path clip-path="url(#clip920)" d="M2327.44 1481.64 L2335.08 1481.64 L2335.08 1455.28 L2326.77 1456.95 L2326.77 1452.69 L2335.04 1451.02 L2339.71 1451.02 L2339.71 1481.64 L2347.35 1481.64 L2347.35 1485.58 L2327.44 1485.58 L2327.44 1481.64 Z" fill="#000000" fill-rule="nonzero" fill-opacity="1" /><path clip-path="url(#clip920)" d="M2366.8 1454.1 Q2363.18 1454.1 2361.36 1457.66 Q2359.55 1461.2 2359.55 1468.33 Q2359.55 1475.44 2361.36 1479.01 Q2363.18 1482.55 2366.8 1482.55 Q2370.43 1482.55 2372.23 1479.01 Q2374.06 1475.44 2374.06 1468.33 Q2374.06 1461.2 2372.23 1457.66 Q2370.43 1454.1 2366.8 1454.1 M2366.8 1450.39 Q2372.61 1450.39 2375.66 1455 Q2378.74 1459.58 2378.74 1468.33 Q2378.74 1477.06 2375.66 1481.67 Q2372.61 1486.25 2366.8 1486.25 Q2360.99 1486.25 2357.91 1481.67 Q2354.85 1477.06 2354.85 1468.33 Q2354.85 1459.58 2357.91 1455 Q2360.99 1450.39 2366.8 1450.39 Z" fill="#000000" fill-rule="nonzero" fill-opacity="1" /><path clip-path="url(#clip920)" d="M1245.79 1522.27 L1245.79 1532.4 L1257.85 1532.4 L1257.85 1536.95 L1245.79 1536.95 L1245.79 1556.3 Q1245.79 1560.66 1246.96 1561.9 Q1248.17 1563.14 1251.83 1563.14 L1257.85 1563.14 L1257.85 1568.04 L1251.83 1568.04 Q1245.05 1568.04 1242.48 1565.53 Q1239.9 1562.98 1239.9 1556.3 L1239.9 1536.95 L1235.6 1536.95 L1235.6 1532.4 L1239.9 1532.4 L1239.9 1522.27 L1245.79 1522.27 Z" fill="#000000" fill-rule="nonzero" fill-opacity="1" /><polyline clip-path="url(#clip920)" style="stroke:#000000; stroke-linecap:round; stroke-linejoin:round; stroke-width:4; stroke-opacity:1; fill:none" points="140.696,1423.18 140.696,47.2441 "/>
<polyline clip-path="url(#clip920)" style="stroke:#000000; stroke-linecap:round; stroke-linejoin:round; stroke-width:4; stroke-opacity:1; fill:none" points="140.696,1384.24 159.593,1384.24 "/>
<polyline clip-path="url(#clip920)" style="stroke:#000000; stroke-linecap:round; stroke-linejoin:round; stroke-width:4; stroke-opacity:1; fill:none" points="140.696,1143.86 159.593,1143.86 "/>
<polyline clip-path="url(#clip920)" style="stroke:#000000; stroke-linecap:round; stroke-linejoin:round; stroke-width:4; stroke-opacity:1; fill:none" points="140.696,903.478 159.593,903.478 "/>
<polyline clip-path="url(#clip920)" style="stroke:#000000; stroke-linecap:round; stroke-linejoin:round; stroke-width:4; stroke-opacity:1; fill:none" points="140.696,663.098 159.593,663.098 "/>
<polyline clip-path="url(#clip920)" style="stroke:#000000; stroke-linecap:round; stroke-linejoin:round; stroke-width:4; stroke-opacity:1; fill:none" points="140.696,422.718 159.593,422.718 "/>
<polyline clip-path="url(#clip920)" style="stroke:#000000; stroke-linecap:round; stroke-linejoin:round; stroke-width:4; stroke-opacity:1; fill:none" points="140.696,182.338 159.593,182.338 "/>
<path clip-path="url(#clip920)" d="M92.7512 1370.04 Q89.1401 1370.04 87.3114 1373.6 Q85.5058 1377.14 85.5058 1384.27 Q85.5058 1391.38 87.3114 1394.94 Q89.1401 1398.49 92.7512 1398.49 Q96.3854 1398.49 98.1909 1394.94 Q100.02 1391.38 100.02 1384.27 Q100.02 1377.14 98.1909 1373.6 Q96.3854 1370.04 92.7512 1370.04 M92.7512 1366.33 Q98.5613 1366.33 101.617 1370.94 Q104.696 1375.52 104.696 1384.27 Q104.696 1393 101.617 1397.61 Q98.5613 1402.19 92.7512 1402.19 Q86.941 1402.19 83.8623 1397.61 Q80.8068 1393 80.8068 1384.27 Q80.8068 1375.52 83.8623 1370.94 Q86.941 1366.33 92.7512 1366.33 Z" fill="#000000" fill-rule="nonzero" fill-opacity="1" /><path clip-path="url(#clip920)" d="M83.7929 1126.58 L102.149 1126.58 L102.149 1130.51 L88.0753 1130.51 L88.0753 1138.99 Q89.0938 1138.64 90.1123 1138.48 Q91.1308 1138.29 92.1493 1138.29 Q97.9363 1138.29 101.316 1141.46 Q104.696 1144.63 104.696 1150.05 Q104.696 1155.63 101.223 1158.73 Q97.7511 1161.81 91.4317 1161.81 Q89.2558 1161.81 86.9873 1161.44 Q84.7419 1161.07 82.3346 1160.33 L82.3346 1155.63 Q84.4179 1156.76 86.6401 1157.32 Q88.8623 1157.87 91.3391 1157.87 Q95.3437 1157.87 97.6817 1155.77 Q100.02 1153.66 100.02 1150.05 Q100.02 1146.44 97.6817 1144.33 Q95.3437 1142.23 91.3391 1142.23 Q89.4641 1142.23 87.5892 1142.64 Q85.7373 1143.06 83.7929 1143.94 L83.7929 1126.58 Z" fill="#000000" fill-rule="nonzero" fill-opacity="1" /><path clip-path="url(#clip920)" d="M53.3995 916.823 L61.0384 916.823 L61.0384 890.457 L52.7282 892.124 L52.7282 887.865 L60.9921 886.198 L65.668 886.198 L65.668 916.823 L73.3068 916.823 L73.3068 920.758 L53.3995 920.758 L53.3995 916.823 Z" fill="#000000" fill-rule="nonzero" fill-opacity="1" /><path clip-path="url(#clip920)" d="M92.7512 889.277 Q89.1401 889.277 87.3114 892.842 Q85.5058 896.383 85.5058 903.513 Q85.5058 910.619 87.3114 914.184 Q89.1401 917.726 92.7512 917.726 Q96.3854 917.726 98.1909 914.184 Q100.02 910.619 100.02 903.513 Q100.02 896.383 98.1909 892.842 Q96.3854 889.277 92.7512 889.277 M92.7512 885.573 Q98.5613 885.573 101.617 890.18 Q104.696 894.763 104.696 903.513 Q104.696 912.24 101.617 916.846 Q98.5613 921.429 92.7512 921.429 Q86.941 921.429 83.8623 916.846 Q80.8068 912.24 80.8068 903.513 Q80.8068 894.763 83.8623 890.18 Q86.941 885.573 92.7512 885.573 Z" fill="#000000" fill-rule="nonzero" fill-opacity="1" /><path clip-path="url(#clip920)" d="M54.3949 676.443 L62.0337 676.443 L62.0337 650.077 L53.7236 651.744 L53.7236 647.485 L61.9874 645.818 L66.6633 645.818 L66.6633 676.443 L74.3022 676.443 L74.3022 680.378 L54.3949 680.378 L54.3949 676.443 Z" fill="#000000" fill-rule="nonzero" fill-opacity="1" /><path clip-path="url(#clip920)" d="M83.7929 645.818 L102.149 645.818 L102.149 649.753 L88.0753 649.753 L88.0753 658.225 Q89.0938 657.878 90.1123 657.716 Q91.1308 657.531 92.1493 657.531 Q97.9363 657.531 101.316 660.702 Q104.696 663.873 104.696 669.29 Q104.696 674.869 101.223 677.971 Q97.7511 681.049 91.4317 681.049 Q89.2558 681.049 86.9873 680.679 Q84.7419 680.308 82.3346 679.568 L82.3346 674.869 Q84.4179 676.003 86.6401 676.559 Q88.8623 677.114 91.3391 677.114 Q95.3437 677.114 97.6817 675.008 Q100.02 672.901 100.02 669.29 Q100.02 665.679 97.6817 663.572 Q95.3437 661.466 91.3391 661.466 Q89.4641 661.466 87.5892 661.883 Q85.7373 662.299 83.7929 663.179 L83.7929 645.818 Z" fill="#000000" fill-rule="nonzero" fill-opacity="1" /><path clip-path="url(#clip920)" d="M56.6171 436.063 L72.9365 436.063 L72.9365 439.998 L50.9921 439.998 L50.9921 436.063 Q53.6541 433.308 58.2375 428.678 Q62.8439 424.026 64.0245 422.683 Q66.2698 420.16 67.1494 418.424 Q68.0522 416.665 68.0522 414.975 Q68.0522 412.22 66.1078 410.484 Q64.1865 408.748 61.0847 408.748 Q58.8856 408.748 56.4319 409.512 Q54.0014 410.276 51.2236 411.827 L51.2236 407.104 Q54.0477 405.97 56.5014 405.392 Q58.955 404.813 60.9921 404.813 Q66.3624 404.813 69.5568 407.498 Q72.7513 410.183 72.7513 414.674 Q72.7513 416.804 71.9411 418.725 Q71.1541 420.623 69.0476 423.216 Q68.4689 423.887 65.367 427.104 Q62.2652 430.299 56.6171 436.063 Z" fill="#000000" fill-rule="nonzero" fill-opacity="1" /><path clip-path="url(#clip920)" d="M92.7512 408.517 Q89.1401 408.517 87.3114 412.081 Q85.5058 415.623 85.5058 422.753 Q85.5058 429.859 87.3114 433.424 Q89.1401 436.965 92.7512 436.965 Q96.3854 436.965 98.1909 433.424 Q100.02 429.859 100.02 422.753 Q100.02 415.623 98.1909 412.081 Q96.3854 408.517 92.7512 408.517 M92.7512 404.813 Q98.5613 404.813 101.617 409.419 Q104.696 414.003 104.696 422.753 Q104.696 431.479 101.617 436.086 Q98.5613 440.669 92.7512 440.669 Q86.941 440.669 83.8623 436.086 Q80.8068 431.479 80.8068 422.753 Q80.8068 414.003 83.8623 409.419 Q86.941 404.813 92.7512 404.813 Z" fill="#000000" fill-rule="nonzero" fill-opacity="1" /><path clip-path="url(#clip920)" d="M57.6125 195.683 L73.9318 195.683 L73.9318 199.618 L51.9875 199.618 L51.9875 195.683 Q54.6495 192.928 59.2328 188.298 Q63.8393 183.646 65.0198 182.303 Q67.2652 179.78 68.1448 178.044 Q69.0476 176.285 69.0476 174.595 Q69.0476 171.84 67.1032 170.104 Q65.1819 168.368 62.08 168.368 Q59.881 168.368 57.4273 169.132 Q54.9967 169.896 52.219 171.447 L52.219 166.724 Q55.043 165.59 57.4967 165.011 Q59.9504 164.433 61.9874 164.433 Q67.3578 164.433 70.5522 167.118 Q73.7466 169.803 73.7466 174.294 Q73.7466 176.423 72.9365 178.345 Q72.1494 180.243 70.0429 182.835 Q69.4642 183.507 66.3624 186.724 Q63.2606 189.919 57.6125 195.683 Z" fill="#000000" fill-rule="nonzero" fill-opacity="1" /><path clip-path="url(#clip920)" d="M83.7929 165.058 L102.149 165.058 L102.149 168.993 L88.0753 168.993 L88.0753 177.465 Q89.0938 177.118 90.1123 176.956 Q91.1308 176.771 92.1493 176.771 Q97.9363 176.771 101.316 179.942 Q104.696 183.113 104.696 188.53 Q104.696 194.108 101.223 197.21 Q97.7511 200.289 91.4317 200.289 Q89.2558 200.289 86.9873 199.919 Q84.7419 199.548 82.3346 198.808 L82.3346 194.108 Q84.4179 195.243 86.6401 195.798 Q88.8623 196.354 91.3391 196.354 Q95.3437 196.354 97.6817 194.247 Q100.02 192.141 100.02 188.53 Q100.02 184.919 97.6817 182.812 Q95.3437 180.706 91.3391 180.706 Q89.4641 180.706 87.5892 181.122 Q85.7373 181.539 83.7929 182.419 L83.7929 165.058 Z" fill="#000000" fill-rule="nonzero" fill-opacity="1" /><polyline clip-path="url(#clip922)" style="stroke:#009af9; stroke-linecap:round; stroke-linejoin:round; stroke-width:8; stroke-opacity:1; fill:none" points="140.696,1384.24 141.459,1384.24 142.222,1384.24 142.985,1384.24 143.748,1384.24 144.511,1384.24 145.274,1384.24 146.037,1384.24 146.8,1384.24 147.563,1384.24 148.326,1384.24 149.089,1384.24 149.852,1384.24 150.615,1384.24 151.378,1384.24 152.141,1384.24 152.904,1384.24 153.667,1384.24 154.43,1384.24 155.193,1384.24 155.956,1384.24 156.719,1384.24 157.482,1384.24 158.246,1384.24 159.009,1384.24 159.772,1384.24 160.535,1384.24 161.298,1384.24 162.061,1384.24 162.824,1384.24 163.587,1384.24 164.35,1384.24 165.113,1384.24 165.876,1384.24 166.639,1384.24 167.402,1384.24 168.165,1384.24 168.928,1384.24 169.691,1384.24 170.454,1384.24 171.217,1384.24 171.98,1384.24 172.743,1384.24 173.506,1384.24 174.269,1384.24 175.032,1384.24 175.795,1384.24 176.559,1384.24 177.322,1384.24 178.085,1384.24 178.848,1384.24 179.611,1384.24 180.374,1384.24 181.137,1384.24 181.9,1384.24 182.663,1384.24 183.426,1384.24 184.189,1384.24 184.952,1384.24 185.715,1384.24 186.478,1384.24 187.241,1384.24 188.004,1384.24 188.767,1384.24 189.53,1384.24 190.293,1384.24 191.056,1384.24 191.819,1384.24 192.582,1384.24 193.345,1384.24 194.109,1384.24 194.872,1384.24 195.635,1384.24 196.398,1384.24 197.161,1384.24 197.924,1384.24 198.687,1384.24 199.45,1384.24 200.213,1384.24 200.976,1384.24 201.739,1384.24 202.502,1384.24 203.265,1384.24 204.028,1384.24 204.791,1384.24 205.554,1384.24 206.317,1384.24 207.08,1384.24 207.843,1384.24 208.606,1384.24 209.369,1384.24 210.132,1384.24 210.895,1384.24 211.658,1384.24 212.422,1384.24 213.185,1384.24 213.948,1384.24 214.711,1384.24 215.474,1384.24 216.237,1384.24 217,1384.24 217.763,1384.24 218.526,1384.24 219.289,1384.24 220.052,1384.24 220.815,1384.24 221.578,1384.24 222.341,1384.24 223.104,1384.24 223.867,1384.24 224.63,1384.24 225.393,1384.24 226.156,1384.24 226.919,1384.24 227.682,1384.24 228.445,1384.24 229.208,1384.24 229.972,1384.24 230.735,1384.24 231.498,1384.24 232.261,1384.24 233.024,1384.24 233.787,1384.24 234.55,1384.24 235.313,1384.24 236.076,1384.24 236.839,1384.24 237.602,1384.24 238.365,1384.24 239.128,1384.24 239.891,1384.24 240.654,1384.24 241.417,1384.24 242.18,1384.24 242.943,1384.24 243.706,1384.24 244.469,1384.24 245.232,1384.24 245.995,1384.24 246.758,1384.24 247.521,1384.24 248.285,1384.24 249.048,1384.24 249.811,1384.24 250.574,1384.24 251.337,1384.24 252.1,1384.24 252.863,1384.24 253.626,1384.24 254.389,1384.24 255.152,1384.24 255.915,1384.24 256.678,1384.24 257.441,1384.24 258.204,1384.24 258.967,1384.24 259.73,1384.24 260.493,1384.24 261.256,1384.24 262.019,1384.24 262.782,1384.24 263.545,1384.24 264.308,1384.24 265.071,1384.24 265.835,1384.24 266.598,1384.24 267.361,1384.24 268.124,1384.24 268.887,1384.24 269.65,1384.24 270.413,1384.24 271.176,1384.24 271.939,1384.24 272.702,1384.24 273.465,1384.24 274.228,1384.24 274.991,1384.24 275.754,1384.24 276.517,1384.24 277.28,1384.24 278.043,1384.24 278.806,1384.24 279.569,1384.24 280.332,1384.24 281.095,1384.24 281.858,1384.24 282.621,1384.24 283.384,1384.24 284.148,1384.24 284.911,1384.24 285.674,1384.24 286.437,1384.24 287.2,1384.24 287.963,1384.24 288.726,1384.24 289.489,1384.24 290.252,1384.24 291.015,1384.24 291.778,1384.24 292.541,1384.24 293.304,1384.24 294.067,1384.24 294.83,1384.24 295.593,1384.24 296.356,1384.24 297.119,1384.24 297.882,1384.24 298.645,1384.24 299.408,1384.24 300.171,1384.24 300.934,1384.24 301.698,1384.24 302.461,1384.24 303.224,1384.24 303.987,1384.24 304.75,1384.24 305.513,1384.24 306.276,1384.24 307.039,1384.24 307.802,1384.24 308.565,1384.24 309.328,1384.24 310.091,1384.24 310.854,1384.24 311.617,1384.24 312.38,1384.24 313.143,1384.24 313.906,1384.24 314.669,1384.24 315.432,1384.24 316.195,1384.24 316.958,1384.24 317.721,1384.24 318.484,1384.24 319.247,1384.24 320.011,1384.24 320.774,1384.24 321.537,1384.24 322.3,1384.24 323.063,1384.24 323.826,1384.24 324.589,1384.24 325.352,1384.24 326.115,1384.24 326.878,1384.24 327.641,1384.24 328.404,1384.24 329.167,1384.24 329.93,1384.24 330.693,1384.24 331.456,1384.24 332.219,1384.24 332.982,1384.24 333.745,1384.24 334.508,1384.24 335.271,1384.24 336.034,1384.24 336.797,1384.24 337.561,1384.24 338.324,1384.24 339.087,1384.24 339.85,1384.24 340.613,1384.24 341.376,1384.24 342.139,1384.24 342.902,1384.24 343.665,1384.24 344.428,1384.24 345.191,1384.24 345.954,1384.24 346.717,1384.24 347.48,1384.24 348.243,1384.24 349.006,1384.24 349.769,1336.16 350.532,1336.16 351.295,1336.16 352.058,1336.16 352.821,1336.16 353.584,1336.16 354.347,1336.16 355.11,1336.16 355.874,1336.16 356.637,1336.16 357.4,1336.16 358.163,1336.16 358.926,1336.16 359.689,1336.16 360.452,1336.16 361.215,1336.16 361.978,1336.16 362.741,1336.16 363.504,1336.16 364.267,1336.16 365.03,1336.16 365.793,1336.16 366.556,1336.16 367.319,1336.16 368.082,1336.16 368.845,1336.16 369.608,1336.16 370.371,1336.16 371.134,1336.16 371.897,1336.16 372.66,1336.16 373.424,1336.16 374.187,1336.16 374.95,1336.16 375.713,1336.16 376.476,1336.16 377.239,1336.16 378.002,1336.16 378.765,1336.16 379.528,1336.16 380.291,1336.16 381.054,1336.16 381.817,1336.16 382.58,1336.16 383.343,1336.16 384.106,1336.16 384.869,1336.16 385.632,1336.16 386.395,1336.16 387.158,1336.16 387.921,1336.16 388.684,1336.16 389.447,1336.16 390.21,1336.16 390.973,1336.16 391.737,1336.16 392.5,1336.16 393.263,1336.16 394.026,1336.16 394.789,1336.16 395.552,1336.16 396.315,1336.16 397.078,1336.16 397.841,1336.16 398.604,1336.16 399.367,1336.16 400.13,1336.16 400.893,1336.16 401.656,1336.16 402.419,1336.16 403.182,1336.16 403.945,1336.16 404.708,1336.16 405.471,1336.16 406.234,1336.16 406.997,1336.16 407.76,1336.16 408.523,1336.16 409.287,1336.16 410.05,1336.16 410.813,1336.16 411.576,1336.16 412.339,1336.16 413.102,1336.16 413.865,1336.16 414.628,1336.16 415.391,1336.16 416.154,1336.16 416.917,1336.16 417.68,1336.16 418.443,1336.16 419.206,1336.16 419.969,1336.16 420.732,1336.16 421.495,1336.16 422.258,1336.16 423.021,1336.16 423.784,1336.16 424.547,1336.16 425.31,1336.16 426.073,1336.16 426.836,1336.16 427.6,1336.16 428.363,1336.16 429.126,1336.16 429.889,1336.16 430.652,1336.16 431.415,1336.16 432.178,1336.16 432.941,1336.16 433.704,1336.16 434.467,1336.16 435.23,1336.16 435.993,1336.16 436.756,1336.16 437.519,1336.16 438.282,1336.16 439.045,1336.16 439.808,1336.16 440.571,1336.16 441.334,1336.16 442.097,1336.16 442.86,1336.16 443.623,1336.16 444.386,1336.16 445.15,1336.16 445.913,1336.16 446.676,1336.16 447.439,1336.16 448.202,1336.16 448.965,1336.16 449.728,1336.16 450.491,1336.16 451.254,1336.16 452.017,1336.16 452.78,1336.16 453.543,1288.09 454.306,1288.09 455.069,1288.09 455.832,1288.09 456.595,1288.09 457.358,1288.09 458.121,1288.09 458.884,1288.09 459.647,1288.09 460.41,1288.09 461.173,1288.09 461.936,1288.09 462.699,1288.09 463.463,1288.09 464.226,1288.09 464.989,1288.09 465.752,1288.09 466.515,1288.09 467.278,1288.09 468.041,1288.09 468.804,1288.09 469.567,1288.09 470.33,1288.09 471.093,1288.09 471.856,1288.09 472.619,1288.09 473.382,1240.01 474.145,1240.01 474.908,1240.01 475.671,1240.01 476.434,1240.01 477.197,1240.01 477.96,1240.01 478.723,1240.01 479.486,1240.01 480.249,1240.01 481.013,1240.01 481.776,1240.01 482.539,1240.01 483.302,1240.01 484.065,1240.01 484.828,1240.01 485.591,1240.01 486.354,1240.01 487.117,1240.01 487.88,1240.01 488.643,1240.01 489.406,1240.01 490.169,1240.01 490.932,1240.01 491.695,1240.01 492.458,1240.01 493.221,1240.01 493.984,1240.01 494.747,1240.01 495.51,1240.01 496.273,1240.01 497.036,1240.01 497.799,1240.01 498.562,1240.01 499.326,1240.01 500.089,1240.01 500.852,1240.01 501.615,1240.01 502.378,1240.01 503.141,1240.01 503.904,1240.01 504.667,1240.01 505.43,1240.01 506.193,1240.01 506.956,1240.01 507.719,1240.01 508.482,1240.01 509.245,1240.01 510.008,1240.01 510.771,1240.01 511.534,1240.01 512.297,1240.01 513.06,1240.01 513.823,1240.01 514.586,1240.01 515.349,1240.01 516.112,1240.01 516.876,1240.01 517.639,1240.01 518.402,1240.01 519.165,1240.01 519.928,1240.01 520.691,1240.01 521.454,1240.01 522.217,1240.01 522.98,1240.01 523.743,1240.01 524.506,1240.01 525.269,1240.01 526.032,1240.01 526.795,1240.01 527.558,1240.01 528.321,1240.01 529.084,1240.01 529.847,1240.01 530.61,1240.01 531.373,1240.01 532.136,1240.01 532.899,1240.01 533.662,1240.01 534.425,1240.01 535.189,1240.01 535.952,1240.01 536.715,1240.01 537.478,1240.01 538.241,1240.01 539.004,1240.01 539.767,1240.01 540.53,1240.01 541.293,1240.01 542.056,1240.01 542.819,1240.01 543.582,1240.01 544.345,1240.01 545.108,1240.01 545.871,1240.01 546.634,1240.01 547.397,1240.01 548.16,1240.01 548.923,1240.01 549.686,1240.01 550.449,1240.01 551.212,1240.01 551.975,1240.01 552.739,1240.01 553.502,1240.01 554.265,1191.93 555.028,1191.93 555.791,1191.93 556.554,1191.93 557.317,1191.93 558.08,1191.93 558.843,1191.93 559.606,1191.93 560.369,1191.93 561.132,1191.93 561.895,1191.93 562.658,1191.93 563.421,1191.93 564.184,1191.93 564.947,1191.93 565.71,1191.93 566.473,1191.93 567.236,1191.93 567.999,1191.93 568.762,1191.93 569.525,1191.93 570.288,1191.93 571.052,1191.93 571.815,1191.93 572.578,1191.93 573.341,1191.93 574.104,1191.93 574.867,1191.93 575.63,1191.93 576.393,1191.93 577.156,1191.93 577.919,1191.93 578.682,1191.93 579.445,1191.93 580.208,1191.93 580.971,1191.93 581.734,1191.93 582.497,1191.93 583.26,1191.93 584.023,1191.93 584.786,1143.86 585.549,1143.86 586.312,1143.86 587.075,1143.86 587.838,1143.86 588.602,1143.86 589.365,1143.86 590.128,1143.86 590.891,1143.86 591.654,1143.86 592.417,1143.86 593.18,1143.86 593.943,1143.86 594.706,1143.86 595.469,1143.86 596.232,1143.86 596.995,1143.86 597.758,1143.86 598.521,1143.86 599.284,1143.86 600.047,1143.86 600.81,1143.86 601.573,1143.86 602.336,1143.86 603.099,1143.86 603.862,1143.86 604.625,1143.86 605.388,1143.86 606.151,1143.86 606.915,1143.86 607.678,1143.86 608.441,1143.86 609.204,1143.86 609.967,1143.86 610.73,1143.86 611.493,1143.86 612.256,1143.86 613.019,1143.86 613.782,1143.86 614.545,1143.86 615.308,1143.86 616.071,1143.86 616.834,1095.78 617.597,1095.78 618.36,1095.78 619.123,1095.78 619.886,1095.78 620.649,1095.78 621.412,1095.78 622.175,1095.78 622.938,1095.78 623.701,1095.78 624.465,1095.78 625.228,1095.78 625.991,1095.78 626.754,1095.78 627.517,1095.78 628.28,1095.78 629.043,1095.78 629.806,1095.78 630.569,1095.78 631.332,1095.78 632.095,1095.78 632.858,1095.78 633.621,1095.78 634.384,1095.78 635.147,1095.78 635.91,1095.78 636.673,1095.78 637.436,1095.78 638.199,1095.78 638.962,1095.78 639.725,1095.78 640.488,1095.78 641.251,1095.78 642.014,1095.78 642.778,1095.78 643.541,1095.78 644.304,1095.78 645.067,1095.78 645.83,1095.78 646.593,1095.78 647.356,1095.78 648.119,1095.78 648.882,1095.78 649.645,1095.78 650.408,1095.78 651.171,1095.78 651.934,1095.78 652.697,1095.78 653.46,1095.78 654.223,1095.78 654.986,1095.78 655.749,1095.78 656.512,1095.78 657.275,1095.78 658.038,1095.78 658.801,1095.78 659.564,1095.78 660.328,1095.78 661.091,1095.78 661.854,1095.78 662.617,1095.78 663.38,1095.78 664.143,1095.78 664.906,1095.78 665.669,1095.78 666.432,1095.78 667.195,1095.78 667.958,1095.78 668.721,1095.78 669.484,1095.78 670.247,1095.78 671.01,1095.78 671.773,1095.78 672.536,1095.78 673.299,1095.78 674.062,1095.78 674.825,1095.78 675.588,1095.78 676.351,1095.78 677.114,1095.78 677.877,1095.78 678.641,1095.78 679.404,1095.78 680.167,1095.78 680.93,1095.78 681.693,1095.78 682.456,1095.78 683.219,1095.78 683.982,1095.78 684.745,1095.78 685.508,1095.78 686.271,1095.78 687.034,1095.78 687.797,1095.78 688.56,1095.78 689.323,1095.78 690.086,1095.78 690.849,1095.78 691.612,1095.78 692.375,1095.78 693.138,1095.78 693.901,1095.78 694.664,1095.78 695.427,1095.78 696.191,1095.78 696.954,1095.78 697.717,1047.71 698.48,1047.71 699.243,1047.71 700.006,1047.71 700.769,1047.71 701.532,999.63 702.295,999.63 703.058,999.63 703.821,999.63 704.584,999.63 705.347,999.63 706.11,999.63 706.873,999.63 707.636,999.63 708.399,999.63 709.162,999.63 709.925,999.63 710.688,999.63 711.451,999.63 712.214,999.63 712.977,999.63 713.74,999.63 714.504,999.63 715.267,999.63 716.03,999.63 716.793,999.63 717.556,999.63 718.319,999.63 719.082,999.63 719.845,999.63 720.608,999.63 721.371,999.63 722.134,999.63 722.897,999.63 723.66,999.63 724.423,999.63 725.186,999.63 725.949,999.63 726.712,999.63 727.475,999.63 728.238,999.63 729.001,999.63 729.764,999.63 730.527,999.63 731.29,999.63 732.054,999.63 732.817,999.63 733.58,999.63 734.343,999.63 735.106,999.63 735.869,999.63 736.632,999.63 737.395,999.63 738.158,999.63 738.921,999.63 739.684,999.63 740.447,999.63 741.21,999.63 741.973,999.63 742.736,999.63 743.499,999.63 744.262,999.63 745.025,999.63 745.788,999.63 746.551,999.63 747.314,999.63 748.077,999.63 748.84,999.63 749.603,999.63 750.367,999.63 751.13,999.63 751.893,999.63 752.656,999.63 753.419,999.63 754.182,999.63 754.945,999.63 755.708,999.63 756.471,999.63 757.234,999.63 757.997,999.63 758.76,999.63 759.523,999.63 760.286,999.63 761.049,999.63 761.812,999.63 762.575,999.63 763.338,999.63 764.101,999.63 764.864,999.63 765.627,999.63 766.39,999.63 767.153,999.63 767.917,999.63 768.68,999.63 769.443,999.63 770.206,999.63 770.969,999.63 771.732,999.63 772.495,999.63 773.258,999.63 774.021,999.63 774.784,999.63 775.547,999.63 776.31,999.63 777.073,999.63 777.836,999.63 778.599,999.63 779.362,999.63 780.125,999.63 780.888,999.63 781.651,999.63 782.414,999.63 783.177,999.63 783.94,999.63 784.703,999.63 785.466,999.63 786.23,999.63 786.993,999.63 787.756,999.63 788.519,999.63 789.282,999.63 790.045,999.63 790.808,999.63 791.571,999.63 792.334,999.63 793.097,999.63 793.86,999.63 794.623,951.554 795.386,951.554 796.149,951.554 796.912,951.554 797.675,951.554 798.438,951.554 799.201,951.554 799.964,951.554 800.727,951.554 801.49,951.554 802.253,951.554 803.016,951.554 803.78,951.554 804.543,951.554 805.306,951.554 806.069,951.554 806.832,951.554 807.595,951.554 808.358,951.554 809.121,951.554 809.884,951.554 810.647,951.554 811.41,951.554 812.173,951.554 812.936,951.554 813.699,951.554 814.462,951.554 815.225,951.554 815.988,951.554 816.751,951.554 817.514,951.554 818.277,951.554 819.04,951.554 819.803,951.554 820.566,951.554 821.329,951.554 822.093,951.554 822.856,951.554 823.619,951.554 824.382,951.554 825.145,951.554 825.908,951.554 826.671,903.478 827.434,903.478 828.197,903.478 828.96,903.478 829.723,903.478 830.486,903.478 831.249,903.478 832.012,903.478 832.775,903.478 833.538,903.478 834.301,903.478 835.064,903.478 835.827,903.478 836.59,903.478 837.353,903.478 838.116,903.478 838.879,903.478 839.643,903.478 840.406,903.478 841.169,903.478 841.932,903.478 842.695,903.478 843.458,903.478 844.221,903.478 844.984,903.478 845.747,903.478 846.51,903.478 847.273,903.478 848.036,903.478 848.799,903.478 849.562,903.478 850.325,903.478 851.088,903.478 851.851,903.478 852.614,903.478 853.377,903.478 854.14,903.478 854.903,903.478 855.666,903.478 856.429,903.478 857.192,903.478 857.956,903.478 858.719,903.478 859.482,903.478 860.245,903.478 861.008,903.478 861.771,903.478 862.534,903.478 863.297,903.478 864.06,903.478 864.823,903.478 865.586,903.478 866.349,903.478 867.112,903.478 867.875,903.478 868.638,903.478 869.401,903.478 870.164,903.478 870.927,903.478 871.69,903.478 872.453,903.478 873.216,903.478 873.979,903.478 874.742,903.478 875.506,903.478 876.269,903.478 877.032,903.478 877.795,903.478 878.558,903.478 879.321,903.478 880.084,903.478 880.847,903.478 881.61,903.478 882.373,903.478 883.136,903.478 883.899,903.478 884.662,903.478 885.425,903.478 886.188,903.478 886.951,903.478 887.714,903.478 888.477,903.478 889.24,903.478 890.003,903.478 890.766,903.478 891.529,903.478 892.292,903.478 893.056,903.478 893.819,903.478 894.582,903.478 895.345,903.478 896.108,903.478 896.871,903.478 897.634,903.478 898.397,903.478 899.16,903.478 899.923,903.478 900.686,903.478 901.449,903.478 902.212,903.478 902.975,903.478 903.738,903.478 904.501,903.478 905.264,903.478 906.027,903.478 906.79,903.478 907.553,903.478 908.316,903.478 909.079,903.478 909.842,903.478 910.605,903.478 911.369,903.478 912.132,903.478 912.895,903.478 913.658,903.478 914.421,903.478 915.184,903.478 915.947,903.478 916.71,903.478 917.473,903.478 918.236,903.478 918.999,903.478 919.762,903.478 920.525,903.478 921.288,903.478 922.051,903.478 922.814,903.478 923.577,903.478 924.34,855.402 925.103,855.402 925.866,855.402 926.629,855.402 927.392,855.402 928.155,855.402 928.919,855.402 929.682,855.402 930.445,855.402 931.208,855.402 931.971,855.402 932.734,855.402 933.497,855.402 934.26,855.402 935.023,855.402 935.786,855.402 936.549,855.402 937.312,855.402 938.075,855.402 938.838,855.402 939.601,855.402 940.364,855.402 941.127,855.402 941.89,855.402 942.653,855.402 943.416,855.402 944.179,855.402 944.942,855.402 945.705,855.402 946.468,855.402 947.232,855.402 947.995,855.402 948.758,855.402 949.521,855.402 950.284,855.402 951.047,855.402 951.81,855.402 952.573,855.402 953.336,855.402 954.099,855.402 954.862,855.402 955.625,855.402 956.388,855.402 957.151,855.402 957.914,855.402 958.677,855.402 959.44,807.326 960.203,807.326 960.966,807.326 961.729,807.326 962.492,807.326 963.255,807.326 964.018,807.326 964.782,807.326 965.545,807.326 966.308,807.326 967.071,807.326 967.834,807.326 968.597,807.326 969.36,807.326 970.123,807.326 970.886,807.326 971.649,807.326 972.412,807.326 973.175,807.326 973.938,807.326 974.701,807.326 975.464,807.326 976.227,807.326 976.99,807.326 977.753,807.326 978.516,807.326 979.279,807.326 980.042,807.326 980.805,807.326 981.568,807.326 982.331,807.326 983.095,807.326 983.858,807.326 984.621,807.326 985.384,807.326 986.147,807.326 986.91,807.326 987.673,807.326 988.436,807.326 989.199,807.326 989.962,807.326 990.725,807.326 991.488,807.326 992.251,807.326 993.014,807.326 993.777,807.326 994.54,807.326 995.303,807.326 996.066,759.25 996.829,759.25 997.592,759.25 998.355,759.25 999.118,759.25 999.881,759.25 1000.64,759.25 1001.41,759.25 1002.17,759.25 1002.93,759.25 1003.7,759.25 1004.46,759.25 1005.22,759.25 1005.99,759.25 1006.75,759.25 1007.51,759.25 1008.27,759.25 1009.04,759.25 1009.8,759.25 1010.56,759.25 1011.33,759.25 1012.09,759.25 1012.85,759.25 1013.62,759.25 1014.38,759.25 1015.14,759.25 1015.91,759.25 1016.67,759.25 1017.43,759.25 1018.19,759.25 1018.96,759.25 1019.72,759.25 1020.48,759.25 1021.25,759.25 1022.01,759.25 1022.77,759.25 1023.54,759.25 1024.3,759.25 1025.06,759.25 1025.82,759.25 1026.59,759.25 1027.35,759.25 1028.11,759.25 1028.88,759.25 1029.64,759.25 1030.4,759.25 1031.17,759.25 1031.93,759.25 1032.69,759.25 1033.46,759.25 1034.22,759.25 1034.98,759.25 1035.74,759.25 1036.51,759.25 1037.27,759.25 1038.03,759.25 1038.8,759.25 1039.56,759.25 1040.32,759.25 1041.09,759.25 1041.85,759.25 1042.61,759.25 1043.37,759.25 1044.14,759.25 1044.9,759.25 1045.66,759.25 1046.43,759.25 1047.19,711.174 1047.95,711.174 1048.72,711.174 1049.48,711.174 1050.24,711.174 1051.01,711.174 1051.77,711.174 1052.53,711.174 1053.29,711.174 1054.06,711.174 1054.82,711.174 1055.58,711.174 1056.35,711.174 1057.11,711.174 1057.87,711.174 1058.64,711.174 1059.4,711.174 1060.16,711.174 1060.92,711.174 1061.69,711.174 1062.45,711.174 1063.21,711.174 1063.98,711.174 1064.74,711.174 1065.5,711.174 1066.27,711.174 1067.03,711.174 1067.79,711.174 1068.56,711.174 1069.32,711.174 1070.08,711.174 1070.84,711.174 1071.61,711.174 1072.37,711.174 1073.13,711.174 1073.9,711.174 1074.66,711.174 1075.42,711.174 1076.19,711.174 1076.95,711.174 1077.71,711.174 1078.47,711.174 1079.24,711.174 1080,711.174 1080.76,711.174 1081.53,711.174 1082.29,711.174 1083.05,711.174 1083.82,711.174 1084.58,711.174 1085.34,711.174 1086.11,711.174 1086.87,711.174 1087.63,711.174 1088.39,711.174 1089.16,711.174 1089.92,711.174 1090.68,711.174 1091.45,711.174 1092.21,711.174 1092.97,711.174 1093.74,711.174 1094.5,711.174 1095.26,711.174 1096.02,711.174 1096.79,711.174 1097.55,711.174 1098.31,711.174 1099.08,711.174 1099.84,711.174 1100.6,711.174 1101.37,711.174 1102.13,711.174 1102.89,711.174 1103.66,711.174 1104.42,711.174 1105.18,711.174 1105.94,711.174 1106.71,711.174 1107.47,711.174 1108.23,711.174 1109,711.174 1109.76,711.174 1110.52,663.098 1111.29,663.098 1112.05,663.098 1112.81,663.098 1113.57,663.098 1114.34,663.098 1115.1,663.098 1115.86,663.098 1116.63,663.098 1117.39,663.098 1118.15,663.098 1118.92,663.098 1119.68,663.098 1120.44,663.098 1121.21,663.098 1121.97,663.098 1122.73,663.098 1123.49,663.098 1124.26,663.098 1125.02,663.098 1125.78,663.098 1126.55,663.098 1127.31,663.098 1128.07,663.098 1128.84,663.098 1129.6,663.098 1130.36,663.098 1131.12,663.098 1131.89,663.098 1132.65,663.098 1133.41,663.098 1134.18,663.098 1134.94,663.098 1135.7,663.098 1136.47,663.098 1137.23,663.098 1137.99,663.098 1138.76,663.098 1139.52,663.098 1140.28,663.098 1141.04,663.098 1141.81,663.098 1142.57,663.098 1143.33,663.098 1144.1,663.098 1144.86,663.098 1145.62,663.098 1146.39,663.098 1147.15,663.098 1147.91,663.098 1148.67,663.098 1149.44,663.098 1150.2,663.098 1150.96,663.098 1151.73,663.098 1152.49,663.098 1153.25,663.098 1154.02,663.098 1154.78,663.098 1155.54,663.098 1156.31,663.098 1157.07,663.098 1157.83,663.098 1158.59,663.098 1159.36,663.098 1160.12,663.098 1160.88,663.098 1161.65,663.098 1162.41,663.098 1163.17,663.098 1163.94,663.098 1164.7,663.098 1165.46,663.098 1166.22,663.098 1166.99,663.098 1167.75,663.098 1168.51,663.098 1169.28,663.098 1170.04,663.098 1170.8,663.098 1171.57,663.098 1172.33,663.098 1173.09,663.098 1173.86,663.098 1174.62,663.098 1175.38,663.098 1176.14,663.098 1176.91,663.098 1177.67,663.098 1178.43,663.098 1179.2,663.098 1179.96,663.098 1180.72,663.098 1181.49,663.098 1182.25,663.098 1183.01,663.098 1183.77,663.098 1184.54,663.098 1185.3,663.098 1186.06,663.098 1186.83,663.098 1187.59,663.098 1188.35,663.098 1189.12,663.098 1189.88,663.098 1190.64,663.098 1191.41,663.098 1192.17,663.098 1192.93,663.098 1193.69,663.098 1194.46,663.098 1195.22,615.022 1195.98,615.022 1196.75,615.022 1197.51,615.022 1198.27,615.022 1199.04,615.022 1199.8,615.022 1200.56,615.022 1201.32,615.022 1202.09,615.022 1202.85,615.022 1203.61,615.022 1204.38,615.022 1205.14,615.022 1205.9,615.022 1206.67,615.022 1207.43,615.022 1208.19,615.022 1208.96,615.022 1209.72,615.022 1210.48,615.022 1211.24,615.022 1212.01,615.022 1212.77,615.022 1213.53,615.022 1214.3,615.022 1215.06,615.022 1215.82,615.022 1216.59,615.022 1217.35,615.022 1218.11,615.022 1218.87,615.022 1219.64,615.022 1220.4,615.022 1221.16,615.022 1221.93,615.022 1222.69,615.022 1223.45,615.022 1224.22,615.022 1224.98,615.022 1225.74,615.022 1226.51,615.022 1227.27,615.022 1228.03,615.022 1228.79,615.022 1229.56,615.022 1230.32,615.022 1231.08,615.022 1231.85,615.022 1232.61,615.022 1233.37,615.022 1234.14,615.022 1234.9,615.022 1235.66,615.022 1236.42,615.022 1237.19,615.022 1237.95,615.022 1238.71,615.022 1239.48,615.022 1240.24,615.022 1241,615.022 1241.77,615.022 1242.53,615.022 1243.29,615.022 1244.06,615.022 1244.82,615.022 1245.58,615.022 1246.34,615.022 1247.11,615.022 1247.87,615.022 1248.63,615.022 1249.4,615.022 1250.16,615.022 1250.92,615.022 1251.69,615.022 1252.45,615.022 1253.21,615.022 1253.97,615.022 1254.74,615.022 1255.5,615.022 1256.26,615.022 1257.03,615.022 1257.79,615.022 1258.55,615.022 1259.32,615.022 1260.08,615.022 1260.84,615.022 1261.61,615.022 1262.37,615.022 1263.13,615.022 1263.89,615.022 1264.66,615.022 1265.42,615.022 1266.18,615.022 1266.95,615.022 1267.71,615.022 1268.47,615.022 1269.24,615.022 1270,615.022 1270.76,615.022 1271.52,615.022 1272.29,615.022 1273.05,615.022 1273.81,615.022 1274.58,615.022 1275.34,615.022 1276.1,615.022 1276.87,615.022 1277.63,615.022 1278.39,615.022 1279.16,615.022 1279.92,615.022 1280.68,615.022 1281.44,615.022 1282.21,615.022 1282.97,615.022 1283.73,615.022 1284.5,615.022 1285.26,615.022 1286.02,615.022 1286.79,615.022 1287.55,615.022 1288.31,615.022 1289.07,615.022 1289.84,615.022 1290.6,615.022 1291.36,615.022 1292.13,615.022 1292.89,615.022 1293.65,615.022 1294.42,615.022 1295.18,615.022 1295.94,615.022 1296.71,615.022 1297.47,615.022 1298.23,615.022 1298.99,615.022 1299.76,615.022 1300.52,615.022 1301.28,615.022 1302.05,615.022 1302.81,615.022 1303.57,615.022 1304.34,615.022 1305.1,615.022 1305.86,615.022 1306.62,615.022 1307.39,615.022 1308.15,615.022 1308.91,615.022 1309.68,615.022 1310.44,615.022 1311.2,615.022 1311.97,615.022 1312.73,615.022 1313.49,615.022 1314.25,615.022 1315.02,615.022 1315.78,615.022 1316.54,615.022 1317.31,615.022 1318.07,615.022 1318.83,615.022 1319.6,615.022 1320.36,615.022 1321.12,615.022 1321.89,615.022 1322.65,615.022 1323.41,615.022 1324.17,615.022 1324.94,615.022 1325.7,615.022 1326.46,615.022 1327.23,615.022 1327.99,615.022 1328.75,615.022 1329.52,615.022 1330.28,615.022 1331.04,615.022 1331.8,615.022 1332.57,615.022 1333.33,615.022 1334.09,615.022 1334.86,615.022 1335.62,615.022 1336.38,615.022 1337.15,615.022 1337.91,615.022 1338.67,615.022 1339.44,615.022 1340.2,615.022 1340.96,615.022 1341.72,615.022 1342.49,615.022 1343.25,615.022 1344.01,615.022 1344.78,615.022 1345.54,615.022 1346.3,615.022 1347.07,615.022 1347.83,615.022 1348.59,615.022 1349.35,615.022 1350.12,615.022 1350.88,615.022 1351.64,615.022 1352.41,615.022 1353.17,615.022 1353.93,615.022 1354.7,615.022 1355.46,615.022 1356.22,615.022 1356.99,615.022 1357.75,615.022 1358.51,615.022 1359.27,615.022 1360.04,615.022 1360.8,615.022 1361.56,615.022 1362.33,615.022 1363.09,615.022 1363.85,615.022 1364.62,615.022 1365.38,615.022 1366.14,615.022 1366.9,615.022 1367.67,615.022 1368.43,615.022 1369.19,615.022 1369.96,615.022 1370.72,615.022 1371.48,615.022 1372.25,615.022 1373.01,615.022 1373.77,615.022 1374.54,615.022 1375.3,615.022 1376.06,566.946 1376.82,566.946 1377.59,566.946 1378.35,566.946 1379.11,566.946 1379.88,566.946 1380.64,566.946 1381.4,566.946 1382.17,566.946 1382.93,566.946 1383.69,566.946 1384.45,566.946 1385.22,566.946 1385.98,566.946 1386.74,566.946 1387.51,566.946 1388.27,566.946 1389.03,566.946 1389.8,566.946 1390.56,566.946 1391.32,566.946 1392.09,566.946 1392.85,566.946 1393.61,566.946 1394.37,566.946 1395.14,566.946 1395.9,566.946 1396.66,566.946 1397.43,566.946 1398.19,566.946 1398.95,566.946 1399.72,566.946 1400.48,566.946 1401.24,566.946 1402,566.946 1402.77,566.946 1403.53,566.946 1404.29,566.946 1405.06,566.946 1405.82,566.946 1406.58,566.946 1407.35,566.946 1408.11,566.946 1408.87,566.946 1409.64,566.946 1410.4,566.946 1411.16,566.946 1411.92,566.946 1412.69,566.946 1413.45,566.946 1414.21,566.946 1414.98,566.946 1415.74,566.946 1416.5,566.946 1417.27,566.946 1418.03,566.946 1418.79,566.946 1419.55,566.946 1420.32,566.946 1421.08,566.946 1421.84,566.946 1422.61,566.946 1423.37,566.946 1424.13,566.946 1424.9,566.946 1425.66,566.946 1426.42,566.946 1427.19,518.87 1427.95,518.87 1428.71,518.87 1429.47,518.87 1430.24,518.87 1431,518.87 1431.76,518.87 1432.53,518.87 1433.29,518.87 1434.05,518.87 1434.82,518.87 1435.58,518.87 1436.34,518.87 1437.1,518.87 1437.87,518.87 1438.63,518.87 1439.39,518.87 1440.16,518.87 1440.92,518.87 1441.68,518.87 1442.45,518.87 1443.21,518.87 1443.97,518.87 1444.74,518.87 1445.5,518.87 1446.26,518.87 1447.02,518.87 1447.79,518.87 1448.55,518.87 1449.31,518.87 1450.08,518.87 1450.84,518.87 1451.6,518.87 1452.37,518.87 1453.13,518.87 1453.89,518.87 1454.65,518.87 1455.42,518.87 1456.18,518.87 1456.94,518.87 1457.71,518.87 1458.47,518.87 1459.23,518.87 1460,518.87 1460.76,518.87 1461.52,518.87 1462.29,518.87 1463.05,518.87 1463.81,518.87 1464.57,518.87 1465.34,518.87 1466.1,518.87 1466.86,518.87 1467.63,518.87 1468.39,518.87 1469.15,518.87 1469.92,518.87 1470.68,518.87 1471.44,518.87 1472.2,518.87 1472.97,518.87 1473.73,518.87 1474.49,518.87 1475.26,518.87 1476.02,518.87 1476.78,518.87 1477.55,518.87 1478.31,518.87 1479.07,518.87 1479.84,518.87 1480.6,518.87 1481.36,518.87 1482.12,518.87 1482.89,518.87 1483.65,518.87 1484.41,518.87 1485.18,518.87 1485.94,518.87 1486.7,518.87 1487.47,518.87 1488.23,518.87 1488.99,518.87 1489.75,518.87 1490.52,518.87 1491.28,518.87 1492.04,518.87 1492.81,518.87 1493.57,518.87 1494.33,518.87 1495.1,518.87 1495.86,518.87 1496.62,518.87 1497.39,518.87 1498.15,518.87 1498.91,518.87 1499.67,518.87 1500.44,518.87 1501.2,518.87 1501.96,470.794 1502.73,470.794 1503.49,470.794 1504.25,470.794 1505.02,470.794 1505.78,470.794 1506.54,470.794 1507.3,470.794 1508.07,470.794 1508.83,470.794 1509.59,470.794 1510.36,470.794 1511.12,470.794 1511.88,470.794 1512.65,422.718 1513.41,422.718 1514.17,422.718 1514.94,422.718 1515.7,422.718 1516.46,422.718 1517.22,422.718 1517.99,422.718 1518.75,422.718 1519.51,422.718 1520.28,422.718 1521.04,422.718 1521.8,422.718 1522.57,422.718 1523.33,422.718 1524.09,422.718 1524.85,422.718 1525.62,422.718 1526.38,422.718 1527.14,422.718 1527.91,422.718 1528.67,422.718 1529.43,422.718 1530.2,422.718 1530.96,422.718 1531.72,422.718 1532.49,422.718 1533.25,422.718 1534.01,422.718 1534.77,422.718 1535.54,422.718 1536.3,422.718 1537.06,422.718 1537.83,422.718 1538.59,422.718 1539.35,422.718 1540.12,422.718 1540.88,422.718 1541.64,422.718 1542.4,422.718 1543.17,422.718 1543.93,422.718 1544.69,422.718 1545.46,422.718 1546.22,422.718 1546.98,422.718 1547.75,422.718 1548.51,422.718 1549.27,422.718 1550.04,422.718 1550.8,422.718 1551.56,422.718 1552.32,422.718 1553.09,422.718 1553.85,422.718 1554.61,422.718 1555.38,422.718 1556.14,422.718 1556.9,422.718 1557.67,422.718 1558.43,422.718 1559.19,422.718 1559.95,422.718 1560.72,422.718 1561.48,422.718 1562.24,422.718 1563.01,422.718 1563.77,422.718 1564.53,422.718 1565.3,422.718 1566.06,422.718 1566.82,422.718 1567.59,422.718 1568.35,422.718 1569.11,422.718 1569.87,374.642 1570.64,374.642 1571.4,374.642 1572.16,374.642 1572.93,374.642 1573.69,374.642 1574.45,374.642 1575.22,374.642 1575.98,374.642 1576.74,374.642 1577.5,374.642 1578.27,374.642 1579.03,374.642 1579.79,374.642 1580.56,374.642 1581.32,374.642 1582.08,374.642 1582.85,374.642 1583.61,374.642 1584.37,374.642 1585.14,374.642 1585.9,374.642 1586.66,374.642 1587.42,374.642 1588.19,326.566 1588.95,326.566 1589.71,326.566 1590.48,326.566 1591.24,326.566 1592,326.566 1592.77,326.566 1593.53,326.566 1594.29,326.566 1595.05,326.566 1595.82,326.566 1596.58,326.566 1597.34,326.566 1598.11,326.566 1598.87,326.566 1599.63,326.566 1600.4,326.566 1601.16,326.566 1601.92,326.566 1602.69,326.566 1603.45,326.566 1604.21,326.566 1604.97,326.566 1605.74,326.566 1606.5,326.566 1607.26,326.566 1608.03,326.566 1608.79,326.566 1609.55,326.566 1610.32,326.566 1611.08,326.566 1611.84,326.566 1612.6,326.566 1613.37,326.566 1614.13,326.566 1614.89,326.566 1615.66,326.566 1616.42,326.566 1617.18,326.566 1617.95,326.566 1618.71,326.566 1619.47,326.566 1620.24,326.566 1621,326.566 1621.76,326.566 1622.52,326.566 1623.29,326.566 1624.05,326.566 1624.81,326.566 1625.58,326.566 1626.34,326.566 1627.1,326.566 1627.87,326.566 1628.63,326.566 1629.39,326.566 1630.15,326.566 1630.92,326.566 1631.68,326.566 1632.44,326.566 1633.21,326.566 1633.97,326.566 1634.73,326.566 1635.5,326.566 1636.26,326.566 1637.02,326.566 1637.79,326.566 1638.55,326.566 1639.31,326.566 1640.07,326.566 1640.84,326.566 1641.6,326.566 1642.36,326.566 1643.13,326.566 1643.89,326.566 1644.65,326.566 1645.42,326.566 1646.18,326.566 1646.94,278.49 1647.7,278.49 1648.47,278.49 1649.23,278.49 1649.99,278.49 1650.76,278.49 1651.52,278.49 1652.28,278.49 1653.05,278.49 1653.81,278.49 1654.57,278.49 1655.34,278.49 1656.1,278.49 1656.86,278.49 1657.62,278.49 1658.39,278.49 1659.15,278.49 1659.91,278.49 1660.68,278.49 1661.44,278.49 1662.2,278.49 1662.97,278.49 1663.73,278.49 1664.49,278.49 1665.25,278.49 1666.02,278.49 1666.78,278.49 1667.54,278.49 1668.31,278.49 1669.07,278.49 1669.83,278.49 1670.6,278.49 1671.36,278.49 1672.12,278.49 1672.88,278.49 1673.65,278.49 1674.41,278.49 1675.17,278.49 1675.94,278.49 1676.7,278.49 1677.46,278.49 1678.23,278.49 1678.99,278.49 1679.75,278.49 1680.52,278.49 1681.28,278.49 1682.04,278.49 1682.8,278.49 1683.57,278.49 1684.33,278.49 1685.09,278.49 1685.86,278.49 1686.62,278.49 1687.38,278.49 1688.15,278.49 1688.91,278.49 1689.67,278.49 1690.43,278.49 1691.2,278.49 1691.96,278.49 1692.72,278.49 1693.49,278.49 1694.25,278.49 1695.01,278.49 1695.78,278.49 1696.54,278.49 1697.3,278.49 1698.07,278.49 1698.83,278.49 1699.59,278.49 1700.35,278.49 1701.12,278.49 1701.88,278.49 1702.64,278.49 1703.41,278.49 1704.17,278.49 1704.93,278.49 1705.7,278.49 1706.46,278.49 1707.22,278.49 1707.98,278.49 1708.75,278.49 1709.51,278.49 1710.27,278.49 1711.04,278.49 1711.8,278.49 1712.56,278.49 1713.33,278.49 1714.09,278.49 1714.85,278.49 1715.62,278.49 1716.38,278.49 1717.14,278.49 1717.9,278.49 1718.67,278.49 1719.43,278.49 1720.19,278.49 1720.96,230.414 1721.72,230.414 1722.48,230.414 1723.25,230.414 1724.01,230.414 1724.77,230.414 1725.53,230.414 1726.3,230.414 1727.06,230.414 1727.82,230.414 1728.59,230.414 1729.35,230.414 1730.11,230.414 1730.88,230.414 1731.64,230.414 1732.4,230.414 1733.17,230.414 1733.93,230.414 1734.69,230.414 1735.45,230.414 1736.22,230.414 1736.98,230.414 1737.74,230.414 1738.51,230.414 1739.27,230.414 1740.03,230.414 1740.8,230.414 1741.56,230.414 1742.32,230.414 1743.08,230.414 1743.85,230.414 1744.61,230.414 1745.37,230.414 1746.14,230.414 1746.9,230.414 1747.66,230.414 1748.43,230.414 1749.19,230.414 1749.95,230.414 1750.72,230.414 1751.48,230.414 1752.24,230.414 1753,230.414 1753.77,230.414 1754.53,230.414 1755.29,230.414 1756.06,230.414 1756.82,230.414 1757.58,230.414 1758.35,230.414 1759.11,230.414 1759.87,230.414 1760.63,230.414 1761.4,230.414 1762.16,230.414 1762.92,230.414 1763.69,230.414 1764.45,230.414 1765.21,230.414 1765.98,230.414 1766.74,230.414 1767.5,230.414 1768.27,230.414 1769.03,230.414 1769.79,230.414 1770.55,230.414 1771.32,230.414 1772.08,230.414 1772.84,230.414 1773.61,230.414 1774.37,230.414 1775.13,230.414 1775.9,230.414 1776.66,230.414 1777.42,230.414 1778.18,230.414 1778.95,230.414 1779.71,230.414 1780.47,230.414 1781.24,230.414 1782,230.414 1782.76,230.414 1783.53,230.414 1784.29,230.414 1785.05,230.414 1785.82,230.414 1786.58,230.414 1787.34,230.414 1788.1,230.414 1788.87,230.414 1789.63,230.414 1790.39,230.414 1791.16,230.414 1791.92,230.414 1792.68,230.414 1793.45,230.414 1794.21,230.414 1794.97,230.414 1795.73,230.414 1796.5,230.414 1797.26,230.414 1798.02,230.414 1798.79,230.414 1799.55,230.414 1800.31,230.414 1801.08,230.414 1801.84,230.414 1802.6,230.414 1803.37,230.414 1804.13,230.414 1804.89,230.414 1805.65,230.414 1806.42,230.414 1807.18,230.414 1807.94,230.414 1808.71,230.414 1809.47,230.414 1810.23,230.414 1811,230.414 1811.76,230.414 1812.52,230.414 1813.28,230.414 1814.05,230.414 1814.81,230.414 1815.57,230.414 1816.34,230.414 1817.1,230.414 1817.86,230.414 1818.63,230.414 1819.39,230.414 1820.15,230.414 1820.92,230.414 1821.68,230.414 1822.44,230.414 1823.2,230.414 1823.97,230.414 1824.73,230.414 1825.49,230.414 1826.26,230.414 1827.02,230.414 1827.78,230.414 1828.55,230.414 1829.31,230.414 1830.07,230.414 1830.83,230.414 1831.6,230.414 1832.36,230.414 1833.12,230.414 1833.89,230.414 1834.65,230.414 1835.41,230.414 1836.18,230.414 1836.94,230.414 1837.7,230.414 1838.47,230.414 1839.23,230.414 1839.99,230.414 1840.75,230.414 1841.52,230.414 1842.28,230.414 1843.04,230.414 1843.81,230.414 1844.57,230.414 1845.33,230.414 1846.1,230.414 1846.86,230.414 1847.62,230.414 1848.38,230.414 1849.15,230.414 1849.91,230.414 1850.67,230.414 1851.44,230.414 1852.2,230.414 1852.96,230.414 1853.73,230.414 1854.49,230.414 1855.25,230.414 1856.02,230.414 1856.78,230.414 1857.54,230.414 1858.3,230.414 1859.07,230.414 1859.83,230.414 1860.59,230.414 1861.36,230.414 1862.12,230.414 1862.88,230.414 1863.65,230.414 1864.41,230.414 1865.17,230.414 1865.93,230.414 1866.7,230.414 1867.46,230.414 1868.22,230.414 1868.99,230.414 1869.75,230.414 1870.51,230.414 1871.28,230.414 1872.04,230.414 1872.8,230.414 1873.57,230.414 1874.33,230.414 1875.09,230.414 1875.85,230.414 1876.62,230.414 1877.38,230.414 1878.14,230.414 1878.91,230.414 1879.67,230.414 1880.43,230.414 1881.2,230.414 1881.96,230.414 1882.72,230.414 1883.48,230.414 1884.25,230.414 1885.01,230.414 1885.77,230.414 1886.54,230.414 1887.3,230.414 1888.06,230.414 1888.83,230.414 1889.59,230.414 1890.35,230.414 1891.12,230.414 1891.88,230.414 1892.64,230.414 1893.4,230.414 1894.17,230.414 1894.93,230.414 1895.69,230.414 1896.46,230.414 1897.22,230.414 1897.98,230.414 1898.75,230.414 1899.51,230.414 1900.27,230.414 1901.03,230.414 1901.8,230.414 1902.56,230.414 1903.32,230.414 1904.09,230.414 1904.85,230.414 1905.61,230.414 1906.38,230.414 1907.14,230.414 1907.9,230.414 1908.67,230.414 1909.43,230.414 1910.19,230.414 1910.95,230.414 1911.72,230.414 1912.48,230.414 1913.24,230.414 1914.01,230.414 1914.77,230.414 1915.53,230.414 1916.3,230.414 1917.06,230.414 1917.82,230.414 1918.58,230.414 1919.35,230.414 1920.11,230.414 1920.87,230.414 1921.64,230.414 1922.4,230.414 1923.16,230.414 1923.93,230.414 1924.69,230.414 1925.45,230.414 1926.22,230.414 1926.98,230.414 1927.74,230.414 1928.5,230.414 1929.27,230.414 1930.03,230.414 1930.79,230.414 1931.56,230.414 1932.32,230.414 1933.08,230.414 1933.85,230.414 1934.61,230.414 1935.37,230.414 1936.13,230.414 1936.9,230.414 1937.66,230.414 1938.42,230.414 1939.19,230.414 1939.95,230.414 1940.71,230.414 1941.48,230.414 1942.24,230.414 1943,230.414 1943.77,230.414 1944.53,230.414 1945.29,230.414 1946.05,230.414 1946.82,230.414 1947.58,230.414 1948.34,230.414 1949.11,230.414 1949.87,230.414 1950.63,230.414 1951.4,230.414 1952.16,230.414 1952.92,230.414 1953.68,230.414 1954.45,230.414 1955.21,230.414 1955.97,230.414 1956.74,230.414 1957.5,230.414 1958.26,230.414 1959.03,230.414 1959.79,230.414 1960.55,230.414 1961.32,230.414 1962.08,230.414 1962.84,230.414 1963.6,230.414 1964.37,230.414 1965.13,230.414 1965.89,230.414 1966.66,230.414 1967.42,230.414 1968.18,230.414 1968.95,230.414 1969.71,230.414 1970.47,230.414 1971.23,230.414 1972,230.414 1972.76,230.414 1973.52,230.414 1974.29,230.414 1975.05,230.414 1975.81,230.414 1976.58,230.414 1977.34,230.414 1978.1,230.414 1978.87,230.414 1979.63,230.414 1980.39,230.414 1981.15,230.414 1981.92,230.414 1982.68,230.414 1983.44,230.414 1984.21,230.414 1984.97,230.414 1985.73,230.414 1986.5,230.414 1987.26,230.414 1988.02,230.414 1988.78,230.414 1989.55,230.414 1990.31,230.414 1991.07,230.414 1991.84,230.414 1992.6,230.414 1993.36,230.414 1994.13,230.414 1994.89,230.414 1995.65,230.414 1996.42,230.414 1997.18,230.414 1997.94,230.414 1998.7,230.414 1999.47,230.414 2000.23,230.414 2000.99,230.414 2001.76,230.414 2002.52,230.414 2003.28,230.414 2004.05,230.414 2004.81,230.414 2005.57,230.414 2006.33,230.414 2007.1,230.414 2007.86,230.414 2008.62,230.414 2009.39,230.414 2010.15,230.414 2010.91,230.414 2011.68,230.414 2012.44,230.414 2013.2,230.414 2013.97,230.414 2014.73,230.414 2015.49,230.414 2016.25,230.414 2017.02,230.414 2017.78,230.414 2018.54,230.414 2019.31,230.414 2020.07,230.414 2020.83,230.414 2021.6,230.414 2022.36,230.414 2023.12,230.414 2023.88,230.414 2024.65,230.414 2025.41,230.414 2026.17,230.414 2026.94,230.414 2027.7,230.414 2028.46,230.414 2029.23,230.414 2029.99,230.414 2030.75,230.414 2031.51,230.414 2032.28,230.414 2033.04,230.414 2033.8,230.414 2034.57,230.414 2035.33,230.414 2036.09,230.414 2036.86,230.414 2037.62,230.414 2038.38,230.414 2039.15,230.414 2039.91,230.414 2040.67,230.414 2041.43,230.414 2042.2,230.414 2042.96,230.414 2043.72,230.414 2044.49,230.414 2045.25,230.414 2046.01,230.414 2046.78,230.414 2047.54,230.414 2048.3,230.414 2049.06,230.414 2049.83,230.414 2050.59,230.414 2051.35,230.414 2052.12,230.414 2052.88,230.414 2053.64,230.414 2054.41,230.414 2055.17,230.414 2055.93,230.414 2056.7,230.414 2057.46,230.414 2058.22,230.414 2058.98,230.414 2059.75,230.414 2060.51,230.414 2061.27,230.414 2062.04,230.414 2062.8,230.414 2063.56,230.414 2064.33,230.414 2065.09,230.414 2065.85,230.414 2066.61,230.414 2067.38,230.414 2068.14,230.414 2068.9,230.414 2069.67,230.414 2070.43,230.414 2071.19,230.414 2071.96,230.414 2072.72,230.414 2073.48,230.414 2074.25,230.414 2075.01,230.414 2075.77,230.414 2076.53,230.414 2077.3,230.414 2078.06,230.414 2078.82,230.414 2079.59,230.414 2080.35,230.414 2081.11,230.414 2081.88,230.414 2082.64,230.414 2083.4,230.414 2084.16,230.414 2084.93,182.338 2085.69,182.338 2086.45,182.338 2087.22,182.338 2087.98,182.338 2088.74,182.338 2089.51,182.338 2090.27,182.338 2091.03,182.338 2091.8,182.338 2092.56,182.338 2093.32,182.338 2094.08,182.338 2094.85,182.338 2095.61,182.338 2096.37,182.338 2097.14,182.338 2097.9,182.338 2098.66,182.338 2099.43,182.338 2100.19,182.338 2100.95,182.338 2101.71,182.338 2102.48,182.338 2103.24,182.338 2104,182.338 2104.77,182.338 2105.53,182.338 2106.29,182.338 2107.06,182.338 2107.82,134.262 2108.58,134.262 2109.35,134.262 2110.11,134.262 2110.87,134.262 2111.63,134.262 2112.4,134.262 2113.16,134.262 2113.92,134.262 2114.69,134.262 2115.45,134.262 2116.21,134.262 2116.98,134.262 2117.74,134.262 2118.5,134.262 2119.26,134.262 2120.03,134.262 2120.79,134.262 2121.55,134.262 2122.32,134.262 2123.08,134.262 2123.84,134.262 2124.61,134.262 2125.37,134.262 2126.13,134.262 2126.9,134.262 2127.66,134.262 2128.42,134.262 2129.18,134.262 2129.95,134.262 2130.71,134.262 2131.47,134.262 2132.24,134.262 2133,134.262 2133.76,134.262 2134.53,134.262 2135.29,134.262 2136.05,134.262 2136.81,134.262 2137.58,134.262 2138.34,134.262 2139.1,134.262 2139.87,134.262 2140.63,134.262 2141.39,134.262 2142.16,134.262 2142.92,134.262 2143.68,134.262 2144.45,134.262 2145.21,134.262 2145.97,134.262 2146.73,134.262 2147.5,134.262 2148.26,134.262 2149.02,134.262 2149.79,134.262 2150.55,134.262 2151.31,134.262 2152.08,134.262 2152.84,134.262 2153.6,134.262 2154.36,134.262 2155.13,134.262 2155.89,134.262 2156.65,134.262 2157.42,134.262 2158.18,134.262 2158.94,134.262 2159.71,134.262 2160.47,134.262 2161.23,86.1857 2162,86.1857 2162.76,86.1857 2163.52,86.1857 2164.28,86.1857 2165.05,86.1857 2165.81,86.1857 2166.57,86.1857 2167.34,86.1857 2168.1,86.1857 2168.86,86.1857 2169.63,86.1857 2170.39,86.1857 2171.15,86.1857 2171.91,86.1857 2172.68,86.1857 2173.44,86.1857 2174.2,86.1857 2174.97,86.1857 2175.73,86.1857 2176.49,86.1857 2177.26,86.1857 2178.02,86.1857 2178.78,86.1857 2179.55,86.1857 2180.31,86.1857 2181.07,86.1857 2181.83,86.1857 2182.6,86.1857 2183.36,86.1857 2184.12,86.1857 2184.89,86.1857 2185.65,86.1857 2186.41,86.1857 2187.18,86.1857 2187.94,86.1857 2188.7,86.1857 2189.46,86.1857 2190.23,86.1857 2190.99,86.1857 2191.75,86.1857 2192.52,86.1857 2193.28,86.1857 2194.04,86.1857 2194.81,86.1857 2195.57,86.1857 2196.33,86.1857 2197.1,86.1857 2197.86,86.1857 2198.62,86.1857 2199.38,86.1857 2200.15,86.1857 2200.91,86.1857 2201.67,86.1857 2202.44,86.1857 2203.2,86.1857 2203.96,86.1857 2204.73,86.1857 2205.49,86.1857 2206.25,86.1857 2207.01,86.1857 2207.78,86.1857 2208.54,86.1857 2209.3,86.1857 2210.07,86.1857 2210.83,86.1857 2211.59,86.1857 2212.36,86.1857 2213.12,86.1857 2213.88,86.1857 2214.65,86.1857 2215.41,86.1857 2216.17,86.1857 2216.93,86.1857 2217.7,86.1857 2218.46,86.1857 2219.22,86.1857 2219.99,86.1857 2220.75,86.1857 2221.51,86.1857 2222.28,86.1857 2223.04,86.1857 2223.8,86.1857 2224.56,86.1857 2225.33,86.1857 2226.09,86.1857 2226.85,86.1857 2227.62,86.1857 2228.38,86.1857 2229.14,86.1857 2229.91,86.1857 2230.67,86.1857 2231.43,86.1857 2232.2,86.1857 2232.96,86.1857 2233.72,86.1857 2234.48,86.1857 2235.25,86.1857 2236.01,86.1857 2236.77,86.1857 2237.54,86.1857 2238.3,86.1857 2239.06,86.1857 2239.83,86.1857 2240.59,86.1857 2241.35,86.1857 2242.11,86.1857 2242.88,86.1857 2243.64,86.1857 2244.4,86.1857 2245.17,86.1857 2245.93,86.1857 2246.69,86.1857 2247.46,86.1857 2248.22,86.1857 2248.98,86.1857 2249.75,86.1857 2250.51,86.1857 2251.27,86.1857 2252.03,86.1857 2252.8,86.1857 2253.56,86.1857 2254.32,86.1857 2255.09,86.1857 2255.85,86.1857 2256.61,86.1857 2257.38,86.1857 2258.14,86.1857 2258.9,86.1857 2259.66,86.1857 2260.43,86.1857 2261.19,86.1857 2261.95,86.1857 2262.72,86.1857 2263.48,86.1857 2264.24,86.1857 2265.01,86.1857 2265.77,86.1857 2266.53,86.1857 2267.3,86.1857 2268.06,86.1857 2268.82,86.1857 2269.58,86.1857 2270.35,86.1857 2271.11,86.1857 2271.87,86.1857 2272.64,86.1857 2273.4,86.1857 2274.16,86.1857 2274.93,86.1857 2275.69,86.1857 2276.45,86.1857 2277.21,86.1857 2277.98,86.1857 2278.74,86.1857 2279.5,86.1857 2280.27,86.1857 2281.03,86.1857 2281.79,86.1857 2282.56,86.1857 2283.32,86.1857 2284.08,86.1857 2284.85,86.1857 2285.61,86.1857 2286.37,86.1857 2287.13,86.1857 2287.9,86.1857 2288.66,86.1857 2289.42,86.1857 2290.19,86.1857 2290.95,86.1857 2291.71,86.1857 2292.48,86.1857 2293.24,86.1857 2294,86.1857 2294.76,86.1857 2295.53,86.1857 2296.29,86.1857 2297.05,86.1857 2297.82,86.1857 2298.58,86.1857 2299.34,86.1857 2300.11,86.1857 2300.87,86.1857 2301.63,86.1857 2302.4,86.1857 2303.16,86.1857 2303.92,86.1857 2304.68,86.1857 2305.45,86.1857 2306.21,86.1857 2306.97,86.1857 2307.74,86.1857 2308.5,86.1857 2309.26,86.1857 2310.03,86.1857 2310.79,86.1857 2311.55,86.1857 2312.31,86.1857 2313.08,86.1857 2313.84,86.1857 2314.6,86.1857 2315.37,86.1857 2316.13,86.1857 2316.89,86.1857 2317.66,86.1857 2318.42,86.1857 2319.18,86.1857 2319.95,86.1857 2320.71,86.1857 2321.47,86.1857 2322.23,86.1857 2323,86.1857 2323.76,86.1857 2324.52,86.1857 2325.29,86.1857 2326.05,86.1857 2326.81,86.1857 2327.58,86.1857 2328.34,86.1857 2329.1,86.1857 2329.86,86.1857 2330.63,86.1857 2331.39,86.1857 2332.15,86.1857 2332.92,86.1857 2333.68,86.1857 2334.44,86.1857 2335.21,86.1857 2335.97,86.1857 2336.73,86.1857 2337.5,86.1857 2338.26,86.1857 2339.02,86.1857 2339.78,86.1857 2340.55,86.1857 2341.31,86.1857 2342.07,86.1857 2342.84,86.1857 2343.6,86.1857 2344.36,86.1857 2345.13,86.1857 2345.89,86.1857 2346.65,86.1857 2347.41,86.1857 2348.18,86.1857 2348.94,86.1857 2349.7,86.1857 2350.47,86.1857 2351.23,86.1857 2351.99,86.1857 2352.76,86.1857 "/>
<path clip-path="url(#clip920)" d="M1975.5 1377.32 L2279.02 1377.32 L2279.02 1273.64 L1975.5 1273.64  Z" fill="#ffffff" fill-rule="evenodd" fill-opacity="1"/>
<polyline clip-path="url(#clip920)" style="stroke:#000000; stroke-linecap:round; stroke-linejoin:round; stroke-width:4; stroke-opacity:1; fill:none" points="1975.5,1377.32 2279.02,1377.32 2279.02,1273.64 1975.5,1273.64 1975.5,1377.32 "/>
<polyline clip-path="url(#clip920)" style="stroke:#009af9; stroke-linecap:round; stroke-linejoin:round; stroke-width:8; stroke-opacity:1; fill:none" points="2000.08,1325.48 2147.55,1325.48 "/>
<path clip-path="url(#clip920)" d="M2172.13 1308.2 L2178.42 1308.2 L2193.75 1337.11 L2193.75 1308.2 L2198.29 1308.2 L2198.29 1342.76 L2191.99 1342.76 L2176.66 1313.84 L2176.66 1342.76 L2172.13 1342.76 L2172.13 1308.2 Z" fill="#000000" fill-rule="nonzero" fill-opacity="1" /><path clip-path="url(#clip920)" d="M2217.64 1306.78 Q2214.53 1312.11 2213.03 1317.32 Q2211.53 1322.52 2211.53 1327.87 Q2211.53 1333.22 2213.03 1338.47 Q2214.56 1343.7 2217.64 1349.01 L2213.93 1349.01 Q2210.46 1343.57 2208.72 1338.31 Q2207.01 1333.06 2207.01 1327.87 Q2207.01 1322.71 2208.72 1317.48 Q2210.44 1312.25 2213.93 1306.78 L2217.64 1306.78 Z" fill="#000000" fill-rule="nonzero" fill-opacity="1" /><path clip-path="url(#clip920)" d="M2230.11 1309.47 L2230.11 1316.83 L2238.89 1316.83 L2238.89 1320.14 L2230.11 1320.14 L2230.11 1334.21 Q2230.11 1337.38 2230.97 1338.29 Q2231.85 1339.19 2234.51 1339.19 L2238.89 1339.19 L2238.89 1342.76 L2234.51 1342.76 Q2229.58 1342.76 2227.71 1340.93 Q2225.83 1339.07 2225.83 1334.21 L2225.83 1320.14 L2222.71 1320.14 L2222.71 1316.83 L2225.83 1316.83 L2225.83 1309.47 L2230.11 1309.47 Z" fill="#000000" fill-rule="nonzero" fill-opacity="1" /><path clip-path="url(#clip920)" d="M2243.82 1306.78 L2247.52 1306.78 Q2250.99 1312.25 2252.71 1317.48 Q2254.44 1322.71 2254.44 1327.87 Q2254.44 1333.06 2252.71 1338.31 Q2250.99 1343.57 2247.52 1349.01 L2243.82 1349.01 Q2246.9 1343.7 2248.4 1338.47 Q2249.93 1333.22 2249.93 1327.87 Q2249.93 1322.52 2248.4 1317.32 Q2246.9 1312.11 2243.82 1306.78 Z" fill="#000000" fill-rule="nonzero" fill-opacity="1" /></svg>
