<?xml version="1.0" encoding="utf-8"?>
<svg xmlns="http://www.w3.org/2000/svg" xmlns:xlink="http://www.w3.org/1999/xlink" width="600" height="400" viewBox="0 0 2400 1600">
<defs>
  <clipPath id="clip970">
    <rect x="0" y="0" width="2400" height="1600"/>
  </clipPath>
</defs>
<path clip-path="url(#clip970)" d="M0 1600 L2400 1600 L2400 0 L0 0  Z" fill="#ffffff" fill-rule="evenodd" fill-opacity="1"/>
<defs>
  <clipPath id="clip971">
    <rect x="480" y="0" width="1681" height="1600"/>
  </clipPath>
</defs>
<path clip-path="url(#clip970)" d="M186.274 1423.18 L2352.76 1423.18 L2352.76 47.2441 L186.274 47.2441  Z" fill="#ffffff" fill-rule="evenodd" fill-opacity="1"/>
<defs>
  <clipPath id="clip972">
    <rect x="186" y="47" width="2167" height="1377"/>
  </clipPath>
</defs>
<polyline clip-path="url(#clip972)" style="stroke:#000000; stroke-linecap:round; stroke-linejoin:round; stroke-width:2; stroke-opacity:0.1; fill:none" points="186.274,1423.18 186.274,47.2441 "/>
<polyline clip-path="url(#clip972)" style="stroke:#000000; stroke-linecap:round; stroke-linejoin:round; stroke-width:2; stroke-opacity:0.1; fill:none" points="619.57,1423.18 619.57,47.2441 "/>
<polyline clip-path="url(#clip972)" style="stroke:#000000; stroke-linecap:round; stroke-linejoin:round; stroke-width:2; stroke-opacity:0.1; fill:none" points="1052.87,1423.18 1052.87,47.2441 "/>
<polyline clip-path="url(#clip972)" style="stroke:#000000; stroke-linecap:round; stroke-linejoin:round; stroke-width:2; stroke-opacity:0.1; fill:none" points="1486.16,1423.18 1486.16,47.2441 "/>
<polyline clip-path="url(#clip972)" style="stroke:#000000; stroke-linecap:round; stroke-linejoin:round; stroke-width:2; stroke-opacity:0.1; fill:none" points="1919.46,1423.18 1919.46,47.2441 "/>
<polyline clip-path="url(#clip972)" style="stroke:#000000; stroke-linecap:round; stroke-linejoin:round; stroke-width:2; stroke-opacity:0.1; fill:none" points="2352.76,1423.18 2352.76,47.2441 "/>
<polyline clip-path="url(#clip970)" style="stroke:#000000; stroke-linecap:round; stroke-linejoin:round; stroke-width:4; stroke-opacity:1; fill:none" points="186.274,1423.18 2352.76,1423.18 "/>
<polyline clip-path="url(#clip970)" style="stroke:#000000; stroke-linecap:round; stroke-linejoin:round; stroke-width:4; stroke-opacity:1; fill:none" points="186.274,1423.18 186.274,1404.28 "/>
<polyline clip-path="url(#clip970)" style="stroke:#000000; stroke-linecap:round; stroke-linejoin:round; stroke-width:4; stroke-opacity:1; fill:none" points="619.57,1423.18 619.57,1404.28 "/>
<polyline clip-path="url(#clip970)" style="stroke:#000000; stroke-linecap:round; stroke-linejoin:round; stroke-width:4; stroke-opacity:1; fill:none" points="1052.87,1423.18 1052.87,1404.28 "/>
<polyline clip-path="url(#clip970)" style="stroke:#000000; stroke-linecap:round; stroke-linejoin:round; stroke-width:4; stroke-opacity:1; fill:none" points="1486.16,1423.18 1486.16,1404.28 "/>
<polyline clip-path="url(#clip970)" style="stroke:#000000; stroke-linecap:round; stroke-linejoin:round; stroke-width:4; stroke-opacity:1; fill:none" points="1919.46,1423.18 1919.46,1404.28 "/>
<polyline clip-path="url(#clip970)" style="stroke:#000000; stroke-linecap:round; stroke-linejoin:round; stroke-width:4; stroke-opacity:1; fill:none" points="2352.76,1423.18 2352.76,1404.28 "/>
<path clip-path="url(#clip970)" d="M186.274 1454.1 Q182.663 1454.1 180.834 1457.66 Q179.029 1461.2 179.029 1468.33 Q179.029 1475.44 180.834 1479.01 Q182.663 1482.55 186.274 1482.55 Q189.908 1482.55 191.714 1479.01 Q193.542 1475.44 193.542 1468.33 Q193.542 1461.2 191.714 1457.66 Q189.908 1454.1 186.274 1454.1 M186.274 1450.39 Q192.084 1450.39 195.14 1455 Q198.218 1459.58 198.218 1468.33 Q198.218 1477.06 195.14 1481.67 Q192.084 1486.25 186.274 1486.25 Q180.464 1486.25 177.385 1481.67 Q174.33 1477.06 174.33 1468.33 Q174.33 1459.58 177.385 1455 Q180.464 1450.39 186.274 1450.39 Z" fill="#000000" fill-rule="nonzero" fill-opacity="1" /><path clip-path="url(#clip970)" d="M614.223 1481.64 L630.543 1481.64 L630.543 1485.58 L608.598 1485.58 L608.598 1481.64 Q611.26 1478.89 615.844 1474.26 Q620.45 1469.61 621.631 1468.27 Q623.876 1465.74 624.756 1464.01 Q625.658 1462.25 625.658 1460.56 Q625.658 1457.8 623.714 1456.07 Q621.793 1454.33 618.691 1454.33 Q616.492 1454.33 614.038 1455.09 Q611.607 1455.86 608.83 1457.41 L608.83 1452.69 Q611.654 1451.55 614.107 1450.97 Q616.561 1450.39 618.598 1450.39 Q623.969 1450.39 627.163 1453.08 Q630.357 1455.77 630.357 1460.26 Q630.357 1462.39 629.547 1464.31 Q628.76 1466.2 626.654 1468.8 Q626.075 1469.47 622.973 1472.69 Q619.871 1475.88 614.223 1481.64 Z" fill="#000000" fill-rule="nonzero" fill-opacity="1" /><path clip-path="url(#clip970)" d="M1055.88 1455.09 L1044.07 1473.54 L1055.88 1473.54 L1055.88 1455.09 M1054.65 1451.02 L1060.53 1451.02 L1060.53 1473.54 L1065.46 1473.54 L1065.46 1477.43 L1060.53 1477.43 L1060.53 1485.58 L1055.88 1485.58 L1055.88 1477.43 L1040.27 1477.43 L1040.27 1472.92 L1054.65 1451.02 Z" fill="#000000" fill-rule="nonzero" fill-opacity="1" /><path clip-path="url(#clip970)" d="M1486.57 1466.44 Q1483.42 1466.44 1481.57 1468.59 Q1479.74 1470.74 1479.74 1474.49 Q1479.74 1478.22 1481.57 1480.39 Q1483.42 1482.55 1486.57 1482.55 Q1489.72 1482.55 1491.55 1480.39 Q1493.4 1478.22 1493.4 1474.49 Q1493.4 1470.74 1491.55 1468.59 Q1489.72 1466.44 1486.57 1466.44 M1495.85 1451.78 L1495.85 1456.04 Q1494.09 1455.21 1492.29 1454.77 Q1490.5 1454.33 1488.74 1454.33 Q1484.11 1454.33 1481.66 1457.45 Q1479.23 1460.58 1478.88 1466.9 Q1480.25 1464.89 1482.31 1463.82 Q1484.37 1462.73 1486.85 1462.73 Q1492.05 1462.73 1495.06 1465.9 Q1498.1 1469.05 1498.1 1474.49 Q1498.1 1479.82 1494.95 1483.03 Q1491.8 1486.25 1486.57 1486.25 Q1480.57 1486.25 1477.4 1481.67 Q1474.23 1477.06 1474.23 1468.33 Q1474.23 1460.14 1478.12 1455.28 Q1482.01 1450.39 1488.56 1450.39 Q1490.32 1450.39 1492.1 1450.74 Q1493.91 1451.09 1495.85 1451.78 Z" fill="#000000" fill-rule="nonzero" fill-opacity="1" /><path clip-path="url(#clip970)" d="M1919.46 1469.17 Q1916.13 1469.17 1914.2 1470.95 Q1912.31 1472.73 1912.31 1475.86 Q1912.31 1478.98 1914.2 1480.77 Q1916.13 1482.55 1919.46 1482.55 Q1922.79 1482.55 1924.71 1480.77 Q1926.64 1478.96 1926.64 1475.86 Q1926.64 1472.73 1924.71 1470.95 Q1922.82 1469.17 1919.46 1469.17 M1914.78 1467.18 Q1911.77 1466.44 1910.08 1464.38 Q1908.42 1462.32 1908.42 1459.35 Q1908.42 1455.21 1911.36 1452.8 Q1914.32 1450.39 1919.46 1450.39 Q1924.62 1450.39 1927.56 1452.8 Q1930.5 1455.21 1930.5 1459.35 Q1930.5 1462.32 1928.81 1464.38 Q1927.14 1466.44 1924.16 1467.18 Q1927.54 1467.96 1929.41 1470.26 Q1931.31 1472.55 1931.31 1475.86 Q1931.31 1480.88 1928.23 1483.57 Q1925.18 1486.25 1919.46 1486.25 Q1913.74 1486.25 1910.66 1483.57 Q1907.61 1480.88 1907.61 1475.86 Q1907.61 1472.55 1909.51 1470.26 Q1911.4 1467.96 1914.78 1467.18 M1913.07 1459.79 Q1913.07 1462.48 1914.74 1463.98 Q1916.43 1465.49 1919.46 1465.49 Q1922.47 1465.49 1924.16 1463.98 Q1925.87 1462.48 1925.87 1459.79 Q1925.87 1457.11 1924.16 1455.6 Q1922.47 1454.1 1919.46 1454.1 Q1916.43 1454.1 1914.74 1455.6 Q1913.07 1457.11 1913.07 1459.79 Z" fill="#000000" fill-rule="nonzero" fill-opacity="1" /><path clip-path="url(#clip970)" d="M2327.44 1481.64 L2335.08 1481.64 L2335.08 1455.28 L2326.77 1456.95 L2326.77 1452.69 L2335.04 1451.02 L2339.71 1451.02 L2339.71 1481.64 L2347.35 1481.64 L2347.35 1485.58 L2327.44 1485.58 L2327.44 1481.64 Z" fill="#000000" fill-rule="nonzero" fill-opacity="1" /><path clip-path="url(#clip970)" d="M2366.8 1454.1 Q2363.18 1454.1 2361.36 1457.66 Q2359.55 1461.2 2359.55 1468.33 Q2359.55 1475.44 2361.36 1479.01 Q2363.18 1482.55 2366.8 1482.55 Q2370.43 1482.55 2372.23 1479.01 Q2374.06 1475.44 2374.06 1468.33 Q2374.06 1461.2 2372.23 1457.66 Q2370.43 1454.1 2366.8 1454.1 M2366.8 1450.39 Q2372.61 1450.39 2375.66 1455 Q2378.74 1459.58 2378.74 1468.33 Q2378.74 1477.06 2375.66 1481.67 Q2372.61 1486.25 2366.8 1486.25 Q2360.99 1486.25 2357.91 1481.67 Q2354.85 1477.06 2354.85 1468.33 Q2354.85 1459.58 2357.91 1455 Q2360.99 1450.39 2366.8 1450.39 Z" fill="#000000" fill-rule="nonzero" fill-opacity="1" /><path clip-path="url(#clip970)" d="M1268.58 1522.27 L1268.58 1532.4 L1280.64 1532.4 L1280.64 1536.95 L1268.58 1536.95 L1268.58 1556.3 Q1268.58 1560.66 1269.75 1561.9 Q1270.96 1563.14 1274.62 1563.14 L1280.64 1563.14 L1280.64 1568.04 L1274.62 1568.04 Q1267.84 1568.04 1265.27 1565.53 Q1262.69 1562.98 1262.69 1556.3 L1262.69 1536.95 L1258.39 1536.95 L1258.39 1532.4 L1262.69 1532.4 L1262.69 1522.27 L1268.58 1522.27 Z" fill="#000000" fill-rule="nonzero" fill-opacity="1" /><polyline clip-path="url(#clip972)" style="stroke:#000000; stroke-linecap:round; stroke-linejoin:round; stroke-width:2; stroke-opacity:0.1; fill:none" points="186.274,1410.1 2352.76,1410.1 "/>
<polyline clip-path="url(#clip972)" style="stroke:#000000; stroke-linecap:round; stroke-linejoin:round; stroke-width:2; stroke-opacity:0.1; fill:none" points="186.274,1159.41 2352.76,1159.41 "/>
<polyline clip-path="url(#clip972)" style="stroke:#000000; stroke-linecap:round; stroke-linejoin:round; stroke-width:2; stroke-opacity:0.1; fill:none" points="186.274,908.712 2352.76,908.712 "/>
<polyline clip-path="url(#clip972)" style="stroke:#000000; stroke-linecap:round; stroke-linejoin:round; stroke-width:2; stroke-opacity:0.1; fill:none" points="186.274,658.02 2352.76,658.02 "/>
<polyline clip-path="url(#clip972)" style="stroke:#000000; stroke-linecap:round; stroke-linejoin:round; stroke-width:2; stroke-opacity:0.1; fill:none" points="186.274,407.327 2352.76,407.327 "/>
<polyline clip-path="url(#clip972)" style="stroke:#000000; stroke-linecap:round; stroke-linejoin:round; stroke-width:2; stroke-opacity:0.1; fill:none" points="186.274,156.634 2352.76,156.634 "/>
<polyline clip-path="url(#clip970)" style="stroke:#000000; stroke-linecap:round; stroke-linejoin:round; stroke-width:4; stroke-opacity:1; fill:none" points="186.274,1423.18 186.274,47.2441 "/>
<polyline clip-path="url(#clip970)" style="stroke:#000000; stroke-linecap:round; stroke-linejoin:round; stroke-width:4; stroke-opacity:1; fill:none" points="186.274,1410.1 205.172,1410.1 "/>
<polyline clip-path="url(#clip970)" style="stroke:#000000; stroke-linecap:round; stroke-linejoin:round; stroke-width:4; stroke-opacity:1; fill:none" points="186.274,1159.41 205.172,1159.41 "/>
<polyline clip-path="url(#clip970)" style="stroke:#000000; stroke-linecap:round; stroke-linejoin:round; stroke-width:4; stroke-opacity:1; fill:none" points="186.274,908.712 205.172,908.712 "/>
<polyline clip-path="url(#clip970)" style="stroke:#000000; stroke-linecap:round; stroke-linejoin:round; stroke-width:4; stroke-opacity:1; fill:none" points="186.274,658.02 205.172,658.02 "/>
<polyline clip-path="url(#clip970)" style="stroke:#000000; stroke-linecap:round; stroke-linejoin:round; stroke-width:4; stroke-opacity:1; fill:none" points="186.274,407.327 205.172,407.327 "/>
<polyline clip-path="url(#clip970)" style="stroke:#000000; stroke-linecap:round; stroke-linejoin:round; stroke-width:4; stroke-opacity:1; fill:none" points="186.274,156.634 205.172,156.634 "/>
<path clip-path="url(#clip970)" d="M62.9365 1395.9 Q59.3254 1395.9 57.4967 1399.46 Q55.6912 1403 55.6912 1410.13 Q55.6912 1417.24 57.4967 1420.8 Q59.3254 1424.35 62.9365 1424.35 Q66.5707 1424.35 68.3763 1420.8 Q70.205 1417.24 70.205 1410.13 Q70.205 1403 68.3763 1399.46 Q66.5707 1395.9 62.9365 1395.9 M62.9365 1392.19 Q68.7467 1392.19 71.8022 1396.8 Q74.8809 1401.38 74.8809 1410.13 Q74.8809 1418.86 71.8022 1423.47 Q68.7467 1428.05 62.9365 1428.05 Q57.1264 1428.05 54.0477 1423.47 Q50.9921 1418.86 50.9921 1410.13 Q50.9921 1401.38 54.0477 1396.8 Q57.1264 1392.19 62.9365 1392.19 Z" fill="#000000" fill-rule="nonzero" fill-opacity="1" /><path clip-path="url(#clip970)" d="M83.0984 1421.5 L87.9827 1421.5 L87.9827 1427.38 L83.0984 1427.38 L83.0984 1421.5 Z" fill="#000000" fill-rule="nonzero" fill-opacity="1" /><path clip-path="url(#clip970)" d="M108.168 1395.9 Q104.557 1395.9 102.728 1399.46 Q100.922 1403 100.922 1410.13 Q100.922 1417.24 102.728 1420.8 Q104.557 1424.35 108.168 1424.35 Q111.802 1424.35 113.608 1420.8 Q115.436 1417.24 115.436 1410.13 Q115.436 1403 113.608 1399.46 Q111.802 1395.9 108.168 1395.9 M108.168 1392.19 Q113.978 1392.19 117.033 1396.8 Q120.112 1401.38 120.112 1410.13 Q120.112 1418.86 117.033 1423.47 Q113.978 1428.05 108.168 1428.05 Q102.358 1428.05 99.2789 1423.47 Q96.2234 1418.86 96.2234 1410.13 Q96.2234 1401.38 99.2789 1396.8 Q102.358 1392.19 108.168 1392.19 Z" fill="#000000" fill-rule="nonzero" fill-opacity="1" /><path clip-path="url(#clip970)" d="M138.33 1395.9 Q134.719 1395.9 132.89 1399.46 Q131.084 1403 131.084 1410.13 Q131.084 1417.24 132.89 1420.8 Q134.719 1424.35 138.33 1424.35 Q141.964 1424.35 143.769 1420.8 Q145.598 1417.24 145.598 1410.13 Q145.598 1403 143.769 1399.46 Q141.964 1395.9 138.33 1395.9 M138.33 1392.19 Q144.14 1392.19 147.195 1396.8 Q150.274 1401.38 150.274 1410.13 Q150.274 1418.86 147.195 1423.47 Q144.14 1428.05 138.33 1428.05 Q132.519 1428.05 129.441 1423.47 Q126.385 1418.86 126.385 1410.13 Q126.385 1401.38 129.441 1396.8 Q132.519 1392.19 138.33 1392.19 Z" fill="#000000" fill-rule="nonzero" fill-opacity="1" /><path clip-path="url(#clip970)" d="M63.9319 1145.2 Q60.3208 1145.2 58.4921 1148.77 Q56.6865 1152.31 56.6865 1159.44 Q56.6865 1166.55 58.4921 1170.11 Q60.3208 1173.65 63.9319 1173.65 Q67.5661 1173.65 69.3717 1170.11 Q71.2004 1166.55 71.2004 1159.44 Q71.2004 1152.31 69.3717 1148.77 Q67.5661 1145.2 63.9319 1145.2 M63.9319 1141.5 Q69.742 1141.5 72.7976 1146.11 Q75.8763 1150.69 75.8763 1159.44 Q75.8763 1168.17 72.7976 1172.77 Q69.742 1177.36 63.9319 1177.36 Q58.1217 1177.36 55.043 1172.77 Q51.9875 1168.17 51.9875 1159.44 Q51.9875 1150.69 55.043 1146.11 Q58.1217 1141.5 63.9319 1141.5 Z" fill="#000000" fill-rule="nonzero" fill-opacity="1" /><path clip-path="url(#clip970)" d="M84.0938 1170.81 L88.978 1170.81 L88.978 1176.69 L84.0938 1176.69 L84.0938 1170.81 Z" fill="#000000" fill-rule="nonzero" fill-opacity="1" /><path clip-path="url(#clip970)" d="M109.163 1145.2 Q105.552 1145.2 103.723 1148.77 Q101.918 1152.31 101.918 1159.44 Q101.918 1166.55 103.723 1170.11 Q105.552 1173.65 109.163 1173.65 Q112.797 1173.65 114.603 1170.11 Q116.432 1166.55 116.432 1159.44 Q116.432 1152.31 114.603 1148.77 Q112.797 1145.2 109.163 1145.2 M109.163 1141.5 Q114.973 1141.5 118.029 1146.11 Q121.107 1150.69 121.107 1159.44 Q121.107 1168.17 118.029 1172.77 Q114.973 1177.36 109.163 1177.36 Q103.353 1177.36 100.274 1172.77 Q97.2187 1168.17 97.2187 1159.44 Q97.2187 1150.69 100.274 1146.11 Q103.353 1141.5 109.163 1141.5 Z" fill="#000000" fill-rule="nonzero" fill-opacity="1" /><path clip-path="url(#clip970)" d="M129.371 1142.13 L147.728 1142.13 L147.728 1146.06 L133.654 1146.06 L133.654 1154.53 Q134.672 1154.19 135.691 1154.02 Q136.709 1153.84 137.728 1153.84 Q143.515 1153.84 146.894 1157.01 Q150.274 1160.18 150.274 1165.6 Q150.274 1171.18 146.802 1174.28 Q143.33 1177.36 137.01 1177.36 Q134.834 1177.36 132.566 1176.99 Q130.32 1176.62 127.913 1175.88 L127.913 1171.18 Q129.996 1172.31 132.219 1172.87 Q134.441 1173.42 136.918 1173.42 Q140.922 1173.42 143.26 1171.31 Q145.598 1169.21 145.598 1165.6 Q145.598 1161.99 143.26 1159.88 Q140.922 1157.77 136.918 1157.77 Q135.043 1157.77 133.168 1158.19 Q131.316 1158.61 129.371 1159.49 L129.371 1142.13 Z" fill="#000000" fill-rule="nonzero" fill-opacity="1" /><path clip-path="url(#clip970)" d="M62.9365 894.511 Q59.3254 894.511 57.4967 898.076 Q55.6912 901.618 55.6912 908.747 Q55.6912 915.854 57.4967 919.418 Q59.3254 922.96 62.9365 922.96 Q66.5707 922.96 68.3763 919.418 Q70.205 915.854 70.205 908.747 Q70.205 901.618 68.3763 898.076 Q66.5707 894.511 62.9365 894.511 M62.9365 890.807 Q68.7467 890.807 71.8022 895.414 Q74.8809 899.997 74.8809 908.747 Q74.8809 917.474 71.8022 922.08 Q68.7467 926.664 62.9365 926.664 Q57.1264 926.664 54.0477 922.08 Q50.9921 917.474 50.9921 908.747 Q50.9921 899.997 54.0477 895.414 Q57.1264 890.807 62.9365 890.807 Z" fill="#000000" fill-rule="nonzero" fill-opacity="1" /><path clip-path="url(#clip970)" d="M83.0984 920.113 L87.9827 920.113 L87.9827 925.992 L83.0984 925.992 L83.0984 920.113 Z" fill="#000000" fill-rule="nonzero" fill-opacity="1" /><path clip-path="url(#clip970)" d="M98.978 922.057 L106.617 922.057 L106.617 895.692 L98.3067 897.358 L98.3067 893.099 L106.571 891.432 L111.246 891.432 L111.246 922.057 L118.885 922.057 L118.885 925.992 L98.978 925.992 L98.978 922.057 Z" fill="#000000" fill-rule="nonzero" fill-opacity="1" /><path clip-path="url(#clip970)" d="M138.33 894.511 Q134.719 894.511 132.89 898.076 Q131.084 901.618 131.084 908.747 Q131.084 915.854 132.89 919.418 Q134.719 922.96 138.33 922.96 Q141.964 922.96 143.769 919.418 Q145.598 915.854 145.598 908.747 Q145.598 901.618 143.769 898.076 Q141.964 894.511 138.33 894.511 M138.33 890.807 Q144.14 890.807 147.195 895.414 Q150.274 899.997 150.274 908.747 Q150.274 917.474 147.195 922.08 Q144.14 926.664 138.33 926.664 Q132.519 926.664 129.441 922.08 Q126.385 917.474 126.385 908.747 Q126.385 899.997 129.441 895.414 Q132.519 890.807 138.33 890.807 Z" fill="#000000" fill-rule="nonzero" fill-opacity="1" /><path clip-path="url(#clip970)" d="M63.9319 643.818 Q60.3208 643.818 58.4921 647.383 Q56.6865 650.925 56.6865 658.054 Q56.6865 665.161 58.4921 668.726 Q60.3208 672.267 63.9319 672.267 Q67.5661 672.267 69.3717 668.726 Q71.2004 665.161 71.2004 658.054 Q71.2004 650.925 69.3717 647.383 Q67.5661 643.818 63.9319 643.818 M63.9319 640.115 Q69.742 640.115 72.7976 644.721 Q75.8763 649.304 75.8763 658.054 Q75.8763 666.781 72.7976 671.388 Q69.742 675.971 63.9319 675.971 Q58.1217 675.971 55.043 671.388 Q51.9875 666.781 51.9875 658.054 Q51.9875 649.304 55.043 644.721 Q58.1217 640.115 63.9319 640.115 Z" fill="#000000" fill-rule="nonzero" fill-opacity="1" /><path clip-path="url(#clip970)" d="M84.0938 669.42 L88.978 669.42 L88.978 675.3 L84.0938 675.3 L84.0938 669.42 Z" fill="#000000" fill-rule="nonzero" fill-opacity="1" /><path clip-path="url(#clip970)" d="M99.9733 671.364 L107.612 671.364 L107.612 644.999 L99.3021 646.665 L99.3021 642.406 L107.566 640.74 L112.242 640.74 L112.242 671.364 L119.881 671.364 L119.881 675.3 L99.9733 675.3 L99.9733 671.364 Z" fill="#000000" fill-rule="nonzero" fill-opacity="1" /><path clip-path="url(#clip970)" d="M129.371 640.74 L147.728 640.74 L147.728 644.675 L133.654 644.675 L133.654 653.147 Q134.672 652.8 135.691 652.638 Q136.709 652.452 137.728 652.452 Q143.515 652.452 146.894 655.624 Q150.274 658.795 150.274 664.212 Q150.274 669.79 146.802 672.892 Q143.33 675.971 137.01 675.971 Q134.834 675.971 132.566 675.6 Q130.32 675.23 127.913 674.489 L127.913 669.79 Q129.996 670.925 132.219 671.48 Q134.441 672.036 136.918 672.036 Q140.922 672.036 143.26 669.929 Q145.598 667.823 145.598 664.212 Q145.598 660.601 143.26 658.494 Q140.922 656.388 136.918 656.388 Q135.043 656.388 133.168 656.804 Q131.316 657.221 129.371 658.101 L129.371 640.74 Z" fill="#000000" fill-rule="nonzero" fill-opacity="1" /><path clip-path="url(#clip970)" d="M62.9365 393.125 Q59.3254 393.125 57.4967 396.69 Q55.6912 400.232 55.6912 407.361 Q55.6912 414.468 57.4967 418.033 Q59.3254 421.574 62.9365 421.574 Q66.5707 421.574 68.3763 418.033 Q70.205 414.468 70.205 407.361 Q70.205 400.232 68.3763 396.69 Q66.5707 393.125 62.9365 393.125 M62.9365 389.422 Q68.7467 389.422 71.8022 394.028 Q74.8809 398.611 74.8809 407.361 Q74.8809 416.088 71.8022 420.695 Q68.7467 425.278 62.9365 425.278 Q57.1264 425.278 54.0477 420.695 Q50.9921 416.088 50.9921 407.361 Q50.9921 398.611 54.0477 394.028 Q57.1264 389.422 62.9365 389.422 Z" fill="#000000" fill-rule="nonzero" fill-opacity="1" /><path clip-path="url(#clip970)" d="M83.0984 418.727 L87.9827 418.727 L87.9827 424.607 L83.0984 424.607 L83.0984 418.727 Z" fill="#000000" fill-rule="nonzero" fill-opacity="1" /><path clip-path="url(#clip970)" d="M102.196 420.672 L118.515 420.672 L118.515 424.607 L96.5706 424.607 L96.5706 420.672 Q99.2326 417.917 103.816 413.287 Q108.422 408.635 109.603 407.292 Q111.848 404.769 112.728 403.033 Q113.631 401.274 113.631 399.584 Q113.631 396.829 111.686 395.093 Q109.765 393.357 106.663 393.357 Q104.464 393.357 102.01 394.121 Q99.5798 394.885 96.8021 396.436 L96.8021 391.713 Q99.6261 390.579 102.08 390 Q104.534 389.422 106.571 389.422 Q111.941 389.422 115.135 392.107 Q118.33 394.792 118.33 399.283 Q118.33 401.412 117.52 403.334 Q116.733 405.232 114.626 407.824 Q114.047 408.496 110.946 411.713 Q107.844 414.908 102.196 420.672 Z" fill="#000000" fill-rule="nonzero" fill-opacity="1" /><path clip-path="url(#clip970)" d="M138.33 393.125 Q134.719 393.125 132.89 396.69 Q131.084 400.232 131.084 407.361 Q131.084 414.468 132.89 418.033 Q134.719 421.574 138.33 421.574 Q141.964 421.574 143.769 418.033 Q145.598 414.468 145.598 407.361 Q145.598 400.232 143.769 396.69 Q141.964 393.125 138.33 393.125 M138.33 389.422 Q144.14 389.422 147.195 394.028 Q150.274 398.611 150.274 407.361 Q150.274 416.088 147.195 420.695 Q144.14 425.278 138.33 425.278 Q132.519 425.278 129.441 420.695 Q126.385 416.088 126.385 407.361 Q126.385 398.611 129.441 394.028 Q132.519 389.422 138.33 389.422 Z" fill="#000000" fill-rule="nonzero" fill-opacity="1" /><path clip-path="url(#clip970)" d="M63.9319 142.433 Q60.3208 142.433 58.4921 145.997 Q56.6865 149.539 56.6865 156.669 Q56.6865 163.775 58.4921 167.34 Q60.3208 170.881 63.9319 170.881 Q67.5661 170.881 69.3717 167.34 Q71.2004 163.775 71.2004 156.669 Q71.2004 149.539 69.3717 145.997 Q67.5661 142.433 63.9319 142.433 M63.9319 138.729 Q69.742 138.729 72.7976 143.335 Q75.8763 147.919 75.8763 156.669 Q75.8763 165.395 72.7976 170.002 Q69.742 174.585 63.9319 174.585 Q58.1217 174.585 55.043 170.002 Q51.9875 165.395 51.9875 156.669 Q51.9875 147.919 55.043 143.335 Q58.1217 138.729 63.9319 138.729 Z" fill="#000000" fill-rule="nonzero" fill-opacity="1" /><path clip-path="url(#clip970)" d="M84.0938 168.034 L88.978 168.034 L88.978 173.914 L84.0938 173.914 L84.0938 168.034 Z" fill="#000000" fill-rule="nonzero" fill-opacity="1" /><path clip-path="url(#clip970)" d="M103.191 169.979 L119.51 169.979 L119.51 173.914 L97.566 173.914 L97.566 169.979 Q100.228 167.224 104.811 162.594 Q109.418 157.942 110.598 156.599 Q112.844 154.076 113.723 152.34 Q114.626 150.581 114.626 148.891 Q114.626 146.136 112.682 144.4 Q110.76 142.664 107.658 142.664 Q105.459 142.664 103.006 143.428 Q100.575 144.192 97.7974 145.743 L97.7974 141.021 Q100.621 139.886 103.075 139.308 Q105.529 138.729 107.566 138.729 Q112.936 138.729 116.131 141.414 Q119.325 144.099 119.325 148.59 Q119.325 150.72 118.515 152.641 Q117.728 154.539 115.621 157.132 Q115.043 157.803 111.941 161.02 Q108.839 164.215 103.191 169.979 Z" fill="#000000" fill-rule="nonzero" fill-opacity="1" /><path clip-path="url(#clip970)" d="M129.371 139.354 L147.728 139.354 L147.728 143.289 L133.654 143.289 L133.654 151.761 Q134.672 151.414 135.691 151.252 Q136.709 151.067 137.728 151.067 Q143.515 151.067 146.894 154.238 Q150.274 157.409 150.274 162.826 Q150.274 168.405 146.802 171.506 Q143.33 174.585 137.01 174.585 Q134.834 174.585 132.566 174.215 Q130.32 173.844 127.913 173.104 L127.913 168.405 Q129.996 169.539 132.219 170.094 Q134.441 170.65 136.918 170.65 Q140.922 170.65 143.26 168.544 Q145.598 166.437 145.598 162.826 Q145.598 159.215 143.26 157.108 Q140.922 155.002 136.918 155.002 Q135.043 155.002 133.168 155.419 Q131.316 155.835 129.371 156.715 L129.371 139.354 Z" fill="#000000" fill-rule="nonzero" fill-opacity="1" /><polyline clip-path="url(#clip972)" style="stroke:#009af9; stroke-linecap:round; stroke-linejoin:round; stroke-width:8; stroke-opacity:1; fill:none" points="186.274,407.327 188.443,397.239 190.611,387.049 192.78,376.757 194.949,366.361 197.117,355.861 199.286,345.255 201.455,334.542 203.623,323.722 205.792,312.793 207.961,301.753 210.129,290.603 212.298,279.341 214.466,267.965 216.635,256.475 218.804,244.869 220.972,233.146 223.141,221.306 225.31,209.346 227.478,197.267 229.647,797.582 231.816,791.42 233.984,785.195 236.153,778.909 238.322,772.559 240.49,766.145 242.659,759.667 244.828,753.123 246.996,746.514 249.165,739.838 251.334,733.095 253.502,726.284 255.671,719.405 257.839,712.456 260.008,705.438 262.177,698.349 264.345,691.188 266.514,683.956 268.683,676.651 270.851,669.272 273.02,661.819 275.189,654.291 277.357,646.687 279.526,639.007 281.695,631.25 283.863,623.415 286.032,615.5 288.201,607.506 290.369,599.432 292.538,591.276 294.707,583.039 296.875,574.718 299.044,566.314 301.212,557.826 303.381,549.251 305.55,540.591 307.718,531.844 309.887,523.008 312.056,514.084 314.224,505.07 316.393,495.965 318.562,486.769 320.73,477.48 322.899,468.097 325.068,458.621 327.236,449.049 329.405,439.38 331.574,429.615 333.742,419.751 335.911,409.787 338.08,399.724 340.248,389.559 342.417,379.292 344.585,368.922 346.754,358.447 348.923,347.868 351.091,337.181 353.26,326.387 355.429,315.485 357.597,304.473 359.766,293.35 361.935,282.115 364.103,270.767 366.272,259.305 368.441,247.728 370.609,236.034 372.778,224.223 374.947,212.292 377.115,200.242 379.284,188.071 381.453,175.777 383.621,163.359 385.79,150.817 387.959,138.148 390.127,125.352 392.296,112.427 394.464,99.3719 396.633,86.1857 398.802,741.482 400.97,734.756 403.139,727.962 405.308,721.099 407.476,714.168 409.645,707.167 411.814,1055.1 413.982,1051.53 416.151,1047.92 418.32,1044.27 420.488,1040.59 422.657,1036.88 424.826,1033.12 426.994,1029.33 429.163,1025.5 431.332,1021.63 433.5,1017.72 435.669,1013.77 437.837,1009.79 440.006,1005.76 442.175,1001.69 444.343,997.583 446.512,993.433 448.681,989.241 450.849,985.007 453.018,980.731 455.187,976.411 457.355,972.048 459.524,967.641 461.693,963.19 463.861,958.694 466.03,954.153 468.199,949.566 470.367,944.933 472.536,940.253 474.705,935.526 476.873,930.752 479.042,925.93 481.21,921.059 483.379,916.139 485.548,911.17 487.716,906.15 489.885,901.08 492.054,895.96 494.222,890.787 496.391,885.563 498.56,880.286 500.728,874.956 502.897,869.572 505.066,864.134 507.234,858.642 509.403,853.094 511.572,847.49 513.74,841.83 515.909,836.113 518.078,830.339 520.246,824.506 522.415,818.615 524.583,812.665 526.752,806.654 528.921,800.584 531.089,794.452 533.258,788.258 535.427,1096.05 537.595,1092.89 539.764,1089.7 541.933,1086.48 544.101,1083.22 546.27,1079.93 548.439,1076.61 550.607,1073.26 552.776,1069.87 554.945,1066.44 557.113,1062.99 559.282,1059.49 561.451,1055.97 563.619,1052.4 565.788,1048.81 567.956,1045.17 570.125,1041.5 572.294,1037.79 574.462,1034.05 576.631,1030.26 578.8,1026.44 580.968,1022.58 583.137,1018.68 585.306,1014.75 587.474,1010.77 589.643,1006.75 591.812,1002.69 593.98,998.595 596.149,994.455 598.318,990.274 600.486,986.05 602.655,981.784 604.824,977.475 606.992,973.123 609.161,968.727 611.33,964.287 613.498,959.802 615.667,955.272 617.835,950.696 620.004,946.074 622.173,941.406 624.341,936.691 626.51,931.928 628.679,927.118 630.847,922.259 633.016,917.351 635.185,912.394 637.353,907.387 639.522,902.329 641.691,897.221 643.859,892.061 646.028,886.85 648.197,881.586 650.365,876.269 652.534,870.898 654.703,865.474 656.871,859.995 659.04,854.46 661.208,848.871 663.377,843.224 665.546,837.521 667.714,831.761 669.883,825.943 672.052,820.066 674.22,814.13 676.389,808.135 678.558,802.079 680.726,795.962 682.895,789.784 685.064,783.543 687.232,777.24 689.401,770.873 691.57,764.443 693.738,757.947 695.907,751.386 698.076,744.76 700.244,738.066 702.413,731.305 704.581,724.477 706.75,717.579 708.919,710.612 711.087,703.575 713.256,696.467 715.425,689.288 717.593,682.036 719.762,674.712 721.931,667.314 724.099,659.841 726.268,652.293 728.437,644.669 730.605,636.969 732.774,629.191 734.943,621.335 737.111,613.399 739.28,605.384 741.449,597.289 743.617,589.112 745.786,580.852 747.954,572.51 750.123,564.083 752.292,555.572 754.46,546.975 756.629,538.292 758.798,529.522 760.966,520.663 763.135,511.715 765.304,502.677 767.472,493.548 769.641,484.327 771.81,475.014 773.978,465.607 776.147,456.105 778.316,446.508 780.484,436.814 782.653,427.022 784.822,417.132 786.99,407.143 789.159,397.053 791.328,386.861 793.496,376.567 795.665,366.17 797.833,355.667 800.002,345.059 802.171,334.345 804.339,323.522 806.508,312.591 808.677,301.55 810.845,850.248 813.014,844.615 815.183,838.927 817.351,1121.64 819.52,1118.74 821.689,1115.81 823.857,1112.85 826.026,1109.85 828.195,1106.83 830.363,1103.78 832.532,1100.7 834.701,1097.59 836.869,1094.45 839.038,1091.27 841.206,1088.06 843.375,1084.82 845.544,1081.55 847.712,1078.24 849.881,1074.91 852.05,1071.53 854.218,1068.13 856.387,1064.69 858.556,1061.21 860.724,1057.7 862.893,1054.16 865.062,1050.58 867.23,1046.96 869.399,1043.31 871.568,1039.62 873.736,1035.89 875.905,1032.13 878.074,1028.32 880.242,1024.48 882.411,1215.35 884.579,1213.39 886.748,1211.41 888.917,1209.41 891.085,1207.39 893.254,1205.36 895.423,1203.3 897.591,1201.21 899.76,1199.11 901.929,1196.99 904.097,1194.85 906.266,1192.68 908.435,1190.49 910.603,1188.28 912.772,1186.05 914.941,1183.8 917.109,1181.52 919.278,1179.22 921.447,1293.5 923.615,1292.33 925.784,1291.14 927.952,1289.94 930.121,1288.74 932.29,1287.52 934.458,1286.28 936.627,1285.04 938.796,1283.78 940.964,1282.51 943.133,1281.22 945.302,1279.93 947.47,1278.62 949.639,1277.29 951.808,1275.96 953.976,1274.61 956.145,1273.25 958.314,1271.87 960.482,1270.48 962.651,1269.07 964.82,1267.66 966.988,1266.22 969.157,1264.78 971.326,1263.31 973.494,1261.84 975.663,1260.34 977.831,1258.84 980,1257.32 982.169,1255.78 984.337,1254.23 986.506,1252.66 988.675,1251.08 990.843,1249.48 993.012,1247.86 995.181,1246.23 997.349,1244.58 999.518,1242.91 1001.69,1241.23 1003.86,1239.53 1006.02,1237.82 1008.19,1236.08 1010.36,1234.33 1012.53,1232.56 1014.7,1230.78 1016.87,1228.97 1019.04,1227.15 1021.2,1317.71 1023.37,1316.78 1025.54,1315.84 1027.71,1314.89 1029.88,1313.93 1032.05,1312.96 1034.22,1311.99 1036.39,1311 1038.55,1310 1040.72,1308.99 1042.89,1307.98 1045.06,1306.95 1047.23,1305.91 1049.4,1304.86 1051.57,1303.81 1053.73,1302.74 1055.9,1301.66 1058.07,1300.57 1060.24,1299.46 1062.41,1298.35 1064.58,1297.23 1066.75,1296.09 1068.91,1294.94 1071.08,1293.79 1073.25,1292.62 1075.42,1291.43 1077.59,1290.24 1079.76,1289.03 1081.93,1287.82 1084.1,1286.59 1086.26,1285.34 1088.43,1284.09 1090.6,1282.82 1092.77,1281.54 1094.94,1280.25 1097.11,1278.94 1099.28,1277.62 1101.44,1276.29 1103.61,1274.94 1105.78,1273.58 1107.95,1272.21 1110.12,1270.82 1112.29,1269.42 1114.46,1268 1116.63,1266.58 1118.79,1265.13 1120.96,1263.67 1123.13,1262.2 1125.3,1260.71 1127.47,1259.21 1129.64,1257.69 1131.81,1256.16 1133.97,1254.61 1136.14,1253.05 1138.31,1251.47 1140.48,1249.87 1142.65,1248.26 1144.82,1246.63 1146.99,1244.98 1149.15,1243.32 1151.32,1241.65 1153.49,1239.95 1155.66,1238.24 1157.83,1236.51 1160,1234.76 1162.17,1233 1164.34,1231.22 1166.5,1229.42 1168.67,1227.6 1170.84,1225.77 1173.01,1223.91 1175.18,1222.04 1177.35,1315.12 1179.52,1314.17 1181.68,1313.2 1183.85,1312.23 1186.02,1311.24 1188.19,1310.25 1190.36,1309.24 1192.53,1359.16 1194.7,1358.65 1196.87,1358.13 1199.03,1357.61 1201.2,1357.08 1203.37,1356.55 1205.54,1356.01 1207.71,1355.47 1209.88,1354.92 1212.05,1354.36 1214.21,1353.8 1216.38,1353.23 1218.55,1352.66 1220.72,1352.08 1222.89,1351.5 1225.06,1350.91 1227.23,1350.32 1229.39,1349.71 1231.56,1349.11 1233.73,1348.49 1235.9,1347.87 1238.07,1347.25 1240.24,1346.62 1242.41,1345.98 1244.58,1345.33 1246.74,1344.68 1248.91,1344.02 1251.08,1343.36 1253.25,1342.69 1255.42,1342.01 1257.59,1341.32 1259.76,1340.63 1261.92,1339.93 1264.09,1339.23 1266.26,1338.51 1268.43,1337.79 1270.6,1337.07 1272.77,1336.33 1274.94,1335.59 1277.11,1334.84 1279.27,1334.08 1281.44,1333.32 1283.61,1332.54 1285.78,1331.76 1287.95,1330.98 1290.12,1330.18 1292.29,1329.38 1294.45,1328.56 1296.62,1327.74 1298.79,1326.92 1300.96,1326.08 1303.13,1325.23 1305.3,1324.38 1307.47,1323.52 1309.63,1322.65 1311.8,1321.77 1313.97,1320.88 1316.14,1319.98 1318.31,1319.07 1320.48,1318.16 1322.65,1317.23 1324.82,1316.3 1326.98,1315.36 1329.15,1314.4 1331.32,1313.44 1333.49,1312.47 1335.66,1311.48 1337.83,1310.49 1340,1309.49 1342.16,1308.48 1344.33,1307.46 1346.5,1306.42 1348.67,1305.38 1350.84,1304.33 1353.01,1303.26 1355.18,1302.19 1357.35,1301.1 1359.51,1300.01 1361.68,1298.9 1363.85,1297.78 1366.02,1296.65 1368.19,1295.51 1370.36,1294.36 1372.53,1293.19 1374.69,1292.01 1376.86,1290.83 1379.03,1289.63 1381.2,1288.42 1383.37,1287.19 1385.54,1285.95 1387.71,1284.71 1389.88,1283.44 1392.04,1282.17 1394.21,1280.88 1396.38,1279.58 1398.55,1278.27 1400.72,1276.94 1402.89,1275.6 1405.06,1274.25 1407.22,1272.88 1409.39,1271.5 1411.56,1270.11 1413.73,1268.7 1415.9,1267.28 1418.07,1265.84 1420.24,1264.39 1422.4,1262.93 1424.57,1261.44 1426.74,1259.95 1428.91,1258.44 1431.08,1256.91 1433.25,1255.37 1435.42,1253.82 1437.59,1252.24 1439.75,1250.66 1441.92,1249.05 1444.09,1247.43 1446.26,1245.79 1448.43,1244.14 1450.6,1242.47 1452.77,1240.79 1454.93,1239.08 1457.1,1237.36 1459.27,1235.62 1461.44,1233.87 1463.61,1232.1 1465.78,1230.3 1467.95,1228.5 1470.12,1226.67 1472.28,1224.82 1474.45,1222.96 1476.62,1221.08 1478.79,1219.18 1480.96,1217.25 1483.13,1215.31 1485.3,1213.35 1487.46,1211.38 1489.63,1309.74 1491.8,1308.73 1493.97,1307.71 1496.14,1306.68 1498.31,1305.64 1500.48,1304.59 1502.64,1303.52 1504.81,1302.45 1506.98,1301.37 1509.15,1300.28 1511.32,1299.17 1513.49,1298.06 1515.66,1296.93 1517.83,1295.79 1519.99,1294.64 1522.16,1293.48 1524.33,1292.3 1526.5,1291.12 1528.67,1289.92 1530.84,1288.71 1533.01,1287.49 1535.17,1286.26 1537.34,1285.01 1539.51,1283.75 1541.68,1282.48 1543.85,1281.2 1546.02,1279.9 1548.19,1278.59 1550.36,1343.68 1552.52,1343.02 1554.69,1342.34 1556.86,1341.66 1559.03,1340.97 1561.2,1340.28 1563.37,1339.57 1565.54,1338.86 1567.7,1338.15 1569.87,1337.42 1572.04,1336.69 1574.21,1335.95 1576.38,1335.21 1578.55,1334.45 1580.72,1333.69 1582.88,1332.92 1585.05,1332.15 1587.22,1331.36 1589.39,1330.57 1591.56,1329.77 1593.73,1328.96 1595.9,1328.15 1598.07,1327.32 1600.23,1326.49 1602.4,1325.65 1604.57,1324.8 1606.74,1323.94 1608.91,1323.07 1611.08,1322.2 1613.25,1321.32 1615.41,1320.42 1617.58,1319.52 1619.75,1318.61 1621.92,1317.69 1624.09,1316.76 1626.26,1315.82 1628.43,1314.87 1630.6,1313.91 1632.76,1312.95 1634.93,1311.97 1637.1,1310.98 1639.27,1309.98 1641.44,1308.98 1643.61,1307.96 1645.78,1306.93 1647.94,1305.89 1650.11,1304.85 1652.28,1303.79 1654.45,1302.72 1656.62,1301.64 1658.79,1300.55 1660.96,1299.44 1663.13,1298.33 1665.29,1297.21 1667.46,1296.07 1669.63,1294.92 1671.8,1293.76 1673.97,1292.59 1676.14,1291.41 1678.31,1290.22 1680.47,1289.01 1682.64,1287.79 1684.81,1286.56 1686.98,1285.32 1689.15,1284.07 1691.32,1282.8 1693.49,1281.52 1695.65,1280.22 1697.82,1278.92 1699.99,1277.6 1702.16,1276.26 1704.33,1274.92 1706.5,1273.56 1708.67,1272.18 1710.84,1270.8 1713,1269.39 1715.17,1267.98 1717.34,1266.55 1719.51,1265.11 1721.68,1263.65 1723.85,1262.17 1726.02,1260.68 1728.18,1259.18 1730.35,1257.66 1732.52,1256.13 1734.69,1254.58 1736.86,1253.02 1739.03,1251.44 1741.2,1249.84 1743.37,1248.23 1745.53,1246.6 1747.7,1244.95 1749.87,1243.29 1752.04,1241.61 1754.21,1239.92 1756.38,1238.21 1758.55,1236.48 1760.71,1234.73 1762.88,1232.97 1765.05,1231.19 1767.22,1319.74 1769.39,1318.83 1771.56,1317.91 1773.73,1316.99 1775.89,1316.05 1778.06,1315.1 1780.23,1314.15 1782.4,1313.18 1784.57,1312.21 1786.74,1311.22 1788.91,1310.23 1791.08,1309.22 1793.24,1308.21 1795.41,1307.18 1797.58,1306.15 1799.75,1305.1 1801.92,1304.05 1804.09,1302.98 1806.26,1301.9 1808.42,1300.81 1810.59,1299.71 1812.76,1298.6 1814.93,1297.48 1817.1,1296.35 1819.27,1295.21 1821.44,1294.05 1823.61,1292.88 1825.77,1291.7 1827.94,1290.51 1830.11,1289.31 1832.28,1288.09 1834.45,1286.87 1836.62,1285.63 1838.79,1284.37 1840.95,1283.11 1843.12,1281.83 1845.29,1280.54 1847.46,1279.24 1849.63,1277.92 1851.8,1276.59 1853.97,1275.25 1856.13,1273.89 1858.3,1272.52 1860.47,1271.14 1862.64,1269.74 1864.81,1268.33 1866.98,1266.9 1869.15,1265.46 1871.32,1264.01 1873.48,1262.54 1875.65,1261.05 1877.82,1259.55 1879.99,1258.04 1882.16,1256.51 1884.33,1254.96 1886.5,1253.4 1888.66,1251.83 1890.83,1250.23 1893,1248.62 1895.17,1247 1897.34,1245.36 1899.51,1243.7 1901.68,1242.03 1903.85,1240.34 1906.01,1238.63 1908.18,1236.9 1910.35,1235.16 1912.52,1233.4 1914.69,1231.63 1916.86,1229.83 1919.03,1228.02 1921.19,1226.18 1923.36,1224.33 1925.53,1222.47 1927.7,1220.58 1929.87,1218.67 1932.04,1216.75 1934.21,1214.8 1936.37,1212.84 1938.54,1210.85 1940.71,1208.85 1942.88,1206.82 1945.05,1204.78 1947.22,1202.71 1949.39,1200.62 1951.56,1198.52 1953.72,1196.39 1955.89,1194.24 1958.06,1192.07 1960.23,1189.87 1962.4,1187.66 1964.57,1185.42 1966.74,1183.16 1968.9,1180.88 1971.07,1178.57 1973.24,1176.24 1975.41,1173.89 1977.58,1171.51 1979.75,1169.11 1981.92,1166.69 1984.09,1164.24 1986.25,1161.77 1988.42,1159.27 1990.59,1156.74 1992.76,1282.15 1994.93,1280.86 1997.1,1279.56 1999.27,1278.25 2001.43,1276.92 2003.6,1275.58 2005.77,1274.23 2007.94,1272.86 2010.11,1271.48 2012.28,1270.08 2014.45,1268.68 2016.62,1267.25 2018.78,1265.82 2020.95,1264.36 2023.12,1262.9 2025.29,1261.42 2027.46,1259.92 2029.63,1258.41 2031.8,1256.88 2033.96,1255.34 2036.13,1253.79 2038.3,1252.21 2040.47,1250.63 2042.64,1249.02 2044.81,1247.4 2046.98,1245.76 2049.14,1244.11 2051.31,1242.44 2053.48,1240.75 2055.65,1239.05 2057.82,1237.33 2059.99,1235.59 2062.16,1233.84 2064.33,1232.06 2066.49,1230.27 2068.66,1319.28 2070.83,1318.37 2073,1317.44 2075.17,1316.51 2077.34,1362.83 2079.51,1362.36 2081.67,1361.88 2083.84,1361.39 2086.01,1360.9 2088.18,1360.41 2090.35,1359.91 2092.52,1359.4 2094.69,1358.89 2096.86,1384.24 2099.02,1383.98 2101.19,1383.72 2103.36,1383.45 2105.53,1383.18 2107.7,1382.91 2109.87,1382.64 2112.04,1382.36 2114.2,1382.08 2116.37,1381.8 2118.54,1381.52 2120.71,1381.23 2122.88,1380.94 2125.05,1380.64 2127.22,1380.35 2129.38,1380.05 2131.55,1379.75 2133.72,1379.44 2135.89,1379.13 2138.06,1378.82 2140.23,1378.51 2142.4,1378.19 2144.57,1377.87 2146.73,1377.54 2148.9,1377.22 2151.07,1376.89 2153.24,1376.55 2155.41,1376.21 2157.58,1375.87 2159.75,1375.53 2161.91,1375.18 2164.08,1374.83 2166.25,1374.47 2168.42,1374.12 2170.59,1373.75 2172.76,1373.39 2174.93,1373.02 2177.1,1372.65 2179.26,1372.27 2181.43,1371.89 2183.6,1371.5 2185.77,1371.12 2187.94,1370.72 2190.11,1370.33 2192.28,1369.93 2194.44,1369.52 2196.61,1369.12 2198.78,1368.7 2200.95,1368.29 2203.12,1367.87 2205.29,1367.44 2207.46,1367.01 2209.62,1366.58 2211.79,1366.14 2213.96,1365.7 2216.13,1365.25 2218.3,1364.8 2220.47,1364.34 2222.64,1363.88 2224.81,1363.42 2226.97,1362.95 2229.14,1362.48 2231.31,1362 2233.48,1361.51 2235.65,1361.02 2237.82,1360.53 2239.99,1360.03 2242.15,1359.53 2244.32,1359.02 2246.49,1358.51 2248.66,1357.99 2250.83,1357.46 2253,1356.93 2255.17,1356.4 2257.34,1355.86 2259.5,1355.31 2261.67,1382.43 2263.84,1382.15 2266.01,1381.87 2268.18,1381.59 2270.35,1381.3 2272.52,1381.01 2274.68,1380.72 2276.85,1380.42 2279.02,1380.12 2281.19,1379.82 2283.36,1379.52 2285.53,1379.21 2287.7,1378.9 2289.87,1378.58 2292.03,1378.27 2294.2,1377.95 2296.37,1377.62 2298.54,1377.3 2300.71,1376.97 2302.88,1376.63 2305.05,1376.3 2307.21,1375.96 2309.38,1375.61 2311.55,1375.27 2313.72,1374.92 2315.89,1374.56 2318.06,1374.2 2320.23,1373.84 2322.39,1373.48 2324.56,1373.11 2326.73,1372.74 2328.9,1372.36 2331.07,1371.98 2333.24,1371.6 2335.41,1371.21 2337.58,1370.82 2339.74,1370.43 2341.91,1370.03 2344.08,1369.62 2346.25,1369.22 2348.42,1368.8 2350.59,1368.39 2352.76,1367.97 "/>
<path clip-path="url(#clip970)" d="M1974.79 196.789 L2280.54 196.789 L2280.54 93.1086 L1974.79 93.1086  Z" fill="#ffffff" fill-rule="evenodd" fill-opacity="1"/>
<polyline clip-path="url(#clip970)" style="stroke:#000000; stroke-linecap:round; stroke-linejoin:round; stroke-width:4; stroke-opacity:1; fill:none" points="1974.79,196.789 2280.54,196.789 2280.54,93.1086 1974.79,93.1086 1974.79,196.789 "/>
<polyline clip-path="url(#clip970)" style="stroke:#009af9; stroke-linecap:round; stroke-linejoin:round; stroke-width:8; stroke-opacity:1; fill:none" points="1998.87,144.949 2143.3,144.949 "/>
<path clip-path="url(#clip970)" d="M2167.37 151.997 L2167.37 136.303 L2171.63 136.303 L2171.63 151.835 Q2171.63 155.516 2173.07 157.368 Q2174.5 159.196 2177.37 159.196 Q2180.82 159.196 2182.81 156.997 Q2184.82 154.798 2184.82 151.002 L2184.82 136.303 L2189.08 136.303 L2189.08 162.229 L2184.82 162.229 L2184.82 158.247 Q2183.27 160.608 2181.21 161.766 Q2179.18 162.9 2176.47 162.9 Q2172 162.9 2169.69 160.122 Q2167.37 157.344 2167.37 151.997 M2178.09 135.678 L2178.09 135.678 Z" fill="#000000" fill-rule="nonzero" fill-opacity="1" /><path clip-path="url(#clip970)" d="M2197.46 126.21 L2207.28 126.21 L2207.28 129.52 L2201.72 129.52 L2201.72 165.168 L2207.28 165.168 L2207.28 168.479 L2197.46 168.479 L2197.46 126.21 Z" fill="#000000" fill-rule="nonzero" fill-opacity="1" /><path clip-path="url(#clip970)" d="M2217.76 158.293 L2225.4 158.293 L2225.4 131.928 L2217.09 133.595 L2217.09 129.335 L2225.36 127.669 L2230.03 127.669 L2230.03 158.293 L2237.67 158.293 L2237.67 162.229 L2217.76 162.229 L2217.76 158.293 Z" fill="#000000" fill-rule="nonzero" fill-opacity="1" /><path clip-path="url(#clip970)" d="M2256.47 126.21 L2256.47 168.479 L2246.65 168.479 L2246.65 165.168 L2252.19 165.168 L2252.19 129.52 L2246.65 129.52 L2246.65 126.21 L2256.47 126.21 Z" fill="#000000" fill-rule="nonzero" fill-opacity="1" /></svg>
