<?xml version="1.0" encoding="utf-8"?>
<svg xmlns="http://www.w3.org/2000/svg" xmlns:xlink="http://www.w3.org/1999/xlink" width="600" height="400" viewBox="0 0 2400 1600">
<defs>
  <clipPath id="clip690">
    <rect x="0" y="0" width="2400" height="1600"/>
  </clipPath>
</defs>
<path clip-path="url(#clip690)" d="M0 1600 L2400 1600 L2400 0 L0 0  Z" fill="#ffffff" fill-rule="evenodd" fill-opacity="1"/>
<defs>
  <clipPath id="clip691">
    <rect x="480" y="0" width="1681" height="1600"/>
  </clipPath>
</defs>
<path clip-path="url(#clip690)" d="M140.696 1423.18 L2352.76 1423.18 L2352.76 47.2441 L140.696 47.2441  Z" fill="#ffffff" fill-rule="evenodd" fill-opacity="1"/>
<defs>
  <clipPath id="clip692">
    <rect x="140" y="47" width="2213" height="1377"/>
  </clipPath>
</defs>
<polyline clip-path="url(#clip692)" style="stroke:#000000; stroke-linecap:round; stroke-linejoin:round; stroke-width:2; stroke-opacity:0.1; fill:none" points="140.696,1423.18 140.696,47.2441 "/>
<polyline clip-path="url(#clip692)" style="stroke:#000000; stroke-linecap:round; stroke-linejoin:round; stroke-width:2; stroke-opacity:0.1; fill:none" points="583.108,1423.18 583.108,47.2441 "/>
<polyline clip-path="url(#clip692)" style="stroke:#000000; stroke-linecap:round; stroke-linejoin:round; stroke-width:2; stroke-opacity:0.1; fill:none" points="1025.52,1423.18 1025.52,47.2441 "/>
<polyline clip-path="url(#clip692)" style="stroke:#000000; stroke-linecap:round; stroke-linejoin:round; stroke-width:2; stroke-opacity:0.1; fill:none" points="1467.93,1423.18 1467.93,47.2441 "/>
<polyline clip-path="url(#clip692)" style="stroke:#000000; stroke-linecap:round; stroke-linejoin:round; stroke-width:2; stroke-opacity:0.1; fill:none" points="1910.34,1423.18 1910.34,47.2441 "/>
<polyline clip-path="url(#clip692)" style="stroke:#000000; stroke-linecap:round; stroke-linejoin:round; stroke-width:2; stroke-opacity:0.1; fill:none" points="2352.76,1423.18 2352.76,47.2441 "/>
<polyline clip-path="url(#clip692)" style="stroke:#000000; stroke-linecap:round; stroke-linejoin:round; stroke-width:2; stroke-opacity:0.1; fill:none" points="140.696,1384.24 2352.76,1384.24 "/>
<polyline clip-path="url(#clip692)" style="stroke:#000000; stroke-linecap:round; stroke-linejoin:round; stroke-width:2; stroke-opacity:0.1; fill:none" points="140.696,1143.86 2352.76,1143.86 "/>
<polyline clip-path="url(#clip692)" style="stroke:#000000; stroke-linecap:round; stroke-linejoin:round; stroke-width:2; stroke-opacity:0.1; fill:none" points="140.696,903.478 2352.76,903.478 "/>
<polyline clip-path="url(#clip692)" style="stroke:#000000; stroke-linecap:round; stroke-linejoin:round; stroke-width:2; stroke-opacity:0.1; fill:none" points="140.696,663.098 2352.76,663.098 "/>
<polyline clip-path="url(#clip692)" style="stroke:#000000; stroke-linecap:round; stroke-linejoin:round; stroke-width:2; stroke-opacity:0.1; fill:none" points="140.696,422.718 2352.76,422.718 "/>
<polyline clip-path="url(#clip692)" style="stroke:#000000; stroke-linecap:round; stroke-linejoin:round; stroke-width:2; stroke-opacity:0.1; fill:none" points="140.696,182.338 2352.76,182.338 "/>
<polyline clip-path="url(#clip690)" style="stroke:#000000; stroke-linecap:round; stroke-linejoin:round; stroke-width:4; stroke-opacity:1; fill:none" points="140.696,1423.18 2352.76,1423.18 "/>
<polyline clip-path="url(#clip690)" style="stroke:#000000; stroke-linecap:round; stroke-linejoin:round; stroke-width:4; stroke-opacity:1; fill:none" points="140.696,1423.18 140.696,1404.28 "/>
<polyline clip-path="url(#clip690)" style="stroke:#000000; stroke-linecap:round; stroke-linejoin:round; stroke-width:4; stroke-opacity:1; fill:none" points="583.108,1423.18 583.108,1404.28 "/>
<polyline clip-path="url(#clip690)" style="stroke:#000000; stroke-linecap:round; stroke-linejoin:round; stroke-width:4; stroke-opacity:1; fill:none" points="1025.52,1423.18 1025.52,1404.28 "/>
<polyline clip-path="url(#clip690)" style="stroke:#000000; stroke-linecap:round; stroke-linejoin:round; stroke-width:4; stroke-opacity:1; fill:none" points="1467.93,1423.18 1467.93,1404.28 "/>
<polyline clip-path="url(#clip690)" style="stroke:#000000; stroke-linecap:round; stroke-linejoin:round; stroke-width:4; stroke-opacity:1; fill:none" points="1910.34,1423.18 1910.34,1404.28 "/>
<polyline clip-path="url(#clip690)" style="stroke:#000000; stroke-linecap:round; stroke-linejoin:round; stroke-width:4; stroke-opacity:1; fill:none" points="2352.76,1423.18 2352.76,1404.28 "/>
<path clip-path="url(#clip690)" d="M140.696 1454.1 Q137.084 1454.1 135.256 1457.66 Q133.45 1461.2 133.45 1468.33 Q133.45 1475.44 135.256 1479.01 Q137.084 1482.55 140.696 1482.55 Q144.33 1482.55 146.135 1479.01 Q147.964 1475.44 147.964 1468.33 Q147.964 1461.2 146.135 1457.66 Q144.33 1454.1 140.696 1454.1 M140.696 1450.39 Q146.506 1450.39 149.561 1455 Q152.64 1459.58 152.64 1468.33 Q152.64 1477.06 149.561 1481.67 Q146.506 1486.25 140.696 1486.25 Q134.885 1486.25 131.807 1481.67 Q128.751 1477.06 128.751 1468.33 Q128.751 1459.58 131.807 1455 Q134.885 1450.39 140.696 1450.39 Z" fill="#000000" fill-rule="nonzero" fill-opacity="1" /><path clip-path="url(#clip690)" d="M577.76 1481.64 L594.08 1481.64 L594.08 1485.58 L572.135 1485.58 L572.135 1481.64 Q574.797 1478.89 579.381 1474.26 Q583.987 1469.61 585.168 1468.27 Q587.413 1465.74 588.293 1464.01 Q589.196 1462.25 589.196 1460.56 Q589.196 1457.8 587.251 1456.07 Q585.33 1454.33 582.228 1454.33 Q580.029 1454.33 577.575 1455.09 Q575.145 1455.86 572.367 1457.41 L572.367 1452.69 Q575.191 1451.55 577.645 1450.97 Q580.098 1450.39 582.135 1450.39 Q587.506 1450.39 590.7 1453.08 Q593.895 1455.77 593.895 1460.26 Q593.895 1462.39 593.084 1464.31 Q592.297 1466.2 590.191 1468.8 Q589.612 1469.47 586.51 1472.69 Q583.409 1475.88 577.76 1481.64 Z" fill="#000000" fill-rule="nonzero" fill-opacity="1" /><path clip-path="url(#clip690)" d="M1028.53 1455.09 L1016.72 1473.54 L1028.53 1473.54 L1028.53 1455.09 M1027.3 1451.02 L1033.18 1451.02 L1033.18 1473.54 L1038.11 1473.54 L1038.11 1477.43 L1033.18 1477.43 L1033.18 1485.58 L1028.53 1485.58 L1028.53 1477.43 L1012.93 1477.43 L1012.93 1472.92 L1027.3 1451.02 Z" fill="#000000" fill-rule="nonzero" fill-opacity="1" /><path clip-path="url(#clip690)" d="M1468.34 1466.44 Q1465.19 1466.44 1463.34 1468.59 Q1461.51 1470.74 1461.51 1474.49 Q1461.51 1478.22 1463.34 1480.39 Q1465.19 1482.55 1468.34 1482.55 Q1471.48 1482.55 1473.31 1480.39 Q1475.17 1478.22 1475.17 1474.49 Q1475.17 1470.74 1473.31 1468.59 Q1471.48 1466.44 1468.34 1466.44 M1477.62 1451.78 L1477.62 1456.04 Q1475.86 1455.21 1474.05 1454.77 Q1472.27 1454.33 1470.51 1454.33 Q1465.88 1454.33 1463.43 1457.45 Q1461 1460.58 1460.65 1466.9 Q1462.02 1464.89 1464.08 1463.82 Q1466.14 1462.73 1468.61 1462.73 Q1473.82 1462.73 1476.83 1465.9 Q1479.86 1469.05 1479.86 1474.49 Q1479.86 1479.82 1476.72 1483.03 Q1473.57 1486.25 1468.34 1486.25 Q1462.34 1486.25 1459.17 1481.67 Q1456 1477.06 1456 1468.33 Q1456 1460.14 1459.89 1455.28 Q1463.78 1450.39 1470.33 1450.39 Q1472.09 1450.39 1473.87 1450.74 Q1475.67 1451.09 1477.62 1451.78 Z" fill="#000000" fill-rule="nonzero" fill-opacity="1" /><path clip-path="url(#clip690)" d="M1910.34 1469.17 Q1907.01 1469.17 1905.09 1470.95 Q1903.19 1472.73 1903.19 1475.86 Q1903.19 1478.98 1905.09 1480.77 Q1907.01 1482.55 1910.34 1482.55 Q1913.68 1482.55 1915.6 1480.77 Q1917.52 1478.96 1917.52 1475.86 Q1917.52 1472.73 1915.6 1470.95 Q1913.7 1469.17 1910.34 1469.17 M1905.67 1467.18 Q1902.66 1466.44 1900.97 1464.38 Q1899.3 1462.32 1899.3 1459.35 Q1899.3 1455.21 1902.24 1452.8 Q1905.2 1450.39 1910.34 1450.39 Q1915.51 1450.39 1918.45 1452.8 Q1921.39 1455.21 1921.39 1459.35 Q1921.39 1462.32 1919.7 1464.38 Q1918.03 1466.44 1915.04 1467.18 Q1918.42 1467.96 1920.3 1470.26 Q1922.2 1472.55 1922.2 1475.86 Q1922.2 1480.88 1919.12 1483.57 Q1916.06 1486.25 1910.34 1486.25 Q1904.63 1486.25 1901.55 1483.57 Q1898.49 1480.88 1898.49 1475.86 Q1898.49 1472.55 1900.39 1470.26 Q1902.29 1467.96 1905.67 1467.18 M1903.95 1459.79 Q1903.95 1462.48 1905.62 1463.98 Q1907.31 1465.49 1910.34 1465.49 Q1913.35 1465.49 1915.04 1463.98 Q1916.76 1462.48 1916.76 1459.79 Q1916.76 1457.11 1915.04 1455.6 Q1913.35 1454.1 1910.34 1454.1 Q1907.31 1454.1 1905.62 1455.6 Q1903.95 1457.11 1903.95 1459.79 Z" fill="#000000" fill-rule="nonzero" fill-opacity="1" /><path clip-path="url(#clip690)" d="M2327.44 1481.64 L2335.08 1481.64 L2335.08 1455.28 L2326.77 1456.95 L2326.77 1452.69 L2335.04 1451.02 L2339.71 1451.02 L2339.71 1481.64 L2347.35 1481.64 L2347.35 1485.58 L2327.44 1485.58 L2327.44 1481.64 Z" fill="#000000" fill-rule="nonzero" fill-opacity="1" /><path clip-path="url(#clip690)" d="M2366.8 1454.1 Q2363.18 1454.1 2361.36 1457.66 Q2359.55 1461.2 2359.55 1468.33 Q2359.55 1475.44 2361.36 1479.01 Q2363.18 1482.55 2366.8 1482.55 Q2370.43 1482.55 2372.23 1479.01 Q2374.06 1475.44 2374.06 1468.33 Q2374.06 1461.2 2372.23 1457.66 Q2370.43 1454.1 2366.8 1454.1 M2366.8 1450.39 Q2372.61 1450.39 2375.66 1455 Q2378.74 1459.58 2378.74 1468.33 Q2378.74 1477.06 2375.66 1481.67 Q2372.61 1486.25 2366.8 1486.25 Q2360.99 1486.25 2357.91 1481.67 Q2354.85 1477.06 2354.85 1468.33 Q2354.85 1459.58 2357.91 1455 Q2360.99 1450.39 2366.8 1450.39 Z" fill="#000000" fill-rule="nonzero" fill-opacity="1" /><path clip-path="url(#clip690)" d="M1245.79 1522.27 L1245.79 1532.4 L1257.85 1532.4 L1257.85 1536.95 L1245.79 1536.95 L1245.79 1556.3 Q1245.79 1560.66 1246.96 1561.9 Q1248.17 1563.14 1251.83 1563.14 L1257.85 1563.14 L1257.85 1568.04 L1251.83 1568.04 Q1245.05 1568.04 1242.48 1565.53 Q1239.9 1562.98 1239.9 1556.3 L1239.9 1536.95 L1235.6 1536.95 L1235.6 1532.4 L1239.9 1532.4 L1239.9 1522.27 L1245.79 1522.27 Z" fill="#000000" fill-rule="nonzero" fill-opacity="1" /><polyline clip-path="url(#clip690)" style="stroke:#000000; stroke-linecap:round; stroke-linejoin:round; stroke-width:4; stroke-opacity:1; fill:none" points="140.696,1423.18 140.696,47.2441 "/>
<polyline clip-path="url(#clip690)" style="stroke:#000000; stroke-linecap:round; stroke-linejoin:round; stroke-width:4; stroke-opacity:1; fill:none" points="140.696,1384.24 159.593,1384.24 "/>
<polyline clip-path="url(#clip690)" style="stroke:#000000; stroke-linecap:round; stroke-linejoin:round; stroke-width:4; stroke-opacity:1; fill:none" points="140.696,1143.86 159.593,1143.86 "/>
<polyline clip-path="url(#clip690)" style="stroke:#000000; stroke-linecap:round; stroke-linejoin:round; stroke-width:4; stroke-opacity:1; fill:none" points="140.696,903.478 159.593,903.478 "/>
<polyline clip-path="url(#clip690)" style="stroke:#000000; stroke-linecap:round; stroke-linejoin:round; stroke-width:4; stroke-opacity:1; fill:none" points="140.696,663.098 159.593,663.098 "/>
<polyline clip-path="url(#clip690)" style="stroke:#000000; stroke-linecap:round; stroke-linejoin:round; stroke-width:4; stroke-opacity:1; fill:none" points="140.696,422.718 159.593,422.718 "/>
<polyline clip-path="url(#clip690)" style="stroke:#000000; stroke-linecap:round; stroke-linejoin:round; stroke-width:4; stroke-opacity:1; fill:none" points="140.696,182.338 159.593,182.338 "/>
<path clip-path="url(#clip690)" d="M92.7512 1370.04 Q89.1401 1370.04 87.3114 1373.6 Q85.5058 1377.14 85.5058 1384.27 Q85.5058 1391.38 87.3114 1394.94 Q89.1401 1398.49 92.7512 1398.49 Q96.3854 1398.49 98.1909 1394.94 Q100.02 1391.38 100.02 1384.27 Q100.02 1377.14 98.1909 1373.6 Q96.3854 1370.04 92.7512 1370.04 M92.7512 1366.33 Q98.5613 1366.33 101.617 1370.94 Q104.696 1375.52 104.696 1384.27 Q104.696 1393 101.617 1397.61 Q98.5613 1402.19 92.7512 1402.19 Q86.941 1402.19 83.8623 1397.61 Q80.8068 1393 80.8068 1384.27 Q80.8068 1375.52 83.8623 1370.94 Q86.941 1366.33 92.7512 1366.33 Z" fill="#000000" fill-rule="nonzero" fill-opacity="1" /><path clip-path="url(#clip690)" d="M83.7929 1126.58 L102.149 1126.58 L102.149 1130.51 L88.0753 1130.51 L88.0753 1138.99 Q89.0938 1138.64 90.1123 1138.48 Q91.1308 1138.29 92.1493 1138.29 Q97.9363 1138.29 101.316 1141.46 Q104.696 1144.63 104.696 1150.05 Q104.696 1155.63 101.223 1158.73 Q97.7511 1161.81 91.4317 1161.81 Q89.2558 1161.81 86.9873 1161.44 Q84.7419 1161.07 82.3346 1160.33 L82.3346 1155.63 Q84.4179 1156.76 86.6401 1157.32 Q88.8623 1157.87 91.3391 1157.87 Q95.3437 1157.87 97.6817 1155.77 Q100.02 1153.66 100.02 1150.05 Q100.02 1146.44 97.6817 1144.33 Q95.3437 1142.23 91.3391 1142.23 Q89.4641 1142.23 87.5892 1142.64 Q85.7373 1143.06 83.7929 1143.94 L83.7929 1126.58 Z" fill="#000000" fill-rule="nonzero" fill-opacity="1" /><path clip-path="url(#clip690)" d="M53.3995 916.823 L61.0384 916.823 L61.0384 890.457 L52.7282 892.124 L52.7282 887.865 L60.9921 886.198 L65.668 886.198 L65.668 916.823 L73.3068 916.823 L73.3068 920.758 L53.3995 920.758 L53.3995 916.823 Z" fill="#000000" fill-rule="nonzero" fill-opacity="1" /><path clip-path="url(#clip690)" d="M92.7512 889.277 Q89.1401 889.277 87.3114 892.842 Q85.5058 896.383 85.5058 903.513 Q85.5058 910.619 87.3114 914.184 Q89.1401 917.726 92.7512 917.726 Q96.3854 917.726 98.1909 914.184 Q100.02 910.619 100.02 903.513 Q100.02 896.383 98.1909 892.842 Q96.3854 889.277 92.7512 889.277 M92.7512 885.573 Q98.5613 885.573 101.617 890.18 Q104.696 894.763 104.696 903.513 Q104.696 912.24 101.617 916.846 Q98.5613 921.429 92.7512 921.429 Q86.941 921.429 83.8623 916.846 Q80.8068 912.24 80.8068 903.513 Q80.8068 894.763 83.8623 890.18 Q86.941 885.573 92.7512 885.573 Z" fill="#000000" fill-rule="nonzero" fill-opacity="1" /><path clip-path="url(#clip690)" d="M54.3949 676.443 L62.0337 676.443 L62.0337 650.077 L53.7236 651.744 L53.7236 647.485 L61.9874 645.818 L66.6633 645.818 L66.6633 676.443 L74.3022 676.443 L74.3022 680.378 L54.3949 680.378 L54.3949 676.443 Z" fill="#000000" fill-rule="nonzero" fill-opacity="1" /><path clip-path="url(#clip690)" d="M83.7929 645.818 L102.149 645.818 L102.149 649.753 L88.0753 649.753 L88.0753 658.225 Q89.0938 657.878 90.1123 657.716 Q91.1308 657.531 92.1493 657.531 Q97.9363 657.531 101.316 660.702 Q104.696 663.873 104.696 669.29 Q104.696 674.869 101.223 677.971 Q97.7511 681.049 91.4317 681.049 Q89.2558 681.049 86.9873 680.679 Q84.7419 680.308 82.3346 679.568 L82.3346 674.869 Q84.4179 676.003 86.6401 676.559 Q88.8623 677.114 91.3391 677.114 Q95.3437 677.114 97.6817 675.008 Q100.02 672.901 100.02 669.29 Q100.02 665.679 97.6817 663.572 Q95.3437 661.466 91.3391 661.466 Q89.4641 661.466 87.5892 661.883 Q85.7373 662.299 83.7929 663.179 L83.7929 645.818 Z" fill="#000000" fill-rule="nonzero" fill-opacity="1" /><path clip-path="url(#clip690)" d="M56.6171 436.063 L72.9365 436.063 L72.9365 439.998 L50.9921 439.998 L50.9921 436.063 Q53.6541 433.308 58.2375 428.678 Q62.8439 424.026 64.0245 422.683 Q66.2698 420.16 67.1494 418.424 Q68.0522 416.665 68.0522 414.975 Q68.0522 412.22 66.1078 410.484 Q64.1865 408.748 61.0847 408.748 Q58.8856 408.748 56.4319 409.512 Q54.0014 410.276 51.2236 411.827 L51.2236 407.104 Q54.0477 405.97 56.5014 405.392 Q58.955 404.813 60.9921 404.813 Q66.3624 404.813 69.5568 407.498 Q72.7513 410.183 72.7513 414.674 Q72.7513 416.804 71.9411 418.725 Q71.1541 420.623 69.0476 423.216 Q68.4689 423.887 65.367 427.104 Q62.2652 430.299 56.6171 436.063 Z" fill="#000000" fill-rule="nonzero" fill-opacity="1" /><path clip-path="url(#clip690)" d="M92.7512 408.517 Q89.1401 408.517 87.3114 412.081 Q85.5058 415.623 85.5058 422.753 Q85.5058 429.859 87.3114 433.424 Q89.1401 436.965 92.7512 436.965 Q96.3854 436.965 98.1909 433.424 Q100.02 429.859 100.02 422.753 Q100.02 415.623 98.1909 412.081 Q96.3854 408.517 92.7512 408.517 M92.7512 404.813 Q98.5613 404.813 101.617 409.419 Q104.696 414.003 104.696 422.753 Q104.696 431.479 101.617 436.086 Q98.5613 440.669 92.7512 440.669 Q86.941 440.669 83.8623 436.086 Q80.8068 431.479 80.8068 422.753 Q80.8068 414.003 83.8623 409.419 Q86.941 404.813 92.7512 404.813 Z" fill="#000000" fill-rule="nonzero" fill-opacity="1" /><path clip-path="url(#clip690)" d="M57.6125 195.683 L73.9318 195.683 L73.9318 199.618 L51.9875 199.618 L51.9875 195.683 Q54.6495 192.928 59.2328 188.298 Q63.8393 183.646 65.0198 182.303 Q67.2652 179.78 68.1448 178.044 Q69.0476 176.285 69.0476 174.595 Q69.0476 171.84 67.1032 170.104 Q65.1819 168.368 62.08 168.368 Q59.881 168.368 57.4273 169.132 Q54.9967 169.896 52.219 171.447 L52.219 166.724 Q55.043 165.59 57.4967 165.011 Q59.9504 164.433 61.9874 164.433 Q67.3578 164.433 70.5522 167.118 Q73.7466 169.803 73.7466 174.294 Q73.7466 176.423 72.9365 178.345 Q72.1494 180.243 70.0429 182.835 Q69.4642 183.507 66.3624 186.724 Q63.2606 189.919 57.6125 195.683 Z" fill="#000000" fill-rule="nonzero" fill-opacity="1" /><path clip-path="url(#clip690)" d="M83.7929 165.058 L102.149 165.058 L102.149 168.993 L88.0753 168.993 L88.0753 177.465 Q89.0938 177.118 90.1123 176.956 Q91.1308 176.771 92.1493 176.771 Q97.9363 176.771 101.316 179.942 Q104.696 183.113 104.696 188.53 Q104.696 194.108 101.223 197.21 Q97.7511 200.289 91.4317 200.289 Q89.2558 200.289 86.9873 199.919 Q84.7419 199.548 82.3346 198.808 L82.3346 194.108 Q84.4179 195.243 86.6401 195.798 Q88.8623 196.354 91.3391 196.354 Q95.3437 196.354 97.6817 194.247 Q100.02 192.141 100.02 188.53 Q100.02 184.919 97.6817 182.812 Q95.3437 180.706 91.3391 180.706 Q89.4641 180.706 87.5892 181.122 Q85.7373 181.539 83.7929 182.419 L83.7929 165.058 Z" fill="#000000" fill-rule="nonzero" fill-opacity="1" /><polyline clip-path="url(#clip692)" style="stroke:#009af9; stroke-linecap:round; stroke-linejoin:round; stroke-width:8; stroke-opacity:1; fill:none" points="140.696,1384.24 141.459,1384.24 142.222,1384.24 142.985,1384.24 143.748,1384.24 144.511,1384.24 145.274,1384.24 146.037,1384.24 146.8,1384.24 147.563,1384.24 148.326,1384.24 149.089,1384.24 149.852,1384.24 150.615,1384.24 151.378,1384.24 152.141,1384.24 152.904,1384.24 153.667,1384.24 154.43,1384.24 155.193,1384.24 155.956,1384.24 156.719,1384.24 157.482,1384.24 158.246,1384.24 159.009,1384.24 159.772,1384.24 160.535,1384.24 161.298,1384.24 162.061,1384.24 162.824,1384.24 163.587,1384.24 164.35,1384.24 165.113,1384.24 165.876,1384.24 166.639,1384.24 167.402,1384.24 168.165,1384.24 168.928,1384.24 169.691,1384.24 170.454,1384.24 171.217,1384.24 171.98,1384.24 172.743,1384.24 173.506,1384.24 174.269,1384.24 175.032,1384.24 175.795,1384.24 176.559,1384.24 177.322,1384.24 178.085,1384.24 178.848,1384.24 179.611,1384.24 180.374,1384.24 181.137,1384.24 181.9,1384.24 182.663,1384.24 183.426,1384.24 184.189,1384.24 184.952,1384.24 185.715,1384.24 186.478,1384.24 187.241,1384.24 188.004,1384.24 188.767,1384.24 189.53,1384.24 190.293,1384.24 191.056,1384.24 191.819,1384.24 192.582,1384.24 193.345,1384.24 194.109,1384.24 194.872,1384.24 195.635,1384.24 196.398,1384.24 197.161,1384.24 197.924,1384.24 198.687,1384.24 199.45,1384.24 200.213,1384.24 200.976,1384.24 201.739,1384.24 202.502,1384.24 203.265,1384.24 204.028,1384.24 204.791,1384.24 205.554,1384.24 206.317,1384.24 207.08,1384.24 207.843,1384.24 208.606,1384.24 209.369,1384.24 210.132,1384.24 210.895,1384.24 211.658,1384.24 212.422,1384.24 213.185,1384.24 213.948,1384.24 214.711,1384.24 215.474,1384.24 216.237,1384.24 217,1384.24 217.763,1384.24 218.526,1384.24 219.289,1384.24 220.052,1384.24 220.815,1384.24 221.578,1384.24 222.341,1384.24 223.104,1384.24 223.867,1384.24 224.63,1384.24 225.393,1384.24 226.156,1384.24 226.919,1384.24 227.682,1384.24 228.445,1384.24 229.208,1384.24 229.972,1384.24 230.735,1384.24 231.498,1384.24 232.261,1384.24 233.024,1384.24 233.787,1384.24 234.55,1384.24 235.313,1384.24 236.076,1384.24 236.839,1384.24 237.602,1384.24 238.365,1384.24 239.128,1384.24 239.891,1384.24 240.654,1384.24 241.417,1384.24 242.18,1384.24 242.943,1384.24 243.706,1384.24 244.469,1384.24 245.232,1384.24 245.995,1384.24 246.758,1384.24 247.521,1384.24 248.285,1384.24 249.048,1384.24 249.811,1384.24 250.574,1384.24 251.337,1384.24 252.1,1384.24 252.863,1384.24 253.626,1384.24 254.389,1384.24 255.152,1384.24 255.915,1384.24 256.678,1384.24 257.441,1384.24 258.204,1384.24 258.967,1384.24 259.73,1384.24 260.493,1384.24 261.256,1384.24 262.019,1384.24 262.782,1384.24 263.545,1384.24 264.308,1384.24 265.071,1384.24 265.835,1384.24 266.598,1384.24 267.361,1384.24 268.124,1384.24 268.887,1384.24 269.65,1384.24 270.413,1384.24 271.176,1384.24 271.939,1384.24 272.702,1384.24 273.465,1384.24 274.228,1384.24 274.991,1384.24 275.754,1384.24 276.517,1384.24 277.28,1384.24 278.043,1384.24 278.806,1384.24 279.569,1384.24 280.332,1384.24 281.095,1384.24 281.858,1384.24 282.621,1384.24 283.384,1384.24 284.148,1384.24 284.911,1384.24 285.674,1384.24 286.437,1384.24 287.2,1384.24 287.963,1384.24 288.726,1384.24 289.489,1384.24 290.252,1384.24 291.015,1384.24 291.778,1336.16 292.541,1336.16 293.304,1336.16 294.067,1336.16 294.83,1336.16 295.593,1336.16 296.356,1336.16 297.119,1336.16 297.882,1336.16 298.645,1336.16 299.408,1336.16 300.171,1336.16 300.934,1336.16 301.698,1336.16 302.461,1336.16 303.224,1336.16 303.987,1336.16 304.75,1336.16 305.513,1336.16 306.276,1336.16 307.039,1336.16 307.802,1336.16 308.565,1336.16 309.328,1336.16 310.091,1336.16 310.854,1336.16 311.617,1336.16 312.38,1336.16 313.143,1336.16 313.906,1336.16 314.669,1336.16 315.432,1336.16 316.195,1336.16 316.958,1336.16 317.721,1336.16 318.484,1336.16 319.247,1336.16 320.011,1336.16 320.774,1336.16 321.537,1336.16 322.3,1336.16 323.063,1336.16 323.826,1336.16 324.589,1336.16 325.352,1336.16 326.115,1336.16 326.878,1336.16 327.641,1336.16 328.404,1336.16 329.167,1336.16 329.93,1336.16 330.693,1336.16 331.456,1336.16 332.219,1336.16 332.982,1336.16 333.745,1336.16 334.508,1336.16 335.271,1336.16 336.034,1336.16 336.797,1336.16 337.561,1336.16 338.324,1336.16 339.087,1336.16 339.85,1336.16 340.613,1336.16 341.376,1336.16 342.139,1336.16 342.902,1336.16 343.665,1336.16 344.428,1336.16 345.191,1336.16 345.954,1336.16 346.717,1336.16 347.48,1336.16 348.243,1336.16 349.006,1336.16 349.769,1336.16 350.532,1336.16 351.295,1336.16 352.058,1336.16 352.821,1336.16 353.584,1336.16 354.347,1336.16 355.11,1336.16 355.874,1288.09 356.637,1288.09 357.4,1288.09 358.163,1288.09 358.926,1288.09 359.689,1288.09 360.452,1288.09 361.215,1288.09 361.978,1288.09 362.741,1288.09 363.504,1288.09 364.267,1288.09 365.03,1288.09 365.793,1288.09 366.556,1288.09 367.319,1288.09 368.082,1288.09 368.845,1288.09 369.608,1288.09 370.371,1288.09 371.134,1288.09 371.897,1288.09 372.66,1288.09 373.424,1288.09 374.187,1288.09 374.95,1240.01 375.713,1240.01 376.476,1240.01 377.239,1240.01 378.002,1240.01 378.765,1240.01 379.528,1240.01 380.291,1240.01 381.054,1240.01 381.817,1240.01 382.58,1240.01 383.343,1240.01 384.106,1240.01 384.869,1240.01 385.632,1240.01 386.395,1240.01 387.158,1240.01 387.921,1240.01 388.684,1240.01 389.447,1240.01 390.21,1240.01 390.973,1240.01 391.737,1240.01 392.5,1240.01 393.263,1240.01 394.026,1240.01 394.789,1240.01 395.552,1240.01 396.315,1240.01 397.078,1240.01 397.841,1240.01 398.604,1240.01 399.367,1240.01 400.13,1240.01 400.893,1240.01 401.656,1240.01 402.419,1240.01 403.182,1240.01 403.945,1240.01 404.708,1240.01 405.471,1240.01 406.234,1240.01 406.997,1240.01 407.76,1240.01 408.523,1240.01 409.287,1240.01 410.05,1240.01 410.813,1240.01 411.576,1240.01 412.339,1240.01 413.102,1240.01 413.865,1240.01 414.628,1240.01 415.391,1240.01 416.154,1240.01 416.917,1240.01 417.68,1240.01 418.443,1240.01 419.206,1240.01 419.969,1240.01 420.732,1240.01 421.495,1240.01 422.258,1240.01 423.021,1240.01 423.784,1240.01 424.547,1240.01 425.31,1240.01 426.073,1240.01 426.836,1240.01 427.6,1240.01 428.363,1240.01 429.126,1240.01 429.889,1240.01 430.652,1240.01 431.415,1240.01 432.178,1240.01 432.941,1240.01 433.704,1240.01 434.467,1240.01 435.23,1240.01 435.993,1240.01 436.756,1240.01 437.519,1240.01 438.282,1240.01 439.045,1240.01 439.808,1240.01 440.571,1240.01 441.334,1240.01 442.097,1240.01 442.86,1240.01 443.623,1240.01 444.386,1240.01 445.15,1240.01 445.913,1240.01 446.676,1240.01 447.439,1240.01 448.202,1240.01 448.965,1240.01 449.728,1240.01 450.491,1240.01 451.254,1240.01 452.017,1240.01 452.78,1240.01 453.543,1240.01 454.306,1240.01 455.069,1240.01 455.832,1240.01 456.595,1240.01 457.358,1240.01 458.121,1240.01 458.884,1240.01 459.647,1240.01 460.41,1240.01 461.173,1240.01 461.936,1240.01 462.699,1240.01 463.463,1240.01 464.226,1240.01 464.989,1240.01 465.752,1240.01 466.515,1240.01 467.278,1240.01 468.041,1240.01 468.804,1240.01 469.567,1240.01 470.33,1240.01 471.093,1240.01 471.856,1240.01 472.619,1240.01 473.382,1240.01 474.145,1240.01 474.908,1240.01 475.671,1240.01 476.434,1240.01 477.197,1240.01 477.96,1240.01 478.723,1240.01 479.486,1240.01 480.249,1240.01 481.013,1240.01 481.776,1240.01 482.539,1240.01 483.302,1240.01 484.065,1240.01 484.828,1240.01 485.591,1240.01 486.354,1240.01 487.117,1240.01 487.88,1240.01 488.643,1240.01 489.406,1240.01 490.169,1240.01 490.932,1240.01 491.695,1240.01 492.458,1240.01 493.221,1240.01 493.984,1240.01 494.747,1240.01 495.51,1240.01 496.273,1240.01 497.036,1240.01 497.799,1240.01 498.562,1240.01 499.326,1240.01 500.089,1240.01 500.852,1240.01 501.615,1240.01 502.378,1240.01 503.141,1240.01 503.904,1240.01 504.667,1240.01 505.43,1240.01 506.193,1240.01 506.956,1240.01 507.719,1240.01 508.482,1240.01 509.245,1240.01 510.008,1240.01 510.771,1240.01 511.534,1240.01 512.297,1240.01 513.06,1240.01 513.823,1240.01 514.586,1240.01 515.349,1240.01 516.112,1240.01 516.876,1240.01 517.639,1240.01 518.402,1240.01 519.165,1240.01 519.928,1240.01 520.691,1240.01 521.454,1240.01 522.217,1240.01 522.98,1240.01 523.743,1240.01 524.506,1240.01 525.269,1240.01 526.032,1240.01 526.795,1240.01 527.558,1240.01 528.321,1240.01 529.084,1240.01 529.847,1240.01 530.61,1240.01 531.373,1240.01 532.136,1240.01 532.899,1240.01 533.662,1240.01 534.425,1240.01 535.189,1240.01 535.952,1240.01 536.715,1240.01 537.478,1240.01 538.241,1240.01 539.004,1240.01 539.767,1240.01 540.53,1240.01 541.293,1240.01 542.056,1240.01 542.819,1240.01 543.582,1240.01 544.345,1240.01 545.108,1240.01 545.871,1240.01 546.634,1240.01 547.397,1240.01 548.16,1240.01 548.923,1240.01 549.686,1240.01 550.449,1240.01 551.212,1240.01 551.975,1240.01 552.739,1240.01 553.502,1240.01 554.265,1240.01 555.028,1240.01 555.791,1240.01 556.554,1240.01 557.317,1240.01 558.08,1240.01 558.843,1240.01 559.606,1240.01 560.369,1240.01 561.132,1240.01 561.895,1240.01 562.658,1240.01 563.421,1240.01 564.184,1240.01 564.947,1240.01 565.71,1240.01 566.473,1240.01 567.236,1240.01 567.999,1240.01 568.762,1240.01 569.525,1240.01 570.288,1240.01 571.052,1240.01 571.815,1240.01 572.578,1240.01 573.341,1240.01 574.104,1240.01 574.867,1240.01 575.63,1240.01 576.393,1240.01 577.156,1240.01 577.919,1240.01 578.682,1240.01 579.445,1240.01 580.208,1240.01 580.971,1240.01 581.734,1240.01 582.497,1240.01 583.26,1240.01 584.023,1240.01 584.786,1240.01 585.549,1240.01 586.312,1240.01 587.075,1240.01 587.838,1240.01 588.602,1240.01 589.365,1240.01 590.128,1240.01 590.891,1240.01 591.654,1240.01 592.417,1240.01 593.18,1240.01 593.943,1240.01 594.706,1240.01 595.469,1240.01 596.232,1240.01 596.995,1240.01 597.758,1240.01 598.521,1240.01 599.284,1240.01 600.047,1240.01 600.81,1240.01 601.573,1240.01 602.336,1240.01 603.099,1240.01 603.862,1240.01 604.625,1240.01 605.388,1240.01 606.151,1191.93 606.915,1191.93 607.678,1191.93 608.441,1191.93 609.204,1191.93 609.967,1191.93 610.73,1191.93 611.493,1191.93 612.256,1191.93 613.019,1191.93 613.782,1191.93 614.545,1191.93 615.308,1191.93 616.071,1191.93 616.834,1191.93 617.597,1191.93 618.36,1191.93 619.123,1191.93 619.886,1191.93 620.649,1191.93 621.412,1143.86 622.175,1143.86 622.938,1143.86 623.701,1095.78 624.465,1095.78 625.228,1095.78 625.991,1095.78 626.754,1095.78 627.517,1095.78 628.28,1095.78 629.043,1095.78 629.806,1095.78 630.569,1095.78 631.332,1095.78 632.095,1095.78 632.858,1095.78 633.621,1095.78 634.384,1095.78 635.147,1095.78 635.91,1095.78 636.673,1095.78 637.436,1095.78 638.199,1095.78 638.962,1095.78 639.725,1095.78 640.488,1095.78 641.251,1095.78 642.014,1095.78 642.778,1095.78 643.541,1095.78 644.304,1095.78 645.067,1095.78 645.83,1095.78 646.593,1095.78 647.356,1095.78 648.119,1095.78 648.882,1095.78 649.645,1095.78 650.408,1095.78 651.171,1095.78 651.934,1095.78 652.697,1095.78 653.46,1095.78 654.223,1095.78 654.986,1095.78 655.749,1095.78 656.512,1095.78 657.275,1095.78 658.038,1095.78 658.801,1095.78 659.564,1095.78 660.328,1095.78 661.091,1095.78 661.854,1095.78 662.617,1095.78 663.38,1095.78 664.143,1095.78 664.906,1095.78 665.669,1095.78 666.432,1095.78 667.195,1095.78 667.958,1095.78 668.721,1095.78 669.484,1095.78 670.247,1095.78 671.01,1095.78 671.773,1095.78 672.536,1095.78 673.299,1095.78 674.062,1095.78 674.825,1095.78 675.588,1095.78 676.351,1095.78 677.114,1095.78 677.877,1095.78 678.641,1095.78 679.404,1095.78 680.167,1095.78 680.93,1095.78 681.693,1095.78 682.456,1095.78 683.219,1095.78 683.982,1095.78 684.745,1095.78 685.508,1095.78 686.271,1095.78 687.034,1095.78 687.797,1095.78 688.56,1095.78 689.323,1095.78 690.086,1047.71 690.849,1047.71 691.612,1047.71 692.375,1047.71 693.138,1047.71 693.901,1047.71 694.664,1047.71 695.427,1047.71 696.191,1047.71 696.954,1047.71 697.717,1047.71 698.48,1047.71 699.243,1047.71 700.006,1047.71 700.769,1047.71 701.532,1047.71 702.295,1047.71 703.058,1047.71 703.821,1047.71 704.584,1047.71 705.347,1047.71 706.11,1047.71 706.873,1047.71 707.636,1047.71 708.399,1047.71 709.162,1047.71 709.925,1047.71 710.688,1047.71 711.451,1047.71 712.214,1047.71 712.977,1047.71 713.74,1047.71 714.504,1047.71 715.267,1047.71 716.03,1047.71 716.793,1047.71 717.556,1047.71 718.319,1047.71 719.082,1047.71 719.845,1047.71 720.608,1047.71 721.371,1047.71 722.134,1047.71 722.897,1047.71 723.66,1047.71 724.423,1047.71 725.186,1047.71 725.949,1047.71 726.712,1047.71 727.475,1047.71 728.238,1047.71 729.001,1047.71 729.764,1047.71 730.527,1047.71 731.29,1047.71 732.054,1047.71 732.817,1047.71 733.58,1047.71 734.343,1047.71 735.106,1047.71 735.869,1047.71 736.632,1047.71 737.395,1047.71 738.158,1047.71 738.921,1047.71 739.684,1047.71 740.447,1047.71 741.21,1047.71 741.973,1047.71 742.736,1047.71 743.499,1047.71 744.262,1047.71 745.025,1047.71 745.788,1047.71 746.551,1047.71 747.314,1047.71 748.077,1047.71 748.84,1047.71 749.603,1047.71 750.367,1047.71 751.13,1047.71 751.893,1047.71 752.656,1047.71 753.419,1047.71 754.182,1047.71 754.945,1047.71 755.708,1047.71 756.471,1047.71 757.234,1047.71 757.997,1047.71 758.76,1047.71 759.523,1047.71 760.286,1047.71 761.049,1047.71 761.812,1047.71 762.575,1047.71 763.338,1047.71 764.101,1047.71 764.864,1047.71 765.627,1047.71 766.39,1047.71 767.153,1047.71 767.917,1047.71 768.68,1047.71 769.443,1047.71 770.206,1047.71 770.969,1047.71 771.732,1047.71 772.495,1047.71 773.258,1047.71 774.021,1047.71 774.784,1047.71 775.547,1047.71 776.31,1047.71 777.073,1047.71 777.836,1047.71 778.599,1047.71 779.362,1047.71 780.125,1047.71 780.888,1047.71 781.651,1047.71 782.414,1047.71 783.177,1047.71 783.94,1047.71 784.703,1047.71 785.466,1047.71 786.23,1047.71 786.993,1047.71 787.756,1047.71 788.519,1047.71 789.282,1047.71 790.045,1047.71 790.808,1047.71 791.571,1047.71 792.334,1047.71 793.097,1047.71 793.86,1047.71 794.623,1047.71 795.386,1047.71 796.149,1047.71 796.912,1047.71 797.675,1047.71 798.438,1047.71 799.201,1047.71 799.964,1047.71 800.727,1047.71 801.49,1047.71 802.253,1047.71 803.016,1047.71 803.78,1047.71 804.543,1047.71 805.306,1047.71 806.069,1047.71 806.832,1047.71 807.595,1047.71 808.358,1047.71 809.121,1047.71 809.884,1047.71 810.647,1047.71 811.41,1047.71 812.173,1047.71 812.936,1047.71 813.699,1047.71 814.462,1047.71 815.225,1047.71 815.988,1047.71 816.751,1047.71 817.514,1047.71 818.277,1047.71 819.04,1047.71 819.803,1047.71 820.566,1047.71 821.329,1047.71 822.093,1047.71 822.856,1047.71 823.619,1047.71 824.382,1047.71 825.145,1047.71 825.908,1047.71 826.671,1047.71 827.434,1047.71 828.197,1047.71 828.96,1047.71 829.723,1047.71 830.486,1047.71 831.249,1047.71 832.012,1047.71 832.775,1047.71 833.538,1047.71 834.301,1047.71 835.064,1047.71 835.827,1047.71 836.59,1047.71 837.353,1047.71 838.116,1047.71 838.879,1047.71 839.643,1047.71 840.406,1047.71 841.169,1047.71 841.932,1047.71 842.695,1047.71 843.458,1047.71 844.221,1047.71 844.984,1047.71 845.747,1047.71 846.51,1047.71 847.273,1047.71 848.036,1047.71 848.799,1047.71 849.562,1047.71 850.325,1047.71 851.088,1047.71 851.851,1047.71 852.614,1047.71 853.377,1047.71 854.14,1047.71 854.903,1047.71 855.666,1047.71 856.429,1047.71 857.192,1047.71 857.956,1047.71 858.719,1047.71 859.482,1047.71 860.245,1047.71 861.008,1047.71 861.771,1047.71 862.534,1047.71 863.297,1047.71 864.06,1047.71 864.823,1047.71 865.586,1047.71 866.349,1047.71 867.112,1047.71 867.875,1047.71 868.638,999.63 869.401,999.63 870.164,999.63 870.927,999.63 871.69,999.63 872.453,999.63 873.216,999.63 873.979,999.63 874.742,999.63 875.506,999.63 876.269,999.63 877.032,999.63 877.795,951.554 878.558,951.554 879.321,951.554 880.084,951.554 880.847,951.554 881.61,951.554 882.373,951.554 883.136,951.554 883.899,951.554 884.662,951.554 885.425,951.554 886.188,951.554 886.951,951.554 887.714,951.554 888.477,951.554 889.24,951.554 890.003,951.554 890.766,951.554 891.529,951.554 892.292,951.554 893.056,951.554 893.819,951.554 894.582,951.554 895.345,951.554 896.108,951.554 896.871,951.554 897.634,951.554 898.397,951.554 899.16,951.554 899.923,951.554 900.686,951.554 901.449,951.554 902.212,951.554 902.975,951.554 903.738,951.554 904.501,951.554 905.264,951.554 906.027,951.554 906.79,951.554 907.553,951.554 908.316,951.554 909.079,951.554 909.842,951.554 910.605,951.554 911.369,951.554 912.132,951.554 912.895,951.554 913.658,951.554 914.421,951.554 915.184,951.554 915.947,951.554 916.71,951.554 917.473,951.554 918.236,951.554 918.999,951.554 919.762,951.554 920.525,951.554 921.288,951.554 922.051,951.554 922.814,951.554 923.577,951.554 924.34,951.554 925.103,951.554 925.866,951.554 926.629,951.554 927.392,951.554 928.155,951.554 928.919,951.554 929.682,951.554 930.445,903.478 931.208,903.478 931.971,903.478 932.734,903.478 933.497,903.478 934.26,903.478 935.023,903.478 935.786,903.478 936.549,903.478 937.312,903.478 938.075,903.478 938.838,903.478 939.601,903.478 940.364,903.478 941.127,903.478 941.89,903.478 942.653,903.478 943.416,903.478 944.179,903.478 944.942,903.478 945.705,903.478 946.468,903.478 947.232,903.478 947.995,903.478 948.758,903.478 949.521,903.478 950.284,903.478 951.047,903.478 951.81,903.478 952.573,903.478 953.336,903.478 954.099,903.478 954.862,903.478 955.625,903.478 956.388,903.478 957.151,903.478 957.914,903.478 958.677,903.478 959.44,903.478 960.203,903.478 960.966,903.478 961.729,903.478 962.492,903.478 963.255,903.478 964.018,903.478 964.782,903.478 965.545,903.478 966.308,903.478 967.071,903.478 967.834,903.478 968.597,903.478 969.36,903.478 970.123,855.402 970.886,855.402 971.649,855.402 972.412,855.402 973.175,855.402 973.938,855.402 974.701,855.402 975.464,855.402 976.227,855.402 976.99,855.402 977.753,855.402 978.516,855.402 979.279,855.402 980.042,855.402 980.805,855.402 981.568,855.402 982.331,855.402 983.095,855.402 983.858,855.402 984.621,855.402 985.384,855.402 986.147,855.402 986.91,855.402 987.673,855.402 988.436,855.402 989.199,855.402 989.962,855.402 990.725,855.402 991.488,855.402 992.251,855.402 993.014,855.402 993.777,855.402 994.54,855.402 995.303,855.402 996.066,855.402 996.829,855.402 997.592,855.402 998.355,855.402 999.118,855.402 999.881,855.402 1000.64,855.402 1001.41,855.402 1002.17,855.402 1002.93,855.402 1003.7,855.402 1004.46,855.402 1005.22,855.402 1005.99,855.402 1006.75,855.402 1007.51,855.402 1008.27,855.402 1009.04,855.402 1009.8,855.402 1010.56,855.402 1011.33,855.402 1012.09,855.402 1012.85,855.402 1013.62,855.402 1014.38,855.402 1015.14,855.402 1015.91,855.402 1016.67,855.402 1017.43,855.402 1018.19,855.402 1018.96,855.402 1019.72,855.402 1020.48,855.402 1021.25,855.402 1022.01,855.402 1022.77,855.402 1023.54,855.402 1024.3,855.402 1025.06,855.402 1025.82,855.402 1026.59,855.402 1027.35,855.402 1028.11,855.402 1028.88,855.402 1029.64,855.402 1030.4,855.402 1031.17,855.402 1031.93,855.402 1032.69,855.402 1033.46,855.402 1034.22,855.402 1034.98,855.402 1035.74,855.402 1036.51,855.402 1037.27,855.402 1038.03,855.402 1038.8,855.402 1039.56,855.402 1040.32,855.402 1041.09,855.402 1041.85,855.402 1042.61,855.402 1043.37,855.402 1044.14,855.402 1044.9,855.402 1045.66,855.402 1046.43,855.402 1047.19,855.402 1047.95,855.402 1048.72,855.402 1049.48,855.402 1050.24,855.402 1051.01,855.402 1051.77,855.402 1052.53,855.402 1053.29,855.402 1054.06,855.402 1054.82,855.402 1055.58,855.402 1056.35,855.402 1057.11,855.402 1057.87,855.402 1058.64,855.402 1059.4,855.402 1060.16,855.402 1060.92,855.402 1061.69,855.402 1062.45,855.402 1063.21,855.402 1063.98,855.402 1064.74,855.402 1065.5,855.402 1066.27,855.402 1067.03,855.402 1067.79,855.402 1068.56,855.402 1069.32,855.402 1070.08,855.402 1070.84,855.402 1071.61,855.402 1072.37,855.402 1073.13,855.402 1073.9,855.402 1074.66,855.402 1075.42,855.402 1076.19,855.402 1076.95,855.402 1077.71,855.402 1078.47,855.402 1079.24,855.402 1080,855.402 1080.76,855.402 1081.53,855.402 1082.29,855.402 1083.05,855.402 1083.82,855.402 1084.58,855.402 1085.34,855.402 1086.11,855.402 1086.87,855.402 1087.63,855.402 1088.39,855.402 1089.16,855.402 1089.92,855.402 1090.68,855.402 1091.45,855.402 1092.21,855.402 1092.97,855.402 1093.74,855.402 1094.5,855.402 1095.26,855.402 1096.02,855.402 1096.79,855.402 1097.55,855.402 1098.31,855.402 1099.08,855.402 1099.84,855.402 1100.6,855.402 1101.37,855.402 1102.13,855.402 1102.89,855.402 1103.66,855.402 1104.42,855.402 1105.18,855.402 1105.94,855.402 1106.71,855.402 1107.47,855.402 1108.23,855.402 1109,855.402 1109.76,855.402 1110.52,855.402 1111.29,855.402 1112.05,855.402 1112.81,855.402 1113.57,855.402 1114.34,855.402 1115.1,855.402 1115.86,855.402 1116.63,855.402 1117.39,855.402 1118.15,855.402 1118.92,855.402 1119.68,855.402 1120.44,855.402 1121.21,855.402 1121.97,855.402 1122.73,855.402 1123.49,855.402 1124.26,855.402 1125.02,855.402 1125.78,855.402 1126.55,855.402 1127.31,855.402 1128.07,855.402 1128.84,855.402 1129.6,855.402 1130.36,855.402 1131.12,855.402 1131.89,855.402 1132.65,855.402 1133.41,855.402 1134.18,855.402 1134.94,807.326 1135.7,807.326 1136.47,807.326 1137.23,807.326 1137.99,807.326 1138.76,807.326 1139.52,807.326 1140.28,807.326 1141.04,807.326 1141.81,807.326 1142.57,807.326 1143.33,807.326 1144.1,807.326 1144.86,807.326 1145.62,807.326 1146.39,807.326 1147.15,807.326 1147.91,807.326 1148.67,807.326 1149.44,807.326 1150.2,807.326 1150.96,807.326 1151.73,807.326 1152.49,807.326 1153.25,807.326 1154.02,759.25 1154.78,759.25 1155.54,759.25 1156.31,759.25 1157.07,759.25 1157.83,759.25 1158.59,759.25 1159.36,759.25 1160.12,759.25 1160.88,759.25 1161.65,759.25 1162.41,759.25 1163.17,759.25 1163.94,759.25 1164.7,759.25 1165.46,759.25 1166.22,759.25 1166.99,759.25 1167.75,759.25 1168.51,759.25 1169.28,759.25 1170.04,759.25 1170.8,759.25 1171.57,759.25 1172.33,759.25 1173.09,759.25 1173.86,759.25 1174.62,759.25 1175.38,759.25 1176.14,759.25 1176.91,759.25 1177.67,759.25 1178.43,759.25 1179.2,759.25 1179.96,759.25 1180.72,759.25 1181.49,759.25 1182.25,759.25 1183.01,759.25 1183.77,759.25 1184.54,759.25 1185.3,759.25 1186.06,759.25 1186.83,759.25 1187.59,759.25 1188.35,759.25 1189.12,759.25 1189.88,759.25 1190.64,759.25 1191.41,759.25 1192.17,759.25 1192.93,759.25 1193.69,759.25 1194.46,711.174 1195.22,711.174 1195.98,711.174 1196.75,711.174 1197.51,711.174 1198.27,711.174 1199.04,711.174 1199.8,711.174 1200.56,711.174 1201.32,711.174 1202.09,711.174 1202.85,711.174 1203.61,711.174 1204.38,711.174 1205.14,711.174 1205.9,711.174 1206.67,711.174 1207.43,711.174 1208.19,711.174 1208.96,711.174 1209.72,711.174 1210.48,711.174 1211.24,711.174 1212.01,711.174 1212.77,711.174 1213.53,711.174 1214.3,711.174 1215.06,711.174 1215.82,711.174 1216.59,711.174 1217.35,711.174 1218.11,711.174 1218.87,711.174 1219.64,711.174 1220.4,711.174 1221.16,711.174 1221.93,711.174 1222.69,711.174 1223.45,711.174 1224.22,711.174 1224.98,711.174 1225.74,711.174 1226.51,711.174 1227.27,711.174 1228.03,711.174 1228.79,711.174 1229.56,711.174 1230.32,711.174 1231.08,711.174 1231.85,711.174 1232.61,711.174 1233.37,711.174 1234.14,711.174 1234.9,711.174 1235.66,711.174 1236.42,711.174 1237.19,711.174 1237.95,711.174 1238.71,711.174 1239.48,711.174 1240.24,711.174 1241,711.174 1241.77,711.174 1242.53,711.174 1243.29,711.174 1244.06,711.174 1244.82,711.174 1245.58,711.174 1246.34,711.174 1247.11,711.174 1247.87,711.174 1248.63,711.174 1249.4,711.174 1250.16,711.174 1250.92,711.174 1251.69,711.174 1252.45,711.174 1253.21,711.174 1253.97,711.174 1254.74,711.174 1255.5,711.174 1256.26,711.174 1257.03,711.174 1257.79,711.174 1258.55,711.174 1259.32,711.174 1260.08,711.174 1260.84,711.174 1261.61,711.174 1262.37,711.174 1263.13,711.174 1263.89,711.174 1264.66,711.174 1265.42,711.174 1266.18,711.174 1266.95,711.174 1267.71,663.098 1268.47,663.098 1269.24,663.098 1270,663.098 1270.76,663.098 1271.52,663.098 1272.29,663.098 1273.05,663.098 1273.81,663.098 1274.58,663.098 1275.34,663.098 1276.1,663.098 1276.87,663.098 1277.63,663.098 1278.39,663.098 1279.16,663.098 1279.92,663.098 1280.68,663.098 1281.44,663.098 1282.21,663.098 1282.97,663.098 1283.73,663.098 1284.5,663.098 1285.26,663.098 1286.02,663.098 1286.79,663.098 1287.55,663.098 1288.31,663.098 1289.07,663.098 1289.84,663.098 1290.6,663.098 1291.36,663.098 1292.13,663.098 1292.89,663.098 1293.65,663.098 1294.42,663.098 1295.18,663.098 1295.94,663.098 1296.71,663.098 1297.47,663.098 1298.23,663.098 1298.99,663.098 1299.76,663.098 1300.52,663.098 1301.28,663.098 1302.05,663.098 1302.81,663.098 1303.57,663.098 1304.34,663.098 1305.1,663.098 1305.86,663.098 1306.62,663.098 1307.39,663.098 1308.15,663.098 1308.91,663.098 1309.68,663.098 1310.44,663.098 1311.2,663.098 1311.97,663.098 1312.73,663.098 1313.49,663.098 1314.25,663.098 1315.02,663.098 1315.78,663.098 1316.54,663.098 1317.31,663.098 1318.07,663.098 1318.83,663.098 1319.6,663.098 1320.36,663.098 1321.12,663.098 1321.89,663.098 1322.65,663.098 1323.41,663.098 1324.17,663.098 1324.94,663.098 1325.7,663.098 1326.46,663.098 1327.23,663.098 1327.99,663.098 1328.75,663.098 1329.52,663.098 1330.28,663.098 1331.04,663.098 1331.8,663.098 1332.57,663.098 1333.33,663.098 1334.09,663.098 1334.86,663.098 1335.62,663.098 1336.38,663.098 1337.15,663.098 1337.91,663.098 1338.67,663.098 1339.44,663.098 1340.2,663.098 1340.96,663.098 1341.72,663.098 1342.49,663.098 1343.25,663.098 1344.01,663.098 1344.78,663.098 1345.54,663.098 1346.3,663.098 1347.07,663.098 1347.83,663.098 1348.59,663.098 1349.35,663.098 1350.12,663.098 1350.88,663.098 1351.64,663.098 1352.41,663.098 1353.17,663.098 1353.93,663.098 1354.7,663.098 1355.46,663.098 1356.22,663.098 1356.99,663.098 1357.75,663.098 1358.51,663.098 1359.27,663.098 1360.04,663.098 1360.8,663.098 1361.56,663.098 1362.33,663.098 1363.09,663.098 1363.85,663.098 1364.62,663.098 1365.38,663.098 1366.14,663.098 1366.9,663.098 1367.67,663.098 1368.43,663.098 1369.19,663.098 1369.96,663.098 1370.72,663.098 1371.48,663.098 1372.25,663.098 1373.01,663.098 1373.77,663.098 1374.54,663.098 1375.3,663.098 1376.06,663.098 1376.82,663.098 1377.59,663.098 1378.35,663.098 1379.11,663.098 1379.88,663.098 1380.64,663.098 1381.4,663.098 1382.17,663.098 1382.93,663.098 1383.69,663.098 1384.45,663.098 1385.22,615.022 1385.98,615.022 1386.74,615.022 1387.51,615.022 1388.27,566.946 1389.03,566.946 1389.8,566.946 1390.56,566.946 1391.32,566.946 1392.09,566.946 1392.85,566.946 1393.61,566.946 1394.37,518.87 1395.14,518.87 1395.9,518.87 1396.66,518.87 1397.43,518.87 1398.19,518.87 1398.95,518.87 1399.72,518.87 1400.48,518.87 1401.24,518.87 1402,518.87 1402.77,518.87 1403.53,518.87 1404.29,518.87 1405.06,518.87 1405.82,518.87 1406.58,518.87 1407.35,518.87 1408.11,518.87 1408.87,518.87 1409.64,518.87 1410.4,518.87 1411.16,518.87 1411.92,518.87 1412.69,518.87 1413.45,518.87 1414.21,518.87 1414.98,518.87 1415.74,518.87 1416.5,518.87 1417.27,518.87 1418.03,518.87 1418.79,518.87 1419.55,518.87 1420.32,518.87 1421.08,518.87 1421.84,518.87 1422.61,518.87 1423.37,518.87 1424.13,518.87 1424.9,518.87 1425.66,518.87 1426.42,518.87 1427.19,518.87 1427.95,518.87 1428.71,518.87 1429.47,518.87 1430.24,518.87 1431,518.87 1431.76,518.87 1432.53,518.87 1433.29,518.87 1434.05,518.87 1434.82,518.87 1435.58,470.794 1436.34,470.794 1437.1,470.794 1437.87,470.794 1438.63,470.794 1439.39,470.794 1440.16,470.794 1440.92,470.794 1441.68,470.794 1442.45,470.794 1443.21,470.794 1443.97,470.794 1444.74,470.794 1445.5,470.794 1446.26,470.794 1447.02,470.794 1447.79,470.794 1448.55,470.794 1449.31,470.794 1450.08,470.794 1450.84,470.794 1451.6,470.794 1452.37,470.794 1453.13,470.794 1453.89,470.794 1454.65,470.794 1455.42,470.794 1456.18,470.794 1456.94,470.794 1457.71,470.794 1458.47,470.794 1459.23,470.794 1460,470.794 1460.76,470.794 1461.52,470.794 1462.29,470.794 1463.05,470.794 1463.81,470.794 1464.57,470.794 1465.34,470.794 1466.1,470.794 1466.86,470.794 1467.63,470.794 1468.39,470.794 1469.15,470.794 1469.92,470.794 1470.68,470.794 1471.44,470.794 1472.2,470.794 1472.97,470.794 1473.73,470.794 1474.49,470.794 1475.26,470.794 1476.02,470.794 1476.78,422.718 1477.55,422.718 1478.31,422.718 1479.07,422.718 1479.84,422.718 1480.6,422.718 1481.36,422.718 1482.12,422.718 1482.89,422.718 1483.65,422.718 1484.41,422.718 1485.18,422.718 1485.94,422.718 1486.7,422.718 1487.47,422.718 1488.23,422.718 1488.99,422.718 1489.75,422.718 1490.52,422.718 1491.28,422.718 1492.04,422.718 1492.81,422.718 1493.57,422.718 1494.33,422.718 1495.1,422.718 1495.86,422.718 1496.62,422.718 1497.39,422.718 1498.15,422.718 1498.91,422.718 1499.67,422.718 1500.44,422.718 1501.2,422.718 1501.96,422.718 1502.73,422.718 1503.49,422.718 1504.25,422.718 1505.02,422.718 1505.78,422.718 1506.54,422.718 1507.3,422.718 1508.07,422.718 1508.83,422.718 1509.59,422.718 1510.36,422.718 1511.12,422.718 1511.88,422.718 1512.65,422.718 1513.41,422.718 1514.17,422.718 1514.94,422.718 1515.7,422.718 1516.46,422.718 1517.22,422.718 1517.99,422.718 1518.75,422.718 1519.51,422.718 1520.28,422.718 1521.04,422.718 1521.8,422.718 1522.57,422.718 1523.33,422.718 1524.09,422.718 1524.85,422.718 1525.62,422.718 1526.38,422.718 1527.14,422.718 1527.91,422.718 1528.67,422.718 1529.43,422.718 1530.2,422.718 1530.96,422.718 1531.72,422.718 1532.49,422.718 1533.25,422.718 1534.01,422.718 1534.77,422.718 1535.54,422.718 1536.3,422.718 1537.06,422.718 1537.83,422.718 1538.59,422.718 1539.35,422.718 1540.12,422.718 1540.88,422.718 1541.64,422.718 1542.4,422.718 1543.17,422.718 1543.93,422.718 1544.69,422.718 1545.46,422.718 1546.22,422.718 1546.98,422.718 1547.75,422.718 1548.51,422.718 1549.27,422.718 1550.04,422.718 1550.8,422.718 1551.56,422.718 1552.32,422.718 1553.09,422.718 1553.85,422.718 1554.61,422.718 1555.38,422.718 1556.14,422.718 1556.9,422.718 1557.67,422.718 1558.43,422.718 1559.19,422.718 1559.95,422.718 1560.72,422.718 1561.48,422.718 1562.24,422.718 1563.01,422.718 1563.77,422.718 1564.53,422.718 1565.3,422.718 1566.06,422.718 1566.82,422.718 1567.59,422.718 1568.35,422.718 1569.11,422.718 1569.87,422.718 1570.64,422.718 1571.4,422.718 1572.16,422.718 1572.93,422.718 1573.69,422.718 1574.45,422.718 1575.22,422.718 1575.98,422.718 1576.74,422.718 1577.5,422.718 1578.27,422.718 1579.03,422.718 1579.79,422.718 1580.56,422.718 1581.32,422.718 1582.08,422.718 1582.85,422.718 1583.61,422.718 1584.37,422.718 1585.14,422.718 1585.9,422.718 1586.66,422.718 1587.42,422.718 1588.19,422.718 1588.95,422.718 1589.71,422.718 1590.48,374.642 1591.24,374.642 1592,374.642 1592.77,374.642 1593.53,374.642 1594.29,374.642 1595.05,374.642 1595.82,374.642 1596.58,374.642 1597.34,374.642 1598.11,374.642 1598.87,374.642 1599.63,374.642 1600.4,374.642 1601.16,374.642 1601.92,374.642 1602.69,374.642 1603.45,374.642 1604.21,374.642 1604.97,374.642 1605.74,374.642 1606.5,374.642 1607.26,374.642 1608.03,374.642 1608.79,374.642 1609.55,374.642 1610.32,374.642 1611.08,374.642 1611.84,374.642 1612.6,374.642 1613.37,374.642 1614.13,374.642 1614.89,374.642 1615.66,374.642 1616.42,374.642 1617.18,374.642 1617.95,374.642 1618.71,374.642 1619.47,374.642 1620.24,374.642 1621,374.642 1621.76,374.642 1622.52,374.642 1623.29,374.642 1624.05,374.642 1624.81,374.642 1625.58,374.642 1626.34,374.642 1627.1,374.642 1627.87,374.642 1628.63,374.642 1629.39,374.642 1630.15,374.642 1630.92,374.642 1631.68,374.642 1632.44,374.642 1633.21,374.642 1633.97,374.642 1634.73,374.642 1635.5,374.642 1636.26,374.642 1637.02,374.642 1637.79,374.642 1638.55,374.642 1639.31,374.642 1640.07,374.642 1640.84,374.642 1641.6,374.642 1642.36,374.642 1643.13,374.642 1643.89,374.642 1644.65,374.642 1645.42,374.642 1646.18,374.642 1646.94,374.642 1647.7,374.642 1648.47,374.642 1649.23,374.642 1649.99,374.642 1650.76,374.642 1651.52,374.642 1652.28,374.642 1653.05,374.642 1653.81,374.642 1654.57,374.642 1655.34,374.642 1656.1,374.642 1656.86,374.642 1657.62,374.642 1658.39,374.642 1659.15,374.642 1659.91,374.642 1660.68,374.642 1661.44,374.642 1662.2,374.642 1662.97,374.642 1663.73,374.642 1664.49,374.642 1665.25,374.642 1666.02,374.642 1666.78,374.642 1667.54,374.642 1668.31,374.642 1669.07,374.642 1669.83,374.642 1670.6,374.642 1671.36,374.642 1672.12,374.642 1672.88,374.642 1673.65,374.642 1674.41,374.642 1675.17,374.642 1675.94,374.642 1676.7,374.642 1677.46,374.642 1678.23,374.642 1678.99,374.642 1679.75,374.642 1680.52,374.642 1681.28,374.642 1682.04,374.642 1682.8,374.642 1683.57,374.642 1684.33,374.642 1685.09,374.642 1685.86,374.642 1686.62,374.642 1687.38,374.642 1688.15,374.642 1688.91,374.642 1689.67,374.642 1690.43,374.642 1691.2,374.642 1691.96,374.642 1692.72,374.642 1693.49,374.642 1694.25,374.642 1695.01,374.642 1695.78,374.642 1696.54,374.642 1697.3,374.642 1698.07,374.642 1698.83,374.642 1699.59,374.642 1700.35,374.642 1701.12,374.642 1701.88,374.642 1702.64,374.642 1703.41,374.642 1704.17,374.642 1704.93,374.642 1705.7,374.642 1706.46,374.642 1707.22,374.642 1707.98,374.642 1708.75,374.642 1709.51,374.642 1710.27,374.642 1711.04,374.642 1711.8,374.642 1712.56,374.642 1713.33,374.642 1714.09,374.642 1714.85,374.642 1715.62,374.642 1716.38,374.642 1717.14,374.642 1717.9,374.642 1718.67,374.642 1719.43,374.642 1720.19,374.642 1720.96,374.642 1721.72,374.642 1722.48,374.642 1723.25,374.642 1724.01,374.642 1724.77,374.642 1725.53,374.642 1726.3,374.642 1727.06,374.642 1727.82,374.642 1728.59,374.642 1729.35,374.642 1730.11,374.642 1730.88,374.642 1731.64,374.642 1732.4,374.642 1733.17,374.642 1733.93,374.642 1734.69,374.642 1735.45,374.642 1736.22,374.642 1736.98,374.642 1737.74,374.642 1738.51,374.642 1739.27,374.642 1740.03,374.642 1740.8,374.642 1741.56,374.642 1742.32,374.642 1743.08,374.642 1743.85,374.642 1744.61,374.642 1745.37,374.642 1746.14,374.642 1746.9,374.642 1747.66,374.642 1748.43,374.642 1749.19,374.642 1749.95,374.642 1750.72,374.642 1751.48,374.642 1752.24,374.642 1753,374.642 1753.77,374.642 1754.53,374.642 1755.29,374.642 1756.06,374.642 1756.82,374.642 1757.58,374.642 1758.35,374.642 1759.11,374.642 1759.87,374.642 1760.63,374.642 1761.4,374.642 1762.16,374.642 1762.92,374.642 1763.69,374.642 1764.45,374.642 1765.21,374.642 1765.98,374.642 1766.74,374.642 1767.5,374.642 1768.27,374.642 1769.03,374.642 1769.79,374.642 1770.55,374.642 1771.32,374.642 1772.08,374.642 1772.84,374.642 1773.61,374.642 1774.37,374.642 1775.13,374.642 1775.9,374.642 1776.66,374.642 1777.42,374.642 1778.18,374.642 1778.95,374.642 1779.71,374.642 1780.47,374.642 1781.24,374.642 1782,374.642 1782.76,374.642 1783.53,374.642 1784.29,374.642 1785.05,374.642 1785.82,374.642 1786.58,374.642 1787.34,374.642 1788.1,374.642 1788.87,374.642 1789.63,374.642 1790.39,374.642 1791.16,374.642 1791.92,374.642 1792.68,374.642 1793.45,374.642 1794.21,374.642 1794.97,374.642 1795.73,374.642 1796.5,374.642 1797.26,374.642 1798.02,374.642 1798.79,374.642 1799.55,374.642 1800.31,374.642 1801.08,374.642 1801.84,374.642 1802.6,374.642 1803.37,374.642 1804.13,374.642 1804.89,374.642 1805.65,374.642 1806.42,374.642 1807.18,374.642 1807.94,374.642 1808.71,374.642 1809.47,374.642 1810.23,374.642 1811,374.642 1811.76,374.642 1812.52,374.642 1813.28,374.642 1814.05,374.642 1814.81,374.642 1815.57,374.642 1816.34,374.642 1817.1,374.642 1817.86,374.642 1818.63,374.642 1819.39,374.642 1820.15,374.642 1820.92,326.566 1821.68,326.566 1822.44,326.566 1823.2,326.566 1823.97,326.566 1824.73,326.566 1825.49,326.566 1826.26,326.566 1827.02,326.566 1827.78,326.566 1828.55,326.566 1829.31,326.566 1830.07,326.566 1830.83,326.566 1831.6,326.566 1832.36,326.566 1833.12,326.566 1833.89,326.566 1834.65,326.566 1835.41,326.566 1836.18,326.566 1836.94,326.566 1837.7,326.566 1838.47,326.566 1839.23,326.566 1839.99,326.566 1840.75,326.566 1841.52,326.566 1842.28,326.566 1843.04,326.566 1843.81,326.566 1844.57,326.566 1845.33,326.566 1846.1,326.566 1846.86,326.566 1847.62,326.566 1848.38,326.566 1849.15,326.566 1849.91,326.566 1850.67,326.566 1851.44,326.566 1852.2,326.566 1852.96,326.566 1853.73,326.566 1854.49,326.566 1855.25,326.566 1856.02,326.566 1856.78,326.566 1857.54,326.566 1858.3,326.566 1859.07,326.566 1859.83,326.566 1860.59,326.566 1861.36,326.566 1862.12,326.566 1862.88,326.566 1863.65,326.566 1864.41,326.566 1865.17,326.566 1865.93,326.566 1866.7,326.566 1867.46,326.566 1868.22,326.566 1868.99,326.566 1869.75,326.566 1870.51,326.566 1871.28,326.566 1872.04,326.566 1872.8,326.566 1873.57,326.566 1874.33,326.566 1875.09,326.566 1875.85,326.566 1876.62,326.566 1877.38,326.566 1878.14,278.49 1878.91,278.49 1879.67,278.49 1880.43,278.49 1881.2,278.49 1881.96,278.49 1882.72,278.49 1883.48,278.49 1884.25,278.49 1885.01,278.49 1885.77,278.49 1886.54,278.49 1887.3,278.49 1888.06,278.49 1888.83,278.49 1889.59,278.49 1890.35,278.49 1891.12,278.49 1891.88,278.49 1892.64,278.49 1893.4,278.49 1894.17,278.49 1894.93,278.49 1895.69,278.49 1896.46,278.49 1897.22,278.49 1897.98,278.49 1898.75,278.49 1899.51,278.49 1900.27,278.49 1901.03,278.49 1901.8,278.49 1902.56,278.49 1903.32,278.49 1904.09,278.49 1904.85,278.49 1905.61,278.49 1906.38,278.49 1907.14,278.49 1907.9,278.49 1908.67,278.49 1909.43,278.49 1910.19,278.49 1910.95,278.49 1911.72,278.49 1912.48,278.49 1913.24,278.49 1914.01,278.49 1914.77,278.49 1915.53,278.49 1916.3,278.49 1917.06,278.49 1917.82,278.49 1918.58,278.49 1919.35,278.49 1920.11,278.49 1920.87,278.49 1921.64,278.49 1922.4,278.49 1923.16,278.49 1923.93,278.49 1924.69,278.49 1925.45,278.49 1926.22,278.49 1926.98,278.49 1927.74,278.49 1928.5,278.49 1929.27,278.49 1930.03,278.49 1930.79,278.49 1931.56,278.49 1932.32,278.49 1933.08,278.49 1933.85,278.49 1934.61,278.49 1935.37,278.49 1936.13,278.49 1936.9,278.49 1937.66,278.49 1938.42,278.49 1939.19,278.49 1939.95,278.49 1940.71,278.49 1941.48,278.49 1942.24,278.49 1943,278.49 1943.77,278.49 1944.53,278.49 1945.29,278.49 1946.05,278.49 1946.82,278.49 1947.58,278.49 1948.34,278.49 1949.11,278.49 1949.87,278.49 1950.63,278.49 1951.4,278.49 1952.16,278.49 1952.92,278.49 1953.68,278.49 1954.45,278.49 1955.21,278.49 1955.97,278.49 1956.74,278.49 1957.5,278.49 1958.26,278.49 1959.03,278.49 1959.79,278.49 1960.55,278.49 1961.32,278.49 1962.08,278.49 1962.84,278.49 1963.6,278.49 1964.37,278.49 1965.13,278.49 1965.89,278.49 1966.66,278.49 1967.42,278.49 1968.18,278.49 1968.95,278.49 1969.71,278.49 1970.47,278.49 1971.23,278.49 1972,278.49 1972.76,278.49 1973.52,278.49 1974.29,278.49 1975.05,278.49 1975.81,278.49 1976.58,278.49 1977.34,278.49 1978.1,278.49 1978.87,278.49 1979.63,278.49 1980.39,278.49 1981.15,278.49 1981.92,278.49 1982.68,278.49 1983.44,278.49 1984.21,278.49 1984.97,278.49 1985.73,278.49 1986.5,278.49 1987.26,278.49 1988.02,278.49 1988.78,278.49 1989.55,278.49 1990.31,278.49 1991.07,278.49 1991.84,278.49 1992.6,278.49 1993.36,278.49 1994.13,278.49 1994.89,278.49 1995.65,278.49 1996.42,278.49 1997.18,278.49 1997.94,278.49 1998.7,278.49 1999.47,278.49 2000.23,278.49 2000.99,278.49 2001.76,278.49 2002.52,278.49 2003.28,278.49 2004.05,278.49 2004.81,278.49 2005.57,278.49 2006.33,278.49 2007.1,278.49 2007.86,278.49 2008.62,278.49 2009.39,278.49 2010.15,278.49 2010.91,278.49 2011.68,278.49 2012.44,278.49 2013.2,278.49 2013.97,278.49 2014.73,278.49 2015.49,278.49 2016.25,278.49 2017.02,278.49 2017.78,278.49 2018.54,278.49 2019.31,278.49 2020.07,278.49 2020.83,278.49 2021.6,278.49 2022.36,278.49 2023.12,278.49 2023.88,278.49 2024.65,278.49 2025.41,278.49 2026.17,278.49 2026.94,278.49 2027.7,278.49 2028.46,278.49 2029.23,278.49 2029.99,278.49 2030.75,278.49 2031.51,278.49 2032.28,278.49 2033.04,278.49 2033.8,278.49 2034.57,278.49 2035.33,278.49 2036.09,278.49 2036.86,278.49 2037.62,278.49 2038.38,278.49 2039.15,278.49 2039.91,278.49 2040.67,278.49 2041.43,230.414 2042.2,230.414 2042.96,230.414 2043.72,230.414 2044.49,230.414 2045.25,230.414 2046.01,230.414 2046.78,230.414 2047.54,230.414 2048.3,230.414 2049.06,230.414 2049.83,230.414 2050.59,230.414 2051.35,230.414 2052.12,230.414 2052.88,230.414 2053.64,230.414 2054.41,230.414 2055.17,230.414 2055.93,230.414 2056.7,230.414 2057.46,230.414 2058.22,230.414 2058.98,230.414 2059.75,230.414 2060.51,230.414 2061.27,230.414 2062.04,230.414 2062.8,230.414 2063.56,230.414 2064.33,230.414 2065.09,230.414 2065.85,230.414 2066.61,230.414 2067.38,230.414 2068.14,230.414 2068.9,230.414 2069.67,230.414 2070.43,230.414 2071.19,230.414 2071.96,230.414 2072.72,230.414 2073.48,230.414 2074.25,230.414 2075.01,230.414 2075.77,230.414 2076.53,230.414 2077.3,230.414 2078.06,230.414 2078.82,230.414 2079.59,182.338 2080.35,182.338 2081.11,182.338 2081.88,182.338 2082.64,182.338 2083.4,182.338 2084.16,182.338 2084.93,182.338 2085.69,182.338 2086.45,182.338 2087.22,182.338 2087.98,182.338 2088.74,182.338 2089.51,182.338 2090.27,182.338 2091.03,182.338 2091.8,182.338 2092.56,182.338 2093.32,182.338 2094.08,182.338 2094.85,182.338 2095.61,182.338 2096.37,182.338 2097.14,182.338 2097.9,182.338 2098.66,182.338 2099.43,182.338 2100.19,182.338 2100.95,182.338 2101.71,182.338 2102.48,182.338 2103.24,182.338 2104,182.338 2104.77,182.338 2105.53,182.338 2106.29,182.338 2107.06,182.338 2107.82,182.338 2108.58,182.338 2109.35,182.338 2110.11,182.338 2110.87,182.338 2111.63,182.338 2112.4,182.338 2113.16,182.338 2113.92,182.338 2114.69,182.338 2115.45,134.262 2116.21,134.262 2116.98,134.262 2117.74,134.262 2118.5,134.262 2119.26,134.262 2120.03,134.262 2120.79,134.262 2121.55,134.262 2122.32,134.262 2123.08,134.262 2123.84,134.262 2124.61,134.262 2125.37,134.262 2126.13,134.262 2126.9,134.262 2127.66,134.262 2128.42,134.262 2129.18,134.262 2129.95,134.262 2130.71,134.262 2131.47,134.262 2132.24,134.262 2133,134.262 2133.76,134.262 2134.53,134.262 2135.29,134.262 2136.05,134.262 2136.81,134.262 2137.58,134.262 2138.34,134.262 2139.1,134.262 2139.87,134.262 2140.63,134.262 2141.39,134.262 2142.16,134.262 2142.92,134.262 2143.68,134.262 2144.45,134.262 2145.21,134.262 2145.97,134.262 2146.73,134.262 2147.5,134.262 2148.26,134.262 2149.02,134.262 2149.79,134.262 2150.55,134.262 2151.31,134.262 2152.08,134.262 2152.84,134.262 2153.6,134.262 2154.36,134.262 2155.13,134.262 2155.89,134.262 2156.65,134.262 2157.42,134.262 2158.18,134.262 2158.94,134.262 2159.71,86.1857 2160.47,86.1857 2161.23,86.1857 2162,86.1857 2162.76,86.1857 2163.52,86.1857 2164.28,86.1857 2165.05,86.1857 2165.81,86.1857 2166.57,86.1857 2167.34,86.1857 2168.1,86.1857 2168.86,86.1857 2169.63,86.1857 2170.39,86.1857 2171.15,86.1857 2171.91,86.1857 2172.68,86.1857 2173.44,86.1857 2174.2,86.1857 2174.97,86.1857 2175.73,86.1857 2176.49,86.1857 2177.26,86.1857 2178.02,86.1857 2178.78,86.1857 2179.55,86.1857 2180.31,86.1857 2181.07,86.1857 2181.83,86.1857 2182.6,86.1857 2183.36,86.1857 2184.12,86.1857 2184.89,86.1857 2185.65,86.1857 2186.41,86.1857 2187.18,86.1857 2187.94,86.1857 2188.7,86.1857 2189.46,86.1857 2190.23,86.1857 2190.99,86.1857 2191.75,86.1857 2192.52,86.1857 2193.28,86.1857 2194.04,86.1857 2194.81,86.1857 2195.57,86.1857 2196.33,86.1857 2197.1,86.1857 2197.86,86.1857 2198.62,86.1857 2199.38,86.1857 2200.15,86.1857 2200.91,86.1857 2201.67,86.1857 2202.44,86.1857 2203.2,86.1857 2203.96,86.1857 2204.73,86.1857 2205.49,86.1857 2206.25,86.1857 2207.01,86.1857 2207.78,86.1857 2208.54,86.1857 2209.3,86.1857 2210.07,86.1857 2210.83,86.1857 2211.59,86.1857 2212.36,86.1857 2213.12,86.1857 2213.88,86.1857 2214.65,86.1857 2215.41,86.1857 2216.17,86.1857 2216.93,86.1857 2217.7,86.1857 2218.46,86.1857 2219.22,86.1857 2219.99,86.1857 2220.75,86.1857 2221.51,86.1857 2222.28,86.1857 2223.04,86.1857 2223.8,86.1857 2224.56,86.1857 2225.33,86.1857 2226.09,86.1857 2226.85,86.1857 2227.62,86.1857 2228.38,86.1857 2229.14,86.1857 2229.91,86.1857 2230.67,86.1857 2231.43,86.1857 2232.2,86.1857 2232.96,86.1857 2233.72,86.1857 2234.48,86.1857 2235.25,86.1857 2236.01,86.1857 2236.77,86.1857 2237.54,86.1857 2238.3,86.1857 2239.06,86.1857 2239.83,86.1857 2240.59,86.1857 2241.35,86.1857 2242.11,86.1857 2242.88,86.1857 2243.64,86.1857 2244.4,86.1857 2245.17,86.1857 2245.93,86.1857 2246.69,86.1857 2247.46,86.1857 2248.22,86.1857 2248.98,86.1857 2249.75,86.1857 2250.51,86.1857 2251.27,86.1857 2252.03,86.1857 2252.8,86.1857 2253.56,86.1857 2254.32,86.1857 2255.09,86.1857 2255.85,86.1857 2256.61,86.1857 2257.38,86.1857 2258.14,86.1857 2258.9,86.1857 2259.66,86.1857 2260.43,86.1857 2261.19,86.1857 2261.95,86.1857 2262.72,86.1857 2263.48,86.1857 2264.24,86.1857 2265.01,86.1857 2265.77,86.1857 2266.53,86.1857 2267.3,86.1857 2268.06,86.1857 2268.82,86.1857 2269.58,86.1857 2270.35,86.1857 2271.11,86.1857 2271.87,86.1857 2272.64,86.1857 2273.4,86.1857 2274.16,86.1857 2274.93,86.1857 2275.69,86.1857 2276.45,86.1857 2277.21,86.1857 2277.98,86.1857 2278.74,86.1857 2279.5,86.1857 2280.27,86.1857 2281.03,86.1857 2281.79,86.1857 2282.56,86.1857 2283.32,86.1857 2284.08,86.1857 2284.85,86.1857 2285.61,86.1857 2286.37,86.1857 2287.13,86.1857 2287.9,86.1857 2288.66,86.1857 2289.42,86.1857 2290.19,86.1857 2290.95,86.1857 2291.71,86.1857 2292.48,86.1857 2293.24,86.1857 2294,86.1857 2294.76,86.1857 2295.53,86.1857 2296.29,86.1857 2297.05,86.1857 2297.82,86.1857 2298.58,86.1857 2299.34,86.1857 2300.11,86.1857 2300.87,86.1857 2301.63,86.1857 2302.4,86.1857 2303.16,86.1857 2303.92,86.1857 2304.68,86.1857 2305.45,86.1857 2306.21,86.1857 2306.97,86.1857 2307.74,86.1857 2308.5,86.1857 2309.26,86.1857 2310.03,86.1857 2310.79,86.1857 2311.55,86.1857 2312.31,86.1857 2313.08,86.1857 2313.84,86.1857 2314.6,86.1857 2315.37,86.1857 2316.13,86.1857 2316.89,86.1857 2317.66,86.1857 2318.42,86.1857 2319.18,86.1857 2319.95,86.1857 2320.71,86.1857 2321.47,86.1857 2322.23,86.1857 2323,86.1857 2323.76,86.1857 2324.52,86.1857 2325.29,86.1857 2326.05,86.1857 2326.81,86.1857 2327.58,86.1857 2328.34,86.1857 2329.1,86.1857 2329.86,86.1857 2330.63,86.1857 2331.39,86.1857 2332.15,86.1857 2332.92,86.1857 2333.68,86.1857 2334.44,86.1857 2335.21,86.1857 2335.97,86.1857 2336.73,86.1857 2337.5,86.1857 2338.26,86.1857 2339.02,86.1857 2339.78,86.1857 2340.55,86.1857 2341.31,86.1857 2342.07,86.1857 2342.84,86.1857 2343.6,86.1857 2344.36,86.1857 2345.13,86.1857 2345.89,86.1857 2346.65,86.1857 2347.41,86.1857 2348.18,86.1857 2348.94,86.1857 2349.7,86.1857 2350.47,86.1857 2351.23,86.1857 2351.99,86.1857 2352.76,86.1857 "/>
<path clip-path="url(#clip690)" d="M1975.5 1377.32 L2279.02 1377.32 L2279.02 1273.64 L1975.5 1273.64  Z" fill="#ffffff" fill-rule="evenodd" fill-opacity="1"/>
<polyline clip-path="url(#clip690)" style="stroke:#000000; stroke-linecap:round; stroke-linejoin:round; stroke-width:4; stroke-opacity:1; fill:none" points="1975.5,1377.32 2279.02,1377.32 2279.02,1273.64 1975.5,1273.64 1975.5,1377.32 "/>
<polyline clip-path="url(#clip690)" style="stroke:#009af9; stroke-linecap:round; stroke-linejoin:round; stroke-width:8; stroke-opacity:1; fill:none" points="2000.08,1325.48 2147.55,1325.48 "/>
<path clip-path="url(#clip690)" d="M2172.13 1308.2 L2178.42 1308.2 L2193.75 1337.11 L2193.75 1308.2 L2198.29 1308.2 L2198.29 1342.76 L2191.99 1342.76 L2176.66 1313.84 L2176.66 1342.76 L2172.13 1342.76 L2172.13 1308.2 Z" fill="#000000" fill-rule="nonzero" fill-opacity="1" /><path clip-path="url(#clip690)" d="M2217.64 1306.78 Q2214.53 1312.11 2213.03 1317.32 Q2211.53 1322.52 2211.53 1327.87 Q2211.53 1333.22 2213.03 1338.47 Q2214.56 1343.7 2217.64 1349.01 L2213.93 1349.01 Q2210.46 1343.57 2208.72 1338.31 Q2207.01 1333.06 2207.01 1327.87 Q2207.01 1322.71 2208.72 1317.48 Q2210.44 1312.25 2213.93 1306.78 L2217.64 1306.78 Z" fill="#000000" fill-rule="nonzero" fill-opacity="1" /><path clip-path="url(#clip690)" d="M2230.11 1309.47 L2230.11 1316.83 L2238.89 1316.83 L2238.89 1320.14 L2230.11 1320.14 L2230.11 1334.21 Q2230.11 1337.38 2230.97 1338.29 Q2231.85 1339.19 2234.51 1339.19 L2238.89 1339.19 L2238.89 1342.76 L2234.51 1342.76 Q2229.58 1342.76 2227.71 1340.93 Q2225.83 1339.07 2225.83 1334.21 L2225.83 1320.14 L2222.71 1320.14 L2222.71 1316.83 L2225.83 1316.83 L2225.83 1309.47 L2230.11 1309.47 Z" fill="#000000" fill-rule="nonzero" fill-opacity="1" /><path clip-path="url(#clip690)" d="M2243.82 1306.78 L2247.52 1306.78 Q2250.99 1312.25 2252.71 1317.48 Q2254.44 1322.71 2254.44 1327.87 Q2254.44 1333.06 2252.71 1338.31 Q2250.99 1343.57 2247.52 1349.01 L2243.82 1349.01 Q2246.9 1343.7 2248.4 1338.47 Q2249.93 1333.22 2249.93 1327.87 Q2249.93 1322.52 2248.4 1317.32 Q2246.9 1312.11 2243.82 1306.78 Z" fill="#000000" fill-rule="nonzero" fill-opacity="1" /></svg>
