<?xml version="1.0" encoding="utf-8"?>
<svg xmlns="http://www.w3.org/2000/svg" xmlns:xlink="http://www.w3.org/1999/xlink" width="600" height="400" viewBox="0 0 2400 1600">
<defs>
  <clipPath id="clip870">
    <rect x="0" y="0" width="2400" height="1600"/>
  </clipPath>
</defs>
<path clip-path="url(#clip870)" d="M0 1600 L2400 1600 L2400 0 L0 0  Z" fill="#ffffff" fill-rule="evenodd" fill-opacity="1"/>
<defs>
  <clipPath id="clip871">
    <rect x="480" y="0" width="1681" height="1600"/>
  </clipPath>
</defs>
<path clip-path="url(#clip870)" d="M147.709 1423.18 L2352.76 1423.18 L2352.76 47.2441 L147.709 47.2441  Z" fill="#ffffff" fill-rule="evenodd" fill-opacity="1"/>
<defs>
  <clipPath id="clip872">
    <rect x="147" y="47" width="2206" height="1377"/>
  </clipPath>
</defs>
<polyline clip-path="url(#clip872)" style="stroke:#000000; stroke-linecap:round; stroke-linejoin:round; stroke-width:2; stroke-opacity:0.1; fill:none" points="147.709,1423.18 147.709,47.2441 "/>
<polyline clip-path="url(#clip872)" style="stroke:#000000; stroke-linecap:round; stroke-linejoin:round; stroke-width:2; stroke-opacity:0.1; fill:none" points="588.719,1423.18 588.719,47.2441 "/>
<polyline clip-path="url(#clip872)" style="stroke:#000000; stroke-linecap:round; stroke-linejoin:round; stroke-width:2; stroke-opacity:0.1; fill:none" points="1029.73,1423.18 1029.73,47.2441 "/>
<polyline clip-path="url(#clip872)" style="stroke:#000000; stroke-linecap:round; stroke-linejoin:round; stroke-width:2; stroke-opacity:0.1; fill:none" points="1470.74,1423.18 1470.74,47.2441 "/>
<polyline clip-path="url(#clip872)" style="stroke:#000000; stroke-linecap:round; stroke-linejoin:round; stroke-width:2; stroke-opacity:0.1; fill:none" points="1911.75,1423.18 1911.75,47.2441 "/>
<polyline clip-path="url(#clip872)" style="stroke:#000000; stroke-linecap:round; stroke-linejoin:round; stroke-width:2; stroke-opacity:0.1; fill:none" points="2352.76,1423.18 2352.76,47.2441 "/>
<polyline clip-path="url(#clip872)" style="stroke:#000000; stroke-linecap:round; stroke-linejoin:round; stroke-width:2; stroke-opacity:0.1; fill:none" points="147.709,1270.91 2352.76,1270.91 "/>
<polyline clip-path="url(#clip872)" style="stroke:#000000; stroke-linecap:round; stroke-linejoin:round; stroke-width:2; stroke-opacity:0.1; fill:none" points="147.709,974.727 2352.76,974.727 "/>
<polyline clip-path="url(#clip872)" style="stroke:#000000; stroke-linecap:round; stroke-linejoin:round; stroke-width:2; stroke-opacity:0.1; fill:none" points="147.709,678.547 2352.76,678.547 "/>
<polyline clip-path="url(#clip872)" style="stroke:#000000; stroke-linecap:round; stroke-linejoin:round; stroke-width:2; stroke-opacity:0.1; fill:none" points="147.709,382.366 2352.76,382.366 "/>
<polyline clip-path="url(#clip872)" style="stroke:#000000; stroke-linecap:round; stroke-linejoin:round; stroke-width:2; stroke-opacity:0.1; fill:none" points="147.709,86.1857 2352.76,86.1857 "/>
<polyline clip-path="url(#clip870)" style="stroke:#000000; stroke-linecap:round; stroke-linejoin:round; stroke-width:4; stroke-opacity:1; fill:none" points="147.709,1423.18 2352.76,1423.18 "/>
<polyline clip-path="url(#clip870)" style="stroke:#000000; stroke-linecap:round; stroke-linejoin:round; stroke-width:4; stroke-opacity:1; fill:none" points="147.709,1423.18 147.709,1404.28 "/>
<polyline clip-path="url(#clip870)" style="stroke:#000000; stroke-linecap:round; stroke-linejoin:round; stroke-width:4; stroke-opacity:1; fill:none" points="588.719,1423.18 588.719,1404.28 "/>
<polyline clip-path="url(#clip870)" style="stroke:#000000; stroke-linecap:round; stroke-linejoin:round; stroke-width:4; stroke-opacity:1; fill:none" points="1029.73,1423.18 1029.73,1404.28 "/>
<polyline clip-path="url(#clip870)" style="stroke:#000000; stroke-linecap:round; stroke-linejoin:round; stroke-width:4; stroke-opacity:1; fill:none" points="1470.74,1423.18 1470.74,1404.28 "/>
<polyline clip-path="url(#clip870)" style="stroke:#000000; stroke-linecap:round; stroke-linejoin:round; stroke-width:4; stroke-opacity:1; fill:none" points="1911.75,1423.18 1911.75,1404.28 "/>
<polyline clip-path="url(#clip870)" style="stroke:#000000; stroke-linecap:round; stroke-linejoin:round; stroke-width:4; stroke-opacity:1; fill:none" points="2352.76,1423.18 2352.76,1404.28 "/>
<path clip-path="url(#clip870)" d="M147.709 1454.1 Q144.098 1454.1 142.27 1457.66 Q140.464 1461.2 140.464 1468.33 Q140.464 1475.44 142.27 1479.01 Q144.098 1482.55 147.709 1482.55 Q151.344 1482.55 153.149 1479.01 Q154.978 1475.44 154.978 1468.33 Q154.978 1461.2 153.149 1457.66 Q151.344 1454.1 147.709 1454.1 M147.709 1450.39 Q153.52 1450.39 156.575 1455 Q159.654 1459.58 159.654 1468.33 Q159.654 1477.06 156.575 1481.67 Q153.52 1486.25 147.709 1486.25 Q141.899 1486.25 138.821 1481.67 Q135.765 1477.06 135.765 1468.33 Q135.765 1459.58 138.821 1455 Q141.899 1450.39 147.709 1450.39 Z" fill="#000000" fill-rule="nonzero" fill-opacity="1" /><path clip-path="url(#clip870)" d="M583.372 1481.64 L599.691 1481.64 L599.691 1485.58 L577.747 1485.58 L577.747 1481.64 Q580.409 1478.89 584.992 1474.26 Q589.598 1469.61 590.779 1468.27 Q593.024 1465.74 593.904 1464.01 Q594.807 1462.25 594.807 1460.56 Q594.807 1457.8 592.862 1456.07 Q590.941 1454.33 587.839 1454.33 Q585.64 1454.33 583.186 1455.09 Q580.756 1455.86 577.978 1457.41 L577.978 1452.69 Q580.802 1451.55 583.256 1450.97 Q585.709 1450.39 587.746 1450.39 Q593.117 1450.39 596.311 1453.08 Q599.506 1455.77 599.506 1460.26 Q599.506 1462.39 598.695 1464.31 Q597.908 1466.2 595.802 1468.8 Q595.223 1469.47 592.121 1472.69 Q589.02 1475.88 583.372 1481.64 Z" fill="#000000" fill-rule="nonzero" fill-opacity="1" /><path clip-path="url(#clip870)" d="M1032.74 1455.09 L1020.93 1473.54 L1032.74 1473.54 L1032.74 1455.09 M1031.51 1451.02 L1037.39 1451.02 L1037.39 1473.54 L1042.32 1473.54 L1042.32 1477.43 L1037.39 1477.43 L1037.39 1485.58 L1032.74 1485.58 L1032.74 1477.43 L1017.14 1477.43 L1017.14 1472.92 L1031.51 1451.02 Z" fill="#000000" fill-rule="nonzero" fill-opacity="1" /><path clip-path="url(#clip870)" d="M1471.14 1466.44 Q1467.99 1466.44 1466.14 1468.59 Q1464.31 1470.74 1464.31 1474.49 Q1464.31 1478.22 1466.14 1480.39 Q1467.99 1482.55 1471.14 1482.55 Q1474.29 1482.55 1476.12 1480.39 Q1477.97 1478.22 1477.97 1474.49 Q1477.97 1470.74 1476.12 1468.59 Q1474.29 1466.44 1471.14 1466.44 M1480.42 1451.78 L1480.42 1456.04 Q1478.67 1455.21 1476.86 1454.77 Q1475.08 1454.33 1473.32 1454.33 Q1468.69 1454.33 1466.24 1457.45 Q1463.8 1460.58 1463.46 1466.9 Q1464.82 1464.89 1466.88 1463.82 Q1468.94 1462.73 1471.42 1462.73 Q1476.63 1462.73 1479.64 1465.9 Q1482.67 1469.05 1482.67 1474.49 Q1482.67 1479.82 1479.52 1483.03 Q1476.37 1486.25 1471.14 1486.25 Q1465.15 1486.25 1461.98 1481.67 Q1458.8 1477.06 1458.8 1468.33 Q1458.8 1460.14 1462.69 1455.28 Q1466.58 1450.39 1473.13 1450.39 Q1474.89 1450.39 1476.67 1450.74 Q1478.48 1451.09 1480.42 1451.78 Z" fill="#000000" fill-rule="nonzero" fill-opacity="1" /><path clip-path="url(#clip870)" d="M1911.75 1469.17 Q1908.41 1469.17 1906.49 1470.95 Q1904.59 1472.73 1904.59 1475.86 Q1904.59 1478.98 1906.49 1480.77 Q1908.41 1482.55 1911.75 1482.55 Q1915.08 1482.55 1917 1480.77 Q1918.92 1478.96 1918.92 1475.86 Q1918.92 1472.73 1917 1470.95 Q1915.1 1469.17 1911.75 1469.17 M1907.07 1467.18 Q1904.06 1466.44 1902.37 1464.38 Q1900.7 1462.32 1900.7 1459.35 Q1900.7 1455.21 1903.64 1452.8 Q1906.61 1450.39 1911.75 1450.39 Q1916.91 1450.39 1919.85 1452.8 Q1922.79 1455.21 1922.79 1459.35 Q1922.79 1462.32 1921.1 1464.38 Q1919.43 1466.44 1916.45 1467.18 Q1919.83 1467.96 1921.7 1470.26 Q1923.6 1472.55 1923.6 1475.86 Q1923.6 1480.88 1920.52 1483.57 Q1917.46 1486.25 1911.75 1486.25 Q1906.03 1486.25 1902.95 1483.57 Q1899.89 1480.88 1899.89 1475.86 Q1899.89 1472.55 1901.79 1470.26 Q1903.69 1467.96 1907.07 1467.18 M1905.36 1459.79 Q1905.36 1462.48 1907.02 1463.98 Q1908.71 1465.49 1911.75 1465.49 Q1914.76 1465.49 1916.45 1463.98 Q1918.16 1462.48 1918.16 1459.79 Q1918.16 1457.11 1916.45 1455.6 Q1914.76 1454.1 1911.75 1454.1 Q1908.71 1454.1 1907.02 1455.6 Q1905.36 1457.11 1905.36 1459.79 Z" fill="#000000" fill-rule="nonzero" fill-opacity="1" /><path clip-path="url(#clip870)" d="M2327.44 1481.64 L2335.08 1481.64 L2335.08 1455.28 L2326.77 1456.95 L2326.77 1452.69 L2335.04 1451.02 L2339.71 1451.02 L2339.71 1481.64 L2347.35 1481.64 L2347.35 1485.58 L2327.44 1485.58 L2327.44 1481.64 Z" fill="#000000" fill-rule="nonzero" fill-opacity="1" /><path clip-path="url(#clip870)" d="M2366.8 1454.1 Q2363.18 1454.1 2361.36 1457.66 Q2359.55 1461.2 2359.55 1468.33 Q2359.55 1475.44 2361.36 1479.01 Q2363.18 1482.55 2366.8 1482.55 Q2370.43 1482.55 2372.23 1479.01 Q2374.06 1475.44 2374.06 1468.33 Q2374.06 1461.2 2372.23 1457.66 Q2370.43 1454.1 2366.8 1454.1 M2366.8 1450.39 Q2372.61 1450.39 2375.66 1455 Q2378.74 1459.58 2378.74 1468.33 Q2378.74 1477.06 2375.66 1481.67 Q2372.61 1486.25 2366.8 1486.25 Q2360.99 1486.25 2357.91 1481.67 Q2354.85 1477.06 2354.85 1468.33 Q2354.85 1459.58 2357.91 1455 Q2360.99 1450.39 2366.8 1450.39 Z" fill="#000000" fill-rule="nonzero" fill-opacity="1" /><path clip-path="url(#clip870)" d="M1249.29 1522.27 L1249.29 1532.4 L1261.36 1532.4 L1261.36 1536.95 L1249.29 1536.95 L1249.29 1556.3 Q1249.29 1560.66 1250.47 1561.9 Q1251.68 1563.14 1255.34 1563.14 L1261.36 1563.14 L1261.36 1568.04 L1255.34 1568.04 Q1248.56 1568.04 1245.98 1565.53 Q1243.41 1562.98 1243.41 1556.3 L1243.41 1536.95 L1239.11 1536.95 L1239.11 1532.4 L1243.41 1532.4 L1243.41 1522.27 L1249.29 1522.27 Z" fill="#000000" fill-rule="nonzero" fill-opacity="1" /><polyline clip-path="url(#clip870)" style="stroke:#000000; stroke-linecap:round; stroke-linejoin:round; stroke-width:4; stroke-opacity:1; fill:none" points="147.709,1423.18 147.709,47.2441 "/>
<polyline clip-path="url(#clip870)" style="stroke:#000000; stroke-linecap:round; stroke-linejoin:round; stroke-width:4; stroke-opacity:1; fill:none" points="147.709,1270.91 166.607,1270.91 "/>
<polyline clip-path="url(#clip870)" style="stroke:#000000; stroke-linecap:round; stroke-linejoin:round; stroke-width:4; stroke-opacity:1; fill:none" points="147.709,974.727 166.607,974.727 "/>
<polyline clip-path="url(#clip870)" style="stroke:#000000; stroke-linecap:round; stroke-linejoin:round; stroke-width:4; stroke-opacity:1; fill:none" points="147.709,678.547 166.607,678.547 "/>
<polyline clip-path="url(#clip870)" style="stroke:#000000; stroke-linecap:round; stroke-linejoin:round; stroke-width:4; stroke-opacity:1; fill:none" points="147.709,382.366 166.607,382.366 "/>
<polyline clip-path="url(#clip870)" style="stroke:#000000; stroke-linecap:round; stroke-linejoin:round; stroke-width:4; stroke-opacity:1; fill:none" points="147.709,86.1857 166.607,86.1857 "/>
<path clip-path="url(#clip870)" d="M50.9921 1271.36 L80.6679 1271.36 L80.6679 1275.29 L50.9921 1275.29 L50.9921 1271.36 Z" fill="#000000" fill-rule="nonzero" fill-opacity="1" /><path clip-path="url(#clip870)" d="M90.8067 1253.63 L109.163 1253.63 L109.163 1257.56 L95.0891 1257.56 L95.0891 1266.03 Q96.1076 1265.69 97.1261 1265.53 Q98.1447 1265.34 99.1632 1265.34 Q104.95 1265.34 108.33 1268.51 Q111.709 1271.68 111.709 1277.1 Q111.709 1282.68 108.237 1285.78 Q104.765 1288.86 98.4456 1288.86 Q96.2697 1288.86 94.0012 1288.49 Q91.7558 1288.12 89.3484 1287.38 L89.3484 1282.68 Q91.4317 1283.81 93.6539 1284.37 Q95.8761 1284.92 98.353 1284.92 Q102.358 1284.92 104.696 1282.82 Q107.033 1280.71 107.033 1277.1 Q107.033 1273.49 104.696 1271.38 Q102.358 1269.28 98.353 1269.28 Q96.478 1269.28 94.603 1269.69 Q92.7512 1270.11 90.8067 1270.99 L90.8067 1253.63 Z" fill="#000000" fill-rule="nonzero" fill-opacity="1" /><path clip-path="url(#clip870)" d="M99.765 960.526 Q96.1539 960.526 94.3252 964.09 Q92.5197 967.632 92.5197 974.762 Q92.5197 981.868 94.3252 985.433 Q96.1539 988.975 99.765 988.975 Q103.399 988.975 105.205 985.433 Q107.033 981.868 107.033 974.762 Q107.033 967.632 105.205 964.09 Q103.399 960.526 99.765 960.526 M99.765 956.822 Q105.575 956.822 108.631 961.428 Q111.709 966.012 111.709 974.762 Q111.709 983.488 108.631 988.095 Q105.575 992.678 99.765 992.678 Q93.9549 992.678 90.8762 988.095 Q87.8206 983.488 87.8206 974.762 Q87.8206 966.012 90.8762 961.428 Q93.9549 956.822 99.765 956.822 Z" fill="#000000" fill-rule="nonzero" fill-opacity="1" /><path clip-path="url(#clip870)" d="M90.8067 661.267 L109.163 661.267 L109.163 665.202 L95.0891 665.202 L95.0891 673.674 Q96.1076 673.327 97.1261 673.165 Q98.1447 672.979 99.1632 672.979 Q104.95 672.979 108.33 676.151 Q111.709 679.322 111.709 684.739 Q111.709 690.317 108.237 693.419 Q104.765 696.498 98.4456 696.498 Q96.2697 696.498 94.0012 696.127 Q91.7558 695.757 89.3484 695.016 L89.3484 690.317 Q91.4317 691.452 93.6539 692.007 Q95.8761 692.563 98.353 692.563 Q102.358 692.563 104.696 690.456 Q107.033 688.35 107.033 684.739 Q107.033 681.128 104.696 679.021 Q102.358 676.915 98.353 676.915 Q96.478 676.915 94.603 677.331 Q92.7512 677.748 90.8067 678.628 L90.8067 661.267 Z" fill="#000000" fill-rule="nonzero" fill-opacity="1" /><path clip-path="url(#clip870)" d="M60.4134 395.711 L68.0522 395.711 L68.0522 369.345 L59.7421 371.012 L59.7421 366.753 L68.0059 365.086 L72.6818 365.086 L72.6818 395.711 L80.3207 395.711 L80.3207 399.646 L60.4134 399.646 L60.4134 395.711 Z" fill="#000000" fill-rule="nonzero" fill-opacity="1" /><path clip-path="url(#clip870)" d="M99.765 368.165 Q96.1539 368.165 94.3252 371.73 Q92.5197 375.271 92.5197 382.401 Q92.5197 389.507 94.3252 393.072 Q96.1539 396.614 99.765 396.614 Q103.399 396.614 105.205 393.072 Q107.033 389.507 107.033 382.401 Q107.033 375.271 105.205 371.73 Q103.399 368.165 99.765 368.165 M99.765 364.461 Q105.575 364.461 108.631 369.068 Q111.709 373.651 111.709 382.401 Q111.709 391.128 108.631 395.734 Q105.575 400.317 99.765 400.317 Q93.9549 400.317 90.8762 395.734 Q87.8206 391.128 87.8206 382.401 Q87.8206 373.651 90.8762 369.068 Q93.9549 364.461 99.765 364.461 Z" fill="#000000" fill-rule="nonzero" fill-opacity="1" /><path clip-path="url(#clip870)" d="M61.4087 99.5305 L69.0476 99.5305 L69.0476 73.1649 L60.7374 74.8316 L60.7374 70.5723 L69.0013 68.9057 L73.6772 68.9057 L73.6772 99.5305 L81.316 99.5305 L81.316 103.466 L61.4087 103.466 L61.4087 99.5305 Z" fill="#000000" fill-rule="nonzero" fill-opacity="1" /><path clip-path="url(#clip870)" d="M90.8067 68.9057 L109.163 68.9057 L109.163 72.8408 L95.0891 72.8408 L95.0891 81.313 Q96.1076 80.9658 97.1261 80.8038 Q98.1447 80.6186 99.1632 80.6186 Q104.95 80.6186 108.33 83.7899 Q111.709 86.9611 111.709 92.3778 Q111.709 97.9564 108.237 101.058 Q104.765 104.137 98.4456 104.137 Q96.2697 104.137 94.0012 103.767 Q91.7558 103.396 89.3484 102.655 L89.3484 97.9564 Q91.4317 99.0907 93.6539 99.6462 Q95.8761 100.202 98.353 100.202 Q102.358 100.202 104.696 98.0953 Q107.033 95.9889 107.033 92.3778 Q107.033 88.7667 104.696 86.6602 Q102.358 84.5537 98.353 84.5537 Q96.478 84.5537 94.603 84.9704 Q92.7512 85.3871 90.8067 86.2667 L90.8067 68.9057 Z" fill="#000000" fill-rule="nonzero" fill-opacity="1" /><polyline clip-path="url(#clip872)" style="stroke:#009af9; stroke-linecap:round; stroke-linejoin:round; stroke-width:8; stroke-opacity:1; fill:none" points="147.709,974.727 149.917,974.727 152.124,974.727 154.331,974.727 156.538,974.727 158.746,974.727 160.953,974.727 163.16,974.727 165.367,974.727 167.575,974.727 169.782,974.727 171.989,974.727 174.196,974.727 176.404,974.727 178.611,974.727 180.818,974.727 183.025,974.727 185.233,974.727 187.44,974.727 189.647,974.727 191.854,974.727 194.062,974.727 196.269,974.727 198.476,974.727 200.683,974.727 202.891,974.727 205.098,974.727 207.305,974.727 209.512,974.727 211.72,974.727 213.927,974.727 216.134,974.727 218.342,974.727 220.549,974.727 222.756,974.727 224.963,974.727 227.171,974.727 229.378,974.727 231.585,974.727 233.792,974.727 236,974.727 238.207,974.727 240.414,974.727 242.621,974.727 244.829,974.727 247.036,974.727 249.243,974.727 251.45,974.727 253.658,974.727 255.865,974.727 258.072,974.727 260.279,974.727 262.487,974.727 264.694,974.727 266.901,915.491 269.108,915.491 271.316,974.727 273.523,974.727 275.73,974.727 277.937,974.727 280.145,974.727 282.352,974.727 284.559,974.727 286.766,974.727 288.974,974.727 291.181,974.727 293.388,974.727 295.595,974.727 297.803,974.727 300.01,915.491 302.217,915.491 304.424,915.491 306.632,915.491 308.839,915.491 311.046,915.491 313.253,915.491 315.461,915.491 317.668,915.491 319.875,915.491 322.082,915.491 324.29,915.491 326.497,915.491 328.704,915.491 330.911,915.491 333.119,915.491 335.326,915.491 337.533,856.255 339.74,856.255 341.948,856.255 344.155,856.255 346.362,856.255 348.569,856.255 350.777,797.019 352.984,797.019 355.191,797.019 357.399,856.255 359.606,856.255 361.813,856.255 364.02,856.255 366.228,856.255 368.435,856.255 370.642,856.255 372.849,856.255 375.057,856.255 377.264,856.255 379.471,856.255 381.678,856.255 383.886,856.255 386.093,856.255 388.3,915.491 390.507,915.491 392.715,915.491 394.922,915.491 397.129,915.491 399.336,915.491 401.544,915.491 403.751,915.491 405.958,915.491 408.165,915.491 410.373,915.491 412.58,856.255 414.787,915.491 416.994,915.491 419.202,915.491 421.409,915.491 423.616,915.491 425.823,915.491 428.031,915.491 430.238,915.491 432.445,915.491 434.652,915.491 436.86,915.491 439.067,915.491 441.274,915.491 443.481,915.491 445.689,974.727 447.896,974.727 450.103,974.727 452.31,974.727 454.518,974.727 456.725,974.727 458.932,974.727 461.139,974.727 463.347,974.727 465.554,974.727 467.761,974.727 469.968,974.727 472.176,974.727 474.383,974.727 476.59,974.727 478.797,915.491 481.005,856.255 483.212,856.255 485.419,856.255 487.626,856.255 489.834,856.255 492.041,856.255 494.248,856.255 496.455,856.255 498.663,856.255 500.87,856.255 503.077,856.255 505.285,856.255 507.492,856.255 509.699,856.255 511.906,856.255 514.114,856.255 516.321,856.255 518.528,856.255 520.735,856.255 522.943,856.255 525.15,856.255 527.357,856.255 529.564,856.255 531.772,856.255 533.979,856.255 536.186,856.255 538.393,856.255 540.601,856.255 542.808,856.255 545.015,856.255 547.222,856.255 549.43,856.255 551.637,856.255 553.844,856.255 556.051,856.255 558.259,856.255 560.466,856.255 562.673,856.255 564.88,856.255 567.088,856.255 569.295,797.019 571.502,797.019 573.709,797.019 575.917,797.019 578.124,856.255 580.331,856.255 582.538,856.255 584.746,856.255 586.953,856.255 589.16,856.255 591.367,856.255 593.575,856.255 595.782,856.255 597.989,856.255 600.196,856.255 602.404,856.255 604.611,856.255 606.818,856.255 609.025,856.255 611.233,856.255 613.44,915.491 615.647,915.491 617.854,915.491 620.062,915.491 622.269,915.491 624.476,915.491 626.683,915.491 628.891,915.491 631.098,915.491 633.305,915.491 635.512,915.491 637.72,915.491 639.927,915.491 642.134,915.491 644.341,915.491 646.549,915.491 648.756,915.491 650.963,915.491 653.171,915.491 655.378,915.491 657.585,915.491 659.792,915.491 662,915.491 664.207,915.491 666.414,915.491 668.621,915.491 670.829,915.491 673.036,915.491 675.243,915.491 677.45,915.491 679.658,915.491 681.865,915.491 684.072,915.491 686.279,915.491 688.487,915.491 690.694,915.491 692.901,915.491 695.108,915.491 697.316,915.491 699.523,915.491 701.73,915.491 703.937,915.491 706.145,915.491 708.352,915.491 710.559,915.491 712.766,915.491 714.974,915.491 717.181,915.491 719.388,915.491 721.595,915.491 723.803,915.491 726.01,915.491 728.217,915.491 730.424,915.491 732.632,915.491 734.839,915.491 737.046,915.491 739.253,915.491 741.461,915.491 743.668,915.491 745.875,915.491 748.082,915.491 750.29,915.491 752.497,915.491 754.704,915.491 756.911,915.491 759.119,915.491 761.326,915.491 763.533,915.491 765.74,915.491 767.948,915.491 770.155,915.491 772.362,915.491 774.569,915.491 776.777,915.491 778.984,915.491 781.191,915.491 783.398,974.727 785.606,974.727 787.813,974.727 790.02,974.727 792.227,974.727 794.435,974.727 796.642,974.727 798.849,974.727 801.057,974.727 803.264,974.727 805.471,974.727 807.678,974.727 809.886,974.727 812.093,974.727 814.3,974.727 816.507,974.727 818.715,974.727 820.922,974.727 823.129,974.727 825.336,974.727 827.544,974.727 829.751,974.727 831.958,974.727 834.165,974.727 836.373,974.727 838.58,974.727 840.787,974.727 842.994,974.727 845.202,974.727 847.409,974.727 849.616,974.727 851.823,974.727 854.031,974.727 856.238,974.727 858.445,974.727 860.652,974.727 862.86,974.727 865.067,974.727 867.274,974.727 869.481,974.727 871.689,974.727 873.896,974.727 876.103,974.727 878.31,974.727 880.518,974.727 882.725,974.727 884.932,974.727 887.139,974.727 889.347,974.727 891.554,974.727 893.761,974.727 895.968,974.727 898.176,974.727 900.383,974.727 902.59,974.727 904.797,974.727 907.005,974.727 909.212,974.727 911.419,974.727 913.626,974.727 915.834,974.727 918.041,974.727 920.248,974.727 922.455,974.727 924.663,974.727 926.87,974.727 929.077,974.727 931.284,974.727 933.492,974.727 935.699,974.727 937.906,974.727 940.113,974.727 942.321,974.727 944.528,974.727 946.735,974.727 948.943,974.727 951.15,974.727 953.357,974.727 955.564,974.727 957.772,974.727 959.979,974.727 962.186,974.727 964.393,974.727 966.601,974.727 968.808,974.727 971.015,974.727 973.222,974.727 975.43,974.727 977.637,974.727 979.844,974.727 982.051,974.727 984.259,974.727 986.466,974.727 988.673,974.727 990.88,974.727 993.088,974.727 995.295,974.727 997.502,974.727 999.709,974.727 1001.92,974.727 1004.12,974.727 1006.33,974.727 1008.54,974.727 1010.75,974.727 1012.95,974.727 1015.16,974.727 1017.37,974.727 1019.57,974.727 1021.78,974.727 1023.99,974.727 1026.2,974.727 1028.4,974.727 1030.61,974.727 1032.82,974.727 1035.03,974.727 1037.23,974.727 1039.44,974.727 1041.65,974.727 1043.85,974.727 1046.06,974.727 1048.27,974.727 1050.48,974.727 1052.68,974.727 1054.89,974.727 1057.1,974.727 1059.31,974.727 1061.51,974.727 1063.72,974.727 1065.93,974.727 1068.13,974.727 1070.34,974.727 1072.55,974.727 1074.76,974.727 1076.96,974.727 1079.17,974.727 1081.38,974.727 1083.58,974.727 1085.79,974.727 1088,974.727 1090.21,974.727 1092.41,974.727 1094.62,974.727 1096.83,974.727 1099.04,974.727 1101.24,974.727 1103.45,974.727 1105.66,974.727 1107.86,974.727 1110.07,974.727 1112.28,974.727 1114.49,974.727 1116.69,974.727 1118.9,974.727 1121.11,974.727 1123.32,974.727 1125.52,974.727 1127.73,974.727 1129.94,974.727 1132.14,974.727 1134.35,974.727 1136.56,974.727 1138.77,974.727 1140.97,974.727 1143.18,974.727 1145.39,974.727 1147.6,974.727 1149.8,974.727 1152.01,974.727 1154.22,974.727 1156.42,974.727 1158.63,974.727 1160.84,974.727 1163.05,974.727 1165.25,974.727 1167.46,974.727 1169.67,974.727 1171.88,974.727 1174.08,974.727 1176.29,974.727 1178.5,974.727 1180.7,974.727 1182.91,974.727 1185.12,974.727 1187.33,974.727 1189.53,974.727 1191.74,974.727 1193.95,974.727 1196.15,974.727 1198.36,974.727 1200.57,974.727 1202.78,974.727 1204.98,974.727 1207.19,974.727 1209.4,974.727 1211.61,974.727 1213.81,974.727 1216.02,974.727 1218.23,974.727 1220.43,974.727 1222.64,974.727 1224.85,974.727 1227.06,974.727 1229.26,974.727 1231.47,974.727 1233.68,974.727 1235.89,974.727 1238.09,974.727 1240.3,974.727 1242.51,974.727 1244.71,974.727 1246.92,974.727 1249.13,974.727 1251.34,974.727 1253.54,974.727 1255.75,974.727 1257.96,974.727 1260.17,974.727 1262.37,974.727 1264.58,974.727 1266.79,974.727 1268.99,974.727 1271.2,974.727 1273.41,974.727 1275.62,974.727 1277.82,974.727 1280.03,974.727 1282.24,974.727 1284.45,974.727 1286.65,974.727 1288.86,974.727 1291.07,974.727 1293.27,974.727 1295.48,974.727 1297.69,974.727 1299.9,974.727 1302.1,974.727 1304.31,974.727 1306.52,974.727 1308.72,974.727 1310.93,974.727 1313.14,974.727 1315.35,974.727 1317.55,974.727 1319.76,974.727 1321.97,974.727 1324.18,974.727 1326.38,974.727 1328.59,974.727 1330.8,974.727 1333,974.727 1335.21,974.727 1337.42,974.727 1339.63,974.727 1341.83,974.727 1344.04,974.727 1346.25,974.727 1348.46,974.727 1350.66,974.727 1352.87,974.727 1355.08,974.727 1357.28,974.727 1359.49,974.727 1361.7,974.727 1363.91,974.727 1366.11,974.727 1368.32,915.491 1370.53,915.491 1372.74,915.491 1374.94,915.491 1377.15,915.491 1379.36,915.491 1381.56,915.491 1383.77,915.491 1385.98,915.491 1388.19,915.491 1390.39,915.491 1392.6,915.491 1394.81,915.491 1397.02,915.491 1399.22,915.491 1401.43,915.491 1403.64,915.491 1405.84,915.491 1408.05,915.491 1410.26,915.491 1412.47,915.491 1414.67,915.491 1416.88,915.491 1419.09,915.491 1421.29,915.491 1423.5,915.491 1425.71,915.491 1427.92,915.491 1430.12,915.491 1432.33,915.491 1434.54,915.491 1436.75,915.491 1438.95,915.491 1441.16,915.491 1443.37,915.491 1445.57,915.491 1447.78,915.491 1449.99,915.491 1452.2,915.491 1454.4,915.491 1456.61,915.491 1458.82,915.491 1461.03,915.491 1463.23,915.491 1465.44,915.491 1467.65,915.491 1469.85,915.491 1472.06,915.491 1474.27,915.491 1476.48,915.491 1478.68,915.491 1480.89,915.491 1483.1,915.491 1485.31,915.491 1487.51,915.491 1489.72,915.491 1491.93,915.491 1494.13,915.491 1496.34,915.491 1498.55,915.491 1500.76,915.491 1502.96,915.491 1505.17,915.491 1507.38,915.491 1509.58,915.491 1511.79,915.491 1514,915.491 1516.21,915.491 1518.41,915.491 1520.62,915.491 1522.83,915.491 1525.04,915.491 1527.24,915.491 1529.45,915.491 1531.66,915.491 1533.86,915.491 1536.07,915.491 1538.28,915.491 1540.49,915.491 1542.69,915.491 1544.9,915.491 1547.11,915.491 1549.32,915.491 1551.52,915.491 1553.73,974.727 1555.94,974.727 1558.14,974.727 1560.35,974.727 1562.56,974.727 1564.77,974.727 1566.97,974.727 1569.18,974.727 1571.39,974.727 1573.6,974.727 1575.8,974.727 1578.01,974.727 1580.22,974.727 1582.42,974.727 1584.63,974.727 1586.84,974.727 1589.05,974.727 1591.25,974.727 1593.46,974.727 1595.67,974.727 1597.88,974.727 1600.08,974.727 1602.29,974.727 1604.5,974.727 1606.7,974.727 1608.91,974.727 1611.12,974.727 1613.33,974.727 1615.53,974.727 1617.74,974.727 1619.95,974.727 1622.15,974.727 1624.36,974.727 1626.57,974.727 1628.78,974.727 1630.98,974.727 1633.19,974.727 1635.4,974.727 1637.61,974.727 1639.81,974.727 1642.02,974.727 1644.23,974.727 1646.43,974.727 1648.64,974.727 1650.85,974.727 1653.06,974.727 1655.26,974.727 1657.47,974.727 1659.68,974.727 1661.89,974.727 1664.09,974.727 1666.3,974.727 1668.51,974.727 1670.71,974.727 1672.92,974.727 1675.13,974.727 1677.34,974.727 1679.54,974.727 1681.75,974.727 1683.96,974.727 1686.17,974.727 1688.37,974.727 1690.58,974.727 1692.79,974.727 1694.99,974.727 1697.2,974.727 1699.41,974.727 1701.62,974.727 1703.82,974.727 1706.03,974.727 1708.24,974.727 1710.45,974.727 1712.65,974.727 1714.86,974.727 1717.07,974.727 1719.27,974.727 1721.48,974.727 1723.69,974.727 1725.9,974.727 1728.1,974.727 1730.31,974.727 1732.52,974.727 1734.72,974.727 1736.93,974.727 1739.14,974.727 1741.35,974.727 1743.55,974.727 1745.76,974.727 1747.97,974.727 1750.18,974.727 1752.38,974.727 1754.59,974.727 1756.8,974.727 1759,974.727 1761.21,974.727 1763.42,974.727 1765.63,974.727 1767.83,974.727 1770.04,974.727 1772.25,974.727 1774.46,974.727 1776.66,974.727 1778.87,974.727 1781.08,974.727 1783.28,974.727 1785.49,974.727 1787.7,974.727 1789.91,974.727 1792.11,974.727 1794.32,974.727 1796.53,974.727 1798.74,974.727 1800.94,974.727 1803.15,974.727 1805.36,974.727 1807.56,974.727 1809.77,974.727 1811.98,974.727 1814.19,974.727 1816.39,974.727 1818.6,974.727 1820.81,974.727 1823.02,974.727 1825.22,974.727 1827.43,974.727 1829.64,974.727 1831.84,974.727 1834.05,974.727 1836.26,974.727 1838.47,974.727 1840.67,974.727 1842.88,974.727 1845.09,974.727 1847.29,974.727 1849.5,974.727 1851.71,974.727 1853.92,974.727 1856.12,974.727 1858.33,974.727 1860.54,974.727 1862.75,974.727 1864.95,974.727 1867.16,974.727 1869.37,915.491 1871.57,915.491 1873.78,915.491 1875.99,856.255 1878.2,856.255 1880.4,856.255 1882.61,856.255 1884.82,915.491 1887.03,915.491 1889.23,915.491 1891.44,915.491 1893.65,915.491 1895.85,915.491 1898.06,915.491 1900.27,915.491 1902.48,915.491 1904.68,915.491 1906.89,915.491 1909.1,915.491 1911.31,915.491 1913.51,915.491 1915.72,915.491 1917.93,915.491 1920.13,915.491 1922.34,915.491 1924.55,915.491 1926.76,915.491 1928.96,915.491 1931.17,915.491 1933.38,915.491 1935.58,915.491 1937.79,915.491 1940,915.491 1942.21,915.491 1944.41,915.491 1946.62,915.491 1948.83,915.491 1951.04,915.491 1953.24,915.491 1955.45,915.491 1957.66,915.491 1959.86,915.491 1962.07,915.491 1964.28,915.491 1966.49,915.491 1968.69,915.491 1970.9,915.491 1973.11,915.491 1975.32,915.491 1977.52,915.491 1979.73,915.491 1981.94,915.491 1984.14,915.491 1986.35,915.491 1988.56,915.491 1990.77,915.491 1992.97,915.491 1995.18,915.491 1997.39,915.491 1999.6,974.727 2001.8,974.727 2004.01,974.727 2006.22,974.727 2008.42,974.727 2010.63,974.727 2012.84,974.727 2015.05,974.727 2017.25,974.727 2019.46,974.727 2021.67,974.727 2023.88,974.727 2026.08,974.727 2028.29,974.727 2030.5,974.727 2032.7,974.727 2034.91,974.727 2037.12,974.727 2039.33,974.727 2041.53,974.727 2043.74,974.727 2045.95,974.727 2048.15,974.727 2050.36,974.727 2052.57,974.727 2054.78,974.727 2056.98,974.727 2059.19,974.727 2061.4,974.727 2063.61,974.727 2065.81,974.727 2068.02,974.727 2070.23,974.727 2072.43,974.727 2074.64,974.727 2076.85,974.727 2079.06,974.727 2081.26,974.727 2083.47,974.727 2085.68,974.727 2087.89,974.727 2090.09,974.727 2092.3,974.727 2094.51,974.727 2096.71,915.491 2098.92,915.491 2101.13,915.491 2103.34,915.491 2105.54,915.491 2107.75,915.491 2109.96,915.491 2112.17,915.491 2114.37,915.491 2116.58,915.491 2118.79,915.491 2120.99,915.491 2123.2,915.491 2125.41,915.491 2127.62,915.491 2129.82,915.491 2132.03,915.491 2134.24,856.255 2136.45,856.255 2138.65,856.255 2140.86,856.255 2143.07,856.255 2145.27,856.255 2147.48,856.255 2149.69,856.255 2151.9,856.255 2154.1,856.255 2156.31,856.255 2158.52,856.255 2160.72,856.255 2162.93,856.255 2165.14,856.255 2167.35,856.255 2169.55,856.255 2171.76,856.255 2173.97,856.255 2176.18,856.255 2178.38,856.255 2180.59,856.255 2182.8,856.255 2185,856.255 2187.21,856.255 2189.42,856.255 2191.63,856.255 2193.83,856.255 2196.04,856.255 2198.25,856.255 2200.46,856.255 2202.66,856.255 2204.87,856.255 2207.08,797.019 2209.28,797.019 2211.49,797.019 2213.7,797.019 2215.91,797.019 2218.11,797.019 2220.32,797.019 2222.53,797.019 2224.74,797.019 2226.94,797.019 2229.15,797.019 2231.36,797.019 2233.56,797.019 2235.77,737.783 2237.98,797.019 2240.19,797.019 2242.39,797.019 2244.6,797.019 2246.81,797.019 2249.01,797.019 2251.22,797.019 2253.43,797.019 2255.64,797.019 2257.84,856.255 2260.05,856.255 2262.26,856.255 2264.47,856.255 2266.67,856.255 2268.88,856.255 2271.09,856.255 2273.29,856.255 2275.5,856.255 2277.71,856.255 2279.92,797.019 2282.12,797.019 2284.33,797.019 2286.54,797.019 2288.75,797.019 2290.95,797.019 2293.16,797.019 2295.37,797.019 2297.57,797.019 2299.78,797.019 2301.99,797.019 2304.2,797.019 2306.4,797.019 2308.61,797.019 2310.82,797.019 2313.03,797.019 2315.23,797.019 2317.44,797.019 2319.65,797.019 2321.85,797.019 2324.06,856.255 2326.27,856.255 2328.48,856.255 2330.68,856.255 2332.89,856.255 2335.1,856.255 2337.31,856.255 2339.51,856.255 2341.72,856.255 2343.93,856.255 2346.13,856.255 2348.34,856.255 2350.55,856.255 2352.76,915.491 "/>
<polyline clip-path="url(#clip872)" style="stroke:#e26f46; stroke-linecap:round; stroke-linejoin:round; stroke-width:8; stroke-opacity:1; fill:none" points="147.709,974.727 149.917,974.727 152.124,974.727 154.331,974.727 156.538,974.727 158.746,974.727 160.953,974.727 163.16,974.727 165.367,974.727 167.575,974.727 169.782,974.727 171.989,974.727 174.196,974.727 176.404,974.727 178.611,974.727 180.818,974.727 183.025,974.727 185.233,974.727 187.44,974.727 189.647,974.727 191.854,974.727 194.062,974.727 196.269,974.727 198.476,974.727 200.683,974.727 202.891,974.727 205.098,974.727 207.305,974.727 209.512,974.727 211.72,974.727 213.927,974.727 216.134,974.727 218.342,974.727 220.549,974.727 222.756,974.727 224.963,974.727 227.171,974.727 229.378,974.727 231.585,974.727 233.792,974.727 236,974.727 238.207,974.727 240.414,974.727 242.621,974.727 244.829,974.727 247.036,974.727 249.243,974.727 251.45,974.727 253.658,974.727 255.865,974.727 258.072,974.727 260.279,974.727 262.487,974.727 264.694,974.727 266.901,974.727 269.108,974.727 271.316,915.491 273.523,915.491 275.73,915.491 277.937,915.491 280.145,915.491 282.352,915.491 284.559,915.491 286.766,915.491 288.974,915.491 291.181,915.491 293.388,915.491 295.595,915.491 297.803,915.491 300.01,915.491 302.217,915.491 304.424,915.491 306.632,915.491 308.839,915.491 311.046,915.491 313.253,915.491 315.461,915.491 317.668,915.491 319.875,915.491 322.082,915.491 324.29,915.491 326.497,915.491 328.704,915.491 330.911,915.491 333.119,915.491 335.326,915.491 337.533,915.491 339.74,915.491 341.948,915.491 344.155,915.491 346.362,915.491 348.569,915.491 350.777,915.491 352.984,915.491 355.191,915.491 357.399,856.255 359.606,856.255 361.813,856.255 364.02,856.255 366.228,856.255 368.435,856.255 370.642,856.255 372.849,856.255 375.057,856.255 377.264,856.255 379.471,856.255 381.678,856.255 383.886,856.255 386.093,856.255 388.3,797.019 390.507,797.019 392.715,797.019 394.922,797.019 397.129,797.019 399.336,797.019 401.544,797.019 403.751,797.019 405.958,797.019 408.165,797.019 410.373,797.019 412.58,797.019 414.787,737.783 416.994,737.783 419.202,737.783 421.409,737.783 423.616,737.783 425.823,737.783 428.031,737.783 430.238,737.783 432.445,737.783 434.652,737.783 436.86,737.783 439.067,737.783 441.274,737.783 443.481,737.783 445.689,678.547 447.896,678.547 450.103,678.547 452.31,678.547 454.518,678.547 456.725,678.547 458.932,678.547 461.139,678.547 463.347,678.547 465.554,678.547 467.761,678.547 469.968,678.547 472.176,678.547 474.383,678.547 476.59,678.547 478.797,678.547 481.005,678.547 483.212,678.547 485.419,678.547 487.626,678.547 489.834,678.547 492.041,678.547 494.248,678.547 496.455,678.547 498.663,678.547 500.87,678.547 503.077,678.547 505.285,678.547 507.492,678.547 509.699,678.547 511.906,678.547 514.114,678.547 516.321,678.547 518.528,678.547 520.735,678.547 522.943,678.547 525.15,678.547 527.357,678.547 529.564,678.547 531.772,678.547 533.979,678.547 536.186,678.547 538.393,678.547 540.601,678.547 542.808,678.547 545.015,678.547 547.222,678.547 549.43,678.547 551.637,678.547 553.844,678.547 556.051,678.547 558.259,678.547 560.466,678.547 562.673,678.547 564.88,678.547 567.088,678.547 569.295,678.547 571.502,678.547 573.709,678.547 575.917,678.547 578.124,619.31 580.331,619.31 582.538,619.31 584.746,619.31 586.953,619.31 589.16,619.31 591.367,619.31 593.575,619.31 595.782,619.31 597.989,619.31 600.196,619.31 602.404,619.31 604.611,619.31 606.818,619.31 609.025,619.31 611.233,619.31 613.44,560.074 615.647,560.074 617.854,560.074 620.062,560.074 622.269,560.074 624.476,560.074 626.683,560.074 628.891,560.074 631.098,560.074 633.305,560.074 635.512,560.074 637.72,560.074 639.927,560.074 642.134,560.074 644.341,560.074 646.549,560.074 648.756,560.074 650.963,560.074 653.171,560.074 655.378,560.074 657.585,560.074 659.792,560.074 662,560.074 664.207,560.074 666.414,560.074 668.621,560.074 670.829,560.074 673.036,560.074 675.243,560.074 677.45,560.074 679.658,560.074 681.865,560.074 684.072,560.074 686.279,560.074 688.487,560.074 690.694,560.074 692.901,560.074 695.108,560.074 697.316,560.074 699.523,560.074 701.73,560.074 703.937,560.074 706.145,560.074 708.352,560.074 710.559,560.074 712.766,560.074 714.974,560.074 717.181,560.074 719.388,560.074 721.595,560.074 723.803,560.074 726.01,560.074 728.217,560.074 730.424,560.074 732.632,560.074 734.839,560.074 737.046,560.074 739.253,560.074 741.461,560.074 743.668,560.074 745.875,560.074 748.082,560.074 750.29,560.074 752.497,560.074 754.704,560.074 756.911,560.074 759.119,560.074 761.326,560.074 763.533,560.074 765.74,560.074 767.948,560.074 770.155,560.074 772.362,560.074 774.569,560.074 776.777,560.074 778.984,560.074 781.191,560.074 783.398,500.838 785.606,500.838 787.813,500.838 790.02,500.838 792.227,500.838 794.435,500.838 796.642,500.838 798.849,500.838 801.057,500.838 803.264,500.838 805.471,500.838 807.678,500.838 809.886,500.838 812.093,500.838 814.3,500.838 816.507,500.838 818.715,500.838 820.922,500.838 823.129,500.838 825.336,500.838 827.544,500.838 829.751,500.838 831.958,500.838 834.165,500.838 836.373,500.838 838.58,500.838 840.787,500.838 842.994,500.838 845.202,500.838 847.409,500.838 849.616,500.838 851.823,500.838 854.031,500.838 856.238,500.838 858.445,500.838 860.652,500.838 862.86,500.838 865.067,500.838 867.274,500.838 869.481,500.838 871.689,500.838 873.896,500.838 876.103,500.838 878.31,500.838 880.518,500.838 882.725,500.838 884.932,500.838 887.139,500.838 889.347,500.838 891.554,500.838 893.761,500.838 895.968,500.838 898.176,500.838 900.383,500.838 902.59,500.838 904.797,500.838 907.005,500.838 909.212,500.838 911.419,500.838 913.626,500.838 915.834,500.838 918.041,500.838 920.248,500.838 922.455,500.838 924.663,500.838 926.87,500.838 929.077,500.838 931.284,500.838 933.492,500.838 935.699,500.838 937.906,500.838 940.113,500.838 942.321,500.838 944.528,500.838 946.735,500.838 948.943,500.838 951.15,500.838 953.357,500.838 955.564,500.838 957.772,500.838 959.979,500.838 962.186,500.838 964.393,500.838 966.601,500.838 968.808,500.838 971.015,500.838 973.222,500.838 975.43,500.838 977.637,500.838 979.844,500.838 982.051,500.838 984.259,500.838 986.466,500.838 988.673,500.838 990.88,500.838 993.088,500.838 995.295,500.838 997.502,500.838 999.709,500.838 1001.92,500.838 1004.12,500.838 1006.33,500.838 1008.54,500.838 1010.75,500.838 1012.95,500.838 1015.16,500.838 1017.37,500.838 1019.57,500.838 1021.78,500.838 1023.99,500.838 1026.2,500.838 1028.4,500.838 1030.61,500.838 1032.82,500.838 1035.03,500.838 1037.23,500.838 1039.44,500.838 1041.65,500.838 1043.85,500.838 1046.06,500.838 1048.27,500.838 1050.48,500.838 1052.68,500.838 1054.89,500.838 1057.1,500.838 1059.31,500.838 1061.51,500.838 1063.72,500.838 1065.93,500.838 1068.13,500.838 1070.34,500.838 1072.55,500.838 1074.76,500.838 1076.96,500.838 1079.17,500.838 1081.38,500.838 1083.58,500.838 1085.79,500.838 1088,500.838 1090.21,500.838 1092.41,500.838 1094.62,500.838 1096.83,500.838 1099.04,500.838 1101.24,500.838 1103.45,500.838 1105.66,500.838 1107.86,500.838 1110.07,500.838 1112.28,500.838 1114.49,500.838 1116.69,500.838 1118.9,500.838 1121.11,500.838 1123.32,500.838 1125.52,500.838 1127.73,500.838 1129.94,500.838 1132.14,500.838 1134.35,500.838 1136.56,500.838 1138.77,500.838 1140.97,500.838 1143.18,500.838 1145.39,500.838 1147.6,500.838 1149.8,500.838 1152.01,500.838 1154.22,500.838 1156.42,500.838 1158.63,500.838 1160.84,500.838 1163.05,500.838 1165.25,500.838 1167.46,500.838 1169.67,500.838 1171.88,500.838 1174.08,500.838 1176.29,500.838 1178.5,500.838 1180.7,500.838 1182.91,500.838 1185.12,500.838 1187.33,500.838 1189.53,500.838 1191.74,500.838 1193.95,500.838 1196.15,500.838 1198.36,500.838 1200.57,500.838 1202.78,500.838 1204.98,500.838 1207.19,500.838 1209.4,500.838 1211.61,500.838 1213.81,500.838 1216.02,500.838 1218.23,500.838 1220.43,500.838 1222.64,500.838 1224.85,500.838 1227.06,500.838 1229.26,500.838 1231.47,500.838 1233.68,500.838 1235.89,500.838 1238.09,500.838 1240.3,500.838 1242.51,500.838 1244.71,500.838 1246.92,500.838 1249.13,500.838 1251.34,500.838 1253.54,500.838 1255.75,500.838 1257.96,500.838 1260.17,500.838 1262.37,500.838 1264.58,500.838 1266.79,500.838 1268.99,500.838 1271.2,500.838 1273.41,500.838 1275.62,500.838 1277.82,500.838 1280.03,500.838 1282.24,500.838 1284.45,500.838 1286.65,500.838 1288.86,500.838 1291.07,500.838 1293.27,500.838 1295.48,500.838 1297.69,500.838 1299.9,500.838 1302.1,500.838 1304.31,500.838 1306.52,500.838 1308.72,500.838 1310.93,500.838 1313.14,500.838 1315.35,500.838 1317.55,500.838 1319.76,500.838 1321.97,500.838 1324.18,500.838 1326.38,500.838 1328.59,500.838 1330.8,500.838 1333,500.838 1335.21,500.838 1337.42,500.838 1339.63,500.838 1341.83,500.838 1344.04,500.838 1346.25,500.838 1348.46,500.838 1350.66,500.838 1352.87,500.838 1355.08,500.838 1357.28,500.838 1359.49,500.838 1361.7,500.838 1363.91,500.838 1366.11,500.838 1368.32,500.838 1370.53,500.838 1372.74,500.838 1374.94,500.838 1377.15,500.838 1379.36,500.838 1381.56,500.838 1383.77,500.838 1385.98,500.838 1388.19,500.838 1390.39,500.838 1392.6,500.838 1394.81,500.838 1397.02,500.838 1399.22,500.838 1401.43,500.838 1403.64,500.838 1405.84,500.838 1408.05,500.838 1410.26,500.838 1412.47,500.838 1414.67,500.838 1416.88,500.838 1419.09,500.838 1421.29,500.838 1423.5,500.838 1425.71,500.838 1427.92,500.838 1430.12,500.838 1432.33,500.838 1434.54,500.838 1436.75,500.838 1438.95,500.838 1441.16,500.838 1443.37,500.838 1445.57,500.838 1447.78,500.838 1449.99,500.838 1452.2,500.838 1454.4,500.838 1456.61,500.838 1458.82,500.838 1461.03,500.838 1463.23,500.838 1465.44,500.838 1467.65,500.838 1469.85,500.838 1472.06,500.838 1474.27,500.838 1476.48,500.838 1478.68,500.838 1480.89,500.838 1483.1,500.838 1485.31,500.838 1487.51,500.838 1489.72,500.838 1491.93,500.838 1494.13,500.838 1496.34,500.838 1498.55,500.838 1500.76,500.838 1502.96,500.838 1505.17,500.838 1507.38,500.838 1509.58,500.838 1511.79,500.838 1514,500.838 1516.21,500.838 1518.41,500.838 1520.62,500.838 1522.83,500.838 1525.04,500.838 1527.24,500.838 1529.45,500.838 1531.66,500.838 1533.86,500.838 1536.07,500.838 1538.28,500.838 1540.49,500.838 1542.69,500.838 1544.9,500.838 1547.11,500.838 1549.32,500.838 1551.52,500.838 1553.73,441.602 1555.94,441.602 1558.14,441.602 1560.35,441.602 1562.56,441.602 1564.77,441.602 1566.97,441.602 1569.18,441.602 1571.39,441.602 1573.6,441.602 1575.8,441.602 1578.01,441.602 1580.22,441.602 1582.42,441.602 1584.63,441.602 1586.84,441.602 1589.05,441.602 1591.25,441.602 1593.46,441.602 1595.67,441.602 1597.88,441.602 1600.08,441.602 1602.29,441.602 1604.5,441.602 1606.7,441.602 1608.91,441.602 1611.12,441.602 1613.33,441.602 1615.53,441.602 1617.74,441.602 1619.95,441.602 1622.15,441.602 1624.36,441.602 1626.57,441.602 1628.78,441.602 1630.98,441.602 1633.19,441.602 1635.4,441.602 1637.61,441.602 1639.81,441.602 1642.02,441.602 1644.23,441.602 1646.43,441.602 1648.64,441.602 1650.85,441.602 1653.06,441.602 1655.26,441.602 1657.47,441.602 1659.68,441.602 1661.89,441.602 1664.09,441.602 1666.3,441.602 1668.51,441.602 1670.71,441.602 1672.92,441.602 1675.13,441.602 1677.34,441.602 1679.54,441.602 1681.75,441.602 1683.96,441.602 1686.17,441.602 1688.37,441.602 1690.58,441.602 1692.79,441.602 1694.99,441.602 1697.2,441.602 1699.41,441.602 1701.62,441.602 1703.82,441.602 1706.03,441.602 1708.24,441.602 1710.45,441.602 1712.65,441.602 1714.86,441.602 1717.07,441.602 1719.27,441.602 1721.48,441.602 1723.69,441.602 1725.9,441.602 1728.1,441.602 1730.31,441.602 1732.52,441.602 1734.72,441.602 1736.93,441.602 1739.14,441.602 1741.35,441.602 1743.55,441.602 1745.76,441.602 1747.97,441.602 1750.18,441.602 1752.38,441.602 1754.59,441.602 1756.8,441.602 1759,441.602 1761.21,441.602 1763.42,441.602 1765.63,441.602 1767.83,441.602 1770.04,441.602 1772.25,441.602 1774.46,441.602 1776.66,441.602 1778.87,441.602 1781.08,441.602 1783.28,441.602 1785.49,441.602 1787.7,441.602 1789.91,441.602 1792.11,441.602 1794.32,441.602 1796.53,441.602 1798.74,441.602 1800.94,441.602 1803.15,441.602 1805.36,441.602 1807.56,441.602 1809.77,441.602 1811.98,441.602 1814.19,441.602 1816.39,441.602 1818.6,441.602 1820.81,441.602 1823.02,441.602 1825.22,441.602 1827.43,441.602 1829.64,441.602 1831.84,441.602 1834.05,441.602 1836.26,441.602 1838.47,441.602 1840.67,441.602 1842.88,441.602 1845.09,441.602 1847.29,441.602 1849.5,441.602 1851.71,441.602 1853.92,441.602 1856.12,441.602 1858.33,441.602 1860.54,441.602 1862.75,441.602 1864.95,441.602 1867.16,441.602 1869.37,441.602 1871.57,441.602 1873.78,441.602 1875.99,441.602 1878.2,441.602 1880.4,441.602 1882.61,441.602 1884.82,382.366 1887.03,382.366 1889.23,382.366 1891.44,382.366 1893.65,382.366 1895.85,382.366 1898.06,382.366 1900.27,382.366 1902.48,382.366 1904.68,382.366 1906.89,382.366 1909.1,382.366 1911.31,382.366 1913.51,382.366 1915.72,382.366 1917.93,382.366 1920.13,382.366 1922.34,382.366 1924.55,382.366 1926.76,382.366 1928.96,382.366 1931.17,382.366 1933.38,382.366 1935.58,382.366 1937.79,382.366 1940,382.366 1942.21,382.366 1944.41,382.366 1946.62,382.366 1948.83,382.366 1951.04,382.366 1953.24,382.366 1955.45,382.366 1957.66,382.366 1959.86,382.366 1962.07,382.366 1964.28,382.366 1966.49,382.366 1968.69,382.366 1970.9,382.366 1973.11,382.366 1975.32,382.366 1977.52,382.366 1979.73,382.366 1981.94,382.366 1984.14,382.366 1986.35,382.366 1988.56,382.366 1990.77,382.366 1992.97,382.366 1995.18,382.366 1997.39,382.366 1999.6,323.13 2001.8,323.13 2004.01,323.13 2006.22,323.13 2008.42,323.13 2010.63,323.13 2012.84,323.13 2015.05,323.13 2017.25,323.13 2019.46,323.13 2021.67,323.13 2023.88,323.13 2026.08,323.13 2028.29,323.13 2030.5,323.13 2032.7,323.13 2034.91,323.13 2037.12,323.13 2039.33,323.13 2041.53,323.13 2043.74,323.13 2045.95,323.13 2048.15,323.13 2050.36,323.13 2052.57,323.13 2054.78,323.13 2056.98,323.13 2059.19,323.13 2061.4,323.13 2063.61,323.13 2065.81,323.13 2068.02,323.13 2070.23,323.13 2072.43,323.13 2074.64,323.13 2076.85,323.13 2079.06,323.13 2081.26,323.13 2083.47,323.13 2085.68,323.13 2087.89,323.13 2090.09,323.13 2092.3,323.13 2094.51,323.13 2096.71,323.13 2098.92,323.13 2101.13,323.13 2103.34,323.13 2105.54,323.13 2107.75,323.13 2109.96,323.13 2112.17,323.13 2114.37,323.13 2116.58,323.13 2118.79,323.13 2120.99,323.13 2123.2,323.13 2125.41,323.13 2127.62,323.13 2129.82,323.13 2132.03,323.13 2134.24,323.13 2136.45,323.13 2138.65,323.13 2140.86,323.13 2143.07,323.13 2145.27,323.13 2147.48,323.13 2149.69,323.13 2151.9,323.13 2154.1,323.13 2156.31,323.13 2158.52,323.13 2160.72,323.13 2162.93,323.13 2165.14,323.13 2167.35,323.13 2169.55,323.13 2171.76,323.13 2173.97,323.13 2176.18,323.13 2178.38,323.13 2180.59,323.13 2182.8,323.13 2185,323.13 2187.21,323.13 2189.42,323.13 2191.63,323.13 2193.83,323.13 2196.04,323.13 2198.25,323.13 2200.46,323.13 2202.66,323.13 2204.87,323.13 2207.08,323.13 2209.28,323.13 2211.49,323.13 2213.7,323.13 2215.91,323.13 2218.11,323.13 2220.32,323.13 2222.53,323.13 2224.74,323.13 2226.94,323.13 2229.15,323.13 2231.36,323.13 2233.56,323.13 2235.77,323.13 2237.98,263.894 2240.19,263.894 2242.39,263.894 2244.6,263.894 2246.81,263.894 2249.01,263.894 2251.22,263.894 2253.43,263.894 2255.64,263.894 2257.84,204.658 2260.05,204.658 2262.26,204.658 2264.47,204.658 2266.67,204.658 2268.88,204.658 2271.09,204.658 2273.29,204.658 2275.5,204.658 2277.71,204.658 2279.92,204.658 2282.12,204.658 2284.33,204.658 2286.54,204.658 2288.75,204.658 2290.95,204.658 2293.16,204.658 2295.37,204.658 2297.57,204.658 2299.78,204.658 2301.99,204.658 2304.2,204.658 2306.4,204.658 2308.61,204.658 2310.82,204.658 2313.03,204.658 2315.23,204.658 2317.44,204.658 2319.65,204.658 2321.85,204.658 2324.06,145.422 2326.27,145.422 2328.48,145.422 2330.68,145.422 2332.89,145.422 2335.1,145.422 2337.31,145.422 2339.51,145.422 2341.72,145.422 2343.93,145.422 2346.13,145.422 2348.34,145.422 2350.55,145.422 2352.76,86.1857 "/>
<polyline clip-path="url(#clip872)" style="stroke:#3da44d; stroke-linecap:round; stroke-linejoin:round; stroke-width:8; stroke-opacity:1; fill:none" points="147.709,1063.58 149.917,1062.38 152.124,1061.17 154.331,1059.94 156.538,1058.69 158.746,1057.42 160.953,1056.13 163.16,1054.82 165.367,1053.5 167.575,1052.15 169.782,1050.79 171.989,1049.41 174.196,1048.01 176.404,1046.59 178.611,1045.16 180.818,1043.7 183.025,1042.23 185.233,1040.74 187.44,1039.23 189.647,1037.71 191.854,1036.16 194.062,1034.6 196.269,1033.02 198.476,1031.43 200.683,1029.81 202.891,1028.18 205.098,1026.53 207.305,1024.86 209.512,1023.18 211.72,1021.48 213.927,1019.77 216.134,1018.03 218.342,1016.28 220.549,1014.52 222.756,1012.74 224.963,1010.94 227.171,1009.12 229.378,1007.29 231.585,1005.45 233.792,1003.59 236,1001.71 238.207,999.821 240.414,997.915 242.621,995.994 244.829,994.059 247.036,992.109 249.243,990.145 251.45,988.167 253.658,986.176 255.865,984.171 258.072,982.152 260.279,980.12 262.487,978.076 264.694,976.018 266.901,1006.58 269.108,1004.5 271.316,1002.4 273.523,1000.3 275.73,998.179 277.937,996.05 280.145,993.909 282.352,991.758 284.559,989.596 286.766,987.423 288.974,985.24 291.181,983.048 293.388,980.845 295.595,978.633 297.803,976.412 300.01,1013.49 302.217,1011.25 304.424,1009 306.632,1006.75 308.839,1004.48 311.046,1002.21 313.253,999.934 315.461,997.648 317.668,995.356 319.875,993.057 322.082,990.751 324.29,988.44 326.497,986.123 328.704,983.8 330.911,981.473 333.119,979.14 335.326,976.803 337.533,986.663 339.74,984.317 341.948,981.968 344.155,979.615 346.362,977.259 348.569,974.9 350.777,1039.12 352.984,1036.76 355.191,1034.39 357.399,1032.02 359.606,1029.65 361.813,1027.28 364.02,1024.91 366.228,1022.54 368.435,1020.17 370.642,1017.8 372.849,1015.42 375.057,1013.05 377.264,1010.68 379.471,1008.32 381.678,1005.95 383.886,1003.58 386.093,1001.22 388.3,998.857 390.507,996.499 392.715,994.143 394.922,991.791 397.129,989.442 399.336,987.098 401.544,984.757 403.751,982.421 405.958,980.089 408.165,977.762 410.373,975.441 412.58,1038.48 414.787,1036.17 416.994,1033.86 419.202,1031.57 421.409,1029.28 423.616,1026.99 425.823,1024.71 428.031,1022.44 430.238,1020.18 432.445,1017.93 434.652,1015.68 436.86,1013.45 439.067,1011.22 441.274,1009 443.481,1006.79 445.689,1004.59 447.896,1002.39 450.103,1000.21 452.31,998.044 454.518,995.884 456.725,993.734 458.932,991.596 461.139,989.469 463.347,987.354 465.554,985.25 467.761,983.158 469.968,981.078 472.176,979.011 474.383,976.956 476.59,974.914 478.797,975.372 481.005,1041.37 483.212,1039.36 485.419,1037.38 487.626,1035.4 489.834,1033.44 492.041,1031.49 494.248,1029.56 496.455,1027.64 498.663,1025.74 500.87,1023.85 503.077,1021.98 505.285,1020.12 507.492,1018.28 509.699,1016.45 511.906,1014.64 514.114,1012.85 516.321,1011.07 518.528,1009.3 520.735,1007.56 522.943,1005.83 525.15,1004.12 527.357,1002.42 529.564,1000.74 531.772,999.077 533.979,997.432 536.186,995.804 538.393,994.193 540.601,992.6 542.808,991.024 545.015,989.466 547.222,987.926 549.43,986.404 551.637,984.899 553.844,983.413 556.051,981.944 558.259,980.494 560.466,979.062 562.673,977.648 564.88,976.252 567.088,974.875 569.295,1384.24 571.502,1382.9 573.709,1381.58 575.917,1380.27 578.124,1378.99 580.331,1377.72 582.538,1376.48 584.746,1375.25 586.953,1374.04 589.16,1372.84 591.367,1371.67 593.575,1370.52 595.782,1369.38 597.989,1368.27 600.196,1367.17 602.404,1366.09 604.611,1365.03 606.818,1363.98 609.025,1362.96 611.233,1361.95 613.44,1360.97 615.647,1360 617.854,1359.05 620.062,1358.11 622.269,1357.2 624.476,1356.3 626.683,1355.43 628.891,1354.57 631.098,1353.72 633.305,1352.9 635.512,1352.09 637.72,1351.3 639.927,1350.53 642.134,1349.78 644.341,1349.04 646.549,1348.32 648.756,1347.62 650.963,1346.93 653.171,1346.26 655.378,1345.61 657.585,1344.98 659.792,1344.36 662,1343.76 664.207,1343.17 666.414,1342.6 668.621,1342.04 670.829,1341.5 673.036,1340.98 675.243,1340.47 677.45,1339.98 679.658,1339.5 681.865,1339.04 684.072,1338.59 686.279,1338.16 688.487,1337.74 690.694,1337.33 692.901,1336.94 695.108,1336.56 697.316,1336.2 699.523,1335.85 701.73,1335.51 703.937,1335.19 706.145,1334.88 708.352,1334.58 710.559,1334.29 712.766,1334.01 714.974,1333.75 717.181,1333.5 719.388,1333.26 721.595,1333.03 723.803,1332.81 726.01,1332.6 728.217,1332.41 730.424,1332.22 732.632,1332.04 734.839,1331.88 737.046,1331.72 739.253,1331.57 741.461,1331.43 743.668,1331.3 745.875,1331.17 748.082,1331.06 750.29,1330.95 752.497,1330.85 754.704,1330.76 756.911,1330.68 759.119,1330.6 761.326,1330.53 763.533,1330.46 765.74,1330.4 767.948,1330.35 770.155,1330.3 772.362,1330.26 774.569,1330.22 776.777,1330.19 778.984,1330.16 781.191,1330.13 783.398,1330.12 785.606,1330.1 787.813,1330.08 790.02,1330.07 792.227,1330.06 794.435,1330.05 796.642,1330.05 798.849,1330.05 801.057,1330.04 803.264,1330.04 805.471,1330.04 807.678,1330.04 809.886,1330.04 812.093,1330.04 814.3,1330.04 816.507,1330.04 818.715,1330.04 820.922,1330.04 823.129,1330.03 825.336,1330.03 827.544,1330.02 829.751,1330.01 831.958,1329.99 834.165,1329.97 836.373,1329.95 838.58,1329.93 840.787,1329.9 842.994,1329.87 845.202,1329.83 847.409,1329.79 849.616,1329.74 851.823,1329.69 854.031,1329.63 856.238,1329.57 858.445,1329.5 860.652,1329.42 862.86,1329.34 865.067,1329.25 867.274,1329.15 869.481,1329.05 871.689,1328.94 873.896,1328.82 876.103,1328.69 878.31,1328.55 880.518,1328.41 882.725,1328.25 884.932,1328.09 887.139,1327.91 889.347,1327.73 891.554,1327.54 893.761,1327.34 895.968,1327.12 898.176,1326.9 900.383,1326.66 902.59,1326.41 904.797,1326.16 907.005,1325.89 909.212,1325.6 911.419,1325.31 913.626,1325 915.834,1324.68 918.041,1324.35 920.248,1324.01 922.455,1323.65 924.663,1323.28 926.87,1322.89 929.077,1322.49 931.284,1322.08 933.492,1321.65 935.699,1321.21 937.906,1320.75 940.113,1320.28 942.321,1319.79 944.528,1319.29 946.735,1318.78 948.943,1318.24 951.15,1317.7 953.357,1317.13 955.564,1316.55 957.772,1315.96 959.979,1315.34 962.186,1314.72 964.393,1314.07 966.601,1313.41 968.808,1312.73 971.015,1312.03 973.222,1311.32 975.43,1310.59 977.637,1309.85 979.844,1309.08 982.051,1308.3 984.259,1307.5 986.466,1306.68 988.673,1305.85 990.88,1305 993.088,1304.12 995.295,1303.24 997.502,1302.33 999.709,1301.4 1001.92,1300.46 1004.12,1299.5 1006.33,1298.52 1008.54,1297.52 1010.75,1296.5 1012.95,1295.47 1015.16,1294.41 1017.37,1293.34 1019.57,1292.25 1021.78,1291.14 1023.99,1290.01 1026.2,1288.87 1028.4,1287.7 1030.61,1286.52 1032.82,1285.31 1035.03,1284.09 1037.23,1282.85 1039.44,1281.59 1041.65,1280.32 1043.85,1279.02 1046.06,1277.71 1048.27,1276.37 1050.48,1275.02 1052.68,1273.65 1054.89,1272.27 1057.1,1270.86 1059.31,1269.43 1061.51,1267.99 1063.72,1266.53 1065.93,1265.05 1068.13,1263.55 1070.34,1262.04 1072.55,1260.5 1074.76,1258.95 1076.96,1257.38 1079.17,1255.8 1081.38,1254.19 1083.58,1252.57 1085.79,1250.93 1088,1249.28 1090.21,1247.6 1092.41,1245.91 1094.62,1244.21 1096.83,1242.48 1099.04,1240.74 1101.24,1238.99 1103.45,1237.22 1105.66,1235.43 1107.86,1233.62 1110.07,1231.8 1112.28,1229.97 1114.49,1228.11 1116.69,1226.25 1118.9,1224.36 1121.11,1222.47 1123.32,1220.56 1125.52,1218.63 1127.73,1216.69 1129.94,1214.73 1132.14,1212.76 1134.35,1210.77 1136.56,1208.77 1138.77,1206.76 1140.97,1204.73 1143.18,1202.69 1145.39,1200.64 1147.6,1198.57 1149.8,1196.49 1152.01,1194.4 1154.22,1192.29 1156.42,1190.18 1158.63,1188.05 1160.84,1185.91 1163.05,1183.76 1165.25,1181.6 1167.46,1179.43 1169.67,1177.25 1171.88,1175.06 1174.08,1172.86 1176.29,1170.65 1178.5,1168.43 1180.7,1166.21 1182.91,1163.97 1185.12,1161.73 1187.33,1159.48 1189.53,1157.22 1191.74,1154.95 1193.95,1152.67 1196.15,1150.39 1198.36,1148.1 1200.57,1145.81 1202.78,1143.51 1204.98,1141.2 1207.19,1138.89 1209.4,1136.57 1211.61,1134.25 1213.81,1131.93 1216.02,1129.59 1218.23,1127.26 1220.43,1124.92 1222.64,1122.58 1224.85,1120.23 1227.06,1117.88 1229.26,1115.53 1231.47,1113.17 1233.68,1110.81 1235.89,1108.45 1238.09,1106.09 1240.3,1103.73 1242.51,1101.37 1244.71,1099 1246.92,1096.63 1249.13,1094.27 1251.34,1091.9 1253.54,1089.54 1255.75,1087.17 1257.96,1084.8 1260.17,1082.44 1262.37,1080.08 1264.58,1077.72 1266.79,1075.36 1268.99,1073 1271.2,1070.64 1273.41,1068.29 1275.62,1065.94 1277.82,1063.59 1280.03,1061.25 1282.24,1058.91 1284.45,1056.57 1286.65,1054.24 1288.86,1051.91 1291.07,1049.59 1293.27,1047.27 1295.48,1044.96 1297.69,1042.66 1299.9,1040.35 1302.1,1038.06 1304.31,1035.77 1306.52,1033.49 1308.72,1031.22 1310.93,1028.95 1313.14,1026.69 1315.35,1024.44 1317.55,1022.19 1319.76,1019.96 1321.97,1017.73 1324.18,1015.51 1326.38,1013.3 1328.59,1011.1 1330.8,1008.91 1333,1006.73 1335.21,1004.56 1337.42,1002.4 1339.63,1000.25 1341.83,998.116 1344.04,995.989 1346.25,993.875 1348.46,991.772 1350.66,989.682 1352.87,987.604 1355.08,985.538 1357.28,983.486 1359.49,981.447 1361.7,979.421 1363.91,977.41 1366.11,975.412 1368.32,1115.03 1370.53,1113.06 1372.74,1111.1 1374.94,1109.16 1377.15,1107.23 1379.36,1105.32 1381.56,1103.42 1383.77,1101.54 1385.98,1099.67 1388.19,1097.82 1390.39,1095.99 1392.6,1094.16 1394.81,1092.36 1397.02,1090.57 1399.22,1088.8 1401.43,1087.04 1403.64,1085.3 1405.84,1083.58 1408.05,1081.87 1410.26,1080.18 1412.47,1078.51 1414.67,1076.85 1416.88,1075.21 1419.09,1073.59 1421.29,1071.99 1423.5,1070.4 1425.71,1068.83 1427.92,1067.28 1430.12,1065.75 1432.33,1064.23 1434.54,1062.74 1436.75,1061.26 1438.95,1059.8 1441.16,1058.35 1443.37,1056.93 1445.57,1055.52 1447.78,1054.13 1449.99,1052.76 1452.2,1051.41 1454.4,1050.08 1456.61,1048.77 1458.82,1047.47 1461.03,1046.19 1463.23,1044.94 1465.44,1043.7 1467.65,1042.47 1469.85,1041.27 1472.06,1040.09 1474.27,1038.92 1476.48,1037.78 1478.68,1036.65 1480.89,1035.54 1483.1,1034.45 1485.31,1033.38 1487.51,1032.32 1489.72,1031.29 1491.93,1030.27 1494.13,1029.27 1496.34,1028.29 1498.55,1027.33 1500.76,1026.39 1502.96,1025.46 1505.17,1024.56 1507.38,1023.67 1509.58,1022.8 1511.79,1021.94 1514,1021.11 1516.21,1020.29 1518.41,1019.49 1520.62,1018.71 1522.83,1017.95 1525.04,1017.2 1527.24,1016.47 1529.45,1015.76 1531.66,1015.06 1533.86,1014.38 1536.07,1013.72 1538.28,1013.07 1540.49,1012.45 1542.69,1011.83 1544.9,1011.24 1547.11,1010.66 1549.32,1010.09 1551.52,1009.54 1553.73,1008.97 1555.94,1008.45 1558.14,1007.95 1560.35,1007.46 1562.56,1006.99 1564.77,1006.54 1566.97,1006.1 1569.18,1005.68 1571.39,1005.27 1573.6,1004.88 1575.8,1004.49 1578.01,1004.13 1580.22,1003.77 1582.42,1003.44 1584.63,1003.11 1586.84,1002.79 1589.05,1002.49 1591.25,1002.2 1593.46,1001.93 1595.67,1001.66 1597.88,1001.41 1600.08,1001.17 1602.29,1000.93 1604.5,1000.71 1606.7,1000.5 1608.91,1000.3 1611.12,1000.11 1613.33,999.934 1615.53,999.763 1617.74,999.601 1619.95,999.448 1622.15,999.304 1624.36,999.169 1626.57,999.041 1628.78,998.922 1630.98,998.81 1633.19,998.705 1635.4,998.608 1637.61,998.517 1639.81,998.433 1642.02,998.355 1644.23,998.283 1646.43,998.217 1648.64,998.157 1650.85,998.101 1653.06,998.051 1655.26,998.005 1657.47,997.964 1659.68,997.927 1661.89,997.894 1664.09,997.865 1666.3,997.839 1668.51,997.816 1670.71,997.796 1672.92,997.778 1675.13,997.763 1677.34,997.75 1679.54,997.739 1681.75,997.729 1683.96,997.72 1686.17,997.712 1688.37,997.705 1690.58,997.699 1692.79,997.692 1694.99,997.686 1697.2,997.679 1699.41,997.671 1701.62,997.663 1703.82,997.653 1706.03,997.642 1708.24,997.629 1710.45,997.614 1712.65,997.597 1714.86,997.577 1717.07,997.555 1719.27,997.529 1721.48,997.5 1723.69,997.467 1725.9,997.431 1728.1,997.39 1730.31,997.344 1732.52,997.294 1734.72,997.239 1736.93,997.179 1739.14,997.113 1741.35,997.041 1743.55,996.963 1745.76,996.879 1747.97,996.788 1750.18,996.69 1752.38,996.584 1754.59,996.472 1756.8,996.351 1759,996.223 1761.21,996.086 1763.42,995.94 1765.63,995.786 1767.83,995.622 1770.04,995.449 1772.25,995.266 1774.46,995.073 1776.66,994.87 1778.87,994.656 1781.08,994.431 1783.28,994.196 1785.49,993.949 1787.7,993.69 1789.91,993.419 1792.11,993.136 1794.32,992.84 1796.53,992.531 1798.74,992.21 1800.94,991.875 1803.15,991.526 1805.36,991.163 1807.56,990.786 1809.77,990.395 1811.98,989.99 1814.19,989.57 1816.39,989.137 1818.6,988.689 1820.81,988.226 1823.02,987.748 1825.22,987.255 1827.43,986.747 1829.64,986.224 1831.84,985.685 1834.05,985.13 1836.26,984.56 1838.47,983.973 1840.67,983.371 1842.88,982.752 1845.09,982.116 1847.29,981.464 1849.5,980.795 1851.71,980.11 1853.92,979.407 1856.12,978.688 1858.33,977.951 1860.54,977.197 1862.75,976.425 1864.95,975.636 1867.16,974.829 1869.37,977.066 1871.57,976.224 1873.78,975.364 1875.99,1145.87 1878.2,1144.97 1880.4,1144.06 1882.61,1143.13 1884.82,1142.18 1887.03,1141.21 1889.23,1140.22 1891.44,1139.21 1893.65,1138.19 1895.85,1137.15 1898.06,1136.09 1900.27,1135.01 1902.48,1133.91 1904.68,1132.79 1906.89,1131.66 1909.1,1130.5 1911.31,1129.33 1913.51,1128.14 1915.72,1126.93 1917.93,1125.7 1920.13,1124.45 1922.34,1123.18 1924.55,1121.9 1926.76,1120.6 1928.96,1119.27 1931.17,1117.93 1933.38,1116.58 1935.58,1115.2 1937.79,1113.8 1940,1112.39 1942.21,1110.96 1944.41,1109.51 1946.62,1108.04 1948.83,1106.55 1951.04,1105.05 1953.24,1103.53 1955.45,1101.99 1957.66,1100.43 1959.86,1098.85 1962.07,1097.26 1964.28,1095.65 1966.49,1094.02 1968.69,1092.37 1970.9,1090.71 1973.11,1089.03 1975.32,1087.34 1977.52,1085.62 1979.73,1083.89 1981.94,1082.15 1984.14,1080.38 1986.35,1078.61 1988.56,1076.81 1990.77,1075 1992.97,1073.17 1995.18,1071.33 1997.39,1069.47 1999.6,1067.61 2001.8,1065.72 2004.01,1063.82 2006.22,1061.9 2008.42,1059.97 2010.63,1058.02 2012.84,1056.06 2015.05,1054.09 2017.25,1052.1 2019.46,1050.1 2021.67,1048.08 2023.88,1046.05 2026.08,1044.01 2028.29,1041.95 2030.5,1039.89 2032.7,1037.81 2034.91,1035.71 2037.12,1033.61 2039.33,1031.49 2041.53,1029.37 2043.74,1027.23 2045.95,1025.08 2048.15,1022.92 2050.36,1020.75 2052.57,1018.57 2054.78,1016.38 2056.98,1014.18 2059.19,1011.97 2061.4,1009.75 2063.61,1007.52 2065.81,1005.28 2068.02,1003.04 2070.23,1000.78 2072.43,998.522 2074.64,996.253 2076.85,993.976 2079.06,991.691 2081.26,989.4 2083.47,987.102 2085.68,984.798 2087.89,982.488 2090.09,980.172 2092.3,977.851 2094.51,975.524 2096.71,1012.61 2098.92,1010.27 2101.13,1007.93 2103.34,1005.59 2105.54,1003.24 2107.75,1000.89 2109.96,998.531 2112.17,996.172 2114.37,993.811 2116.58,991.448 2118.79,989.083 2120.99,986.715 2123.2,984.347 2125.41,981.977 2127.62,979.606 2129.82,977.234 2132.03,974.863 2134.24,1050.55 2136.45,1048.18 2138.65,1045.81 2140.86,1043.44 2143.07,1041.07 2145.27,1038.7 2147.48,1036.33 2149.69,1033.97 2151.9,1031.61 2154.1,1029.25 2156.31,1026.89 2158.52,1024.54 2160.72,1022.19 2162.93,1019.85 2165.14,1017.5 2167.35,1015.17 2169.55,1012.83 2171.76,1010.51 2173.97,1008.18 2176.18,1005.87 2178.38,1003.56 2180.59,1001.25 2182.8,998.952 2185,996.659 2187.21,994.374 2189.42,992.095 2191.63,989.824 2193.83,987.561 2196.04,985.305 2198.25,983.058 2200.46,980.819 2202.66,978.589 2204.87,976.367 2207.08,1001.49 2209.28,999.286 2211.49,997.094 2213.7,994.911 2215.91,992.738 2218.11,990.576 2220.32,988.425 2222.53,986.284 2224.74,984.155 2226.94,982.037 2229.15,979.931 2231.36,977.836 2233.56,975.754 2235.77,1011.54 2237.98,1009.48 2240.19,1007.43 2242.39,1005.4 2244.6,1003.38 2246.81,1001.38 2249.01,999.388 2251.22,997.41 2253.43,995.446 2255.64,993.497 2257.84,991.56 2260.05,989.64 2262.26,987.734 2264.47,985.843 2266.67,983.967 2268.88,982.106 2271.09,980.261 2273.29,978.431 2275.5,976.617 2277.71,974.819 2279.92,1024.99 2282.12,1023.22 2284.33,1021.47 2286.54,1019.74 2288.75,1018.02 2290.95,1016.33 2293.16,1014.64 2295.37,1012.98 2297.57,1011.33 2299.78,1009.7 2301.99,1008.08 2304.2,1006.49 2306.4,1004.91 2308.61,1003.34 2310.82,1001.8 2313.03,1000.27 2315.23,998.766 2317.44,997.276 2319.65,995.804 2321.85,994.35 2324.06,992.915 2326.27,991.497 2328.48,990.098 2330.68,988.717 2332.89,987.355 2335.1,986.011 2337.31,984.685 2339.51,983.378 2341.72,982.09 2343.93,980.82 2346.13,979.569 2348.34,978.337 2350.55,977.123 2352.76,975.928 "/>
<polyline clip-path="url(#clip872)" style="stroke:#c271d2; stroke-linecap:round; stroke-linejoin:round; stroke-width:8; stroke-opacity:1; fill:none" points="147.709,976.799 149.917,976.799 152.124,976.799 154.331,976.799 156.538,976.799 158.746,976.799 160.953,976.799 163.16,976.799 165.367,976.799 167.575,976.799 169.782,976.799 171.989,976.799 174.196,976.799 176.404,976.799 178.611,976.799 180.818,976.799 183.025,976.799 185.233,976.799 187.44,976.799 189.647,976.799 191.854,976.799 194.062,976.799 196.269,976.799 198.476,976.799 200.683,976.799 202.891,976.799 205.098,976.799 207.305,976.799 209.512,976.799 211.72,976.799 213.927,976.799 216.134,976.799 218.342,976.799 220.549,976.799 222.756,976.799 224.963,976.799 227.171,976.799 229.378,976.799 231.585,976.799 233.792,976.799 236,976.799 238.207,976.799 240.414,976.799 242.621,976.799 244.829,976.799 247.036,976.799 249.243,976.799 251.45,976.799 253.658,976.799 255.865,976.799 258.072,976.799 260.279,976.799 262.487,976.799 264.694,976.799 266.901,976.465 269.108,975.575 271.316,1007.38 273.523,1007.38 275.73,1007.38 277.937,1007.38 280.145,1007.38 282.352,1007.38 284.559,1007.38 286.766,1007.38 288.974,1007.38 291.181,1007.38 293.388,1007.38 295.595,1007.38 297.803,1007.38 300.01,1007.16 302.217,1006.27 304.424,1005.38 306.632,1004.49 308.839,1003.6 311.046,1002.71 313.253,1001.82 315.461,1000.94 317.668,1000.05 319.875,999.156 322.082,998.267 324.29,997.377 326.497,996.488 328.704,995.599 330.911,994.709 333.119,993.82 335.326,992.93 337.533,991.939 339.74,990.161 341.948,988.382 344.155,986.603 346.362,984.824 348.569,983.045 350.777,980.442 352.984,977.774 355.191,975.105 357.399,998.862 359.606,997.083 361.813,995.304 364.02,993.525 366.228,991.747 368.435,989.968 370.642,988.189 372.849,986.41 375.057,984.631 377.264,982.852 379.471,981.073 381.678,979.295 383.886,977.516 386.093,975.737 388.3,986.489 390.507,985.599 392.715,984.71 394.922,983.82 397.129,982.931 399.336,982.041 401.544,981.152 403.751,980.263 405.958,979.373 408.165,978.484 410.373,977.594 412.58,976.089 414.787,986.363 416.994,985.474 419.202,984.584 421.409,983.695 423.616,982.806 425.823,981.916 428.031,981.027 430.238,980.137 432.445,979.248 434.652,978.358 436.86,977.469 439.067,976.58 441.274,975.69 443.481,974.801 445.689,1059.42 447.896,1059.42 450.103,1059.42 452.31,1059.42 454.518,1059.42 456.725,1059.42 458.932,1059.42 461.139,1059.42 463.347,1059.42 465.554,1059.42 467.761,1059.42 469.968,1059.42 472.176,1059.42 474.383,1059.42 476.59,1059.42 478.797,1058.61 481.005,1057.11 483.212,1055.33 485.419,1053.55 487.626,1051.78 489.834,1050 492.041,1048.22 494.248,1046.44 496.455,1044.66 498.663,1042.88 500.87,1041.1 503.077,1039.32 505.285,1037.55 507.492,1035.77 509.699,1033.99 511.906,1032.21 514.114,1030.43 516.321,1028.65 518.528,1026.87 520.735,1025.09 522.943,1023.31 525.15,1021.54 527.357,1019.76 529.564,1017.98 531.772,1016.2 533.979,1014.42 536.186,1012.64 538.393,1010.86 540.601,1009.08 542.808,1007.3 545.015,1005.53 547.222,1003.75 549.43,1001.97 551.637,1000.19 553.844,998.41 556.051,996.631 558.259,994.853 560.466,993.074 562.673,991.295 564.88,989.516 567.088,987.737 569.295,985.165 571.502,982.497 573.709,979.829 575.917,977.16 578.124,1002.76 580.331,1000.98 582.538,999.201 584.746,997.422 586.953,995.643 589.16,993.864 591.367,992.085 593.575,990.306 595.782,988.527 597.989,986.749 600.196,984.97 602.404,983.191 604.611,981.412 606.818,979.633 609.025,977.854 611.233,976.075 613.44,1042.89 615.647,1042 617.854,1041.11 620.062,1040.22 622.269,1039.33 624.476,1038.45 626.683,1037.56 628.891,1036.67 631.098,1035.78 633.305,1034.89 635.512,1034 637.72,1033.11 639.927,1032.22 642.134,1031.33 644.341,1030.44 646.549,1029.55 648.756,1028.66 650.963,1027.77 653.171,1026.88 655.378,1025.99 657.585,1025.1 659.792,1024.21 662,1023.33 664.207,1022.44 666.414,1021.55 668.621,1020.66 670.829,1019.77 673.036,1018.88 675.243,1017.99 677.45,1017.1 679.658,1016.21 681.865,1015.32 684.072,1014.43 686.279,1013.54 688.487,1012.65 690.694,1011.76 692.901,1010.87 695.108,1009.98 697.316,1009.09 699.523,1008.2 701.73,1007.32 703.937,1006.43 706.145,1005.54 708.352,1004.65 710.559,1003.76 712.766,1002.87 714.974,1001.98 717.181,1001.09 719.388,1000.2 721.595,999.31 723.803,998.421 726.01,997.532 728.217,996.642 730.424,995.753 732.632,994.863 734.839,993.974 737.046,993.084 739.253,992.195 741.461,991.306 743.668,990.416 745.875,989.527 748.082,988.637 750.29,987.748 752.497,986.858 754.704,985.969 756.911,985.08 759.119,984.19 761.326,983.301 763.533,982.411 765.74,981.522 767.948,980.632 770.155,979.743 772.362,978.854 774.569,977.964 776.777,977.075 778.984,976.185 781.191,975.296 783.398,1049.96 785.606,1049.96 787.813,1049.96 790.02,1049.96 792.227,1049.96 794.435,1049.96 796.642,1049.96 798.849,1049.96 801.057,1049.96 803.264,1049.96 805.471,1049.96 807.678,1049.96 809.886,1049.96 812.093,1049.96 814.3,1049.96 816.507,1049.96 818.715,1049.96 820.922,1049.96 823.129,1049.96 825.336,1049.96 827.544,1049.96 829.751,1049.96 831.958,1049.96 834.165,1049.96 836.373,1049.96 838.58,1049.96 840.787,1049.96 842.994,1049.96 845.202,1049.96 847.409,1049.96 849.616,1049.96 851.823,1049.96 854.031,1049.96 856.238,1049.96 858.445,1049.96 860.652,1049.96 862.86,1049.96 865.067,1049.96 867.274,1049.96 869.481,1049.96 871.689,1049.96 873.896,1049.96 876.103,1049.96 878.31,1049.96 880.518,1049.96 882.725,1049.96 884.932,1049.96 887.139,1049.96 889.347,1049.96 891.554,1049.96 893.761,1049.96 895.968,1049.96 898.176,1049.96 900.383,1049.96 902.59,1049.96 904.797,1049.96 907.005,1049.96 909.212,1049.96 911.419,1049.96 913.626,1049.96 915.834,1049.96 918.041,1049.96 920.248,1049.96 922.455,1049.96 924.663,1049.96 926.87,1049.96 929.077,1049.96 931.284,1049.96 933.492,1049.96 935.699,1049.96 937.906,1049.96 940.113,1049.96 942.321,1049.96 944.528,1049.96 946.735,1049.96 948.943,1049.96 951.15,1049.96 953.357,1049.96 955.564,1049.96 957.772,1049.96 959.979,1049.96 962.186,1049.96 964.393,1049.96 966.601,1049.96 968.808,1049.96 971.015,1049.96 973.222,1049.96 975.43,1049.96 977.637,1049.96 979.844,1049.96 982.051,1049.96 984.259,1049.96 986.466,1049.96 988.673,1049.96 990.88,1049.96 993.088,1049.96 995.295,1049.96 997.502,1049.96 999.709,1049.96 1001.92,1049.96 1004.12,1049.96 1006.33,1049.96 1008.54,1049.96 1010.75,1049.96 1012.95,1049.96 1015.16,1049.96 1017.37,1049.96 1019.57,1049.96 1021.78,1049.96 1023.99,1049.96 1026.2,1049.96 1028.4,1049.96 1030.61,1049.96 1032.82,1049.96 1035.03,1049.96 1037.23,1049.96 1039.44,1049.96 1041.65,1049.96 1043.85,1049.96 1046.06,1049.96 1048.27,1049.96 1050.48,1049.96 1052.68,1049.96 1054.89,1049.96 1057.1,1049.96 1059.31,1049.96 1061.51,1049.96 1063.72,1049.96 1065.93,1049.96 1068.13,1049.96 1070.34,1049.96 1072.55,1049.96 1074.76,1049.96 1076.96,1049.96 1079.17,1049.96 1081.38,1049.96 1083.58,1049.96 1085.79,1049.96 1088,1049.96 1090.21,1049.96 1092.41,1049.96 1094.62,1049.96 1096.83,1049.96 1099.04,1049.96 1101.24,1049.96 1103.45,1049.96 1105.66,1049.96 1107.86,1049.96 1110.07,1049.96 1112.28,1049.96 1114.49,1049.96 1116.69,1049.96 1118.9,1049.96 1121.11,1049.96 1123.32,1049.96 1125.52,1049.96 1127.73,1049.96 1129.94,1049.96 1132.14,1049.96 1134.35,1049.96 1136.56,1049.96 1138.77,1049.96 1140.97,1049.96 1143.18,1049.96 1145.39,1049.96 1147.6,1049.96 1149.8,1049.96 1152.01,1049.96 1154.22,1049.96 1156.42,1049.96 1158.63,1049.96 1160.84,1049.96 1163.05,1049.96 1165.25,1049.96 1167.46,1049.96 1169.67,1049.96 1171.88,1049.96 1174.08,1049.96 1176.29,1049.96 1178.5,1049.96 1180.7,1049.96 1182.91,1049.96 1185.12,1049.96 1187.33,1049.96 1189.53,1049.96 1191.74,1049.96 1193.95,1049.96 1196.15,1049.96 1198.36,1049.96 1200.57,1049.96 1202.78,1049.96 1204.98,1049.96 1207.19,1049.96 1209.4,1049.96 1211.61,1049.96 1213.81,1049.96 1216.02,1049.96 1218.23,1049.96 1220.43,1049.96 1222.64,1049.96 1224.85,1049.96 1227.06,1049.96 1229.26,1049.96 1231.47,1049.96 1233.68,1049.96 1235.89,1049.96 1238.09,1049.96 1240.3,1049.96 1242.51,1049.96 1244.71,1049.96 1246.92,1049.96 1249.13,1049.96 1251.34,1049.96 1253.54,1049.96 1255.75,1049.96 1257.96,1049.96 1260.17,1049.96 1262.37,1049.96 1264.58,1049.96 1266.79,1049.96 1268.99,1049.96 1271.2,1049.96 1273.41,1049.96 1275.62,1049.96 1277.82,1049.96 1280.03,1049.96 1282.24,1049.96 1284.45,1049.96 1286.65,1049.96 1288.86,1049.96 1291.07,1049.96 1293.27,1049.96 1295.48,1049.96 1297.69,1049.96 1299.9,1049.96 1302.1,1049.96 1304.31,1049.96 1306.52,1049.96 1308.72,1049.96 1310.93,1049.96 1313.14,1049.96 1315.35,1049.96 1317.55,1049.96 1319.76,1049.96 1321.97,1049.96 1324.18,1049.96 1326.38,1049.96 1328.59,1049.96 1330.8,1049.96 1333,1049.96 1335.21,1049.96 1337.42,1049.96 1339.63,1049.96 1341.83,1049.96 1344.04,1049.96 1346.25,1049.96 1348.46,1049.96 1350.66,1049.96 1352.87,1049.96 1355.08,1049.96 1357.28,1049.96 1359.49,1049.96 1361.7,1049.96 1363.91,1049.96 1366.11,1049.96 1368.32,1049.38 1370.53,1048.49 1372.74,1047.6 1374.94,1046.71 1377.15,1045.82 1379.36,1044.93 1381.56,1044.04 1383.77,1043.15 1385.98,1042.26 1388.19,1041.37 1390.39,1040.48 1392.6,1039.59 1394.81,1038.7 1397.02,1037.82 1399.22,1036.93 1401.43,1036.04 1403.64,1035.15 1405.84,1034.26 1408.05,1033.37 1410.26,1032.48 1412.47,1031.59 1414.67,1030.7 1416.88,1029.81 1419.09,1028.92 1421.29,1028.03 1423.5,1027.14 1425.71,1026.25 1427.92,1025.36 1430.12,1024.47 1432.33,1023.58 1434.54,1022.69 1436.75,1021.81 1438.95,1020.92 1441.16,1020.03 1443.37,1019.14 1445.57,1018.25 1447.78,1017.36 1449.99,1016.47 1452.2,1015.58 1454.4,1014.69 1456.61,1013.8 1458.82,1012.91 1461.03,1012.02 1463.23,1011.13 1465.44,1010.24 1467.65,1009.35 1469.85,1008.46 1472.06,1007.57 1474.27,1006.69 1476.48,1005.8 1478.68,1004.91 1480.89,1004.02 1483.1,1003.13 1485.31,1002.24 1487.51,1001.35 1489.72,1000.46 1491.93,999.57 1494.13,998.68 1496.34,997.791 1498.55,996.901 1500.76,996.012 1502.96,995.123 1505.17,994.233 1507.38,993.344 1509.58,992.454 1511.79,991.565 1514,990.675 1516.21,989.786 1518.41,988.897 1520.62,988.007 1522.83,987.118 1525.04,986.228 1527.24,985.339 1529.45,984.449 1531.66,983.56 1533.86,982.67 1536.07,981.781 1538.28,980.892 1540.49,980.002 1542.69,979.113 1544.9,978.223 1547.11,977.334 1549.32,976.444 1551.52,975.555 1553.73,985.177 1555.94,985.177 1558.14,985.177 1560.35,985.177 1562.56,985.177 1564.77,985.177 1566.97,985.177 1569.18,985.177 1571.39,985.177 1573.6,985.177 1575.8,985.177 1578.01,985.177 1580.22,985.177 1582.42,985.177 1584.63,985.177 1586.84,985.177 1589.05,985.177 1591.25,985.177 1593.46,985.177 1595.67,985.177 1597.88,985.177 1600.08,985.177 1602.29,985.177 1604.5,985.177 1606.7,985.177 1608.91,985.177 1611.12,985.177 1613.33,985.177 1615.53,985.177 1617.74,985.177 1619.95,985.177 1622.15,985.177 1624.36,985.177 1626.57,985.177 1628.78,985.177 1630.98,985.177 1633.19,985.177 1635.4,985.177 1637.61,985.177 1639.81,985.177 1642.02,985.177 1644.23,985.177 1646.43,985.177 1648.64,985.177 1650.85,985.177 1653.06,985.177 1655.26,985.177 1657.47,985.177 1659.68,985.177 1661.89,985.177 1664.09,985.177 1666.3,985.177 1668.51,985.177 1670.71,985.177 1672.92,985.177 1675.13,985.177 1677.34,985.177 1679.54,985.177 1681.75,985.177 1683.96,985.177 1686.17,985.177 1688.37,985.177 1690.58,985.177 1692.79,985.177 1694.99,985.177 1697.2,985.177 1699.41,985.177 1701.62,985.177 1703.82,985.177 1706.03,985.177 1708.24,985.177 1710.45,985.177 1712.65,985.177 1714.86,985.177 1717.07,985.177 1719.27,985.177 1721.48,985.177 1723.69,985.177 1725.9,985.177 1728.1,985.177 1730.31,985.177 1732.52,985.177 1734.72,985.177 1736.93,985.177 1739.14,985.177 1741.35,985.177 1743.55,985.177 1745.76,985.177 1747.97,985.177 1750.18,985.177 1752.38,985.177 1754.59,985.177 1756.8,985.177 1759,985.177 1761.21,985.177 1763.42,985.177 1765.63,985.177 1767.83,985.177 1770.04,985.177 1772.25,985.177 1774.46,985.177 1776.66,985.177 1778.87,985.177 1781.08,985.177 1783.28,985.177 1785.49,985.177 1787.7,985.177 1789.91,985.177 1792.11,985.177 1794.32,985.177 1796.53,985.177 1798.74,985.177 1800.94,985.177 1803.15,985.177 1805.36,985.177 1807.56,985.177 1809.77,985.177 1811.98,985.177 1814.19,985.177 1816.39,985.177 1818.6,985.177 1820.81,985.177 1823.02,985.177 1825.22,985.177 1827.43,985.177 1829.64,985.177 1831.84,985.177 1834.05,985.177 1836.26,985.177 1838.47,985.177 1840.67,985.177 1842.88,985.177 1845.09,985.177 1847.29,985.177 1849.5,985.177 1851.71,985.177 1853.92,985.177 1856.12,985.177 1858.33,985.177 1860.54,985.177 1862.75,985.177 1864.95,985.177 1867.16,985.177 1869.37,984.408 1871.57,983.519 1873.78,982.629 1875.99,981.497 1878.2,979.718 1880.4,977.939 1882.61,976.16 1884.82,1020.69 1887.03,1019.8 1889.23,1018.91 1891.44,1018.02 1893.65,1017.13 1895.85,1016.24 1898.06,1015.35 1900.27,1014.46 1902.48,1013.58 1904.68,1012.69 1906.89,1011.8 1909.1,1010.91 1911.31,1010.02 1913.51,1009.13 1915.72,1008.24 1917.93,1007.35 1920.13,1006.46 1922.34,1005.57 1924.55,1004.68 1926.76,1003.79 1928.96,1002.9 1931.17,1002.01 1933.38,1001.12 1935.58,1000.23 1937.79,999.344 1940,998.455 1942.21,997.566 1944.41,996.676 1946.62,995.787 1948.83,994.897 1951.04,994.008 1953.24,993.118 1955.45,992.229 1957.66,991.34 1959.86,990.45 1962.07,989.561 1964.28,988.671 1966.49,987.782 1968.69,986.892 1970.9,986.003 1973.11,985.114 1975.32,984.224 1977.52,983.335 1979.73,982.445 1981.94,981.556 1984.14,980.666 1986.35,979.777 1988.56,978.888 1990.77,977.998 1992.97,977.109 1995.18,976.219 1997.39,975.33 1999.6,1087.69 2001.8,1087.69 2004.01,1087.69 2006.22,1087.69 2008.42,1087.69 2010.63,1087.69 2012.84,1087.69 2015.05,1087.69 2017.25,1087.69 2019.46,1087.69 2021.67,1087.69 2023.88,1087.69 2026.08,1087.69 2028.29,1087.69 2030.5,1087.69 2032.7,1087.69 2034.91,1087.69 2037.12,1087.69 2039.33,1087.69 2041.53,1087.69 2043.74,1087.69 2045.95,1087.69 2048.15,1087.69 2050.36,1087.69 2052.57,1087.69 2054.78,1087.69 2056.98,1087.69 2059.19,1087.69 2061.4,1087.69 2063.61,1087.69 2065.81,1087.69 2068.02,1087.69 2070.23,1087.69 2072.43,1087.69 2074.64,1087.69 2076.85,1087.69 2079.06,1087.69 2081.26,1087.69 2083.47,1087.69 2085.68,1087.69 2087.89,1087.69 2090.09,1087.69 2092.3,1087.69 2094.51,1087.69 2096.71,1087.1 2098.92,1086.21 2101.13,1085.32 2103.34,1084.43 2105.54,1083.54 2107.75,1082.65 2109.96,1081.76 2112.17,1080.87 2114.37,1079.98 2116.58,1079.09 2118.79,1078.2 2120.99,1077.31 2123.2,1076.42 2125.41,1075.53 2127.62,1074.65 2129.82,1073.76 2132.03,1072.87 2134.24,1071.13 2136.45,1069.35 2138.65,1067.57 2140.86,1065.79 2143.07,1064.01 2145.27,1062.23 2147.48,1060.46 2149.69,1058.68 2151.9,1056.9 2154.1,1055.12 2156.31,1053.34 2158.52,1051.56 2160.72,1049.78 2162.93,1048 2165.14,1046.22 2167.35,1044.45 2169.55,1042.67 2171.76,1040.89 2173.97,1039.11 2176.18,1037.33 2178.38,1035.55 2180.59,1033.77 2182.8,1031.99 2185,1030.21 2187.21,1028.44 2189.42,1026.66 2191.63,1024.88 2193.83,1023.1 2196.04,1021.32 2198.25,1019.54 2200.46,1017.76 2202.66,1015.98 2204.87,1014.2 2207.08,1012.18 2209.28,1009.52 2211.49,1006.85 2213.7,1004.18 2215.91,1001.51 2218.11,998.843 2220.32,996.174 2222.53,993.506 2224.74,990.838 2226.94,988.169 2229.15,985.501 2231.36,982.833 2233.56,980.165 2235.77,977.046 2237.98,997.373 2240.19,994.704 2242.39,992.036 2244.6,989.368 2246.81,986.699 2249.01,984.031 2251.22,981.363 2253.43,978.695 2255.64,976.026 2257.84,1046.65 2260.05,1044.87 2262.26,1043.09 2264.47,1041.31 2266.67,1039.53 2268.88,1037.75 2271.09,1035.97 2273.29,1034.19 2275.5,1032.42 2277.71,1030.64 2279.92,1028.01 2282.12,1025.35 2284.33,1022.68 2286.54,1020.01 2288.75,1017.34 2290.95,1014.67 2293.16,1012 2295.37,1009.34 2297.57,1006.67 2299.78,1004 2301.99,1001.33 2304.2,998.663 2306.4,995.994 2308.61,993.326 2310.82,990.658 2313.03,987.989 2315.23,985.321 2317.44,982.653 2319.65,979.985 2321.85,977.316 2324.06,997.238 2326.27,995.459 2328.48,993.68 2330.68,991.902 2332.89,990.123 2335.1,988.344 2337.31,986.565 2339.51,984.786 2341.72,983.007 2343.93,981.228 2346.13,979.45 2348.34,977.671 2350.55,975.892 2352.76,988.534 "/>
<path clip-path="url(#clip870)" d="M221.211 352.309 L525.072 352.309 L525.072 93.1086 L221.211 93.1086  Z" fill="#ffffff" fill-rule="evenodd" fill-opacity="1"/>
<polyline clip-path="url(#clip870)" style="stroke:#000000; stroke-linecap:round; stroke-linejoin:round; stroke-width:4; stroke-opacity:1; fill:none" points="221.211,352.309 525.072,352.309 525.072,93.1086 221.211,93.1086 221.211,352.309 "/>
<polyline clip-path="url(#clip870)" style="stroke:#009af9; stroke-linecap:round; stroke-linejoin:round; stroke-width:8; stroke-opacity:1; fill:none" points="245.711,144.949 392.715,144.949 "/>
<path clip-path="url(#clip870)" d="M417.215 127.669 L423.511 127.669 L438.835 156.581 L438.835 127.669 L443.372 127.669 L443.372 162.229 L437.076 162.229 L421.752 133.317 L421.752 162.229 L417.215 162.229 L417.215 127.669 Z" fill="#000000" fill-rule="nonzero" fill-opacity="1" /><path clip-path="url(#clip870)" d="M462.724 126.257 Q459.622 131.581 458.118 136.789 Q456.613 141.997 456.613 147.344 Q456.613 152.692 458.118 157.946 Q459.645 163.178 462.724 168.479 L459.02 168.479 Q455.548 163.039 453.812 157.784 Q452.099 152.53 452.099 147.344 Q452.099 142.182 453.812 136.951 Q455.525 131.72 459.02 126.257 L462.724 126.257 Z" fill="#000000" fill-rule="nonzero" fill-opacity="1" /><path clip-path="url(#clip870)" d="M475.201 128.942 L475.201 136.303 L483.974 136.303 L483.974 139.613 L475.201 139.613 L475.201 153.687 Q475.201 156.858 476.057 157.761 Q476.937 158.664 479.599 158.664 L483.974 158.664 L483.974 162.229 L479.599 162.229 Q474.668 162.229 472.793 160.4 Q470.918 158.548 470.918 153.687 L470.918 139.613 L467.794 139.613 L467.794 136.303 L470.918 136.303 L470.918 128.942 L475.201 128.942 Z" fill="#000000" fill-rule="nonzero" fill-opacity="1" /><path clip-path="url(#clip870)" d="M488.905 126.257 L492.608 126.257 Q496.08 131.72 497.793 136.951 Q499.529 142.182 499.529 147.344 Q499.529 152.53 497.793 157.784 Q496.08 163.039 492.608 168.479 L488.905 168.479 Q491.983 163.178 493.488 157.946 Q495.016 152.692 495.016 147.344 Q495.016 141.997 493.488 136.789 Q491.983 131.581 488.905 126.257 Z" fill="#000000" fill-rule="nonzero" fill-opacity="1" /><polyline clip-path="url(#clip870)" style="stroke:#e26f46; stroke-linecap:round; stroke-linejoin:round; stroke-width:8; stroke-opacity:1; fill:none" points="245.711,196.789 392.715,196.789 "/>
<path clip-path="url(#clip870)" d="M421.891 183.351 L421.891 210.226 L427.539 210.226 Q434.692 210.226 438.002 206.985 Q441.335 203.745 441.335 196.754 Q441.335 189.809 438.002 186.592 Q434.692 183.351 427.539 183.351 L421.891 183.351 M417.215 179.509 L426.822 179.509 Q436.868 179.509 441.567 183.698 Q446.266 187.865 446.266 196.754 Q446.266 205.689 441.544 209.879 Q436.821 214.069 426.822 214.069 L417.215 214.069 L417.215 179.509 Z" fill="#000000" fill-rule="nonzero" fill-opacity="1" /><path clip-path="url(#clip870)" d="M463.766 178.097 Q460.664 183.421 459.159 188.629 Q457.655 193.837 457.655 199.184 Q457.655 204.532 459.159 209.786 Q460.687 215.018 463.766 220.319 L460.062 220.319 Q456.59 214.879 454.854 209.624 Q453.141 204.37 453.141 199.184 Q453.141 194.022 454.854 188.791 Q456.567 183.56 460.062 178.097 L463.766 178.097 Z" fill="#000000" fill-rule="nonzero" fill-opacity="1" /><path clip-path="url(#clip870)" d="M476.243 180.782 L476.243 188.143 L485.016 188.143 L485.016 191.453 L476.243 191.453 L476.243 205.527 Q476.243 208.698 477.099 209.601 Q477.979 210.504 480.641 210.504 L485.016 210.504 L485.016 214.069 L480.641 214.069 Q475.71 214.069 473.835 212.24 Q471.96 210.388 471.96 205.527 L471.96 191.453 L468.835 191.453 L468.835 188.143 L471.96 188.143 L471.96 180.782 L476.243 180.782 Z" fill="#000000" fill-rule="nonzero" fill-opacity="1" /><path clip-path="url(#clip870)" d="M489.946 178.097 L493.65 178.097 Q497.122 183.56 498.835 188.791 Q500.571 194.022 500.571 199.184 Q500.571 204.37 498.835 209.624 Q497.122 214.879 493.65 220.319 L489.946 220.319 Q493.025 215.018 494.529 209.786 Q496.057 204.532 496.057 199.184 Q496.057 193.837 494.529 188.629 Q493.025 183.421 489.946 178.097 Z" fill="#000000" fill-rule="nonzero" fill-opacity="1" /><polyline clip-path="url(#clip870)" style="stroke:#3da44d; stroke-linecap:round; stroke-linejoin:round; stroke-width:8; stroke-opacity:1; fill:none" points="245.711,248.629 392.715,248.629 "/>
<path clip-path="url(#clip870)" d="M417.215 231.349 L423.511 231.349 L438.835 260.261 L438.835 231.349 L443.372 231.349 L443.372 265.909 L437.076 265.909 L421.752 236.997 L421.752 265.909 L417.215 265.909 L417.215 231.349 Z" fill="#000000" fill-rule="nonzero" fill-opacity="1" /><path clip-path="url(#clip870)" d="M462.724 229.937 Q459.622 235.261 458.118 240.469 Q456.613 245.677 456.613 251.024 Q456.613 256.372 458.118 261.626 Q459.645 266.858 462.724 272.159 L459.02 272.159 Q455.548 266.719 453.812 261.464 Q452.099 256.21 452.099 251.024 Q452.099 245.862 453.812 240.631 Q455.525 235.4 459.02 229.937 L462.724 229.937 Z" fill="#000000" fill-rule="nonzero" fill-opacity="1" /><path clip-path="url(#clip870)" d="M475.201 232.622 L475.201 239.983 L483.974 239.983 L483.974 243.293 L475.201 243.293 L475.201 257.367 Q475.201 260.538 476.057 261.441 Q476.937 262.344 479.599 262.344 L483.974 262.344 L483.974 265.909 L479.599 265.909 Q474.668 265.909 472.793 264.08 Q470.918 262.228 470.918 257.367 L470.918 243.293 L467.794 243.293 L467.794 239.983 L470.918 239.983 L470.918 232.622 L475.201 232.622 Z" fill="#000000" fill-rule="nonzero" fill-opacity="1" /><path clip-path="url(#clip870)" d="M488.905 229.937 L492.608 229.937 Q496.08 235.4 497.793 240.631 Q499.529 245.862 499.529 251.024 Q499.529 256.21 497.793 261.464 Q496.08 266.719 492.608 272.159 L488.905 272.159 Q491.983 266.858 493.488 261.626 Q495.016 256.372 495.016 251.024 Q495.016 245.677 493.488 240.469 Q491.983 235.261 488.905 229.937 Z" fill="#000000" fill-rule="nonzero" fill-opacity="1" /><polyline clip-path="url(#clip870)" style="stroke:#c271d2; stroke-linecap:round; stroke-linejoin:round; stroke-width:8; stroke-opacity:1; fill:none" points="245.711,300.469 392.715,300.469 "/>
<path clip-path="url(#clip870)" d="M421.891 287.031 L421.891 313.906 L427.539 313.906 Q434.692 313.906 438.002 310.665 Q441.335 307.425 441.335 300.434 Q441.335 293.489 438.002 290.272 Q434.692 287.031 427.539 287.031 L421.891 287.031 M417.215 283.189 L426.822 283.189 Q436.868 283.189 441.567 287.378 Q446.266 291.545 446.266 300.434 Q446.266 309.369 441.544 313.559 Q436.821 317.749 426.822 317.749 L417.215 317.749 L417.215 283.189 Z" fill="#000000" fill-rule="nonzero" fill-opacity="1" /><path clip-path="url(#clip870)" d="M463.766 281.777 Q460.664 287.101 459.159 292.309 Q457.655 297.517 457.655 302.864 Q457.655 308.212 459.159 313.466 Q460.687 318.698 463.766 323.999 L460.062 323.999 Q456.59 318.559 454.854 313.304 Q453.141 308.05 453.141 302.864 Q453.141 297.702 454.854 292.471 Q456.567 287.24 460.062 281.777 L463.766 281.777 Z" fill="#000000" fill-rule="nonzero" fill-opacity="1" /><path clip-path="url(#clip870)" d="M476.243 284.462 L476.243 291.823 L485.016 291.823 L485.016 295.133 L476.243 295.133 L476.243 309.207 Q476.243 312.378 477.099 313.281 Q477.979 314.184 480.641 314.184 L485.016 314.184 L485.016 317.749 L480.641 317.749 Q475.71 317.749 473.835 315.92 Q471.96 314.068 471.96 309.207 L471.96 295.133 L468.835 295.133 L468.835 291.823 L471.96 291.823 L471.96 284.462 L476.243 284.462 Z" fill="#000000" fill-rule="nonzero" fill-opacity="1" /><path clip-path="url(#clip870)" d="M489.946 281.777 L493.65 281.777 Q497.122 287.24 498.835 292.471 Q500.571 297.702 500.571 302.864 Q500.571 308.05 498.835 313.304 Q497.122 318.559 493.65 323.999 L489.946 323.999 Q493.025 318.698 494.529 313.466 Q496.057 308.212 496.057 302.864 Q496.057 297.517 494.529 292.309 Q493.025 287.101 489.946 281.777 Z" fill="#000000" fill-rule="nonzero" fill-opacity="1" /></svg>
