<?xml version="1.0" encoding="utf-8"?>
<svg xmlns="http://www.w3.org/2000/svg" xmlns:xlink="http://www.w3.org/1999/xlink" width="600" height="400" viewBox="0 0 2400 1600">
<defs>
  <clipPath id="clip020">
    <rect x="0" y="0" width="2400" height="1600"/>
  </clipPath>
</defs>
<path clip-path="url(#clip020)" d="M0 1600 L2400 1600 L2400 0 L0 0  Z" fill="#ffffff" fill-rule="evenodd" fill-opacity="1"/>
<defs>
  <clipPath id="clip021">
    <rect x="480" y="0" width="1681" height="1600"/>
  </clipPath>
</defs>
<path clip-path="url(#clip020)" d="M155.765 1423.18 L2352.76 1423.18 L2352.76 47.2441 L155.765 47.2441  Z" fill="#ffffff" fill-rule="evenodd" fill-opacity="1"/>
<defs>
  <clipPath id="clip022">
    <rect x="155" y="47" width="2198" height="1377"/>
  </clipPath>
</defs>
<polyline clip-path="url(#clip022)" style="stroke:#000000; stroke-linecap:round; stroke-linejoin:round; stroke-width:2; stroke-opacity:0.1; fill:none" points="155.765,1423.18 155.765,47.2441 "/>
<polyline clip-path="url(#clip022)" style="stroke:#000000; stroke-linecap:round; stroke-linejoin:round; stroke-width:2; stroke-opacity:0.1; fill:none" points="595.163,1423.18 595.163,47.2441 "/>
<polyline clip-path="url(#clip022)" style="stroke:#000000; stroke-linecap:round; stroke-linejoin:round; stroke-width:2; stroke-opacity:0.1; fill:none" points="1034.56,1423.18 1034.56,47.2441 "/>
<polyline clip-path="url(#clip022)" style="stroke:#000000; stroke-linecap:round; stroke-linejoin:round; stroke-width:2; stroke-opacity:0.1; fill:none" points="1473.96,1423.18 1473.96,47.2441 "/>
<polyline clip-path="url(#clip022)" style="stroke:#000000; stroke-linecap:round; stroke-linejoin:round; stroke-width:2; stroke-opacity:0.1; fill:none" points="1913.36,1423.18 1913.36,47.2441 "/>
<polyline clip-path="url(#clip022)" style="stroke:#000000; stroke-linecap:round; stroke-linejoin:round; stroke-width:2; stroke-opacity:0.1; fill:none" points="2352.76,1423.18 2352.76,47.2441 "/>
<polyline clip-path="url(#clip020)" style="stroke:#000000; stroke-linecap:round; stroke-linejoin:round; stroke-width:4; stroke-opacity:1; fill:none" points="155.765,1423.18 2352.76,1423.18 "/>
<polyline clip-path="url(#clip020)" style="stroke:#000000; stroke-linecap:round; stroke-linejoin:round; stroke-width:4; stroke-opacity:1; fill:none" points="155.765,1423.18 155.765,1404.28 "/>
<polyline clip-path="url(#clip020)" style="stroke:#000000; stroke-linecap:round; stroke-linejoin:round; stroke-width:4; stroke-opacity:1; fill:none" points="595.163,1423.18 595.163,1404.28 "/>
<polyline clip-path="url(#clip020)" style="stroke:#000000; stroke-linecap:round; stroke-linejoin:round; stroke-width:4; stroke-opacity:1; fill:none" points="1034.56,1423.18 1034.56,1404.28 "/>
<polyline clip-path="url(#clip020)" style="stroke:#000000; stroke-linecap:round; stroke-linejoin:round; stroke-width:4; stroke-opacity:1; fill:none" points="1473.96,1423.18 1473.96,1404.28 "/>
<polyline clip-path="url(#clip020)" style="stroke:#000000; stroke-linecap:round; stroke-linejoin:round; stroke-width:4; stroke-opacity:1; fill:none" points="1913.36,1423.18 1913.36,1404.28 "/>
<polyline clip-path="url(#clip020)" style="stroke:#000000; stroke-linecap:round; stroke-linejoin:round; stroke-width:4; stroke-opacity:1; fill:none" points="2352.76,1423.18 2352.76,1404.28 "/>
<path clip-path="url(#clip020)" d="M155.765 1454.1 Q152.154 1454.1 150.325 1457.66 Q148.52 1461.2 148.52 1468.33 Q148.52 1475.44 150.325 1479.01 Q152.154 1482.55 155.765 1482.55 Q159.399 1482.55 161.205 1479.01 Q163.033 1475.44 163.033 1468.33 Q163.033 1461.2 161.205 1457.66 Q159.399 1454.1 155.765 1454.1 M155.765 1450.39 Q161.575 1450.39 164.631 1455 Q167.709 1459.58 167.709 1468.33 Q167.709 1477.06 164.631 1481.67 Q161.575 1486.25 155.765 1486.25 Q149.955 1486.25 146.876 1481.67 Q143.821 1477.06 143.821 1468.33 Q143.821 1459.58 146.876 1455 Q149.955 1450.39 155.765 1450.39 Z" fill="#000000" fill-rule="nonzero" fill-opacity="1" /><path clip-path="url(#clip020)" d="M589.816 1481.64 L606.135 1481.64 L606.135 1485.58 L584.191 1485.58 L584.191 1481.64 Q586.853 1478.89 591.436 1474.26 Q596.043 1469.61 597.223 1468.27 Q599.469 1465.74 600.348 1464.01 Q601.251 1462.25 601.251 1460.56 Q601.251 1457.8 599.307 1456.07 Q597.385 1454.33 594.283 1454.33 Q592.084 1454.33 589.631 1455.09 Q587.2 1455.86 584.422 1457.41 L584.422 1452.69 Q587.246 1451.55 589.7 1450.97 Q592.154 1450.39 594.191 1450.39 Q599.561 1450.39 602.756 1453.08 Q605.95 1455.77 605.95 1460.26 Q605.95 1462.39 605.14 1464.31 Q604.353 1466.2 602.246 1468.8 Q601.668 1469.47 598.566 1472.69 Q595.464 1475.88 589.816 1481.64 Z" fill="#000000" fill-rule="nonzero" fill-opacity="1" /><path clip-path="url(#clip020)" d="M1037.57 1455.09 L1025.77 1473.54 L1037.57 1473.54 L1037.57 1455.09 M1036.34 1451.02 L1042.22 1451.02 L1042.22 1473.54 L1047.15 1473.54 L1047.15 1477.43 L1042.22 1477.43 L1042.22 1485.58 L1037.57 1485.58 L1037.57 1477.43 L1021.97 1477.43 L1021.97 1472.92 L1036.34 1451.02 Z" fill="#000000" fill-rule="nonzero" fill-opacity="1" /><path clip-path="url(#clip020)" d="M1474.36 1466.44 Q1471.22 1466.44 1469.36 1468.59 Q1467.54 1470.74 1467.54 1474.49 Q1467.54 1478.22 1469.36 1480.39 Q1471.22 1482.55 1474.36 1482.55 Q1477.51 1482.55 1479.34 1480.39 Q1481.19 1478.22 1481.19 1474.49 Q1481.19 1470.74 1479.34 1468.59 Q1477.51 1466.44 1474.36 1466.44 M1483.65 1451.78 L1483.65 1456.04 Q1481.89 1455.21 1480.08 1454.77 Q1478.3 1454.33 1476.54 1454.33 Q1471.91 1454.33 1469.46 1457.45 Q1467.03 1460.58 1466.68 1466.9 Q1468.05 1464.89 1470.11 1463.82 Q1472.17 1462.73 1474.64 1462.73 Q1479.85 1462.73 1482.86 1465.9 Q1485.89 1469.05 1485.89 1474.49 Q1485.89 1479.82 1482.74 1483.03 Q1479.6 1486.25 1474.36 1486.25 Q1468.37 1486.25 1465.2 1481.67 Q1462.03 1477.06 1462.03 1468.33 Q1462.03 1460.14 1465.92 1455.28 Q1469.8 1450.39 1476.36 1450.39 Q1478.11 1450.39 1479.9 1450.74 Q1481.7 1451.09 1483.65 1451.78 Z" fill="#000000" fill-rule="nonzero" fill-opacity="1" /><path clip-path="url(#clip020)" d="M1913.36 1469.17 Q1910.02 1469.17 1908.1 1470.95 Q1906.2 1472.73 1906.2 1475.86 Q1906.2 1478.98 1908.1 1480.77 Q1910.02 1482.55 1913.36 1482.55 Q1916.69 1482.55 1918.61 1480.77 Q1920.53 1478.96 1920.53 1475.86 Q1920.53 1472.73 1918.61 1470.95 Q1916.71 1469.17 1913.36 1469.17 M1908.68 1467.18 Q1905.67 1466.44 1903.98 1464.38 Q1902.32 1462.32 1902.32 1459.35 Q1902.32 1455.21 1905.26 1452.8 Q1908.22 1450.39 1913.36 1450.39 Q1918.52 1450.39 1921.46 1452.8 Q1924.4 1455.21 1924.4 1459.35 Q1924.4 1462.32 1922.71 1464.38 Q1921.04 1466.44 1918.06 1467.18 Q1921.44 1467.96 1923.31 1470.26 Q1925.21 1472.55 1925.21 1475.86 Q1925.21 1480.88 1922.13 1483.57 Q1919.08 1486.25 1913.36 1486.25 Q1907.64 1486.25 1904.56 1483.57 Q1901.51 1480.88 1901.51 1475.86 Q1901.51 1472.55 1903.4 1470.26 Q1905.3 1467.96 1908.68 1467.18 M1906.97 1459.79 Q1906.97 1462.48 1908.64 1463.98 Q1910.33 1465.49 1913.36 1465.49 Q1916.37 1465.49 1918.06 1463.98 Q1919.77 1462.48 1919.77 1459.79 Q1919.77 1457.11 1918.06 1455.6 Q1916.37 1454.1 1913.36 1454.1 Q1910.33 1454.1 1908.64 1455.6 Q1906.97 1457.11 1906.97 1459.79 Z" fill="#000000" fill-rule="nonzero" fill-opacity="1" /><path clip-path="url(#clip020)" d="M2327.44 1481.64 L2335.08 1481.64 L2335.08 1455.28 L2326.77 1456.95 L2326.77 1452.69 L2335.04 1451.02 L2339.71 1451.02 L2339.71 1481.64 L2347.35 1481.64 L2347.35 1485.58 L2327.44 1485.58 L2327.44 1481.64 Z" fill="#000000" fill-rule="nonzero" fill-opacity="1" /><path clip-path="url(#clip020)" d="M2366.8 1454.1 Q2363.18 1454.1 2361.36 1457.66 Q2359.55 1461.2 2359.55 1468.33 Q2359.55 1475.44 2361.36 1479.01 Q2363.18 1482.55 2366.8 1482.55 Q2370.43 1482.55 2372.23 1479.01 Q2374.06 1475.44 2374.06 1468.33 Q2374.06 1461.2 2372.23 1457.66 Q2370.43 1454.1 2366.8 1454.1 M2366.8 1450.39 Q2372.61 1450.39 2375.66 1455 Q2378.74 1459.58 2378.74 1468.33 Q2378.74 1477.06 2375.66 1481.67 Q2372.61 1486.25 2366.8 1486.25 Q2360.99 1486.25 2357.91 1481.67 Q2354.85 1477.06 2354.85 1468.33 Q2354.85 1459.58 2357.91 1455 Q2360.99 1450.39 2366.8 1450.39 Z" fill="#000000" fill-rule="nonzero" fill-opacity="1" /><path clip-path="url(#clip020)" d="M1253.32 1522.27 L1253.32 1532.4 L1265.38 1532.4 L1265.38 1536.95 L1253.32 1536.95 L1253.32 1556.3 Q1253.32 1560.66 1254.5 1561.9 Q1255.71 1563.14 1259.37 1563.14 L1265.38 1563.14 L1265.38 1568.04 L1259.37 1568.04 Q1252.59 1568.04 1250.01 1565.53 Q1247.43 1562.98 1247.43 1556.3 L1247.43 1536.95 L1243.14 1536.95 L1243.14 1532.4 L1247.43 1532.4 L1247.43 1522.27 L1253.32 1522.27 Z" fill="#000000" fill-rule="nonzero" fill-opacity="1" /><polyline clip-path="url(#clip022)" style="stroke:#000000; stroke-linecap:round; stroke-linejoin:round; stroke-width:2; stroke-opacity:0.1; fill:none" points="155.765,1255.16 2352.76,1255.16 "/>
<polyline clip-path="url(#clip022)" style="stroke:#000000; stroke-linecap:round; stroke-linejoin:round; stroke-width:2; stroke-opacity:0.1; fill:none" points="155.765,1040.03 2352.76,1040.03 "/>
<polyline clip-path="url(#clip022)" style="stroke:#000000; stroke-linecap:round; stroke-linejoin:round; stroke-width:2; stroke-opacity:0.1; fill:none" points="155.765,824.901 2352.76,824.901 "/>
<polyline clip-path="url(#clip022)" style="stroke:#000000; stroke-linecap:round; stroke-linejoin:round; stroke-width:2; stroke-opacity:0.1; fill:none" points="155.765,609.771 2352.76,609.771 "/>
<polyline clip-path="url(#clip022)" style="stroke:#000000; stroke-linecap:round; stroke-linejoin:round; stroke-width:2; stroke-opacity:0.1; fill:none" points="155.765,394.641 2352.76,394.641 "/>
<polyline clip-path="url(#clip022)" style="stroke:#000000; stroke-linecap:round; stroke-linejoin:round; stroke-width:2; stroke-opacity:0.1; fill:none" points="155.765,179.512 2352.76,179.512 "/>
<polyline clip-path="url(#clip020)" style="stroke:#000000; stroke-linecap:round; stroke-linejoin:round; stroke-width:4; stroke-opacity:1; fill:none" points="155.765,1423.18 155.765,47.2441 "/>
<polyline clip-path="url(#clip020)" style="stroke:#000000; stroke-linecap:round; stroke-linejoin:round; stroke-width:4; stroke-opacity:1; fill:none" points="155.765,1255.16 174.663,1255.16 "/>
<polyline clip-path="url(#clip020)" style="stroke:#000000; stroke-linecap:round; stroke-linejoin:round; stroke-width:4; stroke-opacity:1; fill:none" points="155.765,1040.03 174.663,1040.03 "/>
<polyline clip-path="url(#clip020)" style="stroke:#000000; stroke-linecap:round; stroke-linejoin:round; stroke-width:4; stroke-opacity:1; fill:none" points="155.765,824.901 174.663,824.901 "/>
<polyline clip-path="url(#clip020)" style="stroke:#000000; stroke-linecap:round; stroke-linejoin:round; stroke-width:4; stroke-opacity:1; fill:none" points="155.765,609.771 174.663,609.771 "/>
<polyline clip-path="url(#clip020)" style="stroke:#000000; stroke-linecap:round; stroke-linejoin:round; stroke-width:4; stroke-opacity:1; fill:none" points="155.765,394.641 174.663,394.641 "/>
<polyline clip-path="url(#clip020)" style="stroke:#000000; stroke-linecap:round; stroke-linejoin:round; stroke-width:4; stroke-opacity:1; fill:none" points="155.765,179.512 174.663,179.512 "/>
<path clip-path="url(#clip020)" d="M63.5847 1240.96 Q59.9736 1240.96 58.1449 1244.52 Q56.3393 1248.07 56.3393 1255.2 Q56.3393 1262.3 58.1449 1265.87 Q59.9736 1269.41 63.5847 1269.41 Q67.2189 1269.41 69.0244 1265.87 Q70.8531 1262.3 70.8531 1255.2 Q70.8531 1248.07 69.0244 1244.52 Q67.2189 1240.96 63.5847 1240.96 M63.5847 1237.26 Q69.3948 1237.26 72.4503 1241.86 Q75.529 1246.45 75.529 1255.2 Q75.529 1263.92 72.4503 1268.53 Q69.3948 1273.11 63.5847 1273.11 Q57.7745 1273.11 54.6958 1268.53 Q51.6403 1263.92 51.6403 1255.2 Q51.6403 1246.45 54.6958 1241.86 Q57.7745 1237.26 63.5847 1237.26 Z" fill="#000000" fill-rule="nonzero" fill-opacity="1" /><path clip-path="url(#clip020)" d="M83.7466 1266.56 L88.6308 1266.56 L88.6308 1272.44 L83.7466 1272.44 L83.7466 1266.56 Z" fill="#000000" fill-rule="nonzero" fill-opacity="1" /><path clip-path="url(#clip020)" d="M98.8622 1237.88 L117.219 1237.88 L117.219 1241.82 L103.145 1241.82 L103.145 1250.29 Q104.163 1249.94 105.182 1249.78 Q106.2 1249.59 107.219 1249.59 Q113.006 1249.59 116.385 1252.76 Q119.765 1255.94 119.765 1261.35 Q119.765 1266.93 116.293 1270.03 Q112.82 1273.11 106.501 1273.11 Q104.325 1273.11 102.057 1272.74 Q99.8113 1272.37 97.4039 1271.63 L97.4039 1266.93 Q99.4872 1268.07 101.709 1268.62 Q103.932 1269.18 106.408 1269.18 Q110.413 1269.18 112.751 1267.07 Q115.089 1264.96 115.089 1261.35 Q115.089 1257.74 112.751 1255.63 Q110.413 1253.53 106.408 1253.53 Q104.534 1253.53 102.659 1253.95 Q100.807 1254.36 98.8622 1255.24 L98.8622 1237.88 Z" fill="#000000" fill-rule="nonzero" fill-opacity="1" /><path clip-path="url(#clip020)" d="M53.3995 1053.38 L61.0384 1053.38 L61.0384 1027.01 L52.7282 1028.68 L52.7282 1024.42 L60.9921 1022.75 L65.668 1022.75 L65.668 1053.38 L73.3068 1053.38 L73.3068 1057.31 L53.3995 1057.31 L53.3995 1053.38 Z" fill="#000000" fill-rule="nonzero" fill-opacity="1" /><path clip-path="url(#clip020)" d="M82.7512 1051.43 L87.6354 1051.43 L87.6354 1057.31 L82.7512 1057.31 L82.7512 1051.43 Z" fill="#000000" fill-rule="nonzero" fill-opacity="1" /><path clip-path="url(#clip020)" d="M107.821 1025.83 Q104.209 1025.83 102.381 1029.39 Q100.575 1032.94 100.575 1040.07 Q100.575 1047.17 102.381 1050.74 Q104.209 1054.28 107.821 1054.28 Q111.455 1054.28 113.26 1050.74 Q115.089 1047.17 115.089 1040.07 Q115.089 1032.94 113.26 1029.39 Q111.455 1025.83 107.821 1025.83 M107.821 1022.13 Q113.631 1022.13 116.686 1026.73 Q119.765 1031.32 119.765 1040.07 Q119.765 1048.79 116.686 1053.4 Q113.631 1057.98 107.821 1057.98 Q102.01 1057.98 98.9317 1053.4 Q95.8761 1048.79 95.8761 1040.07 Q95.8761 1031.32 98.9317 1026.73 Q102.01 1022.13 107.821 1022.13 Z" fill="#000000" fill-rule="nonzero" fill-opacity="1" /><path clip-path="url(#clip020)" d="M54.3949 838.246 L62.0337 838.246 L62.0337 811.88 L53.7236 813.547 L53.7236 809.288 L61.9874 807.621 L66.6633 807.621 L66.6633 838.246 L74.3022 838.246 L74.3022 842.181 L54.3949 842.181 L54.3949 838.246 Z" fill="#000000" fill-rule="nonzero" fill-opacity="1" /><path clip-path="url(#clip020)" d="M83.7466 836.301 L88.6308 836.301 L88.6308 842.181 L83.7466 842.181 L83.7466 836.301 Z" fill="#000000" fill-rule="nonzero" fill-opacity="1" /><path clip-path="url(#clip020)" d="M98.8622 807.621 L117.219 807.621 L117.219 811.556 L103.145 811.556 L103.145 820.028 Q104.163 819.681 105.182 819.519 Q106.2 819.334 107.219 819.334 Q113.006 819.334 116.385 822.505 Q119.765 825.676 119.765 831.093 Q119.765 836.672 116.293 839.774 Q112.82 842.852 106.501 842.852 Q104.325 842.852 102.057 842.482 Q99.8113 842.111 97.4039 841.371 L97.4039 836.672 Q99.4872 837.806 101.709 838.362 Q103.932 838.917 106.408 838.917 Q110.413 838.917 112.751 836.811 Q115.089 834.704 115.089 831.093 Q115.089 827.482 112.751 825.375 Q110.413 823.269 106.408 823.269 Q104.534 823.269 102.659 823.686 Q100.807 824.102 98.8622 824.982 L98.8622 807.621 Z" fill="#000000" fill-rule="nonzero" fill-opacity="1" /><path clip-path="url(#clip020)" d="M56.6171 623.116 L72.9365 623.116 L72.9365 627.051 L50.9921 627.051 L50.9921 623.116 Q53.6541 620.361 58.2375 615.732 Q62.8439 611.079 64.0245 609.736 Q66.2698 607.213 67.1494 605.477 Q68.0522 603.718 68.0522 602.028 Q68.0522 599.274 66.1078 597.537 Q64.1865 595.801 61.0847 595.801 Q58.8856 595.801 56.4319 596.565 Q54.0014 597.329 51.2236 598.88 L51.2236 594.158 Q54.0477 593.024 56.5014 592.445 Q58.955 591.866 60.9921 591.866 Q66.3624 591.866 69.5568 594.551 Q72.7513 597.237 72.7513 601.727 Q72.7513 603.857 71.9411 605.778 Q71.1541 607.676 69.0476 610.269 Q68.4689 610.94 65.367 614.158 Q62.2652 617.352 56.6171 623.116 Z" fill="#000000" fill-rule="nonzero" fill-opacity="1" /><path clip-path="url(#clip020)" d="M82.7512 621.172 L87.6354 621.172 L87.6354 627.051 L82.7512 627.051 L82.7512 621.172 Z" fill="#000000" fill-rule="nonzero" fill-opacity="1" /><path clip-path="url(#clip020)" d="M107.821 595.57 Q104.209 595.57 102.381 599.135 Q100.575 602.676 100.575 609.806 Q100.575 616.912 102.381 620.477 Q104.209 624.019 107.821 624.019 Q111.455 624.019 113.26 620.477 Q115.089 616.912 115.089 609.806 Q115.089 602.676 113.26 599.135 Q111.455 595.57 107.821 595.57 M107.821 591.866 Q113.631 591.866 116.686 596.473 Q119.765 601.056 119.765 609.806 Q119.765 618.533 116.686 623.139 Q113.631 627.722 107.821 627.722 Q102.01 627.722 98.9317 623.139 Q95.8761 618.533 95.8761 609.806 Q95.8761 601.056 98.9317 596.473 Q102.01 591.866 107.821 591.866 Z" fill="#000000" fill-rule="nonzero" fill-opacity="1" /><path clip-path="url(#clip020)" d="M57.6125 407.986 L73.9318 407.986 L73.9318 411.921 L51.9875 411.921 L51.9875 407.986 Q54.6495 405.232 59.2328 400.602 Q63.8393 395.949 65.0198 394.607 Q67.2652 392.084 68.1448 390.347 Q69.0476 388.588 69.0476 386.898 Q69.0476 384.144 67.1032 382.408 Q65.1819 380.672 62.08 380.672 Q59.881 380.672 57.4273 381.436 Q54.9967 382.199 52.219 383.75 L52.219 379.028 Q55.043 377.894 57.4967 377.315 Q59.9504 376.736 61.9874 376.736 Q67.3578 376.736 70.5522 379.422 Q73.7466 382.107 73.7466 386.598 Q73.7466 388.727 72.9365 390.648 Q72.1494 392.547 70.0429 395.139 Q69.4642 395.81 66.3624 399.028 Q63.2606 402.222 57.6125 407.986 Z" fill="#000000" fill-rule="nonzero" fill-opacity="1" /><path clip-path="url(#clip020)" d="M83.7466 406.042 L88.6308 406.042 L88.6308 411.921 L83.7466 411.921 L83.7466 406.042 Z" fill="#000000" fill-rule="nonzero" fill-opacity="1" /><path clip-path="url(#clip020)" d="M98.8622 377.361 L117.219 377.361 L117.219 381.297 L103.145 381.297 L103.145 389.769 Q104.163 389.422 105.182 389.26 Q106.2 389.074 107.219 389.074 Q113.006 389.074 116.385 392.246 Q119.765 395.417 119.765 400.834 Q119.765 406.412 116.293 409.514 Q112.82 412.593 106.501 412.593 Q104.325 412.593 102.057 412.222 Q99.8113 411.852 97.4039 411.111 L97.4039 406.412 Q99.4872 407.546 101.709 408.102 Q103.932 408.658 106.408 408.658 Q110.413 408.658 112.751 406.551 Q115.089 404.445 115.089 400.834 Q115.089 397.222 112.751 395.116 Q110.413 393.01 106.408 393.01 Q104.534 393.01 102.659 393.426 Q100.807 393.843 98.8622 394.722 L98.8622 377.361 Z" fill="#000000" fill-rule="nonzero" fill-opacity="1" /><path clip-path="url(#clip020)" d="M66.7559 178.158 Q70.1124 178.875 71.9874 181.144 Q73.8855 183.412 73.8855 186.745 Q73.8855 191.861 70.367 194.662 Q66.8485 197.463 60.3671 197.463 Q58.1912 197.463 55.8764 197.023 Q53.5847 196.607 51.131 195.75 L51.131 191.236 Q53.0754 192.37 55.3903 192.949 Q57.7051 193.528 60.2282 193.528 Q64.6263 193.528 66.918 191.792 Q69.2328 190.056 69.2328 186.745 Q69.2328 183.69 67.08 181.977 Q64.9504 180.241 61.131 180.241 L57.1032 180.241 L57.1032 176.398 L61.3161 176.398 Q64.7652 176.398 66.5939 175.033 Q68.4226 173.644 68.4226 171.051 Q68.4226 168.389 66.5245 166.977 Q64.6495 165.542 61.131 165.542 Q59.2097 165.542 57.0106 165.959 Q54.8115 166.375 52.1727 167.255 L52.1727 163.088 Q54.8347 162.347 57.1495 161.977 Q59.4875 161.607 61.5476 161.607 Q66.8717 161.607 69.9735 164.037 Q73.0753 166.445 73.0753 170.565 Q73.0753 173.435 71.4318 175.426 Q69.7883 177.394 66.7559 178.158 Z" fill="#000000" fill-rule="nonzero" fill-opacity="1" /><path clip-path="url(#clip020)" d="M82.7512 190.912 L87.6354 190.912 L87.6354 196.792 L82.7512 196.792 L82.7512 190.912 Z" fill="#000000" fill-rule="nonzero" fill-opacity="1" /><path clip-path="url(#clip020)" d="M107.821 165.31 Q104.209 165.31 102.381 168.875 Q100.575 172.417 100.575 179.546 Q100.575 186.653 102.381 190.218 Q104.209 193.759 107.821 193.759 Q111.455 193.759 113.26 190.218 Q115.089 186.653 115.089 179.546 Q115.089 172.417 113.26 168.875 Q111.455 165.31 107.821 165.31 M107.821 161.607 Q113.631 161.607 116.686 166.213 Q119.765 170.796 119.765 179.546 Q119.765 188.273 116.686 192.88 Q113.631 197.463 107.821 197.463 Q102.01 197.463 98.9317 192.88 Q95.8761 188.273 95.8761 179.546 Q95.8761 170.796 98.9317 166.213 Q102.01 161.607 107.821 161.607 Z" fill="#000000" fill-rule="nonzero" fill-opacity="1" /><polyline clip-path="url(#clip022)" style="stroke:#009af9; stroke-linecap:round; stroke-linejoin:round; stroke-width:8; stroke-opacity:1; fill:none" points="155.765,1384.24 157.964,1383.37 160.163,1382.5 162.362,1381.61 164.562,1380.72 166.761,1379.82 168.96,1378.91 171.159,1377.99 173.358,1377.06 175.558,1376.13 177.757,1375.18 179.956,1374.22 182.155,1373.26 184.354,1372.28 186.554,1371.29 188.753,1370.3 190.952,1369.29 193.151,1368.28 195.35,1367.25 197.55,1366.21 199.749,1365.17 201.948,1364.11 204.147,1363.04 206.346,1361.96 208.545,1360.87 210.745,1359.77 212.944,1358.66 215.143,1357.53 217.342,1356.4 219.541,1355.25 221.741,1354.1 223.94,1352.93 226.139,1351.75 228.338,1350.56 230.537,1349.35 232.737,1348.13 234.936,1346.9 237.135,1345.66 239.334,1344.41 241.533,1343.14 243.733,1341.86 245.932,1340.57 248.131,1339.27 250.33,1337.95 252.529,1336.62 254.728,1335.27 256.928,1333.91 259.127,1332.54 261.326,1331.16 263.525,1329.76 265.724,1328.34 267.924,1326.92 270.123,1325.47 272.322,1324.02 274.521,1322.54 276.72,1321.06 278.92,1319.56 281.119,1318.04 283.318,1316.51 285.517,1314.96 287.716,1313.4 289.916,1311.82 292.115,1310.23 294.314,1308.62 296.513,1306.99 298.712,1305.35 300.911,1303.69 303.111,1302.01 305.31,1300.32 307.509,1298.61 309.708,1296.88 311.907,1295.14 314.107,1293.37 316.306,1291.6 318.505,1289.8 320.704,1287.98 322.903,1286.15 325.103,1284.29 327.302,1282.42 329.501,1280.53 331.7,1278.62 333.899,1276.7 336.099,1274.75 338.298,1272.78 340.497,1270.79 342.696,1268.79 344.895,1266.76 347.094,1264.71 349.294,1262.64 351.493,1260.56 353.692,1258.45 355.891,1256.31 358.09,1254.16 360.29,1251.99 362.489,1249.79 364.688,1247.57 366.887,1245.33 369.086,1243.07 371.286,1240.78 373.485,1238.48 375.684,1236.14 377.883,1233.79 380.082,1231.41 382.281,1229 384.481,1226.58 386.68,1224.13 388.879,1221.65 391.078,1219.15 393.277,1216.62 395.477,1214.07 397.676,1211.49 399.875,1208.89 402.074,1206.26 404.273,1203.6 406.473,1200.92 408.672,1198.21 410.871,1195.47 413.07,1192.71 415.269,1189.91 417.469,1187.09 419.668,1184.24 421.867,1181.37 424.066,1178.46 426.265,1175.52 428.464,1172.56 430.664,1169.56 432.863,1166.54 435.062,1163.48 437.261,1160.4 439.46,1157.28 441.66,1154.13 443.859,1150.95 446.058,1147.74 448.257,1144.49 450.456,1141.21 452.656,1137.9 454.855,1134.56 457.054,1131.18 459.253,1127.77 461.452,1124.32 463.652,1120.84 465.851,1117.33 468.05,1113.78 470.249,1110.19 472.448,1106.57 474.647,1102.91 476.847,1099.21 479.046,1095.48 481.245,1091.71 483.444,1087.9 485.643,1084.05 487.843,1080.17 490.042,1076.24 492.241,1072.28 494.44,1068.28 496.639,1064.23 498.839,1060.15 501.038,1056.02 503.237,1051.85 505.436,1047.64 507.635,1043.39 509.835,1039.1 512.034,1034.76 514.233,1030.38 516.432,1025.95 518.631,1021.48 520.83,1016.96 523.03,1012.4 525.229,1007.8 527.428,1003.14 529.627,998.445 531.826,993.698 534.026,988.903 536.225,984.06 538.424,979.168 540.623,974.227 542.822,969.237 545.022,964.196 547.221,959.104 549.42,953.962 551.619,948.767 553.818,943.52 556.018,938.221 558.217,932.868 560.416,927.462 562.615,922.001 564.814,916.485 567.013,910.914 569.213,905.287 571.412,899.603 573.611,893.862 575.81,888.064 578.009,882.207 580.209,876.291 582.408,870.316 584.607,864.28 586.806,858.184 589.005,852.026 591.205,845.807 593.404,839.525 595.603,833.179 597.802,826.77 600.001,820.297 602.201,813.758 604.4,807.153 606.599,800.482 608.798,793.744 610.997,786.937 613.196,780.063 615.396,773.119 617.595,766.105 619.794,759.02 621.993,751.865 624.192,744.637 626.392,737.336 628.591,729.962 630.79,722.514 632.989,714.991 635.188,707.392 637.388,699.716 639.587,691.963 641.786,684.133 643.985,676.223 646.184,668.234 648.384,660.165 650.583,652.015 652.782,643.782 654.981,635.467 657.18,627.069 659.379,618.585 661.579,610.017 663.778,601.362 665.977,592.621 668.176,583.791 670.375,574.873 672.575,565.865 674.774,556.766 676.973,547.576 679.172,538.293 681.371,528.917 683.571,519.446 685.77,509.88 687.969,500.218 690.168,490.459 692.367,480.602 694.567,470.645 696.766,460.589 698.965,450.431 701.164,440.171 703.363,950.05 705.562,944.816 707.762,939.529 709.961,934.189 712.16,928.796 714.359,923.348 716.558,917.846 718.758,912.288 720.957,906.674 723.156,901.004 725.355,895.276 727.554,889.491 729.754,883.648 731.953,877.747 734.152,871.786 736.351,865.765 738.55,859.683 740.749,853.541 742.949,847.336 745.148,841.07 747.347,834.74 749.546,828.347 751.745,821.889 753.945,815.366 756.144,808.778 758.343,802.124 760.542,795.403 762.741,788.614 764.941,781.757 767.14,774.83 769.339,767.834 771.538,760.768 773.737,753.631 775.937,746.421 778.136,739.14 780.335,731.784 782.534,724.355 784.733,716.851 786.932,709.272 789.132,701.616 791.331,693.883 793.53,686.072 795.729,678.183 797.928,670.214 800.128,662.165 802.327,654.034 804.526,645.822 806.725,637.527 808.924,629.149 811.124,620.687 813.323,612.139 815.522,603.505 817.721,594.784 819.92,585.975 822.12,577.078 824.319,568.091 826.518,559.014 828.717,549.846 830.916,540.585 833.115,531.232 835.315,521.784 837.514,512.241 839.713,502.603 841.912,492.868 844.111,483.034 846.311,473.102 848.51,463.07 850.709,452.938 852.908,442.703 855.107,432.365 857.307,421.923 859.506,411.376 861.705,400.723 863.904,930.124 866.103,924.69 868.303,919.201 870.502,913.656 872.701,908.056 874.9,902.4 877.099,896.686 879.298,890.915 881.498,885.086 883.697,879.199 885.896,873.252 888.095,867.246 890.294,861.179 892.494,855.051 894.693,848.862 896.892,842.611 899.091,836.296 901.29,829.919 903.49,823.477 905.689,816.97 907.888,810.399 910.087,803.761 912.286,797.056 914.486,790.284 916.685,783.444 918.884,776.535 921.083,769.557 923.282,762.509 925.481,755.39 927.681,748.199 929.88,740.936 932.079,733.599 934.278,726.189 936.477,718.705 938.677,711.145 940.876,703.509 943.075,695.796 945.274,688.005 947.473,680.136 949.673,672.188 951.872,664.16 954.071,656.051 956.27,647.86 958.469,639.586 960.669,631.23 962.868,622.789 965.067,614.263 967.266,605.651 969.465,596.952 971.664,588.166 973.864,579.291 976.063,570.327 978.262,561.272 980.461,552.127 982.66,542.889 984.86,533.558 987.059,524.133 989.258,514.613 991.457,504.997 993.656,495.285 995.856,485.474 998.055,475.565 1000.25,465.556 1002.45,455.447 1004.65,445.236 1006.85,434.922 1009.05,424.504 1011.25,413.982 1013.45,403.354 1015.65,392.62 1017.85,381.777 1020.05,370.826 1022.25,359.765 1024.45,348.593 1026.64,337.308 1028.84,325.91 1031.04,314.397 1033.24,302.769 1035.44,291.023 1037.64,279.159 1039.84,267.176 1042.04,255.072 1044.24,242.847 1046.44,230.499 1048.64,218.026 1050.84,205.428 1053.03,192.703 1055.23,179.85 1057.43,166.868 1059.63,153.755 1061.83,140.51 1064.03,127.133 1066.23,113.62 1068.43,99.9715 1070.63,86.1857 1072.83,771.277 1075.03,764.245 1077.23,757.142 1079.42,749.967 1081.62,742.721 1083.82,735.401 1086.02,728.008 1088.22,720.54 1090.42,712.997 1092.62,705.379 1094.82,697.684 1097.02,689.911 1099.22,682.06 1101.42,674.131 1103.62,666.121 1105.82,658.031 1108.01,649.86 1110.21,641.606 1112.41,633.269 1114.61,624.849 1116.81,616.344 1119.01,607.753 1121.21,599.076 1123.41,590.311 1125.61,581.459 1127.81,572.517 1130.01,563.485 1132.21,554.363 1134.4,545.148 1136.6,535.841 1138.8,526.44 1141,516.945 1143.2,507.354 1145.4,497.666 1147.6,487.881 1149.8,477.998 1152,468.015 1154.2,457.932 1156.4,447.747 1158.6,437.46 1160.79,427.069 1162.99,416.574 1165.19,405.973 1167.39,395.265 1169.59,384.45 1171.79,921.909 1173.99,916.392 1176.19,910.819 1178.39,1187.74 1180.59,1184.9 1182.79,1182.03 1184.99,1179.13 1187.19,1176.2 1189.38,1173.24 1191.58,1170.25 1193.78,1167.23 1195.98,1164.18 1198.18,1161.1 1200.38,1157.99 1202.58,1154.85 1204.78,1151.68 1206.98,1148.47 1209.18,1145.24 1211.38,1141.97 1213.58,1138.66 1215.77,1135.33 1217.97,1131.96 1220.17,1128.55 1222.37,1125.11 1224.57,1121.64 1226.77,1118.13 1228.97,1114.59 1231.17,1111.01 1233.37,1107.4 1235.57,1103.75 1237.77,1100.06 1239.97,1096.34 1242.16,1092.57 1244.36,1088.77 1246.56,1084.94 1248.76,1081.06 1250.96,1077.14 1253.16,1073.19 1255.36,1069.19 1257.56,1065.16 1259.76,1061.08 1261.96,1056.96 1264.16,1052.81 1266.36,1048.61 1268.56,1044.36 1270.75,1040.08 1272.95,1035.75 1275.15,1031.38 1277.35,1026.96 1279.55,1022.5 1281.75,1018 1283.95,1013.45 1286.15,1008.85 1288.35,1004.21 1290.55,999.523 1292.75,994.787 1294.95,990.003 1297.14,985.171 1299.34,980.291 1301.54,975.361 1303.74,970.382 1305.94,965.353 1308.14,960.273 1310.34,955.142 1312.54,949.959 1314.74,944.725 1316.94,939.437 1319.14,934.097 1321.34,928.702 1323.53,923.254 1325.73,917.75 1327.93,912.192 1330.13,906.577 1332.33,900.906 1334.53,895.178 1336.73,889.392 1338.93,883.548 1341.13,877.645 1343.33,871.683 1345.53,865.661 1347.73,859.579 1349.93,853.435 1352.12,847.229 1354.32,840.961 1356.52,834.63 1358.72,828.235 1360.92,821.776 1363.12,815.252 1365.32,808.662 1367.52,802.006 1369.72,795.283 1371.92,788.492 1374.12,781.633 1376.32,774.705 1378.51,767.707 1380.71,760.639 1382.91,753.499 1385.11,746.288 1387.31,739.004 1389.51,731.647 1391.71,724.216 1393.91,716.71 1396.11,709.129 1398.31,701.471 1400.51,693.737 1402.71,685.925 1404.9,678.034 1407.1,670.063 1409.3,662.013 1411.5,653.881 1413.7,645.668 1415.9,637.372 1418.1,628.993 1420.3,620.529 1422.5,611.98 1424.7,603.345 1426.9,594.624 1429.1,585.814 1431.3,576.916 1433.49,1019.11 1435.69,1014.57 1437.89,1009.99 1440.09,1005.35 1442.29,1000.68 1444.49,995.953 1446.69,991.181 1448.89,986.361 1451.09,981.492 1453.29,976.575 1455.49,971.608 1457.69,966.591 1459.88,961.524 1462.08,956.406 1464.28,951.236 1466.48,946.014 1468.68,940.74 1470.88,935.412 1473.08,930.031 1475.28,924.596 1477.48,919.106 1479.68,913.561 1481.88,907.96 1484.08,902.303 1486.27,896.589 1488.47,890.817 1490.67,884.988 1492.87,1174.7 1495.07,1171.72 1497.27,1168.72 1499.47,1165.68 1501.67,1162.62 1503.87,1159.52 1506.07,1156.4 1508.27,1153.24 1510.47,1150.05 1512.67,1308.56 1514.86,1306.93 1517.06,1305.29 1519.26,1303.63 1521.46,1301.95 1523.66,1300.26 1525.86,1298.55 1528.06,1296.82 1530.26,1295.08 1532.46,1293.31 1534.66,1291.53 1536.86,1289.73 1539.06,1287.92 1541.25,1286.08 1543.45,1284.23 1545.65,1282.36 1547.85,1280.47 1550.05,1278.56 1552.25,1276.63 1554.45,1274.68 1556.65,1272.71 1558.85,1270.72 1561.05,1268.72 1563.25,1266.69 1565.45,1264.64 1567.65,1262.57 1569.84,1260.48 1572.04,1258.37 1574.24,1256.24 1576.44,1254.09 1578.64,1251.91 1580.84,1249.71 1583.04,1247.5 1585.24,1245.25 1587.44,1242.99 1589.64,1240.7 1591.84,1238.39 1594.04,1236.06 1596.23,1233.7 1598.43,1231.32 1600.63,1228.92 1602.83,1226.49 1605.03,1224.04 1607.23,1221.56 1609.43,1219.06 1611.63,1216.53 1613.83,1213.98 1616.03,1211.4 1618.23,1208.8 1620.43,1206.16 1622.62,1203.51 1624.82,1200.82 1627.02,1198.11 1629.22,1195.37 1631.42,1192.61 1633.62,1189.82 1635.82,1186.99 1638.02,1184.14 1640.22,1181.27 1642.42,1178.36 1644.62,1175.42 1646.82,1172.45 1649.02,1169.46 1651.21,1166.43 1653.41,1163.37 1655.61,1160.29 1657.81,1157.17 1660.01,1154.02 1662.21,1150.84 1664.41,1147.62 1666.61,1144.38 1668.81,1141.1 1671.01,1137.79 1673.21,1134.44 1675.41,1300.68 1677.6,1298.97 1679.8,1297.25 1682,1295.51 1684.2,1293.75 1686.4,1291.97 1688.6,1290.18 1690.8,1288.36 1693,1286.53 1695.2,1284.69 1697.4,1282.82 1699.6,1280.93 1701.8,1279.03 1703.99,1277.1 1706.19,1275.16 1708.39,1273.2 1710.59,1271.21 1712.79,1269.21 1714.99,1267.19 1717.19,1265.15 1719.39,1263.08 1721.59,1261 1723.79,1258.89 1725.99,1256.77 1728.19,1254.62 1730.39,1252.45 1732.58,1250.26 1734.78,1248.04 1736.98,1245.81 1739.18,1243.55 1741.38,1241.27 1743.58,1238.96 1745.78,1236.64 1747.98,1234.29 1750.18,1231.91 1752.38,1229.51 1754.58,1227.09 1756.78,1224.64 1758.97,1222.17 1761.17,1219.68 1763.37,1217.15 1765.57,1214.61 1767.77,1212.04 1769.97,1209.44 1772.17,1206.81 1774.37,1204.16 1776.57,1201.49 1778.77,1198.78 1780.97,1196.05 1783.17,1193.29 1785.36,1190.5 1787.56,1187.69 1789.76,1184.85 1791.96,1181.97 1794.16,1179.07 1796.36,1176.14 1798.56,1173.18 1800.76,1170.2 1802.96,1167.18 1805.16,1164.13 1807.36,1161.05 1809.56,1157.94 1811.76,1154.79 1813.95,1151.62 1816.15,1148.41 1818.35,1145.18 1820.55,1141.91 1822.75,1138.6 1824.95,1135.27 1827.15,1131.89 1829.35,1128.49 1831.55,1125.05 1833.75,1121.58 1835.95,1118.07 1838.15,1114.53 1840.34,1110.95 1842.54,1107.33 1844.74,1103.68 1846.94,1099.99 1849.14,1096.27 1851.34,1092.51 1853.54,1088.71 1855.74,1084.87 1857.94,1080.99 1860.14,1077.07 1862.34,1073.12 1864.54,1069.12 1866.73,1065.08 1868.93,1061.01 1871.13,1056.89 1873.33,1052.73 1875.53,1048.53 1877.73,1044.29 1879.93,1040 1882.13,1035.67 1884.33,1031.3 1886.53,1026.88 1888.73,1022.42 1890.93,1017.92 1893.13,1013.37 1895.32,1008.77 1897.52,1004.13 1899.72,999.436 1901.92,994.699 1904.12,989.915 1906.32,985.082 1908.52,980.2 1910.72,975.27 1912.92,970.29 1915.12,965.26 1917.32,960.179 1919.52,955.047 1921.71,949.864 1923.91,944.629 1926.11,939.34 1928.31,933.999 1930.51,928.604 1932.71,923.155 1934.91,917.651 1937.11,912.092 1939.31,906.477 1941.51,900.805 1943.71,895.076 1945.91,889.29 1948.1,883.445 1950.3,877.542 1952.5,871.579 1954.7,865.556 1956.9,859.473 1959.1,853.328 1961.3,847.122 1963.5,840.853 1965.7,834.521 1967.9,828.125 1970.1,821.665 1972.3,815.139 1974.5,808.548 1976.69,801.891 1978.89,795.167 1981.09,788.375 1983.29,781.514 1985.49,774.585 1987.69,767.586 1989.89,760.516 1992.09,753.375 1994.29,746.162 1996.49,738.877 1998.69,731.518 2000.89,724.085 2003.08,716.578 2005.28,708.994 2007.48,701.335 2009.68,693.599 2011.88,685.785 2014.08,677.892 2016.28,669.92 2018.48,661.868 2020.68,653.735 2022.88,645.52 2025.08,637.223 2027.28,628.842 2029.47,620.376 2031.67,611.826 2033.87,603.19 2036.07,594.466 2038.27,585.655 2040.47,576.756 2042.67,567.767 2044.87,558.687 2047.07,549.516 2049.27,540.253 2051.47,530.896 2053.67,521.446 2055.87,511.9 2058.06,502.259 2060.26,492.52 2062.46,482.683 2064.66,472.748 2066.86,462.712 2069.06,452.576 2071.26,442.337 2073.46,431.996 2075.66,421.55 2077.86,410.999 2080.06,400.343 2082.26,929.938 2084.45,924.502 2086.65,919.011 2088.85,913.465 2091.05,907.863 2093.25,902.205 2095.45,896.489 2097.65,890.717 2099.85,884.886 2102.05,878.996 2104.25,873.048 2106.45,867.039 2108.65,860.97 2110.84,854.841 2113.04,848.649 2115.24,842.395 2117.44,836.079 2119.64,829.699 2121.84,823.255 2124.04,816.746 2126.24,810.171 2128.44,803.531 2130.64,796.824 2132.84,790.049 2135.04,783.206 2137.24,776.295 2139.43,769.313 2141.63,762.262 2143.83,755.14 2146.03,747.946 2148.23,740.679 2150.43,733.34 2152.63,725.927 2154.83,718.439 2157.03,710.875 2159.23,703.236 2161.43,695.519 2163.63,687.725 2165.82,679.853 2168.02,671.901 2170.22,663.869 2172.42,655.756 2174.62,647.562 2176.82,639.285 2179.02,630.924 2181.22,622.48 2183.42,613.95 2185.62,605.335 2187.82,596.633 2190.02,587.843 2192.22,578.965 2194.41,569.997 2196.61,560.939 2198.81,551.79 2201.01,542.549 2203.21,533.215 2205.41,523.787 2207.61,514.264 2209.81,504.645 2212.01,494.93 2214.21,485.117 2216.41,475.206 2218.61,465.195 2220.8,455.083 2223,444.87 2225.2,434.554 2227.4,947.212 2229.6,941.949 2231.8,936.634 2234,931.265 2236.2,925.843 2238.4,920.365 2240.6,914.833 2242.8,909.245 2245,903.601 2247.19,897.9 2249.39,892.141 2251.59,886.325 2253.79,880.45 2255.99,874.516 2258.19,868.522 2260.39,862.468 2262.59,856.354 2264.79,850.177 2266.99,843.939 2269.19,837.637 2271.39,831.273 2273.59,824.844 2275.78,818.351 2277.98,811.792 2280.18,1137.73 2282.38,1134.38 2284.58,1131 2286.78,1127.59 2288.98,1124.14 2291.18,1120.66 2293.38,1117.14 2295.58,1113.59 2297.78,1110 2299.98,1106.38 2302.17,1102.72 2304.37,1099.02 2306.57,1095.28 2308.77,1091.51 2310.97,1087.7 2313.17,1083.85 2315.37,1079.96 2317.57,1076.04 2319.77,1072.07 2321.97,1068.07 2324.17,1064.02 2326.37,1059.93 2328.56,1055.8 2330.76,1051.63 2332.96,1047.42 2335.16,1043.17 2337.36,1038.87 2339.56,1252.41 2341.76,1250.22 2343.96,1248 2346.16,1245.77 2348.36,1243.51 2350.56,1241.23 2352.76,1238.92 "/>
<path clip-path="url(#clip020)" d="M1952.14 196.789 L2279.52 196.789 L2279.52 93.1086 L1952.14 93.1086  Z" fill="#ffffff" fill-rule="evenodd" fill-opacity="1"/>
<polyline clip-path="url(#clip020)" style="stroke:#000000; stroke-linecap:round; stroke-linejoin:round; stroke-width:4; stroke-opacity:1; fill:none" points="1952.14,196.789 2279.52,196.789 2279.52,93.1086 1952.14,93.1086 1952.14,196.789 "/>
<polyline clip-path="url(#clip020)" style="stroke:#009af9; stroke-linecap:round; stroke-linejoin:round; stroke-width:8; stroke-opacity:1; fill:none" points="1976.55,144.949 2123.02,144.949 "/>
<path clip-path="url(#clip020)" d="M2147.43 151.997 L2147.43 136.303 L2151.69 136.303 L2151.69 151.835 Q2151.69 155.516 2153.12 157.368 Q2154.56 159.196 2157.43 159.196 Q2160.88 159.196 2162.87 156.997 Q2164.88 154.798 2164.88 151.002 L2164.88 136.303 L2169.14 136.303 L2169.14 162.229 L2164.88 162.229 L2164.88 158.247 Q2163.33 160.608 2161.27 161.766 Q2159.23 162.9 2156.52 162.9 Q2152.06 162.9 2149.74 160.122 Q2147.43 157.344 2147.43 151.997 M2158.14 135.678 L2158.14 135.678 Z" fill="#000000" fill-rule="nonzero" fill-opacity="1" /><path clip-path="url(#clip020)" d="M2179.33 158.293 L2186.96 158.293 L2186.96 131.928 L2178.65 133.595 L2178.65 129.335 L2186.92 127.669 L2191.59 127.669 L2191.59 158.293 L2199.23 158.293 L2199.23 162.229 L2179.33 162.229 L2179.33 158.293 Z" fill="#000000" fill-rule="nonzero" fill-opacity="1" /><path clip-path="url(#clip020)" d="M2218.31 126.257 Q2215.2 131.581 2213.7 136.789 Q2212.2 141.997 2212.2 147.344 Q2212.2 152.692 2213.7 157.946 Q2215.23 163.178 2218.31 168.479 L2214.6 168.479 Q2211.13 163.039 2209.39 157.784 Q2207.68 152.53 2207.68 147.344 Q2207.68 142.182 2209.39 136.951 Q2211.11 131.72 2214.6 126.257 L2218.31 126.257 Z" fill="#000000" fill-rule="nonzero" fill-opacity="1" /><path clip-path="url(#clip020)" d="M2230.78 128.942 L2230.78 136.303 L2239.56 136.303 L2239.56 139.613 L2230.78 139.613 L2230.78 153.687 Q2230.78 156.858 2231.64 157.761 Q2232.52 158.664 2235.18 158.664 L2239.56 158.664 L2239.56 162.229 L2235.18 162.229 Q2230.25 162.229 2228.38 160.4 Q2226.5 158.548 2226.5 153.687 L2226.5 139.613 L2223.38 139.613 L2223.38 136.303 L2226.5 136.303 L2226.5 128.942 L2230.78 128.942 Z" fill="#000000" fill-rule="nonzero" fill-opacity="1" /><path clip-path="url(#clip020)" d="M2244.49 126.257 L2248.19 126.257 Q2251.66 131.72 2253.38 136.951 Q2255.11 142.182 2255.11 147.344 Q2255.11 152.53 2253.38 157.784 Q2251.66 163.039 2248.19 168.479 L2244.49 168.479 Q2247.57 163.178 2249.07 157.946 Q2250.6 152.692 2250.6 147.344 Q2250.6 141.997 2249.07 136.789 Q2247.57 131.581 2244.49 126.257 Z" fill="#000000" fill-rule="nonzero" fill-opacity="1" /></svg>
