<?xml version="1.0" encoding="utf-8"?>
<svg xmlns="http://www.w3.org/2000/svg" xmlns:xlink="http://www.w3.org/1999/xlink" width="600" height="400" viewBox="0 0 2400 1600">
<defs>
  <clipPath id="clip370">
    <rect x="0" y="0" width="2400" height="1600"/>
  </clipPath>
</defs>
<path clip-path="url(#clip370)" d="M0 1600 L2400 1600 L2400 0 L0 0  Z" fill="#ffffff" fill-rule="evenodd" fill-opacity="1"/>
<defs>
  <clipPath id="clip371">
    <rect x="480" y="0" width="1681" height="1600"/>
  </clipPath>
</defs>
<path clip-path="url(#clip370)" d="M138.959 1423.18 L2352.76 1423.18 L2352.76 47.2441 L138.959 47.2441  Z" fill="#ffffff" fill-rule="evenodd" fill-opacity="1"/>
<defs>
  <clipPath id="clip372">
    <rect x="138" y="47" width="2215" height="1377"/>
  </clipPath>
</defs>
<polyline clip-path="url(#clip372)" style="stroke:#000000; stroke-linecap:round; stroke-linejoin:round; stroke-width:2; stroke-opacity:0.1; fill:none" points="138.959,1423.18 138.959,47.2441 "/>
<polyline clip-path="url(#clip372)" style="stroke:#000000; stroke-linecap:round; stroke-linejoin:round; stroke-width:2; stroke-opacity:0.1; fill:none" points="581.719,1423.18 581.719,47.2441 "/>
<polyline clip-path="url(#clip372)" style="stroke:#000000; stroke-linecap:round; stroke-linejoin:round; stroke-width:2; stroke-opacity:0.1; fill:none" points="1024.48,1423.18 1024.48,47.2441 "/>
<polyline clip-path="url(#clip372)" style="stroke:#000000; stroke-linecap:round; stroke-linejoin:round; stroke-width:2; stroke-opacity:0.1; fill:none" points="1467.24,1423.18 1467.24,47.2441 "/>
<polyline clip-path="url(#clip372)" style="stroke:#000000; stroke-linecap:round; stroke-linejoin:round; stroke-width:2; stroke-opacity:0.1; fill:none" points="1910,1423.18 1910,47.2441 "/>
<polyline clip-path="url(#clip372)" style="stroke:#000000; stroke-linecap:round; stroke-linejoin:round; stroke-width:2; stroke-opacity:0.1; fill:none" points="2352.76,1423.18 2352.76,47.2441 "/>
<polyline clip-path="url(#clip370)" style="stroke:#000000; stroke-linecap:round; stroke-linejoin:round; stroke-width:4; stroke-opacity:1; fill:none" points="138.959,1423.18 2352.76,1423.18 "/>
<polyline clip-path="url(#clip370)" style="stroke:#000000; stroke-linecap:round; stroke-linejoin:round; stroke-width:4; stroke-opacity:1; fill:none" points="138.959,1423.18 138.959,1404.28 "/>
<polyline clip-path="url(#clip370)" style="stroke:#000000; stroke-linecap:round; stroke-linejoin:round; stroke-width:4; stroke-opacity:1; fill:none" points="581.719,1423.18 581.719,1404.28 "/>
<polyline clip-path="url(#clip370)" style="stroke:#000000; stroke-linecap:round; stroke-linejoin:round; stroke-width:4; stroke-opacity:1; fill:none" points="1024.48,1423.18 1024.48,1404.28 "/>
<polyline clip-path="url(#clip370)" style="stroke:#000000; stroke-linecap:round; stroke-linejoin:round; stroke-width:4; stroke-opacity:1; fill:none" points="1467.24,1423.18 1467.24,1404.28 "/>
<polyline clip-path="url(#clip370)" style="stroke:#000000; stroke-linecap:round; stroke-linejoin:round; stroke-width:4; stroke-opacity:1; fill:none" points="1910,1423.18 1910,1404.28 "/>
<polyline clip-path="url(#clip370)" style="stroke:#000000; stroke-linecap:round; stroke-linejoin:round; stroke-width:4; stroke-opacity:1; fill:none" points="2352.76,1423.18 2352.76,1404.28 "/>
<path clip-path="url(#clip370)" d="M138.959 1454.1 Q135.348 1454.1 133.52 1457.66 Q131.714 1461.2 131.714 1468.33 Q131.714 1475.44 133.52 1479.01 Q135.348 1482.55 138.959 1482.55 Q142.594 1482.55 144.399 1479.01 Q146.228 1475.44 146.228 1468.33 Q146.228 1461.2 144.399 1457.66 Q142.594 1454.1 138.959 1454.1 M138.959 1450.39 Q144.77 1450.39 147.825 1455 Q150.904 1459.58 150.904 1468.33 Q150.904 1477.06 147.825 1481.67 Q144.77 1486.25 138.959 1486.25 Q133.149 1486.25 130.071 1481.67 Q127.015 1477.06 127.015 1468.33 Q127.015 1459.58 130.071 1455 Q133.149 1450.39 138.959 1450.39 Z" fill="#000000" fill-rule="nonzero" fill-opacity="1" /><path clip-path="url(#clip370)" d="M576.372 1481.64 L592.691 1481.64 L592.691 1485.58 L570.747 1485.58 L570.747 1481.64 Q573.409 1478.89 577.992 1474.26 Q582.598 1469.61 583.779 1468.27 Q586.024 1465.74 586.904 1464.01 Q587.807 1462.25 587.807 1460.56 Q587.807 1457.8 585.862 1456.07 Q583.941 1454.33 580.839 1454.33 Q578.64 1454.33 576.186 1455.09 Q573.756 1455.86 570.978 1457.41 L570.978 1452.69 Q573.802 1451.55 576.256 1450.97 Q578.709 1450.39 580.747 1450.39 Q586.117 1450.39 589.311 1453.08 Q592.506 1455.77 592.506 1460.26 Q592.506 1462.39 591.696 1464.31 Q590.908 1466.2 588.802 1468.8 Q588.223 1469.47 585.121 1472.69 Q582.02 1475.88 576.372 1481.64 Z" fill="#000000" fill-rule="nonzero" fill-opacity="1" /><path clip-path="url(#clip370)" d="M1027.49 1455.09 L1015.68 1473.54 L1027.49 1473.54 L1027.49 1455.09 M1026.26 1451.02 L1032.14 1451.02 L1032.14 1473.54 L1037.07 1473.54 L1037.07 1477.43 L1032.14 1477.43 L1032.14 1485.58 L1027.49 1485.58 L1027.49 1477.43 L1011.89 1477.43 L1011.89 1472.92 L1026.26 1451.02 Z" fill="#000000" fill-rule="nonzero" fill-opacity="1" /><path clip-path="url(#clip370)" d="M1467.64 1466.44 Q1464.49 1466.44 1462.64 1468.59 Q1460.81 1470.74 1460.81 1474.49 Q1460.81 1478.22 1462.64 1480.39 Q1464.49 1482.55 1467.64 1482.55 Q1470.79 1482.55 1472.62 1480.39 Q1474.47 1478.22 1474.47 1474.49 Q1474.47 1470.74 1472.62 1468.59 Q1470.79 1466.44 1467.64 1466.44 M1476.92 1451.78 L1476.92 1456.04 Q1475.17 1455.21 1473.36 1454.77 Q1471.58 1454.33 1469.82 1454.33 Q1465.19 1454.33 1462.74 1457.45 Q1460.3 1460.58 1459.96 1466.9 Q1461.32 1464.89 1463.38 1463.82 Q1465.44 1462.73 1467.92 1462.73 Q1473.13 1462.73 1476.14 1465.9 Q1479.17 1469.05 1479.17 1474.49 Q1479.17 1479.82 1476.02 1483.03 Q1472.87 1486.25 1467.64 1486.25 Q1461.65 1486.25 1458.48 1481.67 Q1455.3 1477.06 1455.3 1468.33 Q1455.3 1460.14 1459.19 1455.28 Q1463.08 1450.39 1469.63 1450.39 Q1471.39 1450.39 1473.17 1450.74 Q1474.98 1451.09 1476.92 1451.78 Z" fill="#000000" fill-rule="nonzero" fill-opacity="1" /><path clip-path="url(#clip370)" d="M1910 1469.17 Q1906.66 1469.17 1904.74 1470.95 Q1902.84 1472.73 1902.84 1475.86 Q1902.84 1478.98 1904.74 1480.77 Q1906.66 1482.55 1910 1482.55 Q1913.33 1482.55 1915.25 1480.77 Q1917.17 1478.96 1917.17 1475.86 Q1917.17 1472.73 1915.25 1470.95 Q1913.35 1469.17 1910 1469.17 M1905.32 1467.18 Q1902.31 1466.44 1900.62 1464.38 Q1898.96 1462.32 1898.96 1459.35 Q1898.96 1455.21 1901.89 1452.8 Q1904.86 1450.39 1910 1450.39 Q1915.16 1450.39 1918.1 1452.8 Q1921.04 1455.21 1921.04 1459.35 Q1921.04 1462.32 1919.35 1464.38 Q1917.68 1466.44 1914.7 1467.18 Q1918.08 1467.96 1919.95 1470.26 Q1921.85 1472.55 1921.85 1475.86 Q1921.85 1480.88 1918.77 1483.57 Q1915.71 1486.25 1910 1486.25 Q1904.28 1486.25 1901.2 1483.57 Q1898.14 1480.88 1898.14 1475.86 Q1898.14 1472.55 1900.04 1470.26 Q1901.94 1467.96 1905.32 1467.18 M1903.61 1459.79 Q1903.61 1462.48 1905.27 1463.98 Q1906.96 1465.49 1910 1465.49 Q1913.01 1465.49 1914.7 1463.98 Q1916.41 1462.48 1916.41 1459.79 Q1916.41 1457.11 1914.7 1455.6 Q1913.01 1454.1 1910 1454.1 Q1906.96 1454.1 1905.27 1455.6 Q1903.61 1457.11 1903.61 1459.79 Z" fill="#000000" fill-rule="nonzero" fill-opacity="1" /><path clip-path="url(#clip370)" d="M2327.44 1481.64 L2335.08 1481.64 L2335.08 1455.28 L2326.77 1456.95 L2326.77 1452.69 L2335.04 1451.02 L2339.71 1451.02 L2339.71 1481.64 L2347.35 1481.64 L2347.35 1485.58 L2327.44 1485.58 L2327.44 1481.64 Z" fill="#000000" fill-rule="nonzero" fill-opacity="1" /><path clip-path="url(#clip370)" d="M2366.8 1454.1 Q2363.18 1454.1 2361.36 1457.66 Q2359.55 1461.2 2359.55 1468.33 Q2359.55 1475.44 2361.36 1479.01 Q2363.18 1482.55 2366.8 1482.55 Q2370.43 1482.55 2372.23 1479.01 Q2374.06 1475.44 2374.06 1468.33 Q2374.06 1461.2 2372.23 1457.66 Q2370.43 1454.1 2366.8 1454.1 M2366.8 1450.39 Q2372.61 1450.39 2375.66 1455 Q2378.74 1459.58 2378.74 1468.33 Q2378.74 1477.06 2375.66 1481.67 Q2372.61 1486.25 2366.8 1486.25 Q2360.99 1486.25 2357.91 1481.67 Q2354.85 1477.06 2354.85 1468.33 Q2354.85 1459.58 2357.91 1455 Q2360.99 1450.39 2366.8 1450.39 Z" fill="#000000" fill-rule="nonzero" fill-opacity="1" /><path clip-path="url(#clip370)" d="M1244.92 1522.27 L1244.92 1532.4 L1256.98 1532.4 L1256.98 1536.95 L1244.92 1536.95 L1244.92 1556.3 Q1244.92 1560.66 1246.1 1561.9 Q1247.31 1563.14 1250.97 1563.14 L1256.98 1563.14 L1256.98 1568.04 L1250.97 1568.04 Q1244.19 1568.04 1241.61 1565.53 Q1239.03 1562.98 1239.03 1556.3 L1239.03 1536.95 L1234.73 1536.95 L1234.73 1532.4 L1239.03 1532.4 L1239.03 1522.27 L1244.92 1522.27 Z" fill="#000000" fill-rule="nonzero" fill-opacity="1" /><polyline clip-path="url(#clip372)" style="stroke:#000000; stroke-linecap:round; stroke-linejoin:round; stroke-width:2; stroke-opacity:0.1; fill:none" points="138.959,1181.69 2352.76,1181.69 "/>
<polyline clip-path="url(#clip372)" style="stroke:#000000; stroke-linecap:round; stroke-linejoin:round; stroke-width:2; stroke-opacity:0.1; fill:none" points="138.959,877.385 2352.76,877.385 "/>
<polyline clip-path="url(#clip372)" style="stroke:#000000; stroke-linecap:round; stroke-linejoin:round; stroke-width:2; stroke-opacity:0.1; fill:none" points="138.959,573.077 2352.76,573.077 "/>
<polyline clip-path="url(#clip372)" style="stroke:#000000; stroke-linecap:round; stroke-linejoin:round; stroke-width:2; stroke-opacity:0.1; fill:none" points="138.959,268.77 2352.76,268.77 "/>
<polyline clip-path="url(#clip370)" style="stroke:#000000; stroke-linecap:round; stroke-linejoin:round; stroke-width:4; stroke-opacity:1; fill:none" points="138.959,1423.18 138.959,47.2441 "/>
<polyline clip-path="url(#clip370)" style="stroke:#000000; stroke-linecap:round; stroke-linejoin:round; stroke-width:4; stroke-opacity:1; fill:none" points="138.959,1181.69 157.857,1181.69 "/>
<polyline clip-path="url(#clip370)" style="stroke:#000000; stroke-linecap:round; stroke-linejoin:round; stroke-width:4; stroke-opacity:1; fill:none" points="138.959,877.385 157.857,877.385 "/>
<polyline clip-path="url(#clip370)" style="stroke:#000000; stroke-linecap:round; stroke-linejoin:round; stroke-width:4; stroke-opacity:1; fill:none" points="138.959,573.077 157.857,573.077 "/>
<polyline clip-path="url(#clip370)" style="stroke:#000000; stroke-linecap:round; stroke-linejoin:round; stroke-width:4; stroke-opacity:1; fill:none" points="138.959,268.77 157.857,268.77 "/>
<path clip-path="url(#clip370)" d="M91.0151 1167.49 Q87.404 1167.49 85.5753 1171.06 Q83.7697 1174.6 83.7697 1181.73 Q83.7697 1188.83 85.5753 1192.4 Q87.404 1195.94 91.0151 1195.94 Q94.6493 1195.94 96.4548 1192.4 Q98.2835 1188.83 98.2835 1181.73 Q98.2835 1174.6 96.4548 1171.06 Q94.6493 1167.49 91.0151 1167.49 M91.0151 1163.79 Q96.8252 1163.79 99.8808 1168.39 Q102.959 1172.98 102.959 1181.73 Q102.959 1190.45 99.8808 1195.06 Q96.8252 1199.64 91.0151 1199.64 Q85.2049 1199.64 82.1262 1195.06 Q79.0707 1190.45 79.0707 1181.73 Q79.0707 1172.98 82.1262 1168.39 Q85.2049 1163.79 91.0151 1163.79 Z" fill="#000000" fill-rule="nonzero" fill-opacity="1" /><path clip-path="url(#clip370)" d="M82.0568 860.105 L100.413 860.105 L100.413 864.04 L86.3392 864.04 L86.3392 872.512 Q87.3577 872.165 88.3762 872.003 Q89.3947 871.818 90.4132 871.818 Q96.2002 871.818 99.5798 874.989 Q102.959 878.16 102.959 883.577 Q102.959 889.155 99.4872 892.257 Q96.015 895.336 89.6956 895.336 Q87.5197 895.336 85.2512 894.966 Q83.0058 894.595 80.5984 893.855 L80.5984 889.155 Q82.6818 890.29 84.904 890.845 Q87.1262 891.401 89.603 891.401 Q93.6076 891.401 95.9456 889.294 Q98.2835 887.188 98.2835 883.577 Q98.2835 879.966 95.9456 877.859 Q93.6076 875.753 89.603 875.753 Q87.728 875.753 85.8531 876.169 Q84.0012 876.586 82.0568 877.466 L82.0568 860.105 Z" fill="#000000" fill-rule="nonzero" fill-opacity="1" /><path clip-path="url(#clip370)" d="M51.6634 586.422 L59.3023 586.422 L59.3023 560.057 L50.9921 561.723 L50.9921 557.464 L59.256 555.797 L63.9319 555.797 L63.9319 586.422 L71.5707 586.422 L71.5707 590.357 L51.6634 590.357 L51.6634 586.422 Z" fill="#000000" fill-rule="nonzero" fill-opacity="1" /><path clip-path="url(#clip370)" d="M91.0151 558.876 Q87.404 558.876 85.5753 562.441 Q83.7697 565.983 83.7697 573.112 Q83.7697 580.219 85.5753 583.783 Q87.404 587.325 91.0151 587.325 Q94.6493 587.325 96.4548 583.783 Q98.2835 580.219 98.2835 573.112 Q98.2835 565.983 96.4548 562.441 Q94.6493 558.876 91.0151 558.876 M91.0151 555.172 Q96.8252 555.172 99.8808 559.779 Q102.959 564.362 102.959 573.112 Q102.959 581.839 99.8808 586.445 Q96.8252 591.029 91.0151 591.029 Q85.2049 591.029 82.1262 586.445 Q79.0707 581.839 79.0707 573.112 Q79.0707 564.362 82.1262 559.779 Q85.2049 555.172 91.0151 555.172 Z" fill="#000000" fill-rule="nonzero" fill-opacity="1" /><path clip-path="url(#clip370)" d="M52.6588 282.115 L60.2976 282.115 L60.2976 255.749 L51.9875 257.416 L51.9875 253.157 L60.2513 251.49 L64.9272 251.49 L64.9272 282.115 L72.5661 282.115 L72.5661 286.05 L52.6588 286.05 L52.6588 282.115 Z" fill="#000000" fill-rule="nonzero" fill-opacity="1" /><path clip-path="url(#clip370)" d="M82.0568 251.49 L100.413 251.49 L100.413 255.425 L86.3392 255.425 L86.3392 263.897 Q87.3577 263.55 88.3762 263.388 Q89.3947 263.203 90.4132 263.203 Q96.2002 263.203 99.5798 266.374 Q102.959 269.546 102.959 274.962 Q102.959 280.541 99.4872 283.643 Q96.015 286.721 89.6956 286.721 Q87.5197 286.721 85.2512 286.351 Q83.0058 285.981 80.5984 285.24 L80.5984 280.541 Q82.6818 281.675 84.904 282.231 Q87.1262 282.786 89.603 282.786 Q93.6076 282.786 95.9456 280.68 Q98.2835 278.573 98.2835 274.962 Q98.2835 271.351 95.9456 269.245 Q93.6076 267.138 89.603 267.138 Q87.728 267.138 85.8531 267.555 Q84.0012 267.971 82.0568 268.851 L82.0568 251.49 Z" fill="#000000" fill-rule="nonzero" fill-opacity="1" /><polyline clip-path="url(#clip372)" style="stroke:#009af9; stroke-linecap:round; stroke-linejoin:round; stroke-width:8; stroke-opacity:1; fill:none" points="138.959,1181.69 141.175,1181.69 143.391,1181.69 145.607,1181.69 147.823,1181.69 150.04,1181.69 152.256,1181.69 154.472,1181.69 156.688,1181.69 158.904,1181.69 161.12,1181.69 163.336,1181.69 165.552,1181.69 167.768,1181.69 169.984,1181.69 172.2,1181.69 174.416,1181.69 176.632,1181.69 178.848,1181.69 181.064,1181.69 183.28,1181.69 185.496,1181.69 187.712,1181.69 189.928,1181.69 192.144,1181.69 194.36,1181.69 196.576,1181.69 198.792,1181.69 201.008,1181.69 203.224,1181.69 205.44,1181.69 207.656,1181.69 209.872,1181.69 212.088,1181.69 214.304,1181.69 216.52,1181.69 218.736,1181.69 220.952,1181.69 223.168,1181.69 225.384,1181.69 227.6,1181.69 229.816,1181.69 232.032,1181.69 234.248,1181.69 236.464,1181.69 238.68,1181.69 240.896,1181.69 243.112,1181.69 245.328,1181.69 247.544,1181.69 249.76,1181.69 251.976,1181.69 254.192,1181.69 256.408,1181.69 258.624,1181.69 260.84,1181.69 263.056,1181.69 265.272,1181.69 267.488,1181.69 269.704,1181.69 271.92,1181.69 274.136,1181.69 276.352,1181.69 278.568,1181.69 280.784,1120.83 283,1120.83 285.216,1120.83 287.432,1120.83 289.648,1120.83 291.864,1120.83 294.08,1120.83 296.296,1120.83 298.512,1120.83 300.728,1059.97 302.944,1059.97 305.16,1059.97 307.376,1059.97 309.592,1059.97 311.808,1059.97 314.024,1059.97 316.24,1059.97 318.456,1059.97 320.672,1059.97 322.888,1059.97 325.104,1059.97 327.321,1059.97 329.537,1059.97 331.753,1059.97 333.969,1059.97 336.185,1059.97 338.401,1059.97 340.617,1059.97 342.833,1059.97 345.049,1059.97 347.265,1059.97 349.481,1059.97 351.697,1059.97 353.913,1059.97 356.129,1059.97 358.345,1059.97 360.561,1059.97 362.777,1059.97 364.993,1059.97 367.209,1059.97 369.425,1059.97 371.641,1059.97 373.857,1059.97 376.073,1059.97 378.289,1059.97 380.505,999.108 382.721,999.108 384.937,999.108 387.153,999.108 389.369,999.108 391.585,999.108 393.801,999.108 396.017,999.108 398.233,999.108 400.449,999.108 402.665,999.108 404.881,999.108 407.097,999.108 409.313,999.108 411.529,999.108 413.745,1059.97 415.961,1059.97 418.177,1059.97 420.393,1059.97 422.609,1059.97 424.825,1059.97 427.041,1059.97 429.257,1059.97 431.473,1059.97 433.689,1059.97 435.905,1059.97 438.121,999.108 440.337,999.108 442.553,999.108 444.769,999.108 446.985,999.108 449.201,999.108 451.417,999.108 453.633,999.108 455.849,999.108 458.065,999.108 460.281,999.108 462.497,999.108 464.713,999.108 466.929,999.108 469.145,999.108 471.361,999.108 473.577,938.246 475.793,938.246 478.009,938.246 480.225,938.246 482.441,938.246 484.657,938.246 486.873,938.246 489.089,938.246 491.305,938.246 493.521,938.246 495.737,938.246 497.953,938.246 500.169,938.246 502.385,938.246 504.601,938.246 506.818,938.246 509.034,938.246 511.25,938.246 513.466,938.246 515.682,938.246 517.898,938.246 520.114,938.246 522.33,938.246 524.546,938.246 526.762,938.246 528.978,938.246 531.194,938.246 533.41,938.246 535.626,938.246 537.842,938.246 540.058,938.246 542.274,938.246 544.49,999.108 546.706,999.108 548.922,999.108 551.138,999.108 553.354,999.108 555.57,999.108 557.786,999.108 560.002,999.108 562.218,999.108 564.434,999.108 566.65,999.108 568.866,999.108 571.082,999.108 573.298,999.108 575.514,999.108 577.73,999.108 579.946,999.108 582.162,999.108 584.378,999.108 586.594,999.108 588.81,999.108 591.026,999.108 593.242,999.108 595.458,999.108 597.674,999.108 599.89,999.108 602.106,999.108 604.322,999.108 606.538,999.108 608.754,999.108 610.97,999.108 613.186,999.108 615.402,999.108 617.618,999.108 619.834,999.108 622.05,999.108 624.266,999.108 626.482,999.108 628.698,999.108 630.914,999.108 633.13,999.108 635.346,999.108 637.562,999.108 639.778,999.108 641.994,999.108 644.21,999.108 646.426,999.108 648.642,999.108 650.858,1059.97 653.074,1059.97 655.29,1059.97 657.506,1059.97 659.722,1059.97 661.938,1059.97 664.154,1059.97 666.37,1059.97 668.586,1059.97 670.802,1059.97 673.018,1059.97 675.234,1059.97 677.45,1059.97 679.666,1059.97 681.882,1059.97 684.099,1059.97 686.315,1059.97 688.531,1059.97 690.747,1059.97 692.963,1059.97 695.179,1059.97 697.395,1059.97 699.611,1059.97 701.827,1059.97 704.043,1059.97 706.259,1059.97 708.475,1059.97 710.691,1059.97 712.907,1059.97 715.123,1059.97 717.339,1059.97 719.555,1059.97 721.771,1059.97 723.987,1059.97 726.203,1059.97 728.419,1059.97 730.635,1059.97 732.851,1059.97 735.067,1059.97 737.283,1059.97 739.499,1059.97 741.715,1059.97 743.931,1059.97 746.147,1120.83 748.363,1120.83 750.579,1120.83 752.795,1120.83 755.011,1120.83 757.227,1120.83 759.443,1120.83 761.659,1120.83 763.875,1120.83 766.091,1120.83 768.307,1120.83 770.523,1120.83 772.739,1181.69 774.955,1181.69 777.171,1181.69 779.387,1181.69 781.603,1181.69 783.819,1181.69 786.035,1181.69 788.251,1181.69 790.467,1181.69 792.683,1181.69 794.899,1181.69 797.115,1181.69 799.331,1181.69 801.547,1181.69 803.763,1181.69 805.979,1181.69 808.195,1181.69 810.411,1181.69 812.627,1181.69 814.843,1181.69 817.059,1181.69 819.275,1181.69 821.491,1181.69 823.707,1181.69 825.923,1181.69 828.139,1181.69 830.355,1181.69 832.571,1181.69 834.787,1181.69 837.003,1181.69 839.219,1181.69 841.435,1181.69 843.651,1181.69 845.867,1181.69 848.083,1181.69 850.299,1181.69 852.515,1181.69 854.731,1181.69 856.947,1181.69 859.163,1181.69 861.38,1181.69 863.596,1181.69 865.812,1181.69 868.028,1181.69 870.244,1181.69 872.46,1181.69 874.676,1181.69 876.892,1181.69 879.108,1181.69 881.324,1181.69 883.54,1181.69 885.756,1181.69 887.972,1181.69 890.188,1181.69 892.404,1181.69 894.62,1181.69 896.836,1181.69 899.052,1181.69 901.268,1181.69 903.484,1181.69 905.7,1181.69 907.916,1181.69 910.132,1181.69 912.348,1181.69 914.564,1181.69 916.78,1181.69 918.996,1181.69 921.212,1181.69 923.428,1181.69 925.644,1181.69 927.86,1181.69 930.076,1181.69 932.292,1181.69 934.508,1181.69 936.724,1181.69 938.94,1181.69 941.156,1181.69 943.372,1181.69 945.588,1181.69 947.804,1181.69 950.02,1181.69 952.236,1181.69 954.452,1181.69 956.668,1181.69 958.884,1181.69 961.1,1181.69 963.316,1181.69 965.532,1181.69 967.748,1181.69 969.964,1181.69 972.18,1181.69 974.396,1181.69 976.612,1181.69 978.828,1181.69 981.044,1181.69 983.26,1181.69 985.476,1181.69 987.692,1181.69 989.908,1181.69 992.124,1181.69 994.34,1181.69 996.556,1181.69 998.772,1181.69 1000.99,1181.69 1003.2,1181.69 1005.42,1181.69 1007.64,1181.69 1009.85,1181.69 1012.07,1181.69 1014.28,1181.69 1016.5,1120.83 1018.72,1120.83 1020.93,1120.83 1023.15,1120.83 1025.36,1120.83 1027.58,1120.83 1029.8,1120.83 1032.01,1120.83 1034.23,1120.83 1036.44,1120.83 1038.66,1120.83 1040.88,1120.83 1043.09,1120.83 1045.31,1120.83 1047.52,1120.83 1049.74,1120.83 1051.96,1120.83 1054.17,1120.83 1056.39,1120.83 1058.6,1120.83 1060.82,1120.83 1063.04,1120.83 1065.25,1120.83 1067.47,1120.83 1069.68,1120.83 1071.9,1120.83 1074.12,1120.83 1076.33,1120.83 1078.55,1120.83 1080.76,1120.83 1082.98,1120.83 1085.2,1059.97 1087.41,1059.97 1089.63,1059.97 1091.84,1059.97 1094.06,1059.97 1096.28,1059.97 1098.49,1059.97 1100.71,1059.97 1102.92,999.108 1105.14,999.108 1107.36,999.108 1109.57,999.108 1111.79,999.108 1114,999.108 1116.22,999.108 1118.44,999.108 1120.65,999.108 1122.87,999.108 1125.08,999.108 1127.3,999.108 1129.52,999.108 1131.73,999.108 1133.95,999.108 1136.17,999.108 1138.38,999.108 1140.6,999.108 1142.81,999.108 1145.03,999.108 1147.25,999.108 1149.46,999.108 1151.68,999.108 1153.89,999.108 1156.11,999.108 1158.33,999.108 1160.54,999.108 1162.76,1059.97 1164.97,1059.97 1167.19,1059.97 1169.41,1059.97 1171.62,1059.97 1173.84,1059.97 1176.05,1059.97 1178.27,1059.97 1180.49,1059.97 1182.7,1059.97 1184.92,999.108 1187.13,999.108 1189.35,999.108 1191.57,999.108 1193.78,999.108 1196,999.108 1198.21,999.108 1200.43,999.108 1202.65,999.108 1204.86,999.108 1207.08,999.108 1209.29,999.108 1211.51,999.108 1213.73,999.108 1215.94,999.108 1218.16,999.108 1220.37,999.108 1222.59,999.108 1224.81,999.108 1227.02,999.108 1229.24,938.246 1231.45,938.246 1233.67,938.246 1235.89,938.246 1238.1,938.246 1240.32,938.246 1242.53,938.246 1244.75,938.246 1246.97,938.246 1249.18,938.246 1251.4,938.246 1253.61,938.246 1255.83,938.246 1258.05,938.246 1260.26,938.246 1262.48,999.108 1264.69,999.108 1266.91,999.108 1269.13,999.108 1271.34,999.108 1273.56,938.246 1275.77,938.246 1277.99,938.246 1280.21,938.246 1282.42,938.246 1284.64,938.246 1286.85,938.246 1289.07,938.246 1291.29,938.246 1293.5,938.246 1295.72,938.246 1297.93,938.246 1300.15,938.246 1302.37,938.246 1304.58,999.108 1306.8,999.108 1309.01,999.108 1311.23,999.108 1313.45,999.108 1315.66,999.108 1317.88,999.108 1320.09,999.108 1322.31,999.108 1324.53,999.108 1326.74,999.108 1328.96,999.108 1331.17,999.108 1333.39,999.108 1335.61,999.108 1337.82,999.108 1340.04,999.108 1342.25,999.108 1344.47,999.108 1346.69,999.108 1348.9,999.108 1351.12,999.108 1353.33,1059.97 1355.55,1059.97 1357.77,1059.97 1359.98,1059.97 1362.2,1059.97 1364.41,1059.97 1366.63,1059.97 1368.85,1059.97 1371.06,1059.97 1373.28,1120.83 1375.49,1120.83 1377.71,1120.83 1379.93,1120.83 1382.14,1120.83 1384.36,1120.83 1386.57,1120.83 1388.79,1120.83 1391.01,1120.83 1393.22,1120.83 1395.44,1120.83 1397.65,1120.83 1399.87,1120.83 1402.09,1120.83 1404.3,1120.83 1406.52,1120.83 1408.73,1120.83 1410.95,1120.83 1413.17,1120.83 1415.38,1120.83 1417.6,1120.83 1419.81,1120.83 1422.03,1120.83 1424.25,1120.83 1426.46,1120.83 1428.68,1120.83 1430.89,1120.83 1433.11,1120.83 1435.33,1120.83 1437.54,1120.83 1439.76,1120.83 1441.97,1120.83 1444.19,1120.83 1446.41,1120.83 1448.62,1120.83 1450.84,1120.83 1453.05,1120.83 1455.27,1120.83 1457.49,1120.83 1459.7,1120.83 1461.92,1120.83 1464.13,1120.83 1466.35,1120.83 1468.57,1120.83 1470.78,1120.83 1473,1120.83 1475.21,1120.83 1477.43,1120.83 1479.65,1120.83 1481.86,1120.83 1484.08,1181.69 1486.3,1181.69 1488.51,1181.69 1490.73,1181.69 1492.94,1181.69 1495.16,1181.69 1497.38,1181.69 1499.59,1181.69 1501.81,1181.69 1504.02,1181.69 1506.24,1181.69 1508.46,1181.69 1510.67,1181.69 1512.89,1181.69 1515.1,1181.69 1517.32,1181.69 1519.54,1181.69 1521.75,1181.69 1523.97,1181.69 1526.18,1181.69 1528.4,1181.69 1530.62,1181.69 1532.83,1181.69 1535.05,1181.69 1537.26,1181.69 1539.48,1181.69 1541.7,1181.69 1543.91,1181.69 1546.13,1181.69 1548.34,1181.69 1550.56,1181.69 1552.78,1181.69 1554.99,1120.83 1557.21,1120.83 1559.42,1120.83 1561.64,1120.83 1563.86,1120.83 1566.07,1120.83 1568.29,1120.83 1570.5,1120.83 1572.72,1120.83 1574.94,1120.83 1577.15,1120.83 1579.37,1120.83 1581.58,1120.83 1583.8,1120.83 1586.02,1120.83 1588.23,1120.83 1590.45,1120.83 1592.66,1120.83 1594.88,1120.83 1597.1,1120.83 1599.31,1120.83 1601.53,1120.83 1603.74,1120.83 1605.96,1120.83 1608.18,1120.83 1610.39,1120.83 1612.61,1120.83 1614.82,1181.69 1617.04,1181.69 1619.26,1181.69 1621.47,1181.69 1623.69,1181.69 1625.9,1181.69 1628.12,1181.69 1630.34,1181.69 1632.55,1181.69 1634.77,1181.69 1636.98,1181.69 1639.2,1181.69 1641.42,1181.69 1643.63,1181.69 1645.85,1181.69 1648.06,1181.69 1650.28,1181.69 1652.5,1181.69 1654.71,1181.69 1656.93,1181.69 1659.14,1181.69 1661.36,1181.69 1663.58,1181.69 1665.79,1181.69 1668.01,1181.69 1670.22,1181.69 1672.44,1181.69 1674.66,1181.69 1676.87,1181.69 1679.09,1181.69 1681.3,1181.69 1683.52,1181.69 1685.74,1181.69 1687.95,1181.69 1690.17,1181.69 1692.38,1181.69 1694.6,1181.69 1696.82,1181.69 1699.03,1181.69 1701.25,1181.69 1703.46,1181.69 1705.68,1181.69 1707.9,1181.69 1710.11,1181.69 1712.33,1181.69 1714.54,1181.69 1716.76,1181.69 1718.98,1181.69 1721.19,1181.69 1723.41,1181.69 1725.62,1181.69 1727.84,1181.69 1730.06,1181.69 1732.27,1181.69 1734.49,1181.69 1736.7,1181.69 1738.92,1181.69 1741.14,1181.69 1743.35,1181.69 1745.57,1181.69 1747.78,1181.69 1750,1181.69 1752.22,1181.69 1754.43,1181.69 1756.65,1181.69 1758.86,1181.69 1761.08,1181.69 1763.3,1181.69 1765.51,1181.69 1767.73,1181.69 1769.94,1181.69 1772.16,1181.69 1774.38,1181.69 1776.59,1181.69 1778.81,1181.69 1781.02,1181.69 1783.24,1181.69 1785.46,1181.69 1787.67,1181.69 1789.89,1181.69 1792.1,1181.69 1794.32,1181.69 1796.54,1181.69 1798.75,1181.69 1800.97,1181.69 1803.18,1181.69 1805.4,1181.69 1807.62,1181.69 1809.83,1181.69 1812.05,1181.69 1814.26,1181.69 1816.48,1181.69 1818.7,1181.69 1820.91,1181.69 1823.13,1181.69 1825.34,1181.69 1827.56,1181.69 1829.78,1181.69 1831.99,1181.69 1834.21,1181.69 1836.42,1181.69 1838.64,1181.69 1840.86,1181.69 1843.07,1181.69 1845.29,1181.69 1847.51,1181.69 1849.72,1120.83 1851.94,1120.83 1854.15,1120.83 1856.37,1181.69 1858.59,1181.69 1860.8,1181.69 1863.02,1181.69 1865.23,1181.69 1867.45,1181.69 1869.67,1181.69 1871.88,1181.69 1874.1,1181.69 1876.31,1181.69 1878.53,1181.69 1880.75,1181.69 1882.96,1181.69 1885.18,1181.69 1887.39,1181.69 1889.61,1181.69 1891.83,1181.69 1894.04,1181.69 1896.26,1181.69 1898.47,1181.69 1900.69,1181.69 1902.91,1181.69 1905.12,1181.69 1907.34,1181.69 1909.55,1181.69 1911.77,1181.69 1913.99,1181.69 1916.2,1181.69 1918.42,1181.69 1920.63,1181.69 1922.85,1181.69 1925.07,1181.69 1927.28,1181.69 1929.5,1181.69 1931.71,1181.69 1933.93,1181.69 1936.15,1181.69 1938.36,1181.69 1940.58,1181.69 1942.79,1181.69 1945.01,1181.69 1947.23,1181.69 1949.44,1181.69 1951.66,1181.69 1953.87,1120.83 1956.09,1120.83 1958.31,1120.83 1960.52,1120.83 1962.74,1120.83 1964.95,1120.83 1967.17,1120.83 1969.39,1120.83 1971.6,1120.83 1973.82,1120.83 1976.03,1120.83 1978.25,1120.83 1980.47,1120.83 1982.68,1120.83 1984.9,1120.83 1987.11,1120.83 1989.33,1120.83 1991.55,1120.83 1993.76,1120.83 1995.98,1120.83 1998.19,1120.83 2000.41,1120.83 2002.63,1120.83 2004.84,1120.83 2007.06,1120.83 2009.27,1120.83 2011.49,1120.83 2013.71,1120.83 2015.92,1120.83 2018.14,1120.83 2020.35,1120.83 2022.57,1120.83 2024.79,1120.83 2027,1120.83 2029.22,1120.83 2031.43,1120.83 2033.65,1120.83 2035.87,1120.83 2038.08,1120.83 2040.3,1120.83 2042.51,1120.83 2044.73,1120.83 2046.95,1120.83 2049.16,1120.83 2051.38,1120.83 2053.59,1120.83 2055.81,1120.83 2058.03,1120.83 2060.24,1120.83 2062.46,1120.83 2064.67,1120.83 2066.89,1120.83 2069.11,1120.83 2071.32,1120.83 2073.54,1120.83 2075.75,1120.83 2077.97,1120.83 2080.19,1120.83 2082.4,1120.83 2084.62,1120.83 2086.83,1181.69 2089.05,1181.69 2091.27,1181.69 2093.48,1181.69 2095.7,1181.69 2097.91,1181.69 2100.13,1181.69 2102.35,1181.69 2104.56,1181.69 2106.78,1181.69 2108.99,1181.69 2111.21,1181.69 2113.43,1181.69 2115.64,1181.69 2117.86,1181.69 2120.07,1181.69 2122.29,1181.69 2124.51,1181.69 2126.72,1120.83 2128.94,1120.83 2131.15,1120.83 2133.37,1120.83 2135.59,1120.83 2137.8,1120.83 2140.02,1120.83 2142.23,1120.83 2144.45,1120.83 2146.67,1120.83 2148.88,1120.83 2151.1,1120.83 2153.31,1120.83 2155.53,1120.83 2157.75,1120.83 2159.96,1120.83 2162.18,1120.83 2164.39,1120.83 2166.61,1120.83 2168.83,1120.83 2171.04,1120.83 2173.26,1120.83 2175.47,1120.83 2177.69,1120.83 2179.91,1120.83 2182.12,1120.83 2184.34,1120.83 2186.55,1120.83 2188.77,1120.83 2190.99,1120.83 2193.2,1120.83 2195.42,1120.83 2197.64,1120.83 2199.85,1120.83 2202.07,1120.83 2204.28,1120.83 2206.5,1120.83 2208.72,1120.83 2210.93,1120.83 2213.15,1120.83 2215.36,1120.83 2217.58,1059.97 2219.8,1059.97 2222.01,1059.97 2224.23,1059.97 2226.44,1059.97 2228.66,1059.97 2230.88,1059.97 2233.09,1059.97 2235.31,1059.97 2237.52,1059.97 2239.74,1059.97 2241.96,1059.97 2244.17,1059.97 2246.39,999.108 2248.6,999.108 2250.82,999.108 2253.04,999.108 2255.25,999.108 2257.47,999.108 2259.68,999.108 2261.9,999.108 2264.12,999.108 2266.33,999.108 2268.55,938.246 2270.76,938.246 2272.98,938.246 2275.2,938.246 2277.41,938.246 2279.63,938.246 2281.84,938.246 2284.06,999.108 2286.28,999.108 2288.49,999.108 2290.71,999.108 2292.92,999.108 2295.14,999.108 2297.36,999.108 2299.57,999.108 2301.79,999.108 2304,999.108 2306.22,999.108 2308.44,999.108 2310.65,999.108 2312.87,999.108 2315.08,999.108 2317.3,1059.97 2319.52,1059.97 2321.73,1059.97 2323.95,1059.97 2326.16,1059.97 2328.38,1059.97 2330.6,1059.97 2332.81,1059.97 2335.03,1120.83 2337.24,1120.83 2339.46,1120.83 2341.68,1120.83 2343.89,1120.83 2346.11,1120.83 2348.32,1120.83 2350.54,1120.83 2352.76,1120.83 "/>
<polyline clip-path="url(#clip372)" style="stroke:#e26f46; stroke-linecap:round; stroke-linejoin:round; stroke-width:8; stroke-opacity:1; fill:none" points="138.959,1181.69 141.175,1181.69 143.391,1181.69 145.607,1181.69 147.823,1181.69 150.04,1181.69 152.256,1181.69 154.472,1181.69 156.688,1181.69 158.904,1181.69 161.12,1181.69 163.336,1181.69 165.552,1181.69 167.768,1181.69 169.984,1181.69 172.2,1181.69 174.416,1181.69 176.632,1181.69 178.848,1181.69 181.064,1181.69 183.28,1181.69 185.496,1181.69 187.712,1181.69 189.928,1181.69 192.144,1181.69 194.36,1181.69 196.576,1181.69 198.792,1181.69 201.008,1181.69 203.224,1181.69 205.44,1181.69 207.656,1181.69 209.872,1181.69 212.088,1181.69 214.304,1181.69 216.52,1181.69 218.736,1181.69 220.952,1181.69 223.168,1181.69 225.384,1181.69 227.6,1181.69 229.816,1181.69 232.032,1181.69 234.248,1181.69 236.464,1181.69 238.68,1181.69 240.896,1181.69 243.112,1181.69 245.328,1181.69 247.544,1181.69 249.76,1181.69 251.976,1181.69 254.192,1181.69 256.408,1181.69 258.624,1181.69 260.84,1181.69 263.056,1181.69 265.272,1181.69 267.488,1181.69 269.704,1181.69 271.92,1181.69 274.136,1181.69 276.352,1181.69 278.568,1181.69 280.784,1181.69 283,1181.69 285.216,1181.69 287.432,1181.69 289.648,1181.69 291.864,1181.69 294.08,1181.69 296.296,1181.69 298.512,1181.69 300.728,1181.69 302.944,1181.69 305.16,1181.69 307.376,1181.69 309.592,1181.69 311.808,1181.69 314.024,1181.69 316.24,1181.69 318.456,1181.69 320.672,1181.69 322.888,1181.69 325.104,1181.69 327.321,1181.69 329.537,1181.69 331.753,1181.69 333.969,1181.69 336.185,1181.69 338.401,1181.69 340.617,1181.69 342.833,1181.69 345.049,1181.69 347.265,1181.69 349.481,1181.69 351.697,1181.69 353.913,1181.69 356.129,1181.69 358.345,1181.69 360.561,1181.69 362.777,1181.69 364.993,1181.69 367.209,1181.69 369.425,1181.69 371.641,1181.69 373.857,1181.69 376.073,1181.69 378.289,1181.69 380.505,1181.69 382.721,1181.69 384.937,1181.69 387.153,1181.69 389.369,1181.69 391.585,1181.69 393.801,1181.69 396.017,1181.69 398.233,1181.69 400.449,1181.69 402.665,1181.69 404.881,1181.69 407.097,1181.69 409.313,1181.69 411.529,1181.69 413.745,1120.83 415.961,1120.83 418.177,1120.83 420.393,1120.83 422.609,1120.83 424.825,1120.83 427.041,1120.83 429.257,1120.83 431.473,1120.83 433.689,1120.83 435.905,1120.83 438.121,1120.83 440.337,1120.83 442.553,1120.83 444.769,1120.83 446.985,1120.83 449.201,1120.83 451.417,1120.83 453.633,1120.83 455.849,1120.83 458.065,1120.83 460.281,1120.83 462.497,1120.83 464.713,1120.83 466.929,1120.83 469.145,1120.83 471.361,1120.83 473.577,1120.83 475.793,1120.83 478.009,1120.83 480.225,1120.83 482.441,1120.83 484.657,1120.83 486.873,1120.83 489.089,1120.83 491.305,1120.83 493.521,1120.83 495.737,1120.83 497.953,1120.83 500.169,1120.83 502.385,1120.83 504.601,1120.83 506.818,1120.83 509.034,1120.83 511.25,1120.83 513.466,1120.83 515.682,1120.83 517.898,1120.83 520.114,1120.83 522.33,1120.83 524.546,1120.83 526.762,1120.83 528.978,1120.83 531.194,1120.83 533.41,1120.83 535.626,1120.83 537.842,1120.83 540.058,1120.83 542.274,1120.83 544.49,1059.97 546.706,1059.97 548.922,1059.97 551.138,1059.97 553.354,1059.97 555.57,1059.97 557.786,1059.97 560.002,1059.97 562.218,1059.97 564.434,1059.97 566.65,1059.97 568.866,1059.97 571.082,1059.97 573.298,1059.97 575.514,1059.97 577.73,1059.97 579.946,1059.97 582.162,1059.97 584.378,1059.97 586.594,1059.97 588.81,1059.97 591.026,1059.97 593.242,1059.97 595.458,1059.97 597.674,1059.97 599.89,1059.97 602.106,1059.97 604.322,1059.97 606.538,1059.97 608.754,1059.97 610.97,1059.97 613.186,1059.97 615.402,1059.97 617.618,1059.97 619.834,1059.97 622.05,1059.97 624.266,1059.97 626.482,1059.97 628.698,1059.97 630.914,1059.97 633.13,1059.97 635.346,1059.97 637.562,1059.97 639.778,1059.97 641.994,1059.97 644.21,1059.97 646.426,1059.97 648.642,1059.97 650.858,999.108 653.074,999.108 655.29,999.108 657.506,999.108 659.722,999.108 661.938,999.108 664.154,999.108 666.37,999.108 668.586,999.108 670.802,999.108 673.018,999.108 675.234,999.108 677.45,999.108 679.666,999.108 681.882,999.108 684.099,999.108 686.315,999.108 688.531,999.108 690.747,999.108 692.963,999.108 695.179,999.108 697.395,999.108 699.611,999.108 701.827,999.108 704.043,999.108 706.259,999.108 708.475,999.108 710.691,999.108 712.907,999.108 715.123,999.108 717.339,999.108 719.555,999.108 721.771,999.108 723.987,999.108 726.203,999.108 728.419,999.108 730.635,999.108 732.851,999.108 735.067,999.108 737.283,999.108 739.499,999.108 741.715,999.108 743.931,999.108 746.147,938.246 748.363,938.246 750.579,938.246 752.795,938.246 755.011,938.246 757.227,938.246 759.443,938.246 761.659,938.246 763.875,938.246 766.091,938.246 768.307,938.246 770.523,938.246 772.739,877.385 774.955,877.385 777.171,877.385 779.387,877.385 781.603,877.385 783.819,877.385 786.035,877.385 788.251,877.385 790.467,877.385 792.683,877.385 794.899,877.385 797.115,877.385 799.331,877.385 801.547,877.385 803.763,877.385 805.979,877.385 808.195,877.385 810.411,877.385 812.627,877.385 814.843,877.385 817.059,877.385 819.275,877.385 821.491,877.385 823.707,877.385 825.923,877.385 828.139,877.385 830.355,877.385 832.571,877.385 834.787,877.385 837.003,877.385 839.219,877.385 841.435,877.385 843.651,877.385 845.867,877.385 848.083,877.385 850.299,877.385 852.515,877.385 854.731,877.385 856.947,877.385 859.163,877.385 861.38,877.385 863.596,877.385 865.812,877.385 868.028,877.385 870.244,877.385 872.46,877.385 874.676,877.385 876.892,877.385 879.108,877.385 881.324,877.385 883.54,877.385 885.756,877.385 887.972,877.385 890.188,877.385 892.404,877.385 894.62,877.385 896.836,877.385 899.052,877.385 901.268,877.385 903.484,877.385 905.7,877.385 907.916,877.385 910.132,877.385 912.348,877.385 914.564,877.385 916.78,877.385 918.996,877.385 921.212,877.385 923.428,877.385 925.644,877.385 927.86,877.385 930.076,877.385 932.292,877.385 934.508,877.385 936.724,877.385 938.94,877.385 941.156,877.385 943.372,877.385 945.588,877.385 947.804,877.385 950.02,877.385 952.236,877.385 954.452,877.385 956.668,877.385 958.884,877.385 961.1,877.385 963.316,877.385 965.532,877.385 967.748,877.385 969.964,877.385 972.18,877.385 974.396,877.385 976.612,877.385 978.828,877.385 981.044,877.385 983.26,877.385 985.476,877.385 987.692,877.385 989.908,877.385 992.124,877.385 994.34,877.385 996.556,877.385 998.772,877.385 1000.99,877.385 1003.2,877.385 1005.42,877.385 1007.64,877.385 1009.85,877.385 1012.07,877.385 1014.28,877.385 1016.5,877.385 1018.72,877.385 1020.93,877.385 1023.15,877.385 1025.36,877.385 1027.58,877.385 1029.8,877.385 1032.01,877.385 1034.23,877.385 1036.44,877.385 1038.66,877.385 1040.88,877.385 1043.09,877.385 1045.31,877.385 1047.52,877.385 1049.74,877.385 1051.96,877.385 1054.17,877.385 1056.39,877.385 1058.6,877.385 1060.82,877.385 1063.04,877.385 1065.25,877.385 1067.47,877.385 1069.68,877.385 1071.9,877.385 1074.12,877.385 1076.33,877.385 1078.55,877.385 1080.76,877.385 1082.98,877.385 1085.2,877.385 1087.41,877.385 1089.63,877.385 1091.84,877.385 1094.06,877.385 1096.28,877.385 1098.49,877.385 1100.71,877.385 1102.92,877.385 1105.14,877.385 1107.36,877.385 1109.57,877.385 1111.79,877.385 1114,877.385 1116.22,877.385 1118.44,877.385 1120.65,877.385 1122.87,877.385 1125.08,877.385 1127.3,877.385 1129.52,877.385 1131.73,877.385 1133.95,877.385 1136.17,877.385 1138.38,877.385 1140.6,877.385 1142.81,877.385 1145.03,877.385 1147.25,877.385 1149.46,877.385 1151.68,877.385 1153.89,877.385 1156.11,877.385 1158.33,877.385 1160.54,877.385 1162.76,816.523 1164.97,816.523 1167.19,816.523 1169.41,816.523 1171.62,816.523 1173.84,816.523 1176.05,816.523 1178.27,816.523 1180.49,816.523 1182.7,816.523 1184.92,816.523 1187.13,816.523 1189.35,816.523 1191.57,816.523 1193.78,816.523 1196,816.523 1198.21,816.523 1200.43,816.523 1202.65,816.523 1204.86,816.523 1207.08,816.523 1209.29,816.523 1211.51,816.523 1213.73,816.523 1215.94,816.523 1218.16,816.523 1220.37,816.523 1222.59,816.523 1224.81,816.523 1227.02,816.523 1229.24,816.523 1231.45,755.662 1233.67,755.662 1235.89,755.662 1238.1,755.662 1240.32,755.662 1242.53,755.662 1244.75,755.662 1246.97,755.662 1249.18,755.662 1251.4,755.662 1253.61,755.662 1255.83,755.662 1258.05,755.662 1260.26,755.662 1262.48,694.8 1264.69,694.8 1266.91,694.8 1269.13,694.8 1271.34,694.8 1273.56,694.8 1275.77,694.8 1277.99,694.8 1280.21,694.8 1282.42,694.8 1284.64,694.8 1286.85,694.8 1289.07,694.8 1291.29,694.8 1293.5,694.8 1295.72,694.8 1297.93,694.8 1300.15,694.8 1302.37,694.8 1304.58,633.939 1306.8,633.939 1309.01,633.939 1311.23,633.939 1313.45,633.939 1315.66,633.939 1317.88,633.939 1320.09,633.939 1322.31,633.939 1324.53,633.939 1326.74,633.939 1328.96,633.939 1331.17,633.939 1333.39,633.939 1335.61,633.939 1337.82,633.939 1340.04,633.939 1342.25,633.939 1344.47,633.939 1346.69,633.939 1348.9,633.939 1351.12,633.939 1353.33,573.077 1355.55,573.077 1357.77,573.077 1359.98,573.077 1362.2,573.077 1364.41,573.077 1366.63,573.077 1368.85,573.077 1371.06,573.077 1373.28,512.216 1375.49,512.216 1377.71,512.216 1379.93,512.216 1382.14,512.216 1384.36,512.216 1386.57,512.216 1388.79,512.216 1391.01,512.216 1393.22,512.216 1395.44,512.216 1397.65,512.216 1399.87,512.216 1402.09,512.216 1404.3,512.216 1406.52,512.216 1408.73,512.216 1410.95,512.216 1413.17,512.216 1415.38,512.216 1417.6,512.216 1419.81,512.216 1422.03,512.216 1424.25,512.216 1426.46,512.216 1428.68,512.216 1430.89,512.216 1433.11,512.216 1435.33,512.216 1437.54,512.216 1439.76,512.216 1441.97,512.216 1444.19,512.216 1446.41,512.216 1448.62,512.216 1450.84,512.216 1453.05,512.216 1455.27,512.216 1457.49,512.216 1459.7,512.216 1461.92,512.216 1464.13,512.216 1466.35,512.216 1468.57,512.216 1470.78,512.216 1473,512.216 1475.21,512.216 1477.43,512.216 1479.65,512.216 1481.86,512.216 1484.08,451.354 1486.3,451.354 1488.51,451.354 1490.73,451.354 1492.94,451.354 1495.16,451.354 1497.38,451.354 1499.59,451.354 1501.81,451.354 1504.02,451.354 1506.24,451.354 1508.46,451.354 1510.67,451.354 1512.89,451.354 1515.1,451.354 1517.32,451.354 1519.54,451.354 1521.75,451.354 1523.97,451.354 1526.18,451.354 1528.4,451.354 1530.62,451.354 1532.83,451.354 1535.05,451.354 1537.26,451.354 1539.48,451.354 1541.7,451.354 1543.91,451.354 1546.13,451.354 1548.34,451.354 1550.56,451.354 1552.78,451.354 1554.99,451.354 1557.21,451.354 1559.42,451.354 1561.64,451.354 1563.86,451.354 1566.07,451.354 1568.29,451.354 1570.5,451.354 1572.72,451.354 1574.94,451.354 1577.15,451.354 1579.37,451.354 1581.58,451.354 1583.8,451.354 1586.02,451.354 1588.23,451.354 1590.45,451.354 1592.66,451.354 1594.88,451.354 1597.1,451.354 1599.31,451.354 1601.53,451.354 1603.74,451.354 1605.96,451.354 1608.18,451.354 1610.39,451.354 1612.61,451.354 1614.82,390.493 1617.04,390.493 1619.26,390.493 1621.47,390.493 1623.69,390.493 1625.9,390.493 1628.12,390.493 1630.34,390.493 1632.55,390.493 1634.77,390.493 1636.98,390.493 1639.2,390.493 1641.42,390.493 1643.63,390.493 1645.85,390.493 1648.06,390.493 1650.28,390.493 1652.5,390.493 1654.71,390.493 1656.93,390.493 1659.14,390.493 1661.36,390.493 1663.58,390.493 1665.79,390.493 1668.01,390.493 1670.22,390.493 1672.44,390.493 1674.66,390.493 1676.87,390.493 1679.09,390.493 1681.3,390.493 1683.52,390.493 1685.74,390.493 1687.95,390.493 1690.17,390.493 1692.38,390.493 1694.6,390.493 1696.82,390.493 1699.03,390.493 1701.25,390.493 1703.46,390.493 1705.68,390.493 1707.9,390.493 1710.11,390.493 1712.33,390.493 1714.54,390.493 1716.76,390.493 1718.98,390.493 1721.19,390.493 1723.41,390.493 1725.62,390.493 1727.84,390.493 1730.06,390.493 1732.27,390.493 1734.49,390.493 1736.7,390.493 1738.92,390.493 1741.14,390.493 1743.35,390.493 1745.57,390.493 1747.78,390.493 1750,390.493 1752.22,390.493 1754.43,390.493 1756.65,390.493 1758.86,390.493 1761.08,390.493 1763.3,390.493 1765.51,390.493 1767.73,390.493 1769.94,390.493 1772.16,390.493 1774.38,390.493 1776.59,390.493 1778.81,390.493 1781.02,390.493 1783.24,390.493 1785.46,390.493 1787.67,390.493 1789.89,390.493 1792.1,390.493 1794.32,390.493 1796.54,390.493 1798.75,390.493 1800.97,390.493 1803.18,390.493 1805.4,390.493 1807.62,390.493 1809.83,390.493 1812.05,390.493 1814.26,390.493 1816.48,390.493 1818.7,390.493 1820.91,390.493 1823.13,390.493 1825.34,390.493 1827.56,390.493 1829.78,390.493 1831.99,390.493 1834.21,390.493 1836.42,390.493 1838.64,390.493 1840.86,390.493 1843.07,390.493 1845.29,390.493 1847.51,390.493 1849.72,390.493 1851.94,390.493 1854.15,390.493 1856.37,329.632 1858.59,329.632 1860.8,329.632 1863.02,329.632 1865.23,329.632 1867.45,329.632 1869.67,329.632 1871.88,329.632 1874.1,329.632 1876.31,329.632 1878.53,329.632 1880.75,329.632 1882.96,329.632 1885.18,329.632 1887.39,329.632 1889.61,329.632 1891.83,329.632 1894.04,329.632 1896.26,329.632 1898.47,329.632 1900.69,329.632 1902.91,329.632 1905.12,329.632 1907.34,329.632 1909.55,329.632 1911.77,329.632 1913.99,329.632 1916.2,329.632 1918.42,329.632 1920.63,329.632 1922.85,329.632 1925.07,329.632 1927.28,329.632 1929.5,329.632 1931.71,329.632 1933.93,329.632 1936.15,329.632 1938.36,329.632 1940.58,329.632 1942.79,329.632 1945.01,329.632 1947.23,329.632 1949.44,329.632 1951.66,329.632 1953.87,329.632 1956.09,329.632 1958.31,329.632 1960.52,329.632 1962.74,329.632 1964.95,329.632 1967.17,329.632 1969.39,329.632 1971.6,329.632 1973.82,329.632 1976.03,329.632 1978.25,329.632 1980.47,329.632 1982.68,329.632 1984.9,329.632 1987.11,329.632 1989.33,329.632 1991.55,329.632 1993.76,329.632 1995.98,329.632 1998.19,329.632 2000.41,329.632 2002.63,329.632 2004.84,329.632 2007.06,329.632 2009.27,329.632 2011.49,329.632 2013.71,329.632 2015.92,329.632 2018.14,329.632 2020.35,329.632 2022.57,329.632 2024.79,329.632 2027,329.632 2029.22,329.632 2031.43,329.632 2033.65,329.632 2035.87,329.632 2038.08,329.632 2040.3,329.632 2042.51,329.632 2044.73,329.632 2046.95,329.632 2049.16,329.632 2051.38,329.632 2053.59,329.632 2055.81,329.632 2058.03,329.632 2060.24,329.632 2062.46,329.632 2064.67,329.632 2066.89,329.632 2069.11,329.632 2071.32,329.632 2073.54,329.632 2075.75,329.632 2077.97,329.632 2080.19,329.632 2082.4,329.632 2084.62,329.632 2086.83,268.77 2089.05,268.77 2091.27,268.77 2093.48,268.77 2095.7,268.77 2097.91,268.77 2100.13,268.77 2102.35,268.77 2104.56,268.77 2106.78,268.77 2108.99,268.77 2111.21,268.77 2113.43,268.77 2115.64,268.77 2117.86,268.77 2120.07,268.77 2122.29,268.77 2124.51,268.77 2126.72,268.77 2128.94,268.77 2131.15,268.77 2133.37,268.77 2135.59,268.77 2137.8,268.77 2140.02,268.77 2142.23,268.77 2144.45,268.77 2146.67,268.77 2148.88,268.77 2151.1,268.77 2153.31,268.77 2155.53,268.77 2157.75,268.77 2159.96,268.77 2162.18,268.77 2164.39,268.77 2166.61,268.77 2168.83,268.77 2171.04,268.77 2173.26,268.77 2175.47,268.77 2177.69,268.77 2179.91,268.77 2182.12,268.77 2184.34,268.77 2186.55,268.77 2188.77,268.77 2190.99,268.77 2193.2,268.77 2195.42,268.77 2197.64,268.77 2199.85,268.77 2202.07,268.77 2204.28,268.77 2206.5,268.77 2208.72,268.77 2210.93,268.77 2213.15,268.77 2215.36,268.77 2217.58,268.77 2219.8,268.77 2222.01,268.77 2224.23,268.77 2226.44,268.77 2228.66,268.77 2230.88,268.77 2233.09,268.77 2235.31,268.77 2237.52,268.77 2239.74,268.77 2241.96,268.77 2244.17,268.77 2246.39,268.77 2248.6,268.77 2250.82,268.77 2253.04,268.77 2255.25,268.77 2257.47,268.77 2259.68,268.77 2261.9,268.77 2264.12,268.77 2266.33,268.77 2268.55,268.77 2270.76,268.77 2272.98,268.77 2275.2,268.77 2277.41,268.77 2279.63,268.77 2281.84,268.77 2284.06,207.909 2286.28,207.909 2288.49,207.909 2290.71,207.909 2292.92,207.909 2295.14,207.909 2297.36,207.909 2299.57,207.909 2301.79,207.909 2304,207.909 2306.22,207.909 2308.44,207.909 2310.65,207.909 2312.87,207.909 2315.08,207.909 2317.3,147.047 2319.52,147.047 2321.73,147.047 2323.95,147.047 2326.16,147.047 2328.38,147.047 2330.6,147.047 2332.81,147.047 2335.03,86.1857 2337.24,86.1857 2339.46,86.1857 2341.68,86.1857 2343.89,86.1857 2346.11,86.1857 2348.32,86.1857 2350.54,86.1857 2352.76,86.1857 "/>
<polyline clip-path="url(#clip372)" style="stroke:#3da44d; stroke-linecap:round; stroke-linejoin:round; stroke-width:8; stroke-opacity:1; fill:none" points="138.959,1295.47 141.175,1294.24 143.391,1293 145.607,1291.73 147.823,1290.44 150.04,1289.14 152.256,1287.82 154.472,1286.47 156.688,1285.11 158.904,1283.73 161.12,1282.33 163.336,1280.91 165.552,1279.47 167.768,1278.02 169.984,1276.54 172.2,1275.05 174.416,1273.54 176.632,1272.01 178.848,1270.46 181.064,1268.89 183.28,1267.3 185.496,1265.7 187.712,1264.08 189.928,1262.43 192.144,1260.78 194.36,1259.1 196.576,1257.41 198.792,1255.69 201.008,1253.97 203.224,1252.22 205.44,1250.46 207.656,1248.67 209.872,1246.88 212.088,1245.06 214.304,1243.23 216.52,1241.38 218.736,1239.52 220.952,1237.64 223.168,1235.75 225.384,1233.83 227.6,1231.91 229.816,1229.96 232.032,1228 234.248,1226.03 236.464,1224.04 238.68,1222.04 240.896,1220.02 243.112,1217.99 245.328,1215.94 247.544,1213.88 249.76,1211.81 251.976,1209.72 254.192,1207.62 256.408,1205.51 258.624,1203.38 260.84,1201.24 263.056,1199.09 265.272,1196.93 267.488,1194.75 269.704,1192.56 271.92,1190.36 274.136,1188.15 276.352,1185.93 278.568,1183.7 280.784,1201.43 283,1199.18 285.216,1196.92 287.432,1194.64 289.648,1192.36 291.864,1190.07 294.08,1187.77 296.296,1185.46 298.512,1183.14 300.728,1267.78 302.944,1265.44 305.16,1263.1 307.376,1260.75 309.592,1258.4 311.808,1256.04 314.024,1253.67 316.24,1251.29 318.456,1248.91 320.672,1246.53 322.888,1244.13 325.104,1241.74 327.321,1239.34 329.537,1236.93 331.753,1234.52 333.969,1232.11 336.185,1229.69 338.401,1227.27 340.617,1224.85 342.833,1222.42 345.049,1219.99 347.265,1217.56 349.481,1215.13 351.697,1212.69 353.913,1210.26 356.129,1207.82 358.345,1205.39 360.561,1202.95 362.777,1200.51 364.993,1198.08 367.209,1195.64 369.425,1193.21 371.641,1190.77 373.857,1188.34 376.073,1185.91 378.289,1183.48 380.505,1240.89 382.721,1238.47 384.937,1236.05 387.153,1233.63 389.369,1231.22 391.585,1228.81 393.801,1226.4 396.017,1224 398.233,1221.61 400.449,1219.22 402.665,1216.83 404.881,1214.45 407.097,1212.08 409.313,1209.71 411.529,1207.35 413.745,1204.99 415.961,1202.65 418.177,1200.31 420.393,1197.97 422.609,1195.65 424.825,1193.34 427.041,1191.03 429.257,1188.73 431.473,1186.44 433.689,1184.16 435.905,1181.89 438.121,1215.41 440.337,1213.16 442.553,1210.92 444.769,1208.69 446.985,1206.47 449.201,1204.26 451.417,1202.07 453.633,1199.88 455.849,1197.71 458.065,1195.55 460.281,1193.4 462.497,1191.26 464.713,1189.14 466.929,1187.02 469.145,1184.93 471.361,1182.84 473.577,1346.78 475.793,1344.73 478.009,1342.68 480.225,1340.65 482.441,1338.64 484.657,1336.64 486.873,1334.65 489.089,1332.68 491.305,1330.73 493.521,1328.79 495.737,1326.86 497.953,1324.95 500.169,1323.06 502.385,1321.18 504.601,1319.32 506.818,1317.48 509.034,1315.65 511.25,1313.84 513.466,1312.05 515.682,1310.27 517.898,1308.51 520.114,1306.77 522.33,1305.04 524.546,1303.33 526.762,1301.64 528.978,1299.97 531.194,1298.31 533.41,1296.68 535.626,1295.06 537.842,1293.46 540.058,1291.88 542.274,1290.31 544.49,1288.77 546.706,1287.24 548.922,1285.73 551.138,1284.24 553.354,1282.77 555.57,1281.32 557.786,1279.88 560.002,1278.47 562.218,1277.07 564.434,1275.69 566.65,1274.34 568.866,1273 571.082,1271.68 573.298,1270.38 575.514,1269.09 577.73,1267.83 579.946,1266.59 582.162,1265.36 584.378,1264.16 586.594,1262.97 588.81,1261.81 591.026,1260.66 593.242,1259.53 595.458,1258.42 597.674,1257.33 599.89,1256.26 602.106,1255.21 604.322,1254.17 606.538,1253.16 608.754,1252.16 610.97,1251.19 613.186,1250.23 615.402,1249.29 617.618,1248.37 619.834,1247.47 622.05,1246.58 624.266,1245.72 626.482,1244.87 628.698,1244.04 630.914,1243.23 633.13,1242.44 635.346,1241.66 637.562,1240.91 639.778,1240.17 641.994,1239.45 644.21,1238.74 646.426,1238.05 648.642,1237.38 650.858,1236.73 653.074,1236.1 655.29,1235.48 657.506,1234.87 659.722,1234.29 661.938,1233.72 664.154,1233.16 666.37,1232.63 668.586,1232.1 670.802,1231.6 673.018,1231.11 675.234,1230.63 677.45,1230.17 679.666,1229.73 681.882,1229.29 684.099,1228.88 686.315,1228.48 688.531,1228.09 690.747,1227.71 692.963,1227.35 695.179,1227.01 697.395,1226.67 699.611,1226.35 701.827,1226.05 704.043,1225.75 706.259,1225.47 708.475,1225.2 710.691,1224.94 712.907,1224.69 715.123,1224.46 717.339,1224.23 719.555,1224.02 721.771,1223.82 723.987,1223.62 726.203,1223.44 728.419,1223.27 730.635,1223.11 732.851,1222.95 735.067,1222.81 737.283,1222.68 739.499,1222.55 741.715,1222.43 743.931,1222.32 746.147,1222.22 748.363,1222.13 750.579,1222.04 752.795,1221.96 755.011,1221.88 757.227,1221.82 759.443,1221.76 761.659,1221.7 763.875,1221.65 766.091,1221.61 768.307,1221.57 770.523,1221.53 772.739,1221.51 774.955,1221.48 777.171,1221.46 779.387,1221.44 781.603,1221.42 783.819,1221.41 786.035,1221.4 788.251,1221.39 790.467,1221.39 792.683,1221.38 794.899,1221.38 797.115,1221.38 799.331,1221.38 801.547,1221.38 803.763,1221.38 805.979,1221.38 808.195,1221.38 810.411,1221.38 812.627,1221.37 814.843,1221.37 817.059,1221.37 819.275,1221.36 821.491,1221.35 823.707,1221.34 825.923,1221.32 828.139,1221.3 830.355,1221.28 832.571,1221.26 834.787,1221.23 837.003,1221.2 839.219,1221.16 841.435,1221.12 843.651,1221.07 845.867,1221.02 848.083,1220.96 850.299,1220.89 852.515,1220.82 854.731,1220.74 856.947,1220.66 859.163,1220.57 861.38,1220.47 863.596,1220.36 865.812,1220.25 868.028,1220.13 870.244,1220 872.46,1219.86 874.676,1219.71 876.892,1219.55 879.108,1219.38 881.324,1219.2 883.54,1219.01 885.756,1218.82 887.972,1218.61 890.188,1218.39 892.404,1218.16 894.62,1217.91 896.836,1217.66 899.052,1217.4 901.268,1217.12 903.484,1216.83 905.7,1216.53 907.916,1216.21 910.132,1215.88 912.348,1215.54 914.564,1215.19 916.78,1214.82 918.996,1214.44 921.212,1214.04 923.428,1213.63 925.644,1213.2 927.86,1212.76 930.076,1212.31 932.292,1211.84 934.508,1211.36 936.724,1210.86 938.94,1210.34 941.156,1209.81 943.372,1209.26 945.588,1208.7 947.804,1208.12 950.02,1207.52 952.236,1206.91 954.452,1206.28 956.668,1205.63 958.884,1204.97 961.1,1204.29 963.316,1203.59 965.532,1202.88 967.748,1202.14 969.964,1201.39 972.18,1200.63 974.396,1199.84 976.612,1199.04 978.828,1198.21 981.044,1197.37 983.26,1196.52 985.476,1195.64 987.692,1194.75 989.908,1193.83 992.124,1192.9 994.34,1191.95 996.556,1190.98 998.772,1189.99 1000.99,1188.99 1003.2,1187.96 1005.42,1186.92 1007.64,1185.85 1009.85,1184.77 1012.07,1183.67 1014.28,1182.55 1016.5,1224.79 1018.72,1223.63 1020.93,1222.46 1023.15,1221.26 1025.36,1220.04 1027.58,1218.81 1029.8,1217.55 1032.01,1216.28 1034.23,1214.98 1036.44,1213.67 1038.66,1212.34 1040.88,1210.99 1043.09,1209.62 1045.31,1208.23 1047.52,1206.82 1049.74,1205.4 1051.96,1203.95 1054.17,1202.49 1056.39,1201.01 1058.6,1199.51 1060.82,1197.99 1063.04,1196.45 1065.25,1194.89 1067.47,1193.31 1069.68,1191.72 1071.9,1190.11 1074.12,1188.48 1076.33,1186.83 1078.55,1185.17 1080.76,1183.48 1082.98,1181.78 1085.2,1194.84 1087.41,1193.1 1089.63,1191.35 1091.84,1189.58 1094.06,1187.79 1096.28,1185.99 1098.49,1184.17 1100.71,1182.33 1102.92,1259.69 1105.14,1257.82 1107.36,1255.94 1109.57,1254.03 1111.79,1252.12 1114,1250.18 1116.22,1248.23 1118.44,1246.27 1120.65,1244.29 1122.87,1242.29 1125.08,1240.29 1127.3,1238.26 1129.52,1236.22 1131.73,1234.17 1133.95,1232.11 1136.17,1230.03 1138.38,1227.93 1140.6,1225.83 1142.81,1223.71 1145.03,1221.58 1147.25,1219.43 1149.46,1217.28 1151.68,1215.11 1153.89,1212.93 1156.11,1210.73 1158.33,1208.53 1160.54,1206.32 1162.76,1204.09 1164.97,1201.85 1167.19,1199.6 1169.41,1197.35 1171.62,1195.08 1173.84,1192.8 1176.05,1190.52 1178.27,1188.22 1180.49,1185.92 1182.7,1183.61 1184.92,1227.15 1187.13,1224.82 1189.35,1222.48 1191.57,1220.14 1193.78,1217.79 1196,1215.43 1198.21,1213.07 1200.43,1210.7 1202.65,1208.32 1204.86,1205.94 1207.08,1203.55 1209.29,1201.15 1211.51,1198.75 1213.73,1196.35 1215.94,1193.94 1218.16,1191.53 1220.37,1189.12 1222.59,1186.7 1224.81,1184.28 1227.02,1181.85 1229.24,1183.85 1231.45,1227.42 1233.67,1224.99 1235.89,1222.56 1238.1,1220.13 1240.32,1217.69 1242.53,1215.25 1244.75,1212.82 1246.97,1210.38 1249.18,1207.94 1251.4,1205.51 1253.61,1203.07 1255.83,1200.64 1258.05,1198.2 1260.26,1195.77 1262.48,1193.34 1264.69,1190.91 1266.91,1188.49 1269.13,1186.06 1271.34,1183.65 1273.56,1384.24 1275.77,1381.83 1277.99,1379.42 1280.21,1377.02 1282.42,1374.62 1284.64,1372.22 1286.85,1369.84 1289.07,1367.45 1291.29,1365.08 1293.5,1362.7 1295.72,1360.34 1297.93,1357.98 1300.15,1355.63 1302.37,1353.29 1304.58,1350.95 1306.8,1348.62 1309.01,1346.3 1311.23,1343.98 1313.45,1341.68 1315.66,1339.39 1317.88,1337.1 1320.09,1334.82 1322.31,1332.56 1324.53,1330.3 1326.74,1328.05 1328.96,1325.82 1331.17,1323.59 1333.39,1321.37 1335.61,1319.17 1337.82,1316.98 1340.04,1314.8 1342.25,1312.63 1344.47,1310.47 1346.69,1308.33 1348.9,1306.2 1351.12,1304.08 1353.33,1301.97 1355.55,1299.87 1357.77,1297.8 1359.98,1295.73 1362.2,1293.68 1364.41,1291.64 1366.63,1289.62 1368.85,1287.61 1371.06,1285.61 1373.28,1283.63 1375.49,1281.67 1377.71,1279.72 1379.93,1277.79 1382.14,1275.87 1384.36,1273.97 1386.57,1272.08 1388.79,1270.21 1391.01,1268.35 1393.22,1266.52 1395.44,1264.7 1397.65,1262.89 1399.87,1261.1 1402.09,1259.33 1404.3,1257.58 1406.52,1255.84 1408.73,1254.13 1410.95,1252.42 1413.17,1250.74 1415.38,1249.08 1417.6,1247.43 1419.81,1245.8 1422.03,1244.19 1424.25,1242.59 1426.46,1241.02 1428.68,1239.46 1430.89,1237.92 1433.11,1236.4 1435.33,1234.9 1437.54,1233.42 1439.76,1231.96 1441.97,1230.51 1444.19,1229.08 1446.41,1227.68 1448.62,1226.29 1450.84,1224.92 1453.05,1223.57 1455.27,1222.24 1457.49,1220.92 1459.7,1219.63 1461.92,1218.36 1464.13,1217.1 1466.35,1215.87 1468.57,1214.65 1470.78,1213.45 1473,1212.27 1475.21,1211.12 1477.43,1209.98 1479.65,1208.85 1481.86,1207.75 1484.08,1206.67 1486.3,1205.61 1488.51,1204.56 1490.73,1203.54 1492.94,1202.53 1495.16,1201.54 1497.38,1200.57 1499.59,1199.62 1501.81,1198.69 1504.02,1197.78 1506.24,1196.88 1508.46,1196.01 1510.67,1195.15 1512.89,1194.31 1515.1,1193.49 1517.32,1192.68 1519.54,1191.9 1521.75,1191.13 1523.97,1190.38 1526.18,1189.65 1528.4,1188.93 1530.62,1188.23 1532.83,1187.55 1535.05,1186.89 1537.26,1186.25 1539.48,1185.62 1541.7,1185 1543.91,1184.41 1546.13,1183.83 1548.34,1183.26 1550.56,1182.72 1552.78,1182.19 1554.99,1209.7 1557.21,1209.2 1559.42,1208.72 1561.64,1208.25 1563.86,1207.79 1566.07,1207.35 1568.29,1206.93 1570.5,1206.52 1572.72,1206.12 1574.94,1205.74 1577.15,1205.37 1579.37,1205.02 1581.58,1204.67 1583.8,1204.35 1586.02,1204.03 1588.23,1203.73 1590.45,1203.44 1592.66,1203.16 1594.88,1202.89 1597.1,1202.64 1599.31,1202.4 1601.53,1202.17 1603.74,1201.95 1605.96,1201.74 1608.18,1201.54 1610.39,1201.35 1612.61,1201.17 1614.82,1201.01 1617.04,1200.85 1619.26,1200.7 1621.47,1200.56 1623.69,1200.43 1625.9,1200.31 1628.12,1200.19 1630.34,1200.09 1632.55,1199.99 1634.77,1199.9 1636.98,1199.82 1639.2,1199.74 1641.42,1199.67 1643.63,1199.6 1645.85,1199.55 1648.06,1199.49 1650.28,1199.45 1652.5,1199.4 1654.71,1199.37 1656.93,1199.33 1659.14,1199.3 1661.36,1199.28 1663.58,1199.26 1665.79,1199.24 1668.01,1199.23 1670.22,1199.21 1672.44,1199.2 1674.66,1199.2 1676.87,1199.19 1679.09,1199.19 1681.3,1199.18 1683.52,1199.18 1685.74,1199.18 1687.95,1199.18 1690.17,1199.18 1692.38,1199.18 1694.6,1199.18 1696.82,1199.18 1699.03,1199.17 1701.25,1199.17 1703.46,1199.16 1705.68,1199.15 1707.9,1199.14 1710.11,1199.13 1712.33,1199.12 1714.54,1199.1 1716.76,1199.07 1718.98,1199.05 1721.19,1199.02 1723.41,1198.98 1725.62,1198.94 1727.84,1198.9 1730.06,1198.85 1732.27,1198.8 1734.49,1198.74 1736.7,1198.67 1738.92,1198.6 1741.14,1198.52 1743.35,1198.43 1745.57,1198.34 1747.78,1198.23 1750,1198.12 1752.22,1198.01 1754.43,1197.88 1756.65,1197.74 1758.86,1197.6 1761.08,1197.45 1763.3,1197.29 1765.51,1197.11 1767.73,1196.93 1769.94,1196.74 1772.16,1196.54 1774.38,1196.32 1776.59,1196.1 1778.81,1195.87 1781.02,1195.62 1783.24,1195.36 1785.46,1195.09 1787.67,1194.81 1789.89,1194.51 1792.1,1194.2 1794.32,1193.88 1796.54,1193.55 1798.75,1193.2 1800.97,1192.84 1803.18,1192.47 1805.4,1192.08 1807.62,1191.68 1809.83,1191.26 1812.05,1190.83 1814.26,1190.39 1816.48,1189.92 1818.7,1189.45 1820.91,1188.96 1823.13,1188.45 1825.34,1187.93 1827.56,1187.39 1829.78,1186.84 1831.99,1186.27 1834.21,1185.68 1836.42,1185.08 1838.64,1184.46 1840.86,1183.82 1843.07,1183.17 1845.29,1182.5 1847.51,1181.82 1849.72,1234.86 1851.94,1234.14 1854.15,1233.4 1856.37,1232.64 1858.59,1231.87 1860.8,1231.08 1863.02,1230.27 1865.23,1229.44 1867.45,1228.59 1869.67,1227.72 1871.88,1226.84 1874.1,1225.94 1876.31,1225.02 1878.53,1224.08 1880.75,1223.12 1882.96,1222.14 1885.18,1221.15 1887.39,1220.13 1889.61,1219.1 1891.83,1218.05 1894.04,1216.98 1896.26,1215.89 1898.47,1214.78 1900.69,1213.65 1902.91,1212.5 1905.12,1211.33 1907.34,1210.15 1909.55,1208.94 1911.77,1207.72 1913.99,1206.48 1916.2,1205.21 1918.42,1203.93 1920.63,1202.63 1922.85,1201.31 1925.07,1199.97 1927.28,1198.61 1929.5,1197.24 1931.71,1195.84 1933.93,1194.43 1936.15,1192.99 1938.36,1191.54 1940.58,1190.07 1942.79,1188.58 1945.01,1187.07 1947.23,1185.54 1949.44,1184 1951.66,1182.43 1953.87,1347.81 1956.09,1346.2 1958.31,1344.59 1960.52,1342.95 1962.74,1341.29 1964.95,1339.62 1967.17,1337.93 1969.39,1336.22 1971.6,1334.5 1973.82,1332.75 1976.03,1330.99 1978.25,1329.21 1980.47,1327.42 1982.68,1325.61 1984.9,1323.78 1987.11,1321.94 1989.33,1320.08 1991.55,1318.2 1993.76,1316.31 1995.98,1314.4 1998.19,1312.47 2000.41,1310.53 2002.63,1308.58 2004.84,1306.61 2007.06,1304.62 2009.27,1302.62 2011.49,1300.61 2013.71,1298.58 2015.92,1296.54 2018.14,1294.48 2020.35,1292.41 2022.57,1290.33 2024.79,1288.23 2027,1286.12 2029.22,1283.99 2031.43,1281.86 2033.65,1279.71 2035.87,1277.55 2038.08,1275.37 2040.3,1273.19 2042.51,1270.99 2044.73,1268.78 2046.95,1266.56 2049.16,1264.33 2051.38,1262.09 2053.59,1259.84 2055.81,1257.58 2058.03,1255.31 2060.24,1253.03 2062.46,1250.74 2064.67,1248.44 2066.89,1246.13 2069.11,1243.82 2071.32,1241.49 2073.54,1239.16 2075.75,1236.82 2077.97,1234.47 2080.19,1232.12 2082.4,1229.76 2084.62,1227.39 2086.83,1225.02 2089.05,1222.64 2091.27,1220.25 2093.48,1217.86 2095.7,1215.47 2097.91,1213.07 2100.13,1210.66 2102.35,1208.25 2104.56,1205.84 2106.78,1203.42 2108.99,1201 2111.21,1198.58 2113.43,1196.16 2115.64,1193.73 2117.86,1191.3 2120.07,1188.86 2122.29,1186.43 2124.51,1184 2126.72,1278.04 2128.94,1275.61 2131.15,1273.17 2133.37,1270.73 2135.59,1268.3 2137.8,1265.86 2140.02,1263.42 2142.23,1260.99 2144.45,1258.56 2146.67,1256.13 2148.88,1253.7 2151.1,1251.27 2153.31,1248.85 2155.53,1246.43 2157.75,1244.01 2159.96,1241.6 2162.18,1239.19 2164.39,1236.78 2166.61,1234.38 2168.83,1231.98 2171.04,1229.59 2173.26,1227.21 2175.47,1224.82 2177.69,1222.45 2179.91,1220.08 2182.12,1217.72 2184.34,1215.36 2186.55,1213.02 2188.77,1210.68 2190.99,1208.34 2193.2,1206.02 2195.42,1203.7 2197.64,1201.39 2199.85,1199.09 2202.07,1196.8 2204.28,1194.52 2206.5,1192.24 2208.72,1189.98 2210.93,1187.73 2213.15,1185.48 2215.36,1183.25 2217.58,1208.76 2219.8,1206.55 2222.01,1204.35 2224.23,1202.16 2226.44,1199.98 2228.66,1197.82 2230.88,1195.67 2233.09,1193.53 2235.31,1191.4 2237.52,1189.29 2239.74,1187.19 2241.96,1185.1 2244.17,1183.02 2246.39,1200.57 2248.6,1198.52 2250.82,1196.49 2253.04,1194.47 2255.25,1192.47 2257.47,1190.48 2259.68,1188.51 2261.9,1186.55 2264.12,1184.61 2266.33,1182.68 2268.55,1255.99 2270.76,1254.09 2272.98,1252.21 2275.2,1250.35 2277.41,1248.5 2279.63,1246.67 2281.84,1244.85 2284.06,1243.06 2286.28,1241.28 2288.49,1239.51 2290.71,1237.77 2292.92,1236.04 2295.14,1234.32 2297.36,1232.63 2299.57,1230.95 2301.79,1229.3 2304,1227.66 2306.22,1226.03 2308.44,1224.43 2310.65,1222.84 2312.87,1221.27 2315.08,1219.72 2317.3,1218.19 2319.52,1216.68 2321.73,1215.19 2323.95,1213.71 2326.16,1212.26 2328.38,1210.82 2330.6,1209.4 2332.81,1208 2335.03,1206.62 2337.24,1205.26 2339.46,1203.91 2341.68,1202.59 2343.89,1201.29 2346.11,1200 2348.32,1198.73 2350.54,1197.49 2352.76,1196.26 "/>
<polyline clip-path="url(#clip372)" style="stroke:#c271d2; stroke-linecap:round; stroke-linejoin:round; stroke-width:8; stroke-opacity:1; fill:none" points="138.959,1295.47 141.175,1295.47 143.391,1295.47 145.607,1295.47 147.823,1295.47 150.04,1295.47 152.256,1295.47 154.472,1295.47 156.688,1295.47 158.904,1295.47 161.12,1295.47 163.336,1295.47 165.552,1295.47 167.768,1295.47 169.984,1295.47 172.2,1295.47 174.416,1295.47 176.632,1295.47 178.848,1295.47 181.064,1295.47 183.28,1295.47 185.496,1295.47 187.712,1295.47 189.928,1295.47 192.144,1295.47 194.36,1295.47 196.576,1295.47 198.792,1295.47 201.008,1295.47 203.224,1295.47 205.44,1295.47 207.656,1295.47 209.872,1295.47 212.088,1295.47 214.304,1295.47 216.52,1295.47 218.736,1295.47 220.952,1295.47 223.168,1295.47 225.384,1295.47 227.6,1295.47 229.816,1295.47 232.032,1295.47 234.248,1295.47 236.464,1295.47 238.68,1295.47 240.896,1295.47 243.112,1295.47 245.328,1295.47 247.544,1295.47 249.76,1295.47 251.976,1295.47 254.192,1295.47 256.408,1295.47 258.624,1295.47 260.84,1295.47 263.056,1295.47 265.272,1295.47 267.488,1295.47 269.704,1295.47 271.92,1295.47 274.136,1295.47 276.352,1295.47 278.568,1295.47 280.784,1295.37 283,1294.46 285.216,1293.55 287.432,1292.63 289.648,1291.72 291.864,1290.81 294.08,1289.89 296.296,1288.98 298.512,1288.06 300.728,1286.81 302.944,1284.98 305.16,1283.15 307.376,1281.32 309.592,1279.5 311.808,1277.67 314.024,1275.84 316.24,1274.01 318.456,1272.19 320.672,1270.36 322.888,1268.53 325.104,1266.7 327.321,1264.87 329.537,1263.05 331.753,1261.22 333.969,1259.39 336.185,1257.56 338.401,1255.74 340.617,1253.91 342.833,1252.08 345.049,1250.25 347.265,1248.43 349.481,1246.6 351.697,1244.77 353.913,1242.94 356.129,1241.12 358.345,1239.29 360.561,1237.46 362.777,1235.63 364.993,1233.8 367.209,1231.98 369.425,1230.15 371.641,1228.32 373.857,1226.49 376.073,1224.67 378.289,1222.84 380.505,1220.77 382.721,1218.03 384.937,1215.29 387.153,1212.55 389.369,1209.81 391.585,1207.06 393.801,1204.32 396.017,1201.58 398.233,1198.84 400.449,1196.1 402.665,1193.36 404.881,1190.61 407.097,1187.87 409.313,1185.13 411.529,1182.39 413.745,1361.3 415.961,1359.47 418.177,1357.64 420.393,1355.81 422.609,1353.99 424.825,1352.16 427.041,1350.33 429.257,1348.5 431.473,1346.67 433.689,1344.85 435.905,1343.02 438.121,1340.36 440.337,1337.61 442.553,1334.87 444.769,1332.13 446.985,1329.39 449.201,1326.65 451.417,1323.91 453.633,1321.17 455.849,1318.42 458.065,1315.68 460.281,1312.94 462.497,1310.2 464.713,1307.46 466.929,1304.72 469.145,1301.98 471.361,1299.23 473.577,1296.08 475.793,1292.43 478.009,1288.77 480.225,1285.12 482.441,1281.46 484.657,1277.81 486.873,1274.15 489.089,1270.5 491.305,1266.84 493.521,1263.19 495.737,1259.53 497.953,1255.88 500.169,1252.22 502.385,1248.56 504.601,1244.91 506.818,1241.25 509.034,1237.6 511.25,1233.94 513.466,1230.29 515.682,1226.63 517.898,1222.98 520.114,1219.32 522.33,1215.67 524.546,1212.01 526.762,1208.36 528.978,1204.7 531.194,1201.05 533.41,1197.39 535.626,1193.73 537.842,1190.08 540.058,1186.42 542.274,1182.77 544.49,1310.89 546.706,1308.15 548.922,1305.41 551.138,1302.67 553.354,1299.93 555.57,1297.18 557.786,1294.44 560.002,1291.7 562.218,1288.96 564.434,1286.22 566.65,1283.48 568.866,1280.74 571.082,1277.99 573.298,1275.25 575.514,1272.51 577.73,1269.77 579.946,1267.03 582.162,1264.29 584.378,1261.55 586.594,1258.8 588.81,1256.06 591.026,1253.32 593.242,1250.58 595.458,1247.84 597.674,1245.1 599.89,1242.35 602.106,1239.61 604.322,1236.87 606.538,1234.13 608.754,1231.39 610.97,1228.65 613.186,1225.91 615.402,1223.16 617.618,1220.42 619.834,1217.68 622.05,1214.94 624.266,1212.2 626.482,1209.46 628.698,1206.71 630.914,1203.97 633.13,1201.23 635.346,1198.49 637.562,1195.75 639.778,1193.01 641.994,1190.27 644.21,1187.52 646.426,1184.78 648.642,1182.04 650.858,1259.1 653.074,1257.28 655.29,1255.45 657.506,1253.62 659.722,1251.79 661.938,1249.97 664.154,1248.14 666.37,1246.31 668.586,1244.48 670.802,1242.65 673.018,1240.83 675.234,1239 677.45,1237.17 679.666,1235.34 681.882,1233.52 684.099,1231.69 686.315,1229.86 688.531,1228.03 690.747,1226.21 692.963,1224.38 695.179,1222.55 697.395,1220.72 699.611,1218.89 701.827,1217.07 704.043,1215.24 706.259,1213.41 708.475,1211.58 710.691,1209.76 712.907,1207.93 715.123,1206.1 717.339,1204.27 719.555,1202.45 721.771,1200.62 723.987,1198.79 726.203,1196.96 728.419,1195.13 730.635,1193.31 732.851,1191.48 735.067,1189.65 737.283,1187.82 739.499,1186 741.715,1184.17 743.931,1182.34 746.147,1192.38 748.363,1191.47 750.579,1190.55 752.795,1189.64 755.011,1188.73 757.227,1187.81 759.443,1186.9 761.659,1185.98 763.875,1185.07 766.091,1184.16 768.307,1183.24 770.523,1182.33 772.739,1297.87 774.955,1297.87 777.171,1297.87 779.387,1297.87 781.603,1297.87 783.819,1297.87 786.035,1297.87 788.251,1297.87 790.467,1297.87 792.683,1297.87 794.899,1297.87 797.115,1297.87 799.331,1297.87 801.547,1297.87 803.763,1297.87 805.979,1297.87 808.195,1297.87 810.411,1297.87 812.627,1297.87 814.843,1297.87 817.059,1297.87 819.275,1297.87 821.491,1297.87 823.707,1297.87 825.923,1297.87 828.139,1297.87 830.355,1297.87 832.571,1297.87 834.787,1297.87 837.003,1297.87 839.219,1297.87 841.435,1297.87 843.651,1297.87 845.867,1297.87 848.083,1297.87 850.299,1297.87 852.515,1297.87 854.731,1297.87 856.947,1297.87 859.163,1297.87 861.38,1297.87 863.596,1297.87 865.812,1297.87 868.028,1297.87 870.244,1297.87 872.46,1297.87 874.676,1297.87 876.892,1297.87 879.108,1297.87 881.324,1297.87 883.54,1297.87 885.756,1297.87 887.972,1297.87 890.188,1297.87 892.404,1297.87 894.62,1297.87 896.836,1297.87 899.052,1297.87 901.268,1297.87 903.484,1297.87 905.7,1297.87 907.916,1297.87 910.132,1297.87 912.348,1297.87 914.564,1297.87 916.78,1297.87 918.996,1297.87 921.212,1297.87 923.428,1297.87 925.644,1297.87 927.86,1297.87 930.076,1297.87 932.292,1297.87 934.508,1297.87 936.724,1297.87 938.94,1297.87 941.156,1297.87 943.372,1297.87 945.588,1297.87 947.804,1297.87 950.02,1297.87 952.236,1297.87 954.452,1297.87 956.668,1297.87 958.884,1297.87 961.1,1297.87 963.316,1297.87 965.532,1297.87 967.748,1297.87 969.964,1297.87 972.18,1297.87 974.396,1297.87 976.612,1297.87 978.828,1297.87 981.044,1297.87 983.26,1297.87 985.476,1297.87 987.692,1297.87 989.908,1297.87 992.124,1297.87 994.34,1297.87 996.556,1297.87 998.772,1297.87 1000.99,1297.87 1003.2,1297.87 1005.42,1297.87 1007.64,1297.87 1009.85,1297.87 1012.07,1297.87 1014.28,1297.87 1016.5,1297.65 1018.72,1296.73 1020.93,1295.82 1023.15,1294.91 1025.36,1293.99 1027.58,1293.08 1029.8,1292.17 1032.01,1291.25 1034.23,1290.34 1036.44,1289.42 1038.66,1288.51 1040.88,1287.6 1043.09,1286.68 1045.31,1285.77 1047.52,1284.85 1049.74,1283.94 1051.96,1283.03 1054.17,1282.11 1056.39,1281.2 1058.6,1280.29 1060.82,1279.37 1063.04,1278.46 1065.25,1277.54 1067.47,1276.63 1069.68,1275.72 1071.9,1274.8 1074.12,1273.89 1076.33,1272.97 1078.55,1272.06 1080.76,1271.15 1082.98,1270.23 1085.2,1268.45 1087.41,1266.63 1089.63,1264.8 1091.84,1262.97 1094.06,1261.14 1096.28,1259.32 1098.49,1257.49 1100.71,1255.66 1102.92,1253.23 1105.14,1250.49 1107.36,1247.75 1109.57,1245.01 1111.79,1242.27 1114,1239.52 1116.22,1236.78 1118.44,1234.04 1120.65,1231.3 1122.87,1228.56 1125.08,1225.82 1127.3,1223.07 1129.52,1220.33 1131.73,1217.59 1133.95,1214.85 1136.17,1212.11 1138.38,1209.37 1140.6,1206.63 1142.81,1203.88 1145.03,1201.14 1147.25,1198.4 1149.46,1195.66 1151.68,1192.92 1153.89,1190.18 1156.11,1187.44 1158.33,1184.69 1160.54,1181.95 1162.76,1257.85 1164.97,1256.02 1167.19,1254.2 1169.41,1252.37 1171.62,1250.54 1173.84,1248.71 1176.05,1246.88 1178.27,1245.06 1180.49,1243.23 1182.7,1241.4 1184.92,1239.41 1187.13,1236.67 1189.35,1233.93 1191.57,1231.19 1193.78,1228.45 1196,1225.71 1198.21,1222.96 1200.43,1220.22 1202.65,1217.48 1204.86,1214.74 1207.08,1212 1209.29,1209.26 1211.51,1206.51 1213.73,1203.77 1215.94,1201.03 1218.16,1198.29 1220.37,1195.55 1222.59,1192.81 1224.81,1190.07 1227.02,1187.32 1229.24,1183.73 1231.45,1232.57 1233.67,1228.91 1235.89,1225.26 1238.1,1221.6 1240.32,1217.95 1242.53,1214.29 1244.75,1210.64 1246.97,1206.98 1249.18,1203.33 1251.4,1199.67 1253.61,1196.02 1255.83,1192.36 1258.05,1188.71 1260.26,1185.05 1262.48,1246.02 1264.69,1243.28 1266.91,1240.54 1269.13,1237.8 1271.34,1235.06 1273.56,1232.14 1275.77,1228.49 1277.99,1224.83 1280.21,1221.18 1282.42,1217.52 1284.64,1213.86 1286.85,1210.21 1289.07,1206.55 1291.29,1202.9 1293.5,1199.24 1295.72,1195.59 1297.93,1191.93 1300.15,1188.28 1302.37,1184.62 1304.58,1241.5 1306.8,1238.76 1309.01,1236.02 1311.23,1233.28 1313.45,1230.53 1315.66,1227.79 1317.88,1225.05 1320.09,1222.31 1322.31,1219.57 1324.53,1216.83 1326.74,1214.09 1328.96,1211.34 1331.17,1208.6 1333.39,1205.86 1335.61,1203.12 1337.82,1200.38 1340.04,1197.64 1342.25,1194.89 1344.47,1192.15 1346.69,1189.41 1348.9,1186.67 1351.12,1183.93 1353.33,1196.43 1355.55,1194.6 1357.77,1192.77 1359.98,1190.94 1362.2,1189.12 1364.41,1187.29 1366.63,1185.46 1368.85,1183.63 1371.06,1181.81 1373.28,1226.47 1375.49,1225.56 1377.71,1224.65 1379.93,1223.73 1382.14,1222.82 1384.36,1221.91 1386.57,1220.99 1388.79,1220.08 1391.01,1219.16 1393.22,1218.25 1395.44,1217.34 1397.65,1216.42 1399.87,1215.51 1402.09,1214.59 1404.3,1213.68 1406.52,1212.77 1408.73,1211.85 1410.95,1210.94 1413.17,1210.03 1415.38,1209.11 1417.6,1208.2 1419.81,1207.28 1422.03,1206.37 1424.25,1205.46 1426.46,1204.54 1428.68,1203.63 1430.89,1202.71 1433.11,1201.8 1435.33,1200.89 1437.54,1199.97 1439.76,1199.06 1441.97,1198.15 1444.19,1197.23 1446.41,1196.32 1448.62,1195.4 1450.84,1194.49 1453.05,1193.58 1455.27,1192.66 1457.49,1191.75 1459.7,1190.83 1461.92,1189.92 1464.13,1189.01 1466.35,1188.09 1468.57,1187.18 1470.78,1186.27 1473,1185.35 1475.21,1184.44 1477.43,1183.52 1479.65,1182.61 1481.86,1181.7 1484.08,1205.85 1486.3,1205.85 1488.51,1205.85 1490.73,1205.85 1492.94,1205.85 1495.16,1205.85 1497.38,1205.85 1499.59,1205.85 1501.81,1205.85 1504.02,1205.85 1506.24,1205.85 1508.46,1205.85 1510.67,1205.85 1512.89,1205.85 1515.1,1205.85 1517.32,1205.85 1519.54,1205.85 1521.75,1205.85 1523.97,1205.85 1526.18,1205.85 1528.4,1205.85 1530.62,1205.85 1532.83,1205.85 1535.05,1205.85 1537.26,1205.85 1539.48,1205.85 1541.7,1205.85 1543.91,1205.85 1546.13,1205.85 1548.34,1205.85 1550.56,1205.85 1552.78,1205.85 1554.99,1205.81 1557.21,1204.9 1559.42,1203.98 1561.64,1203.07 1563.86,1202.16 1566.07,1201.24 1568.29,1200.33 1570.5,1199.41 1572.72,1198.5 1574.94,1197.59 1577.15,1196.67 1579.37,1195.76 1581.58,1194.85 1583.8,1193.93 1586.02,1193.02 1588.23,1192.1 1590.45,1191.19 1592.66,1190.28 1594.88,1189.36 1597.1,1188.45 1599.31,1187.53 1601.53,1186.62 1603.74,1185.71 1605.96,1184.79 1608.18,1183.88 1610.39,1182.97 1612.61,1182.05 1614.82,1184.43 1617.04,1184.43 1619.26,1184.43 1621.47,1184.43 1623.69,1184.43 1625.9,1184.43 1628.12,1184.43 1630.34,1184.43 1632.55,1184.43 1634.77,1184.43 1636.98,1184.43 1639.2,1184.43 1641.42,1184.43 1643.63,1184.43 1645.85,1184.43 1648.06,1184.43 1650.28,1184.43 1652.5,1184.43 1654.71,1184.43 1656.93,1184.43 1659.14,1184.43 1661.36,1184.43 1663.58,1184.43 1665.79,1184.43 1668.01,1184.43 1670.22,1184.43 1672.44,1184.43 1674.66,1184.43 1676.87,1184.43 1679.09,1184.43 1681.3,1184.43 1683.52,1184.43 1685.74,1184.43 1687.95,1184.43 1690.17,1184.43 1692.38,1184.43 1694.6,1184.43 1696.82,1184.43 1699.03,1184.43 1701.25,1184.43 1703.46,1184.43 1705.68,1184.43 1707.9,1184.43 1710.11,1184.43 1712.33,1184.43 1714.54,1184.43 1716.76,1184.43 1718.98,1184.43 1721.19,1184.43 1723.41,1184.43 1725.62,1184.43 1727.84,1184.43 1730.06,1184.43 1732.27,1184.43 1734.49,1184.43 1736.7,1184.43 1738.92,1184.43 1741.14,1184.43 1743.35,1184.43 1745.57,1184.43 1747.78,1184.43 1750,1184.43 1752.22,1184.43 1754.43,1184.43 1756.65,1184.43 1758.86,1184.43 1761.08,1184.43 1763.3,1184.43 1765.51,1184.43 1767.73,1184.43 1769.94,1184.43 1772.16,1184.43 1774.38,1184.43 1776.59,1184.43 1778.81,1184.43 1781.02,1184.43 1783.24,1184.43 1785.46,1184.43 1787.67,1184.43 1789.89,1184.43 1792.1,1184.43 1794.32,1184.43 1796.54,1184.43 1798.75,1184.43 1800.97,1184.43 1803.18,1184.43 1805.4,1184.43 1807.62,1184.43 1809.83,1184.43 1812.05,1184.43 1814.26,1184.43 1816.48,1184.43 1818.7,1184.43 1820.91,1184.43 1823.13,1184.43 1825.34,1184.43 1827.56,1184.43 1829.78,1184.43 1831.99,1184.43 1834.21,1184.43 1836.42,1184.43 1838.64,1184.43 1840.86,1184.43 1843.07,1184.43 1845.29,1184.43 1847.51,1184.43 1849.72,1183.68 1851.94,1182.76 1854.15,1181.85 1856.37,1236.56 1858.59,1236.56 1860.8,1236.56 1863.02,1236.56 1865.23,1236.56 1867.45,1236.56 1869.67,1236.56 1871.88,1236.56 1874.1,1236.56 1876.31,1236.56 1878.53,1236.56 1880.75,1236.56 1882.96,1236.56 1885.18,1236.56 1887.39,1236.56 1889.61,1236.56 1891.83,1236.56 1894.04,1236.56 1896.26,1236.56 1898.47,1236.56 1900.69,1236.56 1902.91,1236.56 1905.12,1236.56 1907.34,1236.56 1909.55,1236.56 1911.77,1236.56 1913.99,1236.56 1916.2,1236.56 1918.42,1236.56 1920.63,1236.56 1922.85,1236.56 1925.07,1236.56 1927.28,1236.56 1929.5,1236.56 1931.71,1236.56 1933.93,1236.56 1936.15,1236.56 1938.36,1236.56 1940.58,1236.56 1942.79,1236.56 1945.01,1236.56 1947.23,1236.56 1949.44,1236.56 1951.66,1236.56 1953.87,1236.07 1956.09,1235.16 1958.31,1234.25 1960.52,1233.33 1962.74,1232.42 1964.95,1231.5 1967.17,1230.59 1969.39,1229.68 1971.6,1228.76 1973.82,1227.85 1976.03,1226.93 1978.25,1226.02 1980.47,1225.11 1982.68,1224.19 1984.9,1223.28 1987.11,1222.37 1989.33,1221.45 1991.55,1220.54 1993.76,1219.62 1995.98,1218.71 1998.19,1217.8 2000.41,1216.88 2002.63,1215.97 2004.84,1215.05 2007.06,1214.14 2009.27,1213.23 2011.49,1212.31 2013.71,1211.4 2015.92,1210.49 2018.14,1209.57 2020.35,1208.66 2022.57,1207.74 2024.79,1206.83 2027,1205.92 2029.22,1205 2031.43,1204.09 2033.65,1203.17 2035.87,1202.26 2038.08,1201.35 2040.3,1200.43 2042.51,1199.52 2044.73,1198.61 2046.95,1197.69 2049.16,1196.78 2051.38,1195.86 2053.59,1194.95 2055.81,1194.04 2058.03,1193.12 2060.24,1192.21 2062.46,1191.3 2064.67,1190.38 2066.89,1189.47 2069.11,1188.55 2071.32,1187.64 2073.54,1186.73 2075.75,1185.81 2077.97,1184.9 2080.19,1183.98 2082.4,1183.07 2084.62,1182.16 2086.83,1295.61 2089.05,1295.61 2091.27,1295.61 2093.48,1295.61 2095.7,1295.61 2097.91,1295.61 2100.13,1295.61 2102.35,1295.61 2104.56,1295.61 2106.78,1295.61 2108.99,1295.61 2111.21,1295.61 2113.43,1295.61 2115.64,1295.61 2117.86,1295.61 2120.07,1295.61 2122.29,1295.61 2124.51,1295.61 2126.72,1295.55 2128.94,1294.64 2131.15,1293.73 2133.37,1292.81 2135.59,1291.9 2137.8,1290.98 2140.02,1290.07 2142.23,1289.16 2144.45,1288.24 2146.67,1287.33 2148.88,1286.41 2151.1,1285.5 2153.31,1284.59 2155.53,1283.67 2157.75,1282.76 2159.96,1281.85 2162.18,1280.93 2164.39,1280.02 2166.61,1279.1 2168.83,1278.19 2171.04,1277.28 2173.26,1276.36 2175.47,1275.45 2177.69,1274.53 2179.91,1273.62 2182.12,1272.71 2184.34,1271.79 2186.55,1270.88 2188.77,1269.97 2190.99,1269.05 2193.2,1268.14 2195.42,1267.22 2197.64,1266.31 2199.85,1265.4 2202.07,1264.48 2204.28,1263.57 2206.5,1262.65 2208.72,1261.74 2210.93,1260.83 2213.15,1259.91 2215.36,1259 2217.58,1257.81 2219.8,1255.99 2222.01,1254.16 2224.23,1252.33 2226.44,1250.5 2228.66,1248.68 2230.88,1246.85 2233.09,1245.02 2235.31,1243.19 2237.52,1241.37 2239.74,1239.54 2241.96,1237.71 2244.17,1235.88 2246.39,1233.73 2248.6,1230.99 2250.82,1228.25 2253.04,1225.51 2255.25,1222.76 2257.47,1220.02 2259.68,1217.28 2261.9,1214.54 2264.12,1211.8 2266.33,1209.06 2268.55,1205.87 2270.76,1202.22 2272.98,1198.56 2275.2,1194.9 2277.41,1191.25 2279.63,1187.59 2281.84,1183.94 2284.06,1221.69 2286.28,1218.95 2288.49,1216.2 2290.71,1213.46 2292.92,1210.72 2295.14,1207.98 2297.36,1205.24 2299.57,1202.5 2301.79,1199.75 2304,1197.01 2306.22,1194.27 2308.44,1191.53 2310.65,1188.79 2312.87,1186.05 2315.08,1183.31 2317.3,1195.33 2319.52,1193.5 2321.73,1191.67 2323.95,1189.85 2326.16,1188.02 2328.38,1186.19 2330.6,1184.36 2332.81,1182.54 2335.03,1294.28 2337.24,1293.37 2339.46,1292.45 2341.68,1291.54 2343.89,1290.63 2346.11,1289.71 2348.32,1288.8 2350.54,1287.88 2352.76,1286.97 "/>
<path clip-path="url(#clip370)" d="M212.753 352.309 L517.488 352.309 L517.488 93.1086 L212.753 93.1086  Z" fill="#ffffff" fill-rule="evenodd" fill-opacity="1"/>
<polyline clip-path="url(#clip370)" style="stroke:#000000; stroke-linecap:round; stroke-linejoin:round; stroke-width:4; stroke-opacity:1; fill:none" points="212.753,352.309 517.488,352.309 517.488,93.1086 212.753,93.1086 212.753,352.309 "/>
<polyline clip-path="url(#clip370)" style="stroke:#009af9; stroke-linecap:round; stroke-linejoin:round; stroke-width:8; stroke-opacity:1; fill:none" points="237.35,144.949 384.937,144.949 "/>
<path clip-path="url(#clip370)" d="M409.535 127.669 L415.831 127.669 L431.155 156.581 L431.155 127.669 L435.692 127.669 L435.692 162.229 L429.396 162.229 L414.072 133.317 L414.072 162.229 L409.535 162.229 L409.535 127.669 Z" fill="#000000" fill-rule="nonzero" fill-opacity="1" /><path clip-path="url(#clip370)" d="M455.044 126.257 Q451.942 131.581 450.437 136.789 Q448.933 141.997 448.933 147.344 Q448.933 152.692 450.437 157.946 Q451.965 163.178 455.044 168.479 L451.34 168.479 Q447.868 163.039 446.132 157.784 Q444.419 152.53 444.419 147.344 Q444.419 142.182 446.132 136.951 Q447.845 131.72 451.34 126.257 L455.044 126.257 Z" fill="#000000" fill-rule="nonzero" fill-opacity="1" /><path clip-path="url(#clip370)" d="M467.52 128.942 L467.52 136.303 L476.293 136.303 L476.293 139.613 L467.52 139.613 L467.52 153.687 Q467.52 156.858 468.377 157.761 Q469.256 158.664 471.918 158.664 L476.293 158.664 L476.293 162.229 L471.918 162.229 Q466.988 162.229 465.113 160.4 Q463.238 158.548 463.238 153.687 L463.238 139.613 L460.113 139.613 L460.113 136.303 L463.238 136.303 L463.238 128.942 L467.52 128.942 Z" fill="#000000" fill-rule="nonzero" fill-opacity="1" /><path clip-path="url(#clip370)" d="M481.224 126.257 L484.928 126.257 Q488.4 131.72 490.113 136.951 Q491.849 142.182 491.849 147.344 Q491.849 152.53 490.113 157.784 Q488.4 163.039 484.928 168.479 L481.224 168.479 Q484.303 163.178 485.807 157.946 Q487.335 152.692 487.335 147.344 Q487.335 141.997 485.807 136.789 Q484.303 131.581 481.224 126.257 Z" fill="#000000" fill-rule="nonzero" fill-opacity="1" /><polyline clip-path="url(#clip370)" style="stroke:#e26f46; stroke-linecap:round; stroke-linejoin:round; stroke-width:8; stroke-opacity:1; fill:none" points="237.35,196.789 384.937,196.789 "/>
<path clip-path="url(#clip370)" d="M414.21 183.351 L414.21 210.226 L419.859 210.226 Q427.011 210.226 430.321 206.985 Q433.655 203.745 433.655 196.754 Q433.655 189.809 430.321 186.592 Q427.011 183.351 419.859 183.351 L414.21 183.351 M409.535 179.509 L419.141 179.509 Q429.187 179.509 433.886 183.698 Q438.585 187.865 438.585 196.754 Q438.585 205.689 433.863 209.879 Q429.141 214.069 419.141 214.069 L409.535 214.069 L409.535 179.509 Z" fill="#000000" fill-rule="nonzero" fill-opacity="1" /><path clip-path="url(#clip370)" d="M456.085 178.097 Q452.983 183.421 451.479 188.629 Q449.974 193.837 449.974 199.184 Q449.974 204.532 451.479 209.786 Q453.007 215.018 456.085 220.319 L452.382 220.319 Q448.909 214.879 447.173 209.624 Q445.46 204.37 445.46 199.184 Q445.46 194.022 447.173 188.791 Q448.886 183.56 452.382 178.097 L456.085 178.097 Z" fill="#000000" fill-rule="nonzero" fill-opacity="1" /><path clip-path="url(#clip370)" d="M468.562 180.782 L468.562 188.143 L477.335 188.143 L477.335 191.453 L468.562 191.453 L468.562 205.527 Q468.562 208.698 469.419 209.601 Q470.298 210.504 472.96 210.504 L477.335 210.504 L477.335 214.069 L472.96 214.069 Q468.03 214.069 466.155 212.24 Q464.28 210.388 464.28 205.527 L464.28 191.453 L461.155 191.453 L461.155 188.143 L464.28 188.143 L464.28 180.782 L468.562 180.782 Z" fill="#000000" fill-rule="nonzero" fill-opacity="1" /><path clip-path="url(#clip370)" d="M482.266 178.097 L485.969 178.097 Q489.442 183.56 491.154 188.791 Q492.891 194.022 492.891 199.184 Q492.891 204.37 491.154 209.624 Q489.442 214.879 485.969 220.319 L482.266 220.319 Q485.344 215.018 486.849 209.786 Q488.377 204.532 488.377 199.184 Q488.377 193.837 486.849 188.629 Q485.344 183.421 482.266 178.097 Z" fill="#000000" fill-rule="nonzero" fill-opacity="1" /><polyline clip-path="url(#clip370)" style="stroke:#3da44d; stroke-linecap:round; stroke-linejoin:round; stroke-width:8; stroke-opacity:1; fill:none" points="237.35,248.629 384.937,248.629 "/>
<path clip-path="url(#clip370)" d="M409.535 231.349 L415.831 231.349 L431.155 260.261 L431.155 231.349 L435.692 231.349 L435.692 265.909 L429.396 265.909 L414.072 236.997 L414.072 265.909 L409.535 265.909 L409.535 231.349 Z" fill="#000000" fill-rule="nonzero" fill-opacity="1" /><path clip-path="url(#clip370)" d="M455.044 229.937 Q451.942 235.261 450.437 240.469 Q448.933 245.677 448.933 251.024 Q448.933 256.372 450.437 261.626 Q451.965 266.858 455.044 272.159 L451.34 272.159 Q447.868 266.719 446.132 261.464 Q444.419 256.21 444.419 251.024 Q444.419 245.862 446.132 240.631 Q447.845 235.4 451.34 229.937 L455.044 229.937 Z" fill="#000000" fill-rule="nonzero" fill-opacity="1" /><path clip-path="url(#clip370)" d="M467.52 232.622 L467.52 239.983 L476.293 239.983 L476.293 243.293 L467.52 243.293 L467.52 257.367 Q467.52 260.538 468.377 261.441 Q469.256 262.344 471.918 262.344 L476.293 262.344 L476.293 265.909 L471.918 265.909 Q466.988 265.909 465.113 264.08 Q463.238 262.228 463.238 257.367 L463.238 243.293 L460.113 243.293 L460.113 239.983 L463.238 239.983 L463.238 232.622 L467.52 232.622 Z" fill="#000000" fill-rule="nonzero" fill-opacity="1" /><path clip-path="url(#clip370)" d="M481.224 229.937 L484.928 229.937 Q488.4 235.4 490.113 240.631 Q491.849 245.862 491.849 251.024 Q491.849 256.21 490.113 261.464 Q488.4 266.719 484.928 272.159 L481.224 272.159 Q484.303 266.858 485.807 261.626 Q487.335 256.372 487.335 251.024 Q487.335 245.677 485.807 240.469 Q484.303 235.261 481.224 229.937 Z" fill="#000000" fill-rule="nonzero" fill-opacity="1" /><polyline clip-path="url(#clip370)" style="stroke:#c271d2; stroke-linecap:round; stroke-linejoin:round; stroke-width:8; stroke-opacity:1; fill:none" points="237.35,300.469 384.937,300.469 "/>
<path clip-path="url(#clip370)" d="M414.21 287.031 L414.21 313.906 L419.859 313.906 Q427.011 313.906 430.321 310.665 Q433.655 307.425 433.655 300.434 Q433.655 293.489 430.321 290.272 Q427.011 287.031 419.859 287.031 L414.21 287.031 M409.535 283.189 L419.141 283.189 Q429.187 283.189 433.886 287.378 Q438.585 291.545 438.585 300.434 Q438.585 309.369 433.863 313.559 Q429.141 317.749 419.141 317.749 L409.535 317.749 L409.535 283.189 Z" fill="#000000" fill-rule="nonzero" fill-opacity="1" /><path clip-path="url(#clip370)" d="M456.085 281.777 Q452.983 287.101 451.479 292.309 Q449.974 297.517 449.974 302.864 Q449.974 308.212 451.479 313.466 Q453.007 318.698 456.085 323.999 L452.382 323.999 Q448.909 318.559 447.173 313.304 Q445.46 308.05 445.46 302.864 Q445.46 297.702 447.173 292.471 Q448.886 287.24 452.382 281.777 L456.085 281.777 Z" fill="#000000" fill-rule="nonzero" fill-opacity="1" /><path clip-path="url(#clip370)" d="M468.562 284.462 L468.562 291.823 L477.335 291.823 L477.335 295.133 L468.562 295.133 L468.562 309.207 Q468.562 312.378 469.419 313.281 Q470.298 314.184 472.96 314.184 L477.335 314.184 L477.335 317.749 L472.96 317.749 Q468.03 317.749 466.155 315.92 Q464.28 314.068 464.28 309.207 L464.28 295.133 L461.155 295.133 L461.155 291.823 L464.28 291.823 L464.28 284.462 L468.562 284.462 Z" fill="#000000" fill-rule="nonzero" fill-opacity="1" /><path clip-path="url(#clip370)" d="M482.266 281.777 L485.969 281.777 Q489.442 287.24 491.154 292.471 Q492.891 297.702 492.891 302.864 Q492.891 308.05 491.154 313.304 Q489.442 318.559 485.969 323.999 L482.266 323.999 Q485.344 318.698 486.849 313.466 Q488.377 308.212 488.377 302.864 Q488.377 297.517 486.849 292.309 Q485.344 287.101 482.266 281.777 Z" fill="#000000" fill-rule="nonzero" fill-opacity="1" /></svg>
