<?xml version="1.0" encoding="utf-8"?>
<svg xmlns="http://www.w3.org/2000/svg" xmlns:xlink="http://www.w3.org/1999/xlink" width="600" height="400" viewBox="0 0 2400 1600">
<defs>
  <clipPath id="clip940">
    <rect x="0" y="0" width="2400" height="1600"/>
  </clipPath>
</defs>
<path clip-path="url(#clip940)" d="M0 1600 L2400 1600 L2400 0 L0 0  Z" fill="#ffffff" fill-rule="evenodd" fill-opacity="1"/>
<defs>
  <clipPath id="clip941">
    <rect x="480" y="0" width="1681" height="1600"/>
  </clipPath>
</defs>
<path clip-path="url(#clip940)" d="M138.959 1423.18 L2352.76 1423.18 L2352.76 47.2441 L138.959 47.2441  Z" fill="#ffffff" fill-rule="evenodd" fill-opacity="1"/>
<defs>
  <clipPath id="clip942">
    <rect x="138" y="47" width="2215" height="1377"/>
  </clipPath>
</defs>
<polyline clip-path="url(#clip942)" style="stroke:#000000; stroke-linecap:round; stroke-linejoin:round; stroke-width:2; stroke-opacity:0.1; fill:none" points="138.959,1423.18 138.959,47.2441 "/>
<polyline clip-path="url(#clip942)" style="stroke:#000000; stroke-linecap:round; stroke-linejoin:round; stroke-width:2; stroke-opacity:0.1; fill:none" points="581.719,1423.18 581.719,47.2441 "/>
<polyline clip-path="url(#clip942)" style="stroke:#000000; stroke-linecap:round; stroke-linejoin:round; stroke-width:2; stroke-opacity:0.1; fill:none" points="1024.48,1423.18 1024.48,47.2441 "/>
<polyline clip-path="url(#clip942)" style="stroke:#000000; stroke-linecap:round; stroke-linejoin:round; stroke-width:2; stroke-opacity:0.1; fill:none" points="1467.24,1423.18 1467.24,47.2441 "/>
<polyline clip-path="url(#clip942)" style="stroke:#000000; stroke-linecap:round; stroke-linejoin:round; stroke-width:2; stroke-opacity:0.1; fill:none" points="1910,1423.18 1910,47.2441 "/>
<polyline clip-path="url(#clip942)" style="stroke:#000000; stroke-linecap:round; stroke-linejoin:round; stroke-width:2; stroke-opacity:0.1; fill:none" points="2352.76,1423.18 2352.76,47.2441 "/>
<polyline clip-path="url(#clip940)" style="stroke:#000000; stroke-linecap:round; stroke-linejoin:round; stroke-width:4; stroke-opacity:1; fill:none" points="138.959,1423.18 2352.76,1423.18 "/>
<polyline clip-path="url(#clip940)" style="stroke:#000000; stroke-linecap:round; stroke-linejoin:round; stroke-width:4; stroke-opacity:1; fill:none" points="138.959,1423.18 138.959,1404.28 "/>
<polyline clip-path="url(#clip940)" style="stroke:#000000; stroke-linecap:round; stroke-linejoin:round; stroke-width:4; stroke-opacity:1; fill:none" points="581.719,1423.18 581.719,1404.28 "/>
<polyline clip-path="url(#clip940)" style="stroke:#000000; stroke-linecap:round; stroke-linejoin:round; stroke-width:4; stroke-opacity:1; fill:none" points="1024.48,1423.18 1024.48,1404.28 "/>
<polyline clip-path="url(#clip940)" style="stroke:#000000; stroke-linecap:round; stroke-linejoin:round; stroke-width:4; stroke-opacity:1; fill:none" points="1467.24,1423.18 1467.24,1404.28 "/>
<polyline clip-path="url(#clip940)" style="stroke:#000000; stroke-linecap:round; stroke-linejoin:round; stroke-width:4; stroke-opacity:1; fill:none" points="1910,1423.18 1910,1404.28 "/>
<polyline clip-path="url(#clip940)" style="stroke:#000000; stroke-linecap:round; stroke-linejoin:round; stroke-width:4; stroke-opacity:1; fill:none" points="2352.76,1423.18 2352.76,1404.28 "/>
<path clip-path="url(#clip940)" d="M138.959 1454.1 Q135.348 1454.1 133.52 1457.66 Q131.714 1461.2 131.714 1468.33 Q131.714 1475.44 133.52 1479.01 Q135.348 1482.55 138.959 1482.55 Q142.594 1482.55 144.399 1479.01 Q146.228 1475.44 146.228 1468.33 Q146.228 1461.2 144.399 1457.66 Q142.594 1454.1 138.959 1454.1 M138.959 1450.39 Q144.77 1450.39 147.825 1455 Q150.904 1459.58 150.904 1468.33 Q150.904 1477.06 147.825 1481.67 Q144.77 1486.25 138.959 1486.25 Q133.149 1486.25 130.071 1481.67 Q127.015 1477.06 127.015 1468.33 Q127.015 1459.58 130.071 1455 Q133.149 1450.39 138.959 1450.39 Z" fill="#000000" fill-rule="nonzero" fill-opacity="1" /><path clip-path="url(#clip940)" d="M576.372 1481.64 L592.691 1481.64 L592.691 1485.58 L570.747 1485.58 L570.747 1481.64 Q573.409 1478.89 577.992 1474.26 Q582.598 1469.61 583.779 1468.27 Q586.024 1465.74 586.904 1464.01 Q587.807 1462.25 587.807 1460.56 Q587.807 1457.8 585.862 1456.07 Q583.941 1454.33 580.839 1454.33 Q578.64 1454.33 576.186 1455.09 Q573.756 1455.86 570.978 1457.41 L570.978 1452.69 Q573.802 1451.55 576.256 1450.97 Q578.709 1450.39 580.747 1450.39 Q586.117 1450.39 589.311 1453.08 Q592.506 1455.77 592.506 1460.26 Q592.506 1462.39 591.696 1464.31 Q590.908 1466.2 588.802 1468.8 Q588.223 1469.47 585.121 1472.69 Q582.02 1475.88 576.372 1481.64 Z" fill="#000000" fill-rule="nonzero" fill-opacity="1" /><path clip-path="url(#clip940)" d="M1027.49 1455.09 L1015.68 1473.54 L1027.49 1473.54 L1027.49 1455.09 M1026.26 1451.02 L1032.14 1451.02 L1032.14 1473.54 L1037.07 1473.54 L1037.07 1477.43 L1032.14 1477.43 L1032.14 1485.58 L1027.49 1485.58 L1027.49 1477.43 L1011.89 1477.43 L1011.89 1472.92 L1026.26 1451.02 Z" fill="#000000" fill-rule="nonzero" fill-opacity="1" /><path clip-path="url(#clip940)" d="M1467.64 1466.44 Q1464.49 1466.44 1462.64 1468.59 Q1460.81 1470.74 1460.81 1474.49 Q1460.81 1478.22 1462.64 1480.39 Q1464.49 1482.55 1467.64 1482.55 Q1470.79 1482.55 1472.62 1480.39 Q1474.47 1478.22 1474.47 1474.49 Q1474.47 1470.74 1472.62 1468.59 Q1470.79 1466.44 1467.64 1466.44 M1476.92 1451.78 L1476.92 1456.04 Q1475.17 1455.21 1473.36 1454.77 Q1471.58 1454.33 1469.82 1454.33 Q1465.19 1454.33 1462.74 1457.45 Q1460.3 1460.58 1459.96 1466.9 Q1461.32 1464.89 1463.38 1463.82 Q1465.44 1462.73 1467.92 1462.73 Q1473.13 1462.73 1476.14 1465.9 Q1479.17 1469.05 1479.17 1474.49 Q1479.17 1479.82 1476.02 1483.03 Q1472.87 1486.25 1467.64 1486.25 Q1461.65 1486.25 1458.48 1481.67 Q1455.3 1477.06 1455.3 1468.33 Q1455.3 1460.14 1459.19 1455.28 Q1463.08 1450.39 1469.63 1450.39 Q1471.39 1450.39 1473.17 1450.74 Q1474.98 1451.09 1476.92 1451.78 Z" fill="#000000" fill-rule="nonzero" fill-opacity="1" /><path clip-path="url(#clip940)" d="M1910 1469.17 Q1906.66 1469.17 1904.74 1470.95 Q1902.84 1472.73 1902.84 1475.86 Q1902.84 1478.98 1904.74 1480.77 Q1906.66 1482.55 1910 1482.55 Q1913.33 1482.55 1915.25 1480.77 Q1917.17 1478.96 1917.17 1475.86 Q1917.17 1472.73 1915.25 1470.95 Q1913.35 1469.17 1910 1469.17 M1905.32 1467.18 Q1902.31 1466.44 1900.62 1464.38 Q1898.96 1462.32 1898.96 1459.35 Q1898.96 1455.21 1901.89 1452.8 Q1904.86 1450.39 1910 1450.39 Q1915.16 1450.39 1918.1 1452.8 Q1921.04 1455.21 1921.04 1459.35 Q1921.04 1462.32 1919.35 1464.38 Q1917.68 1466.44 1914.7 1467.18 Q1918.08 1467.96 1919.95 1470.26 Q1921.85 1472.55 1921.85 1475.86 Q1921.85 1480.88 1918.77 1483.57 Q1915.71 1486.25 1910 1486.25 Q1904.28 1486.25 1901.2 1483.57 Q1898.14 1480.88 1898.14 1475.86 Q1898.14 1472.55 1900.04 1470.26 Q1901.94 1467.96 1905.32 1467.18 M1903.61 1459.79 Q1903.61 1462.48 1905.27 1463.98 Q1906.96 1465.49 1910 1465.49 Q1913.01 1465.49 1914.7 1463.98 Q1916.41 1462.48 1916.41 1459.79 Q1916.41 1457.11 1914.7 1455.6 Q1913.01 1454.1 1910 1454.1 Q1906.96 1454.1 1905.27 1455.6 Q1903.61 1457.11 1903.61 1459.79 Z" fill="#000000" fill-rule="nonzero" fill-opacity="1" /><path clip-path="url(#clip940)" d="M2327.44 1481.64 L2335.08 1481.64 L2335.08 1455.28 L2326.77 1456.95 L2326.77 1452.69 L2335.04 1451.02 L2339.71 1451.02 L2339.71 1481.64 L2347.35 1481.64 L2347.35 1485.58 L2327.44 1485.58 L2327.44 1481.64 Z" fill="#000000" fill-rule="nonzero" fill-opacity="1" /><path clip-path="url(#clip940)" d="M2366.8 1454.1 Q2363.18 1454.1 2361.36 1457.66 Q2359.55 1461.2 2359.55 1468.33 Q2359.55 1475.44 2361.36 1479.01 Q2363.18 1482.55 2366.8 1482.55 Q2370.43 1482.55 2372.23 1479.01 Q2374.06 1475.44 2374.06 1468.33 Q2374.06 1461.2 2372.23 1457.66 Q2370.43 1454.1 2366.8 1454.1 M2366.8 1450.39 Q2372.61 1450.39 2375.66 1455 Q2378.74 1459.58 2378.74 1468.33 Q2378.74 1477.06 2375.66 1481.67 Q2372.61 1486.25 2366.8 1486.25 Q2360.99 1486.25 2357.91 1481.67 Q2354.85 1477.06 2354.85 1468.33 Q2354.85 1459.58 2357.91 1455 Q2360.99 1450.39 2366.8 1450.39 Z" fill="#000000" fill-rule="nonzero" fill-opacity="1" /><path clip-path="url(#clip940)" d="M1244.92 1522.27 L1244.92 1532.4 L1256.98 1532.4 L1256.98 1536.95 L1244.92 1536.95 L1244.92 1556.3 Q1244.92 1560.66 1246.1 1561.9 Q1247.31 1563.14 1250.97 1563.14 L1256.98 1563.14 L1256.98 1568.04 L1250.97 1568.04 Q1244.19 1568.04 1241.61 1565.53 Q1239.03 1562.98 1239.03 1556.3 L1239.03 1536.95 L1234.73 1536.95 L1234.73 1532.4 L1239.03 1532.4 L1239.03 1522.27 L1244.92 1522.27 Z" fill="#000000" fill-rule="nonzero" fill-opacity="1" /><polyline clip-path="url(#clip942)" style="stroke:#000000; stroke-linecap:round; stroke-linejoin:round; stroke-width:2; stroke-opacity:0.1; fill:none" points="138.959,1384.24 2352.76,1384.24 "/>
<polyline clip-path="url(#clip942)" style="stroke:#000000; stroke-linecap:round; stroke-linejoin:round; stroke-width:2; stroke-opacity:0.1; fill:none" points="138.959,1023.67 2352.76,1023.67 "/>
<polyline clip-path="url(#clip942)" style="stroke:#000000; stroke-linecap:round; stroke-linejoin:round; stroke-width:2; stroke-opacity:0.1; fill:none" points="138.959,663.098 2352.76,663.098 "/>
<polyline clip-path="url(#clip942)" style="stroke:#000000; stroke-linecap:round; stroke-linejoin:round; stroke-width:2; stroke-opacity:0.1; fill:none" points="138.959,302.528 2352.76,302.528 "/>
<polyline clip-path="url(#clip940)" style="stroke:#000000; stroke-linecap:round; stroke-linejoin:round; stroke-width:4; stroke-opacity:1; fill:none" points="138.959,1423.18 138.959,47.2441 "/>
<polyline clip-path="url(#clip940)" style="stroke:#000000; stroke-linecap:round; stroke-linejoin:round; stroke-width:4; stroke-opacity:1; fill:none" points="138.959,1384.24 157.857,1384.24 "/>
<polyline clip-path="url(#clip940)" style="stroke:#000000; stroke-linecap:round; stroke-linejoin:round; stroke-width:4; stroke-opacity:1; fill:none" points="138.959,1023.67 157.857,1023.67 "/>
<polyline clip-path="url(#clip940)" style="stroke:#000000; stroke-linecap:round; stroke-linejoin:round; stroke-width:4; stroke-opacity:1; fill:none" points="138.959,663.098 157.857,663.098 "/>
<polyline clip-path="url(#clip940)" style="stroke:#000000; stroke-linecap:round; stroke-linejoin:round; stroke-width:4; stroke-opacity:1; fill:none" points="138.959,302.528 157.857,302.528 "/>
<path clip-path="url(#clip940)" d="M91.0151 1370.04 Q87.404 1370.04 85.5753 1373.6 Q83.7697 1377.14 83.7697 1384.27 Q83.7697 1391.38 85.5753 1394.94 Q87.404 1398.49 91.0151 1398.49 Q94.6493 1398.49 96.4548 1394.94 Q98.2835 1391.38 98.2835 1384.27 Q98.2835 1377.14 96.4548 1373.6 Q94.6493 1370.04 91.0151 1370.04 M91.0151 1366.33 Q96.8252 1366.33 99.8808 1370.94 Q102.959 1375.52 102.959 1384.27 Q102.959 1393 99.8808 1397.61 Q96.8252 1402.19 91.0151 1402.19 Q85.2049 1402.19 82.1262 1397.61 Q79.0707 1393 79.0707 1384.27 Q79.0707 1375.52 82.1262 1370.94 Q85.2049 1366.33 91.0151 1366.33 Z" fill="#000000" fill-rule="nonzero" fill-opacity="1" /><path clip-path="url(#clip940)" d="M82.0568 1006.39 L100.413 1006.39 L100.413 1010.32 L86.3392 1010.32 L86.3392 1018.8 Q87.3577 1018.45 88.3762 1018.29 Q89.3947 1018.1 90.4132 1018.1 Q96.2002 1018.1 99.5798 1021.27 Q102.959 1024.44 102.959 1029.86 Q102.959 1035.44 99.4872 1038.54 Q96.015 1041.62 89.6956 1041.62 Q87.5197 1041.62 85.2512 1041.25 Q83.0058 1040.88 80.5984 1040.14 L80.5984 1035.44 Q82.6818 1036.57 84.904 1037.13 Q87.1262 1037.68 89.603 1037.68 Q93.6076 1037.68 95.9456 1035.58 Q98.2835 1033.47 98.2835 1029.86 Q98.2835 1026.25 95.9456 1024.14 Q93.6076 1022.04 89.603 1022.04 Q87.728 1022.04 85.8531 1022.45 Q84.0012 1022.87 82.0568 1023.75 L82.0568 1006.39 Z" fill="#000000" fill-rule="nonzero" fill-opacity="1" /><path clip-path="url(#clip940)" d="M51.6634 676.443 L59.3023 676.443 L59.3023 650.077 L50.9921 651.744 L50.9921 647.485 L59.256 645.818 L63.9319 645.818 L63.9319 676.443 L71.5707 676.443 L71.5707 680.378 L51.6634 680.378 L51.6634 676.443 Z" fill="#000000" fill-rule="nonzero" fill-opacity="1" /><path clip-path="url(#clip940)" d="M91.0151 648.897 Q87.404 648.897 85.5753 652.461 Q83.7697 656.003 83.7697 663.133 Q83.7697 670.239 85.5753 673.804 Q87.404 677.346 91.0151 677.346 Q94.6493 677.346 96.4548 673.804 Q98.2835 670.239 98.2835 663.133 Q98.2835 656.003 96.4548 652.461 Q94.6493 648.897 91.0151 648.897 M91.0151 645.193 Q96.8252 645.193 99.8808 649.799 Q102.959 654.383 102.959 663.133 Q102.959 671.859 99.8808 676.466 Q96.8252 681.049 91.0151 681.049 Q85.2049 681.049 82.1262 676.466 Q79.0707 671.859 79.0707 663.133 Q79.0707 654.383 82.1262 649.799 Q85.2049 645.193 91.0151 645.193 Z" fill="#000000" fill-rule="nonzero" fill-opacity="1" /><path clip-path="url(#clip940)" d="M52.6588 315.873 L60.2976 315.873 L60.2976 289.507 L51.9875 291.174 L51.9875 286.914 L60.2513 285.248 L64.9272 285.248 L64.9272 315.873 L72.5661 315.873 L72.5661 319.808 L52.6588 319.808 L52.6588 315.873 Z" fill="#000000" fill-rule="nonzero" fill-opacity="1" /><path clip-path="url(#clip940)" d="M82.0568 285.248 L100.413 285.248 L100.413 289.183 L86.3392 289.183 L86.3392 297.655 Q87.3577 297.308 88.3762 297.146 Q89.3947 296.961 90.4132 296.961 Q96.2002 296.961 99.5798 300.132 Q102.959 303.303 102.959 308.72 Q102.959 314.299 99.4872 317.4 Q96.015 320.479 89.6956 320.479 Q87.5197 320.479 85.2512 320.109 Q83.0058 319.738 80.5984 318.998 L80.5984 314.299 Q82.6818 315.433 84.904 315.988 Q87.1262 316.544 89.603 316.544 Q93.6076 316.544 95.9456 314.437 Q98.2835 312.331 98.2835 308.72 Q98.2835 305.109 95.9456 303.002 Q93.6076 300.896 89.603 300.896 Q87.728 300.896 85.8531 301.312 Q84.0012 301.729 82.0568 302.609 L82.0568 285.248 Z" fill="#000000" fill-rule="nonzero" fill-opacity="1" /><polyline clip-path="url(#clip942)" style="stroke:#009af9; stroke-linecap:round; stroke-linejoin:round; stroke-width:8; stroke-opacity:1; fill:none" points="138.959,1384.24 140.067,1384.24 141.174,1384.24 142.282,1384.24 143.389,1384.24 144.497,1384.24 145.604,1384.24 146.712,1384.24 147.819,1384.24 148.927,1384.24 150.034,1384.24 151.141,1384.24 152.249,1384.24 153.356,1384.24 154.464,1384.24 155.571,1384.24 156.679,1384.24 157.786,1384.24 158.894,1384.24 160.001,1384.24 161.108,1384.24 162.216,1384.24 163.323,1384.24 164.431,1384.24 165.538,1384.24 166.646,1384.24 167.753,1384.24 168.861,1384.24 169.968,1384.24 171.076,1384.24 172.183,1384.24 173.29,1384.24 174.398,1384.24 175.505,1384.24 176.613,1384.24 177.72,1384.24 178.828,1384.24 179.935,1384.24 181.043,1384.24 182.15,1384.24 183.258,1384.24 184.365,1384.24 185.472,1384.24 186.58,1384.24 187.687,1384.24 188.795,1384.24 189.902,1384.24 191.01,1384.24 192.117,1384.24 193.225,1384.24 194.332,1384.24 195.439,1384.24 196.547,1384.24 197.654,1384.24 198.762,1384.24 199.869,1384.24 200.977,1384.24 202.084,1384.24 203.192,1384.24 204.299,1384.24 205.407,1384.24 206.514,1384.24 207.621,1384.24 208.729,1384.24 209.836,1384.24 210.944,1384.24 212.051,1384.24 213.159,1384.24 214.266,1384.24 215.374,1384.24 216.481,1384.24 217.589,1384.24 218.696,1384.24 219.803,1384.24 220.911,1384.24 222.018,1384.24 223.126,1384.24 224.233,1384.24 225.341,1384.24 226.448,1384.24 227.556,1384.24 228.663,1384.24 229.771,1384.24 230.878,1384.24 231.985,1384.24 233.093,1384.24 234.2,1384.24 235.308,1384.24 236.415,1384.24 237.523,1384.24 238.63,1384.24 239.738,1384.24 240.845,1384.24 241.952,1384.24 243.06,1384.24 244.167,1312.12 245.275,1312.12 246.382,1312.12 247.49,1312.12 248.597,1312.12 249.705,1312.12 250.812,1312.12 251.92,1312.12 253.027,1312.12 254.134,1312.12 255.242,1312.12 256.349,1312.12 257.457,1312.12 258.564,1312.12 259.672,1312.12 260.779,1312.12 261.887,1312.12 262.994,1312.12 264.102,1312.12 265.209,1312.12 266.316,1312.12 267.424,1312.12 268.531,1312.12 269.639,1312.12 270.746,1312.12 271.854,1312.12 272.961,1312.12 274.069,1312.12 275.176,1312.12 276.283,1312.12 277.391,1312.12 278.498,1312.12 279.606,1312.12 280.713,1312.12 281.821,1312.12 282.928,1312.12 284.036,1312.12 285.143,1312.12 286.251,1312.12 287.358,1312.12 288.465,1312.12 289.573,1312.12 290.68,1312.12 291.788,1312.12 292.895,1312.12 294.003,1312.12 295.11,1312.12 296.218,1312.12 297.325,1312.12 298.433,1312.12 299.54,1312.12 300.647,1312.12 301.755,1312.12 302.862,1312.12 303.97,1312.12 305.077,1312.12 306.185,1312.12 307.292,1312.12 308.4,1312.12 309.507,1312.12 310.614,1312.12 311.722,1312.12 312.829,1312.12 313.937,1312.12 315.044,1312.12 316.152,1312.12 317.259,1312.12 318.367,1312.12 319.474,1312.12 320.582,1312.12 321.689,1240.01 322.796,1240.01 323.904,1240.01 325.011,1240.01 326.119,1240.01 327.226,1240.01 328.334,1240.01 329.441,1240.01 330.549,1240.01 331.656,1240.01 332.764,1240.01 333.871,1240.01 334.978,1240.01 336.086,1240.01 337.193,1240.01 338.301,1240.01 339.408,1240.01 340.516,1240.01 341.623,1240.01 342.731,1240.01 343.838,1240.01 344.946,1240.01 346.053,1240.01 347.16,1240.01 348.268,1240.01 349.375,1240.01 350.483,1240.01 351.59,1240.01 352.698,1240.01 353.805,1240.01 354.913,1240.01 356.02,1240.01 357.127,1240.01 358.235,1240.01 359.342,1240.01 360.45,1240.01 361.557,1240.01 362.665,1240.01 363.772,1240.01 364.88,1240.01 365.987,1240.01 367.095,1240.01 368.202,1240.01 369.309,1240.01 370.417,1240.01 371.524,1240.01 372.632,1240.01 373.739,1240.01 374.847,1240.01 375.954,1240.01 377.062,1240.01 378.169,1240.01 379.277,1240.01 380.384,1240.01 381.491,1240.01 382.599,1240.01 383.706,1240.01 384.814,1240.01 385.921,1240.01 387.029,1240.01 388.136,1240.01 389.244,1240.01 390.351,1240.01 391.458,1240.01 392.566,1240.01 393.673,1240.01 394.781,1240.01 395.888,1240.01 396.996,1240.01 398.103,1240.01 399.211,1240.01 400.318,1240.01 401.426,1240.01 402.533,1240.01 403.64,1240.01 404.748,1240.01 405.855,1240.01 406.963,1240.01 408.07,1240.01 409.178,1240.01 410.285,1240.01 411.393,1240.01 412.5,1240.01 413.608,1240.01 414.715,1240.01 415.822,1240.01 416.93,1240.01 418.037,1240.01 419.145,1240.01 420.252,1240.01 421.36,1240.01 422.467,1240.01 423.575,1240.01 424.682,1240.01 425.789,1240.01 426.897,1240.01 428.004,1240.01 429.112,1240.01 430.219,1240.01 431.327,1240.01 432.434,1240.01 433.542,1240.01 434.649,1240.01 435.757,1240.01 436.864,1240.01 437.971,1240.01 439.079,1240.01 440.186,1240.01 441.294,1240.01 442.401,1240.01 443.509,1240.01 444.616,1240.01 445.724,1240.01 446.831,1240.01 447.939,1240.01 449.046,1240.01 450.153,1240.01 451.261,1240.01 452.368,1240.01 453.476,1240.01 454.583,1240.01 455.691,1240.01 456.798,1240.01 457.906,1240.01 459.013,1240.01 460.121,1240.01 461.228,1167.9 462.335,1167.9 463.443,1167.9 464.55,1167.9 465.658,1167.9 466.765,1167.9 467.873,1167.9 468.98,1167.9 470.088,1167.9 471.195,1167.9 472.302,1167.9 473.41,1167.9 474.517,1167.9 475.625,1167.9 476.732,1167.9 477.84,1167.9 478.947,1167.9 480.055,1167.9 481.162,1167.9 482.27,1167.9 483.377,1167.9 484.484,1167.9 485.592,1167.9 486.699,1167.9 487.807,1167.9 488.914,1167.9 490.022,1167.9 491.129,1167.9 492.237,1167.9 493.344,1167.9 494.452,1167.9 495.559,1167.9 496.666,1167.9 497.774,1167.9 498.881,1167.9 499.989,1167.9 501.096,1167.9 502.204,1167.9 503.311,1167.9 504.419,1167.9 505.526,1167.9 506.633,1167.9 507.741,1167.9 508.848,1167.9 509.956,1167.9 511.063,1167.9 512.171,1167.9 513.278,1167.9 514.386,1167.9 515.493,1167.9 516.601,1167.9 517.708,1167.9 518.815,1167.9 519.923,1167.9 521.03,1167.9 522.138,1167.9 523.245,1167.9 524.353,1167.9 525.46,1167.9 526.568,1167.9 527.675,1167.9 528.783,1167.9 529.89,1167.9 530.997,1167.9 532.105,1167.9 533.212,1167.9 534.32,1167.9 535.427,1167.9 536.535,1167.9 537.642,1167.9 538.75,1167.9 539.857,1167.9 540.965,1167.9 542.072,1167.9 543.179,1167.9 544.287,1167.9 545.394,1167.9 546.502,1167.9 547.609,1167.9 548.717,1167.9 549.824,1167.9 550.932,1167.9 552.039,1167.9 553.146,1167.9 554.254,1167.9 555.361,1167.9 556.469,1167.9 557.576,1167.9 558.684,1167.9 559.791,1167.9 560.899,1167.9 562.006,1095.78 563.114,1095.78 564.221,1095.78 565.328,1095.78 566.436,1095.78 567.543,1095.78 568.651,1095.78 569.758,1095.78 570.866,1095.78 571.973,1095.78 573.081,1095.78 574.188,1095.78 575.296,1095.78 576.403,1095.78 577.51,1095.78 578.618,1095.78 579.725,1095.78 580.833,1095.78 581.94,1095.78 583.048,1095.78 584.155,1095.78 585.263,1095.78 586.37,1095.78 587.477,1095.78 588.585,1095.78 589.692,1095.78 590.8,1095.78 591.907,1095.78 593.015,1095.78 594.122,1095.78 595.23,1095.78 596.337,1095.78 597.445,1095.78 598.552,1095.78 599.659,1095.78 600.767,1095.78 601.874,1095.78 602.982,1095.78 604.089,1095.78 605.197,1095.78 606.304,1095.78 607.412,1095.78 608.519,1095.78 609.627,1095.78 610.734,1095.78 611.841,1095.78 612.949,1095.78 614.056,1095.78 615.164,1095.78 616.271,1095.78 617.379,1095.78 618.486,1023.67 619.594,1023.67 620.701,1023.67 621.808,1023.67 622.916,1023.67 624.023,1023.67 625.131,1023.67 626.238,1023.67 627.346,1023.67 628.453,1023.67 629.561,1023.67 630.668,1023.67 631.776,1023.67 632.883,1023.67 633.99,1023.67 635.098,1023.67 636.205,1023.67 637.313,1023.67 638.42,1023.67 639.528,1023.67 640.635,1023.67 641.743,1023.67 642.85,1023.67 643.958,1023.67 645.065,1023.67 646.172,1023.67 647.28,1023.67 648.387,1023.67 649.495,1023.67 650.602,1023.67 651.71,1023.67 652.817,1023.67 653.925,1023.67 655.032,1023.67 656.14,1023.67 657.247,1023.67 658.354,1023.67 659.462,1023.67 660.569,1023.67 661.677,1023.67 662.784,1023.67 663.892,1023.67 664.999,1023.67 666.107,1023.67 667.214,1023.67 668.321,1023.67 669.429,1023.67 670.536,1023.67 671.644,1023.67 672.751,1023.67 673.859,1023.67 674.966,1023.67 676.074,1023.67 677.181,1023.67 678.289,1023.67 679.396,1023.67 680.503,1023.67 681.611,1023.67 682.718,1023.67 683.826,1023.67 684.933,1023.67 686.041,1023.67 687.148,1023.67 688.256,951.554 689.363,951.554 690.471,951.554 691.578,951.554 692.685,951.554 693.793,951.554 694.9,951.554 696.008,951.554 697.115,951.554 698.223,951.554 699.33,951.554 700.438,951.554 701.545,951.554 702.652,951.554 703.76,951.554 704.867,951.554 705.975,951.554 707.082,951.554 708.19,951.554 709.297,951.554 710.405,951.554 711.512,951.554 712.62,951.554 713.727,951.554 714.834,951.554 715.942,951.554 717.049,951.554 718.157,951.554 719.264,951.554 720.372,951.554 721.479,951.554 722.587,951.554 723.694,951.554 724.802,951.554 725.909,951.554 727.016,951.554 728.124,951.554 729.231,951.554 730.339,951.554 731.446,951.554 732.554,951.554 733.661,951.554 734.769,951.554 735.876,951.554 736.983,951.554 738.091,951.554 739.198,951.554 740.306,951.554 741.413,951.554 742.521,951.554 743.628,951.554 744.736,951.554 745.843,951.554 746.951,951.554 748.058,951.554 749.165,951.554 750.273,951.554 751.38,951.554 752.488,951.554 753.595,951.554 754.703,951.554 755.81,951.554 756.918,951.554 758.025,951.554 759.133,951.554 760.24,951.554 761.347,951.554 762.455,951.554 763.562,951.554 764.67,951.554 765.777,951.554 766.885,951.554 767.992,951.554 769.1,951.554 770.207,951.554 771.315,951.554 772.422,951.554 773.529,951.554 774.637,951.554 775.744,951.554 776.852,951.554 777.959,951.554 779.067,951.554 780.174,951.554 781.282,951.554 782.389,951.554 783.496,951.554 784.604,951.554 785.711,951.554 786.819,951.554 787.926,951.554 789.034,951.554 790.141,951.554 791.249,951.554 792.356,951.554 793.464,951.554 794.571,951.554 795.678,951.554 796.786,951.554 797.893,951.554 799.001,951.554 800.108,951.554 801.216,951.554 802.323,951.554 803.431,951.554 804.538,951.554 805.646,951.554 806.753,951.554 807.86,951.554 808.968,951.554 810.075,951.554 811.183,951.554 812.29,951.554 813.398,951.554 814.505,951.554 815.613,951.554 816.72,951.554 817.827,951.554 818.935,951.554 820.042,951.554 821.15,951.554 822.257,951.554 823.365,951.554 824.472,951.554 825.58,951.554 826.687,951.554 827.795,951.554 828.902,951.554 830.009,951.554 831.117,951.554 832.224,951.554 833.332,951.554 834.439,951.554 835.547,951.554 836.654,951.554 837.762,951.554 838.869,951.554 839.977,951.554 841.084,951.554 842.191,951.554 843.299,951.554 844.406,951.554 845.514,951.554 846.621,951.554 847.729,951.554 848.836,951.554 849.944,951.554 851.051,951.554 852.159,951.554 853.266,951.554 854.373,951.554 855.481,951.554 856.588,951.554 857.696,951.554 858.803,951.554 859.911,951.554 861.018,951.554 862.126,951.554 863.233,951.554 864.34,951.554 865.448,951.554 866.555,951.554 867.663,951.554 868.77,951.554 869.878,951.554 870.985,951.554 872.093,951.554 873.2,951.554 874.308,951.554 875.415,951.554 876.522,951.554 877.63,951.554 878.737,951.554 879.845,951.554 880.952,951.554 882.06,951.554 883.167,951.554 884.275,951.554 885.382,951.554 886.49,951.554 887.597,951.554 888.704,951.554 889.812,951.554 890.919,951.554 892.027,951.554 893.134,951.554 894.242,951.554 895.349,951.554 896.457,951.554 897.564,951.554 898.671,951.554 899.779,951.554 900.886,951.554 901.994,951.554 903.101,951.554 904.209,951.554 905.316,951.554 906.424,951.554 907.531,951.554 908.639,951.554 909.746,951.554 910.853,951.554 911.961,951.554 913.068,951.554 914.176,951.554 915.283,951.554 916.391,951.554 917.498,951.554 918.606,951.554 919.713,951.554 920.821,951.554 921.928,951.554 923.035,951.554 924.143,951.554 925.25,951.554 926.358,951.554 927.465,951.554 928.573,951.554 929.68,951.554 930.788,951.554 931.895,951.554 933.002,951.554 934.11,951.554 935.217,951.554 936.325,951.554 937.432,951.554 938.54,951.554 939.647,951.554 940.755,951.554 941.862,951.554 942.97,951.554 944.077,951.554 945.184,951.554 946.292,951.554 947.399,951.554 948.507,951.554 949.614,951.554 950.722,951.554 951.829,951.554 952.937,951.554 954.044,951.554 955.152,951.554 956.259,951.554 957.366,951.554 958.474,951.554 959.581,951.554 960.689,951.554 961.796,879.44 962.904,879.44 964.011,879.44 965.119,879.44 966.226,879.44 967.334,879.44 968.441,879.44 969.548,879.44 970.656,879.44 971.763,879.44 972.871,879.44 973.978,879.44 975.086,879.44 976.193,879.44 977.301,879.44 978.408,879.44 979.515,879.44 980.623,879.44 981.73,879.44 982.838,879.44 983.945,879.44 985.053,879.44 986.16,879.44 987.268,879.44 988.375,879.44 989.483,879.44 990.59,879.44 991.697,879.44 992.805,879.44 993.912,879.44 995.02,879.44 996.127,879.44 997.235,879.44 998.342,879.44 999.45,879.44 1000.56,879.44 1001.66,879.44 1002.77,879.44 1003.88,879.44 1004.99,879.44 1006.09,879.44 1007.2,879.44 1008.31,879.44 1009.42,879.44 1010.52,879.44 1011.63,879.44 1012.74,879.44 1013.85,879.44 1014.95,879.44 1016.06,879.44 1017.17,879.44 1018.28,879.44 1019.38,879.44 1020.49,879.44 1021.6,879.44 1022.71,879.44 1023.81,879.44 1024.92,879.44 1026.03,879.44 1027.14,879.44 1028.24,879.44 1029.35,879.44 1030.46,879.44 1031.57,879.44 1032.67,879.44 1033.78,879.44 1034.89,879.44 1036,879.44 1037.1,879.44 1038.21,879.44 1039.32,879.44 1040.43,879.44 1041.53,879.44 1042.64,879.44 1043.75,879.44 1044.86,879.44 1045.96,879.44 1047.07,879.44 1048.18,879.44 1049.28,879.44 1050.39,879.44 1051.5,879.44 1052.61,879.44 1053.71,879.44 1054.82,879.44 1055.93,879.44 1057.04,879.44 1058.14,879.44 1059.25,879.44 1060.36,879.44 1061.47,879.44 1062.57,879.44 1063.68,879.44 1064.79,879.44 1065.9,879.44 1067,879.44 1068.11,879.44 1069.22,879.44 1070.33,879.44 1071.43,879.44 1072.54,879.44 1073.65,879.44 1074.76,879.44 1075.86,879.44 1076.97,879.44 1078.08,879.44 1079.19,879.44 1080.29,879.44 1081.4,879.44 1082.51,879.44 1083.62,879.44 1084.72,879.44 1085.83,879.44 1086.94,879.44 1088.05,879.44 1089.15,879.44 1090.26,879.44 1091.37,879.44 1092.48,879.44 1093.58,879.44 1094.69,879.44 1095.8,879.44 1096.91,879.44 1098.01,879.44 1099.12,879.44 1100.23,879.44 1101.34,879.44 1102.44,879.44 1103.55,879.44 1104.66,879.44 1105.77,807.326 1106.87,807.326 1107.98,807.326 1109.09,807.326 1110.19,807.326 1111.3,807.326 1112.41,807.326 1113.52,807.326 1114.62,807.326 1115.73,807.326 1116.84,807.326 1117.95,807.326 1119.05,807.326 1120.16,807.326 1121.27,807.326 1122.38,807.326 1123.48,807.326 1124.59,807.326 1125.7,807.326 1126.81,807.326 1127.91,807.326 1129.02,807.326 1130.13,807.326 1131.24,807.326 1132.34,807.326 1133.45,807.326 1134.56,807.326 1135.67,807.326 1136.77,807.326 1137.88,807.326 1138.99,807.326 1140.1,807.326 1141.2,735.212 1142.31,735.212 1143.42,735.212 1144.53,735.212 1145.63,735.212 1146.74,735.212 1147.85,735.212 1148.96,735.212 1150.06,735.212 1151.17,735.212 1152.28,735.212 1153.39,735.212 1154.49,735.212 1155.6,735.212 1156.71,735.212 1157.82,735.212 1158.92,735.212 1160.03,735.212 1161.14,735.212 1162.25,735.212 1163.35,735.212 1164.46,735.212 1165.57,735.212 1166.67,735.212 1167.78,735.212 1168.89,735.212 1170,735.212 1171.1,735.212 1172.21,735.212 1173.32,735.212 1174.43,735.212 1175.53,735.212 1176.64,735.212 1177.75,735.212 1178.86,735.212 1179.96,735.212 1181.07,735.212 1182.18,735.212 1183.29,735.212 1184.39,735.212 1185.5,735.212 1186.61,735.212 1187.72,735.212 1188.82,735.212 1189.93,735.212 1191.04,735.212 1192.15,735.212 1193.25,735.212 1194.36,735.212 1195.47,735.212 1196.58,735.212 1197.68,735.212 1198.79,735.212 1199.9,735.212 1201.01,735.212 1202.11,735.212 1203.22,735.212 1204.33,735.212 1205.44,735.212 1206.54,735.212 1207.65,735.212 1208.76,735.212 1209.87,735.212 1210.97,735.212 1212.08,735.212 1213.19,735.212 1214.3,735.212 1215.4,735.212 1216.51,735.212 1217.62,735.212 1218.73,735.212 1219.83,735.212 1220.94,735.212 1222.05,735.212 1223.15,735.212 1224.26,735.212 1225.37,735.212 1226.48,735.212 1227.58,735.212 1228.69,735.212 1229.8,735.212 1230.91,735.212 1232.01,735.212 1233.12,735.212 1234.23,735.212 1235.34,735.212 1236.44,735.212 1237.55,735.212 1238.66,735.212 1239.77,735.212 1240.87,735.212 1241.98,735.212 1243.09,735.212 1244.2,735.212 1245.3,735.212 1246.41,735.212 1247.52,735.212 1248.63,735.212 1249.73,735.212 1250.84,735.212 1251.95,735.212 1253.06,735.212 1254.16,735.212 1255.27,735.212 1256.38,735.212 1257.49,735.212 1258.59,735.212 1259.7,735.212 1260.81,735.212 1261.92,735.212 1263.02,735.212 1264.13,735.212 1265.24,735.212 1266.35,735.212 1267.45,735.212 1268.56,735.212 1269.67,735.212 1270.78,735.212 1271.88,735.212 1272.99,735.212 1274.1,735.212 1275.21,735.212 1276.31,735.212 1277.42,735.212 1278.53,735.212 1279.63,735.212 1280.74,735.212 1281.85,735.212 1282.96,735.212 1284.06,735.212 1285.17,735.212 1286.28,735.212 1287.39,735.212 1288.49,735.212 1289.6,735.212 1290.71,735.212 1291.82,735.212 1292.92,735.212 1294.03,735.212 1295.14,735.212 1296.25,735.212 1297.35,735.212 1298.46,735.212 1299.57,735.212 1300.68,735.212 1301.78,735.212 1302.89,735.212 1304,735.212 1305.11,735.212 1306.21,735.212 1307.32,735.212 1308.43,735.212 1309.54,735.212 1310.64,735.212 1311.75,735.212 1312.86,735.212 1313.97,735.212 1315.07,735.212 1316.18,735.212 1317.29,735.212 1318.4,735.212 1319.5,735.212 1320.61,735.212 1321.72,735.212 1322.83,735.212 1323.93,735.212 1325.04,735.212 1326.15,735.212 1327.26,735.212 1328.36,735.212 1329.47,735.212 1330.58,735.212 1331.69,735.212 1332.79,735.212 1333.9,735.212 1335.01,735.212 1336.12,735.212 1337.22,735.212 1338.33,735.212 1339.44,735.212 1340.54,735.212 1341.65,735.212 1342.76,735.212 1343.87,735.212 1344.97,735.212 1346.08,735.212 1347.19,735.212 1348.3,735.212 1349.4,735.212 1350.51,735.212 1351.62,735.212 1352.73,735.212 1353.83,735.212 1354.94,735.212 1356.05,735.212 1357.16,735.212 1358.26,735.212 1359.37,735.212 1360.48,735.212 1361.59,735.212 1362.69,735.212 1363.8,735.212 1364.91,735.212 1366.02,735.212 1367.12,735.212 1368.23,735.212 1369.34,735.212 1370.45,735.212 1371.55,735.212 1372.66,735.212 1373.77,735.212 1374.88,735.212 1375.98,735.212 1377.09,735.212 1378.2,735.212 1379.31,735.212 1380.41,735.212 1381.52,735.212 1382.63,735.212 1383.74,735.212 1384.84,735.212 1385.95,735.212 1387.06,735.212 1388.17,735.212 1389.27,735.212 1390.38,735.212 1391.49,735.212 1392.6,735.212 1393.7,735.212 1394.81,735.212 1395.92,735.212 1397.02,735.212 1398.13,735.212 1399.24,735.212 1400.35,735.212 1401.45,735.212 1402.56,735.212 1403.67,735.212 1404.78,735.212 1405.88,735.212 1406.99,735.212 1408.1,735.212 1409.21,735.212 1410.31,735.212 1411.42,735.212 1412.53,735.212 1413.64,735.212 1414.74,735.212 1415.85,735.212 1416.96,735.212 1418.07,735.212 1419.17,735.212 1420.28,735.212 1421.39,735.212 1422.5,735.212 1423.6,735.212 1424.71,663.098 1425.82,663.098 1426.93,663.098 1428.03,663.098 1429.14,663.098 1430.25,663.098 1431.36,663.098 1432.46,663.098 1433.57,663.098 1434.68,663.098 1435.79,663.098 1436.89,663.098 1438,663.098 1439.11,663.098 1440.22,663.098 1441.32,663.098 1442.43,590.984 1443.54,590.984 1444.65,590.984 1445.75,590.984 1446.86,590.984 1447.97,590.984 1449.08,590.984 1450.18,590.984 1451.29,590.984 1452.4,590.984 1453.5,590.984 1454.61,590.984 1455.72,590.984 1456.83,590.984 1457.93,590.984 1459.04,590.984 1460.15,590.984 1461.26,590.984 1462.36,590.984 1463.47,590.984 1464.58,590.984 1465.69,590.984 1466.79,590.984 1467.9,590.984 1469.01,590.984 1470.12,590.984 1471.22,590.984 1472.33,590.984 1473.44,590.984 1474.55,590.984 1475.65,590.984 1476.76,590.984 1477.87,590.984 1478.98,590.984 1480.08,518.87 1481.19,518.87 1482.3,518.87 1483.41,518.87 1484.51,518.87 1485.62,518.87 1486.73,518.87 1487.84,518.87 1488.94,518.87 1490.05,518.87 1491.16,518.87 1492.27,518.87 1493.37,518.87 1494.48,518.87 1495.59,518.87 1496.7,518.87 1497.8,518.87 1498.91,518.87 1500.02,518.87 1501.13,518.87 1502.23,518.87 1503.34,518.87 1504.45,518.87 1505.56,518.87 1506.66,518.87 1507.77,518.87 1508.88,518.87 1509.98,518.87 1511.09,518.87 1512.2,518.87 1513.31,518.87 1514.41,518.87 1515.52,518.87 1516.63,518.87 1517.74,518.87 1518.84,518.87 1519.95,518.87 1521.06,518.87 1522.17,518.87 1523.27,518.87 1524.38,518.87 1525.49,518.87 1526.6,518.87 1527.7,518.87 1528.81,518.87 1529.92,518.87 1531.03,518.87 1532.13,518.87 1533.24,518.87 1534.35,518.87 1535.46,518.87 1536.56,518.87 1537.67,518.87 1538.78,518.87 1539.89,518.87 1540.99,518.87 1542.1,518.87 1543.21,518.87 1544.32,518.87 1545.42,518.87 1546.53,518.87 1547.64,518.87 1548.75,518.87 1549.85,518.87 1550.96,518.87 1552.07,518.87 1553.18,518.87 1554.28,518.87 1555.39,518.87 1556.5,518.87 1557.61,518.87 1558.71,518.87 1559.82,518.87 1560.93,518.87 1562.04,518.87 1563.14,518.87 1564.25,518.87 1565.36,518.87 1566.47,518.87 1567.57,518.87 1568.68,518.87 1569.79,518.87 1570.89,518.87 1572,518.87 1573.11,518.87 1574.22,518.87 1575.32,518.87 1576.43,518.87 1577.54,518.87 1578.65,518.87 1579.75,518.87 1580.86,518.87 1581.97,518.87 1583.08,518.87 1584.18,518.87 1585.29,518.87 1586.4,518.87 1587.51,518.87 1588.61,518.87 1589.72,518.87 1590.83,518.87 1591.94,518.87 1593.04,518.87 1594.15,518.87 1595.26,518.87 1596.37,518.87 1597.47,518.87 1598.58,518.87 1599.69,518.87 1600.8,518.87 1601.9,518.87 1603.01,518.87 1604.12,518.87 1605.23,518.87 1606.33,518.87 1607.44,518.87 1608.55,518.87 1609.66,518.87 1610.76,518.87 1611.87,518.87 1612.98,518.87 1614.09,518.87 1615.19,518.87 1616.3,518.87 1617.41,518.87 1618.52,518.87 1619.62,518.87 1620.73,518.87 1621.84,518.87 1622.95,518.87 1624.05,518.87 1625.16,518.87 1626.27,518.87 1627.37,518.87 1628.48,518.87 1629.59,518.87 1630.7,518.87 1631.8,518.87 1632.91,518.87 1634.02,518.87 1635.13,518.87 1636.23,518.87 1637.34,518.87 1638.45,518.87 1639.56,518.87 1640.66,518.87 1641.77,518.87 1642.88,518.87 1643.99,518.87 1645.09,518.87 1646.2,518.87 1647.31,518.87 1648.42,518.87 1649.52,518.87 1650.63,518.87 1651.74,518.87 1652.85,518.87 1653.95,518.87 1655.06,518.87 1656.17,518.87 1657.28,518.87 1658.38,446.756 1659.49,446.756 1660.6,446.756 1661.71,446.756 1662.81,446.756 1663.92,446.756 1665.03,446.756 1666.14,446.756 1667.24,446.756 1668.35,446.756 1669.46,446.756 1670.57,446.756 1671.67,446.756 1672.78,446.756 1673.89,446.756 1675,446.756 1676.1,446.756 1677.21,446.756 1678.32,446.756 1679.43,446.756 1680.53,446.756 1681.64,446.756 1682.75,446.756 1683.85,446.756 1684.96,446.756 1686.07,446.756 1687.18,446.756 1688.28,446.756 1689.39,446.756 1690.5,446.756 1691.61,446.756 1692.71,446.756 1693.82,446.756 1694.93,446.756 1696.04,446.756 1697.14,446.756 1698.25,446.756 1699.36,446.756 1700.47,446.756 1701.57,446.756 1702.68,446.756 1703.79,446.756 1704.9,446.756 1706,374.642 1707.11,374.642 1708.22,374.642 1709.33,374.642 1710.43,374.642 1711.54,374.642 1712.65,374.642 1713.76,374.642 1714.86,374.642 1715.97,302.528 1717.08,302.528 1718.19,302.528 1719.29,302.528 1720.4,302.528 1721.51,302.528 1722.62,302.528 1723.72,302.528 1724.83,302.528 1725.94,302.528 1727.05,302.528 1728.15,302.528 1729.26,302.528 1730.37,302.528 1731.48,302.528 1732.58,302.528 1733.69,302.528 1734.8,302.528 1735.91,302.528 1737.01,302.528 1738.12,302.528 1739.23,302.528 1740.33,302.528 1741.44,302.528 1742.55,302.528 1743.66,302.528 1744.76,302.528 1745.87,302.528 1746.98,302.528 1748.09,302.528 1749.19,302.528 1750.3,302.528 1751.41,302.528 1752.52,302.528 1753.62,302.528 1754.73,302.528 1755.84,302.528 1756.95,302.528 1758.05,302.528 1759.16,302.528 1760.27,302.528 1761.38,302.528 1762.48,302.528 1763.59,302.528 1764.7,302.528 1765.81,302.528 1766.91,302.528 1768.02,302.528 1769.13,302.528 1770.24,302.528 1771.34,302.528 1772.45,302.528 1773.56,302.528 1774.67,302.528 1775.77,302.528 1776.88,302.528 1777.99,302.528 1779.1,302.528 1780.2,302.528 1781.31,302.528 1782.42,302.528 1783.53,302.528 1784.63,302.528 1785.74,302.528 1786.85,302.528 1787.96,302.528 1789.06,302.528 1790.17,302.528 1791.28,302.528 1792.39,302.528 1793.49,302.528 1794.6,302.528 1795.71,302.528 1796.82,302.528 1797.92,302.528 1799.03,302.528 1800.14,302.528 1801.24,302.528 1802.35,302.528 1803.46,302.528 1804.57,302.528 1805.67,302.528 1806.78,302.528 1807.89,302.528 1809,302.528 1810.1,302.528 1811.21,302.528 1812.32,302.528 1813.43,302.528 1814.53,302.528 1815.64,302.528 1816.75,302.528 1817.86,302.528 1818.96,302.528 1820.07,302.528 1821.18,302.528 1822.29,302.528 1823.39,302.528 1824.5,302.528 1825.61,302.528 1826.72,302.528 1827.82,302.528 1828.93,302.528 1830.04,230.414 1831.15,230.414 1832.25,230.414 1833.36,230.414 1834.47,230.414 1835.58,230.414 1836.68,230.414 1837.79,230.414 1838.9,230.414 1840.01,230.414 1841.11,230.414 1842.22,230.414 1843.33,230.414 1844.44,230.414 1845.54,230.414 1846.65,230.414 1847.76,230.414 1848.87,230.414 1849.97,230.414 1851.08,230.414 1852.19,230.414 1853.3,230.414 1854.4,230.414 1855.51,230.414 1856.62,230.414 1857.72,230.414 1858.83,230.414 1859.94,230.414 1861.05,230.414 1862.15,230.414 1863.26,230.414 1864.37,230.414 1865.48,230.414 1866.58,230.414 1867.69,230.414 1868.8,230.414 1869.91,230.414 1871.01,230.414 1872.12,230.414 1873.23,230.414 1874.34,230.414 1875.44,230.414 1876.55,230.414 1877.66,230.414 1878.77,230.414 1879.87,230.414 1880.98,230.414 1882.09,230.414 1883.2,230.414 1884.3,230.414 1885.41,230.414 1886.52,230.414 1887.63,230.414 1888.73,230.414 1889.84,230.414 1890.95,230.414 1892.06,230.414 1893.16,230.414 1894.27,230.414 1895.38,230.414 1896.49,230.414 1897.59,230.414 1898.7,230.414 1899.81,230.414 1900.92,230.414 1902.02,230.414 1903.13,230.414 1904.24,230.414 1905.35,230.414 1906.45,230.414 1907.56,230.414 1908.67,230.414 1909.78,230.414 1910.88,230.414 1911.99,230.414 1913.1,230.414 1914.2,230.414 1915.31,230.414 1916.42,230.414 1917.53,230.414 1918.63,230.414 1919.74,230.414 1920.85,230.414 1921.96,230.414 1923.06,230.414 1924.17,230.414 1925.28,230.414 1926.39,230.414 1927.49,230.414 1928.6,230.414 1929.71,230.414 1930.82,230.414 1931.92,230.414 1933.03,230.414 1934.14,230.414 1935.25,230.414 1936.35,230.414 1937.46,230.414 1938.57,230.414 1939.68,230.414 1940.78,230.414 1941.89,230.414 1943,230.414 1944.11,230.414 1945.21,230.414 1946.32,230.414 1947.43,230.414 1948.54,230.414 1949.64,230.414 1950.75,230.414 1951.86,230.414 1952.97,230.414 1954.07,230.414 1955.18,230.414 1956.29,230.414 1957.4,230.414 1958.5,230.414 1959.61,230.414 1960.72,230.414 1961.83,230.414 1962.93,230.414 1964.04,230.414 1965.15,230.414 1966.26,230.414 1967.36,230.414 1968.47,230.414 1969.58,230.414 1970.68,230.414 1971.79,230.414 1972.9,230.414 1974.01,230.414 1975.11,230.414 1976.22,230.414 1977.33,230.414 1978.44,230.414 1979.54,230.414 1980.65,230.414 1981.76,230.414 1982.87,230.414 1983.97,230.414 1985.08,230.414 1986.19,230.414 1987.3,230.414 1988.4,230.414 1989.51,230.414 1990.62,230.414 1991.73,230.414 1992.83,230.414 1993.94,230.414 1995.05,230.414 1996.16,230.414 1997.26,230.414 1998.37,230.414 1999.48,230.414 2000.59,230.414 2001.69,230.414 2002.8,230.414 2003.91,230.414 2005.02,230.414 2006.12,230.414 2007.23,230.414 2008.34,230.414 2009.45,230.414 2010.55,230.414 2011.66,230.414 2012.77,230.414 2013.88,230.414 2014.98,230.414 2016.09,230.414 2017.2,230.414 2018.31,230.414 2019.41,230.414 2020.52,230.414 2021.63,230.414 2022.74,230.414 2023.84,158.3 2024.95,158.3 2026.06,158.3 2027.17,158.3 2028.27,158.3 2029.38,158.3 2030.49,158.3 2031.59,158.3 2032.7,158.3 2033.81,158.3 2034.92,158.3 2036.02,158.3 2037.13,158.3 2038.24,158.3 2039.35,158.3 2040.45,158.3 2041.56,158.3 2042.67,158.3 2043.78,158.3 2044.88,158.3 2045.99,158.3 2047.1,158.3 2048.21,158.3 2049.31,158.3 2050.42,158.3 2051.53,86.1857 2052.64,86.1857 2053.74,86.1857 2054.85,86.1857 2055.96,86.1857 2057.07,86.1857 2058.17,86.1857 2059.28,86.1857 2060.39,86.1857 2061.5,86.1857 2062.6,86.1857 2063.71,86.1857 2064.82,86.1857 2065.93,86.1857 2067.03,86.1857 2068.14,86.1857 2069.25,86.1857 2070.36,86.1857 2071.46,86.1857 2072.57,86.1857 2073.68,86.1857 2074.79,86.1857 2075.89,86.1857 2077,86.1857 2078.11,86.1857 2079.22,86.1857 2080.32,86.1857 2081.43,86.1857 2082.54,86.1857 2083.65,86.1857 2084.75,86.1857 2085.86,86.1857 2086.97,86.1857 2088.07,86.1857 2089.18,86.1857 2090.29,86.1857 2091.4,86.1857 2092.5,86.1857 2093.61,86.1857 2094.72,86.1857 2095.83,86.1857 2096.93,86.1857 2098.04,86.1857 2099.15,86.1857 2100.26,86.1857 2101.36,86.1857 2102.47,86.1857 2103.58,86.1857 2104.69,86.1857 2105.79,86.1857 2106.9,86.1857 2108.01,86.1857 2109.12,86.1857 2110.22,86.1857 2111.33,86.1857 2112.44,86.1857 2113.55,86.1857 2114.65,86.1857 2115.76,86.1857 2116.87,86.1857 2117.98,86.1857 2119.08,86.1857 2120.19,86.1857 2121.3,86.1857 2122.41,86.1857 2123.51,86.1857 2124.62,86.1857 2125.73,86.1857 2126.84,86.1857 2127.94,86.1857 2129.05,86.1857 2130.16,86.1857 2131.27,86.1857 2132.37,86.1857 2133.48,86.1857 2134.59,86.1857 2135.7,86.1857 2136.8,86.1857 2137.91,86.1857 2139.02,86.1857 2140.13,86.1857 2141.23,86.1857 2142.34,86.1857 2143.45,86.1857 2144.55,86.1857 2145.66,86.1857 2146.77,86.1857 2147.88,86.1857 2148.98,86.1857 2150.09,86.1857 2151.2,86.1857 2152.31,86.1857 2153.41,86.1857 2154.52,86.1857 2155.63,86.1857 2156.74,86.1857 2157.84,86.1857 2158.95,86.1857 2160.06,86.1857 2161.17,86.1857 2162.27,86.1857 2163.38,86.1857 2164.49,86.1857 2165.6,86.1857 2166.7,86.1857 2167.81,86.1857 2168.92,86.1857 2170.03,86.1857 2171.13,86.1857 2172.24,86.1857 2173.35,86.1857 2174.46,86.1857 2175.56,86.1857 2176.67,86.1857 2177.78,86.1857 2178.89,86.1857 2179.99,86.1857 2181.1,86.1857 2182.21,86.1857 2183.32,86.1857 2184.42,86.1857 2185.53,86.1857 2186.64,86.1857 2187.75,86.1857 2188.85,86.1857 2189.96,86.1857 2191.07,86.1857 2192.18,86.1857 2193.28,86.1857 2194.39,86.1857 2195.5,86.1857 2196.61,86.1857 2197.71,86.1857 2198.82,86.1857 2199.93,86.1857 2201.03,86.1857 2202.14,86.1857 2203.25,86.1857 2204.36,86.1857 2205.46,86.1857 2206.57,86.1857 2207.68,86.1857 2208.79,86.1857 2209.89,86.1857 2211,86.1857 2212.11,86.1857 2213.22,86.1857 2214.32,86.1857 2215.43,86.1857 2216.54,86.1857 2217.65,86.1857 2218.75,86.1857 2219.86,86.1857 2220.97,86.1857 2222.08,86.1857 2223.18,86.1857 2224.29,86.1857 2225.4,86.1857 2226.51,86.1857 2227.61,86.1857 2228.72,86.1857 2229.83,86.1857 2230.94,86.1857 2232.04,86.1857 2233.15,86.1857 2234.26,86.1857 2235.37,86.1857 2236.47,86.1857 2237.58,86.1857 2238.69,86.1857 2239.8,86.1857 2240.9,86.1857 2242.01,86.1857 2243.12,86.1857 2244.23,86.1857 2245.33,86.1857 2246.44,86.1857 2247.55,86.1857 2248.66,86.1857 2249.76,86.1857 2250.87,86.1857 2251.98,86.1857 2253.09,86.1857 2254.19,86.1857 2255.3,86.1857 2256.41,86.1857 2257.52,86.1857 2258.62,86.1857 2259.73,86.1857 2260.84,86.1857 2261.94,86.1857 2263.05,86.1857 2264.16,86.1857 2265.27,86.1857 2266.37,86.1857 2267.48,86.1857 2268.59,86.1857 2269.7,86.1857 2270.8,86.1857 2271.91,86.1857 2273.02,86.1857 2274.13,86.1857 2275.23,86.1857 2276.34,86.1857 2277.45,86.1857 2278.56,86.1857 2279.66,86.1857 2280.77,86.1857 2281.88,86.1857 2282.99,86.1857 2284.09,86.1857 2285.2,86.1857 2286.31,86.1857 2287.42,86.1857 2288.52,86.1857 2289.63,86.1857 2290.74,86.1857 2291.85,86.1857 2292.95,86.1857 2294.06,86.1857 2295.17,86.1857 2296.28,86.1857 2297.38,86.1857 2298.49,86.1857 2299.6,86.1857 2300.71,86.1857 2301.81,86.1857 2302.92,86.1857 2304.03,86.1857 2305.14,86.1857 2306.24,86.1857 2307.35,86.1857 2308.46,86.1857 2309.57,86.1857 2310.67,86.1857 2311.78,86.1857 2312.89,86.1857 2314,86.1857 2315.1,86.1857 2316.21,86.1857 2317.32,86.1857 2318.42,86.1857 2319.53,86.1857 2320.64,86.1857 2321.75,86.1857 2322.85,86.1857 2323.96,86.1857 2325.07,86.1857 2326.18,86.1857 2327.28,86.1857 2328.39,86.1857 2329.5,86.1857 2330.61,86.1857 2331.71,86.1857 2332.82,86.1857 2333.93,86.1857 2335.04,86.1857 2336.14,86.1857 2337.25,86.1857 2338.36,86.1857 2339.47,86.1857 2340.57,86.1857 2341.68,86.1857 2342.79,86.1857 2343.9,86.1857 2345,86.1857 2346.11,86.1857 2347.22,86.1857 2348.33,86.1857 2349.43,86.1857 2350.54,86.1857 2351.65,86.1857 2352.76,86.1857 "/>
<path clip-path="url(#clip940)" d="M1975.27 1377.32 L2278.96 1377.32 L2278.96 1273.64 L1975.27 1273.64  Z" fill="#ffffff" fill-rule="evenodd" fill-opacity="1"/>
<polyline clip-path="url(#clip940)" style="stroke:#000000; stroke-linecap:round; stroke-linejoin:round; stroke-width:4; stroke-opacity:1; fill:none" points="1975.27,1377.32 2278.96,1377.32 2278.96,1273.64 1975.27,1273.64 1975.27,1377.32 "/>
<polyline clip-path="url(#clip940)" style="stroke:#009af9; stroke-linecap:round; stroke-linejoin:round; stroke-width:8; stroke-opacity:1; fill:none" points="1999.87,1325.48 2147.45,1325.48 "/>
<path clip-path="url(#clip940)" d="M2172.05 1308.2 L2178.35 1308.2 L2193.67 1337.11 L2193.67 1308.2 L2198.21 1308.2 L2198.21 1342.76 L2191.91 1342.76 L2176.59 1313.84 L2176.59 1342.76 L2172.05 1342.76 L2172.05 1308.2 Z" fill="#000000" fill-rule="nonzero" fill-opacity="1" /><path clip-path="url(#clip940)" d="M2217.56 1306.78 Q2214.46 1312.11 2212.95 1317.32 Q2211.45 1322.52 2211.45 1327.87 Q2211.45 1333.22 2212.95 1338.47 Q2214.48 1343.7 2217.56 1349.01 L2213.86 1349.01 Q2210.38 1343.57 2208.65 1338.31 Q2206.93 1333.06 2206.93 1327.87 Q2206.93 1322.71 2208.65 1317.48 Q2210.36 1312.25 2213.86 1306.78 L2217.56 1306.78 Z" fill="#000000" fill-rule="nonzero" fill-opacity="1" /><path clip-path="url(#clip940)" d="M2230.04 1309.47 L2230.04 1316.83 L2238.81 1316.83 L2238.81 1320.14 L2230.04 1320.14 L2230.04 1334.21 Q2230.04 1337.38 2230.89 1338.29 Q2231.77 1339.19 2234.43 1339.19 L2238.81 1339.19 L2238.81 1342.76 L2234.43 1342.76 Q2229.5 1342.76 2227.63 1340.93 Q2225.75 1339.07 2225.75 1334.21 L2225.75 1320.14 L2222.63 1320.14 L2222.63 1316.83 L2225.75 1316.83 L2225.75 1309.47 L2230.04 1309.47 Z" fill="#000000" fill-rule="nonzero" fill-opacity="1" /><path clip-path="url(#clip940)" d="M2243.74 1306.78 L2247.44 1306.78 Q2250.92 1312.25 2252.63 1317.48 Q2254.36 1322.71 2254.36 1327.87 Q2254.36 1333.06 2252.63 1338.31 Q2250.92 1343.57 2247.44 1349.01 L2243.74 1349.01 Q2246.82 1343.7 2248.32 1338.47 Q2249.85 1333.22 2249.85 1327.87 Q2249.85 1322.52 2248.32 1317.32 Q2246.82 1312.11 2243.74 1306.78 Z" fill="#000000" fill-rule="nonzero" fill-opacity="1" /></svg>
