<?xml version="1.0" encoding="utf-8"?>
<svg xmlns="http://www.w3.org/2000/svg" xmlns:xlink="http://www.w3.org/1999/xlink" width="600" height="400" viewBox="0 0 2400 1600">
<defs>
  <clipPath id="clip260">
    <rect x="0" y="0" width="2400" height="1600"/>
  </clipPath>
</defs>
<path clip-path="url(#clip260)" d="M0 1600 L2400 1600 L2400 0 L0 0  Z" fill="#ffffff" fill-rule="evenodd" fill-opacity="1"/>
<defs>
  <clipPath id="clip261">
    <rect x="480" y="0" width="1681" height="1600"/>
  </clipPath>
</defs>
<path clip-path="url(#clip260)" d="M140.696 1423.18 L2352.76 1423.18 L2352.76 47.2441 L140.696 47.2441  Z" fill="#ffffff" fill-rule="evenodd" fill-opacity="1"/>
<defs>
  <clipPath id="clip262">
    <rect x="140" y="47" width="2213" height="1377"/>
  </clipPath>
</defs>
<polyline clip-path="url(#clip262)" style="stroke:#000000; stroke-linecap:round; stroke-linejoin:round; stroke-width:2; stroke-opacity:0.1; fill:none" points="140.696,1423.18 140.696,47.2441 "/>
<polyline clip-path="url(#clip262)" style="stroke:#000000; stroke-linecap:round; stroke-linejoin:round; stroke-width:2; stroke-opacity:0.1; fill:none" points="583.108,1423.18 583.108,47.2441 "/>
<polyline clip-path="url(#clip262)" style="stroke:#000000; stroke-linecap:round; stroke-linejoin:round; stroke-width:2; stroke-opacity:0.1; fill:none" points="1025.52,1423.18 1025.52,47.2441 "/>
<polyline clip-path="url(#clip262)" style="stroke:#000000; stroke-linecap:round; stroke-linejoin:round; stroke-width:2; stroke-opacity:0.1; fill:none" points="1467.93,1423.18 1467.93,47.2441 "/>
<polyline clip-path="url(#clip262)" style="stroke:#000000; stroke-linecap:round; stroke-linejoin:round; stroke-width:2; stroke-opacity:0.1; fill:none" points="1910.34,1423.18 1910.34,47.2441 "/>
<polyline clip-path="url(#clip262)" style="stroke:#000000; stroke-linecap:round; stroke-linejoin:round; stroke-width:2; stroke-opacity:0.1; fill:none" points="2352.76,1423.18 2352.76,47.2441 "/>
<polyline clip-path="url(#clip260)" style="stroke:#000000; stroke-linecap:round; stroke-linejoin:round; stroke-width:4; stroke-opacity:1; fill:none" points="140.696,1423.18 2352.76,1423.18 "/>
<polyline clip-path="url(#clip260)" style="stroke:#000000; stroke-linecap:round; stroke-linejoin:round; stroke-width:4; stroke-opacity:1; fill:none" points="140.696,1423.18 140.696,1404.28 "/>
<polyline clip-path="url(#clip260)" style="stroke:#000000; stroke-linecap:round; stroke-linejoin:round; stroke-width:4; stroke-opacity:1; fill:none" points="583.108,1423.18 583.108,1404.28 "/>
<polyline clip-path="url(#clip260)" style="stroke:#000000; stroke-linecap:round; stroke-linejoin:round; stroke-width:4; stroke-opacity:1; fill:none" points="1025.52,1423.18 1025.52,1404.28 "/>
<polyline clip-path="url(#clip260)" style="stroke:#000000; stroke-linecap:round; stroke-linejoin:round; stroke-width:4; stroke-opacity:1; fill:none" points="1467.93,1423.18 1467.93,1404.28 "/>
<polyline clip-path="url(#clip260)" style="stroke:#000000; stroke-linecap:round; stroke-linejoin:round; stroke-width:4; stroke-opacity:1; fill:none" points="1910.34,1423.18 1910.34,1404.28 "/>
<polyline clip-path="url(#clip260)" style="stroke:#000000; stroke-linecap:round; stroke-linejoin:round; stroke-width:4; stroke-opacity:1; fill:none" points="2352.76,1423.18 2352.76,1404.28 "/>
<path clip-path="url(#clip260)" d="M140.696 1454.1 Q137.084 1454.1 135.256 1457.66 Q133.45 1461.2 133.45 1468.33 Q133.45 1475.44 135.256 1479.01 Q137.084 1482.55 140.696 1482.55 Q144.33 1482.55 146.135 1479.01 Q147.964 1475.44 147.964 1468.33 Q147.964 1461.2 146.135 1457.66 Q144.33 1454.1 140.696 1454.1 M140.696 1450.39 Q146.506 1450.39 149.561 1455 Q152.64 1459.58 152.64 1468.33 Q152.64 1477.06 149.561 1481.67 Q146.506 1486.25 140.696 1486.25 Q134.885 1486.25 131.807 1481.67 Q128.751 1477.06 128.751 1468.33 Q128.751 1459.58 131.807 1455 Q134.885 1450.39 140.696 1450.39 Z" fill="#000000" fill-rule="nonzero" fill-opacity="1" /><path clip-path="url(#clip260)" d="M577.76 1481.64 L594.08 1481.64 L594.08 1485.58 L572.135 1485.58 L572.135 1481.64 Q574.797 1478.89 579.381 1474.26 Q583.987 1469.61 585.168 1468.27 Q587.413 1465.74 588.293 1464.01 Q589.196 1462.25 589.196 1460.56 Q589.196 1457.8 587.251 1456.07 Q585.33 1454.33 582.228 1454.33 Q580.029 1454.33 577.575 1455.09 Q575.145 1455.86 572.367 1457.41 L572.367 1452.69 Q575.191 1451.55 577.645 1450.97 Q580.098 1450.39 582.135 1450.39 Q587.506 1450.39 590.7 1453.08 Q593.895 1455.77 593.895 1460.26 Q593.895 1462.39 593.084 1464.31 Q592.297 1466.2 590.191 1468.8 Q589.612 1469.47 586.51 1472.69 Q583.409 1475.88 577.76 1481.64 Z" fill="#000000" fill-rule="nonzero" fill-opacity="1" /><path clip-path="url(#clip260)" d="M1028.53 1455.09 L1016.72 1473.54 L1028.53 1473.54 L1028.53 1455.09 M1027.3 1451.02 L1033.18 1451.02 L1033.18 1473.54 L1038.11 1473.54 L1038.11 1477.43 L1033.18 1477.43 L1033.18 1485.58 L1028.53 1485.58 L1028.53 1477.43 L1012.93 1477.43 L1012.93 1472.92 L1027.3 1451.02 Z" fill="#000000" fill-rule="nonzero" fill-opacity="1" /><path clip-path="url(#clip260)" d="M1468.34 1466.44 Q1465.19 1466.44 1463.34 1468.59 Q1461.51 1470.74 1461.51 1474.49 Q1461.51 1478.22 1463.34 1480.39 Q1465.19 1482.55 1468.34 1482.55 Q1471.48 1482.55 1473.31 1480.39 Q1475.17 1478.22 1475.17 1474.49 Q1475.17 1470.74 1473.31 1468.59 Q1471.48 1466.44 1468.34 1466.44 M1477.62 1451.78 L1477.62 1456.04 Q1475.86 1455.21 1474.05 1454.77 Q1472.27 1454.33 1470.51 1454.33 Q1465.88 1454.33 1463.43 1457.45 Q1461 1460.58 1460.65 1466.9 Q1462.02 1464.89 1464.08 1463.82 Q1466.14 1462.73 1468.61 1462.73 Q1473.82 1462.73 1476.83 1465.9 Q1479.86 1469.05 1479.86 1474.49 Q1479.86 1479.82 1476.72 1483.03 Q1473.57 1486.25 1468.34 1486.25 Q1462.34 1486.25 1459.17 1481.67 Q1456 1477.06 1456 1468.33 Q1456 1460.14 1459.89 1455.28 Q1463.78 1450.39 1470.33 1450.39 Q1472.09 1450.39 1473.87 1450.74 Q1475.67 1451.09 1477.62 1451.78 Z" fill="#000000" fill-rule="nonzero" fill-opacity="1" /><path clip-path="url(#clip260)" d="M1910.34 1469.17 Q1907.01 1469.17 1905.09 1470.95 Q1903.19 1472.73 1903.19 1475.86 Q1903.19 1478.98 1905.09 1480.77 Q1907.01 1482.55 1910.34 1482.55 Q1913.68 1482.55 1915.6 1480.77 Q1917.52 1478.96 1917.52 1475.86 Q1917.52 1472.73 1915.6 1470.95 Q1913.7 1469.17 1910.34 1469.17 M1905.67 1467.18 Q1902.66 1466.44 1900.97 1464.38 Q1899.3 1462.32 1899.3 1459.35 Q1899.3 1455.21 1902.24 1452.8 Q1905.2 1450.39 1910.34 1450.39 Q1915.51 1450.39 1918.45 1452.8 Q1921.39 1455.21 1921.39 1459.35 Q1921.39 1462.32 1919.7 1464.38 Q1918.03 1466.44 1915.04 1467.18 Q1918.42 1467.96 1920.3 1470.26 Q1922.2 1472.55 1922.2 1475.86 Q1922.2 1480.88 1919.12 1483.57 Q1916.06 1486.25 1910.34 1486.25 Q1904.63 1486.25 1901.55 1483.57 Q1898.49 1480.88 1898.49 1475.86 Q1898.49 1472.55 1900.39 1470.26 Q1902.29 1467.96 1905.67 1467.18 M1903.95 1459.79 Q1903.95 1462.48 1905.62 1463.98 Q1907.31 1465.49 1910.34 1465.49 Q1913.35 1465.49 1915.04 1463.98 Q1916.76 1462.48 1916.76 1459.79 Q1916.76 1457.11 1915.04 1455.6 Q1913.35 1454.1 1910.34 1454.1 Q1907.31 1454.1 1905.62 1455.6 Q1903.95 1457.11 1903.95 1459.79 Z" fill="#000000" fill-rule="nonzero" fill-opacity="1" /><path clip-path="url(#clip260)" d="M2327.44 1481.64 L2335.08 1481.64 L2335.08 1455.28 L2326.77 1456.95 L2326.77 1452.69 L2335.04 1451.02 L2339.71 1451.02 L2339.71 1481.64 L2347.35 1481.64 L2347.35 1485.58 L2327.44 1485.58 L2327.44 1481.64 Z" fill="#000000" fill-rule="nonzero" fill-opacity="1" /><path clip-path="url(#clip260)" d="M2366.8 1454.1 Q2363.18 1454.1 2361.36 1457.66 Q2359.55 1461.2 2359.55 1468.33 Q2359.55 1475.44 2361.36 1479.01 Q2363.18 1482.55 2366.8 1482.55 Q2370.43 1482.55 2372.23 1479.01 Q2374.06 1475.44 2374.06 1468.33 Q2374.06 1461.2 2372.23 1457.66 Q2370.43 1454.1 2366.8 1454.1 M2366.8 1450.39 Q2372.61 1450.39 2375.66 1455 Q2378.74 1459.58 2378.74 1468.33 Q2378.74 1477.06 2375.66 1481.67 Q2372.61 1486.25 2366.8 1486.25 Q2360.99 1486.25 2357.91 1481.67 Q2354.85 1477.06 2354.85 1468.33 Q2354.85 1459.58 2357.91 1455 Q2360.99 1450.39 2366.8 1450.39 Z" fill="#000000" fill-rule="nonzero" fill-opacity="1" /><path clip-path="url(#clip260)" d="M1245.79 1522.27 L1245.79 1532.4 L1257.85 1532.4 L1257.85 1536.95 L1245.79 1536.95 L1245.79 1556.3 Q1245.79 1560.66 1246.96 1561.9 Q1248.17 1563.14 1251.83 1563.14 L1257.85 1563.14 L1257.85 1568.04 L1251.83 1568.04 Q1245.05 1568.04 1242.48 1565.53 Q1239.9 1562.98 1239.9 1556.3 L1239.9 1536.95 L1235.6 1536.95 L1235.6 1532.4 L1239.9 1532.4 L1239.9 1522.27 L1245.79 1522.27 Z" fill="#000000" fill-rule="nonzero" fill-opacity="1" /><polyline clip-path="url(#clip262)" style="stroke:#000000; stroke-linecap:round; stroke-linejoin:round; stroke-width:2; stroke-opacity:0.1; fill:none" points="140.696,1384.24 2352.76,1384.24 "/>
<polyline clip-path="url(#clip262)" style="stroke:#000000; stroke-linecap:round; stroke-linejoin:round; stroke-width:2; stroke-opacity:0.1; fill:none" points="140.696,1102.05 2352.76,1102.05 "/>
<polyline clip-path="url(#clip262)" style="stroke:#000000; stroke-linecap:round; stroke-linejoin:round; stroke-width:2; stroke-opacity:0.1; fill:none" points="140.696,819.868 2352.76,819.868 "/>
<polyline clip-path="url(#clip262)" style="stroke:#000000; stroke-linecap:round; stroke-linejoin:round; stroke-width:2; stroke-opacity:0.1; fill:none" points="140.696,537.682 2352.76,537.682 "/>
<polyline clip-path="url(#clip262)" style="stroke:#000000; stroke-linecap:round; stroke-linejoin:round; stroke-width:2; stroke-opacity:0.1; fill:none" points="140.696,255.497 2352.76,255.497 "/>
<polyline clip-path="url(#clip260)" style="stroke:#000000; stroke-linecap:round; stroke-linejoin:round; stroke-width:4; stroke-opacity:1; fill:none" points="140.696,1423.18 140.696,47.2441 "/>
<polyline clip-path="url(#clip260)" style="stroke:#000000; stroke-linecap:round; stroke-linejoin:round; stroke-width:4; stroke-opacity:1; fill:none" points="140.696,1384.24 159.593,1384.24 "/>
<polyline clip-path="url(#clip260)" style="stroke:#000000; stroke-linecap:round; stroke-linejoin:round; stroke-width:4; stroke-opacity:1; fill:none" points="140.696,1102.05 159.593,1102.05 "/>
<polyline clip-path="url(#clip260)" style="stroke:#000000; stroke-linecap:round; stroke-linejoin:round; stroke-width:4; stroke-opacity:1; fill:none" points="140.696,819.868 159.593,819.868 "/>
<polyline clip-path="url(#clip260)" style="stroke:#000000; stroke-linecap:round; stroke-linejoin:round; stroke-width:4; stroke-opacity:1; fill:none" points="140.696,537.682 159.593,537.682 "/>
<polyline clip-path="url(#clip260)" style="stroke:#000000; stroke-linecap:round; stroke-linejoin:round; stroke-width:4; stroke-opacity:1; fill:none" points="140.696,255.497 159.593,255.497 "/>
<path clip-path="url(#clip260)" d="M92.7512 1370.04 Q89.1401 1370.04 87.3114 1373.6 Q85.5058 1377.14 85.5058 1384.27 Q85.5058 1391.38 87.3114 1394.94 Q89.1401 1398.49 92.7512 1398.49 Q96.3854 1398.49 98.1909 1394.94 Q100.02 1391.38 100.02 1384.27 Q100.02 1377.14 98.1909 1373.6 Q96.3854 1370.04 92.7512 1370.04 M92.7512 1366.33 Q98.5613 1366.33 101.617 1370.94 Q104.696 1375.52 104.696 1384.27 Q104.696 1393 101.617 1397.61 Q98.5613 1402.19 92.7512 1402.19 Q86.941 1402.19 83.8623 1397.61 Q80.8068 1393 80.8068 1384.27 Q80.8068 1375.52 83.8623 1370.94 Q86.941 1366.33 92.7512 1366.33 Z" fill="#000000" fill-rule="nonzero" fill-opacity="1" /><path clip-path="url(#clip260)" d="M83.7929 1084.77 L102.149 1084.77 L102.149 1088.71 L88.0753 1088.71 L88.0753 1097.18 Q89.0938 1096.83 90.1123 1096.67 Q91.1308 1096.49 92.1493 1096.49 Q97.9363 1096.49 101.316 1099.66 Q104.696 1102.83 104.696 1108.25 Q104.696 1113.82 101.223 1116.93 Q97.7511 1120 91.4317 1120 Q89.2558 1120 86.9873 1119.63 Q84.7419 1119.26 82.3346 1118.52 L82.3346 1113.82 Q84.4179 1114.96 86.6401 1115.51 Q88.8623 1116.07 91.3391 1116.07 Q95.3437 1116.07 97.6817 1113.96 Q100.02 1111.86 100.02 1108.25 Q100.02 1104.63 97.6817 1102.53 Q95.3437 1100.42 91.3391 1100.42 Q89.4641 1100.42 87.5892 1100.84 Q85.7373 1101.25 83.7929 1102.13 L83.7929 1084.77 Z" fill="#000000" fill-rule="nonzero" fill-opacity="1" /><path clip-path="url(#clip260)" d="M53.3995 833.212 L61.0384 833.212 L61.0384 806.847 L52.7282 808.513 L52.7282 804.254 L60.9921 802.588 L65.668 802.588 L65.668 833.212 L73.3068 833.212 L73.3068 837.148 L53.3995 837.148 L53.3995 833.212 Z" fill="#000000" fill-rule="nonzero" fill-opacity="1" /><path clip-path="url(#clip260)" d="M92.7512 805.666 Q89.1401 805.666 87.3114 809.231 Q85.5058 812.773 85.5058 819.902 Q85.5058 827.009 87.3114 830.574 Q89.1401 834.115 92.7512 834.115 Q96.3854 834.115 98.1909 830.574 Q100.02 827.009 100.02 819.902 Q100.02 812.773 98.1909 809.231 Q96.3854 805.666 92.7512 805.666 M92.7512 801.963 Q98.5613 801.963 101.617 806.569 Q104.696 811.152 104.696 819.902 Q104.696 828.629 101.617 833.236 Q98.5613 837.819 92.7512 837.819 Q86.941 837.819 83.8623 833.236 Q80.8068 828.629 80.8068 819.902 Q80.8068 811.152 83.8623 806.569 Q86.941 801.963 92.7512 801.963 Z" fill="#000000" fill-rule="nonzero" fill-opacity="1" /><path clip-path="url(#clip260)" d="M54.3949 551.027 L62.0337 551.027 L62.0337 524.661 L53.7236 526.328 L53.7236 522.069 L61.9874 520.402 L66.6633 520.402 L66.6633 551.027 L74.3022 551.027 L74.3022 554.962 L54.3949 554.962 L54.3949 551.027 Z" fill="#000000" fill-rule="nonzero" fill-opacity="1" /><path clip-path="url(#clip260)" d="M83.7929 520.402 L102.149 520.402 L102.149 524.337 L88.0753 524.337 L88.0753 532.81 Q89.0938 532.462 90.1123 532.3 Q91.1308 532.115 92.1493 532.115 Q97.9363 532.115 101.316 535.286 Q104.696 538.458 104.696 543.874 Q104.696 549.453 101.223 552.555 Q97.7511 555.634 91.4317 555.634 Q89.2558 555.634 86.9873 555.263 Q84.7419 554.893 82.3346 554.152 L82.3346 549.453 Q84.4179 550.587 86.6401 551.143 Q88.8623 551.698 91.3391 551.698 Q95.3437 551.698 97.6817 549.592 Q100.02 547.485 100.02 543.874 Q100.02 540.263 97.6817 538.157 Q95.3437 536.05 91.3391 536.05 Q89.4641 536.05 87.5892 536.467 Q85.7373 536.884 83.7929 537.763 L83.7929 520.402 Z" fill="#000000" fill-rule="nonzero" fill-opacity="1" /><path clip-path="url(#clip260)" d="M56.6171 268.842 L72.9365 268.842 L72.9365 272.777 L50.9921 272.777 L50.9921 268.842 Q53.6541 266.087 58.2375 261.457 Q62.8439 256.805 64.0245 255.462 Q66.2698 252.939 67.1494 251.203 Q68.0522 249.444 68.0522 247.754 Q68.0522 244.999 66.1078 243.263 Q64.1865 241.527 61.0847 241.527 Q58.8856 241.527 56.4319 242.291 Q54.0014 243.055 51.2236 244.606 L51.2236 239.884 Q54.0477 238.749 56.5014 238.171 Q58.955 237.592 60.9921 237.592 Q66.3624 237.592 69.5568 240.277 Q72.7513 242.962 72.7513 247.453 Q72.7513 249.583 71.9411 251.504 Q71.1541 253.402 69.0476 255.995 Q68.4689 256.666 65.367 259.883 Q62.2652 263.078 56.6171 268.842 Z" fill="#000000" fill-rule="nonzero" fill-opacity="1" /><path clip-path="url(#clip260)" d="M92.7512 241.296 Q89.1401 241.296 87.3114 244.86 Q85.5058 248.402 85.5058 255.532 Q85.5058 262.638 87.3114 266.203 Q89.1401 269.744 92.7512 269.744 Q96.3854 269.744 98.1909 266.203 Q100.02 262.638 100.02 255.532 Q100.02 248.402 98.1909 244.86 Q96.3854 241.296 92.7512 241.296 M92.7512 237.592 Q98.5613 237.592 101.617 242.198 Q104.696 246.782 104.696 255.532 Q104.696 264.258 101.617 268.865 Q98.5613 273.448 92.7512 273.448 Q86.941 273.448 83.8623 268.865 Q80.8068 264.258 80.8068 255.532 Q80.8068 246.782 83.8623 242.198 Q86.941 237.592 92.7512 237.592 Z" fill="#000000" fill-rule="nonzero" fill-opacity="1" /><polyline clip-path="url(#clip262)" style="stroke:#009af9; stroke-linecap:round; stroke-linejoin:round; stroke-width:8; stroke-opacity:1; fill:none" points="140.696,1384.24 141.581,1384.24 142.466,1384.24 143.351,1384.24 144.236,1384.24 145.121,1384.24 146.007,1384.24 146.892,1384.24 147.777,1384.24 148.662,1384.24 149.547,1384.24 150.433,1384.24 151.318,1384.24 152.203,1384.24 153.088,1384.24 153.973,1384.24 154.858,1384.24 155.744,1384.24 156.629,1384.24 157.514,1384.24 158.399,1384.24 159.284,1384.24 160.169,1384.24 161.055,1384.24 161.94,1384.24 162.825,1384.24 163.71,1271.36 164.595,1271.36 165.481,1271.36 166.366,1271.36 167.251,1271.36 168.136,1271.36 169.021,1271.36 169.906,1271.36 170.792,1271.36 171.677,1271.36 172.562,1271.36 173.447,1271.36 174.332,1271.36 175.217,1271.36 176.103,1271.36 176.988,1271.36 177.873,1271.36 178.758,1271.36 179.643,1271.36 180.529,1271.36 181.414,1271.36 182.299,1271.36 183.184,1271.36 184.069,1271.36 184.954,1271.36 185.84,1271.36 186.725,1271.36 187.61,1271.36 188.495,1271.36 189.38,1271.36 190.266,1271.36 191.151,1271.36 192.036,1271.36 192.921,1271.36 193.806,1271.36 194.691,1271.36 195.577,1271.36 196.462,1271.36 197.347,1271.36 198.232,1271.36 199.117,1271.36 200.002,1271.36 200.888,1271.36 201.773,1271.36 202.658,1271.36 203.543,1271.36 204.428,1271.36 205.314,1271.36 206.199,1271.36 207.084,1271.36 207.969,1271.36 208.854,1271.36 209.739,1271.36 210.625,1271.36 211.51,1271.36 212.395,1271.36 213.28,1271.36 214.165,1271.36 215.051,1271.36 215.936,1271.36 216.821,1271.36 217.706,1271.36 218.591,1271.36 219.476,1271.36 220.362,1271.36 221.247,1271.36 222.132,1271.36 223.017,1271.36 223.902,1271.36 224.787,1271.36 225.673,1271.36 226.558,1271.36 227.443,1271.36 228.328,1271.36 229.213,1271.36 230.099,1271.36 230.984,1271.36 231.869,1271.36 232.754,1271.36 233.639,1271.36 234.524,1271.36 235.41,1271.36 236.295,1271.36 237.18,1271.36 238.065,1271.36 238.95,1271.36 239.836,1271.36 240.721,1271.36 241.606,1271.36 242.491,1271.36 243.376,1271.36 244.261,1271.36 245.147,1271.36 246.032,1271.36 246.917,1271.36 247.802,1271.36 248.687,1271.36 249.572,1271.36 250.458,1271.36 251.343,1271.36 252.228,1271.36 253.113,1271.36 253.998,1271.36 254.884,1271.36 255.769,1271.36 256.654,1271.36 257.539,1271.36 258.424,1271.36 259.309,1271.36 260.195,1271.36 261.08,1271.36 261.965,1271.36 262.85,1271.36 263.735,1271.36 264.62,1271.36 265.506,1271.36 266.391,1271.36 267.276,1271.36 268.161,1271.36 269.046,1271.36 269.932,1271.36 270.817,1271.36 271.702,1271.36 272.587,1271.36 273.472,1271.36 274.357,1271.36 275.243,1271.36 276.128,1271.36 277.013,1271.36 277.898,1271.36 278.783,1271.36 279.669,1271.36 280.554,1271.36 281.439,1271.36 282.324,1271.36 283.209,1271.36 284.094,1271.36 284.98,1271.36 285.865,1271.36 286.75,1271.36 287.635,1271.36 288.52,1271.36 289.405,1271.36 290.291,1271.36 291.176,1271.36 292.061,1271.36 292.946,1271.36 293.831,1271.36 294.717,1271.36 295.602,1271.36 296.487,1271.36 297.372,1271.36 298.257,1271.36 299.142,1271.36 300.028,1271.36 300.913,1271.36 301.798,1271.36 302.683,1271.36 303.568,1214.93 304.454,1214.93 305.339,1214.93 306.224,1214.93 307.109,1214.93 307.994,1214.93 308.879,1214.93 309.765,1214.93 310.65,1214.93 311.535,1214.93 312.42,1214.93 313.305,1214.93 314.19,1214.93 315.076,1214.93 315.961,1214.93 316.846,1214.93 317.731,1214.93 318.616,1214.93 319.502,1214.93 320.387,1214.93 321.272,1214.93 322.157,1214.93 323.042,1214.93 323.927,1214.93 324.813,1214.93 325.698,1214.93 326.583,1214.93 327.468,1214.93 328.353,1214.93 329.239,1214.93 330.124,1214.93 331.009,1214.93 331.894,1214.93 332.779,1214.93 333.664,1214.93 334.55,1214.93 335.435,1214.93 336.32,1214.93 337.205,1214.93 338.09,1214.93 338.975,1214.93 339.861,1214.93 340.746,1214.93 341.631,1214.93 342.516,1214.93 343.401,1214.93 344.287,1214.93 345.172,1214.93 346.057,1214.93 346.942,1214.93 347.827,1214.93 348.712,1214.93 349.598,1214.93 350.483,1214.93 351.368,1214.93 352.253,1214.93 353.138,1214.93 354.023,1214.93 354.909,1214.93 355.794,1214.93 356.679,1214.93 357.564,1214.93 358.449,1214.93 359.335,1214.93 360.22,1214.93 361.105,1214.93 361.99,1214.93 362.875,1214.93 363.76,1214.93 364.646,1214.93 365.531,1214.93 366.416,1214.93 367.301,1214.93 368.186,1214.93 369.072,1214.93 369.957,1214.93 370.842,1214.93 371.727,1158.49 372.612,1158.49 373.497,1158.49 374.383,1158.49 375.268,1158.49 376.153,1158.49 377.038,1102.05 377.923,1102.05 378.808,1102.05 379.694,1102.05 380.579,1102.05 381.464,1102.05 382.349,1102.05 383.234,1102.05 384.12,1102.05 385.005,1102.05 385.89,1102.05 386.775,1102.05 387.66,1102.05 388.545,1102.05 389.431,1102.05 390.316,1102.05 391.201,1102.05 392.086,1102.05 392.971,1102.05 393.857,1102.05 394.742,1102.05 395.627,1102.05 396.512,1045.62 397.397,1045.62 398.282,1045.62 399.168,1045.62 400.053,1045.62 400.938,1045.62 401.823,1045.62 402.708,1045.62 403.593,1045.62 404.479,1045.62 405.364,1045.62 406.249,1045.62 407.134,1045.62 408.019,1045.62 408.905,1045.62 409.79,1045.62 410.675,1045.62 411.56,1045.62 412.445,1045.62 413.33,1045.62 414.216,1045.62 415.101,1045.62 415.986,1045.62 416.871,1045.62 417.756,1045.62 418.642,1045.62 419.527,1045.62 420.412,1045.62 421.297,1045.62 422.182,1045.62 423.067,1045.62 423.953,1045.62 424.838,1045.62 425.723,1045.62 426.608,1045.62 427.493,1045.62 428.378,1045.62 429.264,1045.62 430.149,1045.62 431.034,1045.62 431.919,1045.62 432.804,1045.62 433.69,1045.62 434.575,1045.62 435.46,1045.62 436.345,1045.62 437.23,1045.62 438.115,1045.62 439.001,1045.62 439.886,989.179 440.771,989.179 441.656,989.179 442.541,989.179 443.426,989.179 444.312,989.179 445.197,989.179 446.082,989.179 446.967,989.179 447.852,989.179 448.738,989.179 449.623,989.179 450.508,989.179 451.393,989.179 452.278,989.179 453.163,989.179 454.049,989.179 454.934,989.179 455.819,989.179 456.704,989.179 457.589,989.179 458.475,989.179 459.36,989.179 460.245,989.179 461.13,989.179 462.015,989.179 462.9,989.179 463.786,989.179 464.671,989.179 465.556,989.179 466.441,989.179 467.326,989.179 468.211,989.179 469.097,989.179 469.982,989.179 470.867,989.179 471.752,989.179 472.637,989.179 473.523,989.179 474.408,989.179 475.293,989.179 476.178,989.179 477.063,989.179 477.948,989.179 478.834,989.179 479.719,989.179 480.604,989.179 481.489,989.179 482.374,989.179 483.26,989.179 484.145,989.179 485.03,989.179 485.915,989.179 486.8,989.179 487.685,989.179 488.571,989.179 489.456,989.179 490.341,989.179 491.226,989.179 492.111,989.179 492.996,989.179 493.882,989.179 494.767,989.179 495.652,989.179 496.537,989.179 497.422,989.179 498.308,989.179 499.193,989.179 500.078,989.179 500.963,989.179 501.848,989.179 502.733,989.179 503.619,989.179 504.504,989.179 505.389,989.179 506.274,989.179 507.159,989.179 508.045,989.179 508.93,989.179 509.815,989.179 510.7,989.179 511.585,989.179 512.47,989.179 513.356,989.179 514.241,989.179 515.126,989.179 516.011,989.179 516.896,989.179 517.781,989.179 518.667,989.179 519.552,989.179 520.437,989.179 521.322,989.179 522.207,989.179 523.093,989.179 523.978,989.179 524.863,989.179 525.748,989.179 526.633,989.179 527.518,989.179 528.404,989.179 529.289,989.179 530.174,989.179 531.059,989.179 531.944,989.179 532.829,989.179 533.715,989.179 534.6,989.179 535.485,989.179 536.37,989.179 537.255,989.179 538.141,989.179 539.026,989.179 539.911,989.179 540.796,989.179 541.681,989.179 542.566,989.179 543.452,989.179 544.337,989.179 545.222,989.179 546.107,989.179 546.992,989.179 547.878,989.179 548.763,989.179 549.648,989.179 550.533,989.179 551.418,989.179 552.303,989.179 553.189,989.179 554.074,989.179 554.959,989.179 555.844,989.179 556.729,989.179 557.614,989.179 558.5,989.179 559.385,989.179 560.27,989.179 561.155,989.179 562.04,989.179 562.926,989.179 563.811,989.179 564.696,989.179 565.581,989.179 566.466,989.179 567.351,989.179 568.237,989.179 569.122,932.742 570.007,932.742 570.892,932.742 571.777,932.742 572.663,932.742 573.548,932.742 574.433,932.742 575.318,932.742 576.203,932.742 577.088,932.742 577.974,932.742 578.859,932.742 579.744,932.742 580.629,932.742 581.514,932.742 582.399,932.742 583.285,932.742 584.17,932.742 585.055,932.742 585.94,932.742 586.825,932.742 587.711,932.742 588.596,932.742 589.481,932.742 590.366,932.742 591.251,932.742 592.136,932.742 593.022,932.742 593.907,932.742 594.792,932.742 595.677,932.742 596.562,932.742 597.448,932.742 598.333,932.742 599.218,932.742 600.103,932.742 600.988,932.742 601.873,932.742 602.759,932.742 603.644,932.742 604.529,932.742 605.414,932.742 606.299,932.742 607.184,932.742 608.07,932.742 608.955,932.742 609.84,932.742 610.725,932.742 611.61,932.742 612.496,932.742 613.381,932.742 614.266,932.742 615.151,932.742 616.036,932.742 616.921,932.742 617.807,932.742 618.692,932.742 619.577,932.742 620.462,932.742 621.347,932.742 622.232,932.742 623.118,932.742 624.003,932.742 624.888,932.742 625.773,932.742 626.658,932.742 627.544,932.742 628.429,932.742 629.314,932.742 630.199,932.742 631.084,932.742 631.969,932.742 632.855,932.742 633.74,932.742 634.625,932.742 635.51,932.742 636.395,932.742 637.281,932.742 638.166,932.742 639.051,932.742 639.936,932.742 640.821,932.742 641.706,932.742 642.592,932.742 643.477,932.742 644.362,932.742 645.247,932.742 646.132,932.742 647.017,932.742 647.903,932.742 648.788,932.742 649.673,932.742 650.558,932.742 651.443,932.742 652.329,932.742 653.214,932.742 654.099,932.742 654.984,932.742 655.869,932.742 656.754,932.742 657.64,932.742 658.525,932.742 659.41,932.742 660.295,932.742 661.18,932.742 662.066,932.742 662.951,932.742 663.836,932.742 664.721,932.742 665.606,932.742 666.491,932.742 667.377,932.742 668.262,932.742 669.147,932.742 670.032,932.742 670.917,932.742 671.802,932.742 672.688,932.742 673.573,932.742 674.458,932.742 675.343,932.742 676.228,932.742 677.114,932.742 677.999,932.742 678.884,932.742 679.769,932.742 680.654,932.742 681.539,932.742 682.425,932.742 683.31,932.742 684.195,932.742 685.08,932.742 685.965,932.742 686.851,932.742 687.736,932.742 688.621,932.742 689.506,932.742 690.391,932.742 691.276,932.742 692.162,932.742 693.047,932.742 693.932,932.742 694.817,932.742 695.702,932.742 696.587,932.742 697.473,932.742 698.358,932.742 699.243,932.742 700.128,932.742 701.013,932.742 701.899,932.742 702.784,932.742 703.669,932.742 704.554,932.742 705.439,932.742 706.324,932.742 707.21,932.742 708.095,932.742 708.98,932.742 709.865,932.742 710.75,932.742 711.635,932.742 712.521,932.742 713.406,876.305 714.291,876.305 715.176,876.305 716.061,876.305 716.947,876.305 717.832,876.305 718.717,876.305 719.602,876.305 720.487,876.305 721.372,876.305 722.258,876.305 723.143,876.305 724.028,876.305 724.913,876.305 725.798,876.305 726.684,876.305 727.569,876.305 728.454,876.305 729.339,876.305 730.224,876.305 731.109,876.305 731.995,876.305 732.88,876.305 733.765,876.305 734.65,876.305 735.535,876.305 736.42,876.305 737.306,876.305 738.191,876.305 739.076,876.305 739.961,876.305 740.846,876.305 741.732,876.305 742.617,876.305 743.502,876.305 744.387,876.305 745.272,876.305 746.157,876.305 747.043,876.305 747.928,876.305 748.813,876.305 749.698,876.305 750.583,876.305 751.469,876.305 752.354,876.305 753.239,876.305 754.124,876.305 755.009,876.305 755.894,876.305 756.78,876.305 757.665,876.305 758.55,876.305 759.435,876.305 760.32,876.305 761.205,876.305 762.091,876.305 762.976,876.305 763.861,876.305 764.746,876.305 765.631,876.305 766.517,876.305 767.402,876.305 768.287,876.305 769.172,876.305 770.057,876.305 770.942,876.305 771.828,876.305 772.713,876.305 773.598,876.305 774.483,876.305 775.368,876.305 776.254,876.305 777.139,876.305 778.024,876.305 778.909,876.305 779.794,876.305 780.679,876.305 781.565,876.305 782.45,876.305 783.335,876.305 784.22,876.305 785.105,876.305 785.99,876.305 786.876,876.305 787.761,876.305 788.646,876.305 789.531,876.305 790.416,876.305 791.302,876.305 792.187,876.305 793.072,876.305 793.957,876.305 794.842,876.305 795.727,876.305 796.613,876.305 797.498,876.305 798.383,876.305 799.268,876.305 800.153,876.305 801.038,876.305 801.924,876.305 802.809,876.305 803.694,876.305 804.579,876.305 805.464,876.305 806.35,876.305 807.235,876.305 808.12,876.305 809.005,876.305 809.89,876.305 810.775,876.305 811.661,876.305 812.546,876.305 813.431,876.305 814.316,876.305 815.201,876.305 816.087,876.305 816.972,876.305 817.857,876.305 818.742,876.305 819.627,876.305 820.512,876.305 821.398,876.305 822.283,876.305 823.168,876.305 824.053,876.305 824.938,876.305 825.823,876.305 826.709,876.305 827.594,876.305 828.479,876.305 829.364,876.305 830.249,876.305 831.135,876.305 832.02,876.305 832.905,876.305 833.79,876.305 834.675,876.305 835.56,876.305 836.446,876.305 837.331,876.305 838.216,876.305 839.101,876.305 839.986,876.305 840.872,876.305 841.757,876.305 842.642,876.305 843.527,876.305 844.412,876.305 845.297,876.305 846.183,876.305 847.068,876.305 847.953,876.305 848.838,876.305 849.723,876.305 850.608,876.305 851.494,876.305 852.379,876.305 853.264,876.305 854.149,876.305 855.034,876.305 855.92,876.305 856.805,876.305 857.69,819.868 858.575,819.868 859.46,819.868 860.345,819.868 861.231,819.868 862.116,819.868 863.001,819.868 863.886,819.868 864.771,819.868 865.657,819.868 866.542,819.868 867.427,819.868 868.312,819.868 869.197,819.868 870.082,819.868 870.968,819.868 871.853,819.868 872.738,819.868 873.623,819.868 874.508,819.868 875.393,819.868 876.279,819.868 877.164,819.868 878.049,819.868 878.934,819.868 879.819,819.868 880.705,819.868 881.59,819.868 882.475,819.868 883.36,819.868 884.245,819.868 885.13,819.868 886.016,819.868 886.901,819.868 887.786,819.868 888.671,819.868 889.556,819.868 890.441,819.868 891.327,819.868 892.212,819.868 893.097,819.868 893.982,819.868 894.867,819.868 895.753,819.868 896.638,819.868 897.523,819.868 898.408,819.868 899.293,819.868 900.178,819.868 901.064,819.868 901.949,819.868 902.834,819.868 903.719,819.868 904.604,819.868 905.49,819.868 906.375,819.868 907.26,819.868 908.145,819.868 909.03,819.868 909.915,819.868 910.801,819.868 911.686,819.868 912.571,819.868 913.456,819.868 914.341,819.868 915.226,819.868 916.112,819.868 916.997,819.868 917.882,819.868 918.767,763.431 919.652,763.431 920.538,763.431 921.423,763.431 922.308,763.431 923.193,763.431 924.078,763.431 924.963,763.431 925.849,763.431 926.734,763.431 927.619,763.431 928.504,763.431 929.389,763.431 930.275,763.431 931.16,763.431 932.045,763.431 932.93,763.431 933.815,763.431 934.7,763.431 935.586,763.431 936.471,763.431 937.356,763.431 938.241,763.431 939.126,763.431 940.011,763.431 940.897,763.431 941.782,763.431 942.667,763.431 943.552,763.431 944.437,763.431 945.323,763.431 946.208,763.431 947.093,763.431 947.978,763.431 948.863,763.431 949.748,763.431 950.634,763.431 951.519,763.431 952.404,763.431 953.289,763.431 954.174,763.431 955.06,763.431 955.945,763.431 956.83,763.431 957.715,763.431 958.6,763.431 959.485,763.431 960.371,763.431 961.256,763.431 962.141,763.431 963.026,763.431 963.911,763.431 964.796,763.431 965.682,763.431 966.567,763.431 967.452,763.431 968.337,763.431 969.222,763.431 970.108,763.431 970.993,763.431 971.878,763.431 972.763,763.431 973.648,763.431 974.533,763.431 975.419,763.431 976.304,763.431 977.189,763.431 978.074,763.431 978.959,763.431 979.844,763.431 980.73,763.431 981.615,763.431 982.5,763.431 983.385,763.431 984.27,763.431 985.156,763.431 986.041,763.431 986.926,763.431 987.811,763.431 988.696,763.431 989.581,763.431 990.467,763.431 991.352,763.431 992.237,763.431 993.122,763.431 994.007,763.431 994.893,763.431 995.778,763.431 996.663,763.431 997.548,763.431 998.433,763.431 999.318,763.431 1000.2,763.431 1001.09,763.431 1001.97,763.431 1002.86,763.431 1003.74,763.431 1004.63,763.431 1005.51,763.431 1006.4,763.431 1007.29,763.431 1008.17,763.431 1009.06,763.431 1009.94,763.431 1010.83,763.431 1011.71,763.431 1012.6,763.431 1013.48,763.431 1014.37,763.431 1015.25,763.431 1016.14,763.431 1017.02,763.431 1017.91,763.431 1018.79,763.431 1019.68,763.431 1020.56,763.431 1021.45,763.431 1022.33,763.431 1023.22,763.431 1024.1,763.431 1024.99,763.431 1025.87,763.431 1026.76,763.431 1027.64,763.431 1028.53,763.431 1029.41,763.431 1030.3,763.431 1031.18,763.431 1032.07,763.431 1032.96,763.431 1033.84,763.431 1034.73,763.431 1035.61,763.431 1036.5,763.431 1037.38,763.431 1038.27,763.431 1039.15,763.431 1040.04,763.431 1040.92,763.431 1041.81,763.431 1042.69,763.431 1043.58,763.431 1044.46,763.431 1045.35,763.431 1046.23,763.431 1047.12,763.431 1048,763.431 1048.89,763.431 1049.77,763.431 1050.66,763.431 1051.54,763.431 1052.43,763.431 1053.31,763.431 1054.2,763.431 1055.08,763.431 1055.97,763.431 1056.85,763.431 1057.74,763.431 1058.63,763.431 1059.51,763.431 1060.4,763.431 1061.28,763.431 1062.17,763.431 1063.05,763.431 1063.94,763.431 1064.82,763.431 1065.71,763.431 1066.59,763.431 1067.48,763.431 1068.36,763.431 1069.25,763.431 1070.13,763.431 1071.02,763.431 1071.9,763.431 1072.79,763.431 1073.67,763.431 1074.56,763.431 1075.44,763.431 1076.33,763.431 1077.21,763.431 1078.1,763.431 1078.98,763.431 1079.87,763.431 1080.75,763.431 1081.64,763.431 1082.53,763.431 1083.41,763.431 1084.3,763.431 1085.18,763.431 1086.07,763.431 1086.95,763.431 1087.84,763.431 1088.72,763.431 1089.61,763.431 1090.49,763.431 1091.38,763.431 1092.26,763.431 1093.15,763.431 1094.03,763.431 1094.92,763.431 1095.8,763.431 1096.69,763.431 1097.57,763.431 1098.46,763.431 1099.34,763.431 1100.23,763.431 1101.11,763.431 1102,763.431 1102.88,763.431 1103.77,763.431 1104.65,763.431 1105.54,763.431 1106.42,763.431 1107.31,763.431 1108.2,763.431 1109.08,763.431 1109.97,763.431 1110.85,706.993 1111.74,706.993 1112.62,706.993 1113.51,706.993 1114.39,706.993 1115.28,650.556 1116.16,650.556 1117.05,650.556 1117.93,650.556 1118.82,650.556 1119.7,650.556 1120.59,650.556 1121.47,650.556 1122.36,650.556 1123.24,650.556 1124.13,650.556 1125.01,650.556 1125.9,650.556 1126.78,650.556 1127.67,650.556 1128.55,650.556 1129.44,650.556 1130.32,650.556 1131.21,650.556 1132.1,650.556 1132.98,650.556 1133.87,650.556 1134.75,650.556 1135.64,650.556 1136.52,650.556 1137.41,650.556 1138.29,650.556 1139.18,650.556 1140.06,650.556 1140.95,650.556 1141.83,650.556 1142.72,650.556 1143.6,650.556 1144.49,650.556 1145.37,650.556 1146.26,650.556 1147.14,650.556 1148.03,650.556 1148.91,650.556 1149.8,650.556 1150.68,650.556 1151.57,650.556 1152.45,650.556 1153.34,650.556 1154.22,650.556 1155.11,650.556 1155.99,650.556 1156.88,650.556 1157.77,650.556 1158.65,650.556 1159.54,650.556 1160.42,650.556 1161.31,650.556 1162.19,650.556 1163.08,650.556 1163.96,650.556 1164.85,650.556 1165.73,650.556 1166.62,650.556 1167.5,650.556 1168.39,650.556 1169.27,650.556 1170.16,650.556 1171.04,650.556 1171.93,650.556 1172.81,650.556 1173.7,650.556 1174.58,650.556 1175.47,650.556 1176.35,650.556 1177.24,650.556 1178.12,650.556 1179.01,650.556 1179.89,650.556 1180.78,650.556 1181.67,650.556 1182.55,650.556 1183.44,650.556 1184.32,650.556 1185.21,650.556 1186.09,650.556 1186.98,650.556 1187.86,650.556 1188.75,650.556 1189.63,650.556 1190.52,650.556 1191.4,650.556 1192.29,650.556 1193.17,650.556 1194.06,650.556 1194.94,650.556 1195.83,650.556 1196.71,650.556 1197.6,650.556 1198.48,650.556 1199.37,650.556 1200.25,650.556 1201.14,650.556 1202.02,650.556 1202.91,650.556 1203.79,650.556 1204.68,650.556 1205.56,650.556 1206.45,650.556 1207.34,650.556 1208.22,650.556 1209.11,650.556 1209.99,650.556 1210.88,650.556 1211.76,650.556 1212.65,650.556 1213.53,650.556 1214.42,650.556 1215.3,650.556 1216.19,650.556 1217.07,650.556 1217.96,650.556 1218.84,650.556 1219.73,650.556 1220.61,650.556 1221.5,650.556 1222.38,650.556 1223.27,650.556 1224.15,650.556 1225.04,650.556 1225.92,650.556 1226.81,650.556 1227.69,650.556 1228.58,650.556 1229.46,650.556 1230.35,650.556 1231.24,650.556 1232.12,594.119 1233.01,594.119 1233.89,594.119 1234.78,594.119 1235.66,594.119 1236.55,594.119 1237.43,594.119 1238.32,594.119 1239.2,594.119 1240.09,594.119 1240.97,594.119 1241.86,537.682 1242.74,537.682 1243.63,537.682 1244.51,537.682 1245.4,537.682 1246.28,537.682 1247.17,537.682 1248.05,537.682 1248.94,537.682 1249.82,537.682 1250.71,537.682 1251.59,537.682 1252.48,537.682 1253.36,537.682 1254.25,537.682 1255.13,537.682 1256.02,537.682 1256.91,537.682 1257.79,537.682 1258.68,537.682 1259.56,537.682 1260.45,537.682 1261.33,537.682 1262.22,537.682 1263.1,537.682 1263.99,537.682 1264.87,537.682 1265.76,537.682 1266.64,537.682 1267.53,537.682 1268.41,537.682 1269.3,537.682 1270.18,537.682 1271.07,537.682 1271.95,537.682 1272.84,537.682 1273.72,537.682 1274.61,537.682 1275.49,537.682 1276.38,537.682 1277.26,537.682 1278.15,537.682 1279.03,537.682 1279.92,537.682 1280.81,537.682 1281.69,537.682 1282.58,537.682 1283.46,537.682 1284.35,537.682 1285.23,537.682 1286.12,537.682 1287,537.682 1287.89,537.682 1288.77,537.682 1289.66,537.682 1290.54,537.682 1291.43,537.682 1292.31,537.682 1293.2,537.682 1294.08,537.682 1294.97,537.682 1295.85,537.682 1296.74,537.682 1297.62,537.682 1298.51,537.682 1299.39,537.682 1300.28,537.682 1301.16,537.682 1302.05,537.682 1302.93,537.682 1303.82,537.682 1304.7,537.682 1305.59,537.682 1306.48,537.682 1307.36,537.682 1308.25,537.682 1309.13,537.682 1310.02,537.682 1310.9,537.682 1311.79,537.682 1312.67,537.682 1313.56,537.682 1314.44,537.682 1315.33,537.682 1316.21,537.682 1317.1,537.682 1317.98,537.682 1318.87,537.682 1319.75,537.682 1320.64,537.682 1321.52,537.682 1322.41,537.682 1323.29,537.682 1324.18,537.682 1325.06,537.682 1325.95,537.682 1326.83,537.682 1327.72,537.682 1328.6,537.682 1329.49,537.682 1330.38,537.682 1331.26,537.682 1332.15,537.682 1333.03,537.682 1333.92,537.682 1334.8,537.682 1335.69,537.682 1336.57,537.682 1337.46,537.682 1338.34,537.682 1339.23,537.682 1340.11,537.682 1341,537.682 1341.88,537.682 1342.77,537.682 1343.65,537.682 1344.54,537.682 1345.42,537.682 1346.31,537.682 1347.19,537.682 1348.08,537.682 1348.96,537.682 1349.85,537.682 1350.73,537.682 1351.62,537.682 1352.5,537.682 1353.39,537.682 1354.27,537.682 1355.16,537.682 1356.05,537.682 1356.93,537.682 1357.82,537.682 1358.7,537.682 1359.59,537.682 1360.47,537.682 1361.36,537.682 1362.24,537.682 1363.13,537.682 1364.01,537.682 1364.9,537.682 1365.78,537.682 1366.67,537.682 1367.55,537.682 1368.44,537.682 1369.32,537.682 1370.21,537.682 1371.09,537.682 1371.98,537.682 1372.86,537.682 1373.75,537.682 1374.63,537.682 1375.52,537.682 1376.4,537.682 1377.29,537.682 1378.17,537.682 1379.06,537.682 1379.95,537.682 1380.83,537.682 1381.72,537.682 1382.6,537.682 1383.49,537.682 1384.37,537.682 1385.26,537.682 1386.14,537.682 1387.03,537.682 1387.91,537.682 1388.8,537.682 1389.68,537.682 1390.57,537.682 1391.45,537.682 1392.34,537.682 1393.22,537.682 1394.11,537.682 1394.99,537.682 1395.88,537.682 1396.76,537.682 1397.65,537.682 1398.53,537.682 1399.42,537.682 1400.3,537.682 1401.19,537.682 1402.07,537.682 1402.96,537.682 1403.84,537.682 1404.73,537.682 1405.62,537.682 1406.5,537.682 1407.39,537.682 1408.27,537.682 1409.16,537.682 1410.04,537.682 1410.93,537.682 1411.81,537.682 1412.7,537.682 1413.58,537.682 1414.47,537.682 1415.35,537.682 1416.24,537.682 1417.12,537.682 1418.01,537.682 1418.89,537.682 1419.78,537.682 1420.66,537.682 1421.55,537.682 1422.43,537.682 1423.32,537.682 1424.2,537.682 1425.09,537.682 1425.97,537.682 1426.86,537.682 1427.74,537.682 1428.63,537.682 1429.52,537.682 1430.4,537.682 1431.29,537.682 1432.17,537.682 1433.06,537.682 1433.94,537.682 1434.83,537.682 1435.71,537.682 1436.6,537.682 1437.48,537.682 1438.37,537.682 1439.25,537.682 1440.14,537.682 1441.02,537.682 1441.91,537.682 1442.79,537.682 1443.68,537.682 1444.56,537.682 1445.45,537.682 1446.33,537.682 1447.22,537.682 1448.1,537.682 1448.99,537.682 1449.87,537.682 1450.76,537.682 1451.64,537.682 1452.53,537.682 1453.41,537.682 1454.3,537.682 1455.19,537.682 1456.07,537.682 1456.96,537.682 1457.84,537.682 1458.73,537.682 1459.61,537.682 1460.5,537.682 1461.38,537.682 1462.27,537.682 1463.15,537.682 1464.04,537.682 1464.92,537.682 1465.81,537.682 1466.69,537.682 1467.58,537.682 1468.46,537.682 1469.35,537.682 1470.23,537.682 1471.12,537.682 1472,537.682 1472.89,537.682 1473.77,537.682 1474.66,537.682 1475.54,537.682 1476.43,537.682 1477.31,537.682 1478.2,537.682 1479.09,537.682 1479.97,537.682 1480.86,537.682 1481.74,537.682 1482.63,537.682 1483.51,537.682 1484.4,537.682 1485.28,537.682 1486.17,537.682 1487.05,537.682 1487.94,537.682 1488.82,537.682 1489.71,537.682 1490.59,537.682 1491.48,537.682 1492.36,537.682 1493.25,537.682 1494.13,537.682 1495.02,537.682 1495.9,537.682 1496.79,537.682 1497.67,537.682 1498.56,537.682 1499.44,537.682 1500.33,537.682 1501.21,537.682 1502.1,537.682 1502.98,537.682 1503.87,537.682 1504.76,537.682 1505.64,537.682 1506.53,481.245 1507.41,481.245 1508.3,481.245 1509.18,481.245 1510.07,481.245 1510.95,481.245 1511.84,481.245 1512.72,481.245 1513.61,481.245 1514.49,481.245 1515.38,481.245 1516.26,481.245 1517.15,481.245 1518.03,481.245 1518.92,481.245 1519.8,481.245 1520.69,481.245 1521.57,481.245 1522.46,481.245 1523.34,481.245 1524.23,481.245 1525.11,481.245 1526,481.245 1526.88,481.245 1527.77,481.245 1528.65,481.245 1529.54,481.245 1530.43,481.245 1531.31,481.245 1532.2,481.245 1533.08,481.245 1533.97,481.245 1534.85,481.245 1535.74,481.245 1536.62,481.245 1537.51,481.245 1538.39,481.245 1539.28,481.245 1540.16,481.245 1541.05,481.245 1541.93,481.245 1542.82,481.245 1543.7,481.245 1544.59,481.245 1545.47,481.245 1546.36,481.245 1547.24,481.245 1548.13,481.245 1549.01,481.245 1549.9,481.245 1550.78,481.245 1551.67,481.245 1552.55,481.245 1553.44,481.245 1554.33,481.245 1555.21,481.245 1556.1,481.245 1556.98,481.245 1557.87,481.245 1558.75,481.245 1559.64,481.245 1560.52,481.245 1561.41,481.245 1562.29,481.245 1563.18,481.245 1564.06,481.245 1564.95,481.245 1565.83,481.245 1566.72,481.245 1567.6,481.245 1568.49,481.245 1569.37,481.245 1570.26,481.245 1571.14,481.245 1572.03,481.245 1572.91,481.245 1573.8,481.245 1574.68,481.245 1575.57,481.245 1576.45,481.245 1577.34,481.245 1578.22,481.245 1579.11,481.245 1580,481.245 1580.88,481.245 1581.77,481.245 1582.65,481.245 1583.54,481.245 1584.42,481.245 1585.31,481.245 1586.19,481.245 1587.08,481.245 1587.96,481.245 1588.85,481.245 1589.73,481.245 1590.62,481.245 1591.5,424.808 1592.39,424.808 1593.27,424.808 1594.16,424.808 1595.04,424.808 1595.93,424.808 1596.81,424.808 1597.7,424.808 1598.58,424.808 1599.47,424.808 1600.35,424.808 1601.24,424.808 1602.12,424.808 1603.01,424.808 1603.9,424.808 1604.78,424.808 1605.67,424.808 1606.55,424.808 1607.44,424.808 1608.32,424.808 1609.21,424.808 1610.09,424.808 1610.98,424.808 1611.86,424.808 1612.75,424.808 1613.63,424.808 1614.52,424.808 1615.4,424.808 1616.29,424.808 1617.17,424.808 1618.06,424.808 1618.94,424.808 1619.83,424.808 1620.71,424.808 1621.6,424.808 1622.48,424.808 1623.37,424.808 1624.25,424.808 1625.14,424.808 1626.02,424.808 1626.91,424.808 1627.79,424.808 1628.68,424.808 1629.57,368.371 1630.45,368.371 1631.34,368.371 1632.22,368.371 1633.11,368.371 1633.99,368.371 1634.88,368.371 1635.76,368.371 1636.65,368.371 1637.53,368.371 1638.42,368.371 1639.3,368.371 1640.19,368.371 1641.07,368.371 1641.96,368.371 1642.84,368.371 1643.73,368.371 1644.61,368.371 1645.5,368.371 1646.38,368.371 1647.27,368.371 1648.15,368.371 1649.04,368.371 1649.92,368.371 1650.81,368.371 1651.69,368.371 1652.58,368.371 1653.47,368.371 1654.35,368.371 1655.24,368.371 1656.12,368.371 1657.01,368.371 1657.89,368.371 1658.78,368.371 1659.66,368.371 1660.55,368.371 1661.43,368.371 1662.32,368.371 1663.2,368.371 1664.09,368.371 1664.97,368.371 1665.86,368.371 1666.74,368.371 1667.63,368.371 1668.51,368.371 1669.4,368.371 1670.28,368.371 1671.17,368.371 1672.05,368.371 1672.94,368.371 1673.82,368.371 1674.71,368.371 1675.59,368.371 1676.48,368.371 1677.36,368.371 1678.25,368.371 1679.14,368.371 1680.02,368.371 1680.91,368.371 1681.79,368.371 1682.68,368.371 1683.56,368.371 1684.45,368.371 1685.33,368.371 1686.22,368.371 1687.1,368.371 1687.99,368.371 1688.87,368.371 1689.76,368.371 1690.64,368.371 1691.53,368.371 1692.41,368.371 1693.3,368.371 1694.18,368.371 1695.07,368.371 1695.95,368.371 1696.84,368.371 1697.72,368.371 1698.61,368.371 1699.49,368.371 1700.38,368.371 1701.26,368.371 1702.15,368.371 1703.04,368.371 1703.92,368.371 1704.81,368.371 1705.69,368.371 1706.58,368.371 1707.46,368.371 1708.35,368.371 1709.23,368.371 1710.12,368.371 1711,368.371 1711.89,368.371 1712.77,368.371 1713.66,368.371 1714.54,368.371 1715.43,368.371 1716.31,368.371 1717.2,368.371 1718.08,368.371 1718.97,368.371 1719.85,368.371 1720.74,368.371 1721.62,368.371 1722.51,368.371 1723.39,368.371 1724.28,368.371 1725.16,368.371 1726.05,368.371 1726.93,368.371 1727.82,368.371 1728.71,368.371 1729.59,368.371 1730.48,368.371 1731.36,368.371 1732.25,368.371 1733.13,368.371 1734.02,368.371 1734.9,368.371 1735.79,311.934 1736.67,311.934 1737.56,311.934 1738.44,311.934 1739.33,311.934 1740.21,255.497 1741.1,255.497 1741.98,255.497 1742.87,255.497 1743.75,255.497 1744.64,255.497 1745.52,255.497 1746.41,255.497 1747.29,255.497 1748.18,255.497 1749.06,255.497 1749.95,255.497 1750.83,255.497 1751.72,255.497 1752.61,255.497 1753.49,255.497 1754.38,255.497 1755.26,255.497 1756.15,255.497 1757.03,255.497 1757.92,255.497 1758.8,255.497 1759.69,255.497 1760.57,255.497 1761.46,255.497 1762.34,255.497 1763.23,255.497 1764.11,255.497 1765,255.497 1765.88,255.497 1766.77,255.497 1767.65,255.497 1768.54,255.497 1769.42,255.497 1770.31,255.497 1771.19,255.497 1772.08,255.497 1772.96,255.497 1773.85,255.497 1774.73,255.497 1775.62,255.497 1776.5,255.497 1777.39,255.497 1778.28,255.497 1779.16,255.497 1780.05,255.497 1780.93,255.497 1781.82,255.497 1782.7,255.497 1783.59,255.497 1784.47,255.497 1785.36,255.497 1786.24,255.497 1787.13,255.497 1788.01,255.497 1788.9,255.497 1789.78,255.497 1790.67,255.497 1791.55,255.497 1792.44,255.497 1793.32,255.497 1794.21,255.497 1795.09,255.497 1795.98,255.497 1796.86,255.497 1797.75,255.497 1798.63,255.497 1799.52,255.497 1800.4,255.497 1801.29,255.497 1802.18,255.497 1803.06,255.497 1803.95,255.497 1804.83,255.497 1805.72,255.497 1806.6,255.497 1807.49,255.497 1808.37,255.497 1809.26,255.497 1810.14,255.497 1811.03,255.497 1811.91,255.497 1812.8,255.497 1813.68,255.497 1814.57,255.497 1815.45,255.497 1816.34,255.497 1817.22,255.497 1818.11,255.497 1818.99,255.497 1819.88,255.497 1820.76,255.497 1821.65,255.497 1822.53,255.497 1823.42,255.497 1824.3,255.497 1825.19,255.497 1826.07,255.497 1826.96,255.497 1827.85,199.06 1828.73,199.06 1829.62,199.06 1830.5,199.06 1831.39,199.06 1832.27,199.06 1833.16,199.06 1834.04,199.06 1834.93,199.06 1835.81,199.06 1836.7,199.06 1837.58,199.06 1838.47,199.06 1839.35,199.06 1840.24,199.06 1841.12,199.06 1842.01,199.06 1842.89,199.06 1843.78,199.06 1844.66,199.06 1845.55,199.06 1846.43,199.06 1847.32,199.06 1848.2,199.06 1849.09,199.06 1849.97,199.06 1850.86,199.06 1851.75,199.06 1852.63,199.06 1853.52,199.06 1854.4,199.06 1855.29,199.06 1856.17,199.06 1857.06,199.06 1857.94,199.06 1858.83,199.06 1859.71,199.06 1860.6,199.06 1861.48,199.06 1862.37,199.06 1863.25,199.06 1864.14,199.06 1865.02,199.06 1865.91,199.06 1866.79,199.06 1867.68,199.06 1868.56,199.06 1869.45,199.06 1870.33,199.06 1871.22,199.06 1872.1,199.06 1872.99,199.06 1873.87,199.06 1874.76,199.06 1875.64,199.06 1876.53,199.06 1877.42,199.06 1878.3,199.06 1879.19,199.06 1880.07,199.06 1880.96,199.06 1881.84,199.06 1882.73,199.06 1883.61,199.06 1884.5,199.06 1885.38,199.06 1886.27,199.06 1887.15,199.06 1888.04,199.06 1888.92,199.06 1889.81,199.06 1890.69,199.06 1891.58,199.06 1892.46,199.06 1893.35,199.06 1894.23,199.06 1895.12,199.06 1896,199.06 1896.89,199.06 1897.77,199.06 1898.66,199.06 1899.54,199.06 1900.43,199.06 1901.32,199.06 1902.2,199.06 1903.09,199.06 1903.97,199.06 1904.86,199.06 1905.74,199.06 1906.63,199.06 1907.51,199.06 1908.4,199.06 1909.28,199.06 1910.17,199.06 1911.05,199.06 1911.94,199.06 1912.82,199.06 1913.71,199.06 1914.59,199.06 1915.48,199.06 1916.36,199.06 1917.25,199.06 1918.13,199.06 1919.02,199.06 1919.9,199.06 1920.79,199.06 1921.67,199.06 1922.56,199.06 1923.44,199.06 1924.33,199.06 1925.21,199.06 1926.1,199.06 1926.99,199.06 1927.87,199.06 1928.76,199.06 1929.64,199.06 1930.53,199.06 1931.41,199.06 1932.3,199.06 1933.18,199.06 1934.07,199.06 1934.95,199.06 1935.84,199.06 1936.72,199.06 1937.61,199.06 1938.49,199.06 1939.38,199.06 1940.26,199.06 1941.15,199.06 1942.03,199.06 1942.92,199.06 1943.8,199.06 1944.69,199.06 1945.57,199.06 1946.46,199.06 1947.34,199.06 1948.23,199.06 1949.11,199.06 1950,199.06 1950.88,199.06 1951.77,199.06 1952.66,199.06 1953.54,199.06 1954.43,199.06 1955.31,199.06 1956.2,199.06 1957.08,199.06 1957.97,199.06 1958.85,199.06 1959.74,199.06 1960.62,199.06 1961.51,199.06 1962.39,199.06 1963.28,199.06 1964.16,199.06 1965.05,199.06 1965.93,199.06 1966.82,199.06 1967.7,199.06 1968.59,199.06 1969.47,199.06 1970.36,199.06 1971.24,199.06 1972.13,199.06 1973.01,199.06 1973.9,199.06 1974.78,199.06 1975.67,199.06 1976.56,199.06 1977.44,199.06 1978.33,199.06 1979.21,199.06 1980.1,199.06 1980.98,199.06 1981.87,199.06 1982.75,199.06 1983.64,199.06 1984.52,199.06 1985.41,199.06 1986.29,199.06 1987.18,199.06 1988.06,199.06 1988.95,199.06 1989.83,199.06 1990.72,199.06 1991.6,199.06 1992.49,199.06 1993.37,199.06 1994.26,199.06 1995.14,199.06 1996.03,199.06 1996.91,199.06 1997.8,199.06 1998.68,199.06 1999.57,199.06 2000.45,199.06 2001.34,199.06 2002.23,199.06 2003.11,199.06 2004,199.06 2004.88,199.06 2005.77,199.06 2006.65,199.06 2007.54,199.06 2008.42,199.06 2009.31,199.06 2010.19,199.06 2011.08,199.06 2011.96,199.06 2012.85,199.06 2013.73,199.06 2014.62,199.06 2015.5,199.06 2016.39,199.06 2017.27,199.06 2018.16,199.06 2019.04,199.06 2019.93,199.06 2020.81,199.06 2021.7,199.06 2022.58,199.06 2023.47,199.06 2024.35,199.06 2025.24,199.06 2026.13,199.06 2027.01,199.06 2027.9,199.06 2028.78,199.06 2029.67,199.06 2030.55,199.06 2031.44,199.06 2032.32,199.06 2033.21,199.06 2034.09,199.06 2034.98,199.06 2035.86,199.06 2036.75,199.06 2037.63,199.06 2038.52,199.06 2039.4,199.06 2040.29,199.06 2041.17,199.06 2042.06,199.06 2042.94,199.06 2043.83,199.06 2044.71,199.06 2045.6,199.06 2046.48,199.06 2047.37,199.06 2048.25,199.06 2049.14,199.06 2050.02,199.06 2050.91,199.06 2051.8,199.06 2052.68,199.06 2053.57,199.06 2054.45,199.06 2055.34,199.06 2056.22,199.06 2057.11,199.06 2057.99,199.06 2058.88,199.06 2059.76,199.06 2060.65,199.06 2061.53,199.06 2062.42,199.06 2063.3,199.06 2064.19,199.06 2065.07,199.06 2065.96,199.06 2066.84,199.06 2067.73,199.06 2068.61,199.06 2069.5,199.06 2070.38,199.06 2071.27,199.06 2072.15,199.06 2073.04,199.06 2073.92,199.06 2074.81,199.06 2075.7,199.06 2076.58,199.06 2077.47,199.06 2078.35,199.06 2079.24,199.06 2080.12,199.06 2081.01,199.06 2081.89,199.06 2082.78,199.06 2083.66,199.06 2084.55,199.06 2085.43,199.06 2086.32,199.06 2087.2,199.06 2088.09,199.06 2088.97,199.06 2089.86,199.06 2090.74,199.06 2091.63,199.06 2092.51,142.623 2093.4,142.623 2094.28,142.623 2095.17,142.623 2096.05,142.623 2096.94,142.623 2097.82,142.623 2098.71,142.623 2099.59,142.623 2100.48,142.623 2101.37,142.623 2102.25,142.623 2103.14,142.623 2104.02,142.623 2104.91,142.623 2105.79,142.623 2106.68,142.623 2107.56,142.623 2108.45,142.623 2109.33,142.623 2110.22,142.623 2111.1,142.623 2111.99,142.623 2112.87,142.623 2113.76,142.623 2114.64,142.623 2115.53,142.623 2116.41,142.623 2117.3,142.623 2118.18,142.623 2119.07,142.623 2119.95,142.623 2120.84,142.623 2121.72,142.623 2122.61,142.623 2123.49,142.623 2124.38,142.623 2125.27,142.623 2126.15,142.623 2127.04,142.623 2127.92,142.623 2128.81,142.623 2129.69,142.623 2130.58,142.623 2131.46,142.623 2132.35,142.623 2133.23,142.623 2134.12,142.623 2135,142.623 2135.89,142.623 2136.77,142.623 2137.66,142.623 2138.54,142.623 2139.43,142.623 2140.31,142.623 2141.2,142.623 2142.08,142.623 2142.97,142.623 2143.85,142.623 2144.74,142.623 2145.62,142.623 2146.51,142.623 2147.39,142.623 2148.28,142.623 2149.16,142.623 2150.05,142.623 2150.94,142.623 2151.82,142.623 2152.71,142.623 2153.59,142.623 2154.48,142.623 2155.36,142.623 2156.25,142.623 2157.13,142.623 2158.02,142.623 2158.9,142.623 2159.79,142.623 2160.67,142.623 2161.56,142.623 2162.44,142.623 2163.33,142.623 2164.21,142.623 2165.1,142.623 2165.98,142.623 2166.87,142.623 2167.75,142.623 2168.64,142.623 2169.52,142.623 2170.41,142.623 2171.29,142.623 2172.18,142.623 2173.06,142.623 2173.95,142.623 2174.84,142.623 2175.72,142.623 2176.61,142.623 2177.49,142.623 2178.38,142.623 2179.26,142.623 2180.15,142.623 2181.03,142.623 2181.92,142.623 2182.8,142.623 2183.69,142.623 2184.57,142.623 2185.46,142.623 2186.34,142.623 2187.23,142.623 2188.11,142.623 2189,142.623 2189.88,142.623 2190.77,142.623 2191.65,142.623 2192.54,142.623 2193.42,142.623 2194.31,142.623 2195.19,142.623 2196.08,142.623 2196.96,142.623 2197.85,142.623 2198.73,142.623 2199.62,142.623 2200.51,142.623 2201.39,142.623 2202.28,142.623 2203.16,142.623 2204.05,142.623 2204.93,142.623 2205.82,142.623 2206.7,142.623 2207.59,142.623 2208.47,142.623 2209.36,142.623 2210.24,142.623 2211.13,142.623 2212.01,142.623 2212.9,142.623 2213.78,142.623 2214.67,142.623 2215.55,142.623 2216.44,142.623 2217.32,142.623 2218.21,142.623 2219.09,142.623 2219.98,142.623 2220.86,142.623 2221.75,142.623 2222.63,142.623 2223.52,142.623 2224.41,142.623 2225.29,142.623 2226.18,142.623 2227.06,142.623 2227.95,142.623 2228.83,142.623 2229.72,142.623 2230.6,142.623 2231.49,142.623 2232.37,142.623 2233.26,142.623 2234.14,142.623 2235.03,142.623 2235.91,142.623 2236.8,142.623 2237.68,142.623 2238.57,142.623 2239.45,142.623 2240.34,142.623 2241.22,142.623 2242.11,142.623 2242.99,142.623 2243.88,142.623 2244.76,142.623 2245.65,86.1857 2246.53,86.1857 2247.42,86.1857 2248.3,86.1857 2249.19,86.1857 2250.08,86.1857 2250.96,86.1857 2251.85,86.1857 2252.73,86.1857 2253.62,86.1857 2254.5,86.1857 2255.39,86.1857 2256.27,86.1857 2257.16,86.1857 2258.04,86.1857 2258.93,86.1857 2259.81,86.1857 2260.7,86.1857 2261.58,86.1857 2262.47,86.1857 2263.35,86.1857 2264.24,86.1857 2265.12,86.1857 2266.01,86.1857 2266.89,86.1857 2267.78,86.1857 2268.66,86.1857 2269.55,86.1857 2270.43,86.1857 2271.32,86.1857 2272.2,86.1857 2273.09,86.1857 2273.98,86.1857 2274.86,86.1857 2275.75,86.1857 2276.63,86.1857 2277.52,86.1857 2278.4,86.1857 2279.29,86.1857 2280.17,86.1857 2281.06,86.1857 2281.94,86.1857 2282.83,86.1857 2283.71,86.1857 2284.6,86.1857 2285.48,86.1857 2286.37,86.1857 2287.25,86.1857 2288.14,86.1857 2289.02,86.1857 2289.91,86.1857 2290.79,86.1857 2291.68,86.1857 2292.56,86.1857 2293.45,86.1857 2294.33,86.1857 2295.22,86.1857 2296.1,86.1857 2296.99,86.1857 2297.87,86.1857 2298.76,86.1857 2299.65,86.1857 2300.53,86.1857 2301.42,86.1857 2302.3,86.1857 2303.19,86.1857 2304.07,86.1857 2304.96,86.1857 2305.84,86.1857 2306.73,86.1857 2307.61,86.1857 2308.5,86.1857 2309.38,86.1857 2310.27,86.1857 2311.15,86.1857 2312.04,86.1857 2312.92,86.1857 2313.81,86.1857 2314.69,86.1857 2315.58,86.1857 2316.46,86.1857 2317.35,86.1857 2318.23,86.1857 2319.12,86.1857 2320,86.1857 2320.89,86.1857 2321.77,86.1857 2322.66,86.1857 2323.55,86.1857 2324.43,86.1857 2325.32,86.1857 2326.2,86.1857 2327.09,86.1857 2327.97,86.1857 2328.86,86.1857 2329.74,86.1857 2330.63,86.1857 2331.51,86.1857 2332.4,86.1857 2333.28,86.1857 2334.17,86.1857 2335.05,86.1857 2335.94,86.1857 2336.82,86.1857 2337.71,86.1857 2338.59,86.1857 2339.48,86.1857 2340.36,86.1857 2341.25,86.1857 2342.13,86.1857 2343.02,86.1857 2343.9,86.1857 2344.79,86.1857 2345.67,86.1857 2346.56,86.1857 2347.44,86.1857 2348.33,86.1857 2349.22,86.1857 2350.1,86.1857 2350.99,86.1857 2351.87,86.1857 2352.76,86.1857 "/>
<path clip-path="url(#clip260)" d="M1975.5 1377.32 L2279.02 1377.32 L2279.02 1273.64 L1975.5 1273.64  Z" fill="#ffffff" fill-rule="evenodd" fill-opacity="1"/>
<polyline clip-path="url(#clip260)" style="stroke:#000000; stroke-linecap:round; stroke-linejoin:round; stroke-width:4; stroke-opacity:1; fill:none" points="1975.5,1377.32 2279.02,1377.32 2279.02,1273.64 1975.5,1273.64 1975.5,1377.32 "/>
<polyline clip-path="url(#clip260)" style="stroke:#009af9; stroke-linecap:round; stroke-linejoin:round; stroke-width:8; stroke-opacity:1; fill:none" points="2000.08,1325.48 2147.55,1325.48 "/>
<path clip-path="url(#clip260)" d="M2172.13 1308.2 L2178.42 1308.2 L2193.75 1337.11 L2193.75 1308.2 L2198.29 1308.2 L2198.29 1342.76 L2191.99 1342.76 L2176.66 1313.84 L2176.66 1342.76 L2172.13 1342.76 L2172.13 1308.2 Z" fill="#000000" fill-rule="nonzero" fill-opacity="1" /><path clip-path="url(#clip260)" d="M2217.64 1306.78 Q2214.53 1312.11 2213.03 1317.32 Q2211.53 1322.52 2211.53 1327.87 Q2211.53 1333.22 2213.03 1338.47 Q2214.56 1343.7 2217.64 1349.01 L2213.93 1349.01 Q2210.46 1343.57 2208.72 1338.31 Q2207.01 1333.06 2207.01 1327.87 Q2207.01 1322.71 2208.72 1317.48 Q2210.44 1312.25 2213.93 1306.78 L2217.64 1306.78 Z" fill="#000000" fill-rule="nonzero" fill-opacity="1" /><path clip-path="url(#clip260)" d="M2230.11 1309.47 L2230.11 1316.83 L2238.89 1316.83 L2238.89 1320.14 L2230.11 1320.14 L2230.11 1334.21 Q2230.11 1337.38 2230.97 1338.29 Q2231.85 1339.19 2234.51 1339.19 L2238.89 1339.19 L2238.89 1342.76 L2234.51 1342.76 Q2229.58 1342.76 2227.71 1340.93 Q2225.83 1339.07 2225.83 1334.21 L2225.83 1320.14 L2222.71 1320.14 L2222.71 1316.83 L2225.83 1316.83 L2225.83 1309.47 L2230.11 1309.47 Z" fill="#000000" fill-rule="nonzero" fill-opacity="1" /><path clip-path="url(#clip260)" d="M2243.82 1306.78 L2247.52 1306.78 Q2250.99 1312.25 2252.71 1317.48 Q2254.44 1322.71 2254.44 1327.87 Q2254.44 1333.06 2252.71 1338.31 Q2250.99 1343.57 2247.52 1349.01 L2243.82 1349.01 Q2246.9 1343.7 2248.4 1338.47 Q2249.93 1333.22 2249.93 1327.87 Q2249.93 1322.52 2248.4 1317.32 Q2246.9 1312.11 2243.82 1306.78 Z" fill="#000000" fill-rule="nonzero" fill-opacity="1" /></svg>
