<?xml version="1.0" encoding="utf-8"?>
<svg xmlns="http://www.w3.org/2000/svg" xmlns:xlink="http://www.w3.org/1999/xlink" width="600" height="400" viewBox="0 0 2400 1600">
<defs>
  <clipPath id="clip710">
    <rect x="0" y="0" width="2400" height="1600"/>
  </clipPath>
</defs>
<path clip-path="url(#clip710)" d="M0 1600 L2400 1600 L2400 0 L0 0  Z" fill="#ffffff" fill-rule="evenodd" fill-opacity="1"/>
<defs>
  <clipPath id="clip711">
    <rect x="480" y="0" width="1681" height="1600"/>
  </clipPath>
</defs>
<path clip-path="url(#clip710)" d="M138.959 1423.18 L2352.76 1423.18 L2352.76 47.2441 L138.959 47.2441  Z" fill="#ffffff" fill-rule="evenodd" fill-opacity="1"/>
<defs>
  <clipPath id="clip712">
    <rect x="138" y="47" width="2215" height="1377"/>
  </clipPath>
</defs>
<polyline clip-path="url(#clip712)" style="stroke:#000000; stroke-linecap:round; stroke-linejoin:round; stroke-width:2; stroke-opacity:0.1; fill:none" points="138.959,1423.18 138.959,47.2441 "/>
<polyline clip-path="url(#clip712)" style="stroke:#000000; stroke-linecap:round; stroke-linejoin:round; stroke-width:2; stroke-opacity:0.1; fill:none" points="581.719,1423.18 581.719,47.2441 "/>
<polyline clip-path="url(#clip712)" style="stroke:#000000; stroke-linecap:round; stroke-linejoin:round; stroke-width:2; stroke-opacity:0.1; fill:none" points="1024.48,1423.18 1024.48,47.2441 "/>
<polyline clip-path="url(#clip712)" style="stroke:#000000; stroke-linecap:round; stroke-linejoin:round; stroke-width:2; stroke-opacity:0.1; fill:none" points="1467.24,1423.18 1467.24,47.2441 "/>
<polyline clip-path="url(#clip712)" style="stroke:#000000; stroke-linecap:round; stroke-linejoin:round; stroke-width:2; stroke-opacity:0.1; fill:none" points="1910,1423.18 1910,47.2441 "/>
<polyline clip-path="url(#clip712)" style="stroke:#000000; stroke-linecap:round; stroke-linejoin:round; stroke-width:2; stroke-opacity:0.1; fill:none" points="2352.76,1423.18 2352.76,47.2441 "/>
<polyline clip-path="url(#clip710)" style="stroke:#000000; stroke-linecap:round; stroke-linejoin:round; stroke-width:4; stroke-opacity:1; fill:none" points="138.959,1423.18 2352.76,1423.18 "/>
<polyline clip-path="url(#clip710)" style="stroke:#000000; stroke-linecap:round; stroke-linejoin:round; stroke-width:4; stroke-opacity:1; fill:none" points="138.959,1423.18 138.959,1404.28 "/>
<polyline clip-path="url(#clip710)" style="stroke:#000000; stroke-linecap:round; stroke-linejoin:round; stroke-width:4; stroke-opacity:1; fill:none" points="581.719,1423.18 581.719,1404.28 "/>
<polyline clip-path="url(#clip710)" style="stroke:#000000; stroke-linecap:round; stroke-linejoin:round; stroke-width:4; stroke-opacity:1; fill:none" points="1024.48,1423.18 1024.48,1404.28 "/>
<polyline clip-path="url(#clip710)" style="stroke:#000000; stroke-linecap:round; stroke-linejoin:round; stroke-width:4; stroke-opacity:1; fill:none" points="1467.24,1423.18 1467.24,1404.28 "/>
<polyline clip-path="url(#clip710)" style="stroke:#000000; stroke-linecap:round; stroke-linejoin:round; stroke-width:4; stroke-opacity:1; fill:none" points="1910,1423.18 1910,1404.28 "/>
<polyline clip-path="url(#clip710)" style="stroke:#000000; stroke-linecap:round; stroke-linejoin:round; stroke-width:4; stroke-opacity:1; fill:none" points="2352.76,1423.18 2352.76,1404.28 "/>
<path clip-path="url(#clip710)" d="M138.959 1454.1 Q135.348 1454.1 133.52 1457.66 Q131.714 1461.2 131.714 1468.33 Q131.714 1475.44 133.52 1479.01 Q135.348 1482.55 138.959 1482.55 Q142.594 1482.55 144.399 1479.01 Q146.228 1475.44 146.228 1468.33 Q146.228 1461.2 144.399 1457.66 Q142.594 1454.1 138.959 1454.1 M138.959 1450.39 Q144.77 1450.39 147.825 1455 Q150.904 1459.58 150.904 1468.33 Q150.904 1477.06 147.825 1481.67 Q144.77 1486.25 138.959 1486.25 Q133.149 1486.25 130.071 1481.67 Q127.015 1477.06 127.015 1468.33 Q127.015 1459.58 130.071 1455 Q133.149 1450.39 138.959 1450.39 Z" fill="#000000" fill-rule="nonzero" fill-opacity="1" /><path clip-path="url(#clip710)" d="M576.372 1481.64 L592.691 1481.64 L592.691 1485.58 L570.747 1485.58 L570.747 1481.64 Q573.409 1478.89 577.992 1474.26 Q582.598 1469.61 583.779 1468.27 Q586.024 1465.74 586.904 1464.01 Q587.807 1462.25 587.807 1460.56 Q587.807 1457.8 585.862 1456.07 Q583.941 1454.33 580.839 1454.33 Q578.64 1454.33 576.186 1455.09 Q573.756 1455.86 570.978 1457.41 L570.978 1452.69 Q573.802 1451.55 576.256 1450.97 Q578.709 1450.39 580.747 1450.39 Q586.117 1450.39 589.311 1453.08 Q592.506 1455.77 592.506 1460.26 Q592.506 1462.39 591.696 1464.31 Q590.908 1466.2 588.802 1468.8 Q588.223 1469.47 585.121 1472.69 Q582.02 1475.88 576.372 1481.64 Z" fill="#000000" fill-rule="nonzero" fill-opacity="1" /><path clip-path="url(#clip710)" d="M1027.49 1455.09 L1015.68 1473.54 L1027.49 1473.54 L1027.49 1455.09 M1026.26 1451.02 L1032.14 1451.02 L1032.14 1473.54 L1037.07 1473.54 L1037.07 1477.43 L1032.14 1477.43 L1032.14 1485.58 L1027.49 1485.58 L1027.49 1477.43 L1011.89 1477.43 L1011.89 1472.92 L1026.26 1451.02 Z" fill="#000000" fill-rule="nonzero" fill-opacity="1" /><path clip-path="url(#clip710)" d="M1467.64 1466.44 Q1464.49 1466.44 1462.64 1468.59 Q1460.81 1470.74 1460.81 1474.49 Q1460.81 1478.22 1462.64 1480.39 Q1464.49 1482.55 1467.64 1482.55 Q1470.79 1482.55 1472.62 1480.39 Q1474.47 1478.22 1474.47 1474.49 Q1474.47 1470.74 1472.62 1468.59 Q1470.79 1466.44 1467.64 1466.44 M1476.92 1451.78 L1476.92 1456.04 Q1475.17 1455.21 1473.36 1454.77 Q1471.58 1454.33 1469.82 1454.33 Q1465.19 1454.33 1462.74 1457.45 Q1460.3 1460.58 1459.96 1466.9 Q1461.32 1464.89 1463.38 1463.82 Q1465.44 1462.73 1467.92 1462.73 Q1473.13 1462.73 1476.14 1465.9 Q1479.17 1469.05 1479.17 1474.49 Q1479.17 1479.82 1476.02 1483.03 Q1472.87 1486.25 1467.64 1486.25 Q1461.65 1486.25 1458.48 1481.67 Q1455.3 1477.06 1455.3 1468.33 Q1455.3 1460.14 1459.19 1455.28 Q1463.08 1450.39 1469.63 1450.39 Q1471.39 1450.39 1473.17 1450.74 Q1474.98 1451.09 1476.92 1451.78 Z" fill="#000000" fill-rule="nonzero" fill-opacity="1" /><path clip-path="url(#clip710)" d="M1910 1469.17 Q1906.66 1469.17 1904.74 1470.95 Q1902.84 1472.73 1902.84 1475.86 Q1902.84 1478.98 1904.74 1480.77 Q1906.66 1482.55 1910 1482.55 Q1913.33 1482.55 1915.25 1480.77 Q1917.17 1478.96 1917.17 1475.86 Q1917.17 1472.73 1915.25 1470.95 Q1913.35 1469.17 1910 1469.17 M1905.32 1467.18 Q1902.31 1466.44 1900.62 1464.38 Q1898.96 1462.32 1898.96 1459.35 Q1898.96 1455.21 1901.89 1452.8 Q1904.86 1450.39 1910 1450.39 Q1915.16 1450.39 1918.1 1452.8 Q1921.04 1455.21 1921.04 1459.35 Q1921.04 1462.32 1919.35 1464.38 Q1917.68 1466.44 1914.7 1467.18 Q1918.08 1467.96 1919.95 1470.26 Q1921.85 1472.55 1921.85 1475.86 Q1921.85 1480.88 1918.77 1483.57 Q1915.71 1486.25 1910 1486.25 Q1904.28 1486.25 1901.2 1483.57 Q1898.14 1480.88 1898.14 1475.86 Q1898.14 1472.55 1900.04 1470.26 Q1901.94 1467.96 1905.32 1467.18 M1903.61 1459.79 Q1903.61 1462.48 1905.27 1463.98 Q1906.96 1465.49 1910 1465.49 Q1913.01 1465.49 1914.7 1463.98 Q1916.41 1462.48 1916.41 1459.79 Q1916.41 1457.11 1914.7 1455.6 Q1913.01 1454.1 1910 1454.1 Q1906.96 1454.1 1905.27 1455.6 Q1903.61 1457.11 1903.61 1459.79 Z" fill="#000000" fill-rule="nonzero" fill-opacity="1" /><path clip-path="url(#clip710)" d="M2327.44 1481.64 L2335.08 1481.64 L2335.08 1455.28 L2326.77 1456.95 L2326.77 1452.69 L2335.04 1451.02 L2339.71 1451.02 L2339.71 1481.64 L2347.35 1481.64 L2347.35 1485.58 L2327.44 1485.58 L2327.44 1481.64 Z" fill="#000000" fill-rule="nonzero" fill-opacity="1" /><path clip-path="url(#clip710)" d="M2366.8 1454.1 Q2363.18 1454.1 2361.36 1457.66 Q2359.55 1461.2 2359.55 1468.33 Q2359.55 1475.44 2361.36 1479.01 Q2363.18 1482.55 2366.8 1482.55 Q2370.43 1482.55 2372.23 1479.01 Q2374.06 1475.44 2374.06 1468.33 Q2374.06 1461.2 2372.23 1457.66 Q2370.43 1454.1 2366.8 1454.1 M2366.8 1450.39 Q2372.61 1450.39 2375.66 1455 Q2378.74 1459.58 2378.74 1468.33 Q2378.74 1477.06 2375.66 1481.67 Q2372.61 1486.25 2366.8 1486.25 Q2360.99 1486.25 2357.91 1481.67 Q2354.85 1477.06 2354.85 1468.33 Q2354.85 1459.58 2357.91 1455 Q2360.99 1450.39 2366.8 1450.39 Z" fill="#000000" fill-rule="nonzero" fill-opacity="1" /><path clip-path="url(#clip710)" d="M1244.92 1522.27 L1244.92 1532.4 L1256.98 1532.4 L1256.98 1536.95 L1244.92 1536.95 L1244.92 1556.3 Q1244.92 1560.66 1246.1 1561.9 Q1247.31 1563.14 1250.97 1563.14 L1256.98 1563.14 L1256.98 1568.04 L1250.97 1568.04 Q1244.19 1568.04 1241.61 1565.53 Q1239.03 1562.98 1239.03 1556.3 L1239.03 1536.95 L1234.73 1536.95 L1234.73 1532.4 L1239.03 1532.4 L1239.03 1522.27 L1244.92 1522.27 Z" fill="#000000" fill-rule="nonzero" fill-opacity="1" /><polyline clip-path="url(#clip712)" style="stroke:#000000; stroke-linecap:round; stroke-linejoin:round; stroke-width:2; stroke-opacity:0.1; fill:none" points="138.959,1157.44 2352.76,1157.44 "/>
<polyline clip-path="url(#clip712)" style="stroke:#000000; stroke-linecap:round; stroke-linejoin:round; stroke-width:2; stroke-opacity:0.1; fill:none" points="138.959,875.53 2352.76,875.53 "/>
<polyline clip-path="url(#clip712)" style="stroke:#000000; stroke-linecap:round; stroke-linejoin:round; stroke-width:2; stroke-opacity:0.1; fill:none" points="138.959,593.622 2352.76,593.622 "/>
<polyline clip-path="url(#clip712)" style="stroke:#000000; stroke-linecap:round; stroke-linejoin:round; stroke-width:2; stroke-opacity:0.1; fill:none" points="138.959,311.713 2352.76,311.713 "/>
<polyline clip-path="url(#clip710)" style="stroke:#000000; stroke-linecap:round; stroke-linejoin:round; stroke-width:4; stroke-opacity:1; fill:none" points="138.959,1423.18 138.959,47.2441 "/>
<polyline clip-path="url(#clip710)" style="stroke:#000000; stroke-linecap:round; stroke-linejoin:round; stroke-width:4; stroke-opacity:1; fill:none" points="138.959,1157.44 157.857,1157.44 "/>
<polyline clip-path="url(#clip710)" style="stroke:#000000; stroke-linecap:round; stroke-linejoin:round; stroke-width:4; stroke-opacity:1; fill:none" points="138.959,875.53 157.857,875.53 "/>
<polyline clip-path="url(#clip710)" style="stroke:#000000; stroke-linecap:round; stroke-linejoin:round; stroke-width:4; stroke-opacity:1; fill:none" points="138.959,593.622 157.857,593.622 "/>
<polyline clip-path="url(#clip710)" style="stroke:#000000; stroke-linecap:round; stroke-linejoin:round; stroke-width:4; stroke-opacity:1; fill:none" points="138.959,311.713 157.857,311.713 "/>
<path clip-path="url(#clip710)" d="M91.0151 1143.24 Q87.404 1143.24 85.5753 1146.8 Q83.7697 1150.34 83.7697 1157.47 Q83.7697 1164.58 85.5753 1168.15 Q87.404 1171.69 91.0151 1171.69 Q94.6493 1171.69 96.4548 1168.15 Q98.2835 1164.58 98.2835 1157.47 Q98.2835 1150.34 96.4548 1146.8 Q94.6493 1143.24 91.0151 1143.24 M91.0151 1139.53 Q96.8252 1139.53 99.8808 1144.14 Q102.959 1148.72 102.959 1157.47 Q102.959 1166.2 99.8808 1170.81 Q96.8252 1175.39 91.0151 1175.39 Q85.2049 1175.39 82.1262 1170.81 Q79.0707 1166.2 79.0707 1157.47 Q79.0707 1148.72 82.1262 1144.14 Q85.2049 1139.53 91.0151 1139.53 Z" fill="#000000" fill-rule="nonzero" fill-opacity="1" /><path clip-path="url(#clip710)" d="M82.0568 858.25 L100.413 858.25 L100.413 862.185 L86.3392 862.185 L86.3392 870.658 Q87.3577 870.31 88.3762 870.148 Q89.3947 869.963 90.4132 869.963 Q96.2002 869.963 99.5798 873.134 Q102.959 876.306 102.959 881.722 Q102.959 887.301 99.4872 890.403 Q96.015 893.482 89.6956 893.482 Q87.5197 893.482 85.2512 893.111 Q83.0058 892.741 80.5984 892 L80.5984 887.301 Q82.6818 888.435 84.904 888.991 Q87.1262 889.546 89.603 889.546 Q93.6076 889.546 95.9456 887.44 Q98.2835 885.333 98.2835 881.722 Q98.2835 878.111 95.9456 876.005 Q93.6076 873.898 89.603 873.898 Q87.728 873.898 85.8531 874.315 Q84.0012 874.732 82.0568 875.611 L82.0568 858.25 Z" fill="#000000" fill-rule="nonzero" fill-opacity="1" /><path clip-path="url(#clip710)" d="M51.6634 606.966 L59.3023 606.966 L59.3023 580.601 L50.9921 582.267 L50.9921 578.008 L59.256 576.342 L63.9319 576.342 L63.9319 606.966 L71.5707 606.966 L71.5707 610.902 L51.6634 610.902 L51.6634 606.966 Z" fill="#000000" fill-rule="nonzero" fill-opacity="1" /><path clip-path="url(#clip710)" d="M91.0151 579.42 Q87.404 579.42 85.5753 582.985 Q83.7697 586.527 83.7697 593.656 Q83.7697 600.763 85.5753 604.327 Q87.404 607.869 91.0151 607.869 Q94.6493 607.869 96.4548 604.327 Q98.2835 600.763 98.2835 593.656 Q98.2835 586.527 96.4548 582.985 Q94.6493 579.42 91.0151 579.42 M91.0151 575.717 Q96.8252 575.717 99.8808 580.323 Q102.959 584.906 102.959 593.656 Q102.959 602.383 99.8808 606.989 Q96.8252 611.573 91.0151 611.573 Q85.2049 611.573 82.1262 606.989 Q79.0707 602.383 79.0707 593.656 Q79.0707 584.906 82.1262 580.323 Q85.2049 575.717 91.0151 575.717 Z" fill="#000000" fill-rule="nonzero" fill-opacity="1" /><path clip-path="url(#clip710)" d="M52.6588 325.058 L60.2976 325.058 L60.2976 298.692 L51.9875 300.359 L51.9875 296.099 L60.2513 294.433 L64.9272 294.433 L64.9272 325.058 L72.5661 325.058 L72.5661 328.993 L52.6588 328.993 L52.6588 325.058 Z" fill="#000000" fill-rule="nonzero" fill-opacity="1" /><path clip-path="url(#clip710)" d="M82.0568 294.433 L100.413 294.433 L100.413 298.368 L86.3392 298.368 L86.3392 306.84 Q87.3577 306.493 88.3762 306.331 Q89.3947 306.146 90.4132 306.146 Q96.2002 306.146 99.5798 309.317 Q102.959 312.488 102.959 317.905 Q102.959 323.483 99.4872 326.585 Q96.015 329.664 89.6956 329.664 Q87.5197 329.664 85.2512 329.294 Q83.0058 328.923 80.5984 328.183 L80.5984 323.483 Q82.6818 324.618 84.904 325.173 Q87.1262 325.729 89.603 325.729 Q93.6076 325.729 95.9456 323.622 Q98.2835 321.516 98.2835 317.905 Q98.2835 314.294 95.9456 312.187 Q93.6076 310.081 89.603 310.081 Q87.728 310.081 85.8531 310.497 Q84.0012 310.914 82.0568 311.794 L82.0568 294.433 Z" fill="#000000" fill-rule="nonzero" fill-opacity="1" /><polyline clip-path="url(#clip712)" style="stroke:#009af9; stroke-linecap:round; stroke-linejoin:round; stroke-width:8; stroke-opacity:1; fill:none" points="138.959,1157.44 141.175,1157.44 143.391,1157.44 145.607,1157.44 147.823,1157.44 150.04,1157.44 152.256,1157.44 154.472,1157.44 156.688,1157.44 158.904,1157.44 161.12,1157.44 163.336,1157.44 165.552,1157.44 167.768,1157.44 169.984,1157.44 172.2,1157.44 174.416,1157.44 176.632,1157.44 178.848,1157.44 181.064,1157.44 183.28,1157.44 185.496,1157.44 187.712,1157.44 189.928,1157.44 192.144,1157.44 194.36,1157.44 196.576,1157.44 198.792,1157.44 201.008,1157.44 203.224,1157.44 205.44,1157.44 207.656,1157.44 209.872,1157.44 212.088,1157.44 214.304,1157.44 216.52,1157.44 218.736,1157.44 220.952,1157.44 223.168,1157.44 225.384,1157.44 227.6,1157.44 229.816,1157.44 232.032,1157.44 234.248,1157.44 236.464,1157.44 238.68,1157.44 240.896,1157.44 243.112,1157.44 245.328,1101.06 247.544,1101.06 249.76,1101.06 251.976,1101.06 254.192,1101.06 256.408,1101.06 258.624,1101.06 260.84,1101.06 263.056,1101.06 265.272,1101.06 267.488,1101.06 269.704,1101.06 271.92,1101.06 274.136,1101.06 276.352,1101.06 278.568,1044.68 280.784,1044.68 283,1044.68 285.216,1044.68 287.432,1044.68 289.648,1044.68 291.864,1044.68 294.08,1044.68 296.296,1044.68 298.512,1044.68 300.728,1044.68 302.944,1044.68 305.16,1044.68 307.376,1044.68 309.592,1044.68 311.808,1044.68 314.024,1044.68 316.24,1044.68 318.456,1044.68 320.672,1044.68 322.888,1044.68 325.104,1044.68 327.321,1044.68 329.537,1044.68 331.753,1044.68 333.969,1044.68 336.185,1044.68 338.401,1044.68 340.617,1044.68 342.833,1044.68 345.049,1044.68 347.265,1044.68 349.481,1044.68 351.697,1044.68 353.913,931.912 356.129,988.294 358.345,988.294 360.561,988.294 362.777,1044.68 364.993,1044.68 367.209,1044.68 369.425,1044.68 371.641,1044.68 373.857,1044.68 376.073,1044.68 378.289,1044.68 380.505,1044.68 382.721,1044.68 384.937,1044.68 387.153,1044.68 389.369,1044.68 391.585,1044.68 393.801,1044.68 396.017,1044.68 398.233,1044.68 400.449,1101.06 402.665,1101.06 404.881,1101.06 407.097,1101.06 409.313,1101.06 411.529,1101.06 413.745,1101.06 415.961,1101.06 418.177,1101.06 420.393,1101.06 422.609,1101.06 424.825,1157.44 427.041,1157.44 429.257,1157.44 431.473,1157.44 433.689,1157.44 435.905,1157.44 438.121,1157.44 440.337,1157.44 442.553,1157.44 444.769,1157.44 446.985,1157.44 449.201,1157.44 451.417,1157.44 453.633,1157.44 455.849,1157.44 458.065,1157.44 460.281,1157.44 462.497,1157.44 464.713,1157.44 466.929,1157.44 469.145,1157.44 471.361,1157.44 473.577,1157.44 475.793,1157.44 478.009,1157.44 480.225,1157.44 482.441,1157.44 484.657,1157.44 486.873,1157.44 489.089,1157.44 491.305,1157.44 493.521,1157.44 495.737,1157.44 497.953,1157.44 500.169,1157.44 502.385,1157.44 504.601,1157.44 506.818,1157.44 509.034,1157.44 511.25,1101.06 513.466,1101.06 515.682,1101.06 517.898,1101.06 520.114,1101.06 522.33,1101.06 524.546,1101.06 526.762,1101.06 528.978,1101.06 531.194,1101.06 533.41,1101.06 535.626,1101.06 537.842,1101.06 540.058,1101.06 542.274,1101.06 544.49,1101.06 546.706,1101.06 548.922,1101.06 551.138,1101.06 553.354,1101.06 555.57,1101.06 557.786,1101.06 560.002,1101.06 562.218,1101.06 564.434,1101.06 566.65,1044.68 568.866,1044.68 571.082,988.294 573.298,988.294 575.514,931.912 577.73,931.912 579.946,931.912 582.162,875.53 584.378,875.53 586.594,875.53 588.81,875.53 591.026,875.53 593.242,875.53 595.458,875.53 597.674,875.53 599.89,875.53 602.106,875.53 604.322,875.53 606.538,875.53 608.754,875.53 610.97,875.53 613.186,875.53 615.402,875.53 617.618,875.53 619.834,988.294 622.05,1044.68 624.266,1044.68 626.482,1044.68 628.698,1044.68 630.914,1044.68 633.13,1044.68 635.346,1044.68 637.562,1044.68 639.778,1044.68 641.994,1044.68 644.21,1044.68 646.426,1044.68 648.642,1044.68 650.858,1044.68 653.074,1044.68 655.29,1044.68 657.506,1044.68 659.722,1101.06 661.938,1101.06 664.154,1101.06 666.37,1101.06 668.586,1101.06 670.802,1101.06 673.018,1101.06 675.234,1101.06 677.45,1101.06 679.666,1101.06 681.882,1101.06 684.099,1101.06 686.315,1101.06 688.531,1101.06 690.747,1101.06 692.963,1101.06 695.179,1101.06 697.395,1101.06 699.611,1101.06 701.827,1101.06 704.043,1101.06 706.259,1101.06 708.475,1101.06 710.691,1101.06 712.907,1101.06 715.123,1101.06 717.339,1101.06 719.555,1101.06 721.771,1101.06 723.987,1101.06 726.203,1101.06 728.419,1101.06 730.635,1101.06 732.851,1101.06 735.067,1101.06 737.283,1101.06 739.499,1101.06 741.715,1101.06 743.931,1101.06 746.147,1101.06 748.363,1101.06 750.579,1101.06 752.795,1101.06 755.011,1101.06 757.227,1101.06 759.443,1101.06 761.659,1101.06 763.875,1101.06 766.091,1101.06 768.307,1101.06 770.523,1101.06 772.739,1101.06 774.955,1101.06 777.171,1101.06 779.387,1101.06 781.603,1101.06 783.819,1101.06 786.035,1101.06 788.251,1101.06 790.467,1101.06 792.683,1101.06 794.899,1101.06 797.115,1101.06 799.331,1101.06 801.547,1101.06 803.763,1101.06 805.979,1101.06 808.195,1101.06 810.411,1101.06 812.627,1101.06 814.843,1101.06 817.059,1101.06 819.275,1101.06 821.491,1101.06 823.707,1101.06 825.923,1101.06 828.139,1101.06 830.355,1101.06 832.571,1101.06 834.787,1101.06 837.003,1101.06 839.219,1101.06 841.435,1101.06 843.651,1101.06 845.867,1101.06 848.083,1101.06 850.299,1101.06 852.515,1101.06 854.731,1101.06 856.947,1101.06 859.163,1101.06 861.38,1101.06 863.596,1101.06 865.812,1101.06 868.028,1101.06 870.244,1101.06 872.46,1101.06 874.676,1101.06 876.892,1157.44 879.108,1157.44 881.324,1157.44 883.54,1157.44 885.756,1157.44 887.972,1157.44 890.188,1157.44 892.404,1157.44 894.62,1157.44 896.836,1157.44 899.052,1157.44 901.268,1157.44 903.484,1157.44 905.7,1157.44 907.916,1157.44 910.132,1157.44 912.348,1157.44 914.564,1157.44 916.78,1157.44 918.996,1157.44 921.212,1157.44 923.428,1157.44 925.644,1157.44 927.86,1157.44 930.076,1157.44 932.292,1157.44 934.508,1157.44 936.724,1157.44 938.94,1157.44 941.156,1157.44 943.372,1157.44 945.588,1157.44 947.804,1157.44 950.02,1157.44 952.236,1157.44 954.452,1157.44 956.668,1157.44 958.884,1157.44 961.1,1157.44 963.316,1157.44 965.532,1157.44 967.748,1157.44 969.964,1157.44 972.18,1157.44 974.396,1157.44 976.612,1157.44 978.828,1157.44 981.044,1157.44 983.26,1157.44 985.476,1157.44 987.692,1157.44 989.908,1157.44 992.124,1157.44 994.34,1157.44 996.556,1157.44 998.772,1157.44 1000.99,1157.44 1003.2,1157.44 1005.42,1157.44 1007.64,1157.44 1009.85,1157.44 1012.07,1157.44 1014.28,1157.44 1016.5,1157.44 1018.72,1157.44 1020.93,1157.44 1023.15,1157.44 1025.36,1157.44 1027.58,1157.44 1029.8,1157.44 1032.01,1157.44 1034.23,1157.44 1036.44,1157.44 1038.66,1157.44 1040.88,1157.44 1043.09,1157.44 1045.31,1157.44 1047.52,1157.44 1049.74,1157.44 1051.96,1157.44 1054.17,1157.44 1056.39,1157.44 1058.6,1157.44 1060.82,1157.44 1063.04,1157.44 1065.25,1157.44 1067.47,1157.44 1069.68,1157.44 1071.9,1157.44 1074.12,1157.44 1076.33,1157.44 1078.55,1157.44 1080.76,1157.44 1082.98,1157.44 1085.2,1157.44 1087.41,1157.44 1089.63,1157.44 1091.84,1157.44 1094.06,1157.44 1096.28,1157.44 1098.49,1157.44 1100.71,1157.44 1102.92,1157.44 1105.14,1157.44 1107.36,1157.44 1109.57,1157.44 1111.79,1157.44 1114,1157.44 1116.22,1157.44 1118.44,1157.44 1120.65,1157.44 1122.87,1157.44 1125.08,1157.44 1127.3,1157.44 1129.52,1157.44 1131.73,1157.44 1133.95,1157.44 1136.17,1157.44 1138.38,1157.44 1140.6,1157.44 1142.81,1157.44 1145.03,1157.44 1147.25,1157.44 1149.46,1157.44 1151.68,1157.44 1153.89,1157.44 1156.11,1157.44 1158.33,1157.44 1160.54,1157.44 1162.76,1157.44 1164.97,1157.44 1167.19,1157.44 1169.41,1157.44 1171.62,1157.44 1173.84,1157.44 1176.05,1157.44 1178.27,1157.44 1180.49,1157.44 1182.7,1157.44 1184.92,1157.44 1187.13,1157.44 1189.35,1157.44 1191.57,1157.44 1193.78,1157.44 1196,1157.44 1198.21,1157.44 1200.43,1157.44 1202.65,1157.44 1204.86,1157.44 1207.08,1157.44 1209.29,1157.44 1211.51,1157.44 1213.73,1157.44 1215.94,1157.44 1218.16,1157.44 1220.37,1157.44 1222.59,1157.44 1224.81,1157.44 1227.02,1157.44 1229.24,1157.44 1231.45,1157.44 1233.67,1157.44 1235.89,1157.44 1238.1,1157.44 1240.32,1157.44 1242.53,1157.44 1244.75,1157.44 1246.97,1157.44 1249.18,1157.44 1251.4,1157.44 1253.61,1157.44 1255.83,1157.44 1258.05,1157.44 1260.26,1157.44 1262.48,1157.44 1264.69,1157.44 1266.91,1157.44 1269.13,1157.44 1271.34,1157.44 1273.56,1157.44 1275.77,1157.44 1277.99,1157.44 1280.21,1157.44 1282.42,1157.44 1284.64,1157.44 1286.85,1157.44 1289.07,1157.44 1291.29,1157.44 1293.5,1157.44 1295.72,1157.44 1297.93,1157.44 1300.15,1157.44 1302.37,1157.44 1304.58,1157.44 1306.8,1157.44 1309.01,1157.44 1311.23,1101.06 1313.45,1101.06 1315.66,1101.06 1317.88,1101.06 1320.09,1101.06 1322.31,1101.06 1324.53,1101.06 1326.74,1101.06 1328.96,1101.06 1331.17,1101.06 1333.39,1101.06 1335.61,1101.06 1337.82,1101.06 1340.04,1101.06 1342.25,1157.44 1344.47,1157.44 1346.69,1157.44 1348.9,1157.44 1351.12,1157.44 1353.33,1157.44 1355.55,1157.44 1357.77,1157.44 1359.98,1157.44 1362.2,1157.44 1364.41,1157.44 1366.63,1157.44 1368.85,1157.44 1371.06,1157.44 1373.28,1157.44 1375.49,1157.44 1377.71,1157.44 1379.93,1157.44 1382.14,1157.44 1384.36,1157.44 1386.57,1157.44 1388.79,1157.44 1391.01,1157.44 1393.22,1157.44 1395.44,1157.44 1397.65,1157.44 1399.87,1157.44 1402.09,1157.44 1404.3,1157.44 1406.52,1157.44 1408.73,1157.44 1410.95,1157.44 1413.17,1157.44 1415.38,1157.44 1417.6,1157.44 1419.81,1157.44 1422.03,1157.44 1424.25,1157.44 1426.46,1157.44 1428.68,1157.44 1430.89,1157.44 1433.11,1157.44 1435.33,1157.44 1437.54,1157.44 1439.76,1157.44 1441.97,1157.44 1444.19,1157.44 1446.41,1157.44 1448.62,1157.44 1450.84,1157.44 1453.05,1157.44 1455.27,1157.44 1457.49,1157.44 1459.7,1101.06 1461.92,1101.06 1464.13,1101.06 1466.35,1101.06 1468.57,1101.06 1470.78,1101.06 1473,1101.06 1475.21,1101.06 1477.43,1101.06 1479.65,1101.06 1481.86,1157.44 1484.08,1157.44 1486.3,1157.44 1488.51,1157.44 1490.73,1157.44 1492.94,1157.44 1495.16,1157.44 1497.38,1157.44 1499.59,1157.44 1501.81,1157.44 1504.02,1157.44 1506.24,1157.44 1508.46,1157.44 1510.67,1157.44 1512.89,1157.44 1515.1,1157.44 1517.32,1157.44 1519.54,1157.44 1521.75,1157.44 1523.97,1157.44 1526.18,1157.44 1528.4,1157.44 1530.62,1157.44 1532.83,1157.44 1535.05,1157.44 1537.26,1157.44 1539.48,1157.44 1541.7,1157.44 1543.91,1157.44 1546.13,1157.44 1548.34,1157.44 1550.56,1157.44 1552.78,1157.44 1554.99,1157.44 1557.21,1157.44 1559.42,1157.44 1561.64,1157.44 1563.86,1157.44 1566.07,1157.44 1568.29,1157.44 1570.5,1157.44 1572.72,1157.44 1574.94,1157.44 1577.15,1157.44 1579.37,1157.44 1581.58,1157.44 1583.8,1157.44 1586.02,1157.44 1588.23,1157.44 1590.45,1157.44 1592.66,1157.44 1594.88,1157.44 1597.1,1157.44 1599.31,1157.44 1601.53,1157.44 1603.74,1157.44 1605.96,1157.44 1608.18,1157.44 1610.39,1157.44 1612.61,1157.44 1614.82,1157.44 1617.04,1157.44 1619.26,1157.44 1621.47,1157.44 1623.69,1157.44 1625.9,1157.44 1628.12,1157.44 1630.34,1157.44 1632.55,1157.44 1634.77,1157.44 1636.98,1157.44 1639.2,1157.44 1641.42,1157.44 1643.63,1157.44 1645.85,1157.44 1648.06,1157.44 1650.28,1157.44 1652.5,1157.44 1654.71,1157.44 1656.93,1157.44 1659.14,1157.44 1661.36,1157.44 1663.58,1157.44 1665.79,1157.44 1668.01,1157.44 1670.22,1157.44 1672.44,1157.44 1674.66,1157.44 1676.87,1157.44 1679.09,1157.44 1681.3,1157.44 1683.52,1157.44 1685.74,1157.44 1687.95,1157.44 1690.17,1157.44 1692.38,1157.44 1694.6,1157.44 1696.82,1157.44 1699.03,1157.44 1701.25,1157.44 1703.46,1157.44 1705.68,1157.44 1707.9,1157.44 1710.11,1157.44 1712.33,1157.44 1714.54,1157.44 1716.76,1157.44 1718.98,1157.44 1721.19,1157.44 1723.41,1157.44 1725.62,1157.44 1727.84,1157.44 1730.06,1157.44 1732.27,1157.44 1734.49,1157.44 1736.7,1157.44 1738.92,1157.44 1741.14,1157.44 1743.35,1157.44 1745.57,1157.44 1747.78,1157.44 1750,1157.44 1752.22,1157.44 1754.43,1157.44 1756.65,1157.44 1758.86,1157.44 1761.08,1157.44 1763.3,1157.44 1765.51,1157.44 1767.73,1157.44 1769.94,1157.44 1772.16,1157.44 1774.38,1157.44 1776.59,1157.44 1778.81,1157.44 1781.02,1157.44 1783.24,1157.44 1785.46,1157.44 1787.67,1157.44 1789.89,1157.44 1792.1,1157.44 1794.32,1157.44 1796.54,1157.44 1798.75,1157.44 1800.97,1157.44 1803.18,1157.44 1805.4,1157.44 1807.62,1157.44 1809.83,1157.44 1812.05,1157.44 1814.26,1157.44 1816.48,1157.44 1818.7,1157.44 1820.91,1157.44 1823.13,1157.44 1825.34,1157.44 1827.56,1157.44 1829.78,1157.44 1831.99,1157.44 1834.21,1157.44 1836.42,1157.44 1838.64,1157.44 1840.86,1157.44 1843.07,1157.44 1845.29,1157.44 1847.51,1157.44 1849.72,1157.44 1851.94,1157.44 1854.15,1157.44 1856.37,1157.44 1858.59,1157.44 1860.8,1157.44 1863.02,1157.44 1865.23,1157.44 1867.45,1157.44 1869.67,1157.44 1871.88,1157.44 1874.1,1157.44 1876.31,1157.44 1878.53,1157.44 1880.75,1157.44 1882.96,1157.44 1885.18,1157.44 1887.39,1157.44 1889.61,1157.44 1891.83,1157.44 1894.04,1157.44 1896.26,1157.44 1898.47,1157.44 1900.69,1157.44 1902.91,1157.44 1905.12,1157.44 1907.34,1157.44 1909.55,1157.44 1911.77,1157.44 1913.99,1157.44 1916.2,1157.44 1918.42,1157.44 1920.63,1157.44 1922.85,1157.44 1925.07,1157.44 1927.28,1157.44 1929.5,1157.44 1931.71,1157.44 1933.93,1157.44 1936.15,1157.44 1938.36,1157.44 1940.58,1157.44 1942.79,1157.44 1945.01,1157.44 1947.23,1157.44 1949.44,1157.44 1951.66,1157.44 1953.87,1157.44 1956.09,1157.44 1958.31,1157.44 1960.52,1157.44 1962.74,1157.44 1964.95,1157.44 1967.17,1157.44 1969.39,1157.44 1971.6,1157.44 1973.82,1157.44 1976.03,1157.44 1978.25,1157.44 1980.47,1157.44 1982.68,1157.44 1984.9,1157.44 1987.11,1157.44 1989.33,1157.44 1991.55,1157.44 1993.76,1157.44 1995.98,1157.44 1998.19,1157.44 2000.41,1157.44 2002.63,1157.44 2004.84,1157.44 2007.06,1157.44 2009.27,1157.44 2011.49,1157.44 2013.71,1157.44 2015.92,1157.44 2018.14,1101.06 2020.35,1101.06 2022.57,1101.06 2024.79,1101.06 2027,1101.06 2029.22,1101.06 2031.43,1101.06 2033.65,1101.06 2035.87,1101.06 2038.08,1101.06 2040.3,1101.06 2042.51,1101.06 2044.73,1101.06 2046.95,1044.68 2049.16,1044.68 2051.38,1044.68 2053.59,1044.68 2055.81,1044.68 2058.03,1044.68 2060.24,1044.68 2062.46,988.294 2064.67,988.294 2066.89,988.294 2069.11,988.294 2071.32,931.912 2073.54,931.912 2075.75,875.53 2077.97,875.53 2080.19,875.53 2082.4,875.53 2084.62,875.53 2086.83,819.149 2089.05,819.149 2091.27,819.149 2093.48,819.149 2095.7,819.149 2097.91,819.149 2100.13,819.149 2102.35,819.149 2104.56,819.149 2106.78,819.149 2108.99,819.149 2111.21,819.149 2113.43,819.149 2115.64,875.53 2117.86,875.53 2120.07,875.53 2122.29,875.53 2124.51,875.53 2126.72,875.53 2128.94,875.53 2131.15,875.53 2133.37,875.53 2135.59,875.53 2137.8,875.53 2140.02,875.53 2142.23,875.53 2144.45,875.53 2146.67,875.53 2148.88,875.53 2151.1,875.53 2153.31,875.53 2155.53,875.53 2157.75,875.53 2159.96,875.53 2162.18,819.149 2164.39,819.149 2166.61,819.149 2168.83,819.149 2171.04,819.149 2173.26,819.149 2175.47,819.149 2177.69,819.149 2179.91,819.149 2182.12,819.149 2184.34,819.149 2186.55,819.149 2188.77,819.149 2190.99,819.149 2193.2,819.149 2195.42,819.149 2197.64,819.149 2199.85,762.767 2202.07,762.767 2204.28,762.767 2206.5,762.767 2208.72,762.767 2210.93,762.767 2213.15,762.767 2215.36,762.767 2217.58,762.767 2219.8,819.149 2222.01,819.149 2224.23,819.149 2226.44,819.149 2228.66,819.149 2230.88,819.149 2233.09,819.149 2235.31,875.53 2237.52,875.53 2239.74,875.53 2241.96,875.53 2244.17,875.53 2246.39,875.53 2248.6,875.53 2250.82,875.53 2253.04,875.53 2255.25,875.53 2257.47,875.53 2259.68,988.294 2261.9,988.294 2264.12,988.294 2266.33,988.294 2268.55,988.294 2270.76,988.294 2272.98,988.294 2275.2,988.294 2277.41,988.294 2279.63,988.294 2281.84,988.294 2284.06,988.294 2286.28,988.294 2288.49,988.294 2290.71,988.294 2292.92,931.912 2295.14,931.912 2297.36,931.912 2299.57,931.912 2301.79,931.912 2304,988.294 2306.22,988.294 2308.44,988.294 2310.65,1044.68 2312.87,1044.68 2315.08,1044.68 2317.3,1044.68 2319.52,1044.68 2321.73,1044.68 2323.95,1044.68 2326.16,1044.68 2328.38,1044.68 2330.6,1044.68 2332.81,1044.68 2335.03,1044.68 2337.24,1044.68 2339.46,1044.68 2341.68,1044.68 2343.89,1044.68 2346.11,1044.68 2348.32,1044.68 2350.54,1044.68 2352.76,1044.68 "/>
<polyline clip-path="url(#clip712)" style="stroke:#e26f46; stroke-linecap:round; stroke-linejoin:round; stroke-width:8; stroke-opacity:1; fill:none" points="138.959,1157.44 141.175,1157.44 143.391,1157.44 145.607,1157.44 147.823,1157.44 150.04,1157.44 152.256,1157.44 154.472,1157.44 156.688,1157.44 158.904,1157.44 161.12,1157.44 163.336,1157.44 165.552,1157.44 167.768,1157.44 169.984,1157.44 172.2,1157.44 174.416,1157.44 176.632,1157.44 178.848,1157.44 181.064,1157.44 183.28,1157.44 185.496,1157.44 187.712,1157.44 189.928,1157.44 192.144,1157.44 194.36,1157.44 196.576,1157.44 198.792,1157.44 201.008,1157.44 203.224,1157.44 205.44,1157.44 207.656,1157.44 209.872,1157.44 212.088,1157.44 214.304,1157.44 216.52,1157.44 218.736,1157.44 220.952,1157.44 223.168,1157.44 225.384,1157.44 227.6,1157.44 229.816,1157.44 232.032,1157.44 234.248,1157.44 236.464,1157.44 238.68,1157.44 240.896,1157.44 243.112,1157.44 245.328,1157.44 247.544,1157.44 249.76,1157.44 251.976,1157.44 254.192,1157.44 256.408,1157.44 258.624,1157.44 260.84,1157.44 263.056,1157.44 265.272,1157.44 267.488,1157.44 269.704,1157.44 271.92,1157.44 274.136,1157.44 276.352,1157.44 278.568,1157.44 280.784,1157.44 283,1157.44 285.216,1157.44 287.432,1157.44 289.648,1157.44 291.864,1157.44 294.08,1157.44 296.296,1157.44 298.512,1157.44 300.728,1157.44 302.944,1157.44 305.16,1157.44 307.376,1157.44 309.592,1157.44 311.808,1157.44 314.024,1157.44 316.24,1157.44 318.456,1157.44 320.672,1157.44 322.888,1157.44 325.104,1157.44 327.321,1157.44 329.537,1157.44 331.753,1157.44 333.969,1157.44 336.185,1157.44 338.401,1157.44 340.617,1157.44 342.833,1157.44 345.049,1157.44 347.265,1157.44 349.481,1157.44 351.697,1157.44 353.913,1157.44 356.129,1101.06 358.345,1101.06 360.561,1101.06 362.777,1044.68 364.993,1044.68 367.209,1044.68 369.425,1044.68 371.641,1044.68 373.857,1044.68 376.073,1044.68 378.289,1044.68 380.505,1044.68 382.721,1044.68 384.937,1044.68 387.153,1044.68 389.369,1044.68 391.585,1044.68 393.801,1044.68 396.017,1044.68 398.233,1044.68 400.449,988.294 402.665,988.294 404.881,988.294 407.097,988.294 409.313,988.294 411.529,988.294 413.745,988.294 415.961,988.294 418.177,988.294 420.393,988.294 422.609,988.294 424.825,931.912 427.041,931.912 429.257,931.912 431.473,931.912 433.689,931.912 435.905,931.912 438.121,931.912 440.337,931.912 442.553,931.912 444.769,931.912 446.985,931.912 449.201,931.912 451.417,931.912 453.633,931.912 455.849,931.912 458.065,931.912 460.281,931.912 462.497,931.912 464.713,931.912 466.929,931.912 469.145,931.912 471.361,931.912 473.577,931.912 475.793,931.912 478.009,931.912 480.225,931.912 482.441,931.912 484.657,931.912 486.873,931.912 489.089,931.912 491.305,931.912 493.521,931.912 495.737,931.912 497.953,931.912 500.169,931.912 502.385,931.912 504.601,931.912 506.818,931.912 509.034,931.912 511.25,931.912 513.466,931.912 515.682,931.912 517.898,931.912 520.114,931.912 522.33,931.912 524.546,931.912 526.762,931.912 528.978,931.912 531.194,931.912 533.41,931.912 535.626,931.912 537.842,931.912 540.058,931.912 542.274,931.912 544.49,931.912 546.706,931.912 548.922,931.912 551.138,931.912 553.354,931.912 555.57,931.912 557.786,931.912 560.002,931.912 562.218,931.912 564.434,931.912 566.65,931.912 568.866,931.912 571.082,931.912 573.298,931.912 575.514,931.912 577.73,931.912 579.946,931.912 582.162,931.912 584.378,931.912 586.594,931.912 588.81,931.912 591.026,931.912 593.242,931.912 595.458,931.912 597.674,931.912 599.89,931.912 602.106,931.912 604.322,931.912 606.538,931.912 608.754,931.912 610.97,931.912 613.186,931.912 615.402,931.912 617.618,931.912 619.834,819.149 622.05,762.767 624.266,762.767 626.482,762.767 628.698,762.767 630.914,762.767 633.13,762.767 635.346,762.767 637.562,762.767 639.778,762.767 641.994,762.767 644.21,762.767 646.426,762.767 648.642,762.767 650.858,762.767 653.074,762.767 655.29,762.767 657.506,762.767 659.722,706.385 661.938,706.385 664.154,706.385 666.37,706.385 668.586,706.385 670.802,706.385 673.018,706.385 675.234,706.385 677.45,706.385 679.666,706.385 681.882,706.385 684.099,706.385 686.315,706.385 688.531,706.385 690.747,706.385 692.963,706.385 695.179,706.385 697.395,706.385 699.611,706.385 701.827,706.385 704.043,706.385 706.259,706.385 708.475,706.385 710.691,706.385 712.907,706.385 715.123,706.385 717.339,706.385 719.555,706.385 721.771,706.385 723.987,706.385 726.203,706.385 728.419,706.385 730.635,706.385 732.851,706.385 735.067,706.385 737.283,706.385 739.499,706.385 741.715,706.385 743.931,706.385 746.147,706.385 748.363,706.385 750.579,706.385 752.795,706.385 755.011,706.385 757.227,706.385 759.443,706.385 761.659,706.385 763.875,706.385 766.091,706.385 768.307,706.385 770.523,706.385 772.739,706.385 774.955,706.385 777.171,706.385 779.387,706.385 781.603,706.385 783.819,706.385 786.035,706.385 788.251,706.385 790.467,706.385 792.683,706.385 794.899,706.385 797.115,706.385 799.331,706.385 801.547,706.385 803.763,706.385 805.979,706.385 808.195,706.385 810.411,706.385 812.627,706.385 814.843,706.385 817.059,706.385 819.275,706.385 821.491,706.385 823.707,706.385 825.923,706.385 828.139,706.385 830.355,706.385 832.571,706.385 834.787,706.385 837.003,706.385 839.219,706.385 841.435,706.385 843.651,706.385 845.867,706.385 848.083,706.385 850.299,706.385 852.515,706.385 854.731,706.385 856.947,706.385 859.163,706.385 861.38,706.385 863.596,706.385 865.812,706.385 868.028,706.385 870.244,706.385 872.46,706.385 874.676,706.385 876.892,650.003 879.108,650.003 881.324,650.003 883.54,650.003 885.756,650.003 887.972,650.003 890.188,650.003 892.404,650.003 894.62,650.003 896.836,650.003 899.052,650.003 901.268,650.003 903.484,650.003 905.7,650.003 907.916,650.003 910.132,650.003 912.348,650.003 914.564,650.003 916.78,650.003 918.996,650.003 921.212,650.003 923.428,650.003 925.644,650.003 927.86,650.003 930.076,650.003 932.292,650.003 934.508,650.003 936.724,650.003 938.94,650.003 941.156,650.003 943.372,650.003 945.588,650.003 947.804,650.003 950.02,650.003 952.236,650.003 954.452,650.003 956.668,650.003 958.884,650.003 961.1,650.003 963.316,650.003 965.532,650.003 967.748,650.003 969.964,650.003 972.18,650.003 974.396,650.003 976.612,650.003 978.828,650.003 981.044,650.003 983.26,650.003 985.476,650.003 987.692,650.003 989.908,650.003 992.124,650.003 994.34,650.003 996.556,650.003 998.772,650.003 1000.99,650.003 1003.2,650.003 1005.42,650.003 1007.64,650.003 1009.85,650.003 1012.07,650.003 1014.28,650.003 1016.5,650.003 1018.72,650.003 1020.93,650.003 1023.15,650.003 1025.36,650.003 1027.58,650.003 1029.8,650.003 1032.01,650.003 1034.23,650.003 1036.44,650.003 1038.66,650.003 1040.88,650.003 1043.09,650.003 1045.31,650.003 1047.52,650.003 1049.74,650.003 1051.96,650.003 1054.17,650.003 1056.39,650.003 1058.6,650.003 1060.82,650.003 1063.04,650.003 1065.25,650.003 1067.47,593.622 1069.68,593.622 1071.9,593.622 1074.12,593.622 1076.33,593.622 1078.55,593.622 1080.76,593.622 1082.98,593.622 1085.2,593.622 1087.41,593.622 1089.63,593.622 1091.84,593.622 1094.06,593.622 1096.28,593.622 1098.49,593.622 1100.71,593.622 1102.92,593.622 1105.14,593.622 1107.36,593.622 1109.57,593.622 1111.79,593.622 1114,593.622 1116.22,593.622 1118.44,593.622 1120.65,593.622 1122.87,593.622 1125.08,593.622 1127.3,593.622 1129.52,593.622 1131.73,593.622 1133.95,593.622 1136.17,593.622 1138.38,593.622 1140.6,593.622 1142.81,593.622 1145.03,593.622 1147.25,593.622 1149.46,593.622 1151.68,593.622 1153.89,593.622 1156.11,593.622 1158.33,593.622 1160.54,593.622 1162.76,593.622 1164.97,593.622 1167.19,593.622 1169.41,593.622 1171.62,593.622 1173.84,593.622 1176.05,593.622 1178.27,593.622 1180.49,593.622 1182.7,593.622 1184.92,593.622 1187.13,593.622 1189.35,593.622 1191.57,593.622 1193.78,593.622 1196,593.622 1198.21,593.622 1200.43,593.622 1202.65,593.622 1204.86,593.622 1207.08,593.622 1209.29,593.622 1211.51,593.622 1213.73,593.622 1215.94,593.622 1218.16,593.622 1220.37,593.622 1222.59,593.622 1224.81,593.622 1227.02,593.622 1229.24,593.622 1231.45,593.622 1233.67,593.622 1235.89,593.622 1238.1,593.622 1240.32,593.622 1242.53,593.622 1244.75,593.622 1246.97,593.622 1249.18,593.622 1251.4,593.622 1253.61,593.622 1255.83,593.622 1258.05,593.622 1260.26,593.622 1262.48,593.622 1264.69,593.622 1266.91,593.622 1269.13,593.622 1271.34,593.622 1273.56,593.622 1275.77,593.622 1277.99,593.622 1280.21,593.622 1282.42,593.622 1284.64,593.622 1286.85,593.622 1289.07,593.622 1291.29,593.622 1293.5,593.622 1295.72,593.622 1297.93,593.622 1300.15,593.622 1302.37,593.622 1304.58,593.622 1306.8,593.622 1309.01,593.622 1311.23,593.622 1313.45,593.622 1315.66,593.622 1317.88,593.622 1320.09,593.622 1322.31,593.622 1324.53,593.622 1326.74,593.622 1328.96,593.622 1331.17,593.622 1333.39,593.622 1335.61,593.622 1337.82,593.622 1340.04,593.622 1342.25,537.24 1344.47,537.24 1346.69,537.24 1348.9,537.24 1351.12,537.24 1353.33,537.24 1355.55,537.24 1357.77,537.24 1359.98,537.24 1362.2,537.24 1364.41,537.24 1366.63,537.24 1368.85,537.24 1371.06,537.24 1373.28,537.24 1375.49,537.24 1377.71,537.24 1379.93,537.24 1382.14,537.24 1384.36,537.24 1386.57,537.24 1388.79,537.24 1391.01,537.24 1393.22,537.24 1395.44,537.24 1397.65,537.24 1399.87,537.24 1402.09,537.24 1404.3,537.24 1406.52,537.24 1408.73,537.24 1410.95,537.24 1413.17,537.24 1415.38,537.24 1417.6,537.24 1419.81,537.24 1422.03,537.24 1424.25,537.24 1426.46,537.24 1428.68,537.24 1430.89,537.24 1433.11,537.24 1435.33,537.24 1437.54,537.24 1439.76,537.24 1441.97,537.24 1444.19,537.24 1446.41,537.24 1448.62,537.24 1450.84,537.24 1453.05,537.24 1455.27,537.24 1457.49,537.24 1459.7,537.24 1461.92,537.24 1464.13,537.24 1466.35,537.24 1468.57,537.24 1470.78,537.24 1473,537.24 1475.21,537.24 1477.43,537.24 1479.65,537.24 1481.86,480.858 1484.08,480.858 1486.3,480.858 1488.51,480.858 1490.73,480.858 1492.94,480.858 1495.16,480.858 1497.38,480.858 1499.59,480.858 1501.81,480.858 1504.02,480.858 1506.24,480.858 1508.46,480.858 1510.67,480.858 1512.89,480.858 1515.1,480.858 1517.32,480.858 1519.54,480.858 1521.75,480.858 1523.97,480.858 1526.18,480.858 1528.4,480.858 1530.62,480.858 1532.83,480.858 1535.05,480.858 1537.26,480.858 1539.48,480.858 1541.7,480.858 1543.91,480.858 1546.13,480.858 1548.34,480.858 1550.56,480.858 1552.78,480.858 1554.99,480.858 1557.21,480.858 1559.42,480.858 1561.64,480.858 1563.86,480.858 1566.07,480.858 1568.29,480.858 1570.5,480.858 1572.72,480.858 1574.94,480.858 1577.15,480.858 1579.37,480.858 1581.58,480.858 1583.8,480.858 1586.02,480.858 1588.23,480.858 1590.45,480.858 1592.66,480.858 1594.88,480.858 1597.1,480.858 1599.31,480.858 1601.53,480.858 1603.74,480.858 1605.96,480.858 1608.18,480.858 1610.39,480.858 1612.61,480.858 1614.82,480.858 1617.04,480.858 1619.26,480.858 1621.47,480.858 1623.69,480.858 1625.9,480.858 1628.12,480.858 1630.34,480.858 1632.55,480.858 1634.77,480.858 1636.98,480.858 1639.2,480.858 1641.42,480.858 1643.63,480.858 1645.85,480.858 1648.06,480.858 1650.28,480.858 1652.5,480.858 1654.71,480.858 1656.93,480.858 1659.14,480.858 1661.36,480.858 1663.58,480.858 1665.79,480.858 1668.01,480.858 1670.22,480.858 1672.44,480.858 1674.66,480.858 1676.87,480.858 1679.09,480.858 1681.3,480.858 1683.52,480.858 1685.74,480.858 1687.95,480.858 1690.17,480.858 1692.38,480.858 1694.6,480.858 1696.82,480.858 1699.03,480.858 1701.25,480.858 1703.46,480.858 1705.68,480.858 1707.9,480.858 1710.11,480.858 1712.33,480.858 1714.54,480.858 1716.76,480.858 1718.98,480.858 1721.19,480.858 1723.41,480.858 1725.62,480.858 1727.84,480.858 1730.06,480.858 1732.27,480.858 1734.49,480.858 1736.7,480.858 1738.92,480.858 1741.14,480.858 1743.35,480.858 1745.57,480.858 1747.78,480.858 1750,480.858 1752.22,480.858 1754.43,480.858 1756.65,480.858 1758.86,480.858 1761.08,480.858 1763.3,480.858 1765.51,480.858 1767.73,480.858 1769.94,480.858 1772.16,480.858 1774.38,480.858 1776.59,480.858 1778.81,480.858 1781.02,480.858 1783.24,480.858 1785.46,480.858 1787.67,480.858 1789.89,480.858 1792.1,480.858 1794.32,480.858 1796.54,480.858 1798.75,480.858 1800.97,480.858 1803.18,480.858 1805.4,480.858 1807.62,480.858 1809.83,480.858 1812.05,480.858 1814.26,480.858 1816.48,480.858 1818.7,480.858 1820.91,480.858 1823.13,480.858 1825.34,480.858 1827.56,480.858 1829.78,480.858 1831.99,480.858 1834.21,480.858 1836.42,480.858 1838.64,480.858 1840.86,480.858 1843.07,480.858 1845.29,480.858 1847.51,480.858 1849.72,480.858 1851.94,480.858 1854.15,480.858 1856.37,480.858 1858.59,480.858 1860.8,480.858 1863.02,480.858 1865.23,480.858 1867.45,480.858 1869.67,480.858 1871.88,480.858 1874.1,480.858 1876.31,480.858 1878.53,480.858 1880.75,480.858 1882.96,480.858 1885.18,480.858 1887.39,480.858 1889.61,480.858 1891.83,480.858 1894.04,480.858 1896.26,480.858 1898.47,480.858 1900.69,480.858 1902.91,480.858 1905.12,480.858 1907.34,480.858 1909.55,480.858 1911.77,480.858 1913.99,480.858 1916.2,480.858 1918.42,480.858 1920.63,480.858 1922.85,480.858 1925.07,480.858 1927.28,480.858 1929.5,480.858 1931.71,480.858 1933.93,480.858 1936.15,480.858 1938.36,480.858 1940.58,480.858 1942.79,480.858 1945.01,480.858 1947.23,480.858 1949.44,480.858 1951.66,480.858 1953.87,480.858 1956.09,480.858 1958.31,480.858 1960.52,480.858 1962.74,480.858 1964.95,480.858 1967.17,480.858 1969.39,480.858 1971.6,480.858 1973.82,480.858 1976.03,480.858 1978.25,480.858 1980.47,480.858 1982.68,480.858 1984.9,480.858 1987.11,480.858 1989.33,480.858 1991.55,480.858 1993.76,480.858 1995.98,480.858 1998.19,480.858 2000.41,480.858 2002.63,480.858 2004.84,480.858 2007.06,480.858 2009.27,480.858 2011.49,480.858 2013.71,480.858 2015.92,480.858 2018.14,480.858 2020.35,480.858 2022.57,480.858 2024.79,480.858 2027,480.858 2029.22,480.858 2031.43,480.858 2033.65,480.858 2035.87,480.858 2038.08,480.858 2040.3,480.858 2042.51,480.858 2044.73,480.858 2046.95,480.858 2049.16,480.858 2051.38,480.858 2053.59,480.858 2055.81,480.858 2058.03,480.858 2060.24,480.858 2062.46,480.858 2064.67,480.858 2066.89,480.858 2069.11,480.858 2071.32,480.858 2073.54,480.858 2075.75,480.858 2077.97,480.858 2080.19,480.858 2082.4,480.858 2084.62,480.858 2086.83,480.858 2089.05,480.858 2091.27,480.858 2093.48,480.858 2095.7,480.858 2097.91,480.858 2100.13,480.858 2102.35,480.858 2104.56,480.858 2106.78,480.858 2108.99,480.858 2111.21,480.858 2113.43,480.858 2115.64,424.476 2117.86,424.476 2120.07,424.476 2122.29,424.476 2124.51,424.476 2126.72,424.476 2128.94,424.476 2131.15,424.476 2133.37,424.476 2135.59,424.476 2137.8,424.476 2140.02,424.476 2142.23,424.476 2144.45,424.476 2146.67,424.476 2148.88,424.476 2151.1,424.476 2153.31,424.476 2155.53,424.476 2157.75,424.476 2159.96,424.476 2162.18,424.476 2164.39,424.476 2166.61,424.476 2168.83,424.476 2171.04,424.476 2173.26,424.476 2175.47,424.476 2177.69,424.476 2179.91,424.476 2182.12,424.476 2184.34,424.476 2186.55,424.476 2188.77,424.476 2190.99,424.476 2193.2,424.476 2195.42,424.476 2197.64,424.476 2199.85,424.476 2202.07,424.476 2204.28,424.476 2206.5,424.476 2208.72,424.476 2210.93,424.476 2213.15,424.476 2215.36,424.476 2217.58,424.476 2219.8,368.094 2222.01,368.094 2224.23,368.094 2226.44,368.094 2228.66,368.094 2230.88,368.094 2233.09,368.094 2235.31,311.713 2237.52,311.713 2239.74,311.713 2241.96,311.713 2244.17,311.713 2246.39,311.713 2248.6,311.713 2250.82,311.713 2253.04,311.713 2255.25,311.713 2257.47,311.713 2259.68,198.949 2261.9,198.949 2264.12,198.949 2266.33,198.949 2268.55,198.949 2270.76,198.949 2272.98,198.949 2275.2,198.949 2277.41,198.949 2279.63,198.949 2281.84,198.949 2284.06,198.949 2286.28,198.949 2288.49,198.949 2290.71,198.949 2292.92,198.949 2295.14,198.949 2297.36,198.949 2299.57,198.949 2301.79,198.949 2304,142.567 2306.22,142.567 2308.44,142.567 2310.65,86.1857 2312.87,86.1857 2315.08,86.1857 2317.3,86.1857 2319.52,86.1857 2321.73,86.1857 2323.95,86.1857 2326.16,86.1857 2328.38,86.1857 2330.6,86.1857 2332.81,86.1857 2335.03,86.1857 2337.24,86.1857 2339.46,86.1857 2341.68,86.1857 2343.89,86.1857 2346.11,86.1857 2348.32,86.1857 2350.54,86.1857 2352.76,86.1857 "/>
<polyline clip-path="url(#clip712)" style="stroke:#3da44d; stroke-linecap:round; stroke-linejoin:round; stroke-width:8; stroke-opacity:1; fill:none" points="138.959,1230.7 141.175,1229.56 143.391,1228.41 145.607,1227.23 147.823,1226.04 150.04,1224.83 152.256,1223.61 154.472,1222.36 156.688,1221.1 158.904,1219.82 161.12,1218.53 163.336,1217.21 165.552,1215.88 167.768,1214.53 169.984,1213.16 172.2,1211.78 174.416,1210.38 176.632,1208.96 178.848,1207.53 181.064,1206.07 183.28,1204.6 185.496,1203.12 187.712,1201.61 189.928,1200.09 192.144,1198.56 194.36,1197.01 196.576,1195.44 198.792,1193.85 201.008,1192.25 203.224,1190.63 205.44,1189 207.656,1187.35 209.872,1185.68 212.088,1184 214.304,1182.31 216.52,1180.59 218.736,1178.87 220.952,1177.13 223.168,1175.37 225.384,1173.6 227.6,1171.81 229.816,1170.01 232.032,1168.2 234.248,1166.37 236.464,1164.53 238.68,1162.67 240.896,1160.8 243.112,1158.92 245.328,1185.26 247.544,1183.35 249.76,1181.43 251.976,1179.49 254.192,1177.55 256.408,1175.59 258.624,1173.62 260.84,1171.64 263.056,1169.64 265.272,1167.64 267.488,1165.62 269.704,1163.6 271.92,1161.56 274.136,1159.51 276.352,1157.45 278.568,1229.65 280.784,1227.57 283,1225.49 285.216,1223.39 287.432,1221.29 289.648,1219.17 291.864,1217.05 294.08,1214.92 296.296,1212.78 298.512,1210.63 300.728,1208.48 302.944,1206.32 305.16,1204.15 307.376,1201.97 309.592,1199.79 311.808,1197.6 314.024,1195.41 316.24,1193.21 318.456,1191 320.672,1188.79 322.888,1186.58 325.104,1184.36 327.321,1182.13 329.537,1179.9 331.753,1177.67 333.969,1175.43 336.185,1173.19 338.401,1170.95 340.617,1168.71 342.833,1166.46 345.049,1164.21 347.265,1161.96 349.481,1159.7 351.697,1157.45 353.913,1302.73 356.129,1300.47 358.345,1298.21 360.561,1295.96 362.777,1293.7 364.993,1291.44 367.209,1289.19 369.425,1286.93 371.641,1284.68 373.857,1282.42 376.073,1280.17 378.289,1277.92 380.505,1275.67 382.721,1273.43 384.937,1271.19 387.153,1268.95 389.369,1266.71 391.585,1264.48 393.801,1262.25 396.017,1260.03 398.233,1257.81 400.449,1255.6 402.665,1253.39 404.881,1251.18 407.097,1248.98 409.313,1246.79 411.529,1244.6 413.745,1242.42 415.961,1240.25 418.177,1238.08 420.393,1235.92 422.609,1233.77 424.825,1231.62 427.041,1229.48 429.257,1227.35 431.473,1225.23 433.689,1223.12 435.905,1221.02 438.121,1218.92 440.337,1216.84 442.553,1214.76 444.769,1212.7 446.985,1210.64 449.201,1208.59 451.417,1206.56 453.633,1204.53 455.849,1202.52 458.065,1200.52 460.281,1198.53 462.497,1196.55 464.713,1194.58 466.929,1192.62 469.145,1190.68 471.361,1188.75 473.577,1186.83 475.793,1184.92 478.009,1183.03 480.225,1181.15 482.441,1179.29 484.657,1177.43 486.873,1175.59 489.089,1173.77 491.305,1171.96 493.521,1170.16 495.737,1168.38 497.953,1166.61 500.169,1164.86 502.385,1163.12 504.601,1161.39 506.818,1159.68 509.034,1157.99 511.25,1193.97 513.466,1192.3 515.682,1190.66 517.898,1189.03 520.114,1187.41 522.33,1185.81 524.546,1184.23 526.762,1182.66 528.978,1181.12 531.194,1179.58 533.41,1178.07 535.626,1176.57 537.842,1175.08 540.058,1173.62 542.274,1172.17 544.49,1170.74 546.706,1169.32 548.922,1167.92 551.138,1166.54 553.354,1165.18 555.57,1163.83 557.786,1162.51 560.002,1161.19 562.218,1159.9 564.434,1158.63 566.65,1159.71 568.866,1158.47 571.082,1159.5 573.298,1158.29 575.514,1160.87 577.73,1159.7 579.946,1158.55 582.162,1263.58 584.378,1262.46 586.594,1261.36 588.81,1260.28 591.026,1259.22 593.242,1258.17 595.458,1257.14 597.674,1256.13 599.89,1255.14 602.106,1254.17 604.322,1253.21 606.538,1252.27 608.754,1251.35 610.97,1250.44 613.186,1249.56 615.402,1248.68 617.618,1247.83 619.834,1247 622.05,1246.18 624.266,1245.38 626.482,1244.59 628.698,1243.82 630.914,1243.07 633.13,1242.34 635.346,1241.62 637.562,1240.92 639.778,1240.23 641.994,1239.57 644.21,1238.91 646.426,1238.28 648.642,1237.66 650.858,1237.05 653.074,1236.46 655.29,1235.89 657.506,1235.33 659.722,1234.79 661.938,1234.26 664.154,1233.75 666.37,1233.25 668.586,1232.76 670.802,1232.3 673.018,1231.84 675.234,1231.4 677.45,1230.97 679.666,1230.56 681.882,1230.16 684.099,1229.78 686.315,1229.4 688.531,1229.04 690.747,1228.7 692.963,1228.36 695.179,1228.04 697.395,1227.73 699.611,1227.44 701.827,1227.15 704.043,1226.88 706.259,1226.62 708.475,1226.37 710.691,1226.13 712.907,1225.9 715.123,1225.68 717.339,1225.47 719.555,1225.27 721.771,1225.09 723.987,1224.91 726.203,1224.74 728.419,1224.58 730.635,1224.43 732.851,1224.29 735.067,1224.16 737.283,1224.03 739.499,1223.91 741.715,1223.8 743.931,1223.7 746.147,1223.61 748.363,1223.52 750.579,1223.44 752.795,1223.37 755.011,1223.3 757.227,1223.24 759.443,1223.18 761.659,1223.13 763.875,1223.08 766.091,1223.04 768.307,1223.01 770.523,1222.98 772.739,1222.95 774.955,1222.92 777.171,1222.9 779.387,1222.89 781.603,1222.87 783.819,1222.86 786.035,1222.85 788.251,1222.84 790.467,1222.84 792.683,1222.83 794.899,1222.83 797.115,1222.83 799.331,1222.83 801.547,1222.83 803.763,1222.83 805.979,1222.83 808.195,1222.83 810.411,1222.82 812.627,1222.82 814.843,1222.82 817.059,1222.81 819.275,1222.81 821.491,1222.8 823.707,1222.79 825.923,1222.77 828.139,1222.76 830.355,1222.74 832.571,1222.71 834.787,1222.69 837.003,1222.66 839.219,1222.62 841.435,1222.58 843.651,1222.54 845.867,1222.49 848.083,1222.44 850.299,1222.38 852.515,1222.31 854.731,1222.24 856.947,1222.16 859.163,1222.08 861.38,1221.99 863.596,1221.89 865.812,1221.78 868.028,1221.67 870.244,1221.55 872.46,1221.42 874.676,1221.28 876.892,1221.13 879.108,1220.98 881.324,1220.81 883.54,1220.64 885.756,1220.45 887.972,1220.26 890.188,1220.06 892.404,1219.84 894.62,1219.62 896.836,1219.38 899.052,1219.14 901.268,1218.88 903.484,1218.61 905.7,1218.33 907.916,1218.04 910.132,1217.74 912.348,1217.42 914.564,1217.09 916.78,1216.75 918.996,1216.4 921.212,1216.03 923.428,1215.65 925.644,1215.25 927.86,1214.85 930.076,1214.43 932.292,1213.99 934.508,1213.54 936.724,1213.08 938.94,1212.6 941.156,1212.11 943.372,1211.6 945.588,1211.08 947.804,1210.54 950.02,1209.99 952.236,1209.42 954.452,1208.84 956.668,1208.24 958.884,1207.62 961.1,1206.99 963.316,1206.35 965.532,1205.69 967.748,1205.01 969.964,1204.31 972.18,1203.6 974.396,1202.87 976.612,1202.13 978.828,1201.37 981.044,1200.59 983.26,1199.8 985.476,1198.98 987.692,1198.16 989.908,1197.31 992.124,1196.45 994.34,1195.57 996.556,1194.67 998.772,1193.75 1000.99,1192.82 1003.2,1191.87 1005.42,1190.9 1007.64,1189.92 1009.85,1188.91 1012.07,1187.89 1014.28,1186.85 1016.5,1185.8 1018.72,1184.73 1020.93,1183.63 1023.15,1182.52 1025.36,1181.4 1027.58,1180.25 1029.8,1179.09 1032.01,1177.91 1034.23,1176.71 1036.44,1175.5 1038.66,1174.26 1040.88,1173.01 1043.09,1171.74 1045.31,1170.46 1047.52,1169.15 1049.74,1167.83 1051.96,1166.49 1054.17,1165.14 1056.39,1163.76 1058.6,1162.37 1060.82,1160.96 1063.04,1159.54 1065.25,1158.1 1067.47,1380.62 1069.68,1379.15 1071.9,1377.65 1074.12,1376.14 1076.33,1374.62 1078.55,1373.07 1080.76,1371.51 1082.98,1369.94 1085.2,1368.34 1087.41,1366.73 1089.63,1365.11 1091.84,1363.47 1094.06,1361.81 1096.28,1360.14 1098.49,1358.45 1100.71,1356.75 1102.92,1355.03 1105.14,1353.3 1107.36,1351.55 1109.57,1349.79 1111.79,1348.01 1114,1346.22 1116.22,1344.41 1118.44,1342.6 1120.65,1340.76 1122.87,1338.91 1125.08,1337.05 1127.3,1335.18 1129.52,1333.29 1131.73,1331.39 1133.95,1329.48 1136.17,1327.55 1138.38,1325.62 1140.6,1323.66 1142.81,1321.7 1145.03,1319.73 1147.25,1317.74 1149.46,1315.75 1151.68,1313.74 1153.89,1311.72 1156.11,1309.69 1158.33,1307.65 1160.54,1305.6 1162.76,1303.53 1164.97,1301.46 1167.19,1299.38 1169.41,1297.29 1171.62,1295.19 1173.84,1293.08 1176.05,1290.97 1178.27,1288.84 1180.49,1286.71 1182.7,1284.56 1184.92,1282.41 1187.13,1280.26 1189.35,1278.09 1191.57,1275.92 1193.78,1273.74 1196,1271.56 1198.21,1269.37 1200.43,1267.17 1202.65,1264.97 1204.86,1262.76 1207.08,1260.55 1209.29,1258.33 1211.51,1256.11 1213.73,1253.88 1215.94,1251.65 1218.16,1249.41 1220.37,1247.17 1222.59,1244.93 1224.81,1242.69 1227.02,1240.44 1229.24,1238.19 1231.45,1235.94 1233.67,1233.69 1235.89,1231.44 1238.1,1229.18 1240.32,1226.93 1242.53,1224.67 1244.75,1222.41 1246.97,1220.15 1249.18,1217.9 1251.4,1215.64 1253.61,1213.38 1255.83,1211.13 1258.05,1208.87 1260.26,1206.62 1262.48,1204.37 1264.69,1202.12 1266.91,1199.88 1269.13,1197.63 1271.34,1195.39 1273.56,1193.15 1275.77,1190.92 1277.99,1188.69 1280.21,1186.46 1282.42,1184.24 1284.64,1182.02 1286.85,1179.81 1289.07,1177.6 1291.29,1175.4 1293.5,1173.21 1295.72,1171.02 1297.93,1168.83 1300.15,1166.65 1302.37,1164.48 1304.58,1162.32 1306.8,1160.16 1309.01,1158.01 1311.23,1272.42 1313.45,1270.29 1315.66,1268.16 1317.88,1266.04 1320.09,1263.93 1322.31,1261.83 1324.53,1259.74 1326.74,1257.66 1328.96,1255.59 1331.17,1253.53 1333.39,1251.47 1335.61,1249.43 1337.82,1247.4 1340.04,1245.38 1342.25,1243.36 1344.47,1241.36 1346.69,1239.38 1348.9,1237.4 1351.12,1235.44 1353.33,1233.49 1355.55,1231.55 1357.77,1229.62 1359.98,1227.71 1362.2,1225.81 1364.41,1223.92 1366.63,1222.04 1368.85,1220.18 1371.06,1218.34 1373.28,1216.5 1375.49,1214.68 1377.71,1212.88 1379.93,1211.08 1382.14,1209.31 1384.36,1207.55 1386.57,1205.8 1388.79,1204.07 1391.01,1202.35 1393.22,1200.65 1395.44,1198.96 1397.65,1197.29 1399.87,1195.63 1402.09,1193.99 1404.3,1192.37 1406.52,1190.76 1408.73,1189.17 1410.95,1187.59 1413.17,1186.03 1415.38,1184.49 1417.6,1182.96 1419.81,1181.45 1422.03,1179.96 1424.25,1178.48 1426.46,1177.03 1428.68,1175.58 1430.89,1174.16 1433.11,1172.75 1435.33,1171.36 1437.54,1169.99 1439.76,1168.63 1441.97,1167.29 1444.19,1165.97 1446.41,1164.67 1448.62,1163.38 1450.84,1162.11 1453.05,1160.86 1455.27,1159.63 1457.49,1158.41 1459.7,1317.08 1461.92,1315.9 1464.13,1314.74 1466.35,1313.59 1468.57,1312.46 1470.78,1311.35 1473,1310.26 1475.21,1309.19 1477.43,1308.13 1479.65,1307.09 1481.86,1306.08 1484.08,1305.08 1486.3,1304.09 1488.51,1303.12 1490.73,1302.18 1492.94,1301.24 1495.16,1300.33 1497.38,1299.43 1499.59,1298.55 1501.81,1297.69 1504.02,1296.85 1506.24,1296.02 1508.46,1295.21 1510.67,1294.41 1512.89,1293.64 1515.1,1292.88 1517.32,1292.13 1519.54,1291.41 1521.75,1290.7 1523.97,1290 1526.18,1289.32 1528.4,1288.66 1530.62,1288.02 1532.83,1287.39 1535.05,1286.77 1537.26,1286.17 1539.48,1285.59 1541.7,1285.02 1543.91,1284.47 1546.13,1283.93 1548.34,1283.41 1550.56,1282.9 1552.78,1282.41 1554.99,1281.93 1557.21,1281.47 1559.42,1281.02 1561.64,1280.58 1563.86,1280.16 1566.07,1279.75 1568.29,1279.35 1570.5,1278.97 1572.72,1278.6 1574.94,1278.25 1577.15,1277.91 1579.37,1277.58 1581.58,1277.26 1583.8,1276.95 1586.02,1276.66 1588.23,1276.38 1590.45,1276.11 1592.66,1275.85 1594.88,1275.6 1597.1,1275.36 1599.31,1275.14 1601.53,1274.92 1603.74,1274.72 1605.96,1274.52 1608.18,1274.34 1610.39,1274.16 1612.61,1274 1614.82,1273.84 1617.04,1273.69 1619.26,1273.56 1621.47,1273.43 1623.69,1273.3 1625.9,1273.19 1628.12,1273.08 1630.34,1272.99 1632.55,1272.89 1634.77,1272.81 1636.98,1272.73 1639.2,1272.66 1641.42,1272.6 1643.63,1272.54 1645.85,1272.48 1648.06,1272.44 1650.28,1272.39 1652.5,1272.36 1654.71,1272.32 1656.93,1272.29 1659.14,1272.27 1661.36,1272.25 1663.58,1272.23 1665.79,1272.21 1668.01,1272.2 1670.22,1272.19 1672.44,1272.18 1674.66,1272.18 1676.87,1272.17 1679.09,1272.17 1681.3,1272.17 1683.52,1272.17 1685.74,1272.17 1687.95,1272.17 1690.17,1272.17 1692.38,1272.17 1694.6,1272.18 1696.82,1272.18 1699.03,1272.18 1701.25,1272.18 1703.46,1272.17 1705.68,1272.17 1707.9,1272.16 1710.11,1272.15 1712.33,1272.14 1714.54,1272.12 1716.76,1272.11 1718.98,1272.08 1721.19,1272.06 1723.41,1272.03 1725.62,1271.99 1727.84,1271.95 1730.06,1271.91 1732.27,1271.86 1734.49,1271.8 1736.7,1271.74 1738.92,1271.67 1741.14,1271.6 1743.35,1271.52 1745.57,1271.43 1747.78,1271.33 1750,1271.23 1752.22,1271.12 1754.43,1271 1756.65,1270.88 1758.86,1270.74 1761.08,1270.6 1763.3,1270.45 1765.51,1270.29 1767.73,1270.12 1769.94,1269.94 1772.16,1269.75 1774.38,1269.55 1776.59,1269.34 1778.81,1269.12 1781.02,1268.89 1783.24,1268.64 1785.46,1268.39 1787.67,1268.13 1789.89,1267.85 1792.1,1267.56 1794.32,1267.26 1796.54,1266.95 1798.75,1266.63 1800.97,1266.29 1803.18,1265.95 1805.4,1265.58 1807.62,1265.21 1809.83,1264.82 1812.05,1264.42 1814.26,1264.01 1816.48,1263.58 1818.7,1263.14 1820.91,1262.68 1823.13,1262.21 1825.34,1261.72 1827.56,1261.23 1829.78,1260.71 1831.99,1260.18 1834.21,1259.64 1836.42,1259.08 1838.64,1258.51 1840.86,1257.92 1843.07,1257.31 1845.29,1256.69 1847.51,1256.06 1849.72,1255.4 1851.94,1254.74 1854.15,1254.05 1856.37,1253.35 1858.59,1252.64 1860.8,1251.9 1863.02,1251.15 1865.23,1250.39 1867.45,1249.6 1869.67,1248.8 1871.88,1247.99 1874.1,1247.15 1876.31,1246.3 1878.53,1245.43 1880.75,1244.54 1882.96,1243.64 1885.18,1242.72 1887.39,1241.78 1889.61,1240.82 1891.83,1239.85 1894.04,1238.86 1896.26,1237.85 1898.47,1236.82 1900.69,1235.77 1902.91,1234.71 1905.12,1233.63 1907.34,1232.53 1909.55,1231.41 1911.77,1230.28 1913.99,1229.13 1916.2,1227.96 1918.42,1226.77 1920.63,1225.57 1922.85,1224.34 1925.07,1223.1 1927.28,1221.85 1929.5,1220.57 1931.71,1219.28 1933.93,1217.97 1936.15,1216.64 1938.36,1215.29 1940.58,1213.93 1942.79,1212.55 1945.01,1211.15 1947.23,1209.74 1949.44,1208.3 1951.66,1206.86 1953.87,1205.39 1956.09,1203.91 1958.31,1202.41 1960.52,1200.89 1962.74,1199.36 1964.95,1197.81 1967.17,1196.24 1969.39,1194.66 1971.6,1193.06 1973.82,1191.45 1976.03,1189.82 1978.25,1188.17 1980.47,1186.51 1982.68,1184.83 1984.9,1183.14 1987.11,1181.43 1989.33,1179.7 1991.55,1177.97 1993.76,1176.21 1995.98,1174.44 1998.19,1172.66 2000.41,1170.86 2002.63,1169.05 2004.84,1167.23 2007.06,1165.39 2009.27,1163.53 2011.49,1161.67 2013.71,1159.79 2015.92,1157.9 2018.14,1182.57 2020.35,1180.65 2022.57,1178.72 2024.79,1176.77 2027,1174.82 2029.22,1172.85 2031.43,1170.87 2033.65,1168.88 2035.87,1166.88 2038.08,1164.86 2040.3,1162.84 2042.51,1160.8 2044.73,1158.76 2046.95,1170.01 2049.16,1167.95 2051.38,1165.87 2053.59,1163.79 2055.81,1161.69 2058.03,1159.59 2060.24,1157.48 2062.46,1164.11 2064.67,1161.99 2066.89,1159.85 2069.11,1157.7 2071.32,1160.28 2073.54,1158.12 2075.75,1167.6 2077.97,1165.43 2080.19,1163.25 2082.4,1161.06 2084.62,1158.87 2086.83,1231.86 2089.05,1229.66 2091.27,1227.45 2093.48,1225.23 2095.7,1223.01 2097.91,1220.79 2100.13,1218.56 2102.35,1216.33 2104.56,1214.09 2106.78,1211.85 2108.99,1209.61 2111.21,1207.37 2113.43,1205.12 2115.64,1202.84 2117.86,1200.59 2120.07,1198.34 2122.29,1196.08 2124.51,1193.83 2126.72,1191.57 2128.94,1189.31 2131.15,1187.05 2133.37,1184.8 2135.59,1182.54 2137.8,1180.28 2140.02,1178.03 2142.23,1175.77 2144.45,1173.52 2146.67,1171.27 2148.88,1169.02 2151.1,1166.77 2153.31,1164.52 2155.53,1162.28 2157.75,1160.04 2159.96,1157.81 2162.18,1193.86 2164.39,1191.63 2166.61,1189.4 2168.83,1187.18 2171.04,1184.97 2173.26,1182.76 2175.47,1180.55 2177.69,1178.35 2179.91,1176.16 2182.12,1173.97 2184.34,1171.79 2186.55,1169.61 2188.77,1167.44 2190.99,1165.28 2193.2,1163.13 2195.42,1160.98 2197.64,1158.84 2199.85,1236.68 2202.07,1234.55 2204.28,1232.44 2206.5,1230.33 2208.72,1228.24 2210.93,1226.15 2213.15,1224.07 2215.36,1222 2217.58,1219.95 2219.8,1217.9 2222.01,1215.86 2224.23,1213.83 2226.44,1211.82 2228.66,1209.81 2230.88,1207.82 2233.09,1205.84 2235.31,1203.86 2237.52,1201.91 2239.74,1199.96 2241.96,1198.03 2244.17,1196.1 2246.39,1194.2 2248.6,1192.3 2250.82,1190.42 2253.04,1188.55 2255.25,1186.69 2257.47,1184.85 2259.68,1183.02 2261.9,1181.21 2264.12,1179.41 2266.33,1177.62 2268.55,1175.85 2270.76,1174.09 2272.98,1172.35 2275.2,1170.63 2277.41,1168.92 2279.63,1167.22 2281.84,1165.54 2284.06,1163.87 2286.28,1162.22 2288.49,1160.59 2290.71,1158.97 2292.92,1264.92 2295.14,1263.33 2297.36,1261.76 2299.57,1260.21 2301.79,1258.67 2304,1257.15 2306.22,1255.65 2308.44,1254.16 2310.65,1252.69 2312.87,1251.24 2315.08,1249.8 2317.3,1248.39 2319.52,1246.98 2321.73,1245.6 2323.95,1244.23 2326.16,1242.88 2328.38,1241.55 2330.6,1240.24 2332.81,1238.94 2335.03,1237.66 2337.24,1236.4 2339.46,1235.16 2341.68,1233.93 2343.89,1232.72 2346.11,1231.53 2348.32,1230.36 2350.54,1229.2 2352.76,1228.07 "/>
<polyline clip-path="url(#clip712)" style="stroke:#c271d2; stroke-linecap:round; stroke-linejoin:round; stroke-width:8; stroke-opacity:1; fill:none" points="138.959,1230.7 141.175,1230.7 143.391,1230.7 145.607,1230.7 147.823,1230.7 150.04,1230.7 152.256,1230.7 154.472,1230.7 156.688,1230.7 158.904,1230.7 161.12,1230.7 163.336,1230.7 165.552,1230.7 167.768,1230.7 169.984,1230.7 172.2,1230.7 174.416,1230.7 176.632,1230.7 178.848,1230.7 181.064,1230.7 183.28,1230.7 185.496,1230.7 187.712,1230.7 189.928,1230.7 192.144,1230.7 194.36,1230.7 196.576,1230.7 198.792,1230.7 201.008,1230.7 203.224,1230.7 205.44,1230.7 207.656,1230.7 209.872,1230.7 212.088,1230.7 214.304,1230.7 216.52,1230.7 218.736,1230.7 220.952,1230.7 223.168,1230.7 225.384,1230.7 227.6,1230.7 229.816,1230.7 232.032,1230.7 234.248,1230.7 236.464,1230.7 238.68,1230.7 240.896,1230.7 243.112,1230.7 245.328,1230.52 247.544,1229.67 249.76,1228.82 251.976,1227.98 254.192,1227.13 256.408,1226.28 258.624,1225.44 260.84,1224.59 263.056,1223.74 265.272,1222.9 267.488,1222.05 269.704,1221.2 271.92,1220.36 274.136,1219.51 276.352,1218.66 278.568,1216.98 280.784,1215.28 283,1213.59 285.216,1211.9 287.432,1210.2 289.648,1208.51 291.864,1206.82 294.08,1205.12 296.296,1203.43 298.512,1201.74 300.728,1200.04 302.944,1198.35 305.16,1196.66 307.376,1194.97 309.592,1193.27 311.808,1191.58 314.024,1189.89 316.24,1188.19 318.456,1186.5 320.672,1184.81 322.888,1183.11 325.104,1181.42 327.321,1179.73 329.537,1178.03 331.753,1176.34 333.969,1174.65 336.185,1172.95 338.401,1171.26 340.617,1169.57 342.833,1167.88 345.049,1166.18 347.265,1164.49 349.481,1162.8 351.697,1161.1 353.913,1158.22 356.129,1164.52 358.345,1161.98 360.561,1159.44 362.777,1184.68 364.993,1182.99 367.209,1181.29 369.425,1179.6 371.641,1177.91 373.857,1176.21 376.073,1174.52 378.289,1172.83 380.505,1171.14 382.721,1169.44 384.937,1167.75 387.153,1166.06 389.369,1164.36 391.585,1162.67 393.801,1160.98 396.017,1159.28 398.233,1157.59 400.449,1166.14 402.665,1165.29 404.881,1164.44 407.097,1163.6 409.313,1162.75 411.529,1161.9 413.745,1161.06 415.961,1160.21 418.177,1159.36 420.393,1158.52 422.609,1157.67 424.825,1266.91 427.041,1266.91 429.257,1266.91 431.473,1266.91 433.689,1266.91 435.905,1266.91 438.121,1266.91 440.337,1266.91 442.553,1266.91 444.769,1266.91 446.985,1266.91 449.201,1266.91 451.417,1266.91 453.633,1266.91 455.849,1266.91 458.065,1266.91 460.281,1266.91 462.497,1266.91 464.713,1266.91 466.929,1266.91 469.145,1266.91 471.361,1266.91 473.577,1266.91 475.793,1266.91 478.009,1266.91 480.225,1266.91 482.441,1266.91 484.657,1266.91 486.873,1266.91 489.089,1266.91 491.305,1266.91 493.521,1266.91 495.737,1266.91 497.953,1266.91 500.169,1266.91 502.385,1266.91 504.601,1266.91 506.818,1266.91 509.034,1266.91 511.25,1266.34 513.466,1265.49 515.682,1264.65 517.898,1263.8 520.114,1262.95 522.33,1262.11 524.546,1261.26 526.762,1260.41 528.978,1259.57 531.194,1258.72 533.41,1257.87 535.626,1257.03 537.842,1256.18 540.058,1255.33 542.274,1254.49 544.49,1253.64 546.706,1252.79 548.922,1251.95 551.138,1251.1 553.354,1250.25 555.57,1249.41 557.786,1248.56 560.002,1247.71 562.218,1246.87 564.434,1246.02 566.65,1245.13 568.866,1243.43 571.082,1241.61 573.298,1239.07 575.514,1236.29 577.73,1232.9 579.946,1229.52 582.162,1226.11 584.378,1221.88 586.594,1217.64 588.81,1213.41 591.026,1209.18 593.242,1204.95 595.458,1200.71 597.674,1196.48 599.89,1192.25 602.106,1188.01 604.322,1183.78 606.538,1179.55 608.754,1175.32 610.97,1171.08 613.186,1166.85 615.402,1162.62 617.618,1158.38 619.834,1158.44 622.05,1186.04 624.266,1184.35 626.482,1182.66 628.698,1180.96 630.914,1179.27 633.13,1177.58 635.346,1175.89 637.562,1174.19 639.778,1172.5 641.994,1170.81 644.21,1169.11 646.426,1167.42 648.642,1165.73 650.858,1164.03 653.074,1162.34 655.29,1160.65 657.506,1158.95 659.722,1240.14 661.938,1239.3 664.154,1238.45 666.37,1237.6 668.586,1236.76 670.802,1235.91 673.018,1235.06 675.234,1234.22 677.45,1233.37 679.666,1232.52 681.882,1231.68 684.099,1230.83 686.315,1229.98 688.531,1229.14 690.747,1228.29 692.963,1227.44 695.179,1226.6 697.395,1225.75 699.611,1224.9 701.827,1224.06 704.043,1223.21 706.259,1222.36 708.475,1221.52 710.691,1220.67 712.907,1219.82 715.123,1218.98 717.339,1218.13 719.555,1217.28 721.771,1216.44 723.987,1215.59 726.203,1214.74 728.419,1213.9 730.635,1213.05 732.851,1212.21 735.067,1211.36 737.283,1210.51 739.499,1209.67 741.715,1208.82 743.931,1207.97 746.147,1207.13 748.363,1206.28 750.579,1205.43 752.795,1204.59 755.011,1203.74 757.227,1202.89 759.443,1202.05 761.659,1201.2 763.875,1200.35 766.091,1199.51 768.307,1198.66 770.523,1197.81 772.739,1196.97 774.955,1196.12 777.171,1195.27 779.387,1194.43 781.603,1193.58 783.819,1192.73 786.035,1191.89 788.251,1191.04 790.467,1190.19 792.683,1189.35 794.899,1188.5 797.115,1187.65 799.331,1186.81 801.547,1185.96 803.763,1185.11 805.979,1184.27 808.195,1183.42 810.411,1182.58 812.627,1181.73 814.843,1180.88 817.059,1180.04 819.275,1179.19 821.491,1178.34 823.707,1177.5 825.923,1176.65 828.139,1175.8 830.355,1174.96 832.571,1174.11 834.787,1173.26 837.003,1172.42 839.219,1171.57 841.435,1170.72 843.651,1169.88 845.867,1169.03 848.083,1168.18 850.299,1167.34 852.515,1166.49 854.731,1165.64 856.947,1164.8 859.163,1163.95 861.38,1163.1 863.596,1162.26 865.812,1161.41 868.028,1160.56 870.244,1159.72 872.46,1158.87 874.676,1158.02 876.892,1157.79 879.108,1157.79 881.324,1157.79 883.54,1157.79 885.756,1157.79 887.972,1157.79 890.188,1157.79 892.404,1157.79 894.62,1157.79 896.836,1157.79 899.052,1157.79 901.268,1157.79 903.484,1157.79 905.7,1157.79 907.916,1157.79 910.132,1157.79 912.348,1157.79 914.564,1157.79 916.78,1157.79 918.996,1157.79 921.212,1157.79 923.428,1157.79 925.644,1157.79 927.86,1157.79 930.076,1157.79 932.292,1157.79 934.508,1157.79 936.724,1157.79 938.94,1157.79 941.156,1157.79 943.372,1157.79 945.588,1157.79 947.804,1157.79 950.02,1157.79 952.236,1157.79 954.452,1157.79 956.668,1157.79 958.884,1157.79 961.1,1157.79 963.316,1157.79 965.532,1157.79 967.748,1157.79 969.964,1157.79 972.18,1157.79 974.396,1157.79 976.612,1157.79 978.828,1157.79 981.044,1157.79 983.26,1157.79 985.476,1157.79 987.692,1157.79 989.908,1157.79 992.124,1157.79 994.34,1157.79 996.556,1157.79 998.772,1157.79 1000.99,1157.79 1003.2,1157.79 1005.42,1157.79 1007.64,1157.79 1009.85,1157.79 1012.07,1157.79 1014.28,1157.79 1016.5,1157.79 1018.72,1157.79 1020.93,1157.79 1023.15,1157.79 1025.36,1157.79 1027.58,1157.79 1029.8,1157.79 1032.01,1157.79 1034.23,1157.79 1036.44,1157.79 1038.66,1157.79 1040.88,1157.79 1043.09,1157.79 1045.31,1157.79 1047.52,1157.79 1049.74,1157.79 1051.96,1157.79 1054.17,1157.79 1056.39,1157.79 1058.6,1157.79 1060.82,1157.79 1063.04,1157.79 1065.25,1157.79 1067.47,1169.88 1069.68,1169.88 1071.9,1169.88 1074.12,1169.88 1076.33,1169.88 1078.55,1169.88 1080.76,1169.88 1082.98,1169.88 1085.2,1169.88 1087.41,1169.88 1089.63,1169.88 1091.84,1169.88 1094.06,1169.88 1096.28,1169.88 1098.49,1169.88 1100.71,1169.88 1102.92,1169.88 1105.14,1169.88 1107.36,1169.88 1109.57,1169.88 1111.79,1169.88 1114,1169.88 1116.22,1169.88 1118.44,1169.88 1120.65,1169.88 1122.87,1169.88 1125.08,1169.88 1127.3,1169.88 1129.52,1169.88 1131.73,1169.88 1133.95,1169.88 1136.17,1169.88 1138.38,1169.88 1140.6,1169.88 1142.81,1169.88 1145.03,1169.88 1147.25,1169.88 1149.46,1169.88 1151.68,1169.88 1153.89,1169.88 1156.11,1169.88 1158.33,1169.88 1160.54,1169.88 1162.76,1169.88 1164.97,1169.88 1167.19,1169.88 1169.41,1169.88 1171.62,1169.88 1173.84,1169.88 1176.05,1169.88 1178.27,1169.88 1180.49,1169.88 1182.7,1169.88 1184.92,1169.88 1187.13,1169.88 1189.35,1169.88 1191.57,1169.88 1193.78,1169.88 1196,1169.88 1198.21,1169.88 1200.43,1169.88 1202.65,1169.88 1204.86,1169.88 1207.08,1169.88 1209.29,1169.88 1211.51,1169.88 1213.73,1169.88 1215.94,1169.88 1218.16,1169.88 1220.37,1169.88 1222.59,1169.88 1224.81,1169.88 1227.02,1169.88 1229.24,1169.88 1231.45,1169.88 1233.67,1169.88 1235.89,1169.88 1238.1,1169.88 1240.32,1169.88 1242.53,1169.88 1244.75,1169.88 1246.97,1169.88 1249.18,1169.88 1251.4,1169.88 1253.61,1169.88 1255.83,1169.88 1258.05,1169.88 1260.26,1169.88 1262.48,1169.88 1264.69,1169.88 1266.91,1169.88 1269.13,1169.88 1271.34,1169.88 1273.56,1169.88 1275.77,1169.88 1277.99,1169.88 1280.21,1169.88 1282.42,1169.88 1284.64,1169.88 1286.85,1169.88 1289.07,1169.88 1291.29,1169.88 1293.5,1169.88 1295.72,1169.88 1297.93,1169.88 1300.15,1169.88 1302.37,1169.88 1304.58,1169.88 1306.8,1169.88 1309.01,1169.88 1311.23,1169.25 1313.45,1168.4 1315.66,1167.55 1317.88,1166.71 1320.09,1165.86 1322.31,1165.01 1324.53,1164.17 1326.74,1163.32 1328.96,1162.47 1331.17,1161.63 1333.39,1160.78 1335.61,1159.93 1337.82,1159.09 1340.04,1158.24 1342.25,1165.82 1344.47,1165.82 1346.69,1165.82 1348.9,1165.82 1351.12,1165.82 1353.33,1165.82 1355.55,1165.82 1357.77,1165.82 1359.98,1165.82 1362.2,1165.82 1364.41,1165.82 1366.63,1165.82 1368.85,1165.82 1371.06,1165.82 1373.28,1165.82 1375.49,1165.82 1377.71,1165.82 1379.93,1165.82 1382.14,1165.82 1384.36,1165.82 1386.57,1165.82 1388.79,1165.82 1391.01,1165.82 1393.22,1165.82 1395.44,1165.82 1397.65,1165.82 1399.87,1165.82 1402.09,1165.82 1404.3,1165.82 1406.52,1165.82 1408.73,1165.82 1410.95,1165.82 1413.17,1165.82 1415.38,1165.82 1417.6,1165.82 1419.81,1165.82 1422.03,1165.82 1424.25,1165.82 1426.46,1165.82 1428.68,1165.82 1430.89,1165.82 1433.11,1165.82 1435.33,1165.82 1437.54,1165.82 1439.76,1165.82 1441.97,1165.82 1444.19,1165.82 1446.41,1165.82 1448.62,1165.82 1450.84,1165.82 1453.05,1165.82 1455.27,1165.82 1457.49,1165.82 1459.7,1165.65 1461.92,1164.8 1464.13,1163.96 1466.35,1163.11 1468.57,1162.26 1470.78,1161.42 1473,1160.57 1475.21,1159.72 1477.43,1158.88 1479.65,1158.03 1481.86,1285.03 1484.08,1285.03 1486.3,1285.03 1488.51,1285.03 1490.73,1285.03 1492.94,1285.03 1495.16,1285.03 1497.38,1285.03 1499.59,1285.03 1501.81,1285.03 1504.02,1285.03 1506.24,1285.03 1508.46,1285.03 1510.67,1285.03 1512.89,1285.03 1515.1,1285.03 1517.32,1285.03 1519.54,1285.03 1521.75,1285.03 1523.97,1285.03 1526.18,1285.03 1528.4,1285.03 1530.62,1285.03 1532.83,1285.03 1535.05,1285.03 1537.26,1285.03 1539.48,1285.03 1541.7,1285.03 1543.91,1285.03 1546.13,1285.03 1548.34,1285.03 1550.56,1285.03 1552.78,1285.03 1554.99,1285.03 1557.21,1285.03 1559.42,1285.03 1561.64,1285.03 1563.86,1285.03 1566.07,1285.03 1568.29,1285.03 1570.5,1285.03 1572.72,1285.03 1574.94,1285.03 1577.15,1285.03 1579.37,1285.03 1581.58,1285.03 1583.8,1285.03 1586.02,1285.03 1588.23,1285.03 1590.45,1285.03 1592.66,1285.03 1594.88,1285.03 1597.1,1285.03 1599.31,1285.03 1601.53,1285.03 1603.74,1285.03 1605.96,1285.03 1608.18,1285.03 1610.39,1285.03 1612.61,1285.03 1614.82,1285.03 1617.04,1285.03 1619.26,1285.03 1621.47,1285.03 1623.69,1285.03 1625.9,1285.03 1628.12,1285.03 1630.34,1285.03 1632.55,1285.03 1634.77,1285.03 1636.98,1285.03 1639.2,1285.03 1641.42,1285.03 1643.63,1285.03 1645.85,1285.03 1648.06,1285.03 1650.28,1285.03 1652.5,1285.03 1654.71,1285.03 1656.93,1285.03 1659.14,1285.03 1661.36,1285.03 1663.58,1285.03 1665.79,1285.03 1668.01,1285.03 1670.22,1285.03 1672.44,1285.03 1674.66,1285.03 1676.87,1285.03 1679.09,1285.03 1681.3,1285.03 1683.52,1285.03 1685.74,1285.03 1687.95,1285.03 1690.17,1285.03 1692.38,1285.03 1694.6,1285.03 1696.82,1285.03 1699.03,1285.03 1701.25,1285.03 1703.46,1285.03 1705.68,1285.03 1707.9,1285.03 1710.11,1285.03 1712.33,1285.03 1714.54,1285.03 1716.76,1285.03 1718.98,1285.03 1721.19,1285.03 1723.41,1285.03 1725.62,1285.03 1727.84,1285.03 1730.06,1285.03 1732.27,1285.03 1734.49,1285.03 1736.7,1285.03 1738.92,1285.03 1741.14,1285.03 1743.35,1285.03 1745.57,1285.03 1747.78,1285.03 1750,1285.03 1752.22,1285.03 1754.43,1285.03 1756.65,1285.03 1758.86,1285.03 1761.08,1285.03 1763.3,1285.03 1765.51,1285.03 1767.73,1285.03 1769.94,1285.03 1772.16,1285.03 1774.38,1285.03 1776.59,1285.03 1778.81,1285.03 1781.02,1285.03 1783.24,1285.03 1785.46,1285.03 1787.67,1285.03 1789.89,1285.03 1792.1,1285.03 1794.32,1285.03 1796.54,1285.03 1798.75,1285.03 1800.97,1285.03 1803.18,1285.03 1805.4,1285.03 1807.62,1285.03 1809.83,1285.03 1812.05,1285.03 1814.26,1285.03 1816.48,1285.03 1818.7,1285.03 1820.91,1285.03 1823.13,1285.03 1825.34,1285.03 1827.56,1285.03 1829.78,1285.03 1831.99,1285.03 1834.21,1285.03 1836.42,1285.03 1838.64,1285.03 1840.86,1285.03 1843.07,1285.03 1845.29,1285.03 1847.51,1285.03 1849.72,1285.03 1851.94,1285.03 1854.15,1285.03 1856.37,1285.03 1858.59,1285.03 1860.8,1285.03 1863.02,1285.03 1865.23,1285.03 1867.45,1285.03 1869.67,1285.03 1871.88,1285.03 1874.1,1285.03 1876.31,1285.03 1878.53,1285.03 1880.75,1285.03 1882.96,1285.03 1885.18,1285.03 1887.39,1285.03 1889.61,1285.03 1891.83,1285.03 1894.04,1285.03 1896.26,1285.03 1898.47,1285.03 1900.69,1285.03 1902.91,1285.03 1905.12,1285.03 1907.34,1285.03 1909.55,1285.03 1911.77,1285.03 1913.99,1285.03 1916.2,1285.03 1918.42,1285.03 1920.63,1285.03 1922.85,1285.03 1925.07,1285.03 1927.28,1285.03 1929.5,1285.03 1931.71,1285.03 1933.93,1285.03 1936.15,1285.03 1938.36,1285.03 1940.58,1285.03 1942.79,1285.03 1945.01,1285.03 1947.23,1285.03 1949.44,1285.03 1951.66,1285.03 1953.87,1285.03 1956.09,1285.03 1958.31,1285.03 1960.52,1285.03 1962.74,1285.03 1964.95,1285.03 1967.17,1285.03 1969.39,1285.03 1971.6,1285.03 1973.82,1285.03 1976.03,1285.03 1978.25,1285.03 1980.47,1285.03 1982.68,1285.03 1984.9,1285.03 1987.11,1285.03 1989.33,1285.03 1991.55,1285.03 1993.76,1285.03 1995.98,1285.03 1998.19,1285.03 2000.41,1285.03 2002.63,1285.03 2004.84,1285.03 2007.06,1285.03 2009.27,1285.03 2011.49,1285.03 2013.71,1285.03 2015.92,1285.03 2018.14,1284.39 2020.35,1283.55 2022.57,1282.7 2024.79,1281.85 2027,1281.01 2029.22,1280.16 2031.43,1279.31 2033.65,1278.47 2035.87,1277.62 2038.08,1276.77 2040.3,1275.93 2042.51,1275.08 2044.73,1274.23 2046.95,1273.07 2049.16,1271.38 2051.38,1269.68 2053.59,1267.99 2055.81,1266.3 2058.03,1264.6 2060.24,1262.91 2062.46,1260.38 2064.67,1257.84 2066.89,1255.3 2069.11,1252.76 2071.32,1249.48 2073.54,1246.09 2075.75,1242.13 2077.97,1237.89 2080.19,1233.66 2082.4,1229.43 2084.62,1225.19 2086.83,1220.66 2089.05,1215.58 2091.27,1210.5 2093.48,1205.42 2095.7,1200.34 2097.91,1195.26 2100.13,1190.19 2102.35,1185.11 2104.56,1180.03 2106.78,1174.95 2108.99,1169.87 2111.21,1164.79 2113.43,1159.71 2115.64,1384.24 2117.86,1380.01 2120.07,1375.77 2122.29,1371.54 2124.51,1367.31 2126.72,1363.07 2128.94,1358.84 2131.15,1354.61 2133.37,1350.38 2135.59,1346.14 2137.8,1341.91 2140.02,1337.68 2142.23,1333.44 2144.45,1329.21 2146.67,1324.98 2148.88,1320.75 2151.1,1316.51 2153.31,1312.28 2155.53,1308.05 2157.75,1303.81 2159.96,1299.58 2162.18,1294.62 2164.39,1289.54 2166.61,1284.46 2168.83,1279.38 2171.04,1274.3 2173.26,1269.22 2175.47,1264.15 2177.69,1259.07 2179.91,1253.99 2182.12,1248.91 2184.34,1243.83 2186.55,1238.75 2188.77,1233.67 2190.99,1228.59 2193.2,1223.51 2195.42,1218.43 2197.64,1213.35 2199.85,1207.97 2202.07,1202.05 2204.28,1196.12 2206.5,1190.2 2208.72,1184.27 2210.93,1178.34 2213.15,1172.42 2215.36,1166.49 2217.58,1160.57 2219.8,1191.44 2222.01,1186.36 2224.23,1181.28 2226.44,1176.2 2228.66,1171.12 2230.88,1166.04 2233.09,1160.96 2235.31,1200.06 2237.52,1195.83 2239.74,1191.6 2241.96,1187.36 2244.17,1183.13 2246.39,1178.9 2248.6,1174.66 2250.82,1170.43 2253.04,1166.2 2255.25,1161.97 2257.47,1157.73 2259.68,1211.88 2261.9,1209.34 2264.12,1206.8 2266.33,1204.26 2268.55,1201.72 2270.76,1199.18 2272.98,1196.64 2275.2,1194.1 2277.41,1191.56 2279.63,1189.02 2281.84,1186.48 2284.06,1183.94 2286.28,1181.4 2288.49,1178.86 2290.71,1176.32 2292.92,1173.75 2295.14,1170.36 2297.36,1166.97 2299.57,1163.59 2301.79,1160.2 2304,1163.82 2306.22,1161.28 2308.44,1158.74 2310.65,1210.27 2312.87,1208.57 2315.08,1206.88 2317.3,1205.19 2319.52,1203.49 2321.73,1201.8 2323.95,1200.11 2326.16,1198.41 2328.38,1196.72 2330.6,1195.03 2332.81,1193.33 2335.03,1191.64 2337.24,1189.95 2339.46,1188.25 2341.68,1186.56 2343.89,1184.87 2346.11,1183.17 2348.32,1181.48 2350.54,1179.79 2352.76,1178.1 "/>
<path clip-path="url(#clip710)" d="M212.753 352.309 L517.488 352.309 L517.488 93.1086 L212.753 93.1086  Z" fill="#ffffff" fill-rule="evenodd" fill-opacity="1"/>
<polyline clip-path="url(#clip710)" style="stroke:#000000; stroke-linecap:round; stroke-linejoin:round; stroke-width:4; stroke-opacity:1; fill:none" points="212.753,352.309 517.488,352.309 517.488,93.1086 212.753,93.1086 212.753,352.309 "/>
<polyline clip-path="url(#clip710)" style="stroke:#009af9; stroke-linecap:round; stroke-linejoin:round; stroke-width:8; stroke-opacity:1; fill:none" points="237.35,144.949 384.937,144.949 "/>
<path clip-path="url(#clip710)" d="M409.535 127.669 L415.831 127.669 L431.155 156.581 L431.155 127.669 L435.692 127.669 L435.692 162.229 L429.396 162.229 L414.072 133.317 L414.072 162.229 L409.535 162.229 L409.535 127.669 Z" fill="#000000" fill-rule="nonzero" fill-opacity="1" /><path clip-path="url(#clip710)" d="M455.044 126.257 Q451.942 131.581 450.437 136.789 Q448.933 141.997 448.933 147.344 Q448.933 152.692 450.437 157.946 Q451.965 163.178 455.044 168.479 L451.34 168.479 Q447.868 163.039 446.132 157.784 Q444.419 152.53 444.419 147.344 Q444.419 142.182 446.132 136.951 Q447.845 131.72 451.34 126.257 L455.044 126.257 Z" fill="#000000" fill-rule="nonzero" fill-opacity="1" /><path clip-path="url(#clip710)" d="M467.52 128.942 L467.52 136.303 L476.293 136.303 L476.293 139.613 L467.52 139.613 L467.52 153.687 Q467.52 156.858 468.377 157.761 Q469.256 158.664 471.918 158.664 L476.293 158.664 L476.293 162.229 L471.918 162.229 Q466.988 162.229 465.113 160.4 Q463.238 158.548 463.238 153.687 L463.238 139.613 L460.113 139.613 L460.113 136.303 L463.238 136.303 L463.238 128.942 L467.52 128.942 Z" fill="#000000" fill-rule="nonzero" fill-opacity="1" /><path clip-path="url(#clip710)" d="M481.224 126.257 L484.928 126.257 Q488.4 131.72 490.113 136.951 Q491.849 142.182 491.849 147.344 Q491.849 152.53 490.113 157.784 Q488.4 163.039 484.928 168.479 L481.224 168.479 Q484.303 163.178 485.807 157.946 Q487.335 152.692 487.335 147.344 Q487.335 141.997 485.807 136.789 Q484.303 131.581 481.224 126.257 Z" fill="#000000" fill-rule="nonzero" fill-opacity="1" /><polyline clip-path="url(#clip710)" style="stroke:#e26f46; stroke-linecap:round; stroke-linejoin:round; stroke-width:8; stroke-opacity:1; fill:none" points="237.35,196.789 384.937,196.789 "/>
<path clip-path="url(#clip710)" d="M414.21 183.351 L414.21 210.226 L419.859 210.226 Q427.011 210.226 430.321 206.985 Q433.655 203.745 433.655 196.754 Q433.655 189.809 430.321 186.592 Q427.011 183.351 419.859 183.351 L414.21 183.351 M409.535 179.509 L419.141 179.509 Q429.187 179.509 433.886 183.698 Q438.585 187.865 438.585 196.754 Q438.585 205.689 433.863 209.879 Q429.141 214.069 419.141 214.069 L409.535 214.069 L409.535 179.509 Z" fill="#000000" fill-rule="nonzero" fill-opacity="1" /><path clip-path="url(#clip710)" d="M456.085 178.097 Q452.983 183.421 451.479 188.629 Q449.974 193.837 449.974 199.184 Q449.974 204.532 451.479 209.786 Q453.007 215.018 456.085 220.319 L452.382 220.319 Q448.909 214.879 447.173 209.624 Q445.46 204.37 445.46 199.184 Q445.46 194.022 447.173 188.791 Q448.886 183.56 452.382 178.097 L456.085 178.097 Z" fill="#000000" fill-rule="nonzero" fill-opacity="1" /><path clip-path="url(#clip710)" d="M468.562 180.782 L468.562 188.143 L477.335 188.143 L477.335 191.453 L468.562 191.453 L468.562 205.527 Q468.562 208.698 469.419 209.601 Q470.298 210.504 472.96 210.504 L477.335 210.504 L477.335 214.069 L472.96 214.069 Q468.03 214.069 466.155 212.24 Q464.28 210.388 464.28 205.527 L464.28 191.453 L461.155 191.453 L461.155 188.143 L464.28 188.143 L464.28 180.782 L468.562 180.782 Z" fill="#000000" fill-rule="nonzero" fill-opacity="1" /><path clip-path="url(#clip710)" d="M482.266 178.097 L485.969 178.097 Q489.442 183.56 491.154 188.791 Q492.891 194.022 492.891 199.184 Q492.891 204.37 491.154 209.624 Q489.442 214.879 485.969 220.319 L482.266 220.319 Q485.344 215.018 486.849 209.786 Q488.377 204.532 488.377 199.184 Q488.377 193.837 486.849 188.629 Q485.344 183.421 482.266 178.097 Z" fill="#000000" fill-rule="nonzero" fill-opacity="1" /><polyline clip-path="url(#clip710)" style="stroke:#3da44d; stroke-linecap:round; stroke-linejoin:round; stroke-width:8; stroke-opacity:1; fill:none" points="237.35,248.629 384.937,248.629 "/>
<path clip-path="url(#clip710)" d="M409.535 231.349 L415.831 231.349 L431.155 260.261 L431.155 231.349 L435.692 231.349 L435.692 265.909 L429.396 265.909 L414.072 236.997 L414.072 265.909 L409.535 265.909 L409.535 231.349 Z" fill="#000000" fill-rule="nonzero" fill-opacity="1" /><path clip-path="url(#clip710)" d="M455.044 229.937 Q451.942 235.261 450.437 240.469 Q448.933 245.677 448.933 251.024 Q448.933 256.372 450.437 261.626 Q451.965 266.858 455.044 272.159 L451.34 272.159 Q447.868 266.719 446.132 261.464 Q444.419 256.21 444.419 251.024 Q444.419 245.862 446.132 240.631 Q447.845 235.4 451.34 229.937 L455.044 229.937 Z" fill="#000000" fill-rule="nonzero" fill-opacity="1" /><path clip-path="url(#clip710)" d="M467.52 232.622 L467.52 239.983 L476.293 239.983 L476.293 243.293 L467.52 243.293 L467.52 257.367 Q467.52 260.538 468.377 261.441 Q469.256 262.344 471.918 262.344 L476.293 262.344 L476.293 265.909 L471.918 265.909 Q466.988 265.909 465.113 264.08 Q463.238 262.228 463.238 257.367 L463.238 243.293 L460.113 243.293 L460.113 239.983 L463.238 239.983 L463.238 232.622 L467.52 232.622 Z" fill="#000000" fill-rule="nonzero" fill-opacity="1" /><path clip-path="url(#clip710)" d="M481.224 229.937 L484.928 229.937 Q488.4 235.4 490.113 240.631 Q491.849 245.862 491.849 251.024 Q491.849 256.21 490.113 261.464 Q488.4 266.719 484.928 272.159 L481.224 272.159 Q484.303 266.858 485.807 261.626 Q487.335 256.372 487.335 251.024 Q487.335 245.677 485.807 240.469 Q484.303 235.261 481.224 229.937 Z" fill="#000000" fill-rule="nonzero" fill-opacity="1" /><polyline clip-path="url(#clip710)" style="stroke:#c271d2; stroke-linecap:round; stroke-linejoin:round; stroke-width:8; stroke-opacity:1; fill:none" points="237.35,300.469 384.937,300.469 "/>
<path clip-path="url(#clip710)" d="M414.21 287.031 L414.21 313.906 L419.859 313.906 Q427.011 313.906 430.321 310.665 Q433.655 307.425 433.655 300.434 Q433.655 293.489 430.321 290.272 Q427.011 287.031 419.859 287.031 L414.21 287.031 M409.535 283.189 L419.141 283.189 Q429.187 283.189 433.886 287.378 Q438.585 291.545 438.585 300.434 Q438.585 309.369 433.863 313.559 Q429.141 317.749 419.141 317.749 L409.535 317.749 L409.535 283.189 Z" fill="#000000" fill-rule="nonzero" fill-opacity="1" /><path clip-path="url(#clip710)" d="M456.085 281.777 Q452.983 287.101 451.479 292.309 Q449.974 297.517 449.974 302.864 Q449.974 308.212 451.479 313.466 Q453.007 318.698 456.085 323.999 L452.382 323.999 Q448.909 318.559 447.173 313.304 Q445.46 308.05 445.46 302.864 Q445.46 297.702 447.173 292.471 Q448.886 287.24 452.382 281.777 L456.085 281.777 Z" fill="#000000" fill-rule="nonzero" fill-opacity="1" /><path clip-path="url(#clip710)" d="M468.562 284.462 L468.562 291.823 L477.335 291.823 L477.335 295.133 L468.562 295.133 L468.562 309.207 Q468.562 312.378 469.419 313.281 Q470.298 314.184 472.96 314.184 L477.335 314.184 L477.335 317.749 L472.96 317.749 Q468.03 317.749 466.155 315.92 Q464.28 314.068 464.28 309.207 L464.28 295.133 L461.155 295.133 L461.155 291.823 L464.28 291.823 L464.28 284.462 L468.562 284.462 Z" fill="#000000" fill-rule="nonzero" fill-opacity="1" /><path clip-path="url(#clip710)" d="M482.266 281.777 L485.969 281.777 Q489.442 287.24 491.154 292.471 Q492.891 297.702 492.891 302.864 Q492.891 308.05 491.154 313.304 Q489.442 318.559 485.969 323.999 L482.266 323.999 Q485.344 318.698 486.849 313.466 Q488.377 308.212 488.377 302.864 Q488.377 297.517 486.849 292.309 Q485.344 287.101 482.266 281.777 Z" fill="#000000" fill-rule="nonzero" fill-opacity="1" /></svg>
