<?xml version="1.0" encoding="utf-8"?>
<svg xmlns="http://www.w3.org/2000/svg" xmlns:xlink="http://www.w3.org/1999/xlink" width="600" height="400" viewBox="0 0 2400 1600">
<defs>
  <clipPath id="clip750">
    <rect x="0" y="0" width="2400" height="1600"/>
  </clipPath>
</defs>
<path clip-path="url(#clip750)" d="M0 1600 L2400 1600 L2400 0 L0 0  Z" fill="#ffffff" fill-rule="evenodd" fill-opacity="1"/>
<defs>
  <clipPath id="clip751">
    <rect x="480" y="0" width="1681" height="1600"/>
  </clipPath>
</defs>
<path clip-path="url(#clip750)" d="M138.959 1423.18 L2352.76 1423.18 L2352.76 47.2441 L138.959 47.2441  Z" fill="#ffffff" fill-rule="evenodd" fill-opacity="1"/>
<defs>
  <clipPath id="clip752">
    <rect x="138" y="47" width="2215" height="1377"/>
  </clipPath>
</defs>
<polyline clip-path="url(#clip752)" style="stroke:#000000; stroke-linecap:round; stroke-linejoin:round; stroke-width:2; stroke-opacity:0.1; fill:none" points="138.959,1423.18 138.959,47.2441 "/>
<polyline clip-path="url(#clip752)" style="stroke:#000000; stroke-linecap:round; stroke-linejoin:round; stroke-width:2; stroke-opacity:0.1; fill:none" points="581.719,1423.18 581.719,47.2441 "/>
<polyline clip-path="url(#clip752)" style="stroke:#000000; stroke-linecap:round; stroke-linejoin:round; stroke-width:2; stroke-opacity:0.1; fill:none" points="1024.48,1423.18 1024.48,47.2441 "/>
<polyline clip-path="url(#clip752)" style="stroke:#000000; stroke-linecap:round; stroke-linejoin:round; stroke-width:2; stroke-opacity:0.1; fill:none" points="1467.24,1423.18 1467.24,47.2441 "/>
<polyline clip-path="url(#clip752)" style="stroke:#000000; stroke-linecap:round; stroke-linejoin:round; stroke-width:2; stroke-opacity:0.1; fill:none" points="1910,1423.18 1910,47.2441 "/>
<polyline clip-path="url(#clip752)" style="stroke:#000000; stroke-linecap:round; stroke-linejoin:round; stroke-width:2; stroke-opacity:0.1; fill:none" points="2352.76,1423.18 2352.76,47.2441 "/>
<polyline clip-path="url(#clip750)" style="stroke:#000000; stroke-linecap:round; stroke-linejoin:round; stroke-width:4; stroke-opacity:1; fill:none" points="138.959,1423.18 2352.76,1423.18 "/>
<polyline clip-path="url(#clip750)" style="stroke:#000000; stroke-linecap:round; stroke-linejoin:round; stroke-width:4; stroke-opacity:1; fill:none" points="138.959,1423.18 138.959,1404.28 "/>
<polyline clip-path="url(#clip750)" style="stroke:#000000; stroke-linecap:round; stroke-linejoin:round; stroke-width:4; stroke-opacity:1; fill:none" points="581.719,1423.18 581.719,1404.28 "/>
<polyline clip-path="url(#clip750)" style="stroke:#000000; stroke-linecap:round; stroke-linejoin:round; stroke-width:4; stroke-opacity:1; fill:none" points="1024.48,1423.18 1024.48,1404.28 "/>
<polyline clip-path="url(#clip750)" style="stroke:#000000; stroke-linecap:round; stroke-linejoin:round; stroke-width:4; stroke-opacity:1; fill:none" points="1467.24,1423.18 1467.24,1404.28 "/>
<polyline clip-path="url(#clip750)" style="stroke:#000000; stroke-linecap:round; stroke-linejoin:round; stroke-width:4; stroke-opacity:1; fill:none" points="1910,1423.18 1910,1404.28 "/>
<polyline clip-path="url(#clip750)" style="stroke:#000000; stroke-linecap:round; stroke-linejoin:round; stroke-width:4; stroke-opacity:1; fill:none" points="2352.76,1423.18 2352.76,1404.28 "/>
<path clip-path="url(#clip750)" d="M138.959 1454.1 Q135.348 1454.1 133.52 1457.66 Q131.714 1461.2 131.714 1468.33 Q131.714 1475.44 133.52 1479.01 Q135.348 1482.55 138.959 1482.55 Q142.594 1482.55 144.399 1479.01 Q146.228 1475.44 146.228 1468.33 Q146.228 1461.2 144.399 1457.66 Q142.594 1454.1 138.959 1454.1 M138.959 1450.39 Q144.77 1450.39 147.825 1455 Q150.904 1459.58 150.904 1468.33 Q150.904 1477.06 147.825 1481.67 Q144.77 1486.25 138.959 1486.25 Q133.149 1486.25 130.071 1481.67 Q127.015 1477.06 127.015 1468.33 Q127.015 1459.58 130.071 1455 Q133.149 1450.39 138.959 1450.39 Z" fill="#000000" fill-rule="nonzero" fill-opacity="1" /><path clip-path="url(#clip750)" d="M576.372 1481.64 L592.691 1481.64 L592.691 1485.58 L570.747 1485.58 L570.747 1481.64 Q573.409 1478.89 577.992 1474.26 Q582.598 1469.61 583.779 1468.27 Q586.024 1465.74 586.904 1464.01 Q587.807 1462.25 587.807 1460.56 Q587.807 1457.8 585.862 1456.07 Q583.941 1454.33 580.839 1454.33 Q578.64 1454.33 576.186 1455.09 Q573.756 1455.86 570.978 1457.41 L570.978 1452.69 Q573.802 1451.55 576.256 1450.97 Q578.709 1450.39 580.747 1450.39 Q586.117 1450.39 589.311 1453.08 Q592.506 1455.77 592.506 1460.26 Q592.506 1462.39 591.696 1464.31 Q590.908 1466.2 588.802 1468.8 Q588.223 1469.47 585.121 1472.69 Q582.02 1475.88 576.372 1481.64 Z" fill="#000000" fill-rule="nonzero" fill-opacity="1" /><path clip-path="url(#clip750)" d="M1027.49 1455.09 L1015.68 1473.54 L1027.49 1473.54 L1027.49 1455.09 M1026.26 1451.02 L1032.14 1451.02 L1032.14 1473.54 L1037.07 1473.54 L1037.07 1477.43 L1032.14 1477.43 L1032.14 1485.58 L1027.49 1485.58 L1027.49 1477.43 L1011.89 1477.43 L1011.89 1472.92 L1026.26 1451.02 Z" fill="#000000" fill-rule="nonzero" fill-opacity="1" /><path clip-path="url(#clip750)" d="M1467.64 1466.44 Q1464.49 1466.44 1462.64 1468.59 Q1460.81 1470.74 1460.81 1474.49 Q1460.81 1478.22 1462.64 1480.39 Q1464.49 1482.55 1467.64 1482.55 Q1470.79 1482.55 1472.62 1480.39 Q1474.47 1478.22 1474.47 1474.49 Q1474.47 1470.74 1472.62 1468.59 Q1470.79 1466.44 1467.64 1466.44 M1476.92 1451.78 L1476.92 1456.04 Q1475.17 1455.21 1473.36 1454.77 Q1471.58 1454.33 1469.82 1454.33 Q1465.19 1454.33 1462.74 1457.45 Q1460.3 1460.58 1459.96 1466.9 Q1461.32 1464.89 1463.38 1463.82 Q1465.44 1462.73 1467.92 1462.73 Q1473.13 1462.73 1476.14 1465.9 Q1479.17 1469.05 1479.17 1474.49 Q1479.17 1479.82 1476.02 1483.03 Q1472.87 1486.25 1467.64 1486.25 Q1461.65 1486.25 1458.48 1481.67 Q1455.3 1477.06 1455.3 1468.33 Q1455.3 1460.14 1459.19 1455.28 Q1463.08 1450.39 1469.63 1450.39 Q1471.39 1450.39 1473.17 1450.74 Q1474.98 1451.09 1476.92 1451.78 Z" fill="#000000" fill-rule="nonzero" fill-opacity="1" /><path clip-path="url(#clip750)" d="M1910 1469.17 Q1906.66 1469.17 1904.74 1470.95 Q1902.84 1472.73 1902.84 1475.86 Q1902.84 1478.98 1904.74 1480.77 Q1906.66 1482.55 1910 1482.55 Q1913.33 1482.55 1915.25 1480.77 Q1917.17 1478.96 1917.17 1475.86 Q1917.17 1472.73 1915.25 1470.95 Q1913.35 1469.17 1910 1469.17 M1905.32 1467.18 Q1902.31 1466.44 1900.62 1464.38 Q1898.96 1462.32 1898.96 1459.35 Q1898.96 1455.21 1901.89 1452.8 Q1904.86 1450.39 1910 1450.39 Q1915.16 1450.39 1918.1 1452.8 Q1921.04 1455.21 1921.04 1459.35 Q1921.04 1462.32 1919.35 1464.38 Q1917.68 1466.44 1914.7 1467.18 Q1918.08 1467.96 1919.95 1470.26 Q1921.85 1472.55 1921.85 1475.86 Q1921.85 1480.88 1918.77 1483.57 Q1915.71 1486.25 1910 1486.25 Q1904.28 1486.25 1901.2 1483.57 Q1898.14 1480.88 1898.14 1475.86 Q1898.14 1472.55 1900.04 1470.26 Q1901.94 1467.96 1905.32 1467.18 M1903.61 1459.79 Q1903.61 1462.48 1905.27 1463.98 Q1906.96 1465.49 1910 1465.49 Q1913.01 1465.49 1914.7 1463.98 Q1916.41 1462.48 1916.41 1459.79 Q1916.41 1457.11 1914.7 1455.6 Q1913.01 1454.1 1910 1454.1 Q1906.96 1454.1 1905.27 1455.6 Q1903.61 1457.11 1903.61 1459.79 Z" fill="#000000" fill-rule="nonzero" fill-opacity="1" /><path clip-path="url(#clip750)" d="M2327.44 1481.64 L2335.08 1481.64 L2335.08 1455.28 L2326.77 1456.95 L2326.77 1452.69 L2335.04 1451.02 L2339.71 1451.02 L2339.71 1481.64 L2347.35 1481.64 L2347.35 1485.58 L2327.44 1485.58 L2327.44 1481.64 Z" fill="#000000" fill-rule="nonzero" fill-opacity="1" /><path clip-path="url(#clip750)" d="M2366.8 1454.1 Q2363.18 1454.1 2361.36 1457.66 Q2359.55 1461.2 2359.55 1468.33 Q2359.55 1475.44 2361.36 1479.01 Q2363.18 1482.55 2366.8 1482.55 Q2370.43 1482.55 2372.23 1479.01 Q2374.06 1475.44 2374.06 1468.33 Q2374.06 1461.2 2372.23 1457.66 Q2370.43 1454.1 2366.8 1454.1 M2366.8 1450.39 Q2372.61 1450.39 2375.66 1455 Q2378.74 1459.58 2378.74 1468.33 Q2378.74 1477.06 2375.66 1481.67 Q2372.61 1486.25 2366.8 1486.25 Q2360.99 1486.25 2357.91 1481.67 Q2354.85 1477.06 2354.85 1468.33 Q2354.85 1459.58 2357.91 1455 Q2360.99 1450.39 2366.8 1450.39 Z" fill="#000000" fill-rule="nonzero" fill-opacity="1" /><path clip-path="url(#clip750)" d="M1244.92 1522.27 L1244.92 1532.4 L1256.98 1532.4 L1256.98 1536.95 L1244.92 1536.95 L1244.92 1556.3 Q1244.92 1560.66 1246.1 1561.9 Q1247.31 1563.14 1250.97 1563.14 L1256.98 1563.14 L1256.98 1568.04 L1250.97 1568.04 Q1244.19 1568.04 1241.61 1565.53 Q1239.03 1562.98 1239.03 1556.3 L1239.03 1536.95 L1234.73 1536.95 L1234.73 1532.4 L1239.03 1532.4 L1239.03 1522.27 L1244.92 1522.27 Z" fill="#000000" fill-rule="nonzero" fill-opacity="1" /><polyline clip-path="url(#clip752)" style="stroke:#000000; stroke-linecap:round; stroke-linejoin:round; stroke-width:2; stroke-opacity:0.1; fill:none" points="138.959,1384.24 2352.76,1384.24 "/>
<polyline clip-path="url(#clip752)" style="stroke:#000000; stroke-linecap:round; stroke-linejoin:round; stroke-width:2; stroke-opacity:0.1; fill:none" points="138.959,1042.65 2352.76,1042.65 "/>
<polyline clip-path="url(#clip752)" style="stroke:#000000; stroke-linecap:round; stroke-linejoin:round; stroke-width:2; stroke-opacity:0.1; fill:none" points="138.959,701.053 2352.76,701.053 "/>
<polyline clip-path="url(#clip752)" style="stroke:#000000; stroke-linecap:round; stroke-linejoin:round; stroke-width:2; stroke-opacity:0.1; fill:none" points="138.959,359.46 2352.76,359.46 "/>
<polyline clip-path="url(#clip750)" style="stroke:#000000; stroke-linecap:round; stroke-linejoin:round; stroke-width:4; stroke-opacity:1; fill:none" points="138.959,1423.18 138.959,47.2441 "/>
<polyline clip-path="url(#clip750)" style="stroke:#000000; stroke-linecap:round; stroke-linejoin:round; stroke-width:4; stroke-opacity:1; fill:none" points="138.959,1384.24 157.857,1384.24 "/>
<polyline clip-path="url(#clip750)" style="stroke:#000000; stroke-linecap:round; stroke-linejoin:round; stroke-width:4; stroke-opacity:1; fill:none" points="138.959,1042.65 157.857,1042.65 "/>
<polyline clip-path="url(#clip750)" style="stroke:#000000; stroke-linecap:round; stroke-linejoin:round; stroke-width:4; stroke-opacity:1; fill:none" points="138.959,701.053 157.857,701.053 "/>
<polyline clip-path="url(#clip750)" style="stroke:#000000; stroke-linecap:round; stroke-linejoin:round; stroke-width:4; stroke-opacity:1; fill:none" points="138.959,359.46 157.857,359.46 "/>
<path clip-path="url(#clip750)" d="M91.0151 1370.04 Q87.404 1370.04 85.5753 1373.6 Q83.7697 1377.14 83.7697 1384.27 Q83.7697 1391.38 85.5753 1394.94 Q87.404 1398.49 91.0151 1398.49 Q94.6493 1398.49 96.4548 1394.94 Q98.2835 1391.38 98.2835 1384.27 Q98.2835 1377.14 96.4548 1373.6 Q94.6493 1370.04 91.0151 1370.04 M91.0151 1366.33 Q96.8252 1366.33 99.8808 1370.94 Q102.959 1375.52 102.959 1384.27 Q102.959 1393 99.8808 1397.61 Q96.8252 1402.19 91.0151 1402.19 Q85.2049 1402.19 82.1262 1397.61 Q79.0707 1393 79.0707 1384.27 Q79.0707 1375.52 82.1262 1370.94 Q85.2049 1366.33 91.0151 1366.33 Z" fill="#000000" fill-rule="nonzero" fill-opacity="1" /><path clip-path="url(#clip750)" d="M82.0568 1025.37 L100.413 1025.37 L100.413 1029.3 L86.3392 1029.3 L86.3392 1037.77 Q87.3577 1037.43 88.3762 1037.26 Q89.3947 1037.08 90.4132 1037.08 Q96.2002 1037.08 99.5798 1040.25 Q102.959 1043.42 102.959 1048.84 Q102.959 1054.42 99.4872 1057.52 Q96.015 1060.6 89.6956 1060.6 Q87.5197 1060.6 85.2512 1060.23 Q83.0058 1059.86 80.5984 1059.12 L80.5984 1054.42 Q82.6818 1055.55 84.904 1056.11 Q87.1262 1056.66 89.603 1056.66 Q93.6076 1056.66 95.9456 1054.56 Q98.2835 1052.45 98.2835 1048.84 Q98.2835 1045.23 95.9456 1043.12 Q93.6076 1041.01 89.603 1041.01 Q87.728 1041.01 85.8531 1041.43 Q84.0012 1041.85 82.0568 1042.73 L82.0568 1025.37 Z" fill="#000000" fill-rule="nonzero" fill-opacity="1" /><path clip-path="url(#clip750)" d="M51.6634 714.398 L59.3023 714.398 L59.3023 688.032 L50.9921 689.699 L50.9921 685.439 L59.256 683.773 L63.9319 683.773 L63.9319 714.398 L71.5707 714.398 L71.5707 718.333 L51.6634 718.333 L51.6634 714.398 Z" fill="#000000" fill-rule="nonzero" fill-opacity="1" /><path clip-path="url(#clip750)" d="M91.0151 686.851 Q87.404 686.851 85.5753 690.416 Q83.7697 693.958 83.7697 701.087 Q83.7697 708.194 85.5753 711.759 Q87.404 715.3 91.0151 715.3 Q94.6493 715.3 96.4548 711.759 Q98.2835 708.194 98.2835 701.087 Q98.2835 693.958 96.4548 690.416 Q94.6493 686.851 91.0151 686.851 M91.0151 683.148 Q96.8252 683.148 99.8808 687.754 Q102.959 692.337 102.959 701.087 Q102.959 709.814 99.8808 714.421 Q96.8252 719.004 91.0151 719.004 Q85.2049 719.004 82.1262 714.421 Q79.0707 709.814 79.0707 701.087 Q79.0707 692.337 82.1262 687.754 Q85.2049 683.148 91.0151 683.148 Z" fill="#000000" fill-rule="nonzero" fill-opacity="1" /><path clip-path="url(#clip750)" d="M52.6588 372.805 L60.2976 372.805 L60.2976 346.439 L51.9875 348.106 L51.9875 343.847 L60.2513 342.18 L64.9272 342.18 L64.9272 372.805 L72.5661 372.805 L72.5661 376.74 L52.6588 376.74 L52.6588 372.805 Z" fill="#000000" fill-rule="nonzero" fill-opacity="1" /><path clip-path="url(#clip750)" d="M82.0568 342.18 L100.413 342.18 L100.413 346.115 L86.3392 346.115 L86.3392 354.587 Q87.3577 354.24 88.3762 354.078 Q89.3947 353.893 90.4132 353.893 Q96.2002 353.893 99.5798 357.064 Q102.959 360.235 102.959 365.652 Q102.959 371.231 99.4872 374.333 Q96.015 377.411 89.6956 377.411 Q87.5197 377.411 85.2512 377.041 Q83.0058 376.67 80.5984 375.93 L80.5984 371.231 Q82.6818 372.365 84.904 372.92 Q87.1262 373.476 89.603 373.476 Q93.6076 373.476 95.9456 371.37 Q98.2835 369.263 98.2835 365.652 Q98.2835 362.041 95.9456 359.934 Q93.6076 357.828 89.603 357.828 Q87.728 357.828 85.8531 358.245 Q84.0012 358.661 82.0568 359.541 L82.0568 342.18 Z" fill="#000000" fill-rule="nonzero" fill-opacity="1" /><polyline clip-path="url(#clip752)" style="stroke:#009af9; stroke-linecap:round; stroke-linejoin:round; stroke-width:8; stroke-opacity:1; fill:none" points="138.959,1384.24 140.014,1384.24 141.069,1384.24 142.124,1384.24 143.178,1384.24 144.233,1384.24 145.288,1384.24 146.342,1384.24 147.397,1315.92 148.452,1315.92 149.506,1315.92 150.561,1315.92 151.616,1315.92 152.67,1315.92 153.725,1315.92 154.78,1315.92 155.834,1315.92 156.889,1315.92 157.944,1315.92 158.999,1315.92 160.053,1315.92 161.108,1315.92 162.163,1315.92 163.217,1247.6 164.272,1247.6 165.327,1247.6 166.381,1247.6 167.436,1247.6 168.491,1247.6 169.545,1247.6 170.6,1247.6 171.655,1247.6 172.71,1247.6 173.764,1247.6 174.819,1247.6 175.874,1247.6 176.928,1247.6 177.983,1247.6 179.038,1247.6 180.092,1247.6 181.147,1247.6 182.202,1247.6 183.256,1247.6 184.311,1247.6 185.366,1247.6 186.421,1247.6 187.475,1247.6 188.53,1247.6 189.585,1247.6 190.639,1247.6 191.694,1247.6 192.749,1247.6 193.803,1247.6 194.858,1247.6 195.913,1247.6 196.967,1247.6 198.022,1247.6 199.077,1247.6 200.132,1247.6 201.186,1247.6 202.241,1247.6 203.296,1247.6 204.35,1247.6 205.405,1247.6 206.46,1247.6 207.514,1247.6 208.569,1247.6 209.624,1247.6 210.678,1247.6 211.733,1247.6 212.788,1247.6 213.843,1247.6 214.897,1247.6 215.952,1247.6 217.007,1247.6 218.061,1247.6 219.116,1247.6 220.171,1247.6 221.225,1247.6 222.28,1247.6 223.335,1247.6 224.389,1247.6 225.444,1247.6 226.499,1247.6 227.553,1247.6 228.608,1247.6 229.663,1247.6 230.718,1247.6 231.772,1247.6 232.827,1247.6 233.882,1247.6 234.936,1247.6 235.991,1247.6 237.046,1247.6 238.1,1247.6 239.155,1247.6 240.21,1247.6 241.264,1247.6 242.319,1247.6 243.374,1247.6 244.429,1247.6 245.483,1247.6 246.538,1247.6 247.593,1247.6 248.647,1247.6 249.702,1247.6 250.757,1247.6 251.811,1247.6 252.866,1247.6 253.921,1247.6 254.975,1247.6 256.03,1247.6 257.085,1247.6 258.14,1247.6 259.194,1247.6 260.249,1247.6 261.304,1247.6 262.358,1247.6 263.413,1247.6 264.468,1247.6 265.522,1247.6 266.577,1247.6 267.632,1247.6 268.686,1247.6 269.741,1247.6 270.796,1247.6 271.851,1247.6 272.905,1247.6 273.96,1247.6 275.015,1247.6 276.069,1247.6 277.124,1247.6 278.179,1247.6 279.233,1247.6 280.288,1247.6 281.343,1247.6 282.397,1247.6 283.452,1247.6 284.507,1247.6 285.561,1247.6 286.616,1247.6 287.671,1247.6 288.726,1247.6 289.78,1247.6 290.835,1247.6 291.89,1247.6 292.944,1247.6 293.999,1247.6 295.054,1247.6 296.108,1247.6 297.163,1247.6 298.218,1247.6 299.272,1247.6 300.327,1247.6 301.382,1247.6 302.437,1247.6 303.491,1247.6 304.546,1247.6 305.601,1247.6 306.655,1247.6 307.71,1247.6 308.765,1247.6 309.819,1179.28 310.874,1179.28 311.929,1179.28 312.983,1179.28 314.038,1179.28 315.093,1179.28 316.148,1179.28 317.202,1179.28 318.257,1179.28 319.312,1179.28 320.366,1179.28 321.421,1179.28 322.476,1179.28 323.53,1179.28 324.585,1179.28 325.64,1179.28 326.694,1179.28 327.749,1179.28 328.804,1179.28 329.859,1179.28 330.913,1179.28 331.968,1179.28 333.023,1179.28 334.077,1179.28 335.132,1179.28 336.187,1179.28 337.241,1179.28 338.296,1179.28 339.351,1179.28 340.405,1179.28 341.46,1179.28 342.515,1179.28 343.569,1179.28 344.624,1179.28 345.679,1179.28 346.734,1179.28 347.788,1110.96 348.843,1110.96 349.898,1110.96 350.952,1110.96 352.007,1110.96 353.062,1110.96 354.116,1110.96 355.171,1110.96 356.226,1110.96 357.28,1110.96 358.335,1110.96 359.39,1110.96 360.445,1110.96 361.499,1110.96 362.554,1110.96 363.609,1110.96 364.663,1110.96 365.718,1110.96 366.773,1110.96 367.827,1110.96 368.882,1110.96 369.937,1110.96 370.991,1110.96 372.046,1110.96 373.101,1110.96 374.156,1110.96 375.21,1110.96 376.265,1110.96 377.32,1110.96 378.374,1110.96 379.429,1110.96 380.484,1110.96 381.538,1110.96 382.593,1110.96 383.648,1110.96 384.702,1110.96 385.757,1110.96 386.812,1110.96 387.867,1110.96 388.921,1110.96 389.976,1110.96 391.031,1110.96 392.085,1110.96 393.14,1110.96 394.195,1110.96 395.249,1110.96 396.304,1110.96 397.359,1110.96 398.413,1110.96 399.468,1110.96 400.523,1110.96 401.578,1110.96 402.632,1110.96 403.687,1110.96 404.742,1110.96 405.796,1110.96 406.851,1110.96 407.906,1110.96 408.96,1110.96 410.015,1110.96 411.07,1110.96 412.124,1110.96 413.179,1110.96 414.234,1110.96 415.288,1110.96 416.343,1110.96 417.398,1110.96 418.453,1110.96 419.507,1110.96 420.562,1110.96 421.617,1110.96 422.671,1110.96 423.726,1110.96 424.781,1110.96 425.835,1110.96 426.89,1110.96 427.945,1110.96 428.999,1110.96 430.054,1110.96 431.109,1110.96 432.164,1110.96 433.218,1110.96 434.273,1110.96 435.328,1110.96 436.382,1110.96 437.437,1110.96 438.492,1110.96 439.546,1110.96 440.601,1110.96 441.656,1110.96 442.71,1110.96 443.765,1110.96 444.82,1110.96 445.875,1110.96 446.929,1110.96 447.984,1110.96 449.039,1110.96 450.093,1110.96 451.148,1110.96 452.203,1110.96 453.257,1110.96 454.312,1110.96 455.367,1110.96 456.421,1110.96 457.476,1110.96 458.531,1110.96 459.586,1110.96 460.64,1110.96 461.695,1110.96 462.75,1110.96 463.804,1110.96 464.859,1110.96 465.914,1110.96 466.968,1110.96 468.023,1110.96 469.078,1110.96 470.132,1110.96 471.187,1110.96 472.242,1110.96 473.296,1110.96 474.351,1110.96 475.406,1110.96 476.461,1110.96 477.515,1110.96 478.57,1110.96 479.625,1110.96 480.679,1110.96 481.734,1110.96 482.789,1110.96 483.843,1110.96 484.898,1110.96 485.953,1110.96 487.007,1110.96 488.062,1110.96 489.117,1110.96 490.172,1110.96 491.226,1110.96 492.281,1110.96 493.336,1110.96 494.39,1110.96 495.445,1110.96 496.5,1110.96 497.554,1110.96 498.609,1110.96 499.664,1110.96 500.718,1110.96 501.773,1110.96 502.828,1110.96 503.883,1110.96 504.937,1110.96 505.992,1110.96 507.047,1110.96 508.101,1110.96 509.156,1042.65 510.211,1042.65 511.265,1042.65 512.32,1042.65 513.375,1042.65 514.429,1042.65 515.484,1042.65 516.539,1042.65 517.594,1042.65 518.648,1042.65 519.703,1042.65 520.758,1042.65 521.812,1042.65 522.867,1042.65 523.922,1042.65 524.976,1042.65 526.031,1042.65 527.086,1042.65 528.14,1042.65 529.195,1042.65 530.25,1042.65 531.305,1042.65 532.359,1042.65 533.414,1042.65 534.469,1042.65 535.523,1042.65 536.578,1042.65 537.633,1042.65 538.687,1042.65 539.742,1042.65 540.797,1042.65 541.851,1042.65 542.906,1042.65 543.961,1042.65 545.015,1042.65 546.07,1042.65 547.125,1042.65 548.18,1042.65 549.234,1042.65 550.289,1042.65 551.344,1042.65 552.398,1042.65 553.453,1042.65 554.508,1042.65 555.562,1042.65 556.617,1042.65 557.672,1042.65 558.726,1042.65 559.781,1042.65 560.836,1042.65 561.891,1042.65 562.945,1042.65 564,1042.65 565.055,1042.65 566.109,1042.65 567.164,1042.65 568.219,1042.65 569.273,1042.65 570.328,1042.65 571.383,1042.65 572.437,1042.65 573.492,1042.65 574.547,1042.65 575.602,1042.65 576.656,1042.65 577.711,1042.65 578.766,1042.65 579.82,1042.65 580.875,1042.65 581.93,1042.65 582.984,1042.65 584.039,1042.65 585.094,1042.65 586.148,1042.65 587.203,1042.65 588.258,1042.65 589.313,1042.65 590.367,1042.65 591.422,1042.65 592.477,1042.65 593.531,1042.65 594.586,1042.65 595.641,1042.65 596.695,1042.65 597.75,1042.65 598.805,1042.65 599.859,1042.65 600.914,1042.65 601.969,1042.65 603.023,1042.65 604.078,1042.65 605.133,1042.65 606.188,1042.65 607.242,1042.65 608.297,1042.65 609.352,1042.65 610.406,1042.65 611.461,1042.65 612.516,1042.65 613.57,1042.65 614.625,1042.65 615.68,1042.65 616.734,1042.65 617.789,1042.65 618.844,1042.65 619.899,1042.65 620.953,1042.65 622.008,1042.65 623.063,1042.65 624.117,1042.65 625.172,1042.65 626.227,1042.65 627.281,1042.65 628.336,1042.65 629.391,1042.65 630.445,1042.65 631.5,1042.65 632.555,1042.65 633.61,1042.65 634.664,1042.65 635.719,1042.65 636.774,1042.65 637.828,1042.65 638.883,1042.65 639.938,1042.65 640.992,1042.65 642.047,1042.65 643.102,1042.65 644.156,1042.65 645.211,1042.65 646.266,1042.65 647.321,1042.65 648.375,1042.65 649.43,1042.65 650.485,1042.65 651.539,1042.65 652.594,1042.65 653.649,1042.65 654.703,1042.65 655.758,1042.65 656.813,1042.65 657.867,1042.65 658.922,1042.65 659.977,1042.65 661.031,1042.65 662.086,1042.65 663.141,1042.65 664.196,1042.65 665.25,1042.65 666.305,1042.65 667.36,1042.65 668.414,1042.65 669.469,1042.65 670.524,1042.65 671.578,1042.65 672.633,1042.65 673.688,1042.65 674.742,1042.65 675.797,1042.65 676.852,1042.65 677.907,1042.65 678.961,974.327 680.016,974.327 681.071,974.327 682.125,974.327 683.18,974.327 684.235,974.327 685.289,974.327 686.344,974.327 687.399,974.327 688.453,974.327 689.508,974.327 690.563,974.327 691.618,974.327 692.672,974.327 693.727,974.327 694.782,974.327 695.836,974.327 696.891,974.327 697.946,974.327 699,974.327 700.055,974.327 701.11,974.327 702.164,974.327 703.219,974.327 704.274,974.327 705.329,974.327 706.383,974.327 707.438,974.327 708.493,974.327 709.547,974.327 710.602,906.008 711.657,906.008 712.711,906.008 713.766,906.008 714.821,906.008 715.875,906.008 716.93,906.008 717.985,906.008 719.04,906.008 720.094,906.008 721.149,906.008 722.204,906.008 723.258,906.008 724.313,906.008 725.368,906.008 726.422,906.008 727.477,906.008 728.532,906.008 729.586,906.008 730.641,906.008 731.696,906.008 732.75,906.008 733.805,906.008 734.86,906.008 735.915,906.008 736.969,906.008 738.024,906.008 739.079,906.008 740.133,906.008 741.188,906.008 742.243,906.008 743.297,906.008 744.352,906.008 745.407,906.008 746.461,906.008 747.516,906.008 748.571,906.008 749.626,906.008 750.68,906.008 751.735,906.008 752.79,906.008 753.844,906.008 754.899,906.008 755.954,906.008 757.008,906.008 758.063,906.008 759.118,906.008 760.172,906.008 761.227,906.008 762.282,906.008 763.337,906.008 764.391,906.008 765.446,906.008 766.501,906.008 767.555,906.008 768.61,906.008 769.665,906.008 770.719,906.008 771.774,906.008 772.829,906.008 773.883,906.008 774.938,906.008 775.993,906.008 777.048,906.008 778.102,906.008 779.157,906.008 780.212,906.008 781.266,906.008 782.321,906.008 783.376,906.008 784.43,906.008 785.485,906.008 786.54,906.008 787.594,906.008 788.649,906.008 789.704,906.008 790.758,906.008 791.813,906.008 792.868,906.008 793.923,906.008 794.977,906.008 796.032,906.008 797.087,906.008 798.141,906.008 799.196,906.008 800.251,906.008 801.305,906.008 802.36,906.008 803.415,906.008 804.469,906.008 805.524,906.008 806.579,906.008 807.634,906.008 808.688,906.008 809.743,906.008 810.798,837.69 811.852,837.69 812.907,837.69 813.962,837.69 815.016,837.69 816.071,837.69 817.126,837.69 818.18,837.69 819.235,837.69 820.29,837.69 821.345,837.69 822.399,837.69 823.454,837.69 824.509,837.69 825.563,837.69 826.618,837.69 827.673,837.69 828.727,837.69 829.782,837.69 830.837,837.69 831.891,837.69 832.946,837.69 834.001,837.69 835.056,837.69 836.11,837.69 837.165,837.69 838.22,837.69 839.274,837.69 840.329,837.69 841.384,837.69 842.438,837.69 843.493,837.69 844.548,837.69 845.602,837.69 846.657,837.69 847.712,837.69 848.767,837.69 849.821,837.69 850.876,837.69 851.931,837.69 852.985,837.69 854.04,837.69 855.095,837.69 856.149,837.69 857.204,837.69 858.259,837.69 859.313,837.69 860.368,837.69 861.423,837.69 862.477,837.69 863.532,837.69 864.587,837.69 865.642,837.69 866.696,837.69 867.751,837.69 868.806,837.69 869.86,837.69 870.915,837.69 871.97,837.69 873.024,837.69 874.079,837.69 875.134,837.69 876.188,837.69 877.243,837.69 878.298,837.69 879.353,837.69 880.407,837.69 881.462,837.69 882.517,837.69 883.571,837.69 884.626,837.69 885.681,837.69 886.735,837.69 887.79,837.69 888.845,837.69 889.899,837.69 890.954,837.69 892.009,837.69 893.064,837.69 894.118,837.69 895.173,837.69 896.228,837.69 897.282,837.69 898.337,837.69 899.392,837.69 900.446,837.69 901.501,837.69 902.556,837.69 903.61,837.69 904.665,837.69 905.72,837.69 906.775,837.69 907.829,837.69 908.884,837.69 909.939,837.69 910.993,837.69 912.048,837.69 913.103,837.69 914.157,837.69 915.212,837.69 916.267,837.69 917.321,837.69 918.376,837.69 919.431,837.69 920.485,837.69 921.54,837.69 922.595,837.69 923.65,837.69 924.704,837.69 925.759,837.69 926.814,837.69 927.868,837.69 928.923,837.69 929.978,837.69 931.032,837.69 932.087,837.69 933.142,837.69 934.196,837.69 935.251,837.69 936.306,837.69 937.361,837.69 938.415,837.69 939.47,837.69 940.525,837.69 941.579,837.69 942.634,837.69 943.689,837.69 944.743,837.69 945.798,837.69 946.853,837.69 947.907,837.69 948.962,837.69 950.017,837.69 951.072,837.69 952.126,837.69 953.181,837.69 954.236,837.69 955.29,837.69 956.345,837.69 957.4,837.69 958.454,837.69 959.509,837.69 960.564,837.69 961.618,837.69 962.673,837.69 963.728,837.69 964.783,837.69 965.837,837.69 966.892,837.69 967.947,837.69 969.001,837.69 970.056,837.69 971.111,837.69 972.165,837.69 973.22,837.69 974.275,837.69 975.329,837.69 976.384,837.69 977.439,837.69 978.493,837.69 979.548,837.69 980.603,837.69 981.658,837.69 982.712,837.69 983.767,837.69 984.822,837.69 985.876,837.69 986.931,837.69 987.986,837.69 989.04,837.69 990.095,837.69 991.15,837.69 992.204,769.371 993.259,769.371 994.314,769.371 995.369,769.371 996.423,769.371 997.478,769.371 998.533,769.371 999.587,769.371 1000.64,769.371 1001.7,769.371 1002.75,769.371 1003.81,769.371 1004.86,769.371 1005.92,769.371 1006.97,769.371 1008.02,769.371 1009.08,769.371 1010.13,769.371 1011.19,769.371 1012.24,769.371 1013.3,769.371 1014.35,769.371 1015.41,769.371 1016.46,769.371 1017.52,769.371 1018.57,769.371 1019.63,769.371 1020.68,769.371 1021.74,769.371 1022.79,769.371 1023.85,769.371 1024.9,769.371 1025.95,769.371 1027.01,769.371 1028.06,769.371 1029.12,769.371 1030.17,769.371 1031.23,769.371 1032.28,769.371 1033.34,769.371 1034.39,769.371 1035.45,769.371 1036.5,769.371 1037.56,769.371 1038.61,769.371 1039.67,769.371 1040.72,769.371 1041.77,769.371 1042.83,769.371 1043.88,769.371 1044.94,769.371 1045.99,769.371 1047.05,769.371 1048.1,769.371 1049.16,769.371 1050.21,769.371 1051.27,769.371 1052.32,769.371 1053.38,769.371 1054.43,769.371 1055.49,769.371 1056.54,769.371 1057.6,769.371 1058.65,769.371 1059.7,769.371 1060.76,769.371 1061.81,769.371 1062.87,769.371 1063.92,769.371 1064.98,769.371 1066.03,769.371 1067.09,769.371 1068.14,769.371 1069.2,769.371 1070.25,769.371 1071.31,769.371 1072.36,769.371 1073.42,769.371 1074.47,769.371 1075.53,769.371 1076.58,769.371 1077.63,769.371 1078.69,769.371 1079.74,769.371 1080.8,769.371 1081.85,769.371 1082.91,769.371 1083.96,769.371 1085.02,769.371 1086.07,769.371 1087.13,769.371 1088.18,769.371 1089.24,769.371 1090.29,769.371 1091.35,769.371 1092.4,769.371 1093.45,769.371 1094.51,769.371 1095.56,769.371 1096.62,769.371 1097.67,769.371 1098.73,769.371 1099.78,769.371 1100.84,769.371 1101.89,769.371 1102.95,769.371 1104,769.371 1105.06,769.371 1106.11,769.371 1107.17,769.371 1108.22,769.371 1109.28,769.371 1110.33,769.371 1111.38,769.371 1112.44,769.371 1113.49,769.371 1114.55,701.053 1115.6,701.053 1116.66,701.053 1117.71,701.053 1118.77,701.053 1119.82,701.053 1120.88,701.053 1121.93,701.053 1122.99,701.053 1124.04,701.053 1125.1,701.053 1126.15,701.053 1127.2,701.053 1128.26,701.053 1129.31,701.053 1130.37,701.053 1131.42,701.053 1132.48,701.053 1133.53,701.053 1134.59,701.053 1135.64,701.053 1136.7,701.053 1137.75,701.053 1138.81,701.053 1139.86,701.053 1140.92,701.053 1141.97,701.053 1143.03,701.053 1144.08,701.053 1145.13,701.053 1146.19,701.053 1147.24,701.053 1148.3,701.053 1149.35,701.053 1150.41,701.053 1151.46,701.053 1152.52,701.053 1153.57,701.053 1154.63,701.053 1155.68,701.053 1156.74,701.053 1157.79,701.053 1158.85,701.053 1159.9,701.053 1160.96,701.053 1162.01,701.053 1163.06,701.053 1164.12,701.053 1165.17,701.053 1166.23,701.053 1167.28,701.053 1168.34,701.053 1169.39,701.053 1170.45,701.053 1171.5,701.053 1172.56,701.053 1173.61,701.053 1174.67,701.053 1175.72,701.053 1176.78,701.053 1177.83,701.053 1178.88,701.053 1179.94,701.053 1180.99,701.053 1182.05,701.053 1183.1,701.053 1184.16,701.053 1185.21,701.053 1186.27,701.053 1187.32,701.053 1188.38,701.053 1189.43,701.053 1190.49,701.053 1191.54,701.053 1192.6,701.053 1193.65,701.053 1194.71,701.053 1195.76,701.053 1196.81,701.053 1197.87,701.053 1198.92,701.053 1199.98,701.053 1201.03,701.053 1202.09,701.053 1203.14,701.053 1204.2,701.053 1205.25,701.053 1206.31,701.053 1207.36,701.053 1208.42,701.053 1209.47,701.053 1210.53,701.053 1211.58,701.053 1212.63,701.053 1213.69,701.053 1214.74,701.053 1215.8,701.053 1216.85,701.053 1217.91,701.053 1218.96,701.053 1220.02,701.053 1221.07,701.053 1222.13,701.053 1223.18,701.053 1224.24,701.053 1225.29,701.053 1226.35,701.053 1227.4,701.053 1228.46,701.053 1229.51,701.053 1230.56,701.053 1231.62,701.053 1232.67,701.053 1233.73,701.053 1234.78,701.053 1235.84,701.053 1236.89,701.053 1237.95,701.053 1239,701.053 1240.06,701.053 1241.11,701.053 1242.17,701.053 1243.22,701.053 1244.28,701.053 1245.33,701.053 1246.39,701.053 1247.44,701.053 1248.49,701.053 1249.55,701.053 1250.6,701.053 1251.66,701.053 1252.71,701.053 1253.77,701.053 1254.82,701.053 1255.88,701.053 1256.93,701.053 1257.99,701.053 1259.04,701.053 1260.1,701.053 1261.15,701.053 1262.21,701.053 1263.26,701.053 1264.31,701.053 1265.37,701.053 1266.42,701.053 1267.48,701.053 1268.53,701.053 1269.59,701.053 1270.64,701.053 1271.7,701.053 1272.75,701.053 1273.81,701.053 1274.86,701.053 1275.92,701.053 1276.97,701.053 1278.03,701.053 1279.08,701.053 1280.14,701.053 1281.19,701.053 1282.24,701.053 1283.3,701.053 1284.35,701.053 1285.41,701.053 1286.46,701.053 1287.52,701.053 1288.57,701.053 1289.63,701.053 1290.68,701.053 1291.74,701.053 1292.79,701.053 1293.85,701.053 1294.9,701.053 1295.96,701.053 1297.01,632.734 1298.06,632.734 1299.12,632.734 1300.17,632.734 1301.23,632.734 1302.28,632.734 1303.34,632.734 1304.39,632.734 1305.45,632.734 1306.5,632.734 1307.56,632.734 1308.61,632.734 1309.67,632.734 1310.72,632.734 1311.78,632.734 1312.83,632.734 1313.89,632.734 1314.94,632.734 1315.99,632.734 1317.05,632.734 1318.1,632.734 1319.16,632.734 1320.21,632.734 1321.27,632.734 1322.32,632.734 1323.38,632.734 1324.43,632.734 1325.49,632.734 1326.54,632.734 1327.6,632.734 1328.65,632.734 1329.71,632.734 1330.76,632.734 1331.81,632.734 1332.87,632.734 1333.92,632.734 1334.98,632.734 1336.03,632.734 1337.09,632.734 1338.14,632.734 1339.2,632.734 1340.25,632.734 1341.31,632.734 1342.36,632.734 1343.42,632.734 1344.47,632.734 1345.53,632.734 1346.58,632.734 1347.64,632.734 1348.69,632.734 1349.74,632.734 1350.8,632.734 1351.85,632.734 1352.91,632.734 1353.96,632.734 1355.02,632.734 1356.07,632.734 1357.13,632.734 1358.18,632.734 1359.24,632.734 1360.29,632.734 1361.35,632.734 1362.4,632.734 1363.46,632.734 1364.51,632.734 1365.57,632.734 1366.62,632.734 1367.67,632.734 1368.73,632.734 1369.78,632.734 1370.84,632.734 1371.89,632.734 1372.95,564.416 1374,564.416 1375.06,564.416 1376.11,564.416 1377.17,564.416 1378.22,564.416 1379.28,564.416 1380.33,564.416 1381.39,564.416 1382.44,564.416 1383.49,564.416 1384.55,564.416 1385.6,564.416 1386.66,564.416 1387.71,564.416 1388.77,564.416 1389.82,564.416 1390.88,564.416 1391.93,564.416 1392.99,564.416 1394.04,564.416 1395.1,564.416 1396.15,564.416 1397.21,564.416 1398.26,564.416 1399.32,564.416 1400.37,564.416 1401.42,564.416 1402.48,564.416 1403.53,564.416 1404.59,564.416 1405.64,564.416 1406.7,564.416 1407.75,564.416 1408.81,564.416 1409.86,564.416 1410.92,564.416 1411.97,564.416 1413.03,564.416 1414.08,564.416 1415.14,564.416 1416.19,564.416 1417.24,564.416 1418.3,564.416 1419.35,564.416 1420.41,564.416 1421.46,564.416 1422.52,496.097 1423.57,496.097 1424.63,496.097 1425.68,496.097 1426.74,496.097 1427.79,496.097 1428.85,496.097 1429.9,496.097 1430.96,496.097 1432.01,496.097 1433.07,496.097 1434.12,496.097 1435.17,496.097 1436.23,496.097 1437.28,496.097 1438.34,496.097 1439.39,496.097 1440.45,496.097 1441.5,496.097 1442.56,496.097 1443.61,496.097 1444.67,496.097 1445.72,496.097 1446.78,496.097 1447.83,496.097 1448.89,496.097 1449.94,496.097 1451,496.097 1452.05,496.097 1453.1,496.097 1454.16,496.097 1455.21,496.097 1456.27,496.097 1457.32,496.097 1458.38,496.097 1459.43,496.097 1460.49,496.097 1461.54,496.097 1462.6,496.097 1463.65,496.097 1464.71,427.778 1465.76,427.778 1466.82,427.778 1467.87,427.778 1468.92,427.778 1469.98,427.778 1471.03,427.778 1472.09,427.778 1473.14,427.778 1474.2,427.778 1475.25,427.778 1476.31,427.778 1477.36,427.778 1478.42,427.778 1479.47,427.778 1480.53,427.778 1481.58,427.778 1482.64,427.778 1483.69,427.778 1484.75,427.778 1485.8,427.778 1486.85,427.778 1487.91,427.778 1488.96,427.778 1490.02,427.778 1491.07,427.778 1492.13,427.778 1493.18,427.778 1494.24,427.778 1495.29,427.778 1496.35,427.778 1497.4,427.778 1498.46,427.778 1499.51,427.778 1500.57,427.778 1501.62,427.778 1502.67,427.778 1503.73,427.778 1504.78,427.778 1505.84,427.778 1506.89,427.778 1507.95,427.778 1509,427.778 1510.06,427.778 1511.11,427.778 1512.17,427.778 1513.22,427.778 1514.28,427.778 1515.33,427.778 1516.39,427.778 1517.44,427.778 1518.5,427.778 1519.55,427.778 1520.6,427.778 1521.66,427.778 1522.71,427.778 1523.77,427.778 1524.82,427.778 1525.88,427.778 1526.93,427.778 1527.99,427.778 1529.04,427.778 1530.1,427.778 1531.15,427.778 1532.21,427.778 1533.26,427.778 1534.32,427.778 1535.37,427.778 1536.43,427.778 1537.48,427.778 1538.53,427.778 1539.59,427.778 1540.64,427.778 1541.7,427.778 1542.75,427.778 1543.81,427.778 1544.86,427.778 1545.92,427.778 1546.97,427.778 1548.03,427.778 1549.08,427.778 1550.14,427.778 1551.19,427.778 1552.25,427.778 1553.3,427.778 1554.35,427.778 1555.41,427.778 1556.46,427.778 1557.52,427.778 1558.57,427.778 1559.63,427.778 1560.68,427.778 1561.74,427.778 1562.79,427.778 1563.85,427.778 1564.9,427.778 1565.96,427.778 1567.01,427.778 1568.07,427.778 1569.12,427.778 1570.18,427.778 1571.23,427.778 1572.28,427.778 1573.34,427.778 1574.39,427.778 1575.45,427.778 1576.5,427.778 1577.56,427.778 1578.61,427.778 1579.67,427.778 1580.72,427.778 1581.78,427.778 1582.83,427.778 1583.89,427.778 1584.94,427.778 1586,427.778 1587.05,427.778 1588.1,427.778 1589.16,427.778 1590.21,427.778 1591.27,427.778 1592.32,427.778 1593.38,427.778 1594.43,427.778 1595.49,427.778 1596.54,427.778 1597.6,427.778 1598.65,427.778 1599.71,427.778 1600.76,427.778 1601.82,427.778 1602.87,427.778 1603.93,427.778 1604.98,427.778 1606.03,427.778 1607.09,427.778 1608.14,427.778 1609.2,427.778 1610.25,427.778 1611.31,427.778 1612.36,427.778 1613.42,427.778 1614.47,427.778 1615.53,427.778 1616.58,427.778 1617.64,427.778 1618.69,427.778 1619.75,427.778 1620.8,427.778 1621.86,427.778 1622.91,427.778 1623.96,427.778 1625.02,427.778 1626.07,427.778 1627.13,427.778 1628.18,427.778 1629.24,427.778 1630.29,427.778 1631.35,427.778 1632.4,427.778 1633.46,427.778 1634.51,427.778 1635.57,427.778 1636.62,427.778 1637.68,427.778 1638.73,427.778 1639.78,427.778 1640.84,427.778 1641.89,427.778 1642.95,427.778 1644,427.778 1645.06,427.778 1646.11,359.46 1647.17,359.46 1648.22,359.46 1649.28,359.46 1650.33,359.46 1651.39,359.46 1652.44,359.46 1653.5,359.46 1654.55,359.46 1655.61,359.46 1656.66,359.46 1657.71,359.46 1658.77,359.46 1659.82,359.46 1660.88,291.141 1661.93,291.141 1662.99,291.141 1664.04,291.141 1665.1,291.141 1666.15,291.141 1667.21,291.141 1668.26,291.141 1669.32,291.141 1670.37,291.141 1671.43,291.141 1672.48,291.141 1673.53,291.141 1674.59,291.141 1675.64,291.141 1676.7,291.141 1677.75,291.141 1678.81,291.141 1679.86,291.141 1680.92,291.141 1681.97,291.141 1683.03,291.141 1684.08,291.141 1685.14,291.141 1686.19,291.141 1687.25,291.141 1688.3,291.141 1689.36,291.141 1690.41,291.141 1691.46,291.141 1692.52,291.141 1693.57,291.141 1694.63,291.141 1695.68,291.141 1696.74,222.823 1697.79,222.823 1698.85,222.823 1699.9,222.823 1700.96,222.823 1702.01,222.823 1703.07,222.823 1704.12,222.823 1705.18,222.823 1706.23,222.823 1707.28,222.823 1708.34,222.823 1709.39,222.823 1710.45,222.823 1711.5,222.823 1712.56,222.823 1713.61,222.823 1714.67,222.823 1715.72,222.823 1716.78,222.823 1717.83,222.823 1718.89,222.823 1719.94,222.823 1721,222.823 1722.05,222.823 1723.11,222.823 1724.16,222.823 1725.21,222.823 1726.27,222.823 1727.32,222.823 1728.38,222.823 1729.43,222.823 1730.49,222.823 1731.54,222.823 1732.6,222.823 1733.65,222.823 1734.71,222.823 1735.76,222.823 1736.82,222.823 1737.87,222.823 1738.93,222.823 1739.98,222.823 1741.04,222.823 1742.09,222.823 1743.14,222.823 1744.2,222.823 1745.25,222.823 1746.31,222.823 1747.36,222.823 1748.42,222.823 1749.47,222.823 1750.53,222.823 1751.58,222.823 1752.64,222.823 1753.69,222.823 1754.75,222.823 1755.8,222.823 1756.86,222.823 1757.91,222.823 1758.96,222.823 1760.02,222.823 1761.07,222.823 1762.13,222.823 1763.18,222.823 1764.24,222.823 1765.29,222.823 1766.35,222.823 1767.4,222.823 1768.46,222.823 1769.51,154.504 1770.57,86.1857 1771.62,86.1857 1772.68,86.1857 1773.73,86.1857 1774.79,86.1857 1775.84,86.1857 1776.89,86.1857 1777.95,86.1857 1779,86.1857 1780.06,86.1857 1781.11,86.1857 1782.17,86.1857 1783.22,86.1857 1784.28,86.1857 1785.33,86.1857 1786.39,86.1857 1787.44,86.1857 1788.5,86.1857 1789.55,86.1857 1790.61,86.1857 1791.66,86.1857 1792.71,86.1857 1793.77,86.1857 1794.82,86.1857 1795.88,86.1857 1796.93,86.1857 1797.99,86.1857 1799.04,86.1857 1800.1,86.1857 1801.15,86.1857 1802.21,86.1857 1803.26,86.1857 1804.32,86.1857 1805.37,86.1857 1806.43,86.1857 1807.48,86.1857 1808.54,86.1857 1809.59,86.1857 1810.64,86.1857 1811.7,86.1857 1812.75,86.1857 1813.81,86.1857 1814.86,86.1857 1815.92,86.1857 1816.97,86.1857 1818.03,86.1857 1819.08,86.1857 1820.14,86.1857 1821.19,86.1857 1822.25,86.1857 1823.3,86.1857 1824.36,86.1857 1825.41,86.1857 1826.47,86.1857 1827.52,86.1857 1828.57,86.1857 1829.63,86.1857 1830.68,86.1857 1831.74,86.1857 1832.79,86.1857 1833.85,86.1857 1834.9,86.1857 1835.96,86.1857 1837.01,86.1857 1838.07,86.1857 1839.12,86.1857 1840.18,86.1857 1841.23,86.1857 1842.29,86.1857 1843.34,86.1857 1844.39,86.1857 1845.45,86.1857 1846.5,86.1857 1847.56,86.1857 1848.61,86.1857 1849.67,86.1857 1850.72,86.1857 1851.78,86.1857 1852.83,86.1857 1853.89,86.1857 1854.94,86.1857 1856,86.1857 1857.05,86.1857 1858.11,86.1857 1859.16,86.1857 1860.22,86.1857 1861.27,86.1857 1862.32,86.1857 1863.38,86.1857 1864.43,86.1857 1865.49,86.1857 1866.54,86.1857 1867.6,86.1857 1868.65,86.1857 1869.71,86.1857 1870.76,86.1857 1871.82,86.1857 1872.87,86.1857 1873.93,86.1857 1874.98,86.1857 1876.04,86.1857 1877.09,86.1857 1878.14,86.1857 1879.2,86.1857 1880.25,86.1857 1881.31,86.1857 1882.36,86.1857 1883.42,86.1857 1884.47,86.1857 1885.53,86.1857 1886.58,86.1857 1887.64,86.1857 1888.69,86.1857 1889.75,86.1857 1890.8,86.1857 1891.86,86.1857 1892.91,86.1857 1893.97,86.1857 1895.02,86.1857 1896.07,86.1857 1897.13,86.1857 1898.18,86.1857 1899.24,86.1857 1900.29,86.1857 1901.35,86.1857 1902.4,86.1857 1903.46,86.1857 1904.51,86.1857 1905.57,86.1857 1906.62,86.1857 1907.68,86.1857 1908.73,86.1857 1909.79,86.1857 1910.84,86.1857 1911.9,86.1857 1912.95,86.1857 1914,86.1857 1915.06,86.1857 1916.11,86.1857 1917.17,86.1857 1918.22,86.1857 1919.28,86.1857 1920.33,86.1857 1921.39,86.1857 1922.44,86.1857 1923.5,86.1857 1924.55,86.1857 1925.61,86.1857 1926.66,86.1857 1927.72,86.1857 1928.77,86.1857 1929.82,86.1857 1930.88,86.1857 1931.93,86.1857 1932.99,86.1857 1934.04,86.1857 1935.1,86.1857 1936.15,86.1857 1937.21,86.1857 1938.26,86.1857 1939.32,86.1857 1940.37,86.1857 1941.43,86.1857 1942.48,86.1857 1943.54,86.1857 1944.59,86.1857 1945.65,86.1857 1946.7,86.1857 1947.75,86.1857 1948.81,86.1857 1949.86,86.1857 1950.92,86.1857 1951.97,86.1857 1953.03,86.1857 1954.08,86.1857 1955.14,86.1857 1956.19,86.1857 1957.25,86.1857 1958.3,86.1857 1959.36,86.1857 1960.41,86.1857 1961.47,86.1857 1962.52,86.1857 1963.57,86.1857 1964.63,86.1857 1965.68,86.1857 1966.74,86.1857 1967.79,86.1857 1968.85,86.1857 1969.9,86.1857 1970.96,86.1857 1972.01,86.1857 1973.07,86.1857 1974.12,86.1857 1975.18,86.1857 1976.23,86.1857 1977.29,86.1857 1978.34,86.1857 1979.4,86.1857 1980.45,86.1857 1981.5,86.1857 1982.56,86.1857 1983.61,86.1857 1984.67,86.1857 1985.72,86.1857 1986.78,86.1857 1987.83,86.1857 1988.89,86.1857 1989.94,86.1857 1991,86.1857 1992.05,86.1857 1993.11,86.1857 1994.16,86.1857 1995.22,86.1857 1996.27,86.1857 1997.33,86.1857 1998.38,86.1857 1999.43,86.1857 2000.49,86.1857 2001.54,86.1857 2002.6,86.1857 2003.65,86.1857 2004.71,86.1857 2005.76,86.1857 2006.82,86.1857 2007.87,86.1857 2008.93,86.1857 2009.98,86.1857 2011.04,86.1857 2012.09,86.1857 2013.15,86.1857 2014.2,86.1857 2015.25,86.1857 2016.31,86.1857 2017.36,86.1857 2018.42,86.1857 2019.47,86.1857 2020.53,86.1857 2021.58,86.1857 2022.64,86.1857 2023.69,86.1857 2024.75,86.1857 2025.8,86.1857 2026.86,86.1857 2027.91,86.1857 2028.97,86.1857 2030.02,86.1857 2031.08,86.1857 2032.13,86.1857 2033.18,86.1857 2034.24,86.1857 2035.29,86.1857 2036.35,86.1857 2037.4,86.1857 2038.46,86.1857 2039.51,86.1857 2040.57,86.1857 2041.62,86.1857 2042.68,86.1857 2043.73,86.1857 2044.79,86.1857 2045.84,86.1857 2046.9,86.1857 2047.95,86.1857 2049,86.1857 2050.06,86.1857 2051.11,86.1857 2052.17,86.1857 2053.22,86.1857 2054.28,86.1857 2055.33,86.1857 2056.39,86.1857 2057.44,86.1857 2058.5,86.1857 2059.55,86.1857 2060.61,86.1857 2061.66,86.1857 2062.72,86.1857 2063.77,86.1857 2064.83,86.1857 2065.88,86.1857 2066.93,86.1857 2067.99,86.1857 2069.04,86.1857 2070.1,86.1857 2071.15,86.1857 2072.21,86.1857 2073.26,86.1857 2074.32,86.1857 2075.37,86.1857 2076.43,86.1857 2077.48,86.1857 2078.54,86.1857 2079.59,86.1857 2080.65,86.1857 2081.7,86.1857 2082.76,86.1857 2083.81,86.1857 2084.86,86.1857 2085.92,86.1857 2086.97,86.1857 2088.03,86.1857 2089.08,86.1857 2090.14,86.1857 2091.19,86.1857 2092.25,86.1857 2093.3,86.1857 2094.36,86.1857 2095.41,86.1857 2096.47,86.1857 2097.52,86.1857 2098.58,86.1857 2099.63,86.1857 2100.68,86.1857 2101.74,86.1857 2102.79,86.1857 2103.85,86.1857 2104.9,86.1857 2105.96,86.1857 2107.01,86.1857 2108.07,86.1857 2109.12,86.1857 2110.18,86.1857 2111.23,86.1857 2112.29,86.1857 2113.34,86.1857 2114.4,86.1857 2115.45,86.1857 2116.51,86.1857 2117.56,86.1857 2118.61,86.1857 2119.67,86.1857 2120.72,86.1857 2121.78,86.1857 2122.83,86.1857 2123.89,86.1857 2124.94,86.1857 2126,86.1857 2127.05,86.1857 2128.11,86.1857 2129.16,86.1857 2130.22,86.1857 2131.27,86.1857 2132.33,86.1857 2133.38,86.1857 2134.43,86.1857 2135.49,86.1857 2136.54,86.1857 2137.6,86.1857 2138.65,86.1857 2139.71,86.1857 2140.76,86.1857 2141.82,86.1857 2142.87,86.1857 2143.93,86.1857 2144.98,86.1857 2146.04,86.1857 2147.09,86.1857 2148.15,86.1857 2149.2,86.1857 2150.26,86.1857 2151.31,86.1857 2152.36,86.1857 2153.42,86.1857 2154.47,86.1857 2155.53,86.1857 2156.58,86.1857 2157.64,86.1857 2158.69,86.1857 2159.75,86.1857 2160.8,86.1857 2161.86,86.1857 2162.91,86.1857 2163.97,86.1857 2165.02,86.1857 2166.08,86.1857 2167.13,86.1857 2168.18,86.1857 2169.24,86.1857 2170.29,86.1857 2171.35,86.1857 2172.4,86.1857 2173.46,86.1857 2174.51,86.1857 2175.57,86.1857 2176.62,86.1857 2177.68,86.1857 2178.73,86.1857 2179.79,86.1857 2180.84,86.1857 2181.9,86.1857 2182.95,86.1857 2184.01,86.1857 2185.06,86.1857 2186.11,86.1857 2187.17,86.1857 2188.22,86.1857 2189.28,86.1857 2190.33,86.1857 2191.39,86.1857 2192.44,86.1857 2193.5,86.1857 2194.55,86.1857 2195.61,86.1857 2196.66,86.1857 2197.72,86.1857 2198.77,86.1857 2199.83,86.1857 2200.88,86.1857 2201.94,86.1857 2202.99,86.1857 2204.04,86.1857 2205.1,86.1857 2206.15,86.1857 2207.21,86.1857 2208.26,86.1857 2209.32,86.1857 2210.37,86.1857 2211.43,86.1857 2212.48,86.1857 2213.54,86.1857 2214.59,86.1857 2215.65,86.1857 2216.7,86.1857 2217.76,86.1857 2218.81,86.1857 2219.86,86.1857 2220.92,86.1857 2221.97,86.1857 2223.03,86.1857 2224.08,86.1857 2225.14,86.1857 2226.19,86.1857 2227.25,86.1857 2228.3,86.1857 2229.36,86.1857 2230.41,86.1857 2231.47,86.1857 2232.52,86.1857 2233.58,86.1857 2234.63,86.1857 2235.69,86.1857 2236.74,86.1857 2237.79,86.1857 2238.85,86.1857 2239.9,86.1857 2240.96,86.1857 2242.01,86.1857 2243.07,86.1857 2244.12,86.1857 2245.18,86.1857 2246.23,86.1857 2247.29,86.1857 2248.34,86.1857 2249.4,86.1857 2250.45,86.1857 2251.51,86.1857 2252.56,86.1857 2253.61,86.1857 2254.67,86.1857 2255.72,86.1857 2256.78,86.1857 2257.83,86.1857 2258.89,86.1857 2259.94,86.1857 2261,86.1857 2262.05,86.1857 2263.11,86.1857 2264.16,86.1857 2265.22,86.1857 2266.27,86.1857 2267.33,86.1857 2268.38,86.1857 2269.44,86.1857 2270.49,86.1857 2271.54,86.1857 2272.6,86.1857 2273.65,86.1857 2274.71,86.1857 2275.76,86.1857 2276.82,86.1857 2277.87,86.1857 2278.93,86.1857 2279.98,86.1857 2281.04,86.1857 2282.09,86.1857 2283.15,86.1857 2284.2,86.1857 2285.26,86.1857 2286.31,86.1857 2287.37,86.1857 2288.42,86.1857 2289.47,86.1857 2290.53,86.1857 2291.58,86.1857 2292.64,86.1857 2293.69,86.1857 2294.75,86.1857 2295.8,86.1857 2296.86,86.1857 2297.91,86.1857 2298.97,86.1857 2300.02,86.1857 2301.08,86.1857 2302.13,86.1857 2303.19,86.1857 2304.24,86.1857 2305.29,86.1857 2306.35,86.1857 2307.4,86.1857 2308.46,86.1857 2309.51,86.1857 2310.57,86.1857 2311.62,86.1857 2312.68,86.1857 2313.73,86.1857 2314.79,86.1857 2315.84,86.1857 2316.9,86.1857 2317.95,86.1857 2319.01,86.1857 2320.06,86.1857 2321.12,86.1857 2322.17,86.1857 2323.22,86.1857 2324.28,86.1857 2325.33,86.1857 2326.39,86.1857 2327.44,86.1857 2328.5,86.1857 2329.55,86.1857 2330.61,86.1857 2331.66,86.1857 2332.72,86.1857 2333.77,86.1857 2334.83,86.1857 2335.88,86.1857 2336.94,86.1857 2337.99,86.1857 2339.04,86.1857 2340.1,86.1857 2341.15,86.1857 2342.21,86.1857 2343.26,86.1857 2344.32,86.1857 2345.37,86.1857 2346.43,86.1857 2347.48,86.1857 2348.54,86.1857 2349.59,86.1857 2350.65,86.1857 2351.7,86.1857 2352.76,86.1857 "/>
<path clip-path="url(#clip750)" d="M1975.27 1377.32 L2278.96 1377.32 L2278.96 1273.64 L1975.27 1273.64  Z" fill="#ffffff" fill-rule="evenodd" fill-opacity="1"/>
<polyline clip-path="url(#clip750)" style="stroke:#000000; stroke-linecap:round; stroke-linejoin:round; stroke-width:4; stroke-opacity:1; fill:none" points="1975.27,1377.32 2278.96,1377.32 2278.96,1273.64 1975.27,1273.64 1975.27,1377.32 "/>
<polyline clip-path="url(#clip750)" style="stroke:#009af9; stroke-linecap:round; stroke-linejoin:round; stroke-width:8; stroke-opacity:1; fill:none" points="1999.87,1325.48 2147.45,1325.48 "/>
<path clip-path="url(#clip750)" d="M2172.05 1308.2 L2178.35 1308.2 L2193.67 1337.11 L2193.67 1308.2 L2198.21 1308.2 L2198.21 1342.76 L2191.91 1342.76 L2176.59 1313.84 L2176.59 1342.76 L2172.05 1342.76 L2172.05 1308.2 Z" fill="#000000" fill-rule="nonzero" fill-opacity="1" /><path clip-path="url(#clip750)" d="M2217.56 1306.78 Q2214.46 1312.11 2212.95 1317.32 Q2211.45 1322.52 2211.45 1327.87 Q2211.45 1333.22 2212.95 1338.47 Q2214.48 1343.7 2217.56 1349.01 L2213.86 1349.01 Q2210.38 1343.57 2208.65 1338.31 Q2206.93 1333.06 2206.93 1327.87 Q2206.93 1322.71 2208.65 1317.48 Q2210.36 1312.25 2213.86 1306.78 L2217.56 1306.78 Z" fill="#000000" fill-rule="nonzero" fill-opacity="1" /><path clip-path="url(#clip750)" d="M2230.04 1309.47 L2230.04 1316.83 L2238.81 1316.83 L2238.81 1320.14 L2230.04 1320.14 L2230.04 1334.21 Q2230.04 1337.38 2230.89 1338.29 Q2231.77 1339.19 2234.43 1339.19 L2238.81 1339.19 L2238.81 1342.76 L2234.43 1342.76 Q2229.5 1342.76 2227.63 1340.93 Q2225.75 1339.07 2225.75 1334.21 L2225.75 1320.14 L2222.63 1320.14 L2222.63 1316.83 L2225.75 1316.83 L2225.75 1309.47 L2230.04 1309.47 Z" fill="#000000" fill-rule="nonzero" fill-opacity="1" /><path clip-path="url(#clip750)" d="M2243.74 1306.78 L2247.44 1306.78 Q2250.92 1312.25 2252.63 1317.48 Q2254.36 1322.71 2254.36 1327.87 Q2254.36 1333.06 2252.63 1338.31 Q2250.92 1343.57 2247.44 1349.01 L2243.74 1349.01 Q2246.82 1343.7 2248.32 1338.47 Q2249.85 1333.22 2249.85 1327.87 Q2249.85 1322.52 2248.32 1317.32 Q2246.82 1312.11 2243.74 1306.78 Z" fill="#000000" fill-rule="nonzero" fill-opacity="1" /></svg>
