<?xml version="1.0" encoding="utf-8"?>
<svg xmlns="http://www.w3.org/2000/svg" xmlns:xlink="http://www.w3.org/1999/xlink" width="600" height="400" viewBox="0 0 2400 1600">
<defs>
  <clipPath id="clip190">
    <rect x="0" y="0" width="2400" height="1600"/>
  </clipPath>
</defs>
<path clip-path="url(#clip190)" d="M0 1600 L2400 1600 L2400 0 L0 0  Z" fill="#ffffff" fill-rule="evenodd" fill-opacity="1"/>
<defs>
  <clipPath id="clip191">
    <rect x="480" y="0" width="1681" height="1600"/>
  </clipPath>
</defs>
<path clip-path="url(#clip190)" d="M138.959 1423.18 L2352.76 1423.18 L2352.76 47.2441 L138.959 47.2441  Z" fill="#ffffff" fill-rule="evenodd" fill-opacity="1"/>
<defs>
  <clipPath id="clip192">
    <rect x="138" y="47" width="2215" height="1377"/>
  </clipPath>
</defs>
<polyline clip-path="url(#clip192)" style="stroke:#000000; stroke-linecap:round; stroke-linejoin:round; stroke-width:2; stroke-opacity:0.1; fill:none" points="138.959,1423.18 138.959,47.2441 "/>
<polyline clip-path="url(#clip192)" style="stroke:#000000; stroke-linecap:round; stroke-linejoin:round; stroke-width:2; stroke-opacity:0.1; fill:none" points="581.719,1423.18 581.719,47.2441 "/>
<polyline clip-path="url(#clip192)" style="stroke:#000000; stroke-linecap:round; stroke-linejoin:round; stroke-width:2; stroke-opacity:0.1; fill:none" points="1024.48,1423.18 1024.48,47.2441 "/>
<polyline clip-path="url(#clip192)" style="stroke:#000000; stroke-linecap:round; stroke-linejoin:round; stroke-width:2; stroke-opacity:0.1; fill:none" points="1467.24,1423.18 1467.24,47.2441 "/>
<polyline clip-path="url(#clip192)" style="stroke:#000000; stroke-linecap:round; stroke-linejoin:round; stroke-width:2; stroke-opacity:0.1; fill:none" points="1910,1423.18 1910,47.2441 "/>
<polyline clip-path="url(#clip192)" style="stroke:#000000; stroke-linecap:round; stroke-linejoin:round; stroke-width:2; stroke-opacity:0.1; fill:none" points="2352.76,1423.18 2352.76,47.2441 "/>
<polyline clip-path="url(#clip190)" style="stroke:#000000; stroke-linecap:round; stroke-linejoin:round; stroke-width:4; stroke-opacity:1; fill:none" points="138.959,1423.18 2352.76,1423.18 "/>
<polyline clip-path="url(#clip190)" style="stroke:#000000; stroke-linecap:round; stroke-linejoin:round; stroke-width:4; stroke-opacity:1; fill:none" points="138.959,1423.18 138.959,1404.28 "/>
<polyline clip-path="url(#clip190)" style="stroke:#000000; stroke-linecap:round; stroke-linejoin:round; stroke-width:4; stroke-opacity:1; fill:none" points="581.719,1423.18 581.719,1404.28 "/>
<polyline clip-path="url(#clip190)" style="stroke:#000000; stroke-linecap:round; stroke-linejoin:round; stroke-width:4; stroke-opacity:1; fill:none" points="1024.48,1423.18 1024.48,1404.28 "/>
<polyline clip-path="url(#clip190)" style="stroke:#000000; stroke-linecap:round; stroke-linejoin:round; stroke-width:4; stroke-opacity:1; fill:none" points="1467.24,1423.18 1467.24,1404.28 "/>
<polyline clip-path="url(#clip190)" style="stroke:#000000; stroke-linecap:round; stroke-linejoin:round; stroke-width:4; stroke-opacity:1; fill:none" points="1910,1423.18 1910,1404.28 "/>
<polyline clip-path="url(#clip190)" style="stroke:#000000; stroke-linecap:round; stroke-linejoin:round; stroke-width:4; stroke-opacity:1; fill:none" points="2352.76,1423.18 2352.76,1404.28 "/>
<path clip-path="url(#clip190)" d="M138.959 1454.1 Q135.348 1454.1 133.52 1457.66 Q131.714 1461.2 131.714 1468.33 Q131.714 1475.44 133.52 1479.01 Q135.348 1482.55 138.959 1482.55 Q142.594 1482.55 144.399 1479.01 Q146.228 1475.44 146.228 1468.33 Q146.228 1461.2 144.399 1457.66 Q142.594 1454.1 138.959 1454.1 M138.959 1450.39 Q144.77 1450.39 147.825 1455 Q150.904 1459.58 150.904 1468.33 Q150.904 1477.06 147.825 1481.67 Q144.77 1486.25 138.959 1486.25 Q133.149 1486.25 130.071 1481.67 Q127.015 1477.06 127.015 1468.33 Q127.015 1459.58 130.071 1455 Q133.149 1450.39 138.959 1450.39 Z" fill="#000000" fill-rule="nonzero" fill-opacity="1" /><path clip-path="url(#clip190)" d="M576.372 1481.64 L592.691 1481.64 L592.691 1485.58 L570.747 1485.58 L570.747 1481.64 Q573.409 1478.89 577.992 1474.26 Q582.598 1469.61 583.779 1468.27 Q586.024 1465.74 586.904 1464.01 Q587.807 1462.25 587.807 1460.56 Q587.807 1457.8 585.862 1456.07 Q583.941 1454.33 580.839 1454.33 Q578.64 1454.33 576.186 1455.09 Q573.756 1455.86 570.978 1457.41 L570.978 1452.69 Q573.802 1451.55 576.256 1450.97 Q578.709 1450.39 580.747 1450.39 Q586.117 1450.39 589.311 1453.08 Q592.506 1455.77 592.506 1460.26 Q592.506 1462.39 591.696 1464.31 Q590.908 1466.2 588.802 1468.8 Q588.223 1469.47 585.121 1472.69 Q582.02 1475.88 576.372 1481.64 Z" fill="#000000" fill-rule="nonzero" fill-opacity="1" /><path clip-path="url(#clip190)" d="M1027.49 1455.09 L1015.68 1473.54 L1027.49 1473.54 L1027.49 1455.09 M1026.26 1451.02 L1032.14 1451.02 L1032.14 1473.54 L1037.07 1473.54 L1037.07 1477.43 L1032.14 1477.43 L1032.14 1485.58 L1027.49 1485.58 L1027.49 1477.43 L1011.89 1477.43 L1011.89 1472.92 L1026.26 1451.02 Z" fill="#000000" fill-rule="nonzero" fill-opacity="1" /><path clip-path="url(#clip190)" d="M1467.64 1466.44 Q1464.49 1466.44 1462.64 1468.59 Q1460.81 1470.74 1460.81 1474.49 Q1460.81 1478.22 1462.64 1480.39 Q1464.49 1482.55 1467.64 1482.55 Q1470.79 1482.55 1472.62 1480.39 Q1474.47 1478.22 1474.47 1474.49 Q1474.47 1470.74 1472.62 1468.59 Q1470.79 1466.44 1467.64 1466.44 M1476.92 1451.78 L1476.92 1456.04 Q1475.17 1455.21 1473.36 1454.77 Q1471.58 1454.33 1469.82 1454.33 Q1465.19 1454.33 1462.74 1457.45 Q1460.3 1460.58 1459.96 1466.9 Q1461.32 1464.89 1463.38 1463.82 Q1465.44 1462.73 1467.92 1462.73 Q1473.13 1462.73 1476.14 1465.9 Q1479.17 1469.05 1479.17 1474.49 Q1479.17 1479.82 1476.02 1483.03 Q1472.87 1486.25 1467.64 1486.25 Q1461.65 1486.25 1458.48 1481.67 Q1455.3 1477.06 1455.3 1468.33 Q1455.3 1460.14 1459.19 1455.28 Q1463.08 1450.39 1469.63 1450.39 Q1471.39 1450.39 1473.17 1450.74 Q1474.98 1451.09 1476.92 1451.78 Z" fill="#000000" fill-rule="nonzero" fill-opacity="1" /><path clip-path="url(#clip190)" d="M1910 1469.17 Q1906.66 1469.17 1904.74 1470.95 Q1902.84 1472.73 1902.84 1475.86 Q1902.84 1478.98 1904.74 1480.77 Q1906.66 1482.55 1910 1482.55 Q1913.33 1482.55 1915.25 1480.77 Q1917.17 1478.96 1917.17 1475.86 Q1917.17 1472.73 1915.25 1470.95 Q1913.35 1469.17 1910 1469.17 M1905.32 1467.18 Q1902.31 1466.44 1900.62 1464.38 Q1898.96 1462.32 1898.96 1459.35 Q1898.96 1455.21 1901.89 1452.8 Q1904.86 1450.39 1910 1450.39 Q1915.16 1450.39 1918.1 1452.8 Q1921.04 1455.21 1921.04 1459.35 Q1921.04 1462.32 1919.35 1464.38 Q1917.68 1466.44 1914.7 1467.18 Q1918.08 1467.96 1919.95 1470.26 Q1921.85 1472.55 1921.85 1475.86 Q1921.85 1480.88 1918.77 1483.57 Q1915.71 1486.25 1910 1486.25 Q1904.28 1486.25 1901.2 1483.57 Q1898.14 1480.88 1898.14 1475.86 Q1898.14 1472.55 1900.04 1470.26 Q1901.94 1467.96 1905.32 1467.18 M1903.61 1459.79 Q1903.61 1462.48 1905.27 1463.98 Q1906.96 1465.49 1910 1465.49 Q1913.01 1465.49 1914.7 1463.98 Q1916.41 1462.48 1916.41 1459.79 Q1916.41 1457.11 1914.7 1455.6 Q1913.01 1454.1 1910 1454.1 Q1906.96 1454.1 1905.27 1455.6 Q1903.61 1457.11 1903.61 1459.79 Z" fill="#000000" fill-rule="nonzero" fill-opacity="1" /><path clip-path="url(#clip190)" d="M2327.44 1481.64 L2335.08 1481.64 L2335.08 1455.28 L2326.77 1456.95 L2326.77 1452.69 L2335.04 1451.02 L2339.71 1451.02 L2339.71 1481.64 L2347.35 1481.64 L2347.35 1485.58 L2327.44 1485.58 L2327.44 1481.64 Z" fill="#000000" fill-rule="nonzero" fill-opacity="1" /><path clip-path="url(#clip190)" d="M2366.8 1454.1 Q2363.18 1454.1 2361.36 1457.66 Q2359.55 1461.2 2359.55 1468.33 Q2359.55 1475.44 2361.36 1479.01 Q2363.18 1482.55 2366.8 1482.55 Q2370.43 1482.55 2372.23 1479.01 Q2374.06 1475.44 2374.06 1468.33 Q2374.06 1461.2 2372.23 1457.66 Q2370.43 1454.1 2366.8 1454.1 M2366.8 1450.39 Q2372.61 1450.39 2375.66 1455 Q2378.74 1459.58 2378.74 1468.33 Q2378.74 1477.06 2375.66 1481.67 Q2372.61 1486.25 2366.8 1486.25 Q2360.99 1486.25 2357.91 1481.67 Q2354.85 1477.06 2354.85 1468.33 Q2354.85 1459.58 2357.91 1455 Q2360.99 1450.39 2366.8 1450.39 Z" fill="#000000" fill-rule="nonzero" fill-opacity="1" /><path clip-path="url(#clip190)" d="M1244.92 1522.27 L1244.92 1532.4 L1256.98 1532.4 L1256.98 1536.95 L1244.92 1536.95 L1244.92 1556.3 Q1244.92 1560.66 1246.1 1561.9 Q1247.31 1563.14 1250.97 1563.14 L1256.98 1563.14 L1256.98 1568.04 L1250.97 1568.04 Q1244.19 1568.04 1241.61 1565.53 Q1239.03 1562.98 1239.03 1556.3 L1239.03 1536.95 L1234.73 1536.95 L1234.73 1532.4 L1239.03 1532.4 L1239.03 1522.27 L1244.92 1522.27 Z" fill="#000000" fill-rule="nonzero" fill-opacity="1" /><polyline clip-path="url(#clip192)" style="stroke:#000000; stroke-linecap:round; stroke-linejoin:round; stroke-width:2; stroke-opacity:0.1; fill:none" points="138.959,1384.24 2352.76,1384.24 "/>
<polyline clip-path="url(#clip192)" style="stroke:#000000; stroke-linecap:round; stroke-linejoin:round; stroke-width:2; stroke-opacity:0.1; fill:none" points="138.959,1042.65 2352.76,1042.65 "/>
<polyline clip-path="url(#clip192)" style="stroke:#000000; stroke-linecap:round; stroke-linejoin:round; stroke-width:2; stroke-opacity:0.1; fill:none" points="138.959,701.053 2352.76,701.053 "/>
<polyline clip-path="url(#clip192)" style="stroke:#000000; stroke-linecap:round; stroke-linejoin:round; stroke-width:2; stroke-opacity:0.1; fill:none" points="138.959,359.46 2352.76,359.46 "/>
<polyline clip-path="url(#clip190)" style="stroke:#000000; stroke-linecap:round; stroke-linejoin:round; stroke-width:4; stroke-opacity:1; fill:none" points="138.959,1423.18 138.959,47.2441 "/>
<polyline clip-path="url(#clip190)" style="stroke:#000000; stroke-linecap:round; stroke-linejoin:round; stroke-width:4; stroke-opacity:1; fill:none" points="138.959,1384.24 157.857,1384.24 "/>
<polyline clip-path="url(#clip190)" style="stroke:#000000; stroke-linecap:round; stroke-linejoin:round; stroke-width:4; stroke-opacity:1; fill:none" points="138.959,1042.65 157.857,1042.65 "/>
<polyline clip-path="url(#clip190)" style="stroke:#000000; stroke-linecap:round; stroke-linejoin:round; stroke-width:4; stroke-opacity:1; fill:none" points="138.959,701.053 157.857,701.053 "/>
<polyline clip-path="url(#clip190)" style="stroke:#000000; stroke-linecap:round; stroke-linejoin:round; stroke-width:4; stroke-opacity:1; fill:none" points="138.959,359.46 157.857,359.46 "/>
<path clip-path="url(#clip190)" d="M91.0151 1370.04 Q87.404 1370.04 85.5753 1373.6 Q83.7697 1377.14 83.7697 1384.27 Q83.7697 1391.38 85.5753 1394.94 Q87.404 1398.49 91.0151 1398.49 Q94.6493 1398.49 96.4548 1394.94 Q98.2835 1391.38 98.2835 1384.27 Q98.2835 1377.14 96.4548 1373.6 Q94.6493 1370.04 91.0151 1370.04 M91.0151 1366.33 Q96.8252 1366.33 99.8808 1370.94 Q102.959 1375.52 102.959 1384.27 Q102.959 1393 99.8808 1397.61 Q96.8252 1402.19 91.0151 1402.19 Q85.2049 1402.19 82.1262 1397.61 Q79.0707 1393 79.0707 1384.27 Q79.0707 1375.52 82.1262 1370.94 Q85.2049 1366.33 91.0151 1366.33 Z" fill="#000000" fill-rule="nonzero" fill-opacity="1" /><path clip-path="url(#clip190)" d="M82.0568 1025.37 L100.413 1025.37 L100.413 1029.3 L86.3392 1029.3 L86.3392 1037.77 Q87.3577 1037.43 88.3762 1037.26 Q89.3947 1037.08 90.4132 1037.08 Q96.2002 1037.08 99.5798 1040.25 Q102.959 1043.42 102.959 1048.84 Q102.959 1054.42 99.4872 1057.52 Q96.015 1060.6 89.6956 1060.6 Q87.5197 1060.6 85.2512 1060.23 Q83.0058 1059.86 80.5984 1059.12 L80.5984 1054.42 Q82.6818 1055.55 84.904 1056.11 Q87.1262 1056.66 89.603 1056.66 Q93.6076 1056.66 95.9456 1054.56 Q98.2835 1052.45 98.2835 1048.84 Q98.2835 1045.23 95.9456 1043.12 Q93.6076 1041.01 89.603 1041.01 Q87.728 1041.01 85.8531 1041.43 Q84.0012 1041.85 82.0568 1042.73 L82.0568 1025.37 Z" fill="#000000" fill-rule="nonzero" fill-opacity="1" /><path clip-path="url(#clip190)" d="M51.6634 714.398 L59.3023 714.398 L59.3023 688.032 L50.9921 689.699 L50.9921 685.439 L59.256 683.773 L63.9319 683.773 L63.9319 714.398 L71.5707 714.398 L71.5707 718.333 L51.6634 718.333 L51.6634 714.398 Z" fill="#000000" fill-rule="nonzero" fill-opacity="1" /><path clip-path="url(#clip190)" d="M91.0151 686.851 Q87.404 686.851 85.5753 690.416 Q83.7697 693.958 83.7697 701.087 Q83.7697 708.194 85.5753 711.759 Q87.404 715.3 91.0151 715.3 Q94.6493 715.3 96.4548 711.759 Q98.2835 708.194 98.2835 701.087 Q98.2835 693.958 96.4548 690.416 Q94.6493 686.851 91.0151 686.851 M91.0151 683.148 Q96.8252 683.148 99.8808 687.754 Q102.959 692.337 102.959 701.087 Q102.959 709.814 99.8808 714.421 Q96.8252 719.004 91.0151 719.004 Q85.2049 719.004 82.1262 714.421 Q79.0707 709.814 79.0707 701.087 Q79.0707 692.337 82.1262 687.754 Q85.2049 683.148 91.0151 683.148 Z" fill="#000000" fill-rule="nonzero" fill-opacity="1" /><path clip-path="url(#clip190)" d="M52.6588 372.805 L60.2976 372.805 L60.2976 346.439 L51.9875 348.106 L51.9875 343.847 L60.2513 342.18 L64.9272 342.18 L64.9272 372.805 L72.5661 372.805 L72.5661 376.74 L52.6588 376.74 L52.6588 372.805 Z" fill="#000000" fill-rule="nonzero" fill-opacity="1" /><path clip-path="url(#clip190)" d="M82.0568 342.18 L100.413 342.18 L100.413 346.115 L86.3392 346.115 L86.3392 354.587 Q87.3577 354.24 88.3762 354.078 Q89.3947 353.893 90.4132 353.893 Q96.2002 353.893 99.5798 357.064 Q102.959 360.235 102.959 365.652 Q102.959 371.231 99.4872 374.333 Q96.015 377.411 89.6956 377.411 Q87.5197 377.411 85.2512 377.041 Q83.0058 376.67 80.5984 375.93 L80.5984 371.231 Q82.6818 372.365 84.904 372.92 Q87.1262 373.476 89.603 373.476 Q93.6076 373.476 95.9456 371.37 Q98.2835 369.263 98.2835 365.652 Q98.2835 362.041 95.9456 359.934 Q93.6076 357.828 89.603 357.828 Q87.728 357.828 85.8531 358.245 Q84.0012 358.661 82.0568 359.541 L82.0568 342.18 Z" fill="#000000" fill-rule="nonzero" fill-opacity="1" /><polyline clip-path="url(#clip192)" style="stroke:#009af9; stroke-linecap:round; stroke-linejoin:round; stroke-width:8; stroke-opacity:1; fill:none" points="138.959,1384.24 140.014,1384.24 141.069,1384.24 142.124,1384.24 143.178,1384.24 144.233,1384.24 145.288,1384.24 146.342,1384.24 147.397,1384.24 148.452,1384.24 149.506,1384.24 150.561,1384.24 151.616,1384.24 152.67,1384.24 153.725,1384.24 154.78,1384.24 155.834,1384.24 156.889,1384.24 157.944,1384.24 158.999,1384.24 160.053,1384.24 161.108,1384.24 162.163,1384.24 163.217,1384.24 164.272,1384.24 165.327,1384.24 166.381,1384.24 167.436,1384.24 168.491,1384.24 169.545,1384.24 170.6,1384.24 171.655,1384.24 172.71,1384.24 173.764,1384.24 174.819,1384.24 175.874,1384.24 176.928,1384.24 177.983,1384.24 179.038,1384.24 180.092,1384.24 181.147,1384.24 182.202,1384.24 183.256,1384.24 184.311,1384.24 185.366,1384.24 186.421,1384.24 187.475,1384.24 188.53,1384.24 189.585,1384.24 190.639,1384.24 191.694,1384.24 192.749,1384.24 193.803,1384.24 194.858,1384.24 195.913,1384.24 196.967,1384.24 198.022,1384.24 199.077,1384.24 200.132,1384.24 201.186,1384.24 202.241,1384.24 203.296,1384.24 204.35,1384.24 205.405,1384.24 206.46,1384.24 207.514,1384.24 208.569,1384.24 209.624,1384.24 210.678,1384.24 211.733,1384.24 212.788,1384.24 213.843,1384.24 214.897,1384.24 215.952,1384.24 217.007,1384.24 218.061,1384.24 219.116,1384.24 220.171,1384.24 221.225,1384.24 222.28,1384.24 223.335,1384.24 224.389,1384.24 225.444,1384.24 226.499,1384.24 227.553,1384.24 228.608,1384.24 229.663,1384.24 230.718,1384.24 231.772,1384.24 232.827,1384.24 233.882,1384.24 234.936,1384.24 235.991,1384.24 237.046,1384.24 238.1,1384.24 239.155,1384.24 240.21,1384.24 241.264,1384.24 242.319,1384.24 243.374,1384.24 244.429,1384.24 245.483,1384.24 246.538,1384.24 247.593,1384.24 248.647,1384.24 249.702,1384.24 250.757,1384.24 251.811,1384.24 252.866,1384.24 253.921,1384.24 254.975,1384.24 256.03,1384.24 257.085,1384.24 258.14,1384.24 259.194,1384.24 260.249,1384.24 261.304,1384.24 262.358,1384.24 263.413,1384.24 264.468,1384.24 265.522,1384.24 266.577,1384.24 267.632,1384.24 268.686,1384.24 269.741,1384.24 270.796,1384.24 271.851,1384.24 272.905,1384.24 273.96,1384.24 275.015,1384.24 276.069,1384.24 277.124,1384.24 278.179,1384.24 279.233,1384.24 280.288,1384.24 281.343,1384.24 282.397,1384.24 283.452,1384.24 284.507,1384.24 285.561,1384.24 286.616,1384.24 287.671,1384.24 288.726,1384.24 289.78,1384.24 290.835,1384.24 291.89,1384.24 292.944,1384.24 293.999,1384.24 295.054,1384.24 296.108,1384.24 297.163,1384.24 298.218,1384.24 299.272,1384.24 300.327,1384.24 301.382,1384.24 302.437,1384.24 303.491,1384.24 304.546,1384.24 305.601,1384.24 306.655,1384.24 307.71,1384.24 308.765,1384.24 309.819,1384.24 310.874,1384.24 311.929,1384.24 312.983,1384.24 314.038,1384.24 315.093,1384.24 316.148,1384.24 317.202,1384.24 318.257,1384.24 319.312,1315.92 320.366,1315.92 321.421,1315.92 322.476,1315.92 323.53,1315.92 324.585,1315.92 325.64,1315.92 326.694,1315.92 327.749,1315.92 328.804,1315.92 329.859,1315.92 330.913,1315.92 331.968,1315.92 333.023,1315.92 334.077,1315.92 335.132,1315.92 336.187,1315.92 337.241,1315.92 338.296,1315.92 339.351,1315.92 340.405,1315.92 341.46,1315.92 342.515,1315.92 343.569,1315.92 344.624,1315.92 345.679,1315.92 346.734,1315.92 347.788,1315.92 348.843,1315.92 349.898,1315.92 350.952,1315.92 352.007,1315.92 353.062,1315.92 354.116,1315.92 355.171,1315.92 356.226,1315.92 357.28,1315.92 358.335,1315.92 359.39,1315.92 360.445,1315.92 361.499,1315.92 362.554,1315.92 363.609,1315.92 364.663,1315.92 365.718,1315.92 366.773,1315.92 367.827,1315.92 368.882,1315.92 369.937,1315.92 370.991,1315.92 372.046,1315.92 373.101,1315.92 374.156,1315.92 375.21,1315.92 376.265,1315.92 377.32,1315.92 378.374,1315.92 379.429,1315.92 380.484,1315.92 381.538,1315.92 382.593,1315.92 383.648,1315.92 384.702,1315.92 385.757,1315.92 386.812,1315.92 387.867,1315.92 388.921,1315.92 389.976,1315.92 391.031,1315.92 392.085,1315.92 393.14,1315.92 394.195,1315.92 395.249,1315.92 396.304,1315.92 397.359,1315.92 398.413,1315.92 399.468,1315.92 400.523,1315.92 401.578,1247.6 402.632,1247.6 403.687,1247.6 404.742,1247.6 405.796,1247.6 406.851,1247.6 407.906,1247.6 408.96,1247.6 410.015,1247.6 411.07,1247.6 412.124,1247.6 413.179,1247.6 414.234,1247.6 415.288,1247.6 416.343,1247.6 417.398,1247.6 418.453,1247.6 419.507,1247.6 420.562,1247.6 421.617,1247.6 422.671,1247.6 423.726,1247.6 424.781,1247.6 425.835,1247.6 426.89,1247.6 427.945,1247.6 428.999,1247.6 430.054,1247.6 431.109,1247.6 432.164,1247.6 433.218,1247.6 434.273,1247.6 435.328,1247.6 436.382,1247.6 437.437,1247.6 438.492,1247.6 439.546,1247.6 440.601,1247.6 441.656,1247.6 442.71,1247.6 443.765,1247.6 444.82,1247.6 445.875,1247.6 446.929,1247.6 447.984,1247.6 449.039,1247.6 450.093,1247.6 451.148,1247.6 452.203,1247.6 453.257,1247.6 454.312,1247.6 455.367,1247.6 456.421,1247.6 457.476,1247.6 458.531,1247.6 459.586,1247.6 460.64,1247.6 461.695,1247.6 462.75,1247.6 463.804,1247.6 464.859,1247.6 465.914,1247.6 466.968,1247.6 468.023,1247.6 469.078,1247.6 470.132,1247.6 471.187,1247.6 472.242,1247.6 473.296,1247.6 474.351,1247.6 475.406,1247.6 476.461,1247.6 477.515,1247.6 478.57,1247.6 479.625,1247.6 480.679,1247.6 481.734,1247.6 482.789,1247.6 483.843,1247.6 484.898,1247.6 485.953,1247.6 487.007,1247.6 488.062,1247.6 489.117,1247.6 490.172,1247.6 491.226,1247.6 492.281,1247.6 493.336,1247.6 494.39,1247.6 495.445,1247.6 496.5,1247.6 497.554,1247.6 498.609,1247.6 499.664,1247.6 500.718,1247.6 501.773,1247.6 502.828,1247.6 503.883,1247.6 504.937,1247.6 505.992,1247.6 507.047,1247.6 508.101,1247.6 509.156,1247.6 510.211,1247.6 511.265,1247.6 512.32,1247.6 513.375,1247.6 514.429,1247.6 515.484,1247.6 516.539,1247.6 517.594,1247.6 518.648,1247.6 519.703,1247.6 520.758,1247.6 521.812,1247.6 522.867,1247.6 523.922,1247.6 524.976,1247.6 526.031,1247.6 527.086,1247.6 528.14,1247.6 529.195,1247.6 530.25,1247.6 531.305,1247.6 532.359,1247.6 533.414,1247.6 534.469,1247.6 535.523,1247.6 536.578,1247.6 537.633,1247.6 538.687,1247.6 539.742,1247.6 540.797,1247.6 541.851,1247.6 542.906,1247.6 543.961,1179.28 545.015,1179.28 546.07,1179.28 547.125,1179.28 548.18,1179.28 549.234,1179.28 550.289,1179.28 551.344,1179.28 552.398,1179.28 553.453,1179.28 554.508,1179.28 555.562,1179.28 556.617,1179.28 557.672,1179.28 558.726,1179.28 559.781,1179.28 560.836,1179.28 561.891,1179.28 562.945,1179.28 564,1179.28 565.055,1179.28 566.109,1179.28 567.164,1179.28 568.219,1179.28 569.273,1179.28 570.328,1179.28 571.383,1179.28 572.437,1179.28 573.492,1179.28 574.547,1179.28 575.602,1179.28 576.656,1179.28 577.711,1179.28 578.766,1179.28 579.82,1179.28 580.875,1179.28 581.93,1179.28 582.984,1179.28 584.039,1179.28 585.094,1179.28 586.148,1179.28 587.203,1179.28 588.258,1179.28 589.313,1179.28 590.367,1179.28 591.422,1179.28 592.477,1179.28 593.531,1179.28 594.586,1179.28 595.641,1179.28 596.695,1179.28 597.75,1179.28 598.805,1179.28 599.859,1179.28 600.914,1179.28 601.969,1179.28 603.023,1179.28 604.078,1179.28 605.133,1179.28 606.188,1179.28 607.242,1179.28 608.297,1179.28 609.352,1179.28 610.406,1179.28 611.461,1179.28 612.516,1179.28 613.57,1179.28 614.625,1179.28 615.68,1179.28 616.734,1179.28 617.789,1179.28 618.844,1179.28 619.899,1179.28 620.953,1179.28 622.008,1179.28 623.063,1179.28 624.117,1179.28 625.172,1179.28 626.227,1179.28 627.281,1179.28 628.336,1179.28 629.391,1179.28 630.445,1179.28 631.5,1179.28 632.555,1179.28 633.61,1179.28 634.664,1179.28 635.719,1179.28 636.774,1179.28 637.828,1179.28 638.883,1179.28 639.938,1179.28 640.992,1179.28 642.047,1179.28 643.102,1179.28 644.156,1179.28 645.211,1179.28 646.266,1179.28 647.321,1179.28 648.375,1179.28 649.43,1179.28 650.485,1179.28 651.539,1179.28 652.594,1179.28 653.649,1179.28 654.703,1179.28 655.758,1179.28 656.813,1179.28 657.867,1179.28 658.922,1179.28 659.977,1179.28 661.031,1179.28 662.086,1179.28 663.141,1179.28 664.196,1179.28 665.25,1179.28 666.305,1179.28 667.36,1179.28 668.414,1179.28 669.469,1179.28 670.524,1179.28 671.578,1179.28 672.633,1179.28 673.688,1179.28 674.742,1179.28 675.797,1179.28 676.852,1179.28 677.907,1179.28 678.961,1179.28 680.016,1179.28 681.071,1179.28 682.125,1179.28 683.18,1179.28 684.235,1179.28 685.289,1179.28 686.344,1179.28 687.399,1179.28 688.453,1179.28 689.508,1179.28 690.563,1179.28 691.618,1179.28 692.672,1179.28 693.727,1179.28 694.782,1179.28 695.836,1179.28 696.891,1179.28 697.946,1179.28 699,1179.28 700.055,1179.28 701.11,1179.28 702.164,1179.28 703.219,1179.28 704.274,1179.28 705.329,1179.28 706.383,1179.28 707.438,1179.28 708.493,1179.28 709.547,1179.28 710.602,1179.28 711.657,1179.28 712.711,1179.28 713.766,1179.28 714.821,1179.28 715.875,1179.28 716.93,1179.28 717.985,1179.28 719.04,1179.28 720.094,1179.28 721.149,1179.28 722.204,1179.28 723.258,1179.28 724.313,1179.28 725.368,1179.28 726.422,1179.28 727.477,1179.28 728.532,1179.28 729.586,1179.28 730.641,1179.28 731.696,1179.28 732.75,1179.28 733.805,1179.28 734.86,1179.28 735.915,1179.28 736.969,1179.28 738.024,1179.28 739.079,1179.28 740.133,1179.28 741.188,1179.28 742.243,1179.28 743.297,1179.28 744.352,1179.28 745.407,1179.28 746.461,1179.28 747.516,1179.28 748.571,1179.28 749.626,1179.28 750.68,1179.28 751.735,1179.28 752.79,1179.28 753.844,1179.28 754.899,1179.28 755.954,1179.28 757.008,1179.28 758.063,1179.28 759.118,1179.28 760.172,1179.28 761.227,1179.28 762.282,1179.28 763.337,1179.28 764.391,1179.28 765.446,1179.28 766.501,1179.28 767.555,1110.96 768.61,1110.96 769.665,1110.96 770.719,1110.96 771.774,1110.96 772.829,1110.96 773.883,1110.96 774.938,1110.96 775.993,1110.96 777.048,1110.96 778.102,1110.96 779.157,1110.96 780.212,1110.96 781.266,1110.96 782.321,1110.96 783.376,1110.96 784.43,1042.65 785.485,1042.65 786.54,1042.65 787.594,1042.65 788.649,1042.65 789.704,1042.65 790.758,1042.65 791.813,1042.65 792.868,1042.65 793.923,1042.65 794.977,1042.65 796.032,1042.65 797.087,1042.65 798.141,1042.65 799.196,1042.65 800.251,1042.65 801.305,1042.65 802.36,1042.65 803.415,1042.65 804.469,1042.65 805.524,1042.65 806.579,1042.65 807.634,1042.65 808.688,1042.65 809.743,1042.65 810.798,1042.65 811.852,1042.65 812.907,1042.65 813.962,1042.65 815.016,1042.65 816.071,1042.65 817.126,1042.65 818.18,1042.65 819.235,1042.65 820.29,1042.65 821.345,1042.65 822.399,1042.65 823.454,1042.65 824.509,1042.65 825.563,1042.65 826.618,1042.65 827.673,1042.65 828.727,1042.65 829.782,1042.65 830.837,1042.65 831.891,1042.65 832.946,1042.65 834.001,1042.65 835.056,1042.65 836.11,1042.65 837.165,1042.65 838.22,1042.65 839.274,1042.65 840.329,1042.65 841.384,1042.65 842.438,1042.65 843.493,1042.65 844.548,1042.65 845.602,1042.65 846.657,1042.65 847.712,1042.65 848.767,1042.65 849.821,1042.65 850.876,1042.65 851.931,1042.65 852.985,1042.65 854.04,1042.65 855.095,1042.65 856.149,1042.65 857.204,1042.65 858.259,1042.65 859.313,1042.65 860.368,1042.65 861.423,1042.65 862.477,1042.65 863.532,1042.65 864.587,1042.65 865.642,1042.65 866.696,1042.65 867.751,1042.65 868.806,1042.65 869.86,1042.65 870.915,1042.65 871.97,1042.65 873.024,1042.65 874.079,1042.65 875.134,1042.65 876.188,1042.65 877.243,1042.65 878.298,1042.65 879.353,1042.65 880.407,1042.65 881.462,1042.65 882.517,1042.65 883.571,1042.65 884.626,1042.65 885.681,1042.65 886.735,1042.65 887.79,1042.65 888.845,1042.65 889.899,1042.65 890.954,1042.65 892.009,1042.65 893.064,1042.65 894.118,1042.65 895.173,1042.65 896.228,1042.65 897.282,1042.65 898.337,1042.65 899.392,1042.65 900.446,1042.65 901.501,1042.65 902.556,974.327 903.61,974.327 904.665,974.327 905.72,974.327 906.775,974.327 907.829,974.327 908.884,974.327 909.939,974.327 910.993,974.327 912.048,974.327 913.103,974.327 914.157,974.327 915.212,974.327 916.267,974.327 917.321,974.327 918.376,974.327 919.431,974.327 920.485,974.327 921.54,974.327 922.595,974.327 923.65,974.327 924.704,974.327 925.759,974.327 926.814,974.327 927.868,974.327 928.923,974.327 929.978,974.327 931.032,974.327 932.087,974.327 933.142,974.327 934.196,974.327 935.251,974.327 936.306,974.327 937.361,974.327 938.415,974.327 939.47,974.327 940.525,974.327 941.579,974.327 942.634,974.327 943.689,974.327 944.743,974.327 945.798,974.327 946.853,974.327 947.907,974.327 948.962,974.327 950.017,974.327 951.072,974.327 952.126,974.327 953.181,974.327 954.236,974.327 955.29,974.327 956.345,974.327 957.4,974.327 958.454,974.327 959.509,974.327 960.564,974.327 961.618,974.327 962.673,974.327 963.728,974.327 964.783,974.327 965.837,974.327 966.892,974.327 967.947,974.327 969.001,974.327 970.056,974.327 971.111,974.327 972.165,974.327 973.22,974.327 974.275,974.327 975.329,974.327 976.384,974.327 977.439,974.327 978.493,974.327 979.548,974.327 980.603,974.327 981.658,974.327 982.712,974.327 983.767,974.327 984.822,974.327 985.876,974.327 986.931,974.327 987.986,974.327 989.04,974.327 990.095,974.327 991.15,974.327 992.204,974.327 993.259,974.327 994.314,974.327 995.369,974.327 996.423,974.327 997.478,974.327 998.533,974.327 999.587,974.327 1000.64,974.327 1001.7,974.327 1002.75,974.327 1003.81,974.327 1004.86,974.327 1005.92,974.327 1006.97,974.327 1008.02,974.327 1009.08,974.327 1010.13,974.327 1011.19,974.327 1012.24,974.327 1013.3,974.327 1014.35,974.327 1015.41,974.327 1016.46,974.327 1017.52,974.327 1018.57,974.327 1019.63,974.327 1020.68,974.327 1021.74,974.327 1022.79,974.327 1023.85,974.327 1024.9,974.327 1025.95,974.327 1027.01,974.327 1028.06,974.327 1029.12,974.327 1030.17,974.327 1031.23,906.008 1032.28,906.008 1033.34,906.008 1034.39,906.008 1035.45,906.008 1036.5,906.008 1037.56,906.008 1038.61,906.008 1039.67,906.008 1040.72,906.008 1041.77,906.008 1042.83,906.008 1043.88,906.008 1044.94,906.008 1045.99,906.008 1047.05,906.008 1048.1,906.008 1049.16,906.008 1050.21,906.008 1051.27,906.008 1052.32,906.008 1053.38,906.008 1054.43,906.008 1055.49,906.008 1056.54,906.008 1057.6,906.008 1058.65,906.008 1059.7,906.008 1060.76,906.008 1061.81,906.008 1062.87,906.008 1063.92,906.008 1064.98,906.008 1066.03,906.008 1067.09,906.008 1068.14,906.008 1069.2,906.008 1070.25,906.008 1071.31,906.008 1072.36,906.008 1073.42,906.008 1074.47,906.008 1075.53,906.008 1076.58,906.008 1077.63,906.008 1078.69,906.008 1079.74,906.008 1080.8,906.008 1081.85,906.008 1082.91,906.008 1083.96,906.008 1085.02,906.008 1086.07,906.008 1087.13,906.008 1088.18,906.008 1089.24,906.008 1090.29,906.008 1091.35,906.008 1092.4,906.008 1093.45,906.008 1094.51,906.008 1095.56,906.008 1096.62,906.008 1097.67,906.008 1098.73,906.008 1099.78,906.008 1100.84,906.008 1101.89,906.008 1102.95,906.008 1104,906.008 1105.06,906.008 1106.11,906.008 1107.17,837.69 1108.22,837.69 1109.28,837.69 1110.33,837.69 1111.38,837.69 1112.44,837.69 1113.49,837.69 1114.55,837.69 1115.6,837.69 1116.66,837.69 1117.71,837.69 1118.77,837.69 1119.82,837.69 1120.88,837.69 1121.93,837.69 1122.99,837.69 1124.04,837.69 1125.1,837.69 1126.15,837.69 1127.2,837.69 1128.26,837.69 1129.31,837.69 1130.37,837.69 1131.42,837.69 1132.48,837.69 1133.53,837.69 1134.59,837.69 1135.64,837.69 1136.7,837.69 1137.75,837.69 1138.81,837.69 1139.86,837.69 1140.92,837.69 1141.97,837.69 1143.03,837.69 1144.08,837.69 1145.13,837.69 1146.19,837.69 1147.24,837.69 1148.3,837.69 1149.35,837.69 1150.41,837.69 1151.46,837.69 1152.52,837.69 1153.57,837.69 1154.63,837.69 1155.68,837.69 1156.74,837.69 1157.79,837.69 1158.85,837.69 1159.9,837.69 1160.96,837.69 1162.01,837.69 1163.06,837.69 1164.12,837.69 1165.17,837.69 1166.23,837.69 1167.28,837.69 1168.34,837.69 1169.39,837.69 1170.45,837.69 1171.5,837.69 1172.56,837.69 1173.61,837.69 1174.67,837.69 1175.72,837.69 1176.78,837.69 1177.83,837.69 1178.88,837.69 1179.94,837.69 1180.99,837.69 1182.05,837.69 1183.1,837.69 1184.16,837.69 1185.21,837.69 1186.27,837.69 1187.32,837.69 1188.38,837.69 1189.43,837.69 1190.49,837.69 1191.54,837.69 1192.6,837.69 1193.65,837.69 1194.71,837.69 1195.76,837.69 1196.81,837.69 1197.87,837.69 1198.92,837.69 1199.98,837.69 1201.03,837.69 1202.09,837.69 1203.14,837.69 1204.2,837.69 1205.25,837.69 1206.31,837.69 1207.36,837.69 1208.42,837.69 1209.47,837.69 1210.53,837.69 1211.58,837.69 1212.63,837.69 1213.69,837.69 1214.74,837.69 1215.8,837.69 1216.85,837.69 1217.91,837.69 1218.96,837.69 1220.02,837.69 1221.07,837.69 1222.13,837.69 1223.18,837.69 1224.24,837.69 1225.29,837.69 1226.35,837.69 1227.4,837.69 1228.46,837.69 1229.51,837.69 1230.56,837.69 1231.62,837.69 1232.67,837.69 1233.73,837.69 1234.78,837.69 1235.84,837.69 1236.89,837.69 1237.95,837.69 1239,837.69 1240.06,837.69 1241.11,837.69 1242.17,837.69 1243.22,837.69 1244.28,837.69 1245.33,837.69 1246.39,837.69 1247.44,837.69 1248.49,837.69 1249.55,837.69 1250.6,837.69 1251.66,837.69 1252.71,837.69 1253.77,837.69 1254.82,837.69 1255.88,837.69 1256.93,837.69 1257.99,837.69 1259.04,837.69 1260.1,837.69 1261.15,837.69 1262.21,837.69 1263.26,837.69 1264.31,837.69 1265.37,837.69 1266.42,837.69 1267.48,837.69 1268.53,837.69 1269.59,837.69 1270.64,837.69 1271.7,837.69 1272.75,837.69 1273.81,837.69 1274.86,837.69 1275.92,837.69 1276.97,837.69 1278.03,837.69 1279.08,837.69 1280.14,837.69 1281.19,837.69 1282.24,837.69 1283.3,837.69 1284.35,837.69 1285.41,837.69 1286.46,837.69 1287.52,837.69 1288.57,837.69 1289.63,837.69 1290.68,837.69 1291.74,837.69 1292.79,837.69 1293.85,837.69 1294.9,837.69 1295.96,837.69 1297.01,837.69 1298.06,837.69 1299.12,837.69 1300.17,837.69 1301.23,837.69 1302.28,837.69 1303.34,837.69 1304.39,837.69 1305.45,837.69 1306.5,837.69 1307.56,837.69 1308.61,837.69 1309.67,837.69 1310.72,837.69 1311.78,837.69 1312.83,837.69 1313.89,837.69 1314.94,837.69 1315.99,837.69 1317.05,837.69 1318.1,837.69 1319.16,837.69 1320.21,837.69 1321.27,837.69 1322.32,837.69 1323.38,837.69 1324.43,837.69 1325.49,837.69 1326.54,837.69 1327.6,837.69 1328.65,837.69 1329.71,837.69 1330.76,837.69 1331.81,769.371 1332.87,769.371 1333.92,769.371 1334.98,769.371 1336.03,769.371 1337.09,769.371 1338.14,769.371 1339.2,769.371 1340.25,769.371 1341.31,769.371 1342.36,769.371 1343.42,769.371 1344.47,769.371 1345.53,769.371 1346.58,769.371 1347.64,769.371 1348.69,769.371 1349.74,769.371 1350.8,769.371 1351.85,769.371 1352.91,769.371 1353.96,769.371 1355.02,769.371 1356.07,769.371 1357.13,769.371 1358.18,769.371 1359.24,769.371 1360.29,769.371 1361.35,769.371 1362.4,769.371 1363.46,769.371 1364.51,769.371 1365.57,769.371 1366.62,769.371 1367.67,769.371 1368.73,769.371 1369.78,769.371 1370.84,769.371 1371.89,769.371 1372.95,769.371 1374,769.371 1375.06,769.371 1376.11,769.371 1377.17,769.371 1378.22,769.371 1379.28,769.371 1380.33,769.371 1381.39,769.371 1382.44,769.371 1383.49,769.371 1384.55,769.371 1385.6,769.371 1386.66,769.371 1387.71,769.371 1388.77,769.371 1389.82,769.371 1390.88,769.371 1391.93,769.371 1392.99,769.371 1394.04,769.371 1395.1,769.371 1396.15,769.371 1397.21,769.371 1398.26,769.371 1399.32,769.371 1400.37,769.371 1401.42,769.371 1402.48,769.371 1403.53,769.371 1404.59,769.371 1405.64,769.371 1406.7,769.371 1407.75,769.371 1408.81,769.371 1409.86,769.371 1410.92,769.371 1411.97,769.371 1413.03,769.371 1414.08,769.371 1415.14,769.371 1416.19,769.371 1417.24,769.371 1418.3,769.371 1419.35,769.371 1420.41,769.371 1421.46,769.371 1422.52,769.371 1423.57,769.371 1424.63,769.371 1425.68,769.371 1426.74,769.371 1427.79,769.371 1428.85,769.371 1429.9,769.371 1430.96,769.371 1432.01,769.371 1433.07,769.371 1434.12,769.371 1435.17,769.371 1436.23,769.371 1437.28,769.371 1438.34,769.371 1439.39,769.371 1440.45,769.371 1441.5,769.371 1442.56,769.371 1443.61,769.371 1444.67,769.371 1445.72,769.371 1446.78,769.371 1447.83,769.371 1448.89,769.371 1449.94,769.371 1451,769.371 1452.05,769.371 1453.1,769.371 1454.16,769.371 1455.21,769.371 1456.27,769.371 1457.32,769.371 1458.38,769.371 1459.43,701.053 1460.49,701.053 1461.54,701.053 1462.6,701.053 1463.65,701.053 1464.71,701.053 1465.76,701.053 1466.82,701.053 1467.87,701.053 1468.92,701.053 1469.98,701.053 1471.03,701.053 1472.09,701.053 1473.14,701.053 1474.2,701.053 1475.25,701.053 1476.31,701.053 1477.36,701.053 1478.42,701.053 1479.47,701.053 1480.53,701.053 1481.58,701.053 1482.64,701.053 1483.69,701.053 1484.75,701.053 1485.8,701.053 1486.85,701.053 1487.91,701.053 1488.96,701.053 1490.02,701.053 1491.07,701.053 1492.13,701.053 1493.18,701.053 1494.24,701.053 1495.29,701.053 1496.35,701.053 1497.4,701.053 1498.46,701.053 1499.51,701.053 1500.57,701.053 1501.62,701.053 1502.67,701.053 1503.73,701.053 1504.78,701.053 1505.84,632.734 1506.89,632.734 1507.95,632.734 1509,632.734 1510.06,632.734 1511.11,632.734 1512.17,632.734 1513.22,632.734 1514.28,632.734 1515.33,632.734 1516.39,632.734 1517.44,632.734 1518.5,632.734 1519.55,632.734 1520.6,632.734 1521.66,632.734 1522.71,632.734 1523.77,632.734 1524.82,632.734 1525.88,632.734 1526.93,632.734 1527.99,632.734 1529.04,632.734 1530.1,632.734 1531.15,632.734 1532.21,632.734 1533.26,632.734 1534.32,632.734 1535.37,632.734 1536.43,632.734 1537.48,632.734 1538.53,632.734 1539.59,632.734 1540.64,564.416 1541.7,564.416 1542.75,564.416 1543.81,564.416 1544.86,564.416 1545.92,564.416 1546.97,564.416 1548.03,564.416 1549.08,564.416 1550.14,564.416 1551.19,564.416 1552.25,564.416 1553.3,564.416 1554.35,564.416 1555.41,564.416 1556.46,564.416 1557.52,564.416 1558.57,564.416 1559.63,564.416 1560.68,564.416 1561.74,564.416 1562.79,564.416 1563.85,564.416 1564.9,564.416 1565.96,564.416 1567.01,564.416 1568.07,564.416 1569.12,564.416 1570.18,564.416 1571.23,564.416 1572.28,564.416 1573.34,564.416 1574.39,564.416 1575.45,564.416 1576.5,564.416 1577.56,564.416 1578.61,564.416 1579.67,564.416 1580.72,564.416 1581.78,564.416 1582.83,564.416 1583.89,564.416 1584.94,564.416 1586,564.416 1587.05,564.416 1588.1,564.416 1589.16,564.416 1590.21,564.416 1591.27,564.416 1592.32,564.416 1593.38,564.416 1594.43,564.416 1595.49,564.416 1596.54,564.416 1597.6,564.416 1598.65,564.416 1599.71,564.416 1600.76,564.416 1601.82,564.416 1602.87,564.416 1603.93,564.416 1604.98,564.416 1606.03,564.416 1607.09,564.416 1608.14,564.416 1609.2,564.416 1610.25,564.416 1611.31,564.416 1612.36,564.416 1613.42,564.416 1614.47,564.416 1615.53,564.416 1616.58,564.416 1617.64,564.416 1618.69,564.416 1619.75,564.416 1620.8,564.416 1621.86,564.416 1622.91,564.416 1623.96,564.416 1625.02,564.416 1626.07,564.416 1627.13,564.416 1628.18,564.416 1629.24,564.416 1630.29,564.416 1631.35,564.416 1632.4,564.416 1633.46,564.416 1634.51,564.416 1635.57,564.416 1636.62,564.416 1637.68,564.416 1638.73,564.416 1639.78,564.416 1640.84,564.416 1641.89,564.416 1642.95,564.416 1644,564.416 1645.06,564.416 1646.11,564.416 1647.17,564.416 1648.22,496.097 1649.28,496.097 1650.33,496.097 1651.39,496.097 1652.44,496.097 1653.5,496.097 1654.55,496.097 1655.61,496.097 1656.66,496.097 1657.71,496.097 1658.77,496.097 1659.82,427.778 1660.88,427.778 1661.93,427.778 1662.99,427.778 1664.04,427.778 1665.1,427.778 1666.15,427.778 1667.21,427.778 1668.26,427.778 1669.32,427.778 1670.37,427.778 1671.43,427.778 1672.48,427.778 1673.53,427.778 1674.59,427.778 1675.64,427.778 1676.7,427.778 1677.75,427.778 1678.81,427.778 1679.86,427.778 1680.92,427.778 1681.97,427.778 1683.03,427.778 1684.08,427.778 1685.14,427.778 1686.19,427.778 1687.25,427.778 1688.3,427.778 1689.36,427.778 1690.41,427.778 1691.46,427.778 1692.52,427.778 1693.57,427.778 1694.63,427.778 1695.68,427.778 1696.74,427.778 1697.79,427.778 1698.85,427.778 1699.9,427.778 1700.96,427.778 1702.01,427.778 1703.07,427.778 1704.12,427.778 1705.18,427.778 1706.23,427.778 1707.28,427.778 1708.34,427.778 1709.39,427.778 1710.45,427.778 1711.5,427.778 1712.56,427.778 1713.61,427.778 1714.67,427.778 1715.72,427.778 1716.78,427.778 1717.83,427.778 1718.89,427.778 1719.94,427.778 1721,427.778 1722.05,427.778 1723.11,427.778 1724.16,427.778 1725.21,427.778 1726.27,427.778 1727.32,427.778 1728.38,427.778 1729.43,427.778 1730.49,427.778 1731.54,427.778 1732.6,427.778 1733.65,427.778 1734.71,427.778 1735.76,427.778 1736.82,427.778 1737.87,427.778 1738.93,427.778 1739.98,427.778 1741.04,427.778 1742.09,427.778 1743.14,427.778 1744.2,427.778 1745.25,427.778 1746.31,427.778 1747.36,427.778 1748.42,427.778 1749.47,427.778 1750.53,427.778 1751.58,427.778 1752.64,427.778 1753.69,427.778 1754.75,427.778 1755.8,427.778 1756.86,427.778 1757.91,427.778 1758.96,427.778 1760.02,427.778 1761.07,427.778 1762.13,427.778 1763.18,427.778 1764.24,427.778 1765.29,427.778 1766.35,427.778 1767.4,427.778 1768.46,427.778 1769.51,427.778 1770.57,427.778 1771.62,427.778 1772.68,427.778 1773.73,427.778 1774.79,427.778 1775.84,427.778 1776.89,427.778 1777.95,427.778 1779,427.778 1780.06,427.778 1781.11,427.778 1782.17,427.778 1783.22,427.778 1784.28,427.778 1785.33,427.778 1786.39,427.778 1787.44,427.778 1788.5,427.778 1789.55,427.778 1790.61,427.778 1791.66,427.778 1792.71,427.778 1793.77,427.778 1794.82,427.778 1795.88,427.778 1796.93,427.778 1797.99,427.778 1799.04,427.778 1800.1,427.778 1801.15,427.778 1802.21,427.778 1803.26,427.778 1804.32,427.778 1805.37,427.778 1806.43,427.778 1807.48,427.778 1808.54,427.778 1809.59,427.778 1810.64,427.778 1811.7,427.778 1812.75,427.778 1813.81,427.778 1814.86,427.778 1815.92,427.778 1816.97,427.778 1818.03,427.778 1819.08,427.778 1820.14,427.778 1821.19,427.778 1822.25,427.778 1823.3,427.778 1824.36,427.778 1825.41,427.778 1826.47,427.778 1827.52,427.778 1828.57,427.778 1829.63,427.778 1830.68,427.778 1831.74,427.778 1832.79,427.778 1833.85,427.778 1834.9,427.778 1835.96,427.778 1837.01,427.778 1838.07,427.778 1839.12,427.778 1840.18,427.778 1841.23,427.778 1842.29,427.778 1843.34,427.778 1844.39,427.778 1845.45,427.778 1846.5,427.778 1847.56,427.778 1848.61,427.778 1849.67,427.778 1850.72,427.778 1851.78,427.778 1852.83,427.778 1853.89,427.778 1854.94,427.778 1856,427.778 1857.05,359.46 1858.11,359.46 1859.16,359.46 1860.22,359.46 1861.27,359.46 1862.32,359.46 1863.38,359.46 1864.43,359.46 1865.49,359.46 1866.54,359.46 1867.6,359.46 1868.65,359.46 1869.71,359.46 1870.76,359.46 1871.82,359.46 1872.87,359.46 1873.93,359.46 1874.98,359.46 1876.04,359.46 1877.09,359.46 1878.14,359.46 1879.2,359.46 1880.25,359.46 1881.31,359.46 1882.36,359.46 1883.42,291.141 1884.47,291.141 1885.53,291.141 1886.58,291.141 1887.64,291.141 1888.69,291.141 1889.75,291.141 1890.8,291.141 1891.86,291.141 1892.91,291.141 1893.97,291.141 1895.02,291.141 1896.07,291.141 1897.13,291.141 1898.18,291.141 1899.24,291.141 1900.29,291.141 1901.35,291.141 1902.4,291.141 1903.46,291.141 1904.51,291.141 1905.57,291.141 1906.62,291.141 1907.68,291.141 1908.73,291.141 1909.79,291.141 1910.84,291.141 1911.9,291.141 1912.95,291.141 1914,291.141 1915.06,291.141 1916.11,291.141 1917.17,291.141 1918.22,291.141 1919.28,291.141 1920.33,291.141 1921.39,291.141 1922.44,291.141 1923.5,291.141 1924.55,291.141 1925.61,291.141 1926.66,291.141 1927.72,291.141 1928.77,291.141 1929.82,291.141 1930.88,291.141 1931.93,291.141 1932.99,291.141 1934.04,291.141 1935.1,291.141 1936.15,291.141 1937.21,291.141 1938.26,291.141 1939.32,291.141 1940.37,291.141 1941.43,291.141 1942.48,291.141 1943.54,291.141 1944.59,291.141 1945.65,291.141 1946.7,291.141 1947.75,291.141 1948.81,291.141 1949.86,291.141 1950.92,291.141 1951.97,291.141 1953.03,291.141 1954.08,291.141 1955.14,291.141 1956.19,291.141 1957.25,291.141 1958.3,291.141 1959.36,291.141 1960.41,291.141 1961.47,291.141 1962.52,291.141 1963.57,291.141 1964.63,291.141 1965.68,291.141 1966.74,291.141 1967.79,291.141 1968.85,291.141 1969.9,291.141 1970.96,291.141 1972.01,291.141 1973.07,291.141 1974.12,291.141 1975.18,291.141 1976.23,291.141 1977.29,291.141 1978.34,291.141 1979.4,291.141 1980.45,291.141 1981.5,291.141 1982.56,291.141 1983.61,291.141 1984.67,291.141 1985.72,291.141 1986.78,291.141 1987.83,291.141 1988.89,291.141 1989.94,291.141 1991,291.141 1992.05,291.141 1993.11,291.141 1994.16,291.141 1995.22,291.141 1996.27,291.141 1997.33,291.141 1998.38,291.141 1999.43,291.141 2000.49,291.141 2001.54,291.141 2002.6,291.141 2003.65,291.141 2004.71,291.141 2005.76,291.141 2006.82,291.141 2007.87,291.141 2008.93,291.141 2009.98,291.141 2011.04,291.141 2012.09,291.141 2013.15,291.141 2014.2,291.141 2015.25,291.141 2016.31,291.141 2017.36,291.141 2018.42,291.141 2019.47,291.141 2020.53,291.141 2021.58,291.141 2022.64,291.141 2023.69,291.141 2024.75,291.141 2025.8,291.141 2026.86,291.141 2027.91,291.141 2028.97,291.141 2030.02,291.141 2031.08,291.141 2032.13,291.141 2033.18,291.141 2034.24,291.141 2035.29,291.141 2036.35,291.141 2037.4,291.141 2038.46,291.141 2039.51,291.141 2040.57,291.141 2041.62,291.141 2042.68,291.141 2043.73,291.141 2044.79,291.141 2045.84,291.141 2046.9,291.141 2047.95,291.141 2049,291.141 2050.06,291.141 2051.11,291.141 2052.17,291.141 2053.22,291.141 2054.28,291.141 2055.33,291.141 2056.39,291.141 2057.44,291.141 2058.5,291.141 2059.55,291.141 2060.61,291.141 2061.66,291.141 2062.72,291.141 2063.77,291.141 2064.83,291.141 2065.88,291.141 2066.93,291.141 2067.99,291.141 2069.04,291.141 2070.1,291.141 2071.15,291.141 2072.21,291.141 2073.26,291.141 2074.32,291.141 2075.37,291.141 2076.43,291.141 2077.48,291.141 2078.54,291.141 2079.59,291.141 2080.65,291.141 2081.7,291.141 2082.76,291.141 2083.81,291.141 2084.86,291.141 2085.92,291.141 2086.97,291.141 2088.03,291.141 2089.08,291.141 2090.14,291.141 2091.19,291.141 2092.25,291.141 2093.3,291.141 2094.36,291.141 2095.41,291.141 2096.47,291.141 2097.52,291.141 2098.58,291.141 2099.63,291.141 2100.68,291.141 2101.74,291.141 2102.79,291.141 2103.85,291.141 2104.9,291.141 2105.96,291.141 2107.01,291.141 2108.07,291.141 2109.12,291.141 2110.18,291.141 2111.23,291.141 2112.29,291.141 2113.34,291.141 2114.4,291.141 2115.45,291.141 2116.51,291.141 2117.56,291.141 2118.61,291.141 2119.67,291.141 2120.72,291.141 2121.78,291.141 2122.83,291.141 2123.89,291.141 2124.94,291.141 2126,291.141 2127.05,291.141 2128.11,291.141 2129.16,291.141 2130.22,291.141 2131.27,291.141 2132.33,291.141 2133.38,291.141 2134.43,291.141 2135.49,291.141 2136.54,291.141 2137.6,291.141 2138.65,291.141 2139.71,291.141 2140.76,291.141 2141.82,291.141 2142.87,291.141 2143.93,291.141 2144.98,291.141 2146.04,291.141 2147.09,291.141 2148.15,291.141 2149.2,291.141 2150.26,291.141 2151.31,291.141 2152.36,291.141 2153.42,291.141 2154.47,291.141 2155.53,291.141 2156.58,291.141 2157.64,291.141 2158.69,291.141 2159.75,291.141 2160.8,291.141 2161.86,291.141 2162.91,291.141 2163.97,291.141 2165.02,291.141 2166.08,291.141 2167.13,291.141 2168.18,291.141 2169.24,291.141 2170.29,291.141 2171.35,291.141 2172.4,291.141 2173.46,291.141 2174.51,291.141 2175.57,291.141 2176.62,291.141 2177.68,291.141 2178.73,291.141 2179.79,291.141 2180.84,291.141 2181.9,291.141 2182.95,291.141 2184.01,222.823 2185.06,222.823 2186.11,222.823 2187.17,222.823 2188.22,222.823 2189.28,222.823 2190.33,222.823 2191.39,222.823 2192.44,222.823 2193.5,222.823 2194.55,222.823 2195.61,222.823 2196.66,222.823 2197.72,222.823 2198.77,222.823 2199.83,222.823 2200.88,154.504 2201.94,154.504 2202.99,154.504 2204.04,154.504 2205.1,154.504 2206.15,154.504 2207.21,154.504 2208.26,154.504 2209.32,154.504 2210.37,154.504 2211.43,154.504 2212.48,154.504 2213.54,154.504 2214.59,154.504 2215.65,154.504 2216.7,154.504 2217.76,154.504 2218.81,154.504 2219.86,154.504 2220.92,154.504 2221.97,154.504 2223.03,154.504 2224.08,154.504 2225.14,154.504 2226.19,154.504 2227.25,154.504 2228.3,154.504 2229.36,154.504 2230.41,154.504 2231.47,154.504 2232.52,154.504 2233.58,154.504 2234.63,154.504 2235.69,154.504 2236.74,154.504 2237.79,154.504 2238.85,154.504 2239.9,154.504 2240.96,154.504 2242.01,154.504 2243.07,154.504 2244.12,154.504 2245.18,154.504 2246.23,154.504 2247.29,154.504 2248.34,154.504 2249.4,154.504 2250.45,154.504 2251.51,154.504 2252.56,154.504 2253.61,154.504 2254.67,154.504 2255.72,154.504 2256.78,154.504 2257.83,154.504 2258.89,154.504 2259.94,154.504 2261,154.504 2262.05,154.504 2263.11,154.504 2264.16,154.504 2265.22,154.504 2266.27,154.504 2267.33,154.504 2268.38,154.504 2269.44,154.504 2270.49,154.504 2271.54,154.504 2272.6,154.504 2273.65,154.504 2274.71,154.504 2275.76,154.504 2276.82,154.504 2277.87,154.504 2278.93,154.504 2279.98,154.504 2281.04,154.504 2282.09,154.504 2283.15,154.504 2284.2,154.504 2285.26,154.504 2286.31,154.504 2287.37,154.504 2288.42,154.504 2289.47,154.504 2290.53,154.504 2291.58,154.504 2292.64,154.504 2293.69,154.504 2294.75,154.504 2295.8,154.504 2296.86,154.504 2297.91,154.504 2298.97,154.504 2300.02,154.504 2301.08,86.1857 2302.13,86.1857 2303.19,86.1857 2304.24,86.1857 2305.29,86.1857 2306.35,86.1857 2307.4,86.1857 2308.46,86.1857 2309.51,86.1857 2310.57,86.1857 2311.62,86.1857 2312.68,86.1857 2313.73,86.1857 2314.79,86.1857 2315.84,86.1857 2316.9,86.1857 2317.95,86.1857 2319.01,86.1857 2320.06,86.1857 2321.12,86.1857 2322.17,86.1857 2323.22,86.1857 2324.28,86.1857 2325.33,86.1857 2326.39,86.1857 2327.44,86.1857 2328.5,86.1857 2329.55,86.1857 2330.61,86.1857 2331.66,86.1857 2332.72,86.1857 2333.77,86.1857 2334.83,86.1857 2335.88,86.1857 2336.94,86.1857 2337.99,86.1857 2339.04,86.1857 2340.1,86.1857 2341.15,86.1857 2342.21,86.1857 2343.26,86.1857 2344.32,86.1857 2345.37,86.1857 2346.43,86.1857 2347.48,86.1857 2348.54,86.1857 2349.59,86.1857 2350.65,86.1857 2351.7,86.1857 2352.76,86.1857 "/>
<path clip-path="url(#clip190)" d="M1975.27 1377.32 L2278.96 1377.32 L2278.96 1273.64 L1975.27 1273.64  Z" fill="#ffffff" fill-rule="evenodd" fill-opacity="1"/>
<polyline clip-path="url(#clip190)" style="stroke:#000000; stroke-linecap:round; stroke-linejoin:round; stroke-width:4; stroke-opacity:1; fill:none" points="1975.27,1377.32 2278.96,1377.32 2278.96,1273.64 1975.27,1273.64 1975.27,1377.32 "/>
<polyline clip-path="url(#clip190)" style="stroke:#009af9; stroke-linecap:round; stroke-linejoin:round; stroke-width:8; stroke-opacity:1; fill:none" points="1999.87,1325.48 2147.45,1325.48 "/>
<path clip-path="url(#clip190)" d="M2172.05 1308.2 L2178.35 1308.2 L2193.67 1337.11 L2193.67 1308.2 L2198.21 1308.2 L2198.21 1342.76 L2191.91 1342.76 L2176.59 1313.84 L2176.59 1342.76 L2172.05 1342.76 L2172.05 1308.2 Z" fill="#000000" fill-rule="nonzero" fill-opacity="1" /><path clip-path="url(#clip190)" d="M2217.56 1306.78 Q2214.46 1312.11 2212.95 1317.32 Q2211.45 1322.52 2211.45 1327.87 Q2211.45 1333.22 2212.95 1338.47 Q2214.48 1343.7 2217.56 1349.01 L2213.86 1349.01 Q2210.38 1343.57 2208.65 1338.31 Q2206.93 1333.06 2206.93 1327.87 Q2206.93 1322.71 2208.65 1317.48 Q2210.36 1312.25 2213.86 1306.78 L2217.56 1306.78 Z" fill="#000000" fill-rule="nonzero" fill-opacity="1" /><path clip-path="url(#clip190)" d="M2230.04 1309.47 L2230.04 1316.83 L2238.81 1316.83 L2238.81 1320.14 L2230.04 1320.14 L2230.04 1334.21 Q2230.04 1337.38 2230.89 1338.29 Q2231.77 1339.19 2234.43 1339.19 L2238.81 1339.19 L2238.81 1342.76 L2234.43 1342.76 Q2229.5 1342.76 2227.63 1340.93 Q2225.75 1339.07 2225.75 1334.21 L2225.75 1320.14 L2222.63 1320.14 L2222.63 1316.83 L2225.75 1316.83 L2225.75 1309.47 L2230.04 1309.47 Z" fill="#000000" fill-rule="nonzero" fill-opacity="1" /><path clip-path="url(#clip190)" d="M2243.74 1306.78 L2247.44 1306.78 Q2250.92 1312.25 2252.63 1317.48 Q2254.36 1322.71 2254.36 1327.87 Q2254.36 1333.06 2252.63 1338.31 Q2250.92 1343.57 2247.44 1349.01 L2243.74 1349.01 Q2246.82 1343.7 2248.32 1338.47 Q2249.85 1333.22 2249.85 1327.87 Q2249.85 1322.52 2248.32 1317.32 Q2246.82 1312.11 2243.74 1306.78 Z" fill="#000000" fill-rule="nonzero" fill-opacity="1" /></svg>
