<?xml version="1.0" encoding="utf-8"?>
<svg xmlns="http://www.w3.org/2000/svg" xmlns:xlink="http://www.w3.org/1999/xlink" width="600" height="400" viewBox="0 0 2400 1600">
<defs>
  <clipPath id="clip360">
    <rect x="0" y="0" width="2400" height="1600"/>
  </clipPath>
</defs>
<path clip-path="url(#clip360)" d="M0 1600 L2400 1600 L2400 0 L0 0  Z" fill="#ffffff" fill-rule="evenodd" fill-opacity="1"/>
<defs>
  <clipPath id="clip361">
    <rect x="480" y="0" width="1681" height="1600"/>
  </clipPath>
</defs>
<path clip-path="url(#clip360)" d="M147.478 1423.18 L2352.76 1423.18 L2352.76 47.2441 L147.478 47.2441  Z" fill="#ffffff" fill-rule="evenodd" fill-opacity="1"/>
<defs>
  <clipPath id="clip362">
    <rect x="147" y="47" width="2206" height="1377"/>
  </clipPath>
</defs>
<polyline clip-path="url(#clip362)" style="stroke:#000000; stroke-linecap:round; stroke-linejoin:round; stroke-width:2; stroke-opacity:0.1; fill:none" points="147.478,1423.18 147.478,47.2441 "/>
<polyline clip-path="url(#clip362)" style="stroke:#000000; stroke-linecap:round; stroke-linejoin:round; stroke-width:2; stroke-opacity:0.1; fill:none" points="588.534,1423.18 588.534,47.2441 "/>
<polyline clip-path="url(#clip362)" style="stroke:#000000; stroke-linecap:round; stroke-linejoin:round; stroke-width:2; stroke-opacity:0.1; fill:none" points="1029.59,1423.18 1029.59,47.2441 "/>
<polyline clip-path="url(#clip362)" style="stroke:#000000; stroke-linecap:round; stroke-linejoin:round; stroke-width:2; stroke-opacity:0.1; fill:none" points="1470.64,1423.18 1470.64,47.2441 "/>
<polyline clip-path="url(#clip362)" style="stroke:#000000; stroke-linecap:round; stroke-linejoin:round; stroke-width:2; stroke-opacity:0.1; fill:none" points="1911.7,1423.18 1911.7,47.2441 "/>
<polyline clip-path="url(#clip362)" style="stroke:#000000; stroke-linecap:round; stroke-linejoin:round; stroke-width:2; stroke-opacity:0.1; fill:none" points="2352.76,1423.18 2352.76,47.2441 "/>
<polyline clip-path="url(#clip360)" style="stroke:#000000; stroke-linecap:round; stroke-linejoin:round; stroke-width:4; stroke-opacity:1; fill:none" points="147.478,1423.18 2352.76,1423.18 "/>
<polyline clip-path="url(#clip360)" style="stroke:#000000; stroke-linecap:round; stroke-linejoin:round; stroke-width:4; stroke-opacity:1; fill:none" points="147.478,1423.18 147.478,1404.28 "/>
<polyline clip-path="url(#clip360)" style="stroke:#000000; stroke-linecap:round; stroke-linejoin:round; stroke-width:4; stroke-opacity:1; fill:none" points="588.534,1423.18 588.534,1404.28 "/>
<polyline clip-path="url(#clip360)" style="stroke:#000000; stroke-linecap:round; stroke-linejoin:round; stroke-width:4; stroke-opacity:1; fill:none" points="1029.59,1423.18 1029.59,1404.28 "/>
<polyline clip-path="url(#clip360)" style="stroke:#000000; stroke-linecap:round; stroke-linejoin:round; stroke-width:4; stroke-opacity:1; fill:none" points="1470.64,1423.18 1470.64,1404.28 "/>
<polyline clip-path="url(#clip360)" style="stroke:#000000; stroke-linecap:round; stroke-linejoin:round; stroke-width:4; stroke-opacity:1; fill:none" points="1911.7,1423.18 1911.7,1404.28 "/>
<polyline clip-path="url(#clip360)" style="stroke:#000000; stroke-linecap:round; stroke-linejoin:round; stroke-width:4; stroke-opacity:1; fill:none" points="2352.76,1423.18 2352.76,1404.28 "/>
<path clip-path="url(#clip360)" d="M147.478 1454.1 Q143.867 1454.1 142.038 1457.66 Q140.233 1461.2 140.233 1468.33 Q140.233 1475.44 142.038 1479.01 Q143.867 1482.55 147.478 1482.55 Q151.112 1482.55 152.918 1479.01 Q154.746 1475.44 154.746 1468.33 Q154.746 1461.2 152.918 1457.66 Q151.112 1454.1 147.478 1454.1 M147.478 1450.39 Q153.288 1450.39 156.344 1455 Q159.422 1459.58 159.422 1468.33 Q159.422 1477.06 156.344 1481.67 Q153.288 1486.25 147.478 1486.25 Q141.668 1486.25 138.589 1481.67 Q135.534 1477.06 135.534 1468.33 Q135.534 1459.58 138.589 1455 Q141.668 1450.39 147.478 1450.39 Z" fill="#000000" fill-rule="nonzero" fill-opacity="1" /><path clip-path="url(#clip360)" d="M583.186 1481.64 L599.506 1481.64 L599.506 1485.58 L577.561 1485.58 L577.561 1481.64 Q580.223 1478.89 584.807 1474.26 Q589.413 1469.61 590.594 1468.27 Q592.839 1465.74 593.719 1464.01 Q594.621 1462.25 594.621 1460.56 Q594.621 1457.8 592.677 1456.07 Q590.756 1454.33 587.654 1454.33 Q585.455 1454.33 583.001 1455.09 Q580.571 1455.86 577.793 1457.41 L577.793 1452.69 Q580.617 1451.55 583.071 1450.97 Q585.524 1450.39 587.561 1450.39 Q592.932 1450.39 596.126 1453.08 Q599.32 1455.77 599.32 1460.26 Q599.32 1462.39 598.51 1464.31 Q597.723 1466.2 595.617 1468.8 Q595.038 1469.47 591.936 1472.69 Q588.834 1475.88 583.186 1481.64 Z" fill="#000000" fill-rule="nonzero" fill-opacity="1" /><path clip-path="url(#clip360)" d="M1032.6 1455.09 L1020.79 1473.54 L1032.6 1473.54 L1032.6 1455.09 M1031.37 1451.02 L1037.25 1451.02 L1037.25 1473.54 L1042.18 1473.54 L1042.18 1477.43 L1037.25 1477.43 L1037.25 1485.58 L1032.6 1485.58 L1032.6 1477.43 L1017 1477.43 L1017 1472.92 L1031.37 1451.02 Z" fill="#000000" fill-rule="nonzero" fill-opacity="1" /><path clip-path="url(#clip360)" d="M1471.05 1466.44 Q1467.9 1466.44 1466.05 1468.59 Q1464.22 1470.74 1464.22 1474.49 Q1464.22 1478.22 1466.05 1480.39 Q1467.9 1482.55 1471.05 1482.55 Q1474.2 1482.55 1476.03 1480.39 Q1477.88 1478.22 1477.88 1474.49 Q1477.88 1470.74 1476.03 1468.59 Q1474.2 1466.44 1471.05 1466.44 M1480.33 1451.78 L1480.33 1456.04 Q1478.57 1455.21 1476.77 1454.77 Q1474.98 1454.33 1473.23 1454.33 Q1468.6 1454.33 1466.14 1457.45 Q1463.71 1460.58 1463.36 1466.9 Q1464.73 1464.89 1466.79 1463.82 Q1468.85 1462.73 1471.33 1462.73 Q1476.54 1462.73 1479.55 1465.9 Q1482.58 1469.05 1482.58 1474.49 Q1482.58 1479.82 1479.43 1483.03 Q1476.28 1486.25 1471.05 1486.25 Q1465.05 1486.25 1461.88 1481.67 Q1458.71 1477.06 1458.71 1468.33 Q1458.71 1460.14 1462.6 1455.28 Q1466.49 1450.39 1473.04 1450.39 Q1474.8 1450.39 1476.58 1450.74 Q1478.39 1451.09 1480.33 1451.78 Z" fill="#000000" fill-rule="nonzero" fill-opacity="1" /><path clip-path="url(#clip360)" d="M1911.7 1469.17 Q1908.37 1469.17 1906.45 1470.95 Q1904.55 1472.73 1904.55 1475.86 Q1904.55 1478.98 1906.45 1480.77 Q1908.37 1482.55 1911.7 1482.55 Q1915.03 1482.55 1916.95 1480.77 Q1918.88 1478.96 1918.88 1475.86 Q1918.88 1472.73 1916.95 1470.95 Q1915.06 1469.17 1911.7 1469.17 M1907.02 1467.18 Q1904.02 1466.44 1902.33 1464.38 Q1900.66 1462.32 1900.66 1459.35 Q1900.66 1455.21 1903.6 1452.8 Q1906.56 1450.39 1911.7 1450.39 Q1916.86 1450.39 1919.8 1452.8 Q1922.74 1455.21 1922.74 1459.35 Q1922.74 1462.32 1921.05 1464.38 Q1919.39 1466.44 1916.4 1467.18 Q1919.78 1467.96 1921.65 1470.26 Q1923.55 1472.55 1923.55 1475.86 Q1923.55 1480.88 1920.47 1483.57 Q1917.42 1486.25 1911.7 1486.25 Q1905.98 1486.25 1902.9 1483.57 Q1899.85 1480.88 1899.85 1475.86 Q1899.85 1472.55 1901.75 1470.26 Q1903.64 1467.96 1907.02 1467.18 M1905.31 1459.79 Q1905.31 1462.48 1906.98 1463.98 Q1908.67 1465.49 1911.7 1465.49 Q1914.71 1465.49 1916.4 1463.98 Q1918.11 1462.48 1918.11 1459.79 Q1918.11 1457.11 1916.4 1455.6 Q1914.71 1454.1 1911.7 1454.1 Q1908.67 1454.1 1906.98 1455.6 Q1905.31 1457.11 1905.31 1459.79 Z" fill="#000000" fill-rule="nonzero" fill-opacity="1" /><path clip-path="url(#clip360)" d="M2327.44 1481.64 L2335.08 1481.64 L2335.08 1455.28 L2326.77 1456.95 L2326.77 1452.69 L2335.04 1451.02 L2339.71 1451.02 L2339.71 1481.64 L2347.35 1481.64 L2347.35 1485.58 L2327.44 1485.58 L2327.44 1481.64 Z" fill="#000000" fill-rule="nonzero" fill-opacity="1" /><path clip-path="url(#clip360)" d="M2366.8 1454.1 Q2363.18 1454.1 2361.36 1457.66 Q2359.55 1461.2 2359.55 1468.33 Q2359.55 1475.44 2361.36 1479.01 Q2363.18 1482.55 2366.8 1482.55 Q2370.43 1482.55 2372.23 1479.01 Q2374.06 1475.44 2374.06 1468.33 Q2374.06 1461.2 2372.23 1457.66 Q2370.43 1454.1 2366.8 1454.1 M2366.8 1450.39 Q2372.61 1450.39 2375.66 1455 Q2378.74 1459.58 2378.74 1468.33 Q2378.74 1477.06 2375.66 1481.67 Q2372.61 1486.25 2366.8 1486.25 Q2360.99 1486.25 2357.91 1481.67 Q2354.85 1477.06 2354.85 1468.33 Q2354.85 1459.58 2357.91 1455 Q2360.99 1450.39 2366.8 1450.39 Z" fill="#000000" fill-rule="nonzero" fill-opacity="1" /><path clip-path="url(#clip360)" d="M1249.18 1522.27 L1249.18 1532.4 L1261.24 1532.4 L1261.24 1536.95 L1249.18 1536.95 L1249.18 1556.3 Q1249.18 1560.66 1250.36 1561.9 Q1251.57 1563.14 1255.23 1563.14 L1261.24 1563.14 L1261.24 1568.04 L1255.23 1568.04 Q1248.45 1568.04 1245.87 1565.53 Q1243.29 1562.98 1243.29 1556.3 L1243.29 1536.95 L1238.99 1536.95 L1238.99 1532.4 L1243.29 1532.4 L1243.29 1522.27 L1249.18 1522.27 Z" fill="#000000" fill-rule="nonzero" fill-opacity="1" /><polyline clip-path="url(#clip362)" style="stroke:#000000; stroke-linecap:round; stroke-linejoin:round; stroke-width:2; stroke-opacity:0.1; fill:none" points="147.478,1366.69 2352.76,1366.69 "/>
<polyline clip-path="url(#clip362)" style="stroke:#000000; stroke-linecap:round; stroke-linejoin:round; stroke-width:2; stroke-opacity:0.1; fill:none" points="147.478,1177.63 2352.76,1177.63 "/>
<polyline clip-path="url(#clip362)" style="stroke:#000000; stroke-linecap:round; stroke-linejoin:round; stroke-width:2; stroke-opacity:0.1; fill:none" points="147.478,988.574 2352.76,988.574 "/>
<polyline clip-path="url(#clip362)" style="stroke:#000000; stroke-linecap:round; stroke-linejoin:round; stroke-width:2; stroke-opacity:0.1; fill:none" points="147.478,799.518 2352.76,799.518 "/>
<polyline clip-path="url(#clip362)" style="stroke:#000000; stroke-linecap:round; stroke-linejoin:round; stroke-width:2; stroke-opacity:0.1; fill:none" points="147.478,610.461 2352.76,610.461 "/>
<polyline clip-path="url(#clip362)" style="stroke:#000000; stroke-linecap:round; stroke-linejoin:round; stroke-width:2; stroke-opacity:0.1; fill:none" points="147.478,421.404 2352.76,421.404 "/>
<polyline clip-path="url(#clip362)" style="stroke:#000000; stroke-linecap:round; stroke-linejoin:round; stroke-width:2; stroke-opacity:0.1; fill:none" points="147.478,232.348 2352.76,232.348 "/>
<polyline clip-path="url(#clip360)" style="stroke:#000000; stroke-linecap:round; stroke-linejoin:round; stroke-width:4; stroke-opacity:1; fill:none" points="147.478,1423.18 147.478,47.2441 "/>
<polyline clip-path="url(#clip360)" style="stroke:#000000; stroke-linecap:round; stroke-linejoin:round; stroke-width:4; stroke-opacity:1; fill:none" points="147.478,1366.69 166.376,1366.69 "/>
<polyline clip-path="url(#clip360)" style="stroke:#000000; stroke-linecap:round; stroke-linejoin:round; stroke-width:4; stroke-opacity:1; fill:none" points="147.478,1177.63 166.376,1177.63 "/>
<polyline clip-path="url(#clip360)" style="stroke:#000000; stroke-linecap:round; stroke-linejoin:round; stroke-width:4; stroke-opacity:1; fill:none" points="147.478,988.574 166.376,988.574 "/>
<polyline clip-path="url(#clip360)" style="stroke:#000000; stroke-linecap:round; stroke-linejoin:round; stroke-width:4; stroke-opacity:1; fill:none" points="147.478,799.518 166.376,799.518 "/>
<polyline clip-path="url(#clip360)" style="stroke:#000000; stroke-linecap:round; stroke-linejoin:round; stroke-width:4; stroke-opacity:1; fill:none" points="147.478,610.461 166.376,610.461 "/>
<polyline clip-path="url(#clip360)" style="stroke:#000000; stroke-linecap:round; stroke-linejoin:round; stroke-width:4; stroke-opacity:1; fill:none" points="147.478,421.404 166.376,421.404 "/>
<polyline clip-path="url(#clip360)" style="stroke:#000000; stroke-linecap:round; stroke-linejoin:round; stroke-width:4; stroke-opacity:1; fill:none" points="147.478,232.348 166.376,232.348 "/>
<path clip-path="url(#clip360)" d="M51.3625 1367.14 L81.0383 1367.14 L81.0383 1371.07 L51.3625 1371.07 L51.3625 1367.14 Z" fill="#000000" fill-rule="nonzero" fill-opacity="1" /><path clip-path="url(#clip360)" d="M95.1586 1380.03 L111.478 1380.03 L111.478 1383.97 L89.5336 1383.97 L89.5336 1380.03 Q92.1956 1377.28 96.7789 1372.65 Q101.385 1368 102.566 1366.65 Q104.811 1364.13 105.691 1362.39 Q106.594 1360.63 106.594 1358.94 Q106.594 1356.19 104.649 1354.45 Q102.728 1352.72 99.6261 1352.72 Q97.4271 1352.72 94.9734 1353.48 Q92.5428 1354.25 89.7651 1355.8 L89.7651 1351.07 Q92.5891 1349.94 95.0428 1349.36 Q97.4965 1348.78 99.5335 1348.78 Q104.904 1348.78 108.098 1351.47 Q111.293 1354.15 111.293 1358.64 Q111.293 1360.77 110.483 1362.69 Q109.696 1364.59 107.589 1367.19 Q107.01 1367.86 103.909 1371.07 Q100.807 1374.27 95.1586 1380.03 Z" fill="#000000" fill-rule="nonzero" fill-opacity="1" /><path clip-path="url(#clip360)" d="M50.9921 1178.08 L80.6679 1178.08 L80.6679 1182.02 L50.9921 1182.02 L50.9921 1178.08 Z" fill="#000000" fill-rule="nonzero" fill-opacity="1" /><path clip-path="url(#clip360)" d="M91.5706 1190.98 L99.2095 1190.98 L99.2095 1164.61 L90.8993 1166.28 L90.8993 1162.02 L99.1632 1160.35 L103.839 1160.35 L103.839 1190.98 L111.478 1190.98 L111.478 1194.91 L91.5706 1194.91 L91.5706 1190.98 Z" fill="#000000" fill-rule="nonzero" fill-opacity="1" /><path clip-path="url(#clip360)" d="M99.5335 974.373 Q95.9224 974.373 94.0937 977.938 Q92.2882 981.479 92.2882 988.609 Q92.2882 995.715 94.0937 999.28 Q95.9224 1002.82 99.5335 1002.82 Q103.168 1002.82 104.973 999.28 Q106.802 995.715 106.802 988.609 Q106.802 981.479 104.973 977.938 Q103.168 974.373 99.5335 974.373 M99.5335 970.669 Q105.344 970.669 108.399 975.276 Q111.478 979.859 111.478 988.609 Q111.478 997.336 108.399 1001.94 Q105.344 1006.53 99.5335 1006.53 Q93.7234 1006.53 90.6447 1001.94 Q87.5892 997.336 87.5892 988.609 Q87.5892 979.859 90.6447 975.276 Q93.7234 970.669 99.5335 970.669 Z" fill="#000000" fill-rule="nonzero" fill-opacity="1" /><path clip-path="url(#clip360)" d="M91.5706 812.862 L99.2095 812.862 L99.2095 786.497 L90.8993 788.163 L90.8993 783.904 L99.1632 782.238 L103.839 782.238 L103.839 812.862 L111.478 812.862 L111.478 816.798 L91.5706 816.798 L91.5706 812.862 Z" fill="#000000" fill-rule="nonzero" fill-opacity="1" /><path clip-path="url(#clip360)" d="M95.1586 623.806 L111.478 623.806 L111.478 627.741 L89.5336 627.741 L89.5336 623.806 Q92.1956 621.051 96.7789 616.422 Q101.385 611.769 102.566 610.426 Q104.811 607.903 105.691 606.167 Q106.594 604.408 106.594 602.718 Q106.594 599.963 104.649 598.227 Q102.728 596.491 99.6261 596.491 Q97.4271 596.491 94.9734 597.255 Q92.5428 598.019 89.7651 599.57 L89.7651 594.848 Q92.5891 593.713 95.0428 593.135 Q97.4965 592.556 99.5335 592.556 Q104.904 592.556 108.098 595.241 Q111.293 597.926 111.293 602.417 Q111.293 604.547 110.483 606.468 Q109.696 608.366 107.589 610.959 Q107.01 611.63 103.909 614.847 Q100.807 618.042 95.1586 623.806 Z" fill="#000000" fill-rule="nonzero" fill-opacity="1" /><path clip-path="url(#clip360)" d="M104.348 420.05 Q107.705 420.768 109.58 423.036 Q111.478 425.305 111.478 428.638 Q111.478 433.754 107.959 436.555 Q104.441 439.356 97.9595 439.356 Q95.7836 439.356 93.4688 438.916 Q91.1771 438.499 88.7234 437.643 L88.7234 433.129 Q90.6678 434.263 92.9826 434.842 Q95.2974 435.42 97.8206 435.42 Q102.219 435.42 104.51 433.684 Q106.825 431.948 106.825 428.638 Q106.825 425.583 104.672 423.87 Q102.543 422.134 98.7234 422.134 L94.6956 422.134 L94.6956 418.291 L98.9085 418.291 Q102.358 418.291 104.186 416.925 Q106.015 415.536 106.015 412.944 Q106.015 410.282 104.117 408.87 Q102.242 407.435 98.7234 407.435 Q96.8021 407.435 94.603 407.851 Q92.4039 408.268 89.7651 409.147 L89.7651 404.981 Q92.4271 404.24 94.7419 403.87 Q97.0798 403.499 99.14 403.499 Q104.464 403.499 107.566 405.93 Q110.668 408.337 110.668 412.458 Q110.668 415.328 109.024 417.319 Q107.381 419.286 104.348 420.05 Z" fill="#000000" fill-rule="nonzero" fill-opacity="1" /><path clip-path="url(#clip360)" d="M101.895 219.142 L90.0891 237.591 L101.895 237.591 L101.895 219.142 M100.668 215.068 L106.547 215.068 L106.547 237.591 L111.478 237.591 L111.478 241.48 L106.547 241.48 L106.547 249.628 L101.895 249.628 L101.895 241.48 L86.2929 241.48 L86.2929 236.966 L100.668 215.068 Z" fill="#000000" fill-rule="nonzero" fill-opacity="1" /><polyline clip-path="url(#clip362)" style="stroke:#009af9; stroke-linecap:round; stroke-linejoin:round; stroke-width:8; stroke-opacity:1; fill:none" points="147.478,950.763 147.608,951.87 147.747,953.593 147.903,953.411 148.079,950.776 148.277,951.341 148.5,950.987 148.75,950.811 149.032,952.158 149.349,950.535 149.706,949.561 150.107,951.76 150.558,952.605 151.066,952.539 151.638,952.749 152.28,953.64 153.003,954.194 153.817,952.58 154.732,953.22 155.761,947.705 156.919,943.715 158.222,946.644 159.688,944.54 161.337,949.999 163.192,950.874 165.279,949.638 167.627,951.796 170.268,950.921 173.24,953.678 176.583,955.09 180.344,953.059 184.574,953.804 189.334,951.658 192.327,954.638 194.776,971.938 197.532,979.385 200.633,977.84 204.12,976.396 208.044,977.137 212.459,976.189 217.425,972.101 223.012,970.821 229.297,973.938 236.368,968.986 244.323,969.245 253.272,967.339 263.339,968.339 274.666,963.353 287.408,954.213 301.653,955.537 314.774,945.029 316.405,944.895 331.165,967.72 347.771,958.506 366.453,958.213 383.296,963.096 400.704,955.854 420.287,931.474 438.805,903.883 454.743,886.873 460.399,881.9 470.467,929.026 481.794,935.565 492.311,929.321 504.143,922.117 516.369,919.298 527.401,884.834 539.811,891.461 549.322,878.192 560.021,890.602 568.376,858.376 577.775,878.591 584.952,854.983 593.026,835.344 600.951,870.731 607.748,876.969 615.395,872.848 623.998,877.434 632.114,897.018 640.083,893.927 649.049,889.084 659.135,895.574 667.861,904.27 677.175,911.65 687.272,916.434 697.872,898.377 709.797,933.977 720.23,943.927 731.622,922.528 744.439,950.391 756.235,942.277 769.507,933.851 784.436,940.974 795.903,928.006 808.803,948.637 818.642,951.388 829.71,944.44 842.162,942.58 854.856,930.257 869.137,928.09 881.865,918.337 896.185,924.511 908.489,926.73 921.639,932.054 935.012,927.113 950.055,943.083 961.607,958.802 974.603,959.981 989.224,968.916 1005.29,958.828 1023.35,942.273 1042.54,949.26 1055.35,949.032 1069.75,951.365 1083.59,952.127 1098.87,943.134 1116.06,957.728 1128.38,951.102 1142.25,957.783 1154.15,956.971 1167.54,967.655 1182.31,964.913 1198.93,961.648 1217.62,959.532 1237.44,946.038 1259.74,948.89 1275.98,954.535 1293.05,964.844 1312.25,961.301 1333.84,956.726 1357.74,957.458 1376.01,954.213 1396.56,959.763 1415.75,948.701 1437.33,924.79 1458.3,853.092 1473.38,818.852 1485.55,713.751 1491.54,688.004 1497.71,643.787 1503.4,663.792 1508.45,709.957 1513.39,701.431 1518.46,708.059 1523.22,587.837 1527.82,546.242 1531.82,625.797 1535.53,576.471 1539.35,414.825 1542.14,321.787 1544.67,353.147 1544.71,354.7 1547.02,718.681 1549.63,664.926 1552.56,632.983 1555.48,612.686 1558.46,524.579 1561.45,457.864 1564.21,420.129 1566.89,495.886 1569.45,534.682 1572.11,498.897 1574.77,571.37 1577.36,510.222 1580.05,499.474 1582.56,458.26 1585.01,388.851 1587.3,358.945 1587.88,338.447 1590.02,623.1 1592.43,648.188 1594.98,619.483 1597.84,590.996 1601.06,611.001 1604.29,608.571 1607.92,654.122 1611.56,591.102 1615.67,587.069 1619.71,647.786 1623.69,599.468 1628.17,665.511 1632.2,670.971 1636.73,702.65 1641.17,681.584 1646.16,714.652 1650.63,792.109 1655.67,789.741 1661.23,790.452 1667.06,805.082 1672.87,857.823 1679.39,873.455 1685.92,862.257 1693.26,849.394 1700.93,835.196 1708.91,851.708 1716.15,856.414 1724.28,851.024 1732.9,829.977 1742.58,817.373 1751.76,853.81 1759.37,831.635 1767.93,813.667 1776.49,829.407 1783.82,834.675 1791.85,805.906 1800.88,798.809 1808.59,703.098 1816.71,574.909 1822.76,587.583 1828.2,629.225 1833.4,582.346 1838.76,579.385 1843.54,653.447 1848.14,593.816 1853.08,480.947 1857.41,440.567 1861.34,394.811 1864.98,209.995 1867.81,86.1857 1870.34,131.901 1872.6,312.803 1874.86,293.074 1877.09,287.688 1879.18,293.039 1881.24,305.741 1883.17,406.311 1885.17,397.734 1887.16,337.357 1889,371.656 1890.9,683.328 1893.03,680.561 1895.3,631.941 1897.69,684.133 1900.1,728.579 1902.74,779.102 1905.67,813.694 1907.59,798.969 1910.82,891.48 1914.45,914.813 1918.54,891.63 1923.14,867.557 1928.31,857.236 1933.84,873.916 1939.27,862.628 1945.39,804.028 1951.66,824.609 1957.28,820.194 1963.61,799.218 1970.22,823.943 1975.91,833.317 1982.31,827.355 1989.03,816.071 1995.84,792.856 2002.91,779.329 2009.58,777.315 2016.02,786.45 2022.18,798.067 2028.29,794.365 2034.68,825.314 2040.5,829.763 2047.06,854.016 2053.17,864.959 2060.04,859.225 2067.25,863.807 2074.28,863.032 2081.58,878.755 2088.62,886.154 2096.35,892.406 2104.3,912.469 2112.29,903.511 2121.27,881.392 2130.36,880.624 2138.62,892.873 2146.78,895.535 2155.36,915.397 2163.84,920.738 2173.36,907.799 2183.93,909.007 2193.32,918.053 2195.75,921.928 2205.24,962.941 2215.91,968.96 2227.92,966.083 2241.43,970.03 2255.23,965.167 2270.75,954.256 2287.5,940.922 2304.67,948.581 2318.05,926.841 2333.09,927.956 2345.3,914.468 2352.76,923.893 "/>
<polyline clip-path="url(#clip362)" style="stroke:#e26f46; stroke-linecap:round; stroke-linejoin:round; stroke-width:8; stroke-opacity:1; fill:none" points="147.478,996.057 147.608,996.035 147.747,996.013 147.903,995.988 148.079,995.958 148.277,995.924 148.5,995.886 148.75,995.844 149.032,995.796 149.349,995.742 149.706,995.68 150.107,995.61 150.558,995.536 151.066,995.454 151.638,995.361 152.28,995.256 153.003,995.143 153.817,995.012 154.732,994.863 155.761,994.686 156.919,994.467 158.222,994.204 159.688,993.92 161.337,993.591 163.192,993.269 165.279,992.921 167.627,992.538 170.268,992.083 173.24,991.587 176.583,991.038 180.344,990.466 184.574,989.774 189.334,989.023 192.327,988.574 194.776,1001.67 197.532,1001.56 200.633,1001.42 204.12,1001.23 208.044,1001.02 212.459,1000.76 217.425,1000.44 223.012,999.992 229.297,999.535 236.368,998.954 244.323,998.254 253.272,997.382 263.339,996.4 274.666,995.187 287.408,993.683 301.653,991.418 314.774,988.897 316.405,988.574 331.165,1018.34 347.771,1016.49 366.453,1013.69 383.296,1011.33 400.704,1008.93 420.287,1005.46 438.805,999.232 454.743,992.503 460.399,988.574 470.467,1353.96 481.794,1350.76 492.311,1347.72 504.143,1344.33 516.369,1341.08 527.401,1336.78 539.811,1330.67 549.322,1326.07 560.021,1321.18 568.376,1316.96 577.775,1311.64 584.952,1307.6 593.026,1302.6 600.951,1297.85 607.748,1294.54 615.395,1290.47 623.998,1286.09 632.114,1282.58 640.083,1279.41 649.049,1275.08 659.135,1270.82 667.861,1267.57 677.175,1264.16 687.272,1260.83 697.872,1256.83 709.797,1253.24 720.23,1250.99 731.622,1248.03 744.439,1245.27 756.235,1242.91 769.507,1239.52 784.436,1235.91 795.903,1232.91 808.803,1230.13 818.642,1228.21 829.71,1226.21 842.162,1223.59 854.856,1220.51 869.137,1216.48 881.865,1212.96 896.185,1208.3 908.489,1205.08 921.639,1201.53 935.012,1197.34 950.055,1193.57 961.607,1191.43 974.603,1189.84 989.224,1188.14 1005.29,1186.36 1023.35,1183.5 1042.54,1180.03 1055.35,1177.67 1069.75,1175.35 1083.59,1173.37 1098.87,1170.52 1116.06,1167.81 1128.38,1165.95 1142.25,1163.66 1154.15,1162.12 1167.54,1160.42 1182.31,1158.91 1198.93,1156.98 1217.62,1154.55 1237.44,1151.58 1259.74,1147.22 1275.98,1144.77 1293.05,1142.28 1312.25,1139.83 1333.84,1136.66 1357.74,1133.72 1376.01,1130.98 1396.56,1127.26 1415.75,1124.29 1437.33,1119.8 1458.3,1111.9 1473.38,1100.49 1485.55,1088.27 1491.54,1079.11 1497.71,1070.02 1503.4,1061.05 1508.45,1054.09 1513.39,1047.69 1518.46,1041.48 1523.22,1034.87 1527.82,1026.42 1531.82,1018.89 1535.53,1012.68 1539.35,1004.53 1542.14,996.087 1544.67,988.681 1544.71,988.574 1547.02,1074.97 1549.63,1071.47 1552.56,1066.91 1555.48,1061.88 1558.46,1056.36 1561.45,1049.32 1564.21,1042.61 1566.89,1036.03 1569.45,1030.64 1572.11,1025.03 1574.77,1019.79 1577.36,1014.63 1580.05,1008.79 1582.56,1002.97 1585.01,996.682 1587.3,990.367 1587.88,988.574 1590.02,1384.24 1592.43,1380.33 1594.98,1376.16 1597.84,1371.11 1601.06,1365.52 1604.29,1359.93 1607.92,1353.95 1611.56,1348.59 1615.67,1340.82 1619.71,1334.21 1623.69,1327.58 1628.17,1320.17 1632.2,1313.95 1636.73,1307.61 1641.17,1301.61 1646.16,1295.36 1650.63,1290.84 1655.67,1286.29 1661.23,1281.15 1667.06,1276.09 1672.87,1271.77 1679.39,1268.21 1685.92,1264.65 1693.26,1260.41 1700.93,1255.64 1708.91,1250.28 1716.15,1245.69 1724.28,1240.76 1732.9,1234.86 1742.58,1227.07 1751.76,1220.91 1759.37,1216.19 1767.93,1209.36 1776.49,1202.88 1783.82,1197.85 1791.85,1190.87 1800.88,1183.56 1808.59,1175.81 1816.71,1163.42 1822.76,1152.11 1828.2,1142.5 1833.4,1132.84 1838.76,1122.83 1843.54,1114.82 1848.14,1107.09 1853.08,1096.79 1857.41,1086.62 1861.34,1076.48 1864.98,1066.25 1867.81,1055.39 1870.34,1044.99 1872.6,1037.23 1874.86,1030.1 1877.09,1022.74 1879.18,1016.47 1881.24,1009.7 1883.17,1004.72 1885.17,999.502 1887.16,993.784 1889,988.574 1890.9,1008.66 1893.03,1005.66 1895.3,1002.17 1897.69,998.65 1900.1,995.506 1902.74,992.749 1905.67,990.193 1907.59,988.574 1910.82,1153.23 1914.45,1151.85 1918.54,1150.33 1923.14,1148.01 1928.31,1144.96 1933.84,1141.75 1939.27,1138.68 1945.39,1134.21 1951.66,1128.94 1957.28,1124.62 1963.61,1119.61 1970.22,1114.87 1975.91,1110.66 1982.31,1106.21 1989.03,1101.54 1995.84,1095.57 2002.91,1088.97 2009.58,1082.52 2016.02,1076.83 2022.18,1071.82 2028.29,1066.65 2034.68,1061.88 2040.5,1057.49 2047.06,1053.32 2053.17,1049.46 2060.04,1045.72 2067.25,1041.57 2074.28,1037.91 2081.58,1034.1 2088.62,1030.62 2096.35,1026.91 2104.3,1023.72 2112.29,1020.84 2121.27,1016.94 2130.36,1012.31 2138.62,1008.4 2146.78,1005.18 2155.36,1001.74 2163.84,998.982 2173.36,996.064 2183.93,992.342 2193.32,989.291 2195.75,988.574 2205.24,1034.27 2215.91,1033.12 2227.92,1031.8 2241.43,1030.32 2255.23,1028.94 2270.75,1026.61 2287.5,1023.46 2304.67,1020.05 2318.05,1016.92 2333.09,1012.68 2345.3,1009.48 2352.76,1007.26 "/>
<path clip-path="url(#clip360)" d="M220.987 248.629 L530.612 248.629 L530.612 93.1086 L220.987 93.1086  Z" fill="#ffffff" fill-rule="evenodd" fill-opacity="1"/>
<polyline clip-path="url(#clip360)" style="stroke:#000000; stroke-linecap:round; stroke-linejoin:round; stroke-width:4; stroke-opacity:1; fill:none" points="220.987,248.629 530.612,248.629 530.612,93.1086 220.987,93.1086 220.987,248.629 "/>
<polyline clip-path="url(#clip360)" style="stroke:#009af9; stroke-linecap:round; stroke-linejoin:round; stroke-width:8; stroke-opacity:1; fill:none" points="245.49,144.949 392.509,144.949 "/>
<path clip-path="url(#clip360)" d="M417.012 151.997 L417.012 136.303 L421.271 136.303 L421.271 151.835 Q421.271 155.516 422.706 157.368 Q424.141 159.196 427.012 159.196 Q430.461 159.196 432.452 156.997 Q434.466 154.798 434.466 151.002 L434.466 136.303 L438.725 136.303 L438.725 162.229 L434.466 162.229 L434.466 158.247 Q432.915 160.608 430.854 161.766 Q428.817 162.9 426.109 162.9 Q421.641 162.9 419.327 160.122 Q417.012 157.344 417.012 151.997 M427.729 135.678 L427.729 135.678 Z" fill="#000000" fill-rule="nonzero" fill-opacity="1" /><path clip-path="url(#clip360)" d="M447.104 126.21 L456.919 126.21 L456.919 129.52 L451.364 129.52 L451.364 165.168 L456.919 165.168 L456.919 168.479 L447.104 168.479 L447.104 126.21 Z" fill="#000000" fill-rule="nonzero" fill-opacity="1" /><path clip-path="url(#clip360)" d="M467.405 158.293 L475.044 158.293 L475.044 131.928 L466.734 133.595 L466.734 129.335 L474.998 127.669 L479.674 127.669 L479.674 158.293 L487.312 158.293 L487.312 162.229 L467.405 162.229 L467.405 158.293 Z" fill="#000000" fill-rule="nonzero" fill-opacity="1" /><path clip-path="url(#clip360)" d="M506.109 126.21 L506.109 168.479 L496.294 168.479 L496.294 165.168 L501.826 165.168 L501.826 129.52 L496.294 129.52 L496.294 126.21 L506.109 126.21 Z" fill="#000000" fill-rule="nonzero" fill-opacity="1" /><polyline clip-path="url(#clip360)" style="stroke:#e26f46; stroke-linecap:round; stroke-linejoin:round; stroke-width:8; stroke-opacity:1; fill:none" points="245.49,196.789 392.509,196.789 "/>
<path clip-path="url(#clip360)" d="M417.012 203.837 L417.012 188.143 L421.271 188.143 L421.271 203.675 Q421.271 207.356 422.706 209.208 Q424.141 211.036 427.012 211.036 Q430.461 211.036 432.452 208.837 Q434.466 206.638 434.466 202.842 L434.466 188.143 L438.725 188.143 L438.725 214.069 L434.466 214.069 L434.466 210.087 Q432.915 212.448 430.854 213.606 Q428.817 214.74 426.109 214.74 Q421.641 214.74 419.327 211.962 Q417.012 209.184 417.012 203.837 M427.729 187.518 L427.729 187.518 Z" fill="#000000" fill-rule="nonzero" fill-opacity="1" /><path clip-path="url(#clip360)" d="M447.104 178.05 L456.919 178.05 L456.919 181.36 L451.364 181.36 L451.364 217.008 L456.919 217.008 L456.919 220.319 L447.104 220.319 L447.104 178.05 Z" fill="#000000" fill-rule="nonzero" fill-opacity="1" /><path clip-path="url(#clip360)" d="M470.623 210.133 L486.942 210.133 L486.942 214.069 L464.998 214.069 L464.998 210.133 Q467.66 207.379 472.243 202.749 Q476.85 198.096 478.03 196.754 Q480.275 194.231 481.155 192.495 Q482.058 190.735 482.058 189.046 Q482.058 186.291 480.113 184.555 Q478.192 182.819 475.09 182.819 Q472.891 182.819 470.438 183.583 Q468.007 184.347 465.229 185.897 L465.229 181.175 Q468.053 180.041 470.507 179.462 Q472.961 178.884 474.998 178.884 Q480.368 178.884 483.562 181.569 Q486.757 184.254 486.757 188.745 Q486.757 190.874 485.947 192.796 Q485.16 194.694 483.053 197.286 Q482.475 197.958 479.373 201.175 Q476.271 204.37 470.623 210.133 Z" fill="#000000" fill-rule="nonzero" fill-opacity="1" /><path clip-path="url(#clip360)" d="M506.109 178.05 L506.109 220.319 L496.294 220.319 L496.294 217.008 L501.826 217.008 L501.826 181.36 L496.294 181.36 L496.294 178.05 L506.109 178.05 Z" fill="#000000" fill-rule="nonzero" fill-opacity="1" /></svg>
