<?xml version="1.0" encoding="utf-8"?>
<svg xmlns="http://www.w3.org/2000/svg" xmlns:xlink="http://www.w3.org/1999/xlink" width="600" height="400" viewBox="0 0 2400 1600">
<defs>
  <clipPath id="clip180">
    <rect x="0" y="0" width="2400" height="1600"/>
  </clipPath>
</defs>
<path clip-path="url(#clip180)" d="M0 1600 L2400 1600 L2400 0 L0 0  Z" fill="#ffffff" fill-rule="evenodd" fill-opacity="1"/>
<defs>
  <clipPath id="clip181">
    <rect x="480" y="0" width="1681" height="1600"/>
  </clipPath>
</defs>
<path clip-path="url(#clip180)" d="M156.598 1423.18 L2352.76 1423.18 L2352.76 47.2441 L156.598 47.2441  Z" fill="#ffffff" fill-rule="evenodd" fill-opacity="1"/>
<defs>
  <clipPath id="clip182">
    <rect x="156" y="47" width="2197" height="1377"/>
  </clipPath>
</defs>
<polyline clip-path="url(#clip182)" style="stroke:#000000; stroke-linecap:round; stroke-linejoin:round; stroke-width:2; stroke-opacity:0.1; fill:none" points="156.598,1423.18 156.598,47.2441 "/>
<polyline clip-path="url(#clip182)" style="stroke:#000000; stroke-linecap:round; stroke-linejoin:round; stroke-width:2; stroke-opacity:0.1; fill:none" points="595.83,1423.18 595.83,47.2441 "/>
<polyline clip-path="url(#clip182)" style="stroke:#000000; stroke-linecap:round; stroke-linejoin:round; stroke-width:2; stroke-opacity:0.1; fill:none" points="1035.06,1423.18 1035.06,47.2441 "/>
<polyline clip-path="url(#clip182)" style="stroke:#000000; stroke-linecap:round; stroke-linejoin:round; stroke-width:2; stroke-opacity:0.1; fill:none" points="1474.29,1423.18 1474.29,47.2441 "/>
<polyline clip-path="url(#clip182)" style="stroke:#000000; stroke-linecap:round; stroke-linejoin:round; stroke-width:2; stroke-opacity:0.1; fill:none" points="1913.52,1423.18 1913.52,47.2441 "/>
<polyline clip-path="url(#clip182)" style="stroke:#000000; stroke-linecap:round; stroke-linejoin:round; stroke-width:2; stroke-opacity:0.1; fill:none" points="2352.76,1423.18 2352.76,47.2441 "/>
<polyline clip-path="url(#clip180)" style="stroke:#000000; stroke-linecap:round; stroke-linejoin:round; stroke-width:4; stroke-opacity:1; fill:none" points="156.598,1423.18 2352.76,1423.18 "/>
<polyline clip-path="url(#clip180)" style="stroke:#000000; stroke-linecap:round; stroke-linejoin:round; stroke-width:4; stroke-opacity:1; fill:none" points="156.598,1423.18 156.598,1404.28 "/>
<polyline clip-path="url(#clip180)" style="stroke:#000000; stroke-linecap:round; stroke-linejoin:round; stroke-width:4; stroke-opacity:1; fill:none" points="595.83,1423.18 595.83,1404.28 "/>
<polyline clip-path="url(#clip180)" style="stroke:#000000; stroke-linecap:round; stroke-linejoin:round; stroke-width:4; stroke-opacity:1; fill:none" points="1035.06,1423.18 1035.06,1404.28 "/>
<polyline clip-path="url(#clip180)" style="stroke:#000000; stroke-linecap:round; stroke-linejoin:round; stroke-width:4; stroke-opacity:1; fill:none" points="1474.29,1423.18 1474.29,1404.28 "/>
<polyline clip-path="url(#clip180)" style="stroke:#000000; stroke-linecap:round; stroke-linejoin:round; stroke-width:4; stroke-opacity:1; fill:none" points="1913.52,1423.18 1913.52,1404.28 "/>
<polyline clip-path="url(#clip180)" style="stroke:#000000; stroke-linecap:round; stroke-linejoin:round; stroke-width:4; stroke-opacity:1; fill:none" points="2352.76,1423.18 2352.76,1404.28 "/>
<path clip-path="url(#clip180)" d="M156.598 1454.1 Q152.987 1454.1 151.158 1457.66 Q149.353 1461.2 149.353 1468.33 Q149.353 1475.44 151.158 1479.01 Q152.987 1482.55 156.598 1482.55 Q160.232 1482.55 162.038 1479.01 Q163.867 1475.44 163.867 1468.33 Q163.867 1461.2 162.038 1457.66 Q160.232 1454.1 156.598 1454.1 M156.598 1450.39 Q162.408 1450.39 165.464 1455 Q168.543 1459.58 168.543 1468.33 Q168.543 1477.06 165.464 1481.67 Q162.408 1486.25 156.598 1486.25 Q150.788 1486.25 147.709 1481.67 Q144.654 1477.06 144.654 1468.33 Q144.654 1459.58 147.709 1455 Q150.788 1450.39 156.598 1450.39 Z" fill="#000000" fill-rule="nonzero" fill-opacity="1" /><path clip-path="url(#clip180)" d="M590.483 1481.64 L606.802 1481.64 L606.802 1485.58 L584.858 1485.58 L584.858 1481.64 Q587.52 1478.89 592.103 1474.26 Q596.709 1469.61 597.89 1468.27 Q600.135 1465.74 601.015 1464.01 Q601.918 1462.25 601.918 1460.56 Q601.918 1457.8 599.973 1456.07 Q598.052 1454.33 594.95 1454.33 Q592.751 1454.33 590.297 1455.09 Q587.867 1455.86 585.089 1457.41 L585.089 1452.69 Q587.913 1451.55 590.367 1450.97 Q592.821 1450.39 594.858 1450.39 Q600.228 1450.39 603.422 1453.08 Q606.617 1455.77 606.617 1460.26 Q606.617 1462.39 605.807 1464.31 Q605.02 1466.2 602.913 1468.8 Q602.334 1469.47 599.233 1472.69 Q596.131 1475.88 590.483 1481.64 Z" fill="#000000" fill-rule="nonzero" fill-opacity="1" /><path clip-path="url(#clip180)" d="M1038.07 1455.09 L1026.27 1473.54 L1038.07 1473.54 L1038.07 1455.09 M1036.84 1451.02 L1042.72 1451.02 L1042.72 1473.54 L1047.65 1473.54 L1047.65 1477.43 L1042.72 1477.43 L1042.72 1485.58 L1038.07 1485.58 L1038.07 1477.43 L1022.47 1477.43 L1022.47 1472.92 L1036.84 1451.02 Z" fill="#000000" fill-rule="nonzero" fill-opacity="1" /><path clip-path="url(#clip180)" d="M1474.7 1466.44 Q1471.55 1466.44 1469.7 1468.59 Q1467.87 1470.74 1467.87 1474.49 Q1467.87 1478.22 1469.7 1480.39 Q1471.55 1482.55 1474.7 1482.55 Q1477.85 1482.55 1479.67 1480.39 Q1481.53 1478.22 1481.53 1474.49 Q1481.53 1470.74 1479.67 1468.59 Q1477.85 1466.44 1474.7 1466.44 M1483.98 1451.78 L1483.98 1456.04 Q1482.22 1455.21 1480.42 1454.77 Q1478.63 1454.33 1476.87 1454.33 Q1472.24 1454.33 1469.79 1457.45 Q1467.36 1460.58 1467.01 1466.9 Q1468.38 1464.89 1470.44 1463.82 Q1472.5 1462.73 1474.98 1462.73 Q1480.18 1462.73 1483.19 1465.9 Q1486.23 1469.05 1486.23 1474.49 Q1486.23 1479.82 1483.08 1483.03 Q1479.93 1486.25 1474.7 1486.25 Q1468.7 1486.25 1465.53 1481.67 Q1462.36 1477.06 1462.36 1468.33 Q1462.36 1460.14 1466.25 1455.28 Q1470.14 1450.39 1476.69 1450.39 Q1478.45 1450.39 1480.23 1450.74 Q1482.04 1451.09 1483.98 1451.78 Z" fill="#000000" fill-rule="nonzero" fill-opacity="1" /><path clip-path="url(#clip180)" d="M1913.52 1469.17 Q1910.19 1469.17 1908.27 1470.95 Q1906.37 1472.73 1906.37 1475.86 Q1906.37 1478.98 1908.27 1480.77 Q1910.19 1482.55 1913.52 1482.55 Q1916.86 1482.55 1918.78 1480.77 Q1920.7 1478.96 1920.7 1475.86 Q1920.7 1472.73 1918.78 1470.95 Q1916.88 1469.17 1913.52 1469.17 M1908.85 1467.18 Q1905.84 1466.44 1904.15 1464.38 Q1902.48 1462.32 1902.48 1459.35 Q1902.48 1455.21 1905.42 1452.8 Q1908.39 1450.39 1913.52 1450.39 Q1918.69 1450.39 1921.63 1452.8 Q1924.57 1455.21 1924.57 1459.35 Q1924.57 1462.32 1922.88 1464.38 Q1921.21 1466.44 1918.22 1467.18 Q1921.6 1467.96 1923.48 1470.26 Q1925.38 1472.55 1925.38 1475.86 Q1925.38 1480.88 1922.3 1483.57 Q1919.24 1486.25 1913.52 1486.25 Q1907.81 1486.25 1904.73 1483.57 Q1901.67 1480.88 1901.67 1475.86 Q1901.67 1472.55 1903.57 1470.26 Q1905.47 1467.96 1908.85 1467.18 M1907.14 1459.79 Q1907.14 1462.48 1908.8 1463.98 Q1910.49 1465.49 1913.52 1465.49 Q1916.53 1465.49 1918.22 1463.98 Q1919.94 1462.48 1919.94 1459.79 Q1919.94 1457.11 1918.22 1455.6 Q1916.53 1454.1 1913.52 1454.1 Q1910.49 1454.1 1908.8 1455.6 Q1907.14 1457.11 1907.14 1459.79 Z" fill="#000000" fill-rule="nonzero" fill-opacity="1" /><path clip-path="url(#clip180)" d="M2327.44 1481.64 L2335.08 1481.64 L2335.08 1455.28 L2326.77 1456.95 L2326.77 1452.69 L2335.04 1451.02 L2339.71 1451.02 L2339.71 1481.64 L2347.35 1481.64 L2347.35 1485.58 L2327.44 1485.58 L2327.44 1481.64 Z" fill="#000000" fill-rule="nonzero" fill-opacity="1" /><path clip-path="url(#clip180)" d="M2366.8 1454.1 Q2363.18 1454.1 2361.36 1457.66 Q2359.55 1461.2 2359.55 1468.33 Q2359.55 1475.44 2361.36 1479.01 Q2363.18 1482.55 2366.8 1482.55 Q2370.43 1482.55 2372.23 1479.01 Q2374.06 1475.44 2374.06 1468.33 Q2374.06 1461.2 2372.23 1457.66 Q2370.43 1454.1 2366.8 1454.1 M2366.8 1450.39 Q2372.61 1450.39 2375.66 1455 Q2378.74 1459.58 2378.74 1468.33 Q2378.74 1477.06 2375.66 1481.67 Q2372.61 1486.25 2366.8 1486.25 Q2360.99 1486.25 2357.91 1481.67 Q2354.85 1477.06 2354.85 1468.33 Q2354.85 1459.58 2357.91 1455 Q2360.99 1450.39 2366.8 1450.39 Z" fill="#000000" fill-rule="nonzero" fill-opacity="1" /><path clip-path="url(#clip180)" d="M1253.74 1522.27 L1253.74 1532.4 L1265.8 1532.4 L1265.8 1536.95 L1253.74 1536.95 L1253.74 1556.3 Q1253.74 1560.66 1254.92 1561.9 Q1256.13 1563.14 1259.79 1563.14 L1265.8 1563.14 L1265.8 1568.04 L1259.79 1568.04 Q1253.01 1568.04 1250.43 1565.53 Q1247.85 1562.98 1247.85 1556.3 L1247.85 1536.95 L1243.55 1536.95 L1243.55 1532.4 L1247.85 1532.4 L1247.85 1522.27 L1253.74 1522.27 Z" fill="#000000" fill-rule="nonzero" fill-opacity="1" /><polyline clip-path="url(#clip182)" style="stroke:#000000; stroke-linecap:round; stroke-linejoin:round; stroke-width:2; stroke-opacity:0.1; fill:none" points="156.598,1397.1 2352.76,1397.1 "/>
<polyline clip-path="url(#clip182)" style="stroke:#000000; stroke-linecap:round; stroke-linejoin:round; stroke-width:2; stroke-opacity:0.1; fill:none" points="156.598,1192.41 2352.76,1192.41 "/>
<polyline clip-path="url(#clip182)" style="stroke:#000000; stroke-linecap:round; stroke-linejoin:round; stroke-width:2; stroke-opacity:0.1; fill:none" points="156.598,987.707 2352.76,987.707 "/>
<polyline clip-path="url(#clip182)" style="stroke:#000000; stroke-linecap:round; stroke-linejoin:round; stroke-width:2; stroke-opacity:0.1; fill:none" points="156.598,783.008 2352.76,783.008 "/>
<polyline clip-path="url(#clip182)" style="stroke:#000000; stroke-linecap:round; stroke-linejoin:round; stroke-width:2; stroke-opacity:0.1; fill:none" points="156.598,578.309 2352.76,578.309 "/>
<polyline clip-path="url(#clip182)" style="stroke:#000000; stroke-linecap:round; stroke-linejoin:round; stroke-width:2; stroke-opacity:0.1; fill:none" points="156.598,373.611 2352.76,373.611 "/>
<polyline clip-path="url(#clip182)" style="stroke:#000000; stroke-linecap:round; stroke-linejoin:round; stroke-width:2; stroke-opacity:0.1; fill:none" points="156.598,168.912 2352.76,168.912 "/>
<polyline clip-path="url(#clip180)" style="stroke:#000000; stroke-linecap:round; stroke-linejoin:round; stroke-width:4; stroke-opacity:1; fill:none" points="156.598,1423.18 156.598,47.2441 "/>
<polyline clip-path="url(#clip180)" style="stroke:#000000; stroke-linecap:round; stroke-linejoin:round; stroke-width:4; stroke-opacity:1; fill:none" points="156.598,1397.1 175.496,1397.1 "/>
<polyline clip-path="url(#clip180)" style="stroke:#000000; stroke-linecap:round; stroke-linejoin:round; stroke-width:4; stroke-opacity:1; fill:none" points="156.598,1192.41 175.496,1192.41 "/>
<polyline clip-path="url(#clip180)" style="stroke:#000000; stroke-linecap:round; stroke-linejoin:round; stroke-width:4; stroke-opacity:1; fill:none" points="156.598,987.707 175.496,987.707 "/>
<polyline clip-path="url(#clip180)" style="stroke:#000000; stroke-linecap:round; stroke-linejoin:round; stroke-width:4; stroke-opacity:1; fill:none" points="156.598,783.008 175.496,783.008 "/>
<polyline clip-path="url(#clip180)" style="stroke:#000000; stroke-linecap:round; stroke-linejoin:round; stroke-width:4; stroke-opacity:1; fill:none" points="156.598,578.309 175.496,578.309 "/>
<polyline clip-path="url(#clip180)" style="stroke:#000000; stroke-linecap:round; stroke-linejoin:round; stroke-width:4; stroke-opacity:1; fill:none" points="156.598,373.611 175.496,373.611 "/>
<polyline clip-path="url(#clip180)" style="stroke:#000000; stroke-linecap:round; stroke-linejoin:round; stroke-width:4; stroke-opacity:1; fill:none" points="156.598,168.912 175.496,168.912 "/>
<path clip-path="url(#clip180)" d="M63.4226 1382.9 Q59.8115 1382.9 57.9828 1386.47 Q56.1773 1390.01 56.1773 1397.14 Q56.1773 1404.25 57.9828 1407.81 Q59.8115 1411.35 63.4226 1411.35 Q67.0569 1411.35 68.8624 1407.81 Q70.6911 1404.25 70.6911 1397.14 Q70.6911 1390.01 68.8624 1386.47 Q67.0569 1382.9 63.4226 1382.9 M63.4226 1379.2 Q69.2328 1379.2 72.2883 1383.81 Q75.367 1388.39 75.367 1397.14 Q75.367 1405.87 72.2883 1410.47 Q69.2328 1415.06 63.4226 1415.06 Q57.6125 1415.06 54.5338 1410.47 Q51.4782 1405.87 51.4782 1397.14 Q51.4782 1388.39 54.5338 1383.81 Q57.6125 1379.2 63.4226 1379.2 Z" fill="#000000" fill-rule="nonzero" fill-opacity="1" /><path clip-path="url(#clip180)" d="M83.5845 1408.5 L88.4688 1408.5 L88.4688 1414.38 L83.5845 1414.38 L83.5845 1408.5 Z" fill="#000000" fill-rule="nonzero" fill-opacity="1" /><path clip-path="url(#clip180)" d="M108.654 1382.9 Q105.043 1382.9 103.214 1386.47 Q101.409 1390.01 101.409 1397.14 Q101.409 1404.25 103.214 1407.81 Q105.043 1411.35 108.654 1411.35 Q112.288 1411.35 114.094 1407.81 Q115.922 1404.25 115.922 1397.14 Q115.922 1390.01 114.094 1386.47 Q112.288 1382.9 108.654 1382.9 M108.654 1379.2 Q114.464 1379.2 117.52 1383.81 Q120.598 1388.39 120.598 1397.14 Q120.598 1405.87 117.52 1410.47 Q114.464 1415.06 108.654 1415.06 Q102.844 1415.06 99.765 1410.47 Q96.7095 1405.87 96.7095 1397.14 Q96.7095 1388.39 99.765 1383.81 Q102.844 1379.2 108.654 1379.2 Z" fill="#000000" fill-rule="nonzero" fill-opacity="1" /><path clip-path="url(#clip180)" d="M65.0198 1178.2 Q61.4087 1178.2 59.58 1181.77 Q57.7745 1185.31 57.7745 1192.44 Q57.7745 1199.55 59.58 1203.11 Q61.4087 1206.65 65.0198 1206.65 Q68.6541 1206.65 70.4596 1203.11 Q72.2883 1199.55 72.2883 1192.44 Q72.2883 1185.31 70.4596 1181.77 Q68.6541 1178.2 65.0198 1178.2 M65.0198 1174.5 Q70.83 1174.5 73.8855 1179.11 Q76.9642 1183.69 76.9642 1192.44 Q76.9642 1201.17 73.8855 1205.77 Q70.83 1210.36 65.0198 1210.36 Q59.2097 1210.36 56.131 1205.77 Q53.0754 1201.17 53.0754 1192.44 Q53.0754 1183.69 56.131 1179.11 Q59.2097 1174.5 65.0198 1174.5 Z" fill="#000000" fill-rule="nonzero" fill-opacity="1" /><path clip-path="url(#clip180)" d="M85.1818 1203.81 L90.066 1203.81 L90.066 1209.69 L85.1818 1209.69 L85.1818 1203.81 Z" fill="#000000" fill-rule="nonzero" fill-opacity="1" /><path clip-path="url(#clip180)" d="M104.279 1205.75 L120.598 1205.75 L120.598 1209.69 L98.6539 1209.69 L98.6539 1205.75 Q101.316 1203 105.899 1198.37 Q110.506 1193.71 111.686 1192.37 Q113.932 1189.85 114.811 1188.11 Q115.714 1186.35 115.714 1184.66 Q115.714 1181.91 113.77 1180.17 Q111.848 1178.44 108.746 1178.44 Q106.547 1178.44 104.094 1179.2 Q101.663 1179.96 98.8854 1181.51 L98.8854 1176.79 Q101.709 1175.66 104.163 1175.08 Q106.617 1174.5 108.654 1174.5 Q114.024 1174.5 117.219 1177.19 Q120.413 1179.87 120.413 1184.36 Q120.413 1186.49 119.603 1188.41 Q118.816 1190.31 116.709 1192.9 Q116.131 1193.57 113.029 1196.79 Q109.927 1199.99 104.279 1205.75 Z" fill="#000000" fill-rule="nonzero" fill-opacity="1" /><path clip-path="url(#clip180)" d="M62.9365 973.506 Q59.3254 973.506 57.4967 977.07 Q55.6912 980.612 55.6912 987.742 Q55.6912 994.848 57.4967 998.413 Q59.3254 1001.95 62.9365 1001.95 Q66.5707 1001.95 68.3763 998.413 Q70.205 994.848 70.205 987.742 Q70.205 980.612 68.3763 977.07 Q66.5707 973.506 62.9365 973.506 M62.9365 969.802 Q68.7467 969.802 71.8022 974.408 Q74.8809 978.992 74.8809 987.742 Q74.8809 996.468 71.8022 1001.07 Q68.7467 1005.66 62.9365 1005.66 Q57.1264 1005.66 54.0477 1001.07 Q50.9921 996.468 50.9921 987.742 Q50.9921 978.992 54.0477 974.408 Q57.1264 969.802 62.9365 969.802 Z" fill="#000000" fill-rule="nonzero" fill-opacity="1" /><path clip-path="url(#clip180)" d="M83.0984 999.107 L87.9827 999.107 L87.9827 1004.99 L83.0984 1004.99 L83.0984 999.107 Z" fill="#000000" fill-rule="nonzero" fill-opacity="1" /><path clip-path="url(#clip180)" d="M111.015 974.501 L99.2095 992.95 L111.015 992.95 L111.015 974.501 M109.788 970.427 L115.668 970.427 L115.668 992.95 L120.598 992.95 L120.598 996.839 L115.668 996.839 L115.668 1004.99 L111.015 1004.99 L111.015 996.839 L95.4132 996.839 L95.4132 992.325 L109.788 970.427 Z" fill="#000000" fill-rule="nonzero" fill-opacity="1" /><path clip-path="url(#clip180)" d="M63.2606 768.807 Q59.6495 768.807 57.8208 772.372 Q56.0152 775.913 56.0152 783.043 Q56.0152 790.149 57.8208 793.714 Q59.6495 797.256 63.2606 797.256 Q66.8948 797.256 68.7004 793.714 Q70.5291 790.149 70.5291 783.043 Q70.5291 775.913 68.7004 772.372 Q66.8948 768.807 63.2606 768.807 M63.2606 765.103 Q69.0707 765.103 72.1263 769.71 Q75.205 774.293 75.205 783.043 Q75.205 791.77 72.1263 796.376 Q69.0707 800.959 63.2606 800.959 Q57.4504 800.959 54.3717 796.376 Q51.3162 791.77 51.3162 783.043 Q51.3162 774.293 54.3717 769.71 Q57.4504 765.103 63.2606 765.103 Z" fill="#000000" fill-rule="nonzero" fill-opacity="1" /><path clip-path="url(#clip180)" d="M83.4225 794.409 L88.3067 794.409 L88.3067 800.288 L83.4225 800.288 L83.4225 794.409 Z" fill="#000000" fill-rule="nonzero" fill-opacity="1" /><path clip-path="url(#clip180)" d="M109.071 781.145 Q105.922 781.145 104.071 783.297 Q102.242 785.45 102.242 789.2 Q102.242 792.927 104.071 795.103 Q105.922 797.256 109.071 797.256 Q112.219 797.256 114.047 795.103 Q115.899 792.927 115.899 789.2 Q115.899 785.45 114.047 783.297 Q112.219 781.145 109.071 781.145 M118.353 766.492 L118.353 770.751 Q116.594 769.918 114.788 769.478 Q113.006 769.038 111.246 769.038 Q106.617 769.038 104.163 772.163 Q101.733 775.288 101.385 781.608 Q102.751 779.594 104.811 778.529 Q106.871 777.441 109.348 777.441 Q114.557 777.441 117.566 780.612 Q120.598 783.76 120.598 789.2 Q120.598 794.524 117.45 797.742 Q114.302 800.959 109.071 800.959 Q103.075 800.959 99.9039 796.376 Q96.7326 791.77 96.7326 783.043 Q96.7326 774.848 100.621 769.987 Q104.51 765.103 111.061 765.103 Q112.82 765.103 114.603 765.45 Q116.408 765.798 118.353 766.492 Z" fill="#000000" fill-rule="nonzero" fill-opacity="1" /><path clip-path="url(#clip180)" d="M63.5152 564.108 Q59.9041 564.108 58.0754 567.673 Q56.2699 571.215 56.2699 578.344 Q56.2699 585.451 58.0754 589.015 Q59.9041 592.557 63.5152 592.557 Q67.1494 592.557 68.955 589.015 Q70.7837 585.451 70.7837 578.344 Q70.7837 571.215 68.955 567.673 Q67.1494 564.108 63.5152 564.108 M63.5152 560.404 Q69.3254 560.404 72.3809 565.011 Q75.4596 569.594 75.4596 578.344 Q75.4596 587.071 72.3809 591.677 Q69.3254 596.261 63.5152 596.261 Q57.7051 596.261 54.6264 591.677 Q51.5708 587.071 51.5708 578.344 Q51.5708 569.594 54.6264 565.011 Q57.7051 560.404 63.5152 560.404 Z" fill="#000000" fill-rule="nonzero" fill-opacity="1" /><path clip-path="url(#clip180)" d="M83.6771 589.71 L88.5614 589.71 L88.5614 595.589 L83.6771 595.589 L83.6771 589.71 Z" fill="#000000" fill-rule="nonzero" fill-opacity="1" /><path clip-path="url(#clip180)" d="M108.746 579.177 Q105.413 579.177 103.492 580.96 Q101.594 582.742 101.594 585.867 Q101.594 588.992 103.492 590.775 Q105.413 592.557 108.746 592.557 Q112.08 592.557 114.001 590.775 Q115.922 588.969 115.922 585.867 Q115.922 582.742 114.001 580.96 Q112.103 579.177 108.746 579.177 M104.071 577.187 Q101.061 576.446 99.3715 574.386 Q97.7048 572.326 97.7048 569.363 Q97.7048 565.219 100.645 562.812 Q103.608 560.404 108.746 560.404 Q113.908 560.404 116.848 562.812 Q119.788 565.219 119.788 569.363 Q119.788 572.326 118.098 574.386 Q116.432 576.446 113.445 577.187 Q116.825 577.974 118.7 580.265 Q120.598 582.557 120.598 585.867 Q120.598 590.89 117.52 593.576 Q114.464 596.261 108.746 596.261 Q103.029 596.261 99.9502 593.576 Q96.8947 590.89 96.8947 585.867 Q96.8947 582.557 98.7928 580.265 Q100.691 577.974 104.071 577.187 M102.358 569.802 Q102.358 572.488 104.024 573.992 Q105.714 575.497 108.746 575.497 Q111.756 575.497 113.445 573.992 Q115.158 572.488 115.158 569.802 Q115.158 567.117 113.445 565.613 Q111.756 564.108 108.746 564.108 Q105.714 564.108 104.024 565.613 Q102.358 567.117 102.358 569.802 Z" fill="#000000" fill-rule="nonzero" fill-opacity="1" /><path clip-path="url(#clip180)" d="M54.2328 386.955 L61.8717 386.955 L61.8717 360.59 L53.5616 362.257 L53.5616 357.997 L61.8254 356.331 L66.5013 356.331 L66.5013 386.955 L74.1402 386.955 L74.1402 390.891 L54.2328 390.891 L54.2328 386.955 Z" fill="#000000" fill-rule="nonzero" fill-opacity="1" /><path clip-path="url(#clip180)" d="M83.5845 385.011 L88.4688 385.011 L88.4688 390.891 L83.5845 390.891 L83.5845 385.011 Z" fill="#000000" fill-rule="nonzero" fill-opacity="1" /><path clip-path="url(#clip180)" d="M108.654 359.409 Q105.043 359.409 103.214 362.974 Q101.409 366.516 101.409 373.645 Q101.409 380.752 103.214 384.317 Q105.043 387.858 108.654 387.858 Q112.288 387.858 114.094 384.317 Q115.922 380.752 115.922 373.645 Q115.922 366.516 114.094 362.974 Q112.288 359.409 108.654 359.409 M108.654 355.706 Q114.464 355.706 117.52 360.312 Q120.598 364.895 120.598 373.645 Q120.598 382.372 117.52 386.979 Q114.464 391.562 108.654 391.562 Q102.844 391.562 99.765 386.979 Q96.7095 382.372 96.7095 373.645 Q96.7095 364.895 99.765 360.312 Q102.844 355.706 108.654 355.706 Z" fill="#000000" fill-rule="nonzero" fill-opacity="1" /><path clip-path="url(#clip180)" d="M55.8301 182.257 L63.4689 182.257 L63.4689 155.891 L55.1588 157.558 L55.1588 153.299 L63.4226 151.632 L68.0985 151.632 L68.0985 182.257 L75.7374 182.257 L75.7374 186.192 L55.8301 186.192 L55.8301 182.257 Z" fill="#000000" fill-rule="nonzero" fill-opacity="1" /><path clip-path="url(#clip180)" d="M85.1818 180.312 L90.066 180.312 L90.066 186.192 L85.1818 186.192 L85.1818 180.312 Z" fill="#000000" fill-rule="nonzero" fill-opacity="1" /><path clip-path="url(#clip180)" d="M104.279 182.257 L120.598 182.257 L120.598 186.192 L98.6539 186.192 L98.6539 182.257 Q101.316 179.502 105.899 174.873 Q110.506 170.22 111.686 168.877 Q113.932 166.354 114.811 164.618 Q115.714 162.859 115.714 161.169 Q115.714 158.414 113.77 156.678 Q111.848 154.942 108.746 154.942 Q106.547 154.942 104.094 155.706 Q101.663 156.47 98.8854 158.021 L98.8854 153.299 Q101.709 152.164 104.163 151.586 Q106.617 151.007 108.654 151.007 Q114.024 151.007 117.219 153.692 Q120.413 156.377 120.413 160.868 Q120.413 162.998 119.603 164.919 Q118.816 166.817 116.709 169.41 Q116.131 170.081 113.029 173.298 Q109.927 176.493 104.279 182.257 Z" fill="#000000" fill-rule="nonzero" fill-opacity="1" /><polyline clip-path="url(#clip182)" style="stroke:#009af9; stroke-linecap:round; stroke-linejoin:round; stroke-width:8; stroke-opacity:1; fill:none" points="156.598,1192.41 158.797,1190.35 160.995,1188.27 163.193,1186.17 165.392,1184.04 167.59,1181.9 169.788,1179.73 171.987,1177.55 174.185,1175.34 176.383,1173.11 178.582,1170.85 180.78,1168.58 182.979,1166.28 185.177,1163.96 187.375,1161.61 189.574,1159.24 191.772,1156.85 193.97,1154.43 196.169,1151.99 198.367,1149.53 200.565,1147.03 202.764,1144.52 204.962,1141.98 207.16,1139.41 209.359,1136.82 211.557,1134.2 213.755,1131.56 215.954,1262.99 218.152,1261.64 220.351,1260.28 222.549,1258.91 224.747,1257.52 226.946,1256.11 229.144,1254.69 231.342,1253.26 233.541,1251.81 235.739,1323.73 237.937,1322.99 240.136,1322.24 242.334,1321.49 244.532,1320.73 246.731,1319.96 248.929,1319.19 251.128,1318.4 253.326,1317.61 255.524,1316.81 257.723,1316 259.921,1315.19 262.119,1314.36 264.318,1313.53 266.516,1312.69 268.714,1311.84 270.913,1310.98 273.111,1310.12 275.309,1309.24 277.508,1308.36 279.706,1307.46 281.905,1306.56 284.103,1305.65 286.301,1304.73 288.5,1303.8 290.698,1302.86 292.896,1301.92 295.095,1300.96 297.293,1299.99 299.491,1299.01 301.69,1298.03 303.888,1297.03 306.086,1296.02 308.285,1295.01 310.483,1293.98 312.682,1292.94 314.88,1291.89 317.078,1290.84 319.277,1289.77 321.475,1288.69 323.673,1287.6 325.872,1286.49 328.07,1285.38 330.268,1284.26 332.467,1283.12 334.665,1281.98 336.863,1280.82 339.062,1279.65 341.26,1278.47 343.458,1277.27 345.657,1276.07 347.855,1274.85 350.054,1273.62 352.252,1272.38 354.45,1271.12 356.649,1269.85 358.847,1268.57 361.045,1267.28 363.244,1265.97 365.442,1264.66 367.64,1263.32 369.839,1261.98 372.037,1260.62 374.235,1259.24 376.434,1257.86 378.632,1256.46 380.831,1255.04 383.029,1253.61 385.227,1252.17 387.426,1250.71 389.624,1249.24 391.822,1247.75 394.021,1246.25 396.219,1244.73 398.417,1243.2 400.616,1241.65 402.814,1240.09 405.012,1238.51 407.211,1236.91 409.409,1235.3 411.608,1233.67 413.806,1232.03 416.004,1230.37 418.203,1228.69 420.401,1226.99 422.599,1225.28 424.798,1223.55 426.996,1221.81 429.194,1220.04 431.393,1218.26 433.591,1216.46 435.789,1214.65 437.988,1212.81 440.186,1210.96 442.385,1209.08 444.583,1207.19 446.781,1205.28 448.98,1203.35 451.178,1201.4 453.376,1199.43 455.575,1197.45 457.773,1195.44 459.971,1193.41 462.17,1191.36 464.368,1189.29 466.566,1187.2 468.765,1185.09 470.963,1182.95 473.162,1180.8 475.36,1178.62 477.558,1176.43 479.757,1174.21 481.955,1171.96 484.153,1169.7 486.352,1167.41 488.55,1165.1 490.748,1162.77 492.947,1160.41 495.145,1158.03 497.343,1155.62 499.542,1153.19 501.74,1150.74 503.938,1148.26 506.137,1145.76 508.335,1143.23 510.534,1140.67 512.732,1138.1 514.93,1135.49 517.129,1132.86 519.327,1130.2 521.525,1127.51 523.724,1124.8 525.922,1122.06 528.12,1119.3 530.319,1116.5 532.517,1113.68 534.715,1110.83 536.914,1107.95 539.112,1105.04 541.311,1102.1 543.509,1099.13 545.707,1096.13 547.906,1093.1 550.104,1090.05 552.302,1086.96 554.501,1083.84 556.699,1080.69 558.897,1077.5 561.096,1074.29 563.294,1071.04 565.492,1067.76 567.691,1064.45 569.889,1061.1 572.088,1057.72 574.286,1054.3 576.484,1050.86 578.683,1047.37 580.881,1043.85 583.079,1040.3 585.278,1036.71 587.476,1033.08 589.674,1029.42 591.873,1025.72 594.071,1021.99 596.269,1018.21 598.468,1014.4 600.666,1010.55 602.865,1006.66 605.063,1002.74 607.261,998.769 609.46,994.762 611.658,990.715 613.856,986.626 616.055,982.497 618.253,978.326 620.451,974.113 622.65,969.858 624.848,965.56 627.046,961.219 629.245,956.834 631.443,952.405 633.641,947.931 635.84,943.412 638.038,938.848 640.237,934.237 642.435,929.581 644.633,924.877 646.832,920.126 649.03,915.328 651.228,910.481 653.427,905.585 655.625,900.64 657.823,895.645 660.022,890.6 662.22,885.504 664.418,880.357 666.617,875.158 668.815,869.907 671.014,864.603 673.212,859.246 675.41,853.835 677.609,848.369 679.807,842.849 682.005,837.273 684.204,831.641 686.402,825.952 688.6,820.205 690.799,814.401 692.997,808.539 695.195,802.618 697.394,796.637 699.592,790.596 701.791,784.494 703.989,778.331 706.187,772.107 708.386,765.819 710.584,759.468 712.782,753.054 714.981,746.575 717.179,740.031 719.377,733.421 721.576,726.744 723.774,720.001 725.972,713.19 728.171,706.31 730.369,699.361 732.568,692.342 734.766,685.253 736.964,678.092 739.163,670.859 741.361,663.553 743.559,656.174 745.758,648.721 747.956,641.193 750.154,633.588 752.353,625.908 754.551,618.15 756.749,610.314 758.948,602.399 761.146,594.404 763.344,586.329 765.543,578.172 767.741,569.933 769.94,561.612 772.138,553.206 774.336,544.716 776.535,536.14 778.733,527.479 780.931,518.729 783.13,509.892 785.328,500.966 787.526,491.95 789.725,482.843 791.923,473.645 794.121,464.353 796.32,454.969 798.518,445.49 800.717,435.916 802.915,426.245 805.113,416.478 807.312,406.612 809.51,396.647 811.708,386.582 813.907,376.415 816.105,366.147 818.303,355.775 820.502,345.299 822.7,334.718 824.898,324.03 827.097,313.234 829.295,302.33 831.494,291.316 833.692,280.192 835.89,268.956 838.089,257.606 840.287,246.142 842.485,234.563 844.684,222.868 846.882,211.055 849.08,199.123 851.279,187.071 853.477,174.898 855.675,162.602 857.874,150.182 860.072,137.638 862.271,124.967 864.469,112.169 866.667,99.2425 868.866,86.1857 871.064,735.051 873.262,728.39 875.461,721.663 877.659,714.868 879.857,708.004 882.056,701.072 884.254,694.07 886.452,686.997 888.651,679.853 890.849,672.637 893.048,665.349 895.246,657.987 897.444,650.552 899.643,643.041 901.841,635.455 904.039,627.793 906.238,620.053 908.436,612.236 910.634,604.34 912.833,596.364 915.031,588.309 917.229,580.172 919.428,571.953 921.626,563.652 923.824,555.267 926.023,971.951 928.221,967.674 930.42,963.354 932.618,958.99 934.816,954.583 937.015,950.131 939.213,945.634 941.411,941.092 943.61,936.505 945.808,931.871 948.006,927.19 950.205,1159.78 952.403,1157.4 954.601,1154.98 956.8,1152.55 958.998,1150.09 961.197,1147.6 963.395,1145.09 965.593,1142.56 967.792,1140 969.99,1137.41 972.188,1134.8 974.387,1132.16 976.585,1129.49 978.783,1126.8 980.982,1124.08 983.18,1121.34 985.378,1118.56 987.577,1115.76 989.775,1112.93 991.974,1110.07 994.172,1107.18 996.37,1104.27 998.569,1101.32 1000.77,1098.34 1002.97,1095.34 1005.16,1092.3 1007.36,1089.24 1009.56,1086.14 1011.76,1083.01 1013.96,1079.85 1016.16,1076.66 1018.35,1235.27 1020.55,1233.64 1022.75,1232 1024.95,1230.34 1027.15,1228.66 1029.35,1226.96 1031.54,1225.25 1033.74,1223.52 1035.94,1221.78 1038.14,1220.01 1040.34,1218.23 1042.54,1216.43 1044.73,1214.61 1046.93,1212.78 1049.13,1210.92 1051.33,1209.05 1053.53,1207.16 1055.73,1205.25 1057.92,1203.32 1060.12,1201.37 1062.32,1199.4 1064.52,1197.41 1066.72,1195.4 1068.92,1193.37 1071.11,1191.32 1073.31,1189.25 1075.51,1187.16 1077.71,1185.05 1079.91,1182.92 1082.11,1180.76 1084.3,1178.58 1086.5,1176.39 1088.7,1174.17 1090.9,1171.92 1093.1,1169.66 1095.3,1167.37 1097.49,1165.06 1099.69,1162.72 1101.89,1160.37 1104.09,1157.98 1106.29,1155.58 1108.49,1153.15 1110.68,1150.69 1112.88,1148.22 1115.08,1145.71 1117.28,1143.18 1119.48,1140.63 1121.68,1138.05 1123.87,1135.44 1126.07,1132.81 1128.27,1130.15 1130.47,1127.46 1132.67,1124.75 1134.87,1122.01 1137.07,1119.24 1139.26,1116.45 1141.46,1113.63 1143.66,1110.77 1145.86,1107.89 1148.06,1104.98 1150.26,1102.05 1152.45,1099.08 1154.65,1096.08 1156.85,1093.05 1159.05,1089.99 1161.25,1086.9 1163.45,1083.78 1165.64,1080.63 1167.84,1077.44 1170.04,1074.23 1172.24,1070.98 1174.44,1067.7 1176.64,1064.39 1178.83,1061.04 1181.03,1057.66 1183.23,1054.24 1185.43,1050.79 1187.63,1047.31 1189.83,1043.79 1192.02,1040.24 1194.22,1036.65 1196.42,1033.02 1198.62,1029.36 1200.82,1025.66 1203.02,1021.92 1205.21,1018.15 1207.41,1014.33 1209.61,1010.48 1211.81,1006.59 1214.01,1002.66 1216.21,998.696 1218.4,994.688 1220.6,990.64 1222.8,986.551 1225,982.42 1227.2,978.248 1229.4,974.035 1231.59,969.778 1233.79,965.479 1235.99,961.137 1238.19,956.751 1240.39,952.321 1242.59,947.847 1244.78,943.327 1246.98,938.762 1249.18,934.151 1251.38,929.494 1253.58,924.789 1255.78,920.038 1257.97,915.239 1260.17,910.391 1262.37,905.495 1264.57,900.549 1266.77,895.554 1268.97,890.508 1271.16,885.412 1273.36,880.264 1275.56,875.064 1277.76,869.813 1279.96,864.508 1282.16,859.15 1284.35,853.738 1286.55,848.271 1288.75,842.75 1290.95,837.173 1293.15,831.539 1295.35,825.85 1297.55,820.103 1299.74,814.298 1301.94,808.434 1304.14,802.512 1306.34,796.53 1308.54,790.488 1310.74,784.385 1312.93,778.221 1315.13,771.995 1317.33,765.706 1319.53,759.354 1321.73,752.938 1323.93,746.458 1326.12,739.912 1328.32,733.301 1330.52,726.622 1332.72,719.877 1334.92,713.064 1337.12,706.183 1339.31,699.232 1341.51,692.211 1343.71,685.12 1345.91,677.957 1348.11,670.722 1350.31,663.415 1352.5,656.033 1354.7,648.578 1356.9,641.048 1359.1,633.442 1361.3,625.759 1363.5,617.999 1365.69,610.161 1367.89,602.244 1370.09,594.248 1372.29,586.171 1374.49,578.012 1376.69,569.772 1378.88,561.449 1381.08,553.042 1383.28,544.55 1385.48,1181.82 1387.68,1179.66 1389.88,1177.47 1392.07,1286.18 1394.27,1285.07 1396.47,1283.94 1398.67,1282.8 1400.87,1281.65 1403.07,1280.49 1405.26,1279.32 1407.46,1278.13 1409.66,1276.93 1411.86,1275.72 1414.06,1274.5 1416.26,1273.27 1418.45,1272.02 1420.65,1270.77 1422.85,1269.49 1425.05,1268.21 1427.25,1266.91 1429.45,1265.6 1431.64,1264.28 1433.84,1262.95 1436.04,1261.6 1438.24,1260.23 1440.44,1258.86 1442.64,1257.46 1444.83,1256.06 1447.03,1254.64 1449.23,1253.21 1451.43,1251.76 1453.63,1250.3 1455.83,1248.82 1458.03,1247.33 1460.22,1245.82 1462.42,1244.3 1464.62,1242.76 1466.82,1241.21 1469.02,1239.64 1471.22,1238.06 1473.41,1236.46 1475.61,1234.84 1477.81,1233.21 1480.01,1231.56 1482.21,1229.9 1484.41,1228.21 1486.6,1226.51 1488.8,1224.8 1491,1223.06 1493.2,1221.31 1495.4,1219.54 1497.6,1217.76 1499.79,1215.95 1501.99,1214.13 1504.19,1212.29 1506.39,1210.43 1508.59,1208.55 1510.79,1206.66 1512.98,1204.74 1515.18,1202.81 1517.38,1200.85 1519.58,1198.88 1521.78,1196.88 1523.98,1194.87 1526.17,1192.83 1528.37,1190.78 1530.57,1188.7 1532.77,1186.61 1534.97,1184.49 1537.17,1182.35 1539.36,1180.19 1541.56,1178.01 1543.76,1175.8 1545.96,1173.58 1548.16,1171.33 1550.36,1169.06 1552.55,1166.76 1554.75,1164.44 1556.95,1162.1 1559.15,1159.74 1561.35,1157.35 1563.55,1154.94 1565.74,1152.5 1567.94,1150.04 1570.14,1147.56 1572.34,1145.05 1574.54,1142.51 1576.74,1139.95 1578.93,1137.36 1581.13,1134.75 1583.33,1132.11 1585.53,1129.44 1587.73,1126.75 1589.93,1124.03 1592.12,1121.28 1594.32,1118.51 1596.52,1115.71 1598.72,1112.88 1600.92,1110.02 1603.12,1107.13 1605.31,1104.21 1607.51,1101.27 1609.71,1098.29 1611.91,1095.28 1614.11,1092.25 1616.31,1089.18 1618.5,1086.08 1620.7,1082.95 1622.9,1079.79 1625.1,1076.6 1627.3,1073.38 1629.5,1070.12 1631.7,1066.83 1633.89,1063.51 1636.09,1060.15 1638.29,1056.76 1640.49,1053.34 1642.69,1049.88 1644.89,1046.39 1647.08,1042.86 1649.28,1039.29 1651.48,1035.69 1653.68,1032.06 1655.88,1028.39 1658.08,1024.68 1660.27,1020.93 1662.47,1017.14 1664.67,1013.32 1666.87,1009.46 1669.07,1005.56 1671.27,1001.62 1673.46,997.643 1675.66,993.625 1677.86,989.566 1680.06,985.466 1682.26,981.324 1684.46,977.142 1686.65,972.917 1688.85,968.649 1691.05,964.339 1693.25,959.985 1695.45,955.587 1697.65,951.146 1699.84,946.659 1702.04,942.128 1704.24,1167.33 1706.44,1165.02 1708.64,1162.68 1710.84,1160.32 1713.03,1157.94 1715.23,1155.53 1717.43,1153.1 1719.63,1150.65 1721.83,1148.17 1724.03,1145.67 1726.22,1143.14 1728.42,1140.58 1730.62,1138 1732.82,1135.39 1735.02,1132.76 1737.22,1130.1 1739.41,1127.42 1741.61,1124.7 1743.81,1121.96 1746.01,1119.19 1748.21,1116.4 1750.41,1113.57 1752.6,1110.72 1754.8,1107.84 1757,1104.93 1759.2,1101.99 1761.4,1099.02 1763.6,1096.02 1765.79,1092.99 1767.99,1089.93 1770.19,1086.84 1772.39,1083.72 1774.59,1238.84 1776.79,1237.25 1778.98,1235.64 1781.18,1234.01 1783.38,1232.37 1785.58,1230.71 1787.78,1229.04 1789.98,1227.35 1792.18,1225.64 1794.37,1223.92 1796.57,1222.17 1798.77,1220.42 1800.97,1218.64 1803.17,1216.84 1805.37,1215.03 1807.56,1213.2 1809.76,1211.35 1811.96,1209.48 1814.16,1207.59 1816.36,1205.68 1818.56,1203.76 1820.75,1201.81 1822.95,1199.85 1825.15,1197.86 1827.35,1195.86 1829.55,1193.84 1831.75,1191.79 1833.94,1189.72 1836.14,1187.64 1838.34,1185.53 1840.54,1183.4 1842.74,1181.25 1844.94,1179.08 1847.13,1176.89 1849.33,1174.67 1851.53,1172.43 1853.73,1170.17 1855.93,1167.89 1858.13,1165.59 1860.32,1163.26 1862.52,1160.9 1864.72,1158.53 1866.92,1156.13 1869.12,1153.7 1871.32,1151.25 1873.51,1148.78 1875.71,1146.28 1877.91,1143.76 1880.11,1141.21 1882.31,1138.64 1884.51,1136.04 1886.7,1133.41 1888.9,1130.76 1891.1,1128.08 1893.3,1125.37 1895.5,1122.64 1897.7,1258.49 1899.89,1257.1 1902.09,1255.69 1904.29,1254.26 1906.49,1252.83 1908.69,1251.38 1910.89,1249.91 1913.08,1248.43 1915.28,1246.93 1917.48,1245.42 1919.68,1243.9 1921.88,1319.73 1924.08,1318.95 1926.27,1318.17 1928.47,1317.37 1930.67,1316.57 1932.87,1315.76 1935.07,1314.94 1937.27,1314.11 1939.46,1313.28 1941.66,1312.44 1943.86,1311.58 1946.06,1310.72 1948.26,1309.85 1950.46,1308.98 1952.66,1308.09 1954.85,1307.19 1957.05,1306.29 1959.25,1305.38 1961.45,1304.45 1963.65,1303.52 1965.85,1349.84 1968.04,1349.37 1970.24,1348.89 1972.44,1348.4 1974.64,1347.91 1976.84,1347.42 1979.04,1346.92 1981.23,1346.41 1983.43,1345.9 1985.63,1345.39 1987.83,1344.87 1990.03,1344.34 1992.23,1343.81 1994.42,1343.27 1996.62,1369.92 1998.82,1369.64 2001.02,1369.37 2003.22,1369.09 2005.42,1368.81 2007.61,1368.52 2009.81,1368.24 2012.01,1367.95 2014.21,1367.65 2016.41,1367.36 2018.61,1367.06 2020.8,1366.75 2023,1366.45 2025.2,1366.14 2027.4,1365.83 2029.6,1365.51 2031.8,1365.2 2033.99,1364.88 2036.19,1364.55 2038.39,1364.22 2040.59,1363.89 2042.79,1363.56 2044.99,1363.22 2047.18,1362.88 2049.38,1362.54 2051.58,1362.19 2053.78,1361.84 2055.98,1361.48 2058.18,1361.12 2060.37,1360.76 2062.57,1360.4 2064.77,1360.03 2066.97,1359.65 2069.17,1359.28 2071.37,1358.9 2073.56,1358.51 2075.76,1358.12 2077.96,1357.73 2080.16,1357.34 2082.36,1356.94 2084.56,1356.53 2086.75,1356.12 2088.95,1355.71 2091.15,1355.29 2093.35,1354.87 2095.55,1354.45 2097.75,1354.02 2099.94,1353.59 2102.14,1353.15 2104.34,1352.71 2106.54,1352.26 2108.74,1351.81 2110.94,1351.35 2113.14,1350.89 2115.33,1350.43 2117.53,1349.96 2119.73,1349.48 2121.93,1349 2124.13,1348.52 2126.33,1348.03 2128.52,1347.54 2130.72,1347.04 2132.92,1346.54 2135.12,1346.03 2137.32,1345.51 2139.52,1344.99 2141.71,1344.47 2143.91,1343.94 2146.11,1343.41 2148.31,1342.87 2150.51,1342.32 2152.71,1341.77 2154.9,1341.21 2157.1,1340.65 2159.3,1340.08 2161.5,1339.51 2163.7,1338.93 2165.9,1338.34 2168.09,1337.75 2170.29,1337.16 2172.49,1336.55 2174.69,1335.94 2176.89,1335.33 2179.09,1334.71 2181.28,1334.08 2183.48,1365.27 2185.68,1364.95 2187.88,1364.63 2190.08,1364.3 2192.28,1363.97 2194.47,1363.64 2196.67,1363.3 2198.87,1362.96 2201.07,1362.62 2203.27,1362.27 2205.47,1361.92 2207.66,1361.57 2209.86,1361.21 2212.06,1360.85 2214.26,1360.49 2216.46,1360.12 2218.66,1359.75 2220.85,1359.37 2223.05,1358.99 2225.25,1358.61 2227.45,1358.22 2229.65,1357.83 2231.85,1357.43 2234.04,1357.03 2236.24,1356.63 2238.44,1356.22 2240.64,1355.81 2242.84,1355.4 2245.04,1376.04 2247.23,1375.83 2249.43,1375.61 2251.63,1375.4 2253.83,1375.18 2256.03,1374.96 2258.23,1374.74 2260.42,1374.51 2262.62,1374.28 2264.82,1374.06 2267.02,1373.82 2269.22,1373.59 2271.42,1373.35 2273.62,1373.11 2275.81,1372.87 2278.01,1372.63 2280.21,1372.38 2282.41,1372.13 2284.61,1371.88 2286.81,1371.63 2289,1384.24 2291.2,1384.11 2293.4,1383.98 2295.6,1383.85 2297.8,1383.71 2300,1383.58 2302.19,1383.44 2304.39,1383.3 2306.59,1383.17 2308.79,1383.03 2310.99,1382.88 2313.19,1382.74 2315.38,1382.6 2317.58,1382.45 2319.78,1382.3 2321.98,1382.15 2324.18,1382 2326.38,1381.85 2328.57,1381.7 2330.77,1381.54 2332.97,1381.39 2335.17,1381.23 2337.37,1381.07 2339.57,1380.91 2341.76,1380.74 2343.96,1380.58 2346.16,1380.41 2348.36,1380.25 2350.56,1380.08 2352.76,1379.9 "/>
<path clip-path="url(#clip180)" d="M1970.84 196.789 L2279.55 196.789 L2279.55 93.1086 L1970.84 93.1086  Z" fill="#ffffff" fill-rule="evenodd" fill-opacity="1"/>
<polyline clip-path="url(#clip180)" style="stroke:#000000; stroke-linecap:round; stroke-linejoin:round; stroke-width:4; stroke-opacity:1; fill:none" points="1970.84,196.789 2279.55,196.789 2279.55,93.1086 1970.84,93.1086 1970.84,196.789 "/>
<polyline clip-path="url(#clip180)" style="stroke:#009af9; stroke-linecap:round; stroke-linejoin:round; stroke-width:8; stroke-opacity:1; fill:none" points="1995.24,144.949 2141.65,144.949 "/>
<path clip-path="url(#clip180)" d="M2166.05 151.997 L2166.05 136.303 L2170.31 136.303 L2170.31 151.835 Q2170.31 155.516 2171.75 157.368 Q2173.18 159.196 2176.05 159.196 Q2179.5 159.196 2181.49 156.997 Q2183.51 154.798 2183.51 151.002 L2183.51 136.303 L2187.76 136.303 L2187.76 162.229 L2183.51 162.229 L2183.51 158.247 Q2181.95 160.608 2179.89 161.766 Q2177.86 162.9 2175.15 162.9 Q2170.68 162.9 2168.37 160.122 Q2166.05 157.344 2166.05 151.997 M2176.77 135.678 L2176.77 135.678 Z" fill="#000000" fill-rule="nonzero" fill-opacity="1" /><path clip-path="url(#clip180)" d="M2196.14 126.21 L2205.96 126.21 L2205.96 129.52 L2200.4 129.52 L2200.4 165.168 L2205.96 165.168 L2205.96 168.479 L2196.14 168.479 L2196.14 126.21 Z" fill="#000000" fill-rule="nonzero" fill-opacity="1" /><path clip-path="url(#clip180)" d="M2216.45 158.293 L2224.08 158.293 L2224.08 131.928 L2215.77 133.595 L2215.77 129.335 L2224.04 127.669 L2228.71 127.669 L2228.71 158.293 L2236.35 158.293 L2236.35 162.229 L2216.45 162.229 L2216.45 158.293 Z" fill="#000000" fill-rule="nonzero" fill-opacity="1" /><path clip-path="url(#clip180)" d="M2255.15 126.21 L2255.15 168.479 L2245.33 168.479 L2245.33 165.168 L2250.87 165.168 L2250.87 129.52 L2245.33 129.52 L2245.33 126.21 L2255.15 126.21 Z" fill="#000000" fill-rule="nonzero" fill-opacity="1" /></svg>
