<?xml version="1.0" encoding="utf-8"?>
<svg xmlns="http://www.w3.org/2000/svg" xmlns:xlink="http://www.w3.org/1999/xlink" width="600" height="400" viewBox="0 0 2400 1600">
<defs>
  <clipPath id="clip240">
    <rect x="0" y="0" width="2400" height="1600"/>
  </clipPath>
</defs>
<path clip-path="url(#clip240)" d="M0 1600 L2400 1600 L2400 0 L0 0  Z" fill="#ffffff" fill-rule="evenodd" fill-opacity="1"/>
<defs>
  <clipPath id="clip241">
    <rect x="480" y="0" width="1681" height="1600"/>
  </clipPath>
</defs>
<path clip-path="url(#clip240)" d="M149.191 1423.18 L2352.76 1423.18 L2352.76 47.2441 L149.191 47.2441  Z" fill="#ffffff" fill-rule="evenodd" fill-opacity="1"/>
<defs>
  <clipPath id="clip242">
    <rect x="149" y="47" width="2205" height="1377"/>
  </clipPath>
</defs>
<polyline clip-path="url(#clip242)" style="stroke:#000000; stroke-linecap:round; stroke-linejoin:round; stroke-width:2; stroke-opacity:0.1; fill:none" points="149.191,1423.18 149.191,47.2441 "/>
<polyline clip-path="url(#clip242)" style="stroke:#000000; stroke-linecap:round; stroke-linejoin:round; stroke-width:2; stroke-opacity:0.1; fill:none" points="589.904,1423.18 589.904,47.2441 "/>
<polyline clip-path="url(#clip242)" style="stroke:#000000; stroke-linecap:round; stroke-linejoin:round; stroke-width:2; stroke-opacity:0.1; fill:none" points="1030.62,1423.18 1030.62,47.2441 "/>
<polyline clip-path="url(#clip242)" style="stroke:#000000; stroke-linecap:round; stroke-linejoin:round; stroke-width:2; stroke-opacity:0.1; fill:none" points="1471.33,1423.18 1471.33,47.2441 "/>
<polyline clip-path="url(#clip242)" style="stroke:#000000; stroke-linecap:round; stroke-linejoin:round; stroke-width:2; stroke-opacity:0.1; fill:none" points="1912.04,1423.18 1912.04,47.2441 "/>
<polyline clip-path="url(#clip242)" style="stroke:#000000; stroke-linecap:round; stroke-linejoin:round; stroke-width:2; stroke-opacity:0.1; fill:none" points="2352.76,1423.18 2352.76,47.2441 "/>
<polyline clip-path="url(#clip240)" style="stroke:#000000; stroke-linecap:round; stroke-linejoin:round; stroke-width:4; stroke-opacity:1; fill:none" points="149.191,1423.18 2352.76,1423.18 "/>
<polyline clip-path="url(#clip240)" style="stroke:#000000; stroke-linecap:round; stroke-linejoin:round; stroke-width:4; stroke-opacity:1; fill:none" points="149.191,1423.18 149.191,1404.28 "/>
<polyline clip-path="url(#clip240)" style="stroke:#000000; stroke-linecap:round; stroke-linejoin:round; stroke-width:4; stroke-opacity:1; fill:none" points="589.904,1423.18 589.904,1404.28 "/>
<polyline clip-path="url(#clip240)" style="stroke:#000000; stroke-linecap:round; stroke-linejoin:round; stroke-width:4; stroke-opacity:1; fill:none" points="1030.62,1423.18 1030.62,1404.28 "/>
<polyline clip-path="url(#clip240)" style="stroke:#000000; stroke-linecap:round; stroke-linejoin:round; stroke-width:4; stroke-opacity:1; fill:none" points="1471.33,1423.18 1471.33,1404.28 "/>
<polyline clip-path="url(#clip240)" style="stroke:#000000; stroke-linecap:round; stroke-linejoin:round; stroke-width:4; stroke-opacity:1; fill:none" points="1912.04,1423.18 1912.04,1404.28 "/>
<polyline clip-path="url(#clip240)" style="stroke:#000000; stroke-linecap:round; stroke-linejoin:round; stroke-width:4; stroke-opacity:1; fill:none" points="2352.76,1423.18 2352.76,1404.28 "/>
<path clip-path="url(#clip240)" d="M149.191 1454.1 Q145.58 1454.1 143.751 1457.66 Q141.946 1461.2 141.946 1468.33 Q141.946 1475.44 143.751 1479.01 Q145.58 1482.55 149.191 1482.55 Q152.825 1482.55 154.631 1479.01 Q156.459 1475.44 156.459 1468.33 Q156.459 1461.2 154.631 1457.66 Q152.825 1454.1 149.191 1454.1 M149.191 1450.39 Q155.001 1450.39 158.057 1455 Q161.135 1459.58 161.135 1468.33 Q161.135 1477.06 158.057 1481.67 Q155.001 1486.25 149.191 1486.25 Q143.381 1486.25 140.302 1481.67 Q137.246 1477.06 137.246 1468.33 Q137.246 1459.58 140.302 1455 Q143.381 1450.39 149.191 1450.39 Z" fill="#000000" fill-rule="nonzero" fill-opacity="1" /><path clip-path="url(#clip240)" d="M584.557 1481.64 L600.876 1481.64 L600.876 1485.58 L578.932 1485.58 L578.932 1481.64 Q581.594 1478.89 586.177 1474.26 Q590.783 1469.61 591.964 1468.27 Q594.209 1465.74 595.089 1464.01 Q595.992 1462.25 595.992 1460.56 Q595.992 1457.8 594.047 1456.07 Q592.126 1454.33 589.024 1454.33 Q586.825 1454.33 584.371 1455.09 Q581.941 1455.86 579.163 1457.41 L579.163 1452.69 Q581.987 1451.55 584.441 1450.97 Q586.895 1450.39 588.932 1450.39 Q594.302 1450.39 597.496 1453.08 Q600.691 1455.77 600.691 1460.26 Q600.691 1462.39 599.881 1464.31 Q599.094 1466.2 596.987 1468.8 Q596.408 1469.47 593.307 1472.69 Q590.205 1475.88 584.557 1481.64 Z" fill="#000000" fill-rule="nonzero" fill-opacity="1" /><path clip-path="url(#clip240)" d="M1033.63 1455.09 L1021.82 1473.54 L1033.63 1473.54 L1033.63 1455.09 M1032.4 1451.02 L1038.28 1451.02 L1038.28 1473.54 L1043.21 1473.54 L1043.21 1477.43 L1038.28 1477.43 L1038.28 1485.58 L1033.63 1485.58 L1033.63 1477.43 L1018.02 1477.43 L1018.02 1472.92 L1032.4 1451.02 Z" fill="#000000" fill-rule="nonzero" fill-opacity="1" /><path clip-path="url(#clip240)" d="M1471.73 1466.44 Q1468.59 1466.44 1466.74 1468.59 Q1464.91 1470.74 1464.91 1474.49 Q1464.91 1478.22 1466.74 1480.39 Q1468.59 1482.55 1471.73 1482.55 Q1474.88 1482.55 1476.71 1480.39 Q1478.56 1478.22 1478.56 1474.49 Q1478.56 1470.74 1476.71 1468.59 Q1474.88 1466.44 1471.73 1466.44 M1481.02 1451.78 L1481.02 1456.04 Q1479.26 1455.21 1477.45 1454.77 Q1475.67 1454.33 1473.91 1454.33 Q1469.28 1454.33 1466.83 1457.45 Q1464.4 1460.58 1464.05 1466.9 Q1465.42 1464.89 1467.48 1463.82 Q1469.54 1462.73 1472.01 1462.73 Q1477.22 1462.73 1480.23 1465.9 Q1483.26 1469.05 1483.26 1474.49 Q1483.26 1479.82 1480.11 1483.03 Q1476.97 1486.25 1471.73 1486.25 Q1465.74 1486.25 1462.57 1481.67 Q1459.4 1477.06 1459.4 1468.33 Q1459.4 1460.14 1463.29 1455.28 Q1467.17 1450.39 1473.73 1450.39 Q1475.48 1450.39 1477.27 1450.74 Q1479.07 1451.09 1481.02 1451.78 Z" fill="#000000" fill-rule="nonzero" fill-opacity="1" /><path clip-path="url(#clip240)" d="M1912.04 1469.17 Q1908.71 1469.17 1906.79 1470.95 Q1904.89 1472.73 1904.89 1475.86 Q1904.89 1478.98 1906.79 1480.77 Q1908.71 1482.55 1912.04 1482.55 Q1915.38 1482.55 1917.3 1480.77 Q1919.22 1478.96 1919.22 1475.86 Q1919.22 1472.73 1917.3 1470.95 Q1915.4 1469.17 1912.04 1469.17 M1907.37 1467.18 Q1904.36 1466.44 1902.67 1464.38 Q1901 1462.32 1901 1459.35 Q1901 1455.21 1903.94 1452.8 Q1906.9 1450.39 1912.04 1450.39 Q1917.2 1450.39 1920.14 1452.8 Q1923.08 1455.21 1923.08 1459.35 Q1923.08 1462.32 1921.39 1464.38 Q1919.73 1466.44 1916.74 1467.18 Q1920.12 1467.96 1922 1470.26 Q1923.89 1472.55 1923.89 1475.86 Q1923.89 1480.88 1920.82 1483.57 Q1917.76 1486.25 1912.04 1486.25 Q1906.33 1486.25 1903.25 1483.57 Q1900.19 1480.88 1900.19 1475.86 Q1900.19 1472.55 1902.09 1470.26 Q1903.99 1467.96 1907.37 1467.18 M1905.65 1459.79 Q1905.65 1462.48 1907.32 1463.98 Q1909.01 1465.49 1912.04 1465.49 Q1915.05 1465.49 1916.74 1463.98 Q1918.45 1462.48 1918.45 1459.79 Q1918.45 1457.11 1916.74 1455.6 Q1915.05 1454.1 1912.04 1454.1 Q1909.01 1454.1 1907.32 1455.6 Q1905.65 1457.11 1905.65 1459.79 Z" fill="#000000" fill-rule="nonzero" fill-opacity="1" /><path clip-path="url(#clip240)" d="M2327.44 1481.64 L2335.08 1481.64 L2335.08 1455.28 L2326.77 1456.95 L2326.77 1452.69 L2335.04 1451.02 L2339.71 1451.02 L2339.71 1481.64 L2347.35 1481.64 L2347.35 1485.58 L2327.44 1485.58 L2327.44 1481.64 Z" fill="#000000" fill-rule="nonzero" fill-opacity="1" /><path clip-path="url(#clip240)" d="M2366.8 1454.1 Q2363.18 1454.1 2361.36 1457.66 Q2359.55 1461.2 2359.55 1468.33 Q2359.55 1475.44 2361.36 1479.01 Q2363.18 1482.55 2366.8 1482.55 Q2370.43 1482.55 2372.23 1479.01 Q2374.06 1475.44 2374.06 1468.33 Q2374.06 1461.2 2372.23 1457.66 Q2370.43 1454.1 2366.8 1454.1 M2366.8 1450.39 Q2372.61 1450.39 2375.66 1455 Q2378.74 1459.58 2378.74 1468.33 Q2378.74 1477.06 2375.66 1481.67 Q2372.61 1486.25 2366.8 1486.25 Q2360.99 1486.25 2357.91 1481.67 Q2354.85 1477.06 2354.85 1468.33 Q2354.85 1459.58 2357.91 1455 Q2360.99 1450.39 2366.8 1450.39 Z" fill="#000000" fill-rule="nonzero" fill-opacity="1" /><path clip-path="url(#clip240)" d="M1250.03 1522.27 L1250.03 1532.4 L1262.1 1532.4 L1262.1 1536.95 L1250.03 1536.95 L1250.03 1556.3 Q1250.03 1560.66 1251.21 1561.9 Q1252.42 1563.14 1256.08 1563.14 L1262.1 1563.14 L1262.1 1568.04 L1256.08 1568.04 Q1249.3 1568.04 1246.72 1565.53 Q1244.15 1562.98 1244.15 1556.3 L1244.15 1536.95 L1239.85 1536.95 L1239.85 1532.4 L1244.15 1532.4 L1244.15 1522.27 L1250.03 1522.27 Z" fill="#000000" fill-rule="nonzero" fill-opacity="1" /><polyline clip-path="url(#clip242)" style="stroke:#000000; stroke-linecap:round; stroke-linejoin:round; stroke-width:2; stroke-opacity:0.1; fill:none" points="149.191,1279.88 2352.76,1279.88 "/>
<polyline clip-path="url(#clip242)" style="stroke:#000000; stroke-linecap:round; stroke-linejoin:round; stroke-width:2; stroke-opacity:0.1; fill:none" points="149.191,1021.88 2352.76,1021.88 "/>
<polyline clip-path="url(#clip242)" style="stroke:#000000; stroke-linecap:round; stroke-linejoin:round; stroke-width:2; stroke-opacity:0.1; fill:none" points="149.191,763.877 2352.76,763.877 "/>
<polyline clip-path="url(#clip242)" style="stroke:#000000; stroke-linecap:round; stroke-linejoin:round; stroke-width:2; stroke-opacity:0.1; fill:none" points="149.191,505.878 2352.76,505.878 "/>
<polyline clip-path="url(#clip242)" style="stroke:#000000; stroke-linecap:round; stroke-linejoin:round; stroke-width:2; stroke-opacity:0.1; fill:none" points="149.191,247.879 2352.76,247.879 "/>
<polyline clip-path="url(#clip240)" style="stroke:#000000; stroke-linecap:round; stroke-linejoin:round; stroke-width:4; stroke-opacity:1; fill:none" points="149.191,1423.18 149.191,47.2441 "/>
<polyline clip-path="url(#clip240)" style="stroke:#000000; stroke-linecap:round; stroke-linejoin:round; stroke-width:4; stroke-opacity:1; fill:none" points="149.191,1279.88 168.089,1279.88 "/>
<polyline clip-path="url(#clip240)" style="stroke:#000000; stroke-linecap:round; stroke-linejoin:round; stroke-width:4; stroke-opacity:1; fill:none" points="149.191,1021.88 168.089,1021.88 "/>
<polyline clip-path="url(#clip240)" style="stroke:#000000; stroke-linecap:round; stroke-linejoin:round; stroke-width:4; stroke-opacity:1; fill:none" points="149.191,763.877 168.089,763.877 "/>
<polyline clip-path="url(#clip240)" style="stroke:#000000; stroke-linecap:round; stroke-linejoin:round; stroke-width:4; stroke-opacity:1; fill:none" points="149.191,505.878 168.089,505.878 "/>
<polyline clip-path="url(#clip240)" style="stroke:#000000; stroke-linecap:round; stroke-linejoin:round; stroke-width:4; stroke-opacity:1; fill:none" points="149.191,247.879 168.089,247.879 "/>
<path clip-path="url(#clip240)" d="M50.9921 1280.33 L80.6679 1280.33 L80.6679 1284.26 L50.9921 1284.26 L50.9921 1280.33 Z" fill="#000000" fill-rule="nonzero" fill-opacity="1" /><path clip-path="url(#clip240)" d="M103.608 1266.67 L91.8021 1285.12 L103.608 1285.12 L103.608 1266.67 M102.381 1262.6 L108.26 1262.6 L108.26 1285.12 L113.191 1285.12 L113.191 1289.01 L108.26 1289.01 L108.26 1297.16 L103.608 1297.16 L103.608 1289.01 L88.0058 1289.01 L88.0058 1284.49 L102.381 1262.6 Z" fill="#000000" fill-rule="nonzero" fill-opacity="1" /><path clip-path="url(#clip240)" d="M53.0754 1022.33 L82.7512 1022.33 L82.7512 1026.26 L53.0754 1026.26 L53.0754 1022.33 Z" fill="#000000" fill-rule="nonzero" fill-opacity="1" /><path clip-path="url(#clip240)" d="M96.8715 1035.22 L113.191 1035.22 L113.191 1039.16 L91.2465 1039.16 L91.2465 1035.22 Q93.9086 1032.47 98.4919 1027.84 Q103.098 1023.18 104.279 1021.84 Q106.524 1019.32 107.404 1017.58 Q108.307 1015.82 108.307 1014.13 Q108.307 1011.38 106.362 1009.64 Q104.441 1007.91 101.339 1007.91 Q99.14 1007.91 96.6863 1008.67 Q94.2558 1009.43 91.478 1010.99 L91.478 1006.26 Q94.3021 1005.13 96.7558 1004.55 Q99.2095 1003.97 101.246 1003.97 Q106.617 1003.97 109.811 1006.66 Q113.006 1009.34 113.006 1013.83 Q113.006 1015.96 112.196 1017.88 Q111.408 1019.78 109.302 1022.37 Q108.723 1023.05 105.621 1026.26 Q102.52 1029.46 96.8715 1035.22 Z" fill="#000000" fill-rule="nonzero" fill-opacity="1" /><path clip-path="url(#clip240)" d="M101.246 749.676 Q97.6354 749.676 95.8067 753.241 Q94.0012 756.782 94.0012 763.912 Q94.0012 771.018 95.8067 774.583 Q97.6354 778.125 101.246 778.125 Q104.881 778.125 106.686 774.583 Q108.515 771.018 108.515 763.912 Q108.515 756.782 106.686 753.241 Q104.881 749.676 101.246 749.676 M101.246 745.972 Q107.057 745.972 110.112 750.579 Q113.191 755.162 113.191 763.912 Q113.191 772.639 110.112 777.245 Q107.057 781.828 101.246 781.828 Q95.4363 781.828 92.3576 777.245 Q89.3021 772.639 89.3021 763.912 Q89.3021 755.162 92.3576 750.579 Q95.4363 745.972 101.246 745.972 Z" fill="#000000" fill-rule="nonzero" fill-opacity="1" /><path clip-path="url(#clip240)" d="M96.8715 519.223 L113.191 519.223 L113.191 523.158 L91.2465 523.158 L91.2465 519.223 Q93.9086 516.468 98.4919 511.838 Q103.098 507.186 104.279 505.843 Q106.524 503.32 107.404 501.584 Q108.307 499.825 108.307 498.135 Q108.307 495.38 106.362 493.644 Q104.441 491.908 101.339 491.908 Q99.14 491.908 96.6863 492.672 Q94.2558 493.436 91.478 494.987 L91.478 490.264 Q94.3021 489.13 96.7558 488.552 Q99.2095 487.973 101.246 487.973 Q106.617 487.973 109.811 490.658 Q113.006 493.343 113.006 497.834 Q113.006 499.964 112.196 501.885 Q111.408 503.783 109.302 506.376 Q108.723 507.047 105.621 510.264 Q102.52 513.459 96.8715 519.223 Z" fill="#000000" fill-rule="nonzero" fill-opacity="1" /><path clip-path="url(#clip240)" d="M103.608 234.673 L91.8021 253.122 L103.608 253.122 L103.608 234.673 M102.381 230.599 L108.26 230.599 L108.26 253.122 L113.191 253.122 L113.191 257.01 L108.26 257.01 L108.26 265.159 L103.608 265.159 L103.608 257.01 L88.0058 257.01 L88.0058 252.497 L102.381 230.599 Z" fill="#000000" fill-rule="nonzero" fill-opacity="1" /><polyline clip-path="url(#clip242)" style="stroke:#009af9; stroke-linecap:round; stroke-linejoin:round; stroke-width:8; stroke-opacity:1; fill:none" points="149.191,738.077 151.397,737.818 153.602,750.716 155.808,750.584 158.014,750.45 160.22,750.315 162.425,750.179 164.631,750.041 166.837,749.902 169.043,749.761 171.249,749.619 173.454,749.476 175.66,749.331 177.866,749.184 180.072,749.037 182.277,748.887 184.483,748.736 186.689,748.584 188.895,748.43 191.101,748.275 193.306,748.118 195.512,747.959 197.718,747.799 199.924,747.637 202.129,747.474 204.335,747.309 206.541,747.142 208.747,746.974 210.952,746.804 213.158,746.632 215.364,746.459 217.57,746.283 219.776,746.107 221.981,745.928 224.187,745.747 226.393,745.565 228.599,745.381 230.804,745.194 233.01,745.007 235.216,744.817 237.422,744.625 239.627,744.431 241.833,744.236 244.039,744.038 246.245,743.838 248.451,743.637 250.656,743.433 252.862,743.228 255.068,743.02 257.274,742.81 259.479,742.598 261.685,742.384 263.891,742.168 266.097,741.949 268.302,741.729 270.508,741.506 272.714,741.281 274.92,741.053 277.126,740.824 279.331,740.592 281.537,740.358 283.743,740.121 285.949,739.882 288.154,739.641 290.36,739.397 292.566,739.151 294.772,738.902 296.978,738.651 299.183,738.397 301.389,738.14 303.595,737.882 305.801,737.62 308.006,737.356 310.212,737.089 312.418,736.82 314.624,736.547 316.829,736.272 319.035,735.995 321.241,735.714 323.447,735.431 325.653,735.145 327.858,734.856 330.064,734.564 332.27,734.269 334.476,733.971 336.681,733.67 338.887,733.366 341.093,733.059 343.299,732.749 345.504,732.436 347.71,732.12 349.916,731.8 352.122,731.478 354.328,731.152 356.533,730.822 358.739,730.49 360.945,730.154 363.151,729.815 365.356,729.472 367.562,729.126 369.768,728.776 371.974,728.423 374.179,728.066 376.385,727.706 378.591,727.342 380.797,726.975 383.003,726.603 385.208,726.229 387.414,725.85 389.62,725.467 391.826,725.081 394.031,724.691 396.237,724.296 398.443,723.898 400.649,723.496 402.855,723.09 405.06,722.679 407.266,722.265 409.472,721.846 411.678,721.423 413.883,720.996 416.089,720.565 418.295,720.129 420.501,719.689 422.706,719.245 424.912,718.796 427.118,718.342 429.324,717.884 431.53,717.421 433.735,716.954 435.941,716.482 438.147,716.005 440.353,715.523 442.558,715.037 444.764,714.545 446.97,714.049 449.176,713.548 451.381,713.042 453.587,712.53 455.793,712.014 457.999,711.492 460.205,710.965 462.41,710.432 464.616,709.895 466.822,709.352 469.028,708.803 471.233,708.249 473.439,707.689 475.645,707.124 477.851,706.553 480.056,705.977 482.262,705.394 484.468,704.806 486.674,704.211 488.88,703.611 491.085,703.005 493.291,702.393 495.497,701.774 497.703,701.149 499.908,700.518 502.114,699.881 504.32,699.237 506.526,698.587 508.732,697.93 510.937,697.267 513.143,696.597 515.349,695.92 517.555,695.236 519.76,694.546 521.966,693.848 524.172,693.144 526.378,692.432 528.583,691.713 530.789,690.987 532.995,690.254 535.201,689.513 537.407,688.765 539.612,688.009 541.818,687.246 544.024,686.475 546.23,685.696 548.435,684.91 550.641,684.115 552.847,683.313 555.053,682.502 557.258,681.684 559.464,680.857 561.67,680.022 563.876,679.178 566.082,678.326 568.287,677.465 570.493,676.596 572.699,675.718 574.905,674.831 577.11,673.935 579.316,673.03 581.522,672.116 583.728,671.193 585.933,670.261 588.139,669.319 590.345,668.368 592.551,667.407 594.757,666.436 596.962,665.456 599.168,664.466 601.374,663.466 603.58,662.456 605.785,661.435 607.991,660.405 610.197,659.364 612.403,658.312 614.609,657.25 616.814,656.178 619.02,655.094 621.226,654 623.432,652.894 625.637,651.778 627.843,650.65 630.049,649.511 632.255,648.36 634.46,647.198 636.666,646.024 638.872,704.358 641.078,703.76 643.284,703.155 645.489,702.544 647.695,701.927 649.901,701.304 652.107,700.674 654.312,700.038 656.518,699.396 658.724,698.747 660.93,698.092 663.135,697.43 665.341,696.762 667.547,696.087 669.753,695.405 671.959,694.716 674.164,694.02 676.37,693.317 678.576,692.608 680.782,691.891 682.987,691.166 685.193,690.435 687.399,689.696 689.605,688.95 691.81,688.196 694.016,687.435 696.222,686.666 698.428,685.889 700.634,685.105 702.839,684.312 705.045,683.512 707.251,682.703 709.457,681.887 711.662,681.062 713.868,680.229 716.074,679.387 718.28,678.537 720.486,677.679 722.691,676.812 724.897,675.936 727.103,675.051 729.309,674.157 731.514,673.255 733.72,672.343 735.926,671.422 738.132,670.492 740.337,669.552 742.543,668.603 744.749,667.645 746.955,666.677 749.161,665.699 751.366,664.711 753.572,663.713 755.778,662.706 757.984,661.688 760.189,660.66 762.395,659.621 764.601,658.572 766.807,657.513 769.012,656.443 771.218,655.362 773.424,654.27 775.63,653.168 777.836,652.054 780.041,650.929 782.247,649.792 784.453,648.644 786.659,647.485 788.864,646.314 791.07,645.131 793.276,643.937 795.482,642.73 797.687,641.511 799.893,640.28 802.099,639.037 804.305,637.781 806.511,636.513 808.716,635.232 810.922,633.938 813.128,632.63 815.334,631.31 817.539,629.977 819.745,628.63 821.951,627.27 824.157,625.896 826.363,624.508 828.568,623.106 830.774,621.69 832.98,620.26 835.186,618.816 837.391,617.357 839.597,615.883 841.803,614.394 844.009,612.891 846.214,611.372 848.42,609.838 850.626,608.289 852.832,606.724 855.038,605.144 857.243,603.547 859.449,601.934 861.655,600.305 863.861,598.66 866.066,596.998 868.272,595.319 870.478,593.624 872.684,591.911 874.889,590.181 877.095,588.434 879.301,586.669 881.507,584.886 883.713,583.085 885.918,581.266 888.124,579.429 890.33,577.573 892.536,575.699 894.741,573.805 896.947,571.893 899.153,569.961 901.359,568.01 903.564,566.039 905.77,564.049 907.976,562.038 910.182,560.007 912.388,557.955 914.593,555.883 916.799,553.79 919.005,551.676 921.211,549.541 923.416,547.384 925.622,545.206 927.828,543.006 930.034,540.783 932.24,538.539 934.445,536.272 936.651,533.982 938.857,531.669 941.063,529.333 943.268,526.973 945.474,524.59 947.68,522.182 949.886,519.75 952.091,517.294 954.297,514.813 956.503,512.308 958.709,509.777 960.915,507.22 963.12,504.638 965.326,502.03 967.532,499.396 969.738,496.735 971.943,494.047 974.149,491.333 976.355,488.591 978.561,485.822 980.766,483.025 982.972,480.2 985.178,477.346 987.384,474.464 989.59,471.553 991.795,468.613 994.001,465.643 996.207,462.643 998.413,459.613 1000.62,456.553 1002.82,453.462 1005.03,450.34 1007.24,447.186 1009.44,444.001 1011.65,440.784 1013.85,437.534 1016.06,434.252 1018.26,430.937 1020.47,427.588 1022.68,424.206 1024.88,420.789 1027.09,417.338 1029.29,413.853 1031.5,410.332 1033.7,406.776 1035.91,403.184 1038.12,399.555 1040.32,395.891 1042.53,392.189 1044.73,388.45 1046.94,384.673 1049.15,380.859 1051.35,377.005 1053.56,373.113 1055.76,369.182 1057.97,365.211 1060.17,361.2 1062.38,357.149 1064.59,353.057 1066.79,348.923 1069,344.748 1071.2,340.531 1073.41,336.271 1075.61,331.969 1077.82,327.623 1080.03,323.233 1082.23,318.799 1084.44,314.321 1086.64,309.797 1088.85,305.228 1091.06,300.613 1093.26,295.951 1095.47,291.243 1097.67,286.487 1099.88,281.684 1102.08,276.832 1104.29,271.931 1106.5,266.982 1108.7,261.982 1110.91,256.933 1113.11,251.832 1115.32,246.681 1117.52,241.478 1119.73,236.223 1121.94,230.914 1124.14,225.552 1126.35,220.137 1128.55,214.666 1130.76,209.141 1132.96,203.56 1135.17,197.924 1137.38,192.23 1139.58,186.479 1141.79,180.67 1143.99,174.803 1146.2,168.877 1148.41,162.891 1150.61,156.845 1152.82,150.738 1155.02,144.57 1157.23,138.339 1159.43,132.046 1161.64,125.69 1163.85,119.269 1166.05,112.784 1168.26,106.234 1170.46,99.6182 1172.67,92.9355 1174.87,86.1857 1177.08,421.628 1179.29,418.185 1181.49,414.707 1183.7,411.194 1185.9,407.646 1188.11,404.063 1190.31,400.443 1192.52,396.786 1194.73,393.093 1196.93,389.363 1199.14,385.596 1201.34,381.79 1203.55,377.946 1205.76,374.063 1207.96,370.142 1210.17,366.181 1212.37,362.18 1214.58,358.139 1216.78,354.057 1218.99,349.934 1221.2,345.77 1223.4,341.563 1225.61,337.315 1227.81,333.023 1230.02,328.689 1232.22,324.311 1234.43,541.885 1236.64,539.652 1238.84,537.396 1241.05,535.117 1243.25,532.816 1245.46,530.491 1247.66,528.143 1249.87,525.772 1252.08,523.376 1254.28,520.956 1256.49,518.513 1258.69,516.044 1260.9,513.551 1263.11,511.033 1265.31,508.489 1267.52,505.92 1269.72,503.325 1271.93,500.704 1274.13,498.056 1276.34,495.382 1278.55,492.681 1280.75,489.953 1282.96,487.198 1285.16,484.415 1287.37,481.604 1289.57,478.765 1291.78,475.897 1293.99,473 1296.19,470.074 1298.4,467.119 1300.6,464.134 1302.81,461.119 1305.01,458.073 1307.22,454.997 1309.43,451.89 1311.63,448.752 1313.84,445.582 1316.04,442.38 1318.25,439.146 1320.46,435.88 1322.66,432.58 1324.87,429.247 1327.07,425.881 1329.28,422.481 1331.48,419.047 1333.69,415.577 1335.9,412.073 1338.1,408.534 1340.31,404.959 1342.51,401.348 1344.72,397.701 1346.92,394.017 1349.13,390.296 1351.34,386.537 1353.54,382.74 1355.75,378.906 1357.95,375.032 1360.16,371.12 1362.36,367.168 1364.57,363.176 1366.78,359.145 1368.98,355.072 1371.19,350.959 1373.39,346.805 1375.6,342.608 1377.81,338.37 1380.01,334.089 1382.22,329.765 1384.42,325.397 1386.63,320.986 1388.83,540.211 1391.04,537.961 1393.25,535.688 1395.45,533.393 1397.66,531.074 1399.86,528.732 1402.07,526.366 1404.27,523.977 1406.48,521.563 1408.69,519.126 1410.89,516.663 1413.1,514.176 1415.3,511.664 1417.51,509.127 1419.71,506.564 1421.92,503.976 1424.13,501.361 1426.33,498.72 1428.54,496.052 1430.74,493.358 1432.95,490.637 1435.16,487.888 1437.36,485.111 1439.57,482.307 1441.77,479.474 1443.98,476.613 1446.18,473.723 1448.39,470.804 1450.6,467.855 1452.8,464.877 1455.01,461.869 1457.21,458.831 1459.42,455.762 1461.62,452.662 1463.83,449.532 1466.04,446.369 1468.24,443.175 1470.45,601.92 1472.65,600.29 1474.86,598.645 1477.06,596.982 1479.27,595.303 1481.48,593.607 1483.68,591.894 1485.89,590.164 1488.09,676.146 1490.3,675.264 1492.51,674.372 1494.71,673.472 1496.92,672.562 1499.12,671.643 1501.33,670.715 1503.53,669.778 1505.74,668.831 1507.95,667.875 1510.15,666.909 1512.36,665.934 1514.56,664.948 1516.77,663.953 1518.97,662.948 1521.18,661.933 1523.39,660.907 1525.59,659.871 1527.8,658.825 1530,657.768 1532.21,656.701 1534.41,655.623 1536.62,654.534 1538.83,653.434 1541.03,652.323 1543.24,651.201 1545.44,650.068 1547.65,648.924 1549.86,647.767 1552.06,646.6 1554.27,645.42 1556.47,644.229 1558.68,643.025 1560.88,641.81 1563.09,640.582 1565.3,639.342 1567.5,638.09 1569.71,636.825 1571.91,635.547 1574.12,634.256 1576.32,632.953 1578.53,631.636 1580.74,630.306 1582.94,628.962 1585.15,627.605 1587.35,626.235 1589.56,624.85 1591.76,623.452 1593.97,622.039 1596.18,620.612 1598.38,619.171 1600.59,617.715 1602.79,616.245 1605,614.76 1607.21,613.26 1609.41,611.744 1611.62,610.214 1613.82,608.668 1616.03,607.106 1618.23,605.529 1620.44,603.936 1622.65,602.326 1624.85,600.701 1627.06,599.059 1629.26,597.4 1631.47,595.725 1633.67,594.033 1635.88,592.324 1638.09,590.598 1640.29,588.854 1642.5,587.093 1644.7,585.314 1646.91,583.517 1649.12,581.702 1651.32,579.869 1653.53,578.017 1655.73,576.147 1657.94,574.258 1660.14,572.35 1662.35,570.423 1664.56,568.477 1666.76,566.511 1668.97,564.525 1671.17,562.519 1673.38,560.494 1675.58,558.448 1677.79,556.381 1680,554.293 1682.2,552.185 1684.41,550.055 1686.61,547.904 1688.82,545.731 1691.02,653.706 1693.23,652.598 1695.44,651.478 1697.64,650.347 1699.85,649.205 1702.05,648.051 1704.26,646.886 1706.47,645.709 1708.67,644.52 1710.88,643.319 1713.08,642.106 1715.29,640.881 1717.49,639.644 1719.7,638.394 1721.91,637.131 1724.11,635.856 1726.32,634.569 1728.52,633.268 1730.73,631.954 1732.93,630.627 1735.14,629.287 1737.35,627.933 1739.55,626.566 1741.76,625.185 1743.96,623.79 1746.17,622.381 1748.37,620.958 1750.58,619.52 1752.79,618.069 1754.99,616.602 1757.2,615.121 1759.4,613.625 1761.61,612.114 1763.82,610.588 1766.02,609.046 1768.23,607.489 1770.43,605.917 1772.64,604.328 1774.84,602.724 1777.05,601.103 1779.26,599.466 1781.46,597.813 1783.67,596.142 1785.87,594.455 1788.08,592.752 1790.28,591.03 1792.49,589.292 1794.7,587.536 1796.9,585.762 1799.11,583.971 1801.31,582.161 1803.52,580.333 1805.72,578.487 1807.93,576.622 1810.14,574.738 1812.34,572.836 1814.55,570.914 1816.75,568.972 1818.96,567.012 1821.17,565.031 1823.37,563.03 1825.58,561.009 1827.78,558.968 1829.99,556.906 1832.19,554.824 1834.4,552.72 1836.61,550.595 1838.81,548.449 1841.02,546.281 1843.22,544.092 1845.43,541.88 1847.63,539.646 1849.84,537.389 1852.05,535.11 1854.25,532.808 1856.46,530.482 1858.66,528.134 1860.87,525.761 1863.07,523.365 1865.28,520.945 1867.49,518.5 1869.69,516.031 1871.9,513.537 1874.1,511.018 1876.31,508.474 1878.52,505.904 1880.72,503.309 1882.93,632.283 1885.13,630.959 1887.34,629.621 1889.54,628.271 1891.75,626.907 1893.96,625.529 1896.16,624.137 1898.37,622.731 1900.57,621.311 1902.78,619.877 1904.98,618.428 1907.19,616.965 1909.4,615.487 1911.6,613.994 1913.81,612.486 1916.01,610.963 1918.22,609.425 1920.42,607.871 1922.63,606.301 1924.84,604.716 1927.04,603.115 1929.25,601.498 1931.45,599.864 1933.66,598.214 1935.87,596.548 1938.07,594.864 1940.28,593.164 1942.48,591.447 1944.69,589.712 1946.89,587.96 1949.1,586.19 1951.31,584.402 1953.51,582.597 1955.72,580.773 1957.92,578.931 1960.13,577.07 1962.33,575.191 1964.54,573.293 1966.75,571.375 1968.95,569.439 1971.16,567.483 1973.36,565.507 1975.57,663.701 1977.77,662.694 1979.98,661.676 1982.19,660.647 1984.39,659.609 1986.6,658.56 1988.8,657.5 1991.01,656.43 1993.22,655.349 1995.42,654.257 1997.63,653.155 1999.83,652.041 2002.04,650.916 2004.24,649.779 2006.45,648.631 2008.66,647.472 2010.86,646.301 2013.07,645.118 2015.27,643.923 2017.48,642.717 2019.68,641.498 2021.89,640.266 2024.1,639.023 2026.3,637.767 2028.51,636.498 2030.71,635.217 2032.92,633.922 2035.12,632.615 2037.33,631.294 2039.54,629.961 2041.74,696.247 2043.95,695.566 2046.15,694.879 2048.36,694.185 2050.57,693.484 2052.77,692.775 2054.98,692.06 2057.18,691.338 2059.39,690.608 2061.59,689.871 2063.8,689.126 2066.01,688.374 2068.21,687.614 2070.42,686.847 2072.62,686.072 2074.83,685.29 2077.03,684.499 2079.24,683.7 2081.45,682.894 2083.65,682.079 2085.86,681.257 2088.06,680.426 2090.27,679.586 2092.47,678.739 2094.68,677.882 2096.89,677.017 2099.09,676.144 2101.3,675.262 2103.5,674.37 2105.71,673.47 2107.92,672.561 2110.12,671.643 2112.33,670.715 2114.53,669.778 2116.74,668.832 2118.94,667.876 2121.15,666.911 2123.36,665.936 2125.56,664.951 2127.77,663.956 2129.97,662.951 2132.18,661.936 2134.38,660.911 2136.59,659.875 2138.8,658.83 2141,657.773 2143.21,656.706 2145.41,655.628 2147.62,654.539 2149.82,653.439 2152.03,652.329 2154.24,651.207 2156.44,650.073 2158.65,648.928 2160.85,647.772 2163.06,646.604 2165.27,645.424 2167.47,644.233 2169.68,643.029 2171.88,641.813 2174.09,640.585 2176.29,639.344 2178.5,638.091 2180.71,636.826 2182.91,635.547 2185.12,634.256 2187.32,632.952 2189.53,631.634 2191.73,630.303 2193.94,628.959 2196.15,627.601 2198.35,626.23 2200.56,624.845 2202.76,623.446 2204.97,622.032 2207.18,620.605 2209.38,619.163 2211.59,617.707 2213.79,616.236 2216,614.75 2218.2,613.249 2220.41,611.733 2222.62,610.202 2224.82,608.656 2227.03,607.094 2229.23,605.517 2231.44,603.923 2233.64,602.314 2235.85,600.689 2238.06,599.047 2240.26,597.389 2242.47,595.714 2244.67,594.022 2246.88,592.313 2249.08,590.587 2251.29,588.844 2253.5,587.083 2255.7,585.304 2257.91,583.508 2260.11,581.693 2262.32,579.86 2264.53,578.009 2266.73,576.139 2268.94,574.251 2271.14,572.343 2273.35,570.416 2275.55,568.47 2277.76,566.504 2279.97,564.519 2282.17,562.513 2284.38,560.487 2286.58,558.441 2288.79,556.375 2290.99,554.287 2293.2,552.179 2295.41,550.049 2297.61,547.898 2299.82,545.725 2302.02,543.531 2304.23,541.314 2306.43,539.075 2308.64,536.814 2310.85,534.529 2313.05,532.222 2315.26,529.891 2317.46,527.537 2319.67,525.16 2321.88,522.758 2324.08,520.332 2326.29,517.882 2328.49,515.407 2330.7,512.908 2332.9,510.383 2335.11,507.832 2337.32,505.256 2339.52,502.654 2341.73,500.026 2343.93,497.372 2346.14,494.691 2348.34,491.982 2350.55,489.247 2352.76,486.484 "/>
<polyline clip-path="url(#clip242)" style="stroke:#e26f46; stroke-linecap:round; stroke-linejoin:round; stroke-width:8; stroke-opacity:1; fill:none" points="149.191,764.243 151.397,763.984 153.602,868.588 155.808,868.456 158.014,868.322 160.22,868.187 162.425,868.05 164.631,867.913 166.837,867.773 169.043,867.633 171.249,867.491 173.454,867.347 175.66,867.202 177.866,867.056 180.072,866.908 182.277,866.759 184.483,866.608 186.689,866.456 188.895,866.302 191.101,866.147 193.306,865.99 195.512,865.831 197.718,865.671 199.924,865.509 202.129,865.346 204.335,865.181 206.541,865.014 208.747,864.846 210.952,864.676 213.158,864.504 215.364,864.331 217.57,864.155 219.776,863.978 221.981,863.799 224.187,863.619 226.393,863.437 228.599,863.252 230.804,863.066 233.01,862.878 235.216,862.688 237.422,862.497 239.627,862.303 241.833,862.107 244.039,861.91 246.245,861.71 248.451,861.509 250.656,861.305 252.862,861.099 255.068,860.892 257.274,860.682 259.479,860.47 261.685,860.256 263.891,860.039 266.097,859.821 268.302,859.6 270.508,859.378 272.714,859.153 274.92,858.925 277.126,858.696 279.331,858.464 281.537,858.229 283.743,857.993 285.949,857.754 288.154,857.512 290.36,857.269 292.566,857.022 294.772,856.774 296.978,856.522 299.183,856.269 301.389,856.012 303.595,855.753 305.801,855.492 308.006,855.228 310.212,854.961 312.418,854.691 314.624,854.419 316.829,854.144 319.035,853.866 321.241,853.586 323.447,853.303 325.653,853.016 327.858,852.727 330.064,852.435 332.27,852.141 334.476,851.843 336.681,851.542 338.887,851.238 341.093,850.931 343.299,850.621 345.504,850.308 347.71,849.991 349.916,849.672 352.122,849.349 354.328,849.023 356.533,848.694 358.739,848.362 360.945,848.026 363.151,847.686 365.356,847.344 367.562,846.998 369.768,846.648 371.974,846.295 374.179,845.938 376.385,845.578 378.591,845.214 380.797,844.846 383.003,844.475 385.208,844.1 387.414,843.722 389.62,843.339 391.826,842.953 394.031,842.562 396.237,842.168 398.443,841.77 400.649,841.368 402.855,840.961 405.06,840.551 407.266,840.137 409.472,839.718 411.678,839.295 413.883,838.868 416.089,838.437 418.295,838.001 420.501,837.561 422.706,837.116 424.912,836.667 427.118,836.214 429.324,835.756 431.53,835.293 433.735,834.826 435.941,834.353 438.147,833.877 440.353,833.395 442.558,832.909 444.764,832.417 446.97,831.921 449.176,831.42 451.381,830.913 453.587,830.402 455.793,829.885 457.999,829.364 460.205,828.837 462.41,828.304 464.616,827.767 466.822,827.223 469.028,826.675 471.233,826.121 473.439,825.561 475.645,824.996 477.851,824.425 480.056,823.848 482.262,823.266 484.468,822.678 486.674,822.083 488.88,821.483 491.085,820.877 493.291,820.264 495.497,819.646 497.703,819.021 499.908,818.39 502.114,817.753 504.32,817.109 506.526,816.459 508.732,815.802 510.937,815.138 513.143,814.468 515.349,813.792 517.555,813.108 519.76,812.417 521.966,811.72 524.172,811.015 526.378,810.304 528.583,809.585 530.789,808.859 532.995,808.126 535.201,807.385 537.407,806.637 539.612,805.881 541.818,805.118 544.024,804.347 546.23,803.568 548.435,802.782 550.641,801.987 552.847,801.185 555.053,800.374 557.258,799.556 559.464,798.729 561.67,797.893 563.876,797.05 566.082,796.198 568.287,795.337 570.493,794.468 572.699,793.59 574.905,792.703 577.11,791.807 579.316,790.902 581.522,789.988 583.728,789.065 585.933,788.133 588.139,787.191 590.345,786.239 592.551,785.279 594.757,784.308 596.962,783.328 599.168,782.338 601.374,781.338 603.58,780.327 605.785,779.307 607.991,778.276 610.197,777.236 612.403,776.184 614.609,775.122 616.814,774.049 619.02,772.966 621.226,771.871 623.432,770.766 625.637,769.65 627.843,768.522 630.049,767.383 632.255,766.232 634.46,765.07 636.666,763.896 638.872,1384.24 641.078,1383.64 643.284,1383.03 645.489,1382.42 647.695,1381.81 649.901,1381.18 652.107,1380.55 654.312,1379.92 656.518,1379.28 658.724,1378.63 660.93,1377.97 663.135,1377.31 665.341,1376.64 667.547,1375.97 669.753,1375.28 671.959,1374.6 674.164,1373.9 676.37,1373.2 678.576,1372.49 680.782,1371.77 682.987,1371.05 685.193,1370.31 687.399,1369.58 689.605,1368.83 691.81,1368.08 694.016,1367.31 696.222,1366.55 698.428,1365.77 700.634,1364.98 702.839,1364.19 705.045,1363.39 707.251,1362.58 709.457,1361.77 711.662,1360.94 713.868,1360.11 716.074,1359.27 718.28,1358.42 720.486,1357.56 722.691,1356.69 724.897,1355.82 727.103,1354.93 729.309,1354.04 731.514,1353.13 733.72,1352.22 735.926,1351.3 738.132,1350.37 740.337,1349.43 742.543,1348.48 744.749,1347.52 746.955,1346.56 749.161,1345.58 751.366,1344.59 753.572,1343.59 755.778,1342.59 757.984,1341.57 760.189,1340.54 762.395,1339.5 764.601,1338.45 766.807,1337.39 769.012,1336.32 771.218,1335.24 773.424,1334.15 775.63,1333.05 777.836,1331.93 780.041,1330.81 782.247,1329.67 784.453,1328.52 786.659,1327.36 788.864,1326.19 791.07,1325.01 793.276,1323.82 795.482,1322.61 797.687,1321.39 799.893,1320.16 802.099,1318.92 804.305,1317.66 806.511,1316.39 808.716,1315.11 810.922,1313.82 813.128,1312.51 815.334,1311.19 817.539,1309.86 819.745,1308.51 821.951,1307.15 824.157,1305.78 826.363,1304.39 828.568,1302.99 830.774,1301.57 832.98,1300.14 835.186,1298.7 837.391,1297.24 839.597,1295.76 841.803,1294.27 844.009,1292.77 846.214,1291.25 848.42,1289.72 850.626,1288.17 852.832,1286.6 855.038,1285.02 857.243,1283.43 859.449,1281.81 861.655,1280.19 863.861,1278.54 866.066,1276.88 868.272,1275.2 870.478,1273.5 872.684,1271.79 874.889,1270.06 877.095,1268.31 879.301,1266.55 881.507,1264.77 883.713,1262.96 885.918,1261.15 888.124,1259.31 890.33,1257.45 892.536,1255.58 894.741,1253.69 896.947,1251.77 899.153,1249.84 901.359,1247.89 903.564,1245.92 905.77,1243.93 907.976,1241.92 910.182,1239.89 912.388,1237.84 914.593,1235.76 916.799,1233.67 919.005,1231.56 921.211,1229.42 923.416,1227.26 925.622,1225.09 927.828,1222.89 930.034,1220.66 932.24,1218.42 934.445,1216.15 936.651,1213.86 938.857,1211.55 941.063,1209.21 943.268,1206.85 945.474,1204.47 947.68,1202.06 949.886,1199.63 952.091,1197.17 954.297,1194.69 956.503,1192.19 958.709,1189.66 960.915,1187.1 963.12,1184.52 965.326,1181.91 967.532,1179.28 969.738,1176.61 971.943,1173.93 974.149,1171.21 976.355,1168.47 978.561,1165.7 980.766,1162.9 982.972,1160.08 985.178,1157.23 987.384,1154.34 989.59,1151.43 991.795,1148.49 994.001,1145.52 996.207,1142.52 998.413,1139.49 1000.62,1136.43 1002.82,1133.34 1005.03,1130.22 1007.24,1127.07 1009.44,1123.88 1011.65,1120.66 1013.85,1117.41 1016.06,1114.13 1018.26,1110.82 1020.47,1107.47 1022.68,1104.09 1024.88,1100.67 1027.09,1097.22 1029.29,1093.73 1031.5,1090.21 1033.7,1086.66 1035.91,1083.06 1038.12,1079.44 1040.32,1075.77 1042.53,1072.07 1044.73,1068.33 1046.94,1064.55 1049.15,1060.74 1051.35,1056.89 1053.56,1052.99 1055.76,1049.06 1057.97,1045.09 1060.17,1041.08 1062.38,1037.03 1064.59,1032.94 1066.79,1028.8 1069,1024.63 1071.2,1020.41 1073.41,1016.15 1075.61,1011.85 1077.82,1007.5 1080.03,1003.11 1082.23,998.679 1084.44,994.201 1086.64,989.677 1088.85,985.108 1091.06,980.493 1093.26,975.831 1095.47,971.123 1097.67,966.367 1099.88,961.563 1102.08,956.712 1104.29,951.811 1106.5,946.861 1108.7,941.862 1110.91,936.812 1113.11,931.712 1115.32,926.561 1117.52,921.358 1119.73,916.102 1121.94,910.794 1124.14,905.432 1126.35,900.017 1128.55,894.546 1130.76,889.021 1132.96,883.44 1135.17,877.803 1137.38,872.11 1139.58,866.359 1141.79,860.55 1143.99,854.683 1146.2,848.757 1148.41,842.771 1150.61,836.725 1152.82,830.618 1155.02,824.449 1157.23,818.219 1159.43,811.926 1161.64,805.57 1163.85,799.149 1166.05,792.664 1168.26,786.114 1170.46,779.498 1172.67,772.815 1174.87,766.065 1177.08,862.703 1179.29,859.26 1181.49,855.782 1183.7,852.27 1185.9,848.721 1188.11,845.138 1190.31,841.518 1192.52,837.862 1194.73,834.169 1196.93,830.438 1199.14,826.671 1201.34,822.865 1203.55,819.021 1205.76,815.139 1207.96,811.217 1210.17,807.256 1212.37,803.255 1214.58,799.214 1216.78,795.132 1218.99,791.009 1221.2,786.845 1223.4,782.638 1225.61,778.39 1227.81,774.098 1230.02,769.764 1232.22,765.386 1234.43,988.089 1236.64,985.856 1238.84,983.6 1241.05,981.321 1243.25,979.02 1245.46,976.695 1247.66,974.347 1249.87,971.975 1252.08,969.58 1254.28,967.16 1256.49,964.717 1258.69,962.248 1260.9,959.755 1263.11,957.236 1265.31,954.693 1267.52,952.124 1269.72,949.529 1271.93,946.908 1274.13,944.26 1276.34,941.586 1278.55,938.885 1280.75,936.157 1282.96,933.402 1285.16,930.619 1287.37,927.808 1289.57,924.968 1291.78,922.101 1293.99,919.204 1296.19,916.278 1298.4,913.323 1300.6,910.338 1302.81,907.323 1305.01,904.277 1307.22,901.201 1309.43,898.094 1311.63,894.956 1313.84,891.786 1316.04,888.584 1318.25,885.35 1320.46,882.084 1322.66,878.784 1324.87,875.451 1327.07,872.085 1329.28,868.685 1331.48,865.25 1333.69,861.781 1335.9,858.277 1338.1,854.738 1340.31,851.163 1342.51,847.552 1344.72,843.905 1346.92,840.221 1349.13,836.5 1351.34,832.741 1353.54,828.944 1355.75,825.109 1357.95,821.236 1360.16,817.324 1362.36,813.372 1364.57,809.38 1366.78,805.349 1368.98,801.276 1371.19,797.163 1373.39,793.009 1375.6,788.812 1377.81,784.574 1380.01,780.293 1382.22,775.968 1384.42,771.601 1386.63,767.19 1388.83,863.176 1391.04,860.926 1393.25,858.653 1395.45,856.357 1397.66,854.039 1399.86,851.697 1402.07,849.331 1404.27,846.942 1406.48,844.528 1408.69,842.09 1410.89,839.628 1413.1,837.141 1415.3,834.629 1417.51,832.092 1419.71,829.529 1421.92,826.94 1424.13,824.326 1426.33,821.685 1428.54,819.017 1430.74,816.323 1432.95,813.601 1435.16,810.852 1437.36,808.076 1439.57,805.271 1441.77,802.439 1443.98,799.578 1446.18,796.688 1448.39,793.769 1450.6,790.82 1452.8,787.842 1455.01,784.834 1457.21,781.796 1459.42,778.727 1461.62,775.627 1463.83,772.496 1466.04,769.334 1468.24,766.14 1470.45,777.103 1472.65,775.474 1474.86,773.828 1477.06,772.166 1479.27,770.487 1481.48,768.791 1483.68,767.078 1485.89,765.348 1488.09,895.528 1490.3,894.646 1492.51,893.754 1494.71,892.854 1496.92,891.944 1499.12,891.025 1501.33,890.097 1503.53,889.16 1505.74,888.213 1507.95,887.257 1510.15,886.291 1512.36,885.316 1514.56,884.33 1516.77,883.335 1518.97,882.33 1521.18,881.314 1523.39,880.289 1525.59,879.253 1527.8,878.207 1530,877.15 1532.21,876.083 1534.41,875.005 1536.62,873.916 1538.83,872.816 1541.03,871.705 1543.24,870.583 1545.44,869.45 1547.65,868.305 1549.86,867.149 1552.06,865.981 1554.27,864.802 1556.47,863.611 1558.68,862.407 1560.88,861.192 1563.09,859.964 1565.3,858.724 1567.5,857.472 1569.71,856.207 1571.91,854.929 1574.12,853.638 1576.32,852.334 1578.53,851.018 1580.74,849.688 1582.94,848.344 1585.15,846.987 1587.35,845.616 1589.56,844.232 1591.76,842.833 1593.97,841.421 1596.18,839.994 1598.38,838.553 1600.59,837.097 1602.79,835.627 1605,834.142 1607.21,832.642 1609.41,831.126 1611.62,829.596 1613.82,828.05 1616.03,826.488 1618.23,824.911 1620.44,823.317 1622.65,821.708 1624.85,820.083 1627.06,818.441 1629.26,816.782 1631.47,815.107 1633.67,813.415 1635.88,811.706 1638.09,809.98 1640.29,808.236 1642.5,806.475 1644.7,804.696 1646.91,802.899 1649.12,801.084 1651.32,799.251 1653.53,797.399 1655.73,795.529 1657.94,793.64 1660.14,791.732 1662.35,789.805 1664.56,787.858 1666.76,785.892 1668.97,783.907 1671.17,781.901 1673.38,779.876 1675.58,777.829 1677.79,775.763 1680,773.675 1682.2,771.567 1684.41,769.437 1686.61,767.286 1688.82,765.113 1691.02,916.45 1693.23,915.342 1695.44,914.222 1697.64,913.092 1699.85,911.949 1702.05,910.796 1704.26,909.63 1706.47,908.453 1708.67,907.264 1710.88,906.063 1713.08,904.85 1715.29,903.625 1717.49,902.388 1719.7,901.138 1721.91,899.876 1724.11,898.601 1726.32,897.313 1728.52,896.012 1730.73,894.698 1732.93,893.371 1735.14,892.031 1737.35,890.677 1739.55,889.31 1741.76,887.929 1743.96,886.534 1746.17,885.125 1748.37,883.702 1750.58,882.265 1752.79,880.813 1754.99,879.347 1757.2,877.865 1759.4,876.369 1761.61,874.858 1763.82,873.332 1766.02,871.791 1768.23,870.234 1770.43,868.661 1772.64,867.072 1774.84,865.468 1777.05,863.847 1779.26,862.21 1781.46,860.557 1783.67,858.887 1785.87,857.2 1788.08,855.496 1790.28,853.775 1792.49,852.036 1794.7,850.28 1796.9,848.507 1799.11,846.715 1801.31,844.905 1803.52,843.078 1805.72,841.231 1807.93,839.366 1810.14,837.483 1812.34,835.58 1814.55,833.658 1816.75,831.717 1818.96,829.756 1821.17,827.775 1823.37,825.774 1825.58,823.754 1827.78,821.712 1829.99,819.651 1832.19,817.568 1834.4,815.464 1836.61,813.34 1838.81,811.193 1841.02,809.026 1843.22,806.836 1845.43,804.624 1847.63,802.39 1849.84,800.133 1852.05,797.854 1854.25,795.552 1856.46,793.227 1858.66,790.878 1860.87,788.505 1863.07,786.109 1865.28,783.689 1867.49,781.244 1869.69,778.775 1871.9,776.281 1874.1,773.762 1876.31,771.218 1878.52,768.648 1880.72,766.053 1882.93,831.947 1885.13,830.623 1887.34,829.286 1889.54,827.935 1891.75,826.571 1893.96,825.193 1896.16,823.801 1898.37,822.395 1900.57,820.975 1902.78,819.541 1904.98,818.092 1907.19,816.629 1909.4,815.151 1911.6,813.658 1913.81,812.15 1916.01,810.627 1918.22,809.089 1920.42,807.535 1922.63,805.966 1924.84,804.381 1927.04,802.779 1929.25,801.162 1931.45,799.529 1933.66,797.879 1935.87,796.212 1938.07,794.529 1940.28,792.828 1942.48,791.111 1944.69,789.376 1946.89,787.624 1949.1,785.854 1951.31,784.067 1953.51,782.261 1955.72,780.437 1957.92,778.595 1960.13,776.735 1962.33,774.855 1964.54,772.957 1966.75,771.04 1968.95,769.103 1971.16,767.147 1973.36,765.171 1975.57,797.733 1977.77,796.725 1979.98,795.707 1982.19,794.679 1984.39,793.64 1986.6,792.591 1988.8,791.532 1991.01,790.462 1993.22,789.381 1995.42,788.289 1997.63,787.186 1999.83,786.072 2002.04,784.947 2004.24,783.811 2006.45,782.663 2008.66,781.503 2010.86,780.332 2013.07,779.149 2015.27,777.955 2017.48,776.748 2019.68,775.529 2021.89,774.298 2024.1,773.054 2026.3,771.798 2028.51,770.529 2030.71,769.248 2032.92,767.954 2035.12,766.646 2037.33,765.326 2039.54,763.992 2041.74,1229.05 2043.95,1228.37 2046.15,1227.68 2048.36,1226.99 2050.57,1226.29 2052.77,1225.58 2054.98,1224.87 2057.18,1224.14 2059.39,1223.41 2061.59,1222.68 2063.8,1221.93 2066.01,1221.18 2068.21,1220.42 2070.42,1219.65 2072.62,1218.88 2074.83,1218.1 2077.03,1217.3 2079.24,1216.51 2081.45,1215.7 2083.65,1214.88 2085.86,1214.06 2088.06,1213.23 2090.27,1212.39 2092.47,1211.54 2094.68,1210.69 2096.89,1209.82 2099.09,1208.95 2101.3,1208.07 2103.5,1207.18 2105.71,1206.28 2107.92,1205.37 2110.12,1204.45 2112.33,1203.52 2114.53,1202.58 2116.74,1201.64 2118.94,1200.68 2121.15,1199.72 2123.36,1198.74 2125.56,1197.76 2127.77,1196.76 2129.97,1195.76 2132.18,1194.74 2134.38,1193.72 2136.59,1192.68 2138.8,1191.64 2141,1190.58 2143.21,1189.51 2145.41,1188.43 2147.62,1187.34 2149.82,1186.25 2152.03,1185.13 2154.24,1184.01 2156.44,1182.88 2158.65,1181.73 2160.85,1180.58 2163.06,1179.41 2165.27,1178.23 2167.47,1177.04 2169.68,1175.83 2171.88,1174.62 2174.09,1173.39 2176.29,1172.15 2178.5,1170.9 2180.71,1169.63 2182.91,1168.35 2185.12,1167.06 2187.32,1165.76 2189.53,1164.44 2191.73,1163.11 2193.94,1161.76 2196.15,1160.41 2198.35,1159.04 2200.56,1157.65 2202.76,1156.25 2204.97,1154.84 2207.18,1153.41 2209.38,1151.97 2211.59,1150.51 2213.79,1149.04 2216,1147.56 2218.2,1146.05 2220.41,1144.54 2222.62,1143.01 2224.82,1141.46 2227.03,1139.9 2229.23,1138.32 2231.44,1136.73 2233.64,1135.12 2235.85,1133.49 2238.06,1131.85 2240.26,1130.19 2242.47,1128.52 2244.67,1126.83 2246.88,1125.12 2249.08,1123.39 2251.29,1121.65 2253.5,1119.89 2255.7,1118.11 2257.91,1116.31 2260.11,1114.5 2262.32,1112.67 2264.53,1110.81 2266.73,1108.94 2268.94,1107.06 2271.14,1105.15 2273.35,1103.22 2275.55,1101.28 2277.76,1099.31 2279.97,1097.32 2282.17,1095.32 2284.38,1093.29 2286.58,1091.25 2288.79,1089.18 2290.99,1087.09 2293.2,1084.98 2295.41,1082.85 2297.61,1080.7 2299.82,1078.53 2302.02,1076.34 2304.23,1074.12 2306.43,1071.88 2308.64,1069.62 2310.85,1067.33 2313.05,1065.03 2315.26,1062.7 2317.46,1060.34 2319.67,1057.97 2321.88,1055.56 2324.08,1053.14 2326.29,1050.69 2328.49,1048.21 2330.7,1045.71 2332.9,1043.19 2335.11,1040.64 2337.32,1038.06 2339.52,1035.46 2341.73,1032.83 2343.93,1030.18 2346.14,1027.5 2348.34,1024.79 2350.55,1022.05 2352.76,1019.29 "/>
<path clip-path="url(#clip240)" d="M1969.85 248.629 L2279.3 248.629 L2279.3 93.1086 L1969.85 93.1086  Z" fill="#ffffff" fill-rule="evenodd" fill-opacity="1"/>
<polyline clip-path="url(#clip240)" style="stroke:#000000; stroke-linecap:round; stroke-linejoin:round; stroke-width:4; stroke-opacity:1; fill:none" points="1969.85,248.629 2279.3,248.629 2279.3,93.1086 1969.85,93.1086 1969.85,248.629 "/>
<polyline clip-path="url(#clip240)" style="stroke:#009af9; stroke-linecap:round; stroke-linejoin:round; stroke-width:8; stroke-opacity:1; fill:none" points="1994.33,144.949 2141.24,144.949 "/>
<path clip-path="url(#clip240)" d="M2165.72 151.997 L2165.72 136.303 L2169.98 136.303 L2169.98 151.835 Q2169.98 155.516 2171.42 157.368 Q2172.85 159.196 2175.72 159.196 Q2179.17 159.196 2181.16 156.997 Q2183.18 154.798 2183.18 151.002 L2183.18 136.303 L2187.44 136.303 L2187.44 162.229 L2183.18 162.229 L2183.18 158.247 Q2181.63 160.608 2179.57 161.766 Q2177.53 162.9 2174.82 162.9 Q2170.35 162.9 2168.04 160.122 Q2165.72 157.344 2165.72 151.997 M2176.44 135.678 L2176.44 135.678 Z" fill="#000000" fill-rule="nonzero" fill-opacity="1" /><path clip-path="url(#clip240)" d="M2195.82 126.21 L2205.63 126.21 L2205.63 129.52 L2200.07 129.52 L2200.07 165.168 L2205.63 165.168 L2205.63 168.479 L2195.82 168.479 L2195.82 126.21 Z" fill="#000000" fill-rule="nonzero" fill-opacity="1" /><path clip-path="url(#clip240)" d="M2216.12 158.293 L2223.76 158.293 L2223.76 131.928 L2215.44 133.595 L2215.44 129.335 L2223.71 127.669 L2228.38 127.669 L2228.38 158.293 L2236.02 158.293 L2236.02 162.229 L2216.12 162.229 L2216.12 158.293 Z" fill="#000000" fill-rule="nonzero" fill-opacity="1" /><path clip-path="url(#clip240)" d="M2254.82 126.21 L2254.82 168.479 L2245 168.479 L2245 165.168 L2250.54 165.168 L2250.54 129.52 L2245 129.52 L2245 126.21 L2254.82 126.21 Z" fill="#000000" fill-rule="nonzero" fill-opacity="1" /><polyline clip-path="url(#clip240)" style="stroke:#e26f46; stroke-linecap:round; stroke-linejoin:round; stroke-width:8; stroke-opacity:1; fill:none" points="1994.33,196.789 2141.24,196.789 "/>
<path clip-path="url(#clip240)" d="M2165.72 203.837 L2165.72 188.143 L2169.98 188.143 L2169.98 203.675 Q2169.98 207.356 2171.42 209.208 Q2172.85 211.036 2175.72 211.036 Q2179.17 211.036 2181.16 208.837 Q2183.18 206.638 2183.18 202.842 L2183.18 188.143 L2187.44 188.143 L2187.44 214.069 L2183.18 214.069 L2183.18 210.087 Q2181.63 212.448 2179.57 213.606 Q2177.53 214.74 2174.82 214.74 Q2170.35 214.74 2168.04 211.962 Q2165.72 209.184 2165.72 203.837 M2176.44 187.518 L2176.44 187.518 Z" fill="#000000" fill-rule="nonzero" fill-opacity="1" /><path clip-path="url(#clip240)" d="M2195.82 178.05 L2205.63 178.05 L2205.63 181.36 L2200.07 181.36 L2200.07 217.008 L2205.63 217.008 L2205.63 220.319 L2195.82 220.319 L2195.82 178.05 Z" fill="#000000" fill-rule="nonzero" fill-opacity="1" /><path clip-path="url(#clip240)" d="M2219.33 210.133 L2235.65 210.133 L2235.65 214.069 L2213.71 214.069 L2213.71 210.133 Q2216.37 207.379 2220.95 202.749 Q2225.56 198.096 2226.74 196.754 Q2228.99 194.231 2229.87 192.495 Q2230.77 190.735 2230.77 189.046 Q2230.77 186.291 2228.82 184.555 Q2226.9 182.819 2223.8 182.819 Q2221.6 182.819 2219.15 183.583 Q2216.72 184.347 2213.94 185.897 L2213.94 181.175 Q2216.76 180.041 2219.22 179.462 Q2221.67 178.884 2223.71 178.884 Q2229.08 178.884 2232.27 181.569 Q2235.47 184.254 2235.47 188.745 Q2235.47 190.874 2234.66 192.796 Q2233.87 194.694 2231.76 197.286 Q2231.19 197.958 2228.08 201.175 Q2224.98 204.37 2219.33 210.133 Z" fill="#000000" fill-rule="nonzero" fill-opacity="1" /><path clip-path="url(#clip240)" d="M2254.82 178.05 L2254.82 220.319 L2245 220.319 L2245 217.008 L2250.54 217.008 L2250.54 181.36 L2245 181.36 L2245 178.05 L2254.82 178.05 Z" fill="#000000" fill-rule="nonzero" fill-opacity="1" /></svg>
