<?xml version="1.0" encoding="utf-8"?>
<svg xmlns="http://www.w3.org/2000/svg" xmlns:xlink="http://www.w3.org/1999/xlink" width="600" height="400" viewBox="0 0 2400 1600">
<defs>
  <clipPath id="clip850">
    <rect x="0" y="0" width="2400" height="1600"/>
  </clipPath>
</defs>
<path clip-path="url(#clip850)" d="M0 1600 L2400 1600 L2400 0 L0 0  Z" fill="#ffffff" fill-rule="evenodd" fill-opacity="1"/>
<defs>
  <clipPath id="clip851">
    <rect x="480" y="0" width="1681" height="1600"/>
  </clipPath>
</defs>
<path clip-path="url(#clip850)" d="M156.598 1423.18 L2352.76 1423.18 L2352.76 47.2441 L156.598 47.2441  Z" fill="#ffffff" fill-rule="evenodd" fill-opacity="1"/>
<defs>
  <clipPath id="clip852">
    <rect x="156" y="47" width="2197" height="1377"/>
  </clipPath>
</defs>
<polyline clip-path="url(#clip852)" style="stroke:#000000; stroke-linecap:round; stroke-linejoin:round; stroke-width:2; stroke-opacity:0.1; fill:none" points="156.598,1423.18 156.598,47.2441 "/>
<polyline clip-path="url(#clip852)" style="stroke:#000000; stroke-linecap:round; stroke-linejoin:round; stroke-width:2; stroke-opacity:0.1; fill:none" points="595.83,1423.18 595.83,47.2441 "/>
<polyline clip-path="url(#clip852)" style="stroke:#000000; stroke-linecap:round; stroke-linejoin:round; stroke-width:2; stroke-opacity:0.1; fill:none" points="1035.06,1423.18 1035.06,47.2441 "/>
<polyline clip-path="url(#clip852)" style="stroke:#000000; stroke-linecap:round; stroke-linejoin:round; stroke-width:2; stroke-opacity:0.1; fill:none" points="1474.29,1423.18 1474.29,47.2441 "/>
<polyline clip-path="url(#clip852)" style="stroke:#000000; stroke-linecap:round; stroke-linejoin:round; stroke-width:2; stroke-opacity:0.1; fill:none" points="1913.52,1423.18 1913.52,47.2441 "/>
<polyline clip-path="url(#clip852)" style="stroke:#000000; stroke-linecap:round; stroke-linejoin:round; stroke-width:2; stroke-opacity:0.1; fill:none" points="2352.76,1423.18 2352.76,47.2441 "/>
<polyline clip-path="url(#clip850)" style="stroke:#000000; stroke-linecap:round; stroke-linejoin:round; stroke-width:4; stroke-opacity:1; fill:none" points="156.598,1423.18 2352.76,1423.18 "/>
<polyline clip-path="url(#clip850)" style="stroke:#000000; stroke-linecap:round; stroke-linejoin:round; stroke-width:4; stroke-opacity:1; fill:none" points="156.598,1423.18 156.598,1404.28 "/>
<polyline clip-path="url(#clip850)" style="stroke:#000000; stroke-linecap:round; stroke-linejoin:round; stroke-width:4; stroke-opacity:1; fill:none" points="595.83,1423.18 595.83,1404.28 "/>
<polyline clip-path="url(#clip850)" style="stroke:#000000; stroke-linecap:round; stroke-linejoin:round; stroke-width:4; stroke-opacity:1; fill:none" points="1035.06,1423.18 1035.06,1404.28 "/>
<polyline clip-path="url(#clip850)" style="stroke:#000000; stroke-linecap:round; stroke-linejoin:round; stroke-width:4; stroke-opacity:1; fill:none" points="1474.29,1423.18 1474.29,1404.28 "/>
<polyline clip-path="url(#clip850)" style="stroke:#000000; stroke-linecap:round; stroke-linejoin:round; stroke-width:4; stroke-opacity:1; fill:none" points="1913.52,1423.18 1913.52,1404.28 "/>
<polyline clip-path="url(#clip850)" style="stroke:#000000; stroke-linecap:round; stroke-linejoin:round; stroke-width:4; stroke-opacity:1; fill:none" points="2352.76,1423.18 2352.76,1404.28 "/>
<path clip-path="url(#clip850)" d="M156.598 1454.1 Q152.987 1454.1 151.158 1457.66 Q149.353 1461.2 149.353 1468.33 Q149.353 1475.44 151.158 1479.01 Q152.987 1482.55 156.598 1482.55 Q160.232 1482.55 162.038 1479.01 Q163.867 1475.44 163.867 1468.33 Q163.867 1461.2 162.038 1457.66 Q160.232 1454.1 156.598 1454.1 M156.598 1450.39 Q162.408 1450.39 165.464 1455 Q168.543 1459.58 168.543 1468.33 Q168.543 1477.06 165.464 1481.67 Q162.408 1486.25 156.598 1486.25 Q150.788 1486.25 147.709 1481.67 Q144.654 1477.06 144.654 1468.33 Q144.654 1459.58 147.709 1455 Q150.788 1450.39 156.598 1450.39 Z" fill="#000000" fill-rule="nonzero" fill-opacity="1" /><path clip-path="url(#clip850)" d="M590.483 1481.64 L606.802 1481.64 L606.802 1485.58 L584.858 1485.58 L584.858 1481.64 Q587.52 1478.89 592.103 1474.26 Q596.709 1469.61 597.89 1468.27 Q600.135 1465.74 601.015 1464.01 Q601.918 1462.25 601.918 1460.56 Q601.918 1457.8 599.973 1456.07 Q598.052 1454.33 594.95 1454.33 Q592.751 1454.33 590.297 1455.09 Q587.867 1455.86 585.089 1457.41 L585.089 1452.69 Q587.913 1451.55 590.367 1450.97 Q592.821 1450.39 594.858 1450.39 Q600.228 1450.39 603.422 1453.08 Q606.617 1455.77 606.617 1460.26 Q606.617 1462.39 605.807 1464.31 Q605.02 1466.2 602.913 1468.8 Q602.334 1469.47 599.233 1472.69 Q596.131 1475.88 590.483 1481.64 Z" fill="#000000" fill-rule="nonzero" fill-opacity="1" /><path clip-path="url(#clip850)" d="M1038.07 1455.09 L1026.27 1473.54 L1038.07 1473.54 L1038.07 1455.09 M1036.84 1451.02 L1042.72 1451.02 L1042.72 1473.54 L1047.65 1473.54 L1047.65 1477.43 L1042.72 1477.43 L1042.72 1485.58 L1038.07 1485.58 L1038.07 1477.43 L1022.47 1477.43 L1022.47 1472.92 L1036.84 1451.02 Z" fill="#000000" fill-rule="nonzero" fill-opacity="1" /><path clip-path="url(#clip850)" d="M1474.7 1466.44 Q1471.55 1466.44 1469.7 1468.59 Q1467.87 1470.74 1467.87 1474.49 Q1467.87 1478.22 1469.7 1480.39 Q1471.55 1482.55 1474.7 1482.55 Q1477.85 1482.55 1479.67 1480.39 Q1481.53 1478.22 1481.53 1474.49 Q1481.53 1470.74 1479.67 1468.59 Q1477.85 1466.44 1474.7 1466.44 M1483.98 1451.78 L1483.98 1456.04 Q1482.22 1455.21 1480.42 1454.77 Q1478.63 1454.33 1476.87 1454.33 Q1472.24 1454.33 1469.79 1457.45 Q1467.36 1460.58 1467.01 1466.9 Q1468.38 1464.89 1470.44 1463.82 Q1472.5 1462.73 1474.98 1462.73 Q1480.18 1462.73 1483.19 1465.9 Q1486.23 1469.05 1486.23 1474.49 Q1486.23 1479.82 1483.08 1483.03 Q1479.93 1486.25 1474.7 1486.25 Q1468.7 1486.25 1465.53 1481.67 Q1462.36 1477.06 1462.36 1468.33 Q1462.36 1460.14 1466.25 1455.28 Q1470.14 1450.39 1476.69 1450.39 Q1478.45 1450.39 1480.23 1450.74 Q1482.04 1451.09 1483.98 1451.78 Z" fill="#000000" fill-rule="nonzero" fill-opacity="1" /><path clip-path="url(#clip850)" d="M1913.52 1469.17 Q1910.19 1469.17 1908.27 1470.95 Q1906.37 1472.73 1906.37 1475.86 Q1906.37 1478.98 1908.27 1480.77 Q1910.19 1482.55 1913.52 1482.55 Q1916.86 1482.55 1918.78 1480.77 Q1920.7 1478.96 1920.7 1475.86 Q1920.7 1472.73 1918.78 1470.95 Q1916.88 1469.17 1913.52 1469.17 M1908.85 1467.18 Q1905.84 1466.44 1904.15 1464.38 Q1902.48 1462.32 1902.48 1459.35 Q1902.48 1455.21 1905.42 1452.8 Q1908.39 1450.39 1913.52 1450.39 Q1918.69 1450.39 1921.63 1452.8 Q1924.57 1455.21 1924.57 1459.35 Q1924.57 1462.32 1922.88 1464.38 Q1921.21 1466.44 1918.22 1467.18 Q1921.6 1467.96 1923.48 1470.26 Q1925.38 1472.55 1925.38 1475.86 Q1925.38 1480.88 1922.3 1483.57 Q1919.24 1486.25 1913.52 1486.25 Q1907.81 1486.25 1904.73 1483.57 Q1901.67 1480.88 1901.67 1475.86 Q1901.67 1472.55 1903.57 1470.26 Q1905.47 1467.96 1908.85 1467.18 M1907.14 1459.79 Q1907.14 1462.48 1908.8 1463.98 Q1910.49 1465.49 1913.52 1465.49 Q1916.53 1465.49 1918.22 1463.98 Q1919.94 1462.48 1919.94 1459.79 Q1919.94 1457.11 1918.22 1455.6 Q1916.53 1454.1 1913.52 1454.1 Q1910.49 1454.1 1908.8 1455.6 Q1907.14 1457.11 1907.14 1459.79 Z" fill="#000000" fill-rule="nonzero" fill-opacity="1" /><path clip-path="url(#clip850)" d="M2327.44 1481.64 L2335.08 1481.64 L2335.08 1455.28 L2326.77 1456.95 L2326.77 1452.69 L2335.04 1451.02 L2339.71 1451.02 L2339.71 1481.64 L2347.35 1481.64 L2347.35 1485.58 L2327.44 1485.58 L2327.44 1481.64 Z" fill="#000000" fill-rule="nonzero" fill-opacity="1" /><path clip-path="url(#clip850)" d="M2366.8 1454.1 Q2363.18 1454.1 2361.36 1457.66 Q2359.55 1461.2 2359.55 1468.33 Q2359.55 1475.44 2361.36 1479.01 Q2363.18 1482.55 2366.8 1482.55 Q2370.43 1482.55 2372.23 1479.01 Q2374.06 1475.44 2374.06 1468.33 Q2374.06 1461.2 2372.23 1457.66 Q2370.43 1454.1 2366.8 1454.1 M2366.8 1450.39 Q2372.61 1450.39 2375.66 1455 Q2378.74 1459.58 2378.74 1468.33 Q2378.74 1477.06 2375.66 1481.67 Q2372.61 1486.25 2366.8 1486.25 Q2360.99 1486.25 2357.91 1481.67 Q2354.85 1477.06 2354.85 1468.33 Q2354.85 1459.58 2357.91 1455 Q2360.99 1450.39 2366.8 1450.39 Z" fill="#000000" fill-rule="nonzero" fill-opacity="1" /><path clip-path="url(#clip850)" d="M1253.74 1522.27 L1253.74 1532.4 L1265.8 1532.4 L1265.8 1536.95 L1253.74 1536.95 L1253.74 1556.3 Q1253.74 1560.66 1254.92 1561.9 Q1256.13 1563.14 1259.79 1563.14 L1265.8 1563.14 L1265.8 1568.04 L1259.79 1568.04 Q1253.01 1568.04 1250.43 1565.53 Q1247.85 1562.98 1247.85 1556.3 L1247.85 1536.95 L1243.55 1536.95 L1243.55 1532.4 L1247.85 1532.4 L1247.85 1522.27 L1253.74 1522.27 Z" fill="#000000" fill-rule="nonzero" fill-opacity="1" /><polyline clip-path="url(#clip852)" style="stroke:#000000; stroke-linecap:round; stroke-linejoin:round; stroke-width:2; stroke-opacity:0.1; fill:none" points="156.598,1384.24 2352.76,1384.24 "/>
<polyline clip-path="url(#clip852)" style="stroke:#000000; stroke-linecap:round; stroke-linejoin:round; stroke-width:2; stroke-opacity:0.1; fill:none" points="156.598,1172.71 2352.76,1172.71 "/>
<polyline clip-path="url(#clip852)" style="stroke:#000000; stroke-linecap:round; stroke-linejoin:round; stroke-width:2; stroke-opacity:0.1; fill:none" points="156.598,961.185 2352.76,961.185 "/>
<polyline clip-path="url(#clip852)" style="stroke:#000000; stroke-linecap:round; stroke-linejoin:round; stroke-width:2; stroke-opacity:0.1; fill:none" points="156.598,749.658 2352.76,749.658 "/>
<polyline clip-path="url(#clip852)" style="stroke:#000000; stroke-linecap:round; stroke-linejoin:round; stroke-width:2; stroke-opacity:0.1; fill:none" points="156.598,538.131 2352.76,538.131 "/>
<polyline clip-path="url(#clip852)" style="stroke:#000000; stroke-linecap:round; stroke-linejoin:round; stroke-width:2; stroke-opacity:0.1; fill:none" points="156.598,326.604 2352.76,326.604 "/>
<polyline clip-path="url(#clip852)" style="stroke:#000000; stroke-linecap:round; stroke-linejoin:round; stroke-width:2; stroke-opacity:0.1; fill:none" points="156.598,115.077 2352.76,115.077 "/>
<polyline clip-path="url(#clip850)" style="stroke:#000000; stroke-linecap:round; stroke-linejoin:round; stroke-width:4; stroke-opacity:1; fill:none" points="156.598,1423.18 156.598,47.2441 "/>
<polyline clip-path="url(#clip850)" style="stroke:#000000; stroke-linecap:round; stroke-linejoin:round; stroke-width:4; stroke-opacity:1; fill:none" points="156.598,1384.24 175.496,1384.24 "/>
<polyline clip-path="url(#clip850)" style="stroke:#000000; stroke-linecap:round; stroke-linejoin:round; stroke-width:4; stroke-opacity:1; fill:none" points="156.598,1172.71 175.496,1172.71 "/>
<polyline clip-path="url(#clip850)" style="stroke:#000000; stroke-linecap:round; stroke-linejoin:round; stroke-width:4; stroke-opacity:1; fill:none" points="156.598,961.185 175.496,961.185 "/>
<polyline clip-path="url(#clip850)" style="stroke:#000000; stroke-linecap:round; stroke-linejoin:round; stroke-width:4; stroke-opacity:1; fill:none" points="156.598,749.658 175.496,749.658 "/>
<polyline clip-path="url(#clip850)" style="stroke:#000000; stroke-linecap:round; stroke-linejoin:round; stroke-width:4; stroke-opacity:1; fill:none" points="156.598,538.131 175.496,538.131 "/>
<polyline clip-path="url(#clip850)" style="stroke:#000000; stroke-linecap:round; stroke-linejoin:round; stroke-width:4; stroke-opacity:1; fill:none" points="156.598,326.604 175.496,326.604 "/>
<polyline clip-path="url(#clip850)" style="stroke:#000000; stroke-linecap:round; stroke-linejoin:round; stroke-width:4; stroke-opacity:1; fill:none" points="156.598,115.077 175.496,115.077 "/>
<path clip-path="url(#clip850)" d="M63.4226 1370.04 Q59.8115 1370.04 57.9828 1373.6 Q56.1773 1377.14 56.1773 1384.27 Q56.1773 1391.38 57.9828 1394.94 Q59.8115 1398.49 63.4226 1398.49 Q67.0569 1398.49 68.8624 1394.94 Q70.6911 1391.38 70.6911 1384.27 Q70.6911 1377.14 68.8624 1373.6 Q67.0569 1370.04 63.4226 1370.04 M63.4226 1366.33 Q69.2328 1366.33 72.2883 1370.94 Q75.367 1375.52 75.367 1384.27 Q75.367 1393 72.2883 1397.61 Q69.2328 1402.19 63.4226 1402.19 Q57.6125 1402.19 54.5338 1397.61 Q51.4782 1393 51.4782 1384.27 Q51.4782 1375.52 54.5338 1370.94 Q57.6125 1366.33 63.4226 1366.33 Z" fill="#000000" fill-rule="nonzero" fill-opacity="1" /><path clip-path="url(#clip850)" d="M83.5845 1395.64 L88.4688 1395.64 L88.4688 1401.52 L83.5845 1401.52 L83.5845 1395.64 Z" fill="#000000" fill-rule="nonzero" fill-opacity="1" /><path clip-path="url(#clip850)" d="M108.654 1370.04 Q105.043 1370.04 103.214 1373.6 Q101.409 1377.14 101.409 1384.27 Q101.409 1391.38 103.214 1394.94 Q105.043 1398.49 108.654 1398.49 Q112.288 1398.49 114.094 1394.94 Q115.922 1391.38 115.922 1384.27 Q115.922 1377.14 114.094 1373.6 Q112.288 1370.04 108.654 1370.04 M108.654 1366.33 Q114.464 1366.33 117.52 1370.94 Q120.598 1375.52 120.598 1384.27 Q120.598 1393 117.52 1397.61 Q114.464 1402.19 108.654 1402.19 Q102.844 1402.19 99.765 1397.61 Q96.7095 1393 96.7095 1384.27 Q96.7095 1375.52 99.765 1370.94 Q102.844 1366.33 108.654 1366.33 Z" fill="#000000" fill-rule="nonzero" fill-opacity="1" /><path clip-path="url(#clip850)" d="M64.6495 1158.51 Q61.0384 1158.51 59.2097 1162.07 Q57.4041 1165.62 57.4041 1172.75 Q57.4041 1179.85 59.2097 1183.42 Q61.0384 1186.96 64.6495 1186.96 Q68.2837 1186.96 70.0892 1183.42 Q71.9179 1179.85 71.9179 1172.75 Q71.9179 1165.62 70.0892 1162.07 Q68.2837 1158.51 64.6495 1158.51 M64.6495 1154.81 Q70.4596 1154.81 73.5152 1159.41 Q76.5938 1164 76.5938 1172.75 Q76.5938 1181.47 73.5152 1186.08 Q70.4596 1190.66 64.6495 1190.66 Q58.8393 1190.66 55.7606 1186.08 Q52.7051 1181.47 52.7051 1172.75 Q52.7051 1164 55.7606 1159.41 Q58.8393 1154.81 64.6495 1154.81 Z" fill="#000000" fill-rule="nonzero" fill-opacity="1" /><path clip-path="url(#clip850)" d="M84.8114 1184.11 L89.6956 1184.11 L89.6956 1189.99 L84.8114 1189.99 L84.8114 1184.11 Z" fill="#000000" fill-rule="nonzero" fill-opacity="1" /><path clip-path="url(#clip850)" d="M100.691 1186.06 L108.33 1186.06 L108.33 1159.69 L100.02 1161.36 L100.02 1157.1 L108.283 1155.43 L112.959 1155.43 L112.959 1186.06 L120.598 1186.06 L120.598 1189.99 L100.691 1189.99 L100.691 1186.06 Z" fill="#000000" fill-rule="nonzero" fill-opacity="1" /><path clip-path="url(#clip850)" d="M65.0198 946.983 Q61.4087 946.983 59.58 950.548 Q57.7745 954.09 57.7745 961.219 Q57.7745 968.326 59.58 971.89 Q61.4087 975.432 65.0198 975.432 Q68.6541 975.432 70.4596 971.89 Q72.2883 968.326 72.2883 961.219 Q72.2883 954.09 70.4596 950.548 Q68.6541 946.983 65.0198 946.983 M65.0198 943.28 Q70.83 943.28 73.8855 947.886 Q76.9642 952.469 76.9642 961.219 Q76.9642 969.946 73.8855 974.552 Q70.83 979.136 65.0198 979.136 Q59.2097 979.136 56.131 974.552 Q53.0754 969.946 53.0754 961.219 Q53.0754 952.469 56.131 947.886 Q59.2097 943.28 65.0198 943.28 Z" fill="#000000" fill-rule="nonzero" fill-opacity="1" /><path clip-path="url(#clip850)" d="M85.1818 972.585 L90.066 972.585 L90.066 978.465 L85.1818 978.465 L85.1818 972.585 Z" fill="#000000" fill-rule="nonzero" fill-opacity="1" /><path clip-path="url(#clip850)" d="M104.279 974.529 L120.598 974.529 L120.598 978.465 L98.6539 978.465 L98.6539 974.529 Q101.316 971.775 105.899 967.145 Q110.506 962.492 111.686 961.15 Q113.932 958.627 114.811 956.891 Q115.714 955.131 115.714 953.441 Q115.714 950.687 113.77 948.951 Q111.848 947.215 108.746 947.215 Q106.547 947.215 104.094 947.979 Q101.663 948.742 98.8854 950.293 L98.8854 945.571 Q101.709 944.437 104.163 943.858 Q106.617 943.28 108.654 943.28 Q114.024 943.28 117.219 945.965 Q120.413 948.65 120.413 953.141 Q120.413 955.27 119.603 957.191 Q118.816 959.09 116.709 961.682 Q116.131 962.353 113.029 965.571 Q109.927 968.765 104.279 974.529 Z" fill="#000000" fill-rule="nonzero" fill-opacity="1" /><path clip-path="url(#clip850)" d="M64.0708 735.456 Q60.4597 735.456 58.631 739.021 Q56.8254 742.563 56.8254 749.692 Q56.8254 756.799 58.631 760.364 Q60.4597 763.905 64.0708 763.905 Q67.705 763.905 69.5105 760.364 Q71.3392 756.799 71.3392 749.692 Q71.3392 742.563 69.5105 739.021 Q67.705 735.456 64.0708 735.456 M64.0708 731.753 Q69.8809 731.753 72.9365 736.359 Q76.0151 740.942 76.0151 749.692 Q76.0151 758.419 72.9365 763.026 Q69.8809 767.609 64.0708 767.609 Q58.2606 767.609 55.1819 763.026 Q52.1264 758.419 52.1264 749.692 Q52.1264 740.942 55.1819 736.359 Q58.2606 731.753 64.0708 731.753 Z" fill="#000000" fill-rule="nonzero" fill-opacity="1" /><path clip-path="url(#clip850)" d="M84.2327 761.058 L89.1169 761.058 L89.1169 766.938 L84.2327 766.938 L84.2327 761.058 Z" fill="#000000" fill-rule="nonzero" fill-opacity="1" /><path clip-path="url(#clip850)" d="M113.469 748.303 Q116.825 749.021 118.7 751.29 Q120.598 753.558 120.598 756.891 Q120.598 762.007 117.08 764.808 Q113.561 767.609 107.08 767.609 Q104.904 767.609 102.589 767.169 Q100.297 766.752 97.8437 765.896 L97.8437 761.382 Q99.7882 762.516 102.103 763.095 Q104.418 763.674 106.941 763.674 Q111.339 763.674 113.631 761.938 Q115.945 760.201 115.945 756.891 Q115.945 753.836 113.793 752.123 Q111.663 750.387 107.844 750.387 L103.816 750.387 L103.816 746.544 L108.029 746.544 Q111.478 746.544 113.307 745.178 Q115.135 743.79 115.135 741.197 Q115.135 738.535 113.237 737.123 Q111.362 735.688 107.844 735.688 Q105.922 735.688 103.723 736.104 Q101.524 736.521 98.8854 737.401 L98.8854 733.234 Q101.547 732.493 103.862 732.123 Q106.2 731.753 108.26 731.753 Q113.584 731.753 116.686 734.183 Q119.788 736.591 119.788 740.711 Q119.788 743.581 118.145 745.572 Q116.501 747.54 113.469 748.303 Z" fill="#000000" fill-rule="nonzero" fill-opacity="1" /><path clip-path="url(#clip850)" d="M62.9365 523.929 Q59.3254 523.929 57.4967 527.494 Q55.6912 531.036 55.6912 538.165 Q55.6912 545.272 57.4967 548.837 Q59.3254 552.378 62.9365 552.378 Q66.5707 552.378 68.3763 548.837 Q70.205 545.272 70.205 538.165 Q70.205 531.036 68.3763 527.494 Q66.5707 523.929 62.9365 523.929 M62.9365 520.226 Q68.7467 520.226 71.8022 524.832 Q74.8809 529.415 74.8809 538.165 Q74.8809 546.892 71.8022 551.499 Q68.7467 556.082 62.9365 556.082 Q57.1264 556.082 54.0477 551.499 Q50.9921 546.892 50.9921 538.165 Q50.9921 529.415 54.0477 524.832 Q57.1264 520.226 62.9365 520.226 Z" fill="#000000" fill-rule="nonzero" fill-opacity="1" /><path clip-path="url(#clip850)" d="M83.0984 549.531 L87.9827 549.531 L87.9827 555.411 L83.0984 555.411 L83.0984 549.531 Z" fill="#000000" fill-rule="nonzero" fill-opacity="1" /><path clip-path="url(#clip850)" d="M111.015 524.925 L99.2095 543.374 L111.015 543.374 L111.015 524.925 M109.788 520.851 L115.668 520.851 L115.668 543.374 L120.598 543.374 L120.598 547.263 L115.668 547.263 L115.668 555.411 L111.015 555.411 L111.015 547.263 L95.4132 547.263 L95.4132 542.749 L109.788 520.851 Z" fill="#000000" fill-rule="nonzero" fill-opacity="1" /><path clip-path="url(#clip850)" d="M64.418 312.402 Q60.8069 312.402 58.9782 315.967 Q57.1726 319.509 57.1726 326.638 Q57.1726 333.745 58.9782 337.31 Q60.8069 340.851 64.418 340.851 Q68.0522 340.851 69.8578 337.31 Q71.6865 333.745 71.6865 326.638 Q71.6865 319.509 69.8578 315.967 Q68.0522 312.402 64.418 312.402 M64.418 308.699 Q70.2281 308.699 73.2837 313.305 Q76.3624 317.888 76.3624 326.638 Q76.3624 335.365 73.2837 339.972 Q70.2281 344.555 64.418 344.555 Q58.6078 344.555 55.5291 339.972 Q52.4736 335.365 52.4736 326.638 Q52.4736 317.888 55.5291 313.305 Q58.6078 308.699 64.418 308.699 Z" fill="#000000" fill-rule="nonzero" fill-opacity="1" /><path clip-path="url(#clip850)" d="M84.5799 338.004 L89.4641 338.004 L89.4641 343.884 L84.5799 343.884 L84.5799 338.004 Z" fill="#000000" fill-rule="nonzero" fill-opacity="1" /><path clip-path="url(#clip850)" d="M99.6956 309.324 L118.052 309.324 L118.052 313.259 L103.978 313.259 L103.978 321.731 Q104.996 321.384 106.015 321.222 Q107.033 321.037 108.052 321.037 Q113.839 321.037 117.219 324.208 Q120.598 327.379 120.598 332.796 Q120.598 338.374 117.126 341.476 Q113.654 344.555 107.334 344.555 Q105.159 344.555 102.89 344.185 Q100.645 343.814 98.2372 343.074 L98.2372 338.374 Q100.321 339.509 102.543 340.064 Q104.765 340.62 107.242 340.62 Q111.246 340.62 113.584 338.513 Q115.922 336.407 115.922 332.796 Q115.922 329.185 113.584 327.078 Q111.246 324.972 107.242 324.972 Q105.367 324.972 103.492 325.388 Q101.64 325.805 99.6956 326.685 L99.6956 309.324 Z" fill="#000000" fill-rule="nonzero" fill-opacity="1" /><path clip-path="url(#clip850)" d="M63.2606 100.875 Q59.6495 100.875 57.8208 104.44 Q56.0152 107.982 56.0152 115.111 Q56.0152 122.218 57.8208 125.783 Q59.6495 129.324 63.2606 129.324 Q66.8948 129.324 68.7004 125.783 Q70.5291 122.218 70.5291 115.111 Q70.5291 107.982 68.7004 104.44 Q66.8948 100.875 63.2606 100.875 M63.2606 97.1718 Q69.0707 97.1718 72.1263 101.778 Q75.205 106.362 75.205 115.111 Q75.205 123.838 72.1263 128.445 Q69.0707 133.028 63.2606 133.028 Q57.4504 133.028 54.3717 128.445 Q51.3162 123.838 51.3162 115.111 Q51.3162 106.362 54.3717 101.778 Q57.4504 97.1718 63.2606 97.1718 Z" fill="#000000" fill-rule="nonzero" fill-opacity="1" /><path clip-path="url(#clip850)" d="M83.4225 126.477 L88.3067 126.477 L88.3067 132.357 L83.4225 132.357 L83.4225 126.477 Z" fill="#000000" fill-rule="nonzero" fill-opacity="1" /><path clip-path="url(#clip850)" d="M109.071 113.213 Q105.922 113.213 104.071 115.366 Q102.242 117.519 102.242 121.269 Q102.242 124.996 104.071 127.172 Q105.922 129.324 109.071 129.324 Q112.219 129.324 114.047 127.172 Q115.899 124.996 115.899 121.269 Q115.899 117.519 114.047 115.366 Q112.219 113.213 109.071 113.213 M118.353 98.5606 L118.353 102.82 Q116.594 101.987 114.788 101.547 Q113.006 101.107 111.246 101.107 Q106.617 101.107 104.163 104.232 Q101.733 107.357 101.385 113.676 Q102.751 111.662 104.811 110.598 Q106.871 109.51 109.348 109.51 Q114.557 109.51 117.566 112.681 Q120.598 115.829 120.598 121.269 Q120.598 126.593 117.45 129.81 Q114.302 133.028 109.071 133.028 Q103.075 133.028 99.9039 128.445 Q96.7326 123.838 96.7326 115.111 Q96.7326 106.917 100.621 102.056 Q104.51 97.1718 111.061 97.1718 Q112.82 97.1718 114.603 97.519 Q116.408 97.8662 118.353 98.5606 Z" fill="#000000" fill-rule="nonzero" fill-opacity="1" /><polyline clip-path="url(#clip852)" style="stroke:#009af9; stroke-linecap:round; stroke-linejoin:round; stroke-width:8; stroke-opacity:1; fill:none" points="156.598,961.185 158.797,956.928 160.995,952.63 163.193,948.288 165.392,943.902 167.59,939.472 169.788,934.997 171.987,930.478 174.185,925.913 176.383,921.302 178.582,916.645 180.78,911.941 182.979,907.189 185.177,902.39 187.375,897.542 189.574,892.646 191.772,887.701 193.97,882.705 196.169,877.66 198.367,872.563 200.565,867.416 202.764,862.216 204.962,856.965 207.16,851.66 209.359,846.302 211.557,840.891 213.755,835.424 215.954,829.903 218.152,824.326 220.351,818.693 222.549,813.004 224.747,807.257 226.946,801.453 229.144,795.59 231.342,789.668 233.541,783.686 235.739,777.644 237.937,771.542 240.136,765.378 242.334,759.152 244.532,752.863 246.731,746.511 248.929,740.096 251.128,733.615 253.326,727.07 255.524,720.459 257.723,713.781 259.921,707.036 262.119,700.223 264.318,693.342 266.516,686.391 268.714,679.371 270.913,672.28 273.111,665.117 275.309,657.883 277.508,650.575 279.706,643.195 281.905,635.74 284.103,628.209 286.301,620.604 288.5,612.921 290.698,605.161 292.896,597.324 295.095,589.407 297.293,581.411 299.491,573.334 301.69,565.176 303.888,556.936 306.086,548.613 308.285,540.207 310.483,531.715 312.682,523.139 314.88,514.476 317.078,505.726 319.277,496.887 321.475,487.96 323.673,478.943 325.872,469.836 328.07,460.637 330.268,451.345 332.467,441.96 334.665,432.48 336.863,422.906 339.062,413.234 341.26,403.466 343.458,393.599 345.657,383.633 347.855,373.567 350.054,363.4 352.252,353.13 354.45,342.757 356.649,332.279 358.847,321.696 361.045,311.007 363.244,300.21 365.442,289.305 367.64,278.289 369.839,267.163 372.037,255.925 374.235,244.574 376.434,233.108 378.632,221.527 380.831,209.83 383.029,198.015 385.227,186.081 387.426,174.027 389.624,161.852 391.822,149.554 394.021,137.133 396.219,124.587 398.417,111.914 400.616,99.1144 402.814,86.1857 405.012,728.683 407.211,722.088 409.409,715.426 411.608,708.698 413.806,701.902 416.004,695.037 418.203,688.104 420.401,681.1 422.599,674.026 424.798,1025.56 426.996,1021.95 429.194,1018.31 431.393,1014.63 433.591,1010.91 435.789,1007.15 437.988,1003.36 440.186,999.526 442.385,995.656 444.583,991.746 446.781,987.798 448.98,983.809 451.178,979.781 453.376,975.712 455.575,971.602 457.773,967.451 459.971,963.258 462.17,959.023 464.368,954.745 466.566,950.424 468.765,946.06 470.963,941.652 473.162,937.199 475.36,932.702 477.558,928.159 479.757,923.571 481.955,918.936 484.153,914.255 486.352,1146.88 488.55,1144.49 490.748,1142.08 492.947,1139.65 495.145,1137.19 497.343,1134.7 499.542,1132.19 501.74,1256.95 503.938,1255.67 506.137,1254.37 508.335,1253.07 510.534,1251.75 512.732,1250.41 514.93,1249.07 517.129,1247.71 519.327,1246.33 521.525,1244.95 523.724,1243.55 525.922,1242.13 528.12,1240.7 530.319,1239.26 532.517,1237.8 534.715,1236.32 536.914,1234.84 539.112,1233.33 541.311,1231.81 543.509,1230.28 545.707,1228.73 547.906,1305.7 550.104,1304.91 552.302,1304.12 554.501,1303.31 556.699,1302.49 558.897,1301.67 561.096,1300.84 563.294,1300 565.492,1299.16 567.691,1298.3 569.889,1297.44 572.088,1296.56 574.286,1295.68 576.484,1294.79 578.683,1293.89 580.881,1292.98 583.079,1292.06 585.278,1291.13 587.476,1290.2 589.674,1289.25 591.873,1288.3 594.071,1287.33 596.269,1335.3 598.468,1334.8 600.666,1334.31 602.865,1333.81 605.063,1333.3 607.261,1332.79 609.46,1332.27 611.658,1331.74 613.856,1331.22 616.055,1330.68 618.253,1330.14 620.451,1329.6 622.65,1329.05 624.848,1328.5 627.046,1327.93 629.245,1327.37 631.443,1326.8 633.641,1326.22 635.84,1325.63 638.038,1325.05 640.237,1324.45 642.435,1323.85 644.633,1323.24 646.832,1322.63 649.03,1322.01 651.228,1321.38 653.427,1320.75 655.625,1320.11 657.823,1319.46 660.022,1318.81 662.22,1318.15 664.418,1317.49 666.617,1316.82 668.815,1316.14 671.014,1315.46 673.212,1314.76 675.41,1349.15 677.609,1348.8 679.807,1348.44 682.005,1348.08 684.204,1347.72 686.402,1347.35 688.6,1346.98 690.799,1346.6 692.997,1346.23 695.195,1345.84 697.394,1345.46 699.592,1345.07 701.791,1344.67 703.989,1344.28 706.187,1343.87 708.386,1343.47 710.584,1343.06 712.782,1342.64 714.981,1342.22 717.179,1341.8 719.377,1341.37 721.576,1340.94 723.774,1340.51 725.972,1340.07 728.171,1339.62 730.369,1339.17 732.568,1338.72 734.766,1338.26 736.964,1337.8 739.163,1337.33 741.361,1336.86 743.559,1336.39 745.758,1335.9 747.956,1335.42 750.154,1334.93 752.353,1334.43 754.551,1333.93 756.749,1333.42 758.948,1332.91 761.146,1332.4 763.344,1331.87 765.543,1331.35 767.741,1330.81 769.94,1330.28 772.138,1329.73 774.336,1329.19 776.535,1328.63 778.733,1328.07 780.931,1355.87 783.13,1355.59 785.328,1369.77 787.526,1369.62 789.725,1369.48 791.923,1369.33 794.121,1369.18 796.32,1369.03 798.518,1368.87 800.717,1368.72 802.915,1368.56 805.113,1368.4 807.312,1368.25 809.51,1368.08 811.708,1367.92 813.907,1367.76 816.105,1367.59 818.303,1367.42 820.502,1367.26 822.7,1367.08 824.898,1366.91 827.097,1375.49 829.295,1375.4 831.494,1375.31 833.692,1375.22 835.89,1375.13 838.089,1375.04 840.287,1374.95 842.485,1374.85 844.684,1374.76 846.882,1374.66 849.08,1374.57 851.279,1374.47 853.477,1374.37 855.675,1374.27 857.874,1374.17 860.072,1374.07 862.271,1373.97 864.469,1373.86 866.667,1373.76 868.866,1373.66 871.064,1373.55 873.262,1373.44 875.461,1373.33 877.659,1373.22 879.857,1373.11 882.056,1373 884.254,1372.89 886.452,1372.77 888.651,1372.66 890.849,1372.54 893.048,1372.42 895.246,1372.3 897.444,1372.18 899.643,1372.06 901.841,1371.94 904.039,1371.82 906.238,1371.69 908.436,1371.57 910.634,1371.44 912.833,1371.31 915.031,1371.18 917.229,1371.05 919.428,1377.58 921.626,1377.51 923.824,1377.44 926.023,1377.37 928.221,1377.3 930.42,1377.23 932.618,1377.16 934.816,1377.09 937.015,1377.02 939.213,1376.95 941.411,1376.88 943.61,1376.8 945.808,1376.73 948.006,1376.65 950.205,1376.57 952.403,1376.5 954.601,1376.42 956.8,1376.34 958.998,1376.26 961.197,1376.18 963.395,1376.1 965.593,1376.02 967.792,1375.94 969.99,1375.85 972.188,1375.77 974.387,1375.68 976.585,1375.6 978.783,1375.51 980.982,1375.42 983.18,1375.33 985.378,1375.24 987.577,1375.15 989.775,1375.06 991.974,1374.97 994.172,1374.88 996.37,1374.78 998.569,1374.69 1000.77,1374.59 1002.97,1374.49 1005.16,1374.4 1007.36,1374.3 1009.56,1374.2 1011.76,1374.1 1013.96,1373.99 1016.16,1373.89 1018.35,1373.79 1020.55,1373.68 1022.75,1373.57 1024.95,1373.47 1027.15,1373.36 1029.35,1373.25 1031.54,1373.14 1033.74,1373.03 1035.94,1372.91 1038.14,1372.8 1040.34,1372.69 1042.54,1372.57 1044.73,1372.45 1046.93,1372.33 1049.13,1372.21 1051.33,1372.09 1053.53,1371.97 1055.73,1371.85 1057.92,1371.72 1060.12,1371.6 1062.32,1371.47 1064.52,1371.34 1066.72,1371.21 1068.92,1371.08 1071.11,1370.95 1073.31,1370.81 1075.51,1370.68 1077.71,1370.54 1079.91,1370.41 1082.11,1370.27 1084.3,1370.13 1086.5,1369.98 1088.7,1369.84 1090.9,1369.7 1093.1,1369.55 1095.3,1369.4 1097.49,1369.25 1099.69,1369.1 1101.89,1368.95 1104.09,1368.79 1106.29,1368.64 1108.49,1368.48 1110.68,1376.28 1112.88,1376.2 1115.08,1376.12 1117.28,1376.04 1119.48,1375.96 1121.68,1375.87 1123.87,1375.79 1126.07,1375.7 1128.27,1375.62 1130.47,1375.53 1132.67,1375.44 1134.87,1375.35 1137.07,1375.27 1139.26,1375.18 1141.46,1375.08 1143.66,1374.99 1145.86,1374.9 1148.06,1374.81 1150.26,1374.71 1152.45,1374.61 1154.65,1374.52 1156.85,1374.42 1159.05,1374.32 1161.25,1374.22 1163.45,1374.12 1165.64,1374.02 1167.84,1373.92 1170.04,1373.81 1172.24,1373.71 1174.44,1373.6 1176.64,1373.49 1178.83,1373.39 1181.03,1373.28 1183.23,1373.17 1185.43,1373.06 1187.63,1372.94 1189.83,1372.83 1192.02,1372.71 1194.22,1372.6 1196.42,1372.48 1198.62,1372.36 1200.82,1372.24 1203.02,1372.12 1205.21,1372 1207.41,1371.88 1209.61,1371.75 1211.81,1371.63 1214.01,1371.5 1216.21,1371.37 1218.4,1371.24 1220.6,1371.11 1222.8,1370.98 1225,1377.54 1227.2,1377.48 1229.4,1377.41 1231.59,1377.34 1233.79,1377.27 1235.99,1377.2 1238.19,1377.13 1240.39,1377.06 1242.59,1376.98 1244.78,1376.91 1246.98,1376.84 1249.18,1376.76 1251.38,1376.69 1253.58,1376.61 1255.78,1376.54 1257.97,1380.35 1260.17,1380.31 1262.37,1380.27 1264.57,1380.23 1266.77,1380.19 1268.97,1380.15 1271.16,1380.11 1273.36,1380.07 1275.56,1380.02 1277.76,1379.98 1279.96,1379.94 1282.16,1379.9 1284.35,1379.85 1286.55,1379.81 1288.75,1379.76 1290.95,1379.72 1293.15,1379.67 1295.35,1379.63 1297.55,1379.58 1299.74,1379.53 1301.94,1379.49 1304.14,1379.44 1306.34,1379.39 1308.54,1379.34 1310.74,1379.29 1312.93,1379.24 1315.13,1379.19 1317.33,1379.14 1319.53,1379.09 1321.73,1379.04 1323.93,1378.99 1326.12,1378.93 1328.32,1378.88 1330.52,1378.83 1332.72,1378.77 1334.92,1378.72 1337.12,1378.66 1339.31,1378.6 1341.51,1378.55 1343.71,1378.49 1345.91,1378.43 1348.11,1378.37 1350.31,1378.32 1352.5,1378.26 1354.7,1378.2 1356.9,1378.13 1359.1,1378.07 1361.3,1378.01 1363.5,1377.95 1365.69,1377.89 1367.89,1377.82 1370.09,1377.76 1372.29,1377.69 1374.49,1377.63 1376.69,1377.56 1378.88,1377.49 1381.08,1377.42 1383.28,1377.36 1385.48,1377.29 1387.68,1377.22 1389.88,1377.15 1392.07,1377.07 1394.27,1377 1396.47,1376.93 1398.67,1376.86 1400.87,1376.78 1403.07,1376.71 1405.26,1376.63 1407.46,1376.55 1409.66,1376.48 1411.86,1376.4 1414.06,1376.32 1416.26,1376.24 1418.45,1376.16 1420.65,1376.08 1422.85,1376 1425.05,1375.91 1427.25,1375.83 1429.45,1375.75 1431.64,1375.66 1433.84,1375.57 1436.04,1375.49 1438.24,1375.4 1440.44,1375.31 1442.64,1379.73 1444.83,1379.68 1447.03,1379.64 1449.23,1379.59 1451.43,1379.54 1453.63,1379.5 1455.83,1381.84 1458.03,1381.82 1460.22,1381.8 1462.42,1381.77 1464.62,1381.75 1466.82,1381.72 1469.02,1381.7 1471.22,1381.67 1473.41,1381.64 1475.61,1381.62 1477.81,1381.59 1480.01,1381.57 1482.21,1381.54 1484.41,1382.87 1486.6,1382.86 1488.8,1382.85 1491,1382.83 1493.2,1382.82 1495.4,1382.8 1497.6,1383.51 1499.79,1383.51 1501.99,1383.5 1504.19,1383.49 1506.39,1383.48 1508.59,1383.48 1510.79,1383.47 1512.98,1383.46 1515.18,1383.45 1517.38,1383.84 1519.58,1383.84 1521.78,1383.83 1523.98,1383.83 1526.17,1383.83 1528.37,1383.82 1530.57,1383.82 1532.77,1383.81 1534.97,1383.81 1537.17,1383.8 1539.36,1383.8 1541.56,1383.8 1543.76,1383.79 1545.96,1383.79 1548.16,1383.78 1550.36,1384.01 1552.55,1384.01 1554.75,1384 1556.95,1384 1559.15,1384 1561.35,1384 1563.55,1383.99 1565.74,1383.99 1567.94,1383.99 1570.14,1383.99 1572.34,1383.98 1574.54,1383.98 1576.74,1383.98 1578.93,1383.98 1581.13,1383.97 1583.33,1383.97 1585.53,1383.97 1587.73,1383.97 1589.93,1383.96 1592.12,1383.96 1594.32,1383.96 1596.52,1383.95 1598.72,1383.95 1600.92,1383.95 1603.12,1383.95 1605.31,1383.94 1607.51,1383.94 1609.71,1383.94 1611.91,1383.93 1614.11,1383.93 1616.31,1383.93 1618.5,1383.92 1620.7,1383.92 1622.9,1383.92 1625.1,1383.91 1627.3,1383.91 1629.5,1383.91 1631.7,1383.91 1633.89,1383.9 1636.09,1383.9 1638.29,1383.89 1640.49,1383.89 1642.69,1383.89 1644.89,1383.88 1647.08,1383.88 1649.28,1383.88 1651.48,1383.87 1653.68,1383.87 1655.88,1383.87 1658.08,1383.86 1660.27,1383.86 1662.47,1383.85 1664.67,1383.85 1666.87,1383.85 1669.07,1383.84 1671.27,1383.84 1673.46,1383.84 1675.66,1383.83 1677.86,1383.83 1680.06,1383.82 1682.26,1383.82 1684.46,1383.81 1686.65,1383.81 1688.85,1383.81 1691.05,1384.02 1693.25,1384.02 1695.45,1384.02 1697.65,1384.01 1699.84,1384.01 1702.04,1384.01 1704.24,1384.01 1706.44,1384 1708.64,1384.12 1710.84,1384.12 1713.03,1384.12 1715.23,1384.12 1717.43,1384.12 1719.63,1384.11 1721.83,1384.11 1724.03,1384.11 1726.22,1384.11 1728.42,1384.11 1730.62,1384.11 1732.82,1384.11 1735.02,1384.11 1737.22,1384.1 1739.41,1384.1 1741.61,1384.1 1743.81,1384.1 1746.01,1384.1 1748.21,1384.1 1750.41,1384.1 1752.6,1384.09 1754.8,1384.09 1757,1384.09 1759.2,1384.09 1761.4,1384.09 1763.6,1384.09 1765.79,1384.08 1767.99,1384.08 1770.19,1384.08 1772.39,1384.08 1774.59,1384.08 1776.79,1384.08 1778.98,1384.08 1781.18,1384.07 1783.38,1384.07 1785.58,1384.07 1787.78,1384.07 1789.98,1384.07 1792.18,1384.07 1794.37,1384.06 1796.57,1384.06 1798.77,1384.06 1800.97,1384.06 1803.17,1384.06 1805.37,1384.05 1807.56,1384.05 1809.76,1384.14 1811.96,1384.14 1814.16,1384.14 1816.36,1384.14 1818.56,1384.14 1820.75,1384.14 1822.95,1384.14 1825.15,1384.14 1827.35,1384.14 1829.55,1384.14 1831.75,1384.13 1833.94,1384.13 1836.14,1384.13 1838.34,1384.13 1840.54,1384.13 1842.74,1384.13 1844.94,1384.13 1847.13,1384.13 1849.33,1384.13 1851.53,1384.13 1853.73,1384.12 1855.93,1384.12 1858.13,1384.12 1860.32,1384.12 1862.52,1384.12 1864.72,1384.12 1866.92,1384.12 1869.12,1384.12 1871.32,1384.11 1873.51,1384.11 1875.71,1384.11 1877.91,1384.11 1880.11,1384.11 1882.31,1384.11 1884.51,1384.11 1886.7,1384.11 1888.9,1384.1 1891.1,1384.1 1893.3,1384.1 1895.5,1384.1 1897.7,1384.1 1899.89,1384.1 1902.09,1384.1 1904.29,1384.09 1906.49,1384.09 1908.69,1384.09 1910.89,1384.09 1913.08,1384.09 1915.28,1384.09 1917.48,1384.09 1919.68,1384.08 1921.88,1384.08 1924.08,1384.08 1926.27,1384.08 1928.47,1384.08 1930.67,1384.08 1932.87,1384.07 1935.07,1384.07 1937.27,1384.07 1939.46,1384.07 1941.66,1384.07 1943.86,1384.15 1946.06,1384.19 1948.26,1384.19 1950.46,1384.19 1952.66,1384.19 1954.85,1384.19 1957.05,1384.19 1959.25,1384.19 1961.45,1384.19 1963.65,1384.19 1965.85,1384.21 1968.04,1384.21 1970.24,1384.21 1972.44,1384.21 1974.64,1384.21 1976.84,1384.21 1979.04,1384.21 1981.23,1384.21 1983.43,1384.23 1985.63,1384.23 1987.83,1384.23 1990.03,1384.23 1992.23,1384.22 1994.42,1384.22 1996.62,1384.22 1998.82,1384.22 2001.02,1384.22 2003.22,1384.22 2005.42,1384.22 2007.61,1384.22 2009.81,1384.22 2012.01,1384.22 2014.21,1384.22 2016.41,1384.22 2018.61,1384.22 2020.8,1384.22 2023,1384.22 2025.2,1384.22 2027.4,1384.22 2029.6,1384.22 2031.8,1384.22 2033.99,1384.22 2036.19,1384.22 2038.39,1384.22 2040.59,1384.22 2042.79,1384.22 2044.99,1384.22 2047.18,1384.22 2049.38,1384.22 2051.58,1384.22 2053.78,1384.22 2055.98,1384.22 2058.18,1384.22 2060.37,1384.22 2062.57,1384.22 2064.77,1384.22 2066.97,1384.22 2069.17,1384.22 2071.37,1384.22 2073.56,1384.23 2075.76,1384.23 2077.96,1384.23 2080.16,1384.23 2082.36,1384.23 2084.56,1384.23 2086.75,1384.23 2088.95,1384.23 2091.15,1384.23 2093.35,1384.23 2095.55,1384.23 2097.75,1384.23 2099.94,1384.23 2102.14,1384.23 2104.34,1384.23 2106.54,1384.23 2108.74,1384.23 2110.94,1384.23 2113.14,1384.23 2115.33,1384.23 2117.53,1384.23 2119.73,1384.23 2121.93,1384.23 2124.13,1384.23 2126.33,1384.23 2128.52,1384.23 2130.72,1384.23 2132.92,1384.23 2135.12,1384.23 2137.32,1384.23 2139.52,1384.23 2141.71,1384.23 2143.91,1384.23 2146.11,1384.23 2148.31,1384.23 2150.51,1384.23 2152.71,1384.23 2154.9,1384.23 2157.1,1384.23 2159.3,1384.23 2161.5,1384.23 2163.7,1384.23 2165.9,1384.23 2168.09,1384.23 2170.29,1384.23 2172.49,1384.24 2174.69,1384.24 2176.89,1384.24 2179.09,1384.24 2181.28,1384.24 2183.48,1384.24 2185.68,1384.24 2187.88,1384.24 2190.08,1384.24 2192.28,1384.24 2194.47,1384.24 2196.67,1384.24 2198.87,1384.24 2201.07,1384.24 2203.27,1384.24 2205.47,1384.24 2207.66,1384.24 2209.86,1384.24 2212.06,1384.24 2214.26,1384.24 2216.46,1384.24 2218.66,1384.24 2220.85,1384.24 2223.05,1384.24 2225.25,1384.24 2227.45,1384.24 2229.65,1384.24 2231.85,1384.24 2234.04,1384.24 2236.24,1384.24 2238.44,1384.24 2240.64,1384.24 2242.84,1384.24 2245.04,1384.24 2247.23,1384.24 2249.43,1384.24 2251.63,1384.24 2253.83,1384.24 2256.03,1384.24 2258.23,1384.24 2260.42,1384.24 2262.62,1384.24 2264.82,1384.24 2267.02,1384.24 2269.22,1384.24 2271.42,1384.24 2273.62,1384.24 2275.81,1384.24 2278.01,1384.24 2280.21,1384.24 2282.41,1384.24 2284.61,1384.24 2286.81,1384.24 2289,1384.24 2291.2,1384.24 2293.4,1384.24 2295.6,1384.24 2297.8,1384.24 2300,1384.24 2302.19,1384.24 2304.39,1384.24 2306.59,1384.24 2308.79,1384.24 2310.99,1384.24 2313.19,1384.24 2315.38,1384.24 2317.58,1384.24 2319.78,1384.24 2321.98,1384.24 2324.18,1384.24 2326.38,1384.24 2328.57,1384.24 2330.77,1384.24 2332.97,1384.24 2335.17,1384.24 2337.37,1384.24 2339.57,1384.24 2341.76,1384.24 2343.96,1384.24 2346.16,1384.24 2348.36,1384.24 2350.56,1384.24 2352.76,1384.24 "/>
<path clip-path="url(#clip850)" d="M1970.84 196.789 L2279.55 196.789 L2279.55 93.1086 L1970.84 93.1086  Z" fill="#ffffff" fill-rule="evenodd" fill-opacity="1"/>
<polyline clip-path="url(#clip850)" style="stroke:#000000; stroke-linecap:round; stroke-linejoin:round; stroke-width:4; stroke-opacity:1; fill:none" points="1970.84,196.789 2279.55,196.789 2279.55,93.1086 1970.84,93.1086 1970.84,196.789 "/>
<polyline clip-path="url(#clip850)" style="stroke:#009af9; stroke-linecap:round; stroke-linejoin:round; stroke-width:8; stroke-opacity:1; fill:none" points="1995.24,144.949 2141.65,144.949 "/>
<path clip-path="url(#clip850)" d="M2166.05 151.997 L2166.05 136.303 L2170.31 136.303 L2170.31 151.835 Q2170.31 155.516 2171.75 157.368 Q2173.18 159.196 2176.05 159.196 Q2179.5 159.196 2181.49 156.997 Q2183.51 154.798 2183.51 151.002 L2183.51 136.303 L2187.76 136.303 L2187.76 162.229 L2183.51 162.229 L2183.51 158.247 Q2181.95 160.608 2179.89 161.766 Q2177.86 162.9 2175.15 162.9 Q2170.68 162.9 2168.37 160.122 Q2166.05 157.344 2166.05 151.997 M2176.77 135.678 L2176.77 135.678 Z" fill="#000000" fill-rule="nonzero" fill-opacity="1" /><path clip-path="url(#clip850)" d="M2196.14 126.21 L2205.96 126.21 L2205.96 129.52 L2200.4 129.52 L2200.4 165.168 L2205.96 165.168 L2205.96 168.479 L2196.14 168.479 L2196.14 126.21 Z" fill="#000000" fill-rule="nonzero" fill-opacity="1" /><path clip-path="url(#clip850)" d="M2216.45 158.293 L2224.08 158.293 L2224.08 131.928 L2215.77 133.595 L2215.77 129.335 L2224.04 127.669 L2228.71 127.669 L2228.71 158.293 L2236.35 158.293 L2236.35 162.229 L2216.45 162.229 L2216.45 158.293 Z" fill="#000000" fill-rule="nonzero" fill-opacity="1" /><path clip-path="url(#clip850)" d="M2255.15 126.21 L2255.15 168.479 L2245.33 168.479 L2245.33 165.168 L2250.87 165.168 L2250.87 129.52 L2245.33 129.52 L2245.33 126.21 L2255.15 126.21 Z" fill="#000000" fill-rule="nonzero" fill-opacity="1" /></svg>
