<?xml version="1.0" encoding="utf-8"?>
<svg xmlns="http://www.w3.org/2000/svg" xmlns:xlink="http://www.w3.org/1999/xlink" width="600" height="400" viewBox="0 0 2400 1600">
<defs>
  <clipPath id="clip930">
    <rect x="0" y="0" width="2400" height="1600"/>
  </clipPath>
</defs>
<path clip-path="url(#clip930)" d="M0 1600 L2400 1600 L2400 0 L0 0  Z" fill="#ffffff" fill-rule="evenodd" fill-opacity="1"/>
<defs>
  <clipPath id="clip931">
    <rect x="480" y="0" width="1681" height="1600"/>
  </clipPath>
</defs>
<path clip-path="url(#clip930)" d="M147.478 1423.18 L2352.76 1423.18 L2352.76 47.2441 L147.478 47.2441  Z" fill="#ffffff" fill-rule="evenodd" fill-opacity="1"/>
<defs>
  <clipPath id="clip932">
    <rect x="147" y="47" width="2206" height="1377"/>
  </clipPath>
</defs>
<polyline clip-path="url(#clip932)" style="stroke:#000000; stroke-linecap:round; stroke-linejoin:round; stroke-width:2; stroke-opacity:0.1; fill:none" points="147.478,1423.18 147.478,47.2441 "/>
<polyline clip-path="url(#clip932)" style="stroke:#000000; stroke-linecap:round; stroke-linejoin:round; stroke-width:2; stroke-opacity:0.1; fill:none" points="588.534,1423.18 588.534,47.2441 "/>
<polyline clip-path="url(#clip932)" style="stroke:#000000; stroke-linecap:round; stroke-linejoin:round; stroke-width:2; stroke-opacity:0.1; fill:none" points="1029.59,1423.18 1029.59,47.2441 "/>
<polyline clip-path="url(#clip932)" style="stroke:#000000; stroke-linecap:round; stroke-linejoin:round; stroke-width:2; stroke-opacity:0.1; fill:none" points="1470.64,1423.18 1470.64,47.2441 "/>
<polyline clip-path="url(#clip932)" style="stroke:#000000; stroke-linecap:round; stroke-linejoin:round; stroke-width:2; stroke-opacity:0.1; fill:none" points="1911.7,1423.18 1911.7,47.2441 "/>
<polyline clip-path="url(#clip932)" style="stroke:#000000; stroke-linecap:round; stroke-linejoin:round; stroke-width:2; stroke-opacity:0.1; fill:none" points="2352.76,1423.18 2352.76,47.2441 "/>
<polyline clip-path="url(#clip930)" style="stroke:#000000; stroke-linecap:round; stroke-linejoin:round; stroke-width:4; stroke-opacity:1; fill:none" points="147.478,1423.18 2352.76,1423.18 "/>
<polyline clip-path="url(#clip930)" style="stroke:#000000; stroke-linecap:round; stroke-linejoin:round; stroke-width:4; stroke-opacity:1; fill:none" points="147.478,1423.18 147.478,1404.28 "/>
<polyline clip-path="url(#clip930)" style="stroke:#000000; stroke-linecap:round; stroke-linejoin:round; stroke-width:4; stroke-opacity:1; fill:none" points="588.534,1423.18 588.534,1404.28 "/>
<polyline clip-path="url(#clip930)" style="stroke:#000000; stroke-linecap:round; stroke-linejoin:round; stroke-width:4; stroke-opacity:1; fill:none" points="1029.59,1423.18 1029.59,1404.28 "/>
<polyline clip-path="url(#clip930)" style="stroke:#000000; stroke-linecap:round; stroke-linejoin:round; stroke-width:4; stroke-opacity:1; fill:none" points="1470.64,1423.18 1470.64,1404.28 "/>
<polyline clip-path="url(#clip930)" style="stroke:#000000; stroke-linecap:round; stroke-linejoin:round; stroke-width:4; stroke-opacity:1; fill:none" points="1911.7,1423.18 1911.7,1404.28 "/>
<polyline clip-path="url(#clip930)" style="stroke:#000000; stroke-linecap:round; stroke-linejoin:round; stroke-width:4; stroke-opacity:1; fill:none" points="2352.76,1423.18 2352.76,1404.28 "/>
<path clip-path="url(#clip930)" d="M147.478 1454.1 Q143.867 1454.1 142.038 1457.66 Q140.233 1461.2 140.233 1468.33 Q140.233 1475.44 142.038 1479.01 Q143.867 1482.55 147.478 1482.55 Q151.112 1482.55 152.918 1479.01 Q154.746 1475.44 154.746 1468.33 Q154.746 1461.2 152.918 1457.66 Q151.112 1454.1 147.478 1454.1 M147.478 1450.39 Q153.288 1450.39 156.344 1455 Q159.422 1459.58 159.422 1468.33 Q159.422 1477.06 156.344 1481.67 Q153.288 1486.25 147.478 1486.25 Q141.668 1486.25 138.589 1481.67 Q135.534 1477.06 135.534 1468.33 Q135.534 1459.58 138.589 1455 Q141.668 1450.39 147.478 1450.39 Z" fill="#000000" fill-rule="nonzero" fill-opacity="1" /><path clip-path="url(#clip930)" d="M583.186 1481.64 L599.506 1481.64 L599.506 1485.58 L577.561 1485.58 L577.561 1481.64 Q580.223 1478.89 584.807 1474.26 Q589.413 1469.61 590.594 1468.27 Q592.839 1465.74 593.719 1464.01 Q594.621 1462.25 594.621 1460.56 Q594.621 1457.8 592.677 1456.07 Q590.756 1454.33 587.654 1454.33 Q585.455 1454.33 583.001 1455.09 Q580.571 1455.86 577.793 1457.41 L577.793 1452.69 Q580.617 1451.55 583.071 1450.97 Q585.524 1450.39 587.561 1450.39 Q592.932 1450.39 596.126 1453.08 Q599.32 1455.77 599.32 1460.26 Q599.32 1462.39 598.51 1464.31 Q597.723 1466.2 595.617 1468.8 Q595.038 1469.47 591.936 1472.69 Q588.834 1475.88 583.186 1481.64 Z" fill="#000000" fill-rule="nonzero" fill-opacity="1" /><path clip-path="url(#clip930)" d="M1032.6 1455.09 L1020.79 1473.54 L1032.6 1473.54 L1032.6 1455.09 M1031.37 1451.02 L1037.25 1451.02 L1037.25 1473.54 L1042.18 1473.54 L1042.18 1477.43 L1037.25 1477.43 L1037.25 1485.58 L1032.6 1485.58 L1032.6 1477.43 L1017 1477.43 L1017 1472.92 L1031.37 1451.02 Z" fill="#000000" fill-rule="nonzero" fill-opacity="1" /><path clip-path="url(#clip930)" d="M1471.05 1466.44 Q1467.9 1466.44 1466.05 1468.59 Q1464.22 1470.74 1464.22 1474.49 Q1464.22 1478.22 1466.05 1480.39 Q1467.9 1482.55 1471.05 1482.55 Q1474.2 1482.55 1476.03 1480.39 Q1477.88 1478.22 1477.88 1474.49 Q1477.88 1470.74 1476.03 1468.59 Q1474.2 1466.44 1471.05 1466.44 M1480.33 1451.78 L1480.33 1456.04 Q1478.57 1455.21 1476.77 1454.77 Q1474.98 1454.33 1473.23 1454.33 Q1468.6 1454.33 1466.14 1457.45 Q1463.71 1460.58 1463.36 1466.9 Q1464.73 1464.89 1466.79 1463.82 Q1468.85 1462.73 1471.33 1462.73 Q1476.54 1462.73 1479.55 1465.9 Q1482.58 1469.05 1482.58 1474.49 Q1482.58 1479.82 1479.43 1483.03 Q1476.28 1486.25 1471.05 1486.25 Q1465.05 1486.25 1461.88 1481.67 Q1458.71 1477.06 1458.71 1468.33 Q1458.71 1460.14 1462.6 1455.28 Q1466.49 1450.39 1473.04 1450.39 Q1474.8 1450.39 1476.58 1450.74 Q1478.39 1451.09 1480.33 1451.78 Z" fill="#000000" fill-rule="nonzero" fill-opacity="1" /><path clip-path="url(#clip930)" d="M1911.7 1469.17 Q1908.37 1469.17 1906.45 1470.95 Q1904.55 1472.73 1904.55 1475.86 Q1904.55 1478.98 1906.45 1480.77 Q1908.37 1482.55 1911.7 1482.55 Q1915.03 1482.55 1916.95 1480.77 Q1918.88 1478.96 1918.88 1475.86 Q1918.88 1472.73 1916.95 1470.95 Q1915.06 1469.17 1911.7 1469.17 M1907.02 1467.18 Q1904.02 1466.44 1902.33 1464.38 Q1900.66 1462.32 1900.66 1459.35 Q1900.66 1455.21 1903.6 1452.8 Q1906.56 1450.39 1911.7 1450.39 Q1916.86 1450.39 1919.8 1452.8 Q1922.74 1455.21 1922.74 1459.35 Q1922.74 1462.32 1921.05 1464.38 Q1919.39 1466.44 1916.4 1467.18 Q1919.78 1467.96 1921.65 1470.26 Q1923.55 1472.55 1923.55 1475.86 Q1923.55 1480.88 1920.47 1483.57 Q1917.42 1486.25 1911.7 1486.25 Q1905.98 1486.25 1902.9 1483.57 Q1899.85 1480.88 1899.85 1475.86 Q1899.85 1472.55 1901.75 1470.26 Q1903.64 1467.96 1907.02 1467.18 M1905.31 1459.79 Q1905.31 1462.48 1906.98 1463.98 Q1908.67 1465.49 1911.7 1465.49 Q1914.71 1465.49 1916.4 1463.98 Q1918.11 1462.48 1918.11 1459.79 Q1918.11 1457.11 1916.4 1455.6 Q1914.71 1454.1 1911.7 1454.1 Q1908.67 1454.1 1906.98 1455.6 Q1905.31 1457.11 1905.31 1459.79 Z" fill="#000000" fill-rule="nonzero" fill-opacity="1" /><path clip-path="url(#clip930)" d="M2327.44 1481.64 L2335.08 1481.64 L2335.08 1455.28 L2326.77 1456.95 L2326.77 1452.69 L2335.04 1451.02 L2339.71 1451.02 L2339.71 1481.64 L2347.35 1481.64 L2347.35 1485.58 L2327.44 1485.58 L2327.44 1481.64 Z" fill="#000000" fill-rule="nonzero" fill-opacity="1" /><path clip-path="url(#clip930)" d="M2366.8 1454.1 Q2363.18 1454.1 2361.36 1457.66 Q2359.55 1461.2 2359.55 1468.33 Q2359.55 1475.44 2361.36 1479.01 Q2363.18 1482.55 2366.8 1482.55 Q2370.43 1482.55 2372.23 1479.01 Q2374.06 1475.44 2374.06 1468.33 Q2374.06 1461.2 2372.23 1457.66 Q2370.43 1454.1 2366.8 1454.1 M2366.8 1450.39 Q2372.61 1450.39 2375.66 1455 Q2378.74 1459.58 2378.74 1468.33 Q2378.74 1477.06 2375.66 1481.67 Q2372.61 1486.25 2366.8 1486.25 Q2360.99 1486.25 2357.91 1481.67 Q2354.85 1477.06 2354.85 1468.33 Q2354.85 1459.58 2357.91 1455 Q2360.99 1450.39 2366.8 1450.39 Z" fill="#000000" fill-rule="nonzero" fill-opacity="1" /><path clip-path="url(#clip930)" d="M1249.18 1522.27 L1249.18 1532.4 L1261.24 1532.4 L1261.24 1536.95 L1249.18 1536.95 L1249.18 1556.3 Q1249.18 1560.66 1250.36 1561.9 Q1251.57 1563.14 1255.23 1563.14 L1261.24 1563.14 L1261.24 1568.04 L1255.23 1568.04 Q1248.45 1568.04 1245.87 1565.53 Q1243.29 1562.98 1243.29 1556.3 L1243.29 1536.95 L1238.99 1536.95 L1238.99 1532.4 L1243.29 1532.4 L1243.29 1522.27 L1249.18 1522.27 Z" fill="#000000" fill-rule="nonzero" fill-opacity="1" /><polyline clip-path="url(#clip932)" style="stroke:#000000; stroke-linecap:round; stroke-linejoin:round; stroke-width:2; stroke-opacity:0.1; fill:none" points="147.478,1339.15 2352.76,1339.15 "/>
<polyline clip-path="url(#clip932)" style="stroke:#000000; stroke-linecap:round; stroke-linejoin:round; stroke-width:2; stroke-opacity:0.1; fill:none" points="147.478,1075.23 2352.76,1075.23 "/>
<polyline clip-path="url(#clip932)" style="stroke:#000000; stroke-linecap:round; stroke-linejoin:round; stroke-width:2; stroke-opacity:0.1; fill:none" points="147.478,811.316 2352.76,811.316 "/>
<polyline clip-path="url(#clip932)" style="stroke:#000000; stroke-linecap:round; stroke-linejoin:round; stroke-width:2; stroke-opacity:0.1; fill:none" points="147.478,547.4 2352.76,547.4 "/>
<polyline clip-path="url(#clip932)" style="stroke:#000000; stroke-linecap:round; stroke-linejoin:round; stroke-width:2; stroke-opacity:0.1; fill:none" points="147.478,283.484 2352.76,283.484 "/>
<polyline clip-path="url(#clip930)" style="stroke:#000000; stroke-linecap:round; stroke-linejoin:round; stroke-width:4; stroke-opacity:1; fill:none" points="147.478,1423.18 147.478,47.2441 "/>
<polyline clip-path="url(#clip930)" style="stroke:#000000; stroke-linecap:round; stroke-linejoin:round; stroke-width:4; stroke-opacity:1; fill:none" points="147.478,1339.15 166.376,1339.15 "/>
<polyline clip-path="url(#clip930)" style="stroke:#000000; stroke-linecap:round; stroke-linejoin:round; stroke-width:4; stroke-opacity:1; fill:none" points="147.478,1075.23 166.376,1075.23 "/>
<polyline clip-path="url(#clip930)" style="stroke:#000000; stroke-linecap:round; stroke-linejoin:round; stroke-width:4; stroke-opacity:1; fill:none" points="147.478,811.316 166.376,811.316 "/>
<polyline clip-path="url(#clip930)" style="stroke:#000000; stroke-linecap:round; stroke-linejoin:round; stroke-width:4; stroke-opacity:1; fill:none" points="147.478,547.4 166.376,547.4 "/>
<polyline clip-path="url(#clip930)" style="stroke:#000000; stroke-linecap:round; stroke-linejoin:round; stroke-width:4; stroke-opacity:1; fill:none" points="147.478,283.484 166.376,283.484 "/>
<path clip-path="url(#clip930)" d="M51.3625 1339.6 L81.0383 1339.6 L81.0383 1343.53 L51.3625 1343.53 L51.3625 1339.6 Z" fill="#000000" fill-rule="nonzero" fill-opacity="1" /><path clip-path="url(#clip930)" d="M95.1586 1352.49 L111.478 1352.49 L111.478 1356.43 L89.5336 1356.43 L89.5336 1352.49 Q92.1956 1349.74 96.7789 1345.11 Q101.385 1340.46 102.566 1339.11 Q104.811 1336.59 105.691 1334.85 Q106.594 1333.09 106.594 1331.4 Q106.594 1328.65 104.649 1326.91 Q102.728 1325.18 99.6261 1325.18 Q97.4271 1325.18 94.9734 1325.94 Q92.5428 1326.71 89.7651 1328.26 L89.7651 1323.53 Q92.5891 1322.4 95.0428 1321.82 Q97.4965 1321.24 99.5335 1321.24 Q104.904 1321.24 108.098 1323.93 Q111.293 1326.61 111.293 1331.1 Q111.293 1333.23 110.483 1335.15 Q109.696 1337.05 107.589 1339.65 Q107.01 1340.32 103.909 1343.53 Q100.807 1346.73 95.1586 1352.49 Z" fill="#000000" fill-rule="nonzero" fill-opacity="1" /><path clip-path="url(#clip930)" d="M50.9921 1075.68 L80.6679 1075.68 L80.6679 1079.62 L50.9921 1079.62 L50.9921 1075.68 Z" fill="#000000" fill-rule="nonzero" fill-opacity="1" /><path clip-path="url(#clip930)" d="M91.5706 1088.58 L99.2095 1088.58 L99.2095 1062.21 L90.8993 1063.88 L90.8993 1059.62 L99.1632 1057.95 L103.839 1057.95 L103.839 1088.58 L111.478 1088.58 L111.478 1092.51 L91.5706 1092.51 L91.5706 1088.58 Z" fill="#000000" fill-rule="nonzero" fill-opacity="1" /><path clip-path="url(#clip930)" d="M99.5335 797.115 Q95.9224 797.115 94.0937 800.679 Q92.2882 804.221 92.2882 811.351 Q92.2882 818.457 94.0937 822.022 Q95.9224 825.564 99.5335 825.564 Q103.168 825.564 104.973 822.022 Q106.802 818.457 106.802 811.351 Q106.802 804.221 104.973 800.679 Q103.168 797.115 99.5335 797.115 M99.5335 793.411 Q105.344 793.411 108.399 798.017 Q111.478 802.601 111.478 811.351 Q111.478 820.077 108.399 824.684 Q105.344 829.267 99.5335 829.267 Q93.7234 829.267 90.6447 824.684 Q87.5892 820.077 87.5892 811.351 Q87.5892 802.601 90.6447 798.017 Q93.7234 793.411 99.5335 793.411 Z" fill="#000000" fill-rule="nonzero" fill-opacity="1" /><path clip-path="url(#clip930)" d="M91.5706 560.745 L99.2095 560.745 L99.2095 534.379 L90.8993 536.046 L90.8993 531.787 L99.1632 530.12 L103.839 530.12 L103.839 560.745 L111.478 560.745 L111.478 564.68 L91.5706 564.68 L91.5706 560.745 Z" fill="#000000" fill-rule="nonzero" fill-opacity="1" /><path clip-path="url(#clip930)" d="M95.1586 296.829 L111.478 296.829 L111.478 300.764 L89.5336 300.764 L89.5336 296.829 Q92.1956 294.075 96.7789 289.445 Q101.385 284.792 102.566 283.45 Q104.811 280.926 105.691 279.19 Q106.594 277.431 106.594 275.741 Q106.594 272.987 104.649 271.251 Q102.728 269.514 99.6261 269.514 Q97.4271 269.514 94.9734 270.278 Q92.5428 271.042 89.7651 272.593 L89.7651 267.871 Q92.5891 266.737 95.0428 266.158 Q97.4965 265.579 99.5335 265.579 Q104.904 265.579 108.098 268.264 Q111.293 270.95 111.293 275.44 Q111.293 277.57 110.483 279.491 Q109.696 281.389 107.589 283.982 Q107.01 284.653 103.909 287.871 Q100.807 291.065 95.1586 296.829 Z" fill="#000000" fill-rule="nonzero" fill-opacity="1" /><polyline clip-path="url(#clip932)" style="stroke:#009af9; stroke-linecap:round; stroke-linejoin:round; stroke-width:8; stroke-opacity:1; fill:none" points="147.478,758.533 149.685,758.002 151.893,757.465 154.1,756.924 156.308,756.376 158.515,755.824 160.723,755.265 162.93,754.702 165.138,754.132 167.345,753.557 169.553,752.976 171.76,752.389 173.968,751.796 176.175,751.197 178.383,750.592 180.59,749.981 182.798,749.364 185.005,748.741 187.213,748.112 189.42,747.476 191.628,746.834 193.835,746.185 196.043,745.53 198.25,744.868 200.458,744.199 202.665,743.524 204.873,742.842 207.08,742.153 209.288,741.457 211.495,740.755 213.702,740.045 215.91,739.328 218.117,738.603 220.325,737.872 222.532,737.133 224.74,736.387 226.947,735.633 229.155,734.872 231.362,734.103 233.57,733.326 235.777,732.541 237.985,731.749 240.192,730.948 242.4,730.14 244.607,729.323 246.815,728.498 249.022,727.665 251.23,726.823 253.437,725.973 255.645,725.115 257.852,724.248 260.06,723.372 262.267,722.487 264.475,721.593 266.682,720.691 268.89,719.779 271.097,718.858 273.305,717.928 275.512,716.988 277.72,716.04 279.927,715.081 282.135,714.113 284.342,713.135 286.549,712.147 288.757,711.15 290.964,710.142 293.172,709.124 295.379,708.096 297.587,707.058 299.794,706.009 302.002,704.949 304.209,703.879 306.417,702.798 308.624,701.707 310.832,700.604 313.039,699.49 315.247,698.365 317.454,697.229 319.662,696.081 321.869,694.922 324.077,693.751 326.284,692.568 328.492,691.373 330.699,690.167 332.907,688.948 335.114,687.717 337.322,686.473 339.529,685.217 341.737,683.949 343.944,682.668 346.152,681.373 348.359,680.066 350.567,678.746 352.774,677.412 354.982,676.065 357.189,674.704 359.397,673.33 361.604,671.942 363.811,670.54 366.019,669.123 368.226,667.693 370.434,666.248 372.641,664.789 374.849,663.315 377.056,661.826 379.264,660.322 381.471,658.803 383.679,657.268 385.886,655.718 388.094,654.153 390.301,652.572 392.509,650.975 394.716,649.362 396.924,647.733 399.131,646.087 401.339,644.425 403.546,642.746 405.754,641.05 407.961,639.337 410.169,637.607 412.376,635.859 414.584,634.094 416.791,632.311 418.999,630.51 421.206,628.691 423.414,626.854 425.621,624.998 427.829,623.124 430.036,621.23 432.244,619.318 434.451,617.387 436.659,615.436 438.866,613.465 441.073,611.475 443.281,609.464 445.488,607.434 447.696,605.383 449.903,603.311 452.111,601.218 454.318,599.105 456.526,596.97 458.733,594.814 460.941,592.636 463.148,590.436 465.356,588.214 467.563,585.969 469.771,583.702 471.978,581.412 474.186,579.1 476.393,576.763 478.601,574.404 480.808,572.02 483.016,569.613 485.223,567.181 487.431,564.725 489.638,562.244 491.846,559.739 494.053,557.208 496.261,554.651 498.468,552.069 500.676,549.461 502.883,546.826 505.091,544.165 507.298,541.478 509.506,538.763 511.713,536.021 513.921,533.251 516.128,530.454 518.335,527.628 520.543,524.775 522.75,521.892 524.958,518.98 527.165,516.039 529.373,513.069 531.58,510.068 533.788,507.037 535.995,657.646 538.203,656.1 540.41,654.538 542.618,652.961 544.825,651.368 547.033,649.759 549.24,648.134 551.448,646.492 553.655,644.834 555.863,643.159 558.07,641.467 560.278,639.758 562.485,638.032 564.693,636.289 566.9,634.528 569.108,632.75 571.315,630.953 573.523,629.139 575.73,627.306 577.938,625.455 580.145,623.586 582.353,621.697 584.56,619.789 586.768,617.863 588.975,615.917 591.182,613.951 593.39,611.966 595.597,609.96 597.805,607.934 600.012,605.888 602.22,603.822 604.427,601.735 606.635,599.626 608.842,597.497 611.05,595.345 613.257,593.173 615.465,590.978 617.672,588.761 619.88,586.522 622.087,584.261 624.295,581.977 626.502,579.669 628.71,577.339 630.917,574.985 633.125,572.607 635.332,570.206 637.54,567.78 639.747,565.33 641.955,562.855 644.162,560.355 646.37,557.83 648.577,555.28 650.785,552.704 652.992,550.103 655.2,547.475 657.407,544.82 659.615,542.139 661.822,539.431 664.03,536.696 666.237,533.933 668.444,531.142 670.652,528.323 672.859,525.476 675.067,522.601 677.274,519.696 679.482,516.762 681.689,513.799 683.897,510.806 686.104,507.783 688.312,504.729 690.519,501.645 692.727,498.53 694.934,495.383 697.142,492.205 699.349,488.995 701.557,485.753 703.764,482.478 705.972,479.17 708.179,475.829 710.387,472.455 712.594,469.046 714.802,465.603 717.009,462.126 719.217,458.614 721.424,455.066 723.632,451.482 725.839,447.863 728.047,444.207 730.254,440.514 732.462,436.784 734.669,433.017 736.877,429.212 739.084,425.368 741.292,421.486 743.499,417.564 745.706,413.603 747.914,409.602 750.121,405.561 752.329,401.479 754.536,397.356 756.744,393.192 758.951,388.985 761.159,384.736 763.366,380.444 765.574,376.109 767.781,371.731 769.989,367.308 772.196,362.841 774.404,358.329 776.611,353.771 778.819,349.167 781.026,344.517 783.234,339.821 785.441,335.077 787.649,330.285 789.856,325.445 792.064,320.556 794.271,315.618 796.479,310.631 798.686,305.593 800.894,300.505 803.101,295.366 805.309,290.175 807.516,284.932 809.724,279.636 811.931,274.288 814.139,268.885 816.346,263.428 818.553,257.916 820.761,252.349 822.968,246.725 825.176,241.045 827.383,235.308 829.591,229.513 831.798,223.66 834.006,217.748 836.213,211.777 838.421,205.745 840.628,199.653 842.836,193.5 845.043,187.284 847.251,181.006 849.458,174.665 851.666,168.26 853.873,161.791 856.081,155.257 858.288,148.657 860.496,141.99 862.703,135.256 864.911,128.455 867.118,121.585 869.326,114.646 871.533,107.638 873.741,100.558 875.948,93.408 878.156,86.1857 880.363,445.109 882.571,441.425 884.778,437.703 886.986,433.945 889.193,430.148 891.401,426.314 893.608,422.44 895.815,418.528 898.023,414.577 900.23,410.585 902.438,406.554 904.645,402.482 906.853,604.842 909.06,602.764 911.268,600.666 913.475,598.547 915.683,596.406 917.89,594.244 920.098,592.06 922.305,589.854 924.513,587.626 926.72,585.376 928.928,583.103 931.135,580.807 933.343,578.488 935.55,576.146 937.758,573.78 939.965,571.39 942.173,568.977 944.38,566.539 946.588,564.076 948.795,561.589 951.003,559.077 953.21,556.54 955.418,553.977 957.625,551.388 959.833,548.774 962.04,546.133 964.248,543.465 966.455,540.771 968.663,538.05 970.87,535.301 973.077,532.525 975.285,529.72 977.492,526.888 979.7,524.027 981.907,521.137 984.115,518.218 986.322,515.27 988.53,512.292 990.737,509.284 992.945,506.246 995.152,503.177 997.36,500.077 999.567,496.946 1001.77,493.783 1003.98,490.589 1006.19,487.362 1008.4,484.103 1010.6,480.812 1012.81,477.486 1015.02,474.128 1017.23,470.735 1019.43,467.309 1021.64,463.848 1023.85,460.352 1026.06,456.821 1028.26,453.254 1030.47,449.651 1032.68,446.013 1034.89,442.337 1037.09,438.625 1039.3,434.875 1041.51,431.087 1043.72,427.261 1045.92,423.397 1048.13,419.494 1050.34,415.552 1052.55,411.57 1054.75,407.548 1056.96,403.486 1059.17,399.383 1061.38,395.239 1063.58,391.053 1065.79,386.825 1068,382.555 1070.21,594.778 1072.41,592.6 1074.62,590.399 1076.83,588.177 1079.04,585.932 1081.24,583.664 1083.45,581.374 1085.66,579.061 1087.87,576.724 1090.07,574.364 1092.28,571.98 1094.49,569.573 1096.7,567.141 1098.9,564.684 1101.11,562.203 1103.32,559.697 1105.53,557.166 1107.73,554.609 1109.94,552.027 1112.15,549.418 1114.36,546.783 1116.56,544.122 1118.77,541.434 1120.98,538.719 1123.19,535.977 1125.39,533.207 1127.6,530.409 1129.81,527.583 1132.02,524.729 1134.22,521.846 1136.43,518.934 1138.64,515.993 1140.85,513.022 1143.05,510.021 1145.26,506.989 1147.47,503.928 1149.68,500.835 1151.88,497.712 1154.09,494.557 1156.3,491.37 1158.51,488.151 1160.71,484.9 1162.92,481.616 1165.13,478.299 1167.34,474.949 1169.54,471.565 1171.75,468.147 1173.96,464.694 1176.17,461.207 1178.37,457.685 1180.58,632.73 1182.79,630.933 1185,629.118 1187.2,627.285 1189.41,625.434 1191.62,623.564 1193.83,621.675 1196.03,619.767 1198.24,617.84 1200.45,615.893 1202.66,613.927 1204.86,611.941 1207.07,609.936 1209.28,607.91 1211.49,605.863 1213.69,603.797 1215.9,601.709 1218.11,599.6 1220.32,597.471 1222.52,595.32 1224.73,593.147 1226.94,590.952 1229.15,588.736 1231.35,586.497 1233.56,584.235 1235.77,581.951 1237.98,579.644 1240.18,577.313 1242.39,574.96 1244.6,572.582 1246.81,570.181 1249.01,567.755 1251.22,565.305 1253.43,562.831 1255.64,560.331 1257.84,557.806 1260.05,555.256 1262.26,552.681 1264.47,550.079 1266.67,547.451 1268.88,544.797 1271.09,542.116 1273.3,539.407 1275.5,536.672 1277.71,533.909 1279.92,531.118 1282.13,528.299 1284.33,525.452 1286.54,522.576 1288.75,519.671 1290.96,516.737 1293.16,513.773 1295.37,510.78 1297.58,507.756 1299.79,504.702 1301.99,501.617 1304.2,498.501 1306.41,495.353 1308.62,492.174 1310.82,488.963 1313.03,485.72 1315.24,482.444 1317.45,479.135 1319.65,475.793 1321.86,472.417 1324.07,469.007 1326.28,465.563 1328.48,462.084 1330.69,458.571 1332.9,455.022 1335.11,631.379 1337.31,629.569 1339.52,627.741 1341.73,625.894 1343.94,624.028 1346.14,622.144 1348.35,620.241 1350.56,618.319 1352.76,616.377 1354.97,614.416 1357.18,612.435 1359.39,610.434 1361.59,608.413 1363.8,606.372 1366.01,604.31 1368.22,602.228 1370.42,600.124 1372.63,598 1374.84,595.854 1377.05,593.686 1379.25,591.497 1381.46,589.286 1383.67,587.053 1385.88,584.797 1388.08,582.518 1390.29,580.217 1392.5,577.892 1394.71,575.544 1396.91,573.172 1399.12,570.777 1401.33,568.357 1403.54,565.913 1405.74,563.445 1407.95,560.951 1410.16,558.433 1412.37,555.889 1414.57,553.319 1416.78,550.724 1418.99,548.102 1421.2,545.455 1423.4,542.78 1425.61,540.078 1427.82,537.35 1430.03,534.594 1432.23,531.81 1434.44,528.998 1436.65,526.157 1438.86,523.288 1441.06,520.391 1443.27,517.464 1445.48,514.507 1447.69,511.521 1449.89,508.505 1452.1,505.458 1454.31,502.381 1456.52,499.272 1458.72,496.133 1460.93,492.962 1463.14,489.759 1465.35,486.523 1467.55,483.256 1469.76,479.955 1471.97,476.621 1474.18,473.254 1476.38,469.853 1478.59,466.417 1480.8,637.136 1483.01,635.383 1485.21,633.613 1487.42,631.825 1489.63,630.02 1491.84,628.196 1494.04,626.353 1496.25,624.492 1498.46,622.613 1500.67,620.714 1502.87,618.797 1505.08,616.86 1507.29,614.904 1509.5,612.928 1511.7,610.932 1513.91,608.916 1516.12,606.88 1518.33,604.824 1520.53,602.746 1522.74,600.648 1524.95,598.529 1527.16,596.389 1529.36,594.227 1531.57,592.043 1533.78,589.838 1535.99,587.61 1538.19,585.36 1540.4,583.087 1542.61,580.792 1544.82,578.473 1547.02,576.131 1549.23,573.766 1551.44,571.377 1553.65,568.963 1555.85,566.526 1558.06,564.063 1560.27,561.577 1562.48,559.065 1564.68,556.527 1566.89,553.965 1569.1,551.376 1571.31,548.761 1573.51,546.12 1575.72,543.453 1577.93,540.758 1580.14,538.036 1582.34,535.287 1584.55,532.511 1586.76,529.706 1588.97,526.873 1591.17,524.011 1593.38,521.121 1595.59,518.201 1597.8,515.252 1600,512.273 1602.21,509.265 1604.42,506.226 1606.63,503.156 1608.83,500.055 1611.04,496.923 1613.25,493.76 1615.46,490.565 1617.66,487.337 1619.87,484.077 1622.08,480.785 1624.29,477.459 1626.49,474.099 1628.7,470.706 1630.91,467.279 1633.12,463.817 1635.32,460.321 1637.53,456.789 1639.74,453.222 1641.95,449.619 1644.15,445.98 1646.36,442.304 1648.57,438.592 1650.78,434.842 1652.98,431.055 1655.19,427.229 1657.4,617.34 1659.61,615.389 1661.81,613.418 1664.02,611.427 1666.23,609.416 1668.44,607.384 1670.64,605.333 1672.85,603.26 1675.06,601.167 1677.27,599.053 1679.47,596.917 1681.68,594.76 1683.89,592.582 1686.1,590.381 1688.3,588.159 1690.51,585.914 1692.72,583.646 1694.93,581.356 1697.13,579.043 1699.34,576.706 1701.55,574.346 1703.76,571.962 1705.96,569.555 1708.17,567.123 1710.38,564.666 1712.59,562.185 1714.79,559.679 1717,557.148 1719.21,554.591 1721.42,552.009 1723.62,549.4 1725.83,546.766 1728.04,544.104 1730.25,541.416 1732.45,538.701 1734.66,535.959 1736.87,533.189 1739.07,530.391 1741.28,527.565 1743.49,524.711 1745.7,521.827 1747.9,518.915 1750.11,515.974 1752.32,513.002 1754.53,510.001 1756.73,506.97 1758.94,503.908 1761.15,500.815 1763.36,497.691 1765.56,494.536 1767.77,491.349 1769.98,488.13 1772.19,484.878 1774.39,481.594 1776.6,478.276 1778.81,474.925 1781.02,471.541 1783.22,468.122 1785.43,464.669 1787.64,461.182 1789.85,457.659 1792.05,454.101 1794.26,450.507 1796.47,446.877 1798.68,443.21 1800.88,439.507 1803.09,623.552 1805.3,621.663 1807.51,619.755 1809.71,617.828 1811.92,615.881 1814.13,613.915 1816.34,611.929 1818.54,609.923 1820.75,607.897 1822.96,605.851 1825.17,603.784 1827.37,601.696 1829.58,599.587 1831.79,597.457 1834,595.306 1836.2,593.133 1838.41,701.126 1840.62,700.018 1842.83,698.898 1845.03,697.767 1847.24,696.624 1849.45,695.47 1851.66,694.305 1853.86,693.128 1856.07,691.938 1858.28,690.737 1860.49,689.524 1862.69,688.299 1864.9,687.061 1867.11,685.811 1869.32,684.549 1871.52,683.273 1873.73,681.985 1875.94,680.684 1878.15,679.37 1880.35,678.043 1882.56,676.703 1884.77,675.349 1886.98,673.981 1889.18,672.6 1891.39,671.204 1893.6,669.795 1895.81,668.372 1898.01,666.934 1900.22,665.482 1902.43,664.015 1904.64,662.534 1906.84,661.038 1909.05,659.526 1911.26,658 1913.47,656.458 1915.67,654.9 1917.88,653.327 1920.09,651.738 1922.3,650.134 1924.5,648.513 1926.71,646.875 1928.92,645.221 1931.13,643.551 1933.33,641.863 1935.54,640.159 1937.75,638.437 1939.96,636.699 1942.16,634.942 1944.37,633.168 1946.58,631.376 1948.79,629.566 1950.99,627.738 1953.2,625.891 1955.41,624.026 1957.62,622.141 1959.82,620.238 1962.03,618.316 1964.24,616.374 1966.45,614.413 1968.65,612.432 1970.86,610.431 1973.07,608.409 1975.28,606.368 1977.48,604.305 1979.69,602.222 1981.9,600.118 1984.11,597.993 1986.31,595.847 1988.52,593.678 1990.73,591.488 1992.94,589.276 1995.14,587.042 1997.35,584.785 1999.56,582.505 2001.77,580.203 2003.97,577.877 2006.18,575.528 2008.39,573.155 2010.6,570.759 2012.8,568.338 2015.01,565.893 2017.22,563.424 2019.43,560.93 2021.63,558.411 2023.84,555.867 2026.05,553.297 2028.26,550.701 2030.46,548.079 2032.67,545.431 2034.88,542.756 2037.09,540.054 2039.29,537.325 2041.5,534.569 2043.71,531.785 2045.92,528.972 2048.12,526.132 2050.33,523.263 2052.54,520.365 2054.75,517.438 2056.95,514.482 2059.16,511.495 2061.37,508.479 2063.58,505.433 2065.78,502.355 2067.99,499.247 2070.2,496.108 2072.41,492.937 2074.61,489.734 2076.82,486.499 2079.03,483.231 2081.24,479.93 2083.44,476.596 2085.65,473.229 2087.86,469.828 2090.07,466.392 2092.27,462.922 2094.48,459.417 2096.69,455.877 2098.9,452.301 2101.1,448.689 2103.31,445.041 2105.52,441.356 2107.73,437.634 2109.93,622.609 2112.14,620.711 2114.35,618.793 2116.55,616.856 2118.76,614.9 2120.97,612.924 2123.18,610.928 2125.38,608.912 2127.59,606.875 2129.8,604.819 2132.01,602.741 2134.21,600.643 2136.42,598.524 2138.63,596.383 2140.84,594.221 2143.04,592.037 2145.25,589.831 2147.46,587.603 2149.67,585.352 2151.87,583.079 2154.08,580.783 2156.29,578.464 2158.5,576.121 2160.7,573.755 2162.91,571.366 2165.12,568.952 2167.33,566.514 2169.53,564.051 2171.74,561.564 2173.95,559.051 2176.16,556.513 2178.36,553.95 2180.57,551.361 2182.78,548.746 2184.99,546.104 2187.19,543.436 2189.4,540.741 2191.61,538.019 2193.82,535.27 2196.02,532.493 2198.23,529.688 2200.44,526.854 2202.65,523.992 2204.85,521.102 2207.06,518.182 2209.27,515.233 2211.48,512.254 2213.68,509.245 2215.89,506.206 2218.1,503.136 2220.31,500.036 2222.51,496.904 2224.72,493.741 2226.93,490.546 2229.14,487.319 2231.34,484.059 2233.55,646.064 2235.76,644.401 2237.97,642.722 2240.17,641.026 2242.38,639.312 2244.59,637.582 2246.8,635.834 2249,634.069 2251.21,632.286 2253.42,630.484 2255.63,628.665 2257.83,626.828 2260.04,624.972 2262.25,623.097 2264.46,621.204 2266.66,619.291 2268.87,617.359 2271.08,615.408 2273.29,613.437 2275.49,611.447 2277.7,609.436 2279.91,607.405 2282.12,605.354 2284.32,603.282 2286.53,601.189 2288.74,599.075 2290.95,596.94 2293.15,594.784 2295.36,592.605 2297.57,590.405 2299.78,588.183 2301.98,585.938 2304.19,583.671 2306.4,581.381 2308.61,579.068 2310.81,576.731 2313.02,574.371 2315.23,571.987 2317.44,569.58 2319.64,567.148 2321.85,564.691 2324.06,562.21 2326.27,559.704 2328.47,557.172 2330.68,554.616 2332.89,552.033 2335.1,549.424 2337.3,546.79 2339.51,544.128 2341.72,541.44 2343.93,538.725 2346.13,535.983 2348.34,533.212 2350.55,530.415 2352.76,527.589 "/>
<polyline clip-path="url(#clip932)" style="stroke:#e26f46; stroke-linecap:round; stroke-linejoin:round; stroke-width:8; stroke-opacity:1; fill:none" points="147.478,1064.69 149.685,1064.16 151.893,1063.62 154.1,1063.08 156.308,1062.53 158.515,1061.98 160.723,1061.42 162.93,1060.86 165.138,1060.29 167.345,1059.71 169.553,1059.13 171.76,1058.55 173.968,1057.95 176.175,1057.35 178.383,1056.75 180.59,1056.14 182.798,1055.52 185.005,1054.9 187.213,1054.27 189.42,1053.63 191.628,1052.99 193.835,1052.34 196.043,1051.69 198.25,1051.02 200.458,1050.36 202.665,1049.68 204.873,1049 207.08,1048.31 209.288,1047.61 211.495,1046.91 213.702,1046.2 215.91,1045.48 218.117,1044.76 220.325,1044.03 222.532,1043.29 224.74,1042.54 226.947,1041.79 229.155,1041.03 231.362,1040.26 233.57,1039.48 235.777,1038.7 237.985,1037.91 240.192,1037.11 242.4,1036.3 244.607,1035.48 246.815,1034.66 249.022,1033.82 251.23,1032.98 253.437,1032.13 255.645,1031.27 257.852,1030.4 260.06,1029.53 262.267,1028.64 264.475,1027.75 266.682,1026.85 268.89,1025.94 271.097,1025.02 273.305,1024.08 275.512,1023.15 277.72,1022.2 279.927,1021.24 282.135,1020.27 284.342,1019.29 286.549,1018.3 288.757,1017.31 290.964,1016.3 293.172,1015.28 295.379,1014.25 297.587,1013.21 299.794,1012.17 302.002,1011.11 304.209,1010.04 306.417,1008.96 308.624,1007.86 310.832,1006.76 313.039,1005.65 315.247,1004.52 317.454,1003.39 319.662,1002.24 321.869,1001.08 324.077,999.908 326.284,998.725 328.492,997.53 330.699,996.324 332.907,995.105 335.114,993.874 337.322,992.63 339.529,991.374 341.737,990.106 343.944,988.824 346.152,987.53 348.359,986.223 350.567,984.903 352.774,983.569 354.982,982.222 357.189,980.861 359.397,979.487 361.604,978.099 363.811,976.697 366.019,975.28 368.226,973.85 370.434,972.405 372.641,970.946 374.849,969.471 377.056,967.983 379.264,966.479 381.471,964.96 383.679,963.425 385.886,961.875 388.094,960.31 390.301,958.729 392.509,957.132 394.716,955.519 396.924,953.889 399.131,952.244 401.339,950.581 403.546,948.902 405.754,947.207 407.961,945.494 410.169,943.763 412.376,942.016 414.584,940.251 416.791,938.468 418.999,936.667 421.206,934.848 423.414,933.011 425.621,931.155 427.829,929.28 430.036,927.387 432.244,925.475 434.451,923.543 436.659,921.592 438.866,919.622 441.073,917.632 443.281,915.621 445.488,913.591 447.696,911.539 449.903,909.468 452.111,907.375 454.318,905.262 456.526,903.127 458.733,900.971 460.941,898.793 463.148,896.593 465.356,894.371 467.563,892.126 469.771,889.859 471.978,887.569 474.186,885.257 476.393,882.92 478.601,880.561 480.808,878.177 483.016,875.77 485.223,873.338 487.431,870.882 489.638,868.401 491.846,865.896 494.053,863.365 496.261,860.808 498.468,858.226 500.676,855.618 502.883,852.983 505.091,850.322 507.298,847.635 509.506,844.92 511.713,842.178 513.921,839.408 516.128,836.611 518.335,833.785 520.543,830.931 522.75,828.049 524.958,825.137 527.165,822.196 529.373,819.225 531.58,816.225 533.788,813.194 535.995,1384.24 538.203,1382.69 540.41,1381.13 542.618,1379.55 544.825,1377.96 547.033,1376.35 549.24,1374.73 551.448,1373.08 553.655,1371.43 555.863,1369.75 558.07,1368.06 560.278,1366.35 562.485,1364.62 564.693,1362.88 566.9,1361.12 569.108,1359.34 571.315,1357.55 573.523,1355.73 575.73,1353.9 577.938,1352.05 580.145,1350.18 582.353,1348.29 584.56,1346.38 586.768,1344.46 588.975,1342.51 591.182,1340.54 593.39,1338.56 595.597,1336.55 597.805,1334.53 600.012,1332.48 602.22,1330.41 604.427,1328.33 606.635,1326.22 608.842,1324.09 611.05,1321.94 613.257,1319.77 615.465,1317.57 617.672,1315.35 619.88,1313.11 622.087,1310.85 624.295,1308.57 626.502,1306.26 628.71,1303.93 630.917,1301.58 633.125,1299.2 635.332,1296.8 637.54,1294.37 639.747,1291.92 641.955,1289.45 644.162,1286.95 646.37,1284.42 648.577,1281.87 650.785,1279.3 652.992,1276.7 655.2,1274.07 657.407,1271.41 659.615,1268.73 661.822,1266.02 664.03,1263.29 666.237,1260.53 668.444,1257.73 670.652,1254.92 672.859,1252.07 675.067,1249.19 677.274,1246.29 679.482,1243.35 681.689,1240.39 683.897,1237.4 686.104,1234.38 688.312,1231.32 690.519,1228.24 692.727,1225.12 694.934,1221.98 697.142,1218.8 699.349,1215.59 701.557,1212.35 703.764,1209.07 705.972,1205.76 708.179,1202.42 710.387,1199.05 712.594,1195.64 714.802,1192.2 717.009,1188.72 719.217,1185.21 721.424,1181.66 723.632,1178.07 725.839,1174.46 728.047,1170.8 730.254,1167.11 732.462,1163.38 734.669,1159.61 736.877,1155.8 739.084,1151.96 741.292,1148.08 743.499,1144.16 745.706,1140.2 747.914,1136.19 750.121,1132.15 752.329,1128.07 754.536,1123.95 756.744,1119.78 758.951,1115.58 761.159,1111.33 763.366,1107.04 765.574,1102.7 767.781,1098.32 769.989,1093.9 772.196,1089.43 774.404,1084.92 776.611,1080.36 778.819,1075.76 781.026,1071.11 783.234,1066.41 785.441,1061.67 787.649,1056.88 789.856,1052.04 792.064,1047.15 794.271,1042.21 796.479,1037.22 798.686,1032.19 800.894,1027.1 803.101,1021.96 805.309,1016.77 807.516,1011.52 809.724,1006.23 811.931,1000.88 814.139,995.477 816.346,990.02 818.553,984.508 820.761,978.941 822.968,973.317 825.176,967.638 827.383,961.9 829.591,956.106 831.798,950.253 834.006,944.341 836.213,938.369 838.421,932.338 840.628,926.245 842.836,920.092 845.043,913.877 847.251,907.599 849.458,901.258 851.666,894.853 853.873,888.384 856.081,881.849 858.288,875.249 860.496,868.582 862.703,861.849 864.911,855.047 867.118,848.178 869.326,841.239 871.533,834.23 873.741,827.151 875.948,820 878.156,812.778 880.363,857.756 882.571,854.072 884.778,850.35 886.986,846.592 889.193,842.795 891.401,838.961 893.608,835.087 895.815,831.175 898.023,827.224 900.23,823.232 902.438,819.201 904.645,815.129 906.853,1034.78 909.06,1032.7 911.268,1030.6 913.475,1028.48 915.683,1026.34 917.89,1024.18 920.098,1021.99 922.305,1019.79 924.513,1017.56 926.72,1015.31 928.928,1013.04 931.135,1010.74 933.343,1008.42 935.55,1006.08 937.758,1003.71 939.965,1001.32 942.173,998.91 944.38,996.472 946.588,994.01 948.795,991.523 951.003,989.011 953.21,986.474 955.418,983.911 957.625,981.322 959.833,978.708 962.04,976.067 964.248,973.399 966.455,970.705 968.663,967.984 970.87,965.235 973.077,962.458 975.285,959.654 977.492,956.822 979.7,953.961 981.907,951.071 984.115,948.152 986.322,945.204 988.53,942.226 990.737,939.218 992.945,936.179 995.152,933.11 997.36,930.011 999.567,926.88 1001.77,923.717 1003.98,920.523 1006.19,917.296 1008.4,914.037 1010.6,910.745 1012.81,907.42 1015.02,904.062 1017.23,900.669 1019.43,897.243 1021.64,893.782 1023.85,890.286 1026.06,886.755 1028.26,883.188 1030.47,879.585 1032.68,875.946 1034.89,872.271 1037.09,868.558 1039.3,864.808 1041.51,861.021 1043.72,857.195 1045.92,853.331 1048.13,849.428 1050.34,845.486 1052.55,841.504 1054.75,837.482 1056.96,833.42 1059.17,829.317 1061.38,825.173 1063.58,820.987 1065.79,816.759 1068,812.488 1070.21,950.287 1072.41,948.109 1074.62,945.908 1076.83,943.686 1079.04,941.441 1081.24,939.173 1083.45,936.883 1085.66,934.57 1087.87,932.233 1090.07,929.873 1092.28,927.489 1094.49,925.082 1096.7,922.65 1098.9,920.193 1101.11,917.712 1103.32,915.206 1105.53,912.675 1107.73,910.118 1109.94,907.535 1112.15,904.927 1114.36,902.292 1116.56,899.631 1118.77,896.943 1120.98,894.228 1123.19,891.486 1125.39,888.716 1127.6,885.918 1129.81,883.092 1132.02,880.238 1134.22,877.355 1136.43,874.443 1138.64,871.501 1140.85,868.53 1143.05,865.529 1145.26,862.498 1147.47,859.437 1149.68,856.344 1151.88,853.221 1154.09,850.066 1156.3,846.879 1158.51,843.66 1160.71,840.409 1162.92,837.125 1165.13,833.808 1167.34,830.458 1169.54,827.073 1171.75,823.655 1173.96,820.203 1176.17,816.716 1178.37,813.194 1180.58,989.207 1182.79,987.41 1185,985.595 1187.2,983.762 1189.41,981.911 1191.62,980.041 1193.83,978.152 1196.03,976.244 1198.24,974.317 1200.45,972.37 1202.66,970.404 1204.86,968.418 1207.07,966.413 1209.28,964.387 1211.49,962.34 1213.69,960.274 1215.9,958.186 1218.11,956.077 1220.32,953.948 1222.52,951.797 1224.73,949.624 1226.94,947.429 1229.15,945.213 1231.35,942.974 1233.56,940.712 1235.77,938.428 1237.98,936.121 1240.18,933.79 1242.39,931.437 1244.6,929.059 1246.81,926.658 1249.01,924.232 1251.22,921.782 1253.43,919.308 1255.64,916.808 1257.84,914.283 1260.05,911.733 1262.26,909.158 1264.47,906.556 1266.67,903.928 1268.88,901.274 1271.09,898.593 1273.3,895.884 1275.5,893.149 1277.71,890.386 1279.92,887.595 1282.13,884.776 1284.33,881.929 1286.54,879.053 1288.75,876.148 1290.96,873.214 1293.16,870.25 1295.37,867.257 1297.58,864.233 1299.79,861.179 1301.99,858.094 1304.2,854.978 1306.41,851.83 1308.62,848.651 1310.82,845.44 1313.03,842.197 1315.24,838.921 1317.45,835.612 1319.65,832.27 1321.86,828.894 1324.07,825.484 1326.28,822.04 1328.48,818.561 1330.69,815.048 1332.9,811.499 1335.11,976.784 1337.31,974.974 1339.52,973.146 1341.73,971.299 1343.94,969.433 1346.14,967.549 1348.35,965.646 1350.56,963.723 1352.76,961.782 1354.97,959.821 1357.18,957.84 1359.39,955.839 1361.59,953.818 1363.8,951.777 1366.01,949.715 1368.22,947.633 1370.42,945.529 1372.63,943.405 1374.84,941.259 1377.05,939.091 1379.25,936.902 1381.46,934.691 1383.67,932.458 1385.88,930.202 1388.08,927.923 1390.29,925.622 1392.5,923.297 1394.71,920.949 1396.91,918.577 1399.12,916.182 1401.33,913.762 1403.54,911.318 1405.74,908.849 1407.95,906.356 1410.16,903.838 1412.37,901.294 1414.57,898.724 1416.78,896.129 1418.99,893.507 1421.2,890.859 1423.4,888.185 1425.61,885.483 1427.82,882.755 1430.03,879.999 1432.23,877.215 1434.44,874.403 1436.65,871.562 1438.86,868.693 1441.06,865.796 1443.27,862.869 1445.48,859.912 1447.69,856.926 1449.89,853.91 1452.1,850.863 1454.31,847.786 1456.52,844.677 1458.72,841.538 1460.93,838.367 1463.14,835.164 1465.35,831.928 1467.55,828.66 1469.76,825.36 1471.97,822.026 1474.18,818.659 1476.38,815.258 1478.59,811.822 1480.8,1024.41 1483.01,1022.66 1485.21,1020.89 1487.42,1019.1 1489.63,1017.29 1491.84,1015.47 1494.04,1013.63 1496.25,1011.77 1498.46,1009.89 1500.67,1007.99 1502.87,1006.07 1505.08,1004.13 1507.29,1002.18 1509.5,1000.2 1511.7,998.206 1513.91,996.19 1516.12,994.154 1518.33,992.098 1520.53,990.02 1522.74,987.922 1524.95,985.803 1527.16,983.663 1529.36,981.501 1531.57,979.317 1533.78,977.112 1535.99,974.884 1538.19,972.634 1540.4,970.361 1542.61,968.066 1544.82,965.747 1547.02,963.405 1549.23,961.04 1551.44,958.651 1553.65,956.237 1555.85,953.8 1558.06,951.337 1560.27,948.851 1562.48,946.339 1564.68,943.801 1566.89,941.239 1569.1,938.65 1571.31,936.035 1573.51,933.394 1575.72,930.727 1577.93,928.032 1580.14,925.31 1582.34,922.561 1584.55,919.785 1586.76,916.98 1588.97,914.147 1591.17,911.285 1593.38,908.395 1595.59,905.475 1597.8,902.526 1600,899.547 1602.21,896.539 1604.42,893.5 1606.63,890.43 1608.83,887.329 1611.04,884.197 1613.25,881.034 1615.46,877.839 1617.66,874.611 1619.87,871.351 1622.08,868.059 1624.29,864.733 1626.49,861.373 1628.7,857.98 1630.91,854.553 1633.12,851.091 1635.32,847.595 1637.53,844.063 1639.74,840.496 1641.95,836.893 1644.15,833.254 1646.36,829.578 1648.57,825.866 1650.78,822.116 1652.98,818.329 1655.19,814.503 1657.4,989.648 1659.61,987.696 1661.81,985.725 1664.02,983.734 1666.23,981.723 1668.44,979.692 1670.64,977.64 1672.85,975.568 1675.06,973.475 1677.27,971.36 1679.47,969.225 1681.68,967.068 1683.89,964.889 1686.1,962.689 1688.3,960.466 1690.51,958.221 1692.72,955.954 1694.93,953.664 1697.13,951.35 1699.34,949.014 1701.55,946.654 1703.76,944.27 1705.96,941.862 1708.17,939.43 1710.38,936.974 1712.59,934.493 1714.79,931.987 1717,929.455 1719.21,926.899 1721.42,924.316 1723.62,921.708 1725.83,919.073 1728.04,916.412 1730.25,913.724 1732.45,911.009 1734.66,908.267 1736.87,905.497 1739.07,902.699 1741.28,899.873 1743.49,897.018 1745.7,894.135 1747.9,891.223 1750.11,888.281 1752.32,885.31 1754.53,882.309 1756.73,879.277 1758.94,876.215 1761.15,873.123 1763.36,869.999 1765.56,866.844 1767.77,863.656 1769.98,860.437 1772.19,857.186 1774.39,853.901 1776.6,850.584 1778.81,847.233 1781.02,843.848 1783.22,840.43 1785.43,836.977 1787.64,833.489 1789.85,829.967 1792.05,826.408 1794.26,822.814 1796.47,819.184 1798.68,815.518 1800.88,811.815 1803.09,843.324 1805.3,841.435 1807.51,839.527 1809.71,837.6 1811.92,835.653 1814.13,833.687 1816.34,831.701 1818.54,829.695 1820.75,827.669 1822.96,825.623 1825.17,823.556 1827.37,821.468 1829.58,819.359 1831.79,817.229 1834,815.078 1836.2,812.905 1838.41,1075.33 1840.62,1074.22 1842.83,1073.1 1845.03,1071.97 1847.24,1070.83 1849.45,1069.68 1851.66,1068.51 1853.86,1067.33 1856.07,1066.15 1858.28,1064.94 1860.49,1063.73 1862.69,1062.51 1864.9,1061.27 1867.11,1060.02 1869.32,1058.76 1871.52,1057.48 1873.73,1056.19 1875.94,1054.89 1878.15,1053.58 1880.35,1052.25 1882.56,1050.91 1884.77,1049.56 1886.98,1048.19 1889.18,1046.81 1891.39,1045.41 1893.6,1044 1895.81,1042.58 1898.01,1041.14 1900.22,1039.69 1902.43,1038.22 1904.64,1036.74 1906.84,1035.24 1909.05,1033.73 1911.26,1032.21 1913.47,1030.66 1915.67,1029.11 1917.88,1027.53 1920.09,1025.95 1922.3,1024.34 1924.5,1022.72 1926.71,1021.08 1928.92,1019.43 1931.13,1017.76 1933.33,1016.07 1935.54,1014.37 1937.75,1012.64 1939.96,1010.91 1942.16,1009.15 1944.37,1007.37 1946.58,1005.58 1948.79,1003.77 1950.99,1001.94 1953.2,1000.1 1955.41,998.232 1957.62,996.348 1959.82,994.445 1962.03,992.522 1964.24,990.581 1966.45,988.619 1968.65,986.638 1970.86,984.637 1973.07,982.616 1975.28,980.574 1977.48,978.512 1979.69,976.429 1981.9,974.325 1984.11,972.2 1986.31,970.053 1988.52,967.885 1990.73,965.695 1992.94,963.483 1995.14,961.248 1997.35,958.991 1999.56,956.712 2001.77,954.409 2003.97,952.084 2006.18,949.735 2008.39,947.362 2010.6,944.965 2012.8,942.545 2015.01,940.1 2017.22,937.631 2019.43,935.137 2021.63,932.618 2023.84,930.073 2026.05,927.503 2028.26,924.908 2030.46,922.286 2032.67,919.637 2034.88,916.963 2037.09,914.261 2039.29,911.532 2041.5,908.775 2043.71,905.991 2045.92,903.179 2048.12,900.339 2050.33,897.47 2052.54,894.572 2054.75,891.645 2056.95,888.688 2059.16,885.702 2061.37,882.686 2063.58,879.639 2065.78,876.562 2067.99,873.454 2070.2,870.314 2072.41,867.143 2074.61,863.94 2076.82,860.705 2079.03,857.437 2081.24,854.137 2083.44,850.803 2085.65,847.436 2087.86,844.034 2090.07,840.599 2092.27,837.129 2094.48,833.624 2096.69,830.083 2098.9,826.508 2101.1,822.896 2103.31,819.248 2105.52,815.563 2107.73,811.841 2109.93,950.604 2112.14,948.705 2114.35,946.788 2116.55,944.851 2118.76,942.895 2120.97,940.919 2123.18,938.923 2125.38,936.907 2127.59,934.87 2129.8,932.814 2132.01,930.736 2134.21,928.638 2136.42,926.518 2138.63,924.378 2140.84,922.216 2143.04,920.032 2145.25,917.826 2147.46,915.598 2149.67,913.347 2151.87,911.074 2154.08,908.778 2156.29,906.459 2158.5,904.116 2160.7,901.75 2162.91,899.361 2165.12,896.947 2167.33,894.509 2169.53,892.046 2171.74,889.559 2173.95,887.046 2176.16,884.508 2178.36,881.945 2180.57,879.356 2182.78,876.741 2184.99,874.099 2187.19,871.431 2189.4,868.736 2191.61,866.014 2193.82,863.265 2196.02,860.488 2198.23,857.683 2200.44,854.849 2202.65,851.987 2204.85,849.097 2207.06,846.177 2209.27,843.228 2211.48,840.249 2213.68,837.24 2215.89,834.201 2218.1,831.131 2220.31,828.031 2222.51,824.899 2224.72,821.736 2226.93,818.541 2229.14,815.314 2231.34,812.054 2233.55,1304.77 2235.76,1303.1 2237.97,1301.43 2240.17,1299.73 2242.38,1298.02 2244.59,1296.29 2246.8,1294.54 2249,1292.77 2251.21,1290.99 2253.42,1289.19 2255.63,1287.37 2257.83,1285.53 2260.04,1283.68 2262.25,1281.8 2264.46,1279.91 2266.66,1277.99 2268.87,1276.06 2271.08,1274.11 2273.29,1272.14 2275.49,1270.15 2277.7,1268.14 2279.91,1266.11 2282.12,1264.06 2284.32,1261.99 2286.53,1259.89 2288.74,1257.78 2290.95,1255.64 2293.15,1253.49 2295.36,1251.31 2297.57,1249.11 2299.78,1246.89 2301.98,1244.64 2304.19,1242.37 2306.4,1240.08 2308.61,1237.77 2310.81,1235.43 2313.02,1233.07 2315.23,1230.69 2317.44,1228.28 2319.64,1225.85 2321.85,1223.39 2324.06,1220.91 2326.27,1218.41 2328.47,1215.88 2330.68,1213.32 2332.89,1210.74 2335.1,1208.13 2337.3,1205.49 2339.51,1202.83 2341.72,1200.14 2343.93,1197.43 2346.13,1194.69 2348.34,1191.92 2350.55,1189.12 2352.76,1186.29 "/>
<path clip-path="url(#clip930)" d="M1969.62 248.629 L2279.25 248.629 L2279.25 93.1086 L1969.62 93.1086  Z" fill="#ffffff" fill-rule="evenodd" fill-opacity="1"/>
<polyline clip-path="url(#clip930)" style="stroke:#000000; stroke-linecap:round; stroke-linejoin:round; stroke-width:4; stroke-opacity:1; fill:none" points="1969.62,248.629 2279.25,248.629 2279.25,93.1086 1969.62,93.1086 1969.62,248.629 "/>
<polyline clip-path="url(#clip930)" style="stroke:#009af9; stroke-linecap:round; stroke-linejoin:round; stroke-width:8; stroke-opacity:1; fill:none" points="1994.13,144.949 2141.14,144.949 "/>
<path clip-path="url(#clip930)" d="M2165.65 151.997 L2165.65 136.303 L2169.91 136.303 L2169.91 151.835 Q2169.91 155.516 2171.34 157.368 Q2172.78 159.196 2175.65 159.196 Q2179.1 159.196 2181.09 156.997 Q2183.1 154.798 2183.1 151.002 L2183.1 136.303 L2187.36 136.303 L2187.36 162.229 L2183.1 162.229 L2183.1 158.247 Q2181.55 160.608 2179.49 161.766 Q2177.45 162.9 2174.74 162.9 Q2170.28 162.9 2167.96 160.122 Q2165.65 157.344 2165.65 151.997 M2176.36 135.678 L2176.36 135.678 Z" fill="#000000" fill-rule="nonzero" fill-opacity="1" /><path clip-path="url(#clip930)" d="M2195.74 126.21 L2205.55 126.21 L2205.55 129.52 L2200 129.52 L2200 165.168 L2205.55 165.168 L2205.55 168.479 L2195.74 168.479 L2195.74 126.21 Z" fill="#000000" fill-rule="nonzero" fill-opacity="1" /><path clip-path="url(#clip930)" d="M2216.04 158.293 L2223.68 158.293 L2223.68 131.928 L2215.37 133.595 L2215.37 129.335 L2223.63 127.669 L2228.31 127.669 L2228.31 158.293 L2235.95 158.293 L2235.95 162.229 L2216.04 162.229 L2216.04 158.293 Z" fill="#000000" fill-rule="nonzero" fill-opacity="1" /><path clip-path="url(#clip930)" d="M2254.74 126.21 L2254.74 168.479 L2244.93 168.479 L2244.93 165.168 L2250.46 165.168 L2250.46 129.52 L2244.93 129.52 L2244.93 126.21 L2254.74 126.21 Z" fill="#000000" fill-rule="nonzero" fill-opacity="1" /><polyline clip-path="url(#clip930)" style="stroke:#e26f46; stroke-linecap:round; stroke-linejoin:round; stroke-width:8; stroke-opacity:1; fill:none" points="1994.13,196.789 2141.14,196.789 "/>
<path clip-path="url(#clip930)" d="M2165.65 203.837 L2165.65 188.143 L2169.91 188.143 L2169.91 203.675 Q2169.91 207.356 2171.34 209.208 Q2172.78 211.036 2175.65 211.036 Q2179.1 211.036 2181.09 208.837 Q2183.1 206.638 2183.1 202.842 L2183.1 188.143 L2187.36 188.143 L2187.36 214.069 L2183.1 214.069 L2183.1 210.087 Q2181.55 212.448 2179.49 213.606 Q2177.45 214.74 2174.74 214.74 Q2170.28 214.74 2167.96 211.962 Q2165.65 209.184 2165.65 203.837 M2176.36 187.518 L2176.36 187.518 Z" fill="#000000" fill-rule="nonzero" fill-opacity="1" /><path clip-path="url(#clip930)" d="M2195.74 178.05 L2205.55 178.05 L2205.55 181.36 L2200 181.36 L2200 217.008 L2205.55 217.008 L2205.55 220.319 L2195.74 220.319 L2195.74 178.05 Z" fill="#000000" fill-rule="nonzero" fill-opacity="1" /><path clip-path="url(#clip930)" d="M2219.26 210.133 L2235.58 210.133 L2235.58 214.069 L2213.63 214.069 L2213.63 210.133 Q2216.29 207.379 2220.88 202.749 Q2225.48 198.096 2226.66 196.754 Q2228.91 194.231 2229.79 192.495 Q2230.69 190.735 2230.69 189.046 Q2230.69 186.291 2228.75 184.555 Q2226.83 182.819 2223.73 182.819 Q2221.53 182.819 2219.07 183.583 Q2216.64 184.347 2213.86 185.897 L2213.86 181.175 Q2216.69 180.041 2219.14 179.462 Q2221.6 178.884 2223.63 178.884 Q2229 178.884 2232.2 181.569 Q2235.39 184.254 2235.39 188.745 Q2235.39 190.874 2234.58 192.796 Q2233.79 194.694 2231.69 197.286 Q2231.11 197.958 2228.01 201.175 Q2224.91 204.37 2219.26 210.133 Z" fill="#000000" fill-rule="nonzero" fill-opacity="1" /><path clip-path="url(#clip930)" d="M2254.74 178.05 L2254.74 220.319 L2244.93 220.319 L2244.93 217.008 L2250.46 217.008 L2250.46 181.36 L2244.93 181.36 L2244.93 178.05 L2254.74 178.05 Z" fill="#000000" fill-rule="nonzero" fill-opacity="1" /></svg>
