<?xml version="1.0" encoding="utf-8"?>
<svg xmlns="http://www.w3.org/2000/svg" xmlns:xlink="http://www.w3.org/1999/xlink" width="600" height="400" viewBox="0 0 2400 1600">
<defs>
  <clipPath id="clip000">
    <rect x="0" y="0" width="2400" height="1600"/>
  </clipPath>
</defs>
<path clip-path="url(#clip000)" d="M0 1600 L2400 1600 L2400 0 L0 0  Z" fill="#ffffff" fill-rule="evenodd" fill-opacity="1"/>
<defs>
  <clipPath id="clip001">
    <rect x="480" y="0" width="1681" height="1600"/>
  </clipPath>
</defs>
<path clip-path="url(#clip000)" d="M147.478 1423.18 L2352.76 1423.18 L2352.76 47.2441 L147.478 47.2441  Z" fill="#ffffff" fill-rule="evenodd" fill-opacity="1"/>
<defs>
  <clipPath id="clip002">
    <rect x="147" y="47" width="2206" height="1377"/>
  </clipPath>
</defs>
<polyline clip-path="url(#clip002)" style="stroke:#000000; stroke-linecap:round; stroke-linejoin:round; stroke-width:2; stroke-opacity:0.1; fill:none" points="147.478,1423.18 147.478,47.2441 "/>
<polyline clip-path="url(#clip002)" style="stroke:#000000; stroke-linecap:round; stroke-linejoin:round; stroke-width:2; stroke-opacity:0.1; fill:none" points="588.534,1423.18 588.534,47.2441 "/>
<polyline clip-path="url(#clip002)" style="stroke:#000000; stroke-linecap:round; stroke-linejoin:round; stroke-width:2; stroke-opacity:0.1; fill:none" points="1029.59,1423.18 1029.59,47.2441 "/>
<polyline clip-path="url(#clip002)" style="stroke:#000000; stroke-linecap:round; stroke-linejoin:round; stroke-width:2; stroke-opacity:0.1; fill:none" points="1470.64,1423.18 1470.64,47.2441 "/>
<polyline clip-path="url(#clip002)" style="stroke:#000000; stroke-linecap:round; stroke-linejoin:round; stroke-width:2; stroke-opacity:0.1; fill:none" points="1911.7,1423.18 1911.7,47.2441 "/>
<polyline clip-path="url(#clip002)" style="stroke:#000000; stroke-linecap:round; stroke-linejoin:round; stroke-width:2; stroke-opacity:0.1; fill:none" points="2352.76,1423.18 2352.76,47.2441 "/>
<polyline clip-path="url(#clip000)" style="stroke:#000000; stroke-linecap:round; stroke-linejoin:round; stroke-width:4; stroke-opacity:1; fill:none" points="147.478,1423.18 2352.76,1423.18 "/>
<polyline clip-path="url(#clip000)" style="stroke:#000000; stroke-linecap:round; stroke-linejoin:round; stroke-width:4; stroke-opacity:1; fill:none" points="147.478,1423.18 147.478,1404.28 "/>
<polyline clip-path="url(#clip000)" style="stroke:#000000; stroke-linecap:round; stroke-linejoin:round; stroke-width:4; stroke-opacity:1; fill:none" points="588.534,1423.18 588.534,1404.28 "/>
<polyline clip-path="url(#clip000)" style="stroke:#000000; stroke-linecap:round; stroke-linejoin:round; stroke-width:4; stroke-opacity:1; fill:none" points="1029.59,1423.18 1029.59,1404.28 "/>
<polyline clip-path="url(#clip000)" style="stroke:#000000; stroke-linecap:round; stroke-linejoin:round; stroke-width:4; stroke-opacity:1; fill:none" points="1470.64,1423.18 1470.64,1404.28 "/>
<polyline clip-path="url(#clip000)" style="stroke:#000000; stroke-linecap:round; stroke-linejoin:round; stroke-width:4; stroke-opacity:1; fill:none" points="1911.7,1423.18 1911.7,1404.28 "/>
<polyline clip-path="url(#clip000)" style="stroke:#000000; stroke-linecap:round; stroke-linejoin:round; stroke-width:4; stroke-opacity:1; fill:none" points="2352.76,1423.18 2352.76,1404.28 "/>
<path clip-path="url(#clip000)" d="M147.478 1454.1 Q143.867 1454.1 142.038 1457.66 Q140.233 1461.2 140.233 1468.33 Q140.233 1475.44 142.038 1479.01 Q143.867 1482.55 147.478 1482.55 Q151.112 1482.55 152.918 1479.01 Q154.746 1475.44 154.746 1468.33 Q154.746 1461.2 152.918 1457.66 Q151.112 1454.1 147.478 1454.1 M147.478 1450.39 Q153.288 1450.39 156.344 1455 Q159.422 1459.58 159.422 1468.33 Q159.422 1477.06 156.344 1481.67 Q153.288 1486.25 147.478 1486.25 Q141.668 1486.25 138.589 1481.67 Q135.534 1477.06 135.534 1468.33 Q135.534 1459.58 138.589 1455 Q141.668 1450.39 147.478 1450.39 Z" fill="#000000" fill-rule="nonzero" fill-opacity="1" /><path clip-path="url(#clip000)" d="M583.186 1481.64 L599.506 1481.64 L599.506 1485.58 L577.561 1485.58 L577.561 1481.64 Q580.223 1478.89 584.807 1474.26 Q589.413 1469.61 590.594 1468.27 Q592.839 1465.74 593.719 1464.01 Q594.621 1462.25 594.621 1460.56 Q594.621 1457.8 592.677 1456.07 Q590.756 1454.33 587.654 1454.33 Q585.455 1454.33 583.001 1455.09 Q580.571 1455.86 577.793 1457.41 L577.793 1452.69 Q580.617 1451.55 583.071 1450.97 Q585.524 1450.39 587.561 1450.39 Q592.932 1450.39 596.126 1453.08 Q599.32 1455.77 599.32 1460.26 Q599.32 1462.39 598.51 1464.31 Q597.723 1466.2 595.617 1468.8 Q595.038 1469.47 591.936 1472.69 Q588.834 1475.88 583.186 1481.64 Z" fill="#000000" fill-rule="nonzero" fill-opacity="1" /><path clip-path="url(#clip000)" d="M1032.6 1455.09 L1020.79 1473.54 L1032.6 1473.54 L1032.6 1455.09 M1031.37 1451.02 L1037.25 1451.02 L1037.25 1473.54 L1042.18 1473.54 L1042.18 1477.43 L1037.25 1477.43 L1037.25 1485.58 L1032.6 1485.58 L1032.6 1477.43 L1017 1477.43 L1017 1472.92 L1031.37 1451.02 Z" fill="#000000" fill-rule="nonzero" fill-opacity="1" /><path clip-path="url(#clip000)" d="M1471.05 1466.44 Q1467.9 1466.44 1466.05 1468.59 Q1464.22 1470.74 1464.22 1474.49 Q1464.22 1478.22 1466.05 1480.39 Q1467.9 1482.55 1471.05 1482.55 Q1474.2 1482.55 1476.03 1480.39 Q1477.88 1478.22 1477.88 1474.49 Q1477.88 1470.74 1476.03 1468.59 Q1474.2 1466.44 1471.05 1466.44 M1480.33 1451.78 L1480.33 1456.04 Q1478.57 1455.21 1476.77 1454.77 Q1474.98 1454.33 1473.23 1454.33 Q1468.6 1454.33 1466.14 1457.45 Q1463.71 1460.58 1463.36 1466.9 Q1464.73 1464.89 1466.79 1463.82 Q1468.85 1462.73 1471.33 1462.73 Q1476.54 1462.73 1479.55 1465.9 Q1482.58 1469.05 1482.58 1474.49 Q1482.58 1479.82 1479.43 1483.03 Q1476.28 1486.25 1471.05 1486.25 Q1465.05 1486.25 1461.88 1481.67 Q1458.71 1477.06 1458.71 1468.33 Q1458.71 1460.14 1462.6 1455.28 Q1466.49 1450.39 1473.04 1450.39 Q1474.8 1450.39 1476.58 1450.74 Q1478.39 1451.09 1480.33 1451.78 Z" fill="#000000" fill-rule="nonzero" fill-opacity="1" /><path clip-path="url(#clip000)" d="M1911.7 1469.17 Q1908.37 1469.17 1906.45 1470.95 Q1904.55 1472.73 1904.55 1475.86 Q1904.55 1478.98 1906.45 1480.77 Q1908.37 1482.55 1911.7 1482.55 Q1915.03 1482.55 1916.95 1480.77 Q1918.88 1478.96 1918.88 1475.86 Q1918.88 1472.73 1916.95 1470.95 Q1915.06 1469.17 1911.7 1469.17 M1907.02 1467.18 Q1904.02 1466.44 1902.33 1464.38 Q1900.66 1462.32 1900.66 1459.35 Q1900.66 1455.21 1903.6 1452.8 Q1906.56 1450.39 1911.7 1450.39 Q1916.86 1450.39 1919.8 1452.8 Q1922.74 1455.21 1922.74 1459.35 Q1922.74 1462.32 1921.05 1464.38 Q1919.39 1466.44 1916.4 1467.18 Q1919.78 1467.96 1921.65 1470.26 Q1923.55 1472.55 1923.55 1475.86 Q1923.55 1480.88 1920.47 1483.57 Q1917.42 1486.25 1911.7 1486.25 Q1905.98 1486.25 1902.9 1483.57 Q1899.85 1480.88 1899.85 1475.86 Q1899.85 1472.55 1901.75 1470.26 Q1903.64 1467.96 1907.02 1467.18 M1905.31 1459.79 Q1905.31 1462.48 1906.98 1463.98 Q1908.67 1465.49 1911.7 1465.49 Q1914.71 1465.49 1916.4 1463.98 Q1918.11 1462.48 1918.11 1459.79 Q1918.11 1457.11 1916.4 1455.6 Q1914.71 1454.1 1911.7 1454.1 Q1908.67 1454.1 1906.98 1455.6 Q1905.31 1457.11 1905.31 1459.79 Z" fill="#000000" fill-rule="nonzero" fill-opacity="1" /><path clip-path="url(#clip000)" d="M2327.44 1481.64 L2335.08 1481.64 L2335.08 1455.28 L2326.77 1456.95 L2326.77 1452.69 L2335.04 1451.02 L2339.71 1451.02 L2339.71 1481.64 L2347.35 1481.64 L2347.35 1485.58 L2327.44 1485.58 L2327.44 1481.64 Z" fill="#000000" fill-rule="nonzero" fill-opacity="1" /><path clip-path="url(#clip000)" d="M2366.8 1454.1 Q2363.18 1454.1 2361.36 1457.66 Q2359.55 1461.2 2359.55 1468.33 Q2359.55 1475.44 2361.36 1479.01 Q2363.18 1482.55 2366.8 1482.55 Q2370.43 1482.55 2372.23 1479.01 Q2374.06 1475.44 2374.06 1468.33 Q2374.06 1461.2 2372.23 1457.66 Q2370.43 1454.1 2366.8 1454.1 M2366.8 1450.39 Q2372.61 1450.39 2375.66 1455 Q2378.74 1459.58 2378.74 1468.33 Q2378.74 1477.06 2375.66 1481.67 Q2372.61 1486.25 2366.8 1486.25 Q2360.99 1486.25 2357.91 1481.67 Q2354.85 1477.06 2354.85 1468.33 Q2354.85 1459.58 2357.91 1455 Q2360.99 1450.39 2366.8 1450.39 Z" fill="#000000" fill-rule="nonzero" fill-opacity="1" /><path clip-path="url(#clip000)" d="M1249.18 1522.27 L1249.18 1532.4 L1261.24 1532.4 L1261.24 1536.95 L1249.18 1536.95 L1249.18 1556.3 Q1249.18 1560.66 1250.36 1561.9 Q1251.57 1563.14 1255.23 1563.14 L1261.24 1563.14 L1261.24 1568.04 L1255.23 1568.04 Q1248.45 1568.04 1245.87 1565.53 Q1243.29 1562.98 1243.29 1556.3 L1243.29 1536.95 L1238.99 1536.95 L1238.99 1532.4 L1243.29 1532.4 L1243.29 1522.27 L1249.18 1522.27 Z" fill="#000000" fill-rule="nonzero" fill-opacity="1" /><polyline clip-path="url(#clip002)" style="stroke:#000000; stroke-linecap:round; stroke-linejoin:round; stroke-width:2; stroke-opacity:0.1; fill:none" points="147.478,1344.75 2352.76,1344.75 "/>
<polyline clip-path="url(#clip002)" style="stroke:#000000; stroke-linecap:round; stroke-linejoin:round; stroke-width:2; stroke-opacity:0.1; fill:none" points="147.478,1106.11 2352.76,1106.11 "/>
<polyline clip-path="url(#clip002)" style="stroke:#000000; stroke-linecap:round; stroke-linejoin:round; stroke-width:2; stroke-opacity:0.1; fill:none" points="147.478,867.468 2352.76,867.468 "/>
<polyline clip-path="url(#clip002)" style="stroke:#000000; stroke-linecap:round; stroke-linejoin:round; stroke-width:2; stroke-opacity:0.1; fill:none" points="147.478,628.827 2352.76,628.827 "/>
<polyline clip-path="url(#clip002)" style="stroke:#000000; stroke-linecap:round; stroke-linejoin:round; stroke-width:2; stroke-opacity:0.1; fill:none" points="147.478,390.187 2352.76,390.187 "/>
<polyline clip-path="url(#clip002)" style="stroke:#000000; stroke-linecap:round; stroke-linejoin:round; stroke-width:2; stroke-opacity:0.1; fill:none" points="147.478,151.546 2352.76,151.546 "/>
<polyline clip-path="url(#clip000)" style="stroke:#000000; stroke-linecap:round; stroke-linejoin:round; stroke-width:4; stroke-opacity:1; fill:none" points="147.478,1423.18 147.478,47.2441 "/>
<polyline clip-path="url(#clip000)" style="stroke:#000000; stroke-linecap:round; stroke-linejoin:round; stroke-width:4; stroke-opacity:1; fill:none" points="147.478,1344.75 166.376,1344.75 "/>
<polyline clip-path="url(#clip000)" style="stroke:#000000; stroke-linecap:round; stroke-linejoin:round; stroke-width:4; stroke-opacity:1; fill:none" points="147.478,1106.11 166.376,1106.11 "/>
<polyline clip-path="url(#clip000)" style="stroke:#000000; stroke-linecap:round; stroke-linejoin:round; stroke-width:4; stroke-opacity:1; fill:none" points="147.478,867.468 166.376,867.468 "/>
<polyline clip-path="url(#clip000)" style="stroke:#000000; stroke-linecap:round; stroke-linejoin:round; stroke-width:4; stroke-opacity:1; fill:none" points="147.478,628.827 166.376,628.827 "/>
<polyline clip-path="url(#clip000)" style="stroke:#000000; stroke-linecap:round; stroke-linejoin:round; stroke-width:4; stroke-opacity:1; fill:none" points="147.478,390.187 166.376,390.187 "/>
<polyline clip-path="url(#clip000)" style="stroke:#000000; stroke-linecap:round; stroke-linejoin:round; stroke-width:4; stroke-opacity:1; fill:none" points="147.478,151.546 166.376,151.546 "/>
<path clip-path="url(#clip000)" d="M51.3625 1345.2 L81.0383 1345.2 L81.0383 1349.14 L51.3625 1349.14 L51.3625 1345.2 Z" fill="#000000" fill-rule="nonzero" fill-opacity="1" /><path clip-path="url(#clip000)" d="M95.1586 1358.09 L111.478 1358.09 L111.478 1362.03 L89.5336 1362.03 L89.5336 1358.09 Q92.1956 1355.34 96.7789 1350.71 Q101.385 1346.06 102.566 1344.71 Q104.811 1342.19 105.691 1340.45 Q106.594 1338.7 106.594 1337.01 Q106.594 1334.25 104.649 1332.51 Q102.728 1330.78 99.6261 1330.78 Q97.4271 1330.78 94.9734 1331.54 Q92.5428 1332.31 89.7651 1333.86 L89.7651 1329.14 Q92.5891 1328 95.0428 1327.42 Q97.4965 1326.84 99.5335 1326.84 Q104.904 1326.84 108.098 1329.53 Q111.293 1332.21 111.293 1336.7 Q111.293 1338.83 110.483 1340.76 Q109.696 1342.65 107.589 1345.25 Q107.01 1345.92 103.909 1349.14 Q100.807 1352.33 95.1586 1358.09 Z" fill="#000000" fill-rule="nonzero" fill-opacity="1" /><path clip-path="url(#clip000)" d="M50.9921 1106.56 L80.6679 1106.56 L80.6679 1110.49 L50.9921 1110.49 L50.9921 1106.56 Z" fill="#000000" fill-rule="nonzero" fill-opacity="1" /><path clip-path="url(#clip000)" d="M91.5706 1119.45 L99.2095 1119.45 L99.2095 1093.09 L90.8993 1094.75 L90.8993 1090.49 L99.1632 1088.83 L103.839 1088.83 L103.839 1119.45 L111.478 1119.45 L111.478 1123.39 L91.5706 1123.39 L91.5706 1119.45 Z" fill="#000000" fill-rule="nonzero" fill-opacity="1" /><path clip-path="url(#clip000)" d="M99.5335 853.266 Q95.9224 853.266 94.0937 856.831 Q92.2882 860.373 92.2882 867.502 Q92.2882 874.609 94.0937 878.173 Q95.9224 881.715 99.5335 881.715 Q103.168 881.715 104.973 878.173 Q106.802 874.609 106.802 867.502 Q106.802 860.373 104.973 856.831 Q103.168 853.266 99.5335 853.266 M99.5335 849.563 Q105.344 849.563 108.399 854.169 Q111.478 858.752 111.478 867.502 Q111.478 876.229 108.399 880.835 Q105.344 885.419 99.5335 885.419 Q93.7234 885.419 90.6447 880.835 Q87.5892 876.229 87.5892 867.502 Q87.5892 858.752 90.6447 854.169 Q93.7234 849.563 99.5335 849.563 Z" fill="#000000" fill-rule="nonzero" fill-opacity="1" /><path clip-path="url(#clip000)" d="M91.5706 642.172 L99.2095 642.172 L99.2095 615.806 L90.8993 617.473 L90.8993 613.214 L99.1632 611.547 L103.839 611.547 L103.839 642.172 L111.478 642.172 L111.478 646.107 L91.5706 646.107 L91.5706 642.172 Z" fill="#000000" fill-rule="nonzero" fill-opacity="1" /><path clip-path="url(#clip000)" d="M95.1586 403.531 L111.478 403.531 L111.478 407.467 L89.5336 407.467 L89.5336 403.531 Q92.1956 400.777 96.7789 396.147 Q101.385 391.494 102.566 390.152 Q104.811 387.629 105.691 385.893 Q106.594 384.133 106.594 382.443 Q106.594 379.689 104.649 377.953 Q102.728 376.217 99.6261 376.217 Q97.4271 376.217 94.9734 376.981 Q92.5428 377.744 89.7651 379.295 L89.7651 374.573 Q92.5891 373.439 95.0428 372.86 Q97.4965 372.282 99.5335 372.282 Q104.904 372.282 108.098 374.967 Q111.293 377.652 111.293 382.143 Q111.293 384.272 110.483 386.193 Q109.696 388.092 107.589 390.684 Q107.01 391.355 103.909 394.573 Q100.807 397.767 95.1586 403.531 Z" fill="#000000" fill-rule="nonzero" fill-opacity="1" /><path clip-path="url(#clip000)" d="M104.348 150.192 Q107.705 150.909 109.58 153.178 Q111.478 155.446 111.478 158.78 Q111.478 163.895 107.959 166.696 Q104.441 169.497 97.9595 169.497 Q95.7836 169.497 93.4688 169.057 Q91.1771 168.641 88.7234 167.784 L88.7234 163.27 Q90.6678 164.405 92.9826 164.983 Q95.2974 165.562 97.8206 165.562 Q102.219 165.562 104.51 163.826 Q106.825 162.09 106.825 158.78 Q106.825 155.724 104.672 154.011 Q102.543 152.275 98.7234 152.275 L94.6956 152.275 L94.6956 148.433 L98.9085 148.433 Q102.358 148.433 104.186 147.067 Q106.015 145.678 106.015 143.085 Q106.015 140.423 104.117 139.011 Q102.242 137.576 98.7234 137.576 Q96.8021 137.576 94.603 137.993 Q92.4039 138.41 89.7651 139.289 L89.7651 135.122 Q92.4271 134.382 94.7419 134.011 Q97.0798 133.641 99.14 133.641 Q104.464 133.641 107.566 136.072 Q110.668 138.479 110.668 142.599 Q110.668 145.47 109.024 147.46 Q107.381 149.428 104.348 150.192 Z" fill="#000000" fill-rule="nonzero" fill-opacity="1" /><polyline clip-path="url(#clip002)" style="stroke:#009af9; stroke-linecap:round; stroke-linejoin:round; stroke-width:8; stroke-opacity:1; fill:none" points="147.478,819.739 149.685,819.259 151.893,818.774 154.1,818.284 156.308,817.79 158.515,817.29 160.723,816.785 162.93,816.275 165.138,815.76 167.345,815.24 169.553,814.715 171.76,814.184 173.968,813.648 176.175,813.106 178.383,812.559 180.59,812.007 182.798,811.449 185.005,810.886 187.213,810.316 189.42,809.741 191.628,809.161 193.835,808.574 196.043,807.982 198.25,807.383 200.458,806.779 202.665,806.168 204.873,805.551 207.08,804.929 209.288,804.299 211.495,803.664 213.702,803.022 215.91,802.374 218.117,801.719 220.325,801.057 222.532,800.389 224.74,799.714 226.947,799.033 229.155,798.344 231.362,797.649 233.57,796.946 235.777,796.237 237.985,795.52 240.192,794.797 242.4,794.066 244.607,793.327 246.815,792.581 249.022,791.828 251.23,791.067 253.437,790.298 255.645,789.522 257.852,788.738 260.06,787.946 262.267,787.146 264.475,786.338 266.682,785.521 268.89,784.697 271.097,783.864 273.305,783.023 275.512,782.174 277.72,781.316 279.927,780.449 282.135,779.574 284.342,778.689 286.549,777.796 288.757,776.894 290.964,775.983 293.172,775.063 295.379,774.133 297.587,773.194 299.794,772.246 302.002,771.288 304.209,770.32 306.417,769.343 308.624,768.355 310.832,767.358 313.039,766.351 315.247,765.334 317.454,764.306 319.662,763.269 321.869,762.22 324.077,761.162 326.284,760.092 328.492,759.012 330.699,757.921 332.907,756.819 335.114,755.705 337.322,754.581 339.529,753.445 341.737,752.298 343.944,751.14 346.152,749.97 348.359,748.787 350.567,747.594 352.774,746.388 354.982,745.17 357.189,743.939 359.397,742.697 361.604,741.441 363.811,740.173 366.019,738.893 368.226,737.599 370.434,736.293 372.641,734.973 374.849,733.64 377.056,732.294 379.264,730.934 381.471,729.56 383.679,728.173 385.886,726.772 388.094,725.356 390.301,723.927 392.509,722.482 394.716,721.024 396.924,719.551 399.131,718.062 401.339,716.559 403.546,715.041 405.754,713.508 407.961,711.959 410.169,710.394 412.376,708.814 414.584,707.218 416.791,705.606 418.999,703.977 421.206,702.333 423.414,700.671 425.621,698.993 427.829,697.298 430.036,695.586 432.244,693.857 434.451,692.111 436.659,690.347 438.866,688.565 441.073,686.765 443.281,684.947 445.488,683.111 447.696,681.256 449.903,679.383 452.111,677.491 454.318,675.58 456.526,673.65 458.733,671.7 460.941,669.73 463.148,667.741 465.356,665.732 467.563,663.702 469.771,661.653 471.978,659.582 474.186,657.491 476.393,655.378 478.601,653.245 480.808,651.09 483.016,648.913 485.223,646.714 487.431,644.493 489.638,642.25 491.846,639.984 494.053,637.696 496.261,635.384 498.468,633.049 500.676,630.691 502.883,628.308 505.091,625.902 507.298,623.472 509.506,621.017 511.713,618.538 513.921,616.033 516.128,613.504 518.335,610.949 520.543,608.368 522.75,605.762 524.958,603.129 527.165,600.469 529.373,597.783 531.58,595.07 533.788,592.33 535.995,589.562 538.203,586.766 540.41,583.942 542.618,581.089 544.825,578.208 547.033,575.298 549.24,572.359 551.448,569.39 553.655,566.392 555.863,563.363 558.07,560.304 560.278,557.213 562.485,554.092 564.693,550.94 566.9,547.756 569.108,544.54 571.315,541.291 573.523,538.01 575.73,534.696 577.938,531.348 580.145,527.967 582.353,524.552 584.56,521.102 586.768,517.618 588.975,514.098 591.182,510.544 593.39,506.953 595.597,503.326 597.805,499.663 600.012,495.963 602.22,492.225 604.427,488.45 606.635,484.637 608.842,480.786 611.05,476.896 613.257,472.966 615.465,468.998 617.672,464.989 619.88,460.939 622.087,456.849 624.295,452.718 626.502,448.546 628.71,444.331 630.917,440.074 633.125,435.774 635.332,431.43 637.54,427.044 639.747,422.612 641.955,418.137 644.162,413.616 646.37,409.05 648.577,404.439 650.785,399.78 652.992,395.075 655.2,390.323 657.407,385.523 659.615,380.674 661.822,375.777 664.03,370.83 666.237,365.834 668.444,360.787 670.652,355.69 672.859,350.541 675.067,345.341 677.274,603.777 679.482,601.124 681.689,598.445 683.897,595.738 686.104,593.005 688.312,590.243 690.519,587.454 692.727,584.637 694.934,581.792 697.142,578.918 699.349,576.015 701.557,573.083 703.764,570.121 705.972,567.13 708.179,564.108 710.387,561.057 712.594,557.974 714.802,554.861 717.009,551.716 719.217,548.54 721.424,545.331 723.632,542.091 725.839,538.818 728.047,535.512 730.254,532.172 732.462,528.8 734.669,525.393 736.877,521.952 739.084,518.476 741.292,514.965 743.499,511.419 745.706,507.838 747.914,504.22 750.121,500.566 752.329,496.875 754.536,493.147 756.744,489.381 758.951,485.578 761.159,481.736 763.366,477.855 765.574,473.936 767.781,469.977 769.989,465.978 772.196,461.938 774.404,457.859 776.611,453.738 778.819,449.575 781.026,445.371 783.234,441.124 785.441,436.835 787.649,432.502 789.856,428.126 792.064,423.706 794.271,419.241 796.479,414.731 798.686,410.176 800.894,405.575 803.101,400.928 805.309,396.235 807.516,391.494 809.724,386.705 811.931,381.869 814.139,622.225 816.346,619.758 818.553,617.266 820.761,614.749 822.968,612.206 825.176,609.638 827.383,607.044 829.591,604.424 831.798,601.778 834.006,599.105 836.213,596.405 838.421,593.678 840.628,590.923 842.836,588.141 845.043,585.331 847.251,582.493 849.458,579.626 851.666,576.731 853.873,573.806 856.081,570.852 858.288,567.868 860.496,564.855 862.703,561.811 864.911,558.736 867.118,555.63 869.326,552.494 871.533,549.325 873.741,546.125 875.948,542.893 878.156,539.628 880.363,536.33 882.571,533 884.778,529.635 886.986,526.237 889.193,522.805 891.401,519.338 893.608,515.836 895.815,512.299 898.023,508.726 900.23,505.117 902.438,501.472 904.645,497.79 906.853,494.071 909.06,490.315 911.268,486.521 913.475,482.688 915.683,478.817 917.89,474.907 920.098,470.958 922.305,466.969 924.513,462.939 926.72,458.869 928.928,454.758 931.135,450.606 933.343,446.412 935.55,442.175 937.758,437.896 939.965,433.574 942.173,429.208 944.38,424.799 946.588,420.345 948.795,415.846 951.003,411.302 953.21,406.713 955.418,402.077 957.625,397.394 959.833,392.665 962.04,387.888 964.248,383.063 966.455,378.19 968.663,373.267 970.87,368.296 973.077,363.274 975.285,358.202 977.492,353.078 979.7,347.903 981.907,342.676 984.115,602.431 986.322,599.765 988.53,597.071 990.737,594.351 992.945,591.603 995.152,588.828 997.36,586.024 999.567,583.193 1001.77,580.333 1003.98,577.444 1006.19,574.526 1008.4,571.579 1010.6,568.602 1012.81,565.596 1015.02,562.559 1017.23,559.492 1019.43,556.393 1021.64,553.264 1023.85,550.103 1026.06,546.911 1028.26,543.687 1030.47,540.43 1032.68,537.14 1034.89,533.818 1037.09,530.462 1039.3,527.072 1041.51,523.648 1043.72,520.19 1045.92,516.697 1048.13,513.169 1050.34,509.605 1052.55,506.006 1054.75,502.37 1056.96,498.698 1059.17,494.989 1061.38,491.243 1063.58,487.458 1065.79,483.636 1068,479.775 1070.21,475.876 1072.41,471.937 1074.62,467.958 1076.83,463.94 1079.04,459.881 1081.24,455.781 1083.45,451.639 1085.66,447.456 1087.87,443.231 1090.07,438.963 1092.28,434.652 1094.49,430.298 1096.7,425.9 1098.9,421.457 1101.11,416.97 1103.32,412.438 1105.53,407.859 1107.73,403.235 1109.94,398.564 1112.15,393.846 1114.36,389.081 1116.56,384.267 1118.77,379.405 1120.98,374.494 1123.19,369.534 1125.39,364.524 1127.6,359.463 1129.81,354.351 1132.02,349.188 1134.22,343.973 1136.43,338.706 1138.64,333.385 1140.85,328.011 1143.05,322.584 1145.26,317.101 1147.47,311.564 1149.68,305.971 1151.88,300.322 1154.09,294.617 1156.3,288.853 1158.51,283.032 1160.71,277.153 1162.92,271.214 1165.13,265.216 1167.34,259.157 1169.54,253.037 1171.75,246.856 1173.96,240.612 1176.17,234.306 1178.37,227.936 1180.58,221.502 1182.79,215.004 1185,208.44 1187.2,201.81 1189.41,195.113 1191.62,188.349 1193.83,181.517 1196.03,174.616 1198.24,167.646 1200.45,160.605 1202.66,153.494 1204.86,146.311 1207.07,139.056 1209.28,131.728 1211.49,124.327 1213.69,116.85 1215.9,109.299 1218.11,101.671 1220.32,93.9673 1222.52,86.1857 1224.73,472.909 1226.94,468.94 1229.15,464.93 1231.35,460.88 1233.56,456.79 1235.77,452.658 1237.98,448.485 1240.18,444.27 1242.39,440.012 1244.6,435.712 1246.81,431.368 1249.01,426.981 1251.22,422.55 1253.43,418.074 1255.64,413.553 1257.84,408.986 1260.05,404.374 1262.26,399.715 1264.47,395.01 1266.67,390.257 1268.88,385.457 1271.09,380.608 1273.3,375.71 1275.5,370.764 1277.71,365.767 1279.92,360.72 1282.13,355.622 1284.33,350.474 1286.54,345.273 1288.75,340.02 1290.96,334.714 1293.16,329.355 1295.37,323.941 1297.58,318.474 1299.79,312.951 1301.99,307.373 1304.2,301.738 1306.41,296.047 1308.62,290.298 1310.82,284.492 1313.03,278.627 1315.24,272.703 1317.45,266.719 1319.65,260.675 1321.86,254.571 1324.07,248.404 1326.28,242.176 1328.48,235.885 1330.69,229.531 1332.9,223.113 1335.11,216.63 1337.31,210.082 1339.52,203.468 1341.73,196.787 1343.94,190.039 1346.14,183.224 1348.35,176.34 1350.56,169.387 1352.76,162.363 1354.97,155.27 1357.18,507.816 1359.39,504.198 1361.59,500.543 1363.8,496.852 1366.01,493.124 1368.22,489.358 1370.42,485.554 1372.63,481.711 1374.84,477.831 1377.05,473.911 1379.25,469.952 1381.46,465.952 1383.67,461.913 1385.88,457.833 1388.08,453.712 1390.29,449.55 1392.5,445.345 1394.71,441.099 1396.91,436.809 1399.12,432.477 1401.33,428.101 1403.54,423.68 1405.74,419.216 1407.95,414.706 1410.16,410.151 1412.37,405.551 1414.57,400.904 1416.78,396.21 1418.99,391.469 1421.2,386.68 1423.4,624.661 1425.61,622.219 1427.82,619.751 1430.03,617.259 1432.23,614.742 1434.44,612.199 1436.65,609.631 1438.86,607.037 1441.06,604.417 1443.27,601.771 1445.48,599.098 1447.69,596.398 1449.89,593.671 1452.1,590.917 1454.31,588.135 1456.52,585.325 1458.72,582.486 1460.93,579.619 1463.14,576.723 1465.35,573.798 1467.55,570.844 1469.76,567.86 1471.97,564.846 1474.18,561.801 1476.38,558.726 1478.59,555.62 1480.8,552.483 1483.01,549.314 1485.21,546.114 1487.42,542.881 1489.63,539.615 1491.84,536.317 1494.04,532.985 1496.25,529.62 1498.46,526.222 1500.67,522.788 1502.87,519.321 1505.08,515.818 1507.29,512.281 1509.5,688.098 1511.7,686.293 1513.91,684.471 1516.12,682.63 1518.33,680.77 1520.53,678.892 1522.74,676.995 1524.95,675.078 1527.16,673.143 1529.36,671.188 1531.57,669.213 1533.78,667.219 1535.99,665.204 1538.19,663.17 1540.4,661.114 1542.61,659.038 1544.82,656.941 1547.02,654.823 1549.23,652.684 1551.44,650.523 1553.65,648.341 1555.85,646.136 1558.06,643.91 1560.27,641.661 1562.48,639.389 1564.68,637.095 1566.89,751.123 1569.1,749.953 1571.31,748.771 1573.51,747.576 1575.72,746.37 1577.93,745.152 1580.14,743.921 1582.34,742.678 1584.55,741.422 1586.76,740.154 1588.97,738.873 1591.17,737.58 1593.38,736.273 1595.59,734.953 1597.8,733.62 1600,732.274 1602.21,730.914 1604.42,729.54 1606.63,728.153 1608.83,726.751 1611.04,725.336 1613.25,723.906 1615.46,722.462 1617.66,721.004 1619.87,719.531 1622.08,718.043 1624.29,716.54 1626.49,715.022 1628.7,713.489 1630.91,711.941 1633.12,710.376 1635.32,708.797 1637.53,707.201 1639.74,705.589 1641.95,703.961 1644.15,702.317 1646.36,700.656 1648.57,698.979 1650.78,697.284 1652.98,695.573 1655.19,693.844 1657.4,692.098 1659.61,690.334 1661.81,688.552 1664.02,686.753 1666.23,684.935 1668.44,683.1 1670.64,681.245 1672.85,679.372 1675.06,677.48 1677.27,675.569 1679.47,673.639 1681.68,671.689 1683.89,669.719 1686.1,667.73 1688.3,665.721 1690.51,663.691 1692.72,661.641 1694.93,659.57 1697.13,657.478 1699.34,655.365 1701.55,653.231 1703.76,651.076 1705.96,648.898 1708.17,646.699 1710.38,644.478 1712.59,642.234 1714.79,639.967 1717,637.678 1719.21,635.365 1721.42,633.03 1723.62,630.67 1725.83,628.287 1728.04,625.88 1730.25,623.449 1732.45,620.994 1734.66,618.513 1736.87,616.008 1739.07,613.477 1741.28,610.922 1743.49,608.34 1745.7,605.733 1747.9,603.099 1750.11,600.439 1752.32,597.752 1754.53,595.039 1756.73,592.298 1758.94,589.53 1761.15,727.1 1763.36,725.688 1765.56,724.262 1767.77,722.821 1769.98,721.366 1772.19,719.896 1774.39,718.411 1776.6,716.911 1778.81,715.396 1781.02,713.866 1783.22,712.321 1785.43,710.76 1787.64,709.183 1789.85,707.591 1792.05,705.983 1794.26,704.358 1796.47,702.717 1798.68,701.06 1800.88,699.386 1803.09,697.696 1805.3,695.988 1807.51,694.263 1809.71,692.521 1811.92,690.762 1814.13,688.985 1816.34,687.19 1818.54,685.377 1820.75,683.545 1822.96,681.696 1825.17,679.828 1827.37,677.941 1829.58,676.035 1831.79,674.11 1834,672.166 1836.2,670.202 1838.41,668.218 1840.62,666.214 1842.83,664.191 1845.03,662.147 1847.24,660.082 1849.45,657.997 1851.66,655.89 1853.86,653.763 1856.07,651.614 1858.28,649.443 1860.49,647.25 1862.69,645.036 1864.9,642.799 1867.11,640.539 1869.32,638.257 1871.52,635.952 1873.73,633.623 1875.94,631.271 1878.15,628.895 1880.35,626.495 1882.56,624.072 1884.77,621.623 1886.98,619.15 1889.18,616.652 1891.39,614.129 1893.6,611.58 1895.81,609.005 1898.01,606.405 1900.22,603.778 1902.43,601.125 1904.64,598.445 1906.84,595.738 1909.05,593.004 1911.26,590.242 1913.47,587.452 1915.67,584.634 1917.88,581.788 1920.09,578.913 1922.3,576.009 1924.5,573.076 1926.71,570.113 1928.92,567.12 1931.13,564.097 1933.33,561.044 1935.54,557.96 1937.75,554.845 1939.96,551.699 1942.16,548.521 1944.37,545.311 1946.58,542.069 1948.79,538.795 1950.99,535.487 1953.2,532.147 1955.41,528.773 1957.62,525.365 1959.82,521.923 1962.03,518.446 1964.24,514.935 1966.45,511.388 1968.65,507.806 1970.86,504.188 1973.07,500.533 1975.28,496.842 1977.48,493.113 1979.69,489.347 1981.9,485.543 1984.11,481.701 1986.31,477.82 1988.52,473.9 1990.73,469.941 1992.94,465.941 1995.14,461.902 1997.35,457.822 1999.56,660.582 2001.77,658.5 2003.97,656.398 2006.18,654.274 2008.39,652.129 2010.6,649.963 2012.8,647.775 2015.01,645.564 2017.22,643.332 2019.43,641.077 2021.63,638.799 2023.84,636.499 2026.05,634.175 2028.26,631.828 2030.46,629.458 2032.67,627.064 2034.88,624.645 2037.09,622.202 2039.29,619.735 2041.5,617.243 2043.71,614.726 2045.92,612.184 2048.12,609.616 2050.33,607.022 2052.54,604.402 2054.75,601.756 2056.95,599.083 2059.16,596.384 2061.37,593.657 2063.58,590.903 2065.78,588.121 2067.99,585.311 2070.2,582.473 2072.41,579.606 2074.61,576.71 2076.82,573.785 2079.03,570.831 2081.24,567.847 2083.44,564.833 2085.65,561.789 2087.86,558.714 2090.07,555.608 2092.27,552.471 2094.48,549.302 2096.69,546.101 2098.9,542.868 2101.1,539.602 2103.31,536.304 2105.52,532.972 2107.73,529.607 2109.93,526.208 2112.14,522.774 2114.35,519.306 2116.55,515.803 2118.76,512.265 2120.97,508.691 2123.18,505.081 2125.38,501.435 2127.59,497.752 2129.8,494.032 2132.01,490.275 2134.21,486.48 2136.42,482.647 2138.63,478.775 2140.84,474.864 2143.04,470.914 2145.25,466.924 2147.46,462.895 2149.67,458.824 2151.87,661.121 2154.08,659.045 2156.29,656.948 2158.5,654.831 2160.7,652.691 2162.91,650.531 2165.12,648.348 2167.33,646.144 2169.53,643.917 2171.74,641.668 2173.95,639.397 2176.16,637.102 2178.36,634.785 2180.57,632.444 2182.78,630.079 2184.99,627.691 2187.19,625.279 2189.4,622.843 2191.61,620.382 2193.82,617.896 2196.02,615.385 2198.23,612.849 2200.44,610.288 2202.65,607.7 2204.85,605.087 2207.06,602.447 2209.27,599.781 2211.48,597.088 2213.68,594.368 2215.89,591.621 2218.1,588.846 2220.31,586.043 2222.51,583.211 2224.72,580.352 2226.93,577.463 2229.14,574.546 2231.34,571.599 2233.55,718.054 2235.76,716.551 2237.97,715.032 2240.17,713.499 2242.38,711.95 2244.59,710.385 2246.8,708.805 2249,707.209 2251.21,705.596 2253.42,703.968 2255.63,702.323 2257.83,700.662 2260.04,698.983 2262.25,697.288 2264.46,695.576 2266.66,693.847 2268.87,692.101 2271.08,690.336 2273.29,688.555 2275.49,686.755 2277.7,684.937 2279.91,683.101 2282.12,681.246 2284.32,679.373 2286.53,677.48 2288.74,675.569 2290.95,673.639 2293.15,671.689 2295.36,669.719 2297.57,667.73 2299.78,665.721 2301.98,663.691 2304.19,661.641 2306.4,659.57 2308.61,657.479 2310.81,655.366 2313.02,653.233 2315.23,651.077 2317.44,648.9 2319.64,646.701 2321.85,644.48 2324.06,642.237 2326.27,639.971 2328.47,637.682 2330.68,635.371 2332.89,633.035 2335.1,630.677 2337.3,628.295 2339.51,625.888 2341.72,623.458 2343.93,621.003 2346.13,618.523 2348.34,616.019 2350.55,613.489 2352.76,610.934 "/>
<polyline clip-path="url(#clip002)" style="stroke:#e26f46; stroke-linecap:round; stroke-linejoin:round; stroke-width:8; stroke-opacity:1; fill:none" points="147.478,1342.54 149.685,1342.06 151.893,1341.57 154.1,1341.08 156.308,1340.59 158.515,1340.09 160.723,1339.58 162.93,1339.07 165.138,1338.56 167.345,1338.04 169.553,1337.51 171.76,1336.98 173.968,1336.45 176.175,1335.9 178.383,1335.36 180.59,1334.81 182.798,1334.25 185.005,1333.68 187.213,1333.11 189.42,1332.54 191.628,1331.96 193.835,1331.37 196.043,1330.78 198.25,1330.18 200.458,1329.58 202.665,1328.97 204.873,1328.35 207.08,1327.73 209.288,1327.1 211.495,1326.46 213.702,1325.82 215.91,1325.17 218.117,1324.52 220.325,1323.86 222.532,1323.19 224.74,1322.51 226.947,1321.83 229.155,1321.14 231.362,1320.45 233.57,1319.74 235.777,1319.04 237.985,1318.32 240.192,1317.59 242.4,1316.86 244.607,1316.13 246.815,1315.38 249.022,1314.63 251.23,1313.86 253.437,1313.1 255.645,1312.32 257.852,1311.54 260.06,1310.74 262.267,1309.94 264.475,1309.14 266.682,1308.32 268.89,1307.5 271.097,1306.66 273.305,1305.82 275.512,1304.97 277.72,1304.11 279.927,1303.25 282.135,1302.37 284.342,1301.49 286.549,1300.59 288.757,1299.69 290.964,1298.78 293.172,1297.86 295.379,1296.93 297.587,1295.99 299.794,1295.04 302.002,1294.09 304.209,1293.12 306.417,1292.14 308.624,1291.15 310.832,1290.16 313.039,1289.15 315.247,1288.13 317.454,1287.1 319.662,1286.07 321.869,1285.02 324.077,1283.96 326.284,1282.89 328.492,1281.81 330.699,1280.72 332.907,1279.62 335.114,1278.5 337.322,1277.38 339.529,1276.24 341.737,1275.1 343.944,1273.94 346.152,1272.77 348.359,1271.59 350.567,1270.39 352.774,1269.19 354.982,1267.97 357.189,1266.74 359.397,1265.49 361.604,1264.24 363.811,1262.97 366.019,1261.69 368.226,1260.4 370.434,1259.09 372.641,1257.77 374.849,1256.44 377.056,1255.09 379.264,1253.73 381.471,1252.36 383.679,1250.97 385.886,1249.57 388.094,1248.15 390.301,1246.72 392.509,1245.28 394.716,1243.82 396.924,1242.35 399.131,1240.86 401.339,1239.36 403.546,1237.84 405.754,1236.31 407.961,1234.76 410.169,1233.19 412.376,1231.61 414.584,1230.02 416.791,1228.4 418.999,1226.78 421.206,1225.13 423.414,1223.47 425.621,1221.79 427.829,1220.1 430.036,1218.38 432.244,1216.66 434.451,1214.91 436.659,1213.14 438.866,1211.36 441.073,1209.56 443.281,1207.75 445.488,1205.91 447.696,1204.05 449.903,1202.18 452.111,1200.29 454.318,1198.38 456.526,1196.45 458.733,1194.5 460.941,1192.53 463.148,1190.54 465.356,1188.53 467.563,1186.5 469.771,1184.45 471.978,1182.38 474.186,1180.29 476.393,1178.18 478.601,1176.04 480.808,1173.89 483.016,1171.71 485.223,1169.51 487.431,1167.29 489.638,1165.05 491.846,1162.78 494.053,1160.49 496.261,1158.18 498.468,1155.85 500.676,1153.49 502.883,1151.11 505.091,1148.7 507.298,1146.27 509.506,1143.82 511.713,1141.34 513.921,1138.83 516.128,1136.3 518.335,1133.75 520.543,1131.17 522.75,1128.56 524.958,1125.93 527.165,1123.27 529.373,1120.58 531.58,1117.87 533.788,1115.13 535.995,1112.36 538.203,1109.56 540.41,1106.74 542.618,1103.89 544.825,1101.01 547.033,1098.1 549.24,1095.16 551.448,1092.19 553.655,1089.19 555.863,1086.16 558.07,1083.1 560.278,1080.01 562.485,1076.89 564.693,1073.74 566.9,1070.55 569.108,1067.34 571.315,1064.09 573.523,1060.81 575.73,1057.49 577.938,1054.15 580.145,1050.77 582.353,1047.35 584.56,1043.9 586.768,1040.42 588.975,1036.9 591.182,1033.34 593.39,1029.75 595.597,1026.12 597.805,1022.46 600.012,1018.76 602.22,1015.02 604.427,1011.25 606.635,1007.44 608.842,1003.58 611.05,999.694 613.257,995.765 615.465,991.796 617.672,987.787 619.88,983.738 622.087,979.648 624.295,975.516 626.502,971.344 628.71,967.129 630.917,962.872 633.125,958.572 635.332,954.229 637.54,949.842 639.747,945.411 641.955,940.935 644.162,936.414 646.37,931.848 648.577,927.237 650.785,922.578 652.992,917.873 655.2,913.121 657.407,908.321 659.615,903.472 661.822,898.575 664.03,893.628 666.237,888.632 668.444,883.586 670.652,878.488 672.859,873.34 675.067,868.139 677.274,1091.13 679.482,1088.47 681.689,1085.79 683.897,1083.09 686.104,1080.35 688.312,1077.59 690.519,1074.8 692.727,1071.99 694.934,1069.14 697.142,1066.27 699.349,1063.36 701.557,1060.43 703.764,1057.47 705.972,1054.48 708.179,1051.46 710.387,1048.41 712.594,1045.32 714.802,1042.21 717.009,1039.07 719.217,1035.89 721.424,1032.68 723.632,1029.44 725.839,1026.17 728.047,1022.86 730.254,1019.52 732.462,1016.15 734.669,1012.74 736.877,1009.3 739.084,1005.83 741.292,1002.32 743.499,998.769 745.706,995.188 747.914,991.57 750.121,987.916 752.329,984.225 754.536,980.497 756.744,976.731 758.951,972.928 761.159,969.086 763.366,965.205 765.574,961.286 767.781,957.326 769.989,953.328 772.196,949.288 774.404,945.208 776.611,941.088 778.819,936.925 781.026,932.721 783.234,928.474 785.441,924.185 787.649,919.852 789.856,915.476 792.064,911.056 794.271,906.591 796.479,902.081 798.686,897.526 800.894,892.925 803.101,888.278 805.309,883.585 807.516,878.844 809.724,874.055 811.931,869.219 814.139,1148.14 816.346,1145.67 818.553,1143.18 820.761,1140.66 822.968,1138.12 825.176,1135.55 827.383,1132.96 829.591,1130.34 831.798,1127.69 834.006,1125.02 836.213,1122.32 838.421,1119.59 840.628,1116.83 842.836,1114.05 845.043,1111.24 847.251,1108.4 849.458,1105.54 851.666,1102.64 853.873,1099.72 856.081,1096.76 858.288,1093.78 860.496,1090.77 862.703,1087.72 864.911,1084.65 867.118,1081.54 869.326,1078.41 871.533,1075.24 873.741,1072.04 875.948,1068.8 878.156,1065.54 880.363,1062.24 882.571,1058.91 884.778,1055.55 886.986,1052.15 889.193,1048.72 891.401,1045.25 893.608,1041.75 895.815,1038.21 898.023,1034.64 900.23,1031.03 902.438,1027.38 904.645,1023.7 906.853,1019.98 909.06,1016.23 911.268,1012.43 913.475,1008.6 915.683,1004.73 917.89,1000.82 920.098,996.869 922.305,992.88 924.513,988.851 926.72,984.781 928.928,980.67 931.135,976.517 933.343,972.323 935.55,968.087 937.758,963.808 939.965,959.486 942.173,955.12 944.38,950.71 946.588,946.256 948.795,941.758 951.003,937.214 953.21,932.624 955.418,927.988 957.625,923.306 959.833,918.576 962.04,913.799 964.248,908.975 966.455,904.101 968.663,899.179 970.87,894.207 973.077,889.185 975.285,884.113 977.492,878.99 979.7,873.815 981.907,868.588 984.115,1384.24 986.322,1381.57 988.53,1378.88 990.737,1376.16 992.945,1373.41 995.152,1370.63 997.36,1367.83 999.567,1365 1001.77,1362.14 1003.98,1359.25 1006.19,1356.33 1008.4,1353.39 1010.6,1350.41 1012.81,1347.4 1015.02,1344.37 1017.23,1341.3 1019.43,1338.2 1021.64,1335.07 1023.85,1331.91 1026.06,1328.72 1028.26,1325.49 1030.47,1322.24 1032.68,1318.95 1034.89,1315.62 1037.09,1312.27 1039.3,1308.88 1041.51,1305.46 1043.72,1302 1045.92,1298.5 1048.13,1294.98 1050.34,1291.41 1052.55,1287.81 1054.75,1284.18 1056.96,1280.51 1059.17,1276.8 1061.38,1273.05 1063.58,1269.27 1065.79,1265.44 1068,1261.58 1070.21,1257.68 1072.41,1253.74 1074.62,1249.77 1076.83,1245.75 1079.04,1241.69 1081.24,1237.59 1083.45,1233.45 1085.66,1229.26 1087.87,1225.04 1090.07,1220.77 1092.28,1216.46 1094.49,1212.11 1096.7,1207.71 1098.9,1203.26 1101.11,1198.78 1103.32,1194.24 1105.53,1189.67 1107.73,1185.04 1109.94,1180.37 1112.15,1175.65 1114.36,1170.89 1116.56,1166.07 1118.77,1161.21 1120.98,1156.3 1123.19,1151.34 1125.39,1146.33 1127.6,1141.27 1129.81,1136.16 1132.02,1131 1134.22,1125.78 1136.43,1120.51 1138.64,1115.19 1140.85,1109.82 1143.05,1104.39 1145.26,1098.91 1147.47,1093.37 1149.68,1087.78 1151.88,1082.13 1154.09,1076.42 1156.3,1070.66 1158.51,1064.84 1160.71,1058.96 1162.92,1053.02 1165.13,1047.02 1167.34,1040.96 1169.54,1034.84 1171.75,1028.66 1173.96,1022.42 1176.17,1016.11 1178.37,1009.74 1180.58,1003.31 1182.79,996.811 1185,990.247 1187.2,983.617 1189.41,976.92 1191.62,970.156 1193.83,963.324 1196.03,956.423 1198.24,949.453 1200.45,942.413 1202.66,935.301 1204.86,928.119 1207.07,920.864 1209.28,913.535 1211.49,906.134 1213.69,898.657 1215.9,891.106 1218.11,883.479 1220.32,875.774 1222.52,867.993 1224.73,1190.85 1226.94,1186.88 1229.15,1182.87 1231.35,1178.82 1233.56,1174.73 1235.77,1170.59 1237.98,1166.42 1240.18,1162.21 1242.39,1157.95 1244.6,1153.65 1246.81,1149.3 1249.01,1144.92 1251.22,1140.49 1253.43,1136.01 1255.64,1131.49 1257.84,1126.92 1260.05,1122.31 1262.26,1117.65 1264.47,1112.95 1266.67,1108.19 1268.88,1103.39 1271.09,1098.54 1273.3,1093.65 1275.5,1088.7 1277.71,1083.7 1279.92,1078.66 1282.13,1073.56 1284.33,1068.41 1286.54,1063.21 1288.75,1057.96 1290.96,1052.65 1293.16,1047.29 1295.37,1041.88 1297.58,1036.41 1299.79,1030.89 1301.99,1025.31 1304.2,1019.67 1306.41,1013.98 1308.62,1008.23 1310.82,1002.43 1313.03,996.564 1315.24,990.64 1317.45,984.656 1319.65,978.612 1321.86,972.507 1324.07,966.341 1326.28,960.113 1328.48,953.822 1330.69,947.468 1332.9,941.049 1335.11,934.567 1337.31,928.018 1339.52,921.404 1341.73,914.724 1343.94,907.976 1346.14,901.161 1348.35,894.277 1350.56,887.323 1352.76,880.3 1354.97,873.206 1357.18,991.952 1359.39,988.333 1361.59,984.679 1363.8,980.987 1366.01,977.259 1368.22,973.493 1370.42,969.689 1372.63,965.847 1374.84,961.966 1377.05,958.046 1379.25,954.087 1381.46,950.088 1383.67,946.048 1385.88,941.968 1388.08,937.847 1390.29,933.685 1392.5,929.481 1394.71,925.234 1396.91,920.945 1399.12,916.612 1401.33,912.236 1403.54,907.816 1405.74,903.351 1407.95,898.842 1410.16,894.287 1412.37,889.686 1414.57,885.039 1416.78,880.345 1418.99,875.604 1421.2,870.815 1423.4,982.962 1425.61,980.519 1427.82,978.052 1430.03,975.559 1432.23,973.042 1434.44,970.5 1436.65,967.932 1438.86,965.338 1441.06,962.718 1443.27,960.071 1445.48,957.398 1447.69,954.699 1449.89,951.972 1452.1,949.217 1454.31,946.435 1456.52,943.625 1458.72,940.786 1460.93,937.919 1463.14,935.024 1465.35,932.099 1467.55,929.144 1469.76,926.16 1471.97,923.146 1474.18,920.102 1476.38,917.027 1478.59,913.921 1480.8,910.783 1483.01,907.615 1485.21,904.414 1487.42,901.181 1489.63,897.916 1491.84,894.617 1494.04,891.286 1496.25,887.921 1498.46,884.522 1500.67,881.089 1502.87,877.621 1505.08,874.119 1507.29,870.581 1509.5,918.866 1511.7,917.061 1513.91,915.239 1516.12,913.398 1518.33,911.538 1520.53,909.66 1522.74,907.763 1524.95,905.847 1527.16,903.911 1529.36,901.956 1531.57,899.981 1533.78,897.987 1535.99,895.972 1538.19,893.938 1540.4,891.882 1542.61,889.806 1544.82,887.71 1547.02,885.592 1549.23,883.452 1551.44,881.292 1553.65,879.109 1555.85,876.905 1558.06,874.678 1560.27,872.429 1562.48,870.157 1564.68,867.863 1566.89,1030.68 1569.1,1029.51 1571.31,1028.33 1573.51,1027.14 1575.72,1025.93 1577.93,1024.71 1580.14,1023.48 1582.34,1022.24 1584.55,1020.98 1586.76,1019.71 1588.97,1018.43 1591.17,1017.14 1593.38,1015.83 1595.59,1014.51 1597.8,1013.18 1600,1011.83 1602.21,1010.47 1604.42,1009.1 1606.63,1007.71 1608.83,1006.31 1611.04,1004.9 1613.25,1003.47 1615.46,1002.02 1617.66,1000.56 1619.87,999.09 1622.08,997.602 1624.29,996.099 1626.49,994.581 1628.7,993.048 1630.91,991.5 1633.12,989.936 1635.32,988.356 1637.53,986.76 1639.74,985.148 1641.95,983.52 1644.15,981.876 1646.36,980.215 1648.57,978.538 1650.78,976.843 1652.98,975.132 1655.19,973.403 1657.4,971.657 1659.61,969.893 1661.81,968.112 1664.02,966.312 1666.23,964.495 1668.44,962.659 1670.64,960.804 1672.85,958.931 1675.06,957.039 1677.27,955.128 1679.47,953.198 1681.68,951.248 1683.89,949.279 1686.1,947.289 1688.3,945.28 1690.51,943.25 1692.72,941.2 1694.93,939.129 1697.13,937.038 1699.34,934.925 1701.55,932.791 1703.76,930.635 1705.96,928.458 1708.17,926.258 1710.38,924.037 1712.59,921.793 1714.79,919.526 1717,917.237 1719.21,914.925 1721.42,912.589 1723.62,910.23 1725.83,907.847 1728.04,905.44 1730.25,903.008 1732.45,900.553 1734.66,898.072 1736.87,895.567 1739.07,893.037 1741.28,890.481 1743.49,887.899 1745.7,885.292 1747.9,882.658 1750.11,879.998 1752.32,877.312 1754.53,874.598 1756.73,871.857 1758.94,869.089 1761.15,1137.78 1763.36,1136.37 1765.56,1134.95 1767.77,1133.5 1769.98,1132.05 1772.19,1130.58 1774.39,1129.09 1776.6,1127.59 1778.81,1126.08 1781.02,1124.55 1783.22,1123 1785.43,1121.44 1787.64,1119.87 1789.85,1118.27 1792.05,1116.67 1794.26,1115.04 1796.47,1113.4 1798.68,1111.74 1800.88,1110.07 1803.09,1108.38 1805.3,1106.67 1807.51,1104.95 1809.71,1103.2 1811.92,1101.45 1814.13,1099.67 1816.34,1097.87 1818.54,1096.06 1820.75,1094.23 1822.96,1092.38 1825.17,1090.51 1827.37,1088.62 1829.58,1086.72 1831.79,1084.79 1834,1082.85 1836.2,1080.89 1838.41,1078.9 1840.62,1076.9 1842.83,1074.87 1845.03,1072.83 1847.24,1070.77 1849.45,1068.68 1851.66,1066.57 1853.86,1064.45 1856.07,1062.3 1858.28,1060.13 1860.49,1057.93 1862.69,1055.72 1864.9,1053.48 1867.11,1051.22 1869.32,1048.94 1871.52,1046.64 1873.73,1044.31 1875.94,1041.95 1878.15,1039.58 1880.35,1037.18 1882.56,1034.76 1884.77,1032.31 1886.98,1029.83 1889.18,1027.34 1891.39,1024.81 1893.6,1022.26 1895.81,1019.69 1898.01,1017.09 1900.22,1014.46 1902.43,1011.81 1904.64,1009.13 1906.84,1006.42 1909.05,1003.69 1911.26,1000.93 1913.47,998.136 1915.67,995.318 1917.88,992.471 1920.09,989.596 1922.3,986.692 1924.5,983.759 1926.71,980.796 1928.92,977.804 1931.13,974.781 1933.33,971.728 1935.54,968.644 1937.75,965.529 1939.96,962.383 1942.16,959.205 1944.37,955.995 1946.58,952.753 1948.79,949.478 1950.99,946.171 1953.2,942.83 1955.41,939.456 1957.62,936.048 1959.82,932.606 1962.03,929.13 1964.24,925.619 1966.45,922.072 1968.65,918.49 1970.86,914.871 1973.07,911.217 1975.28,907.525 1977.48,903.797 1979.69,900.031 1981.9,896.227 1984.11,892.384 1986.31,888.503 1988.52,884.583 1990.73,880.624 1992.94,876.625 1995.14,872.585 1997.35,868.505 1999.56,1071.4 2001.77,1069.32 2003.97,1067.21 2006.18,1065.09 2008.39,1062.94 2010.6,1060.78 2012.8,1058.59 2015.01,1056.38 2017.22,1054.15 2019.43,1051.89 2021.63,1049.61 2023.84,1047.31 2026.05,1044.99 2028.26,1042.64 2030.46,1040.27 2032.67,1037.88 2034.88,1035.46 2037.09,1033.02 2039.29,1030.55 2041.5,1028.06 2043.71,1025.54 2045.92,1023 2048.12,1020.43 2050.33,1017.84 2052.54,1015.22 2054.75,1012.57 2056.95,1009.9 2059.16,1007.2 2061.37,1004.47 2063.58,1001.72 2065.78,998.936 2067.99,996.126 2070.2,993.288 2072.41,990.421 2074.61,987.525 2076.82,984.6 2079.03,981.646 2081.24,978.662 2083.44,975.648 2085.65,972.604 2087.86,969.529 2090.07,966.423 2092.27,963.286 2094.48,960.117 2096.69,956.916 2098.9,953.683 2101.1,950.417 2103.31,947.119 2105.52,943.787 2107.73,940.422 2109.93,937.023 2112.14,933.589 2114.35,930.121 2116.55,926.618 2118.76,923.08 2120.97,919.506 2123.18,915.896 2125.38,912.25 2127.59,908.567 2129.8,904.847 2132.01,901.09 2134.21,897.295 2136.42,893.462 2138.63,889.59 2140.84,885.679 2143.04,881.729 2145.25,877.739 2147.46,873.71 2149.67,869.639 2151.87,958.49 2154.08,956.414 2156.29,954.317 2158.5,952.199 2160.7,950.06 2162.91,947.899 2165.12,945.717 2167.33,943.513 2169.53,941.286 2171.74,939.037 2173.95,936.765 2176.16,934.471 2178.36,932.153 2180.57,929.813 2182.78,927.448 2184.99,925.06 2187.19,922.648 2189.4,920.211 2191.61,917.75 2193.82,915.265 2196.02,912.754 2198.23,910.218 2200.44,907.657 2202.65,905.069 2204.85,902.456 2207.06,899.816 2209.27,897.15 2211.48,894.457 2213.68,891.737 2215.89,888.99 2218.1,886.214 2220.31,883.411 2222.51,880.58 2224.72,877.72 2226.93,874.832 2229.14,871.914 2231.34,868.967 2233.55,977.056 2235.76,975.553 2237.97,974.034 2240.17,972.501 2242.38,970.952 2244.59,969.387 2246.8,967.807 2249,966.211 2251.21,964.598 2253.42,962.97 2255.63,961.325 2257.83,959.664 2260.04,957.986 2262.25,956.291 2264.46,954.579 2266.66,952.849 2268.87,951.103 2271.08,949.339 2273.29,947.557 2275.49,945.757 2277.7,943.939 2279.91,942.103 2282.12,940.248 2284.32,938.375 2286.53,936.482 2288.74,934.571 2290.95,932.641 2293.15,930.691 2295.36,928.721 2297.57,926.732 2299.78,924.723 2301.98,922.693 2304.19,920.643 2306.4,918.572 2308.61,916.481 2310.81,914.368 2313.02,912.235 2315.23,910.079 2317.44,907.902 2319.64,905.704 2321.85,903.483 2324.06,901.239 2326.27,898.973 2328.47,896.684 2330.68,894.373 2332.89,892.038 2335.1,889.679 2337.3,887.297 2339.51,884.89 2341.72,882.46 2343.93,880.005 2346.13,877.525 2348.34,875.021 2350.55,872.491 2352.76,869.936 "/>
<path clip-path="url(#clip000)" d="M1969.62 248.629 L2279.25 248.629 L2279.25 93.1086 L1969.62 93.1086  Z" fill="#ffffff" fill-rule="evenodd" fill-opacity="1"/>
<polyline clip-path="url(#clip000)" style="stroke:#000000; stroke-linecap:round; stroke-linejoin:round; stroke-width:4; stroke-opacity:1; fill:none" points="1969.62,248.629 2279.25,248.629 2279.25,93.1086 1969.62,93.1086 1969.62,248.629 "/>
<polyline clip-path="url(#clip000)" style="stroke:#009af9; stroke-linecap:round; stroke-linejoin:round; stroke-width:8; stroke-opacity:1; fill:none" points="1994.13,144.949 2141.14,144.949 "/>
<path clip-path="url(#clip000)" d="M2165.65 151.997 L2165.65 136.303 L2169.91 136.303 L2169.91 151.835 Q2169.91 155.516 2171.34 157.368 Q2172.78 159.196 2175.65 159.196 Q2179.1 159.196 2181.09 156.997 Q2183.1 154.798 2183.1 151.002 L2183.1 136.303 L2187.36 136.303 L2187.36 162.229 L2183.1 162.229 L2183.1 158.247 Q2181.55 160.608 2179.49 161.766 Q2177.45 162.9 2174.74 162.9 Q2170.28 162.9 2167.96 160.122 Q2165.65 157.344 2165.65 151.997 M2176.36 135.678 L2176.36 135.678 Z" fill="#000000" fill-rule="nonzero" fill-opacity="1" /><path clip-path="url(#clip000)" d="M2195.74 126.21 L2205.55 126.21 L2205.55 129.52 L2200 129.52 L2200 165.168 L2205.55 165.168 L2205.55 168.479 L2195.74 168.479 L2195.74 126.21 Z" fill="#000000" fill-rule="nonzero" fill-opacity="1" /><path clip-path="url(#clip000)" d="M2216.04 158.293 L2223.68 158.293 L2223.68 131.928 L2215.37 133.595 L2215.37 129.335 L2223.63 127.669 L2228.31 127.669 L2228.31 158.293 L2235.95 158.293 L2235.95 162.229 L2216.04 162.229 L2216.04 158.293 Z" fill="#000000" fill-rule="nonzero" fill-opacity="1" /><path clip-path="url(#clip000)" d="M2254.74 126.21 L2254.74 168.479 L2244.93 168.479 L2244.93 165.168 L2250.46 165.168 L2250.46 129.52 L2244.93 129.52 L2244.93 126.21 L2254.74 126.21 Z" fill="#000000" fill-rule="nonzero" fill-opacity="1" /><polyline clip-path="url(#clip000)" style="stroke:#e26f46; stroke-linecap:round; stroke-linejoin:round; stroke-width:8; stroke-opacity:1; fill:none" points="1994.13,196.789 2141.14,196.789 "/>
<path clip-path="url(#clip000)" d="M2165.65 203.837 L2165.65 188.143 L2169.91 188.143 L2169.91 203.675 Q2169.91 207.356 2171.34 209.208 Q2172.78 211.036 2175.65 211.036 Q2179.1 211.036 2181.09 208.837 Q2183.1 206.638 2183.1 202.842 L2183.1 188.143 L2187.36 188.143 L2187.36 214.069 L2183.1 214.069 L2183.1 210.087 Q2181.55 212.448 2179.49 213.606 Q2177.45 214.74 2174.74 214.74 Q2170.28 214.74 2167.96 211.962 Q2165.65 209.184 2165.65 203.837 M2176.36 187.518 L2176.36 187.518 Z" fill="#000000" fill-rule="nonzero" fill-opacity="1" /><path clip-path="url(#clip000)" d="M2195.74 178.05 L2205.55 178.05 L2205.55 181.36 L2200 181.36 L2200 217.008 L2205.55 217.008 L2205.55 220.319 L2195.74 220.319 L2195.74 178.05 Z" fill="#000000" fill-rule="nonzero" fill-opacity="1" /><path clip-path="url(#clip000)" d="M2219.26 210.133 L2235.58 210.133 L2235.58 214.069 L2213.63 214.069 L2213.63 210.133 Q2216.29 207.379 2220.88 202.749 Q2225.48 198.096 2226.66 196.754 Q2228.91 194.231 2229.79 192.495 Q2230.69 190.735 2230.69 189.046 Q2230.69 186.291 2228.75 184.555 Q2226.83 182.819 2223.73 182.819 Q2221.53 182.819 2219.07 183.583 Q2216.64 184.347 2213.86 185.897 L2213.86 181.175 Q2216.69 180.041 2219.14 179.462 Q2221.6 178.884 2223.63 178.884 Q2229 178.884 2232.2 181.569 Q2235.39 184.254 2235.39 188.745 Q2235.39 190.874 2234.58 192.796 Q2233.79 194.694 2231.69 197.286 Q2231.11 197.958 2228.01 201.175 Q2224.91 204.37 2219.26 210.133 Z" fill="#000000" fill-rule="nonzero" fill-opacity="1" /><path clip-path="url(#clip000)" d="M2254.74 178.05 L2254.74 220.319 L2244.93 220.319 L2244.93 217.008 L2250.46 217.008 L2250.46 181.36 L2244.93 181.36 L2244.93 178.05 L2254.74 178.05 Z" fill="#000000" fill-rule="nonzero" fill-opacity="1" /></svg>
