<?xml version="1.0" encoding="utf-8"?>
<svg xmlns="http://www.w3.org/2000/svg" xmlns:xlink="http://www.w3.org/1999/xlink" width="600" height="400" viewBox="0 0 2400 1600">
<defs>
  <clipPath id="clip320">
    <rect x="0" y="0" width="2400" height="1600"/>
  </clipPath>
</defs>
<path clip-path="url(#clip320)" d="M0 1600 L2400 1600 L2400 0 L0 0  Z" fill="#ffffff" fill-rule="evenodd" fill-opacity="1"/>
<defs>
  <clipPath id="clip321">
    <rect x="480" y="0" width="1681" height="1600"/>
  </clipPath>
</defs>
<path clip-path="url(#clip320)" d="M147.478 1423.18 L2352.76 1423.18 L2352.76 47.2441 L147.478 47.2441  Z" fill="#ffffff" fill-rule="evenodd" fill-opacity="1"/>
<defs>
  <clipPath id="clip322">
    <rect x="147" y="47" width="2206" height="1377"/>
  </clipPath>
</defs>
<polyline clip-path="url(#clip322)" style="stroke:#000000; stroke-linecap:round; stroke-linejoin:round; stroke-width:2; stroke-opacity:0.1; fill:none" points="147.478,1423.18 147.478,47.2441 "/>
<polyline clip-path="url(#clip322)" style="stroke:#000000; stroke-linecap:round; stroke-linejoin:round; stroke-width:2; stroke-opacity:0.1; fill:none" points="588.534,1423.18 588.534,47.2441 "/>
<polyline clip-path="url(#clip322)" style="stroke:#000000; stroke-linecap:round; stroke-linejoin:round; stroke-width:2; stroke-opacity:0.1; fill:none" points="1029.59,1423.18 1029.59,47.2441 "/>
<polyline clip-path="url(#clip322)" style="stroke:#000000; stroke-linecap:round; stroke-linejoin:round; stroke-width:2; stroke-opacity:0.1; fill:none" points="1470.64,1423.18 1470.64,47.2441 "/>
<polyline clip-path="url(#clip322)" style="stroke:#000000; stroke-linecap:round; stroke-linejoin:round; stroke-width:2; stroke-opacity:0.1; fill:none" points="1911.7,1423.18 1911.7,47.2441 "/>
<polyline clip-path="url(#clip322)" style="stroke:#000000; stroke-linecap:round; stroke-linejoin:round; stroke-width:2; stroke-opacity:0.1; fill:none" points="2352.76,1423.18 2352.76,47.2441 "/>
<polyline clip-path="url(#clip320)" style="stroke:#000000; stroke-linecap:round; stroke-linejoin:round; stroke-width:4; stroke-opacity:1; fill:none" points="147.478,1423.18 2352.76,1423.18 "/>
<polyline clip-path="url(#clip320)" style="stroke:#000000; stroke-linecap:round; stroke-linejoin:round; stroke-width:4; stroke-opacity:1; fill:none" points="147.478,1423.18 147.478,1404.28 "/>
<polyline clip-path="url(#clip320)" style="stroke:#000000; stroke-linecap:round; stroke-linejoin:round; stroke-width:4; stroke-opacity:1; fill:none" points="588.534,1423.18 588.534,1404.28 "/>
<polyline clip-path="url(#clip320)" style="stroke:#000000; stroke-linecap:round; stroke-linejoin:round; stroke-width:4; stroke-opacity:1; fill:none" points="1029.59,1423.18 1029.59,1404.28 "/>
<polyline clip-path="url(#clip320)" style="stroke:#000000; stroke-linecap:round; stroke-linejoin:round; stroke-width:4; stroke-opacity:1; fill:none" points="1470.64,1423.18 1470.64,1404.28 "/>
<polyline clip-path="url(#clip320)" style="stroke:#000000; stroke-linecap:round; stroke-linejoin:round; stroke-width:4; stroke-opacity:1; fill:none" points="1911.7,1423.18 1911.7,1404.28 "/>
<polyline clip-path="url(#clip320)" style="stroke:#000000; stroke-linecap:round; stroke-linejoin:round; stroke-width:4; stroke-opacity:1; fill:none" points="2352.76,1423.18 2352.76,1404.28 "/>
<path clip-path="url(#clip320)" d="M147.478 1454.1 Q143.867 1454.1 142.038 1457.66 Q140.233 1461.2 140.233 1468.33 Q140.233 1475.44 142.038 1479.01 Q143.867 1482.55 147.478 1482.55 Q151.112 1482.55 152.918 1479.01 Q154.746 1475.44 154.746 1468.33 Q154.746 1461.2 152.918 1457.66 Q151.112 1454.1 147.478 1454.1 M147.478 1450.39 Q153.288 1450.39 156.344 1455 Q159.422 1459.58 159.422 1468.33 Q159.422 1477.06 156.344 1481.67 Q153.288 1486.25 147.478 1486.25 Q141.668 1486.25 138.589 1481.67 Q135.534 1477.06 135.534 1468.33 Q135.534 1459.58 138.589 1455 Q141.668 1450.39 147.478 1450.39 Z" fill="#000000" fill-rule="nonzero" fill-opacity="1" /><path clip-path="url(#clip320)" d="M583.186 1481.64 L599.506 1481.64 L599.506 1485.58 L577.561 1485.58 L577.561 1481.64 Q580.223 1478.89 584.807 1474.26 Q589.413 1469.61 590.594 1468.27 Q592.839 1465.74 593.719 1464.01 Q594.621 1462.25 594.621 1460.56 Q594.621 1457.8 592.677 1456.07 Q590.756 1454.33 587.654 1454.33 Q585.455 1454.33 583.001 1455.09 Q580.571 1455.86 577.793 1457.41 L577.793 1452.69 Q580.617 1451.55 583.071 1450.97 Q585.524 1450.39 587.561 1450.39 Q592.932 1450.39 596.126 1453.08 Q599.32 1455.77 599.32 1460.26 Q599.32 1462.39 598.51 1464.31 Q597.723 1466.2 595.617 1468.8 Q595.038 1469.47 591.936 1472.69 Q588.834 1475.88 583.186 1481.64 Z" fill="#000000" fill-rule="nonzero" fill-opacity="1" /><path clip-path="url(#clip320)" d="M1032.6 1455.09 L1020.79 1473.54 L1032.6 1473.54 L1032.6 1455.09 M1031.37 1451.02 L1037.25 1451.02 L1037.25 1473.54 L1042.18 1473.54 L1042.18 1477.43 L1037.25 1477.43 L1037.25 1485.58 L1032.6 1485.58 L1032.6 1477.43 L1017 1477.43 L1017 1472.92 L1031.37 1451.02 Z" fill="#000000" fill-rule="nonzero" fill-opacity="1" /><path clip-path="url(#clip320)" d="M1471.05 1466.44 Q1467.9 1466.44 1466.05 1468.59 Q1464.22 1470.74 1464.22 1474.49 Q1464.22 1478.22 1466.05 1480.39 Q1467.9 1482.55 1471.05 1482.55 Q1474.2 1482.55 1476.03 1480.39 Q1477.88 1478.22 1477.88 1474.49 Q1477.88 1470.74 1476.03 1468.59 Q1474.2 1466.44 1471.05 1466.44 M1480.33 1451.78 L1480.33 1456.04 Q1478.57 1455.21 1476.77 1454.77 Q1474.98 1454.33 1473.23 1454.33 Q1468.6 1454.33 1466.14 1457.45 Q1463.71 1460.58 1463.36 1466.9 Q1464.73 1464.89 1466.79 1463.82 Q1468.85 1462.73 1471.33 1462.73 Q1476.54 1462.73 1479.55 1465.9 Q1482.58 1469.05 1482.58 1474.49 Q1482.58 1479.82 1479.43 1483.03 Q1476.28 1486.25 1471.05 1486.25 Q1465.05 1486.25 1461.88 1481.67 Q1458.71 1477.06 1458.71 1468.33 Q1458.71 1460.14 1462.6 1455.28 Q1466.49 1450.39 1473.04 1450.39 Q1474.8 1450.39 1476.58 1450.74 Q1478.39 1451.09 1480.33 1451.78 Z" fill="#000000" fill-rule="nonzero" fill-opacity="1" /><path clip-path="url(#clip320)" d="M1911.7 1469.17 Q1908.37 1469.17 1906.45 1470.95 Q1904.55 1472.73 1904.55 1475.86 Q1904.55 1478.98 1906.45 1480.77 Q1908.37 1482.55 1911.7 1482.55 Q1915.03 1482.55 1916.95 1480.77 Q1918.88 1478.96 1918.88 1475.86 Q1918.88 1472.73 1916.95 1470.95 Q1915.06 1469.17 1911.7 1469.17 M1907.02 1467.18 Q1904.02 1466.44 1902.33 1464.38 Q1900.66 1462.32 1900.66 1459.35 Q1900.66 1455.21 1903.6 1452.8 Q1906.56 1450.39 1911.7 1450.39 Q1916.86 1450.39 1919.8 1452.8 Q1922.74 1455.21 1922.74 1459.35 Q1922.74 1462.32 1921.05 1464.38 Q1919.39 1466.44 1916.4 1467.18 Q1919.78 1467.96 1921.65 1470.26 Q1923.55 1472.55 1923.55 1475.86 Q1923.55 1480.88 1920.47 1483.57 Q1917.42 1486.25 1911.7 1486.25 Q1905.98 1486.25 1902.9 1483.57 Q1899.85 1480.88 1899.85 1475.86 Q1899.85 1472.55 1901.75 1470.26 Q1903.64 1467.96 1907.02 1467.18 M1905.31 1459.79 Q1905.31 1462.48 1906.98 1463.98 Q1908.67 1465.49 1911.7 1465.49 Q1914.71 1465.49 1916.4 1463.98 Q1918.11 1462.48 1918.11 1459.79 Q1918.11 1457.11 1916.4 1455.6 Q1914.71 1454.1 1911.7 1454.1 Q1908.67 1454.1 1906.98 1455.6 Q1905.31 1457.11 1905.31 1459.79 Z" fill="#000000" fill-rule="nonzero" fill-opacity="1" /><path clip-path="url(#clip320)" d="M2327.44 1481.64 L2335.08 1481.64 L2335.08 1455.28 L2326.77 1456.95 L2326.77 1452.69 L2335.04 1451.02 L2339.71 1451.02 L2339.71 1481.64 L2347.35 1481.64 L2347.35 1485.58 L2327.44 1485.58 L2327.44 1481.64 Z" fill="#000000" fill-rule="nonzero" fill-opacity="1" /><path clip-path="url(#clip320)" d="M2366.8 1454.1 Q2363.18 1454.1 2361.36 1457.66 Q2359.55 1461.2 2359.55 1468.33 Q2359.55 1475.44 2361.36 1479.01 Q2363.18 1482.55 2366.8 1482.55 Q2370.43 1482.55 2372.23 1479.01 Q2374.06 1475.44 2374.06 1468.33 Q2374.06 1461.2 2372.23 1457.66 Q2370.43 1454.1 2366.8 1454.1 M2366.8 1450.39 Q2372.61 1450.39 2375.66 1455 Q2378.74 1459.58 2378.74 1468.33 Q2378.74 1477.06 2375.66 1481.67 Q2372.61 1486.25 2366.8 1486.25 Q2360.99 1486.25 2357.91 1481.67 Q2354.85 1477.06 2354.85 1468.33 Q2354.85 1459.58 2357.91 1455 Q2360.99 1450.39 2366.8 1450.39 Z" fill="#000000" fill-rule="nonzero" fill-opacity="1" /><path clip-path="url(#clip320)" d="M1249.18 1522.27 L1249.18 1532.4 L1261.24 1532.4 L1261.24 1536.95 L1249.18 1536.95 L1249.18 1556.3 Q1249.18 1560.66 1250.36 1561.9 Q1251.57 1563.14 1255.23 1563.14 L1261.24 1563.14 L1261.24 1568.04 L1255.23 1568.04 Q1248.45 1568.04 1245.87 1565.53 Q1243.29 1562.98 1243.29 1556.3 L1243.29 1536.95 L1238.99 1536.95 L1238.99 1532.4 L1243.29 1532.4 L1243.29 1522.27 L1249.18 1522.27 Z" fill="#000000" fill-rule="nonzero" fill-opacity="1" /><polyline clip-path="url(#clip322)" style="stroke:#000000; stroke-linecap:round; stroke-linejoin:round; stroke-width:2; stroke-opacity:0.1; fill:none" points="147.478,1306.99 2352.76,1306.99 "/>
<polyline clip-path="url(#clip322)" style="stroke:#000000; stroke-linecap:round; stroke-linejoin:round; stroke-width:2; stroke-opacity:0.1; fill:none" points="147.478,1063.18 2352.76,1063.18 "/>
<polyline clip-path="url(#clip322)" style="stroke:#000000; stroke-linecap:round; stroke-linejoin:round; stroke-width:2; stroke-opacity:0.1; fill:none" points="147.478,819.367 2352.76,819.367 "/>
<polyline clip-path="url(#clip322)" style="stroke:#000000; stroke-linecap:round; stroke-linejoin:round; stroke-width:2; stroke-opacity:0.1; fill:none" points="147.478,575.555 2352.76,575.555 "/>
<polyline clip-path="url(#clip322)" style="stroke:#000000; stroke-linecap:round; stroke-linejoin:round; stroke-width:2; stroke-opacity:0.1; fill:none" points="147.478,331.743 2352.76,331.743 "/>
<polyline clip-path="url(#clip322)" style="stroke:#000000; stroke-linecap:round; stroke-linejoin:round; stroke-width:2; stroke-opacity:0.1; fill:none" points="147.478,87.931 2352.76,87.931 "/>
<polyline clip-path="url(#clip320)" style="stroke:#000000; stroke-linecap:round; stroke-linejoin:round; stroke-width:4; stroke-opacity:1; fill:none" points="147.478,1423.18 147.478,47.2441 "/>
<polyline clip-path="url(#clip320)" style="stroke:#000000; stroke-linecap:round; stroke-linejoin:round; stroke-width:4; stroke-opacity:1; fill:none" points="147.478,1306.99 166.376,1306.99 "/>
<polyline clip-path="url(#clip320)" style="stroke:#000000; stroke-linecap:round; stroke-linejoin:round; stroke-width:4; stroke-opacity:1; fill:none" points="147.478,1063.18 166.376,1063.18 "/>
<polyline clip-path="url(#clip320)" style="stroke:#000000; stroke-linecap:round; stroke-linejoin:round; stroke-width:4; stroke-opacity:1; fill:none" points="147.478,819.367 166.376,819.367 "/>
<polyline clip-path="url(#clip320)" style="stroke:#000000; stroke-linecap:round; stroke-linejoin:round; stroke-width:4; stroke-opacity:1; fill:none" points="147.478,575.555 166.376,575.555 "/>
<polyline clip-path="url(#clip320)" style="stroke:#000000; stroke-linecap:round; stroke-linejoin:round; stroke-width:4; stroke-opacity:1; fill:none" points="147.478,331.743 166.376,331.743 "/>
<polyline clip-path="url(#clip320)" style="stroke:#000000; stroke-linecap:round; stroke-linejoin:round; stroke-width:4; stroke-opacity:1; fill:none" points="147.478,87.931 166.376,87.931 "/>
<path clip-path="url(#clip320)" d="M51.3625 1307.44 L81.0383 1307.44 L81.0383 1311.38 L51.3625 1311.38 L51.3625 1307.44 Z" fill="#000000" fill-rule="nonzero" fill-opacity="1" /><path clip-path="url(#clip320)" d="M95.1586 1320.34 L111.478 1320.34 L111.478 1324.27 L89.5336 1324.27 L89.5336 1320.34 Q92.1956 1317.58 96.7789 1312.95 Q101.385 1308.3 102.566 1306.96 Q104.811 1304.43 105.691 1302.7 Q106.594 1300.94 106.594 1299.25 Q106.594 1296.49 104.649 1294.76 Q102.728 1293.02 99.6261 1293.02 Q97.4271 1293.02 94.9734 1293.78 Q92.5428 1294.55 89.7651 1296.1 L89.7651 1291.38 Q92.5891 1290.24 95.0428 1289.66 Q97.4965 1289.09 99.5335 1289.09 Q104.904 1289.09 108.098 1291.77 Q111.293 1294.46 111.293 1298.95 Q111.293 1301.08 110.483 1303 Q109.696 1304.9 107.589 1307.49 Q107.01 1308.16 103.909 1311.38 Q100.807 1314.57 95.1586 1320.34 Z" fill="#000000" fill-rule="nonzero" fill-opacity="1" /><path clip-path="url(#clip320)" d="M50.9921 1063.63 L80.6679 1063.63 L80.6679 1067.57 L50.9921 1067.57 L50.9921 1063.63 Z" fill="#000000" fill-rule="nonzero" fill-opacity="1" /><path clip-path="url(#clip320)" d="M91.5706 1076.52 L99.2095 1076.52 L99.2095 1050.16 L90.8993 1051.82 L90.8993 1047.57 L99.1632 1045.9 L103.839 1045.9 L103.839 1076.52 L111.478 1076.52 L111.478 1080.46 L91.5706 1080.46 L91.5706 1076.52 Z" fill="#000000" fill-rule="nonzero" fill-opacity="1" /><path clip-path="url(#clip320)" d="M99.5335 805.165 Q95.9224 805.165 94.0937 808.73 Q92.2882 812.272 92.2882 819.402 Q92.2882 826.508 94.0937 830.073 Q95.9224 833.614 99.5335 833.614 Q103.168 833.614 104.973 830.073 Q106.802 826.508 106.802 819.402 Q106.802 812.272 104.973 808.73 Q103.168 805.165 99.5335 805.165 M99.5335 801.462 Q105.344 801.462 108.399 806.068 Q111.478 810.652 111.478 819.402 Q111.478 828.128 108.399 832.735 Q105.344 837.318 99.5335 837.318 Q93.7234 837.318 90.6447 832.735 Q87.5892 828.128 87.5892 819.402 Q87.5892 810.652 90.6447 806.068 Q93.7234 801.462 99.5335 801.462 Z" fill="#000000" fill-rule="nonzero" fill-opacity="1" /><path clip-path="url(#clip320)" d="M91.5706 588.9 L99.2095 588.9 L99.2095 562.534 L90.8993 564.201 L90.8993 559.942 L99.1632 558.275 L103.839 558.275 L103.839 588.9 L111.478 588.9 L111.478 592.835 L91.5706 592.835 L91.5706 588.9 Z" fill="#000000" fill-rule="nonzero" fill-opacity="1" /><path clip-path="url(#clip320)" d="M95.1586 345.088 L111.478 345.088 L111.478 349.023 L89.5336 349.023 L89.5336 345.088 Q92.1956 342.333 96.7789 337.704 Q101.385 333.051 102.566 331.708 Q104.811 329.185 105.691 327.449 Q106.594 325.69 106.594 324 Q106.594 321.245 104.649 319.509 Q102.728 317.773 99.6261 317.773 Q97.4271 317.773 94.9734 318.537 Q92.5428 319.301 89.7651 320.852 L89.7651 316.13 Q92.5891 314.995 95.0428 314.417 Q97.4965 313.838 99.5335 313.838 Q104.904 313.838 108.098 316.523 Q111.293 319.208 111.293 323.699 Q111.293 325.829 110.483 327.75 Q109.696 329.648 107.589 332.241 Q107.01 332.912 103.909 336.129 Q100.807 339.324 95.1586 345.088 Z" fill="#000000" fill-rule="nonzero" fill-opacity="1" /><path clip-path="url(#clip320)" d="M104.348 86.5769 Q107.705 87.2944 109.58 89.563 Q111.478 91.8315 111.478 95.1648 Q111.478 100.28 107.959 103.081 Q104.441 105.882 97.9595 105.882 Q95.7836 105.882 93.4688 105.442 Q91.1771 105.026 88.7234 104.169 L88.7234 99.6555 Q90.6678 100.79 92.9826 101.368 Q95.2974 101.947 97.8206 101.947 Q102.219 101.947 104.51 100.211 Q106.825 98.4749 106.825 95.1648 Q106.825 92.1092 104.672 90.3963 Q102.543 88.6602 98.7234 88.6602 L94.6956 88.6602 L94.6956 84.8176 L98.9085 84.8176 Q102.358 84.8176 104.186 83.4519 Q106.015 82.063 106.015 79.4704 Q106.015 76.8084 104.117 75.3964 Q102.242 73.9612 98.7234 73.9612 Q96.8021 73.9612 94.603 74.3778 Q92.4039 74.7945 89.7651 75.6741 L89.7651 71.5075 Q92.4271 70.7668 94.7419 70.3964 Q97.0798 70.026 99.14 70.026 Q104.464 70.026 107.566 72.4566 Q110.668 74.864 110.668 78.9843 Q110.668 81.8547 109.024 83.8454 Q107.381 85.813 104.348 86.5769 Z" fill="#000000" fill-rule="nonzero" fill-opacity="1" /><polyline clip-path="url(#clip322)" style="stroke:#009af9; stroke-linecap:round; stroke-linejoin:round; stroke-width:8; stroke-opacity:1; fill:none" points="147.478,770.604 149.685,770.114 151.893,769.618 154.1,769.118 156.308,768.612 158.515,768.102 160.723,767.586 162.93,767.065 165.138,766.539 167.345,766.007 169.553,765.471 171.76,764.928 173.968,764.381 176.175,763.828 178.383,763.269 180.59,762.704 182.798,762.134 185.005,761.559 187.213,760.977 189.42,760.39 191.628,759.796 193.835,759.197 196.043,758.592 198.25,757.98 200.458,757.363 202.665,756.739 204.873,756.109 207.08,755.473 209.288,754.83 211.495,754.18 213.702,753.525 215.91,752.862 218.117,752.193 220.325,751.517 222.532,750.835 224.74,750.145 226.947,749.449 229.155,748.746 231.362,748.035 233.57,747.318 235.777,746.593 237.985,745.861 240.192,745.121 242.4,744.374 244.607,743.62 246.815,742.858 249.022,742.088 251.23,741.311 253.437,740.525 255.645,739.732 257.852,738.931 260.06,738.122 262.267,737.304 264.475,736.479 266.682,735.645 268.89,734.803 271.097,733.952 273.305,733.093 275.512,732.225 277.72,731.348 279.927,730.463 282.135,729.568 284.342,728.665 286.549,727.752 288.757,726.831 290.964,725.9 293.172,724.959 295.379,724.01 297.587,723.05 299.794,722.081 302.002,721.103 304.209,720.114 306.417,719.116 308.624,718.107 310.832,717.088 313.039,716.059 315.247,715.02 317.454,713.97 319.662,712.91 321.869,711.839 324.077,710.757 326.284,709.664 328.492,708.561 330.699,707.446 332.907,706.32 335.114,705.183 337.322,704.034 339.529,702.874 341.737,701.702 343.944,700.518 346.152,699.323 348.359,698.115 350.567,696.895 352.774,695.663 354.982,694.419 357.189,693.162 359.397,691.892 361.604,690.61 363.811,689.314 366.019,688.006 368.226,686.684 370.434,685.35 372.641,684.001 374.849,682.639 377.056,681.264 379.264,679.875 381.471,678.471 383.679,677.054 385.886,675.622 388.094,674.176 390.301,672.715 392.509,671.24 394.716,669.75 396.924,668.244 399.131,666.724 401.339,665.188 403.546,663.637 405.754,662.071 407.961,660.488 410.169,658.89 412.376,657.275 414.584,655.645 416.791,653.998 418.999,652.334 421.206,650.654 423.414,648.956 425.621,647.242 427.829,645.51 430.036,643.761 432.244,641.995 434.451,640.21 436.659,638.408 438.866,636.587 441.073,634.749 443.281,632.891 445.488,631.015 447.696,629.12 449.903,627.206 452.111,625.273 454.318,623.321 456.526,621.348 458.733,719.362 460.941,718.356 463.148,717.339 465.356,716.313 467.563,715.276 469.771,714.229 471.978,713.171 474.186,712.103 476.393,711.024 478.601,709.934 480.808,708.833 483.016,707.721 485.223,706.598 487.431,705.463 489.638,704.317 491.846,703.16 494.053,701.991 496.261,700.81 498.468,699.617 500.676,698.413 502.883,697.196 505.091,695.967 507.298,694.726 509.506,693.472 511.713,692.205 513.921,690.926 516.128,689.634 518.335,688.329 520.543,687.01 522.75,685.679 524.958,684.334 527.165,682.976 529.373,681.603 531.58,680.217 533.788,678.818 535.995,677.404 538.203,675.975 540.41,674.533 542.618,673.076 544.825,671.604 547.033,670.117 549.24,668.616 551.448,667.099 553.655,665.567 555.863,664.02 558.07,662.457 560.278,660.879 562.485,659.284 564.693,657.674 566.9,656.047 569.108,654.404 571.315,652.744 573.523,651.068 575.73,649.375 577.938,647.664 580.145,645.937 582.353,644.192 584.56,642.43 586.768,640.65 588.975,638.852 591.182,637.036 593.39,635.201 595.597,633.349 597.805,631.477 600.012,629.587 602.22,627.678 604.427,625.75 606.635,623.802 608.842,621.835 611.05,619.848 613.257,617.841 615.465,615.814 617.672,613.766 619.88,611.698 622.087,609.609 624.295,607.499 626.502,605.368 628.71,603.215 630.917,601.041 633.125,598.845 635.332,596.627 637.54,594.386 639.747,592.123 641.955,589.837 644.162,587.528 646.37,585.196 648.577,582.84 650.785,580.461 652.992,578.058 655.2,575.63 657.407,573.178 659.615,570.702 661.822,568.2 664.03,565.673 666.237,563.121 668.444,560.543 670.652,557.939 672.859,555.309 675.067,552.652 677.274,549.969 679.482,547.258 681.689,544.521 683.897,541.755 686.104,538.962 688.312,536.141 690.519,533.291 692.727,530.413 694.934,527.506 697.142,524.569 699.349,521.603 701.557,518.607 703.764,515.581 705.972,512.524 708.179,509.437 710.387,506.319 712.594,503.17 714.802,499.989 717.009,496.776 719.217,493.53 721.424,490.252 723.632,486.941 725.839,483.596 728.047,480.218 730.254,476.806 732.462,473.36 734.669,469.879 736.877,466.363 739.084,462.811 741.292,459.224 743.499,455.601 745.706,451.942 747.914,448.245 750.121,444.512 752.329,440.741 754.536,436.932 756.744,433.085 758.951,429.199 761.159,425.274 763.366,421.31 765.574,417.306 767.781,413.262 769.989,409.177 772.196,405.051 774.404,400.883 776.611,396.673 778.819,392.422 781.026,388.127 783.234,383.789 785.441,379.408 787.649,374.982 789.856,370.512 792.064,365.997 794.271,361.436 796.479,356.83 798.686,352.177 800.894,347.477 803.101,342.73 805.309,337.935 807.516,333.092 809.724,328.2 811.931,323.259 814.139,318.268 816.346,313.227 818.553,308.135 820.761,302.991 822.968,297.796 825.176,292.549 827.383,287.249 829.591,281.895 831.798,276.487 834.006,271.025 836.213,265.508 838.421,259.936 840.628,254.307 842.836,248.622 845.043,242.879 847.251,237.079 849.458,231.22 851.666,225.303 853.873,219.325 856.081,213.288 858.288,207.191 860.496,201.032 862.703,194.811 864.911,188.527 867.118,182.181 869.326,497.569 871.533,494.331 873.741,491.061 875.948,487.758 878.156,484.422 880.363,481.053 882.571,477.649 884.778,474.211 886.986,470.739 889.193,467.232 891.401,463.689 893.608,460.111 895.815,456.497 898.023,452.846 900.23,449.159 902.438,445.435 904.645,441.673 906.853,437.873 909.06,434.035 911.268,430.159 913.475,426.243 915.683,422.288 917.89,418.293 920.098,414.258 922.305,410.183 924.513,406.066 926.72,610.639 928.928,608.539 931.135,606.418 933.343,604.276 935.55,602.112 937.758,599.926 939.965,597.718 942.173,595.489 944.38,593.236 946.588,590.961 948.795,588.663 951.003,586.342 953.21,583.998 955.418,581.63 957.625,579.239 959.833,576.823 962.04,574.383 964.248,571.919 966.455,569.429 968.663,566.915 970.87,564.376 973.077,561.81 975.285,559.22 977.492,556.603 979.7,553.96 981.907,551.29 984.115,548.593 986.322,545.869 988.53,543.118 990.737,540.34 992.945,537.533 995.152,534.698 997.36,531.834 999.567,528.942 1001.77,526.02 1003.98,523.07 1006.19,520.089 1008.4,517.078 1010.6,514.037 1012.81,510.966 1015.02,507.864 1017.23,504.73 1019.43,501.565 1021.64,498.367 1023.85,495.138 1026.06,491.876 1028.26,488.581 1030.47,485.254 1032.68,481.892 1034.89,478.497 1037.09,475.067 1039.3,471.603 1041.51,468.104 1043.72,464.57 1045.92,461.001 1048.13,457.395 1050.34,453.753 1052.55,450.074 1054.75,446.359 1056.96,442.606 1059.17,438.815 1061.38,434.986 1063.58,431.119 1065.79,427.213 1068,423.267 1070.21,419.282 1072.41,415.257 1074.62,615.28 1076.83,613.227 1079.04,611.153 1081.24,609.058 1083.45,606.943 1085.66,604.805 1087.87,602.647 1090.07,600.466 1092.28,598.264 1094.49,596.04 1096.7,593.793 1098.9,591.523 1101.11,589.231 1103.32,586.916 1105.53,584.578 1107.73,582.216 1109.94,579.83 1112.15,577.42 1114.36,574.987 1116.56,572.528 1118.77,570.045 1120.98,567.537 1123.19,565.004 1125.39,562.445 1127.6,559.861 1129.81,557.251 1132.02,554.614 1134.22,551.951 1136.43,549.261 1138.64,546.544 1140.85,543.8 1143.05,541.028 1145.26,538.229 1147.47,535.401 1149.68,532.544 1151.88,529.659 1154.09,526.745 1156.3,523.802 1158.51,520.828 1160.71,517.825 1162.92,514.792 1165.13,511.728 1167.34,508.633 1169.54,505.507 1171.75,502.35 1173.96,499.161 1176.17,495.939 1178.37,492.686 1180.58,489.399 1182.79,486.079 1185,482.726 1187.2,479.339 1189.41,475.918 1191.62,472.463 1193.83,468.972 1196.03,465.447 1198.24,461.886 1200.45,458.289 1202.66,454.656 1204.86,450.986 1207.07,447.28 1209.28,443.536 1211.49,439.755 1213.69,435.935 1215.9,432.077 1218.11,428.18 1220.32,424.245 1222.52,420.269 1224.73,416.254 1226.94,412.198 1229.15,408.102 1231.35,403.964 1233.56,399.785 1235.77,395.564 1237.98,391.301 1240.18,386.994 1242.39,382.644 1244.6,378.251 1246.81,373.813 1249.01,369.331 1251.22,364.803 1253.43,360.23 1255.64,355.611 1257.84,350.946 1260.05,346.233 1262.26,580.419 1264.47,578.015 1266.67,575.587 1268.88,573.134 1271.09,570.657 1273.3,568.155 1275.5,565.628 1277.71,563.075 1279.92,560.497 1282.13,557.892 1284.33,555.262 1286.54,685.985 1288.75,684.643 1290.96,683.288 1293.16,681.919 1295.37,680.536 1297.58,679.139 1299.79,677.729 1301.99,676.304 1304.2,674.864 1306.41,673.411 1308.62,671.942 1310.82,670.459 1313.03,668.961 1315.24,667.448 1317.45,742.643 1319.65,741.871 1321.86,741.091 1324.07,740.304 1326.28,739.508 1328.48,738.705 1330.69,737.893 1332.9,737.074 1335.11,736.246 1337.31,735.409 1339.52,734.565 1341.73,733.712 1343.94,732.85 1346.14,731.979 1348.35,731.1 1350.56,730.212 1352.76,729.315 1354.97,728.41 1357.18,727.495 1359.39,726.571 1361.59,725.637 1363.8,724.694 1366.01,723.742 1368.22,722.78 1370.42,721.809 1372.63,720.827 1374.84,719.836 1377.05,718.835 1379.25,717.824 1381.46,716.803 1383.67,715.771 1385.88,714.729 1388.08,713.677 1390.29,712.614 1392.5,711.54 1394.71,710.456 1396.91,709.36 1399.12,708.254 1401.33,707.136 1403.54,706.007 1405.74,704.867 1407.95,703.716 1410.16,702.552 1412.37,701.377 1414.57,700.19 1416.78,698.992 1418.99,697.781 1421.2,696.558 1423.4,695.322 1425.61,694.074 1427.82,692.814 1430.03,691.541 1432.23,690.255 1434.44,688.956 1436.65,687.644 1438.86,686.319 1441.06,684.98 1443.27,683.628 1445.48,682.262 1447.69,680.883 1449.89,679.489 1452.1,678.082 1454.31,676.66 1456.52,675.224 1458.72,673.774 1460.93,672.309 1463.14,670.829 1465.35,669.334 1467.55,667.825 1469.76,666.3 1471.97,664.759 1474.18,663.204 1476.38,661.632 1478.59,660.045 1480.8,658.442 1483.01,656.823 1485.21,655.188 1487.42,653.536 1489.63,651.867 1491.84,650.182 1494.04,648.48 1496.25,646.761 1498.46,645.024 1500.67,643.271 1502.87,641.499 1505.08,639.71 1507.29,637.902 1509.5,636.077 1511.7,634.233 1513.91,632.37 1516.12,630.489 1518.33,628.589 1520.53,626.669 1522.74,624.731 1524.95,622.773 1527.16,620.795 1529.36,618.797 1531.57,616.78 1533.78,614.742 1535.99,612.683 1538.19,610.604 1540.4,608.504 1542.61,606.382 1544.82,604.24 1547.02,602.075 1549.23,599.889 1551.44,597.681 1553.65,595.451 1555.85,593.199 1558.06,590.923 1560.27,588.625 1562.48,586.304 1564.68,583.959 1566.89,581.591 1569.1,579.198 1571.31,576.782 1573.51,574.342 1575.72,571.877 1577.93,569.387 1580.14,566.872 1582.34,564.332 1584.55,690.576 1586.76,689.28 1588.97,687.971 1591.17,686.649 1593.38,685.314 1595.59,683.965 1597.8,682.603 1600,681.227 1602.21,679.837 1604.42,678.433 1606.63,677.015 1608.83,675.583 1611.04,674.137 1613.25,672.676 1615.46,671.2 1617.66,669.709 1619.87,668.204 1622.08,666.683 1624.29,665.148 1626.49,663.596 1628.7,662.03 1630.91,660.447 1633.12,658.849 1635.32,657.234 1637.53,655.604 1639.74,653.957 1641.95,652.293 1644.15,650.613 1646.36,648.916 1648.57,647.202 1650.78,645.471 1652.98,643.722 1655.19,641.956 1657.4,640.171 1659.61,638.369 1661.81,636.549 1664.02,634.711 1666.23,632.854 1668.44,630.979 1670.64,629.084 1672.85,627.171 1675.06,625.238 1677.27,623.285 1679.47,621.314 1681.68,619.322 1683.89,617.31 1686.1,615.278 1688.3,613.225 1690.51,611.152 1692.72,609.058 1694.93,606.942 1697.13,604.806 1699.34,602.648 1701.55,600.468 1703.76,598.266 1705.96,596.041 1708.17,593.795 1710.38,591.526 1712.59,589.233 1714.79,586.918 1717,584.579 1719.21,582.217 1721.42,579.831 1723.62,577.421 1725.83,574.986 1728.04,572.527 1730.25,570.043 1732.45,567.534 1734.66,565 1736.87,562.44 1739.07,559.855 1741.28,557.243 1743.49,554.605 1745.7,551.941 1747.9,549.249 1750.11,546.531 1752.32,543.785 1754.53,541.012 1756.73,538.21 1758.94,535.381 1761.15,532.523 1763.36,529.636 1765.56,526.721 1767.77,523.776 1769.98,520.801 1772.19,517.797 1774.39,514.763 1776.6,511.698 1778.81,508.602 1781.02,505.476 1783.22,502.318 1785.43,499.128 1787.64,495.907 1789.85,492.653 1792.05,489.366 1794.26,486.046 1796.47,482.693 1798.68,649.335 1800.88,647.624 1803.09,645.896 1805.3,644.151 1807.51,642.388 1809.71,640.607 1811.92,638.809 1814.13,636.992 1816.34,635.157 1818.54,633.303 1820.75,631.431 1822.96,629.541 1825.17,627.631 1827.37,625.702 1829.58,623.754 1831.79,621.786 1834,619.798 1836.2,617.791 1838.41,615.763 1840.62,613.715 1842.83,611.647 1845.03,609.558 1847.24,607.448 1849.45,605.316 1851.66,603.164 1853.86,600.989 1856.07,598.793 1858.28,596.575 1860.49,594.335 1862.69,592.072 1864.9,589.787 1867.11,587.479 1869.32,585.147 1871.52,582.792 1873.73,580.413 1875.94,578.011 1878.15,575.584 1880.35,573.133 1882.56,570.657 1884.77,568.157 1886.98,565.631 1889.18,563.08 1891.39,560.503 1893.6,557.9 1895.81,555.271 1898.01,552.615 1900.22,549.933 1902.43,547.224 1904.64,544.487 1906.84,541.723 1909.05,538.931 1911.26,536.111 1913.47,533.262 1915.67,530.385 1917.88,527.478 1920.09,524.543 1922.3,521.577 1924.5,518.582 1926.71,515.556 1928.92,512.5 1931.13,509.413 1933.33,506.295 1935.54,503.145 1937.75,499.964 1939.96,496.75 1942.16,493.504 1944.37,490.226 1946.58,486.914 1948.79,483.568 1950.99,480.189 1953.2,476.776 1955.41,473.328 1957.62,469.846 1959.82,466.328 1962.03,462.775 1964.24,459.186 1966.45,455.561 1968.65,451.9 1970.86,448.201 1973.07,444.465 1975.28,440.692 1977.48,436.88 1979.69,433.031 1981.9,429.142 1984.11,425.214 1986.31,421.247 1988.52,417.24 1990.73,413.193 1992.94,409.105 1995.14,404.976 1997.35,400.806 1999.56,396.594 2001.77,392.34 2003.97,388.043 2006.18,383.703 2008.39,379.319 2010.6,374.892 2012.8,370.421 2015.01,365.904 2017.22,361.342 2019.43,356.734 2021.63,352.08 2023.84,347.379 2026.05,342.63 2028.26,337.834 2030.46,332.99 2032.67,328.097 2034.88,323.154 2037.09,318.162 2039.29,313.12 2041.5,308.027 2043.71,302.883 2045.92,297.687 2048.12,292.439 2050.33,287.138 2052.54,281.784 2054.75,276.376 2056.95,270.914 2059.16,265.396 2061.37,259.823 2063.58,254.194 2065.78,248.509 2067.99,242.766 2070.2,236.965 2072.41,231.106 2074.61,225.188 2076.82,219.211 2079.03,213.173 2081.24,207.075 2083.44,200.915 2085.65,194.693 2087.86,188.409 2090.07,182.061 2092.27,175.65 2094.48,169.174 2096.69,162.632 2098.9,156.025 2101.1,149.352 2103.31,142.611 2105.52,135.802 2107.73,128.925 2109.93,121.979 2112.14,114.963 2114.35,107.876 2116.55,100.718 2118.76,93.4883 2120.97,86.1857 2123.18,449.159 2125.38,445.435 2127.59,441.673 2129.8,437.873 2132.01,434.035 2134.21,430.159 2136.42,426.243 2138.63,422.288 2140.84,418.294 2143.04,414.259 2145.25,410.183 2147.46,406.067 2149.67,401.909 2151.87,397.709 2154.08,393.467 2156.29,389.182 2158.5,384.855 2160.7,380.483 2162.91,376.068 2165.12,371.608 2167.33,593.233 2169.53,590.958 2171.74,588.66 2173.95,586.339 2176.16,583.995 2178.36,581.627 2180.57,579.235 2182.78,576.82 2184.99,574.379 2187.19,571.915 2189.4,569.425 2191.61,566.911 2193.82,564.371 2196.02,561.806 2198.23,559.215 2200.44,556.598 2202.65,553.954 2204.85,551.284 2207.06,548.587 2209.27,545.863 2211.48,681.239 2213.68,679.849 2215.89,678.446 2218.1,677.028 2220.31,675.596 2222.51,674.149 2224.72,672.688 2226.93,671.213 2229.14,669.722 2231.34,668.217 2233.55,666.696 2235.76,665.16 2237.97,663.609 2240.17,662.042 2242.38,660.459 2244.59,658.86 2246.8,657.246 2249,655.615 2251.21,653.968 2253.42,652.304 2255.63,650.623 2257.83,648.926 2260.04,647.211 2262.25,645.479 2264.46,643.73 2266.66,641.963 2268.87,640.179 2271.08,638.376 2273.29,636.556 2275.49,634.717 2277.7,632.859 2279.91,630.983 2282.12,629.088 2284.32,627.174 2286.53,625.241 2288.74,623.288 2290.95,621.316 2293.15,619.323 2295.36,617.311 2297.57,615.278 2299.78,613.225 2301.98,611.151 2304.19,609.056 2306.4,606.941 2308.61,604.804 2310.81,602.645 2313.02,600.465 2315.23,598.262 2317.44,596.038 2319.64,593.791 2321.85,591.521 2324.06,589.229 2326.27,586.914 2328.47,584.575 2330.68,582.212 2332.89,579.826 2335.1,577.416 2337.3,574.982 2339.51,572.523 2341.72,570.04 2343.93,567.531 2346.13,564.998 2348.34,562.438 2350.55,559.854 2352.76,557.243 "/>
<polyline clip-path="url(#clip322)" style="stroke:#e26f46; stroke-linecap:round; stroke-linejoin:round; stroke-width:8; stroke-opacity:1; fill:none" points="147.478,970.313 149.685,969.822 151.893,969.327 154.1,968.826 156.308,968.321 158.515,967.81 160.723,967.294 162.93,966.774 165.138,966.247 167.345,965.716 169.553,965.179 171.76,964.637 173.968,964.089 176.175,963.536 178.383,962.977 180.59,962.413 182.798,961.843 185.005,961.267 187.213,960.686 189.42,960.098 191.628,959.505 193.835,958.906 196.043,958.3 198.25,957.689 200.458,957.071 202.665,956.447 204.873,955.817 207.08,955.181 209.288,954.538 211.495,953.889 213.702,953.233 215.91,952.571 218.117,951.902 220.325,951.226 222.532,950.543 224.74,949.854 226.947,949.158 229.155,948.454 231.362,947.744 233.57,947.026 235.777,946.301 237.985,945.569 240.192,944.83 242.4,944.083 244.607,943.328 246.815,942.566 249.022,941.796 251.23,941.019 253.437,940.234 255.645,939.441 257.852,938.639 260.06,937.83 262.267,937.013 264.475,936.187 266.682,935.353 268.89,934.511 271.097,933.66 273.305,932.801 275.512,931.933 277.72,931.057 279.927,930.171 282.135,929.277 284.342,928.373 286.549,927.461 288.757,926.539 290.964,925.608 293.172,924.668 295.379,923.718 297.587,922.759 299.794,921.79 302.002,920.811 304.209,919.822 306.417,918.824 308.624,917.815 310.832,916.797 313.039,915.768 315.247,914.728 317.454,913.679 319.662,912.618 321.869,911.547 324.077,910.466 326.284,909.373 328.492,908.269 330.699,907.155 332.907,906.029 335.114,904.891 337.322,903.743 339.529,902.582 341.737,901.41 343.944,900.227 346.152,899.031 348.359,897.823 350.567,896.604 352.774,895.372 354.982,894.127 357.189,892.87 359.397,891.6 361.604,890.318 363.811,889.023 366.019,887.714 368.226,886.393 370.434,885.058 372.641,883.71 374.849,882.348 377.056,880.972 379.264,879.583 381.471,878.18 383.679,876.762 385.886,875.33 388.094,873.884 390.301,872.424 392.509,870.948 394.716,869.458 396.924,867.953 399.131,866.433 401.339,864.897 403.546,863.346 405.754,861.779 407.961,860.197 410.169,858.598 412.376,856.984 414.584,855.353 416.791,853.706 418.999,852.042 421.206,850.362 423.414,848.665 425.621,846.95 427.829,845.219 430.036,843.47 432.244,841.703 434.451,839.919 436.659,838.116 438.866,836.296 441.073,834.457 443.281,832.6 445.488,830.724 447.696,828.829 449.903,826.915 452.111,824.982 454.318,823.029 456.526,821.057 458.733,1360.67 460.941,1359.66 463.148,1358.64 465.356,1357.62 467.563,1356.58 469.771,1355.53 471.978,1354.48 474.186,1353.41 476.393,1352.33 478.601,1351.24 480.808,1350.14 483.016,1349.03 485.223,1347.9 487.431,1346.77 489.638,1345.62 491.846,1344.47 494.053,1343.3 496.261,1342.12 498.468,1340.92 500.676,1339.72 502.883,1338.5 505.091,1337.27 507.298,1336.03 509.506,1334.78 511.713,1333.51 513.921,1332.23 516.128,1330.94 518.335,1329.63 520.543,1328.32 522.75,1326.98 524.958,1325.64 527.165,1324.28 529.373,1322.91 531.58,1321.52 533.788,1320.12 535.995,1318.71 538.203,1317.28 540.41,1315.84 542.618,1314.38 544.825,1312.91 547.033,1311.42 549.24,1309.92 551.448,1308.4 553.655,1306.87 555.863,1305.33 558.07,1303.76 560.278,1302.18 562.485,1300.59 564.693,1298.98 566.9,1297.35 569.108,1295.71 571.315,1294.05 573.523,1292.37 575.73,1290.68 577.938,1288.97 580.145,1287.24 582.353,1285.5 584.56,1283.74 586.768,1281.96 588.975,1280.16 591.182,1278.34 593.39,1276.51 595.597,1274.65 597.805,1272.78 600.012,1270.89 602.22,1268.98 604.427,1267.06 606.635,1265.11 608.842,1263.14 611.05,1261.15 613.257,1259.15 615.465,1257.12 617.672,1255.07 619.88,1253 622.087,1250.91 624.295,1248.8 626.502,1246.67 628.71,1244.52 630.917,1242.35 633.125,1240.15 635.332,1237.93 637.54,1235.69 639.747,1233.43 641.955,1231.14 644.162,1228.83 646.37,1226.5 648.577,1224.15 650.785,1221.77 652.992,1219.36 655.2,1216.94 657.407,1214.48 659.615,1212.01 661.822,1209.51 664.03,1206.98 666.237,1204.43 668.444,1201.85 670.652,1199.24 672.859,1196.61 675.067,1193.96 677.274,1191.27 679.482,1188.56 681.689,1185.83 683.897,1183.06 686.104,1180.27 688.312,1177.45 690.519,1174.6 692.727,1171.72 694.934,1168.81 697.142,1165.87 699.349,1162.91 701.557,1159.91 703.764,1156.89 705.972,1153.83 708.179,1150.74 710.387,1147.62 712.594,1144.48 714.802,1141.29 717.009,1138.08 719.217,1134.84 721.424,1131.56 723.632,1128.25 725.839,1124.9 728.047,1121.52 730.254,1118.11 732.462,1114.67 734.669,1111.18 736.877,1107.67 739.084,1104.12 741.292,1100.53 743.499,1096.91 745.706,1093.25 747.914,1089.55 750.121,1085.82 752.329,1082.05 754.536,1078.24 756.744,1074.39 758.951,1070.5 761.159,1066.58 763.366,1062.62 765.574,1058.61 767.781,1054.57 769.989,1050.48 772.196,1046.36 774.404,1042.19 776.611,1037.98 778.819,1033.73 781.026,1029.43 783.234,1025.09 785.441,1020.71 787.649,1016.29 789.856,1011.82 792.064,1007.3 794.271,1002.74 796.479,998.135 798.686,993.482 800.894,988.783 803.101,984.036 805.309,979.241 807.516,974.398 809.724,969.506 811.931,964.564 814.139,959.574 816.346,954.532 818.553,949.44 820.761,944.297 822.968,939.102 825.176,933.854 827.383,928.554 829.591,923.2 831.798,917.793 834.006,912.331 836.213,906.814 838.421,901.241 840.628,895.612 842.836,889.927 845.043,884.184 847.251,878.384 849.458,872.526 851.666,866.608 853.873,860.631 856.081,854.594 858.288,848.496 860.496,842.337 862.703,836.116 864.911,829.833 867.118,823.486 869.326,913.631 871.533,910.394 873.741,907.124 875.948,903.821 878.156,900.485 880.363,897.115 882.571,893.712 884.778,890.274 886.986,886.802 889.193,883.294 891.401,879.752 893.608,876.174 895.815,872.559 898.023,868.909 900.23,865.221 902.438,861.497 904.645,857.735 906.853,853.936 909.06,850.098 911.268,846.221 913.475,842.305 915.683,838.351 917.89,834.356 920.098,830.321 922.305,826.245 924.513,822.129 926.72,1016.56 928.928,1014.46 931.135,1012.34 933.343,1010.2 935.55,1008.03 937.758,1005.85 939.965,1003.64 942.173,1001.41 944.38,999.157 946.588,996.882 948.795,994.584 951.003,992.263 953.21,989.919 955.418,987.551 957.625,985.16 959.833,982.744 962.04,980.304 964.248,977.84 966.455,975.35 968.663,972.836 970.87,970.297 973.077,967.732 975.285,965.141 977.492,962.524 979.7,959.881 981.907,957.211 984.115,954.514 986.322,951.791 988.53,949.039 990.737,946.261 992.945,943.454 995.152,940.619 997.36,937.755 999.567,934.863 1001.77,931.942 1003.98,928.991 1006.19,926.01 1008.4,923 1010.6,919.959 1012.81,916.887 1015.02,913.785 1017.23,910.651 1019.43,907.486 1021.64,904.289 1023.85,901.059 1026.06,897.797 1028.26,894.503 1030.47,891.175 1032.68,887.813 1034.89,884.418 1037.09,880.988 1039.3,877.524 1041.51,874.026 1043.72,870.491 1045.92,866.922 1048.13,863.316 1050.34,859.674 1052.55,855.996 1054.75,852.28 1056.96,848.527 1059.17,844.736 1061.38,840.907 1063.58,837.04 1065.79,833.134 1068,829.189 1070.21,825.204 1072.41,821.178 1074.62,1088.74 1076.83,1086.69 1079.04,1084.61 1081.24,1082.52 1083.45,1080.4 1085.66,1078.26 1087.87,1076.11 1090.07,1073.93 1092.28,1071.72 1094.49,1069.5 1096.7,1067.25 1098.9,1064.98 1101.11,1062.69 1103.32,1060.37 1105.53,1058.04 1107.73,1055.67 1109.94,1053.29 1112.15,1050.88 1114.36,1048.45 1116.56,1045.99 1118.77,1043.5 1120.98,1041 1123.19,1038.46 1125.39,1035.9 1127.6,1033.32 1129.81,1030.71 1132.02,1028.07 1134.22,1025.41 1136.43,1022.72 1138.64,1020 1140.85,1017.26 1143.05,1014.49 1145.26,1011.69 1147.47,1008.86 1149.68,1006 1151.88,1003.12 1154.09,1000.2 1156.3,997.26 1158.51,994.287 1160.71,991.284 1162.92,988.251 1165.13,985.187 1167.34,982.092 1169.54,978.966 1171.75,975.809 1173.96,972.619 1176.17,969.398 1178.37,966.144 1180.58,962.858 1182.79,959.538 1185,956.185 1187.2,952.798 1189.41,949.377 1191.62,945.921 1193.83,942.431 1196.03,938.906 1198.24,935.345 1200.45,931.748 1202.66,928.115 1204.86,924.445 1207.07,920.739 1209.28,916.995 1211.49,913.213 1213.69,909.394 1215.9,905.536 1218.11,901.639 1220.32,897.703 1222.52,893.728 1224.73,889.713 1226.94,885.657 1229.15,881.561 1231.35,877.423 1233.56,873.244 1235.77,869.023 1237.98,864.759 1240.18,860.453 1242.39,856.103 1244.6,851.71 1246.81,847.272 1249.01,842.789 1251.22,838.262 1253.43,833.689 1255.64,829.07 1257.84,824.404 1260.05,819.692 1262.26,844.956 1264.47,842.552 1266.67,840.124 1268.88,837.671 1271.09,835.194 1273.3,832.692 1275.5,830.165 1277.71,827.612 1279.92,825.034 1282.13,822.429 1284.33,819.799 1286.54,838.509 1288.75,837.167 1290.96,835.812 1293.16,834.443 1295.37,833.06 1297.58,831.663 1299.79,830.252 1301.99,828.827 1304.2,827.388 1306.41,825.934 1308.62,824.466 1310.82,822.983 1313.03,821.485 1315.24,819.972 1317.45,998.211 1319.65,997.439 1321.86,996.66 1324.07,995.872 1326.28,995.077 1328.48,994.273 1330.69,993.462 1332.9,992.642 1335.11,991.814 1337.31,990.978 1339.52,990.133 1341.73,989.28 1343.94,988.418 1346.14,987.548 1348.35,986.669 1350.56,985.781 1352.76,984.884 1354.97,983.978 1357.18,983.063 1359.39,982.139 1361.59,981.205 1363.8,980.263 1366.01,979.31 1368.22,978.349 1370.42,977.377 1372.63,976.396 1374.84,975.405 1377.05,974.404 1379.25,973.392 1381.46,972.371 1383.67,971.34 1385.88,970.298 1388.08,969.245 1390.29,968.182 1392.5,967.109 1394.71,966.024 1396.91,964.929 1399.12,963.822 1401.33,962.705 1403.54,961.576 1405.74,960.436 1407.95,959.284 1410.16,958.121 1412.37,956.946 1414.57,955.759 1416.78,954.56 1418.99,953.349 1421.2,952.126 1423.4,950.891 1425.61,949.643 1427.82,948.382 1430.03,947.109 1432.23,945.823 1434.44,944.524 1436.65,943.212 1438.86,941.887 1441.06,940.548 1443.27,939.196 1445.48,937.83 1447.69,936.451 1449.89,935.058 1452.1,933.65 1454.31,932.228 1456.52,930.792 1458.72,929.342 1460.93,927.877 1463.14,926.397 1465.35,924.903 1467.55,923.393 1469.76,921.868 1471.97,920.328 1474.18,918.772 1476.38,917.201 1478.59,915.614 1480.8,914.01 1483.01,912.391 1485.21,910.756 1487.42,909.104 1489.63,907.436 1491.84,905.751 1494.04,904.048 1496.25,902.329 1498.46,900.593 1500.67,898.839 1502.87,897.067 1505.08,895.278 1507.29,893.47 1509.5,891.645 1511.7,889.801 1513.91,887.938 1516.12,886.057 1518.33,884.157 1520.53,882.238 1522.74,880.299 1524.95,878.341 1527.16,876.363 1529.36,874.366 1531.57,872.348 1533.78,870.31 1535.99,868.251 1538.19,866.172 1540.4,864.072 1542.61,861.951 1544.82,859.808 1547.02,857.644 1549.23,855.458 1551.44,853.25 1553.65,851.02 1555.85,848.767 1558.06,846.492 1560.27,844.193 1562.48,841.872 1564.68,839.527 1566.89,837.159 1569.1,834.767 1571.31,832.351 1573.51,829.91 1575.72,827.445 1577.93,824.955 1580.14,822.44 1582.34,819.9 1584.55,1028.49 1586.76,1027.19 1588.97,1025.88 1591.17,1024.56 1593.38,1023.22 1595.59,1021.88 1597.8,1020.51 1600,1019.14 1602.21,1017.75 1604.42,1016.34 1606.63,1014.93 1608.83,1013.49 1611.04,1012.05 1613.25,1010.59 1615.46,1009.11 1617.66,1007.62 1619.87,1006.11 1622.08,1004.59 1624.29,1003.06 1626.49,1001.51 1628.7,999.939 1630.91,998.357 1633.12,996.759 1635.32,995.144 1637.53,993.514 1639.74,991.867 1641.95,990.203 1644.15,988.523 1646.36,986.826 1648.57,985.112 1650.78,983.38 1652.98,981.632 1655.19,979.865 1657.4,978.081 1659.61,976.279 1661.81,974.459 1664.02,972.621 1666.23,970.764 1668.44,968.888 1670.64,966.994 1672.85,965.08 1675.06,963.148 1677.27,961.195 1679.47,959.223 1681.68,957.232 1683.89,955.22 1686.1,953.188 1688.3,951.135 1690.51,949.062 1692.72,946.968 1694.93,944.852 1697.13,942.716 1699.34,940.557 1701.55,938.377 1703.76,936.175 1705.96,933.951 1708.17,931.705 1710.38,929.435 1712.59,927.143 1714.79,924.828 1717,922.489 1719.21,920.127 1721.42,917.741 1723.62,915.331 1725.83,912.896 1728.04,910.437 1730.25,907.953 1732.45,905.444 1734.66,902.91 1736.87,900.35 1739.07,897.765 1741.28,895.153 1743.49,892.515 1745.7,889.851 1747.9,887.159 1750.11,884.441 1752.32,881.695 1754.53,878.922 1756.73,876.12 1758.94,873.291 1761.15,870.433 1763.36,867.546 1765.56,864.631 1767.77,861.686 1769.98,858.711 1772.19,855.707 1774.39,852.672 1776.6,849.608 1778.81,846.512 1781.02,843.386 1783.22,840.228 1785.43,837.038 1787.64,833.817 1789.85,830.562 1792.05,827.276 1794.26,823.956 1796.47,820.602 1798.68,1384.24 1800.88,1382.53 1803.09,1380.8 1805.3,1379.05 1807.51,1377.29 1809.71,1375.51 1811.92,1373.71 1814.13,1371.9 1816.34,1370.06 1818.54,1368.21 1820.75,1366.33 1822.96,1364.44 1825.17,1362.53 1827.37,1360.61 1829.58,1358.66 1831.79,1356.69 1834,1354.7 1836.2,1352.69 1838.41,1350.67 1840.62,1348.62 1842.83,1346.55 1845.03,1344.46 1847.24,1342.35 1849.45,1340.22 1851.66,1338.07 1853.86,1335.89 1856.07,1333.7 1858.28,1331.48 1860.49,1329.24 1862.69,1326.98 1864.9,1324.69 1867.11,1322.38 1869.32,1320.05 1871.52,1317.7 1873.73,1315.32 1875.94,1312.91 1878.15,1310.49 1880.35,1308.04 1882.56,1305.56 1884.77,1303.06 1886.98,1300.53 1889.18,1297.98 1891.39,1295.41 1893.6,1292.8 1895.81,1290.17 1898.01,1287.52 1900.22,1284.84 1902.43,1282.13 1904.64,1279.39 1906.84,1276.63 1909.05,1273.83 1911.26,1271.01 1913.47,1268.17 1915.67,1265.29 1917.88,1262.38 1920.09,1259.45 1922.3,1256.48 1924.5,1253.49 1926.71,1250.46 1928.92,1247.4 1931.13,1244.32 1933.33,1241.2 1935.54,1238.05 1937.75,1234.87 1939.96,1231.65 1942.16,1228.41 1944.37,1225.13 1946.58,1221.82 1948.79,1218.47 1950.99,1215.09 1953.2,1211.68 1955.41,1208.23 1957.62,1204.75 1959.82,1201.23 1962.03,1197.68 1964.24,1194.09 1966.45,1190.46 1968.65,1186.8 1970.86,1183.1 1973.07,1179.37 1975.28,1175.6 1977.48,1171.78 1979.69,1167.93 1981.9,1164.05 1984.11,1160.12 1986.31,1156.15 1988.52,1152.14 1990.73,1148.1 1992.94,1144.01 1995.14,1139.88 1997.35,1135.71 1999.56,1131.5 2001.77,1127.24 2003.97,1122.95 2006.18,1118.61 2008.39,1114.22 2010.6,1109.8 2012.8,1105.32 2015.01,1100.81 2017.22,1096.25 2019.43,1091.64 2021.63,1086.98 2023.84,1082.28 2026.05,1077.53 2028.26,1072.74 2030.46,1067.89 2032.67,1063 2034.88,1058.06 2037.09,1053.07 2039.29,1048.02 2041.5,1042.93 2043.71,1037.79 2045.92,1032.59 2048.12,1027.34 2050.33,1022.04 2052.54,1016.69 2054.75,1011.28 2056.95,1005.82 2059.16,1000.3 2061.37,994.727 2063.58,989.098 2065.78,983.412 2067.99,977.669 2070.2,971.869 2072.41,966.01 2074.61,960.092 2076.82,954.114 2079.03,948.077 2081.24,941.978 2083.44,935.819 2085.65,929.597 2087.86,923.312 2090.07,916.965 2092.27,910.553 2094.48,904.077 2096.69,897.536 2098.9,890.929 2101.1,884.255 2103.31,877.514 2105.52,870.706 2107.73,863.829 2109.93,856.882 2112.14,849.866 2114.35,842.78 2116.55,835.622 2118.76,828.392 2120.97,821.089 2123.18,898.304 2125.38,894.58 2127.59,890.818 2129.8,887.018 2132.01,883.18 2134.21,879.303 2136.42,875.388 2138.63,871.433 2140.84,867.438 2143.04,863.403 2145.25,859.328 2147.46,855.211 2149.67,851.053 2151.87,846.854 2154.08,842.612 2156.29,838.327 2158.5,833.999 2160.7,829.628 2162.91,825.213 2165.12,820.753 2167.33,868.468 2169.53,866.193 2171.74,863.895 2173.95,861.574 2176.16,859.23 2178.36,856.862 2180.57,854.47 2182.78,852.054 2184.99,849.614 2187.19,847.149 2189.4,844.66 2191.61,842.145 2193.82,839.606 2196.02,837.04 2198.23,834.449 2200.44,831.832 2202.65,829.189 2204.85,826.518 2207.06,823.821 2209.27,821.097 2211.48,956.903 2213.68,955.513 2215.89,954.109 2218.1,952.692 2220.31,951.26 2222.51,949.813 2224.72,948.352 2226.93,946.877 2229.14,945.386 2231.34,943.881 2233.55,942.36 2235.76,940.824 2237.97,939.273 2240.17,937.706 2242.38,936.123 2244.59,934.524 2246.8,932.91 2249,931.279 2251.21,929.632 2253.42,927.968 2255.63,926.287 2257.83,924.59 2260.04,922.875 2262.25,921.143 2264.46,919.394 2266.66,917.627 2268.87,915.843 2271.08,914.04 2273.29,912.22 2275.49,910.381 2277.7,908.523 2279.91,906.647 2282.12,904.752 2284.32,902.838 2286.53,900.905 2288.74,898.952 2290.95,896.979 2293.15,894.987 2295.36,892.975 2297.57,890.942 2299.78,888.889 2301.98,886.815 2304.19,884.72 2306.4,882.605 2308.61,880.468 2310.81,878.309 2313.02,876.129 2315.23,873.926 2317.44,871.702 2319.64,869.455 2321.85,867.185 2324.06,864.893 2326.27,862.577 2328.47,860.239 2330.68,857.876 2332.89,855.49 2335.1,853.08 2337.3,850.646 2339.51,848.187 2341.72,845.704 2343.93,843.195 2346.13,840.661 2348.34,838.102 2350.55,835.517 2352.76,832.907 "/>
<path clip-path="url(#clip320)" d="M220.987 248.629 L530.612 248.629 L530.612 93.1086 L220.987 93.1086  Z" fill="#ffffff" fill-rule="evenodd" fill-opacity="1"/>
<polyline clip-path="url(#clip320)" style="stroke:#000000; stroke-linecap:round; stroke-linejoin:round; stroke-width:4; stroke-opacity:1; fill:none" points="220.987,248.629 530.612,248.629 530.612,93.1086 220.987,93.1086 220.987,248.629 "/>
<polyline clip-path="url(#clip320)" style="stroke:#009af9; stroke-linecap:round; stroke-linejoin:round; stroke-width:8; stroke-opacity:1; fill:none" points="245.49,144.949 392.509,144.949 "/>
<path clip-path="url(#clip320)" d="M417.012 151.997 L417.012 136.303 L421.271 136.303 L421.271 151.835 Q421.271 155.516 422.706 157.368 Q424.141 159.196 427.012 159.196 Q430.461 159.196 432.452 156.997 Q434.466 154.798 434.466 151.002 L434.466 136.303 L438.725 136.303 L438.725 162.229 L434.466 162.229 L434.466 158.247 Q432.915 160.608 430.854 161.766 Q428.817 162.9 426.109 162.9 Q421.641 162.9 419.327 160.122 Q417.012 157.344 417.012 151.997 M427.729 135.678 L427.729 135.678 Z" fill="#000000" fill-rule="nonzero" fill-opacity="1" /><path clip-path="url(#clip320)" d="M447.104 126.21 L456.919 126.21 L456.919 129.52 L451.364 129.52 L451.364 165.168 L456.919 165.168 L456.919 168.479 L447.104 168.479 L447.104 126.21 Z" fill="#000000" fill-rule="nonzero" fill-opacity="1" /><path clip-path="url(#clip320)" d="M467.405 158.293 L475.044 158.293 L475.044 131.928 L466.734 133.595 L466.734 129.335 L474.998 127.669 L479.674 127.669 L479.674 158.293 L487.312 158.293 L487.312 162.229 L467.405 162.229 L467.405 158.293 Z" fill="#000000" fill-rule="nonzero" fill-opacity="1" /><path clip-path="url(#clip320)" d="M506.109 126.21 L506.109 168.479 L496.294 168.479 L496.294 165.168 L501.826 165.168 L501.826 129.52 L496.294 129.52 L496.294 126.21 L506.109 126.21 Z" fill="#000000" fill-rule="nonzero" fill-opacity="1" /><polyline clip-path="url(#clip320)" style="stroke:#e26f46; stroke-linecap:round; stroke-linejoin:round; stroke-width:8; stroke-opacity:1; fill:none" points="245.49,196.789 392.509,196.789 "/>
<path clip-path="url(#clip320)" d="M417.012 203.837 L417.012 188.143 L421.271 188.143 L421.271 203.675 Q421.271 207.356 422.706 209.208 Q424.141 211.036 427.012 211.036 Q430.461 211.036 432.452 208.837 Q434.466 206.638 434.466 202.842 L434.466 188.143 L438.725 188.143 L438.725 214.069 L434.466 214.069 L434.466 210.087 Q432.915 212.448 430.854 213.606 Q428.817 214.74 426.109 214.74 Q421.641 214.74 419.327 211.962 Q417.012 209.184 417.012 203.837 M427.729 187.518 L427.729 187.518 Z" fill="#000000" fill-rule="nonzero" fill-opacity="1" /><path clip-path="url(#clip320)" d="M447.104 178.05 L456.919 178.05 L456.919 181.36 L451.364 181.36 L451.364 217.008 L456.919 217.008 L456.919 220.319 L447.104 220.319 L447.104 178.05 Z" fill="#000000" fill-rule="nonzero" fill-opacity="1" /><path clip-path="url(#clip320)" d="M470.623 210.133 L486.942 210.133 L486.942 214.069 L464.998 214.069 L464.998 210.133 Q467.66 207.379 472.243 202.749 Q476.85 198.096 478.03 196.754 Q480.275 194.231 481.155 192.495 Q482.058 190.735 482.058 189.046 Q482.058 186.291 480.113 184.555 Q478.192 182.819 475.09 182.819 Q472.891 182.819 470.438 183.583 Q468.007 184.347 465.229 185.897 L465.229 181.175 Q468.053 180.041 470.507 179.462 Q472.961 178.884 474.998 178.884 Q480.368 178.884 483.562 181.569 Q486.757 184.254 486.757 188.745 Q486.757 190.874 485.947 192.796 Q485.16 194.694 483.053 197.286 Q482.475 197.958 479.373 201.175 Q476.271 204.37 470.623 210.133 Z" fill="#000000" fill-rule="nonzero" fill-opacity="1" /><path clip-path="url(#clip320)" d="M506.109 178.05 L506.109 220.319 L496.294 220.319 L496.294 217.008 L501.826 217.008 L501.826 181.36 L496.294 181.36 L496.294 178.05 L506.109 178.05 Z" fill="#000000" fill-rule="nonzero" fill-opacity="1" /></svg>
