<?xml version="1.0" encoding="utf-8"?>
<svg xmlns="http://www.w3.org/2000/svg" xmlns:xlink="http://www.w3.org/1999/xlink" width="600" height="400" viewBox="0 0 2400 1600">
<defs>
  <clipPath id="clip760">
    <rect x="0" y="0" width="2400" height="1600"/>
  </clipPath>
</defs>
<path clip-path="url(#clip760)" d="M0 1600 L2400 1600 L2400 0 L0 0  Z" fill="#ffffff" fill-rule="evenodd" fill-opacity="1"/>
<defs>
  <clipPath id="clip761">
    <rect x="480" y="0" width="1681" height="1600"/>
  </clipPath>
</defs>
<path clip-path="url(#clip760)" d="M192.941 1423.18 L2352.76 1423.18 L2352.76 47.2441 L192.941 47.2441  Z" fill="#ffffff" fill-rule="evenodd" fill-opacity="1"/>
<defs>
  <clipPath id="clip762">
    <rect x="192" y="47" width="2161" height="1377"/>
  </clipPath>
</defs>
<polyline clip-path="url(#clip762)" style="stroke:#000000; stroke-linecap:round; stroke-linejoin:round; stroke-width:2; stroke-opacity:0.1; fill:none" points="192.941,1423.18 192.941,47.2441 "/>
<polyline clip-path="url(#clip762)" style="stroke:#000000; stroke-linecap:round; stroke-linejoin:round; stroke-width:2; stroke-opacity:0.1; fill:none" points="624.904,1423.18 624.904,47.2441 "/>
<polyline clip-path="url(#clip762)" style="stroke:#000000; stroke-linecap:round; stroke-linejoin:round; stroke-width:2; stroke-opacity:0.1; fill:none" points="1056.87,1423.18 1056.87,47.2441 "/>
<polyline clip-path="url(#clip762)" style="stroke:#000000; stroke-linecap:round; stroke-linejoin:round; stroke-width:2; stroke-opacity:0.1; fill:none" points="1488.83,1423.18 1488.83,47.2441 "/>
<polyline clip-path="url(#clip762)" style="stroke:#000000; stroke-linecap:round; stroke-linejoin:round; stroke-width:2; stroke-opacity:0.1; fill:none" points="1920.79,1423.18 1920.79,47.2441 "/>
<polyline clip-path="url(#clip762)" style="stroke:#000000; stroke-linecap:round; stroke-linejoin:round; stroke-width:2; stroke-opacity:0.1; fill:none" points="2352.76,1423.18 2352.76,47.2441 "/>
<polyline clip-path="url(#clip760)" style="stroke:#000000; stroke-linecap:round; stroke-linejoin:round; stroke-width:4; stroke-opacity:1; fill:none" points="192.941,1423.18 2352.76,1423.18 "/>
<polyline clip-path="url(#clip760)" style="stroke:#000000; stroke-linecap:round; stroke-linejoin:round; stroke-width:4; stroke-opacity:1; fill:none" points="192.941,1423.18 192.941,1404.28 "/>
<polyline clip-path="url(#clip760)" style="stroke:#000000; stroke-linecap:round; stroke-linejoin:round; stroke-width:4; stroke-opacity:1; fill:none" points="624.904,1423.18 624.904,1404.28 "/>
<polyline clip-path="url(#clip760)" style="stroke:#000000; stroke-linecap:round; stroke-linejoin:round; stroke-width:4; stroke-opacity:1; fill:none" points="1056.87,1423.18 1056.87,1404.28 "/>
<polyline clip-path="url(#clip760)" style="stroke:#000000; stroke-linecap:round; stroke-linejoin:round; stroke-width:4; stroke-opacity:1; fill:none" points="1488.83,1423.18 1488.83,1404.28 "/>
<polyline clip-path="url(#clip760)" style="stroke:#000000; stroke-linecap:round; stroke-linejoin:round; stroke-width:4; stroke-opacity:1; fill:none" points="1920.79,1423.18 1920.79,1404.28 "/>
<polyline clip-path="url(#clip760)" style="stroke:#000000; stroke-linecap:round; stroke-linejoin:round; stroke-width:4; stroke-opacity:1; fill:none" points="2352.76,1423.18 2352.76,1404.28 "/>
<path clip-path="url(#clip760)" d="M192.941 1454.1 Q189.33 1454.1 187.501 1457.66 Q185.695 1461.2 185.695 1468.33 Q185.695 1475.44 187.501 1479.01 Q189.33 1482.55 192.941 1482.55 Q196.575 1482.55 198.38 1479.01 Q200.209 1475.44 200.209 1468.33 Q200.209 1461.2 198.38 1457.66 Q196.575 1454.1 192.941 1454.1 M192.941 1450.39 Q198.751 1450.39 201.806 1455 Q204.885 1459.58 204.885 1468.33 Q204.885 1477.06 201.806 1481.67 Q198.751 1486.25 192.941 1486.25 Q187.13 1486.25 184.052 1481.67 Q180.996 1477.06 180.996 1468.33 Q180.996 1459.58 184.052 1455 Q187.13 1450.39 192.941 1450.39 Z" fill="#000000" fill-rule="nonzero" fill-opacity="1" /><path clip-path="url(#clip760)" d="M619.556 1481.64 L635.876 1481.64 L635.876 1485.58 L613.932 1485.58 L613.932 1481.64 Q616.594 1478.89 621.177 1474.26 Q625.783 1469.61 626.964 1468.27 Q629.209 1465.74 630.089 1464.01 Q630.992 1462.25 630.992 1460.56 Q630.992 1457.8 629.047 1456.07 Q627.126 1454.33 624.024 1454.33 Q621.825 1454.33 619.371 1455.09 Q616.941 1455.86 614.163 1457.41 L614.163 1452.69 Q616.987 1451.55 619.441 1450.97 Q621.894 1450.39 623.931 1450.39 Q629.302 1450.39 632.496 1453.08 Q635.691 1455.77 635.691 1460.26 Q635.691 1462.39 634.88 1464.31 Q634.093 1466.2 631.987 1468.8 Q631.408 1469.47 628.306 1472.69 Q625.205 1475.88 619.556 1481.64 Z" fill="#000000" fill-rule="nonzero" fill-opacity="1" /><path clip-path="url(#clip760)" d="M1059.88 1455.09 L1048.07 1473.54 L1059.88 1473.54 L1059.88 1455.09 M1058.65 1451.02 L1064.53 1451.02 L1064.53 1473.54 L1069.46 1473.54 L1069.46 1477.43 L1064.53 1477.43 L1064.53 1485.58 L1059.88 1485.58 L1059.88 1477.43 L1044.27 1477.43 L1044.27 1472.92 L1058.65 1451.02 Z" fill="#000000" fill-rule="nonzero" fill-opacity="1" /><path clip-path="url(#clip760)" d="M1489.23 1466.44 Q1486.09 1466.44 1484.23 1468.59 Q1482.41 1470.74 1482.41 1474.49 Q1482.41 1478.22 1484.23 1480.39 Q1486.09 1482.55 1489.23 1482.55 Q1492.38 1482.55 1494.21 1480.39 Q1496.06 1478.22 1496.06 1474.49 Q1496.06 1470.74 1494.21 1468.59 Q1492.38 1466.44 1489.23 1466.44 M1498.52 1451.78 L1498.52 1456.04 Q1496.76 1455.21 1494.95 1454.77 Q1493.17 1454.33 1491.41 1454.33 Q1486.78 1454.33 1484.33 1457.45 Q1481.9 1460.58 1481.55 1466.9 Q1482.92 1464.89 1484.98 1463.82 Q1487.04 1462.73 1489.51 1462.73 Q1494.72 1462.73 1497.73 1465.9 Q1500.76 1469.05 1500.76 1474.49 Q1500.76 1479.82 1497.61 1483.03 Q1494.47 1486.25 1489.23 1486.25 Q1483.24 1486.25 1480.07 1481.67 Q1476.9 1477.06 1476.9 1468.33 Q1476.9 1460.14 1480.79 1455.28 Q1484.67 1450.39 1491.23 1450.39 Q1492.98 1450.39 1494.77 1450.74 Q1496.57 1451.09 1498.52 1451.78 Z" fill="#000000" fill-rule="nonzero" fill-opacity="1" /><path clip-path="url(#clip760)" d="M1920.79 1469.17 Q1917.46 1469.17 1915.54 1470.95 Q1913.64 1472.73 1913.64 1475.86 Q1913.64 1478.98 1915.54 1480.77 Q1917.46 1482.55 1920.79 1482.55 Q1924.13 1482.55 1926.05 1480.77 Q1927.97 1478.96 1927.97 1475.86 Q1927.97 1472.73 1926.05 1470.95 Q1924.15 1469.17 1920.79 1469.17 M1916.12 1467.18 Q1913.11 1466.44 1911.42 1464.38 Q1909.75 1462.32 1909.75 1459.35 Q1909.75 1455.21 1912.69 1452.8 Q1915.65 1450.39 1920.79 1450.39 Q1925.95 1450.39 1928.89 1452.8 Q1931.83 1455.21 1931.83 1459.35 Q1931.83 1462.32 1930.14 1464.38 Q1928.48 1466.44 1925.49 1467.18 Q1928.87 1467.96 1930.75 1470.26 Q1932.64 1472.55 1932.64 1475.86 Q1932.64 1480.88 1929.57 1483.57 Q1926.51 1486.25 1920.79 1486.25 Q1915.08 1486.25 1912 1483.57 Q1908.94 1480.88 1908.94 1475.86 Q1908.94 1472.55 1910.84 1470.26 Q1912.74 1467.96 1916.12 1467.18 M1914.4 1459.79 Q1914.4 1462.48 1916.07 1463.98 Q1917.76 1465.49 1920.79 1465.49 Q1923.8 1465.49 1925.49 1463.98 Q1927.2 1462.48 1927.2 1459.79 Q1927.2 1457.11 1925.49 1455.6 Q1923.8 1454.1 1920.79 1454.1 Q1917.76 1454.1 1916.07 1455.6 Q1914.4 1457.11 1914.4 1459.79 Z" fill="#000000" fill-rule="nonzero" fill-opacity="1" /><path clip-path="url(#clip760)" d="M2327.44 1481.64 L2335.08 1481.64 L2335.08 1455.28 L2326.77 1456.95 L2326.77 1452.69 L2335.04 1451.02 L2339.71 1451.02 L2339.71 1481.64 L2347.35 1481.64 L2347.35 1485.58 L2327.44 1485.58 L2327.44 1481.64 Z" fill="#000000" fill-rule="nonzero" fill-opacity="1" /><path clip-path="url(#clip760)" d="M2366.8 1454.1 Q2363.18 1454.1 2361.36 1457.66 Q2359.55 1461.2 2359.55 1468.33 Q2359.55 1475.44 2361.36 1479.01 Q2363.18 1482.55 2366.8 1482.55 Q2370.43 1482.55 2372.23 1479.01 Q2374.06 1475.44 2374.06 1468.33 Q2374.06 1461.2 2372.23 1457.66 Q2370.43 1454.1 2366.8 1454.1 M2366.8 1450.39 Q2372.61 1450.39 2375.66 1455 Q2378.74 1459.58 2378.74 1468.33 Q2378.74 1477.06 2375.66 1481.67 Q2372.61 1486.25 2366.8 1486.25 Q2360.99 1486.25 2357.91 1481.67 Q2354.85 1477.06 2354.85 1468.33 Q2354.85 1459.58 2357.91 1455 Q2360.99 1450.39 2366.8 1450.39 Z" fill="#000000" fill-rule="nonzero" fill-opacity="1" /><path clip-path="url(#clip760)" d="M1271.91 1522.27 L1271.91 1532.4 L1283.97 1532.4 L1283.97 1536.95 L1271.91 1536.95 L1271.91 1556.3 Q1271.91 1560.66 1273.09 1561.9 Q1274.3 1563.14 1277.96 1563.14 L1283.97 1563.14 L1283.97 1568.04 L1277.96 1568.04 Q1271.18 1568.04 1268.6 1565.53 Q1266.02 1562.98 1266.02 1556.3 L1266.02 1536.95 L1261.72 1536.95 L1261.72 1532.4 L1266.02 1532.4 L1266.02 1522.27 L1271.91 1522.27 Z" fill="#000000" fill-rule="nonzero" fill-opacity="1" /><polyline clip-path="url(#clip762)" style="stroke:#000000; stroke-linecap:round; stroke-linejoin:round; stroke-width:2; stroke-opacity:0.1; fill:none" points="192.941,1238.47 2352.76,1238.47 "/>
<polyline clip-path="url(#clip762)" style="stroke:#000000; stroke-linecap:round; stroke-linejoin:round; stroke-width:2; stroke-opacity:0.1; fill:none" points="192.941,978.336 2352.76,978.336 "/>
<polyline clip-path="url(#clip762)" style="stroke:#000000; stroke-linecap:round; stroke-linejoin:round; stroke-width:2; stroke-opacity:0.1; fill:none" points="192.941,718.204 2352.76,718.204 "/>
<polyline clip-path="url(#clip762)" style="stroke:#000000; stroke-linecap:round; stroke-linejoin:round; stroke-width:2; stroke-opacity:0.1; fill:none" points="192.941,458.072 2352.76,458.072 "/>
<polyline clip-path="url(#clip762)" style="stroke:#000000; stroke-linecap:round; stroke-linejoin:round; stroke-width:2; stroke-opacity:0.1; fill:none" points="192.941,197.94 2352.76,197.94 "/>
<polyline clip-path="url(#clip760)" style="stroke:#000000; stroke-linecap:round; stroke-linejoin:round; stroke-width:4; stroke-opacity:1; fill:none" points="192.941,1423.18 192.941,47.2441 "/>
<polyline clip-path="url(#clip760)" style="stroke:#000000; stroke-linecap:round; stroke-linejoin:round; stroke-width:4; stroke-opacity:1; fill:none" points="192.941,1238.47 211.838,1238.47 "/>
<polyline clip-path="url(#clip760)" style="stroke:#000000; stroke-linecap:round; stroke-linejoin:round; stroke-width:4; stroke-opacity:1; fill:none" points="192.941,978.336 211.838,978.336 "/>
<polyline clip-path="url(#clip760)" style="stroke:#000000; stroke-linecap:round; stroke-linejoin:round; stroke-width:4; stroke-opacity:1; fill:none" points="192.941,718.204 211.838,718.204 "/>
<polyline clip-path="url(#clip760)" style="stroke:#000000; stroke-linecap:round; stroke-linejoin:round; stroke-width:4; stroke-opacity:1; fill:none" points="192.941,458.072 211.838,458.072 "/>
<polyline clip-path="url(#clip760)" style="stroke:#000000; stroke-linecap:round; stroke-linejoin:round; stroke-width:4; stroke-opacity:1; fill:none" points="192.941,197.94 211.838,197.94 "/>
<path clip-path="url(#clip760)" d="M50.9921 1238.92 L80.6679 1238.92 L80.6679 1242.85 L50.9921 1242.85 L50.9921 1238.92 Z" fill="#000000" fill-rule="nonzero" fill-opacity="1" /><path clip-path="url(#clip760)" d="M94.7882 1251.81 L111.108 1251.81 L111.108 1255.75 L89.1632 1255.75 L89.1632 1251.81 Q91.8252 1249.06 96.4085 1244.43 Q101.015 1239.78 102.196 1238.43 Q104.441 1235.91 105.321 1234.17 Q106.223 1232.42 106.223 1230.73 Q106.223 1227.97 104.279 1226.23 Q102.358 1224.5 99.2558 1224.5 Q97.0567 1224.5 94.603 1225.26 Q92.1725 1226.03 89.3947 1227.58 L89.3947 1222.85 Q92.2188 1221.72 94.6724 1221.14 Q97.1261 1220.56 99.1632 1220.56 Q104.534 1220.56 107.728 1223.25 Q110.922 1225.93 110.922 1230.42 Q110.922 1232.55 110.112 1234.48 Q109.325 1236.37 107.219 1238.97 Q106.64 1239.64 103.538 1242.85 Q100.436 1246.05 94.7882 1251.81 Z" fill="#000000" fill-rule="nonzero" fill-opacity="1" /><path clip-path="url(#clip760)" d="M120.922 1249.87 L125.807 1249.87 L125.807 1255.75 L120.922 1255.75 L120.922 1249.87 Z" fill="#000000" fill-rule="nonzero" fill-opacity="1" /><path clip-path="url(#clip760)" d="M136.038 1221.19 L154.394 1221.19 L154.394 1225.12 L140.32 1225.12 L140.32 1233.6 Q141.339 1233.25 142.357 1233.09 Q143.376 1232.9 144.394 1232.9 Q150.181 1232.9 153.561 1236.07 Q156.941 1239.24 156.941 1244.66 Q156.941 1250.24 153.468 1253.34 Q149.996 1256.42 143.677 1256.42 Q141.501 1256.42 139.232 1256.05 Q136.987 1255.68 134.58 1254.94 L134.58 1250.24 Q136.663 1251.37 138.885 1251.93 Q141.107 1252.48 143.584 1252.48 Q147.589 1252.48 149.927 1250.38 Q152.265 1248.27 152.265 1244.66 Q152.265 1241.05 149.927 1238.94 Q147.589 1236.84 143.584 1236.84 Q141.709 1236.84 139.834 1237.25 Q137.982 1237.67 136.038 1238.55 L136.038 1221.19 Z" fill="#000000" fill-rule="nonzero" fill-opacity="1" /><path clip-path="url(#clip760)" d="M99.765 964.135 Q96.1539 964.135 94.3252 967.7 Q92.5197 971.241 92.5197 978.371 Q92.5197 985.477 94.3252 989.042 Q96.1539 992.584 99.765 992.584 Q103.399 992.584 105.205 989.042 Q107.033 985.477 107.033 978.371 Q107.033 971.241 105.205 967.7 Q103.399 964.135 99.765 964.135 M99.765 960.431 Q105.575 960.431 108.631 965.038 Q111.709 969.621 111.709 978.371 Q111.709 987.098 108.631 991.704 Q105.575 996.288 99.765 996.288 Q93.9549 996.288 90.8762 991.704 Q87.8206 987.098 87.8206 978.371 Q87.8206 969.621 90.8762 965.038 Q93.9549 960.431 99.765 960.431 Z" fill="#000000" fill-rule="nonzero" fill-opacity="1" /><path clip-path="url(#clip760)" d="M119.927 989.737 L124.811 989.737 L124.811 995.616 L119.927 995.616 L119.927 989.737 Z" fill="#000000" fill-rule="nonzero" fill-opacity="1" /><path clip-path="url(#clip760)" d="M144.996 964.135 Q141.385 964.135 139.556 967.7 Q137.751 971.241 137.751 978.371 Q137.751 985.477 139.556 989.042 Q141.385 992.584 144.996 992.584 Q148.63 992.584 150.436 989.042 Q152.265 985.477 152.265 978.371 Q152.265 971.241 150.436 967.7 Q148.63 964.135 144.996 964.135 M144.996 960.431 Q150.806 960.431 153.862 965.038 Q156.941 969.621 156.941 978.371 Q156.941 987.098 153.862 991.704 Q150.806 996.288 144.996 996.288 Q139.186 996.288 136.107 991.704 Q133.052 987.098 133.052 978.371 Q133.052 969.621 136.107 965.038 Q139.186 960.431 144.996 960.431 Z" fill="#000000" fill-rule="nonzero" fill-opacity="1" /><path clip-path="url(#clip760)" d="M94.7882 731.549 L111.108 731.549 L111.108 735.484 L89.1632 735.484 L89.1632 731.549 Q91.8252 728.795 96.4085 724.165 Q101.015 719.512 102.196 718.17 Q104.441 715.646 105.321 713.91 Q106.223 712.151 106.223 710.461 Q106.223 707.707 104.279 705.971 Q102.358 704.234 99.2558 704.234 Q97.0567 704.234 94.603 704.998 Q92.1725 705.762 89.3947 707.313 L89.3947 702.591 Q92.2188 701.457 94.6724 700.878 Q97.1261 700.299 99.1632 700.299 Q104.534 700.299 107.728 702.984 Q110.922 705.67 110.922 710.16 Q110.922 712.29 110.112 714.211 Q109.325 716.109 107.219 718.702 Q106.64 719.373 103.538 722.591 Q100.436 725.785 94.7882 731.549 Z" fill="#000000" fill-rule="nonzero" fill-opacity="1" /><path clip-path="url(#clip760)" d="M120.922 729.605 L125.807 729.605 L125.807 735.484 L120.922 735.484 L120.922 729.605 Z" fill="#000000" fill-rule="nonzero" fill-opacity="1" /><path clip-path="url(#clip760)" d="M136.038 700.924 L154.394 700.924 L154.394 704.859 L140.32 704.859 L140.32 713.332 Q141.339 712.984 142.357 712.822 Q143.376 712.637 144.394 712.637 Q150.181 712.637 153.561 715.809 Q156.941 718.98 156.941 724.396 Q156.941 729.975 153.468 733.077 Q149.996 736.156 143.677 736.156 Q141.501 736.156 139.232 735.785 Q136.987 735.415 134.58 734.674 L134.58 729.975 Q136.663 731.109 138.885 731.665 Q141.107 732.22 143.584 732.22 Q147.589 732.22 149.927 730.114 Q152.265 728.008 152.265 724.396 Q152.265 720.785 149.927 718.679 Q147.589 716.572 143.584 716.572 Q141.709 716.572 139.834 716.989 Q137.982 717.406 136.038 718.285 L136.038 700.924 Z" fill="#000000" fill-rule="nonzero" fill-opacity="1" /><path clip-path="url(#clip760)" d="M89.8114 440.792 L108.168 440.792 L108.168 444.727 L94.0937 444.727 L94.0937 453.2 Q95.1123 452.852 96.1308 452.69 Q97.1493 452.505 98.1678 452.505 Q103.955 452.505 107.334 455.676 Q110.714 458.848 110.714 464.264 Q110.714 469.843 107.242 472.945 Q103.77 476.024 97.4502 476.024 Q95.2743 476.024 93.0058 475.653 Q90.7604 475.283 88.353 474.542 L88.353 469.843 Q90.4364 470.977 92.6586 471.533 Q94.8808 472.088 97.3576 472.088 Q101.362 472.088 103.7 469.982 Q106.038 467.876 106.038 464.264 Q106.038 460.653 103.7 458.547 Q101.362 456.44 97.3576 456.44 Q95.4826 456.44 93.6076 456.857 Q91.7558 457.274 89.8114 458.153 L89.8114 440.792 Z" fill="#000000" fill-rule="nonzero" fill-opacity="1" /><path clip-path="url(#clip760)" d="M119.927 469.473 L124.811 469.473 L124.811 475.352 L119.927 475.352 L119.927 469.473 Z" fill="#000000" fill-rule="nonzero" fill-opacity="1" /><path clip-path="url(#clip760)" d="M144.996 443.871 Q141.385 443.871 139.556 447.436 Q137.751 450.977 137.751 458.107 Q137.751 465.213 139.556 468.778 Q141.385 472.32 144.996 472.32 Q148.63 472.32 150.436 468.778 Q152.265 465.213 152.265 458.107 Q152.265 450.977 150.436 447.436 Q148.63 443.871 144.996 443.871 M144.996 440.167 Q150.806 440.167 153.862 444.774 Q156.941 449.357 156.941 458.107 Q156.941 466.834 153.862 471.44 Q150.806 476.024 144.996 476.024 Q139.186 476.024 136.107 471.44 Q133.052 466.834 133.052 458.107 Q133.052 449.357 136.107 444.774 Q139.186 440.167 144.996 440.167 Z" fill="#000000" fill-rule="nonzero" fill-opacity="1" /><path clip-path="url(#clip760)" d="M89.5799 180.66 L111.802 180.66 L111.802 182.651 L99.2558 215.22 L94.3715 215.22 L106.177 184.595 L89.5799 184.595 L89.5799 180.66 Z" fill="#000000" fill-rule="nonzero" fill-opacity="1" /><path clip-path="url(#clip760)" d="M120.922 209.341 L125.807 209.341 L125.807 215.22 L120.922 215.22 L120.922 209.341 Z" fill="#000000" fill-rule="nonzero" fill-opacity="1" /><path clip-path="url(#clip760)" d="M136.038 180.66 L154.394 180.66 L154.394 184.595 L140.32 184.595 L140.32 193.068 Q141.339 192.72 142.357 192.558 Q143.376 192.373 144.394 192.373 Q150.181 192.373 153.561 195.544 Q156.941 198.716 156.941 204.132 Q156.941 209.711 153.468 212.813 Q149.996 215.892 143.677 215.892 Q141.501 215.892 139.232 215.521 Q136.987 215.151 134.58 214.41 L134.58 209.711 Q136.663 210.845 138.885 211.401 Q141.107 211.956 143.584 211.956 Q147.589 211.956 149.927 209.85 Q152.265 207.744 152.265 204.132 Q152.265 200.521 149.927 198.415 Q147.589 196.308 143.584 196.308 Q141.709 196.308 139.834 196.725 Q137.982 197.142 136.038 198.021 L136.038 180.66 Z" fill="#000000" fill-rule="nonzero" fill-opacity="1" /><polyline clip-path="url(#clip762)" style="stroke:#009af9; stroke-linecap:round; stroke-linejoin:round; stroke-width:8; stroke-opacity:1; fill:none" points="192.941,957.526 193.209,957.141 193.458,957.681 193.737,958.269 194.051,958.536 194.405,958.133 194.803,958.867 195.251,958.137 195.754,958.497 196.321,957.434 196.958,958.937 197.675,956.587 198.482,953.775 199.389,954.751 200.41,956.338 201.559,951.959 202.851,951.261 204.304,950.722 205.94,949.02 207.78,949.555 209.849,952.412 212.178,950.892 214.797,953.3 217.744,952.421 221.059,953.501 224.789,953.121 228.985,953.037 233.705,952.063 239.016,954.614 244.99,957.952 251.711,955.899 259.272,956.549 266.943,957.643 275.572,959.048 285.135,958.346 295.892,952.798 307.994,954.357 317.995,957.964 329.246,958.297 341.903,963.791 354.666,967.168 369.024,962.873 385.177,963.593 397.125,962.664 410.567,963.3 425.66,951.577 442.639,948.398 457.685,939.105 474.611,939.479 487.117,928.383 501.186,930.794 513.182,938.651 524.063,933.904 536.305,916.943 550.077,900.251 563.741,898.492 573.64,912.747 583.928,899.76 595.501,883.119 607.272,851.405 614.801,877.606 620.94,878.245 627.847,819.238 634.657,836.314 640.615,835.685 647.318,835.43 653.67,840.589 659.929,860.51 666.135,866.72 672.745,840.815 680.181,834.963 686.646,857.266 692.822,832.845 699.769,796.921 706.279,778.676 712.353,781.626 717.921,801.404 723.246,823.232 728.589,810.18 734.432,820.443 739.743,815.392 745.29,832.835 750.511,803.963 756.385,784.564 761.665,719.227 766.75,707.66 771.143,724.983 775.307,643.353 778.818,490.479 781.499,520.519 783.99,537.496 786.38,438.353 788.578,426.982 790.559,438.434 792.401,451.589 794.14,355.848 795.748,313.192 797.199,237.514 798.506,261.476 799.693,90.2258 799.911,86.1857 800.903,536.66 802.018,536.737 803.132,614.537 804.31,622.237 805.583,649.208 805.727,650.404 807.036,805.937 808.508,791.557 810.165,812.972 811.991,788.411 814.046,796.432 816.173,791.169 818.544,794.915 820.985,809.571 823.581,824.863 826.355,832.772 829.335,807.398 832.484,773.781 835.533,756.108 838.433,728.809 841.245,750.48 843.881,717.785 846.572,768.791 846.593,768.538 849.117,858.44 851.957,860.645 854.973,867.852 858.358,873.477 862.168,886.304 866.357,882.882 871.07,850.723 876.201,828.378 881.277,839.492 885.973,841.163 891.081,807.601 896.44,845.371 901.202,863.668 906.428,854.32 912.123,845.401 917.699,827.412 923.292,845.223 928.286,820.19 933.904,824.778 938.787,834.573 943.739,888.728 949.31,885.108 954.993,889.41 960.637,885.351 966.745,903.827 972.404,902.268 978.771,912.291 984.768,919.353 991.363,926.192 998.24,929.199 1005.59,928.162 1013.72,930.538 1021.73,921.48 1030.75,886.408 1038.64,891.238 1045.53,880.781 1052.81,881.679 1059.25,863.911 1065.82,846.43 1067.39,829.959 1073.26,884.652 1079.86,875.864 1085.76,831.711 1091.37,853.46 1096.18,843.453 1101.34,833.642 1103.35,817.798 1108.02,879.663 1113.27,895.295 1118.01,897.943 1123.34,895.132 1129.15,902.667 1134.77,901.247 1141.08,907.221 1147.32,909.495 1154.08,910.029 1161.25,913.014 1168.33,900.517 1176.3,914.461 1182.83,894.703 1190.17,907.608 1196.26,918.421 1203.09,924.229 1210.33,914.049 1218.46,898.904 1226.38,895.096 1233.73,875.84 1241.38,909.277 1248.38,911.012 1255.82,859.759 1262.24,859.634 1268.4,843.064 1274.43,833.344 1279.87,861.798 1284.94,862.187 1290.26,874.962 1295.26,881.428 1299.67,864.023 1304.86,925.478 1310.69,921.079 1317.25,902.76 1324.11,898.307 1330.45,907.023 1336.65,914.802 1343.28,918.982 1350.14,927.051 1357.35,922.899 1365.46,918.498 1373.41,891.109 1381.37,889.495 1388.22,846.885 1394.9,832.485 1398.58,833.007 1404.27,901.11 1410.67,890.325 1417.69,901.688 1423.75,881.582 1430.57,877.617 1437.04,874.838 1443.79,854.642 1450.94,881.284 1456.9,873.556 1463.59,905.78 1470.11,894.684 1477.45,900.68 1484.1,898.419 1491.57,878.053 1499.4,859.656 1506.73,856.091 1513.49,812.351 1520.27,849.941 1525.84,843.655 1532.1,844.887 1537.81,804.429 1543.64,800.597 1548.67,839.296 1553.56,842.61 1558.68,836.221 1563.66,835.002 1568.5,834.247 1573.24,833.41 1577.84,858.229 1582.31,880.585 1587.03,871.974 1592.2,853.832 1597.19,831.295 1600.49,839.335 1604.09,914.274 1608.13,893.336 1612.67,909.878 1615.42,902.035 1619.71,936.822 1622.82,929.267 1626.31,952.449 1630.25,950.744 1634.67,947.5 1639.65,939.243 1645.25,932.882 1651.55,933.074 1657.93,928.614 1665.12,935.793 1671.61,932.923 1678.91,932.571 1686.37,917.48 1694.77,916.737 1702.03,901.987 1710.21,883.372 1719.41,892.888 1725.7,886.009 1732.78,905.88 1738.75,902.067 1745.47,901.359 1752.17,837.294 1757.28,794.629 1763.04,751.288 1768.97,673.346 1775,693.439 1779.81,703.314 1785.21,757.813 1790.01,807.171 1795.42,795.109 1801.43,802.81 1806.83,826.888 1812.57,795.289 1819.04,785.705 1824.63,795.817 1830.3,821.574 1835.78,842.932 1841.15,855.84 1847.18,888.042 1853.53,902.923 1860.11,900.774 1867.51,901.761 1875.23,906.015 1882.31,889.462 1890.29,897.784 1896.66,895.063 1903.83,909.085 1905.79,906.465 1907.99,943.697 1910.48,944.442 1913.27,937.309 1916.41,936.467 1919.95,936.638 1923.92,933.508 1928.4,927.689 1933.43,917.86 1939.1,881.606 1943.88,854.406 1949.25,834.793 1955.05,816.199 1961.24,766.985 1967.63,798.847 1972.82,821.86 1978.48,753.63 1984.84,693.589 1990.84,726.058 1995.85,788.088 2001.38,827.846 2006.81,829.247 2012.79,810.289 2019.51,824.54 2025.06,855.317 2030.77,851.108 2037.2,850.771 2043.53,850.067 2050.08,839.453 2057.19,822.728 2064.27,809.281 2071.1,801.284 2077.73,786.452 2084.15,809.27 2089.87,808.787 2096.06,807.001 2101.99,770.748 2108.3,726.207 2114.01,744.906 2118.99,758.657 2124.01,785.979 2128.83,754.989 2134.09,695.648 2134.29,691.639 2134.52,825.007 2134.78,826.226 2135.07,828.215 2135.39,819.539 2135.76,817.891 2136.17,820.319 2136.64,824.063 2137.16,821.017 2137.75,832.211 2138.41,844.528 2139.16,849.102 2139.99,846.48 2140.93,850.398 2141.99,855.516 2143.19,856.352 2144.53,856.512 2146.04,851.718 2147.74,872.565 2149.65,882.502 2151.8,893.001 2154.21,899.804 2156.93,890.891 2159.99,877.533 2163.43,874.139 2164.69,867.346 2166.11,913.491 2167.7,918.1 2169.49,906.962 2171.51,907.355 2173.78,904.231 2176.33,901.345 2179.2,901.991 2182.43,895.469 2186.06,877.481 2190.15,870.231 2194.39,843.404 2199.01,823.89 2203.5,823.739 2207.87,853.225 2212.29,834.94 2217.26,805.563 2221.94,785.104 2226.39,796.293 2230.53,750.557 2234.79,822.887 2238.94,784.983 2243.28,761.267 2247.13,738.977 2250.77,697.491 2254.11,701.743 2257.12,743.833 2260.03,755.881 2262.98,729.973 2265.84,698.921 2266.94,707.861 2269.55,856.266 2272.5,841.545 2275.81,809.512 2279.38,866.787 2283.4,867.779 2287.71,846.914 2292.55,821.787 2297.35,803.479 2302.07,821.727 2306.48,804.457 2311.41,811.728 2315.88,804.854 2320.62,820.197 2325.01,844.765 2329.58,847.013 2334.45,840.111 2339.46,839.246 2344.32,852.848 2349.11,857.077 2352.76,870.282 "/>
<polyline clip-path="url(#clip762)" style="stroke:#e26f46; stroke-linecap:round; stroke-linejoin:round; stroke-width:8; stroke-opacity:1; fill:none" points="192.941,1235.96 193.209,1235.93 193.458,1235.91 193.737,1235.88 194.051,1235.85 194.405,1235.82 194.803,1235.78 195.251,1235.74 195.754,1235.69 196.321,1235.64 196.958,1235.58 197.675,1235.51 198.482,1235.42 199.389,1235.32 200.41,1235.21 201.559,1235.08 202.851,1234.93 204.304,1234.74 205.94,1234.53 207.78,1234.28 209.849,1234.03 212.178,1233.75 214.797,1233.4 217.744,1233.05 221.059,1232.65 224.789,1232.22 228.985,1231.72 233.705,1231.15 239.016,1230.54 244.99,1229.92 251.711,1229.25 259.272,1228.56 266.943,1227.74 275.572,1226.99 285.135,1226.06 295.892,1224.98 307.994,1223.63 317.995,1222.64 329.246,1221.63 341.903,1220.62 354.666,1219.78 369.024,1218.79 385.177,1217.66 397.125,1216.83 410.567,1215.79 425.66,1214.36 442.639,1212.22 457.685,1209.71 474.611,1206.47 487.117,1204.05 501.186,1200.31 513.182,1197.93 524.063,1195.71 536.305,1192.61 550.077,1187.65 563.741,1183.08 573.64,1179.41 583.928,1175.95 595.501,1170.93 607.272,1164.49 614.801,1161.02 620.94,1158.19 627.847,1154.2 634.657,1149.36 640.615,1145.04 647.318,1140.54 653.67,1136.48 659.929,1132.54 666.135,1129.19 672.745,1125.46 680.181,1120.73 686.646,1116.62 692.822,1112.85 699.769,1107.94 706.279,1102.04 712.353,1096.55 717.921,1091.89 723.246,1087.8 728.589,1084 734.432,1079.28 739.743,1075.69 745.29,1071.52 750.511,1067.55 756.385,1062.62 761.665,1057.45 766.75,1051.02 771.143,1045.73 775.307,1040.1 778.818,1033.64 781.499,1027.87 783.99,1022.81 786.38,1017.34 788.578,1011.97 790.559,1006.92 792.401,1002.29 794.14,997.558 795.748,992.815 797.199,987.993 798.506,983.44 799.693,979.251 799.911,978.336 800.903,986.998 802.018,984.68 803.132,982.518 804.31,980.568 805.583,978.543 805.727,978.336 807.036,1013.89 808.508,1012.67 810.165,1011.35 811.991,1009.86 814.046,1008.12 816.173,1006.31 818.544,1004.2 820.985,1002.22 823.581,1000.32 826.355,998.458 829.335,996.201 832.484,993.529 835.533,990.478 838.433,987.342 841.245,984.171 843.881,981.29 846.572,978.358 846.593,978.336 849.117,1081.06 851.957,1079.56 854.973,1078.05 858.358,1076.39 862.168,1074.54 866.357,1072.68 871.07,1070.34 876.201,1067.04 881.277,1063.57 885.973,1060.54 891.081,1056.97 896.44,1052.82 901.202,1049.87 906.428,1047.1 912.123,1043.59 917.699,1039.75 923.292,1036.1 928.286,1032.73 933.904,1028.44 938.787,1025.09 943.739,1022.77 949.31,1020.47 954.993,1018.02 960.637,1015.56 966.745,1013.21 972.404,1011.09 978.771,1008.96 984.768,1007.23 991.363,1005.51 998.24,1004.03 1005.59,1002.37 1013.72,1000.52 1021.73,998.58 1030.75,995.616 1038.64,992.296 1045.53,989.323 1052.81,985.985 1059.25,982.936 1065.82,979.479 1067.39,978.336 1073.26,996.432 1079.86,993.355 1085.76,989.898 1091.37,986.03 1096.18,983.17 1101.34,979.762 1103.35,978.336 1108.02,1053.33 1113.27,1051.04 1118.01,1049.22 1123.34,1047.23 1129.15,1045.16 1134.77,1043.23 1141.08,1040.99 1147.32,1039.03 1154.08,1036.84 1161.25,1034.71 1168.33,1032.37 1176.3,1029.86 1182.83,1027.66 1190.17,1025.02 1196.26,1023.24 1203.09,1021.45 1210.33,1019.35 1218.46,1016.63 1226.38,1013.64 1233.73,1010.68 1241.38,1007.63 1248.38,1005.7 1255.82,1002.89 1262.24,999.47 1268.4,995.777 1274.43,991.716 1279.87,988.435 1284.94,985.705 1290.26,982.849 1295.26,980.464 1299.67,978.336 1304.86,1011.97 1310.69,1010.35 1317.25,1008.27 1324.11,1006.05 1330.45,1003.9 1336.65,1001.89 1343.28,1000.08 1350.14,998.124 1357.35,996.345 1365.46,994.263 1373.41,991.761 1381.37,988.59 1388.22,985.145 1394.9,981.005 1398.58,978.336 1404.27,1090.31 1410.67,1087.9 1417.69,1085.24 1423.75,1082.95 1430.57,1079.55 1437.04,1076.29 1443.79,1072.78 1450.94,1069.09 1456.9,1066.4 1463.59,1063.72 1470.11,1061.54 1477.45,1058.64 1484.1,1055.97 1491.57,1052.57 1499.4,1048.63 1506.73,1044.46 1513.49,1039.76 1520.27,1035.32 1525.84,1031.99 1532.1,1027.88 1537.81,1023.88 1543.64,1019.16 1548.67,1015.51 1553.56,1012.2 1558.68,1008.47 1563.66,1005.27 1568.5,1002.15 1573.24,998.755 1577.84,995.875 1582.31,993.486 1587.03,991.419 1592.2,988.775 1597.19,985.586 1600.49,983.466 1604.09,982.318 1608.13,980.977 1612.67,979.258 1615.42,978.336 1619.71,1384.24 1622.82,1383.55 1626.31,1383.12 1630.25,1382.61 1634.67,1381.98 1639.65,1381.2 1645.25,1380.05 1651.55,1378.65 1657.93,1377.24 1665.12,1375.68 1671.61,1374.33 1678.91,1372.84 1686.37,1371.05 1694.77,1368.68 1702.03,1366.54 1710.21,1363.38 1719.41,1360.06 1725.7,1357.53 1732.78,1354.94 1738.75,1352.88 1745.47,1350.6 1752.17,1347.6 1757.28,1343.79 1763.04,1338.43 1768.97,1330.99 1775,1323.21 1779.81,1316.74 1785.21,1310.9 1790.01,1306.26 1795.42,1302.05 1801.43,1297.33 1806.83,1293.01 1812.57,1288.22 1819.04,1282.84 1824.63,1277.89 1830.3,1273.42 1835.78,1270.19 1841.15,1266.99 1847.18,1264 1853.53,1261.53 1860.11,1259.23 1867.51,1256.47 1875.23,1254.13 1882.31,1251.41 1890.29,1248.13 1896.66,1245.66 1903.83,1243.14 1905.79,1242.5 1907.99,1242.15 1910.48,1241.75 1913.27,1241.28 1916.41,1240.68 1919.95,1239.99 1923.92,1239.2 1928.4,1238.22 1933.43,1236.98 1939.1,1235.08 1943.88,1232.66 1949.25,1229.23 1955.05,1224.76 1961.24,1219.37 1967.63,1213.23 1972.82,1209.12 1978.48,1204.34 1984.84,1196.87 1990.84,1189.34 1995.85,1183.92 2001.38,1179.38 2006.81,1175.69 2012.79,1171.07 2019.51,1166.13 2025.06,1162.87 2030.77,1159.81 2037.2,1156.09 2043.53,1152.38 2050.08,1148.24 2057.19,1143.38 2064.27,1138.06 2071.1,1132.38 2077.73,1127.2 2084.15,1121.81 2089.87,1117.36 2096.06,1112.59 2101.99,1107.48 2108.3,1101.1 2114.01,1094.52 2118.99,1089.31 2124.01,1084.32 2128.83,1079.75 2134.09,1073.43 2134.29,1073.16 2134.52,1073 2134.78,1072.82 2135.07,1072.61 2135.39,1072.38 2135.76,1072.12 2136.17,1071.81 2136.64,1071.48 2137.16,1071.09 2137.75,1070.67 2138.41,1070.24 2139.16,1069.78 2139.99,1069.27 2140.93,1068.7 2141.99,1068.07 2143.19,1067.41 2144.53,1066.67 2146.04,1065.79 2147.74,1064.92 2149.65,1064.04 2151.8,1063.11 2154.21,1062.24 2156.93,1061.19 2159.99,1059.81 2163.43,1058.25 2164.69,1057.62 2166.11,1057.21 2167.7,1056.75 2169.49,1056.23 2171.51,1055.54 2173.78,1054.75 2176.33,1053.83 2179.2,1052.75 2182.43,1051.61 2186.06,1050.03 2190.15,1048.02 2194.39,1045.65 2199.01,1042.4 2203.5,1039.05 2207.87,1035.99 2212.29,1033.26 2217.26,1029.5 2221.94,1025.46 2226.39,1021.52 2230.53,1017.73 2234.79,1014.13 2238.94,1010.87 2243.28,1006.65 2247.13,1002.38 2250.77,997.919 2254.11,993.399 2257.12,989.625 2260.03,986.536 2262.98,983.288 2265.84,979.652 2266.94,978.336 2269.55,1077.6 2272.5,1075.87 2275.81,1073.55 2279.38,1071.31 2283.4,1069.21 2287.71,1066.75 2292.55,1063.48 2297.35,1060.09 2302.07,1056.35 2306.48,1052.84 2311.41,1048.92 2315.88,1045.09 2320.62,1041.66 2325.01,1038.77 2329.58,1036.03 2334.45,1033.03 2339.46,1029.9 2344.32,1026.89 2349.11,1024.27 2352.76,1022.19 "/>
<path clip-path="url(#clip760)" d="M1975.68 248.629 L2280.76 248.629 L2280.76 93.1086 L1975.68 93.1086  Z" fill="#ffffff" fill-rule="evenodd" fill-opacity="1"/>
<polyline clip-path="url(#clip760)" style="stroke:#000000; stroke-linecap:round; stroke-linejoin:round; stroke-width:4; stroke-opacity:1; fill:none" points="1975.68,248.629 2280.76,248.629 2280.76,93.1086 1975.68,93.1086 1975.68,248.629 "/>
<polyline clip-path="url(#clip760)" style="stroke:#009af9; stroke-linecap:round; stroke-linejoin:round; stroke-width:8; stroke-opacity:1; fill:none" points="1999.68,144.949 2143.67,144.949 "/>
<path clip-path="url(#clip760)" d="M2167.67 151.997 L2167.67 136.303 L2171.93 136.303 L2171.93 151.835 Q2171.93 155.516 2173.36 157.368 Q2174.8 159.196 2177.67 159.196 Q2181.12 159.196 2183.11 156.997 Q2185.12 154.798 2185.12 151.002 L2185.12 136.303 L2189.38 136.303 L2189.38 162.229 L2185.12 162.229 L2185.12 158.247 Q2183.57 160.608 2181.51 161.766 Q2179.47 162.9 2176.76 162.9 Q2172.3 162.9 2169.98 160.122 Q2167.67 157.344 2167.67 151.997 M2178.38 135.678 L2178.38 135.678 Z" fill="#000000" fill-rule="nonzero" fill-opacity="1" /><path clip-path="url(#clip760)" d="M2197.76 126.21 L2207.57 126.21 L2207.57 129.52 L2202.02 129.52 L2202.02 165.168 L2207.57 165.168 L2207.57 168.479 L2197.76 168.479 L2197.76 126.21 Z" fill="#000000" fill-rule="nonzero" fill-opacity="1" /><path clip-path="url(#clip760)" d="M2218.06 158.293 L2225.7 158.293 L2225.7 131.928 L2217.39 133.595 L2217.39 129.335 L2225.65 127.669 L2230.33 127.669 L2230.33 158.293 L2237.97 158.293 L2237.97 162.229 L2218.06 162.229 L2218.06 158.293 Z" fill="#000000" fill-rule="nonzero" fill-opacity="1" /><path clip-path="url(#clip760)" d="M2256.76 126.21 L2256.76 168.479 L2246.95 168.479 L2246.95 165.168 L2252.48 165.168 L2252.48 129.52 L2246.95 129.52 L2246.95 126.21 L2256.76 126.21 Z" fill="#000000" fill-rule="nonzero" fill-opacity="1" /><polyline clip-path="url(#clip760)" style="stroke:#e26f46; stroke-linecap:round; stroke-linejoin:round; stroke-width:8; stroke-opacity:1; fill:none" points="1999.68,196.789 2143.67,196.789 "/>
<path clip-path="url(#clip760)" d="M2167.67 203.837 L2167.67 188.143 L2171.93 188.143 L2171.93 203.675 Q2171.93 207.356 2173.36 209.208 Q2174.8 211.036 2177.67 211.036 Q2181.12 211.036 2183.11 208.837 Q2185.12 206.638 2185.12 202.842 L2185.12 188.143 L2189.38 188.143 L2189.38 214.069 L2185.12 214.069 L2185.12 210.087 Q2183.57 212.448 2181.51 213.606 Q2179.47 214.74 2176.76 214.74 Q2172.3 214.74 2169.98 211.962 Q2167.67 209.184 2167.67 203.837 M2178.38 187.518 L2178.38 187.518 Z" fill="#000000" fill-rule="nonzero" fill-opacity="1" /><path clip-path="url(#clip760)" d="M2197.76 178.05 L2207.57 178.05 L2207.57 181.36 L2202.02 181.36 L2202.02 217.008 L2207.57 217.008 L2207.57 220.319 L2197.76 220.319 L2197.76 178.05 Z" fill="#000000" fill-rule="nonzero" fill-opacity="1" /><path clip-path="url(#clip760)" d="M2221.28 210.133 L2237.6 210.133 L2237.6 214.069 L2215.65 214.069 L2215.65 210.133 Q2218.32 207.379 2222.9 202.749 Q2227.51 198.096 2228.69 196.754 Q2230.93 194.231 2231.81 192.495 Q2232.71 190.735 2232.71 189.046 Q2232.71 186.291 2230.77 184.555 Q2228.85 182.819 2225.75 182.819 Q2223.55 182.819 2221.09 183.583 Q2218.66 184.347 2215.88 185.897 L2215.88 181.175 Q2218.71 180.041 2221.16 179.462 Q2223.62 178.884 2225.65 178.884 Q2231.02 178.884 2234.22 181.569 Q2237.41 184.254 2237.41 188.745 Q2237.41 190.874 2236.6 192.796 Q2235.82 194.694 2233.71 197.286 Q2233.13 197.958 2230.03 201.175 Q2226.93 204.37 2221.28 210.133 Z" fill="#000000" fill-rule="nonzero" fill-opacity="1" /><path clip-path="url(#clip760)" d="M2256.76 178.05 L2256.76 220.319 L2246.95 220.319 L2246.95 217.008 L2252.48 217.008 L2252.48 181.36 L2246.95 181.36 L2246.95 178.05 L2256.76 178.05 Z" fill="#000000" fill-rule="nonzero" fill-opacity="1" /></svg>
