<?xml version="1.0" encoding="utf-8"?>
<svg xmlns="http://www.w3.org/2000/svg" xmlns:xlink="http://www.w3.org/1999/xlink" width="600" height="400" viewBox="0 0 2400 1600">
<defs>
  <clipPath id="clip120">
    <rect x="0" y="0" width="2400" height="1600"/>
  </clipPath>
</defs>
<path clip-path="url(#clip120)" d="M0 1600 L2400 1600 L2400 0 L0 0  Z" fill="#ffffff" fill-rule="evenodd" fill-opacity="1"/>
<defs>
  <clipPath id="clip121">
    <rect x="480" y="0" width="1681" height="1600"/>
  </clipPath>
</defs>
<path clip-path="url(#clip120)" d="M147.478 1423.18 L2352.76 1423.18 L2352.76 47.2441 L147.478 47.2441  Z" fill="#ffffff" fill-rule="evenodd" fill-opacity="1"/>
<defs>
  <clipPath id="clip122">
    <rect x="147" y="47" width="2206" height="1377"/>
  </clipPath>
</defs>
<polyline clip-path="url(#clip122)" style="stroke:#000000; stroke-linecap:round; stroke-linejoin:round; stroke-width:2; stroke-opacity:0.1; fill:none" points="147.478,1423.18 147.478,47.2441 "/>
<polyline clip-path="url(#clip122)" style="stroke:#000000; stroke-linecap:round; stroke-linejoin:round; stroke-width:2; stroke-opacity:0.1; fill:none" points="588.534,1423.18 588.534,47.2441 "/>
<polyline clip-path="url(#clip122)" style="stroke:#000000; stroke-linecap:round; stroke-linejoin:round; stroke-width:2; stroke-opacity:0.1; fill:none" points="1029.59,1423.18 1029.59,47.2441 "/>
<polyline clip-path="url(#clip122)" style="stroke:#000000; stroke-linecap:round; stroke-linejoin:round; stroke-width:2; stroke-opacity:0.1; fill:none" points="1470.64,1423.18 1470.64,47.2441 "/>
<polyline clip-path="url(#clip122)" style="stroke:#000000; stroke-linecap:round; stroke-linejoin:round; stroke-width:2; stroke-opacity:0.1; fill:none" points="1911.7,1423.18 1911.7,47.2441 "/>
<polyline clip-path="url(#clip122)" style="stroke:#000000; stroke-linecap:round; stroke-linejoin:round; stroke-width:2; stroke-opacity:0.1; fill:none" points="2352.76,1423.18 2352.76,47.2441 "/>
<polyline clip-path="url(#clip120)" style="stroke:#000000; stroke-linecap:round; stroke-linejoin:round; stroke-width:4; stroke-opacity:1; fill:none" points="147.478,1423.18 2352.76,1423.18 "/>
<polyline clip-path="url(#clip120)" style="stroke:#000000; stroke-linecap:round; stroke-linejoin:round; stroke-width:4; stroke-opacity:1; fill:none" points="147.478,1423.18 147.478,1404.28 "/>
<polyline clip-path="url(#clip120)" style="stroke:#000000; stroke-linecap:round; stroke-linejoin:round; stroke-width:4; stroke-opacity:1; fill:none" points="588.534,1423.18 588.534,1404.28 "/>
<polyline clip-path="url(#clip120)" style="stroke:#000000; stroke-linecap:round; stroke-linejoin:round; stroke-width:4; stroke-opacity:1; fill:none" points="1029.59,1423.18 1029.59,1404.28 "/>
<polyline clip-path="url(#clip120)" style="stroke:#000000; stroke-linecap:round; stroke-linejoin:round; stroke-width:4; stroke-opacity:1; fill:none" points="1470.64,1423.18 1470.64,1404.28 "/>
<polyline clip-path="url(#clip120)" style="stroke:#000000; stroke-linecap:round; stroke-linejoin:round; stroke-width:4; stroke-opacity:1; fill:none" points="1911.7,1423.18 1911.7,1404.28 "/>
<polyline clip-path="url(#clip120)" style="stroke:#000000; stroke-linecap:round; stroke-linejoin:round; stroke-width:4; stroke-opacity:1; fill:none" points="2352.76,1423.18 2352.76,1404.28 "/>
<path clip-path="url(#clip120)" d="M147.478 1454.1 Q143.867 1454.1 142.038 1457.66 Q140.233 1461.2 140.233 1468.33 Q140.233 1475.44 142.038 1479.01 Q143.867 1482.55 147.478 1482.55 Q151.112 1482.55 152.918 1479.01 Q154.746 1475.44 154.746 1468.33 Q154.746 1461.2 152.918 1457.66 Q151.112 1454.1 147.478 1454.1 M147.478 1450.39 Q153.288 1450.39 156.344 1455 Q159.422 1459.58 159.422 1468.33 Q159.422 1477.06 156.344 1481.67 Q153.288 1486.25 147.478 1486.25 Q141.668 1486.25 138.589 1481.67 Q135.534 1477.06 135.534 1468.33 Q135.534 1459.58 138.589 1455 Q141.668 1450.39 147.478 1450.39 Z" fill="#000000" fill-rule="nonzero" fill-opacity="1" /><path clip-path="url(#clip120)" d="M583.186 1481.64 L599.506 1481.64 L599.506 1485.58 L577.561 1485.58 L577.561 1481.64 Q580.223 1478.89 584.807 1474.26 Q589.413 1469.61 590.594 1468.27 Q592.839 1465.74 593.719 1464.01 Q594.621 1462.25 594.621 1460.56 Q594.621 1457.8 592.677 1456.07 Q590.756 1454.33 587.654 1454.33 Q585.455 1454.33 583.001 1455.09 Q580.571 1455.86 577.793 1457.41 L577.793 1452.69 Q580.617 1451.55 583.071 1450.97 Q585.524 1450.39 587.561 1450.39 Q592.932 1450.39 596.126 1453.08 Q599.32 1455.77 599.32 1460.26 Q599.32 1462.39 598.51 1464.31 Q597.723 1466.2 595.617 1468.8 Q595.038 1469.47 591.936 1472.69 Q588.834 1475.88 583.186 1481.64 Z" fill="#000000" fill-rule="nonzero" fill-opacity="1" /><path clip-path="url(#clip120)" d="M1032.6 1455.09 L1020.79 1473.54 L1032.6 1473.54 L1032.6 1455.09 M1031.37 1451.02 L1037.25 1451.02 L1037.25 1473.54 L1042.18 1473.54 L1042.18 1477.43 L1037.25 1477.43 L1037.25 1485.58 L1032.6 1485.58 L1032.6 1477.43 L1017 1477.43 L1017 1472.92 L1031.37 1451.02 Z" fill="#000000" fill-rule="nonzero" fill-opacity="1" /><path clip-path="url(#clip120)" d="M1471.05 1466.44 Q1467.9 1466.44 1466.05 1468.59 Q1464.22 1470.74 1464.22 1474.49 Q1464.22 1478.22 1466.05 1480.39 Q1467.9 1482.55 1471.05 1482.55 Q1474.2 1482.55 1476.03 1480.39 Q1477.88 1478.22 1477.88 1474.49 Q1477.88 1470.74 1476.03 1468.59 Q1474.2 1466.44 1471.05 1466.44 M1480.33 1451.78 L1480.33 1456.04 Q1478.57 1455.21 1476.77 1454.77 Q1474.98 1454.33 1473.23 1454.33 Q1468.6 1454.33 1466.14 1457.45 Q1463.71 1460.58 1463.36 1466.9 Q1464.73 1464.89 1466.79 1463.82 Q1468.85 1462.73 1471.33 1462.73 Q1476.54 1462.73 1479.55 1465.9 Q1482.58 1469.05 1482.58 1474.49 Q1482.58 1479.82 1479.43 1483.03 Q1476.28 1486.25 1471.05 1486.25 Q1465.05 1486.25 1461.88 1481.67 Q1458.71 1477.06 1458.71 1468.33 Q1458.71 1460.14 1462.6 1455.28 Q1466.49 1450.39 1473.04 1450.39 Q1474.8 1450.39 1476.58 1450.74 Q1478.39 1451.09 1480.33 1451.78 Z" fill="#000000" fill-rule="nonzero" fill-opacity="1" /><path clip-path="url(#clip120)" d="M1911.7 1469.17 Q1908.37 1469.17 1906.45 1470.95 Q1904.55 1472.73 1904.55 1475.86 Q1904.55 1478.98 1906.45 1480.77 Q1908.37 1482.55 1911.7 1482.55 Q1915.03 1482.55 1916.95 1480.77 Q1918.88 1478.96 1918.88 1475.86 Q1918.88 1472.73 1916.95 1470.95 Q1915.06 1469.17 1911.7 1469.17 M1907.02 1467.18 Q1904.02 1466.44 1902.33 1464.38 Q1900.66 1462.32 1900.66 1459.35 Q1900.66 1455.21 1903.6 1452.8 Q1906.56 1450.39 1911.7 1450.39 Q1916.86 1450.39 1919.8 1452.8 Q1922.74 1455.21 1922.74 1459.35 Q1922.74 1462.32 1921.05 1464.38 Q1919.39 1466.44 1916.4 1467.18 Q1919.78 1467.96 1921.65 1470.26 Q1923.55 1472.55 1923.55 1475.86 Q1923.55 1480.88 1920.47 1483.57 Q1917.42 1486.25 1911.7 1486.25 Q1905.98 1486.25 1902.9 1483.57 Q1899.85 1480.88 1899.85 1475.86 Q1899.85 1472.55 1901.75 1470.26 Q1903.64 1467.96 1907.02 1467.18 M1905.31 1459.79 Q1905.31 1462.48 1906.98 1463.98 Q1908.67 1465.49 1911.7 1465.49 Q1914.71 1465.49 1916.4 1463.98 Q1918.11 1462.48 1918.11 1459.79 Q1918.11 1457.11 1916.4 1455.6 Q1914.71 1454.1 1911.7 1454.1 Q1908.67 1454.1 1906.98 1455.6 Q1905.31 1457.11 1905.31 1459.79 Z" fill="#000000" fill-rule="nonzero" fill-opacity="1" /><path clip-path="url(#clip120)" d="M2327.44 1481.64 L2335.08 1481.64 L2335.08 1455.28 L2326.77 1456.95 L2326.77 1452.69 L2335.04 1451.02 L2339.71 1451.02 L2339.71 1481.64 L2347.35 1481.64 L2347.35 1485.58 L2327.44 1485.58 L2327.44 1481.64 Z" fill="#000000" fill-rule="nonzero" fill-opacity="1" /><path clip-path="url(#clip120)" d="M2366.8 1454.1 Q2363.18 1454.1 2361.36 1457.66 Q2359.55 1461.2 2359.55 1468.33 Q2359.55 1475.44 2361.36 1479.01 Q2363.18 1482.55 2366.8 1482.55 Q2370.43 1482.55 2372.23 1479.01 Q2374.06 1475.44 2374.06 1468.33 Q2374.06 1461.2 2372.23 1457.66 Q2370.43 1454.1 2366.8 1454.1 M2366.8 1450.39 Q2372.61 1450.39 2375.66 1455 Q2378.74 1459.58 2378.74 1468.33 Q2378.74 1477.06 2375.66 1481.67 Q2372.61 1486.25 2366.8 1486.25 Q2360.99 1486.25 2357.91 1481.67 Q2354.85 1477.06 2354.85 1468.33 Q2354.85 1459.58 2357.91 1455 Q2360.99 1450.39 2366.8 1450.39 Z" fill="#000000" fill-rule="nonzero" fill-opacity="1" /><path clip-path="url(#clip120)" d="M1249.18 1522.27 L1249.18 1532.4 L1261.24 1532.4 L1261.24 1536.95 L1249.18 1536.95 L1249.18 1556.3 Q1249.18 1560.66 1250.36 1561.9 Q1251.57 1563.14 1255.23 1563.14 L1261.24 1563.14 L1261.24 1568.04 L1255.23 1568.04 Q1248.45 1568.04 1245.87 1565.53 Q1243.29 1562.98 1243.29 1556.3 L1243.29 1536.95 L1238.99 1536.95 L1238.99 1532.4 L1243.29 1532.4 L1243.29 1522.27 L1249.18 1522.27 Z" fill="#000000" fill-rule="nonzero" fill-opacity="1" /><polyline clip-path="url(#clip122)" style="stroke:#000000; stroke-linecap:round; stroke-linejoin:round; stroke-width:2; stroke-opacity:0.1; fill:none" points="147.478,1251.55 2352.76,1251.55 "/>
<polyline clip-path="url(#clip122)" style="stroke:#000000; stroke-linecap:round; stroke-linejoin:round; stroke-width:2; stroke-opacity:0.1; fill:none" points="147.478,963.599 2352.76,963.599 "/>
<polyline clip-path="url(#clip122)" style="stroke:#000000; stroke-linecap:round; stroke-linejoin:round; stroke-width:2; stroke-opacity:0.1; fill:none" points="147.478,675.644 2352.76,675.644 "/>
<polyline clip-path="url(#clip122)" style="stroke:#000000; stroke-linecap:round; stroke-linejoin:round; stroke-width:2; stroke-opacity:0.1; fill:none" points="147.478,387.689 2352.76,387.689 "/>
<polyline clip-path="url(#clip122)" style="stroke:#000000; stroke-linecap:round; stroke-linejoin:round; stroke-width:2; stroke-opacity:0.1; fill:none" points="147.478,99.7344 2352.76,99.7344 "/>
<polyline clip-path="url(#clip120)" style="stroke:#000000; stroke-linecap:round; stroke-linejoin:round; stroke-width:4; stroke-opacity:1; fill:none" points="147.478,1423.18 147.478,47.2441 "/>
<polyline clip-path="url(#clip120)" style="stroke:#000000; stroke-linecap:round; stroke-linejoin:round; stroke-width:4; stroke-opacity:1; fill:none" points="147.478,1251.55 166.376,1251.55 "/>
<polyline clip-path="url(#clip120)" style="stroke:#000000; stroke-linecap:round; stroke-linejoin:round; stroke-width:4; stroke-opacity:1; fill:none" points="147.478,963.599 166.376,963.599 "/>
<polyline clip-path="url(#clip120)" style="stroke:#000000; stroke-linecap:round; stroke-linejoin:round; stroke-width:4; stroke-opacity:1; fill:none" points="147.478,675.644 166.376,675.644 "/>
<polyline clip-path="url(#clip120)" style="stroke:#000000; stroke-linecap:round; stroke-linejoin:round; stroke-width:4; stroke-opacity:1; fill:none" points="147.478,387.689 166.376,387.689 "/>
<polyline clip-path="url(#clip120)" style="stroke:#000000; stroke-linecap:round; stroke-linejoin:round; stroke-width:4; stroke-opacity:1; fill:none" points="147.478,99.7344 166.376,99.7344 "/>
<path clip-path="url(#clip120)" d="M51.3625 1252 L81.0383 1252 L81.0383 1255.94 L51.3625 1255.94 L51.3625 1252 Z" fill="#000000" fill-rule="nonzero" fill-opacity="1" /><path clip-path="url(#clip120)" d="M95.1586 1264.9 L111.478 1264.9 L111.478 1268.83 L89.5336 1268.83 L89.5336 1264.9 Q92.1956 1262.14 96.7789 1257.51 Q101.385 1252.86 102.566 1251.52 Q104.811 1249 105.691 1247.26 Q106.594 1245.5 106.594 1243.81 Q106.594 1241.06 104.649 1239.32 Q102.728 1237.58 99.6261 1237.58 Q97.4271 1237.58 94.9734 1238.35 Q92.5428 1239.11 89.7651 1240.66 L89.7651 1235.94 Q92.5891 1234.81 95.0428 1234.23 Q97.4965 1233.65 99.5335 1233.65 Q104.904 1233.65 108.098 1236.33 Q111.293 1239.02 111.293 1243.51 Q111.293 1245.64 110.483 1247.56 Q109.696 1249.46 107.589 1252.05 Q107.01 1252.72 103.909 1255.94 Q100.807 1259.13 95.1586 1264.9 Z" fill="#000000" fill-rule="nonzero" fill-opacity="1" /><path clip-path="url(#clip120)" d="M50.9921 964.05 L80.6679 964.05 L80.6679 967.985 L50.9921 967.985 L50.9921 964.05 Z" fill="#000000" fill-rule="nonzero" fill-opacity="1" /><path clip-path="url(#clip120)" d="M91.5706 976.944 L99.2095 976.944 L99.2095 950.578 L90.8993 952.245 L90.8993 947.985 L99.1632 946.319 L103.839 946.319 L103.839 976.944 L111.478 976.944 L111.478 980.879 L91.5706 980.879 L91.5706 976.944 Z" fill="#000000" fill-rule="nonzero" fill-opacity="1" /><path clip-path="url(#clip120)" d="M99.5335 661.443 Q95.9224 661.443 94.0937 665.007 Q92.2882 668.549 92.2882 675.679 Q92.2882 682.785 94.0937 686.35 Q95.9224 689.892 99.5335 689.892 Q103.168 689.892 104.973 686.35 Q106.802 682.785 106.802 675.679 Q106.802 668.549 104.973 665.007 Q103.168 661.443 99.5335 661.443 M99.5335 657.739 Q105.344 657.739 108.399 662.345 Q111.478 666.929 111.478 675.679 Q111.478 684.405 108.399 689.012 Q105.344 693.595 99.5335 693.595 Q93.7234 693.595 90.6447 689.012 Q87.5892 684.405 87.5892 675.679 Q87.5892 666.929 90.6447 662.345 Q93.7234 657.739 99.5335 657.739 Z" fill="#000000" fill-rule="nonzero" fill-opacity="1" /><path clip-path="url(#clip120)" d="M91.5706 401.034 L99.2095 401.034 L99.2095 374.668 L90.8993 376.335 L90.8993 372.076 L99.1632 370.409 L103.839 370.409 L103.839 401.034 L111.478 401.034 L111.478 404.969 L91.5706 404.969 L91.5706 401.034 Z" fill="#000000" fill-rule="nonzero" fill-opacity="1" /><path clip-path="url(#clip120)" d="M95.1586 113.079 L111.478 113.079 L111.478 117.014 L89.5336 117.014 L89.5336 113.079 Q92.1956 110.325 96.7789 105.695 Q101.385 101.042 102.566 99.6997 Q104.811 97.1765 105.691 95.4404 Q106.594 93.6812 106.594 91.9914 Q106.594 89.2368 104.649 87.5007 Q102.728 85.7646 99.6261 85.7646 Q97.4271 85.7646 94.9734 86.5284 Q92.5428 87.2923 89.7651 88.8433 L89.7651 84.1211 Q92.5891 82.9868 95.0428 82.4081 Q97.4965 81.8294 99.5335 81.8294 Q104.904 81.8294 108.098 84.5146 Q111.293 87.1997 111.293 91.6905 Q111.293 93.8201 110.483 95.7414 Q109.696 97.6395 107.589 100.232 Q107.01 100.903 103.909 104.121 Q100.807 107.315 95.1586 113.079 Z" fill="#000000" fill-rule="nonzero" fill-opacity="1" /><polyline clip-path="url(#clip122)" style="stroke:#009af9; stroke-linecap:round; stroke-linejoin:round; stroke-width:8; stroke-opacity:1; fill:none" points="147.478,618.053 147.668,618.738 147.853,619.934 148.062,622.033 148.296,620.815 148.559,623.137 148.855,623.333 149.189,623.258 149.564,622.321 149.986,623.048 150.46,627.775 150.994,630.896 151.595,631.221 152.271,631.062 153.031,626.631 153.887,630.819 154.849,626.471 155.932,626.372 157.149,625.53 158.52,630.781 160.061,635.417 161.795,635.765 163.746,632.789 165.941,638.079 168.41,636.928 171.187,640.633 174.312,646.842 177.828,647.069 181.782,647.95 186.232,649.259 191.237,652.629 196.868,655.987 203.203,650.576 210.33,651.236 218.348,651.934 227.368,656.136 237.515,659.356 248.931,648.793 261.774,650.351 274.99,649.132 289.858,649.283 306.585,645.454 325.402,649.45 342.865,626.16 362.51,626.261 380.555,613.875 400.856,591.503 420.964,580.755 438.565,541.819 456.624,533.121 471.123,465.226 475.305,522.854 480.009,518.455 485.301,538.739 490.619,531.652 496.602,563.442 502.644,569.39 509.441,567.323 517.001,590.975 524.532,555.623 533.004,554.232 540.893,570.482 548.92,556.438 557.95,508.948 563.227,471.527 572.093,572.924 582.067,548.586 593.289,554.523 602.812,583.91 612.704,578.209 623.832,565.272 635.701,601.062 646.313,614.435 658.252,621.859 671.684,641.23 686.794,642.044 703.794,648.375 721.126,640.812 740.625,632.612 761.673,636.259 778.578,634.336 797.596,639.916 815.789,640.75 836.257,643.37 857.634,652.444 879.059,648.187 903.161,648.885 926.215,638.323 952.151,638.597 973.079,633.136 996.623,615.419 1020.89,561.845 1038.07,551.686 1049.33,521.472 1064.19,602.245 1080.33,587.26 1098.23,542.75 1114.42,531.89 1127.9,520.533 1131.52,520.09 1144.47,590.324 1159.03,610.314 1170.9,624.356 1184.25,616.44 1199.28,624.571 1212.41,607.93 1227.18,599.129 1241.98,593.664 1255.29,556.583 1270.27,549.929 1282.69,586.587 1294.16,537.346 1307.07,500.555 1318.62,451.153 1329.5,338.161 1337.71,317.41 1344.97,359.272 1351.49,339.178 1358.17,357.721 1360.21,353.6 1362.5,526.349 1365.07,529.641 1367.97,535.683 1371.22,529.125 1374.89,545.411 1378.95,525.403 1383.51,554.459 1388.22,557.578 1393.51,560.363 1394.13,559.039 1400,615.105 1406.59,614.39 1414.02,602.42 1422.37,624.405 1430.84,622.307 1440.36,637.178 1450.57,623.527 1462.05,599.233 1474.32,605.109 1484.37,627.994 1495.67,611.696 1508.39,633.508 1518.94,619.334 1530.24,640.742 1541.2,660.988 1553.54,659.874 1567.42,658.098 1583.03,653.611 1600.6,662.185 1618.31,664.622 1638.24,658.25 1660.66,662.283 1678.99,660.634 1699.62,652.191 1722.82,654.093 1739.46,661.486 1758.19,657.866 1779.26,655.441 1801.42,659.65 1820.93,656.039 1842.88,654.651 1866.23,651.076 1892.49,639.893 1922.04,630.355 1947.57,615.748 1973.24,621.591 1988.37,610.627 2005.39,612.468 2019.22,632.625 2033.95,594.772 2050.53,554.833 2069.17,489.25 2087.21,371.309 2100.13,345.138 2111.66,265.132 2122.22,286.705 2130.75,185.239 2140.34,381.253 2149.5,419.275 2157.32,306.739 2166.12,196.206 2174.2,141.81 2181.5,166.397 2188.15,86.1857 2195.21,157.717 2200.99,200.84 2207.08,366.91 2213.94,415.569 2220.12,452.09 2226.98,452.053 2234.52,454.846 2242.24,457.293 2249.92,477.268 2257.56,481.016 2266,491.47 2274.07,516.896 2282.44,516.764 2291.87,536.167 2300.37,548.405 2309.94,584.589 2319.46,584.138 2330.17,576.747 2342.19,590.578 2352.76,591.882 "/>
<polyline clip-path="url(#clip122)" style="stroke:#e26f46; stroke-linecap:round; stroke-linejoin:round; stroke-width:8; stroke-opacity:1; fill:none" points="147.478,810.024 147.668,809.974 147.853,809.927 148.062,809.875 148.296,809.817 148.559,809.754 148.855,809.683 149.189,809.605 149.564,809.515 149.986,809.412 150.46,809.305 150.994,809.196 151.595,809.081 152.271,808.944 153.031,808.787 153.887,808.599 154.849,808.398 155.932,808.15 157.149,807.886 158.52,807.588 160.061,807.296 161.795,806.974 163.746,806.634 165.941,806.222 168.41,805.795 171.187,805.322 174.312,804.885 177.828,804.416 181.782,803.928 186.232,803.387 191.237,802.845 196.868,802.269 203.203,801.656 210.33,800.908 218.348,800.003 227.368,799.048 237.515,798.219 248.931,797.16 261.774,795.654 274.99,794.178 289.858,792.314 306.585,790.267 325.402,787.914 342.865,785.234 362.51,780.156 380.555,775.769 400.856,768.659 420.964,760.575 438.565,750.755 456.624,739.281 471.123,727.577 475.305,724.726 480.009,721.339 485.301,718.012 490.619,714.795 496.602,711.34 502.644,708.417 509.441,705.409 517.001,702.326 524.532,698.577 533.004,693.763 540.893,689.792 548.92,685.78 557.95,680.091 563.227,675.644 572.093,794.428 582.067,789.135 593.289,782.812 602.812,778.336 612.704,774.261 623.832,769.078 635.701,764.131 646.313,761.152 658.252,758.013 671.684,755.365 686.794,752.966 703.794,750.565 721.126,748.136 740.625,744.492 761.673,741.048 778.578,737.847 797.596,734.22 815.789,731.023 836.257,727.561 857.634,724.743 879.059,721.901 903.161,718.68 926.215,715.44 952.151,711.279 973.079,706.639 996.623,701.258 1020.89,691.084 1038.07,682.824 1049.33,675.644 1064.19,713.083 1080.33,706.924 1098.23,697.886 1114.42,687.799 1127.9,678.337 1131.52,675.644 1144.47,829.732 1159.03,824.757 1170.9,821.789 1184.25,818.449 1199.28,814.584 1212.41,811.288 1227.18,806.037 1241.98,801.804 1255.29,795.637 1270.27,787.048 1282.69,781.147 1294.16,775.779 1307.07,766.92 1318.62,756.323 1329.5,743.283 1337.71,730.741 1344.97,718.847 1351.49,709.661 1358.17,699.456 1360.21,696.481 1362.5,694.924 1365.07,693.156 1367.97,691.208 1371.22,689.124 1374.89,686.826 1378.95,684.246 1383.51,681.313 1388.22,678.663 1393.51,675.981 1394.13,675.644 1400,1384.24 1406.59,1382.41 1414.02,1380.21 1422.37,1377.73 1430.84,1375.69 1440.36,1373.62 1450.57,1371.55 1462.05,1368.67 1474.32,1364.87 1484.37,1362.36 1495.67,1359.7 1508.39,1356.68 1518.94,1354.36 1530.24,1352.11 1541.2,1351.26 1553.54,1350.47 1567.42,1349.38 1583.03,1348.03 1600.6,1346.45 1618.31,1345.47 1638.24,1344.36 1660.66,1342.59 1678.99,1341.25 1699.62,1339.58 1722.82,1337.33 1739.46,1336.15 1758.19,1334.71 1779.26,1332.96 1801.42,1331.34 1820.93,1329.7 1842.88,1327.58 1866.23,1325.15 1892.49,1321.25 1922.04,1316.21 1947.57,1309.92 1973.24,1304.48 1988.37,1300.33 2005.39,1295.44 2019.22,1292.31 2033.95,1288.61 2050.53,1280.96 2069.17,1268.32 2087.21,1247.95 2100.13,1227.59 2111.66,1207.42 2122.22,1186.85 2130.75,1171.73 2140.34,1155.82 2149.5,1145.32 2157.32,1134.29 2166.12,1116.9 2174.2,1098.63 2181.5,1079.9 2188.15,1063.38 2195.21,1045.16 2200.99,1031.71 2207.08,1020.25 2213.94,1011.25 2220.12,1004.17 2226.98,997.192 2234.52,989.242 2242.24,981.902 2249.92,974.67 2257.56,967.766 2266,960.796 2274.07,954.274 2282.44,948.166 2291.87,942.064 2300.37,936.852 2309.94,932.33 2319.46,928.726 2330.17,924.447 2342.19,919.405 2352.76,915.232 "/>
<path clip-path="url(#clip120)" d="M220.987 248.629 L530.612 248.629 L530.612 93.1086 L220.987 93.1086  Z" fill="#ffffff" fill-rule="evenodd" fill-opacity="1"/>
<polyline clip-path="url(#clip120)" style="stroke:#000000; stroke-linecap:round; stroke-linejoin:round; stroke-width:4; stroke-opacity:1; fill:none" points="220.987,248.629 530.612,248.629 530.612,93.1086 220.987,93.1086 220.987,248.629 "/>
<polyline clip-path="url(#clip120)" style="stroke:#009af9; stroke-linecap:round; stroke-linejoin:round; stroke-width:8; stroke-opacity:1; fill:none" points="245.49,144.949 392.509,144.949 "/>
<path clip-path="url(#clip120)" d="M417.012 151.997 L417.012 136.303 L421.271 136.303 L421.271 151.835 Q421.271 155.516 422.706 157.368 Q424.141 159.196 427.012 159.196 Q430.461 159.196 432.452 156.997 Q434.466 154.798 434.466 151.002 L434.466 136.303 L438.725 136.303 L438.725 162.229 L434.466 162.229 L434.466 158.247 Q432.915 160.608 430.854 161.766 Q428.817 162.9 426.109 162.9 Q421.641 162.9 419.327 160.122 Q417.012 157.344 417.012 151.997 M427.729 135.678 L427.729 135.678 Z" fill="#000000" fill-rule="nonzero" fill-opacity="1" /><path clip-path="url(#clip120)" d="M447.104 126.21 L456.919 126.21 L456.919 129.52 L451.364 129.52 L451.364 165.168 L456.919 165.168 L456.919 168.479 L447.104 168.479 L447.104 126.21 Z" fill="#000000" fill-rule="nonzero" fill-opacity="1" /><path clip-path="url(#clip120)" d="M467.405 158.293 L475.044 158.293 L475.044 131.928 L466.734 133.595 L466.734 129.335 L474.998 127.669 L479.674 127.669 L479.674 158.293 L487.312 158.293 L487.312 162.229 L467.405 162.229 L467.405 158.293 Z" fill="#000000" fill-rule="nonzero" fill-opacity="1" /><path clip-path="url(#clip120)" d="M506.109 126.21 L506.109 168.479 L496.294 168.479 L496.294 165.168 L501.826 165.168 L501.826 129.52 L496.294 129.52 L496.294 126.21 L506.109 126.21 Z" fill="#000000" fill-rule="nonzero" fill-opacity="1" /><polyline clip-path="url(#clip120)" style="stroke:#e26f46; stroke-linecap:round; stroke-linejoin:round; stroke-width:8; stroke-opacity:1; fill:none" points="245.49,196.789 392.509,196.789 "/>
<path clip-path="url(#clip120)" d="M417.012 203.837 L417.012 188.143 L421.271 188.143 L421.271 203.675 Q421.271 207.356 422.706 209.208 Q424.141 211.036 427.012 211.036 Q430.461 211.036 432.452 208.837 Q434.466 206.638 434.466 202.842 L434.466 188.143 L438.725 188.143 L438.725 214.069 L434.466 214.069 L434.466 210.087 Q432.915 212.448 430.854 213.606 Q428.817 214.74 426.109 214.74 Q421.641 214.74 419.327 211.962 Q417.012 209.184 417.012 203.837 M427.729 187.518 L427.729 187.518 Z" fill="#000000" fill-rule="nonzero" fill-opacity="1" /><path clip-path="url(#clip120)" d="M447.104 178.05 L456.919 178.05 L456.919 181.36 L451.364 181.36 L451.364 217.008 L456.919 217.008 L456.919 220.319 L447.104 220.319 L447.104 178.05 Z" fill="#000000" fill-rule="nonzero" fill-opacity="1" /><path clip-path="url(#clip120)" d="M470.623 210.133 L486.942 210.133 L486.942 214.069 L464.998 214.069 L464.998 210.133 Q467.66 207.379 472.243 202.749 Q476.85 198.096 478.03 196.754 Q480.275 194.231 481.155 192.495 Q482.058 190.735 482.058 189.046 Q482.058 186.291 480.113 184.555 Q478.192 182.819 475.09 182.819 Q472.891 182.819 470.438 183.583 Q468.007 184.347 465.229 185.897 L465.229 181.175 Q468.053 180.041 470.507 179.462 Q472.961 178.884 474.998 178.884 Q480.368 178.884 483.562 181.569 Q486.757 184.254 486.757 188.745 Q486.757 190.874 485.947 192.796 Q485.16 194.694 483.053 197.286 Q482.475 197.958 479.373 201.175 Q476.271 204.37 470.623 210.133 Z" fill="#000000" fill-rule="nonzero" fill-opacity="1" /><path clip-path="url(#clip120)" d="M506.109 178.05 L506.109 220.319 L496.294 220.319 L496.294 217.008 L501.826 217.008 L501.826 181.36 L496.294 181.36 L496.294 178.05 L506.109 178.05 Z" fill="#000000" fill-rule="nonzero" fill-opacity="1" /></svg>
