<?xml version="1.0" encoding="utf-8"?>
<svg xmlns="http://www.w3.org/2000/svg" xmlns:xlink="http://www.w3.org/1999/xlink" width="600" height="400" viewBox="0 0 2400 1600">
<defs>
  <clipPath id="clip970">
    <rect x="0" y="0" width="2400" height="1600"/>
  </clipPath>
</defs>
<path clip-path="url(#clip970)" d="M0 1600 L2400 1600 L2400 0 L0 0  Z" fill="#ffffff" fill-rule="evenodd" fill-opacity="1"/>
<defs>
  <clipPath id="clip971">
    <rect x="480" y="0" width="1681" height="1600"/>
  </clipPath>
</defs>
<path clip-path="url(#clip970)" d="M147.478 1423.18 L2352.76 1423.18 L2352.76 47.2441 L147.478 47.2441  Z" fill="#ffffff" fill-rule="evenodd" fill-opacity="1"/>
<defs>
  <clipPath id="clip972">
    <rect x="147" y="47" width="2206" height="1377"/>
  </clipPath>
</defs>
<polyline clip-path="url(#clip972)" style="stroke:#000000; stroke-linecap:round; stroke-linejoin:round; stroke-width:2; stroke-opacity:0.1; fill:none" points="147.478,1423.18 147.478,47.2441 "/>
<polyline clip-path="url(#clip972)" style="stroke:#000000; stroke-linecap:round; stroke-linejoin:round; stroke-width:2; stroke-opacity:0.1; fill:none" points="588.534,1423.18 588.534,47.2441 "/>
<polyline clip-path="url(#clip972)" style="stroke:#000000; stroke-linecap:round; stroke-linejoin:round; stroke-width:2; stroke-opacity:0.1; fill:none" points="1029.59,1423.18 1029.59,47.2441 "/>
<polyline clip-path="url(#clip972)" style="stroke:#000000; stroke-linecap:round; stroke-linejoin:round; stroke-width:2; stroke-opacity:0.1; fill:none" points="1470.64,1423.18 1470.64,47.2441 "/>
<polyline clip-path="url(#clip972)" style="stroke:#000000; stroke-linecap:round; stroke-linejoin:round; stroke-width:2; stroke-opacity:0.1; fill:none" points="1911.7,1423.18 1911.7,47.2441 "/>
<polyline clip-path="url(#clip972)" style="stroke:#000000; stroke-linecap:round; stroke-linejoin:round; stroke-width:2; stroke-opacity:0.1; fill:none" points="2352.76,1423.18 2352.76,47.2441 "/>
<polyline clip-path="url(#clip970)" style="stroke:#000000; stroke-linecap:round; stroke-linejoin:round; stroke-width:4; stroke-opacity:1; fill:none" points="147.478,1423.18 2352.76,1423.18 "/>
<polyline clip-path="url(#clip970)" style="stroke:#000000; stroke-linecap:round; stroke-linejoin:round; stroke-width:4; stroke-opacity:1; fill:none" points="147.478,1423.18 147.478,1404.28 "/>
<polyline clip-path="url(#clip970)" style="stroke:#000000; stroke-linecap:round; stroke-linejoin:round; stroke-width:4; stroke-opacity:1; fill:none" points="588.534,1423.18 588.534,1404.28 "/>
<polyline clip-path="url(#clip970)" style="stroke:#000000; stroke-linecap:round; stroke-linejoin:round; stroke-width:4; stroke-opacity:1; fill:none" points="1029.59,1423.18 1029.59,1404.28 "/>
<polyline clip-path="url(#clip970)" style="stroke:#000000; stroke-linecap:round; stroke-linejoin:round; stroke-width:4; stroke-opacity:1; fill:none" points="1470.64,1423.18 1470.64,1404.28 "/>
<polyline clip-path="url(#clip970)" style="stroke:#000000; stroke-linecap:round; stroke-linejoin:round; stroke-width:4; stroke-opacity:1; fill:none" points="1911.7,1423.18 1911.7,1404.28 "/>
<polyline clip-path="url(#clip970)" style="stroke:#000000; stroke-linecap:round; stroke-linejoin:round; stroke-width:4; stroke-opacity:1; fill:none" points="2352.76,1423.18 2352.76,1404.28 "/>
<path clip-path="url(#clip970)" d="M147.478 1454.1 Q143.867 1454.1 142.038 1457.66 Q140.233 1461.2 140.233 1468.33 Q140.233 1475.44 142.038 1479.01 Q143.867 1482.55 147.478 1482.55 Q151.112 1482.55 152.918 1479.01 Q154.746 1475.44 154.746 1468.33 Q154.746 1461.2 152.918 1457.66 Q151.112 1454.1 147.478 1454.1 M147.478 1450.39 Q153.288 1450.39 156.344 1455 Q159.422 1459.58 159.422 1468.33 Q159.422 1477.06 156.344 1481.67 Q153.288 1486.25 147.478 1486.25 Q141.668 1486.25 138.589 1481.67 Q135.534 1477.06 135.534 1468.33 Q135.534 1459.58 138.589 1455 Q141.668 1450.39 147.478 1450.39 Z" fill="#000000" fill-rule="nonzero" fill-opacity="1" /><path clip-path="url(#clip970)" d="M583.186 1481.64 L599.506 1481.64 L599.506 1485.58 L577.561 1485.58 L577.561 1481.64 Q580.223 1478.89 584.807 1474.26 Q589.413 1469.61 590.594 1468.27 Q592.839 1465.74 593.719 1464.01 Q594.621 1462.25 594.621 1460.56 Q594.621 1457.8 592.677 1456.07 Q590.756 1454.33 587.654 1454.33 Q585.455 1454.33 583.001 1455.09 Q580.571 1455.86 577.793 1457.41 L577.793 1452.69 Q580.617 1451.55 583.071 1450.97 Q585.524 1450.39 587.561 1450.39 Q592.932 1450.39 596.126 1453.08 Q599.32 1455.77 599.32 1460.26 Q599.32 1462.39 598.51 1464.31 Q597.723 1466.2 595.617 1468.8 Q595.038 1469.47 591.936 1472.69 Q588.834 1475.88 583.186 1481.64 Z" fill="#000000" fill-rule="nonzero" fill-opacity="1" /><path clip-path="url(#clip970)" d="M1032.6 1455.09 L1020.79 1473.54 L1032.6 1473.54 L1032.6 1455.09 M1031.37 1451.02 L1037.25 1451.02 L1037.25 1473.54 L1042.18 1473.54 L1042.18 1477.43 L1037.25 1477.43 L1037.25 1485.58 L1032.6 1485.58 L1032.6 1477.43 L1017 1477.43 L1017 1472.92 L1031.37 1451.02 Z" fill="#000000" fill-rule="nonzero" fill-opacity="1" /><path clip-path="url(#clip970)" d="M1471.05 1466.44 Q1467.9 1466.44 1466.05 1468.59 Q1464.22 1470.74 1464.22 1474.49 Q1464.22 1478.22 1466.05 1480.39 Q1467.9 1482.55 1471.05 1482.55 Q1474.2 1482.55 1476.03 1480.39 Q1477.88 1478.22 1477.88 1474.49 Q1477.88 1470.74 1476.03 1468.59 Q1474.2 1466.44 1471.05 1466.44 M1480.33 1451.78 L1480.33 1456.04 Q1478.57 1455.21 1476.77 1454.77 Q1474.98 1454.33 1473.23 1454.33 Q1468.6 1454.33 1466.14 1457.45 Q1463.71 1460.58 1463.36 1466.9 Q1464.73 1464.89 1466.79 1463.82 Q1468.85 1462.73 1471.33 1462.73 Q1476.54 1462.73 1479.55 1465.9 Q1482.58 1469.05 1482.58 1474.49 Q1482.58 1479.82 1479.43 1483.03 Q1476.28 1486.25 1471.05 1486.25 Q1465.05 1486.25 1461.88 1481.67 Q1458.71 1477.06 1458.71 1468.33 Q1458.71 1460.14 1462.6 1455.28 Q1466.49 1450.39 1473.04 1450.39 Q1474.8 1450.39 1476.58 1450.74 Q1478.39 1451.09 1480.33 1451.78 Z" fill="#000000" fill-rule="nonzero" fill-opacity="1" /><path clip-path="url(#clip970)" d="M1911.7 1469.17 Q1908.37 1469.17 1906.45 1470.95 Q1904.55 1472.73 1904.55 1475.86 Q1904.55 1478.98 1906.45 1480.77 Q1908.37 1482.55 1911.7 1482.55 Q1915.03 1482.55 1916.95 1480.77 Q1918.88 1478.96 1918.88 1475.86 Q1918.88 1472.73 1916.95 1470.95 Q1915.06 1469.17 1911.7 1469.17 M1907.02 1467.18 Q1904.02 1466.44 1902.33 1464.38 Q1900.66 1462.32 1900.66 1459.35 Q1900.66 1455.21 1903.6 1452.8 Q1906.56 1450.39 1911.7 1450.39 Q1916.86 1450.39 1919.8 1452.8 Q1922.74 1455.21 1922.74 1459.35 Q1922.74 1462.32 1921.05 1464.38 Q1919.39 1466.44 1916.4 1467.18 Q1919.78 1467.96 1921.65 1470.26 Q1923.55 1472.55 1923.55 1475.86 Q1923.55 1480.88 1920.47 1483.57 Q1917.42 1486.25 1911.7 1486.25 Q1905.98 1486.25 1902.9 1483.57 Q1899.85 1480.88 1899.85 1475.86 Q1899.85 1472.55 1901.75 1470.26 Q1903.64 1467.96 1907.02 1467.18 M1905.31 1459.79 Q1905.31 1462.48 1906.98 1463.98 Q1908.67 1465.49 1911.7 1465.49 Q1914.71 1465.49 1916.4 1463.98 Q1918.11 1462.48 1918.11 1459.79 Q1918.11 1457.11 1916.4 1455.6 Q1914.71 1454.1 1911.7 1454.1 Q1908.67 1454.1 1906.98 1455.6 Q1905.31 1457.11 1905.31 1459.79 Z" fill="#000000" fill-rule="nonzero" fill-opacity="1" /><path clip-path="url(#clip970)" d="M2327.44 1481.64 L2335.08 1481.64 L2335.08 1455.28 L2326.77 1456.95 L2326.77 1452.69 L2335.04 1451.02 L2339.71 1451.02 L2339.71 1481.64 L2347.35 1481.64 L2347.35 1485.58 L2327.44 1485.58 L2327.44 1481.64 Z" fill="#000000" fill-rule="nonzero" fill-opacity="1" /><path clip-path="url(#clip970)" d="M2366.8 1454.1 Q2363.18 1454.1 2361.36 1457.66 Q2359.55 1461.2 2359.55 1468.33 Q2359.55 1475.44 2361.36 1479.01 Q2363.18 1482.55 2366.8 1482.55 Q2370.43 1482.55 2372.23 1479.01 Q2374.06 1475.44 2374.06 1468.33 Q2374.06 1461.2 2372.23 1457.66 Q2370.43 1454.1 2366.8 1454.1 M2366.8 1450.39 Q2372.61 1450.39 2375.66 1455 Q2378.74 1459.58 2378.74 1468.33 Q2378.74 1477.06 2375.66 1481.67 Q2372.61 1486.25 2366.8 1486.25 Q2360.99 1486.25 2357.91 1481.67 Q2354.85 1477.06 2354.85 1468.33 Q2354.85 1459.58 2357.91 1455 Q2360.99 1450.39 2366.8 1450.39 Z" fill="#000000" fill-rule="nonzero" fill-opacity="1" /><path clip-path="url(#clip970)" d="M1249.18 1522.27 L1249.18 1532.4 L1261.24 1532.4 L1261.24 1536.95 L1249.18 1536.95 L1249.18 1556.3 Q1249.18 1560.66 1250.36 1561.9 Q1251.57 1563.14 1255.23 1563.14 L1261.24 1563.14 L1261.24 1568.04 L1255.23 1568.04 Q1248.45 1568.04 1245.87 1565.53 Q1243.29 1562.98 1243.29 1556.3 L1243.29 1536.95 L1238.99 1536.95 L1238.99 1532.4 L1243.29 1532.4 L1243.29 1522.27 L1249.18 1522.27 Z" fill="#000000" fill-rule="nonzero" fill-opacity="1" /><polyline clip-path="url(#clip972)" style="stroke:#000000; stroke-linecap:round; stroke-linejoin:round; stroke-width:2; stroke-opacity:0.1; fill:none" points="147.478,1173.14 2352.76,1173.14 "/>
<polyline clip-path="url(#clip972)" style="stroke:#000000; stroke-linecap:round; stroke-linejoin:round; stroke-width:2; stroke-opacity:0.1; fill:none" points="147.478,866.248 2352.76,866.248 "/>
<polyline clip-path="url(#clip972)" style="stroke:#000000; stroke-linecap:round; stroke-linejoin:round; stroke-width:2; stroke-opacity:0.1; fill:none" points="147.478,559.356 2352.76,559.356 "/>
<polyline clip-path="url(#clip972)" style="stroke:#000000; stroke-linecap:round; stroke-linejoin:round; stroke-width:2; stroke-opacity:0.1; fill:none" points="147.478,252.465 2352.76,252.465 "/>
<polyline clip-path="url(#clip970)" style="stroke:#000000; stroke-linecap:round; stroke-linejoin:round; stroke-width:4; stroke-opacity:1; fill:none" points="147.478,1423.18 147.478,47.2441 "/>
<polyline clip-path="url(#clip970)" style="stroke:#000000; stroke-linecap:round; stroke-linejoin:round; stroke-width:4; stroke-opacity:1; fill:none" points="147.478,1173.14 166.376,1173.14 "/>
<polyline clip-path="url(#clip970)" style="stroke:#000000; stroke-linecap:round; stroke-linejoin:round; stroke-width:4; stroke-opacity:1; fill:none" points="147.478,866.248 166.376,866.248 "/>
<polyline clip-path="url(#clip970)" style="stroke:#000000; stroke-linecap:round; stroke-linejoin:round; stroke-width:4; stroke-opacity:1; fill:none" points="147.478,559.356 166.376,559.356 "/>
<polyline clip-path="url(#clip970)" style="stroke:#000000; stroke-linecap:round; stroke-linejoin:round; stroke-width:4; stroke-opacity:1; fill:none" points="147.478,252.465 166.376,252.465 "/>
<path clip-path="url(#clip970)" d="M51.3625 1173.59 L81.0383 1173.59 L81.0383 1177.53 L51.3625 1177.53 L51.3625 1173.59 Z" fill="#000000" fill-rule="nonzero" fill-opacity="1" /><path clip-path="url(#clip970)" d="M95.1586 1186.48 L111.478 1186.48 L111.478 1190.42 L89.5336 1190.42 L89.5336 1186.48 Q92.1956 1183.73 96.7789 1179.1 Q101.385 1174.45 102.566 1173.11 Q104.811 1170.58 105.691 1168.85 Q106.594 1167.09 106.594 1165.4 Q106.594 1162.64 104.649 1160.91 Q102.728 1159.17 99.6261 1159.17 Q97.4271 1159.17 94.9734 1159.93 Q92.5428 1160.7 89.7651 1162.25 L89.7651 1157.53 Q92.5891 1156.39 95.0428 1155.81 Q97.4965 1155.23 99.5335 1155.23 Q104.904 1155.23 108.098 1157.92 Q111.293 1160.61 111.293 1165.1 Q111.293 1167.23 110.483 1169.15 Q109.696 1171.04 107.589 1173.64 Q107.01 1174.31 103.909 1177.53 Q100.807 1180.72 95.1586 1186.48 Z" fill="#000000" fill-rule="nonzero" fill-opacity="1" /><path clip-path="url(#clip970)" d="M50.9921 866.699 L80.6679 866.699 L80.6679 870.635 L50.9921 870.635 L50.9921 866.699 Z" fill="#000000" fill-rule="nonzero" fill-opacity="1" /><path clip-path="url(#clip970)" d="M91.5706 879.593 L99.2095 879.593 L99.2095 853.227 L90.8993 854.894 L90.8993 850.635 L99.1632 848.968 L103.839 848.968 L103.839 879.593 L111.478 879.593 L111.478 883.528 L91.5706 883.528 L91.5706 879.593 Z" fill="#000000" fill-rule="nonzero" fill-opacity="1" /><path clip-path="url(#clip970)" d="M99.5335 545.155 Q95.9224 545.155 94.0937 548.72 Q92.2882 552.262 92.2882 559.391 Q92.2882 566.498 94.0937 570.062 Q95.9224 573.604 99.5335 573.604 Q103.168 573.604 104.973 570.062 Q106.802 566.498 106.802 559.391 Q106.802 552.262 104.973 548.72 Q103.168 545.155 99.5335 545.155 M99.5335 541.451 Q105.344 541.451 108.399 546.058 Q111.478 550.641 111.478 559.391 Q111.478 568.118 108.399 572.724 Q105.344 577.308 99.5335 577.308 Q93.7234 577.308 90.6447 572.724 Q87.5892 568.118 87.5892 559.391 Q87.5892 550.641 90.6447 546.058 Q93.7234 541.451 99.5335 541.451 Z" fill="#000000" fill-rule="nonzero" fill-opacity="1" /><path clip-path="url(#clip970)" d="M91.5706 265.81 L99.2095 265.81 L99.2095 239.444 L90.8993 241.111 L90.8993 236.851 L99.1632 235.185 L103.839 235.185 L103.839 265.81 L111.478 265.81 L111.478 269.745 L91.5706 269.745 L91.5706 265.81 Z" fill="#000000" fill-rule="nonzero" fill-opacity="1" /><polyline clip-path="url(#clip972)" style="stroke:#009af9; stroke-linecap:round; stroke-linejoin:round; stroke-width:8; stroke-opacity:1; fill:none" points="147.478,497.978 149.685,497.361 151.893,496.737 154.1,496.107 156.308,495.471 158.515,494.828 160.723,494.179 162.93,493.523 165.138,492.861 167.345,492.192 169.553,491.516 171.76,490.834 173.968,490.144 176.175,489.448 178.383,488.745 180.59,488.034 182.798,487.317 185.005,486.592 187.213,485.86 189.42,485.121 191.628,484.374 193.835,483.619 196.043,482.857 198.25,482.088 200.458,481.31 202.665,480.525 204.873,479.732 207.08,478.931 209.288,478.122 211.495,477.305 213.702,476.479 215.91,475.646 218.117,474.803 220.325,473.953 222.532,473.094 224.74,472.226 226.947,471.349 229.155,470.464 231.362,469.57 233.57,468.666 235.777,467.754 237.985,466.832 240.192,465.902 242.4,464.961 244.607,464.012 246.815,463.053 249.022,462.084 251.23,461.105 253.437,460.117 255.645,459.118 257.852,458.11 260.06,457.091 262.267,456.063 264.475,455.023 266.682,453.974 268.89,452.914 271.097,451.843 273.305,450.761 275.512,449.669 277.72,448.565 279.927,447.451 282.135,446.325 284.342,445.188 286.549,444.039 288.757,442.879 290.964,441.707 293.172,440.524 295.379,439.328 297.587,438.121 299.794,436.901 302.002,435.669 304.209,434.425 306.417,433.168 308.624,431.898 310.832,430.616 313.039,429.321 315.247,428.013 317.454,426.691 319.662,425.357 321.869,424.009 324.077,422.647 326.284,421.272 328.492,419.882 330.699,418.479 332.907,417.062 335.114,415.63 337.322,414.185 339.529,412.724 341.737,411.249 343.944,409.759 346.152,408.254 348.359,406.734 350.567,405.198 352.774,403.648 354.982,402.081 357.189,400.499 359.397,398.901 361.604,397.287 363.811,395.656 366.019,394.009 368.226,392.346 370.434,390.666 372.641,388.969 374.849,387.255 377.056,385.523 379.264,383.774 381.471,382.008 383.679,380.224 385.886,378.422 388.094,376.601 390.301,374.763 392.509,372.906 394.716,371.03 396.924,369.135 399.131,367.221 401.339,365.289 403.546,363.336 405.754,361.364 407.961,359.372 410.169,357.36 412.376,355.328 414.584,353.276 416.791,351.202 418.999,349.108 421.206,346.993 423.414,344.857 425.621,342.699 427.829,340.519 430.036,338.317 432.244,336.094 434.451,333.848 436.659,331.579 438.866,329.288 441.073,326.973 443.281,324.635 445.488,322.274 447.696,319.889 449.903,317.48 452.111,315.047 454.318,312.589 456.526,310.106 458.733,307.599 460.941,305.066 463.148,302.508 465.356,299.924 467.563,297.314 469.771,294.678 471.978,292.015 474.186,289.326 476.393,286.609 478.601,283.865 480.808,281.094 483.016,278.294 485.223,275.467 487.431,272.611 489.638,269.726 491.846,266.812 494.053,263.869 496.261,260.896 498.468,257.894 500.676,254.861 502.883,251.797 505.091,248.703 507.298,245.578 509.506,242.421 511.713,399.294 513.921,397.684 516.128,396.058 518.335,394.415 520.543,392.756 522.75,391.079 524.958,389.387 527.165,387.677 529.373,385.949 531.58,384.205 533.788,382.443 535.995,380.663 538.203,378.865 540.41,377.05 542.618,375.216 544.825,373.363 547.033,371.492 549.24,369.602 551.448,367.693 553.655,365.765 555.863,363.817 558.07,361.85 560.278,359.863 562.485,357.856 564.693,355.829 566.9,353.782 569.108,351.713 571.315,349.625 573.523,347.515 575.73,345.383 577.938,343.231 580.145,341.056 582.353,338.86 584.56,336.642 586.768,334.401 588.975,332.138 591.182,329.852 593.39,327.543 595.597,325.211 597.805,441.106 600.012,439.916 602.22,438.715 604.427,437.501 606.635,436.275 608.842,435.037 611.05,433.786 613.257,432.523 615.465,431.247 617.672,429.958 619.88,428.656 622.087,427.341 624.295,426.013 626.502,424.672 628.71,423.317 630.917,421.948 633.125,420.566 635.332,419.17 637.54,417.759 639.747,416.335 641.955,414.896 644.162,413.443 646.37,411.975 648.577,410.493 650.785,408.995 652.992,407.483 655.2,405.955 657.407,404.412 659.615,402.853 661.822,401.279 664.03,399.689 666.237,398.082 668.444,396.46 670.652,394.821 672.859,393.166 675.067,391.494 677.274,389.806 679.482,388.1 681.689,386.377 683.897,384.637 686.104,382.879 688.312,381.104 690.519,379.311 692.727,377.499 694.934,375.67 697.142,373.822 699.349,371.955 701.557,370.07 703.764,368.165 705.972,366.242 708.179,364.299 710.387,362.336 712.594,360.354 714.802,358.352 717.009,356.329 719.217,354.287 721.424,352.224 723.632,350.14 725.839,348.035 728.047,345.909 730.254,343.761 732.462,341.592 734.669,339.402 736.877,337.189 739.084,334.954 741.292,332.696 743.499,330.416 745.706,328.112 747.914,325.786 750.121,323.436 752.329,321.063 754.536,318.665 756.744,316.244 758.951,313.798 761.159,311.328 763.366,308.832 765.574,306.312 767.781,303.767 769.989,301.195 772.196,298.598 774.404,295.975 776.611,293.326 778.819,290.65 781.026,287.947 783.234,285.216 785.441,282.459 787.649,279.673 789.856,276.86 792.064,274.018 794.271,271.148 796.479,268.248 798.686,265.32 800.894,262.362 803.101,259.375 805.309,256.357 807.516,253.309 809.724,250.23 811.931,247.12 814.139,243.979 816.346,240.807 818.553,237.602 820.761,234.365 822.968,231.096 825.176,227.793 827.383,224.457 829.591,221.088 831.798,217.685 834.006,214.248 836.213,210.775 838.421,207.268 840.628,203.726 842.836,200.148 845.043,196.534 847.251,192.884 849.458,189.197 851.666,185.472 853.873,181.711 856.081,177.911 858.288,174.074 860.496,170.197 862.703,166.282 864.911,162.327 867.118,158.333 869.326,154.299 871.533,150.224 873.741,146.108 875.948,141.95 878.156,137.751 880.363,133.51 882.571,129.225 884.778,124.898 886.986,120.527 889.193,337.735 891.401,335.505 893.608,333.253 895.815,330.978 898.023,328.681 900.23,326.36 902.438,324.016 904.645,321.648 906.853,319.257 909.06,316.842 911.268,314.402 913.475,311.937 915.683,309.448 917.89,306.934 920.098,304.395 922.305,301.83 924.513,299.239 926.72,296.622 928.928,293.979 931.135,291.309 933.343,288.613 935.55,285.889 937.758,283.138 939.965,280.359 942.173,277.552 944.38,274.717 946.588,271.854 948.795,268.961 951.003,266.04 953.21,263.089 955.418,260.108 957.625,257.098 959.833,254.057 962.04,250.986 964.248,247.883 966.455,244.75 968.663,241.585 970.87,238.388 973.077,235.159 975.285,231.897 977.492,228.603 979.7,225.275 981.907,221.915 984.115,218.52 986.322,215.091 988.53,211.627 990.737,208.129 992.945,204.596 995.152,201.027 997.36,197.422 999.567,193.781 1001.77,190.103 1003.98,186.388 1006.19,182.636 1008.4,178.846 1010.6,175.018 1012.81,171.152 1015.02,167.246 1017.23,163.301 1019.43,159.317 1021.64,155.293 1023.85,151.228 1026.06,147.122 1028.26,142.974 1030.47,138.785 1032.68,134.554 1034.89,344.819 1037.09,342.66 1039.3,340.48 1041.51,338.278 1043.72,336.054 1045.92,333.808 1048.13,331.538 1050.34,329.247 1052.55,326.932 1054.75,324.593 1056.96,322.232 1059.17,319.846 1061.38,317.436 1063.58,315.003 1065.79,312.544 1068,310.062 1070.21,307.554 1072.41,305.02 1074.62,302.462 1076.83,299.877 1079.04,297.267 1081.24,294.63 1083.45,291.967 1085.66,289.277 1087.87,286.56 1090.07,283.816 1092.28,281.044 1094.49,278.244 1096.7,275.416 1098.9,272.559 1101.11,269.674 1103.32,266.76 1105.53,263.816 1107.73,260.843 1109.94,257.84 1112.15,254.806 1114.36,251.743 1116.56,248.648 1118.77,245.522 1120.98,242.365 1123.19,239.176 1125.39,235.954 1127.6,232.701 1129.81,229.415 1132.02,226.095 1134.22,222.743 1136.43,219.356 1138.64,215.936 1140.85,212.481 1143.05,208.991 1145.26,205.466 1147.47,201.906 1149.68,198.31 1151.88,194.678 1154.09,191.009 1156.3,187.303 1158.51,183.56 1160.71,179.78 1162.92,175.961 1165.13,172.104 1167.34,168.208 1169.54,164.273 1171.75,160.299 1173.96,156.284 1176.17,152.229 1178.37,148.133 1180.58,143.996 1182.79,139.817 1185,135.597 1187.2,131.334 1189.41,127.028 1191.62,341.018 1193.83,338.821 1196.03,336.603 1198.24,334.362 1200.45,332.098 1202.66,329.812 1204.86,327.503 1207.07,325.17 1209.28,322.814 1211.49,320.434 1213.69,318.031 1215.9,315.603 1218.11,313.151 1220.32,310.674 1222.52,308.172 1224.73,305.645 1226.94,303.093 1229.15,300.515 1231.35,297.911 1233.56,295.28 1235.77,292.624 1237.98,289.94 1240.18,423.293 1242.39,421.924 1244.6,420.542 1246.81,419.145 1249.01,417.735 1251.22,416.31 1253.43,414.871 1255.64,413.417 1257.84,411.949 1260.05,410.466 1262.26,408.968 1264.47,407.455 1266.67,405.927 1268.88,404.383 1271.09,402.824 1273.3,401.25 1275.5,399.659 1277.71,398.053 1279.92,396.43 1282.13,394.791 1284.33,393.135 1286.54,391.463 1288.75,389.774 1290.96,388.068 1293.16,386.345 1295.37,384.605 1297.58,382.847 1299.79,381.071 1301.99,379.277 1304.2,377.466 1306.41,375.636 1308.62,373.788 1310.82,371.921 1313.03,370.035 1315.24,368.13 1317.45,366.207 1319.65,364.263 1321.86,362.301 1324.07,360.318 1326.28,358.316 1328.48,356.293 1330.69,354.25 1332.9,352.187 1335.11,350.103 1337.31,347.997 1339.52,345.871 1341.73,343.723 1343.94,341.554 1346.14,339.363 1348.35,337.149 1350.56,334.914 1352.76,332.656 1354.97,330.375 1357.18,328.072 1359.39,325.745 1361.59,323.395 1363.8,321.021 1366.01,318.623 1368.22,316.201 1370.42,313.755 1372.63,311.284 1374.84,308.788 1377.05,306.268 1379.25,303.721 1381.46,301.15 1383.67,298.552 1385.88,295.928 1388.08,293.278 1390.29,290.602 1392.5,287.898 1394.71,285.167 1396.91,282.409 1399.12,279.623 1401.33,276.808 1403.54,273.966 1405.74,271.095 1407.95,268.195 1410.16,265.266 1412.37,262.307 1414.57,259.319 1416.78,256.3 1418.99,253.252 1421.2,250.172 1423.4,247.062 1425.61,243.92 1427.82,240.746 1430.03,237.541 1432.23,234.303 1434.44,231.033 1436.65,227.73 1438.86,224.394 1441.06,221.024 1443.27,217.62 1445.48,214.182 1447.69,210.71 1449.89,207.202 1452.1,203.659 1454.31,200.081 1456.52,196.466 1458.72,192.816 1460.93,189.128 1463.14,372.38 1465.35,370.499 1467.55,368.599 1469.76,366.68 1471.97,364.741 1474.18,362.784 1476.38,360.806 1478.59,358.809 1480.8,356.791 1483.01,354.753 1485.21,352.695 1487.42,350.616 1489.63,348.516 1491.84,346.395 1494.04,344.252 1496.25,342.088 1498.46,339.902 1500.67,337.695 1502.87,335.465 1505.08,333.212 1507.29,330.937 1509.5,328.639 1511.7,326.318 1513.91,323.974 1516.12,321.606 1518.33,319.214 1520.53,316.798 1522.74,314.358 1524.95,311.893 1527.16,309.403 1529.36,306.889 1531.57,304.349 1533.78,301.783 1535.99,299.192 1538.19,296.575 1540.4,293.931 1542.61,291.261 1544.82,288.564 1547.02,285.84 1549.23,283.088 1551.44,280.309 1553.65,277.501 1555.85,274.666 1558.06,271.802 1560.27,268.909 1562.48,265.987 1564.68,263.036 1566.89,260.055 1569.1,257.043 1571.31,254.002 1573.51,250.93 1575.72,247.827 1577.93,244.693 1580.14,241.528 1582.34,238.33 1584.55,235.1 1586.76,231.838 1588.97,228.543 1591.17,225.215 1593.38,221.854 1595.59,218.458 1597.8,215.029 1600,211.565 1602.21,383.711 1604.42,381.944 1606.63,380.159 1608.83,378.356 1611.04,376.536 1613.25,374.696 1615.46,372.839 1617.66,370.962 1619.87,369.067 1622.08,367.152 1624.29,365.219 1626.49,363.266 1628.7,361.293 1630.91,359.301 1633.12,357.288 1635.32,355.255 1637.53,353.202 1639.74,351.128 1641.95,349.033 1644.15,346.917 1646.36,344.78 1648.57,342.621 1650.78,340.441 1652.98,338.239 1655.19,336.014 1657.4,333.767 1659.61,331.498 1661.81,329.205 1664.02,326.89 1666.23,324.551 1668.44,322.189 1670.64,319.803 1672.85,317.393 1675.06,314.959 1677.27,312.5 1679.47,310.017 1681.68,307.508 1683.89,304.974 1686.1,302.415 1688.3,299.83 1690.51,297.219 1692.72,294.582 1694.93,291.918 1697.13,289.228 1699.34,286.51 1701.55,283.765 1703.76,280.993 1705.96,278.192 1708.17,275.364 1710.38,272.507 1712.59,269.621 1714.79,266.706 1717,263.762 1719.21,260.789 1721.42,257.785 1723.62,254.751 1725.83,251.687 1728.04,248.592 1730.25,245.466 1732.45,242.308 1734.66,239.118 1736.87,235.897 1739.07,232.643 1741.28,229.356 1743.49,226.036 1745.7,222.683 1747.9,219.296 1750.11,215.875 1752.32,212.42 1754.53,208.93 1756.73,205.404 1758.94,201.844 1761.15,198.247 1763.36,194.614 1765.56,190.945 1767.77,187.238 1769.98,183.495 1772.19,179.713 1774.39,175.894 1776.6,172.036 1778.81,168.139 1781.02,164.203 1783.22,160.228 1785.43,156.212 1787.64,152.156 1789.85,148.06 1792.05,143.922 1794.26,139.742 1796.47,135.521 1798.68,131.257 1800.88,126.95 1803.09,122.6 1805.3,118.206 1807.51,113.768 1809.71,109.285 1811.92,104.757 1814.13,100.184 1816.34,95.5644 1818.54,90.8985 1820.75,86.1857 1822.96,320.391 1825.17,317.987 1827.37,315.559 1829.58,313.106 1831.79,310.629 1834,308.126 1836.2,305.599 1838.41,303.046 1840.62,300.467 1842.83,297.863 1845.03,295.232 1847.24,292.575 1849.45,289.891 1851.66,287.18 1853.86,284.442 1856.07,281.676 1858.28,278.883 1860.49,276.061 1862.69,273.211 1864.9,270.333 1867.11,413.391 1869.32,411.922 1871.52,410.439 1873.73,408.941 1875.94,407.428 1878.15,405.899 1880.35,404.355 1882.56,402.796 1884.77,401.221 1886.98,399.63 1889.18,398.023 1891.39,396.4 1893.6,394.761 1895.81,393.105 1898.01,391.432 1900.22,389.743 1902.43,388.037 1904.64,386.313 1906.84,384.572 1909.05,382.814 1911.26,381.038 1913.47,379.244 1915.67,377.432 1917.88,375.602 1920.09,466.555 1922.3,465.621 1924.5,464.678 1926.71,463.726 1928.92,462.764 1931.13,461.792 1933.33,460.81 1935.54,459.819 1937.75,458.817 1939.96,457.806 1942.16,456.784 1944.37,455.752 1946.58,454.71 1948.79,453.657 1950.99,452.594 1953.2,451.52 1955.41,450.435 1957.62,449.339 1959.82,448.233 1962.03,447.115 1964.24,445.985 1966.45,444.845 1968.65,443.693 1970.86,442.529 1973.07,441.354 1975.28,440.167 1977.48,438.968 1979.69,437.757 1981.9,436.533 1984.11,435.298 1986.31,434.05 1988.52,432.789 1990.73,431.516 1992.94,430.23 1995.14,428.93 1997.35,427.618 1999.56,426.293 2001.77,424.954 2003.97,423.602 2006.18,422.236 2008.39,420.857 2010.6,419.464 2012.8,418.056 2015.01,416.635 2017.22,415.199 2019.43,413.749 2021.63,412.284 2023.84,410.804 2026.05,409.31 2028.26,407.8 2030.46,406.276 2032.67,404.736 2034.88,403.18 2037.09,401.609 2039.29,400.022 2041.5,398.419 2043.71,396.8 2045.92,395.165 2048.12,393.513 2050.33,391.845 2052.54,390.16 2054.75,388.458 2056.95,386.738 2059.16,385.002 2061.37,383.248 2063.58,381.476 2065.78,379.686 2067.99,377.879 2070.2,376.053 2072.41,374.209 2074.61,372.346 2076.82,370.465 2079.03,368.564 2081.24,366.645 2083.44,364.706 2085.65,362.748 2087.86,360.77 2090.07,358.772 2092.27,356.754 2094.48,354.716 2096.69,352.657 2098.9,350.578 2101.1,348.477 2103.31,346.356 2105.52,344.213 2107.73,342.049 2109.93,339.862 2112.14,448.505 2114.35,447.39 2116.55,446.264 2118.76,445.126 2120.97,443.977 2123.18,442.816 2125.38,441.644 2127.59,440.459 2129.8,439.263 2132.01,438.055 2134.21,436.835 2136.42,435.602 2138.63,434.357 2140.84,433.1 2143.04,431.829 2145.25,430.546 2147.46,429.251 2149.67,427.942 2151.87,426.62 2154.08,425.284 2156.29,423.935 2158.5,422.573 2160.7,421.197 2162.91,419.807 2165.12,418.403 2167.33,416.985 2169.53,415.553 2171.74,414.106 2173.95,412.645 2176.16,411.169 2178.36,409.678 2180.57,408.172 2182.78,406.651 2184.99,405.115 2187.19,403.563 2189.4,401.996 2191.61,400.413 2193.82,398.814 2196.02,397.199 2198.23,395.567 2200.44,393.92 2202.65,392.255 2204.85,390.574 2207.06,388.876 2209.27,387.161 2211.48,385.429 2213.68,383.679 2215.89,381.912 2218.1,380.127 2220.31,378.324 2222.51,376.502 2224.72,374.663 2226.93,372.805 2229.14,370.928 2231.34,369.032 2233.55,367.118 2235.76,365.184 2237.97,363.23 2240.17,361.257 2242.38,359.264 2244.59,357.251 2246.8,355.218 2249,353.164 2251.21,351.09 2253.42,348.995 2255.63,346.878 2257.83,344.741 2260.04,342.582 2262.25,340.401 2264.46,338.198 2266.66,335.973 2268.87,333.726 2271.08,331.456 2273.29,329.163 2275.49,326.847 2277.7,324.508 2279.91,322.146 2282.12,319.759 2284.32,317.349 2286.53,314.914 2288.74,312.455 2290.95,309.971 2293.15,307.462 2295.36,304.928 2297.57,302.369 2299.78,299.783 2301.98,297.172 2304.19,294.534 2306.4,291.87 2308.61,289.179 2310.81,286.461 2313.02,283.716 2315.23,280.943 2317.44,278.142 2319.64,275.313 2321.85,272.455 2324.06,269.569 2326.27,266.654 2328.47,263.709 2330.68,260.735 2332.89,257.73 2335.1,254.696 2337.3,251.631 2339.51,248.535 2341.72,245.408 2343.93,242.25 2346.13,239.059 2348.34,235.837 2350.55,232.582 2352.76,229.295 "/>
<polyline clip-path="url(#clip972)" style="stroke:#e26f46; stroke-linecap:round; stroke-linejoin:round; stroke-width:8; stroke-opacity:1; fill:none" points="147.478,815.976 149.685,815.358 151.893,814.735 154.1,814.105 156.308,813.468 158.515,812.826 160.723,812.176 162.93,811.521 165.138,810.858 167.345,810.189 169.553,809.514 171.76,808.831 173.968,808.142 176.175,807.446 178.383,806.742 180.59,806.032 182.798,805.314 185.005,804.59 187.213,803.858 189.42,803.118 191.628,802.371 193.835,801.617 196.043,800.855 198.25,800.085 200.458,799.308 202.665,798.523 204.873,797.73 207.08,796.929 209.288,796.12 211.495,795.303 213.702,794.477 215.91,793.643 218.117,792.801 220.325,791.951 222.532,791.091 224.74,790.223 226.947,789.347 229.155,788.462 231.362,787.567 233.57,786.664 235.777,785.752 237.985,784.83 240.192,783.899 242.4,782.959 244.607,782.009 246.815,781.05 249.022,780.081 251.23,779.103 253.437,778.114 255.645,777.116 257.852,776.108 260.06,775.089 262.267,774.06 264.475,773.021 266.682,771.971 268.89,770.911 271.097,769.84 273.305,768.759 275.512,767.666 277.72,766.563 279.927,765.448 282.135,764.322 284.342,763.185 286.549,762.037 288.757,760.877 290.964,759.705 293.172,758.521 295.379,757.326 297.587,756.118 299.794,754.899 302.002,753.667 304.209,752.422 306.417,751.165 308.624,749.896 310.832,748.614 313.039,747.318 315.247,746.01 317.454,744.689 319.662,743.354 321.869,742.006 324.077,740.645 326.284,739.269 328.492,737.88 330.699,736.477 332.907,735.06 335.114,733.628 337.322,732.182 339.529,730.722 341.737,729.247 343.944,727.757 346.152,726.252 348.359,724.732 350.567,723.196 352.774,721.645 354.982,720.079 357.189,718.497 359.397,716.899 361.604,715.284 363.811,713.654 366.019,712.007 368.226,710.344 370.434,708.663 372.641,706.966 374.849,705.252 377.056,703.521 379.264,701.772 381.471,700.006 383.679,698.221 385.886,696.419 388.094,694.599 390.301,692.76 392.509,690.903 394.716,689.027 396.924,687.133 399.131,685.219 401.339,683.286 403.546,681.334 405.754,679.362 407.961,677.37 410.169,675.358 412.376,673.326 414.584,671.273 416.791,669.2 418.999,667.106 421.206,664.991 423.414,662.854 425.621,660.696 427.829,658.517 430.036,656.315 432.244,654.091 434.451,651.845 436.659,649.577 438.866,647.285 441.073,644.971 443.281,642.633 445.488,640.272 447.696,637.887 449.903,635.478 452.111,633.044 454.318,630.587 456.526,628.104 458.733,625.597 460.941,623.064 463.148,620.506 465.356,617.922 467.563,615.312 469.771,612.676 471.978,610.013 474.186,607.324 476.393,604.607 478.601,601.863 480.808,599.092 483.016,596.292 485.223,593.464 487.431,590.608 489.638,587.724 491.846,584.81 494.053,581.867 496.261,578.894 498.468,575.891 500.676,572.858 502.883,569.795 505.091,566.701 507.298,563.575 509.506,560.419 511.713,1384.24 513.921,1382.63 516.128,1381 518.335,1379.36 520.543,1377.7 522.75,1376.02 524.958,1374.33 527.165,1372.62 529.373,1370.89 531.58,1369.15 533.788,1367.39 535.995,1365.61 538.203,1363.81 540.41,1361.99 542.618,1360.16 544.825,1358.31 547.033,1356.44 549.24,1354.55 551.448,1352.64 553.655,1350.71 555.863,1348.76 558.07,1346.79 560.278,1344.81 562.485,1342.8 564.693,1340.77 566.9,1338.73 569.108,1336.66 571.315,1334.57 573.523,1332.46 575.73,1330.33 577.938,1328.17 580.145,1326 582.353,1323.8 584.56,1321.59 586.768,1319.35 588.975,1317.08 591.182,1314.8 593.39,1312.49 595.597,1310.16 597.805,1307.81 600.012,1306.62 602.22,1305.42 604.427,1304.21 606.635,1302.98 608.842,1301.74 611.05,1300.49 613.257,1299.23 615.465,1297.95 617.672,1296.66 619.88,1295.36 622.087,1294.05 624.295,1292.72 626.502,1291.38 628.71,1290.02 630.917,1288.66 633.125,1287.27 635.332,1285.88 637.54,1284.47 639.747,1283.04 641.955,1281.6 644.162,1280.15 646.37,1278.68 648.577,1277.2 650.785,1275.7 652.992,1274.19 655.2,1272.66 657.407,1271.12 659.615,1269.56 661.822,1267.99 664.03,1266.4 666.237,1264.79 668.444,1263.17 670.652,1261.53 672.859,1259.87 675.067,1258.2 677.274,1256.51 679.482,1254.81 681.689,1253.08 683.897,1251.34 686.104,1249.59 688.312,1247.81 690.519,1246.02 692.727,1244.21 694.934,1242.38 697.142,1240.53 699.349,1238.66 701.557,1236.78 703.764,1234.87 705.972,1232.95 708.179,1231.01 710.387,1229.04 712.594,1227.06 714.802,1225.06 717.009,1223.04 719.217,1220.99 721.424,1218.93 723.632,1216.85 725.839,1214.74 728.047,1212.62 730.254,1210.47 732.462,1208.3 734.669,1206.11 736.877,1203.9 739.084,1201.66 741.292,1199.4 743.499,1197.12 745.706,1194.82 747.914,1192.49 750.121,1190.14 752.329,1187.77 754.536,1185.37 756.744,1182.95 758.951,1180.51 761.159,1178.03 763.366,1175.54 765.574,1173.02 767.781,1170.47 769.989,1167.9 772.196,1165.31 774.404,1162.68 776.611,1160.03 778.819,1157.36 781.026,1154.65 783.234,1151.92 785.441,1149.17 787.649,1146.38 789.856,1143.57 792.064,1140.72 794.271,1137.85 796.479,1134.96 798.686,1132.03 800.894,1129.07 803.101,1126.08 805.309,1123.06 807.516,1120.02 809.724,1116.94 811.931,1113.83 814.139,1110.69 816.346,1107.51 818.553,1104.31 820.761,1101.07 822.968,1097.8 825.176,1094.5 827.383,1091.16 829.591,1087.8 831.798,1084.39 834.006,1080.95 836.213,1077.48 838.421,1073.98 840.628,1070.43 842.836,1066.86 845.043,1063.24 847.251,1059.59 849.458,1055.9 851.666,1052.18 853.873,1048.42 856.081,1044.62 858.288,1040.78 860.496,1036.9 862.703,1032.99 864.911,1029.03 867.118,1025.04 869.326,1021.01 871.533,1016.93 873.741,1012.81 875.948,1008.66 878.156,1004.46 880.363,1000.22 882.571,995.932 884.778,991.605 886.986,987.234 889.193,984.906 891.401,982.677 893.608,980.425 895.815,978.15 898.023,975.852 900.23,973.532 902.438,971.188 904.645,968.82 906.853,966.429 909.06,964.013 911.268,961.573 913.475,959.109 915.683,956.62 917.89,954.106 920.098,951.566 922.305,949.001 924.513,946.411 926.72,943.794 928.928,941.151 931.135,938.481 933.343,935.784 935.55,933.061 937.758,930.309 939.965,927.531 942.173,924.724 944.38,921.889 946.588,919.025 948.795,916.133 951.003,913.211 953.21,910.261 955.418,907.28 957.625,904.269 959.833,901.229 962.04,898.157 964.248,895.055 966.455,891.921 968.663,888.756 970.87,885.559 973.077,882.33 975.285,879.069 977.492,875.775 979.7,872.447 981.907,869.086 984.115,865.691 986.322,862.263 988.53,858.799 990.737,855.301 992.945,851.767 995.152,848.198 997.36,844.594 999.567,840.952 1001.77,837.275 1003.98,833.56 1006.19,829.808 1008.4,826.018 1010.6,822.19 1012.81,818.323 1015.02,814.418 1017.23,810.473 1019.43,806.489 1021.64,802.464 1023.85,798.399 1026.06,794.293 1028.26,790.146 1030.47,785.957 1032.68,781.726 1034.89,778.464 1037.09,776.306 1039.3,774.126 1041.51,771.924 1043.72,769.7 1045.92,767.453 1048.13,765.184 1050.34,762.892 1052.55,760.577 1054.75,758.239 1056.96,755.877 1059.17,753.492 1061.38,751.082 1063.58,748.648 1065.79,746.19 1068,743.707 1070.21,741.199 1072.41,738.666 1074.62,736.108 1076.83,733.523 1079.04,730.913 1081.24,728.276 1083.45,725.613 1085.66,722.923 1087.87,720.206 1090.07,717.462 1092.28,714.69 1094.49,711.89 1096.7,709.062 1098.9,706.205 1101.11,703.32 1103.32,700.406 1105.53,697.462 1107.73,694.489 1109.94,691.486 1112.15,688.452 1114.36,685.388 1116.56,682.294 1118.77,679.168 1120.98,676.01 1123.19,672.821 1125.39,669.6 1127.6,666.347 1129.81,663.06 1132.02,659.741 1134.22,656.388 1136.43,653.002 1138.64,649.581 1140.85,646.126 1143.05,642.637 1145.26,639.112 1147.47,635.552 1149.68,631.956 1151.88,628.324 1154.09,624.655 1156.3,620.949 1158.51,617.206 1160.71,613.426 1162.92,609.607 1165.13,605.75 1167.34,601.854 1169.54,597.919 1171.75,593.944 1173.96,589.93 1176.17,585.875 1178.37,581.779 1180.58,577.642 1182.79,573.463 1185,569.242 1187.2,564.979 1189.41,560.673 1191.62,1011.98 1193.83,1009.78 1196.03,1007.56 1198.24,1005.32 1200.45,1003.06 1202.66,1000.77 1204.86,998.464 1207.07,996.132 1209.28,993.776 1211.49,991.396 1213.69,988.992 1215.9,986.564 1218.11,984.112 1220.32,981.635 1222.52,979.134 1224.73,976.607 1226.94,974.054 1229.15,971.476 1231.35,968.872 1233.56,966.242 1235.77,963.585 1237.98,960.902 1240.18,959.292 1242.39,957.923 1244.6,956.541 1246.81,955.144 1249.01,953.734 1251.22,952.309 1253.43,950.87 1255.64,949.416 1257.84,947.948 1260.05,946.465 1262.26,944.967 1264.47,943.454 1266.67,941.926 1268.88,940.383 1271.09,938.823 1273.3,937.249 1275.5,935.658 1277.71,934.052 1279.92,932.429 1282.13,930.79 1284.33,929.134 1286.54,927.462 1288.75,925.773 1290.96,924.067 1293.16,922.344 1295.37,920.604 1297.58,918.846 1299.79,917.07 1301.99,915.276 1304.2,913.465 1306.41,911.635 1308.62,909.787 1310.82,907.92 1313.03,906.034 1315.24,904.13 1317.45,902.206 1319.65,900.263 1321.86,898.3 1324.07,896.317 1326.28,894.315 1328.48,892.292 1330.69,890.249 1332.9,888.186 1335.11,886.102 1337.31,883.996 1339.52,881.87 1341.73,879.722 1343.94,877.553 1346.14,875.362 1348.35,873.148 1350.56,870.913 1352.76,868.655 1354.97,866.374 1357.18,864.071 1359.39,861.744 1361.59,859.394 1363.8,857.02 1366.01,854.622 1368.22,852.2 1370.42,849.754 1372.63,847.283 1374.84,844.787 1377.05,842.267 1379.25,839.721 1381.46,837.149 1383.67,834.551 1385.88,831.928 1388.08,829.277 1390.29,826.601 1392.5,823.897 1394.71,821.166 1396.91,818.408 1399.12,815.622 1401.33,812.808 1403.54,809.965 1405.74,807.094 1407.95,804.194 1410.16,801.265 1412.37,798.306 1414.57,795.318 1416.78,792.3 1418.99,789.251 1421.2,786.171 1423.4,783.061 1425.61,779.919 1427.82,776.746 1430.03,773.54 1432.23,770.303 1434.44,767.032 1436.65,763.729 1438.86,760.393 1441.06,757.023 1443.27,753.619 1445.48,750.181 1447.69,746.709 1449.89,743.201 1452.1,739.658 1454.31,736.08 1456.52,732.466 1458.72,728.815 1460.93,725.127 1463.14,722.807 1465.35,720.926 1467.55,719.026 1469.76,717.107 1471.97,715.169 1474.18,713.211 1476.38,711.233 1478.59,709.236 1480.8,707.218 1483.01,705.18 1485.21,703.122 1487.42,701.043 1489.63,698.943 1491.84,696.822 1494.04,694.679 1496.25,692.515 1498.46,690.33 1500.67,688.122 1502.87,685.892 1505.08,683.639 1507.29,681.364 1509.5,679.066 1511.7,676.745 1513.91,674.401 1516.12,672.033 1518.33,669.641 1520.53,667.225 1522.74,664.785 1524.95,662.32 1527.16,659.831 1529.36,657.316 1531.57,654.776 1533.78,652.211 1535.99,649.619 1538.19,647.002 1540.4,644.358 1542.61,641.688 1544.82,638.991 1547.02,636.267 1549.23,633.515 1551.44,630.736 1553.65,627.929 1555.85,625.093 1558.06,622.229 1560.27,619.336 1562.48,616.414 1564.68,613.463 1566.89,610.482 1569.1,607.471 1571.31,604.429 1573.51,601.357 1575.72,598.254 1577.93,595.12 1580.14,591.955 1582.34,588.757 1584.55,585.528 1586.76,582.266 1588.97,578.971 1591.17,575.643 1593.38,572.281 1595.59,568.886 1597.8,565.456 1600,561.992 1602.21,913.475 1604.42,911.708 1606.63,909.923 1608.83,908.12 1611.04,906.299 1613.25,904.46 1615.46,902.602 1617.66,900.726 1619.87,898.831 1622.08,896.916 1624.29,894.983 1626.49,893.029 1628.7,891.057 1630.91,889.064 1633.12,887.052 1635.32,885.019 1637.53,882.965 1639.74,880.891 1641.95,878.797 1644.15,876.681 1646.36,874.544 1648.57,872.385 1650.78,870.205 1652.98,868.002 1655.19,865.778 1657.4,863.531 1659.61,861.261 1661.81,858.969 1664.02,856.654 1666.23,854.315 1668.44,851.953 1670.64,849.567 1672.85,847.157 1675.06,844.722 1677.27,842.264 1679.47,839.78 1681.68,837.272 1683.89,834.738 1686.1,832.179 1688.3,829.594 1690.51,826.983 1692.72,824.346 1694.93,821.682 1697.13,818.992 1699.34,816.274 1701.55,813.529 1703.76,810.756 1705.96,807.956 1708.17,805.127 1710.38,802.27 1712.59,799.385 1714.79,796.47 1717,793.526 1719.21,790.552 1721.42,787.549 1723.62,784.515 1725.83,781.451 1728.04,778.355 1730.25,775.229 1732.45,772.072 1734.66,768.882 1736.87,765.661 1739.07,762.407 1741.28,759.12 1743.49,755.8 1745.7,752.447 1747.9,749.06 1750.11,745.639 1752.32,742.184 1754.53,738.693 1756.73,735.168 1758.94,731.607 1761.15,728.011 1763.36,724.378 1765.56,720.708 1767.77,717.002 1769.98,713.258 1772.19,709.477 1774.39,705.657 1776.6,701.8 1778.81,697.903 1781.02,693.967 1783.22,689.991 1785.43,685.976 1787.64,681.92 1789.85,677.823 1792.05,673.685 1794.26,669.506 1796.47,665.284 1798.68,661.02 1800.88,656.714 1803.09,652.363 1805.3,647.97 1807.51,643.531 1809.71,639.049 1811.92,634.521 1814.13,629.947 1816.34,625.328 1818.54,620.662 1820.75,615.949 1822.96,611.852 1825.17,609.448 1827.37,607.019 1829.58,604.567 1831.79,602.089 1834,599.587 1836.2,597.06 1838.41,594.507 1840.62,591.928 1842.83,589.324 1845.03,586.693 1847.24,584.036 1849.45,581.352 1851.66,578.641 1853.86,575.903 1856.07,573.137 1858.28,570.344 1860.49,567.522 1862.69,564.672 1864.9,561.793 1867.11,598.874 1869.32,597.406 1871.52,595.923 1873.73,594.425 1875.94,592.911 1878.15,591.383 1880.35,589.839 1882.56,588.28 1884.77,586.705 1886.98,585.114 1889.18,583.507 1891.39,581.884 1893.6,580.245 1895.81,578.589 1898.01,576.916 1900.22,575.227 1902.43,573.52 1904.64,571.797 1906.84,570.056 1909.05,568.298 1911.26,566.522 1913.47,564.728 1915.67,562.916 1917.88,561.085 1920.09,1121.49 1922.3,1120.56 1924.5,1119.62 1926.71,1118.66 1928.92,1117.7 1931.13,1116.73 1933.33,1115.75 1935.54,1114.76 1937.75,1113.76 1939.96,1112.74 1942.16,1111.72 1944.37,1110.69 1946.58,1109.65 1948.79,1108.6 1950.99,1107.53 1953.2,1106.46 1955.41,1105.37 1957.62,1104.28 1959.82,1103.17 1962.03,1102.05 1964.24,1100.92 1966.45,1099.78 1968.65,1098.63 1970.86,1097.47 1973.07,1096.29 1975.28,1095.11 1977.48,1093.91 1979.69,1092.7 1981.9,1091.47 1984.11,1090.24 1986.31,1088.99 1988.52,1087.73 1990.73,1086.45 1992.94,1085.17 1995.14,1083.87 1997.35,1082.56 1999.56,1081.23 2001.77,1079.89 2003.97,1078.54 2006.18,1077.18 2008.39,1075.8 2010.6,1074.4 2012.8,1072.99 2015.01,1071.57 2017.22,1070.14 2019.43,1068.69 2021.63,1067.22 2023.84,1065.74 2026.05,1064.25 2028.26,1062.74 2030.46,1061.21 2032.67,1059.67 2034.88,1058.12 2037.09,1056.55 2039.29,1054.96 2041.5,1053.36 2043.71,1051.74 2045.92,1050.1 2048.12,1048.45 2050.33,1046.78 2052.54,1045.1 2054.75,1043.4 2056.95,1041.68 2059.16,1039.94 2061.37,1038.19 2063.58,1036.41 2065.78,1034.63 2067.99,1032.82 2070.2,1030.99 2072.41,1029.15 2074.61,1027.28 2076.82,1025.4 2079.03,1023.5 2081.24,1021.58 2083.44,1019.64 2085.65,1017.69 2087.86,1015.71 2090.07,1013.71 2092.27,1011.69 2094.48,1009.65 2096.69,1007.6 2098.9,1005.52 2101.1,1003.42 2103.31,1001.29 2105.52,999.152 2107.73,996.987 2109.93,994.801 2112.14,993.374 2114.35,992.258 2116.55,991.132 2118.76,989.994 2120.97,988.845 2123.18,987.684 2125.38,986.512 2127.59,985.328 2129.8,984.132 2132.01,982.923 2134.21,981.703 2136.42,980.47 2138.63,979.225 2140.84,977.968 2143.04,976.698 2145.25,975.415 2147.46,974.119 2149.67,972.81 2151.87,971.488 2154.08,970.153 2156.29,968.804 2158.5,967.441 2160.7,966.065 2162.91,964.675 2165.12,963.272 2167.33,961.854 2169.53,960.421 2171.74,958.975 2173.95,957.513 2176.16,956.037 2178.36,954.546 2180.57,953.041 2182.78,951.52 2184.99,949.983 2187.19,948.432 2189.4,946.864 2191.61,945.281 2193.82,943.682 2196.02,942.067 2198.23,940.436 2200.44,938.788 2202.65,937.124 2204.85,935.443 2207.06,933.745 2209.27,932.03 2211.48,930.297 2213.68,928.548 2215.89,926.78 2218.1,924.995 2220.31,923.192 2222.51,921.371 2224.72,919.531 2226.93,917.673 2229.14,915.796 2231.34,913.901 2233.55,911.986 2235.76,910.052 2237.97,908.099 2240.17,906.126 2242.38,904.133 2244.59,902.12 2246.8,900.086 2249,898.033 2251.21,895.958 2253.42,893.863 2255.63,891.747 2257.83,889.609 2260.04,887.45 2262.25,885.269 2264.46,883.067 2266.66,880.842 2268.87,878.594 2271.08,876.324 2273.29,874.032 2275.49,871.716 2277.7,869.377 2279.91,867.014 2282.12,864.628 2284.32,862.217 2286.53,859.783 2288.74,857.323 2290.95,854.839 2293.15,852.331 2295.36,849.797 2297.57,847.237 2299.78,844.652 2301.98,842.04 2304.19,839.403 2306.4,836.739 2308.61,834.048 2310.81,831.33 2313.02,828.584 2315.23,825.811 2317.44,823.01 2319.64,820.181 2321.85,817.324 2324.06,814.437 2326.27,811.522 2328.47,808.577 2330.68,805.603 2332.89,802.599 2335.1,799.564 2337.3,796.499 2339.51,793.403 2341.72,790.276 2343.93,787.118 2346.13,783.928 2348.34,780.705 2350.55,777.451 2352.76,774.163 "/>
<path clip-path="url(#clip970)" d="M1969.62 1377.32 L2279.25 1377.32 L2279.25 1221.8 L1969.62 1221.8  Z" fill="#ffffff" fill-rule="evenodd" fill-opacity="1"/>
<polyline clip-path="url(#clip970)" style="stroke:#000000; stroke-linecap:round; stroke-linejoin:round; stroke-width:4; stroke-opacity:1; fill:none" points="1969.62,1377.32 2279.25,1377.32 2279.25,1221.8 1969.62,1221.8 1969.62,1377.32 "/>
<polyline clip-path="url(#clip970)" style="stroke:#009af9; stroke-linecap:round; stroke-linejoin:round; stroke-width:8; stroke-opacity:1; fill:none" points="1994.13,1273.64 2141.14,1273.64 "/>
<path clip-path="url(#clip970)" d="M2165.65 1280.68 L2165.65 1264.99 L2169.91 1264.99 L2169.91 1280.52 Q2169.91 1284.2 2171.34 1286.05 Q2172.78 1287.88 2175.65 1287.88 Q2179.1 1287.88 2181.09 1285.68 Q2183.1 1283.48 2183.1 1279.69 L2183.1 1264.99 L2187.36 1264.99 L2187.36 1290.92 L2183.1 1290.92 L2183.1 1286.93 Q2181.55 1289.29 2179.49 1290.45 Q2177.45 1291.59 2174.74 1291.59 Q2170.28 1291.59 2167.96 1288.81 Q2165.65 1286.03 2165.65 1280.68 M2176.36 1264.36 L2176.36 1264.36 Z" fill="#000000" fill-rule="nonzero" fill-opacity="1" /><path clip-path="url(#clip970)" d="M2195.74 1254.9 L2205.55 1254.9 L2205.55 1258.21 L2200 1258.21 L2200 1293.86 L2205.55 1293.86 L2205.55 1297.17 L2195.74 1297.17 L2195.74 1254.9 Z" fill="#000000" fill-rule="nonzero" fill-opacity="1" /><path clip-path="url(#clip970)" d="M2216.04 1286.98 L2223.68 1286.98 L2223.68 1260.61 L2215.37 1262.28 L2215.37 1258.02 L2223.63 1256.36 L2228.31 1256.36 L2228.31 1286.98 L2235.95 1286.98 L2235.95 1290.92 L2216.04 1290.92 L2216.04 1286.98 Z" fill="#000000" fill-rule="nonzero" fill-opacity="1" /><path clip-path="url(#clip970)" d="M2254.74 1254.9 L2254.74 1297.17 L2244.93 1297.17 L2244.93 1293.86 L2250.46 1293.86 L2250.46 1258.21 L2244.93 1258.21 L2244.93 1254.9 L2254.74 1254.9 Z" fill="#000000" fill-rule="nonzero" fill-opacity="1" /><polyline clip-path="url(#clip970)" style="stroke:#e26f46; stroke-linecap:round; stroke-linejoin:round; stroke-width:8; stroke-opacity:1; fill:none" points="1994.13,1325.48 2141.14,1325.48 "/>
<path clip-path="url(#clip970)" d="M2165.65 1332.52 L2165.65 1316.83 L2169.91 1316.83 L2169.91 1332.36 Q2169.91 1336.04 2171.34 1337.89 Q2172.78 1339.72 2175.65 1339.72 Q2179.1 1339.72 2181.09 1337.52 Q2183.1 1335.32 2183.1 1331.53 L2183.1 1316.83 L2187.36 1316.83 L2187.36 1342.76 L2183.1 1342.76 L2183.1 1338.77 Q2181.55 1341.13 2179.49 1342.29 Q2177.45 1343.43 2174.74 1343.43 Q2170.28 1343.43 2167.96 1340.65 Q2165.65 1337.87 2165.65 1332.52 M2176.36 1316.2 L2176.36 1316.2 Z" fill="#000000" fill-rule="nonzero" fill-opacity="1" /><path clip-path="url(#clip970)" d="M2195.74 1306.74 L2205.55 1306.74 L2205.55 1310.05 L2200 1310.05 L2200 1345.7 L2205.55 1345.7 L2205.55 1349.01 L2195.74 1349.01 L2195.74 1306.74 Z" fill="#000000" fill-rule="nonzero" fill-opacity="1" /><path clip-path="url(#clip970)" d="M2219.26 1338.82 L2235.58 1338.82 L2235.58 1342.76 L2213.63 1342.76 L2213.63 1338.82 Q2216.29 1336.07 2220.88 1331.44 Q2225.48 1326.78 2226.66 1325.44 Q2228.91 1322.92 2229.79 1321.18 Q2230.69 1319.42 2230.69 1317.73 Q2230.69 1314.98 2228.75 1313.24 Q2226.83 1311.51 2223.73 1311.51 Q2221.53 1311.51 2219.07 1312.27 Q2216.64 1313.03 2213.86 1314.58 L2213.86 1309.86 Q2216.69 1308.73 2219.14 1308.15 Q2221.6 1307.57 2223.63 1307.57 Q2229 1307.57 2232.2 1310.26 Q2235.39 1312.94 2235.39 1317.43 Q2235.39 1319.56 2234.58 1321.48 Q2233.79 1323.38 2231.69 1325.97 Q2231.11 1326.64 2228.01 1329.86 Q2224.91 1333.06 2219.26 1338.82 Z" fill="#000000" fill-rule="nonzero" fill-opacity="1" /><path clip-path="url(#clip970)" d="M2254.74 1306.74 L2254.74 1349.01 L2244.93 1349.01 L2244.93 1345.7 L2250.46 1345.7 L2250.46 1310.05 L2244.93 1310.05 L2244.93 1306.74 L2254.74 1306.74 Z" fill="#000000" fill-rule="nonzero" fill-opacity="1" /></svg>
