<?xml version="1.0" encoding="utf-8"?>
<svg xmlns="http://www.w3.org/2000/svg" xmlns:xlink="http://www.w3.org/1999/xlink" width="600" height="400" viewBox="0 0 2400 1600">
<defs>
  <clipPath id="clip120">
    <rect x="0" y="0" width="2400" height="1600"/>
  </clipPath>
</defs>
<path clip-path="url(#clip120)" d="M0 1600 L2400 1600 L2400 0 L0 0  Z" fill="#ffffff" fill-rule="evenodd" fill-opacity="1"/>
<defs>
  <clipPath id="clip121">
    <rect x="480" y="0" width="1681" height="1600"/>
  </clipPath>
</defs>
<path clip-path="url(#clip120)" d="M193.936 1423.18 L2352.76 1423.18 L2352.76 47.2441 L193.936 47.2441  Z" fill="#ffffff" fill-rule="evenodd" fill-opacity="1"/>
<defs>
  <clipPath id="clip122">
    <rect x="193" y="47" width="2160" height="1377"/>
  </clipPath>
</defs>
<polyline clip-path="url(#clip122)" style="stroke:#000000; stroke-linecap:round; stroke-linejoin:round; stroke-width:2; stroke-opacity:0.1; fill:none" points="193.936,1423.18 193.936,47.2441 "/>
<polyline clip-path="url(#clip122)" style="stroke:#000000; stroke-linecap:round; stroke-linejoin:round; stroke-width:2; stroke-opacity:0.1; fill:none" points="625.7,1423.18 625.7,47.2441 "/>
<polyline clip-path="url(#clip122)" style="stroke:#000000; stroke-linecap:round; stroke-linejoin:round; stroke-width:2; stroke-opacity:0.1; fill:none" points="1057.46,1423.18 1057.46,47.2441 "/>
<polyline clip-path="url(#clip122)" style="stroke:#000000; stroke-linecap:round; stroke-linejoin:round; stroke-width:2; stroke-opacity:0.1; fill:none" points="1489.23,1423.18 1489.23,47.2441 "/>
<polyline clip-path="url(#clip122)" style="stroke:#000000; stroke-linecap:round; stroke-linejoin:round; stroke-width:2; stroke-opacity:0.1; fill:none" points="1920.99,1423.18 1920.99,47.2441 "/>
<polyline clip-path="url(#clip122)" style="stroke:#000000; stroke-linecap:round; stroke-linejoin:round; stroke-width:2; stroke-opacity:0.1; fill:none" points="2352.76,1423.18 2352.76,47.2441 "/>
<polyline clip-path="url(#clip120)" style="stroke:#000000; stroke-linecap:round; stroke-linejoin:round; stroke-width:4; stroke-opacity:1; fill:none" points="193.936,1423.18 2352.76,1423.18 "/>
<polyline clip-path="url(#clip120)" style="stroke:#000000; stroke-linecap:round; stroke-linejoin:round; stroke-width:4; stroke-opacity:1; fill:none" points="193.936,1423.18 193.936,1404.28 "/>
<polyline clip-path="url(#clip120)" style="stroke:#000000; stroke-linecap:round; stroke-linejoin:round; stroke-width:4; stroke-opacity:1; fill:none" points="625.7,1423.18 625.7,1404.28 "/>
<polyline clip-path="url(#clip120)" style="stroke:#000000; stroke-linecap:round; stroke-linejoin:round; stroke-width:4; stroke-opacity:1; fill:none" points="1057.46,1423.18 1057.46,1404.28 "/>
<polyline clip-path="url(#clip120)" style="stroke:#000000; stroke-linecap:round; stroke-linejoin:round; stroke-width:4; stroke-opacity:1; fill:none" points="1489.23,1423.18 1489.23,1404.28 "/>
<polyline clip-path="url(#clip120)" style="stroke:#000000; stroke-linecap:round; stroke-linejoin:round; stroke-width:4; stroke-opacity:1; fill:none" points="1920.99,1423.18 1920.99,1404.28 "/>
<polyline clip-path="url(#clip120)" style="stroke:#000000; stroke-linecap:round; stroke-linejoin:round; stroke-width:4; stroke-opacity:1; fill:none" points="2352.76,1423.18 2352.76,1404.28 "/>
<path clip-path="url(#clip120)" d="M193.936 1454.1 Q190.325 1454.1 188.496 1457.66 Q186.691 1461.2 186.691 1468.33 Q186.691 1475.44 188.496 1479.01 Q190.325 1482.55 193.936 1482.55 Q197.57 1482.55 199.376 1479.01 Q201.204 1475.44 201.204 1468.33 Q201.204 1461.2 199.376 1457.66 Q197.57 1454.1 193.936 1454.1 M193.936 1450.39 Q199.746 1450.39 202.802 1455 Q205.88 1459.58 205.88 1468.33 Q205.88 1477.06 202.802 1481.67 Q199.746 1486.25 193.936 1486.25 Q188.126 1486.25 185.047 1481.67 Q181.992 1477.06 181.992 1468.33 Q181.992 1459.58 185.047 1455 Q188.126 1450.39 193.936 1450.39 Z" fill="#000000" fill-rule="nonzero" fill-opacity="1" /><path clip-path="url(#clip120)" d="M620.353 1481.64 L636.672 1481.64 L636.672 1485.58 L614.728 1485.58 L614.728 1481.64 Q617.39 1478.89 621.973 1474.26 Q626.58 1469.61 627.76 1468.27 Q630.006 1465.74 630.885 1464.01 Q631.788 1462.25 631.788 1460.56 Q631.788 1457.8 629.843 1456.07 Q627.922 1454.33 624.82 1454.33 Q622.621 1454.33 620.168 1455.09 Q617.737 1455.86 614.959 1457.41 L614.959 1452.69 Q617.783 1451.55 620.237 1450.97 Q622.691 1450.39 624.728 1450.39 Q630.098 1450.39 633.293 1453.08 Q636.487 1455.77 636.487 1460.26 Q636.487 1462.39 635.677 1464.31 Q634.89 1466.2 632.783 1468.8 Q632.205 1469.47 629.103 1472.69 Q626.001 1475.88 620.353 1481.64 Z" fill="#000000" fill-rule="nonzero" fill-opacity="1" /><path clip-path="url(#clip120)" d="M1060.47 1455.09 L1048.67 1473.54 L1060.47 1473.54 L1060.47 1455.09 M1059.25 1451.02 L1065.13 1451.02 L1065.13 1473.54 L1070.06 1473.54 L1070.06 1477.43 L1065.13 1477.43 L1065.13 1485.58 L1060.47 1485.58 L1060.47 1477.43 L1044.87 1477.43 L1044.87 1472.92 L1059.25 1451.02 Z" fill="#000000" fill-rule="nonzero" fill-opacity="1" /><path clip-path="url(#clip120)" d="M1489.63 1466.44 Q1486.48 1466.44 1484.63 1468.59 Q1482.8 1470.74 1482.8 1474.49 Q1482.8 1478.22 1484.63 1480.39 Q1486.48 1482.55 1489.63 1482.55 Q1492.78 1482.55 1494.61 1480.39 Q1496.46 1478.22 1496.46 1474.49 Q1496.46 1470.74 1494.61 1468.59 Q1492.78 1466.44 1489.63 1466.44 M1498.92 1451.78 L1498.92 1456.04 Q1497.16 1455.21 1495.35 1454.77 Q1493.57 1454.33 1491.81 1454.33 Q1487.18 1454.33 1484.73 1457.45 Q1482.3 1460.58 1481.95 1466.9 Q1483.31 1464.89 1485.37 1463.82 Q1487.43 1462.73 1489.91 1462.73 Q1495.12 1462.73 1498.13 1465.9 Q1501.16 1469.05 1501.16 1474.49 Q1501.16 1479.82 1498.01 1483.03 Q1494.86 1486.25 1489.63 1486.25 Q1483.64 1486.25 1480.47 1481.67 Q1477.3 1477.06 1477.3 1468.33 Q1477.3 1460.14 1481.18 1455.28 Q1485.07 1450.39 1491.62 1450.39 Q1493.38 1450.39 1495.17 1450.74 Q1496.97 1451.09 1498.92 1451.78 Z" fill="#000000" fill-rule="nonzero" fill-opacity="1" /><path clip-path="url(#clip120)" d="M1920.99 1469.17 Q1917.66 1469.17 1915.74 1470.95 Q1913.84 1472.73 1913.84 1475.86 Q1913.84 1478.98 1915.74 1480.77 Q1917.66 1482.55 1920.99 1482.55 Q1924.33 1482.55 1926.25 1480.77 Q1928.17 1478.96 1928.17 1475.86 Q1928.17 1472.73 1926.25 1470.95 Q1924.35 1469.17 1920.99 1469.17 M1916.32 1467.18 Q1913.31 1466.44 1911.62 1464.38 Q1909.95 1462.32 1909.95 1459.35 Q1909.95 1455.21 1912.89 1452.8 Q1915.85 1450.39 1920.99 1450.39 Q1926.15 1450.39 1929.09 1452.8 Q1932.03 1455.21 1932.03 1459.35 Q1932.03 1462.32 1930.34 1464.38 Q1928.68 1466.44 1925.69 1467.18 Q1929.07 1467.96 1930.95 1470.26 Q1932.84 1472.55 1932.84 1475.86 Q1932.84 1480.88 1929.77 1483.57 Q1926.71 1486.25 1920.99 1486.25 Q1915.27 1486.25 1912.2 1483.57 Q1909.14 1480.88 1909.14 1475.86 Q1909.14 1472.55 1911.04 1470.26 Q1912.94 1467.96 1916.32 1467.18 M1914.6 1459.79 Q1914.6 1462.48 1916.27 1463.98 Q1917.96 1465.49 1920.99 1465.49 Q1924 1465.49 1925.69 1463.98 Q1927.4 1462.48 1927.4 1459.79 Q1927.4 1457.11 1925.69 1455.6 Q1924 1454.1 1920.99 1454.1 Q1917.96 1454.1 1916.27 1455.6 Q1914.6 1457.11 1914.6 1459.79 Z" fill="#000000" fill-rule="nonzero" fill-opacity="1" /><path clip-path="url(#clip120)" d="M2327.44 1481.64 L2335.08 1481.64 L2335.08 1455.28 L2326.77 1456.95 L2326.77 1452.69 L2335.04 1451.02 L2339.71 1451.02 L2339.71 1481.64 L2347.35 1481.64 L2347.35 1485.58 L2327.44 1485.58 L2327.44 1481.64 Z" fill="#000000" fill-rule="nonzero" fill-opacity="1" /><path clip-path="url(#clip120)" d="M2366.8 1454.1 Q2363.18 1454.1 2361.36 1457.66 Q2359.55 1461.2 2359.55 1468.33 Q2359.55 1475.44 2361.36 1479.01 Q2363.18 1482.55 2366.8 1482.55 Q2370.43 1482.55 2372.23 1479.01 Q2374.06 1475.44 2374.06 1468.33 Q2374.06 1461.2 2372.23 1457.66 Q2370.43 1454.1 2366.8 1454.1 M2366.8 1450.39 Q2372.61 1450.39 2375.66 1455 Q2378.74 1459.58 2378.74 1468.33 Q2378.74 1477.06 2375.66 1481.67 Q2372.61 1486.25 2366.8 1486.25 Q2360.99 1486.25 2357.91 1481.67 Q2354.85 1477.06 2354.85 1468.33 Q2354.85 1459.58 2357.91 1455 Q2360.99 1450.39 2366.8 1450.39 Z" fill="#000000" fill-rule="nonzero" fill-opacity="1" /><path clip-path="url(#clip120)" d="M1272.41 1522.27 L1272.41 1532.4 L1284.47 1532.4 L1284.47 1536.95 L1272.41 1536.95 L1272.41 1556.3 Q1272.41 1560.66 1273.58 1561.9 Q1274.79 1563.14 1278.45 1563.14 L1284.47 1563.14 L1284.47 1568.04 L1278.45 1568.04 Q1271.67 1568.04 1269.1 1565.53 Q1266.52 1562.98 1266.52 1556.3 L1266.52 1536.95 L1262.22 1536.95 L1262.22 1532.4 L1266.52 1532.4 L1266.52 1522.27 L1272.41 1522.27 Z" fill="#000000" fill-rule="nonzero" fill-opacity="1" /><polyline clip-path="url(#clip122)" style="stroke:#000000; stroke-linecap:round; stroke-linejoin:round; stroke-width:2; stroke-opacity:0.1; fill:none" points="193.936,1363.41 2352.76,1363.41 "/>
<polyline clip-path="url(#clip122)" style="stroke:#000000; stroke-linecap:round; stroke-linejoin:round; stroke-width:2; stroke-opacity:0.1; fill:none" points="193.936,1164.28 2352.76,1164.28 "/>
<polyline clip-path="url(#clip122)" style="stroke:#000000; stroke-linecap:round; stroke-linejoin:round; stroke-width:2; stroke-opacity:0.1; fill:none" points="193.936,965.152 2352.76,965.152 "/>
<polyline clip-path="url(#clip122)" style="stroke:#000000; stroke-linecap:round; stroke-linejoin:round; stroke-width:2; stroke-opacity:0.1; fill:none" points="193.936,766.024 2352.76,766.024 "/>
<polyline clip-path="url(#clip122)" style="stroke:#000000; stroke-linecap:round; stroke-linejoin:round; stroke-width:2; stroke-opacity:0.1; fill:none" points="193.936,566.896 2352.76,566.896 "/>
<polyline clip-path="url(#clip122)" style="stroke:#000000; stroke-linecap:round; stroke-linejoin:round; stroke-width:2; stroke-opacity:0.1; fill:none" points="193.936,367.768 2352.76,367.768 "/>
<polyline clip-path="url(#clip122)" style="stroke:#000000; stroke-linecap:round; stroke-linejoin:round; stroke-width:2; stroke-opacity:0.1; fill:none" points="193.936,168.64 2352.76,168.64 "/>
<polyline clip-path="url(#clip120)" style="stroke:#000000; stroke-linecap:round; stroke-linejoin:round; stroke-width:4; stroke-opacity:1; fill:none" points="193.936,1423.18 193.936,47.2441 "/>
<polyline clip-path="url(#clip120)" style="stroke:#000000; stroke-linecap:round; stroke-linejoin:round; stroke-width:4; stroke-opacity:1; fill:none" points="193.936,1363.41 212.834,1363.41 "/>
<polyline clip-path="url(#clip120)" style="stroke:#000000; stroke-linecap:round; stroke-linejoin:round; stroke-width:4; stroke-opacity:1; fill:none" points="193.936,1164.28 212.834,1164.28 "/>
<polyline clip-path="url(#clip120)" style="stroke:#000000; stroke-linecap:round; stroke-linejoin:round; stroke-width:4; stroke-opacity:1; fill:none" points="193.936,965.152 212.834,965.152 "/>
<polyline clip-path="url(#clip120)" style="stroke:#000000; stroke-linecap:round; stroke-linejoin:round; stroke-width:4; stroke-opacity:1; fill:none" points="193.936,766.024 212.834,766.024 "/>
<polyline clip-path="url(#clip120)" style="stroke:#000000; stroke-linecap:round; stroke-linejoin:round; stroke-width:4; stroke-opacity:1; fill:none" points="193.936,566.896 212.834,566.896 "/>
<polyline clip-path="url(#clip120)" style="stroke:#000000; stroke-linecap:round; stroke-linejoin:round; stroke-width:4; stroke-opacity:1; fill:none" points="193.936,367.768 212.834,367.768 "/>
<polyline clip-path="url(#clip120)" style="stroke:#000000; stroke-linecap:round; stroke-linejoin:round; stroke-width:4; stroke-opacity:1; fill:none" points="193.936,168.64 212.834,168.64 "/>
<path clip-path="url(#clip120)" d="M51.9875 1363.86 L81.6633 1363.86 L81.6633 1367.79 L51.9875 1367.79 L51.9875 1363.86 Z" fill="#000000" fill-rule="nonzero" fill-opacity="1" /><path clip-path="url(#clip120)" d="M95.7836 1376.75 L112.103 1376.75 L112.103 1380.69 L90.1586 1380.69 L90.1586 1376.75 Q92.8206 1374 97.4039 1369.37 Q102.01 1364.72 103.191 1363.37 Q105.436 1360.85 106.316 1359.11 Q107.219 1357.35 107.219 1355.66 Q107.219 1352.91 105.274 1351.17 Q103.353 1349.44 100.251 1349.44 Q98.0521 1349.44 95.5984 1350.2 Q93.1678 1350.97 90.3901 1352.52 L90.3901 1347.79 Q93.2141 1346.66 95.6678 1346.08 Q98.1215 1345.5 100.159 1345.5 Q105.529 1345.5 108.723 1348.19 Q111.918 1350.87 111.918 1355.36 Q111.918 1357.49 111.108 1359.41 Q110.321 1361.31 108.214 1363.91 Q107.635 1364.58 104.534 1367.79 Q101.432 1370.99 95.7836 1376.75 Z" fill="#000000" fill-rule="nonzero" fill-opacity="1" /><path clip-path="url(#clip120)" d="M121.918 1374.81 L126.802 1374.81 L126.802 1380.69 L121.918 1380.69 L121.918 1374.81 Z" fill="#000000" fill-rule="nonzero" fill-opacity="1" /><path clip-path="url(#clip120)" d="M137.033 1346.13 L155.39 1346.13 L155.39 1350.06 L141.316 1350.06 L141.316 1358.54 Q142.334 1358.19 143.353 1358.03 Q144.371 1357.84 145.39 1357.84 Q151.177 1357.84 154.556 1361.01 Q157.936 1364.18 157.936 1369.6 Q157.936 1375.18 154.464 1378.28 Q150.992 1381.36 144.672 1381.36 Q142.496 1381.36 140.228 1380.99 Q137.982 1380.62 135.575 1379.88 L135.575 1375.18 Q137.658 1376.31 139.881 1376.87 Q142.103 1377.42 144.58 1377.42 Q148.584 1377.42 150.922 1375.32 Q153.26 1373.21 153.26 1369.6 Q153.26 1365.99 150.922 1363.88 Q148.584 1361.78 144.58 1361.78 Q142.705 1361.78 140.83 1362.19 Q138.978 1362.61 137.033 1363.49 L137.033 1346.13 Z" fill="#000000" fill-rule="nonzero" fill-opacity="1" /><path clip-path="url(#clip120)" d="M50.9921 1164.73 L80.6679 1164.73 L80.6679 1168.67 L50.9921 1168.67 L50.9921 1164.73 Z" fill="#000000" fill-rule="nonzero" fill-opacity="1" /><path clip-path="url(#clip120)" d="M94.7882 1177.62 L111.108 1177.62 L111.108 1181.56 L89.1632 1181.56 L89.1632 1177.62 Q91.8252 1174.87 96.4085 1170.24 Q101.015 1165.59 102.196 1164.25 Q104.441 1161.72 105.321 1159.99 Q106.223 1158.23 106.223 1156.54 Q106.223 1153.78 104.279 1152.05 Q102.358 1150.31 99.2558 1150.31 Q97.0567 1150.31 94.603 1151.07 Q92.1725 1151.84 89.3947 1153.39 L89.3947 1148.67 Q92.2188 1147.53 94.6724 1146.95 Q97.1261 1146.37 99.1632 1146.37 Q104.534 1146.37 107.728 1149.06 Q110.922 1151.75 110.922 1156.24 Q110.922 1158.37 110.112 1160.29 Q109.325 1162.19 107.219 1164.78 Q106.64 1165.45 103.538 1168.67 Q100.436 1171.86 94.7882 1177.62 Z" fill="#000000" fill-rule="nonzero" fill-opacity="1" /><path clip-path="url(#clip120)" d="M120.922 1175.68 L125.807 1175.68 L125.807 1181.56 L120.922 1181.56 L120.922 1175.68 Z" fill="#000000" fill-rule="nonzero" fill-opacity="1" /><path clip-path="url(#clip120)" d="M145.992 1150.08 Q142.381 1150.08 140.552 1153.64 Q138.746 1157.19 138.746 1164.31 Q138.746 1171.42 140.552 1174.99 Q142.381 1178.53 145.992 1178.53 Q149.626 1178.53 151.431 1174.99 Q153.26 1171.42 153.26 1164.31 Q153.26 1157.19 151.431 1153.64 Q149.626 1150.08 145.992 1150.08 M145.992 1146.37 Q151.802 1146.37 154.857 1150.98 Q157.936 1155.56 157.936 1164.31 Q157.936 1173.04 154.857 1177.65 Q151.802 1182.23 145.992 1182.23 Q140.181 1182.23 137.103 1177.65 Q134.047 1173.04 134.047 1164.31 Q134.047 1155.56 137.103 1150.98 Q140.181 1146.37 145.992 1146.37 Z" fill="#000000" fill-rule="nonzero" fill-opacity="1" /><path clip-path="url(#clip120)" d="M51.9875 965.603 L81.6633 965.603 L81.6633 969.538 L51.9875 969.538 L51.9875 965.603 Z" fill="#000000" fill-rule="nonzero" fill-opacity="1" /><path clip-path="url(#clip120)" d="M92.566 978.497 L100.205 978.497 L100.205 952.131 L91.8947 953.798 L91.8947 949.539 L100.159 947.872 L104.834 947.872 L104.834 978.497 L112.473 978.497 L112.473 982.432 L92.566 982.432 L92.566 978.497 Z" fill="#000000" fill-rule="nonzero" fill-opacity="1" /><path clip-path="url(#clip120)" d="M121.918 976.552 L126.802 976.552 L126.802 982.432 L121.918 982.432 L121.918 976.552 Z" fill="#000000" fill-rule="nonzero" fill-opacity="1" /><path clip-path="url(#clip120)" d="M137.033 947.872 L155.39 947.872 L155.39 951.807 L141.316 951.807 L141.316 960.279 Q142.334 959.932 143.353 959.77 Q144.371 959.585 145.39 959.585 Q151.177 959.585 154.556 962.756 Q157.936 965.927 157.936 971.344 Q157.936 976.923 154.464 980.025 Q150.992 983.103 144.672 983.103 Q142.496 983.103 140.228 982.733 Q137.982 982.362 135.575 981.622 L135.575 976.923 Q137.658 978.057 139.881 978.613 Q142.103 979.168 144.58 979.168 Q148.584 979.168 150.922 977.062 Q153.26 974.955 153.26 971.344 Q153.26 967.733 150.922 965.626 Q148.584 963.52 144.58 963.52 Q142.705 963.52 140.83 963.937 Q138.978 964.353 137.033 965.233 L137.033 947.872 Z" fill="#000000" fill-rule="nonzero" fill-opacity="1" /><path clip-path="url(#clip120)" d="M50.9921 766.475 L80.6679 766.475 L80.6679 770.41 L50.9921 770.41 L50.9921 766.475 Z" fill="#000000" fill-rule="nonzero" fill-opacity="1" /><path clip-path="url(#clip120)" d="M91.5706 779.369 L99.2095 779.369 L99.2095 753.003 L90.8993 754.67 L90.8993 750.411 L99.1632 748.744 L103.839 748.744 L103.839 779.369 L111.478 779.369 L111.478 783.304 L91.5706 783.304 L91.5706 779.369 Z" fill="#000000" fill-rule="nonzero" fill-opacity="1" /><path clip-path="url(#clip120)" d="M120.922 777.424 L125.807 777.424 L125.807 783.304 L120.922 783.304 L120.922 777.424 Z" fill="#000000" fill-rule="nonzero" fill-opacity="1" /><path clip-path="url(#clip120)" d="M145.992 751.823 Q142.381 751.823 140.552 755.387 Q138.746 758.929 138.746 766.059 Q138.746 773.165 140.552 776.73 Q142.381 780.272 145.992 780.272 Q149.626 780.272 151.431 776.73 Q153.26 773.165 153.26 766.059 Q153.26 758.929 151.431 755.387 Q149.626 751.823 145.992 751.823 M145.992 748.119 Q151.802 748.119 154.857 752.725 Q157.936 757.309 157.936 766.059 Q157.936 774.785 154.857 779.392 Q151.802 783.975 145.992 783.975 Q140.181 783.975 137.103 779.392 Q134.047 774.785 134.047 766.059 Q134.047 757.309 137.103 752.725 Q140.181 748.119 145.992 748.119 Z" fill="#000000" fill-rule="nonzero" fill-opacity="1" /><path clip-path="url(#clip120)" d="M51.9875 567.347 L81.6633 567.347 L81.6633 571.282 L51.9875 571.282 L51.9875 567.347 Z" fill="#000000" fill-rule="nonzero" fill-opacity="1" /><path clip-path="url(#clip120)" d="M101.756 552.695 Q98.1447 552.695 96.316 556.259 Q94.5104 559.801 94.5104 566.931 Q94.5104 574.037 96.316 577.602 Q98.1447 581.144 101.756 581.144 Q105.39 581.144 107.196 577.602 Q109.024 574.037 109.024 566.931 Q109.024 559.801 107.196 556.259 Q105.39 552.695 101.756 552.695 M101.756 548.991 Q107.566 548.991 110.621 553.597 Q113.7 558.181 113.7 566.931 Q113.7 575.657 110.621 580.264 Q107.566 584.847 101.756 584.847 Q95.9456 584.847 92.8669 580.264 Q89.8114 575.657 89.8114 566.931 Q89.8114 558.181 92.8669 553.597 Q95.9456 548.991 101.756 548.991 Z" fill="#000000" fill-rule="nonzero" fill-opacity="1" /><path clip-path="url(#clip120)" d="M121.918 578.296 L126.802 578.296 L126.802 584.176 L121.918 584.176 L121.918 578.296 Z" fill="#000000" fill-rule="nonzero" fill-opacity="1" /><path clip-path="url(#clip120)" d="M137.033 549.616 L155.39 549.616 L155.39 553.551 L141.316 553.551 L141.316 562.023 Q142.334 561.676 143.353 561.514 Q144.371 561.329 145.39 561.329 Q151.177 561.329 154.556 564.5 Q157.936 567.671 157.936 573.088 Q157.936 578.667 154.464 581.768 Q150.992 584.847 144.672 584.847 Q142.496 584.847 140.228 584.477 Q137.982 584.106 135.575 583.366 L135.575 578.667 Q137.658 579.801 139.881 580.356 Q142.103 580.912 144.58 580.912 Q148.584 580.912 150.922 578.806 Q153.26 576.699 153.26 573.088 Q153.26 569.477 150.922 567.37 Q148.584 565.264 144.58 565.264 Q142.705 565.264 140.83 565.681 Q138.978 566.097 137.033 566.977 L137.033 549.616 Z" fill="#000000" fill-rule="nonzero" fill-opacity="1" /><path clip-path="url(#clip120)" d="M100.76 353.567 Q97.1493 353.567 95.3206 357.131 Q93.515 360.673 93.515 367.803 Q93.515 374.909 95.3206 378.474 Q97.1493 382.015 100.76 382.015 Q104.395 382.015 106.2 378.474 Q108.029 374.909 108.029 367.803 Q108.029 360.673 106.2 357.131 Q104.395 353.567 100.76 353.567 M100.76 349.863 Q106.571 349.863 109.626 354.469 Q112.705 359.053 112.705 367.803 Q112.705 376.529 109.626 381.136 Q106.571 385.719 100.76 385.719 Q94.9502 385.719 91.8715 381.136 Q88.816 376.529 88.816 367.803 Q88.816 359.053 91.8715 354.469 Q94.9502 349.863 100.76 349.863 Z" fill="#000000" fill-rule="nonzero" fill-opacity="1" /><path clip-path="url(#clip120)" d="M120.922 379.168 L125.807 379.168 L125.807 385.048 L120.922 385.048 L120.922 379.168 Z" fill="#000000" fill-rule="nonzero" fill-opacity="1" /><path clip-path="url(#clip120)" d="M145.992 353.567 Q142.381 353.567 140.552 357.131 Q138.746 360.673 138.746 367.803 Q138.746 374.909 140.552 378.474 Q142.381 382.015 145.992 382.015 Q149.626 382.015 151.431 378.474 Q153.26 374.909 153.26 367.803 Q153.26 360.673 151.431 357.131 Q149.626 353.567 145.992 353.567 M145.992 349.863 Q151.802 349.863 154.857 354.469 Q157.936 359.053 157.936 367.803 Q157.936 376.529 154.857 381.136 Q151.802 385.719 145.992 385.719 Q140.181 385.719 137.103 381.136 Q134.047 376.529 134.047 367.803 Q134.047 359.053 137.103 354.469 Q140.181 349.863 145.992 349.863 Z" fill="#000000" fill-rule="nonzero" fill-opacity="1" /><path clip-path="url(#clip120)" d="M101.756 154.439 Q98.1447 154.439 96.316 158.003 Q94.5104 161.545 94.5104 168.675 Q94.5104 175.781 96.316 179.346 Q98.1447 182.887 101.756 182.887 Q105.39 182.887 107.196 179.346 Q109.024 175.781 109.024 168.675 Q109.024 161.545 107.196 158.003 Q105.39 154.439 101.756 154.439 M101.756 150.735 Q107.566 150.735 110.621 155.341 Q113.7 159.925 113.7 168.675 Q113.7 177.401 110.621 182.008 Q107.566 186.591 101.756 186.591 Q95.9456 186.591 92.8669 182.008 Q89.8114 177.401 89.8114 168.675 Q89.8114 159.925 92.8669 155.341 Q95.9456 150.735 101.756 150.735 Z" fill="#000000" fill-rule="nonzero" fill-opacity="1" /><path clip-path="url(#clip120)" d="M121.918 180.04 L126.802 180.04 L126.802 185.92 L121.918 185.92 L121.918 180.04 Z" fill="#000000" fill-rule="nonzero" fill-opacity="1" /><path clip-path="url(#clip120)" d="M137.033 151.36 L155.39 151.36 L155.39 155.295 L141.316 155.295 L141.316 163.767 Q142.334 163.42 143.353 163.258 Q144.371 163.073 145.39 163.073 Q151.177 163.073 154.556 166.244 Q157.936 169.415 157.936 174.832 Q157.936 180.411 154.464 183.512 Q150.992 186.591 144.672 186.591 Q142.496 186.591 140.228 186.221 Q137.982 185.85 135.575 185.11 L135.575 180.411 Q137.658 181.545 139.881 182.1 Q142.103 182.656 144.58 182.656 Q148.584 182.656 150.922 180.55 Q153.26 178.443 153.26 174.832 Q153.26 171.221 150.922 169.114 Q148.584 167.008 144.58 167.008 Q142.705 167.008 140.83 167.425 Q138.978 167.841 137.033 168.721 L137.033 151.36 Z" fill="#000000" fill-rule="nonzero" fill-opacity="1" /><polyline clip-path="url(#clip122)" style="stroke:#009af9; stroke-linecap:round; stroke-linejoin:round; stroke-width:8; stroke-opacity:1; fill:none" points="193.936,288.117 194.206,288.375 194.446,289.062 194.716,290.873 195.02,290.468 195.362,288.187 195.746,290.274 196.179,293.914 196.666,298.876 197.213,298.682 197.829,300.986 198.523,304.777 199.302,299.538 200.179,301.321 201.166,301.406 202.277,302.851 203.526,296.844 204.931,306.758 206.511,306.483 208.29,305.689 210.29,315.391 212.541,311.913 215.073,304.172 217.922,302.404 221.126,307.853 224.732,303.762 228.788,305.679 233.35,298.336 238.484,288.582 244.258,301.137 250.275,310.326 257.043,305.473 264.657,307.673 273.223,329.055 282.86,321.467 293.701,301.04 305.897,309.939 315.62,289.703 326.557,295.835 337.647,308.655 348.903,323.525 361.566,308.645 375.811,335.837 391.838,337.01 409.868,337.243 430.151,340.889 452.97,330.969 478.641,350.535 502.933,347.827 530.261,348.819 558.207,332.238 589.647,328.507 614.872,332.665 637.854,339.773 663.71,324.609 692.797,334.387 711.451,330.035 732.437,317.126 756.046,295.98 782.606,243.518 810.8,230.138 829.532,244.794 845.318,254.393 862.942,278.117 878.609,257.654 896.234,218.489 916.063,196.434 931.183,196.489 936.776,200.021 943.068,289.6 950.147,290.392 958.111,288.552 967.07,288.828 977.148,294.212 988.285,305.239 999.802,321.745 1012.76,328.732 1027.34,322.412 1043.73,330.19 1057.85,337.518 1073.72,331.257 1091.58,311.256 1111.67,321.341 1124.34,314.937 1138.6,316.993 1153.41,272.79 1170.07,300.42 1182.19,293.875 1195.83,320.097 1208.81,336.438 1223.4,341.164 1239.82,339.954 1258.29,349.997 1277.43,355.516 1298.97,353.405 1323.19,355.539 1346.66,349.407 1373.06,352.911 1392.47,352.296 1414.3,357.568 1437.16,351.238 1462.88,352.873 1481.96,348.485 1503.42,342.6 1527.57,338.043 1551.68,342.998 1573.69,342.64 1598.45,335.39 1626.3,324.815 1657.64,308.77 1692.38,325.596 1708.53,295.015 1726.7,332.325 1747.14,319.44 1770.14,299.581 1794.95,264.541 1822.86,237.237 1846.23,227.038 1868.16,221.565 1886.03,178.867 1906.13,126.623 1921.03,86.1857 1933.26,137.617 1943.25,172.805 1953.75,235.27 1965.56,297.431 1978.85,288.559 1993.8,302.285 2006.89,292.515 2021.61,308.114 2032.88,275.566 2045.55,243.981 2059.82,250.64 2070.17,285.887 2081.82,267.861 2094.93,271.329 2106.82,278.884 2119.84,273.801 2134.49,262.386 2150.1,242.485 2167.67,219.368 2183.47,206.705 2198.46,249.474 2211.77,226.492 2226.75,248.725 2237.34,249.149 2249.27,290.366 2261.84,293.007 2275.98,285.737 2291.89,280.899 2307.09,258.376 2324.2,252.189 2340.9,281.323 2352.76,289.963 "/>
<polyline clip-path="url(#clip122)" style="stroke:#e26f46; stroke-linecap:round; stroke-linejoin:round; stroke-width:8; stroke-opacity:1; fill:none" points="193.936,1384.24 194.206,1384.14 194.446,1384.05 194.716,1383.95 195.02,1383.84 195.362,1383.72 195.746,1383.58 196.179,1383.43 196.666,1383.27 197.213,1383.1 197.829,1382.91 198.523,1382.69 199.302,1382.45 200.179,1382.17 201.166,1381.87 202.277,1381.54 203.526,1381.14 204.931,1380.72 206.511,1380.26 208.29,1379.76 210.29,1379.22 212.541,1378.67 215.073,1377.95 217.922,1377.09 221.126,1376.18 224.732,1375.19 228.788,1373.96 233.35,1372.55 238.484,1370.74 244.258,1368.75 250.275,1367.02 257.043,1364.96 264.657,1362.71 273.223,1360.62 282.86,1358.62 293.701,1356 305.897,1352.72 315.62,1350.04 326.557,1345.72 337.647,1342.62 348.903,1339.9 361.566,1337.1 375.811,1334.37 391.838,1331.89 409.868,1329.41 430.151,1326.32 452.97,1323.17 478.641,1320.2 502.933,1318.24 530.261,1315.77 558.207,1312.94 589.647,1307.79 614.872,1304.42 637.854,1300.93 663.71,1296.64 692.797,1290.07 711.451,1287.02 732.437,1282.89 756.046,1275.95 782.606,1264.83 810.8,1245.34 829.532,1234.14 845.318,1225.2 862.942,1216.78 878.609,1209.44 896.234,1197.76 916.063,1183.83 931.183,1171.89 936.776,1167.47 943.068,1164.92 950.147,1162.27 958.111,1159.44 967.07,1155.81 977.148,1152 988.285,1148.67 999.802,1145.71 1012.76,1143.43 1027.34,1140.53 1043.73,1137.36 1057.85,1135.14 1073.72,1132.65 1091.58,1128.44 1111.67,1123.83 1124.34,1120.82 1138.6,1117.08 1153.41,1112.43 1170.07,1106.6 1182.19,1102.48 1195.83,1098.53 1208.81,1096.29 1223.4,1094.15 1239.82,1091.94 1258.29,1089.94 1277.43,1088.64 1298.97,1087.12 1323.19,1085.41 1346.66,1083.82 1373.06,1081.76 1392.47,1080.16 1414.3,1078.74 1437.16,1077.4 1462.88,1075.7 1481.96,1074.05 1503.42,1071.55 1527.57,1068.62 1551.68,1065.49 1573.69,1062.99 1598.45,1059.92 1626.3,1054.96 1657.64,1047.77 1692.38,1037.78 1708.53,1033.81 1726.7,1030.38 1747.14,1026.14 1770.14,1020.45 1794.95,1010.86 1822.86,996.066 1846.23,979.819 1868.16,966.982 1886.03,952.769 1906.13,932.1 1921.03,914.676 1933.26,899.794 1943.25,890.454 1953.75,881.716 1965.56,876.022 1978.85,871.285 1993.8,865.8 2006.89,861.471 2021.61,857.61 2032.88,853.981 2045.55,847.499 2059.82,840.304 2070.17,835.667 2081.82,830.94 2094.93,824.738 2106.82,819.64 2119.84,813.96 2134.49,807.612 2150.1,798.113 2167.67,787.847 2183.47,777.331 2198.46,766.451 2211.77,758.386 2226.75,750.54 2237.34,744.539 2249.27,738.654 2261.84,733.767 2275.98,728.279 2291.89,722.471 2307.09,716.045 2324.2,705.582 2340.9,696.571 2352.76,691.936 "/>
<path clip-path="url(#clip120)" d="M1975.82 1377.32 L2280.8 1377.32 L2280.8 1221.8 L1975.82 1221.8  Z" fill="#ffffff" fill-rule="evenodd" fill-opacity="1"/>
<polyline clip-path="url(#clip120)" style="stroke:#000000; stroke-linecap:round; stroke-linejoin:round; stroke-width:4; stroke-opacity:1; fill:none" points="1975.82,1377.32 2280.8,1377.32 2280.8,1221.8 1975.82,1221.8 1975.82,1377.32 "/>
<polyline clip-path="url(#clip120)" style="stroke:#009af9; stroke-linecap:round; stroke-linejoin:round; stroke-width:8; stroke-opacity:1; fill:none" points="1999.8,1273.64 2143.72,1273.64 "/>
<path clip-path="url(#clip120)" d="M2167.71 1280.68 L2167.71 1264.99 L2171.97 1264.99 L2171.97 1280.52 Q2171.97 1284.2 2173.41 1286.05 Q2174.84 1287.88 2177.71 1287.88 Q2181.16 1287.88 2183.15 1285.68 Q2185.17 1283.48 2185.17 1279.69 L2185.17 1264.99 L2189.42 1264.99 L2189.42 1290.92 L2185.17 1290.92 L2185.17 1286.93 Q2183.61 1289.29 2181.55 1290.45 Q2179.52 1291.59 2176.81 1291.59 Q2172.34 1291.59 2170.03 1288.81 Q2167.71 1286.03 2167.71 1280.68 M2178.43 1264.36 L2178.43 1264.36 Z" fill="#000000" fill-rule="nonzero" fill-opacity="1" /><path clip-path="url(#clip120)" d="M2197.8 1254.9 L2207.62 1254.9 L2207.62 1258.21 L2202.06 1258.21 L2202.06 1293.86 L2207.62 1293.86 L2207.62 1297.17 L2197.8 1297.17 L2197.8 1254.9 Z" fill="#000000" fill-rule="nonzero" fill-opacity="1" /><path clip-path="url(#clip120)" d="M2218.1 1286.98 L2225.74 1286.98 L2225.74 1260.61 L2217.43 1262.28 L2217.43 1258.02 L2225.7 1256.36 L2230.37 1256.36 L2230.37 1286.98 L2238.01 1286.98 L2238.01 1290.92 L2218.1 1290.92 L2218.1 1286.98 Z" fill="#000000" fill-rule="nonzero" fill-opacity="1" /><path clip-path="url(#clip120)" d="M2256.81 1254.9 L2256.81 1297.17 L2246.99 1297.17 L2246.99 1293.86 L2252.53 1293.86 L2252.53 1258.21 L2246.99 1258.21 L2246.99 1254.9 L2256.81 1254.9 Z" fill="#000000" fill-rule="nonzero" fill-opacity="1" /><polyline clip-path="url(#clip120)" style="stroke:#e26f46; stroke-linecap:round; stroke-linejoin:round; stroke-width:8; stroke-opacity:1; fill:none" points="1999.8,1325.48 2143.72,1325.48 "/>
<path clip-path="url(#clip120)" d="M2167.71 1332.52 L2167.71 1316.83 L2171.97 1316.83 L2171.97 1332.36 Q2171.97 1336.04 2173.41 1337.89 Q2174.84 1339.72 2177.71 1339.72 Q2181.16 1339.72 2183.15 1337.52 Q2185.17 1335.32 2185.17 1331.53 L2185.17 1316.83 L2189.42 1316.83 L2189.42 1342.76 L2185.17 1342.76 L2185.17 1338.77 Q2183.61 1341.13 2181.55 1342.29 Q2179.52 1343.43 2176.81 1343.43 Q2172.34 1343.43 2170.03 1340.65 Q2167.71 1337.87 2167.71 1332.52 M2178.43 1316.2 L2178.43 1316.2 Z" fill="#000000" fill-rule="nonzero" fill-opacity="1" /><path clip-path="url(#clip120)" d="M2197.8 1306.74 L2207.62 1306.74 L2207.62 1310.05 L2202.06 1310.05 L2202.06 1345.7 L2207.62 1345.7 L2207.62 1349.01 L2197.8 1349.01 L2197.8 1306.74 Z" fill="#000000" fill-rule="nonzero" fill-opacity="1" /><path clip-path="url(#clip120)" d="M2221.32 1338.82 L2237.64 1338.82 L2237.64 1342.76 L2215.7 1342.76 L2215.7 1338.82 Q2218.36 1336.07 2222.94 1331.44 Q2227.55 1326.78 2228.73 1325.44 Q2230.98 1322.92 2231.85 1321.18 Q2232.76 1319.42 2232.76 1317.73 Q2232.76 1314.98 2230.81 1313.24 Q2228.89 1311.51 2225.79 1311.51 Q2223.59 1311.51 2221.14 1312.27 Q2218.71 1313.03 2215.93 1314.58 L2215.93 1309.86 Q2218.75 1308.73 2221.21 1308.15 Q2223.66 1307.57 2225.7 1307.57 Q2231.07 1307.57 2234.26 1310.26 Q2237.46 1312.94 2237.46 1317.43 Q2237.46 1319.56 2236.65 1321.48 Q2235.86 1323.38 2233.75 1325.97 Q2233.17 1326.64 2230.07 1329.86 Q2226.97 1333.06 2221.32 1338.82 Z" fill="#000000" fill-rule="nonzero" fill-opacity="1" /><path clip-path="url(#clip120)" d="M2256.81 1306.74 L2256.81 1349.01 L2246.99 1349.01 L2246.99 1345.7 L2252.53 1345.7 L2252.53 1310.05 L2246.99 1310.05 L2246.99 1306.74 L2256.81 1306.74 Z" fill="#000000" fill-rule="nonzero" fill-opacity="1" /></svg>
