<?xml version="1.0" encoding="utf-8"?>
<svg xmlns="http://www.w3.org/2000/svg" xmlns:xlink="http://www.w3.org/1999/xlink" width="600" height="400" viewBox="0 0 2400 1600">
<defs>
  <clipPath id="clip920">
    <rect x="0" y="0" width="2400" height="1600"/>
  </clipPath>
</defs>
<path clip-path="url(#clip920)" d="M0 1600 L2400 1600 L2400 0 L0 0  Z" fill="#ffffff" fill-rule="evenodd" fill-opacity="1"/>
<defs>
  <clipPath id="clip921">
    <rect x="480" y="0" width="1681" height="1600"/>
  </clipPath>
</defs>
<path clip-path="url(#clip920)" d="M147.478 1423.18 L2352.76 1423.18 L2352.76 47.2441 L147.478 47.2441  Z" fill="#ffffff" fill-rule="evenodd" fill-opacity="1"/>
<defs>
  <clipPath id="clip922">
    <rect x="147" y="47" width="2206" height="1377"/>
  </clipPath>
</defs>
<polyline clip-path="url(#clip922)" style="stroke:#000000; stroke-linecap:round; stroke-linejoin:round; stroke-width:2; stroke-opacity:0.1; fill:none" points="147.478,1423.18 147.478,47.2441 "/>
<polyline clip-path="url(#clip922)" style="stroke:#000000; stroke-linecap:round; stroke-linejoin:round; stroke-width:2; stroke-opacity:0.1; fill:none" points="588.534,1423.18 588.534,47.2441 "/>
<polyline clip-path="url(#clip922)" style="stroke:#000000; stroke-linecap:round; stroke-linejoin:round; stroke-width:2; stroke-opacity:0.1; fill:none" points="1029.59,1423.18 1029.59,47.2441 "/>
<polyline clip-path="url(#clip922)" style="stroke:#000000; stroke-linecap:round; stroke-linejoin:round; stroke-width:2; stroke-opacity:0.1; fill:none" points="1470.64,1423.18 1470.64,47.2441 "/>
<polyline clip-path="url(#clip922)" style="stroke:#000000; stroke-linecap:round; stroke-linejoin:round; stroke-width:2; stroke-opacity:0.1; fill:none" points="1911.7,1423.18 1911.7,47.2441 "/>
<polyline clip-path="url(#clip922)" style="stroke:#000000; stroke-linecap:round; stroke-linejoin:round; stroke-width:2; stroke-opacity:0.1; fill:none" points="2352.76,1423.18 2352.76,47.2441 "/>
<polyline clip-path="url(#clip920)" style="stroke:#000000; stroke-linecap:round; stroke-linejoin:round; stroke-width:4; stroke-opacity:1; fill:none" points="147.478,1423.18 2352.76,1423.18 "/>
<polyline clip-path="url(#clip920)" style="stroke:#000000; stroke-linecap:round; stroke-linejoin:round; stroke-width:4; stroke-opacity:1; fill:none" points="147.478,1423.18 147.478,1404.28 "/>
<polyline clip-path="url(#clip920)" style="stroke:#000000; stroke-linecap:round; stroke-linejoin:round; stroke-width:4; stroke-opacity:1; fill:none" points="588.534,1423.18 588.534,1404.28 "/>
<polyline clip-path="url(#clip920)" style="stroke:#000000; stroke-linecap:round; stroke-linejoin:round; stroke-width:4; stroke-opacity:1; fill:none" points="1029.59,1423.18 1029.59,1404.28 "/>
<polyline clip-path="url(#clip920)" style="stroke:#000000; stroke-linecap:round; stroke-linejoin:round; stroke-width:4; stroke-opacity:1; fill:none" points="1470.64,1423.18 1470.64,1404.28 "/>
<polyline clip-path="url(#clip920)" style="stroke:#000000; stroke-linecap:round; stroke-linejoin:round; stroke-width:4; stroke-opacity:1; fill:none" points="1911.7,1423.18 1911.7,1404.28 "/>
<polyline clip-path="url(#clip920)" style="stroke:#000000; stroke-linecap:round; stroke-linejoin:round; stroke-width:4; stroke-opacity:1; fill:none" points="2352.76,1423.18 2352.76,1404.28 "/>
<path clip-path="url(#clip920)" d="M147.478 1454.1 Q143.867 1454.1 142.038 1457.66 Q140.233 1461.2 140.233 1468.33 Q140.233 1475.44 142.038 1479.01 Q143.867 1482.55 147.478 1482.55 Q151.112 1482.55 152.918 1479.01 Q154.746 1475.44 154.746 1468.33 Q154.746 1461.2 152.918 1457.66 Q151.112 1454.1 147.478 1454.1 M147.478 1450.39 Q153.288 1450.39 156.344 1455 Q159.422 1459.58 159.422 1468.33 Q159.422 1477.06 156.344 1481.67 Q153.288 1486.25 147.478 1486.25 Q141.668 1486.25 138.589 1481.67 Q135.534 1477.06 135.534 1468.33 Q135.534 1459.58 138.589 1455 Q141.668 1450.39 147.478 1450.39 Z" fill="#000000" fill-rule="nonzero" fill-opacity="1" /><path clip-path="url(#clip920)" d="M583.186 1481.64 L599.506 1481.64 L599.506 1485.58 L577.561 1485.58 L577.561 1481.64 Q580.223 1478.89 584.807 1474.26 Q589.413 1469.61 590.594 1468.27 Q592.839 1465.74 593.719 1464.01 Q594.621 1462.25 594.621 1460.56 Q594.621 1457.8 592.677 1456.07 Q590.756 1454.33 587.654 1454.33 Q585.455 1454.33 583.001 1455.09 Q580.571 1455.86 577.793 1457.41 L577.793 1452.69 Q580.617 1451.55 583.071 1450.97 Q585.524 1450.39 587.561 1450.39 Q592.932 1450.39 596.126 1453.08 Q599.32 1455.77 599.32 1460.26 Q599.32 1462.39 598.51 1464.31 Q597.723 1466.2 595.617 1468.8 Q595.038 1469.47 591.936 1472.69 Q588.834 1475.88 583.186 1481.64 Z" fill="#000000" fill-rule="nonzero" fill-opacity="1" /><path clip-path="url(#clip920)" d="M1032.6 1455.09 L1020.79 1473.54 L1032.6 1473.54 L1032.6 1455.09 M1031.37 1451.02 L1037.25 1451.02 L1037.25 1473.54 L1042.18 1473.54 L1042.18 1477.43 L1037.25 1477.43 L1037.25 1485.58 L1032.6 1485.58 L1032.6 1477.43 L1017 1477.43 L1017 1472.92 L1031.37 1451.02 Z" fill="#000000" fill-rule="nonzero" fill-opacity="1" /><path clip-path="url(#clip920)" d="M1471.05 1466.44 Q1467.9 1466.44 1466.05 1468.59 Q1464.22 1470.74 1464.22 1474.49 Q1464.22 1478.22 1466.05 1480.39 Q1467.9 1482.55 1471.05 1482.55 Q1474.2 1482.55 1476.03 1480.39 Q1477.88 1478.22 1477.88 1474.49 Q1477.88 1470.74 1476.03 1468.59 Q1474.2 1466.44 1471.05 1466.44 M1480.33 1451.78 L1480.33 1456.04 Q1478.57 1455.21 1476.77 1454.77 Q1474.98 1454.33 1473.23 1454.33 Q1468.6 1454.33 1466.14 1457.45 Q1463.71 1460.58 1463.36 1466.9 Q1464.73 1464.89 1466.79 1463.82 Q1468.85 1462.73 1471.33 1462.73 Q1476.54 1462.73 1479.55 1465.9 Q1482.58 1469.05 1482.58 1474.49 Q1482.58 1479.82 1479.43 1483.03 Q1476.28 1486.25 1471.05 1486.25 Q1465.05 1486.25 1461.88 1481.67 Q1458.71 1477.06 1458.71 1468.33 Q1458.71 1460.14 1462.6 1455.28 Q1466.49 1450.39 1473.04 1450.39 Q1474.8 1450.39 1476.58 1450.74 Q1478.39 1451.09 1480.33 1451.78 Z" fill="#000000" fill-rule="nonzero" fill-opacity="1" /><path clip-path="url(#clip920)" d="M1911.7 1469.17 Q1908.37 1469.17 1906.45 1470.95 Q1904.55 1472.73 1904.55 1475.86 Q1904.55 1478.98 1906.45 1480.77 Q1908.37 1482.55 1911.7 1482.55 Q1915.03 1482.55 1916.95 1480.77 Q1918.88 1478.96 1918.88 1475.86 Q1918.88 1472.73 1916.95 1470.95 Q1915.06 1469.17 1911.7 1469.17 M1907.02 1467.18 Q1904.02 1466.44 1902.33 1464.38 Q1900.66 1462.32 1900.66 1459.35 Q1900.66 1455.21 1903.6 1452.8 Q1906.56 1450.39 1911.7 1450.39 Q1916.86 1450.39 1919.8 1452.8 Q1922.74 1455.21 1922.74 1459.35 Q1922.74 1462.32 1921.05 1464.38 Q1919.39 1466.44 1916.4 1467.18 Q1919.78 1467.96 1921.65 1470.26 Q1923.55 1472.55 1923.55 1475.86 Q1923.55 1480.88 1920.47 1483.57 Q1917.42 1486.25 1911.7 1486.25 Q1905.98 1486.25 1902.9 1483.57 Q1899.85 1480.88 1899.85 1475.86 Q1899.85 1472.55 1901.75 1470.26 Q1903.64 1467.96 1907.02 1467.18 M1905.31 1459.79 Q1905.31 1462.48 1906.98 1463.98 Q1908.67 1465.49 1911.7 1465.49 Q1914.71 1465.49 1916.4 1463.98 Q1918.11 1462.48 1918.11 1459.79 Q1918.11 1457.11 1916.4 1455.6 Q1914.71 1454.1 1911.7 1454.1 Q1908.67 1454.1 1906.98 1455.6 Q1905.31 1457.11 1905.31 1459.79 Z" fill="#000000" fill-rule="nonzero" fill-opacity="1" /><path clip-path="url(#clip920)" d="M2327.44 1481.64 L2335.08 1481.64 L2335.08 1455.28 L2326.77 1456.95 L2326.77 1452.69 L2335.04 1451.02 L2339.71 1451.02 L2339.71 1481.64 L2347.35 1481.64 L2347.35 1485.58 L2327.44 1485.58 L2327.44 1481.64 Z" fill="#000000" fill-rule="nonzero" fill-opacity="1" /><path clip-path="url(#clip920)" d="M2366.8 1454.1 Q2363.18 1454.1 2361.36 1457.66 Q2359.55 1461.2 2359.55 1468.33 Q2359.55 1475.44 2361.36 1479.01 Q2363.18 1482.55 2366.8 1482.55 Q2370.43 1482.55 2372.23 1479.01 Q2374.06 1475.44 2374.06 1468.33 Q2374.06 1461.2 2372.23 1457.66 Q2370.43 1454.1 2366.8 1454.1 M2366.8 1450.39 Q2372.61 1450.39 2375.66 1455 Q2378.74 1459.58 2378.74 1468.33 Q2378.74 1477.06 2375.66 1481.67 Q2372.61 1486.25 2366.8 1486.25 Q2360.99 1486.25 2357.91 1481.67 Q2354.85 1477.06 2354.85 1468.33 Q2354.85 1459.58 2357.91 1455 Q2360.99 1450.39 2366.8 1450.39 Z" fill="#000000" fill-rule="nonzero" fill-opacity="1" /><path clip-path="url(#clip920)" d="M1249.18 1522.27 L1249.18 1532.4 L1261.24 1532.4 L1261.24 1536.95 L1249.18 1536.95 L1249.18 1556.3 Q1249.18 1560.66 1250.36 1561.9 Q1251.57 1563.14 1255.23 1563.14 L1261.24 1563.14 L1261.24 1568.04 L1255.23 1568.04 Q1248.45 1568.04 1245.87 1565.53 Q1243.29 1562.98 1243.29 1556.3 L1243.29 1536.95 L1238.99 1536.95 L1238.99 1532.4 L1243.29 1532.4 L1243.29 1522.27 L1249.18 1522.27 Z" fill="#000000" fill-rule="nonzero" fill-opacity="1" /><polyline clip-path="url(#clip922)" style="stroke:#000000; stroke-linecap:round; stroke-linejoin:round; stroke-width:2; stroke-opacity:0.1; fill:none" points="147.478,1204.67 2352.76,1204.67 "/>
<polyline clip-path="url(#clip922)" style="stroke:#000000; stroke-linecap:round; stroke-linejoin:round; stroke-width:2; stroke-opacity:0.1; fill:none" points="147.478,872.235 2352.76,872.235 "/>
<polyline clip-path="url(#clip922)" style="stroke:#000000; stroke-linecap:round; stroke-linejoin:round; stroke-width:2; stroke-opacity:0.1; fill:none" points="147.478,539.797 2352.76,539.797 "/>
<polyline clip-path="url(#clip922)" style="stroke:#000000; stroke-linecap:round; stroke-linejoin:round; stroke-width:2; stroke-opacity:0.1; fill:none" points="147.478,207.36 2352.76,207.36 "/>
<polyline clip-path="url(#clip920)" style="stroke:#000000; stroke-linecap:round; stroke-linejoin:round; stroke-width:4; stroke-opacity:1; fill:none" points="147.478,1423.18 147.478,47.2441 "/>
<polyline clip-path="url(#clip920)" style="stroke:#000000; stroke-linecap:round; stroke-linejoin:round; stroke-width:4; stroke-opacity:1; fill:none" points="147.478,1204.67 166.376,1204.67 "/>
<polyline clip-path="url(#clip920)" style="stroke:#000000; stroke-linecap:round; stroke-linejoin:round; stroke-width:4; stroke-opacity:1; fill:none" points="147.478,872.235 166.376,872.235 "/>
<polyline clip-path="url(#clip920)" style="stroke:#000000; stroke-linecap:round; stroke-linejoin:round; stroke-width:4; stroke-opacity:1; fill:none" points="147.478,539.797 166.376,539.797 "/>
<polyline clip-path="url(#clip920)" style="stroke:#000000; stroke-linecap:round; stroke-linejoin:round; stroke-width:4; stroke-opacity:1; fill:none" points="147.478,207.36 166.376,207.36 "/>
<path clip-path="url(#clip920)" d="M50.9921 1205.12 L80.6679 1205.12 L80.6679 1209.06 L50.9921 1209.06 L50.9921 1205.12 Z" fill="#000000" fill-rule="nonzero" fill-opacity="1" /><path clip-path="url(#clip920)" d="M91.5706 1218.02 L99.2095 1218.02 L99.2095 1191.65 L90.8993 1193.32 L90.8993 1189.06 L99.1632 1187.39 L103.839 1187.39 L103.839 1218.02 L111.478 1218.02 L111.478 1221.95 L91.5706 1221.95 L91.5706 1218.02 Z" fill="#000000" fill-rule="nonzero" fill-opacity="1" /><path clip-path="url(#clip920)" d="M99.5335 858.033 Q95.9224 858.033 94.0937 861.598 Q92.2882 865.14 92.2882 872.269 Q92.2882 879.376 94.0937 882.941 Q95.9224 886.482 99.5335 886.482 Q103.168 886.482 104.973 882.941 Q106.802 879.376 106.802 872.269 Q106.802 865.14 104.973 861.598 Q103.168 858.033 99.5335 858.033 M99.5335 854.33 Q105.344 854.33 108.399 858.936 Q111.478 863.519 111.478 872.269 Q111.478 880.996 108.399 885.603 Q105.344 890.186 99.5335 890.186 Q93.7234 890.186 90.6447 885.603 Q87.5892 880.996 87.5892 872.269 Q87.5892 863.519 90.6447 858.936 Q93.7234 854.33 99.5335 854.33 Z" fill="#000000" fill-rule="nonzero" fill-opacity="1" /><path clip-path="url(#clip920)" d="M91.5706 553.142 L99.2095 553.142 L99.2095 526.776 L90.8993 528.443 L90.8993 524.184 L99.1632 522.517 L103.839 522.517 L103.839 553.142 L111.478 553.142 L111.478 557.077 L91.5706 557.077 L91.5706 553.142 Z" fill="#000000" fill-rule="nonzero" fill-opacity="1" /><path clip-path="url(#clip920)" d="M95.1586 220.704 L111.478 220.704 L111.478 224.64 L89.5336 224.64 L89.5336 220.704 Q92.1956 217.95 96.7789 213.32 Q101.385 208.667 102.566 207.325 Q104.811 204.802 105.691 203.066 Q106.594 201.306 106.594 199.617 Q106.594 196.862 104.649 195.126 Q102.728 193.39 99.6261 193.39 Q97.4271 193.39 94.9734 194.154 Q92.5428 194.918 89.7651 196.468 L89.7651 191.746 Q92.5891 190.612 95.0428 190.033 Q97.4965 189.455 99.5335 189.455 Q104.904 189.455 108.098 192.14 Q111.293 194.825 111.293 199.316 Q111.293 201.445 110.483 203.367 Q109.696 205.265 107.589 207.857 Q107.01 208.529 103.909 211.746 Q100.807 214.941 95.1586 220.704 Z" fill="#000000" fill-rule="nonzero" fill-opacity="1" /><polyline clip-path="url(#clip922)" style="stroke:#009af9; stroke-linecap:round; stroke-linejoin:round; stroke-width:8; stroke-opacity:1; fill:none" points="147.478,805.747 149.685,805.078 151.893,804.403 154.1,803.72 156.308,803.031 158.515,802.335 160.723,801.632 162.93,800.921 165.138,800.204 167.345,799.479 169.553,798.747 171.76,798.008 173.968,797.261 176.175,796.507 178.383,795.745 180.59,794.976 182.798,794.198 185.005,793.413 187.213,792.62 189.42,791.819 191.628,791.01 193.835,790.193 196.043,789.368 198.25,788.534 200.458,787.692 202.665,786.842 204.873,785.983 207.08,785.115 209.288,784.238 211.495,783.353 213.702,782.459 215.91,781.556 218.117,780.644 220.325,779.722 222.532,778.791 224.74,777.851 226.947,776.902 229.155,775.943 231.362,774.974 233.57,773.996 235.777,773.007 237.985,772.009 240.192,771.001 242.4,769.982 244.607,768.954 246.815,767.915 249.022,766.865 251.23,765.805 253.437,764.734 255.645,763.653 257.852,762.56 260.06,761.457 262.267,760.343 264.475,759.217 266.682,758.08 268.89,756.932 271.097,755.772 273.305,754.6 275.512,753.417 277.72,752.221 279.927,751.014 282.135,749.794 284.342,748.563 286.549,747.318 288.757,746.062 290.964,744.792 293.172,743.51 295.379,742.215 297.587,740.907 299.794,739.586 302.002,738.251 304.209,736.904 306.417,735.542 308.624,734.167 310.832,732.778 313.039,731.375 315.247,729.958 317.454,728.526 319.662,727.081 321.869,725.62 324.077,724.145 326.284,722.656 328.492,721.151 330.699,719.631 332.907,718.096 335.114,716.545 337.322,714.979 339.529,713.397 341.737,711.799 343.944,710.185 346.152,708.554 348.359,706.908 350.567,705.245 352.774,703.565 354.982,701.868 357.189,700.154 359.397,698.423 361.604,696.674 363.811,694.908 366.019,693.124 368.226,691.322 370.434,689.502 372.641,687.664 374.849,685.807 377.056,683.932 379.264,682.037 381.471,680.124 383.679,678.191 385.886,676.239 388.094,674.267 390.301,672.275 392.509,670.264 394.716,668.232 396.924,666.179 399.131,664.106 401.339,662.013 403.546,659.898 405.754,657.761 407.961,655.604 410.169,653.424 412.376,651.223 414.584,649 416.791,646.754 418.999,644.485 421.206,642.194 423.414,639.88 425.621,637.542 427.829,635.181 430.036,632.796 432.244,630.387 434.451,627.954 436.659,625.497 438.866,623.015 441.073,620.508 443.281,617.975 445.488,615.417 447.696,612.834 449.903,610.224 452.111,607.588 454.318,604.926 456.526,602.237 458.733,599.521 460.941,596.777 463.148,594.006 465.356,591.207 467.563,588.38 469.771,585.525 471.978,582.64 474.186,579.727 476.393,576.784 478.601,573.812 480.808,570.81 483.016,567.777 485.223,564.715 487.431,561.621 489.638,558.496 491.846,555.339 494.053,552.151 496.261,548.931 498.468,545.678 500.676,542.393 502.883,539.075 505.091,535.723 507.298,532.337 509.506,528.918 511.713,525.464 513.921,521.975 516.128,518.451 518.335,514.892 520.543,511.297 522.75,507.666 524.958,503.998 527.165,500.294 529.373,496.552 531.58,492.772 533.788,488.955 535.995,485.099 538.203,481.204 540.41,477.27 542.618,473.297 544.825,469.283 547.033,465.23 549.24,461.135 551.448,456.999 553.655,452.822 555.863,448.603 558.07,444.341 560.278,440.036 562.485,435.688 564.693,431.297 566.9,426.861 569.108,422.38 571.315,417.855 573.523,413.284 575.73,408.666 577.938,404.003 580.145,399.292 582.353,394.534 584.56,389.729 586.768,384.874 588.975,379.971 591.182,375.019 593.39,370.017 595.597,364.964 597.805,359.861 600.012,354.706 602.22,349.5 604.427,344.241 606.635,338.929 608.842,333.564 611.05,328.144 613.257,597.455 615.465,594.69 617.672,591.898 619.88,589.078 622.087,586.229 624.295,583.352 626.502,580.446 628.71,577.51 630.917,574.545 633.125,571.55 635.332,568.525 637.54,565.47 639.747,562.384 641.955,559.266 644.162,556.118 646.37,552.938 648.577,549.726 650.785,546.481 652.992,543.204 655.2,539.894 657.407,536.551 659.615,533.174 661.822,529.763 664.03,526.318 666.237,522.838 668.444,519.324 670.652,515.773 672.859,512.188 675.067,508.566 677.274,504.907 679.482,501.212 681.689,497.479 683.897,493.709 686.104,489.902 688.312,486.055 690.519,482.17 692.727,478.246 694.934,474.283 697.142,470.279 699.349,466.235 701.557,462.151 703.764,458.025 705.972,453.858 708.179,449.649 710.387,445.397 712.594,441.103 714.802,436.765 717.009,432.384 719.217,427.959 721.424,423.489 723.632,418.974 725.839,414.414 728.047,409.808 730.254,405.156 732.462,400.457 734.669,395.71 736.877,390.916 739.084,386.074 741.292,381.183 743.499,376.243 745.706,371.253 747.914,366.213 750.121,361.122 752.329,355.98 754.536,350.786 756.744,345.54 758.951,340.242 761.159,334.89 763.366,329.484 765.574,324.024 767.781,318.509 769.989,312.938 772.196,307.312 774.404,301.628 776.611,295.888 778.819,290.09 781.026,284.234 783.234,278.318 785.441,272.344 787.649,266.309 789.856,260.213 792.064,254.056 794.271,247.837 796.479,241.556 798.686,235.211 800.894,228.803 803.101,222.33 805.309,215.792 807.516,209.188 809.724,202.517 811.931,195.78 814.139,188.974 816.346,182.1 818.553,175.157 820.761,168.144 822.968,161.061 825.176,153.906 827.383,146.679 829.591,139.38 831.798,132.007 834.006,124.56 836.213,117.038 838.421,109.44 840.628,101.766 842.836,94.0148 845.043,86.1857 847.251,475.269 849.458,471.275 851.666,467.242 853.873,463.167 856.081,459.051 858.288,454.895 860.496,450.696 862.703,446.455 864.911,442.171 867.118,437.845 869.326,433.474 871.533,429.06 873.741,424.602 875.948,420.099 878.156,415.55 880.363,410.956 882.571,406.316 884.778,401.629 886.986,396.895 889.193,392.113 891.401,387.283 893.608,382.405 895.815,377.478 898.023,372.501 900.23,367.474 902.438,362.397 904.645,357.268 906.853,352.088 909.06,346.856 911.268,341.571 913.475,336.233 915.683,330.841 917.89,325.396 920.098,319.895 922.305,314.339 924.513,308.727 926.72,303.058 928.928,297.332 931.135,291.549 933.343,285.708 935.55,279.807 937.758,273.847 939.965,267.828 942.173,261.747 944.38,255.605 946.588,249.402 948.795,243.136 951.003,236.807 953.21,230.414 955.418,223.956 957.625,217.434 959.833,210.846 962.04,204.192 964.248,197.47 966.455,190.681 968.663,183.824 970.87,176.898 973.077,169.902 975.285,162.835 977.492,155.698 979.7,148.488 981.907,141.206 984.115,133.851 986.322,126.422 988.53,118.919 990.737,111.34 992.945,103.685 995.152,484.096 997.36,480.192 999.567,476.248 1001.77,472.264 1003.98,468.24 1006.19,464.176 1008.4,460.07 1010.6,455.924 1012.81,451.736 1015.02,447.505 1017.23,443.233 1019.43,438.917 1021.64,434.557 1023.85,430.154 1026.06,425.707 1028.26,421.215 1030.47,416.677 1032.68,412.094 1034.89,407.465 1037.09,402.789 1039.3,398.067 1041.51,393.296 1043.72,388.478 1045.92,627.924 1048.13,625.466 1050.34,622.983 1052.55,620.476 1054.75,617.943 1056.96,615.384 1059.17,612.8 1061.38,610.19 1063.58,607.554 1065.79,604.891 1068,602.201 1070.21,599.485 1072.41,596.741 1074.62,593.969 1076.83,591.17 1079.04,588.342 1081.24,585.486 1083.45,582.602 1085.66,579.688 1087.87,576.746 1090.07,573.773 1092.28,570.771 1094.49,567.738 1096.7,564.676 1098.9,561.582 1101.11,558.457 1103.32,555.301 1105.53,552.113 1107.73,548.893 1109.94,545.641 1112.15,542.356 1114.36,539.038 1116.56,535.686 1118.77,532.301 1120.98,528.882 1123.19,525.428 1125.39,521.939 1127.6,518.416 1129.81,514.857 1132.02,511.262 1134.22,507.631 1136.43,503.963 1138.64,500.258 1140.85,496.516 1143.05,492.737 1145.26,488.919 1147.47,485.063 1149.68,481.168 1151.88,477.234 1154.09,473.26 1156.3,469.246 1158.51,465.191 1160.71,461.096 1162.92,456.96 1165.13,452.781 1167.34,448.561 1169.54,444.298 1171.75,439.993 1173.96,435.643 1176.17,431.251 1178.37,426.814 1180.58,422.332 1182.79,417.805 1185,413.233 1187.2,408.614 1189.41,403.949 1191.62,399.238 1193.83,394.479 1196.03,389.672 1198.24,384.817 1200.45,379.913 1202.66,374.96 1204.86,369.957 1207.07,364.904 1209.28,359.8 1211.49,354.644 1213.69,349.437 1215.9,344.178 1218.11,338.865 1220.32,333.499 1222.52,328.08 1224.73,322.605 1226.94,317.076 1229.15,311.491 1231.35,305.85 1233.56,300.152 1235.77,294.396 1237.98,288.583 1240.18,282.712 1242.39,276.781 1244.6,270.791 1246.81,264.74 1249.01,258.628 1251.22,252.456 1253.43,246.22 1255.64,239.923 1257.84,233.561 1260.05,227.136 1262.26,220.646 1264.47,214.091 1266.67,207.47 1268.88,200.783 1271.09,194.027 1273.3,187.205 1275.5,180.313 1277.71,173.352 1279.92,166.321 1282.13,159.219 1284.33,152.046 1286.54,144.8 1288.75,137.482 1290.96,130.09 1293.16,122.624 1295.37,493.68 1297.58,489.872 1299.79,679.13 1301.99,677.187 1304.2,675.225 1306.41,673.243 1308.62,671.241 1310.82,669.219 1313.03,667.177 1315.24,665.114 1317.45,663.03 1319.65,660.925 1321.86,658.8 1324.07,656.652 1326.28,654.484 1328.48,762.263 1330.69,761.157 1332.9,760.039 1335.11,758.91 1337.31,757.77 1339.52,756.619 1341.73,755.456 1343.94,754.281 1346.14,753.094 1348.35,751.896 1350.56,750.685 1352.76,749.462 1354.97,748.227 1357.18,746.979 1359.39,745.719 1361.59,744.447 1363.8,743.161 1366.01,741.862 1368.22,740.551 1370.42,739.226 1372.63,737.888 1374.84,804.386 1377.05,803.703 1379.25,803.014 1381.46,802.317 1383.67,801.614 1385.88,800.903 1388.08,800.185 1390.29,799.461 1392.5,798.728 1394.71,797.989 1396.91,797.242 1399.12,796.487 1401.33,795.725 1403.54,794.956 1405.74,794.178 1407.95,793.393 1410.16,792.6 1412.37,791.799 1414.57,790.99 1416.78,790.172 1418.99,789.347 1421.2,788.513 1423.4,787.671 1425.61,786.82 1427.82,785.961 1430.03,785.094 1432.23,784.217 1434.44,783.332 1436.65,782.438 1438.86,781.535 1441.06,780.623 1443.27,779.701 1445.48,778.771 1447.69,777.831 1449.89,776.881 1452.1,775.922 1454.31,774.954 1456.52,773.975 1458.72,772.987 1460.93,771.989 1463.14,770.981 1465.35,769.963 1467.55,768.934 1469.76,767.895 1471.97,766.846 1474.18,765.785 1476.38,764.715 1478.59,763.633 1480.8,762.541 1483.01,761.438 1485.21,760.323 1487.42,759.197 1489.63,758.06 1491.84,756.912 1494.04,755.751 1496.25,754.58 1498.46,753.396 1500.67,752.2 1502.87,750.993 1505.08,749.773 1507.29,748.541 1509.5,747.296 1511.7,746.039 1513.91,744.769 1516.12,743.487 1518.33,742.191 1520.53,740.882 1522.74,739.561 1524.95,738.226 1527.16,736.877 1529.36,735.515 1531.57,734.139 1533.78,732.749 1535.99,731.346 1538.19,729.928 1540.4,728.496 1542.61,727.049 1544.82,725.588 1547.02,724.113 1549.23,722.622 1551.44,721.117 1553.65,719.596 1555.85,718.061 1558.06,716.509 1560.27,714.943 1562.48,713.36 1564.68,711.762 1566.89,710.147 1569.1,708.517 1571.31,706.87 1573.51,705.206 1575.72,703.526 1577.93,701.828 1580.14,700.114 1582.34,698.382 1584.55,696.633 1586.76,694.866 1588.97,693.082 1591.17,691.28 1593.38,689.459 1595.59,687.621 1597.8,685.764 1600,683.888 1602.21,681.993 1604.42,680.079 1606.63,678.146 1608.83,676.194 1611.04,674.222 1613.25,672.23 1615.46,670.218 1617.66,668.186 1619.87,666.134 1622.08,664.06 1624.29,661.966 1626.49,659.851 1628.7,657.715 1630.91,655.557 1633.12,653.378 1635.32,651.176 1637.53,648.952 1639.74,646.706 1641.95,644.438 1644.15,642.146 1646.36,639.832 1648.57,637.494 1650.78,635.132 1652.98,632.747 1655.19,630.338 1657.4,627.904 1659.61,625.446 1661.81,622.964 1664.02,620.456 1666.23,617.923 1668.44,615.364 1670.64,612.78 1672.85,610.17 1675.06,607.533 1677.27,604.87 1679.47,602.18 1681.68,599.463 1683.89,596.718 1686.1,593.946 1688.3,591.146 1690.51,588.318 1692.72,585.461 1694.93,582.576 1697.13,579.662 1699.34,576.718 1701.55,573.745 1703.76,570.741 1705.96,567.708 1708.17,564.644 1710.38,561.55 1712.59,715.353 1714.79,713.775 1717,712.18 1719.21,791.402 1721.42,790.589 1723.62,789.768 1725.83,788.938 1728.04,788.1 1730.25,787.253 1732.45,786.398 1734.66,785.535 1736.87,784.662 1739.07,783.781 1741.28,782.891 1743.49,781.992 1745.7,781.084 1747.9,780.167 1750.11,779.241 1752.32,778.306 1754.53,777.361 1756.73,776.407 1758.94,775.443 1761.15,774.469 1763.36,773.486 1765.56,772.493 1767.77,771.49 1769.98,770.476 1772.19,769.453 1774.39,768.419 1776.6,767.375 1778.81,766.321 1781.02,765.256 1783.22,764.18 1785.43,763.094 1787.64,761.996 1789.85,760.888 1792.05,759.768 1794.26,758.638 1796.47,757.495 1798.68,756.342 1800.88,755.177 1803.09,754 1805.3,752.811 1807.51,751.61 1809.71,750.397 1811.92,749.172 1814.13,747.935 1816.34,746.685 1818.54,745.423 1820.75,744.147 1822.96,742.859 1825.17,741.558 1827.37,740.244 1829.58,738.917 1831.79,737.576 1834,736.222 1836.2,734.854 1838.41,733.472 1840.62,732.077 1842.83,730.667 1845.03,729.243 1847.24,727.805 1849.45,726.352 1851.66,724.884 1853.86,723.402 1856.07,721.904 1858.28,720.392 1860.49,718.864 1862.69,717.321 1864.9,715.762 1867.11,714.188 1869.32,712.597 1871.52,710.991 1873.73,709.368 1875.94,707.729 1878.15,706.074 1880.35,704.402 1882.56,702.712 1884.77,701.006 1886.98,699.283 1889.18,697.542 1891.39,695.784 1893.6,694.008 1895.81,692.214 1898.01,690.402 1900.22,688.572 1902.43,686.723 1904.64,684.856 1906.84,682.97 1909.05,681.065 1911.26,679.141 1913.47,677.198 1915.67,675.235 1917.88,673.253 1920.09,671.25 1922.3,669.228 1924.5,667.185 1926.71,665.122 1928.92,663.038 1931.13,660.934 1933.33,658.808 1935.54,656.661 1937.75,654.492 1939.96,652.301 1942.16,650.088 1944.37,647.853 1946.58,645.595 1948.79,643.315 1950.99,641.012 1953.2,638.685 1955.41,636.335 1957.62,633.962 1959.82,631.565 1962.03,629.144 1964.24,626.698 1966.45,624.228 1968.65,621.734 1970.86,619.214 1973.07,616.669 1975.28,614.098 1977.48,611.502 1979.69,608.88 1981.9,606.231 1984.11,603.556 1986.31,600.854 1988.52,598.125 1990.73,595.368 1992.94,592.584 1995.14,589.772 1997.35,586.932 1999.56,584.063 2001.77,581.165 2003.97,578.239 2006.18,575.283 2008.39,572.297 2010.6,569.281 2012.8,566.235 2015.01,563.158 2017.22,560.05 2019.43,556.911 2021.63,553.74 2023.84,550.538 2026.05,547.303 2028.26,544.036 2030.46,540.735 2032.67,537.402 2034.88,534.035 2037.09,530.634 2039.29,527.198 2041.5,523.728 2043.71,520.223 2045.92,516.683 2048.12,513.107 2050.33,509.495 2052.54,505.846 2054.75,502.161 2056.95,498.438 2059.16,494.678 2061.37,490.88 2063.58,487.044 2065.78,483.168 2067.99,479.254 2070.2,475.3 2072.41,471.306 2074.61,467.272 2076.82,463.198 2079.03,459.082 2081.24,454.924 2083.44,450.725 2085.65,446.483 2087.86,442.199 2090.07,437.871 2092.27,433.499 2094.48,429.084 2096.69,424.624 2098.9,420.119 2101.1,415.568 2103.31,410.972 2105.52,406.33 2107.73,401.641 2109.93,396.904 2112.14,392.12 2114.35,387.288 2116.55,382.407 2118.76,377.477 2120.97,372.498 2123.18,367.469 2125.38,362.389 2127.59,357.259 2129.8,352.077 2132.01,346.843 2134.21,341.556 2136.42,336.217 2138.63,330.824 2140.84,598.833 2143.04,596.082 2145.25,593.304 2147.46,590.498 2149.67,587.664 2151.87,584.801 2154.08,581.909 2156.29,578.988 2158.5,576.038 2160.7,573.058 2162.91,570.048 2165.12,567.008 2167.33,563.938 2169.53,560.836 2171.74,557.703 2173.95,554.539 2176.16,551.343 2178.36,548.115 2180.57,544.854 2182.78,541.561 2184.99,538.235 2187.19,534.875 2189.4,531.481 2191.61,528.053 2193.82,524.591 2196.02,521.093 2198.23,517.561 2200.44,513.993 2202.65,510.389 2204.85,506.749 2207.06,503.072 2209.27,499.358 2211.48,495.607 2213.68,491.818 2215.89,487.991 2218.1,484.126 2220.31,480.221 2222.51,476.277 2224.72,472.294 2226.93,468.27 2229.14,464.206 2231.34,460.101 2233.55,455.955 2235.76,451.767 2237.97,447.537 2240.17,443.264 2242.38,438.948 2244.59,434.589 2246.8,430.186 2249,425.738 2251.21,421.246 2253.42,416.709 2255.63,412.126 2257.83,407.498 2260.04,637.565 2262.25,635.204 2264.46,632.819 2266.66,630.411 2268.87,627.978 2271.08,625.52 2273.29,623.038 2275.49,620.531 2277.7,617.999 2279.91,615.442 2282.12,612.858 2284.32,610.249 2286.53,607.613 2288.74,604.951 2290.95,602.262 2293.15,599.546 2295.36,596.803 2297.57,594.032 2299.78,591.233 2301.98,588.406 2304.19,585.551 2306.4,582.667 2308.61,579.754 2310.81,576.811 2313.02,573.839 2315.23,570.838 2317.44,567.805 2319.64,564.743 2321.85,561.649 2324.06,558.525 2326.27,555.369 2328.47,552.181 2330.68,548.961 2332.89,545.709 2335.1,542.424 2337.3,539.106 2339.51,535.754 2341.72,532.369 2343.93,528.95 2346.13,525.497 2348.34,522.008 2350.55,518.485 2352.76,514.926 "/>
<polyline clip-path="url(#clip922)" style="stroke:#e26f46; stroke-linecap:round; stroke-linejoin:round; stroke-width:8; stroke-opacity:1; fill:none" points="147.478,1351.35 149.685,1350.68 151.893,1350 154.1,1349.32 156.308,1348.63 158.515,1347.94 160.723,1347.23 162.93,1346.52 165.138,1345.81 167.345,1345.08 169.553,1344.35 171.76,1343.61 173.968,1342.86 176.175,1342.11 178.383,1341.35 180.59,1340.58 182.798,1339.8 185.005,1339.01 187.213,1338.22 189.42,1337.42 191.628,1336.61 193.835,1335.79 196.043,1334.97 198.25,1334.14 200.458,1333.29 202.665,1332.44 204.873,1331.58 207.08,1330.72 209.288,1329.84 211.495,1328.95 213.702,1328.06 215.91,1327.16 218.117,1326.25 220.325,1325.32 222.532,1324.39 224.74,1323.45 226.947,1322.5 229.155,1321.54 231.362,1320.58 233.57,1319.6 235.777,1318.61 237.985,1317.61 240.192,1316.6 242.4,1315.58 244.607,1314.56 246.815,1313.52 249.022,1312.47 251.23,1311.41 253.437,1310.34 255.645,1309.25 257.852,1308.16 260.06,1307.06 262.267,1305.94 264.475,1304.82 266.682,1303.68 268.89,1302.53 271.097,1301.37 273.305,1300.2 275.512,1299.02 277.72,1297.82 279.927,1296.62 282.135,1295.4 284.342,1294.16 286.549,1292.92 288.757,1291.66 290.964,1290.39 293.172,1289.11 295.379,1287.82 297.587,1286.51 299.794,1285.19 302.002,1283.85 304.209,1282.51 306.417,1281.14 308.624,1279.77 310.832,1278.38 313.039,1276.98 315.247,1275.56 317.454,1274.13 319.662,1272.68 321.869,1271.22 324.077,1269.75 326.284,1268.26 328.492,1266.75 330.699,1265.23 332.907,1263.7 335.114,1262.15 337.322,1260.58 339.529,1259 341.737,1257.4 343.944,1255.79 346.152,1254.16 348.359,1252.51 350.567,1250.85 352.774,1249.17 354.982,1247.47 357.189,1245.76 359.397,1244.02 361.604,1242.28 363.811,1240.51 366.019,1238.73 368.226,1236.92 370.434,1235.1 372.641,1233.27 374.849,1231.41 377.056,1229.53 379.264,1227.64 381.471,1225.73 383.679,1223.79 385.886,1221.84 388.094,1219.87 390.301,1217.88 392.509,1215.87 394.716,1213.83 396.924,1211.78 399.131,1209.71 401.339,1207.61 403.546,1205.5 405.754,1203.36 407.961,1201.21 410.169,1199.03 412.376,1196.82 414.584,1194.6 416.791,1192.36 418.999,1190.09 421.206,1187.8 423.414,1185.48 425.621,1183.14 427.829,1180.78 430.036,1178.4 432.244,1175.99 434.451,1173.56 436.659,1171.1 438.866,1168.62 441.073,1166.11 443.281,1163.58 445.488,1161.02 447.696,1158.44 449.903,1155.83 452.111,1153.19 454.318,1150.53 456.526,1147.84 458.733,1145.12 460.941,1142.38 463.148,1139.61 465.356,1136.81 467.563,1133.98 469.771,1131.13 471.978,1128.24 474.186,1125.33 476.393,1122.39 478.601,1119.41 480.808,1116.41 483.016,1113.38 485.223,1110.32 487.431,1107.22 489.638,1104.1 491.846,1100.94 494.053,1097.75 496.261,1094.53 498.468,1091.28 500.676,1087.99 502.883,1084.68 505.091,1081.32 507.298,1077.94 509.506,1074.52 511.713,1071.07 513.921,1067.58 516.128,1064.05 518.335,1060.49 520.543,1056.9 522.75,1053.27 524.958,1049.6 527.165,1045.9 529.373,1042.15 531.58,1038.37 533.788,1034.56 535.995,1030.7 538.203,1026.81 540.41,1022.87 542.618,1018.9 544.825,1014.89 547.033,1010.83 549.24,1006.74 551.448,1002.6 553.655,998.424 555.863,994.204 558.07,989.943 560.278,985.638 562.485,981.29 564.693,976.898 566.9,972.462 569.108,967.982 571.315,963.456 573.523,958.885 575.73,954.268 577.938,949.604 580.145,944.894 582.353,940.136 584.56,935.33 586.768,930.476 588.975,925.573 591.182,920.621 593.39,915.618 595.597,910.566 597.805,905.462 600.012,900.308 602.22,895.101 604.427,889.842 606.635,884.53 608.842,879.165 611.05,873.746 613.257,1384.24 615.465,1381.47 617.672,1378.68 619.88,1375.86 622.087,1373.01 624.295,1370.14 626.502,1367.23 628.71,1364.29 630.917,1361.33 633.125,1358.33 635.332,1355.31 637.54,1352.25 639.747,1349.17 641.955,1346.05 644.162,1342.9 646.37,1339.72 648.577,1336.51 650.785,1333.26 652.992,1329.99 655.2,1326.68 657.407,1323.33 659.615,1319.96 661.822,1316.55 664.03,1313.1 666.237,1309.62 668.444,1306.11 670.652,1302.56 672.859,1298.97 675.067,1295.35 677.274,1291.69 679.482,1288 681.689,1284.26 683.897,1280.49 686.104,1276.68 688.312,1272.84 690.519,1268.95 692.727,1265.03 694.934,1261.07 697.142,1257.06 699.349,1253.02 701.557,1248.93 703.764,1244.81 705.972,1240.64 708.179,1236.43 710.387,1232.18 712.594,1227.89 714.802,1223.55 717.009,1219.17 719.217,1214.74 721.424,1210.27 723.632,1205.76 725.839,1201.2 728.047,1196.59 730.254,1191.94 732.462,1187.24 734.669,1182.49 736.877,1177.7 739.084,1172.86 741.292,1167.97 743.499,1163.03 745.706,1158.04 747.914,1153 750.121,1147.91 752.329,1142.76 754.536,1137.57 756.744,1132.32 758.951,1127.03 761.159,1121.67 763.366,1116.27 765.574,1110.81 767.781,1105.29 769.989,1099.72 772.196,1094.09 774.404,1088.41 776.611,1082.67 778.819,1076.87 781.026,1071.02 783.234,1065.1 785.441,1059.13 787.649,1053.09 789.856,1047 792.064,1040.84 794.271,1034.62 796.479,1028.34 798.686,1021.99 800.894,1015.59 803.101,1009.11 805.309,1002.57 807.516,995.971 809.724,989.301 811.931,982.563 814.139,975.758 816.346,968.884 818.553,961.941 820.761,954.928 822.968,947.844 825.176,940.69 827.383,933.463 829.591,926.163 831.798,918.79 834.006,911.343 836.213,903.821 838.421,896.224 840.628,888.549 842.836,880.798 845.043,872.969 847.251,1247.98 849.458,1243.99 851.666,1239.95 853.873,1235.88 856.081,1231.76 858.288,1227.61 860.496,1223.41 862.703,1219.17 864.911,1214.88 867.118,1210.56 869.326,1206.19 871.533,1201.77 873.741,1197.31 875.948,1192.81 878.156,1188.26 880.363,1183.67 882.571,1179.03 884.778,1174.34 886.986,1169.61 889.193,1164.82 891.401,1159.99 893.608,1155.12 895.815,1150.19 898.023,1145.21 900.23,1140.19 902.438,1135.11 904.645,1129.98 906.853,1124.8 909.06,1119.57 911.268,1114.28 913.475,1108.94 915.683,1103.55 917.89,1098.11 920.098,1092.61 922.305,1087.05 924.513,1081.44 926.72,1075.77 928.928,1070.04 931.135,1064.26 933.343,1058.42 935.55,1052.52 937.758,1046.56 939.965,1040.54 942.173,1034.46 944.38,1028.32 946.588,1022.11 948.795,1015.85 951.003,1009.52 953.21,1003.12 955.418,996.667 957.625,990.145 959.833,983.557 962.04,976.903 964.248,970.181 966.455,963.392 968.663,956.535 970.87,949.609 973.077,942.613 975.285,935.546 977.492,928.408 979.7,921.199 981.907,913.917 984.115,906.562 986.322,899.133 988.53,891.63 990.737,884.051 992.945,876.396 995.152,971.368 997.36,967.463 999.567,963.519 1001.77,959.535 1003.98,955.511 1006.19,951.447 1008.4,947.342 1010.6,943.195 1012.81,939.007 1015.02,934.777 1017.23,930.504 1019.43,926.188 1021.64,921.829 1023.85,917.426 1026.06,912.978 1028.26,908.486 1030.47,903.949 1032.68,899.365 1034.89,894.736 1037.09,890.061 1039.3,885.338 1041.51,880.568 1043.72,875.749 1045.92,1383.5 1048.13,1381.05 1050.34,1378.56 1052.55,1376.06 1054.75,1373.52 1056.96,1370.97 1059.17,1368.38 1061.38,1365.77 1063.58,1363.13 1065.79,1360.47 1068,1357.78 1070.21,1355.07 1072.41,1352.32 1074.62,1349.55 1076.83,1346.75 1079.04,1343.92 1081.24,1341.07 1083.45,1338.18 1085.66,1335.27 1087.87,1332.33 1090.07,1329.35 1092.28,1326.35 1094.49,1323.32 1096.7,1320.26 1098.9,1317.16 1101.11,1314.04 1103.32,1310.88 1105.53,1307.69 1107.73,1304.47 1109.94,1301.22 1112.15,1297.94 1114.36,1294.62 1116.56,1291.27 1118.77,1287.88 1120.98,1284.46 1123.19,1281.01 1125.39,1277.52 1127.6,1274 1129.81,1270.44 1132.02,1266.84 1134.22,1263.21 1136.43,1259.54 1138.64,1255.84 1140.85,1252.1 1143.05,1248.32 1145.26,1244.5 1147.47,1240.64 1149.68,1236.75 1151.88,1232.81 1154.09,1228.84 1156.3,1224.83 1158.51,1220.77 1160.71,1216.68 1162.92,1212.54 1165.13,1208.36 1167.34,1204.14 1169.54,1199.88 1171.75,1195.57 1173.96,1191.22 1176.17,1186.83 1178.37,1182.39 1180.58,1177.91 1182.79,1173.39 1185,1168.81 1187.2,1164.2 1189.41,1159.53 1191.62,1154.82 1193.83,1150.06 1196.03,1145.25 1198.24,1140.4 1200.45,1135.49 1202.66,1130.54 1204.86,1125.54 1207.07,1120.48 1209.28,1115.38 1211.49,1110.23 1213.69,1105.02 1215.9,1099.76 1218.11,1094.45 1220.32,1089.08 1222.52,1083.66 1224.73,1078.19 1226.94,1072.66 1229.15,1067.07 1231.35,1061.43 1233.56,1055.73 1235.77,1049.98 1237.98,1044.16 1240.18,1038.29 1242.39,1032.36 1244.6,1026.37 1246.81,1020.32 1249.01,1014.21 1251.22,1008.04 1253.43,1001.8 1255.64,995.503 1257.84,989.142 1260.05,982.717 1262.26,976.227 1264.47,969.672 1266.67,963.051 1268.88,956.363 1271.09,949.608 1273.3,942.785 1275.5,935.894 1277.71,928.933 1279.92,921.902 1282.13,914.8 1284.33,907.627 1286.54,900.381 1288.75,893.063 1290.96,885.671 1293.16,878.205 1295.37,877.798 1297.58,873.99 1299.79,898.03 1301.99,896.088 1304.2,894.125 1306.41,892.143 1308.62,890.141 1310.82,888.119 1313.03,886.077 1315.24,884.014 1317.45,881.93 1319.65,879.826 1321.86,877.7 1324.07,875.553 1326.28,873.384 1328.48,897.773 1330.69,896.666 1332.9,895.549 1335.11,894.42 1337.31,893.28 1339.52,892.128 1341.73,890.965 1343.94,889.79 1346.14,888.604 1348.35,887.405 1350.56,886.195 1352.76,884.972 1354.97,883.737 1357.18,882.489 1359.39,881.229 1361.59,879.956 1363.8,878.671 1366.01,877.372 1368.22,876.06 1370.42,874.736 1372.63,873.398 1374.84,1117.67 1377.05,1116.99 1379.25,1116.3 1381.46,1115.6 1383.67,1114.9 1385.88,1114.19 1388.08,1113.47 1390.29,1112.75 1392.5,1112.02 1394.71,1111.28 1396.91,1110.53 1399.12,1109.78 1401.33,1109.01 1403.54,1108.24 1405.74,1107.47 1407.95,1106.68 1410.16,1105.89 1412.37,1105.09 1414.57,1104.28 1416.78,1103.46 1418.99,1102.63 1421.2,1101.8 1423.4,1100.96 1425.61,1100.11 1427.82,1099.25 1430.03,1098.38 1432.23,1097.51 1434.44,1096.62 1436.65,1095.73 1438.86,1094.82 1441.06,1093.91 1443.27,1092.99 1445.48,1092.06 1447.69,1091.12 1449.89,1090.17 1452.1,1089.21 1454.31,1088.24 1456.52,1087.26 1458.72,1086.28 1460.93,1085.28 1463.14,1084.27 1465.35,1083.25 1467.55,1082.22 1469.76,1081.18 1471.97,1080.13 1474.18,1079.07 1476.38,1078 1478.59,1076.92 1480.8,1075.83 1483.01,1074.73 1485.21,1073.61 1487.42,1072.49 1489.63,1071.35 1491.84,1070.2 1494.04,1069.04 1496.25,1067.87 1498.46,1066.68 1500.67,1065.49 1502.87,1064.28 1505.08,1063.06 1507.29,1061.83 1509.5,1060.58 1511.7,1059.33 1513.91,1058.06 1516.12,1056.77 1518.33,1055.48 1520.53,1054.17 1522.74,1052.85 1524.95,1051.51 1527.16,1050.16 1529.36,1048.8 1531.57,1047.43 1533.78,1046.04 1535.99,1044.63 1538.19,1043.22 1540.4,1041.78 1542.61,1040.34 1544.82,1038.88 1547.02,1037.4 1549.23,1035.91 1551.44,1034.4 1553.65,1032.88 1555.85,1031.35 1558.06,1029.8 1560.27,1028.23 1562.48,1026.65 1564.68,1025.05 1566.89,1023.44 1569.1,1021.8 1571.31,1020.16 1573.51,1018.49 1575.72,1016.81 1577.93,1015.12 1580.14,1013.4 1582.34,1011.67 1584.55,1009.92 1586.76,1008.15 1588.97,1006.37 1591.17,1004.57 1593.38,1002.75 1595.59,1000.91 1597.8,999.051 1600,997.176 1602.21,995.281 1604.42,993.367 1606.63,991.434 1608.83,989.482 1611.04,987.51 1613.25,985.518 1615.46,983.506 1617.66,981.474 1619.87,979.421 1622.08,977.348 1624.29,975.254 1626.49,973.139 1628.7,971.003 1630.91,968.845 1633.12,966.665 1635.32,964.464 1637.53,962.24 1639.74,959.994 1641.95,957.726 1644.15,955.434 1646.36,953.12 1648.57,950.782 1650.78,948.42 1652.98,946.035 1655.19,943.626 1657.4,941.192 1659.61,938.734 1661.81,936.251 1664.02,933.744 1666.23,931.211 1668.44,928.652 1670.64,926.068 1672.85,923.457 1675.06,920.821 1677.27,918.158 1679.47,915.468 1681.68,912.75 1683.89,910.006 1686.1,907.234 1688.3,904.434 1690.51,901.606 1692.72,898.749 1694.93,895.864 1697.13,892.949 1699.34,890.006 1701.55,887.032 1703.76,884.029 1705.96,880.996 1708.17,877.932 1710.38,874.838 1712.59,875.545 1714.79,873.966 1717,872.372 1719.21,1332.9 1721.42,1332.09 1723.62,1331.27 1725.83,1330.44 1728.04,1329.6 1730.25,1328.75 1732.45,1327.9 1734.66,1327.04 1736.87,1326.16 1739.07,1325.28 1741.28,1324.39 1743.49,1323.49 1745.7,1322.59 1747.9,1321.67 1750.11,1320.74 1752.32,1319.81 1754.53,1318.86 1756.73,1317.91 1758.94,1316.94 1761.15,1315.97 1763.36,1314.99 1765.56,1313.99 1767.77,1312.99 1769.98,1311.98 1772.19,1310.95 1774.39,1309.92 1776.6,1308.88 1778.81,1307.82 1781.02,1306.76 1783.22,1305.68 1785.43,1304.59 1787.64,1303.5 1789.85,1302.39 1792.05,1301.27 1794.26,1300.14 1796.47,1299 1798.68,1297.84 1800.88,1296.68 1803.09,1295.5 1805.3,1294.31 1807.51,1293.11 1809.71,1291.9 1811.92,1290.67 1814.13,1289.44 1816.34,1288.19 1818.54,1286.92 1820.75,1285.65 1822.96,1284.36 1825.17,1283.06 1827.37,1281.75 1829.58,1280.42 1831.79,1279.08 1834,1277.72 1836.2,1276.35 1838.41,1274.97 1840.62,1273.58 1842.83,1272.17 1845.03,1270.74 1847.24,1269.31 1849.45,1267.85 1851.66,1266.38 1853.86,1264.9 1856.07,1263.41 1858.28,1261.89 1860.49,1260.36 1862.69,1258.82 1864.9,1257.26 1867.11,1255.69 1869.32,1254.1 1871.52,1252.49 1873.73,1250.87 1875.94,1249.23 1878.15,1247.57 1880.35,1245.9 1882.56,1244.21 1884.77,1242.51 1886.98,1240.78 1889.18,1239.04 1891.39,1237.28 1893.6,1235.51 1895.81,1233.71 1898.01,1231.9 1900.22,1230.07 1902.43,1228.22 1904.64,1226.36 1906.84,1224.47 1909.05,1222.57 1911.26,1220.64 1913.47,1218.7 1915.67,1216.74 1917.88,1214.75 1920.09,1212.75 1922.3,1210.73 1924.5,1208.69 1926.71,1206.62 1928.92,1204.54 1931.13,1202.43 1933.33,1200.31 1935.54,1198.16 1937.75,1195.99 1939.96,1193.8 1942.16,1191.59 1944.37,1189.35 1946.58,1187.1 1948.79,1184.82 1950.99,1182.51 1953.2,1180.19 1955.41,1177.84 1957.62,1175.46 1959.82,1173.07 1962.03,1170.64 1964.24,1168.2 1966.45,1165.73 1968.65,1163.23 1970.86,1160.71 1973.07,1158.17 1975.28,1155.6 1977.48,1153 1979.69,1150.38 1981.9,1147.73 1984.11,1145.06 1986.31,1142.35 1988.52,1139.63 1990.73,1136.87 1992.94,1134.08 1995.14,1131.27 1997.35,1128.43 1999.56,1125.56 2001.77,1122.67 2003.97,1119.74 2006.18,1116.78 2008.39,1113.8 2010.6,1110.78 2012.8,1107.74 2015.01,1104.66 2017.22,1101.55 2019.43,1098.41 2021.63,1095.24 2023.84,1092.04 2026.05,1088.8 2028.26,1085.54 2030.46,1082.24 2032.67,1078.9 2034.88,1075.54 2037.09,1072.13 2039.29,1068.7 2041.5,1065.23 2043.71,1061.72 2045.92,1058.18 2048.12,1054.61 2050.33,1051 2052.54,1047.35 2054.75,1043.66 2056.95,1039.94 2059.16,1036.18 2061.37,1032.38 2063.58,1028.54 2065.78,1024.67 2067.99,1020.75 2070.2,1016.8 2072.41,1012.81 2074.61,1008.77 2076.82,1004.7 2079.03,1000.58 2081.24,996.425 2083.44,992.226 2085.65,987.984 2087.86,983.699 2090.07,979.371 2092.27,975 2094.48,970.585 2096.69,966.124 2098.9,961.62 2101.1,957.069 2103.31,952.473 2105.52,947.83 2107.73,943.141 2109.93,938.405 2112.14,933.621 2114.35,928.789 2116.55,923.908 2118.76,918.978 2120.97,913.999 2123.18,908.97 2125.38,903.89 2127.59,898.759 2129.8,893.577 2132.01,888.343 2134.21,883.057 2136.42,877.718 2138.63,872.325 2140.84,1063.69 2143.04,1060.94 2145.25,1058.16 2147.46,1055.35 2149.67,1052.52 2151.87,1049.65 2154.08,1046.76 2156.29,1043.84 2158.5,1040.89 2160.7,1037.91 2162.91,1034.9 2165.12,1031.86 2167.33,1028.79 2169.53,1025.69 2171.74,1022.56 2173.95,1019.39 2176.16,1016.2 2178.36,1012.97 2180.57,1009.71 2182.78,1006.42 2184.99,1003.09 2187.19,999.729 2189.4,996.335 2191.61,992.907 2193.82,989.445 2196.02,985.947 2198.23,982.415 2200.44,978.847 2202.65,975.243 2204.85,971.603 2207.06,967.926 2209.27,964.212 2211.48,960.461 2213.68,956.672 2215.89,952.845 2218.1,948.98 2220.31,945.075 2222.51,941.131 2224.72,937.148 2226.93,933.124 2229.14,929.06 2231.34,924.955 2233.55,920.809 2235.76,916.621 2237.97,912.391 2240.17,908.118 2242.38,903.802 2244.59,899.443 2246.8,895.04 2249,890.593 2251.21,886.101 2253.42,881.563 2255.63,876.981 2257.83,872.352 2260.04,1171.22 2262.25,1168.86 2264.46,1166.47 2266.66,1164.07 2268.87,1161.63 2271.08,1159.18 2273.29,1156.69 2275.49,1154.19 2277.7,1151.65 2279.91,1149.1 2282.12,1146.51 2284.32,1143.9 2286.53,1141.27 2288.74,1138.61 2290.95,1135.92 2293.15,1133.2 2295.36,1130.46 2297.57,1127.69 2299.78,1124.89 2301.98,1122.06 2304.19,1119.21 2306.4,1116.32 2308.61,1113.41 2310.81,1110.47 2313.02,1107.5 2315.23,1104.49 2317.44,1101.46 2319.64,1098.4 2321.85,1095.31 2324.06,1092.18 2326.27,1089.02 2328.47,1085.84 2330.68,1082.62 2332.89,1079.36 2335.1,1076.08 2337.3,1072.76 2339.51,1069.41 2341.72,1066.02 2343.93,1062.61 2346.13,1059.15 2348.34,1055.66 2350.55,1052.14 2352.76,1048.58 "/>
<path clip-path="url(#clip920)" d="M220.987 248.629 L530.612 248.629 L530.612 93.1086 L220.987 93.1086  Z" fill="#ffffff" fill-rule="evenodd" fill-opacity="1"/>
<polyline clip-path="url(#clip920)" style="stroke:#000000; stroke-linecap:round; stroke-linejoin:round; stroke-width:4; stroke-opacity:1; fill:none" points="220.987,248.629 530.612,248.629 530.612,93.1086 220.987,93.1086 220.987,248.629 "/>
<polyline clip-path="url(#clip920)" style="stroke:#009af9; stroke-linecap:round; stroke-linejoin:round; stroke-width:8; stroke-opacity:1; fill:none" points="245.49,144.949 392.509,144.949 "/>
<path clip-path="url(#clip920)" d="M417.012 151.997 L417.012 136.303 L421.271 136.303 L421.271 151.835 Q421.271 155.516 422.706 157.368 Q424.141 159.196 427.012 159.196 Q430.461 159.196 432.452 156.997 Q434.466 154.798 434.466 151.002 L434.466 136.303 L438.725 136.303 L438.725 162.229 L434.466 162.229 L434.466 158.247 Q432.915 160.608 430.854 161.766 Q428.817 162.9 426.109 162.9 Q421.641 162.9 419.327 160.122 Q417.012 157.344 417.012 151.997 M427.729 135.678 L427.729 135.678 Z" fill="#000000" fill-rule="nonzero" fill-opacity="1" /><path clip-path="url(#clip920)" d="M447.104 126.21 L456.919 126.21 L456.919 129.52 L451.364 129.52 L451.364 165.168 L456.919 165.168 L456.919 168.479 L447.104 168.479 L447.104 126.21 Z" fill="#000000" fill-rule="nonzero" fill-opacity="1" /><path clip-path="url(#clip920)" d="M467.405 158.293 L475.044 158.293 L475.044 131.928 L466.734 133.595 L466.734 129.335 L474.998 127.669 L479.674 127.669 L479.674 158.293 L487.312 158.293 L487.312 162.229 L467.405 162.229 L467.405 158.293 Z" fill="#000000" fill-rule="nonzero" fill-opacity="1" /><path clip-path="url(#clip920)" d="M506.109 126.21 L506.109 168.479 L496.294 168.479 L496.294 165.168 L501.826 165.168 L501.826 129.52 L496.294 129.52 L496.294 126.21 L506.109 126.21 Z" fill="#000000" fill-rule="nonzero" fill-opacity="1" /><polyline clip-path="url(#clip920)" style="stroke:#e26f46; stroke-linecap:round; stroke-linejoin:round; stroke-width:8; stroke-opacity:1; fill:none" points="245.49,196.789 392.509,196.789 "/>
<path clip-path="url(#clip920)" d="M417.012 203.837 L417.012 188.143 L421.271 188.143 L421.271 203.675 Q421.271 207.356 422.706 209.208 Q424.141 211.036 427.012 211.036 Q430.461 211.036 432.452 208.837 Q434.466 206.638 434.466 202.842 L434.466 188.143 L438.725 188.143 L438.725 214.069 L434.466 214.069 L434.466 210.087 Q432.915 212.448 430.854 213.606 Q428.817 214.74 426.109 214.74 Q421.641 214.74 419.327 211.962 Q417.012 209.184 417.012 203.837 M427.729 187.518 L427.729 187.518 Z" fill="#000000" fill-rule="nonzero" fill-opacity="1" /><path clip-path="url(#clip920)" d="M447.104 178.05 L456.919 178.05 L456.919 181.36 L451.364 181.36 L451.364 217.008 L456.919 217.008 L456.919 220.319 L447.104 220.319 L447.104 178.05 Z" fill="#000000" fill-rule="nonzero" fill-opacity="1" /><path clip-path="url(#clip920)" d="M470.623 210.133 L486.942 210.133 L486.942 214.069 L464.998 214.069 L464.998 210.133 Q467.66 207.379 472.243 202.749 Q476.85 198.096 478.03 196.754 Q480.275 194.231 481.155 192.495 Q482.058 190.735 482.058 189.046 Q482.058 186.291 480.113 184.555 Q478.192 182.819 475.09 182.819 Q472.891 182.819 470.438 183.583 Q468.007 184.347 465.229 185.897 L465.229 181.175 Q468.053 180.041 470.507 179.462 Q472.961 178.884 474.998 178.884 Q480.368 178.884 483.562 181.569 Q486.757 184.254 486.757 188.745 Q486.757 190.874 485.947 192.796 Q485.16 194.694 483.053 197.286 Q482.475 197.958 479.373 201.175 Q476.271 204.37 470.623 210.133 Z" fill="#000000" fill-rule="nonzero" fill-opacity="1" /><path clip-path="url(#clip920)" d="M506.109 178.05 L506.109 220.319 L496.294 220.319 L496.294 217.008 L501.826 217.008 L501.826 181.36 L496.294 181.36 L496.294 178.05 L506.109 178.05 Z" fill="#000000" fill-rule="nonzero" fill-opacity="1" /></svg>
