<?xml version="1.0" encoding="utf-8"?>
<svg xmlns="http://www.w3.org/2000/svg" xmlns:xlink="http://www.w3.org/1999/xlink" width="600" height="400" viewBox="0 0 2400 1600">
<defs>
  <clipPath id="clip900">
    <rect x="0" y="0" width="2400" height="1600"/>
  </clipPath>
</defs>
<path clip-path="url(#clip900)" d="M0 1600 L2400 1600 L2400 0 L0 0  Z" fill="#ffffff" fill-rule="evenodd" fill-opacity="1"/>
<defs>
  <clipPath id="clip901">
    <rect x="480" y="0" width="1681" height="1600"/>
  </clipPath>
</defs>
<path clip-path="url(#clip900)" d="M186.274 1423.18 L2352.76 1423.18 L2352.76 47.2441 L186.274 47.2441  Z" fill="#ffffff" fill-rule="evenodd" fill-opacity="1"/>
<defs>
  <clipPath id="clip902">
    <rect x="186" y="47" width="2167" height="1377"/>
  </clipPath>
</defs>
<polyline clip-path="url(#clip902)" style="stroke:#000000; stroke-linecap:round; stroke-linejoin:round; stroke-width:2; stroke-opacity:0.1; fill:none" points="186.274,1423.18 186.274,47.2441 "/>
<polyline clip-path="url(#clip902)" style="stroke:#000000; stroke-linecap:round; stroke-linejoin:round; stroke-width:2; stroke-opacity:0.1; fill:none" points="619.57,1423.18 619.57,47.2441 "/>
<polyline clip-path="url(#clip902)" style="stroke:#000000; stroke-linecap:round; stroke-linejoin:round; stroke-width:2; stroke-opacity:0.1; fill:none" points="1052.87,1423.18 1052.87,47.2441 "/>
<polyline clip-path="url(#clip902)" style="stroke:#000000; stroke-linecap:round; stroke-linejoin:round; stroke-width:2; stroke-opacity:0.1; fill:none" points="1486.16,1423.18 1486.16,47.2441 "/>
<polyline clip-path="url(#clip902)" style="stroke:#000000; stroke-linecap:round; stroke-linejoin:round; stroke-width:2; stroke-opacity:0.1; fill:none" points="1919.46,1423.18 1919.46,47.2441 "/>
<polyline clip-path="url(#clip902)" style="stroke:#000000; stroke-linecap:round; stroke-linejoin:round; stroke-width:2; stroke-opacity:0.1; fill:none" points="2352.76,1423.18 2352.76,47.2441 "/>
<polyline clip-path="url(#clip900)" style="stroke:#000000; stroke-linecap:round; stroke-linejoin:round; stroke-width:4; stroke-opacity:1; fill:none" points="186.274,1423.18 2352.76,1423.18 "/>
<polyline clip-path="url(#clip900)" style="stroke:#000000; stroke-linecap:round; stroke-linejoin:round; stroke-width:4; stroke-opacity:1; fill:none" points="186.274,1423.18 186.274,1404.28 "/>
<polyline clip-path="url(#clip900)" style="stroke:#000000; stroke-linecap:round; stroke-linejoin:round; stroke-width:4; stroke-opacity:1; fill:none" points="619.57,1423.18 619.57,1404.28 "/>
<polyline clip-path="url(#clip900)" style="stroke:#000000; stroke-linecap:round; stroke-linejoin:round; stroke-width:4; stroke-opacity:1; fill:none" points="1052.87,1423.18 1052.87,1404.28 "/>
<polyline clip-path="url(#clip900)" style="stroke:#000000; stroke-linecap:round; stroke-linejoin:round; stroke-width:4; stroke-opacity:1; fill:none" points="1486.16,1423.18 1486.16,1404.28 "/>
<polyline clip-path="url(#clip900)" style="stroke:#000000; stroke-linecap:round; stroke-linejoin:round; stroke-width:4; stroke-opacity:1; fill:none" points="1919.46,1423.18 1919.46,1404.28 "/>
<polyline clip-path="url(#clip900)" style="stroke:#000000; stroke-linecap:round; stroke-linejoin:round; stroke-width:4; stroke-opacity:1; fill:none" points="2352.76,1423.18 2352.76,1404.28 "/>
<path clip-path="url(#clip900)" d="M186.274 1454.1 Q182.663 1454.1 180.834 1457.66 Q179.029 1461.2 179.029 1468.33 Q179.029 1475.44 180.834 1479.01 Q182.663 1482.55 186.274 1482.55 Q189.908 1482.55 191.714 1479.01 Q193.542 1475.44 193.542 1468.33 Q193.542 1461.2 191.714 1457.66 Q189.908 1454.1 186.274 1454.1 M186.274 1450.39 Q192.084 1450.39 195.14 1455 Q198.218 1459.58 198.218 1468.33 Q198.218 1477.06 195.14 1481.67 Q192.084 1486.25 186.274 1486.25 Q180.464 1486.25 177.385 1481.67 Q174.33 1477.06 174.33 1468.33 Q174.33 1459.58 177.385 1455 Q180.464 1450.39 186.274 1450.39 Z" fill="#000000" fill-rule="nonzero" fill-opacity="1" /><path clip-path="url(#clip900)" d="M614.223 1481.64 L630.543 1481.64 L630.543 1485.58 L608.598 1485.58 L608.598 1481.64 Q611.26 1478.89 615.844 1474.26 Q620.45 1469.61 621.631 1468.27 Q623.876 1465.74 624.756 1464.01 Q625.658 1462.25 625.658 1460.56 Q625.658 1457.8 623.714 1456.07 Q621.793 1454.33 618.691 1454.33 Q616.492 1454.33 614.038 1455.09 Q611.607 1455.86 608.83 1457.41 L608.83 1452.69 Q611.654 1451.55 614.107 1450.97 Q616.561 1450.39 618.598 1450.39 Q623.969 1450.39 627.163 1453.08 Q630.357 1455.77 630.357 1460.26 Q630.357 1462.39 629.547 1464.31 Q628.76 1466.2 626.654 1468.8 Q626.075 1469.47 622.973 1472.69 Q619.871 1475.88 614.223 1481.64 Z" fill="#000000" fill-rule="nonzero" fill-opacity="1" /><path clip-path="url(#clip900)" d="M1055.88 1455.09 L1044.07 1473.54 L1055.88 1473.54 L1055.88 1455.09 M1054.65 1451.02 L1060.53 1451.02 L1060.53 1473.54 L1065.46 1473.54 L1065.46 1477.43 L1060.53 1477.43 L1060.53 1485.58 L1055.88 1485.58 L1055.88 1477.43 L1040.27 1477.43 L1040.27 1472.92 L1054.65 1451.02 Z" fill="#000000" fill-rule="nonzero" fill-opacity="1" /><path clip-path="url(#clip900)" d="M1486.57 1466.44 Q1483.42 1466.44 1481.57 1468.59 Q1479.74 1470.74 1479.74 1474.49 Q1479.74 1478.22 1481.57 1480.39 Q1483.42 1482.55 1486.57 1482.55 Q1489.72 1482.55 1491.55 1480.39 Q1493.4 1478.22 1493.4 1474.49 Q1493.4 1470.74 1491.55 1468.59 Q1489.72 1466.44 1486.57 1466.44 M1495.85 1451.78 L1495.85 1456.04 Q1494.09 1455.21 1492.29 1454.77 Q1490.5 1454.33 1488.74 1454.33 Q1484.11 1454.33 1481.66 1457.45 Q1479.23 1460.58 1478.88 1466.9 Q1480.25 1464.89 1482.31 1463.82 Q1484.37 1462.73 1486.85 1462.73 Q1492.05 1462.73 1495.06 1465.9 Q1498.1 1469.05 1498.1 1474.49 Q1498.1 1479.82 1494.95 1483.03 Q1491.8 1486.25 1486.57 1486.25 Q1480.57 1486.25 1477.4 1481.67 Q1474.23 1477.06 1474.23 1468.33 Q1474.23 1460.14 1478.12 1455.28 Q1482.01 1450.39 1488.56 1450.39 Q1490.32 1450.39 1492.1 1450.74 Q1493.91 1451.09 1495.85 1451.78 Z" fill="#000000" fill-rule="nonzero" fill-opacity="1" /><path clip-path="url(#clip900)" d="M1919.46 1469.17 Q1916.13 1469.17 1914.2 1470.95 Q1912.31 1472.73 1912.31 1475.86 Q1912.31 1478.98 1914.2 1480.77 Q1916.13 1482.55 1919.46 1482.55 Q1922.79 1482.55 1924.71 1480.77 Q1926.64 1478.96 1926.64 1475.86 Q1926.64 1472.73 1924.71 1470.95 Q1922.82 1469.17 1919.46 1469.17 M1914.78 1467.18 Q1911.77 1466.44 1910.08 1464.38 Q1908.42 1462.32 1908.42 1459.35 Q1908.42 1455.21 1911.36 1452.8 Q1914.32 1450.39 1919.46 1450.39 Q1924.62 1450.39 1927.56 1452.8 Q1930.5 1455.21 1930.5 1459.35 Q1930.5 1462.32 1928.81 1464.38 Q1927.14 1466.44 1924.16 1467.18 Q1927.54 1467.96 1929.41 1470.26 Q1931.31 1472.55 1931.31 1475.86 Q1931.31 1480.88 1928.23 1483.57 Q1925.18 1486.25 1919.46 1486.25 Q1913.74 1486.25 1910.66 1483.57 Q1907.61 1480.88 1907.61 1475.86 Q1907.61 1472.55 1909.51 1470.26 Q1911.4 1467.96 1914.78 1467.18 M1913.07 1459.79 Q1913.07 1462.48 1914.74 1463.98 Q1916.43 1465.49 1919.46 1465.49 Q1922.47 1465.49 1924.16 1463.98 Q1925.87 1462.48 1925.87 1459.79 Q1925.87 1457.11 1924.16 1455.6 Q1922.47 1454.1 1919.46 1454.1 Q1916.43 1454.1 1914.74 1455.6 Q1913.07 1457.11 1913.07 1459.79 Z" fill="#000000" fill-rule="nonzero" fill-opacity="1" /><path clip-path="url(#clip900)" d="M2327.44 1481.64 L2335.08 1481.64 L2335.08 1455.28 L2326.77 1456.95 L2326.77 1452.69 L2335.04 1451.02 L2339.71 1451.02 L2339.71 1481.64 L2347.35 1481.64 L2347.35 1485.58 L2327.44 1485.58 L2327.44 1481.64 Z" fill="#000000" fill-rule="nonzero" fill-opacity="1" /><path clip-path="url(#clip900)" d="M2366.8 1454.1 Q2363.18 1454.1 2361.36 1457.66 Q2359.55 1461.2 2359.55 1468.33 Q2359.55 1475.44 2361.36 1479.01 Q2363.18 1482.55 2366.8 1482.55 Q2370.43 1482.55 2372.23 1479.01 Q2374.06 1475.44 2374.06 1468.33 Q2374.06 1461.2 2372.23 1457.66 Q2370.43 1454.1 2366.8 1454.1 M2366.8 1450.39 Q2372.61 1450.39 2375.66 1455 Q2378.74 1459.58 2378.74 1468.33 Q2378.74 1477.06 2375.66 1481.67 Q2372.61 1486.25 2366.8 1486.25 Q2360.99 1486.25 2357.91 1481.67 Q2354.85 1477.06 2354.85 1468.33 Q2354.85 1459.58 2357.91 1455 Q2360.99 1450.39 2366.8 1450.39 Z" fill="#000000" fill-rule="nonzero" fill-opacity="1" /><path clip-path="url(#clip900)" d="M1268.58 1522.27 L1268.58 1532.4 L1280.64 1532.4 L1280.64 1536.95 L1268.58 1536.95 L1268.58 1556.3 Q1268.58 1560.66 1269.75 1561.9 Q1270.96 1563.14 1274.62 1563.14 L1280.64 1563.14 L1280.64 1568.04 L1274.62 1568.04 Q1267.84 1568.04 1265.27 1565.53 Q1262.69 1562.98 1262.69 1556.3 L1262.69 1536.95 L1258.39 1536.95 L1258.39 1532.4 L1262.69 1532.4 L1262.69 1522.27 L1268.58 1522.27 Z" fill="#000000" fill-rule="nonzero" fill-opacity="1" /><polyline clip-path="url(#clip902)" style="stroke:#000000; stroke-linecap:round; stroke-linejoin:round; stroke-width:2; stroke-opacity:0.1; fill:none" points="186.274,1397.3 2352.76,1397.3 "/>
<polyline clip-path="url(#clip902)" style="stroke:#000000; stroke-linecap:round; stroke-linejoin:round; stroke-width:2; stroke-opacity:0.1; fill:none" points="186.274,1152.11 2352.76,1152.11 "/>
<polyline clip-path="url(#clip902)" style="stroke:#000000; stroke-linecap:round; stroke-linejoin:round; stroke-width:2; stroke-opacity:0.1; fill:none" points="186.274,906.914 2352.76,906.914 "/>
<polyline clip-path="url(#clip902)" style="stroke:#000000; stroke-linecap:round; stroke-linejoin:round; stroke-width:2; stroke-opacity:0.1; fill:none" points="186.274,661.72 2352.76,661.72 "/>
<polyline clip-path="url(#clip902)" style="stroke:#000000; stroke-linecap:round; stroke-linejoin:round; stroke-width:2; stroke-opacity:0.1; fill:none" points="186.274,416.526 2352.76,416.526 "/>
<polyline clip-path="url(#clip902)" style="stroke:#000000; stroke-linecap:round; stroke-linejoin:round; stroke-width:2; stroke-opacity:0.1; fill:none" points="186.274,171.332 2352.76,171.332 "/>
<polyline clip-path="url(#clip900)" style="stroke:#000000; stroke-linecap:round; stroke-linejoin:round; stroke-width:4; stroke-opacity:1; fill:none" points="186.274,1423.18 186.274,47.2441 "/>
<polyline clip-path="url(#clip900)" style="stroke:#000000; stroke-linecap:round; stroke-linejoin:round; stroke-width:4; stroke-opacity:1; fill:none" points="186.274,1397.3 205.172,1397.3 "/>
<polyline clip-path="url(#clip900)" style="stroke:#000000; stroke-linecap:round; stroke-linejoin:round; stroke-width:4; stroke-opacity:1; fill:none" points="186.274,1152.11 205.172,1152.11 "/>
<polyline clip-path="url(#clip900)" style="stroke:#000000; stroke-linecap:round; stroke-linejoin:round; stroke-width:4; stroke-opacity:1; fill:none" points="186.274,906.914 205.172,906.914 "/>
<polyline clip-path="url(#clip900)" style="stroke:#000000; stroke-linecap:round; stroke-linejoin:round; stroke-width:4; stroke-opacity:1; fill:none" points="186.274,661.72 205.172,661.72 "/>
<polyline clip-path="url(#clip900)" style="stroke:#000000; stroke-linecap:round; stroke-linejoin:round; stroke-width:4; stroke-opacity:1; fill:none" points="186.274,416.526 205.172,416.526 "/>
<polyline clip-path="url(#clip900)" style="stroke:#000000; stroke-linecap:round; stroke-linejoin:round; stroke-width:4; stroke-opacity:1; fill:none" points="186.274,171.332 205.172,171.332 "/>
<path clip-path="url(#clip900)" d="M62.9365 1383.1 Q59.3254 1383.1 57.4967 1386.67 Q55.6912 1390.21 55.6912 1397.34 Q55.6912 1404.44 57.4967 1408.01 Q59.3254 1411.55 62.9365 1411.55 Q66.5707 1411.55 68.3763 1408.01 Q70.205 1404.44 70.205 1397.34 Q70.205 1390.21 68.3763 1386.67 Q66.5707 1383.1 62.9365 1383.1 M62.9365 1379.4 Q68.7467 1379.4 71.8022 1384 Q74.8809 1388.59 74.8809 1397.34 Q74.8809 1406.06 71.8022 1410.67 Q68.7467 1415.25 62.9365 1415.25 Q57.1264 1415.25 54.0477 1410.67 Q50.9921 1406.06 50.9921 1397.34 Q50.9921 1388.59 54.0477 1384 Q57.1264 1379.4 62.9365 1379.4 Z" fill="#000000" fill-rule="nonzero" fill-opacity="1" /><path clip-path="url(#clip900)" d="M83.0984 1408.7 L87.9827 1408.7 L87.9827 1414.58 L83.0984 1414.58 L83.0984 1408.7 Z" fill="#000000" fill-rule="nonzero" fill-opacity="1" /><path clip-path="url(#clip900)" d="M108.168 1383.1 Q104.557 1383.1 102.728 1386.67 Q100.922 1390.21 100.922 1397.34 Q100.922 1404.44 102.728 1408.01 Q104.557 1411.55 108.168 1411.55 Q111.802 1411.55 113.608 1408.01 Q115.436 1404.44 115.436 1397.34 Q115.436 1390.21 113.608 1386.67 Q111.802 1383.1 108.168 1383.1 M108.168 1379.4 Q113.978 1379.4 117.033 1384 Q120.112 1388.59 120.112 1397.34 Q120.112 1406.06 117.033 1410.67 Q113.978 1415.25 108.168 1415.25 Q102.358 1415.25 99.2789 1410.67 Q96.2234 1406.06 96.2234 1397.34 Q96.2234 1388.59 99.2789 1384 Q102.358 1379.4 108.168 1379.4 Z" fill="#000000" fill-rule="nonzero" fill-opacity="1" /><path clip-path="url(#clip900)" d="M138.33 1383.1 Q134.719 1383.1 132.89 1386.67 Q131.084 1390.21 131.084 1397.34 Q131.084 1404.44 132.89 1408.01 Q134.719 1411.55 138.33 1411.55 Q141.964 1411.55 143.769 1408.01 Q145.598 1404.44 145.598 1397.34 Q145.598 1390.21 143.769 1386.67 Q141.964 1383.1 138.33 1383.1 M138.33 1379.4 Q144.14 1379.4 147.195 1384 Q150.274 1388.59 150.274 1397.34 Q150.274 1406.06 147.195 1410.67 Q144.14 1415.25 138.33 1415.25 Q132.519 1415.25 129.441 1410.67 Q126.385 1406.06 126.385 1397.34 Q126.385 1388.59 129.441 1384 Q132.519 1379.4 138.33 1379.4 Z" fill="#000000" fill-rule="nonzero" fill-opacity="1" /><path clip-path="url(#clip900)" d="M63.9319 1137.91 Q60.3208 1137.91 58.4921 1141.47 Q56.6865 1145.01 56.6865 1152.14 Q56.6865 1159.25 58.4921 1162.81 Q60.3208 1166.36 63.9319 1166.36 Q67.5661 1166.36 69.3717 1162.81 Q71.2004 1159.25 71.2004 1152.14 Q71.2004 1145.01 69.3717 1141.47 Q67.5661 1137.91 63.9319 1137.91 M63.9319 1134.2 Q69.742 1134.2 72.7976 1138.81 Q75.8763 1143.39 75.8763 1152.14 Q75.8763 1160.87 72.7976 1165.48 Q69.742 1170.06 63.9319 1170.06 Q58.1217 1170.06 55.043 1165.48 Q51.9875 1160.87 51.9875 1152.14 Q51.9875 1143.39 55.043 1138.81 Q58.1217 1134.2 63.9319 1134.2 Z" fill="#000000" fill-rule="nonzero" fill-opacity="1" /><path clip-path="url(#clip900)" d="M84.0938 1163.51 L88.978 1163.51 L88.978 1169.39 L84.0938 1169.39 L84.0938 1163.51 Z" fill="#000000" fill-rule="nonzero" fill-opacity="1" /><path clip-path="url(#clip900)" d="M109.163 1137.91 Q105.552 1137.91 103.723 1141.47 Q101.918 1145.01 101.918 1152.14 Q101.918 1159.25 103.723 1162.81 Q105.552 1166.36 109.163 1166.36 Q112.797 1166.36 114.603 1162.81 Q116.432 1159.25 116.432 1152.14 Q116.432 1145.01 114.603 1141.47 Q112.797 1137.91 109.163 1137.91 M109.163 1134.2 Q114.973 1134.2 118.029 1138.81 Q121.107 1143.39 121.107 1152.14 Q121.107 1160.87 118.029 1165.48 Q114.973 1170.06 109.163 1170.06 Q103.353 1170.06 100.274 1165.48 Q97.2187 1160.87 97.2187 1152.14 Q97.2187 1143.39 100.274 1138.81 Q103.353 1134.2 109.163 1134.2 Z" fill="#000000" fill-rule="nonzero" fill-opacity="1" /><path clip-path="url(#clip900)" d="M129.371 1134.83 L147.728 1134.83 L147.728 1138.76 L133.654 1138.76 L133.654 1147.24 Q134.672 1146.89 135.691 1146.73 Q136.709 1146.54 137.728 1146.54 Q143.515 1146.54 146.894 1149.71 Q150.274 1152.88 150.274 1158.3 Q150.274 1163.88 146.802 1166.98 Q143.33 1170.06 137.01 1170.06 Q134.834 1170.06 132.566 1169.69 Q130.32 1169.32 127.913 1168.58 L127.913 1163.88 Q129.996 1165.01 132.219 1165.57 Q134.441 1166.12 136.918 1166.12 Q140.922 1166.12 143.26 1164.02 Q145.598 1161.91 145.598 1158.3 Q145.598 1154.69 143.26 1152.58 Q140.922 1150.48 136.918 1150.48 Q135.043 1150.48 133.168 1150.89 Q131.316 1151.31 129.371 1152.19 L129.371 1134.83 Z" fill="#000000" fill-rule="nonzero" fill-opacity="1" /><path clip-path="url(#clip900)" d="M62.9365 892.713 Q59.3254 892.713 57.4967 896.278 Q55.6912 899.819 55.6912 906.949 Q55.6912 914.055 57.4967 917.62 Q59.3254 921.162 62.9365 921.162 Q66.5707 921.162 68.3763 917.62 Q70.205 914.055 70.205 906.949 Q70.205 899.819 68.3763 896.278 Q66.5707 892.713 62.9365 892.713 M62.9365 889.009 Q68.7467 889.009 71.8022 893.616 Q74.8809 898.199 74.8809 906.949 Q74.8809 915.676 71.8022 920.282 Q68.7467 924.865 62.9365 924.865 Q57.1264 924.865 54.0477 920.282 Q50.9921 915.676 50.9921 906.949 Q50.9921 898.199 54.0477 893.616 Q57.1264 889.009 62.9365 889.009 Z" fill="#000000" fill-rule="nonzero" fill-opacity="1" /><path clip-path="url(#clip900)" d="M83.0984 918.315 L87.9827 918.315 L87.9827 924.194 L83.0984 924.194 L83.0984 918.315 Z" fill="#000000" fill-rule="nonzero" fill-opacity="1" /><path clip-path="url(#clip900)" d="M98.978 920.259 L106.617 920.259 L106.617 893.893 L98.3067 895.56 L98.3067 891.301 L106.571 889.634 L111.246 889.634 L111.246 920.259 L118.885 920.259 L118.885 924.194 L98.978 924.194 L98.978 920.259 Z" fill="#000000" fill-rule="nonzero" fill-opacity="1" /><path clip-path="url(#clip900)" d="M138.33 892.713 Q134.719 892.713 132.89 896.278 Q131.084 899.819 131.084 906.949 Q131.084 914.055 132.89 917.62 Q134.719 921.162 138.33 921.162 Q141.964 921.162 143.769 917.62 Q145.598 914.055 145.598 906.949 Q145.598 899.819 143.769 896.278 Q141.964 892.713 138.33 892.713 M138.33 889.009 Q144.14 889.009 147.195 893.616 Q150.274 898.199 150.274 906.949 Q150.274 915.676 147.195 920.282 Q144.14 924.865 138.33 924.865 Q132.519 924.865 129.441 920.282 Q126.385 915.676 126.385 906.949 Q126.385 898.199 129.441 893.616 Q132.519 889.009 138.33 889.009 Z" fill="#000000" fill-rule="nonzero" fill-opacity="1" /><path clip-path="url(#clip900)" d="M63.9319 647.519 Q60.3208 647.519 58.4921 651.084 Q56.6865 654.625 56.6865 661.755 Q56.6865 668.861 58.4921 672.426 Q60.3208 675.968 63.9319 675.968 Q67.5661 675.968 69.3717 672.426 Q71.2004 668.861 71.2004 661.755 Q71.2004 654.625 69.3717 651.084 Q67.5661 647.519 63.9319 647.519 M63.9319 643.815 Q69.742 643.815 72.7976 648.422 Q75.8763 653.005 75.8763 661.755 Q75.8763 670.482 72.7976 675.088 Q69.742 679.671 63.9319 679.671 Q58.1217 679.671 55.043 675.088 Q51.9875 670.482 51.9875 661.755 Q51.9875 653.005 55.043 648.422 Q58.1217 643.815 63.9319 643.815 Z" fill="#000000" fill-rule="nonzero" fill-opacity="1" /><path clip-path="url(#clip900)" d="M84.0938 673.121 L88.978 673.121 L88.978 679 L84.0938 679 L84.0938 673.121 Z" fill="#000000" fill-rule="nonzero" fill-opacity="1" /><path clip-path="url(#clip900)" d="M99.9733 675.065 L107.612 675.065 L107.612 648.699 L99.3021 650.366 L99.3021 646.107 L107.566 644.44 L112.242 644.44 L112.242 675.065 L119.881 675.065 L119.881 679 L99.9733 679 L99.9733 675.065 Z" fill="#000000" fill-rule="nonzero" fill-opacity="1" /><path clip-path="url(#clip900)" d="M129.371 644.44 L147.728 644.44 L147.728 648.375 L133.654 648.375 L133.654 656.848 Q134.672 656.5 135.691 656.338 Q136.709 656.153 137.728 656.153 Q143.515 656.153 146.894 659.324 Q150.274 662.496 150.274 667.912 Q150.274 673.491 146.802 676.593 Q143.33 679.671 137.01 679.671 Q134.834 679.671 132.566 679.301 Q130.32 678.931 127.913 678.19 L127.913 673.491 Q129.996 674.625 132.219 675.181 Q134.441 675.736 136.918 675.736 Q140.922 675.736 143.26 673.63 Q145.598 671.523 145.598 667.912 Q145.598 664.301 143.26 662.195 Q140.922 660.088 136.918 660.088 Q135.043 660.088 133.168 660.505 Q131.316 660.922 129.371 661.801 L129.371 644.44 Z" fill="#000000" fill-rule="nonzero" fill-opacity="1" /><path clip-path="url(#clip900)" d="M62.9365 402.325 Q59.3254 402.325 57.4967 405.89 Q55.6912 409.431 55.6912 416.561 Q55.6912 423.667 57.4967 427.232 Q59.3254 430.774 62.9365 430.774 Q66.5707 430.774 68.3763 427.232 Q70.205 423.667 70.205 416.561 Q70.205 409.431 68.3763 405.89 Q66.5707 402.325 62.9365 402.325 M62.9365 398.621 Q68.7467 398.621 71.8022 403.228 Q74.8809 407.811 74.8809 416.561 Q74.8809 425.288 71.8022 429.894 Q68.7467 434.477 62.9365 434.477 Q57.1264 434.477 54.0477 429.894 Q50.9921 425.288 50.9921 416.561 Q50.9921 407.811 54.0477 403.228 Q57.1264 398.621 62.9365 398.621 Z" fill="#000000" fill-rule="nonzero" fill-opacity="1" /><path clip-path="url(#clip900)" d="M83.0984 427.927 L87.9827 427.927 L87.9827 433.806 L83.0984 433.806 L83.0984 427.927 Z" fill="#000000" fill-rule="nonzero" fill-opacity="1" /><path clip-path="url(#clip900)" d="M102.196 429.871 L118.515 429.871 L118.515 433.806 L96.5706 433.806 L96.5706 429.871 Q99.2326 427.116 103.816 422.487 Q108.422 417.834 109.603 416.491 Q111.848 413.968 112.728 412.232 Q113.631 410.473 113.631 408.783 Q113.631 406.029 111.686 404.292 Q109.765 402.556 106.663 402.556 Q104.464 402.556 102.01 403.32 Q99.5798 404.084 96.8021 405.635 L96.8021 400.913 Q99.6261 399.779 102.08 399.2 Q104.534 398.621 106.571 398.621 Q111.941 398.621 115.135 401.306 Q118.33 403.992 118.33 408.482 Q118.33 410.612 117.52 412.533 Q116.733 414.431 114.626 417.024 Q114.047 417.695 110.946 420.913 Q107.844 424.107 102.196 429.871 Z" fill="#000000" fill-rule="nonzero" fill-opacity="1" /><path clip-path="url(#clip900)" d="M138.33 402.325 Q134.719 402.325 132.89 405.89 Q131.084 409.431 131.084 416.561 Q131.084 423.667 132.89 427.232 Q134.719 430.774 138.33 430.774 Q141.964 430.774 143.769 427.232 Q145.598 423.667 145.598 416.561 Q145.598 409.431 143.769 405.89 Q141.964 402.325 138.33 402.325 M138.33 398.621 Q144.14 398.621 147.195 403.228 Q150.274 407.811 150.274 416.561 Q150.274 425.288 147.195 429.894 Q144.14 434.477 138.33 434.477 Q132.519 434.477 129.441 429.894 Q126.385 425.288 126.385 416.561 Q126.385 407.811 129.441 403.228 Q132.519 398.621 138.33 398.621 Z" fill="#000000" fill-rule="nonzero" fill-opacity="1" /><path clip-path="url(#clip900)" d="M63.9319 157.131 Q60.3208 157.131 58.4921 160.696 Q56.6865 164.237 56.6865 171.367 Q56.6865 178.473 58.4921 182.038 Q60.3208 185.58 63.9319 185.58 Q67.5661 185.58 69.3717 182.038 Q71.2004 178.473 71.2004 171.367 Q71.2004 164.237 69.3717 160.696 Q67.5661 157.131 63.9319 157.131 M63.9319 153.427 Q69.742 153.427 72.7976 158.034 Q75.8763 162.617 75.8763 171.367 Q75.8763 180.094 72.7976 184.7 Q69.742 189.284 63.9319 189.284 Q58.1217 189.284 55.043 184.7 Q51.9875 180.094 51.9875 171.367 Q51.9875 162.617 55.043 158.034 Q58.1217 153.427 63.9319 153.427 Z" fill="#000000" fill-rule="nonzero" fill-opacity="1" /><path clip-path="url(#clip900)" d="M84.0938 182.733 L88.978 182.733 L88.978 188.612 L84.0938 188.612 L84.0938 182.733 Z" fill="#000000" fill-rule="nonzero" fill-opacity="1" /><path clip-path="url(#clip900)" d="M103.191 184.677 L119.51 184.677 L119.51 188.612 L97.566 188.612 L97.566 184.677 Q100.228 181.922 104.811 177.293 Q109.418 172.64 110.598 171.297 Q112.844 168.774 113.723 167.038 Q114.626 165.279 114.626 163.589 Q114.626 160.835 112.682 159.098 Q110.76 157.362 107.658 157.362 Q105.459 157.362 103.006 158.126 Q100.575 158.89 97.7974 160.441 L97.7974 155.719 Q100.621 154.585 103.075 154.006 Q105.529 153.427 107.566 153.427 Q112.936 153.427 116.131 156.112 Q119.325 158.798 119.325 163.288 Q119.325 165.418 118.515 167.339 Q117.728 169.237 115.621 171.83 Q115.043 172.501 111.941 175.719 Q108.839 178.913 103.191 184.677 Z" fill="#000000" fill-rule="nonzero" fill-opacity="1" /><path clip-path="url(#clip900)" d="M129.371 154.052 L147.728 154.052 L147.728 157.987 L133.654 157.987 L133.654 166.46 Q134.672 166.112 135.691 165.95 Q136.709 165.765 137.728 165.765 Q143.515 165.765 146.894 168.936 Q150.274 172.108 150.274 177.524 Q150.274 183.103 146.802 186.205 Q143.33 189.284 137.01 189.284 Q134.834 189.284 132.566 188.913 Q130.32 188.543 127.913 187.802 L127.913 183.103 Q129.996 184.237 132.219 184.793 Q134.441 185.348 136.918 185.348 Q140.922 185.348 143.26 183.242 Q145.598 181.135 145.598 177.524 Q145.598 173.913 143.26 171.807 Q140.922 169.7 136.918 169.7 Q135.043 169.7 133.168 170.117 Q131.316 170.534 129.371 171.413 L129.371 154.052 Z" fill="#000000" fill-rule="nonzero" fill-opacity="1" /><polyline clip-path="url(#clip902)" style="stroke:#009af9; stroke-linecap:round; stroke-linejoin:round; stroke-width:8; stroke-opacity:1; fill:none" points="186.274,416.526 188.443,406.659 190.611,396.693 192.78,386.627 194.949,376.459 197.117,366.189 199.286,355.816 201.455,345.338 203.623,334.755 205.792,324.066 207.961,313.269 210.129,302.363 212.298,291.348 214.466,280.221 216.635,268.983 218.804,257.632 220.972,246.167 223.141,234.586 225.31,222.889 227.478,211.074 229.647,199.14 231.816,187.086 233.984,174.911 236.153,162.613 238.322,150.192 240.49,137.646 242.659,124.973 244.828,112.173 246.996,99.2445 249.165,86.1857 251.334,735.149 253.502,728.487 255.671,721.759 257.839,714.963 260.008,708.098 262.177,701.165 264.345,694.161 266.514,687.088 268.683,679.943 270.851,672.726 273.02,665.436 275.189,658.074 277.357,650.637 279.526,1020.21 281.695,1016.42 283.863,1012.59 286.032,1008.72 288.201,1004.81 290.369,1000.86 292.538,996.872 294.707,992.843 296.875,988.774 299.044,984.664 301.212,980.513 303.381,976.32 305.55,972.085 307.718,967.807 309.887,963.486 312.056,1287.76 314.224,1286.66 316.393,1285.54 318.562,1284.42 320.73,1283.28 322.899,1282.13 325.068,1280.98 327.236,1279.81 329.405,1278.62 331.574,1277.43 333.742,1276.22 335.911,1275.01 338.08,1273.78 340.248,1272.53 342.417,1271.28 344.585,1270.01 346.754,1268.73 348.923,1267.44 351.091,1266.13 353.26,1264.81 355.429,1263.48 357.597,1262.13 359.766,1260.77 361.935,1259.4 364.103,1258.01 366.272,1256.61 368.441,1255.19 370.609,1253.76 372.778,1252.32 374.947,1250.86 377.115,1249.39 379.284,1247.9 381.453,1246.4 383.621,1244.88 385.79,1243.34 387.959,1241.8 390.127,1240.23 392.296,1238.65 394.464,1237.06 396.633,1235.44 398.802,1233.81 400.97,1232.17 403.139,1230.51 405.308,1228.83 407.476,1227.14 409.645,1225.42 411.814,1223.69 413.982,1221.95 416.151,1220.18 418.32,1218.4 420.488,1216.6 422.657,1214.78 424.826,1212.95 426.994,1211.09 429.163,1209.22 431.332,1207.33 433.5,1205.42 435.669,1203.49 437.837,1201.54 440.006,1199.57 442.175,1197.58 444.343,1195.57 446.512,1193.54 448.681,1191.49 450.849,1189.42 453.018,1187.33 455.187,1185.22 457.355,1183.08 459.524,1180.93 461.693,1178.75 463.861,1176.55 466.03,1174.33 468.199,1172.09 470.367,1169.82 472.536,1167.53 474.705,1165.22 476.873,1162.89 479.042,1160.53 481.21,1158.15 483.379,1155.74 485.548,1153.31 487.716,1150.86 489.885,1148.38 492.054,1145.87 494.222,1143.34 496.391,1140.79 498.56,1138.21 500.728,1135.6 502.897,1132.97 505.066,1130.31 507.234,1127.62 509.403,1124.91 511.572,1122.17 513.74,1119.4 515.909,1116.6 518.078,1113.78 520.246,1110.93 522.415,1252.67 524.583,1251.22 526.752,1249.75 528.921,1248.27 531.089,1246.77 533.258,1245.25 535.427,1243.72 537.595,1242.18 539.764,1240.62 541.933,1239.04 544.101,1237.45 546.27,1235.84 548.439,1234.22 550.607,1232.58 552.776,1230.92 554.945,1229.24 557.113,1227.55 559.282,1225.85 561.451,1224.12 563.619,1222.38 565.788,1220.62 567.956,1218.84 570.125,1217.05 572.294,1215.23 574.462,1213.4 576.631,1211.55 578.8,1209.68 580.968,1207.79 583.137,1205.89 585.306,1203.96 587.474,1202.02 589.643,1200.05 591.812,1198.07 593.98,1196.06 596.149,1194.04 598.318,1191.99 600.486,1189.93 602.655,1187.84 604.824,1185.74 606.992,1183.61 609.161,1181.46 611.33,1179.29 613.498,1177.09 615.667,1174.88 617.835,1172.64 620.004,1170.38 622.173,1168.1 624.341,1165.79 626.51,1163.46 628.679,1161.11 630.847,1158.73 633.016,1156.33 635.185,1153.91 637.353,1151.46 639.522,1148.99 641.691,1146.49 643.859,1143.97 646.028,1141.42 648.197,1138.84 650.365,1136.24 652.534,1133.62 654.703,1130.96 656.871,1128.28 659.04,1125.58 661.208,1122.84 663.377,1120.08 665.546,1117.29 667.714,1114.48 669.883,1111.63 672.052,1108.76 674.22,1105.85 676.389,1102.92 678.558,1099.96 680.726,1096.97 682.895,1093.95 685.064,1090.9 687.232,1087.81 689.401,1084.7 691.57,1081.56 693.738,1078.38 695.907,1075.17 698.076,1071.93 700.244,1068.66 702.413,1065.35 704.581,1062.01 706.75,1058.64 708.919,1055.23 711.087,1051.79 713.256,1048.31 715.425,1044.8 717.593,1041.26 719.762,1037.67 721.931,1034.06 724.099,1030.4 726.268,1026.71 728.437,1022.98 730.605,1019.22 732.774,1015.41 734.943,1011.57 737.111,1007.69 739.28,1003.77 741.449,999.812 743.617,995.813 745.786,991.774 747.954,987.694 750.123,983.574 752.292,979.411 754.46,975.207 756.629,970.961 758.798,1181.99 760.966,1179.82 763.135,1177.63 765.304,1175.42 767.472,1173.19 769.641,1170.94 771.81,1168.66 773.978,1166.36 776.147,1164.03 778.316,1161.69 780.484,1159.32 782.653,1156.92 784.822,1154.51 786.99,1152.06 789.159,1149.6 791.328,1147.1 793.496,1144.59 795.665,1142.04 797.833,1139.48 800.002,1136.88 802.171,1134.26 804.339,1131.62 806.508,1128.94 808.677,1126.24 810.845,1123.52 813.014,1120.76 815.183,1117.98 817.351,1115.17 819.52,1112.33 821.689,1109.47 823.857,1106.57 826.026,1103.65 828.195,1100.69 830.363,1097.71 832.532,1094.69 834.701,1091.65 836.869,1088.57 839.038,1085.47 841.206,1082.33 843.375,1079.16 845.544,1075.96 847.712,1072.73 849.881,1069.46 852.05,1066.17 854.218,1062.83 856.387,1059.47 858.556,1056.07 860.724,1052.64 862.893,1049.17 865.062,1045.67 867.23,1042.13 869.399,1038.56 871.568,1034.95 873.736,1031.3 875.905,1027.62 878.074,1023.9 880.242,1020.14 882.411,1016.35 884.579,1012.52 886.748,1008.65 888.917,1004.74 891.085,1199.04 893.254,1197.05 895.423,1195.04 897.591,1193 899.76,1190.95 901.929,1188.87 904.097,1186.77 906.266,1184.65 908.435,1182.52 910.603,1180.35 912.772,1178.17 914.941,1175.97 917.109,1173.74 919.278,1171.49 921.447,1169.22 923.615,1166.93 925.784,1164.61 927.952,1162.27 930.121,1159.9 932.29,1157.51 934.458,1155.1 936.627,1152.67 938.796,1150.2 940.964,1147.72 943.133,1145.21 945.302,1142.67 947.47,1140.11 949.639,1137.52 951.808,1134.91 953.976,1132.27 956.145,1129.6 958.314,1126.91 960.482,1124.19 962.651,1121.44 964.82,1118.67 966.988,1115.86 969.157,1113.03 971.326,1110.17 973.494,1107.28 975.663,1104.37 977.831,1101.42 980,1098.44 982.169,1095.44 984.337,1092.4 986.506,1089.33 988.675,1086.23 990.843,1083.1 993.012,1079.94 995.181,1076.75 997.349,1073.52 999.518,1070.27 1001.69,1066.98 1003.86,1063.65 1006.02,1060.3 1008.19,1056.91 1010.36,1053.48 1012.53,1050.02 1014.7,1046.53 1016.87,1043 1019.04,1039.44 1021.2,1035.84 1023.37,1032.2 1025.54,1028.53 1027.71,1024.82 1029.88,1021.07 1032.05,1017.29 1034.22,1013.46 1036.39,1009.6 1038.55,1005.7 1040.72,1001.76 1042.89,997.781 1045.06,993.762 1047.23,989.702 1049.4,985.601 1051.57,981.46 1053.73,977.276 1055.9,973.05 1058.07,968.782 1060.24,964.471 1062.41,960.117 1064.58,955.718 1066.75,951.276 1068.91,946.789 1071.08,942.257 1073.25,937.679 1075.42,933.055 1077.59,928.384 1079.76,923.667 1081.93,918.902 1084.1,914.089 1086.26,909.228 1088.43,904.318 1090.6,899.359 1092.77,894.35 1094.94,889.29 1097.11,884.179 1099.28,879.017 1101.44,873.803 1103.61,868.537 1105.78,863.217 1107.95,857.845 1110.12,852.418 1112.29,846.936 1114.46,841.399 1116.63,835.807 1118.79,830.158 1120.96,824.452 1123.13,818.689 1125.3,812.868 1127.47,806.989 1129.64,801.05 1131.81,795.051 1133.97,788.992 1136.14,782.872 1138.31,776.691 1140.48,770.447 1142.65,764.14 1144.82,757.771 1146.99,751.337 1149.15,744.838 1151.32,738.274 1153.49,731.644 1155.66,724.947 1157.83,718.183 1160,711.351 1162.17,704.45 1164.34,697.48 1166.5,690.439 1168.67,683.328 1170.84,676.145 1173.01,668.89 1175.18,661.562 1177.35,654.16 1179.52,646.684 1181.68,639.133 1183.85,631.505 1186.02,623.801 1188.19,616.02 1190.36,1002.73 1192.53,998.761 1194.7,994.752 1196.87,990.702 1199.03,986.612 1201.2,982.48 1203.37,978.307 1205.54,974.092 1207.71,969.834 1209.88,965.533 1212.05,961.19 1214.21,956.802 1216.38,952.371 1218.55,947.895 1220.72,943.374 1222.89,938.807 1225.06,934.194 1227.23,929.536 1229.39,924.83 1231.56,920.076 1233.73,915.275 1235.9,910.426 1238.07,905.528 1240.24,900.581 1242.41,895.584 1244.58,890.536 1246.74,885.438 1248.91,880.288 1251.08,875.087 1253.25,869.833 1255.42,864.527 1257.59,859.167 1259.76,853.753 1261.92,848.285 1264.09,1120.03 1266.26,1117.24 1268.43,1255.86 1270.6,1254.44 1272.77,1253 1274.94,1251.55 1277.11,1250.09 1279.27,1248.6 1281.44,1247.11 1283.61,1245.6 1285.78,1244.07 1287.95,1242.53 1290.12,1240.97 1292.29,1239.4 1294.45,1237.81 1296.62,1236.21 1298.79,1234.59 1300.96,1232.95 1303.13,1231.3 1305.3,1229.63 1307.47,1227.94 1309.63,1226.24 1311.8,1224.51 1313.97,1222.78 1316.14,1221.02 1318.31,1219.25 1320.48,1217.46 1322.65,1215.65 1324.82,1213.82 1326.98,1211.97 1329.15,1210.11 1331.32,1208.22 1333.49,1206.32 1335.66,1204.4 1337.83,1202.46 1340,1200.5 1342.16,1198.52 1344.33,1196.52 1346.5,1194.5 1348.67,1192.46 1350.84,1190.4 1353.01,1188.32 1355.18,1186.22 1357.35,1184.09 1359.51,1289.62 1361.68,1288.54 1363.85,1287.45 1366.02,1286.34 1368.19,1341.26 1370.36,1340.7 1372.53,1340.13 1374.69,1339.56 1376.86,1338.97 1379.03,1338.39 1381.2,1337.8 1383.37,1337.2 1385.54,1336.59 1387.71,1335.98 1389.88,1335.36 1392.04,1334.74 1394.21,1334.11 1396.38,1333.48 1398.55,1332.83 1400.72,1332.19 1402.89,1331.53 1405.06,1330.87 1407.22,1330.2 1409.39,1329.53 1411.56,1328.84 1413.73,1328.15 1415.9,1327.46 1418.07,1326.76 1420.24,1326.05 1422.4,1325.33 1424.57,1324.61 1426.74,1323.87 1428.91,1323.14 1431.08,1322.39 1433.25,1321.64 1435.42,1320.87 1437.59,1320.11 1439.75,1319.33 1441.92,1318.54 1444.09,1317.75 1446.26,1316.95 1448.43,1316.14 1450.6,1315.33 1452.77,1314.5 1454.93,1313.67 1457.1,1312.83 1459.27,1311.98 1461.44,1311.12 1463.61,1310.25 1465.78,1309.38 1467.95,1308.49 1470.12,1307.6 1472.28,1306.7 1474.45,1305.79 1476.62,1304.86 1478.79,1303.93 1480.96,1303 1483.13,1302.05 1485.3,1301.09 1487.46,1300.12 1489.63,1299.14 1491.8,1298.16 1493.97,1297.16 1496.14,1296.15 1498.31,1295.13 1500.48,1294.1 1502.64,1293.07 1504.81,1292.02 1506.98,1290.96 1509.15,1289.89 1511.32,1288.81 1513.49,1287.72 1515.66,1286.61 1517.83,1285.5 1519.99,1284.38 1522.16,1283.24 1524.33,1282.09 1526.5,1280.93 1528.67,1279.76 1530.84,1278.58 1533.01,1277.39 1535.17,1276.18 1537.34,1274.96 1539.51,1273.73 1541.68,1272.49 1543.85,1271.23 1546.02,1269.96 1548.19,1268.68 1550.36,1267.39 1552.52,1266.08 1554.69,1264.76 1556.86,1263.43 1559.03,1262.08 1561.2,1260.72 1563.37,1259.35 1565.54,1257.96 1567.7,1256.56 1569.87,1255.14 1572.04,1253.71 1574.21,1252.27 1576.38,1250.81 1578.55,1249.33 1580.72,1247.84 1582.88,1246.34 1585.05,1244.82 1587.22,1243.29 1589.39,1241.74 1591.56,1240.17 1593.73,1238.59 1595.9,1237 1598.07,1235.38 1600.23,1233.75 1602.4,1232.11 1604.57,1230.45 1606.74,1313.04 1608.91,1312.19 1611.08,1311.33 1613.25,1310.47 1615.41,1309.59 1617.58,1308.71 1619.75,1307.82 1621.92,1306.92 1624.09,1306.01 1626.26,1305.09 1628.43,1304.16 1630.6,1303.23 1632.76,1302.28 1634.93,1301.32 1637.1,1300.36 1639.27,1299.38 1641.44,1298.4 1643.61,1297.4 1645.78,1296.4 1647.94,1295.38 1650.11,1294.36 1652.28,1293.32 1654.45,1292.28 1656.62,1291.22 1658.79,1290.15 1660.96,1289.07 1663.13,1287.99 1665.29,1286.89 1667.46,1285.78 1669.63,1284.65 1671.8,1283.52 1673.97,1282.38 1676.14,1281.22 1678.31,1280.05 1680.47,1278.87 1682.64,1277.68 1684.81,1276.48 1686.98,1336.28 1689.15,1335.67 1691.32,1335.05 1693.49,1334.42 1695.65,1333.79 1697.82,1333.15 1699.99,1332.5 1702.16,1331.85 1704.33,1331.19 1706.5,1330.53 1708.67,1329.86 1710.84,1329.18 1713,1328.49 1715.17,1327.8 1717.34,1327.1 1719.51,1326.4 1721.68,1325.68 1723.85,1361.13 1726.02,1360.77 1728.18,1360.4 1730.35,1360.03 1732.52,1359.65 1734.69,1359.28 1736.86,1358.89 1739.03,1358.51 1741.2,1358.12 1743.37,1357.72 1745.53,1357.32 1747.7,1356.92 1749.87,1356.52 1752.04,1356.11 1754.21,1355.69 1756.38,1355.27 1758.55,1354.85 1760.71,1354.42 1762.88,1353.99 1765.05,1353.56 1767.22,1353.12 1769.39,1352.67 1771.56,1352.22 1773.73,1351.77 1775.89,1351.31 1778.06,1350.85 1780.23,1350.38 1782.4,1349.91 1784.57,1349.43 1786.74,1348.95 1788.91,1348.46 1791.08,1347.97 1793.24,1347.48 1795.41,1346.97 1797.58,1371.88 1799.75,1371.63 1801.92,1371.37 1804.09,1371.11 1806.26,1370.85 1808.42,1370.58 1810.59,1370.31 1812.76,1370.04 1814.93,1369.77 1817.1,1369.49 1819.27,1369.21 1821.44,1368.93 1823.61,1368.64 1825.77,1368.35 1827.94,1368.06 1830.11,1367.77 1832.28,1367.47 1834.45,1367.17 1836.62,1366.87 1838.79,1366.56 1840.95,1366.25 1843.12,1365.94 1845.29,1365.62 1847.46,1365.3 1849.63,1364.98 1851.8,1364.66 1853.97,1364.33 1856.13,1364 1858.3,1363.66 1860.47,1363.32 1862.64,1362.98 1864.81,1362.64 1866.98,1362.29 1869.15,1361.94 1871.32,1361.58 1873.48,1361.22 1875.65,1360.86 1877.82,1360.49 1879.99,1360.12 1882.16,1359.75 1884.33,1359.37 1886.5,1358.99 1888.66,1358.6 1890.83,1358.21 1893,1357.82 1895.17,1357.42 1897.34,1357.02 1899.51,1356.62 1901.68,1356.21 1903.85,1355.79 1906.01,1355.38 1908.18,1354.95 1910.35,1354.53 1912.52,1354.1 1914.69,1353.66 1916.86,1353.22 1919.03,1352.78 1921.19,1352.33 1923.36,1374.59 1925.53,1374.36 1927.7,1374.13 1929.87,1373.9 1932.04,1373.66 1934.21,1373.43 1936.37,1373.19 1938.54,1372.94 1940.71,1372.7 1942.88,1372.45 1945.05,1372.2 1947.22,1371.95 1949.39,1371.69 1951.56,1371.43 1953.72,1384.24 1955.89,1384.11 1958.06,1383.97 1960.23,1383.84 1962.4,1383.7 1964.57,1383.57 1966.74,1383.43 1968.9,1383.29 1971.07,1383.15 1973.24,1383.01 1975.41,1382.86 1977.58,1382.72 1979.75,1382.57 1981.92,1382.42 1984.09,1382.27 1986.25,1382.12 1988.42,1381.97 1990.59,1381.81 1992.76,1381.66 1994.93,1381.5 1997.1,1381.34 1999.27,1381.18 2001.43,1381.02 2003.6,1380.86 2005.77,1380.69 2007.94,1380.52 2010.11,1380.35 2012.28,1380.18 2014.45,1380.01 2016.62,1379.84 2018.78,1379.66 2020.95,1379.48 2023.12,1379.31 2025.29,1379.12 2027.46,1378.94 2029.63,1378.76 2031.8,1378.57 2033.96,1378.38 2036.13,1378.19 2038.3,1378 2040.47,1377.81 2042.64,1377.61 2044.81,1377.41 2046.98,1377.21 2049.14,1377.01 2051.31,1376.8 2053.48,1376.6 2055.65,1376.39 2057.82,1376.18 2059.99,1375.97 2062.16,1375.75 2064.33,1375.54 2066.49,1375.32 2068.66,1375.1 2070.83,1374.87 2073,1374.65 2075.17,1374.42 2077.34,1374.19 2079.51,1373.96 2081.67,1373.72 2083.84,1373.48 2086.01,1373.24 2088.18,1373 2090.35,1372.76 2092.52,1372.51 2094.69,1372.26 2096.86,1372.01 2099.02,1371.76 2101.19,1371.5 2103.36,1371.24 2105.53,1370.98 2107.7,1370.71 2109.87,1370.44 2112.04,1370.17 2114.2,1369.9 2116.37,1369.63 2118.54,1369.35 2120.71,1369.07 2122.88,1368.78 2125.05,1368.49 2127.22,1368.2 2129.38,1367.91 2131.55,1367.62 2133.72,1367.32 2135.89,1367.02 2138.06,1366.71 2140.23,1366.4 2142.4,1366.09 2144.57,1365.78 2146.73,1365.46 2148.9,1365.14 2151.07,1364.82 2153.24,1364.49 2155.41,1364.16 2157.58,1363.83 2159.75,1363.49 2161.91,1363.15 2164.08,1362.81 2166.25,1362.46 2168.42,1362.11 2170.59,1361.76 2172.76,1361.4 2174.93,1361.04 2177.1,1360.67 2179.26,1360.3 2181.43,1359.93 2183.6,1359.55 2185.77,1359.18 2187.94,1358.79 2190.11,1358.4 2192.28,1358.01 2194.44,1357.62 2196.61,1357.22 2198.78,1356.82 2200.95,1356.41 2203.12,1356 2205.29,1355.58 2207.46,1355.16 2209.62,1354.74 2211.79,1354.31 2213.96,1353.88 2216.13,1353.44 2218.3,1353 2220.47,1352.55 2222.64,1352.1 2224.81,1351.65 2226.97,1351.19 2229.14,1350.72 2231.31,1350.26 2233.48,1349.78 2235.65,1349.3 2237.82,1348.82 2239.99,1348.33 2242.15,1347.84 2244.32,1347.34 2246.49,1346.84 2248.66,1346.33 2250.83,1345.82 2253,1345.3 2255.17,1344.78 2257.34,1344.25 2259.5,1343.72 2261.67,1343.18 2263.84,1342.63 2266.01,1342.08 2268.18,1341.53 2270.35,1340.97 2272.52,1340.4 2274.68,1339.83 2276.85,1339.25 2279.02,1338.67 2281.19,1338.08 2283.36,1337.48 2285.53,1336.88 2287.7,1336.27 2289.87,1335.66 2292.03,1335.04 2294.2,1334.41 2296.37,1333.78 2298.54,1333.14 2300.71,1332.49 2302.88,1331.84 2305.05,1331.18 2307.21,1330.52 2309.38,1329.85 2311.55,1329.17 2313.72,1328.48 2315.89,1327.79 2318.06,1327.09 2320.23,1326.38 2322.39,1325.67 2324.56,1324.95 2326.73,1324.22 2328.9,1323.49 2331.07,1322.74 2333.24,1321.99 2335.41,1321.24 2337.58,1320.47 2339.74,1319.7 2341.91,1318.92 2344.08,1318.13 2346.25,1317.33 2348.42,1316.53 2350.59,1315.71 2352.76,1314.89 "/>
<path clip-path="url(#clip900)" d="M1974.79 196.789 L2280.54 196.789 L2280.54 93.1086 L1974.79 93.1086  Z" fill="#ffffff" fill-rule="evenodd" fill-opacity="1"/>
<polyline clip-path="url(#clip900)" style="stroke:#000000; stroke-linecap:round; stroke-linejoin:round; stroke-width:4; stroke-opacity:1; fill:none" points="1974.79,196.789 2280.54,196.789 2280.54,93.1086 1974.79,93.1086 1974.79,196.789 "/>
<polyline clip-path="url(#clip900)" style="stroke:#009af9; stroke-linecap:round; stroke-linejoin:round; stroke-width:8; stroke-opacity:1; fill:none" points="1998.87,144.949 2143.3,144.949 "/>
<path clip-path="url(#clip900)" d="M2167.37 151.997 L2167.37 136.303 L2171.63 136.303 L2171.63 151.835 Q2171.63 155.516 2173.07 157.368 Q2174.5 159.196 2177.37 159.196 Q2180.82 159.196 2182.81 156.997 Q2184.82 154.798 2184.82 151.002 L2184.82 136.303 L2189.08 136.303 L2189.08 162.229 L2184.82 162.229 L2184.82 158.247 Q2183.27 160.608 2181.21 161.766 Q2179.18 162.9 2176.47 162.9 Q2172 162.9 2169.69 160.122 Q2167.37 157.344 2167.37 151.997 M2178.09 135.678 L2178.09 135.678 Z" fill="#000000" fill-rule="nonzero" fill-opacity="1" /><path clip-path="url(#clip900)" d="M2197.46 126.21 L2207.28 126.21 L2207.28 129.52 L2201.72 129.52 L2201.72 165.168 L2207.28 165.168 L2207.28 168.479 L2197.46 168.479 L2197.46 126.21 Z" fill="#000000" fill-rule="nonzero" fill-opacity="1" /><path clip-path="url(#clip900)" d="M2217.76 158.293 L2225.4 158.293 L2225.4 131.928 L2217.09 133.595 L2217.09 129.335 L2225.36 127.669 L2230.03 127.669 L2230.03 158.293 L2237.67 158.293 L2237.67 162.229 L2217.76 162.229 L2217.76 158.293 Z" fill="#000000" fill-rule="nonzero" fill-opacity="1" /><path clip-path="url(#clip900)" d="M2256.47 126.21 L2256.47 168.479 L2246.65 168.479 L2246.65 165.168 L2252.19 165.168 L2252.19 129.52 L2246.65 129.52 L2246.65 126.21 L2256.47 126.21 Z" fill="#000000" fill-rule="nonzero" fill-opacity="1" /></svg>
