<?xml version="1.0" encoding="utf-8"?>
<svg xmlns="http://www.w3.org/2000/svg" xmlns:xlink="http://www.w3.org/1999/xlink" width="600" height="400" viewBox="0 0 2400 1600">
<defs>
  <clipPath id="clip110">
    <rect x="0" y="0" width="2400" height="1600"/>
  </clipPath>
</defs>
<path clip-path="url(#clip110)" d="M0 1600 L2400 1600 L2400 0 L0 0  Z" fill="#ffffff" fill-rule="evenodd" fill-opacity="1"/>
<defs>
  <clipPath id="clip111">
    <rect x="480" y="0" width="1681" height="1600"/>
  </clipPath>
</defs>
<path clip-path="url(#clip110)" d="M156.112 1423.18 L2352.76 1423.18 L2352.76 47.2441 L156.112 47.2441  Z" fill="#ffffff" fill-rule="evenodd" fill-opacity="1"/>
<defs>
  <clipPath id="clip112">
    <rect x="156" y="47" width="2198" height="1377"/>
  </clipPath>
</defs>
<polyline clip-path="url(#clip112)" style="stroke:#000000; stroke-linecap:round; stroke-linejoin:round; stroke-width:2; stroke-opacity:0.1; fill:none" points="156.112,1423.18 156.112,47.2441 "/>
<polyline clip-path="url(#clip112)" style="stroke:#000000; stroke-linecap:round; stroke-linejoin:round; stroke-width:2; stroke-opacity:0.1; fill:none" points="595.441,1423.18 595.441,47.2441 "/>
<polyline clip-path="url(#clip112)" style="stroke:#000000; stroke-linecap:round; stroke-linejoin:round; stroke-width:2; stroke-opacity:0.1; fill:none" points="1034.77,1423.18 1034.77,47.2441 "/>
<polyline clip-path="url(#clip112)" style="stroke:#000000; stroke-linecap:round; stroke-linejoin:round; stroke-width:2; stroke-opacity:0.1; fill:none" points="1474.1,1423.18 1474.1,47.2441 "/>
<polyline clip-path="url(#clip112)" style="stroke:#000000; stroke-linecap:round; stroke-linejoin:round; stroke-width:2; stroke-opacity:0.1; fill:none" points="1913.43,1423.18 1913.43,47.2441 "/>
<polyline clip-path="url(#clip112)" style="stroke:#000000; stroke-linecap:round; stroke-linejoin:round; stroke-width:2; stroke-opacity:0.1; fill:none" points="2352.76,1423.18 2352.76,47.2441 "/>
<polyline clip-path="url(#clip110)" style="stroke:#000000; stroke-linecap:round; stroke-linejoin:round; stroke-width:4; stroke-opacity:1; fill:none" points="156.112,1423.18 2352.76,1423.18 "/>
<polyline clip-path="url(#clip110)" style="stroke:#000000; stroke-linecap:round; stroke-linejoin:round; stroke-width:4; stroke-opacity:1; fill:none" points="156.112,1423.18 156.112,1404.28 "/>
<polyline clip-path="url(#clip110)" style="stroke:#000000; stroke-linecap:round; stroke-linejoin:round; stroke-width:4; stroke-opacity:1; fill:none" points="595.441,1423.18 595.441,1404.28 "/>
<polyline clip-path="url(#clip110)" style="stroke:#000000; stroke-linecap:round; stroke-linejoin:round; stroke-width:4; stroke-opacity:1; fill:none" points="1034.77,1423.18 1034.77,1404.28 "/>
<polyline clip-path="url(#clip110)" style="stroke:#000000; stroke-linecap:round; stroke-linejoin:round; stroke-width:4; stroke-opacity:1; fill:none" points="1474.1,1423.18 1474.1,1404.28 "/>
<polyline clip-path="url(#clip110)" style="stroke:#000000; stroke-linecap:round; stroke-linejoin:round; stroke-width:4; stroke-opacity:1; fill:none" points="1913.43,1423.18 1913.43,1404.28 "/>
<polyline clip-path="url(#clip110)" style="stroke:#000000; stroke-linecap:round; stroke-linejoin:round; stroke-width:4; stroke-opacity:1; fill:none" points="2352.76,1423.18 2352.76,1404.28 "/>
<path clip-path="url(#clip110)" d="M156.112 1454.1 Q152.501 1454.1 150.672 1457.66 Q148.867 1461.2 148.867 1468.33 Q148.867 1475.44 150.672 1479.01 Q152.501 1482.55 156.112 1482.55 Q159.746 1482.55 161.552 1479.01 Q163.381 1475.44 163.381 1468.33 Q163.381 1461.2 161.552 1457.66 Q159.746 1454.1 156.112 1454.1 M156.112 1450.39 Q161.922 1450.39 164.978 1455 Q168.057 1459.58 168.057 1468.33 Q168.057 1477.06 164.978 1481.67 Q161.922 1486.25 156.112 1486.25 Q150.302 1486.25 147.223 1481.67 Q144.168 1477.06 144.168 1468.33 Q144.168 1459.58 147.223 1455 Q150.302 1450.39 156.112 1450.39 Z" fill="#000000" fill-rule="nonzero" fill-opacity="1" /><path clip-path="url(#clip110)" d="M590.094 1481.64 L606.413 1481.64 L606.413 1485.58 L584.469 1485.58 L584.469 1481.64 Q587.131 1478.89 591.714 1474.26 Q596.321 1469.61 597.501 1468.27 Q599.746 1465.74 600.626 1464.01 Q601.529 1462.25 601.529 1460.56 Q601.529 1457.8 599.584 1456.07 Q597.663 1454.33 594.561 1454.33 Q592.362 1454.33 589.909 1455.09 Q587.478 1455.86 584.7 1457.41 L584.7 1452.69 Q587.524 1451.55 589.978 1450.97 Q592.432 1450.39 594.469 1450.39 Q599.839 1450.39 603.033 1453.08 Q606.228 1455.77 606.228 1460.26 Q606.228 1462.39 605.418 1464.31 Q604.631 1466.2 602.524 1468.8 Q601.945 1469.47 598.844 1472.69 Q595.742 1475.88 590.094 1481.64 Z" fill="#000000" fill-rule="nonzero" fill-opacity="1" /><path clip-path="url(#clip110)" d="M1037.78 1455.09 L1025.97 1473.54 L1037.78 1473.54 L1037.78 1455.09 M1036.55 1451.02 L1042.43 1451.02 L1042.43 1473.54 L1047.36 1473.54 L1047.36 1477.43 L1042.43 1477.43 L1042.43 1485.58 L1037.78 1485.58 L1037.78 1477.43 L1022.18 1477.43 L1022.18 1472.92 L1036.55 1451.02 Z" fill="#000000" fill-rule="nonzero" fill-opacity="1" /><path clip-path="url(#clip110)" d="M1474.5 1466.44 Q1471.36 1466.44 1469.5 1468.59 Q1467.67 1470.74 1467.67 1474.49 Q1467.67 1478.22 1469.5 1480.39 Q1471.36 1482.55 1474.5 1482.55 Q1477.65 1482.55 1479.48 1480.39 Q1481.33 1478.22 1481.33 1474.49 Q1481.33 1470.74 1479.48 1468.59 Q1477.65 1466.44 1474.5 1466.44 M1483.79 1451.78 L1483.79 1456.04 Q1482.03 1455.21 1480.22 1454.77 Q1478.44 1454.33 1476.68 1454.33 Q1472.05 1454.33 1469.6 1457.45 Q1467.17 1460.58 1466.82 1466.9 Q1468.18 1464.89 1470.24 1463.82 Q1472.3 1462.73 1474.78 1462.73 Q1479.99 1462.73 1483 1465.9 Q1486.03 1469.05 1486.03 1474.49 Q1486.03 1479.82 1482.88 1483.03 Q1479.73 1486.25 1474.5 1486.25 Q1468.51 1486.25 1465.34 1481.67 Q1462.17 1477.06 1462.17 1468.33 Q1462.17 1460.14 1466.05 1455.28 Q1469.94 1450.39 1476.49 1450.39 Q1478.25 1450.39 1480.04 1450.74 Q1481.84 1451.09 1483.79 1451.78 Z" fill="#000000" fill-rule="nonzero" fill-opacity="1" /><path clip-path="url(#clip110)" d="M1913.43 1469.17 Q1910.09 1469.17 1908.17 1470.95 Q1906.27 1472.73 1906.27 1475.86 Q1906.27 1478.98 1908.17 1480.77 Q1910.09 1482.55 1913.43 1482.55 Q1916.76 1482.55 1918.68 1480.77 Q1920.6 1478.96 1920.6 1475.86 Q1920.6 1472.73 1918.68 1470.95 Q1916.78 1469.17 1913.43 1469.17 M1908.75 1467.18 Q1905.74 1466.44 1904.05 1464.38 Q1902.39 1462.32 1902.39 1459.35 Q1902.39 1455.21 1905.33 1452.8 Q1908.29 1450.39 1913.43 1450.39 Q1918.59 1450.39 1921.53 1452.8 Q1924.47 1455.21 1924.47 1459.35 Q1924.47 1462.32 1922.78 1464.38 Q1921.11 1466.44 1918.13 1467.18 Q1921.51 1467.96 1923.38 1470.26 Q1925.28 1472.55 1925.28 1475.86 Q1925.28 1480.88 1922.2 1483.57 Q1919.14 1486.25 1913.43 1486.25 Q1907.71 1486.25 1904.63 1483.57 Q1901.58 1480.88 1901.58 1475.86 Q1901.58 1472.55 1903.47 1470.26 Q1905.37 1467.96 1908.75 1467.18 M1907.04 1459.79 Q1907.04 1462.48 1908.7 1463.98 Q1910.39 1465.49 1913.43 1465.49 Q1916.44 1465.49 1918.13 1463.98 Q1919.84 1462.48 1919.84 1459.79 Q1919.84 1457.11 1918.13 1455.6 Q1916.44 1454.1 1913.43 1454.1 Q1910.39 1454.1 1908.7 1455.6 Q1907.04 1457.11 1907.04 1459.79 Z" fill="#000000" fill-rule="nonzero" fill-opacity="1" /><path clip-path="url(#clip110)" d="M2327.44 1481.64 L2335.08 1481.64 L2335.08 1455.28 L2326.77 1456.95 L2326.77 1452.69 L2335.04 1451.02 L2339.71 1451.02 L2339.71 1481.64 L2347.35 1481.64 L2347.35 1485.58 L2327.44 1485.58 L2327.44 1481.64 Z" fill="#000000" fill-rule="nonzero" fill-opacity="1" /><path clip-path="url(#clip110)" d="M2366.8 1454.1 Q2363.18 1454.1 2361.36 1457.66 Q2359.55 1461.2 2359.55 1468.33 Q2359.55 1475.44 2361.36 1479.01 Q2363.18 1482.55 2366.8 1482.55 Q2370.43 1482.55 2372.23 1479.01 Q2374.06 1475.44 2374.06 1468.33 Q2374.06 1461.2 2372.23 1457.66 Q2370.43 1454.1 2366.8 1454.1 M2366.8 1450.39 Q2372.61 1450.39 2375.66 1455 Q2378.74 1459.58 2378.74 1468.33 Q2378.74 1477.06 2375.66 1481.67 Q2372.61 1486.25 2366.8 1486.25 Q2360.99 1486.25 2357.91 1481.67 Q2354.85 1477.06 2354.85 1468.33 Q2354.85 1459.58 2357.91 1455 Q2360.99 1450.39 2366.8 1450.39 Z" fill="#000000" fill-rule="nonzero" fill-opacity="1" /><path clip-path="url(#clip110)" d="M1253.5 1522.27 L1253.5 1532.4 L1265.56 1532.4 L1265.56 1536.95 L1253.5 1536.95 L1253.5 1556.3 Q1253.5 1560.66 1254.67 1561.9 Q1255.88 1563.14 1259.54 1563.14 L1265.56 1563.14 L1265.56 1568.04 L1259.54 1568.04 Q1252.76 1568.04 1250.18 1565.53 Q1247.61 1562.98 1247.61 1556.3 L1247.61 1536.95 L1243.31 1536.95 L1243.31 1532.4 L1247.61 1532.4 L1247.61 1522.27 L1253.5 1522.27 Z" fill="#000000" fill-rule="nonzero" fill-opacity="1" /><polyline clip-path="url(#clip112)" style="stroke:#000000; stroke-linecap:round; stroke-linejoin:round; stroke-width:2; stroke-opacity:0.1; fill:none" points="156.112,1413.93 2352.76,1413.93 "/>
<polyline clip-path="url(#clip112)" style="stroke:#000000; stroke-linecap:round; stroke-linejoin:round; stroke-width:2; stroke-opacity:0.1; fill:none" points="156.112,999.202 2352.76,999.202 "/>
<polyline clip-path="url(#clip112)" style="stroke:#000000; stroke-linecap:round; stroke-linejoin:round; stroke-width:2; stroke-opacity:0.1; fill:none" points="156.112,584.476 2352.76,584.476 "/>
<polyline clip-path="url(#clip112)" style="stroke:#000000; stroke-linecap:round; stroke-linejoin:round; stroke-width:2; stroke-opacity:0.1; fill:none" points="156.112,169.751 2352.76,169.751 "/>
<polyline clip-path="url(#clip110)" style="stroke:#000000; stroke-linecap:round; stroke-linejoin:round; stroke-width:4; stroke-opacity:1; fill:none" points="156.112,1423.18 156.112,47.2441 "/>
<polyline clip-path="url(#clip110)" style="stroke:#000000; stroke-linecap:round; stroke-linejoin:round; stroke-width:4; stroke-opacity:1; fill:none" points="156.112,1413.93 175.01,1413.93 "/>
<polyline clip-path="url(#clip110)" style="stroke:#000000; stroke-linecap:round; stroke-linejoin:round; stroke-width:4; stroke-opacity:1; fill:none" points="156.112,999.202 175.01,999.202 "/>
<polyline clip-path="url(#clip110)" style="stroke:#000000; stroke-linecap:round; stroke-linejoin:round; stroke-width:4; stroke-opacity:1; fill:none" points="156.112,584.476 175.01,584.476 "/>
<polyline clip-path="url(#clip110)" style="stroke:#000000; stroke-linecap:round; stroke-linejoin:round; stroke-width:4; stroke-opacity:1; fill:none" points="156.112,169.751 175.01,169.751 "/>
<path clip-path="url(#clip110)" d="M62.9365 1399.73 Q59.3254 1399.73 57.4967 1403.29 Q55.6912 1406.83 55.6912 1413.96 Q55.6912 1421.07 57.4967 1424.63 Q59.3254 1428.18 62.9365 1428.18 Q66.5707 1428.18 68.3763 1424.63 Q70.205 1421.07 70.205 1413.96 Q70.205 1406.83 68.3763 1403.29 Q66.5707 1399.73 62.9365 1399.73 M62.9365 1396.02 Q68.7467 1396.02 71.8022 1400.63 Q74.8809 1405.21 74.8809 1413.96 Q74.8809 1422.69 71.8022 1427.3 Q68.7467 1431.88 62.9365 1431.88 Q57.1264 1431.88 54.0477 1427.3 Q50.9921 1422.69 50.9921 1413.96 Q50.9921 1405.21 54.0477 1400.63 Q57.1264 1396.02 62.9365 1396.02 Z" fill="#000000" fill-rule="nonzero" fill-opacity="1" /><path clip-path="url(#clip110)" d="M83.0984 1425.33 L87.9827 1425.33 L87.9827 1431.21 L83.0984 1431.21 L83.0984 1425.33 Z" fill="#000000" fill-rule="nonzero" fill-opacity="1" /><path clip-path="url(#clip110)" d="M108.168 1399.73 Q104.557 1399.73 102.728 1403.29 Q100.922 1406.83 100.922 1413.96 Q100.922 1421.07 102.728 1424.63 Q104.557 1428.18 108.168 1428.18 Q111.802 1428.18 113.608 1424.63 Q115.436 1421.07 115.436 1413.96 Q115.436 1406.83 113.608 1403.29 Q111.802 1399.73 108.168 1399.73 M108.168 1396.02 Q113.978 1396.02 117.033 1400.63 Q120.112 1405.21 120.112 1413.96 Q120.112 1422.69 117.033 1427.3 Q113.978 1431.88 108.168 1431.88 Q102.358 1431.88 99.2789 1427.3 Q96.2234 1422.69 96.2234 1413.96 Q96.2234 1405.21 99.2789 1400.63 Q102.358 1396.02 108.168 1396.02 Z" fill="#000000" fill-rule="nonzero" fill-opacity="1" /><path clip-path="url(#clip110)" d="M64.1634 985.001 Q60.5523 985.001 58.7236 988.566 Q56.918 992.107 56.918 999.237 Q56.918 1006.34 58.7236 1009.91 Q60.5523 1013.45 64.1634 1013.45 Q67.7976 1013.45 69.6031 1009.91 Q71.4318 1006.34 71.4318 999.237 Q71.4318 992.107 69.6031 988.566 Q67.7976 985.001 64.1634 985.001 M64.1634 981.297 Q69.9735 981.297 73.029 985.904 Q76.1077 990.487 76.1077 999.237 Q76.1077 1007.96 73.029 1012.57 Q69.9735 1017.15 64.1634 1017.15 Q58.3532 1017.15 55.2745 1012.57 Q52.219 1007.96 52.219 999.237 Q52.219 990.487 55.2745 985.904 Q58.3532 981.297 64.1634 981.297 Z" fill="#000000" fill-rule="nonzero" fill-opacity="1" /><path clip-path="url(#clip110)" d="M84.3253 1010.6 L89.2095 1010.6 L89.2095 1016.48 L84.3253 1016.48 L84.3253 1010.6 Z" fill="#000000" fill-rule="nonzero" fill-opacity="1" /><path clip-path="url(#clip110)" d="M100.205 1012.55 L107.844 1012.55 L107.844 986.181 L99.5335 987.848 L99.5335 983.589 L107.797 981.922 L112.473 981.922 L112.473 1012.55 L120.112 1012.55 L120.112 1016.48 L100.205 1016.48 L100.205 1012.55 Z" fill="#000000" fill-rule="nonzero" fill-opacity="1" /><path clip-path="url(#clip110)" d="M64.5337 570.275 Q60.9226 570.275 59.0939 573.84 Q57.2884 577.382 57.2884 584.511 Q57.2884 591.618 59.0939 595.182 Q60.9226 598.724 64.5337 598.724 Q68.168 598.724 69.9735 595.182 Q71.8022 591.618 71.8022 584.511 Q71.8022 577.382 69.9735 573.84 Q68.168 570.275 64.5337 570.275 M64.5337 566.571 Q70.3439 566.571 73.3994 571.178 Q76.4781 575.761 76.4781 584.511 Q76.4781 593.238 73.3994 597.844 Q70.3439 602.428 64.5337 602.428 Q58.7236 602.428 55.6449 597.844 Q52.5893 593.238 52.5893 584.511 Q52.5893 575.761 55.6449 571.178 Q58.7236 566.571 64.5337 566.571 Z" fill="#000000" fill-rule="nonzero" fill-opacity="1" /><path clip-path="url(#clip110)" d="M84.6956 595.877 L89.5799 595.877 L89.5799 601.756 L84.6956 601.756 L84.6956 595.877 Z" fill="#000000" fill-rule="nonzero" fill-opacity="1" /><path clip-path="url(#clip110)" d="M103.793 597.821 L120.112 597.821 L120.112 601.756 L98.1678 601.756 L98.1678 597.821 Q100.83 595.067 105.413 590.437 Q110.02 585.784 111.2 584.442 Q113.445 581.919 114.325 580.182 Q115.228 578.423 115.228 576.733 Q115.228 573.979 113.283 572.243 Q111.362 570.507 108.26 570.507 Q106.061 570.507 103.608 571.27 Q101.177 572.034 98.3993 573.585 L98.3993 568.863 Q101.223 567.729 103.677 567.15 Q106.131 566.571 108.168 566.571 Q113.538 566.571 116.733 569.257 Q119.927 571.942 119.927 576.432 Q119.927 578.562 119.117 580.483 Q118.33 582.381 116.223 584.974 Q115.645 585.645 112.543 588.863 Q109.441 592.057 103.793 597.821 Z" fill="#000000" fill-rule="nonzero" fill-opacity="1" /><path clip-path="url(#clip110)" d="M63.5847 155.549 Q59.9736 155.549 58.1449 159.114 Q56.3393 162.656 56.3393 169.785 Q56.3393 176.892 58.1449 180.456 Q59.9736 183.998 63.5847 183.998 Q67.2189 183.998 69.0244 180.456 Q70.8531 176.892 70.8531 169.785 Q70.8531 162.656 69.0244 159.114 Q67.2189 155.549 63.5847 155.549 M63.5847 151.846 Q69.3948 151.846 72.4503 156.452 Q75.529 161.035 75.529 169.785 Q75.529 178.512 72.4503 183.119 Q69.3948 187.702 63.5847 187.702 Q57.7745 187.702 54.6958 183.119 Q51.6403 178.512 51.6403 169.785 Q51.6403 161.035 54.6958 156.452 Q57.7745 151.846 63.5847 151.846 Z" fill="#000000" fill-rule="nonzero" fill-opacity="1" /><path clip-path="url(#clip110)" d="M83.7466 181.151 L88.6308 181.151 L88.6308 187.031 L83.7466 187.031 L83.7466 181.151 Z" fill="#000000" fill-rule="nonzero" fill-opacity="1" /><path clip-path="url(#clip110)" d="M112.983 168.396 Q116.339 169.114 118.214 171.382 Q120.112 173.651 120.112 176.984 Q120.112 182.1 116.594 184.901 Q113.075 187.702 106.594 187.702 Q104.418 187.702 102.103 187.262 Q99.8113 186.845 97.3576 185.989 L97.3576 181.475 Q99.3021 182.609 101.617 183.188 Q103.932 183.767 106.455 183.767 Q110.853 183.767 113.145 182.031 Q115.459 180.294 115.459 176.984 Q115.459 173.929 113.307 172.216 Q111.177 170.48 107.358 170.48 L103.33 170.48 L103.33 166.637 L107.543 166.637 Q110.992 166.637 112.82 165.271 Q114.649 163.883 114.649 161.29 Q114.649 158.628 112.751 157.216 Q110.876 155.781 107.358 155.781 Q105.436 155.781 103.237 156.197 Q101.038 156.614 98.3993 157.494 L98.3993 153.327 Q101.061 152.586 103.376 152.216 Q105.714 151.846 107.774 151.846 Q113.098 151.846 116.2 154.276 Q119.302 156.683 119.302 160.804 Q119.302 163.674 117.658 165.665 Q116.015 167.632 112.983 168.396 Z" fill="#000000" fill-rule="nonzero" fill-opacity="1" /><polyline clip-path="url(#clip112)" style="stroke:#009af9; stroke-linecap:round; stroke-linejoin:round; stroke-width:8; stroke-opacity:1; fill:none" points="156.112,584.476 158.311,576.132 160.51,567.703 162.709,559.19 164.907,550.591 167.106,541.906 169.305,533.133 171.504,524.272 173.703,515.322 175.902,506.282 178.101,497.15 180.299,487.927 182.498,478.612 184.697,469.202 186.896,459.698 189.095,450.098 191.294,440.402 193.492,430.608 195.691,420.715 197.89,410.723 200.089,400.631 202.288,390.437 204.487,380.14 206.686,369.74 208.884,359.235 211.083,348.625 213.282,337.907 215.481,327.082 217.68,316.148 219.879,305.104 222.077,293.949 224.276,282.682 226.475,271.301 228.674,259.806 230.873,248.195 233.072,236.468 235.27,224.622 237.469,212.657 239.668,200.572 241.867,188.365 244.066,176.036 246.265,163.582 248.464,151.004 250.662,138.298 252.861,125.465 255.06,112.503 257.259,99.4101 259.458,86.1857 261.657,743.378 263.855,736.632 266.054,729.818 268.253,722.936 270.452,715.984 272.651,708.963 274.85,701.871 277.048,694.707 279.247,687.472 281.446,680.163 283.645,672.782 285.844,665.325 288.043,657.794 290.242,650.187 292.44,642.504 294.639,634.743 296.838,626.904 299.037,618.987 301.236,610.99 303.435,602.912 305.633,594.753 307.832,586.512 310.031,578.188 312.23,569.78 314.429,561.287 316.628,552.709 318.826,544.045 321.025,535.294 323.224,526.455 325.423,517.527 327.622,508.508 329.821,499.4 332.02,490.199 334.218,480.906 336.417,471.52 338.616,462.039 340.815,452.463 343.014,442.79 345.213,433.02 347.411,423.152 349.61,413.184 351.809,403.117 354.008,392.948 356.207,382.676 358.406,372.302 360.604,361.823 362.803,351.238 365.002,340.547 367.201,329.749 369.4,318.842 371.599,307.825 373.798,296.697 375.996,285.458 378.195,274.105 380.394,262.638 382.593,251.055 384.792,239.357 386.991,227.54 389.189,215.605 391.388,808.739 393.587,802.65 395.786,796.501 397.985,790.289 400.184,784.015 402.382,777.678 404.581,1092.6 406.78,1089.37 408.979,1086.1 411.178,1082.81 413.377,1079.48 415.576,1076.11 417.774,1072.71 419.973,1069.28 422.172,1065.81 424.371,1062.31 426.57,1058.77 428.769,1055.2 430.967,1051.59 433.166,1047.95 435.365,1044.26 437.564,1227.24 439.763,1225.36 441.962,1223.46 444.161,1221.55 446.359,1219.61 448.558,1217.65 450.757,1215.68 452.956,1213.69 455.155,1312.8 457.354,1311.78 459.552,1310.75 461.751,1309.72 463.95,1308.67 466.149,1307.61 468.348,1306.54 470.547,1305.46 472.745,1304.37 474.944,1303.27 477.143,1302.15 479.342,1301.03 481.541,1299.89 483.74,1298.75 485.939,1297.59 488.137,1296.42 490.336,1295.23 492.535,1353.98 494.734,1353.38 496.933,1352.77 499.132,1352.16 501.33,1351.54 503.529,1350.91 505.728,1350.27 507.927,1349.63 510.126,1348.99 512.325,1348.33 514.523,1347.67 516.722,1347.01 518.921,1380.13 521.12,1379.79 523.319,1379.45 525.518,1379.1 527.717,1378.75 529.915,1378.4 532.114,1378.04 534.313,1377.68 536.512,1377.31 538.711,1376.94 540.91,1376.57 543.108,1376.2 545.307,1375.82 547.506,1375.43 549.705,1375.05 551.904,1374.66 554.103,1374.26 556.301,1373.86 558.5,1373.46 560.699,1373.05 562.898,1372.64 565.097,1372.22 567.296,1371.8 569.495,1371.38 571.693,1370.95 573.892,1370.52 576.091,1370.08 578.29,1369.64 580.489,1369.2 582.688,1368.75 584.886,1368.29 587.085,1367.83 589.284,1367.37 591.483,1366.9 593.682,1366.43 595.881,1365.95 598.079,1365.47 600.278,1364.98 602.477,1364.49 604.676,1363.99 606.875,1363.49 609.074,1362.98 611.273,1362.47 613.471,1361.95 615.67,1361.43 617.869,1360.9 620.068,1360.37 622.267,1359.83 624.466,1359.28 626.664,1358.73 628.863,1358.18 631.062,1357.62 633.261,1357.05 635.46,1356.48 637.659,1355.9 639.858,1355.32 642.056,1354.73 644.255,1354.13 646.454,1353.53 648.653,1352.92 650.852,1352.31 653.051,1351.69 655.249,1351.06 657.448,1350.43 659.647,1349.79 661.846,1349.15 664.045,1348.49 666.244,1347.84 668.442,1347.17 670.641,1346.5 672.84,1345.82 675.039,1345.14 677.238,1344.44 679.437,1343.74 681.636,1343.04 683.834,1342.33 686.033,1341.6 688.232,1340.88 690.431,1340.14 692.63,1339.4 694.829,1338.65 697.027,1337.89 699.226,1337.13 701.425,1336.36 703.624,1335.57 705.823,1334.79 708.022,1333.99 710.22,1333.19 712.419,1332.37 714.618,1331.55 716.817,1330.72 719.016,1329.89 721.215,1329.04 723.414,1328.19 725.612,1327.33 727.811,1326.45 730.01,1325.57 732.209,1324.69 734.408,1323.79 736.607,1322.88 738.805,1321.97 741.004,1321.04 743.203,1320.11 745.402,1319.16 747.601,1318.21 749.8,1317.25 751.998,1316.27 754.197,1315.29 756.396,1314.3 758.595,1313.3 760.794,1312.28 762.993,1311.26 765.192,1310.23 767.39,1309.18 769.589,1308.13 771.788,1307.07 773.987,1305.99 776.186,1304.91 778.385,1303.81 780.583,1302.7 782.782,1301.58 784.981,1300.45 787.18,1299.31 789.379,1298.16 791.578,1296.99 793.776,1295.82 795.975,1294.63 798.174,1293.43 800.373,1292.22 802.572,1290.99 804.771,1289.75 806.97,1288.5 809.168,1287.24 811.367,1285.97 813.566,1284.68 815.765,1283.38 817.964,1282.07 820.163,1280.74 822.361,1279.4 824.56,1278.05 826.759,1276.68 828.958,1275.3 831.157,1273.91 833.356,1272.5 835.554,1271.07 837.753,1269.64 839.952,1268.18 842.151,1266.72 844.35,1339.58 846.549,1338.83 848.748,1338.08 850.946,1337.32 853.145,1336.55 855.344,1335.77 857.543,1334.98 859.742,1334.19 861.941,1333.38 864.139,1332.57 866.338,1331.76 868.537,1330.93 870.736,1330.09 872.935,1329.25 875.134,1328.4 877.333,1327.54 879.531,1326.67 881.73,1325.79 883.929,1324.9 886.128,1324.01 888.327,1368.52 890.526,1368.06 892.724,1367.6 894.923,1367.13 897.122,1366.66 899.321,1366.19 901.52,1365.71 903.719,1365.22 905.917,1364.73 908.116,1364.24 910.315,1363.74 912.514,1363.23 914.713,1362.72 916.912,1362.2 919.111,1361.68 921.309,1361.16 923.508,1360.63 925.707,1360.09 927.906,1359.55 930.105,1359 932.304,1358.45 934.502,1357.89 936.701,1357.33 938.9,1356.76 941.099,1356.18 943.298,1355.6 945.497,1355.02 947.695,1354.42 949.894,1353.83 952.093,1353.22 954.292,1352.61 956.491,1351.99 958.69,1351.37 960.889,1350.74 963.087,1350.11 965.286,1349.46 967.485,1348.81 969.684,1348.16 971.883,1347.5 974.082,1346.83 976.28,1346.15 978.479,1345.47 980.678,1344.78 982.877,1344.09 985.076,1343.39 987.275,1342.68 989.473,1341.96 991.672,1341.24 993.871,1340.5 996.07,1339.77 998.269,1339.02 1000.47,1338.27 1002.67,1337.5 1004.87,1336.74 1007.06,1335.96 1009.26,1335.17 1011.46,1334.38 1013.66,1333.58 1015.86,1332.77 1018.06,1331.96 1020.26,1331.13 1022.46,1330.3 1024.65,1329.46 1026.85,1328.61 1029.05,1327.75 1031.25,1326.88 1033.45,1326.01 1035.65,1325.12 1037.85,1324.23 1040.05,1323.33 1042.25,1322.42 1044.44,1321.5 1046.64,1320.57 1048.84,1319.63 1051.04,1318.68 1053.24,1317.72 1055.44,1316.75 1057.64,1315.77 1059.84,1314.79 1062.04,1363.86 1064.23,1363.35 1066.43,1362.85 1068.63,1362.33 1070.83,1361.81 1073.03,1361.29 1075.23,1360.76 1077.43,1360.22 1079.63,1359.68 1081.82,1359.14 1084.02,1358.59 1086.22,1358.03 1088.42,1357.47 1090.62,1356.9 1092.82,1356.33 1095.02,1355.75 1097.22,1355.16 1099.42,1354.57 1101.61,1353.97 1103.81,1353.37 1106.01,1352.76 1108.21,1352.15 1110.41,1351.52 1112.61,1350.9 1114.81,1350.26 1117.01,1349.62 1119.21,1348.97 1121.4,1348.32 1123.6,1347.66 1125.8,1346.99 1128,1346.32 1130.2,1345.64 1132.4,1344.95 1134.6,1344.26 1136.8,1343.56 1138.99,1342.85 1141.19,1342.14 1143.39,1341.41 1145.59,1340.68 1147.79,1339.95 1149.99,1339.2 1152.19,1338.45 1154.39,1337.69 1156.59,1336.93 1158.78,1336.15 1160.98,1335.37 1163.18,1334.58 1165.38,1333.78 1167.58,1332.97 1169.78,1332.16 1171.98,1331.34 1174.18,1330.5 1176.38,1329.67 1178.57,1328.82 1180.77,1327.96 1182.97,1327.1 1185.17,1326.22 1187.37,1325.34 1189.57,1324.45 1191.77,1323.55 1193.97,1322.64 1196.16,1321.72 1198.36,1320.79 1200.56,1319.86 1202.76,1318.91 1204.96,1317.96 1207.16,1316.99 1209.36,1316.01 1211.56,1315.03 1213.76,1314.03 1215.95,1313.03 1218.15,1312.01 1220.35,1310.99 1222.55,1309.95 1224.75,1308.91 1226.95,1307.85 1229.15,1306.78 1231.35,1305.71 1233.55,1304.62 1235.74,1303.52 1237.94,1302.41 1240.14,1301.28 1242.34,1357.04 1244.54,1356.47 1246.74,1355.89 1248.94,1355.31 1251.14,1354.72 1253.33,1354.12 1255.53,1353.52 1257.73,1352.91 1259.93,1352.3 1262.13,1351.68 1264.33,1351.05 1266.53,1350.42 1268.73,1349.78 1270.93,1349.13 1273.12,1348.48 1275.32,1347.82 1277.52,1347.16 1279.72,1346.49 1281.92,1345.81 1284.12,1345.12 1286.32,1344.43 1288.52,1343.73 1290.71,1343.03 1292.91,1342.31 1295.11,1341.59 1297.31,1340.86 1299.51,1377.03 1301.71,1376.66 1303.91,1376.28 1306.11,1375.9 1308.31,1375.52 1310.5,1375.13 1312.7,1374.74 1314.9,1374.35 1317.1,1373.95 1319.3,1373.55 1321.5,1373.14 1323.7,1372.73 1325.9,1372.32 1328.1,1371.9 1330.29,1371.48 1332.49,1371.05 1334.69,1370.62 1336.89,1370.18 1339.09,1369.74 1341.29,1369.3 1343.49,1368.85 1345.69,1368.4 1347.88,1367.94 1350.08,1367.48 1352.28,1367.01 1354.48,1366.54 1356.68,1366.06 1358.88,1365.58 1361.08,1365.09 1363.28,1364.6 1365.48,1364.1 1367.67,1363.6 1369.87,1363.1 1372.07,1362.58 1374.27,1362.07 1376.47,1361.55 1378.67,1361.02 1380.87,1360.49 1383.07,1359.95 1385.27,1359.41 1387.46,1358.86 1389.66,1358.3 1391.86,1357.74 1394.06,1357.18 1396.26,1356.61 1398.46,1356.03 1400.66,1355.45 1402.86,1354.86 1405.05,1354.27 1407.25,1353.67 1409.45,1353.06 1411.65,1352.45 1413.85,1351.83 1416.05,1351.2 1418.25,1350.57 1420.45,1349.94 1422.65,1349.29 1424.84,1348.64 1427.04,1347.99 1429.24,1347.32 1431.44,1346.65 1433.64,1345.98 1435.84,1345.29 1438.04,1344.6 1440.24,1343.9 1442.44,1343.2 1444.63,1342.49 1446.83,1341.77 1449.03,1341.04 1451.23,1340.31 1453.43,1339.57 1455.63,1338.82 1457.83,1338.07 1460.03,1337.3 1462.22,1336.53 1464.42,1335.75 1466.62,1334.97 1468.82,1334.17 1471.02,1333.37 1473.22,1332.56 1475.42,1331.74 1477.62,1330.91 1479.82,1330.08 1482.01,1329.24 1484.21,1328.38 1486.41,1327.52 1488.61,1326.65 1490.81,1325.78 1493.01,1324.89 1495.21,1323.99 1497.41,1323.09 1499.6,1322.17 1501.8,1321.25 1504,1320.32 1506.2,1319.38 1508.4,1318.43 1510.6,1317.46 1512.8,1316.49 1515,1315.51 1517.2,1314.52 1519.39,1313.52 1521.59,1312.51 1523.79,1311.49 1525.99,1310.46 1528.19,1309.42 1530.39,1308.37 1532.59,1307.31 1534.79,1306.24 1536.99,1305.15 1539.18,1304.06 1541.38,1302.95 1543.58,1301.84 1545.78,1300.71 1547.98,1299.57 1550.18,1298.42 1552.38,1297.26 1554.58,1296.08 1556.77,1294.9 1558.97,1293.7 1561.17,1292.49 1563.37,1291.27 1565.57,1290.04 1567.77,1288.79 1569.97,1287.53 1572.17,1286.26 1574.37,1284.98 1576.56,1283.68 1578.76,1282.37 1580.96,1281.04 1583.16,1279.71 1585.36,1278.36 1587.56,1276.99 1589.76,1275.61 1591.96,1274.22 1594.16,1272.82 1596.35,1271.4 1598.55,1269.96 1600.75,1268.52 1602.95,1267.05 1605.15,1265.58 1607.35,1264.08 1609.55,1262.58 1611.75,1261.05 1613.94,1259.51 1616.14,1257.96 1618.34,1256.39 1620.54,1254.81 1622.74,1253.21 1624.94,1251.59 1627.14,1249.96 1629.34,1248.31 1631.54,1246.64 1633.73,1244.96 1635.93,1243.26 1638.13,1241.54 1640.33,1239.81 1642.53,1238.05 1644.73,1236.29 1646.93,1234.5 1649.13,1232.69 1651.33,1230.87 1653.52,1229.03 1655.72,1227.17 1657.92,1225.29 1660.12,1223.39 1662.32,1221.48 1664.52,1219.54 1666.72,1217.58 1668.92,1215.61 1671.11,1213.61 1673.31,1211.6 1675.51,1209.56 1677.71,1207.51 1679.91,1205.43 1682.11,1203.33 1684.31,1201.22 1686.51,1199.08 1688.71,1196.91 1690.9,1194.73 1693.1,1192.53 1695.3,1190.3 1697.5,1188.05 1699.7,1185.78 1701.9,1183.48 1704.1,1181.16 1706.3,1178.82 1708.5,1176.46 1710.69,1174.07 1712.89,1171.65 1715.09,1169.22 1717.29,1166.75 1719.49,1164.27 1721.69,1161.75 1723.89,1159.22 1726.09,1156.65 1728.28,1154.07 1730.48,1151.45 1732.68,1148.81 1734.88,1146.14 1737.08,1143.45 1739.28,1140.73 1741.48,1137.98 1743.68,1135.2 1745.88,1132.4 1748.07,1129.57 1750.27,1126.71 1752.47,1123.82 1754.67,1120.9 1756.87,1117.95 1759.07,1114.97 1761.27,1111.97 1763.47,1108.93 1765.66,1105.86 1767.86,1102.76 1770.06,1099.63 1772.26,1096.47 1774.46,1093.27 1776.66,1251.99 1778.86,1250.36 1781.06,1248.71 1783.26,1247.05 1785.45,1245.37 1787.65,1243.68 1789.85,1241.96 1792.05,1240.23 1794.25,1238.49 1796.45,1236.72 1798.65,1234.94 1800.85,1233.14 1803.05,1231.32 1805.24,1229.48 1807.44,1227.63 1809.64,1225.75 1811.84,1223.86 1814.04,1221.95 1816.24,1220.02 1818.44,1218.07 1820.64,1216.09 1822.83,1214.1 1825.03,1212.09 1827.23,1210.06 1829.43,1208.01 1831.63,1309.93 1833.83,1308.89 1836.03,1307.83 1838.23,1306.76 1840.43,1305.69 1842.62,1304.6 1844.82,1303.5 1847.02,1302.39 1849.22,1301.26 1851.42,1300.13 1853.62,1298.99 1855.82,1297.83 1858.02,1296.66 1860.22,1295.48 1862.41,1294.29 1864.61,1293.09 1866.81,1291.87 1869.01,1290.64 1871.21,1289.4 1873.41,1288.15 1875.61,1286.88 1877.81,1285.61 1880,1284.32 1882.2,1283.01 1884.4,1281.69 1886.6,1280.36 1888.8,1279.02 1891,1277.66 1893.2,1276.29 1895.4,1274.91 1897.6,1273.51 1899.79,1272.1 1901.99,1270.67 1904.19,1269.23 1906.39,1267.77 1908.59,1266.3 1910.79,1264.82 1912.99,1263.32 1915.19,1261.8 1917.39,1260.27 1919.58,1258.73 1921.78,1257.16 1923.98,1255.59 1926.18,1253.99 1928.38,1252.39 1930.58,1250.76 1932.78,1249.12 1934.98,1247.46 1937.17,1245.79 1939.37,1244.09 1941.57,1242.39 1943.77,1240.66 1945.97,1238.92 1948.17,1237.16 1950.37,1235.38 1952.57,1233.58 1954.77,1231.77 1956.96,1229.94 1959.16,1228.08 1961.36,1226.21 1963.56,1224.33 1965.76,1222.42 1967.96,1220.49 1970.16,1218.55 1972.36,1216.58 1974.55,1214.6 1976.75,1212.59 1978.95,1210.56 1981.15,1208.52 1983.35,1206.45 1985.55,1204.36 1987.75,1202.26 1989.95,1200.13 1992.15,1197.98 1994.34,1195.8 1996.54,1193.61 1998.74,1191.39 2000.94,1189.15 2003.14,1186.89 2005.34,1184.61 2007.54,1182.3 2009.74,1179.97 2011.94,1177.62 2014.13,1175.24 2016.33,1172.84 2018.53,1170.41 2020.73,1167.96 2022.93,1165.49 2025.13,1162.99 2027.33,1160.47 2029.53,1157.92 2031.72,1155.34 2033.92,1152.74 2036.12,1150.11 2038.32,1147.46 2040.52,1144.78 2042.72,1142.07 2044.92,1139.33 2047.12,1136.57 2049.32,1133.78 2051.51,1272.44 2053.71,1271.02 2055.91,1269.58 2058.11,1268.13 2060.31,1266.66 2062.51,1265.18 2064.71,1263.69 2066.91,1262.18 2069.11,1260.65 2071.3,1259.11 2073.5,1257.55 2075.7,1255.98 2077.9,1254.39 2080.1,1252.78 2082.3,1251.16 2084.5,1249.52 2086.7,1247.87 2088.89,1246.2 2091.09,1244.51 2093.29,1242.81 2095.49,1241.09 2097.69,1239.35 2099.89,1237.59 2102.09,1235.82 2104.29,1234.02 2106.49,1232.21 2108.68,1230.39 2110.88,1228.54 2113.08,1226.68 2115.28,1224.79 2117.48,1222.89 2119.68,1220.97 2121.88,1219.03 2124.08,1217.06 2126.28,1215.08 2128.47,1213.08 2130.67,1211.06 2132.87,1209.02 2135.07,1206.96 2137.27,1204.88 2139.47,1202.78 2141.67,1200.65 2143.87,1198.51 2146.06,1196.34 2148.26,1194.15 2150.46,1191.94 2152.66,1189.71 2154.86,1187.45 2157.06,1185.17 2159.26,1182.87 2161.46,1180.55 2163.66,1178.2 2165.85,1175.83 2168.05,1173.43 2170.25,1171.01 2172.45,1168.57 2174.65,1166.1 2176.85,1163.61 2179.05,1287.51 2181.25,1286.24 2183.45,1284.95 2185.64,1283.65 2187.84,1282.34 2190.04,1281.02 2192.24,1279.68 2194.44,1278.33 2196.64,1276.97 2198.84,1275.59 2201.04,1274.2 2203.23,1272.79 2205.43,1271.37 2207.63,1269.94 2209.83,1268.49 2212.03,1267.03 2214.23,1265.55 2216.43,1264.06 2218.63,1262.55 2220.83,1261.03 2223.02,1259.49 2225.22,1257.93 2227.42,1256.36 2229.62,1254.78 2231.82,1253.18 2234.02,1251.56 2236.22,1249.93 2238.42,1248.28 2240.61,1246.61 2242.81,1244.93 2245.01,1243.23 2247.21,1241.51 2249.41,1239.78 2251.61,1238.02 2253.81,1236.25 2256.01,1234.47 2258.21,1232.66 2260.4,1230.84 2262.6,1228.99 2264.8,1227.13 2267,1225.26 2269.2,1223.36 2271.4,1221.44 2273.6,1219.5 2275.8,1217.55 2278,1215.57 2280.19,1213.58 2282.39,1211.56 2284.59,1209.52 2286.79,1207.47 2288.99,1205.39 2291.19,1203.29 2293.39,1201.17 2295.59,1199.03 2297.78,1196.87 2299.98,1194.69 2302.18,1303.21 2304.38,1302.09 2306.58,1300.97 2308.78,1299.83 2310.98,1298.68 2313.18,1297.52 2315.38,1355.14 2317.57,1384.24 2319.77,1383.94 2321.97,1383.64 2324.17,1383.33 2326.37,1383.03 2328.57,1382.71 2330.77,1382.4 2332.97,1382.08 2335.17,1381.76 2337.36,1381.44 2339.56,1381.11 2341.76,1380.78 2343.96,1380.45 2346.16,1380.11 2348.36,1379.77 2350.56,1379.43 2352.76,1379.08 "/>
<path clip-path="url(#clip110)" d="M1970.77 196.789 L2279.53 196.789 L2279.53 93.1086 L1970.77 93.1086  Z" fill="#ffffff" fill-rule="evenodd" fill-opacity="1"/>
<polyline clip-path="url(#clip110)" style="stroke:#000000; stroke-linecap:round; stroke-linejoin:round; stroke-width:4; stroke-opacity:1; fill:none" points="1970.77,196.789 2279.53,196.789 2279.53,93.1086 1970.77,93.1086 1970.77,196.789 "/>
<polyline clip-path="url(#clip110)" style="stroke:#009af9; stroke-linecap:round; stroke-linejoin:round; stroke-width:8; stroke-opacity:1; fill:none" points="1995.18,144.949 2141.62,144.949 "/>
<path clip-path="url(#clip110)" d="M2166.03 151.997 L2166.03 136.303 L2170.29 136.303 L2170.29 151.835 Q2170.29 155.516 2171.72 157.368 Q2173.16 159.196 2176.03 159.196 Q2179.48 159.196 2181.47 156.997 Q2183.48 154.798 2183.48 151.002 L2183.48 136.303 L2187.74 136.303 L2187.74 162.229 L2183.48 162.229 L2183.48 158.247 Q2181.93 160.608 2179.87 161.766 Q2177.84 162.9 2175.13 162.9 Q2170.66 162.9 2168.35 160.122 Q2166.03 157.344 2166.03 151.997 M2176.75 135.678 L2176.75 135.678 Z" fill="#000000" fill-rule="nonzero" fill-opacity="1" /><path clip-path="url(#clip110)" d="M2196.12 126.21 L2205.94 126.21 L2205.94 129.52 L2200.38 129.52 L2200.38 165.168 L2205.94 165.168 L2205.94 168.479 L2196.12 168.479 L2196.12 126.21 Z" fill="#000000" fill-rule="nonzero" fill-opacity="1" /><path clip-path="url(#clip110)" d="M2216.42 158.293 L2224.06 158.293 L2224.06 131.928 L2215.75 133.595 L2215.75 129.335 L2224.02 127.669 L2228.69 127.669 L2228.69 158.293 L2236.33 158.293 L2236.33 162.229 L2216.42 162.229 L2216.42 158.293 Z" fill="#000000" fill-rule="nonzero" fill-opacity="1" /><path clip-path="url(#clip110)" d="M2255.13 126.21 L2255.13 168.479 L2245.31 168.479 L2245.31 165.168 L2250.84 165.168 L2250.84 129.52 L2245.31 129.52 L2245.31 126.21 L2255.13 126.21 Z" fill="#000000" fill-rule="nonzero" fill-opacity="1" /></svg>
