<?xml version="1.0" encoding="utf-8"?>
<svg xmlns="http://www.w3.org/2000/svg" xmlns:xlink="http://www.w3.org/1999/xlink" width="600" height="400" viewBox="0 0 2400 1600">
<defs>
  <clipPath id="clip290">
    <rect x="0" y="0" width="2400" height="1600"/>
  </clipPath>
</defs>
<path clip-path="url(#clip290)" d="M0 1600 L2400 1600 L2400 0 L0 0  Z" fill="#ffffff" fill-rule="evenodd" fill-opacity="1"/>
<defs>
  <clipPath id="clip291">
    <rect x="480" y="0" width="1681" height="1600"/>
  </clipPath>
</defs>
<path clip-path="url(#clip290)" d="M147.478 1423.18 L2352.76 1423.18 L2352.76 47.2441 L147.478 47.2441  Z" fill="#ffffff" fill-rule="evenodd" fill-opacity="1"/>
<defs>
  <clipPath id="clip292">
    <rect x="147" y="47" width="2206" height="1377"/>
  </clipPath>
</defs>
<polyline clip-path="url(#clip292)" style="stroke:#000000; stroke-linecap:round; stroke-linejoin:round; stroke-width:2; stroke-opacity:0.1; fill:none" points="147.478,1423.18 147.478,47.2441 "/>
<polyline clip-path="url(#clip292)" style="stroke:#000000; stroke-linecap:round; stroke-linejoin:round; stroke-width:2; stroke-opacity:0.1; fill:none" points="588.534,1423.18 588.534,47.2441 "/>
<polyline clip-path="url(#clip292)" style="stroke:#000000; stroke-linecap:round; stroke-linejoin:round; stroke-width:2; stroke-opacity:0.1; fill:none" points="1029.59,1423.18 1029.59,47.2441 "/>
<polyline clip-path="url(#clip292)" style="stroke:#000000; stroke-linecap:round; stroke-linejoin:round; stroke-width:2; stroke-opacity:0.1; fill:none" points="1470.64,1423.18 1470.64,47.2441 "/>
<polyline clip-path="url(#clip292)" style="stroke:#000000; stroke-linecap:round; stroke-linejoin:round; stroke-width:2; stroke-opacity:0.1; fill:none" points="1911.7,1423.18 1911.7,47.2441 "/>
<polyline clip-path="url(#clip292)" style="stroke:#000000; stroke-linecap:round; stroke-linejoin:round; stroke-width:2; stroke-opacity:0.1; fill:none" points="2352.76,1423.18 2352.76,47.2441 "/>
<polyline clip-path="url(#clip290)" style="stroke:#000000; stroke-linecap:round; stroke-linejoin:round; stroke-width:4; stroke-opacity:1; fill:none" points="147.478,1423.18 2352.76,1423.18 "/>
<polyline clip-path="url(#clip290)" style="stroke:#000000; stroke-linecap:round; stroke-linejoin:round; stroke-width:4; stroke-opacity:1; fill:none" points="147.478,1423.18 147.478,1404.28 "/>
<polyline clip-path="url(#clip290)" style="stroke:#000000; stroke-linecap:round; stroke-linejoin:round; stroke-width:4; stroke-opacity:1; fill:none" points="588.534,1423.18 588.534,1404.28 "/>
<polyline clip-path="url(#clip290)" style="stroke:#000000; stroke-linecap:round; stroke-linejoin:round; stroke-width:4; stroke-opacity:1; fill:none" points="1029.59,1423.18 1029.59,1404.28 "/>
<polyline clip-path="url(#clip290)" style="stroke:#000000; stroke-linecap:round; stroke-linejoin:round; stroke-width:4; stroke-opacity:1; fill:none" points="1470.64,1423.18 1470.64,1404.28 "/>
<polyline clip-path="url(#clip290)" style="stroke:#000000; stroke-linecap:round; stroke-linejoin:round; stroke-width:4; stroke-opacity:1; fill:none" points="1911.7,1423.18 1911.7,1404.28 "/>
<polyline clip-path="url(#clip290)" style="stroke:#000000; stroke-linecap:round; stroke-linejoin:round; stroke-width:4; stroke-opacity:1; fill:none" points="2352.76,1423.18 2352.76,1404.28 "/>
<path clip-path="url(#clip290)" d="M147.478 1454.1 Q143.867 1454.1 142.038 1457.66 Q140.233 1461.2 140.233 1468.33 Q140.233 1475.44 142.038 1479.01 Q143.867 1482.55 147.478 1482.55 Q151.112 1482.55 152.918 1479.01 Q154.746 1475.44 154.746 1468.33 Q154.746 1461.2 152.918 1457.66 Q151.112 1454.1 147.478 1454.1 M147.478 1450.39 Q153.288 1450.39 156.344 1455 Q159.422 1459.58 159.422 1468.33 Q159.422 1477.06 156.344 1481.67 Q153.288 1486.25 147.478 1486.25 Q141.668 1486.25 138.589 1481.67 Q135.534 1477.06 135.534 1468.33 Q135.534 1459.58 138.589 1455 Q141.668 1450.39 147.478 1450.39 Z" fill="#000000" fill-rule="nonzero" fill-opacity="1" /><path clip-path="url(#clip290)" d="M583.186 1481.64 L599.506 1481.64 L599.506 1485.58 L577.561 1485.58 L577.561 1481.64 Q580.223 1478.89 584.807 1474.26 Q589.413 1469.61 590.594 1468.27 Q592.839 1465.74 593.719 1464.01 Q594.621 1462.25 594.621 1460.56 Q594.621 1457.8 592.677 1456.07 Q590.756 1454.33 587.654 1454.33 Q585.455 1454.33 583.001 1455.09 Q580.571 1455.86 577.793 1457.41 L577.793 1452.69 Q580.617 1451.55 583.071 1450.97 Q585.524 1450.39 587.561 1450.39 Q592.932 1450.39 596.126 1453.08 Q599.32 1455.77 599.32 1460.26 Q599.32 1462.39 598.51 1464.31 Q597.723 1466.2 595.617 1468.8 Q595.038 1469.47 591.936 1472.69 Q588.834 1475.88 583.186 1481.64 Z" fill="#000000" fill-rule="nonzero" fill-opacity="1" /><path clip-path="url(#clip290)" d="M1032.6 1455.09 L1020.79 1473.54 L1032.6 1473.54 L1032.6 1455.09 M1031.37 1451.02 L1037.25 1451.02 L1037.25 1473.54 L1042.18 1473.54 L1042.18 1477.43 L1037.25 1477.43 L1037.25 1485.58 L1032.6 1485.58 L1032.6 1477.43 L1017 1477.43 L1017 1472.92 L1031.37 1451.02 Z" fill="#000000" fill-rule="nonzero" fill-opacity="1" /><path clip-path="url(#clip290)" d="M1471.05 1466.44 Q1467.9 1466.44 1466.05 1468.59 Q1464.22 1470.74 1464.22 1474.49 Q1464.22 1478.22 1466.05 1480.39 Q1467.9 1482.55 1471.05 1482.55 Q1474.2 1482.55 1476.03 1480.39 Q1477.88 1478.22 1477.88 1474.49 Q1477.88 1470.74 1476.03 1468.59 Q1474.2 1466.44 1471.05 1466.44 M1480.33 1451.78 L1480.33 1456.04 Q1478.57 1455.21 1476.77 1454.77 Q1474.98 1454.33 1473.23 1454.33 Q1468.6 1454.33 1466.14 1457.45 Q1463.71 1460.58 1463.36 1466.9 Q1464.73 1464.89 1466.79 1463.82 Q1468.85 1462.73 1471.33 1462.73 Q1476.54 1462.73 1479.55 1465.9 Q1482.58 1469.05 1482.58 1474.49 Q1482.58 1479.82 1479.43 1483.03 Q1476.28 1486.25 1471.05 1486.25 Q1465.05 1486.25 1461.88 1481.67 Q1458.71 1477.06 1458.71 1468.33 Q1458.71 1460.14 1462.6 1455.28 Q1466.49 1450.39 1473.04 1450.39 Q1474.8 1450.39 1476.58 1450.74 Q1478.39 1451.09 1480.33 1451.78 Z" fill="#000000" fill-rule="nonzero" fill-opacity="1" /><path clip-path="url(#clip290)" d="M1911.7 1469.17 Q1908.37 1469.17 1906.45 1470.95 Q1904.55 1472.73 1904.55 1475.86 Q1904.55 1478.98 1906.45 1480.77 Q1908.37 1482.55 1911.7 1482.55 Q1915.03 1482.55 1916.95 1480.77 Q1918.88 1478.96 1918.88 1475.86 Q1918.88 1472.73 1916.95 1470.95 Q1915.06 1469.17 1911.7 1469.17 M1907.02 1467.18 Q1904.02 1466.44 1902.33 1464.38 Q1900.66 1462.32 1900.66 1459.35 Q1900.66 1455.21 1903.6 1452.8 Q1906.56 1450.39 1911.7 1450.39 Q1916.86 1450.39 1919.8 1452.8 Q1922.74 1455.21 1922.74 1459.35 Q1922.74 1462.32 1921.05 1464.38 Q1919.39 1466.44 1916.4 1467.18 Q1919.78 1467.96 1921.65 1470.26 Q1923.55 1472.55 1923.55 1475.86 Q1923.55 1480.88 1920.47 1483.57 Q1917.42 1486.25 1911.7 1486.25 Q1905.98 1486.25 1902.9 1483.57 Q1899.85 1480.88 1899.85 1475.86 Q1899.85 1472.55 1901.75 1470.26 Q1903.64 1467.96 1907.02 1467.18 M1905.31 1459.79 Q1905.31 1462.48 1906.98 1463.98 Q1908.67 1465.49 1911.7 1465.49 Q1914.71 1465.49 1916.4 1463.98 Q1918.11 1462.48 1918.11 1459.79 Q1918.11 1457.11 1916.4 1455.6 Q1914.71 1454.1 1911.7 1454.1 Q1908.67 1454.1 1906.98 1455.6 Q1905.31 1457.11 1905.31 1459.79 Z" fill="#000000" fill-rule="nonzero" fill-opacity="1" /><path clip-path="url(#clip290)" d="M2327.44 1481.64 L2335.08 1481.64 L2335.08 1455.28 L2326.77 1456.95 L2326.77 1452.69 L2335.04 1451.02 L2339.71 1451.02 L2339.71 1481.64 L2347.35 1481.64 L2347.35 1485.58 L2327.44 1485.58 L2327.44 1481.64 Z" fill="#000000" fill-rule="nonzero" fill-opacity="1" /><path clip-path="url(#clip290)" d="M2366.8 1454.1 Q2363.18 1454.1 2361.36 1457.66 Q2359.55 1461.2 2359.55 1468.33 Q2359.55 1475.44 2361.36 1479.01 Q2363.18 1482.55 2366.8 1482.55 Q2370.43 1482.55 2372.23 1479.01 Q2374.06 1475.44 2374.06 1468.33 Q2374.06 1461.2 2372.23 1457.66 Q2370.43 1454.1 2366.8 1454.1 M2366.8 1450.39 Q2372.61 1450.39 2375.66 1455 Q2378.74 1459.58 2378.74 1468.33 Q2378.74 1477.06 2375.66 1481.67 Q2372.61 1486.25 2366.8 1486.25 Q2360.99 1486.25 2357.91 1481.67 Q2354.85 1477.06 2354.85 1468.33 Q2354.85 1459.58 2357.91 1455 Q2360.99 1450.39 2366.8 1450.39 Z" fill="#000000" fill-rule="nonzero" fill-opacity="1" /><path clip-path="url(#clip290)" d="M1249.18 1522.27 L1249.18 1532.4 L1261.24 1532.4 L1261.24 1536.95 L1249.18 1536.95 L1249.18 1556.3 Q1249.18 1560.66 1250.36 1561.9 Q1251.57 1563.14 1255.23 1563.14 L1261.24 1563.14 L1261.24 1568.04 L1255.23 1568.04 Q1248.45 1568.04 1245.87 1565.53 Q1243.29 1562.98 1243.29 1556.3 L1243.29 1536.95 L1238.99 1536.95 L1238.99 1532.4 L1243.29 1532.4 L1243.29 1522.27 L1249.18 1522.27 Z" fill="#000000" fill-rule="nonzero" fill-opacity="1" /><polyline clip-path="url(#clip292)" style="stroke:#000000; stroke-linecap:round; stroke-linejoin:round; stroke-width:2; stroke-opacity:0.1; fill:none" points="147.478,1319.15 2352.76,1319.15 "/>
<polyline clip-path="url(#clip292)" style="stroke:#000000; stroke-linecap:round; stroke-linejoin:round; stroke-width:2; stroke-opacity:0.1; fill:none" points="147.478,1045.84 2352.76,1045.84 "/>
<polyline clip-path="url(#clip292)" style="stroke:#000000; stroke-linecap:round; stroke-linejoin:round; stroke-width:2; stroke-opacity:0.1; fill:none" points="147.478,772.526 2352.76,772.526 "/>
<polyline clip-path="url(#clip292)" style="stroke:#000000; stroke-linecap:round; stroke-linejoin:round; stroke-width:2; stroke-opacity:0.1; fill:none" points="147.478,499.212 2352.76,499.212 "/>
<polyline clip-path="url(#clip292)" style="stroke:#000000; stroke-linecap:round; stroke-linejoin:round; stroke-width:2; stroke-opacity:0.1; fill:none" points="147.478,225.898 2352.76,225.898 "/>
<polyline clip-path="url(#clip290)" style="stroke:#000000; stroke-linecap:round; stroke-linejoin:round; stroke-width:4; stroke-opacity:1; fill:none" points="147.478,1423.18 147.478,47.2441 "/>
<polyline clip-path="url(#clip290)" style="stroke:#000000; stroke-linecap:round; stroke-linejoin:round; stroke-width:4; stroke-opacity:1; fill:none" points="147.478,1319.15 166.376,1319.15 "/>
<polyline clip-path="url(#clip290)" style="stroke:#000000; stroke-linecap:round; stroke-linejoin:round; stroke-width:4; stroke-opacity:1; fill:none" points="147.478,1045.84 166.376,1045.84 "/>
<polyline clip-path="url(#clip290)" style="stroke:#000000; stroke-linecap:round; stroke-linejoin:round; stroke-width:4; stroke-opacity:1; fill:none" points="147.478,772.526 166.376,772.526 "/>
<polyline clip-path="url(#clip290)" style="stroke:#000000; stroke-linecap:round; stroke-linejoin:round; stroke-width:4; stroke-opacity:1; fill:none" points="147.478,499.212 166.376,499.212 "/>
<polyline clip-path="url(#clip290)" style="stroke:#000000; stroke-linecap:round; stroke-linejoin:round; stroke-width:4; stroke-opacity:1; fill:none" points="147.478,225.898 166.376,225.898 "/>
<path clip-path="url(#clip290)" d="M51.3625 1319.61 L81.0383 1319.61 L81.0383 1323.54 L51.3625 1323.54 L51.3625 1319.61 Z" fill="#000000" fill-rule="nonzero" fill-opacity="1" /><path clip-path="url(#clip290)" d="M95.1586 1332.5 L111.478 1332.5 L111.478 1336.43 L89.5336 1336.43 L89.5336 1332.5 Q92.1956 1329.74 96.7789 1325.11 Q101.385 1320.46 102.566 1319.12 Q104.811 1316.6 105.691 1314.86 Q106.594 1313.1 106.594 1311.41 Q106.594 1308.66 104.649 1306.92 Q102.728 1305.18 99.6261 1305.18 Q97.4271 1305.18 94.9734 1305.95 Q92.5428 1306.71 89.7651 1308.26 L89.7651 1303.54 Q92.5891 1302.41 95.0428 1301.83 Q97.4965 1301.25 99.5335 1301.25 Q104.904 1301.25 108.098 1303.93 Q111.293 1306.62 111.293 1311.11 Q111.293 1313.24 110.483 1315.16 Q109.696 1317.06 107.589 1319.65 Q107.01 1320.32 103.909 1323.54 Q100.807 1326.74 95.1586 1332.5 Z" fill="#000000" fill-rule="nonzero" fill-opacity="1" /><path clip-path="url(#clip290)" d="M50.9921 1046.29 L80.6679 1046.29 L80.6679 1050.23 L50.9921 1050.23 L50.9921 1046.29 Z" fill="#000000" fill-rule="nonzero" fill-opacity="1" /><path clip-path="url(#clip290)" d="M91.5706 1059.19 L99.2095 1059.19 L99.2095 1032.82 L90.8993 1034.49 L90.8993 1030.23 L99.1632 1028.56 L103.839 1028.56 L103.839 1059.19 L111.478 1059.19 L111.478 1063.12 L91.5706 1063.12 L91.5706 1059.19 Z" fill="#000000" fill-rule="nonzero" fill-opacity="1" /><path clip-path="url(#clip290)" d="M99.5335 758.325 Q95.9224 758.325 94.0937 761.89 Q92.2882 765.431 92.2882 772.561 Q92.2882 779.667 94.0937 783.232 Q95.9224 786.774 99.5335 786.774 Q103.168 786.774 104.973 783.232 Q106.802 779.667 106.802 772.561 Q106.802 765.431 104.973 761.89 Q103.168 758.325 99.5335 758.325 M99.5335 754.621 Q105.344 754.621 108.399 759.227 Q111.478 763.811 111.478 772.561 Q111.478 781.288 108.399 785.894 Q105.344 790.477 99.5335 790.477 Q93.7234 790.477 90.6447 785.894 Q87.5892 781.288 87.5892 772.561 Q87.5892 763.811 90.6447 759.227 Q93.7234 754.621 99.5335 754.621 Z" fill="#000000" fill-rule="nonzero" fill-opacity="1" /><path clip-path="url(#clip290)" d="M91.5706 512.557 L99.2095 512.557 L99.2095 486.191 L90.8993 487.858 L90.8993 483.599 L99.1632 481.932 L103.839 481.932 L103.839 512.557 L111.478 512.557 L111.478 516.492 L91.5706 516.492 L91.5706 512.557 Z" fill="#000000" fill-rule="nonzero" fill-opacity="1" /><path clip-path="url(#clip290)" d="M95.1586 239.243 L111.478 239.243 L111.478 243.178 L89.5336 243.178 L89.5336 239.243 Q92.1956 236.488 96.7789 231.858 Q101.385 227.206 102.566 225.863 Q104.811 223.34 105.691 221.604 Q106.594 219.844 106.594 218.155 Q106.594 215.4 104.649 213.664 Q102.728 211.928 99.6261 211.928 Q97.4271 211.928 94.9734 212.692 Q92.5428 213.456 89.7651 215.007 L89.7651 210.284 Q92.5891 209.15 95.0428 208.571 Q97.4965 207.993 99.5335 207.993 Q104.904 207.993 108.098 210.678 Q111.293 213.363 111.293 217.854 Q111.293 219.983 110.483 221.905 Q109.696 223.803 107.589 226.395 Q107.01 227.067 103.909 230.284 Q100.807 233.479 95.1586 239.243 Z" fill="#000000" fill-rule="nonzero" fill-opacity="1" /><polyline clip-path="url(#clip292)" style="stroke:#009af9; stroke-linecap:round; stroke-linejoin:round; stroke-width:8; stroke-opacity:1; fill:none" points="147.478,717.863 149.685,717.313 151.893,716.758 154.1,716.197 156.308,715.63 158.515,715.058 160.723,714.48 162.93,713.896 165.138,713.306 167.345,712.71 169.553,712.108 171.76,711.5 173.968,710.886 176.175,710.266 178.383,709.64 180.59,709.007 182.798,708.368 185.005,707.723 187.213,707.071 189.42,706.412 191.628,705.747 193.835,705.076 196.043,704.397 198.25,703.712 200.458,703.019 202.665,702.32 204.873,701.614 207.08,700.9 209.288,700.18 211.495,699.452 213.702,698.717 215.91,697.974 218.117,697.224 220.325,696.467 222.532,695.701 224.74,694.929 226.947,694.148 229.155,693.359 231.362,692.563 233.57,691.759 235.777,690.946 237.985,690.125 240.192,689.296 242.4,688.459 244.607,687.613 246.815,686.759 249.022,685.896 251.23,685.025 253.437,684.144 255.645,683.255 257.852,682.357 260.06,681.45 262.267,680.534 264.475,679.608 266.682,678.674 268.89,677.729 271.097,676.776 273.305,675.812 275.512,674.839 277.72,673.857 279.927,672.864 282.135,671.861 284.342,670.849 286.549,669.826 288.757,668.793 290.964,667.749 293.172,666.695 295.379,665.63 297.587,664.555 299.794,663.469 302.002,662.371 304.209,661.263 306.417,660.144 308.624,659.013 310.832,657.871 313.039,656.718 315.247,655.553 317.454,654.376 319.662,653.187 321.869,651.987 324.077,650.774 326.284,649.549 328.492,648.312 330.699,647.062 332.907,645.8 335.114,644.525 337.322,643.238 339.529,641.937 341.737,640.623 343.944,639.296 346.152,637.956 348.359,636.602 350.567,635.235 352.774,633.854 354.982,632.459 357.189,631.049 359.397,629.626 361.604,628.189 363.811,626.737 366.019,625.27 368.226,623.788 370.434,622.292 372.641,620.781 374.849,619.254 377.056,617.712 379.264,616.155 381.471,614.582 383.679,612.993 385.886,611.388 388.094,609.767 390.301,608.129 392.509,606.475 394.716,604.805 396.924,603.117 399.131,601.413 401.339,599.691 403.546,597.953 405.754,596.196 407.961,594.423 410.169,592.631 412.376,590.821 414.584,588.993 416.791,587.146 418.999,585.281 421.206,583.398 423.414,581.495 425.621,579.573 427.829,577.632 430.036,575.671 432.244,573.691 434.451,571.691 436.659,569.67 438.866,567.629 441.073,565.568 443.281,563.486 445.488,561.383 447.696,559.259 449.903,557.114 452.111,554.947 454.318,552.758 456.526,550.547 458.733,548.314 460.941,546.058 463.148,543.78 465.356,541.479 467.563,539.155 469.771,536.807 471.978,534.436 474.186,532.04 476.393,529.621 478.601,527.177 480.808,524.709 483.016,522.216 485.223,519.698 487.431,517.154 489.638,514.585 491.846,511.99 494.053,509.369 496.261,506.721 498.468,504.047 500.676,501.346 502.883,498.618 505.091,495.862 507.298,493.079 509.506,490.267 511.713,487.428 513.921,484.56 516.128,481.662 518.335,478.736 520.543,475.781 522.75,472.795 524.958,469.78 527.165,466.734 529.373,463.658 531.58,460.55 533.788,457.412 535.995,454.241 538.203,451.039 540.41,447.805 542.618,444.538 544.825,441.238 547.033,437.906 549.24,434.539 551.448,431.139 553.655,427.705 555.863,424.236 558.07,420.732 560.278,417.193 562.485,413.619 564.693,410.008 566.9,406.361 569.108,402.678 571.315,398.957 573.523,395.199 575.73,391.404 577.938,387.57 580.145,383.697 582.353,379.786 584.56,375.835 586.768,371.844 588.975,367.814 591.182,363.742 593.39,359.63 595.597,355.476 597.805,351.281 600.012,347.043 602.22,342.763 604.427,338.439 606.635,334.072 608.842,329.661 611.05,325.206 613.257,320.705 615.465,316.16 617.672,311.568 619.88,306.931 622.087,302.247 624.295,297.515 626.502,292.736 628.71,287.909 630.917,283.033 633.125,278.109 635.332,273.134 637.54,268.11 639.747,263.035 641.955,257.909 644.162,252.732 646.37,247.502 648.577,242.221 650.785,236.885 652.992,231.497 655.2,226.054 657.407,220.556 659.615,215.003 661.822,209.394 664.03,203.729 666.237,198.007 668.444,192.227 670.652,186.389 672.859,180.492 675.067,174.536 677.274,168.52 679.482,162.444 681.689,156.306 683.897,150.107 686.104,143.845 688.312,137.521 690.519,131.132 692.727,448.603 694.934,445.344 697.142,442.052 699.349,438.728 701.557,435.37 703.764,431.978 705.972,428.552 708.179,425.091 710.387,421.596 712.594,418.065 714.802,414.499 717.009,410.898 719.217,407.26 721.424,403.585 723.632,399.873 725.839,396.124 728.047,392.338 730.254,388.513 732.462,384.65 734.669,380.748 736.877,376.806 739.084,372.825 741.292,368.804 743.499,364.743 745.706,360.64 747.914,356.497 750.121,352.311 752.329,348.084 754.536,343.814 756.744,339.501 758.951,335.145 761.159,330.744 763.366,326.3 765.574,321.811 767.781,317.276 769.989,312.696 772.196,308.07 774.404,303.398 776.611,298.678 778.819,293.911 781.026,289.096 783.234,528.383 785.441,525.927 787.649,523.446 789.856,520.94 792.064,518.409 794.271,515.852 796.479,513.27 798.686,510.662 800.894,508.028 803.101,505.367 805.309,502.679 807.516,499.964 809.724,497.222 811.931,494.453 814.139,491.655 816.346,488.829 818.553,485.975 820.761,483.093 822.968,480.181 825.176,477.24 827.383,474.269 829.591,471.269 831.798,468.238 834.006,465.177 836.213,462.085 838.421,458.962 840.628,455.807 842.836,452.621 845.043,449.402 847.251,446.152 849.458,442.868 851.666,439.552 853.873,436.202 856.081,432.818 858.288,429.401 860.496,425.949 862.703,422.462 864.911,595.736 867.118,593.957 869.326,592.161 871.533,590.346 873.741,588.513 875.948,586.662 878.156,584.792 880.363,582.903 882.571,580.996 884.778,579.069 886.986,577.122 889.193,575.157 891.401,573.171 893.608,571.165 895.815,569.14 898.023,567.094 900.23,565.027 902.438,562.94 904.645,560.831 906.853,558.702 909.06,556.551 911.268,554.378 913.475,552.184 915.683,549.967 917.89,547.728 920.098,545.467 922.305,543.183 924.513,540.876 926.72,538.546 928.928,536.192 931.135,533.815 933.343,531.413 935.55,528.988 937.758,526.538 939.965,524.063 942.173,521.564 944.38,519.039 946.588,516.489 948.795,513.914 951.003,511.312 953.21,508.684 955.418,506.03 957.625,503.349 959.833,500.641 962.04,497.905 964.248,495.142 966.455,492.352 968.663,489.533 970.87,486.686 973.077,483.81 975.285,480.905 977.492,477.971 979.7,475.008 981.907,472.014 984.115,468.991 986.322,465.937 988.53,462.852 990.737,459.737 992.945,456.59 995.152,453.411 997.36,450.2 999.567,446.958 1001.77,443.682 1003.98,440.374 1006.19,437.033 1008.4,433.657 1010.6,430.248 1012.81,426.805 1015.02,423.327 1017.23,419.814 1019.43,416.265 1021.64,412.681 1023.85,409.061 1026.06,405.405 1028.26,401.711 1030.47,397.981 1032.68,394.213 1034.89,390.407 1037.09,579.543 1039.3,577.602 1041.51,575.641 1043.72,573.66 1045.92,571.659 1048.13,569.639 1050.34,567.597 1052.55,565.536 1054.75,563.453 1056.96,561.35 1059.17,559.225 1061.38,557.08 1063.58,554.912 1065.79,552.723 1068,550.512 1070.21,548.278 1072.41,546.022 1074.62,543.744 1076.83,541.442 1079.04,539.118 1081.24,536.77 1083.45,534.398 1085.66,532.003 1087.87,529.583 1090.07,527.139 1092.28,524.671 1094.49,522.177 1096.7,519.659 1098.9,517.115 1101.11,514.546 1103.32,511.951 1105.53,509.329 1107.73,506.682 1109.94,504.007 1112.15,501.306 1114.36,498.578 1116.56,495.822 1118.77,493.038 1120.98,490.226 1123.19,487.386 1125.39,484.518 1127.6,481.62 1129.81,478.693 1132.02,475.737 1134.22,472.751 1136.43,469.735 1138.64,466.689 1140.85,463.612 1143.05,460.504 1145.26,457.365 1147.47,454.194 1149.68,450.991 1151.88,447.756 1154.09,444.489 1156.3,441.189 1158.51,437.855 1160.71,434.488 1162.92,431.087 1165.13,427.652 1167.34,598.36 1169.54,596.608 1171.75,594.838 1173.96,593.05 1176.17,591.245 1178.37,589.421 1180.58,587.579 1182.79,585.718 1185,583.839 1187.2,581.941 1189.41,580.023 1191.62,675.306 1193.83,674.328 1196.03,673.34 1198.24,672.342 1200.45,671.334 1202.66,670.316 1204.86,669.288 1207.07,668.249 1209.28,667.2 1211.49,666.14 1213.69,665.07 1215.9,663.989 1218.11,662.897 1220.32,661.794 1222.52,660.68 1224.73,659.555 1226.94,658.418 1229.15,657.271 1231.35,656.111 1233.56,654.94 1235.77,653.757 1237.98,652.563 1240.18,651.356 1242.39,650.137 1244.6,648.906 1246.81,647.663 1249.01,646.407 1251.22,645.138 1253.43,643.857 1255.64,642.563 1257.84,641.256 1260.05,639.935 1262.26,638.602 1264.47,637.254 1266.67,635.894 1268.88,634.52 1271.09,633.131 1273.3,631.729 1275.5,630.313 1277.71,628.883 1279.92,627.438 1282.13,625.978 1284.33,624.504 1286.54,623.015 1288.75,621.511 1290.96,619.992 1293.16,618.458 1295.37,616.908 1297.58,615.342 1299.79,613.761 1301.99,612.164 1304.2,610.55 1306.41,608.921 1308.62,607.275 1310.82,605.612 1313.03,603.933 1315.24,602.236 1317.45,600.523 1319.65,598.792 1321.86,597.044 1324.07,595.278 1326.28,593.495 1328.48,591.694 1330.69,589.874 1332.9,588.036 1335.11,586.18 1337.31,584.305 1339.52,582.411 1341.73,580.498 1343.94,578.566 1346.14,576.614 1348.35,574.643 1350.56,572.652 1352.76,570.641 1354.97,568.61 1357.18,566.559 1359.39,564.487 1361.59,562.394 1363.8,560.28 1366.01,558.144 1368.22,555.988 1370.42,553.809 1372.63,551.609 1374.84,549.386 1377.05,547.141 1379.25,658.699 1381.46,657.554 1383.67,656.398 1385.88,655.229 1388.08,654.049 1390.29,652.857 1392.5,651.653 1394.71,650.437 1396.91,649.209 1399.12,647.969 1401.33,646.715 1403.54,645.45 1405.74,644.171 1407.95,642.88 1410.16,641.576 1412.37,640.258 1414.57,638.928 1416.78,637.584 1418.99,636.226 1421.2,634.855 1423.4,633.47 1425.61,632.071 1427.82,630.658 1430.03,629.231 1432.23,627.789 1434.44,626.333 1436.65,698.695 1438.86,697.952 1441.06,697.202 1443.27,696.444 1445.48,695.679 1447.69,694.905 1449.89,694.124 1452.1,693.336 1454.31,692.539 1456.52,691.734 1458.72,690.921 1460.93,690.1 1463.14,689.271 1465.35,688.434 1467.55,687.588 1469.76,686.733 1471.97,685.87 1474.18,684.998 1476.38,684.118 1478.59,683.229 1480.8,682.33 1483.01,681.423 1485.21,680.507 1487.42,679.581 1489.63,678.646 1491.84,677.702 1494.04,676.749 1496.25,675.785 1498.46,674.812 1500.67,673.83 1502.87,672.837 1505.08,671.834 1507.29,670.822 1509.5,669.799 1511.7,668.766 1513.91,667.722 1516.12,666.668 1518.33,665.603 1520.53,664.528 1522.74,663.442 1524.95,662.345 1527.16,661.237 1529.36,660.117 1531.57,658.987 1533.78,657.845 1535.99,656.691 1538.19,655.526 1540.4,654.349 1542.61,653.16 1544.82,651.959 1547.02,650.747 1549.23,649.522 1551.44,648.284 1553.65,647.034 1555.85,645.772 1558.06,644.496 1560.27,643.208 1562.48,641.907 1564.68,640.593 1566.89,639.266 1569.1,637.925 1571.31,636.57 1573.51,635.202 1575.72,633.821 1577.93,632.425 1580.14,631.015 1582.34,629.591 1584.55,628.153 1586.76,626.7 1588.97,625.232 1591.17,623.75 1593.38,622.253 1595.59,620.741 1597.8,619.214 1600,617.671 1602.21,616.113 1604.42,614.539 1606.63,612.949 1608.83,611.343 1611.04,609.722 1613.25,608.084 1615.46,606.429 1617.66,604.758 1619.87,603.07 1622.08,601.365 1624.29,599.643 1626.49,597.904 1628.7,596.147 1630.91,594.372 1633.12,592.58 1635.32,590.769 1637.53,588.94 1639.74,587.093 1641.95,585.228 1644.15,583.343 1646.36,581.44 1648.57,579.518 1650.78,577.576 1652.98,575.615 1655.19,573.634 1657.4,571.633 1659.61,569.613 1661.81,567.572 1664.02,565.51 1666.23,563.428 1668.44,561.325 1670.64,559.201 1672.85,557.056 1675.06,554.889 1677.27,552.701 1679.47,550.49 1681.68,548.258 1683.89,546.003 1686.1,543.725 1688.3,541.424 1690.51,539.101 1692.72,536.754 1694.93,534.383 1697.13,531.989 1699.34,529.57 1701.55,527.128 1703.76,524.66 1705.96,522.168 1708.17,519.651 1710.38,517.109 1712.59,514.541 1714.79,511.947 1717,509.326 1719.21,506.68 1721.42,504.007 1723.62,501.307 1725.83,498.579 1728.04,495.825 1730.25,493.042 1732.45,490.231 1734.66,487.392 1736.87,484.525 1739.07,481.628 1741.28,478.702 1743.49,475.747 1745.7,472.762 1747.9,469.747 1750.11,466.701 1752.32,463.624 1754.53,460.517 1756.73,457.378 1758.94,454.207 1761.15,451.005 1763.36,447.77 1765.56,444.502 1767.77,441.201 1769.98,437.867 1772.19,434.499 1774.39,431.098 1776.6,427.662 1778.81,424.191 1781.02,420.686 1783.22,417.144 1785.43,413.568 1787.64,409.955 1789.85,406.306 1792.05,402.62 1794.26,398.896 1796.47,395.136 1798.68,391.337 1800.88,387.5 1803.09,383.625 1805.3,379.711 1807.51,375.757 1809.71,371.764 1811.92,367.73 1814.13,363.656 1816.34,359.541 1818.54,355.385 1820.75,351.187 1822.96,346.947 1825.17,342.665 1827.37,338.339 1829.58,333.971 1831.79,329.559 1834,325.102 1836.2,320.601 1838.41,316.055 1840.62,311.462 1842.83,306.824 1845.03,302.139 1847.24,297.406 1849.45,292.627 1851.66,287.799 1853.86,282.922 1856.07,277.997 1858.28,273.022 1860.49,267.996 1862.69,262.921 1864.9,257.794 1867.11,252.616 1869.32,247.385 1871.52,242.102 1873.73,236.766 1875.94,231.377 1878.15,225.933 1880.35,220.434 1882.56,214.88 1884.77,209.27 1886.98,203.603 1889.18,197.88 1891.39,192.099 1893.6,186.26 1895.81,180.362 1898.01,174.404 1900.22,168.387 1902.43,162.309 1904.64,156.17 1906.84,149.969 1909.05,143.706 1911.26,137.38 1913.47,130.99 1915.67,124.536 1917.88,118.017 1920.09,111.432 1922.3,104.781 1924.5,98.0636 1926.71,91.2782 1928.92,428.51 1931.13,425.049 1933.33,421.553 1935.54,418.022 1937.75,414.455 1939.96,410.853 1942.16,407.214 1944.37,403.539 1946.58,399.826 1948.79,396.077 1950.99,392.29 1953.2,388.464 1955.41,384.6 1957.62,380.698 1959.82,376.756 1962.03,372.775 1964.24,368.753 1966.45,364.691 1968.65,360.589 1970.86,356.445 1973.07,352.259 1975.28,348.032 1977.48,343.762 1979.69,339.449 1981.9,335.093 1984.11,330.693 1986.31,326.248 1988.52,321.759 1990.73,317.225 1992.94,312.645 1995.14,308.019 1997.35,303.347 1999.56,298.628 2001.77,293.861 2003.97,289.046 2006.18,284.182 2008.39,279.27 2010.6,274.308 2012.8,269.297 2015.01,264.234 2017.22,259.121 2019.43,253.957 2021.63,248.74 2023.84,243.471 2026.05,238.148 2028.26,232.772 2030.46,227.342 2032.67,221.858 2034.88,216.318 2037.09,210.722 2039.29,205.069 2041.5,199.36 2043.71,193.594 2045.92,187.769 2048.12,181.885 2050.33,175.943 2052.54,169.94 2054.75,163.877 2056.95,157.753 2059.16,151.568 2061.37,145.32 2063.58,139.009 2065.78,132.635 2067.99,126.197 2070.2,119.694 2072.41,113.125 2074.61,106.491 2076.82,99.7901 2079.03,93.0219 2081.24,86.1857 2083.44,425.946 2085.65,422.46 2087.86,418.938 2090.07,415.381 2092.27,411.788 2094.48,408.159 2096.69,404.493 2098.9,400.79 2101.1,397.051 2103.31,393.273 2105.52,389.458 2107.73,385.604 2109.93,381.712 2112.14,377.78 2114.35,373.809 2116.55,369.797 2118.76,365.746 2120.97,361.653 2123.18,357.52 2125.38,562.934 2127.59,560.825 2129.8,558.695 2132.01,556.544 2134.21,554.371 2136.42,552.176 2138.63,549.959 2140.84,547.719 2143.04,545.457 2145.25,543.173 2147.46,540.865 2149.67,538.535 2151.87,536.18 2154.08,533.803 2156.29,531.401 2158.5,528.976 2160.7,526.526 2162.91,524.051 2165.12,521.552 2167.33,519.027 2169.53,516.478 2171.74,513.902 2173.95,511.301 2176.16,508.674 2178.36,506.021 2180.57,503.34 2182.78,500.633 2184.99,497.899 2187.19,495.138 2189.4,492.348 2191.61,489.531 2193.82,486.685 2196.02,483.811 2198.23,480.908 2200.44,477.976 2202.65,475.014 2204.85,472.023 2207.06,469.001 2209.27,465.949 2211.48,462.867 2213.68,459.753 2215.89,456.608 2218.1,453.431 2220.31,450.223 2222.51,446.982 2224.72,443.708 2226.93,440.402 2229.14,437.062 2231.34,433.688 2233.55,430.281 2235.76,426.839 2237.97,423.362 2240.17,419.85 2242.38,416.303 2244.59,412.72 2246.8,409.101 2249,405.445 2251.21,401.753 2253.42,398.023 2255.63,394.256 2257.83,390.45 2260.04,386.606 2262.25,382.724 2264.46,378.802 2266.66,374.84 2268.87,370.839 2271.08,366.797 2273.29,362.714 2275.49,358.59 2277.7,354.425 2279.91,350.217 2282.12,345.967 2284.32,341.674 2286.53,337.338 2288.74,332.959 2290.95,328.535 2293.15,324.066 2295.36,319.552 2297.57,314.993 2299.78,310.388 2301.98,305.737 2304.19,301.039 2306.4,296.294 2308.61,291.501 2310.81,286.659 2313.02,281.77 2315.23,276.831 2317.44,271.842 2319.64,266.803 2321.85,261.714 2324.06,256.574 2326.27,251.383 2328.47,246.139 2330.68,240.843 2332.89,235.494 2335.1,230.092 2337.3,224.635 2339.51,219.123 2341.72,213.555 2343.93,207.932 2346.13,202.252 2348.34,196.515 2350.55,190.72 2352.76,184.867 "/>
<polyline clip-path="url(#clip292)" style="stroke:#e26f46; stroke-linecap:round; stroke-linejoin:round; stroke-width:8; stroke-opacity:1; fill:none" points="147.478,1363.06 149.685,1362.51 151.893,1361.96 154.1,1361.39 156.308,1360.83 158.515,1360.26 160.723,1359.68 162.93,1359.09 165.138,1358.5 167.345,1357.91 169.553,1357.31 171.76,1356.7 173.968,1356.08 176.175,1355.46 178.383,1354.84 180.59,1354.21 182.798,1353.57 185.005,1352.92 187.213,1352.27 189.42,1351.61 191.628,1350.95 193.835,1350.27 196.043,1349.59 198.25,1348.91 200.458,1348.22 202.665,1347.52 204.873,1346.81 207.08,1346.1 209.288,1345.38 211.495,1344.65 213.702,1343.91 215.91,1343.17 218.117,1342.42 220.325,1341.66 222.532,1340.9 224.74,1340.13 226.947,1339.35 229.155,1338.56 231.362,1337.76 233.57,1336.96 235.777,1336.14 237.985,1335.32 240.192,1334.49 242.4,1333.66 244.607,1332.81 246.815,1331.96 249.022,1331.09 251.23,1330.22 253.437,1329.34 255.645,1328.45 257.852,1327.55 260.06,1326.65 262.267,1325.73 264.475,1324.81 266.682,1323.87 268.89,1322.93 271.097,1321.97 273.305,1321.01 275.512,1320.04 277.72,1319.05 279.927,1318.06 282.135,1317.06 284.342,1316.05 286.549,1315.02 288.757,1313.99 290.964,1312.95 293.172,1311.89 295.379,1310.83 297.587,1309.75 299.794,1308.67 302.002,1307.57 304.209,1306.46 306.417,1305.34 308.624,1304.21 310.832,1303.07 313.039,1301.92 315.247,1300.75 317.454,1299.57 319.662,1298.39 321.869,1297.18 324.077,1295.97 326.284,1294.75 328.492,1293.51 330.699,1292.26 332.907,1291 335.114,1289.72 337.322,1288.44 339.529,1287.13 341.737,1285.82 343.944,1284.49 346.152,1283.15 348.359,1281.8 350.567,1280.43 352.774,1279.05 354.982,1277.66 357.189,1276.25 359.397,1274.82 361.604,1273.39 363.811,1271.93 366.019,1270.47 368.226,1268.99 370.434,1267.49 372.641,1265.98 374.849,1264.45 377.056,1262.91 379.264,1261.35 381.471,1259.78 383.679,1258.19 385.886,1256.59 388.094,1254.96 390.301,1253.33 392.509,1251.67 394.716,1250 396.924,1248.32 399.131,1246.61 401.339,1244.89 403.546,1243.15 405.754,1241.39 407.961,1239.62 410.169,1237.83 412.376,1236.02 414.584,1234.19 416.791,1232.34 418.999,1230.48 421.206,1228.6 423.414,1226.69 425.621,1224.77 427.829,1222.83 430.036,1220.87 432.244,1218.89 434.451,1216.89 436.659,1214.87 438.866,1212.83 441.073,1210.77 443.281,1208.68 445.488,1206.58 447.696,1204.46 449.903,1202.31 452.111,1200.14 454.318,1197.96 456.526,1195.74 458.733,1193.51 460.941,1191.26 463.148,1188.98 465.356,1186.68 467.563,1184.35 469.771,1182 471.978,1179.63 474.186,1177.24 476.393,1174.82 478.601,1172.38 480.808,1169.91 483.016,1167.41 485.223,1164.9 487.431,1162.35 489.638,1159.78 491.846,1157.19 494.053,1154.57 496.261,1151.92 498.468,1149.25 500.676,1146.54 502.883,1143.82 505.091,1141.06 507.298,1138.28 509.506,1135.47 511.713,1132.63 513.921,1129.76 516.128,1126.86 518.335,1123.93 520.543,1120.98 522.75,1117.99 524.958,1114.98 527.165,1111.93 529.373,1108.86 531.58,1105.75 533.788,1102.61 535.995,1099.44 538.203,1096.24 540.41,1093 542.618,1089.74 544.825,1086.44 547.033,1083.1 549.24,1079.74 551.448,1076.34 553.655,1072.9 555.863,1069.43 558.07,1065.93 560.278,1062.39 562.485,1058.82 564.693,1055.21 566.9,1051.56 569.108,1047.88 571.315,1044.15 573.523,1040.4 575.73,1036.6 577.938,1032.77 580.145,1028.89 582.353,1024.98 584.56,1021.03 586.768,1017.04 588.975,1013.01 591.182,1008.94 593.39,1004.83 595.597,1000.67 597.805,996.478 600.012,992.241 602.22,987.96 604.427,983.637 606.635,979.27 608.842,974.859 611.05,970.403 613.257,965.903 615.465,961.358 617.672,956.766 619.88,952.129 622.087,947.444 624.295,942.713 626.502,937.934 628.71,933.107 630.917,928.231 633.125,923.306 635.332,918.332 637.54,913.308 639.747,908.233 641.955,903.107 644.162,897.93 646.37,892.7 648.577,887.418 650.785,882.083 652.992,876.695 655.2,871.252 657.407,865.754 659.615,860.201 661.822,854.592 664.03,848.927 666.237,843.205 668.444,837.425 670.652,831.587 672.859,825.69 675.067,819.734 677.274,813.718 679.482,807.642 681.689,801.504 683.897,795.305 686.104,789.043 688.312,782.718 690.519,776.33 692.727,933.073 694.934,929.814 697.142,926.522 699.349,923.198 701.557,919.84 703.764,916.448 705.972,913.022 708.179,909.561 710.387,906.066 712.594,902.535 714.802,898.969 717.009,895.368 719.217,891.729 721.424,888.055 723.632,884.343 725.839,880.594 728.047,876.808 730.254,872.983 732.462,869.12 734.669,865.218 736.877,861.276 739.084,857.295 741.292,853.274 743.499,849.213 745.706,845.11 747.914,840.967 750.121,836.781 752.329,832.554 754.536,828.284 756.744,823.971 758.951,819.614 761.159,815.214 763.366,810.77 765.574,806.281 767.781,801.746 769.989,797.166 772.196,792.54 774.404,787.867 776.611,783.148 778.819,778.381 781.026,773.566 783.234,879.268 785.441,876.812 787.649,874.331 789.856,871.825 792.064,869.294 794.271,866.738 796.479,864.156 798.686,861.547 800.894,858.913 803.101,856.252 805.309,853.564 807.516,850.85 809.724,848.108 811.931,845.338 814.139,842.541 816.346,839.715 818.553,836.861 820.761,833.978 822.968,831.066 825.176,828.125 827.383,825.155 829.591,822.154 831.798,819.123 834.006,816.062 836.213,812.97 838.421,809.847 840.628,806.693 842.836,803.506 845.043,800.288 847.251,797.037 849.458,793.754 851.666,790.437 853.873,787.087 856.081,783.704 858.288,780.286 860.496,776.834 862.703,773.348 864.911,978.778 867.118,977 869.326,975.203 871.533,973.389 873.741,971.556 875.948,969.705 878.156,967.835 880.363,965.946 882.571,964.038 884.778,962.111 886.986,960.165 889.193,958.199 891.401,956.214 893.608,954.208 895.815,952.183 898.023,950.136 900.23,948.07 902.438,945.982 904.645,943.874 906.853,941.745 909.06,939.594 911.268,937.421 913.475,935.227 915.683,933.01 917.89,930.771 920.098,928.51 922.305,926.226 924.513,923.919 926.72,921.588 928.928,919.235 931.135,916.857 933.343,914.456 935.55,912.031 937.758,909.581 939.965,907.106 942.173,904.607 944.38,902.082 946.588,899.532 948.795,896.956 951.003,894.355 953.21,891.727 955.418,889.072 957.625,886.391 959.833,883.683 962.04,880.948 964.248,878.185 966.455,875.394 968.663,872.576 970.87,869.728 973.077,866.853 975.285,863.948 977.492,861.014 979.7,858.05 981.907,855.057 984.115,852.033 986.322,848.98 988.53,845.895 990.737,842.779 992.945,839.632 995.152,836.454 997.36,833.243 999.567,830 1001.77,826.725 1003.98,823.417 1006.19,820.075 1008.4,816.7 1010.6,813.291 1012.81,809.848 1015.02,806.37 1017.23,802.857 1019.43,799.308 1021.64,795.724 1023.85,792.104 1026.06,788.447 1028.26,784.754 1030.47,781.024 1032.68,777.256 1034.89,773.45 1037.09,925.248 1039.3,923.306 1041.51,921.345 1043.72,919.364 1045.92,917.364 1048.13,915.343 1050.34,913.302 1052.55,911.24 1054.75,909.158 1056.96,907.054 1059.17,904.93 1061.38,902.784 1063.58,900.617 1065.79,898.427 1068,896.216 1070.21,893.983 1072.41,891.727 1074.62,889.448 1076.83,887.147 1079.04,884.822 1081.24,882.474 1083.45,880.102 1085.66,877.707 1087.87,875.287 1090.07,872.843 1092.28,870.375 1094.49,867.882 1096.7,865.363 1098.9,862.819 1101.11,860.25 1103.32,857.655 1105.53,855.034 1107.73,852.386 1109.94,849.712 1112.15,847.01 1114.36,844.282 1116.56,841.526 1118.77,838.742 1120.98,835.93 1123.19,833.09 1125.39,830.222 1127.6,827.324 1129.81,824.398 1132.02,821.442 1134.22,818.456 1136.43,815.44 1138.64,812.393 1140.85,809.316 1143.05,806.208 1145.26,803.069 1147.47,799.898 1149.68,796.696 1151.88,793.461 1154.09,790.193 1156.3,786.893 1158.51,783.559 1160.71,780.192 1162.92,776.792 1165.13,773.357 1167.34,791.63 1169.54,789.878 1171.75,788.108 1173.96,786.321 1176.17,784.515 1178.37,782.691 1180.58,780.849 1182.79,778.989 1185,777.109 1187.2,775.211 1189.41,773.294 1191.62,901.629 1193.83,900.651 1196.03,899.663 1198.24,898.665 1200.45,897.657 1202.66,896.639 1204.86,895.611 1207.07,894.572 1209.28,893.523 1211.49,892.463 1213.69,891.393 1215.9,890.312 1218.11,889.22 1220.32,888.117 1222.52,887.003 1224.73,885.878 1226.94,884.741 1229.15,883.594 1231.35,882.434 1233.56,881.263 1235.77,880.08 1237.98,878.886 1240.18,877.679 1242.39,876.46 1244.6,875.229 1246.81,873.986 1249.01,872.73 1251.22,871.461 1253.43,870.18 1255.64,868.886 1257.84,867.579 1260.05,866.258 1262.26,864.925 1264.47,863.578 1266.67,862.217 1268.88,860.843 1271.09,859.454 1273.3,858.052 1275.5,856.636 1277.71,855.206 1279.92,853.761 1282.13,852.301 1284.33,850.827 1286.54,849.338 1288.75,847.834 1290.96,846.315 1293.16,844.781 1295.37,843.231 1297.58,841.665 1299.79,840.084 1301.99,838.487 1304.2,836.873 1306.41,835.244 1308.62,833.598 1310.82,831.935 1313.03,830.256 1315.24,828.559 1317.45,826.846 1319.65,825.115 1321.86,823.367 1324.07,821.601 1326.28,819.818 1328.48,818.017 1330.69,816.197 1332.9,814.359 1335.11,812.503 1337.31,810.628 1339.52,808.734 1341.73,806.821 1343.94,804.889 1346.14,802.937 1348.35,800.966 1350.56,798.975 1352.76,796.964 1354.97,794.933 1357.18,792.882 1359.39,790.81 1361.59,788.717 1363.8,786.603 1366.01,784.467 1368.22,782.311 1370.42,780.132 1372.63,777.932 1374.84,775.709 1377.05,773.465 1379.25,805.111 1381.46,803.965 1383.67,802.809 1385.88,801.641 1388.08,800.46 1390.29,799.269 1392.5,798.065 1394.71,796.849 1396.91,795.62 1399.12,794.38 1401.33,793.127 1403.54,791.861 1405.74,790.583 1407.95,789.291 1410.16,787.987 1412.37,786.67 1414.57,785.339 1416.78,783.995 1418.99,782.637 1421.2,781.266 1423.4,779.881 1425.61,778.482 1427.82,777.069 1430.03,775.642 1432.23,774.2 1434.44,772.744 1436.65,1384.24 1438.86,1383.5 1441.06,1382.75 1443.27,1381.99 1445.48,1381.22 1447.69,1380.45 1449.89,1379.67 1452.1,1378.88 1454.31,1378.08 1456.52,1377.28 1458.72,1376.46 1460.93,1375.64 1463.14,1374.81 1465.35,1373.98 1467.55,1373.13 1469.76,1372.28 1471.97,1371.41 1474.18,1370.54 1476.38,1369.66 1478.59,1368.77 1480.8,1367.87 1483.01,1366.97 1485.21,1366.05 1487.42,1365.12 1489.63,1364.19 1491.84,1363.25 1494.04,1362.29 1496.25,1361.33 1498.46,1360.36 1500.67,1359.37 1502.87,1358.38 1505.08,1357.38 1507.29,1356.37 1509.5,1355.34 1511.7,1354.31 1513.91,1353.27 1516.12,1352.21 1518.33,1351.15 1520.53,1350.07 1522.74,1348.99 1524.95,1347.89 1527.16,1346.78 1529.36,1345.66 1531.57,1344.53 1533.78,1343.39 1535.99,1342.23 1538.19,1341.07 1540.4,1339.89 1542.61,1338.7 1544.82,1337.5 1547.02,1336.29 1549.23,1335.06 1551.44,1333.83 1553.65,1332.58 1555.85,1331.32 1558.06,1330.04 1560.27,1328.75 1562.48,1327.45 1564.68,1326.14 1566.89,1324.81 1569.1,1323.47 1571.31,1322.11 1573.51,1320.75 1575.72,1319.36 1577.93,1317.97 1580.14,1316.56 1582.34,1315.13 1584.55,1313.7 1586.76,1312.24 1588.97,1310.78 1591.17,1309.29 1593.38,1307.8 1595.59,1306.28 1597.8,1304.76 1600,1303.21 1602.21,1301.66 1604.42,1300.08 1606.63,1298.49 1608.83,1296.89 1611.04,1295.27 1613.25,1293.63 1615.46,1291.97 1617.66,1290.3 1619.87,1288.61 1622.08,1286.91 1624.29,1285.19 1626.49,1283.45 1628.7,1281.69 1630.91,1279.92 1633.12,1278.12 1635.32,1276.31 1637.53,1274.48 1639.74,1272.64 1641.95,1270.77 1644.15,1268.89 1646.36,1266.98 1648.57,1265.06 1650.78,1263.12 1652.98,1261.16 1655.19,1259.18 1657.4,1257.18 1659.61,1255.16 1661.81,1253.12 1664.02,1251.05 1666.23,1248.97 1668.44,1246.87 1670.64,1244.74 1672.85,1242.6 1675.06,1240.43 1677.27,1238.24 1679.47,1236.03 1681.68,1233.8 1683.89,1231.55 1686.1,1229.27 1688.3,1226.97 1690.51,1224.64 1692.72,1222.3 1694.93,1219.93 1697.13,1217.53 1699.34,1215.11 1701.55,1212.67 1703.76,1210.2 1705.96,1207.71 1708.17,1205.19 1710.38,1202.65 1712.59,1200.08 1714.79,1197.49 1717,1194.87 1719.21,1192.22 1721.42,1189.55 1723.62,1186.85 1725.83,1184.12 1728.04,1181.37 1730.25,1178.59 1732.45,1175.77 1734.66,1172.94 1736.87,1170.07 1739.07,1167.17 1741.28,1164.25 1743.49,1161.29 1745.7,1158.31 1747.9,1155.29 1750.11,1152.24 1752.32,1149.17 1754.53,1146.06 1756.73,1142.92 1758.94,1139.75 1761.15,1136.55 1763.36,1133.31 1765.56,1130.05 1767.77,1126.74 1769.98,1123.41 1772.19,1120.04 1774.39,1116.64 1776.6,1113.21 1778.81,1109.73 1781.02,1106.23 1783.22,1102.69 1785.43,1099.11 1787.64,1095.5 1789.85,1091.85 1792.05,1088.16 1794.26,1084.44 1796.47,1080.68 1798.68,1076.88 1800.88,1073.04 1803.09,1069.17 1805.3,1065.25 1807.51,1061.3 1809.71,1057.31 1811.92,1053.27 1814.13,1049.2 1816.34,1045.08 1818.54,1040.93 1820.75,1036.73 1822.96,1032.49 1825.17,1028.21 1827.37,1023.88 1829.58,1019.51 1831.79,1015.1 1834,1010.65 1836.2,1006.14 1838.41,1001.6 1840.62,997.006 1842.83,992.367 1845.03,987.682 1847.24,982.95 1849.45,978.17 1851.66,973.342 1853.86,968.465 1856.07,963.54 1858.28,958.565 1860.49,953.54 1862.69,948.464 1864.9,943.337 1867.11,938.159 1869.32,932.929 1871.52,927.646 1873.73,922.31 1875.94,916.92 1878.15,911.476 1880.35,905.977 1882.56,900.423 1884.77,894.813 1886.98,889.147 1889.18,883.423 1891.39,877.642 1893.6,871.803 1895.81,865.905 1898.01,859.948 1900.22,853.93 1902.43,847.852 1904.64,841.713 1906.84,835.513 1909.05,829.25 1911.26,822.923 1913.47,816.533 1915.67,810.079 1917.88,803.56 1920.09,796.976 1922.3,790.325 1924.5,783.607 1926.71,776.822 1928.92,1118.42 1931.13,1114.96 1933.33,1111.46 1935.54,1107.93 1937.75,1104.36 1939.96,1100.76 1942.16,1097.12 1944.37,1093.45 1946.58,1089.73 1948.79,1085.98 1950.99,1082.2 1953.2,1078.37 1955.41,1074.51 1957.62,1070.6 1959.82,1066.66 1962.03,1062.68 1964.24,1058.66 1966.45,1054.6 1968.65,1050.5 1970.86,1046.35 1973.07,1042.17 1975.28,1037.94 1977.48,1033.67 1979.69,1029.36 1981.9,1025 1984.11,1020.6 1986.31,1016.15 1988.52,1011.67 1990.73,1007.13 1992.94,1002.55 1995.14,997.926 1997.35,993.254 1999.56,988.534 2001.77,983.767 2003.97,978.952 2006.18,974.089 2008.39,969.177 2010.6,964.215 2012.8,959.203 2015.01,954.141 2017.22,949.028 2019.43,943.863 2021.63,938.646 2023.84,933.377 2026.05,928.055 2028.26,922.679 2030.46,917.249 2032.67,911.764 2034.88,906.224 2037.09,900.628 2039.29,894.976 2041.5,889.267 2043.71,883.5 2045.92,877.675 2048.12,871.792 2050.33,865.849 2052.54,859.847 2054.75,853.784 2056.95,847.66 2059.16,841.474 2061.37,835.226 2063.58,828.916 2065.78,822.542 2067.99,816.103 2070.2,809.6 2072.41,803.032 2074.61,796.398 2076.82,789.697 2079.03,782.928 2081.24,776.092 2083.44,841.921 2085.65,838.435 2087.86,834.913 2090.07,831.356 2092.27,827.763 2094.48,824.134 2096.69,820.468 2098.9,816.765 2101.1,813.026 2103.31,809.248 2105.52,805.433 2107.73,801.579 2109.93,797.687 2112.14,793.755 2114.35,789.784 2116.55,785.772 2118.76,781.721 2120.97,777.629 2123.18,773.495 2125.38,1379.26 2127.59,1377.15 2129.8,1375.02 2132.01,1372.87 2134.21,1370.7 2136.42,1368.5 2138.63,1366.29 2140.84,1364.05 2143.04,1361.79 2145.25,1359.5 2147.46,1357.19 2149.67,1354.86 2151.87,1352.51 2154.08,1350.13 2156.29,1347.73 2158.5,1345.3 2160.7,1342.85 2162.91,1340.38 2165.12,1337.88 2167.33,1335.36 2169.53,1332.81 2171.74,1330.23 2173.95,1327.63 2176.16,1325 2178.36,1322.35 2180.57,1319.67 2182.78,1316.96 2184.99,1314.23 2187.19,1311.47 2189.4,1308.68 2191.61,1305.86 2193.82,1303.01 2196.02,1300.14 2198.23,1297.24 2200.44,1294.3 2202.65,1291.34 2204.85,1288.35 2207.06,1285.33 2209.27,1282.28 2211.48,1279.2 2213.68,1276.08 2215.89,1272.94 2218.1,1269.76 2220.31,1266.55 2222.51,1263.31 2224.72,1260.04 2226.93,1256.73 2229.14,1253.39 2231.34,1250.02 2233.55,1246.61 2235.76,1243.17 2237.97,1239.69 2240.17,1236.18 2242.38,1232.63 2244.59,1229.05 2246.8,1225.43 2249,1221.77 2251.21,1218.08 2253.42,1214.35 2255.63,1210.58 2257.83,1206.78 2260.04,1202.93 2262.25,1199.05 2264.46,1195.13 2266.66,1191.17 2268.87,1187.17 2271.08,1183.13 2273.29,1179.04 2275.49,1174.92 2277.7,1170.75 2279.91,1166.55 2282.12,1162.3 2284.32,1158 2286.53,1153.67 2288.74,1149.29 2290.95,1144.86 2293.15,1140.39 2295.36,1135.88 2297.57,1131.32 2299.78,1126.72 2301.98,1122.07 2304.19,1117.37 2306.4,1112.62 2308.61,1107.83 2310.81,1102.99 2313.02,1098.1 2315.23,1093.16 2317.44,1088.17 2319.64,1083.13 2321.85,1078.04 2324.06,1072.9 2326.27,1067.71 2328.47,1062.47 2330.68,1057.17 2332.89,1051.82 2335.1,1046.42 2337.3,1040.96 2339.51,1035.45 2341.72,1029.88 2343.93,1024.26 2346.13,1018.58 2348.34,1012.84 2350.55,1007.05 2352.76,1001.2 "/>
<path clip-path="url(#clip290)" d="M220.987 248.629 L530.612 248.629 L530.612 93.1086 L220.987 93.1086  Z" fill="#ffffff" fill-rule="evenodd" fill-opacity="1"/>
<polyline clip-path="url(#clip290)" style="stroke:#000000; stroke-linecap:round; stroke-linejoin:round; stroke-width:4; stroke-opacity:1; fill:none" points="220.987,248.629 530.612,248.629 530.612,93.1086 220.987,93.1086 220.987,248.629 "/>
<polyline clip-path="url(#clip290)" style="stroke:#009af9; stroke-linecap:round; stroke-linejoin:round; stroke-width:8; stroke-opacity:1; fill:none" points="245.49,144.949 392.509,144.949 "/>
<path clip-path="url(#clip290)" d="M417.012 151.997 L417.012 136.303 L421.271 136.303 L421.271 151.835 Q421.271 155.516 422.706 157.368 Q424.141 159.196 427.012 159.196 Q430.461 159.196 432.452 156.997 Q434.466 154.798 434.466 151.002 L434.466 136.303 L438.725 136.303 L438.725 162.229 L434.466 162.229 L434.466 158.247 Q432.915 160.608 430.854 161.766 Q428.817 162.9 426.109 162.9 Q421.641 162.9 419.327 160.122 Q417.012 157.344 417.012 151.997 M427.729 135.678 L427.729 135.678 Z" fill="#000000" fill-rule="nonzero" fill-opacity="1" /><path clip-path="url(#clip290)" d="M447.104 126.21 L456.919 126.21 L456.919 129.52 L451.364 129.52 L451.364 165.168 L456.919 165.168 L456.919 168.479 L447.104 168.479 L447.104 126.21 Z" fill="#000000" fill-rule="nonzero" fill-opacity="1" /><path clip-path="url(#clip290)" d="M467.405 158.293 L475.044 158.293 L475.044 131.928 L466.734 133.595 L466.734 129.335 L474.998 127.669 L479.674 127.669 L479.674 158.293 L487.312 158.293 L487.312 162.229 L467.405 162.229 L467.405 158.293 Z" fill="#000000" fill-rule="nonzero" fill-opacity="1" /><path clip-path="url(#clip290)" d="M506.109 126.21 L506.109 168.479 L496.294 168.479 L496.294 165.168 L501.826 165.168 L501.826 129.52 L496.294 129.52 L496.294 126.21 L506.109 126.21 Z" fill="#000000" fill-rule="nonzero" fill-opacity="1" /><polyline clip-path="url(#clip290)" style="stroke:#e26f46; stroke-linecap:round; stroke-linejoin:round; stroke-width:8; stroke-opacity:1; fill:none" points="245.49,196.789 392.509,196.789 "/>
<path clip-path="url(#clip290)" d="M417.012 203.837 L417.012 188.143 L421.271 188.143 L421.271 203.675 Q421.271 207.356 422.706 209.208 Q424.141 211.036 427.012 211.036 Q430.461 211.036 432.452 208.837 Q434.466 206.638 434.466 202.842 L434.466 188.143 L438.725 188.143 L438.725 214.069 L434.466 214.069 L434.466 210.087 Q432.915 212.448 430.854 213.606 Q428.817 214.74 426.109 214.74 Q421.641 214.74 419.327 211.962 Q417.012 209.184 417.012 203.837 M427.729 187.518 L427.729 187.518 Z" fill="#000000" fill-rule="nonzero" fill-opacity="1" /><path clip-path="url(#clip290)" d="M447.104 178.05 L456.919 178.05 L456.919 181.36 L451.364 181.36 L451.364 217.008 L456.919 217.008 L456.919 220.319 L447.104 220.319 L447.104 178.05 Z" fill="#000000" fill-rule="nonzero" fill-opacity="1" /><path clip-path="url(#clip290)" d="M470.623 210.133 L486.942 210.133 L486.942 214.069 L464.998 214.069 L464.998 210.133 Q467.66 207.379 472.243 202.749 Q476.85 198.096 478.03 196.754 Q480.275 194.231 481.155 192.495 Q482.058 190.735 482.058 189.046 Q482.058 186.291 480.113 184.555 Q478.192 182.819 475.09 182.819 Q472.891 182.819 470.438 183.583 Q468.007 184.347 465.229 185.897 L465.229 181.175 Q468.053 180.041 470.507 179.462 Q472.961 178.884 474.998 178.884 Q480.368 178.884 483.562 181.569 Q486.757 184.254 486.757 188.745 Q486.757 190.874 485.947 192.796 Q485.16 194.694 483.053 197.286 Q482.475 197.958 479.373 201.175 Q476.271 204.37 470.623 210.133 Z" fill="#000000" fill-rule="nonzero" fill-opacity="1" /><path clip-path="url(#clip290)" d="M506.109 178.05 L506.109 220.319 L496.294 220.319 L496.294 217.008 L501.826 217.008 L501.826 181.36 L496.294 181.36 L496.294 178.05 L506.109 178.05 Z" fill="#000000" fill-rule="nonzero" fill-opacity="1" /></svg>
